<svg xmlns="http://www.w3.org/2000/svg" width="109" height="109" viewBox="0 0 109 109"><g id="kvg:StrokePaths_0305c"><g id="kvg:0305c" kvg:element="ぜ"><path id="kvg:0305c-s1" d="M16.5 49.93c2.88 2.42 6.86 1.57 12.75.53 19-3.34 32.5-5.34 47.12-7.64 6.97-1.1 11.88-1.21 17.75-.36"/><path id="kvg:0305c-s2" d="M69.74 17.75c2 1.5 2.75 3.25 2.75 5.88.0 10.38.0 17.88.0 23.5.0 25.62-5.75 23.25-11.88 19"/><path id="kvg:0305c-s3" d="M35.62 26.25c2 1.5 2.75 3.25 2.75 5.88.0 10.38.0 28.38.0 34 0 14.5 6.38 19.55 20.14 19.55 10.24.0 13.74.07 22.61-1.68"/><path id="kvg:0305c-s4" d="M84.5 17.25c2.75 1.75 6 5.38 7.75 8.5"/><path id="kvg:0305c-s5" d="M90.87 12.38c3.06 1.57 6.68 4.82 8.62 7.62"/></g></g></svg>