<svg xmlns="http://www.w3.org/2000/svg" width="109" height="109" viewBox="0 0 109 109"><g id="kvg:StrokePaths_03073" style="fill:none;stroke:#000000;stroke-width:3;stroke-linecap:round;stroke-linejoin:round;"><g id="kvg:03073" kvg:element="び"><path id="kvg:03073-s1" d="M20 25.12c1.25.88 3.75 2.25 6.5 1.38s7.31-2.38 11.38-4.5c6-3.12 8.42-1.01 4.25 4C15 58.62 18.37 84.5 40.61 88.88c18.07 3.56 37.63-16.38 35.63-56.51-.72-14.5-.17-14.78 4.12-1.75C84.12 42 90.62 51.38 96.5 57.12"/><path id="kvg:03073-s2" d="M86.5 13.5c2.75 1.75 6 5.38 7.75 8.5"/><path id="kvg:03073-s3" d="M92.87 8.62c3.06 1.57 6.68 4.82 8.62 7.62"/></g></g></svg>