<!DOCTYPE svg PUBLIC "-//W3C//DTD SVG 1.0//EN" "http://www.w3.org/TR/2001/REC-SVG-20010904/DTD/svg10.dtd" [
<!ATTLIST g
xmlns:kvg CDATA #FIXED "http://kanjivg.tagaini.net"
kvg:element CDATA #IMPLIED
kvg:variant CDATA #IMPLIED
kvg:partial CDATA #IMPLIED
kvg:original CDATA #IMPLIED
kvg:part CDATA #IMPLIED
kvg:number CDATA #IMPLIED
kvg:tradForm CDATA #IMPLIED
kvg:radicalForm CDATA #IMPLIED
kvg:position CDATA #IMPLIED
kvg:radical CDATA #IMPLIED
kvg:phon CDATA #IMPLIED >
<!ATTLIST path
xmlns:kvg CDATA #FIXED "http://kanjivg.tagaini.net"
kvg:type CDATA #IMPLIED >
]><svg xmlns="http://www.w3.org/2000/svg" width="109" height="109" viewBox="0 0 109 109"><g id="kvg:StrokePaths_03080" style="fill:none;stroke:#000000;stroke-width:3;stroke-linecap:round;stroke-linejoin:round;"><g id="kvg:03080" kvg:element="む"><path id="kvg:03080-s1" d="M19.59 31.65c2.1 1.55 4.24 1.66 6.81 1.21 8.17-1.41 15.33-2.98 23.19-4.96 2.76-.69 5.44-1.27 7.05-1.27"/><path id="kvg:03080-s2" d="M37.02 15.5c1.62 1.25 2.31 2.88 2.12 5.25-.88 11.12-1.5 20.75-4 34.88C31.53 76.07 15.89 72.62 16.52 63c.5-7.74 6.25-12.86 12.62-13.5 5-.5 14.28 1.93 5.88 15C22.4 84.12 23.6 89.01 40.13 90.04c10.98.68 19.26.72 28.49-.92 14.15-2.5 7.4-2.63 7.4-11.13"/><path id="kvg:03080-s3" d="M78.52 36.25c6.88 3.12 11.71 5.95 14.88 10.12 6.25 8.25-1.38 3.62-4.5 4.5"/></g></g><g id="kvg:StrokeNumbers_03080" style="font-size:8;fill:#808080"><text transform="matrix(1 0 0 1 12.9 29)">1</text><text transform="matrix(1 0 0 1 26.65 13)">2</text><text transform="matrix(1 0 0 1 70.4 34.75)">3</text></g></svg>