<!DOCTYPE svg PUBLIC "-//W3C//DTD SVG 1.0//EN" "http://www.w3.org/TR/2001/REC-SVG-20010904/DTD/svg10.dtd" [
<!ATTLIST g
xmlns:kvg CDATA #FIXED "http://kanjivg.tagaini.net"
kvg:element CDATA #IMPLIED
kvg:variant CDATA #IMPLIED
kvg:partial CDATA #IMPLIED
kvg:original CDATA #IMPLIED
kvg:part CDATA #IMPLIED
kvg:number CDATA #IMPLIED
kvg:tradForm CDATA #IMPLIED
kvg:radicalForm CDATA #IMPLIED
kvg:position CDATA #IMPLIED
kvg:radical CDATA #IMPLIED
kvg:phon CDATA #IMPLIED >
<!ATTLIST path
xmlns:kvg CDATA #FIXED "http://kanjivg.tagaini.net"
kvg:type CDATA #IMPLIED >
]><svg xmlns="http://www.w3.org/2000/svg" width="109" height="109" viewBox="0 0 109 109"><g id="kvg:StrokePaths_03095" style="fill:none;stroke:#000000;stroke-width:3;stroke-linecap:round;stroke-linejoin:round;"><g id="kvg:03095" kvg:element="ゕ"><path id="kvg:03095-s1" d="M26.27 50.39c1.73 1.5 4.29 2.15 7.97.92 23.56-7.85 27.25-3.81 27.25 7.04.0 8.66-1.15 16.13-3.93 23.33-7.04 18.25-10.04 16.06-14.9 10.05"/><path id="kvg:03095-s2" d="M48.32 30.88c.92 1.27 1.2 4.34.46 6.58-4.62 14.09-16.65 37.81-18.13 40.53C27.77 83.3 24.77 88.96 22 93"/><path id="kvg:03095-s3" d="M75 43.92c6.93 6.35 12.24 14.55 13.86 22.98"/></g></g><g id="kvg:StrokeNumbers_03095" style="font-size:8;fill:#808080"><text transform="matrix(1 0 0 1 20 48.75)">1</text><text transform="matrix(1 0 0 1 42.25 27.75)">2</text><text transform="matrix(1 0 0 1 69.25 40.88)">3</text></g></svg>