<!DOCTYPE svg PUBLIC "-//W3C//DTD SVG 1.0//EN" "http://www.w3.org/TR/2001/REC-SVG-20010904/DTD/svg10.dtd" [
<!ATTLIST g
xmlns:kvg CDATA #FIXED "http://kanjivg.tagaini.net"
kvg:element CDATA #IMPLIED
kvg:variant CDATA #IMPLIED
kvg:partial CDATA #IMPLIED
kvg:original CDATA #IMPLIED
kvg:part CDATA #IMPLIED
kvg:number CDATA #IMPLIED
kvg:tradForm CDATA #IMPLIED
kvg:radicalForm CDATA #IMPLIED
kvg:position CDATA #IMPLIED
kvg:radical CDATA #IMPLIED
kvg:phon CDATA #IMPLIED >
<!ATTLIST path
xmlns:kvg CDATA #FIXED "http://kanjivg.tagaini.net"
kvg:type CDATA #IMPLIED >
]><svg xmlns="http://www.w3.org/2000/svg" width="109" height="109" viewBox="0 0 109 109"><g id="kvg:StrokePaths_03096" style="fill:none;stroke:#000000;stroke-width:3;stroke-linecap:round;stroke-linejoin:round;"><g id="kvg:03096" kvg:element="ゖ"><path id="kvg:03096-s1" d="M28.76 34.57c1.09 1.31 2.29 3.28 1.86 5.57-2.62 13.88-5.68 25.79-4.26 39.01 1.77 16.47 1.97 4.15 5.9-3.06"/><path id="kvg:03096-s2" d="M54.11 51.07c1.86 1.2 3.74 1.65 6.01 1.31 7.21-1.09 13.45-2.25 18.03-3.5 2.4-.66 4.59-.98 6.01-.98"/><path id="kvg:03096-s3" d="M69.84 29.88c1.86 1.2 2.51 2.94 2.51 4.48.0 10.16.11 17.81.11 26.34.0 18.14-.55 26.99-10.93 36.93"/></g></g><g id="kvg:StrokeNumbers_03096" style="font-size:8;fill:#808080"><text transform="matrix(1 0 0 1 22.41 34.25)">1</text><text transform="matrix(1 0 0 1 46.41 49.38)">2</text><text transform="matrix(1 0 0 1 62.41 28.5)">3</text></g></svg>