<!DOCTYPE svg PUBLIC "-//W3C//DTD SVG 1.0//EN" "http://www.w3.org/TR/2001/REC-SVG-20010904/DTD/svg10.dtd" [
<!ATTLIST g
xmlns:kvg CDATA #FIXED "http://kanjivg.tagaini.net"
kvg:element CDATA #IMPLIED
kvg:variant CDATA #IMPLIED
kvg:partial CDATA #IMPLIED
kvg:original CDATA #IMPLIED
kvg:part CDATA #IMPLIED
kvg:number CDATA #IMPLIED
kvg:tradForm CDATA #IMPLIED
kvg:radicalForm CDATA #IMPLIED
kvg:position CDATA #IMPLIED
kvg:radical CDATA #IMPLIED
kvg:phon CDATA #IMPLIED >
<!ATTLIST path
xmlns:kvg CDATA #FIXED "http://kanjivg.tagaini.net"
kvg:type CDATA #IMPLIED >
]><svg xmlns="http://www.w3.org/2000/svg" width="109" height="109" viewBox="0 0 109 109"><g id="kvg:StrokePaths_030ab" style="fill:none;stroke:#000000;stroke-width:3;stroke-linecap:round;stroke-linejoin:round;"><g id="kvg:030ab" kvg:element="カ"><path id="kvg:030ab-s1" d="M25.5 40.62c1.88 1.25 4.51 1.87 7.12 1.5 17.88-2.5 32.78-4.51 42.5-5.88 7.12-1 10.59.24 8.62 7.88-2.12 8.25-4.47 17.81-9.25 29.12C64 98.12 60.38 87.75 55.25 85.12"/><path id="kvg:030ab-s2" d="M55.88 17.12c.88 1.62 1.29 3.83.75 6.75-4.25 22.88-15.88 45.25-30.25 58.88"/></g></g><g id="kvg:StrokeNumbers_030ab" style="font-size:8;fill:#808080"><text transform="matrix(1 0 0 1 18.13 41.13)">1</text><text transform="matrix(1 0 0 1 46.25 17.25)">2</text></g></svg>