<!DOCTYPE svg PUBLIC "-//W3C//DTD SVG 1.0//EN" "http://www.w3.org/TR/2001/REC-SVG-20010904/DTD/svg10.dtd" [
<!ATTLIST g
xmlns:kvg CDATA #FIXED "http://kanjivg.tagaini.net"
kvg:element CDATA #IMPLIED
kvg:variant CDATA #IMPLIED
kvg:partial CDATA #IMPLIED
kvg:original CDATA #IMPLIED
kvg:part CDATA #IMPLIED
kvg:number CDATA #IMPLIED
kvg:tradForm CDATA #IMPLIED
kvg:radicalForm CDATA #IMPLIED
kvg:position CDATA #IMPLIED
kvg:radical CDATA #IMPLIED
kvg:phon CDATA #IMPLIED >
<!ATTLIST path
xmlns:kvg CDATA #FIXED "http://kanjivg.tagaini.net"
kvg:type CDATA #IMPLIED >
]><svg xmlns="http://www.w3.org/2000/svg" width="109" height="109" viewBox="0 0 109 109"><g id="kvg:StrokePaths_030a7" style="fill:none;stroke:#000000;stroke-width:3;stroke-linecap:round;stroke-linejoin:round;"><g id="kvg:030a7" kvg:element="ェ"><path id="kvg:030a7-s1" d="M36.22 52.7c1.84.56 4.08.53 5.93.24 6.8-1.08 17.77-2.28 26.71-3.07 1.8-.16 3.59-.15 5.37.18"/><path id="kvg:030a7-s2" d="M53.25 54.65c.79.9 1.04 2.4.99 3.7-.14 3.79-.4 10.3-.65 17.78-.06 1.85-.12 3.25-.18 5.19"/><path id="kvg:030a7-s3" d="M26 84.03c2.71.7 6.01.65 8.73.29 14.11-1.84 27.4-2.86 40.12-2.89 2.65-.01 5.73.31 8.3 1.33"/></g></g><g id="kvg:StrokeNumbers_030a7" style="font-size:8;fill:#808080"><text transform="matrix(1 0 0 1 29.29 51.13)">1</text><text transform="matrix(1 0 0 1 46.16 61.25)">2</text><text transform="matrix(1 0 0 1 20.29 79.63)">3</text></g></svg>