<svg xmlns="http://www.w3.org/2000/svg" width="109" height="109" viewBox="0 0 109 109"><g id="kvg:StrokePaths_030b5"><g id="kvg:030b5" kvg:element="サ"><path id="kvg:030b5-s1" d="M16.5 44.34c2.84 1.27 4.77 1.91 8.93 1.13 17.2-3.22 40.45-5.35 58.53-5.34 4.33.0 6.92.37 10.42.82"/><path id="kvg:030b5-s2" d="M36.63 23.38c1.12 1.38 1.19 2.5 1.25 4.75.25 9 .38 20.25.75 28.88.14 3.25.38 7.12.38 9.25"/><path id="kvg:030b5-s3" d="M69.63 16.62c1.5 2 1.62 2.87 1.62 6.25.0 8.25-.16 9-.16 15.88.0 23.25-9.34 42.5-23.21 53"/></g></g></svg>