<svg xmlns="http://www.w3.org/2000/svg" width="109" height="109" viewBox="0 0 109 109"><g id="kvg:StrokePaths_030b2" style="fill:none;stroke:#000000;stroke-width:3;stroke-linecap:round;stroke-linejoin:round;"><g id="kvg:030b2" kvg:element="ゲ"><path id="kvg:030b2-s1" d="M40.96 17.88c.44 1.9.39 4.42-.59 6.5C35.55 34.69 31.16 44.05 21.5 55"/><path id="kvg:030b2-s2" d="M37.88 37.62c2.12.88 4.15 1.04 6.62.5 12.62-2.75 25.5-4.88 35.75-6.5 3.61-.57 6.25-.75 9.25-.5"/><path id="kvg:030b2-s3" d="M64.46 38.88c.44 1.9.5 4.27-.08 6.5-3.63 13.75-9.25 31.25-24.63 43.87"/><path id="kvg:030b2-s4" d="M83.62 13.94c2.95 1.81 6.43 5.57 8.3 8.81"/><path id="kvg:030b2-s5" d="M90.12 9.12c3.02 1.63 6.58 5 8.5 7.9"/></g></g></svg>