<svg xmlns="http://www.w3.org/2000/svg" width="109" height="109" viewBox="0 0 109 109"><g id="kvg:StrokePaths_030d4"><g id="kvg:030d4" kvg:element="ピ"><path id="kvg:030d4-s1" d="M35.38 44.5c1.75 1.38 4.51 2.19 6.88 1.88C52.5 45 59.5 43.5 66.5 42.12c3.01-.59 7.12-1 9.38-.88"/><path id="kvg:030d4-s2" d="M31 17.62c1.38 1.26 1.88 3.38 1.88 6.13S32 67.75 32 71c0 9.75 4 14.62 13.75 14.62 6 0 16.38.12 21.38.0s9.5-.62 13.5-1.5"/><path id="kvg:030d4-s3" d="M83 32.88c-9.62.0-9.25-14.25.0-14.25 9.76-.01 9.5 14.25.0 14.25"/></g></g></svg>