<svg xmlns="http://www.w3.org/2000/svg" width="109" height="109" viewBox="0 0 109 109"><g id="kvg:StrokePaths_030d3" style="fill:none;stroke:#000000;stroke-width:3;stroke-linecap:round;stroke-linejoin:round;"><g id="kvg:030d3" kvg:element="ビ"><path id="kvg:030d3-s1" d="M35.38 44.5c1.75 1.38 4.51 2.19 6.88 1.88C52.5 45 59.5 43.5 66.5 42.12c3.01-.59 7.12-1 9.38-.88"/><path id="kvg:030d3-s2" d="M31 17.62c1.38 1.26 1.88 3.38 1.88 6.13S32 67.75 32 71c0 9.75 4 14.62 13.75 14.62 6 0 16.38.12 21.38.0s9.5-.62 13.5-1.5"/><path id="kvg:030d3-s3" d="M78.13 26.25c2.75 1.75 6 5.38 7.75 8.5"/><path id="kvg:030d3-s4" d="M84.5 21.38c3.06 1.57 6.68 4.82 8.62 7.62"/></g></g></svg>