<svg xmlns="http://www.w3.org/2000/svg" width="109" height="109" viewBox="0 0 109 109"><g id="kvg:StrokePaths_04e15" style="fill:none;stroke:#000000;stroke-width:3;stroke-linecap:round;stroke-linejoin:round;"><g id="kvg:04e15" kvg:element="丕"><g id="kvg:04e15-g1" kvg:element="不" kvg:position="top"><g id="kvg:04e15-g2" kvg:element="一" kvg:radical="general"><path id="kvg:04e15-s1" kvg:type="㇐" d="M22.06 19.17c1.41.4 3.99.45 5.39.4 10.55-.32 41.6-3.62 57.05-4.35 2.34-.11 3.75.19 4.92.4"/></g><g id="kvg:04e15-g3" kvg:element="丿"><path id="kvg:04e15-s2" kvg:type="㇒" d="M58.95 20.55c.12 1.04.26 2.69-.25 4.18-3.01 8.81-20.29 28.15-43.94 39.99"/></g><g id="kvg:04e15-g4" kvg:element="丨"><path id="kvg:04e15-s3" kvg:type="㇑" d="M52.29 40.03c.98.45 1.56 2.02 1.76 2.92.2.9.0 38-.2 43.61"/></g><path id="kvg:04e15-s4" kvg:type="㇔" d="M61.47 40.51c8.87 3.89 19.8 13.3 25.13 22.04"/></g><g id="kvg:04e15-g5" kvg:element="一" kvg:position="bottom"><path id="kvg:04e15-s5" kvg:type="㇐" d="M16.31 94.14c1.58.43 4.47.44 6.06.43 11.25-.08 46.17-3.33 63.53-4.11 2.63-.12 4.21.21 5.53.42"/></g></g></g></svg>