<svg xmlns="http://www.w3.org/2000/svg" width="109" height="109" viewBox="0 0 109 109"><g id="kvg:StrokePaths_04e18"><g id="kvg:04e18" kvg:element="丘"><g id="kvg:04e18-g1" kvg:element="斤"><g id="kvg:04e18-g2" kvg:element="丿" kvg:radical="nelson"><path id="kvg:04e18-s1" kvg:type="㇒" d="M58.26 15.25c.09.68-.11 1.74-.68 2.47-7.2 9.28-15.7 15.9-32.83 25.03"/></g><path id="kvg:04e18-s2" kvg:type="㇑a/㇒" d="M29.18 44.13c1.1 1.1 1.87 2.64 2.02 4.65.55 7.47 2.9 31.48 3.55 38.72"/><path id="kvg:04e18-s3" kvg:type="㇐b" d="M32.28 50.31c9-1.21 30.48-3.41 42.97-5.08 2.85-.38 6-.61 8.75-.38"/><path id="kvg:04e18-s4" kvg:type="㇑a" d="M69.37 49.8c.75 1.33.95 2.93.82 4.26-1.07 11.06-1.7 16.69-3.2 31.19"/></g><g id="kvg:04e18-g3" kvg:element="一" kvg:radical="tradit"><path id="kvg:04e18-s5" kvg:type="㇐" d="M14.75 88.2c3.2 1.14 7.18.86 10.5.52 13.5-1.35 42.88-3.22 59.63-3.64 3.62-.09 7.31-.05 10.88.71"/></g></g></g></svg>