<svg xmlns="http://www.w3.org/2000/svg" width="109" height="109" viewBox="0 0 109 109"><g id="kvg:StrokePaths_04e3c"><g id="kvg:04e3c" kvg:element="丼"><g id="kvg:04e3c-g1" kvg:element="井"><g id="kvg:04e3c-g2" kvg:element="二" kvg:part="1"><path id="kvg:04e3c-s1" kvg:type="㇐" d="M24.5 37.4c1.02.37 2.89.47 3.9.37 10.6-1.02 45.1-4.27 55.53-4.76 1.7-.08 2.72.18 3.57.36"/></g><g id="kvg:04e3c-g3" kvg:element="廾"><g id="kvg:04e3c-g4" kvg:element="二" kvg:part="2"><g id="kvg:04e3c-g5" kvg:element="十" kvg:part="1"><path id="kvg:04e3c-s2" kvg:type="㇐" d="M16.25 63.7c1.52.54 4.3.58 5.82.54C33 64 72.76 59.92 87.69 59.01 92 58.75 93.75 59 95.5 59.54"/></g></g><g id="kvg:04e3c-g6" kvg:element="丿" kvg:radical="nelson"><path id="kvg:04e3c-s3" kvg:type="㇒" d="M38.98 19.25c.76.97 1.27 1.94 1.52 2.91s.25 30.53.25 32.71c0 21.56-7.85 36.1-19.5 42.88"/></g><g id="kvg:04e3c-g7" kvg:element="十" kvg:part="2"><path id="kvg:04e3c-s4" kvg:type="㇑" d="M67.37 11.75c1.09.5 1.74 2.25 1.96 3.25s0 78.75-.22 85"/></g></g></g><g id="kvg:04e3c-g8" kvg:element="丶" kvg:radical="tradit"><path id="kvg:04e3c-s5" kvg:type="㇔" d="M50 43.5c3 1.76 7.75 7.26 8.5 10"/></g></g></g></svg>