<!DOCTYPE svg PUBLIC "-//W3C//DTD SVG 1.0//EN" "http://www.w3.org/TR/2001/REC-SVG-20010904/DTD/svg10.dtd" [
<!ATTLIST g
xmlns:kvg CDATA #FIXED "http://kanjivg.tagaini.net"
kvg:element CDATA #IMPLIED
kvg:variant CDATA #IMPLIED
kvg:partial CDATA #IMPLIED
kvg:original CDATA #IMPLIED
kvg:part CDATA #IMPLIED
kvg:number CDATA #IMPLIED
kvg:tradForm CDATA #IMPLIED
kvg:radicalForm CDATA #IMPLIED
kvg:position CDATA #IMPLIED
kvg:radical CDATA #IMPLIED
kvg:phon CDATA #IMPLIED >
<!ATTLIST path
xmlns:kvg CDATA #FIXED "http://kanjivg.tagaini.net"
kvg:type CDATA #IMPLIED >
]><svg xmlns="http://www.w3.org/2000/svg" width="109" height="109" viewBox="0 0 109 109"><g id="kvg:StrokePaths_04e4d" style="fill:none;stroke:#000000;stroke-width:3;stroke-linecap:round;stroke-linejoin:round;"><g id="kvg:04e4d" kvg:element="乍"><g id="kvg:04e4d-g1" kvg:element="丿" kvg:radical="general"><path id="kvg:04e4d-s1" kvg:type="㇒" d="M41 10.5c.08.95.17 2.45-.16 3.81-1.9 8.02-12.83 25.63-27.79 36.41"/></g><path id="kvg:04e4d-s2" kvg:type="㇐" d="M37.13 30.92c1.08.38 3.05.44 4.14.38 14.23-.8 38.16-4.92 48.75-5.8 1.98-.16 2.86-.25 4.19-.08"/><path id="kvg:04e4d-s3" kvg:type="㇑" d="M52.87 32.25c1.09.5 1.74 2.25 1.96 3.25s0 57.75-.22 64"/><path id="kvg:04e4d-s4" kvg:type="㇐" d="M57.88 49.62c.5.19 1.41.21 1.92.19 5.2-.21 13.51-2.09 23.08-2.14.83.0 1.33.09 1.75.18"/><path id="kvg:04e4d-s5" kvg:type="㇐" d="M57.13 70.12c.6.19 1.69.21 2.29.19 6.22-.21 16.16-2.09 27.62-2.14 1 0 1.59.09 2.09.18"/></g></g><g id="kvg:StrokeNumbers_04e4d" style="font-size:8;fill:#808080"><text transform="matrix(1 0 0 1 32.50 10.50)">1</text><text transform="matrix(1 0 0 1 43.50 27.13)">2</text><text transform="matrix(1 0 0 1 47.25 41.50)">3</text><text transform="matrix(1 0 0 1 59.50 46.63)">4</text><text transform="matrix(1 0 0 1 59.50 66.05)">5</text></g></svg>