<svg xmlns="http://www.w3.org/2000/svg" width="109" height="109" viewBox="0 0 109 109"><g id="kvg:StrokePaths_04e58"><g id="kvg:04e58" kvg:element="乘"><g id="kvg:04e58-g1" kvg:element="禾" kvg:part="1"><g id="kvg:04e58-g2" kvg:element="丿" kvg:radical="general"><path id="kvg:04e58-s1" kvg:type="㇒" d="M68.51 10.5c-.26 1.25-.19 1.44-.74 1.87C62.5 16.5 46.25 22.5 25.75 25"/></g></g><g id="kvg:04e58-g3" kvg:element="木" kvg:part="1"><path id="kvg:04e58-s2" kvg:type="㇐" d="M15.25 33.69c.78.33 3.9 1.2 5.96.98 9.33-.98 49.51-5.65 65.33-6.55 2.07-.12 4.67.39 5.96.72"/></g><g id="kvg:04e58-g4" kvg:element="北"><g id="kvg:04e58-g5" kvg:position="left"><path id="kvg:04e58-s3" kvg:type="㇐" d="M15.5 52.03c1.39.29 1.74.44 3.14.44s15.18-2.36 16.4-2.36"/><path id="kvg:04e58-s4" kvg:type="㇑" d="M34.19 39.44c1.05.89 1.42 2.92 1.42 3.51s.17 17.37.17 18.99"/><path id="kvg:04e58-s5" kvg:type="㇀" d="M16.26 67.62c2.16 1.24 3.82 1.31 5.41.69 9.55-3.73 12.61-4.83 17.66-6.91"/></g><g id="kvg:04e58-g6" kvg:element="匕" kvg:position="right"><path id="kvg:04e58-s6" kvg:type="㇒" d="M87.32 37.58c.13.22.19.82-.13 1.18-3.06 3.46-10.59 8.52-17.2 10.33"/><path id="kvg:04e58-s7" kvg:type="㇟" d="M66.22 36c.52.4 1.21 1.19 1.21 2 0 .55.17 18.06.17 19.71.0 4.23 2.91 5.34 12.16 5.34 8.25.0 11.99-1.04 11.99-5.45"/></g></g><g id="kvg:04e58-g7" kvg:element="禾" kvg:part="2"><g id="kvg:04e58-g8" kvg:element="木" kvg:part="1"><path id="kvg:04e58-s8" kvg:type="㇑" d="M52.72 22.5c.89.49 1.42 2.19 1.6 3.16s0 68.26-.18 74.34"/><path id="kvg:04e58-s9" kvg:type="㇒" d="M54 56.18C47.46 70.47 30.75 86.25 15.75 94.5"/><path id="kvg:04e58-s10" kvg:type="㇏" d="M54.25 58.21c7 8.04 26 25.29 33.96 30.99 1.93 1.38 3.44 2.13 5.29 2.55"/></g></g></g></g></svg>