<svg xmlns="http://www.w3.org/2000/svg" width="109" height="109" viewBox="0 0 109 109"><g id="kvg:StrokePaths_04e57" style="fill:none;stroke:#000000;stroke-width:3;stroke-linecap:round;stroke-linejoin:round;"><g id="kvg:04e57" kvg:element="乗"><g id="kvg:04e57-g1" kvg:element="千" kvg:part="1"><g id="kvg:04e57-g2" kvg:element="丿" kvg:radical="general"><path id="kvg:04e57-s1" kvg:type="㇒" d="M68.21 10.39c-.33.98-.83 1.61-1.87 2.11-4.32 2.09-17.96 6.87-33.78 9.72"/></g><g id="kvg:04e57-g3" kvg:element="十" kvg:part="1"><path id="kvg:04e57-s2" kvg:type="㇐" d="M24 32.7c2.01.54 5.71.51 7.71.29 14.85-1.62 30.99-3.62 45-4.23 3.35-.15 5.36.26 7.04.53"/></g></g><path id="kvg:04e57-s3" kvg:type="㇐" d="M14.5 47.95c2.47.54 7 .46 9.46.29 16.04-1.12 39.16-3.62 59.27-4.48 4.11-.18 6.58.26 8.64.53"/><path id="kvg:04e57-s4" kvg:type="㇑a" d="M34.81 36.63c1.28 1.28 1.82 2.13 2.01 3.5.93 6.62 1.53 16.82 1.93 21.12"/><path id="kvg:04e57-s5" kvg:type="㇑a" d="M72.81 32.63c.9.9 1.11 2.6 1.01 3.5C73.25 41.38 72 51.75 70.25 59"/><g id="kvg:04e57-g4" kvg:element="木"><path id="kvg:04e57-s6" kvg:type="㇐" d="M24 62.05c2.09.58 5.92.47 8 .31 10.56-.79 32.6-3.2 49.69-3.72 3.48-.11 5.57.28 7.31.56"/><g id="kvg:04e57-g5" kvg:element="千" kvg:part="2"><g id="kvg:04e57-g6" kvg:element="十" kvg:part="2"><path id="kvg:04e57-s7" kvg:type="㇑" d="M52.56 20.13c.84.84 1.51 2.62 1.51 4.25.0 4.61.0 48.92.0 66.99.0 2.98.0 5.25.0 6.51"/></g></g><path id="kvg:04e57-s8" kvg:type="㇒" d="M50.75 61.25c0 .62-.7 1.85-1.41 2.81C42.35 73.56 28.38 85.46 17 90.5"/><path id="kvg:04e57-s9" kvg:type="㇏" d="M56.5 61.5c4.2 3.45 19.42 17.95 27.52 23.46 2.64 1.8 5.19 3.54 7.85 4.41"/></g></g></g></svg>