<!DOCTYPE svg PUBLIC "-//W3C//DTD SVG 1.0//EN" "http://www.w3.org/TR/2001/REC-SVG-20010904/DTD/svg10.dtd" [
<!ATTLIST g
xmlns:kvg CDATA #FIXED "http://kanjivg.tagaini.net"
kvg:element CDATA #IMPLIED
kvg:variant CDATA #IMPLIED
kvg:partial CDATA #IMPLIED
kvg:original CDATA #IMPLIED
kvg:part CDATA #IMPLIED
kvg:number CDATA #IMPLIED
kvg:tradForm CDATA #IMPLIED
kvg:radicalForm CDATA #IMPLIED
kvg:position CDATA #IMPLIED
kvg:radical CDATA #IMPLIED
kvg:phon CDATA #IMPLIED >
<!ATTLIST path
xmlns:kvg CDATA #FIXED "http://kanjivg.tagaini.net"
kvg:type CDATA #IMPLIED >
]><svg xmlns="http://www.w3.org/2000/svg" width="109" height="109" viewBox="0 0 109 109"><g id="kvg:StrokePaths_04e8e" style="fill:none;stroke:#000000;stroke-width:3;stroke-linecap:round;stroke-linejoin:round;"><g id="kvg:04e8e" kvg:element="于"><g id="kvg:04e8e-g1" kvg:element="二" kvg:radical="tradit"><g id="kvg:04e8e-g2" kvg:element="一" kvg:position="top" kvg:radical="nelson"><path id="kvg:04e8e-s1" kvg:type="㇐" d="M22.51 18.78c1.09.39 3.09.45 4.18.39 7.56-.42 44.99-4.48 55.36-4.48 1.82.0 2.91.19 3.82.38"/></g><g id="kvg:04e8e-g3" kvg:position="bottom"><path id="kvg:04e8e-s2" kvg:type="㇐" d="M12.75 46.99c1.63.57 4.61.64 6.23.57C32.5 47 75 42.5 92.56 42.56c2.71.01 4.33.27 5.69.56"/></g></g><g id="kvg:04e8e-g4" kvg:element="亅"><path id="kvg:04e8e-s3" kvg:type="㇚" d="M53.58 19.33c.67.89 1.91 2.92 1.98 5.88.31 14.24-.2 60.51-.2 65.36.0 10.26-6.92.2-7.8-.73"/></g></g></g><g id="kvg:StrokeNumbers_04e8e" style="font-size:8;fill:#808080"><text transform="matrix(1 0 0 1 15.25 18.50)">1</text><text transform="matrix(1 0 0 1 4.50 47.50)">2</text><text transform="matrix(1 0 0 1 46.50 27.50)">3</text></g></svg>