<!DOCTYPE svg PUBLIC "-//W3C//DTD SVG 1.0//EN" "http://www.w3.org/TR/2001/REC-SVG-20010904/DTD/svg10.dtd" [
<!ATTLIST g
xmlns:kvg CDATA #FIXED "http://kanjivg.tagaini.net"
kvg:element CDATA #IMPLIED
kvg:variant CDATA #IMPLIED
kvg:partial CDATA #IMPLIED
kvg:original CDATA #IMPLIED
kvg:part CDATA #IMPLIED
kvg:number CDATA #IMPLIED
kvg:tradForm CDATA #IMPLIED
kvg:radicalForm CDATA #IMPLIED
kvg:position CDATA #IMPLIED
kvg:radical CDATA #IMPLIED
kvg:phon CDATA #IMPLIED >
<!ATTLIST path
xmlns:kvg CDATA #FIXED "http://kanjivg.tagaini.net"
kvg:type CDATA #IMPLIED >
]><svg xmlns="http://www.w3.org/2000/svg" width="109" height="109" viewBox="0 0 109 109"><g id="kvg:StrokePaths_04e8b" style="fill:none;stroke:#000000;stroke-width:3;stroke-linecap:round;stroke-linejoin:round;"><g id="kvg:04e8b" kvg:element="事"><path id="kvg:04e8b-s1" kvg:type="㇐" d="M14.25 24.95c1.84.54 5.23.68 7.07.54 16.77-1.24 46.39-4.24 66.97-4.23 3.08.0 4.92.26 6.46.53"/><g id="kvg:04e8b-g1" kvg:element="口"><path id="kvg:04e8b-s2" kvg:type="㇑" d="M30.51 34.23c.35.23.71.42.86.7 1.04 1.95 1.9 6.86 2.64 10.78.17.88.23 1.21.35 1.78"/><path id="kvg:04e8b-s3" kvg:type="㇕b" d="M32.94 35.01c8.31-1.01 32.5-2.95 41.08-3.59 2.43-.18 3.81 1.33 3.04 3.59-.73 2.14-1.52 4.57-2.48 7.24"/><path id="kvg:04e8b-s4" kvg:type="㇐b" d="M35.28 45.51c4.21-.3 27.12-1.93 37.35-2.68 1.45-.11 3-.34 4.19-.01"/></g><g id="kvg:04e8b-g2" kvg:element="⺕" kvg:variant="true" kvg:original="彑"><path id="kvg:04e8b-s5" kvg:type="㇕c" d="M27.5 55.89c2.5.74 4.2 1.01 6.5.87 13.49-.84 28.51-2.14 39.74-2.92 3.72-.26 5.96.81 4.99 4.79-1.21 4.97-2.6 7.76-4.24 16.86"/><path id="kvg:04e8b-s6" kvg:type="㇐" d="M14.75 68c2.75.75 4.74.65 7.68.43 22.94-1.69 43.44-3.19 64.43-4.17 3.26-.15 5.91.18 7.39.4"/><path id="kvg:04e8b-s7" kvg:type="㇐" d="M27.5 79.85c2 .4 3.51.52 5 .4 13.75-1.08 26.5-2.82 39-3.25 2-.07 3.25.0 4.75.22"/></g><g id="kvg:04e8b-g3" kvg:element="亅" kvg:radical="general"><path id="kvg:04e8b-s8" kvg:type="㇚" d="M52.77 10.08c1.45 1.45 2.01 2.67 2.01 5.02.0 14.56-.01 72.41-.01 77.37.0 9.66-4.91 3.42-8.71.25"/></g></g></g><g id="kvg:StrokeNumbers_04e8b" style="font-size:8;fill:#808080"><text transform="matrix(1 0 0 1 8.25 27.13)">1</text><text transform="matrix(1 0 0 1 24.75 43.63)">2</text><text transform="matrix(1 0 0 1 35.25 33.13)">3</text><text transform="matrix(1 0 0 1 38.25 43.63)">4</text><text transform="matrix(1 0 0 1 20.25 57.13)">5</text><text transform="matrix(1 0 0 1 6.75 69.13)">6</text><text transform="matrix(1 0 0 1 20.25 82.63)">7</text><text transform="matrix(1 0 0 1 44.25 9.13)">8</text></g></svg>