<svg xmlns="http://www.w3.org/2000/svg" width="109" height="109" viewBox="0 0 109 109"><g id="kvg:StrokePaths_04e89" style="fill:none;stroke:#000000;stroke-width:3;stroke-linecap:round;stroke-linejoin:round;"><g id="kvg:04e89" kvg:element="争"><g id="kvg:04e89-g1" kvg:element="𠂊" kvg:variant="true" kvg:original="勹" kvg:position="top"><g id="kvg:04e89-g2" kvg:element="丿" kvg:radical="nelson"><path id="kvg:04e89-s1" kvg:type="㇒" d="M48.25 9.75c.06.54-.03 1.44-.37 2.18C45.5 17 37.89 26.84 26.25 33"/></g><path id="kvg:04e89-s2" kvg:type="㇇a" d="M43.5 20.01c5.46-.79 20.94-3.2 23.19-3.77 2.44-.61 3.81 1.64 2.06 3.76C64.47 25.19 59.5 30.88 54 38"/></g><g id="kvg:04e89-g3" kvg:position="bottom"><g id="kvg:04e89-g4" kvg:element="⺕" kvg:variant="true" kvg:original="彑"><path id="kvg:04e89-s3" kvg:type="㇕c" d="M28.92 41.83c2.21.54 3.89.79 6.14.53 13.73-1.54 28.49-4.53 38.93-6.14 3.89-.6 5.26 1.03 4.44 4.38-1.84 7.51-3.43 13.27-5.98 24.8"/><path id="kvg:04e89-s4" kvg:type="㇐" d="M15 57.25c3.25.62 6.2.54 9.5.1 19.41-2.56 45.11-5.53 61.63-7.03 3.5-.32 6.65-.41 10.12.18"/><path id="kvg:04e89-s5" kvg:type="㇐" d="M29.13 70.44c2.52.22 4.86.37 7.37.03C46.5 69.12 60 67.38 72.01 66.37c1.96-.16 3.19-.12 4.66-.02"/></g><g id="kvg:04e89-g5" kvg:element="亅" kvg:radical="tradit"><path id="kvg:04e89-s6" kvg:type="㇚" d="M53.52 43.33c.98.92 1.76 2.42 1.76 4.52.0 14.9-.01 40.16-.01 45.12.0 9.66-7.71 1-9.21-.25"/></g></g></g></g></svg>