<svg xmlns="http://www.w3.org/2000/svg" width="109" height="109" viewBox="0 0 109 109"><g id="kvg:StrokePaths_04e98"><g id="kvg:04e98" kvg:element="亘"><g id="kvg:04e98-g1" kvg:element="二" kvg:part="1" kvg:position="top" kvg:radical="tradit"><g id="kvg:04e98-g2" kvg:element="一" kvg:radical="nelson"><path id="kvg:04e98-s1" kvg:type="㇐" d="M25 20.5c3.75 1 7.6.4 10.74.14 10.57-.88 29.58-2.37 40.13-2.82 3.24-.14 6.69-.19 9.87.58"/></g></g><g id="kvg:04e98-g3" kvg:element="旦" kvg:position="bottom"><g id="kvg:04e98-g4" kvg:element="日" kvg:position="top"><path id="kvg:04e98-s2" kvg:type="㇑" d="M30.77 36.15c1.1 1.1 1.36 2.48 1.55 4.23.14 1.33 1.33 16.53 2.13 26.88.25 3.26.47 6.04.6 7.75"/><path id="kvg:04e98-s3" kvg:type="㇕a" d="M32.6 37.3c11.03-1.3 32.15-2.8 41.45-3.04 3.31-.15 4.45 1.49 4.18 3.98-.18 3.74-1.76 17.46-3.2 27.02-.4 2.63-.79 4.95-1.13 6.66"/><path id="kvg:04e98-s4" kvg:type="㇐a" d="M34.52 53.19c7.23-.44 35.78-2.21 41.38-2.21"/><path id="kvg:04e98-s5" kvg:type="㇐a" d="M35.87 71.4c10-.52 27.88-1.92 37.34-1.92"/></g><g id="kvg:04e98-g5" kvg:element="二" kvg:part="2" kvg:position="bottom" kvg:radical="tradit"><g id="kvg:04e98-g6" kvg:element="一"><path id="kvg:04e98-s6" kvg:type="㇐" d="M15.5 90.25c3.97 1.32 9.19.8 13.25.45 15.37-1.33 36-2.33 52.25-2.79 4.35-.12 8.48-.26 12.75.59"/></g></g></g></g></g></svg>