<!DOCTYPE svg PUBLIC "-//W3C//DTD SVG 1.0//EN" "http://www.w3.org/TR/2001/REC-SVG-20010904/DTD/svg10.dtd" [
<!ATTLIST g
xmlns:kvg CDATA #FIXED "http://kanjivg.tagaini.net"
kvg:element CDATA #IMPLIED
kvg:variant CDATA #IMPLIED
kvg:partial CDATA #IMPLIED
kvg:original CDATA #IMPLIED
kvg:part CDATA #IMPLIED
kvg:number CDATA #IMPLIED
kvg:tradForm CDATA #IMPLIED
kvg:radicalForm CDATA #IMPLIED
kvg:position CDATA #IMPLIED
kvg:radical CDATA #IMPLIED
kvg:phon CDATA #IMPLIED >
<!ATTLIST path
xmlns:kvg CDATA #FIXED "http://kanjivg.tagaini.net"
kvg:type CDATA #IMPLIED >
]><svg xmlns="http://www.w3.org/2000/svg" width="109" height="109" viewBox="0 0 109 109"><g id="kvg:StrokePaths_04e95" style="fill:none;stroke:#000000;stroke-width:3;stroke-linecap:round;stroke-linejoin:round;"><g id="kvg:04e95" kvg:element="井"><g id="kvg:04e95-g1" kvg:element="二" kvg:part="1" kvg:radical="tradit"><path id="kvg:04e95-s1" kvg:type="㇐" d="M23.5 36.9c2.13.77 4.95.45 7.14.16 10.59-1.37 37.06-3.96 49.24-4.82 2.63-.19 4.81-.18 7.38.38"/></g><g id="kvg:04e95-g2" kvg:element="廾"><g id="kvg:04e95-g3" kvg:element="二" kvg:part="2" kvg:radical="tradit"><g id="kvg:04e95-g4" kvg:element="十" kvg:part="1"><path id="kvg:04e95-s2" kvg:type="㇐" d="M14.25 62.95c3.44 1.23 7.55.89 11.12.49 12.88-1.44 42.51-4.32 61.11-5.17 3.37-.15 6.23.06 9.52.77"/></g></g><g id="kvg:04e95-g5" kvg:element="丿" kvg:radical="nelson"><path id="kvg:04e95-s3" kvg:type="㇒" d="M40 16.5c.75 1 .98 2.47 1 3.5 1.12 55.5-2.38 62-19.25 78.25"/></g><g id="kvg:04e95-g6" kvg:element="十" kvg:part="2"><path id="kvg:04e95-s4" kvg:type="㇑" d="M66.62 11.25c.88.88 1.21 2.25 1.21 3.5.0.73-.06 54.49-.07 77.38.0 3.92.0 6.94.0 8.62"/></g></g></g></g><g id="kvg:StrokeNumbers_04e95" style="font-size:8;fill:#808080"><text transform="matrix(1 0 0 1 16.50 38.50)">1</text><text transform="matrix(1 0 0 1 6.75 63.50)">2</text><text transform="matrix(1 0 0 1 31.50 17.50)">3</text><text transform="matrix(1 0 0 1 57.50 11.50)">4</text></g></svg>