<svg xmlns="http://www.w3.org/2000/svg" width="109" height="109" viewBox="0 0 109 109"><g id="kvg:StrokePaths_04ea2" style="fill:none;stroke:#000000;stroke-width:3;stroke-linecap:round;stroke-linejoin:round;"><g id="kvg:04ea2" kvg:element="亢"><g id="kvg:04ea2-g1" kvg:element="亠" kvg:position="top" kvg:radical="general"><path id="kvg:04ea2-s1" kvg:type="㇑a" d="M51.11 12.25c1.13.61 2.98 2.96 2.98 4.16.0 4.45-.35 6.38-.15 10.15"/><path id="kvg:04ea2-s2" kvg:type="㇐" d="M19.5 30.11c1.42.1 4.67.65 6.06.55 12.19-.91 42.94-3.91 57.14-4.2 2.35-.05 3.55.05 5.3.7"/></g><g id="kvg:04ea2-g2" kvg:element="几" kvg:position="bottom"><g id="kvg:04ea2-g3" kvg:element="丿"><path id="kvg:04ea2-s3" kvg:type="㇒" d="M39.79 44c.71 1 .78 3.36.87 5.25.18 4.04.19 9.72.09 17.25-.25 19.5-15.5 29.75-24.25 33"/></g><path id="kvg:04ea2-s4" kvg:type="㇈b" d="M41.75 46c6.5-1 13.5-2.5 20-3.75 2.88-.55 5 1.5 4.81 4.05-.62 8.16-.41 33.14-.41 38.7.0 11 6.44 11.53 13.27 11.53 7.21.0 11.08-.53 12.97-2.62 1.96-2.18 1.56-3 1.75-6.5"/></g></g></g></svg>