<svg xmlns="http://www.w3.org/2000/svg" width="109" height="109" viewBox="0 0 109 109"><g id="kvg:StrokePaths_04ec4"><g id="kvg:04ec4" kvg:element="仄"><g id="kvg:04ec4-g1" kvg:element="厂" kvg:position="tare" kvg:radical="nelson"><path id="kvg:04ec4-s1" kvg:type="㇐" d="M29.63 18.73c1.52.54 4.3.63 5.82.54 15.8-.91 31.3-3.52 46.61-4.23 2.53-.12 4.05.26 5.31.53"/><path id="kvg:04ec4-s2" kvg:type="㇒" d="M32.67 19.5c.85 1.46.87 1.86.73 4.25-1.15 19.16-2.65 49.75-22.34 65.97"/></g><g id="kvg:04ec4-g2" kvg:element="人" kvg:position="tarec" kvg:radical="tradit"><path id="kvg:04ec4-s3" kvg:type="㇒" d="M59.05 31.5c.08 1.48.17 3.82-.16 5.94-1.95 12.52-9.14 43.06-27.98 56.84"/><path id="kvg:04ec4-s4" kvg:type="㇏" d="M55.34 52.08c5.22 7.82 27.73 33.37 33.49 39.09 1.95 1.95 4.46 2.78 6.42 3.33"/></g></g></g></svg>