<!DOCTYPE svg PUBLIC "-//W3C//DTD SVG 1.0//EN" "http://www.w3.org/TR/2001/REC-SVG-20010904/DTD/svg10.dtd" [
<!ATTLIST g
xmlns:kvg CDATA #FIXED "http://kanjivg.tagaini.net"
kvg:element CDATA #IMPLIED
kvg:variant CDATA #IMPLIED
kvg:partial CDATA #IMPLIED
kvg:original CDATA #IMPLIED
kvg:part CDATA #IMPLIED
kvg:number CDATA #IMPLIED
kvg:tradForm CDATA #IMPLIED
kvg:radicalForm CDATA #IMPLIED
kvg:position CDATA #IMPLIED
kvg:radical CDATA #IMPLIED
kvg:phon CDATA #IMPLIED >
<!ATTLIST path
xmlns:kvg CDATA #FIXED "http://kanjivg.tagaini.net"
kvg:type CDATA #IMPLIED >
]><svg xmlns="http://www.w3.org/2000/svg" width="109" height="109" viewBox="0 0 109 109"><g id="kvg:StrokePaths_04ec2" style="fill:none;stroke:#000000;stroke-width:3;stroke-linecap:round;stroke-linejoin:round;"><g id="kvg:04ec2" kvg:element="仂"><g id="kvg:04ec2-g1" kvg:element="亻" kvg:variant="true" kvg:original="人" kvg:position="left" kvg:radical="general"><path id="kvg:04ec2-s1" kvg:type="㇒" d="M32.99 15.39c.14 1.17.24 2.64-.12 4.08-2.29 9.09-11.14 26.67-21.81 39"/><path id="kvg:04ec2-s2" kvg:type="㇑" d="M27.01 39.5c.63.65.81 2.1.81 3.45.0 13.9-.31 42.84-.31 52.18"/></g><g id="kvg:04ec2-g2" kvg:element="力" kvg:position="right"><path id="kvg:04ec2-s3" kvg:type="㇆" d="M40.41 38.12c1.32.77 2.97.58 4.15.42 11.09-1.52 37.59-5.51 42.89-5.79 5.27-.28 5.55 2.31 5.39 5.91-.59 13.59-4.59 40.84-11.38 53.52-4.17 7.79-7.7.35-9.07-.77"/><path id="kvg:04ec2-s4" kvg:type="㇒" d="M68.43 14.18c.32 1.57.38 2.56.35 5.12C68.5 40.75 60 74.5 42.39 89.4"/></g></g></g><g id="kvg:StrokeNumbers_04ec2" style="font-size:8;fill:#808080"><text transform="matrix(1 0 0 1 23.50 14.50)">1</text><text transform="matrix(1 0 0 1 20.50 56.50)">2</text><text transform="matrix(1 0 0 1 38.50 34.50)">3</text><text transform="matrix(1 0 0 1 58.50 13.40)">4</text></g></svg>