<svg xmlns="http://www.w3.org/2000/svg" width="109" height="109" viewBox="0 0 109 109"><g id="kvg:StrokePaths_04edf"><g id="kvg:04edf" kvg:element="仟"><g id="kvg:04edf-g1" kvg:element="亻" kvg:variant="true" kvg:original="人" kvg:position="left" kvg:radical="general"><path id="kvg:04edf-s1" kvg:type="㇒" d="M32.49 15.89c.13 1.16.23 2.62-.12 4.05-2.24 9.04-10.89 26.52-21.31 38.77"/><path id="kvg:04edf-s2" kvg:type="㇑" d="M26.53 40.5c.59.61.76 1.97.76 3.23.0 13.02-.29 41.65-.29 50.4"/></g><g id="kvg:04edf-g2" kvg:element="千" kvg:position="right"><g id="kvg:04edf-g3" kvg:element="丿" kvg:position="top"><path id="kvg:04edf-s3" kvg:type="㇒" d="M83.17 12.67c.1.51-.69 3.33-1.33 3.78-6.09 4.3-15.22 11.19-34.28 17.06"/></g><g id="kvg:04edf-g4" kvg:element="十" kvg:position="bottom"><path id="kvg:04edf-s4" kvg:type="㇐" d="M38.72 54.25c.98.43 3.45.53 4.43.43 11.39-1.19 31.42-4.91 50.44-5.55 1.64-.06 2.63.2 3.45.42"/><path id="kvg:04edf-s5" kvg:type="㇑" d="M67.1 29.29c.49.48 1.53 3.57 1.63 4.53s-.06 56.71-.16 62.68"/></g></g></g></g></svg>