<svg xmlns="http://www.w3.org/2000/svg" width="109" height="109" viewBox="0 0 109 109"><g id="kvg:StrokePaths_04ee4"><g id="kvg:04ee4" kvg:element="令"><g id="kvg:04ee4-g1" kvg:element="人" kvg:position="top" kvg:radical="general"><path id="kvg:04ee4-s1" kvg:type="㇒" d="M49.62 13.25c.11.94.38 2.48-.22 3.77-4.15 8.86-15.15 25.23-36.65 37.08"/><path id="kvg:04ee4-s2" kvg:type="㇏" d="M50.54 16.55c6.13 4.35 24.99 20.22 33.98 27.33 3.22 2.54 5.6 4.12 9.73 5.37"/></g><g id="kvg:04ee4-g2" kvg:position="bottom"><g id="kvg:04ee4-g3" kvg:element="一"><path id="kvg:04ee4-s3" kvg:type="㇔" d="M47.27 45.33c3.54 1.52 9.16 6.26 10.04 8.63"/></g><g id="kvg:04ee4-g4" kvg:element="マ"><path id="kvg:04ee4-s4" kvg:type="㇇" d="M29.08 65.79c1.35.83 4.19 1.22 5.72 1.01 3.03-.41 35.42-5.69 38.62-6.1s4 1.47 1.71 3.66c-5.38 5.13-21.87 19.81-23.89 21.47"/><path id="kvg:04ee4-s5" kvg:type="㇔" d="M41.59 81.4c6.16 3.22 13.66 8.47 17.12 15.6"/></g></g></g></g></svg>