<svg xmlns="http://www.w3.org/2000/svg" width="109" height="109" viewBox="0 0 109 109"><g id="kvg:StrokePaths_04ef7"><g id="kvg:04ef7" kvg:element="价"><g id="kvg:04ef7-g1" kvg:element="亻" kvg:variant="true" kvg:original="人" kvg:position="left" kvg:radical="general"><path id="kvg:04ef7-s1" kvg:type="㇒" d="M31.5 17.39c.13 1.05.23 2.38-.12 3.67-2.19 8.2-10.64 24.04-20.82 35.15"/><path id="kvg:04ef7-s2" kvg:type="㇑" d="M26.03 40c.59.61.76 1.97.76 3.23.0 13.02-.29 42.15-.29 50.9"/></g><g id="kvg:04ef7-g2" kvg:element="介" kvg:position="right"><g id="kvg:04ef7-g3" kvg:element="人" kvg:position="top"><path id="kvg:04ef7-s3" kvg:type="㇒" d="M62.52 12.25c.07.95.25 2.5-.15 3.83-2.44 8.24-12.46 26.47-25.87 36.7"/><path id="kvg:04ef7-s4" kvg:type="㇏" d="M63.04 17.05c5.75 7.42 19.95 21.89 27.35 27.81 1.63 1.31 3.55 2.03 5.11 2.43"/></g><g id="kvg:04ef7-g4" kvg:position="bottom"><g id="kvg:04ef7-g5" kvg:element="丿"><path id="kvg:04ef7-s5" kvg:type="㇒" d="M51.98 46.69c.41 1.29 1 2.31 1 3.92.0 14.75.37 33.43-12.33 43.61"/></g><g id="kvg:04ef7-g6" kvg:element="丨"><path id="kvg:04ef7-s6" kvg:type="㇑" d="M75.7 43.77c.76.49 1.22 2.22 1.38 3.2.15.99.0 43.63-.15 49.79"/></g></g></g></g></g></svg>