<svg xmlns="http://www.w3.org/2000/svg" width="109" height="109" viewBox="0 0 109 109"><g id="kvg:StrokePaths_04f0a" style="fill:none;stroke:#000000;stroke-width:3;stroke-linecap:round;stroke-linejoin:round;"><g id="kvg:04f0a" kvg:element="伊"><g id="kvg:04f0a-g1" kvg:element="亻" kvg:variant="true" kvg:original="人" kvg:position="left" kvg:radical="general"><path id="kvg:04f0a-s1" kvg:type="㇒" d="M32.75 15.64c.13 1.23-.03 2.53-.36 4.04C30.25 29.25 21.25 47 11.31 59.97"/><path id="kvg:04f0a-s2" kvg:type="㇑" d="M25.53 41.5c.98.98 1.01 2 1.01 3.73.0 10.59-.03 29.34-.04 41.52.0 2.8.0 5.23.0 7.12"/></g><g id="kvg:04f0a-g2" kvg:element="尹" kvg:position="right"><g id="kvg:04f0a-g3" kvg:element="⺕" kvg:variant="true" kvg:original="彑"><g id="kvg:04f0a-g4" kvg:element="尸" kvg:part="1"><path id="kvg:04f0a-s3" kvg:type="㇕c" d="M44.21 21.32c2.46 1.04 5.71 1.07 8.3.64 9.06-1.52 20.88-3.54 28.36-4.46 2.43-.3 4.14 1.28 3.77 3.84-.99 6.7-2.63 23.06-3.95 34.59"/><path id="kvg:04f0a-s4" kvg:type="㇐" d="M36.9 42.6c2.91 1.07 6.25.8 9.23.29 14.3-2.47 30.47-4.95 42.75-5.9 3.43-.26 5.95-.1 9.23.74"/></g><path id="kvg:04f0a-s5" kvg:type="㇐" d="M42.9 62.05c2.86.73 4.95.64 7.86.02 9.24-1.95 18.12-3.14 26.25-4 2.7-.28 5.54-.67 8.23-.1"/></g><g id="kvg:04f0a-g5" kvg:element="尸" kvg:part="2"><g id="kvg:04f0a-g6" kvg:element="丿"><path id="kvg:04f0a-s6" kvg:type="㇒" d="M60.66 27.6c.59 1.03.91 2.38.94 3.47.9 37.43-3.85 51.18-13.68 62.43"/></g></g></g></g></g></svg>