<svg xmlns="http://www.w3.org/2000/svg" width="109" height="109" viewBox="0 0 109 109"><g id="kvg:StrokePaths_04f0d"><g id="kvg:04f0d" kvg:element="伍"><g id="kvg:04f0d-g1" kvg:element="亻" kvg:variant="true" kvg:original="人" kvg:position="left" kvg:radical="general"><path id="kvg:04f0d-s1" kvg:type="㇒" d="M36.66 15.64c.16 1.19-.08 2.73-.64 4.14C32.38 29 22.5 45.5 10 58.89"/><path id="kvg:04f0d-s2" kvg:type="㇑" d="M26.17 41.56c.82.82.95 2.15.95 3.37.0 10.03-.07 31.6-.1 44.2-.01 3.18-.01 5.79-.01 7.5"/></g><g id="kvg:04f0d-g2" kvg:element="五" kvg:position="right"><g id="kvg:04f0d-g3" kvg:element="二" kvg:part="1"><path id="kvg:04f0d-s3" kvg:type="㇐" d="M45.88 21.14c2.12.61 4.95.55 6.87.33 8.5-.97 19.83-1.88 29.76-2.43 2.25-.13 4.55-.25 6.75.42"/></g><path id="kvg:04f0d-s4" kvg:type="㇑a" d="M65.77 24.03c.35 1.34.19 2.96-.17 4.5C63.12 39.25 52.12 80.5 49.68 88.89"/><path id="kvg:04f0d-s5" kvg:type="㇕c" d="M42.87 53.86c1.76.64 3.86 1.08 5.63.88 10.5-1.24 26.75-2.86 32.24-3.3 2.08-.16 3.89 1.43 3.43 4.18C83.31 60.66 80 82.5 79.1 88.03"/><g id="kvg:04f0d-g4" kvg:element="二" kvg:part="2"><path id="kvg:04f0d-s6" kvg:type="㇐" d="M34 91.22c3.12.66 6.95.46 10.01.26 10.16-.68 28.98-2.11 43.87-2.41 3.48-.07 7.21-.13 10.62.71"/></g></g></g></g></svg>