<svg xmlns="http://www.w3.org/2000/svg" width="109" height="109" viewBox="0 0 109 109"><g id="kvg:StrokePaths_04f2f" style="fill:none;stroke:#000000;stroke-width:3;stroke-linecap:round;stroke-linejoin:round;"><g id="kvg:04f2f" kvg:element="伯"><g id="kvg:04f2f-g1" kvg:element="亻" kvg:variant="true" kvg:original="人" kvg:position="left" kvg:radical="general"><path id="kvg:04f2f-s1" kvg:type="㇒" d="M38.48 15.14c.15 1.1.02 2.48-.39 3.84-2.55 8.56-12.15 25.38-24.03 36.98"/><path id="kvg:04f2f-s2" kvg:type="㇑" d="M29.01 39.75c.94.93 1.31 2.37 1.31 3.73.0 11.86.03 34.6-.04 47.02-.01 2.26-.02 4.18-.02 5.62"/></g><g id="kvg:04f2f-g2" kvg:element="白" kvg:position="right" kvg:phon="白"><g id="kvg:04f2f-g3" kvg:position="top"><path id="kvg:04f2f-s3" kvg:type="㇔" d="M72.38 16c.25 1.12.03 2.11-.27 2.84-2.36 5.78-7.36 14.03-13.42 21.37"/></g><g id="kvg:04f2f-g4" kvg:element="日" kvg:position="bottom"><path id="kvg:04f2f-s4" kvg:type="㇑" d="M50.69 41.91c1.13 1.13 1.34 2.42 1.34 4.13.0 1.09-.02 27.32-.03 40.33.0 3.98.0 6.72.0 7.12"/><path id="kvg:04f2f-s5" kvg:type="㇕a" d="M52.94 44.43c4.89-.61 26.6-2.92 33.58-3.65 3.11-.32 4.79.39 4.78 3.92-.01 3.96-.02 25.42-.02 40.82.0 2.45-.03 4.27-.03 6.48"/><path id="kvg:04f2f-s6" kvg:type="㇐a" d="M53.14 66.15c9.61-1.02 29.73-3.02 37.04-3.26"/><path id="kvg:04f2f-s7" kvg:type="㇐a" d="M53.15 90.47c9.49-.69 26.75-2.33 36.87-2.64"/></g></g></g></g></svg>