<svg xmlns="http://www.w3.org/2000/svg" width="109" height="109" viewBox="0 0 109 109"><g id="kvg:StrokePaths_04f36"><g id="kvg:04f36" kvg:element="伶"><g id="kvg:04f36-g1" kvg:element="亻" kvg:variant="true" kvg:original="人" kvg:position="left" kvg:radical="general"><path id="kvg:04f36-s1" kvg:type="㇒" d="M30.69 15.5c.13 1.16.22 2.61-.11 4.03-2.11 8.99-10.26 26.36-20.08 38.55"/><path id="kvg:04f36-s2" kvg:type="㇑" d="M25.94 37.86c.91.91 1.32 2.14 1.32 3.51.0 11.62-.01 34.18-.01 47.14.0 2.82.0 5.18.0 6.88"/></g><g id="kvg:04f36-g2" kvg:element="令" kvg:position="right"><g id="kvg:04f36-g3" kvg:element="人" kvg:position="top"><path id="kvg:04f36-s3" kvg:type="㇒" d="M61.61 12.75c.08 1.01-.04 2.68-.66 4.05-4.32 9.58-13.32 25.95-25.7 37.79"/><path id="kvg:04f36-s4" kvg:type="㇏" d="M61.93 17.77C66.42 21.96 79.37 36.45 87 44.01c2.5 2.47 4.76 4.24 8.26 6.15"/></g><g id="kvg:04f36-g4" kvg:position="bottom"><g id="kvg:04f36-g5" kvg:element="一"><path id="kvg:04f36-s5" kvg:type="㇔" d="M56.74 40.42c4.16 2.26 10.76 9.29 11.8 12.81"/></g><g id="kvg:04f36-g6" kvg:element="マ"><path id="kvg:04f36-s6" kvg:type="㇆a" d="M41.09 62.07c2.35 1.63 6.62.89 9.27.49 9.15-1.36 29.34-4.52 31.81-4.88 3-.44 4.25 1.28 2.1 3.61C79.21 66.74 70.5 76.5 65.12 82.38"/><path id="kvg:04f36-s7" kvg:type="㇔" d="M51 75.12c5.11 2.73 18.32 13.23 20.72 20.38"/></g></g></g></g></g></svg>