<svg xmlns="http://www.w3.org/2000/svg" width="109" height="109" viewBox="0 0 109 109"><g id="kvg:StrokePaths_04f47" style="fill:none;stroke:#000000;stroke-width:3;stroke-linecap:round;stroke-linejoin:round;"><g id="kvg:04f47" kvg:element="佇"><g id="kvg:04f47-g1" kvg:element="亻" kvg:variant="true" kvg:original="人" kvg:position="left" kvg:radical="general"><path id="kvg:04f47-s1" kvg:type="㇒" d="M32.5 16.89c.13 1.12.22 2.52-.11 3.89C30.25 29.45 22 46.22 12.06 57.97"/><path id="kvg:04f47-s2" kvg:type="㇑" d="M26.49 41.5c.66.68.84 2.19.84 3.58.0 14.46-.32 40.58-.32 50.29"/></g><g id="kvg:04f47-g2" kvg:element="宁" kvg:position="right"><g id="kvg:04f47-g3" kvg:element="宀" kvg:position="top"><path id="kvg:04f47-s3" kvg:type="㇑a" d="M64.04 13c.73.43 1.78 1.53 1.76 2.77-.05 3.9-.05 8.54-.06 12.08"/><g id="kvg:04f47-g4" kvg:element="冖"><path id="kvg:04f47-s4" kvg:type="㇔" d="M41.15 28.38c0 2.89-1.92 11.69-2.59 13.62"/><path id="kvg:04f47-s5" kvg:type="㇖b" d="M41.66 30.24c.85.09 43.01-4.43 47.29-4.9C101 24 91.25 33 89.7 34.61"/></g></g><g id="kvg:04f47-g5" kvg:element="丁" kvg:position="bottom"><g id="kvg:04f47-g6" kvg:element="一"><path id="kvg:04f47-s6" kvg:type="㇐" d="M40.18 52.34c1.46.44 4.14.58 5.59.44 9.92-1.03 30.92-4.53 43.95-4.77 2.43-.04 3.89.21 5.1.43"/></g><g id="kvg:04f47-g7" kvg:element="亅"><path id="kvg:04f47-s7" kvg:type="㇚" d="M66.75 52.11c.07.37.96 1.93.96 4.29.0 13.6-.2 31.32-.2 35.17.0 10.93-6.53.39-7.68-.58"/></g></g></g></g></g></svg>