<svg xmlns="http://www.w3.org/2000/svg" width="109" height="109" viewBox="0 0 109 109"><g id="kvg:StrokePaths_04f5e" style="fill:none;stroke:#000000;stroke-width:3;stroke-linecap:round;stroke-linejoin:round;"><g id="kvg:04f5e" kvg:element="佞"><g id="kvg:04f5e-g1" kvg:element="亻" kvg:variant="true" kvg:original="人" kvg:position="left" kvg:radical="general"><g id="kvg:04f5e-g2" kvg:element="仁" kvg:part="1"><path id="kvg:04f5e-s1" kvg:type="㇒" d="M33.49 14.89c.13 1.17.24 2.64-.12 4.08-2.26 9.09-11.02 26.67-21.56 39"/><path id="kvg:04f5e-s2" kvg:type="㇑" d="M26.01 41c.63.66.81 2.11.81 3.46.0 13.96-.31 43.03-.31 52.41"/></g></g><g id="kvg:04f5e-g3" kvg:position="right"><g id="kvg:04f5e-g4" kvg:element="二" kvg:position="top"><g id="kvg:04f5e-g5" kvg:element="仁" kvg:part="2"><g id="kvg:04f5e-g6" kvg:position="bottom"><path id="kvg:04f5e-s3" kvg:type="㇐" d="M46.14 19.28c1.08.37 3.05.44 4.14.37 6.48-.4 22.23-2.9 30-3.07 1.8-.04 2.88.18 3.78.36"/><path id="kvg:04f5e-s4" kvg:type="㇐" d="M37.25 35.67c1.43.5 4.04.51 5.47.5 11.75-.06 38.36-4.42 47.36-4.25 2.38.05 3.81.24 5 .49"/></g></g></g><g id="kvg:04f5e-g7" kvg:element="女" kvg:position="bottom"><path id="kvg:04f5e-s5" kvg:type="㇛" d="M62.92 42.37c.46 1.17.13 2.64-.23 4.1-1.78 7.13-8.44 20.52-14.13 28.71-1.24 1.78-.26 2.13.68 2.15 13.21.2 34.84 8.98 41.68 18.15"/><path id="kvg:04f5e-s6" kvg:type="㇒" d="M80.78 52.14c.12 1.07.2 3.67-.24 5.22C76.94 69.9 64.5 89.75 40.87 97"/><path id="kvg:04f5e-s7" kvg:type="㇐" d="M35.38 57.7c2.01.45 4.16.75 5.12.68 20.33-1.41 34.16-3.44 53.57-3.64 1.61-.02 4.38.27 5.68.78"/></g></g></g></g></svg>