<svg xmlns="http://www.w3.org/2000/svg" width="109" height="109" viewBox="0 0 109 109"><g id="kvg:StrokePaths_04f5d" style="fill:none;stroke:#000000;stroke-width:3;stroke-linecap:round;stroke-linejoin:round;"><g id="kvg:04f5d" kvg:element="佝"><g id="kvg:04f5d-g1" kvg:element="亻" kvg:variant="true" kvg:original="人" kvg:position="left" kvg:radical="general"><path id="kvg:04f5d-s1" kvg:type="㇒" d="M32.49 16.89c.13 1.14.24 2.58-.12 3.98-2.26 8.88-11.02 26.05-21.56 38.09"/><path id="kvg:04f5d-s2" kvg:type="㇑" d="M26.53 41.5c.59.61.76 1.97.76 3.23.0 13.02-.29 41.15-.29 49.9"/></g><g id="kvg:04f5d-g2" kvg:element="句" kvg:position="right"><g id="kvg:04f5d-g3" kvg:element="勹"><g id="kvg:04f5d-g4" kvg:element="丿"><path id="kvg:04f5d-s3" kvg:type="㇒" d="M53.96 13.35c.05.79.1 2.04-.1 3.18-1.17 6.7-7.92 21.4-17.15 30.39"/></g><path id="kvg:04f5d-s4" kvg:type="㇆" d="M52.15 29.85c.91.69 3.19.91 4.65.46 1.46-.46 27.78-3.79 31.4-4.4 2.74-.46 3.84 1.59 3.83 4.8C92 46.5 88.25 74.25 81.82 91.88c-2.04 5.6-5.82 3.38-8.84-1.14"/></g><g id="kvg:04f5d-g5" kvg:element="口"><path id="kvg:04f5d-s5" kvg:type="㇑" d="M43.86 50.4c.31.31 1.12 2.08 1.26 2.47 1.07 3.12 2.58 18.52 3.31 24.12"/><path id="kvg:04f5d-s6" kvg:type="㇕b" d="M45.05 52.65c7.94-1.76 16.3-3 20.59-3.47 1.56-.17 2.6.81 2.28 2.41-.83 4.17-2.66 14.66-3.89 21.39"/><path id="kvg:04f5d-s7" kvg:type="㇐b" d="M48.73 74.85c5.03-.53 10.83-.94 17.73-1.75"/></g></g></g></g></svg>