<svg xmlns="http://www.w3.org/2000/svg" width="109" height="109" viewBox="0 0 109 109"><g id="kvg:StrokePaths_04f55" style="fill:none;stroke:#000000;stroke-width:3;stroke-linecap:round;stroke-linejoin:round;"><g id="kvg:04f55" kvg:element="何"><g id="kvg:04f55-g1" kvg:element="亻" kvg:original="人" kvg:position="left" kvg:radical="general"><path id="kvg:04f55-s1" kvg:type="㇒" d="M32.5 13.75c.23 2.1-.19 3.81-.8 5.66-3.95 11.84-9.67 23.37-20.45 37.34"/><path id="kvg:04f55-s2" kvg:type="㇑" d="M26.76 36.5C28 38 28.3 39.54 28.3 42c0 9.46-.13 30.79-.17 44.62-.01 2.6-.01 4.94-.01 6.88"/></g><g id="kvg:04f55-g2" kvg:element="可" kvg:position="right" kvg:phon="可"><g id="kvg:04f55-g3" kvg:element="丁" kvg:part="1"><g id="kvg:04f55-g4" kvg:element="一"><path id="kvg:04f55-s3" kvg:type="㇐" d="M38.88 26.64c1.74.5 4.68.67 6.41.5 13.21-1.27 33.84-4.77 46.26-5.86 2.88-.25 4.63.24 6.08.49"/></g></g><g id="kvg:04f55-g5" kvg:element="口"><path id="kvg:04f55-s4" kvg:type="㇑" d="M40.87 44c.75.75 1.26 1.62 1.36 2.21.67 4.06 1.44 10.16 2.25 16.3.27 2.04.26 2.01.47 3.75"/><path id="kvg:04f55-s5" kvg:type="㇕b" d="M43.27 45.6c6.28-1.17 15.14-2.97 19.73-3.72 3.13-.51 4.4.31 3.68 3.51-.86 3.86-2.49 10.33-3.28 14.14"/><path id="kvg:04f55-s6" kvg:type="㇐b" d="M45.59 63.17c3.71-.39 9.45-1.24 14.45-1.85 1.89-.23 3.82-.47 5.75-.69"/></g><g id="kvg:04f55-g6" kvg:element="丁" kvg:part="2"><g id="kvg:04f55-g7" kvg:element="亅"><path id="kvg:04f55-s7" kvg:type="㇚" d="M83.25 24.75c1 1 1.74 2.18 1.81 4.99.33 13.52-.21 56.44-.21 61.04.0 10.71-6.35 2.71-9.18-.77"/></g></g></g></g></g></svg>