<!DOCTYPE svg PUBLIC "-//W3C//DTD SVG 1.0//EN" "http://www.w3.org/TR/2001/REC-SVG-20010904/DTD/svg10.dtd" [
<!ATTLIST g
xmlns:kvg CDATA #FIXED "http://kanjivg.tagaini.net"
kvg:element CDATA #IMPLIED
kvg:variant CDATA #IMPLIED
kvg:partial CDATA #IMPLIED
kvg:original CDATA #IMPLIED
kvg:part CDATA #IMPLIED
kvg:number CDATA #IMPLIED
kvg:tradForm CDATA #IMPLIED
kvg:radicalForm CDATA #IMPLIED
kvg:position CDATA #IMPLIED
kvg:radical CDATA #IMPLIED
kvg:phon CDATA #IMPLIED >
<!ATTLIST path
xmlns:kvg CDATA #FIXED "http://kanjivg.tagaini.net"
kvg:type CDATA #IMPLIED >
]><svg xmlns="http://www.w3.org/2000/svg" width="109" height="109" viewBox="0 0 109 109"><g id="kvg:StrokePaths_04f5c" style="fill:none;stroke:#000000;stroke-width:3;stroke-linecap:round;stroke-linejoin:round;"><g id="kvg:04f5c" kvg:element="作"><g id="kvg:04f5c-g1" kvg:element="亻" kvg:variant="true" kvg:original="人" kvg:position="left" kvg:radical="general"><path id="kvg:04f5c-s1" kvg:type="㇒" d="M35.5 14c.23 2.23-.06 4.15-.8 6.06C30 32.24 24.03 43.68 13.25 58.5"/><path id="kvg:04f5c-s2" kvg:type="㇑" d="M27.66 40.75c1.09 1.12 1.78 3.48 1.78 4.73.0 12.54-.16 30.2-.31 42.02-.03 2.58-.05 4.87-.05 6.75"/></g><g id="kvg:04f5c-g2" kvg:element="乍" kvg:position="right" kvg:phon="乍"><g id="kvg:04f5c-g3" kvg:element="丿"><path id="kvg:04f5c-s3" kvg:type="㇒" d="M60.75 12c.37 1.5.19 3.75-.37 5.27C57.25 25.75 52.29 38.23 44.31 47"/></g><path id="kvg:04f5c-s4" kvg:type="㇐" d="M56.86 32.42c2.21.08 4.42.04 5.97-.13 8.04-.91 15.67-2.29 25.6-4.09 2.81-.51 5.28-.45 7.4-.08"/><path id="kvg:04f5c-s5" kvg:type="㇑" d="M68.35 34.21c1.1 1.1 1.62 2.73 1.62 4.09.0 6.33-.17 37.69-.22 53.95-.01 2.99-.02 5.41-.02 7"/><path id="kvg:04f5c-s6" kvg:type="㇐b" d="M72.75 52.78c5.12-.59 10.5-1.4 15.75-2.29 1.61-.27 3.4-.12 4.22.02"/><path id="kvg:04f5c-s7" kvg:type="㇐b" d="M73.04 72.51c6.55-.75 11.75-1.42 18.9-2.27 1.87-.22 3.07-.12 4.03.02"/></g></g></g><g id="kvg:StrokeNumbers_04f5c" style="font-size:8;fill:#808080"><text transform="matrix(1 0 0 1 26.25 12.13)">1</text><text transform="matrix(1 0 0 1 21.75 60.13)">2</text><text transform="matrix(1 0 0 1 54.75 7.63)">3</text><text transform="matrix(1 0 0 1 65.25 27.13)">4</text><text transform="matrix(1 0 0 1 60.75 43.63)">5</text><text transform="matrix(1 0 0 1 75.75 48.13)">6</text><text transform="matrix(1 0 0 1 75.75 69.13)">7</text></g></svg>