<!DOCTYPE svg PUBLIC "-//W3C//DTD SVG 1.0//EN" "http://www.w3.org/TR/2001/REC-SVG-20010904/DTD/svg10.dtd" [
<!ATTLIST g
xmlns:kvg CDATA #FIXED "http://kanjivg.tagaini.net"
kvg:element CDATA #IMPLIED
kvg:variant CDATA #IMPLIED
kvg:partial CDATA #IMPLIED
kvg:original CDATA #IMPLIED
kvg:part CDATA #IMPLIED
kvg:number CDATA #IMPLIED
kvg:tradForm CDATA #IMPLIED
kvg:radicalForm CDATA #IMPLIED
kvg:position CDATA #IMPLIED
kvg:radical CDATA #IMPLIED
kvg:phon CDATA #IMPLIED >
<!ATTLIST path
xmlns:kvg CDATA #FIXED "http://kanjivg.tagaini.net"
kvg:type CDATA #IMPLIED >
]><svg xmlns="http://www.w3.org/2000/svg" width="109" height="109" viewBox="0 0 109 109"><g id="kvg:StrokePaths_04f8f" style="fill:none;stroke:#000000;stroke-width:3;stroke-linecap:round;stroke-linejoin:round;"><g id="kvg:04f8f" kvg:element="侏"><g id="kvg:04f8f-g1" kvg:element="亻" kvg:variant="true" kvg:original="人" kvg:position="left" kvg:radical="general"><path id="kvg:04f8f-s1" kvg:type="㇒" d="M31.99 17.39c.14 1.13.24 2.55-.12 3.93-2.34 8.78-11.39 25.75-22.3 37.64"/><path id="kvg:04f8f-s2" kvg:type="㇑" d="M25.49 41c.66.68.84 2.19.84 3.58.0 14.46-.32 41.08-.32 50.79"/></g><g id="kvg:04f8f-g2" kvg:element="朱" kvg:position="right"><path id="kvg:04f8f-s3" kvg:type="㇒" d="M49.49 20.86c.03.57.11 1.64-.06 2.28-2.01 8.02-4.98 15.38-10.22 21.85"/><g id="kvg:04f8f-g3" kvg:element="未"><path id="kvg:04f8f-s4" kvg:type="㇐" d="M48.49 32.5c.67.27 2.41.3 3.08.27 7.01-.31 21.48-2.7 30.01-3.6 1.12-.12 1.8.13 2.36.27"/><g id="kvg:04f8f-g4" kvg:element="木"><path id="kvg:04f8f-s5" kvg:type="㇐" d="M35.39 54c.8.24 2.94.42 5.07.23 8.47-.73 33.91-4.62 48.59-5.84 2.13-.18 4.02.24 5.35.49"/><path id="kvg:04f8f-s6" kvg:type="㇑" d="M61.98 12.75c1.14.49 1.82 2.2 2.05 3.17s0 75.97-.23 82.08"/><path id="kvg:04f8f-s7" kvg:type="㇒" d="M63.25 52.54C58.43 63.4 45.97 79.86 35.95 86"/><path id="kvg:04f8f-s8" kvg:type="㇏" d="M64.35 52.31c4.22 6.65 22.06 25.66 28.35 31.22 1.57 1.39 2.83 2.1 4.35 2.52"/></g></g></g></g></g><g id="kvg:StrokeNumbers_04f8f" style="font-size:8;fill:#808080"><text transform="matrix(1 0 0 1 23.50 16.50)">1</text><text transform="matrix(1 0 0 1 18.50 56.50)">2</text><text transform="matrix(1 0 0 1 40.50 21.50)">3</text><text transform="matrix(1 0 0 1 53.50 29.50)">4</text><text transform="matrix(1 0 0 1 41.50 50.85)">5</text><text transform="matrix(1 0 0 1 52.50 12.50)">6</text><text transform="matrix(1 0 0 1 51.50 62.50)">7</text><text transform="matrix(1 0 0 1 72.50 60.50)">8</text></g></svg>