<svg xmlns="http://www.w3.org/2000/svg" width="109" height="109" viewBox="0 0 109 109"><g id="kvg:StrokePaths_04f8b" style="fill:none;stroke:#000000;stroke-width:3;stroke-linecap:round;stroke-linejoin:round;"><g id="kvg:04f8b" kvg:element="例"><g id="kvg:04f8b-g1" kvg:element="亻" kvg:variant="true" kvg:original="人" kvg:position="left" kvg:radical="general"><path id="kvg:04f8b-s1" kvg:type="㇒" d="M30.12 17.5c.25 1.75-.06 3.29-.72 5.08C25.15 33.98 20.12 45 9.75 58.79"/><path id="kvg:04f8b-s2" kvg:type="㇑" d="M22.78 43.75c.98.98 1.35 2.25 1.35 3.98.0 9.99-.09 27.46-.12 37.52C24 87.66 24 89.65 24 91"/></g><g id="kvg:04f8b-g2" kvg:element="列" kvg:position="right" kvg:phon="列"><g id="kvg:04f8b-g3" kvg:element="歹"><g id="kvg:04f8b-g4" kvg:element="一"><path id="kvg:04f8b-s3" kvg:type="㇐" d="M37.45 22.06c.92.37 2.6.45 3.52.37 5.93-.53 14.28-2.05 21.06-2.82 1.52-.17 2.7-.07 3.47.11"/></g><g id="kvg:04f8b-g5" kvg:element="夕"><path id="kvg:04f8b-s4" kvg:type="㇒" d="M49.73 25.21c.39 1.16.41 2.1.12 3.26-2.11 8.41-8.23 20.28-17.56 31.59"/><path id="kvg:04f8b-s5" kvg:type="㇇" d="M47.82 40.96c1.06.29 2.06.16 3.51-.12 3.31-.66 4.58-.75 6.7-1.51 2.97-1.07 4.84.26 3.83 3.77-4.11 14.28-13.48 35.65-30.09 47.4"/><path id="kvg:04f8b-s6" kvg:type="㇔" d="M41.25 56.25c3.42 1.53 7.84 6.04 8.69 8.42"/></g></g><g id="kvg:04f8b-g6" kvg:element="刂" kvg:variant="true" kvg:original="刀" kvg:position="right"><path id="kvg:04f8b-s7" kvg:type="㇑" d="M73.27 27.12c1.25 1.25 1.76 2.76 1.76 5.02.0 10.99.0 21.7.0 29.37.0 2.53.0 4.73.0 6.5"/><path id="kvg:04f8b-s8" kvg:type="㇚" d="M90.02 14.08c1.39 1.39 2.01 2.92 2.01 5.52.0 16.4-.01 62.41-.01 67.37.0 9.28-5.52 3.78-8.71.25"/></g></g></g></g></svg>