<svg xmlns="http://www.w3.org/2000/svg" width="109" height="109" viewBox="0 0 109 109"><g id="kvg:StrokePaths_04f86"><g id="kvg:04f86" kvg:element="來"><g id="kvg:04f86-g1" kvg:element="木" kvg:part="1"><path id="kvg:04f86-s1" kvg:type="㇐" d="M18.25 30.96c1.89.7 4.05.93 6.23.7 11.1-1.15 43.31-5.15 60.09-6.5 2.16-.17 3.52.12 5.68.62"/></g><g id="kvg:04f86-g2" kvg:element="从"><g id="kvg:04f86-g3" kvg:element="人" kvg:position="left" kvg:radical="tradit"><path id="kvg:04f86-s2" kvg:type="㇒" d="M33.5 38.49c0 .65.08 1.2-.13 1.95-1.93 7.07-7.69 15.87-16.15 23.68"/><path id="kvg:04f86-s3" kvg:type="㇔/㇏" d="M32.14 49.46c3.3 1.87 7.51 6.83 9.11 11.54"/></g><g id="kvg:04f86-g4" kvg:element="人" kvg:position="right" kvg:radical="tradit"><path id="kvg:04f86-s4" kvg:type="㇒" d="M77.76 34.24c0 .52.11.97-.1 1.56-1.82 5.1-7.01 14.18-13.18 19.32"/><path id="kvg:04f86-s5" kvg:type="㇔/㇏" d="M75.14 45.21c4.7 3.39 8.3 7.64 11.11 12.79"/></g></g><g id="kvg:04f86-g5" kvg:element="木" kvg:part="2"><path id="kvg:04f86-s6" kvg:type="㇑" d="M52.25 10.75c1.25.5 2.25 2.22 2.25 3.25.0 10.5.0 79.75-.25 86"/><g id="kvg:04f86-g6" kvg:element="丿" kvg:radical="nelson"><path id="kvg:04f86-s7" kvg:type="㇒" d="M54.25 53.75c-6.77 12.28-24.92 31.05-39 38"/></g><path id="kvg:04f86-s8" kvg:type="㇏" d="M54.5 55c4.75 4.39 27.09 26.42 32.25 30.74 1.75 1.46 3.25 2.09 5 2.51"/></g></g></g></svg>