<!DOCTYPE svg PUBLIC "-//W3C//DTD SVG 1.0//EN" "http://www.w3.org/TR/2001/REC-SVG-20010904/DTD/svg10.dtd" [
<!ATTLIST g
xmlns:kvg CDATA #FIXED "http://kanjivg.tagaini.net"
kvg:element CDATA #IMPLIED
kvg:variant CDATA #IMPLIED
kvg:partial CDATA #IMPLIED
kvg:original CDATA #IMPLIED
kvg:part CDATA #IMPLIED
kvg:number CDATA #IMPLIED
kvg:tradForm CDATA #IMPLIED
kvg:radicalForm CDATA #IMPLIED
kvg:position CDATA #IMPLIED
kvg:radical CDATA #IMPLIED
kvg:phon CDATA #IMPLIED >
<!ATTLIST path
xmlns:kvg CDATA #FIXED "http://kanjivg.tagaini.net"
kvg:type CDATA #IMPLIED >
]><svg xmlns="http://www.w3.org/2000/svg" width="109" height="109" viewBox="0 0 109 109"><g id="kvg:StrokePaths_04f8d" style="fill:none;stroke:#000000;stroke-width:3;stroke-linecap:round;stroke-linejoin:round;"><g id="kvg:04f8d" kvg:element="侍"><g id="kvg:04f8d-g1" kvg:element="亻" kvg:variant="true" kvg:original="人" kvg:position="left" kvg:radical="general"><path id="kvg:04f8d-s1" kvg:type="㇒" d="M33.75 16.39c.13 1.23.22 2.78-.11 4.29C31.5 30.25 21.75 47.5 11.81 60.47"/><path id="kvg:04f8d-s2" kvg:type="㇑" d="M26.28 43c.98.98 1.26 2.47 1.26 3.73.0 10.44.06 29.94-.01 41.77-.02 2.93-.03 5.39-.03 7.12"/></g><g id="kvg:04f8d-g2" kvg:element="寺" kvg:position="right" kvg:phon="寺"><g id="kvg:04f8d-g3" kvg:element="土" kvg:position="top"><path id="kvg:04f8d-s3" kvg:type="㇐" d="M42.88 27.28c2.83.54 5.54.37 8.37.0 8.61-1.12 20.47-2.3 29.5-2.82 2.45-.14 4.95-.36 7.37.13"/><path id="kvg:04f8d-s4" kvg:type="㇑a" d="M63.17 12.12c.86.85 1.52 2.23 1.52 3.75.0 7.76-.07 21.67-.07 25.01"/><path id="kvg:04f8d-s5" kvg:type="㇐" d="M37.13 43.97c2.74.79 5.86.33 8.62.02 14.38-1.61 27.63-3.11 41.25-3.94 2.83-.17 5.56-.17 8.38.32"/></g><g id="kvg:04f8d-g4" kvg:element="寸" kvg:position="bottom"><path id="kvg:04f8d-s6" kvg:type="㇐" d="M38.88 61.24c3.12.51 6.35.53 9.26.15 12.36-1.64 27.56-3.48 38.24-4.15 2.93-.18 5.85-.34 8.75.27"/><path id="kvg:04f8d-s7" kvg:type="㇚" d="M77.1 47.06c.86.86 1.4 2.17 1.4 3.81.0 12.04.0 34.15.0 38.25.0 10.83-6.14 2.51-8.14 1.25"/><path id="kvg:04f8d-s8" kvg:type="㇔" d="M51.62 70.12c2.6 1.7 6.73 6.98 7.38 9.62"/></g></g></g></g><g id="kvg:StrokeNumbers_04f8d" style="font-size:8;fill:#808080"><text transform="matrix(1 0 0 1 26.25 17.50)">1</text><text transform="matrix(1 0 0 1 20.50 60.50)">2</text><text transform="matrix(1 0 0 1 41.50 24.13)">3</text><text transform="matrix(1 0 0 1 53.25 12.13)">4</text><text transform="matrix(1 0 0 1 35.50 40.63)">5</text><text transform="matrix(1 0 0 1 37.50 58.55)">6</text><text transform="matrix(1 0 0 1 67.50 51.50)">7</text><text transform="matrix(1 0 0 1 44.25 73.50)">8</text></g></svg>