<svg xmlns="http://www.w3.org/2000/svg" width="109" height="109" viewBox="0 0 109 109"><g id="kvg:StrokePaths_04fad" style="fill:none;stroke:#000000;stroke-width:3;stroke-linecap:round;stroke-linejoin:round;"><g id="kvg:04fad" kvg:element="侭"><g id="kvg:04fad-g1" kvg:element="亻" kvg:variant="true" kvg:original="人" kvg:position="left" kvg:radical="general"><path id="kvg:04fad-s1" kvg:type="㇒" d="M32.99 11.89c.14 1.21.24 2.73-.13 4.22-2.34 9.41-11.39 27.6-22.3 40.36"/><path id="kvg:04fad-s2" kvg:type="㇑" d="M24.5 40.5c.65.67.83 2.16.83 3.54.0 14.27-.32 44-.32 53.59"/></g><g id="kvg:04fad-g2" kvg:element="尽" kvg:position="right"><g id="kvg:04fad-g3" kvg:element="尺" kvg:position="top"><g id="kvg:04fad-g4" kvg:element="尸"><path id="kvg:04fad-s3" kvg:type="㇕c" d="M43.45 18.88c1.46.66 4.29 1.25 5.84 1.12 8.36-.74 29.69-3.96 33.03-4.35 2.87-.34 3.8 1.68 3.36 3.62C84.7 23.5 83.25 28 80.82 36.22"/><path id="kvg:04fad-s4" kvg:type="㇐b" d="M46.97 39.61c4.19-.22 33.42-3.46 37.8-3.68"/><g id="kvg:04fad-g5" kvg:element="八" kvg:part="1"><path id="kvg:04fad-s5" kvg:type="㇒" d="M46.01 19.86c.49 5.39.72 11.14.56 22.18C46.25 64.5 43.5 80.25 33.5 93.16"/></g></g><g id="kvg:04fad-g6" kvg:element="八" kvg:part="2"><path id="kvg:04fad-s6" kvg:type="㇏" d="M65.18 38.5c5.57 14.25 18.57 38.25 26.49 48.61 1.74 2.28 3.53 3.45 5.08 4.14"/></g></g><g id="kvg:04fad-g7" kvg:element="冫" kvg:position="bottom"><g id="kvg:04fad-g8" kvg:position="top"><path id="kvg:04fad-s7" kvg:type="㇔" d="M56.52 61.58c4.16 1.52 10.75 6.26 11.79 8.63"/></g><g id="kvg:04fad-g9" kvg:position="bottom"><path id="kvg:04fad-s8" kvg:type="㇔/㇀" d="M54.77 81.08c6.1 2.01 15.77 8.26 17.29 11.38"/></g></g></g></g></g></svg>