<svg xmlns="http://www.w3.org/2000/svg" width="109" height="109" viewBox="0 0 109 109"><g id="kvg:StrokePaths_04fa1" style="fill:none;stroke:#000000;stroke-width:3;stroke-linecap:round;stroke-linejoin:round;"><g id="kvg:04fa1" kvg:element="価"><g id="kvg:04fa1-g1" kvg:element="亻" kvg:variant="true" kvg:original="人" kvg:position="left" kvg:radical="general"><path id="kvg:04fa1-s1" kvg:type="㇒" d="M32.62 17.12c.24 2.09-.07 3.55-.85 5.34-5 11.43-10.82 22.41-22.27 36.32"/><path id="kvg:04fa1-s2" kvg:type="㇑" d="M25.28 39.75c.8.8 1.25 2.39 1.25 3.5.0 10.73-.02 31.65-.03 43.25.0 2.8.0 5.06.0 6.5"/></g><g id="kvg:04fa1-g2" kvg:element="覀" kvg:original="襾" kvg:position="right" kvg:phon="襾V/賈V"><path id="kvg:04fa1-s3" kvg:type="㇐" d="M39.75 29.14c2.62.49 5.76.13 8.13-.17 8.56-1.09 25.62-3.34 35.72-4.03 3.03-.21 5.9-.43 8.9.08"/><path id="kvg:04fa1-s4" kvg:type="㇑" d="M37.25 52.18c1.16 1.16 1.74 2.56 2.03 4.04 1.15 5.98 2.59 19.82 3.54 28.28.2 1.76.37 3.28.52 4.46"/><path id="kvg:04fa1-s5" kvg:type="㇕a" d="M40.04 53.92C51 52.5 78.23 49.75 89.13 49.05c4.98-.32 6.27 1.1 5.53 5.94-.93 6.07-2.4 16.07-3.77 24.88-.28 1.83-.56 3.61-.83 5.29"/><path id="kvg:04fa1-s6" kvg:type="㇑" d="M55.37 31.03c.93.93 1.4 2.05 1.46 3.44.42 10.41 1.17 36.29 1.42 49.25"/><path id="kvg:04fa1-s7" kvg:type="㇑" d="M75.12 28.5c.88.88 1.48 2.25 1.38 4.21-.5 9.54-1.75 31.54-2.75 49.43"/><path id="kvg:04fa1-s8" kvg:type="㇐a" d="M44.5 86.36c9.63-1.24 34.63-3.74 44.7-4.2"/></g></g></g></svg>