<svg xmlns="http://www.w3.org/2000/svg" width="109" height="109" viewBox="0 0 109 109"><g id="kvg:StrokePaths_04fbf" style="fill:none;stroke:#000000;stroke-width:3;stroke-linecap:round;stroke-linejoin:round;"><g id="kvg:04fbf" kvg:element="便"><g id="kvg:04fbf-g1" kvg:element="亻" kvg:variant="true" kvg:original="人" kvg:position="left" kvg:radical="general"><path id="kvg:04fbf-s1" kvg:type="㇒" d="M31.26 14.5c.23 1.98-.06 3.56-.81 5.25C25.7 30.54 20.39 41.66 9.5 54.79"/><path id="kvg:04fbf-s2" kvg:type="㇑" d="M23.53 38c.98.98 1.5 2.43 1.5 3.75.0 11.72-.02 37.61-.03 50.12.0 2.3.0 4.15.0 5.38"/></g><g id="kvg:04fbf-g2" kvg:element="更" kvg:position="right"><path id="kvg:04fbf-s3" kvg:type="㇐" d="M45.07 18.73c1.33.5 3.77.59 5.11.5 11.03-.73 22.44-2.11 33.62-3.31 2.2-.24 3.55-.01 4.66.24"/><g id="kvg:04fbf-g3" kvg:element="日"><path id="kvg:04fbf-s4" kvg:type="㇑" d="M42.98 33.32c.85.85 1.27 2.06 1.38 3.21.17 1.85 1.08 12.42 1.75 18.96.19 1.82.35 3.33.48 4.26"/><path id="kvg:04fbf-s5" kvg:type="㇕a" d="M45.04 34.93c8.83-1.31 36.21-4.18 41.82-4.44 2.41-.11 4.3 1.51 3.6 4.96-.96 4.76-1.44 8.32-3.73 17.23-.32 1.25-.68 2.61-1.08 4.09"/><path id="kvg:04fbf-s6" kvg:type="㇐a" d="M46.3 45.93c7.99-1.18 36.68-3.73 41.54-3.73"/><path id="kvg:04fbf-s7" kvg:type="㇐a" d="M47.39 56.91c12.36-1.41 23.61-2.03 38.28-3"/></g><g id="kvg:04fbf-g4" kvg:element="乂"><g id="kvg:04fbf-g5" kvg:element="丿"><path id="kvg:04fbf-s8" kvg:type="㇒" d="M66 19.75c1.06 1.06 1.48 2.38 1.46 3.93-.71 44.69-2.21 63.07-29.71 75.36"/></g><path id="kvg:04fbf-s9" kvg:type="㇏" d="M45.25 66.5C51.84 66.73 73 84.75 84.23 91.91c2.76 1.76 5.6 3.26 8.77 4.09"/></g></g></g></g></svg>