<svg xmlns="http://www.w3.org/2000/svg" width="109" height="109" viewBox="0 0 109 109"><g id="kvg:StrokePaths_04fc3"><g id="kvg:04fc3" kvg:element="促"><g id="kvg:04fc3-g1" kvg:element="亻" kvg:variant="true" kvg:original="人" kvg:position="left" kvg:radical="general"><path id="kvg:04fc3-s1" kvg:type="㇒" d="M31.74 17.89c.14 1.09.24 2.45-.12 3.79C29.33 30.14 20.48 46.5 9.81 57.97"/><path id="kvg:04fc3-s2" kvg:type="㇑" d="M24.53 40c1.05 1.05 1.51 2.25 1.51 3.98.0 10.61-.03 30.57-.04 42.52.0 2.72.0 5 0 6.62"/></g><g id="kvg:04fc3-g2" kvg:element="足" kvg:position="right" kvg:phon="足"><g id="kvg:04fc3-g3" kvg:element="口"><path id="kvg:04fc3-s3" kvg:type="㇑" d="M43.95 22.02c.6.46 1.34 1.71 1.49 2.31 1.32 5.3 2.02 8.63 3.33 14.42.36 1.59.75 3.25 1.17 4.99"/><path id="kvg:04fc3-s4" kvg:type="㇕b" d="M45.63 22.77c9.52-1.49 25.48-3.9 33.87-4.8 3.73-.4 6.19.7 5.29 4.85-.91 4.2-1.91 8.07-3.52 13.85"/><path id="kvg:04fc3-s5" kvg:type="㇐b" d="M50.44 41.49c8.56-.99 18.65-2.14 28.33-3.37 1.53-.19 2.99-.37 4.36-.53"/></g><g id="kvg:04fc3-g4" kvg:element="龰"><path id="kvg:04fc3-s6" kvg:type="㇑a" d="M64.13 42.35c1.01 1.01 1.23 2.27 1.23 3.96.0 6.34-.11 26.69-.11 33.19"/><path id="kvg:04fc3-s7" kvg:type="㇐b" d="M66.7 57.02C67.76 57.02 75.88 56 83.02 55.17 84.42 55.01 85.72 54.91 86.81 54.91"/><path id="kvg:04fc3-s8" kvg:type="㇒" d="M49.98 56.2c.08.85.22 2.23-.17 3.44-3.62 11.14-8.68 23.48-15.47 30.01"/><path id="kvg:04fc3-s9" kvg:type="㇏" d="M46.44 70.83c3.07.16 15.81 9.79 34.31 17.09 3.37 1.33 5.99 1.96 10.15 2.83"/></g></g></g></g></svg>