<svg xmlns="http://www.w3.org/2000/svg" width="109" height="109" viewBox="0 0 109 109"><g id="kvg:StrokePaths_04fdf" style="fill:none;stroke:#000000;stroke-width:3;stroke-linecap:round;stroke-linejoin:round;"><g id="kvg:04fdf" kvg:element="俟"><g id="kvg:04fdf-g1" kvg:element="亻" kvg:variant="true" kvg:original="人" kvg:position="left" kvg:radical="general"><path id="kvg:04fdf-s1" kvg:type="㇒" d="M30.5 16.39c.13 1.19.22 2.68-.11 4.15-2.11 9.25-10.26 27.14-20.08 39.68"/><path id="kvg:04fdf-s2" kvg:type="㇑" d="M24.99 41c.66.68.84 2.19.84 3.58.0 14.46-.32 43.08-.32 52.79"/></g><g id="kvg:04fdf-g2" kvg:element="矣" kvg:position="right"><g id="kvg:04fdf-g3" kvg:element="厶" kvg:position="top"><path id="kvg:04fdf-s3" kvg:type="㇜" d="M58.04 11.5c.05.71.08 2.06-.25 2.61C53 22 47.81 27 42.29 32.27c-1.75 1.67-1.68 3.27.81 2.58 7.65-2.11 31.22-7.3 38.4-8.86"/><path id="kvg:04fdf-s4" kvg:type="㇔" d="M72.51 18.7C78.12 21.47 87 30.08 88.4 34.38"/></g><g id="kvg:04fdf-g4" kvg:element="矢" kvg:position="bottom"><path id="kvg:04fdf-s5" kvg:type="㇒" d="M51.3 41.02c.04.5.07 1.28-.07 2-.84 4.21-6.12 14.58-11.38 18.42"/><g id="kvg:04fdf-g5" kvg:element="天"><path id="kvg:04fdf-s6" kvg:type="㇐" d="M51.55 50.81c1.4.05 3.55.07 4.51-.03 3.96-.41 15.93-3.03 22.03-3.74 1.6-.19 2.62-.24 3.44-.14"/><g id="kvg:04fdf-g6" kvg:element="大"><path id="kvg:04fdf-s7" kvg:type="㇐" d="M35.16 69.13c1.48.39 4.6.47 5.56.38 16.25-1.61 37.35-4.05 48.9-4.31 1.23-.03 2.97.1 5.71.57"/><path id="kvg:04fdf-s8" kvg:type="㇒" d="M63.38 52.71c.31.68.63 1.31.61 2.63-.2 22.82-10.12 34.5-26.44 41.51"/><path id="kvg:04fdf-s9" kvg:type="㇏" d="M64.3 67.33C72.25 77 85.39 88.8 92.04 93.08c2.26 1.46 3.05 1.67 4.08 1.81"/></g></g></g></g></g></g></svg>