<!DOCTYPE svg PUBLIC "-//W3C//DTD SVG 1.0//EN" "http://www.w3.org/TR/2001/REC-SVG-20010904/DTD/svg10.dtd" [
<!ATTLIST g
xmlns:kvg CDATA #FIXED "http://kanjivg.tagaini.net"
kvg:element CDATA #IMPLIED
kvg:variant CDATA #IMPLIED
kvg:partial CDATA #IMPLIED
kvg:original CDATA #IMPLIED
kvg:part CDATA #IMPLIED
kvg:number CDATA #IMPLIED
kvg:tradForm CDATA #IMPLIED
kvg:radicalForm CDATA #IMPLIED
kvg:position CDATA #IMPLIED
kvg:radical CDATA #IMPLIED
kvg:phon CDATA #IMPLIED >
<!ATTLIST path
xmlns:kvg CDATA #FIXED "http://kanjivg.tagaini.net"
kvg:type CDATA #IMPLIED >
]><svg xmlns="http://www.w3.org/2000/svg" width="109" height="109" viewBox="0 0 109 109"><g id="kvg:StrokePaths_04fd0" style="fill:none;stroke:#000000;stroke-width:3;stroke-linecap:round;stroke-linejoin:round;"><g id="kvg:04fd0" kvg:element="俐"><g id="kvg:04fd0-g1" kvg:element="亻" kvg:variant="true" kvg:original="人" kvg:position="left" kvg:radical="general"><path id="kvg:04fd0-s1" kvg:type="㇒" d="M30 18.39c.12 1.18.22 2.65-.11 4.1-2.08 9.14-10.13 26.83-19.83 39.22"/><path id="kvg:04fd0-s2" kvg:type="㇑" d="M23.49 44c.66.68.84 2.19.84 3.58.0 14.46-.32 34.58-.32 44.29"/></g><g id="kvg:04fd0-g2" kvg:element="利" kvg:position="right"><g id="kvg:04fd0-g3" kvg:element="禾" kvg:position="left"><g id="kvg:04fd0-g4" kvg:element="丿" kvg:position="top"><path id="kvg:04fd0-s3" kvg:type="㇒" d="M59.92 14.7c.07.36.15.94-.14 1.46-1.67 3.08-11.28 9.83-24.43 13.96"/></g><g id="kvg:04fd0-g5" kvg:element="木" kvg:position="bottom"><path id="kvg:04fd0-s4" kvg:type="㇐" d="M30.87 44.49c.35.16 1.28.42 2.21.48 2.55.16 24.04-3.72 30.43-4.53.93-.12 1.16-.16 1.74.0"/><path id="kvg:04fd0-s5" kvg:type="㇑" d="M49 28.07c.69.46 1.23 3.48 1.23 4.4.0 5.39-.14 49.53-.14 61.06"/><path id="kvg:04fd0-s6" kvg:type="㇒" d="M49.85 44.56c-3.91 10.63-10.44 23.73-19.3 32.42"/><path id="kvg:04fd0-s7" kvg:type="㇏" d="M53.01 50.35c3.77 2.98 6.97 8.92 9 12.75"/></g></g><g id="kvg:04fd0-g6" kvg:element="刂" kvg:variant="true" kvg:original="刀" kvg:position="right"><path id="kvg:04fd0-s8" kvg:type="㇑" d="M73.32 29.44c.82.93 1.4 2.02 1.47 5.1.34 14.8-.02 30.7-.02 35.75"/><path id="kvg:04fd0-s9" kvg:type="㇚" d="M90.03 15.83c.85.83 1.44 1.8 1.51 4.56.35 13.21-.22 64.09-.22 68.59.0 10.7-5.78 1.36-7.07.23"/></g></g></g></g><g id="kvg:StrokeNumbers_04fd0" style="font-size:8;fill:#808080"><text transform="matrix(1 0 0 1 21.50 17.50)">1</text><text transform="matrix(1 0 0 1 17.50 60.50)">2</text><text transform="matrix(1 0 0 1 51.50 13.50)">3</text><text transform="matrix(1 0 0 1 30.50 41.50)">4</text><text transform="matrix(1 0 0 1 42.50 35.50)">5</text><text transform="matrix(1 0 0 1 38.58 54.50)">6</text><text transform="matrix(1 0 0 1 56.50 51.50)">7</text><text transform="matrix(1 0 0 1 66.50 26.50)">8</text><text transform="matrix(1 0 0 1 80.50 15.50)">9</text></g></svg>