<svg xmlns="http://www.w3.org/2000/svg" width="109" height="109" viewBox="0 0 109 109"><g id="kvg:StrokePaths_04fd1"><g id="kvg:04fd1" kvg:element="俑"><g id="kvg:04fd1-g1" kvg:element="亻" kvg:variant="true" kvg:original="人" kvg:position="left" kvg:radical="general"><path id="kvg:04fd1-s1" kvg:type="㇒" d="M33.49 17.89c.14 1.13.24 2.55-.12 3.93-2.34 8.78-11.39 25.75-22.3 37.64"/><path id="kvg:04fd1-s2" kvg:type="㇑" d="M26.49 41.5c.66.68.84 2.19.84 3.58.0 14.46-.32 41.58-.32 51.29"/></g><g id="kvg:04fd1-g2" kvg:element="甬" kvg:position="right"><g id="kvg:04fd1-g3" kvg:element="マ" kvg:position="top"><path id="kvg:04fd1-s3" kvg:type="㇇" d="M44.83 16.69c1.16.67 2.74.79 4.06.73 1.51-.07 24.55-3.25 32.2-3.92 3.18-.28 3.91.75 1.59 3.32-1.26 1.4-15.52 13.12-17.26 14.47"/><path id="kvg:04fd1-s4" kvg:type="㇔" d="M56.45 24.72C59.14 26.36 66.1 32.7 67.37 37"/></g><g id="kvg:04fd1-g4" kvg:element="用" kvg:position="bottom"><path id="kvg:04fd1-s5" kvg:type="㇑/㇒" d="M44.58 40.35c.6.69 1 1.38 1.19 2.07.2.69.2 50.12.2 51.67"/><path id="kvg:04fd1-s6" kvg:type="㇆a" d="M46.97 41.71c6.87-.29 37.71-3.61 39.53-3.8 3.27-.35 4.49 2.24 4.08 3.28-.39 1-.61 33.84-.61 47.83.0 10.11-6.38 1.49-7.68.89"/><path id="kvg:04fd1-s7" kvg:type="㇐a" d="M46.97 56.72c9.1-.6 34.84-2.62 42.18-3.14"/><path id="kvg:04fd1-s8" kvg:type="㇐a" d="M46.68 72.28c6.53-.52 35.49-3.18 43.04-3.53"/><path id="kvg:04fd1-s9" kvg:type="㇑" d="M65.73 42.59c.79.33 1.26 1.5 1.42 2.16.16.67.0 46.32-.16 50.48"/></g></g></g></g></svg>