<svg xmlns="http://www.w3.org/2000/svg" width="109" height="109" viewBox="0 0 109 109"><g id="kvg:StrokePaths_04fe3" style="fill:none;stroke:#000000;stroke-width:3;stroke-linecap:round;stroke-linejoin:round;"><g id="kvg:04fe3" kvg:element="俣"><g id="kvg:04fe3-g1" kvg:element="亻" kvg:variant="true" kvg:original="人" kvg:position="left" kvg:radical="general"><path id="kvg:04fe3-s1" kvg:type="㇒" d="M32.99 12.89c.14 1.13.24 2.55-.13 3.93-2.34 8.78-11.39 25.75-22.3 37.64"/><path id="kvg:04fe3-s2" kvg:type="㇑" d="M25.48 39c.67.7.86 2.24.86 3.68.0 14.83-.33 45.73-.33 55.7"/></g><g id="kvg:04fe3-g2" kvg:position="right"><g id="kvg:04fe3-g3" kvg:element="口" kvg:position="top"><path id="kvg:04fe3-s3" kvg:type="㇑" d="M46.5 15.1c.38.47.77.86.94 1.45 1.32 4.66 2.4 15.03 3.3 23.41"/><path id="kvg:04fe3-s4" kvg:type="㇕b" d="M48.87 16.71C59.5 15 74.24 13.68 79.04 13.02c1.76-.24 2.81 2.43 2.56 3.85-1.04 5.87-2.23 10.93-4.46 19.4"/><path id="kvg:04fe3-s5" kvg:type="㇐b" d="M51.61 38.88c5.64-.75 21.63-2.13 28.79-2.88"/></g><g id="kvg:04fe3-g4" kvg:element="天" kvg:position="bottom"><path id="kvg:04fe3-s6" kvg:type="㇐" d="M45.96 50.65c.83.29 2.36.31 3.19.29 9.35-.19 22.35-2.44 32.37-3.15 1.38-.1 2.22.14 2.91.28"/><g id="kvg:04fe3-g5" kvg:element="大"><path id="kvg:04fe3-s7" kvg:type="㇐" d="M37.53 69.12c.87.22 3.1.41 4.04.31 8.75-.94 37.96-3.01 47.42-3.2 1.2-.02 3.38.03 5.59.46"/><path id="kvg:04fe3-s8" kvg:type="㇒" d="M62.91 53.12c.52.64 1 2.21.98 3.45C63.7 78.13 53.99 89.5 38 96.12"/><path id="kvg:04fe3-s9" kvg:type="㇏" d="M64.84 67.55C71.21 74.21 85 89.89 91.35 94.34c2.16 1.51 2.92 1.74 3.9 1.88"/></g></g></g></g></g></svg>