<svg xmlns="http://www.w3.org/2000/svg" width="109" height="109" viewBox="0 0 109 109"><g id="kvg:StrokePaths_04fe5"><g id="kvg:04fe5" kvg:element="俥"><g id="kvg:04fe5-g1" kvg:element="亻" kvg:variant="true" kvg:original="人" kvg:position="left" kvg:radical="general"><path id="kvg:04fe5-s1" kvg:type="㇒" d="M32.99 14.89c.14 1.18.24 2.67-.12 4.12-2.34 9.2-11.39 26.98-22.3 39.45"/><path id="kvg:04fe5-s2" kvg:type="㇑" d="M25.99 41c.66.68.84 2.19.84 3.58.0 14.46-.32 40.08-.32 49.79"/></g><g id="kvg:04fe5-g2" kvg:element="車" kvg:position="right"><path id="kvg:04fe5-s3" kvg:type="㇐" d="M43.19 25.87c.95.38 2.7.51 3.64.38 13.85-1.88 23.43-2.88 36.9-3.88 1.58-.12 2.54.18 3.33.37"/><path id="kvg:04fe5-s4" kvg:type="㇑" d="M39.84 37.78c.74.5 1.69 2.39 1.83 3.05 1.01 4.81 2.22 18.17 3.63 27.28"/><path id="kvg:04fe5-s5" kvg:type="㇕a" d="M41.2 39.36c11.3-1.15 35.96-4.58 43.66-4.76 3.19-.07 3.84 1.57 3.71 3.36-.47 6.17-2.12 16.28-4.65 26.4"/><path id="kvg:04fe5-s6" kvg:type="㇐a" d="M43.36 52.12c8.52-.25 29.39-2.87 43.36-3.25"/><path id="kvg:04fe5-s7" kvg:type="㇐a" d="M45.36 66.12c9.9-1 25.16-2.5 38.05-2.5"/><path id="kvg:04fe5-s8" kvg:type="㇐" d="M37.25 80.41c1.36.77 3.82.9 5.19.77C54.5 80 73.78 77.87 89.76 77.37c2.26-.07 3.61.37 4.74.75"/><path id="kvg:04fe5-s9" kvg:type="㇑" d="M62.95 11c.7.6 1.31 2.5 1.31 5.16.0 7.59-.23 70.09-.23 82.59"/></g></g></g></svg>