<svg xmlns="http://www.w3.org/2000/svg" width="109" height="109" viewBox="0 0 109 109"><g id="kvg:StrokePaths_04fe1" style="fill:none;stroke:#000000;stroke-width:3;stroke-linecap:round;stroke-linejoin:round;"><g id="kvg:04fe1" kvg:element="信"><g id="kvg:04fe1-g1" kvg:element="亻" kvg:variant="true" kvg:original="人" kvg:position="left" kvg:radical="general"><path id="kvg:04fe1-s1" kvg:type="㇒" d="M33.51 18.25c.37 1.66.24 3.07-.31 4.5C28.29 35.3 22.4 47.19 11.5 62.54"/><path id="kvg:04fe1-s2" kvg:type="㇑" d="M27.28 40.75c.8.8 1.25 2.33 1.25 3.75.0 10.95-.03 35.6-.03 47.38.0 1.92.0 3.5.0 4.62"/></g><g id="kvg:04fe1-g2" kvg:element="言" kvg:position="right"><path id="kvg:04fe1-s3" kvg:type="㇔" d="M60.56 12.88c3.46 1.61 8.93 6.6 9.79 9.1"/><path id="kvg:04fe1-s4" kvg:type="㇐" d="M42.13 33.13c3.25.62 6.17.6 9 .25C62.25 32 76.4 30.92 87.88 30.04c2.77-.21 5.28-.28 8 .3"/><path id="kvg:04fe1-s5" kvg:type="㇐" d="M53.13 46.24c1.27.48 3.05.24 4.38.16 5.92-.35 16.22-1.57 20.36-1.91 1.56-.13 3.38-.37 4.85-.1"/><path id="kvg:04fe1-s6" kvg:type="㇐" d="M53.88 59.36c1.3.5 3.14.24 4.49.16 5.77-.35 14.8-1.22 19.14-1.64 1.53-.15 3.41-.21 4.92.13"/><g id="kvg:04fe1-g3" kvg:element="口"><path id="kvg:04fe1-s7" kvg:type="㇑" d="M51.31 72.12c.72.72 1.07 1.88 1.23 2.99.61 4 1.31 9.58 2.24 17.12.18 1.43.36 2.94.56 4.52"/><path id="kvg:04fe1-s8" kvg:type="㇕b" d="M53.18 73.82c10.37-1.03 19.55-2.08 27.82-3.03 2.9-.33 4.91 1.18 4.09 4.23-1.19 4.46-2.58 9.29-4.29 15.12"/><path id="kvg:04fe1-s9" kvg:type="㇐b" d="M56.08 93c7.92-.67 14.91-1.13 23.68-1.6 1.12-.06 2.26-.12 3.44-.18"/></g></g></g></g></svg>