<svg xmlns="http://www.w3.org/2000/svg" width="109" height="109" viewBox="0 0 109 109"><g id="kvg:StrokePaths_04ff8"><g id="kvg:04ff8" kvg:element="俸"><g id="kvg:04ff8-g1" kvg:element="亻" kvg:variant="true" kvg:original="人" kvg:position="left" kvg:radical="general"><path id="kvg:04ff8-s1" kvg:type="㇒" d="M31.49 13.39c.13 1.18.23 2.67-.12 4.12-2.24 9.2-11.12 26.23-21.56 39.45"/><path id="kvg:04ff8-s2" kvg:type="㇑" d="M23.28 39.25c1.05 1.05 1.26 2.25 1.26 3.98.0 10.73.05 35.88-.02 49.02-.01 2.8-.02 5.09-.02 6.62"/></g><g id="kvg:04ff8-g2" kvg:element="奉" kvg:position="right" kvg:phon="奉"><g id="kvg:04ff8-g3" kvg:element="𡗗" kvg:position="top"><g id="kvg:04ff8-g4" kvg:element="三"><g id="kvg:04ff8-g5" kvg:element="一" kvg:position="top"><path id="kvg:04ff8-s3" kvg:type="㇐" d="M42.9 23.93c1.85.32 4.4.08 6.1-.03 9.16-.58 17.33-1.91 26.25-2.47 1.96-.12 3.87-.29 5.79.21"/></g><g id="kvg:04ff8-g6" kvg:position="bottom"><g id="kvg:04ff8-g7" kvg:element="一"><path id="kvg:04ff8-s4" kvg:type="㇐" d="M43.37 35.17c2.13.71 4.36.34 6.14.16 5.92-.59 13.11-1.33 21.74-2.11 1.96-.18 4.17-.24 6.08.32"/></g><g id="kvg:04ff8-g8" kvg:element="大" kvg:part="1"><g id="kvg:04ff8-g9" kvg:element="一"><path id="kvg:04ff8-s5" kvg:type="㇐" d="M33 48.23c2.22.95 4.95.54 7.27.36C54 47.5 68.5 45.88 84.25 45.09c2.89-.14 5.87-.5 8.7.23"/></g></g></g></g><g id="kvg:04ff8-g10" kvg:element="大" kvg:part="2"><g id="kvg:04ff8-g11" kvg:element="人"><path id="kvg:04ff8-s6" kvg:type="㇒" d="M60.3 9.75c.58 1.12.61 2.01.3 4.11C58.29 29.89 48.75 59.25 31 71"/><path id="kvg:04ff8-s7" kvg:type="㇏" d="M64.87 40.5c2 .75 20.23 19.64 25.03 23.35C91.53 65.1 93 66.12 95 67"/></g></g></g><g id="kvg:04ff8-g12" kvg:position="bottom"><path id="kvg:04ff8-s8" kvg:type="㇐" d="M47.03 67.23c1.33.61 3.94.49 5.35.4 5.61-.37 15.53-1.59 20.99-2.06 1.66-.14 3.35-.36 4.99.09"/><path id="kvg:04ff8-s9" kvg:type="㇐" d="M38.9 81.58c2.35.67 5.08.62 7.24.44 8.5-.68 24.65-2.6 32.86-2.89 2.32-.08 4.88-.19 7.15.43"/><g id="kvg:04ff8-g13" kvg:element="丨"><path id="kvg:04ff8-s10" kvg:type="㇑" d="M60.25 54.83c1.21 1.21 1.31 2.29 1.31 4.27.0 11.1.12 26.4.03 34.65-.03 2.57-.05 4.57-.05 5.75"/></g></g></g></g></g></svg>