<svg xmlns="http://www.w3.org/2000/svg" width="109" height="109" viewBox="0 0 109 109"><g id="kvg:StrokePaths_04ff5"><g id="kvg:04ff5" kvg:element="俵"><g id="kvg:04ff5-g1" kvg:element="亻" kvg:variant="true" kvg:original="人" kvg:position="left" kvg:radical="general"><path id="kvg:04ff5-s1" kvg:type="㇒" d="M31.76 17.5c.21 2.01-.06 3.15-.75 4.87-4.39 10.99-10.45 22.8-20.51 36.17"/><path id="kvg:04ff5-s2" kvg:type="㇑" d="M23.28 43c.73.73 1.26 1.97 1.26 3.23.0 10.06-.03 30.12-.04 42.02.0 2.91.0 5.33.0 7"/></g><g id="kvg:04ff5-g2" kvg:element="表" kvg:position="right" kvg:phon="表"><g id="kvg:04ff5-g3" kvg:position="top"><g id="kvg:04ff5-g4" kvg:element="二" kvg:part="1"><path id="kvg:04ff5-s3" kvg:type="㇐" d="M42.99 26.15c1.76.35 3.65.31 4.99.09 7.17-1.21 20.46-3.09 28.65-3.99 1.79-.2 3.43-.37 5.19.12"/></g><path id="kvg:04ff5-s4" kvg:type="㇑a" d="M59.46 13c.83.83 1.55 2.25 1.55 3.75.0 1.01.22 24.38.22 32"/><g id="kvg:04ff5-g5" kvg:element="二" kvg:part="2"><path id="kvg:04ff5-s5" kvg:type="㇐" d="M44.02 39.14c1.61.49 3.68.33 5.34.02C55.5 38 68.09 36.22 74.38 35.4c1.66-.22 3-.27 4.74-.14"/></g></g><g id="kvg:04ff5-g6" kvg:element="衣" kvg:partial="true" kvg:position="bottom"><g id="kvg:04ff5-g7" kvg:element="亠" kvg:partial="true" kvg:position="top"><path id="kvg:04ff5-s6" kvg:type="㇐" d="M34.34 51.95c2.56 1.16 6.36.58 9.04.23 10.6-1.39 31.63-4.52 43.61-5.62 2.75-.25 5.33-.5 8.03.23"/></g><g id="kvg:04ff5-g8" kvg:position="bottom"><path id="kvg:04ff5-s7" kvg:type="㇒" d="M57.29 52.89c.08.75-.24 1.87-.91 2.76-6.08 8.11-12.63 14.48-26.57 23.82"/><path id="kvg:04ff5-s8" kvg:type="㇙" d="M49.63 67c.75.75 1.29 1.62 1.29 3 0 11.82-.01 19.94-.01 21.94s.56 2.7 2.88.89c2.96-2.32 9.46-7.82 13.96-11.34"/><path id="kvg:04ff5-s9" kvg:type="㇒" d="M81.39 54.89c0 .98-.47 1.68-.8 2.08-2.21 2.65-4.71 4.78-9.96 9.03"/><path id="kvg:04ff5-s10" kvg:type="㇏" d="M59.93 61.75c2.71.58 19.4 15.52 26.73 21.6 1.96 1.62 4.34 3.4 6.84 4.4"/></g></g></g></g></g></svg>