<svg xmlns="http://www.w3.org/2000/svg" width="109" height="109" viewBox="0 0 109 109"><g id="kvg:StrokePaths_04ff6"><g id="kvg:04ff6" kvg:element="俶"><g id="kvg:04ff6-g1" kvg:element="亻" kvg:variant="true" kvg:original="人" kvg:position="left" kvg:radical="general"><path id="kvg:04ff6-s1" kvg:type="㇒" d="M30.5 17.89c.12 1.14.21 2.58-.11 3.98-2.06 8.88-10 26.05-19.58 38.09"/><path id="kvg:04ff6-s2" kvg:type="㇑" d="M23.49 45c.66.68.84 2.19.84 3.58.0 14.46-.32 38.08-.32 47.79"/></g><g id="kvg:04ff6-g2" kvg:element="叔" kvg:position="right"><g id="kvg:04ff6-g3" kvg:position="left"><g id="kvg:04ff6-g4" kvg:element="上" kvg:position="top"><g id="kvg:04ff6-g5" kvg:element="卜" kvg:original="ト"><path id="kvg:04ff6-s3" kvg:type="㇑" d="M45.33 13.88c.66.43 2.07 3.18 2.2 4.04.13.85-.09 24.15-.22 29.47"/><path id="kvg:04ff6-s4" kvg:type="㇐/㇔" d="M47.92 31.27c1.76.0 4.97-.93 10.1-1.64 1.84-.25 2.64-.23 3.74-.18"/></g><g id="kvg:04ff6-g6" kvg:element="一"><path id="kvg:04ff6-s5" kvg:type="㇐" d="M30.41 49.05c2.15.72 3.19.72 5 .6 6.8-.45 17.46-3.01 25.76-3.71 1.04-.09 3.15-.33 4.27.07"/></g></g><g id="kvg:04ff6-g7" kvg:element="小" kvg:position="bottom"><path id="kvg:04ff6-s6" kvg:type="㇚" d="M47.21 50.53c.07.41 1.07 2.12 1.07 4.71.0 13.52-.22 29.57-.22 33.8.0 9.59-6.14 1.28-7.42.21"/><path id="kvg:04ff6-s7" kvg:type="㇒" d="M38.82 62.79c.03.51.05 1.31-.05 2.04-.63 4.31-4.25 13.76-9.2 19.55"/><path id="kvg:04ff6-s8" kvg:type="㇔" d="M56.28 61.61c2.25 2.78 5.82 11.42 6.38 15.75"/></g></g><g id="kvg:04ff6-g8" kvg:element="又" kvg:position="right"><path id="kvg:04ff6-s9" kvg:type="㇇" d="M67.51 29.51c1.39.46 1.52.93 4.35.46 3.76-.63 15.52-3.61 17.49-4.07 2.22-.52 4.37 1.44 3.67 3.95-8.17 29.62-14.77 46.91-33.75 64.91"/><path id="kvg:04ff6-s10" kvg:type="㇏" d="M67.66 37.54C70 44.5 83.69 75.85 92.71 88.44c1.64 2.29 3.91 4.89 5.44 5.65"/></g></g></g></g></svg>