<!DOCTYPE svg PUBLIC "-//W3C//DTD SVG 1.0//EN" "http://www.w3.org/TR/2001/REC-SVG-20010904/DTD/svg10.dtd" [
<!ATTLIST g
xmlns:kvg CDATA #FIXED "http://kanjivg.tagaini.net"
kvg:element CDATA #IMPLIED
kvg:variant CDATA #IMPLIED
kvg:partial CDATA #IMPLIED
kvg:original CDATA #IMPLIED
kvg:part CDATA #IMPLIED
kvg:number CDATA #IMPLIED
kvg:tradForm CDATA #IMPLIED
kvg:radicalForm CDATA #IMPLIED
kvg:position CDATA #IMPLIED
kvg:radical CDATA #IMPLIED
kvg:phon CDATA #IMPLIED >
<!ATTLIST path
xmlns:kvg CDATA #FIXED "http://kanjivg.tagaini.net"
kvg:type CDATA #IMPLIED >
]><svg xmlns="http://www.w3.org/2000/svg" width="109" height="109" viewBox="0 0 109 109"><g id="kvg:StrokePaths_05009" style="fill:none;stroke:#000000;stroke-width:3;stroke-linecap:round;stroke-linejoin:round;"><g id="kvg:05009" kvg:element="倉"><g id="kvg:05009-g1" kvg:element="人" kvg:position="top" kvg:radical="general"><path id="kvg:05009-s1" kvg:type="㇒" d="M52.38 11.62c.11.93-.13 2.45-.72 3.72C48 23.25 35.88 39.25 13.75 51"/><path id="kvg:05009-s2" kvg:type="㇏" d="M53 15.62c4.69 4.69 22.79 18.55 31.53 24.83 2.89 2.08 5.81 4.25 9.35 4.92"/></g><g id="kvg:05009-g2" kvg:position="bottom"><path id="kvg:05009-s3" kvg:type="㇐" d="M42.08 35.48c1.4.0 2.54-.13 3.93-.31 3.69-.47 9.82-1.23 13.97-1.81 1.92-.26 2.99-.19 3.83-.19"/><path id="kvg:05009-s4" kvg:type="㇕a" d="M33.5 45.5c1.25.5 2.12.5 3.75.37 7.43-.6 22.38-2.42 28.23-3.1 3.39-.4 6.29-.22 5.56 3.9-.96 5.37-4.01 19.69-4.09 20.18"/><path id="kvg:05009-s5" kvg:type="㇐a" d="M36.5 56.34c3.17-.1 28.48-3.3 32.05-3.41"/><path id="kvg:05009-s6" kvg:type="㇐a" d="M33.23 67.38c6.51-.6 25.32-3.13 33.41-3.73"/><path id="kvg:05009-s7" kvg:type="㇒" d="M35.55 46.75c.66.66 1.06 1.75.89 2.79C34.5 61.88 32.25 79.88 16.5 93.5"/><g id="kvg:05009-g3" kvg:element="口"><path id="kvg:05009-s8" kvg:type="㇑" d="M38.25 77.88c.94.67 1.49 1.59 1.64 2.75 1.06 4.27 2.13 9.16 2.96 13.63.24 1.29.46 2.55.65 3.75"/><path id="kvg:05009-s9" kvg:type="㇕b" d="M40.38 78.96c8.13-1.07 23.72-2.63 30.51-3.28 3.01-.29 5.17-.22 4.27 3.36-.98 3.88-2.1 8.94-3.49 13.78"/><path id="kvg:05009-s10" kvg:type="㇐b" d="M44.45 95.74c4.97-.44 17.2-1.51 25.67-2.31 1.41-.13 2.63-.18 3.84-.12"/></g></g></g></g><g id="kvg:StrokeNumbers_05009" style="font-size:8;fill:#808080"><text transform="matrix(1 0 0 1 44.25 11.50)">1</text><text transform="matrix(1 0 0 1 62.50 20.50)">2</text><text transform="matrix(1 0 0 1 47.50 32.50)">3</text><text transform="matrix(1 0 0 1 38.50 43.63)">4</text><text transform="matrix(1 0 0 1 41.50 53.50)">5</text><text transform="matrix(1 0 0 1 39.50 63.50)">6</text><text transform="matrix(1 0 0 1 29.50 52.50)">7</text><text transform="matrix(1 0 0 1 33.75 87.50)">8</text><text transform="matrix(1 0 0 1 41.50 75.13)">9</text><text transform="matrix(1 0 0 1 46.50 92.50)">10</text></g></svg>