<svg xmlns="http://www.w3.org/2000/svg" width="109" height="109" viewBox="0 0 109 109"><g id="kvg:StrokePaths_05006"><g id="kvg:05006" kvg:element="倆"><g id="kvg:05006-g1" kvg:element="亻" kvg:variant="true" kvg:original="人" kvg:position="left" kvg:radical="general"><path id="kvg:05006-s1" kvg:type="㇒" d="M30 15.39c.12 1.15.21 2.59-.11 4.01-2 8.93-9.75 26.21-19.09 38.32"/><path id="kvg:05006-s2" kvg:type="㇑" d="M23.94 39c.74.76.95 2.46.95 4.04.0 16.29-.36 41.89-.36 52.84"/></g><g id="kvg:05006-g2" kvg:element="兩" kvg:position="right"><path id="kvg:05006-s3" kvg:type="㇐" d="M41.47 21.93c1.39.44 2.32.7 3.7.65 6.23-.2 24.87-3.2 37.83-3.94 1.85-.11 3.25-.13 5.33.31"/><g id="kvg:05006-g3" kvg:element="冂"><path id="kvg:05006-s4" kvg:type="㇑" d="M37.75 42.27c.14.69.97 3.78 1.11 5.18 1.06 10.25 1.31 39.96 1.31 44.57"/><path id="kvg:05006-s5" kvg:type="㇆a" d="M39.06 45.71c9.87-.96 45.96-5.76 52.17-6.5 2.01-.24 3.7.97 3.63 3.61-.35 13.43-2.35 33.93-5.61 46.35-1.81 6.9-4.63 4.82-7.25.0"/></g><path id="kvg:05006-s6" kvg:type="㇑" d="M63.94 23.34c1.01 1.2 1.81 2.65 1.81 4.33.0.96-.6 60.52-.6 63.17"/><g id="kvg:05006-g4" kvg:element="入"><path id="kvg:05006-s7" kvg:type="㇒" d="M52.43 58.88c-1.44 3.85-5.18 9.31-8.17 11.49"/><path id="kvg:05006-s8" kvg:type="㇏" d="M46.8 52.4c.51.0.97.42 1.22.72 4.07 5.08 8.69 10.3 12.46 13.89.43.41.83.55 1.28.67"/></g><g id="kvg:05006-g5" kvg:element="入"><path id="kvg:05006-s9" kvg:type="㇒" d="M78.62 56.3c-1.41 3.5-5.06 8.45-7.99 10.43"/><path id="kvg:05006-s10" kvg:type="㇏" d="M74.09 50.73c.49.0.97.37 1.16.69 2.88 4.71 7.23 9.95 11.89 13.24.47.33.8.53 1.23.64"/></g></g></g></g></svg>