<!DOCTYPE svg PUBLIC "-//W3C//DTD SVG 1.0//EN" "http://www.w3.org/TR/2001/REC-SVG-20010904/DTD/svg10.dtd" [
<!ATTLIST g
xmlns:kvg CDATA #FIXED "http://kanjivg.tagaini.net"
kvg:element CDATA #IMPLIED
kvg:variant CDATA #IMPLIED
kvg:partial CDATA #IMPLIED
kvg:original CDATA #IMPLIED
kvg:part CDATA #IMPLIED
kvg:number CDATA #IMPLIED
kvg:tradForm CDATA #IMPLIED
kvg:radicalForm CDATA #IMPLIED
kvg:position CDATA #IMPLIED
kvg:radical CDATA #IMPLIED
kvg:phon CDATA #IMPLIED >
<!ATTLIST path
xmlns:kvg CDATA #FIXED "http://kanjivg.tagaini.net"
kvg:type CDATA #IMPLIED >
]><svg xmlns="http://www.w3.org/2000/svg" width="109" height="109" viewBox="0 0 109 109"><g id="kvg:StrokePaths_05005" style="fill:none;stroke:#000000;stroke-width:3;stroke-linecap:round;stroke-linejoin:round;"><g id="kvg:05005" kvg:element="倅"><g id="kvg:05005-g1" kvg:element="亻" kvg:variant="true" kvg:original="人" kvg:position="left" kvg:radical="general"><path id="kvg:05005-s1" kvg:type="㇒" d="M33.49 16.89c.14 1.1.24 2.47-.12 3.82-2.34 8.51-11.39 24.97-22.3 36.51"/><path id="kvg:05005-s2" kvg:type="㇑" d="M24.99 41.5c.66.68.84 2.19.84 3.58.0 14.46-.32 38.08-.32 47.79"/></g><g id="kvg:05005-g2" kvg:element="卒" kvg:position="right"><g id="kvg:05005-g3" kvg:position="top"><g id="kvg:05005-g4" kvg:element="亠"><path id="kvg:05005-s3" kvg:type="㇑a" d="M64.64 13c.49.47 1.3 2.26 1.3 3.19.0 3.41-.16 6.69-.06 9.57"/><path id="kvg:05005-s4" kvg:type="㇐" d="M40.96 27.81c.95.06 3.14.42 4.06.33 7.5-.69 34.16-3.54 43.68-3.72 1.57-.03 2.38.03 3.55.42"/></g><g id="kvg:05005-g5" kvg:element="从"><g id="kvg:05005-g6" kvg:element="人" kvg:position="left"><path id="kvg:05005-s5" kvg:type="㇒" d="M53.61 33.99c0 .52.03.94-.09 1.57-.62 3.28-6.49 14.21-11.51 19.06"/><path id="kvg:05005-s6" kvg:type="㇏" d="M52.55 42.53c3.43 1.49 7.81 5.46 9.48 9.22"/></g><g id="kvg:05005-g7" kvg:element="人" kvg:position="right"><path id="kvg:05005-s7" kvg:type="㇒" d="M78.85 30.99c0 .53.03.95-.09 1.59-.62 3.32-6.51 14.38-11.55 19.29"/><path id="kvg:05005-s8" kvg:type="㇏" d="M76.11 41.46c4.45 1.91 10.12 6.98 12.29 11.79"/></g></g></g><g id="kvg:05005-g8" kvg:element="十" kvg:position="bottom"><path id="kvg:05005-s9" kvg:type="㇐" d="M36.5 69.98c1.51.54 4.27.65 5.78.54 14.97-1.02 38.23-3.54 51.45-3.75 2.51-.04 4.02.26 5.27.53"/><path id="kvg:05005-s10" kvg:type="㇑" d="M65.14 59.5c.67.56 2.21 2.5 2.21 5.3.0 1.13-.09 25.71-.22 32.7"/></g></g></g></g><g id="kvg:StrokeNumbers_05005" style="font-size:8;fill:#808080"><text transform="matrix(1 0 0 1 24.50 15.50)">1</text><text transform="matrix(1 0 0 1 18.50 57.50)">2</text><text transform="matrix(1 0 0 1 55.50 10.50)">3</text><text transform="matrix(1 0 0 1 39.50 24.50)">4</text><text transform="matrix(1 0 0 1 45.50 37.50)">5</text><text transform="matrix(1 0 0 1 57.50 43.50)">6</text><text transform="matrix(1 0 0 1 70.50 34.68)">7</text><text transform="matrix(1 0 0 1 82.50 42.50)">8</text><text transform="matrix(1 0 0 1 34.50 66.50)">9</text><text transform="matrix(1 0 0 1 54.44 62.46)">10</text></g></svg>