<!DOCTYPE svg PUBLIC "-//W3C//DTD SVG 1.0//EN" "http://www.w3.org/TR/2001/REC-SVG-20010904/DTD/svg10.dtd" [
<!ATTLIST g
xmlns:kvg CDATA #FIXED "http://kanjivg.tagaini.net"
kvg:element CDATA #IMPLIED
kvg:variant CDATA #IMPLIED
kvg:partial CDATA #IMPLIED
kvg:original CDATA #IMPLIED
kvg:part CDATA #IMPLIED
kvg:number CDATA #IMPLIED
kvg:tradForm CDATA #IMPLIED
kvg:radicalForm CDATA #IMPLIED
kvg:position CDATA #IMPLIED
kvg:radical CDATA #IMPLIED
kvg:phon CDATA #IMPLIED >
<!ATTLIST path
xmlns:kvg CDATA #FIXED "http://kanjivg.tagaini.net"
kvg:type CDATA #IMPLIED >
]><svg xmlns="http://www.w3.org/2000/svg" width="109" height="109" viewBox="0 0 109 109"><g id="kvg:StrokePaths_05024" style="fill:none;stroke:#000000;stroke-width:3;stroke-linecap:round;stroke-linejoin:round;"><g id="kvg:05024" kvg:element="値"><g id="kvg:05024-g1" kvg:element="亻" kvg:variant="true" kvg:original="人" kvg:position="left" kvg:radical="general"><path id="kvg:05024-s1" kvg:type="㇒" d="M35 15.5c.24 2.06.18 3.51-.61 5.27C29.38 32.03 22.5 44.62 11 57.29"/><path id="kvg:05024-s2" kvg:type="㇑" d="M25.53 41.5c.8.8 1.26 2.22 1.26 3.48.0 12.64-.01 32.9-.01 44.4.0 2.79-.03 5.11-.03 6.75"/></g><g id="kvg:05024-g2" kvg:element="直" kvg:position="right" kvg:phon="直"><g id="kvg:05024-g3" kvg:element="十"><path id="kvg:05024-s3" kvg:type="㇐" d="M47.4 30.21c1.86.52 4.84.43 6.74.16C66 28.71 74.62 27.5 88.75 26.22c2.06-.19 4.18-.29 6.23.01"/><path id="kvg:05024-s4" kvg:type="㇑a" d="M70.48 14.76c.82.82 1.09 1.88 1.01 2.89-.74 9.6-1.24 13.73-2.41 23.35"/></g><g id="kvg:05024-g4" kvg:element="目"><path id="kvg:05024-s5" kvg:type="㇑" d="M53.94 42.36c.72.72 1.25 2.34 1.25 3.5.0.87-.01 21.46-.02 31.76.0 1.85.0 3.37.0 4.38"/><path id="kvg:05024-s6" kvg:type="㇕a" d="M56.08 43.76c4.04-.51 25.48-3.79 28.27-4.1 2.18-.24 3.72.96 3.72 2.59.0 2.62-.09 28.49-.09 32.49.0 1.9.0 3.7.0 5.32"/><path id="kvg:05024-s7" kvg:type="㇐a" d="M56.24 55.49c5.75-.46 25.67-2.99 30.38-3.2"/><path id="kvg:05024-s8" kvg:type="㇐a" d="M56.47 67.19c7.68-.84 22.6-2.73 30.06-3.07"/><path id="kvg:05024-s9" kvg:type="㇐a" d="M56.16 79.3c8.96-1.17 27.16-2.76 31.02-2.94"/></g><path id="kvg:05024-s10" kvg:type="㇗" d="M41.25 53c1.06 1.06 1.5 3 1.5 5.5s0 25.5.0 30.25c0 4.12.75 4.58 4.25 4.25 14.5-1.38 29.75-2.38 44.75-2.75 2.75-.07 5.38.0 7.25.25"/></g></g></g><g id="kvg:StrokeNumbers_05024" style="font-size:8;fill:#808080"><text transform="matrix(1 0 0 1 26.25 15.50)">1</text><text transform="matrix(1 0 0 1 20.25 58.50)">2</text><text transform="matrix(1 0 0 1 44.50 27.50)">3</text><text transform="matrix(1 0 0 1 60.75 14.50)">4</text><text transform="matrix(1 0 0 1 47.50 51.50)">5</text><text transform="matrix(1 0 0 1 56.50 40.63)">6</text><text transform="matrix(1 0 0 1 60.75 52.50)">7</text><text transform="matrix(1 0 0 1 60.71 63.50)">8</text><text transform="matrix(1 0 0 1 60.71 75.50)">9</text><text transform="matrix(1 0 0 1 33.75 49.63)">10</text></g></svg>