<svg xmlns="http://www.w3.org/2000/svg" width="109" height="109" viewBox="0 0 109 109"><g id="kvg:StrokePaths_05023" style="fill:none;stroke:#000000;stroke-width:3;stroke-linecap:round;stroke-linejoin:round;"><g id="kvg:05023" kvg:element="倣"><g id="kvg:05023-g1" kvg:element="亻" kvg:variant="true" kvg:original="人" kvg:position="left" kvg:radical="general"><path id="kvg:05023-s1" kvg:type="㇒" d="M27.77 15.14c.11 1.04.05 2.13-.34 3.38-2.55 7.98-9.12 22.98-17.37 33.95"/><path id="kvg:05023-s2" kvg:type="㇑" d="M21.53 38.5c.59.61.76 1.97.76 3.23.0 10.48-.03 32.69-.04 45.52.0 3.11.0 5.67.0 7.38"/></g><g id="kvg:05023-g2" kvg:element="放" kvg:position="right" kvg:phon="放"><g id="kvg:05023-g3" kvg:element="方" kvg:position="left"><g id="kvg:05023-g4" kvg:element="亠" kvg:position="top"><path id="kvg:05023-s3" kvg:type="㇑a" d="M47.79 13c1.23 1.23 1.68 2.71 1.68 3.91.0 3.09-.1 8.02-.1 11.96"/><path id="kvg:05023-s4" kvg:type="㇐" d="M31.36 32.87c2.06.18 3.61.38 5.65-.08 7.56-1.7 14.82-3.02 20.88-4.11 1.83-.33 3.49-.68 5.4-.06"/></g><g id="kvg:05023-g5" kvg:position="bottom"><path id="kvg:05023-s5" kvg:type="㇆a" d="M45.97 45.25c3.16.62 8.03 1.5 9.84 2.06 2.68.83 3.53 3.1 3.27 5.62-.82 8.12-6.64 26.61-10.43 31.76-3.98 5.42-6.3.25-7.43-.54"/><path id="kvg:05023-s6" kvg:type="㇒" d="M46.71 34.25c.54 1.25.53 2.36.16 3.75-2.99 11.25-7.24 25.38-16.61 38.5"/></g></g><g id="kvg:05023-g6" kvg:element="攵" kvg:variant="true" kvg:original="攴" kvg:position="right"><g id="kvg:05023-g7" kvg:element="𠂉" kvg:position="top"><path id="kvg:05023-s7" kvg:type="㇒" d="M73.46 14.64c.03.71.18 1.86-.06 2.84-1.55 6.23-5.04 18.27-10.41 26.89"/><path id="kvg:05023-s8" kvg:type="㇐" d="M70.67 35.07c1.46.18 3.31.04 4.34-.13 5.14-.85 12.11-2.94 17-4.21 1.31-.34 2.98-.73 4.75-.3"/></g><g id="kvg:05023-g8" kvg:element="乂" kvg:position="bottom"><g id="kvg:05023-g9" kvg:element="丿"><path id="kvg:05023-s9" kvg:type="㇒" d="M86.14 38.13c.45 1.32.69 2.27.23 4.68-4.26 21.95-12.99 39.44-28 48.69"/></g><path id="kvg:05023-s10" kvg:type="㇏" d="M65.88 50.28c3.25 1.22 14.25 21.97 22.57 34.11 1.58 2.31 3.59 4.59 5.8 6.32"/></g></g></g></g></g></svg>