<svg xmlns="http://www.w3.org/2000/svg" width="109" height="109" viewBox="0 0 109 109"><g id="kvg:StrokePaths_0502b"><g id="kvg:0502b" kvg:element="倫"><g id="kvg:0502b-g1" kvg:element="亻" kvg:variant="true" kvg:original="人" kvg:position="left" kvg:radical="general"><path id="kvg:0502b-s1" kvg:type="㇒" d="M26.52 16.64c.23 1.36.26 2.36-.1 3.76-2.3 9.1-8.87 25.96-17.11 38.07"/><path id="kvg:0502b-s2" kvg:type="㇑" d="M21.78 40.75c.98.98 1.26 2.25 1.26 3.98.0 10.59-.01 36.52-.01 44.52.0 2.87-.03 5.24-.03 6.88"/></g><g id="kvg:0502b-g2" kvg:element="侖" kvg:position="right" kvg:phon="侖"><g id="kvg:0502b-g3" kvg:element="人" kvg:position="top"><path id="kvg:0502b-s3" kvg:type="㇒" d="M57.56 12.4c.08.81-.12 2.17-.65 3.25-4.54 9.23-10.66 19.98-25.68 31.51"/><path id="kvg:0502b-s4" kvg:type="㇏" d="M57.49 16.57c6.14 4.3 19.45 13.76 27.56 19.42 2.95 2.05 5.79 4.04 9.22 5.18"/></g><g id="kvg:0502b-g4" kvg:position="bottom"><g id="kvg:0502b-g5" kvg:element="一"><path id="kvg:0502b-s5" kvg:type="㇐" d="M45.25 41.96c1.67.57 3.57.31 5.26.11 5.27-.62 13.38-1.92 19.12-2.4 1.79-.15 3.5-.21 5.27.16"/></g><g id="kvg:0502b-g6" kvg:element="冊"><g id="kvg:0502b-g7" kvg:element="冂"><path id="kvg:0502b-s6" kvg:type="㇑" d="M37.58 57.1c.91.91 1.15 1.86 1.15 3 0 4.77-.1 19.02-.1 28.15.0 2.51.04 4.62.04 5.94"/><path id="kvg:0502b-s7" kvg:type="㇆a" d="M39.6 58.89c9.4-1.14 42.67-4.48 44.14-4.6 2.26-.17 4.29 1.2 4.29 3.87.0 6.45-.26 18.18-.26 30.09.0 7.86-2.47 5.29-6.43 2.54"/></g><g id="kvg:0502b-g8" kvg:element="廾" kvg:variant="true"><g id="kvg:0502b-g9" kvg:element="十" kvg:part="1" kvg:variant="true"><path id="kvg:0502b-s8" kvg:type="㇐a" d="M40.18 73.74c11.32-1.24 35.44-3.61 46.44-4.11"/></g><g id="kvg:0502b-g10" kvg:element="丿" kvg:variant="true"><path id="kvg:0502b-s9" kvg:type="㇑" d="M53.39 59.2c.96.96 1.29 2.05 1.29 4.05.0 5.43-.01 15.1-.01 21.5.0 3.35-.01 5.81-.01 6.3"/></g><g id="kvg:0502b-g11" kvg:element="十" kvg:part="2" kvg:variant="true"><path id="kvg:0502b-s10" kvg:type="㇑" d="M68.86 58.11c1.08 1.08 1.29 2.14 1.29 4.05.0 7.72-.01 16.9-.01 22.84.0 2.79.0 5.03.0 6.39"/></g></g></g></g></g></g></g></svg>