<svg xmlns="http://www.w3.org/2000/svg" width="109" height="109" viewBox="0 0 109 109"><g id="kvg:StrokePaths_05025" style="fill:none;stroke:#000000;stroke-width:3;stroke-linecap:round;stroke-linejoin:round;"><g id="kvg:05025" kvg:element="倥"><g id="kvg:05025-g1" kvg:element="亻" kvg:variant="true" kvg:original="人" kvg:position="left" kvg:radical="general"><path id="kvg:05025-s1" kvg:type="㇒" d="M31.49 17.39c.13 1.2.24 2.71-.12 4.19-2.26 9.36-11.02 27.45-21.56 40.13"/><path id="kvg:05025-s2" kvg:type="㇑" d="M25.99 41c.66.68.84 2.19.84 3.58.0 14.46-.32 41.08-.32 50.79"/></g><g id="kvg:05025-g2" kvg:element="空" kvg:position="right"><g id="kvg:05025-g3" kvg:element="穴" kvg:variant="true" kvg:position="top"><g id="kvg:05025-g4" kvg:element="宀"><path id="kvg:05025-s3" kvg:type="㇑a" d="M62.54 11.75c1.02.37 1.98 1.82 1.95 2.89C64.42 18 64.42 24 64.41 27.06"/><g id="kvg:05025-g5" kvg:element="冖"><path id="kvg:05025-s4" kvg:type="㇔" d="M39.57 27.73c0 3.51-2.06 13.18-2.99 15.52"/><path id="kvg:05025-s5" kvg:type="㇖b" d="M41.61 29.63c6.14-1.13 43.24-3.85 47.87-4.13 7.67-.47 3.21 4.67-.47 8.17"/></g></g><g id="kvg:05025-g6" kvg:element="八" kvg:variant="true"><path id="kvg:05025-s6" kvg:type="㇒" d="M56.02 36.25c.07.5.08 1.29-.15 2.03-2 6.48-4.57 11.44-13.12 17.72"/><path id="kvg:05025-s7" kvg:type="㇟a/㇏" d="M70.01 32.72c1.02.88 1.83 1.92 1.89 3.28.12 2.8-.04 5.46.04 7.73.21 5.97.98 7.25 9.33 6.89 4.02-.17 8.49-.91 10.48-1.4"/></g></g><g id="kvg:05025-g7" kvg:element="工" kvg:position="bottom"><path id="kvg:05025-s8" kvg:type="㇐" d="M46.67 64.05c.85.46 2.68.56 3.55.47 7.79-.88 20.13-2.62 29.77-3.32 1.31-.09 2.5.09 3.58.47"/><path id="kvg:05025-s9" kvg:type="㇑a" d="M64.08 64.45c.96 1.25.96 2 .96 3 0 7 .15 15.3.15 23.3"/><path id="kvg:05025-s10" kvg:type="㇐" d="M36.75 92.2c.84.23 5.25.43 6.67.36 11.04-.57 30.68-2.52 47.44-3.04 2.27-.07 5 .38 6.14.73"/></g></g></g></g></svg>