<svg xmlns="http://www.w3.org/2000/svg" width="109" height="109" viewBox="0 0 109 109"><g id="kvg:StrokePaths_05048"><g id="kvg:05048" kvg:element="偈"><g id="kvg:05048-g1" kvg:element="亻" kvg:variant="true" kvg:original="人" kvg:position="left" kvg:radical="general"><path id="kvg:05048-s1" kvg:type="㇒" d="M32.93 13.5c.14 1.22.24 2.76-.12 4.27C30.52 27.28 21.67 45.68 11 58.57"/><path id="kvg:05048-s2" kvg:type="㇑" d="M22.98 44.61c.59.61.76 1.97.76 3.23.0 13.02-.29 38.15-.29 46.9"/></g><g id="kvg:05048-g2" kvg:element="曷" kvg:position="right"><g id="kvg:05048-g3" kvg:element="日" kvg:position="top"><path id="kvg:05048-s3" kvg:type="㇑" d="M44.79 13.14c.3.52.31.89.48 1.55 1.37 5.43 2.85 19.64 3.7 29.77"/><path id="kvg:05048-s4" kvg:type="㇕a" d="M45.77 15.44c9.38-1.16 26.83-3.4 35.51-4.15 2.58-.22 3.1 2.05 2.96 3.32-.48 4.65-3.58 20.47-4.75 28.24"/><path id="kvg:05048-s5" kvg:type="㇐a" d="M47.73 28.3c5.38-.41 31.37-2.78 34.09-2.9"/><path id="kvg:05048-s6" kvg:type="㇐a" d="M49.02 41.86c9.57-.53 21.25-1.62 30.86-1.86"/></g><g id="kvg:05048-g4" kvg:element="匃" kvg:position="bottom"><g id="kvg:05048-g5" kvg:element="勹"><g id="kvg:05048-g6" kvg:element="丿"><path id="kvg:05048-s7" kvg:type="㇒" d="M51.8 46.73c.06.53.27 1.39-.11 2.11C48.8 54.22 42.24 62.11 31.25 69"/></g><path id="kvg:05048-s8" kvg:type="㇆" d="M51.73 56.15c1.04.5 2.49.67 4.14.33 1.66-.33 30.86-3.59 34.99-3.99 2.56-.25 4.35 1.32 3.91 4.84-1.52 12.16-5.1 25.39-11.71 36.76-2.56 4.4-4.81 4.15-7.52-.83"/></g><g id="kvg:05048-g7" kvg:element="人"><path id="kvg:05048-s9" kvg:type="㇒" d="M62.95 59.12c.29.32-.04 2.02-.24 2.65C60.7 68 58.69 73.25 51.48 80.75"/><path id="kvg:05048-s10" kvg:type="㇏" d="M60.96 68.29c4.3 1.78 9.78 6.51 11.88 11"/></g><path id="kvg:05048-s11" kvg:type="㇄" d="M42.1 65.51c.76.46 1.21 2.07 1.36 2.99.14.83-.53 7.72-.53 15.87.0 1.88.62 3.07 2.69 2.86 4.83-.49 20.31-2.24 28.77-2.87 1.84-.14 3.32.38 4.23.38"/></g></g></g></g></svg>