<svg xmlns="http://www.w3.org/2000/svg" width="109" height="109" viewBox="0 0 109 109"><g id="kvg:StrokePaths_05085" style="fill:none;stroke:#000000;stroke-width:3;stroke-linecap:round;stroke-linejoin:round;"><g id="kvg:05085" kvg:element="傅"><g id="kvg:05085-g1" kvg:element="亻" kvg:variant="true" kvg:original="人" kvg:position="left" kvg:radical="general"><path id="kvg:05085-s1" kvg:type="㇒" d="M32.94 18c.13 1.23.22 2.78-.11 4.29-2.13 9.57-10.38 28.07-20.33 41.04"/><path id="kvg:05085-s2" kvg:type="㇑" d="M27.48 43.11c.59.61.76 1.97.76 3.23.0 13.02-.29 39.15-.29 47.9"/></g><g id="kvg:05085-g2" kvg:element="尃" kvg:position="right"><g id="kvg:05085-g3" kvg:element="甫" kvg:position="top"><path id="kvg:05085-s3" kvg:type="㇐" d="M45.25 22.24c1.02.36 2.89.43 3.91.36 4.9-.32 16.92-2.91 28.48-3.04 1.7-.02 2.72.17 3.57.36"/><g id="kvg:05085-g4" kvg:element="用" kvg:variant="true"><path id="kvg:05085-s4" kvg:type="㇑" d="M45.17 30.68c.51.54.85 1.09 1.02 1.64.17.55.3 21.34.31 26.25"/><path id="kvg:05085-s5" kvg:type="㇆" d="M47.2 32.62c5.73-.23 31.83-3.33 33.35-3.48 2.72-.27 3.74 1.77 3.4 2.59-.03 1.84-.43 10.41-.43 22.9"/><path id="kvg:05085-s6" kvg:type="㇐" d="M47.2 41.97c7.58-.48 29.44-2.56 35.56-2.97"/><path id="kvg:05085-s7" kvg:type="㇐" d="M47.36 51.19c5.44-.41 29.58-2.57 35.86-2.84"/><path id="kvg:05085-s8" kvg:type="㇑" d="M62.14 11.73c.99.45 1.58 2.04 1.78 2.95s0 37.34-.2 43.02"/></g><g id="kvg:05085-g5" kvg:element="丶"><path id="kvg:05085-s9" kvg:type="㇔" d="M80.41 11c3.25 1.37 8.4 5.62 9.22 7.75"/></g></g><g id="kvg:05085-g6" kvg:element="寸" kvg:position="bottom"><path id="kvg:05085-s10" kvg:type="㇐" d="M35.99 67.99c1.09.55 3.06.62 4.17.55 11.84-.79 37.29-3.67 50.55-4.5 1.81-.11 2.9.26 3.8.53"/><path id="kvg:05085-s11" kvg:type="㇚" d="M76.5 57.29c.06.33.86 1.71.86 3.79.0 14-.18 25.55-.18 28.96.0 8.26-6.18 1.96-7.66-.33"/><path id="kvg:05085-s12" kvg:type="㇔" d="M48.46 75.7c2.59 1.75 6.68 7.19 7.33 9.91"/></g></g></g></g></svg>