<svg xmlns="http://www.w3.org/2000/svg" width="109" height="109" viewBox="0 0 109 109"><g id="kvg:StrokePaths_050ac" style="fill:none;stroke:#000000;stroke-width:3;stroke-linecap:round;stroke-linejoin:round;"><g id="kvg:050ac" kvg:element="催"><g id="kvg:050ac-g1" kvg:element="亻" kvg:variant="true" kvg:original="人" kvg:position="left" kvg:radical="general"><path id="kvg:050ac-s1" kvg:type="㇒" d="M32.75 17.64c.13 1.23.08 2.55-.36 4.04C29.12 32.5 21.5 49.25 11.56 62.22"/><path id="kvg:050ac-s2" kvg:type="㇑" d="M25.53 44c.59.61 1.01 1.97 1.01 3.23.0 10.29-.01 26.15-.01 41.27.0 3.15-.03 5.79-.03 7.62"/></g><g id="kvg:050ac-g2" kvg:element="崔" kvg:position="right" kvg:phon="崔"><g id="kvg:050ac-g3" kvg:element="山" kvg:position="top"><path id="kvg:050ac-s3" kvg:type="㇑a" d="M63.93 11.7c.93.93 1.24 2.17 1.24 4 0 .7.05 9.04.05 14.1"/><path id="kvg:050ac-s4" kvg:type="㇄a" d="M47.15 21.81c.64.64.73 1.56.45 2.99-.59 3.03-.98 3.68-1.48 6.28-.3 1.55.29 2.55 1.66 1.93 3.37-1.53 29.62-4.7 37.15-4.89"/><path id="kvg:050ac-s5" kvg:type="㇑" d="M87.14 15.35c.73.9.86 2.4.6 3.97-.48 2.96-1.03 5.87-1.5 8.55-.29 1.69-.52 2.57-.79 4.51"/></g><g id="kvg:050ac-g4" kvg:element="隹" kvg:position="bottom"><g id="kvg:050ac-g5" kvg:element="亻" kvg:variant="true" kvg:original="人"><path id="kvg:050ac-s6" kvg:type="㇒" d="M54.01 38.92c.19 1.57-.05 2.87-.67 4.22-3.91 8.57-8.82 17.68-18.06 26.75"/><path id="kvg:050ac-s7" kvg:type="㇑" d="M49.53 52.82c.82.82 1.02 2.46 1.03 3.18.09 8.03.11 25.05.03 35-.02 2.56-.05 4.65-.08 6"/></g><path id="kvg:050ac-s8" kvg:type="㇒" d="M74.13 36.06c.06.79.04 1.85-.2 2.5-.94 2.56-2.06 4.81-5.29 9.42"/><path id="kvg:050ac-s9" kvg:type="㇐b" d="M50.43 52c6.15-.68 24.55-2.95 34.3-4.18 2.94-.37 5.09-.65 5.88-.76"/><path id="kvg:050ac-s10" kvg:type="㇑a" d="M69.98 52.49c.83.83.97 2.14.97 3.97.0 10.73-.07 28.74-.07 34.04"/><path id="kvg:050ac-s11" kvg:type="㇐b" d="M51.61 65.39c5.71-.56 21.29-2.21 29.95-3.15 2.8-.31 4.87-.54 5.66-.63"/><path id="kvg:050ac-s12" kvg:type="㇐b" d="M51.94 78.28c6.05-.47 21.93-2.14 31.33-3.07 2.99-.29 5.19-.51 6.02-.59"/><path id="kvg:050ac-s13" kvg:type="㇐b" d="M51.97 93.01c6.22-.69 25.37-2.18 35.8-3.03 3-.25 5.18-.44 5.95-.55"/></g></g></g></g></svg>