<svg xmlns="http://www.w3.org/2000/svg" width="109" height="109" viewBox="0 0 109 109"><g id="kvg:StrokePaths_050b2"><g id="kvg:050b2" kvg:element="傲"><g id="kvg:050b2-g1" kvg:element="亻" kvg:variant="true" kvg:original="人" kvg:position="left" kvg:radical="general"><path id="kvg:050b2-s1" kvg:type="㇒" d="M27.95 16.5c.11 1.08.2 2.42-.1 3.74C25.98 28.6 18.73 44.75 10 56.07"/><path id="kvg:050b2-s2" kvg:type="㇑" d="M21.98 41.61c.59.64.76 2.07.76 3.4.0 13.71-.29 42.26-.29 51.48"/></g><g id="kvg:050b2-g2" kvg:element="敖" kvg:position="right"><g id="kvg:050b2-g3" kvg:position="left"><g id="kvg:050b2-g4" kvg:element="土" kvg:position="top"><path id="kvg:050b2-s3" kvg:type="㇐" d="M33.41 26.9c.72.38 2.03.44 2.75.38 5.49-.43 14.62-1.55 21.29-2.66 1.19-.2 1.91.18 2.51.37"/><path id="kvg:050b2-s4" kvg:type="㇑a" d="M46.42 15c.08.26 1.21 1.34 1.21 2.98.0 10.56-.25 6.15-.25 20.12"/><path id="kvg:050b2-s5" kvg:type="㇐" d="M30.49 39.18c1.04.48 2.94.53 3.97.48 3.27-.16 19.99-2.91 24.57-3.1 1.73-.07 2.76.23 3.63.47"/></g><g id="kvg:050b2-g5" kvg:element="放" kvg:part="1" kvg:position="bottom"><g id="kvg:050b2-g6" kvg:element="方" kvg:position="left"><g id="kvg:050b2-g7" kvg:element="亠" kvg:position="top"><path id="kvg:050b2-s6" kvg:type="㇑a" d="M45.36 40.75c.52.42 1.38 2.06 1.38 2.9.0 3.1-.16 4.84-.07 7.47"/><path id="kvg:050b2-s7" kvg:type="㇐" d="M29.67 53.44c.83.27 2.58.44 3.34.38 8.05-.58 19.41-2.08 26.63-2.98 1.29-.16 1.96.03 2.92.49"/></g><g id="kvg:050b2-g8" kvg:position="bottom"><path id="kvg:050b2-s8" kvg:type="㇆a" d="M46.13 59.83c3.26 2.42 6.91 2.17 10.54 3.37.61.2 1.22 1.04 1.12 2.66-.27 4.28-6.03 19.89-9.54 24.25-2.84 3.54-4.22-.15-4.97-.65"/><path id="kvg:050b2-s9" kvg:type="㇒" d="M44.82 55.89c.22.94.17 2-.08 3.06-1.78 7.31-6.94 22.08-14.94 29"/></g></g></g></g><g id="kvg:050b2-g9" kvg:element="放" kvg:part="2" kvg:position="right"><g id="kvg:050b2-g10" kvg:element="攵" kvg:variant="true" kvg:original="攴" kvg:position="right"><g id="kvg:050b2-g11" kvg:element="𠂉" kvg:position="top"><path id="kvg:050b2-s10" kvg:type="㇒" d="M74.87 15.14c.03.65.08 1.69-.06 2.59C73.9 24.01 71 34 64.33 44.23"/><path id="kvg:050b2-s11" kvg:type="㇐" d="M72.7 34.38c1.05.12 1.55.12 2.62-.03 4.38-.62 10.58-1.96 17.29-2.83.75-.1 1.21-.02 1.41.09"/></g><g id="kvg:050b2-g12" kvg:element="乂" kvg:position="bottom"><g id="kvg:050b2-g13" kvg:element="丿"><path id="kvg:050b2-s12" kvg:type="㇒" d="M85.16 36.24c.45 1.35.8 2.34.22 4.78C81.25 58.5 70.75 81.75 57.39 91.25"/></g><path id="kvg:050b2-s13" kvg:type="㇏" d="M66.4 49.37c4.58 9.82 17.52 32.73 25.55 40.62 1.55 1.52 2.53 1.77 3.8 1.93"/></g></g></g></g></g></g></svg>