<!DOCTYPE svg PUBLIC "-//W3C//DTD SVG 1.0//EN" "http://www.w3.org/TR/2001/REC-SVG-20010904/DTD/svg10.dtd" [
<!ATTLIST g
xmlns:kvg CDATA #FIXED "http://kanjivg.tagaini.net"
kvg:element CDATA #IMPLIED
kvg:variant CDATA #IMPLIED
kvg:partial CDATA #IMPLIED
kvg:original CDATA #IMPLIED
kvg:part CDATA #IMPLIED
kvg:number CDATA #IMPLIED
kvg:tradForm CDATA #IMPLIED
kvg:radicalForm CDATA #IMPLIED
kvg:position CDATA #IMPLIED
kvg:radical CDATA #IMPLIED
kvg:phon CDATA #IMPLIED >
<!ATTLIST path
xmlns:kvg CDATA #FIXED "http://kanjivg.tagaini.net"
kvg:type CDATA #IMPLIED >
]><svg xmlns="http://www.w3.org/2000/svg" width="109" height="109" viewBox="0 0 109 109"><g id="kvg:StrokePaths_050b4" style="fill:none;stroke:#000000;stroke-width:3;stroke-linecap:round;stroke-linejoin:round;"><g id="kvg:050b4" kvg:element="傴"><g id="kvg:050b4-g1" kvg:element="亻" kvg:variant="true" kvg:original="人" kvg:position="left" kvg:radical="general"><path id="kvg:050b4-s1" kvg:type="㇒" d="M31.44 17c.13 1.23.22 2.78-.11 4.29C29.19 30.86 20.94 49.36 11 62.32"/><path id="kvg:050b4-s2" kvg:type="㇑" d="M25.98 41.61c.59.61.76 1.97.76 3.23.0 13.02-.29 40.15-.29 48.9"/></g><g id="kvg:050b4-g2" kvg:element="區" kvg:position="right"><g id="kvg:050b4-g3" kvg:element="匚" kvg:part="1" kvg:position="kamae"><path id="kvg:050b4-s3" kvg:type="㇐" d="M39.38 21.22c1.35.47 3.82.55 5.16.47 14.02-.79 26.67-3.23 41.79-3.66 2.24-.06 3.59.23 4.71.46"/></g><g id="kvg:050b4-g4" kvg:element="品"><g id="kvg:050b4-g5" kvg:element="口" kvg:position="top"><path id="kvg:050b4-s4" kvg:type="㇑" d="M55.43 30.87c.31.31.64.57.77.96 1.09 3.08 2.39 11.57 3.14 17.09"/><path id="kvg:050b4-s5" kvg:type="㇕b" d="M56.84 32.38c7.49-1.18 20.09-2.56 24.38-3.03 1.57-.17 2.51 1.02 2.29 2.04-.93 4.19-1.58 6.5-2.96 12.3"/><path id="kvg:050b4-s6" kvg:type="㇐b" d="M59.29 46.48c5.04-.53 16.34-1.45 23.26-2.27"/></g><g id="kvg:050b4-g6" kvg:position="bottom"><g id="kvg:050b4-g7" kvg:element="口" kvg:position="left"><path id="kvg:050b4-s7" kvg:type="㇑" d="M50.37 59.89c.37.36.74.66.9 1.12 1.27 3.59 2.61 14.79 3.48 21.24"/><path id="kvg:050b4-s8" kvg:type="㇕b" d="M52.21 62.32c4.67-.95 10.4-3.02 14.69-3.49 1.57-.17 2.51 1.02 2.29 2.04-.93 4.19-1.58 11.56-2.96 17.36"/><path id="kvg:050b4-s9" kvg:type="㇐b" d="M54.67 80.1c5.04-.53 11.65-1.92 13.57-1.81"/></g><g id="kvg:050b4-g8" kvg:element="口" kvg:position="right"><path id="kvg:050b4-s10" kvg:type="㇑" d="M74.3 57.14c.37.4.74.72.9 1.22 1.27 3.91 2.29 14.19 3.16 21.21"/><path id="kvg:050b4-s11" kvg:type="㇕b" d="M75.72 58.79c7.06-1.53 12.07-2.79 16.37-3.3 1.57-.19 2.51 1.11 2.29 2.21-.93 4.57-2.01 10.58-3.4 16.89"/><path id="kvg:050b4-s12" kvg:type="㇐b" d="M78.6 77.64c5.04-.58 7.02-.58 13.94-1.48"/></g></g></g><g id="kvg:050b4-g9" kvg:element="匚" kvg:part="2" kvg:position="kamae"><path id="kvg:050b4-s13" kvg:type="㇗" d="M43.18 22.11c0 3.5-.44 64.64-.44 67.92.0 2.78.88 3.61 2.44 3.5 8.87-.66 41.33-3.36 44.22-3.36 2.88.0 3.84.33 6.09 1.16"/></g></g></g></g><g id="kvg:StrokeNumbers_050b4" style="font-size:8;fill:#808080"><text transform="matrix(1 0 0 1 23.50 17.50)">1</text><text transform="matrix(1 0 0 1 19.66 59.50)">2</text><text transform="matrix(1 0 0 1 40.50 18.50)">3</text><text transform="matrix(1 0 0 1 49.50 38.50)">4</text><text transform="matrix(1 0 0 1 58.50 29.50)">5</text><text transform="matrix(1 0 0 1 62.50 43.50)">6</text><text transform="matrix(1 0 0 1 46.50 69.50)">7</text><text transform="matrix(1 0 0 1 53.50 58.50)">8</text><text transform="matrix(1 0 0 1 57.75 76.50)">9</text><text transform="matrix(1 0 0 1 68.50 70.50)">10</text><text transform="matrix(1 0 0 1 76.50 55.50)">11</text><text transform="matrix(1 0 0 1 79.50 74.50)">12</text><text transform="matrix(1 0 0 1 32.75 33.50)">13</text></g></svg>