<svg xmlns="http://www.w3.org/2000/svg" width="109" height="109" viewBox="0 0 109 109"><g id="kvg:StrokePaths_050b7"><g id="kvg:050b7" kvg:element="傷"><g id="kvg:050b7-g1" kvg:element="亻" kvg:variant="true" kvg:original="人" kvg:position="left" kvg:radical="general"><path id="kvg:050b7-s1" kvg:type="㇒" d="M32.02 14c.2 2.11-.05 3.87-.69 5.68-4.02 11.52-9.87 23.34-19.08 37.36"/><path id="kvg:050b7-s2" kvg:type="㇑" d="M25.46 38.25c1.08 1.08 1.64 2.81 1.64 4.29.0 12.22.07 34.15.1 46.71.01 3.07.01 5.58.01 7.25"/></g><g id="kvg:050b7-g2" kvg:element="𬀷" kvg:position="right" kvg:phon="傷right"><g id="kvg:050b7-g3" kvg:element="𠂉"><path id="kvg:050b7-s3" kvg:type="㇒" d="M53.35 8c.07 1.04.01 1.82-.37 2.79-2.32 5.91-6.13 12.28-12.23 19.26"/><path id="kvg:050b7-s4" kvg:type="㇐" d="M52.5 19.14c1.25.24 2.24.21 3 .11 4.18-.57 16.27-1.76 22.89-2.46 1.8-.19 4.23-.16 5.86-.03"/></g><g id="kvg:050b7-g4" kvg:element="昜"><g id="kvg:050b7-g5" kvg:element="旦" kvg:position="top"><g id="kvg:050b7-g6" kvg:element="日"><path id="kvg:050b7-s5" kvg:type="㇑" d="M49.38 29.12c.75.75 1.08 1.61 1.23 2.63.53 3.58 1.46 10.15 2.03 14.23.28 1.97.47 3.36.5 3.54"/><path id="kvg:050b7-s6" kvg:type="㇕a" d="M51.07 29.86c4.47-.52 17.11-1.81 24.69-2.4 3.42-.27 4.99.92 4.54 3.8-.75 4.78-1.34 8.47-2.34 12.3-.34 1.28-.69 2.49-1.04 3.59"/><path id="kvg:050b7-s7" kvg:type="㇐a" d="M52.59 38.03c4.91-.41 23.34-1.76 25.63-1.76"/><path id="kvg:050b7-s8" kvg:type="㇐a" d="M53.96 47.11c4.14-.45 17.35-1.4 22.5-1.79"/></g><g id="kvg:050b7-g7" kvg:element="一"><path id="kvg:050b7-s9" kvg:type="㇐" d="M36.31 56.81c2.85.68 6.06.27 8.94.1 12.18-.73 29.74-2.65 41.38-3.13 2.77-.11 5.54-.2 8.29.19"/></g></g><g id="kvg:050b7-g8" kvg:element="勿" kvg:position="bottom"><g id="kvg:050b7-g9" kvg:element="勹"><path id="kvg:050b7-s10" kvg:type="㇒" d="M51.88 58.73c.09 1.04-.26 1.91-.82 2.75-2.69 4.14-8.16 10.02-15.36 15.49"/><path id="kvg:050b7-s11" kvg:type="㇆" d="M51.79 65.46c.83.45 2.73.7 4.09.55 8-.89 23-2.89 28.43-3.28 3.33-.24 4 1.51 3.5 4.69-.46 2.93-2.81 16.98-8.92 25.91-2.98 4.35-5.51 2.54-7.81-.67"/></g><path id="kvg:050b7-s12" kvg:type="㇒" d="M56.67 68.97c.14 1.2-.1 1.83-.7 2.89-3.14 5.55-8.8 11.32-17.31 17.59"/><path id="kvg:050b7-s13" kvg:type="㇒" d="M70.39 67.79c.08.81.37 2.16-.17 3.24C66.75 78 59.25 87.75 48.38 96.9"/></g></g></g></g></g></svg>