<!DOCTYPE svg PUBLIC "-//W3C//DTD SVG 1.0//EN" "http://www.w3.org/TR/2001/REC-SVG-20010904/DTD/svg10.dtd" [
<!ATTLIST g
xmlns:kvg CDATA #FIXED "http://kanjivg.tagaini.net"
kvg:element CDATA #IMPLIED
kvg:variant CDATA #IMPLIED
kvg:partial CDATA #IMPLIED
kvg:original CDATA #IMPLIED
kvg:part CDATA #IMPLIED
kvg:number CDATA #IMPLIED
kvg:tradForm CDATA #IMPLIED
kvg:radicalForm CDATA #IMPLIED
kvg:position CDATA #IMPLIED
kvg:radical CDATA #IMPLIED
kvg:phon CDATA #IMPLIED >
<!ATTLIST path
xmlns:kvg CDATA #FIXED "http://kanjivg.tagaini.net"
kvg:type CDATA #IMPLIED >
]><svg xmlns="http://www.w3.org/2000/svg" width="109" height="109" viewBox="0 0 109 109"><g id="kvg:StrokePaths_050be" style="fill:none;stroke:#000000;stroke-width:3;stroke-linecap:round;stroke-linejoin:round;"><g id="kvg:050be" kvg:element="傾"><g id="kvg:050be-g1" kvg:element="亻" kvg:variant="true" kvg:original="人" kvg:position="left" kvg:radical="general"><path id="kvg:050be-s1" kvg:type="㇒" d="M32.25 15.75c.24 2.18-.07 3.79-.83 5.66C26.56 33.34 19.9 45.03 8.75 59.54"/><path id="kvg:050be-s2" kvg:type="㇑" d="M24.03 41c.98.98 1.26 2 1.26 3.73.0 12.42-.02 30.97-.04 42.77.0 3.43-.01 6.28-.01 8.25"/></g><g id="kvg:050be-g2" kvg:element="頃" kvg:position="right" kvg:phon="頃"><g id="kvg:050be-g3" kvg:element="匕" kvg:position="left"><path id="kvg:050be-s3" kvg:type="㇒" d="M52.11 40.81c0 .94-.48 1.69-1.1 2.27-2.4 2.29-3.64 3.04-9.14 6.04"/><path id="kvg:050be-s4" kvg:type="㇟" d="M38.25 30.5c.75.75.94 2.12.94 3.29.0 2.19.01 25.83.01 28.41.0 9.92 1.04 10.87 6.68 10.87 6.49.0 7.12-2.32 7.12-6.06"/></g><g id="kvg:050be-g4" kvg:element="頁" kvg:position="right"><g id="kvg:050be-g5" kvg:position="top"><path id="kvg:050be-s5" kvg:type="㇐" d="M54.5 17.15c2.37.48 5.45.38 7.78.13 8.91-.96 21.79-2.43 29.97-3.2 2.38-.22 4.62-.2 6.5.22"/><path id="kvg:050be-s6" kvg:type="㇒" d="M75.25 19.2c.05.81-.09 1.59-.42 2.34-.9 2.43-1.7 3.21-4.58 6.71"/></g><g id="kvg:050be-g6" kvg:element="貝" kvg:position="bottom"><g id="kvg:050be-g7" kvg:element="目" kvg:position="top"><path id="kvg:050be-s7" kvg:type="㇑" d="M60.54 30.71c.88.88 1.12 2.16 1.12 3.41.0 1.12.03 24.61.04 35.38.0 3.1.0 5.15.0 5.31"/><path id="kvg:050be-s8" kvg:type="㇕a" d="M62.93 31.78c3.7-.4 21.9-3.44 24.27-3.5 1.98-.05 3.36.97 3.36 3.57.0 2.82-.05 20.94-.06 36.03.0 1.76.0 3.48.0 5.12"/><path id="kvg:050be-s9" kvg:type="㇐a" d="M62.86 45.32c5.89-.57 20.98-2.57 26.56-2.59"/><path id="kvg:050be-s10" kvg:type="㇐a" d="M62.74 58.11c9.88-.99 19.52-1.85 26.64-1.89"/><path id="kvg:050be-s11" kvg:type="㇐a" d="M62.86 72.48c6.01-.67 18.84-1.89 26.42-1.92"/></g><g id="kvg:050be-g8" kvg:element="八" kvg:position="bottom"><path id="kvg:050be-s12" kvg:type="㇒" d="M67.19 78.9c.19 1.35-.41 2.6-1.52 3.71C62.31 85.97 55.05 93.23 47 96.69"/><path id="kvg:050be-s13" kvg:type="㇔" d="M85.38 79.27c4.78 4.67 10.16 12.38 11.46 16.23"/></g></g></g></g></g></g><g id="kvg:StrokeNumbers_050be" style="font-size:8;fill:#808080"><text transform="matrix(1 0 0 1 22.50 14.50)">1</text><text transform="matrix(1 0 0 1 17.50 57.50)">2</text><text transform="matrix(1 0 0 1 47.50 37.50)">3</text><text transform="matrix(1 0 0 1 37.50 28.63)">4</text><text transform="matrix(1 0 0 1 53.50 14.50)">5</text><text transform="matrix(1 0 0 1 66.50 24.50)">6</text><text transform="matrix(1 0 0 1 55.50 38.50)">7</text><text transform="matrix(1 0 0 1 62.25 28.50)">8</text><text transform="matrix(1 0 0 1 66.75 42.05)">9</text><text transform="matrix(1 0 0 1 66.75 54.50)">10</text><text transform="matrix(1 0 0 1 66.75 68.91)">11</text><text transform="matrix(1 0 0 1 53.25 83.50)">12</text><text transform="matrix(1 0 0 1 75.50 82.63)">13</text></g></svg>