<!DOCTYPE svg PUBLIC "-//W3C//DTD SVG 1.0//EN" "http://www.w3.org/TR/2001/REC-SVG-20010904/DTD/svg10.dtd" [
<!ATTLIST g
xmlns:kvg CDATA #FIXED "http://kanjivg.tagaini.net"
kvg:element CDATA #IMPLIED
kvg:variant CDATA #IMPLIED
kvg:partial CDATA #IMPLIED
kvg:original CDATA #IMPLIED
kvg:part CDATA #IMPLIED
kvg:number CDATA #IMPLIED
kvg:tradForm CDATA #IMPLIED
kvg:radicalForm CDATA #IMPLIED
kvg:position CDATA #IMPLIED
kvg:radical CDATA #IMPLIED
kvg:phon CDATA #IMPLIED >
<!ATTLIST path
xmlns:kvg CDATA #FIXED "http://kanjivg.tagaini.net"
kvg:type CDATA #IMPLIED >
]><svg xmlns="http://www.w3.org/2000/svg" width="109" height="109" viewBox="0 0 109 109"><g id="kvg:StrokePaths_050cd" style="fill:none;stroke:#000000;stroke-width:3;stroke-linecap:round;stroke-linejoin:round;"><g id="kvg:050cd" kvg:element="働"><g id="kvg:050cd-g1" kvg:element="亻" kvg:variant="true" kvg:original="人" kvg:position="left" kvg:radical="general"><path id="kvg:050cd-s1" kvg:type="㇒" d="M29.5 17c.25 1.35.25 2.7-.24 4C24.7 32.98 18.88 47.23 9 60.29"/><path id="kvg:050cd-s2" kvg:type="㇑" d="M21.78 43.5c.73.73 1 1.97 1 3.12.0 10.4-.02 29.95-.03 41 0 2.58.0 4.69.0 6.12"/></g><g id="kvg:050cd-g2" kvg:element="動" kvg:position="right" kvg:phon="動"><g id="kvg:050cd-g3" kvg:element="重" kvg:position="left"><g id="kvg:050cd-g4" kvg:element="千" kvg:part="1"><g id="kvg:050cd-g5" kvg:element="丿"><path id="kvg:050cd-s3" kvg:type="㇒" d="M58.89 13.26c-.02 1.11-.41 1.84-1.27 2.72-2.51 2.56-10.37 6.88-21.52 10.78"/></g><g id="kvg:050cd-g6" kvg:element="十" kvg:part="1"><path id="kvg:050cd-s4" kvg:type="㇐" d="M30.22 35.31c1.51.19 3.54.23 4.81.1 10.52-1.04 20.28-2.42 30.05-3.23 2.08-.17 3.35.14 4.39.35"/></g></g><g id="kvg:050cd-g7" kvg:element="里"><path id="kvg:050cd-s5" kvg:type="㇑" d="M34.12 45.15c.87.87 1.27 1.88 1.43 2.72.83 3.78 1.62 9.21 2.17 14.51.11 1.06.21 2.12.3 3.16"/><path id="kvg:050cd-s6" kvg:type="㇕a" d="M36.13 46.05c7.57-1.21 19.25-2.43 25.82-3.06 2.1-.2 3.67.98 3.38 2.91-.49 3.24-1.45 8.35-2.72 13.87-.24 1.04-.49 2.09-.75 3.15"/><path id="kvg:050cd-s7" kvg:type="㇐a" d="M38.26 54.64c5.24-.64 20.12-2.26 24.57-2.4"/><path id="kvg:050cd-s8" kvg:type="㇐a" d="M39.38 64.09c6.12-.84 13-1.59 21.48-2.21"/><g id="kvg:050cd-g8" kvg:element="千" kvg:part="2"><g id="kvg:050cd-g9" kvg:element="十" kvg:part="2"><path id="kvg:050cd-s9" kvg:type="㇑a" d="M49.19 24.41c.76.76 1.03 2.09 1.03 3.29.0.88-.14 48.42-.14 54.39"/></g></g><path id="kvg:050cd-s10" kvg:type="㇐" d="M34.94 73.71c1.03.34 2.98.35 4.06.2 8-1.16 15.88-2.54 20.26-3.25 1.17-.19 2.45-.42 3.64-.2"/><path id="kvg:050cd-s11" kvg:type="㇀/㇐" d="M32.42 88.36c1.08.89 2.71 1.01 4.56.28 9.7-3.83 12.81-5.14 23.93-9.61"/></g></g><g id="kvg:050cd-g10" kvg:element="力" kvg:position="right"><path id="kvg:050cd-s12" kvg:type="㇆" d="M72.34 44.06c1.41.32 2.64.43 3.49.33 5.57-.69 13.03-2.52 17.2-3.34 3.24-.63 4.39.73 4.23 3.99-.36 7.5-6.56 38.02-10.38 43.1-2.93 3.89-3.46 2.15-6.54-.61"/><path id="kvg:050cd-s13" kvg:type="㇒" d="M81.76 21.18c.99 1.32 1.26 2.91 1.19 5.37-.58 19.58-6.7 49.2-24.88 67.54"/></g></g></g></g><g id="kvg:StrokeNumbers_050cd" style="font-size:8;fill:#808080"><text transform="matrix(1 0 0 1 20.25 18.13)">1</text><text transform="matrix(1 0 0 1 15.75 61.63)">2</text><text transform="matrix(1 0 0 1 49.50 13.48)">3</text><text transform="matrix(1 0 0 1 30.75 33.13)">4</text><text transform="matrix(1 0 0 1 29.25 55.63)">5</text><text transform="matrix(1 0 0 1 36.75 43.63)">6</text><text transform="matrix(1 0 0 1 41.25 52.50)">7</text><text transform="matrix(1 0 0 1 41.50 62.50)">8</text><text transform="matrix(1 0 0 1 43.50 31.50)">9</text><text transform="matrix(1 0 0 1 26.25 74.50)">10</text><text transform="matrix(1 0 0 1 26.44 84.88)">11</text><text transform="matrix(1 0 0 1 69.75 40.63)">12</text><text transform="matrix(1 0 0 1 70.50 20.50)">13</text></g></svg>