<svg xmlns="http://www.w3.org/2000/svg" width="109" height="109" viewBox="0 0 109 109"><g id="kvg:StrokePaths_050c9"><g id="kvg:050c9" kvg:element="僉"><g id="kvg:050c9-g1" kvg:element="人" kvg:position="top" kvg:radical="general"><path id="kvg:050c9-s1" kvg:type="㇒" d="M51.76 11.25c.1.98.44 2.61-.2 3.93C47.5 23.5 36 41 16.75 52.75"/><path id="kvg:050c9-s2" kvg:type="㇏" d="M52 14.5c5.4 6.22 28.66 26.55 34.62 31.1 2.02 1.55 4.61 2.21 6.63 2.65"/></g><g id="kvg:050c9-g2" kvg:position="bottom"><g id="kvg:050c9-g3" kvg:element="一"><path id="kvg:050c9-s3" kvg:type="㇐" d="M39.75 42.11c.52.19 1.48.2 2 .19 4-.05 20.71-2.66 23.93-2.44.87.06 1.39.09 1.82.19"/></g><g id="kvg:050c9-g4" kvg:element="口"><path id="kvg:050c9-s4" kvg:type="㇑" d="M26.75 54.75c.32.34.66.62.8 1.05 1.13 3.37 2.97 12.65 3.74 18.7"/><path id="kvg:050c9-s5" kvg:type="㇕b" d="M28.27 56.54C36.5 55 43.5 53.34 47.3 52.9c1.39-.16 2.23.96 2.03 1.91-.82 3.93-1.79 9.68-3.01 15.12"/><path id="kvg:050c9-s6" kvg:type="㇐b" d="M31.45 72.54c4.47-.5 11.13-1.36 17.26-2.13"/></g><g id="kvg:050c9-g5" kvg:element="口"><path id="kvg:050c9-s7" kvg:type="㇑" d="M56.75 53.09c.33.31.67.57.82.95 1.15 3.07 2.53 11.53 3.32 17.04"/><path id="kvg:050c9-s8" kvg:type="㇕b" d="M58.82 54.67c6.93-1.17 15.05-1.87 18.94-2.27 1.42-.15 2.27.87 2.07 1.74-.84 3.58-1.83 8.41-3.08 13.37"/><path id="kvg:050c9-s9" kvg:type="㇐b" d="M61.04 69.89c4.57-.46 10.86-1.24 17.13-1.94"/></g><g id="kvg:050c9-g6" kvg:element="人"><path id="kvg:050c9-s10" kvg:type="㇒" d="M40.28 73.62c.22 1.13.14 2.22-.16 2.95C37.5 83 31.5 91.5 20.75 99.25"/><path id="kvg:050c9-s11" kvg:type="㇏" d="M39.42 81.32c4.11 1.87 9.36 6.84 11.36 11.56"/></g><g id="kvg:050c9-g7" kvg:element="人"><path id="kvg:050c9-s12" kvg:type="㇒" d="M68.31 72.37c.2 1.19.13 2.33-.14 3.1-2.36 6.74-7.75 15.66-17.42 23.79"/><path id="kvg:050c9-s13" kvg:type="㇏" d="M67.99 80.7c6.08 2.89 13.83 10.58 16.79 17.87"/></g></g></g></g></svg>