<svg xmlns="http://www.w3.org/2000/svg" width="109" height="109" viewBox="0 0 109 109"><g id="kvg:StrokePaths_050ca"><g id="kvg:050ca" kvg:element="僊"><g id="kvg:050ca-g1" kvg:element="亻" kvg:variant="true" kvg:original="人" kvg:position="left" kvg:radical="general"><path id="kvg:050ca-s1" kvg:type="㇒" d="M31.44 17.5c.13 1.22.23 2.74-.12 4.24C29.1 31.2 20.55 49.5 10.25 62.32"/><path id="kvg:050ca-s2" kvg:type="㇑" d="M24.48 44.61c.59.61.76 1.97.76 3.23.0 13.02-.29 37.15-.29 45.9"/></g><g id="kvg:050ca-g2" kvg:position="right"><g id="kvg:050ca-g3" kvg:element="覀" kvg:variant="true" kvg:original="襾" kvg:position="top"><path id="kvg:050ca-s3" kvg:type="㇐" d="M40.22 15.98c.78.45 2.2.51 2.98.45 7.17-.61 30.99-3.92 36.95-3.95 1.3-.01 2.08.21 2.72.44"/><path id="kvg:050ca-s4" kvg:type="㇑" d="M38.25 28.3c.32.3.65.55.79.92 1.12 2.95 2.06 10.19 2.83 15.49"/><path id="kvg:050ca-s5" kvg:type="㇕" d="M40.26 29.32c7.91-1.24 40.6-4.67 44.67-5.09 1.49-.15 2.39 1.54 2.17 2.44-.92 3.86-1.15 7.96-3 13.18"/><path id="kvg:050ca-s6" kvg:type="㇑" d="M53.67 18.81c.86.47 1.43 2.09 1.55 3.04.33 2.8.28 11.4.41 19.4"/><path id="kvg:050ca-s7" kvg:type="㇑" d="M68.44 16.47c.86.47.92 2.52.89 4.67-.08 6.61-.08 10.36-.76 17.53"/><path id="kvg:050ca-s8" kvg:type="㇐a" d="M42.2 43.26c4.79-.47 35.54-3.82 41.61-4.29"/></g><g id="kvg:050ca-g4" kvg:position="bottom"><g id="kvg:050ca-g5" kvg:element="大"><path id="kvg:050ca-s9" kvg:type="㇐" d="M32.71 53.93c.99.27 3.64.59 5.74.47 14.24-.81 35.44-3.93 48.22-4.32 2.2-.07 3.97-.03 5.95.18"/><path id="kvg:050ca-s10" kvg:type="㇒" d="M58.1 44.16c.15 1.09-.15 2.06-.4 3.06-2.45 10.03-11.2 24.53-25.45 31.73"/><path id="kvg:050ca-s11" kvg:type="㇏" d="M68.77 51.75c5.25 4.41 17.51 15.64 22.76 18.59 1.79 1 2.41 1.15 3.22 1.25"/></g><g id="kvg:050ca-g6" kvg:element="巳"><g id="kvg:050ca-g7" kvg:element="己" kvg:variant="true"><path id="kvg:050ca-s12" kvg:type="㇕" d="M51.25 66.79c1.06.64 1.97.64 3.52.43 3.16-.43 17.65-2.66 18.61-2.75 1.27-.11 2.27.71 1.82 2.37-.13.5-2.49 7.31-3.38 12.07"/><path id="kvg:050ca-s13" kvg:type="㇐" d="M53.25 80.93c2.33-.23 16.79-1.63 21.24-2.56"/><path id="kvg:050ca-s14" kvg:type="㇟" d="M52.71 67.14c-.02 3.19.58 17.72.6 20.61.04 8.18 1.88 9 17.63 9 17 0 16.12-3.12 16.12-5.85"/></g></g></g></g></g></g></svg>