<svg xmlns="http://www.w3.org/2000/svg" width="109" height="109" viewBox="0 0 109 109"><g id="kvg:StrokePaths_050d1" style="fill:none;stroke:#000000;stroke-width:3;stroke-linecap:round;stroke-linejoin:round;"><g id="kvg:050d1" kvg:element="僑"><g id="kvg:050d1-g1" kvg:element="亻" kvg:variant="true" kvg:original="人" kvg:position="left" kvg:radical="general"><path id="kvg:050d1-s1" kvg:type="㇒" d="M32.99 15.14c0 1.36-.18 2.8-.62 4.29-3 10.32-10.76 27.82-21.07 40.79"/><path id="kvg:050d1-s2" kvg:type="㇑" d="M24.78 43.5c.8.8 1.01 1.97 1.01 3.23.0 9.62-.02 27.21-.03 39.27.0 4.26-.01 7.84-.01 10.12"/></g><g id="kvg:050d1-g2" kvg:element="喬" kvg:position="right"><g id="kvg:050d1-g3" kvg:element="呑" kvg:position="top"><g id="kvg:050d1-g4" kvg:element="夭"><g id="kvg:050d1-g5" kvg:element="丿"><path id="kvg:050d1-s3" kvg:type="㇒" d="M74.83 11.23c-.45.9-1.52 1.76-2.42 2.18-7.91 3.72-15.03 6.09-27.97 9.63"/></g><g id="kvg:050d1-g6" kvg:element="大"><path id="kvg:050d1-s4" kvg:type="㇐" d="M39.05 31c2.75.41 5.49.36 8.22-.17 8.12-1.07 23.35-3.2 32.19-4.46 3.52-.5 6.12-.52 10.01-.19"/><path id="kvg:050d1-s5" kvg:type="㇒" d="M61.37 21.44c-.17 1.44-.71 2.69-1.52 3.84C52.25 36 46.38 43 34.75 51.05"/><path id="kvg:050d1-s6" kvg:type="㇏" d="M67.72 30.27c4.87 3.47 13.41 9.85 19.88 13.9 2.63 1.91 5.51 3.24 8.65 3.99"/></g></g><g id="kvg:050d1-g7" kvg:element="口"><path id="kvg:050d1-s7" kvg:type="㇑" d="M50.09 43.41c.75.75 1.02 1.77 1.18 2.69.5 2.83 1.02 5.76 1.52 8.55.23 1.3.45 2.51.66 3.56"/><path id="kvg:050d1-s8" kvg:type="㇕b" d="M52.17 44.55c5.57-.88 16.22-2.26 20.22-2.77 2.42-.31 4.29.44 3.51 3.18-.9 3.16-1.55 4.3-2.25 7.83"/><path id="kvg:050d1-s9" kvg:type="㇐b" d="M54.5 56c3.23-.4 9.72-.97 15.99-1.59 1.5-.15 2.98-.3 4.41-.45"/></g></g><g id="kvg:050d1-g8" kvg:element="冋" kvg:position="bottom"><g id="kvg:050d1-g9" kvg:element="冂"><path id="kvg:050d1-s10" kvg:type="㇑" d="M41 67.25c1.02 1.16 1.57 2.45 1.65 3.87.26 3.02.74 12.25 1.14 19.13.14 2.41.27 4.54.39 6"/><path id="kvg:050d1-s11" kvg:type="㇆a" d="M42.75 68.5c8.1-.8 36.22-4.25 42.02-5.07 4.25-.59 5.82.38 5.37 5.18-.64 6.76-2.06 17.81-5.19 24.96-2.7 6.17-3.58 3.3-6.79-.23"/></g><g id="kvg:050d1-g10" kvg:element="口"><path id="kvg:050d1-s12" kvg:type="㇑" d="M54.42 74.72c.62.62.73 1.39.88 2.15.64 3.17 1.04 5.25 1.39 7.13.23 1.24.44 2.4.69 3.74"/><path id="kvg:050d1-s13" kvg:type="㇕b" d="M56.16 74.98c6.46-1.11 10.71-1.61 15.39-2.37 2.06-.33 2.99.88 2.41 2.72-.83 2.66-1.71 5.04-2.58 7.54"/><path id="kvg:050d1-s14" kvg:type="㇐b" d="M57.95 85.92c2.82-.55 7.03-1.12 10.94-1.67 1.43-.2 2.81-.39 4.07-.58"/></g></g></g></g></g></svg>