<svg xmlns="http://www.w3.org/2000/svg" width="109" height="109" viewBox="0 0 109 109"><g id="kvg:StrokePaths_050e5"><g id="kvg:050e5" kvg:element="僥"><g id="kvg:050e5-g1" kvg:element="亻" kvg:variant="true" kvg:original="人" kvg:position="left" kvg:radical="general"><path id="kvg:050e5-s1" kvg:type="㇒" d="M34.93 15.5c.14 1.16.25 2.61-.13 4.03-2.37 8.99-11.52 26.36-22.55 38.55"/><path id="kvg:050e5-s2" kvg:type="㇑" d="M26.48 42.61c.59.61.76 1.97.76 3.23.0 13.02-.29 42.15-.29 50.9"/></g><g id="kvg:050e5-g2" kvg:element="堯" kvg:position="right"><g id="kvg:050e5-g3" kvg:position="top"><g id="kvg:050e5-g4" kvg:element="土" kvg:position="top"><path id="kvg:050e5-s3" kvg:type="㇐" d="M49.68 22.03c.59.32 1.68.36 2.28.32 6.29-.36 20.23-2.42 27.92-2.71.99-.04 1.58.15 2.08.31"/><path id="kvg:050e5-s4" kvg:type="㇑a" d="M64.67 11.62c.07.23 1.01 1.22 1.01 2.71.0 1.67.29 9.42.29 16.38"/><path id="kvg:050e5-s5" kvg:type="㇐" d="M44.1 32.59c.87.43 2.46.53 3.33.43 10.76-1.21 30.59-3.11 40.21-3.68 1.45-.09 2.32.21 3.04.42"/></g><g id="kvg:050e5-g5" kvg:position="bottom"><g id="kvg:050e5-g6" kvg:element="土" kvg:position="left"><path id="kvg:050e5-s6" kvg:type="㇀/㇐" d="M38.69 46.14c.58.38 1.72.4 2.31.36 3.84-.25 15.61-1.39 19.72-2 .96-.14 2.02-.18 2.5.01"/><path id="kvg:050e5-s7" kvg:type="㇑" d="M50.13 38c.84.5 1.51 2.23 1.51 3.25.0 7.25.02 4.75.02 15.5"/><path id="kvg:050e5-s8" kvg:type="㇐" d="M39.84 60.19c.59.56 1.78 1.36 3.55.62 4.93-2.06 13.81-5.25 18.75-7.31"/></g><g id="kvg:050e5-g7" kvg:element="土" kvg:position="right"><path id="kvg:050e5-s9" kvg:type="㇐" d="M68.61 44.53c.64.32 1.81.33 2.45.32 5.93-.11 14.2-1.61 20-1.71 1.06-.02 1.7.15 2.23.31"/><path id="kvg:050e5-s10" kvg:type="㇑a" d="M79.71 35.62c.07.23 1.09 1.22 1.09 2.71.0 1.67-.22 10.92-.22 17.88"/><path id="kvg:050e5-s11" kvg:type="㇐" d="M65.77 57.73c.74.3 2.48.37 3.22.3 6.61-.54 17.53-1.54 24.16-1.95 1.23-.08 1.98.15 2.59.3"/></g></g></g><g id="kvg:050e5-g8" kvg:element="兀" kvg:position="bottom"><g id="kvg:050e5-g9" kvg:element="一"><path id="kvg:050e5-s12" kvg:type="㇐" d="M41.77 69.4c.96.37 2.73.41 3.69.37 6.71-.27 34.31-3.26 43.46-3.26 1.6.0 2.57.18 3.37.36"/></g><g id="kvg:050e5-g10" kvg:element="儿" kvg:original="八"><g id="kvg:050e5-g11" kvg:element="丿"><path id="kvg:050e5-s13" kvg:type="㇒" d="M58.3 72c.05.61.1 1.57-.11 2.45C56.75 80.5 50.5 93.5 38.92 97.92"/></g><path id="kvg:050e5-s14" kvg:type="㇟" d="M71.09 70.41c.55 1.14 1.02 2.49 1.02 4.25.0 2.36-.02 5.9-.02 11.25.0 9.37 2.53 11.08 12.32 11.08s11.37-2.19 11.37-9.73"/></g></g></g></g></g></svg>