<svg xmlns="http://www.w3.org/2000/svg" width="109" height="109" viewBox="0 0 109 109"><g id="kvg:StrokePaths_050fb" style="fill:none;stroke:#000000;stroke-width:3;stroke-linecap:round;stroke-linejoin:round;"><g id="kvg:050fb" kvg:element="僻"><g id="kvg:050fb-g1" kvg:element="亻" kvg:variant="true" kvg:original="人" kvg:position="left" kvg:radical="general"><path id="kvg:050fb-s1" kvg:type="㇒" d="M30.5 17.39c.13 1.19.22 2.68-.11 4.15-2.11 9.25-10.76 27.14-20.58 39.68"/><path id="kvg:050fb-s2" kvg:type="㇑" d="M22.53 44.5c.59.61.76 1.97.76 3.23.0 13.02-.29 40.15-.29 48.9"/></g><g id="kvg:050fb-g2" kvg:element="辟" kvg:position="right"><g id="kvg:050fb-g3" kvg:element="𡰪" kvg:position="left"><g id="kvg:050fb-g4" kvg:element="尸" kvg:position="tare"><path id="kvg:050fb-s3" kvg:type="㇕c" d="M37.31 24.8c.92.49 2.69.92 3.66.82 5.24-.54 12.84-2.24 14.95-2.44 1.04-.1 1.99 1.24 1.77 2.66-.54 3.5-1.66 10.34-2.51 18.11"/><path id="kvg:050fb-s4" kvg:type="㇐b" d="M39.59 47.06c2.63-.16 11.6-1.52 18.37-2.2"/><path id="kvg:050fb-s5" kvg:type="㇒" d="M40.27 26.3c0 2.53-.22 7.17-.25 9.53-.16 17.12-3.61 38.87-11.22 49.85"/></g><g id="kvg:050fb-g5" kvg:element="口" kvg:position="tarec"><path id="kvg:050fb-s6" kvg:type="㇑" d="M39.13 65.8c.11.77.5 2.5.54 3.09.29 4.27 1.67 14.86 2.07 22.94"/><path id="kvg:050fb-s7" kvg:type="㇕b" d="M39.71 67.75c3.21-.86 14.46-3.28 16.65-3.42.91-.05 2.75 1.8 2.62 3.07-.49 5.05-2.72 13.23-3.2 19.68"/><path id="kvg:050fb-s8" kvg:type="㇐b" d="M41.92 89.17c2.65-.36 12.1-1.48 15.29-1.94"/></g></g><g id="kvg:050fb-g6" kvg:element="辛" kvg:position="right"><g id="kvg:050fb-g7" kvg:element="立" kvg:position="top"><g id="kvg:050fb-g8" kvg:element="亠" kvg:position="top"><path id="kvg:050fb-s9" kvg:type="㇑a" d="M76.93 13.59c1.02 1.31 1.53 1.31 1.53 4.36s0 4.16.0 8.16"/><path id="kvg:050fb-s10" kvg:type="㇐" d="M64.88 27.46c.84.58 2.38.61 3.22.58 7.12-.29 15.4-2.54 22.61-3.57 1.39-.2 2.75-.22 3.45.06"/></g><g id="kvg:050fb-g9" kvg:position="bottom"><path id="kvg:050fb-s11" kvg:type="㇔" d="M67.81 33.63c3.2 5.03 4.65 10.18 4.94 13.5"/><path id="kvg:050fb-s12" kvg:type="㇒" d="M88.48 28.78c.43.55.14 2.61.02 3.03-1.24 4.2-2.82 11.39-3.67 13.79"/><path id="kvg:050fb-s13" kvg:type="㇐" d="M61.84 50.52c1.1.48 2.39.53 3.49.48 7.03-.27 20.79-3.49 29.02-3.78 1.84-.06 2.94.23 3.86.47"/></g></g><g id="kvg:050fb-g10" kvg:element="十" kvg:position="bottom"><path id="kvg:050fb-s14" kvg:type="㇐" d="M65.53 68.91c.79.39 2.23.44 3.02.39 8.19-.55 15.66-1.63 24.95-2.45 1.31-.12 2.1.19 2.76.38"/><path id="kvg:050fb-s15" kvg:type="㇑" d="M78.27 52.37c.36.4 1.12 2.98 1.19 3.77.41 4.56-.1 40.48-.12 41.65"/></g></g></g></g></g></svg>