<svg xmlns="http://www.w3.org/2000/svg" width="109" height="109" viewBox="0 0 109 109"><g id="kvg:StrokePaths_05109"><g id="kvg:05109" kvg:element="儉"><g id="kvg:05109-g1" kvg:element="亻" kvg:variant="true" kvg:original="人" kvg:position="left" kvg:radical="general"><path id="kvg:05109-s1" kvg:type="㇒" d="M33.44 17c.13 1.23.22 2.78-.11 4.29C31.19 30.86 22.94 49.36 13 62.32"/><path id="kvg:05109-s2" kvg:type="㇑" d="M27.48 44.11c.59.61.76 1.97.76 3.23.0 13.02-.29 40.15-.29 48.9"/></g><g id="kvg:05109-g2" kvg:element="僉" kvg:position="right" kvg:phon="僉"><g id="kvg:05109-g3" kvg:element="人" kvg:position="top"><path id="kvg:05109-s3" kvg:type="㇒" d="M62.47 10.25c.09.98.41 2.61-.19 3.93C58.49 22.5 47.74 40 29.75 51.75"/><path id="kvg:05109-s4" kvg:type="㇏" d="M62.7 13.5c5.05 6.22 26.79 26.55 32.35 31.1 1.89 1.55 4.31 2.21 6.2 2.65"/></g><g id="kvg:05109-g4" kvg:position="bottom"><g id="kvg:05109-g5" kvg:element="一"><path id="kvg:05109-s5" kvg:type="㇐" d="M51.25 41.11c.49.19 1.38.2 1.87.19 3.74-.05 19.36-2.66 22.36-2.44.81.06 1.3.09 1.71.19"/></g><g id="kvg:05109-g6" kvg:element="口"><path id="kvg:05109-s6" kvg:type="㇑" d="M39.1 53.75c.3.34.61.62.75 1.05 1.05 3.37 2.78 12.65 3.5 18.7"/><path id="kvg:05109-s7" kvg:type="㇕b" d="M40.52 55.54c7.69-1.54 14.23-3.2 17.79-3.64 1.3-.16 2.08.96 1.89 1.91-.77 3.93-1.67 9.68-2.81 15.12"/><path id="kvg:05109-s8" kvg:type="㇐b" d="M43.49 71.54c4.18-.5 10.4-1.36 16.13-2.13"/></g><g id="kvg:05109-g7" kvg:element="口"><path id="kvg:05109-s9" kvg:type="㇑" d="M67.14 52.09c.31.31.63.57.76.95 1.08 3.07 2.36 11.53 3.1 17.04"/><path id="kvg:05109-s10" kvg:type="㇕b" d="M69.07 53.67c6.48-1.17 14.07-1.87 17.7-2.27 1.33-.15 2.13.87 1.93 1.74-.79 3.58-1.71 8.41-2.88 13.37"/><path id="kvg:05109-s11" kvg:type="㇐b" d="M71.14 68.89c4.27-.46 10.15-1.24 16.01-1.94"/></g><g id="kvg:05109-g8" kvg:element="人"><path id="kvg:05109-s12" kvg:type="㇒" d="M51.74 72.62c.21 1.13.13 2.22-.15 2.95C49.14 82 43.54 90.5 33.49 98.25"/><path id="kvg:05109-s13" kvg:type="㇏" d="M50.94 80.32c3.84 1.87 8.75 6.84 10.62 11.56"/></g><g id="kvg:05109-g9" kvg:element="人"><path id="kvg:05109-s14" kvg:type="㇒" d="M77.94 71.37c.19 1.19.12 2.33-.13 3.1-2.21 6.74-7.25 15.66-16.28 23.79"/><path id="kvg:05109-s15" kvg:type="㇏" d="M77.64 79.7c5.68 2.89 12.93 10.58 15.69 17.87"/></g></g></g></g></g></svg>