<svg xmlns="http://www.w3.org/2000/svg" width="109" height="109" viewBox="0 0 109 109"><g id="kvg:StrokePaths_05112" style="fill:none;stroke:#000000;stroke-width:3;stroke-linecap:round;stroke-linejoin:round;"><g id="kvg:05112" kvg:element="儒"><g id="kvg:05112-g1" kvg:element="亻" kvg:variant="true" kvg:original="人" kvg:position="left" kvg:radical="general"><path id="kvg:05112-s1" kvg:type="㇒" d="M30.25 15.39c.13 1.14-.02 2.08-.37 3.48-2.19 8.88-10.64 26.05-20.82 38.09"/><path id="kvg:05112-s2" kvg:type="㇑" d="M24.73 36.5c.95.95 1.12 2.52 1.12 3.97.0 12.9.0 37.07-.07 50.03-.01 2.13-.02 3.95-.02 5.38"/></g><g id="kvg:05112-g2" kvg:element="需" kvg:position="right" kvg:phon="需"><g id="kvg:05112-g3" kvg:element="雨" kvg:variant="true" kvg:position="top"><path id="kvg:05112-s3" kvg:type="㇐" d="M45.42 19.39c2.58.48 5.21-.01 7.83-.35 7.14-.91 19.84-2.52 25.62-2.85 1.97-.11 4.04-.26 6 .04"/><path id="kvg:05112-s4" kvg:type="㇔/㇑" d="M41.39 30.33c-.17 5.22-1.67 9.99-2.78 15.26"/><path id="kvg:05112-s5" kvg:type="㇖b/㇆" d="M42.09 31.76c16.16-2.39 35.69-5.01 47.79-5.01 7.01.0 2.24 5.49-.22 8.14"/><path id="kvg:05112-s6" kvg:type="㇑" d="M63.79 20.93c.7 1.4 1.01 2.32 1.02 3.69.0.36-.11 13.58-.17 21.13-.02 2.73-.04 4.72-.04 5.08"/><path id="kvg:05112-s7" kvg:type="㇔" d="M50.51 36.12c2.51.5 5.92 2.01 7.29 2.85"/><path id="kvg:05112-s8" kvg:type="㇔" d="M49.03 43.86c2.54.57 6.45 2.67 7.84 3.62"/><path id="kvg:05112-s9" kvg:type="㇔" d="M73.88 33.5c2.93.6 6.25 1.79 7.42 2.29"/><path id="kvg:05112-s10" kvg:type="㇔" d="M74.79 42.15c2.84.6 6.71 2.39 8.26 3.39"/></g><g id="kvg:05112-g4" kvg:element="而" kvg:position="bottom"><g id="kvg:05112-g5" kvg:position="top"><path id="kvg:05112-s11" kvg:type="㇐" d="M43.04 59.13c2.58.62 5.29.4 7.45.16 7.76-.89 21.56-2.25 28.88-2.59 2.17-.1 4.54-.2 6.67.35"/><path id="kvg:05112-s12" kvg:type="㇒" d="M63 61.11c0 .64-.26 1.34-.59 1.8-1.06 2.16-1.96 3.41-5.06 6.85"/></g><g id="kvg:05112-g6" kvg:position="bottom"><g id="kvg:05112-g7" kvg:element="冂"><path id="kvg:05112-s13" kvg:type="㇑" d="M40.74 72.13c.94.94 1.41 2.4 1.54 4.08.13 1.68.71 8.83 1.18 14.29.22 2.53.42 4.7.54 5.79"/><path id="kvg:05112-s14" kvg:type="㇆a" d="M42.39 73.98c6.21-.74 40.98-4.85 45.61-5.44 2.65-.34 4.13.96 4.09 3.44C92 78 91 85.25 89.5 91.6c-1.52 6.44-4.78 5.02-6.74 2.61"/></g><path id="kvg:05112-s15" kvg:type="㇑" d="M56.93 74.74c.92.92 1.16 2.01 1.16 3.46.0 2.8-.09 6.89-.08 11.08.0 2.17.0 3.89.0 4.35"/><path id="kvg:05112-s16" kvg:type="㇑" d="M72.13 73.52c.86.86 1.02 2.33 1.02 3.69.0 2.94-.02 8.51-.02 12.79.0 1.77-.01 3.32-.01 4.38"/></g></g></g></g></g></svg>