<svg xmlns="http://www.w3.org/2000/svg" width="109" height="109" viewBox="0 0 109 109"><g id="kvg:StrokePaths_0511f" style="fill:none;stroke:#000000;stroke-width:3;stroke-linecap:round;stroke-linejoin:round;"><g id="kvg:0511f" kvg:element="償"><g id="kvg:0511f-g1" kvg:element="亻" kvg:variant="true" kvg:original="人" kvg:position="left" kvg:radical="general"><path id="kvg:0511f-s1" kvg:type="㇒" d="M31.25 16.89c.13 1.23-.03 2.28-.36 3.79C28.75 30.25 20 47.5 10.06 60.47"/><path id="kvg:0511f-s2" kvg:type="㇑" d="M26.03 37.75c.92.92 1.26 2.12 1.26 3.98.0 10.62-.02 34.65-.02 49.02.0 3.13-.03 5.76-.03 7.62"/></g><g id="kvg:0511f-g2" kvg:element="賞" kvg:position="right" kvg:phon="賞"><g id="kvg:0511f-g3" kvg:element="尚" kvg:variant="true" kvg:position="top"><g id="kvg:0511f-g4" kvg:element="⺌" kvg:variant="true" kvg:original="小" kvg:position="top"><path id="kvg:0511f-s3" kvg:type="㇑a" d="M63.71 12.87c.84.84 1.26 1.76 1.26 3.49.0 3.64-.01 8.52-.01 13.26"/><path id="kvg:0511f-s4" kvg:type="㇔" d="M45.75 17.88c2.58 1.56 6.66 6.42 7.31 8.84"/><path id="kvg:0511f-s5" kvg:type="㇒" d="M82.01 15.25c.07.77-.04 1.52-.32 2.24-.81 2.38-2.88 5.41-6.63 9.73"/></g><g id="kvg:0511f-g5" kvg:position="bottom"><g id="kvg:0511f-g6" kvg:element="冂" kvg:variant="true"><path id="kvg:0511f-s6" kvg:type="㇔" d="M40.64 32.48c-.14 3.32-1.98 13.2-3.14 15.18"/><path id="kvg:0511f-s7" kvg:type="㇖b" d="M41.63 33.58C47 33 76.52 29.19 90.85 29.09c7.51-.05 1.52 5.28-1.81 7.43"/></g><g id="kvg:0511f-g7" kvg:element="口"><path id="kvg:0511f-s8" kvg:type="㇑" d="M49.51 38c.78.44 1.28 1.41 1.46 2.33.53 2.66.69 3.27 1.16 5.24.33 1.38.65 2.74.95 3.93"/><path id="kvg:0511f-s9" kvg:type="㇕b" d="M52.06 39.57c3.72-.46 17.89-2.19 23.82-2.96 2.68-.34 4.11.64 3.25 3.15-.57 1.65-1.26 2.99-2.01 4.62"/><path id="kvg:0511f-s10" kvg:type="㇐b" d="M53.88 47.25c4.51-.38 15.41-1.16 21.82-1.61 1.57-.11 2.86-.2 3.74-.27"/></g></g></g><g id="kvg:0511f-g8" kvg:element="貝" kvg:position="bottom"><g id="kvg:0511f-g9" kvg:element="目" kvg:position="top"><path id="kvg:0511f-s11" kvg:type="㇑" d="M50.77 54.26c.86.86 1.16 1.99 1.16 3.19.0.49.02 16.3.04 25.3.0 3.57.01 6.06.01 6.1"/><path id="kvg:0511f-s12" kvg:type="㇕a" d="M52.7 55.76c5.96-.48 19.44-2.07 24.16-2.57 3.02-.32 4.78.55 4.78 3.82.01 5.81.06 15.06.08 23.5.0 1.99.01 3.93.01 5.77"/><path id="kvg:0511f-s13" kvg:type="㇐a" d="M53.2 64.9c7.8-.65 21.05-1.9 27.2-2.15"/><path id="kvg:0511f-s14" kvg:type="㇐a" d="M52.95 74.73c7.55-.61 19.92-2.11 27.67-2.37"/><path id="kvg:0511f-s15" kvg:type="㇐a" d="M53.18 84.59c7.32-.84 19.57-2.09 27.42-2.62"/></g><g id="kvg:0511f-g10" kvg:element="八" kvg:position="bottom"><path id="kvg:0511f-s16" kvg:type="㇒" d="M59.61 90.48c-.11 1.02-.64 1.55-1.5 2.22-3.66 2.85-7.99 5.17-15.5 8.05"/><path id="kvg:0511f-s17" kvg:type="㇔" d="M75 88.75c6.47 3.08 14.12 8.65 15.89 11.34"/></g></g></g></g></g></svg>