<svg xmlns="http://www.w3.org/2000/svg" width="109" height="109" viewBox="0 0 109 109"><g id="kvg:StrokePaths_0513a" style="fill:none;stroke:#000000;stroke-width:3;stroke-linecap:round;stroke-linejoin:round;"><g id="kvg:0513a" kvg:element="儺"><g id="kvg:0513a-g1" kvg:element="亻" kvg:variant="true" kvg:original="人" kvg:position="left" kvg:radical="general"><path id="kvg:0513a-s1" kvg:type="㇒" d="M27.45 15.5c.12 1.2.2 2.71-.1 4.19-1.95 9.36-9.5 27.45-18.6 40.13"/><path id="kvg:0513a-s2" kvg:type="㇑" d="M21.98 41.11c.59.61.76 1.97.76 3.23.0 13.02-.29 43.15-.29 51.9"/></g><g id="kvg:0513a-g2" kvg:element="難" kvg:variant="true" kvg:position="right"><g id="kvg:0513a-g3" kvg:position="left"><g id="kvg:0513a-g4" kvg:element="廿"><g id="kvg:0513a-g5" kvg:element="艹" kvg:variant="true" kvg:original="艸"><g id="kvg:0513a-g6" kvg:element="十"><path id="kvg:0513a-s3" kvg:type="㇐" d="M30.48 28.55c.69.38 1.5.44 2.19.38 7.82-.67 19.96-3.27 27.26-3.3 1.16-.01 1.85.18 2.43.37"/><path id="kvg:0513a-s4" kvg:type="㇑" d="M36.87 17.07c1 1.73 1.32 2.26 1.42 3.32 1 9.96 1.48 16.47 1.76 20.09"/></g><path id="kvg:0513a-s5" kvg:type="㇑" d="M52.86 14.31c.37 1.04 1.07 2.26.94 3.6-.55 5.59-.3 12.34-.69 19.07"/></g><path id="kvg:0513a-s6" kvg:type="㇐" d="M42 38.25c3.5-.5 7.25-1.5 9.75-1.75"/></g><g id="kvg:0513a-g7" kvg:element="口"><path id="kvg:0513a-s7" kvg:type="㇑" d="M31.91 45.25c.28.27.56.5.69.84.97 2.71 2.54 9.68 3.2 14.54"/><path id="kvg:0513a-s8" kvg:type="㇕b" d="M33.64 47.08c5.71-1.41 20.6-3.86 23.87-4.21 1.2-.13 1.91.77 1.74 1.53-.71 3.16-1.53 6.49-2.59 10.86"/><path id="kvg:0513a-s9" kvg:type="㇐b" d="M35.93 58.26c3.84-.4 16.66-1.98 21.93-2.6"/></g><g id="kvg:0513a-g8" kvg:element="夫"><path id="kvg:0513a-s10" kvg:type="㇐" d="M32.49 66.96c.58.25 1.64.35 2.22.25 5.02-.87 16.24-2.04 21.57-2.57.96-.1 1.54.12 2.03.25"/><g id="kvg:0513a-g9" kvg:element="大"><path id="kvg:0513a-s11" kvg:type="㇐" d="M29.39 77.33c.67.19 1.89.19 2.57.19 3.99-.01 20.55-2.46 27.22-2.92 1.11-.08 1.79.09 2.34.18"/><path id="kvg:0513a-s12" kvg:type="㇒" d="M45 40.14c.25.79 1.19 1.99 1.18 3.53-.25 30.31-3.14 43.85-14.74 52.52"/><path id="kvg:0513a-s13" kvg:type="㇏" d="M45.38 79.67c5.05 3 9.83 8.19 11.93 13.51"/></g></g></g><g id="kvg:0513a-g10" kvg:element="隹" kvg:position="right"><g id="kvg:0513a-g11" kvg:element="亻" kvg:variant="true" kvg:original="人"><path id="kvg:0513a-s14" kvg:type="㇒" d="M72.24 14.8c.11 1.44-.03 3.3-.4 4.51-2.35 7.71-5.33 14.19-10.72 23.47"/><path id="kvg:0513a-s15" kvg:type="㇑" d="M66.25 36.09c.5.66.62 1.67.62 2.91.0 13.75-.36 51.08-.13 57.08"/></g><path id="kvg:0513a-s16" kvg:type="㇒" d="M86.54 16.02c.06.88-.01 2.04-.19 2.79-1.11 4.78-2.52 8.45-5.08 14.23"/><path id="kvg:0513a-s17" kvg:type="㇐b" d="M66.52 36.59c5.2-.86 25.5-2.65 27.73-3.15"/><path id="kvg:0513a-s18" kvg:type="㇑a" d="M80.8 37.66c.25.43.87 3.01.87 3.74.0 7.38.03 36.78-.12 48.38"/><path id="kvg:0513a-s19" kvg:type="㇐b" d="M66.95 53.62c4.91-.68 24.41-2.01 26.51-2.4"/><path id="kvg:0513a-s20" kvg:type="㇐b" d="M66.85 70.57c5.18-.53 25.17-2.26 27.39-2.58"/><path id="kvg:0513a-s21" kvg:type="㇐b" d="M67.62 91.19c6.7-.69 26.9-2.02 29.13-2.52"/></g></g></g></g></svg>