<!DOCTYPE svg PUBLIC "-//W3C//DTD SVG 1.0//EN" "http://www.w3.org/TR/2001/REC-SVG-20010904/DTD/svg10.dtd" [
<!ATTLIST g
xmlns:kvg CDATA #FIXED "http://kanjivg.tagaini.net"
kvg:element CDATA #IMPLIED
kvg:variant CDATA #IMPLIED
kvg:partial CDATA #IMPLIED
kvg:original CDATA #IMPLIED
kvg:part CDATA #IMPLIED
kvg:number CDATA #IMPLIED
kvg:tradForm CDATA #IMPLIED
kvg:radicalForm CDATA #IMPLIED
kvg:position CDATA #IMPLIED
kvg:radical CDATA #IMPLIED
kvg:phon CDATA #IMPLIED >
<!ATTLIST path
xmlns:kvg CDATA #FIXED "http://kanjivg.tagaini.net"
kvg:type CDATA #IMPLIED >
]><svg xmlns="http://www.w3.org/2000/svg" width="109" height="109" viewBox="0 0 109 109"><g id="kvg:StrokePaths_0513c" style="fill:none;stroke:#000000;stroke-width:3;stroke-linecap:round;stroke-linejoin:round;"><g id="kvg:0513c" kvg:element="儼"><g id="kvg:0513c-g1" kvg:element="亻" kvg:variant="true" kvg:original="人" kvg:position="left" kvg:radical="general"><path id="kvg:0513c-s1" kvg:type="㇒" d="M28.95 14.5c.11 1.14.2 2.56-.1 3.96-1.9 8.83-9.25 25.9-18.1 37.87"/><path id="kvg:0513c-s2" kvg:type="㇑" d="M23.45 40.11c.63.66.81 2.11.81 3.46.0 13.96-.31 43.03-.31 52.41"/></g><g id="kvg:0513c-g2" kvg:element="嚴" kvg:position="right"><g id="kvg:0513c-g3" kvg:position="top"><g id="kvg:0513c-g4" kvg:element="口" kvg:position="left"><path id="kvg:0513c-s3" kvg:type="㇑" d="M38.39 16.38c.3.26.61.48.74.8 1.04 2.58 1.84 8.72 2.55 13.35"/><path id="kvg:0513c-s4" kvg:type="㇕b" d="M40.26 18.13c6.13-1.35 14.05-2.34 17.56-2.68 1.28-.12 2.06.74 1.87 1.46-.76 3.02-2.15 5.67-3.28 9.84"/><path id="kvg:0513c-s5" kvg:type="㇐b" d="M42.27 29.26c4.13-.38 10.66-1.55 16.33-2.14"/></g><g id="kvg:0513c-g5" kvg:element="口" kvg:position="right"><path id="kvg:0513c-s6" kvg:type="㇑" d="M67.11 15.49c.3.28.61.51.75.85 1.05 2.74 1.86 7.81 2.58 12.73"/><path id="kvg:0513c-s7" kvg:type="㇕b" d="M69 16.36c7.5-1.37 14.75-2.02 18.3-2.38 1.3-.13 2.08.78 1.89 1.55-.77 3.2-1.72 5.07-2.86 9.49"/><path id="kvg:0513c-s8" kvg:type="㇐b" d="M71.03 27.66c4.17-.41 10.87-1.61 16.6-2.23"/></g></g><g id="kvg:0513c-g6" kvg:position="bottom"><g id="kvg:0513c-g7" kvg:element="厂" kvg:position="tare"><path id="kvg:0513c-s9" kvg:type="㇐" d="M36.55 36.97c1.29.54 3.66.15 4.95.04 15.14-1.26 35.11-3.24 47.92-3.7 2.15-.08 3.44.26 4.52.53"/><path id="kvg:0513c-s10" kvg:type="㇒" d="M39.55 38.24c.04 1.3-.08 3.36-.08 5.24.0 12.17-3.28 39.53-14.16 51.43"/></g><g id="kvg:0513c-g8" kvg:element="敢" kvg:position="tarec"><g id="kvg:0513c-g9" kvg:position="left"><path id="kvg:0513c-s11" kvg:type="㇐" d="M43.31 44.93c.52.16 1.47.21 1.98.16 3.3-.28 13.88-1.62 18.17-2.02.86-.08 1.38.08 1.81.16"/><path id="kvg:0513c-s12" kvg:type="㇑" d="M52.07 44.63c.67.22 1.64 1.27 1.62 1.89-.05 1.96-.05 5.29-.05 7.08"/><g id="kvg:0513c-g10" kvg:element="耳"><path id="kvg:0513c-s13" kvg:type="㇐" d="M41.35 54.68c.6.23 1.71.31 2.31.23 6.81-.83 15.74-2.4 22.38-2.78 1-.06 1.61.11 2.11.23"/><path id="kvg:0513c-s14" kvg:type="㇑a" d="M46.05 57.08c.22.43.56.43.56 1.14s-.11 25.77-.11 28.33"/><path id="kvg:0513c-s15" kvg:type="㇐a" d="M46.92 64.49c2.18.0 10.53-1.71 14.26-1.71"/><path id="kvg:0513c-s16" kvg:type="㇐a" d="M46.7 74.46c2.7.0 10.22-1.57 14.15-1.57"/><path id="kvg:0513c-s17" kvg:type="㇀" d="M40.19 88.34c.19.52 2.09.81 2.75.53 7.29-3.07 13.45-5.78 18.57-8.09"/><path id="kvg:0513c-s18" kvg:type="㇑" d="M60.96 54.8c.22.57.56.43.56 1.14s.11 35.47.11 41.32"/></g></g><g id="kvg:0513c-g11" kvg:element="攵" kvg:variant="true" kvg:original="攴" kvg:position="right"><g id="kvg:0513c-g12" kvg:element="𠂉" kvg:position="top"><path id="kvg:0513c-s19" kvg:type="㇒" d="M76.17 41.68c.02.63.15 1.67-.05 2.54-1.25 5.57-4.06 16.04-8.39 23.75"/><path id="kvg:0513c-s20" kvg:type="㇐" d="M74.97 53.38c.39.09 1.11.09 1.5.09 4.07-.1 10.87-1.82 17.09-1.98.7-.02 1.13.0 1.31.02"/></g><g id="kvg:0513c-g13" kvg:element="乂" kvg:position="bottom"><g id="kvg:0513c-g14" kvg:element="丿"><path id="kvg:0513c-s21" kvg:type="㇒" d="M87.65 55.65c.33.99.6 1.74.16 3.52C83.71 75.9 80.35 86.32 67.4 96.15"/></g><path id="kvg:0513c-s22" kvg:type="㇏" d="M70.88 61.66C73.2 61.9 86.75 86.78 94.4 93.48c1.39 1.22 2.23 1.49 3.35 1.63"/></g></g></g></g></g></g></g><g id="kvg:StrokeNumbers_0513c" style="font-size:8;fill:#808080"><text transform="matrix(1 0 0 1 20.50 14.85)">1</text><text transform="matrix(1 0 0 1 16.50 58.50)">2</text><text transform="matrix(1 0 0 1 33.50 25.50)">3</text><text transform="matrix(1 0 0 1 41.50 14.50)">4</text><text transform="matrix(1 0 0 1 44.50 25.50)">5</text><text transform="matrix(1 0 0 1 62.75 24.25)">6</text><text transform="matrix(1 0 0 1 70.50 12.50)">7</text><text transform="matrix(1 0 0 1 73.50 23.50)">8</text><text transform="matrix(1 0 0 1 35.50 34.50)">9</text><text transform="matrix(1 0 0 1 29.50 45.95)">10</text><text transform="matrix(1 0 0 1 46.75 43.50)">11</text><text transform="matrix(1 0 0 1 56.50 50.80)">12</text><text transform="matrix(1 0 0 1 41.75 52.50)">13</text><text transform="matrix(1 0 0 1 39.50 65.50)">14</text><text transform="matrix(1 0 0 1 48.50 61.50)">15</text><text transform="matrix(1 0 0 1 48.50 72.50)">16</text><text transform="matrix(1 0 0 1 37.50 84.50)">17</text><text transform="matrix(1 0 0 1 63.50 60.50)">18</text><text transform="matrix(1 0 0 1 65.75 43.28)">19</text><text transform="matrix(1 0 0 1 79.50 50.50)">20</text><text transform="matrix(1 0 0 1 78.50 61.13)">21</text><text transform="matrix(1 0 0 1 68.25 74.50)">22</text></g></svg>