<!DOCTYPE svg PUBLIC "-//W3C//DTD SVG 1.0//EN" "http://www.w3.org/TR/2001/REC-SVG-20010904/DTD/svg10.dtd" [
<!ATTLIST g
xmlns:kvg CDATA #FIXED "http://kanjivg.tagaini.net"
kvg:element CDATA #IMPLIED
kvg:variant CDATA #IMPLIED
kvg:partial CDATA #IMPLIED
kvg:original CDATA #IMPLIED
kvg:part CDATA #IMPLIED
kvg:number CDATA #IMPLIED
kvg:tradForm CDATA #IMPLIED
kvg:radicalForm CDATA #IMPLIED
kvg:position CDATA #IMPLIED
kvg:radical CDATA #IMPLIED
kvg:phon CDATA #IMPLIED >
<!ATTLIST path
xmlns:kvg CDATA #FIXED "http://kanjivg.tagaini.net"
kvg:type CDATA #IMPLIED >
]><svg xmlns="http://www.w3.org/2000/svg" width="109" height="109" viewBox="0 0 109 109"><g id="kvg:StrokePaths_05132" style="fill:none;stroke:#000000;stroke-width:3;stroke-linecap:round;stroke-linejoin:round;"><g id="kvg:05132" kvg:element="儲"><g id="kvg:05132-g1" kvg:element="亻" kvg:original="人" kvg:position="left" kvg:radical="general"><path id="kvg:05132-s1" kvg:type="㇒" d="M28.5 16.39c.12 1.16.21 2.61-.11 4.03-2.03 8.99-9.88 26.36-19.34 38.55"/><path id="kvg:05132-s2" kvg:type="㇑" d="M22.03 43c.59.61.76 1.97.76 3.23.0 13.02-.29 44.15-.29 52.9"/></g><g id="kvg:05132-g2" kvg:element="諸" kvg:position="right"><g id="kvg:05132-g3" kvg:element="言" kvg:position="left"><path id="kvg:05132-s3" kvg:type="㇔" d="M39.04 17.5c2.42 1.46 6.25 5.98 6.86 8.25"/><path id="kvg:05132-s4" kvg:type="㇐" d="M30.62 35.58c.56.23 2.67.27 3.23.23 6.86-.42 12.97-2.17 17.96-2.37.93-.04 2.32.11 2.78.23"/><path id="kvg:05132-s5" kvg:type="㇐" d="M34.6 49.06c.34.12 2.39.13 2.73.12 3.49-.14 6.97-1.43 10.49-2.05.55-.1 2.9.06 3.17.12"/><path id="kvg:05132-s6" kvg:type="㇐" d="M34.8 61.33c.3.12 2.13.13 2.44.12 3.12-.13 9.09-2.11 12.17-2.09.5.0 2.58.06 2.83.11"/><g id="kvg:05132-g4" kvg:element="口"><path id="kvg:05132-s7" kvg:type="㇑" d="M32.97 74.32c.31.35.66 1.11.76 1.57.87 4.03 2.09 12.44 2.97 18.36"/><path id="kvg:05132-s8" kvg:type="㇕b" d="M34.09 76.23c5.67-.85 11.97-2.49 17.2-3.36 1.31-.21 2.1.99 1.92 1.98-.78 4.07-1.57 7.36-2.96 14.14"/><path id="kvg:05132-s9" kvg:type="㇐b" d="M36.94 92.2c4.23-.52 9.61-.93 15.42-1.73"/></g></g><g id="kvg:05132-g5" kvg:element="者" kvg:position="right"><g id="kvg:05132-g6" kvg:element="耂" kvg:original="老" kvg:partial="true"><g id="kvg:05132-g7" kvg:element="土"><path id="kvg:05132-s10" kvg:type="㇐" d="M61.45 30.23c.44.31 1.25.35 1.7.31 6.8-.54 12.78-2.89 17.74-3.11.74-.03 1.18.15 1.55.3"/><path id="kvg:05132-s11" kvg:type="㇑a" d="M70.41 11.37c.07.28.95 1.46 1.01 3.23.32 8.53.17 26.07.17 28.97"/><path id="kvg:05132-s12" kvg:type="㇐" d="M57 44.81c.86.38 2.17.65 2.96.57 6.04-.63 30.36-4.31 35.34-4.49 1.29-.04 2.06.27 2.7.56"/></g><path id="kvg:05132-s13" kvg:type="㇒" d="M91.53 21.27c.1.98.03 2.78-.69 3.94-9.25 14.94-17.83 25.62-34.72 39.43"/></g><path id="kvg:05132-s14" kvg:type="㇔" d="M78 48.75c2.05 1.23 5.3 5.05 5.81 6.97"/><g id="kvg:05132-g8" kvg:element="日"><path id="kvg:05132-s15" kvg:type="㇑" d="M67.55 58.92c.29.82.59 1.23.59 2.33.0 1.09-.1 32.66.0 33.75"/><path id="kvg:05132-s16" kvg:type="㇕a" d="M68.63 60.56c1.66-.14 18.42-2.79 19.93-2.96 1.26-.14 2.07 1.56 1.97 2.39-.2 1.69-.39 32.61-.39 33.46"/><path id="kvg:05132-s17" kvg:type="㇐a" d="M68.92 75.37c2.24.0 18-1.95 20.54-1.95"/><path id="kvg:05132-s18" kvg:type="㇐a" d="M68.82 91.93c4.57-.59 14.94-1.18 20.63-1.7"/></g></g></g></g></g><g id="kvg:StrokeNumbers_05132" style="font-size:8;fill:#808080"><text transform="matrix(1 0 0 1 20.50 16.50)">1</text><text transform="matrix(1 0 0 1 16.16 58.50)">2</text><text transform="matrix(1 0 0 1 35.50 14.50)">3</text><text transform="matrix(1 0 0 1 30.50 32.50)">4</text><text transform="matrix(1 0 0 1 27.50 48.50)">5</text><text transform="matrix(1 0 0 1 27.50 62.50)">6</text><text transform="matrix(1 0 0 1 26.50 82.50)">7</text><text transform="matrix(1 0 0 1 36.50 72.50)">8</text><text transform="matrix(1 0 0 1 39.50 88.50)">9</text><text transform="matrix(1 0 0 1 56.25 26.95)">10</text><text transform="matrix(1 0 0 1 62.50 9.50)">11</text><text transform="matrix(1 0 0 1 54.50 42.50)">12</text><text transform="matrix(1 0 0 1 81.50 20.50)">13</text><text transform="matrix(1 0 0 1 82.50 50.50)">14</text><text transform="matrix(1 0 0 1 58.25 71.50)">15</text><text transform="matrix(1 0 0 1 71.50 57.50)">16</text><text transform="matrix(1 0 0 1 71.50 72.50)">17</text><text transform="matrix(1 0 0 1 71.50 88.50)">18</text></g></svg>