<svg xmlns="http://www.w3.org/2000/svg" width="109" height="109" viewBox="0 0 109 109"><g id="kvg:StrokePaths_05137" style="fill:none;stroke:#000000;stroke-width:3;stroke-linecap:round;stroke-linejoin:round;"><g id="kvg:05137" kvg:element="儷"><g id="kvg:05137-g1" kvg:element="亻" kvg:variant="true" kvg:original="人" kvg:position="left" kvg:radical="general"><path id="kvg:05137-s1" kvg:type="㇒" d="M30.46 15c.11 1.04.19 2.35-.1 3.63-1.85 8.09-8.99 23.73-17.61 34.7"/><path id="kvg:05137-s2" kvg:type="㇑" d="M24.45 39.61c.64.66.81 2.12.81 3.48.0 14.02-.31 43.23-.31 52.65"/></g><g id="kvg:05137-g2" kvg:element="麗" kvg:position="right"><g id="kvg:05137-g3" kvg:position="top"><g id="kvg:05137-g4" kvg:position="left"><g id="kvg:05137-g5" kvg:element="一"><path id="kvg:05137-s3" kvg:type="㇐" d="M37.63 15.81c.77.38 2.18.42 2.95.38 4.43-.27 11.85-2.27 16.6-1.83 1.28.12 2.06.18 2.7.37"/></g><path id="kvg:05137-s4" kvg:type="㇑" d="M40.86 24.44c.24.59.48.88.48 1.66s-.08 15.87.0 16.65"/><path id="kvg:05137-s5" kvg:type="㇕" d="M41.74 25.52c1.35-.1 14.53-1.87 15.77-1.98 1.03-.1 1.69 1.08 1.61 1.66-.16 1.17-.32 14.46-.32 15.04"/><path id="kvg:05137-s6" kvg:type="㇔" d="M47.11 31.41c1.92 1.01 4.95 4.17 5.43 5.74"/></g><g id="kvg:05137-g6" kvg:position="right"><g id="kvg:05137-g7" kvg:element="一"><path id="kvg:05137-s7" kvg:type="㇐" d="M66.63 14.35c.77.38 2.18.42 2.95.38 4.43-.27 14.35-2.77 19.1-2.33 1.28.12 2.05.18 2.7.37"/></g><path id="kvg:05137-s8" kvg:type="㇑" d="M68.63 22.97c.24.59.98 1.38.98 2.16s-.08 13.37.0 14.15"/><path id="kvg:05137-s9" kvg:type="㇕" d="M69.51 24.56c1.35-.1 16.26-2.37 17.5-2.48 1.03-.1 1.69 1.08 1.61 1.66-.16 1.17-.32 14.46-.32 15.04"/><path id="kvg:05137-s10" kvg:type="㇔" d="M76.61 30.69c1.92 1.15 4.95 4.71 5.43 6.49"/></g></g><g id="kvg:05137-g8" kvg:element="鹿" kvg:position="bottom"><g id="kvg:05137-g9" kvg:element="广"><path id="kvg:05137-s11" kvg:type="㇑a" d="M62.77 39.18c.57.27 1.77 1.98 1.89 2.51.11.53.06 2.51-.06 5.82"/><g id="kvg:05137-g10" kvg:element="厂"><path id="kvg:05137-s12" kvg:type="㇐" d="M38.93 49.23c1.23.37 3.48.43 4.71.37 12.79-.62 34.28-3.17 45.59-3.89 2.04-.13 3.28.18 4.3.36"/><path id="kvg:05137-s13" kvg:type="㇒" d="M43.21 50.1c.03 1.09.06 2.82-.06 4.39-.72 9.26-2.34 31.72-10.09 41.69"/></g></g><path id="kvg:05137-s14" kvg:type="㇕" d="M46.8 59.02c1.5.43 2.78.72 4.33.55 10.74-1.2 31.94-3.39 34.95-3.57 2.25-.14 3.06 1.16 2.65 2.71-.76 2.85-1.76 6.55-2.78 9.61"/><path id="kvg:05137-s15" kvg:type="㇑" d="M58.79 52.46c.66.29 1.05 1.78 1.19 2.35.13.57.38 9.94.38 14.43"/><path id="kvg:05137-s16" kvg:type="㇑" d="M73.5 51.8c.66.29 1.23 1.76 1.19 2.35-.17 2.55-.19 8.61-.35 14.39"/><path id="kvg:05137-s17" kvg:type="㇐" d="M47.76 71.04c.7.26 2 .33 2.7.26 4.49-.45 29.36-3.6 34.4-3.51 1.17.02 1.88.12 2.47.26"/><g id="kvg:05137-g11" kvg:element="比"><path id="kvg:05137-s18" kvg:type="㇐" d="M51.86 82.27c3.73-.2 8.03-1.4 11.28-1.74.95-.1 1.56-.1 2.05-.04"/><path id="kvg:05137-s19" kvg:type="㇙" d="M50.23 76.27c.67.36 1.25 1.43 1.25 1.93.0 1.34-.21 14.21-.21 15.91.0 1.89 1.36 1.61 2.7 1.01 3.5-1.55 5.95-2.81 10.16-5.27"/><g id="kvg:05137-g12" kvg:element="匕"><path id="kvg:05137-s20" kvg:type="㇀" d="M89.75 75.34c-.25.91-.5 1.41-1.35 2.14-1.83 1.59-8.55 6.15-13.82 8.17"/><path id="kvg:05137-s21" kvg:type="㇟" d="M73.46 73.38c.73.36 1 1.12 1 2.02.0 1.19-.06 13.2-.08 14.6-.08 5.1 2.51 6.09 11.16 6.09 8.09.0 11.49-.53 11.49-4.93"/></g></g></g></g></g></g></svg>