<svg xmlns="http://www.w3.org/2000/svg" width="109" height="109" viewBox="0 0 109 109"><g id="kvg:StrokePaths_05152"><g id="kvg:05152" kvg:element="兒"><g id="kvg:05152-g1" kvg:element="臼" kvg:position="top" kvg:radical="nelson"><path id="kvg:05152-s1" kvg:type="㇒" d="M49.17 13.46c.05.21-.78 1.62-1.1 1.85-4.35 3.03-8.32 5.94-18.85 9.87"/><path id="kvg:05152-s2" kvg:type="㇑" d="M27.08 24.3c.84.64 1.18 2.06 1.39 3.36.76 4.77 3.15 21.39 3.91 27.84"/><path id="kvg:05152-s3" kvg:type="㇐" d="M30.66 37.34c4.46-.62 16.76-3.1 17.82-3.1s2.55.0 3.4.0"/><path id="kvg:05152-s4" kvg:type="㇕" d="M59.49 18.49c.98.15 1.77.43 3.15.43s15.47-1.74 17.05-1.88 3.48.94 3.26 2.59c-1.21 9.11-2.76 23.64-3.94 30.59-.17 1.01.0 1.59-.2 2.17"/><path id="kvg:05152-s5" kvg:type="㇐" d="M58.89 32.49c.99.14 1.78.43 3.16.43 1.38.0 17.58-1.66 19.15-1.8"/><path id="kvg:05152-s6" kvg:type="㇐" d="M32.57 53.04c4.93-.29 42.5-3.38 45.45-3.53"/></g><g id="kvg:05152-g2" kvg:element="儿" kvg:position="bottom" kvg:radical="tradit"><g id="kvg:05152-g3" kvg:element="八" kvg:variant="true"><g id="kvg:05152-g4" kvg:element="丿" kvg:position="left"><path id="kvg:05152-s7" kvg:type="㇒" d="M44.5 58.75c.07.89.14 2.31-.13 3.59-1.61 7.56-10.08 25.61-23.45 34.33"/></g><g id="kvg:05152-g5" kvg:position="right"><path id="kvg:05152-s8" kvg:type="㇟" d="M58.99 54.62c.74 1.19 1.33 2.59 1.38 4.43.2 8.19.16 20.14-.03 25.7C60 94.75 63.25 96.28 78 96.28c15.5.0 16.39-2.28 16.39-9.12"/></g></g></g></g></g></svg>