<svg xmlns="http://www.w3.org/2000/svg" width="109" height="109" viewBox="0 0 109 109"><g id="kvg:StrokePaths_0516a" style="fill:none;stroke:#000000;stroke-width:3;stroke-linecap:round;stroke-linejoin:round;"><g id="kvg:0516a" kvg:element="兪"><g id="kvg:0516a-g1" kvg:element="入" kvg:position="top" kvg:radical="general"><path id="kvg:0516a-s1" kvg:type="㇒" d="M50.75 9.75c.11 1.02.41 2.7-.21 4.09C46.75 22.25 33.75 41.5 13 53"/><path id="kvg:0516a-s2" kvg:type="㇏" d="M51.5 12.86c5.63 6.2 29.88 26.44 36.08 30.98 2.11 1.54 4.81 2.2 6.92 2.64"/></g><g id="kvg:0516a-g2" kvg:position="bottom"><g id="kvg:0516a-g3" kvg:element="一"><path id="kvg:0516a-s3" kvg:type="㇐" d="M38.25 40.89c.64.26 1.81.33 2.45.26 4.07-.45 21.88-3.44 25.82-3.14 1.06.08 1.7.12 2.24.25"/></g><g id="kvg:0516a-g4" kvg:element="月" kvg:variant="true"><path id="kvg:0516a-s4" kvg:type="㇑" d="M22.25 54.75c.75 1 1.25 2 1.5 3S24.1 95.25 24 97.5"/><path id="kvg:0516a-s5" kvg:type="㇆" d="M25.25 55.69c1.67-.14 17.01-2.55 18.25-2.71 2.23-.28 3.07 1.85 2.79 2.71-.27.82-.42 27.06-.42 38.6.0 10.21-4.34 1.56-5.74.28"/><path id="kvg:0516a-s6" kvg:type="㇔" d="M29.52 62.58c3.46.91 8.93 3.72 9.79 5.13"/><path id="kvg:0516a-s7" kvg:type="㇔" d="M30.02 76.58c3.37 1.39 8.7 5.72 9.54 7.88"/></g><g id="kvg:0516a-g5" kvg:element="刂" kvg:variant="true" kvg:original="刀"><path id="kvg:0516a-s8" kvg:type="㇛" d="M64.87 50.12c.38 1.13 1.45 3.08.88 4.63C64 59.5 60 66 54.73 71.68c-1.45 1.56-.02 2.55.38 2.87 6.4 5.2 9.4 10.7 13.4 21.45"/><path id="kvg:0516a-s9" kvg:type="㇛" d="M81.87 48.87c.38 1.13 1.45 3.08.88 4.63C81 58.25 77.5 64.75 72.23 70.43c-1.45 1.56-.02 2.55.38 2.87 6.4 5.2 9.9 12.2 13.9 22.95"/></g></g></g></g></svg>