<!DOCTYPE svg PUBLIC "-//W3C//DTD SVG 1.0//EN" "http://www.w3.org/TR/2001/REC-SVG-20010904/DTD/svg10.dtd" [
<!ATTLIST g
xmlns:kvg CDATA #FIXED "http://kanjivg.tagaini.net"
kvg:element CDATA #IMPLIED
kvg:variant CDATA #IMPLIED
kvg:partial CDATA #IMPLIED
kvg:original CDATA #IMPLIED
kvg:part CDATA #IMPLIED
kvg:number CDATA #IMPLIED
kvg:tradForm CDATA #IMPLIED
kvg:radicalForm CDATA #IMPLIED
kvg:position CDATA #IMPLIED
kvg:radical CDATA #IMPLIED
kvg:phon CDATA #IMPLIED >
<!ATTLIST path
xmlns:kvg CDATA #FIXED "http://kanjivg.tagaini.net"
kvg:type CDATA #IMPLIED >
]><svg xmlns="http://www.w3.org/2000/svg" width="109" height="109" viewBox="0 0 109 109"><g id="kvg:StrokePaths_05168" style="fill:none;stroke:#000000;stroke-width:3;stroke-linecap:round;stroke-linejoin:round;"><g id="kvg:05168" kvg:element="全"><g id="kvg:05168-g1" kvg:element="人" kvg:position="top" kvg:radical="general"><path id="kvg:05168-s1" kvg:type="㇒" d="M51 12c.1 1.1-.11 2.9-.71 4.42C46.54 25.91 34.42 46.29 13.88 59"/><path id="kvg:05168-s2" kvg:type="㇏" d="M51.25 17.13c6.01 5.71 24.37 23.52 33.03 31.21 3.08 2.73 4.85 3.78 9.22 5.5"/></g><g id="kvg:05168-g2" kvg:element="王" kvg:original="玉" kvg:partial="true" kvg:position="bottom"><path id="kvg:05168-s3" kvg:type="㇐" d="M32.17 53.79c1.95.59 4.65.47 6.45.26 6.04-.71 17.52-2.14 26.01-2.69 2.11-.13 4.5-.12 6.32.33"/><path id="kvg:05168-s4" kvg:type="㇑a" d="M50.91 54.99c.92.92 1.4 2.3 1.4 3.2.0 6.3-.02 24.06-.02 31.65"/><path id="kvg:05168-s5" kvg:type="㇐" d="M33.45 71.93c1.84.57 3.93.31 5.81.12 8.21-.8 16.37-1.4 24.75-2.14 2.07-.18 4.23-.46 6.27.12"/><path id="kvg:05168-s6" kvg:type="㇐" d="M20.48 92.76c1.91.49 4.89.79 8.3.5 13.59-1.14 33.47-2.89 50.39-3.45 2.86-.09 6.3.23 7.73.68"/></g></g></g><g id="kvg:StrokeNumbers_05168" style="font-size:8;fill:#808080"><text transform="matrix(1 0 0 1 43.50 12.50)">1</text><text transform="matrix(1 0 0 1 59.50 22.50)">2</text><text transform="matrix(1 0 0 1 37.50 50.50)">3</text><text transform="matrix(1 0 0 1 44.25 63.13)">4</text><text transform="matrix(1 0 0 1 26.50 73.63)">5</text><text transform="matrix(1 0 0 1 12.75 94.63)">6</text></g></svg>