<svg xmlns="http://www.w3.org/2000/svg" width="109" height="109" viewBox="0 0 109 109"><g id="kvg:StrokePaths_0517c" style="fill:none;stroke:#000000;stroke-width:3;stroke-linecap:round;stroke-linejoin:round;"><g id="kvg:0517c" kvg:element="兼"><g id="kvg:0517c-g1" kvg:element="八" kvg:variant="true" kvg:position="top" kvg:radical="general"><g id="kvg:0517c-g2" kvg:position="left"><path id="kvg:0517c-s1" kvg:type="㇔" d="M33.62 11c3.48 2.11 9 8.69 9.87 11.98"/></g><g id="kvg:0517c-g3" kvg:position="right"><path id="kvg:0517c-s2" kvg:type="㇒" d="M70.1 11.14c.08.83-.03 1.63-.33 2.4-1.64 3.08-3.27 5.83-8.12 10.17"/></g></g><g id="kvg:0517c-g4" kvg:position="bottom"><path id="kvg:0517c-s3" kvg:type="㇐" d="M31 29.15c2.5.6 4.69.38 6.87.09 9.5-1.24 24.38-3.62 36.39-4.46 2.32-.16 4.45-.16 6.73.34"/><g id="kvg:0517c-g5" kvg:element="⺕" kvg:variant="true" kvg:original="彑"><path id="kvg:0517c-s4" kvg:type="㇕c" d="M27.5 40.75c3.12 1 4.64 1.02 7.38.68 11.53-1.41 27.27-3.43 37.85-4.26 2.97-.23 6.05.14 5.27 4.08-1.31 6.54-2.12 13.5-2.75 20"/><path id="kvg:0517c-s5" kvg:type="㇐" d="M14.75 53.75c3.88.88 6.34.78 9.99.38 21.76-2.38 46.46-4.39 63.01-5.24 3.2-.16 6.11-.02 9.25.61"/><path id="kvg:0517c-s6" kvg:type="㇐" d="M29 65.18c2.69.33 5.16.47 7.87.28 11.9-.83 22.63-2.21 33.88-3.04 2.2-.16 4.54-.39 6.75-.16"/></g><g id="kvg:0517c-g6" kvg:element="丨"><path id="kvg:0517c-s7" kvg:type="㇑" d="M44.62 31c1.06 1.06 1.46 2.62 1.46 3.75.0.72.02 41.51.03 57.62.0 3.13.0 5.33.0 6.12"/></g><g id="kvg:0517c-g7" kvg:element="丨"><path id="kvg:0517c-s8" kvg:type="㇑" d="M59.37 28c1 1 1.46 2.25 1.46 3.75.0 2.78.04 41.83.04 58.5.0 4.28.0 7.04-.01 7.25"/></g><path id="kvg:0517c-s9" kvg:type="㇒" d="M44.75 65.75c0 .88-.71 2.3-1.44 3.24C37.05 77.05 24.92 87 15 91.25"/><path id="kvg:0517c-s10" kvg:type="㇏" d="M62.12 64.38c3.37 2.93 15.62 15.09 22.5 21.16 2.19 1.93 4.63 3.84 7.5 4.97"/></g></g></g></svg>