<!DOCTYPE svg PUBLIC "-//W3C//DTD SVG 1.0//EN" "http://www.w3.org/TR/2001/REC-SVG-20010904/DTD/svg10.dtd" [
<!ATTLIST g
xmlns:kvg CDATA #FIXED "http://kanjivg.tagaini.net"
kvg:element CDATA #IMPLIED
kvg:variant CDATA #IMPLIED
kvg:partial CDATA #IMPLIED
kvg:original CDATA #IMPLIED
kvg:part CDATA #IMPLIED
kvg:number CDATA #IMPLIED
kvg:tradForm CDATA #IMPLIED
kvg:radicalForm CDATA #IMPLIED
kvg:position CDATA #IMPLIED
kvg:radical CDATA #IMPLIED
kvg:phon CDATA #IMPLIED >
<!ATTLIST path
xmlns:kvg CDATA #FIXED "http://kanjivg.tagaini.net"
kvg:type CDATA #IMPLIED >
]><svg xmlns="http://www.w3.org/2000/svg" width="109" height="109" viewBox="0 0 109 109"><g id="kvg:StrokePaths_0518c" style="fill:none;stroke:#000000;stroke-width:3;stroke-linecap:round;stroke-linejoin:round;"><g id="kvg:0518c" kvg:element="册"><g id="kvg:0518c-g1" kvg:element="冂" kvg:variant="true" kvg:radical="tradit"><g id="kvg:0518c-g2" kvg:element="丿" kvg:radical="nelson"><path id="kvg:0518c-s1" kvg:type="㇒" d="M27.25 19.25c.75 1 1.25 2 1.5 3S29 40.25 29 51.5C29 71 24.5 88.75 17.75 96"/></g><path id="kvg:0518c-s2" kvg:type="㇆" d="M29 21.69c2.55-.24 13.2-2.41 15.1-2.69 3.4-.49 3.4 2.12 3.4 3.66.0 8.31-.64 45.78-.64 64 0 12.7-5.1 4.4-7.23 2.2"/></g><g id="kvg:0518c-g3" kvg:element="冂" kvg:radical="tradit"><path id="kvg:0518c-s3" kvg:type="㇑" d="M60.52 16.25c.63 1.04 1.06 2.07 1.27 3.11C62 20.39 62 45.27 62 52.26 62 67.5 61 87 52.5 95.25"/><path id="kvg:0518c-s4" kvg:type="㇆a" d="M61.75 18.25c3-.25 13.02-2.47 15.25-2.75 4-.5 4 2.17 4 3.75.0 8.5-.25 48.85-.25 67.5.0 13-4.5 6-7 3.75"/></g><g id="kvg:0518c-g4" kvg:element="一"><path id="kvg:0518c-s5" kvg:type="㇐" d="M13.25 53.18c1.78.56 5.04.66 6.82.56 9.88-.51 50.9-6.49 70.45-6.48 2.97.0 4.75.27 6.23.55"/></g></g></g><g id="kvg:StrokeNumbers_0518c" style="font-size:8;fill:#808080"><text transform="matrix(1 0 0 1 20.50 24.50)">1</text><text transform="matrix(1 0 0 1 31.50 16.50)">2</text><text transform="matrix(1 0 0 1 54.50 24.50)">3</text><text transform="matrix(1 0 0 1 62.50 14.50)">4</text><text transform="matrix(1 0 0 1 9.50 49.33)">5</text></g></svg>