<svg xmlns="http://www.w3.org/2000/svg" width="109" height="109" viewBox="0 0 109 109"><g id="kvg:StrokePaths_0518a"><g id="kvg:0518a" kvg:element="冊"><g id="kvg:0518a-g1" kvg:element="冂" kvg:radical="tradit"><g id="kvg:0518a-g2" kvg:element="丨" kvg:radical="nelson"><path id="kvg:0518a-s1" kvg:type="㇑" d="M27.19 18.64c.84.83 1.53 2.36 1.53 4.53.0 2.26-.04 48.62-.05 65.7.0 3.36.0 5.59.0 6.12"/></g><path id="kvg:0518a-s2" kvg:type="㇆a" d="M29.71 21.29c7.38-.96 41.79-4.54 48.31-5.3 3.17-.37 5.05.76 5.05 4.13.0 2.01-.58 61.86-.58 67.38.0 8.88-4.41 3.16-6.88.69"/></g><g id="kvg:0518a-g3" kvg:element="廾" kvg:variant="true"><g id="kvg:0518a-g4" kvg:element="丿" kvg:variant="true"><path id="kvg:0518a-s3" kvg:type="㇑" d="M45.37 22.5c.81.81 1.21 2.25 1.21 3.5.0.69.05 43.47.04 59.25.0 3.4.0 5.55-.01 5.75"/></g><g id="kvg:0518a-g5" kvg:element="十" kvg:variant="true"><path id="kvg:0518a-s4" kvg:type="㇑" d="M62.12 20.5c.75.75 1.21 1.75 1.21 3.25.0 2.65.05 44.8.04 61 0 3.7.0 6.04-.01 6.25"/><path id="kvg:0518a-s5" kvg:type="㇐" d="M12.5 53.45c3.02 1.08 7.1.72 10.25.43 16-1.5 45-3.38 66.87-4.03 2.67-.08 5.75.14 8.38.7"/></g></g></g></g></svg>