<svg xmlns="http://www.w3.org/2000/svg" width="109" height="109" viewBox="0 0 109 109"><g id="kvg:StrokePaths_05185"><g id="kvg:05185" kvg:element="内"><g id="kvg:05185-g1" kvg:element="冂" kvg:radical="tradit"><g id="kvg:05185-g2" kvg:element="丨" kvg:radical="nelson"><path id="kvg:05185-s1" kvg:type="㇑" d="M22.54 33.27c.96 1.3 1.27 2.79 1.27 5.15.0 4.81-.05 33.43.03 47.33.02 3.68.04 6.29.04 7.11"/></g><path id="kvg:05185-s2" kvg:type="㇆a" d="M24.5 35.25c15.76-1.46 57.65-5.15 59.14-5.15 3.11.0 5.42 1.9 5.42 6.05.0 1.91-.93 42.61-1.51 54.43-.51 10.41-6.79 2.92-9.19.54"/></g><g id="kvg:05185-g3" kvg:element="人"><path id="kvg:05185-s3" kvg:type="㇒" d="M53.71 11.88c.77.76 1.65 2.41 1.64 4.49C55.25 36.5 50.5 59.5 29.64 72.9"/><path id="kvg:05185-s4" kvg:type="㇔/㇏" d="M55.5 45.5c7.7 3.74 19.88 15.39 21.81 21.22"/></g></g></g></svg>