<svg xmlns="http://www.w3.org/2000/svg" width="109" height="109" viewBox="0 0 109 109"><g id="kvg:StrokePaths_0518d" style="fill:none;stroke:#000000;stroke-width:3;stroke-linecap:round;stroke-linejoin:round;"><g id="kvg:0518d" kvg:element="再"><g id="kvg:0518d-g1" kvg:element="一" kvg:radical="nelson"><path id="kvg:0518d-s1" kvg:type="㇐" d="M20.75 17.62c2.88.5 5.66.36 8.25.18 10.51-.74 34.77-3.08 47.88-3.68C79.6 14 82.32 14.06 85 14.64"/></g><g id="kvg:0518d-g2" kvg:element="冉"><g id="kvg:0518d-g3" kvg:element="冂" kvg:radical="tradit"><path id="kvg:0518d-s2" kvg:type="㇑" d="M27.95 33.19c.87.87 1.71 2.61 1.71 4.6.0 5.59.06 36.62.14 51.96.02 3.76.03 3.62.03 7"/><path id="kvg:0518d-s3" kvg:type="㇆a" d="M30.4 35.14c6.16-.81 29.91-3.74 40.97-4.9 4.95-.52 6.69-.16 6.69 5 0 12.41-.03 49.71-.03 57.99.0 8.16-5.29 3.01-7.62 1.32"/></g><g id="kvg:0518d-g4" kvg:element="土" kvg:variant="true"><path id="kvg:0518d-s4" kvg:type="㇑a" d="M51.92 19.12c.73.73 1.27 2.51 1.27 3.89.0 12-.07 29.38-.07 45.12"/><path id="kvg:0518d-s5" kvg:type="㇐a" d="M30.64 52.05c13.11-1.05 29.86-2.67 46.3-3.38"/><path id="kvg:0518d-s6" kvg:type="㇐" d="M11.88 71.73c3.87.77 6.97.77 10.25.43 18.58-1.95 45.25-4.28 63.62-4.88 3.43-.11 8.25.07 11.63.79"/></g></g></g></g></svg>