<!DOCTYPE svg PUBLIC "-//W3C//DTD SVG 1.0//EN" "http://www.w3.org/TR/2001/REC-SVG-20010904/DTD/svg10.dtd" [
<!ATTLIST g
xmlns:kvg CDATA #FIXED "http://kanjivg.tagaini.net"
kvg:element CDATA #IMPLIED
kvg:variant CDATA #IMPLIED
kvg:partial CDATA #IMPLIED
kvg:original CDATA #IMPLIED
kvg:part CDATA #IMPLIED
kvg:number CDATA #IMPLIED
kvg:tradForm CDATA #IMPLIED
kvg:radicalForm CDATA #IMPLIED
kvg:position CDATA #IMPLIED
kvg:radical CDATA #IMPLIED
kvg:phon CDATA #IMPLIED >
<!ATTLIST path
xmlns:kvg CDATA #FIXED "http://kanjivg.tagaini.net"
kvg:type CDATA #IMPLIED >
]><svg xmlns="http://www.w3.org/2000/svg" width="109" height="109" viewBox="0 0 109 109"><g id="kvg:StrokePaths_051b3" style="fill:none;stroke:#000000;stroke-width:3;stroke-linecap:round;stroke-linejoin:round;"><g id="kvg:051b3" kvg:element="决"><g id="kvg:051b3-g1" kvg:element="冫" kvg:original="水" kvg:position="left" kvg:radical="general"><g id="kvg:051b3-g2" kvg:position="top"><path id="kvg:051b3-s1" kvg:type="㇔" d="M14.25 23.5c3.62 1.41 9.34 5.8 10.25 8"/></g><g id="kvg:051b3-g3" kvg:position="bottom"><path id="kvg:051b3-s2" kvg:type="㇀" d="M12.75 81.71c1.5 1.31 3.31 1.36 4.25-.25C19.75 76.75 22.5 71 25 65"/></g></g><g id="kvg:051b3-g4" kvg:element="夬" kvg:position="right"><path id="kvg:051b3-s3" kvg:type="㇕c" d="M41.55 37.57c1.41.72 3.05.86 5.17.71C50.5 38 75.7 34.85 78.5 34.42c4.7-.72 4.33 2.19 3.74 6.33-.5 3.5-1 7-2.75 13.5"/><g id="kvg:051b3-g5" kvg:element="大"><path id="kvg:051b3-s4" kvg:type="㇐" d="M36.12 58.03c.91.42 3.24.66 4.24.59 11.63-.87 33.76-4.54 49.04-4.94 1.26-.03 3.05.16 5.87.89"/><g id="kvg:051b3-g6" kvg:element="人"><path id="kvg:051b3-s5" kvg:type="㇒" d="M59.66 14.5c.59 1 1.7 2.08 1.7 4.17.0 8.89-.06 9.37.05 16.09C61.85 61.78 54 84.75 34.5 95.75"/><path id="kvg:051b3-s6" kvg:type="㇏" d="M59.56 56.96c8.17 9.1 24.78 28.47 32.94 34.56 2.77 2.07 3.74 2.38 5 2.58"/></g></g></g></g></g><g id="kvg:StrokeNumbers_051b3" style="font-size:8;fill:#808080"><text transform="matrix(1 0 0 1 7.50 23.50)">1</text><text transform="matrix(1 0 0 1 5.50 84.50)">2</text><text transform="matrix(1 0 0 1 34.50 37.50)">3</text><text transform="matrix(1 0 0 1 33.50 54.50)">4</text><text transform="matrix(1 0 0 1 51.50 14.50)">5</text><text transform="matrix(1 0 0 1 70.50 65.50)">6</text></g></svg>