<svg xmlns="http://www.w3.org/2000/svg" width="109" height="109" viewBox="0 0 109 109"><g id="kvg:StrokePaths_051b0" style="fill:none;stroke:#000000;stroke-width:3;stroke-linecap:round;stroke-linejoin:round;"><g id="kvg:051b0" kvg:element="冰"><g id="kvg:051b0-g1" kvg:element="冫" kvg:original="氷" kvg:position="left" kvg:radical="general"><g id="kvg:051b0-g2" kvg:position="top"><path id="kvg:051b0-s1" kvg:type="㇔" d="M13.79 22.25c3.99 2.45 10.3 10.09 11.29 13.91"/></g><g id="kvg:051b0-g3" kvg:position="bottom"><path id="kvg:051b0-s2" kvg:type="㇀" d="M11.48 86.17c1.77.83 2.94.73 4.13-1C16.77 83.49 24 71 28.27 61.67"/></g></g><g id="kvg:051b0-g4" kvg:element="水" kvg:position="right"><path id="kvg:051b0-s3" kvg:type="㇚" d="M60.4 11.58c.95.92 1.61 2.49 1.69 5.52.39 14.55-.25 69.66-.25 74.62.0 9.78-7.22.03-8.67-1.22"/><path id="kvg:051b0-s4" kvg:type="㇇" d="M31 45.25c1.44.25 3.07.8 4.57.5C39.25 45 47.87 42 50.27 41s4.3.74 3.6 3c-3.21 10.5-14.04 31.5-22.94 37.25"/><path id="kvg:051b0-s5" kvg:type="㇒" d="M86.76 30c.1.5-.2 1.94-.58 2.59C82.58 38.73 74.95 46.3 68.46 49.5"/><path id="kvg:051b0-s6" kvg:type="㇏" d="M62.47 45.5c7.72 11.35 20.67 26.67 29.31 33.21 1.82 1.38 3.55 2.07 5.22 2.54"/></g></g></g></svg>