<svg xmlns="http://www.w3.org/2000/svg" width="109" height="109" viewBox="0 0 109 109"><g id="kvg:StrokePaths_051c9"><g id="kvg:051c9" kvg:element="凉"><g id="kvg:051c9-g1" kvg:element="冫" kvg:original="氷" kvg:position="left" kvg:radical="general"><g id="kvg:051c9-g2" kvg:position="top"><path id="kvg:051c9-s1" kvg:type="㇔" d="M16.79 18.25c4.87 1.75 12.58 7.19 13.79 9.91"/></g><g id="kvg:051c9-g3" kvg:position="bottom"><path id="kvg:051c9-s2" kvg:type="㇀" d="M14.48 84.17c2.02.58 3.31.14 4.63-1.5 3.39-4.17 8.39-13.17 14.16-23"/></g></g><g id="kvg:051c9-g4" kvg:element="京" kvg:position="right"><g id="kvg:051c9-g5" kvg:element="亠" kvg:position="top"><path id="kvg:051c9-s3" kvg:type="㇑a" d="M64.15 9.92c.99.58 2.62 2.86 2.62 4.06.0 4.42-.12 6.52-.12 10.57"/><path id="kvg:051c9-s4" kvg:type="㇐" d="M38 27c1.21.07 3.97.48 5.16.39C55 26.5 79.9 22.5 91.26 22.09c2-.07 3.02-.04 4.51.56"/></g><g id="kvg:051c9-g6" kvg:position="bottom"><g id="kvg:051c9-g7" kvg:element="口"><path id="kvg:051c9-s5" kvg:type="㇑" d="M46.61 39.32c.56.39 1.27.67 1.39 1.2.85 3.82 2.03 11.74 3.28 18.98"/><path id="kvg:051c9-s6" kvg:type="㇕b" d="M48.47 41.11c8.49-1.49 29.03-3.5 34.8-4.11 2.39-.25 4.1 1.58 3.14 4.5-1.07 3.25-1.86 8.75-3.35 13.25"/><path id="kvg:051c9-s7" kvg:type="㇐b" d="M51.67 58.03C61.25 57.25 75 55.5 85.47 55"/></g><g id="kvg:051c9-g8" kvg:element="小"><path id="kvg:051c9-s8" kvg:type="㇚" d="M66.42 59.33c.08.5 1.5 2.61 1.63 5.78.21 5.13-.23 24.23-.23 28.65.0 9.47-6.47.52-7.82-.79"/><path id="kvg:051c9-s9" kvg:type="㇒" d="M50.7 70c.04.46.08 1.19-.08 1.85C49.7 75.74 44.5 83 37.14 89.5"/><path id="kvg:051c9-s10" kvg:type="㇔" d="M81.76 69.25C87.13 73.04 94.55 83.6 95.9 89.5"/></g></g></g></g></g></svg>