<!DOCTYPE svg PUBLIC "-//W3C//DTD SVG 1.0//EN" "http://www.w3.org/TR/2001/REC-SVG-20010904/DTD/svg10.dtd" [
<!ATTLIST g
xmlns:kvg CDATA #FIXED "http://kanjivg.tagaini.net"
kvg:element CDATA #IMPLIED
kvg:variant CDATA #IMPLIED
kvg:partial CDATA #IMPLIED
kvg:original CDATA #IMPLIED
kvg:part CDATA #IMPLIED
kvg:number CDATA #IMPLIED
kvg:tradForm CDATA #IMPLIED
kvg:radicalForm CDATA #IMPLIED
kvg:position CDATA #IMPLIED
kvg:radical CDATA #IMPLIED
kvg:phon CDATA #IMPLIED >
<!ATTLIST path
xmlns:kvg CDATA #FIXED "http://kanjivg.tagaini.net"
kvg:type CDATA #IMPLIED >
]><svg xmlns="http://www.w3.org/2000/svg" width="109" height="109" viewBox="0 0 109 109"><g id="kvg:StrokePaths_051dc" style="fill:none;stroke:#000000;stroke-width:3;stroke-linecap:round;stroke-linejoin:round;"><g id="kvg:051dc" kvg:element="凜"><g id="kvg:051dc-g1" kvg:element="冫" kvg:original="氷" kvg:position="left" kvg:radical="general"><g id="kvg:051dc-g2" kvg:position="top"><path id="kvg:051dc-s1" kvg:type="㇔" d="M15.54 22.25c3.37 1.84 8.7 7.55 9.54 10.41"/></g><g id="kvg:051dc-g3" kvg:position="bottom"><path id="kvg:051dc-s2" kvg:type="㇀" d="M12.98 80.32c2.02 1.05 3.38.11 4.56-1.75 1.15-1.8 7.77-13.67 11.99-23.66"/></g></g><g id="kvg:051dc-g4" kvg:element="稟" kvg:position="right"><g id="kvg:051dc-g5" kvg:element="㐭" kvg:position="top"><g id="kvg:051dc-g6" kvg:element="亠" kvg:position="top"><path id="kvg:051dc-s3" kvg:type="㇑a" d="M60.89 9.5c1.18 1.18 1.3 2.25 1.3 3.87.0 3.07-.07 3.45-.07 6.01"/><path id="kvg:051dc-s4" kvg:type="㇐" d="M34.42 21.21c3.57.7 7.01.64 10.6.32 11.49-1.03 26.45-2.15 37.86-2.75 3.33-.18 6.52-.63 9.71.56"/></g><g id="kvg:051dc-g7" kvg:element="回" kvg:position="bottom"><g id="kvg:051dc-g8" kvg:element="囗" kvg:part="1"><path id="kvg:051dc-s5" kvg:type="㇑" d="M41.62 29.12c.95 1 1.2 2.12 1.4 3.35.72 4.33 1.62 10.71 2.53 18.02.23 1.87.46 3.79.69 5.76"/><path id="kvg:051dc-s6" kvg:type="㇕a" d="M43.49 30.86c11.8-1.13 32.21-3.29 41.27-3.57 3.47-.11 4.59 1.45 4.05 4.64-.74 4.4-1.85 9.73-3.06 15.25-.39 1.77-.79 3.56-1.19 5.34"/></g><g id="kvg:051dc-g9" kvg:element="口"><path id="kvg:051dc-s7" kvg:type="㇑" d="M53.52 37.05c.59.59.86 1.2 1.07 1.96.37 1.37.81 3.41 1.19 5.36.27 1.37.51 2.69.7 3.69"/><path id="kvg:051dc-s8" kvg:type="㇕b" d="M55.15 38.25c3.65-.52 12.12-1.7 16-2.11 1.76-.19 3 .07 2.56 2.01-.41 1.84-.88 3.44-1.46 5.68"/><path id="kvg:051dc-s9" kvg:type="㇐b" d="M57.39 46.4c2-.31 8.4-.96 13-1.42 1.62-.16 3.01-.31 3.9-.41"/></g><g id="kvg:051dc-g10" kvg:element="囗" kvg:part="2"><path id="kvg:051dc-s10" kvg:type="㇐a" d="M47.09 54.73c11.79-1.36 26.23-2.82 37.03-3.41"/></g></g></g><g id="kvg:051dc-g11" kvg:element="禾" kvg:position="bottom"><g id="kvg:051dc-g12" kvg:element="丿" kvg:position="top"><path id="kvg:051dc-s11" kvg:type="㇒" d="M79.03 55c0 1.19-1.31 1.86-2.21 2.35-4.75 2.59-16.33 6.02-34.44 9.35"/></g><g id="kvg:051dc-g13" kvg:element="木" kvg:position="bottom"><path id="kvg:051dc-s12" kvg:type="㇐" d="M34.32 72.94c3.43 1.44 6.46.77 9.66.37 9.92-1.23 29.12-3.38 40.9-4.49 3.49-.33 6.95-.89 10.34.27"/><path id="kvg:051dc-s13" kvg:type="㇑" d="M63.15 64.98c.81.81 1.06 1.77 1.06 3.13.0 3.54-.04 14.27-.07 22.02-.01 2.96-.02 5.48-.02 7"/><path id="kvg:051dc-s14" kvg:type="㇒" d="M61.25 72.01c0 .87-.85 2.48-2.01 3.71-6.88 7.35-16.46 14.33-27.11 18.96"/><path id="kvg:051dc-s15" kvg:type="㇏" d="M64.86 72.61c2.99 2.33 13.84 11.16 20.35 16.18 2.29 1.76 4.71 3.11 7.29 4.38"/></g></g></g></g></g><g id="kvg:StrokeNumbers_051dc" style="font-size:8;fill:#808080"><text transform="matrix(1 0 0 1 6.60 19.60)">1</text><text transform="matrix(1 0 0 1 2.41 85.60)">2</text><text transform="matrix(1 0 0 1 52.00 9.48)">3</text><text transform="matrix(1 0 0 1 32.25 17.15)">4</text><text transform="matrix(1 0 0 1 35.25 37.25)">5</text><text transform="matrix(1 0 0 1 46.25 28.50)">6</text><text transform="matrix(1 0 0 1 49.25 42.25)">7</text><text transform="matrix(1 0 0 1 57.25 35.75)">8</text><text transform="matrix(1 0 0 1 59.25 44.25)">9</text><text transform="matrix(1 0 0 1 49.00 52.25)">10</text><text transform="matrix(1 0 0 1 62.25 59.25)">11</text><text transform="matrix(1 0 0 1 28.25 69.25)">12</text><text transform="matrix(1 0 0 1 68.25 67.48)">13</text><text transform="matrix(1 0 0 1 42.25 81.40)">14</text><text transform="matrix(1 0 0 1 75.25 79.25)">15</text></g></svg>