<svg xmlns="http://www.w3.org/2000/svg" width="109" height="109" viewBox="0 0 109 109"><g id="kvg:StrokePaths_051e6" style="fill:none;stroke:#000000;stroke-width:3;stroke-linecap:round;stroke-linejoin:round;"><g id="kvg:051e6" kvg:element="処"><g id="kvg:051e6-g1" kvg:element="夂" kvg:position="nyo" kvg:radical="nelson"><path id="kvg:051e6-s1" kvg:type="㇒" d="M32.08 17.5c.17 1 .22 2.39-.11 3.69-2.09 8.31-9.09 23.56-19.72 35.56"/><path id="kvg:051e6-s2" kvg:type="㇇" d="M32.43 31.15c.22.05 1.17.0 1.81-.13 3.38-.64 6.01-1.39 11.35-3.1 2.05-.91 3.97.86 3.31 3.47-3.59 14.29-21.67 50-37.65 57.36"/><path id="kvg:051e6-s3" kvg:type="㇏" d="M22 48.25c5.4 2.81 40.39 27.53 59.52 37.32 4.42 2.26 9.1 4.05 12.98 5.18"/></g><g id="kvg:051e6-g2" kvg:element="几" kvg:position="nyoc" kvg:radical="tradit"><g id="kvg:051e6-g3" kvg:element="丿"><path id="kvg:051e6-s4" kvg:type="㇒" d="M62.26 26c.68.68 1.23 1.8 1.23 3.24.0 13.11.25 25.76-9.35 33.26"/></g><path id="kvg:051e6-s5" kvg:type="㇈b" d="M64.46 27.9c3.32-1 8.05-2.35 10.55-3.01 2.96-.78 4.83.11 4.83 2.99.0 4.5-.2 19.17-.2 26.88.0 7.38 1.37 9.44 7.34 9.44 7.04.0 8.02-1.44 8.02-6.18"/></g></g></g></svg>