<svg xmlns="http://www.w3.org/2000/svg" width="109" height="109" viewBox="0 0 109 109"><g id="kvg:StrokePaths_051ea"><g id="kvg:051ea" kvg:element="凪"><g id="kvg:051ea-g1" kvg:element="几" kvg:variant="true" kvg:position="kamae" kvg:radical="general"><g id="kvg:051ea-g2" kvg:element="丿"><path id="kvg:051ea-s1" kvg:type="㇒" d="M25.8 16.5c1.29 1.29 1.37 2.55 1.37 4.86.0 28.26-.04 55.01-15.16 72.89"/></g><path id="kvg:051ea-s2" kvg:type="㇈" d="M28 18.25c14.38-1 43.75-3.25 47.75-3.25s5.72.93 5.5 4.75C79.75 45.5 79.69 75.18 92 90.5c5.62 7 6.25 5.25 5.75-3"/></g><g id="kvg:051ea-g3" kvg:element="止" kvg:position="kamaec"><g id="kvg:051ea-g4" kvg:element="卜" kvg:original="ト"><path id="kvg:051ea-s3" kvg:type="㇑a" d="M55.12 29c1.06 1.06 1.15 2.38 1.15 3.74.0.86.07 49.14.07 55.31"/><path id="kvg:051ea-s4" kvg:type="㇐b" d="M57.49 55.73c5.2-.55 8.01-1.07 12.5-1.54 1.6-.17 3.35-.35 4.94.02"/></g><path id="kvg:051ea-s5" kvg:type="㇑a" d="M38.58 52.84c1.1 1.1 1.15 2.54 1.15 3.99.0.86-.1 25.82-.1 32.42"/><path id="kvg:051ea-s6" kvg:type="㇐" d="M25.44 90.12c3.17.97 6.45.54 9.69.33 10.24-.66 26.51-2.01 37.63-2.34 3.53-.11 7.07.11 10.55.81"/></g></g></g></svg>