<svg xmlns="http://www.w3.org/2000/svg" width="109" height="109" viewBox="0 0 109 109"><g id="kvg:StrokePaths_0520e" style="fill:none;stroke:#000000;stroke-width:3;stroke-linecap:round;stroke-linejoin:round;"><g id="kvg:0520e" kvg:element="刎"><g id="kvg:0520e-g1" kvg:element="勿" kvg:position="left"><g id="kvg:0520e-g2" kvg:element="勹"><path id="kvg:0520e-s1" kvg:type="㇒" d="M30.34 14.25c.04.74.09 1.92-.09 2.98C29.21 23.52 23.21 37.31 15 45.75"/><path id="kvg:0520e-s2" kvg:type="㇆" d="M28.46 30.64c.83.67 2.44.64 3.83.45 5.96-.84 20.46-3.26 23.79-3.48s4.83 1.13 4.49 4.95C60 39 57.25 74.5 51.97 90.74c-1.84 5.65-5.72 4.01-8.33-.62"/></g><path id="kvg:0520e-s3" kvg:type="㇒" d="M34.32 34.25c.05.78.14 2.03-.1 3.12-2.37 10.77-8.01 21.03-17.35 29.88"/><path id="kvg:0520e-s4" kvg:type="㇒" d="M48.01 32c.08 1.26.16 3.25-.15 5.06C46 47.73 35.95 71.16 21.36 85.5"/></g><g id="kvg:0520e-g3" kvg:element="刂" kvg:variant="true" kvg:original="刀" kvg:position="right" kvg:radical="general"><path id="kvg:0520e-s5" kvg:type="㇑" d="M73.77 24.83c.98.92 1.67 1.99 1.76 5.02.4 14.55-.02 34.69-.02 39.65"/><path id="kvg:0520e-s6" kvg:type="㇚" d="M90.27 13.33c.98.92 1.67 1.99 1.76 5.02.4 14.55-.26 65.66-.26 70.62.0 13.14-7.21 1.5-8.71.25"/></g></g></g></svg>