<!DOCTYPE svg PUBLIC "-//W3C//DTD SVG 1.0//EN" "http://www.w3.org/TR/2001/REC-SVG-20010904/DTD/svg10.dtd" [
<!ATTLIST g
xmlns:kvg CDATA #FIXED "http://kanjivg.tagaini.net"
kvg:element CDATA #IMPLIED
kvg:variant CDATA #IMPLIED
kvg:partial CDATA #IMPLIED
kvg:original CDATA #IMPLIED
kvg:part CDATA #IMPLIED
kvg:number CDATA #IMPLIED
kvg:tradForm CDATA #IMPLIED
kvg:radicalForm CDATA #IMPLIED
kvg:position CDATA #IMPLIED
kvg:radical CDATA #IMPLIED
kvg:phon CDATA #IMPLIED >
<!ATTLIST path
xmlns:kvg CDATA #FIXED "http://kanjivg.tagaini.net"
kvg:type CDATA #IMPLIED >
]><svg xmlns="http://www.w3.org/2000/svg" width="109" height="109" viewBox="0 0 109 109"><g id="kvg:StrokePaths_0520a" style="fill:none;stroke:#000000;stroke-width:3;stroke-linecap:round;stroke-linejoin:round;"><g id="kvg:0520a" kvg:element="刊"><g id="kvg:0520a-g1" kvg:element="干" kvg:position="left" kvg:radical="nelson" kvg:phon="干"><path id="kvg:0520a-s1" kvg:type="㇐" d="M17.79 26.53c1.68.31 3.42.39 5.1.17 5.15-.67 16.03-2.46 23.11-3.28 1.84-.21 3.75-.28 5.53.36"/><g id="kvg:0520a-g2" kvg:element="十"><path id="kvg:0520a-s2" kvg:type="㇐" d="M11.79 48.72c1.95.77 4.67.58 6.71.28 10.56-1.55 21.53-3.24 31.5-4.36 2.51-.28 4.74-.57 7.21.03"/><path id="kvg:0520a-s3" kvg:type="㇑" d="M33.85 28.58c1.1 1.1 1.74 2.54 1.74 3.94.0.79-.03 39.01-.09 54.86-.01 3.08-.02 5.31-.03 6.26"/></g></g><g id="kvg:0520a-g3" kvg:element="刂" kvg:variant="true" kvg:original="刀" kvg:position="right" kvg:radical="tradit"><path id="kvg:0520a-s4" kvg:type="㇑" d="M66.02 33.08C67 34 67.52 35.62 67.52 37.6c0 10.25-.01 18.3-.02 23.9.0 2.36.0 4.28.0 5.75"/><path id="kvg:0520a-s5" kvg:type="㇚" d="M87.27 16.83c.98.92 1.76 2.29 1.76 4.27.0 14.56-.01 60.41-.01 65.37.0 14.28-6.77 4.78-8.71 2.5"/></g></g></g><g id="kvg:StrokeNumbers_0520a" style="font-size:8;fill:#808080"><text transform="matrix(1 0 0 1 11.50 27.13)">1</text><text transform="matrix(1 0 0 1 4.50 49.50)">2</text><text transform="matrix(1 0 0 1 27.50 37.63)">3</text><text transform="matrix(1 0 0 1 57.50 32.50)">4</text><text transform="matrix(1 0 0 1 77.50 17.50)">5</text></g></svg>