<svg xmlns="http://www.w3.org/2000/svg" width="109" height="109" viewBox="0 0 109 109"><g id="kvg:StrokePaths_0520b"><g id="kvg:0520b" kvg:element="刋"><g id="kvg:0520b-g1" kvg:element="千" kvg:position="left"><g id="kvg:0520b-g2" kvg:element="丿" kvg:position="top"><path id="kvg:0520b-s1" kvg:type="㇒" d="M50.63 13.92c.1.46-.2 2.54-1.33 3.35C43.75 21.25 36 26.5 17.14 32.91"/></g><g id="kvg:0520b-g3" kvg:element="十" kvg:position="bottom"><path id="kvg:0520b-s2" kvg:type="㇐" d="M10.63 51.79c.85.51 2.98.55 3.84.51 11.03-.55 26.53-5.05 41.17-6 1.42-.09 2.28.24 2.99.5"/><path id="kvg:0520b-s3" kvg:type="㇑" d="M36.41 27.25c.6 1.79 1.47 3.19 1.47 5.42.0 20.4.62 45.08-18.07 60.29"/></g></g><g id="kvg:0520b-g4" kvg:element="刂" kvg:variant="true" kvg:original="刀" kvg:position="right" kvg:radical="general"><path id="kvg:0520b-s4" kvg:type="㇑" d="M67.27 31.83c.98.92 1.67 1.99 1.76 5.02C69.42 51.41 69 62.54 69 67.5"/><path id="kvg:0520b-s5" kvg:type="㇚" d="M88.77 16.33c.98.92 1.67 1.99 1.76 5.02.4 14.55-.26 61.16-.26 66.12.0 13.14-7.21 1.5-8.71.25"/></g></g></g></svg>