<svg xmlns="http://www.w3.org/2000/svg" width="109" height="109" viewBox="0 0 109 109"><g id="kvg:StrokePaths_05211"><g id="kvg:05211" kvg:element="刑"><g id="kvg:05211-g1" kvg:element="开" kvg:original="幵" kvg:partial="true" kvg:position="left" kvg:phon="井"><g id="kvg:05211-g2" kvg:element="干"><path id="kvg:05211-s1" kvg:type="㇐" d="M15.75 23.39c1.97.8 4.94.48 6.98.23 7.31-.91 21.32-2.67 28.78-3.29 2.18-.18 4.34-.34 6.49.19"/><g id="kvg:05211-g3" kvg:element="十"><path id="kvg:05211-s2" kvg:type="㇐" d="M11.75 50.64c2.16.88 5.4.42 7.65.13 8.6-1.12 26.45-3.44 35.35-4.32 2.4-.24 5.14-.26 7.5.32"/><path id="kvg:05211-s3" kvg:type="㇒/㇑" d="M28.22 25.82c1.23 1.23 1.4 2.69 1.44 4.5.84 40.93-2.53 51.8-14.91 62.93"/></g></g><g id="kvg:05211-g4" kvg:element="干" kvg:partial="true"><g id="kvg:05211-g5" kvg:element="十" kvg:partial="true"><path id="kvg:05211-s4" kvg:type="㇑" d="M46.25 23.13c.75.75 1.16 2.74 1.16 4.24.0 6.5-.02 41.77-.03 57.13.0 3.8.0 6.38.0 7"/></g></g></g><g id="kvg:05211-g6" kvg:element="刂" kvg:variant="true" kvg:original="刀" kvg:position="right" kvg:radical="general"><path id="kvg:05211-s5" kvg:type="㇑" d="M71.02 26.33c.98.92 1.76 2.67 1.76 5.02.0 10.52.06 22.4.06 30.65.0 3.5-.08 6.24-.08 7.75"/><path id="kvg:05211-s6" kvg:type="㇚" d="M90.77 15.83c1.2 1.2 1.76 2.67 1.76 5.02.0 14.56-.01 62.41-.01 67.37.0 8.12-5.52 5.41-9.96.75"/></g></g></g></svg>