<svg xmlns="http://www.w3.org/2000/svg" width="109" height="109" viewBox="0 0 109 109"><g id="kvg:StrokePaths_05229"><g id="kvg:05229" kvg:element="利"><g id="kvg:05229-g1" kvg:element="禾" kvg:position="left" kvg:radical="nelson"><g id="kvg:05229-g2" kvg:element="丿" kvg:position="top"><path id="kvg:05229-s1" kvg:type="㇒" d="M47.06 12.75c-.18 1.25-.85 2.42-1.55 3.13-3.76 3.81-14.5 9.65-29.46 14.58"/></g><g id="kvg:05229-g3" kvg:element="木" kvg:position="bottom"><path id="kvg:05229-s2" kvg:type="㇐" d="M11.87 44.95c2.25.67 4.36.65 6.16.37 7.23-1.14 23.24-4.6 31.72-5.53 1.5-.16 4-.41 5.47-.23"/><path id="kvg:05229-s3" kvg:type="㇑" d="M35.68 25.38c1.34 1.34 1.84 3.12 1.84 5.17.0 4.73.05 43.08.07 60.08.0 3.57.01 6.2.01 7.38"/><path id="kvg:05229-s4" kvg:type="㇒" d="M36.13 43.18c0 .94-.6 2.55-.92 3.34-4.6 11.28-12.16 24.7-21.6 33.65"/><path id="kvg:05229-s5" kvg:type="㇔/㇏" d="M40.62 51.12c4.8 2.29 8.87 6.86 11.46 9.8"/></g></g><g id="kvg:05229-g4" kvg:element="刂" kvg:variant="true" kvg:original="刀" kvg:position="right" kvg:radical="tradit"><path id="kvg:05229-s6" kvg:type="㇑" d="M66.52 27.33c1.26 1.26 1.76 2.67 1.76 5.02.0 11.08-.01 22.53-.02 29.65.0 2.37.0 4.26.0 5.5"/><path id="kvg:05229-s7" kvg:type="㇚" d="M90.27 11.33c1.2 1.2 1.76 2.79 1.76 5.02.0 14.56-.26 70.65-.26 75.87.0 11.78-6.96 1.5-8.46.25"/></g></g></g></svg>