<svg xmlns="http://www.w3.org/2000/svg" width="109" height="109" viewBox="0 0 109 109"><g id="kvg:StrokePaths_0524c" style="fill:none;stroke:#000000;stroke-width:3;stroke-linecap:round;stroke-linejoin:round;"><g id="kvg:0524c" kvg:element="剌"><g id="kvg:0524c-g1" kvg:element="束" kvg:position="left"><g id="kvg:0524c-g2" kvg:element="木" kvg:part="1"><path id="kvg:0524c-s1" kvg:type="㇐" d="M17.25 27.72c.72.47 3.24.76 3.97.68 6.07-.63 25.22-3.96 31.73-4.4 1.2-.08 3.12.22 3.73.45"/></g><g id="kvg:0524c-g3" kvg:element="口"><path id="kvg:0524c-s2" kvg:type="㇑" d="M18.67 39.58c.29.38.59.69.72 1.16 1.01 3.73 2.78 12.26 3.47 18.95"/><path id="kvg:0524c-s3" kvg:type="㇕b" d="M20.48 41.61c8.73-1.61 30.08-4.7 33.5-5.07 2.13-.23 3.47 2.42 2.91 4.58-1.51 5.78-1.87 8.34-3.06 12.76"/><path id="kvg:0524c-s4" kvg:type="㇐b" d="M23 57.49c10.49-.93 24.77-2.38 32.64-3.08"/></g><g id="kvg:0524c-g4" kvg:element="木" kvg:part="2"><path id="kvg:0524c-s5" kvg:type="㇑" d="M35.95 11c1.24.5 1.98 2.23 2.23 3.22s0 78.08-.25 84.28"/><path id="kvg:0524c-s6" kvg:type="㇒" d="M37.87 56.05c-4.07 10.4-14.64 25.11-23.1 31"/><path id="kvg:0524c-s7" kvg:type="㇏" d="M40.85 61.59c6.66 3.02 12.02 8.96 15.37 14.98"/></g></g><g id="kvg:0524c-g5" kvg:element="刂" kvg:variant="true" kvg:original="刀" kvg:position="right" kvg:radical="general"><path id="kvg:0524c-s8" kvg:type="㇑" d="M68.77 25.33c.98.92 1.67 1.99 1.76 5.02.4 14.55-.02 36.19-.02 41.15"/><path id="kvg:0524c-s9" kvg:type="㇚" d="M88.77 11.33c.98.92 1.67 1.99 1.76 5.02.4 14.55-.26 68.66-.26 73.62.0 13.14-7.21 1.5-8.71.25"/></g></g></g></svg>