<svg xmlns="http://www.w3.org/2000/svg" width="109" height="109" viewBox="0 0 109 109"><g id="kvg:StrokePaths_05254" style="fill:none;stroke:#000000;stroke-width:3;stroke-linecap:round;stroke-linejoin:round;"><g id="kvg:05254" kvg:element="剔"><g id="kvg:05254-g1" kvg:element="易" kvg:position="left"><g id="kvg:05254-g2" kvg:element="日" kvg:position="top"><path id="kvg:05254-s1" kvg:type="㇑" d="M22.15 15.91c.41.65 1.24 1.92 1.33 2.79.52 5.55 3.37 27.39 3.51 28.27"/><path id="kvg:05254-s2" kvg:type="㇕a" d="M24.16 17.45c2.33-.11 23.87-2.83 25.99-2.96 1.77-.11 2.83 2.59 2.77 3.26-.42 4.94-.75 16.02-2.25 27.08"/><path id="kvg:05254-s3" kvg:type="㇐a" d="M26.41 30.57c8.2-.84 19.91-2.24 25.35-2.49"/><path id="kvg:05254-s4" kvg:type="㇐a" d="M27.67 45.3c6.77-.91 16.97-1.84 23.31-2.28"/></g><g id="kvg:05254-g3" kvg:element="勿" kvg:position="bottom"><g id="kvg:05254-g4" kvg:element="勹"><path id="kvg:05254-s5" kvg:type="㇒" d="M31.58 48.7c.05.49.21 1.29-.11 1.95C28.5 56.75 23 64 12.98 69.32"/><path id="kvg:05254-s6" kvg:type="㇆" d="M28.38 57.57c.81.45 1.95.6 3.25.3 1.3-.3 22.83-2.85 26.07-3 3.24-.15 3.79 1.49 3.41 4.65-1.1 9.23-2.63 21.7-8.79 33.9-2.56 5.08-5.06 3.33-8.19-1.75"/></g><path id="kvg:05254-s7" kvg:type="㇒" d="M37.2 60.06c.04.41.12 1.06-.08 1.63-1.99 5.62-9.72 13.98-17.55 18.59"/><path id="kvg:05254-s8" kvg:type="㇒" d="M49.59 58.65c.08.79-.14 2.12-.65 3.18C45.25 69.5 37.5 81.75 23.16 92.26"/></g></g><g id="kvg:05254-g5" kvg:element="刂" kvg:variant="true" kvg:original="刀" kvg:position="right" kvg:radical="general"><path id="kvg:05254-s9" kvg:type="㇑" d="M70.27 23.83c.98.92 1.67 1.99 1.76 5.02C72.42 43.41 72 64.54 72 69.5"/><path id="kvg:05254-s10" kvg:type="㇚" d="M88.27 12.33c.98.92 1.67 1.99 1.76 5.02.4 14.55-.26 66.16-.26 71.12.0 13.14-7.21 1.5-8.71.25"/></g></g></g></svg>