<svg xmlns="http://www.w3.org/2000/svg" width="109" height="109" viewBox="0 0 109 109"><g id="kvg:StrokePaths_05265"><g id="kvg:05265" kvg:element="剥"><g id="kvg:05265-g1" kvg:position="left"><g id="kvg:05265-g2" kvg:element="⺕" kvg:variant="true" kvg:original="彑"><path id="kvg:05265-s1" kvg:type="㇕" d="M18.75 19.75c1.97.75 3.24.65 5.26.5 6.57-.5 15.99-2.75 20.37-3 2.84-.16 4.75 1.24 4.38 3.75-1.1 7.5-2.19 11.25-3.07 21"/><path id="kvg:05265-s2" kvg:type="㇐c" d="M19.25 31.3c1.53.12 2.74.99 4.42.75C30.75 31 39.5 30.5 47.11 29.98"/><path id="kvg:05265-s3" kvg:type="㇐c" d="M12 44.58c1.11.21 4.43.32 5.75.21 12.17-1.03 24.57-2.67 35.63-3.08 1.77-.07 5.53.0 6.86.21"/></g><g id="kvg:05265-g3" kvg:element="氺" kvg:variant="true" kvg:original="水"><path id="kvg:05265-s4" kvg:type="㇚" d="M35.27 46.83c.09.48 1.17 2.49 1.26 5.52.4 14.55-.26 33.16-.26 38.12.0 10.78-5.71 2-7.21.75"/><path id="kvg:05265-s5" kvg:type="㇔" d="M16 55.75c3.18 1.41 8.21 5.8 9 8"/><path id="kvg:05265-s6" kvg:type="㇀" d="M11 83.1c2 .9 3.88.86 5.45-.55.93-.84 6.88-6.77 10.8-10.79"/><path id="kvg:05265-s7" kvg:type="㇒" d="M54.28 52.14c.03.28.06.73-.05 1.14-.66 2.41-4.46 7.7-9.66 10.93"/><path id="kvg:05265-s8" kvg:type="㇔/㇏" d="M43.25 70.75c4.24 2.1 10.95 8.83 13.82 14.53"/></g></g><g id="kvg:05265-g4" kvg:element="刂" kvg:variant="true" kvg:original="刀" kvg:position="right" kvg:radical="general"><path id="kvg:05265-s9" kvg:type="㇑" d="M69.27 25.83c.98.92 1.67 1.99 1.76 5.02C71.42 45.41 71 60.54 71 65.5"/><path id="kvg:05265-s10" kvg:type="㇚" d="M89.77 12.33c.98.92 1.67 1.99 1.76 5.02.4 14.55-.26 65.66-.26 70.62.0 13.14-7.21 1.5-8.71.25"/></g></g></g></svg>