<svg xmlns="http://www.w3.org/2000/svg" width="109" height="109" viewBox="0 0 109 109"><g id="kvg:StrokePaths_05269" style="fill:none;stroke:#000000;stroke-width:3;stroke-linecap:round;stroke-linejoin:round;"><g id="kvg:05269" kvg:element="剩"><g id="kvg:05269-g1" kvg:element="乘" kvg:position="left"><g id="kvg:05269-g2" kvg:element="禾" kvg:part="1"><g id="kvg:05269-g3" kvg:element="丿"><path id="kvg:05269-s1" kvg:type="㇒" d="M45.68 13c.08.28.17.72-.16 1.11-1.95 2.35-13.16 7.51-28.49 10.67"/></g></g><g id="kvg:05269-g4" kvg:element="木" kvg:part="1"><path id="kvg:05269-s2" kvg:type="㇐" d="M12.25 32.15c.54.31 2.7 1.12 4.13.92 6.47-.92 28.33-4.27 39.29-5.11 1.43-.11 3.23.36 4.13.67"/></g><g id="kvg:05269-g5" kvg:element="北"><g id="kvg:05269-g6" kvg:position="left"><path id="kvg:05269-s3" kvg:type="㇐" d="M10.93 49.26c.97.28 1.21.41 2.18.41s12.52-2.7 13.37-2.7"/><path id="kvg:05269-s4" kvg:type="㇑" d="M25.38 38.51c.72.83.98 2.72.98 3.28.0.55.12 16.21.12 17.72"/><path id="kvg:05269-s5" kvg:type="㇀" d="M11.45 65.81c1.5 1.16 2.65 1.23 3.75.65 6.62-3.48 10.24-5.51 13.74-7.45"/></g><g id="kvg:05269-g7" kvg:element="匕" kvg:position="right"><path id="kvg:05269-s6" kvg:type="㇒" d="M60.71 36.77c.09.2.13.77-.09 1.1-2.12 3.23-7.34 7.95-11.93 9.64"/><path id="kvg:05269-s7" kvg:type="㇟" d="M47.08 34.8c.32.37.75 1.08.75 1.81.0.49.11 16.35.11 17.85.0 3.83 1.81 4.83 7.59 4.83 5.15.0 7.49-.95 7.49-4.93"/></g></g><g id="kvg:05269-g8" kvg:element="禾" kvg:part="2"><g id="kvg:05269-g9" kvg:element="木" kvg:part="2"><path id="kvg:05269-s8" kvg:type="㇑" d="M36.72 22.7c.62.45.99 2.04 1.11 2.95s0 65.18-.12 70.85"/><path id="kvg:05269-s9" kvg:type="㇒" d="M37.79 56.61C33.45 67.74 22.61 80.67 12.1 87.65"/><path id="kvg:05269-s10" kvg:type="㇏" d="M39.63 62.96c8.37 3.79 13.62 9.29 16.7 15.99"/></g></g></g><g id="kvg:05269-g10" kvg:element="刂" kvg:variant="true" kvg:original="刀" kvg:position="right" kvg:radical="general"><path id="kvg:05269-s11" kvg:type="㇑" d="M70.52 26.08c.98.92 1.67 1.99 1.76 5.02.4 14.55-.02 30.69-.02 35.65"/><path id="kvg:05269-s12" kvg:type="㇚" d="M88.52 14.08c.98.92 1.67 1.99 1.76 5.02.4 14.55-.26 64.66-.26 69.62.0 13.14-7.21 1.5-8.71.25"/></g></g></g></svg>