<svg xmlns="http://www.w3.org/2000/svg" width="109" height="109" viewBox="0 0 109 109"><g id="kvg:StrokePaths_0527f" style="fill:none;stroke:#000000;stroke-width:3;stroke-linecap:round;stroke-linejoin:round;"><g id="kvg:0527f" kvg:element="剿"><g id="kvg:0527f-g1" kvg:element="巢" kvg:variant="true" kvg:position="left"><g id="kvg:0527f-g2" kvg:element="巛"><path id="kvg:0527f-s1" kvg:type="㇛" d="M25.09 13.16c.62.26.13 2.07-.1 2.68-1.51 3.95-3.95 6.57-7.94 10.11-.77.68-.37.7.0.89 4.61 2.3 6.58 6.01 9 10.69"/><path id="kvg:0527f-s2" kvg:type="㇛" d="M39.8 12.16c.62.26.13 2.07-.1 2.68-1.51 3.95-4.45 6.57-8.44 10.11-.77.68-.37.7.0.89 4.61 2.3 7 4.66 8.55 10.19"/><path id="kvg:0527f-s3" kvg:type="㇛" d="M53.24 11.66c.62.26.13 2.07-.1 2.68-1.51 3.95-2.45 6.09-6.44 9.63-.77.68-.37.7.0.89 4.61 2.3 6.81 5.64 8 9.67"/></g><g id="kvg:0527f-g3" kvg:element="果" kvg:position="bottom"><g id="kvg:0527f-g4" kvg:element="日" kvg:part="1"><g id="kvg:0527f-g5" kvg:element="日"><path id="kvg:0527f-s4" kvg:type="㇑" d="M17.88 41.68c.5.51 1.22 1.13 1.22 1.82s4.42 20.02 4.42 20.37"/><path id="kvg:0527f-s5" kvg:type="㇕a" d="M20.2 43.32c1.51-.09 33.6-4.08 34.98-4.08 1.81.01 2.57 2.01 2.48 2.52-.18 1.04-3.9 17.24-3.9 17.76"/><path id="kvg:0527f-s6" kvg:type="㇐a" d="M21.5 52.04c2.04.0 32.16-3.06 34.48-3.06"/><path id="kvg:0527f-s7" kvg:type="㇐a" d="M25.31 60.31c4.16-.37 22.99-1.72 28.17-2.03"/></g></g><g id="kvg:0527f-g6" kvg:element="木"><path id="kvg:0527f-s8" kvg:type="㇐" d="M13.21 71c.53.16 1.95.43 3.36.49 3.89.17 30.87-3.16 42.18-3.49 1.42-.04 1.77.16 2.65.33"/><g id="kvg:0527f-g7" kvg:element="日" kvg:part="2"><path id="kvg:0527f-s9" kvg:type="㇑" d="M37.44 43.1c.77.39 1.23 1.77 1.38 2.55.15.78.0 48.19-.15 53.09"/></g><path id="kvg:0527f-s10" kvg:type="㇒" d="M36.47 69.94C32.39 77.97 23.5 89 13.25 93.88"/><path id="kvg:0527f-s11" kvg:type="㇔/㇏" d="M42.82 75.99c5.36 2.05 12.85 8.19 15.37 12.88"/></g></g></g><g id="kvg:0527f-g8" kvg:element="刂" kvg:variant="true" kvg:original="刀" kvg:position="right" kvg:radical="general"><path id="kvg:0527f-s12" kvg:type="㇑" d="M69.77 24.33c.98.92 1.67 1.99 1.76 5.02.4 14.55-.02 34.19-.02 39.15"/><path id="kvg:0527f-s13" kvg:type="㇚" d="M88.77 11.83c.98.92 1.67 1.99 1.76 5.02.4 14.55-.26 69.66-.26 74.62.0 13.14-7.21 2-8.71.75"/></g></g></g></svg>