<svg xmlns="http://www.w3.org/2000/svg" width="109" height="109" viewBox="0 0 109 109"><g id="kvg:StrokePaths_05270" style="fill:none;stroke:#000000;stroke-width:3;stroke-linecap:round;stroke-linejoin:round;"><g id="kvg:05270" kvg:element="剰"><g id="kvg:05270-g1" kvg:element="乗" kvg:variant="true" kvg:position="left" kvg:phon="乗"><g id="kvg:05270-g2" kvg:element="千" kvg:part="1"><g id="kvg:05270-g3" kvg:element="丿"><path id="kvg:05270-s1" kvg:type="㇒" d="M46.01 12.39c0 .73-.64 1.32-1.26 1.79-2.81 2.14-10.42 5.25-23.05 8.53"/></g><g id="kvg:05270-g4" kvg:element="十" kvg:part="1"><path id="kvg:05270-s2" kvg:type="㇐" d="M14.59 33.2c3.16.55 5.85.29 8.19-.09 9.71-1.6 18.34-2.73 29.22-3.95 2.82-.31 5.52-.63 8.29.13"/></g></g><path id="kvg:05270-s3" kvg:type="㇐" d="M12.25 47.2c3 .55 5.54.23 8-.09 9.56-1.25 24.21-2.94 36.76-4.08 2.64-.24 5.01-.39 7.61.26"/><path id="kvg:05270-s4" kvg:type="㇑a" d="M23.42 39.63c1.1 1.1 1.21 2.12 1.4 3.84.73 6.51 1.18 9.78 1.9 15.03"/><path id="kvg:05270-s5" kvg:type="㇑a" d="M54.37 35.13c.5.99.75 1.87.54 3.26-.54 3.51-1.16 9.36-2.13 16.36"/><g id="kvg:05270-g5" kvg:element="木" kvg:variant="true"><path id="kvg:05270-s6" kvg:type="㇐" d="M17.52 59.95c2.1.3 4.38.21 6.25-.06 6.59-.94 20.1-3.01 29.36-3.89 2.07-.2 3.62-.38 6.45.04"/><g id="kvg:05270-g6" kvg:element="千" kvg:part="2"><g id="kvg:05270-g7" kvg:element="十" kvg:part="2"><path id="kvg:05270-s7" kvg:type="㇑" d="M39.07 21.88c1.27 1.27 1.29 2.24 1.29 4 0 4.46.04 45.95-.06 63.11-.02 3.47-.04 5.94-.06 6.88"/></g></g><path id="kvg:05270-s8" kvg:type="㇒" d="M39.2 59.25c0 1-.46 2.41-1.14 3.34C31.5 71.5 22.25 80.25 12.64 87"/><path id="kvg:05270-s9" kvg:type="㇔/㇏" d="M44.34 64.5C49 67.25 55.5 73.25 58.11 78.94"/></g></g><g id="kvg:05270-g8" kvg:element="刂" kvg:variant="true" kvg:original="刀" kvg:position="right" kvg:radical="general"><path id="kvg:05270-s10" kvg:type="㇑" d="M73.02 25.58c1.08 1.08 1.26 2.42 1.26 4.27.0 10.77.14 22.92.04 30.4-.04 2.63-.06 4.71-.06 6"/><path id="kvg:05270-s11" kvg:type="㇚" d="M91.02 12.83c1.39 1.39 1.51 2.92 1.51 5.02.0 14.56-.01 66.16-.01 71.12.0 13.14-6.21 2-7.71.75"/></g></g></g></svg>