<!DOCTYPE svg PUBLIC "-//W3C//DTD SVG 1.0//EN" "http://www.w3.org/TR/2001/REC-SVG-20010904/DTD/svg10.dtd" [
<!ATTLIST g
xmlns:kvg CDATA #FIXED "http://kanjivg.tagaini.net"
kvg:element CDATA #IMPLIED
kvg:variant CDATA #IMPLIED
kvg:partial CDATA #IMPLIED
kvg:original CDATA #IMPLIED
kvg:part CDATA #IMPLIED
kvg:number CDATA #IMPLIED
kvg:tradForm CDATA #IMPLIED
kvg:radicalForm CDATA #IMPLIED
kvg:position CDATA #IMPLIED
kvg:radical CDATA #IMPLIED
kvg:phon CDATA #IMPLIED >
<!ATTLIST path
xmlns:kvg CDATA #FIXED "http://kanjivg.tagaini.net"
kvg:type CDATA #IMPLIED >
]><svg xmlns="http://www.w3.org/2000/svg" width="109" height="109" viewBox="0 0 109 109"><g id="kvg:StrokePaths_05272" style="fill:none;stroke:#000000;stroke-width:3;stroke-linecap:round;stroke-linejoin:round;"><g id="kvg:05272" kvg:element="割"><g id="kvg:05272-g1" kvg:element="害" kvg:position="left" kvg:phon="害"><g id="kvg:05272-g2" kvg:element="宀" kvg:position="top"><path id="kvg:05272-s1" kvg:type="㇑a" d="M36.08 15.75c.65.65 1.09 1.88 1.09 3.28.0 2.1-.05 6.1-.05 8.6"/><g id="kvg:05272-g3" kvg:element="冖"><path id="kvg:05272-s2" kvg:type="㇔" d="M17.04 28.27c0 3.36-1.77 12.59-2.57 14.83"/><path id="kvg:05272-s3" kvg:type="㇖b" d="M17.69 31.24c13.56-1.49 29.06-3.99 41.22-4.65 8.07-.43.86 6.18-.26 6.79"/></g></g><g id="kvg:05272-g4" kvg:position="bottom"><g id="kvg:05272-g5" kvg:element="龶" kvg:position="top"><path id="kvg:05272-s4" kvg:type="㇐" d="M22.25 43.62c1.75.38 3.51.22 4.89.0 5.39-.85 15.65-2.71 20.88-3.38 1.53-.2 2.86-.24 4.45-.14"/><path id="kvg:05272-s5" kvg:type="㇑a" d="M36.85 33.69c.79.79 1.18 2.06 1.18 3.12.0.9-.03 20.6-.03 26.93"/><path id="kvg:05272-s6" kvg:type="㇐" d="M22.37 54.29c1.76.34 3.5.22 4.88.02 5.43-.77 14.63-1.93 21.38-2.91 1.43-.21 2.5-.4 3.83-.24"/><path id="kvg:05272-s7" kvg:type="㇐" d="M14.39 67.41c1.86.46 4.36.19 5.98-.03 8.29-1.11 27.34-4.32 35.61-5.06 1.82-.16 3.83-.34 5.62.19"/></g><g id="kvg:05272-g6" kvg:element="口" kvg:position="bottom"><path id="kvg:05272-s8" kvg:type="㇑" d="M23.05 76.1c.62.63 1.18 1.65 1.31 2.53C25 83 26.3 88.44 26.85 92.19c.23 1.55.43 3.01.58 4.28"/><path id="kvg:05272-s9" kvg:type="㇕b" d="M24.86 77.47c6.89-.96 19.83-2.65 25.39-3.38 2.7-.35 3.82.6 3.19 3.67-.75 3.71-1.4 6.88-2.97 12.32"/><path id="kvg:05272-s10" kvg:type="㇐b" d="M28.21 93.31c3.62-.44 13.34-1.68 20.03-2.38 1.3-.13 2.43-.25 3.32-.33"/></g></g></g><g id="kvg:05272-g7" kvg:element="刂" kvg:variant="true" kvg:original="刀" kvg:position="right" kvg:radical="general"><path id="kvg:05272-s11" kvg:type="㇑" d="M73.27 28.58c.98.92 1.76 2.67 1.76 5.02.0 10.55-.1 24.72-.2 32.65-.04 3.02-.07 5.38-.07 6.75"/><path id="kvg:05272-s12" kvg:type="㇚" d="M89.27 15.08c1.14 1.14 1.76 2.92 1.76 5.02.0 14.56-.01 64.41-.01 69.37.0 13.14-7.21 1.5-8.71.25"/></g></g></g><g id="kvg:StrokeNumbers_05272" style="font-size:8;fill:#808080"><text transform="matrix(1 0 0 1 28.50 14.50)">1</text><text transform="matrix(1 0 0 1 10.50 32.50)">2</text><text transform="matrix(1 0 0 1 20.50 27.50)">3</text><text transform="matrix(1 0 0 1 20.25 40.50)">4</text><text transform="matrix(1 0 0 1 29.50 37.50)">5</text><text transform="matrix(1 0 0 1 15.75 55.25)">6</text><text transform="matrix(1 0 0 1 8.25 68.68)">7</text><text transform="matrix(1 0 0 1 17.25 85.10)">8</text><text transform="matrix(1 0 0 1 26.25 74.53)">9</text><text transform="matrix(1 0 0 1 30.75 89.45)">10</text><text transform="matrix(1 0 0 1 65.50 38.50)">11</text><text transform="matrix(1 0 0 1 77.50 16.50)">12</text></g></svg>