<svg xmlns="http://www.w3.org/2000/svg" width="109" height="109" viewBox="0 0 109 109"><g id="kvg:StrokePaths_0529f"><g id="kvg:0529f" kvg:element="功"><g id="kvg:0529f-g1" kvg:element="工" kvg:position="left" kvg:radical="nelson" kvg:phon="工"><path id="kvg:0529f-s1" kvg:type="㇐" d="M14 33.9c1.75.46 3.95.37 5.4.15 4.58-.7 12.28-2.56 18.23-3.11 1.31-.12 3.37-.06 4.49.17"/><path id="kvg:0529f-s2" kvg:type="㇑a" d="M28.57 35.52c1.02 1.02 1.48 1.86 1.48 3.48.0 5.95.1 23.88.1 28.82"/><path id="kvg:0529f-s3" kvg:type="㇀/㇐" d="M15.25 74.25c1.38.88 2.25.62 4-.25 5.3-2.65 10.88-5.38 20-10.25"/></g><g id="kvg:0529f-g2" kvg:element="力" kvg:position="right" kvg:radical="tradit"><path id="kvg:0529f-s4" kvg:type="㇆" d="M48.15 39.31c2.47.81 5.87.79 8.27.38 10.11-1.71 27.41-6.1 31.98-7 4.11-.82 5.01 1.96 4.87 5.41C92.75 50 84.88 77.75 77.35 90.01c-4.34 7.08-7.85 1.74-9.93-.49"/><path id="kvg:0529f-s5" kvg:type="㇒" d="M70.89 14.13c.99 1.24 1.29 3.07.83 5.57C66.62 47 59.62 72.88 40.22 89.17"/></g></g></g></svg>