<svg xmlns="http://www.w3.org/2000/svg" width="109" height="109" viewBox="0 0 109 109"><g id="kvg:StrokePaths_05291"><g id="kvg:05291" kvg:element="劑"><g id="kvg:05291-g1" kvg:element="齊" kvg:position="left"><g id="kvg:05291-g2" kvg:element="亠" kvg:position="top"><path id="kvg:05291-s1" kvg:type="㇑a" d="M37.92 11.25c.54.42 1.44 2.05 1.44 2.89.0 3.09-.17 4.5-.07 7.12"/><path id="kvg:05291-s2" kvg:type="㇐" d="M13.29 23.19c1.21.34 2.26.59 3.66.48 8.47-.67 34.24-3.68 43.87-4.38 1.42-.1 2.14.04 3.2.61"/></g><g id="kvg:05291-g3" kvg:position="bottom"><path id="kvg:05291-s3" kvg:type="㇔" d="M32.92 28.58c1.62 1.26 4.18 5.18 4.58 7.13"/><path id="kvg:05291-s4" kvg:type="㇒" d="M47.05 26.14c.01.27.03.69-.03 1.07-.34 2.26-2.28 7.22-4.93 10.25"/><path id="kvg:05291-s5" kvg:type="㇑" d="M39.61 39.83c.3.4.5.86.53 2.17.12 6.28-.01 10.11-.01 12.25"/><g id="kvg:05291-g4" kvg:element="刀"><path id="kvg:05291-s6" kvg:type="㇆" d="M15.16 36.5c.37.23 1.16.2 1.48.12 2.63-.63 11.59-2.81 13.04-3.04.95-.15 1.26.69 1.16 1.74-.55 5.84-.68 11.14-2.35 15.58-.87 2.33-1.89 1.59-2.53-.23"/><path id="kvg:05291-s7" kvg:type="㇒" d="M22.8 37.52c.03.38.01.96-.05 1.51-.5 4.71-2.5 9.21-9.36 14.47"/></g><path id="kvg:05291-s8" kvg:type="㇒" d="M59.71 25.89c.03.22.05.56-.05.87-.61 1.84-4.68 6.35-9.48 8.83"/><path id="kvg:05291-s9" kvg:type="㇙" d="M50.62 35.27c.28.61.5 1.43.5 2.34.0.92-.07 9.32-.07 10.75s.07 1.83.99.81c.92-1.02 5.77-5.56 6.34-6.17"/><path id="kvg:05291-s10" kvg:type="㇏" d="M57.15 37.86c3.74 2.26 6.65 8.22 8.33 12.33"/><path id="kvg:05291-s11" kvg:type="㇒" d="M24.46 57.32c.83.54 1.13 1.9 1.13 2.48.0 3.14-.16 13.25-.25 14.46-.54 6.92-2.65 16.33-10.84 22.2"/><g id="kvg:05291-g5" kvg:element="二"><path id="kvg:05291-s12" kvg:type="㇐" d="M25.47 65.82c3.45-.57 27.87-2.57 30.31-2.82"/><path id="kvg:05291-s13" kvg:type="㇐" d="M25.27 76.63c3.11-.13 26.33-2.38 30.49-2.59"/></g><path id="kvg:05291-s14" kvg:type="㇑" d="M54.71 55.01c.48.56 1.27 2.71 1.27 3.83.0 4.4-.01 33.65-.06 36.8"/></g></g><g id="kvg:05291-g6" kvg:element="刂" kvg:variant="true" kvg:original="刀" kvg:position="right" kvg:radical="general"><path id="kvg:05291-s15" kvg:type="㇑" d="M71.27 29.58c.98.92 1.67 1.99 1.76 5.02C73.42 49.16 73 69.79 73 74.75"/><path id="kvg:05291-s16" kvg:type="㇚" d="M87.77 14.08c.98.92 1.67 1.99 1.76 5.02.4 14.55-.26 64.16-.26 69.12.0 13.14-7.21 1.5-8.71.25"/></g></g></g></svg>