<svg xmlns="http://www.w3.org/2000/svg" width="109" height="109" viewBox="0 0 109 109"><g id="kvg:StrokePaths_052ad"><g id="kvg:052ad" kvg:element="劭"><g id="kvg:052ad-g1" kvg:element="召" kvg:position="left"><g id="kvg:052ad-g2" kvg:element="刀" kvg:position="top"><path id="kvg:052ad-s1" kvg:type="㇆" d="M15.71 22.95c.75.42 3.01.77 4.17.65 9.48-.98 22.87-3.52 28.13-3.88 3.42-.24 4.32 2.15 4.25 3.81-.24 5.46-2.71 19.58-7.77 26.65-2.73 3.82-4.86.51-5.62-.31"/><path id="kvg:052ad-s2" kvg:type="㇒" d="M32.5 25.39c.06.73.17 1.89-.12 2.92C29.4 38.81 22.25 50 12.14 58.03"/></g><g id="kvg:052ad-g3" kvg:element="口" kvg:position="bottom"><path id="kvg:052ad-s3" kvg:type="㇑" d="M18 63.98c.3.43.61.79.74 1.33 1.04 4.26 2.69 19.29 3.4 26.94"/><path id="kvg:052ad-s4" kvg:type="㇕b" d="M19.87 65.23c6.94-1.4 20.65-3.68 26.25-4.24 1.85-.19 4.02 1.93 3.48 4.6-.99 4.9-2.35 13.27-3.49 20.15"/><path id="kvg:052ad-s5" kvg:type="㇐b" d="M22.28 90.01c4.13-.63 17.14-3.23 25.11-3.65"/></g></g><g id="kvg:052ad-g4" kvg:element="力" kvg:position="right" kvg:radical="general"><path id="kvg:052ad-s6" kvg:type="㇆" d="M56.91 34.97c1.84.28 3.35.62 5.36.36 8.48-1.08 20.93-3.84 25.21-4.09 4.27-.24 4.58 2.04 4.37 5.19C91 49.25 86.75 76.25 79.8 88.03c-3.8 6.45-6.23.31-7.34-.68"/><path id="kvg:052ad-s7" kvg:type="㇒" d="M74.43 15.18c.32 1.82.53 3.11.36 5.69C73 48 66.75 72.5 49.39 91.65"/></g></g></g></svg>