<svg xmlns="http://www.w3.org/2000/svg" width="109" height="109" viewBox="0 0 109 109"><g id="kvg:StrokePaths_052ab" style="fill:none;stroke:#000000;stroke-width:3;stroke-linecap:round;stroke-linejoin:round;"><g id="kvg:052ab" kvg:element="劫"><g id="kvg:052ab-g1" kvg:element="去" kvg:position="left"><g id="kvg:052ab-g2" kvg:element="土" kvg:position="top"><path id="kvg:052ab-s1" kvg:type="㇐" d="M18.33 38.59c2.69.56 5.31.16 8.07-.3 6.35-1.05 12.97-2.3 19.6-3.03 2.26-.25 4.43-.52 6.62-.04"/><path id="kvg:052ab-s2" kvg:type="㇑a" d="M34.8 15.5c.97.97 1.13 2 1.13 3.02.0 7.98.09 35.81.09 38.53"/><path id="kvg:052ab-s3" kvg:type="㇐" d="M13.25 59.5c2.75.37 5.5.3 8.24-.19 9.26-1.36 19.74-2.75 27.9-3.43 3.03-.31 6.07-.28 9.11.1"/></g><g id="kvg:052ab-g3" kvg:element="厶" kvg:position="bottom"><path id="kvg:052ab-s4" kvg:type="㇜" d="M35.47 61.63c0 1.24-.36 2.68-.71 3.28-4.88 8.47-7.87 13.36-13.24 20.35-2.29 2.98-1.05 4.12 2.26 3.1 6.98-2.15 13.9-4.73 23.72-7.86"/><path id="kvg:052ab-s5" kvg:type="㇔" d="M44.28 70.35c2.9 2.81 7.5 11.54 8.22 15.9"/></g></g><g id="kvg:052ab-g4" kvg:element="力" kvg:position="right" kvg:radical="general"><path id="kvg:052ab-s6" kvg:type="㇆" d="M60.1 42.17c3.02.78 5.95.73 8.78-.14 6.92-1.9 13.92-4.35 18.95-5.61 3.8-.96 5.91 1.58 5.77 5.24-.28 7.13-3.76 28.44-8.56 41.41-4.42 11.94-7.03 11.7-10.3 5.4"/><path id="kvg:052ab-s7" kvg:type="㇒" d="M74.85 16.93c.68 1.38.97 2.17.87 3.58-2.47 36.25-8.47 56.75-20.33 71.4"/></g></g></g></svg>