<!DOCTYPE svg PUBLIC "-//W3C//DTD SVG 1.0//EN" "http://www.w3.org/TR/2001/REC-SVG-20010904/DTD/svg10.dtd" [
<!ATTLIST g
xmlns:kvg CDATA #FIXED "http://kanjivg.tagaini.net"
kvg:element CDATA #IMPLIED
kvg:variant CDATA #IMPLIED
kvg:partial CDATA #IMPLIED
kvg:original CDATA #IMPLIED
kvg:part CDATA #IMPLIED
kvg:number CDATA #IMPLIED
kvg:tradForm CDATA #IMPLIED
kvg:radicalForm CDATA #IMPLIED
kvg:position CDATA #IMPLIED
kvg:radical CDATA #IMPLIED
kvg:phon CDATA #IMPLIED >
<!ATTLIST path
xmlns:kvg CDATA #FIXED "http://kanjivg.tagaini.net"
kvg:type CDATA #IMPLIED >
]><svg xmlns="http://www.w3.org/2000/svg" width="109" height="109" viewBox="0 0 109 109"><g id="kvg:StrokePaths_052a3" style="fill:none;stroke:#000000;stroke-width:3;stroke-linecap:round;stroke-linejoin:round;"><g id="kvg:052a3" kvg:element="劣"><g id="kvg:052a3-g1" kvg:element="少" kvg:position="top"><g id="kvg:052a3-g2" kvg:element="小"><path id="kvg:052a3-s1" kvg:type="㇚" d="M55.37 9.67c.77.77 1.01 1.62 1.01 3.08.0 4.42.01 18.37.01 21.14.0 7.84-5.53.84-6.74.14"/><path id="kvg:052a3-s2" kvg:type="㇒" d="M35.4 18.92c.05.39.19 1.02-.11 1.56-2.15 3.88-11.24 11.37-18.63 14.95"/><path id="kvg:052a3-s3" kvg:type="㇔" d="M79.75 16.75c5.59 2.41 11.75 7.62 14.5 12.34"/></g><g id="kvg:052a3-g3" kvg:element="丿" kvg:radical="nelson"><path id="kvg:052a3-s4" kvg:type="㇒" d="M73.83 24.33c.16.87-.28 2.01-1.07 3.24C66.25 37.74 41.18 54.17 15.75 61"/></g></g><g id="kvg:052a3-g4" kvg:element="力" kvg:position="bottom" kvg:radical="tradit"><path id="kvg:052a3-s5" kvg:type="㇆" d="M32.08 63.45c2.26.81 5.56.79 7.93.47 10.46-1.4 29.97-4.06 36.36-4.77 4.35-.49 5.78 1.04 5.02 5.27-1.77 9.92-6.84 22.31-13.9 29.92-4.8 5.18-7.55.21-8.9-.46"/><path id="kvg:052a3-s6" kvg:type="㇒" d="M56.64 47.43c.36 1.07.29 2.4-.19 3.97-3.32 10.73-13.19 28.98-34.5 42.82"/></g></g></g><g id="kvg:StrokeNumbers_052a3" style="font-size:8;fill:#808080"><text transform="matrix(1 0 0 1 47.00 10.38)">1</text><text transform="matrix(1 0 0 1 27.25 18.25)">2</text><text transform="matrix(1 0 0 1 71.25 16.25)">3</text><text transform="matrix(1 0 0 1 64.25 23.88)">4</text><text transform="matrix(1 0 0 1 25.25 65.88)">5</text><text transform="matrix(1 0 0 1 48.25 55.25)">6</text></g></svg>