<!DOCTYPE svg PUBLIC "-//W3C//DTD SVG 1.0//EN" "http://www.w3.org/TR/2001/REC-SVG-20010904/DTD/svg10.dtd" [
<!ATTLIST g
xmlns:kvg CDATA #FIXED "http://kanjivg.tagaini.net"
kvg:element CDATA #IMPLIED
kvg:variant CDATA #IMPLIED
kvg:partial CDATA #IMPLIED
kvg:original CDATA #IMPLIED
kvg:part CDATA #IMPLIED
kvg:number CDATA #IMPLIED
kvg:tradForm CDATA #IMPLIED
kvg:radicalForm CDATA #IMPLIED
kvg:position CDATA #IMPLIED
kvg:radical CDATA #IMPLIED
kvg:phon CDATA #IMPLIED >
<!ATTLIST path
xmlns:kvg CDATA #FIXED "http://kanjivg.tagaini.net"
kvg:type CDATA #IMPLIED >
]><svg xmlns="http://www.w3.org/2000/svg" width="109" height="109" viewBox="0 0 109 109"><g id="kvg:StrokePaths_052b9" style="fill:none;stroke:#000000;stroke-width:3;stroke-linecap:round;stroke-linejoin:round;"><g id="kvg:052b9" kvg:element="効"><g id="kvg:052b9-g1" kvg:element="交" kvg:position="left" kvg:phon="交"><g id="kvg:052b9-g2" kvg:element="亠" kvg:position="top"><path id="kvg:052b9-s1" kvg:type="㇑a" d="M33.47 17.25c1.08 1.08 1.42 2.75 1.42 4.24.0 3.73-.02 5.87-.1 8.55"/><path id="kvg:052b9-s2" kvg:type="㇐" d="M14.34 33.08c1.44.3 3.74.3 4.85.18 8.32-.88 18.94-2.63 28.9-3.58 1.87-.18 2.84.04 4.24.55"/></g><g id="kvg:052b9-g3" kvg:element="父" kvg:position="bottom"><path id="kvg:052b9-s3" kvg:type="㇒" d="M24.38 40.75c.26.73.01 1.92-.6 3.11-2.43 4.7-6.07 8.96-11.03 13.06"/><path id="kvg:052b9-s4" kvg:type="㇔" d="M42.66 39.14c4.12 2.53 7.53 5.46 9.59 8.53"/><path id="kvg:052b9-s5" kvg:type="㇒" d="M42.38 50c.37.9.54 2.04-.06 3.67-5.62 15.2-13.57 26.71-28.79 37.63"/><path id="kvg:052b9-s6" kvg:type="㇔/㇏" d="M23.5 60.88c6.91 3.63 16.15 12.6 21.74 20.23"/></g></g><g id="kvg:052b9-g4" kvg:element="力" kvg:position="right" kvg:radical="general"><path id="kvg:052b9-s7" kvg:type="㇆" d="M59.14 43.32c1.48.56 3.66.55 4.51.36 7.72-1.68 22.03-4.85 25.83-5.54 2.47-.45 4.66 1.02 4.52 4.16-.36 8.29-6.51 40.83-12.02 47.3-3.39 3.99-6.6.06-7.6-.92"/><path id="kvg:052b9-s8" kvg:type="㇒" d="M76.03 15.93c.72 1.32 1.19 2.1.84 4.64C74.27 39.41 68 73.25 49.14 90.68"/></g></g></g><g id="kvg:StrokeNumbers_052b9" style="font-size:8;fill:#808080"><text transform="matrix(1 0 0 1 24.75 16.63)">1</text><text transform="matrix(1 0 0 1 6.75 34.63)">2</text><text transform="matrix(1 0 0 1 15.75 45.13)">3</text><text transform="matrix(1 0 0 1 34.50 40.50)">4</text><text transform="matrix(1 0 0 1 34.50 52.50)">5</text><text transform="matrix(1 0 0 1 16.50 64.50)">6</text><text transform="matrix(1 0 0 1 57.50 39.50)">7</text><text transform="matrix(1 0 0 1 66.50 15.50)">8</text></g></svg>