<svg xmlns="http://www.w3.org/2000/svg" width="109" height="109" viewBox="0 0 109 109"><g id="kvg:StrokePaths_052cd" style="fill:none;stroke:#000000;stroke-width:3;stroke-linecap:round;stroke-linejoin:round;"><g id="kvg:052cd" kvg:element="勍"><g id="kvg:052cd-g1" kvg:element="京" kvg:position="left"><g id="kvg:052cd-g2" kvg:element="亠" kvg:position="top"><path id="kvg:052cd-s1" kvg:type="㇑a" d="M32.98 12.42c.86.58 2.29 2.86 2.29 4.06.0 4.42-.27 5.83-.1 9.57"/><path id="kvg:052cd-s2" kvg:type="㇐" d="M12.57 28c1.06.07 3.46.48 4.5.39 10.32-.89 26.52-3.89 36.42-4.31 1.74-.07 2.63-.04 3.93.56"/></g><g id="kvg:052cd-g3" kvg:position="bottom"><g id="kvg:052cd-g4" kvg:element="口"><path id="kvg:052cd-s3" kvg:type="㇑" d="M19.07 38.32c.49.39 1.1.67 1.21 1.2.74 3.82 2.83 10.74 3.93 17.98"/><path id="kvg:052cd-s4" kvg:type="㇕b" d="M20.69 40.11c7.4-1.49 22.56-3.5 27.58-4.11 2.08-.25 3.57 1.58 2.74 4.5-.93 3.25-2.12 7.75-3.42 12.25"/><path id="kvg:052cd-s5" kvg:type="㇐b" d="M24.55 55.53C32.9 54.75 41.57 53.5 50.7 53"/></g><g id="kvg:052cd-g5" kvg:element="小"><path id="kvg:052cd-s6" kvg:type="㇚" d="M35.96 57.33c.07.5 1.31 2.61 1.42 5.78.18 5.13-.2 21.23-.2 25.65.0 9.47-5.64.52-6.81-.79"/><path id="kvg:052cd-s7" kvg:type="㇒" d="M22.46 68.5c.03.5.07 1.29-.07 2.01-.86 4.24-5.77 13.54-12.5 19.24"/><path id="kvg:052cd-s8" kvg:type="㇔" d="M47.19 66.25c2.74 2.48 6.52 9.39 7.21 13.25"/></g></g></g><g id="kvg:052cd-g6" kvg:element="力" kvg:position="right" kvg:radical="general"><path id="kvg:052cd-s9" kvg:type="㇆" d="M60.41 39.97c1.07.68 2.4.51 3.36.36 8.98-1.33 22.93-3.34 27.21-3.59 4.27-.24 4.52 2.03 4.37 5.19C94.5 59.25 90.25 77.5 83.8 90.03c-3.43 6.65-6.23.31-7.34-.68"/><path id="kvg:052cd-s10" kvg:type="㇒" d="M77.43 14.18C78 15.25 78 16.5 77.78 18.12c-2.63 19.63-8.27 59.86-26.14 74.78"/></g></g></g></svg>