<svg xmlns="http://www.w3.org/2000/svg" width="109" height="109" viewBox="0 0 109 109"><g id="kvg:StrokePaths_052c1"><g id="kvg:052c1" kvg:element="勁"><g id="kvg:052c1-g1" kvg:element="巠" kvg:position="left"><g id="kvg:052c1-g2" kvg:element="一"><path id="kvg:052c1-s1" kvg:type="㇐" d="M13.5 21.39c2.34.95 5.46.49 7.88.24 7.34-.75 19.02-2.17 26.12-2.75 2.5-.2 5.04-.47 7.5.13"/></g><g id="kvg:052c1-g3" kvg:element="巛"><path id="kvg:052c1-s2" kvg:type="㇛" d="M22.23 30.27c.27 1.11.12 2.1-.1 2.72-1.25 3.63-2.24 6.44-5.12 9.75-1.37 1.57-1.38 2.48.26 3.49 2.1 1.3 3.42 2.5 4.78 4.35.97 1.32 1.82 2.85 2.66 4.66"/><path id="kvg:052c1-s3" kvg:type="㇛" d="M35.73 27.77c.27.98.12 2.1-.1 2.72-1.24 3.62-2.51 6.26-5.8 10.2-.91 1.09-1.33 2.06-.02 2.97 2.38 1.65 4.46 3.54 5.99 5.64.8 1.1 1.45 2.25 1.91 3.45"/><path id="kvg:052c1-s4" kvg:type="㇛" d="M50.23 26.52c.4.98.18 2.12-.1 2.72-1.36 2.94-2.71 4.86-5.59 8.52-1.38 1.76-1.67 1.59-.07 2.9 2.36 1.94 4.29 3.98 5.69 6.04.92 1.36 1.62 2.72 2.05 4.06"/></g><g id="kvg:052c1-g4" kvg:element="工"><path id="kvg:052c1-s5" kvg:type="㇐" d="M15 62c2.38.62 4.77.48 6.62.23 7.38-.98 17.63-2.1 25.13-3.32 1.49-.24 3.38-.41 5.5-.16"/><path id="kvg:052c1-s6" kvg:type="㇑a" d="M32.57 62.52c1.02 1.02 1.23 1.98 1.23 3.73.0 5.95-.05 9.43-.05 15.75"/><path id="kvg:052c1-s7" kvg:type="㇐" d="M14.75 87.51c1 .87 1.97 1.16 3.9.51 7.85-2.65 19.1-6.52 29.85-10.27"/></g></g><g id="kvg:052c1-g5" kvg:element="力" kvg:position="right" kvg:radical="general"><path id="kvg:052c1-s8" kvg:type="㇆" d="M56.15 35.81c2.06 1.24 5.79.44 8 .03 7.99-1.47 18.92-3.06 24.37-3.87 4.11-.62 5.82.26 5.49 4.62C93 50 85.88 78.88 79.85 88.76c-4.32 7.09-6.35 1.49-8.43-.74"/><path id="kvg:052c1-s9" kvg:type="㇒" d="M73.9 13.88c.6 1.37.73 2.31.6 5C73.5 39 68 73.5 47.22 93.17"/></g></g></g></svg>