<!DOCTYPE svg PUBLIC "-//W3C//DTD SVG 1.0//EN" "http://www.w3.org/TR/2001/REC-SVG-20010904/DTD/svg10.dtd" [
<!ATTLIST g
xmlns:kvg CDATA #FIXED "http://kanjivg.tagaini.net"
kvg:element CDATA #IMPLIED
kvg:variant CDATA #IMPLIED
kvg:partial CDATA #IMPLIED
kvg:original CDATA #IMPLIED
kvg:part CDATA #IMPLIED
kvg:number CDATA #IMPLIED
kvg:tradForm CDATA #IMPLIED
kvg:radicalForm CDATA #IMPLIED
kvg:position CDATA #IMPLIED
kvg:radical CDATA #IMPLIED
kvg:phon CDATA #IMPLIED >
<!ATTLIST path
xmlns:kvg CDATA #FIXED "http://kanjivg.tagaini.net"
kvg:type CDATA #IMPLIED >
]><svg xmlns="http://www.w3.org/2000/svg" width="109" height="109" viewBox="0 0 109 109"><g id="kvg:StrokePaths_052df" style="fill:none;stroke:#000000;stroke-width:3;stroke-linecap:round;stroke-linejoin:round;"><g id="kvg:052df" kvg:element="募"><g id="kvg:052df-g1" kvg:element="莫" kvg:position="top" kvg:phon="莫"><g id="kvg:052df-g2" kvg:element="艹" kvg:variant="true" kvg:original="艸" kvg:position="top" kvg:radical="nelson"><path id="kvg:052df-s1" kvg:type="㇐" d="M20.5 21.06c2.49.86 5.22.7 7.75.34 10.63-1.52 37.84-3.8 49.01-4.22 2.96-.11 5.61-.01 8.5.59"/><path id="kvg:052df-s2" kvg:type="㇑a" d="M36.5 12.49c1.25.89 1.81 1.77 2 2.49 1.75 6.71 2 10.16 2.5 12.6"/><path id="kvg:052df-s3" kvg:type="㇑a" d="M68.07 11c.38.86.28 1.98-.05 3.06-1.56 5.12-1.98 7.12-3.76 12.24"/></g><g id="kvg:052df-g3" kvg:position="bottom"><g id="kvg:052df-g4" kvg:element="日"><path id="kvg:052df-s4" kvg:type="㇑" d="M30.77 33.73c.75.75 1.35 2.11 1.52 2.73.92 3.31 2.17 8.93 3.03 12.83.51 2.33.88 4.04.94 4.28"/><path id="kvg:052df-s5" kvg:type="㇕a" d="M32.89 34.92c6.86-.8 30.77-3.43 38-4.03 2.75-.23 5.82.98 5.06 4.12-.73 3.02-2.28 7.68-3.51 11.45-.54 1.64-.93 2.41-1.6 3.7"/><path id="kvg:052df-s6" kvg:type="㇐a" d="M35.14 43.28c9.61-1.4 28.36-3.4 38.21-3.74"/><path id="kvg:052df-s7" kvg:type="㇐a" d="M36.94 51.22c11.93-1.34 23.77-2.48 33.68-2.77"/></g><g id="kvg:052df-g5" kvg:element="大"><path id="kvg:052df-s8" kvg:type="㇐" d="M14.12 64.69c3.51.88 7.19.76 10.75.31C44.62 62.5 67.5 60.5 84 60.02c3.47-.1 7.12-.22 10.5.88"/><path id="kvg:052df-s9" kvg:type="㇒" d="M43.96 56.18c.17.69-.02 1.73-.45 2.48C37.5 69.25 27.62 78.38 13.5 84.75"/><path id="kvg:052df-s10" kvg:type="㇏" d="M60.25 56.35C63 57 76.19 69.14 84.87 75.79c2.31 1.77 4.74 3.38 7.38 4.62"/></g></g></g><g id="kvg:052df-g6" kvg:element="力" kvg:position="bottom" kvg:radical="tradit"><path id="kvg:052df-s11" kvg:type="㇆" d="M36.78 77.78c1.76.75 4.24.58 6.08.28 6.46-1.06 17.72-3.21 22.75-4.02 3.33-.54 5.16.11 4.57 3.88-.67 4.24-2.9 10.49-5.9 15.31-2.81 4.52-4.78 3.9-7.54 1.56"/><path id="kvg:052df-s12" kvg:type="㇒" d="M53.68 67.93c.07.7.22 1.84-.13 2.83-2.42 6.87-9.05 18.49-23.47 27.36"/></g></g></g><g id="kvg:StrokeNumbers_052df" style="font-size:8;fill:#808080"><text transform="matrix(1 0 0 1 14.50 21.50)">1</text><text transform="matrix(1 0 0 1 27.75 13.63)">2</text><text transform="matrix(1 0 0 1 59.25 11.50)">3</text><text transform="matrix(1 0 0 1 24.50 41.50)">4</text><text transform="matrix(1 0 0 1 33.50 32.50)">5</text><text transform="matrix(1 0 0 1 39.75 40.50)">6</text><text transform="matrix(1 0 0 1 39.75 49.50)">7</text><text transform="matrix(1 0 0 1 6.50 65.50)">8</text><text transform="matrix(1 0 0 1 35.50 60.13)">9</text><text transform="matrix(1 0 0 1 51.50 58.50)">10</text><text transform="matrix(1 0 0 1 37.50 75.13)">11</text><text transform="matrix(1 0 0 1 43.50 70.63)">12</text></g></svg>