<svg xmlns="http://www.w3.org/2000/svg" width="109" height="109" viewBox="0 0 109 109"><g id="kvg:StrokePaths_052de" style="fill:none;stroke:#000000;stroke-width:3;stroke-linecap:round;stroke-linejoin:round;"><g id="kvg:052de" kvg:element="勞"><g id="kvg:052de-g1" kvg:element="𤇾" kvg:position="top"><g id="kvg:052de-g2" kvg:element="炏"><g id="kvg:052de-g3" kvg:element="火"><path id="kvg:052de-s1" kvg:type="㇔" d="M21.5 17.68c3 2.32 6 8.57 6.25 12.31"/><path id="kvg:052de-s2" kvg:type="㇒" d="M47.73 13.87c.63.45.34 2.11-.24 2.81-.57.7-5.88 5.14-8.74 6.78"/><path id="kvg:052de-s3" kvg:type="㇒" d="M36.06 10.25c.69.75.7 2.67.69 3.15C36.5 30.25 34.47 35.52 28 39.75"/><path id="kvg:052de-s4" kvg:type="㇏" d="M38.72 27.89c4.39 1.62 9.93 6.73 11.08 9.02"/></g><g id="kvg:052de-g4" kvg:element="火"><path id="kvg:052de-s5" kvg:type="㇔" d="M55.5 15.68C58 19.25 60 25 60.26 28.99"/><path id="kvg:052de-s6" kvg:type="㇒" d="M83.73 13.37c.63.45.34 2.11-.24 2.81-.57.7-6.88 4.64-9.74 6.28"/><path id="kvg:052de-s7" kvg:type="㇒" d="M69.34 10.25c.91.69.91 1.54.91 1.99-.09 17.66-3 21.35-11.5 25.26"/><path id="kvg:052de-s8" kvg:type="㇏" d="M72.22 26.89c3.99 1.89 9.03 7.85 10.08 10.52"/></g></g><g id="kvg:052de-g5" kvg:element="冖"><path id="kvg:052de-s9" kvg:type="㇔" d="M20.16 43.19c-.14 3.93-3.48 14.22-4.66 16.56"/><path id="kvg:052de-s10" kvg:type="㇖b" d="M20.22 47c3.53.0 50.25-4.75 67.97-4.75 12.06.0 3.81 5.75-.69 9.5"/></g></g><g id="kvg:052de-g6" kvg:element="力" kvg:position="bottom" kvg:radical="general"><path id="kvg:052de-s11" kvg:type="㇆" d="M27.98 63.55c1.35.47 3.02.35 4.22.25 11.29-.93 36.76-3.87 42.15-4.04 5.37-.17 5.68 1.41 5.49 3.61-.51 5.8-7.59 25.38-14.65 31.88-5.36 4.95-7.44 1.49-8.74-.97"/><path id="kvg:052de-s12" kvg:type="㇒" d="M53.73 50.18c.09 1.08.24 2.79-.2 4.33-3.22 11.42-10.86 32.73-34.31 41.4"/></g></g></g></svg>