<svg xmlns="http://www.w3.org/2000/svg" width="109" height="109" viewBox="0 0 109 109"><g id="kvg:StrokePaths_052d8" style="fill:none;stroke:#000000;stroke-width:3;stroke-linecap:round;stroke-linejoin:round;"><g id="kvg:052d8" kvg:element="勘"><g id="kvg:052d8-g1" kvg:element="甚" kvg:position="left" kvg:phon="甚"><g id="kvg:052d8-g2" kvg:element="甘" kvg:position="top"><g id="kvg:052d8-g3" kvg:element="廿" kvg:part="1"><g id="kvg:052d8-g4" kvg:element="十"><path id="kvg:052d8-s1" kvg:type="㇐" d="M14.03 29.66c2.6.59 4.66.28 6.74-.02 7.48-1.07 20.34-3.13 29.99-4.19 2.47-.27 4.83-.68 7.25.02"/><path id="kvg:052d8-s2" kvg:type="㇑a" d="M24 17c.94.94 1.15 2.25 1.15 3.62S25.16 59.75 25.16 65"/></g><path id="kvg:052d8-s3" kvg:type="㇑a" d="M45.31 13.78c.83.83.94 1.97.94 3.47s.09 39.38.09 44.96"/></g><path id="kvg:052d8-s4" kvg:type="㇐a" d="M26.19 40.37c2.5-.4 17.13-2.13 18.89-2.13"/><g id="kvg:052d8-g5" kvg:element="廿" kvg:part="2"><path id="kvg:052d8-s5" kvg:type="㇐a" d="M26.19 53.05c4.44-.55 14.44-2.3 19-2.58"/></g></g><g id="kvg:052d8-g6" kvg:element="匹" kvg:position="bottom"><g id="kvg:052d8-g7" kvg:element="匚" kvg:part="1"><path id="kvg:052d8-s6" kvg:type="㇐" d="M10 67.05c2.29.95 5.56.46 7.9.09 10.34-1.63 24.9-3.56 34.84-4.56 2.71-.27 5.33-.62 8.01.05"/></g><g id="kvg:052d8-g8" kvg:element="儿"><g id="kvg:052d8-g9" kvg:element="八" kvg:variant="true"><g id="kvg:052d8-g10" kvg:element="丿" kvg:position="left"><path id="kvg:052d8-s7" kvg:type="㇒" d="M33 68.25c.26.29.41 1.29.26 1.86-1.38 5.02-4 9.64-8.5 14.64"/></g><g id="kvg:052d8-g11" kvg:position="right"><path id="kvg:052d8-s8" kvg:type="㇟" d="M41.21 66.53c.88.88 1.05 1.97 1.05 3.51.0.95-.13 2.28-.13 5.06.0 6.02 1.52 6.64 6.63 6.64s5.52-.79 6.24-1.62"/></g></g></g><g id="kvg:052d8-g12" kvg:element="匚" kvg:part="2"><path id="kvg:052d8-s9" kvg:type="㇗a" d="M18.31 69.14c1.15 1.15 1.26 2.24 1.26 4.18.0 2.8-.08 4.06-.08 11.18S20.88 93 37.35 93c10.53.0 14.78-.76 16.7-1.77"/></g></g></g><g id="kvg:052d8-g13" kvg:element="力" kvg:position="right" kvg:radical="general"><path id="kvg:052d8-s10" kvg:type="㇆" d="M59.22 43.89c2.03.61 4.92.7 6.51.45 10.41-1.62 21.59-4.1 25.84-4.84 3.55-.62 4.53.58 4.41 3.81-.44 11.87-4.24 34-8.79 46.75-3.06 8.57-6.56 5.19-9.64 1.77"/><path id="kvg:052d8-s11" kvg:type="㇒" d="M77.42 17.68c.83 1.07.98 2.58.9 4.4-.95 20.8-3.95 54.3-19.46 73.33"/></g></g></g></svg>