<!DOCTYPE svg PUBLIC "-//W3C//DTD SVG 1.0//EN" "http://www.w3.org/TR/2001/REC-SVG-20010904/DTD/svg10.dtd" [
<!ATTLIST g
xmlns:kvg CDATA #FIXED "http://kanjivg.tagaini.net"
kvg:element CDATA #IMPLIED
kvg:variant CDATA #IMPLIED
kvg:partial CDATA #IMPLIED
kvg:original CDATA #IMPLIED
kvg:part CDATA #IMPLIED
kvg:number CDATA #IMPLIED
kvg:tradForm CDATA #IMPLIED
kvg:radicalForm CDATA #IMPLIED
kvg:position CDATA #IMPLIED
kvg:radical CDATA #IMPLIED
kvg:phon CDATA #IMPLIED >
<!ATTLIST path
xmlns:kvg CDATA #FIXED "http://kanjivg.tagaini.net"
kvg:type CDATA #IMPLIED >
]><svg xmlns="http://www.w3.org/2000/svg" width="109" height="109" viewBox="0 0 109 109"><g id="kvg:StrokePaths_052e6" style="fill:none;stroke:#000000;stroke-width:3;stroke-linecap:round;stroke-linejoin:round;"><g id="kvg:052e6" kvg:element="勦"><g id="kvg:052e6-g1" kvg:element="巢" kvg:variant="true" kvg:position="left"><g id="kvg:052e6-g2" kvg:element="巛"><path id="kvg:052e6-s1" kvg:type="㇛" d="M23.09 12.66c.62.26.13 2.07-.1 2.68-1.51 3.95-2.74 6.41-6.44 11.11-.64.81-.37.7.0.89 4.61 2.3 5.58 5.51 8 10.19"/><path id="kvg:052e6-s2" kvg:type="㇛" d="M37.3 12.66c.62.26.13 2.07-.11 2.68-1.51 3.95-3.45 6.57-7.44 10.11-.77.68-.37.7.0.89 4.61 2.3 7.5 6.16 9.05 10.19"/><path id="kvg:052e6-s3" kvg:type="㇛" d="M50.74 12.16c.62.26.07 2.05-.1 2.68-.89 3.16-3.14 6.41-6.44 9.63-.74.72-.34.66.0.89 3.56 2.39 6.56 5.64 8 9.67"/></g><g id="kvg:052e6-g3" kvg:element="果" kvg:position="bottom"><g id="kvg:052e6-g4" kvg:element="日" kvg:part="1"><g id="kvg:052e6-g5" kvg:element="日"><path id="kvg:052e6-s4" kvg:type="㇑" d="M17.38 42.18c.47.51 1.14 1.13 1.14 1.82s3.21 19.02 3.21 19.37c0 .35.08.35.17 1.04"/><path id="kvg:052e6-s5" kvg:type="㇕a" d="M18.61 43.32c1.41-.09 29.96-3.08 31.25-3.08 1.69.01 2.39 2.01 2.31 2.52C52 43.8 49.25 58.5 47.97 62.52"/><path id="kvg:052e6-s6" kvg:type="㇐a" d="M19.82 53.04c1.9.0 27.62-2.56 29.77-2.56"/><path id="kvg:052e6-s7" kvg:type="㇐a" d="M22.47 62.81c3.88-.37 20.4-1.72 25.23-2.03"/></g></g><g id="kvg:052e6-g6" kvg:element="木"><path id="kvg:052e6-s8" kvg:type="㇐" d="M10.71 72.57c.5.17 1.82.46 3.15.52 3.65.17 28.94-3.34 39.55-3.68 1.33-.04 1.66.17 2.49.35"/><g id="kvg:052e6-g7" kvg:element="日" kvg:part="2"><path id="kvg:052e6-s9" kvg:type="㇑" d="M33.94 44.6c.77.39 1.23 1.77 1.38 2.55.15.78.0 45.69-.15 50.59"/></g><path id="kvg:052e6-s10" kvg:type="㇒" d="M34.97 71.94c-4.26 6.94-15.35 16.76-24.22 20.69"/><path id="kvg:052e6-s11" kvg:type="㇔/㇏" d="M37.82 76.24c4.83 1.61 11.6 6.44 13.87 10.12"/></g></g></g><g id="kvg:052e6-g8" kvg:element="力" kvg:position="right" kvg:radical="general"><path id="kvg:052e6-s12" kvg:type="㇆" d="M58.41 36.97c1.07.68 2.4.44 3.36.36 7.73-.58 23.93-3.34 28.21-3.59 4.27-.24 4.6 2.04 4.37 5.19C93.25 53.75 88 77.25 80.3 91.53c-3.55 6.59-6.23.31-7.34-.68"/><path id="kvg:052e6-s13" kvg:type="㇒" d="M77.43 14.18c.82 1.08 1.18 2.12.86 4.69-2.38 18.97-8.79 58.39-25.9 74.79"/></g></g></g><g id="kvg:StrokeNumbers_052e6" style="font-size:8;fill:#808080"><text transform="matrix(1 0 0 1 16.50 13.50)">1</text><text transform="matrix(1 0 0 1 29.50 12.50)">2</text><text transform="matrix(1 0 0 1 43.50 12.50)">3</text><text transform="matrix(1 0 0 1 12.50 49.50)">4</text><text transform="matrix(1 0 0 1 16.50 40.50)">5</text><text transform="matrix(1 0 0 1 23.50 50.50)">6</text><text transform="matrix(1 0 0 1 24.50 61.50)">7</text><text transform="matrix(1 0 0 1 3.50 74.50)">8</text><text transform="matrix(1 0 0 1 39.50 48.50)">9</text><text transform="matrix(1 0 0 1 17.50 81.50)">10</text><text transform="matrix(1 0 0 1 45.25 79.50)">11</text><text transform="matrix(1 0 0 1 55.50 34.50)">12</text><text transform="matrix(1 0 0 1 64.50 13.50)">13</text></g></svg>