<svg xmlns="http://www.w3.org/2000/svg" width="109" height="109" viewBox="0 0 109 109"><g id="kvg:StrokePaths_052e7" style="fill:none;stroke:#000000;stroke-width:3;stroke-linecap:round;stroke-linejoin:round;"><g id="kvg:052e7" kvg:element="勧"><g id="kvg:052e7-g1" kvg:position="left" kvg:phon="雚V"><g id="kvg:052e7-g2" kvg:element="𠂉"><path id="kvg:052e7-s1" kvg:type="㇒" d="M32 11.75c.05.58.05 1.56-.35 2.31C28.5 20 23.88 26.62 15.25 34.5"/><path id="kvg:052e7-s2" kvg:type="㇐" d="M28.75 25.25c.65.05 1.91-.07 3.5-.29 4.84-.68 11.19-2.31 14.5-3.11 1.77-.43 3.44-.71 5.25-.35"/></g><path id="kvg:052e7-s3" kvg:type="㇐" d="M12.75 40.64c2.62.61 4.97.19 7.37-.17 9-1.35 20.98-3.03 30-4.1 2.3-.27 4.12-.67 6.37-.12"/><g id="kvg:052e7-g3" kvg:element="隹"><g id="kvg:052e7-g4" kvg:element="亻" kvg:variant="true" kvg:original="人"><path id="kvg:052e7-s4" kvg:type="㇒" d="M35.32 27.25c.43 1.5.28 2.56-.26 4.34-3.31 10.91-9.81 23.16-21.34 35.48"/><path id="kvg:052e7-s5" kvg:type="㇑" d="M23.92 55.78c.65.65.67 1.43.67 2.71.0 6.29-.05 22.16-.07 31.51-.01 2.73-.01 4.91-.01 6.12"/></g><path id="kvg:052e7-s6" kvg:type="㇒" d="M42.98 42.5c.05.58-.01 1.34-.16 1.84-.95 3.17-1.16 3.63-3.35 7.49"/><path id="kvg:052e7-s7" kvg:type="㇐b" d="M24.15 55.55c4.77-.62 18.89-2.45 25.35-3.29 1.72-.22 2.98-.4 3.53-.49"/><path id="kvg:052e7-s8" kvg:type="㇑a" d="M39.08 55.2c.67.67 1.02 1.8 1.02 3.02.0 5.46-.1 21.98-.1 31.15"/><path id="kvg:052e7-s9" kvg:type="㇐b" d="M25.72 66.9c4.44-.51 16.83-2.03 22.82-2.74 1.71-.2 2.98-.36 3.52-.44"/><path id="kvg:052e7-s10" kvg:type="㇐b" d="M25.53 77.97c4.5-.41 16.04-1.49 22.27-2.38 2.1-.3 3.67-.52 4.32-.6"/><path id="kvg:052e7-s11" kvg:type="㇐b" d="M25.51 92.12c4.64-.61 15.65-1.64 22.04-2.28 1.94-.19 3.38-.35 3.98-.45"/></g></g><g id="kvg:052e7-g5" kvg:element="力" kvg:position="right" kvg:radical="general"><path id="kvg:052e7-s12" kvg:type="㇆" d="M59 43.17c2.75.83 4.66.63 6.88.34 8.69-1.14 19.16-3.47 24.24-4.43 3.96-.75 5.31 1.06 5.14 5.01C94.75 55.88 90 78.75 83.89 91.92c-3.25 7-6.52.32-7.68-.69"/><path id="kvg:052e7-s13" kvg:type="㇒" d="M76.44 18.18c.68 1.2.93 2.07.81 4.07-1.23 19.72-5 52-23.75 72.25"/></g></g></g></svg>