<svg xmlns="http://www.w3.org/2000/svg" width="109" height="109" viewBox="0 0 109 109"><g id="kvg:StrokePaths_052f2"><g id="kvg:052f2" kvg:element="勲"><g id="kvg:052f2-g1" kvg:element="動" kvg:position="top"><g id="kvg:052f2-g2" kvg:element="重" kvg:position="left" kvg:phon="熏V1"><g id="kvg:052f2-g3" kvg:element="千" kvg:part="1"><g id="kvg:052f2-g4" kvg:element="丿"><path id="kvg:052f2-s1" kvg:type="㇒" d="M49.29 13.14c0 1.24-1.44 2.18-2.06 2.54-3.81 2.16-11.99 5.23-24.81 8.21"/></g><g id="kvg:052f2-g5" kvg:element="十" kvg:part="1"><path id="kvg:052f2-s2" kvg:type="㇐" d="M14.97 30.29c2.43.3 4.76.15 7.17-.18 7.99-1.1 18.77-2.15 26.5-2.94 2.58-.26 5.07-.6 7.64-.09"/></g></g><g id="kvg:052f2-g6" kvg:element="里" kvg:variant="true"><path id="kvg:052f2-s3" kvg:type="㇑" d="M20.29 38.85c.68.68 1.15 1.63 1.32 2.51 1.02 5.52 1.49 8.6 2.25 13.34.26 1.6.47 3.15.63 4.53"/><path id="kvg:052f2-s4" kvg:type="㇕a" d="M22.2 40.16c10.21-1.86 19.18-3.17 27.18-4.1 3.52-.41 5.76.13 5.11 4.31-.43 2.74-1.12 6.6-1.88 10.69-.27 1.46-.55 2.92-.81 4.29"/><path id="kvg:052f2-s5" kvg:type="㇐a" d="M23.74 47.85c2.83-.41 24.76-3.23 28.72-3.23"/><path id="kvg:052f2-s6" kvg:type="㇐a" d="M25.35 56.85c9.23-1.62 17.09-2.53 25.72-3.37"/><g id="kvg:052f2-g7" kvg:element="千" kvg:part="2"><g id="kvg:052f2-g8" kvg:element="十" kvg:part="2"><path id="kvg:052f2-s7" kvg:type="㇑a" d="M37.08 22.38c.64.64 1.03 1.75 1.03 3.02.0.72-.12 40.21-.12 46.73"/></g></g><path id="kvg:052f2-s8" kvg:type="㇐" d="M22.57 66.52c1.53.53 3.91.18 5.46-.08 7.73-1.32 14.35-2.94 18.98-3.82 1.03-.2 2.62-.35 3.14-.25"/><path id="kvg:052f2-s9" kvg:type="㇀/㇐" d="M18.7 77.2c.8.93 1.82 1.51 3.86.89 10.44-3.21 14.19-4.33 27.35-8.41"/></g></g><g id="kvg:052f2-g9" kvg:element="力" kvg:position="right" kvg:radical="tradit"><path id="kvg:052f2-s10" kvg:type="㇆" d="M61.97 34.72c2.03.53 4.48.81 6.27.47 6.86-1.31 15.93-3.2 20.63-3.99 4.92-.83 5.51 1.51 4.88 5.93-1.3 9.07-6.12 27.25-10.59 34.55-3.78 6.17-5.4 2.7-7.06-.05"/><path id="kvg:052f2-s11" kvg:type="㇒" d="M77.14 15.17c.86 1.21.83 2.29.52 4.24-2.29 14.35-5.91 37.35-20.29 53"/></g></g><g id="kvg:052f2-g10" kvg:element="灬" kvg:variant="true" kvg:original="火" kvg:position="bottom" kvg:radical="nelson" kvg:phon="熏V2"><path id="kvg:052f2-s12" kvg:type="㇔" d="M23.19 83.71c0 5.18-3.92 12.82-4.94 14.29"/><path id="kvg:052f2-s13" kvg:type="㇔" d="M40.52 82.57c2.45 2.62 4.78 9.84 5.39 13.93"/><path id="kvg:052f2-s14" kvg:type="㇔" d="M61.17 82.46c2.27 2.56 5.86 10.55 6.43 14.54"/><path id="kvg:052f2-s15" kvg:type="㇔" d="M81.88 82.38c3.59 2.53 9.28 10.42 10.18 14.36"/></g></g></g></svg>