<svg xmlns="http://www.w3.org/2000/svg" width="109" height="109" viewBox="0 0 109 109"><g id="kvg:StrokePaths_05306"><g id="kvg:05306" kvg:element="匆"><g id="kvg:05306-g1" kvg:element="勿"><g id="kvg:05306-g2" kvg:element="勹" kvg:radical="general"><path id="kvg:05306-s1" kvg:type="㇒" d="M38.5 15.5c.06.76.33 2.03-.13 3.05-3.13 6.95-9.13 19.2-21.13 29.2"/><path id="kvg:05306-s2" kvg:type="㇆" d="M32.75 34.14c1.29.67 3.05.57 5.16.45 6.09-.34 39.5-3.76 44.66-3.98 5.16-.22 6.2 2.24 5.42 6.95-.77 4.71-6.7 40.4-18.05 53.18-3.41 3.84-5.21 1.68-8.26-1.12"/></g><path id="kvg:05306-s3" kvg:type="㇒" d="M47.5 37.75c.07.65.2 1.71-.14 2.63C44 49.43 36 58.06 22.75 65.5"/><path id="kvg:05306-s4" kvg:type="㇒" d="M67.44 35.5c.13 1.26-.05 3.3-.76 5.04C62 52 48.32 73.98 24 88.25"/></g><path id="kvg:05306-s5" kvg:type="㇔" d="M31.77 48.08c11.49 3.02 29.67 12.43 32.54 17.13"/></g></g></svg>