<svg xmlns="http://www.w3.org/2000/svg" width="109" height="109" viewBox="0 0 109 109"><g id="kvg:StrokePaths_05308" style="fill:none;stroke:#000000;stroke-width:3;stroke-linecap:round;stroke-linejoin:round;"><g id="kvg:05308" kvg:element="匈"><g id="kvg:05308-g1" kvg:element="勹" kvg:position="kamae" kvg:radical="general"><g id="kvg:05308-g2" kvg:element="丿"><path id="kvg:05308-s1" kvg:type="㇒" d="M40.5 11.5c.07.89.35 2.35-.13 3.56C37 23.5 32 35.75 17.25 49.13"/></g><path id="kvg:05308-s2" kvg:type="㇆" d="M38.5 27.01c1.29.79 3.1 1.06 5.16.53 2.06-.53 39.5-5.03 44.66-5.29 5.16-.26 6.2 2.65 5.42 8.2C92.97 36.01 89 76 78.19 93.62c-2.97 4.83-5.21 1.99-8.26-1.32"/></g><g id="kvg:05308-g3" kvg:element="凶"><g id="kvg:05308-g4" kvg:element="乂"><g id="kvg:05308-g5" kvg:element="丿"><path id="kvg:05308-s3" kvg:type="㇒" d="M54.88 39.68c.34.87.61 1.53.17 3.09-3.96 13.88-11.17 26.32-20.93 32.48"/></g><path id="kvg:05308-s4" kvg:type="㇔/㇏" d="M37.02 50.42c8.48 4.33 17.48 11.83 22.33 20.34"/></g><g id="kvg:05308-g6" kvg:element="凵" kvg:position="kamae"><path id="kvg:05308-s5" kvg:type="㇄a" d="M26.97 52.44c.45.27 1.11 3.02 1.01 3.56-.98 5.25-2.23 16.5-2.64 25.13-.08 1.62 1.03 2.28 1.9 2.03 11.02-3.17 35.11-4.8 39.85-5.07"/><path id="kvg:05308-s6" kvg:type="㇑" d="M68.41 46.88c.46.27 1.42 2.02 1.51 2.56S68.5 69 67.77 82.28"/></g></g></g></g></svg>