<svg xmlns="http://www.w3.org/2000/svg" width="109" height="109" viewBox="0 0 109 109"><g id="kvg:StrokePaths_0532f"><g id="kvg:0532f" kvg:element="匯"><g id="kvg:0532f-g1" kvg:element="匚" kvg:part="1" kvg:position="kamae" kvg:radical="general"><path id="kvg:0532f-s1" kvg:type="㇐" d="M17.88 17.04c1.55.51 4.39.6 5.94.51 16.13-.86 42.15-3.51 59.82-3.51 2.58.0 4.13.25 5.42.5"/></g><g id="kvg:0532f-g2" kvg:element="淮"><g id="kvg:0532f-g3" kvg:element="氵" kvg:variant="true" kvg:original="水" kvg:position="left"><path id="kvg:0532f-s2" kvg:type="㇔" d="M32.85 26.06c3.42 1.28 8.82 5.27 9.67 7.27"/><path id="kvg:0532f-s3" kvg:type="㇔" d="M28.25 44.37c3.52 1.13 9.1 4.64 9.98 6.39"/><path id="kvg:0532f-s4" kvg:type="㇀" d="M30.38 79.29c1.31.92 2.9.95 3.72-.18 2.41-3.29 4.82-7.31 7.01-11.51"/></g><g id="kvg:0532f-g4" kvg:element="隹" kvg:position="right"><g id="kvg:0532f-g5" kvg:element="亻" kvg:variant="true" kvg:original="人"><path id="kvg:0532f-s5" kvg:type="㇒" d="M58.88 24.91c.15 1.24-.04 2.86-.54 3.91-3.15 6.75-6.63 12.96-13.85 21.18"/><path id="kvg:0532f-s6" kvg:type="㇑" d="M53.33 38.76c.59.7 1.04 2.23 1.07 3.31.35 9.64-.48 38.19-.19 43.21"/></g><path id="kvg:0532f-s7" kvg:type="㇒" d="M75.47 24.73c.08.68-.02 1.58-.26 2.16-1.53 3.73-3.49 6.62-7.01 11.16"/><path id="kvg:0532f-s8" kvg:type="㇐b" d="M53.73 40.46c8.22-.92 31.25-3.65 34.16-4.15"/><path id="kvg:0532f-s9" kvg:type="㇑a" d="M70.42 40.4c.33.36.59.84.59 1.46.0 6.25.04 27.85-.16 37.69"/><path id="kvg:0532f-s10" kvg:type="㇐b" d="M55.14 53.79c6.41-.75 27.72-2.34 30.47-2.75"/><path id="kvg:0532f-s11" kvg:type="㇐b" d="M54.37 66.82c6.76-.63 28.48-2.82 31.38-3.16"/><path id="kvg:0532f-s12" kvg:type="㇐b" d="M54.37 82.51C61.16 81.6 88.08 80.1 91 79.6"/></g></g><g id="kvg:0532f-g6" kvg:element="匚" kvg:part="2" kvg:position="kamae" kvg:radical="general"><path id="kvg:0532f-s13" kvg:type="㇗" d="M21.83 18.96c0 3.8-.5 70.21-.5 73.77.0 3.02 1.01 3.92 2.81 3.8 10.21-.71 59.88-4.56 63.2-4.56 3.32.0 6.12.24 8.17.71"/></g></g></g></svg>