<!DOCTYPE svg PUBLIC "-//W3C//DTD SVG 1.0//EN" "http://www.w3.org/TR/2001/REC-SVG-20010904/DTD/svg10.dtd" [
<!ATTLIST g
xmlns:kvg CDATA #FIXED "http://kanjivg.tagaini.net"
kvg:element CDATA #IMPLIED
kvg:variant CDATA #IMPLIED
kvg:partial CDATA #IMPLIED
kvg:original CDATA #IMPLIED
kvg:part CDATA #IMPLIED
kvg:number CDATA #IMPLIED
kvg:tradForm CDATA #IMPLIED
kvg:radicalForm CDATA #IMPLIED
kvg:position CDATA #IMPLIED
kvg:radical CDATA #IMPLIED
kvg:phon CDATA #IMPLIED >
<!ATTLIST path
xmlns:kvg CDATA #FIXED "http://kanjivg.tagaini.net"
kvg:type CDATA #IMPLIED >
]><svg xmlns="http://www.w3.org/2000/svg" width="109" height="109" viewBox="0 0 109 109"><g id="kvg:StrokePaths_05320" style="fill:none;stroke:#000000;stroke-width:3;stroke-linecap:round;stroke-linejoin:round;"><g id="kvg:05320" kvg:element="匠"><g id="kvg:05320-g1" kvg:element="匚" kvg:part="1" kvg:position="kamae" kvg:radical="general"><path id="kvg:05320-s1" kvg:type="㇐" d="M21.38 20.98c3.62.77 7.34.7 10.75.52 14.34-.78 33.9-1.95 48.74-2.67 3.23-.16 6.58-.19 9.75.49"/></g><g id="kvg:05320-g2" kvg:element="斤"><path id="kvg:05320-s2" kvg:type="㇒" d="M69.35 27c-.35.88-1.02 1.63-1.69 2.18-5 4.15-12.26 7.37-22.06 11.03"/><path id="kvg:05320-s3" kvg:type="㇒" d="M42.32 38.23c.85.85 1.01 2.82 1.04 4.26C43.75 63.5 41.5 73.5 33.22 81.31"/><path id="kvg:05320-s4" kvg:type="㇐" d="M45.72 50.07c1.02.0 2.61-.11 4.56-.3 8.14-.78 22.48-2.47 29.48-3.04 1.87-.15 3.98-.49 5.83-.15"/><path id="kvg:05320-s5" kvg:type="㇑" d="M65.07 51.33c.86.86 1.14 2.3 1.14 3.68.0.54-.04 12.85-.05 22.12.0 1.77.0 3.43.0 4.88"/></g><g id="kvg:05320-g3" kvg:element="匚" kvg:part="2" kvg:position="kamae" kvg:radical="general"><path id="kvg:05320-s6" kvg:type="㇗" d="M23.75 21.75c.81.81 1.15 2.25 1.15 3.51.0 13.31-1.37 54.01-1.62 63.62-.07 2.85.33 4.92 3.71 4.38 11.81-1.89 39.12-4.5 57.62-4.13 3.4.07 6.58.56 9.88 1.38"/></g></g></g><g id="kvg:StrokeNumbers_05320" style="font-size:8;fill:#808080"><text transform="matrix(1 0 0 1 25.50 18.50)">1</text><text transform="matrix(1 0 0 1 58.50 29.50)">2</text><text transform="matrix(1 0 0 1 35.25 44.50)">3</text><text transform="matrix(1 0 0 1 49.50 46.63)">4</text><text transform="matrix(1 0 0 1 58.50 58.50)">5</text><text transform="matrix(1 0 0 1 16.50 29.50)">6</text></g></svg>