<svg xmlns="http://www.w3.org/2000/svg" width="109" height="109" viewBox="0 0 109 109"><g id="kvg:StrokePaths_05339"><g id="kvg:05339" kvg:element="匹"><g id="kvg:05339-g1" kvg:element="匸" kvg:part="1" kvg:position="kamae" kvg:radical="general"><path id="kvg:05339-s1" kvg:type="㇐" d="M17.38 23.09c3.05.97 6.26.86 9.38.52 15.15-1.67 35.99-4.36 52.87-4.98 3.6-.13 6.71-.04 10.25.64"/></g><g id="kvg:05339-g2" kvg:element="儿"><g id="kvg:05339-g3" kvg:element="八" kvg:variant="true"><g id="kvg:05339-g4" kvg:element="丿" kvg:position="left"><path id="kvg:05339-s2" kvg:type="㇒" d="M45.27 29.25c1.05 1.05 1.42 2.46 1.42 3.98.0 13.02-3.31 32.27-15.19 41.02"/></g><g id="kvg:05339-g5" kvg:position="right"><path id="kvg:05339-s3" kvg:type="㇟" d="M64.99 27.37c1.2 1.2 1.38 2.59 1.38 4.43.0 8.45-.1 17.83-.1 27.95.0 8.12.98 9.53 10.58 9.53 8.9.0 10.9-1.03 12.15-2.37"/></g></g></g><g id="kvg:05339-g6" kvg:element="匸" kvg:part="2" kvg:position="kamae" kvg:radical="general"><path id="kvg:05339-s4" kvg:type="㇗" d="M21.75 24.9c.5.85 1 2.22 1 4.1.0 12.97-1.5 52.62-1.5 57.48.0 2.38.94 3.79 3.37 3.51C38.05 88.42 70.5 85.75 86 85.95c3.25.04 6 .22 8 .67"/></g></g></g></svg>