<svg xmlns="http://www.w3.org/2000/svg" width="109" height="109" viewBox="0 0 109 109"><g id="kvg:StrokePaths_05333" style="fill:none;stroke:#000000;stroke-width:3;stroke-linecap:round;stroke-linejoin:round;"><g id="kvg:05333" kvg:element="匳"><g id="kvg:05333-g1" kvg:element="匚" kvg:part="1" kvg:position="kamae" kvg:radical="general"><path id="kvg:05333-s1" kvg:type="㇐" d="M17.38 16.04c1.55.51 4.39.6 5.94.51 16.13-.86 42.15-3.51 59.82-3.51 2.58.0 4.13.25 5.42.5"/></g><g id="kvg:05333-g2" kvg:element="僉"><g id="kvg:05333-g3" kvg:element="人" kvg:position="top"><path id="kvg:05333-s2" kvg:type="㇒" d="M53.03 21.25c.07.73.31 1.95-.14 2.93C50.01 30.39 41.85 43.44 28.2 52.2"/><path id="kvg:05333-s3" kvg:type="㇏" d="M54.2 24.16c4 4.03 21.26 17.2 25.67 20.15 1.5 1 3.42 1.43 4.92 1.72"/></g><g id="kvg:05333-g4" kvg:position="bottom"><g id="kvg:05333-g5" kvg:element="一"><path id="kvg:05333-s4" kvg:type="㇐" d="M42.32 45.35c.48.18 1.36.18 1.84.18 3.68-.05 19.04-2.45 21.99-2.25.8.05 1.28.08 1.68.17"/></g><g id="kvg:05333-g6" kvg:element="口"><path id="kvg:05333-s5" kvg:type="㇑" d="M34.36 55.08c.26.23.53.42.65.71.91 2.29 2.41 8.6 3.03 12.7"/><path id="kvg:05333-s6" kvg:type="㇕b" d="M35.6 56.29c6.66-1.04 12.83-2.17 15.92-2.47 1.13-.11 1.8.65 1.64 1.3-.67 2.67-1.45 6.08-2.44 9.77"/><path id="kvg:05333-s7" kvg:type="㇐b" d="M38.17 67.17c3.62-.34 9.52-1.42 14.48-1.95"/></g><g id="kvg:05333-g7" kvg:element="口"><path id="kvg:05333-s8" kvg:type="㇑" d="M59.84 51.98c.25.25.51.46.63.78.88 2.51 1.94 9.43 2.54 13.94"/><path id="kvg:05333-s9" kvg:type="㇕b" d="M61.42 53.28c5.31-.96 13.03-2.03 16.01-2.36 1.09-.12 1.74.71 1.59 1.42-.63 2.87-2.37 6.74-3.36 10.94"/><path id="kvg:05333-s10" kvg:type="㇐b" d="M63.13 64.73c3.5-.37 9.82-1.02 14.62-1.59"/></g><g id="kvg:05333-g8" kvg:element="人"><path id="kvg:05333-s11" kvg:type="㇒" d="M45.73 68.78c.16.87.1 1.71-.12 2.27C43.67 76 39.23 82.54 31.27 88.5"/><path id="kvg:05333-s12" kvg:type="㇏" d="M44.32 76.33c3.42 1.25 7.79 4.56 9.45 7.7"/></g><g id="kvg:05333-g9" kvg:element="人"><path id="kvg:05333-s13" kvg:type="㇒" d="M70.2 67.25c.15.91.19 1.82-.11 2.36C67.25 74.75 63 81.5 56.99 87.75"/><path id="kvg:05333-s14" kvg:type="㇏" d="M67.95 75.57c5.1 1.8 11.63 6.59 14.11 11.12"/></g></g></g><g id="kvg:05333-g10" kvg:element="匚" kvg:part="2" kvg:position="kamae" kvg:radical="general"><path id="kvg:05333-s15" kvg:type="㇗" d="M20.83 16.96c0 3.8-.5 71.71-.5 75.27.0 3.02 1.01 3.92 2.81 3.8 10.21-.71 58.38-3.06 61.7-3.06 3.32.0 6.12.24 8.17.71"/></g></g></g></svg>