<svg xmlns="http://www.w3.org/2000/svg" width="109" height="109" viewBox="0 0 109 109"><g id="kvg:StrokePaths_0534d" style="fill:none;stroke:#000000;stroke-width:3;stroke-linecap:round;stroke-linejoin:round;"><g id="kvg:0534d" kvg:element="卍"><path id="kvg:0534d-s1" kvg:type="㇐" d="M19.25 18.89c.94.38 2.66.46 3.6.38C29 18.75 45.5 16.5 51.96 15.89c1.56-.15 2.5.18 3.29.37"/><g id="kvg:0534d-g1" kvg:element="十" kvg:radical="tradit"><path id="kvg:0534d-s2" kvg:type="㇐" d="M18.53 56.78c1.31.46 3.72.57 5.03.46 16.67-1.49 47.34-4.08 58.84-4.25 2.18-.03 3.5.22 4.59.45"/><g id="kvg:0534d-g2" kvg:element="丨" kvg:radical="nelson"><path id="kvg:0534d-s3" kvg:type="㇑" d="M54.23 16.85c.12.94-.08 73.41-.2 79.29"/></g></g><path id="kvg:0534d-s4" kvg:type="㇑" d="M85.73 14.88c.6.47 1.5 2.37 1.5 4.46.0.95-.08 31.41-.2 37.29"/><path id="kvg:0534d-s5" kvg:type="㇑" d="M18.73 55.88c.6.47 2 1.87 2 3.46.0.95-.08 30.78-.2 36.65"/><path id="kvg:0534d-s6" kvg:type="㇐" d="M54 93.04c1.02.42 2.9.51 3.92.42 6.71-.58 23.33-2.71 31.24-2.26 1.7.1 2.73.2 3.58.41"/></g></g></svg>