<!DOCTYPE svg PUBLIC "-//W3C//DTD SVG 1.0//EN" "http://www.w3.org/TR/2001/REC-SVG-20010904/DTD/svg10.dtd" [
<!ATTLIST g
xmlns:kvg CDATA #FIXED "http://kanjivg.tagaini.net"
kvg:element CDATA #IMPLIED
kvg:variant CDATA #IMPLIED
kvg:partial CDATA #IMPLIED
kvg:original CDATA #IMPLIED
kvg:part CDATA #IMPLIED
kvg:number CDATA #IMPLIED
kvg:tradForm CDATA #IMPLIED
kvg:radicalForm CDATA #IMPLIED
kvg:position CDATA #IMPLIED
kvg:radical CDATA #IMPLIED
kvg:phon CDATA #IMPLIED >
<!ATTLIST path
xmlns:kvg CDATA #FIXED "http://kanjivg.tagaini.net"
kvg:type CDATA #IMPLIED >
]><svg xmlns="http://www.w3.org/2000/svg" width="109" height="109" viewBox="0 0 109 109"><g id="kvg:StrokePaths_05349" style="fill:none;stroke:#000000;stroke-width:3;stroke-linecap:round;stroke-linejoin:round;"><g id="kvg:05349" kvg:element="卉"><g id="kvg:05349-g1" kvg:element="十" kvg:position="top" kvg:radical="tradit"><path id="kvg:05349-s1" kvg:type="㇐" d="M24.89 30.46c1.1.39 3.11.49 4.2.39 13.93-1.28 42.08-4.34 51.69-4.5 1.83-.03 2.92.19 3.84.38"/><g id="kvg:05349-g2" kvg:element="丨" kvg:radical="nelson"><path id="kvg:05349-s2" kvg:type="㇑" d="M53.27 11.88c.38.3 1.19 2.27 1.26 2.87.08.61-.05 30.6-.13 34.38"/></g></g><g id="kvg:05349-g3" kvg:element="廾" kvg:position="bottom"><g id="kvg:05349-g4" kvg:element="十" kvg:part="1" kvg:radical="tradit"><path id="kvg:05349-s3" kvg:type="㇐" d="M13.88 59.98c1.52.54 4.3.63 5.82.54 15.8-.91 50.55-5.27 70.61-5.73 2.53-.06 4.05.26 5.31.53"/></g><g id="kvg:05349-g5" kvg:element="丿"><path id="kvg:05349-s4" kvg:type="㇒" d="M37.61 45c.66 1.21 1.28 2.47 1.34 4.23.53 16.09-2.12 38.99-19.7 47.77"/></g><g id="kvg:05349-g6" kvg:element="十" kvg:part="2" kvg:radical="tradit"><path id="kvg:05349-s5" kvg:type="㇑" d="M70.87 41.75c.7.72 1.96 1.75 1.96 3.25.0 6.75.0 45.75-.22 52"/></g></g></g></g><g id="kvg:StrokeNumbers_05349" style="font-size:8;fill:#808080"><text transform="matrix(1 0 0 1 18.50 30.50)">1</text><text transform="matrix(1 0 0 1 44.50 12.50)">2</text><text transform="matrix(1 0 0 1 6.50 61.50)">3</text><text transform="matrix(1 0 0 1 28.50 45.50)">4</text><text transform="matrix(1 0 0 1 62.50 42.50)">5</text></g></svg>