<svg xmlns="http://www.w3.org/2000/svg" width="109" height="109" viewBox="0 0 109 109"><g id="kvg:StrokePaths_05351" style="fill:none;stroke:#000000;stroke-width:3;stroke-linecap:round;stroke-linejoin:round;"><g id="kvg:05351" kvg:element="卑"><g id="kvg:05351-g1" kvg:position="top"><g id="kvg:05351-g2" kvg:element="丿" kvg:radical="nelson"><path id="kvg:05351-s1" kvg:type="㇒" d="M51.27 10.14c.03.33.07.84-.07 1.31-.62 2.1-3.46 6.12-7.58 9.55"/></g><g id="kvg:05351-g3" kvg:element="田"><path id="kvg:05351-s2" kvg:type="㇑" d="M28.49 23.73c.76.76 1.18 1.76 1.43 3.25C31.12 34 32.1 41.63 33.01 50c.19 1.74.37 3.41.53 4.96"/><path id="kvg:05351-s3" kvg:type="㇕a" d="M30.45 25.17c14.17-2.17 33.42-4.8 45.69-5.88 3.51-.31 4.36 1.2 4.11 3.95-.39 4.33-2.03 14.19-3.49 22.5-.31 1.77-.61 3.46-.9 5"/><path id="kvg:05351-s4" kvg:type="㇑a" d="M52.7 24.75c1.02 1.03 1.37 2.17 1.37 2.99.0 4.51-.07 17.09-.07 21.14"/><path id="kvg:05351-s5" kvg:type="㇐a" d="M32.83 38.36c10.23-1.47 37.07-4.29 44.13-4.72"/><path id="kvg:05351-s6" kvg:type="㇐a" d="M34.45 51.79c13.55-1.67 26.43-3.04 40.92-3.54"/></g></g><g id="kvg:05351-g4" kvg:position="bottom"><g id="kvg:05351-g5" kvg:element="丿"><path id="kvg:05351-s7" kvg:type="㇒" d="M46.22 54.18c.07.96.02 1.6-.38 2.49-1.91 4.23-5.54 10.26-10.22 16.08"/></g><g id="kvg:05351-g6" kvg:element="十" kvg:radical="tradit"><path id="kvg:05351-s8" kvg:type="㇐" d="M15.75 75.5c2.86 1.1 6.03 1.01 8.98.63 18.21-2.34 44.49-5.02 61.26-5.65 3.31-.12 7.24-.1 10.51.65"/><path id="kvg:05351-s9" kvg:type="㇑" d="M62.87 54.75c1.07 1.06 1.21 2.25 1.21 3.5.0.64.02 23.95.03 35.5.0 3.37.0 5.74.0 6.25"/></g></g></g></g></svg>