<svg xmlns="http://www.w3.org/2000/svg" width="109" height="109" viewBox="0 0 109 109"><g id="kvg:StrokePaths_05354"><g id="kvg:05354" kvg:element="協"><g id="kvg:05354-g1" kvg:element="十" kvg:position="left" kvg:radical="general"><path id="kvg:05354-s1" kvg:type="㇐" d="M10.75 43.28c1.69.46 3.66.26 5.4.11 6.1-.53 14.22-2.39 20.81-3.46 1.53-.25 3.25-.21 4.04-.09"/><path id="kvg:05354-s2" kvg:type="㇑" d="M25.62 17.5c.88.88 1.46 2.48 1.46 3.5.0 8.41.02 47.7.03 67 0 3.08.0 5.64.0 7.5"/></g><g id="kvg:05354-g2" kvg:element="劦" kvg:position="right" kvg:phon="劦"><g id="kvg:05354-g3" kvg:element="力" kvg:position="top"><path id="kvg:05354-s3" kvg:type="㇆" d="M47.42 28.61c1.95.84 3.8 1.03 5.84.82 8.74-.92 26.03-4.34 29.22-4.69 2.32-.26 2.96 1.16 2.84 2.97-.34 4.76-5.96 18.49-9.57 21.71-2.7 2.41-3.38 1.3-6.19-.39"/><path id="kvg:05354-s4" kvg:type="㇒" d="M66.37 12c.47 1.09.64 2.25.4 3.64-1.79 10.27-7.3 26.67-19.02 37.24"/></g><g id="kvg:05354-g4" kvg:position="bottom"><g id="kvg:05354-g5" kvg:element="力"><path id="kvg:05354-s5" kvg:type="㇆" d="M35.82 70.33c.86.41 3.76.66 4.69.49 6.14-1.14 16.76-3.12 19.28-3.43 1.88-.23 2.4 1.04 2.3 2.65-.28 4.26-5.89 19.17-8.82 22.05-2.21 2.17-2.8 1.12-5.01-.35"/><path id="kvg:05354-s6" kvg:type="㇒" d="M49.5 58.43c.38 1.2.38 2.31.14 3.58-1.76 9.46-4.89 24.87-17.51 33.56"/></g><g id="kvg:05354-g6" kvg:element="力"><path id="kvg:05354-s7" kvg:type="㇆" d="M68.84 66.61c.83.46 3.21.49 4.16.27 5.91-1.35 16.1-4.04 18.56-4.4 1.81-.26 2.88.92 2.71 2.71-.89 9.05-5.52 22.3-9.22 27.71-1.84 2.68-2.56 1.35-4.81-.39"/><path id="kvg:05354-s8" kvg:type="㇒" d="M80.53 55.43c.6.95.59 2.15.39 3.49-1.42 9.46-6.04 26.83-19.42 35.83"/></g></g></g></g></g></svg>