<!DOCTYPE svg PUBLIC "-//W3C//DTD SVG 1.0//EN" "http://www.w3.org/TR/2001/REC-SVG-20010904/DTD/svg10.dtd" [
<!ATTLIST g
xmlns:kvg CDATA #FIXED "http://kanjivg.tagaini.net"
kvg:element CDATA #IMPLIED
kvg:variant CDATA #IMPLIED
kvg:partial CDATA #IMPLIED
kvg:original CDATA #IMPLIED
kvg:part CDATA #IMPLIED
kvg:number CDATA #IMPLIED
kvg:tradForm CDATA #IMPLIED
kvg:radicalForm CDATA #IMPLIED
kvg:position CDATA #IMPLIED
kvg:radical CDATA #IMPLIED
kvg:phon CDATA #IMPLIED >
<!ATTLIST path
xmlns:kvg CDATA #FIXED "http://kanjivg.tagaini.net"
kvg:type CDATA #IMPLIED >
]><svg xmlns="http://www.w3.org/2000/svg" width="109" height="109" viewBox="0 0 109 109"><g id="kvg:StrokePaths_05357" style="fill:none;stroke:#000000;stroke-width:3;stroke-linecap:round;stroke-linejoin:round;"><g id="kvg:05357" kvg:element="南"><g id="kvg:05357-g1" kvg:element="十" kvg:position="top" kvg:radical="general"><path id="kvg:05357-s1" kvg:type="㇐" d="M27.38 28.25c1.82.38 4.2.45 7.22.2 11.52-.95 28.37-3.2 40.58-3.7 3.03-.12 4.92-.23 6.82.0"/><path id="kvg:05357-s2" kvg:type="㇑a" d="M52.35 10.75c.95.95 1.55 2.86 1.55 3.96.0 7.3.0 19.47.0 28.54"/></g><g id="kvg:05357-g2" kvg:position="bottom"><g id="kvg:05357-g3" kvg:element="冂"><path id="kvg:05357-s3" kvg:type="㇑" d="M20.25 45.75c1.25 1.25 1.89 2.74 2 5 .19 4.06.83 27.03 1.12 37.99.08 3.23.13 5.48.13 6.01"/><path id="kvg:05357-s4" kvg:type="㇆a" d="M22.78 47.6c16.31-1.76 59.32-6.35 60.97-6.35 5 0 6.25 1.62 6.25 6.75.0 5.25-.25 37.3-.25 43.05.0 7.7-3.5 6.45-9.5.95"/></g><path id="kvg:05357-s5" kvg:type="㇔" d="M38.5 49.38c2.58 1.74 6.66 7.14 7.31 9.84"/><path id="kvg:05357-s6" kvg:type="㇒" d="M66.25 45.5c.05.89-.07 1.75-.37 2.59-.8 2.73-2.75 6.92-5.26 9.66"/><g id="kvg:05357-g4" kvg:element="干"><path id="kvg:05357-s7" kvg:type="㇐" d="M34.78 61.67c1.81.39 4.55.55 6.36.39 9.11-.8 18.63-1.54 27.63-2.39 2.99-.28 4.83-.32 6.33-.12"/><g id="kvg:05357-g5" kvg:element="十"><path id="kvg:05357-s8" kvg:type="㇐" d="M33.13 74.19c1.81.49 4.55.83 6.38.74 10.73-.56 22.66-1.94 31.04-2.66 3-.26 4.82-.02 6.33.23"/><path id="kvg:05357-s9" kvg:type="㇑" d="M53.5 62.5c.75.75 1 2.14.99 3.5-.04 6.22-.15 18.46-.21 25.26-.02 2.19-.03 3.81-.03 4.49"/></g></g></g></g></g><g id="kvg:StrokeNumbers_05357" style="font-size:8;fill:#808080"><text transform="matrix(1 0 0 1 20.50 29.50)">1</text><text transform="matrix(1 0 0 1 44.00 11.63)">2</text><text transform="matrix(1 0 0 1 14.50 57.50)">3</text><text transform="matrix(1 0 0 1 23.50 44.50)">4</text><text transform="matrix(1 0 0 1 32.50 55.50)">5</text><text transform="matrix(1 0 0 1 56.25 52.50)">6</text><text transform="matrix(1 0 0 1 28.50 63.50)">7</text><text transform="matrix(1 0 0 1 27.50 71.50)">8</text><text transform="matrix(1 0 0 1 47.50 70.50)">9</text></g></svg>