<svg xmlns="http://www.w3.org/2000/svg" width="109" height="109" viewBox="0 0 109 109"><g id="kvg:StrokePaths_0536e" style="fill:none;stroke:#000000;stroke-width:3;stroke-linecap:round;stroke-linejoin:round;"><g id="kvg:0536e" kvg:element="卮"><g id="kvg:0536e-g1" kvg:element="厂" kvg:variant="true"><path id="kvg:0536e-s1" kvg:type="㇒" d="M77.21 11.5c-.21 1.25-1.06 2.01-1.79 2.39-9.04 4.75-21.37 8.07-44.93 11.9"/><path id="kvg:0536e-s2" kvg:type="㇒" d="M26.5 23.5c.5 1.25.83 2.4.92 4.86C28 43.75 27.5 78 14.81 95.47"/></g><path id="kvg:0536e-s3" kvg:type="㇐" d="M27.63 39.73c1.87-.23 4.3-.35 5.82-.46C51.25 38 70.5 35 83.06 33.54c2.51-.29 4.05.26 5.31.53"/><g id="kvg:0536e-g2" kvg:element="㔾" kvg:radical="general"><path id="kvg:0536e-s4" kvg:type="㇆" d="M40.65 51.1c.7.13 2.58.41 4.02.3 5.58-.41 21.57-2.13 23.47-2.6 2.84-.7 4.69 1.22 4.57 4.02-.19 4.75-2.1 15.4-5.83 22.95-2.72 5.51-5.14.67-5.67.4"/><path id="kvg:0536e-s5" kvg:type="㇟/㇑" d="M43.49 52.11c.96 1.62.78 3.03.78 5.53.0 14.92.28 14.02.28 21.6.0 15.25 2.66 15.71 22.87 15.71 20.99.0 23.72-1.28 23.72-12.44"/></g></g></g></svg>