<!DOCTYPE svg PUBLIC "-//W3C//DTD SVG 1.0//EN" "http://www.w3.org/TR/2001/REC-SVG-20010904/DTD/svg10.dtd" [
<!ATTLIST g
xmlns:kvg CDATA #FIXED "http://kanjivg.tagaini.net"
kvg:element CDATA #IMPLIED
kvg:variant CDATA #IMPLIED
kvg:partial CDATA #IMPLIED
kvg:original CDATA #IMPLIED
kvg:part CDATA #IMPLIED
kvg:number CDATA #IMPLIED
kvg:tradForm CDATA #IMPLIED
kvg:radicalForm CDATA #IMPLIED
kvg:position CDATA #IMPLIED
kvg:radical CDATA #IMPLIED
kvg:phon CDATA #IMPLIED >
<!ATTLIST path
xmlns:kvg CDATA #FIXED "http://kanjivg.tagaini.net"
kvg:type CDATA #IMPLIED >
]><svg xmlns="http://www.w3.org/2000/svg" width="109" height="109" viewBox="0 0 109 109"><g id="kvg:StrokePaths_05377" style="fill:none;stroke:#000000;stroke-width:3;stroke-linecap:round;stroke-linejoin:round;"><g id="kvg:05377" kvg:element="卷"><g id="kvg:05377-g1" kvg:position="top"><path id="kvg:05377-s1" kvg:type="㇒" d="M37.76 15.64c.05.44.1 1.15-.1 1.78-1.14 3.76-7.42 10.17-16.6 17.04"/><path id="kvg:05377-s2" kvg:type="㇏" d="M69.77 15.08c5.32 2.23 12.96 8.66 14.29 12.13"/><g id="kvg:05377-g2" kvg:element="二"><g id="kvg:05377-g3" kvg:position="top"><path id="kvg:05377-s3" kvg:type="㇐" d="M33.25 32.89c.94.38 2.66.49 3.6.38 5.98-.66 26.65-3.52 34.11-3.88 1.56-.08 2.5.18 3.29.37"/></g><g id="kvg:05377-g4" kvg:position="bottom"><path id="kvg:05377-s4" kvg:type="㇐" d="M17.25 49.7c1.52.54 4.31.69 5.82.54 7.68-.74 48.68-5.99 64.61-6.23 2.53-.04 4.05.26 5.31.53"/></g></g><g id="kvg:05377-g5" kvg:element="人"><path id="kvg:05377-s5" kvg:type="㇒" d="M53.21 11.75c.78.95 1.27 2.37.83 4.49C51.38 28.86 42.48 61.42 14.5 74.25"/><path id="kvg:05377-s6" kvg:type="㇏" d="M58 36.5c2.5.5 25.88 23.6 31.26 27.65 1.83 1.38 4.17 1.96 5.99 2.35"/></g></g><g id="kvg:05377-g6" kvg:element="卩" kvg:position="bottom" kvg:radical="general"><path id="kvg:05377-s7" kvg:type="㇆" d="M39.65 63.22c.68.11 2.48.34 3.86.25 5.36-.34 20.72-3.8 22.54-4.19 2.73-.59 4.5 1.03 4.39 3.39-.18 4.01-1.51 11.49-5.1 17.86-2.62 4.65-4.94.56-5.45.34"/><path id="kvg:05377-s8" kvg:type="㇟/㇑" d="M40.87 63.57c.92 1.37.75 2.56.75 4.67.0 12.58.27 9.82.27 16.22.0 12.86 2.55 13.25 21.96 13.25 20.16.0 22.78-1.08 22.78-10.49"/></g></g></g><g id="kvg:StrokeNumbers_05377" style="font-size:8;fill:#808080"><text transform="matrix(1 0 0 1 30.50 14.50)">1</text><text transform="matrix(1 0 0 1 65.50 12.50)">2</text><text transform="matrix(1 0 0 1 36.50 29.50)">3</text><text transform="matrix(1 0 0 1 9.50 49.50)">4</text><text transform="matrix(1 0 0 1 47.25 8.33)">5</text><text transform="matrix(1 0 0 1 63.50 38.50)">6</text><text transform="matrix(1 0 0 1 47.25 59.18)">7</text><text transform="matrix(1 0 0 1 34.50 72.50)">8</text></g></svg>