<svg xmlns="http://www.w3.org/2000/svg" width="109" height="109" viewBox="0 0 109 109"><g id="kvg:StrokePaths_05370"><g id="kvg:05370" kvg:element="印"><g id="kvg:05370-g1" kvg:position="left"><g id="kvg:05370-g2" kvg:element="丿"><path id="kvg:05370-s1" kvg:type="㇒" d="M42.38 13.25c0 1.25-.6 2.34-1.37 3.09-3.98 3.91-9.81 7.29-20.2 12.13"/></g><g id="kvg:05370-g3" kvg:element="丨" kvg:radical="nelson"><path id="kvg:05370-s2" kvg:type="㇑" d="M17.87 29.75c.88.88 1.46 2.38 1.46 3.75.0 3.04-.14 23.52-.2 34.75-.01 2.61-.02 4.73-.02 6"/></g><path id="kvg:05370-s3" kvg:type="㇐b" d="M20 49c9-1.62 17.62-3.75 19.5-4 1.51-.2 2.88-.25 4.25.0"/><path id="kvg:05370-s4" kvg:type="㇐b" d="M19.75 71.5c8.88-1.88 19.38-4 21.55-4.25 1.31-.15 2.88-.25 4.2.03"/></g><g id="kvg:05370-g4" kvg:element="卩" kvg:position="right" kvg:radical="tradit"><path id="kvg:05370-s5" kvg:type="㇆" d="M57.5 26.16c1.5.44 2.81.38 3.91.29 7.97-.72 21.75-2.92 26.68-3.46 3.21-.35 4.01 1.59 3.92 4.06C91.5 40.35 88.5 54.49 83.4 65.43c-2.17 4.66-5.52 1.7-8.3-1.52"/><path id="kvg:05370-s6" kvg:type="㇑" d="M60 27c.81.81 1.25 2.43 1.25 3.88.0 11.58.0 47.58.0 62.12.0 2.8.0 4.82.0 5.75"/></g></g></g></svg>