<svg xmlns="http://www.w3.org/2000/svg" width="109" height="109" viewBox="0 0 109 109"><g id="kvg:StrokePaths_053a0"><g id="kvg:053a0" kvg:element="厠"><g id="kvg:053a0-g1" kvg:element="厂" kvg:position="tare" kvg:radical="general"><path id="kvg:053a0-s1" kvg:type="㇐" d="M21.13 19.23c1.52.54 4.3.63 5.82.54 15.8-.91 42.8-4.02 58.11-4.73 2.53-.12 4.05.26 5.31.53"/><path id="kvg:053a0-s2" kvg:type="㇒" d="M24.5 20c.5 1.5.51 1.9.43 4.36C24.25 44 22.5 75.25 11.81 91.97"/></g><g id="kvg:053a0-g2" kvg:element="則" kvg:position="tarec"><g id="kvg:053a0-g3" kvg:element="貝" kvg:position="left"><g id="kvg:053a0-g4" kvg:element="目" kvg:position="top"><path id="kvg:053a0-s3" kvg:type="㇑" d="M34.38 30.3c.33 1.19.82 2.07.82 3.65.0 1.58-.11 44.48.0 46.06"/><path id="kvg:053a0-s4" kvg:type="㇕a" d="M35.76 31.78c1.89-.2 16.26-3.22 17.98-3.46 1.43-.2 2.56 1.1 2.44 2.57-.15 1.86-.67 45.64-.67 46.82"/><path id="kvg:053a0-s5" kvg:type="㇐a" d="M35.72 46.42c3.9-.6 14.05-2.2 19.01-2.69"/><path id="kvg:053a0-s6" kvg:type="㇐a" d="M35.88 60.95c5.74-.79 12.81-1.45 18.63-1.85"/><path id="kvg:053a0-s7" kvg:type="㇐a" d="M36.36 77.2c4.53-.86 12.86-2.03 18.63-2.37"/></g><g id="kvg:053a0-g5" kvg:element="八" kvg:position="bottom"><path id="kvg:053a0-s8" kvg:type="㇒" d="M40.74 81.63c.31 1.13.58 1.41.0 2.26-2.61 3.82-7.21 8.59-10.95 11.53"/><path id="kvg:053a0-s9" kvg:type="㇔" d="M50.38 82.26c4.51 3.73 9.83 10.5 11.06 13.77"/></g></g><g id="kvg:053a0-g6" kvg:element="刂" kvg:variant="true" kvg:original="刀" kvg:position="right"><path id="kvg:053a0-s10" kvg:type="㇑" d="M69.81 33.44c1.01.88 1.72 1.9 1.8 4.81.41 13.95-.02 30.51-.02 35.27"/><path id="kvg:053a0-s11" kvg:type="㇚" d="M87.72 26.33c1.01.88 1.72 1.9 1.8 4.81.41 13.95-.26 53-.26 57.75.0 9.35-4.12 4.34-8.94.24"/></g></g></g></g></svg>