<svg xmlns="http://www.w3.org/2000/svg" width="109" height="109" viewBox="0 0 109 109"><g id="kvg:StrokePaths_053a9" style="fill:none;stroke:#000000;stroke-width:3;stroke-linecap:round;stroke-linejoin:round;"><g id="kvg:053a9" kvg:element="厩"><g id="kvg:053a9-g1" kvg:element="厂" kvg:position="tare" kvg:radical="general"><path id="kvg:053a9-s1" kvg:type="㇐" d="M20.13 18.73c2.49.53 4.99.68 7.5.44 15.14-.93 40.05-3.16 55.24-3.99 2.68-.27 5.35-.14 8.01.39"/><path id="kvg:053a9-s2" kvg:type="㇒" d="M22.5 19.75c.81.81 1.18 1.9 1.18 4.36.0 20.14-2.18 50.64-12.87 67.36"/></g><g id="kvg:053a9-g2" kvg:element="既" kvg:position="tarec"><g id="kvg:053a9-g3" kvg:element="艮" kvg:variant="true" kvg:position="left"><path id="kvg:053a9-s3" kvg:type="㇔" d="M44.675777 25.076648c-.0403.570179-.04881 1.114486-.319595 2.023663-.589742 1.980065-1.28377 4.083971-2.98377 6.353971"/><path id="kvg:053a9-s4" kvg:type="㇑" d="M31.5 34.94c.72.4 1.05 1.8 1.05 2.62.0 6.07.14 56.690977.14 60.870977"/><path id="kvg:053a9-s5" kvg:type="㇕" d="M30.5 34.19c.97.97 2 1.06 3.96.79 4.73-.65 15.82-2.08 16.75-2.21 1.95-.28 2.4 1.02 2.36 2.31-.14 5.05-.670166 10.811164-1.470166 17.391164-.29 2.34-.52 4.18-.65 5.1"/><path id="kvg:053a9-s6" kvg:type="㇐" d="M33.54 47.136861c4.72-.69 12.85-1.97 18.37-2.52"/><path id="kvg:053a9-s7" kvg:type="㇐" d="M33.573306 59.237193c3.5-.38 12.25-1.56 17.21-2.11"/><path id="kvg:053a9-s8" kvg:type="㇐" d="M32.520249 74.42792c4.72-.69 12.85-1.97 18.37-2.52"/><path id="kvg:053a9-s9" kvg:type="㇐" d="M34.219834 88.265758c4.72-.69 12.85-1.97 18.37-2.52"/></g><g id="kvg:053a9-g4" kvg:element="旡" kvg:variant="true" kvg:original="无" kvg:position="right"><path id="kvg:053a9-s10" kvg:type="㇐" d="M60.54 32.18c1.88.31 3.75.32 5.61.03 5.08-.6 13.99-1.56 19.61-1.95 1.55-.18 3.09-.11 4.63.21"/><path id="kvg:053a9-s11" kvg:type="㇑" d="M64.92 34.27c.71 1.19.99 2.44.82 3.74-.29 5.28-.75 8.94-1.01 17.02"/><path id="kvg:053a9-s12" kvg:type="㇐" d="M57.59 56.45c1.53.55 3.52.37 5.27.11 7.38-.8 18.76-1.94 27.39-2.7 1.92-.17 3.85-.02 5.77.17"/><g id="kvg:053a9-g5" kvg:element="儿"><g id="kvg:053a9-g6" kvg:element="八" kvg:variant="true"><g id="kvg:053a9-g7" kvg:element="丿" kvg:position="left"><path id="kvg:053a9-s13" kvg:type="㇒" d="M78.32 33.84c.86.86.9 2.28.7 4.38-1.66 16.76-7.68 42.7-23.92 57.03"/></g><g id="kvg:053a9-g8" kvg:position="right"><path id="kvg:053a9-s14" kvg:type="㇟" d="M77.85 62.7c.85.85 1.09 2.48 1.09 4.23.0 8.07-.23 12.15-.39 17.88-.27 10.04 1.87 11.02 10 11.02 7.33.0 8.82-1.7 8.82-8.72"/></g></g></g></g></g></g></g></svg>