<!DOCTYPE svg PUBLIC "-//W3C//DTD SVG 1.0//EN" "http://www.w3.org/TR/2001/REC-SVG-20010904/DTD/svg10.dtd" [
<!ATTLIST g
xmlns:kvg CDATA #FIXED "http://kanjivg.tagaini.net"
kvg:element CDATA #IMPLIED
kvg:variant CDATA #IMPLIED
kvg:partial CDATA #IMPLIED
kvg:original CDATA #IMPLIED
kvg:part CDATA #IMPLIED
kvg:number CDATA #IMPLIED
kvg:tradForm CDATA #IMPLIED
kvg:radicalForm CDATA #IMPLIED
kvg:position CDATA #IMPLIED
kvg:radical CDATA #IMPLIED
kvg:phon CDATA #IMPLIED >
<!ATTLIST path
xmlns:kvg CDATA #FIXED "http://kanjivg.tagaini.net"
kvg:type CDATA #IMPLIED >
]><svg xmlns="http://www.w3.org/2000/svg" width="109" height="109" viewBox="0 0 109 109"><g id="kvg:StrokePaths_053ad" style="fill:none;stroke:#000000;stroke-width:3;stroke-linecap:round;stroke-linejoin:round;"><g id="kvg:053ad" kvg:element="厭"><g id="kvg:053ad-g1" kvg:element="厂" kvg:position="tare" kvg:radical="general"><path id="kvg:053ad-s1" kvg:type="㇐" d="M17.38 21.23c3.62.66 7.24.42 10.87-.09 16.25-2.26 29.25-3.64 45.37-5.15 3.88-.36 7.68-.61 11.5.08"/><path id="kvg:053ad-s2" kvg:type="㇒" d="M22.97 22.25c.9.88 1.28 2.38 1.2 4.18-.8 18.82-2.31 47.27-13.62 63.29"/></g><g id="kvg:053ad-g2" kvg:position="tarec"><g id="kvg:053ad-g3" kvg:position="left"><g id="kvg:053ad-g4" kvg:element="日" kvg:position="top"><path id="kvg:053ad-s3" kvg:type="㇑" d="M31.75 28.86c.88.88 1.21 1.96 1.3 2.88.35 2.35 1.1 7.16 1.73 11.75C35 45.06 35.2 46.6 35.38 48"/><path id="kvg:053ad-s4" kvg:type="㇕a" d="M33.48 29.81c4.43-.39 12.59-1.5 16.79-1.97 3.37-.37 4.35.55 4 3.91-.32 3.05-.68 7.32-1.03 10.87-.19 1.92-.38 3.64-.57 4.84"/><path id="kvg:053ad-s5" kvg:type="㇐a" d="M35.25 37.75c2.94-.16 14.26-1.29 17.65-1.29"/><path id="kvg:053ad-s6" kvg:type="㇐a" d="M37.12 46.88c5.38-.5 8.38-1 14.55-1.27"/></g><g id="kvg:053ad-g5" kvg:element="月" kvg:position="bottom"><path id="kvg:053ad-s7" kvg:type="㇑" d="M32.53 56c.86.86 1.12 1.94 1.01 3.12.01 5.07.08 21.31.11 30.88.01 3.13.02 5.54.02 6.63"/><path id="kvg:053ad-s8" kvg:type="㇆a" d="M34.3 57.1c1.23-.12 10.43-1.58 14.59-2.12 3.24-.42 4.32.51 4.32 3.77.0 5-.05 21.8-.05 32.61.0 10.39-3.67 3.64-5.66 1.37"/><path id="kvg:053ad-s9" kvg:type="㇐a" d="M34.55 67.35c4.75-.3 13.06-1.27 17.61-1.72"/><path id="kvg:053ad-s10" kvg:type="㇐a" d="M34.69 78.51c4.04-.45 12.79-1.36 17.47-1.66"/></g></g><g id="kvg:053ad-g6" kvg:element="犬" kvg:position="right"><g id="kvg:053ad-g7" kvg:element="大"><path id="kvg:053ad-s11" kvg:type="㇐" d="M57.92 49.11c2.03.53 3.99.65 6.09.44 6.74-.67 13.85-1.85 19.1-2.54 2.08-.27 4.01-.63 6.3-.34"/><path id="kvg:053ad-s12" kvg:type="㇒" d="M70.54 26.25c.84.75.94 2.12.94 3.59.0 25.06-1.72 51.66-13.76 64.41"/><path id="kvg:053ad-s13" kvg:type="㇏" d="M71.69 54.65c3.89 9.45 9.44 20.6 15.21 29.53 2.64 4.09 5.73 7.87 9.64 10.57"/></g><g id="kvg:053ad-g8" kvg:element="丶"><path id="kvg:053ad-s14" kvg:type="㇔" d="M81.07 30.24c4.02 3.26 5.12 5.74 6.36 8.8"/></g></g></g></g></g><g id="kvg:StrokeNumbers_053ad" style="font-size:8;fill:#808080"><text transform="matrix(1 0 0 1 20.50 18.50)">1</text><text transform="matrix(1 0 0 1 16.50 31.05)">2</text><text transform="matrix(1 0 0 1 27.50 39.50)">3</text><text transform="matrix(1 0 0 1 35.50 27.50)">4</text><text transform="matrix(1 0 0 1 38.75 35.83)">5</text><text transform="matrix(1 0 0 1 39.50 44.50)">6</text><text transform="matrix(1 0 0 1 26.50 65.68)">7</text><text transform="matrix(1 0 0 1 38.75 53.50)">8</text><text transform="matrix(1 0 0 1 39.50 64.50)">9</text><text transform="matrix(1 0 0 1 38.50 75.50)">10</text><text transform="matrix(1 0 0 1 56.50 46.38)">11</text><text transform="matrix(1 0 0 1 57.75 28.30)">12</text><text transform="matrix(1 0 0 1 78.50 61.23)">13</text><text transform="matrix(1 0 0 1 75.50 26.50)">14</text></g></svg>