<!DOCTYPE svg PUBLIC "-//W3C//DTD SVG 1.0//EN" "http://www.w3.org/TR/2001/REC-SVG-20010904/DTD/svg10.dtd" [
<!ATTLIST g
xmlns:kvg CDATA #FIXED "http://kanjivg.tagaini.net"
kvg:element CDATA #IMPLIED
kvg:variant CDATA #IMPLIED
kvg:partial CDATA #IMPLIED
kvg:original CDATA #IMPLIED
kvg:part CDATA #IMPLIED
kvg:number CDATA #IMPLIED
kvg:tradForm CDATA #IMPLIED
kvg:radicalForm CDATA #IMPLIED
kvg:position CDATA #IMPLIED
kvg:radical CDATA #IMPLIED
kvg:phon CDATA #IMPLIED >
<!ATTLIST path
xmlns:kvg CDATA #FIXED "http://kanjivg.tagaini.net"
kvg:type CDATA #IMPLIED >
]><svg xmlns="http://www.w3.org/2000/svg" width="109" height="109" viewBox="0 0 109 109"><g id="kvg:StrokePaths_053c3" style="fill:none;stroke:#000000;stroke-width:3;stroke-linecap:round;stroke-linejoin:round;"><g id="kvg:053c3" kvg:element="參"><g id="kvg:053c3-g1" kvg:position="top"><g id="kvg:053c3-g2" kvg:element="厶" kvg:position="top" kvg:radical="general"><path id="kvg:053c3-s1" kvg:type="㇜" d="M47.62 11.25c.13 1-.17 1.83-.52 2.2-5.1 5.3-8.35 9.05-14.31 13.14-1.97 1.35-2.54 2.67.45 2.2 9.76-1.54 27.26-5.54 37.85-7.23"/><path id="kvg:053c3-s2" kvg:type="㇔" d="M60.39 15.49c5.75 2.07 14.86 8.51 16.3 11.72"/></g><g id="kvg:053c3-g3" kvg:position="bottom"><g id="kvg:053c3-g4" kvg:element="厶" kvg:position="left"><path id="kvg:053c3-s3" kvg:type="㇜" d="M28.9 32.95c.27.26.43 1.11.27 1.45-1.99 4.27-6.16 9.46-9.88 12.46-1.18.95-.61 1.97 1.04 1.45 5.66-1.8 15.91-5.8 22.52-7.66"/><path id="kvg:053c3-s4" kvg:type="㇔" d="M37.36 35.23c2.89 1.73 7.47 7.11 8.19 9.8"/></g><g id="kvg:053c3-g5" kvg:element="厶" kvg:position="right"><path id="kvg:053c3-s5" kvg:type="㇜" d="M71.15 29.2c.27.26-.07 1.11-.23 1.45-1.99 4.27-3.16 7.46-6.88 10.46-1.18.95-.64 2.35 1.04 1.95 5.41-1.3 14.16-3.8 20.53-5.16"/><path id="kvg:053c3-s6" kvg:type="㇔" d="M80.86 33.23c3.51 2.04 9.07 8.38 9.94 11.55"/></g></g></g><g id="kvg:053c3-g6" kvg:position="bottom"><path id="kvg:053c3-s7" kvg:type="㇒" d="M52.76 40.75c.1.73.48 2.03-.21 2.93C48.4 49.1 30.8 64.76 15.5 71.75"/><path id="kvg:053c3-s8" kvg:type="㇏" d="M52.5 44c5.4 4.06 28.66 17.3 34.62 20.27 2.02 1.01 4.61 1.44 6.63 1.73"/><g id="kvg:053c3-g7" kvg:element="彡"><path id="kvg:053c3-s9" kvg:type="㇒" d="M57.9 55.25c.08.49.29 1.34-.16 1.99C54.76 61.48 44 69.75 29.99 75.54"/><path id="kvg:053c3-s10" kvg:type="㇒" d="M65.78 65.4c.1.49.35 1.33-.19 1.95-3.64 4.26-15.04 13.95-33.41 18.66"/><path id="kvg:053c3-s11" kvg:type="㇒" d="M74.91 75.68c.13.58.28 1.48-.25 2.31-3.12 4.85-21 15.49-45.49 22.01"/></g></g></g></g><g id="kvg:StrokeNumbers_053c3" style="font-size:8;fill:#808080"><text transform="matrix(1 0 0 1 40.50 9.63)">1</text><text transform="matrix(1 0 0 1 60.50 13.50)">2</text><text transform="matrix(1 0 0 1 20.50 33.48)">3</text><text transform="matrix(1 0 0 1 40.50 35.50)">4</text><text transform="matrix(1 0 0 1 62.50 32.50)">5</text><text transform="matrix(1 0 0 1 82.50 31.50)">6</text><text transform="matrix(1 0 0 1 48.50 38.50)">7</text><text transform="matrix(1 0 0 1 68.50 51.50)">8</text><text transform="matrix(1 0 0 1 49.50 57.50)">9</text><text transform="matrix(1 0 0 1 54.25 68.50)">10</text><text transform="matrix(1 0 0 1 63.25 78.88)">11</text></g></svg>