<svg xmlns="http://www.w3.org/2000/svg" width="109" height="109" viewBox="0 0 109 109"><g id="kvg:StrokePaths_053cc"><g id="kvg:053cc" kvg:element="双"><g id="kvg:053cc-g1" kvg:element="又" kvg:variant="true" kvg:position="left" kvg:radical="general"><path id="kvg:053cc-s1" kvg:type="㇇" d="M14.54 31.55c1.18.39 3.06.63 5.45.14 3.01-.62 12.57-3.5 17.06-4.8 2.72-.79 5.3.19 4.5 3.52C36.6 51.15 28.75 71 9.17 84.5"/><path id="kvg:053cc-s2" kvg:type="㇔/㇏" d="M19.12 46c8.38 5.38 18.28 14.69 24.12 26.25"/></g><g id="kvg:053cc-g2" kvg:element="又" kvg:position="right"><path id="kvg:053cc-s3" kvg:type="㇇" d="M52.29 28.05c1.18.39 3.8.58 6.2.14 4.39-.82 16.12-4.39 17.75-4.97 2.76-.98 5.16.87 4.22 4.02-7.21 24.12-18.33 45.62-38.21 58"/><path id="kvg:053cc-s4" kvg:type="㇏" d="M51.02 39.66c5.18.95 19.74 22.79 33.04 36.29 3.45 3.5 7.09 6.62 11.28 9.2"/></g></g></g></svg>