<!DOCTYPE svg PUBLIC "-//W3C//DTD SVG 1.0//EN" "http://www.w3.org/TR/2001/REC-SVG-20010904/DTD/svg10.dtd" [
<!ATTLIST g
xmlns:kvg CDATA #FIXED "http://kanjivg.tagaini.net"
kvg:element CDATA #IMPLIED
kvg:variant CDATA #IMPLIED
kvg:partial CDATA #IMPLIED
kvg:original CDATA #IMPLIED
kvg:part CDATA #IMPLIED
kvg:number CDATA #IMPLIED
kvg:tradForm CDATA #IMPLIED
kvg:radicalForm CDATA #IMPLIED
kvg:position CDATA #IMPLIED
kvg:radical CDATA #IMPLIED
kvg:phon CDATA #IMPLIED >
<!ATTLIST path
xmlns:kvg CDATA #FIXED "http://kanjivg.tagaini.net"
kvg:type CDATA #IMPLIED >
]><svg xmlns="http://www.w3.org/2000/svg" width="109" height="109" viewBox="0 0 109 109"><g id="kvg:StrokePaths_053cb" style="fill:none;stroke:#000000;stroke-width:3;stroke-linecap:round;stroke-linejoin:round;"><g id="kvg:053cb" kvg:element="友"><path id="kvg:053cb-s1" kvg:type="㇐" d="M17.88 37.23c2.13.54 5.78.58 7.89.29 17.48-2.39 35.98-4.39 54.65-5.48 3.54-.21 5.68.01 7.46.28"/><path id="kvg:053cb-s2" kvg:type="㇒" d="M48.22 14.14c.53 2.11.53 4.3.31 6.73C47 38 33 72.5 15.5 85.25"/><g id="kvg:053cb-g1" kvg:element="又" kvg:radical="general"><path id="kvg:053cb-s3" kvg:type="㇇" d="M42.66 54.86c1.09.27 2.51.28 3.59.14 6.88-.88 16.62-3.25 22.43-4.88 3.45-.97 4.6 1.45 3.11 4.55C66.5 65.62 48.12 87.75 24 96.5"/><path id="kvg:053cb-s4" kvg:type="㇏" d="M41.25 63.5c5.15.45 27.5 18.62 40.93 26.36 3.2 1.84 6.65 3.76 10.32 4.39"/></g></g></g><g id="kvg:StrokeNumbers_053cb" style="font-size:8;fill:#808080"><text transform="matrix(1 0 0 1 10.50 38.50)">1</text><text transform="matrix(1 0 0 1 38.50 14.50)">2</text><text transform="matrix(1 0 0 1 46.50 51.50)">3</text><text transform="matrix(1 0 0 1 38.50 71.50)">4</text></g></svg>