<svg xmlns="http://www.w3.org/2000/svg" width="109" height="109" viewBox="0 0 109 109"><g id="kvg:StrokePaths_053df" style="fill:none;stroke:#000000;stroke-width:3;stroke-linecap:round;stroke-linejoin:round;"><g id="kvg:053df" kvg:element="叟"><g id="kvg:053df-g1" kvg:position="top"><path id="kvg:053df-s1" kvg:type="㇑" d="M52.25 10.25c1.25.5 2 2.25 2.25 3.25s0 41.75-.25 48"/><g id="kvg:053df-g2" kvg:element="𦥑" kvg:variant="true" kvg:original="臼"><path id="kvg:053df-s2" kvg:type="㇒" d="M43.51 15.71c.05.25-.28 1.24-.6 1.52-4.28 3.62-8.26 6.35-18.01 9.23"/><path id="kvg:053df-s3" kvg:type="㇑" d="M24.24 24.92c.84.75 1.19 2.42 1.4 3.96.76 5.61 2.67 16.53 3.44 24.12"/><path id="kvg:053df-s4" kvg:type="㇐" d="M27.09 36.66c4.17-.34 13.7-2.21 14.69-2.21s2.38.0 3.18.0"/><path id="kvg:053df-s5" kvg:type="㇐" d="M29.28 51.662003c4.750734-.961399 14.3008-1.357192 17.228257-1.143708"/><path id="kvg:053df-s6" kvg:type="㇕" d="M62.9 18.71c.99.17 1.79.51 3.18.51S81.18 17.17 82.77 17s2.91.84 2.78 1.88c-1.19 9.89-4.47 29.56-4.67 30.24"/><path id="kvg:053df-s7" kvg:type="㇐" d="M62.8 33.27c.99.17 1.79.51 3.18.51s15.7-.86 17.29-1.04"/><path id="kvg:053df-s8" kvg:type="㇐" d="M62.806092 48.744611c1.380267.223658 2.644375.349456 3.825641.301662 4.231262-.1712 9.439223-.303205 13.228543-.469112"/></g></g><g id="kvg:053df-g3" kvg:element="又" kvg:position="bottom" kvg:radical="general"><path id="kvg:053df-s9" kvg:type="㇇" d="M31.5 63.71c2 .28 2.28.91 6.25.28C44 63 70.5 59.88 73.25 59.46s3.93 2.7 2.75 4.12C61.75 80.75 42 92.55 19.5 99.5"/><path id="kvg:053df-s10" kvg:type="㇏" d="M35.5 70.83C43 71 64.9 89.72 82.3 97.18c2.71 1.16 4.68 1.94 7.2 2.32"/></g></g></g></svg>