<svg xmlns="http://www.w3.org/2000/svg" width="109" height="109" viewBox="0 0 109 109"><g id="kvg:StrokePaths_053e5" style="fill:none;stroke:#000000;stroke-width:3;stroke-linecap:round;stroke-linejoin:round;"><g id="kvg:053e5" kvg:element="句"><g id="kvg:053e5-g1" kvg:element="勹" kvg:position="kamae" kvg:radical="nelson"><g id="kvg:053e5-g2" kvg:element="丿"><path id="kvg:053e5-s1" kvg:type="㇒" d="M39.5 11.25c.06.9-.17 2.14-.63 3.38C36 22.5 27.38 37.12 15.75 48.38"/></g><path id="kvg:053e5-s2" kvg:type="㇆" d="M34.75 30.25c2.87.9 5.72.6 8.63.14 8.82-1.39 35.97-6.05 40.37-6.64 4.62-.62 6.73.49 6.5 5.25-.5 10.25-4.5 45.25-14 64.75-2.37 4.86-5.05 1.88-8-1.25"/></g><g id="kvg:053e5-g3" kvg:element="口" kvg:radical="tradit"><path id="kvg:053e5-s3" kvg:type="㇑" d="M27.25 51.89c.9.73 1.66 1.92 1.8 3.07 1.16 4.09 2.44 11.63 3.48 17.91.28 1.71.53 3.29.72 4.63"/><path id="kvg:053e5-s4" kvg:type="㇕b" d="M29.88 53.7c9.81-1.72 19.96-3.25 26.25-3.96 4.38-.49 5.88.51 5.12 4.17-.99 4.83-2.61 9.93-4.32 16.46"/><path id="kvg:053e5-s5" kvg:type="㇐b" d="M33.98 74.08c5.95-.57 13.67-1.69 21.76-2.63 1.27-.15 2.54-.29 3.82-.43"/></g></g></g></svg>