<svg xmlns="http://www.w3.org/2000/svg" width="109" height="109" viewBox="0 0 109 109"><g id="kvg:StrokePaths_053e2" style="fill:none;stroke:#000000;stroke-width:3;stroke-linecap:round;stroke-linejoin:round;"><g id="kvg:053e2" kvg:element="叢"><g id="kvg:053e2-g1" kvg:position="top"><path id="kvg:053e2-s1" kvg:type="㇑" d="M47.12 11.5c1.06 1.06 1.21 2.38 1.21 3.5.0 1.02-.08 8.5-.08 15"/><path id="kvg:053e2-s2" kvg:type="㇑" d="M62.12 10c1 1 1.26 2.48 1.21 3.5-.2 4.12-.33 6.5-1.08 14.75"/><g id="kvg:053e2-g2" kvg:element="丶" kvg:radical="nelson"><path id="kvg:053e2-s3" kvg:type="㇔" d="M27.27 16.83c2.84 1.66 7.33 6.81 8.04 9.38"/></g><path id="kvg:053e2-s4" kvg:type="㇒" d="M79.94 14.39c.05.79-.04 1.57-.27 2.33-1.54 3.15-2.42 5.78-5.01 9.99"/><path id="kvg:053e2-s5" kvg:type="㇐" d="M15.25 32.14c4.21.77 8.38.2 12.65-.19 14.73-1.33 38.98-2.83 55.48-3.76 4.41-.25 8.77-.3 13.12.4"/><g id="kvg:053e2-g3" kvg:element="羊" kvg:partial="true"><g id="kvg:053e2-g4" kvg:element="䒑"><path id="kvg:053e2-s6" kvg:type="㇔" d="M41.52 34.58c2.04 1.44 5.03 4.4 5.54 6.63"/><path id="kvg:053e2-s7" kvg:type="㇒" d="M67.44 31.89c.05.56-.04 1.1-.27 1.62-1.04 1.99-2.35 3.96-5.04 6.86"/><path id="kvg:053e2-s8" kvg:type="㇐" d="M29.25 44.99c2.88.41 5.74.19 8.65-.08 8.35-.78 22.35-2.03 31.48-2.39 2.81-.11 5.59-.19 8.38.16"/></g><path id="kvg:053e2-s9" kvg:type="㇑" d="M53.18 44.51c.84.84 1.12 1.99 1.12 3.15.0 1 .02 8.59.02 11.84"/><path id="kvg:053e2-s10" kvg:type="㇐" d="M26 53.73c3.21.42 6.4.28 9.62-.05 10.25-1.05 25.43-2.24 35.26-2.68 2.87-.45 5.74-.47 8.61-.06"/></g></g><g id="kvg:053e2-g5" kvg:element="取" kvg:position="bottom"><g id="kvg:053e2-g6" kvg:element="耳" kvg:position="left"><path id="kvg:053e2-s11" kvg:type="㇐" d="M17.25 62.28c4.33.56 8.64.43 13 .04 16-1.44 29.25-2.19 46.01-3.14 3.92-.32 7.84-.24 11.74.25"/><path id="kvg:053e2-s12" kvg:type="㇑a" d="M29.31 63.67c.76.76.89 1.71.89 2.82.0.77-.14 21.37-.14 24.15"/><path id="kvg:053e2-s13" kvg:type="㇐a" d="M31.42 70.48C35 70 42 69.38 45.56 69.16"/><path id="kvg:053e2-s14" kvg:type="㇐a" d="M31.14 79.17C37.82 78.5 40.62 78 45.9 77.5"/><path id="kvg:053e2-s15" kvg:type="㇀" d="M19.5 93.55c.75.95 2.27.81 3.07.49 8.68-3.42 18.56-7.05 24.19-9.25"/><path id="kvg:053e2-s16" kvg:type="㇑" d="M45.75 63.23c.76.76.98 1.82.98 2.59s.14 26.34.14 32.68"/></g><g id="kvg:053e2-g7" kvg:element="又" kvg:position="right" kvg:radical="tradit"><path id="kvg:053e2-s17" kvg:type="㇇" d="M56.91 67.89c1.89.39 3.75.38 5.59-.01 3.56-.62 12.16-2.01 15.01-2.56 2.4-.47 3.38.93 2.28 3.02C73.31 80.59 64.88 88 52.15 94.35"/><path id="kvg:053e2-s18" kvg:type="㇏" d="M53.49 72.78c4.66.19 17.76 11.34 30.64 18.69 3.01 1.82 6.21 3.19 9.62 4.09"/></g></g></g></g></svg>