<svg xmlns="http://www.w3.org/2000/svg" width="109" height="109" viewBox="0 0 109 109"><g id="kvg:StrokePaths_053ee" style="fill:none;stroke:#000000;stroke-width:3;stroke-linecap:round;stroke-linejoin:round;"><g id="kvg:053ee" kvg:element="叮"><g id="kvg:053ee-g1" kvg:element="口" kvg:position="left" kvg:radical="general"><path id="kvg:053ee-s1" kvg:type="㇑" d="M13.25 33.29c.37.51.76.94.92 1.58C15.46 39.93 17.51 53.9 18.4 63"/><path id="kvg:053ee-s2" kvg:type="㇕b" d="M14.58 35.22c7.42-1.47 18.55-3.06 22.92-3.73 1.6-.24 2.56 1.44 2.33 2.87-.95 5.92-3.05 15.07-4.46 23.25"/><path id="kvg:053ee-s3" kvg:type="㇐b" d="M18.57 60.05c5.14-.75 11.68-1.55 19.39-2.21"/></g><g id="kvg:053ee-g2" kvg:element="丁" kvg:position="right"><g id="kvg:053ee-g3" kvg:element="一"><path id="kvg:053ee-s4" kvg:type="㇐" d="M43.91 22.83c1.36.39 3.86.48 5.22.39 13.94-1.01 27.94-3.63 44.69-4.13 2.27-.07 3.63.18 4.76.38"/></g><g id="kvg:053ee-g4" kvg:element="亅"><path id="kvg:053ee-s5" kvg:type="㇚" d="M72.35 24.21c.09.51 1.79 2.68 1.79 5.95.0 19.59-.26 55.82-.26 61.17.0 12.11-8.24.55-9.78-.8"/></g></g></g></g></svg>