<svg xmlns="http://www.w3.org/2000/svg" width="109" height="109" viewBox="0 0 109 109"><g id="kvg:StrokePaths_053ed" style="fill:none;stroke:#000000;stroke-width:3;stroke-linecap:round;stroke-linejoin:round;"><g id="kvg:053ed" kvg:element="叭"><g id="kvg:053ed-g1" kvg:element="口" kvg:position="left" kvg:radical="general"><path id="kvg:053ed-s1" kvg:type="㇑" d="M10.25 33.26c.37.5.76.92.92 1.55 1.29 4.99 3.34 18.74 4.23 27.69"/><path id="kvg:053ed-s2" kvg:type="㇕b" d="M12.58 35.16C20.25 33.5 29.13 32.65 33.5 32c1.6-.24 2.56 1.42 2.33 2.83-.95 5.82-3.05 13.33-4.46 21.38"/><path id="kvg:053ed-s3" kvg:type="㇐b" d="M15.57 58.59c5.14-.74 11.33-1.03 18.39-2.17"/></g><g id="kvg:053ed-g2" kvg:element="八" kvg:position="right"><g id="kvg:053ed-g3" kvg:position="left"><path id="kvg:053ed-s4" kvg:type="㇒" d="M52.18 35.03c.39 1.69.69 3.63.45 5.69C51 54.75 45 77.75 29.75 91.5"/></g><g id="kvg:053ed-g4" kvg:position="right"><path id="kvg:053ed-s5" kvg:type="㇏" d="M57.42 15.75c1.56.72 3.03 1.66 4.02 3.54C70.53 36.54 81.48 72.31 90.1 83.1c3.71 4.65 5.04 7.15 8.65 8.65"/></g></g></g></g></svg>