<!DOCTYPE svg PUBLIC "-//W3C//DTD SVG 1.0//EN" "http://www.w3.org/TR/2001/REC-SVG-20010904/DTD/svg10.dtd" [
<!ATTLIST g
xmlns:kvg CDATA #FIXED "http://kanjivg.tagaini.net"
kvg:element CDATA #IMPLIED
kvg:variant CDATA #IMPLIED
kvg:partial CDATA #IMPLIED
kvg:original CDATA #IMPLIED
kvg:part CDATA #IMPLIED
kvg:number CDATA #IMPLIED
kvg:tradForm CDATA #IMPLIED
kvg:radicalForm CDATA #IMPLIED
kvg:position CDATA #IMPLIED
kvg:radical CDATA #IMPLIED
kvg:phon CDATA #IMPLIED >
<!ATTLIST path
xmlns:kvg CDATA #FIXED "http://kanjivg.tagaini.net"
kvg:type CDATA #IMPLIED >
]><svg xmlns="http://www.w3.org/2000/svg" width="109" height="109" viewBox="0 0 109 109"><g id="kvg:StrokePaths_053f6" style="fill:none;stroke:#000000;stroke-width:3;stroke-linecap:round;stroke-linejoin:round;"><g id="kvg:053f6" kvg:element="叶"><g id="kvg:053f6-g1" kvg:element="口" kvg:position="left" kvg:radical="general"><path id="kvg:053f6-s1" kvg:type="㇑" d="M13.39 31.17c.92 1.16 1.11 1.82 1.37 3.33.96 5.52 2.08 14.2 3.08 22.02.25 1.92.49 3.77.72 5.49"/><path id="kvg:053f6-s2" kvg:type="㇕b" d="M15.37 32.52c8.27-1.04 13.2-1.65 20.63-2.59 4.31-.54 5.42.41 4.7 4.66-.9 5.28-1.62 12.7-2.63 22.33"/><path id="kvg:053f6-s3" kvg:type="㇐b" d="M19.47 59.24c4.65-.52 10.89-1.22 15.78-1.48 1.47-.08 2.81-.13 3.96-.17"/></g><g id="kvg:053f6-g2" kvg:element="十" kvg:position="right"><path id="kvg:053f6-s4" kvg:type="㇐" d="M45.5 45.25c2.64 1.01 5.13.67 7.88.39 10.55-1.08 27.07-3.17 37-3.56 2.71-.11 5.47.06 8.13.68"/><path id="kvg:053f6-s5" kvg:type="㇑" d="M71.12 12.75c1.07 1.06 1.21 2.38 1.21 4 0 9.59.03 61.62.03 71 0 3.88.0 7.14.0 9.5"/></g></g></g><g id="kvg:StrokeNumbers_053f6" style="font-size:8;fill:#808080"><text transform="matrix(1 0 0 1 8.00 39.25)">1</text><text transform="matrix(1 0 0 1 18.25 29.33)">2</text><text transform="matrix(1 0 0 1 21.25 56.25)">3</text><text transform="matrix(1 0 0 1 45.25 42.25)">4</text><text transform="matrix(1 0 0 1 61.25 12.08)">5</text></g></svg>