<!DOCTYPE svg PUBLIC "-//W3C//DTD SVG 1.0//EN" "http://www.w3.org/TR/2001/REC-SVG-20010904/DTD/svg10.dtd" [
<!ATTLIST g
xmlns:kvg CDATA #FIXED "http://kanjivg.tagaini.net"
kvg:element CDATA #IMPLIED
kvg:variant CDATA #IMPLIED
kvg:partial CDATA #IMPLIED
kvg:original CDATA #IMPLIED
kvg:part CDATA #IMPLIED
kvg:number CDATA #IMPLIED
kvg:tradForm CDATA #IMPLIED
kvg:radicalForm CDATA #IMPLIED
kvg:position CDATA #IMPLIED
kvg:radical CDATA #IMPLIED
kvg:phon CDATA #IMPLIED >
<!ATTLIST path
xmlns:kvg CDATA #FIXED "http://kanjivg.tagaini.net"
kvg:type CDATA #IMPLIED >
]><svg xmlns="http://www.w3.org/2000/svg" width="109" height="109" viewBox="0 0 109 109"><g id="kvg:StrokePaths_05401" style="fill:none;stroke:#000000;stroke-width:3;stroke-linecap:round;stroke-linejoin:round;"><g id="kvg:05401" kvg:element="吁"><g id="kvg:05401-g1" kvg:element="口" kvg:position="left" kvg:radical="general"><path id="kvg:05401-s1" kvg:type="㇑" d="M10.25 33.29c.37.51.76.94.92 1.58 1.29 5.07 3.34 18.54 4.23 27.63"/><path id="kvg:05401-s2" kvg:type="㇕b" d="M11.58 35.22C18.5 34 29.13 32.66 33.5 31.99c1.6-.24 2.56 1.44 2.33 2.87-.95 5.92-3.05 14.07-4.46 22.25"/><path id="kvg:05401-s3" kvg:type="㇐b" d="M15.07 59.05c5.14-.75 11.33-1.05 18.39-2.21"/></g><g id="kvg:05401-g2" kvg:element="于" kvg:position="right"><g id="kvg:05401-g3" kvg:element="二"><g id="kvg:05401-g4" kvg:position="top"><path id="kvg:05401-s4" kvg:type="㇐" d="M45.16 22.49c.98.48 2.75.55 3.74.48 6.6-.47 28.89-4.77 38.17-4.77 1.63.0 2.61.23 3.42.47"/></g><g id="kvg:05401-g5" kvg:position="bottom"><path id="kvg:05401-s5" kvg:type="㇐" d="M40.27 49.86c1.44.56 4.09.7 5.53.56 10.65-1.05 32.31-3.88 47.88-3.82 2.4.01 3.84.27 5.05.55"/></g></g><g id="kvg:05401-g6" kvg:element="亅"><path id="kvg:05401-s6" kvg:type="㇚" d="M67.25 23.66c.74.88 1.69 2.87 1.69 5.79.0 12.8-.72 58.43-.72 63.2.0 10.09-7.63.19-8.61-.71"/></g></g></g></g><g id="kvg:StrokeNumbers_05401" style="font-size:8;fill:#808080"><text transform="matrix(1 0 0 1 5.35 41.50)">1</text><text transform="matrix(1 0 0 1 14.16 31.50)">2</text><text transform="matrix(1 0 0 1 18.50 55.85)">3</text><text transform="matrix(1 0 0 1 44.50 19.50)">4</text><text transform="matrix(1 0 0 1 39.50 47.50)">5</text><text transform="matrix(1 0 0 1 61.50 32.50)">6</text></g></svg>