<!DOCTYPE svg PUBLIC "-//W3C//DTD SVG 1.0//EN" "http://www.w3.org/TR/2001/REC-SVG-20010904/DTD/svg10.dtd" [
<!ATTLIST g
xmlns:kvg CDATA #FIXED "http://kanjivg.tagaini.net"
kvg:element CDATA #IMPLIED
kvg:variant CDATA #IMPLIED
kvg:partial CDATA #IMPLIED
kvg:original CDATA #IMPLIED
kvg:part CDATA #IMPLIED
kvg:number CDATA #IMPLIED
kvg:tradForm CDATA #IMPLIED
kvg:radicalForm CDATA #IMPLIED
kvg:position CDATA #IMPLIED
kvg:radical CDATA #IMPLIED
kvg:phon CDATA #IMPLIED >
<!ATTLIST path
xmlns:kvg CDATA #FIXED "http://kanjivg.tagaini.net"
kvg:type CDATA #IMPLIED >
]><svg xmlns="http://www.w3.org/2000/svg" width="109" height="109" viewBox="0 0 109 109"><g id="kvg:StrokePaths_05408" style="fill:none;stroke:#000000;stroke-width:3;stroke-linecap:round;stroke-linejoin:round;"><g id="kvg:05408" kvg:element="合"><g id="kvg:05408-g1" kvg:position="top"><g id="kvg:05408-g2" kvg:element="人" kvg:radical="nelson"><path id="kvg:05408-s1" kvg:type="㇒" d="M48.5 10.5c.37 1.75.01 3.14-.71 4.73C42.75 26.25 32.5 45.12 11 60"/><path id="kvg:05408-s2" kvg:type="㇏" d="M50.25 14.75c5.41 6.77 25.92 26.39 35.46 34.92 3.33 2.98 6.37 5.04 10.79 6.08"/></g><g id="kvg:05408-g3" kvg:element="一"><path id="kvg:05408-s3" kvg:type="㇐" d="M31.38 53.77c1.93.48 3.65.5 6.88.25 6.37-.51 15.19-1.64 24.02-2.3 1.89-.14 3.82-.21 5.6.24"/></g></g><g id="kvg:05408-g4" kvg:element="口" kvg:position="bottom" kvg:radical="tradit"><path id="kvg:05408-s4" kvg:type="㇑" d="M27.5 72.08c.84.84 1.77 1.84 1.94 2.64 1.93 8.81 2.6 14.74 3.67 21.26.21 1.28.44 2.11.69 3.55"/><path id="kvg:05408-s5" kvg:type="㇕b" d="M30.5 74.23c10.5-1.98 33-4.86 39.76-5.27 2.95-.18 4.74 1.16 4.04 4.2-1.42 6.12-3.17 11.21-5.5 19.45"/><path id="kvg:05408-s6" kvg:type="㇐b" d="M33.63 96.19c9.65-.61 21.14-1.61 33.13-2.35 1.51-.09 3.05-.18 4.61-.25"/></g></g></g><g id="kvg:StrokeNumbers_05408" style="font-size:8;fill:#808080"><text transform="matrix(1 0 0 1 39.50 10.50)">1</text><text transform="matrix(1 0 0 1 60.75 19.63)">2</text><text transform="matrix(1 0 0 1 32.50 50.50)">3</text><text transform="matrix(1 0 0 1 22.50 82.63)">4</text><text transform="matrix(1 0 0 1 31.50 70.50)">5</text><text transform="matrix(1 0 0 1 36.50 92.50)">6</text></g></svg>