<svg xmlns="http://www.w3.org/2000/svg" width="109" height="109" viewBox="0 0 109 109"><g id="kvg:StrokePaths_05411"><g id="kvg:05411" kvg:element="向"><g id="kvg:05411-g1" kvg:element="丿"><path id="kvg:05411-s1" kvg:type="㇒" d="M49.51 18.39c.24.98.04 2.08-.33 2.85C45.62 28.5 43 32.75 34.06 42.97"/></g><g id="kvg:05411-g2" kvg:element="冂" kvg:position="kamae"><g id="kvg:05411-g3" kvg:element="丨" kvg:radical="nelson"><path id="kvg:05411-s2" kvg:type="㇑" d="M18.75 42.5c1 1 1.66 2.28 1.78 3.64.41 4.91 1.18 24.14 1.58 36.73.06 1.78.1 3.42.14 4.87"/></g><path id="kvg:05411-s3" kvg:type="㇆a" d="M21.35 45.1c16.03-1.85 61.13-7.17 62.97-7.43 2.93-.42 6.74 1.55 6.66 5.33-.22 9.76-3.67 33.44-6.49 42.28C81.12 95.75 78.62 90.12 76 86"/></g><g id="kvg:05411-g4" kvg:element="口" kvg:radical="tradit"><path id="kvg:05411-s4" kvg:type="㇑" d="M38.75 55.53c.8.8 1.29 1.9 1.35 2.4.67 5.55 1.13 8.83 1.97 14.58.13.93.28 1.92.43 2.99"/><path id="kvg:05411-s5" kvg:type="㇕b" d="M41.03 57.28c10.34-1.53 17.23-2.44 24.75-3.54 2.47-.36 3.35 1.14 2.97 2.76-1 4.35-2.25 7.5-3.33 13.38"/><path id="kvg:05411-s6" kvg:type="㇐b" d="M43.52 73.26c5.61-.5 12.98-1.38 21.6-2.24 1.16-.12 2.32-.09 3.46-.11"/></g></g></g></svg>