<svg xmlns="http://www.w3.org/2000/svg" width="109" height="109" viewBox="0 0 109 109"><g id="kvg:StrokePaths_05420"><g id="kvg:05420" kvg:element="吠"><g id="kvg:05420-g1" kvg:element="口" kvg:position="left" kvg:radical="general"><path id="kvg:05420-s1" kvg:type="㇑" d="M10.75 38.89c.38.4.78.73.95 1.23 1.33 3.94 2.93 14.81 3.85 21.89"/><path id="kvg:05420-s2" kvg:type="㇕b" d="M13.15 40.78c9.72-1.73 16.51-2.77 21.02-3.29 1.65-.19 2.64 1.12 2.4 2.23-.98 4.6-2.62 10.72-4.07 17.09"/><path id="kvg:05420-s3" kvg:type="㇐b" d="M15.73 60.1c5.29-.59 12.19-1.82 19.46-2.72"/></g><g id="kvg:05420-g2" kvg:element="犬" kvg:position="right"><g id="kvg:05420-g3" kvg:element="大"><path id="kvg:05420-s4" kvg:type="㇐" d="M43.4 45.27c.72.35 3.18.79 4.57.58 7.28-1.07 32.46-4.28 41.23-5.02 1-.08 2.42.14 4.66.74"/><path id="kvg:05420-s5" kvg:type="㇒" d="M62.5 14.25c1.02 1.18 1.65 2.35 1.78 4.7 1.8 30.67-3.54 64.55-35.79 78.55"/><path id="kvg:05420-s6" kvg:type="㇏" d="M65.06 45c6.4 14.1 18.85 37.96 27.02 48.03 2.15 2.64 2.93 2.98 3.92 3.22"/></g><g id="kvg:05420-g4" kvg:element="丶"><path id="kvg:05420-s7" kvg:type="㇔" d="M77.41 20c6.09 3.61 7.75 6.36 9.64 9.75"/></g></g></g></g></svg>