<svg xmlns="http://www.w3.org/2000/svg" width="109" height="109" viewBox="0 0 109 109"><g id="kvg:StrokePaths_0543c" style="fill:none;stroke:#000000;stroke-width:3;stroke-linecap:round;stroke-linejoin:round;"><g id="kvg:0543c" kvg:element="吼"><g id="kvg:0543c-g1" kvg:element="口" kvg:position="left" kvg:radical="general"><path id="kvg:0543c-s1" kvg:type="㇑" d="M10.75 34.62c.36.46.73.85.89 1.43 1.25 4.58 2.76 17.23 3.61 25.46"/><path id="kvg:0543c-s2" kvg:type="㇕b" d="M13 36.82c9.13-2.01 14.58-3.23 18.81-3.83 1.55-.22 2.48 1.3 2.26 2.6-.92 5.35-1.99 13.63-3.35 21.03"/><path id="kvg:0543c-s3" kvg:type="㇐b" d="M15.42 59.29c4.98-.68 10.98-.95 17.81-2"/></g><g id="kvg:0543c-g2" kvg:element="孔" kvg:position="right"><g id="kvg:0543c-g3" kvg:element="子" kvg:variant="true" kvg:position="left"><path id="kvg:0543c-s4" kvg:type="㇖" d="M34.85 18.45c2.15.8 3.9 1.55 6.58 1.58 4.07.04 17.42-4.05 19.04-4.05 1.63.0 3.39 1.02 1.76 3.07-1.62 2.05-9.62 13.06-15.27 18.99"/><path id="kvg:0543c-s5" kvg:type="㇁" d="M44.07 37.97C54.25 43 59.21 62.4 53.96 86.24c-1.71 7.76-4.46 9.51-10.18 3.07"/><path id="kvg:0543c-s6" kvg:type="㇀/㇐" d="M33 66.87c1.16.8 2.79 1.17 4.54.07 9.12-5.77 14.76-9.61 25.17-16.47"/></g><g id="kvg:0543c-g4" kvg:element="乙" kvg:position="right"><path id="kvg:0543c-s7" kvg:type="㇟" d="M74.47 12.87c.49 1.25.88 2.73.9 4.67.13 8.63-.35 54.97-.35 60.84C75.03 92.08 76.25 94 85.9 94c9.1.0 10.99-1.75 10.99-14.14"/></g></g></g></g></svg>