<svg xmlns="http://www.w3.org/2000/svg" width="109" height="109" viewBox="0 0 109 109"><g id="kvg:StrokePaths_0543b"><g id="kvg:0543b" kvg:element="吻"><g id="kvg:0543b-g1" kvg:element="口" kvg:position="left" kvg:radical="general"><path id="kvg:0543b-s1" kvg:type="㇑" d="M12.75 34.79c.37.51.76.94.92 1.58C14.96 41.43 16.51 54.9 17.4 64"/><path id="kvg:0543b-s2" kvg:type="㇕b" d="M15.08 36.72c9.42-2.22 16.05-3.56 20.42-4.23 1.6-.24 2.56 1.44 2.33 2.87-.95 5.92-3.05 13.57-4.46 21.75"/><path id="kvg:0543b-s3" kvg:type="㇐b" d="M17.57 59.05c5.14-.75 11.33-1.05 18.39-2.21"/></g><g id="kvg:0543b-g2" kvg:element="勿" kvg:position="right"><g id="kvg:0543b-g3" kvg:element="勹"><path id="kvg:0543b-s4" kvg:type="㇒" d="M58.65 12c.05.84.1 2.17-.09 3.38-1.1 7.13-7.41 22.79-16.06 32.37"/><path id="kvg:0543b-s5" kvg:type="㇆" d="M53.72 36.14c.97.67 3.28.73 4.86.45 6.17-1.09 28.05-4.76 31.91-4.98 3.86-.22 4.63 2.24 4.05 6.95s-6.63 42.4-15.13 55.18c-2.55 3.84-4.9.68-7.18-2.12"/></g><path id="kvg:0543b-s6" kvg:type="㇒" d="M60.49 40.25c.07.78.39 2.12-.13 3.15-5.11 10.1-12.11 21.1-22.37 30.1"/><path id="kvg:0543b-s7" kvg:type="㇒" d="M76.8 37.5c.1 1.26.4 3.29-.19 5.04C73 53.25 61.75 76.48 43.55 90.75"/></g></g></g></svg>