<svg xmlns="http://www.w3.org/2000/svg" width="109" height="109" viewBox="0 0 109 109"><g id="kvg:StrokePaths_0544a"><g id="kvg:0544a" kvg:element="告"><g id="kvg:0544a-g1" kvg:element="牛" kvg:variant="true" kvg:position="top"><path id="kvg:0544a-s1" kvg:type="㇒" d="M34.89 20.39c.04.59.18 1.54-.08 2.35C33.12 28 28.5 37.25 21 45.25"/><path id="kvg:0544a-s2" kvg:type="㇐" d="M33.13 34.17c1.62.21 2.91.19 3.85.13 9.4-.55 21.77-2.05 32.4-3.37 2.16-.27 4.37-.41 6.5.11"/><path id="kvg:0544a-s3" kvg:type="㇑a" d="M52.81 10.13c1.22 1.22 1.51 2.74 1.51 4.25.0 5.12.0 33.62.0 40.12"/><path id="kvg:0544a-s4" kvg:type="㇐" d="M12.88 58.73c1.92.54 5.45.75 7.36.54 19.89-2.14 47.39-4.89 66.43-6.23 3.19-.22 5.12.26 6.72.53"/></g><g id="kvg:0544a-g2" kvg:element="口" kvg:position="bottom" kvg:radical="general"><path id="kvg:0544a-s5" kvg:type="㇑" d="M29.75 71.6c1.12 1.04 1.62 2.09 1.86 3.62 1.33 8.62 2.24 15.02 2.95 20.77.17 1.35.32 2.67.47 3.97"/><path id="kvg:0544a-s6" kvg:type="㇕b" d="M32.64 74.21c13.21-2.16 31.39-4.69 40.98-5.52 3.64-.32 6.11 1 5.16 4.95-1.34 5.65-3.12 12.52-5.87 20.38"/><path id="kvg:0544a-s7" kvg:type="㇐b" d="M36.04 97.38c9.92-.53 24.79-1.6 34.96-2.14 1.84-.1 3.53-.18 5-.24"/></g></g></g></svg>