<svg xmlns="http://www.w3.org/2000/svg" width="109" height="109" viewBox="0 0 109 109"><g id="kvg:StrokePaths_05448" style="fill:none;stroke:#000000;stroke-width:3;stroke-linecap:round;stroke-linejoin:round;"><g id="kvg:05448" kvg:element="呈"><g id="kvg:05448-g1" kvg:element="口" kvg:position="top" kvg:radical="general"><path id="kvg:05448-s1" kvg:type="㇑" d="M28.71 19.08c.89.59 1.45 1.4 1.68 2.42 1.36 4.62 2.71 9.67 4.11 16.5.28 1.37.56 2.78.84 4.21"/><path id="kvg:05448-s2" kvg:type="㇕b" d="M31.03 20.45c11.23-1.56 33.93-4 41.99-4.79 3.06-.3 5.53.85 4.56 4.26-1.28 4.5-3.05 8.27-5.72 14.96"/><path id="kvg:05448-s3" kvg:type="㇐b" d="M35.83 39.33c7.17-.95 22.87-2.46 33.41-3.41 1.85-.17 3.51-.31 4.89-.4"/></g><g id="kvg:05448-g2" kvg:element="王" kvg:original="玉" kvg:partial="true" kvg:position="bottom" kvg:phon="壬V"><path id="kvg:05448-s4" kvg:type="㇐" d="M29 53.97c2.88.41 5.88.14 8.12-.14 7.65-.98 25.12-2.7 35.27-3.42 2.23-.16 4.98-.28 7.11.35"/><path id="kvg:05448-s5" kvg:type="㇑a" d="M53 54.75c.88.88 1.25 1.75 1.25 3.25.0 7 0 22.38.0 29.5"/><path id="kvg:05448-s6" kvg:type="㇐" d="M29.25 70.25c2.5.62 6.43.36 8.39.15 9.26-.96 22.62-2.68 32.87-3.63 2.82-.26 6.25-.4 8.75.23"/><path id="kvg:05448-s7" kvg:type="㇐" d="M15.75 90.49c3.07 1.06 7.09.77 10.25.52 20.4-1.58 37.09-3.35 57.63-4.17 3.43-.14 7.35.09 10.62 1.4"/></g></g></g></svg>