<svg xmlns="http://www.w3.org/2000/svg" width="109" height="109" viewBox="0 0 109 109"><g id="kvg:StrokePaths_0546a" style="fill:none;stroke:#000000;stroke-width:3;stroke-linecap:round;stroke-linejoin:round;"><g id="kvg:0546a" kvg:element="呪"><g id="kvg:0546a-g1" kvg:element="口" kvg:position="left" kvg:radical="general"><path id="kvg:0546a-s1" kvg:type="㇑" d="M11.25 28.79c.76.95 1.19 2.02 1.3 3.23.81 5.79 1.57 10.81 2.23 15.98.32 2.52.61 5.06.88 7.75"/><path id="kvg:0546a-s2" kvg:type="㇕b" d="M13.33 30.22c8.11-1.41 15.1-1.98 19.67-2.59 3.55-.48 5.38.72 4.73 4.54-.96 5.68-2.12 11.67-3.37 18.94"/><path id="kvg:0546a-s3" kvg:type="㇐b" d="M16.82 53.55c4.98-.51 9.17-.84 14.18-1.26 1.7-.14 3.5-.29 5.45-.45"/></g><g id="kvg:0546a-g2" kvg:element="兄" kvg:position="right"><g id="kvg:0546a-g3" kvg:element="口" kvg:position="top"><path id="kvg:0546a-s4" kvg:type="㇑" d="M47.86 20.6c.86 1.01 1.44 2.15 1.73 3.42 1.05 5.85 1.78 10.19 2.63 16.5.29 2.16.59 4.55.92 7.3"/><path id="kvg:0546a-s5" kvg:type="㇕b" d="M49.93 22.24c9.3-.99 24.1-2.06 32.19-2.76 4.61-.4 5.94.86 5.09 5.53-.84 4.6-2.02 9.31-3.81 17.17"/><path id="kvg:0546a-s6" kvg:type="㇐b" d="M54.02 45.09c7.97-.63 17.14-1.2 24.47-1.76 2.53-.19 4.85-.38 6.82-.58"/></g><g id="kvg:0546a-g4" kvg:element="儿" kvg:original="八" kvg:position="bottom"><g id="kvg:0546a-g5" kvg:element="丿"><path id="kvg:0546a-s7" kvg:type="㇒" d="M63.47 48.51c0 1.24-.16 2.6-.65 3.97-3.69 10.27-11.19 25.27-26.7 37.27"/></g><path id="kvg:0546a-s8" kvg:type="㇟" d="M72.24 46.75c.88.88 1.1 2.12 1.1 3.6.0 6.49-.08 21.89-.08 30.88.0 10.09 1.99 11.51 12.48 11.27C95.5 92.28 96.77 90.42 96.77 81"/></g></g></g></g></svg>