<svg xmlns="http://www.w3.org/2000/svg" width="109" height="109" viewBox="0 0 109 109"><g id="kvg:StrokePaths_05475"><g id="kvg:05475" kvg:element="呵"><g id="kvg:05475-g1" kvg:element="口" kvg:position="left" kvg:radical="general"><path id="kvg:05475-s1" kvg:type="㇑" d="M9.75 34.62c.37.46.76.85.92 1.43 1.29 4.58 3.34 17.23 4.23 25.46"/><path id="kvg:05475-s2" kvg:type="㇕b" d="M12.08 35.82C21.5 33.81 27.63 32.6 32 31.99c1.6-.22 2.56 1.3 2.33 2.6-.95 5.35-2.05 13.13-3.46 20.53"/><path id="kvg:05475-s3" kvg:type="㇐b" d="M15.07 58.29c5.14-.68 11.33-1.45 18.39-2.5"/></g><g id="kvg:05475-g2" kvg:element="可" kvg:position="right"><g id="kvg:05475-g3" kvg:element="丁" kvg:part="1"><g id="kvg:05475-g4" kvg:element="一"><path id="kvg:05475-s4" kvg:type="㇐" d="M38.72 22.13c1.61.51 4.55.6 6.16.51C55.4 22 81.62 18.96 94.92 18.29c2.67-.13 4.28.24 5.62.5"/></g></g><g id="kvg:05475-g5" kvg:element="口"><path id="kvg:05475-s5" kvg:type="㇑" d="M45.83 41.07c.33.37 1.18 2.18 1.32 2.64 1.16 3.66 3.54 16.26 4.33 22.83"/><path id="kvg:05475-s6" kvg:type="㇕b" d="M47.9 43.05c6.85-1.55 15.64-3.52 19.55-4 1.43-.18 2.2 1.03 2.08 2.08C69 45.75 67.5 54 66.94 60.98"/><path id="kvg:05475-s7" kvg:type="㇐b" d="M51.64 63.33c4.59-.54 10.92-.98 17.23-1.82"/></g><g id="kvg:05475-g6" kvg:element="丁" kvg:part="2"><g id="kvg:05475-g7" kvg:element="亅"><path id="kvg:05475-s8" kvg:type="㇚" d="M86.31 21.59c.07.48 1.41 2.5 1.48 5.54.34 14.6-.22 57.89-.22 62.86.0 8.53-5.57 4.51-10.36.25"/></g></g></g></g></g></svg>