<svg xmlns="http://www.w3.org/2000/svg" width="109" height="109" viewBox="0 0 109 109"><g id="kvg:StrokePaths_05470" style="fill:none;stroke:#000000;stroke-width:3;stroke-linecap:round;stroke-linejoin:round;"><g id="kvg:05470" kvg:element="呰"><g id="kvg:05470-g1" kvg:element="此" kvg:variant="true" kvg:position="top"><g id="kvg:05470-g2" kvg:element="止" kvg:variant="true" kvg:position="left"><g id="kvg:05470-g3" kvg:element="卜" kvg:original="ト"><path id="kvg:05470-s1" kvg:type="㇑" d="M34.32 13.23c1.01.35 1.62 1.56 1.82 2.25s-.07 27.91-.07 35.35"/><path id="kvg:05470-s2" kvg:type="㇐" d="M36.65 31.49c4.5-.52 10.82-2.06 15.24-2.58 1.1-.13 1.38-.17 2.06.0"/></g><path id="kvg:05470-s3" kvg:type="㇄" d="M17.45 27.51c1.01.35 1.82 2.04 1.82 2.75.0 3.81-.74 18.49-.74 24.11.0 1.38.48 2.4 2.47 1.88 6.75-1.75 18.25-5.75 30.5-10"/></g><g id="kvg:05470-g4" kvg:element="匕" kvg:position="right"><path id="kvg:05470-s4" kvg:type="㇒" d="M88.04 16.19c.2.33.32 1.3-.18 1.81-3.25 3.3-14.41 12.4-24.92 15.78"/><path id="kvg:05470-s5" kvg:type="㇟" d="M60.46 12.5c1.09 1.03 1.16 1.71 1.53 3.08.36 1.37.11 21.54.11 30.88.0 9.34 8.87 7.84 16.43 7.84 14.86.0 15.11-2.6 15.11-9.15"/></g></g><g id="kvg:05470-g5" kvg:element="口" kvg:position="bottom" kvg:radical="general"><path id="kvg:05470-s6" kvg:type="㇑" d="M31 67.35c.47.52.95.96 1.16 1.61 1.63 5.18 3.09 18.47 4.2 27.78"/><path id="kvg:05470-s7" kvg:type="㇕b" d="M32.56 69.37C47.5 67.5 65.1 65.68 72.74 65c2.79-.25 4.46 1.48 4.06 2.94-1.65 6.05-3.08 13.87-5.54 22.24"/><path id="kvg:05470-s8" kvg:type="㇐b" d="M36.42 93.7c8.96-.77 25.32-2.1 37.63-3.28"/></g></g></g></svg>