<svg xmlns="http://www.w3.org/2000/svg" width="109" height="109" viewBox="0 0 109 109"><g id="kvg:StrokePaths_05486" style="fill:none;stroke:#000000;stroke-width:3;stroke-linecap:round;stroke-linejoin:round;"><g id="kvg:05486" kvg:element="咆"><g id="kvg:05486-g1" kvg:element="口" kvg:position="left" kvg:radical="general"><path id="kvg:05486-s1" kvg:type="㇑" d="M10.25 33.29c.37.51.76.94.92 1.58C12.46 39.93 14.51 53.9 15.4 63"/><path id="kvg:05486-s2" kvg:type="㇕b" d="M11.58 35.72C21 33.5 28.63 31.66 33 30.99c1.6-.24 2.56 1.44 2.33 2.87-.98 6.11-2.58 14.7-3.96 22.75"/><path id="kvg:05486-s3" kvg:type="㇐b" d="M15.07 59.05c5.14-.75 11.33-1.05 18.39-2.21"/></g><g id="kvg:05486-g2" kvg:element="包" kvg:position="right"><g id="kvg:05486-g3" kvg:element="勹"><g id="kvg:05486-g4" kvg:element="丿"><path id="kvg:05486-s4" kvg:type="㇒" d="M57.6 13c.05.82.27 2.18-.1 3.29-2.44 7.25-9.05 20.86-18.14 31.44"/></g><path id="kvg:05486-s5" kvg:type="㇆" d="M54.49 29.18c.98.61 2.85.82 4.42.41S86 25.31 89.9 24.95c1.85-.17 3.99 1.12 3.87 3.41C93 42 90.75 57 86.17 72.07c-2.09 6.88-4.96 3.03-7.27.48"/></g><g id="kvg:05486-g5" kvg:element="巳"><g id="kvg:05486-g6" kvg:element="己" kvg:variant="true"><path id="kvg:05486-s6" kvg:type="㇕" d="M48.03 45.74c1.28.94 2.37.94 4.25.63 3.81-.63 18.64-3.27 19.8-3.39 1.54-.16 2.75 1.03 2.2 3.47-.16.73-1.28 7.05-3.12 13.53"/><path id="kvg:05486-s7" kvg:type="㇐" d="M52.24 62.85c4.12-.45 15.57-1.79 21.43-2.18"/><path id="kvg:05486-s8" kvg:type="㇟" d="M50.52 46.52c.9 1.16 1.12 1.5 1.11 3.3-.03 5.74.15 28.84.15 33.86.0 10.9 2.64 12.26 25.45 12.26 19.06.0 21.4-3.25 21.4-13.65"/></g></g></g></g></g></svg>