<svg xmlns="http://www.w3.org/2000/svg" width="109" height="109" viewBox="0 0 109 109"><g id="kvg:StrokePaths_0548e"><g id="kvg:0548e" kvg:element="咎"><g id="kvg:0548e-g1" kvg:element="处" kvg:position="top"><g id="kvg:0548e-g2" kvg:element="夂" kvg:position="left"><g id="kvg:0548e-g3" kvg:element="各" kvg:part="1"><path id="kvg:0548e-s1" kvg:type="㇒" d="M33.77 12.08c.06.73.29 1.94-.11 2.94-3.1 7.68-10.03 19.13-19.75 28.71"/><path id="kvg:0548e-s2" kvg:type="㇇" d="M31.6 22.57c.33.04 1.76.0 2.71-.11 3.14-.35 11.46-2.59 15.94-3.68 3.08-.75 3.95.85 3.16 2.89C49.11 32.81 34.67 58 13.77 68.7"/><path id="kvg:0548e-s3" kvg:type="㇏" d="M24.98 34.91c10.44.25 37.35 20.09 59.35 28.4 3.46 1.31 6.22 2.05 9.57 2.46"/></g></g><g id="kvg:0548e-g4" kvg:element="人" kvg:position="right"><path id="kvg:0548e-s4" kvg:type="㇒" d="M76.09 14.81c.05.63.11 1.62-.1 2.52-1.22 5.32-8.2 16.99-17.76 24.14"/><path id="kvg:0548e-s5" kvg:type="㇏" d="M73.02 27.58c5.34 2.79 13.79 11.46 15.13 15.8"/></g></g><g id="kvg:0548e-g5" kvg:element="口" kvg:radical="general"><g id="kvg:0548e-g6" kvg:element="各" kvg:part="2"><path id="kvg:0548e-s6" kvg:type="㇑" d="M31.67 70.08c.39.46.78.84.96 1.42 1.35 4.55 2.92 18.62 3.84 26.8"/><path id="kvg:0548e-s7" kvg:type="㇕b" d="M33.08 72.63c10.91-1.54 34.28-3.42 38.83-4.02 1.66-.22 2.66 1.29 2.42 2.58-.98 5.32-3.21 14.26-4.67 21.61"/><path id="kvg:0548e-s8" kvg:type="㇐b" d="M36.65 95.32c5.34-.68 27.88-1.79 35.21-2.83"/></g></g></g></g></svg>