<!DOCTYPE svg PUBLIC "-//W3C//DTD SVG 1.0//EN" "http://www.w3.org/TR/2001/REC-SVG-20010904/DTD/svg10.dtd" [
<!ATTLIST g
xmlns:kvg CDATA #FIXED "http://kanjivg.tagaini.net"
kvg:element CDATA #IMPLIED
kvg:variant CDATA #IMPLIED
kvg:partial CDATA #IMPLIED
kvg:original CDATA #IMPLIED
kvg:part CDATA #IMPLIED
kvg:number CDATA #IMPLIED
kvg:tradForm CDATA #IMPLIED
kvg:radicalForm CDATA #IMPLIED
kvg:position CDATA #IMPLIED
kvg:radical CDATA #IMPLIED
kvg:phon CDATA #IMPLIED >
<!ATTLIST path
xmlns:kvg CDATA #FIXED "http://kanjivg.tagaini.net"
kvg:type CDATA #IMPLIED >
]><svg xmlns="http://www.w3.org/2000/svg" width="109" height="109" viewBox="0 0 109 109"><g id="kvg:StrokePaths_054a2" style="fill:none;stroke:#000000;stroke-width:3;stroke-linecap:round;stroke-linejoin:round;"><g id="kvg:054a2" kvg:element="咢"><g id="kvg:054a2-g1" kvg:position="top"><g id="kvg:054a2-g2" kvg:element="口" kvg:position="left" kvg:radical="general"><path id="kvg:054a2-s1" kvg:type="㇑" d="M23.75 14.81c.37.33 1.25 1.61 1.41 2.03 1.29 3.31 2.83 10.95 3.71 16.9"/><path id="kvg:054a2-s2" kvg:type="㇕b" d="M25.56 17.06c7.94-1.81 16.84-3.64 21.19-4.07 1.59-.16 2.54.94 2.32 1.88-.94 3.87-2.04 8.55-3.44 13.9"/><path id="kvg:054a2-s3" kvg:type="㇐b" d="M29.05 31.34c5.11-.49 11.66-1.34 18.67-2.1"/></g><g id="kvg:054a2-g3" kvg:element="口" kvg:position="right"><path id="kvg:054a2-s4" kvg:type="㇑" d="M56.75 12.31c.4.33.8.61.98 1.03 1.38 3.31 2.56 11.95 3.5 17.9"/><path id="kvg:054a2-s5" kvg:type="㇕b" d="M59.22 14.56c9.53-1.81 15.97-2.64 20.62-3.07 1.7-.16 2.72.94 2.48 1.88-1.01 3.87-1.68 7.55-3.18 12.9"/><path id="kvg:054a2-s6" kvg:type="㇐b" d="M61.41 28.84c5.46-.49 12.46-1.34 19.96-2.1"/></g></g><g id="kvg:054a2-g4" kvg:position="bottom"><g id="kvg:054a2-g5" kvg:element="二"><g id="kvg:054a2-g6" kvg:position="top"><path id="kvg:054a2-s7" kvg:type="㇐" d="M31 42.61c.92.41 2.6.51 3.51.41 5.83-.7 36.38-4.59 42.03-4.12 1.52.13 2.44.19 3.21.4"/></g><g id="kvg:054a2-g7" kvg:position="bottom"><path id="kvg:054a2-s8" kvg:type="㇐" d="M17.75 57.2c1.52.54 4.31.67 5.82.54C38.75 56.5 75 52.25 91.69 51.51c2.53-.11 4.05.26 5.31.53"/></g></g><path id="kvg:054a2-s9" kvg:type="㇉" d="M43 56.5c1.25 1.5 1 3 .02 4.58-.78 1.26-2.76 4.33-3.26 4.95-2.01 2.47-1.51 4.22 1.14 4.25 1.67.02 25.24-4.56 29.51-5.24 3.34-.53 4.84 2.47 3.93 5.1-2.3 6.72-9.4 21.95-13.83 26.88-4.02 4.48-6.44-1.27-7.54-2.57"/></g></g></g><g id="kvg:StrokeNumbers_054a2" style="font-size:8;fill:#808080"><text transform="matrix(1 0 0 1 18.50 23.50)">1</text><text transform="matrix(1 0 0 1 28.50 12.50)">2</text><text transform="matrix(1 0 0 1 32.50 27.50)">3</text><text transform="matrix(1 0 0 1 52.50 23.50)">4</text><text transform="matrix(1 0 0 1 60.50 10.50)">5</text><text transform="matrix(1 0 0 1 64.50 24.50)">6</text><text transform="matrix(1 0 0 1 25.50 43.50)">7</text><text transform="matrix(1 0 0 1 10.50 57.50)">8</text><text transform="matrix(1 0 0 1 32.25 66.50)">9</text></g></svg>