<svg xmlns="http://www.w3.org/2000/svg" width="109" height="109" viewBox="0 0 109 109"><g id="kvg:StrokePaths_054b2"><g id="kvg:054b2" kvg:element="咲"><g id="kvg:054b2-g1" kvg:element="口" kvg:position="left" kvg:radical="general"><path id="kvg:054b2-s1" kvg:type="㇑" d="M13.14 38.36c.81.92.94 1.4 1.21 2.64.89 4.08 1.95 9.79 3.02 15.42.27 1.41.51 2.8.71 4.13"/><path id="kvg:054b2-s2" kvg:type="㇕b" d="M15.23 39.52c6.11-.92 11.67-2.07 17.29-3.05 3.44-.6 5.07-.04 4.3 3.8-.83 4.11-1.65 7.56-3.14 14.86"/><path id="kvg:054b2-s3" kvg:type="㇐b" d="M18.85 57.96c4.21-.52 7.73-1.01 12.73-1.7 1.15-.16 2.37-.33 3.7-.51"/></g><g id="kvg:054b2-g2" kvg:element="关" kvg:position="right" kvg:phon="关"><path id="kvg:054b2-s4" kvg:type="㇔" d="M44.88 17.62c3.69 2.55 9.54 10.48 10.47 14.44"/><path id="kvg:054b2-s5" kvg:type="㇒" d="M78.25 14.64c.05.58.22 1.54-.1 2.34-1.65 4.14-5.03 9.39-10.9 16.52"/><g id="kvg:054b2-g3" kvg:element="天"><path id="kvg:054b2-s6" kvg:type="㇐" d="M46.29 39.34c1.96.29 3.96.31 5.58.13 6.28-.69 17.97-2.39 24.4-3.01 1.98-.19 3.88-.35 5.84.13"/><g id="kvg:054b2-g4" kvg:element="大"><path id="kvg:054b2-s7" kvg:type="㇐" d="M39.24 61.73c3.26.77 5.78.8 8.64.46C60 60.75 73.99 59.49 83 58.84c3.02-.22 6.01-.07 8.98.64"/><path id="kvg:054b2-s8" kvg:type="㇒" d="M60.68 42.12c.6.76.77 2.38.7 3.84C59.95 73.25 49.59 87 31.95 93.37"/><path id="kvg:054b2-s9" kvg:type="㇏" d="M60.95 61.89c5.79 5.58 15.85 16.6 23.41 23.76 3.14 2.97 6.01 4.84 8.49 6.14"/></g></g></g></g></g></svg>