<svg xmlns="http://www.w3.org/2000/svg" width="109" height="109" viewBox="0 0 109 109"><g id="kvg:StrokePaths_054c0" style="fill:none;stroke:#000000;stroke-width:3;stroke-linecap:round;stroke-linejoin:round;"><g id="kvg:054c0" kvg:element="哀"><g id="kvg:054c0-g1" kvg:element="衣" kvg:part="1" kvg:position="top" kvg:phon="衣1"><g id="kvg:054c0-g2" kvg:element="亠" kvg:position="top" kvg:radical="nelson"><path id="kvg:054c0-s1" kvg:type="㇑a" d="M52.75 10.1c1.14 1.14 1.81 2.53 1.81 4.18.0 4.21-.06 5.09-.06 7.72"/><path id="kvg:054c0-s2" kvg:type="㇐" d="M18.25 25.04c3.5.71 5.92.75 9.11.39 13.77-1.55 40.1-3.75 54.65-4.35 2.83-.12 6.3-.22 9 .78"/></g></g><g id="kvg:054c0-g3" kvg:position="bottom"><g id="kvg:054c0-g4" kvg:element="口" kvg:radical="tradit"><path id="kvg:054c0-s3" kvg:type="㇑" d="M32 36.16c.79.79 1.43 1.73 1.88 3.05.99 2.91 2.13 7.41 3.02 11.45.38 1.74.72 3.4.98 4.81"/><path id="kvg:054c0-s4" kvg:type="㇕b" d="M33.94 37.23c9.63-1.19 27.67-3.14 34.94-3.81 2.79-.26 5.42.3 4.34 3.61-1.02 3.11-1.68 4.42-3.44 10.28"/><path id="kvg:054c0-s5" kvg:type="㇐b" d="M38.56 52.15c5.32-.41 19.03-2.37 28.44-3.39 1.93-.21 3.64-.37 5.02-.46"/></g><g id="kvg:054c0-g5" kvg:element="衣" kvg:part="2" kvg:position="bottom" kvg:phon="衣2"><path id="kvg:054c0-s6" kvg:type="㇒" d="M45.99 54.14c.12 1.15-.17 2.17-.68 3.19-3.2 6.4-11.29 18.18-27 26.64"/><path id="kvg:054c0-s7" kvg:type="㇙" d="M38.5 71.74c.69.69 1 1.76 1 3 0 11.82-.07 16.89-.07 19.94.0 2 .82 2.95 2.93 1.14 1.75-1.5 14.39-11.31 17.1-13.09"/><path id="kvg:054c0-s8" kvg:type="㇒" d="M78.54 50.89c-.04.98-.29 1.86-.78 2.5-3.07 4.01-7.22 7.65-16.45 14.33"/><path id="kvg:054c0-s9" kvg:type="㇏" d="M51.25 62.75c3.39.0 7.82 5.07 29.71 24.17 2.67 2.33 5.42 4.2 9.29 6.08"/></g></g></g></g></svg>