<svg xmlns="http://www.w3.org/2000/svg" width="109" height="109" viewBox="0 0 109 109"><g id="kvg:StrokePaths_054c1"><g id="kvg:054c1" kvg:element="品"><g id="kvg:054c1-g1" kvg:element="口" kvg:position="top" kvg:radical="general"><path id="kvg:054c1-s1" kvg:type="㇑" d="M31.25 18.63c1.12.9 1.84 1.63 2.17 3.11 1.34 6.06 2.95 14.39 4.27 22.02.23 1.36.46 2.69.67 3.99"/><path id="kvg:054c1-s2" kvg:type="㇕b" d="M34.31 20.67c11.36-2.13 27.84-3.97 36.21-4.76 3.58-.34 6.48.83 5.44 4.83-1.51 5.84-2.91 12.77-5.2 20.62"/><path id="kvg:054c1-s3" kvg:type="㇐b" d="M39.17 45.17c7.95-.69 18.78-1.62 29.71-2.66 1.39-.13 2.78-.26 4.17-.4"/></g><g id="kvg:054c1-g2" kvg:position="bottom"><g id="kvg:054c1-g3" kvg:element="口" kvg:position="left"><path id="kvg:054c1-s4" kvg:type="㇑" d="M14.25 63.88c.92 1.02 1.24 1.7 1.57 3.08 1.25 5.11 2.39 15.01 3.33 23.15.18 1.54.35 3.02.52 4.4"/><path id="kvg:054c1-s5" kvg:type="㇕b" d="M16.71 65.42c10.62-1.69 18.5-2.68 24.05-3.17 4.11-.37 5.36 1.01 4.85 3.73-1.12 5.95-2.51 13.41-4.21 21.38"/><path id="kvg:054c1-s6" kvg:type="㇐b" d="M19.9 90.92c5.67-.67 11.17-1.43 20.47-2.36 1.43-.14 2.95-.29 4.57-.44"/></g><g id="kvg:054c1-g4" kvg:element="口" kvg:position="right"><path id="kvg:054c1-s7" kvg:type="㇑" d="M58.75 61.88c1 1 1.54 1.84 1.77 3.12 1.11 6.25 2.07 14.89 2.93 22.87.15 1.42.31 2.81.47 4.13"/><path id="kvg:054c1-s8" kvg:type="㇕b" d="M61.71 64.67c10.68-1.7 20.56-3.71 26.54-4.63 3.5-.54 5.37.84 4.89 3.57-1.09 6.13-2.53 15.22-4.23 23.25"/><path id="kvg:054c1-s9" kvg:type="㇐b" d="M64.4 89.42c7.96-.58 12.59-.85 23.11-1.5 1.51-.09 3.15-.2 4.93-.31"/></g></g></g></g></svg>