<svg xmlns="http://www.w3.org/2000/svg" width="109" height="109" viewBox="0 0 109 109"><g id="kvg:StrokePaths_054ed" style="fill:none;stroke:#000000;stroke-width:3;stroke-linecap:round;stroke-linejoin:round;"><g id="kvg:054ed" kvg:element="哭"><g id="kvg:054ed-g1" kvg:position="top"><g id="kvg:054ed-g2" kvg:element="口" kvg:position="left" kvg:radical="tradit"><path id="kvg:054ed-s1" kvg:type="㇑" d="M19.75 17.64c.42.39.85.72 1.04 1.21C22.25 22.75 24 30.5 25 37.5"/><path id="kvg:054ed-s2" kvg:type="㇕b" d="M20.88 18.28C29.25 17.75 41 16 45.94 15.49c1.8-.19 2.89 1.11 2.63 2.21-1.07 4.55-2.32 8.55-3.91 14.85"/><path id="kvg:054ed-s3" kvg:type="㇐b" d="M25.2 35.08C31 34.5 39 33.5 46.96 32.61"/></g><g id="kvg:054ed-g3" kvg:element="口" kvg:position="right" kvg:radical="tradit"><path id="kvg:054ed-s4" kvg:type="㇑" d="M59.25 15.14c.42.39.85.72 1.04 1.21C61.75 20.25 63 28.5 64 35.5"/><path id="kvg:054ed-s5" kvg:type="㇕b" d="M60.38 16.78c9.37-1.53 20.12-2.28 25.06-2.79 1.8-.19 2.89 1.11 2.63 2.21-1.07 4.55-2.82 9.05-4.41 15.35"/><path id="kvg:054ed-s6" kvg:type="㇐b" d="M64.2 33.58C70 33 78.5 32.5 86.46 31.61"/></g></g><g id="kvg:054ed-g4" kvg:element="犬" kvg:position="bottom" kvg:radical="nelson"><g id="kvg:054ed-g5" kvg:element="大"><path id="kvg:054ed-s7" kvg:type="㇐" d="M19.34 56.55c1.03.29 4.51.64 6.48.47 10.32-.87 46.05-3.48 58.49-4.08 1.42-.07 3.44.11 6.62.6"/><path id="kvg:054ed-s8" kvg:type="㇒" d="M51.24 38.75c1.1.8 1.42 2.09 1.42 3.69.0 19.06-7.41 44.06-38.63 53.31"/><path id="kvg:054ed-s9" kvg:type="㇏" d="M52.99 54.69c8.12 11.09 23.9 29.86 34.25 37.77 2.72 2.08 3.72 2.34 4.97 2.54"/></g><g id="kvg:054ed-g6" kvg:element="丶"><path id="kvg:054ed-s10" kvg:type="㇔" d="M69.49 39.53c7.01 3.21 8.93 5.65 11.1 8.65"/></g></g></g></g></svg>