<svg xmlns="http://www.w3.org/2000/svg" width="109" height="109" viewBox="0 0 109 109"><g id="kvg:StrokePaths_054ee" style="fill:none;stroke:#000000;stroke-width:3;stroke-linecap:round;stroke-linejoin:round;"><g id="kvg:054ee" kvg:element="哮"><g id="kvg:054ee-g1" kvg:element="口" kvg:position="left" kvg:radical="general"><path id="kvg:054ee-s1" kvg:type="㇑" d="M11.18 34.62c.35.48.71.88.88 1.48 1.36 4.75 3.3 17.87 4.46 26.4"/><path id="kvg:054ee-s2" kvg:type="㇕b" d="M11.89 36.34C19 35 28.21 33.12 32.07 32.49c1.41-.23 2.33 1.35 2.19 2.69-.6 5.55-1.3 11.76-2.22 19.44"/><path id="kvg:054ee-s3" kvg:type="㇐b" d="M16.49 58.33c4.54-.71 9.76-1.58 17-2.51"/></g><g id="kvg:054ee-g2" kvg:element="孝" kvg:position="right"><g id="kvg:054ee-g3" kvg:element="耂" kvg:original="老" kvg:partial="true"><g id="kvg:054ee-g4" kvg:element="土"><path id="kvg:054ee-s4" kvg:type="㇐" d="M48.46 26.86c.6.33 1.71.38 2.31.33 7.83-.62 17.91-3.64 26.3-3.84 1-.03 1.61.16 2.11.33"/><path id="kvg:054ee-s5" kvg:type="㇑a" d="M64.67 11.37c.1.3 1.29 1.56 1.38 3.47.44 9.14.24 21.21.24 24.33"/><path id="kvg:054ee-s6" kvg:type="㇐" d="M40 42.06c1.22.71 3.44.82 4.69.71 10.81-1.01 33.06-5.26 49.9-5.84 2.04-.07 3.26.34 4.28.69"/></g><path id="kvg:054ee-s7" kvg:type="㇒" d="M87.05 16.57c.15 1.26.32 3.06-.8 4.54C71.84 40.23 59.69 51.5 32.75 68.69"/></g><g id="kvg:054ee-g5" kvg:element="子"><path id="kvg:054ee-s8" kvg:type="㇖" d="M62.69 53.1c.76.25 2.2.65 3.34.43 1.4-.27 14.99-2.99 16.29-3.28 2.2-.48 3.93 1.74 1.93 3.99-2.7 3.04-7.51 7.53-11.68 10.4"/><path id="kvg:054ee-s9" kvg:type="㇁" d="M68.4 64.69c6.35 3.31 11.35 20.56 5.25 30.12-.99 1.55-3.12 3.66-5.25 2.08-2.16-1.6-2.52-2.91-3.64-3.47"/><path id="kvg:054ee-s10" kvg:type="㇐" d="M45.38 72.39c.95.76 3.41 1.02 5.13.83 5.99-.66 37.23-6.14 44.47-5.47 1.71.16 3.23.25 4.37 1.01"/></g></g></g></g></svg>