<svg xmlns="http://www.w3.org/2000/svg" width="109" height="109" viewBox="0 0 109 109"><g id="kvg:StrokePaths_0550f" style="fill:none;stroke:#000000;stroke-width:3;stroke-linecap:round;stroke-linejoin:round;"><g id="kvg:0550f" kvg:element="唏"><g id="kvg:0550f-g1" kvg:element="口" kvg:position="left" kvg:radical="general"><path id="kvg:0550f-s1" kvg:type="㇑" d="M10.25 34.79c.47.47.96.86 1.17 1.44 1.64 4.64 3.61 17.44 4.73 25.77"/><path id="kvg:0550f-s2" kvg:type="㇕b" d="M12.08 36.22C21.5 34 27.63 33.16 32 32.49c1.6-.24 2.56 1.44 2.33 2.87-.95 5.92-2.05 12.57-3.46 20.75"/><path id="kvg:0550f-s3" kvg:type="㇐b" d="M16.07 58.05c5.14-.75 10.33-1.05 17.39-2.21"/></g><g id="kvg:0550f-g2" kvg:element="希" kvg:position="right"><g id="kvg:0550f-g3" kvg:element="乂" kvg:position="top"><g id="kvg:0550f-g4" kvg:element="丿"><path id="kvg:0550f-s4" kvg:type="㇒" d="M80.53 8.68c.23 1.24-.28 1.95-1.17 2.79-7.51 7.14-18.26 15.6-31.3 20.47"/></g><path id="kvg:0550f-s5" kvg:type="㇏" d="M52.49 14.72C63.5 17.25 75.5 23 83.86 31.26"/></g><g id="kvg:0550f-g5" kvg:element="布" kvg:position="bottom"><path id="kvg:0550f-s6" kvg:type="㇒" d="M62.11 30.17c.08 1.03-.14 2.75-.69 4.16C57.25 45.12 49.6 59.99 33.19 74.15"/><path id="kvg:0550f-s7" kvg:type="㇐" d="M39.79 43.1c1.25.53 3.55.61 4.81.53 10.92-.7 35.32-4.46 49.71-4.93 2.09-.07 3.34.25 4.39.51"/><g id="kvg:0550f-g6" kvg:element="巾"><path id="kvg:0550f-s8" kvg:type="㇑" d="M51.21 58.1c.42.3 1.31 2.21 1.4 2.8.08.59-.05 24.25-.14 27.94"/><path id="kvg:0550f-s9" kvg:type="㇆a" d="M52.48 59.79c2.64-.21 33.88-5.32 35.85-5.45 2.31-.15 3.73 1.41 3.73 3.95.0 9.09-.44 17.41-1.04 24.15-.78 8.8-5.7 2.55-6.58 1.51"/><path id="kvg:0550f-s10" kvg:type="㇑" d="M69.65 46c.5.35 1.56 2.62 1.66 3.32s-.07 46.81-.17 51.18"/></g></g></g></g></g></svg>