<!DOCTYPE svg PUBLIC "-//W3C//DTD SVG 1.0//EN" "http://www.w3.org/TR/2001/REC-SVG-20010904/DTD/svg10.dtd" [
<!ATTLIST g
xmlns:kvg CDATA #FIXED "http://kanjivg.tagaini.net"
kvg:element CDATA #IMPLIED
kvg:variant CDATA #IMPLIED
kvg:partial CDATA #IMPLIED
kvg:original CDATA #IMPLIED
kvg:part CDATA #IMPLIED
kvg:number CDATA #IMPLIED
kvg:tradForm CDATA #IMPLIED
kvg:radicalForm CDATA #IMPLIED
kvg:position CDATA #IMPLIED
kvg:radical CDATA #IMPLIED
kvg:phon CDATA #IMPLIED >
<!ATTLIST path
xmlns:kvg CDATA #FIXED "http://kanjivg.tagaini.net"
kvg:type CDATA #IMPLIED >
]><svg xmlns="http://www.w3.org/2000/svg" width="109" height="109" viewBox="0 0 109 109"><g id="kvg:StrokePaths_05514" style="fill:none;stroke:#000000;stroke-width:3;stroke-linecap:round;stroke-linejoin:round;"><g id="kvg:05514" kvg:element="唔"><g id="kvg:05514-g1" kvg:element="口" kvg:position="left" kvg:radical="general"><path id="kvg:05514-s1" kvg:type="㇑" d="M10.75 34.79c.37.51.76.94.92 1.58C12.96 41.43 15.01 52.9 15.9 62"/><path id="kvg:05514-s2" kvg:type="㇕b" d="M12.08 36.22c8.17-1.97 15.55-3.06 19.92-3.73 1.6-.24 2.56 1.44 2.33 2.87-.95 5.92-2.05 12.57-3.46 20.75"/><path id="kvg:05514-s3" kvg:type="㇐b" d="M16.07 58.05c5.14-.75 10.33-1.05 17.39-2.21"/></g><g id="kvg:05514-g2" kvg:element="吾" kvg:position="right"><g id="kvg:05514-g3" kvg:element="五" kvg:position="top"><g id="kvg:05514-g4" kvg:element="二" kvg:part="1"><path id="kvg:05514-s4" kvg:type="㇐" d="M45.04 19.32c.98.18 2.77.16 3.76.1 11.88-.68 19.19-3.07 37.97-3.65 1.64-.05 2.62.03 3.43.11"/></g><path id="kvg:05514-s5" kvg:type="㇑a" d="M64 20.75c.28.22 1 2.75.62 4.02-1.45 4.95-6.85 26.45-7.89 29.65"/><path id="kvg:05514-s6" kvg:type="㇕c" d="M47.93 34.71c.79.4 2.88.52 3.53.46 9.05-.92 24.3-3.67 30.81-4.4 1.5-.17 3.21 1.23 3.21 2.93.0 2.91-2.77 11.67-3.98 18.05"/><g id="kvg:05514-g5" kvg:element="二" kvg:part="2"><path id="kvg:05514-s7" kvg:type="㇐" d="M40.33 55.77c1.1.33 3.82.76 4.92.61 8.5-1.13 30.5-3.63 49.66-3.73 1.84-.01 3.08.09 4.56.62"/></g></g><g id="kvg:05514-g6" kvg:element="口" kvg:position="bottom"><path id="kvg:05514-s8" kvg:type="㇑" d="M48 66.88c.3.45.61.82.74 1.37 1.04 4.41 3.29 19.07 4.01 26.99"/><path id="kvg:05514-s9" kvg:type="㇕b" d="M49.86 68.79c10.89-1.54 29.14-3.2 34.98-3.77 2.14-.21 3.41.98 3.11 2.93-.77 5.1-2.46 14.05-4.13 21.96"/><path id="kvg:05514-s10" kvg:type="㇐b" d="M52.7 92.74c6.87-.64 23.8-2.24 33.76-2.71"/></g></g></g></g><g id="kvg:StrokeNumbers_05514" style="font-size:8;fill:#808080"><text transform="matrix(1 0 0 1 5.35 40.35)">1</text><text transform="matrix(1 0 0 1 14.16 31.50)">2</text><text transform="matrix(1 0 0 1 18.50 53.50)">3</text><text transform="matrix(1 0 0 1 38.50 18.50)">4</text><text transform="matrix(1 0 0 1 56.50 27.50)">5</text><text transform="matrix(1 0 0 1 40.50 33.50)">6</text><text transform="matrix(1 0 0 1 39.50 52.50)">7</text><text transform="matrix(1 0 0 1 41.50 74.50)">8</text><text transform="matrix(1 0 0 1 52.50 64.50)">9</text><text transform="matrix(1 0 0 1 55.50 88.50)">10</text></g></svg>