<svg xmlns="http://www.w3.org/2000/svg" width="109" height="109" viewBox="0 0 109 109"><g id="kvg:StrokePaths_05510" style="fill:none;stroke:#000000;stroke-width:3;stroke-linecap:round;stroke-linejoin:round;"><g id="kvg:05510" kvg:element="唐"><g id="kvg:05510-g1" kvg:element="广" kvg:position="tare" kvg:radical="nelson"><path id="kvg:05510-s1" kvg:type="㇑a" d="M54.3 11.88c.91.91 1.25 2.12 1.25 3.4.0.78-.05 4.96-.05 7.71"/><g id="kvg:05510-g2" kvg:element="厂"><path id="kvg:05510-s2" kvg:type="㇐" d="M24.56 26.48c2.94 1.05 6.31.61 9.31.21 14.38-1.93 31.75-3.18 44.63-4.19 2.99-.23 5.46-.05 8.38.58"/><path id="kvg:05510-s3" kvg:type="㇒" d="M28.15 27.75c1.11 1.11 1.16 2.34 1.16 4.63.0 22.87-5.31 48.37-17 63.59"/></g></g><g id="kvg:05510-g3" kvg:position="tarec"><g id="kvg:05510-g4" kvg:element="⺕" kvg:variant="true" kvg:original="彑"><path id="kvg:05510-s4" kvg:type="㇕c" d="M37.63 40.4c2.01.24 3.73.69 5.57.48 11.3-1.26 20.8-2.63 31.2-3.13 2.61-.12 4.41 1.21 4.01 3.62-1.05 6.31-2.04 13.38-3.21 20.77"/><path id="kvg:05510-s5" kvg:type="㇐" d="M33 52.41c2.7.36 5.03.5 7.75.21 15.38-1.61 30.63-2.69 43.27-3.35 2.98-.16 6.05-.14 8.98.57"/><path id="kvg:05510-s6" kvg:type="㇐" d="M36.83 65.95c2.26.33 4.27.44 6.55.25 10.21-.83 21.26-2.5 30.52-2.77 1.6-.05 2.61.0 3.81.15"/></g><path id="kvg:05510-s7" kvg:type="㇑a" d="M55.37 30.5c1.07 1.06 1.21 2.25 1.21 3.75.0 1.02.03 23 .03 30"/><g id="kvg:05510-g5" kvg:element="口" kvg:radical="tradit"><path id="kvg:05510-s8" kvg:type="㇑" d="M39.5 77.3c.85.65 1.36 1.51 1.52 2.56 1.1 4.38 1.87 8.58 2.73 13.84.28 1.7.53 3.33.75 4.79"/><path id="kvg:05510-s9" kvg:type="㇕b" d="M41.38 78.09c8.99-1.19 24.97-2.92 31.9-3.63 3.26-.34 5.29-.11 4.36 3.67-1.07 4.36-2.08 9.14-3.47 14.42"/><path id="kvg:05510-s10" kvg:type="㇐b" d="M45.2 96.22c4.83-.46 15.46-1.6 25.3-2.26 1.96-.13 3.89-.25 5.71-.36"/></g></g></g></g></svg>