<svg xmlns="http://www.w3.org/2000/svg" width="109" height="109" viewBox="0 0 109 109"><g id="kvg:StrokePaths_05538"><g id="kvg:05538" kvg:element="唸"><g id="kvg:05538-g1" kvg:element="口" kvg:position="left" kvg:radical="general"><path id="kvg:05538-s1" kvg:type="㇑" d="M9.75 34.09c.36.45.73.83.89 1.4 1.25 4.5 3.26 18.42 4.11 26.51"/><path id="kvg:05538-s2" kvg:type="㇕b" d="M11 36.25c9.13-1.98 16.08-3.17 20.31-3.76 1.55-.22 2.48 1.28 2.26 2.55-.92 5.26-2.49 13.39-3.85 20.67"/><path id="kvg:05538-s3" kvg:type="㇐b" d="M14.92 58.33c4.98-.67 10.48-1.43 17.31-2.46"/></g><g id="kvg:05538-g2" kvg:element="念" kvg:position="right"><g id="kvg:05538-g3" kvg:element="今" kvg:position="top"><g id="kvg:05538-g4" kvg:element="人" kvg:position="top"><path id="kvg:05538-s4" kvg:type="㇒" d="M62.42 12.25c.07.85.24 2.22-.13 3.4-2.63 8.19-10.42 21.48-23.2 32.5"/><path id="kvg:05538-s5" kvg:type="㇏" d="M62.99 16.35c4.21 5.35 22.36 22.8 27 26.72 1.58 1.33 3.6 1.9 5.17 2.27"/></g><g id="kvg:05538-g5" kvg:position="bottom"><g id="kvg:05538-g6" kvg:element="一"><path id="kvg:05538-s6" kvg:type="㇐" d="M53.25 40.55c.3.14 2.11.16 2.4.14 3.08-.16 10.09-1.44 13.7-2.15.48-.1 2.55.07 2.8.14"/></g><path id="kvg:05538-s7" kvg:type="㇇" d="M47.59 53.65c.78.37 1.23.57 3.11.27 7.31-1.17 18.89-3.21 24.12-4.16 3.1-.57 3.81 1.35 2.34 4.26C74 60.25 72.75 62 67.97 68.72"/></g></g><g id="kvg:05538-g7" kvg:element="心" kvg:position="bottom"><path id="kvg:05538-s8" kvg:type="㇔" d="M40.66 77.58c.26 2.34-2.61 12.67-4.7 16.58"/><path id="kvg:05538-s9" kvg:type="㇃" d="M49.57 76.26c5.83 13.98 16.83 23.81 35.97 21.38 5.27-.67 5.27-2.7 2.38-5.71"/><path id="kvg:05538-s10" kvg:type="㇔a" d="M65.43 74.25c2.16 5.94 5.41 8.9 6.43 3.06"/><path id="kvg:05538-s11" kvg:type="㇔" d="M86.56 74.66c4.82 1.51 8.44 2.89 12.35 7.57"/></g></g></g></g></svg>