<!DOCTYPE svg PUBLIC "-//W3C//DTD SVG 1.0//EN" "http://www.w3.org/TR/2001/REC-SVG-20010904/DTD/svg10.dtd" [
<!ATTLIST g
xmlns:kvg CDATA #FIXED "http://kanjivg.tagaini.net"
kvg:element CDATA #IMPLIED
kvg:variant CDATA #IMPLIED
kvg:partial CDATA #IMPLIED
kvg:original CDATA #IMPLIED
kvg:part CDATA #IMPLIED
kvg:number CDATA #IMPLIED
kvg:tradForm CDATA #IMPLIED
kvg:radicalForm CDATA #IMPLIED
kvg:position CDATA #IMPLIED
kvg:radical CDATA #IMPLIED
kvg:phon CDATA #IMPLIED >
<!ATTLIST path
xmlns:kvg CDATA #FIXED "http://kanjivg.tagaini.net"
kvg:type CDATA #IMPLIED >
]><svg xmlns="http://www.w3.org/2000/svg" width="109" height="109" viewBox="0 0 109 109"><g id="kvg:StrokePaths_05531" style="fill:none;stroke:#000000;stroke-width:3;stroke-linecap:round;stroke-linejoin:round;"><g id="kvg:05531" kvg:element="唱"><g id="kvg:05531-g1" kvg:element="口" kvg:position="left" kvg:radical="general"><path id="kvg:05531-s1" kvg:type="㇑" d="M12.75 29.88c.81.81 1.25 2.12 1.47 3.38.95 5.48 1.66 13.3 2.38 21.01.18 1.93.36 3.86.55 5.74"/><path id="kvg:05531-s2" kvg:type="㇕b" d="M14.95 32.17c9.63-1.25 16.32-1.84 20.93-2.43 2.75-.35 4.62.21 4.08 3.41-.97 5.86-2.1 11.6-3.53 19.71"/><path id="kvg:05531-s3" kvg:type="㇐b" d="M17.58 55.42c5.75-.55 10.51-.99 17.18-1.49 1.36-.1 2.81-.21 4.36-.31"/></g><g id="kvg:05531-g2" kvg:element="昌" kvg:position="right" kvg:phon="昌"><g id="kvg:05531-g3" kvg:element="日" kvg:position="top"><path id="kvg:05531-s4" kvg:type="㇑" d="M49.52 18.57c.83.83 1.53 2.04 1.53 2.96.0.7 1.72 15.76 2.55 23.23.27 2.39.44 4 .44 4.11"/><path id="kvg:05531-s5" kvg:type="㇕a" d="M51.69 19.93c10.39-1.59 27.59-3.13 32.94-3.57 2.85-.23 4.98.98 4.46 4.14-.86 5.38-1.96 12.65-4.32 21.79-.29 1.13-.6 2.29-.94 3.48"/><path id="kvg:05531-s6" kvg:type="㇐a" d="M53.33 32.68c7.42-.68 25.79-2.55 33.22-2.73"/><path id="kvg:05531-s7" kvg:type="㇐a" d="M54.94 45.66c6.06-.5 19.81-1.91 28.6-2.25"/></g><g id="kvg:05531-g4" kvg:element="日" kvg:position="bottom"><path id="kvg:05531-s8" kvg:type="㇑" d="M44.02 58.49c.87.87 1.51 2.2 1.65 3.25.24 1.81 2.12 17.51 3.21 26.51.42 3.48.73 5.96.79 6.25"/><path id="kvg:05531-s9" kvg:type="㇕a" d="M46.12 59.87c7-.74 35.87-2.93 43.75-3.51 4.02-.29 5.43 1.54 4.85 5.4-.92 6.07-3.14 17.17-4.67 24.9-.32 1.6-.6 3.05-.84 4.29"/><path id="kvg:05531-s10" kvg:type="㇐a" d="M48.44 73.97c9.31-.72 38.22-2.34 43.18-2.34"/><path id="kvg:05531-s11" kvg:type="㇐a" d="M50.24 89.52c8.94-.57 27.23-1.09 38.37-1.58"/></g></g></g></g><g id="kvg:StrokeNumbers_05531" style="font-size:8;fill:#808080"><text transform="matrix(1 0 0 1 8.25 40.63)">1</text><text transform="matrix(1 0 0 1 18.75 28.63)">2</text><text transform="matrix(1 0 0 1 20.50 51.50)">3</text><text transform="matrix(1 0 0 1 42.75 27.13)">4</text><text transform="matrix(1 0 0 1 53.50 16.63)">5</text><text transform="matrix(1 0 0 1 57.75 29.50)">6</text><text transform="matrix(1 0 0 1 58.50 42.50)">7</text><text transform="matrix(1 0 0 1 38.25 69.13)">8</text><text transform="matrix(1 0 0 1 46.99 56.53)">9</text><text transform="matrix(1 0 0 1 51.50 70.50)">10</text><text transform="matrix(1 0 0 1 52.50 85.63)">11</text></g></svg>