<svg xmlns="http://www.w3.org/2000/svg" width="109" height="109" viewBox="0 0 109 109"><g id="kvg:StrokePaths_05539" style="fill:none;stroke:#000000;stroke-width:3;stroke-linecap:round;stroke-linejoin:round;"><g id="kvg:05539" kvg:element="唹"><g id="kvg:05539-g1" kvg:element="口" kvg:position="left" kvg:radical="general"><path id="kvg:05539-s1" kvg:type="㇑" d="M8.25 34.75c.34.43.69.79.83 1.33 1.17 4.26 3.08 17.52 3.88 25.17"/><path id="kvg:05539-s2" kvg:type="㇕b" d="M10.36 36.8c8.54-1.87 13.64-3 17.61-3.56 1.45-.21 2.32 1.21 2.11 2.42-.86 4.98-1.86 12.68-3.14 19.56"/><path id="kvg:05539-s3" kvg:type="㇐b" d="M12.62 57.69c4.66-.63 10.28-.89 16.67-1.86"/></g><g id="kvg:05539-g2" kvg:element="於" kvg:position="right"><g id="kvg:05539-g3" kvg:element="方" kvg:position="left"><g id="kvg:05539-g4" kvg:element="亠" kvg:position="top"><path id="kvg:05539-s4" kvg:type="㇑a" d="M46.51 13.25c.83.52 2.18 2.54 2.18 3.58.0 3.83-.11 8.69-.11 13.81"/><path id="kvg:05539-s5" kvg:type="㇐" d="M35.05 31.35c.67.32 2.09.53 2.71.45 6.12-.79 14.94-1.47 23.25-3.22 1.04-.22 2-.44 2.78.09"/></g><g id="kvg:05539-g5" kvg:position="bottom"><path id="kvg:05539-s6" kvg:type="㇆a" d="M47.25 41.1c2.21.89 6.89 2.51 10.24 3.41 1.17.32 2.06 2.37 1.84 4.09-1.67 13.42-6.63 30.7-12.73 40.09-3.74 5.76-6.17-.23-7.28-1"/><path id="kvg:05539-s7" kvg:type="㇒" d="M46.56 33.67c.26 1.51.21 3.21-.1 4.91-2.11 11.71-8.21 35.37-17.69 46.45"/></g></g><g id="kvg:05539-g6" kvg:position="right"><path id="kvg:05539-s8" kvg:type="㇒" d="M78.23 13.97c.04.92.18 2.42-.08 3.72-1.67 8.46-6.77 24.3-13.79 35.57"/><path id="kvg:05539-s9" kvg:type="㇏" d="M78.18 17.3c2.59 6.76 13.77 28.83 16.63 33.78.97 1.68 2.22 2.4 3.19 2.88"/><g id="kvg:05539-g7" kvg:element="冫" kvg:variant="true"><g id="kvg:05539-g8" kvg:element="丶" kvg:position="top"><path id="kvg:05539-s10" kvg:type="㇔" d="M73.28 54.42c3.8 1.65 9.82 6.8 10.77 9.38"/></g><g id="kvg:05539-g9" kvg:element="丶" kvg:position="bottom"><path id="kvg:05539-s11" kvg:type="㇔" d="M69.18 75.78c6.58 3.25 17 13.38 18.64 18.44"/></g></g></g></g></g></g></svg>