<svg xmlns="http://www.w3.org/2000/svg" width="109" height="109" viewBox="0 0 109 109"><g id="kvg:StrokePaths_0554f" style="fill:none;stroke:#000000;stroke-width:3;stroke-linecap:round;stroke-linejoin:round;"><g id="kvg:0554f" kvg:element="問"><g id="kvg:0554f-g1" kvg:element="門" kvg:position="kamae" kvg:radical="nelson" kvg:phon="門"><g id="kvg:0554f-g2" kvg:position="left"><path id="kvg:0554f-s1" kvg:type="㇑" d="M18.39 15.04c1.22 1.22 1.93 3.12 1.93 4.92.0.89.01 50 .01 70.67.0 3.77.0 6.6.0 8.01"/><path id="kvg:0554f-s2" kvg:type="㇕a" d="M20.52 16.91c6.35-1.16 14.8-2.87 19.12-3.56 2.64-.42 4.88-.16 4.75 3.02-.13 2.95-.88 15.16-1.28 21.75-.14 2.41-.24 4.08-.24 4.26"/><path id="kvg:0554f-s3" kvg:type="㇐a" d="M21.2 29.49c6.8-1.24 14.3-2.24 21.38-2.83"/><path id="kvg:0554f-s4" kvg:type="㇐a" d="M21.27 42.06c8.11-1.29 13.14-1.76 20.31-2.36"/></g><g id="kvg:0554f-g3" kvg:position="right"><path id="kvg:0554f-s5" kvg:type="㇑" d="M64.36 12.26c1 1 1.54 2.24 1.54 3.65.0.68-.06 12.96-.08 19.84-.01 1.89-.01 3.38-.01 4.1"/><path id="kvg:0554f-s6" kvg:type="㇆a" d="M66.55 14.16c5.82-1.03 14.49-2.29 19.57-2.95 2.67-.35 4.85.79 4.85 2.92.0 20.13.04 63.76.04 77.56.0 8.69-5.51 3.56-9.9-.64"/><path id="kvg:0554f-s7" kvg:type="㇐a" d="M67.24 25.22c6.63-.84 17.38-1.84 22.15-2.24"/><path id="kvg:0554f-s8" kvg:type="㇐a" d="M67.05 36.76c6.2-.51 15.45-1.51 22.55-2.06"/></g></g><g id="kvg:0554f-g4" kvg:element="口" kvg:radical="tradit"><path id="kvg:0554f-s9" kvg:type="㇑" d="M36.25 57.11c.88.64 1.62 1.76 1.87 2.92.92 4.35 1.84 11.03 2.61 17.07.15 1.17.29 2.31.43 3.41"/><path id="kvg:0554f-s10" kvg:type="㇕b" d="M38.71 59.66c9.11-1.03 21.45-2.32 27.33-2.98 3.34-.37 4.76.9 4.01 4.37-.9 4.17-1.73 8.1-3.59 14.23"/><path id="kvg:0554f-s11" kvg:type="㇐b" d="M42.01 78.52c4.47-.52 15.74-1.45 23.11-2.08 1.29-.11 2.46-.22 3.46-.31"/></g></g></g></svg>