<!DOCTYPE svg PUBLIC "-//W3C//DTD SVG 1.0//EN" "http://www.w3.org/TR/2001/REC-SVG-20010904/DTD/svg10.dtd" [
<!ATTLIST g
xmlns:kvg CDATA #FIXED "http://kanjivg.tagaini.net"
kvg:element CDATA #IMPLIED
kvg:variant CDATA #IMPLIED
kvg:partial CDATA #IMPLIED
kvg:original CDATA #IMPLIED
kvg:part CDATA #IMPLIED
kvg:number CDATA #IMPLIED
kvg:tradForm CDATA #IMPLIED
kvg:radicalForm CDATA #IMPLIED
kvg:position CDATA #IMPLIED
kvg:radical CDATA #IMPLIED
kvg:phon CDATA #IMPLIED >
<!ATTLIST path
xmlns:kvg CDATA #FIXED "http://kanjivg.tagaini.net"
kvg:type CDATA #IMPLIED >
]><svg xmlns="http://www.w3.org/2000/svg" width="109" height="109" viewBox="0 0 109 109"><g id="kvg:StrokePaths_05546" style="fill:none;stroke:#000000;stroke-width:3;stroke-linecap:round;stroke-linejoin:round;"><g id="kvg:05546" kvg:element="商"><g id="kvg:05546-g1" kvg:element="立" kvg:partial="true" kvg:position="top" kvg:phon="章T"><g id="kvg:05546-g2" kvg:element="亠" kvg:radical="nelson"><path id="kvg:05546-s1" kvg:type="㇑a" d="M52.86 12.25c1.01 1.01 1.73 2.46 1.73 3.66.0 1.59-.15 5.84-.15 8.65"/><path id="kvg:05546-s2" kvg:type="㇐" d="M18 27.61c2.81.52 6.58.44 8.52.3 15.74-1.16 37.26-3.66 58.65-3.95 3.3-.05 4.99.05 7.45.7"/></g><path id="kvg:05546-s3" kvg:type="㇔" d="M35.27 31.46c2.57 2.43 6.65 9.98 7.29 13.76"/><path id="kvg:05546-s4" kvg:type="㇒" d="M70.54 28.14c.34.86.29 1.72.03 2.41-1.02 3.52-2.94 8.45-5.69 13.32"/></g><g id="kvg:05546-g3" kvg:element="冏" kvg:position="bottom"><g id="kvg:05546-g4" kvg:element="冂"><path id="kvg:05546-s5" kvg:type="㇑" d="M23 47.5c1.06 1.06 1.17 2.54 1.17 3.83.0 1.18-.01 28.78-.02 40.66.0 2.84.0 4.78.0 5.25"/><path id="kvg:05546-s6" kvg:type="㇆a" d="M25.23 49.4c8.77-.65 55.33-4.34 57.09-4.41 4.14-.16 5.33 1.51 5.33 5.68.0 1.61-.02 38.07-.02 41.79.0 7.54-4.75 2.66-7.85-.06"/></g><g id="kvg:05546-g5" kvg:element="儿" kvg:variant="true" kvg:original="八"><g id="kvg:05546-g6" kvg:element="丿"><path id="kvg:05546-s7" kvg:type="㇒" d="M45.72 51.43c.03.82-.29 1.77-.83 2.68C43 57.25 38.5 61.62 30.75 66.75"/></g><path id="kvg:05546-s8" kvg:type="㇟" d="M61.1 49.37c.51.51.73 1.79.73 2.53.0 1.73-.03 4.23-.03 5.8.0 3.42.58 4.38 9.36 4.38 4.9.0 8.13-.67 8.82-1.05"/></g><g id="kvg:05546-g7" kvg:element="口" kvg:radical="tradit"><path id="kvg:05546-s9" kvg:type="㇑" d="M39.31 71.82C40 72.38 40.5 73 40.62 73.93c.57 4.4 1.16 8.16 1.86 12.95.13.89.27 1.58.41 2.58"/><path id="kvg:05546-s10" kvg:type="㇕b" d="M41.98 73.23c7.93-.82 18.28-2.46 23.9-3.04 3.23-.33 4.93.5 3.99 3.95-.91 3.38-2.08 8.03-3.43 11.76"/><path id="kvg:05546-s11" kvg:type="㇐b" d="M43.35 87.9c5.21-.36 13.55-.98 21.91-1.36 1.09-.05 2.18-.09 3.27-.13"/></g></g></g></g><g id="kvg:StrokeNumbers_05546" style="font-size:8;fill:#808080"><text transform="matrix(1 0 0 1 43.50 13.50)">1</text><text transform="matrix(1 0 0 1 11.25 28.94)">2</text><text transform="matrix(1 0 0 1 29.25 37.63)">3</text><text transform="matrix(1 0 0 1 62.25 34.63)">4</text><text transform="matrix(1 0 0 1 17.25 57.13)">5</text><text transform="matrix(1 0 0 1 26.25 46.63)">6</text><text transform="matrix(1 0 0 1 36.75 57.50)">7</text><text transform="matrix(1 0 0 1 53.50 57.13)">8</text><text transform="matrix(1 0 0 1 33.75 79.63)">9</text><text transform="matrix(1 0 0 1 43.50 70.50)">10</text><text transform="matrix(1 0 0 1 46.50 84.13)">11</text></g></svg>