<svg xmlns="http://www.w3.org/2000/svg" width="109" height="109" viewBox="0 0 109 109"><g id="kvg:StrokePaths_05544" style="fill:none;stroke:#000000;stroke-width:3;stroke-linecap:round;stroke-linejoin:round;"><g id="kvg:05544" kvg:element="啄"><g id="kvg:05544-g1" kvg:element="口" kvg:position="left" kvg:radical="general"><path id="kvg:05544-s1" kvg:type="㇑" d="M10.25 33.91c.86.86 1.12 2.47 1.39 3.84 1.06 5.5 1.77 12.66 2.66 20.63.21 1.91.38 3.8.49 5.62"/><path id="kvg:05544-s2" kvg:type="㇕b" d="M12.12 35.21c5.51-1.09 12.12-1.9 17.13-2.46 3.59-.4 5.29.21 4.61 4.24-.93 5.51-2.35 13.69-3.67 21.62"/><path id="kvg:05544-s3" kvg:type="㇐b" d="M16.04 61.02c4.01-.47 8.46-.93 12.33-1.28 1.39-.12 2.71-.23 3.91-.32"/></g><g id="kvg:05544-g2" kvg:element="豕" kvg:position="right"><path id="kvg:05544-s4" kvg:type="㇐" d="M37.66 21.45c2.84.55 5.63.35 8.08.09 9.38-1.02 27.69-3.05 38.64-3.6 2.42-.12 5.25-.12 7.56.65"/><path id="kvg:05544-s5" kvg:type="㇒" d="M62.69 22.68c.15 1.32-.33 2.37-1.13 3.37C57.5 31.12 50 37.75 39.77 44.9"/><path id="kvg:05544-s6" kvg:type="㇁" d="M56.2 34.25c10.05 9 17.8 34.5 9.77 57.33-3.24 9.21-7.39 1.62-8.35.56"/><path id="kvg:05544-s7" kvg:type="㇒" d="M59 42c.14 1.29-.05 2.4-.59 3.58-2.54 5.51-11.63 15.68-23.77 22.08"/><path id="kvg:05544-s8" kvg:type="㇒" d="M64.2 56.25c.17 1.54.01 3.08-.76 4.46-3.69 6.66-14.19 17.91-28.89 26.79"/><path id="kvg:05544-s9" kvg:type="㇒" d="M87.74 33.25c.11.86-.21 1.95-.76 2.68-2.98 3.95-6.74 7.93-16.73 14.7"/><path id="kvg:05544-s10" kvg:type="㇏" d="M67.17 50.75c3.18 3.53 14.59 18.37 21.27 26.17 1.57 1.83 4.18 4.46 7.06 6.58"/></g></g></g></svg>