<!DOCTYPE svg PUBLIC "-//W3C//DTD SVG 1.0//EN" "http://www.w3.org/TR/2001/REC-SVG-20010904/DTD/svg10.dtd" [
<!ATTLIST g
xmlns:kvg CDATA #FIXED "http://kanjivg.tagaini.net"
kvg:element CDATA #IMPLIED
kvg:variant CDATA #IMPLIED
kvg:partial CDATA #IMPLIED
kvg:original CDATA #IMPLIED
kvg:part CDATA #IMPLIED
kvg:number CDATA #IMPLIED
kvg:tradForm CDATA #IMPLIED
kvg:radicalForm CDATA #IMPLIED
kvg:position CDATA #IMPLIED
kvg:radical CDATA #IMPLIED
kvg:phon CDATA #IMPLIED >
<!ATTLIST path
xmlns:kvg CDATA #FIXED "http://kanjivg.tagaini.net"
kvg:type CDATA #IMPLIED >
]><svg xmlns="http://www.w3.org/2000/svg" width="109" height="109" viewBox="0 0 109 109"><g id="kvg:StrokePaths_0555d" style="fill:none;stroke:#000000;stroke-width:3;stroke-linecap:round;stroke-linejoin:round;"><g id="kvg:0555d" kvg:element="啝"><g id="kvg:0555d-g1" kvg:element="口" kvg:position="left" kvg:radical="general"><path id="kvg:0555d-s1" kvg:type="㇑" d="M8.75 34.62c.35.46.7.85.85 1.43 1.2 4.58 2.64 17.23 3.46 25.46"/><path id="kvg:0555d-s2" kvg:type="㇕b" d="M10.91 36.56c8.42-1.88 13.44-3.01 17.34-3.57 1.43-.21 2.28 1.22 2.08 2.42-.85 5-1.83 12.73-3.09 19.64"/><path id="kvg:0555d-s3" kvg:type="㇐b" d="M13.14 57.54c4.59-.64 10.12-.89 16.42-1.86"/></g><g id="kvg:0555d-g2" kvg:element="和" kvg:position="right"><g id="kvg:0555d-g3" kvg:element="禾" kvg:position="left"><g id="kvg:0555d-g4" kvg:element="丿" kvg:position="top"><path id="kvg:0555d-s4" kvg:type="㇒" d="M63.45 12.5c.07.35.15.91-.14 1.42-1.67 2.99-11.24 9.56-24.34 13.58"/></g><g id="kvg:0555d-g5" kvg:element="木" kvg:position="bottom"><path id="kvg:0555d-s5" kvg:type="㇐" d="M34.78 44.12c.42.19 2.11.64 3.24.57 7.99-.44 18.64-2.79 27.23-3.32 1.12-.07 2.53-.27 3.24-.08"/><path id="kvg:0555d-s6" kvg:type="㇑" d="M53.71 25.5c.61.46.97 2.05 1.09 2.97.12.91.0 64.58-.12 70.28"/><path id="kvg:0555d-s7" kvg:type="㇒" d="M54.55 43.68c-5.05 14.07-14.3 29.82-25.8 38.57"/><path id="kvg:0555d-s8" kvg:type="㇏" d="M55.12 50.46c5.88 9.29 24.38 29.04 35 34.6 2.26 1.18 5 2.46 6.88 2.95"/></g></g><g id="kvg:0555d-g6" kvg:element="口" kvg:position="right"><path id="kvg:0555d-s9" kvg:type="㇑" d="M73.25 32.24c.37.64.76 1.17.92 1.96 1.29 6.31 2.84 23.72 3.73 35.05"/><path id="kvg:0555d-s10" kvg:type="㇕b" d="M74.58 33.77C83.75 31.75 90.63 30.83 95 30c1.6-.3 3.56 1.8 3.33 3.58-.95 7.37-2.05 21.27-3.46 31.46"/><path id="kvg:0555d-s11" kvg:type="㇐b" d="M78.07 67.2c5.14-.94 10.93-1.7 19.39-2.25"/></g></g></g></g><g id="kvg:StrokeNumbers_0555d" style="font-size:8;fill:#808080"><text transform="matrix(1 0 0 1 2.85 42.35)">1</text><text transform="matrix(1 0 0 1 11.66 31.35)">2</text><text transform="matrix(1 0 0 1 15.50 54.50)">3</text><text transform="matrix(1 0 0 1 55.50 11.50)">4</text><text transform="matrix(1 0 0 1 34.50 41.50)">5</text><text transform="matrix(1 0 0 1 46.25 33.75)">6</text><text transform="matrix(1 0 0 1 43.50 54.50)">7</text><text transform="matrix(1 0 0 1 59.50 53.50)">8</text><text transform="matrix(1 0 0 1 65.25 35.50)">9</text><text transform="matrix(1 0 0 1 76.50 29.45)">10</text><text transform="matrix(1 0 0 1 82.50 62.50)">11</text></g></svg>