<svg xmlns="http://www.w3.org/2000/svg" width="109" height="109" viewBox="0 0 109 109"><g id="kvg:StrokePaths_05557"><g id="kvg:05557" kvg:element="啗"><g id="kvg:05557-g1" kvg:element="口" kvg:position="left" kvg:radical="general"><path id="kvg:05557-s1" kvg:type="㇑" d="M11.5 34.04c.37.44.75.81.91 1.36 1.28 4.38 3.31 18.47 4.19 26.34"/><path id="kvg:05557-s2" kvg:type="㇕b" d="M13.8 36.15c9.33-1.92 14.89-3.08 19.22-3.66 1.58-.21 2.53 1.25 2.31 2.48-.94 5.12-2.03 13.03-3.43 20.11"/><path id="kvg:05557-s3" kvg:type="㇐b" d="M16.27 58.13c5.08-.65 11.22-1.41 18.2-2.41"/></g><g id="kvg:05557-g2" kvg:element="臽" kvg:position="right"><g id="kvg:05557-g3" kvg:element="𠂊" kvg:variant="true" kvg:original="勹" kvg:position="top"><path id="kvg:05557-s4" kvg:type="㇒" d="M62.34 11c.06.87.12 2.25-.11 3.51-1.38 7.39-9.3 23.62-20.15 33.55"/><path id="kvg:05557-s5" kvg:type="㇇" d="M62.41 21.59c.65.28 1.55.33 2.59.19 4-.53 15.58-2.77 18.17-2.86s3.11.93 2.72 2.88-4.37 17.42-10.07 22.72c-1.71 1.59-3.72.43-5.66-1.34"/></g><g id="kvg:05557-g4" kvg:element="臼" kvg:position="bottom"><path id="kvg:05557-s6" kvg:type="㇒" d="M63.47 48.71c.05.27.21.8-.1 1.1-4.12 3.92-8.92 7.41-18.31 10.52"/><path id="kvg:05557-s7" kvg:type="㇑" d="M43.03 59.3c.79.74 1.12 2.4 1.31 3.92.72 5.56 2.98 27.27 3.7 34.78"/><path id="kvg:05557-s8" kvg:type="㇐" d="M46.18 76.87c3.92-.34 15.26-2.69 16.19-2.69.94.0 2.24.0 2.99.0"/><path id="kvg:05557-s9" kvg:type="㇕" d="M73.27 56.62c.93.17 1.68.51 2.99.51 1.31.0 15.13-2.03 16.62-2.2 1.49-.17 2.73.84 2.62 1.86-1.12 9.8-2.62 28.72-3.74 36.82-.16 1.17.0 1.86-.19 2.53"/><path id="kvg:05557-s10" kvg:type="㇐" d="M73.65 73.01c.93.17 1.68.51 2.99.51S92.4 72.17 93.89 72"/><path id="kvg:05557-s11" kvg:type="㇐" d="M48.24 95.13c2.43.0 39.79-2.2 42.59-2.37"/></g></g></g></g></svg>