<svg xmlns="http://www.w3.org/2000/svg" width="109" height="109" viewBox="0 0 109 109"><g id="kvg:StrokePaths_05553" style="fill:none;stroke:#000000;stroke-width:3;stroke-linecap:round;stroke-linejoin:round;"><g id="kvg:05553" kvg:element="啓"><g id="kvg:05553-g1" kvg:position="top"><g id="kvg:05553-g2" kvg:element="戸" kvg:position="left"><path id="kvg:05553-s1" kvg:type="㇐" d="M16.67 20.56c1.39.55 3.78.39 5.21.22 5.32-.63 13.87-1.9 20.62-2.52 1.72-.16 3.55-.27 5.25.13"/><path id="kvg:05553-s2" kvg:type="㇕c" d="M20.07 33.61c1.18.26 2.53.35 3.75.19 5.05-.62 13.85-2.17 18.44-2.85 2.13-.32 4.22-.08 3.59 2.82-.71 3.32-1.61 6.97-3.41 12.62"/><path id="kvg:05553-s3" kvg:type="㇐b" d="M23 49.56c4.5-.56 10.2-1.14 16.72-1.98 1.72-.22 3.36-.43 4.83-.58"/><path id="kvg:05553-s4" kvg:type="㇒" d="M21.21 34.51c.77.77.9 1.69.92 3.03C22.25 50.12 22.5 61 11.62 71.75"/></g><g id="kvg:05553-g3" kvg:element="攵" kvg:position="right"><g id="kvg:05553-g4" kvg:element="𠂉" kvg:position="top"><path id="kvg:05553-s5" kvg:type="㇒" d="M62.52 12.39c.23.86.15 1.96-.06 2.73-1.59 6-3.96 12-10.3 20.1"/><path id="kvg:05553-s6" kvg:type="㇐" d="M62.82 24.22c1.5.22 2.94.1 4.44-.1 5.01-.67 12.19-2.29 17.36-3.48 1.41-.33 3.55-.53 4.99-.04"/></g><g id="kvg:05553-g5" kvg:element="乂" kvg:position="bottom"><g id="kvg:05553-g6" kvg:element="丿"><path id="kvg:05553-s7" kvg:type="㇒" d="M75.47 28.72c.45.76.48 1.82-.03 3.2C71.38 43 62.88 53.62 47.09 59.25"/></g><path id="kvg:05553-s8" kvg:type="㇏" d="M58.86 37.92c4.64.43 18.32 12.71 28.28 19.14 2.36 1.52 5.49 3.06 8.13 3.96"/></g></g></g><g id="kvg:05553-g7" kvg:element="口" kvg:position="bottom" kvg:radical="general"><path id="kvg:05553-s9" kvg:type="㇑" d="M33.75 70.44c.97 1.05 1.28 2.02 1.64 3.39 1.17 4.49 2.62 12.3 3.64 19.13.29 1.94.55 3.81.76 5.5"/><path id="kvg:05553-s10" kvg:type="㇕b" d="M36.02 71.58c10.73-1.3 27.67-3.39 35.13-4.3 3.44-.42 5.76.45 4.95 4.39-1.16 5.61-2.29 11.32-4.72 19.41"/><path id="kvg:05553-s11" kvg:type="㇐b" d="M40.73 94.8c5.35-.62 17.57-1.51 26.76-2.42 2.15-.21 4.1-.4 5.69-.55"/></g></g></g></svg>