<!DOCTYPE svg PUBLIC "-//W3C//DTD SVG 1.0//EN" "http://www.w3.org/TR/2001/REC-SVG-20010904/DTD/svg10.dtd" [
<!ATTLIST g
xmlns:kvg CDATA #FIXED "http://kanjivg.tagaini.net"
kvg:element CDATA #IMPLIED
kvg:variant CDATA #IMPLIED
kvg:partial CDATA #IMPLIED
kvg:original CDATA #IMPLIED
kvg:part CDATA #IMPLIED
kvg:number CDATA #IMPLIED
kvg:tradForm CDATA #IMPLIED
kvg:radicalForm CDATA #IMPLIED
kvg:position CDATA #IMPLIED
kvg:radical CDATA #IMPLIED
kvg:phon CDATA #IMPLIED >
<!ATTLIST path
xmlns:kvg CDATA #FIXED "http://kanjivg.tagaini.net"
kvg:type CDATA #IMPLIED >
]><svg xmlns="http://www.w3.org/2000/svg" width="109" height="109" viewBox="0 0 109 109"><g id="kvg:StrokePaths_05563" style="fill:none;stroke:#000000;stroke-width:3;stroke-linecap:round;stroke-linejoin:round;"><g id="kvg:05563" kvg:element="啣"><g id="kvg:05563-g1" kvg:element="口" kvg:position="left" kvg:radical="general"><path id="kvg:05563-s1" kvg:type="㇑" d="M8.25 34.07c.35.45.7.83.85 1.39 1.2 4.46 3.14 18.27 3.96 26.29"/><path id="kvg:05563-s2" kvg:type="㇕b" d="M9.91 36.72c8.74-1.96 14.95-3.64 19.01-4.23 1.48-.21 2.37 1.27 2.16 2.53-.88 5.21-2.4 12.77-3.71 19.98"/><path id="kvg:05563-s3" kvg:type="㇐b" d="M12.72 58.09c4.76-.66 10.51-1.43 17.05-2.45"/></g><g id="kvg:05563-g2" kvg:element="卸" kvg:position="right"><g id="kvg:05563-g3" kvg:position="left"><g id="kvg:05563-g4" kvg:element="午"><g id="kvg:05563-g5" kvg:position="top"><path id="kvg:05563-s4" kvg:type="㇒" d="M47.04 13c.03.55.11 1.59-.06 2.22-2.1 7.79-5.21 14.93-10.69 21.21"/><g id="kvg:05563-g6" kvg:element="干" kvg:part="1"><path id="kvg:05563-s5" kvg:type="㇐" d="M45.28 26.63c.35.17.98.21 1.33.17 3.51-.35 12.56-3.83 15.63-3.99.58-.03 1.29.08 1.58.17"/></g></g><g id="kvg:05563-g7" kvg:element="正" kvg:part="1" kvg:position="bottom"><g id="kvg:05563-g8" kvg:element="干" kvg:part="2"><g id="kvg:05563-g9" kvg:element="十"><path id="kvg:05563-s6" kvg:type="㇐" d="M34.24 43.24c.96.18 2.72.21 3.68.18 6.33-.17 19.48-3.21 26.5-3.44 1.59-.05 2.56.09 3.36.18"/><g id="kvg:05563-g10" kvg:element="止" kvg:part="1"><g id="kvg:05563-g11" kvg:element="卜" kvg:part="1" kvg:original="ト"><path id="kvg:05563-s7" kvg:type="㇑" d="M51.23 26.86c.8.45 1.28 2.04 1.44 2.95s0 34.67-.16 40.34"/></g></g></g></g></g></g><g id="kvg:05563-g12" kvg:element="正" kvg:part="2"><g id="kvg:05563-g13" kvg:element="止" kvg:part="2"><g id="kvg:05563-g14" kvg:element="卜" kvg:part="2" kvg:original="ト"><path id="kvg:05563-s8" kvg:type="㇐" d="M53.08 54.43c4.17-.68 8.5-1.09 11.06-1.77 1.25-.33 1.6-.23 2.39.0"/></g></g><path id="kvg:05563-s9" kvg:type="㇑" d="M38.23 54.06c.8.45 1.28 2.04 1.44 2.95.16.91.0 14.9-.16 20.57"/><path id="kvg:05563-s10" kvg:type="㇐" d="M32.63 78.92c.87.58 2.48.84 3.43.3 6.69-3.77 25.21-12.76 30.84-16.08"/></g></g><g id="kvg:05563-g15" kvg:element="卩" kvg:position="right"><path id="kvg:05563-s11" kvg:type="㇆" d="M73.08 27.18c.64.2 1.93 1.43 3.21 1.22 1.28-.2 17.18-3 18.79-3.2 1.6-.2 4.01-.41 4.17 3.88.08 2.05-1.5 25.17-5.03 34.48-3.24 8.53-6.1 1.02-6.58.61"/><path id="kvg:05563-s12" kvg:type="㇑" d="M75.44 28.69c.16.91.0 61.65-.16 67.31"/></g></g></g></g><g id="kvg:StrokeNumbers_05563" style="font-size:8;fill:#808080"><text transform="matrix(1 0 0 1 2.50 42.50)">1</text><text transform="matrix(1 0 0 1 12.50 32.50)">2</text><text transform="matrix(1 0 0 1 16.50 53.50)">3</text><text transform="matrix(1 0 0 1 38.50 12.50)">4</text><text transform="matrix(1 0 0 1 50.50 22.50)">5</text><text transform="matrix(1 0 0 1 39.50 40.50)">6</text><text transform="matrix(1 0 0 1 45.25 34.50)">7</text><text transform="matrix(1 0 0 1 56.50 51.50)">8</text><text transform="matrix(1 0 0 1 31.50 61.50)">9</text><text transform="matrix(1 0 0 1 21.50 80.50)">10</text><text transform="matrix(1 0 0 1 75.50 24.50)">11</text><text transform="matrix(1 0 0 1 65.25 35.30)">12</text></g></svg>