<svg xmlns="http://www.w3.org/2000/svg" width="109" height="109" viewBox="0 0 109 109"><g id="kvg:StrokePaths_0557e" style="fill:none;stroke:#000000;stroke-width:3;stroke-linecap:round;stroke-linejoin:round;"><g id="kvg:0557e" kvg:element="啾"><g id="kvg:0557e-g1" kvg:element="口" kvg:position="left" kvg:radical="general"><path id="kvg:0557e-s1" kvg:type="㇑" d="M8.5 34.06c.3.45.61.82.74 1.38 1.05 4.42 3.15 18.12 3.87 26.06"/><path id="kvg:0557e-s2" kvg:type="㇕b" d="M10.38 36.18c7.62-1.94 14.03-3.11 17.56-3.69 1.29-.21 2.07 1.26 1.88 2.51-.77 5.17-2.09 12.65-3.23 19.8"/><path id="kvg:0557e-s3" kvg:type="㇐b" d="M12.83 57.86c4.15-.66 10.17-1.42 15.88-2.43"/></g><g id="kvg:0557e-g2" kvg:element="秋" kvg:position="right"><g id="kvg:0557e-g3" kvg:element="禾" kvg:position="left"><g id="kvg:0557e-g4" kvg:element="丿" kvg:position="top"><path id="kvg:0557e-s4" kvg:type="㇒" d="M57.48 12.75c.05.37.12.96-.11 1.49-1.35 3.14-9.1 10.02-19.7 14.24"/></g><g id="kvg:0557e-g5" kvg:element="木" kvg:position="bottom"><path id="kvg:0557e-s5" kvg:type="㇐" d="M33.98 45.9c.28.19 1.01.49 1.75.56 2.02.19 19.02-2.78 24.07-3.7.73-.13.92-.19 1.38.0"/><path id="kvg:0557e-s6" kvg:type="㇑" d="M49.77 25.6c.27.45 1.19 2.02 1.25 2.91.05.9.0 61.39-.06 66.99"/><path id="kvg:0557e-s7" kvg:type="㇒" d="M50.78 44.8C46.45 56.57 39.22 71.1 29.41 80.74"/><path id="kvg:0557e-s8" kvg:type="㇏" d="M53.02 53.86c3.51 2.59 6.47 7.78 8.36 11.11"/></g></g><g id="kvg:0557e-g6" kvg:element="火" kvg:position="right"><path id="kvg:0557e-s9" kvg:type="㇔" d="M63.37 34.76c2.2 3.72 5.41 14.24 6.01 17.96"/><path id="kvg:0557e-s10" kvg:type="㇒" d="M94.68 29.21c.54.88 1.15 2.05.66 3.43-.5 1.37-5.91 12.1-8.37 15.3"/><path id="kvg:0557e-s11" kvg:type="㇒" d="M77.17 12.3c.7.82 1.06 3.02 1.07 4.38C78.53 51.67 79 80.25 60.52 95.79"/><path id="kvg:0557e-s12" kvg:type="㇏" d="M78.18 53.12C83.52 70.88 91 85.96 95.55 92.87c1.33 2.01 1.54 1.91 2.57 2.45"/></g></g></g></g></svg>