<svg xmlns="http://www.w3.org/2000/svg" width="109" height="109" viewBox="0 0 109 109"><g id="kvg:StrokePaths_05583" style="fill:none;stroke:#000000;stroke-width:3;stroke-linecap:round;stroke-linejoin:round;"><g id="kvg:05583" kvg:element="喃"><g id="kvg:05583-g1" kvg:element="口" kvg:position="left" kvg:radical="general"><path id="kvg:05583-s1" kvg:type="㇑" d="M9.75 34.32c.35.45.72.82.87 1.39 1.23 4.46 3.7 17.78 4.54 25.79"/><path id="kvg:05583-s2" kvg:type="㇕b" d="M11.96 36.46c8.94-1.96 15.27-3.14 19.41-3.72 1.52-.21 2.43 1.27 2.21 2.53-.9 5.21-2.45 12.26-3.78 19.47"/><path id="kvg:05583-s3" kvg:type="㇐b" d="M14.82 57.83c4.87-.66 10.75-1.43 17.43-2.45"/></g><g id="kvg:05583-g2" kvg:element="南" kvg:position="right"><g id="kvg:05583-g3" kvg:element="十" kvg:position="top"><path id="kvg:05583-s4" kvg:type="㇐" d="M41.36 25.78c1.53.34 3.54.44 5.28.25 7.82-.82 36.84-4.03 45.09-4.89 1.73-.18 3.67-.27 4.76.0"/><path id="kvg:05583-s5" kvg:type="㇑a" d="M65.76 10.75c.98.49 1.76 2.18 1.76 3.2.0 6.76.0 18.06.0 26.46"/></g><g id="kvg:05583-g4" kvg:position="bottom"><g id="kvg:05583-g5" kvg:element="冂"><path id="kvg:05583-s6" kvg:type="㇑" d="M42.41 41.38c.59 1.31 1.09 3.39 1.17 5.76.2 5.5-.17 48.27-.17 50.69"/><path id="kvg:05583-s7" kvg:type="㇆a" d="M43.48 43.45c7.44-1.05 46.7-5.81 48.19-5.81 2.87.0 4.31 1.34 4.31 4.88.0 5.5-.31 41.77-.31 47.8.0 8.06-3.46 6.95-8.15 1.19"/></g><path id="kvg:05583-s8" kvg:type="㇔" d="M56.62 46.44c2.07 1.39 5.35 5.73 5.87 7.9"/><path id="kvg:05583-s9" kvg:type="㇒" d="M79.23 42.72c.02.3.05.76-.04 1.19-.53 2.5-3.59 7.99-7.77 11.35"/><g id="kvg:05583-g6" kvg:element="干"><path id="kvg:05583-s10" kvg:type="㇐" d="M52.78 58.75c.59.29 1.68.32 2.27.29 6.17-.33 21.27-2.44 28.22-3.33.98-.13 1.58.14 2.08.28"/><g id="kvg:05583-g7" kvg:element="十"><path id="kvg:05583-s11" kvg:type="㇐" d="M50.26 71.96c.71.27 3.92.3 4.63.27 7.38-.31 23-2.89 31.47-3.82 1.18-.13 1.89.13 2.48.27"/><path id="kvg:05583-s12" kvg:type="㇑" d="M66.72 60.2c1.12.94 1.72 3.29 1.72 4.59-.04 8.46-.19 24.62-.19 27.58"/></g></g></g></g></g></g></svg>