<svg xmlns="http://www.w3.org/2000/svg" width="109" height="109" viewBox="0 0 109 109"><g id="kvg:StrokePaths_05599"><g id="kvg:05599" kvg:element="喙"><g id="kvg:05599-g1" kvg:element="口" kvg:position="left" kvg:radical="general"><path id="kvg:05599-s1" kvg:type="㇑" d="M9.75 34.09c.36.45.72.83.88 1.4 1.24 4.5 3.73 17.92 4.57 26.01"/><path id="kvg:05599-s2" kvg:type="㇕b" d="M11.98 36.25c9.03-1.98 15.42-3.17 19.61-3.76 1.53-.22 2.45 1.28 2.23 2.55-.91 5.26-2.47 12.89-3.82 20.17"/><path id="kvg:05599-s3" kvg:type="㇐b" d="M14.87 57.83c4.92-.67 10.86-.93 17.62-1.96"/></g><g id="kvg:05599-g2" kvg:element="彖" kvg:position="right"><g id="kvg:05599-g3" kvg:element="彑" kvg:position="top"><path id="kvg:05599-s4" kvg:type="㇗" d="M55.66 10.75c.59 1.19.83 3.07.29 4.84-1.18 3.91-4.98 12.66-6.65 15.93-.7 1.37.18 2.23 1.62 1.98 5.97-1.02 16.3-3.05 25.17-3.78"/><path id="kvg:05599-s5" kvg:type="㇕" d="M54.32 20.96c4.43-.21 20.84-2.44 23.17-2.71 1.94-.23 2.99 1.38 2.41 2.95-2.4 6.55-4.86 12.55-6.37 18.55"/><g id="kvg:05599-g4" kvg:element="豕" kvg:part="1"><path id="kvg:05599-s6" kvg:type="㇐" d="M38 42.71c1.11.53 3.14.58 4.24.53 11.73-.49 38.76-4.88 50.38-4.13 1.84.12 2.95.25 3.88.52"/></g></g><g id="kvg:05599-g5" kvg:element="豕" kvg:part="2" kvg:position="bottom"><path id="kvg:05599-s7" kvg:type="㇒" d="M66.04 42.9c.07.42.15 1.09-.14 1.7-1.72 3.58-11.58 11.43-25.07 16.24"/><path id="kvg:05599-s8" kvg:type="㇁" d="M58.43 52.9C68.5 60.5 74 77.25 68.35 94.08c-2.33 6.93-8.35 2.92-9.3.54"/><path id="kvg:05599-s9" kvg:type="㇒" d="M61.76 58.48c.06.45.14 1.15-.13 1.79-1.56 3.78-10.5 12.08-22.74 17.17"/><path id="kvg:05599-s10" kvg:type="㇒" d="M65.97 68.95c.08.57.16 1.46-.15 2.27C63.95 76 53.26 86.5 38.61 92.93"/><path id="kvg:05599-s11" kvg:type="㇒" d="M85.82 48.74c.05.37.1.95-.1 1.48-1.17 3.12-7.9 9.97-17.1 14.17"/><path id="kvg:05599-s12" kvg:type="㇏" d="M69.3 65.83c3.69 3.39 19.87 19.44 23.88 22.77 1.36 1.13 2.52 1.61 3.88 1.94"/></g></g></g></g></svg>