<svg xmlns="http://www.w3.org/2000/svg" width="109" height="109" viewBox="0 0 109 109"><g id="kvg:StrokePaths_0559d"><g id="kvg:0559d" kvg:element="喝"><g id="kvg:0559d-g1" kvg:element="口" kvg:position="left" kvg:radical="general"><path id="kvg:0559d-s1" kvg:type="㇑" d="M14.25 33.65c.72 1.06 1.04 1.92 1.23 3.23.89 6.25 2.23 14.12 3.01 22.08.18 1.87.35 3.66.5 5.29"/><path id="kvg:0559d-s2" kvg:type="㇕b" d="M16.25 34.96c6.62-.82 13.25-1.9 17.74-2.63 3-.49 4.7.09 4.2 3.55-.88 6.1-1.92 14.57-3.21 22.65"/><path id="kvg:0559d-s3" kvg:type="㇐b" d="M19.16 61.63c4.04-.64 8.02-1.15 13.56-1.84 1.27-.16 2.61-.32 4.06-.5"/></g><g id="kvg:0559d-g2" kvg:element="曷" kvg:variant="true" kvg:position="right" kvg:phon="曷"><g id="kvg:0559d-g3" kvg:element="日" kvg:position="top"><path id="kvg:0559d-s4" kvg:type="㇑" d="M48.75 13.77c.8.8 1.12 1.98 1.42 3.24.42 3.28 1.24 13.54 1.79 18.99.2 2 .46 3.9.59 4.75"/><path id="kvg:0559d-s5" kvg:type="㇕a" d="M50.94 15.37c3.74-.54 20.39-2.76 26.32-3.43 2.95-.33 5.22.2 4.8 3.58-.77 6.25-1.8 12.39-2.79 18.77-.27 1.75-.54 3.52-.8 5.32"/><path id="kvg:0559d-s6" kvg:type="㇐a" d="M52.33 26.97c5.17-.47 23.86-3.03 27.22-3.03"/><path id="kvg:0559d-s7" kvg:type="㇐a" d="M53.44 38.86c6.06-.46 16.81-1.68 24.35-2.07"/></g><g id="kvg:0559d-g4" kvg:element="匂" kvg:position="bottom"><g id="kvg:0559d-g5" kvg:element="勹"><g id="kvg:0559d-g6" kvg:element="丿"><path id="kvg:0559d-s8" kvg:type="㇒" d="M58 42c.12 1.41-.27 2.39-.84 3.69C54.43 52.01 48.92 60.54 40 68.25"/></g><path id="kvg:0559d-s9" kvg:type="㇆" d="M57.7 51.1c2.08.22 3.73.3 5.82-.03 5.17-.81 18.25-3 23.62-3.72 4.47-.6 6.44.25 5.86 4.92-1.62 13.11-2.86 26.47-10.58 42.05-1.63 3.3-4.54 2.55-7.69-.6"/><g id="kvg:0559d-g7" kvg:element="人"><g id="kvg:0559d-g8" kvg:element="匕"><path id="kvg:0559d-s10" kvg:type="㇒" d="M73.57 60.61c-.1 1.29-.79 2.07-1.78 2.7-3.7 2.35-8.54 4.82-17.22 7.88"/><path id="kvg:0559d-s11" kvg:type="㇟" d="M49.93 62.55c.78.81 1.09 1.32 1.09 2.43.0 2.67-.02 6.26-.02 11.39s1.38 5.7 12.38 5.7 12.61-.95 12.61-6.81"/></g></g></g></g></g></g></g></svg>