<svg xmlns="http://www.w3.org/2000/svg" width="109" height="109" viewBox="0 0 109 109"><g id="kvg:StrokePaths_055ae"><g id="kvg:055ae" kvg:element="單"><g id="kvg:055ae-g1" kvg:position="top"><g id="kvg:055ae-g2" kvg:element="口" kvg:position="left" kvg:radical="general"><path id="kvg:055ae-s1" kvg:type="㇑" d="M23.14 14.4c.4.34.85.61.98 1.06 1.13 3.95 2.56 12.24 3.69 18.04"/><path id="kvg:055ae-s2" kvg:type="㇕b" d="M25.6 16.72c7.31-.84 13.59-2.5 20.33-3.35 1.69-.21 2.71.97 2.47 1.93-1.01 3.99-1.38 6.34-3.17 12.97"/><path id="kvg:055ae-s3" kvg:type="㇐b" d="M28.63 31.43c5.45-.51 11.32-1.88 18.8-2.67"/></g><g id="kvg:055ae-g3" kvg:element="口" kvg:position="right"><path id="kvg:055ae-s4" kvg:type="㇑" d="M55.64 12.4c.35.36.75.65.86 1.13.99 4.21 2.75 10.54 3.75 16.71"/><path id="kvg:055ae-s5" kvg:type="㇕b" d="M56.81 13.87c6.44-.89 17.48-2.6 23.42-3.5 1.49-.22 2.39 1.04 2.18 2.06-.89 4.25-2.16 6.72-3.74 13.78"/><path id="kvg:055ae-s6" kvg:type="㇐b" d="M59.97 28.05c4.8-.54 14.1-.97 20.69-1.81"/></g></g><g id="kvg:055ae-g4" kvg:position="bottom"><g id="kvg:055ae-g5" kvg:element="甲" kvg:part="1"><g id="kvg:055ae-g6" kvg:element="日" kvg:partial="true"><path id="kvg:055ae-s7" kvg:type="㇑" d="M29.4 39.09c.34.5.35.84.54 1.46 1.56 5.1 3.54 18.01 4.52 27.48"/><path id="kvg:055ae-s8" kvg:type="㇕" d="M31.02 41.02c12.99-1.71 34.43-4.03 43.38-4.91 3.29-.32 5.27.69 5.17 2.84-.23 5.11-4.37 23.06-4.96 25.19"/><path id="kvg:055ae-s9" kvg:type="㇐" d="M34.25 52.98c3.9-.41 39.61-3.95 42.84-4.09"/><path id="kvg:055ae-s10" kvg:type="㇐" d="M35.57 66.12c11.3-1.62 26.75-3 39.12-4"/></g></g><g id="kvg:055ae-g7" kvg:element="一"><path id="kvg:055ae-s11" kvg:type="㇐" d="M16.75 79.7c1.52.54 4.3.63 5.82.54 8.43-.49 49.18-3.99 68.11-4.73 2.53-.1 4.05.26 5.31.53"/></g><g id="kvg:055ae-g8" kvg:element="甲" kvg:part="2"><g id="kvg:055ae-g9" kvg:element="丨"><path id="kvg:055ae-s12" kvg:type="㇑" d="M53.24 39.61c.67.38 1.09 1.44 1.1 2.73.04 6.56.2 56.54.22 58.68"/></g></g></g></g></g></svg>