<svg xmlns="http://www.w3.org/2000/svg" width="109" height="109" viewBox="0 0 109 109"><g id="kvg:StrokePaths_055e3" style="fill:none;stroke:#000000;stroke-width:3;stroke-linecap:round;stroke-linejoin:round;"><g id="kvg:055e3" kvg:element="嗣"><g id="kvg:055e3-g1" kvg:position="left"><g id="kvg:055e3-g2" kvg:element="口" kvg:position="top" kvg:radical="general"><path id="kvg:055e3-s1" kvg:type="㇑" d="M18.5 19.76c.81.59 1.3 1.37 1.45 2.35.93 4.39 1.54 8.87 2.43 14.08C22.61 37.51 22.82 38.8 23 40"/><path id="kvg:055e3-s2" kvg:type="㇕b" d="M20.88 21.74c7.8-1.73 17.14-3.01 22.5-3.59 3.03-.33 4.69.27 3.76 3.51-.99 3.46-2.01 6.79-3.48 12.28"/><path id="kvg:055e3-s3" kvg:type="㇐b" d="M23.7 37.53c4.78-.45 11.4-1.51 18.04-2.33 1.41-.18 3.01-.24 4.22-.24"/></g><g id="kvg:055e3-g3" kvg:element="冊" kvg:position="bottom"><g id="kvg:055e3-g4" kvg:element="冂"><path id="kvg:055e3-s4" kvg:type="㇑" d="M18.32 48.38c.84.84 1.19 2.13 1.19 3.28.0 5.98.03 23.32.0 34.4-.01 2.52-.01 4.73-.01 6.44"/><path id="kvg:055e3-s5" kvg:type="㇆a" d="M20.04 49.71c8.21-.96 27.6-3.59 27.99-3.65 2.66-.38 3.65.44 3.65 3.92.0 6.76-.43 24.4-.43 36.45.0 7.96-2.53 5.35-5.9 2.57"/></g><g id="kvg:055e3-g5" kvg:element="十" kvg:part="1" kvg:variant="true"><path id="kvg:055e3-s6" kvg:type="㇐a" d="M20.78 67.48c7.34-.98 23.09-2.73 29.51-2.9"/></g><g id="kvg:055e3-g6" kvg:element="廾" kvg:variant="true"><g id="kvg:055e3-g7" kvg:element="丿" kvg:variant="true"><path id="kvg:055e3-s7" kvg:type="㇑" d="M28.75 51.77c.74.79 1.07 2.1 1.07 3.6.0 5.54-.01 15.26-.02 24.37.0 2.18.0 4.3.0 6.28"/></g><g id="kvg:055e3-g8" kvg:element="十" kvg:part="2" kvg:variant="true"><path id="kvg:055e3-s8" kvg:type="㇑" d="M39.36 49.92c.74.79 1.06 2.2 1.06 4.1.0 8.12-.01 17.2-.02 24.72.0 1.72.0 3.35.0 4.85"/></g></g></g></g><g id="kvg:055e3-g9" kvg:element="司" kvg:position="right" kvg:phon="司"><path id="kvg:055e3-s9" kvg:type="㇆" d="M56.75 21.24c2.64.48 4.88.64 7.51.19 9.85-1.7 19.25-3.42 20.55-3.69 3.69-.74 6.01.01 6.01 4.57.0 2.36-.03 57.37-.03 62.79.0 14.15-4.51 5.4-7.97 2.57"/><g id="kvg:055e3-g10" kvg:element="一"><path id="kvg:055e3-s10" kvg:type="㇐" d="M56.37 36.93c1.18.35 3.34.25 4.62.13 4.01-.37 10.21-1.65 14.25-1.93 1.47-.1 2.72-.18 4.13.07"/></g><g id="kvg:055e3-g11" kvg:element="口"><path id="kvg:055e3-s11" kvg:type="㇑" d="M59.06 49.87c.66.66 1.19 1.79 1.33 2.61.5 2.81 1.06 7.84 1.4 11.78.14 1.59.27 3.13.4 4.48"/><path id="kvg:055e3-s12" kvg:type="㇕b" d="M61.15 51.4c5.35-1.03 10.05-2.11 13.62-2.73 2.91-.51 4.36.23 3.76 3.49-.66 3.62-1.59 7.45-2.71 12.28"/><path id="kvg:055e3-s13" kvg:type="㇐b" d="M63.16 66.74c3.57-.45 6.85-.78 10.84-.95 1.35-.06 2.67-.1 3.91-.12"/></g></g></g></g></svg>