<!DOCTYPE svg PUBLIC "-//W3C//DTD SVG 1.0//EN" "http://www.w3.org/TR/2001/REC-SVG-20010904/DTD/svg10.dtd" [
<!ATTLIST g
xmlns:kvg CDATA #FIXED "http://kanjivg.tagaini.net"
kvg:element CDATA #IMPLIED
kvg:variant CDATA #IMPLIED
kvg:partial CDATA #IMPLIED
kvg:original CDATA #IMPLIED
kvg:part CDATA #IMPLIED
kvg:number CDATA #IMPLIED
kvg:tradForm CDATA #IMPLIED
kvg:radicalForm CDATA #IMPLIED
kvg:position CDATA #IMPLIED
kvg:radical CDATA #IMPLIED
kvg:phon CDATA #IMPLIED >
<!ATTLIST path
xmlns:kvg CDATA #FIXED "http://kanjivg.tagaini.net"
kvg:type CDATA #IMPLIED >
]><svg xmlns="http://www.w3.org/2000/svg" width="109" height="109" viewBox="0 0 109 109"><g id="kvg:StrokePaths_0561b" style="fill:none;stroke:#000000;stroke-width:3;stroke-linecap:round;stroke-linejoin:round;"><g id="kvg:0561b" kvg:element="嘛"><g id="kvg:0561b-g1" kvg:element="口" kvg:position="left" kvg:radical="general"><path id="kvg:0561b-s1" kvg:type="㇑" d="M9.25 34.06c.35.45.72.82.87 1.38 1.23 4.42 3.7 18.12 4.54 26.06"/><path id="kvg:0561b-s2" kvg:type="㇕b" d="M11.46 36.18c8.94-1.94 15.27-3.11 19.41-3.69 1.52-.21 2.43 1.26 2.21 2.51-.9 5.17-2.45 12.65-3.78 19.8"/><path id="kvg:0561b-s3" kvg:type="㇐b" d="M14.32 57.86c4.87-.66 10.75-1.42 17.43-2.43"/></g><g id="kvg:0561b-g2" kvg:element="麻" kvg:variant="true" kvg:position="right"><g id="kvg:0561b-g3" kvg:element="广" kvg:position="tare"><path id="kvg:0561b-s4" kvg:type="㇑a" d="M64.63 11.13c.69.38 2.16 2.88 2.3 3.65s.07 5.65-.07 10.46"/><g id="kvg:0561b-g4" kvg:element="厂"><path id="kvg:0561b-s5" kvg:type="㇐" d="M37.03 27.23c1.39.54 3.94.63 5.33.54 14.47-.91 30.87-4.02 49.01-4.23 2.32-.03 3.71.26 4.87.53"/><path id="kvg:0561b-s6" kvg:type="㇒" d="M41.99 28c.04 1.58.08 4.07-.07 6.33-.9 13.35-2.92 45.75-12.61 60.13"/></g></g><g id="kvg:0561b-g5" kvg:element="林" kvg:variant="true" kvg:position="tarec"><g id="kvg:0561b-g6" kvg:element="木" kvg:variant="true"><path id="kvg:0561b-s7" kvg:type="㇐" d="M44.01 50.62c.46.21 1.86.18 3.09.0 4.33-.63 11.11-1.68 15.75-2.11 1.24-.11 2.17-.13 2.94.08"/><path id="kvg:0561b-s8" kvg:type="㇑" d="M53.7 33.93c.96.42 1.54 1.89 1.73 2.74.19.84.0 54.82-.19 60.08"/><path id="kvg:0561b-s9" kvg:type="㇒" d="M47.78 61.64c.47 1.11.54 1.68.46 2.61-.51 5.5-1.74 17.25-7.93 24.96"/><path id="kvg:0561b-s10" kvg:type="㇑/㇔" d="M62.42 59.75c.67.29 1.08 1.32 1.21 1.91.13.59.0 18.26-.13 21.92"/></g><g id="kvg:0561b-g7" kvg:element="木" kvg:variant="true"><path id="kvg:0561b-s11" kvg:type="㇐" d="M70.68 46.67c.48.21 1.53.33 2.81.21 4.53-.42 11.96-1.39 20.81-2.45 1.28-.15 2.4-.21 3.21.0"/><path id="kvg:0561b-s12" kvg:type="㇑" d="M80.1 30.25c1.02.45 1.63 2 1.84 2.89.2.89.0 60.37-.2 65.94"/><path id="kvg:0561b-s13" kvg:type="㇒" d="M73.54 57.89c.46.86.53 2.15.47 3.06-.31 5.4-2.06 16.76-4.46 24.01"/><path id="kvg:0561b-s14" kvg:type="㇟/㇏" d="M89.49 53.87c.76.63 1.37 1.54 1.38 2.99.06 6.45-.15 15.21-.15 19.6.0 7.79.78 9.08 4.92 9.08 4.36.0 5.25-1.04 5.25-7.19"/></g></g></g></g></g><g id="kvg:StrokeNumbers_0561b" style="font-size:8;fill:#808080"><text transform="matrix(1 0 0 1 3.50 41.85)">1</text><text transform="matrix(1 0 0 1 13.50 32.50)">2</text><text transform="matrix(1 0 0 1 17.71 54.85)">3</text><text transform="matrix(1 0 0 1 55.50 11.50)">4</text><text transform="matrix(1 0 0 1 36.50 24.50)">5</text><text transform="matrix(1 0 0 1 35.50 35.50)">6</text><text transform="matrix(1 0 0 1 45.50 47.50)">7</text><text transform="matrix(1 0 0 1 46.50 36.50)">8</text><text transform="matrix(1 0 0 1 44.75 58.50)">9</text><text transform="matrix(1 0 0 1 58.50 56.50)">10</text><text transform="matrix(1 0 0 1 67.75 43.50)">11</text><text transform="matrix(1 0 0 1 70.50 33.50)">12</text><text transform="matrix(1 0 0 1 69.50 54.50)">13</text><text transform="matrix(1 0 0 1 86.50 52.50)">14</text></g></svg>