<!DOCTYPE svg PUBLIC "-//W3C//DTD SVG 1.0//EN" "http://www.w3.org/TR/2001/REC-SVG-20010904/DTD/svg10.dtd" [
<!ATTLIST g
xmlns:kvg CDATA #FIXED "http://kanjivg.tagaini.net"
kvg:element CDATA #IMPLIED
kvg:variant CDATA #IMPLIED
kvg:partial CDATA #IMPLIED
kvg:original CDATA #IMPLIED
kvg:part CDATA #IMPLIED
kvg:number CDATA #IMPLIED
kvg:tradForm CDATA #IMPLIED
kvg:radicalForm CDATA #IMPLIED
kvg:position CDATA #IMPLIED
kvg:radical CDATA #IMPLIED
kvg:phon CDATA #IMPLIED >
<!ATTLIST path
xmlns:kvg CDATA #FIXED "http://kanjivg.tagaini.net"
kvg:type CDATA #IMPLIED >
]><svg xmlns="http://www.w3.org/2000/svg" width="109" height="109" viewBox="0 0 109 109"><g id="kvg:StrokePaths_05634" style="fill:none;stroke:#000000;stroke-width:3;stroke-linecap:round;stroke-linejoin:round;"><g id="kvg:05634" kvg:element="嘴"><g id="kvg:05634-g1" kvg:element="口" kvg:position="left" kvg:radical="general"><path id="kvg:05634-s1" kvg:type="㇑" d="M9.25 34.06c.35.45.72.82.87 1.38 1.23 4.42 3.2 18.12 4.04 26.06"/><path id="kvg:05634-s2" kvg:type="㇕b" d="M11.46 36.18c8.94-1.94 13.77-3.11 17.91-3.69 1.52-.21 2.43 1.26 2.21 2.51-.9 5.17-2.45 12.65-3.78 19.8"/><path id="kvg:05634-s3" kvg:type="㇐b" d="M13.82 57.86c4.87-.66 9.75-1.42 16.43-2.43"/></g><g id="kvg:05634-g2" kvg:element="觜" kvg:position="right"><g id="kvg:05634-g3" kvg:element="此" kvg:position="top"><g id="kvg:05634-g4" kvg:element="止" kvg:position="left"><g id="kvg:05634-g5" kvg:element="卜" kvg:original="ト"><path id="kvg:05634-s4" kvg:type="㇑" d="M52.31 11.15c.69.85 1.33 2.37 1.5 2.75.17.39-.06 18.87-.06 23.01"/><path id="kvg:05634-s5" kvg:type="㇐" d="M54.23 23.7c3.7-.29 6.02-1.2 9.05-1.66.89-.13 1.13-.1 1.7.0"/></g><path id="kvg:05634-s6" kvg:type="㇑a" d="M41.06 19.49c.69.51 1.5 2.16 1.5 2.7.0 2.87.22 15.02.22 18.8"/><path id="kvg:05634-s7" kvg:type="㇐" d="M36.6 43.37c.32.62 1.8.69 2.66.46 4.65-1.23 18.25-7.92 25.51-11.42"/></g><g id="kvg:05634-g6" kvg:element="匕" kvg:position="right"><path id="kvg:05634-s8" kvg:type="㇒" d="M90.92 13.52c.13.24.21.94-.12 1.31-2.17 2.39-9.63 8.99-16.65 11.44"/><path id="kvg:05634-s9" kvg:type="㇟" d="M70.59 10.43c.86.86.92 1.43 1.21 2.57.29 1.14.09 11.75.09 19.54s7.04 6.54 13.03 6.54c11.78.0 11.98-2.17 11.98-7.63"/></g></g><g id="kvg:05634-g7" kvg:element="角" kvg:position="bottom"><g id="kvg:05634-g8" kvg:element="𠂊" kvg:variant="true" kvg:original="勹" kvg:position="top"><path id="kvg:05634-s10" kvg:type="㇒" d="M57.5 40.96c.07.48.14 1.23-.13 1.91C55.82 46.9 46.9 55.73 34.68 61.14"/><path id="kvg:05634-s11" kvg:type="㇇a" d="M55.05 47.52c4.2-.02 16.95-1.77 21.75-2.82 1.82-.4 2.58.83 1.76 1.91-2.64 3.53-5.73 6.7-8.52 10.08"/></g><g id="kvg:05634-g9" kvg:position="bottom"><path id="kvg:05634-s12" kvg:type="㇒" d="M47.75 57.65c1.05.57 1.6 2.67 1.6 3.27.0 2.35.16 13.83-.46 19.77-.6 5.79-5.39 16.56-13.1 20.21"/><path id="kvg:05634-s13" kvg:type="㇆a" d="M49.5 58.65C56 58 84.82 55.96 86.46 55.83c2.94-.25 3.98 2.06 3.68 3.5-.17.77-.05 22.92-.05 32.84.0 8.45-4.09 5.08-7.02 1.75"/><path id="kvg:05634-s14" kvg:type="㇑a" d="M68.67 58.16c.04.16.6.85.65 1.89.21 4.98-.13 18.01-.13 19.71"/><path id="kvg:05634-s15" kvg:type="㇐a" d="M49.5 69.64c3.68.0 34.02-2.26 40.42-2.26"/><path id="kvg:05634-s16" kvg:type="㇐a" d="M49.5 80.58c4.65.0 33.75-1.76 40.53-1.76"/></g></g></g></g></g><g id="kvg:StrokeNumbers_05634" style="font-size:8;fill:#808080"><text transform="matrix(1 0 0 1 3.50 42.50)">1</text><text transform="matrix(1 0 0 1 14.66 32.50)">2</text><text transform="matrix(1 0 0 1 17.50 54.50)">3</text><text transform="matrix(1 0 0 1 43.50 11.50)">4</text><text transform="matrix(1 0 0 1 56.50 19.50)">5</text><text transform="matrix(1 0 0 1 32.50 20.50)">6</text><text transform="matrix(1 0 0 1 36.50 40.50)">7</text><text transform="matrix(1 0 0 1 82.50 12.50)">8</text><text transform="matrix(1 0 0 1 65.50 7.50)">9</text><text transform="matrix(1 0 0 1 43.50 48.50)">10</text><text transform="matrix(1 0 0 1 62.50 44.50)">11</text><text transform="matrix(1 0 0 1 39.25 67.50)">12</text><text transform="matrix(1 0 0 1 54.50 55.50)">13</text><text transform="matrix(1 0 0 1 73.50 64.65)">14</text><text transform="matrix(1 0 0 1 53.50 67.00)">15</text><text transform="matrix(1 0 0 1 53.50 77.50)">16</text></g></svg>