<svg xmlns="http://www.w3.org/2000/svg" width="109" height="109" viewBox="0 0 109 109"><g id="kvg:StrokePaths_05664"><g id="kvg:05664" kvg:element="噤"><g id="kvg:05664-g1" kvg:element="口" kvg:position="left" kvg:radical="general"><path id="kvg:05664-s1" kvg:type="㇑" d="M9.75 34.52c.33.43.66.8.81 1.34 1.14 4.31 3.43 17.65 4.2 25.39"/><path id="kvg:05664-s2" kvg:type="㇕b" d="M11.79 36.59c8.28-1.89 14.15-3.03 17.99-3.6 1.4-.21 2.25 1.23 2.05 2.44-.83 5.03-2.27 12.33-3.5 19.29"/><path id="kvg:05664-s3" kvg:type="㇐b" d="M14.45 57.71c4.51-.64 9.96-1.38 16.15-2.37"/></g><g id="kvg:05664-g2" kvg:element="禁" kvg:position="right"><g id="kvg:05664-g3" kvg:element="林" kvg:position="top"><g id="kvg:05664-g4" kvg:element="木" kvg:variant="true" kvg:position="left"><path id="kvg:05664-s4" kvg:type="㇐" d="M35.9 26.98c.55.15 2.21.13 3.67.0 5.14-.45 12.04-1.64 17.55-1.94 1.46-.08 2.57-.45 3.49-.3"/><path id="kvg:05664-s5" kvg:type="㇑" d="M49.86 13.01c.54.54 1.26 1.75 1.26 2.39.0 7.09.0 29.41-.18 33.17"/><path id="kvg:05664-s6" kvg:type="㇒" d="M50.77 27.29c-2.23 5.72-8.89 15.31-13.54 18.55"/><path id="kvg:05664-s7" kvg:type="㇔/㇏" d="M54 31.78c2.12 1.54 4.78 4.41 6.63 6.83"/></g><g id="kvg:05664-g5" kvg:element="木" kvg:position="right"><path id="kvg:05664-s8" kvg:type="㇐" d="M65.98 23.17c.49.16 1.14.43 2.45.49 3.59.16 13.52-1.61 22.5-2.43 1.3-.12 2.44-.17 3.25.0"/><path id="kvg:05664-s9" kvg:type="㇑" d="M77.97 11c.92.3 1.65 2.19 1.65 2.82.0 4.81.0 27.84-.18 31.6"/><path id="kvg:05664-s10" kvg:type="㇒" d="M79.2 23.99c-2.41 6.71-9.92 16.04-15.5 19.48"/><path id="kvg:05664-s11" kvg:type="㇏" d="M79.17 25.19c4.37 5.83 11.37 13.31 14.92 15.61 1.01.66 1.58 1.11 2.43 1.33"/></g></g><g id="kvg:05664-g6" kvg:element="示" kvg:position="bottom"><g id="kvg:05664-g7" kvg:position="top"><path id="kvg:05664-s12" kvg:type="㇐" d="M47.96 53.78c.89.37 2.51.47 3.4.37 5.65-.64 21.43-2.54 27.05-2.63 1.48-.03 2.36.18 3.11.36"/><path id="kvg:05664-s13" kvg:type="㇐" d="M37.79 66.34c1.18.71 3.36.73 4.54.71 7.52-.17 35.6-5.33 49.25-5.26 1.97.01 3.16.34 4.15.69"/></g><g id="kvg:05664-g8" kvg:position="bottom"><path id="kvg:05664-s14" kvg:type="㇑" d="M66.92 66.04c.07.48.98 2.5 1.05 5.55.34 14.64-.21 15.31-.21 20.29.0 10.59-2.94 4.92-6.44 1.37"/><path id="kvg:05664-s15" kvg:type="㇒" d="M49.22 76.33c.04.44.08 1.13-.07 1.76-.88 3.72-7.29 10.99-14.23 15.99"/><path id="kvg:05664-s16" kvg:type="㇔" d="M81 75.1c4.42 2.76 11.63 11.05 12.73 15.35"/></g></g></g></g></g></svg>