<svg xmlns="http://www.w3.org/2000/svg" width="109" height="109" viewBox="0 0 109 109"><g id="kvg:StrokePaths_0566b"><g id="kvg:0566b" kvg:element="噫"><g id="kvg:0566b-g1" kvg:element="口" kvg:position="left" kvg:radical="general"><path id="kvg:0566b-s1" kvg:type="㇑" d="M9.75 34.06c.35.45.72.82.87 1.38 1.23 4.42 3.7 18.12 4.54 26.06"/><path id="kvg:0566b-s2" kvg:type="㇕b" d="M11.96 36.18c8.94-1.94 15.27-3.11 19.41-3.69 1.52-.21 2.43 1.26 2.21 2.51-.9 5.17-2.45 12.65-3.78 19.8"/><path id="kvg:0566b-s3" kvg:type="㇐b" d="M14.82 57.86c4.87-.66 10.75-1.42 17.43-2.43"/></g><g id="kvg:0566b-g2" kvg:element="意" kvg:position="right"><g id="kvg:0566b-g3" kvg:element="音" kvg:position="top"><g id="kvg:0566b-g4" kvg:element="立"><g id="kvg:0566b-g5" kvg:element="亠" kvg:position="top"><path id="kvg:0566b-s4" kvg:type="㇑a" d="M63.4 11.07c1.33.38 2.12 1.7 2.08 2.75-.14 4-.25 5.6-.1 8.98"/><path id="kvg:0566b-s5" kvg:type="㇐" d="M42.88 24.9c.89.02 2.93.2 3.8.16 7.07-.3 27.57-3.3 38.1-3.92 1.47-.09 3.77.35 4.51.34"/></g><g id="kvg:0566b-g6" kvg:position="bottom"><path id="kvg:0566b-s6" kvg:type="㇔" d="M51.49 27.26c3.91 3.98 5.46 7.9 6.01 10.77"/><path id="kvg:0566b-s7" kvg:type="㇒" d="M77.64 24.77c.36 1.48.41 2.39.25 2.71-1.64 3.28-3.39 8.01-4.36 9.92"/><path id="kvg:0566b-s8" kvg:type="㇐" d="M40.04 42.54c2.15.05 2.96.39 4.26.27 20.62-1.82 28.23-2.74 45.74-3.43 2.23-.09 4.72-.17 6.06.18"/></g></g><g id="kvg:0566b-g7" kvg:element="日"><path id="kvg:0566b-s9" kvg:type="㇑" d="M48.22 50.33c.44.44 1.2 1.28 1.2 1.91.0.63 3.04 17.32 3.04 17.64s.19 1.17.19 1.81"/><path id="kvg:0566b-s10" kvg:type="㇕a" d="M50.16 51.45c2.5-.26 31.05-2.67 33.26-3.15s3.34.43 2.91 3.1c-.57 3.51-2.5 11.13-4.09 17.23"/><path id="kvg:0566b-s11" kvg:type="㇐a" d="M50.89 59.6c3.39-.25 29.75-2.73 33.58-3.01"/><path id="kvg:0566b-s12" kvg:type="㇐a" d="M53.5 69.27c5-.37 21.67-2.02 28.15-2.49"/></g></g><g id="kvg:0566b-g8" kvg:element="心" kvg:position="bottom"><path id="kvg:0566b-s13" kvg:type="㇔" d="M44.77 80.55c.31 1.94-3.06 10.73-5.51 14.11"/><path id="kvg:0566b-s14" kvg:type="㇃" d="M54.34 78.43C59.25 89.5 70.25 96.5 87.8 96.19c8.37-.15 7.59-3.08 2.4-5.35"/><path id="kvg:0566b-s15" kvg:type="㇔a" d="M70.28 76.46c1.16 2.15 4.47 8.54 5.92 2.79"/><path id="kvg:0566b-s16" kvg:type="㇔" d="M88 75.39c4.72 1.74 8.06 4.09 12.08 8.99"/></g></g></g></g></svg>