<!DOCTYPE svg PUBLIC "-//W3C//DTD SVG 1.0//EN" "http://www.w3.org/TR/2001/REC-SVG-20010904/DTD/svg10.dtd" [
<!ATTLIST g
xmlns:kvg CDATA #FIXED "http://kanjivg.tagaini.net"
kvg:element CDATA #IMPLIED
kvg:variant CDATA #IMPLIED
kvg:partial CDATA #IMPLIED
kvg:original CDATA #IMPLIED
kvg:part CDATA #IMPLIED
kvg:number CDATA #IMPLIED
kvg:tradForm CDATA #IMPLIED
kvg:radicalForm CDATA #IMPLIED
kvg:position CDATA #IMPLIED
kvg:radical CDATA #IMPLIED
kvg:phon CDATA #IMPLIED >
<!ATTLIST path
xmlns:kvg CDATA #FIXED "http://kanjivg.tagaini.net"
kvg:type CDATA #IMPLIED >
]><svg xmlns="http://www.w3.org/2000/svg" width="109" height="109" viewBox="0 0 109 109"><g id="kvg:StrokePaths_05678" style="fill:none;stroke:#000000;stroke-width:3;stroke-linecap:round;stroke-linejoin:round;"><g id="kvg:05678" kvg:element="噸"><g id="kvg:05678-g1" kvg:element="口" kvg:position="left" kvg:radical="general"><path id="kvg:05678-s1" kvg:type="㇑" d="M9.25 32.7c.3.49.6.89.73 1.5C11 39.03 12.73 52.33 13.43 61"/><path id="kvg:05678-s2" kvg:type="㇕b" d="M11.09 34.52c7.16-1.77 12.43-2.39 15.89-3.03 1.27-.23 2.03 1.37 1.85 2.73-.75 5.64-2.13 13.85-3.24 21.64"/><path id="kvg:05678-s3" kvg:type="㇐b" d="M13.57 58.67c4.07-.72 8.48-1 14.07-2.1"/></g><g id="kvg:05678-g2" kvg:element="頓" kvg:position="right"><g id="kvg:05678-g3" kvg:element="屯" kvg:position="left"><g id="kvg:05678-g4" kvg:element="丿"><path id="kvg:05678-s4" kvg:type="㇒" d="M58.89 23.46c.07.32-.15 1.3-.54 1.67-4.91 4.57-11.76 8.4-24.56 12.09"/></g><g id="kvg:05678-g5" kvg:element="屮" kvg:variant="true"><g id="kvg:05678-g6" kvg:element="凵"><path id="kvg:05678-s5" kvg:type="㇗a" d="M36.09 44.16c.39.39 1 1.46 1 3.76.0 2.67-.19 10.79-.41 15.48-.11 2.42.58 3.17 2.43 2.55 5.14-1.71 9.64-2.21 18.06-2.98"/><path id="kvg:05678-s6" kvg:type="㇑" d="M58.75 40.55c.33.53 1.04 2.24 1 3.33-.23 5.09-1.25 11.62-2.77 22"/></g><g id="kvg:05678-g7" kvg:element="丿" kvg:variant="true"><path id="kvg:05678-s7" kvg:type="㇟" d="M46.23 12.62c.75.88 1.41 3.36 1.43 5.38.09 9.03-.25 51.4-.25 57.55.0 12.2 1.83 13.22 7.71 13.22s8.27-1.17 8.27-10.07"/></g></g></g><g id="kvg:05678-g8" kvg:element="頁" kvg:position="right"><g id="kvg:05678-g9" kvg:position="top"><path id="kvg:05678-s8" kvg:type="㇐" d="M63.85 18.35c1.02.5 2.89.57 3.91.5 8.42-.58 21.15-2.58 27.71-2.82 1.7-.06 2.72.24 3.57.49"/><path id="kvg:05678-s9" kvg:type="㇒" d="M79.89 20.43c.01.28.02.72-.02 1.12-.26 2.37-2.84 7.56-4.88 10.74"/></g><g id="kvg:05678-g10" kvg:element="貝" kvg:position="bottom"><g id="kvg:05678-g11" kvg:element="目" kvg:position="top"><path id="kvg:05678-s10" kvg:type="㇑" d="M68.91 32.3c.38 1.08.94 1.88.94 3.32s-.25 41.91-.25 42.63"/><path id="kvg:05678-s11" kvg:type="㇕a" d="M70.48 33.73c2.16-.18 19.2-2.86 21.17-3.08 1.64-.18 2.94 1.99 2.8 3.32-.17 1.69-.03 27.28-.03 43.92"/><path id="kvg:05678-s12" kvg:type="㇐a" d="M70.05 47.32c3.09.0 19.07-1.92 23.7-2.31"/><path id="kvg:05678-s13" kvg:type="㇐a" d="M69.83 61.44c7.71-.48 16.8-1.55 22.71-2.05"/><path id="kvg:05678-s14" kvg:type="㇐a" d="M70 75.79c5.83-.79 16.81-1.5 23.11-2.04"/></g><g id="kvg:05678-g12" kvg:element="八" kvg:position="bottom"><path id="kvg:05678-s15" kvg:type="㇒" d="M76.26 82.98c.31 1.23.48 1.48.0 2.46C74.5 89 69.25 94.75 63.98 98"/><path id="kvg:05678-s16" kvg:type="㇔" d="M87.64 82.87c4.44 3.99 9.7 11.22 10.91 14.71"/></g></g></g></g></g></g><g id="kvg:StrokeNumbers_05678" style="font-size:8;fill:#808080"><text transform="matrix(1 0 0 1 3.50 40.85)">1</text><text transform="matrix(1 0 0 1 12.50 30.50)">2</text><text transform="matrix(1 0 0 1 16.50 55.85)">3</text><text transform="matrix(1 0 0 1 52.50 20.50)">4</text><text transform="matrix(1 0 0 1 29.50 50.50)">5</text><text transform="matrix(1 0 0 1 51.50 39.50)">6</text><text transform="matrix(1 0 0 1 38.50 13.50)">7</text><text transform="matrix(1 0 0 1 62.50 15.50)">8</text><text transform="matrix(1 0 0 1 71.50 25.50)">9</text><text transform="matrix(1 0 0 1 59.50 38.50)">10</text><text transform="matrix(1 0 0 1 68.50 31.50)">11</text><text transform="matrix(1 0 0 1 73.50 43.80)">12</text><text transform="matrix(1 0 0 1 73.50 57.50)">13</text><text transform="matrix(1 0 0 1 73.50 71.50)">14</text><text transform="matrix(1 0 0 1 66.50 85.50)">15</text><text transform="matrix(1 0 0 1 80.50 90.50)">16</text></g></svg>