<svg xmlns="http://www.w3.org/2000/svg" width="109" height="109" viewBox="0 0 109 109"><g id="kvg:StrokePaths_0567a"><g id="kvg:0567a" kvg:element="噺"><g id="kvg:0567a-g1" kvg:element="口" kvg:position="left" kvg:radical="general"><path id="kvg:0567a-s1" kvg:type="㇑a" d="M11.25 31.79c.37.51.76.94.92 1.58 1.29 5.07 2.84 19.04 3.73 28.13"/><path id="kvg:0567a-s2" kvg:type="㇕" d="M13.58 34.22C23 32 25.12 31.66 29.49 30.99c1.6-.24 2.56 1.44 2.33 2.87-.95 5.92-2.05 14.07-3.46 22.25"/><path id="kvg:0567a-s3" kvg:type="㇐" d="M16.07 59.05c5.14-.75 7.33-1.05 14.39-2.21"/></g><g id="kvg:0567a-g2" kvg:element="新" kvg:position="right"><g id="kvg:0567a-g3" kvg:position="left"><g id="kvg:0567a-g4" kvg:element="立"><g id="kvg:0567a-g5" kvg:element="亠" kvg:position="top"><path id="kvg:0567a-s4" kvg:type="㇑a" d="M48.94 13.26c.92 1.02 1.38.97 1.38 3.6s.01 3.65.01 10.79"/><path id="kvg:0567a-s5" kvg:type="㇐" d="M37.38 28.94c.46.11.99.03 1.45.03C43 29 52.29 27.25 61.06 26.5c.76-.07 1.22-.03 1.6.02"/></g><g id="kvg:0567a-g6" kvg:position="bottom"><path id="kvg:0567a-s6" kvg:type="㇔" d="M41.02 34.81c3.12 4.32 3.71 7.24 3.99 10.18"/><path id="kvg:0567a-s7" kvg:type="㇒" d="M58.73 30.67c.49.52.55.8.49 1.27-.39 3.18-4.02 12.45-5.01 14.92"/><path id="kvg:0567a-s8" kvg:type="㇐" d="M37.16 50.95c.57.13 2.79.09 3.37.03 4.47-.48 14.12-3.23 20.06-3.24.96.0 2.31-.04 2.79.01"/></g></g><g id="kvg:0567a-g7" kvg:element="木"><path id="kvg:0567a-s9" kvg:type="㇐" d="M34.86 63.67c.46.22 1.69.8 2.92.68 5.81-.59 18.7-2.84 24.7-3.51 1.23-.14 1.54-.23 2.31.0"/><path id="kvg:0567a-s10" kvg:type="㇑" d="M49.85 52.25c.87.45 1.4 2.03 1.57 2.93.28 1.46.0 36.54-.18 42.32"/><path id="kvg:0567a-s11" kvg:type="㇒" d="M51.35 63.09C47.64 71.78 37.98 84.08 30.25 89"/><path id="kvg:0567a-s12" kvg:type="㇔/㇏" d="M54.42 68.5c3.33 1.75 6.08 5.25 7.29 9.18"/></g></g><g id="kvg:0567a-g8" kvg:element="斤" kvg:position="right"><path id="kvg:0567a-s13" kvg:type="㇒" d="M92.17 13.94c.05.32.2.94-.1 1.3-3.74 4.57-9.78 8.4-19.02 12.46"/><path id="kvg:0567a-s14" kvg:type="㇒" d="M71.28 27.64c1.03 1.88 1.01 3.67 1.01 5.71.0 17.65 2.21 43.4-11.91 57.15"/><path id="kvg:0567a-s15" kvg:type="㇐" d="M72.86 44.36c.32.17 1.8.22 2.65.02 4.65-1.09 16.07-2.26 21.36-2.8.85-.09 2.32-.17 2.85.0"/><path id="kvg:0567a-s16" kvg:type="㇑" d="M87.8 45.54c.69.55 1.1 2.46 1.23 3.55.14 1.09.21 41.83.07 48.66"/></g></g></g></g></svg>