<svg xmlns="http://www.w3.org/2000/svg" width="109" height="109" viewBox="0 0 109 109"><g id="kvg:StrokePaths_05680"><g id="kvg:05680" kvg:element="嚀"><g id="kvg:05680-g1" kvg:element="口" kvg:position="left" kvg:radical="general"><path id="kvg:05680-s1" kvg:type="㇑" d="M9.26 34.49c.34.43.69.78.83 1.32 1.17 4.23 3.54 17.84 4.34 25.44"/><path id="kvg:05680-s2" kvg:type="㇕b" d="M11.37 36.52c8.55-1.86 14.61-2.98 18.58-3.53 1.45-.2 2.32 1.2 2.11 2.4C31.2 40.33 29.72 48 28.44 54.83"/><path id="kvg:05680-s3" kvg:type="㇐b" d="M14.12 57.77c4.66-.63 10.28-1.36 16.68-2.32"/></g><g id="kvg:05680-g2" kvg:element="寧" kvg:variant="true" kvg:position="right"><g id="kvg:05680-g3" kvg:element="宀" kvg:position="top"><path id="kvg:05680-s4" kvg:type="㇑a" d="M64.08 9.5c1.15.37 2.79 2.21 2.76 3.29-.08 3.4-.08 5.2-.09 8.3"/><g id="kvg:05680-g4" kvg:element="冖"><path id="kvg:05680-s5" kvg:type="㇔" d="M42.75 22.61c0 2.61-3.14 10.65-4.17 12.39"/><path id="kvg:05680-s6" kvg:type="㇖b" d="M44.12 23.44c7.13-.74 40.2-3.4 45.99-3.68 9.04-.44 1.92 5.38-.34 6.96"/></g></g><g id="kvg:05680-g5" kvg:position="bottom"><g id="kvg:05680-g6" kvg:element="心"><path id="kvg:05680-s7" kvg:type="㇔" d="M47.23 34.75c.2 1.63-2.01 8.8-3.62 11.51"/><path id="kvg:05680-s8" kvg:type="㇃" d="M54.79 32.96c6.96 9.29 12.47 12.68 25.76 12.23 5.44-.18 5.69-2.43 1.89-5.65"/><path id="kvg:05680-s9" kvg:type="㇔a" d="M67.12 30.25c1.54 3.74 3.79 7.48 5.43 1.75"/><path id="kvg:05680-s10" kvg:type="㇔" d="M81.9 28.98c3.29 1.32 5.76 2.53 8.44 6.63"/></g><g id="kvg:05680-g7" kvg:element="罒" kvg:variant="true" kvg:original="网"><g id="kvg:05680-g8" kvg:element="皿"><path id="kvg:05680-s11" kvg:type="㇑a" d="M46.56 53.03c.23.26.47.48.57.81.81 2.59 1.13 8.25 1.68 12.91"/><path id="kvg:05680-s12" kvg:type="㇕b" d="M47.58 54.29c6.44-.79 36.41-2.71 39.13-3.06.99-.12 2.35.88 2.08 2.34-.56 3.04-1.35 6.27-2.84 10.61"/><path id="kvg:05680-s13" kvg:type="㇑a" d="M59.97 54.34c.53.66.63 1.16.74 2.1.38 3.04.55 7.02.67 8.5"/><path id="kvg:05680-s14" kvg:type="㇑a" d="M72.69 53.26c.56.99.87 1.84.75 3.02-.3 3.15-.78 6.11-1.01 7.36"/><path id="kvg:05680-s15" kvg:type="㇐" d="M37.29 67.34c1.96.41 3.38.29 4.96.21 11.82-.64 41.31-3.53 53.52-4.26 2.27-.13 3.72-.04 4.96.68"/></g></g><g id="kvg:05680-g9" kvg:element="丁"><g id="kvg:05680-g10" kvg:element="一"><path id="kvg:05680-s16" kvg:type="㇐" d="M42.75 77.01c1.32.39 3.73.5 5.05.39 13.47-1.04 23.15-3.19 39.35-3.71 2.19-.07 3.51.19 4.61.38"/></g><g id="kvg:05680-g11" kvg:element="亅"><path id="kvg:05680-s17" kvg:type="㇚" d="M67.08 77.4c.08.33 1.64 1.74 1.64 3.87.0 7.48-.23 9.48-.23 13.17.0 10.31-6.74.86-8.11-.02"/></g></g></g></g></g></g></svg>