<svg xmlns="http://www.w3.org/2000/svg" width="109" height="109" viewBox="0 0 109 109"><g id="kvg:StrokePaths_05687" style="fill:none;stroke:#000000;stroke-width:3;stroke-linecap:round;stroke-linejoin:round;"><g id="kvg:05687" kvg:element="嚇"><g id="kvg:05687-g1" kvg:element="口" kvg:position="left" kvg:radical="general"><path id="kvg:05687-s1" kvg:type="㇑" d="M11.5 35.18c1.03 1.03 1.25 2.32 1.43 3.8.56 4.5.92 11.88 1.31 18.51.12 2.03.24 3.98.36 5.77"/><path id="kvg:05687-s2" kvg:type="㇕b" d="M13.8 36.48c4.03-.77 6.7-1.23 10.22-1.75 3.12-.46 5.17-1.18 4.71 2.9-.61 5.51-1.57 11.83-2.46 19.3"/><path id="kvg:05687-s3" kvg:type="㇐b" d="M15.47 59.22c3.42-.18 5.02-.63 8.78-1.01.95-.1 1.97-.2 3.09-.33"/></g><g id="kvg:05687-g2" kvg:element="赫" kvg:position="right" kvg:phon="赫"><g id="kvg:05687-g3" kvg:element="赤" kvg:position="left"><g id="kvg:05687-g4" kvg:element="土" kvg:position="top"><path id="kvg:05687-s4" kvg:type="㇐" d="M34 32.24c.63.46 2.78.51 3.38.48 4.69-.26 8.53-1.03 14.63-2.17 1.24-.23 2.62-.3 3.6.02"/><path id="kvg:05687-s5" kvg:type="㇑a" d="M44.9 14.45c.89.89 1.11 2.3 1.11 3.84.0.55.0 23.34.0 27.13"/><path id="kvg:05687-s6" kvg:type="㇐" d="M32.44 47.64c1.26.85 4.06.39 5.41.19 5.18-.76 11.29-1.76 18.03-2.66 1.47-.2 2.55-.46 3.92.1"/></g><g id="kvg:05687-g5" kvg:position="bottom"><path id="kvg:05687-s7" kvg:type="㇒" d="M39.76 50c.87.87 1.14 2.41 1.14 3.89-.02 22.61-1.65 29.49-9.65 39.36"/><path id="kvg:05687-s8" kvg:type="㇚" d="M49.13 48.66c.73.73 1.1 2.24 1.1 4.1s.02 26.86.02 33.74c0 9.38-3.88 3.75-5.71 1.78"/><path id="kvg:05687-s9" kvg:type="㇒" d="M33.35 56.36c.02.55.04 1.41-.04 2.19-.46 4.62-2.68 12.58-6.06 20.2"/><path id="kvg:05687-s10" kvg:type="㇔" d="M55.48 58c1.08 1.94 2.78 7.98 3.05 11"/></g></g><g id="kvg:05687-g6" kvg:element="赤" kvg:position="right"><g id="kvg:05687-g7" kvg:element="土" kvg:position="top"><path id="kvg:05687-s11" kvg:type="㇐" d="M65.66 28.74c.88.62 3.1.49 4.09.41 5.18-.43 11.19-.93 17.37-2.03 1.43-.26 2.75-.37 4.08-.05"/><path id="kvg:05687-s12" kvg:type="㇑a" d="M77.02 13.7c1.08 1.08 1.47 2.55 1.47 4.24s-.05 19.16-.11 22.56"/><path id="kvg:05687-s13" kvg:type="㇐" d="M62.77 42.89c1.86.49 4.12.39 5.5.21 6.65-.88 17.61-2 25.24-2.91 1.46-.17 2.79-.23 4.2.33"/></g><g id="kvg:05687-g8" kvg:position="bottom"><path id="kvg:05687-s14" kvg:type="㇒" d="M72.06 45.86c.68 1.03 1.14 2.8 1.11 4.53C72.85 69.34 72.75 85.25 62 96"/><path id="kvg:05687-s15" kvg:type="㇚" d="M81.27 44.41c.85.85 1.1 2.49 1.1 5.1s-.12 32.81-.12 41.74c0 9.5-4.3 3.64-5.54 1.67"/><path id="kvg:05687-s16" kvg:type="㇒" d="M64.75 53.25c.37.88.54 1.78.46 2.77-.52 5.85-2.5 16.87-6.59 24.73"/><path id="kvg:05687-s17" kvg:type="㇔" d="M88.25 54.5c2.75 4.42 7.1 18.2 7.79 25.08"/></g></g></g></g></g></svg>