<svg xmlns="http://www.w3.org/2000/svg" width="109" height="109" viewBox="0 0 109 109"><g id="kvg:StrokePaths_05686"><g id="kvg:05686" kvg:element="嚆"><g id="kvg:05686-g1" kvg:element="口" kvg:position="left" kvg:radical="general"><path id="kvg:05686-s1" kvg:type="㇑" d="M9.75 34.06c.35.45.72.82.87 1.38 1.23 4.42 3.2 18.12 4.04 26.06"/><path id="kvg:05686-s2" kvg:type="㇕b" d="M11.96 36.18c8.94-1.94 13.77-2.61 17.91-3.19 1.52-.21 2.43 1.26 2.21 2.51-.9 5.17-2.45 12.65-3.78 19.8"/><path id="kvg:05686-s3" kvg:type="㇐b" d="M14.32 57.86c4.87-.66 9.75-.92 16.43-1.93"/></g><g id="kvg:05686-g2" kvg:element="蒿" kvg:position="right"><g id="kvg:05686-g3" kvg:element="艹" kvg:variant="true" kvg:original="艸" kvg:position="top"><path id="kvg:05686-s4" kvg:type="㇐" d="M36 21.8c1.4.49 3.02.59 4.42.49 12.85-.9 37.62-4.17 52.43-4.24 2.33-.01 3.73.23 4.89.48"/><path id="kvg:05686-s5" kvg:type="㇑a" d="M51.74 11.89c1.45 1.34 1.94 1.75 2.08 2.57C54.5 18.5 55 24 55.1 29"/><path id="kvg:05686-s6" kvg:type="㇑a" d="M77.9 9.75c.93.94 1.55 2.36 1.25 3.74-.93 4.21-1.56 9.22-2.91 14.6"/></g><g id="kvg:05686-g4" kvg:element="高" kvg:position="bottom"><g id="kvg:05686-g5" kvg:position="top"><g id="kvg:05686-g6" kvg:element="亠"><path id="kvg:05686-s7" kvg:type="㇑a" d="M64.67 26.18c.78.42 2.06 2.06 2.06 2.9.0 3.1-.25 3.69-.1 6.31"/><path id="kvg:05686-s8" kvg:type="㇐" d="M39.73 38.63c1.02.07 3.35.5 4.35.4 8.03-.84 35.84-4.27 46.75-4.48 1.69-.03 2.54.03 3.8.51"/></g><g id="kvg:05686-g7" kvg:element="口"><path id="kvg:05686-s9" kvg:type="㇑" d="M51.41 43.88c.44.25.88.45 1.08.76 1.51 2.44 1.72 9.17 2.76 13.56"/><path id="kvg:05686-s10" kvg:type="㇕b" d="M54.13 45.53c8.93-1.27 19-2.68 24.12-3 1.87-.12 2.99 1.46 2.72 2.15-1.11 2.85-1.6 4.77-3.25 8.71"/><path id="kvg:05686-s11" kvg:type="㇐b" d="M55.44 56.05c6.01-.36 15.9-1.75 24.15-2.31"/></g></g><g id="kvg:05686-g8" kvg:element="冋" kvg:position="bottom"><g id="kvg:05686-g9" kvg:element="冂"><path id="kvg:05686-s12" kvg:type="㇑" d="M40.87 65.09c.6 1.05 1.44 2.3 1.63 4.18.45 4.39 2.31 21.53 2.94 28.22"/><path id="kvg:05686-s13" kvg:type="㇆a" d="M41.66 66.6c10.84-.85 38.84-3.85 47.68-4.44 3.78-.25 5.59.79 5.19 6.48C94 76.25 92.5 86 89.97 93.53c-1.88 5.59-4.72 2.47-6.77-.5"/></g><g id="kvg:05686-g10" kvg:element="口"><path id="kvg:05686-s14" kvg:type="㇑" d="M54.89 73.49c.32.25.64.46.78.78 1.1 2.5 2.42 9.39 3.17 13.88"/><path id="kvg:05686-s15" kvg:type="㇕b" d="M56.86 75.18c6.49-1.3 14.08-2.11 17.78-2.57 1.5-.19 2.96 1.03 2.81 2.23-.37 3-1.75 5.63-2.94 9.67"/><path id="kvg:05686-s16" kvg:type="㇐b" d="M58.49 85.95c5.76-.45 10.51-.7 17.88-1.08"/></g></g></g></g></g></g></svg>