<svg xmlns="http://www.w3.org/2000/svg" width="109" height="109" viewBox="0 0 109 109"><g id="kvg:StrokePaths_056b6" style="fill:none;stroke:#000000;stroke-width:3;stroke-linecap:round;stroke-linejoin:round;"><g id="kvg:056b6" kvg:element="嚶"><g id="kvg:056b6-g1" kvg:element="口" kvg:position="left" kvg:radical="general"><path id="kvg:056b6-s1" kvg:type="㇑" d="M11.25 34.56c.35.45.72.82.87 1.38 1.23 4.42 3.7 18.12 4.54 26.06"/><path id="kvg:056b6-s2" kvg:type="㇕b" d="M13.46 36.18c8.94-1.94 15.27-3.11 19.41-3.69 1.52-.21 2.43 1.26 2.21 2.51-.9 5.17-2.45 12.65-3.78 19.8"/><path id="kvg:056b6-s3" kvg:type="㇐b" d="M16.32 57.86c4.87-.66 10.75-1.42 17.43-2.43"/></g><g id="kvg:056b6-g2" kvg:element="嬰" kvg:position="right"><g id="kvg:056b6-g3" kvg:position="top"><g id="kvg:056b6-g4" kvg:element="貝" kvg:position="left"><g id="kvg:056b6-g5" kvg:element="目" kvg:position="top"><path id="kvg:056b6-s4" kvg:type="㇑" d="M44.15 16.13c.27.68.66 1.18.66 2.08.0.9.62 22.56.3 26.33"/><path id="kvg:056b6-s5" kvg:type="㇕a" d="M45.26 16.91c1.51-.11 13.54-1.55 14.92-1.69 1.15-.11 1.76.62 1.76 1.46.0 2.06-.34 26.48-.34 27.15"/><path id="kvg:056b6-s6" kvg:type="㇐a" d="M45.34 25.42c2.83-.26 13.8-1.83 16.22-1.83"/><path id="kvg:056b6-s7" kvg:type="㇐a" d="M45.46 33.96c4.27-.5 11.59-1.5 16.12-1.6"/><path id="kvg:056b6-s8" kvg:type="㇐a" d="M45.27 42.27c4.27-.37 12.42-1.35 16.31-1.35"/></g><g id="kvg:056b6-g6" kvg:element="八" kvg:position="bottom"><path id="kvg:056b6-s9" kvg:type="㇒" d="M50.87 48.08c.28.88-.21 1.73-.77 2.37-1.69 1.93-6.12 6.03-9.5 8.31"/><path id="kvg:056b6-s10" kvg:type="㇔" d="M56.43 46.33c2.69 1.45 5.88 4.08 6.61 5.35"/></g></g><g id="kvg:056b6-g7" kvg:element="貝" kvg:position="right"><g id="kvg:056b6-g8" kvg:element="目" kvg:position="top"><path id="kvg:056b6-s11" kvg:type="㇑" d="M71.92 14.54c.27.6.66 1.05.66 1.84.0.8.12 22.33-.19 25.67"/><path id="kvg:056b6-s12" kvg:type="㇕a" d="M73.02 16.12c1.51-.1 13.04-2.26 14.42-2.38 1.15-.1 1.76.55 1.76 1.3.0 1.83-.34 24.8-.34 25.4"/><path id="kvg:056b6-s13" kvg:type="㇐a" d="M72.6 23.67c2.83-.23 13.8-1.62 16.22-1.62"/><path id="kvg:056b6-s14" kvg:type="㇐a" d="M72.73 31.24c4.27-.44 11.59-1.33 16.12-1.42"/><path id="kvg:056b6-s15" kvg:type="㇐a" d="M72.53 39.49c4.27-.33 12.42-1.2 16.31-1.2"/></g><g id="kvg:056b6-g9" kvg:position="bottom"><path id="kvg:056b6-s16" kvg:type="㇒" d="M76.9 45.11c.21.71-.16 1.41-.58 1.93-1.28 1.57-4.64 4.91-7.21 6.75"/><path id="kvg:056b6-s17" kvg:type="㇔" d="M85.38 44.64c3.64 2.31 7.93 6.49 8.92 8.51"/></g></g></g><g id="kvg:056b6-g10" kvg:element="女" kvg:position="bottom"><path id="kvg:056b6-s18" kvg:type="㇛" d="M61.76 57.22c.38 1.09.33 2.57-.19 3.8-2.78 6.67-5.22 9.69-9.91 17.3-1.02 1.65-.21 1.9.56 1.99C66.75 82 79.75 87.25 89.06 95.78"/><path id="kvg:056b6-s19" kvg:type="㇒" d="M80.02 62.71c.1.79.17 2.7-.21 3.84-3.1 9.23-11.77 23.31-34.21 29.19"/><path id="kvg:056b6-s20" kvg:type="㇐" d="M37.63 69.13c1.59.41 3.29.69 4.06.63C57.8 68.46 78.62 66.1 94 65.92c1.27-.01 3.47.25 4.5.72"/></g></g></g></g></svg>