<svg xmlns="http://www.w3.org/2000/svg" width="109" height="109" viewBox="0 0 109 109"><g id="kvg:StrokePaths_056c2"><g id="kvg:056c2" kvg:element="囂"><g id="kvg:056c2-g1" kvg:position="top"><g id="kvg:056c2-g2" kvg:element="口" kvg:position="left" kvg:radical="general"><path id="kvg:056c2-s1" kvg:type="㇑" d="M23.74 14.52c.38.24 1.27.93 1.44 1.23 1.33 2.34 1.91 7.79 2.82 12"/><path id="kvg:056c2-s2" kvg:type="㇕b" d="M25.62 15.61c7.82-1.22 16.84-2.57 21.32-2.88 1.64-.11 2.62.67 2.39 1.33-.97 2.73-1.6 5.54-3.05 9.32"/><path id="kvg:056c2-s3" kvg:type="㇐b" d="M28.18 25.7c5.26-.35 12.51-1.45 19.74-1.98"/></g><g id="kvg:056c2-g3" kvg:element="口" kvg:position="right"><path id="kvg:056c2-s4" kvg:type="㇑" d="M59.74 12.63c.38.26 1.27.97 1.44 1.29 1.33 2.53 1.41 7.03 2.32 11.58"/><path id="kvg:056c2-s5" kvg:type="㇕b" d="M61.12 13.85c7.82-1.32 16.84-2.28 21.32-2.62 1.64-.12 2.62.72 2.38 1.44-.97 2.96-2.1 5.54-3.54 9.63"/><path id="kvg:056c2-s6" kvg:type="㇐b" d="M64.18 24.28c5.26-.38 11.52-1.03 18.74-1.61"/></g></g><g id="kvg:056c2-g4" kvg:position="bottom"><g id="kvg:056c2-g5" kvg:element="頁"><g id="kvg:056c2-g6" kvg:position="top"><path id="kvg:056c2-s7" kvg:type="㇐" d="M19.38 33.87c1.52.53 4.31.68 5.82.53 16.8-1.72 48.54-3.9 63.11-4.6 2.53-.12 4.05.25 5.31.52"/><path id="kvg:056c2-s8" kvg:type="㇒" d="M55.16 33.9c.02.16.03.42-.03.65-.39 1.38-3.12 4.68-6.18 6.53"/></g><g id="kvg:056c2-g7" kvg:element="貝" kvg:position="bottom"><g id="kvg:056c2-g8" kvg:element="目" kvg:position="top"><path id="kvg:056c2-s9" kvg:type="㇑" d="M32.6 41.8c.35.61.87 1.07.87 1.89s-.23 22.5-.23 22.91.12.41.23 1.23"/><path id="kvg:056c2-s10" kvg:type="㇕a" d="M34.06 42.9c1.99-.1 41.96-3.54 43.78-3.66 1.51-.1 1.81.71 1.81 1.89.0.98-.45 24.48-.45 25.1"/><path id="kvg:056c2-s11" kvg:type="㇐a" d="M34.02 50.69c3.47-.45 40.86-2.79 45.12-3.01"/><path id="kvg:056c2-s12" kvg:type="㇐a" d="M33.93 58.5c4.59-.52 39.54-2.57 44.98-2.85"/><path id="kvg:056c2-s13" kvg:type="㇐a" d="M33.67 66.62c4.59-.61 39.18-2.83 44.98-3.14"/></g><g id="kvg:056c2-g9" kvg:element="八" kvg:position="bottom"><path id="kvg:056c2-s14" kvg:type="㇒" d="M40.7 71.31c.05 1.44-.43 2.55-1.57 3.17C34.5 77 27.6 79.83 18.21 82.5"/><path id="kvg:056c2-s15" kvg:type="㇔" d="M71.49 69.28c8.76 2.47 15.76 6.47 21.08 11.06"/></g></g></g><g id="kvg:056c2-g10" kvg:element="口" kvg:position="left"><path id="kvg:056c2-s16" kvg:type="㇑" d="M26.99 83.88c.33.26.67.47.81.79 1.14 2.54 2.5 8.03 3.28 12.58"/><path id="kvg:056c2-s17" kvg:type="㇕b" d="M29.54 85.1c6.72-1.32 14.9-2.79 18.75-3.12 1.41-.12 2.25.72 2.05 1.44-.83 2.96-1.81 6.54-3.05 10.63"/><path id="kvg:056c2-s18" kvg:type="㇐b" d="M31.74 96.03c4.52-.38 10.75-1.03 16.96-1.61"/></g><g id="kvg:056c2-g11" kvg:element="口" kvg:position="right"><path id="kvg:056c2-s19" kvg:type="㇑" d="M59.99 81.63c.36.26.72.47.88.79 1.24 2.54 2.22 10.03 3.07 14.58"/><path id="kvg:056c2-s20" kvg:type="㇕b" d="M62.22 82.85c7.53-1.1 15.7-1.79 19.89-2.12 1.53-.12 2.45.72 2.23 1.44-.9 2.96-1.96 7.54-3.31 11.63"/><path id="kvg:056c2-s21" kvg:type="㇐b" d="M64.11 95.78c4.92-.38 11.69-1.03 18.44-1.61"/></g></g></g></g></svg>