<svg xmlns="http://www.w3.org/2000/svg" width="109" height="109" viewBox="0 0 109 109"><g id="kvg:StrokePaths_056c8" style="fill:none;stroke:#000000;stroke-width:3;stroke-linecap:round;stroke-linejoin:round;"><g id="kvg:056c8" kvg:element="囈"><g id="kvg:056c8-g1" kvg:element="口" kvg:position="left" kvg:radical="general"><path id="kvg:056c8-s1" kvg:type="㇑" d="M8.75 34.56C9.1 35 9.47 35.38 9.62 35.94c1.23 4.42 2.7 18.12 3.54 26.06"/><path id="kvg:056c8-s2" kvg:type="㇕b" d="M9.96 36.68c8.94-1.94 14.77-3.11 18.91-3.69 1.52-.21 2.43 1.26 2.21 2.51-.9 5.17-2.45 12.65-3.78 19.8"/><path id="kvg:056c8-s3" kvg:type="㇐b" d="M12.82 57.86c4.87-.66 9.25-1.42 15.93-2.43"/></g><g id="kvg:056c8-g2" kvg:element="藝" kvg:position="right"><g id="kvg:056c8-g3" kvg:element="艹" kvg:variant="true" kvg:original="艸" kvg:position="top"><path id="kvg:056c8-s4" kvg:type="㇐" d="M35.16 20.27c1.14.53 2.46.63 3.6.53 10.45-.96 42.2-3.96 54.25-4.03 1.9-.01 3.03.25 3.98.51"/><path id="kvg:056c8-s5" kvg:type="㇑a" d="M53.07 11.05c1.25 1.16 1.73 1.5 1.78 2.23.4 5.48.3 7.23.96 11.68"/><path id="kvg:056c8-s6" kvg:type="㇑a" d="M74.78 9c.66.67 1.09 1.68.88 2.67-.66 3-1.6 9-2.55 12.83"/></g><g id="kvg:056c8-g4" kvg:element="埶" kvg:position="bottom"><g id="kvg:056c8-g5" kvg:position="left"><g id="kvg:056c8-g6" kvg:element="土"><path id="kvg:056c8-s7" kvg:type="㇐" d="M38.18 35.05c.64.19 1.8.24 2.43.19 3.47-.28 14.41-2.48 18.31-2.46 1.06.01 1.69.09 2.22.18"/><path id="kvg:056c8-s8" kvg:type="㇑a" d="M49.3 27.54c.07.15 1.01.79 1.01 1.76.0 5.95-.21 11.41-.21 13"/><path id="kvg:056c8-s9" kvg:type="㇐" d="M35.19 43.81c.87.28 2.47.39 3.33.28 7.72-.93 15.01-2.39 21.62-3.09 1.44-.15 2.31.13 3.04.28"/></g><g id="kvg:056c8-g7" kvg:element="儿" kvg:original="八"><g id="kvg:056c8-g8" kvg:element="丿" kvg:position="left"><path id="kvg:056c8-s10" kvg:type="㇒" d="M44.22 46.03c.04.26.04.65-.08 1.03-1.1 3.28-2.51 5.78-7.2 8.96"/></g><g id="kvg:056c8-g9" kvg:position="right"><path id="kvg:056c8-s11" kvg:type="㇏" d="M53.33 43.77c.43.42.8.91.8 1.56.0.87-.13 2.5-.13 3.13.0 1.7 1.48 2.39 4.32 2.39 2.56.0 4.45.0 5.54-.55"/></g></g><g id="kvg:056c8-g10" kvg:element="土"><path id="kvg:056c8-s12" kvg:type="㇐" d="M40.45 59.31c1.32.0.9.35 2.21.2C47 59 51.77 57.08 56.32 56.6c1.3-.14 1.64-.16 2.46.0"/><path id="kvg:056c8-s13" kvg:type="㇑a" d="M49.09 51.49c.87.36 1.39 1.64 1.57 2.37.17.73-.1 6.42-.27 10.97"/><path id="kvg:056c8-s14" kvg:type="㇐" d="M36.57 68.49c.95.67 2.04 1.26 4.81.38 5.11-1.62 13.56-3.69 19.37-5.87"/></g></g><g id="kvg:056c8-g11" kvg:element="丸" kvg:position="right"><g id="kvg:056c8-g12" kvg:element="九"><path id="kvg:056c8-s15" kvg:type="㇒" d="M79.39 27.5c.27.31.63 1.53.56 2.09C78 45.75 74.75 55 67.33 64.12"/><g id="kvg:056c8-g13" kvg:element="乙"><path id="kvg:056c8-s16" kvg:type="㇈" d="M67.29 37.12c1.21.88 3.43 1.13 4.33 1 2.63-.37 11.4-1.95 14.54-3.06 1.59-.56 3.09.19 2.67 2.63-1.67 9.72-.16 18.68 4.05 24.31 3.37 4.5 4.37 2.75 4.09-2.45"/></g></g><g id="kvg:056c8-g14" kvg:element="丶"><path id="kvg:056c8-s17" kvg:type="㇔" d="M70.45 45.56c4.38 2.01 11.32 8.28 12.41 11.42"/></g></g><g id="kvg:056c8-g15" kvg:element="云"><g id="kvg:056c8-g16" kvg:element="二" kvg:position="top"><path id="kvg:056c8-s18" kvg:type="㇐" d="M51.64 70.48c.67.28 1.88.31 2.55.28 6.29-.26 17.16-2.51 25.51-2.72 1.11-.03 1.78.13 2.33.27"/><path id="kvg:056c8-s19" kvg:type="㇐" d="M35.53 80.24c1.25.35 3.55.47 4.79.35 13.02-1.35 42.71-3.96 55.09-3.95 2.08.0 3.33.17 4.37.34"/></g><g id="kvg:056c8-g17" kvg:element="厶" kvg:position="bottom"><path id="kvg:056c8-s20" kvg:type="㇜" d="M60.2 81.64c.19.49.36 1.23-.16 1.73C55.5 87.75 52.5 90 46.22 94.96c-1.29 1.02-1.3 2.04.6 1.81 3.98-.47 30.47-6.02 38.06-7.6"/><path id="kvg:056c8-s21" kvg:type="㇔" d="M75.77 83.02c5.78 2.57 14.16 10.49 15.6 14.48"/></g></g></g></g></g></g></svg>