<svg xmlns="http://www.w3.org/2000/svg" width="109" height="109" viewBox="0 0 109 109"><g id="kvg:StrokePaths_056ce"><g id="kvg:056ce" kvg:element="囎"><g id="kvg:056ce-g1" kvg:element="口" kvg:position="left" kvg:radical="general"><path id="kvg:056ce-s1" kvg:type="㇑" d="M8 34.53c.34.44.68.8.83 1.35 1.16 4.35 3.5 17.81 4.3 25.62"/><path id="kvg:056ce-s2" kvg:type="㇕b" d="M10.09 36.62c8.47-1.91 14.47-3.06 18.39-3.63 1.44-.21 2.3 1.24 2.09 2.46-.85 5.08-2.32 12.44-3.58 19.46"/><path id="kvg:056ce-s3" kvg:type="㇐b" d="M12.81 57.93c4.61-.65 10.18-1.39 16.52-2.39"/></g><g id="kvg:056ce-g2" kvg:element="贈" kvg:variant="true" kvg:position="right"><g id="kvg:056ce-g3" kvg:element="貝" kvg:position="left"><g id="kvg:056ce-g4" kvg:element="目" kvg:position="top"><path id="kvg:056ce-s4" kvg:type="㇑" d="M39.28 17.4c.25 1.17.62 2.07.62 3.6s-.08 53.74.0 55.28"/><path id="kvg:056ce-s5" kvg:type="㇕a" d="M40.33 19.01c1.43-.06 12.33-2.53 13.64-2.63 1.09-.09 1.94 1.25 1.85 2.67-.12 1.79-.5 54.68-.5 55.83"/><path id="kvg:056ce-s6" kvg:type="㇐a" d="M40.3 36.66c2.04.19 12.12-1.97 14.42-1.75"/><path id="kvg:056ce-s7" kvg:type="㇐a" d="M40.42 54.28c2.84.27 10.45-1.31 14.13-.97"/><path id="kvg:056ce-s8" kvg:type="㇐a" d="M40.79 74.09c2.84.27 10.45-1.31 14.13-.97"/></g><g id="kvg:056ce-g5" kvg:element="八" kvg:position="bottom"><path id="kvg:056ce-s9" kvg:type="㇒" d="M43.23 81.66c.24 1.44.46 1.84.0 2.83-1.98 4.26-5.23 9.76-9.75 13.53"/><path id="kvg:056ce-s10" kvg:type="㇔" d="M51.47 80.36c3.29 4.1 7.17 11.38 8.07 14.82"/></g></g><g id="kvg:056ce-g6" kvg:element="曾" kvg:variant="true" kvg:original="曽" kvg:position="right"><g id="kvg:056ce-g7" kvg:position="top"><g id="kvg:056ce-g8" kvg:element="八"><g id="kvg:056ce-g9" kvg:position="left"><path id="kvg:056ce-s11" kvg:type="㇒" d="M72.13 16.5c.01.49.0 1.95-.27 2.48-1.63 3.14-6.35 9.18-11.11 12.52"/></g><g id="kvg:056ce-g10" kvg:position="right"><path id="kvg:056ce-s12" kvg:type="㇏" d="M80.29 14.5c.75.14 1.46.32 1.94.69 4.39 3.37 9.68 10.34 13.84 12.45 1.79.91 2.44 1.4 4.18 1.69"/></g></g><g id="kvg:056ce-g11" kvg:element="田" kvg:variant="true"><path id="kvg:056ce-s13" kvg:type="㇑" d="M62.16 35.21c.23.4.52 1.65.65 2.14 1.01 4.05 2.45 14.13 3.04 21.59"/><path id="kvg:056ce-s14" kvg:type="㇕" d="M63.23 36.79c8.96-1.16 23.88-2.64 31.09-2.83 2.21-.06 1.99 2.13 1.87 3.22-.44 3.98-1.93 12.41-3.31 19.2"/><path id="kvg:056ce-s15" kvg:type="㇑" d="M79.39 35.71c0 4.62-.15 12.14-.15 20"/><path id="kvg:056ce-s16" kvg:type="㇔" d="M69.06 41.77c1.62 1.61 4.17 6.49 4.58 8.87"/><path id="kvg:056ce-s17" kvg:type="㇒" d="M89.15 39.83c.09.35.0.76-.13 1.16-.79 2.38-3.07 7.68-5.38 10.13"/><path id="kvg:056ce-s18" kvg:type="㇐" d="M65.98 56.92c7.41-.49 18.98-1.85 26.97-1.98"/></g></g><g id="kvg:056ce-g12" kvg:element="日" kvg:position="bottom"><path id="kvg:056ce-s19" kvg:type="㇑" d="M66.69 66.91c.38.63 1.19 2.79 1.26 3.62.61 7.79 2.23 17.66 2.48 25.47"/><path id="kvg:056ce-s20" kvg:type="㇕a" d="M67.57 68.36c2.13-.1 21.18-2.18 23.12-2.3 1.62-.1 2.07 2.47 2.03 3.12-.25 3.8-2.59 17.24-3.47 25.96"/><path id="kvg:056ce-s21" kvg:type="㇐a" d="M69.25 79.51c2.89.0 17.83-1.94 21.09-1.94"/><path id="kvg:056ce-s22" kvg:type="㇐a" d="M70.7 93.51c5.72-.41 13.16-1.29 18.69-1.29"/></g></g></g></g></g></svg>