<!DOCTYPE svg PUBLIC "-//W3C//DTD SVG 1.0//EN" "http://www.w3.org/TR/2001/REC-SVG-20010904/DTD/svg10.dtd" [
<!ATTLIST g
xmlns:kvg CDATA #FIXED "http://kanjivg.tagaini.net"
kvg:element CDATA #IMPLIED
kvg:variant CDATA #IMPLIED
kvg:partial CDATA #IMPLIED
kvg:original CDATA #IMPLIED
kvg:part CDATA #IMPLIED
kvg:number CDATA #IMPLIED
kvg:tradForm CDATA #IMPLIED
kvg:radicalForm CDATA #IMPLIED
kvg:position CDATA #IMPLIED
kvg:radical CDATA #IMPLIED
kvg:phon CDATA #IMPLIED >
<!ATTLIST path
xmlns:kvg CDATA #FIXED "http://kanjivg.tagaini.net"
kvg:type CDATA #IMPLIED >
]><svg xmlns="http://www.w3.org/2000/svg" width="109" height="109" viewBox="0 0 109 109"><g id="kvg:StrokePaths_056db" style="fill:none;stroke:#000000;stroke-width:3;stroke-linecap:round;stroke-linejoin:round;"><g id="kvg:056db" kvg:element="四"><g id="kvg:056db-g1" kvg:element="囗" kvg:part="1" kvg:position="kamae" kvg:radical="general"><path id="kvg:056db-s1" kvg:type="㇑" d="M14.5 31.48c1.51 1.51 2.25 3.27 2.53 5.2 1.14 7.9 2.61 25.18 4.39 40.83.29 2.55.34 3.81.64 6.24"/><path id="kvg:056db-s2" kvg:type="㇕a" d="M17.85 34.04c21.65-1.92 51.52-3.92 67.82-4.3 4.85-.11 6.31 2.62 6.04 5.38-.9 9.02-4.17 28.29-6.41 39.62-.49 2.49-.94 4.6-1.3 6.13"/></g><g id="kvg:056db-g2" kvg:element="儿" kvg:original="八"><g id="kvg:056db-g3" kvg:element="丿"><path id="kvg:056db-s3" kvg:type="㇒" d="M40.5 36c.08.64.12 1.65-.16 2.57-2.22 7.3-5.1 14.55-13.35 22.68"/></g><path id="kvg:056db-s4" kvg:type="㇟a" d="M59.75 34.25c.8 1.05 1.44 2.29 1.49 3.92.11 3.62.05 7.05.05 9.89.0 6.94.71 7.54 9.47 7.54 4.99.0 8.86-.72 10.25-1.72"/></g><g id="kvg:056db-g4" kvg:element="囗" kvg:part="2" kvg:position="kamae" kvg:radical="general"><path id="kvg:056db-s5" kvg:type="㇐a" d="M22.73 79.32c13.77-.57 43.64-1.8 61.18-2.08"/></g></g></g><g id="kvg:StrokeNumbers_056db" style="font-size:8;fill:#808080"><text transform="matrix(1 0 0 1 8.75 40.63)">1</text><text transform="matrix(1 0 0 1 20.75 29.13)">2</text><text transform="matrix(1 0 0 1 31.25 41.63)">3</text><text transform="matrix(1 0 0 1 52.25 40.13)">4</text><text transform="matrix(1 0 0 1 27.25 75.63)">5</text></g></svg>