<svg xmlns="http://www.w3.org/2000/svg" width="109" height="109" viewBox="0 0 109 109"><g id="kvg:StrokePaths_056e3" style="fill:none;stroke:#000000;stroke-width:3;stroke-linecap:round;stroke-linejoin:round;"><g id="kvg:056e3" kvg:element="団"><g id="kvg:056e3-g1" kvg:element="囗" kvg:part="1" kvg:position="kamae" kvg:radical="general"><path id="kvg:056e3-s1" kvg:type="㇑" d="M17.5 17.32c.97.97 1.65 3.06 1.65 4.41.0 8.9.02 58.27.02 67.03.0 1.93-.09 4-.09 6.25"/><path id="kvg:056e3-s2" kvg:type="㇕a" d="M20.05 19.4c23.33-2.65 46.33-4.9 64.7-5.61C88.6 13.64 90 15.6 90 19.5c0 14.5.1 43.5.1 67 0 3.2-.12 6.62-.12 9.5"/></g><g id="kvg:056e3-g2" kvg:element="寸" kvg:phon="専/寸"><path id="kvg:056e3-s3" kvg:type="㇐" d="M28.89 43.81c1.74.32 4.4.28 6.49.06 10.47-1.13 27.39-4.02 38.5-4.81 2.03-.14 3.99-.24 6 .17"/><path id="kvg:056e3-s4" kvg:type="㇚" d="M62.37 24.33c.77.77 1.56 2.04 1.56 3.54.0 13.09.09 44.73.09 47.91.0 7.72-4.82 1.14-6.23.16"/><path id="kvg:056e3-s5" kvg:type="㇔" d="M39.07 54.03c3.56 2.97 7.56 8.72 9.25 13.31"/></g><g id="kvg:056e3-g3" kvg:element="囗" kvg:part="2" kvg:position="kamae" kvg:radical="general"><path id="kvg:056e3-s6" kvg:type="㇐a" d="M20.3 91.01c17.58-.89 50.27-1.85 68.69-2.26"/></g></g></g></svg>