<svg xmlns="http://www.w3.org/2000/svg" width="109" height="109" viewBox="0 0 109 109"><g id="kvg:StrokePaths_056fd"><g id="kvg:056fd" kvg:element="国"><g id="kvg:056fd-g1" kvg:element="囗" kvg:part="1" kvg:position="kamae" kvg:radical="general"><path id="kvg:056fd-s1" kvg:type="㇑" d="M19 16.82c1.09 1.09 1.61 2.51 1.61 4.41.0 14.65-.22 44.9-.22 71.53.0 1.95-.06 3.86-.09 5.75"/><path id="kvg:056fd-s2" kvg:type="㇕a" d="M21.52 18.67C41.38 16.75 74.03 13.5 85 13.5c3.38.0 5 1.85 5 5.25.0 15.36-.04 47.89-.08 70.62.0 1.68.0 3.31.0 4.88"/></g><g id="kvg:056fd-g2" kvg:element="玉" kvg:phon="或V"><g id="kvg:056fd-g3" kvg:element="王" kvg:original="玉" kvg:partial="true"><path id="kvg:056fd-s3" kvg:type="㇐" d="M35.12 33.88c1.32.28 4.2.44 5.51.28 10.47-1.29 20.62-2.54 28.62-3.13 2.02-.15 3.88-.19 5.56.04"/><path id="kvg:056fd-s4" kvg:type="㇑a" d="M52.8 34.89c.96.97 1.47 2.48 1.47 3.81.0 3.99-.13 24.74-.09 33.55"/><path id="kvg:056fd-s5" kvg:type="㇐" d="M37.58 52.16c1.79.22 3.41.14 5.36-.08 7.56-.83 17.56-1.99 25.38-2.8 1.25-.13 4.02-.15 5.89.17"/><path id="kvg:056fd-s6" kvg:type="㇐" d="M31.08 75.14c1.54.36 3.85.28 5.19.16 9.98-.92 25.85-2.67 37.03-3.54 2.15-.17 5.04-.18 6.12.13"/></g><g id="kvg:056fd-g4" kvg:element="丶"><path id="kvg:056fd-s7" kvg:type="㇔" d="M67.75 56.62c3 1.75 6.12 5.12 8 8.38"/></g></g><g id="kvg:056fd-g5" kvg:element="囗" kvg:part="2" kvg:position="kamae" kvg:radical="general"><path id="kvg:056fd-s8" kvg:type="㇐a" d="M21.5 93.01c14.25-.51 48.38-1.89 67-2.51"/></g></g></g></svg>