<!DOCTYPE svg PUBLIC "-//W3C//DTD SVG 1.0//EN" "http://www.w3.org/TR/2001/REC-SVG-20010904/DTD/svg10.dtd" [
<!ATTLIST g
xmlns:kvg CDATA #FIXED "http://kanjivg.tagaini.net"
kvg:element CDATA #IMPLIED
kvg:variant CDATA #IMPLIED
kvg:partial CDATA #IMPLIED
kvg:original CDATA #IMPLIED
kvg:part CDATA #IMPLIED
kvg:number CDATA #IMPLIED
kvg:tradForm CDATA #IMPLIED
kvg:radicalForm CDATA #IMPLIED
kvg:position CDATA #IMPLIED
kvg:radical CDATA #IMPLIED
kvg:phon CDATA #IMPLIED >
<!ATTLIST path
xmlns:kvg CDATA #FIXED "http://kanjivg.tagaini.net"
kvg:type CDATA #IMPLIED >
]><svg xmlns="http://www.w3.org/2000/svg" width="109" height="109" viewBox="0 0 109 109"><g id="kvg:StrokePaths_05709" style="fill:none;stroke:#000000;stroke-width:3;stroke-linecap:round;stroke-linejoin:round;"><g id="kvg:05709" kvg:element="圉"><g id="kvg:05709-g1" kvg:element="囗" kvg:part="1" kvg:position="kamae" kvg:radical="general"><path id="kvg:05709-s1" kvg:type="㇑" d="M18.75 15.82c.75 1.43 1.84 2.51 1.86 4.41.14 14.27.14 48.02-.31 75.27"/><path id="kvg:05709-s2" kvg:type="㇕a" d="M20.73 17.65C38.75 16 74.68 14.5 86.75 14.5c2.75.0 3.55 2.49 3.5 5.5-.25 15.75-1 50.25-.5 72.5"/></g><g id="kvg:05709-g2" kvg:element="幸"><g id="kvg:05709-g3" kvg:element="土" kvg:position="top"><path id="kvg:05709-s3" kvg:type="㇐" d="M35.53 30.22c.85.31 2.42.4 3.27.31 10.96-1.07 21.39-3.12 32.42-3.4 1.42-.04 2.27.15 2.99.31"/><path id="kvg:05709-s4" kvg:type="㇑a" d="M53.02 20.5c.1.23 1.49 1.21 1.49 2.69.0 9.63-.16 14.46-.16 16.88"/><path id="kvg:05709-s5" kvg:type="㇐" d="M29 41.85c1.34.43 3.8.5 5.14.43 14.11-.78 23.61-2.53 42.68-3.66 2.23-.13 3.57.21 4.69.42"/></g><g id="kvg:05709-g4" kvg:element="𢆉"><g id="kvg:05709-g5" kvg:element="䒑" kvg:part="1"><path id="kvg:05709-s6" kvg:type="㇔" d="M41.71 45.07c1.42 1.46 3.66 6.02 4.01 8.29"/><path id="kvg:05709-s7" kvg:type="㇒" d="M67.19 42.58c.02.22.03.57-.03.89-.37 1.87-2.52 5.99-5.45 8.5"/></g><g id="kvg:05709-g6" kvg:element="干" kvg:position="bottom"><g id="kvg:05709-g7" kvg:element="䒑" kvg:part="2"><path id="kvg:05709-s8" kvg:type="㇐" d="M29.25 57.06c.79.34 3.51.36 4.31.31 5.47-.4 32.69-3.02 42.02-3.68 1.31-.09 4.08.29 4.73.46"/></g><g id="kvg:05709-g8" kvg:element="十"><path id="kvg:05709-s9" kvg:type="㇐" d="M34.27 70.22c1.32.36 3.76.46 5.08.36 9.09-.68 22.18-3.37 32.64-3.62 2.21-.05 3.53.17 4.63.35"/><path id="kvg:05709-s10" kvg:type="㇑" d="M53.34 56.88c.45.41 1.41 2.24 1.5 3.05.09.81-.06 21.01-.15 26.07"/></g></g></g></g><g id="kvg:05709-g9" kvg:element="囗" kvg:part="2" kvg:position="kamae" kvg:radical="general"><path id="kvg:05709-s11" kvg:type="㇐a" d="M20.75 92.51c13.07.0 50.96-2.1 69-2.51"/></g></g></g><g id="kvg:StrokeNumbers_05709" style="font-size:8;fill:#808080"><text transform="matrix(1 0 0 1 14.50 25.50)">1</text><text transform="matrix(1 0 0 1 22.50 14.50)">2</text><text transform="matrix(1 0 0 1 28.50 29.48)">3</text><text transform="matrix(1 0 0 1 44.50 24.50)">4</text><text transform="matrix(1 0 0 1 27.25 39.33)">5</text><text transform="matrix(1 0 0 1 35.25 51.25)">6</text><text transform="matrix(1 0 0 1 58.50 48.50)">7</text><text transform="matrix(1 0 0 1 27.25 54.50)">8</text><text transform="matrix(1 0 0 1 27.50 71.50)">9</text><text transform="matrix(1 0 0 1 44.50 64.95)">10</text><text transform="matrix(1 0 0 1 24.50 89.50)">11</text></g></svg>