<svg xmlns="http://www.w3.org/2000/svg" width="109" height="109" viewBox="0 0 109 109"><g id="kvg:StrokePaths_05716" style="fill:none;stroke:#000000;stroke-width:3;stroke-linecap:round;stroke-linejoin:round;"><g id="kvg:05716" kvg:element="圖"><g id="kvg:05716-g1" kvg:element="囗" kvg:part="1" kvg:number="1" kvg:position="kamae" kvg:radical="general"><path id="kvg:05716-s1" kvg:type="㇑" d="M18.25 16.32c.75 1.43 1.34 2.51 1.36 4.41C19.75 35 19.75 69.75 19.3 97"/><path id="kvg:05716-s2" kvg:type="㇕a" d="M19.73 18.65C39.5 17.25 71.75 15 85.75 14.5c2.75-.1 3.55 2.49 3.5 5.5-.25 15.75-.5 52.25-.5 75"/></g><g id="kvg:05716-g2" kvg:element="口"><path id="kvg:05716-s3" kvg:type="㇑" d="M35.25 24.32c.31.24.62.45.75.75 1.06 2.42 1.84 8.59 2.56 12.93"/><path id="kvg:05716-s4" kvg:type="㇕b" d="M36.66 25.46C45 24.5 64.57 22.3 68.17 21.98c1.31-.12 2.1.69 1.91 1.37-.78 2.82-1.69 6.24-2.84 10.14"/><path id="kvg:05716-s5" kvg:type="㇐b" d="M39.21 36.38C43.43 36.02 62 34 69.55 33.35"/></g><g id="kvg:05716-g3" kvg:element="㐭"><g id="kvg:05716-g4" kvg:element="亠"><path id="kvg:05716-s6" kvg:type="㇑a" d="M51.83 35.5c.58.53 1.54 2.6 1.54 3.66.0 3.91-.18 3.23-.08 6.54"/><path id="kvg:05716-s7" kvg:type="㇐" d="M26.39 47.68c1.5.35 2.81.63 4.54.48 10.56-.92 34.24-3.74 46.2-4.44 1.76-.1 2.66.04 3.97.62"/></g><g id="kvg:05716-g5" kvg:element="回"><g id="kvg:05716-g6" kvg:element="囗" kvg:part="1" kvg:number="2"><path id="kvg:05716-s8" kvg:type="㇑" d="M32.51 56.13c.57.69.65 1.45.77 2.35.79 6.09 2.28 15.92 3.43 27.85"/><path id="kvg:05716-s9" kvg:type="㇕a" d="M34.19 58.17c10.19-1.23 32.94-3.78 39.76-4.3 1.55-.12 2.66 2.31 2.48 3.75-.85 6.86-2.48 17.23-4.18 26.53"/></g><g id="kvg:05716-g7" kvg:element="口"><path id="kvg:05716-s10" kvg:type="㇑" d="M44.1 65.27c.27.2.59.83.67 1.12.95 3.55 1.38 7.16 2.18 10.86"/><path id="kvg:05716-s11" kvg:type="㇕b" d="M45.79 66.57c5.55-1.32 14.58-2.85 17.76-3.26 1.16-.15 1.36 1.51 1.19 2.11-.69 2.45-1.99 4.92-3.01 8.32"/><path id="kvg:05716-s12" kvg:type="㇐b" d="M47.12 75.78c4.02-.7 9.38-1.53 16.16-1.79"/></g><g id="kvg:05716-g8" kvg:element="囗" kvg:part="2" kvg:number="2"><path id="kvg:05716-s13" kvg:type="㇐a" d="M36.69 84.62c10.37-1.12 22.82-2.12 35.22-2.54"/></g></g></g><g id="kvg:05716-g9" kvg:element="囗" kvg:part="2" kvg:number="1" kvg:position="kamae" kvg:radical="general"><path id="kvg:05716-s14" kvg:type="㇐a" d="M19.75 95.01c15.75-.76 50.96-3.1 69-3.51"/></g></g></g></svg>