<svg xmlns="http://www.w3.org/2000/svg" width="109" height="109" viewBox="0 0 109 109"><g id="kvg:StrokePaths_0572d"><g id="kvg:0572d" kvg:element="圭"><g id="kvg:0572d-g1" kvg:element="土" kvg:position="top" kvg:radical="general"><path id="kvg:0572d-s1" kvg:type="㇐" d="M32.38 29.43c2.04.79 5.05.39 7.13.19 9.15-.89 21.01-1.85 30.36-2.26 2.4-.11 4.89-.38 7.25.17"/><path id="kvg:0572d-s2" kvg:type="㇑a" d="M53.17 13.62c.92.92 1.27 2.02 1.27 3.89.0 12-.07 20.38-.07 29.12"/><path id="kvg:0572d-s3" kvg:type="㇐" d="M20.38 49.23c2.84 1.01 6.08.52 9 .29 16.33-1.29 34.75-2.59 49.87-3.27 3.46-.16 6.49-.15 9.88.58"/></g><g id="kvg:0572d-g2" kvg:element="土" kvg:position="bottom"><path id="kvg:0572d-s4" kvg:type="㇐" d="M31.88 70.43c1.99.77 4.96.41 7 .19 9.75-1 23.62-2.32 33.37-2.78 2.13-.1 4.28-.3 6.38.19"/><path id="kvg:0572d-s5" kvg:type="㇑a" d="M52.67 54.12c.98.98 1.27 2.27 1.27 4.14.0 12-.07 24.13-.07 30.87"/><path id="kvg:0572d-s6" kvg:type="㇐" d="M17.63 91.48c3.87 1.02 7.76.63 11.37.37C45.73 90.62 64.88 89 84 88.76c3.51-.04 6.92.07 10.38.81"/></g></g></g></svg>