<svg xmlns="http://www.w3.org/2000/svg" width="109" height="109" viewBox="0 0 109 109"><g id="kvg:StrokePaths_05728"><g id="kvg:05728" kvg:element="在"><g id="kvg:05728-g1" kvg:phon="才V"><path id="kvg:05728-s1" kvg:type="㇐" d="M20.5 35.15c2.88.72 5.21.5 7.88.25 11.68-1.09 38.58-3.88 50.74-4.87 2.44-.2 5.88-.04 7.88.34"/><g id="kvg:05728-g2" kvg:element="亻" kvg:variant="true" kvg:original="人"><path id="kvg:05728-s2" kvg:type="㇒" d="M53.89 12.68c.73 1.57.52 3.29.03 5.39C50.26 33.6 38.95 58.41 14.89 74.4"/><path id="kvg:05728-s3" kvg:type="㇑" d="M27.46 53.75c.77.77 1.32 2.12 1.32 3.43.0.55-.06 23.07-.06 35.33.0 2.83-.05 4.92-.08 5.74"/></g></g><g id="kvg:05728-g3" kvg:element="土" kvg:radical="general"><path id="kvg:05728-s4" kvg:type="㇐" d="M43.44 67.81c1.62.6 4.13.38 5.81.2 8.73-.94 22.01-2.56 30.75-3.1 1.83-.12 3.93-.03 5.74.37"/><path id="kvg:05728-s5" kvg:type="㇑a" d="M63.8 44.37c.98.98 2 2.69 2 4.45.0 11.34-.11 26.89-.11 41.89"/><path id="kvg:05728-s6" kvg:type="㇐" d="M37.24 92.9c3.01.47 5.55.53 8.13.32 11.8-.94 27.75-2.6 40.5-2.85 2.9-.06 5.78.04 8.64.63"/></g></g></g></svg>