<svg xmlns="http://www.w3.org/2000/svg" width="109" height="109" viewBox="0 0 109 109"><g id="kvg:StrokePaths_05726" style="fill:none;stroke:#000000;stroke-width:3;stroke-linecap:round;stroke-linejoin:round;"><g id="kvg:05726" kvg:element="圦"><g id="kvg:05726-g1" kvg:element="土" kvg:variant="true" kvg:position="left" kvg:radical="general"><path id="kvg:05726-s1" kvg:type="㇐" d="M11.5 47.64c.79.38 2.36.46 3.15.36 5.06-.66 19.06-3.39 24.68-4 1.32-.14 2.75-.18 3.41.01"/><path id="kvg:05726-s2" kvg:type="㇑a" d="M25.37 22c1.09.5 1.96 2.23 1.96 3.25.0 7.25.03 38.75.03 49.5"/><path id="kvg:05726-s3" kvg:type="㇀/㇐" d="M11.25 81.05c.97 1.2 2.9 1.83 5.79.26 8.05-4.38 16.41-8.44 24.46-12.81"/></g><g id="kvg:05726-g2" kvg:element="入" kvg:position="right"><path id="kvg:05726-s4" kvg:type="㇒" d="M68.21 41.93C62.89 58.36 49.06 81.6 38 90.89"/><path id="kvg:05726-s5" kvg:type="㇏" d="M59.1 14c1.26.0 3.11 1.47 3.49 3.18C68.5 43.75 75.25 71.5 91.6 88.36c1.49 1.54 3.04 2.83 4.15 3.39"/></g></g></g></svg>