<svg xmlns="http://www.w3.org/2000/svg" width="109" height="109" viewBox="0 0 109 109"><g id="kvg:StrokePaths_05737"><g id="kvg:05737" kvg:element="圷"><g id="kvg:05737-g1" kvg:element="土" kvg:variant="true" kvg:position="left" kvg:radical="general"><path id="kvg:05737-s1" kvg:type="㇐" d="M12.5 45.64c.76.38 2.74.46 3.5.36 4.82-.66 17.65-2.89 23-3.5 1.25-.14 2.62-.18 3.25.01"/><path id="kvg:05737-s2" kvg:type="㇑a" d="M25.87 19c1.09.5 1.96 2.23 1.96 3.25.0 7.25.03 38.75.03 49.5"/><path id="kvg:05737-s3" kvg:type="㇀/㇐" d="M12.5 78.79c.75.96 2.25 1.46 4.5.21 6.25-3.5 17.5-9.75 23.75-13.25"/></g><g id="kvg:05737-g2" kvg:element="下" kvg:position="right"><g id="kvg:05737-g3" kvg:element="一"><path id="kvg:05737-s4" kvg:type="㇐" d="M40 21.5c1.21.5 3.16.85 3.88.75C53.28 21 80.5 16.5 92.13 16c.86-.04 3.26.25 4.12.75"/></g><g id="kvg:05737-g4" kvg:element="卜" kvg:original="ト"><path id="kvg:05737-s5" kvg:type="㇑" d="M66.97 22.25c.93 1.07 1.06 2.8 1.06 4.8.0 10.53-.29 55.7-.29 68.95"/><path id="kvg:05737-s6" kvg:type="㇐" d="M70.66 41.42C76 43.75 84.25 52.25 86.78 57.12"/></g></g></g></g></svg>