<svg xmlns="http://www.w3.org/2000/svg" width="109" height="109" viewBox="0 0 109 109"><g id="kvg:StrokePaths_05740" style="fill:none;stroke:#000000;stroke-width:3;stroke-linecap:round;stroke-linejoin:round;"><g id="kvg:05740" kvg:element="址"><g id="kvg:05740-g1" kvg:element="土" kvg:variant="true" kvg:position="left" kvg:radical="general"><path id="kvg:05740-s1" kvg:type="㇐" d="M10.25 46.43c.8.52 2.37.54 3.18.5C20.25 46.5 30.5 44 36.81 42.61c1.31-.29 2.77-.25 3.44.01"/><path id="kvg:05740-s2" kvg:type="㇑a" d="M25.87 20.5c1.09.5 1.96 2.23 1.96 3.25.0 7.25.03 38.75.03 49.5"/><path id="kvg:05740-s3" kvg:type="㇀/㇐" d="M12 79.79c.75.96 2.25 1.46 4.5.21 6.25-3.5 17.5-9.75 23.75-13.25"/></g><g id="kvg:05740-g2" kvg:element="止" kvg:position="right"><g id="kvg:05740-g3" kvg:element="卜" kvg:original="ト"><path id="kvg:05740-s4" kvg:type="㇑a" d="M68.75 16c.84.53 1.35 2.39 1.52 3.46.17 1.06.0 64.67-.17 71.32"/><path id="kvg:05740-s5" kvg:type="㇐b" d="M70.19 50.63c5.51-.8 13.84-1.89 19.25-2.69 1.34-.2 1.68-.27 2.53.0"/></g><path id="kvg:05740-s6" kvg:type="㇑a" d="M49.71 50.24c.84.53 1.85 2.39 2.02 3.46.17 1.06 2 31.77 1.83 38.41"/><path id="kvg:05740-s7" kvg:type="㇐" d="M36.75 92.7c.64.27 2.34.9 4.03.8 9.14-.53 39.73-3.82 51.35-3.82 1.7.0 4.65.53 5.62.8"/></g></g></g></svg>