<!DOCTYPE svg PUBLIC "-//W3C//DTD SVG 1.0//EN" "http://www.w3.org/TR/2001/REC-SVG-20010904/DTD/svg10.dtd" [
<!ATTLIST g
xmlns:kvg CDATA #FIXED "http://kanjivg.tagaini.net"
kvg:element CDATA #IMPLIED
kvg:variant CDATA #IMPLIED
kvg:partial CDATA #IMPLIED
kvg:original CDATA #IMPLIED
kvg:part CDATA #IMPLIED
kvg:number CDATA #IMPLIED
kvg:tradForm CDATA #IMPLIED
kvg:radicalForm CDATA #IMPLIED
kvg:position CDATA #IMPLIED
kvg:radical CDATA #IMPLIED
kvg:phon CDATA #IMPLIED >
<!ATTLIST path
xmlns:kvg CDATA #FIXED "http://kanjivg.tagaini.net"
kvg:type CDATA #IMPLIED >
]><svg xmlns="http://www.w3.org/2000/svg" width="109" height="109" viewBox="0 0 109 109"><g id="kvg:StrokePaths_0574a" style="fill:none;stroke:#000000;stroke-width:3;stroke-linecap:round;stroke-linejoin:round;"><g id="kvg:0574a" kvg:element="坊"><g id="kvg:0574a-g1" kvg:element="土" kvg:variant="true" kvg:position="left" kvg:radical="general"><path id="kvg:0574a-s1" kvg:type="㇐" d="M13.5 41.39c.76.38 2.24.46 3 .36.78-.11 1.71-.01 2.74-.18 5.3-.91 11.51-2.32 17.51-3.57 1.24-.26 2.62-.43 3.25-.24"/><path id="kvg:0574a-s2" kvg:type="㇑a" d="M26.87 19c.88 1.25 1.21 2.5 1.21 4 0 7.25.03 32.75.03 43.5"/><path id="kvg:0574a-s3" kvg:type="㇀/㇐" d="M13.75 74.19c1.25 1.18 2.62 1.31 4.67-.02 6.09-3.96 15.45-10.29 22.33-14.92"/></g><g id="kvg:0574a-g2" kvg:element="方" kvg:position="right" kvg:phon="方"><g id="kvg:0574a-g3" kvg:element="亠" kvg:position="top"><path id="kvg:0574a-s4" kvg:type="㇑a" d="M68.8 13c1.16 1.16 1.59 2.38 1.59 4.29.0 4.86.11 9.33.11 12.75"/><path id="kvg:0574a-s5" kvg:type="㇐" d="M46.38 33.14c2.98.66 6.1.47 9.12.03 10.85-1.6 22.51-3.04 35.01-4.42 2.83-.31 5.43-.6 8.12.41"/></g><g id="kvg:0574a-g4" kvg:position="bottom"><path id="kvg:0574a-s6" kvg:type="㇆a" d="M66.86 45.58c5.77 2.3 11.77 4.67 18.09 6.09 3.11.7 4.55 1.92 3.75 5.1-2 7.88-10.89 28.74-14.78 33.94-4.4 5.88-7.17.8-8.66-1.02"/><path id="kvg:0574a-s7" kvg:type="㇒" d="M68.06 35c.45 1.43.42 3.05-.17 4.64-4.51 12.11-14.01 31.48-31.21 44.19"/></g></g></g></g><g id="kvg:StrokeNumbers_0574a" style="font-size:8;fill:#808080"><text transform="matrix(1 0 0 1 7.50 42.50)">1</text><text transform="matrix(1 0 0 1 15.75 19.63)">2</text><text transform="matrix(1 0 0 1 6.50 79.50)">3</text><text transform="matrix(1 0 0 1 60.50 14.50)">4</text><text transform="matrix(1 0 0 1 43.50 30.50)">5</text><text transform="matrix(1 0 0 1 73.50 45.50)">6</text><text transform="matrix(1 0 0 1 60.50 42.50)">7</text></g></svg>