<svg xmlns="http://www.w3.org/2000/svg" width="109" height="109" viewBox="0 0 109 109"><g id="kvg:StrokePaths_05751" style="fill:none;stroke:#000000;stroke-width:3;stroke-linecap:round;stroke-linejoin:round;"><g id="kvg:05751" kvg:element="坑"><g id="kvg:05751-g1" kvg:element="土" kvg:variant="true" kvg:position="left" kvg:radical="general"><path id="kvg:05751-s1" kvg:type="㇐" d="M14.5 46.89c1.88.36 3.61.18 5.14-.05 5.75-.86 12.37-2.55 18.11-3.84 1.23-.28 2.5-.25 3.12-.25"/><path id="kvg:05751-s2" kvg:type="㇑a" d="M28.87 23.75c1 1 1.21 2.12 1.21 3.75.0 7.25.03 31.25.03 42"/><path id="kvg:05751-s3" kvg:type="㇀/㇐" d="M14.24 79.65c.82.77 2.11.7 3.89-.6C24.21 74.61 34.92 66.94 41 62.5"/></g><g id="kvg:05751-g2" kvg:element="亢" kvg:position="right" kvg:phon="亢"><g id="kvg:05751-g3" kvg:element="亠" kvg:position="top"><path id="kvg:05751-s4" kvg:type="㇑a" d="M63.68 15.25c1.29 1.29 1.51 2.5 1.51 4.35.0 4.12-.06 5.9-.06 9.65"/><path id="kvg:05751-s5" kvg:type="㇐" d="M43.46 32.51c3.04.37 4.84.36 7.81-.04 8.5-1.15 22.05-3.44 31.75-4.09 2.06-.14 4.08-.32 6.05.41"/></g><g id="kvg:05751-g4" kvg:element="几" kvg:position="bottom"><g id="kvg:05751-g5" kvg:element="丿"><path id="kvg:05751-s6" kvg:type="㇒" d="M54.2 46.38c.83.83 1.04 1.86 1.05 3.61.25 26.76-4.5 36.76-19.36 45.26"/></g><path id="kvg:05751-s7" kvg:type="㇈b" d="M56.25 48.38c5.92-1.31 10.02-2.27 15.24-3.21 3.18-.57 4.73.29 4.5 3.58C75.5 56 75.55 78.82 75.55 83.4c0 8.23 2.58 10.35 8.87 10.35 8.58.0 9.55-1.43 9.83-8.19"/></g></g></g></g></svg>