<svg xmlns="http://www.w3.org/2000/svg" width="109" height="109" viewBox="0 0 109 109"><g id="kvg:StrokePaths_05793"><g id="kvg:05793" kvg:element="垓"><g id="kvg:05793-g1" kvg:element="土" kvg:variant="true" kvg:position="left" kvg:radical="general"><path id="kvg:05793-s1" kvg:type="㇐" d="M12 42.14c.76.38 2.24.39 3 .36 6.5-.25 18.15-2.89 23.5-3.5 1.25-.14 2.62-.18 3.25.01"/><path id="kvg:05793-s2" kvg:type="㇑a" d="M25.87 15c1.09.5 1.96 2.23 1.96 3.25.0 7.25.03 40.75.03 51.5"/><path id="kvg:05793-s3" kvg:type="㇀/㇐" d="M12 75.16c.76.84 2.29 1.28 4.58.18 6.36-3.06 17.81-8.53 24.17-11.59"/></g><g id="kvg:05793-g2" kvg:element="亥" kvg:position="right"><g id="kvg:05793-g3" kvg:element="亠" kvg:position="top"><path id="kvg:05793-s4" kvg:type="㇑a" d="M66.01 11.24c1.08.58 2.85 2.83 2.85 3.98.0 4.26-.34 7.47-.14 11.08"/><path id="kvg:05793-s5" kvg:type="㇐" d="M42.5 28.36c1.01.08 3.3.57 4.28.46 7.9-.96 34.97-3.82 46.23-4.48 1.66-.1 2.5.04 3.74.58"/></g><path id="kvg:05793-s6" kvg:type="㇜" d="M63.98 29.37c.48 1.23.23 2.61-.74 3.97-3.48 4.91-6.73 9.91-11.8 15.94-.74.88-.45 2.83.5 3.07 5.06 1.23 12.1 1.77 16.43 4.02"/><path id="kvg:05793-s7" kvg:type="㇒" d="M82.02 35.5c.09.9.4 2.65-.17 3.59C74.36 51.34 60.25 67.5 43.25 78"/><g id="kvg:05793-g4" kvg:element="人" kvg:position="bottom"><path id="kvg:05793-s8" kvg:type="㇒" d="M86.99 54c.11.99-.12 2.86-.71 3.97C78.75 72 65.75 86.75 46 96.5"/><path id="kvg:05793-s9" kvg:type="㇔/㇏" d="M76.02 74.83C83.16 78.39 94.46 89.46 96.25 95"/></g></g></g></g></svg>