<svg xmlns="http://www.w3.org/2000/svg" width="109" height="109" viewBox="0 0 109 109"><g id="kvg:StrokePaths_057a4" style="fill:none;stroke:#000000;stroke-width:3;stroke-linecap:round;stroke-linejoin:round;"><g id="kvg:057a4" kvg:element="垤"><g id="kvg:057a4-g1" kvg:element="土" kvg:variant="true" kvg:position="left" kvg:radical="general"><path id="kvg:057a4-s1" kvg:type="㇐" d="M11 43.21c.74.33 2.21.41 2.95.32 4.74-.58 17.84-2.53 23.1-3.06 1.23-.13 2.58-.16 3.2.01"/><path id="kvg:057a4-s2" kvg:type="㇑a" d="M25.34 17c1.12.51 2.01 2.29 2.01 3.34.0 7.46.03 39.85.03 50.91"/><path id="kvg:057a4-s3" kvg:type="㇀/㇐" d="M12 77.33c.75.92 2.25 1.41 4.5.2 6.25-3.38 17.5-9.4 23.75-12.78"/></g><g id="kvg:057a4-g2" kvg:element="至" kvg:position="right"><path id="kvg:057a4-s4" kvg:type="㇐" d="M43.25 19.7c.93.36 2.63.42 3.56.36 12.75-.96 26.47-3.83 42.01-4.27 1.55-.04 2.47.17 3.25.35"/><g id="kvg:057a4-g3" kvg:element="厶"><path id="kvg:057a4-s5" kvg:type="㇜" d="M64.21 20.65c.46.55.13 2.79-.22 3.44C59.92 31.56 54.62 36.87 49 44.07c-1.81 2.32-1.94 3.89.97 3.2 6.79-1.6 24.69-6.87 35.39-9.51"/><path id="kvg:057a4-s6" kvg:type="㇔" d="M76.81 27.66c5.14 3.5 13.27 14.4 14.55 19.85"/></g><g id="kvg:057a4-g4" kvg:element="土"><path id="kvg:057a4-s7" kvg:type="㇐" d="M46.21 69.62C47.1 70 48.74 70.09 49.63 70c9.2-.94 29.21-3.23 37.58-3.23 1.49.0 2.38.18 3.12.37"/><path id="kvg:057a4-s8" kvg:type="㇑a" d="M67.11 50.06c.09.25 1.4 1.29 1.37 2.87-.15 9.02-.07 34.27-.07 36.84"/><path id="kvg:057a4-s9" kvg:type="㇐" d="M38.88 91.33c1.18.46 3.34.54 4.52.46 14.36-1.04 29.05-2.27 51.61-2.39 1.96-.01 3.14.22 4.12.45"/></g></g></g></g></svg>