<svg xmlns="http://www.w3.org/2000/svg" width="109" height="109" viewBox="0 0 109 109"><g id="kvg:StrokePaths_057a2"><g id="kvg:057a2" kvg:element="垢"><g id="kvg:057a2-g1" kvg:element="土" kvg:variant="true" kvg:position="left" kvg:radical="general"><path id="kvg:057a2-s1" kvg:type="㇐" d="M11.5 47.39c2.07.42 4.16.49 6.26.22 5.85-.86 14.46-2.79 18.62-3.59 1.61-.31 3.23-.48 4.87-.51"/><path id="kvg:057a2-s2" kvg:type="㇑a" d="M27.37 16.5c1.19 1.19 1.21 2.5 1.21 3.75.0 1.02.03 48.5.03 55.25"/><path id="kvg:057a2-s3" kvg:type="㇀/㇐" d="M13 83.75c1.12.87 2.35.84 4.2-.29 6.92-4.22 14.17-8.84 21.3-13.72"/></g><g id="kvg:057a2-g2" kvg:element="后" kvg:position="right"><g id="kvg:057a2-g3" kvg:position="kamae"><g id="kvg:057a2-g4" kvg:element="厂" kvg:variant="true"><g id="kvg:057a2-g5" kvg:element="丿"><path id="kvg:057a2-s4" kvg:type="㇒" d="M81.99 13.64c-.18 1.08-.62 2.04-1.3 2.88-5.18 4.6-11.47 8.4-25.06 14.1"/></g><path id="kvg:057a2-s5" kvg:type="㇒" d="M51.64 30.75c.99.99 1.13 2.36 1.09 3.33-1.35 29.42-6.1 45.3-19.98 56.67"/></g><path id="kvg:057a2-s6" kvg:type="㇐" d="M55.18 47.65c2.57.35 4.63-.12 7.18-.4 7.41-.81 18.16-3.25 25.04-4.28 2.3-.34 5.58-1.27 7.86-.6"/></g><g id="kvg:057a2-g6" kvg:element="口"><path id="kvg:057a2-s7" kvg:type="㇑" d="M55.19 68.35c1.08 1.11 1.35 2.43 1.56 3.92.83 5.85 1.54 11.24 2.17 16.47.27 2.26.53 4.49.78 6.72"/><path id="kvg:057a2-s8" kvg:type="㇕b" d="M57.07 70.26c8.37-1.07 19.43-2.39 28.21-3.09 3.07-.25 6.24.17 5.33 3.95-1.99 8.25-2.43 10.53-4.49 19.38"/><path id="kvg:057a2-s9" kvg:type="㇐b" d="M60.62 93.5c5.35-.48 14.63-1.1 22-1.59 2.28-.15 4.37-.29 6.11-.41"/></g></g></g></g></svg>