<svg xmlns="http://www.w3.org/2000/svg" width="109" height="109" viewBox="0 0 109 109"><g id="kvg:StrokePaths_057b0"><g id="kvg:057b0" kvg:element="垰"><g id="kvg:057b0-g1" kvg:element="土" kvg:variant="true" kvg:position="left" kvg:radical="general"><path id="kvg:057b0-s1" kvg:type="㇐" d="M11 43.14c.76.38 2.24.45 3 .36 6.5-.75 15-1.75 22-3 1.24-.22 2.62-.18 3.25.01"/><path id="kvg:057b0-s2" kvg:type="㇑a" d="M25.37 17c1.09.5 1.96 2.23 1.96 3.25.0 7.25.03 38.75.03 49.5"/><path id="kvg:057b0-s3" kvg:type="㇀/㇐" d="M11.5 76.79c.75.96 2.25 1.46 4.5.21 6.25-3.5 17.5-9.75 23.75-13.25"/></g><g id="kvg:057b0-g2" kvg:position="right"><g id="kvg:057b0-g3" kvg:element="上" kvg:position="top"><g id="kvg:057b0-g4" kvg:element="卜" kvg:original="ト"><path id="kvg:057b0-s4" kvg:type="㇑" d="M65.84 10.38c.57.36 1.76 2.72 1.87 3.44.11.73-.07 21.21-.19 25.75"/><path id="kvg:057b0-s5" kvg:type="㇐/㇔" d="M67.7 25.53c2.05-.19 19.37-3.24 20.49-3.24s2.63.0 3.54.19"/></g><g id="kvg:057b0-g5" kvg:element="一"><path id="kvg:057b0-s6" kvg:type="㇐" d="M45.61 41.94c1.1.31 3.12.38 4.21.31 9.56-.66 25.39-2.84 41.83-3.81 1.83-.11 2.93.14 3.85.3"/></g></g><g id="kvg:057b0-g6" kvg:element="下" kvg:position="bottom"><g id="kvg:057b0-g7" kvg:element="一"><path id="kvg:057b0-s7" kvg:type="㇐" d="M42.75 57.71c.72.23 3.65.5 4.89.39 16.16-1.48 31.57-2.76 44.32-3.95 1.48-.14 3.56.3 5.04.89"/></g><g id="kvg:057b0-g8" kvg:element="卜" kvg:original="ト"><path id="kvg:057b0-s8" kvg:type="㇑" d="M66.47 59.25c.93 1.07 1.06 2.8 1.06 4.8.0 10.53-.29 21.7-.29 34.95"/><path id="kvg:057b0-s9" kvg:type="㇐" d="M70.08 66.17C77 69 85.75 74.75 90.5 80.62"/></g></g></g></g></g></svg>