<svg xmlns="http://www.w3.org/2000/svg" width="109" height="109" viewBox="0 0 109 109"><g id="kvg:StrokePaths_057cb"><g id="kvg:057cb" kvg:element="埋"><g id="kvg:057cb-g1" kvg:element="土" kvg:variant="true" kvg:position="left" kvg:radical="general"><path id="kvg:057cb-s1" kvg:type="㇐" d="M12 42.64c1.64.83 4.45.65 6.15.35 5.4-.96 13.94-2.72 18.85-3.74 1.24-.26 2.62-.43 3.25-.24"/><path id="kvg:057cb-s2" kvg:type="㇑a" d="M26.12 19.25c1.13 1.13 1.46 2.5 1.46 4 0 7.25.03 32.75.03 43.5"/><path id="kvg:057cb-s3" kvg:type="㇀/㇐" d="M11.25 74.54c.75.96 2.25 1.21 4.5-.04 6.25-3.5 18.75-9.75 25-13.25"/></g><g id="kvg:057cb-g2" kvg:element="里" kvg:position="right" kvg:phon="里"><g id="kvg:057cb-g3" kvg:element="日"><path id="kvg:057cb-s4" kvg:type="㇑" d="M46.04 19.75c.98.98 1.38 1.99 1.64 3.36 1.33 7.14 2.98 16.97 3.85 26.14.14 1.5.27 2.96.38 4.37"/><path id="kvg:057cb-s5" kvg:type="㇕a" d="M48.01 21.04c12.06-1.97 27.44-3.6 37.26-4.68 4.67-.51 7.48-.36 6.86 4.89-.69 5.87-2.43 16.16-3.62 24.5-.25 1.8-.5 3-.71 4.55"/><path id="kvg:057cb-s6" kvg:type="㇐a" d="M51.05 35.24c3.58-.58 31.95-3.37 38.44-3.56"/><path id="kvg:057cb-s7" kvg:type="㇐a" d="M52.97 50.89c9.53-.89 20.15-2.14 34.07-2.92"/></g><path id="kvg:057cb-s8" kvg:type="㇑a" d="M68.08 21.38c1.15 1.15 1.6 2.62 1.6 4.36.0 12.9-.05 57.85-.05 62.51"/><path id="kvg:057cb-s9" kvg:type="㇐" d="M49.97 70.42c2.78.58 4.9.29 7.17-.05 8.7-1.31 20.46-3.11 29.24-3.58 1.99-.11 4.41-.04 6.34.51"/><path id="kvg:057cb-s10" kvg:type="㇐" d="M39.13 90.98c3 1.25 6.38.71 9.51.45 12.35-1.03 28.35-3.27 41.99-3.59 2.96-.07 5.62.01 8.5.74"/></g></g></g></svg>