<svg xmlns="http://www.w3.org/2000/svg" width="109" height="109" viewBox="0 0 109 109"><g id="kvg:StrokePaths_057c0" style="fill:none;stroke:#000000;stroke-width:3;stroke-linecap:round;stroke-linejoin:round;"><g id="kvg:057c0" kvg:element="埀"><g id="kvg:057c0-g1" kvg:element="乖" kvg:part="1"><g id="kvg:057c0-g2" kvg:element="千" kvg:part="1"><g id="kvg:057c0-g3" kvg:element="丿" kvg:position="top"><path id="kvg:057c0-s1" kvg:type="㇒" d="M75.63 13.42c.12.33-.96 2.09-1.66 2.45-5.34 2.73-18.91 7.24-42.58 11.04"/></g><g id="kvg:057c0-g4" kvg:element="十" kvg:part="1" kvg:position="bottom"><path id="kvg:057c0-s2" kvg:type="㇐" d="M16.13 36.83c1.52.47 5.31.58 6.82.47 17.55-1.3 36.3-5.3 65.61-6 2.53-.06 4.05.22 5.31.46"/></g></g><g id="kvg:057c0-g5" kvg:element="北"><g id="kvg:057c0-g6" kvg:position="left"><path id="kvg:057c0-s3" kvg:type="㇐" d="M19.5 51.53c1.61.29 2.01.44 3.63.44 1.61.0 11.62-2.47 14.41-2.86"/><path id="kvg:057c0-s4" kvg:type="㇑" d="M38.93 41.44c.81.69 1.49 2.49 1.49 2.95s.14 13.79.14 15.05"/><path id="kvg:057c0-s5" kvg:type="㇀" d="M20.76 67.05c2.09 1.33 3.19.9 4.73.24 9.24-3.98 14.2-5.67 19.08-7.88"/></g><g id="kvg:057c0-g7" kvg:element="匕" kvg:position="right"><path id="kvg:057c0-s6" kvg:type="㇒" d="M86.32 39.08c.13.18.19.7-.12 1-2.97 2.93-10.29 7.23-16.71 8.76"/><path id="kvg:057c0-s7" kvg:type="㇟" d="M66.72 38.5c.51.59 1.2 1.75 1.2 2.94.0.8.17 12.77.17 15.2.0 6.23 6.64 5.64 12.04 5.64 2.74.0 8.11-.12 9.82-1.89 1.71-1.78 1.88-4.34 2.05-6.12"/></g></g></g><g id="kvg:057c0-g8" kvg:element="土" kvg:part="1" kvg:radical="general"><path id="kvg:057c0-s8" kvg:type="㇐" d="M30.25 78.39c.94.38 2.66.45 3.6.38 7.4-.52 37.32-4.33 43.11-3.88 1.56.12 2.5.18 3.29.37"/></g><g id="kvg:057c0-g9" kvg:element="乖" kvg:part="2"><g id="kvg:057c0-g10" kvg:element="土" kvg:part="2" kvg:radical="general"><g id="kvg:057c0-g11" kvg:element="千" kvg:part="2"><g id="kvg:057c0-g12" kvg:element="十" kvg:part="2" kvg:position="bottom"><path id="kvg:057c0-s9" kvg:type="㇑" d="M52.6 24.75c.72.5 1.3 2.21 1.44 3.2.15.99-.09 59.36-.24 65.55"/></g></g></g></g><g id="kvg:057c0-g13" kvg:element="土" kvg:part="3" kvg:radical="general"><path id="kvg:057c0-s10" kvg:type="㇐" d="M19.25 95.7c1.52.54 4.3.64 5.82.54C40.5 95.25 71 92.75 87.19 93.01c2.53.04 4.05.26 5.31.53"/></g></g></g></svg>