<svg xmlns="http://www.w3.org/2000/svg" width="109" height="109" viewBox="0 0 109 109"><g id="kvg:StrokePaths_057d2" style="fill:none;stroke:#000000;stroke-width:3;stroke-linecap:round;stroke-linejoin:round;"><g id="kvg:057d2" kvg:element="埒"><g id="kvg:057d2-g1" kvg:element="土" kvg:variant="true" kvg:position="left" kvg:radical="general"><path id="kvg:057d2-s1" kvg:type="㇐" d="M10.25 43.64C11.07 44.02 12.67 44 13.5 44c5.5.0 15.75-2.5 21.73-3.5 1.35-.23 2.84-.18 3.52.01"/><path id="kvg:057d2-s2" kvg:type="㇑a" d="M23.87 16.5c1.09.5 1.96 2.23 1.96 3.25.0 8.25.03 41.75.03 51.5"/><path id="kvg:057d2-s3" kvg:type="㇀/㇐" d="M11.5 79.61c.69 1.14 3.07 1.25 5.14-.25C22.39 75.17 31.75 68.19 37.5 64"/></g><g id="kvg:057d2-g2" kvg:position="right"><g id="kvg:057d2-g3" kvg:element="⺤" kvg:variant="true" kvg:original="爪" kvg:position="top"><path id="kvg:057d2-s4" kvg:type="㇒" d="M84.96 11.89c.1.29.2.75-.19 1.17-2.34 2.46-15.8 7.85-34.21 11.16"/><path id="kvg:057d2-s5" kvg:type="㇒" d="M50.53 29.14c.03.49.06 1.27-.06 1.97-.68 4.15-4.58 13.27-9.91 18.85"/><path id="kvg:057d2-s6" kvg:type="㇔" d="M64.77 29.08c2.22 2.32 5.74 9.53 6.29 13.13"/><path id="kvg:057d2-s7" kvg:type="㇔" d="M82.77 26.08c4.78 2.85 12.35 11.71 13.54 16.13"/></g><g id="kvg:057d2-g4" kvg:element="寸" kvg:position="bottom"><path id="kvg:057d2-s8" kvg:type="㇐" d="M44.38 64.4c1.04.56 2.93.68 3.97.56 12.9-1.46 33.5-4.37 46.15-5.23 1.72-.12 2.76.27 3.63.55"/><path id="kvg:057d2-s9" kvg:type="㇚" d="M81.86 48.83c.08.34 1.08 1.76 1.08 3.91.0 14.44-.22 36.4-.22 39.91.0 10.1-6.43 1.26-8.3.18"/><path id="kvg:057d2-s10" kvg:type="㇔" d="M56.06 73.25c3.37 1.96 8.71 8.04 9.55 11.08"/></g></g></g></g></svg>