<svg xmlns="http://www.w3.org/2000/svg" width="109" height="109" viewBox="0 0 109 109"><g id="kvg:StrokePaths_057dc"><g id="kvg:057dc" kvg:element="埜"><g id="kvg:057dc-g1" kvg:element="林" kvg:position="top"><g id="kvg:057dc-g2" kvg:element="木" kvg:variant="true" kvg:position="left"><path id="kvg:057dc-s1" kvg:type="㇐" d="M15.16 30.6c.7.17 2.82.65 4.69.5 6.56-.52 17.33-2.38 24.36-2.72 1.87-.09 2.28-.02 3.45.16"/><path id="kvg:057dc-s2" kvg:type="㇑" d="M32.57 13.38c.68.62 1.61 2.01 1.61 2.74.0 8.14.0 43.14-.23 47.45"/><path id="kvg:057dc-s3" kvg:type="㇒" d="M33.74 30.47c-3.67 7.58-14.61 20.3-22.25 24.59"/><path id="kvg:057dc-s4" kvg:type="㇔/㇏" d="M36.36 35.04c2.84 2 6.38 5.7 8.86 8.84"/></g><g id="kvg:057dc-g3" kvg:element="木" kvg:position="right"><path id="kvg:057dc-s5" kvg:type="㇐" d="M56.02 29.35c.57.17 1.33.45 2.85.52 4.18.17 18.73-1.71 29.19-2.57 1.52-.12 2.84-.17 3.79.0"/><path id="kvg:057dc-s6" kvg:type="㇑" d="M70.06 12c1.17.34 2.11 2.51 2.11 3.24.0 5.51.0 42.21-.23 46.51"/><path id="kvg:057dc-s7" kvg:type="㇒" d="M71.99 29.15c-4.02 8.43-16.53 20.17-25.85 24.49"/><path id="kvg:057dc-s8" kvg:type="㇏" d="M71.62 28.45c6.15 7.92 15.99 18.08 20.98 21.2 1.42.89 2.22 1.5 3.41 1.81"/></g></g><g id="kvg:057dc-g4" kvg:element="土" kvg:position="bottom" kvg:radical="general"><path id="kvg:057dc-s9" kvg:type="㇐" d="M29.24 77.67c.9.32 2.56.41 3.46.32 11.59-1.1 31.3-3.42 42.97-3.71 1.5-.04 2.41.15 3.16.31"/><path id="kvg:057dc-s10" kvg:type="㇑a" d="M53.05 59.3c.1.25 1.5 1.29 1.5 2.86.0 10.14-.3 18.93-.3 32.34"/><path id="kvg:057dc-s11" kvg:type="㇐" d="M17.73 96.23c1.39.26 3.93.32 5.31.26 17.15-.72 49.54-1.87 64.88-2.21 2.31-.05 3.69.12 4.85.25"/></g></g></g></svg>