<svg xmlns="http://www.w3.org/2000/svg" width="109" height="109" viewBox="0 0 109 109"><g id="kvg:StrokePaths_057d3" style="fill:none;stroke:#000000;stroke-width:3;stroke-linecap:round;stroke-linejoin:round;"><g id="kvg:057d3" kvg:element="埓"><g id="kvg:057d3-g1" kvg:element="土" kvg:variant="true" kvg:position="left" kvg:radical="general"><path id="kvg:057d3-s1" kvg:type="㇐" d="M11.5 43.14c.76.38 2.24.43 3 .36 5.75-.5 16.15-2.39 21.5-3 1.25-.14 2.62-.18 3.25.01"/><path id="kvg:057d3-s2" kvg:type="㇑a" d="M25.3 15c1.16.53 2.09 2.37 2.09 3.47.0 7.73.03 41.32.03 52.78"/><path id="kvg:057d3-s3" kvg:type="㇀/㇐" d="M12.5 80.11c.68 1.14 2.05 1.75 4.1.25 5.7-4.19 15.95-11.67 21.65-15.85"/></g><g id="kvg:057d3-g2" kvg:position="right"><g id="kvg:057d3-g3" kvg:element="⺤" kvg:variant="true" kvg:original="月" kvg:position="top"><path id="kvg:057d3-s4" kvg:type="㇒" d="M77.28 11.5c.08.45-.19 1.81-.66 2.33-5.87 6.41-14.06 11.8-29.37 16.97"/><path id="kvg:057d3-s5" kvg:type="㇔" d="M49.77 35.58c3.1 1.57 8.02 6.45 8.79 8.88"/><path id="kvg:057d3-s6" kvg:type="㇔" d="M65.52 27.33c3.1 1.57 8.02 6.45 8.79 8.88"/><path id="kvg:057d3-s7" kvg:type="㇒" d="M91.02 25.5c.11.65-.24 2.58-.85 3.32-7.58 9.15-18.15 16.84-37.92 24.22"/></g><g id="kvg:057d3-g4" kvg:element="寸" kvg:position="bottom"><path id="kvg:057d3-s8" kvg:type="㇐" d="M45.38 65.35c1.22.61 3.44.74 4.66.61 13.21-1.46 29.47-4.16 44.33-5.09 2.02-.12 3.24.29 4.26.59"/><path id="kvg:057d3-s9" kvg:type="㇚" d="M82.58 44.83c.05.29 1.28 2.02 1.28 3.88.0 12.5-.16 40.95-.16 43.99.0 7.37-4.69 1.09-6.05.15"/><path id="kvg:057d3-s10" kvg:type="㇔" d="M57.63 73.9c2.93 1.68 7.57 6.91 8.3 9.53"/></g></g></g></g></svg>