<svg xmlns="http://www.w3.org/2000/svg" width="109" height="109" viewBox="0 0 109 109"><g id="kvg:StrokePaths_057d4" style="fill:none;stroke:#000000;stroke-width:3;stroke-linecap:round;stroke-linejoin:round;"><g id="kvg:057d4" kvg:element="埔"><g id="kvg:057d4-g1" kvg:element="土" kvg:variant="true" kvg:position="left" kvg:radical="general"><path id="kvg:057d4-s1" kvg:type="㇐" d="M11 44.14c.76.38 2.24.46 3 .36 4.82-.66 16.65-2.39 22-3 1.25-.14 2.62-.18 3.25.01"/><path id="kvg:057d4-s2" kvg:type="㇑a" d="M24.87 15c1.09.5 1.96 2.23 1.96 3.25.0 7.25.03 41.75.03 52.5"/><path id="kvg:057d4-s3" kvg:type="㇀/㇐" d="M11.5 76.79c.75.96 2.25 1.46 4.5.21 6.25-3.5 17.5-9.75 23.75-13.25"/></g><g id="kvg:057d4-g2" kvg:element="甫" kvg:position="right"><path id="kvg:057d4-s4" kvg:type="㇐" d="M46.25 29.45c1.02.48 2.88.56 3.9.48 8.35-.67 24.85-3.17 36.29-3.59 1.69-.06 2.71.23 3.56.46"/><g id="kvg:057d4-g3" kvg:element="用" kvg:variant="true"><path id="kvg:057d4-s5" kvg:type="㇑" d="M47.91 42.36c.55.73.91 1.47 1.09 2.2.18.74-.22 45.94-.2 52.56"/><path id="kvg:057d4-s6" kvg:type="㇆" d="M49.1 44.3c6.14-.31 37.63-3.81 39.26-4.01 2.92-.37 4.01 2.39 3.65 3.49-.04 2.48-.12 29.89-.12 46.69.0 11.98-6 1.79-7.29 1.07"/><path id="kvg:057d4-s7" kvg:type="㇐" d="M49.6 57.86c8.13-.64 34.15-3.11 41.63-3.33"/><path id="kvg:057d4-s8" kvg:type="㇐" d="M49.27 72.79c5.83-.55 35.21-2.79 41.96-3.16"/><path id="kvg:057d4-s9" kvg:type="㇑" d="M67.2 12.3c1.29.59 2.06 2.67 2.32 3.85.26 1.19.0 72.57-.26 79.98"/></g><g id="kvg:057d4-g4" kvg:element="丶"><path id="kvg:057d4-s10" kvg:type="㇔" d="M81 12.25c4.69 1.74 11.33 6.54 12.5 9.25"/></g></g></g></g></svg>