<svg xmlns="http://www.w3.org/2000/svg" width="109" height="109" viewBox="0 0 109 109"><g id="kvg:StrokePaths_057f7"><g id="kvg:057f7" kvg:element="執"><g id="kvg:057f7-g1" kvg:element="幸" kvg:position="left"><g id="kvg:057f7-g2" kvg:element="土" kvg:position="top" kvg:radical="general"><path id="kvg:057f7-s1" kvg:type="㇐" d="M15.9 27.26c1.85.49 3.82.29 5.49.09 5.1-.62 12.78-2.12 17.74-2.6 1.71-.17 3.37-.33 5.04.18"/><path id="kvg:057f7-s2" kvg:type="㇑a" d="M30.16 12.57c.7.7 1.07 1.68 1.07 3.31.0 11.82.02 18.91.02 21.88"/><path id="kvg:057f7-s3" kvg:type="㇐" d="M10.63 40.2c2.5.55 4.49.51 6.65.22 9.7-1.34 17.28-2.56 24.23-3.12 2.53-.2 4.61-.63 7.12.08"/></g><g id="kvg:057f7-g3" kvg:element="𢆉"><g id="kvg:057f7-g4" kvg:element="䒑" kvg:part="1"><path id="kvg:057f7-s4" kvg:type="㇔" d="M18.76 44.56c1.68 1.75 4.34 7.21 4.76 9.94"/><path id="kvg:057f7-s5" kvg:type="㇒" d="M40.48 40.99c.05.64.05 1.29-.15 1.9-1.08 3.24-2.71 6.74-5.97 12.1"/></g><g id="kvg:057f7-g5" kvg:element="干" kvg:position="bottom"><g id="kvg:057f7-g6" kvg:element="䒑" kvg:part="2"><path id="kvg:057f7-s6" kvg:type="㇐" d="M16.35 59.73c1.52.39 3.31.29 4.52.18 6.62-.56 11.74-1.78 19.49-2.46 1.36-.12 3.7-.66 5.05-.18"/></g><g id="kvg:057f7-g7" kvg:element="十"><path id="kvg:057f7-s7" kvg:type="㇐" d="M10.91 74.4c2.04.85 4.38.43 6.48.13 7.85-1.11 17.4-2.52 25.35-3.31 2.02-.2 3.75-.23 5.71.26"/><path id="kvg:057f7-s8" kvg:type="㇑" d="M30.71 60.65c1.01 1.01 1.33 2.23 1.33 3.74.0.76.09 15.1.02 25.31-.02 3.13-.04 5.72-.06 7.18"/></g></g></g></g><g id="kvg:057f7-g8" kvg:element="丸" kvg:position="right"><g id="kvg:057f7-g9" kvg:element="九"><path id="kvg:057f7-s9" kvg:type="㇒" d="M67.82 13.62c.9.9 1.12 2.41 1.06 3.63-1.63 35.99-9 56.74-24.5 75.49"/><g id="kvg:057f7-g10" kvg:element="乙"><path id="kvg:057f7-s10" kvg:type="㇈" d="M53.5 39.5c2.29.76 4.78.2 7-.51 3.84-1.23 13.29-4.51 17.4-6.05 3.8-1.43 5.58-.93 4.7 3.33C81.36 42.31 78.86 60.58 78 70c-1.5 16.5.24 22.5 10.75 22.5 6.75.0 7.25-2.62 7.25-9.75"/></g></g><g id="kvg:057f7-g11" kvg:element="丶"><path id="kvg:057f7-s11" kvg:type="㇔" d="M53.25 56.5c7 2.25 14.19 10.27 15.56 13.97"/></g></g></g></g></svg>