<!DOCTYPE svg PUBLIC "-//W3C//DTD SVG 1.0//EN" "http://www.w3.org/TR/2001/REC-SVG-20010904/DTD/svg10.dtd" [
<!ATTLIST g
xmlns:kvg CDATA #FIXED "http://kanjivg.tagaini.net"
kvg:element CDATA #IMPLIED
kvg:variant CDATA #IMPLIED
kvg:partial CDATA #IMPLIED
kvg:original CDATA #IMPLIED
kvg:part CDATA #IMPLIED
kvg:number CDATA #IMPLIED
kvg:tradForm CDATA #IMPLIED
kvg:radicalForm CDATA #IMPLIED
kvg:position CDATA #IMPLIED
kvg:radical CDATA #IMPLIED
kvg:phon CDATA #IMPLIED >
<!ATTLIST path
xmlns:kvg CDATA #FIXED "http://kanjivg.tagaini.net"
kvg:type CDATA #IMPLIED >
]><svg xmlns="http://www.w3.org/2000/svg" width="109" height="109" viewBox="0 0 109 109"><g id="kvg:StrokePaths_05800" style="fill:none;stroke:#000000;stroke-width:3;stroke-linecap:round;stroke-linejoin:round;"><g id="kvg:05800" kvg:element="堀"><g id="kvg:05800-g1" kvg:element="土" kvg:variant="true" kvg:position="left" kvg:radical="general"><path id="kvg:05800-s1" kvg:type="㇐" d="M12.5 43.64c1.57.79 4.27.43 5.9.16 4.95-.83 12.61-2.5 17.5-3.56 1.32-.29 3.1-.61 4.35-.48"/><path id="kvg:05800-s2" kvg:type="㇑a" d="M27.12 22.25c1.06 1.06 1.21 2.5 1.21 4 0 7.25.03 29.75.03 40.5"/><path id="kvg:05800-s3" kvg:type="㇀/㇐" d="M12.25 74.09c.56.66 1.68 1.02 3.35.14 4.66-2.43 18.36-9.67 23.02-12.1"/></g><g id="kvg:05800-g2" kvg:element="屈" kvg:position="right" kvg:phon="屈"><g id="kvg:05800-g3" kvg:element="尸" kvg:position="tare"><path id="kvg:05800-s4" kvg:type="㇕c" d="M50.49 17.82c1.38.8 3.72.77 5.07.68 5.93-.37 20.77-2.57 27.57-3.36 2.93-.34 5.75 1.22 5.02 4.14-.74 2.95-2.62 8.02-3.54 11.58"/><path id="kvg:05800-s5" kvg:type="㇐b" d="M53.11 35.08c5.06-.54 20.69-2.24 28.89-2.94 1.75-.15 3.16-.25 4.06-.29"/><path id="kvg:05800-s6" kvg:type="㇒" d="M51.75 18.75c1.06 1.06 1.24 2.51 1.22 4.28-.22 20.47-4.59 52.59-23.11 67.23"/></g><g id="kvg:05800-g4" kvg:element="出" kvg:position="tarec"><g id="kvg:05800-g5" kvg:element="山"><path id="kvg:05800-s7" kvg:type="㇑a" d="M71.41 43.26c.49.37 1.61 2.74 1.61 3.49.0 5.77.11 34.23.11 43.25"/><path id="kvg:05800-s8" kvg:type="㇄a" d="M57.06 54.64c.71.71 1.06 1.86.84 2.7-.94 3.5-1.15 5.54-2.19 9.11-.53 1.83.14 2.21 1.79 1.81 11.37-2.75 22.73-4.02 31.45-4.37"/><path id="kvg:05800-s9" kvg:type="㇑" d="M91.14 49.84c.61 1.16.74 2.16.44 3.73-.64 3.33-.58 4.83-1.27 8.99-.18 1.1-.4 2.42-.66 4.06"/></g><g id="kvg:05800-g6" kvg:element="凵"><path id="kvg:05800-s10" kvg:type="㇄a" d="M55.29 81.1c.34 1.03.59 2.15.34 3.2-.47 1.96-1.11 3.88-2.01 7.48-.61 2.45-.31 3.58 2.56 2.77C67.5 91.37 83.25 89.5 93 88.71"/><path id="kvg:05800-s11" kvg:type="㇑" d="M92.65 75.74c1.06 1.05 1.29 2 1.24 3.49C93.75 83 94.06 84.67 94 87.25c-.04 1.59-.12 3.33-.12 5.62"/></g></g></g></g></g><g id="kvg:StrokeNumbers_05800" style="font-size:8;fill:#808080"><text transform="matrix(1 0 0 1 6.50 45.13)">1</text><text transform="matrix(1 0 0 1 17.50 21.50)">2</text><text transform="matrix(1 0 0 1 5.25 79.63)">3</text><text transform="matrix(1 0 0 1 53.50 15.13)">4</text><text transform="matrix(1 0 0 1 57.50 31.50)">5</text><text transform="matrix(1 0 0 1 45.50 26.50)">6</text><text transform="matrix(1 0 0 1 63.50 44.50)">7</text><text transform="matrix(1 0 0 1 55.50 51.05)">8</text><text transform="matrix(1 0 0 1 83.50 48.50)">9</text><text transform="matrix(1 0 0 1 44.50 81.50)">10</text><text transform="matrix(1 0 0 1 81.75 77.50)">11</text></g></svg>