<svg xmlns="http://www.w3.org/2000/svg" width="109" height="109" viewBox="0 0 109 109"><g id="kvg:StrokePaths_05802"><g id="kvg:05802" kvg:element="堂"><g id="kvg:05802-g1" kvg:element="尚" kvg:variant="true" kvg:position="top" kvg:phon="尚"><g id="kvg:05802-g2" kvg:element="⺌" kvg:variant="true" kvg:original="小" kvg:position="top" kvg:radical="nelson"><path id="kvg:05802-s1" kvg:type="㇑a" d="M52.32 12.62c1.16 1.16 1.6 2.38 1.6 4.47.0 10.17-.03 14.57-.03 17.46"/><path id="kvg:05802-s2" kvg:type="㇔" d="M29.76 19.47c3.25 1.79 8.4 7.34 9.22 10.12"/><path id="kvg:05802-s3" kvg:type="㇒" d="M75.99 15.04c.03.32.11.85-.05 1.3-1.31 3.54-3.68 6.91-8.81 11.19"/></g><g id="kvg:05802-g3" kvg:position="bottom"><g id="kvg:05802-g4" kvg:element="冂" kvg:variant="true"><path id="kvg:05802-s4" kvg:type="㇔" d="M18.62 35.75c-.15 4.6-2.64 15.39-3.86 18.14"/><path id="kvg:05802-s5" kvg:type="㇖b" d="M19.46 38.84c18.41-2.09 48.34-4.83 66.18-5.46 10.6-.37.97 8.03-.7 9.39"/></g><g id="kvg:05802-g5" kvg:element="口"><path id="kvg:05802-s6" kvg:type="㇑" d="M33.38 48.75c1 .38 1.69 1.81 1.69 2.82.76 2.85 1.9 7.73 2.71 11.3.23 1.01.43 1.91.58 2.63"/><path id="kvg:05802-s7" kvg:type="㇕b" d="M35.71 50.29c4.79-.49 19.54-2.04 28.92-2.71 3.22-.23 4.99.67 4.37 3.54-.57 2.65-1.22 5.31-2.31 10.07"/><path id="kvg:05802-s8" kvg:type="㇐b" d="M39.47 64.29c6.73-.78 17.99-1.46 25.53-1.89 1.33-.07 2.52-.13 3.54-.17"/></g></g></g><g id="kvg:05802-g6" kvg:element="土" kvg:position="bottom" kvg:radical="tradit"><path id="kvg:05802-s9" kvg:type="㇐" d="M33.96 78.72c1.29.32 3.67.23 4.96.07 8.33-1.04 22.08-2.54 29.36-2.9 2.15-.11 3.45.15 4.52.31"/><path id="kvg:05802-s10" kvg:type="㇑a" d="M52.86 66.12c.83.83 1.22 2.01 1.22 3.32.0 7.06-.05 19.64-.05 22.92"/><path id="kvg:05802-s11" kvg:type="㇐" d="M21.09 94.58c1.88.45 5.33.58 7.21.45 19.95-1.4 38.2-2.78 52.66-2.85 3.13-.02 5.01.21 6.58.44"/></g></g></g></svg>