<!DOCTYPE svg PUBLIC "-//W3C//DTD SVG 1.0//EN" "http://www.w3.org/TR/2001/REC-SVG-20010904/DTD/svg10.dtd" [
<!ATTLIST g
xmlns:kvg CDATA #FIXED "http://kanjivg.tagaini.net"
kvg:element CDATA #IMPLIED
kvg:variant CDATA #IMPLIED
kvg:partial CDATA #IMPLIED
kvg:original CDATA #IMPLIED
kvg:part CDATA #IMPLIED
kvg:number CDATA #IMPLIED
kvg:tradForm CDATA #IMPLIED
kvg:radicalForm CDATA #IMPLIED
kvg:position CDATA #IMPLIED
kvg:radical CDATA #IMPLIED
kvg:phon CDATA #IMPLIED >
<!ATTLIST path
xmlns:kvg CDATA #FIXED "http://kanjivg.tagaini.net"
kvg:type CDATA #IMPLIED >
]><svg xmlns="http://www.w3.org/2000/svg" width="109" height="109" viewBox="0 0 109 109"><g id="kvg:StrokePaths_05815" style="fill:none;stroke:#000000;stroke-width:3;stroke-linecap:round;stroke-linejoin:round;"><g id="kvg:05815" kvg:element="堕"><g id="kvg:05815-g1" kvg:element="陏" kvg:position="top" kvg:phon="陏"><g id="kvg:05815-g2" kvg:element="⻖" kvg:variant="true" kvg:original="阜" kvg:position="left"><path id="kvg:05815-s1" kvg:type="㇇" d="M18.87 19.62c1.03.14 2.2.52 3.41.32 7.22-1.19 13.58-3.14 16.14-3.74 3.07-.72 4.06 1.61 3.02 3.52-1.94 3.54-5.06 8.54-8.53 14.7"/><path id="kvg:05815-s2" kvg:type="㇁" d="M32.9 34.41C46.75 45 41.75 61 33.6 52.75"/><path id="kvg:05815-s3" kvg:type="㇑" d="M21.04 20.34c.81.81 1.5 2.03 1.5 3.6.0.47.04 29.39.04 42.68.0 3.86.0 6.42-.01 6.62"/></g><g id="kvg:05815-g3" kvg:element="有" kvg:position="right"><path id="kvg:05815-s4" kvg:type="㇒" d="M70.17 10.18c.45 1.07.28 2.2-.12 3.38-3.37 9.87-8.81 22.6-20.52 32.07"/><path id="kvg:05815-s5" kvg:type="㇐" d="M48.05 24.94c2.26.76 5.03.56 7.34.35 9.62-.84 22.43-3.04 32.11-3.5 2.33-.11 4.7-.21 7 .25"/><g id="kvg:05815-g4" kvg:element="月"><path id="kvg:05815-s6" kvg:type="㇑" d="M62.05 36.27c.96.96 1.18 2.23 1.18 3.24.0.45-.07 15.82-.07 24.98.0 3.16-.01 5.4-.02 5.73"/><path id="kvg:05815-s7" kvg:type="㇆a" d="M63.91 37.21c4.11-.74 13.53-2.23 18.49-2.75 3.04-.32 4.63.33 4.61 3.66-.03 4.41.04 16.34.04 27.08.0 8.3-3.51 3.9-6.15 1.31"/><path id="kvg:05815-s8" kvg:type="㇐a" d="M64.16 46.18c7.46-.93 15.96-1.68 22.02-1.94"/><path id="kvg:05815-s9" kvg:type="㇐a" d="M64.62 56.05c6.64-.52 15.53-1.44 21.25-1.73"/></g></g></g><g id="kvg:05815-g5" kvg:element="土" kvg:position="bottom" kvg:radical="general"><path id="kvg:05815-s10" kvg:type="㇐" d="M31.13 80.17c2.12.58 4.32.33 6.37.11 10.68-1.12 22.77-2.65 33.62-3.2 2.51-.13 5.03-.36 7.5.21"/><path id="kvg:05815-s11" kvg:type="㇑a" d="M53.67 66.87c.86.86 1.27 2.13 1.27 3.64.0 8-.07 15.51-.07 22.75"/><path id="kvg:05815-s12" kvg:type="㇐" d="M16.38 95.73c3.75.77 7.13.93 10.49.67 16.97-1.31 40.84-2.85 56.76-3.62 3.46-.17 7.11.06 10.5.79"/></g></g></g><g id="kvg:StrokeNumbers_05815" style="font-size:8;fill:#808080"><text transform="matrix(1 0 0 1 21.75 16.63)">1</text><text transform="matrix(1 0 0 1 26.50 40.50)">2</text><text transform="matrix(1 0 0 1 15.50 28.63)">3</text><text transform="matrix(1 0 0 1 63.75 9.63)">4</text><text transform="matrix(1 0 0 1 47.50 22.50)">5</text><text transform="matrix(1 0 0 1 55.50 49.55)">6</text><text transform="matrix(1 0 0 1 67.50 33.50)">7</text><text transform="matrix(1 0 0 1 67.50 44.50)">8</text><text transform="matrix(1 0 0 1 67.50 53.98)">9</text><text transform="matrix(1 0 0 1 20.50 82.50)">10</text><text transform="matrix(1 0 0 1 41.25 67.50)">11</text><text transform="matrix(1 0 0 1 5.50 98.50)">12</text></g></svg>