<!DOCTYPE svg PUBLIC "-//W3C//DTD SVG 1.0//EN" "http://www.w3.org/TR/2001/REC-SVG-20010904/DTD/svg10.dtd" [
<!ATTLIST g
xmlns:kvg CDATA #FIXED "http://kanjivg.tagaini.net"
kvg:element CDATA #IMPLIED
kvg:variant CDATA #IMPLIED
kvg:partial CDATA #IMPLIED
kvg:original CDATA #IMPLIED
kvg:part CDATA #IMPLIED
kvg:number CDATA #IMPLIED
kvg:tradForm CDATA #IMPLIED
kvg:radicalForm CDATA #IMPLIED
kvg:position CDATA #IMPLIED
kvg:radical CDATA #IMPLIED
kvg:phon CDATA #IMPLIED >
<!ATTLIST path
xmlns:kvg CDATA #FIXED "http://kanjivg.tagaini.net"
kvg:type CDATA #IMPLIED >
]><svg xmlns="http://www.w3.org/2000/svg" width="109" height="109" viewBox="0 0 109 109"><g id="kvg:StrokePaths_0582f" style="fill:none;stroke:#000000;stroke-width:3;stroke-linecap:round;stroke-linejoin:round;"><g id="kvg:0582f" kvg:element="堯"><g id="kvg:0582f-g1" kvg:position="top"><g id="kvg:0582f-g2" kvg:element="土" kvg:position="top" kvg:radical="general"><path id="kvg:0582f-s1" kvg:type="㇐" d="M31.11 20.53c.83.32 2.35.31 3.18.32 10.46.14 28.27-2.42 39.01-2.71 1.38-.04 2.21.15 2.9.31"/><path id="kvg:0582f-s2" kvg:type="㇑a" d="M52.74 9.62c.1.23 1.42 1.22 1.42 2.71.0 1.67-.29 10.42-.29 17.38"/><path id="kvg:0582f-s3" kvg:type="㇐" d="M22.61 31.59c1.21.43 3.44.53 4.66.43 15.04-1.21 43.43-3.61 56.88-4.18 2.02-.09 3.24.21 4.25.42"/></g><g id="kvg:0582f-g3" kvg:position="bottom"><g id="kvg:0582f-g4" kvg:element="土" kvg:position="left"><path id="kvg:0582f-s4" kvg:type="㇐" d="M18.5 46.14c.76.38 2.24.4 3 .36 5-.25 19.65-2.39 25-3 1.25-.14 2.62-.18 3.25.01"/><path id="kvg:0582f-s5" kvg:type="㇑" d="M33.37 37c1.09.5 1.96 2.23 1.96 3.25.0 7.25.03 5.75.03 16.5"/><path id="kvg:0582f-s6" kvg:type="㇀/㇐" d="M20 60.19c.77.56 2.31 1.36 4.62.62 6.42-2.06 17.96-6.25 24.38-8.31"/></g><g id="kvg:0582f-g5" kvg:element="土" kvg:position="right"><path id="kvg:0582f-s7" kvg:type="㇐" d="M56.11 43.03c.83.32 2.35.33 3.18.32 7.71-.11 18.46-1.61 26.01-1.71 1.38-.02 2.21.15 2.9.31"/><path id="kvg:0582f-s8" kvg:type="㇑a" d="M69.24 33.62c.1.23 1.42 1.22 1.42 2.71.0 1.67-.29 11.92-.29 18.88"/><path id="kvg:0582f-s9" kvg:type="㇐" d="M53.71 56.73c.96.3 3.23.37 4.19.3C66.5 56.5 82 55 90.63 54.59c1.6-.08 2.57.15 3.37.3"/></g></g></g><g id="kvg:0582f-g6" kvg:element="兀" kvg:position="bottom"><g id="kvg:0582f-g7" kvg:element="一"><path id="kvg:0582f-s10" kvg:type="㇐" d="M22 69.9c1.47.37 4.17.41 5.64.37C37.9 70 70.35 65.51 84.35 65.51c2.45.0 3.93.18 5.15.36"/></g><g id="kvg:0582f-g8" kvg:element="儿" kvg:original="八"><g id="kvg:0582f-g9" kvg:element="丿"><path id="kvg:0582f-s11" kvg:type="㇒" d="M43.98 72c.08.66.18 1.71-.17 2.67-2.05 5.62-12.85 19.02-29.9 25.5"/></g><path id="kvg:0582f-s12" kvg:type="㇟" d="M59.99 69.87c.74 1.19 1.38 2.59 1.38 4.43.0 2.45-.03 6.14-.03 11.7.0 9.75 3.42 11.53 16.67 11.53S93.4 95.25 93.4 87.41"/></g></g></g></g><g id="kvg:StrokeNumbers_0582f" style="font-size:8;fill:#808080"><text transform="matrix(1 0 0 1 24.50 20.63)">1</text><text transform="matrix(1 0 0 1 43.50 9.50)">2</text><text transform="matrix(1 0 0 1 15.50 31.50)">3</text><text transform="matrix(1 0 0 1 10.75 46.65)">4</text><text transform="matrix(1 0 0 1 25.50 41.50)">5</text><text transform="matrix(1 0 0 1 12.50 61.50)">6</text><text transform="matrix(1 0 0 1 54.50 39.50)">7</text><text transform="matrix(1 0 0 1 61.50 37.53)">8</text><text transform="matrix(1 0 0 1 54.50 53.10)">9</text><text transform="matrix(1 0 0 1 11.50 71.50)">10</text><text transform="matrix(1 0 0 1 29.50 79.50)">11</text><text transform="matrix(1 0 0 1 50.50 80.50)">12</text></g></svg>