<svg xmlns="http://www.w3.org/2000/svg" width="109" height="109" viewBox="0 0 109 109"><g id="kvg:StrokePaths_0583a"><g id="kvg:0583a" kvg:element="堺"><g id="kvg:0583a-g1" kvg:element="土" kvg:variant="true" kvg:position="left" kvg:radical="general"><path id="kvg:0583a-s1" kvg:type="㇐" d="M11.25 43.89c2.14.49 4.28.48 6.42-.03 4.98-1.08 11.33-2.73 15.97-3.95 1.49-.39 3.06-.38 4.6-.4"/><path id="kvg:0583a-s2" kvg:type="㇑a" d="M24.12 16.25c1.06 1.06 1.21 2 1.21 3.25.0 1.02-.22 42.62-.22 49.5"/><path id="kvg:0583a-s3" kvg:type="㇀/㇐" d="M11.25 77.32c1.5.68 2.82.49 4.38-.57C25.75 69.88 30.32 66.25 37.5 61"/></g><g id="kvg:0583a-g2" kvg:element="界" kvg:position="right"><g id="kvg:0583a-g3" kvg:element="田" kvg:position="top"><path id="kvg:0583a-s4" kvg:type="㇑" d="M44.89 16.22c.88.88 1.34 1.52 1.45 2.12.97 5.04 1.92 9.7 2.95 16.32.33 2.13.67 4.46 1.02 7.07"/><path id="kvg:0583a-s5" kvg:type="㇕a" d="M46.51 17.11c8.28-.99 25.51-2.97 36.48-3.76 3.42-.24 5.86 1.34 5.02 4.91C86 26.75 85 31 82.25 39.75"/><path id="kvg:0583a-s6" kvg:type="㇑a" d="M64.7 17c1.08 1.09 1.35 2 1.35 3.5C66.04 26.61 66 35.65 66 37.62"/><path id="kvg:0583a-s7" kvg:type="㇐a" d="M49.35 28.53c10.28-1.28 24.73-2.5 35.53-2.91"/><path id="kvg:0583a-s8" kvg:type="㇐a" d="M50.86 39.92c9.39-.92 18.77-1.67 30.77-2.29"/></g><g id="kvg:0583a-g4" kvg:element="介" kvg:position="bottom"><g id="kvg:0583a-g5" kvg:element="人" kvg:position="top"><path id="kvg:0583a-s9" kvg:type="㇒" d="M65.12 42c-.18 1.21-.58 2.33-1.21 3.34-3.62 6.1-14.43 17.12-27.67 25.35"/><path id="kvg:0583a-s10" kvg:type="㇏" d="M65.5 45.5c7.09 5.85 13.62 11.88 20.02 17.09 2.51 2.05 5.25 4.21 8.23 5.49"/></g><g id="kvg:0583a-g6" kvg:position="bottom"><g id="kvg:0583a-g7" kvg:element="丿"><path id="kvg:0583a-s11" kvg:type="㇒" d="M54.53 63.93c.89.89.8 2.19.79 3.37-.07 11.95-4.07 25.32-15.92 31.42"/></g><g id="kvg:0583a-g8" kvg:element="丨"><path id="kvg:0583a-s12" kvg:type="㇑" d="M74.28 62.6c.93.93 1.24 2.15 1.24 3.06.0.6-.08 15.94-.12 25.96-.01 3.32-.02 6.05-.02 7.48"/></g></g></g></g></g></g></svg>