<svg xmlns="http://www.w3.org/2000/svg" width="109" height="109" viewBox="0 0 109 109"><g id="kvg:StrokePaths_05830" style="fill:none;stroke:#000000;stroke-width:3;stroke-linecap:round;stroke-linejoin:round;"><g id="kvg:05830" kvg:element="堰"><g id="kvg:05830-g1" kvg:element="土" kvg:variant="true" kvg:position="left" kvg:radical="general"><path id="kvg:05830-s1" kvg:type="㇐" d="M12.75 42.14c1.98.51 3.94.48 5.9-.1 4.94-.85 12.43-2.09 17.22-2.79 1.69-.31 3.5-.5 5.13-.49"/><path id="kvg:05830-s2" kvg:type="㇑a" d="M26.12 15.75c1 1 1.22 2.73 1.21 3.75C27.25 30.75 27 56.12 27.11 69"/><path id="kvg:05830-s3" kvg:type="㇀/㇐" d="M12.5 75.29c2.05 1.06 3.44.79 5.44-.32 5.96-3.3 12.13-6.15 18.06-9.48"/></g><g id="kvg:05830-g2" kvg:position="right"><g id="kvg:05830-g3" kvg:element="匚" kvg:part="1" kvg:position="kamae"><path id="kvg:05830-s4" kvg:type="㇐" d="M43.63 19.03c2.7.57 5.38.5 8.12.17 10.88-1.32 21.13-2.57 34.63-3.53 2.69-.19 5.36-.41 8.01.1"/></g><g id="kvg:05830-g4" kvg:element="日"><path id="kvg:05830-s5" kvg:type="㇑" d="M58.25 27.62c.7.85 1.11 1.8 1.22 2.85.65 3.65 1.43 7.79 2.04 12.17.24 1.7.44 3.4.61 5.06"/><path id="kvg:05830-s6" kvg:type="㇕a" d="M60.02 28.99c7.09-.78 18.89-1.81 25.1-2.56 2.52-.3 4.51.34 4.2 3.07-.33 2.92-.98 7.79-1.62 12.1-.26 1.77-.53 3.45-.77 4.86"/><path id="kvg:05830-s7" kvg:type="㇐a" d="M61.44 37c2.49-.19 24.34-1.82 26.4-1.9"/><path id="kvg:05830-s8" kvg:type="㇐a" d="M63.01 46.55c5.5-.36 15.58-1.6 23.17-2.19"/></g><g id="kvg:05830-g5" kvg:element="女"><path id="kvg:05830-s9" kvg:type="㇛" d="M71.51 49.12c.12 1.21-.02 2.37-.43 3.49-1.39 4.23-5.54 11.85-8.71 16.72-1.06 1.64-1.77 2.78.62 2.95 5.9.42 14.08 3.07 20.04 7.42 2.24 1.63 4.16 3.5 5.54 5.58"/><path id="kvg:05830-s10" kvg:type="㇒" d="M82.25 57.05c.07.7.12 2.41-.15 3.43C79.9 68.71 73.78 79.12 58 85.25"/><path id="kvg:05830-s11" kvg:type="㇐" d="M53.71 60.98c2.43.29 4.86.32 7.29.1 10.35-.66 19.22-1.28 30.11-2.4 1.95-.2 4.39-.31 6.55-.08"/></g><g id="kvg:05830-g6" kvg:element="匚" kvg:part="2" kvg:position="kamae"><path id="kvg:05830-s12" kvg:type="㇗" d="M47 20.25c.75.88 1.25 2.38 1.25 4 0 13.58.0 53.49.0 63.38.0 4.24 1.01 5.58 5.49 5.16C64.75 91.75 77.5 91 89.13 90.87c2.82-.03 5.6-.06 8.37.63"/></g></g></g></g></svg>