<!DOCTYPE svg PUBLIC "-//W3C//DTD SVG 1.0//EN" "http://www.w3.org/TR/2001/REC-SVG-20010904/DTD/svg10.dtd" [
<!ATTLIST g
xmlns:kvg CDATA #FIXED "http://kanjivg.tagaini.net"
kvg:element CDATA #IMPLIED
kvg:variant CDATA #IMPLIED
kvg:partial CDATA #IMPLIED
kvg:original CDATA #IMPLIED
kvg:part CDATA #IMPLIED
kvg:number CDATA #IMPLIED
kvg:tradForm CDATA #IMPLIED
kvg:radicalForm CDATA #IMPLIED
kvg:position CDATA #IMPLIED
kvg:radical CDATA #IMPLIED
kvg:phon CDATA #IMPLIED >
<!ATTLIST path
xmlns:kvg CDATA #FIXED "http://kanjivg.tagaini.net"
kvg:type CDATA #IMPLIED >
]><svg xmlns="http://www.w3.org/2000/svg" width="109" height="109" viewBox="0 0 109 109"><g id="kvg:StrokePaths_05841" style="fill:none;stroke:#000000;stroke-width:3;stroke-linecap:round;stroke-linejoin:round;"><g id="kvg:05841" kvg:element="塁"><g id="kvg:05841-g1" kvg:position="top" kvg:phon="畾V"><g id="kvg:05841-g2" kvg:element="田" kvg:radical="nelson"><path id="kvg:05841-s1" kvg:type="㇑" d="M30.08 15.82c1.05 1.05 1.55 2.24 1.82 3.52 1.11 5.41 2.64 12.06 3.52 18.39.2 1.46.39 2.89.54 4.23"/><path id="kvg:05841-s2" kvg:type="㇕a" d="M32.13 17.15c11.66-1.09 31.24-2.65 42.61-3.37 3.62-.23 5 .84 4.27 4.25-.9 4.17-2.9 10.75-4.92 16.51-.59 1.67-1.17 3.25-1.73 4.65"/><path id="kvg:05841-s3" kvg:type="㇑a" d="M52.64 17.21c.95.95 1.13 2.09 1.13 3.03.0 3.96.08 14.34.08 17.7"/><path id="kvg:05841-s4" kvg:type="㇐a" d="M34.81 28.13c4.69-.75 36.19-2.88 41.32-2.98"/><path id="kvg:05841-s5" kvg:type="㇐a" d="M37.31 40.03c9.94-.78 23.22-1.91 34.81-2.67"/></g><g id="kvg:05841-g3" kvg:element="冫"><g id="kvg:05841-g4" kvg:position="top"><path id="kvg:05841-s6" kvg:type="㇔" d="M26 44.25c4.15 1.5 10.71 6.17 11.75 8.5"/></g><g id="kvg:05841-g5" kvg:position="bottom"><path id="kvg:05841-s7" kvg:type="㇀" d="M20.25 67.26c1.49.73 2.43.55 4.43-.5 1.18-.62 10.35-4.89 16.19-8.13"/></g></g><path id="kvg:05841-s8" kvg:type="㇒" d="M81.01 40.14c.11.83-.38 1.8-.99 2.38-2.76 2.61-6.01 4.73-14.71 9.2"/><path id="kvg:05841-s9" kvg:type="㇔" d="M69 58.25c6.79 1.76 17.55 7.26 19.25 10"/></g><g id="kvg:05841-g6" kvg:element="土" kvg:position="bottom" kvg:radical="tradit"><path id="kvg:05841-s10" kvg:type="㇐" d="M32.61 76.3c1.89.7 4 .72 4.87.59 10.26-1.52 22.4-2.93 33.14-3.34 2.09-.08 4.29.28 6.31.75"/><path id="kvg:05841-s11" kvg:type="㇑a" d="M53.09 63.87c.96.96 1.34 2.12 1.34 3.79.0 4.1-.06 17.52-.06 22.1"/><path id="kvg:05841-s12" kvg:type="㇐" d="M20.77 92.29c2.82 1 6.68.65 9.61.39 16.24-1.43 35.11-2.8 50.86-3.13 3.18-.07 6.4.35 9.48 1.01"/></g></g></g><g id="kvg:StrokeNumbers_05841" style="font-size:8;fill:#808080"><text transform="matrix(1 0 0 1 24.50 23.88)">1</text><text transform="matrix(1 0 0 1 35.00 14.25)">2</text><text transform="matrix(1 0 0 1 56.25 23.25)">3</text><text transform="matrix(1 0 0 1 39.50 25.38)">4</text><text transform="matrix(1 0 0 1 40.00 37.30)">5</text><text transform="matrix(1 0 0 1 19.25 45.25)">6</text><text transform="matrix(1 0 0 1 12.50 71.66)">7</text><text transform="matrix(1 0 0 1 84.25 38.88)">8</text><text transform="matrix(1 0 0 1 72.50 56.80)">9</text><text transform="matrix(1 0 0 1 22.25 79.25)">10</text><text transform="matrix(1 0 0 1 41.25 67.25)">11</text><text transform="matrix(1 0 0 1 16.25 89.25)">12</text></g></svg>