<svg xmlns="http://www.w3.org/2000/svg" width="109" height="109" viewBox="0 0 109 109"><g id="kvg:StrokePaths_05857"><g id="kvg:05857" kvg:element="塗"><g id="kvg:05857-g1" kvg:element="涂" kvg:position="top"><g id="kvg:05857-g2" kvg:element="氵" kvg:variant="true" kvg:original="水" kvg:position="left"><path id="kvg:05857-s1" kvg:type="㇔" d="M25.12 13.88c2.29 1.49 5.78 5.62 6.24 7.5"/><path id="kvg:05857-s2" kvg:type="㇔" d="M15.78 26.58c2.85 1.54 7.25 5.63 7.87 7.43"/><path id="kvg:05857-s3" kvg:type="㇀" d="M15.73 59.43c1.65.57 2.51.1 3.7-1.25 3.44-3.92 6.32-7.81 10.51-13.91"/></g><g id="kvg:05857-g3" kvg:element="余" kvg:position="right" kvg:phon="余"><g id="kvg:05857-g4" kvg:element="人" kvg:position="top"><path id="kvg:05857-s4" kvg:type="㇒" d="M62.51 12.5c.07.58.25 1.55-.14 2.34-2.42 4.96-10.84 14.36-24.25 22.41"/><path id="kvg:05857-s5" kvg:type="㇏" d="M63.19 14.82c3.34 2.85 15.25 11.11 22.37 15.55 2.65 1.65 5.66 2.99 8.58 4.06"/></g><g id="kvg:05857-g5" kvg:position="bottom"><path id="kvg:05857-s6" kvg:type="㇐" d="M53.21 33.06c.88.41 2.6.33 3.53.21 3.9-.48 9.47-1.61 13.13-2.12 1.2-.17 2.33-.34 3.53-.04"/><path id="kvg:05857-s7" kvg:type="㇐" d="M45.93 43.35c2.19.27 3.95.14 5.71-.06 6.85-.78 17.89-2.2 24.23-2.72 1.8-.15 3.58-.36 5.35.06"/><g id="kvg:05857-g6" kvg:element="小"><path id="kvg:05857-s8" kvg:type="㇚" d="M62.55 34.49c.73.73 1.16 2.01 1.16 3.33.0 6.93-.09 17.61-.09 21.05.0 7.81-4.6 1.84-5.69.97"/><path id="kvg:05857-s9" kvg:type="㇒" d="M50.06 49.12c.13.96-.31 1.6-.92 2.39-2.37 3.04-7.42 6.67-15.07 11.05"/><path id="kvg:05857-s10" kvg:type="㇔" d="M74.21 49.22c4.43 2.04 10.17 7.28 12.55 11.55"/></g></g></g></g><g id="kvg:05857-g7" kvg:element="土" kvg:position="bottom" kvg:radical="general"><path id="kvg:05857-s11" kvg:type="㇐" d="M29.63 79.51c2.32.73 5.5.46 7.88.18C48.5 78.38 60.74 77.38 71 76.85c2.76-.14 5.44-.16 8.13.36"/><path id="kvg:05857-s12" kvg:type="㇑a" d="M53.42 67.37c.98.98 1.27 2.27 1.27 4.14.0 5.5-.07 15.51-.07 21.62"/><path id="kvg:05857-s13" kvg:type="㇐" d="M15.13 95.42c3.14.76 6.32.94 9.49.64 18.15-1.73 42.27-2.88 58.26-3.37 3.63-.11 7.25.05 10.5.94"/></g></g></g></svg>