<!DOCTYPE svg PUBLIC "-//W3C//DTD SVG 1.0//EN" "http://www.w3.org/TR/2001/REC-SVG-20010904/DTD/svg10.dtd" [
<!ATTLIST g
xmlns:kvg CDATA #FIXED "http://kanjivg.tagaini.net"
kvg:element CDATA #IMPLIED
kvg:variant CDATA #IMPLIED
kvg:partial CDATA #IMPLIED
kvg:original CDATA #IMPLIED
kvg:part CDATA #IMPLIED
kvg:number CDATA #IMPLIED
kvg:tradForm CDATA #IMPLIED
kvg:radicalForm CDATA #IMPLIED
kvg:position CDATA #IMPLIED
kvg:radical CDATA #IMPLIED
kvg:phon CDATA #IMPLIED >
<!ATTLIST path
xmlns:kvg CDATA #FIXED "http://kanjivg.tagaini.net"
kvg:type CDATA #IMPLIED >
]><svg xmlns="http://www.w3.org/2000/svg" width="109" height="109" viewBox="0 0 109 109"><g id="kvg:StrokePaths_05854" style="fill:none;stroke:#000000;stroke-width:3;stroke-linecap:round;stroke-linejoin:round;"><g id="kvg:05854" kvg:element="塔"><g id="kvg:05854-g1" kvg:element="土" kvg:variant="true" kvg:position="left" kvg:radical="general"><path id="kvg:05854-s1" kvg:type="㇐" d="M11.25 42.85c1.62.4 3.79.18 5.16.01 5.09-.62 12.14-2.36 16.71-3.13 1.31-.22 3.07-.67 4.38-.21"/><path id="kvg:05854-s2" kvg:type="㇑a" d="M24.62 18.5c.94.94 1.21 2.38 1.21 4 0 7.25.03 36 .03 46.75"/><path id="kvg:05854-s3" kvg:type="㇀/㇐" d="M12.25 77.79c1 .83 2.05 1.02 3.75-.29 8.88-6.88 13.25-10.5 21.25-16.75"/></g><g id="kvg:05854-g2" kvg:element="荅" kvg:position="right" kvg:phon="荅"><g id="kvg:05854-g3" kvg:element="艹" kvg:variant="true" kvg:original="艸" kvg:position="top"><path id="kvg:05854-s4" kvg:type="㇐" d="M38.82 27.24c2.18.39 3.96.47 5.82.26 9.45-1.07 28.98-3.51 39.73-4.04 2.22-.11 4.47-.28 6.62.39"/><path id="kvg:05854-s5" kvg:type="㇑a" d="M51.75 16.19c.9.9 1.27 2.03 1.38 2.88.5 4.05 1.25 9.3 2.19 15.47"/><path id="kvg:05854-s6" kvg:type="㇑a" d="M74.87 13c.32 1.13.58 1.92.38 3.35-1.12 7.65-2.19 12.03-3.12 17.28"/></g><g id="kvg:05854-g4" kvg:element="合" kvg:position="bottom"><g id="kvg:05854-g5" kvg:position="top"><g id="kvg:05854-g6" kvg:element="人"><path id="kvg:05854-s7" kvg:type="㇒" d="M63.65 35.77c.07.85-.13 2.03-.65 3.18-3.59 8-11.25 19.42-26.75 32.86"/><path id="kvg:05854-s8" kvg:type="㇏" d="M63.96 39.54c5.44 4.89 17.22 14.47 23.59 19.43 2.45 1.91 4.9 3.77 7.71 5.12"/></g><g id="kvg:05854-g7" kvg:element="一"><path id="kvg:05854-s9" kvg:type="㇐" d="M52.2 61.73c1.32.41 3.21.16 4.56.0 5.19-.58 9.24-1.53 15.37-2.17 1.22-.13 2.86-.12 4.08.11"/></g></g><g id="kvg:05854-g8" kvg:element="口" kvg:position="bottom"><path id="kvg:05854-s10" kvg:type="㇑" d="M49.49 73.8c.67.67 1.13 1.58 1.44 2.78 1.79 7.12 2.26 9.94 3.16 14.65.26 1.36.51 2.83.75 4.55"/><path id="kvg:05854-s11" kvg:type="㇕b" d="M51.57 75.29c10.43-1.41 22.81-3.15 28.45-3.85 2.06-.26 3.3 1.52 3 3.02C81.8 80.68 80.75 84.88 79.43 90"/><path id="kvg:05854-s12" kvg:type="㇐b" d="M55.71 93.3c6.39-.51 12.89-1.28 20.8-1.94 1.51-.13 3.05-.24 4.6-.33"/></g></g></g></g></g><g id="kvg:StrokeNumbers_05854" style="font-size:8;fill:#808080"><text transform="matrix(1 0 0 1 5.25 44.50)">1</text><text transform="matrix(1 0 0 1 15.50 18.13)">2</text><text transform="matrix(1 0 0 1 5.25 83.50)">3</text><text transform="matrix(1 0 0 1 36.50 24.50)">4</text><text transform="matrix(1 0 0 1 42.75 15.13)">5</text><text transform="matrix(1 0 0 1 66.75 12.13)">6</text><text transform="matrix(1 0 0 1 52.50 45.13)">7</text><text transform="matrix(1 0 0 1 72.50 44.50)">8</text><text transform="matrix(1 0 0 1 57.50 58.63)">9</text><text transform="matrix(1 0 0 1 40.50 82.50)">10</text><text transform="matrix(1 0 0 1 51.75 71.50)">11</text><text transform="matrix(1 0 0 1 57.75 90.05)">12</text></g></svg>