<svg xmlns="http://www.w3.org/2000/svg" width="109" height="109" viewBox="0 0 109 109"><g id="kvg:StrokePaths_05858"><g id="kvg:05858" kvg:element="塘"><g id="kvg:05858-g1" kvg:element="土" kvg:variant="true" kvg:position="left" kvg:radical="general"><path id="kvg:05858-s1" kvg:type="㇐" d="M12.25 43.89c.76.38 2.24.46 3 .36 5.75-.75 14.65-2.89 20-3.5 1.25-.14 2.62-.18 3.25.01"/><path id="kvg:05858-s2" kvg:type="㇑a" d="M24.37 18.75c1.09.5 1.74 2.25 1.96 3.25.22 1 0 42.25-.22 48.5"/><path id="kvg:05858-s3" kvg:type="㇀/㇐" d="M12 78.05c1.75.95 3.4 1.23 5.79-.69 6.65-5.33 12.56-9.78 19.21-15.11"/></g><g id="kvg:05858-g2" kvg:element="唐" kvg:position="right"><g id="kvg:05858-g3" kvg:element="广" kvg:position="tare"><path id="kvg:05858-s4" kvg:type="㇑a" d="M68.5 12.38c.65.36 2.01 2.67 2.14 3.38s-.06 3.94-.06 8.79"/><g id="kvg:05858-g4" kvg:element="厂"><path id="kvg:05858-s5" kvg:type="㇐" d="M44.6 27.17c1.3.54 3.69.68 4.99.54 11.99-1.27 31.41-4.02 41.84-4.74 2.16-.15 3.47.26 4.55.53"/><path id="kvg:05858-s6" kvg:type="㇒" d="M48.66 28.27c.03 1.43-.06 3.68-.06 5.73.0 20.53-4.96 43.93-13.02 54.9"/></g></g><g id="kvg:05858-g5" kvg:position="tarec"><g id="kvg:05858-g6" kvg:element="⺕" kvg:variant="true" kvg:original="彑"><path id="kvg:05858-s7" kvg:type="㇕" d="M56.24 39.87c1.52.21 2.25.56 3.65.43 8.53-.85 19.17-2.82 27.06-3.27 1.98-.11 3.35 1.06 3.04 3.19-.8 5.56-1.5 12.03-2.94 19.87"/><path id="kvg:05858-s8" kvg:type="㇐" d="M51.35 51.67c1.37.21 2.45.66 3.96.43 10.19-1.59 30.38-4.42 40.88-5.05 1.68-.1 3.8-.02 4.57.2"/><path id="kvg:05858-s9" kvg:type="㇐c" d="M55.14 63.28c1 .2 2.82.69 4.02.58 11.06-.97 17.04-3.1 27.1-3.49 1.61-.06 2.61.0 3.82.19"/></g><path id="kvg:05858-s10" kvg:type="㇑" d="M69.62 30.61c.93.46 1.49 2.08 1.68 3.01.19.92.43 22.9.24 28.68"/><g id="kvg:05858-g7" kvg:element="口"><path id="kvg:05858-s11" kvg:type="㇑" d="M55.42 73.7c.52.39 1.05.73 1.28 1.22 1.8 3.92 3.24 15.29 4.47 22.33"/><path id="kvg:05858-s12" kvg:type="㇕b" d="M56.92 75.33c8.68-1.24 28.03-3.84 32.26-4.29 1.55-.17 2.48.99 2.25 1.96-.92 4.04-2.92 12.82-4.28 18.41"/><path id="kvg:05858-s13" kvg:type="㇐b" d="M61.34 94.64c4.97-.51 18.9-2.59 28.29-3.19"/></g></g></g></g></g></svg>