<!DOCTYPE svg PUBLIC "-//W3C//DTD SVG 1.0//EN" "http://www.w3.org/TR/2001/REC-SVG-20010904/DTD/svg10.dtd" [
<!ATTLIST g
xmlns:kvg CDATA #FIXED "http://kanjivg.tagaini.net"
kvg:element CDATA #IMPLIED
kvg:variant CDATA #IMPLIED
kvg:partial CDATA #IMPLIED
kvg:original CDATA #IMPLIED
kvg:part CDATA #IMPLIED
kvg:number CDATA #IMPLIED
kvg:tradForm CDATA #IMPLIED
kvg:radicalForm CDATA #IMPLIED
kvg:position CDATA #IMPLIED
kvg:radical CDATA #IMPLIED
kvg:phon CDATA #IMPLIED >
<!ATTLIST path
xmlns:kvg CDATA #FIXED "http://kanjivg.tagaini.net"
kvg:type CDATA #IMPLIED >
]><svg xmlns="http://www.w3.org/2000/svg" width="109" height="109" viewBox="0 0 109 109"><g id="kvg:StrokePaths_0586b" style="fill:none;stroke:#000000;stroke-width:3;stroke-linecap:round;stroke-linejoin:round;"><g id="kvg:0586b" kvg:element="填"><g id="kvg:0586b-g1" kvg:element="土" kvg:variant="true" kvg:position="left" kvg:radical="general"><path id="kvg:0586b-s1" kvg:type="㇐" d="M14.75 43.39c.76.38 2.24.44 3 .36 6.75-.75 14.65-2.39 20-3 1.25-.14 2.62-.18 3.25.01"/><path id="kvg:0586b-s2" kvg:type="㇑a" d="M26.87 16.75c1.09.5 1.74 2.25 1.96 3.25.22 1 0 43.25-.22 49.5"/><path id="kvg:0586b-s3" kvg:type="㇀/㇐" d="M13.5 75.94c.74 1.06 2.23 1.63 4.45.23 6.18-3.9 13.61-8.52 19.8-12.42"/></g><g id="kvg:0586b-g2" kvg:element="真" kvg:position="right"><g id="kvg:0586b-g3" kvg:element="十" kvg:position="top"><path id="kvg:0586b-s4" kvg:type="㇐" d="M43.07 24.68c.92.51 2.61.59 3.53.51 11.4-.94 33.07-3.78 41.14-3.98 1.54-.04 2.46.24 3.23.5"/><path id="kvg:0586b-s5" kvg:type="㇑" d="M64.11 11.75c.37.29 1.28 2.17 1.24 2.75C65 20 64.5 26.25 63.09 36.05"/></g><g id="kvg:0586b-g4" kvg:element="具" kvg:position="bottom"><g id="kvg:0586b-g5" kvg:element="目" kvg:position="top"><path id="kvg:0586b-s6" kvg:type="㇑" d="M48.84 35.64c.4.65 1.27 1.5 1.27 2.64.0 9.22-.01 33.45-.01 34.02"/><path id="kvg:0586b-s7" kvg:type="㇕a" d="M50.47 37.5c2.93-.14 25.85-3.44 28.52-3.61 2.22-.14 3.78.74 3.79 3.8.0 4.97-.02 19.57-.67 33.03"/><path id="kvg:0586b-s8" kvg:type="㇐a" d="M50.33 47.53c10.67-.81 24.84-2.99 31.92-3.27"/><path id="kvg:0586b-s9" kvg:type="㇐a" d="M50.28 58.06c7.75-.48 22.65-2.37 32.22-2.68"/><path id="kvg:0586b-s10" kvg:type="㇐a" d="M50.8 68.99c11.54-1.17 21.93-2.14 31.47-2.73"/></g><g id="kvg:0586b-g6" kvg:position="bottom"><path id="kvg:0586b-s11" kvg:type="㇐" d="M39.09 79.58c1.12.35 3.18.43 4.3.35 6.97-.48 35.63-3.25 48.33-3.24 1.87.0 2.99.17 3.93.34"/><g id="kvg:0586b-g7" kvg:element="八"><path id="kvg:0586b-s12" kvg:type="㇒" d="M57.04 83.72c.04.34.09.87-.09 1.35-1.05 2.84-7.04 9.08-15.26 12.9"/><path id="kvg:0586b-s13" kvg:type="㇏" d="M74.46 85.11c5.77 2.2 14.92 9.03 16.36 12.45"/></g></g></g></g></g></g><g id="kvg:StrokeNumbers_0586b" style="font-size:8;fill:#808080"><text transform="matrix(1 0 0 1 7.25 42.63)">1</text><text transform="matrix(1 0 0 1 19.25 19.05)">2</text><text transform="matrix(1 0 0 1 6.00 79.23)">3</text><text transform="matrix(1 0 0 1 41.50 21.50)">4</text><text transform="matrix(1 0 0 1 55.50 11.50)">5</text><text transform="matrix(1 0 0 1 43.50 44.50)">6</text><text transform="matrix(1 0 0 1 53.75 33.50)">7</text><text transform="matrix(1 0 0 1 55.75 44.85)">8</text><text transform="matrix(1 0 0 1 55.74 54.28)">9</text><text transform="matrix(1 0 0 1 54.09 66.70)">10</text><text transform="matrix(1 0 0 1 36.75 76.50)">11</text><text transform="matrix(1 0 0 1 43.50 89.50)">12</text><text transform="matrix(1 0 0 1 66.50 91.50)">13</text></g></svg>