<!DOCTYPE svg PUBLIC "-//W3C//DTD SVG 1.0//EN" "http://www.w3.org/TR/2001/REC-SVG-20010904/DTD/svg10.dtd" [
<!ATTLIST g
xmlns:kvg CDATA #FIXED "http://kanjivg.tagaini.net"
kvg:element CDATA #IMPLIED
kvg:variant CDATA #IMPLIED
kvg:partial CDATA #IMPLIED
kvg:original CDATA #IMPLIED
kvg:part CDATA #IMPLIED
kvg:number CDATA #IMPLIED
kvg:tradForm CDATA #IMPLIED
kvg:radicalForm CDATA #IMPLIED
kvg:position CDATA #IMPLIED
kvg:radical CDATA #IMPLIED
kvg:phon CDATA #IMPLIED >
<!ATTLIST path
xmlns:kvg CDATA #FIXED "http://kanjivg.tagaini.net"
kvg:type CDATA #IMPLIED >
]><svg xmlns="http://www.w3.org/2000/svg" width="109" height="109" viewBox="0 0 109 109"><g id="kvg:StrokePaths_05872" style="fill:none;stroke:#000000;stroke-width:3;stroke-linecap:round;stroke-linejoin:round;"><g id="kvg:05872" kvg:element="塲"><g id="kvg:05872-g1" kvg:element="土" kvg:position="left" kvg:radical="general"><path id="kvg:05872-s1" kvg:type="㇐" d="M10.75 42.89c.76.38 2.24.4 3 .36 4.75-.25 16.15-2.39 21.5-3 1.25-.14 2.62-.18 3.25.01"/><path id="kvg:05872-s2" kvg:type="㇑a" d="M24.87 15.25c1.09.5 1.74 2.25 1.96 3.25.22 1 0 45.25-.22 51.5"/><path id="kvg:05872-s3" kvg:type="㇐" d="M11.5 76.83c.75 1.17 2.25 1.8 4.5.25 6.25-4.3 12.75-8.28 19-12.58"/></g><g id="kvg:05872-g2" kvg:element="𬀷" kvg:position="right"><g id="kvg:05872-g3" kvg:element="𠂉"><path id="kvg:05872-s4" kvg:type="㇒" d="M56.35 10.5c.03.51.17 1.48-.07 2.04C53 20 49.5 25.25 43.25 33.04"/><path id="kvg:05872-s5" kvg:type="㇐" d="M55 20.93c.83.48 2.47.58 3.31.45 5.31-.83 22.21-2.98 28.11-3.75 1.38-.18 2.89-.23 3.58.01"/></g><g id="kvg:05872-g4" kvg:element="昜"><g id="kvg:05872-g5" kvg:element="旦" kvg:position="top"><g id="kvg:05872-g6" kvg:element="日"><path id="kvg:05872-s6" kvg:type="㇑" d="M53.63 30.12c.27.46.44.7.53 1.3.65 4.25 2.14 17.48 2.23 18.1"/><path id="kvg:05872-s7" kvg:type="㇕a" d="M54.82 30.86c5.12-.6 19.83-2.21 26.39-2.62 1.14-.07 1.82 1.64 1.78 2.11-.49 5.73-.5 9.9-1.58 16.79"/><path id="kvg:05872-s8" kvg:type="㇐a" d="M55.84 39.28c2.03.0 24.34-2.01 26.63-2.01"/><path id="kvg:05872-s9" kvg:type="㇐a" d="M57.21 47.61c4.14-.45 18.1-1.4 23.25-1.79"/></g><g id="kvg:05872-g7" kvg:element="一"><path id="kvg:05872-s10" kvg:type="㇐" d="M42.81 57.56c1.28.3 3.62.4 4.89.3 12.04-.87 33.05-4.31 45.5-4.43 2.13-.02 3.4.15 4.47.3"/></g></g><g id="kvg:05872-g8" kvg:element="勿" kvg:position="bottom"><g id="kvg:05872-g9" kvg:element="勹"><path id="kvg:05872-s11" kvg:type="㇒" d="M56.14 59.73c.04.48.22 1.31-.08 1.94C53.94 66.17 48.5 74 41.46 78.97"/><path id="kvg:05872-s12" kvg:type="㇆" d="M56.29 65.96c.83.45 2 .61 3.34.3 1.33-.3 27.34-3.38 30.68-3.53s4.01 1.51 3.5 4.69C93 72.5 88.75 86.5 82 96.74c-1.87 2.84-3.45-.43-5.42-2.32"/></g><path id="kvg:05872-s13" kvg:type="㇒" d="M62.67 69.72c.05.44.14 1.14-.1 1.76-2.33 6.07-8.72 14.5-17.91 19.48"/><path id="kvg:05872-s14" kvg:type="㇒" d="M78.39 67.54c.08.81.31 2.13-.17 3.24C75.25 77.75 69 88.25 56.88 97.4"/></g></g></g></g></g><g id="kvg:StrokeNumbers_05872" style="font-size:8;fill:#808080"><text transform="matrix(1 0 0 1 4.50 43.13)">1</text><text transform="matrix(1 0 0 1 16.75 16.50)">2</text><text transform="matrix(1 0 0 1 3.50 76.50)">3</text><text transform="matrix(1 0 0 1 48.50 10.50)">4</text><text transform="matrix(1 0 0 1 61.50 18.50)">5</text><text transform="matrix(1 0 0 1 47.75 37.75)">6</text><text transform="matrix(1 0 0 1 56.50 28.50)">7</text><text transform="matrix(1 0 0 1 58.50 37.50)">8</text><text transform="matrix(1 0 0 1 59.50 45.50)">9</text><text transform="matrix(1 0 0 1 42.50 54.50)">10</text><text transform="matrix(1 0 0 1 43.75 67.38)">11</text><text transform="matrix(1 0 0 1 61.50 63.50)">12</text><text transform="matrix(1 0 0 1 52.50 74.50)">13</text><text transform="matrix(1 0 0 1 67.50 73.50)">14</text></g></svg>