<svg xmlns="http://www.w3.org/2000/svg" width="109" height="109" viewBox="0 0 109 109"><g id="kvg:StrokePaths_05885"><g id="kvg:05885" kvg:element="墅"><g id="kvg:05885-g1" kvg:element="野" kvg:position="top"><g id="kvg:05885-g2" kvg:element="里" kvg:position="left"><g id="kvg:05885-g3" kvg:element="日"><path id="kvg:05885-s1" kvg:type="㇑" d="M17.61 17.04c.2.44.2.74.31 1.28.89 4.49 3.4 16.21 3.95 24.51"/><path id="kvg:05885-s2" kvg:type="㇕a" d="M18.02 17.69c8.1-.7 23.38-2.41 29.43-3.03 2.22-.23 3.36 1.04 3.24 2.26-.42 4.45-2.9 16.08-4.25 23.17"/><path id="kvg:05885-s3" kvg:type="㇐a" d="M20.92 28.71c2.64-.3 25.82-2.31 28-2.37"/><path id="kvg:05885-s4" kvg:type="㇐a" d="M21.78 40.64c5.83-.18 16.61-2.33 24.66-2.69"/></g><path id="kvg:05885-s5" kvg:type="㇑a" d="M33.5 18.7c1 .55 1.08 1.33 1.1 3.3.15 11.68.03 37.41.03 40.7"/><path id="kvg:05885-s6" kvg:type="㇐" d="M16.95 51.75c.93.0 3.46.38 4.41.3 5.52-.47 15.73-2.44 22.51-2.99 1.02-.08 3.45-.16 4.41-.2"/><path id="kvg:05885-s7" kvg:type="㇀/㇐" d="M15 65.32c1.16 1.55 1.25 2.18 4.37 1.55 1.97-.39 21.71-5.82 29.98-8.17"/></g><g id="kvg:05885-g4" kvg:element="予" kvg:position="right"><path id="kvg:05885-s8" kvg:type="㇇" d="M56.75 13.89c1.02.83 2.4 1.74 3.56 1.53 2.29-.42 21.85-2.28 24.27-2.69 2.41-.42 2.74 1.26 1.3 2.62C83.4 17.69 77 23.5 72.98 26.4"/><path id="kvg:05885-s9" kvg:type="㇔" d="M64.42 21.67c2.51 1.01 9.01 4.92 10.19 7.57"/><g id="kvg:05885-g5" kvg:element="了"><path id="kvg:05885-s10" kvg:type="㇇a" d="M53.57 33.82c.77.5 2.25 1.44 5.42.9s27.79-4.1 30.31-4.48c8.2-1.24 1.95 5.01-2.52 9.66"/><g id="kvg:05885-g6" kvg:element="亅"><path id="kvg:05885-s11" kvg:type="㇚" d="M72.41 35.1c.84.9 1.67 2.06 1.67 3.4.0 1.34-.62 23.25-.62 25.7.01 7.44-4.46 3.05-6.55.83"/></g></g></g></g><g id="kvg:05885-g7" kvg:element="土" kvg:position="bottom" kvg:radical="general"><path id="kvg:05885-s12" kvg:type="㇐" d="M28.63 79.95c1.08.3 3.07.34 4.15.3 8.4-.25 35.42-3.48 45.56-3.48 1.8.0 2.89.14 3.79.3"/><path id="kvg:05885-s13" kvg:type="㇑a" d="M52.42 63.62c.12.23 1.81 1.21 1.77 2.69-.19 8.45.06 25.78.06 28.2"/><path id="kvg:05885-s14" kvg:type="㇐" d="M17.88 96.36c1.52.43 4.31.5 5.82.43 16.05-.79 43.8-4.04 63.11-3.15 2.53.12 4.05.2 5.31.42"/></g></g></g></svg>