<svg xmlns="http://www.w3.org/2000/svg" width="109" height="109" viewBox="0 0 109 109"><g id="kvg:StrokePaths_0589f" style="fill:none;stroke:#000000;stroke-width:3;stroke-linecap:round;stroke-linejoin:round;"><g id="kvg:0589f" kvg:element="墟"><g id="kvg:0589f-g1" kvg:element="土" kvg:variant="true" kvg:position="left" kvg:radical="general"><path id="kvg:0589f-s1" kvg:type="㇐" d="M11.5 44.64c.76.38 2.24.46 3 .36 4.82-.66 15.15-1.89 20.5-2.5 1.25-.14 2.62-.18 3.25.01"/><path id="kvg:0589f-s2" kvg:type="㇑a" d="M23.37 18.5c1.09.5 1.96 2.23 1.96 3.25.0 7.25.03 38.75.03 49.5"/><path id="kvg:0589f-s3" kvg:type="㇀/㇐" d="M12 78.76c.7.99 2.59 1.02 4.68-.29 5.81-3.62 15.76-9.6 21.57-13.22"/></g><g id="kvg:0589f-g2" kvg:element="虚" kvg:variant="true" kvg:position="right"><g id="kvg:0589f-g3" kvg:element="虍" kvg:position="tare"><path id="kvg:0589f-s4" kvg:type="㇑a" d="M64.09 10.58c.91.92 1.62 1.99 1.62 5.02.0 5.9-.02 8.19-.02 13.15"/><path id="kvg:0589f-s5" kvg:type="㇐b" d="M65.66 20.17c4.91-.93 10.9-2.01 15.45-2.68 1.54-.23 2.48.2 3.25.42"/><path id="kvg:0589f-s6" kvg:type="㇒" d="M45.18 30.18c.54.58 1.05 2.74 1.1 4.82C46.75 57.25 46 77 32.5 93.75"/><path id="kvg:0589f-s7" kvg:type="㇖a" d="M45.81 31.68c.97.16 1.23.41 2.8.17 11.2-1.73 31.46-4.88 41.05-5.02 10.11-.15 2.14 5.72-.38 7.53"/><g id="kvg:0589f-g4" kvg:element="七"><g id="kvg:0589f-g5" kvg:element="一"><path id="kvg:0589f-s8" kvg:type="㇐" d="M52.63 43.69c.65.37 2.24.45 2.9.37 6.72-.81 20.1-2.57 27.13-3.47 1.08-.14 1.73.18 2.28.36"/></g><path id="kvg:0589f-s9" kvg:type="㇟a" d="M65.47 33.68c.43.45 1.01 2.22 1.01 2.84.0 4.98-.08 7.14-.08 9.37.0 6.61 3.85 6.61 10.07 6.61 2.31.0 11.37.0 13.36-.89"/></g></g><g id="kvg:0589f-g6" kvg:element="业" kvg:position="tarec"><g id="kvg:0589f-g7" kvg:element="丱"><g id="kvg:0589f-g8" kvg:position="left"><path id="kvg:0589f-s10" kvg:type="㇄" d="M51.86 65.99c.61.4 1.03 1.87 1.08 3.2.09 2.4-.17 6.24-.56 11.05-.08.94.5 1.58 1.78 1.2 4.09-1.2 8.76-1.6 10.44-1.7"/><g id="kvg:0589f-g9" kvg:element="丿" kvg:variant="true"><path id="kvg:0589f-s11" kvg:type="㇑" d="M63.14 58.33c.76.86 1.29 1.87 1.35 4.73.31 13.72-.2 26.23-.2 30.9"/></g></g><g id="kvg:0589f-g10" kvg:position="right"><g id="kvg:0589f-g11" kvg:element="丨"><path id="kvg:0589f-s12" kvg:type="㇑" d="M88.68 63.33c.61.4 1.08 1.87 1.08 3.2.0 3.67-1.44 10-1.44 14.93"/></g><path id="kvg:0589f-s13" kvg:type="㇐" d="M76.546186 78.772595c2.460509-.155264 8.539916-.613125 10.917628-.670858"/><path id="kvg:0589f-s14" kvg:type="㇑" d="M74.6 58.58c.75.85 1.27 1.85 1.33 4.66.31 13.52-.19 25.37-.19 29.97"/></g></g><g id="kvg:0589f-g12" kvg:element="一"><path id="kvg:0589f-s15" kvg:type="㇐" d="M42.38 96.32c1.08.42 3.07.62 4.14.42 4.37-.81 39.17-2.95 49.44-2.95 1.8.0 2.88.2 3.78.41"/></g></g></g></g></g></svg>