<!DOCTYPE svg PUBLIC "-//W3C//DTD SVG 1.0//EN" "http://www.w3.org/TR/2001/REC-SVG-20010904/DTD/svg10.dtd" [
<!ATTLIST g
xmlns:kvg CDATA #FIXED "http://kanjivg.tagaini.net"
kvg:element CDATA #IMPLIED
kvg:variant CDATA #IMPLIED
kvg:partial CDATA #IMPLIED
kvg:original CDATA #IMPLIED
kvg:part CDATA #IMPLIED
kvg:number CDATA #IMPLIED
kvg:tradForm CDATA #IMPLIED
kvg:radicalForm CDATA #IMPLIED
kvg:position CDATA #IMPLIED
kvg:radical CDATA #IMPLIED
kvg:phon CDATA #IMPLIED >
<!ATTLIST path
xmlns:kvg CDATA #FIXED "http://kanjivg.tagaini.net"
kvg:type CDATA #IMPLIED >
]><svg xmlns="http://www.w3.org/2000/svg" width="109" height="109" viewBox="0 0 109 109"><g id="kvg:StrokePaths_058a8" style="fill:none;stroke:#000000;stroke-width:3;stroke-linecap:round;stroke-linejoin:round;"><g id="kvg:058a8" kvg:element="墨"><g id="kvg:058a8-g1" kvg:element="黒" kvg:variant="true" kvg:original="黑" kvg:position="top" kvg:radical="nelson" kvg:phon="黒"><g id="kvg:058a8-g2" kvg:element="里" kvg:position="top"><g id="kvg:058a8-g3" kvg:element="日"><path id="kvg:058a8-s1" kvg:type="㇑" d="M27.61 14.13c.41.41.92 1.58 1.15 2.09 1.53 3.46 2.64 10.9 3.62 17.8.21 1.48.42 2.93.62 4.31"/><path id="kvg:058a8-s2" kvg:type="㇕a" d="M29.87 15.79c13.42-1.47 34.16-3.02 45.52-3.76 4.17-.27 6.52.51 5.48 5.15-.85 3.8-2.39 9.71-4.18 14.89-.54 1.58-1.09 3.07-1.61 4.39"/><path id="kvg:058a8-s3" kvg:type="㇐a" d="M32.32 26.76c10.31-1.13 35.06-3.26 45.56-3.63"/><path id="kvg:058a8-s4" kvg:type="㇐a" d="M33.97 36.76c10.78-.88 27.81-2.52 40.87-3.19"/></g><path id="kvg:058a8-s5" kvg:type="㇑a" d="M52.77 16.19c.89.89 1.35 2.19 1.35 3.48.0 9.08-.11 31.68-.11 34.72"/><path id="kvg:058a8-s6" kvg:type="㇐" d="M34.88 45.31c2.08.62 4.24.49 6.37.37 7.32-.41 17.01-1.64 25.88-2.21 2.12-.14 4.21-.34 6.31.04"/><path id="kvg:058a8-s7" kvg:type="㇐" d="M26.13 56.71c2.71.86 5.74.41 8.49.24 12.57-.81 26.02-2.27 43-2.43 2.43-.02 4.85.2 7.25.66"/></g><g id="kvg:058a8-g4" kvg:element="灬" kvg:variant="true" kvg:original="火" kvg:position="bottom"><path id="kvg:058a8-s8" kvg:type="㇔" d="M23.06 65.49c-1.14 4.87-6.59 10.54-8.06 11.76"/><path id="kvg:058a8-s9" kvg:type="㇔" d="M38.02 63.69c2.14 1.4 4.35 4.68 5.2 7.68"/><path id="kvg:058a8-s10" kvg:type="㇔" d="M61.25 61.4c2.65 1.49 5 5.1 6 7.93"/><path id="kvg:058a8-s11" kvg:type="㇔" d="M83.46 61.32c4 2.13 9.85 8.78 10.85 12.11"/></g></g><g id="kvg:058a8-g5" kvg:element="土" kvg:position="bottom" kvg:radical="tradit"><path id="kvg:058a8-s12" kvg:type="㇐" d="M33.19 81.83c1.93.75 4.81.43 6.8.24 9.46-.9 21.3-1.96 30.88-2.39 2.34-.11 4.73-.36 7.03.19"/><path id="kvg:058a8-s13" kvg:type="㇑a" d="M53.14 68.77c.79.79 1.07 2.23 1.07 3.75.0 10.62-.07 7.66-.07 21.7"/><path id="kvg:058a8-s14" kvg:type="㇐" d="M20.24 96.64c2.77.99 6.13.93 9.01.66 15.72-1.49 37.08-2.69 51.25-3.34 3.26-.15 6.36.08 9.52.75"/></g></g></g><g id="kvg:StrokeNumbers_058a8" style="font-size:8;fill:#808080"><text transform="matrix(1 0 0 1 23.25 24.13)">1</text><text transform="matrix(1 0 0 1 32.25 12.13)">2</text><text transform="matrix(1 0 0 1 35.50 23.50)">3</text><text transform="matrix(1 0 0 1 35.50 34.50)">4</text><text transform="matrix(1 0 0 1 47.50 22.50)">5</text><text transform="matrix(1 0 0 1 27.75 46.63)">6</text><text transform="matrix(1 0 0 1 19.50 57.50)">7</text><text transform="matrix(1 0 0 1 15.75 67.48)">8</text><text transform="matrix(1 0 0 1 31.50 66.50)">9</text><text transform="matrix(1 0 0 1 51.50 63.50)">10</text><text transform="matrix(1 0 0 1 74.25 64.50)">11</text><text transform="matrix(1 0 0 1 22.50 83.50)">12</text><text transform="matrix(1 0 0 1 44.50 74.50)">13</text><text transform="matrix(1 0 0 1 9.50 97.50)">14</text></g></svg>