<svg xmlns="http://www.w3.org/2000/svg" width="109" height="109" viewBox="0 0 109 109"><g id="kvg:StrokePaths_058b8" style="fill:none;stroke:#000000;stroke-width:3;stroke-linecap:round;stroke-linejoin:round;"><g id="kvg:058b8" kvg:element="墸"><g id="kvg:058b8-g1" kvg:element="土" kvg:variant="true" kvg:position="left" kvg:radical="general"><path id="kvg:058b8-s1" kvg:type="㇐" d="M12.5 40.89c.76.38 2.24.46 3 .36 4.82-.66 14.65-1.89 20-2.5 1.25-.14 2.62-.18 3.25.01"/><path id="kvg:058b8-s2" kvg:type="㇑a" d="M24.87 13.75c1.09.5 1.96 2.23 1.96 3.25.0 7.25.03 40.25.03 51"/><path id="kvg:058b8-s3" kvg:type="㇀/㇐" d="M12.5 75.76c.7.99 2.11 1.52 4.22.21 5.86-3.62 16.42-10.1 22.28-13.72"/></g><g id="kvg:058b8-g2" kvg:element="著" kvg:variant="true" kvg:position="right"><g id="kvg:058b8-g3" kvg:element="艹" kvg:variant="true" kvg:original="艸" kvg:position="top"><path id="kvg:058b8-s4" kvg:type="㇐" d="M40.97 21.94c.99.31 2.14.37 3.13.31 9.08-.56 35.76-3.48 46.22-3.52 1.64-.01 2.63.15 3.45.3"/><path id="kvg:058b8-s5" kvg:type="㇑a" d="M53.1 12.68c1.32 1.07 1.75 1.4 1.89 2.06 1.32 6.17 1.46 12.02 1.83 14.26"/><path id="kvg:058b8-s6" kvg:type="㇑a" d="M78.18 10.25c.32.88.57 1.5.38 2.62C77.5 19 77.25 21 75.77 27.88"/></g><g id="kvg:058b8-g4" kvg:element="者" kvg:variant="true" kvg:position="bottom"><g id="kvg:058b8-g5" kvg:element="耂" kvg:original="老" kvg:partial="true"><g id="kvg:058b8-g6" kvg:element="土"><path id="kvg:058b8-s7" kvg:type="㇐" d="M49.04 39.17c.57.23 1.62.27 2.19.23 6.49-.38 18.49-2.17 24.89-2.33.95-.02 1.52.11 2 .23"/><path id="kvg:058b8-s8" kvg:type="㇑a" d="M64.27 28.87c.08.2 1.1 1.04 1.18 2.3.38 6.06.21 18.88.21 20.94"/><path id="kvg:058b8-s9" kvg:type="㇐" d="M40.69 54.06c1.16.38 2.94.62 4 .57 7.81-.37 40.55-4.3 47.29-4.47 1.74-.04 2.78.27 3.65.56"/></g><path id="kvg:058b8-s10" kvg:type="㇒" d="M85.29 32.88c.14 1.04.26 2.49-.73 3.71-12.71 15.8-24.71 27.55-47.9 42.16"/></g><path id="kvg:058b8-s11" kvg:type="㇔" d="M75.1 54.98c2.55 1.02 6.6 4.21 7.24 5.8"/><g id="kvg:058b8-g7" kvg:element="日"><path id="kvg:058b8-s12" kvg:type="㇑" d="M58.7 66.73c.3.73.6 1.1.6 2.07s-.2 28.49-.2 28.97"/><path id="kvg:058b8-s13" kvg:type="㇕a" d="M59.8 68.55c1.7-.12 23.25-2.11 24.79-2.26 1.29-.12 2.12 1.35 2.02 2.07-.2 1.46-.3 17.65-.3 28.37"/><path id="kvg:058b8-s14" kvg:type="㇐a" d="M59.62 80.97c5.24.0 23.79-1.84 26.39-1.84"/><path id="kvg:058b8-s15" kvg:type="㇐a" d="M59.52 94.8c6.31.0 19.35-1.08 26.49-1.1"/></g></g></g></g></g></svg>