<svg xmlns="http://www.w3.org/2000/svg" width="109" height="109" viewBox="0 0 109 109"><g id="kvg:StrokePaths_058be" style="fill:none;stroke:#000000;stroke-width:3;stroke-linecap:round;stroke-linejoin:round;"><g id="kvg:058be" kvg:element="墾"><g id="kvg:058be-g1" kvg:position="top" kvg:phon="豸+艮"><g id="kvg:058be-g2" kvg:element="豸" kvg:position="left"><path id="kvg:058be-s1" kvg:type="㇒" d="M40.65 11.25c-.15 1.12-1.06 1.8-1.7 2.25-5.89 4.04-11.41 6.29-25.42 11.03"/><path id="kvg:058be-s2" kvg:type="㇔" d="M15.56 26.67c2.14 1.47 5.53 6.05 6.07 8.33"/><path id="kvg:058be-s3" kvg:type="㇔" d="M27.82 22.46c1.76 1.11 4.54 4.56 4.98 6.29"/><path id="kvg:058be-s4" kvg:type="㇒" d="M46.28 22.42c.16 1.07-.48 2.4-1.16 3.08-6.37 6.39-15.21 13.15-27.88 18.78"/><path id="kvg:058be-s5" kvg:type="㇁" d="M33.81 35.25c7.44 5.5 12.9 19.57 6.98 32.1-3.45 7.3-6.88 1.17-7.77.54"/><path id="kvg:058be-s6" kvg:type="㇒" d="M35.71 42.58c.13.76-.02 1.44-.46 2.04-1.86 2.99-8.12 7.86-17.58 12.48"/><path id="kvg:058be-s7" kvg:type="㇒" d="M38.68 51.58c-.05.92-.32 1.46-1.06 2.27-3.27 3.58-10.25 8.74-20.51 13.06"/></g><g id="kvg:058be-g3" kvg:element="艮" kvg:position="right"><path id="kvg:058be-s8" kvg:type="㇕" d="M55.67 16.18c1.08.57 2.65.83 4.61.62 4.37-.47 11.82-1.4 15.98-1.87 2.85-.33 5.02-.68 4.76 2.84-.28 3.75-.64 10.81-1.36 15.26-.28 1.75-.54 3.14-.73 3.8"/><path id="kvg:058be-s9" kvg:type="㇐a" d="M59 26.97c4.4-.43 16.32-1.89 20.54-2.24"/><path id="kvg:058be-s10" kvg:type="㇐a" d="M59.12 37.27c6.03-.69 12.65-1.44 19.21-2.1"/><path id="kvg:058be-s11" kvg:type="㇙" d="M56.78 17.03c.79.79 1.04 1.97 1.04 3.31.0.89-.05 40.55-.05 42.72.0 2.56.75 2.89 3.01 1.2 3.35-2.51 7.14-5.67 9.13-7.62"/><path id="kvg:058be-s12" kvg:type="㇒" d="M86.3 37.93c-.05 1.07-.53 2.14-1.3 2.94-2.5 2.62-5.89 4.5-7.92 6.05"/><path id="kvg:058be-s13" kvg:type="㇏" d="M63.8 38.93c2.75 1.19 13.69 12.63 20.52 18.5 2.58 2.22 5.18 4.19 8.47 5.93"/></g></g><g id="kvg:058be-g4" kvg:element="土" kvg:position="bottom" kvg:radical="general"><path id="kvg:058be-s14" kvg:type="㇐" d="M32.52 78.79c2.48.58 5.21.42 7.23.23 8.81-.85 18.74-1.53 27.63-1.89 2.41-.1 4.9-.39 7.26.21"/><path id="kvg:058be-s15" kvg:type="㇑a" d="M52.69 69.34c.8.8 1.3 1.95 1.3 3.72.0 3.44-.07 13.44-.07 18.54"/><path id="kvg:058be-s16" kvg:type="㇐" d="M18.44 93.53c3.81.85 6.76.85 9.68.6 17.12-1.5 35.5-2.13 50.14-2.26 3.83-.03 7.13.1 10.8.96"/></g></g></g></svg>