<svg xmlns="http://www.w3.org/2000/svg" width="109" height="109" viewBox="0 0 109 109"><g id="kvg:StrokePaths_058c1" style="fill:none;stroke:#000000;stroke-width:3;stroke-linecap:round;stroke-linejoin:round;"><g id="kvg:058c1" kvg:element="壁"><g id="kvg:058c1-g1" kvg:element="辟" kvg:position="top" kvg:phon="辟"><g id="kvg:058c1-g2"><g id="kvg:058c1-g3" kvg:element="𡰪"><g id="kvg:058c1-g4" kvg:element="尸" kvg:position="tare"><path id="kvg:058c1-s1" kvg:type="㇕c" d="M20.63 19.9c1.13.34 2.58.52 3.77.33 5.95-.96 12.79-1.99 16.84-2.56 2.93-.42 5.39-.46 4.29 3.17-.73 2.39-1.28 4.92-2.13 9.29"/><path id="kvg:058c1-s2" kvg:type="㇐b" d="M24.92 33.35c2.72-.1 9.08-1.27 16.31-2.01C42.62 31.2 44 31.08 45.34 31"/><path id="kvg:058c1-s3" kvg:type="㇒" d="M23.4 20.75c.99.99 1 2.04.98 3.71-.18 12.05-4.47 29.6-12.83 37.33"/></g><g id="kvg:058c1-g5" kvg:element="口" kvg:position="tarec"><path id="kvg:058c1-s4" kvg:type="㇑" d="M24.09 45.12c.7.7 1.12 1.95 1.28 3 .35 2.34 1.12 6.05 1.59 10.1.19 1.59.35 3.18.48 4.64"/><path id="kvg:058c1-s5" kvg:type="㇕b" d="M26.06 46.24c3.2-.49 10.54-1.92 14.94-2.5 3.28-.43 4.15.35 3.39 3.73-.71 3.16-1.35 6.04-1.84 9.82"/><path id="kvg:058c1-s6" kvg:type="㇐b" d="M28.41 59.95c2.4-.19 7.25-.85 11.6-1.31 1.57-.17 2.99-.31 4.03-.4"/></g></g></g><g id="kvg:058c1-g6" kvg:element="辛" kvg:position="right"><g id="kvg:058c1-g7" kvg:element="立" kvg:position="top"><g id="kvg:058c1-g8" kvg:element="亠" kvg:position="top"><path id="kvg:058c1-s7" kvg:type="㇑a" d="M68.5 11.34c.89.89 1.13 1.79 1.13 3.55.0 2.14.0 3.46.0 6.27"/><path id="kvg:058c1-s8" kvg:type="㇐" d="M55.11 22.91c1.66.71 4.25.82 6.02.62 5.67-.64 13.75-1.65 21.36-2.69.7-.1 1.39-.1 2.03-.12 1.57-.06 2.51-.06 3.29.15"/></g><g id="kvg:058c1-g9" kvg:position="bottom"><path id="kvg:058c1-s9" kvg:type="㇔" d="M60.38 27.38c2.48 3.21 3.6 6.5 3.83 8.62"/><path id="kvg:058c1-s10" kvg:type="㇒" d="M80.5 24.18c.53.39.18 1.83.03 2.12C79 29.25 77.05 34.29 76 35.97"/><path id="kvg:058c1-s11" kvg:type="㇐" d="M51.97 39.31c1.18.45 2.56.49 3.74.45C63.25 39.5 78 36.5 86.83 36.24c1.97-.06 3.15.22 4.14.44"/></g></g><g id="kvg:058c1-g10" kvg:element="十" kvg:position="bottom"><path id="kvg:058c1-s12" kvg:type="㇐" d="M52.83 52.31c.97.27 2.76.34 3.73.27 12.36-.89 19.3-2.2 30.76-2.77 1.62-.08 2.59.13 3.4.27"/><path id="kvg:058c1-s13" kvg:type="㇑" d="M69.76 41.07c.44.28 1.47 2.08 1.47 2.64.0 5.99-.09 13.74-.13 19.29-.01 1.66-.02 3.13-.02 4.29"/></g></g></g><g id="kvg:058c1-g11" kvg:element="土" kvg:position="bottom" kvg:radical="general"><path id="kvg:058c1-s14" kvg:type="㇐" d="M29.36 77.78c.94.37 2.66.46 3.6.37 12.07-1.24 30.72-3.38 42.87-3.7 1.57-.04 2.51.17 3.29.36"/><path id="kvg:058c1-s15" kvg:type="㇑a" d="M53.1 63.62c.12.28 1.7 1.46 1.7 3.24.0 11.48-.34 10.95-.34 26.14"/><path id="kvg:058c1-s16" kvg:type="㇐" d="M17.59 95.25c1.45.52 4.12.63 5.57.52 18-1.45 47.57-3.82 63.66-4.5 2.42-.1 3.88.25 5.09.51"/></g></g></g></svg>