<svg xmlns="http://www.w3.org/2000/svg" width="109" height="109" viewBox="0 0 109 109"><g id="kvg:StrokePaths_058df"><g id="kvg:058df" kvg:element="壟"><g id="kvg:058df-g1" kvg:element="龍" kvg:position="top" kvg:radical="nelson"><g id="kvg:058df-g2" kvg:position="left"><g id="kvg:058df-g3" kvg:element="立" kvg:position="top"><g id="kvg:058df-g4" kvg:element="亠" kvg:position="top"><path id="kvg:058df-s1" kvg:type="㇑a" d="M32.33 10.75c.54.42 1.35 1.36 1.35 2.44.0 1.48.0 5.83.0 8.17"/><path id="kvg:058df-s2" kvg:type="㇐" d="M17.71 22.81c.58.21 2.59.24 3.17.21 3.29-.18 22.05-2.51 27.03-2.66.97-.03 1.56.1 2.04.2"/></g><g id="kvg:058df-g5" kvg:position="bottom"><path id="kvg:058df-s3" kvg:type="㇔" d="M24.51 25.49c1.99 2.71 2.89 5.48 3.07 7.26"/><path id="kvg:058df-s4" kvg:type="㇒" d="M42.37 23.05c.46.3.52 1.14.46 1.39-.37 1.72-4.24 6.84-5.17 8.16"/><path id="kvg:058df-s5" kvg:type="㇐" d="M14.31 35.98c.7.29 1.52.32 2.23.29 8.36-.43 24.77-3.68 33.63-4.27 1.17-.08 1.87.14 2.46.28"/></g></g><g id="kvg:058df-g6" kvg:element="月" kvg:position="bottom"><path id="kvg:058df-s6" kvg:type="㇑" d="M23.62 41.8c.41.43.69 2.35.82 2.78.14.43.19 26.77.14 27.73"/><path id="kvg:058df-s7" kvg:type="㇕" d="M25.26 42.73c1.65-.11 16.75-2.91 17.98-3.03 2.2-.21 3.02 1.39 2.74 2.03-.26.62-.41 14.43-.41 23.08.0 7.67-2.98 4.31-5.99 1.98"/><path id="kvg:058df-s8" kvg:type="㇐" d="M25.26 50.61c5.63-.64 14.82-2.26 19.76-2.58"/><path id="kvg:058df-s9" kvg:type="㇐" d="M25.67 58.37c4.39-.32 14-2.28 19.08-2.49"/></g></g><g id="kvg:058df-g7" kvg:position="right"><path id="kvg:058df-s10" kvg:type="㇐" d="M62.75 20.24c4.2-.36 16.29-2.7 21.04-3.36 1.08-.15 1.76.1 2.3.2"/><path id="kvg:058df-s11" kvg:type="㇞" d="M61.01 12.91c1.23.72 1.58 2.48 1.6 3.49.04 2.13-.18 7.77-.3 10.71-.03.64.25 1.42 2.48 1.12 4.92-.66 11.58-1.5 17-2.38 3.07-.49 3.16.55 2.67 1.65-.93 2.11-1.52 5.24-2.47 8.93"/><path id="kvg:058df-s12" kvg:type="㇐" d="M63.43 38.64c4.2-.36 15.01-1.7 20.86-2.02"/><path id="kvg:058df-s13" kvg:type="㇟" d="M61.87 37.52c.65.81 1.17 1.76 1.21 3.01.18 5.57-.47 16.77-.47 20.56.0 8.85 7.85 7.85 15.58 7.85 12.34.0 13.13-1.89 13.13-6.21"/><path id="kvg:058df-s14" kvg:type="㇐" d="M63.65 47.3c4.2-.36 14.17-1.86 18.92-2.52 1.08-.15 1.76.1 2.3.2"/><path id="kvg:058df-s15" kvg:type="㇐" d="M63.43 53.74c4.2-.36 13.99-1.52 18.74-2.18 1.08-.15 1.76.1 2.31.2"/><path id="kvg:058df-s16" kvg:type="㇐" d="M62.99 60.55c4.2-.36 14.31-1.36 19.06-2.02 1.08-.15 1.76.1 2.31.2"/></g></g><g id="kvg:058df-g8" kvg:element="土" kvg:position="bottom" kvg:radical="tradit"><path id="kvg:058df-s17" kvg:type="㇐" d="M31.5 82.94c1.21.46 3.44.59 4.66.46 15.61-1.57 22.44-2.91 38.16-3.32 2.03-.05 3.24.22 4.25.45"/><path id="kvg:058df-s18" kvg:type="㇑a" d="M52.77 67.5c.12.3 1.83 1.57 1.83 3.5.0 5-.37 18.5-.37 23.91"/><path id="kvg:058df-s19" kvg:type="㇐" d="M21.17 97.05c1.46.52 4.14.64 5.6.52 18.08-1.46 44.28-3.3 60.45-3.99 2.43-.1 3.89.25 5.11.51"/></g></g></g></svg>