<svg xmlns="http://www.w3.org/2000/svg" width="109" height="109" viewBox="0 0 109 109"><g id="kvg:StrokePaths_058d3"><g id="kvg:058d3" kvg:element="壓"><g id="kvg:058d3-g1" kvg:element="厭" kvg:position="top"><g id="kvg:058d3-g2" kvg:element="厂" kvg:position="tare" kvg:radical="nelson"><path id="kvg:058d3-s1" kvg:type="㇐" d="M20.84 16.61c1.36.39 3.85.45 5.21.39 14.15-.65 40.53-3.46 54.24-3.97 2.26-.08 3.62.19 4.76.38"/><path id="kvg:058d3-s2" kvg:type="㇒" d="M24.12 17.17c.42 1.13.42 1.43.35 3.28-.56 14.81-2.02 38.36-10.92 50.96"/></g><g id="kvg:058d3-g3" kvg:position="tarec"><g id="kvg:058d3-g4" kvg:position="left"><g id="kvg:058d3-g5" kvg:element="日" kvg:position="top"><path id="kvg:058d3-s3" kvg:type="㇑" d="M30.76 22.65c.28.31.48.82.56 1.23.27 1.41 2.3 12.25 2.3 12.47"/><path id="kvg:058d3-s4" kvg:type="㇕a" d="M31.78 23.47c1.57-.05 18.43-2.24 19.86-2.3 1.19-.05 1.96 1.58 1.87 1.89-.19.63-1.11 11.25-1.11 11.56"/><path id="kvg:058d3-s5" kvg:type="㇐a" d="M32.47 29.24c2.13.0 17.71-2.09 20.11-2.09"/><path id="kvg:058d3-s6" kvg:type="㇐a" d="M34.26 35.18c5.1-.17 12.38-1.56 17.3-1.65"/></g><g id="kvg:058d3-g6" kvg:element="月" kvg:position="bottom"><path id="kvg:058d3-s7" kvg:type="㇑" d="M32.46 41.74c.35.41.71 1.16.71 1.57.0 2.88.12 22.82.12 26.01"/><path id="kvg:058d3-s8" kvg:type="㇆a" d="M33.87 42.15c1.41-.1 14.52-1.33 15.57-1.44 1.88-.21 2.59 1.34 2.35 1.96-.23.59-.35 13.41-.35 21.75.0 7.05-3.42 2.47-5.27.93"/><path id="kvg:058d3-s9" kvg:type="㇐a" d="M33.87 49.96c4.43-.21 12.87-1.03 17.1-1.34"/><path id="kvg:058d3-s10" kvg:type="㇐a" d="M33.54 57.03c3.77-.31 12.84-.75 17.2-.96"/></g></g><g id="kvg:058d3-g7" kvg:element="犬" kvg:position="right"><g id="kvg:058d3-g8" kvg:element="大"><path id="kvg:058d3-s11" kvg:type="㇐" d="M57.18 37.41c.4.16 1.76.35 2.53.26 4.03-.48 18-2.42 22.86-2.75.55-.04 1.34.06 2.58.33"/><path id="kvg:058d3-s12" kvg:type="㇒" d="M67.48 20.22c.35.65.57 1.3.61 2.6.62 17-1.93 36.01-12.32 43.55"/><path id="kvg:058d3-s13" kvg:type="㇏" d="M69.04 38.75c4.45 6.94 13.1 18.68 18.78 23.63 1.49 1.3 2.04 1.47 2.72 1.59"/></g><g id="kvg:058d3-g9" kvg:element="丶"><path id="kvg:058d3-s14" kvg:type="㇔" d="M76.94 20.68c3.75 2.67 4.78 4.71 5.94 7.22"/></g></g></g></g><g id="kvg:058d3-g10" kvg:element="土" kvg:position="bottom" kvg:radical="tradit"><path id="kvg:058d3-s15" kvg:type="㇐" d="M30.75 81.47c.91.25 2.59.31 3.51.25 11.76-.85 32.27-2.63 44.11-2.85 1.52-.03 2.44.12 3.2.24"/><path id="kvg:058d3-s16" kvg:type="㇑a" d="M54.49 71c.11.26 1.58 1.36 1.58 3.02.0 3.48-.32 15.98-.32 19.98"/><path id="kvg:058d3-s17" kvg:type="㇐" d="M19.98 95.62c1.36.3 3.86.37 5.22.3 16.87-.85 48.72-2.53 63.81-2.93 2.27-.06 3.63.14 4.77.3"/></g></g></g></svg>