<svg xmlns="http://www.w3.org/2000/svg" width="109" height="109" viewBox="0 0 109 109"><g id="kvg:StrokePaths_058ee" style="fill:none;stroke:#000000;stroke-width:3;stroke-linecap:round;stroke-linejoin:round;"><g id="kvg:058ee" kvg:element="壮"><g id="kvg:058ee-g1" kvg:element="⺦" kvg:variant="true" kvg:original="爿" kvg:position="left" kvg:radical="nelson" kvg:phon="丬"><path id="kvg:058ee-s1" kvg:type="㇑" d="M34.12 16.25c1.19 1.19 1.46 3 1.46 4.5.0.65.04 45.06.04 65 0 5.58.0 9.25-.01 9.5"/><path id="kvg:058ee-s2" kvg:type="㇔" d="M13.88 30.25C17.9 32.68 24.25 40.23 25.26 44"/><path id="kvg:058ee-s3" kvg:type="㇀" d="M12.5 76.3c1.88.95 3.08.2 4.34-.76 3.66-2.8 7.33-6.22 10.66-9.78"/></g><g id="kvg:058ee-g2" kvg:element="士" kvg:position="right" kvg:radical="tradit"><path id="kvg:058ee-s4" kvg:type="㇐" d="M44.63 46.23c2.12.65 5.24.48 7.25.18 11.12-1.65 26.75-3.78 38.5-4.62 1.96-.14 4.25-.15 6.25.29"/><path id="kvg:058ee-s5" kvg:type="㇑a" d="M69 17.25c1.19 1.19 1.75 2.75 1.75 4.75.0 1.03.0 45.25.0 60.5"/><path id="kvg:058ee-s6" kvg:type="㇐" d="M47.5 83.75c2.88.75 4.73.7 7.25.46 10.56-1 22.05-2.24 33.26-2.41 2.12-.03 4.53.11 6.61.59"/></g></g></g></svg>