<!DOCTYPE svg PUBLIC "-//W3C//DTD SVG 1.0//EN" "http://www.w3.org/TR/2001/REC-SVG-20010904/DTD/svg10.dtd" [
<!ATTLIST g
xmlns:kvg CDATA #FIXED "http://kanjivg.tagaini.net"
kvg:element CDATA #IMPLIED
kvg:variant CDATA #IMPLIED
kvg:partial CDATA #IMPLIED
kvg:original CDATA #IMPLIED
kvg:part CDATA #IMPLIED
kvg:number CDATA #IMPLIED
kvg:tradForm CDATA #IMPLIED
kvg:radicalForm CDATA #IMPLIED
kvg:position CDATA #IMPLIED
kvg:radical CDATA #IMPLIED
kvg:phon CDATA #IMPLIED >
<!ATTLIST path
xmlns:kvg CDATA #FIXED "http://kanjivg.tagaini.net"
kvg:type CDATA #IMPLIED >
]><svg xmlns="http://www.w3.org/2000/svg" width="109" height="109" viewBox="0 0 109 109"><g id="kvg:StrokePaths_058ec" style="fill:none;stroke:#000000;stroke-width:3;stroke-linecap:round;stroke-linejoin:round;"><g id="kvg:058ec" kvg:element="壬"><g id="kvg:058ec-g1" kvg:element="玉" kvg:variant="true" kvg:radical="nelson"><g id="kvg:058ec-g2" kvg:element="丿"><path id="kvg:058ec-s1" kvg:type="㇒" d="M76.68 14.5c-.68 1.5-1.45 2.31-2.28 2.83-10.36 6.41-23.92 11.04-50.9 16.21"/></g><g id="kvg:058ec-g3" kvg:element="士" kvg:radical="tradit"><path id="kvg:058ec-s2" kvg:type="㇐" d="M14.38 57.48c4.99.78 9.94.32 15.01-.12C45 56 66.09 54.27 81.5 53.69c4.23-.38 8.44-.25 12.62.38"/><path id="kvg:058ec-s3" kvg:type="㇑a" d="M53.25 30.25c1.12 1.12 1.25 2.62 1.25 3.75.0 1.03.0 47.38.0 55.75"/><path id="kvg:058ec-s4" kvg:type="㇐" d="M23.5 92c3.45.46 7.9.44 11.38.16 14-1.16 27-1.78 42.01-2.02 3.77-.06 7.61-.01 11.24.77"/></g></g></g></g><g id="kvg:StrokeNumbers_058ec" style="font-size:8;fill:#808080"><text transform="matrix(1 0 0 1 67.50 13.63)">1</text><text transform="matrix(1 0 0 1 6.50 56.55)">2</text><text transform="matrix(1 0 0 1 46.25 39.50)">3</text><text transform="matrix(1 0 0 1 16.50 91.50)">4</text></g></svg>