<svg xmlns="http://www.w3.org/2000/svg" width="109" height="109" viewBox="0 0 109 109"><g id="kvg:StrokePaths_058f0"><g id="kvg:058f0" kvg:element="声"><g id="kvg:058f0-g1" kvg:element="士" kvg:variant="true" kvg:original="土" kvg:position="top" kvg:radical="general"><path id="kvg:058f0-s1" kvg:type="㇐" d="M23 24.5c1.42.31 5.02.4 7.82.14 14.99-1.39 28.63-3.89 47.02-4.91 3.4-.19 5.44-.02 7.14.16"/><path id="kvg:058f0-s2" kvg:type="㇑a" d="M52.75 10c1.06 1.06 1.75 3.25 1.75 4.5.0.83-.18 20.94-.23 22.15"/><path id="kvg:058f0-s3" kvg:type="㇐" d="M30.33 39.41c1.68.32 4.76.22 6.44.06 11.24-1.08 27.49-3.33 39.97-4.6 2.79-.29 4.48-.05 5.88.08"/></g><g id="kvg:058f0-g2" kvg:position="bottom"><path id="kvg:058f0-s4" kvg:type="㇕" d="M32 50.25c1.75.75 3.05.62 4.74.41 12.38-1.54 28.89-3.8 37.26-4.41 5.12-.38 6.38 1.12 5.63 4.76-.5 2.47-2.05 7.41-3.16 10.32-.49 1.28-.87 1.73-.97 1.91"/><path id="kvg:058f0-s5" kvg:type="㇑a" d="M54.75 49.25c1 .75 1.01 1.89 1.02 2.75C55.84 55.65 56 61.58 56 63"/><path id="kvg:058f0-s6" kvg:type="㇐a" d="M33.5 66.75C43.62 65.62 68.75 62.5 75 62"/><path id="kvg:058f0-s7" kvg:type="㇒" d="M33 50.75c.81.81 1.13 2.01 1 3.25-1.88 17.62-6.38 32.88-15.25 42.75"/></g></g></g></svg>