<svg xmlns="http://www.w3.org/2000/svg" width="109" height="109" viewBox="0 0 109 109"><g id="kvg:StrokePaths_058fb"><g id="kvg:058fb" kvg:element="壻"><g id="kvg:058fb-g1" kvg:element="士" kvg:variant="true" kvg:original="土" kvg:position="left" kvg:radical="general"><path id="kvg:058fb-s1" kvg:type="㇐" d="M10.5 41.64c.76.38 3.74.44 4.5.36 5-.5 16-2.25 21.5-3.5 1.23-.28 2.62-.18 3.25.01"/><path id="kvg:058fb-s2" kvg:type="㇑" d="M24.87 13.5c1.09.5 1.96 2.23 1.96 3.25.0 7.25.03 42.25.03 53"/><path id="kvg:058fb-s3" kvg:type="㇐" d="M12.5 75.29c.75.96 2.25 1.46 4.5.21 6.25-3.5 16.5-9.25 22.75-12.75"/></g><g id="kvg:058fb-g2" kvg:element="胥" kvg:position="right"><g id="kvg:058fb-g3" kvg:element="疋" kvg:position="top"><path id="kvg:058fb-s4" kvg:type="㇖" d="M42.36 16.99c1.71.4 2.91.58 5.28.32 13.46-1.47 27.13-3.27 38.68-4.56 6.67-.75 3.41 3.91-.58 6.68"/><g id="kvg:058fb-g4" kvg:element="卜" kvg:original="ト"><path id="kvg:058fb-s5" kvg:type="㇑" d="M64.65 16.86c.92.33 1.46 1.47 1.65 2.12.18.65.0 14.86-.18 18.94"/><path id="kvg:058fb-s6" kvg:type="㇐" d="M66.52 29.61c7.37-.69 8.95-.69 20.07-2.07 1.79-.22 2.25-.23 3.38.0"/></g><g id="kvg:058fb-g5" kvg:element="人"><path id="kvg:058fb-s7" kvg:type="㇒" d="M52.75 24.31c.04.59.08 1.52-.08 2.36C51.71 31.66 46.25 43.75 38.56 49"/><path id="kvg:058fb-s8" kvg:type="㇏" d="M50.72 33.39c7.03 2.86 28.53 10.11 37.65 11.8 2.18.41 3.98.84 6.12 1"/></g></g><g id="kvg:058fb-g6" kvg:element="月" kvg:position="bottom"><path id="kvg:058fb-s9" kvg:type="㇑" d="M49.25 51.82c.63.98 1.05 1.95 1.26 2.93s.3 39.55.21 41.75"/><path id="kvg:058fb-s10" kvg:type="㇆a" d="M51.35 53.29c2.52-.24 25.02-2.4 26.9-2.67 3.37-.49 4.29 2.12 4.21 3.66-.21 4.15-.13 15.91-.13 35.69.0 15.53-5.45 6.35-7.55 4.15"/><path id="kvg:058fb-s11" kvg:type="㇐a" d="M50.93 64.77c9.28-.98 22.95-1.94 31.11-2.43"/><path id="kvg:058fb-s12" kvg:type="㇐a" d="M51.22 76.81c7.6-.59 22.31-2.38 31.11-2.78"/></g></g></g></g></svg>