<svg xmlns="http://www.w3.org/2000/svg" width="109" height="109" viewBox="0 0 109 109"><g id="kvg:StrokePaths_0590a"><g id="kvg:0590a" kvg:element="夊" kvg:radical="tradit"><g id="kvg:0590a-g1" kvg:element="夂" kvg:variant="true" kvg:radical="nelson"><path id="kvg:0590a-s1" kvg:type="㇒" d="M52.54 13.75c.09 1.14.19 2.93-.18 4.57-2.2 9.63-14.33 31.25-31.61 44.18"/><path id="kvg:0590a-s2" kvg:type="㇇" d="M48.14 35.78c.46.05 2.9.45 4.19.32 5.79-.58 16.07-2.7 22.14-4.16 4.17-1 5.35 1.14 4.29 3.86C72.92 50.68 43.51 87.09 17.5 94.75"/><path id="kvg:0590a-s3" kvg:type="㇏" d="M24.25 30.5c2.25.0 4.41 1.74 4.99 2.73C42 55 66.5 79.75 83.33 89.86c3.99 2.4 6.61 4.28 10.17 5.14"/></g></g></g></svg>