<svg xmlns="http://www.w3.org/2000/svg" width="109" height="109" viewBox="0 0 109 109"><g id="kvg:StrokePaths_05937"><g id="kvg:05937" kvg:element="夷"><g id="kvg:05937-g1" kvg:element="大" kvg:part="1" kvg:radical="tradit"><path id="kvg:05937-s1" kvg:type="㇐" d="M25 27.38c2.68.93 6.23.35 9 .03C46 26 64.5 24 77 23.14c2.74-.19 5.54-.31 8.25.25"/></g><g id="kvg:05937-g2" kvg:element="弓"><path id="kvg:05937-s2" kvg:type="㇕c" d="M28.33 39.56c2.44 1.12 4.98.9 7.54.53 16-2.34 29.63-4.34 40-5.71 4.59-.61 4.84 1.85 3.72 3.96-1.34 2.54-2.22 4.67-3.53 8.15"/><path id="kvg:05937-s3" kvg:type="㇐" d="M27.5 52.13c2.49.87 5.23.28 7.74-.06 8.91-1.21 24.13-3.07 35.75-4.17 2.43-.23 4.85-.5 7.26.0"/><path id="kvg:05937-s4" kvg:type="㇉" d="M29.93 53.18c.95 1.57 1.21 3.03.52 4.68-.95 2.27-1.82 4.39-2.38 5.96-.84 2.33-.96 3.47 2.66 2.93 5.02-.75 46.55-6.17 53.87-6.91 3.73-.37 6.22 1.25 5.01 4.67-1.98 5.62-3.48 8.62-6.39 12.42-4.22 5.53-7.34.69-8.62-1.3"/></g><g id="kvg:05937-g3" kvg:element="大" kvg:part="2" kvg:radical="tradit"><g id="kvg:05937-g4" kvg:element="丿" kvg:radical="nelson"><path id="kvg:05937-s5" kvg:type="㇒" d="M53.44 10.75c1.09 1.09 1.32 2.79 1.33 5.78.1 29.34 5.73 65.97-37.96 82.44"/></g><path id="kvg:05937-s6" kvg:type="㇏" d="M53.75 67.25c3.91 4.62 16.29 16.55 25 24.14 3.2 2.78 6.62 5.74 11 7.61"/></g></g></g></svg>