<svg xmlns="http://www.w3.org/2000/svg" width="109" height="109" viewBox="0 0 109 109"><g id="kvg:StrokePaths_0594e" style="fill:none;stroke:#000000;stroke-width:3;stroke-linecap:round;stroke-linejoin:round;"><g id="kvg:0594e" kvg:element="奎"><g id="kvg:0594e-g1" kvg:element="大" kvg:position="top" kvg:radical="general"><path id="kvg:0594e-s1" kvg:type="㇐" d="M20.38 25.61c4.38 1.14 9.12.37 13.13.0 13.4-1.24 28.82-2.8 41.36-3.62 4.61-.3 9.04-.51 13.63.19"/><path id="kvg:0594e-s2" kvg:type="㇒" d="M52.27 12.25c.31 1.67-.17 2.91-1.09 4.36-9.35 14.63-19.84 25.87-40.43 37.03"/><path id="kvg:0594e-s3" kvg:type="㇏" d="M59 24.19C65 29 75.12 37 82.68 42.37c2.14 1.52 5.7 3.63 9.07 4.88"/></g><g id="kvg:0594e-g2" kvg:element="圭" kvg:position="bottom"><g id="kvg:0594e-g3" kvg:element="土" kvg:position="top"><path id="kvg:0594e-s4" kvg:type="㇐" d="M33.19 48.93c2.69.7 4.95.25 7.07.11 9.17-.61 19.69-1.44 28.37-1.9 2.32-.12 4.73-.41 7.02.15"/><path id="kvg:0594e-s5" kvg:type="㇑a" d="M52.81 35.37C53.79 36.34 54 37.64 54 39.5c0 3.25.0 14.63.0 20.75"/><path id="kvg:0594e-s6" kvg:type="㇐" d="M25.76 62.73c2.66 1 5.74.53 8.49.29 15.53-1.31 29.21-2.4 43.25-3.09 2.78-.14 5.4.02 8.13.64"/></g><g id="kvg:0594e-g4" kvg:element="土" kvg:position="bottom"><path id="kvg:0594e-s7" kvg:type="㇐" d="M30.21 79.93c2.7.88 5.93.4 8.67.16 10.74-.97 24.14-1.97 34.99-2.46 2.88-.13 5.67.1 8.48.65"/><path id="kvg:0594e-s8" kvg:type="㇑a" d="M52.59 67.37c1.15 1.15 1.44 2.27 1.44 4.14.0 3.37-.03 16.63-.03 21.37"/><path id="kvg:0594e-s9" kvg:type="㇐" d="M18.88 94.98c3.33 1.25 7.4.88 10.87.61 15.53-1.19 35-2.34 51.27-2.52 3.8-.04 7.67.17 11.36 1"/></g></g></g></g></svg>