<svg xmlns="http://www.w3.org/2000/svg" width="109" height="109" viewBox="0 0 109 109"><g id="kvg:StrokePaths_05950" style="fill:none;stroke:#000000;stroke-width:3;stroke-linecap:round;stroke-linejoin:round;"><g id="kvg:05950" kvg:element="奐"><g id="kvg:05950-g1" kvg:position="top"><g id="kvg:05950-g2" kvg:element="𠂊" kvg:variant="true" kvg:original="勹"><path id="kvg:05950-s1" kvg:type="㇒" d="M44 9c.06.54.33 1.5-.12 2.18C41 15.5 32.5 26 22.25 33"/><path id="kvg:05950-s2" kvg:type="㇇" d="M40 18.38c2.84.0 21.45-2.37 24.44-2.65 2.56-.24 3.88 2.57 2.81 3.76-4.5 5-6 7.5-10.75 14.25"/></g><g id="kvg:05950-g3" kvg:element="冂"><path id="kvg:05950-s3" kvg:type="㇑" d="M27.99 34.4c1.26 1.1 2.26 2.85 2.42 4.54 1.03 10.54 1.08 16.3 1.33 29.44"/><path id="kvg:05950-s4" kvg:type="㇕a" d="M31 36.48c11.89-1.27 38.28-2.93 46.39-3.13 3.36-.08 4.6 2.31 4.37 4.22C80.75 46 80.25 52 78.42 65.68"/></g><g id="kvg:05950-g4" kvg:element="儿" kvg:original="八"><g id="kvg:05950-g5" kvg:element="丿" kvg:position="left"><path id="kvg:05950-s5" kvg:type="㇒" d="M47.08 37.28c.05.52.05 1.32-.09 2.08C45.73 46 44.5 52.25 38.75 57.5"/></g><g id="kvg:05950-g6" kvg:position="right"><path id="kvg:05950-s6" kvg:type="㇟" d="M59.37 37.09c.6.93 1.11 2.02 1.11 3.45.0 1.93-.18 5.54-.18 6.91.0 3.75 2.04 5.29 5.94 5.29 3.53.0 6.13.0 7.62-1.21"/></g></g></g><g id="kvg:05950-g7" kvg:element="大" kvg:position="bottom" kvg:radical="general"><path id="kvg:05950-s7" kvg:type="㇐" d="M14.88 72.11c1.85.39 3.93.17 5.14.11 19.99-.97 50.32-2.47 66.26-3.64 1.53-.11 4.27-.08 5.98-.08"/><path id="kvg:05950-s8" kvg:type="㇒" d="M51.62 58.75c.38 1.25.6 1.22.37 2.4C48 81.25 37.15 92.37 14 98.75"/><path id="kvg:05950-s9" kvg:type="㇏" d="M52 70.5c7.79 6.06 25.96 21.48 33.73 25.54 2.64 1.38 3.57 1.58 4.77 1.71"/></g></g></g></svg>