<!DOCTYPE svg PUBLIC "-//W3C//DTD SVG 1.0//EN" "http://www.w3.org/TR/2001/REC-SVG-20010904/DTD/svg10.dtd" [
<!ATTLIST g
xmlns:kvg CDATA #FIXED "http://kanjivg.tagaini.net"
kvg:element CDATA #IMPLIED
kvg:variant CDATA #IMPLIED
kvg:partial CDATA #IMPLIED
kvg:original CDATA #IMPLIED
kvg:part CDATA #IMPLIED
kvg:number CDATA #IMPLIED
kvg:tradForm CDATA #IMPLIED
kvg:radicalForm CDATA #IMPLIED
kvg:position CDATA #IMPLIED
kvg:radical CDATA #IMPLIED
kvg:phon CDATA #IMPLIED >
<!ATTLIST path
xmlns:kvg CDATA #FIXED "http://kanjivg.tagaini.net"
kvg:type CDATA #IMPLIED >
]><svg xmlns="http://www.w3.org/2000/svg" width="109" height="109" viewBox="0 0 109 109"><g id="kvg:StrokePaths_05954" style="fill:none;stroke:#000000;stroke-width:3;stroke-linecap:round;stroke-linejoin:round;"><g id="kvg:05954" kvg:element="奔"><g id="kvg:05954-g1" kvg:element="大" kvg:position="top" kvg:radical="general"><path id="kvg:05954-s1" kvg:type="㇐" d="M20.88 23.36c3.04.63 5.94.78 9 .44 13.18-1.46 32.6-2.94 46.37-3.81 3.17-.2 6.13-.18 9.25.51"/><path id="kvg:05954-s2" kvg:type="㇒" d="M51.66 10.75c.22 1.25.12 2.42-.41 3.62C43.75 31 30.25 47.38 16 55"/><path id="kvg:05954-s3" kvg:type="㇏" d="M57.12 23.12c6.43 5.51 17.38 15.75 26.89 23.52 2.52 2.06 4.84 3.65 7.74 5.1"/></g><g id="kvg:05954-g2" kvg:element="卉" kvg:position="bottom"><g id="kvg:05954-g3" kvg:element="十" kvg:position="top"><path id="kvg:05954-s4" kvg:type="㇐" d="M35.89 49.77c2.73.48 4.71.16 6.85-.07 8.06-.86 16.05-2.05 22.25-2.44 1.96-.12 3.93-.25 5.87.17"/><path id="kvg:05954-s5" kvg:type="㇑" d="M51.77 36.88c.98.98 1.26 2.12 1.26 3.12.0.46-.01 11.88-.01 19.11.0 2.33-.01 4.21-.02 5.13"/></g><g id="kvg:05954-g4" kvg:element="廾" kvg:position="bottom"><g id="kvg:05954-g5" kvg:element="十" kvg:part="1"><path id="kvg:05954-s6" kvg:type="㇐" d="M12.88 74.48c3.02 1.08 6.38.85 9.5.56 16.51-1.52 43.41-3.89 62.12-4.6 3.4-.13 6.77-.09 10.13.63"/></g><g id="kvg:05954-g6" kvg:element="丿"><path id="kvg:05954-s7" kvg:type="㇒" d="M37.61 63.25c.55.85 1.05 1.74 1.1 2.99.44 11.37-2 27.3-16.46 33.51"/></g><g id="kvg:05954-g7" kvg:element="十" kvg:part="2"><path id="kvg:05954-s8" kvg:type="㇑" d="M70.12 60.25c1 1 1.21 2.25 1.21 3.75.0 5.36.02 19.49.03 29.75.0 2.66.0 5 0 6.75"/></g></g></g></g></g><g id="kvg:StrokeNumbers_05954" style="font-size:8;fill:#808080"><text transform="matrix(1 0 0 1 14.50 24.13)">1</text><text transform="matrix(1 0 0 1 42.50 9.50)">2</text><text transform="matrix(1 0 0 1 68.50 30.50)">3</text><text transform="matrix(1 0 0 1 35.50 47.50)">4</text><text transform="matrix(1 0 0 1 43.50 39.50)">5</text><text transform="matrix(1 0 0 1 5.25 75.13)">6</text><text transform="matrix(1 0 0 1 28.50 63.50)">7</text><text transform="matrix(1 0 0 1 61.50 61.50)">8</text></g></svg>