<svg xmlns="http://www.w3.org/2000/svg" width="109" height="109" viewBox="0 0 109 109"><g id="kvg:StrokePaths_05955"><g id="kvg:05955" kvg:element="奕"><g id="kvg:05955-g1" kvg:element="亦" kvg:position="top"><g id="kvg:05955-g2" kvg:element="亠" kvg:position="top" kvg:radical="nelson"><path id="kvg:05955-s1" kvg:type="㇑a" d="M51.78 11.25c.89.34 2.35 2.17 2.35 2.86.0 2.52-.28 6.72-.12 8.86"/><path id="kvg:05955-s2" kvg:type="㇐" d="M20.27 24.71c1.29.06 4.25.42 5.51.33 10.17-.69 46.76-3.25 59.67-3.43 2.13-.03 3.22.03 4.81.42"/></g><g id="kvg:05955-g3" kvg:position="bottom"><g id="kvg:05955-g4" kvg:element="丿"><path id="kvg:05955-s3" kvg:type="㇒" d="M46.91 25.98c.55.91.97 1.64.83 2.77C46.5 38.75 43.5 52 35.83 57.5"/></g><g id="kvg:05955-g5" kvg:element="亅"><path id="kvg:05955-s4" kvg:type="㇚" d="M62.26 24.81c.78.52 1.38 2.12 1.38 3.84.0 9.99-.2 19.21-.2 22.02.0 5.88-2.45 3.83-6.37.14"/></g><path id="kvg:05955-s5" kvg:type="㇒" d="M35.01 32.4c.05.43.3 1.14-.1 1.71-3.03 4.43-8.69 10.86-17.11 16.37"/><path id="kvg:05955-s6" kvg:type="㇔" d="M72.33 33.09c5.84 2.75 15.09 11.3 16.55 15.58"/></g></g><g id="kvg:05955-g6" kvg:element="大" kvg:position="bottom" kvg:radical="tradit"><path id="kvg:05955-s7" kvg:type="㇐" d="M18.8 68.38c1.29.41 4.72.88 7.45.7 18.48-1.21 42.75-3.63 59.34-4.21 2.85-.1 5.15-.05 7.72.27"/><path id="kvg:05955-s8" kvg:type="㇒" d="M52.35 55.12c.58.63.89 1.36.87 2.73-.28 23.66-13.47 37.4-37.38 43.4"/><path id="kvg:05955-s9" kvg:type="㇏" d="M53.29 66.55c7.71 7.27 25.7 25.78 33.4 30.64 2.62 1.65 3.53 1.9 4.72 2.06"/></g></g></g></svg>