<!DOCTYPE svg PUBLIC "-//W3C//DTD SVG 1.0//EN" "http://www.w3.org/TR/2001/REC-SVG-20010904/DTD/svg10.dtd" [
<!ATTLIST g
xmlns:kvg CDATA #FIXED "http://kanjivg.tagaini.net"
kvg:element CDATA #IMPLIED
kvg:variant CDATA #IMPLIED
kvg:partial CDATA #IMPLIED
kvg:original CDATA #IMPLIED
kvg:part CDATA #IMPLIED
kvg:number CDATA #IMPLIED
kvg:tradForm CDATA #IMPLIED
kvg:radicalForm CDATA #IMPLIED
kvg:position CDATA #IMPLIED
kvg:radical CDATA #IMPLIED
kvg:phon CDATA #IMPLIED >
<!ATTLIST path
xmlns:kvg CDATA #FIXED "http://kanjivg.tagaini.net"
kvg:type CDATA #IMPLIED >
]><svg xmlns="http://www.w3.org/2000/svg" width="109" height="109" viewBox="0 0 109 109"><g id="kvg:StrokePaths_05951" style="fill:none;stroke:#000000;stroke-width:3;stroke-linecap:round;stroke-linejoin:round;"><g id="kvg:05951" kvg:element="契"><g id="kvg:05951-g1" kvg:position="top" kvg:phon="2+3+2+6+刀"><g id="kvg:05951-g2" kvg:element="龶" kvg:position="left"><path id="kvg:05951-s1" kvg:type="㇐" d="M15.25 24.75c2 .75 3.76.61 5.86.29 8.78-1.33 19.04-3.06 24.77-3.94 1.69-.3 3.39-.41 5.11-.35"/><path id="kvg:05951-s2" kvg:type="㇑a" d="M34.87 9.5c.94.94 1.21 2.5 1.21 3.75.0 1.02-.08 26.5-.08 37"/><path id="kvg:05951-s3" kvg:type="㇐" d="M19.25 38.5c1.75.62 3.81.58 5.51.3 7.74-1.3 15.89-2.9 21.76-4.1 1.29-.27 2.44-.54 3.74-.19"/><path id="kvg:05951-s4" kvg:type="㇀" d="M13.75 57c1.12 1.12 2.09 1.54 5 .5 8.38-3 18.5-6.5 29.75-10.75"/></g><g id="kvg:05951-g3" kvg:element="刀" kvg:position="right"><path id="kvg:05951-s5" kvg:type="㇆" d="M57.99 21.28c2.06.71 5.02.31 7.11-.04 7.42-1.24 17.87-3.45 23.26-4.26 3.94-.59 6.85-.37 6.19 4.27-.86 6.06-3.71 18.12-7.87 25.89-2.8 5.23-4.93 2.11-7.49-1.42"/><path id="kvg:05951-s6" kvg:type="㇒" d="M73.75 22.99c.04.64-.04 1.68-.34 2.56C70.5 34 67 41.62 58.38 50.12"/></g></g><g id="kvg:05951-g4" kvg:element="大" kvg:position="bottom" kvg:radical="general"><path id="kvg:05951-s7" kvg:type="㇐" d="M17.4 72.36c2.94.76 5.72.91 8.71.42 14.89-2.41 39.05-5.02 54.14-6.16 3.18-.24 6.53-.17 9.66.38"/><path id="kvg:05951-s8" kvg:type="㇒" d="M51.44 52.75c.97.97 1.27 2.68 1.19 4.12C51.38 81.75 40.45 92.86 22 100.5"/><path id="kvg:05951-s9" kvg:type="㇏" d="M55.62 70c6.75 5.62 19.92 18.01 28.68 23.88 2.75 1.84 5.04 3.16 7.57 4.25"/></g></g></g><g id="kvg:StrokeNumbers_05951" style="font-size:8;fill:#808080"><text transform="matrix(1 0 0 1 8.25 25.63)">1</text><text transform="matrix(1 0 0 1 24.50 10.63)">2</text><text transform="matrix(1 0 0 1 12.50 40.63)">3</text><text transform="matrix(1 0 0 1 6.50 59.50)">4</text><text transform="matrix(1 0 0 1 56.50 18.13)">5</text><text transform="matrix(1 0 0 1 63.75 31.55)">6</text><text transform="matrix(1 0 0 1 9.50 74.50)">7</text><text transform="matrix(1 0 0 1 44.25 60.50)">8</text><text transform="matrix(1 0 0 1 67.50 77.50)">9</text></g></svg>