<svg xmlns="http://www.w3.org/2000/svg" width="109" height="109" viewBox="0 0 109 109"><g id="kvg:StrokePaths_05962" style="fill:none;stroke:#000000;stroke-width:3;stroke-linecap:round;stroke-linejoin:round;"><g id="kvg:05962" kvg:element="奢"><g id="kvg:05962-g1" kvg:element="大" kvg:position="top" kvg:radical="general"><path id="kvg:05962-s1" kvg:type="㇐" d="M21.38 23.37c1.12.32 4.12.7 6.51.56 16.15-.97 40.36-3.4 54.86-3.86 2.49-.08 4.5.46 6.75.71"/><path id="kvg:05962-s2" kvg:type="㇒" d="M53.52 9.75c.23 1 .35 2.26-.02 3.39C49.5 25.25 27 44.25 12 50.74"/><path id="kvg:05962-s3" kvg:type="㇏" d="M56.75 22.31c7.74 4.82 25.79 17.1 33.51 20.33C92.89 43.73 93.8 43.9 95 44"/></g><g id="kvg:05962-g2" kvg:element="者" kvg:variant="true" kvg:position="bottom"><g id="kvg:05962-g3" kvg:element="耂" kvg:original="老" kvg:partial="true"><g id="kvg:05962-g4" kvg:element="土"><path id="kvg:05962-s4" kvg:type="㇐" d="M33.21 44.58c.63.22 1.78.25 2.42.22 7.17-.35 19.93-2.52 27-2.67 1.05-.02 1.68.1 2.21.21"/><path id="kvg:05962-s5" kvg:type="㇑a" d="M50.48 31.37c.09.19 1.21.96 1.3 2.14.42 5.64.23 19.23.23 21.15"/><path id="kvg:05962-s6" kvg:type="㇐" d="M18.87 57.44c1.61.36 4.07.66 5.52.53 8.02-.74 50.4-4.94 59.7-5.1 2.4-.04 3.84.25 5.04.52"/></g><path id="kvg:05962-s7" kvg:type="㇒" d="M72.12 38.83c.16.94.21 2.15-.84 3.35C57.75 57.75 44 70 15.92 80.26"/></g><path id="kvg:05962-s8" kvg:type="㇔" d="M61.8 57.77c2.92 1.13 7.54 4.67 8.27 6.43"/><g id="kvg:05962-g5" kvg:element="日"><path id="kvg:05962-s9" kvg:type="㇑" d="M45.72 69.4c.33.72.67 1.08.67 2.04.0.96-.22 28.1-.22 28.58"/><path id="kvg:05962-s10" kvg:type="㇕a" d="M46.94 71.19c1.88-.12 27.18-2.08 28.9-2.23 1.43-.12 2.35 1.33 2.24 2.04-.22 1.44-.34 17.42-.33 27.99"/><path id="kvg:05962-s11" kvg:type="㇐a" d="M46.74 83.95c5.79.0 27.78-2.33 30.65-2.33"/><path id="kvg:05962-s12" kvg:type="㇐a" d="M46.62 97.09c6.97.0 22.88-2.06 30.76-2.09"/></g></g></g></g></svg>