<svg xmlns="http://www.w3.org/2000/svg" width="109" height="109" viewBox="0 0 109 109"><g id="kvg:StrokePaths_0596e" style="fill:none;stroke:#000000;stroke-width:3;stroke-linecap:round;stroke-linejoin:round;"><g id="kvg:0596e" kvg:element="奮"><g id="kvg:0596e-g1" kvg:element="奞" kvg:position="top"><g id="kvg:0596e-g2" kvg:element="大" kvg:position="top" kvg:radical="general"><path id="kvg:0596e-s1" kvg:type="㇐" d="M21.62 23.86c2.83.68 5.66.58 8.5.24 17.5-2.1 37.03-3.27 50.63-4.06 2.79-.16 6.11.08 8.49.46"/><path id="kvg:0596e-s2" kvg:type="㇒" d="M53.03 9.5c.22 1.5-.38 2.87-1.04 3.85C43 26.75 31.75 38.75 11.5 49.5"/><path id="kvg:0596e-s3" kvg:type="㇏" d="M59 22c7.38 5.22 23.36 17.53 30.73 21.02 2.51 1.19 3.38 1.37 4.52 1.48"/></g><g id="kvg:0596e-g3" kvg:element="隹" kvg:position="bottom"><g id="kvg:0596e-g4" kvg:element="亻" kvg:variant="true" kvg:original="人"><path id="kvg:0596e-s4" kvg:type="㇒" d="M41.42 34.25c.17 1.14-.05 2.39-.58 3.37-3.42 6.25-7.21 11.88-15.58 19.14"/><path id="kvg:0596e-s5" kvg:type="㇑" d="M35.99 47.01c.69.69.97 1.65.97 2.74.0 4.19.01 13.76.01 19.63.0 2.02.0 3.61.0 4.38"/></g><path id="kvg:0596e-s6" kvg:type="㇒" d="M59.15 33.25c.06.62-.02 1.43-.21 1.96-1.23 3.39-2.29 4.51-5.12 8.63"/><path id="kvg:0596e-s7" kvg:type="㇐b" d="M38.17 46.51c5.66-.43 22.82-2.29 32.32-3.06 2.29-.19 4.05-.31 4.97-.33"/><path id="kvg:0596e-s8" kvg:type="㇑a" d="M54.12 46.02c.62.62.86 1.35.86 2.36.0 3.69-.17 13.87-.17 19.69"/><path id="kvg:0596e-s9" kvg:type="㇐b" d="M38.18 54.26c5.14-.34 20.08-1.44 28.33-1.92 2.4-.14 4.16-.25 4.8-.3"/><path id="kvg:0596e-s10" kvg:type="㇐b" d="M37.87 61.74c5.63-.3 21.81-.92 29.89-1.36 1.97-.11 3.4-.19 3.98-.23"/><path id="kvg:0596e-s11" kvg:type="㇐b" d="M38.06 70.31c5.73-.44 25.68-2.11 35.2-2.56 2.16-.1 3.75-.13 4.49-.04"/></g></g><g id="kvg:0596e-g5" kvg:element="田" kvg:position="bottom"><path id="kvg:0596e-s12" kvg:type="㇑" d="M30.07 78.93c.35.34.36.58.55 1.01 1.24 2.81 2.4 10.26 3.29 16.5.23 1.61.44 3.15.64 4.5"/><path id="kvg:0596e-s13" kvg:type="㇕a" d="M31.21 79.93c14.66-1.18 36.98-3.42 46.21-3.63 2.08-.05 3.58 1.08 2.93 3.99-.62 2.79-1.9 8.54-3.89 14.19-.51 1.44-1.06 2.85-1.67 4.15"/><path id="kvg:0596e-s14" kvg:type="㇑a" d="M53.69 80.27c.53.33 1.17 2.11 1.16 2.61-.05 3.94-.11 9.62-.23 13.55"/><path id="kvg:0596e-s15" kvg:type="㇐a" d="M33.44 88.8c13.31-1.05 31.06-2.55 44.4-3.28"/><path id="kvg:0596e-s16" kvg:type="㇐a" d="M35.43 97.74c9.82-.74 27.19-2.02 39.46-2.42"/></g></g></g></svg>