<svg xmlns="http://www.w3.org/2000/svg" width="109" height="109" viewBox="0 0 109 109"><g id="kvg:StrokePaths_05967" style="fill:none;stroke:#000000;stroke-width:3;stroke-linecap:round;stroke-linejoin:round;"><g id="kvg:05967" kvg:element="奧"><g id="kvg:05967-g1" kvg:position="top"><path id="kvg:05967-s1" kvg:type="㇒" d="M50.27 10.14c.03.33.06.84-.06 1.31-.71 2.76-4.81 8.81-10.41 12.52"/><g id="kvg:05967-g2" kvg:element="冂"><path id="kvg:05967-s2" kvg:type="㇑" d="M30.24 24.4c.51.85.85 2.2.68 3.72s.17 36.34.17 38.88"/><path id="kvg:05967-s3" kvg:type="㇆a" d="M30.92 26.09c6.43-.68 41.69-3.15 42.96-3.38 2.71-.51 4.69 1.24 4.4 2.03-.51 1.35-1.01 33.64-1.01 37.54"/></g><g id="kvg:05967-g3" kvg:element="釆"><g id="kvg:05967-g4" kvg:element="丿" kvg:position="top"><path id="kvg:05967-s4" kvg:type="㇒" d="M62.88 26.64c.07.22.09.54-.13.9-1.85 2.94-12.64 6.85-23.84 8.06"/></g><g id="kvg:05967-g5" kvg:element="米" kvg:variant="true" kvg:position="bottom"><path id="kvg:05967-s5" kvg:type="㇔" d="M42.09 38.3c1.42 1.05 3.56 4.04 3.91 5.68"/><path id="kvg:05967-s6" kvg:type="㇒" d="M66.7 33.98c.02.25.11.68-.04 1.02-1.18 2.75-3.06 5.99-6.94 9.78"/><path id="kvg:05967-s7" kvg:type="㇐" d="M37.17 47.6c.4.13 1.48.35 2.56.4C42.7 48.14 63 45.25 68.73 44.8c1.08-.08 1.35-.13 2.02.0"/><path id="kvg:05967-s8" kvg:type="㇑" d="M52.4 34.39c.67.27 1.08 1.2 1.21 1.74s0 20.53-.14 23.87"/><path id="kvg:05967-s9" kvg:type="㇒" d="M53.4 47.54C50.7 52.39 44.13 59.2 38.06 62"/><path id="kvg:05967-s10" kvg:type="㇔/㇏" d="M56.21 49.84c4.57 2.04 10.02 5.49 12.27 8.99"/></g></g></g><g id="kvg:05967-g6" kvg:element="大" kvg:position="bottom" kvg:radical="general"><path id="kvg:05967-s11" kvg:type="㇐" d="M15.88 74.33c1.33.52 4.89 1.13 7.71.91 19.13-1.55 44.25-4.66 61.42-5.41 2.95-.13 5.33-.06 7.99.34"/><path id="kvg:05967-s12" kvg:type="㇒" d="M51.72 64.25c.52.49.93 2.57.77 3.61C49.75 86 37.25 96 19.25 101.5"/><path id="kvg:05967-s13" kvg:type="㇏" d="M55 73.5c6.57 5.67 21.91 20.1 28.47 23.9 2.23 1.29 3.01 1.48 4.03 1.6"/></g></g></g></svg>