<svg xmlns="http://www.w3.org/2000/svg" width="109" height="109" viewBox="0 0 109 109"><g id="kvg:StrokePaths_05960"><g id="kvg:05960" kvg:element="奠"><g id="kvg:05960-g1" kvg:element="酋" kvg:variant="true" kvg:position="top"><g id="kvg:05960-g2" kvg:element="八" kvg:position="top" kvg:radical="nelson"><g id="kvg:05960-g3" kvg:position="left"><path id="kvg:05960-s1" kvg:type="㇒" d="M41.77 12.59c-.02 1.16.01 1.78-.58 2.48C37.69 19.19 28.75 28 17.3 32.75"/></g><g id="kvg:05960-g4" kvg:position="right"><path id="kvg:05960-s2" kvg:type="㇏" d="M57.19 11c1.41.19 2.75.45 3.65.95 8.25 4.65 18.19 14.28 26.02 17.19 3.37 1.25 4.58 1.93 7.85 2.33"/></g></g><g id="kvg:05960-g5" kvg:element="酉" kvg:position="bottom"><g id="kvg:05960-g6" kvg:element="西" kvg:part="1" kvg:original="襾"><path id="kvg:05960-s3" kvg:type="㇐" d="M36.8 24.65c.91.47 3.72.59 4.63.47 6.08-.82 15.82-1.62 24.08-2.75 1.5-.21 3.19.22 3.95.46"/><path id="kvg:05960-s4" kvg:type="㇑" d="M32.72 33.31c.54.44.74 2 .74 2.59s-.18 26.26.0 26.85"/><path id="kvg:05960-s5" kvg:type="㇕a" d="M33.86 34.86c3.04-.07 36.88-3.35 39.65-3.43 2.31-.07 2.96 1.21 2.96 2.87.0.93.01 26.16.01 26.6"/><path id="kvg:05960-s6" kvg:type="㇒" d="M47.77 27.39c.48.61.1 1.86.11 2.65.05 3.3-2.64 13.45-9.15 17.58"/><path id="kvg:05960-s7" kvg:type="㇟a" d="M58.02 24.88c.58.64 1.04 1.4 1.08 2.38.11 3.14-.25 7.36-.31 11.23-.04 3.36 1.63 3.78 7.14 3.78 3.5.0 6.98-.42 7.38-.8"/></g><g id="kvg:05960-g7" kvg:element="一"><path id="kvg:05960-s8" kvg:type="㇐a" d="M34.08 53.12c4.12.0 37.58-2.76 42.24-2.76"/></g><g id="kvg:05960-g8" kvg:element="西" kvg:part="2" kvg:original="襾"><path id="kvg:05960-s9" kvg:type="㇐a" d="M33.8 60.78c8.38-.32 32.15-1.85 42.59-2.12"/></g></g></g><g id="kvg:05960-g9" kvg:element="大" kvg:position="bottom" kvg:radical="tradit"><path id="kvg:05960-s10" kvg:type="㇐" d="M15.72 74.68c1.24.54 4.54 1.18 7.16.94 17.77-1.61 44.6-3.84 60.55-4.62 2.74-.13 4.95-.07 7.42.36"/><path id="kvg:05960-s11" kvg:type="㇒" d="M51.19 62.75c.5.5.31 1.59.25 2.68C50.75 78.5 38.5 95 19.68 99.62"/><path id="kvg:05960-s12" kvg:type="㇏" d="M51.07 73.16c7.79 5.58 25.95 19.78 33.73 23.51 2.65 1.27 3.57 1.46 4.77 1.58"/></g></g></g></svg>