<svg xmlns="http://www.w3.org/2000/svg" width="109" height="109" viewBox="0 0 109 109"><g id="kvg:StrokePaths_05969" style="fill:none;stroke:#000000;stroke-width:3;stroke-linecap:round;stroke-linejoin:round;"><g id="kvg:05969" kvg:element="奩"><g id="kvg:05969-g1" kvg:element="大" kvg:position="top" kvg:radical="general"><path id="kvg:05969-s1" kvg:type="㇐" d="M18.88 24.49c1.12.38 4.12.83 6.51.66 16.15-1.14 42.36-3.42 56.86-3.96 2.49-.09 4.5-.05 6.75.25"/><path id="kvg:05969-s2" kvg:type="㇒" d="M50.05 11.25c.45 1 .42 2.23-.05 3.25-7.5 16.25-21.25 27.25-39.75 35.35"/><path id="kvg:05969-s3" kvg:type="㇏" d="M62.25 23.28c6.62 5.33 22.08 18.9 28.69 22.47 2.25 1.21 3.03 1.39 4.06 1.51"/></g><g id="kvg:05969-g2" kvg:element="區" kvg:position="bottom"><g id="kvg:05969-g3" kvg:element="匚" kvg:part="1" kvg:position="kamae"><path id="kvg:05969-s4" kvg:type="㇐" d="M25.38 47.71c1.35.32 3.82.38 5.16.32 14.02-.54 28.17-2.71 43.29-3 2.24-.04 3.59.15 4.71.32"/></g><g id="kvg:05969-g4" kvg:element="品"><g id="kvg:05969-g5" kvg:element="口" kvg:position="top"><path id="kvg:05969-s5" kvg:type="㇑" d="M43.68 55.29c.25.21.5.39.61.65.86 2.1 1.88 7.89 2.47 11.66"/><path id="kvg:05969-s6" kvg:type="㇕b" d="M44.79 56.32c5.89-.81 16.31-2.25 19.68-2.57 1.23-.12 1.98.7 1.8 1.39-.73 2.86-1.74 4.93-2.83 8.89"/><path id="kvg:05969-s7" kvg:type="㇐b" d="M46.72 65.93c3.97-.36 12.85-.99 18.29-1.55"/></g><g id="kvg:05969-g6" kvg:position="bottom"><g id="kvg:05969-g7" kvg:element="口" kvg:position="left"><path id="kvg:05969-s8" kvg:type="㇑" d="M36.25 75.27c.33.23.67.41.82.69 1.15 2.22 1.37 9.15 2.16 13.13"/><path id="kvg:05969-s9" kvg:type="㇕b" d="M37.93 76.77c4.23-.59 8.93-1.87 12.82-2.16 1.42-.11 2.28.63 2.07 1.26-.84 2.59-1.43 7.15-2.68 10.73"/><path id="kvg:05969-s10" kvg:type="㇐b" d="M39.15 87.76c4.57-.33 11.05-1.19 12.8-1.12"/></g><g id="kvg:05969-g8" kvg:element="口" kvg:position="right"><path id="kvg:05969-s11" kvg:type="㇑" d="M59.33 74.39c.27.21.55.39.66.66.94 2.13 1.19 8.23 1.83 12.05"/><path id="kvg:05969-s12" kvg:type="㇕b" d="M60.37 75.29c5.19-.83 12.39-1.52 15.55-1.8 1.15-.1 1.85.6 1.68 1.21-.69 2.49-1.48 5.76-2.5 9.2"/><path id="kvg:05969-s13" kvg:type="㇐b" d="M62.5 85.55c3.71-.32 8.66-.32 13.76-.8"/></g></g></g><g id="kvg:05969-g9" kvg:element="匚" kvg:part="2" kvg:position="kamae"><path id="kvg:05969-s14" kvg:type="㇗" d="M28.68 49.31c0 2.39-.44 38.6-.44 40.83.0 4.1 2 7.39 7.94 7.39 8.88.0 34.31-.54 40.22-.79 2.88-.12 5.34-.49 7.59-.21"/></g></g></g></g></svg>