<!DOCTYPE svg PUBLIC "-//W3C//DTD SVG 1.0//EN" "http://www.w3.org/TR/2001/REC-SVG-20010904/DTD/svg10.dtd" [
<!ATTLIST g
xmlns:kvg CDATA #FIXED "http://kanjivg.tagaini.net"
kvg:element CDATA #IMPLIED
kvg:variant CDATA #IMPLIED
kvg:partial CDATA #IMPLIED
kvg:original CDATA #IMPLIED
kvg:part CDATA #IMPLIED
kvg:number CDATA #IMPLIED
kvg:tradForm CDATA #IMPLIED
kvg:radicalForm CDATA #IMPLIED
kvg:position CDATA #IMPLIED
kvg:radical CDATA #IMPLIED
kvg:phon CDATA #IMPLIED >
<!ATTLIST path
xmlns:kvg CDATA #FIXED "http://kanjivg.tagaini.net"
kvg:type CDATA #IMPLIED >
]><svg xmlns="http://www.w3.org/2000/svg" width="109" height="109" viewBox="0 0 109 109"><g id="kvg:StrokePaths_05978" style="fill:none;stroke:#000000;stroke-width:3;stroke-linecap:round;stroke-linejoin:round;"><g id="kvg:05978" kvg:element="奸"><g id="kvg:05978-g1" kvg:element="女" kvg:variant="true" kvg:position="left" kvg:radical="general"><path id="kvg:05978-s1" kvg:type="㇛" d="M28.48 16.87c.39 1.04 1.08 2.74.89 4.24-.98 7.39-7.32 33.66-11.63 42.29-.89 1.77.41 2.44.89 2.63 8.88 3.47 17.63 8.72 22.13 16.75"/><path id="kvg:05978-s2" kvg:type="㇒" d="M40.75 36.89c.08 1.21.06 4.15-.16 5.92-2.04 16.22-9.64 36.16-26.85 46.94"/><path id="kvg:05978-s3" kvg:type="㇀/㇐" d="M10.5 48.22c.75.94 1.75 1.62 3.75 1.39 2.15-.24 21.34-4.85 30.25-7.23"/></g><g id="kvg:05978-g2" kvg:element="干" kvg:position="right"><path id="kvg:05978-s4" kvg:type="㇐" d="M49.17 21.62c.8.43 3.56.46 4.36.38 5.54-.5 24.84-3.66 34.29-4.5 1.33-.12 4.13.37 4.79.58"/><g id="kvg:05978-g3" kvg:element="十"><path id="kvg:05978-s5" kvg:type="㇐" d="M45.88 51.78c1.29.46 3.67.59 4.96.46C63 51 80.49 48.75 94.6 48.33c2.16-.06 3.45.22 4.53.45"/><path id="kvg:05978-s6" kvg:type="㇑" d="M68.81 22.38c.54.52 2.29 2.18 2.29 4.98.0 5.45-.07 64.46-.18 71.02"/></g></g></g></g><g id="kvg:StrokeNumbers_05978" style="font-size:8;fill:#808080"><text transform="matrix(1 0 0 1 21.50 17.50)">1</text><text transform="matrix(1 0 0 1 36.50 32.50)">2</text><text transform="matrix(1 0 0 1 3.25 48.50)">3</text><text transform="matrix(1 0 0 1 47.50 18.50)">4</text><text transform="matrix(1 0 0 1 46.50 48.50)">5</text><text transform="matrix(1 0 0 1 63.50 29.50)">6</text></g></svg>