<svg xmlns="http://www.w3.org/2000/svg" width="109" height="109" viewBox="0 0 109 109"><g id="kvg:StrokePaths_05973"><g id="kvg:05973" kvg:element="女" kvg:radical="general"><path id="kvg:05973-s1" kvg:type="㇛" d="M53.21 18.37c.54 2.13.26 3.41-.25 5.25C50.38 33 42.62 52.75 35.75 64c-1.39 2.27-1 3.5 1 3.5 11.63.0 28.46 7.48 38.83 16.41 2.56 2.21 4.68 4.51 6.17 6.84"/><path id="kvg:05973-s2" kvg:type="㇒" d="M69.62 42.18c.5 1.7.63 3.57-.01 5.93C65.93 61.8 54.61 81.6 27 91.75"/><path id="kvg:05973-s3" kvg:type="㇐" d="M13.88 50.43c3.48 1.39 7.26.85 10.88.53 19.52-1.7 42.04-4.08 60.61-4.63 3.66-.11 7.21-.1 10.62 1.42"/></g></g></svg>