<svg xmlns="http://www.w3.org/2000/svg" width="109" height="109" viewBox="0 0 109 109"><g id="kvg:StrokePaths_0598a" style="fill:none;stroke:#000000;stroke-width:3;stroke-linecap:round;stroke-linejoin:round;"><g id="kvg:0598a" kvg:element="妊"><g id="kvg:0598a-g1" kvg:element="女" kvg:variant="true" kvg:position="left" kvg:radical="general"><path id="kvg:0598a-s1" kvg:type="㇛" d="M29.31 18.37c.4 1 .62 2.38.41 3.82-1.01 7.08-6.03 33.24-10.48 41.52-.91 1.7.41 2.36.91 2.52 6.16 1.96 12.49 5.62 17.13 9.73 2.65 2.35 4.34 4.67 6.47 7.83"/><path id="kvg:0598a-s2" kvg:type="㇒" d="M41 37.39c.62 1.36.64 2.84.34 4.68C38.93 56.91 32.88 76.75 14.5 90"/><path id="kvg:0598a-s3" kvg:type="㇀/㇐" d="M11.38 49.45c.88 1.05 1.55 1.25 3.25.94 4.07-.74 20.12-4.64 30.87-6.77"/></g><g id="kvg:0598a-g2" kvg:element="壬" kvg:position="right" kvg:phon="壬"><g id="kvg:0598a-g3" kvg:element="丿"><path id="kvg:0598a-s4" kvg:type="㇒" d="M89.14 16c0 .88-.68 1.63-1.29 2.12-6.9 5.52-16.82 10.38-34.33 14.87"/></g><g id="kvg:0598a-g4" kvg:element="士"><path id="kvg:0598a-s5" kvg:type="㇐" d="M48.04 57.93c2.46.57 5.06.45 7.09.25 12.24-1.18 25.49-2.55 38.49-2.99 2.05-.07 4.36.13 6.34.73"/><path id="kvg:0598a-s6" kvg:type="㇑a" d="M73.39 29.86c.94.94 1.54 1.89 1.54 3.36.0.97-.05 48.14-.05 54.78"/><path id="kvg:0598a-s7" kvg:type="㇐" d="M52.7 89.59c2.05.54 4.19.61 6.07.51 10.3-.53 22.32-1.83 33.11-2.03 2.08-.04 4.21.08 6.24.6"/></g></g></g></g></svg>