<svg xmlns="http://www.w3.org/2000/svg" width="109" height="109" viewBox="0 0 109 109"><g id="kvg:StrokePaths_0599b" style="fill:none;stroke:#000000;stroke-width:3;stroke-linecap:round;stroke-linejoin:round;"><g id="kvg:0599b" kvg:element="妛"><g id="kvg:0599b-g1" kvg:element="山" kvg:position="top"><path id="kvg:0599b-s1" kvg:type="㇑a" d="M53.01 8.88c.56.33 1.75 2.48 1.86 3.15.11.66-.07 15.08-.18 19.23"/><path id="kvg:0599b-s2" kvg:type="㇄a" d="M27.43 19.75c.56.33 1.12 1.73 1.12 2.41.0 2.59-.8 6.84-2.09 10.76-.48 1.45.83 2.59 2.11 2.28 4.93-1.2 47.83-5.92 52.85-6.05"/><path id="kvg:0599b-s3" kvg:type="㇑" d="M82.52 15.12c.56.39 1.21 2.87 1.12 3.64-.56 4.71-1.14 10.11-2.04 14.69"/></g><g id="kvg:0599b-g2" kvg:position="bottom"><g id="kvg:0599b-g3" kvg:element="一"><path id="kvg:0599b-s4" kvg:type="㇐" d="M19.04 48.76c1.99.25 5.22.6 6.7.5C43.86 48 71.36 44.49 86.75 44.5c2.48.0 3.97.24 5.21.49"/></g><g id="kvg:0599b-g4" kvg:element="女" kvg:radical="general"><path id="kvg:0599b-s5" kvg:type="㇛" d="M49.55 50.37c.49 1.19.15 2.7-.24 4.18-1.92 7.28-5.72 14.01-11.84 22.37-1.33 1.82-.27 2.18.73 2.19 14.2.2 36.96 10.16 44.31 19.52"/><path id="kvg:0599b-s6" kvg:type="㇒" d="M68.75 56.38c.12 1.03.21 3.55-.25 5.05-3.67 12.12-14.25 29.31-40.49 38.33"/><path id="kvg:0599b-s7" kvg:type="㇐" d="M17.94 66.77c2.33.68 4.81 1.14 5.93 1.04C47.41 65.67 66 63.5 87.61 61.99c1.86-.13 5.07.42 6.58 1.19"/></g></g></g></g></svg>