<svg xmlns="http://www.w3.org/2000/svg" width="109" height="109" viewBox="0 0 109 109"><g id="kvg:StrokePaths_059a8"><g id="kvg:059a8" kvg:element="妨"><g id="kvg:059a8-g1" kvg:element="女" kvg:variant="true" kvg:position="left" kvg:radical="general"><path id="kvg:059a8-s1" kvg:type="㇛" d="M28.68 21.87c.36.88.52 2.33.34 3.61-.87 5.93-4.3 26.85-8.1 35.4-.85 1.92-1.59 3.33.8 3.86 6.29 1.39 10.65 3.71 14.59 6.95 1.69 1.39 3.25 3.25 4.7 5.15"/><path id="kvg:059a8-s2" kvg:type="㇒" d="M40.75 37.14c.5 1.48.36 3.34.09 5.18C38.75 56.5 30.5 80.25 14 90.5"/><path id="kvg:059a8-s3" kvg:type="㇀/㇐" d="M10.75 48.22c.75.94 1.75 1.16 3 .89 2.12-.45 21.84-4.85 30.75-7.23"/></g><g id="kvg:059a8-g2" kvg:element="方" kvg:position="right" kvg:phon="方"><g id="kvg:059a8-g3" kvg:element="亠" kvg:position="top"><path id="kvg:059a8-s4" kvg:type="㇑a" d="M70.55 13c.98.98 1.34 2.25 1.34 4.04.0 4.86.11 8.21.11 12.75"/><path id="kvg:059a8-s5" kvg:type="㇐" d="M49.88 32.64c2.73.61 5.59.45 8.37.12 9.34-1.12 21.09-2.98 32.87-3.81 2.54-.18 5.13-.32 7.25.45"/></g><g id="kvg:059a8-g4" kvg:position="bottom"><path id="kvg:059a8-s6" kvg:type="㇆a" d="M69.61 45.33c6.14 2.17 11.64 4.17 17.34 5.09 3.38.54 4.52 2.09 3.69 5.38-2.04 8.13-10.12 29.53-13.97 34.67-4.4 5.88-7.35-.23-8.66-1.02"/><path id="kvg:059a8-s7" kvg:type="㇒" d="M70.6 35c.4 1.46.32 3.1-.15 4.74-3.28 11.3-11.19 30.39-27.52 44.59"/></g></g></g></g></svg>