<svg xmlns="http://www.w3.org/2000/svg" width="109" height="109" viewBox="0 0 109 109"><g id="kvg:StrokePaths_059b9"><g id="kvg:059b9" kvg:element="妹"><g id="kvg:059b9-g1" kvg:element="女" kvg:variant="true" kvg:position="left" kvg:radical="general"><path id="kvg:059b9-s1" kvg:type="㇛" d="M26.55 18.62c.33 1.11.69 2.93.51 4.54-1.3 11.72-3.8 28.84-6.37 38.68-.52 1.98.34 2.68.76 2.81 4.84 1.55 10.03 4.05 14 7.92 1.41 1.38 2.7 3.36 3.81 4.94"/><path id="kvg:059b9-s2" kvg:type="㇒" d="M39.73 34.75c.77 1.78.65 3.07.36 5.01C37.71 55.44 30.1 78.2 13.12 89.88"/><path id="kvg:059b9-s3" kvg:type="㇀/㇐" d="M10 47.71c.88 1.29 2.27 1.68 4.25 1.29 9-1.75 22.33-4.73 33.25-7.03"/></g><g id="kvg:059b9-g2" kvg:element="未" kvg:position="right" kvg:phon="未"><path id="kvg:059b9-s4" kvg:type="㇐" d="M51.84 34.46c1.19.2 3.14.08 4.33-.05 6.08-.66 16.08-2.15 22.4-2.91 1.96-.23 3.18.1 4.18.19"/><g id="kvg:059b9-g3" kvg:element="木"><path id="kvg:059b9-s5" kvg:type="㇐" d="M44.25 51.25c2.26.5 3.88.61 6.8.25 8.2-1 24.32-3.25 34.64-3.89 2.7-.17 4.56.14 6.33.75"/><path id="kvg:059b9-s6" kvg:type="㇑" d="M65.14 13.25C66.38 14.49 67 16 67 17.72c0 4.53.07 51.14-.14 71.53-.04 4.02-.08 6.81-.13 7.75"/><path id="kvg:059b9-s7" kvg:type="㇒" d="M64.75 51c0 1.5-.42 2.54-.8 3.33C57.88 66.75 48.5 80 36.25 87.5"/><path id="kvg:059b9-s8" kvg:type="㇏" d="M68 51c4.56 8.8 13.2 20.09 20.34 27.47 2.02 2.09 4.91 4.41 7.54 6.03"/></g></g></g></g></svg>