<svg xmlns="http://www.w3.org/2000/svg" width="109" height="109" viewBox="0 0 109 109"><g id="kvg:StrokePaths_059be" style="fill:none;stroke:#000000;stroke-width:3;stroke-linecap:round;stroke-linejoin:round;"><g id="kvg:059be" kvg:element="妾"><g id="kvg:059be-g1" kvg:element="立" kvg:position="top" kvg:radical="nelson"><g id="kvg:059be-g2" kvg:element="亠" kvg:position="top"><path id="kvg:059be-s1" kvg:type="㇑a" d="M53.05 10.75c.79.79 1.32 1.62 1.32 2.77.0 1.24.0 7.03.0 10.39"/><path id="kvg:059be-s2" kvg:type="㇐" d="M27.24 26.15c2.96.35 5.9.08 8.89-.08 10.25-.57 28.37-2.19 38.5-2.39 2.75-.05 5.48-.25 8.22.05"/></g><g id="kvg:059be-g3" kvg:position="bottom"><path id="kvg:059be-s3" kvg:type="㇔" d="M37.39 29.85c4.67 5.36 6.79 10.6 7.21 14.14"/><path id="kvg:059be-s4" kvg:type="㇒" d="M73.15 27.46c0 .91-.28 1.91-.65 2.71-2 4.33-4.5 8.71-7.25 12.83"/><path id="kvg:059be-s5" kvg:type="㇐" d="M17.75 47.93c4.15.89 8.32.43 12.5.16 13.98-.89 34.12-1.85 49.5-2.46 3.85-.16 7.69.21 11.5.77"/></g></g><g id="kvg:059be-g4" kvg:element="女" kvg:position="bottom" kvg:radical="tradit"><path id="kvg:059be-s6" kvg:type="㇛" d="M49.66 51.62c.47 1.38.33 2.71-.25 4.11-2.78 6.71-5.98 13.63-12.49 22.4-1.53 2.06-.89 3.1 1.58 3.32 10.59.92 22.58 4.69 31.61 9.88 3.87 2.23 7.2 4.71 9.64 7.35"/><path id="kvg:059be-s7" kvg:type="㇒" d="M69.37 59.71c.13.97-.03 2.58-.51 3.99C64.75 75.88 52.25 92.38 26 99.25"/><path id="kvg:059be-s8" kvg:type="㇐" d="M15.88 66.53c5 .72 10.1.3 14.12.0 15.75-1.15 29.12-2.03 50.87-2.67 4.27-.13 8.46-.17 12.62.72"/></g></g></g></svg>