<svg xmlns="http://www.w3.org/2000/svg" width="109" height="109" viewBox="0 0 109 109"><g id="kvg:StrokePaths_059d3"><g id="kvg:059d3" kvg:element="姓"><g id="kvg:059d3-g1" kvg:element="女" kvg:variant="true" kvg:position="left" kvg:radical="general"><path id="kvg:059d3-s1" kvg:type="㇛" d="M29.31 19.62c.4 1 .62 2.38.41 3.82-1.01 7.08-6.53 32.99-10.98 41.27-.91 1.7.41 2.36.91 2.52 6.93 2.21 12.86 5.23 17.52 9.59 1.85 1.73 3.29 3.89 4.83 5.96"/><path id="kvg:059d3-s2" kvg:type="㇒" d="M40.25 38.39c.5 1.61.88 3.59.59 5.43-2.32 14.84-9.01 36.63-25.6 47.68"/><path id="kvg:059d3-s3" kvg:type="㇀/㇐" d="M11.75 49.22c.75.94 1.75 1.62 3.75 1.39 2.15-.24 20.09-4.6 29-6.98"/></g><g id="kvg:059d3-g2" kvg:element="生" kvg:position="right" kvg:phon="生"><path id="kvg:059d3-s4" kvg:type="㇒" d="M58.02 29.49c.05 1.16.06 2.29-.25 3.42-1.64 5.97-4.63 13.87-8.85 19.5"/><path id="kvg:059d3-s5" kvg:type="㇐" d="M58.18 42.37c1.57.13 2.88.06 4.18-.08 5.37-.56 17-1.93 23.16-2.6 1.83-.2 3.32-.35 5.12-.15"/><path id="kvg:059d3-s6" kvg:type="㇑a" d="M69.65 16.13c1.11 1.11 1.69 2.74 1.69 5.09.0 1.03.01 58.9.01 68.27"/><path id="kvg:059d3-s7" kvg:type="㇐" d="M54.43 64.55c2.07.45 3.85.46 5.46.27 7.87-.94 19-1.69 25.26-2.22 1.63-.14 3.5.06 5.14.2"/><path id="kvg:059d3-s8" kvg:type="㇐" d="M45.93 90.76c2.58.79 5.18.7 7.82.57 9.4-.47 27-1.71 36.27-1.74 2.55-.01 4.8.12 7.18 1.28"/></g></g></g></svg>