<svg xmlns="http://www.w3.org/2000/svg" width="109" height="109" viewBox="0 0 109 109"><g id="kvg:StrokePaths_059e6"><g id="kvg:059e6" kvg:element="姦"><g id="kvg:059e6-g1" kvg:element="女" kvg:position="top" kvg:radical="general"><path id="kvg:059e6-s1" kvg:type="㇛" d="M53.81 11.37c.19 1.01.01 2.31-.45 3.36-2.46 5.66-7.24 14.45-11.94 20.66-1.07 1.42-1.31 2.71.82 2.84 9.51.55 20.28 4.38 27.79 9.04 3.05 1.9 5.57 3.93 7.24 5.94"/><path id="kvg:059e6-s2" kvg:type="㇒" d="M68.14 19.64c.11.8-.03 2.26-.48 3.41C63 35.12 54.88 47.25 31.24 52.75"/><path id="kvg:059e6-s3" kvg:type="㇐" d="M23.36 25.27c3.11.86 6.19.54 9.42.25 14.79-1.33 31.34-2.64 45.34-3.12 3.45-.12 6.8-.2 10.14.66"/></g><g id="kvg:059e6-g2" kvg:position="bottom"><g id="kvg:059e6-g3" kvg:element="女" kvg:variant="true" kvg:position="left"><path id="kvg:059e6-s4" kvg:type="㇛" d="M31.12 57.87c.38.71.43 2.16.13 3.16-1.64 5.49-5.87 16.6-8.27 21.83-1.01 2.2-.59 2.53.91 2.88 5.34 1.24 11.49 4.07 15.72 8.15 1.8 1.73 3.25 3.69 4.14 5.85"/><path id="kvg:059e6-s5" kvg:type="㇒" d="M43.25 62.01c.08.94.14 2.21-.17 3.57-2.55 10.96-9.95 27.18-28.33 35.18"/><path id="kvg:059e6-s6" kvg:type="㇀/㇐" d="M13.75 72.68c.7 1.17 1.68 1.69 3.51 1.23C28.88 71 34.5 69.38 47.5 65.9"/></g><g id="kvg:059e6-g4" kvg:element="女" kvg:position="right"><path id="kvg:059e6-s7" kvg:type="㇛" d="M70.72 56.62c.29 1.03.06 2.14-.4 3.36-3.01 8.02-5.87 14.44-9.26 21.18-.9 1.8-1.05 3.01 1.17 3.25 6.24.68 14.3 5.1 19.79 10.44 1.96 1.91 3.6 3.94 4.7 5.96"/><path id="kvg:059e6-s8" kvg:type="㇒" d="M83.25 66.42c.08.79.14 2.21-.16 3.35-2.4 9.25-9.83 22.61-27 29.49"/><path id="kvg:059e6-s9" kvg:type="㇐" d="M50.63 71.5c2.7.47 5.41.5 8.13.07 9.07-.54 20.16-1.25 29.62-1.52 2.55-.11 5.09.01 7.63.35"/></g></g></g></g></svg>