<svg xmlns="http://www.w3.org/2000/svg" width="109" height="109" viewBox="0 0 109 109"><g id="kvg:StrokePaths_05a11"><g id="kvg:05a11" kvg:element="娑"><g id="kvg:05a11-g1" kvg:element="沙" kvg:position="top"><g id="kvg:05a11-g2" kvg:element="氵" kvg:variant="true" kvg:original="水" kvg:position="left"><path id="kvg:05a11-s1" kvg:type="㇔" d="M24.88 12.75c3.66 1.14 9.45 4.67 10.37 6.43"/><path id="kvg:05a11-s2" kvg:type="㇔" d="M17.5 26.76c3.88.86 10.03 3.54 11 4.88"/><path id="kvg:05a11-s3" kvg:type="㇀" d="M18.75 56.39c1.78 1.07 3.41 1.61 4.53.29 3.26-3.84 7.01-9.03 9.97-13.93"/></g><g id="kvg:05a11-g3" kvg:element="少" kvg:position="right"><g id="kvg:05a11-g4" kvg:element="小"><path id="kvg:05a11-s4" kvg:type="㇚" d="M64.36 11.75c.05.23.73 1.22.78 2.7.25 7.13-.16 18.04-.16 20.47.0 6.89-4.17 1.44-5.11.83"/><path id="kvg:05a11-s5" kvg:type="㇒" d="M53.18 21.12c.03.34.12.89-.06 1.36-1.32 3.39-6.91 9.92-11.45 13.04"/><path id="kvg:05a11-s6" kvg:type="㇔" d="M80.25 20.13c5.11 2.72 11.97 9.7 13.25 13.93"/></g><g id="kvg:05a11-g5" kvg:element="丿"><path id="kvg:05a11-s7" kvg:type="㇒" d="M79.9 27.31c.1.69.31 1.78-.21 2.75C75.41 38.08 58.95 51.61 42.25 57"/></g></g></g><g id="kvg:05a11-g6" kvg:element="女" kvg:position="bottom" kvg:radical="general"><path id="kvg:05a11-s8" kvg:type="㇛" d="M47.77 60.12c.43 1.02.13 2.3-.22 3.57-1.7 6.2-6.55 13.07-10.84 18.08-1.27 1.48-.24 1.86.65 1.87C49.93 83.79 70.5 91.43 77 99.41"/><path id="kvg:05a11-s9" kvg:type="㇒" d="M68.33 65.36c.12.82.21 2.81-.24 4C64.45 78.97 53.97 92.6 28 99.75"/><path id="kvg:05a11-s10" kvg:type="㇐" d="M12.38 70.93c2.21.57 4.58.96 5.64.87 22.39-1.8 51.34-5.05 72.72-5.3 1.77-.02 4.82.35 6.26 1"/></g></g></g></svg>