<svg xmlns="http://www.w3.org/2000/svg" width="109" height="109" viewBox="0 0 109 109"><g id="kvg:StrokePaths_05a36" style="fill:none;stroke:#000000;stroke-width:3;stroke-linecap:round;stroke-linejoin:round;"><g id="kvg:05a36" kvg:element="娶"><g id="kvg:05a36-g1" kvg:element="取" kvg:position="top"><g id="kvg:05a36-g2" kvg:element="耳" kvg:position="left"><path id="kvg:05a36-s1" kvg:type="㇐" d="M15.46 17.2c.88.31 2.49.39 3.37.31 7.64-.66 19.25-2.5 31.14-2.86 1.46-.04 2.34.15 3.07.31"/><path id="kvg:05a36-s2" kvg:type="㇑a" d="M25.65 19.11c.26.73 1.04 1.45 1.04 2.31s-.13 26.55-.13 29.64"/><path id="kvg:05a36-s3" kvg:type="㇐a" d="M28.57 27.86c7.45-1.08 9.48-1.23 16.06-1.75"/><path id="kvg:05a36-s4" kvg:type="㇐a" d="M28.32 38.07c6.08-.75 8.51-1.06 15.94-1.58"/><path id="kvg:05a36-s5" kvg:type="㇀" d="M16.15 52.53c.25.61 2.36.96 3.22.71 3.45-1.01 21.01-6.71 26.31-8.33"/><path id="kvg:05a36-s6" kvg:type="㇑" d="M45.12 17.02c.81.77.89.91.89 1.77S46.14 48.95 46.14 56"/></g><g id="kvg:05a36-g3" kvg:element="又" kvg:position="right"><path id="kvg:05a36-s7" kvg:type="㇇" d="M58.65 19.69c1.21.24 1.36.6 3.78.24 2.42-.36 18.84-3.96 20.5-4.32 1.66-.36 2.8 1.3 2.27 2.63C80 31.25 70.5 44.75 56.9 53.11"/><path id="kvg:05a36-s8" kvg:type="㇏" d="M57.49 24.59c3.61 1.23 19.94 20.73 33.24 27.66 2.04 1.06 3.33 2.03 5.12 2.44"/></g></g><g id="kvg:05a36-g4" kvg:element="女" kvg:position="bottom" kvg:radical="general"><path id="kvg:05a36-s9" kvg:type="㇛" d="M50.39 58.62c.44 1.04.13 2.35-.22 3.64-1.74 6.34-5.68 11.41-11.23 18.7-1.21 1.58-.25 1.9.67 1.91C52.48 83.04 73.58 90.85 80.25 99"/><path id="kvg:05a36-s10" kvg:type="㇒" d="M69.38 63.18c.12.84.09 2.85-.24 4.11C66.25 78 51.5 93.75 29 98.5"/><path id="kvg:05a36-s11" kvg:type="㇐" d="M16.88 70.93c2.12.57 4.39.96 5.41.87C43.75 70 71 68.25 91.5 68c1.7-.02 4.62.35 6 1"/></g></g></g></svg>