<!DOCTYPE svg PUBLIC "-//W3C//DTD SVG 1.0//EN" "http://www.w3.org/TR/2001/REC-SVG-20010904/DTD/svg10.dtd" [
<!ATTLIST g
xmlns:kvg CDATA #FIXED "http://kanjivg.tagaini.net"
kvg:element CDATA #IMPLIED
kvg:variant CDATA #IMPLIED
kvg:partial CDATA #IMPLIED
kvg:original CDATA #IMPLIED
kvg:part CDATA #IMPLIED
kvg:number CDATA #IMPLIED
kvg:tradForm CDATA #IMPLIED
kvg:radicalForm CDATA #IMPLIED
kvg:position CDATA #IMPLIED
kvg:radical CDATA #IMPLIED
kvg:phon CDATA #IMPLIED >
<!ATTLIST path
xmlns:kvg CDATA #FIXED "http://kanjivg.tagaini.net"
kvg:type CDATA #IMPLIED >
]><svg xmlns="http://www.w3.org/2000/svg" width="109" height="109" viewBox="0 0 109 109"><g id="kvg:StrokePaths_05a46" style="fill:none;stroke:#000000;stroke-width:3;stroke-linecap:round;stroke-linejoin:round;"><g id="kvg:05a46" kvg:element="婆"><g id="kvg:05a46-g1" kvg:element="波" kvg:position="top" kvg:phon="波"><g id="kvg:05a46-g2" kvg:element="氵" kvg:variant="true" kvg:original="水" kvg:position="left"><path id="kvg:05a46-s1" kvg:type="㇔" d="M27 13.24c3.83 1.04 8.25 3.01 10.84 5.66"/><path id="kvg:05a46-s2" kvg:type="㇔" d="M21.71 29.33c3.75.85 9.68 3.88 10.61 5.21"/><path id="kvg:05a46-s3" kvg:type="㇀" d="M22.25 55.88c1.38.74 2.53.27 3.4-.64 2.52-2.67 6.3-7.93 8.59-11.33"/></g><g id="kvg:05a46-g3" kvg:element="皮" kvg:position="right"><path id="kvg:05a46-s4" kvg:type="㇒" d="M47.06 21.31c.88.88.98 2.01.87 3.4C47 36.75 44.12 47.5 36.38 56.22"/><path id="kvg:05a46-s5" kvg:type="㇖b" d="M49.28 23.37c13.6-2.24 27.58-4.03 32.87-4.17 7.36-.2 1.86 4.43-.37 5.81"/><path id="kvg:05a46-s6" kvg:type="㇑a" d="M65.16 11.05c.77.77 1.1 1.95 1.1 2.95.0.63-.01 10.73-.01 16.87"/><path id="kvg:05a46-s7" kvg:type="㇇" d="M54.75 33.94c.91.19 2.27.31 4.09-.07 3.03-.62 12.16-2.62 15.71-3.63 2.29-.65 3.07 1 2.15 2.61-4.17 7.24-14.45 17.4-27.73 21.25"/><path id="kvg:05a46-s8" kvg:type="㇏" d="M54.73 38.83c2.91.42 18.08 9.04 28.95 14.19 2.19 1.04 4.44 1.98 6.84 2.61"/></g></g><g id="kvg:05a46-g4" kvg:element="女" kvg:position="bottom" kvg:radical="general"><path id="kvg:05a46-s9" kvg:type="㇛" d="M49.61 58.87c.26 1.13.23 2.08-.22 3.03-2.84 5.99-6.7 12.3-11.7 18.17-1.57 1.85-1.32 2.48 1.05 2.52 9.75.17 20.97 3.22 30.18 7.82 3.8 1.9 7.04 4.09 9.23 6.48"/><path id="kvg:05a46-s10" kvg:type="㇒" d="M68.63 61.52c.12.9-.04 2.33-.5 3.64C64.47 75.7 53.92 90.9 27.75 98.75"/><path id="kvg:05a46-s11" kvg:type="㇐" d="M13.38 70.75c2.81.71 5.99.56 8.87.33 20.51-1.59 45.46-3.48 65.12-3.84 2.95-.05 6.38.12 9.12.93"/></g></g></g><g id="kvg:StrokeNumbers_05a46" style="font-size:8;fill:#808080"><text transform="matrix(1 0 0 1 20.25 13.63)">1</text><text transform="matrix(1 0 0 1 13.50 29.50)">2</text><text transform="matrix(1 0 0 1 14.50 60.50)">3</text><text transform="matrix(1 0 0 1 39.75 27.13)">4</text><text transform="matrix(1 0 0 1 51.50 19.63)">5</text><text transform="matrix(1 0 0 1 56.50 11.50)">6</text><text transform="matrix(1 0 0 1 55.50 31.50)">7</text><text transform="matrix(1 0 0 1 51.75 46.48)">8</text><text transform="matrix(1 0 0 1 42.50 61.50)">9</text><text transform="matrix(1 0 0 1 56.50 62.50)">10</text><text transform="matrix(1 0 0 1 3.50 71.50)">11</text></g></svg>