<svg xmlns="http://www.w3.org/2000/svg" width="109" height="109" viewBox="0 0 109 109"><g id="kvg:StrokePaths_05a66" style="fill:none;stroke:#000000;stroke-width:3;stroke-linecap:round;stroke-linejoin:round;"><g id="kvg:05a66" kvg:element="婦"><g id="kvg:05a66-g1" kvg:element="女" kvg:variant="true" kvg:position="left" kvg:radical="general"><path id="kvg:05a66-s1" kvg:type="㇛" d="M24.28 20.62c.47 1.38.49 2.91.37 4.52-.77 10.11-3.88 25.67-7.42 38.02-.35 1.21-.44 2.4 1.12 2.8 5.41 1.41 9.78 3.79 14.64 8.05 2.07 1.82 4.14 4.24 6.02 6.99"/><path id="kvg:05a66-s2" kvg:type="㇒" d="M37.26 38.75c.49 1.12.63 3.09.35 4.82C35.35 57.54 30 76.88 13.25 89"/><path id="kvg:05a66-s3" kvg:type="㇀/㇐" d="M10.25 48.96C11 50 12.04 50.24 14 49.75c4.5-1.12 18.38-4.5 29.75-7.28"/></g><g id="kvg:05a66-g2" kvg:element="帚" kvg:position="right"><g id="kvg:05a66-g3" kvg:element="⺕" kvg:variant="true" kvg:original="彑" kvg:position="top"><path id="kvg:05a66-s4" kvg:type="㇕c" d="M51.66 16.01c1.46.36 3.43.54 4.41.45 5.05-.47 27.08-2.62 28.66-2.86 2.39-.36 3.64.52 2.91 3.13-1.19 4.26-3.7 13.16-4.92 18.07"/><path id="kvg:05a66-s5" kvg:type="㇐c" d="M50.29 26.59c1.59.53 4.05.56 5.85.42 10.9-.86 18.38-1.92 28.29-2.69"/><path id="kvg:05a66-s6" kvg:type="㇐" d="M51.75 38.62c1.83.57 4.05.11 5.89-.09 7-.76 14.7-1.98 23.39-2.52 1.33-.08 2.82-.02 3.98-.14"/></g><g id="kvg:05a66-g4" kvg:position="bottom"><g id="kvg:05a66-g5" kvg:element="冖"><path id="kvg:05a66-s7" kvg:type="㇔" d="M46.38 47.25c-.15 3.61-3.75 13.06-5.03 15.21"/><path id="kvg:05a66-s8" kvg:type="㇖b" d="M47.08 50.03c18.17-2.53 30.79-3.62 43.94-4.7 13.23-1.08 2.47 6.22 1.23 7.36"/></g><g id="kvg:05a66-g6" kvg:element="巾"><path id="kvg:05a66-s9" kvg:type="㇑" d="M53.41 61.11c.68.68 1.27 1.89 1.27 2.76.0.42-.01 11.6-.09 18.13-.02 1.74-.04 3.11-.06 3.81"/><path id="kvg:05a66-s10" kvg:type="㇆a" d="M55.59 62.77c5.66-.77 26.77-3.67 28.92-3.78 2.52-.13 3.47 2.32 3.48 3.53C88 68.5 87.9 73.87 87.9 79.83c0 10.29-5.65 2.17-6.75 1.12"/><path id="kvg:05a66-s11" kvg:type="㇑" d="M69.05 50.35c.61.61 1.25 1.65 1.25 3.01.0.43-.01 27.43-.07 39.64-.02 2.98-.03 5.1-.05 5.74"/></g></g></g></g></g></svg>