<svg xmlns="http://www.w3.org/2000/svg" width="109" height="109" viewBox="0 0 109 109"><g id="kvg:StrokePaths_05abd" style="fill:none;stroke:#000000;stroke-width:3;stroke-linecap:round;stroke-linejoin:round;"><g id="kvg:05abd" kvg:element="媽"><g id="kvg:05abd-g1" kvg:element="女" kvg:variant="true" kvg:position="left" kvg:radical="general"><path id="kvg:05abd-s1" kvg:type="㇛" d="M27.48 16.87c.39 1.04 1.08 2.74.89 4.24-.98 7.39-7.31 34.15-11.63 42.79-.89 1.77.4 2.46.89 2.63C27 69.75 35 75.66 40.25 83.28"/><path id="kvg:05abd-s2" kvg:type="㇒" d="M39.75 36.89c.08 1.27.14 4.34-.16 6.18C37.18 57.91 30.23 78.96 13 90"/><path id="kvg:05abd-s3" kvg:type="㇀/㇐" d="M8 46.72c.75.94 1.75 1.62 3.75 1.39 2.15-.24 21.34-4.35 30.25-6.73"/></g><g id="kvg:05abd-g2" kvg:element="馬" kvg:position="right"><path id="kvg:05abd-s4" kvg:type="㇑" d="M52.56 17.56c.33.39.69 2.46.69 3.11-.03 6.53-.13 32.54-.39 42.81"/><path id="kvg:05abd-s5" kvg:type="㇐b" d="M54.23 18.41c8.29-.8 27.66-3.16 31.22-3.65 1.24-.17 3.35-.33 3.98-.11"/><path id="kvg:05abd-s6" kvg:type="㇑a" d="M70.57 18.91c.34.39.6.92.6 1.56-.03 6.52-.11 28.61-.37 38.88"/><path id="kvg:05abd-s7" kvg:type="㇐b" d="M53.79 32.89c8.29-.8 27.18-2.76 30.74-3.26 1.24-.17 3.35-.33 3.98-.11"/><path id="kvg:05abd-s8" kvg:type="㇐b" d="M53.91 46.67c8.29-.8 28.18-2.76 31.74-3.26 1.24-.17 3.35-.33 3.98-.11"/><path id="kvg:05abd-s9" kvg:type="㇆a" d="M52.87 62.57c10.5-1.72 32.72-4.23 38.54-4.75 3.78-.34 5.41.85 5.01 4.71C95 76.1 91.95 86.09 89.58 91.47c-4.11 9.35-5.88 5.85-9.7.42"/><g id="kvg:05abd-g3" kvg:element="灬" kvg:variant="true" kvg:original="火"><path id="kvg:05abd-s10" kvg:type="㇔" d="M49.46 73.06c-.21 5.94-2.43 12.82-3.81 16.4"/><path id="kvg:05abd-s11" kvg:type="㇔" d="M57.29 72.04c2.1 2.62 4.08 9.62 4.58 13.56"/><path id="kvg:05abd-s12" kvg:type="㇔" d="M68.24 69.34c2.2 2.13 5.67 8.65 6.19 11.86"/><path id="kvg:05abd-s13" kvg:type="㇔" d="M79 67.63c2.19 1.67 5.63 6.74 6.17 9.23"/></g></g></g></g></svg>