<!DOCTYPE svg PUBLIC "-//W3C//DTD SVG 1.0//EN" "http://www.w3.org/TR/2001/REC-SVG-20010904/DTD/svg10.dtd" [
<!ATTLIST g
xmlns:kvg CDATA #FIXED "http://kanjivg.tagaini.net"
kvg:element CDATA #IMPLIED
kvg:variant CDATA #IMPLIED
kvg:partial CDATA #IMPLIED
kvg:original CDATA #IMPLIED
kvg:part CDATA #IMPLIED
kvg:number CDATA #IMPLIED
kvg:tradForm CDATA #IMPLIED
kvg:radicalForm CDATA #IMPLIED
kvg:position CDATA #IMPLIED
kvg:radical CDATA #IMPLIED
kvg:phon CDATA #IMPLIED >
<!ATTLIST path
xmlns:kvg CDATA #FIXED "http://kanjivg.tagaini.net"
kvg:type CDATA #IMPLIED >
]><svg xmlns="http://www.w3.org/2000/svg" width="109" height="109" viewBox="0 0 109 109"><g id="kvg:StrokePaths_05acc" style="fill:none;stroke:#000000;stroke-width:3;stroke-linecap:round;stroke-linejoin:round;"><g id="kvg:05acc" kvg:element="嫌"><g id="kvg:05acc-g1" kvg:element="女" kvg:variant="true" kvg:position="left" kvg:radical="general"><path id="kvg:05acc-s1" kvg:type="㇛" d="M28.25 19.87c.37.97.53 2.55.34 3.95-.93 6.88-5.72 25.56-10.56 34.62-.87 1.63-.65 2.52.84 2.95 6.5 1.86 11 5.36 14.85 9.63 1.8 2 3.22 4.38 4.86 6.73"/><path id="kvg:05acc-s2" kvg:type="㇒" d="M37.12 36.53c.08 1.18.13 3.05-.15 4.76C34.68 55.11 29.75 73.25 12.74 86"/><path id="kvg:05acc-s3" kvg:type="㇀/㇐" d="M12.25 45.18c.5 1.07 1.46 1.52 3.31 1.05 2.82-.72 16.25-3.8 24.69-6.02"/></g><g id="kvg:05acc-g2" kvg:element="兼" kvg:position="right" kvg:phon="兼"><g id="kvg:05acc-g3" kvg:element="八" kvg:variant="true" kvg:position="top"><g id="kvg:05acc-g4" kvg:position="left"><path id="kvg:05acc-s4" kvg:type="㇔" d="M50.12 15.12c2.67 2.08 6.9 8.55 7.56 11.79"/></g><g id="kvg:05acc-g5" kvg:position="right"><path id="kvg:05acc-s5" kvg:type="㇒" d="M78.11 11.89c.07.78-.41 1.57-.74 2.27-1.5 3.21-3.55 6.34-8.02 11.67"/></g></g><g id="kvg:05acc-g6" kvg:position="bottom"><path id="kvg:05acc-s6" kvg:type="㇐" d="M45.87 30.18c2.51.44 5.08.19 7.14-.05 7.17-.83 21.33-2.27 29.74-3.12 2.19-.22 4.63-.29 6.77.25"/><g id="kvg:05acc-g7" kvg:element="⺕" kvg:variant="true" kvg:original="彑"><path id="kvg:05acc-s7" kvg:type="㇕c" d="M48.13 42.38c2.05.34 4.02.41 6.12.14 8.58-1.12 18.59-2.45 26.37-3.09 2.57-.21 4.09.84 3.6 3.7-1 5.86-1.7 7.14-3.04 17.22"/><path id="kvg:05acc-s8" kvg:type="㇐" d="M42.25 53.1c2.6.34 5.03.39 7.62.07 13.51-1.67 25.44-2.96 35.88-3.63 2.7-.17 5.1-.21 7.75.41"/><path id="kvg:05acc-s9" kvg:type="㇐" d="M47.52 63.82c2.03.29 3.78.42 5.84.27 8.93-.67 15.87-1.76 24.25-2.64 1.79-.19 3.44-.24 5.23-.02"/></g><g id="kvg:05acc-g8" kvg:element="丨"><path id="kvg:05acc-s10" kvg:type="㇑" d="M57.64 31.23c.81.81 1.15 1.77 1.15 3.17.0 2.9.04 40.25.06 56.47.0 3.92.01 6.57.01 7.12"/></g><g id="kvg:05acc-g9" kvg:element="丨"><path id="kvg:05acc-s11" kvg:type="㇑" d="M69.11 29.81c.85.85 1.15 2.17 1.15 3.17.0 4.13.04 39.52.06 56.77.0 4.89.01 7.17.01 8.28"/></g><path id="kvg:05acc-s12" kvg:type="㇒" d="M57.38 65.33c0 1.8-.89 3.58-1.99 5.5-4.54 7.93-11.89 15.83-18.01 19.86"/><path id="kvg:05acc-s13" kvg:type="㇏" d="M71.41 64.4c2.84 3.6 8.84 11.23 15.38 17.56 2.18 2.11 4.02 4.15 6.41 5.98"/></g></g></g></g><g id="kvg:StrokeNumbers_05acc" style="font-size:8;fill:#808080"><text transform="matrix(1 0 0 1 20.50 19.50)">1</text><text transform="matrix(1 0 0 1 32.25 33.13)">2</text><text transform="matrix(1 0 0 1 4.50 46.50)">3</text><text transform="matrix(1 0 0 1 42.75 15.13)">4</text><text transform="matrix(1 0 0 1 68.50 11.50)">5</text><text transform="matrix(1 0 0 1 42.75 27.13)">6</text><text transform="matrix(1 0 0 1 45.50 40.50)">7</text><text transform="matrix(1 0 0 1 39.75 50.98)">8</text><text transform="matrix(1 0 0 1 40.50 63.50)">9</text><text transform="matrix(1 0 0 1 49.50 38.50)">10</text><text transform="matrix(1 0 0 1 62.50 36.50)">11</text><text transform="matrix(1 0 0 1 43.50 73.50)">12</text><text transform="matrix(1 0 0 1 79.50 71.50)">13</text></g></svg>