<!DOCTYPE svg PUBLIC "-//W3C//DTD SVG 1.0//EN" "http://www.w3.org/TR/2001/REC-SVG-20010904/DTD/svg10.dtd" [
<!ATTLIST g
xmlns:kvg CDATA #FIXED "http://kanjivg.tagaini.net"
kvg:element CDATA #IMPLIED
kvg:variant CDATA #IMPLIED
kvg:partial CDATA #IMPLIED
kvg:original CDATA #IMPLIED
kvg:part CDATA #IMPLIED
kvg:number CDATA #IMPLIED
kvg:tradForm CDATA #IMPLIED
kvg:radicalForm CDATA #IMPLIED
kvg:position CDATA #IMPLIED
kvg:radical CDATA #IMPLIED
kvg:phon CDATA #IMPLIED >
<!ATTLIST path
xmlns:kvg CDATA #FIXED "http://kanjivg.tagaini.net"
kvg:type CDATA #IMPLIED >
]><svg xmlns="http://www.w3.org/2000/svg" width="109" height="109" viewBox="0 0 109 109"><g id="kvg:StrokePaths_05ad7" style="fill:none;stroke:#000000;stroke-width:3;stroke-linecap:round;stroke-linejoin:round;"><g id="kvg:05ad7" kvg:element="嫗"><g id="kvg:05ad7-g1" kvg:element="女" kvg:variant="true" kvg:position="left" kvg:radical="general"><path id="kvg:05ad7-s1" kvg:type="㇛" d="M25.48 16.87c.39 1.04 1.08 2.74.89 4.24C25.38 28.5 20.5 54.5 15.23 63.9c-.97 1.73.4 2.46.89 2.63 9.38 3.22 17.38 10.62 22.63 18.25"/><path id="kvg:05ad7-s2" kvg:type="㇒" d="M37.25 36.89c.08 1.27.14 4.34-.16 6.18C34.68 57.91 27.73 78.96 10.5 90"/><path id="kvg:05ad7-s3" kvg:type="㇀/㇐" d="M6.5 46.72c.75.94 1.75 1.62 3.75 1.39 2.15-.24 21.34-4.35 30.25-6.73"/></g><g id="kvg:05ad7-g2" kvg:element="區" kvg:position="right"><g id="kvg:05ad7-g3" kvg:element="匚" kvg:part="1" kvg:position="kamae"><path id="kvg:05ad7-s4" kvg:type="㇐" d="M43.38 18.72c1.35.47 3.82.55 5.16.47 14.02-.79 27.17-3.23 42.29-3.66 2.24-.06 3.59.23 4.71.46"/></g><g id="kvg:05ad7-g4" kvg:element="品"><g id="kvg:05ad7-g5" kvg:element="口" kvg:position="top"><path id="kvg:05ad7-s5" kvg:type="㇑" d="M60.43 28.37c.31.31.64.57.77.96 1.09 3.08 2.89 11.57 3.64 17.09"/><path id="kvg:05ad7-s6" kvg:type="㇕b" d="M61.84 29.88c7.49-1.18 19.09-2.56 23.38-3.03 1.57-.17 2.51 1.02 2.29 2.04-.93 4.19-1.58 6.5-2.96 12.3"/><path id="kvg:05ad7-s7" kvg:type="㇐b" d="M64.79 43.98c5.04-.53 14.84-1.45 21.76-2.27"/></g><g id="kvg:05ad7-g6" kvg:position="bottom"><g id="kvg:05ad7-g7" kvg:element="口" kvg:position="left"><path id="kvg:05ad7-s8" kvg:type="㇑" d="M54.87 56.54c.35.41.7.76.85 1.27 1.2 4.09 2.47 16.84 3.3 24.19"/><path id="kvg:05ad7-s9" kvg:type="㇕b" d="M56.62 58.81c4.42-1.08 9.85-2.44 13.92-2.98 1.48-.2 2.38 1.17 2.16 2.32-.88 4.78-1.5 12.17-2.8 18.77"/><path id="kvg:05ad7-s10" kvg:type="㇐b" d="M58.94 79.05c4.77-.61 11.03-2.18 12.85-2.07"/></g><g id="kvg:05ad7-g8" kvg:element="口" kvg:position="right"><path id="kvg:05ad7-s11" kvg:type="㇑" d="M78.8 55.14c.37.4.74.72.9 1.22 1.27 3.91 2.29 16.69 3.16 23.71"/><path id="kvg:05ad7-s12" kvg:type="㇕b" d="M80.22 56.79c7.06-1.53 10.57-2.79 14.87-3.3 1.57-.19 2.51 1.11 2.29 2.21-.93 4.57-2.01 11.08-3.4 17.39"/><path id="kvg:05ad7-s13" kvg:type="㇐b" d="M83.1 76.14c5.04-.58 5.52-.58 12.44-1.48"/></g></g></g><g id="kvg:05ad7-g9" kvg:element="匚" kvg:part="2" kvg:position="kamae"><path id="kvg:05ad7-s14" kvg:type="㇗" d="M47.68 19.61c0 3.5-.44 67.64-.44 70.92.0 2.78.91 3.82 2.44 3.5 12.06-2.53 43.33-4.36 46.22-4.36 2.88.0 3.84.33 6.09 1.16"/></g></g></g></g><g id="kvg:StrokeNumbers_05ad7" style="font-size:8;fill:#808080"><text transform="matrix(1 0 0 1 19.00 16.50)">1</text><text transform="matrix(1 0 0 1 32.00 32.50)">2</text><text transform="matrix(1 0 0 1 0.00 47.50)">3</text><text transform="matrix(1 0 0 1 44.00 16.50)">4</text><text transform="matrix(1 0 0 1 55.00 36.50)">5</text><text transform="matrix(1 0 0 1 64.00 26.50)">6</text><text transform="matrix(1 0 0 1 68.00 40.50)">7</text><text transform="matrix(1 0 0 1 50.00 67.50)">8</text><text transform="matrix(1 0 0 1 58.00 54.50)">9</text><text transform="matrix(1 0 0 1 60.25 75.50)">10</text><text transform="matrix(1 0 0 1 74.00 68.50)">11</text><text transform="matrix(1 0 0 1 82.00 52.50)">12</text><text transform="matrix(1 0 0 1 85.00 73.50)">13</text><text transform="matrix(1 0 0 1 37.00 27.50)">14</text></g></svg>