<svg xmlns="http://www.w3.org/2000/svg" width="109" height="109" viewBox="0 0 109 109"><g id="kvg:StrokePaths_05ad0"><g id="kvg:05ad0" kvg:element="嫐"><g id="kvg:05ad0-g1" kvg:element="娚" kvg:position="left"><g id="kvg:05ad0-g2" kvg:element="女" kvg:position="left" kvg:radical="general"><path id="kvg:05ad0-s1" kvg:type="㇛" d="M24.09 16.37c.31 1.06.86 2.8.7 4.34-.78 7.55-6.39 34.92-9.81 43.76-.7 1.81.32 2.52.7 2.69 7.42 3.29 13.75 9.33 17.9 17.13"/><path id="kvg:05ad0-s2" kvg:type="㇒" d="M33.27 36.89c.48 1.11.61 3.38.37 5.24-1.97 14.98-8.17 37.22-22.27 48.37"/><path id="kvg:05ad0-s3" kvg:type="㇐" d="M9.5 43.39c.61.66 1.41 1.14 3.03.98 1.74-.17 17.22-3.06 24.41-4.75"/></g><g id="kvg:05ad0-g3" kvg:element="男" kvg:position="right"><g id="kvg:05ad0-g4" kvg:element="田" kvg:position="top"><path id="kvg:05ad0-s4" kvg:type="㇑" d="M39.81 16.06c.32.91.94 2.03 1.01 2.93.44 5.22 2.34 14.45 2.79 24.16"/><path id="kvg:05ad0-s5" kvg:type="㇕a" d="M40.67 17.37c5.93-.94 18.62-2.7 22.66-2.85 1.67-.06 2.52 1.34 2.43 2.75-.33 5.18-1.86 15.6-2.88 24.38"/><path id="kvg:05ad0-s6" kvg:type="㇑a" d="M52.52 17.61c.22.71.43 1.5.43 2.3.01 8.06.08 18.21.08 20.54"/><path id="kvg:05ad0-s7" kvg:type="㇐a" d="M41.9 28.72c1.98-.26 19.95-2.45 21.59-2.45"/><path id="kvg:05ad0-s8" kvg:type="㇐a" d="M43.94 41.77c8.09-1.34 12.24-1.84 19-2.49"/></g><g id="kvg:05ad0-g5" kvg:element="力" kvg:position="bottom"><path id="kvg:05ad0-s9" kvg:type="㇆" d="M34.2 56.78c.82.44 2.85.84 3.57.74 5.49-.77 15.74-1.52 23.18-3.38 2.06-.52 2.69 1.32 2.58 3.37-.31 5.42-3.77 22.99-7.1 30.13-3.07 6.58-6.17 3.58-7.46.65"/><path id="kvg:05ad0-s10" kvg:type="㇒" d="M52.16 44.36c.05 1.11.13 2.86-.1 4.44-1.71 11.73-6.97 30.46-18.17 42.54"/></g></g></g><g id="kvg:05ad0-g6" kvg:element="女" kvg:position="right"><path id="kvg:05ad0-s11" kvg:type="㇛" d="M80.7 16.37c.8.88 1.07 3.53.88 5.47-.93 9.52-5.83 32.92-10.88 43.83-1.03 2.24.4 2.69.86 2.86 7.69 2.97 16.94 10.22 22.65 22.72"/><path id="kvg:05ad0-s12" kvg:type="㇒" d="M91.63 37.43c.08 1.35.13 4.63-.16 6.58C89.08 59.82 82.19 82.23 65.1 94"/><path id="kvg:05ad0-s13" kvg:type="㇐" d="M67.88 42.71c1.13.3 2.33.51 2.87.46 11.41-.95 16.16-3.15 27.06-3.28.9-.01 2.46.18 3.19.53"/></g></g></g></svg>