<svg xmlns="http://www.w3.org/2000/svg" width="109" height="109" viewBox="0 0 109 109"><g id="kvg:StrokePaths_05ae9"><g id="kvg:05ae9" kvg:element="嫩"><g id="kvg:05ae9-g1" kvg:element="女" kvg:variant="true" kvg:position="left" kvg:radical="general"><path id="kvg:05ae9-s1" kvg:type="㇛" d="M23.23 15.87c.39 1.04 1.08 2.74.89 4.24C23.13 27.5 16.8 52.76 12.48 61.4c-.89 1.77.4 2.46.89 2.63 9.38 3.22 15.38 7.62 20.63 15.25"/><path id="kvg:05ae9-s2" kvg:type="㇒" d="M33.5 35.89c.08 1.23.13 4.22-.15 6C31.05 56.32 24.43 76.77 8 87.5"/><path id="kvg:05ae9-s3" kvg:type="㇀/㇐" d="M6.75 44.22c.75.94 1.75 1.62 3.75 1.39 2.15-.24 17.34-4.35 26.25-6.73"/></g><g id="kvg:05ae9-g2" kvg:element="敕" kvg:position="right"><g id="kvg:05ae9-g3" kvg:element="束" kvg:position="left"><g id="kvg:05ae9-g4" kvg:element="木" kvg:part="1"><path id="kvg:05ae9-s4" kvg:type="㇐" d="M37.03 30.01c.77.35 2.17.41 2.94.35 6.46-.48 17.5-2.1 23.4-2.67 1.28-.12 2.05.17 2.69.35"/></g><g id="kvg:05ae9-g5" kvg:element="口"><path id="kvg:05ae9-s5" kvg:type="㇑" d="M40.02 39.22c.3.35.6.65.73 1.09 1.03 3.5 2.31 13.58 3.22 20.06"/><path id="kvg:05ae9-s6" kvg:type="㇕b" d="M41.86 40.63c8.89-1.52 16.76-2.53 20.24-2.88 2.17-.22 3.37 1.71 2.96 3.8-.61 3.12-2.35 9.79-3.01 13.95"/><path id="kvg:05ae9-s7" kvg:type="㇐b" d="M44.1 58.69c6.35-.86 15.61-2.02 21.22-2.22"/></g><g id="kvg:05ae9-g6" kvg:element="木" kvg:part="2"><path id="kvg:05ae9-s8" kvg:type="㇑" d="M51.12 13.91c.93.46 1.48 2.08 1.67 3.01s0 70.63-.19 76.42"/><path id="kvg:05ae9-s9" kvg:type="㇒" d="M53.1 56.02C50.27 65.34 42.9 78.53 37 83.81"/><path id="kvg:05ae9-s10" kvg:type="㇏" d="M55.32 65.6c3.31 2.07 8.06 6.38 10.82 10.33"/></g></g><g id="kvg:05ae9-g7" kvg:element="攵" kvg:variant="true" kvg:original="攴" kvg:position="right"><g id="kvg:05ae9-g8" kvg:element="𠂉" kvg:position="top"><path id="kvg:05ae9-s11" kvg:type="㇒" d="M79.14 15.4c.03.78.18 2.07-.05 3.14-1.48 6.9-4.81 20.52-9.93 30.07"/><path id="kvg:05ae9-s12" kvg:type="㇐" d="M76.31 38.4c1.35.34 3.03.0 3.53-.05 5.16-.54 11.86-2.22 14.94-2.83.88-.17 3.46-.02 3.69.09"/></g><g id="kvg:05ae9-g9" kvg:element="乂" kvg:position="bottom"><g id="kvg:05ae9-g10" kvg:element="丿"><path id="kvg:05ae9-s13" kvg:type="㇒" d="M87.27 41.12c.39 1.31.6 2.25.19 4.65-3.68 21.77-10.43 37.88-25.19 46.59"/></g><path id="kvg:05ae9-s14" kvg:type="㇏" d="M68.25 53.75c4.25.75 19.16 27.71 27.2 35.28 1.55 1.46 2.53 1.7 3.8 1.85"/></g></g></g></g></g></svg>