<svg xmlns="http://www.w3.org/2000/svg" width="109" height="109" viewBox="0 0 109 109"><g id="kvg:StrokePaths_05afa" style="fill:none;stroke:#000000;stroke-width:3;stroke-linecap:round;stroke-linejoin:round;"><g id="kvg:05afa" kvg:element="嫺"><g id="kvg:05afa-g1" kvg:element="女" kvg:variant="true" kvg:position="left" kvg:radical="general"><path id="kvg:05afa-s1" kvg:type="㇛" d="M26.48 16.87c.39 1.04 1.08 2.74.89 4.24-.98 7.39-6.81 34.15-11.13 42.79-.89 1.77.4 2.46.89 2.63C26.5 69.75 35 76.5 39.75 85.28"/><path id="kvg:05afa-s2" kvg:type="㇒" d="M37.75 37.39c.08 1.27.14 4.34-.16 6.18C35.18 58.41 28.23 79.46 11 90.5"/><path id="kvg:05afa-s3" kvg:type="㇀/㇐" d="M8 46.72c.75.94 1.75 1.62 3.75 1.39 2.15-.24 21.34-4.35 30.25-6.73"/></g><g id="kvg:05afa-g2" kvg:element="間" kvg:variant="true" kvg:position="right"><g id="kvg:05afa-g3" kvg:element="門" kvg:position="kamae"><g id="kvg:05afa-g4" kvg:position="left"><path id="kvg:05afa-s4" kvg:type="㇑" d="M47.89 18.16c.6.45 1.06 2.38 1.18 3.27s-.08 69.28-.2 74.84"/><path id="kvg:05afa-s5" kvg:type="㇕a" d="M49.23 19.12c2.01-.1 14.78-2.63 16.6-2.75 1.52-.1 2.31.9 2.39 1.69.11 1.21-1.77 24.56-1.77 25.15"/><path id="kvg:05afa-s6" kvg:type="㇐a" d="M49.59 30.78c4.93-.58 12.59-1.59 17.34-2.22"/><path id="kvg:05afa-s7" kvg:type="㇐a" d="M49.23 43.74c6.68-1.14 11.26-1.5 17.16-2.02"/></g><g id="kvg:05afa-g5" kvg:position="right"><path id="kvg:05afa-s8" kvg:type="㇑" d="M76.68 16.3c.34.53.69 1.65.69 2.36.0.7-.12 23 0 23.7"/><path id="kvg:05afa-s9" kvg:type="㇆a" d="M77.44 17.73c1.94-.09 16.73-2.88 18.5-2.99 1.48-.09 2.33 1.46 2.31 1.99-.38 16.2-.39 62-.39 73.75.0 10.01-5.93 1.29-7.06.22"/><path id="kvg:05afa-s10" kvg:type="㇐a" d="M77.78 28.45c2.63.0 16.25-1.66 19.22-1.66"/><path id="kvg:05afa-s11" kvg:type="㇐a" d="M77.94 40.44c3.89.0 14.3-1.48 19.33-1.48"/></g></g><g id="kvg:05afa-g6" kvg:element="日" kvg:variant="true"><g id="kvg:05afa-g7" kvg:element="月"><path id="kvg:05afa-s12" kvg:type="㇓" d="M62.45 51.48c.31.51.51 1.02.61 1.52s.09 14.07-.24 18.26c-.47 5.97-.94 11.99-5.32 18.85"/><path id="kvg:05afa-s13" kvg:type="㇆a" d="M63.57 52.86c2.1-.05 12.65-1.92 14.21-2.02 2.8-.19 3.5 1.07 3.5 2.19.0 2.65-.53 14.92-.53 29.96.0 10.34-4.41 4.42-6.2 3.17"/><path id="kvg:05afa-s14" kvg:type="㇐a" d="M63.57 62.87c4.61-.29 12.53-1.68 16.58-1.7"/><path id="kvg:05afa-s15" kvg:type="㇐a" d="M63.51 73c3.79-.07 11.14-1.05 16.29-1.39"/></g></g></g></g></g></svg>