<svg xmlns="http://www.w3.org/2000/svg" width="109" height="109" viewBox="0 0 109 109"><g id="kvg:StrokePaths_05b2a" style="fill:none;stroke:#000000;stroke-width:3;stroke-linecap:round;stroke-linejoin:round;"><g id="kvg:05b2a" kvg:element="嬪"><g id="kvg:05b2a-g1" kvg:element="女" kvg:variant="true" kvg:position="left" kvg:radical="general"><path id="kvg:05b2a-s1" kvg:type="㇛" d="M27.98 16.87c.39 1.04 1.08 2.74.89 4.24-.98 7.39-7.31 34.65-11.63 43.29-.89 1.77.4 2.46.89 2.63 9.38 3.22 17.38 9.12 22.63 16.75"/><path id="kvg:05b2a-s2" kvg:type="㇒" d="M38.76 36.64c.08 1.28.13 4.4-.15 6.27C36.33 57.96 29.76 79.3 13.5 90.5"/><path id="kvg:05b2a-s3" kvg:type="㇀/㇐" d="M9.5 46.72c.75.94 1.75 1.62 3.75 1.39 2.15-.24 21.34-4.35 30.25-6.73"/></g><g id="kvg:05b2a-g2" kvg:element="賓" kvg:variant="true" kvg:position="right"><g id="kvg:05b2a-g3" kvg:position="top"><g id="kvg:05b2a-g4" kvg:element="宀"><path id="kvg:05b2a-s4" kvg:type="㇑a" d="M69.15 11.05c.87.34 2.11 2.02 2.09 3-.06 3.1-.06 5.13-.07 7.96"/><g id="kvg:05b2a-g5" kvg:element="冖"><path id="kvg:05b2a-s5" kvg:type="㇔" d="M50.24 21.89c0 2.77-2.39 11.31-3.3 13.16"/><path id="kvg:05b2a-s6" kvg:type="㇖b" d="M50.56 24.7c6.28-.79 37.81-3.6 42.9-3.9 7.97-.47 1.69 5.2-.3 6.89"/></g></g><path id="kvg:05b2a-s7" kvg:type="㇐" d="M56.58 30.81c.73.35 2.05.39 2.78.35 4.94-.25 18.3-2.31 22.32-2.65 1.2-.1 1.93.17 2.54.35"/><g id="kvg:05b2a-g6" kvg:element="少" kvg:partial="true"><g id="kvg:05b2a-g7" kvg:element="小" kvg:partial="true"><path id="kvg:05b2a-s8" kvg:type="㇚" d="M70.36 31.71c.05.23.69 1.22.74 2.72.24 7.16-.15 6.53-.15 8.97.0 6.92-4.24 1.24-5.12.62"/><path id="kvg:05b2a-s9" kvg:type="㇒" d="M56.45 37.04c.03.26.11.68-.06 1.04-1.18 2.58-6.16 7.55-10.21 9.93"/></g><g id="kvg:05b2a-g8" kvg:element="丿"><path id="kvg:05b2a-s10" kvg:type="㇒" d="M84.92 34.8c.1.55.01 1.95-.62 2.65-5.69 6.27-19.55 15.05-37.8 20.83"/></g></g></g><g id="kvg:05b2a-g9" kvg:element="貝" kvg:position="bottom"><g id="kvg:05b2a-g10" kvg:element="目" kvg:position="top"><path id="kvg:05b2a-s11" kvg:type="㇑" d="M58.05 54.4c.8 1.03 1.21 1.76 1.21 3.44.0 3.81-.36 15.43-.36 26.46"/><path id="kvg:05b2a-s12" kvg:type="㇕a" d="M60.09 54.81c2.79-.21 24.06-2.35 26.61-2.6 2.12-.21 3.25 1.16 3.25 2.73.0 3.84-.62 26.78-.62 28.05"/><path id="kvg:05b2a-s13" kvg:type="㇐a" d="M59.32 63.42c5.22-.32 25.46-1.76 29.93-1.76"/><path id="kvg:05b2a-s14" kvg:type="㇐a" d="M59.55 72.59c7.87-.61 21.39-1.86 29.74-1.98"/><path id="kvg:05b2a-s15" kvg:type="㇐a" d="M59.19 82.38c7.88-.46 22.92-2.17 30.1-2.17"/></g><g id="kvg:05b2a-g11" kvg:element="八" kvg:position="bottom"><path id="kvg:05b2a-s16" kvg:type="㇒" d="M66.34 85.34c.38.92-.25 2.17-1 2.84-2.27 2.02-8.77 6.49-13.31 8.88"/><path id="kvg:05b2a-s17" kvg:type="㇔" d="M79.25 86.86c6.48 3.14 14.14 8.83 15.91 11.58"/></g></g></g></g></g></svg>