<svg xmlns="http://www.w3.org/2000/svg" width="109" height="109" viewBox="0 0 109 109"><g id="kvg:StrokePaths_05b40"><g id="kvg:05b40" kvg:element="孀"><g id="kvg:05b40-g1" kvg:element="女" kvg:variant="true" kvg:position="left" kvg:radical="general"><path id="kvg:05b40-s1" kvg:type="㇛" d="M25.48 15.87c.39 1.04 1.08 2.74.89 4.24-.98 7.39-6.81 32.65-11.13 41.29-.89 1.77.39 2.52.89 2.63C25 66 32.5 72.5 36.25 79.28"/><path id="kvg:05b40-s2" kvg:type="㇒" d="M35.75 36.39c.08 1.22.13 4.18-.16 5.95C33.25 56.62 26.5 76.87 9.75 87.5"/><path id="kvg:05b40-s3" kvg:type="㇀/㇐" d="M9 44.27c.68.91 1.6 1.56 3.42 1.34 1.96-.23 19.46-4.18 27.58-6.48"/></g><g id="kvg:05b40-g2" kvg:element="霜" kvg:position="right"><g id="kvg:05b40-g3" kvg:element="雨" kvg:variant="true" kvg:position="top"><path id="kvg:05b40-s4" kvg:type="㇐" d="M50.85 16.35c1.24.14 2.84.25 3.96.12 6.61-.78 19.95-2.49 30.2-3.08 1.57-.09 2.87-.12 4.32.08"/><path id="kvg:05b40-s5" kvg:type="㇔/㇑" d="M46.56 27.16c-.09 4.29-.81 7.84-2.38 12.37"/><path id="kvg:05b40-s6" kvg:type="㇖b/㇆" d="M47.22 29.03C63 26.5 79 24.75 92.2 24.18c6.01-.26 2.9 3.22-.21 6.95"/><path id="kvg:05b40-s7" kvg:type="㇑" d="M68.1 17.56c.96.64 1.33 1.9 1.33 3.3.0 6.3-.18 23.88-.18 25.29"/><path id="kvg:05b40-s8" kvg:type="㇔" d="M55.07 33.28c2.14.49 5.05 1.96 6.21 2.78"/><path id="kvg:05b40-s9" kvg:type="㇔" d="M53.1 41.71c2.23.59 5.68 2.75 6.9 3.74"/><path id="kvg:05b40-s10" kvg:type="㇔" d="M76.51 32.17c3.32 1 7.07 3 8.4 3.83"/><path id="kvg:05b40-s11" kvg:type="㇔" d="M77.98 41.11c2.5.73 5.92 2.94 7.28 4.17"/></g><g id="kvg:05b40-g4" kvg:element="相" kvg:position="bottom"><g id="kvg:05b40-g5" kvg:element="木" kvg:position="left"><path id="kvg:05b40-s12" kvg:type="㇐" d="M41.64 60.98c1.25.73 2.45.38 3.96.3 6.24-.32 11.71-1.06 18.54-2.16 1.49-.24 1.88-.31 2.82.0"/><path id="kvg:05b40-s13" kvg:type="㇑" d="M55.13 50.77c.73.31 1.17 1.39 1.31 2.01C56.59 53.4 56.3 82.83 56.3 96"/><path id="kvg:05b40-s14" kvg:type="㇒" d="M55.95 60.62c-2.81 7.83-10.12 18.91-15.97 23.34"/><path id="kvg:05b40-s15" kvg:type="㇔" d="M57.65 66.94c3.44 1.4 6.47 4.79 9.1 8.78"/></g><g id="kvg:05b40-g6" kvg:element="目" kvg:position="right"><path id="kvg:05b40-s16" kvg:type="㇑" d="M72.39 52.01c.33.94.81 1.64.81 2.89s-.11 39 0 40.25"/><path id="kvg:05b40-s17" kvg:type="㇕a" d="M73.75 53.45c1.86-.16 15.78-2.16 17.48-2.34 1.42-.16 2.53.87 2.41 2.03-.15 1.47-.55 40-.66 40.92"/><path id="kvg:05b40-s18" kvg:type="㇐a" d="M73.72 65.14c3.68-.21 15.8-1.98 18.79-1.98"/><path id="kvg:05b40-s19" kvg:type="㇐a" d="M73.87 78.27c4.94-.52 14.21-1.87 19.01-1.87"/><path id="kvg:05b40-s20" kvg:type="㇐a" d="M74.46 92.37c3.71.0 13.21-1.4 18.01-1.4"/></g></g></g></g></g></svg>