<svg xmlns="http://www.w3.org/2000/svg" width="109" height="109" viewBox="0 0 109 109"><g id="kvg:StrokePaths_05b43" style="fill:none;stroke:#000000;stroke-width:3;stroke-linecap:round;stroke-linejoin:round;"><g id="kvg:05b43" kvg:element="孃"><g id="kvg:05b43-g1" kvg:element="女" kvg:variant="true" kvg:position="left" kvg:radical="general"><path id="kvg:05b43-s1" kvg:type="㇛" d="M27.59 16.87c.35 1.03.99 2.71.81 4.2-.9 7.3-7.74 34.27-11.7 42.81-.81 1.75.36 2.46.81 2.6C26 69 34.75 74.75 38.25 83.03"/><path id="kvg:05b43-s2" kvg:type="㇒" d="M38.25 37.39c.08 1.27.14 4.34-.16 6.18C35.68 58.41 28.73 79.46 11.5 90.5"/><path id="kvg:05b43-s3" kvg:type="㇀/㇐" d="M9 47.13c.73.84 1.7 1.44 3.64 1.24 2.09-.22 20.72-3.86 29.36-5.99"/></g><g id="kvg:05b43-g2" kvg:element="襄" kvg:position="right"><g id="kvg:05b43-g3" kvg:element="衣" kvg:part="1"><g id="kvg:05b43-g4" kvg:element="亠" kvg:position="top"><path id="kvg:05b43-s4" kvg:type="㇑a" d="M66.55 10c.58.39 1.54 1.74 1.54 2.64.0 1.48-.08 7.76-.08 9.38"/><path id="kvg:05b43-s5" kvg:type="㇐" d="M43.78 23.86c.98.11 3.2.73 4.15.61 10.57-1.29 32.69-4.47 43.1-4.8 1.61-.05 2.43.05 3.63.78"/></g></g><g id="kvg:05b43-g5" kvg:element="口" kvg:position="left"><path id="kvg:05b43-s6" kvg:type="㇑" d="M49.1 30.87c.24.21.51.38.58.66.79 2.79 1.42 7.43 1.98 11.23"/><path id="kvg:05b43-s7" kvg:type="㇕b" d="M50.57 32.3c4.85-1.1 10.28-1.79 13.05-2.07 1.01-.1 1.62.6 1.48 1.2-.6 2.47-.83 3.9-1.72 7.31"/><path id="kvg:05b43-s8" kvg:type="㇐b" d="M51.77 40.9c3.26-.31 8.15-1.37 12.63-1.85"/></g><g id="kvg:05b43-g6" kvg:element="口" kvg:position="right"><path id="kvg:05b43-s9" kvg:type="㇑" d="M71.21 28.06c.23.2.47.36.57.61.8 1.95 1.38 7.33 1.93 10.84"/><path id="kvg:05b43-s10" kvg:type="㇕b" d="M72.65 29.38c4.73-1.02 12.02-2.14 14.74-2.4.99-.09 1.59.56 1.45 1.11-.59 2.28-1.66 4.52-2.53 7.67"/><path id="kvg:05b43-s11" kvg:type="㇐b" d="M73.82 37.79c3.18-.29 9.87-1.3 14.24-1.75"/></g><g id="kvg:05b43-g7" kvg:element="三" kvg:part="1"><g id="kvg:05b43-g8" kvg:element="一" kvg:position="top"><path id="kvg:05b43-s12" kvg:type="㇐" d="M48.7 50.63c.81.3 3.15.36 3.96.3 7.39-.57 27.54-3.34 35.48-4 1.34-.11 2.16.14 2.83.29"/></g></g><path id="kvg:05b43-s13" kvg:type="㇑" d="M58.52 43.94c1.11.46 1.62 2.5 1.62 3.46.0 3.1.3 11.1.3 18.51"/><path id="kvg:05b43-s14" kvg:type="㇑" d="M75.25 42.75c.9.91 1.33 2 1.23 3.42-.39 5.58-.58 10.83-1.12 17.96"/><g id="kvg:05b43-g9" kvg:element="三" kvg:part="1" kvg:position="bottom"><g id="kvg:05b43-g10" kvg:element="一"><path id="kvg:05b43-s15" kvg:type="㇐" d="M47.82 58.33c.91.48 3.54.58 4.46.48 8.31-.91 26.11-3.3 35.05-4.36 1.51-.18 2.43.23 3.19.47"/></g><g id="kvg:05b43-g11" kvg:element="一"><path id="kvg:05b43-s16" kvg:type="㇐" d="M41.48 67.17c1.23.35 3.48.49 4.71.35 11.24-1.27 36.24-4.77 47.51-4.95 2.04-.03 3.28.17 4.3.34"/></g></g><g id="kvg:05b43-g12" kvg:element="衣" kvg:part="2" kvg:position="bottom"><path id="kvg:05b43-s17" kvg:type="㇒" d="M62.29 67.64c.07.46.28 1.22-.14 1.84-2.68 4-11.42 12.24-24.85 18.55"/><path id="kvg:05b43-s18" kvg:type="㇙" d="M56.19 80.15c.36.29.76 1.58.76 2.08-.02 6.4-.25 13.93-.25 15.02.0 1.08.9 1.7 2.04.89s9.6-8.39 12.04-10.23"/><path id="kvg:05b43-s19" kvg:type="㇒" d="M85.78 68.7c.02.23-.25 1.54-.39 1.84-.87 1.85-3.08 4.02-7.52 7.7"/><path id="kvg:05b43-s20" kvg:type="㇏" d="M65.83 70.91c1.37.68 3.57 2.6 3.95 2.89C75.38 78.08 89.01 89 92.8 91.52c1.42.95 2.65 1.36 4.07 1.63"/></g></g></g></g></svg>