<svg xmlns="http://www.w3.org/2000/svg" width="109" height="109" viewBox="0 0 109 109"><g id="kvg:StrokePaths_05b5a" style="fill:none;stroke:#000000;stroke-width:3;stroke-linecap:round;stroke-linejoin:round;"><g id="kvg:05b5a" kvg:element="孚"><g id="kvg:05b5a-g1" kvg:element="⺤" kvg:variant="true" kvg:original="爪" kvg:position="top"><path id="kvg:05b5a-s1" kvg:type="㇒" d="M74.22 10.04c.13.33.27.85-.26 1.32-3.16 2.78-22.21 10.14-46.1 12.62"/><path id="kvg:05b5a-s2" kvg:type="㇒" d="M28.27 28.34c.03.47.07 1.22-.06 1.89-.76 3.99-5.09 12.74-11.02 18.1"/><path id="kvg:05b5a-s3" kvg:type="㇔" d="M47.77 26.24c3.37 1.96 8.71 8.04 9.56 11.09"/><path id="kvg:05b5a-s4" kvg:type="㇔" d="M70.69 22.26c7.04 3.23 18.19 13.31 19.95 18.34"/></g><g id="kvg:05b5a-g2" kvg:element="子" kvg:position="bottom" kvg:radical="general"><path id="kvg:05b5a-s5" kvg:type="㇖" d="M31.73 46.12c1.03.26 2.99.67 4.55.44C38.18 46.28 69.75 42 71.56 42s2.67.78.86 2.34C70.61 45.9 56.79 55.84 52.2 58.67"/><path id="kvg:05b5a-s6" kvg:type="㇁" d="M51.47 57.91c17.03 22.84 7.78 49.09-3.18 36.6"/><path id="kvg:05b5a-s7" kvg:type="㇐" d="M15.25 68.67c1.45.57 4.09.66 5.55.57 12.22-.71 55.38-5.98 67.13-5.82 2.42.03 3.86.27 5.07.56"/></g></g></g></svg>