<svg xmlns="http://www.w3.org/2000/svg" width="109" height="109" viewBox="0 0 109 109"><g id="kvg:StrokePaths_05b5b" style="fill:none;stroke:#000000;stroke-width:3;stroke-linecap:round;stroke-linejoin:round;"><g id="kvg:05b5b" kvg:element="孛"><g id="kvg:05b5b-g1" kvg:position="top"><g id="kvg:05b5b-g2" kvg:element="十"><path id="kvg:05b5b-s1" kvg:type="㇐" d="M27 22.96c1.39.5 4.11.61 5.5.47 8.82-.87 33.24-2.79 43.05-3.59 2.3-.19 4.8.26 5.95.51"/><path id="kvg:05b5b-s2" kvg:type="㇑" d="M52.87 10c1.09.5 1.96 2.23 1.96 3.25.0 7.25.03 16 .03 21.5"/></g><g id="kvg:05b5b-g3" kvg:element="冖"><path id="kvg:05b5b-s3" kvg:type="㇔" d="M19.41 36.13c0 3.71-2.35 13.9-3.41 16.37"/><path id="kvg:05b5b-s4" kvg:type="㇖b" d="M19.74 38.24c15.01-.99 58.24-4.53 65.95-4.9 12.05-.59 2.55 7.16-.45 9.28"/></g></g><g id="kvg:05b5b-g4" kvg:element="子" kvg:position="bottom" kvg:radical="general"><path id="kvg:05b5b-s5" kvg:type="㇖" d="M33.47 48.49c1.05.27 3.04.71 4.63.47 1.93-.3 25.94-3.65 27.78-3.65s3.84.82 2 2.47-10.32 8.65-14.99 11.64"/><path id="kvg:05b5b-s6" kvg:type="㇁" d="M51.38 58.15C57 65 63.92 79.85 57.83 94.49c-3.33 8.01-6.83 6.01-9.89.59"/><path id="kvg:05b5b-s7" kvg:type="㇐" d="M17.44 69.77c1.3.65 4.66.87 7 .71 8.17-.56 52.16-5.24 62.04-4.67 2.33.14 4.41.22 5.96.87"/></g></g></g></svg>