<svg xmlns="http://www.w3.org/2000/svg" width="109" height="109" viewBox="0 0 109 109"><g id="kvg:StrokePaths_05b50"><g id="kvg:05b50" kvg:element="子" kvg:radical="general"><path id="kvg:05b50-s1" kvg:type="㇖" d="M33.28 19.04c1.84.71 3.7.86 5.4.63 4.95-.67 27.95-4.58 29.86-4.92 3.46-.62 4.06 1.36 2.11 3.58S59.24 31.5 54.3 35.52"/><path id="kvg:05b50-s2" kvg:type="㇁" d="M52.48 37.74c6.42 2.97 11.75 30.73 5.24 52.57-2.8 9.38-8.09 2.96-10.47.99"/><path id="kvg:05b50-s3" kvg:type="㇐" d="M12.25 51.48c3.75 1.14 8.79 1.03 12.48.49 16.77-2.47 42.86-5.84 58.53-6.75 4.26-.25 9.11-.34 13.11.57"/></g></g></svg>