<svg xmlns="http://www.w3.org/2000/svg" width="109" height="109" viewBox="0 0 109 109"><g id="kvg:StrokePaths_05b63" style="fill:none;stroke:#000000;stroke-width:3;stroke-linecap:round;stroke-linejoin:round;"><g id="kvg:05b63" kvg:element="季"><g id="kvg:05b63-g1" kvg:element="禾" kvg:position="top" kvg:radical="nelson"><g id="kvg:05b63-g2" kvg:element="丿" kvg:position="top"><path id="kvg:05b63-s1" kvg:type="㇒" d="M66.61 9.75c-.11 1-.99 1.71-1.63 2.08-3.99 2.28-15.13 5.86-31.82 8.41"/></g><g id="kvg:05b63-g3" kvg:element="木" kvg:position="bottom"><path id="kvg:05b63-s2" kvg:type="㇐" d="M22.3 32.26c2.44.57 5.09.53 7.56.26 10.39-1.17 34.35-3.97 46.77-4.52 2.13-.1 4.92-.07 7.05.23"/><path id="kvg:05b63-s3" kvg:type="㇑" d="M52.71 19.78c.82.82 1.22 1.97 1.22 3 0 .45-.09 13.55-.12 21.22-.01 1.79-.01 3.28-.01 4.25"/><path id="kvg:05b63-s4" kvg:type="㇒" d="M47.47 31.41c0 .59-.34 1.24-.92 1.89-7.18 7.93-17.87 17.37-32.64 22.52"/><path id="kvg:05b63-s5" kvg:type="㇏" d="M55.09 30.02c7.16 5.1 24.79 17.35 32.82 20.86 1.92.84 3.37 1.48 5.19 1.78"/></g></g><g id="kvg:05b63-g4" kvg:element="子" kvg:position="bottom" kvg:radical="tradit"><path id="kvg:05b63-s6" kvg:type="㇖" d="M36.5 53.3c1.25.58 3.11.93 4.5.87C44.88 54 62.12 51.49 65.46 51c2.54-.38 2.81 1.66 1.22 2.98s-8.4 6.17-12.43 8.56"/><path id="kvg:05b63-s7" kvg:type="㇁" d="M51.62 63.54c4.63 4.21 10.39 18.24 4.54 31.1-2.15 4.73-5.78 2.48-9.57-1.65"/><path id="kvg:05b63-s8" kvg:type="㇐" d="M20.65 74.56c3.23.94 6.82.67 9.73.39 10.26-.99 34.55-3.35 46.12-3.92 3.25-.16 7 .09 9.86.88"/></g></g></g></svg>