<svg xmlns="http://www.w3.org/2000/svg" width="109" height="109" viewBox="0 0 109 109"><g id="kvg:StrokePaths_05b78" style="fill:none;stroke:#000000;stroke-width:3;stroke-linecap:round;stroke-linejoin:round;"><g id="kvg:05b78" kvg:element="學"><g id="kvg:05b78-g1" kvg:element="𦥯" kvg:position="top"><g id="kvg:05b78-g2" kvg:element="爻"><g id="kvg:05b78-g3" kvg:element="乂" kvg:position="top"><path id="kvg:05b78-s1" kvg:type="㇒" d="M59.03 10.01c.03.3.07.77-.06 1.19C58.21 13.72 53.9 19.24 48 22.62"/><path id="kvg:05b78-s2" kvg:type="㇏" d="M49.68 13.36c4.26 1.01 9.92 6.14 11.58 9.69"/></g><g id="kvg:05b78-g4" kvg:element="乂" kvg:position="bottom"><path id="kvg:05b78-s3" kvg:type="㇒" d="M58.65 27.58c.03.35.07.9-.07 1.4-.84 2.96-5.64 9.44-12.21 13.41"/><path id="kvg:05b78-s4" kvg:type="㇏" d="M49.24 31.62c4.1 1.03 9.55 6.23 11.15 9.84"/></g></g><g id="kvg:05b78-g5" kvg:element="𦥑" kvg:variant="true" kvg:original="臼"><path id="kvg:05b78-s5" kvg:type="㇒" d="M40.39 9.71c.03.23.15.68-.07.93-2.8 3.3-6.07 6.25-12.46 8.88"/><path id="kvg:05b78-s6" kvg:type="㇑" d="M27.04 17.49c.71.74 1.12 2.38 1.18 3.9C28.5 28.5 29 40.75 29.55 49.5"/><path id="kvg:05b78-s7" kvg:type="㇐" d="M28.87 26.48c3.53-.34 8.28-1.18 9.12-1.18s2.02.0 2.69.0"/><path id="kvg:05b78-s8" kvg:type="㇐" d="M29.62 36.73c3.53-.34 8.28-1.18 9.12-1.18s2.02.0 2.69.0"/><path id="kvg:05b78-s9" kvg:type="㇕" d="M66.71 14.57C67.43 14.71 68 15 69 15s11.62-1.72 12.77-1.87c1.15-.14 2.1.71 2.01 1.58-.86 8.32-3.01 24.4-3.87 31.28"/><path id="kvg:05b78-s10" kvg:type="㇐" d="M67.5 24.42c.72.14 1.29.43 2.29.43s11.34-1.15 12.49-1.29"/><path id="kvg:05b78-s11" kvg:type="㇐" d="M68.25 34.67c.72.14 1.29.43 2.29.43s9.34-1.15 10.49-1.29"/></g><g id="kvg:05b78-g6" kvg:element="冖"><path id="kvg:05b78-s12" kvg:type="㇔" d="M20.72 48.38c0 3.54-1.9 13.26-2.77 15.62"/><path id="kvg:05b78-s13" kvg:type="㇖b" d="M22.24 51.24c9.51-.99 56.74-4.53 64.45-4.9 12.05-.59 2.55 7.16-.45 9.28"/></g></g><g id="kvg:05b78-g7" kvg:element="子" kvg:position="bottom" kvg:radical="general"><path id="kvg:05b78-s14" kvg:type="㇖" d="M38.34 58.52c.9.23 2.6.61 3.95.4 1.65-.25 21.13-2.61 22.71-2.61 1.57.0 3.28.7 1.7 2.11-1.57 1.41-8.8 7.38-12.79 9.93"/><path id="kvg:05b78-s15" kvg:type="㇁" d="M52.07 69.26c3.85 5.15 8.59 16.31 4.42 27.31-2.28 6.02-4.68 4.52-6.78.44"/><path id="kvg:05b78-s16" kvg:type="㇐" d="M19.69 76.97c1.2.6 4.32.81 6.48.66 7.57-.52 48.34-4.85 57.49-4.32 2.16.13 4.08.2 5.52.8"/></g></g></g></svg>