<svg xmlns="http://www.w3.org/2000/svg" width="109" height="109" viewBox="0 0 109 109"><g id="kvg:StrokePaths_05b70" style="fill:none;stroke:#000000;stroke-width:3;stroke-linecap:round;stroke-linejoin:round;"><g id="kvg:05b70" kvg:element="孰"><g id="kvg:05b70-g1" kvg:element="享" kvg:position="left"><g id="kvg:05b70-g2" kvg:element="亠" kvg:position="top" kvg:radical="nelson"><path id="kvg:05b70-s1" kvg:type="㇑a" d="M31.11 11.5c.91.49 2.4 2.38 2.4 3.35.0 3.59-.12 4.4-.12 7.88"/><path id="kvg:05b70-s2" kvg:type="㇐" d="M11.37 24.87c.85.06 2.8.41 3.63.33 6.7-.69 25.57-3.24 35.13-3.72 1.41-.07 2.13.03 3.17.42"/></g><g id="kvg:05b70-g3" kvg:position="bottom"><g id="kvg:05b70-g4" kvg:element="口"><path id="kvg:05b70-s3" kvg:type="㇑" d="M19.3 33.2c.28.26.57.48.7.8.98 2.57 2 7.79 2.67 12.41"/><path id="kvg:05b70-s4" kvg:type="㇕b" d="M21.07 34.09c6.94-1.08 19.2-2.87 22.78-3.24 1.31-.13 2.09 1.34 1.91 2.12-.78 3.24-.98 5.15-2.64 9.82"/><path id="kvg:05b70-s5" kvg:type="㇐b" d="M23.46 45.72c4.2-.41 15.63-2.1 20.96-2.52"/></g><g id="kvg:05b70-g5" kvg:element="子" kvg:variant="true" kvg:radical="tradit"><path id="kvg:05b70-s6" kvg:type="㇖" d="M17.87 54.24c.96.19 2.76.5 4.2.33 1.75-.21 20.73-3.42 22.4-3.42s2.55 1.05.88 2.21c-1.67 1.16-6.67 5.62-12.83 10.12"/><path id="kvg:05b70-s7" kvg:type="㇁" d="M31.95 63.08c4.12 3.61 7.88 17.38 2.71 27.96-3.06 6.26-5.82 1.05-7.3.53"/><path id="kvg:05b70-s8" kvg:type="㇀/㇐" d="M14.5 78c1.28.68 3.06.91 5.25.0 9-3.75 18.75-8.5 30-13.63"/></g></g></g><g id="kvg:05b70-g6" kvg:element="丸" kvg:position="right"><g id="kvg:05b70-g7" kvg:element="九"><path id="kvg:05b70-s9" kvg:type="㇒" d="M69.02 13.88c.58.69 1.39 2.16 1.36 3.41C69.5 51 60.25 78.75 43.88 94.25"/><g id="kvg:05b70-g8" kvg:element="乙"><path id="kvg:05b70-s10" kvg:type="㇈" d="M53.75 37.85c.74.82 3.52.27 4.45.0s23.74-6.53 24.57-6.59c1.85-.14 3.71 1.04 3.15 4.11-.83 4.52-5.48 27.69-6.33 38.88-.79 10.4.91 19.17 8.22 19.17 11.44.0 8.93-1.9 8.93-9.27"/></g></g><g id="kvg:05b70-g9" kvg:element="丶"><path id="kvg:05b70-s11" kvg:type="㇔" d="M54 57.5c6.02 2.2 15.55 9.05 17.06 12.47"/></g></g></g></g></svg>