<svg xmlns="http://www.w3.org/2000/svg" width="109" height="109" viewBox="0 0 109 109"><g id="kvg:StrokePaths_05b9d"><g id="kvg:05b9d" kvg:element="宝"><g id="kvg:05b9d-g1" kvg:element="宀" kvg:position="top" kvg:radical="general"><path id="kvg:05b9d-s1" kvg:type="㇑a" d="M52.36 12.61c1.08 1.08 1.72 2.64 1.72 4.29.0 3.66-.08 5.65-.08 8.98"/><g id="kvg:05b9d-g2" kvg:element="冖"><path id="kvg:05b9d-s2" kvg:type="㇔" d="M22 26.12c0 4.14-4.3 15.51-6.25 18.27"/><path id="kvg:05b9d-s3" kvg:type="㇖b" d="M22.35 30.52c14.9-1.52 43.02-5.4 63.71-6.1 11.31-.38 1.9 7.47-.92 9.45"/></g></g><g id="kvg:05b9d-g3" kvg:element="玉" kvg:position="bottom"><g id="kvg:05b9d-g4" kvg:element="王" kvg:original="玉" kvg:partial="true"><path id="kvg:05b9d-s4" kvg:type="㇐" d="M32.85 46.92c2.9.45 5.64.24 7.79-.07 5.54-.8 15.69-2.51 27.61-3.61 2.32-.21 4.63-.58 6.91.11"/><path id="kvg:05b9d-s5" kvg:type="㇑a" d="M53.21 48.01c1.2 1.2 1.51 2.61 1.51 5.1.0 7.4-.09 25.09-.09 36.51"/><path id="kvg:05b9d-s6" kvg:type="㇐" d="M31.88 67.31c1.81.93 5.54.44 7.47.16 5.91-.84 16.53-2.48 28.9-3.36 2.39-.17 4.99-.53 7.36.04"/><path id="kvg:05b9d-s7" kvg:type="㇐" d="M21.25 92.34c2.59.76 5.94.62 8.59.39 12.85-1.15 36.83-3.09 48.54-3.74 3.36-.19 7.41-.28 10.63.82"/></g><g id="kvg:05b9d-g5" kvg:element="丶"><path id="kvg:05b9d-s8" kvg:type="㇔" d="M71.54 72.05c3.85 2.06 7.15 6.45 7.97 9.03"/></g></g></g></g></svg>