<!DOCTYPE svg PUBLIC "-//W3C//DTD SVG 1.0//EN" "http://www.w3.org/TR/2001/REC-SVG-20010904/DTD/svg10.dtd" [
<!ATTLIST g
xmlns:kvg CDATA #FIXED "http://kanjivg.tagaini.net"
kvg:element CDATA #IMPLIED
kvg:variant CDATA #IMPLIED
kvg:partial CDATA #IMPLIED
kvg:original CDATA #IMPLIED
kvg:part CDATA #IMPLIED
kvg:number CDATA #IMPLIED
kvg:tradForm CDATA #IMPLIED
kvg:radicalForm CDATA #IMPLIED
kvg:position CDATA #IMPLIED
kvg:radical CDATA #IMPLIED
kvg:phon CDATA #IMPLIED >
<!ATTLIST path
xmlns:kvg CDATA #FIXED "http://kanjivg.tagaini.net"
kvg:type CDATA #IMPLIED >
]><svg xmlns="http://www.w3.org/2000/svg" width="109" height="109" viewBox="0 0 109 109"><g id="kvg:StrokePaths_05ba4" style="fill:none;stroke:#000000;stroke-width:3;stroke-linecap:round;stroke-linejoin:round;"><g id="kvg:05ba4" kvg:element="室"><g id="kvg:05ba4-g1" kvg:element="宀" kvg:position="top" kvg:radical="general"><path id="kvg:05ba4-s1" kvg:type="㇑a" d="M52.4 9.25c1.24 1.24 1.92 2.88 1.92 4.52.0 3.9-.1 6.54-.1 10.08"/><g id="kvg:05ba4-g2" kvg:element="冖"><path id="kvg:05ba4-s2" kvg:type="㇔" d="M19.91 24.63c0 4.27-3.03 16.02-4.41 18.87"/><path id="kvg:05ba4-s3" kvg:type="㇖b" d="M21.53 27.37C39.88 26 74.38 22.62 87.7 22.84c10.8.17 5.3 4.66-.45 8.78"/></g></g><g id="kvg:05ba4-g3" kvg:element="至" kvg:position="bottom" kvg:phon="至"><path id="kvg:05ba4-s4" kvg:type="㇐" d="M33.3 39.35c1.41.36 3.27.54 5.4.36C47 39 60 37.62 68.44 36.82c2.33-.22 3.76.17 4.93.35"/><path id="kvg:05ba4-s5" kvg:type="㇜" d="M49.81 41.34c.19 1.41-.31 2.78-1.15 4.01-2.47 3.58-5.42 7.38-9.88 11.94-2.9 2.96-2.35 3.53.8 2.99 7.36-1.25 20.85-5.07 32.44-7.12"/><path id="kvg:05ba4-s6" kvg:type="㇔" d="M66.12 46.88c4.47 2.36 9.62 7.88 11.57 12.2"/><g id="kvg:05ba4-g4" kvg:element="土"><path id="kvg:05ba4-s7" kvg:type="㇐" d="M31.25 78.06c1.75.25 4.47.39 6.2.25 10.18-.81 24.05-2.69 32.43-3.14 2.91-.16 4.66.12 6.11.25"/><path id="kvg:05ba4-s8" kvg:type="㇑a" d="M52.03 63.25c1.47 1.25 2.3 2.94 2.25 5-.2 8.64-.05 25.35-.05 26.25"/><path id="kvg:05ba4-s9" kvg:type="㇐" d="M19.64 96.76c2.05.5 4.57.65 6.6.5 20.14-1.51 41.23-3.3 56.97-3.3 3.41.0 5.46.24 7.16.49"/></g></g></g></g><g id="kvg:StrokeNumbers_05ba4" style="font-size:8;fill:#808080"><text transform="matrix(1 0 0 1 44.50 9.50)">1</text><text transform="matrix(1 0 0 1 12.75 25.63)">2</text><text transform="matrix(1 0 0 1 26.25 22.63)">3</text><text transform="matrix(1 0 0 1 26.25 40.63)">4</text><text transform="matrix(1 0 0 1 36.75 51.13)">5</text><text transform="matrix(1 0 0 1 72.75 48.13)">6</text><text transform="matrix(1 0 0 1 24.75 79.63)">7</text><text transform="matrix(1 0 0 1 60.75 66.13)">8</text><text transform="matrix(1 0 0 1 11.25 99.13)">9</text></g></svg>