<!DOCTYPE svg PUBLIC "-//W3C//DTD SVG 1.0//EN" "http://www.w3.org/TR/2001/REC-SVG-20010904/DTD/svg10.dtd" [
<!ATTLIST g
xmlns:kvg CDATA #FIXED "http://kanjivg.tagaini.net"
kvg:element CDATA #IMPLIED
kvg:variant CDATA #IMPLIED
kvg:partial CDATA #IMPLIED
kvg:original CDATA #IMPLIED
kvg:part CDATA #IMPLIED
kvg:number CDATA #IMPLIED
kvg:tradForm CDATA #IMPLIED
kvg:radicalForm CDATA #IMPLIED
kvg:position CDATA #IMPLIED
kvg:radical CDATA #IMPLIED
kvg:phon CDATA #IMPLIED >
<!ATTLIST path
xmlns:kvg CDATA #FIXED "http://kanjivg.tagaini.net"
kvg:type CDATA #IMPLIED >
]><svg xmlns="http://www.w3.org/2000/svg" width="109" height="109" viewBox="0 0 109 109"><g id="kvg:StrokePaths_05bde" style="fill:none;stroke:#000000;stroke-width:3;stroke-linecap:round;stroke-linejoin:round;"><g id="kvg:05bde" kvg:element="寞"><g id="kvg:05bde-g1" kvg:element="宀" kvg:position="top" kvg:radical="general"><path id="kvg:05bde-s1" kvg:type="㇑a" d="M51.72 8.81c1 .33 2.44 1.93 2.42 2.88-.07 2.97-.07 7.07-.08 9.78"/><g id="kvg:05bde-g2" kvg:element="冖"><path id="kvg:05bde-s2" kvg:type="㇔" d="M22.57 20.58c0 3.48-2.63 13.04-3.82 15.36"/><path id="kvg:05bde-s3" kvg:type="㇖b" d="M22.7 23.88c8.69-.9 56.54-3.45 63.59-3.8 11.01-.54 1.67 6.78-1.07 8.71"/></g></g><g id="kvg:05bde-g3" kvg:element="莫" kvg:position="bottom"><g id="kvg:05bde-g4" kvg:element="艹" kvg:variant="true" kvg:original="艸" kvg:position="top"><path id="kvg:05bde-s4" kvg:type="㇐" d="M27.74 38.5c1.19.42 2.58.51 3.77.42 10.95-.78 35.25-3.7 47.88-3.76 1.99-.01 3.18.2 4.17.42"/><path id="kvg:05bde-s5" kvg:type="㇑a" d="M40.16 28.91c1.45 1.04 1.91 1.35 2.06 1.99 1.44 5.97 1.86 11.03 2.27 13.2"/><path id="kvg:05bde-s6" kvg:type="㇑a" d="M65.38 27c.3.87.62 1.49.36 2.58-1.25 5.15-1.78 7.92-3.2 13.07"/></g><g id="kvg:05bde-g5" kvg:position="bottom"><g id="kvg:05bde-g6" kvg:element="日"><path id="kvg:05bde-s7" kvg:type="㇑" d="M32.42 49.13c.45.45 1.26 1.95 1.34 2.54.61 4.53 2.31 14.78 2.31 15.07.0.3.15.3.3.9"/><path id="kvg:05bde-s8" kvg:type="㇕a" d="M34.51 50.48c6.83-.84 37.66-3.51 39.98-3.6 1.93-.08 3.1 2.08 3.02 2.54-.63 3.61-2.59 12.51-3.64 16.22"/><path id="kvg:05bde-s9" kvg:type="㇐a" d="M34.96 57.74c3.44.0 37.02-2.46 40.91-2.46"/><path id="kvg:05bde-s10" kvg:type="㇐a" d="M36.54 66.39c7.01-.32 28.41-1.61 37.14-1.88"/></g><g id="kvg:05bde-g7" kvg:element="大"><path id="kvg:05bde-s11" kvg:type="㇐" d="M21.33 78.34c1.5.61 3.17.76 4.15.67 19.77-1.76 44.27-3.01 60.09-3.49 1.24-.04 3.68-.02 5.33.38"/><path id="kvg:05bde-s12" kvg:type="㇒" d="M53.75 67.54c.5 1.21.54 1.52.33 2.49C50.25 87 39.5 96.25 21.85 101.75"/><path id="kvg:05bde-s13" kvg:type="㇏" d="M52.62 77.01c7.64 5.38 24.2 18.06 31.83 21.66 2.6 1.23 3.5 1.41 4.68 1.52"/></g></g></g></g></g><g id="kvg:StrokeNumbers_05bde" style="font-size:8;fill:#808080"><text transform="matrix(1 0 0 1 45.85 9.85)">1</text><text transform="matrix(1 0 0 1 15.66 25.85)">2</text><text transform="matrix(1 0 0 1 25.50 20.85)">3</text><text transform="matrix(1 0 0 1 25.75 35.50)">4</text><text transform="matrix(1 0 0 1 33.50 31.50)">5</text><text transform="matrix(1 0 0 1 56.75 29.50)">6</text><text transform="matrix(1 0 0 1 25.75 56.78)">7</text><text transform="matrix(1 0 0 1 37.50 46.70)">8</text><text transform="matrix(1 0 0 1 39.50 55.62)">9</text><text transform="matrix(1 0 0 1 39.50 64.50)">10</text><text transform="matrix(1 0 0 1 12.75 78.00)">11</text><text transform="matrix(1 0 0 1 43.50 73.50)">12</text><text transform="matrix(1 0 0 1 65.50 84.32)">13</text></g></svg>