<svg xmlns="http://www.w3.org/2000/svg" width="109" height="109" viewBox="0 0 109 109"><g id="kvg:StrokePaths_05bdd" style="fill:none;stroke:#000000;stroke-width:3;stroke-linecap:round;stroke-linejoin:round;"><g id="kvg:05bdd" kvg:element="寝"><g id="kvg:05bdd-g1" kvg:element="宀" kvg:position="top" kvg:radical="general"><path id="kvg:05bdd-s1" kvg:type="㇑a" d="M50.68 11.25c1.11.36 2.7 2.14 2.67 3.19-.08 3.29-.08 4.9-.09 7.9"/><g id="kvg:05bdd-g2" kvg:element="冖"><path id="kvg:05bdd-s2" kvg:type="㇔" d="M25.17 24.14c0 3.36-2.71 12.62-3.95 14.86"/><path id="kvg:05bdd-s3" kvg:type="㇖b" d="M26.48 25.7c8.04-.83 49.41-5.33 55.92-5.64 10.19-.5 2.16 6.05-.38 7.84"/></g></g><g id="kvg:05bdd-g3" kvg:position="bottom" kvg:phon="しょうへん+けいがしら+冖+又"><g id="kvg:05bdd-g4" kvg:element="⺦" kvg:variant="true" kvg:original="爿" kvg:position="left"><path id="kvg:05bdd-s4" kvg:type="㇑" d="M33.62 34.5c.81.81 1.21 2.25 1.21 4 0 .66.04 37.12.04 53.12.0 4.31.0 7.13-.01 7.38"/><path id="kvg:05bdd-s5" kvg:type="㇔" d="M19 47.75c3 1.81 7.75 7.44 8.5 10.25"/><path id="kvg:05bdd-s6" kvg:type="㇀" d="M16.25 80.05c1.38.58 2.78.19 4.02-.76 3.6-2.8 7.21-6.22 10.48-9.78"/></g><g id="kvg:05bdd-g5" kvg:position="right"><g id="kvg:05bdd-g6" kvg:element="⺕" kvg:variant="true" kvg:original="彑" kvg:position="top"><path id="kvg:05bdd-s7" kvg:type="㇕" d="M50.33 33.82c1.61.76 3.58.57 5.29.41 4.97-.48 19.25-2.2 20.21-2.38 1.13-.2 2.41.59 2.27 2.02-.42 4.46-.93 9.84-1.35 13.93-.22 2.14-.42 3.93-.56 5.04"/><path id="kvg:05bdd-s8" kvg:type="㇐c" d="M51.59 42.69c1.13.62 3.42.66 4.65.55 7.37-.66 12.12-1.11 20.8-2.04"/><path id="kvg:05bdd-s9" kvg:type="㇐c" d="M51.27 52.46c1.48.66 3.36.67 4.86.53 7.12-.67 10.75-1.27 19.35-2.2"/></g><g id="kvg:05bdd-g7" kvg:position="bottom"><g id="kvg:05bdd-g8" kvg:element="冖"><path id="kvg:05bdd-s10" kvg:type="㇔" d="M45.62 60.25c-.1 3.36-1.58 10.33-2.43 12.33"/><path id="kvg:05bdd-s11" kvg:type="㇖b" d="M46.4 62.63c13.1-2.01 25.35-3.63 37.41-4.4 10.73-.68 1.55 5.99.55 6.94"/></g><g id="kvg:05bdd-g9" kvg:element="又"><path id="kvg:05bdd-s12" kvg:type="㇇" d="M51.73 72.19c1.13.19 1.28.49 3.54.19 1.99-.26 13.64-2.61 17.49-3.31 2.46-.45 4.05.73 2.67 3.22C68.69 84.43 57.22 93.35 44.82 98"/><path id="kvg:05bdd-s13" kvg:type="㇏" d="M50.44 76.6c3.34.46 18.87 11.27 31.44 17.52 3 1.49 5.25 2.63 8.52 3.43"/></g></g></g></g></g></g></svg>