<svg xmlns="http://www.w3.org/2000/svg" width="109" height="109" viewBox="0 0 109 109"><g id="kvg:StrokePaths_05bdf" style="fill:none;stroke:#000000;stroke-width:3;stroke-linecap:round;stroke-linejoin:round;"><g id="kvg:05bdf" kvg:element="察"><g id="kvg:05bdf-g1" kvg:element="宀" kvg:position="top" kvg:radical="general"><path id="kvg:05bdf-s1" kvg:type="㇑a" d="M53.51 8.54c1.1 1.1 1.57 2.59 1.57 3.93.0 3.78-.1 4.15-.1 7.65"/><g id="kvg:05bdf-g2" kvg:element="冖"><path id="kvg:05bdf-s2" kvg:type="㇔" d="M20.9 21.83c0 3.77-3.71 14.12-5.4 16.64"/><path id="kvg:05bdf-s3" kvg:type="㇖b" d="M21.7 24.43c20.3-1.93 43.55-4.55 63.93-4.78 12.12-.14 2.62 6.48-.44 8.74"/></g></g><g id="kvg:05bdf-g3" kvg:element="祭" kvg:position="bottom" kvg:phon="祭"><g id="kvg:05bdf-g4" kvg:position="top"><g id="kvg:05bdf-g5" kvg:element="月" kvg:variant="true"><path id="kvg:05bdf-s4" kvg:type="㇒" d="M33.25 32.75c.38 1.25.08 2.54-.75 3.64-4.12 5.48-12 13.12-14.5 15.21"/><path id="kvg:05bdf-s5" kvg:type="㇇a" d="M35 34.69c2.88-.57 5.75-1.32 9-2.56 3.07-1.17 4.44.8 3.5 3.03C43.25 45.25 31.75 59.75 14 69.45"/><path id="kvg:05bdf-s6" kvg:type="㇔/㇐" d="M31.5 43c.82.32 3.11 2.26 4.75 4.19"/><path id="kvg:05bdf-s7" kvg:type="㇔/㇐" d="M24.12 49.88c1.14.85 3.42 4.48 4.38 6.41"/></g><path id="kvg:05bdf-s8" kvg:type="㇇" d="M57.5 31.73c1.12.4 2.9.26 4.42.13 2.83-.24 9.32-1.81 12.83-2.86 2.5-.75 3.93.76 1.76 3.39C72.5 37.25 68 42 63.1 46.67"/><path id="kvg:05bdf-s9" kvg:type="㇏" d="M54.5 37.12c3.75-.26 18.75 12.75 28.75 20.07 2.22 1.63 6.5 4.01 9.75 4.81"/></g><g id="kvg:05bdf-g6" kvg:element="示" kvg:position="bottom"><path id="kvg:05bdf-s10" kvg:type="㇐" d="M38.22 60.23c2.15.4 3.78.18 5.53-.01 5.27-.59 14.37-1.66 19.62-2.01 1.73-.12 3.47-.23 5.17.16"/><path id="kvg:05bdf-s11" kvg:type="㇐" d="M26.46 73.07c2.62.88 5.73.34 8.41.08 8.75-.84 26-3.02 36.5-3.44 2.62-.1 5.26-.21 7.84.31"/><path id="kvg:05bdf-s12" kvg:type="㇑" d="M53.08 74.02c.76.76 1.33 2.11 1.33 3.91.0 3.32.03 14 .03 17.97.0 7.23-4.44 1.23-6.22-.55"/><path id="kvg:05bdf-s13" kvg:type="㇒" d="M35 81.5c.05.4.1 1.02-.09 1.59-1.14 3.35-7.9 8.42-16.83 12.93"/><path id="kvg:05bdf-s14" kvg:type="㇔" d="M69.38 81.5c4.96 2.46 13.06 9.82 14.3 13.64"/></g></g></g></g></svg>