<svg xmlns="http://www.w3.org/2000/svg" width="109" height="109" viewBox="0 0 109 109"><g id="kvg:StrokePaths_05bd0" style="fill:none;stroke:#000000;stroke-width:3;stroke-linecap:round;stroke-linejoin:round;"><g id="kvg:05bd0" kvg:element="寐"><g id="kvg:05bd0-g1" kvg:element="宀" kvg:position="top" kvg:radical="general"><path id="kvg:05bd0-s1" kvg:type="㇑a" d="M50.83 8.84c1.27.41 3.08 2.44 3.05 3.63-.09 3.76-.09 7.43-.1 10.85"/><g id="kvg:05bd0-g2" kvg:element="冖"><path id="kvg:05bd0-s2" kvg:type="㇔" d="M17.33 23.41c0 3.96-2.81 14.86-4.08 17.5"/><path id="kvg:05bd0-s3" kvg:type="㇖b" d="M17.53 26.03c9.16-.95 63.05-4.31 70.48-4.67 11.62-.56 1.24 7.74-1.66 9.77"/></g></g><g id="kvg:05bd0-g3" kvg:position="bottom"><g id="kvg:05bd0-g4" kvg:element="爿" kvg:position="left"><path id="kvg:05bd0-s4" kvg:type="㇑" d="M37.25 32.72c.95 1.08 1.55 2.92 1.55 4.18.0 12.14-.03 59.59-.03 63.72"/><path id="kvg:05bd0-s5" kvg:type="㇄" d="M21.35 40.88c1.08.5 1.48 1.08 1.58 2.73.14 2.47-1.58 8.57-1.91 11.16C20.91 55.6 21.23 57 22.8 56.7c4.95-.95 12.02-2.12 15.6-2.63"/><path id="kvg:05bd0-s6" kvg:type="㇐" d="M14.32 70.29c1.18.22 1.42.86 2.8.71 5.9-.64 17.36-2.92 21.47-3.28"/><path id="kvg:05bd0-s7" kvg:type="㇒" d="M25.9 71.89c.03.63.24 1.61.24 2.51.0 7.5-4.9 19.34-11.7 24.05"/></g><g id="kvg:05bd0-g5" kvg:element="未" kvg:position="right"><path id="kvg:05bd0-s8" kvg:type="㇐" d="M49.95 43.82c.96.21 2.72.3 3.68.21 8.36-.78 20.11-2.28 29.15-3.48 1.58-.21 2.56.1 3.36.21"/><g id="kvg:05bd0-g6" kvg:element="木"><path id="kvg:05bd0-s9" kvg:type="㇐" d="M46.13 58.04c.62.19 2.27.71 3.9.57 6.52-.57 27.29-3 38.59-3.95 1.64-.14 3.09.19 4.12.38"/><path id="kvg:05bd0-s10" kvg:type="㇑" d="M66.36 27.75c1.03.38 1.64 1.71 1.85 2.48.21.76.0 65.51-.21 70.27"/><path id="kvg:05bd0-s11" kvg:type="㇒" d="M68.1 56.15C64.2 66.6 54.11 82.44 46 88.36"/><path id="kvg:05bd0-s12" kvg:type="㇏" d="M67.5 56.58c3.84 5.98 20.07 23.05 25.79 28.04 1.43 1.25 2.57 1.88 3.96 2.26"/></g></g></g></g></g></svg>