<svg xmlns="http://www.w3.org/2000/svg" width="109" height="109" viewBox="0 0 109 109"><g id="kvg:StrokePaths_05be4"><g id="kvg:05be4" kvg:element="寤"><g id="kvg:05be4-g1" kvg:element="宀" kvg:position="top" kvg:radical="general"><path id="kvg:05be4-s1" kvg:type="㇑a" d="M51.57 9.34c1.07.35 2.6 2.06 2.57 3.07-.08 3.17-.08 7.53-.08 10.42"/><g id="kvg:05be4-g2" kvg:element="冖"><path id="kvg:05be4-s2" kvg:type="㇔" d="M19.83 23.16c0 3.23-2.46 12.1-3.58 14.25"/><path id="kvg:05be4-s3" kvg:type="㇖b" d="M19.53 26.03c9.16-.95 61.05-4.81 68.48-5.17 11.62-.56 1.74 6.24-1.16 8.27"/></g></g><g id="kvg:05be4-g3" kvg:position="bottom"><g id="kvg:05be4-g4" kvg:element="爿" kvg:position="left"><path id="kvg:05be4-s4" kvg:type="㇑" d="M37.48 32.22c.97 1.03 1.6 2.79 1.6 4 0 11.62-.03 58.45-.03 62.4"/><path id="kvg:05be4-s5" kvg:type="㇄" d="M22.7 38.63c1.1.48 1.52 1.04 1.62 2.62.14 2.37-2.6 11.02-2.94 13.51-.11.79.31 2.47 1.83 1.85 4.54-1.85 11.77-3.07 15.45-3.56"/><path id="kvg:05be4-s6" kvg:type="㇐" d="M15.3 67.75c1.23.17 1.48.66 2.92.55 6.15-.49 16.34-2.26 20.64-2.53"/><path id="kvg:05be4-s7" kvg:type="㇒" d="M25.16 69.02c.03.63.82 1.63.72 2.54C25 79.5 24 88 14.23 95.84"/></g><g id="kvg:05be4-g5" kvg:element="吾" kvg:position="right"><g id="kvg:05be4-g6" kvg:element="五" kvg:position="top"><g id="kvg:05be4-g7" kvg:element="二" kvg:part="1"><path id="kvg:05be4-s8" kvg:type="㇐" d="M49.55 35.17c.84.1 2.39.09 3.22.06C58.5 35 69.5 33.5 77.53 33.13c1.4-.06 2.25.01 2.95.06"/></g><path id="kvg:05be4-s9" kvg:type="㇑a" d="M64.56 36.08c.23.17.61.76.53 1.16-.83 3.88-3.59 17.26-6.06 26.14"/><path id="kvg:05be4-s10" kvg:type="㇕c" d="M50.54 47.95c.67.3 2.42.39 2.97.35 7.25-.55 19.23-2.31 24.71-2.87 1.26-.13 2.7.94 2.7 2.24.0 2.23-2.33 8.94-3.34 13.82"/><g id="kvg:05be4-g8" kvg:element="二" kvg:part="2"><path id="kvg:05be4-s11" kvg:type="㇐" d="M45.33 64.15c.91.18 3.16.66 4.06.56 12.48-1.43 29.1-3.21 41.82-3.34 1.51-.02 3-.01 3.76.07"/></g></g><g id="kvg:05be4-g9" kvg:element="口" kvg:position="bottom"><path id="kvg:05be4-s12" kvg:type="㇑" d="M52.52 73.96c.28.44.57.8.69 1.34.97 4.31 2.13 14.2 2.8 21.95"/><path id="kvg:05be4-s13" kvg:type="㇕b" d="M53.25 75.29c10.75-1.04 22.57-2.6 28.01-3.15 1.99-.2 3.18 1.19 2.9 2.37-1.18 4.89-2.56 12.3-4.31 19.06"/><path id="kvg:05be4-s14" kvg:type="㇐b" d="M57.36 94.84c6.39-.62 14.71-1.21 23.98-1.67"/></g></g></g></g></g></svg>