<svg xmlns="http://www.w3.org/2000/svg" width="109" height="109" viewBox="0 0 109 109"><g id="kvg:StrokePaths_05bee"><g id="kvg:05bee" kvg:element="寮"><g id="kvg:05bee-g1" kvg:element="宀" kvg:position="top" kvg:radical="general"><path id="kvg:05bee-s1" kvg:type="㇑a" d="M52.29 9.02c1.22 1.22 1.67 2.35 1.67 4 0 2.35-.08 4.23-.08 6.23"/><g id="kvg:05bee-g2" kvg:element="冖"><path id="kvg:05bee-s2" kvg:type="㇔" d="M21.44 20.21c0 3.62-3.4 13.6-4.94 16.01"/><path id="kvg:05bee-s3" kvg:type="㇖b" d="M22.01 23.24c15.62-1.49 43.12-4.49 63.15-5.05 11.12-.31 2.36 6.4-.41 8.36"/></g></g><g id="kvg:05bee-g3" kvg:element="尞" kvg:position="bottom" kvg:phon="尞"><g id="kvg:05bee-g4" kvg:element="大"><path id="kvg:05bee-s4" kvg:type="㇐" d="M27.98 33.89c2.77.49 5.53.19 7.67-.05 10.8-1.24 24.29-3.3 34.21-4.06 2.7-.21 5.46-.42 8.14.1"/><path id="kvg:05bee-s5" kvg:type="㇒" d="M51.64 23.75c.24 1.25.02 2.4-.55 3.62-6.83 14.5-16.83 30.13-36.33 40.56"/><path id="kvg:05bee-s6" kvg:type="㇏" d="M55.68 32.42c6.88 6.04 20.42 19.11 29.5 25.92 2.7 2.02 5.56 3.66 8.57 5.16"/></g><path id="kvg:05bee-s7" kvg:type="㇔" d="M25.27 43.46c2.93 1.23 7.56 5.08 8.29 7"/><path id="kvg:05bee-s8" kvg:type="㇒" d="M80.53 37.3c.02.2.05.52-.04.8-.54 1.7-3.66 5.42-7.93 7.69"/><g id="kvg:05bee-g5" kvg:element="日"><path id="kvg:05bee-s9" kvg:type="㇑" d="M35.99 53.12c.88.88 1.33 2.24 1.52 3.22.86 4.41 1.8 8.97 2.49 13.9.21 1.52.4 3.01.55 4.4"/><path id="kvg:05bee-s10" kvg:type="㇕a" d="M37.84 54.08c8.65-1.26 19.4-2.55 27.91-3.4 3.13-.31 5.1.4 4.48 3.94-.61 3.48-1.94 9.06-2.93 13.94-.3 1.46-.56 2.87-.77 4.13"/><path id="kvg:05bee-s11" kvg:type="㇐a" d="M40.12 63.32c7.25-.94 19.63-2.32 27.62-2.72"/><path id="kvg:05bee-s12" kvg:type="㇐a" d="M41.47 73.17c5.91-.4 15.9-1.38 24.06-2.03"/></g><g id="kvg:05bee-g6" kvg:element="小"><path id="kvg:05bee-s13" kvg:type="㇚" d="M53.36 74.93c.73.73 1.02 2.07 1.02 3.81.0 5.01.04 12.49.04 15.92.0 7.97-5.85 1.04-7.07.17"/><path id="kvg:05bee-s14" kvg:type="㇒" d="M37.2 80.67c.12.88-.08 1.68-.59 2.4C33.38 86.88 29.5 90.75 22 95"/><path id="kvg:05bee-s15" kvg:type="㇔" d="M68.5 80c5.29 2.3 13.68 9.45 15 13.02"/></g></g></g></g></svg>