<!DOCTYPE svg PUBLIC "-//W3C//DTD SVG 1.0//EN" "http://www.w3.org/TR/2001/REC-SVG-20010904/DTD/svg10.dtd" [
<!ATTLIST g
xmlns:kvg CDATA #FIXED "http://kanjivg.tagaini.net"
kvg:element CDATA #IMPLIED
kvg:variant CDATA #IMPLIED
kvg:partial CDATA #IMPLIED
kvg:original CDATA #IMPLIED
kvg:part CDATA #IMPLIED
kvg:number CDATA #IMPLIED
kvg:tradForm CDATA #IMPLIED
kvg:radicalForm CDATA #IMPLIED
kvg:position CDATA #IMPLIED
kvg:radical CDATA #IMPLIED
kvg:phon CDATA #IMPLIED >
<!ATTLIST path
xmlns:kvg CDATA #FIXED "http://kanjivg.tagaini.net"
kvg:type CDATA #IMPLIED >
]><svg xmlns="http://www.w3.org/2000/svg" width="109" height="109" viewBox="0 0 109 109"><g id="kvg:StrokePaths_05be5" style="fill:none;stroke:#000000;stroke-width:3;stroke-linecap:round;stroke-linejoin:round;"><g id="kvg:05be5" kvg:element="寥"><g id="kvg:05be5-g1" kvg:element="宀" kvg:position="top" kvg:radical="general"><path id="kvg:05be5-s1" kvg:type="㇑a" d="M51.25 8.06c.98.32 2.39 1.9 2.37 2.82-.07 2.91-.07 6.93-.08 9.58"/><g id="kvg:05be5-g2" kvg:element="冖"><path id="kvg:05be5-s2" kvg:type="㇔" d="M20.07 20.58c0 3.48-2.8 13.04-4.07 15.36"/><path id="kvg:05be5-s3" kvg:type="㇖b" d="M20.2 23.38c9.4-.9 59.54-4.45 67.17-4.8 11.92-.54 2.27 5.78-.7 7.71"/></g></g><g id="kvg:05be5-g3" kvg:element="翏" kvg:position="bottom"><g id="kvg:05be5-g4" kvg:element="羽" kvg:variant="true"><g id="kvg:05be5-g5" kvg:position="left"><path id="kvg:05be5-s4" kvg:type="㇆" d="M25.67 32.65c1.06.44 1.97.39 3.54.3 4.52-.27 14.74-2.22 15.71-2.27 2.18-.1 2.58.57 2.72 2.49.03.4-.41 17.2-.41 21.43"/><path id="kvg:05be5-s5" kvg:type="㇒" d="M38.41 34.19c.04.28.09.72-.08 1.13-1 2.37-6.76 7.59-14.63 10.77"/><path id="kvg:05be5-s6" kvg:type="㇒" d="M42.7 41.95c.05.39.11 1-.11 1.55-1.32 3.27-8.89 10.45-19.25 14.84"/></g><g id="kvg:05be5-g6" kvg:position="right"><path id="kvg:05be5-s7" kvg:type="㇆" d="M55.92 30.87c1.25.49 2.31.36 4.16.33 5.09-.1 15.01-1.68 16.16-1.73 2.56-.11 3.2 1.04 3.2 2.59.0.45-.48 22.44-.48 27.09"/><path id="kvg:05be5-s8" kvg:type="㇒" d="M69.1 33.59c.03.27.06.69-.06 1.08-.75 2.27-5.04 7.24-10.91 10.29"/><path id="kvg:05be5-s9" kvg:type="㇒" d="M75.64 41.21c.04.28.08.71-.08 1.11-.94 2.35-6.32 7.49-13.69 10.65"/></g></g><path id="kvg:05be5-s10" kvg:type="㇒" d="M54.59 51.46c.1.57.43 1.55-.19 2.28-4.43 5.18-14.77 13.88-34.52 21.83"/><path id="kvg:05be5-s11" kvg:type="㇏" d="M55.1 53.85c4.97 4.01 26.39 17.09 31.88 20.02 1.86 1 4.25 1.42 6.11 1.71"/><g id="kvg:05be5-g7" kvg:element="彡"><path id="kvg:05be5-s12" kvg:type="㇒" d="M56.92 64.81c.08.38.28 1.03-.15 1.53-2.8 3.26-12.21 9.61-26.06 14.07"/><path id="kvg:05be5-s13" kvg:type="㇒" d="M66.64 71.29c.1.47.35 1.28-.19 1.88C62.81 77.28 50.9 85.5 33.03 91.18"/><path id="kvg:05be5-s14" kvg:type="㇒" d="M75.89 80.74c.13.52.27 1.34-.24 2.08-3.02 4.39-20.32 14.03-44 19.93"/></g></g></g></g><g id="kvg:StrokeNumbers_05be5" style="font-size:8;fill:#808080"><text transform="matrix(1 0 0 1 45.85 9.85)">1</text><text transform="matrix(1 0 0 1 12.50 23.50)">2</text><text transform="matrix(1 0 0 1 24.50 19.50)">3</text><text transform="matrix(1 0 0 1 24.50 30.50)">4</text><text transform="matrix(1 0 0 1 25.50 41.50)">5</text><text transform="matrix(1 0 0 1 31.50 48.50)">6</text><text transform="matrix(1 0 0 1 56.50 28.50)">7</text><text transform="matrix(1 0 0 1 57.50 39.10)">8</text><text transform="matrix(1 0 0 1 68.50 43.50)">9</text><text transform="matrix(1 0 0 1 37.50 60.70)">10</text><text transform="matrix(1 0 0 1 65.50 58.50)">11</text><text transform="matrix(1 0 0 1 46.50 67.50)">12</text><text transform="matrix(1 0 0 1 56.50 74.50)">13</text><text transform="matrix(1 0 0 1 64.50 82.50)">14</text></g></svg>