<svg xmlns="http://www.w3.org/2000/svg" width="109" height="109" viewBox="0 0 109 109"><g id="kvg:StrokePaths_05c0b"><g id="kvg:05c0b" kvg:element="尋"><g id="kvg:05c0b-g1" kvg:position="top"><g id="kvg:05c0b-g2" kvg:element="⺕" kvg:variant="true" kvg:original="彑" kvg:position="top" kvg:radical="nelson"><path id="kvg:05c0b-s1" kvg:type="㇕" d="M32.13 13.59c2.74.66 5.54.65 8.48.42 11.43-.9 25.39-2.33 32.9-3.01 2.75-.25 4.18 1.56 3.76 3.69-.95 4.77-1.31 8-2.33 14.84-.17 1.16-.36 2.41-.58 3.8"/><path id="kvg:05c0b-s2" kvg:type="㇐c" d="M31.48 24.52c2.02.48 4.22.6 6.53.39 12.72-1.17 30.87-2.91 36.78-3.28"/><path id="kvg:05c0b-s3" kvg:type="㇐c" d="M30.41 35.75c2.18.27 4.15.48 6.34.26 12.62-1.26 26.75-2.89 36.2-3.56"/></g><g id="kvg:05c0b-g3" kvg:position="bottom"><g id="kvg:05c0b-g4" kvg:element="工" kvg:position="left"><path id="kvg:05c0b-s4" kvg:type="㇐" d="M23.35 46.81c1.27.37 2.76.14 4.03.01 4.09-.44 11.26-1.69 15.27-2.09 1.28-.13 2.72-.09 4 .13"/><path id="kvg:05c0b-s5" kvg:type="㇑a" d="M34.01 47.5c.81.81 1.03 1.5 1.03 2.73.0 1.52.03 5.77.03 7.53"/><path id="kvg:05c0b-s6" kvg:type="㇀/㇐" d="M20.6 61.49c1.02 1.01 2.03.98 4.09.36 6.93-2.1 13.81-4.23 21.59-6.53"/></g><g id="kvg:05c0b-g5" kvg:element="口" kvg:position="right"><path id="kvg:05c0b-s7" kvg:type="㇑" d="M55.25 43.34c.84.37 1.37 1 1.57 1.89.79 2.04 1.36 5.23 1.93 8.27.25 1.31.49 2.59.75 3.75"/><path id="kvg:05c0b-s8" kvg:type="㇕b" d="M57.63 44.5c7.86-1.17 17.31-2.2 22.62-2.66 2.75-.24 3.88 1.03 2.98 3.62-.97 2.79-1.48 4.54-2.32 6.97"/><path id="kvg:05c0b-s9" kvg:type="㇐b" d="M60.45 55.09c4.85-.31 11.59-.8 18.33-1.28 1.32-.09 2.85-.03 3.94-.03"/></g></g></g><g id="kvg:05c0b-g6" kvg:element="寸" kvg:position="bottom" kvg:radical="tradit"><path id="kvg:05c0b-s10" kvg:type="㇐" d="M14.13 71.73c3.37 1.02 7.84.82 11.26.39 19.81-2.53 43.57-4.46 60.63-5.59 3.34-.22 7.13.01 10.36.99"/><path id="kvg:05c0b-s11" kvg:type="㇚" d="M68.64 59.32c.9.9 1.11 2.43 1.11 4.39.0 5.67.03 24.67.03 28.57.0 10.66-5.16 2.08-7.1.72"/><path id="kvg:05c0b-s12" kvg:type="㇔" d="M39.75 77.62c2.41 1.71 6.22 7.04 6.82 9.7"/></g></g></g></svg>