<svg xmlns="http://www.w3.org/2000/svg" width="109" height="109" viewBox="0 0 109 109"><g id="kvg:StrokePaths_05c0d" style="fill:none;stroke:#000000;stroke-width:3;stroke-linecap:round;stroke-linejoin:round;"><g id="kvg:05c0d" kvg:element="對"><g id="kvg:05c0d-g1" kvg:position="left"><g id="kvg:05c0d-g2" kvg:element="业"><path id="kvg:05c0d-s1" kvg:type="㇑" d="M30.8 15c1 1.36 1.7 2.67 1.7 3.76.0 3.35.1 12.74.1 17.77"/><path id="kvg:05c0d-s2" kvg:type="㇑" d="M41.8 13c1 1.59 1.2 2.54 1.2 3.81s.1 12.44.1 18.21"/><path id="kvg:05c0d-s3" kvg:type="㇔" d="M17.02 21.95c2.84 1.83 7.33 7.53 8.04 10.38"/><path id="kvg:05c0d-s4" kvg:type="㇒" d="M56.53 17.76c.02.24.04.63-.04.98-.51 2.06-3.43 6.58-7.43 9.35"/><path id="kvg:05c0d-s5" kvg:type="㇐" d="M12.75 38.02c1.02.37 2.89.46 3.9.37 9.6-.89 30.86-3.77 39.53-4.26 1.7-.1 2.72.18 3.57.36"/></g><path id="kvg:05c0d-s6" kvg:type="㇔" d="M26.02 42.95c1.78 1.48 4.6 6.08 5.04 8.38"/><path id="kvg:05c0d-s7" kvg:type="㇒" d="M47.29 38.26c.02.28.03.73-.03 1.14-.39 2.41-2.63 7.69-5.7 10.93"/><g id="kvg:05c0d-g3" kvg:element="王" kvg:original="玉" kvg:partial="true"><path id="kvg:05c0d-s8" kvg:type="㇐" d="M17.25 57.02c1.02.37 2.89.42 3.9.37 8.1-.39 23.1-3.14 30.53-4.26 1.68-.25 2.72.18 3.57.36"/><path id="kvg:05c0d-s9" kvg:type="㇑a" d="M35.37 57.5c1.09.5 1.96 2.23 1.96 3.25.0 7.25.03 12.75.03 23.5"/><path id="kvg:05c0d-s10" kvg:type="㇐" d="M19.25 71.28c.87.49 2.45.53 3.33.49C28.25 71.5 42 68.5 49.96 66.98c1.42-.27 1.82-.27 2.54-.02"/><path id="kvg:05c0d-s11" kvg:type="㇐" d="M17.5 90.43c.94.82 2 1.82 4.65.68 7.72-3.33 22.99-8.86 30.85-11.86"/></g></g><g id="kvg:05c0d-g4" kvg:element="寸" kvg:position="right" kvg:radical="general"><path id="kvg:05c0d-s12" kvg:type="㇐" d="M59 40.47c.92.52 2.61.66 3.53.52 10.22-1.46 19.98-3.42 31.24-4.22 1.53-.11 2.46.25 3.23.51"/><path id="kvg:05c0d-s13" kvg:type="㇚" d="M82.64 13.33c.09.48 1.26 2.49 1.26 5.52.0 20.4-.26 65.16-.26 70.12.0 12.03-5.64 4.03-7.71 1.25"/><path id="kvg:05c0d-s14" kvg:type="㇔" d="M62.83 53.62c3.09 2.21 7.98 9.07 8.75 12.5"/></g></g></g></svg>