<!DOCTYPE svg PUBLIC "-//W3C//DTD SVG 1.0//EN" "http://www.w3.org/TR/2001/REC-SVG-20010904/DTD/svg10.dtd" [
<!ATTLIST g
xmlns:kvg CDATA #FIXED "http://kanjivg.tagaini.net"
kvg:element CDATA #IMPLIED
kvg:variant CDATA #IMPLIED
kvg:partial CDATA #IMPLIED
kvg:original CDATA #IMPLIED
kvg:part CDATA #IMPLIED
kvg:number CDATA #IMPLIED
kvg:tradForm CDATA #IMPLIED
kvg:radicalForm CDATA #IMPLIED
kvg:position CDATA #IMPLIED
kvg:radical CDATA #IMPLIED
kvg:phon CDATA #IMPLIED >
<!ATTLIST path
xmlns:kvg CDATA #FIXED "http://kanjivg.tagaini.net"
kvg:type CDATA #IMPLIED >
]><svg xmlns="http://www.w3.org/2000/svg" width="109" height="109" viewBox="0 0 109 109"><g id="kvg:StrokePaths_05c05" style="fill:none;stroke:#000000;stroke-width:3;stroke-linecap:round;stroke-linejoin:round;"><g id="kvg:05c05" kvg:element="尅"><g id="kvg:05c05-g1" kvg:element="克" kvg:position="nyo"><g id="kvg:05c05-g2" kvg:element="古" kvg:position="top"><g id="kvg:05c05-g3" kvg:element="十" kvg:position="top" kvg:radical="nelson"><path id="kvg:05c05-s1" kvg:type="㇐" d="M15.52 31.35c.5.22 1.84.28 3.18.15 6.55-.65 25.71-3.82 32.78-4.25 1.34-.08 2.29.22 3.13.43"/><path id="kvg:05c05-s2" kvg:type="㇑a" d="M33.82 14.5c1.08.66 1.94 2.59 1.94 3.93.0 4.82-.22 16.57-.22 23.57"/></g><g id="kvg:05c05-g4" kvg:element="兄" kvg:part="1"><g id="kvg:05c05-g5" kvg:element="口" kvg:position="bottom"><path id="kvg:05c05-s3" kvg:type="㇑" d="M19.33 43.04c.24.62.51 1.05.59 1.52.59 3.44 2.39 11.42 3.22 17.93"/><path id="kvg:05c05-s4" kvg:type="㇕b" d="M21.53 45.04c7.29-1.29 21.9-3.54 27.14-3.56 1.35.0 2.34 1.33 1.95 3.02-.99 4.24-2.19 7.93-3.19 13.19"/><path id="kvg:05c05-s5" kvg:type="㇐b" d="M24.5 60.74c6.89-.99 17.58-2.16 24.13-2.53"/></g></g></g><g id="kvg:05c05-g6" kvg:element="兄" kvg:part="2" kvg:position="bottom"><g id="kvg:05c05-g7" kvg:element="儿" kvg:original="八"><g id="kvg:05c05-g8" kvg:element="丿"><path id="kvg:05c05-s6" kvg:type="㇒" d="M28.89 66c.04.73.07 1.89-.09 2.95C27.75 76 23.5 89.5 12.75 97.17"/></g><path id="kvg:05c05-s7" kvg:type="㇟" d="M38.78 62.87c.53 1.19.96 2.59.99 4.43.14 8.19-.02 12.14-.02 17.7.0 13 8.35 11.53 27.68 11.53S96 96 95.97 87.4"/></g></g></g><g id="kvg:05c05-g9" kvg:element="寸" kvg:position="nyoc" kvg:radical="tradit"><path id="kvg:05c05-s8" kvg:type="㇐" d="M57 38.92c.72.44 2.04.55 2.76.44 7.99-1.23 25.41-3.73 34.21-4.4 1.2-.09 1.92.21 2.52.43"/><path id="kvg:05c05-s9" kvg:type="㇚" d="M80.37 15.1c.08.41 1.14 2.15 1.14 4.77.0 17.62-.23 56.72-.23 61.01.0 10.4-5.12 3.48-7 1.08"/><path id="kvg:05c05-s10" kvg:type="㇔" d="M60.71 50.01c2.84 2.27 7.33 9.33 8.04 12.86"/></g></g></g><g id="kvg:StrokeNumbers_05c05" style="font-size:8;fill:#808080"><text transform="matrix(1 0 0 1 8.50 31.50)">1</text><text transform="matrix(1 0 0 1 26 15.50)">2</text><text transform="matrix(1 0 0 1 12.94 50.50)">3</text><text transform="matrix(1 0 0 1 22.50 41.50)">4</text><text transform="matrix(1 0 0 1 25.94 57.83)">5</text><text transform="matrix(1 0 0 1 21.50 71.51)">6</text><text transform="matrix(1 0 0 1 32.50 75.50)">7</text><text transform="matrix(1 0 0 1 54.50 35.50)">8</text><text transform="matrix(1 0 0 1 71.19 16.50)">9</text><text transform="matrix(1 0 0 1 52 58)">10</text></g></svg>