<svg xmlns="http://www.w3.org/2000/svg" width="109" height="109" viewBox="0 0 109 109"><g id="kvg:StrokePaths_05c20"><g id="kvg:05c20" kvg:element="尠"><g id="kvg:05c20-g1" kvg:element="甚" kvg:position="left"><g id="kvg:05c20-g2" kvg:element="甘" kvg:position="top"><g id="kvg:05c20-g3" kvg:element="廿" kvg:part="1"><g id="kvg:05c20-g4" kvg:element="十"><path id="kvg:05c20-s1" kvg:type="㇐" d="M13.28 27.91c.89.43 2.53.54 3.42.43 6.57-.79 24.8-3.09 36.18-4.04 1.48-.12 2.38.21 3.12.42"/><path id="kvg:05c20-s2" kvg:type="㇑" d="M24.25 16.75c.78.48 1.24 2.16 1.4 3.12s.15 39.18.02 44.13"/></g><path id="kvg:05c20-s3" kvg:type="㇑" d="M43.81 13.03c.8.5 1.28 2.23 1.44 3.22.16.99.22 40.51.09 45.46"/></g><path id="kvg:05c20-s4" kvg:type="㇐" d="M25.69 38.87c2.5-.4 17.38-1.88 19.14-1.88"/><g id="kvg:05c20-g5" kvg:element="廿" kvg:part="2"><path id="kvg:05c20-s5" kvg:type="㇐" d="M25.69 51.05c3.82-.2 15.47-1.89 19-2.08"/></g></g><g id="kvg:05c20-g6" kvg:element="匹" kvg:position="bottom"><g id="kvg:05c20-g7" kvg:element="匚" kvg:part="1"><path id="kvg:05c20-s6" kvg:type="㇐" d="M10.25 64.8c1.05.44 2.99.51 4.04.44 10.97-.73 28.05-3.53 38.77-4.29 1.75-.12 2.81.21 3.69.43"/></g><g id="kvg:05c20-g8" kvg:element="儿"><g id="kvg:05c20-g9" kvg:element="丿" kvg:position="left"><path id="kvg:05c20-s7" kvg:type="㇒" d="M31.12 66.25c.2.29.43 1.03.38 1.61-.39 4.72-3.12 12.62-6.25 15.39"/></g><g id="kvg:05c20-g10" kvg:position="right"><path id="kvg:05c20-s8" kvg:type="㇟" d="M40.71 64.28c.57.88 1.05 1.91 1.05 3.26.0 1.95-.63 2.62-.63 6.06.0 6.94 1.71 6.64 6.63 6.64 4.24.0 5.52-.79 6.24-1.62"/></g></g><g id="kvg:05c20-g11" kvg:element="匚" kvg:part="2"><path id="kvg:05c20-s9" kvg:type="㇗" d="M18.56 67.64c.74 1.38 1.36 3 1.36 5.12.0 3.06-.07 6.58-.07 11.14.0 9.22 4.22 9.85 16.11 9.85 10.23.0 12.34-.88 14.07-1.98"/></g></g></g><g id="kvg:05c20-g12" kvg:element="少" kvg:position="right"><g id="kvg:05c20-g13" kvg:element="小" kvg:radical="tradit"><path id="kvg:05c20-s10" kvg:type="㇚" d="M74.42 13c.07.36 1.41 1.86 1.47 4.12.31 10.87-.2 40.28-.2 43.99.0 10.51-5.2 2.2-6.36 1.26"/><path id="kvg:05c20-s11" kvg:type="㇒" d="M63.97 33.17c.03.44.1 1.16-.05 1.77-1.1 4.41-5.74 12.92-9.5 16.99"/><g id="kvg:05c20-g14" kvg:element="丶" kvg:radical="nelson"><path id="kvg:05c20-s12" kvg:type="㇔" d="M86.44 31.5c4.65 2.8 10.9 9.99 12.06 14.34"/></g></g><g id="kvg:05c20-g15" kvg:element="丿"><path id="kvg:05c20-s13" kvg:type="㇒" d="M92.47 49.83c.11 1.15.32 2.98-.22 4.6-4.5 13.4-21.81 35.06-39.38 44.07"/></g></g></g></g></svg>