<svg xmlns="http://www.w3.org/2000/svg" width="109" height="109" viewBox="0 0 109 109"><g id="kvg:StrokePaths_05c2d"><g id="kvg:05c2d" kvg:element="尭"><g id="kvg:05c2d-g1" kvg:element="卉" kvg:position="top"><g id="kvg:05c2d-g2" kvg:element="十" kvg:position="top" kvg:radical="nelson"><path id="kvg:05c2d-s1" kvg:type="㇐" d="M26.38 25.82c2.64.78 5.56.44 8.24.1 10.26-1.3 28.12-3.15 39.64-3.63 2.8-.12 5.61-.2 8.38.29"/><path id="kvg:05c2d-s2" kvg:type="㇑" d="M52.62 10.88c1.06 1.06 1.44 2.74 1.44 4.65.0.89.03 21.59.03 28.35"/></g><g id="kvg:05c2d-g3" kvg:element="廾" kvg:position="bottom"><g id="kvg:05c2d-g4" kvg:element="十" kvg:part="1"><path id="kvg:05c2d-s3" kvg:type="㇐" d="M18 47.02c3.88.73 7.44.57 11.01.23 13.63-1.28 35.62-3.91 54.24-4.36 3.22-.08 6.11-.13 9.25.64"/></g><g id="kvg:05c2d-g5" kvg:element="丿"><path id="kvg:05c2d-s4" kvg:type="㇑" d="M34.75 35.25c1.06 1.06 1.5 2.12 1.6 3.53.68 9.51 1.4 18.97 1.9 25.72"/></g><g id="kvg:05c2d-g6" kvg:element="十" kvg:part="2"><path id="kvg:05c2d-s5" kvg:type="㇑" d="M72.18 32c.7 1.25.61 2.58.44 4.4C71.59 47.09 71.12 51.94 70 62"/></g></g></g><g id="kvg:05c2d-g7" kvg:position="bottom"><g id="kvg:05c2d-g8" kvg:element="兀"><g id="kvg:05c2d-g9" kvg:element="一"><path id="kvg:05c2d-s6" kvg:type="㇐" d="M25 65.52c2.38.61 5.96.48 8.75.11C46 64 62.12 62.5 76.38 61.94c2.84-.11 5.59.15 8.38.83"/></g></g><g id="kvg:05c2d-g10" kvg:element="儿" kvg:original="八" kvg:radical="tradit"><g id="kvg:05c2d-g11" kvg:element="丿"><path id="kvg:05c2d-s7" kvg:type="㇒" d="M43.85 68.77c.12 1.24-.24 2.75-.84 3.83-3.39 6.15-11.14 17.52-24.1 24.32"/></g><path id="kvg:05c2d-s8" kvg:type="㇟" d="M60.73 66.62c.83.83.93 2.04.93 3.48.0 6.52.05 12.7.05 17.09.0 7.44 1.67 9.07 16.19 9.07 13.23.0 15.49-2.01 15.49-7.68"/></g></g></g></g></svg>