<svg xmlns="http://www.w3.org/2000/svg" width="109" height="109" viewBox="0 0 109 109"><g id="kvg:StrokePaths_05c3a"><g id="kvg:05c3a" kvg:element="尺"><g id="kvg:05c3a-g1" kvg:element="尸" kvg:radical="general"><path id="kvg:05c3a-s1" kvg:type="㇕c" d="M32.89 22.57c1.99.56 4.43.99 6.02.79 9.06-1.11 29.27-3.25 35.74-4.01 4.01-.47 5.75.92 4.89 5.03C78.57 29 77.5 32.12 75 40.75"/><path id="kvg:05c3a-s2" kvg:type="㇐b" d="M37 45.5c3.45-.2 24.9-2.14 36-3.24 2.8-.28 4.9-.47 5.81-.52"/><g id="kvg:05c3a-g2" kvg:element="八" kvg:part="1"><path id="kvg:05c3a-s3" kvg:type="㇒" d="M36.09 23.62c.96.96 1.37 2.63 1.31 4.39C36.38 58.62 29.88 77.75 18 89.25"/></g></g><g id="kvg:05c3a-g3" kvg:element="八" kvg:part="2"><path id="kvg:05c3a-s4" kvg:type="㇏" d="M45.25 46c3.88 2.5 23.79 25.86 35.65 37.1 3.98 3.77 7.6 6.9 11.6 9.15"/></g></g></g></svg>