<!DOCTYPE svg PUBLIC "-//W3C//DTD SVG 1.0//EN" "http://www.w3.org/TR/2001/REC-SVG-20010904/DTD/svg10.dtd" [
<!ATTLIST g
xmlns:kvg CDATA #FIXED "http://kanjivg.tagaini.net"
kvg:element CDATA #IMPLIED
kvg:variant CDATA #IMPLIED
kvg:partial CDATA #IMPLIED
kvg:original CDATA #IMPLIED
kvg:part CDATA #IMPLIED
kvg:number CDATA #IMPLIED
kvg:tradForm CDATA #IMPLIED
kvg:radicalForm CDATA #IMPLIED
kvg:position CDATA #IMPLIED
kvg:radical CDATA #IMPLIED
kvg:phon CDATA #IMPLIED >
<!ATTLIST path
xmlns:kvg CDATA #FIXED "http://kanjivg.tagaini.net"
kvg:type CDATA #IMPLIED >
]><svg xmlns="http://www.w3.org/2000/svg" width="109" height="109" viewBox="0 0 109 109"><g id="kvg:StrokePaths_05c3f" style="fill:none;stroke:#000000;stroke-width:3;stroke-linecap:round;stroke-linejoin:round;"><g id="kvg:05c3f" kvg:element="尿"><g id="kvg:05c3f-g1" kvg:element="尸" kvg:position="tare" kvg:radical="general"><path id="kvg:05c3f-s1" kvg:type="㇕c" d="M20.99 18.14c1.86.6 5.49 1.23 7.46 1.02 10.67-1.16 37.59-3.1 45.81-3.64 3.38-.22 5.46.56 4.78 4.36-.55 3.08-1.14 5.69-2.58 11.38"/><path id="kvg:05c3f-s2" kvg:type="㇐b" d="M27.04 36.18c5.21-.56 30.18-2.49 44.21-3.62 4.04-.33 7.08-.55 8.33-.6"/><path id="kvg:05c3f-s3" kvg:type="㇒" d="M24.77 19.95c.73 1.05 1.02 2.05 1.05 3.3C26.31 43.83 26.36 69.52 11 85.39"/></g><g id="kvg:05c3f-g2" kvg:element="水" kvg:position="tarec"><path id="kvg:05c3f-s4" kvg:type="㇚" d="M56.48 41.08c.84.84 1.27 2.04 1.27 3.75.0 10.56.07 44.72.07 48.32.0 7.09-5.43.02-6.51-.88"/><path id="kvg:05c3f-s5" kvg:type="㇇" d="M30.52 60.71c1.4.25 3.19.11 4.58-.28 2.77-.77 8.67-2.58 10.05-3.16 1.7-.73 3.35.56 2.81 2.18C44.25 70.5 37.5 82 24.29 90"/><path id="kvg:05c3f-s6" kvg:type="㇒" d="M81.02 47.23c-.03.94-.56 1.62-1.22 2.21-4.98 4.45-9.72 7.78-18.55 12.07"/><path id="kvg:05c3f-s7" kvg:type="㇏" d="M59.29 63.14c9.03 7.06 18.03 14.9 26.63 20.48 2.37 1.54 4.96 3 8.06 4.36"/></g></g></g><g id="kvg:StrokeNumbers_05c3f" style="font-size:8;fill:#808080"><text transform="matrix(1 0 0 1 25.50 16.50)">1</text><text transform="matrix(1 0 0 1 30.50 32.50)">2</text><text transform="matrix(1 0 0 1 18.50 28.63)">3</text><text transform="matrix(1 0 0 1 46.50 44.50)">4</text><text transform="matrix(1 0 0 1 29.50 57.50)">5</text><text transform="matrix(1 0 0 1 71.50 47.50)">6</text><text transform="matrix(1 0 0 1 68.50 68.50)">7</text></g></svg>