<!DOCTYPE svg PUBLIC "-//W3C//DTD SVG 1.0//EN" "http://www.w3.org/TR/2001/REC-SVG-20010904/DTD/svg10.dtd" [
<!ATTLIST g
xmlns:kvg CDATA #FIXED "http://kanjivg.tagaini.net"
kvg:element CDATA #IMPLIED
kvg:variant CDATA #IMPLIED
kvg:partial CDATA #IMPLIED
kvg:original CDATA #IMPLIED
kvg:part CDATA #IMPLIED
kvg:number CDATA #IMPLIED
kvg:tradForm CDATA #IMPLIED
kvg:radicalForm CDATA #IMPLIED
kvg:position CDATA #IMPLIED
kvg:radical CDATA #IMPLIED
kvg:phon CDATA #IMPLIED >
<!ATTLIST path
xmlns:kvg CDATA #FIXED "http://kanjivg.tagaini.net"
kvg:type CDATA #IMPLIED >
]><svg xmlns="http://www.w3.org/2000/svg" width="109" height="109" viewBox="0 0 109 109"><g id="kvg:StrokePaths_05c3d" style="fill:none;stroke:#000000;stroke-width:3;stroke-linecap:round;stroke-linejoin:round;"><g id="kvg:05c3d" kvg:element="尽"><g id="kvg:05c3d-g1" kvg:element="尺" kvg:position="top"><g id="kvg:05c3d-g2" kvg:element="尸" kvg:radical="general"><path id="kvg:05c3d-s1" kvg:type="㇕c" d="M32.95 16.88c2.17.99 4.54.87 6.82.67 8.62-.73 26.1-2.12 32.5-2.71 3.62-.33 6.15.16 5.18 4.42-.83 3.68-1.95 7.99-3.37 12.96"/><path id="kvg:05c3d-s2" kvg:type="㇐b" d="M36.47 36.11c3.24-.17 23.23-1.64 34.3-2.63 3.27-.29 5.75-.5 6.74-.55"/><g id="kvg:05c3d-g3" kvg:element="八" kvg:part="1"><path id="kvg:05c3d-s3" kvg:type="㇒" d="M36.01 18.36c1 1 .99 2.27.93 4.14-.68 19.73-6.56 40.75-21.18 52.41"/></g></g><g id="kvg:05c3d-g4" kvg:element="八" kvg:part="2"><path id="kvg:05c3d-s4" kvg:type="㇏" d="M52.68 36.25c6.12 4.01 18.6 16.34 26.88 23.67 3.19 2.82 7.06 5.2 10.94 7.07"/></g></g><g id="kvg:05c3d-g5" kvg:element="冫" kvg:position="bottom"><g id="kvg:05c3d-g6" kvg:position="top"><path id="kvg:05c3d-s5" kvg:type="㇔" d="M46.27 59.83c4.34 2.1 11.21 8.62 12.29 11.88"/></g><g id="kvg:05c3d-g7" kvg:position="bottom"><path id="kvg:05c3d-s6" kvg:type="㇔/㇀" d="M40.14 82.21c11.23 2.54 24.31 10.89 26.67 15.01"/></g></g></g></g><g id="kvg:StrokeNumbers_05c3d" style="font-size:8;fill:#808080"><text transform="matrix(1 0 0 1 39.75 15.13)">1</text><text transform="matrix(1 0 0 1 42.75 33.05)">2</text><text transform="matrix(1 0 0 1 29.25 25.63)">3</text><text transform="matrix(1 0 0 1 66.75 43.63)">4</text><text transform="matrix(1 0 0 1 39.75 60.05)">5</text><text transform="matrix(1 0 0 1 32.25 82.48)">6</text></g></svg>