<svg xmlns="http://www.w3.org/2000/svg" width="109" height="109" viewBox="0 0 109 109"><g id="kvg:StrokePaths_05c4a" style="fill:none;stroke:#000000;stroke-width:3;stroke-linecap:round;stroke-linejoin:round;"><g id="kvg:05c4a" kvg:element="届"><g id="kvg:05c4a-g1" kvg:element="尸" kvg:position="tare" kvg:radical="general"><path id="kvg:05c4a-s1" kvg:type="㇕c" d="M25.5 17.49c1.74.65 3.12.99 4.97.85 9.11-.66 41.11-3.9 49.65-4.66 3.2-.28 5.17.75 4.44 4.32-.76 3.72-1.93 9.24-3.42 15.1"/><path id="kvg:05c4a-s2" kvg:type="㇐b" d="M29.5 38.5c4.67-.2 31.9-2.96 46.75-4.17 3.45-.28 5.37-.46 8-.33"/><path id="kvg:05c4a-s3" kvg:type="㇒" d="M28.25 18.25c1.12 1.12 1.26 3.1 1.22 4.25-.85 28.25-5.1 47.5-18.22 62.75"/></g><g id="kvg:05c4a-g2" kvg:element="由" kvg:position="tarec" kvg:phon="由"><g id="kvg:05c4a-g3" kvg:element="日" kvg:part="1" kvg:partial="true"><path id="kvg:05c4a-s4" kvg:type="㇑" d="M34.42 58.01c.97.97 1.68 2.15 1.84 3.01 1.24 6.72 2.24 16.85 3.6 28.47.29 2.48.64 4.69.82 7.05"/><path id="kvg:05c4a-s5" kvg:type="㇕a" d="M37.21 60.33C53.62 58.5 73 56.38 84.94 55.68c3.13-.18 5.63 1.3 5.26 4.57-.69 6.13-2.38 18.45-4.36 27.55-.42 1.94-.86 3.72-1.3 5.23"/></g><g id="kvg:05c4a-g4" kvg:element="丨"><path id="kvg:05c4a-s6" kvg:type="㇑a" d="M59.74 42.32c.91.91 1.51 2.55 1.51 4.18.0 15.25-.02 41.45-.02 45.44"/></g><g id="kvg:05c4a-g5" kvg:element="日" kvg:part="2" kvg:partial="true"><path id="kvg:05c4a-s7" kvg:type="㇐a" d="M39.57 75.8c9.81-1.05 34.68-3.43 48-3.91"/><path id="kvg:05c4a-s8" kvg:type="㇐a" d="M41.64 93.94c11.99-.94 29.17-2.6 42.52-2.78"/></g></g></g></g></svg>