<svg xmlns="http://www.w3.org/2000/svg" width="109" height="109" viewBox="0 0 109 109"><g id="kvg:StrokePaths_05c53"><g id="kvg:05c53" kvg:element="屓"><g id="kvg:05c53-g1" kvg:element="尸" kvg:position="tare" kvg:radical="general"><path id="kvg:05c53-s1" kvg:type="㇕c" d="M25.68 16.65c1.91.73 4.13.88 6.16.73C42.8 16.57 76 13.75 80.37 13.15c2.88-.4 3.63 1.1 3.13 3.97-.63 3.61-2 6.63-2.87 10.94"/><path id="kvg:05c53-s2" kvg:type="㇐b" d="M30.9 31.67c5.5-.24 46.67-3.63 52.41-3.87"/><path id="kvg:05c53-s3" kvg:type="㇒" d="M29.58 17.83c0 3.76-.3 14.7-.78 18.21C26.08 55.94 24.09 71.71 10.75 86"/></g><g id="kvg:05c53-g2" kvg:element="貝" kvg:position="tarec"><g id="kvg:05c53-g3" kvg:element="目" kvg:position="top"><path id="kvg:05c53-s4" kvg:type="㇑" d="M41.57 38.82c.44.99 1.09 1.72 1.09 3.04s.21 36.64-.32 42.16"/><path id="kvg:05c53-s5" kvg:type="㇕a" d="M43.4 39.96c2.51-.16 30.17-2.27 32.46-2.47 1.91-.16 2.93.91 2.93 2.14.0 3.01-.56 40.87-.56 41.86"/><path id="kvg:05c53-s6" kvg:type="㇐a" d="M43.21 52.86c4.7-.38 31.42-2.67 35.46-2.67"/><path id="kvg:05c53-s7" kvg:type="㇐a" d="M42.92 65.83c7.09-.72 27.76-2.19 35.28-2.34"/><path id="kvg:05c53-s8" kvg:type="㇐a" d="M42.59 79.93c7.09-.54 29.14-2.47 35.6-2.47"/></g><g id="kvg:05c53-g4" kvg:element="八" kvg:position="bottom"><path id="kvg:05c53-s9" kvg:type="㇒" d="M51.38 85.51c.49 1.09-.47 2.04-1.36 2.94-2.52 2.55-8.74 7.62-16.68 10.3"/><path id="kvg:05c53-s10" kvg:type="㇔" d="M69.67 86.04c6.62 3.58 14.44 10.05 16.24 13.18"/></g></g></g></g></svg>