<svg xmlns="http://www.w3.org/2000/svg" width="109" height="109" viewBox="0 0 109 109"><g id="kvg:StrokePaths_05c50" style="fill:none;stroke:#000000;stroke-width:3;stroke-linecap:round;stroke-linejoin:round;"><g id="kvg:05c50" kvg:element="屐"><g id="kvg:05c50-g1" kvg:element="尸" kvg:position="tare" kvg:radical="general"><path id="kvg:05c50-s1" kvg:type="㇕c" d="M23.68 16.15c1.91.73 4.13.88 6.16.73 10.97-.81 44.66-3.13 49.03-3.73 2.88-.4 3.63 1.1 3.13 3.97-.63 3.61-2 4.63-2.87 8.94"/><path id="kvg:05c50-s2" kvg:type="㇐b" d="M26.9 30.17c5.5-.24 48.17-3.63 53.91-3.87"/><path id="kvg:05c50-s3" kvg:type="㇒" d="M27.08 17.33c0 3.96-.25 14.96-.65 18.64C24.19 56.9 22.54 73.48 11.5 88.5"/></g><g id="kvg:05c50-g2" kvg:position="tarec"><g id="kvg:05c50-g3" kvg:element="彳" kvg:position="left"><path id="kvg:05c50-s4" kvg:type="㇒" d="M45.52 35c.04.4.18 1.12-.08 1.61-1.83 3.49-6.63 9.54-13.34 15.44"/><g id="kvg:05c50-g4" kvg:element="亻" kvg:variant="true" kvg:original="人"><path id="kvg:05c50-s5" kvg:type="㇒" d="M46.11 49.33c.06.62.28 1.73-.11 2.49-2.81 5.39-10.19 14.74-20.5 23.85"/><path id="kvg:05c50-s6" kvg:type="㇑" d="M38.7 65.39c.25.17.4.79.45 1.13.05.35.0 28.29-.05 30.47"/></g></g><g id="kvg:05c50-g5" kvg:element="支" kvg:position="right"><g id="kvg:05c50-g6" kvg:element="十" kvg:position="top"><path id="kvg:05c50-s7" kvg:type="㇐" d="M48.85 45.82c.71.23 2.02.32 2.72.23 10.86-1.38 25.47-3.39 32.35-3.91 1.18-.09 1.89.11 2.48.23"/><path id="kvg:05c50-s8" kvg:type="㇑a" d="M64.31 31.88c.4.4 1.24 3.01 1.32 3.81s-.05 18.08-.13 23.1"/></g><g id="kvg:05c50-g7" kvg:element="又" kvg:position="bottom"><path id="kvg:05c50-s9" kvg:type="㇇" d="M51.54 60.38c1.11.34 1.24.86 3.46.34 2.21-.52 23.57-2.9 25.09-3.41 1.52-.52 2.46 1.34 1.44 3C71 77.5 62 86.25 46.9 94.3"/><path id="kvg:05c50-s10" kvg:type="㇏" d="M53.13 65.88c3.41.7 20.06 19.5 31.93 27.2 1.85 1.2 3.2 2 4.92 2.4"/></g></g></g></g></g></svg>