<svg xmlns="http://www.w3.org/2000/svg" width="109" height="109" viewBox="0 0 109 109"><g id="kvg:StrokePaths_05c6c" style="fill:none;stroke:#000000;stroke-width:3;stroke-linecap:round;stroke-linejoin:round;"><g id="kvg:05c6c" kvg:element="屬"><g id="kvg:05c6c-g1" kvg:element="尸" kvg:position="tare" kvg:radical="general"><path id="kvg:05c6c-s1" kvg:type="㇕c" d="M25.68 13.98c1.91.68 4.13.81 6.16.68 12.91-.83 42.66-3.95 47.03-4.51 2.88-.38 3.63 1.04 3.13 3.74-.63 3.4-2 4.84-2.87 8.9"/><path id="kvg:05c6c-s2" kvg:type="㇐b" d="M29.4 27.16c5.5-.23 46.67-3.92 52.41-4.15"/><path id="kvg:05c6c-s3" kvg:type="㇒" d="M29.08 15.06c0 4.14-.27 16.17-.69 20.02C26 56.96 24.25 74.29 12.5 90"/></g><g id="kvg:05c6c-g2" kvg:position="tarec"><path id="kvg:05c6c-s4" kvg:type="㇑" d="M57.52 29.83c.73.68 1.24 1.47 1.3 3.71C59.11 44.3 58.8 40.34 58.8 44"/><g id="kvg:05c6c-g3" kvg:element="二"><path id="kvg:05c6c-s5" kvg:type="㇐" d="M35.75 34.68c.29.12.82.07 1.11.12 2.89.46 11.48-.83 13.26-.69.48.04.77.06 1.01.11"/><path id="kvg:05c6c-s6" kvg:type="㇐" d="M34.5 42.21c.34.14.97.08 1.3.14 3.41.54 13.53-.98 15.63-.82.56.04.91.07 1.19.14"/></g><g id="kvg:05c6c-g4" kvg:element="二"><path id="kvg:05c6c-s7" kvg:type="㇐" d="M65.75 32.44c.31.13.89.08 1.2.13 3.13.49 12.41-.9 14.34-.75.52.04.83.06 1.09.12"/><path id="kvg:05c6c-s8" kvg:type="㇐" d="M65 40.22c.36.15 1.02.09 1.38.15 3.6.57 14.27-1.03 16.49-.86.6.05.96.07 1.26.14"/></g><g id="kvg:05c6c-g5" kvg:element="蜀"><g id="kvg:05c6c-g6" kvg:element="罒" kvg:variant="true" kvg:original="网" kvg:position="top"><path id="kvg:05c6c-s9" kvg:type="㇑" d="M35.21 49.58c.24.23.49.42.6.7.85 2.25 3.54 7.75 4.11 11.79"/><path id="kvg:05c6c-s10" kvg:type="㇕a" d="M36.72 50.9c5.38-.88 42.3-4.37 45.16-4.66 1.04-.11 2.46.76 2.18 2.03-.58 2.64-2 7.32-3.56 11.09"/><path id="kvg:05c6c-s11" kvg:type="㇑a" d="M51.52 49.14c.16 1.5.48 6.61 1.28 10.5"/><path id="kvg:05c6c-s12" kvg:type="㇑a" d="M66.6 48.2c-.16 2.44-.95 8.81-1.28 10.31"/><path id="kvg:05c6c-s13" kvg:type="㇐a" d="M40.7 60.85c3.36-.33 35.58-2.91 40.19-3.43"/></g><g id="kvg:05c6c-g7" kvg:position="bottom"><g id="kvg:05c6c-g8" kvg:element="勹"><g id="kvg:05c6c-g9" kvg:element="丿"><path id="kvg:05c6c-s14" kvg:type="㇒" d="M46.77 63.37c.05.42.11 1.09-.1 1.7-1.23 3.59-8.3 11.47-17.98 16.3"/></g><path id="kvg:05c6c-s15" kvg:type="㇆" d="M44.76 68.73c1.04.41 2.47.45 4.15.27 6.06-.64 28.18-4.04 32.33-4.17 4.15-.14 4.8 1.34 4.36 4.21-1.16 7.55-2.42 16.62-7.52 29.13-2.07 5.08-4.19 1.02-6.64-.68"/></g><g id="kvg:05c6c-g10" kvg:element="虫"><g id="kvg:05c6c-g11" kvg:element="中"><g id="kvg:05c6c-g12" kvg:element="口"><path id="kvg:05c6c-s16" kvg:type="㇑" d="M37.99 76.22c.5.21 1.13 1.01 1.22 1.29.67 2.02 1.8 5.01 2.75 8.85"/><path id="kvg:05c6c-s17" kvg:type="㇕b" d="M40.02 76.99c7.56-.41 21.18-2.59 26.62-3 1.44-.11 3.12.89 2.85 1.5-.91 2.08-1.07 3.17-2.54 6.62"/><path id="kvg:05c6c-s18" kvg:type="㇐b" d="M42.24 84.9c6.08-.41 17.05-2.17 25.56-2.55"/></g><g id="kvg:05c6c-g13" kvg:element="丨"><path id="kvg:05c6c-s19" kvg:type="㇑a" d="M53.06 70.8c.75.64 1.27 1.97 1.27 2.6.0 3.11.0 14.8-.24 18.59"/></g></g><path id="kvg:05c6c-s20" kvg:type="㇀" d="M37.02 94.79c.73.44 1.17 1 1.9.89s25.32-4.91 29.86-5.79"/><path id="kvg:05c6c-s21" kvg:type="㇔" d="M64.45 86.27c2.7 1.04 6.98 4.29 7.65 5.91"/></g></g></g></g></g></g></svg>