<svg xmlns="http://www.w3.org/2000/svg" width="109" height="109" viewBox="0 0 109 109"><g id="kvg:StrokePaths_05c94"><g id="kvg:05c94" kvg:element="岔"><g id="kvg:05c94-g1" kvg:element="分" kvg:position="top"><g id="kvg:05c94-g2" kvg:element="八" kvg:position="top"><path id="kvg:05c94-s1" kvg:type="㇒" d="M42.11 15.65c.42.74-.09 1.56-.59 2.48-4.05 7.54-15.48 18.88-23.99 22.1"/><path id="kvg:05c94-s2" kvg:type="㇏" d="M59.11 11.25c3.89 1.5 19.45 17.34 27.55 21.11 3.13 1.46 4.26 2.24 7.3 2.71"/></g><g id="kvg:05c94-g3" kvg:element="刀" kvg:position="bottom"><path id="kvg:05c94-s3" kvg:type="㇆" d="M34.03 34.53c1.16.34 2.62.3 3.63.19 8.25-.96 27.56-4.48 32.14-4.83 2.98-.23 3.8 1.69 3.63 3.3-.44 4.25-3.18 19.57-6.77 25.88-3.41 5.99-4.63 2.08-7.94-.34"/><path id="kvg:05c94-s4" kvg:type="㇒" d="M48.28 36.29c.06.61.21 1.62-.13 2.47-3.84 9.49-9.79 17.4-22.36 25.1"/></g></g><g id="kvg:05c94-g4" kvg:element="山" kvg:position="bottom" kvg:radical="general"><path id="kvg:05c94-s5" kvg:type="㇑a" d="M52.28 64c.61.36 1.92 2.72 2.04 3.45s-.08 20.95-.2 25.49"/><path id="kvg:05c94-s6" kvg:type="㇄a" d="M26.62 72.25c.61.36 1.32 1.91 1.23 2.64-.41 3.25-.38 12.56-2.03 19.17-.41 1.62-.28 3.43 1.22 3.04C37 94.5 73.99 90.43 81.7 90.22"/><path id="kvg:05c94-s7" kvg:type="㇑" d="M82.4 66.08c.62.36 1.33 2.72 1.23 3.45-.61 4.46-1.22 17.65-2.23 25.97"/></g></g></g></svg>