<svg xmlns="http://www.w3.org/2000/svg" width="109" height="109" viewBox="0 0 109 109"><g id="kvg:StrokePaths_05ca1"><g id="kvg:05ca1" kvg:element="岡"><g id="kvg:05ca1-g1" kvg:element="冂" kvg:position="kamae" kvg:radical="nelson"><path id="kvg:05ca1-s1" kvg:type="㇑" d="M21.94 19.89c1.15 1.15 1.41 2.61 1.41 4.78.0 6.33.23 65.23.23 68.83"/><path id="kvg:05ca1-s2" kvg:type="㇆a" d="M24.35 21.79c11.4-1.54 40.9-4.67 54.41-6.06 4.52-.46 7.81.57 7.81 5.64.0 11-.19 61.18-.19 66.13.0 11.12-4.62 4.81-7.35 1.69"/></g><path id="kvg:05ca1-s3" kvg:type="㇔" d="M39.02 28.66c2.8 1.95 7.24 8.04 7.94 11.08"/><path id="kvg:05ca1-s4" kvg:type="㇒" d="M67.02 24.44c.09 1.14-.08 2.25-.51 3.32-2.02 4.12-4.02 8.12-8.59 13.92"/><path id="kvg:05ca1-s5" kvg:type="㇐" d="M30.25 46.64c3.08.6 6.07.03 9.23-.3 10.35-1.09 24.89-2.96 33.52-3.68 2.45-.21 5-.03 7.25.11"/><g id="kvg:05ca1-g2" kvg:element="山" kvg:radical="tradit"><path id="kvg:05ca1-s6" kvg:type="㇑a" d="M52.84 46.25c.77.77 1.06 1.88 1.06 2.88.0 3.24-.02 15.99-.02 20.37"/><path id="kvg:05ca1-s7" kvg:type="㇄a" d="M36.89 58.35c.63.63.76 1.96.69 2.51-.45 3.26-1.22 5.9-2.07 9.38-.6 2.44.39 3.44 3.25 2.88C49.62 71 60.5 69.88 72.54 69.22"/><path id="kvg:05ca1-s8" kvg:type="㇑" d="M73.21 53.29c.69.69.79 1.96.69 3.38-.31 4.08-.39 9.08-.89 16.08"/></g></g></g></svg>