<svg xmlns="http://www.w3.org/2000/svg" width="109" height="109" viewBox="0 0 109 109"><g id="kvg:StrokePaths_05cb8" style="fill:none;stroke:#000000;stroke-width:3;stroke-linecap:round;stroke-linejoin:round;"><g id="kvg:05cb8" kvg:element="岸"><g id="kvg:05cb8-g1" kvg:element="山" kvg:position="top" kvg:radical="general"><path id="kvg:05cb8-s1" kvg:type="㇑a" d="M53.85 10c.89.89 1.43 2.12 1.43 3.27.0.7-.08 9.63-.19 13.93"/><path id="kvg:05cb8-s2" kvg:type="㇄a" d="M28.91 18.23c.87.87 1.34 2.16 1.16 3.25-.57 3.52-.57 4.15-1.19 8.2-.24 1.57.98 2.72 2.4 2.38C44.12 29 63.12 27 80.77 26.04"/><path id="kvg:05cb8-s3" kvg:type="㇑" d="M83.16 12.92c1.02 1.02 1.06 2.58.91 3.27-.73 3.41-1.64 6.64-2.55 10.47-.27 1.15-.54 2.35-.81 3.63"/></g><g id="kvg:05cb8-g2" kvg:position="bottom" kvg:phon="厂干"><g id="kvg:05cb8-g3" kvg:element="厂"><path id="kvg:05cb8-s4" kvg:type="㇐" d="M28.38 44.68c2.98 1.16 6.88.37 9.94.1 11.18-1 25.98-3.02 36.38-3.72 3.22-.22 6.5-.5 9.67.25"/><path id="kvg:05cb8-s5" kvg:type="㇒" d="M29.43 45.03c.47 1.15.67 2.48.41 3.99C27.5 62.38 24.38 75.75 10.5 89.5"/></g><g id="kvg:05cb8-g4" kvg:element="干"><path id="kvg:05cb8-s6" kvg:type="㇐" d="M41.21 57.97c1.79.53 4.06.48 6.01.25 6.03-.71 15.03-1.96 22.66-2.58 1.63-.13 3.28-.13 4.89.24"/><g id="kvg:05cb8-g5" kvg:element="十"><path id="kvg:05cb8-s7" kvg:type="㇐" d="M30.15 76.76c2.01.37 5.73.3 7.72.08 14.38-1.62 34.88-3.78 46.05-4.16 3.35-.12 5.37.18 7.05.37"/><path id="kvg:05cb8-s8" kvg:type="㇑" d="M56.98 58.84c.78.78 1.36 1.91 1.36 3.22.0.66-.01 23.15-.09 33.32-.02 2.08-.03 3.68-.04 4.51"/></g></g></g></g></g></svg>