<svg xmlns="http://www.w3.org/2000/svg" width="109" height="109" viewBox="0 0 109 109"><g id="kvg:StrokePaths_05cb1" style="fill:none;stroke:#000000;stroke-width:3;stroke-linecap:round;stroke-linejoin:round;"><g id="kvg:05cb1" kvg:element="岱"><g id="kvg:05cb1-g1" kvg:element="代" kvg:position="top"><g id="kvg:05cb1-g2" kvg:element="亻" kvg:variant="true" kvg:original="人" kvg:position="left"><path id="kvg:05cb1-s1" kvg:type="㇒" d="M34.97 15.21c.22 1.61-.06 3.71-.77 5.09-4.52 8.77-8.85 16.61-19.2 27.29"/><path id="kvg:05cb1-s2" kvg:type="㇑" d="M27.97 33.58c1.22.71 1.51 2.21 1.56 3.18.44 8.45-.87 25.11-.47 30.2"/></g><g id="kvg:05cb1-g3" kvg:element="弋" kvg:position="right"><path id="kvg:05cb1-s3" kvg:type="㇐" d="M36.41 36.09c1.57.4 4.48.6 6.04.4 6.38-.79 27.16-5.86 40.34-7.65 2.58-.35 3.95-.31 5.51.01"/><path id="kvg:05cb1-s4" kvg:type="㇂" d="M54.33 11.54c1.81 1.15 2.47 2.03 2.95 4.44C62.5 42.25 69.75 55.75 89.13 65.1c7 3.38 7.12-.35 5.71-7.1"/><g id="kvg:05cb1-g4" kvg:element="丶"><path id="kvg:05cb1-s5" kvg:type="㇔" d="M70.6 13.96c3.23 1.39 8.41 4.58 9.92 6.97"/></g></g></g><g id="kvg:05cb1-g5" kvg:element="山" kvg:position="bottom" kvg:radical="general"><path id="kvg:05cb1-s6" kvg:type="㇑a" d="M53.79 61c.48.23 1.5 1.7 1.59 2.15.1.45-.06 26.35-.16 29.18"/><path id="kvg:05cb1-s7" kvg:type="㇄a" d="M28.77 73.74c.56.29 1.2 2.53 1.12 3.12-.37 2.61-2.34 12.18-3.85 17.48-.37 1.3-.26 2.75 1.11 2.44C46 92.5 81 90.44 83.99 90.37"/><path id="kvg:05cb1-s8" kvg:type="㇑" d="M83.83 71.24c.39.3 1.34 2.76 1.28 3.37-.39 3.72-.77 14.71-1.42 21.64"/></g></g></g></svg>