<svg xmlns="http://www.w3.org/2000/svg" width="109" height="109" viewBox="0 0 109 109"><g id="kvg:StrokePaths_05cb3"><g id="kvg:05cb3" kvg:element="岳"><g id="kvg:05cb3-g1" kvg:element="丘" kvg:position="top"><g id="kvg:05cb3-g2" kvg:element="斤"><g id="kvg:05cb3-g3" kvg:element="丿" kvg:radical="nelson"><path id="kvg:05cb3-s1" kvg:type="㇒" d="M59 10.85c-.12 1.27-.85 2.36-1.57 3.08-6.27 6.3-13.93 11.44-25.18 16.82"/></g><path id="kvg:05cb3-s2" kvg:type="㇑a" d="M29.25 31.36c1.07 1.07 1.95 2.47 2.2 3.82 1.54 8.32 3.52 21.17 4.16 26.06"/><path id="kvg:05cb3-s3" kvg:type="㇐" d="M35.78 38.37c2.09.13 3.48.14 5.69-.13 10.47-1.29 23.27-3.61 33.19-5.58 2.65-.53 4.87-.83 7.58-.48"/><path id="kvg:05cb3-s4" kvg:type="㇑a" d="M67.63 38.35c.95.95 1.07 2.29.8 4.22-.81 5.68-.93 7.55-2.17 15.68"/></g><g id="kvg:05cb3-g4" kvg:element="一"><path id="kvg:05cb3-s5" kvg:type="㇐" d="M13.5 63.23c3.41 1.16 7.22.83 10.74.43C37.47 62.14 63.5 58.5 81.99 58c4.04-.11 8.08-.06 12.01.74"/></g></g><g id="kvg:05cb3-g5" kvg:element="山" kvg:position="bottom" kvg:radical="tradit"><path id="kvg:05cb3-s6" kvg:type="㇑a" d="M52.94 63.44c1.18 1.18 1.62 2.81 1.62 4.45.0 4.73.04 15.23.04 22.49"/><path id="kvg:05cb3-s7" kvg:type="㇄a" d="M25.9 76.38c.86.86 1.1 2.12 1.03 3.08-.29 4.05-.39 5.65-.96 13.13-.22 2.91.17 3.05 1.77 2.76 13.88-2.48 38.63-5.98 54.3-6.28"/><path id="kvg:05cb3-s8" kvg:type="㇑" d="M84.59 70.75c1.08 1.08.91 2.62.76 3.59-.56 3.75-1.16 7.7-2.08 12.87-.4 2.25-.84 4.73-1.3 7.52"/></g></g></g></svg>