<svg xmlns="http://www.w3.org/2000/svg" width="109" height="109" viewBox="0 0 109 109"><g id="kvg:StrokePaths_05ced"><g id="kvg:05ced" kvg:element="峭"><g id="kvg:05ced-g1" kvg:element="山" kvg:position="left" kvg:radical="general"><path id="kvg:05ced-s1" kvg:type="㇑a" d="M25.7 18.75c.61.36 2.01 2.69 2.01 3.42.0 7.55.25 39.97.25 49.65"/><path id="kvg:05ced-s2" kvg:type="㇄a" d="M14.29 44.51c.67.4 1.39 2.07 1.33 2.88-.37 5.52-.37 17.06-1.7 25.36-.29 1.8.19 2.22 1.82 1.81 9.26-2.31 13.51-2.81 24.76-5.11"/><path id="kvg:05ced-s3" kvg:type="㇑" d="M40.22 40.16c.67.4 1.33 2.96 1.33 3.76.0 6.21-.92 19.26-.92 29.31"/></g><g id="kvg:05ced-g2" kvg:element="肖" kvg:variant="true" kvg:position="right"><g id="kvg:05ced-g3" kvg:element="⺌" kvg:variant="true" kvg:original="小" kvg:position="top"><path id="kvg:05ced-s4" kvg:type="㇑" d="M68.99 11.5c.12.38 1.67 1.95 1.67 4.34.0 8.16.09 20.01.09 23.91"/><path id="kvg:05ced-s5" kvg:type="㇒" d="M57.71 20.6c.03.4.07 1.02-.07 1.59-.86 3.35-5.04 8.63-9.75 12.33"/><path id="kvg:05ced-s6" kvg:type="㇔" d="M80.31 19.58c6.4 2.77 14.47 9.43 16.07 13.74"/></g><g id="kvg:05ced-g4" kvg:element="月" kvg:position="bottom"><path id="kvg:05ced-s7" kvg:type="㇑" d="M52.86 39.98c.66.94 1.1 1.88 1.32 2.82s.31 51.15.22 53.26"/><path id="kvg:05ced-s8" kvg:type="㇆a" d="M55.49 41.92c2.64-.23 26.38-3.73 28.34-3.99 3.52-.47 4.39 2.98 4.39 4.46.0 10.12-.66 28.77-.66 47.78.0 11.4-5.93 2.61-7.91.97"/><path id="kvg:05ced-s9" kvg:type="㇐a" d="M55.49 55.91c9.01-1.41 23.72-2.11 31.63-2.82"/><path id="kvg:05ced-s10" kvg:type="㇐a" d="M54.83 70.77c7.03-.7 23.29-2.35 31.41-2.82"/></g></g></g></g></svg>