<svg xmlns="http://www.w3.org/2000/svg" width="109" height="109" viewBox="0 0 109 109"><g id="kvg:StrokePaths_05ce1" style="fill:none;stroke:#000000;stroke-width:3;stroke-linecap:round;stroke-linejoin:round;"><g id="kvg:05ce1" kvg:element="峡"><g id="kvg:05ce1-g1" kvg:element="山" kvg:position="left" kvg:radical="general"><path id="kvg:05ce1-s1" kvg:type="㇑a" d="M24.62 20.88c.87.87 1.24 2.24 1.24 3.61.0.72-.11 39.94-.11 45.76"/><path id="kvg:05ce1-s2" kvg:type="㇄a" d="M12.78 48.69c.77.76.97 1.93.95 3.07-.12 4.99-.47 11.99-1.02 19.46-.14 1.95-.04 2.71 2.02 2.28 4.72-.99 15.75-2.83 23.03-4"/><path id="kvg:05ce1-s3" kvg:type="㇑" d="M39.21 43.51c.96.96 1.04 2.24.95 3.87-.21 3.53-.39 11.65-1 19.43-.2 2.62-.43 5.14-.68 7.33"/></g><g id="kvg:05ce1-g2" kvg:element="夹" kvg:variant="true" kvg:original="夾" kvg:position="right" kvg:phon="夹"><g id="kvg:05ce1-g3" kvg:element="二" kvg:part="1"><g id="kvg:05ce1-g4" kvg:element="大" kvg:part="1"><path id="kvg:05ce1-s4" kvg:type="㇐" d="M46.25 32.39c2.38.61 4.42.35 6.24.1 10.13-1.37 19.63-2.87 29.4-4.11 2.02-.26 3.86-.36 5.86.13"/></g></g><g id="kvg:05ce1-g5" kvg:element="从" kvg:variant="true"><g id="kvg:05ce1-g6" kvg:element="人" kvg:variant="true" kvg:position="left"><path id="kvg:05ce1-s5" kvg:type="㇔" d="M46.75 41.38c2.2 2.07 5.68 8.51 6.23 11.73"/></g><g id="kvg:05ce1-g7" kvg:element="人" kvg:variant="true" kvg:position="right"><path id="kvg:05ce1-s6" kvg:type="㇒" d="M80.52 35.89c.12.9.01 1.76-.32 2.59-1.29 4.09-3.71 8.99-8.96 15.52"/><g id="kvg:05ce1-g8" kvg:element="二" kvg:part="2"><path id="kvg:05ce1-s7" kvg:type="㇐" d="M44.88 59.86c2.3.55 5.27.26 7.6-.05 9.92-1.29 22.4-2.69 34.16-3.87 2.16-.22 4.49-.31 6.62.06"/></g></g></g><g id="kvg:05ce1-g9" kvg:element="大" kvg:part="2"><path id="kvg:05ce1-s8" kvg:type="㇒" d="M63.08 12.75c1.02 1.02 1.16 2.41 1.17 4.83.13 46.17-1.37 59.29-29.49 76.92"/><path id="kvg:05ce1-s9" kvg:type="㇏" d="M63.5 60.25C69 67.12 78.25 78 86.81 86.78c2.64 2.71 5.5 4.92 7.26 6.22"/></g></g></g></g></svg>