<svg xmlns="http://www.w3.org/2000/svg" width="109" height="109" viewBox="0 0 109 109"><g id="kvg:StrokePaths_05cea" style="fill:none;stroke:#000000;stroke-width:3;stroke-linecap:round;stroke-linejoin:round;"><g id="kvg:05cea" kvg:element="峪"><g id="kvg:05cea-g1" kvg:element="山" kvg:position="left" kvg:radical="general"><path id="kvg:05cea-s1" kvg:type="㇑a" d="M22.92 21c.54.32 1.79 2.39 1.79 3.04.0 6.7.23 35 .23 43.61"/><path id="kvg:05cea-s2" kvg:type="㇄a" d="M12.79 43.89c.59.35 1.23 1.84 1.18 2.56-.33 4.9-.33 14.65-1.51 22.03-.26 1.6.17 1.97 1.62 1.61 8.22-2.05 11-2.49 20.99-4.54"/><path id="kvg:05cea-s3" kvg:type="㇑" d="M35.82 40.02c.59.35 1.18 2.63 1.18 3.34.0 5.51-1.82 16.61-1.82 25.54"/></g><g id="kvg:05cea-g2" kvg:element="谷" kvg:position="right"><g id="kvg:05cea-g3" kvg:position="top"><path id="kvg:05cea-s4" kvg:type="㇒" d="M57.23 17.48c.03.45.07 1.16-.06 1.8C56.4 23.07 51.97 31.4 45.9 36.5"/><path id="kvg:05cea-s5" kvg:type="㇔" d="M76.83 16.83C82.35 20.69 89.09 28.05 90.98 32"/></g><g id="kvg:05cea-g4" kvg:position="bottom"><path id="kvg:05cea-s6" kvg:type="㇒" d="M68.62 30.25c.07.76.32 2.05-.14 3.07-3.86 8.62-12.63 21.01-24.32 29.43"/><path id="kvg:05cea-s7" kvg:type="㇏" d="M68.21 33.83c6.93 7.63 19.82 18.52 26.16 22.57 1.57 1 3.39 1.66 4.88 1.99"/><g id="kvg:05cea-g5" kvg:element="口"><path id="kvg:05cea-s8" kvg:type="㇑" d="M51.59 66.91c.41.47.82.86 1 1.45 1.41 4.65 3.1 16.99 4.06 25.34"/><path id="kvg:05cea-s9" kvg:type="㇕b" d="M53.5 69.36c11.09-2.15 24.09-3.22 30.89-4.15 2.32-.32 3.74 2.13 3.38 3.52-1.69 6.65-2.95 12.61-4.51 20.77"/><path id="kvg:05cea-s10" kvg:type="㇐b" d="M56.74 91.84c8.93-.64 17.61-1.59 29.25-2.34"/></g></g></g></g></g></svg>