<!DOCTYPE svg PUBLIC "-//W3C//DTD SVG 1.0//EN" "http://www.w3.org/TR/2001/REC-SVG-20010904/DTD/svg10.dtd" [
<!ATTLIST g
xmlns:kvg CDATA #FIXED "http://kanjivg.tagaini.net"
kvg:element CDATA #IMPLIED
kvg:variant CDATA #IMPLIED
kvg:partial CDATA #IMPLIED
kvg:original CDATA #IMPLIED
kvg:part CDATA #IMPLIED
kvg:number CDATA #IMPLIED
kvg:tradForm CDATA #IMPLIED
kvg:radicalForm CDATA #IMPLIED
kvg:position CDATA #IMPLIED
kvg:radical CDATA #IMPLIED
kvg:phon CDATA #IMPLIED >
<!ATTLIST path
xmlns:kvg CDATA #FIXED "http://kanjivg.tagaini.net"
kvg:type CDATA #IMPLIED >
]><svg xmlns="http://www.w3.org/2000/svg" width="109" height="109" viewBox="0 0 109 109"><g id="kvg:StrokePaths_05cef" style="fill:none;stroke:#000000;stroke-width:3;stroke-linecap:round;stroke-linejoin:round;"><g id="kvg:05cef" kvg:element="峯"><g id="kvg:05cef-g1" kvg:element="山" kvg:position="top" kvg:radical="general"><path id="kvg:05cef-s1" kvg:type="㇑a" d="M52.01 8.38c.56.33 1.75 2.48 1.86 3.15.11.66-.07 9.08-.18 13.23"/><path id="kvg:05cef-s2" kvg:type="㇄a" d="M26.93 12.75c.56.33 1.12 1.73 1.12 2.41.0 2.59-1.3 6.84-2.59 10.76-.48 1.45.83 2.6 2.11 2.28 11.68-2.95 47.83-4.92 52.85-5.05"/><path id="kvg:05cef-s3" kvg:type="㇑" d="M82.52 9.62c.56.33 1.21 2.48 1.12 3.15C83.09 16.84 82 23 81.11 26.96"/></g><g id="kvg:05cef-g2" kvg:element="夆" kvg:position="bottom"><g id="kvg:05cef-g3" kvg:element="夂"><path id="kvg:05cef-s4" kvg:type="㇒" d="M47.3 29c.07.45.13 1.16-.13 1.8C45.62 34.6 36.7 42.94 24.5 48.05"/><path id="kvg:05cef-s5" kvg:type="㇇" d="M45.72 35.84c.29.03 1.5.0 2.31-.08 2.67-.26 14.71-2.96 18.52-3.77 2.61-.56 3.36.63 2.69 2.15C65.58 42.42 37.75 57.5 15 61.75"/><path id="kvg:05cef-s6" kvg:type="㇏" d="M38.78 40.81c7.47.94 38.34 14.11 47.68 16.89 2.79.83 5.04 1.23 7.75 1.48"/></g><g id="kvg:05cef-g4" kvg:element="丰"><g id="kvg:05cef-g5" kvg:element="三"><g id="kvg:05cef-g6" kvg:element="一" kvg:position="top"><path id="kvg:05cef-s7" kvg:type="㇐" d="M34.3 63.95c1.05.34 2.99.42 4.04.34 12.18-.93 22.94-2.07 33.1-2.97 1.74-.15 2.81.16 3.69.33"/></g><g id="kvg:05cef-g7" kvg:position="bottom"><g id="kvg:05cef-g8" kvg:element="一"><path id="kvg:05cef-s8" kvg:type="㇐" d="M30.3 74.89c1.13.42 3.19.52 4.32.42 13.02-1.15 29.2-2.06 40.07-3.18 1.86-.19 3 .2 3.94.41"/></g><g id="kvg:05cef-g9" kvg:element="一"><path id="kvg:05cef-s9" kvg:type="㇐" d="M25.8 86.8c1.45.54 4.11.62 5.56.54 16.96-.98 34.44-2.43 49.93-3.37 2.41-.15 3.87.26 5.08.53"/></g></g></g><g id="kvg:05cef-g10" kvg:element="丨"><path id="kvg:05cef-s10" kvg:type="㇑" d="M52.58 54.44c.67.34 2.21 1.96 2.21 3.25.0 7.17.28 35.2.28 44.4"/></g></g></g></g></g><g id="kvg:StrokeNumbers_05cef" style="font-size:8;fill:#808080"><text transform="matrix(1 0 0 1 44.50 8.50)">1</text><text transform="matrix(1 0 0 1 19.85 12.50)">2</text><text transform="matrix(1 0 0 1 73.50 9.85)">3</text><text transform="matrix(1 0 0 1 35.44 35.50)">4</text><text transform="matrix(1 0 0 1 52.50 32.50)">5</text><text transform="matrix(1 0 0 1 50.50 42.50)">6</text><text transform="matrix(1 0 0 1 27.50 66.50)">7</text><text transform="matrix(1 0 0 1 23.50 75.50)">8</text><text transform="matrix(1 0 0 1 18.50 88.50)">9</text><text transform="matrix(1 0 0 1 44.50 59.50)">10</text></g></svg>