<!DOCTYPE svg PUBLIC "-//W3C//DTD SVG 1.0//EN" "http://www.w3.org/TR/2001/REC-SVG-20010904/DTD/svg10.dtd" [
<!ATTLIST g
xmlns:kvg CDATA #FIXED "http://kanjivg.tagaini.net"
kvg:element CDATA #IMPLIED
kvg:variant CDATA #IMPLIED
kvg:partial CDATA #IMPLIED
kvg:original CDATA #IMPLIED
kvg:part CDATA #IMPLIED
kvg:number CDATA #IMPLIED
kvg:tradForm CDATA #IMPLIED
kvg:radicalForm CDATA #IMPLIED
kvg:position CDATA #IMPLIED
kvg:radical CDATA #IMPLIED
kvg:phon CDATA #IMPLIED >
<!ATTLIST path
xmlns:kvg CDATA #FIXED "http://kanjivg.tagaini.net"
kvg:type CDATA #IMPLIED >
]><svg xmlns="http://www.w3.org/2000/svg" width="109" height="109" viewBox="0 0 109 109"><g id="kvg:StrokePaths_05ce8" style="fill:none;stroke:#000000;stroke-width:3;stroke-linecap:round;stroke-linejoin:round;"><g id="kvg:05ce8" kvg:element="峨"><g id="kvg:05ce8-g1" kvg:element="山" kvg:position="left" kvg:radical="general"><path id="kvg:05ce8-s1" kvg:type="㇑a" d="M23 23.75c.81.81 1.04 2.25 1.04 3.6.0 6.85-.02 31.99-.02 40.78"/><path id="kvg:05ce8-s2" kvg:type="㇄a" d="M12.54 43.49c.61.61.69 1.88.69 2.61.0 4.98-.08 13.81-.62 21.77-.27 3.96.64 4.59 2.86 3.81 8.41-2.94 9.91-3.44 19.46-6.71"/><path id="kvg:05ce8-s3" kvg:type="㇑" d="M34.62 38.91c.8.8 1.19 1.97 1.19 3.41.0 3.9-.03 12.4-.04 20.18-.01 3.47-.01 6.79-.01 9.5"/></g><g id="kvg:05ce8-g2" kvg:element="我" kvg:position="right"><g id="kvg:05ce8-g3" kvg:element="丿"><path id="kvg:05ce8-s4" kvg:type="㇒" d="M63.05 16.71c-.05 1.17-.6 1.98-1.24 2.67-3.56 3.87-7.81 7.49-18.22 13.11"/></g><g id="kvg:05ce8-g4" kvg:element="戈" kvg:part="1"><g id="kvg:05ce8-g5" kvg:element="弋" kvg:part="1"><path id="kvg:05ce8-s5" kvg:type="㇐" d="M42.72 44.51c2.77 1.1 6.84.36 9.66-.1 8.11-1.33 21.73-3.97 33.12-4.9 2.99-.25 6.67-.36 9.59.33"/></g></g><g id="kvg:05ce8-g6" kvg:element="亅"><path id="kvg:05ce8-s6" kvg:type="㇚" d="M56.19 29.04c1.14 1.14 1.3 2.59 1.3 4.58.0 14.73-.19 50.23-.21 55.24-.04 9.39-5.03 2.89-7.1.75"/></g><path id="kvg:05ce8-s7" kvg:type="㇀" d="M42.23 71.45c1.9 1.43 3.7.97 5.46-.51 1.69-1.43 13.52-10.21 17.87-14.45"/><g id="kvg:05ce8-g7" kvg:element="戈" kvg:part="2"><path id="kvg:05ce8-s8" kvg:type="㇂" d="M71.8 11.5c1.1 1.84 1.47 3.08 1.54 7.04C73.89 51 79 82.25 91.91 94.67c4.09 3.93 3.71.79 3.16-7.34"/><g id="kvg:05ce8-g8" kvg:element="丿"><path id="kvg:05ce8-s9" kvg:type="㇒" d="M89.83 49.08c-.05 1.41-.37 2.73-.97 3.97-3.98 7.08-10.6 17.58-23.44 30.25"/></g><g id="kvg:05ce8-g9" kvg:element="弋" kvg:part="2"><g id="kvg:05ce8-g10" kvg:element="丶"><path id="kvg:05ce8-s10" kvg:type="㇔" d="M83.05 18.82c2.7 2.27 7.01 7.47 8.27 11.36"/></g></g></g></g></g></g><g id="kvg:StrokeNumbers_05ce8" style="font-size:8;fill:#808080"><text transform="matrix(1 0 0 1 14.50 22.50)">1</text><text transform="matrix(1 0 0 1 3.44 43.50)">2</text><text transform="matrix(1 0 0 1 29.44 35.50)">3</text><text transform="matrix(1 0 0 1 54.50 16.50)">4</text><text transform="matrix(1 0 0 1 40.50 41.50)">5</text><text transform="matrix(1 0 0 1 49.50 38.50)">6</text><text transform="matrix(1 0 0 1 40.50 67.50)">7</text><text transform="matrix(1 0 0 1 65.50 7.50)">8</text><text transform="matrix(1 0 0 1 81.44 50.50)">9</text><text transform="matrix(1 0 0 1 78.50 16.50)">10</text></g></svg>