<svg xmlns="http://www.w3.org/2000/svg" width="109" height="109" viewBox="0 0 109 109"><g id="kvg:StrokePaths_05cf0" style="fill:none;stroke:#000000;stroke-width:3;stroke-linecap:round;stroke-linejoin:round;"><g id="kvg:05cf0" kvg:element="峰"><g id="kvg:05cf0-g1" kvg:element="山" kvg:position="left" kvg:radical="general"><path id="kvg:05cf0-s1" kvg:type="㇑a" d="M23.83 22c.96.96 1.21 2 1.21 3.99.0 8.26.03 27.51.03 38.11"/><path id="kvg:05cf0-s2" kvg:type="㇄a" d="M12.04 43.65c1.03 1.03 1.08 2.23 1.08 3.86.0 5.5-.25 10.87-1.2 20-.19 1.81.25 2.38 1.82 1.8 8.26-3.06 12.76-4.56 21.51-7.56"/><path id="kvg:05cf0-s3" kvg:type="㇑" d="M36.22 39.83c1.04 1.04 1.15 2.04 1.08 3.74-.21 4.89-.5 9.68-1.02 16.93-.14 1.9-.27 3.96-.4 6.25"/></g><g id="kvg:05cf0-g2" kvg:element="夆" kvg:position="right"><g id="kvg:05cf0-g3" kvg:element="夂" kvg:position="top"><path id="kvg:05cf0-s4" kvg:type="㇒" d="M59.81 10.5c.05.58-.23 1.56-.6 2.34-2.71 5.78-7.7 15.53-16.96 22.17"/><path id="kvg:05cf0-s5" kvg:type="㇇" d="M59.22 18.7c1.26.15 2.7-.13 3.92-.39 3.77-.8 11.17-3.14 14.41-4 2.61-.69 3.5 1.09 2.69 2.9C75.5 27.88 60.25 45.88 43.28 52.25"/><path id="kvg:05cf0-s6" kvg:type="㇏" d="M53.03 26.07c5.22 2.77 21.84 12.34 31.9 17.29 3.34 1.65 6.78 3.39 10.28 4.66"/></g><g id="kvg:05cf0-g4" kvg:element="丰" kvg:position="bottom" kvg:phon="丰"><g id="kvg:05cf0-g5" kvg:element="三"><g id="kvg:05cf0-g6" kvg:element="一" kvg:position="top"><path id="kvg:05cf0-s7" kvg:type="㇐" d="M52.8 56.65c1.54.71 4.06.52 5.69.33 7.6-.88 14.49-2.1 21.02-2.99 1.36-.18 3.24-.75 4.61-.37"/></g><g id="kvg:05cf0-g7" kvg:position="bottom"><g id="kvg:05cf0-g8" kvg:element="一"><path id="kvg:05cf0-s8" kvg:type="㇐" d="M51.8 68.9c1.46.67 3.88.54 5.45.36 8.16-.9 17.38-2.14 24.38-3.04 1.48-.19 3.03-.51 4.5-.1"/></g><g id="kvg:05cf0-g9" kvg:element="一"><path id="kvg:05cf0-s9" kvg:type="㇐" d="M40.55 83c3.2.75 5.81.74 8.45.37 13.23-1.85 26.87-3.37 40.25-3.98 2.55-.12 5.17-.04 7.63.63"/></g></g></g><g id="kvg:05cf0-g10" kvg:element="丨"><path id="kvg:05cf0-s10" kvg:type="㇑" d="M67.08 46c.9.9 1.21 2.25 1.21 3.74.0 6.97-.05 31.05.01 44.76.01 2.53.02 4.7.02 6.35"/></g></g></g></g></g></svg>