<svg xmlns="http://www.w3.org/2000/svg" width="109" height="109" viewBox="0 0 109 109"><g id="kvg:StrokePaths_05cfa" style="fill:none;stroke:#000000;stroke-width:3;stroke-linecap:round;stroke-linejoin:round;"><g id="kvg:05cfa" kvg:element="峺"><g id="kvg:05cfa-g1" kvg:element="山" kvg:position="left" kvg:radical="general"><path id="kvg:05cfa-s1" kvg:type="㇑a" d="M24.6 17.25c.63.35 2.09 2.62 2.09 3.33.0 7.36.26 41.88.26 51.32"/><path id="kvg:05cfa-s2" kvg:type="㇄a" d="M12.79 47.83c.69.39 1.44 2.02 1.38 2.8-.39 5.38-.37 14.58-1.75 22.67-.3 1.76.2 2.16 1.89 1.77 9.6-2.25 13.97-2.73 25.63-4.97"/><path id="kvg:05cfa-s3" kvg:type="㇑" d="M40.17 42.55c.69.39 1.38 2.88 1.38 3.67.0 6.05-.8 16.29-1.45 26.07"/></g><g id="kvg:05cfa-g2" kvg:element="更" kvg:position="right"><path id="kvg:05cfa-s4" kvg:type="㇐" d="M46.82 18.65c.97.48 2.75.61 3.71.48 6.17-.83 27.08-3.46 36.91-3.6 1.62-.02 2.58.23 3.39.47"/><g id="kvg:05cfa-g3" kvg:element="日"><path id="kvg:05cfa-s5" kvg:type="㇑" d="M47.23 31.91c.52.76 1.05 1.7 1.05 2.72s3.64 25.11 3.81 26.12"/><path id="kvg:05cfa-s6" kvg:type="㇕a" d="M49.15 33.14c2.96-.13 37.24-3.75 39.93-3.9 2.25-.13 3.54 1.16 2.89 4.97-1.02 5.99-1.46 10.48-4.48 23.75"/><path id="kvg:05cfa-s7" kvg:type="㇐a" d="M50.12 45.78c7.44-1.3 34.18-3.84 38.71-3.84"/><path id="kvg:05cfa-s8" kvg:type="㇐a" d="M52.27 58.89c11.52-1.55 23.23-2.64 35.47-3.08"/></g><g id="kvg:05cfa-g4" kvg:element="乂"><g id="kvg:05cfa-g5" kvg:element="丿"><path id="kvg:05cfa-s9" kvg:type="㇒" d="M68.75 20c.75 1.5.71 2.75.71 4.93.0 34.57-.71 61.57-30.46 73.61"/></g><path id="kvg:05cfa-s10" kvg:type="㇏" d="M49.72 67.75C57.25 70 78 89.25 92.32 94.67c2.6.98 4.5 1.95 6.93 2.33"/></g></g></g></g></svg>