<svg xmlns="http://www.w3.org/2000/svg" width="109" height="109" viewBox="0 0 109 109"><g id="kvg:StrokePaths_05d16"><g id="kvg:05d16" kvg:element="崖"><g id="kvg:05d16-g1" kvg:element="山" kvg:position="top" kvg:radical="general"><path id="kvg:05d16-s1" kvg:type="㇑a" d="M54.76 9.88c.93.93 1.11 2.24 1.11 3.65.0 4.72-.12 8.6-.12 12.85"/><path id="kvg:05d16-s2" kvg:type="㇄a" d="M31.43 17.75c.72.72.95 2 .62 3.41-.85 3.69-1.23 3.85-2.25 7.15-.93 2.98.1 3.73 3.47 3.01 7.03-1.5 26.55-4.89 47.66-5.67"/><path id="kvg:05d16-s3" kvg:type="㇑" d="M82.77 13.12c.73 1.25.6 2.62.37 3.9-.74 4.04-1.64 7.98-2.54 11.94"/></g><g id="kvg:05d16-g2" kvg:element="厓" kvg:position="bottom"><g id="kvg:05d16-g3" kvg:element="厂"><path id="kvg:05d16-s4" kvg:type="㇐" d="M28.92 41.23c3.58.77 7.19.28 10.97-.26 12.23-1.73 23.85-3.2 34.48-4.16 3.36-.3 7.26-.32 9.76.29"/><path id="kvg:05d16-s5" kvg:type="㇒" d="M32.15 42.32c.83.83 1.04 2.33.9 4.19C31.5 68 29 82.25 16 96.33"/></g><g id="kvg:05d16-g4" kvg:element="圭"><g id="kvg:05d16-g5" kvg:element="土" kvg:position="top"><path id="kvg:05d16-s6" kvg:type="㇐" d="M41.2 54.19c2.16.37 4.34.41 6.53.1 7.59-.82 17.77-1.77 25.27-2.23 1.94-.28 3.87-.24 5.79.12"/><path id="kvg:05d16-s7" kvg:type="㇑a" d="M58.11 44.63c.75.75 1.23 2.17 1.23 3.61.0 4.51-.19 11.1-.19 16.92"/><path id="kvg:05d16-s8" kvg:type="㇐" d="M36.62 67.75c3.12.61 6.25.42 9.38-.07 9.43-1.3 21.89-2.16 31.01-2.64 3.08-.38 6.14-.29 9.19.29"/></g><g id="kvg:05d16-g6" kvg:element="土" kvg:position="bottom"><path id="kvg:05d16-s9" kvg:type="㇐" d="M39.09 82.46c2.39.36 4.76.17 7.17-.14 9.37-1.2 19.62-1.95 28.36-2.54 2.09-.14 4.37-.19 6.38.37"/><path id="kvg:05d16-s10" kvg:type="㇑a" d="M58.46 71.84c.81.81 1.04 1.92 1.04 3.53.0 2.14.0 14.12.0 19.7"/><path id="kvg:05d16-s11" kvg:type="㇐" d="M28.3 96.76c3.39.5 6.78.78 10.18.33 14.42-1.37 31.77-2.22 44.9-2.8 3.54-.16 7.12.33 10.57.97"/></g></g></g></g></g></svg>