<svg xmlns="http://www.w3.org/2000/svg" width="109" height="109" viewBox="0 0 109 109"><g id="kvg:StrokePaths_05d19" style="fill:none;stroke:#000000;stroke-width:3;stroke-linecap:round;stroke-linejoin:round;"><g id="kvg:05d19" kvg:element="崙"><g id="kvg:05d19-g1" kvg:element="山" kvg:position="top" kvg:radical="general"><path id="kvg:05d19-s1" kvg:type="㇑a" d="M52.51 9.88c.56.33 1.75 2.48 1.86 3.15.11.66-.07 11.08-.18 15.23"/><path id="kvg:05d19-s2" kvg:type="㇄a" d="M25.93 16.25c.56.33 1.12 1.73 1.12 2.41.0 2.59-.3 6.84-1.59 10.76-.48 1.45.84 2.63 2.11 2.28 8.68-2.45 51.83-5.42 56.85-5.55"/><path id="kvg:05d19-s3" kvg:type="㇑" d="M84.02 14.12c.56.33 1.21 2.48 1.12 3.15-.56 4.07-.39 8.73-.54 13.19"/></g><g id="kvg:05d19-g2" kvg:element="侖" kvg:position="bottom"><g id="kvg:05d19-g3" kvg:element="人" kvg:position="top"><path id="kvg:05d19-s4" kvg:type="㇒" d="M52.4 32c.11.73.47 2.03-.21 2.94C46.75 42.25 34.25 54 14.91 63"/><path id="kvg:05d19-s5" kvg:type="㇏" d="M53.14 34.36c7.04 4.09 29.63 19.83 35.58 23.23 2.02 1.16 4.61 1.65 6.62 1.98"/></g><g id="kvg:05d19-g4" kvg:position="bottom"><g id="kvg:05d19-g5" kvg:element="一"><path id="kvg:05d19-s6" kvg:type="㇐" d="M41.06 54.46c.71.28 2 .36 2.7.28 4.49-.49 16.82-2.25 21.87-2.52 1.17-.06 1.88.13 2.47.28"/></g><g id="kvg:05d19-g6" kvg:element="冊"><g id="kvg:05d19-g7" kvg:element="冂"><path id="kvg:05d19-s7" kvg:type="㇑" d="M28.67 63.81c.6.58.8 1.49.8 2.54.0 7.65.41 25.4.41 31.65"/><path id="kvg:05d19-s8" kvg:type="㇆a" d="M29.47 65.47c7.61-.46 46.98-3.84 48.48-4 3.21-.35 4.37 2.43 4.41 3.58.17 6.18-.27 16.45-.27 25.87.0 7.58-3.09 7.08-6.71 1.89"/></g><g id="kvg:05d19-g8" kvg:element="廾" kvg:variant="true"><g id="kvg:05d19-g9" kvg:element="十" kvg:part="1" kvg:variant="true"><path id="kvg:05d19-s9" kvg:type="㇐" d="M29.7 78.96c6.1-.4 46.78-3.37 51.07-3.57"/></g><g id="kvg:05d19-g10" kvg:element="丿" kvg:variant="true"><path id="kvg:05d19-s10" kvg:type="㇑" d="M47.29 65.54c.45.73.76 1.58.79 3.98.18 11.54-.01 21.96-.01 25.89"/></g><g id="kvg:05d19-g11" kvg:element="十" kvg:part="2" kvg:variant="true"><path id="kvg:05d19-s11" kvg:type="㇑" d="M62.5 63.66c.56.73.94 1.58.99 3.98.23 11.54-.01 23.94-.01 27.88"/></g></g></g></g></g></g></g></svg>