<svg xmlns="http://www.w3.org/2000/svg" width="109" height="109" viewBox="0 0 109 109"><g id="kvg:StrokePaths_05d4c"><g id="kvg:05d4c" kvg:element="嵌"><g id="kvg:05d4c-g1" kvg:element="山" kvg:position="top" kvg:radical="general"><path id="kvg:05d4c-s1" kvg:type="㇑a" d="M52.51 11.38c.56.33 1.75 2.48 1.86 3.15.11.66-.07 9.58-.18 13.73"/><path id="kvg:05d4c-s2" kvg:type="㇄a" d="M25.93 18.75c.56.33 1.12 1.73 1.12 2.41.0 2.59-.3 4.84-1.59 8.76-.48 1.45.82 2.54 2.11 2.28 16.93-3.45 51.33-4.92 56.35-5.05"/><path id="kvg:05d4c-s3" kvg:type="㇑" d="M84.02 15.62c.56.33 1.21 2.48 1.12 3.15-.56 4.07-.64 7.23-1.54 11.19"/></g><g id="kvg:05d4c-g2" kvg:position="bottom"><g id="kvg:05d4c-g3" kvg:element="甘" kvg:position="left"><g id="kvg:05d4c-g4" kvg:element="廿" kvg:part="1"><g id="kvg:05d4c-g5" kvg:element="十"><path id="kvg:05d4c-s4" kvg:type="㇐" d="M9.92 55.75c1.09.49 3.08.61 4.16.49 8-.89 22.83-3.4 35.94-4.58 1.81-.16 2.9.23 3.8.48"/><path id="kvg:05d4c-s5" kvg:type="㇑" d="M22.03 43.24c.81.36 1.3 1.62 1.46 2.34s0 46.66-.16 51.17"/></g><path id="kvg:05d4c-s6" kvg:type="㇑" d="M40.95 39.75c.81.36 1.3 1.62 1.46 2.34.16.72.0 48.92-.16 53.43"/></g><path id="kvg:05d4c-s7" kvg:type="㇐" d="M24 72.52c4.16-.25 15.87-1.93 18.11-1.93"/><g id="kvg:05d4c-g6" kvg:element="廿" kvg:part="2"><path id="kvg:05d4c-s8" kvg:type="㇐" d="M24 94.09c6.75-1.09 13.45-1.76 17.92-1.94"/></g></g><g id="kvg:05d4c-g7" kvg:element="欠" kvg:position="right"><g id="kvg:05d4c-g8" kvg:position="top"><path id="kvg:05d4c-s9" kvg:type="㇒" d="M66.75 35.75c.04.65.08 1.68-.08 2.62-.97 5.52-6.54 17.64-14.17 25.06"/><path id="kvg:05d4c-s10" kvg:type="㇖a" d="M65.76 48.13c.77.29 2.24.75 3.4.49 1.42-.31 16.39-3.52 17.74-3.68 6.79-.8-2.13 8.27-3.55 9.79"/></g><g id="kvg:05d4c-g9" kvg:position="bottom"><path id="kvg:05d4c-s11" kvg:type="㇒" d="M69.59 56.13c.06.95.14 2.43-.12 3.8C66.99 73.17 62.2 86.83 48.5 96.3"/><path id="kvg:05d4c-s12" kvg:type="㇏" d="M68.37 67.02c3.81 6.2 17.55 20.78 23.81 25.91 1.32 1.08 2.32 1.72 3.57 2.07"/></g></g></g></g></g></svg>