<svg xmlns="http://www.w3.org/2000/svg" width="109" height="109" viewBox="0 0 109 109"><g id="kvg:StrokePaths_05d5c" style="fill:none;stroke:#000000;stroke-width:3;stroke-linecap:round;stroke-linejoin:round;"><g id="kvg:05d5c" kvg:element="嵜"><g id="kvg:05d5c-g1" kvg:element="山" kvg:position="top" kvg:radical="general"><path id="kvg:05d5c-s1" kvg:type="㇑a" d="M52.01 10.38c.56.33 1.75 2.48 1.86 3.15.11.66-.07 9.58-.18 13.73"/><path id="kvg:05d5c-s2" kvg:type="㇄a" d="M25.93 19.25c.56.33 1.12 1.73 1.12 2.41.0 2.59-.8 3.34-2.09 7.26-.48 1.45.84 2.63 2.11 2.28 6.93-1.95 40.18-5.7 55.85-5.55"/><path id="kvg:05d5c-s3" kvg:type="㇑" d="M83.02 14.12c.56.33 1.21 2.48 1.12 3.15C83.59 21.34 83 26 82.11 29.96"/></g><g id="kvg:05d5c-g2" kvg:element="竒" kvg:position="bottom"><g id="kvg:05d5c-g3" kvg:element="立" kvg:partial="true" kvg:position="top"><g id="kvg:05d5c-g4" kvg:element="亠" kvg:position="top"><path id="kvg:05d5c-s4" kvg:type="㇑a" d="M52.25 32.5c1.24.93 1.86.93 1.86 3.1s0 1.62.0 7.5"/><path id="kvg:05d5c-s5" kvg:type="㇐" d="M29.16 45.15c1.36.36 2.95.41 4.3.36 7.65-.31 29.81-3.85 41.38-4.11 2.26-.05 3.62.17 4.75.35"/></g><g id="kvg:05d5c-g5" kvg:position="bottom"><path id="kvg:05d5c-s6" kvg:type="㇔" d="M38.5 51.75c4.53 3.54 6.59 7.17 7 9.5"/><path id="kvg:05d5c-s7" kvg:type="㇒" d="M67.51 46c.72.5.46 1.85.28 2.24C66.25 51.56 62.44 57.84 61 60"/></g></g><g id="kvg:05d5c-g6" kvg:element="可" kvg:position="bottom"><g id="kvg:05d5c-g7" kvg:element="丁" kvg:part="1"><g id="kvg:05d5c-g8" kvg:element="一"><path id="kvg:05d5c-s8" kvg:type="㇐" d="M16.25 66.21c2.06.47 4.48.65 6.52.47 22.43-2.03 40.79-5.02 66.77-5.98 3.43-.13 5.49.22 7.21.46"/></g></g><g id="kvg:05d5c-g9" kvg:element="口"><path id="kvg:05d5c-s9" kvg:type="㇑" d="M33.75 75.41c.22.26.45.48.55.81.77 2.59 2.35 9.62 2.88 14.28"/><path id="kvg:05d5c-s10" kvg:type="㇕b" d="M35.14 76.17c4.69-.85 18.93-2.85 21.54-3.19.95-.12 1.53.74 1.39 1.47-.57 3.03-1.6 6.84-2.44 11.03"/><path id="kvg:05d5c-s11" kvg:type="㇐b" d="M37.28 87.89c3.07-.39 15.6-1.44 19.81-2.04"/></g><g id="kvg:05d5c-g10" kvg:element="丁" kvg:part="2"><g id="kvg:05d5c-g11" kvg:element="亅"><path id="kvg:05d5c-s12" kvg:type="㇚" d="M73.02 64.85C74 66 74.59 67.6 74.59 69c0 10.5.17 20.35.17 24.96.0 10.39-7.21 1.5-8.71.25"/></g></g></g></g></g></g></svg>