<!DOCTYPE svg PUBLIC "-//W3C//DTD SVG 1.0//EN" "http://www.w3.org/TR/2001/REC-SVG-20010904/DTD/svg10.dtd" [
<!ATTLIST g
xmlns:kvg CDATA #FIXED "http://kanjivg.tagaini.net"
kvg:element CDATA #IMPLIED
kvg:variant CDATA #IMPLIED
kvg:partial CDATA #IMPLIED
kvg:original CDATA #IMPLIED
kvg:part CDATA #IMPLIED
kvg:number CDATA #IMPLIED
kvg:tradForm CDATA #IMPLIED
kvg:radicalForm CDATA #IMPLIED
kvg:position CDATA #IMPLIED
kvg:radical CDATA #IMPLIED
kvg:phon CDATA #IMPLIED >
<!ATTLIST path
xmlns:kvg CDATA #FIXED "http://kanjivg.tagaini.net"
kvg:type CDATA #IMPLIED >
]><svg xmlns="http://www.w3.org/2000/svg" width="109" height="109" viewBox="0 0 109 109"><g id="kvg:StrokePaths_05dac" style="fill:none;stroke:#000000;stroke-width:3;stroke-linecap:round;stroke-linejoin:round;"><g id="kvg:05dac" kvg:element="嶬"><g id="kvg:05dac-g1" kvg:element="山" kvg:position="left" kvg:radical="general"><path id="kvg:05dac-s1" kvg:type="㇑a" d="M22.06 23.25c.57.33 1.9 2.45 1.9 3.11.0 6.87.24 32.9.24 41.72"/><path id="kvg:05dac-s2" kvg:type="㇄a" d="M11.27 45.71c.63.36 1.31 1.89 1.26 2.62-.35 5.03.15 14.03-1.11 21.59-.27 1.64.21 2.11 1.72 1.65 7.61-2.32 12.77-4.06 23.42-6.15"/><path id="kvg:05dac-s3" kvg:type="㇑" d="M35.79 40.75c.63.36 1.26 2.69 1.26 3.43.0 5.65-.37 18.04-.37 27.19"/></g><g id="kvg:05dac-g2" kvg:element="義" kvg:position="right"><g id="kvg:05dac-g3" kvg:element="羊" kvg:variant="true" kvg:position="top"><g id="kvg:05dac-g4" kvg:element="䒑"><path id="kvg:05dac-s4" kvg:type="㇔" d="M53.8 11.07c2.27 1.19 5.87 4.87 6.44 6.72"/><path id="kvg:05dac-s5" kvg:type="㇒" d="M78.33 9.14c.02.23.03.6-.03.93-.4 1.96-2.67 6.25-5.78 8.88"/><path id="kvg:05dac-s6" kvg:type="㇐" d="M50.06 23.1c.8.2 2.26.26 3.06.2 9.76-.64 25.67-2.65 32.86-2.57 1.33.01 2.13.1 2.79.2"/></g><path id="kvg:05dac-s7" kvg:type="㇑a" d="M67.53 23.96c.68.3 1.08 1.36 1.22 1.97s0 12.21-.14 16"/><path id="kvg:05dac-s8" kvg:type="㇐" d="M53.8 32.99c.84.23 2.38.27 3.24.23 4.97-.22 19.59-2.9 27.2-2.81 1.41.02 2.25.11 2.96.23"/><path id="kvg:05dac-s9" kvg:type="㇐" d="M47.03 43.57c1.16.33 3.29.38 4.46.33 9.99-.4 27.4-2.94 40.17-3.61 1.94-.1 3.11.16 4.08.32"/></g><g id="kvg:05dac-g5" kvg:element="我" kvg:position="bottom"><g id="kvg:05dac-g6" kvg:element="丿"><path id="kvg:05dac-s10" kvg:type="㇒" d="M61.52 48.37c.04.24.16.66-.08.97-1.9 2.44-6.37 6.1-14.44 9.26"/></g><g id="kvg:05dac-g7" kvg:element="戈" kvg:part="1"><g id="kvg:05dac-g8" kvg:element="弋" kvg:part="1"><path id="kvg:05dac-s11" kvg:type="㇐" d="M43.22 64c1.31.35 3.74.51 5.03.35 5.32-.68 31.59-4.81 46.18-5.58 2.18-.12 3.5.16 4.6.34"/></g></g><g id="kvg:05dac-g9" kvg:element="亅"><path id="kvg:05dac-s12" kvg:type="㇚" d="M58.01 56.65c.07.28.89 1.47.95 3.27.3 8.62-.19 30.22-.19 33.15.0 2.98-1.15 3.57-2.99 2.37-1.43-.93-2.46-1.48-3.59-2.22"/></g><path id="kvg:05dac-s13" kvg:type="㇀" d="M42.91 81.08c1.34.67 3.28.81 4.97-.06 1-.51 13.69-7.15 17.94-9.6"/><g id="kvg:05dac-g10" kvg:element="戈" kvg:part="2"><path id="kvg:05dac-s14" kvg:type="㇂" d="M73.06 46.74c.96 1.05 1.34 1.35 1.57 3.6 1.92 18.91 9.96 37.16 21.07 44.98 3.81 2.68 3.25.45 2.77-4.2"/><g id="kvg:05dac-g11" kvg:element="丿"><path id="kvg:05dac-s15" kvg:type="㇒" d="M88.36 65.12c.06.61.12 1.58-.12 2.46-1.42 5.19-9.25 17.16-20.4 24.13"/></g><g id="kvg:05dac-g12" kvg:element="弋" kvg:part="2"><g id="kvg:05dac-g13" kvg:element="丶"><path id="kvg:05dac-s16" kvg:type="㇔" d="M84.69 45.84c1.88 1.27 4.87 4.18 5.75 6.36"/></g></g></g></g></g></g></g><g id="kvg:StrokeNumbers_05dac" style="font-size:8;fill:#808080"><text transform="matrix(1 0 0 1 13.50 22.50)">1</text><text transform="matrix(1 0 0 1 2.50 44.85)">2</text><text transform="matrix(1 0 0 1 28.71 39.50)">3</text><text transform="matrix(1 0 0 1 47.50 12.50)">4</text><text transform="matrix(1 0 0 1 69.50 9.50)">5</text><text transform="matrix(1 0 0 1 42.50 23.50)">6</text><text transform="matrix(1 0 0 1 61.50 29.50)">7</text><text transform="matrix(1 0 0 1 48.50 32.50)">8</text><text transform="matrix(1 0 0 1 43.50 40.50)">9</text><text transform="matrix(1 0 0 1 49.25 52.50)">10</text><text transform="matrix(1 0 0 1 39.50 61.88)">11</text><text transform="matrix(1 0 0 1 49.50 62.50)">12</text><text transform="matrix(1 0 0 1 40.50 77.50)">13</text><text transform="matrix(1 0 0 1 65.50 52.50)">14</text><text transform="matrix(1 0 0 1 90.50 68.58)">15</text><text transform="matrix(1 0 0 1 89.50 49.50)">16</text></g></svg>