<svg xmlns="http://www.w3.org/2000/svg" width="109" height="109" viewBox="0 0 109 109"><g id="kvg:StrokePaths_05dae"><g id="kvg:05dae" kvg:element="嶮"><g id="kvg:05dae-g1" kvg:element="山" kvg:position="left" kvg:radical="general"><path id="kvg:05dae-s1" kvg:type="㇑a" d="M22.81 20.53c.53.32 1.78 2.37 1.78 3.02.0 6.66.22 36.28.22 44.83"/><path id="kvg:05dae-s2" kvg:type="㇄a" d="M12.24 44.27c.59.35 1.22 1.83 1.18 2.54-.33 4.87.17 15.06-1 22.38-.25 1.59.17 1.96 1.61 1.6 8.17-2.04 11.92-2.48 21.85-4.51"/><path id="kvg:05dae-s3" kvg:type="㇑" d="M35.63 38.93c.59.35 1.18 2.61 1.18 3.32.0 5.48-.81 18.5-.81 27.37"/></g><g id="kvg:05dae-g2" kvg:element="僉" kvg:position="right"><g id="kvg:05dae-g3" kvg:element="人" kvg:position="top"><path id="kvg:05dae-s4" kvg:type="㇒" d="M64.34 12.75c.06.86.29 2.31-.13 3.47-2.65 7.37-10.15 22.85-22.71 33.25"/><path id="kvg:05dae-s5" kvg:type="㇏" d="M64.51 15.7c4.48 5.66 23.79 24.13 28.73 28.27 1.68 1.41 3.83 2.01 5.51 2.41"/></g><g id="kvg:05dae-g4" kvg:position="bottom"><g id="kvg:05dae-g5" kvg:element="一"><path id="kvg:05dae-s6" kvg:type="㇐" d="M55.84 43.3c.43.17 1.22.18 1.66.17 3.32-.05 16.19-2.92 18.86-2.72.72.05 1.15.08 1.51.17"/></g><g id="kvg:05dae-g6" kvg:element="口"><path id="kvg:05dae-s7" kvg:type="㇑" d="M44.05 56.77c.27.26.54.47.65.79.92 2.55 2.44 9.6 3.07 14.19"/><path id="kvg:05dae-s8" kvg:type="㇕b" d="M45.3 58.12c6.74-1.17 12.47-2.43 15.58-2.76 1.14-.12 1.82.73 1.66 1.45-.67 2.98-1.46 7.35-2.47 11.47"/><path id="kvg:05dae-s9" kvg:type="㇐b" d="M47.9 70.27c3.66-.38 9.11-1.03 14.14-1.62"/></g><g id="kvg:05dae-g7" kvg:element="口"><path id="kvg:05dae-s10" kvg:type="㇑" d="M69.95 53.73c.31.26.62.47.76.79 1.07 2.54 2.34 9.56 3.08 14.12"/><path id="kvg:05dae-s11" kvg:type="㇕b" d="M71.87 55.04c6.43-.97 13.96-1.55 17.56-1.88 1.32-.12 2.11.72 1.92 1.44-.78 2.97-1.69 6.97-2.85 11.08"/><path id="kvg:05dae-s12" kvg:type="㇐b" d="M73.93 67.66c4.23-.38 10.07-1.03 15.89-1.61"/></g><g id="kvg:05dae-g8" kvg:element="人"><path id="kvg:05dae-s13" kvg:type="㇒" d="M55.78 73.95c.18 1 .11 1.96-.13 2.6-2.11 5.66-6.94 13.14-15.59 19.96"/><path id="kvg:05dae-s14" kvg:type="㇏" d="M55.32 80.45c3.32 1.54 7.56 5.63 9.18 9.5"/></g><g id="kvg:05dae-g9" kvg:element="人"><path id="kvg:05dae-s15" kvg:type="㇒" d="M80.04 72.31c.18 1.06.11 2.08-.13 2.76-2.12 6.01-6.98 13.94-15.69 21.18"/><path id="kvg:05dae-s16" kvg:type="㇏" d="M79.78 79.89c5.41 2.63 12.31 9.62 14.94 16.24"/></g></g></g></g></g></svg>