<svg xmlns="http://www.w3.org/2000/svg" width="109" height="109" viewBox="0 0 109 109"><g id="kvg:StrokePaths_05da2" style="fill:none;stroke:#000000;stroke-width:3;stroke-linecap:round;stroke-linejoin:round;"><g id="kvg:05da2" kvg:element="嶢"><g id="kvg:05da2-g1" kvg:element="山" kvg:position="left" kvg:radical="general"><path id="kvg:05da2-s1" kvg:type="㇑a" d="M22.56 20.26c.57.34 1.9 2.54 1.9 3.23.0 7.14.24 35.3.24 44.47"/><path id="kvg:05da2-s2" kvg:type="㇄a" d="M11.77 45.13c.63.37 1.31 1.96 1.26 2.72-.35 5.22-.35 13.63-1.61 21.49-.27 1.7.18 2.1 1.72 1.71 8.75-2.18 12.77-3.16 23.42-5.33"/><path id="kvg:05da2-s3" kvg:type="㇑" d="M37.29 41.52c.63.38 1.26 2.8 1.26 3.56.0 5.87-1.05 16.42-1.87 25.22"/></g><g id="kvg:05da2-g2" kvg:element="堯" kvg:position="right"><g id="kvg:05da2-g3" kvg:position="top"><g id="kvg:05da2-g4" kvg:element="土" kvg:position="top"><path id="kvg:05da2-s4" kvg:type="㇐" d="M50.86 22.02c.75.34 2.13.37 2.88.34 7.95-.37 19.55-2.54 29.27-2.83 1.25-.04 2 .16 2.63.33"/><path id="kvg:05da2-s5" kvg:type="㇑a" d="M66.37 10.37c.09.26 1.32 1.35 1.32 3.01.0 1.86.38 9.98.38 17.72"/><path id="kvg:05da2-s6" kvg:type="㇐" d="M45.51 33.07c1.11.45 3.16.56 4.28.45 13.81-1.27 26.98-3.26 39.33-3.85 1.86-.09 2.97.22 3.9.44"/></g><g id="kvg:05da2-g5" kvg:position="bottom"><g id="kvg:05da2-g6" kvg:element="土" kvg:position="left"><path id="kvg:05da2-s7" kvg:type="㇀/㇐" d="M44.19 47.64c.58.38 1.72.4 2.31.36 3.84-.25 10.61-1.89 14.72-2.5.96-.14 2.02-.18 2.5.01"/><path id="kvg:05da2-s8" kvg:type="㇑" d="M53.13 39c.84.5 1.51 2.23 1.51 3.25.0 7.25.02 4.75.02 15.5"/><path id="kvg:05da2-s9" kvg:type="㇐" d="M44.09 61.41c.56.58 1.68 1.41 3.35.64 4.66-2.13 13.04-5.42 17.7-7.55"/></g><g id="kvg:05da2-g7" kvg:element="土" kvg:position="right"><path id="kvg:05da2-s10" kvg:type="㇐" d="M69.11 45.53c.64.32 1.81.33 2.45.32 5.93-.11 14.2-2.11 20-2.21 1.06-.02 1.7.15 2.23.31"/><path id="kvg:05da2-s11" kvg:type="㇑a" d="M80.21 36.62c.07.23 1.09 1.22 1.09 2.71.0 1.67-.22 10.92-.22 17.88"/><path id="kvg:05da2-s12" kvg:type="㇐" d="M67.27 57.73c.74.3 2.48.37 3.22.3 6.61-.54 16.03-1.54 22.66-1.95 1.23-.08 1.98.15 2.59.3"/></g></g></g><g id="kvg:05da2-g8" kvg:element="兀" kvg:position="bottom"><g id="kvg:05da2-g9" kvg:element="一"><path id="kvg:05da2-s13" kvg:type="㇐" d="M44.77 71.31c1.31.42 3.71.46 5.02.42 9.12-.31 26.23-3.67 38.68-3.67 2.18.0 3.49.2 4.58.41"/></g><g id="kvg:05da2-g10" kvg:element="儿" kvg:original="八"><g id="kvg:05da2-g11" kvg:element="丿"><path id="kvg:05da2-s14" kvg:type="㇒" d="M58.79 74c.06.59.11 1.53-.12 2.38-1.52 5.87-8.92 16.62-20.5 22.79"/></g><path id="kvg:05da2-s15" kvg:type="㇟" d="M71.59 71.41c.58 1.14 1.07 2.49 1.07 4.25.0 2.36-.02 5.9-.02 11.25.0 9.37 2.66 11.08 12.94 11.08 10.29.0 11.95-2.19 11.95-9.73"/></g></g></g></g></g></svg>