<svg xmlns="http://www.w3.org/2000/svg" width="109" height="109" viewBox="0 0 109 109"><g id="kvg:StrokePaths_05dba"><g id="kvg:05dba" kvg:element="嶺"><g id="kvg:05dba-g1" kvg:element="山" kvg:position="top" kvg:radical="general"><path id="kvg:05dba-s1" kvg:type="㇑a" d="M53.26 9.38c.99.99 1.12 2.09 1.12 3.12.0.67.06 8.38.06 13.01"/><path id="kvg:05dba-s2" kvg:type="㇄a" d="M26.18 16.75c.7 1.25.79 2.26.62 3.41-.3 1.97-.3 2.72-1.34 7.26-.34 1.49.04 2.56 2.11 2.28 17.56-2.45 35.93-3.95 52.85-4.55"/><path id="kvg:05dba-s3" kvg:type="㇑" d="M82.02 12.38c.6 1.12.71 2.48.62 3.15-.56 4.07-.77 5.98-1.54 11.69"/></g><g id="kvg:05dba-g2" kvg:element="領" kvg:position="bottom"><g id="kvg:05dba-g3" kvg:element="令" kvg:position="left"><g id="kvg:05dba-g4" kvg:element="人" kvg:position="top"><path id="kvg:05dba-s4" kvg:type="㇒" d="M32.5 35.32c.13 1.47-.11 2.71-.65 4.1-2.08 5.36-8.21 13.8-18.33 22.63"/><path id="kvg:05dba-s5" kvg:type="㇔/㇏" d="M35.5 40.03c5 2.22 10.56 6.25 13.42 10.62"/></g><g id="kvg:05dba-g5" kvg:position="bottom"><g id="kvg:05dba-g6" kvg:element="一"><path id="kvg:05dba-s6" kvg:type="㇔" d="M29.1 55.93c2.41 1.44 6.23 5.93 6.83 8.17"/></g><g id="kvg:05dba-g7" kvg:element="マ"><path id="kvg:05dba-s7" kvg:type="㇇" d="M16.11 72.19c1.77 1.19 4.69.87 6.66.49 5.49-1.05 16.85-3.63 21.59-4.5 3.22-.59 4.92.6 2.12 3.68-5.1 5.63-12.33 13.5-13.6 14.63"/><path id="kvg:05dba-s8" kvg:type="㇔" d="M24.33 83.27c3.15 1.81 11.31 8.77 12.79 13.51"/></g></g></g><g id="kvg:05dba-g8" kvg:element="頁" kvg:position="right"><path id="kvg:05dba-s9" kvg:type="㇐" d="M53.11 37.57c2.76.56 4.86.45 6.89.23 8.36-.92 19.1-1.99 26.88-2.56 2.27-.17 4.24-.35 7 .11"/><path id="kvg:05dba-s10" kvg:type="㇒" d="M71.3 39.83c.02.33.04.84-.04 1.31-.34 1.92-1.83 5.44-4.02 8.65"/><g id="kvg:05dba-g9" kvg:element="貝"><g id="kvg:05dba-g10" kvg:element="目" kvg:position="top"><path id="kvg:05dba-s11" kvg:type="㇑" d="M58.3 51.19c.88.88 1.09 2.06 1.09 3.51.0.82.0 15.36.0 24.54.0 2.97.0 5.38.0 6.58"/><path id="kvg:05dba-s12" kvg:type="㇕a" d="M60.13 52.03c2.5-.14 21.45-2.48 23.73-2.64 1.9-.14 3.24.74 3.24 2.52.0 2.75.01 15.67.01 26.84.0 1.89.0 3.72.0 5.46"/><path id="kvg:05dba-s13" kvg:type="㇐a" d="M60.79 62.08c6.53-.61 19.89-1.83 25.24-2.06"/><path id="kvg:05dba-s14" kvg:type="㇐a" d="M60.54 72.25c7.92-.78 19.17-1.6 26.01-1.98"/><path id="kvg:05dba-s15" kvg:type="㇐a" d="M60.56 83.48c7.31-.35 18.56-1.13 25.44-1.37"/></g><g id="kvg:05dba-g11" kvg:element="八" kvg:position="bottom"><path id="kvg:05dba-s16" kvg:type="㇒" d="M66.21 89.59c0 1.04-.45 2.21-1.25 2.83-3.46 2.71-6.71 4.96-13.36 8.33"/><path id="kvg:05dba-s17" kvg:type="㇔" d="M79.66 88.34c4.79 2.95 10.44 8.3 11.75 10.89"/></g></g></g></g></g></g></svg>