<!DOCTYPE svg PUBLIC "-//W3C//DTD SVG 1.0//EN" "http://www.w3.org/TR/2001/REC-SVG-20010904/DTD/svg10.dtd" [
<!ATTLIST g
xmlns:kvg CDATA #FIXED "http://kanjivg.tagaini.net"
kvg:element CDATA #IMPLIED
kvg:variant CDATA #IMPLIED
kvg:partial CDATA #IMPLIED
kvg:original CDATA #IMPLIED
kvg:part CDATA #IMPLIED
kvg:number CDATA #IMPLIED
kvg:tradForm CDATA #IMPLIED
kvg:radicalForm CDATA #IMPLIED
kvg:position CDATA #IMPLIED
kvg:radical CDATA #IMPLIED
kvg:phon CDATA #IMPLIED >
<!ATTLIST path
xmlns:kvg CDATA #FIXED "http://kanjivg.tagaini.net"
kvg:type CDATA #IMPLIED >
]><svg xmlns="http://www.w3.org/2000/svg" width="109" height="109" viewBox="0 0 109 109"><g id="kvg:StrokePaths_05dbc" style="fill:none;stroke:#000000;stroke-width:3;stroke-linecap:round;stroke-linejoin:round;"><g id="kvg:05dbc" kvg:element="嶼"><g id="kvg:05dbc-g1" kvg:element="山" kvg:position="left" kvg:radical="general"><path id="kvg:05dbc-s1" kvg:type="㇑a" d="M21.88 21.25c.55.33 1.83 2.45 1.83 3.11.0 6.87.23 31.9.23 40.72"/><path id="kvg:05dbc-s2" kvg:type="㇄a" d="M11.49 40.21c.61.36 1.26 1.89 1.21 2.62-.34 5.03.16 15.53-1.05 23.09-.26 1.64.18 2.02 1.66 1.65 8.43-2.1 11.3-2.56 21.54-4.65"/><path id="kvg:05dbc-s3" kvg:type="㇑" d="M35.1 39.25c.61.36 1.21 2.69 1.21 3.43.0 5.65-1.34 14.54-1.34 23.69"/></g><g id="kvg:05dbc-g2" kvg:element="與" kvg:position="right"><g id="kvg:05dbc-g3" kvg:position="top"><path id="kvg:05dbc-s4" kvg:type="㇐" d="M65.38 21.03c3.64-.3 6.39-1.52 8.8-1.82.68-.08 1.31.11 1.65.22"/><path id="kvg:05dbc-s5" kvg:type="㇉" d="M65.42 12.55c.59.98.94 3.62.62 5.18-.79 3.77-2.19 14.03-2.49 14.96-.76 2.32.18 3.07 1.95 2.43 1.26-.45 3.85-1.15 7.02-1.66 1.33-.21 2.38.91 2.15 2.67-1.18 9.05-2.89 22.87-3.83 33.92"/><path id="kvg:05dbc-s6" kvg:type="㇑" d="M63.19 43.25c.82.5 1.61 2.24 1.47 3.25-.25 1.75-1 15.5-1.93 24"/><g id="kvg:05dbc-g4" kvg:element="𦥑" kvg:variant="true" kvg:original="臼"><path id="kvg:05dbc-s7" kvg:type="㇒" d="M55.24 18.5c.03.23.1.65-.05.9-1.96 3.17-4.85 6.08-9.95 8.64"/><path id="kvg:05dbc-s8" kvg:type="㇑" d="M42.33 27.25c.82.5 1.36 2.24 1.47 3.25.31 3 3.2 29.25 4.69 41.25"/><path id="kvg:05dbc-s9" kvg:type="㇐" d="M44.99 41.5c2.6-.52 6.7-1.03 8.83-1.59.93-.25 2.08.09 2.6.09"/><path id="kvg:05dbc-s10" kvg:type="㇐" d="M46.8 54.5c3-.5 6.22-.84 8.51-1.11.8-.09 1.88-.14 2.42-.14"/><path id="kvg:05dbc-s11" kvg:type="㇕" d="M81.59 21.98c1.05.02 1.75.54 3.17.12 3.69-1.1 7.51-1.5 7.94-1.5 1.21.0 1.83 1.19 1.58 2.75-1.14 6.9-3.01 36.15-3.76 45.65"/><path id="kvg:05dbc-s12" kvg:type="㇐" d="M80.77 38.5c.53.16 1.63.71 2.44.68 2.9-.11 8.44-.68 9.17-.68"/><path id="kvg:05dbc-s13" kvg:type="㇐" d="M78.15 52.25c.47.13 1.73.82 2.25.73 4.36-.73 8.99-.98 11.24-1.23"/></g><path id="kvg:05dbc-s14" kvg:type="㇐" d="M37 71.7c1.14.54 3.22.64 4.36.54 8.94-.74 39.53-2.74 53.91-3.23 1.89-.06 3.03.26 3.98.53"/></g><g id="kvg:05dbc-g5" kvg:element="八" kvg:position="bottom"><g id="kvg:05dbc-g6" kvg:position="left"><path id="kvg:05dbc-s15" kvg:type="㇒" d="M56.35 78.39c.04.43.09 1.11-.09 1.73-1.07 3.66-7.2 11.68-15.6 16.59"/></g><g id="kvg:05dbc-g7" kvg:position="right"><path id="kvg:05dbc-s16" kvg:type="㇏" d="M78.66 78.58c5.37 3.11 13.86 12.79 15.2 17.63"/></g></g></g></g></g><g id="kvg:StrokeNumbers_05dbc" style="font-size:8;fill:#808080"><text transform="matrix(1 0 0 1 14.50 20.50)">1</text><text transform="matrix(1 0 0 1 3.50 39.50)">2</text><text transform="matrix(1 0 0 1 27.50 40.50)">3</text><text transform="matrix(1 0 0 1 70.25 16.50)">4</text><text transform="matrix(1 0 0 1 58.50 12.50)">5</text><text transform="matrix(1 0 0 1 56.50 47.25)">6</text><text transform="matrix(1 0 0 1 48.50 17.18)">7</text><text transform="matrix(1 0 0 1 34.50 27.50)">8</text><text transform="matrix(1 0 0 1 48.50 37.50)">9</text><text transform="matrix(1 0 0 1 48.50 50.50)">10</text><text transform="matrix(1 0 0 1 80.25 18.50)">11</text><text transform="matrix(1 0 0 1 79.50 35.50)">12</text><text transform="matrix(1 0 0 1 76.50 49.73)">13</text><text transform="matrix(1 0 0 1 37.50 68.50)">14</text><text transform="matrix(1 0 0 1 45.25 81.50)">15</text><text transform="matrix(1 0 0 1 69.25 85.50)">16</text></g></svg>