<!DOCTYPE svg PUBLIC "-//W3C//DTD SVG 1.0//EN" "http://www.w3.org/TR/2001/REC-SVG-20010904/DTD/svg10.dtd" [
<!ATTLIST g
xmlns:kvg CDATA #FIXED "http://kanjivg.tagaini.net"
kvg:element CDATA #IMPLIED
kvg:variant CDATA #IMPLIED
kvg:partial CDATA #IMPLIED
kvg:original CDATA #IMPLIED
kvg:part CDATA #IMPLIED
kvg:number CDATA #IMPLIED
kvg:tradForm CDATA #IMPLIED
kvg:radicalForm CDATA #IMPLIED
kvg:position CDATA #IMPLIED
kvg:radical CDATA #IMPLIED
kvg:phon CDATA #IMPLIED >
<!ATTLIST path
xmlns:kvg CDATA #FIXED "http://kanjivg.tagaini.net"
kvg:type CDATA #IMPLIED >
]><svg xmlns="http://www.w3.org/2000/svg" width="109" height="109" viewBox="0 0 109 109"><g id="kvg:StrokePaths_05dc9" style="fill:none;stroke:#000000;stroke-width:3;stroke-linecap:round;stroke-linejoin:round;"><g id="kvg:05dc9" kvg:element="巉"><g id="kvg:05dc9-g1" kvg:element="山" kvg:position="left" kvg:radical="general"><path id="kvg:05dc9-s1" kvg:type="㇑a" d="M22.7 23.32c.53.31 1.76 2.35 1.76 2.99.0 6.59.22 33.92.22 42.38"/><path id="kvg:05dc9-s2" kvg:type="㇄a" d="M12.73 44.33c.58.35 1.21 1.81 1.17 2.51-.33 4.82-.33 16.4-1.49 23.65-.25 1.57.17 1.94 1.59 1.58 8.09-2.02 11.8-3.45 21.63-5.46"/><path id="kvg:05dc9-s3" kvg:type="㇑" d="M35.39 42.53c.58.35 1.16 2.58 1.16 3.29.0 5.42-.8 14.83-.8 23.61"/></g><g id="kvg:05dc9-g2" kvg:element="毚" kvg:position="right"><g id="kvg:05dc9-g3" kvg:element="㲋" kvg:position="top"><g id="kvg:05dc9-g4" kvg:element="𠂊" kvg:variant="true" kvg:original="勹"><path id="kvg:05dc9-s4" kvg:type="㇒" d="M58.74 11.65c.05.37.19 1-.1 1.49-2.15 3.62-9.15 10.37-17.35 14.7"/><path id="kvg:05dc9-s5" kvg:type="㇇" d="M55.79 18.36c1.44.0 19.85-3.35 21.36-3.48 1.3-.11 1.7 1.18 1.16 1.72-2.28 2.29-5.49 5.19-9.09 8.86"/></g><g id="kvg:05dc9-g5" kvg:element="口"><path id="kvg:05dc9-s6" kvg:type="㇑" d="M48.23 27.52c.27.24.55.43.67.73.94 2.34 1.24 5.19 1.88 9.4"/><path id="kvg:05dc9-s7" kvg:type="㇕b" d="M49.92 28.33c6.63-.98 32.55-3.28 35.97-3.61 1.25-.12 2 1.22 1.82 1.94-.74 2.95-1.02 3.09-3.21 7.24"/><path id="kvg:05dc9-s8" kvg:type="㇐b" d="M51.31 36.64c2.68-.25 32.17-2.64 35.13-2.76"/></g><g id="kvg:05dc9-g6" kvg:element="比"><g id="kvg:05dc9-g7" kvg:position="left"><path id="kvg:05dc9-s9" kvg:type="㇐b" d="M50.55 44.63c4.04-.16 8.11-1.73 11.63-2 1.03-.08 1.69-.08 2.22-.03"/><path id="kvg:05dc9-s10" kvg:type="㇙" d="M49 40.26c.71.27 1.33 1.56 1.33 1.93.0 1.01-.23 8.47-.23 10.05.0 1.32-.2 2.28 2.88.76C57 51 59 50.75 63.39 49.17"/></g><g id="kvg:05dc9-g8" kvg:element="匕" kvg:position="right"><path id="kvg:05dc9-s11" kvg:type="㇒" d="M85.76 37.81c.15.32.38.85.13 1.4-.36.79-7.8 4.4-12.34 6.12"/><path id="kvg:05dc9-s12" kvg:type="㇟" d="M69.65 38c.84.3 1.58 1.29 1.58 1.67.0 1.01.08 6.23.08 7.41.0 5.54 6.3 4.78 12.01 4.78 4.43.0 8.92-.16 10.59-1.01s.73-1.5.9-2.36"/></g></g></g><g id="kvg:05dc9-g9" kvg:element="兔" kvg:position="bottom"><g id="kvg:05dc9-g10" kvg:element="免" kvg:variant="true"><g id="kvg:05dc9-g11" kvg:position="top"><g id="kvg:05dc9-g12" kvg:element="𠂊" kvg:variant="true" kvg:original="勹"><path id="kvg:05dc9-s13" kvg:type="㇒" d="M56 54.65c.04.35.08.91-.08 1.42-.95 2.98-6.41 9.52-13.88 13.52"/><path id="kvg:05dc9-s14" kvg:type="㇇" d="M54.79 59.86c6.46-.36 13.96-1.86 19.43-3.48 1.86-.55 2.53 1.18 1.72 1.72-3.4 2.29-5.45 5.4-8.03 8.36"/></g><path id="kvg:05dc9-s15" kvg:type="㇑" d="M47.23 68.89c.27.27.55.5.67.85.95 2.72 1.25 6.52 1.9 11.41"/><path id="kvg:05dc9-s16" kvg:type="㇕" d="M47.93 69.33c6.69-1.14 35.74-3.72 39.18-4.11 1.26-.14 2.02 1.42 1.84 2.25-.75 3.43-1.45 5.03-2.24 9.57"/><path id="kvg:05dc9-s17" kvg:type="㇐" d="M49.84 79.98c2.71-.29 35.34-2.48 38.32-2.62"/></g><g id="kvg:05dc9-g13" kvg:element="儿" kvg:original="八" kvg:position="bottom"><g id="kvg:05dc9-g14" kvg:element="丿" kvg:position="left"><path id="kvg:05dc9-s18" kvg:type="㇒" d="M65.68 68.84c.32.66.6 1.85.34 2.91-1.77 7.24-8.27 22.99-27.77 28.41"/></g><g id="kvg:05dc9-g15" kvg:position="right"><path id="kvg:05dc9-s19" kvg:type="㇟" d="M67.48 80.93c.59.57 1.06 1.25 1.09 2.14.16 3.95-.42 6.82-.42 9.51.0 6.27 7.08 5.8 14.05 5.8 7.35.0 12.2-.81 13.23-1.27 2.19-.96 1.59-1.45 1.79-3.14"/></g></g></g><g id="kvg:05dc9-g16" kvg:element="丶"><path id="kvg:05dc9-s20" kvg:type="㇔" d="M78.42 83.92c2.31 1.16 5.98 4.76 6.55 6.56"/></g></g></g></g></g><g id="kvg:StrokeNumbers_05dc9" style="font-size:8;fill:#808080"><text transform="matrix(1 0 0 1 14.50 22.50)">1</text><text transform="matrix(1 0 0 1 3.50 43.50)">2</text><text transform="matrix(1 0 0 1 28.50 40.50)">3</text><text transform="matrix(1 0 0 1 50.50 11.50)">4</text><text transform="matrix(1 0 0 1 63.50 14.50)">5</text><text transform="matrix(1 0 0 1 42.50 33.50)">6</text><text transform="matrix(1 0 0 1 56.50 25.50)">7</text><text transform="matrix(1 0 0 1 53.50 34.50)">8</text><text transform="matrix(1 0 0 1 53.25 42.50)">9</text><text transform="matrix(1 0 0 1 40.50 45.50)">10</text><text transform="matrix(1 0 0 1 75.50 41.50)">11</text><text transform="matrix(1 0 0 1 62.75 42.65)">12</text><text transform="matrix(1 0 0 1 44.50 60.50)">13</text><text transform="matrix(1 0 0 1 59.50 56.50)">14</text><text transform="matrix(1 0 0 1 39.50 76.50)">15</text><text transform="matrix(1 0 0 1 54.50 66.50)">16</text><text transform="matrix(1 0 0 1 52.50 76.50)">17</text><text transform="matrix(1 0 0 1 69.50 74.85)">18</text><text transform="matrix(1 0 0 1 58.50 94.50)">19</text><text transform="matrix(1 0 0 1 71.50 90.50)">20</text></g></svg>