<!DOCTYPE svg PUBLIC "-//W3C//DTD SVG 1.0//EN" "http://www.w3.org/TR/2001/REC-SVG-20010904/DTD/svg10.dtd" [
<!ATTLIST g
xmlns:kvg CDATA #FIXED "http://kanjivg.tagaini.net"
kvg:element CDATA #IMPLIED
kvg:variant CDATA #IMPLIED
kvg:partial CDATA #IMPLIED
kvg:original CDATA #IMPLIED
kvg:part CDATA #IMPLIED
kvg:number CDATA #IMPLIED
kvg:tradForm CDATA #IMPLIED
kvg:radicalForm CDATA #IMPLIED
kvg:position CDATA #IMPLIED
kvg:radical CDATA #IMPLIED
kvg:phon CDATA #IMPLIED >
<!ATTLIST path
xmlns:kvg CDATA #FIXED "http://kanjivg.tagaini.net"
kvg:type CDATA #IMPLIED >
]><svg xmlns="http://www.w3.org/2000/svg" width="109" height="109" viewBox="0 0 109 109"><g id="kvg:StrokePaths_05dd6" style="fill:none;stroke:#000000;stroke-width:3;stroke-linecap:round;stroke-linejoin:round;"><g id="kvg:05dd6" kvg:element="巖"><g id="kvg:05dd6-g1" kvg:element="山" kvg:position="top" kvg:radical="general"><path id="kvg:05dd6-s1" kvg:type="㇑a" d="M52.01 9.88c.56.33 1.75 2.48 1.86 3.15.11.66-.07 6.58-.18 10.73"/><path id="kvg:05dd6-s2" kvg:type="㇄a" d="M26.93 15.25c.56.33 1.12 1.73 1.12 2.41.0 2.59-.3 2.84-1.59 6.76-.48 1.45.83 2.61 2.11 2.28 8.43-2.2 47.83-4.42 52.85-4.55"/><path id="kvg:05dd6-s3" kvg:type="㇑" d="M81.02 12.62c.56.33 1.21 2.48 1.12 3.15-.56 4.07-.64 4.73-1.04 9.19"/></g><g id="kvg:05dd6-g2" kvg:element="嚴" kvg:position="bottom"><g id="kvg:05dd6-g3" kvg:position="top"><g id="kvg:05dd6-g4" kvg:element="口" kvg:position="left"><path id="kvg:05dd6-s4" kvg:type="㇑" d="M27.5 31.91c.29.19.59.34.72.58 1.01 1.85 1.78 6.25 2.47 9.57"/><path id="kvg:05dd6-s5" kvg:type="㇕b" d="M29.31 33.17c5.95-.96 12.64-1.68 16.04-1.92 1.25-.09 1.49 1.53 1.32 2.05-.74 2.16-1.6 3.42-2.7 6.41"/><path id="kvg:05dd6-s6" kvg:type="㇐b" d="M31.26 41.14c4-.28 8.83-.75 14.33-1.17"/></g><g id="kvg:05dd6-g5" kvg:element="口" kvg:position="right"><path id="kvg:05dd6-s7" kvg:type="㇑" d="M56.69 29.71c.33.23.68.41.83.69 1.16 2.23 2.06 6.38 2.85 10.39"/><path id="kvg:05dd6-s8" kvg:type="㇕b" d="M58.78 30.42c8.29-1.12 11.19-1.65 15.11-1.94 1.43-.11 2.3.64 2.09 1.27-.85 2.61-1.35 4.55-2.61 8.16"/><path id="kvg:05dd6-s9" kvg:type="㇐b" d="M61.02 39.14c4.61-.33 7.46-.9 13.79-1.41"/></g></g><g id="kvg:05dd6-g6" kvg:position="bottom"><g id="kvg:05dd6-g7" kvg:element="厂" kvg:position="tare"><path id="kvg:05dd6-s10" kvg:type="㇐" d="M23.53 48.56C24.96 49 27.57 49.08 29 49c16.72-1.03 37.13-4.87 51.28-5.24 2.38-.06 3.8.21 4.99.43"/><path id="kvg:05dd6-s11" kvg:type="㇒" d="M27.29 49.59c.05 1.06-.09 2.74-.09 4.28.0 9.93-3.63 32.26-15.64 41.97"/></g><g id="kvg:05dd6-g8" kvg:element="敢" kvg:position="tarec"><g id="kvg:05dd6-g9" kvg:position="left"><path id="kvg:05dd6-s12" kvg:type="㇐" d="M33.11 55.46c.47.13 1.34.17 1.82.13 3.02-.23 12.71-2.23 16.64-2.56.79-.07 1.26.06 1.66.13"/><path id="kvg:05dd6-s13" kvg:type="㇑" d="M41.12 54.81c.75.18 1.81 1.04 1.79 1.55-.05 1.6-.05 4.32-.06 5.78"/><g id="kvg:05dd6-g10" kvg:element="耳"><path id="kvg:05dd6-s14" kvg:type="㇐" d="M30.82 63.73c.6.25 1.69.33 2.29.25 6.74-.9 15.58-2.61 22.15-3.03.99-.06 1.59.12 2.09.25"/><path id="kvg:05dd6-s15" kvg:type="㇑a" d="M35.47 64.97c.22.35.56.35.56.93.0.58-.11 21.03-.11 23.12"/><path id="kvg:05dd6-s16" kvg:type="㇐a" d="M36.83 71.01c2.16.0 10.42-1.4 14.12-1.4"/><path id="kvg:05dd6-s17" kvg:type="㇐a" d="M36.6 78.34c2.67.0 10.12-1.28 14.01-1.28"/><path id="kvg:05dd6-s18" kvg:type="㇀" d="M29.42 89.59c.2.36 1.12.91 1.79.72 7.47-2.15 14.81-4.38 20.05-6"/><path id="kvg:05dd6-s19" kvg:type="㇑" d="M50.72 63.11c.22.46.56.35.56.93s.11 30.45.11 35.22"/></g></g><g id="kvg:05dd6-g11" kvg:element="攵" kvg:variant="true" kvg:original="攴" kvg:position="right"><g id="kvg:05dd6-g12" kvg:element="𠂉" kvg:position="top"><path id="kvg:05dd6-s20" kvg:type="㇒" d="M66.2 49.86c.02.52.15 1.38-.05 2.09-1.23 4.6-4.01 13.25-8.28 19.61"/><path id="kvg:05dd6-s21" kvg:type="㇐" d="M65.32 60.25c.47.37 1.33.41 1.8.37 4.89-.43 13.64-3.59 21.1-4.28.84-.08 1.35-.02 1.57.07"/></g><g id="kvg:05dd6-g13" kvg:element="乂" kvg:position="bottom"><g id="kvg:05dd6-g14" kvg:element="丿"><path id="kvg:05dd6-s22" kvg:type="㇒" d="M80.33 61.26c.36.85.68 1.49.18 3C76.75 75.75 69.25 88 57.96 95.74"/></g><path id="kvg:05dd6-s23" kvg:type="㇏" d="M62.11 67.49c2.64.21 18.1 21.65 26.83 27.42 1.59 1.05 2.54 1.28 3.82 1.4"/></g></g></g></g></g></g></g><g id="kvg:StrokeNumbers_05dd6" style="font-size:8;fill:#808080"><text transform="matrix(1 0 0 1 46.85 6.85)">1</text><text transform="matrix(1 0 0 1 19.66 15.85)">2</text><text transform="matrix(1 0 0 1 73.71 12.85)">3</text><text transform="matrix(1 0 0 1 21.50 36.40)">4</text><text transform="matrix(1 0 0 1 31.50 32.50)">5</text><text transform="matrix(1 0 0 1 33.50 39.50)">6</text><text transform="matrix(1 0 0 1 51.50 37.50)">7</text><text transform="matrix(1 0 0 1 60.50 28.10)">8</text><text transform="matrix(1 0 0 1 62.50 36.50)">9</text><text transform="matrix(1 0 0 1 30.50 47.50)">10</text><text transform="matrix(1 0 0 1 15.25 58.88)">11</text><text transform="matrix(1 0 0 1 34.50 53.50)">12</text><text transform="matrix(1 0 0 1 44.50 59.73)">13</text><text transform="matrix(1 0 0 1 29.25 62.50)">14</text><text transform="matrix(1 0 0 1 28.50 72.50)">15</text><text transform="matrix(1 0 0 1 38.50 68.50)">16</text><text transform="matrix(1 0 0 1 38.50 76.43)">17</text><text transform="matrix(1 0 0 1 25.50 85.50)">18</text><text transform="matrix(1 0 0 1 52.25 68.75)">19</text><text transform="matrix(1 0 0 1 56.50 52.50)">20</text><text transform="matrix(1 0 0 1 69.50 56.50)">21</text><text transform="matrix(1 0 0 1 70.50 66.50)">22</text><text transform="matrix(1 0 0 1 68.50 72.50)">23</text></g></svg>