<svg xmlns="http://www.w3.org/2000/svg" width="109" height="109" viewBox="0 0 109 109"><g id="kvg:StrokePaths_05de3"><g id="kvg:05de3" kvg:element="巣"><g id="kvg:05de3-g1" kvg:element="⺍" kvg:original="巛" kvg:position="top" kvg:radical="tradit"><g id="kvg:05de3-g2" kvg:element="丶" kvg:radical="nelson"><path id="kvg:05de3-s1" kvg:type="㇔" d="M27.62 15.88c3.78 3.81 7.83 10.47 8.38 12.38"/></g><path id="kvg:05de3-s2" kvg:type="㇔" d="M47 11.88c2.5 2.75 5.12 8.75 6.25 13.62"/><path id="kvg:05de3-s3" kvg:type="㇒" d="M76.75 11c.12 1-.07 1.71-.5 2.5-1.5 2.75-4.75 7.62-7.5 10.75"/></g><g id="kvg:05de3-g3" kvg:element="果" kvg:position="bottom"><g id="kvg:05de3-g4" kvg:element="日" kvg:part="1"><g id="kvg:05de3-g5" kvg:element="日"><path id="kvg:05de3-s4" kvg:type="㇑" d="M29.04 33.81c.83.83 1.36 1.81 1.5 2.63.35 2 2.74 14.15 4 20.55.43 2.19.72 3.7.75 3.91"/><path id="kvg:05de3-s5" kvg:type="㇕a" d="M30.43 34.61c10.82-1.74 39.95-4.74 43.88-4.77 2.58-.02 4.81 1.28 4.29 4.17-.17.94-2.49 12.79-3.78 19.13-.44 2.16-.73 3.65-.73 3.81"/><path id="kvg:05de3-s6" kvg:type="㇐a" d="M33.57 46.52c8.81-.9 34.93-3.4 42.24-3.6"/><path id="kvg:05de3-s7" kvg:type="㇐a" d="M35.91 58.2c7.34-.82 27.84-2.95 37.27-3.48"/></g></g><g id="kvg:05de3-g6" kvg:element="木"><path id="kvg:05de3-s8" kvg:type="㇐" d="M20.05 69.22c2.71.91 5.66.81 8.45.5C43 68.12 66 66 81.12 65.22c2.78-.14 5.35-.08 8.08.47"/><g id="kvg:05de3-g7" kvg:element="日" kvg:part="2"><path id="kvg:05de3-s9" kvg:type="㇑" d="M52.92 33.81c.95.95 1.28 2.32 1.28 3.93.0 3.91.02 38.31.02 54.38.0 3.48.0 6.11.0 7.38"/></g><path id="kvg:05de3-s10" kvg:type="㇒" d="M50.97 68.1c0 1.53-.76 2.61-1.51 3.59-6.51 8.58-18.5 19.21-30.88 23.73"/><path id="kvg:05de3-s11" kvg:type="㇏" d="M55.5 69.38C61.45 74.81 73.89 85 81.95 89.6c2.4 1.37 5.24 2.96 7.96 3.46"/></g></g></g></g></svg>