<!DOCTYPE svg PUBLIC "-//W3C//DTD SVG 1.0//EN" "http://www.w3.org/TR/2001/REC-SVG-20010904/DTD/svg10.dtd" [
<!ATTLIST g
xmlns:kvg CDATA #FIXED "http://kanjivg.tagaini.net"
kvg:element CDATA #IMPLIED
kvg:variant CDATA #IMPLIED
kvg:partial CDATA #IMPLIED
kvg:original CDATA #IMPLIED
kvg:part CDATA #IMPLIED
kvg:number CDATA #IMPLIED
kvg:tradForm CDATA #IMPLIED
kvg:radicalForm CDATA #IMPLIED
kvg:position CDATA #IMPLIED
kvg:radical CDATA #IMPLIED
kvg:phon CDATA #IMPLIED >
<!ATTLIST path
xmlns:kvg CDATA #FIXED "http://kanjivg.tagaini.net"
kvg:type CDATA #IMPLIED >
]><svg xmlns="http://www.w3.org/2000/svg" width="109" height="109" viewBox="0 0 109 109"><g id="kvg:StrokePaths_05de5" style="fill:none;stroke:#000000;stroke-width:3;stroke-linecap:round;stroke-linejoin:round;"><g id="kvg:05de5" kvg:element="工" kvg:radical="general"><path id="kvg:05de5-s1" kvg:type="㇐" d="M28.25 31.97c2.28.53 4.93.8 7.34.53 12.41-1.38 27.81-4 41.59-4.54 2.4-.09 4.58.1 6.56.54"/><path id="kvg:05de5-s2" kvg:type="㇑a" d="M52.87 32.75c1.25 1.25 1.77 3.03 1.77 5.3.0 7.2-.07 32.83-.07 41.45"/><path id="kvg:05de5-s3" kvg:type="㇐" d="M15.5 83.05c2.26.33 5.6.75 8.84.51 17.03-1.3 43.16-4.3 60.65-5.03 3.84-.16 8.46.53 10.38 1.03"/></g></g><g id="kvg:StrokeNumbers_05de5" style="font-size:8;fill:#808080"><text transform="matrix(1 0 0 1 21.25 32.63)">1</text><text transform="matrix(1 0 0 1 45.75 42.50)">2</text><text transform="matrix(1 0 0 1 7.50 84.50)">3</text></g></svg>