<!DOCTYPE svg PUBLIC "-//W3C//DTD SVG 1.0//EN" "http://www.w3.org/TR/2001/REC-SVG-20010904/DTD/svg10.dtd" [
<!ATTLIST g
xmlns:kvg CDATA #FIXED "http://kanjivg.tagaini.net"
kvg:element CDATA #IMPLIED
kvg:variant CDATA #IMPLIED
kvg:partial CDATA #IMPLIED
kvg:original CDATA #IMPLIED
kvg:part CDATA #IMPLIED
kvg:number CDATA #IMPLIED
kvg:tradForm CDATA #IMPLIED
kvg:radicalForm CDATA #IMPLIED
kvg:position CDATA #IMPLIED
kvg:radical CDATA #IMPLIED
kvg:phon CDATA #IMPLIED >
<!ATTLIST path
xmlns:kvg CDATA #FIXED "http://kanjivg.tagaini.net"
kvg:type CDATA #IMPLIED >
]><svg xmlns="http://www.w3.org/2000/svg" width="109" height="109" viewBox="0 0 109 109"><g id="kvg:StrokePaths_05df4" style="fill:none;stroke:#000000;stroke-width:3;stroke-linecap:round;stroke-linejoin:round;"><g id="kvg:05df4" kvg:element="巴"><g id="kvg:05df4-g1" kvg:element="己" kvg:part="1" kvg:original="巳" kvg:partial="true" kvg:radical="tradit"><path id="kvg:05df4-s1" kvg:type="㇕" d="M26.5 23.62c2.1.95 4.3.39 6.47.08 14.07-2.03 32.29-4.05 41.9-4.86 4.24-.36 7.77 1.41 6.23 6.74-1.78 6.14-3.48 12.8-6.55 22.47"/></g><path id="kvg:05df4-s2" kvg:type="㇑" d="M53.06 24.13c.94 1.49.89 2.87.76 4.25-.57 6.5-1.07 12.5-1.82 18.12"/><g id="kvg:05df4-g2" kvg:element="己" kvg:part="2" kvg:original="巳" kvg:partial="true" kvg:radical="tradit"><path id="kvg:05df4-s3" kvg:type="㇐" d="M31 49.75c5.25-.5 31.12-3 43-3.5"/><g id="kvg:05df4-g3" kvg:element="乙" kvg:radical="nelson"><path id="kvg:05df4-s4" kvg:type="㇟" d="M28.13 24.5c.87.87 1.29 1.94 1.29 4.03.0 9.72-.05 35.32-.05 41.6.0 21 .5 21.67 31.36 21.67 31.14.0 32.39-5.79 32.26-15.39"/></g></g></g></g><g id="kvg:StrokeNumbers_05df4" style="font-size:8;fill:#808080"><text transform="matrix(1 0 0 1 32.50 20.38)">1</text><text transform="matrix(1 0 0 1 45.50 31.30)">2</text><text transform="matrix(1 0 0 1 33.67 46.56)">3</text><text transform="matrix(1 0 0 1 21.92 31.31)">4</text></g></svg>