<!DOCTYPE svg PUBLIC "-//W3C//DTD SVG 1.0//EN" "http://www.w3.org/TR/2001/REC-SVG-20010904/DTD/svg10.dtd" [
<!ATTLIST g
xmlns:kvg CDATA #FIXED "http://kanjivg.tagaini.net"
kvg:element CDATA #IMPLIED
kvg:variant CDATA #IMPLIED
kvg:partial CDATA #IMPLIED
kvg:original CDATA #IMPLIED
kvg:part CDATA #IMPLIED
kvg:number CDATA #IMPLIED
kvg:tradForm CDATA #IMPLIED
kvg:radicalForm CDATA #IMPLIED
kvg:position CDATA #IMPLIED
kvg:radical CDATA #IMPLIED
kvg:phon CDATA #IMPLIED >
<!ATTLIST path
xmlns:kvg CDATA #FIXED "http://kanjivg.tagaini.net"
kvg:type CDATA #IMPLIED >
]><svg xmlns="http://www.w3.org/2000/svg" width="109" height="109" viewBox="0 0 109 109"><g id="kvg:StrokePaths_05dfe" style="fill:none;stroke:#000000;stroke-width:3;stroke-linecap:round;stroke-linejoin:round;"><g id="kvg:05dfe" kvg:element="巾" kvg:radical="general"><path id="kvg:05dfe-s1" kvg:type="㇑" d="M25.06 33.88c.9.9 1.26 2.74 1.26 4 0 .91.0 33.24.0 40.5"/><path id="kvg:05dfe-s2" kvg:type="㇆a" d="M27.25 36.97c4.75-.31 51.04-5.04 54.59-5.24 4.16-.23 5.26 1.76 4.91 5.74-1 11.53-2.75 24.78-5.5 35.28-1.89 7.21-6.25 1.5-8.25-1"/><path id="kvg:05dfe-s3" kvg:type="㇑" d="M52.56 11.13c1.22 1.22 1.51 2.99 1.51 4.5.0.69.0 45.03.0 68.87.0 7.45.0 12.89.0 14.38"/></g></g><g id="kvg:StrokeNumbers_05dfe" style="font-size:8;fill:#808080"><text transform="matrix(1 0 0 1 17.50 42.13)">1</text><text transform="matrix(1 0 0 1 31.50 32.50)">2</text><text transform="matrix(1 0 0 1 42.50 11.50)">3</text></g></svg>