<svg xmlns="http://www.w3.org/2000/svg" width="109" height="109" viewBox="0 0 109 109"><g id="kvg:StrokePaths_05e06" style="fill:none;stroke:#000000;stroke-width:3;stroke-linecap:round;stroke-linejoin:round;"><g id="kvg:05e06" kvg:element="帆"><g id="kvg:05e06-g1" kvg:element="巾" kvg:position="left" kvg:radical="general"><path id="kvg:05e06-s1" kvg:type="㇑" d="M13.38 34.71c.89.89 1.19 1.92 1.19 3.45.0 4.84-.04 15.93-.06 25.22.0 2.18-.01 4.25-.01 6.13"/><path id="kvg:05e06-s2" kvg:type="㇆a" d="M15.64 36.77c3.63-1.01 18.32-3.97 22.98-4.91 2.38-.48 4.11 1.02 4.11 3.64.0 7.95.18 17.43-.9 25.12-.83 5.88-4.96 1.31-5.91-.72"/><path id="kvg:05e06-s3" kvg:type="㇑" d="M25.87 14.63c1.25 1.25 1.54 2.62 1.54 4.63.0 6.29.01 48.88.02 67.49.0 4.3.0 7.26.0 8.13"/></g><g id="kvg:05e06-g2" kvg:element="凡" kvg:position="right" kvg:phon="凡"><g id="kvg:05e06-g3" kvg:element="几"><g id="kvg:05e06-g4" kvg:element="丿"><path id="kvg:05e06-s4" kvg:type="㇒" d="M52.62 20.89c1.12 1.12 1.55 2.73 1.55 4.89.0 21.22 1.33 46.34-16.42 64.46"/></g><path id="kvg:05e06-s5" kvg:type="㇈b" d="M54.96 22.57c3.79-.7 13.17-3.07 16.6-3.58 2.38-.35 4.2.43 4.2 4.1.0 8.91.34 43.16.34 49.24.0 13.83 1.4 14.98 9.98 14.98 9.58.0 10.45-1.57 10.45-10.64"/></g><g id="kvg:05e06-g5" kvg:element="丶"><path id="kvg:05e06-s6" kvg:type="㇔" d="M58 45.38c5.03 4.64 7.91 9.56 9.47 13.91"/></g></g></g></g></svg>