<svg xmlns="http://www.w3.org/2000/svg" width="109" height="109" viewBox="0 0 109 109"><g id="kvg:StrokePaths_05e11" style="fill:none;stroke:#000000;stroke-width:3;stroke-linecap:round;stroke-linejoin:round;"><g id="kvg:05e11" kvg:element="帑"><g id="kvg:05e11-g1" kvg:element="奴" kvg:position="top"><g id="kvg:05e11-g2" kvg:element="女" kvg:position="left"><path id="kvg:05e11-s1" kvg:type="㇛" d="M32.93 10.44c.38.87.56 2.29.36 3.47-.97 5.8-5.75 17.67-9.98 24.16-.87 1.33.37 2.04.86 2.18 7.29 2.13 13.94 2.92 19.6 8.58"/><path id="kvg:05e11-s2" kvg:type="㇒" d="M44.62 21.17c.07.78.11 2.67-.15 3.78-2.13 8.93-8.26 21.35-23.38 26.91"/><path id="kvg:05e11-s3" kvg:type="㇐" d="M12.25 28.29c.83 1.8 2.59 1.89 4.73 1.25C20.5 28.5 37.25 25 50.27 21.78"/></g><g id="kvg:05e11-g3" kvg:element="又" kvg:position="right"><path id="kvg:05e11-s4" kvg:type="㇇" d="M59.8 16.51c1.07.23 1.2.57 3.34.23s17.81-3.4 19.28-3.74 3.23.99 2.72 2.25C81 25.49 70.86 39.1 58.69 44.04"/><path id="kvg:05e11-s5" kvg:type="㇏" d="M58.52 22.39c3.27.57 19.22 15.81 30.59 22.05 1.77.97 3.06 1.62 4.71 1.94"/></g></g><g id="kvg:05e11-g4" kvg:element="巾" kvg:position="bottom" kvg:radical="general"><path id="kvg:05e11-s6" kvg:type="㇑" d="M28.25 60.93c.6.27 1.88 2.02 2 2.56s2.92 23.67 2.8 27.04"/><path id="kvg:05e11-s7" kvg:type="㇆a" d="M29.79 62.39c3.78-.19 44.8-4.49 47.62-4.61 3.31-.14 4.03 2.38 3.91 3.61-.6 6.19-2.65 16.78-4.88 22.75C74.25 90 72.5 87 69.88 83.24"/><path id="kvg:05e11-s8" kvg:type="㇑" d="M52.52 46.38c.6.27 1.88 2.02 2 2.56s-.08 49.57-.2 52.94"/></g></g></g></svg>