<svg xmlns="http://www.w3.org/2000/svg" width="109" height="109" viewBox="0 0 109 109"><g id="kvg:StrokePaths_05e1a" style="fill:none;stroke:#000000;stroke-width:3;stroke-linecap:round;stroke-linejoin:round;"><g id="kvg:05e1a" kvg:element="帚"><g id="kvg:05e1a-g1" kvg:element="⺕" kvg:variant="true" kvg:original="彑" kvg:position="top" kvg:radical="nelson"><path id="kvg:05e1a-s1" kvg:type="㇕" d="M30.5 12.75c1.5.5 2.75 1 4 1S70 11 72 10.75s4.49.76 4 2.5c-1.75 6.25-3.25 15.25-4 19.25"/><path id="kvg:05e1a-s2" kvg:type="㇐" d="M17.38 25.72c1.41.55 4 .64 5.42.55 14.71-.92 38.19-4.65 65.26-4.8 2.36-.01 3.77.26 4.95.54"/><path id="kvg:05e1a-s3" kvg:type="㇐c" d="M31.88 36.22c.82.21 2.31.23 3.13.21 10.79-.25 22.05-2.37 37.68-2.43 1.36.0 2.18.1 2.86.21"/></g><g id="kvg:05e1a-g2" kvg:position="bottom"><g id="kvg:05e1a-g3" kvg:element="冖"><path id="kvg:05e1a-s4" kvg:type="㇔" d="M21.59 46.15C21.44 49.68 17.8 58.9 16.5 61"/><path id="kvg:05e1a-s5" kvg:type="㇖b" d="M23.76 47.68c3.32.0 5.12-.22 7.78-.47 19.75-1.85 37.56-4.29 54.23-4.47 10.38-.11.91 7.58-.65 8.78"/></g><g id="kvg:05e1a-g4" kvg:element="巾" kvg:radical="tradit"><path id="kvg:05e1a-s6" kvg:type="㇑" d="M30.81 59.32c.58.28 1.81 2.08 1.92 2.63.12.55-.07 23.77-.19 27.24"/><path id="kvg:05e1a-s7" kvg:type="㇆a" d="M32.75 61.85c3.64-.19 38.78-3.59 41.49-3.71 3.19-.14 3.88 2.44 3.76 3.71-.58 6.37-1.56 15.87-4.21 21.85-2.63 5.94-5.1.05-6.32-.93"/><path id="kvg:05e1a-s8" kvg:type="㇑" d="M52.8 50.38c.48.28 1.48 2.08 1.58 2.63.1.56-.06 43.4-.16 46.87"/></g></g></g></g></svg>