<svg xmlns="http://www.w3.org/2000/svg" width="109" height="109" viewBox="0 0 109 109"><g id="kvg:StrokePaths_05e1d"><g id="kvg:05e1d" kvg:element="帝"><g id="kvg:05e1d-g1" kvg:position="top"><g id="kvg:05e1d-g2" kvg:element="亠" kvg:radical="nelson"><path id="kvg:05e1d-s1" kvg:type="㇑a" d="M53.11 8.59c1.33 1.33 1.68 2.35 1.68 4.59.0 3.56.0-1.37.0 8.3"/><path id="kvg:05e1d-s2" kvg:type="㇐" d="M26.75 24.38c2.15.6 4.56.22 6.74.04 9.3-.77 31.44-3.33 42.13-3.98 2.55-.16 5.09-.09 7.62.34"/></g><path id="kvg:05e1d-s3" kvg:type="㇔" d="M39.75 27.5c3.37 4.07 5.52 8.97 5.82 11.66"/><path id="kvg:05e1d-s4" kvg:type="㇒" d="M67.84 23.82c.28.8.27 1.81.11 2.22C66 31 64.88 33.88 62.88 38.12"/><g id="kvg:05e1d-g3" kvg:element="冖"><path id="kvg:05e1d-s5" kvg:type="㇔" d="M20.54 42.06c-.1 4.38-2.45 15.83-3.29 18.44"/><path id="kvg:05e1d-s6" kvg:type="㇖b" d="M21.22 45c14.78-2.13 48.25-7 65.97-7 12.06.0 3.81 5.25-.69 9"/></g></g><g id="kvg:05e1d-g4" kvg:element="巾" kvg:position="bottom" kvg:radical="tradit"><path id="kvg:05e1d-s7" kvg:type="㇑" d="M33.31 59.38c.84.84 1.15 2 1.15 3.45.0 3.28.07 13.92.0 21-.02 2.45-.05 4.46-.08 5.54"/><path id="kvg:05e1d-s8" kvg:type="㇆a" d="M34.96 60.95c4.54-.7 37.17-4.83 39.84-5.01 2.7-.19 3.7 1.4 3.7 4.51.0 9.42.24 15.8-1.4 23.85-1.12 5.51-4.71.75-6.22-1.13"/><path id="kvg:05e1d-s9" kvg:type="㇑" d="M54.17 47.17c.83.83 1.14 2.08 1.14 3.7.0.55-.11 29.56-.11 43.63.0 2.38-.05 6.02-.07 6.88"/></g></g></g></svg>