<svg xmlns="http://www.w3.org/2000/svg" width="109" height="109" viewBox="0 0 109 109"><g id="kvg:StrokePaths_05e2f" style="fill:none;stroke:#000000;stroke-width:3;stroke-linecap:round;stroke-linejoin:round;"><g id="kvg:05e2f" kvg:element="帯"><g id="kvg:05e2f-g1" kvg:element="丗" kvg:position="top"><g id="kvg:05e2f-g2" kvg:element="卅"><g id="kvg:05e2f-g3" kvg:element="廾"><g id="kvg:05e2f-g4" kvg:element="廿" kvg:part="1" kvg:variant="true"><g id="kvg:05e2f-g5" kvg:element="十" kvg:part="1"><path id="kvg:05e2f-s1" kvg:type="㇐" d="M12.25 27.95c4.25.93 8.04.63 11.77.17 15.23-1.87 43.1-4.25 61.23-4.96 3.59-.14 6.62.09 10 .63"/></g></g><g id="kvg:05e2f-g6" kvg:element="丿" kvg:variant="true"><g id="kvg:05e2f-g7" kvg:element="廿" kvg:part="2" kvg:variant="true"><path id="kvg:05e2f-s2" kvg:type="㇑" d="M33 14c1 1 1.67 2.5 1.61 3.5-.2 3.31-.6 13.03-.84 20-.04 1.18-.08 2.27-.11 3.25"/></g></g><g id="kvg:05e2f-g8" kvg:element="十" kvg:part="2"><g id="kvg:05e2f-g9" kvg:element="廿" kvg:part="3" kvg:variant="true"><path id="kvg:05e2f-s3" kvg:type="㇑a" d="M53.45 10.5c.96.96 1.38 2.48 1.36 3.5-.07 4.25-.19 14.88-.21 23"/></g></g></g><path id="kvg:05e2f-s4" kvg:type="㇑a" d="M74.65 12.5c.86.86 1.44 2.48 1.36 3.5-.27 3.5-1.64 11.38-2.46 19.25"/></g><g id="kvg:05e2f-g10" kvg:element="廿" kvg:part="4" kvg:variant="true"><path id="kvg:05e2f-s5" kvg:type="㇐b" d="M33.85 39.88c9.78-1.01 26.65-3.01 36.04-3.63 2.04-.13 3.74-.13 5.19.38"/></g></g><g id="kvg:05e2f-g11" kvg:position="bottom"><g id="kvg:05e2f-g12" kvg:element="冖"><path id="kvg:05e2f-s6" kvg:type="㇔" d="M17.75 50.62c-.15 3.93-3.73 16.28-5 18.62"/><path id="kvg:05e2f-s7" kvg:type="㇖b" d="M18.4 52.34c3.84-.45 49.59-6.35 68.62-6.35 14.24.0 1.12 7.48-.56 8.81"/></g><g id="kvg:05e2f-g13" kvg:element="巾" kvg:radical="general"><path id="kvg:05e2f-s8" kvg:type="㇑" d="M30.71 62.14c.66.61 1.19 1.99 1.19 3.03.0 2.09.03 10.83.05 17.2.0 1.88.01 3.55.01 4.78"/><path id="kvg:05e2f-s9" kvg:type="㇆a" d="M32.43 64.79c5.07-.92 39.64-4.98 42.37-5.13 3.22-.18 3.88 3.04 3.8 4.63-.46 8.48-.6 11.46-2 18.01-.86 4-4.22 2.82-6.62-.41"/><path id="kvg:05e2f-s10" kvg:type="㇑" d="M52.1 50.88c1.01 1.01 1.44 2.37 1.44 3.53.0.57.04 25.2.05 38.08.0 3.1.01 5.52.01 6.76"/></g></g></g></g></svg>