<svg xmlns="http://www.w3.org/2000/svg" width="109" height="109" viewBox="0 0 109 109"><g id="kvg:StrokePaths_05e25"><g id="kvg:05e25" kvg:element="帥"><g id="kvg:05e25-g1" kvg:position="left"><g id="kvg:05e25-g2" kvg:element="丿"><path id="kvg:05e25-s1" kvg:type="㇒" d="M34.51 14.64c.04.35-.29 1.21-.58 1.65C30.75 21 26 24.5 18.89 29.44"/></g><path id="kvg:05e25-s2" kvg:type="㇑" d="M17.04 30.59c1 1 1.16 2.28 1.16 3.95.0.78-.03 36.97-.05 52.08-.01 3.81-.01 6.02-.02 6.25"/><path id="kvg:05e25-s3" kvg:type="㇕b" d="M19.38 36c6.24-.88 14.15-2.39 18.73-3.18 3.12-.54 4.52.1 3.9 3.56-.64 3.63-1.42 7.69-2.74 12.77"/><path id="kvg:05e25-s4" kvg:type="㇐b" d="M19.42 52.66c7.37-1 12.71-1.74 17.32-2.26 1.73-.2 3.25-.36 4.55-.5"/><path id="kvg:05e25-s5" kvg:type="㇕b" d="M19.11 69.61c8.02-1.73 16.72-3.35 20.06-3.89 2.84-.46 4.15 1.33 3.78 3.08-.94 4.46-1.05 5.98-2.6 12.75"/><path id="kvg:05e25-s6" kvg:type="㇐b" d="M19.5 85.5c4.39-.43 12.23-1.47 18.72-2.18 1.59-.17 3.1-.33 4.45-.45"/></g><g id="kvg:05e25-g3" kvg:element="巾" kvg:position="right" kvg:radical="tradit"><path id="kvg:05e25-s7" kvg:type="㇑" d="M53.09 38.3c.93.93 1.16 2.07 1.16 3.63.0.38.06 14.95.08 23.7.01 3.52.01 6.09.0 6.43"/><path id="kvg:05e25-s8" kvg:type="㇆a" d="M54.7 39.3c12.05-2.05 25.92-3.84 33.56-4.76 3.71-.44 5.43.58 5.43 4.58.0 9.5-.33 21.93-1.85 29.46-1.16 5.76-4.88.79-6.21-1.19"/><g id="kvg:05e25-g4" kvg:element="丨" kvg:radical="nelson"><path id="kvg:05e25-s9" kvg:type="㇑" d="M71.47 14.13c1.01 1.01 1.4 2.24 1.4 4.06.0 5.1-.12 63.06-.12 71.06.0 2.38.03 7.35.0 8.38"/></g></g></g></g></svg>