<svg xmlns="http://www.w3.org/2000/svg" width="109" height="109" viewBox="0 0 109 109"><g id="kvg:StrokePaths_05e38" style="fill:none;stroke:#000000;stroke-width:3;stroke-linecap:round;stroke-linejoin:round;"><g id="kvg:05e38" kvg:element="常"><g id="kvg:05e38-g1" kvg:element="尚" kvg:variant="true" kvg:position="top" kvg:phon="尚"><g id="kvg:05e38-g2" kvg:element="⺌" kvg:variant="true" kvg:original="小" kvg:position="top" kvg:radical="nelson"><path id="kvg:05e38-s1" kvg:type="㇑a" d="M52.96 8.12c.9.9 1.51 2.47 1.51 3.99.0 7.77-.01 13.07-.01 15.76"/><path id="kvg:05e38-s2" kvg:type="㇔" d="M31.38 14.88c3.33 1.69 8.6 6.96 9.43 9.59"/><path id="kvg:05e38-s3" kvg:type="㇒" d="M73.26 11.25c.08.9-.39 1.99-.92 2.75-1.32 2.39-4.4 5.81-8.59 8.88"/></g><g id="kvg:05e38-g3" kvg:position="bottom"><g id="kvg:05e38-g4" kvg:element="冂" kvg:variant="true"><path id="kvg:05e38-s4" kvg:type="㇔" d="M21.95 30.38c-.18 4.2-3.21 14.05-4.7 16.56"/><path id="kvg:05e38-s5" kvg:type="㇖b" d="M22.99 32.68c11.01-1.8 46.21-5.71 62.8-6.62 10.21-.56.65 7.69-.9 8.95"/></g><g id="kvg:05e38-g5" kvg:element="吊" kvg:part="1"><g id="kvg:05e38-g6" kvg:element="口"><path id="kvg:05e38-s6" kvg:type="㇑" d="M36.14 41.13c.75.52 1.4 1.78 1.61 2.72 1 4.4 1.54 7.14 2.18 10.87.26 1.54.5 2.88.7 3.78"/><path id="kvg:05e38-s7" kvg:type="㇕b" d="M38.1 42.57c4.63-.47 22.22-2.74 28.8-3.53 3.07-.37 4.12.42 3.09 3.5-1.01 3.01-2.72 8.01-3.87 10.77"/><path id="kvg:05e38-s8" kvg:type="㇐b" d="M40.94 55.96c5.19-.57 15.05-1.47 22.3-2.01 1.91-.14 3.63-.26 5.05-.34"/></g></g></g></g><g id="kvg:05e38-g7" kvg:element="吊" kvg:part="2" kvg:position="bottom"><g id="kvg:05e38-g8" kvg:element="巾" kvg:radical="tradit"><path id="kvg:05e38-s9" kvg:type="㇑" d="M29.06 68.13c.97.97 1.56 2.5 1.88 4.36.1.58.29 8.75.32 14.76.01 1.95.0 3.67-.03 4.84"/><path id="kvg:05e38-s10" kvg:type="㇆a" d="M31.27 70.28c5.48-.53 36.73-4.03 44.27-4.58 3.36-.25 3.88 2.93 3.97 4.58.25 4.47.0 12.97-.94 16.73-1.46 5.84-5.04.81-6.66-1.21"/><path id="kvg:05e38-s11" kvg:type="㇑" d="M53 57.02c.93.93 1.31 2.73 1.31 4.57.0 5.73-.11 19.29-.11 33.16.0 3.05-.04 5.33-.07 6.24"/></g></g></g></g></svg>