<svg xmlns="http://www.w3.org/2000/svg" width="109" height="109" viewBox="0 0 109 109"><g id="kvg:StrokePaths_05e37" style="fill:none;stroke:#000000;stroke-width:3;stroke-linecap:round;stroke-linejoin:round;"><g id="kvg:05e37" kvg:element="帷"><g id="kvg:05e37-g1" kvg:element="巾" kvg:position="left" kvg:radical="general"><path id="kvg:05e37-s1" kvg:type="㇑" d="M13.49 33.31c.43.39 1.33 2.88 1.42 3.65.34 3.04-.06 36.17-.14 40.98"/><path id="kvg:05e37-s2" kvg:type="㇆a" d="M15.29 36.25c2.47-.27 22.15-3.91 23.99-4.07 2.16-.19 3.52 1.34 3.55 3.07C43 44 42.24 64.09 40.97 72.63c-.91 6.14-4.25 1.85-5.29-.27"/><path id="kvg:05e37-s3" kvg:type="㇑" d="M26 12.63c.61.42 1.89 3.18 2.01 4.03.12.85-.08 75.66-.2 80.97"/></g><g id="kvg:05e37-g2" kvg:element="隹" kvg:position="right"><g id="kvg:05e37-g3" kvg:element="亻" kvg:variant="true" kvg:original="人"><path id="kvg:05e37-s4" kvg:type="㇒" d="M61.64 13.5c.14 1.64-.04 3.79-.48 5.2-2.83 8.97-6.42 16.56-12.9 27.48"/><path id="kvg:05e37-s5" kvg:type="㇑" d="M53.69 36.77c.69.91 1.22 2.89 1.26 4.3.41 12.52-.56 48.16-.22 54.68"/></g><path id="kvg:05e37-s6" kvg:type="㇒" d="M80.7 13.5c.06 1.02-.01 2.35-.2 3.23-1.17 5.56-2.66 9.86-5.36 16.63"/><path id="kvg:05e37-s7" kvg:type="㇐b" d="M54.75 37.56c9.66-1.2 36.71-4.09 40.14-4.74"/><path id="kvg:05e37-s8" kvg:type="㇑a" d="M73.73 38.48c.39.46.69 1.1.69 1.89.0 8.12.04 38.15-.19 50.94"/><path id="kvg:05e37-s9" kvg:type="㇐b" d="M55.82 53.01c8.68-.76 32.24-2.32 35.47-2.85"/><path id="kvg:05e37-s10" kvg:type="㇐b" d="M54.91 70.48c7.94-.82 33.05-2.51 36.45-2.96"/><path id="kvg:05e37-s11" kvg:type="㇐b" d="M54.91 92.53c7.98-1.18 39.42-1.43 42.84-2.08"/></g></g></g></svg>