<svg xmlns="http://www.w3.org/2000/svg" width="109" height="109" viewBox="0 0 109 109"><g id="kvg:StrokePaths_05e4e"><g id="kvg:05e4e" kvg:element="幎"><g id="kvg:05e4e-g1" kvg:element="巾" kvg:position="left" kvg:radical="general"><path id="kvg:05e4e-s1" kvg:type="㇑" d="M10.99 34.31c.43.39 1.33 2.88 1.42 3.65.34 3.04-.06 27.17-.14 31.98"/><path id="kvg:05e4e-s2" kvg:type="㇆a" d="M12.29 35.75c2.47-.27 20.65-3.41 22.49-3.57 2.16-.19 3.52 1.34 3.55 3.07.17 8.75-.09 20.85-1.36 29.39-.91 6.14-4.25 1.85-5.29-.27"/><path id="kvg:05e4e-s3" kvg:type="㇑" d="M22 13.63c.61.42 1.89 3.18 2.01 4.03.12.85-.08 72.66-.2 77.97"/></g><g id="kvg:05e4e-g2" kvg:element="冥" kvg:position="right"><g id="kvg:05e4e-g3" kvg:element="冖" kvg:position="top"><path id="kvg:05e4e-s4" kvg:type="㇔" d="M50.17 16.32c0 3.55-3.15 13.31-4.58 15.68"/><path id="kvg:05e4e-s5" kvg:type="㇖b" d="M49.56 20.17c6.42-.77 37.83-3.5 43.04-3.84 8.91-.58 1.23 6.61-.8 8.26"/></g><g id="kvg:05e4e-g4" kvg:position="bottom"><g id="kvg:05e4e-g5" kvg:element="日"><path id="kvg:05e4e-s6" kvg:type="㇑" d="M56.21 32.78c.14.26.48 1.25.71 2.25.99 4.3 1.92 14.66 2.54 22.68"/><path id="kvg:05e4e-s7" kvg:type="㇕a" d="M57.59 33.87c7.67-1.08 22.05-2.42 27.78-3.33 2.1-.33 3.18.85 3.07 2.03-.4 4.34-2.24 15.68-4.28 23.92"/><path id="kvg:05e4e-s8" kvg:type="㇐a" d="M59.03 44.49c2.5-.42 25.54-2.01 27.61-2.19"/><path id="kvg:05e4e-s9" kvg:type="㇐a" d="M59.49 57.05c5.53-.46 16.92-1.39 24.55-2.14"/></g><g id="kvg:05e4e-g6" kvg:element="六"><g id="kvg:05e4e-g7" kvg:element="亠" kvg:position="top"><path id="kvg:05e4e-s10" kvg:type="㇑a" d="M70.04 60.5c.51.43 1.36 2.11 1.36 2.97.0 3.42-.01 3.76-.07 6.21"/><path id="kvg:05e4e-s11" kvg:type="㇐" d="M45.54 71.45c1.04.1 3.4.62 4.41.55 11.55-.75 33.3-2.75 46.35-3.37 1.71-.08 2.58.05 3.86.7"/></g><g id="kvg:05e4e-g8" kvg:element="八" kvg:position="bottom"><path id="kvg:05e4e-s12" kvg:type="㇒" d="M62.28 77.49c.4.74.21 2.7-.48 3.58-3.71 4.82-8.74 8.74-16.44 12.93"/><path id="kvg:05e4e-s13" kvg:type="㇏" d="M78.8 77.11c6.5 4.96 11.86 10.68 15.11 16.7"/></g></g></g></g></g></g></svg>