<svg xmlns="http://www.w3.org/2000/svg" width="109" height="109" viewBox="0 0 109 109"><g id="kvg:StrokePaths_05e44"><g id="kvg:05e44" kvg:element="幄"><g id="kvg:05e44-g1" kvg:element="巾" kvg:position="left" kvg:radical="general"><path id="kvg:05e44-s1" kvg:type="㇑" d="M12.74 35.16c.37.44 1.15 3.26 1.22 4.13.3 3.45 1.68 32.46 1.6 37.89"/><path id="kvg:05e44-s2" kvg:type="㇆a" d="M13.86 37.42c2.12-.3 22.08-4.06 23.67-4.24 1.86-.22 3.03 1.52 3.06 3.48.14 9.91-1.01 24.03-2.1 33.7-.78 6.95-4.66 1.59-5.55-.81"/><path id="kvg:05e44-s3" kvg:type="㇑" d="M24.5 12.63c.61.42 1.89 3.18 2.01 4.03.12.85-.08 74.16-.2 79.47"/></g><g id="kvg:05e44-g2" kvg:element="屋" kvg:position="right"><g id="kvg:05e44-g3" kvg:element="尸" kvg:position="tare"><path id="kvg:05e44-s4" kvg:type="㇕c" d="M49.76 16.77c1.31.57 3.85 1.07 5.24.96 7.5-.63 30.8-3.08 33.81-3.31 1.49-.11 2.14.4 2.14 2.1.0 1.85-1.14 5.7-2.46 12.69"/><path id="kvg:05e44-s5" kvg:type="㇐b" d="M54.01 32.92c3.76-.19 32.65-3.31 36.57-3.5"/><path id="kvg:05e44-s6" kvg:type="㇒" d="M53.65 17.71c0 3.95-.33 12.64-.49 16.34C52.39 52.5 49.86 72.85 40.2 90.1"/></g><g id="kvg:05e44-g4" kvg:element="至" kvg:position="tarec"><path id="kvg:05e44-s7" kvg:type="㇐" d="M55.91 43.1c.69.3 1.95.32 2.64.3 9.11-.35 22.01-3.15 32.27-3.84 1.15-.08 1.83.14 2.41.29"/><path id="kvg:05e44-s8" kvg:type="㇜" d="M68.2 45.41c.4.41.0 2.26-.26 2.76-1.94 3.58-4.99 7.58-9.2 11.05-1.76 1.45-1.17 2.99 1.34 2.48 5.85-1.19 17.13-4.38 26.36-6.34"/><path id="kvg:05e44-s9" kvg:type="㇔" d="M80.47 49.02c3.63 2.4 9.37 9.88 10.28 13.61"/><g id="kvg:05e44-g5" kvg:element="土"><path id="kvg:05e44-s10" kvg:type="㇐" d="M55.16 77.02c.78.29 2.2.35 2.97.29 6.75-.52 23.87-2.73 31.13-2.73 1.29.0 2.07.13 2.71.28"/><path id="kvg:05e44-s11" kvg:type="㇑a" d="M72.04 64.78c.08.17 1.1 2.45 1.08 3.52C73 74.37 73 89.6 73 91.33"/><path id="kvg:05e44-s12" kvg:type="㇐" d="M48.25 92.23c1.03.34 2.92.32 3.94.34 9.06.18 21.84-2.21 41.54-2.3 1.72-.01 2.74.16 3.6.33"/></g></g></g></g></g></svg>