<!DOCTYPE svg PUBLIC "-//W3C//DTD SVG 1.0//EN" "http://www.w3.org/TR/2001/REC-SVG-20010904/DTD/svg10.dtd" [
<!ATTLIST g
xmlns:kvg CDATA #FIXED "http://kanjivg.tagaini.net"
kvg:element CDATA #IMPLIED
kvg:variant CDATA #IMPLIED
kvg:partial CDATA #IMPLIED
kvg:original CDATA #IMPLIED
kvg:part CDATA #IMPLIED
kvg:number CDATA #IMPLIED
kvg:tradForm CDATA #IMPLIED
kvg:radicalForm CDATA #IMPLIED
kvg:position CDATA #IMPLIED
kvg:radical CDATA #IMPLIED
kvg:phon CDATA #IMPLIED >
<!ATTLIST path
xmlns:kvg CDATA #FIXED "http://kanjivg.tagaini.net"
kvg:type CDATA #IMPLIED >
]><svg xmlns="http://www.w3.org/2000/svg" width="109" height="109" viewBox="0 0 109 109"><g id="kvg:StrokePaths_05e7f" style="fill:none;stroke:#000000;stroke-width:3;stroke-linecap:round;stroke-linejoin:round;"><g id="kvg:05e7f" kvg:element="广" kvg:radical="general"><path id="kvg:05e7f-s1" kvg:type="㇑a" d="M52.31 11.63c.76.38 2.36 2.88 2.51 3.65s.08 4.65-.07 9.46"/><g id="kvg:05e7f-g1" kvg:element="厂"><path id="kvg:05e7f-s2" kvg:type="㇐" d="M21.63 27.23c1.52.54 4.3.63 5.82.54 15.8-.91 38.3-4.02 58.11-4.23 2.53-.03 4.05.26 5.31.53"/><path id="kvg:05e7f-s3" kvg:type="㇒" d="M26.49 30c.04 1.59.09 4.1-.09 6.38-1.08 13.46-3.5 46.09-15.1 60.59"/></g></g></g><g id="kvg:StrokeNumbers_05e7f" style="font-size:8;fill:#808080"><text transform="matrix(1 0 0 1 44.50 11.38)">1</text><text transform="matrix(1 0 0 1 24.00 24.80)">2</text><text transform="matrix(1 0 0 1 18.25 37.23)">3</text></g></svg>