<!DOCTYPE svg PUBLIC "-//W3C//DTD SVG 1.0//EN" "http://www.w3.org/TR/2001/REC-SVG-20010904/DTD/svg10.dtd" [
<!ATTLIST g
xmlns:kvg CDATA #FIXED "http://kanjivg.tagaini.net"
kvg:element CDATA #IMPLIED
kvg:variant CDATA #IMPLIED
kvg:partial CDATA #IMPLIED
kvg:original CDATA #IMPLIED
kvg:part CDATA #IMPLIED
kvg:number CDATA #IMPLIED
kvg:tradForm CDATA #IMPLIED
kvg:radicalForm CDATA #IMPLIED
kvg:position CDATA #IMPLIED
kvg:radical CDATA #IMPLIED
kvg:phon CDATA #IMPLIED >
<!ATTLIST path
xmlns:kvg CDATA #FIXED "http://kanjivg.tagaini.net"
kvg:type CDATA #IMPLIED >
]><svg xmlns="http://www.w3.org/2000/svg" width="109" height="109" viewBox="0 0 109 109"><g id="kvg:StrokePaths_05e74" style="fill:none;stroke:#000000;stroke-width:3;stroke-linecap:round;stroke-linejoin:round;"><g id="kvg:05e74" kvg:element="年"><g id="kvg:05e74-g1" kvg:element="丿" kvg:radical="nelson"><path id="kvg:05e74-s1" kvg:type="㇒" d="M40.01 11.89c.24 1.61-.01 2.86-.84 4.46-2.53 4.84-6.91 11.4-15.86 19.62"/></g><g id="kvg:05e74-g2" kvg:element="干" kvg:part="1" kvg:radical="tradit"><path id="kvg:05e74-s2" kvg:type="㇐" d="M39.13 23.62c2.25.38 4.4.18 5.79.03 11.7-1.27 21.33-2.9 33.22-4.07 2.3-.23 4.2.0 5.35.26"/><g id="kvg:05e74-g3" kvg:element="十"><path id="kvg:05e74-s3" kvg:type="㇐" d="M30.13 43.59c1.36.33 3.87.46 5.21.33 10.91-1.05 28.53-3.42 40.78-4.26 2.26-.15 3.63.16 4.76.32"/></g></g><path id="kvg:05e74-s4" kvg:type="㇑a" d="M33.75 44.5c1 1.25 1 1.97 1.01 3.5C34.8 52.33 35 65.29 35 66.25"/><path id="kvg:05e74-s5" kvg:type="㇐" d="M13.88 67.74c1.97.47 5.61.66 7.57.47 20.21-2.03 36.35-4.62 66.65-5.31 3.29-.08 5.26.22 6.91.46"/><g id="kvg:05e74-g4" kvg:element="干" kvg:part="2" kvg:radical="tradit"><path id="kvg:05e74-s6" kvg:type="㇑" d="M56.56 25.46c1.12 1.12 1.79 3.54 1.79 4.94.0.89-.05 44.26-.13 61.6-.01 3.12-.03 5.39-.05 6.38"/></g></g></g><g id="kvg:StrokeNumbers_05e74" style="font-size:8;fill:#808080"><text transform="matrix(1 0 0 1 32.25 11.50)">1</text><text transform="matrix(1 0 0 1 46.50 19.50)">2</text><text transform="matrix(1 0 0 1 31.50 41.50)">3</text><text transform="matrix(1 0 0 1 27.50 53.50)">4</text><text transform="matrix(1 0 0 1 6.50 69.50)">5</text><text transform="matrix(1 0 0 1 50.50 33.50)">6</text></g></svg>