<svg xmlns="http://www.w3.org/2000/svg" width="109" height="109" viewBox="0 0 109 109"><g id="kvg:StrokePaths_05e7b"><g id="kvg:05e7b" kvg:element="幻"><g id="kvg:05e7b-g1" kvg:element="幺" kvg:position="left" kvg:radical="general"><path id="kvg:05e7b-s1" kvg:type="㇜" d="M30.91 20.87c.38 1.49.58 2.56-.19 4.21C27.38 32.25 24 39 19.35 45.37c-.64.88-.33 2.42.32 2.89C23.75 51.25 26 53 31.17 57.05"/><path id="kvg:05e7b-s2" kvg:type="㇜" d="M44.87 32.6c.38 1.28.38 3.03-.32 4.37-5.58 10.74-18.1 30.55-27.24 42.69-1.23 1.63-.06 3.13 1.44 2.59 12-4.25 19-6.75 29.16-10.48"/><path id="kvg:05e7b-s3" kvg:type="㇔" d="M42.34 60.66c3.62 3.51 9.36 14.45 10.26 19.92"/></g><g id="kvg:05e7b-g2" kvg:position="right"><path id="kvg:05e7b-s4" kvg:type="㇆" d="M55.25 32.25c2.74 1.17 5.54 1.08 8.38.55 9.62-1.8 17.24-3.68 25.33-5.7 5.2-1.3 7.05.28 6.45 5.38-2.07 17.45-5.95 36.36-11.91 50.26C79 93.25 73.82 84.09 72 83"/></g></g></g></svg>