<svg xmlns="http://www.w3.org/2000/svg" width="109" height="109" viewBox="0 0 109 109"><g id="kvg:StrokePaths_05e81"><g id="kvg:05e81" kvg:element="庁"><g id="kvg:05e81-g1" kvg:element="广" kvg:position="tare" kvg:radical="general"><path id="kvg:05e81-s1" kvg:type="㇑a" d="M54.81 12.38c1.09 1.09 1.51 2.62 1.51 4.4.0 1.46-.07 6.71-.07 9.21"/><g id="kvg:05e81-g2" kvg:element="厂"><path id="kvg:05e81-s2" kvg:type="㇐" d="M23.63 29.23c3.5.77 6.89.34 10 .03 15.4-1.54 31.85-2.97 47.39-4.25 2.73-.23 5.18-.26 7.87.32"/><path id="kvg:05e81-s3" kvg:type="㇒" d="M26.24 30.25c1.07 1.07 1.26 2.53 1.15 4.5C26.5 50.75 24 76.5 10.56 89.72"/></g></g><g id="kvg:05e81-g3" kvg:element="丁" kvg:position="tarec" kvg:phon="丁"><g id="kvg:05e81-g4" kvg:element="一"><path id="kvg:05e81-s4" kvg:type="㇐" d="M35.24 48.8c2.64.45 5.44.33 7.75.06 11.64-1.36 27.14-3.11 40.5-3.58 2.55-.09 5.02-.12 7.52.47"/></g><g id="kvg:05e81-g5" kvg:element="亅"><path id="kvg:05e81-s5" kvg:type="㇚" d="M61.91 49.49c.86.86 1.3 2.13 1.3 3.93.0 12.35-.09 35.12-.09 39.32.0 9.53-7.25-.08-8.51-1.14"/></g></g></g></g></svg>