<!DOCTYPE svg PUBLIC "-//W3C//DTD SVG 1.0//EN" "http://www.w3.org/TR/2001/REC-SVG-20010904/DTD/svg10.dtd" [
<!ATTLIST g
xmlns:kvg CDATA #FIXED "http://kanjivg.tagaini.net"
kvg:element CDATA #IMPLIED
kvg:variant CDATA #IMPLIED
kvg:partial CDATA #IMPLIED
kvg:original CDATA #IMPLIED
kvg:part CDATA #IMPLIED
kvg:number CDATA #IMPLIED
kvg:tradForm CDATA #IMPLIED
kvg:radicalForm CDATA #IMPLIED
kvg:position CDATA #IMPLIED
kvg:radical CDATA #IMPLIED
kvg:phon CDATA #IMPLIED >
<!ATTLIST path
xmlns:kvg CDATA #FIXED "http://kanjivg.tagaini.net"
kvg:type CDATA #IMPLIED >
]><svg xmlns="http://www.w3.org/2000/svg" width="109" height="109" viewBox="0 0 109 109"><g id="kvg:StrokePaths_05ea0" style="fill:none;stroke:#000000;stroke-width:3;stroke-linecap:round;stroke-linejoin:round;"><g id="kvg:05ea0" kvg:element="庠"><g id="kvg:05ea0-g1" kvg:element="广" kvg:position="tare" kvg:radical="general"><path id="kvg:05ea0-s1" kvg:type="㇑a" d="M51.81 9.63c.76.38 2.36 2.88 2.51 3.65s.08 4.65-.07 9.46"/><g id="kvg:05ea0-g2" kvg:element="厂"><path id="kvg:05ea0-s2" kvg:type="㇐" d="M21.13 25.05c1.6.47 4.54.55 6.14.47 16.67-.79 39.35-4.37 55.5-4.99 2.67-.1 4.27.23 5.61.46"/><path id="kvg:05ea0-s3" kvg:type="㇒" d="M26 26c.04 1.57.05 4.05-.09 6.31C25 47 24 78 11.31 92.22"/></g></g><g id="kvg:05ea0-g3" kvg:element="羊" kvg:position="tarec"><g id="kvg:05ea0-g4" kvg:element="䒑"><path id="kvg:05ea0-s4" kvg:type="㇔" d="M42.05 29.1c2.28 1.65 5.88 6.77 6.45 9.33"/><path id="kvg:05ea0-s5" kvg:type="㇒" d="M71.62 24.64c.02.36.05.93-.05 1.44-.56 3.04-3.76 9.71-8.14 13.8"/><path id="kvg:05ea0-s6" kvg:type="㇐" d="M34.92 44.64c.84.42 2.38.46 3.22.42 5.95-.3 34.57-4.71 42.14-4.56 1.4.03 2.24.2 2.94.41"/></g><path id="kvg:05ea0-s7" kvg:type="㇐" d="M36.42 59.49c.96.44 2.71.51 3.67.44 8.06-.6 30-4.64 38.62-4.48 1.6.03 2.55.21 3.35.43"/><path id="kvg:05ea0-s8" kvg:type="㇐" d="M29.3 76.2c1.52.43 4.31.51 5.83.43 11.7-.59 34.28-4.4 51.5-4.19 2.53.03 4.06.21 5.32.43"/><path id="kvg:05ea0-s9" kvg:type="㇑" d="M56.67 45.77c1 .4 1.6 1.8 1.8 2.61.2.8.0 47.11-.2 52.12"/></g></g></g><g id="kvg:StrokeNumbers_05ea0" style="font-size:8;fill:#808080"><text transform="matrix(1 0 0 1 44.85 10.50)">1</text><text transform="matrix(1 0 0 1 21.50 22.50)">2</text><text transform="matrix(1 0 0 1 18.50 34.50)">3</text><text transform="matrix(1 0 0 1 35.50 33.50)">4</text><text transform="matrix(1 0 0 1 62.50 31.50)">5</text><text transform="matrix(1 0 0 1 32.50 41.50)">6</text><text transform="matrix(1 0 0 1 34.50 56.50)">7</text><text transform="matrix(1 0 0 1 27.50 73.50)">8</text><text transform="matrix(1 0 0 1 50.50 52.50)">9</text></g></svg>