<svg xmlns="http://www.w3.org/2000/svg" width="109" height="109" viewBox="0 0 109 109"><g id="kvg:StrokePaths_05eb8" style="fill:none;stroke:#000000;stroke-width:3;stroke-linecap:round;stroke-linejoin:round;"><g id="kvg:05eb8" kvg:element="庸"><g id="kvg:05eb8-g1" kvg:element="广" kvg:position="tare" kvg:radical="general"><path id="kvg:05eb8-s1" kvg:type="㇑a" d="M54.56 9.38c1.09 1.09 1.51 2.49 1.51 4.15.0.79-.07 4.21-.07 7.21"/><g id="kvg:05eb8-g2" kvg:element="厂"><path id="kvg:05eb8-s2" kvg:type="㇐" d="M21.38 24.48c2.98 1.06 6.94.65 10 .24 15.5-2.09 32.55-4.44 49.5-5.07 3.27-.12 6.53-.02 9.75.67"/><path id="kvg:05eb8-s3" kvg:type="㇒" d="M24.99 26c.94.94 1.15 2.41 1.16 4.6.09 21.65-3.41 45.78-14.85 60.62"/></g></g><g id="kvg:05eb8-g3" kvg:position="tarec"><g id="kvg:05eb8-g4" kvg:element="⺕" kvg:variant="true" kvg:original="彑"><path id="kvg:05eb8-s4" kvg:type="㇕c" d="M35.83 33.15c2.42.6 4.34.84 6.8.47C55 31.75 67.8 30 75.86 30c2.63.0 4.29 1.05 3.74 3.77-.94 4.58-1.67 7.28-2.96 15.58"/><path id="kvg:05eb8-s5" kvg:type="㇐" d="M32.43 43.04c3.18.35 6.01.41 9.2-.01C57.25 41 71.9 39.41 84 38.55c3.2-.23 6.16-.3 9.32.33"/><path id="kvg:05eb8-s6" kvg:type="㇐" d="M37.75 52.54c2.14.26 3.94.62 6.12.47 9.29-.63 20.33-2.2 29.51-3.12 2.27-.23 4.44-.39 6.72-.16"/></g><g id="kvg:05eb8-g5" kvg:element="用" kvg:variant="true" kvg:phon="用"><path id="kvg:05eb8-s7" kvg:type="㇑/㇒" d="M35.11 61.31c1.04 1.04 1.23 2.31 1.23 3.59.0.61-.06 18.03-.05 28.1.0 3.24.0 5.54.0 5.96"/><path id="kvg:05eb8-s8" kvg:type="㇆a" d="M37.32 63.34c7.2-.77 33.02-3.86 39.08-4.58 4.34-.52 5.1 1.49 5.1 5.24.0 4.25.08 15.1.08 28.06.0 11.24-6.04 1.68-7.35 1"/><path id="kvg:05eb8-s9" kvg:type="㇐a" d="M37.32 73.08C49 71.75 69 69.88 80.26 69.3"/><path id="kvg:05eb8-s10" kvg:type="㇐a" d="M37.51 83.15C47 82.25 70.75 80 80.32 79.59"/><path id="kvg:05eb8-s11" kvg:type="㇑" d="M56.37 25c.88.88 1.21 2.12 1.21 3.75.0 3.62.01 44.62.01 63.12.0 3.36-.05 5.77-.09 6.75"/></g></g></g></g></svg>