<svg xmlns="http://www.w3.org/2000/svg" width="109" height="109" viewBox="0 0 109 109"><g id="kvg:StrokePaths_05eca"><g id="kvg:05eca" kvg:element="廊"><g id="kvg:05eca-g1" kvg:element="广" kvg:position="tare" kvg:radical="general"><path id="kvg:05eca-s1" kvg:type="㇑a" d="M53.31 8.88c1.03 1.03 1.26 1.99 1.26 3.4.0 1.71-.07 5.46-.07 8.21"/><g id="kvg:05eca-g2" kvg:element="厂"><path id="kvg:05eca-s2" kvg:type="㇐" d="M19.88 23.48c3.23 1.15 7.17.56 10.49.24 15.26-1.47 34.91-3.19 49.76-4.09 3.19-.19 6.36-.23 9.5.44"/><path id="kvg:05eca-s3" kvg:type="㇒" d="M23.24 24.75c1 1 1.16 2.5 1.16 4.13.0 13.5-2.66 45.49-14.85 61.59"/></g></g><g id="kvg:05eca-g3" kvg:element="郎" kvg:position="tarec" kvg:phon="郎"><g id="kvg:05eca-g4" kvg:element="良" kvg:partial="true" kvg:position="left"><path id="kvg:05eca-s4" kvg:type="㇑a" d="M43.07 28.51c.9.9 1.05 1.86 1.05 3.35.0.95-.08 3.11-.08 5.44"/><g id="kvg:05eca-g5" kvg:element="艮" kvg:partial="true"><path id="kvg:05eca-s5" kvg:type="㇕" d="M31.64 38.7c1.11.8 2.94.79 5.13.49 5.49-.74 15.29-1.74 16.27-1.87 2.33-.32 2.91 1.18 2.82 2.67-.3 4.97-.76 12.46-1.33 18.55-.15 1.64-.32 3.17-.49 4.53"/><path id="kvg:05eca-s6" kvg:type="㇐a" d="M34.51 50.56c3.85-.4 14.06-1.91 19.9-2.19"/><path id="kvg:05eca-s7" kvg:type="㇐a" d="M34.42 62.13c4.17-.43 10.71-1.38 18.66-2.17"/><path id="kvg:05eca-s8" kvg:type="㇙" d="M32.39 39.7c.89.89 1.05 2.05 1.05 3.28.0.83-.06 31.26-.07 40.89.0 2.89 1.06 3.19 3.49 1.67 4.13-2.57 10.98-7.66 15.45-10.41"/><path id="kvg:05eca-s9" kvg:type="㇔" d="M49.19 68.79c3 2.67 7.71 9.79 9.43 15.43"/></g></g><g id="kvg:05eca-g6" kvg:element="⻏" kvg:variant="true" kvg:original="邑" kvg:position="right"><path id="kvg:05eca-s10" kvg:type="㇇" d="M63.06 35.37c1.53.28 3.02.61 4.58.34 7.11-1.21 12.86-2.21 16.95-3.21 3.53-.87 4.83 1.84 3.49 4.4C86.12 40.62 84 45 80.5 50.54"/><path id="kvg:05eca-s11" kvg:type="㇁" d="M80.67 51.06C97.75 65.75 94 91.25 82.53 82.45"/><path id="kvg:05eca-s12" kvg:type="㇑" d="M66.09 36.45c.92.92 1.15 2.05 1.15 3.48.0.71-.09 36.82-.09 53.07.0 3.53-.02 5.75-.02 7.75"/></g></g></g></g></svg>