<!DOCTYPE svg PUBLIC "-//W3C//DTD SVG 1.0//EN" "http://www.w3.org/TR/2001/REC-SVG-20010904/DTD/svg10.dtd" [
<!ATTLIST g
xmlns:kvg CDATA #FIXED "http://kanjivg.tagaini.net"
kvg:element CDATA #IMPLIED
kvg:variant CDATA #IMPLIED
kvg:partial CDATA #IMPLIED
kvg:original CDATA #IMPLIED
kvg:part CDATA #IMPLIED
kvg:number CDATA #IMPLIED
kvg:tradForm CDATA #IMPLIED
kvg:radicalForm CDATA #IMPLIED
kvg:position CDATA #IMPLIED
kvg:radical CDATA #IMPLIED
kvg:phon CDATA #IMPLIED >
<!ATTLIST path
xmlns:kvg CDATA #FIXED "http://kanjivg.tagaini.net"
kvg:type CDATA #IMPLIED >
]><svg xmlns="http://www.w3.org/2000/svg" width="109" height="109" viewBox="0 0 109 109"><g id="kvg:StrokePaths_05ecf" style="fill:none;stroke:#000000;stroke-width:3;stroke-linecap:round;stroke-linejoin:round;"><g id="kvg:05ecf" kvg:element="廏"><g id="kvg:05ecf-g1" kvg:element="广" kvg:position="tare" kvg:radical="general"><path id="kvg:05ecf-s1" kvg:type="㇑a" d="M51.81 11.63c.76.38 2.36 2.88 2.51 3.65s.08 3.65-.07 8.46"/><g id="kvg:05ecf-g2" kvg:element="厂"><path id="kvg:05ecf-s2" kvg:type="㇐" d="M19.63 26.78c1.76.49 4.98.57 6.73.49 18.28-.83 43.15-4.58 60.87-5.23 2.92-.11 4.68.24 6.15.48"/><path id="kvg:05ecf-s3" kvg:type="㇒" d="M24.5 27.5c.04 1.45.09 3.75-.09 5.83-1.04 12.3-1.91 41.92-14.6 55.38"/></g></g><g id="kvg:05ecf-g3" kvg:element="𣪘" kvg:position="tarec"><g id="kvg:05ecf-g4" kvg:element="皀" kvg:position="left"><g id="kvg:05ecf-g5" kvg:element="白" kvg:position="top"><g id="kvg:05ecf-g6" kvg:position="top"><path id="kvg:05ecf-s4" kvg:type="㇔" d="M43.19 32.5c.15.33.21.76.14 1.03-.51 2.03-2.09 5.83-3.8 8.14"/></g><g id="kvg:05ecf-g7" kvg:element="日" kvg:position="bottom"><path id="kvg:05ecf-s5" kvg:type="㇑" d="M32.71 42.35c.54.4 1.06 1.91 1.13 2.52.23 1.81.63 12.61.96 17.59"/><path id="kvg:05ecf-s6" kvg:type="㇕a" d="M34.03 43.93c1.79-.08 19.64-2.29 21.26-2.42 1.03-.08 1.45.86 1.45 1.83.0 1.66-1.09 13.39-1.94 18.77"/><path id="kvg:05ecf-s7" kvg:type="㇐a" d="M35.19 52.05c3.74-.23 18.18-1.8 20.91-1.8"/><path id="kvg:05ecf-s8" kvg:type="㇐a" d="M35 61.27c4.48-.25 15.1-1.69 19.88-1.81"/></g></g><g id="kvg:05ecf-g8" kvg:element="匕" kvg:position="bottom"><path id="kvg:05ecf-s9" kvg:type="㇒" d="M53.26 68.23c.13.83-.19 1.69-.53 2.03-2.19 2.21-9.01 6.74-16.34 9.73"/><path id="kvg:05ecf-s10" kvg:type="㇟" d="M33.61 68.07c.48.75.51 1.24.67 2.24.16 1-.06 12.37-.06 15.48.0 8.01 6.38 6.75 11.82 6.75 8.97.0 11.09-2.54 11.09-9.41"/></g></g><g id="kvg:05ecf-g9" kvg:element="殳" kvg:position="right"><g id="kvg:05ecf-g10" kvg:element="几" kvg:position="top"><g id="kvg:05ecf-g11" kvg:element="丿"><path id="kvg:05ecf-s11" kvg:type="㇒" d="M67.22 32.59c.24.6.97 2.91.95 3.79-.17 9.09-1.96 19.57-7.21 23.39"/></g><path id="kvg:05ecf-s12" kvg:type="㇈b" d="M68.69 34.2c2.81-.2 9.17-1.14 10.37-1.6 1.79-.69 3.19 1.45 3.01 2.97-.36 2.97-2.04 7.99-2.04 10.96.0 4.11.9 7.08 6.81 7.08 6.99.0 6.81-.46 6.81-8.9"/></g><g id="kvg:05ecf-g12" kvg:element="又" kvg:position="bottom"><path id="kvg:05ecf-s13" kvg:type="㇇" d="M64.11 65.08c1.08.27 1.21.68 3.36.27 2.15-.41 16.54-3.72 18.02-4.12 1.48-.41 2.68 1.57 2.02 2.98C80.7 78.71 72.91 88.93 60 95.67"/><path id="kvg:05ecf-s14" kvg:type="㇏" d="M66.93 70.53c2.71.54 15.95 15.1 25.39 21.06 1.47.93 2.54 1.55 3.91 1.86"/></g></g></g></g></g><g id="kvg:StrokeNumbers_05ecf" style="font-size:8;fill:#808080"><text transform="matrix(1 0 0 1 44.85 11.85)">1</text><text transform="matrix(1 0 0 1 23.66 23.85)">2</text><text transform="matrix(1 0 0 1 16.71 36.35)">3</text><text transform="matrix(1 0 0 1 35.50 33.50)">4</text><text transform="matrix(1 0 0 1 27.50 50.50)">5</text><text transform="matrix(1 0 0 1 33.50 40.50)">6</text><text transform="matrix(1 0 0 1 39.50 49.50)">7</text><text transform="matrix(1 0 0 1 39.75 58.60)">8</text><text transform="matrix(1 0 0 1 45.50 68.50)">9</text><text transform="matrix(1 0 0 1 23.75 76.45)">10</text><text transform="matrix(1 0 0 1 57.50 36.50)">11</text><text transform="matrix(1 0 0 1 68.50 31.50)">12</text><text transform="matrix(1 0 0 1 66.50 62.50)">13</text><text transform="matrix(1 0 0 1 60.50 78.50)">14</text></g></svg>