<svg xmlns="http://www.w3.org/2000/svg" width="109" height="109" viewBox="0 0 109 109"><g id="kvg:StrokePaths_05ec3"><g id="kvg:05ec3" kvg:element="廃"><g id="kvg:05ec3-g1" kvg:element="广" kvg:position="tare" kvg:radical="general"><path id="kvg:05ec3-s1" kvg:type="㇑a" d="M53.77 11.88c1.05 1.05 1.39 2.24 1.39 3.47.0.75-.03 3.68-.03 6.02"/><g id="kvg:05ec3-g2" kvg:element="厂"><path id="kvg:05ec3-s2" kvg:type="㇐" d="M22.11 24.45c2.45.87 5.24.54 7.77.33 12.12-1.02 34.21-3.52 51.74-4.42 2.91-.15 5.68-.27 8.54.34"/><path id="kvg:05ec3-s3" kvg:type="㇒" d="M24.74 25.33c.84.84 1.14 2.17 1.17 4.31.17 12.82-2.58 47.3-13.6 61.07"/></g></g><g id="kvg:05ec3-g3" kvg:element="発" kvg:position="tarec" kvg:phon="発"><g id="kvg:05ec3-g4" kvg:element="癶" kvg:position="top"><g id="kvg:05ec3-g5" kvg:position="left"><path id="kvg:05ec3-s4" kvg:type="㇇" d="M36.73 34.45c1.23.57 2.48.44 4.43-.06 2.96-.76 4.98-1.51 9.06-2.68 3.2-.91 4.42.24 3.38 3.34C51.14 42.31 44.75 57 30.77 67.06"/><path id="kvg:05ec3-s5" kvg:type="㇔" d="M35.74 43.62C38.3 44.56 42.36 47.52 43 49"/></g><g id="kvg:05ec3-g6" kvg:position="right"><path id="kvg:05ec3-s6" kvg:type="㇒" d="M76.87 29.89c0 .73-.31 1.24-.66 1.65-1.58 1.83-3.35 3.63-6.97 6.41"/><path id="kvg:05ec3-s7" kvg:type="㇏" d="M60.53 32.61c5.37 4.18 18.72 17.77 26.84 24.9 2.07 1.82 4.78 3.23 7.13 4.66"/><path id="kvg:05ec3-s8" kvg:type="㇒" d="M86.97 37.95c.08.7-.15 1.3-.71 1.79-1.76 1.51-4.29 3.23-8.49 5.66"/></g></g><g id="kvg:05ec3-g7" kvg:position="bottom"><g id="kvg:05ec3-g8" kvg:element="二"><g id="kvg:05ec3-g9" kvg:position="top"><path id="kvg:05ec3-s9" kvg:type="㇐" d="M46.62 57.11c1.6.65 3.48.25 5.13.09 4.71-.45 12.33-1.29 17.16-1.95 1.57-.21 3.41-.34 4.97.04"/></g><g id="kvg:05ec3-g10" kvg:position="bottom"><path id="kvg:05ec3-s10" kvg:type="㇐" d="M36.23 74.48c2.65.65 6.14.3 8.54-.03 9.55-1.29 25.06-2.99 32.49-3.58 2.18-.17 4.57-.37 6.72.15"/></g></g><g id="kvg:05ec3-g11" kvg:element="儿" kvg:variant="true" kvg:original="八"><g id="kvg:05ec3-g12" kvg:element="丿" kvg:position="left"><path id="kvg:05ec3-s11" kvg:type="㇒" d="M54.09 59.99c.41.88.56 1.75.36 3.02-2.2 13.87-7.95 26.74-22.02 33.91"/></g><g id="kvg:05ec3-g13" kvg:position="right"><path id="kvg:05ec3-s12" kvg:type="㇟" d="M65.18 57.57c.94.94 1.24 2.43 1.24 3.62.0 6.7-.05 19-.05 23.56.0 9.29 1.25 10.05 11.17 10.05 11.46.0 12.93-1.05 12.93-8.13"/></g></g></g></g></g></g></svg>