<svg xmlns="http://www.w3.org/2000/svg" width="109" height="109" viewBox="0 0 109 109"><g id="kvg:StrokePaths_05edb"><g id="kvg:05edb" kvg:element="廛"><g id="kvg:05edb-g1" kvg:element="广" kvg:position="tare" kvg:radical="general"><path id="kvg:05edb-s1" kvg:type="㇑a" d="M51.31 11.13c.76.38 2.36 2.88 2.51 3.65s.08 3.15-.07 7.96"/><g id="kvg:05edb-g2" kvg:element="厂"><path id="kvg:05edb-s2" kvg:type="㇐" d="M18.63 24.85c1.62.42 4.61.49 6.23.42 16.92-.71 39.93-3.93 56.33-4.49 2.71-.09 4.33.2 5.69.42"/><path id="kvg:05edb-s3" kvg:type="㇒" d="M23 26c.04 1.59.08 4.12-.07 6.41C22.05 45.91 21.75 77 10.56 93.22"/></g></g><g id="kvg:05edb-g3" kvg:position="tarec"><g id="kvg:05edb-g4" kvg:element="里"><g id="kvg:05edb-g5" kvg:element="日"><path id="kvg:05edb-s4" kvg:type="㇑" d="M34.38 30.76c.29.3.3.51.46.89 1.32 3.13 2.56 11.03 3.38 16.86"/><path id="kvg:05edb-s5" kvg:type="㇕a" d="M35.75 32.29c12-1.29 30.2-3.24 38.51-3.78 3.05-.2 4.49.74 4.46 2.71-.05 2.64-1.99 10.11-3.39 14.41"/><path id="kvg:05edb-s6" kvg:type="㇐a" d="M37.15 39.2c3.33-.26 37.58-2.17 40.33-2.27"/><path id="kvg:05edb-s7" kvg:type="㇐a" d="M38.24 46.8c7.36-.28 27.2-1.97 37.36-2.43"/></g><path id="kvg:05edb-s8" kvg:type="㇑a" d="M54.62 32.15c.29.51 1.12 1.2 1.15 2.22.21 7.12.07 24.47.07 26.48"/><path id="kvg:05edb-s9" kvg:type="㇐" d="M36.65 53.95c.75.21 2.13.23 2.89.21 7.85-.24 25.13-2.33 34.84-2.37 1.26-.01 2.01.1 2.64.2"/><path id="kvg:05edb-s10" kvg:type="㇐" d="M28.17 62.92c1.16.35 3.28.4 4.44.35 12.06-.58 35.32-3.38 49.67-3.36 1.93.0 3.09.17 4.06.34"/></g><g id="kvg:05edb-g6" kvg:element="儿" kvg:variant="true" kvg:original="八"><g id="kvg:05edb-g7" kvg:element="丿" kvg:position="left"><path id="kvg:05edb-s11" kvg:type="㇒" d="M44.54 66.03c.05.32.1.83-.09 1.29-1.12 2.72-7.02 9.21-16.34 12.35"/></g><g id="kvg:05edb-g8" kvg:position="right"><path id="kvg:05edb-s12" kvg:type="㇟" d="M62.93 62.62c.5.36.9.78.93 1.34.14 2.47-.36 4.88-.36 6.56.0 3.93 6.04 3.49 12 3.49 6.28.0 10.41-.51 11.29-.79"/></g></g><g id="kvg:05edb-g9" kvg:element="土"><path id="kvg:05edb-s13" kvg:type="㇐" d="M35.36 83.89c.76.29 2.14.37 2.9.29 9.72-1 26.67-2.62 36.45-2.88 1.26-.03 2.02.14 2.65.29"/><path id="kvg:05edb-s14" kvg:type="㇑a" d="M54.23 70.04c.09.23 1.37 1.17 1.37 2.61.0 4.35.22 14.53.22 21.97"/><path id="kvg:05edb-s15" kvg:type="㇐" d="M26.19 96.44c1.17.42 3.32.51 4.49.42 14.48-1.17 40.34-2.48 53.29-3.03 1.95-.08 3.12.2 4.09.41"/></g></g></g></g></svg>