<svg xmlns="http://www.w3.org/2000/svg" width="109" height="109" viewBox="0 0 109 109"><g id="kvg:StrokePaths_05ed3" style="fill:none;stroke:#000000;stroke-width:3;stroke-linecap:round;stroke-linejoin:round;"><g id="kvg:05ed3" kvg:element="廓"><g id="kvg:05ed3-g1" kvg:element="广" kvg:position="tare" kvg:radical="general"><path id="kvg:05ed3-s1" kvg:type="㇑a" d="M55.31 12.63c.97.97 1.51 2.24 1.51 3.65.0.79-.07 3.09-.07 6.46"/><g id="kvg:05ed3-g2" kvg:element="厂"><path id="kvg:05ed3-s2" kvg:type="㇐" d="M24.38 25.48c3.07.59 6.39.6 9.49.33 16.25-1.43 32.51-3.15 46.88-4.03 3.22-.4 6.43-.3 9.63.3"/><path id="kvg:05ed3-s3" kvg:type="㇒" d="M25.99 26.25c1.07 1.07 1.23 2.99 1.15 5.21-.89 24.91-4.51 43.91-17.58 58.5"/></g></g><g id="kvg:05ed3-g3" kvg:element="郭" kvg:position="tarec"><g id="kvg:05ed3-g4" kvg:element="享" kvg:position="left"><g id="kvg:05ed3-g5" kvg:element="亠" kvg:position="top"><path id="kvg:05ed3-s4" kvg:type="㇑a" d="M48.21 30.25c1.02 1.02 1.12 2.12 1.12 2.99.0 2.93-.09 3.51-.09 5.3"/><path id="kvg:05ed3-s5" kvg:type="㇐" d="M32.3 40.57c1.95.58 3.94.7 5.96.37 5.6-.57 14.83-1.67 20.86-2.18 1.8-.01 3.6.01 5.4.06"/></g><g id="kvg:05ed3-g6" kvg:position="bottom"><g id="kvg:05ed3-g7" kvg:element="口"><path id="kvg:05ed3-s6" kvg:type="㇑" d="M37.71 47.78c.75.75 1.09 1.6 1.26 2.48.44 2.29.67 3.46.92 4.63.19.93.4 1.86.72 3.34"/><path id="kvg:05ed3-s7" kvg:type="㇕b" d="M38.89 48.42c5.09-.7 13.87-2.12 17.75-2.57 1.82-.21 2.72.81 2.3 2.55-.43 1.83-1.07 3.86-1.61 5.56"/><path id="kvg:05ed3-s8" kvg:type="㇐b" d="M41.38 57.12c2.56-.22 8.58-1.15 13.25-1.72 1.55-.19 2.95-.34 4.02-.41"/></g><g id="kvg:05ed3-g8" kvg:element="子" kvg:variant="true"><path id="kvg:05ed3-s9" kvg:type="㇖" d="M35.67 65.15c2.08.6 3.41.39 5.71.14 5.06-.76 13.86-2.17 16.76-2.62 1.25-.19 1.92.86.66 1.8-1.52 1.14-6.54 4.23-10.95 7.71"/><path id="kvg:05ed3-s10" kvg:type="㇁" d="M48.07 72.41c3.21 2.95 7.59 12.65 3.57 21.29-2.38 5.11-5.64 1.05-7.67-1.07"/><path id="kvg:05ed3-s11" kvg:type="㇀/㇐" d="M30.88 83.09c.64 1.12 2.8.59 3.89.18 6.41-2.4 16.43-5.75 26.07-9.25"/></g></g></g><g id="kvg:05ed3-g9" kvg:element="⻏" kvg:variant="true" kvg:original="邑" kvg:position="right"><path id="kvg:05ed3-s12" kvg:type="㇇" d="M68.35 33.4c1.75.75 4.02.73 5.24.52 4.73-.84 7.54-1.16 12.86-2.31 2.81-.61 3.92 1.82 2.71 3.99-1.21 2.17-7.35 12.19-9.47 15.29"/><path id="kvg:05ed3-s13" kvg:type="㇁" d="M79.05 50.87c17.7 10.38 13.28 44.76 1.92 31.27"/><path id="kvg:05ed3-s14" kvg:type="㇑" d="M70.1 34.15c1.07 1.07 1.49 2.23 1.49 3.65.0 2.96-.1 35.19-.15 51.95-.01 4.46-.02 7.83-.02 9.25"/></g></g></g></g></svg>