<svg xmlns="http://www.w3.org/2000/svg" width="109" height="109" viewBox="0 0 109 109"><g id="kvg:StrokePaths_05ee0"><g id="kvg:05ee0" kvg:element="廠"><g id="kvg:05ee0-g1" kvg:element="广" kvg:position="tare" kvg:radical="general"><path id="kvg:05ee0-s1" kvg:type="㇑a" d="M52.81 10.63c.97.97 1.01 2.62 1.01 3.65.0.79-.07 1.84-.07 6.71"/><g id="kvg:05ee0-g2" kvg:element="厂"><path id="kvg:05ee0-s2" kvg:type="㇐" d="M19.13 25.15c4.63 1.26 10-.09 14.61-.63 14.13-1.65 29.77-3.39 43.03-4.57 4-.35 7.92-.56 11.86.18"/><path id="kvg:05ee0-s3" kvg:type="㇒" d="M23.24 26.25c1.13 1.13 1.2 2.75 1.15 4.46-.76 23.41-2.76 41.16-13.83 60"/></g></g><g id="kvg:05ee0-g3" kvg:element="敞" kvg:position="tarec"><g id="kvg:05ee0-g4" kvg:element="尚" kvg:variant="true" kvg:position="left"><g id="kvg:05ee0-g5" kvg:element="⺌" kvg:variant="true" kvg:original="小" kvg:position="top"><path id="kvg:05ee0-s4" kvg:type="㇑" d="M45.1 30.37c.71.7.89 1.76.89 3.08.0 8.12-.08 15.02-.08 17.78"/><path id="kvg:05ee0-s5" kvg:type="㇔" d="M31.14 37.08c2.41 1.98 5.98 7.87 6.58 10.94"/><path id="kvg:05ee0-s6" kvg:type="㇒" d="M60 32.47c.07.91.02 1.83-.33 2.67-1.54 3.73-3.17 6.86-7.01 12.07"/></g><g id="kvg:05ee0-g6" kvg:element="冋" kvg:position="bottom"><g id="kvg:05ee0-g7" kvg:element="冂"><path id="kvg:05ee0-s7" kvg:type="㇑" d="M32.02 52.54c.97.97 1.13 2.08 1.13 3.74.0 3.77-.02 17.69.0 28.59.01 4.87.03 9.14.06 11.62"/><path id="kvg:05ee0-s8" kvg:type="㇆a" d="M33.66 53.78c8.81-.96 15.1-1.56 21.72-2.24 2.43-.25 3.56 1.36 3.57 3.71.02 9.91-.07 24.92-.07 35.75.0 6.31-1.88 5-4.39 1.25"/></g><g id="kvg:05ee0-g8" kvg:element="口"><path id="kvg:05ee0-s9" kvg:type="㇑" d="M39.48 62.52c.75.75.85 1.98.94 2.99.29 3.22.66 7.62.96 11.12.18 2.06.33 3.8.42 4.81"/><path id="kvg:05ee0-s10" kvg:type="㇕b" d="M41.39 63.81c1.64-.39 4.75-.88 6.75-1.21 2.11-.35 3.11.52 2.76 3.07-.31 2.22-.58 4.3-1.3 12.41"/><path id="kvg:05ee0-s11" kvg:type="㇐b" d="M42.52 79.7c3.48-.32 6.11-.57 8.42-.79"/></g></g></g><g id="kvg:05ee0-g9" kvg:element="攵" kvg:variant="true" kvg:original="攴" kvg:position="right"><g id="kvg:05ee0-g10" kvg:element="𠂉" kvg:position="top"><path id="kvg:05ee0-s12" kvg:type="㇒" d="M76.09 28.89c.18 1.29.03 2.27-.34 3.48-2.25 7.25-5.62 16.75-10.85 25.9"/><path id="kvg:05ee0-s13" kvg:type="㇐" d="M73.75 46.11c1.27.37 2.53.31 3.79-.18 3.29-.67 7.58-1.8 11.81-3.07 1.24-.37 2.55-.24 3.82-.09"/></g><g id="kvg:05ee0-g11" kvg:element="乂" kvg:position="bottom"><g id="kvg:05ee0-g12" kvg:element="丿"><path id="kvg:05ee0-s14" kvg:type="㇒" d="M84.73 48.88c.35 1.16.55 2 .18 4.12-3.28 18.51-8.28 31.88-21.79 43.26"/></g><path id="kvg:05ee0-s15" kvg:type="㇏" d="M68.65 60.39C70.5 61.46 79.8 76.22 87.1 85.66c2.78 3.6 4.91 5.85 8.16 7.68"/></g></g></g></g></g></svg>