<svg xmlns="http://www.w3.org/2000/svg" width="109" height="109" viewBox="0 0 109 109"><g id="kvg:StrokePaths_05ee9" style="fill:none;stroke:#000000;stroke-width:3;stroke-linecap:round;stroke-linejoin:round;"><g id="kvg:05ee9" kvg:element="廩"><g id="kvg:05ee9-g1" kvg:element="广" kvg:position="tare" kvg:radical="general"><path id="kvg:05ee9-s1" kvg:type="㇑a" d="M51.81 10.13c.76.38 2.36 2.88 2.51 3.65s.08 3.65-.07 8.46"/><g id="kvg:05ee9-g2" kvg:element="厂"><path id="kvg:05ee9-s2" kvg:type="㇐" d="M18.13 24.05c1.71.41 4.84.48 6.55.41 17.78-.69 41.98-3.33 59.22-3.87 2.84-.09 4.56.2 5.98.4"/><path id="kvg:05ee9-s3" kvg:type="㇒" d="M23.5 24.5c.04 1.61.08 4.15-.07 6.45-.9 13.61-1.68 47.55-12.62 61.26"/></g></g><g id="kvg:05ee9-g3" kvg:element="稟" kvg:position="tarec"><g id="kvg:05ee9-g4" kvg:element="㐭" kvg:position="top"><g id="kvg:05ee9-g5" kvg:element="亠" kvg:position="top"><path id="kvg:05ee9-s4" kvg:type="㇑a" d="M54.39 26c.78.35 2.05 1.69 2.05 2.38.0 2.54-.25 4.11-.1 6.26"/><path id="kvg:05ee9-s5" kvg:type="㇐" d="M31.67 35.7c1.67.27 3.13.5 5.05.38 12.53-.76 31.28-2.33 43.7-3.62 1.95-.2 2.96.03 4.41.48"/></g><g id="kvg:05ee9-g6" kvg:element="回" kvg:position="bottom"><g id="kvg:05ee9-g7" kvg:element="囗" kvg:part="1"><path id="kvg:05ee9-s6" kvg:type="㇑" d="M36.66 42.66c.58.48.67.99.79 1.6.81 4.1 2.35 10.04 3.54 18.07"/><path id="kvg:05ee9-s7" kvg:type="㇕a" d="M38.38 44.27c11.62-1.02 33.72-3.35 40.7-3.35 1.59.0 2.21.8 2.02 1.77-.87 4.58-2.55 10.82-4.29 17"/></g><g id="kvg:05ee9-g8" kvg:element="口"><path id="kvg:05ee9-s8" kvg:type="㇑" d="M48.3 47.84c.17.13.35.23.42.39.59 1.25 1.61 5.52 2.12 7.77"/><path id="kvg:05ee9-s9" kvg:type="㇕b" d="M49.37 48.87c3.51-.65 14.88-1.87 16.89-2.04.74-.06 1.18.36 1.07.71-.44 1.46-.95 3.61-1.59 5.63"/><path id="kvg:05ee9-s10" kvg:type="㇐b" d="M50.53 54.74c2.55-.32 13.17-1.1 16.42-1.39"/></g><g id="kvg:05ee9-g9" kvg:element="囗" kvg:part="2"><path id="kvg:05ee9-s11" kvg:type="㇐a" d="M41.54 61.36c9.65-.56 24.71-2.14 34.87-2.59"/></g></g></g><g id="kvg:05ee9-g10" kvg:element="禾" kvg:position="bottom"><g id="kvg:05ee9-g11" kvg:element="丿" kvg:position="top"><path id="kvg:05ee9-s12" kvg:type="㇒" d="M69.79 62.7c.1.22.21.56-.2.87-2.45 1.84-16.48 5.86-35.7 8.33"/></g><g id="kvg:05ee9-g12" kvg:element="木" kvg:position="bottom"><path id="kvg:05ee9-s13" kvg:type="㇐" d="M24.57 78.77c.64.29 3.21 1.04 4.91.86 7.68-.86 41.59-4.29 54.6-5.08 1.7-.1 3.84.34 4.91.62"/><path id="kvg:05ee9-s14" kvg:type="㇑" d="M53.65 71.14c.73.34 1.17 1.51 1.31 2.18s0 22.49-.15 26.68"/><path id="kvg:05ee9-s15" kvg:type="㇒" d="M55 77.38c-7.35 7.31-18.48 14.97-31.5 19.6"/><path id="kvg:05ee9-s16" kvg:type="㇏" d="M56.11 77.59c4.26 2.64 23.76 15.1 28.4 17.7 1.57.88 2.92 1.26 4.49 1.51"/></g></g></g></g></g></svg>