<svg xmlns="http://www.w3.org/2000/svg" width="109" height="109" viewBox="0 0 109 109"><g id="kvg:StrokePaths_05ee3" style="fill:none;stroke:#000000;stroke-width:3;stroke-linecap:round;stroke-linejoin:round;"><g id="kvg:05ee3" kvg:element="廣"><g id="kvg:05ee3-g1" kvg:element="广" kvg:position="tare" kvg:radical="general"><path id="kvg:05ee3-s1" kvg:type="㇑a" d="M52 8.88c.65.33 2.02 2.47 2.15 3.12.13.66.07 3.13-.06 7.24"/><g id="kvg:05ee3-g2" kvg:element="厂"><path id="kvg:05ee3-s2" kvg:type="㇐" d="M20.88 22.05c1.63.47 4.62.55 6.26.47 16.98-.79 40.08-4.37 56.53-4.99 2.72-.1 4.35.23 5.71.46"/><path id="kvg:05ee3-s3" kvg:type="㇒" d="M25.5 23c.04 1.65.09 4.27-.08 6.64-.99 14.01-3.21 47.99-13.86 63.07"/></g></g><g id="kvg:05ee3-g3" kvg:element="黃" kvg:variant="true" kvg:original="黄" kvg:position="tarec"><g id="kvg:05ee3-g4" kvg:element="廿"><path id="kvg:05ee3-s4" kvg:type="㇐" d="M34.21 35.88c1.04.37 2.96.44 3.99.37 12.75-.82 27.55-4 39.09-4.8 1.73-.12 2.78.18 3.65.37"/><path id="kvg:05ee3-s5" kvg:type="㇑" d="M45.32 27.58c.49.25 1.54 1.84 1.56 2.34.15 3.37 1.49 10.09 2.01 15.98"/><path id="kvg:05ee3-s6" kvg:type="㇑" d="M67.34 24.63c.5.29 1.07 2.16.99 2.74-.49 3.54-.91 8.48-1.73 15.08"/><path id="kvg:05ee3-s7" kvg:type="㇐" d="M48.58 44.11c3.2.0 17.81-1.82 21.4-1.82"/></g><g id="kvg:05ee3-g5" kvg:element="一"><path id="kvg:05ee3-s8" kvg:type="㇐" d="M30.38 53.67c1.31.45 3.73.6 5.03.45C47 52.75 69.75 50 84.54 49.83c2.19-.03 3.5.21 4.59.44"/></g><g id="kvg:05ee3-g6" kvg:element="由"><path id="kvg:05ee3-s9" kvg:type="㇑" d="M36.68 62.45c.69.37 1.65 1.94 1.71 2.43.44 3.74 1.57 13.06 2.38 20.31"/><path id="kvg:05ee3-s10" kvg:type="㇕" d="M39.35 64.04c12.65-1.79 31.65-3.89 38.86-4 2.98-.05 4.08 1.49 3.92 2.55-.59 3.86-2.88 11.91-6.04 20.19"/><path id="kvg:05ee3-s11" kvg:type="㇑" d="M56.77 54.21c.71.35 1.31 2.14 1.32 2.58.02 7.25.15 22.91.15 24.85"/><path id="kvg:05ee3-s12" kvg:type="㇐" d="M39.85 73.42c3.54-.19 36.3-3.36 39.22-3.36"/><path id="kvg:05ee3-s13" kvg:type="㇐" d="M41.74 83.67c10.23-1.34 22.39-2.53 34.45-3.01"/></g><g id="kvg:05ee3-g7" kvg:element="八"><path id="kvg:05ee3-s14" kvg:type="㇒" d="M48.93 86.72c.05.37.1.95-.1 1.48-1.16 3.11-7.84 8.87-16.98 13.05"/><path id="kvg:05ee3-s15" kvg:type="㇔" d="M68.52 87.12c5.2 2.31 13.43 9.51 14.74 13.11"/></g></g></g></g></svg>