<svg xmlns="http://www.w3.org/2000/svg" width="109" height="109" viewBox="0 0 109 109"><g id="kvg:StrokePaths_05ef8" style="fill:none;stroke:#000000;stroke-width:3;stroke-linecap:round;stroke-linejoin:round;"><g id="kvg:05ef8" kvg:element="廸"><g id="kvg:05ef8-g1" kvg:element="由" kvg:position="nyoc"><g id="kvg:05ef8-g2" kvg:element="日" kvg:part="1" kvg:partial="true"><path id="kvg:05ef8-s1" kvg:type="㇑" d="M48.73 33.24c.35 1.1.62 2.24.7 3.19.67 7.89 1.95 24.9 2.35 39.42"/><path id="kvg:05ef8-s2" kvg:type="㇕a" d="M50.08 35.58c12.4-1.94 28.75-3.3 36.59-4.06 2.88-.28 3.96 1.96 3.8 4.04-.58 7.61-1.31 25.07-3.12 37.59"/></g><g id="kvg:05ef8-g3" kvg:element="丨"><path id="kvg:05ef8-s3" kvg:type="㇑a" d="M66 14c1.07 1 1.7 2.46 1.71 3.78.04 13.06.2 50.77.2 54.18"/></g><g id="kvg:05ef8-g4" kvg:element="日" kvg:part="2" kvg:partial="true"><path id="kvg:05ef8-s4" kvg:type="㇐a" d="M50.94 52.89c3.42-.38 35.35-2.98 38.17-2.98"/><path id="kvg:05ef8-s5" kvg:type="㇐a" d="M54.31 72.91c8.66-.55 20.69-2.12 31.13-2.33"/></g></g><g id="kvg:05ef8-g5" kvg:element="廴" kvg:position="nyo" kvg:radical="general"><path id="kvg:05ef8-s6" kvg:type="㇇" d="M12.11 27.86c1.33.65 3.45 1.08 5.31.65s12.78-2.21 16.44-3.3c2.38-.71 2.52 1.15 1.19 2.22s-9.31 14.82-12.83 21.25"/><path id="kvg:05ef8-s7" kvg:type="㇇a" d="M22.96 49.75c6.04-2.25 8.37-3.42 11.1-3.94 2.94-.56 3.94.44 3.19 3.44C33.34 64.89 27.5 83.75 12 93.1"/><path id="kvg:05ef8-s8" kvg:type="㇏" d="M13.27 63.44c6.01-.21 35.48 23.81 65.85 30.63 3.24.73 7.11 1.32 10.13 1.68"/></g></g></g></svg>