<svg xmlns="http://www.w3.org/2000/svg" width="109" height="109" viewBox="0 0 109 109"><g id="kvg:StrokePaths_05ef3" style="fill:none;stroke:#000000;stroke-width:3;stroke-linecap:round;stroke-linejoin:round;"><g id="kvg:05ef3" kvg:element="廳"><g id="kvg:05ef3-g1" kvg:element="广" kvg:position="tare" kvg:radical="general"><path id="kvg:05ef3-s1" kvg:type="㇑a" d="M51.46 10.88c.67.34 2.09 2.55 2.23 3.23.14.68.07 4.12-.07 8.38"/><g id="kvg:05ef3-g2" kvg:element="厂"><path id="kvg:05ef3-s2" kvg:type="㇐" d="M19.63 24.48c1.52.54 4.3.63 5.82.54 15.8-.91 38.3-4.02 58.11-4.23 2.53-.03 4.05.26 5.31.53"/><path id="kvg:05ef3-s3" kvg:type="㇒" d="M24.5 25.25c.04 1.56.09 4.02-.08 6.26-1.02 13.2-3.33 45.23-14.35 59.46"/></g></g><g id="kvg:05ef3-g3" kvg:element="聽" kvg:position="tarec"><g id="kvg:05ef3-g4" kvg:position="left"><g id="kvg:05ef3-g5" kvg:element="耳"><path id="kvg:05ef3-s4" kvg:type="㇐" d="M27.55 34.95c.62.34 1.76.38 2.39.34 4.94-.32 11.26-2.61 18.59-3.2 1.04-.08 2.16.16 2.68.33"/><path id="kvg:05ef3-s5" kvg:type="㇑a" d="M32.39 36.42c.2.94.81 1.86.81 2.97s-.1 19.09-.1 23.07"/><path id="kvg:05ef3-s6" kvg:type="㇐a" d="M33.48 44.23c3.94-.6 7.41-.79 12.57-1.46"/><path id="kvg:05ef3-s7" kvg:type="㇐a" d="M33.69 52.59c4.76-.96 6.66-.96 12.47-1.64"/><path id="kvg:05ef3-s8" kvg:type="㇀" d="M27.95 63.37c.51.22 2.42.74 2.86.61 3.44-.98 12.67-3.5 15.3-4.5"/><path id="kvg:05ef3-s9" kvg:type="㇑" d="M45.65 35.17c.63 1 .7 1.17.7 2.27.0 1.24.1 50.48.1 59.57"/></g><g id="kvg:05ef3-g6" kvg:element="王" kvg:original="玉" kvg:partial="true"><path id="kvg:05ef3-s10" kvg:type="㇐" d="M26.33 71.05c.28.15 1.82.18 2.11.14 1.33-.2 7.25-1.34 10.45-1.56.44-.03 1.25-.11 1.61.02"/><path id="kvg:05ef3-s11" kvg:type="㇑a" d="M33.16 72.23c.39.32.67 1 .67 1.26.0 2.15.23 13.6.16 15.03"/><path id="kvg:05ef3-s12" kvg:type="㇐" d="M26.79 80.32c.25.15 2.02.17 2.27.13 1.47-.19 6.99-1.81 9.02-2.02.31-.03 1.46-.06 1.92.07"/><path id="kvg:05ef3-s13" kvg:type="㇐" d="M25.04 92.29c.33.11 1.66.96 2.17.75 3.26-1.38 7.91-3.37 12.87-5.75"/></g></g><g id="kvg:05ef3-g7" kvg:position="right"><g id="kvg:05ef3-g8" kvg:element="十"><path id="kvg:05ef3-s14" kvg:type="㇐" d="M56.16 35.16c.72.25 2.05.31 2.77.25 9.18-.82 19.11-3.18 25.44-3.28 1.2-.02 1.93.12 2.53.24"/><path id="kvg:05ef3-s15" kvg:type="㇑" d="M68.07 26.88c.33.26 1.03 1.91 1.09 2.42.07.51-.04 10.94-.11 14.13"/></g><g id="kvg:05ef3-g9" kvg:element="罒" kvg:variant="true" kvg:original="网"><path id="kvg:05ef3-s16" kvg:type="㇑" d="M55.49 44.69c.16.26.33.47.4.8.56 2.57 2.37 9.24 2.75 13.86"/><path id="kvg:05ef3-s17" kvg:type="㇕a" d="M56.5 45.57c3.57-1.01 27.69-4.11 29.58-4.45.69-.12 1.63.87 1.45 2.31-.39 3.02-1.72 8.62-2.75 12.93"/><path id="kvg:05ef3-s18" kvg:type="㇑a" d="M65.91 44.14c.11 1.71.87 10.07.98 11.99"/><path id="kvg:05ef3-s19" kvg:type="㇑a" d="M75.79 43.07c-.11 2.78-.66 10.07-.87 11.78"/><path id="kvg:05ef3-s20" kvg:type="㇐a" d="M59.16 57.52c2.23-.38 22.82-2.76 25.88-3.34"/></g><path id="kvg:05ef3-s21" kvg:type="㇐" d="M56.05 66.59c.91.11 2.7.73 4.3.48 6.91-1.11 20.08-3.47 25.04-3.97 1.4-.14 2.7.18 3.4.37"/><g id="kvg:05ef3-g10" kvg:element="心"><path id="kvg:05ef3-s22" kvg:type="㇔" d="M57.34 81.01c.22 1.56-2.17 8.46-3.9 11.07"/><path id="kvg:05ef3-s23" kvg:type="㇃" d="M61.75 75.35c4.09 10.17 8.65 18.62 22.15 19.7 6.38.51 6.82-2.79 1.48-7.56"/><path id="kvg:05ef3-s24" kvg:type="㇔a" d="M71.93 74.65c1.16 3.66 3.75 6.38 4.92 2.51"/><path id="kvg:05ef3-s25" kvg:type="㇔" d="M86.48 71.75c3.61 2.06 6.32 3.94 9.25 10.32"/></g></g></g></g></g></svg>