<svg xmlns="http://www.w3.org/2000/svg" width="109" height="109" viewBox="0 0 109 109"><g id="kvg:StrokePaths_05efc" style="fill:none;stroke:#000000;stroke-width:3;stroke-linecap:round;stroke-linejoin:round;"><g id="kvg:05efc" kvg:element="廼"><g id="kvg:05efc-g1" kvg:element="西" kvg:variant="true" kvg:original="襾" kvg:position="nyoc"><path id="kvg:05efc-s1" kvg:type="㇐" d="M44.45 18.7c.73.34 3.29.37 4.02.34 9.67-.4 28.53-2.65 40.07-2.84 1.22-.02 2.36.16 2.96.33"/><path id="kvg:05efc-s2" kvg:type="㇑" d="M45.19 34.93c.63.69 1.43 2.93 1.54 3.85.85 6.62 1.19 19.97 1.19 34.64"/><path id="kvg:05efc-s3" kvg:type="㇕a" d="M47.24 37.38c10.12-1.29 34.54-3.99 41.44-4.19 2.86-.08 4.14 2.3 3.79 5.46-.85 7.67-2.01 22.17-4.72 33.61"/><path id="kvg:05efc-s4" kvg:type="㇒" d="M61.27 21.14c.42 1.01.8 3.24.72 4.65-.74 12.66-2.14 28.95-10.81 33.79"/><path id="kvg:05efc-s5" kvg:type="㇟a" d="M72.8 20.01c.69.96 1.28 2.1 1.28 3.59.0 13-.33 19.87-.33 23.8.0 5.05.77 6.52 5.98 6.52 4.41.0 7.31-1.02 7.56-1.32"/><path id="kvg:05efc-s6" kvg:type="㇐a" d="M47.97 71.14c8.49-.46 30-1.42 40.32-1.62"/></g><g id="kvg:05efc-g2" kvg:element="廴" kvg:position="nyo" kvg:radical="general"><path id="kvg:05efc-s7" kvg:type="㇇" d="M12.33 26.9c1.38.66 3.58 1.09 5.5.66 1.93-.44 10.2-2.28 14.01-3.34 1.66-.46 2.79.79 1.8 2.25-1.89 2.79-11.63 18.35-15.49 23.6"/><path id="kvg:05efc-s8" kvg:type="㇇a" d="M17.83 50.93c5.23-.87 9.17-2.68 13.09-3.81 4.3-1.24 6.58-.19 5.78 3.71C34.5 61.5 26.75 83.25 12 91.59"/><path id="kvg:05efc-s9" kvg:type="㇏" d="M13.08 61.45c1.04-.04 3.3.15 5.8 1.77C34.75 73.5 54.75 86.75 76.42 92.97 79.77 93.93 85.25 95 90 95.25"/></g></g></g></svg>