<!DOCTYPE svg PUBLIC "-//W3C//DTD SVG 1.0//EN" "http://www.w3.org/TR/2001/REC-SVG-20010904/DTD/svg10.dtd" [
<!ATTLIST g
xmlns:kvg CDATA #FIXED "http://kanjivg.tagaini.net"
kvg:element CDATA #IMPLIED
kvg:variant CDATA #IMPLIED
kvg:partial CDATA #IMPLIED
kvg:original CDATA #IMPLIED
kvg:part CDATA #IMPLIED
kvg:number CDATA #IMPLIED
kvg:tradForm CDATA #IMPLIED
kvg:radicalForm CDATA #IMPLIED
kvg:position CDATA #IMPLIED
kvg:radical CDATA #IMPLIED
kvg:phon CDATA #IMPLIED >
<!ATTLIST path
xmlns:kvg CDATA #FIXED "http://kanjivg.tagaini.net"
kvg:type CDATA #IMPLIED >
]><svg xmlns="http://www.w3.org/2000/svg" width="109" height="109" viewBox="0 0 109 109"><g id="kvg:StrokePaths_05efa" style="fill:none;stroke:#000000;stroke-width:3;stroke-linecap:round;stroke-linejoin:round;"><g id="kvg:05efa" kvg:element="建"><g id="kvg:05efa-g1" kvg:element="聿" kvg:position="nyoc"><g id="kvg:05efa-g2" kvg:element="⺕" kvg:variant="true" kvg:original="彑"><path id="kvg:05efa-s1" kvg:type="㇕c" d="M49.33 22.26c1.8.22 3.42.47 5.06.25 8.36-1.13 21.38-2.57 28.57-3 2.33-.14 4.03 1.33 3.59 3.5-.93 4.62-2.05 10.24-3.37 16.71"/><path id="kvg:05efa-s2" kvg:type="㇐" d="M41.75 34.44c2.14.22 3.81.21 6.18.0 14.82-1.31 30.32-3.81 44.13-4.92 2.61-.21 4.75-.07 5.94.15"/><path id="kvg:05efa-s3" kvg:type="㇐" d="M49.43 44.53c1.11.22 3.11.35 4.43.22 8.77-.87 19.15-2.24 27.91-3.5 1.75-.25 2.88-.25 4.21-.03"/></g><path id="kvg:05efa-s4" kvg:type="㇐" d="M49.78 56.38c1.97.25 3.79.17 5.13.08 10.67-.71 16.51-1.84 28.64-2.8 2.22-.18 3.57-.09 4.68.07"/><path id="kvg:05efa-s5" kvg:type="㇐" d="M44.69 69.29c1.6.47 4.54.37 6.14.22 12.05-1.14 25.63-2.76 37.55-3.54 2.66-.17 4.56-.03 5.89.21"/><g id="kvg:05efa-g3" kvg:element="丨"><path id="kvg:05efa-s6" kvg:type="㇑" d="M66.7 10.75c.96.96 1.66 2.38 1.66 3.57.0 2.82-.11 46.71-.15 63.31-.01 2.84-.01 4.88-.01 5.78"/></g></g><g id="kvg:05efa-g4" kvg:element="廴" kvg:position="nyo" kvg:radical="general"><path id="kvg:05efa-s7" kvg:type="㇇" d="M13.92 30.59c1.71.79 3.25.69 4.77.39 3.68-.73 10.02-3.31 13.33-4.78 1.86-.82 3.44.53 2.31 2.46C31.5 33.5 27.5 42 23.83 51.25"/><path id="kvg:05efa-s8" kvg:type="㇇a" d="M24 52c4.08-1.48 7.38-2.38 9.79-2.85 2.29-.45 4.41.72 3.76 3.52-3.93 17.09-8.43 30.21-24.06 40.45"/><path id="kvg:05efa-s9" kvg:type="㇏" d="M13.05 64.69c5.42-.17 34.87 21.46 63.9 29.23 4.93 1.32 9.86 2.24 14.65 2.58"/></g></g></g><g id="kvg:StrokeNumbers_05efa" style="font-size:8;fill:#808080"><text transform="matrix(1 0 0 1 47.50 19.50)">1</text><text transform="matrix(1 0 0 1 41.50 31.56)">2</text><text transform="matrix(1 0 0 1 42.49 45.50)">3</text><text transform="matrix(1 0 0 1 42.49 56.50)">4</text><text transform="matrix(1 0 0 1 42.49 66.50)">5</text><text transform="matrix(1 0 0 1 57.50 11.50)">6</text><text transform="matrix(1 0 0 1 8.25 30.13)">7</text><text transform="matrix(1 0 0 1 32.50 46.63)">8</text><text transform="matrix(1 0 0 1 7.25 63.63)">9</text></g></svg>