<svg xmlns="http://www.w3.org/2000/svg" width="109" height="109" viewBox="0 0 109 109"><g id="kvg:StrokePaths_05f09"><g id="kvg:05f09" kvg:element="弉"><g id="kvg:05f09-g1" kvg:element="壯" kvg:position="top"><g id="kvg:05f09-g2" kvg:element="爿" kvg:position="left"><path id="kvg:05f09-s1" kvg:type="㇑" d="M41.34 12.22c.75.86 1.24 2.33 1.24 3.33.0 9.68-.02 36.77-.02 40.07"/><path id="kvg:05f09-s2" kvg:type="㇄" d="M23.76 14.56c.86.4 1.19 1.37 1.27 2.7.11 1.99-.97 8.89-1.23 10.97-.09.66.17 1.8 1.44 1.55 4.43-.89 12.52-2.03 17.02-2.02"/><path id="kvg:05f09-s3" kvg:type="㇐" d="M14.75 40.4c1.6.11 1.93.45 3.8.37 8.01-.33 18.26-2.71 23.85-2.9"/><path id="kvg:05f09-s4" kvg:type="㇒" d="M27.72 40.81c.03.44-.06 1.12-.06 1.75.0 5.36-1.67 11.31-9.72 16.73"/></g><g id="kvg:05f09-g3" kvg:element="士" kvg:position="right"><path id="kvg:05f09-s5" kvg:type="㇐" d="M49 30.32c.93.22 2.81.43 4.73.28 9.49-.74 25.82-2.94 37.07-3.18 1.45-.03 2.79.13 3.51.27"/><path id="kvg:05f09-s6" kvg:type="㇑a" d="M67.72 11.75c.13.32 1.93 1.65 1.93 3.68.0 7.07.11 28.07.11 34.48"/><path id="kvg:05f09-s7" kvg:type="㇐" d="M52.67 51.17c.79.19 2.25.23 3.04.19 9.84-.52 23.03-2.04 31.83-2.29 1.32-.04 2.12.09 2.78.18"/></g></g><g id="kvg:05f09-g4" kvg:element="廾" kvg:position="bottom" kvg:radical="general"><g id="kvg:05f09-g5" kvg:element="十" kvg:part="1"><path id="kvg:05f09-s8" kvg:type="㇐" d="M15.38 71.47c1.52.46 4.3.53 5.82.46 15.8-.76 50.05-4.86 70.11-5.25 2.53-.05 4.05.22 5.31.45"/></g><g id="kvg:05f09-g6" kvg:element="丿"><path id="kvg:05f09-s9" kvg:type="㇒" d="M42.47 59.97c1.36 1.26 1.14 1.84 1.22 3.16.65 12.01-2.01 29.1-23.69 35.66"/></g><g id="kvg:05f09-g7" kvg:element="十" kvg:part="2"><path id="kvg:05f09-s10" kvg:type="㇑" d="M68.87 57.23c1.09.42 1.74 1.9 1.96 2.74s0 33.76-.22 39.03"/></g></g></g></g></svg>