<svg xmlns="http://www.w3.org/2000/svg" width="109" height="109" viewBox="0 0 109 109"><g id="kvg:StrokePaths_05f0a" style="fill:none;stroke:#000000;stroke-width:3;stroke-linecap:round;stroke-linejoin:round;"><g id="kvg:05f0a" kvg:element="弊"><g id="kvg:05f0a-g1" kvg:element="敝" kvg:position="top" kvg:phon="敝"><g id="kvg:05f0a-g2" kvg:position="left"><g id="kvg:05f0a-g3" kvg:element="小" kvg:variant="true"><path id="kvg:05f0a-s1" kvg:type="㇑a" d="M34.66 11.13c.79.79 1.26 1.87 1.26 2.95.0.47-.05 12.54-.05 16.04"/><path id="kvg:05f0a-s2" kvg:type="㇔" d="M20.16 16.83c2.24 1.61 5.79 6.63 6.35 9.13"/><path id="kvg:05f0a-s3" kvg:type="㇒" d="M51.02 14.64c.03.29.06.75-.05 1.17-.55 2.02-3.23 6.02-7.07 9.21"/></g><g id="kvg:05f0a-g4" kvg:element="冂"><path id="kvg:05f0a-s4" kvg:type="㇑" d="M19.06 31.14C19.9 31.98 20 33 20 33.98c0 .29.09 11.43.11 18.39.01 2.89.01 5.01.0 5.26"/><path id="kvg:05f0a-s5" kvg:type="㇆a" d="M21.39 33.13c2.32-.17 20.94-2.6 27.01-3.24 3.13-.33 4.58.26 4.49 3.61-.21 7.35.23 15.3-.62 21.19-.65 4.49-3.51.61-4.63-.92"/></g><g id="kvg:05f0a-g5" kvg:element="小" kvg:variant="true"><path id="kvg:05f0a-s6" kvg:type="㇑" d="M36.39 35.87c.02.13.32.69.34 1.54.07 2.52.02 7.99-.02 12.1-.03 2.49-.05 4.48-.05 5"/><path id="kvg:05f0a-s7" kvg:type="㇒" d="M29.63 39.93c.04.58.03 1.17-.17 1.71-1.09 2.99-2.21 5.36-4.18 8.61"/><path id="kvg:05f0a-s8" kvg:type="㇔" d="M42.7 38.62c1.56 1.48 4.02 6.08 4.41 8.38"/></g></g><g id="kvg:05f0a-g6" kvg:element="攵" kvg:variant="true" kvg:original="攴" kvg:position="right"><g id="kvg:05f0a-g7" kvg:element="𠂉" kvg:position="top"><path id="kvg:05f0a-s9" kvg:type="㇒" d="M69.57 12.64c.03.48.15 1.27-.06 1.95C68 19.5 64.59 27.81 59.35 33.73"/><path id="kvg:05f0a-s10" kvg:type="㇐" d="M67.79 26.27c.78.2 2.24.0 2.67-.03 4.01-.3 9.71-1.97 15.34-3.34 1.12-.27 3.36-.47 4.5-.08"/></g><g id="kvg:05f0a-g8" kvg:element="乂" kvg:position="bottom"><g id="kvg:05f0a-g9" kvg:element="丿"><path id="kvg:05f0a-s11" kvg:type="㇒" d="M82.7 27.36c.05.77-.01 1.65-.56 2.72C76.46 41 72.25 47.5 60.15 54.25"/></g><path id="kvg:05f0a-s12" kvg:type="㇏" d="M64.53 34.45c2.65.27 15 12.18 23.42 18 2 1.38 4.07 2.55 6.3 3.54"/></g></g></g><g id="kvg:05f0a-g10" kvg:element="廾" kvg:position="bottom" kvg:radical="general"><g id="kvg:05f0a-g11" kvg:element="十" kvg:part="1"><path id="kvg:05f0a-s13" kvg:type="㇐" d="M15.38 73.22c2.93.89 6.51.54 9.51.25 16.62-1.6 42.56-3.35 61.26-4 3.27-.11 6.5-.26 9.74.33"/></g><g id="kvg:05f0a-g12" kvg:element="丿"><path id="kvg:05f0a-s14" kvg:type="㇒" d="M41.7 59.03c.62.91.95 2.1 1 3.43.5 12.08 1.92 26.42-18.46 35.63"/></g><g id="kvg:05f0a-g13" kvg:element="十" kvg:part="2"><path id="kvg:05f0a-s15" kvg:type="㇑" d="M67.62 57c.82.81.96 1.88.96 3.53.0 4.71.02 22.5.03 32.97.0 2.37.0 4.37.0 5.75"/></g></g></g></g></svg>