<svg xmlns="http://www.w3.org/2000/svg" width="109" height="109" viewBox="0 0 109 109"><g id="kvg:StrokePaths_05f11"><g id="kvg:05f11" kvg:element="弑"><g id="kvg:05f11-g1" kvg:position="left"><g id="kvg:05f11-g2" kvg:element="乂" kvg:position="top"><g id="kvg:05f11-g3" kvg:element="丿"><path id="kvg:05f11-s1" kvg:type="㇒" d="M43.73 14.68c.02 1.07-.07 2.55-.79 3.46C36.51 26.33 29.6 31.81 17.5 37.25"/></g><path id="kvg:05f11-s2" kvg:type="㇏" d="M17.2 19.47c7.1 1.1 21.02 8.39 26.84 16.5"/></g><g id="kvg:05f11-g4" kvg:element="木" kvg:position="bottom"><path id="kvg:05f11-s3" kvg:type="㇐" d="M13.53 52.72c1.72.53 3.47 1.03 5.43.81 4.79-.53 15.03-2.21 22.56-3.41 1.09-.17 2.56-.24 3.24.0"/><path id="kvg:05f11-s4" kvg:type="㇑" d="M30.77 37.5c1.09.39 2.11 2 2.11 3.71.0.81-.14 50.65-.36 55.54"/><path id="kvg:05f11-s5" kvg:type="㇒" d="M32.83 52.78C28.5 64.5 21.75 75.25 12.02 83.09"/><path id="kvg:05f11-s6" kvg:type="㇏" d="M35.34 61.15c2.82 1.71 7.46 7.28 9.84 10.6"/></g></g><g id="kvg:05f11-g5" kvg:element="式" kvg:position="right"><g id="kvg:05f11-g6" kvg:element="弋" kvg:part="1" kvg:radical="general"><path id="kvg:05f11-s7" kvg:type="㇐" d="M50.25 36.44c1.14.54 4.22.11 5.37.04C63 36 79.56 32.28 89.66 31.8c1.9-.09 3.04.26 3.99.53"/></g><g id="kvg:05f11-g7" kvg:element="工"><path id="kvg:05f11-s8" kvg:type="㇐" d="M50.75 51.63c.44.33 1.86.36 2.32.33 4.44-.22 12.19-2.22 17.31-2.98.67-.1 1.29.07 1.86.34"/><path id="kvg:05f11-s9" kvg:type="㇑a" d="M60.78 53.62c.79 1.33.79 2.13.79 3.2.0 7.47-.07 12.67-.07 20.2"/><path id="kvg:05f11-s10" kvg:type="㇐" d="M48.75 80.8c1.04 1.04 2.85 1.52 3.83 1.04 7.66-3.75 9.29-4.36 20.78-9.56"/></g><g id="kvg:05f11-g8" kvg:element="弋" kvg:part="2" kvg:radical="general"><path id="kvg:05f11-s11" kvg:type="㇂" d="M73.54 13.5c1.5 1.73 2.28 2.2 2.44 5.95C77.11 45.22 79.5 74 93.33 91.27c3.18 3.97 4.67 4.98 4.32-6.94"/><g id="kvg:05f11-g9" kvg:element="丶"><path id="kvg:05f11-s12" kvg:type="㇔" d="M85.82 14.74c2.97 1.88 7.31 6.19 8.7 9.42"/></g></g></g></g></g></svg>