<!DOCTYPE svg PUBLIC "-//W3C//DTD SVG 1.0//EN" "http://www.w3.org/TR/2001/REC-SVG-20010904/DTD/svg10.dtd" [
<!ATTLIST g
xmlns:kvg CDATA #FIXED "http://kanjivg.tagaini.net"
kvg:element CDATA #IMPLIED
kvg:variant CDATA #IMPLIED
kvg:partial CDATA #IMPLIED
kvg:original CDATA #IMPLIED
kvg:part CDATA #IMPLIED
kvg:number CDATA #IMPLIED
kvg:tradForm CDATA #IMPLIED
kvg:radicalForm CDATA #IMPLIED
kvg:position CDATA #IMPLIED
kvg:radical CDATA #IMPLIED
kvg:phon CDATA #IMPLIED >
<!ATTLIST path
xmlns:kvg CDATA #FIXED "http://kanjivg.tagaini.net"
kvg:type CDATA #IMPLIED >
]><svg xmlns="http://www.w3.org/2000/svg" width="109" height="109" viewBox="0 0 109 109"><g id="kvg:StrokePaths_05f1b" style="fill:none;stroke:#000000;stroke-width:3;stroke-linecap:round;stroke-linejoin:round;"><g id="kvg:05f1b" kvg:element="弛"><g id="kvg:05f1b-g1" kvg:element="弓" kvg:position="left" kvg:radical="general"><path id="kvg:05f1b-s1" kvg:type="㇕c" d="M16.5 20.38c.75.62 2.49 1.13 3.69 1.04 5.56-.42 10.56-2.17 15.77-3.79 2.4-.74 3.2 1.84 2.24 3.89-.95 2.04-3.31 11.03-3.96 14.01"/><path id="kvg:05f1b-s2" kvg:type="㇐" d="M20.25 39.5C22 39.5 30.75 37 32 37s2.5-.5 3.5-.5"/><path id="kvg:05f1b-s3" kvg:type="㇉" d="M18.63 36.97c.55.96.96 3.06.61 4.58-.41 1.74-3.38 10.77-3.74 11.68-1 2.56-.51 3.86 2.75 3.06C23.5 55 29.5 53.54 33.71 53.1c2.99-.31 2 5.21 1.79 6.94-1.09 8.88-3.47 22.7-7.25 29-3.75 6.25-6.36-.31-7.19-2.17"/></g><g id="kvg:05f1b-g2" kvg:element="也" kvg:position="right"><path id="kvg:05f1b-s4" kvg:type="㇆v" d="M42 52.56c1.25 1.44 3.75 1.44 5.39.89C59.02 49.55 83.56 39.22 88 37c2.5-1.25 5.01 1.5 4.76 2.86-1.01 5.39-5.83 23.36-7.76 27.39-2.75 5.75-5.75 2.75-7.25.0"/><path id="kvg:05f1b-s5" kvg:type="㇑" d="M68.5 14.25c1.25.5 2 2.25 2.25 3.25.22.87.06 37.27-.15 51-.03 2.1-.07 3.67-.1 4.5"/><g id="kvg:05f1b-g3" kvg:element="乙" kvg:variant="true"><path id="kvg:05f1b-s6" kvg:type="㇟" d="M54.74 37.37c.7 1.92 1.25 2.68 1.29 5.65.12 8.32-.5 21.05-.5 30.98.0 16.5 1.72 18.75 20.65 18.75 18.07.0 20.71-2.25 20.71-14.16"/></g></g></g></g><g id="kvg:StrokeNumbers_05f1b" style="font-size:8;fill:#808080"><text transform="matrix(1 0 0 1 9.50 19.50)">1</text><text transform="matrix(1 0 0 1 21.66 34.50)">2</text><text transform="matrix(1 0 0 1 11.71 39.50)">3</text><text transform="matrix(1 0 0 1 40.50 49.50)">4</text><text transform="matrix(1 0 0 1 60.50 15.50)">5</text><text transform="matrix(1 0 0 1 46.50 37.50)">6</text></g></svg>