<svg xmlns="http://www.w3.org/2000/svg" width="109" height="109" viewBox="0 0 109 109"><g id="kvg:StrokePaths_05f29" style="fill:none;stroke:#000000;stroke-width:3;stroke-linecap:round;stroke-linejoin:round;"><g id="kvg:05f29" kvg:element="弩"><g id="kvg:05f29-g1" kvg:element="奴" kvg:position="top"><g id="kvg:05f29-g2" kvg:element="女" kvg:position="left"><path id="kvg:05f29-s1" kvg:type="㇛" d="M32.43 9.94c.38.79 1.06 2.09.86 3.17-.97 5.3-6.75 15.32-10.98 21.25-.87 1.21.36 1.92.86 1.99 7.08.91 15.83 5.91 21.1 11.79"/><path id="kvg:05f29-s2" kvg:type="㇒" d="M44.36 21.23c.08.82.13 2.82-.18 3.99C41.69 34.64 34 46.5 16.84 53.6"/><path id="kvg:05f29-s3" kvg:type="㇀/㇐" d="M12.25 26.29c.83 1.42 1.53 2.17 3.73 1.78 4.77-.83 22.02-4.83 34.79-7.05"/></g><g id="kvg:05f29-g3" kvg:element="又" kvg:position="right"><path id="kvg:05f29-s4" kvg:type="㇇" d="M57.99 17.06c1.26.23 1.42.59 3.93.23 2.52-.35 19.77-3.47 21.5-3.83 1.73-.35 3.3 1.01 2.7 2.3C81.25 26.24 69 39.16 54.69 44.23"/><path id="kvg:05f29-s5" kvg:type="㇏" d="M57.27 22.45c5.98.0 19.9 17.09 31.67 23.84 1.83 1.05 3.17 1.75 4.87 2.1"/></g></g><g id="kvg:05f29-g4" kvg:element="弓" kvg:position="bottom" kvg:radical="general"><path id="kvg:05f29-s6" kvg:type="㇕c" d="M34.12 52.59c1.63.81 3.15 1.05 5.22.9s32.34-3.55 36.51-3.55c1.64.0 2.89 1.31 2.05 3.27-.44 1.03-1.75 3.45-2.74 5.49-.54 1.11-.98 2.1-1.15 2.72"/><path id="kvg:05f29-s7" kvg:type="㇐" d="M34.75 64.75c2.99.0 34.12-3 36.26-3 2.14.0 4.28.0 5.99.0"/><path id="kvg:05f29-s8" kvg:type="㇉" d="M33.43 62.42c.82 1.08.62 2.48.24 3.67-.68 2.16-3.03 7.52-3.37 8.16-.8 1.5-.33 3.5 2.82 2.8 2.38-.53 37.61-3.97 44.25-4.5 3.88-.31 5.13 1.94 4.04 5.08-1.99 5.74-7.02 15.16-12.49 19.81-3.92 3.34-9.17-1.7-11.17-4.26"/></g></g></g></svg>