<svg xmlns="http://www.w3.org/2000/svg" width="109" height="109" viewBox="0 0 109 109"><g id="kvg:StrokePaths_05f25" style="fill:none;stroke:#000000;stroke-width:3;stroke-linecap:round;stroke-linejoin:round;"><g id="kvg:05f25" kvg:element="弥"><g id="kvg:05f25-g1" kvg:element="弓" kvg:position="left" kvg:radical="general"><path id="kvg:05f25-s1" kvg:type="㇕c" d="M20.25 18.84c2 1.28 4.11 1.1 6.12.81 4.43-.65 9.01-1.4 14.56-2.4 2.91-.52 4.32.5 3.28 3.49C43.66 22.3 40.92 32.21 40.75 33"/><path id="kvg:05f25-s2" kvg:type="㇐" d="M20 35.75c1 .5 2.02.51 3.45.38 4.29-.38 10.8-1.41 14.19-1.88 1.54-.21 3.86-.25 5.11-.25"/><path id="kvg:05f25-s3" kvg:type="㇉" d="M21.38 36.93c.55.96.46 1.81.11 3.33-.41 1.74-2.88 8.77-3.24 9.68-1 2.56-.57 3.79 2.75 3.31 4.38-.62 12.5-2 16.71-2.44C40.7 50.5 42 51.88 41.75 56c-.62 10.28-5 25.75-10.25 32.5-4.47 5.75-7.25 1.62-9.19-1.67"/></g><g id="kvg:05f25-g2" kvg:element="尓" kvg:position="right"><g id="kvg:05f25-g3" kvg:position="top"><g id="kvg:05f25-g4" kvg:element="丿"><path id="kvg:05f25-s4" kvg:type="㇒" d="M67.94 14.39c.09 1.43.11 2.62-.4 3.98-2.77 7.4-9.35 20.71-17.62 29.39"/></g><path id="kvg:05f25-s5" kvg:type="㇐" d="M61.22 37.79c2.15.46 4.23.15 6.16-.17 7.49-1.24 14.69-2.53 19.99-3.11 2.08-.23 4.03-.4 6.08.1"/></g><g id="kvg:05f25-g5" kvg:element="小" kvg:position="bottom"><path id="kvg:05f25-s6" kvg:type="㇚" d="M71.57 40.7c1.05 1.05 1.28 2.18 1.28 4.54.0 11.98-.11 39.81-.11 43.89.0 9.26-6.04.81-7.27-.22"/><path id="kvg:05f25-s7" kvg:type="㇒" d="M57.26 59.75c.09 1.33.09 2.41-.39 3.67-1.67 4.33-4.73 11.29-8.6 16.75"/><path id="kvg:05f25-s8" kvg:type="㇔" d="M87.61 58.13c3.19 3.95 8.24 16.24 9.04 22.39"/></g></g></g></g></svg>