<svg xmlns="http://www.w3.org/2000/svg" width="109" height="109" viewBox="0 0 109 109"><g id="kvg:StrokePaths_05f38"><g id="kvg:05f38" kvg:element="弸"><g id="kvg:05f38-g1" kvg:element="弓" kvg:position="left" kvg:radical="general"><path id="kvg:05f38-s1" kvg:type="㇕c" d="M14 20.09c.75.91 3.01 1.26 4.19 1.04 2.06-.38 12.06-2.63 15.77-2.79 2.51-.1 3.2 1.34 2.24 3.39-.68 1.46-1.83 6.21-2.66 9.89-.33 1.47-.62 2.77-.8 3.62"/><path id="kvg:05f38-s2" kvg:type="㇐" d="M18.25 37.75c1.75.0 12-2 13.25-2s2.5-.5 3.5-.5"/><path id="kvg:05f38-s3" kvg:type="㇉" d="M16.63 36.68c.55.96.96 2.56.61 4.08-.41 1.74-1.89 11.77-2.24 12.68-1 2.56-.43 4.12 2.75 3.06 3-1 8.8-2.42 12.96-3.19 3.04-.56 3.54 1.44 3.29 4.44-.74 8.91-3.47 27.2-7.25 33.5-3.75 6.25-6.36-.31-7.19-2.17"/></g><g id="kvg:05f38-g2" kvg:element="朋" kvg:position="right"><g id="kvg:05f38-g3" kvg:element="月" kvg:position="left"><path id="kvg:05f38-s4" kvg:type="㇓" d="M45.44 20.69c.55.93 1.07 1.84 1.09 2.79C47.75 76.5 43.75 82.5 34.51 92"/><path id="kvg:05f38-s5" kvg:type="㇆a" d="M46.13 22.05c2.19-.23 12.83-2.77 14.45-3.06 1.42-.25 2.92 1.02 2.92 2.48.0 7.9-.05 45.53-.05 62.86.0 12.08-4.88 4.18-6.7 2.09"/><path id="kvg:05f38-s6" kvg:type="㇐a" d="M47.13 41.94c3.1-.46 11.9-2.13 16.1-2.36"/><path id="kvg:05f38-s7" kvg:type="㇐a" d="M46.72 58.71c5.84-.7 9.62-1.93 16.37-2.39"/></g><g id="kvg:05f38-g4" kvg:element="月" kvg:position="right"><path id="kvg:05f38-s8" kvg:type="㇓" d="M75.24 17.71c.53.95 1.04 1.88 1.05 2.85.96 50.7-2.04 61.2-8.23 69.95"/><path id="kvg:05f38-s9" kvg:type="㇆a" d="M76.99 20.08c2.11-.24 13.37-2.82 14.94-3.08 2.81-.47 2.81 2.06 2.81 3.56.0 8.06-.53 47.93-.53 65.62.0 9.57-5.16 2.69-6.92.56"/><path id="kvg:05f38-s10" kvg:type="㇐a" d="M77.35 38.81c2.99-.47 12.12-1.66 16.17-1.9"/><path id="kvg:05f38-s11" kvg:type="㇐a" d="M76.47 57.15c5.62-.71 10.9-1.45 17.4-1.92"/></g></g></g></g></svg>