<svg xmlns="http://www.w3.org/2000/svg" width="109" height="109" viewBox="0 0 109 109"><g id="kvg:StrokePaths_05f37" style="fill:none;stroke:#000000;stroke-width:3;stroke-linecap:round;stroke-linejoin:round;"><g id="kvg:05f37" kvg:element="強"><g id="kvg:05f37-g1" kvg:element="弓" kvg:position="left" kvg:radical="general" kvg:phon="弓"><path id="kvg:05f37-s1" kvg:type="㇕c" d="M17.5 19.84c1 .66 3.5.95 4.69.79 5.81-.76 13.69-2.51 18.27-3.79 2.42-.67 4.29.78 3.24 3.39-.61 1.53-3.39 9.93-4.37 13.78"/><path id="kvg:05f37-s2" kvg:type="㇐" d="M18.38 37.25c.75.25 2.03.43 3.26.32 5.34-.49 14.24-2.32 15.87-2.32 2 0 2.75-.25 4 0"/><path id="kvg:05f37-s3" kvg:type="㇉" d="M18.88 37.43c.84.84.71 2.31.36 3.83-.41 1.74-2.89 8.77-3.24 9.68-1 2.56-.53 3.75 2.75 3.06 3-.62 12.25-2.3 16.46-2.69 2.04-.19 3.29 1.56 3.04 4.19-.85 8.9-5.22 29.45-9 35.75-3.75 6.25-6.36-.31-7.19-2.17"/></g><g id="kvg:05f37-g2" kvg:position="right"><g id="kvg:05f37-g3" kvg:element="厶" kvg:position="top"><path id="kvg:05f37-s4" kvg:type="㇜" d="M67.75 12.75c.38 1.75-.25 4-1.25 5.25-5.49 6.86-7.25 8.5-13.32 15.09C51.39 35.05 52 36.63 55 36c9.5-2 21.25-4.25 32.85-6.25"/><path id="kvg:05f37-s5" kvg:type="㇔" d="M79.88 20.5c4.46 2.6 11.51 10.7 12.62 14.75"/></g><g id="kvg:05f37-g4" kvg:element="虫" kvg:position="bottom"><g id="kvg:05f37-g5" kvg:element="中"><g id="kvg:05f37-g6" kvg:element="口"><path id="kvg:05f37-s6" kvg:type="㇑" d="M48.25 51.62c.5.19 1.67 1.53 1.8 2.1.75 3.36 1.54 7.11 2.52 12.81.23 1.32.47 2.72.72 4.2"/><path id="kvg:05f37-s7" kvg:type="㇕b" d="M50.99 52.97c11.63-2.34 27.88-4.72 36.57-5.39 2.74-.21 4.5 2.38 4.18 3.67-.91 3.67-2.48 7.26-3.53 11.24"/><path id="kvg:05f37-s8" kvg:type="㇐b" d="M53.62 69c6.93-1.31 21.4-3.19 32.15-4.76 1.29-.19 2.53-.37 3.7-.55"/></g><g id="kvg:05f37-g7" kvg:element="丨"><path id="kvg:05f37-s9" kvg:type="㇑a" d="M66.97 37c1.28 1 2.07 2.5 2.07 4.26.0 3.99.05 32.54-.08 45.24"/></g></g><path id="kvg:05f37-s10" kvg:type="㇀" d="M45.98 91.04c1.02 1.21 2.87 1.16 3.88.97s37.61-8.34 40.65-9.26"/><path id="kvg:05f37-s11" kvg:type="㇔" d="M87 75.5c3.53 3.18 9.12 13.06 10 18"/></g></g></g></g></svg>