<svg xmlns="http://www.w3.org/2000/svg" width="109" height="109" viewBox="0 0 109 109"><g id="kvg:StrokePaths_05f5d"><g id="kvg:05f5d" kvg:element="彝"><g id="kvg:05f5d-g1" kvg:element="彑" kvg:position="top" kvg:radical="general"><path id="kvg:05f5d-s1" kvg:type="㇗" d="M39.21 8.5c.46.93.65 2.4.23 3.78-.92 3.05-2.39 6.88-3.69 9.43-.55 1.07.17 1.84 1.27 1.55 7.48-2.01 19.73-3.51 28.65-3.45"/><path id="kvg:05f5d-s2" kvg:type="㇕" d="M40.32 13.21C44.75 13 64.16 10.27 66.49 10c1.94-.23 2.99 1.38 2.41 2.95-2.4 6.55-3.36 8.55-4.87 14.55"/><path id="kvg:05f5d-s3" kvg:type="㇐" d="M17 30.9c1.46.6 4.13.65 5.59.6 15.44-.55 51.02-5.46 66.31-4.62 2.43.13 3.89.28 5.1.58"/></g><g id="kvg:05f5d-g2" kvg:position="bottom"><g id="kvg:05f5d-g3" kvg:element="米" kvg:variant="true" kvg:position="left"><path id="kvg:05f5d-s4" kvg:type="㇔" d="M21.31 36.95c1.77 1.14 4.44 4.36 4.89 6.14"/><path id="kvg:05f5d-s5" kvg:type="㇒" d="M48.11 35.8c.03.23.05.59-.05.92-.64 1.94-4.35 6.19-9.41 8.8"/><path id="kvg:05f5d-s6" kvg:type="㇐" d="M16.58 48.23c.35.16 1.27.5 2.2.49 4.71-.06 24.23-2.8 30.21-3 .93-.03 1.67-.16 2.25.0"/><path id="kvg:05f5d-s7" kvg:type="㇑" d="M33.59 34.75c.81.33 1.29 1.47 1.45 2.12.16.65.0 26.06-.16 30.13"/><path id="kvg:05f5d-s8" kvg:type="㇒" d="M34.43 47.57C31.25 53.49 23.54 61.8 16.4 65.21"/><path id="kvg:05f5d-s9" kvg:type="㇔/㇏" d="M37.55 51.26c3.55 1.88 7.78 4.98 9.98 8.42"/></g><g id="kvg:05f5d-g4" kvg:element="糸" kvg:position="right"><path id="kvg:05f5d-s10" kvg:type="㇜" d="M66.84 30.52c.32.74.54 1.3-.17 2.09-1.92 2.15-4.51 4.82-7.73 6.53-.66.35-.64 1.68-.01 1.84C61 41.5 64 42.5 65.37 43.32"/><path id="kvg:05f5d-s11" kvg:type="㇜" d="M77.22 33.9c.29.33.38 1.43-.01 1.78-5.73 5.2-11.78 8.93-19.64 13.67-1.8 1.09-.56 2.22.61 2 4.91-.91 18.06-3.09 25.84-4.5"/><path id="kvg:05f5d-s12" kvg:type="㇔" d="M79.54 42.09c3.25 1.69 8.38 6.93 9.19 9.55"/><path id="kvg:05f5d-s13" kvg:type="㇑" d="M71.61 51.77c.05.17.75.9.8 1.99.24 5.24-.23 10.95-.24 12.74"/><path id="kvg:05f5d-s14" kvg:type="㇒" d="M62.95 54.51c.14.46.11 1.37-.14 1.7-1.65 2.15-5.78 6.29-8.12 8.12"/><path id="kvg:05f5d-s15" kvg:type="㇔" d="M80.51 54.8c3.84 2.04 6.78 6.77 7.66 8.61"/></g><g id="kvg:05f5d-g5" kvg:element="廾"><g id="kvg:05f5d-g6" kvg:element="十" kvg:part="1"><path id="kvg:05f5d-s16" kvg:type="㇐" d="M14.38 77.97c1.52.46 4.3.53 5.82.46 15.8-.76 50.05-3.36 70.11-3.75 2.53-.05 4.05.22 5.31.45"/></g><g id="kvg:05f5d-g7" kvg:element="丿"><path id="kvg:05f5d-s17" kvg:type="㇒" d="M42.04 67.68c.71.82.96 2.06.91 3.17C42.5 81.5 39.25 94.75 23 100.5"/></g><g id="kvg:05f5d-g8" kvg:element="十" kvg:part="2"><path id="kvg:05f5d-s18" kvg:type="㇑" d="M64.87 65.73c1.09.42 1.74 1.9 1.96 2.74.22.84.0 26.76-.22 32.03"/></g></g></g></g></g></svg>