<svg xmlns="http://www.w3.org/2000/svg" width="109" height="109" viewBox="0 0 109 109"><g id="kvg:StrokePaths_05f6c"><g id="kvg:05f6c" kvg:element="彬"><g id="kvg:05f6c-g1" kvg:element="林" kvg:part="1" kvg:position="left"><g id="kvg:05f6c-g2" kvg:element="木" kvg:radical="nelson"><path id="kvg:05f6c-s1" kvg:type="㇐" d="M11.78 40.72c1.11.78 4.3.46 5.6.3 4.19-.52 10.77-1.72 15.89-2.66 1.19-.22 2.81-.73 4-.24"/><path id="kvg:05f6c-s2" kvg:type="㇑" d="M25.61 15c1.13 1.13 1.54 2.75 1.54 4.42.0 1.73-.1 47.02-.14 66.83C27 90.59 27 93.71 27 94.88"/><path id="kvg:05f6c-s3" kvg:type="㇒" d="M26.69 41.03c0 1.34-.49 4.71-1 6.24-4.27 13-8.97 22.57-15.58 30.82"/><path id="kvg:05f6c-s4" kvg:type="㇏" d="M29.47 49.65c2.59 1.92 6.84 8.14 9.03 11.85"/></g></g><g id="kvg:05f6c-g3" kvg:element="杉" kvg:position="right"><g id="kvg:05f6c-g4" kvg:element="林" kvg:part="2" kvg:position="left"><g id="kvg:05f6c-g5" kvg:element="木" kvg:radical="nelson"><path id="kvg:05f6c-s5" kvg:type="㇐" d="M43 38.37c1.75.51 3.13.51 4.75.28 3.64-.51 9.72-1.75 14.01-2.74.93-.21 2.37-.41 3.5-.24"/><path id="kvg:05f6c-s6" kvg:type="㇑" d="M53.1 13.56c1.11 1.11 1.44 2.31 1.44 4.26.0.76.0 48.58.01 68.93.0 4.08.0 7.06.0 8.32"/><path id="kvg:05f6c-s7" kvg:type="㇒" d="M53.92 38.84c0 1.53-.75 4.28-1.22 5.56C48.3 56.33 44.25 65 37.11 74.67"/><path id="kvg:05f6c-s8" kvg:type="㇏" d="M57.75 49c2.26 1.81 5.99 7.68 7.9 11.18"/></g></g><g id="kvg:05f6c-g6" kvg:element="彡" kvg:position="right" kvg:radical="tradit"><path id="kvg:05f6c-s9" kvg:type="㇒" d="M91.03 16.54c.11 1.17-.2 2.44-.81 3.45-3.35 5.51-10.83 14.69-21.64 22.22"/><path id="kvg:05f6c-s10" kvg:type="㇒" d="M93.97 40.03c.13 1.09-.41 2.29-1 3.15C89 49 81.25 57.38 67.93 66.19"/><path id="kvg:05f6c-s11" kvg:type="㇒" d="M97.07 63.8c0 1.2-.73 2.5-1.38 3.49-6.11 9.36-17.04 20.3-32.33 28.4"/></g></g></g></g></svg>