<svg xmlns="http://www.w3.org/2000/svg" width="109" height="109" viewBox="0 0 109 109"><g id="kvg:StrokePaths_05f6b" style="fill:none;stroke:#000000;stroke-width:3;stroke-linecap:round;stroke-linejoin:round;"><g id="kvg:05f6b" kvg:element="彫"><g id="kvg:05f6b-g1" kvg:element="周" kvg:position="left" kvg:phon="周"><g id="kvg:05f6b-g2" kvg:element="冂" kvg:variant="true"><path id="kvg:05f6b-s1" kvg:type="㇒/㇑" d="M21.3 19.75c.85.85 1.22 2.12 1.24 4.21C23 64.5 21 75.5 12 92.75"/><path id="kvg:05f6b-s2" kvg:type="㇆a" d="M22.89 21.42c7.03-.93 27.19-3.78 28.6-3.92 2.51-.25 3.83 2.05 3.83 4.37s-.07 58.07-.07 63.41c0 10.97-4.33 6.76-7.78 2.74"/></g><g id="kvg:05f6b-g3" kvg:element="吉"><g id="kvg:05f6b-g4" kvg:element="士"><path id="kvg:05f6b-s3" kvg:type="㇐" d="M29.99 35.2c.76.33 2.14.28 2.9.2 2.45-.26 9.24-1.49 12.27-1.65 1.26-.07 2.02.06 2.65.21"/><path id="kvg:05f6b-s4" kvg:type="㇑a" d="M38.18 23.76c1.14.57 1.4 2.22 1.41 3.23.05 3.91-.1 14.01-.1 19.63"/><path id="kvg:05f6b-s5" kvg:type="㇐" d="M27.88 48.28c.77.3 2.78.27 3.51.19 5.43-.58 11.36-1.6 16.07-2.19.85-.11 1.36.02 1.79.11"/></g><g id="kvg:05f6b-g5" kvg:element="口"><path id="kvg:05f6b-s6" kvg:type="㇑" d="M28.88 60.25c.24.32 1.18 2.09 1.28 2.5.64 2.48.96 7.45 1.34 12.23.11 1.36.22 2.7.34 3.97"/><path id="kvg:05f6b-s7" kvg:type="㇕b" d="M30.52 61.64c4.47-.75 10.12-1.85 13.1-2.28 1.75-.26 2.92.31 2.57 2.38C45.57 65.38 45 70 44.27 74.84"/><path id="kvg:05f6b-s8" kvg:type="㇐b" d="M33.01 77.35c1.9-.37 5.92-1.06 9.75-1.29 1.3-.08 2.46-.14 3.32-.16"/></g></g></g><g id="kvg:05f6b-g6" kvg:element="彡" kvg:position="right" kvg:radical="tradit"><path id="kvg:05f6b-s9" kvg:type="㇒" d="M87.18 16.95c.11.77-.23 1.44-.7 2.02-2.71 3.37-11.85 10.92-19.81 13.89"/><path id="kvg:05f6b-s10" kvg:type="㇒" d="M91.51 41.97c.14.82-.23 1.55-.72 2.16-3.21 4.01-14.54 12.77-24.14 16.05"/><path id="kvg:05f6b-s11" kvg:type="㇒" d="M93.49 67.45c.13.95-.21 1.79-.69 2.58-3.3 5.51-13.74 14.74-26.66 21.77"/></g></g></g></svg>