<svg xmlns="http://www.w3.org/2000/svg" width="109" height="109" viewBox="0 0 109 109"><g id="kvg:StrokePaths_05f71"><g id="kvg:05f71" kvg:element="影"><g id="kvg:05f71-g1" kvg:element="景" kvg:position="left" kvg:phon="景"><g id="kvg:05f71-g2" kvg:element="日" kvg:position="top"><path id="kvg:05f71-s1" kvg:type="㇑" d="M21.38 15.88c.75.75 1.3 1.94 1.47 2.73.67 3.13 1.93 12.24 2.98 18.74.22 1.34.41 2.56.58 3.6"/><path id="kvg:05f71-s2" kvg:type="㇕a" d="M23.77 17.34c6.43-.88 20.92-3.07 27.6-3.84 3.31-.38 5.23.82 4.77 4.38-.46 3.6-1.95 11.19-2.87 15.92-.44 2.29-.76 3.91-.75 4.08"/><path id="kvg:05f71-s3" kvg:type="㇐a" d="M25.45 28.24c6.92-.99 21.49-2.88 28.58-3.45"/><path id="kvg:05f71-s4" kvg:type="㇐a" d="M27.22 38.29c7.86-.8 17.28-2.42 24.53-3"/></g><g id="kvg:05f71-g3" kvg:element="京" kvg:position="bottom"><g id="kvg:05f71-g4" kvg:element="亠" kvg:position="top"><path id="kvg:05f71-s5" kvg:type="㇑a" d="M38.51 39.49c.81.81 1 1.76 1 3 0 2.77-.01 4.26-.01 6.01"/><path id="kvg:05f71-s6" kvg:type="㇐" d="M14 52.21c2.62.42 4.62.19 7.01-.14 8.98-1.24 25.64-3.35 34.5-3.94 1.96-.13 4.13-.46 6.01.28"/></g><g id="kvg:05f71-g5" kvg:position="bottom"><g id="kvg:05f71-g6" kvg:element="口"><path id="kvg:05f71-s7" kvg:type="㇑" d="M24.31 62.18c.69.69 1.04 1.7 1.41 3.08.6 2.26 1.02 4.49 1.65 7.92.17.96.35 1.9.53 2.78"/><path id="kvg:05f71-s8" kvg:type="㇕b" d="M26.24 63.11c7.26-1.46 17.63-3.33 22.9-3.96 2.98-.36 5.06.72 3.93 3.96-.76 2.16-1.4 4.76-2.42 7.37"/><path id="kvg:05f71-s9" kvg:type="㇐b" d="M28.96 74.17c6.02-1.07 13.24-1.72 20.28-2.57.78-.09 1.64-.04 2.4-.04"/></g><g id="kvg:05f71-g7" kvg:element="小"><path id="kvg:05f71-s10" kvg:type="㇚" d="M38.24 75.57c.72.72 1.12 1.81 1.12 3.33.0 3.62-.11 12.61-.11 15.73.0 4.99-4.26.59-5.84-.81"/><path id="kvg:05f71-s11" kvg:type="㇒" d="M25.09 81.36c.09.86-.07 1.68-.47 2.45-2 2.95-4.62 6.2-8.93 10.29"/><path id="kvg:05f71-s12" kvg:type="㇔" d="M50.28 80.61c2.82 1.77 6.46 6.94 7.17 9.69"/></g></g></g></g><g id="kvg:05f71-g8" kvg:element="彡" kvg:position="right" kvg:radical="general"><path id="kvg:05f71-s13" kvg:type="㇒" d="M90.18 19.2c.13 1 .02 1.54-.64 2.33-2.98 3.63-12.96 11.66-18.88 14.33"/><path id="kvg:05f71-s14" kvg:type="㇒" d="M89.04 46.22c.11.77-.21 1.56-.64 2.17-2.42 3.48-9.78 9.23-17.75 13.79"/><path id="kvg:05f71-s15" kvg:type="㇒" d="M89.25 74.7c.13 1 .17 1.86-.42 2.71-3.58 5.21-11.71 12.96-23.69 20.39"/></g></g></g></svg>