<svg xmlns="http://www.w3.org/2000/svg" width="109" height="109" viewBox="0 0 109 109"><g id="kvg:StrokePaths_05f70"><g id="kvg:05f70" kvg:element="彰"><g id="kvg:05f70-g1" kvg:element="章" kvg:position="left" kvg:phon="章"><g id="kvg:05f70-g2" kvg:element="立" kvg:position="top"><g id="kvg:05f70-g3" kvg:element="亠" kvg:position="top"><path id="kvg:05f70-s1" kvg:type="㇑a" d="M36 10.5c.88.88 1.25 2 1.25 3.75s0 3.25.0 8"/><path id="kvg:05f70-s2" kvg:type="㇐" d="M20.75 24.66c1.62.61 3.73.3 5.39.16 6.47-.55 14.47-1.82 22.73-3.34 1.39-.26 2.86-.58 4.26-.17"/></g><g id="kvg:05f70-g4" kvg:position="bottom"><path id="kvg:05f70-s3" kvg:type="㇔" d="M27.88 28.38c2.8 3.35 4.32 6.94 4.58 9.15"/><path id="kvg:05f70-s4" kvg:type="㇒" d="M47.17 24.93c.38.38.42 1.32.38 1.63-.3 2.14-3.09 8.07-3.84 9.71"/><path id="kvg:05f70-s5" kvg:type="㇐" d="M15.14 42.17c2.36.46 4.52.22 6.24-.03 9.15-1.34 22.07-3.73 30.75-4.5 2-.18 3.87-.27 5.98.15"/></g></g><g id="kvg:05f70-g5" kvg:element="早" kvg:position="bottom"><g id="kvg:05f70-g6" kvg:element="日"><path id="kvg:05f70-s6" kvg:type="㇑" d="M21.51 50.95c.76.76 1.62 2.24 1.81 3.31C24 58 24.8 61.18 25.5 65.53c.25 1.57.49 3.04.69 4.24"/><path id="kvg:05f70-s7" kvg:type="㇕a" d="M23.27 51.77c8.23-1.64 17.36-3.14 25.6-4.28 4.05-.56 5.43.86 4.74 5.02-.32 1.9-1.12 5-2.39 9.36-.4 1.35-.97 2.52-1.53 4.2"/><path id="kvg:05f70-s8" kvg:type="㇐a" d="M25.28 59.4c6.35-.91 20.27-3.05 26.33-3.31"/><path id="kvg:05f70-s9" kvg:type="㇐a" d="M27.15 67.52c8.85-1.4 16.73-2.4 21.98-2.64"/></g><g id="kvg:05f70-g7" kvg:element="十"><path id="kvg:05f70-s10" kvg:type="㇐" d="M15.3 81.2c2.19.69 4.53.5 6.71.1 9.11-1.67 20.3-3.58 28.49-4.5 2.04-.23 3.92-.35 5.94.03"/><path id="kvg:05f70-s11" kvg:type="㇑" d="M36.96 69.25c1.02 1.02 1.35 2.25 1.35 3.76.0 2.62-.03 13.75-.05 20.74-.01 2.67-.01 4.74-.01 5.5"/></g></g></g><g id="kvg:05f70-g8" kvg:element="彡" kvg:position="right" kvg:radical="general"><path id="kvg:05f70-s12" kvg:type="㇒" d="M86.81 18.75c-.31 1.25-.8 1.99-1.72 2.78C80.75 25.25 75.5 29 64.47 33.41"/><path id="kvg:05f70-s13" kvg:type="㇒" d="M88.03 39.86c-.16 1.14-.44 2.35-1.07 3.27-3.83 5.61-10.58 12.11-22.27 18.29"/><path id="kvg:05f70-s14" kvg:type="㇒" d="M93.31 64.75c-.18 1.25-.44 2.3-1.15 3.31C87.5 74.75 79.25 83.75 62.07 93.5"/></g></g></g></svg>