<!DOCTYPE svg PUBLIC "-//W3C//DTD SVG 1.0//EN" "http://www.w3.org/TR/2001/REC-SVG-20010904/DTD/svg10.dtd" [
<!ATTLIST g
xmlns:kvg CDATA #FIXED "http://kanjivg.tagaini.net"
kvg:element CDATA #IMPLIED
kvg:variant CDATA #IMPLIED
kvg:partial CDATA #IMPLIED
kvg:original CDATA #IMPLIED
kvg:part CDATA #IMPLIED
kvg:number CDATA #IMPLIED
kvg:tradForm CDATA #IMPLIED
kvg:radicalForm CDATA #IMPLIED
kvg:position CDATA #IMPLIED
kvg:radical CDATA #IMPLIED
kvg:phon CDATA #IMPLIED >
<!ATTLIST path
xmlns:kvg CDATA #FIXED "http://kanjivg.tagaini.net"
kvg:type CDATA #IMPLIED >
]><svg xmlns="http://www.w3.org/2000/svg" width="109" height="109" viewBox="0 0 109 109"><g id="kvg:StrokePaths_05f83" style="fill:none;stroke:#000000;stroke-width:3;stroke-linecap:round;stroke-linejoin:round;"><g id="kvg:05f83" kvg:element="徃"><g id="kvg:05f83-g1" kvg:element="彳" kvg:position="left" kvg:radical="general"><path id="kvg:05f83-s1" kvg:type="㇒" d="M34.09 16.25c.05.52.27 1.44-.11 2.08-2.68 4.5-10.75 15.33-18.61 19.92"/><g id="kvg:05f83-g2" kvg:element="亻" kvg:variant="true" kvg:original="人"><path id="kvg:05f83-s2" kvg:type="㇒" d="M38.84 33.75c.07.75.33 2.1-.14 3.03-3.32 6.54-12.04 17.91-24.2 28.97"/><path id="kvg:05f83-s3" kvg:type="㇑" d="M27.72 56c.36.25.57 1.15.65 1.66.07.51.0 36.65-.07 39.84"/></g></g><g id="kvg:05f83-g3" kvg:element="生" kvg:position="right"><path id="kvg:05f83-s4" kvg:type="㇒" d="M52.88 25.59c.04.73.19 1.9-.08 2.92-1.8 6.99-6.3 17.24-14.22 27.9"/><path id="kvg:05f83-s5" kvg:type="㇐" d="M50.3 44.53c1 .6 2.82.72 3.82.6 7.19-.86 26.5-4.91 32.7-5.83 1.65-.25 2.34-.14 3.22-.04"/><path id="kvg:05f83-s6" kvg:type="㇑a" d="M64.99 14.88c.8.55 2.15 1.87 2.15 5.24.0 1.12-.1 64.75-.26 71.65"/><path id="kvg:05f83-s7" kvg:type="㇐" d="M49.55 66.98c.86.35 2.44.42 3.3.35 6.2-.5 25.9-3.61 31.25-4.15 1.43-.14 2.02-.08 2.78-.02"/><path id="kvg:05f83-s8" kvg:type="㇐" d="M38.75 94.3c1.17.44 3.33 1.06 4.5.94C54.5 94 78.75 91.5 90.96 91.56c1.95.01 3.59.36 5.39 1.42"/></g></g></g><g id="kvg:StrokeNumbers_05f83" style="font-size:8;fill:#808080"><text transform="matrix(1 0 0 1 26.50 15.50)">1</text><text transform="matrix(1 0 0 1 30.50 35.50)">2</text><text transform="matrix(1 0 0 1 20.50 69.50)">3</text><text transform="matrix(1 0 0 1 44.50 27.50)">4</text><text transform="matrix(1 0 0 1 53.50 41.50)">5</text><text transform="matrix(1 0 0 1 56.25 13.50)">6</text><text transform="matrix(1 0 0 1 42.50 67.50)">7</text><text transform="matrix(1 0 0 1 36.50 90.50)">8</text></g></svg>