<!DOCTYPE svg PUBLIC "-//W3C//DTD SVG 1.0//EN" "http://www.w3.org/TR/2001/REC-SVG-20010904/DTD/svg10.dtd" [
<!ATTLIST g
xmlns:kvg CDATA #FIXED "http://kanjivg.tagaini.net"
kvg:element CDATA #IMPLIED
kvg:variant CDATA #IMPLIED
kvg:partial CDATA #IMPLIED
kvg:original CDATA #IMPLIED
kvg:part CDATA #IMPLIED
kvg:number CDATA #IMPLIED
kvg:tradForm CDATA #IMPLIED
kvg:radicalForm CDATA #IMPLIED
kvg:position CDATA #IMPLIED
kvg:radical CDATA #IMPLIED
kvg:phon CDATA #IMPLIED >
<!ATTLIST path
xmlns:kvg CDATA #FIXED "http://kanjivg.tagaini.net"
kvg:type CDATA #IMPLIED >
]><svg xmlns="http://www.w3.org/2000/svg" width="109" height="109" viewBox="0 0 109 109"><g id="kvg:StrokePaths_05f85" style="fill:none;stroke:#000000;stroke-width:3;stroke-linecap:round;stroke-linejoin:round;"><g id="kvg:05f85" kvg:element="待"><g id="kvg:05f85-g1" kvg:element="彳" kvg:position="left" kvg:radical="general"><path id="kvg:05f85-s1" kvg:type="㇒" d="M35.33 15.25c.15 1.08-.22 1.8-.92 2.65-3.3 4-9.9 10.35-18.79 15.35"/><g id="kvg:05f85-g2" kvg:element="亻" kvg:variant="true" kvg:original="人"><path id="kvg:05f85-s2" kvg:type="㇒" d="M35.84 32.75c.07.75-.17 2.1-.64 3.03-3.32 6.54-11.54 17.41-23.7 28.47"/><path id="kvg:05f85-s3" kvg:type="㇑" d="M25.97 52c1.01 1.01 1.41 2.5 1.41 3.88.0 5.46.0 27.73-.05 37.12-.01 2.05-.02 3.49-.03 4"/></g></g><g id="kvg:05f85-g3" kvg:element="寺" kvg:position="right" kvg:phon="寺"><g id="kvg:05f85-g4" kvg:element="土" kvg:position="top"><path id="kvg:05f85-s4" kvg:type="㇐" d="M48.11 27.78c2.02.35 3.66.24 5.4.02 6.01-.75 17.57-2.51 25.74-2.93 1.72-.09 3.42-.18 5.11.21"/><path id="kvg:05f85-s5" kvg:type="㇑a" d="M64.35 11.87c1.14 1.14 1.51 2.32 1.51 4 0 8.76-.06 22.88-.06 25.35"/><path id="kvg:05f85-s6" kvg:type="㇐" d="M39.63 44.1c2.87.65 5.83.36 8.61.05 15.05-1.65 30.01-3.28 42.26-4.08 2.44-.16 4.98-.33 7.38.15"/></g><g id="kvg:05f85-g5" kvg:element="寸" kvg:position="bottom"><path id="kvg:05f85-s7" kvg:type="㇐" d="M40.03 60.99c2.22.51 4.77.43 6.99.25 10.69-.9 30.7-3.37 41.36-4.03 2.47-.15 4.91-.3 7.34.29"/><path id="kvg:05f85-s8" kvg:type="㇚" d="M76.25 47.5c1 1.25 1.91 3 1.91 4.9.0 12.98-.13 36.67-.13 40.77.0 7.31-4.78 3.71-8.05-.04"/><path id="kvg:05f85-s9" kvg:type="㇔" d="M54.03 70.38c2.91 1.83 7.51 7.53 8.24 10.38"/></g></g></g></g><g id="kvg:StrokeNumbers_05f85" style="font-size:8;fill:#808080"><text transform="matrix(1 0 0 1 28.50 15.50)">1</text><text transform="matrix(1 0 0 1 26.50 37.50)">2</text><text transform="matrix(1 0 0 1 20.50 65.50)">3</text><text transform="matrix(1 0 0 1 40.50 28.50)">4</text><text transform="matrix(1 0 0 1 54.50 13.50)">5</text><text transform="matrix(1 0 0 1 40.50 41.50)">6</text><text transform="matrix(1 0 0 1 34.50 59.50)">7</text><text transform="matrix(1 0 0 1 68.25 54.13)">8</text><text transform="matrix(1 0 0 1 45.75 73.63)">9</text></g></svg>