<svg xmlns="http://www.w3.org/2000/svg" width="109" height="109" viewBox="0 0 109 109"><g id="kvg:StrokePaths_05f87" style="fill:none;stroke:#000000;stroke-width:3;stroke-linecap:round;stroke-linejoin:round;"><g id="kvg:05f87" kvg:element="徇"><g id="kvg:05f87-g1" kvg:element="彳" kvg:position="left" kvg:radical="general"><path id="kvg:05f87-s1" kvg:type="㇒" d="M34.57 15.75c.06.45.3 1.26-.12 1.82C31.49 21.51 22.56 30.99 13.87 35"/><g id="kvg:05f87-g2" kvg:element="亻" kvg:variant="true" kvg:original="人"><path id="kvg:05f87-s2" kvg:type="㇒" d="M36.35 32.75c.06.72.32 2-.13 2.89-3.15 6.24-11.84 18.72-22.97 27.61"/><path id="kvg:05f87-s3" kvg:type="㇑" d="M27.22 52.5c.36.25 1.07 1.65 1.15 2.16.07.51.0 38.65-.07 41.84"/></g></g><g id="kvg:05f87-g3" kvg:element="旬" kvg:position="right"><g id="kvg:05f87-g4" kvg:element="勹"><g id="kvg:05f87-g5" kvg:element="丿"><path id="kvg:05f87-s4" kvg:type="㇒" d="M56.57 14.75c.05.8.11 2.07-.1 3.22-1.23 6.79-8.3 21.7-17.97 30.83"/></g><path id="kvg:05f87-s5" kvg:type="㇆" d="M54.84 29.71c1.66.54 3.68.74 5.22.49 7.44-1.2 27.36-4.66 31.08-4.91s4.35.71 4.35 4.21c0 8.83-2.75 41.75-8.36 60.78-2.72 9.21-6.76.85-8.96-2.23"/></g><g id="kvg:05f87-g6" kvg:element="日"><path id="kvg:05f87-s6" kvg:type="㇑" d="M52.19 43.82c.28.86.55 1.29.55 2.43s-.09 34.27.0 35.42"/><path id="kvg:05f87-s7" kvg:type="㇕a" d="M53.2 45.11c1.56-.14 17.29-2.98 18.71-3.15 1.18-.14 1.94 1.59 1.85 2.43-.19 1.72-.37 34.2-.37 35.06"/><path id="kvg:05f87-s8" kvg:type="㇐a" d="M52.97 60.16c2.11.0 17.9-2.07 20.28-2.07"/><path id="kvg:05f87-s9" kvg:type="㇐a" d="M53.87 77.46c4.29-.62 14.03-1.66 19.37-2.19"/></g></g></g></g></svg>