<svg xmlns="http://www.w3.org/2000/svg" width="109" height="109" viewBox="0 0 109 109"><g id="kvg:StrokePaths_05f92"><g id="kvg:05f92" kvg:element="徒"><g id="kvg:05f92-g1" kvg:element="彳" kvg:position="left" kvg:radical="general"><path id="kvg:05f92-s1" kvg:type="㇒" d="M31.62 13.75c.06.46-.22 1.28-.6 1.85-2.69 3.99-10.53 11.78-18.66 17.65"/><g id="kvg:05f92-g2" kvg:element="亻" kvg:variant="true" kvg:original="人"><path id="kvg:05f92-s2" kvg:type="㇒" d="M32.38 32.5c.06.8.06 1.71-.37 2.69-3.05 6.9-10.82 18.89-22 30.56"/><path id="kvg:05f92-s3" kvg:type="㇑" d="M24.22 52.75c.76.76 1.15 1.88 1.15 2.91.0 1.97-.05 26.88-.07 37.84.0 2.09.0 3.68.0 4.5"/></g></g><g id="kvg:05f92-g3" kvg:element="走" kvg:position="right"><g id="kvg:05f92-g4" kvg:element="土" kvg:position="top" kvg:phon="土"><path id="kvg:05f92-s4" kvg:type="㇐" d="M47.63 29.17c2 .33 4.13.36 6.02.08 8.22-1.24 17.8-2.99 26.6-3.87 1.85-.18 3.56-.32 5.38.16"/><path id="kvg:05f92-s5" kvg:type="㇑a" d="M63.42 10.62c.12.29 1.65 1.53 1.77 3.39.57 8.93.31 27.7.31 30.75"/><path id="kvg:05f92-s6" kvg:type="㇐" d="M37.88 47.8c3.37.83 6.74.56 9.87.18 13.14-1.58 23.73-2.73 39.99-4.32 3.14-.31 6.76-.28 8.89.31"/></g><g id="kvg:05f92-g5" kvg:element="龰" kvg:position="bottom"><path id="kvg:05f92-s7" kvg:type="㇑a" d="M64.87 49.75c1 1 1.46 2.5 1.46 3.75.0 1.02-.08 23.5-.08 29.75"/><path id="kvg:05f92-s8" kvg:type="㇐b" d="M68.75 65.25c6-.5 14.5-2.34 17.09-2.34 1.57.0 2.5.18 3.29.37"/><path id="kvg:05f92-s9" kvg:type="㇒" d="M50.55 65.5c.05.69.11 1.78-.11 2.77-1.3 5.83-7.69 18.11-18.94 26.48"/><path id="kvg:05f92-s10" kvg:type="㇏" d="M49.12 75c7.92 2.72 27.72 17.4 35.22 19.96 2.31.79 5.15 1.49 7.4 1.79"/></g></g></g></g></svg>