<svg xmlns="http://www.w3.org/2000/svg" width="109" height="109" viewBox="0 0 109 109"><g id="kvg:StrokePaths_05f90"><g id="kvg:05f90" kvg:element="徐"><g id="kvg:05f90-g1" kvg:element="彳" kvg:position="left" kvg:radical="general"><path id="kvg:05f90-s1" kvg:type="㇒" d="M30.83 17c.06.44-.21 1.73-.62 2.27C27.36 23.11 20.12 30.75 11.12 36"/><g id="kvg:05f90-g2" kvg:element="亻" kvg:variant="true" kvg:original="人"><path id="kvg:05f90-s2" kvg:type="㇒" d="M33.6 35.5c.07.71-.18 1.97-.63 2.84C29.78 44.47 21.62 56.5 10.25 66"/><path id="kvg:05f90-s3" kvg:type="㇑" d="M23.22 54.5c.95.95 1.4 2.12 1.4 3.16.0 4.22-.02 26.09-.02 32.59.0 3.72-.03 6.47-.05 7.25"/></g></g><g id="kvg:05f90-g3" kvg:element="余" kvg:position="right" kvg:phon="余"><g id="kvg:05f90-g4" kvg:element="人" kvg:position="top"><path id="kvg:05f90-s4" kvg:type="㇒" d="M60.54 13c.1.9-.15 2.14-.7 3.38C56 25.25 48.75 39.5 33.71 51.32"/><path id="kvg:05f90-s5" kvg:type="㇏" d="M61.04 16.99c3.61 4.41 17.88 17.85 25.61 24.86 2.45 2.22 5.25 4.35 8.13 5.96"/></g><g id="kvg:05f90-g5" kvg:position="bottom"><path id="kvg:05f90-s6" kvg:type="㇐" d="M48 46.97c1.44.59 3.89.67 5.4.53 5.61-.51 13.88-1.69 19.1-2.17 1.68-.15 3.35-.43 5 .02"/><path id="kvg:05f90-s7" kvg:type="㇐" d="M41.48 62.96c2.39.79 5.35.99 7.4.81 8.29-.75 22.23-2.27 29.75-2.77 1.98-.13 4.12-.19 6.08.23"/><g id="kvg:05f90-g6" kvg:element="小"><path id="kvg:05f90-s8" kvg:type="㇚" d="M61.79 48.8c1.14 1.14 1.46 2.57 1.46 4.55.0 18.93.0 31.51.0 36.27.0 10.8-5.96 1.92-7.4.72"/><path id="kvg:05f90-s9" kvg:type="㇒" d="M49.97 72.75c.12 1.05-.06 2.07-.62 2.99-2.26 3.73-6.49 8.56-13.97 13.77"/><path id="kvg:05f90-s10" kvg:type="㇔" d="M74 74.12c4.93 2.66 12.73 10.94 13.96 15.08"/></g></g></g></g></g></svg>