<svg xmlns="http://www.w3.org/2000/svg" width="109" height="109" viewBox="0 0 109 109"><g id="kvg:StrokePaths_05f9e" style="fill:none;stroke:#000000;stroke-width:3;stroke-linecap:round;stroke-linejoin:round;"><g id="kvg:05f9e" kvg:element="從"><g id="kvg:05f9e-g1" kvg:element="彳" kvg:position="left" kvg:radical="general"><path id="kvg:05f9e-s1" kvg:type="㇒" d="M35.08 16.75c.06.51.27 1.41-.11 2.03-2.71 4.4-10.89 14.99-18.86 19.47"/><g id="kvg:05f9e-g2" kvg:element="亻" kvg:variant="true" kvg:original="人"><path id="kvg:05f9e-s2" kvg:type="㇒" d="M39.34 32.75c.07.68.34 1.9-.14 2.74-3.38 5.93-12.73 17.8-24.7 26.26"/><path id="kvg:05f9e-s3" kvg:type="㇑" d="M28.72 53c.36.25 1.07 1.65 1.15 2.16.07.51.0 37.15-.07 40.34"/></g></g><g id="kvg:05f9e-g3" kvg:element="CDP-8BB0" kvg:position="right"><g id="kvg:05f9e-g4" kvg:element="从" kvg:position="top"><g id="kvg:05f9e-g5" kvg:element="人" kvg:position="left"><path id="kvg:05f9e-s4" kvg:type="㇒" d="M57.61 16.99c0 .6.03 1.08-.08 1.8-.58 3.75-6.07 16.28-10.77 21.83"/><path id="kvg:05f9e-s5" kvg:type="㇏" d="M56.05 31.21c2.88 1.58 6.57 5.8 7.98 9.79"/></g><g id="kvg:05f9e-g6" kvg:element="人" kvg:position="right"><path id="kvg:05f9e-s6" kvg:type="㇒" d="M82.85 17.49c0 .6.03 1.08-.09 1.8-.62 3.75-6.51 16.28-11.55 21.83"/><path id="kvg:05f9e-s7" kvg:type="㇏" d="M80.36 29.46c4.17 1.99 9.5 7.27 11.54 12.29"/></g></g><g id="kvg:05f9e-g7" kvg:element="龰" kvg:position="bottom"><path id="kvg:05f9e-s8" kvg:type="㇑" d="M65.86 47c.39.46 1.31 2.48 1.31 3.4.0 6.25.36 26.41.28 32.13"/><path id="kvg:05f9e-s9" kvg:type="㇐" d="M67.53 62.2C68.51 62.2 75.4 60.74 81.43 59.54 82.71 59.29 83.91 59.27 84.92 59.27"/><path id="kvg:05f9e-s10" kvg:type="㇒" d="M51.37 60.81c.07.78.52 1.99.35 3.13C50.25 73.75 49 82.25 38.5 91.71"/><path id="kvg:05f9e-s11" kvg:type="㇏" d="M49.83 74.47c10.81 3.83 29.35 15.34 36.4 17.32 2.24.63 4.11 1.21 6.27 1.46"/></g></g></g></g></svg>