<svg xmlns="http://www.w3.org/2000/svg" width="109" height="109" viewBox="0 0 109 109"><g id="kvg:StrokePaths_05fa8" style="fill:none;stroke:#000000;stroke-width:3;stroke-linecap:round;stroke-linejoin:round;"><g id="kvg:05fa8" kvg:element="徨"><g id="kvg:05fa8-g1" kvg:element="彳" kvg:position="left" kvg:radical="general"><path id="kvg:05fa8-s1" kvg:type="㇒" d="M34.58 16.25c.06.5.28 1.38-.12 1.99-2.82 4.29-11.32 14.64-19.6 19.01"/><g id="kvg:05fa8-g2" kvg:element="亻" kvg:variant="true" kvg:original="人"><path id="kvg:05fa8-s2" kvg:type="㇒" d="M37.33 33.25c.07.78.35 2.18-.14 3.15C33.74 43.19 24.21 56.8 12 66.5"/><path id="kvg:05fa8-s3" kvg:type="㇑" d="M28.19 54c.38.27 1.13 1.73 1.21 2.27.07.54.0 39.12-.08 42.48"/></g></g><g id="kvg:05fa8-g3" kvg:element="皇" kvg:position="right"><g id="kvg:05fa8-g4" kvg:element="白" kvg:position="top"><g id="kvg:05fa8-g5" kvg:position="top"><path id="kvg:05fa8-s4" kvg:type="㇔" d="M63.97 11.75c.38.51.44 1.15.35 1.59-.54 2.65-5.21 8.99-9.45 12.55"/></g><g id="kvg:05fa8-g6" kvg:element="日" kvg:position="bottom"><path id="kvg:05fa8-s5" kvg:type="㇑" d="M47.46 26.56c.64.72 1.15 2.06 1.29 3.01.76 5.28 2.81 20.82 3.07 25.58"/><path id="kvg:05fa8-s6" kvg:type="㇕a" d="M49.13 28.27c8.91-1.3 29.48-3.71 32.77-4.16 2.6-.36 4.1 1.92 3.76 3.91-.77 4.43-3.05 14.7-4.58 23.19"/><path id="kvg:05fa8-s7" kvg:type="㇐a" d="M50.46 39.73c8.1-1.78 27.85-3.2 33.39-3.2"/><path id="kvg:05fa8-s8" kvg:type="㇐a" d="M51.52 51.43c9.25-.82 21.7-2.73 29.34-2.98"/></g></g><g id="kvg:05fa8-g7" kvg:element="王" kvg:original="玉" kvg:partial="true" kvg:position="bottom"><path id="kvg:05fa8-s9" kvg:type="㇐" d="M43.75 61.69c1.85.28 3.88.56 4.81.53C56 62 75.73 60.23 86.06 59.1c1.4-.15 2.69.1 3.85.52"/><path id="kvg:05fa8-s10" kvg:type="㇑a" d="M65.21 63.65c1.1 1.78 1.1 2.84 1.1 4.26.0 9.94-.06 12.84-.06 25.21"/><path id="kvg:05fa8-s11" kvg:type="㇐" d="M47.25 77.68c.76.49 3.26.3 4.03.22 8.07-.86 19.92-1.7 29.4-2.58.95-.09 3.03-.2 4.44.23"/><path id="kvg:05fa8-s12" kvg:type="㇐" d="M38.84 93.73c.7.31 4.35.62 5.54.52 14.23-1.28 26.74-1.19 44.5-2.19 2.98-.17 5.11-.06 6.76.5"/></g></g></g></g></svg>