<svg xmlns="http://www.w3.org/2000/svg" width="109" height="109" viewBox="0 0 109 109"><g id="kvg:StrokePaths_05fa1" style="fill:none;stroke:#000000;stroke-width:3;stroke-linecap:round;stroke-linejoin:round;"><g id="kvg:05fa1" kvg:element="御"><g id="kvg:05fa1-g1" kvg:element="彳" kvg:position="left" kvg:radical="general"><path id="kvg:05fa1-s1" kvg:type="㇒" d="M24.86 17.5c.09.76-.43 1.63-.83 2.23-2.39 3.67-8.48 10.1-14.66 13.52"/><g id="kvg:05fa1-g2" kvg:element="亻" kvg:variant="true" kvg:original="人"><path id="kvg:05fa1-s2" kvg:type="㇒" d="M25.14 37.5c0 1-.29 1.92-.59 2.66-2.1 5.21-7.64 14.65-15.05 22.09"/><path id="kvg:05fa1-s3" kvg:type="㇑" d="M21.72 49c.7.7.9 1.88.9 2.91.0.41.02 24.24-.03 35.84-.01 3.1-.03 5.33-.04 6"/></g></g><g id="kvg:05fa1-g3" kvg:element="卸" kvg:position="right"><g id="kvg:05fa1-g4" kvg:position="left"><g id="kvg:05fa1-g5" kvg:element="午"><g id="kvg:05fa1-g6" kvg:position="top"><path id="kvg:05fa1-s4" kvg:type="㇒" d="M44.14 13.47c.03.56-.1 1.62-.32 2.25-2.32 6.66-6.32 13.41-12.7 21.51"/><g id="kvg:05fa1-g7" kvg:element="干" kvg:part="1"><path id="kvg:05fa1-s5" kvg:type="㇐" d="M41.57 26.68c1.18.2 2.2.08 3.08-.05 4.23-.63 7.73-1.25 11.47-2.29 1.08-.3 3.26-.46 4.64-.31"/></g></g><g id="kvg:05fa1-g8" kvg:element="正" kvg:part="1" kvg:position="bottom"><g id="kvg:05fa1-g9" kvg:element="干" kvg:part="2"><g id="kvg:05fa1-g10" kvg:element="十"><path id="kvg:05fa1-s6" kvg:type="㇐" d="M33.25 42.68c1.84.85 5.15.38 7.01.01 5.69-1.12 15.11-3.31 21.25-4.83 1.13-.28 2.6-.5 3.77-.17"/><g id="kvg:05fa1-g11" kvg:element="止" kvg:part="1"><g id="kvg:05fa1-g12" kvg:element="卜" kvg:part="1" kvg:original="ト"><path id="kvg:05fa1-s7" kvg:type="㇑a" d="M49.58 28.16c.94.94 1.13 1.96 1.13 3.3.0.96-.08 31.26-.08 39.03"/></g></g></g></g></g></g><g id="kvg:05fa1-g13" kvg:element="正" kvg:part="2"><g id="kvg:05fa1-g14" kvg:element="止" kvg:part="2"><g id="kvg:05fa1-g15" kvg:element="卜" kvg:part="2" kvg:original="ト"><path id="kvg:05fa1-s8" kvg:type="㇐b" d="M51.92 52.84c4.2-.59 6.7-1.34 10.53-1.85 1.45-.19 2.56-.23 3.47.0"/></g></g><path id="kvg:05fa1-s9" kvg:type="㇑a" d="M36.34 54.76c1.01 1.01 1.62 1.73 1.63 3.05.03 3.69.36 11.57.4 17.81"/><path id="kvg:05fa1-s10" kvg:type="㇀/㇐" d="M34.46 76.79c.54.71 1.29 1.21 2.6.66 6.19-2.58 20.57-9.21 27.53-12.2"/></g></g><g id="kvg:05fa1-g16" kvg:element="卩" kvg:position="right"><path id="kvg:05fa1-s11" kvg:type="㇆" d="M71.22 26.9c1.66.73 3.67.68 5.12.48s14.64-3.01 16.45-3.21 4.71-.41 4.71 3.89c0 6.7-2 25.2-4.86 35.05-2.56 8.81-6.88 1.02-7.43.61"/><path id="kvg:05fa1-s12" kvg:type="㇑" d="M72.47 28.05c.87.87 1.29 1.84 1.3 3.45.08 9.95.03 38.68.01 55.75.0 3.49-.01 6.42-.01 8.5"/></g></g></g></g></svg>