<svg xmlns="http://www.w3.org/2000/svg" width="109" height="109" viewBox="0 0 109 109"><g id="kvg:StrokePaths_05fa9" style="fill:none;stroke:#000000;stroke-width:3;stroke-linecap:round;stroke-linejoin:round;"><g id="kvg:05fa9" kvg:element="復"><g id="kvg:05fa9-g1" kvg:element="彳" kvg:position="left" kvg:radical="general"><path id="kvg:05fa9-s1" kvg:type="㇒" d="M35.33 14c.11.97-.23 1.74-.76 2.51C31.52 20.93 23.72 29.97 16.12 34"/><g id="kvg:05fa9-g2" kvg:element="亻" kvg:variant="true" kvg:original="人"><path id="kvg:05fa9-s2" kvg:type="㇒" d="M36.59 34.25c.12 1.32-.4 2.61-1.01 3.74C32.03 44.63 23.74 55.58 12 66.25"/><path id="kvg:05fa9-s3" kvg:type="㇑" d="M28.72 51.25c.7.7 1.15 1.88 1.15 2.91.0.4.02 24.78-.03 37.09-.01 3.51-.03 6.04-.05 6.75"/></g></g><g id="kvg:05fa9-g3" kvg:element="复" kvg:position="right" kvg:phon="复"><g id="kvg:05fa9-g4" kvg:element="𠂉"><path id="kvg:05fa9-s4" kvg:type="㇒" d="M56.61 13c.06.97-.29 2.18-.67 3.06C54 20.5 50.62 26.62 45 33.29"/><path id="kvg:05fa9-s5" kvg:type="㇐" d="M56.75 21.97c.69.28 1.94.1 2.63.03 3.85-.42 16.91-2.23 24.66-3.4 1.7-.26 3.53-.28 5.24-.21"/></g><g id="kvg:05fa9-g5" kvg:element="日"><path id="kvg:05fa9-s6" kvg:type="㇑" d="M53.52 33.65c.73.73 1.16 1.72 1.28 2.75.45 3.85 1.35 10.46 2.07 16.08.23 1.82.4 3.09.43 3.26"/><path id="kvg:05fa9-s7" kvg:type="㇕a" d="M55.69 35.24c3.46-.63 18.76-3.02 24.44-3.77 2.95-.39 4.85.53 4.35 3.68-.5 3.15-1.61 10.73-2.26 15.38-.31 2.17-.51 3.71-.51 3.85"/><path id="kvg:05fa9-s8" kvg:type="㇐a" d="M56.83 44.56c8.67-1.31 17.17-2.69 25.47-3.4"/><path id="kvg:05fa9-s9" kvg:type="㇐a" d="M57.94 54.01c7.06-.64 15.56-1.89 23.1-2.22"/></g><g id="kvg:05fa9-g6" kvg:element="夂"><path id="kvg:05fa9-s10" kvg:type="㇒" d="M59.58 61.25c.13 1.11-.31 2.15-.8 3.14-2.4 4.24-7.4 10.61-14.89 16.28"/><path id="kvg:05fa9-s11" kvg:type="㇇" d="M61.72 65.48c1.03.15 2.11.1 2.82-.08 3.47-.89 8.82-2.48 12.23-3.28 2.34-.55 3.61 1.14 2.66 3.38C75.97 73.62 60.25 91 45 97"/><path id="kvg:05fa9-s12" kvg:type="㇏" d="M55.65 73.81c5.47 3.06 20.98 14.22 29.54 19.06 2.55 1.45 5.5 2.96 8.31 3.84"/></g></g></g></g></svg>