<svg xmlns="http://www.w3.org/2000/svg" width="109" height="109" viewBox="0 0 109 109"><g id="kvg:StrokePaths_05fbc" style="fill:none;stroke:#000000;stroke-width:3;stroke-linecap:round;stroke-linejoin:round;"><g id="kvg:05fbc" kvg:element="徼"><g id="kvg:05fbc-g1" kvg:element="彳" kvg:position="left" kvg:radical="general"><path id="kvg:05fbc-s1" kvg:type="㇒" d="M32.07 16.25c.06.48.3 1.35-.12 1.94-2.96 4.19-11.89 14.29-20.58 18.56"/><g id="kvg:05fbc-g2" kvg:element="亻" kvg:variant="true" kvg:original="人"><path id="kvg:05fbc-s2" kvg:type="㇒" d="M31.85 34.25c.06.73.31 2.03-.13 2.93C28.68 43.52 20.27 56.21 9.5 65.25"/><path id="kvg:05fbc-s3" kvg:type="㇑" d="M23.72 53.5c.36.25 1.07 1.65 1.15 2.16.07.51.0 37.15-.07 40.34"/></g></g><g id="kvg:05fbc-g3" kvg:element="敫" kvg:position="right"><g id="kvg:05fbc-g4" kvg:position="left"><g id="kvg:05fbc-g5" kvg:element="白"><g id="kvg:05fbc-g6" kvg:position="top"><path id="kvg:05fbc-s4" kvg:type="㇔" d="M50.04 16.25c.2.39.23.87.18 1.21-.28 2.01-2.71 6.81-4.92 9.51"/></g><g id="kvg:05fbc-g7" kvg:element="日" kvg:position="bottom"><path id="kvg:05fbc-s5" kvg:type="㇑" d="M37.9 28.26c.34.49.68.74.68 1.39.0.66 2.07 14.37 2.21 17.6"/><path id="kvg:05fbc-s6" kvg:type="㇕a" d="M38.78 29.42c1.91-.08 17.89-2.58 19.63-2.68 1.45-.08 3.49.73 3.2 2.42-.7 4.07-2.4 9.29-3.56 17.04"/><path id="kvg:05fbc-s7" kvg:type="㇐a" d="M40.51 37.39c5.27-.56 13.14-1.72 18.4-2.46"/><path id="kvg:05fbc-s8" kvg:type="㇐a" d="M42.28 45.89c5.58-.72 9.05-1.18 15.22-1.84"/></g></g><g id="kvg:05fbc-g8" kvg:element="放"><g id="kvg:05fbc-g9" kvg:element="方" kvg:position="left"><g id="kvg:05fbc-g10" kvg:element="亠" kvg:position="top"><path id="kvg:05fbc-s9" kvg:type="㇑a" d="M48.08 49.75c.67.36 1.78 1.76 1.78 2.48.0 2.66-.21 3.5-.09 5.75"/><path id="kvg:05fbc-s10" kvg:type="㇐" d="M31.94 59.69c.85.06 2.79.41 3.61.33 6.67-.69 16.95-1.52 24.85-2.7 1.38-.21 2.11-.47 3.16-.08"/></g><g id="kvg:05fbc-g11" kvg:position="bottom"><path id="kvg:05fbc-s11" kvg:type="㇆a" d="M48.05 65.77C50 66.5 51.5 67 55.86 67.98c2.8.63 3.98 2.86 3.39 4.52-1.5 4.25-6.68 14.4-10.27 17.52-3.89 3.39-5.73.98-7.15-1.58"/><path id="kvg:05fbc-s12" kvg:type="㇒" d="M48.02 61.48c.04.55.15 1.44-.09 2.22-1.8 5.87-6.06 15.21-15.81 21.24"/></g></g><g id="kvg:05fbc-g12" kvg:element="攵" kvg:variant="true" kvg:original="攴" kvg:position="right"><g id="kvg:05fbc-g13" kvg:element="𠂉" kvg:position="top"><path id="kvg:05fbc-s13" kvg:type="㇒" d="M75.27 17.14c.03.79.15 2.06-.07 3.16-1.36 6.98-4.89 20.58-11.95 30.2"/><path id="kvg:05fbc-s14" kvg:type="㇐" d="M70.78 40.46c.44.26 1.25.29 1.69.26 4.59-.3 14.96-3.2 19.33-3.73.78-.09 1.27-.01 1.47.05"/></g><g id="kvg:05fbc-g14" kvg:element="乂" kvg:position="bottom"><g id="kvg:05fbc-g15" kvg:element="丿"><path id="kvg:05fbc-s15" kvg:type="㇒" d="M86.19 42.93c.46 1.23.7 2.12.23 4.38C82.09 67.81 73.32 85 57.98 93.25"/></g><path id="kvg:05fbc-s16" kvg:type="㇏" d="M68 54.4c4.65 7 16.06 29.89 22.98 37.77 1.33 1.52 2.18 1.77 3.27 1.93"/></g></g></g></g></g></g></g></svg>