<!DOCTYPE svg PUBLIC "-//W3C//DTD SVG 1.0//EN" "http://www.w3.org/TR/2001/REC-SVG-20010904/DTD/svg10.dtd" [
<!ATTLIST g
xmlns:kvg CDATA #FIXED "http://kanjivg.tagaini.net"
kvg:element CDATA #IMPLIED
kvg:variant CDATA #IMPLIED
kvg:partial CDATA #IMPLIED
kvg:original CDATA #IMPLIED
kvg:part CDATA #IMPLIED
kvg:number CDATA #IMPLIED
kvg:tradForm CDATA #IMPLIED
kvg:radicalForm CDATA #IMPLIED
kvg:position CDATA #IMPLIED
kvg:radical CDATA #IMPLIED
kvg:phon CDATA #IMPLIED >
<!ATTLIST path
xmlns:kvg CDATA #FIXED "http://kanjivg.tagaini.net"
kvg:type CDATA #IMPLIED >
]><svg xmlns="http://www.w3.org/2000/svg" width="109" height="109" viewBox="0 0 109 109"><g id="kvg:StrokePaths_05fb9" style="fill:none;stroke:#000000;stroke-width:3;stroke-linecap:round;stroke-linejoin:round;"><g id="kvg:05fb9" kvg:element="徹"><g id="kvg:05fb9-g1" kvg:element="彳" kvg:position="left" kvg:radical="general"><path id="kvg:05fb9-s1" kvg:type="㇒" d="M27.6 16.25c0 1.04-.65 2.02-1.18 2.86-2.73 4.35-8.81 12.04-15.3 17.14"/><g id="kvg:05fb9-g2" kvg:element="亻" kvg:variant="true" kvg:original="人"><path id="kvg:05fb9-s2" kvg:type="㇒" d="M29.11 34.75c0 1.12-.35 2.21-.8 3.16-2.84 6.01-9.41 15.69-19.07 25.84"/><path id="kvg:05fb9-s3" kvg:type="㇑" d="M20.97 53c.76.76.9 1.75.9 2.66.0.41.02 23.76-.03 34.84-.01 2.83-.03 4.85-.04 5.5"/></g></g><g id="kvg:05fb9-g3" kvg:position="right" kvg:phon="育+攵"><g id="kvg:05fb9-g4" kvg:element="育" kvg:position="left"><g id="kvg:05fb9-g5" kvg:position="top"><g id="kvg:05fb9-g6" kvg:element="亠"><path id="kvg:05fb9-s4" kvg:type="㇑a" d="M48.05 15.82c1.06 1.06 1.17 2.05 1.17 3.58.0 1.85-.08 5.35-.08 7.08"/><path id="kvg:05fb9-s5" kvg:type="㇐" d="M33.47 28.65c.8.09 2.61.06 3.4.01 5.63-.41 15.17-2.43 23.69-2.7 1.32-.04 2.56-.21 3.72.14"/></g><g id="kvg:05fb9-g7" kvg:element="厶"><path id="kvg:05fb9-s6" kvg:type="㇜" d="M48 30c0 1-.17 1.81-.8 2.61-3.7 4.64-5.5 6.73-9.85 12.02-1.27 1.54-.81 2.91 1.26 2.45 7.64-1.7 9.64-2.07 18.87-4.3"/><path id="kvg:05fb9-s7" kvg:type="㇔" d="M54.73 36.03c2.43 1.93 6.29 7.93 6.9 10.94"/></g></g><g id="kvg:05fb9-g8" kvg:element="月" kvg:position="bottom"><path id="kvg:05fb9-s8" kvg:type="㇑" d="M37.98 54.51c.69.7.96 1.49.96 2.43.0.43-.04 20.31-.04 30.5.0 3.32-.01 5.63-.02 5.94"/><path id="kvg:05fb9-s9" kvg:type="㇆a" d="M39.64 55.82c1.17-.12 10.15-1.76 13.76-2.41 2.25-.4 3.83.5 3.72 3.46-.18 4.75-.03 24.04-.03 34.09.0 7.8-4.93 1.2-5.4.5"/><path id="kvg:05fb9-s10" kvg:type="㇐a" d="M40.14 66.03c4.83-.84 11.48-1.59 15.72-2.01"/><path id="kvg:05fb9-s11" kvg:type="㇐a" d="M40.25 76.6c3.77-.42 11.27-1.18 15.63-1.46"/></g></g><g id="kvg:05fb9-g9" kvg:element="攵" kvg:variant="true" kvg:original="攴" kvg:position="right"><g id="kvg:05fb9-g10" kvg:element="𠂉" kvg:position="top"><path id="kvg:05fb9-s12" kvg:type="㇒" d="M76.45 16.64c.03.82.2 2.16-.06 3.3-2.01 8.68-5.76 20.93-11.19 31.92"/><path id="kvg:05fb9-s13" kvg:type="㇐" d="M74.11 39.21c.7.17 2 0 2.38-.02 3.26-.22 10.14-1.69 14.9-2.6.78-.15 2.37-.28 3.1-.04"/></g><g id="kvg:05fb9-g11" kvg:element="乂" kvg:position="bottom"><g id="kvg:05fb9-g12" kvg:element="丿"><path id="kvg:05fb9-s14" kvg:type="㇒" d="M84.73 41.87c.35 1.27.55 2.17.18 4.48-3.37 21-10.75 39.32-21.89 48.14"/></g><path id="kvg:05fb9-s15" kvg:type="㇏" d="M68.4 55.29C74.12 65 80.88 77.25 89.57 87.42c1.93 2.25 3.84 4.18 5.98 6.19"/></g></g></g></g></g><g id="kvg:StrokeNumbers_05fb9" style="font-size:8;fill:#808080"><text transform="matrix(1 0 0 1 20.25 16.63)">1</text><text transform="matrix(1 0 0 1 21.75 35.50)">2</text><text transform="matrix(1 0 0 1 14.50 67.50)">3</text><text transform="matrix(1 0 0 1 39.50 15.50)">4</text><text transform="matrix(1 0 0 1 31.50 25.55)">5</text><text transform="matrix(1 0 0 1 37.50 36.50)">6</text><text transform="matrix(1 0 0 1 49.50 39.50)">7</text><text transform="matrix(1 0 0 1 31.50 63.13)">8</text><text transform="matrix(1 0 0 1 40.50 53.50)">9</text><text transform="matrix(1 0 0 1 42.50 62.50)">10</text><text transform="matrix(1 0 0 1 42.76 73.48)">11</text><text transform="matrix(1 0 0 1 64.50 16.50)">12</text><text transform="matrix(1 0 0 1 76.50 34.55)">13</text><text transform="matrix(1 0 0 1 74.50 46.50)">14</text><text transform="matrix(1 0 0 1 70.50 56.50)">15</text></g></svg>