<svg xmlns="http://www.w3.org/2000/svg" width="109" height="109" viewBox="0 0 109 109"><g id="kvg:StrokePaths_06015"><g id="kvg:06015" kvg:element="怕"><g id="kvg:06015-g1" kvg:element="忄" kvg:variant="true" kvg:original="心" kvg:position="left" kvg:radical="general"><path id="kvg:06015-s1" kvg:type="㇔" d="M18.22 35c.04 4.31-3 14.14-5.69 17.5"/><path id="kvg:06015-s2" kvg:type="㇔" d="M32.77 31.33c2.4 2.58 6.19 10.62 6.79 14.63"/><path id="kvg:06015-s3" kvg:type="㇑" d="M24.87 12.75c1.09.5 1.74 2.25 1.96 3.25.22 1 0 73.75-.22 80"/></g><g id="kvg:06015-g2" kvg:element="白" kvg:position="right"><g id="kvg:06015-g3" kvg:position="top"><path id="kvg:06015-s4" kvg:type="㇔" d="M68.35 13.25c.15 1 .3 2.24.0 2.83C65.5 21.75 62 26.75 55.44 33.96"/></g><g id="kvg:06015-g4" kvg:element="日" kvg:position="bottom"><path id="kvg:06015-s5" kvg:type="㇑" d="M49.3 34.24c.65 1.46 1.32 3.89 1.32 5.83s1.31 42.79 1.31 54.43"/><path id="kvg:06015-s6" kvg:type="㇕a" d="M51.01 37.1c3.71-.24 33.29-3.6 36.67-3.99 3.07-.36 3.52 1.6 3.51 4.66-.01 5.23-1.14 38.6-1.84 54.63"/><path id="kvg:06015-s7" kvg:type="㇐a" d="M51.52 62.56c7.77-.73 33.08-2.98 38.75-2.98"/><path id="kvg:06015-s8" kvg:type="㇐a" d="M52.82 92.7c9.3-.79 26.4-2.64 36.32-3"/></g></g></g></g></svg>