<svg xmlns="http://www.w3.org/2000/svg" width="109" height="109" viewBox="0 0 109 109"><g id="kvg:StrokePaths_0602a" style="fill:none;stroke:#000000;stroke-width:3;stroke-linecap:round;stroke-linejoin:round;"><g id="kvg:0602a" kvg:element="怪"><g id="kvg:0602a-g1" kvg:element="忄" kvg:variant="true" kvg:original="心" kvg:position="left" kvg:radical="general"><path id="kvg:0602a-s1" kvg:type="㇔" d="M15 40.25c0 6.61-2.97 16.36-3.75 18.25"/><path id="kvg:0602a-s2" kvg:type="㇔" d="M29.62 33.75c3.24 1.94 8.37 7.96 9.18 10.97"/><path id="kvg:0602a-s3" kvg:type="㇑" d="M24.62 13.75c1 1 1.21 2.38 1.21 4 0 .7.02 51.68.03 71.25.0 3.91.0 6.54.0 7.25"/></g><g id="kvg:0602a-g2" kvg:element="圣" kvg:position="right" kvg:phon="圣"><g id="kvg:0602a-g3" kvg:element="又" kvg:position="top"><path id="kvg:0602a-s4" kvg:type="㇇" d="M46.22 18.57c1.29.32 2.44.2 5.04-.18 3.61-.52 18.44-3.72 20.22-4.18 2.76-.71 3.89.29 2.68 3.56C66.4 38.75 51.38 52.32 36.82 60.25"/><path id="kvg:0602a-s5" kvg:type="㇏" d="M46.72 26.73c5.44.69 22.34 14.79 36.44 23.16 3.34 1.98 7.09 3.86 9.77 4.72"/></g><g id="kvg:0602a-g4" kvg:element="土" kvg:position="bottom"><path id="kvg:0602a-s6" kvg:type="㇐" d="M45.13 72.17c2.12.33 4.75.32 6.76.09 7.49-.88 18.99-2 27.87-2.27 1.96-.06 3.96-.15 5.88.3"/><path id="kvg:0602a-s7" kvg:type="㇑a" d="M63.92 56.37c.86.86 1.26 2.27 1.27 4.14.06 11.5-.07 25.33-.07 28.37"/><path id="kvg:0602a-s8" kvg:type="㇐" d="M36.88 91.23c2.35.84 5.07.65 7.5.43 14.68-1.33 26.97-2.55 42.75-2.83 2.7-.05 5.35-.08 8 .49"/></g></g></g></g></svg>