<svg xmlns="http://www.w3.org/2000/svg" width="109" height="109" viewBox="0 0 109 109"><g id="kvg:StrokePaths_06028"><g id="kvg:06028" kvg:element="怨"><g id="kvg:06028-g1" kvg:element="夗" kvg:position="top"><g id="kvg:06028-g2" kvg:element="夕" kvg:position="left"><path id="kvg:06028-s1" kvg:type="㇒" d="M34.23 13.14c0 1.16-.17 2.28-.63 3.31-3.1 7.04-8.76 16.5-17.26 25.22"/><path id="kvg:06028-s2" kvg:type="㇇" d="M34.8 21.87c1.3.03 2.58-.11 3.84-.42 2.39-.51 5.79-.93 8.77-1.52 3.57-.7 4.87.3 3.53 3.89C46.59 35.52 29.4 60.56 14.75 66"/><path id="kvg:06028-s3" kvg:type="㇔" d="M27.12 34.12c2.38 1.5 6.62 4.88 9 8.75"/></g><g id="kvg:06028-g3" kvg:element="卩" kvg:position="right"><path id="kvg:06028-s4" kvg:type="㇆" d="M59.49 19.73c1.91.39 3.78.38 5.63-.03 5.52-1 14.02-2.84 17.28-3.67 2.6-.66 4.36.98 3.97 4.04-.74 5.68-2.58 12.56-5.61 18.73-2.21 4.5-4.18.54-4.61.32"/><path id="kvg:06028-s5" kvg:type="㇟/㇑" d="M61.24 20.73c.89.9 1.26 2.4 1.23 4.04-.09 5.77-.11 10.73-.05 17.81.09 11.93 1.84 13.13 15.82 13.13 14.52.0 16.41-1.07 16.41-10.39"/></g></g><g id="kvg:06028-g4" kvg:element="心" kvg:position="bottom" kvg:radical="general"><path id="kvg:06028-s6" kvg:type="㇔" d="M22.4 76.32c.29 2.25-2.95 12.17-5.32 15.92"/><path id="kvg:06028-s7" kvg:type="㇃" d="M34.08 71.68C44 90.75 55 97 80.06 96.75c13.29-.13 14.16-3.56 3.07-9.62"/><path id="kvg:06028-s8" kvg:type="㇔a" d="M52.91 68.75c1.98 4.87 4.85 9.74 6.97 2.28"/><path id="kvg:06028-s9" kvg:type="㇔" d="M75.63 66.73c5.31 1.67 9.29 3.19 13.6 8.36"/></g></g></g></svg>