<svg xmlns="http://www.w3.org/2000/svg" width="109" height="109" viewBox="0 0 109 109"><g id="kvg:StrokePaths_06027" style="fill:none;stroke:#000000;stroke-width:3;stroke-linecap:round;stroke-linejoin:round;"><g id="kvg:06027" kvg:element="性"><g id="kvg:06027-g1" kvg:element="忄" kvg:variant="true" kvg:original="心" kvg:position="left" kvg:radical="general"><path id="kvg:06027-s1" kvg:type="㇔" d="M16 38.75c0 6.43-3.55 15.41-4.48 17.25"/><path id="kvg:06027-s2" kvg:type="㇔" d="M30.52 30.83c3.72 2.19 9.61 8.98 10.54 12.38"/><path id="kvg:06027-s3" kvg:type="㇑" d="M25.62 14.75c.94.94 1.71 2.75 1.71 4 0 .85.05 65.88.05 69.62.0 5.04-.01 5.5-.01 7.38"/></g><g id="kvg:06027-g2" kvg:element="生" kvg:position="right" kvg:phon="生"><path id="kvg:06027-s4" kvg:type="㇒" d="M54.01 28.14c.04.7.22 1.85-.08 2.83C51.75 38.12 47.5 49.12 40.75 58"/><path id="kvg:06027-s5" kvg:type="㇐" d="M53.63 42.17c1.37.21 2.66.21 3.6.13 6-.49 21.82-2.31 29.4-3.13 1.84-.2 3.65-.42 5.5-.28"/><path id="kvg:06027-s6" kvg:type="㇑a" d="M67.56 13.63c1.22 1.22 2.26 3.37 2.26 5.48.0 1.06.0 60.26.0 70.27"/><path id="kvg:06027-s7" kvg:type="㇐" d="M50.88 63.53c2 .22 3.83.3 5.87.1 7.62-.75 20.74-1.54 27.35-2.05 1.99-.15 4.02-.2 5.77.29"/><path id="kvg:06027-s8" kvg:type="㇐" d="M38.88 90.72c2.93.51 5.06.6 8.01.41 11.74-.76 35.24-1.76 45.08-1.81 2.54-.02 5.29.18 7.29.63"/></g></g></g></svg>