<svg xmlns="http://www.w3.org/2000/svg" width="109" height="109" viewBox="0 0 109 109"><g id="kvg:StrokePaths_06042" style="fill:none;stroke:#000000;stroke-width:3;stroke-linecap:round;stroke-linejoin:round;"><g id="kvg:06042" kvg:element="恂"><g id="kvg:06042-g1" kvg:element="忄" kvg:variant="true" kvg:original="心" kvg:position="left" kvg:radical="general"><path id="kvg:06042-s1" kvg:type="㇔" d="M17.22 37c.03 4.31-2.47 14.14-4.69 17.5"/><path id="kvg:06042-s2" kvg:type="㇔" d="M32.77 25.83c2.75 1.96 7.1 8.08 7.79 11.13"/><path id="kvg:06042-s3" kvg:type="㇑" d="M24.87 11.75c1.09.5 1.74 2.25 1.96 3.25.22 1 0 77.75-.22 84"/></g><g id="kvg:06042-g2" kvg:element="旬" kvg:position="right"><g id="kvg:06042-g3" kvg:element="勹"><g id="kvg:06042-g4" kvg:element="丿"><path id="kvg:06042-s4" kvg:type="㇒" d="M57.24 11.5c.05.8.11 2.08-.1 3.23-1.23 6.81-8.26 21.75-17.89 30.9"/></g><path id="kvg:06042-s5" kvg:type="㇆" d="M54.69 28.75c.86.75 2.06 1 3.43.5s27.93-3.25 31.35-3.5c3.43-.25 4.61 1 4.1 6.25s-3.13 44.72-8.96 59.75c-3.11 8-6.61 3.5-9.98-.75"/></g><g id="kvg:06042-g5" kvg:element="日"><path id="kvg:06042-s6" kvg:type="㇑" d="M49.29 43.94c.71.56 1.51 2.18 1.51 3.22s.92 29.29 1 30.34"/><path id="kvg:06042-s7" kvg:type="㇕a" d="M50.22 45.57c1.43-.13 16.48-2.88 17.71-3.33 2.07-.74 3.32 1.01 3.2 2.72-.1 1.57-2.34 31.23-2.34 32.01"/><path id="kvg:06042-s8" kvg:type="㇐a" d="M52.47 59.23c1.94.0 15.05-1.81 17.24-1.81"/><path id="kvg:06042-s9" kvg:type="㇐a" d="M52.38 75.06c3.95-.56 10.91-1.06 15.82-1.54"/></g></g></g></g></svg>