<svg xmlns="http://www.w3.org/2000/svg" width="109" height="109" viewBox="0 0 109 109"><g id="kvg:StrokePaths_0605a" style="fill:none;stroke:#000000;stroke-width:3;stroke-linecap:round;stroke-linejoin:round;"><g id="kvg:0605a" kvg:element="恚"><g id="kvg:0605a-g1" kvg:element="圭" kvg:position="top"><g id="kvg:0605a-g2" kvg:element="土" kvg:position="top" kvg:radical="nelson"><path id="kvg:0605a-s1" kvg:type="㇐" d="M29.18 22.6c1.12.4 3.17.5 4.28.4 14.36-1.35 27.18-3.62 41.63-3.97 1.86-.04 2.98.19 3.91.39"/><path id="kvg:0605a-s2" kvg:type="㇑a" d="M52.66 9.62c.09.22 1.35 1.16 1.35 2.57.0 9.12.11 11.4.11 23.46"/><path id="kvg:0605a-s3" kvg:type="㇐" d="M22.42 37.69c1.43.57 4.05.69 5.47.57 17.66-1.59 37.87-3.15 53.66-3.9 2.38-.11 3.8.27 4.99.55"/></g><g id="kvg:0605a-g3" kvg:element="土" kvg:position="bottom"><path id="kvg:0605a-s4" kvg:type="㇐" d="M29.55 53.2c.93.36 2.63.46 3.56.36 11.93-1.23 31.4-3.83 43.41-4.15 1.55-.04 2.48.17 3.25.35"/><path id="kvg:0605a-s5" kvg:type="㇑a" d="M52.78 39.9c.09.22 1.35 1.16 1.35 2.58.0 9.12.11 18.78.11 22.48"/><path id="kvg:0605a-s6" kvg:type="㇐" d="M21.27 67.26c1.63.68 4.64.83 6.27.68 20.25-1.9 37.85-3.78 55.96-4.67 2.72-.13 4.36.32 5.73.66"/></g></g><g id="kvg:0605a-g4" kvg:element="心" kvg:position="bottom" kvg:radical="tradit"><path id="kvg:0605a-s7" kvg:type="㇔" d="M25.14 81.07c.47 2.21-4.75 11.98-8.56 15.67"/><path id="kvg:0605a-s8" kvg:type="㇃" d="M34.58 74.75c6.07 13.13 15.67 24.52 39.09 24.68 11.3.08 12.04-3.5 2.61-9.47"/><path id="kvg:0605a-s9" kvg:type="㇔a" d="M54.41 74.75c2.17 5.25 5.32 10.5 7.63 2.46"/><path id="kvg:0605a-s10" kvg:type="㇔" d="M80.88 74.73c4.63 2.07 8.09 3.96 11.85 10.36"/></g></g></g></svg>