<svg xmlns="http://www.w3.org/2000/svg" width="109" height="109" viewBox="0 0 109 109"><g id="kvg:StrokePaths_0606c"><g id="kvg:0606c" kvg:element="恬"><g id="kvg:0606c-g1" kvg:element="忄" kvg:variant="true" kvg:original="心" kvg:position="left" kvg:radical="general"><path id="kvg:0606c-s1" kvg:type="㇔" d="M16.22 35.5c.03 4.31-2.47 14.14-4.69 17.5"/><path id="kvg:0606c-s2" kvg:type="㇔" d="M33.02 29.33c2.49 2.05 6.42 8.44 7.04 11.63"/><path id="kvg:0606c-s3" kvg:type="㇑" d="M23.87 13.75c1.09.5 1.74 2.25 1.96 3.25.22 1 0 73.75-.22 80"/></g><g id="kvg:0606c-g2" kvg:element="舌" kvg:position="right"><g id="kvg:0606c-g3" kvg:element="千" kvg:position="top"><path id="kvg:0606c-s4" kvg:type="㇒" d="M82.25 14.75c.1.45-.76 2.87-1.32 3.36C76.67 21.85 65.87 28.04 47 33.25"/><path id="kvg:0606c-s5" kvg:type="㇐" d="M40.83 50.21c1.08.3 3.79.37 4.88.3 9.35-.65 35.73-4.55 48.67-4.73 1.81-.02 2.89.14 3.8.29"/><path id="kvg:0606c-s6" kvg:type="㇑a" d="M66.92 30.5c.55.38 1.72 2.87 1.83 3.64.21 1.43-.07 30.06-.18 35"/></g><g id="kvg:0606c-g4" kvg:element="口" kvg:position="bottom"><path id="kvg:0606c-s7" kvg:type="㇑" d="M48.5 69.58c.51.41 1.63 1.73 1.76 2.27 1.39 5.9 3.45 15.4 3.98 24.15"/><path id="kvg:0606c-s8" kvg:type="㇕b" d="M51.25 72.06c12.01-1.33 28.96-3.38 35.72-3.93 2.47-.2 3.18 2.02 2.83 3.2-1.46 4.85-3.29 12.42-5.5 19.92"/><path id="kvg:0606c-s9" kvg:type="㇐b" d="M54.49 93.82c7.94-.62 21.64-1.18 32.54-2.13"/></g></g></g></g></svg>