<svg xmlns="http://www.w3.org/2000/svg" width="109" height="109" viewBox="0 0 109 109"><g id="kvg:StrokePaths_06064" style="fill:none;stroke:#000000;stroke-width:3;stroke-linecap:round;stroke-linejoin:round;"><g id="kvg:06064" kvg:element="恤"><g id="kvg:06064-g1" kvg:element="忄" kvg:variant="true" kvg:original="心" kvg:position="left" kvg:radical="general"><path id="kvg:06064-s1" kvg:type="㇔" d="M15.72 33.75c.02 4.38-1.94 14.35-3.69 17.75"/><path id="kvg:06064-s2" kvg:type="㇔" d="M29.27 32.33c2.22 2.23 5.74 9.17 6.29 12.63"/><path id="kvg:06064-s3" kvg:type="㇑" d="M21.37 12.25c1.09.5 1.74 2.25 1.96 3.25.22 1 0 74.75-.22 81"/></g><g id="kvg:06064-g2" kvg:element="血" kvg:position="right"><path id="kvg:06064-s4" kvg:type="㇒" d="M67.42 14.58c.05.5.21 1.35-.1 2.02-2.2 4.78-8.46 13.54-17.15 19.3"/><g id="kvg:06064-g3" kvg:element="皿"><path id="kvg:06064-s5" kvg:type="㇑a" d="M41.48 34.95c.75.55 1.25 1.8 1.37 2.51.92 5.6 2.8 38.27 3.43 48.33"/><path id="kvg:06064-s6" kvg:type="㇕b" d="M43.69 37.47c9.77-1.16 40.73-3.65 44.27-3.69 3.04-.03 4.54.72 4.38 3.04-.22 3.25-4.92 42.96-6.05 47.34"/><path id="kvg:06064-s7" kvg:type="㇑a" d="M57.21 37.9c.23.53 1.03 1.47 1.06 2.14.48 10.62.96 35.78 1.5 45.27"/><path id="kvg:06064-s8" kvg:type="㇑a" d="M72.86 36.88c.02.46 1.03 2.09 1.03 2.87.02 8.8-1.99 33.69-2.17 44.17"/><path id="kvg:06064-s9" kvg:type="㇐" d="M32.88 86.46c1.09.38 3.08.44 4.16.38 11.29-.63 38.25-2.15 59.04-2.25 1.81-.01 2.89.18 3.8.37"/></g></g></g></g></svg>