<svg xmlns="http://www.w3.org/2000/svg" width="109" height="109" viewBox="0 0 109 109"><g id="kvg:StrokePaths_06062"><g id="kvg:06062" kvg:element="恢"><g id="kvg:06062-g1" kvg:element="忄" kvg:original="心" kvg:position="left" kvg:radical="general"><path id="kvg:06062-s1" kvg:type="㇔" d="M16.25 40.25c0 6.61-2.97 16.36-3.75 18.25"/><path id="kvg:06062-s2" kvg:type="㇔" d="M29.02 34.58c2.66 1.74 6.88 7.17 7.54 9.88"/><path id="kvg:06062-s3" kvg:type="㇑" d="M23.87 15.25c1.09.5 1.74 2.25 1.96 3.25.22 1 0 70.75-.22 77"/></g><g id="kvg:06062-g2" kvg:element="灰" kvg:position="right"><g id="kvg:06062-g3" kvg:element="厂" kvg:position="tare"><path id="kvg:06062-s4" kvg:type="㇐" d="M36.06 23.41c1.58.53 4.38.62 5.96.53 13.79-.75 27.87-2.57 43.93-3.5 2.62-.15 4.21.26 5.52.52"/><path id="kvg:06062-s5" kvg:type="㇒" d="M46.98 13c.47 1.5.57 3.44.44 6.07C46.44 37.58 46 66.75 34.06 86.97"/></g><g id="kvg:06062-g4" kvg:element="火" kvg:position="tarec"><path id="kvg:06062-s6" kvg:type="㇔" d="M53.9 51.12c1.66 2.53 4.08 9.69 4.54 12.22"/><path id="kvg:06062-s7" kvg:type="㇒" d="M87.7 47.29c.72.61.52 1.91-.13 2.85-.66.94-6.84 7.82-10.11 10.02"/><path id="kvg:06062-s8" kvg:type="㇒" d="M68.51 34.25C69.5 34.83 70 38.1 70 39.07 70 69.25 62 83 45.68 92.5"/><path id="kvg:06062-s9" kvg:type="㇏" d="M68.65 59.87c8.45 12.19 18.69 24.59 24.26 29.67 1.75 1.6 2.16 1.42 3.59 1.83"/></g></g></g></g></svg>