<svg xmlns="http://www.w3.org/2000/svg" width="109" height="109" viewBox="0 0 109 109"><g id="kvg:StrokePaths_0606a" style="fill:none;stroke:#000000;stroke-width:3;stroke-linecap:round;stroke-linejoin:round;"><g id="kvg:0606a" kvg:element="恪"><g id="kvg:0606a-g1" kvg:element="忄" kvg:variant="true" kvg:original="心" kvg:position="left" kvg:radical="general"><path id="kvg:0606a-s1" kvg:type="㇔" d="M16.22 37c.03 4.31-2.47 14.14-4.69 17.5"/><path id="kvg:0606a-s2" kvg:type="㇔" d="M28.27 30.83c2.75 1.7 7.1 6.99 7.79 9.63"/><path id="kvg:0606a-s3" kvg:type="㇑" d="M23.87 15.25c1.09.5 1.74 2.25 1.96 3.25.22 1 0 73.75-.22 80"/></g><g id="kvg:0606a-g2" kvg:element="各" kvg:position="right"><g id="kvg:0606a-g3" kvg:element="夂" kvg:position="top"><path id="kvg:0606a-s4" kvg:type="㇒" d="M58.77 14.25c.06.75.3 1.98-.12 3-3.16 7.84-10.66 23-20.08 29.32"/><path id="kvg:0606a-s5" kvg:type="㇇" d="M58.76 23.41c.33.04 1.76.0 2.71-.11 3.14-.35 11.96-2.59 16.44-3.68 3.08-.75 4.06.9 3.16 2.89C74.75 36.5 61 56 37.44 67.53"/><path id="kvg:0606a-s6" kvg:type="㇏" d="M54.15 32.58c5.21 5.34 28.82 25.64 35.84 30.52 2.09 1.45 3.79 2.16 5.83 2.6"/></g><g id="kvg:0606a-g4" kvg:element="口" kvg:position="bottom"><path id="kvg:0606a-s7" kvg:type="㇑" d="M49.33 69.32c.39.46.79.84.96 1.41 1.35 4.54 2.43 17.57 3.36 25.72"/><path id="kvg:0606a-s8" kvg:type="㇕b" d="M51.76 71.37c10.96-1.53 25.41-2.91 29.97-3.51 1.67-.22 2.67 1.29 2.43 2.57-.99 5.3-3.22 13.23-4.69 20.55"/><path id="kvg:0606a-s9" kvg:type="㇐b" d="M53.83 94c5.36-.68 20.48-.79 27.85-1.83"/></g></g></g></g></svg>