<!DOCTYPE svg PUBLIC "-//W3C//DTD SVG 1.0//EN" "http://www.w3.org/TR/2001/REC-SVG-20010904/DTD/svg10.dtd" [
<!ATTLIST g
xmlns:kvg CDATA #FIXED "http://kanjivg.tagaini.net"
kvg:element CDATA #IMPLIED
kvg:variant CDATA #IMPLIED
kvg:partial CDATA #IMPLIED
kvg:original CDATA #IMPLIED
kvg:part CDATA #IMPLIED
kvg:number CDATA #IMPLIED
kvg:tradForm CDATA #IMPLIED
kvg:radicalForm CDATA #IMPLIED
kvg:position CDATA #IMPLIED
kvg:radical CDATA #IMPLIED
kvg:phon CDATA #IMPLIED >
<!ATTLIST path
xmlns:kvg CDATA #FIXED "http://kanjivg.tagaini.net"
kvg:type CDATA #IMPLIED >
]><svg xmlns="http://www.w3.org/2000/svg" width="109" height="109" viewBox="0 0 109 109"><g id="kvg:StrokePaths_06069" style="fill:none;stroke:#000000;stroke-width:3;stroke-linecap:round;stroke-linejoin:round;"><g id="kvg:06069" kvg:element="恩"><g id="kvg:06069-g1" kvg:element="因" kvg:position="top" kvg:phon="因"><g id="kvg:06069-g2" kvg:element="囗" kvg:part="1"><path id="kvg:06069-s1" kvg:type="㇑" d="M30.79 16.2c.69.69 1.27 1.88 1.28 2.93.08 6.81.05 22.51.04 36.49.0 2.18.0 4.32.0 6.38"/><path id="kvg:06069-s2" kvg:type="㇕a" d="M33.19 17.99c11.32-.83 31.67-3.25 41.57-3.67 3.5-.15 4.93.94 4.93 4.06.0 8.25-.48 22.68-.55 36-.01 1.95-.02 3.88-.02 5.75"/></g><g id="kvg:06069-g3" kvg:element="大"><path id="kvg:06069-s3" kvg:type="㇐" d="M39 33.61c1.27.24 2.61.03 3.88-.05 6.99-.44 16.75-2.25 24.12-2.88 1.62-.14 3.21-.18 4.84-.18"/><path id="kvg:06069-s4" kvg:type="㇒" d="M54.78 21.19c.64.64.77 1.96.66 2.92-1.19 11.01-5.94 22.64-15.12 30.27"/><path id="kvg:06069-s5" kvg:type="㇔/㇏" d="M55.73 38.53c5.18 2.62 10.77 6.97 14.59 12.18"/></g><g id="kvg:06069-g4" kvg:element="囗" kvg:part="2"><path id="kvg:06069-s6" kvg:type="㇐a" d="M33.26 59.35c13.62-.98 32.43-2.41 44.86-2.64"/></g></g><g id="kvg:06069-g5" kvg:element="心" kvg:position="bottom" kvg:radical="general"><path id="kvg:06069-s7" kvg:type="㇔" d="M23.25 75.5c.35 2.12-3.47 11.49-6.25 15.03"/><path id="kvg:06069-s8" kvg:type="㇃" d="M31.94 70.1c7.31 13.4 14.81 25.52 45.81 25.4 9.38-.04 9.62-3.12 3.5-7.5"/><path id="kvg:06069-s9" kvg:type="㇔a" d="M54.15 68.82c2.6 5.18 6.25 7.96 7.42 3.18"/><path id="kvg:06069-s10" kvg:type="㇔" d="M83.96 68.51C87.5 71.5 91.25 76 94.75 81.97"/></g></g></g><g id="kvg:StrokeNumbers_06069" style="font-size:8;fill:#808080"><text transform="matrix(1 0 0 1 25.50 25.50)">1</text><text transform="matrix(1 0 0 1 34.50 14.50)">2</text><text transform="matrix(1 0 0 1 37.50 30.13)">3</text><text transform="matrix(1 0 0 1 47.50 25.41)">4</text><text transform="matrix(1 0 0 1 61.50 39.50)">5</text><text transform="matrix(1 0 0 1 47.50 55.50)">6</text><text transform="matrix(1 0 0 1 15.75 76.63)">7</text><text transform="matrix(1 0 0 1 29.25 82.63)">8</text><text transform="matrix(1 0 0 1 45.75 72.13)">9</text><text transform="matrix(1 0 0 1 71.25 70.63)">10</text></g></svg>