<svg xmlns="http://www.w3.org/2000/svg" width="109" height="109" viewBox="0 0 109 109"><g id="kvg:StrokePaths_06065" style="fill:none;stroke:#000000;stroke-width:3;stroke-linecap:round;stroke-linejoin:round;"><g id="kvg:06065" kvg:element="恥"><g id="kvg:06065-g1" kvg:element="耳" kvg:position="left" kvg:radical="nelson" kvg:phon="耳"><path id="kvg:06065-s1" kvg:type="㇐" d="M9.69 24.26c2.2.9 4.83.28 7.08.01C24.63 23.32 33.28 22.1 44 20.9c2.44-.27 4.6-.59 7 0"/><path id="kvg:06065-s2" kvg:type="㇑a" d="M19.68 27.47c.93.93 1.28 2.19 1.28 3.5.0 1.3-.08 36.85-.08 41.54"/><path id="kvg:06065-s3" kvg:type="㇐a" d="M22.05 39.74c4.2-.61 14.07-2.11 18.33-2.41"/><path id="kvg:06065-s4" kvg:type="㇐a" d="M21.99 54.96c7.51-1.25 9.01-1.77 18.17-2.65"/><path id="kvg:06065-s5" kvg:type="㇀" d="M11 76.57c.88 1.06 2.38 1.06 4.12.25 3.34-1.55 17.01-8.44 23.76-11.72"/><path id="kvg:06065-s6" kvg:type="㇑" d="M40 24.8c1 1.17 1.1 2.63 1.1 3.93.0.87-.06 40.57-.08 57.64-.01 4.38-.01 7.27-.01 7.62"/></g><g id="kvg:06065-g2" kvg:element="心" kvg:position="right" kvg:radical="tradit"><path id="kvg:06065-s7" kvg:type="㇔" d="M50.86 53.25c.14 5.12-1.33 17.78-2.4 23.25"/><path id="kvg:06065-s8" kvg:type="㇃" d="M56.81 46.25C62.75 69.12 73 81.5 88.61 82.7c10.93.84 10.39-2.45 3.07-8.37"/><path id="kvg:06065-s9" kvg:type="㇔a" d="M68.72 45.5c2.4 4.88 6.15 9.66 7.08 4.9"/><path id="kvg:06065-s10" kvg:type="㇔" d="M87.25 43.75c2.93 2.3 5.5 5.62 7.5 11.5"/></g></g></g></svg>