<svg xmlns="http://www.w3.org/2000/svg" width="109" height="109" viewBox="0 0 109 109"><g id="kvg:StrokePaths_06081" style="fill:none;stroke:#000000;stroke-width:3;stroke-linecap:round;stroke-linejoin:round;"><g id="kvg:06081" kvg:element="悁"><g id="kvg:06081-g1" kvg:element="忄" kvg:variant="true" kvg:original="心" kvg:position="left" kvg:radical="general"><path id="kvg:06081-s1" kvg:type="㇔" d="M17.22 36.5c.03 4.31-2.47 14.14-4.69 17.5"/><path id="kvg:06081-s2" kvg:type="㇔" d="M34.77 34.33c2.22 2.23 5.74 9.17 6.29 12.63"/><path id="kvg:06081-s3" kvg:type="㇑" d="M24.37 14.75c1.09.5 1.74 2.25 1.96 3.25.22 1 0 72.75-.22 79"/></g><g id="kvg:06081-g2" kvg:element="肙" kvg:position="right"><g id="kvg:06081-g3" kvg:element="口" kvg:position="top"><path id="kvg:06081-s4" kvg:type="㇑" d="M52.71 14.73c.37.31.75.57.91.95 1.28 3.06 2.82 12.02 3.7 17.52"/><path id="kvg:06081-s5" kvg:type="㇕b" d="M55.02 16.79C65 15 81.16 13.31 85.83 12.88c1.71-.16 2.74 1.6 2.49 2.53-1.01 3.86-2.17 8.19-4.34 13.75"/><path id="kvg:06081-s6" kvg:type="㇐b" d="M57.69 31.69c5.49-.49 19.4-1.69 28.09-2.05"/></g><g id="kvg:06081-g4" kvg:element="月" kvg:position="bottom"><path id="kvg:06081-s7" kvg:type="㇑" d="M52.26 42.1c.68.85 1.13 1.69 1.36 2.54s.23 38.87.23 49.75"/><path id="kvg:06081-s8" kvg:type="㇆a" d="M54.47 44.44c2.72-.21 28.22-2.71 30.24-2.95 3.63-.42 4.99 2.75 4.53 4.02-.44 1.22-.12 25.43-.12 42.56.0 11-5.44 3.81-7.7 1.9"/><path id="kvg:06081-s9" kvg:type="㇐a" d="M54.47 57.18c11.01-1.22 26.09-1.63 34.25-2.26"/><path id="kvg:06081-s10" kvg:type="㇐a" d="M53.98 71.23c7.25-.63 26.47-2.01 34.85-2.44"/></g></g></g></g></svg>