<svg xmlns="http://www.w3.org/2000/svg" width="109" height="109" viewBox="0 0 109 109"><g id="kvg:StrokePaths_06094"><g id="kvg:06094" kvg:element="悔"><g id="kvg:06094-g1" kvg:element="忄" kvg:variant="true" kvg:original="心" kvg:position="left" kvg:radical="general"><path id="kvg:06094-s1" kvg:type="㇔" d="M18.25 39.5c0 6.61-2.97 16.36-3.75 18.25"/><path id="kvg:06094-s2" kvg:type="㇔" d="M32.52 37.83c2.49 1.44 6.42 5.9 7.04 8.13"/><path id="kvg:06094-s3" kvg:type="㇑" d="M27.12 15.5c1.06 1.06 1.46 3 1.46 4.75.0 6.92.02 50.67.03 68.38.0 3.41.0 5.85.0 6.88"/></g><g id="kvg:06094-g2" kvg:element="毎" kvg:position="right" kvg:phon="毎"><g id="kvg:06094-g3" kvg:position="top"><g id="kvg:06094-g4" kvg:element="丿"><path id="kvg:06094-s4" kvg:type="㇒" d="M60.39 14.25c.07 1.07-.08 2.27-.5 3.29C57.12 24.38 51.88 34.5 45 42"/></g><path id="kvg:06094-s5" kvg:type="㇐" d="M57.08 29.93c.91.18 3.56.03 4.45-.07 4.66-.55 17.24-2.53 24.36-3.73 1.88-.32 3.3-.36 5.16-.14"/></g><g id="kvg:06094-g5" kvg:element="毋" kvg:original="母" kvg:partial="true" kvg:position="bottom"><path id="kvg:06094-s6" kvg:type="㇛" d="M55.91 41.44c.47 1.68.27 2.9-.34 4.86C52.5 56 50.25 63 45.75 72.4c-1.32 2.75-.19 3.76 1.59 3.93C58.5 77.38 65 78.25 76.09 81.21c5.41 1.44 10.69 3.91 16.02 6.97"/><path id="kvg:06094-s7" kvg:type="㇆a" d="M57.08 43.97c5.67-.72 19.29-2.59 24.31-3.3 3.31-.46 5.49 1.25 5.19 3.89C85 58.75 80.96 77.94 76.83 88.79c-2.99 7.84-5.04 7.93-8.85 3.8"/><path id="kvg:06094-s8" kvg:type="㇑a" d="M70.51 45.46c.49 1.17.4 2.29.09 3.33-3.23 10.72-5.35 16.84-8.9 27.51"/><path id="kvg:06094-s9" kvg:type="㇐" d="M37.73 61.88c2.27.5 5.03.47 7.03.3 11.87-1.05 32.74-2.8 48.24-3.26 2.11-.06 4.48.07 6.53.67"/></g></g></g></g></svg>