<svg xmlns="http://www.w3.org/2000/svg" width="109" height="109" viewBox="0 0 109 109"><g id="kvg:StrokePaths_06096"><g id="kvg:06096" kvg:element="悖"><g id="kvg:06096-g1" kvg:element="忄" kvg:variant="true" kvg:original="心" kvg:position="left" kvg:radical="general"><path id="kvg:06096-s1" kvg:type="㇔" d="M16.22 33.5c.03 4.31-2.47 14.14-4.69 17.5"/><path id="kvg:06096-s2" kvg:type="㇔" d="M31.27 31.83C33.49 34.06 37 41 37.56 44.47"/><path id="kvg:06096-s3" kvg:type="㇑" d="M22.37 13.25c1.09.5 1.74 2.25 1.96 3.25.22 1 0 73.75-.22 80"/></g><g id="kvg:06096-g2" kvg:element="孛" kvg:position="right"><g id="kvg:06096-g3" kvg:position="top"><g id="kvg:06096-g4" kvg:element="十"><path id="kvg:06096-s4" kvg:type="㇐" d="M47.23 22.78c1.04.47 3.08.58 4.11.45 6.6-.82 24.87-2.64 32.21-3.4 1.72-.18 3.59.25 4.45.49"/><path id="kvg:06096-s5" kvg:type="㇑" d="M64.58 11.5c.82.47 1.47 2.11 1.47 3.08.0 6.87.02 13.15.02 18.36"/></g><g id="kvg:06096-g5" kvg:element="冖"><path id="kvg:06096-s6" kvg:type="㇔" d="M44.78 33.75c0 3.51-2.41 13.16-3.51 15.5"/><path id="kvg:06096-s7" kvg:type="㇖b" d="M45.8 35.25c11.23-.94 37.56-4.08 43.34-4.14 9.86-.1 1.91 6.79-.34 8.79"/></g></g><g id="kvg:06096-g6" kvg:element="子" kvg:position="bottom"><path id="kvg:06096-s8" kvg:type="㇖" d="M52.07 45.46c.79.26 2.28.67 3.46.44 1.45-.28 19.41-3.46 20.79-3.46s2.87.78 1.5 2.34C76.44 46.34 67.6 53.98 64.1 56.8"/><path id="kvg:06096-s9" kvg:type="㇁" d="M62.35 57.6c5.15 4.65 12.68 20.06 7.01 33.92-3.1 7.59-6.36 5.69-9.21.56"/><path id="kvg:06096-s10" kvg:type="㇐" d="M39.58 68.11c.97.61 3.49.83 5.24.67 6.11-.53 39.03-4.96 46.42-4.42 1.75.13 3.3.21 4.46.82"/></g></g></g></g></svg>