<svg xmlns="http://www.w3.org/2000/svg" width="109" height="109" viewBox="0 0 109 109"><g id="kvg:StrokePaths_060b8" style="fill:none;stroke:#000000;stroke-width:3;stroke-linecap:round;stroke-linejoin:round;"><g id="kvg:060b8" kvg:element="悸"><g id="kvg:060b8-g1" kvg:element="忄" kvg:variant="true" kvg:original="心" kvg:position="left" kvg:radical="general"><path id="kvg:060b8-s1" kvg:type="㇔" d="M15.22 36c.03 4.31-2.47 14.14-4.69 17.5"/><path id="kvg:060b8-s2" kvg:type="㇔" d="M30.02 33.08c2.31 2.01 5.97 8.26 6.54 11.38"/><path id="kvg:060b8-s3" kvg:type="㇑" d="M21.87 14.25c1.09.5 1.74 2.25 1.96 3.25.22 1 0 73.75-.22 80"/></g><g id="kvg:060b8-g2" kvg:element="季" kvg:position="right"><g id="kvg:060b8-g3" kvg:element="禾" kvg:position="top"><g id="kvg:060b8-g4" kvg:element="丿" kvg:position="top"><path id="kvg:060b8-s4" kvg:type="㇒" d="M80.34 11.25c.1.27.21.69-.2 1.06-2.41 2.25-14.23 6.65-33.16 9.67"/></g><g id="kvg:060b8-g5" kvg:element="木" kvg:position="bottom"><path id="kvg:060b8-s5" kvg:type="㇐" d="M37.49 30.21c.76.14 2.79.62 4.8.43 9.98-.97 34.1-2.67 47.99-3.39 2.01-.1 2.53-.14 3.79.0"/><path id="kvg:060b8-s6" kvg:type="㇑" d="M63.6 20.78c.55.27.88 1.21.99 1.75s0 24.61-.11 27.97"/><path id="kvg:060b8-s7" kvg:type="㇒" d="M63.59 29.16c-5.56 7.92-16.52 19.24-27.43 24.16"/><path id="kvg:060b8-s8" kvg:type="㇏" d="M64.83 29.52c4.12 2.94 22.95 16.82 27.43 19.71 1.52.98 2.82 1.4 4.33 1.68"/></g></g><g id="kvg:060b8-g6" kvg:element="子" kvg:position="bottom"><path id="kvg:060b8-s9" kvg:type="㇖" d="M46.09 55.05c1.41.7 2.99 1.07 4.55.87 1.9-.24 27-2.92 28.81-2.92s2.78 1.16.96 2.48C78.6 56.8 67.77 63.4 63.17 65.79"/><path id="kvg:060b8-s10" kvg:type="㇁" d="M61.7 65.04c5.55 5.71 8.93 16.17 5.29 28.1-2.24 7.36-5.74 4.61-8.59.6"/><path id="kvg:060b8-s11" kvg:type="㇐" d="M34.95 74.94c1.06.54 3.8.73 5.7.6 6.66-.47 42.98-3.99 51.03-3.51 1.9.11 3.59.18 4.86.73"/></g></g></g></g></svg>