<svg xmlns="http://www.w3.org/2000/svg" width="109" height="109" viewBox="0 0 109 109"><g id="kvg:StrokePaths_060b5"><g id="kvg:060b5" kvg:element="悵"><g id="kvg:060b5-g1" kvg:element="忄" kvg:variant="true" kvg:original="心" kvg:position="left" kvg:radical="general"><path id="kvg:060b5-s1" kvg:type="㇔" d="M15.72 34.25c.02 4.38-1.94 14.35-3.69 17.75"/><path id="kvg:060b5-s2" kvg:type="㇔" d="M31.77 31.58c1.87 2.45 4.83 10.07 5.29 13.88"/><path id="kvg:060b5-s3" kvg:type="㇑" d="M21.87 12.75c1.09.5 1.74 2.25 1.96 3.25.22 1 0 73.75-.22 80"/></g><g id="kvg:060b5-g2" kvg:element="長" kvg:position="right"><path id="kvg:060b5-s4" kvg:type="㇑a" d="M52.15 15.42c1.16 1.59 1.16 1.86 1.16 3.45s.39 34.61.39 37"/><path id="kvg:060b5-s5" kvg:type="㇐b" d="M53.34 17.24c11.08-.23 26.94-3.26 29.39-3.26 1.93.0.72.0 2.95.0"/><path id="kvg:060b5-s6" kvg:type="㇐b" d="M53.4 29.48c10.06-.27 22.91-3.19 25.14-3.19 1.75.0 2.43-.27 3.88.0"/><path id="kvg:060b5-s7" kvg:type="㇐b" d="M54.49 42.5c10.05-.27 20.49-2.39 24.21-2.92 1.74-.25 2.87-.27 4.81-.27"/><path id="kvg:060b5-s8" kvg:type="㇐" d="M34.13 56.65c1.49.58 4.21.67 5.7.58 15.46-.96 37.6-2.87 52.13-4.15 2.46-.22 3.96.28 5.2.56"/><path id="kvg:060b5-s9" kvg:type="㇙" d="M51.82 58.89c1.04 1.82.97 2.6.97 5.2.0 12.29-.31 28.19-.31 30.27s1.15 3.26 2.6 1.7 12.34-9.78 14.28-11.33"/><path id="kvg:060b5-s10" kvg:type="㇒" d="M85.76 59.97c.03.29.34 1.41.15 1.8-1.2 2.42-4.95 5.87-11.06 10.69"/><path id="kvg:060b5-s11" kvg:type="㇏" d="M61.53 61.19c4.92 2.32 24.08 25.64 30.88 29.35 1.63.89 2.6 1.29 4.34 1.8"/></g></g></g></svg>