<svg xmlns="http://www.w3.org/2000/svg" width="109" height="109" viewBox="0 0 109 109"><g id="kvg:StrokePaths_060d1"><g id="kvg:060d1" kvg:element="惑"><g id="kvg:060d1-g1" kvg:element="或" kvg:position="top" kvg:phon="或"><g id="kvg:060d1-g2" kvg:element="戈" kvg:part="1"><g id="kvg:060d1-g3" kvg:element="弋" kvg:part="1"><path id="kvg:060d1-s1" kvg:type="㇐" d="M15.43 26.92c3.03.93 6.75.54 9.83.11 11.72-1.66 31.86-4.96 46.05-6.19 3.3-.29 6.78-.54 10.04.06"/></g></g><g id="kvg:060d1-g4" kvg:element="口"><path id="kvg:060d1-s2" kvg:type="㇑" d="M21.56 38.93c.87.52 1.19 1.39 1.59 2.6.74 2.25 1.11 4.95 1.77 7.88.26 1.15.51 2.27.75 3.28"/><path id="kvg:060d1-s3" kvg:type="㇕b" d="M23.98 40.37c7.09-1.58 12.73-2.78 17.9-3.5 3.91-.54 5.62.95 4.53 4.13-.75 2.18-1.21 3.66-2.29 6.98"/><path id="kvg:060d1-s4" kvg:type="㇐b" d="M26.4 51.17c3.95-.31 9.91-1.13 15.57-1.73 1.24-.13 2.46-.25 3.65-.36"/></g><g id="kvg:060d1-g5" kvg:element="一"><path id="kvg:060d1-s5" kvg:type="㇀/㇐" d="M19.75 65.87c.76.84 2.28 1.26 4.57.18 7.43-3.48 16.05-7.61 23.63-11.09"/></g><g id="kvg:060d1-g6" kvg:element="戈" kvg:part="2"><g id="kvg:060d1-g7" kvg:element="弋" kvg:part="2"><path id="kvg:060d1-s6" kvg:type="㇂" d="M48.82 10.38c1.76 1.26 2.47 2.91 3.06 4.94 5.15 17.85 14.5 35.13 29.63 45.38 10.18 6.9 9.5 2.75 6.4-6.68"/></g><g id="kvg:060d1-g8" kvg:element="丿"><path id="kvg:060d1-s7" kvg:type="㇒" d="M75.39 30.4c.06.66.12 1.7-.12 2.64-1.44 5.57-9.68 18.41-20.97 25.89"/></g><g id="kvg:060d1-g9" kvg:element="弋" kvg:part="3"><g id="kvg:060d1-g10" kvg:element="丶"><path id="kvg:060d1-s8" kvg:type="㇔" d="M62 8.45c3.18 1.03 8.27 3.37 9.75 5.12"/></g></g></g></g><g id="kvg:060d1-g11" kvg:element="心" kvg:position="bottom" kvg:radical="general"><path id="kvg:060d1-s9" kvg:type="㇔" d="M24.26 80.51c.45 2.21-4.54 11.98-8.18 15.67"/><path id="kvg:060d1-s10" kvg:type="㇃" d="M36.08 78.45c6.79 11.75 16.42 21.3 40.2 21.43 11.47.07 12.22-3.93 2.65-8.94"/><path id="kvg:060d1-s11" kvg:type="㇔a" d="M55.16 71.45c2.02 4.85 4.97 9.7 7.13 2.28"/><path id="kvg:060d1-s12" kvg:type="㇔" d="M81.88 71.68c3.94 2.52 7.24 6.39 10.1 12.61"/></g></g></g></svg>