<svg xmlns="http://www.w3.org/2000/svg" width="109" height="109" viewBox="0 0 109 109"><g id="kvg:StrokePaths_060e1" style="fill:none;stroke:#000000;stroke-width:3;stroke-linecap:round;stroke-linejoin:round;"><g id="kvg:060e1" kvg:element="惡"><g id="kvg:060e1-g1" kvg:element="亞" kvg:position="top"><g id="kvg:060e1-g2" kvg:element="二" kvg:part="1"><g id="kvg:060e1-g3" kvg:element="一" kvg:radical="nelson"><path id="kvg:060e1-s1" kvg:type="㇐" d="M25.52 14.53c1.29.31 3.67.42 4.97.31 13.77-1.1 34.27-2.1 48.77-3.6 2.15-.22 3.46.15 4.53.31"/></g></g><path id="kvg:060e1-s2" kvg:type="㇑" d="M43.2 15.66c.93.86 1.66 2.28 1.66 3.79.0 3.44-.02 4.62-.02 9.3"/><path id="kvg:060e1-s3" kvg:type="㇐" d="M28.92 31.35c2.6-.24 15.89-2.12 18.01-2.36"/><path id="kvg:060e1-s4" kvg:type="㇞" d="M26.76 28.66c1.01 1 1.78 2.03 1.79 3.43.03 2.96-1.15 9.58-1.25 13.67-.02.88.18 1.85 2.05 1.55 4.23-.68 9.16-1.5 13.51-2.35 1.09-.21 2.21.71 2.21 2.29.0 4.35-.16 5.65-.16 14.15"/><path id="kvg:060e1-s5" kvg:type="㇞" d="M61.48 13.97c1.01 1 1.78 2.03 1.79 3.43.03 2.96-.62 4.22-.72 8.3-.02.88.18 1.85 2.05 1.55 4.23-.68 10.75-1.19 15.14-1.8 2.6-.36 3.61 1.76 3.21 3.29-.77 2.93-1.67 6.04-2.46 11.17"/><path id="kvg:060e1-s6" kvg:type="㇐" d="M63.17 41.77c2.6-.24 16.83-1.62 18.96-1.86"/><path id="kvg:060e1-s7" kvg:type="㇑" d="M61.53 40.49c.93.86 1.66 2.28 1.66 3.79.0 3.44-.02 10.72-.02 15.4"/><g id="kvg:060e1-g4" kvg:element="二" kvg:part="2"><path id="kvg:060e1-s8" kvg:type="㇐" d="M18.84 62.31c1.76.44 5 .54 6.77.44 18.65-1 42.33-4.26 59.47-4.25 2.94.0 4.71.21 6.18.43"/></g></g><g id="kvg:060e1-g5" kvg:element="心" kvg:position="bottom" kvg:radical="tradit"><path id="kvg:060e1-s9" kvg:type="㇔" d="M24.89 78.82c.4 2.25-4.06 12.17-7.31 15.92"/><path id="kvg:060e1-s10" kvg:type="㇃" d="M36.58 71.25c6.17 16.75 15.91 28 40.41 28.18 11.82.09 12.6-3.93 2.73-10.63"/><path id="kvg:060e1-s11" kvg:type="㇔a" d="M56.41 71.75c2.17 5.25 5.32 10.5 7.63 2.46"/><path id="kvg:060e1-s12" kvg:type="㇔" d="M79.88 67.73c4.63 2.07 8.09 3.96 11.85 10.36"/></g></g></g></svg>