<svg xmlns="http://www.w3.org/2000/svg" width="109" height="109" viewBox="0 0 109 109"><g id="kvg:StrokePaths_060e3"><g id="kvg:060e3" kvg:element="惣"><g id="kvg:060e3-g1" kvg:element="物" kvg:position="top"><g id="kvg:060e3-g2" kvg:element="牛" kvg:variant="true" kvg:position="left"><path id="kvg:060e3-s1" kvg:type="㇒" d="M23.49 20.47c.06 1.1.12 2.18-.33 3.19-1.92 4.34-4.63 8.94-8.61 15.27"/><path id="kvg:060e3-s2" kvg:type="㇐" d="M24 30.75c6.29-.62 15.75-2.5 18.62-3.05 1.14-.22 2.33.0 3.49.21"/><path id="kvg:060e3-s3" kvg:type="㇑" d="M33.62 10.75c1 1 1.08 2.25 1.08 3.43.0.69.03 32.83.04 47.82.0 3.41.0 5.94.0 7"/><path id="kvg:060e3-s4" kvg:type="㇀" d="M16.17 51.13c1.66.99 2.79.92 4.44.07.98-.5 17.69-8.63 21.83-11.05"/></g><g id="kvg:060e3-g3" kvg:element="勿" kvg:position="right"><g id="kvg:060e3-g4" kvg:element="勹"><path id="kvg:060e3-s5" kvg:type="㇒" d="M61.87 11.75c.08 1.45.05 2.88-.46 4.26-2.91 7.86-5.74 15.25-11.87 23.53"/><path id="kvg:060e3-s6" kvg:type="㇆" d="M60 26.33c1.98.78 4.09.27 6.13.05 6.12-.64 14.25-1.89 20.81-2.52 4.58-.44 5.2 1.5 4.58 4.68C90.25 35 88.25 49.25 80.08 61.42c-2.22 3.31-4.83 2.08-7.36-1.25"/></g><path id="kvg:060e3-s7" kvg:type="㇒" d="M64.05 30.34c.08 1.08.0 2.02-.45 3.02-2.71 6.1-5.88 11-11.96 17.1"/><path id="kvg:060e3-s8" kvg:type="㇒" d="M76.48 28.91c.11 1.37-.1 2.51-.65 3.8-3.62 8.49-9.62 19.43-21.07 29.33"/></g></g><g id="kvg:060e3-g5" kvg:element="心" kvg:position="bottom" kvg:radical="general"><path id="kvg:060e3-s9" kvg:type="㇔" d="M23.39 81.32c.35 2.28-3.51 12.36-6.31 16.17"/><path id="kvg:060e3-s10" kvg:type="㇃" d="M36.33 77.5c6.64 11.27 17.14 21.04 42.74 21.18 12.35.07 13.16-4 2.86-9.13"/><path id="kvg:060e3-s11" kvg:type="㇔a" d="M55.16 74c2.97 5.12 6.22 8.38 8.13 2.46"/><path id="kvg:060e3-s12" kvg:type="㇔" d="M82.13 71.98c3.62 2.27 8.37 5.52 11.85 10.36"/></g></g></g></svg>