<!DOCTYPE svg PUBLIC "-//W3C//DTD SVG 1.0//EN" "http://www.w3.org/TR/2001/REC-SVG-20010904/DTD/svg10.dtd" [
<!ATTLIST g
xmlns:kvg CDATA #FIXED "http://kanjivg.tagaini.net"
kvg:element CDATA #IMPLIED
kvg:variant CDATA #IMPLIED
kvg:partial CDATA #IMPLIED
kvg:original CDATA #IMPLIED
kvg:part CDATA #IMPLIED
kvg:number CDATA #IMPLIED
kvg:tradForm CDATA #IMPLIED
kvg:radicalForm CDATA #IMPLIED
kvg:position CDATA #IMPLIED
kvg:radical CDATA #IMPLIED
kvg:phon CDATA #IMPLIED >
<!ATTLIST path
xmlns:kvg CDATA #FIXED "http://kanjivg.tagaini.net"
kvg:type CDATA #IMPLIED >
]><svg xmlns="http://www.w3.org/2000/svg" width="109" height="109" viewBox="0 0 109 109"><g id="kvg:StrokePaths_060f7" style="fill:none;stroke:#000000;stroke-width:3;stroke-linecap:round;stroke-linejoin:round;"><g id="kvg:060f7" kvg:element="惷"><g id="kvg:060f7-g1" kvg:element="春" kvg:position="top"><g id="kvg:060f7-g2" kvg:element="𡗗" kvg:position="top"><g id="kvg:060f7-g3" kvg:element="三"><g id="kvg:060f7-g4" kvg:element="一" kvg:position="top"><path id="kvg:060f7-s1" kvg:type="㇐" d="M24.81 20.76c1.16.3 3.28.34 4.44.3 12-.32 33.66-3.12 48.65-3.5 1.93-.05 3.09.15 4.06.3"/></g><g id="kvg:060f7-g5" kvg:position="bottom"><g id="kvg:060f7-g6" kvg:element="一"><path id="kvg:060f7-s2" kvg:type="㇐" d="M29.25 30.33c.94.28 2.66.31 3.6.28 9.77-.32 28.9-2.36 42.27-3.2 1.56-.1 2.5.13 3.28.27"/></g><g id="kvg:060f7-g7" kvg:element="大" kvg:part="1"><g id="kvg:060f7-g8" kvg:element="一"><path id="kvg:060f7-s3" kvg:type="㇐" d="M15.88 42.65c1.52.26 4.32.31 5.84.26 15.85-.44 46.15-4.03 66.08-4.02 2.54.0 4.06.13 5.33.26"/></g></g></g></g><g id="kvg:060f7-g9" kvg:element="大" kvg:part="2"><g id="kvg:060f7-g10" kvg:element="人"><path id="kvg:060f7-s4" kvg:type="㇒" d="M52.76 12c.1 1.22.21 3.17-.2 4.92C50.11 27.31 37 51.5 14.5 63.31"/><path id="kvg:060f7-s5" kvg:type="㇏" d="M59.75 29.47c4.75 5.41 22.92 22.59 28.16 26.55 1.78 1.34 4.06 1.92 5.84 2.3"/></g></g></g><g id="kvg:060f7-g11" kvg:element="日" kvg:position="bottom"><path id="kvg:060f7-s6" kvg:type="㇑" d="M38.77 50.38c.39.57.78.86.78 1.62s2.74 18.04 2.74 18.43"/><path id="kvg:060f7-s7" kvg:type="㇕a" d="M40.19 51.58c2.2-.1 26.91-3.32 28.92-3.43 1.67-.1 3.24 2.06 3.11 2.62-.26 1.15-2.02 17.53-2.02 18.1"/><path id="kvg:060f7-s8" kvg:type="㇐a" d="M41.08 59.91c2.97.0 26.86-2.55 30.22-2.55"/><path id="kvg:060f7-s9" kvg:type="㇐a" d="M42.94 67.97c6.06-.41 19.81-1.64 27.35-1.99"/></g></g><g id="kvg:060f7-g12" kvg:element="心" kvg:position="bottom" kvg:radical="general"><path id="kvg:060f7-s10" kvg:type="㇔" d="M27.31 79.38c.38 2.25-3.78 12.17-6.81 15.92"/><path id="kvg:060f7-s11" kvg:type="㇃" d="M36.5 74.82c5.98 12.6 15.43 23.53 38.48 23.68 11.12.08 11.85-3.36 2.57-9.09"/><path id="kvg:060f7-s12" kvg:type="㇔a" d="M58.33 76.32c1.95 4.85 4.79 9.7 6.88 2.28"/><path id="kvg:060f7-s13" kvg:type="㇔" d="M78.3 74.3c5.99 2.07 10.49 3.96 15.35 10.36"/></g></g></g><g id="kvg:StrokeNumbers_060f7" style="font-size:8;fill:#808080"><text transform="matrix(1 0 0 1 18.50 20.50)">1</text><text transform="matrix(1 0 0 1 21.50 31.50)">2</text><text transform="matrix(1 0 0 1 8.50 43.50)">3</text><text transform="matrix(1 0 0 1 44.50 11.50)">4</text><text transform="matrix(1 0 0 1 70.25 36.33)">5</text><text transform="matrix(1 0 0 1 32.75 58.50)">6</text><text transform="matrix(1 0 0 1 41.50 49.50)">7</text><text transform="matrix(1 0 0 1 44.50 57.50)">8</text><text transform="matrix(1 0 0 1 45.50 65.50)">9</text><text transform="matrix(1 0 0 1 18.50 77.95)">10</text><text transform="matrix(1 0 0 1 31.50 86.50)">11</text><text transform="matrix(1 0 0 1 48.50 78.80)">12</text><text transform="matrix(1 0 0 1 68.50 78.73)">13</text></g></svg>