<svg xmlns="http://www.w3.org/2000/svg" width="109" height="109" viewBox="0 0 109 109"><g id="kvg:StrokePaths_060f3"><g id="kvg:060f3" kvg:element="想"><g id="kvg:060f3-g1" kvg:element="相" kvg:position="top" kvg:phon="相"><g id="kvg:060f3-g2" kvg:element="木" kvg:position="left"><path id="kvg:060f3-s1" kvg:type="㇐" d="M16.56 28.58c.69.2 2.55.32 4.39.2 6.01-.39 17.88-1.55 25.87-2.38 1.84-.19 2.31-.2 3.47.0"/><path id="kvg:060f3-s2" kvg:type="㇑" d="M35.19 12.3c1.07 1.07 1.51 2.45 1.51 3.46.0.66.02 28.4.02 41.99.0 2.78.0 4.96.0 6.21"/><path id="kvg:060f3-s3" kvg:type="㇒" d="M35.7 28.47c0 1.28-.21 2.49-.81 3.66-4.58 9.12-13.27 19.52-20.39 24.31"/><path id="kvg:060f3-s4" kvg:type="㇔" d="M39.59 34.73c3.66 2.27 7.28 5.52 10.03 10.08"/></g><g id="kvg:060f3-g3" kvg:element="目" kvg:position="right"><path id="kvg:060f3-s5" kvg:type="㇑" d="M57.63 16.18c1.03 1.03 1.38 2.5 1.38 3.84.0 3.46.0 26.41.0 36.86.0 2.35.0 4.07.0 4.79"/><path id="kvg:060f3-s6" kvg:type="㇕a" d="M60.03 17.59c2.32-.15 17.11-1.86 22.1-2.38 3.07-.31 4.72.29 4.7 3.53-.03 6.17-.22 24.87-.25 38.25.0 1.42-.01 2.79-.01 4.07"/><path id="kvg:060f3-s7" kvg:type="㇐a" d="M60.24 31.24c5.14-.23 21.08-1.87 25.26-1.87"/><path id="kvg:060f3-s8" kvg:type="㇐a" d="M60.2 44.47c6.91-.56 18.36-1.5 25.06-1.5"/><path id="kvg:060f3-s9" kvg:type="㇐a" d="M60.27 58.98c6.98-.36 18.35-1.11 24.92-1.5"/></g></g><g id="kvg:060f3-g4" kvg:element="心" kvg:position="bottom" kvg:radical="general"><path id="kvg:060f3-s10" kvg:type="㇔" d="M23.95 77.62c.3 2.1-3.03 11.38-5.45 14.89"/><path id="kvg:060f3-s11" kvg:type="㇃" d="M36.22 73.86C44.75 90.12 58 98 81.78 96.35c8.46-.59 8.6-2.48 3.08-6.62"/><path id="kvg:060f3-s12" kvg:type="㇔a" d="M54.48 71c2.4 4.88 6.52 10 7.98 4.2"/><path id="kvg:060f3-s13" kvg:type="㇔" d="M83.25 70.5c4.62 2.88 8.5 6.5 11 10.56"/></g></g></g></svg>