<svg xmlns="http://www.w3.org/2000/svg" width="109" height="109" viewBox="0 0 109 109"><g id="kvg:StrokePaths_060f6"><g id="kvg:060f6" kvg:element="惶"><g id="kvg:060f6-g1" kvg:element="忄" kvg:variant="true" kvg:original="心" kvg:position="left" kvg:radical="general"><path id="kvg:060f6-s1" kvg:type="㇔" d="M17.22 33.5c.03 4.31-2.47 14.14-4.69 17.5"/><path id="kvg:060f6-s2" kvg:type="㇔" d="M32.27 30.83C34.49 33.06 38 40 38.56 43.47"/><path id="kvg:060f6-s3" kvg:type="㇑" d="M23.37 12.25c1.09.5 1.74 2.25 1.96 3.25.22 1 0 75.75-.22 82"/></g><g id="kvg:060f6-g2" kvg:element="皇" kvg:position="right"><g id="kvg:060f6-g3" kvg:element="白" kvg:position="top"><g id="kvg:060f6-g4" kvg:position="top"><path id="kvg:060f6-s4" kvg:type="㇔" d="M64.28 11.5c.33.55.39 1.23.31 1.71-.47 2.84-4.52 9.62-8.21 13.43"/></g><g id="kvg:060f6-g5" kvg:element="日" kvg:position="bottom"><path id="kvg:060f6-s5" kvg:type="㇑" d="M47.05 26.46c.66.7 1.19 2 1.33 2.91.79 5.11 3.41 19.66 3.68 24.27"/><path id="kvg:060f6-s6" kvg:type="㇕a" d="M48.78 28.12c9.24-1.26 31.55-3.05 34.96-3.51 1.64-.22 2.7 1.86 2.34 3.79-.8 4.29-3.12 14.72-4.71 22.94"/><path id="kvg:060f6-s7" kvg:type="㇐a" d="M50.65 39.72c11.1-1.47 27.82-3.08 33.56-3.08"/><path id="kvg:060f6-s8" kvg:type="㇐a" d="M52.25 51.54c9.59-.8 21.47-1.65 29.39-1.88"/></g></g><g id="kvg:060f6-g6" kvg:element="王" kvg:original="玉" kvg:partial="true" kvg:position="bottom"><path id="kvg:060f6-s9" kvg:type="㇐" d="M44.75 62.66c1.01.48 3.79.6 4.83.53 8.61-.62 23.91-1.69 35.05-2.52 1.56-.12 2.98.09 4.27.5"/><path id="kvg:060f6-s10" kvg:type="㇑a" d="M64.11 64.65c1.29 2.08 1.29 3.33 1.29 5 0 11.67-.07 8.45-.07 22.97"/><path id="kvg:060f6-s11" kvg:type="㇐" d="M46.25 77.63c.77.53 3.32.32 4.11.23 8.23-.93 20.31-1.82 29.98-2.77.96-.09 3.09-.21 4.53.25"/><path id="kvg:060f6-s12" kvg:type="㇐" d="M38.84 94.23c.7.31 4.35.62 5.54.52 14.23-1.28 26.36-1.75 44.5-2.69 2.36-.12 4.61.19 6.26 1"/></g></g></g></g></svg>