<svg xmlns="http://www.w3.org/2000/svg" width="109" height="109" viewBox="0 0 109 109"><g id="kvg:StrokePaths_06101"><g id="kvg:06101" kvg:element="愁"><g id="kvg:06101-g1" kvg:element="秋" kvg:position="top" kvg:phon="秋"><g id="kvg:06101-g2" kvg:element="禾" kvg:position="left"><g id="kvg:06101-g3" kvg:element="丿" kvg:position="top"><path id="kvg:06101-s1" kvg:type="㇒" d="M41.67 11.16c-.05.71-.64 1.58-1.27 2-2.63 2.41-9.9 6.11-20.84 8.78"/></g><g id="kvg:06101-g4" kvg:element="木" kvg:position="bottom"><path id="kvg:06101-s2" kvg:type="㇐" d="M14.62 32.95c1.76.43 3.44.42 4.9.3 5.79-.49 18.57-2.25 24.9-3.04 1.04-.13 2.52-.5 3.61-.23"/><path id="kvg:06101-s3" kvg:type="㇑" d="M35.33 19.16c.69.69 1.03 1.84 1.03 3.14.0.46.02 23.77-.03 35.44-.01 3.21-.03 5.55-.04 6.34"/><path id="kvg:06101-s4" kvg:type="㇒" d="M35.39 33.38c0 1.24-1.26 3.38-2.17 4.64-4.1 5.72-7.97 10.72-14.97 16.5"/><path id="kvg:06101-s5" kvg:type="㇔/㇏" d="M39.14 38.61c3.74 2.11 6.91 6.32 8.93 9.02"/></g></g><g id="kvg:06101-g5" kvg:element="火" kvg:position="right"><path id="kvg:06101-s6" kvg:type="㇔" d="M53.88 23.87c1.63 2.37 4 9.07 4.44 11.44"/><path id="kvg:06101-s7" kvg:type="㇒" d="M87.26 20.23c-.01.9-.18 1.8-1.12 2.7-2.52 2.44-8.4 7.32-13.43 10.2"/><path id="kvg:06101-s8" kvg:type="㇒" d="M68.3 10.89c.84.84 1.09 2.08 1.1 2.9.29 21.19-1.52 37.45-17.35 47.41"/><path id="kvg:06101-s9" kvg:type="㇏" d="M68.7 36.35c5.8 7.4 11.05 13.03 16.62 17.98 2.5 2.23 4.69 3.8 7.69 5.1"/></g></g><g id="kvg:06101-g6" kvg:element="心" kvg:position="bottom" kvg:radical="general"><path id="kvg:06101-s10" kvg:type="㇔" d="M23.65 76.82c.32 2.28-3.23 12.36-5.82 16.17"/><path id="kvg:06101-s11" kvg:type="㇃" d="M35.58 74.75c6.99 12.06 18.03 22.53 44.97 22.68 12.99.07 13.84-3.47 3-8.96"/><path id="kvg:06101-s12" kvg:type="㇔a" d="M54.41 70.25c1.77 4.95 4.36 9.9 6.26 2.32"/><path id="kvg:06101-s13" kvg:type="㇔" d="M77.13 67.23c5.5 1.77 9.63 3.38 14.1 8.86"/></g></g></g></svg>