<svg xmlns="http://www.w3.org/2000/svg" width="109" height="109" viewBox="0 0 109 109"><g id="kvg:StrokePaths_06106" style="fill:none;stroke:#000000;stroke-width:3;stroke-linecap:round;stroke-linejoin:round;"><g id="kvg:06106" kvg:element="愆"><g id="kvg:06106-g1" kvg:element="衍" kvg:position="top"><g id="kvg:06106-g2" kvg:element="行" kvg:part="1" kvg:position="kamae"><g id="kvg:06106-g3" kvg:element="彳" kvg:position="left"><path id="kvg:06106-s1" kvg:type="㇒" d="M32.85 12.5c.05.39.23 1.08-.09 1.55-2.26 3.35-8.19 9.17-16.48 14.84"/><g id="kvg:06106-g4" kvg:element="亻" kvg:variant="true" kvg:original="人"><path id="kvg:06106-s2" kvg:type="㇒" d="M39.61 25.4c.07.52.23 1.43-.13 2.1-2.88 5.42-11.46 12.76-23.21 20.11"/><path id="kvg:06106-s3" kvg:type="㇑" d="M29.18 40.22c.25.18.86 1.59.91 1.96s0 20.52-.05 22.82"/></g></g></g><g id="kvg:06106-g5" kvg:element="氵" kvg:variant="true" kvg:original="水"><path id="kvg:06106-s4" kvg:type="㇔" d="M46.95 13.57c2.94 1.08 7.6 4.42 8.34 6.1"/><path id="kvg:06106-s5" kvg:type="㇔" d="M46.92 30.42c2.91 1.06 7.52 4.37 8.25 6.03"/><path id="kvg:06106-s6" kvg:type="㇀" d="M44.3 58.28c1.68.85 3.7.89 4.75-.17 3.08-3.07 6.15-6.83 8.95-10.75"/></g><g id="kvg:06106-g6" kvg:element="行" kvg:part="2" kvg:position="kamae"><g id="kvg:06106-g7" kvg:position="right"><path id="kvg:06106-s7" kvg:type="㇐" d="M64.89 17.07c.61.3 3.23.82 3.83.71 4.73-.83 15.09-3.01 17.92-2.88 1.02.05 1.63.14 2.14.29"/><path id="kvg:06106-s8" kvg:type="㇐" d="M61.86 30.91c1.39.34 2.87.7 4.06.67C69.5 31.5 87 29 92.69 28.6c1.98-.14 3.17.08 4.16.17"/><path id="kvg:06106-s9" kvg:type="㇚" d="M78.74 32.49c.51.51 1.42 1.3 1.48 3.49.32 10.52-.2 18.96-.2 22.54.0 5.81-5.65-.36-6.82-1.27"/></g></g></g><g id="kvg:06106-g8" kvg:element="心" kvg:position="bottom" kvg:radical="general"><path id="kvg:06106-s10" kvg:type="㇔" d="M26.31 81.38c.46 2.25-4.61 12.17-8.31 15.92"/><path id="kvg:06106-s11" kvg:type="㇃" d="M35.5 73.82c6.51 12.99 16.81 24.27 41.93 24.43 12.12.08 12.91-3.47 2.8-9.38"/><path id="kvg:06106-s12" kvg:type="㇔a" d="M56.33 72.32c2.17 5.25 5.82 9.5 8.13 1.46"/><path id="kvg:06106-s13" kvg:type="㇔" d="M81.8 70.3c5.21 2.07 9.12 3.96 13.35 10.36"/></g></g></g></svg>