<svg xmlns="http://www.w3.org/2000/svg" width="109" height="109" viewBox="0 0 109 109"><g id="kvg:StrokePaths_06128"><g id="kvg:06128" kvg:element="愨"><g id="kvg:06128-g1" kvg:position="top"><g id="kvg:06128-g2" kvg:position="left"><g id="kvg:06128-g3" kvg:element="士" kvg:position="top"><path id="kvg:06128-s1" kvg:type="㇐" d="M15.63 21.15c.67.42 1.9.49 2.58.42 6.99-.71 23.47-3.45 31.46-3.42 1.12.0 1.79.2 2.35.42"/><path id="kvg:06128-s2" kvg:type="㇑a" d="M32.52 11.75c.55.22.88.99.99 1.43s0 14.69-.11 17.44"/><path id="kvg:06128-s3" kvg:type="㇐" d="M20.45 31.6c.51.27 1.45.29 1.96.27 6.78-.32 15.71-1.89 22.87-1.86.85.0 1.37.13 1.79.26"/></g><g id="kvg:06128-g4" kvg:position="bottom"><g id="kvg:06128-g5" kvg:element="冖"><path id="kvg:06128-s4" kvg:type="㇔" d="M17.42 37.96c-.1 2.91-2.5 10.53-3.36 12.26"/><path id="kvg:06128-s5" kvg:type="㇆" d="M17.29 41.07c1.66.0 22.63-3.97 30.98-3.97 5.68.0 1.79 3.78-.33 6.25"/></g><path id="kvg:06128-s6" kvg:type="㇐" d="M14.5 56.95c.96.27 2.71.27 3.66.27 7.34.02 22.59-2.48 29.74-2.8 1.59-.07 2.55.13 3.35.27"/></g></g><g id="kvg:06128-g6" kvg:element="殳" kvg:position="right"><g id="kvg:06128-g7" kvg:element="几" kvg:position="top"><g id="kvg:06128-g8" kvg:element="丿"><path id="kvg:06128-s7" kvg:type="㇒" d="M61.65 13.59c.24.5.97 1.59.95 2.33-.17 7.57-.6 15.34-7.76 19.48"/></g><path id="kvg:06128-s8" kvg:type="㇈b" d="M62.15 15.15c1.86.22 13.59-1.6 14.84-2.04 1.86-.66 2.79 1.4 2.6 2.87-.37 2.87-1.06 6.22-1.06 9.09.0 3.97.93 6.84 7.07 6.84 7.25.0 9.07-.44 9.07-8.6"/></g><g id="kvg:06128-g9" kvg:element="又" kvg:position="bottom"><path id="kvg:06128-s9" kvg:type="㇇" d="M60.93 41.11c1.12.26 1.26.65 3.49.26s14.53-3.14 16.07-3.53 2.86 1.57 2.09 2.88C75.5 52.75 67.39 61.16 54 67.67"/><path id="kvg:06128-s10" kvg:type="㇏" d="M58.81 46.91c3.09.45 18.18 12.56 28.94 17.52 1.67.77 2.9 1.29 4.45 1.54"/></g></g></g><g id="kvg:06128-g10" kvg:element="心" kvg:position="bottom" kvg:radical="general"><path id="kvg:06128-s11" kvg:type="㇔" d="M25.56 79.88c.36 2.25-3.65 12.17-6.56 15.92"/><path id="kvg:06128-s12" kvg:type="㇃" d="M37.5 76.82C43.67 88.61 53.42 98.85 77.2 99c11.47.07 12.22-3.15 2.65-8.52"/><path id="kvg:06128-s13" kvg:type="㇔a" d="M56.33 75.82c2.17 5.25 5.32 10.5 7.63 2.46"/><path id="kvg:06128-s14" kvg:type="㇔" d="M81.3 74.05c4.24 1.72 7.41 3.29 10.85 8.61"/></g></g></g></svg>