<svg xmlns="http://www.w3.org/2000/svg" width="109" height="109" viewBox="0 0 109 109"><g id="kvg:StrokePaths_06121" style="fill:none;stroke:#000000;stroke-width:3;stroke-linecap:round;stroke-linejoin:round;"><g id="kvg:06121" kvg:element="愡"><g id="kvg:06121-g1" kvg:element="忄" kvg:variant="true" kvg:original="心" kvg:position="left" kvg:radical="general"><path id="kvg:06121-s1" kvg:type="㇔" d="M15.97 36c.02 4.31-1.81 14.14-3.44 17.5"/><path id="kvg:06121-s2" kvg:type="㇔" d="M30.77 34.58c1.87 2.36 4.83 9.71 5.29 13.38"/><path id="kvg:06121-s3" kvg:type="㇑" d="M22.87 13.75c1.09.5 1.74 2.25 1.96 3.25.22 1 0 73.75-.22 80"/></g><g id="kvg:06121-g2" kvg:element="怱" kvg:position="right"><g id="kvg:06121-g3" kvg:element="匆" kvg:position="top"><g id="kvg:06121-g4" kvg:element="勹"><g id="kvg:06121-g5" kvg:element="丿"><path id="kvg:06121-s4" kvg:type="㇒" d="M58.06 13.25c.04.6.09 1.55-.09 2.42-1.07 5.1-6.94 15.15-15 23.14"/></g><path id="kvg:06121-s5" kvg:type="㇆" d="M54.17 27.47c.83.35 2 .47 3.34.23 1.33-.23 28.51-3.03 31.85-3.14 3.33-.12 3.27 2.02 3.07 4.52-.6 7.73-4.59 23.38-10.64 34.34-2.83 5.13-6.35.35-7.9-1.94"/></g><path id="kvg:06121-s6" kvg:type="㇒" d="M62.42 30.23c.05.57.14 1.49-.09 2.3-2.26 7.94-7.67 15.51-16.61 22.03"/><path id="kvg:06121-s7" kvg:type="㇒" d="M77.38 28.76c.07.86.14 2.23-.14 3.46-1.66 7.3-10.64 23.31-23.67 33.11"/><path id="kvg:06121-s8" kvg:type="㇔" d="M54.5 39.37c7.32 2.12 18.9 8.72 20.73 12.01"/></g><g id="kvg:06121-g6" kvg:element="心" kvg:position="bottom"><path id="kvg:06121-s9" kvg:type="㇔" d="M42.18 79.78c.24 2.26-2.41 12.25-4.35 16.03"/><path id="kvg:06121-s10" kvg:type="㇃" d="M49.97 77.38C55.5 90.5 63.32 99.54 84.17 98.7c10.61-.43 11.82-3.57 2.96-7.97"/><path id="kvg:06121-s11" kvg:type="㇔a" d="M62.11 74.31c2 5.13 4.92 10.25 7.06 2.4"/><path id="kvg:06121-s12" kvg:type="㇔" d="M84.89 73.41c3.94 2.02 6.9 3.85 10.1 10.08"/></g></g></g></g></svg>