<svg xmlns="http://www.w3.org/2000/svg" width="109" height="109" viewBox="0 0 109 109"><g id="kvg:StrokePaths_06134"><g id="kvg:06134" kvg:element="愴"><g id="kvg:06134-g1" kvg:element="忄" kvg:variant="true" kvg:original="心" kvg:position="left" kvg:radical="general"><path id="kvg:06134-s1" kvg:type="㇔" d="M16.72 33.5c.02 4.31-1.94 14.14-3.69 17.5"/><path id="kvg:06134-s2" kvg:type="㇔" d="M31.27 29.58c2.4 1.92 6.19 7.9 6.79 10.88"/><path id="kvg:06134-s3" kvg:type="㇑" d="M23.37 13.25c1.09.5 1.74 2.25 1.96 3.25.22 1 0 75.25-.22 81.5"/></g><g id="kvg:06134-g2" kvg:element="倉" kvg:position="right"><g id="kvg:06134-g3" kvg:element="人" kvg:position="top"><path id="kvg:06134-s4" kvg:type="㇒" d="M61.71 11.75c.07.82.35 2.2-.13 3.31-3.33 7.69-10.33 20.69-23.08 31.69"/><path id="kvg:06134-s5" kvg:type="㇏" d="M61.89 13.75c4.2 5.16 22.31 22.02 26.95 25.8 1.57 1.28 3.59 1.83 5.16 2.2"/></g><g id="kvg:06134-g4" kvg:position="bottom"><path id="kvg:06134-s6" kvg:type="㇐" d="M53.61 36.84c.51.0 2.39-.07 3.48-.19 3.72-.4 8.82-.91 13.3-1.44 1.94-.23 2.51-.39 3.36-.39"/><path id="kvg:06134-s7" kvg:type="㇕" d="M47.25 45.75c1.5.5 3.4.79 4.75.69 8.38-.59 25.55-2.79 26.88-2.93 1.4-.15 2.91.74 2.76 2.5-.25 2.78-2.01 9.87-3.08 18.07"/><path id="kvg:06134-s8" kvg:type="㇐" d="M50.45 56.34c2.48-.1 26.03-2.8 28.83-2.91"/><path id="kvg:06134-s9" kvg:type="㇐" d="M48.86 67.13c5.11-.6 25.57-2.13 31.91-2.73"/><path id="kvg:06134-s10" kvg:type="㇒" d="M50.12 46.5c.53.72.79 2.78.68 4.33C50.08 61.04 48 83.25 35.66 92.75"/><g id="kvg:06134-g5" kvg:element="口"><path id="kvg:06134-s11" kvg:type="㇑" d="M49.21 76.38c.33.35.67.63.81 1.07 1.15 3.43 3.02 12.89 3.8 19.05"/><path id="kvg:06134-s12" kvg:type="㇕b" d="M51.27 77.71c7.16-1.21 26.77-3.27 30.64-3.72 1.42-.17 2.27.98 2.06 1.94-.84 4.01-2.82 10.35-4.07 15.89"/><path id="kvg:06134-s13" kvg:type="㇐b" d="M53.99 94.49c4.55-.51 21.1-1.39 27.34-2.17"/></g></g></g></g></g></svg>