<svg xmlns="http://www.w3.org/2000/svg" width="109" height="109" viewBox="0 0 109 109"><g id="kvg:StrokePaths_0614d" style="fill:none;stroke:#000000;stroke-width:3;stroke-linecap:round;stroke-linejoin:round;"><g id="kvg:0614d" kvg:element="慍"><g id="kvg:0614d-g1" kvg:element="忄" kvg:variant="true" kvg:original="心" kvg:position="left" kvg:radical="general"><path id="kvg:0614d-s1" kvg:type="㇔" d="M16.72 32c.03 4.31-2.47 14.14-4.69 17.5"/><path id="kvg:0614d-s2" kvg:type="㇔" d="M31.77 29.83c2.22 2.23 5.74 9.17 6.29 12.63"/><path id="kvg:0614d-s3" kvg:type="㇑" d="M22.87 12.75c1.09.5 1.74 2.25 1.96 3.25.22 1 0 73.75-.22 80"/></g><g id="kvg:0614d-g2" kvg:element="𥁕" kvg:position="right"><g id="kvg:0614d-g3" kvg:element="囚" kvg:position="top"><g id="kvg:0614d-g4" kvg:element="囗" kvg:part="1"><path id="kvg:0614d-s4" kvg:type="㇑" d="M46.31 18.39c.42.5.94 1.89 1.04 2.55.9 5.55 1.9 17.8 2.83 29.05"/><path id="kvg:0614d-s5" kvg:type="㇕a" d="M47.76 20.21c11.49-1.46 30.76-2.84 37.52-3.46C88 16.5 88.5 18 88.25 20.19c-.79 6.93-2.25 19.06-3.78 27.46"/></g><g id="kvg:0614d-g5" kvg:element="人" kvg:variant="true"><path id="kvg:0614d-s6" kvg:type="㇒" d="M66.73 23.28c.08.39.36 1.25.16 1.84C65.25 30 62.25 36.25 56.01 41.7"/><path id="kvg:0614d-s7" kvg:type="㇔/㇏" d="M66.79 30.83c4.35 1.33 10.68 6.65 11.76 9.24"/></g><g id="kvg:0614d-g6" kvg:element="囗" kvg:part="2"><path id="kvg:0614d-s8" kvg:type="㇐a" d="M50.71 47.59c7.35.0 23.61-1.24 33.76-1.39"/></g></g><g id="kvg:0614d-g7" kvg:element="皿" kvg:position="bottom"><path id="kvg:0614d-s9" kvg:type="㇑a" d="M44.39 60.08c.55.82 1.26 1.72 1.37 2.42.92 5.56 1.67 20.5 2.3 30.48"/><path id="kvg:0614d-s10" kvg:type="㇕b" d="M46.62 61.82c9.82-1.15 37.09-3.18 40.65-3.42 2.23-.15 3.48 1.1 3.25 3.37-.33 3.22-3.58 25.25-4.72 29.59"/><path id="kvg:0614d-s11" kvg:type="㇑a" d="M58.65 61.46c.23.53.46.97.56 1.63.79 5.24 1.37 20.01 1.91 29.43"/><path id="kvg:0614d-s12" kvg:type="㇑a" d="M74.08 60.25c.42.63.82 1.71.75 2.53-.69 8.12-1.1 18.46-1.94 28.85"/><path id="kvg:0614d-s13" kvg:type="㇐" d="M35.63 93.65c1.09.37 3.09.43 4.18.37 11.36-.63 33.09-2.13 54-2.23 1.82-.01 2.91.18 3.82.37"/></g></g></g></g></svg>