<svg xmlns="http://www.w3.org/2000/svg" width="109" height="109" viewBox="0 0 109 109"><g id="kvg:StrokePaths_0615d" style="fill:none;stroke:#000000;stroke-width:3;stroke-linecap:round;stroke-linejoin:round;"><g id="kvg:0615d" kvg:element="慝"><g id="kvg:0615d-g1" kvg:element="匿" kvg:position="top"><g id="kvg:0615d-g2" kvg:element="匚" kvg:part="1"><path id="kvg:0615d-s1" kvg:type="㇐" d="M21.53 15.43c1.38.43 4.4 1 5.77.93 14.32-.72 35.57-2.3 52.16-3.46 2.29-.16 3.67.21 4.82.42"/></g><g id="kvg:0615d-g3" kvg:element="若"><g id="kvg:0615d-g4" kvg:element="艹" kvg:variant="true" kvg:original="艸" kvg:position="top"><path id="kvg:0615d-s2" kvg:type="㇐" d="M34.31 26.41c.8.31 1.72.38 2.52.31 7.33-.57 31.28-2.47 39.72-2.51 1.33-.01 2.12.15 2.79.31"/><path id="kvg:0615d-s3" kvg:type="㇑a" d="M43.39 20.68c1 .88 1.32 1.15 1.42 1.69 1 5.08.9 6.68 1.27 10.3"/><path id="kvg:0615d-s4" kvg:type="㇑a" d="M65.55 19.8c.23.54.79 1.18.57 2.01-1.26 4.87-.83 4.81-2.21 9.39"/></g><g id="kvg:0615d-g5" kvg:element="右" kvg:position="bottom"><path id="kvg:0615d-s5" kvg:type="㇒" d="M53.77 31.65c.54.41.53 1.3.23 2.02-2.59 6.09-9.08 14.89-20.1 20.34"/><path id="kvg:0615d-s6" kvg:type="㇐" d="M34.55 38.31c.78.25 2.42.45 3.2.38 11.62-1.11 31.75-3.04 39.45-3.18 1.33-.02 2.65.14 3.77.36"/><g id="kvg:0615d-g6" kvg:element="口"><path id="kvg:0615d-s7" kvg:type="㇑" d="M47.72 45.65c.35.36.63.93.72 1.43.59 3.26 1.61 11.08 1.61 12.44"/><path id="kvg:0615d-s8" kvg:type="㇕b" d="M48.8 46.95c4.78-.24 21.53-2.41 22.75-2.5 1.78-.13 2.39 1.12 2.09 1.88-.93 2.39-2.84 7.33-2.99 9.85"/><path id="kvg:0615d-s9" kvg:type="㇐b" d="M50.2 57.65c4.5-.13 17.54-1.47 22.35-1.47"/></g></g></g><g id="kvg:0615d-g7" kvg:element="匚" kvg:part="2"><path id="kvg:0615d-s10" kvg:type="㇗" d="M25.4 16.56c0 2.91-.68 45.06-.68 47.79.0 2.36.87 3.07 2.39 2.91 17.4-1.82 48.81-4.04 55.77-3.86 2.83.07 5.22.55 6.96.91"/></g></g><g id="kvg:0615d-g8" kvg:element="心" kvg:position="bottom" kvg:radical="general"><path id="kvg:0615d-s11" kvg:type="㇔" d="M24.56 79.13c.36 2.25-3.65 12.17-6.56 15.92"/><path id="kvg:0615d-s12" kvg:type="㇃" d="M36.5 75.07C42.98 86.73 53.23 96.85 78.22 97c12.06.07 13.35-3.61 3.29-8.92"/><path id="kvg:0615d-s13" kvg:type="㇔a" d="M59.83 74.07c2.17 5.25 5.32 10.5 7.63 2.46"/><path id="kvg:0615d-s14" kvg:type="㇔" d="M82.55 71.05c4.33 1.77 7.58 3.38 11.1 8.86"/></g></g></g></svg>