<svg xmlns="http://www.w3.org/2000/svg" width="109" height="109" viewBox="0 0 109 109"><g id="kvg:StrokePaths_06162" style="fill:none;stroke:#000000;stroke-width:3;stroke-linecap:round;stroke-linejoin:round;"><g id="kvg:06162" kvg:element="慢"><g id="kvg:06162-g1" kvg:element="忄" kvg:variant="true" kvg:original="心" kvg:position="left" kvg:radical="general"><path id="kvg:06162-s1" kvg:type="㇔" d="M15.98 34.5c0 6.34-3.53 15.69-4.45 17.5"/><path id="kvg:06162-s2" kvg:type="㇔" d="M32.39 29.46c2.09 1.77 5.4 7.26 5.92 10.01"/><path id="kvg:06162-s3" kvg:type="㇑" d="M24.12 13c1.13 1.13 1.21 2.5 1.21 4.5.0 4.64.02 52.19.03 71.75.0 4.66.0 7.73.0 8.25"/></g><g id="kvg:06162-g2" kvg:element="曼" kvg:position="right" kvg:phon="曼"><g id="kvg:06162-g3" kvg:element="日" kvg:position="top"><path id="kvg:06162-s4" kvg:type="㇑" d="M46.6 13.89c.82.82 1.12 2.15 1.33 3 .96 3.51 1.96 9.36 2.75 14.8.18 1.24.33 2.47.46 3.63"/><path id="kvg:06162-s5" kvg:type="㇕a" d="M48.33 15.15c9.15-.95 25.05-2.52 33.9-2.87 3.13-.12 3.83.98 3.38 3.73-.57 3.48-1.91 8.96-2.84 13.78-.29 1.53-.57 2.99-.81 4.31"/><path id="kvg:06162-s6" kvg:type="㇐a" d="M50.68 24.66c6.69-.79 20.82-2.29 32.42-2.75"/><path id="kvg:06162-s7" kvg:type="㇐a" d="M52.36 34.3c9.96-1.04 19.52-2.05 28.86-2.26"/></g><g id="kvg:06162-g4" kvg:position="bottom"><g id="kvg:06162-g5" kvg:element="罒" kvg:variant="true" kvg:original="网"><path id="kvg:06162-s8" kvg:type="㇑" d="M41.78 43.52c.58.58.91 1.28 1 2.09.58 2.12 1.19 5.07 1.77 8.63.21 1.31.4 2.59.54 3.75"/><path id="kvg:06162-s9" kvg:type="㇕a" d="M43.54 44.4c6.21-.79 32.59-3.4 42.86-3.84 2.83-.12 5.34.1 4.62 3.54-.43 2.05-.98 4.12-1.9 6.94-.37 1.13-.76 2.29-1.18 3.46"/><path id="kvg:06162-s10" kvg:type="㇑a" d="M57.73 43.85c.65.65.87 1.17.97 2.13.36 3.36.75 6.65.88 8.26"/><path id="kvg:06162-s11" kvg:type="㇑a" d="M73.21 42.45c.67.67.58 1.73.48 2.82-.31 3.48-.51 5.36-.76 7.85"/><path id="kvg:06162-s12" kvg:type="㇐a" d="M46.17 56.73c11.58-1.36 28.08-2.86 40.92-3.34"/></g><g id="kvg:06162-g6" kvg:element="又"><path id="kvg:06162-s13" kvg:type="㇇" d="M50.75 65.56c2.29.5 4.52.47 6.87.1 4.83-.76 14.47-2.58 18.54-3.64 2.97-.78 4.88.95 3.34 3.81-9 16.67-21 26.42-39.23 32.17"/><path id="kvg:06162-s14" kvg:type="㇏" d="M50.18 72.06c4.56.4 18.69 12.19 32 20.93 2.21 1.45 4.45 2.76 7.92 3.94"/></g></g></g></g></g></svg>