<svg xmlns="http://www.w3.org/2000/svg" width="109" height="109" viewBox="0 0 109 109"><g id="kvg:StrokePaths_06174"><g id="kvg:06174" kvg:element="慴"><g id="kvg:06174-g1" kvg:element="忄" kvg:variant="true" kvg:original="心" kvg:position="left" kvg:radical="general"><path id="kvg:06174-s1" kvg:type="㇔" d="M16.22 36.25c.03 4.25-2.21 13.94-4.19 17.25"/><path id="kvg:06174-s2" kvg:type="㇔" d="M30.27 33.58c2.22 2.1 5.74 8.62 6.29 11.88"/><path id="kvg:06174-s3" kvg:type="㇑" d="M21.87 15.25c1.09.5 1.74 2.25 1.96 3.25.22 1 0 73.75-.22 80"/></g><g id="kvg:06174-g2" kvg:element="習" kvg:variant="true" kvg:position="right"><g id="kvg:06174-g3" kvg:element="羽" kvg:variant="true" kvg:position="top"><path id="kvg:06174-s4" kvg:type="㇆" d="M38.25 19.07c2.1.74 1.47.74 4.55.5 6.27-.5 12.55-2.26 14.46-2.37 2.17-.12 3.42.99 3.49 3 .08 2.22-.31 23.36-.31 30.43"/><path id="kvg:06174-s5" kvg:type="㇒" d="M51.07 21.45c.03.29.07.76-.07 1.18-.82 2.5-5.53 7.99-11.98 11.35"/><path id="kvg:06174-s6" kvg:type="㇒" d="M56.2 30.11c.05.5.1 1.3-.09 2.02-1.12 4.25-7.58 13.58-16.42 19.28"/><path id="kvg:06174-s7" kvg:type="㇆" d="M66.57 17.09c2.09.77 1.73.77 4.79.51 6.24-.52 13.79-2.31 15.7-2.39 4.28-.18 4.1.91 4.1 3.04.0 3.41-.52 23.88-.52 31.17"/><path id="kvg:06174-s8" kvg:type="㇒" d="M79.63 19.97c.03.28.07.73-.07 1.14C78.7 23.51 73.8 28.77 67.09 32"/><path id="kvg:06174-s9" kvg:type="㇒" d="M86.78 26.41c.05.47.11 1.2-.1 1.87-1.26 3.95-8.51 12.61-18.43 17.91"/></g><g id="kvg:06174-g4" kvg:element="白" kvg:position="bottom"><g id="kvg:06174-g5" kvg:position="top"><path id="kvg:06174-s10" kvg:type="㇔" d="M66.26 52.25c.49.46.14 1.57-.06 1.93-1.95 3.57-4.95 7.57-8.79 10.92"/></g><g id="kvg:06174-g6" kvg:element="日" kvg:position="bottom"><path id="kvg:06174-s11" kvg:type="㇑" d="M49.18 65.51c.55.74 1.04 1.12 1.12 2.1.29 3.89 2.8 24.27 3.02 29.14"/><path id="kvg:06174-s12" kvg:type="㇕a" d="M50.62 67.75c3.14-.12 30.64-3.67 33.5-3.81 2.39-.12 3.24 1.08 2.96 4.06-.44 4.75-1.22 15.75-2.69 27.67"/><path id="kvg:06174-s13" kvg:type="㇐a" d="M52.45 80.48c6.56-.98 26.66-2.98 33.38-3.32"/><path id="kvg:06174-s14" kvg:type="㇐a" d="M54.24 93.39c6.29.0 20.36-1.07 28.49-1.07"/></g></g></g></g></g></svg>