<svg xmlns="http://www.w3.org/2000/svg" width="109" height="109" viewBox="0 0 109 109"><g id="kvg:StrokePaths_06173" style="fill:none;stroke:#000000;stroke-width:3;stroke-linecap:round;stroke-linejoin:round;"><g id="kvg:06173" kvg:element="慳"><g id="kvg:06173-g1" kvg:element="忄" kvg:variant="true" kvg:original="心" kvg:position="left" kvg:radical="general"><path id="kvg:06173-s1" kvg:type="㇔" d="M14.72 34.5c.03 4.31-2.47 14.14-4.69 17.5"/><path id="kvg:06173-s2" kvg:type="㇔" d="M27.77 30.83c1.87 1.88 4.83 7.71 5.29 10.63"/><path id="kvg:06173-s3" kvg:type="㇑" d="M19.87 13.75c1.09.5 1.74 2.25 1.96 3.25.22 1 0 73.75-.22 80"/></g><g id="kvg:06173-g2" kvg:element="堅" kvg:position="right"><g id="kvg:06173-g3" kvg:position="top"><g id="kvg:06173-g4" kvg:element="臣" kvg:position="left"><path id="kvg:06173-s4" kvg:type="㇑" d="M38.91 18.87c.26.97.68 2.48.77 2.97s.38 34.38.33 37.44"/><path id="kvg:06173-s5" kvg:type="㇐b" d="M39.77 21c2.74-.43 14.21-2.63 20.58-3.14.97-.08 1.55-.16 2.03-.03"/><path id="kvg:06173-s6" kvg:type="㇑a" d="M50.87 21.27c.42.24.68 1.09.77 1.58.09.49.12 5.12.07 8.19"/><path id="kvg:06173-s7" kvg:type="㇕b" d="M40.06 32.78c6.56-1.06 15.72-2.15 20.27-2.88 1.84-.3 2.37.71 2.12 2.03-.44 2.41-1.47 5.86-1.91 8.75"/><path id="kvg:06173-s8" kvg:type="㇐b" d="M40.2 43.81c2.74-.43 18.72-2.23 21.29-2.52"/><path id="kvg:06173-s9" kvg:type="㇑a" d="M50.9 42.7c.42.24.68 1.09.77 1.58.09.49.15 8.83.1 11.9"/><path id="kvg:06173-s10" kvg:type="㇐b" d="M40.16 57.8c2.74-.43 15.18-1.92 21.55-2.44.96-.08 1.54-.15 2.03-.03"/></g><g id="kvg:06173-g5" kvg:element="又" kvg:position="right"><path id="kvg:06173-s11" kvg:type="㇇" d="M69.59 21.2c.81.25.91.64 2.52.25 1.62-.38 17.78-3.89 18.89-4.27s1.92 1.4 1.51 2.79c-4.74 16.5-15.12 31.19-24.21 37.41"/><path id="kvg:06173-s12" kvg:type="㇏" d="M68.86 29.43c2.52.68 14.86 18.81 23.65 26.24 1.37 1.16 2.37 1.93 3.64 2.31"/></g></g><g id="kvg:06173-g6" kvg:element="土" kvg:position="bottom"><path id="kvg:06173-s13" kvg:type="㇐" d="M44.69 75.42c1.09.55 3.09.65 4.19.55C59.5 75 73.5 73.75 84.16 73.14c1.82-.1 2.92.26 3.83.54"/><path id="kvg:06173-s14" kvg:type="㇑a" d="M64.58 62.63c.09.28 1.3 1.45 1.3 3.23.0 11.44-.27 18.89-.27 26.68"/><path id="kvg:06173-s15" kvg:type="㇐" d="M36.4 93.82c1.42.65 4.01.71 5.43.65 12.8-.56 33.48-3.09 49.77-2.42 2.36.1 3.77.31 4.95.64"/></g></g></g></g></svg>