<svg xmlns="http://www.w3.org/2000/svg" width="109" height="109" viewBox="0 0 109 109"><g id="kvg:StrokePaths_0617e"><g id="kvg:0617e" kvg:element="慾"><g id="kvg:0617e-g1" kvg:element="欲" kvg:position="top"><g id="kvg:0617e-g2" kvg:element="谷" kvg:position="left"><g id="kvg:0617e-g3" kvg:position="top"><path id="kvg:0617e-s1" kvg:type="㇒" d="M27.55 15.43c.03.3.07.79-.06 1.23-.75 2.58-5.06 8.25-10.97 11.73"/><path id="kvg:0617e-s2" kvg:type="㇔" d="M40.23 14.68c4.55 2.35 10.09 6.82 11.65 9.22"/></g><g id="kvg:0617e-g4" kvg:position="bottom"><path id="kvg:0617e-s3" kvg:type="㇒" d="M36 24.69c.06.58.33 1.6-.12 2.33C31.93 33.38 24.15 43 14.18 49.29"/><path id="kvg:0617e-s4" kvg:type="㇏" d="M37.78 30.25c3.99 1.46 11 6.65 13.41 9.17"/><g id="kvg:0617e-g5" kvg:element="口"><path id="kvg:0617e-s5" kvg:type="㇑" d="M22.97 45.9c.28.29.56.54.68.9.96 2.9 2.12 10.9 2.78 16.11"/><path id="kvg:0617e-s6" kvg:type="㇕b" d="M24.27 47.51c7.6-1.34 16.86-3.18 21.51-3.76 1.59-.2 2.56 1.33 2.32 2.19-1.16 4.14-2.91 7.86-3.98 12.95"/><path id="kvg:0617e-s7" kvg:type="㇐b" d="M27.18 60.66c6.12-.4 11.96-1.15 18.98-1.77"/></g></g></g><g id="kvg:0617e-g6" kvg:element="欠" kvg:position="right"><g id="kvg:0617e-g7" kvg:position="top"><path id="kvg:0617e-s8" kvg:type="㇒" d="M67.89 12.25c.03.5.06 1.28-.06 1.99-.76 4.2-5.13 13.41-11.11 19.05"/><path id="kvg:0617e-s9" kvg:type="㇖a" d="M66.82 22.25c.82.26 2.36.67 3.59.44 1.5-.28 16.63-3.07 18.06-3.07s2.98 1.73 1.55 3.29-3.28 3.6-7.1 7.65"/></g><g id="kvg:0617e-g8" kvg:position="bottom"><path id="kvg:0617e-s10" kvg:type="㇒" d="M70.82 29.26c.68.74.93 1.92.9 3.03C71.44 42.4 65.25 55.5 53.3 61.25"/><path id="kvg:0617e-s11" kvg:type="㇏" d="M70.74 39.18c3.33 3.77 15.33 15.08 21.32 19.11 1.26.85 2.22 1.35 3.41 1.63"/></g></g></g><g id="kvg:0617e-g9" kvg:element="心" kvg:position="bottom" kvg:radical="general"><path id="kvg:0617e-s12" kvg:type="㇔" d="M21.39 78.07c.35 2.28-3.51 12.36-6.31 16.17"/><path id="kvg:0617e-s13" kvg:type="㇃" d="M32.58 74.25c7.02 11.93 18.11 22.28 45.17 22.43 13.05.07 13.91-3.18 3.02-8.61"/><path id="kvg:0617e-s14" kvg:type="㇔a" d="M53.41 73.25c1.88 5.25 4.62 10.5 6.63 2.46"/><path id="kvg:0617e-s15" kvg:type="㇔" d="M76.13 67.73c5.11 1.87 8.95 3.57 13.1 9.36"/></g></g></g></svg>