<svg xmlns="http://www.w3.org/2000/svg" width="109" height="109" viewBox="0 0 109 109"><g id="kvg:StrokePaths_06182"><g id="kvg:06182" kvg:element="憂"><g id="kvg:06182-g1" kvg:position="top"><g id="kvg:06182-g2" kvg:element="百"><g id="kvg:06182-g3" kvg:element="一" kvg:position="top" kvg:radical="nelson"><path id="kvg:06182-s1" kvg:type="㇐" d="M27.87 13.78c2.11.82 5.69.71 7.88.48 10.95-1.17 25.01-2.38 39.01-3.53 2.78-.23 5.25-.6 7.89-.29"/></g><g id="kvg:06182-g4" kvg:position="bottom"><g id="kvg:06182-g5" kvg:position="top"><path id="kvg:06182-s2" kvg:type="㇒" d="M53.55 15.67c.21.37.24.83.19 1.16-.2 1.36-1.5 4.05-3.05 6.42"/></g><g id="kvg:06182-g6" kvg:element="日" kvg:position="bottom"><path id="kvg:06182-s3" kvg:type="㇑a" d="M40.01 25.08c.77.77 1.01 1.79 1.01 3.41.0 8.26-.02 14.01-.02 21.26"/><path id="kvg:06182-s4" kvg:type="㇕b" d="M42.07 26.42c4.26-.58 18.96-2.53 24.57-3.15 2.74-.3 4.29.09 4.29 3.1-.01 5.03-.05 14.46-.05 19.96"/><path id="kvg:06182-s5" kvg:type="㇐a" d="M42.5 34.21c6.75-.46 22.74-2.61 27.09-2.61"/><path id="kvg:06182-s6" kvg:type="㇐a" d="M41.82 42.01c8.18-.76 18.43-1.76 27.8-2.37"/></g></g></g><g id="kvg:06182-g7" kvg:element="冖"><path id="kvg:06182-s7" kvg:type="㇔" d="M21.08 50.69c0 3.29-2.81 12.35-4.08 14.55"/><path id="kvg:06182-s8" kvg:type="㇖b" d="M22.02 53.24C40.5 50.88 59 48.88 86.14 46.59c11.13-.94 2.36 5.78-.42 7.79"/></g></g><g id="kvg:06182-g8" kvg:position="bottom"><g id="kvg:06182-g9" kvg:element="心" kvg:radical="tradit"><path id="kvg:06182-s9" kvg:type="㇔" d="M32.28 60.17c.28 1.61-2.77 8.74-4.99 11.43"/><path id="kvg:06182-s10" kvg:type="㇃" d="M41.91 57.89C50.25 66.75 57.75 68.25 71 68.25c7 0 7.75-1.5.25-6"/><path id="kvg:06182-s11" kvg:type="㇔a" d="M54.82 55.25c2.61 5.36 4.71 5.13 5.42 1.86"/><path id="kvg:06182-s12" kvg:type="㇔" d="M72.41 52.56c2.63 1.2 4.6 2.29 6.74 5.99"/></g><g id="kvg:06182-g10" kvg:element="夂"><path id="kvg:06182-s13" kvg:type="㇒" d="M48.82 69.25c.15 1.19-.45 2.11-1.27 3.02-3.8 4.23-11.8 12.48-24.05 18.98"/><path id="kvg:06182-s14" kvg:type="㇇" d="M47.3 76.76c.3.02 1.55.0 2.4-.07 2.55-.19 8.78-1.72 12.92-2.47 3.55-.64 4.86.6 2.57 3.57-5.39 7-20.4 18.35-36.68 22.7"/><path id="kvg:06182-s15" kvg:type="㇏" d="M42.25 80.25c5.05 2.6 24.7 11.4 35.15 15.44 3.1 1.2 6.13 1.79 9.35 2.56"/></g></g></g></g></svg>