<svg xmlns="http://www.w3.org/2000/svg" width="109" height="109" viewBox="0 0 109 109"><g id="kvg:StrokePaths_061ab" style="fill:none;stroke:#000000;stroke-width:3;stroke-linecap:round;stroke-linejoin:round;"><g id="kvg:061ab" kvg:element="憫"><g id="kvg:061ab-g1" kvg:element="忄" kvg:variant="true" kvg:original="心" kvg:position="left" kvg:radical="general"><path id="kvg:061ab-s1" kvg:type="㇔" d="M16.72 36.5c.03 4.19-2.21 13.74-4.19 17"/><path id="kvg:061ab-s2" kvg:type="㇔" d="M29.52 32.58c2.13 1.92 5.51 7.9 6.04 10.88"/><path id="kvg:061ab-s3" kvg:type="㇑" d="M23.87 14.25c1.09.5 1.74 2.25 1.96 3.25.22 1 0 73.75-.22 80"/></g><g id="kvg:061ab-g2" kvg:element="閔" kvg:position="right"><g id="kvg:061ab-g3" kvg:element="門" kvg:position="kamae"><g id="kvg:061ab-g4" kvg:position="left"><path id="kvg:061ab-s4" kvg:type="㇑" d="M40.89 17.54c.54.4 1.68 3.01 1.78 3.82.11.81-.07 70.25-.18 75.28"/><path id="kvg:061ab-s5" kvg:type="㇕a" d="M42.82 18.96c1.79-.09 14.15-1.88 15.78-1.98 1.36-.09 2.06.79 2.13 1.48.1 1.07-.63 19.85-.63 20.38"/><path id="kvg:061ab-s6" kvg:type="㇐a" d="M43.14 28.33c4.39-.51 12.7-1.34 16.93-1.89"/><path id="kvg:061ab-s7" kvg:type="㇐a" d="M42.82 38.75c5.95-1 11.56-1.26 16.83-1.72"/></g><g id="kvg:061ab-g5" kvg:position="right"><path id="kvg:061ab-s8" kvg:type="㇑" d="M70.99 15.48c.31.47.62 1.46.62 2.08s-.1 18.71.0 19.33"/><path id="kvg:061ab-s9" kvg:type="㇆a" d="M72.11 16.44c1.74-.09 16.24-2.35 17.83-2.45 1.32-.09 2.56.76 2.57 2.51.06 16.38-.35 61.1-.35 72.98.0 9.77-5.89.55-6.9-.54"/><path id="kvg:061ab-s10" kvg:type="㇐a" d="M72.42 25.33c2.35.0 16.3-1.89 18.96-1.89"/><path id="kvg:061ab-s11" kvg:type="㇐a" d="M72.11 35.04c3.48.0 14.57-1.73 19.07-1.73"/></g></g><g id="kvg:061ab-g6" kvg:element="文"><g id="kvg:061ab-g7" kvg:element="亠" kvg:position="top"><path id="kvg:061ab-s12" kvg:type="㇑a" d="M65.56 41.5c.59.37 1.56 1.8 1.56 2.54.0 2.91-.02 4.45-.08 6.54"/><path id="kvg:061ab-s13" kvg:type="㇐" d="M51 52.79c.89.07 2.92.47 3.78.36C63.75 52 71.5 50.35 79.8 49.9c1.46-.08 1.95-.09 3.7-.09"/></g><g id="kvg:061ab-g8" kvg:element="乂" kvg:position="bottom"><path id="kvg:061ab-s14" kvg:type="㇒" d="M75.13 53.66c.32.67.48 1.11.16 2.39C72.25 68 64.25 78.5 50.13 84"/><path id="kvg:061ab-s15" kvg:type="㇏" d="M57.21 61.2c8.69 3.96 18.05 12.82 22.54 18.79"/></g></g></g></g></g></svg>