<svg xmlns="http://www.w3.org/2000/svg" width="109" height="109" viewBox="0 0 109 109"><g id="kvg:StrokePaths_061c8"><g id="kvg:061c8" kvg:element="懈"><g id="kvg:061c8-g1" kvg:element="忄" kvg:variant="true" kvg:original="心" kvg:position="left" kvg:radical="general"><path id="kvg:061c8-s1" kvg:type="㇔" d="M14.97 36.75C15 40.88 12.9 50.29 11.03 53.5"/><path id="kvg:061c8-s2" kvg:type="㇔" d="M25.27 33.83c2.4 2.14 6.19 8.8 6.79 12.13"/><path id="kvg:061c8-s3" kvg:type="㇑" d="M20.37 13.25c1.09.5 1.74 2.25 1.96 3.25.22 1 0 73.75-.22 80"/></g><g id="kvg:061c8-g2" kvg:element="解" kvg:position="right"><g id="kvg:061c8-g3" kvg:element="角" kvg:position="left"><g id="kvg:061c8-g4" kvg:element="𠂊" kvg:variant="true" kvg:original="勹" kvg:position="top"><path id="kvg:061c8-s4" kvg:type="㇒" d="M46.42 10.25c.04.51.08 1.33-.07 2.07-.9 4.36-6.03 13.92-13.07 19.77"/><path id="kvg:061c8-s5" kvg:type="㇇a" d="M44.55 19.61c1.51.0 11.03-1.72 13.84-2.7 1.63-.57 2.49 1.12 1.51 2.69-3.18 5.14-6.43 9.03-8.82 14.67"/></g><g id="kvg:061c8-g5" kvg:position="bottom"><path id="kvg:061c8-s6" kvg:type="㇒" d="M39.32 35.25c.71.76 1.41 2.9 1.42 3.71.02 1.96-.51 24.38-.65 26.09-.88 11.04-2.87 21.2-8.84 28.05"/><path id="kvg:061c8-s7" kvg:type="㇆a" d="M40.63 36.42c1.89-.2 16.71-3.15 18.12-3.38 2.52-.41 3.47 2.65 3.15 3.88-.3 1.18-.47 34.35-.47 50.89.0 11.88-3.32 3.3-5.06 1.59"/><path id="kvg:061c8-s8" kvg:type="㇑a" d="M50.72 36.59c.04.23.52 1.22.55 2.71.18 7.15-.11 23.4-.11 25.83"/><path id="kvg:061c8-s9" kvg:type="㇐a" d="M40.37 51.76c7.89-1.32 13.19-1.56 20.91-2.78"/><path id="kvg:061c8-s10" kvg:type="㇐a" d="M40.37 66.84c5.06-.49 13.19-1.21 20.58-1.94"/></g></g><g id="kvg:061c8-g6" kvg:position="right"><g id="kvg:061c8-g7" kvg:element="刀" kvg:position="top"><path id="kvg:061c8-s11" kvg:type="㇆" d="M68.82 18.26c.87.25 1.97.22 2.74.13 6.22-.69 16.71-2.28 20.16-2.54 2.25-.17 2.86 1.72 2.74 2.88-.33 3.08-1.79 11.18-4.36 15.2-3.42 5.36-3.99 1.51-5.23.16"/><path id="kvg:061c8-s12" kvg:type="㇒" d="M80.18 20.46c.04.43.06 1.12-.09 1.75-1.48 6.12-6.34 12.65-13.18 17.34"/></g><g id="kvg:061c8-g8" kvg:element="牛" kvg:position="bottom"><path id="kvg:061c8-s13" kvg:type="㇒" d="M72.63 43.45c.02.44.0 1.12-.04 1.75-.34 4.55-2.09 12.3-7.38 17.32"/><path id="kvg:061c8-s14" kvg:type="㇐" d="M73.86 53.82c.46.24 2.43.29 2.88.24 5.59-.66 11.15-1.82 16.28-2.03.76-.03 2.35.11 2.73.23"/><path id="kvg:061c8-s15" kvg:type="㇐" d="M66.52 69.6c.81.2 2.29.18 3.1.2C79 70 90.19 67.65 97.08 67.47c1.35-.03 2.16.09 2.83.19"/><path id="kvg:061c8-s16" kvg:type="㇑" d="M81.33 39.67c.4.31 1.25 2.3 1.33 2.92.08.62-.05 48.81-.13 52.66"/></g></g></g></g></g></svg>