<svg xmlns="http://www.w3.org/2000/svg" width="109" height="109" viewBox="0 0 109 109"><g id="kvg:StrokePaths_061c9"><g id="kvg:061c9" kvg:element="應"><g id="kvg:061c9-g1" kvg:element="雁" kvg:variant="true" kvg:position="tare"><g id="kvg:061c9-g2" kvg:element="广" kvg:position="tare" kvg:radical="nelson"><path id="kvg:061c9-s1" kvg:type="㇔" d="M53.01 9.63c.64.33 2 2.44 2.13 3.1s.07 3.94-.06 8.02"/><g id="kvg:061c9-g3" kvg:element="厂"><path id="kvg:061c9-s2" kvg:type="㇐" d="M22.13 23.23c1.52.54 3.87.75 5.82.54 14.3-1.52 36.3-3.77 55.11-5.23 2.52-.2 4.05.26 5.31.53"/><path id="kvg:061c9-s3" kvg:type="㇒" d="M26 24c.04 1.62.08 4.18-.08 6.5-.97 13.71-3.16 46.95-13.61 61.72"/></g></g><g id="kvg:061c9-g4" kvg:element="亻" kvg:variant="true" kvg:original="人" kvg:position="left"><path id="kvg:061c9-s4" kvg:type="㇒" d="M44.29 28.78c.08.54.14 1.23-.07 1.9-1.38 4.23-6.72 12.42-13.16 18.16"/><path id="kvg:061c9-s5" kvg:type="㇑" d="M40.25 42.86c.47.29.61.94.61 1.54.0 6.21-.23 16.65-.23 20.82"/></g><g id="kvg:061c9-g5" kvg:element="隹" kvg:position="right"><g id="kvg:061c9-g6" kvg:element="亻" kvg:variant="true" kvg:original="人"><path id="kvg:061c9-s6" kvg:type="㇒" d="M58.26 25.92c.11.9-.03 2.07-.38 2.84-2.22 4.9-5.04 9.05-10.13 15.02"/><path id="kvg:061c9-s7" kvg:type="㇑" d="M53.68 36.15c.48.44.84 1.4.87 2.08.28 6.06-.39 22.62-.15 25.77"/></g><path id="kvg:061c9-s8" kvg:type="㇒" d="M72.93 23.5c.04.49-.01 1.14-.16 1.57-.91 2.7-2.07 4.79-4.17 8.08"/><path id="kvg:061c9-s9" kvg:type="㇐b" d="M54.42 35.72c5.53-.57 28.01-2.45 30.39-2.76"/><path id="kvg:061c9-s10" kvg:type="㇑a" d="M68.81 36.99c.27.22.48 1.03.48 1.42.0 3.93.03 15-.13 21.18"/><path id="kvg:061c9-s11" kvg:type="㇐b" d="M55.16 44.29c5.22-.47 26.22-2.07 28.46-2.32"/><path id="kvg:061c9-s12" kvg:type="㇐b" d="M54.53 52.55c5.51-.4 26.06-2.71 28.43-2.92"/><path id="kvg:061c9-s13" kvg:type="㇐b" d="M54.53 61.66c5.85-.98 30.54-2.39 33.04-2.92"/></g></g><g id="kvg:061c9-g7" kvg:element="心" kvg:position="tarec" kvg:radical="tradit"><path id="kvg:061c9-s14" kvg:type="㇔" d="M33.31 77.13c.34 2.42-3.37 13.13-6.06 17.17"/><path id="kvg:061c9-s15" kvg:type="㇃" d="M41.16 74.82C49.75 86.25 56 96.5 78.9 98c10.88.71 11.62-3.29 2.52-8.9"/><path id="kvg:061c9-s16" kvg:type="㇔a" d="M59.66 72.32c1.79 5.25 4.4 10.5 6.32 2.46"/><path id="kvg:061c9-s17" kvg:type="㇔" d="M80.09 69.05c4.66 2.45 8.16 5.95 11.57 11.11"/></g></g></g></svg>