<svg xmlns="http://www.w3.org/2000/svg" width="109" height="109" viewBox="0 0 109 109"><g id="kvg:StrokePaths_061cd"><g id="kvg:061cd" kvg:element="懍"><g id="kvg:061cd-g1" kvg:element="忄" kvg:variant="true" kvg:original="心" kvg:position="left" kvg:radical="general"><path id="kvg:061cd-s1" kvg:type="㇔" d="M15.47 32.5c.03 4.19-2.07 13.74-3.94 17"/><path id="kvg:061cd-s2" kvg:type="㇔" d="M30.52 31.08c2.13 2.45 5.51 10.07 6.04 13.88"/><path id="kvg:061cd-s3" kvg:type="㇑" d="M21.37 13.75c1.09.5 1.74 2.25 1.96 3.25.22 1 0 75.25-.22 81.5"/></g><g id="kvg:061cd-g2" kvg:element="稟" kvg:position="right"><g id="kvg:061cd-g3" kvg:element="㐭" kvg:position="top"><g id="kvg:061cd-g4" kvg:element="亠" kvg:position="top"><path id="kvg:061cd-s4" kvg:type="㇑a" d="M62.39 10c.78.42 2.05 2.04 2.05 2.87.0 3.07-.25 4.96-.1 7.56"/><path id="kvg:061cd-s5" kvg:type="㇐" d="M37.17 22.21c1.67.33 3.13 1.1 5.05.96 12.53-.92 32.91-3 46.2-3.67 1.96-.1 2.96.04 4.41.58"/></g><g id="kvg:061cd-g5" kvg:element="回" kvg:position="bottom"><g id="kvg:061cd-g6" kvg:element="囗" kvg:part="1"><path id="kvg:061cd-s6" kvg:type="㇑" d="M44.21 30.95c.59.61.68 1.75.8 2.51.82 5.17 1.89 14.16 3.09 24.29"/><path id="kvg:061cd-s7" kvg:type="㇕a" d="M44.95 32.72c10.58-.67 33.22-3.47 40.31-3.47 1.61.0 2.74 2.01 2.55 3.23-.88 5.77-1.81 12.77-2.85 21.94"/></g><g id="kvg:061cd-g7" kvg:element="口"><path id="kvg:061cd-s8" kvg:type="㇑" d="M56.02 37.3c.18.17.37.81.45 1.01.63 1.65 1.21 7.28 1.75 10.25"/><path id="kvg:061cd-s9" kvg:type="㇕b" d="M56.65 38.5c3.73-.86 15.77-1.81 17.91-2.03.78-.08 1.25.47 1.14.94-.46 1.93-1 5.26-1.69 7.93"/><path id="kvg:061cd-s10" kvg:type="㇐b" d="M57.89 46.9c2.7-.42 14.46-.95 17.9-1.33"/></g><g id="kvg:061cd-g8" kvg:element="囗" kvg:part="2"><path id="kvg:061cd-s11" kvg:type="㇐a" d="M48.34 54.98c10.25-.73 26.23-2.82 37.03-3.41"/></g></g></g><g id="kvg:061cd-g9" kvg:element="禾" kvg:position="bottom"><g id="kvg:061cd-g10" kvg:element="丿" kvg:position="top"><path id="kvg:061cd-s12" kvg:type="㇒" d="M77.79 56.5c.09.24.2.62-.19.96-2.28 2.04-15.34 6.5-33.22 9.24"/></g><g id="kvg:061cd-g11" kvg:element="木" kvg:position="bottom"><path id="kvg:061cd-s13" kvg:type="㇐" d="M38.07 74.08c.57.22 2.86.8 4.37.66 6.84-.66 37.07-3.29 48.66-3.9 1.52-.08 3.42.26 4.37.48"/><path id="kvg:061cd-s14" kvg:type="㇑" d="M65.15 65.48c.73.41 1.17 1.82 1.31 2.63s0 25.33-.15 30.39"/><path id="kvg:061cd-s15" kvg:type="㇒" d="M64.25 73.01C57.43 82.46 49.4 90.64 36.5 95.56"/><path id="kvg:061cd-s16" kvg:type="㇏" d="M66.11 72.86C71.25 77.5 84 88.25 91.49 91.81c1.53.73 2.61 1.34 4.01 1.61"/></g></g></g></g></g></svg>