<!DOCTYPE svg PUBLIC "-//W3C//DTD SVG 1.0//EN" "http://www.w3.org/TR/2001/REC-SVG-20010904/DTD/svg10.dtd" [
<!ATTLIST g
xmlns:kvg CDATA #FIXED "http://kanjivg.tagaini.net"
kvg:element CDATA #IMPLIED
kvg:variant CDATA #IMPLIED
kvg:partial CDATA #IMPLIED
kvg:original CDATA #IMPLIED
kvg:part CDATA #IMPLIED
kvg:number CDATA #IMPLIED
kvg:tradForm CDATA #IMPLIED
kvg:radicalForm CDATA #IMPLIED
kvg:position CDATA #IMPLIED
kvg:radical CDATA #IMPLIED
kvg:phon CDATA #IMPLIED >
<!ATTLIST path
xmlns:kvg CDATA #FIXED "http://kanjivg.tagaini.net"
kvg:type CDATA #IMPLIED >
]><svg xmlns="http://www.w3.org/2000/svg" width="109" height="109" viewBox="0 0 109 109"><g id="kvg:StrokePaths_061d0" style="fill:none;stroke:#000000;stroke-width:3;stroke-linecap:round;stroke-linejoin:round;"><g id="kvg:061d0" kvg:element="懐"><g id="kvg:061d0-g1" kvg:element="忄" kvg:variant="true" kvg:original="心" kvg:position="left" kvg:radical="general"><path id="kvg:061d0-s1" kvg:type="㇔" d="M16.25 40.25c0 6.61-2.72 16.11-3.5 18"/><path id="kvg:061d0-s2" kvg:type="㇔" d="M29.77 35.08c2.49 1.66 6.42 6.81 7.04 9.38"/><path id="kvg:061d0-s3" kvg:type="㇑" d="M24.62 15.75c.88.88 1.21 2.12 1.21 3.5.0.74.02 50.87.03 69.88.0 3.56.0 6.03.0 6.88"/></g><g id="kvg:061d0-g2" kvg:position="right" kvg:phon="十+あみがしら+衣"><g id="kvg:061d0-g3" kvg:element="十"><path id="kvg:061d0-s4" kvg:type="㇐" d="M40.38 23.74c2.36.84 5.24.35 7.64.03 12.08-1.6 23.73-3.02 32.98-3.98 2.11-.22 4.31-.16 6.38.28"/><path id="kvg:061d0-s5" kvg:type="㇑a" d="M62.15 11.63c.86.86 1.22 2.49 1.09 4.2C62.93 20.02 62.75 22.88 62 31"/></g><g id="kvg:061d0-g4" kvg:element="罒" kvg:variant="true" kvg:original="网"><path id="kvg:061d0-s6" kvg:type="㇑" d="M43.75 33.98c.63.63 1.12 1.27 1.31 2.01.59 2.39 1.78 6.04 2.78 9.73.33 1.23.63 2.38.85 3.35"/><path id="kvg:061d0-s7" kvg:type="㇕a" d="M45.28 34.43c5.26-.91 27.54-3.72 35.13-4.39 3.22-.29 4.34.84 3.82 3.48-.46 2.33-1.28 5.06-2.3 8.29-.47 1.48-.93 2.97-1.31 4.37"/><path id="kvg:061d0-s8" kvg:type="㇑a" d="M56.19 34.1c.73.73.88 1.47 1.01 2.65.34 3.23.88 6.84.99 8.41"/><path id="kvg:061d0-s9" kvg:type="㇑a" d="M68.43 31.91c.83.83 1.12 1.82 1 3.36-.27 3.55-.66 7.13-.85 8.46"/><path id="kvg:061d0-s10" kvg:type="㇐a" d="M49.67 47.2c7.46-1.07 24.58-2.95 30.52-3.46"/></g><g id="kvg:061d0-g5" kvg:element="衣"><g id="kvg:061d0-g6" kvg:element="亠" kvg:position="top"><path id="kvg:061d0-s11" kvg:type="㇑a" d="M62.18 49.75c.97.97 1.21 2.12 1.21 3.61.0 2.79-.02 3.39-.02 4.77"/><path id="kvg:061d0-s12" kvg:type="㇐" d="M39.63 61.81c2.5.17 4.62.29 7.13-.01 8.46-1.04 25.07-3.44 35.22-4.27 2.64-.22 5.77-.52 7.92-.06"/></g><g id="kvg:061d0-g7" kvg:position="bottom"><path id="kvg:061d0-s13" kvg:type="㇒" d="M59.53 62.96c0 1.04-.58 2.1-1.15 2.76-4 4.66-11.38 11.03-24.63 18.53"/><path id="kvg:061d0-s14" kvg:type="㇙" d="M53.9 74.39c.98.98 1.11 2.24 1.11 4.05.0 1.6.07 7.38.08 12.81.01 3.46.54 4.01 3.11 1.96 2.65-2.11 8.1-6.49 9.15-7.24"/><path id="kvg:061d0-s15" kvg:type="㇒" d="M82.23 64.62c0 .75-.64 1.82-1.33 2.53-1.79 1.85-3.62 3.14-8.9 7.1"/><path id="kvg:061d0-s16" kvg:type="㇏" d="M63.25 70.25c1.46.42 16.83 13.4 24.23 18.81 2.14 1.57 3.77 2.57 5.88 3.37"/></g></g></g></g></g><g id="kvg:StrokeNumbers_061d0" style="font-size:8;fill:#808080"><text transform="matrix(1 0 0 1 10.50 40.50)">1</text><text transform="matrix(1 0 0 1 31.50 33.13)">2</text><text transform="matrix(1 0 0 1 15.50 16.50)">3</text><text transform="matrix(1 0 0 1 39.50 21.50)">4</text><text transform="matrix(1 0 0 1 53.25 12.50)">5</text><text transform="matrix(1 0 0 1 39.75 43.50)">6</text><text transform="matrix(1 0 0 1 45.50 32.50)">7</text><text transform="matrix(1 0 0 1 60.50 39.50)">8</text><text transform="matrix(1 0 0 1 72.50 39.50)">9</text><text transform="matrix(1 0 0 1 48.75 45.50)">10</text><text transform="matrix(1 0 0 1 52.50 55.50)">11</text><text transform="matrix(1 0 0 1 36.75 58.25)">12</text><text transform="matrix(1 0 0 1 41.25 71.68)">13</text><text transform="matrix(1 0 0 1 44.50 85.50)">14</text><text transform="matrix(1 0 0 1 70.50 67.63)">15</text><text transform="matrix(1 0 0 1 60.75 82.63)">16</text></g></svg>