<svg xmlns="http://www.w3.org/2000/svg" width="109" height="109" viewBox="0 0 109 109"><g id="kvg:StrokePaths_061e3" style="fill:none;stroke:#000000;stroke-width:3;stroke-linecap:round;stroke-linejoin:round;"><g id="kvg:061e3" kvg:element="懣"><g id="kvg:061e3-g1" kvg:element="滿" kvg:position="top"><g id="kvg:061e3-g2" kvg:element="氵" kvg:variant="true" kvg:original="水" kvg:position="left"><path id="kvg:061e3-s1" kvg:type="㇔" d="M19.1 15.3c3.48 1.3 8.99 5.36 9.87 7.38"/><path id="kvg:061e3-s2" kvg:type="㇔" d="M16 31.25c3.32 1.28 8.56 5.25 9.39 7.24"/><path id="kvg:061e3-s3" kvg:type="㇀" d="M17.45 63.75c1.55.99 3.88.66 4.86-.56 2.84-3.56 5.21-7.55 7.79-12.1"/></g><g id="kvg:061e3-g3" kvg:position="right"><g id="kvg:061e3-g4" kvg:element="廿"><g id="kvg:061e3-g5" kvg:element="十"><path id="kvg:061e3-s4" kvg:type="㇐" d="M36.39 21.39c1.01.28 3.36.33 4.37.28 5.27-.26 33.57-2.5 44.66-2.63 1.68-.02 2.69.14 3.53.28"/><path id="kvg:061e3-s5" kvg:type="㇑" d="M49.95 13.02c.83.26 1.33 1.68 1.49 2.2.17.52 1.9 14.08 1.74 17.34"/></g><path id="kvg:061e3-s6" kvg:type="㇑" d="M72.74 9.59c.76.66 1.05 2.15 1 2.7-.24 2.47-1.24 11.22-2.39 17.29"/><g id="kvg:061e3-g6" kvg:element="兩" kvg:part="1"><path id="kvg:061e3-s7" kvg:type="㇐" d="M53.18 31.78c3.16.0 17.42-1.82 20.25-1.94"/></g></g><g id="kvg:061e3-g7" kvg:element="兩" kvg:part="2"><g id="kvg:061e3-g8" kvg:element="冂"><path id="kvg:061e3-s8" kvg:type="㇑" d="M39.95 40.63c1.03.8 1.6 1.93 1.75 3.05.88 6.68 1.99 22.01 1.99 25.01"/><path id="kvg:061e3-s9" kvg:type="㇆a" d="M41.77 42.22c8.17-.63 38.21-3.1 43.35-3.58 1.67-.16 3.06.63 3 2.35-.29 8.74-2.09 14.19-3.75 23.74-.8 4.6-3.83 3.14-6 0"/></g><path id="kvg:061e3-s10" kvg:type="㇑" d="M60.56 33.57c.94.89 1.7 1.95 1.7 3.19.0.71-.1 29.49-.1 31.44"/><g id="kvg:061e3-g9" kvg:element="入"><path id="kvg:061e3-s11" kvg:type="㇒" d="M51.43 51.48c-1.3 2.59-4.69 6.25-7.4 7.72"/><path id="kvg:061e3-s12" kvg:type="㇏" d="M47.91 46.86c.39.0.74.33.92.57 3.09 4.02 6.59 8.16 9.45 11 .32.32.63.44.97.53"/></g><g id="kvg:061e3-g10" kvg:element="入"><path id="kvg:061e3-s13" kvg:type="㇒" d="M73.57 50.28c-1.4 2.82-5.04 6.82-7.95 8.42"/><path id="kvg:061e3-s14" kvg:type="㇏" d="M68.59 45.34c.46.0.89.32 1.09.55C72.5 49.25 76 53 80.8 56.51c.41.3.74.42 1.15.51"/></g></g></g></g><g id="kvg:061e3-g11" kvg:element="心" kvg:position="bottom" kvg:radical="general"><path id="kvg:061e3-s15" kvg:type="㇔" d="M24.4 81.07c.32 2.28-3.23 12.36-5.82 16.17"/><path id="kvg:061e3-s16" kvg:type="㇃" d="M32.83 75c6.58 11.93 16.97 22.28 42.33 22.43 12.23.07 13.03-3.18 2.83-8.61"/><path id="kvg:061e3-s17" kvg:type="㇔a" d="M55.41 75.75c2.17 5.25 5.32 10.5 7.63 2.46"/><path id="kvg:061e3-s18" kvg:type="㇔" d="M80.88 75.73c4.63 2.07 8.09 3.96 11.85 10.36"/></g></g></g></svg>