<svg xmlns="http://www.w3.org/2000/svg" width="109" height="109" viewBox="0 0 109 109"><g id="kvg:StrokePaths_061f8"><g id="kvg:061f8" kvg:element="懸"><g id="kvg:061f8-g1" kvg:element="縣" kvg:position="top" kvg:phon="縣"><g id="kvg:061f8-g2" kvg:element="県" kvg:position="left"><g id="kvg:061f8-g3" kvg:position="top"><g id="kvg:061f8-g4" kvg:element="目"><path id="kvg:061f8-s1" kvg:type="㇑" d="M29.33 15.59c.6.6.74 1.53.74 2.47.0.5.01 12.33.02 20.06.0 1.59.0 3.01.0 4.12"/><path id="kvg:061f8-s2" kvg:type="㇕a" d="M30.57 17.23c1.46-.08 10.92-1.58 14.69-2.08 2.36-.31 3.43-.02 3.43 2.48.0 3.37-.02 13.04-.03 18.75.0 1.45.0 2.64.0 3.41"/><path id="kvg:061f8-s3" kvg:type="㇐a" d="M31.21 24.63c4.16-.63 13.41-1.76 16.14-1.76"/><path id="kvg:061f8-s4" kvg:type="㇐a" d="M31.35 32.87c5.53-.74 11.15-1.62 16.05-1.94"/><path id="kvg:061f8-s5" kvg:type="㇐a" d="M31.28 40.23c4.47-.48 11.72-1.73 16.34-1.89"/></g><path id="kvg:061f8-s6" kvg:type="㇗" d="M19.94 25.67c.75.75 1.07 1.86 1.07 2.97s-.77 17.25-.77 18.68c0 2.12.65 2.6 2.31 2.34 9.2-1.42 20.07-2.92 25.65-2.97 1.38-.01 3.05.09 4.12.25"/></g><g id="kvg:061f8-g5" kvg:element="小" kvg:position="bottom"><path id="kvg:061f8-s7" kvg:type="㇑" d="M36.93 49.94c.81.81 1.11 1.93 1.11 3.51.0 3.31-.01 8.42-.02 12.3.0 2.04-.01 3.95-.01 5.5"/><path id="kvg:061f8-s8" kvg:type="㇒" d="M27.81 55.38c.09.94-.09 1.84-.52 2.68-1.54 2.94-4.54 6.81-9.85 11.81"/><path id="kvg:061f8-s9" kvg:type="㇔" d="M44.65 54.66c2.67 1.67 6.9 6.88 7.56 9.48"/></g></g><g id="kvg:061f8-g6" kvg:element="系" kvg:position="right"><g id="kvg:061f8-g7" kvg:element="丿" kvg:position="top"><path id="kvg:061f8-s10" kvg:type="㇒" d="M82 10.14c0 .98-.48 1.65-1.24 2.03-2.9 2.26-11.28 6.03-22.27 8.46"/></g><g id="kvg:061f8-g8" kvg:element="糸" kvg:position="bottom"><path id="kvg:061f8-s11" kvg:type="㇜" d="M71.42 19.4c.29.8.19 1.9-.39 2.77-2.15 3.21-4.02 5.21-7.14 8.48-.86.9-1.1 1.54.24 2.14 3 1.35 5.25 2.85 7.22 4.48"/><path id="kvg:061f8-s12" kvg:type="㇜" d="M82.37 25.38c.25.87-.06 1.79-.75 2.6C76 34.62 69.88 40.5 62.1 47.53c-1.16 1.05-1.01 2.64.51 2.34 6.36-1.23 17.86-4.53 26.04-5.71"/><path id="kvg:061f8-s13" kvg:type="㇔" d="M84.25 38.48c2.92 1.99 7.55 8.2 8.28 11.3"/><path id="kvg:061f8-s14" kvg:type="㇑" d="M74.66 49.47c.87.87 1.07 1.9 1.07 3.55.0 6.99-.01 9.04-.02 13.23.0 1.64.0 3.23.0 4.89"/><path id="kvg:061f8-s15" kvg:type="㇒" d="M66.27 56.45c.23.92-.31 1.83-.6 2.25-1.91 2.75-7.5 8-10.21 10.36"/><path id="kvg:061f8-s16" kvg:type="㇔" d="M84.68 56.2c3.82 2.2 8.02 7.97 9.07 10.23"/></g></g></g><g id="kvg:061f8-g9" kvg:element="心" kvg:position="bottom" kvg:radical="general"><path id="kvg:061f8-s17" kvg:type="㇔" d="M24.5 79c.31 2.19-3.15 11.84-5.67 15.49"/><path id="kvg:061f8-s18" kvg:type="㇃" d="M36.58 76.75c6.79 11.12 15.54 20.43 39.7 20.43 11.47.0 12.22-2.93 2.65-7.94"/><path id="kvg:061f8-s19" kvg:type="㇔a" d="M57.41 75.75c2.17 5.25 5.22 8.5 6.63 3.21"/><path id="kvg:061f8-s20" kvg:type="㇔" d="M82.38 75.73c4.99 2.77 8.62 6.02 11.85 10.36"/></g></g></g></svg>