<svg xmlns="http://www.w3.org/2000/svg" width="109" height="109" viewBox="0 0 109 109"><g id="kvg:StrokePaths_061fc" style="fill:none;stroke:#000000;stroke-width:3;stroke-linecap:round;stroke-linejoin:round;"><g id="kvg:061fc" kvg:element="懼"><g id="kvg:061fc-g1" kvg:element="忄" kvg:variant="true" kvg:original="心" kvg:position="left" kvg:radical="general"><path id="kvg:061fc-s1" kvg:type="㇔" d="M16.22 35.5c.03 3.7-2.21 12.12-4.19 15"/><path id="kvg:061fc-s2" kvg:type="㇔" d="M30.02 30.58c2.31 2.01 5.97 8.26 6.54 11.38"/><path id="kvg:061fc-s3" kvg:type="㇑" d="M21.87 12.75c1.09.5 1.74 2.25 1.96 3.25.22 1 0 76.25-.22 82.5"/></g><g id="kvg:061fc-g2" kvg:element="瞿" kvg:position="right"><g id="kvg:061fc-g3" kvg:position="top"><g id="kvg:061fc-g4" kvg:element="目" kvg:position="left"><path id="kvg:061fc-s4" kvg:type="㇑" d="M44.8 15.18c.26.64.65 1.11.65 1.97.0.85-.18 26.3-.18 26.72"/><path id="kvg:061fc-s5" kvg:type="㇕a" d="M45.37 16.01c1.5-.11 13.46-1.66 14.83-1.79 1.14-.11 2.04.6 1.94 1.38-.12 1-.26 21.99-.26 25.85"/><path id="kvg:061fc-s6" kvg:type="㇐a" d="M45.87 24.48c2.96-.15 13.42-1.35 15.82-1.35"/><path id="kvg:061fc-s7" kvg:type="㇐a" d="M45.99 32.61c3.98-.36 11.66-1.28 15.52-1.28"/><path id="kvg:061fc-s8" kvg:type="㇐a" d="M45.59 40.97c3.42-.19 12.27-1.45 16.12-1.45"/></g><g id="kvg:061fc-g5" kvg:element="目" kvg:position="right"><path id="kvg:061fc-s9" kvg:type="㇑" d="M71.95 13.25c.27.68.67 1.18.67 2.09.0.9-.18 25.34-.18 25.79"/><path id="kvg:061fc-s10" kvg:type="㇕a" d="M72.53 14.13c1.54-.11 13.84-1.76 15.25-1.89 1.17-.11 2.09.63 2 1.47-.12 1.06-.27 21.89-.27 25.99"/><path id="kvg:061fc-s11" kvg:type="㇐a" d="M73.05 22.66c3.04-.15 13.8-1.44 16.27-1.44"/><path id="kvg:061fc-s12" kvg:type="㇐a" d="M73.17 30.77c4.09-.38 11.99-1.35 15.96-1.35"/><path id="kvg:061fc-s13" kvg:type="㇐a" d="M72.76 39.11c3.51-.2 12.61-1.01 16.58-1.01"/></g></g><g id="kvg:061fc-g6" kvg:element="隹" kvg:position="bottom"><g id="kvg:061fc-g7" kvg:element="亻" kvg:variant="true" kvg:original="人"><path id="kvg:061fc-s14" kvg:type="㇒" d="M54.47 45.7c.2 1.19-.06 2.74-.69 3.76-4.06 6.49-9.21 11.97-18.52 19.87"/><path id="kvg:061fc-s15" kvg:type="㇑" d="M49.14 58.52c.7.58 1.23 1.87 1.28 2.78.42 8.1-.57 32.48-.22 36.7"/></g><path id="kvg:061fc-s16" kvg:type="㇒" d="M73.15 46.69c.08.52-.02 1.2-.27 1.65-1.57 2.84-3.57 5.03-7.17 8.49"/><path id="kvg:061fc-s17" kvg:type="㇐b" d="M50.22 59.72c8.1-.76 36.45-2.49 39.92-2.91"/><path id="kvg:061fc-s18" kvg:type="㇑a" d="M68.04 59.64c.39.3 1.2 1.71 1.2 2.23.0 5.25.04 23.05-.19 31.32"/><path id="kvg:061fc-s19" kvg:type="㇐b" d="M51.3 70.66c7.65-.63 32.81-1.98 36.09-2.33"/><path id="kvg:061fc-s20" kvg:type="㇐b" d="M50.38 81.81c8.07-.53 33.89-1.61 37.35-1.91"/><path id="kvg:061fc-s21" kvg:type="㇐b" d="M50.38 94.95c8.1-.76 39.4-2.21 42.87-2.62"/></g></g></g></g></svg>