<svg xmlns="http://www.w3.org/2000/svg" width="109" height="109" viewBox="0 0 109 109"><g id="kvg:StrokePaths_0620e" style="fill:none;stroke:#000000;stroke-width:3;stroke-linecap:round;stroke-linejoin:round;"><g id="kvg:0620e" kvg:element="戎"><g id="kvg:0620e-g1" kvg:element="戈" kvg:part="1" kvg:position="kamae" kvg:radical="general"><g id="kvg:0620e-g2" kvg:element="弋" kvg:part="1"><path id="kvg:0620e-s1" kvg:type="㇐" d="M16.25 35.95c4.41.75 8.79.51 13.24-.06 18.89-2.39 33.3-4.27 47.03-5.58 5.37-.52 9.98-.64 15.23.48"/></g></g><g id="kvg:0620e-g3" kvg:element="十" kvg:variant="true" kvg:position="kamaec"><path id="kvg:0620e-s2" kvg:type="㇐" d="M19.5 64.83c.88.67 2.68 1 3.77.64 9.73-3.22 20.17-6.63 27.48-9.1"/><path id="kvg:0620e-s3" kvg:type="㇒" d="M37.45 42c1.09 1.09 1.18 2.57 1.18 4.37.0 16.44.62 36.13-17.82 48.35"/></g><g id="kvg:0620e-g4" kvg:element="戈" kvg:part="2" kvg:position="kamae" kvg:radical="general"><g id="kvg:0620e-g5" kvg:element="弋" kvg:part="2"><path id="kvg:0620e-s4" kvg:type="㇂" d="M53 11c1.38 1.5 1.82 2.99 2.06 5.9 2.81 34.35 13.4 64.03 33.97 76.06 6.6 3.86 5.42.77 4.58-7.17"/></g><g id="kvg:0620e-g6" kvg:element="丿"><path id="kvg:0620e-s5" kvg:type="㇒" d="M80.47 42.64c.09 1.15-.12 3.03-.68 4.64-4.54 12.97-14.54 31.35-31.98 45.19"/></g><g id="kvg:0620e-g7" kvg:element="弋" kvg:part="3"><g id="kvg:0620e-g8" kvg:element="丶"><path id="kvg:0620e-s6" kvg:type="㇔" d="M72.25 11c3.18 2 8.52 6.82 10 10.25"/></g></g></g></g></g></svg>