<svg xmlns="http://www.w3.org/2000/svg" width="109" height="109" viewBox="0 0 109 109"><g id="kvg:StrokePaths_0621b"><g id="kvg:0621b" kvg:element="戛"><g id="kvg:0621b-g1" kvg:position="top"><g id="kvg:0621b-g2" kvg:element="一" kvg:radical="nelson"><path id="kvg:0621b-s1" kvg:type="㇐" d="M21 13.29c2.61.59 5.23.66 7.89.51 13.86-.8 35.14-1.63 48.86-2.57C80.5 11.04 83.38 11 86 11.55"/></g><g id="kvg:0621b-g3" kvg:element="自"><path id="kvg:0621b-s2" kvg:type="㇒" d="M51.12 15.38c.25 1.12-.23 1.78-.8 2.54-1.7 2.21-2.82 3.09-5.2 5.46"/><g id="kvg:0621b-g4" kvg:element="目"><path id="kvg:0621b-s3" kvg:type="㇑" d="M32 24.07c.59.64 1.15 2.12 1.21 2.98.23 3.57.81 14.65 1.22 21.83.11 2.01.21 3.72.28 4.87"/><path id="kvg:0621b-s4" kvg:type="㇕a" d="M34.2 25.34c3.35-.11 36.41-3.79 39.47-3.92 2.55-.11 4.33.83 4.34 3.39.0.87-.87 10.13-1.87 19.3-.2 1.85-.41 3.69-.61 5.46"/><path id="kvg:0621b-s5" kvg:type="㇐a" d="M34.62 33.62c8.36-.64 36.67-3.16 42.05-3.16"/><path id="kvg:0621b-s6" kvg:type="㇐a" d="M34.91 41.78c9.34-.78 31.71-3.03 40.87-3.35"/><path id="kvg:0621b-s7" kvg:type="㇐a" d="M35.23 50.09c8.77-.84 29.14-2.97 40.07-3.02"/></g></g></g><g id="kvg:0621b-g5" kvg:element="戈" kvg:position="bottom" kvg:radical="tradit"><g id="kvg:0621b-g6" kvg:element="弋" kvg:part="1"><path id="kvg:0621b-s8" kvg:type="㇐" d="M19.04 67.53c3.08.72 5.39.51 8.22.25 19.17-1.81 40.61-3.65 57.37-4.22 2.64-.09 5.37-.18 7.91.56"/><path id="kvg:0621b-s9" kvg:type="㇂" d="M49.88 54c1.24 1.12 2.23 3.08 2.61 5 3.32 16.82 13.7 32.95 33.53 39.24 6.58 2.09 6.47-.35 4.81-7.22"/></g><g id="kvg:0621b-g7" kvg:element="丿"><path id="kvg:0621b-s10" kvg:type="㇒" d="M75.28 68.45c.37 2.07-.78 3.55-2.56 5.01-8.43 6.9-24.12 17.38-49.92 25.89"/></g><g id="kvg:0621b-g8" kvg:element="弋" kvg:part="2"><g id="kvg:0621b-g9" kvg:element="丶"><path id="kvg:0621b-s11" kvg:type="㇔" d="M64.08 52.43c3.55 1.26 9.24 4.15 10.9 6.31"/></g></g></g></g></g></svg>