<svg xmlns="http://www.w3.org/2000/svg" width="109" height="109" viewBox="0 0 109 109"><g id="kvg:StrokePaths_0622e" style="fill:none;stroke:#000000;stroke-width:3;stroke-linecap:round;stroke-linejoin:round;"><g id="kvg:0622e" kvg:element="戮"><g id="kvg:0622e-g1" kvg:element="翏" kvg:position="left"><g id="kvg:0622e-g2" kvg:element="羽"><g id="kvg:0622e-g3" kvg:position="left"><path id="kvg:0622e-s1" kvg:type="㇆" d="M11.25 18.96c1.06.56 1.96.56 3.51.37 3.15-.38 12.15-1.41 13.11-1.46 2.16-.13 2.97.85 2.7 1.25-.26.38-.41 18.5-.41 23.81"/><path id="kvg:0622e-s2" kvg:type="㇀" d="M22.77 21.14c.03.28.06.72-.06 1.12C22 24.62 17.91 29.8 12.31 32.97"/><path id="kvg:0622e-s3" kvg:type="㇀" d="M26.52 29.89c.03.3.06.78-.06 1.21-.75 2.56-5.04 8.17-10.9 11.61"/></g><g id="kvg:0622e-g4" kvg:position="right"><path id="kvg:0622e-s4" kvg:type="㇆" d="M35.8 17c1.04.56 1.93.2 3.46.37 3.49.38 11.17-1.34 12.12-1.4 2.13-.13 2.93.85 2.66 1.24-.26.38-.4 21.67-.4 26.97"/><path id="kvg:0622e-s5" kvg:type="㇀" d="M46.28 19.89c.03.26.06.67-.05 1.05-.66 2.21-4.46 7.06-9.66 10.03"/><path id="kvg:0622e-s6" kvg:type="㇀" d="M51.02 28.14c.03.28.07.73-.07 1.14-.82 2.41-5.49 7.7-11.9 10.93"/></g></g><path id="kvg:0622e-s7" kvg:type="㇒" d="M36.21 44.25c.07.56.33 1.53-.15 2.25C32.68 51.6 24.78 60.17 9.71 68"/><path id="kvg:0622e-s8" kvg:type="㇏" d="M36.14 50.03c8.11 1.72 20.23 9.76 22.19 13.46"/><g id="kvg:0622e-g5" kvg:element="彡"><path id="kvg:0622e-s9" kvg:type="㇒" d="M39.31 56.5c.06.4.22 1.09-.12 1.62C37 61.58 29.63 68.3 18.78 73.02"/><path id="kvg:0622e-s10" kvg:type="㇒" d="M45.24 66.77c.08.41.27 1.13-.14 1.66-2.82 3.64-12.03 10.9-25.85 15.92"/><path id="kvg:0622e-s11" kvg:type="㇒" d="M51.02 77.38c.1.49.21 1.25-.19 1.95C48.51 83.45 35.14 92.47 16.84 98"/></g></g><g id="kvg:0622e-g6" kvg:element="戈" kvg:position="right" kvg:radical="general"><g id="kvg:0622e-g7" kvg:element="弋" kvg:part="1"><path id="kvg:0622e-s12" kvg:type="㇐" d="M59.25 40.77c1.04.32 2.95.46 3.98.32 7.98-1.04 18.45-2.99 27.76-4.98 1.3-.28 2.22-.17 3.09-.01"/><path id="kvg:0622e-s13" kvg:type="㇂" d="M68.49 13c1.16 1.78 1.35 2.28 1.59 6.11C72.11 51.19 80.74 79.5 93.2 94.47c3.81 4.58 3.91.76 3.33-7.13"/></g><g id="kvg:0622e-g8" kvg:element="丿"><path id="kvg:0622e-s14" kvg:type="㇒" d="M89.23 47.24c.1 1.03.44 2.75-.2 4.13C84 62.25 73.75 81 54.5 91.84"/></g><g id="kvg:0622e-g9" kvg:element="弋" kvg:part="2"><g id="kvg:0622e-g10" kvg:element="丶"><path id="kvg:0622e-s15" kvg:type="㇔" d="M82.24 18.21c2.48 1.98 6.44 6.5 7.59 9.89"/></g></g></g></g></g></svg>