<!DOCTYPE svg PUBLIC "-//W3C//DTD SVG 1.0//EN" "http://www.w3.org/TR/2001/REC-SVG-20010904/DTD/svg10.dtd" [
<!ATTLIST g
xmlns:kvg CDATA #FIXED "http://kanjivg.tagaini.net"
kvg:element CDATA #IMPLIED
kvg:variant CDATA #IMPLIED
kvg:partial CDATA #IMPLIED
kvg:original CDATA #IMPLIED
kvg:part CDATA #IMPLIED
kvg:number CDATA #IMPLIED
kvg:tradForm CDATA #IMPLIED
kvg:radicalForm CDATA #IMPLIED
kvg:position CDATA #IMPLIED
kvg:radical CDATA #IMPLIED
kvg:phon CDATA #IMPLIED >
<!ATTLIST path
xmlns:kvg CDATA #FIXED "http://kanjivg.tagaini.net"
kvg:type CDATA #IMPLIED >
]><svg xmlns="http://www.w3.org/2000/svg" width="109" height="109" viewBox="0 0 109 109"><g id="kvg:StrokePaths_0622a" style="fill:none;stroke:#000000;stroke-width:3;stroke-linecap:round;stroke-linejoin:round;"><g id="kvg:0622a" kvg:element="截"><g id="kvg:0622a-g1" kvg:element="𢦏" kvg:part="1" kvg:position="kamae"><g id="kvg:0622a-g2" kvg:element="十" kvg:radical="nelson"><path id="kvg:0622a-s1" kvg:type="㇐" d="M22.13 21.94c1.87.37 3.75.53 5.63.37 7.99-.66 16.86-1.09 23.87-1.43 1.67-.11 3.33-.07 5 .11"/><path id="kvg:0622a-s2" kvg:type="㇑" d="M39.42 11.87c.98.98 1.27 2.27 1.27 4.14.0 2 .14 14.87.14 18.86"/></g><g id="kvg:0622a-g3" kvg:element="戈" kvg:part="1" kvg:radical="tradit"><g id="kvg:0622a-g4" kvg:element="弋" kvg:part="1"><path id="kvg:0622a-s3" kvg:type="㇐" d="M15.88 35.73c3 .9 5.82.67 8.75.42 19.39-1.32 45.01-3.46 61.25-4.23 2.68-.25 5.35-.11 8.01.41"/></g></g></g><g id="kvg:0622a-g5" kvg:element="隹" kvg:position="kamaec"><g id="kvg:0622a-g6" kvg:element="亻" kvg:variant="true" kvg:original="人"><path id="kvg:0622a-s4" kvg:type="㇒" d="M27.74 41.5c.16 1.22-.04 2.81-.56 3.85-3.28 6.64-7.18 12-14.69 20.08"/><path id="kvg:0622a-s5" kvg:type="㇑" d="M22.57 55.19c.52.61.91 1.95.95 2.9.31 8.45-.42 33.26-.16 37.66"/></g><path id="kvg:0622a-s6" kvg:type="㇒" d="M44.99 38.75c.05.67-.01 1.56-.18 2.14-1.05 3.68-2.38 6.53-4.79 11.01"/><path id="kvg:0622a-s7" kvg:type="㇐b" d="M23.37 54.87c6-.8 33.32-2.61 35.89-3.05"/><path id="kvg:0622a-s8" kvg:type="㇑a" d="M39.67 56.27c.59.59.91 2.01.77 2.85-.02 6.28-.14 20.07-.14 29.15"/><path id="kvg:0622a-s9" kvg:type="㇐b" d="M24.42 67.02c5.66-.66 28.94-2.33 31.37-2.69"/><path id="kvg:0622a-s10" kvg:type="㇐b" d="M24.49 78.39c5.97-.56 29.04-2.68 31.61-2.99"/><path id="kvg:0622a-s11" kvg:type="㇐b" d="M24.24 90.61c6-.79 33.19-2.82 35.76-3.25"/></g><g id="kvg:0622a-g7" kvg:element="𢦏" kvg:part="2" kvg:position="kamae"><g id="kvg:0622a-g8" kvg:element="戈" kvg:part="2" kvg:radical="tradit"><g id="kvg:0622a-g9" kvg:element="弋" kvg:part="2"><path id="kvg:0622a-s12" kvg:type="㇂" d="M64 10c1.56 1.84 2.01 3.59 2.28 7.56 2.22 31.69 9.47 60.69 24.89 78.61 4.75 5.51 4.76.79 3.98-7.36"/></g><g id="kvg:0622a-g10" kvg:element="丿"><path id="kvg:0622a-s13" kvg:type="㇒" d="M86.72 44.89c.41 1.48.39 2.83-.17 5.01C83.61 61.25 74 84.29 57.56 98.47"/></g><g id="kvg:0622a-g11" kvg:element="弋" kvg:part="3"><g id="kvg:0622a-g12" kvg:element="丶"><path id="kvg:0622a-s14" kvg:type="㇔" d="M75.25 12.75C78.43 15 83.52 20.14 85 24"/></g></g></g></g></g></g><g id="kvg:StrokeNumbers_0622a" style="font-size:8;fill:#808080"><text transform="matrix(1 0 0 1 15.50 21.50)">1</text><text transform="matrix(1 0 0 1 30.50 11.50)">2</text><text transform="matrix(1 0 0 1 8.50 35.50)">3</text><text transform="matrix(1 0 0 1 19.50 45.90)">4</text><text transform="matrix(1 0 0 1 15.75 70.50)">5</text><text transform="matrix(1 0 0 1 36.75 43.50)">6</text><text transform="matrix(1 0 0 1 30.50 51.68)">7</text><text transform="matrix(1 0 0 1 44.50 60.50)">8</text><text transform="matrix(1 0 0 1 27.50 63.50)">9</text><text transform="matrix(1 0 0 1 26.50 74.50)">10</text><text transform="matrix(1 0 0 1 27.50 86.50)">11</text><text transform="matrix(1 0 0 1 51.50 9.50)">12</text><text transform="matrix(1 0 0 1 74.75 43.23)">13</text><text transform="matrix(1 0 0 1 72.50 9.50)">14</text></g></svg>