<svg xmlns="http://www.w3.org/2000/svg" width="109" height="109" viewBox="0 0 109 109"><g id="kvg:StrokePaths_06221" style="fill:none;stroke:#000000;stroke-width:3;stroke-linecap:round;stroke-linejoin:round;"><g id="kvg:06221" kvg:element="戡"><g id="kvg:06221-g1" kvg:element="甚" kvg:position="left"><g id="kvg:06221-g2" kvg:element="甘" kvg:position="top"><g id="kvg:06221-g3" kvg:element="廿" kvg:part="1"><g id="kvg:06221-g4" kvg:element="十"><path id="kvg:06221-s1" kvg:type="㇐" d="M13.78 27.14c1.8.66 3.63.87 5.48.61 6.79-.5 22.24-1.62 33.24-2.62 1.67-.15 3.59-.11 5.26.12"/><path id="kvg:06221-s2" kvg:type="㇑" d="M24.25 16.25c1.01 1.21 1.43 2.54 1.43 4 0 6.25-.02 38-.02 43.75"/></g><path id="kvg:06221-s3" kvg:type="㇑" d="M42.81 13.28c1.03 1.24 1.48 2.6 1.48 4.1.0 6 .06 38.13.06 44.33"/></g><path id="kvg:06221-s4" kvg:type="㇐" d="M26.69 39.37c2.5-.4 15.13-1.38 16.89-1.38"/><g id="kvg:06221-g5" kvg:element="廿" kvg:part="2"><path id="kvg:06221-s5" kvg:type="㇐" d="M26.69 51.3c4.44-.55 13.47-1.39 17-1.58"/></g></g><g id="kvg:06221-g6" kvg:element="匹" kvg:position="bottom"><g id="kvg:06221-g7" kvg:element="匚" kvg:part="1"><path id="kvg:06221-s6" kvg:type="㇐" d="M9.25 65.8c2.08.47 4.16.56 6.25.27 10.42-.85 26.78-3.04 37.12-3.93 2.05-.32 4.09-.24 6.12.24"/></g><g id="kvg:06221-g8" kvg:element="儿"><g id="kvg:06221-g9" kvg:element="八" kvg:variant="true"><g id="kvg:06221-g10" kvg:element="丿" kvg:position="left"><path id="kvg:06221-s7" kvg:type="㇒" d="M30.12 68.25c.5 1 .5 2.06.17 3.13-1.29 4.24-2.47 7.39-5.54 12.87"/></g><g id="kvg:06221-g11" kvg:position="right"><path id="kvg:06221-s8" kvg:type="㇟" d="M39.71 66.78c.57.88 1.05 1.91 1.05 3.26.0.83-.13 3.33-.13 5.06.0 4.89.49 6.39 6.63 6.39 4.24.0 5.52-.79 6.24-1.62"/></g></g></g><g id="kvg:06221-g12" kvg:element="匚" kvg:part="2"><path id="kvg:06221-s9" kvg:type="㇗" d="M17.56 68.64c.84 1.42 1.05 3.08 1.05 5.26.0 3.15-.08 6.77-.08 11.46.0 9.48 4.81 9.88 18.34 9.88 11.65.0 15.19-1.17 17.16-2.31"/></g></g></g><g id="kvg:06221-g13" kvg:element="戈" kvg:position="right" kvg:radical="general"><g id="kvg:06221-g14" kvg:element="弋" kvg:part="1"><path id="kvg:06221-s10" kvg:type="㇐" d="M53.5 38.31c2.01.39 4.01.43 6.01.13 8.3-.92 18.41-2.45 27.89-4.05 1.7-.38 3.43-.48 5.17-.3"/><path id="kvg:06221-s11" kvg:type="㇂" d="M66.74 11.5c.88 1 1.63 2.5 1.86 5.53 2.55 34.22 9.15 59.72 23.33 78.15 3.7 4.8 3.95.79 3.36-7.32"/></g><g id="kvg:06221-g15" kvg:element="丿"><path id="kvg:06221-s12" kvg:type="㇔" d="M81.24 13.46c5.51 3.42 9.4 6.67 11.09 10.14"/></g><g id="kvg:06221-g16" kvg:element="弋" kvg:part="2"><g id="kvg:06221-g17" kvg:element="丶"><path id="kvg:06221-s13" kvg:type="㇒" d="M89.75 46.24c.09.96-.2 2.53-.68 3.85C85.75 59.25 75.5 78 57.75 87.34"/></g></g></g></g></g></svg>