<svg xmlns="http://www.w3.org/2000/svg" width="109" height="109" viewBox="0 0 109 109"><g id="kvg:StrokePaths_0624b" style="fill:none;stroke:#000000;stroke-width:3;stroke-linecap:round;stroke-linejoin:round;"><g id="kvg:0624b" kvg:element="手" kvg:radical="general"><path id="kvg:0624b-s1" kvg:type="㇒" d="M61.48 11.5c.02 1-.61 1.88-1.67 2.9-3.27 3.15-13.69 8.23-28.57 11.85"/><path id="kvg:0624b-s2" kvg:type="㇐" d="M26.38 42.92c1.8.46 3.61.67 5.68.38C46 41.38 58.4 39 71.37 37.75c1.92-.19 4.62-.38 7.25.04"/><path id="kvg:0624b-s3" kvg:type="㇐" d="M13.27 62.87c2.71.63 4.86.6 7.22.38 22.63-2.12 46.13-5.62 67.7-7 2.01-.13 4.83.0 7.46.37"/><path id="kvg:0624b-s4" kvg:type="㇁" d="M48.88 23.55C60.38 31 62.73 63.66 57.83 89.87c-2.08 11.13-8.64 2.34-9.89 1.17"/></g></g></svg>