<!DOCTYPE svg PUBLIC "-//W3C//DTD SVG 1.0//EN" "http://www.w3.org/TR/2001/REC-SVG-20010904/DTD/svg10.dtd" [
<!ATTLIST g
xmlns:kvg CDATA #FIXED "http://kanjivg.tagaini.net"
kvg:element CDATA #IMPLIED
kvg:variant CDATA #IMPLIED
kvg:partial CDATA #IMPLIED
kvg:original CDATA #IMPLIED
kvg:part CDATA #IMPLIED
kvg:number CDATA #IMPLIED
kvg:tradForm CDATA #IMPLIED
kvg:radicalForm CDATA #IMPLIED
kvg:position CDATA #IMPLIED
kvg:radical CDATA #IMPLIED
kvg:phon CDATA #IMPLIED >
<!ATTLIST path
xmlns:kvg CDATA #FIXED "http://kanjivg.tagaini.net"
kvg:type CDATA #IMPLIED >
]><svg xmlns="http://www.w3.org/2000/svg" width="109" height="109" viewBox="0 0 109 109"><g id="kvg:StrokePaths_06249" style="fill:none;stroke:#000000;stroke-width:3;stroke-linecap:round;stroke-linejoin:round;"><g id="kvg:06249" kvg:element="扉"><g id="kvg:06249-g1" kvg:element="戸" kvg:position="tare" kvg:radical="general"><path id="kvg:06249-s1" kvg:type="㇐" d="M23.38 14.73c2.32.73 5.13.33 7.5.18 11.1-.7 28.88-2.71 41.75-3.21 2.65-.1 5.38-.22 8 .27"/><path id="kvg:06249-s2" kvg:type="㇕c" d="M22.35 29.13c2.56.83 4.75.81 7.4.52 12.86-1.39 39.32-3.27 46.25-3.9 1.99-.18 4.07 1.27 3.25 4C78.5 32.25 78 34.5 77 38"/><path id="kvg:06249-s3" kvg:type="㇐b" d="M25.75 43.5c9.75-.75 30-2.88 46.52-4.21 2.95-.24 5.38-.29 6.98-.29"/><path id="kvg:06249-s4" kvg:type="㇒" d="M23.81 29.93c1.07 1.07 1.27 2.26 1.28 4.37.11 26.55-1.84 45.45-13.34 57.45"/></g><g id="kvg:06249-g2" kvg:element="非" kvg:position="tarec" kvg:phon="非"><g id="kvg:06249-g3" kvg:position="left"><path id="kvg:06249-s5" kvg:type="㇓" d="M49.74 47.79c.8.8 1.18 1.96 1.2 3.01C51.38 81.12 49.38 90 36.95 1e2"/><path id="kvg:06249-s6" kvg:type="㇐c" d="M30.85 57.6c1.28.53 2.57.79 3.54.75 2.61-.1 10.74-1.47 15.6-2.07"/><path id="kvg:06249-s7" kvg:type="㇐c" d="M31.78 70.05c1.22.45 3.33.66 4.29.5s11.5-1.66 14.06-2.14"/><path id="kvg:06249-s8" kvg:type="㇀" d="M27.12 85.65c.96 1.09 1.95 1.03 3.62.58 6.77-1.85 10.14-2.85 17.6-4.98"/></g><g id="kvg:06249-g4" kvg:position="right"><path id="kvg:06249-s9" kvg:type="㇑" d="M63.45 46.25c1.02 1.02 1.25 2.12 1.25 3.29.0.5.05 27.39-.05 41.96-.03 4.28.0 7.11-.04 8"/><path id="kvg:06249-s10" kvg:type="㇐b" d="M66.58 55.42c2.25-.18 10.44-1.22 14.95-1.75 1.46-.17 2.85-.3 4.32-.19"/><path id="kvg:06249-s11" kvg:type="㇐b" d="M66.32 68.25c2.25-.18 10.49-1.08 14.83-1.65 1.45-.19 3.06-.21 4.51-.21"/><path id="kvg:06249-s12" kvg:type="㇐b" d="M66.49 81.36c2.3-.19 12.41-1.22 17.4-1.72 1.54-.16 2.86-.14 4.25.1"/></g></g></g></g><g id="kvg:StrokeNumbers_06249" style="font-size:8;fill:#808080"><text transform="matrix(1 0 0 1 26.25 11.50)">1</text><text transform="matrix(1 0 0 1 26.25 26.50)">2</text><text transform="matrix(1 0 0 1 30.75 40.48)">3</text><text transform="matrix(1 0 0 1 15.75 36.13)">4</text><text transform="matrix(1 0 0 1 41.50 51.50)">5</text><text transform="matrix(1 0 0 1 30.75 54.05)">6</text><text transform="matrix(1 0 0 1 30.75 67.50)">7</text><text transform="matrix(1 0 0 1 21.75 93.50)">8</text><text transform="matrix(1 0 0 1 56.25 52.50)">9</text><text transform="matrix(1 0 0 1 68.50 51.50)">10</text><text transform="matrix(1 0 0 1 68.76 64.55)">11</text><text transform="matrix(1 0 0 1 68.57 77.98)">12</text></g></svg>