<svg xmlns="http://www.w3.org/2000/svg" width="109" height="109" viewBox="0 0 109 109"><g id="kvg:StrokePaths_0625b" style="fill:none;stroke:#000000;stroke-width:3;stroke-linecap:round;stroke-linejoin:round;"><g id="kvg:0625b" kvg:element="扛"><g id="kvg:0625b-g1" kvg:element="扌" kvg:variant="true" kvg:original="手" kvg:position="left" kvg:radical="general"><path id="kvg:0625b-s1" kvg:type="㇐" d="M13.5 35.02c1.5.73 3.01 1.13 5.68.83 7.57-.84 16.03-1.78 26.98-3.31"/><path id="kvg:0625b-s2" kvg:type="㇚" d="M31.63 11c.52.98 1.79 2.66 1.88 5.89.43 15.55.26 67.23.26 72.52.0 15.22-6.76 3.77-8.29 2.14"/><path id="kvg:0625b-s3" kvg:type="㇀" d="M12 65.72c1.5 1.03 3.75 2.03 6.25.53 2.04-1.23 18.46-9.44 27.5-14.58"/></g><g id="kvg:0625b-g2" kvg:element="工" kvg:position="right"><path id="kvg:0625b-s4" kvg:type="㇐" d="M50.5 26.97c.95.52 4.03.53 5 .53 6.25.0 28-2.75 35.5-3.29 1.46-.11 2.79.1 4 .54"/><path id="kvg:0625b-s5" kvg:type="㇑a" d="M70.08 28.75c.85 2.83.85 4.53.85 6.8.0 15.86-.02 23.51-.02 50.7"/><path id="kvg:0625b-s6" kvg:type="㇐" d="M43.25 87.59c.92.38 4.2.77 5.75.6 16.75-1.84 29-2.74 44.25-3.3 2.5-.09 5.5.63 6.75 1.22"/></g></g></g></svg>