<svg xmlns="http://www.w3.org/2000/svg" width="109" height="109" viewBox="0 0 109 109"><g id="kvg:StrokePaths_0626e" style="fill:none;stroke:#000000;stroke-width:3;stroke-linecap:round;stroke-linejoin:round;"><g id="kvg:0626e" kvg:element="扮"><g id="kvg:0626e-g1" kvg:element="扌" kvg:variant="true" kvg:original="手" kvg:position="left" kvg:radical="general"><path id="kvg:0626e-s1" kvg:type="㇐" d="M11 37.42c2.08.25 1.27.55 3.5.25 5.5-.75 15.5-2 24.67-3.17"/><path id="kvg:0626e-s2" kvg:type="㇚" d="M26.27 14c.48.92 1.67 2.49 1.76 5.52.4 14.55.24 60.94.24 65.9.0 14.25-6.32 3.53-7.77 2"/><path id="kvg:0626e-s3" kvg:type="㇀" d="M11 66.64c2.62 2.26 4.31 1.22 6.94-.71 1.55-1.14 11-8.79 17.56-14.27"/></g><g id="kvg:0626e-g2" kvg:element="分" kvg:position="right"><g id="kvg:0626e-g3" kvg:element="八" kvg:position="top"><path id="kvg:0626e-s4" kvg:type="㇒" d="M57.77 25.02c.28.85-.06 1.81-.39 2.87C54.67 36.63 49 46.25 41.35 53.5"/><path id="kvg:0626e-s5" kvg:type="㇏" d="M66.09 18.5c7.92 3.16 17.52 22.68 24.12 27.74 2.55 1.96 3.47 3.01 5.94 3.64"/></g><g id="kvg:0626e-g4" kvg:element="刀" kvg:position="bottom"><path id="kvg:0626e-s6" kvg:type="㇆" d="M48.73 55.57c1.16.51 2.61.45 3.62.28 8.24-1.43 22.91-3.84 27.48-4.37 2.97-.34 4.29 1.03 4.13 3.44-.44 6.35-5.63 28.1-9.37 35.5-3.34 6.59-6.09.84-7.43-1.01"/><path id="kvg:0626e-s7" kvg:type="㇒" d="M62.53 56.75c.06.79.22 2.08-.13 3.18-3.92 12.22-9.37 22.41-22.2 32.32"/></g></g></g></g></svg>