<svg xmlns="http://www.w3.org/2000/svg" width="109" height="109" viewBox="0 0 109 109"><g id="kvg:StrokePaths_06263" style="fill:none;stroke:#000000;stroke-width:3;stroke-linecap:round;stroke-linejoin:round;"><g id="kvg:06263" kvg:element="扣"><g id="kvg:06263-g1" kvg:element="扌" kvg:variant="true" kvg:original="手" kvg:position="left" kvg:radical="general"><path id="kvg:06263-s1" kvg:type="㇐" d="M14 36.75C16.08 37 16.77 37.3 19 37c5.5-.75 19-2.5 28.17-3.67"/><path id="kvg:06263-s2" kvg:type="㇚" d="M32.27 12.33c.48.92 1.76 2.49 1.76 5.52.0 16.9-.25 68.66-.26 73.62-.02 8.53-3.02 5.53-7.71 1.25"/><path id="kvg:06263-s3" kvg:type="㇀" d="M12.5 66.82c2.77 1.66 3.05 1.9 5.82.48C19.95 66.46 36.58 57.02 43.5 53"/></g><g id="kvg:06263-g2" kvg:element="口" kvg:position="right"><path id="kvg:06263-s4" kvg:type="㇑" d="M54.25 29.76c.75.74 1.59 1.93 1.72 3.25C56.99 43.45 57.2 72.25 57.89 91"/><path id="kvg:06263-s5" kvg:type="㇕b" d="M56.32 31.7c9.93-1.2 24.93-3.2 31.66-3.69 2.15-.16 3.88 1.7 3.58 4.39-1.25 11.1-3.21 37.51-5.07 52.86"/><path id="kvg:06263-s6" kvg:type="㇐b" d="M58.13 87.66c8.25-.42 19.14-1.63 30.47-2.27"/></g></g></g></svg>