<svg xmlns="http://www.w3.org/2000/svg" width="109" height="109" viewBox="0 0 109 109"><g id="kvg:StrokePaths_06271" style="fill:none;stroke:#000000;stroke-width:3;stroke-linecap:round;stroke-linejoin:round;"><g id="kvg:06271" kvg:element="扱"><g id="kvg:06271-g1" kvg:element="扌" kvg:variant="true" kvg:original="手" kvg:position="left" kvg:radical="general"><path id="kvg:06271-s1" kvg:type="㇐" d="M13.5 39.42c1.89.23 3.55.5 5.5.23 4.92-.68 13.36-1.95 20.46-2.93 1.16-.16 2.16-.33 3.45-.21"/><path id="kvg:06271-s2" kvg:type="㇚" d="M28.77 16c.99.99 1.51 2.75 1.51 4.77.0 15.23-.01 53.46-.01 64.9.0 14.25-6.32 3.53-7.77 2"/><path id="kvg:06271-s3" kvg:type="㇀" d="M13.61 64.77c1.1.74 2.64.83 4.08-.15 4.19-2.87 8.06-5.62 20.06-14.2"/></g><g id="kvg:06271-g2" kvg:element="及" kvg:position="right" kvg:phon="及"><g id="kvg:06271-g3" kvg:element="丿"><path id="kvg:06271-s4" kvg:type="㇒" d="M54.92 32.52c.58 1.35.6 2.75.35 4.54-1.88 13.31-5.92 35.13-18.98 48.53"/></g><g id="kvg:06271-g4" kvg:element="又" kvg:variant="true"><path id="kvg:06271-s5" kvg:type="㇋" d="M43.6 27.85c2.53.65 4.57.68 7.48.02 7.8-1.75 14.05-3.37 20.08-5 4.61-1.24 6.28.03 4.79 3.98-9.7 25.77-13.33 21.64 4.45 18.01 2.94-.6 4.34 1.26 3.46 3.48C76.07 67.85 65.5 84 45.66 91.62"/><path id="kvg:06271-s6" kvg:type="㇏" d="M51.98 59.88C58.28 65.4 74.74 81.72 83.52 89c2.86 2.37 5.73 4 8.83 5.23"/></g></g></g></g></svg>