<!DOCTYPE svg PUBLIC "-//W3C//DTD SVG 1.0//EN" "http://www.w3.org/TR/2001/REC-SVG-20010904/DTD/svg10.dtd" [
<!ATTLIST g
xmlns:kvg CDATA #FIXED "http://kanjivg.tagaini.net"
kvg:element CDATA #IMPLIED
kvg:variant CDATA #IMPLIED
kvg:partial CDATA #IMPLIED
kvg:original CDATA #IMPLIED
kvg:part CDATA #IMPLIED
kvg:number CDATA #IMPLIED
kvg:tradForm CDATA #IMPLIED
kvg:radicalForm CDATA #IMPLIED
kvg:position CDATA #IMPLIED
kvg:radical CDATA #IMPLIED
kvg:phon CDATA #IMPLIED >
<!ATTLIST path
xmlns:kvg CDATA #FIXED "http://kanjivg.tagaini.net"
kvg:type CDATA #IMPLIED >
]><svg xmlns="http://www.w3.org/2000/svg" width="109" height="109" viewBox="0 0 109 109"><g id="kvg:StrokePaths_0628a" style="fill:none;stroke:#000000;stroke-width:3;stroke-linecap:round;stroke-linejoin:round;"><g id="kvg:0628a" kvg:element="把"><g id="kvg:0628a-g1" kvg:element="扌" kvg:variant="true" kvg:original="手" kvg:position="left" kvg:radical="general"><path id="kvg:0628a-s1" kvg:type="㇐" d="M14.75 38.17c2.08.25 3.27.3 5.5.0 4.72-.64 10.77-1.78 18.75-2.89 1.31-.18 2.75-.4 4.16-.27"/><path id="kvg:0628a-s2" kvg:type="㇚" d="M29.27 14.25c1.18 1.18 1.51 2.75 1.51 5.02.0 15.23-.01 55.71-.01 67.15.0 14.25-6.32 3.53-7.77 2"/><path id="kvg:0628a-s3" kvg:type="㇀" d="M13.5 68.18c1.12 1.2 2.12 1.07 4-.18 5.01-3.34 9.5-6.5 20.75-14.58"/></g><g id="kvg:0628a-g2" kvg:element="巴" kvg:position="right" kvg:phon="巴"><g id="kvg:0628a-g3" kvg:element="己" kvg:original="巳"><path id="kvg:0628a-s4" kvg:type="㇕" d="M50.71 25.87c1.17.88 3.24.75 4.54.59 8.88-1.09 25.58-3.1 32.45-3.69 3.18-.28 4.68 1.85 4.44 3.88-.79 6.62-1.22 12.11-2.55 20.14-.25 1.48-.52 3.04-.83 4.72"/><path id="kvg:0628a-s5" kvg:type="㇑a" d="M69.95 26.6c.91.91 1 1.89.92 3.44-.37 6.71-.62 13.83-.85 18.89"/><path id="kvg:0628a-s6" kvg:type="㇐a" d="M54.24 51.77c6.38-.54 27.18-2.24 33.38-2.52"/><path id="kvg:0628a-s7" kvg:type="㇟" d="M52.03 27.3c.77.77 1.03 1.82 1.03 3.41.0 8.63-.03 32.57-.03 38.4.0 19.94 1.47 20.68 21.02 20.68 20.21.0 20.53-1.92 20.53-12.42"/></g></g></g></g><g id="kvg:StrokeNumbers_0628a" style="font-size:8;fill:#808080"><text transform="matrix(1 0 0 1 8.50 38.50)">1</text><text transform="matrix(1 0 0 1 20.50 15.13)">2</text><text transform="matrix(1 0 0 1 5.50 72.50)">3</text><text transform="matrix(1 0 0 1 54.75 23.50)">4</text><text transform="matrix(1 0 0 1 63.75 34.50)">5</text><text transform="matrix(1 0 0 1 57.75 48.05)">6</text><text transform="matrix(1 0 0 1 45.75 33.50)">7</text></g></svg>