<svg xmlns="http://www.w3.org/2000/svg" width="109" height="109" viewBox="0 0 109 109"><g id="kvg:StrokePaths_06289" style="fill:none;stroke:#000000;stroke-width:3;stroke-linecap:round;stroke-linejoin:round;"><g id="kvg:06289" kvg:element="抉"><g id="kvg:06289-g1" kvg:element="扌" kvg:variant="true" kvg:original="手" kvg:position="left" kvg:radical="general"><path id="kvg:06289-s1" kvg:type="㇐" d="M12.5 38.75c2.08.25 1.25.25 3.5.25 4.26.0 16-2 25.17-3.17"/><path id="kvg:06289-s2" kvg:type="㇚" d="M28.77 15.33c.48.92 1.67 2.49 1.76 5.52.4 14.55-.26 60.16-.26 65.12.0 14.78-6.21 3-7.71 1.75"/><path id="kvg:06289-s3" kvg:type="㇀" d="M10.5 64.9c2.29 1.51 3.76.82 6.05-.47 1.35-.76 19.22-12.03 24.95-15.68"/></g><g id="kvg:06289-g2" kvg:element="夬" kvg:position="right"><path id="kvg:06289-s4" kvg:type="㇕c" d="M47.63 34.61c1.2.58 2.59 1.16 4.39.96 1.79-.19 25.27-3.57 27.67-3.68 3.06-.14 3.8 1.75 3.17 5.06C82 41.5 81.25 48.5 80.33 54.75"/><g id="kvg:06289-g3" kvg:element="大"><path id="kvg:06289-s5" kvg:type="㇐" d="M39.62 58.03c.85.42 3.01.66 3.94.59 14.18-1.12 34.16-4.04 48.36-4.44 1.17-.03 2.84.16 5.46.89"/><g id="kvg:06289-g4" kvg:element="人"><path id="kvg:06289-s6" kvg:type="㇒" d="M62.59 11.75c.55 1 1.58 2.08 1.58 4.17.0 8.89-.29 19.12-.19 25.84.41 27.02-10.67 46.49-26 55.49"/><path id="kvg:06289-s7" kvg:type="㇏" d="M63.55 56.96c6.77 9.16 20.55 28.66 27.31 34.79 2.3 2.09 3.1 2.4 4.15 2.59"/></g></g></g></g></g></svg>