<svg xmlns="http://www.w3.org/2000/svg" width="109" height="109" viewBox="0 0 109 109"><g id="kvg:StrokePaths_06294" style="fill:none;stroke:#000000;stroke-width:3;stroke-linecap:round;stroke-linejoin:round;"><g id="kvg:06294" kvg:element="抔"><g id="kvg:06294-g1" kvg:element="扌" kvg:variant="true" kvg:original="手" kvg:position="left" kvg:radical="general"><path id="kvg:06294-s1" kvg:type="㇐" d="M12 37.39c2.32.27 1.42.59 3.9.27 6.13-.8 17.29-2.66 27.51-3.9"/><path id="kvg:06294-s2" kvg:type="㇚" d="M29.27 13.5c.48.92 1.67 2.49 1.76 5.52.4 14.55.24 62.94.24 67.9.0 14.25-6.82 4.53-8.27 3"/><path id="kvg:06294-s3" kvg:type="㇀" d="M11 65.16c2.49 1.35 4.09.74 6.58-.43 1.47-.69 20.44-10.77 26.67-14.06"/></g><g id="kvg:06294-g2" kvg:element="不" kvg:position="right"><g id="kvg:06294-g3" kvg:element="一"><path id="kvg:06294-s4" kvg:type="㇐" d="M45.47 20.61c1.25.6 3.53.74 4.79.6 11.95-1.42 28.31-2.33 42.03-3.42 2.08-.16 3.33.28 4.37.58"/></g><g id="kvg:06294-g4" kvg:element="丿"><path id="kvg:06294-s5" kvg:type="㇒" d="M72.06 22.91c.08.95.41 2.53-.17 3.81C68 35.25 56.75 52 41.87 63.17"/></g><g id="kvg:06294-g5" kvg:element="丨"><path id="kvg:06294-s6" kvg:type="㇑" d="M67.75 41.5c2 1.25 2.64 3 2.64 5.12.0 4.63-.16 33.38-.16 49.88"/></g><path id="kvg:06294-s7" kvg:type="㇔" d="M79.39 42.75c5.73 3.21 14.8 13.2 16.24 18.2"/></g></g></g></svg>