<svg xmlns="http://www.w3.org/2000/svg" width="109" height="109" viewBox="0 0 109 109"><g id="kvg:StrokePaths_06296"><g id="kvg:06296" kvg:element="抖"><g id="kvg:06296-g1" kvg:element="扌" kvg:variant="true" kvg:original="手" kvg:position="left" kvg:radical="general"><path id="kvg:06296-s1" kvg:type="㇐" d="M12.5 34.89c2.51.27 2.53.59 5.21.27 6.62-.8 17.66-2.66 28.7-3.9"/><path id="kvg:06296-s2" kvg:type="㇚" d="M30.77 13.5c.48.92 1.67 2.49 1.76 5.52.4 14.55.24 62.94.24 67.9.0 14.25-5.82 4.53-7.27 3"/><path id="kvg:06296-s3" kvg:type="㇀" d="M15 62.8c1.72 1.65 2.19 2.12 4.57.88 1.91-1 17.58-9.21 25.68-14.01"/></g><g id="kvg:06296-g2" kvg:element="斗" kvg:position="right"><g id="kvg:06296-g3" kvg:element="丶"><path id="kvg:06296-s4" kvg:type="㇔" d="M56.25 22c3.44 1.41 8.89 5.8 9.75 8"/></g><g id="kvg:06296-g4" kvg:element="丶"><path id="kvg:06296-s5" kvg:type="㇔" d="M54.25 42.75c3.62 1.5 9.34 6.17 10.25 8.5"/></g><path id="kvg:06296-s6" kvg:type="㇐" d="M47.75 68.25c.65.25 2.4.93 4.13.75C59 68.25 84 63 94.24 63c1.74.0 2.18-.25 3.26.0"/><path id="kvg:06296-s7" kvg:type="㇑" d="M78.87 11.25c1.09.5 1.74 2.25 1.96 3.25s0 75.75-.22 82"/></g></g></g></svg>