<svg xmlns="http://www.w3.org/2000/svg" width="109" height="109" viewBox="0 0 109 109"><g id="kvg:StrokePaths_062c5" style="fill:none;stroke:#000000;stroke-width:3;stroke-linecap:round;stroke-linejoin:round;"><g id="kvg:062c5" kvg:element="担"><g id="kvg:062c5-g1" kvg:element="扌" kvg:variant="true" kvg:original="手" kvg:position="left" kvg:radical="general"><path id="kvg:062c5-s1" kvg:type="㇐" d="M13 38.42c2 .46 3.58.27 5.62.08 5.95-.57 13.4-2.12 20.91-3.21 1.33-.19 2.71-.28 3.88-.28"/><path id="kvg:062c5-s2" kvg:type="㇚" d="M29.27 15.25c1.12 1.12 1.51 2.75 1.51 5.27.0 15.23-.01 54.46-.01 65.9.0 14.25-6.32 3.53-7.77 2"/><path id="kvg:062c5-s3" kvg:type="㇀" d="M13.75 68.88c1 .88 2.5 1 4-.12 4.82-3.61 11-8.5 23-17.25"/></g><g id="kvg:062c5-g2" kvg:element="旦" kvg:position="right" kvg:phon="旦"><g id="kvg:062c5-g3" kvg:element="日" kvg:position="top"><path id="kvg:062c5-s4" kvg:type="㇑" d="M52.06 23.16c.76.76 1.26 1.92 1.26 3.41.0 2.87-.04 30-.07 41.68-.01 3.59-.01 5.72-.01 5.25"/><path id="kvg:062c5-s5" kvg:type="㇕a" d="M54.42 24.85c2.86-.19 24.33-2.63 26.93-2.85 2.17-.19 3.39.75 3.39 3.16.0 3.17-.08 28.55-.11 40.72-.01 2.58-.01 4.57-.01 5.62"/><path id="kvg:062c5-s6" kvg:type="㇐a" d="M54.67 46.64c5.45-.39 24.61-2.11 28.98-2.11"/><path id="kvg:062c5-s7" kvg:type="㇐a" d="M54.42 70.1c9.96-1.1 20.58-2.35 28.9-2.74"/></g><g id="kvg:062c5-g4" kvg:element="一" kvg:position="bottom"><path id="kvg:062c5-s8" kvg:type="㇐" d="M41.8 88.81c2.82.57 5.33.26 7.7.07 12.75-1 29.49-1.98 40.88-2.27 2.44-.06 4.93.06 7.32.64"/></g></g></g></g></svg>