<svg xmlns="http://www.w3.org/2000/svg" width="109" height="109" viewBox="0 0 109 109"><g id="kvg:StrokePaths_062c9" style="fill:none;stroke:#000000;stroke-width:3;stroke-linecap:round;stroke-linejoin:round;"><g id="kvg:062c9" kvg:element="拉"><g id="kvg:062c9-g1" kvg:element="扌" kvg:variant="true" kvg:original="手" kvg:position="left" kvg:radical="general"><path id="kvg:062c9-s1" kvg:type="㇐" d="M12 37.92c2.08.25 1.27.55 3.5.25 5.5-.75 15.5-2.5 24.67-3.67"/><path id="kvg:062c9-s2" kvg:type="㇚" d="M26.77 14c.48.92 1.76 2.49 1.76 5.52.0 15.23.24 56.46.24 67.9.0 14.25-6.32 3.53-7.77 2"/><path id="kvg:062c9-s3" kvg:type="㇀" d="M11 65.52c1.25 1.48 3.24 2.35 6 .98 1.63-.81 15.25-10 23.25-15.58"/></g><g id="kvg:062c9-g2" kvg:element="立" kvg:position="right"><g id="kvg:062c9-g3" kvg:element="亠" kvg:position="top"><path id="kvg:062c9-s4" kvg:type="㇑a" d="M66.25 15.75c1 .75 1.5.75 1.5 2.5s0 14.25.0 19"/><path id="kvg:062c9-s5" kvg:type="㇐" d="M44.84 39.37c1.14.24 3.48.82 4.62.74 8.04-.61 27.79-2.36 39.72-3.85 1.89-.24 3.04.11 4 .23"/></g><g id="kvg:062c9-g4" kvg:position="bottom"><path id="kvg:062c9-s6" kvg:type="㇔" d="M53.92 43.02c.58.48 1.55 1.96 1.69 2.96 2.14 15.52 2.43 31.83 2.73 40.68"/><path id="kvg:062c9-s7" kvg:type="㇒" d="M81.07 40.04c.75 1.39.84 2.1.75 3.25-.6 7.89-4.07 30.72-6.14 42.97"/><path id="kvg:062c9-s8" kvg:type="㇐" d="M38 88.84c1.19.36 2.58.5 3.76.36 12.93-1.54 37.61-2.41 52.59-3.14 1.98-.1 3.17.17 4.16.35"/></g></g></g></g></svg>