<svg xmlns="http://www.w3.org/2000/svg" width="109" height="109" viewBox="0 0 109 109"><g id="kvg:StrokePaths_062cf"><g id="kvg:062cf" kvg:element="拏"><g id="kvg:062cf-g1" kvg:element="奴" kvg:position="top"><g id="kvg:062cf-g2" kvg:element="女" kvg:position="left"><path id="kvg:062cf-s1" kvg:type="㇛" d="M29.93 9.94c.38.81 1.06 2.14.86 3.24-.97 5.42-6.25 18.78-10.48 24.85-.87 1.24.36 1.99.86 2.04 9.83.93 18.44 4.7 24.1 9.99"/><path id="kvg:062cf-s2" kvg:type="㇒" d="M42.37 19.46c.07.84.12 2.86-.16 4.05C39.96 33.08 34 47 14.09 55.85"/><path id="kvg:062cf-s3" kvg:type="㇀/㇐" d="M11.75 27.58c.77 1.19 2.33 1.59 4.4 1.49 2.23-.11 22.64-3.39 31.87-5.48"/></g><g id="kvg:062cf-g3" kvg:element="又" kvg:position="right"><path id="kvg:062cf-s4" kvg:type="㇇" d="M55.99 18.21c1.26.24 1.4.44 3.93.24 5.82-.45 17.77-2.56 19.5-2.92s3.8 1.04 3.2 2.36C77.75 28.62 67 42.37 52.69 47.55"/><path id="kvg:062cf-s5" kvg:type="㇏" d="M55.77 25.31c3.4.56 20.03 15.45 31.89 21.56 1.84.95 3.19 1.58 4.91 1.9"/></g></g><g id="kvg:062cf-g4" kvg:element="手" kvg:position="bottom" kvg:radical="general"><path id="kvg:062cf-s6" kvg:type="㇒" d="M65.97 46c.1.33.21.85-.19 1.33-2.37 2.79-15.95 8.93-34.53 12.68"/><path id="kvg:062cf-s7" kvg:type="㇐" d="M25.88 68.27c1.12.39 3.18.47 4.3.39 14.06-1.06 23.51-2.71 45.12-4.31 1.86-.14 4.89-.16 5.83.04"/><path id="kvg:062cf-s8" kvg:type="㇐" d="M14.9 80.54c1.47.51 4.17.54 5.65.51 13.75-.26 42.47-4.14 66.58-4.06 2.46.01 3.93.24 5.16.5"/><path id="kvg:062cf-s9" kvg:type="㇁" d="M52.32 56.22c6.31 9.45 6.68 25.03 4.32 36.32-2.12 10.18-5.2 5.15-9.57 1.07"/></g></g></g></svg>