<svg xmlns="http://www.w3.org/2000/svg" width="109" height="109" viewBox="0 0 109 109"><g id="kvg:StrokePaths_062cd" style="fill:none;stroke:#000000;stroke-width:3;stroke-linecap:round;stroke-linejoin:round;"><g id="kvg:062cd" kvg:element="拍"><g id="kvg:062cd-g1" kvg:element="扌" kvg:variant="true" kvg:original="手" kvg:position="left" kvg:radical="general"><path id="kvg:062cd-s1" kvg:type="㇐" d="M16.25 39.92c2.18.26 4.18.43 6.41.04 5.06-.86 12.85-2.62 19.55-3.71 1.16-.19 2.31-.36 3.45-.5"/><path id="kvg:062cd-s2" kvg:type="㇚" d="M32.77 17.5c1.05 1.05 1.51 2.62 1.51 4.52.0 15.23-.01 50.46-.01 61.9.0 14.25-6.32 3.53-7.77 2"/><path id="kvg:062cd-s3" kvg:type="㇀" d="M17.25 68.43c1.22 1.22 2.12 1.07 4-.18 5.01-3.34 8.75-6.25 20-14.33"/></g><g id="kvg:062cd-g2" kvg:element="白" kvg:position="right" kvg:phon="白"><g id="kvg:062cd-g3" kvg:position="top"><path id="kvg:062cd-s4" kvg:type="㇔" d="M72.41 16.75c.47 1.38.18 2.31-.04 3.15-1.63 6.18-6.99 16.6-12.18 24.56"/></g><g id="kvg:062cd-g4" kvg:element="日" kvg:position="bottom"><path id="kvg:062cd-s5" kvg:type="㇑" d="M54.3 45.26c1.28 1.28 1.44 2.53 1.44 4.05.0.99.46 24.7.45 36.06.0 3.45-.01 5.8-.01 6.12"/><path id="kvg:062cd-s6" kvg:type="㇕a" d="M56.6 47.25c5.44-.77 23.85-3.17 30.3-3.93 2.85-.34 4.55.09 4.54 3.42.0 2.82-.3 24.98-.55 36.64-.07 3.34-.12 5.82-.12 6.73"/><path id="kvg:062cd-s7" kvg:type="㇐a" d="M57.31 65.97C65.5 65 84 63.12 90.36 62.86"/><path id="kvg:062cd-s8" kvg:type="㇐a" d="M57.23 88.53c8.66-.63 23.63-2.07 32.35-2.34"/></g></g></g></g></svg>