<svg xmlns="http://www.w3.org/2000/svg" width="109" height="109" viewBox="0 0 109 109"><g id="kvg:StrokePaths_062d2" style="fill:none;stroke:#000000;stroke-width:3;stroke-linecap:round;stroke-linejoin:round;"><g id="kvg:062d2" kvg:element="拒"><g id="kvg:062d2-g1" kvg:element="扌" kvg:variant="true" kvg:original="手" kvg:position="left" kvg:radical="general"><path id="kvg:062d2-s1" kvg:type="㇐" d="M16 39.67c1.95.23 3.78.46 5.77.2 5.39-.71 14.21-2.52 21.46-3.51.9-.12 2.02-.1 2.68-.1"/><path id="kvg:062d2-s2" kvg:type="㇚" d="M33.02 15.75c1.12 1.12 1.51 2.88 1.51 4.77.0 15.23.24 53.46.24 64.9.0 14.25-6.32 3.53-7.77 2"/><path id="kvg:062d2-s3" kvg:type="㇀" d="M16 67.27c1.12.73 2.47.7 4.08-.34 6.29-4.05 15.54-10.3 24.04-16.43"/></g><g id="kvg:062d2-g2" kvg:element="巨" kvg:position="right" kvg:phon="巨"><g id="kvg:062d2-g3" kvg:element="匚" kvg:part="1" kvg:variant="true"><path id="kvg:062d2-s4" kvg:type="㇑" d="M51.54 21.59c.94.94 1.34 2.27 1.34 3.47.0.7.03 39.99.0 61.57.0 2.54-.01 4.82-.01 6.75"/></g><g id="kvg:062d2-g4" kvg:element="二" kvg:part="1"><path id="kvg:062d2-s5" kvg:type="㇐b" d="M53.35 23.11c6.73-.68 25.4-2.36 33.31-3.61 2.34-.37 3.79-.22 4.98.03"/></g><path id="kvg:062d2-s6" kvg:type="㇕b" d="M54 45.04c10.37-1.17 21.5-2.67 29.5-3.32 2.74-.22 4.24 1.28 3.66 4.13-.93 4.5-3.07 11.6-4.23 16.96"/><path id="kvg:062d2-s7" kvg:type="㇐b" d="M54.07 66.96c5.11-.48 18.07-1.85 26.39-2.71 2.29-.24 4.23-.42 5.56-.5"/><g id="kvg:062d2-g5" kvg:element="二" kvg:part="2"><g id="kvg:062d2-g6" kvg:element="匚" kvg:part="2" kvg:variant="true"><path id="kvg:062d2-s8" kvg:type="㇐b" d="M54.1 91.36c6.73-.68 21.11-1.98 36.75-2.65 2.37-.1 3.79-.22 4.98.03"/></g></g></g></g></g></svg>