<svg xmlns="http://www.w3.org/2000/svg" width="109" height="109" viewBox="0 0 109 109"><g id="kvg:StrokePaths_062d8"><g id="kvg:062d8" kvg:element="拘"><g id="kvg:062d8-g1" kvg:element="扌" kvg:variant="true" kvg:original="手" kvg:position="left" kvg:radical="general"><path id="kvg:062d8-s1" kvg:type="㇐" d="M13 39.17c2.22.27 3.94.48 6.29.04 4.72-.9 11.5-2.77 19-4.29 1.1-.22 2.23-.19 3.38-.41"/><path id="kvg:062d8-s2" kvg:type="㇚" d="M29.77 14.5c1.24 1.24 1.51 2.88 1.51 5.02.0 15.23-.01 54.46-.01 65.9.0 14.25-6.32 3.53-7.77 2"/><path id="kvg:062d8-s3" kvg:type="㇀" d="M12.57 67.47c.99.63 2.79.69 4.11-.23 4.08-2.86 9.08-6.73 20.33-14.82"/></g><g id="kvg:062d8-g2" kvg:element="句" kvg:position="right" kvg:phon="句"><g id="kvg:062d8-g3" kvg:element="勹"><g id="kvg:062d8-g4" kvg:element="丿"><path id="kvg:062d8-s4" kvg:type="㇒" d="M60.46 12.6c.29.65.29 1.96-.1 2.96-2.73 7.06-8.61 17.44-17.89 27.6"/></g><path id="kvg:062d8-s5" kvg:type="㇆" d="M53.9 34.1c2.72.4 4.69.22 6.73-.17 6.73-1.27 21.71-4.06 27.35-4.99 3.66-.6 6.07.46 6.05 4.51C94 46.25 90.25 74.75 82.82 91.38c-2.43 5.44-5.82 3.38-8.84-1.14"/></g><g id="kvg:062d8-g5" kvg:element="口"><path id="kvg:062d8-s6" kvg:type="㇑" d="M49.61 51.15c.86.88 1 1.69 1.23 2.86.6 2.98 1.21 7.98 1.93 12.7.37 2.43.69 4.66.9 6.28"/><path id="kvg:062d8-s7" kvg:type="㇕b" d="M51.55 52.4c6.95-1.54 13.47-2.88 17.85-3.5 3.18-.45 4.35.21 3.77 3.47-.67 3.74-1.05 6.32-2.15 12.36"/><path id="kvg:062d8-s8" kvg:type="㇐b" d="M54.48 68.35c3.99-.42 9.78-1.64 15.55-2.43 1.51-.21 2.72-.29 4.18-.32"/></g></g></g></g></svg>