<svg xmlns="http://www.w3.org/2000/svg" width="109" height="109" viewBox="0 0 109 109"><g id="kvg:StrokePaths_062e1" style="fill:none;stroke:#000000;stroke-width:3;stroke-linecap:round;stroke-linejoin:round;"><g id="kvg:062e1" kvg:element="拡"><g id="kvg:062e1-g1" kvg:element="扌" kvg:variant="true" kvg:original="手" kvg:position="left" kvg:radical="general"><path id="kvg:062e1-s1" kvg:type="㇐" d="M13.38 39.54c2 .59 3.91.61 5.87.28 6.5-1.07 14.47-2.16 22.27-3.71 1.05-.21 2.12-.25 3.15-.36"/><path id="kvg:062e1-s2" kvg:type="㇚" d="M31.27 15c1.05 1.05 1.76 2.75 1.76 4.52.0 15.23-.01 55.96-.01 67.4.0 13.33-6.02 3.33-7.27 1.5"/><path id="kvg:062e1-s3" kvg:type="㇀" d="M11.88 70.12c1.62.88 3.25.38 4.62-.74 5.01-4.12 12-10.09 23.75-19.38"/></g><g id="kvg:062e1-g2" kvg:element="広" kvg:position="right" kvg:phon="広"><g id="kvg:062e1-g3" kvg:element="广" kvg:position="tare"><path id="kvg:062e1-s4" kvg:type="㇑a" d="M69.85 16.03c.81.81 1.33 2.22 1.33 3.39.0.73.07 8.71.07 13.08"/><g id="kvg:062e1-g4" kvg:element="厂"><path id="kvg:062e1-s5" kvg:type="㇐" d="M51.63 34.9c2.05.73 4.98.55 7.12.34 8.93-.89 20.55-2.56 30.01-3.27 2.1-.16 4.05-.24 6.12.21"/><path id="kvg:062e1-s6" kvg:type="㇒" d="M53.4 35.82c.89.89 1.17 2.06 1.17 3.31.0 19.13-4.19 40.5-14.56 54.38"/></g></g><g id="kvg:062e1-g5" kvg:element="厶" kvg:position="tarec"><path id="kvg:062e1-s7" kvg:type="㇜" d="M74.84 49.24c.43.86.43 2.64.01 3.69-4.07 10.33-8.13 22.25-13.92 33.39-1.29 2.49-.45 3.44 1.87 2.84 6.95-1.79 19.2-5.54 28.57-8.05"/><path id="kvg:062e1-s8" kvg:type="㇔" d="M86.06 71.34C90 75.5 95.25 85 97 91"/></g></g></g></g></svg>