<svg xmlns="http://www.w3.org/2000/svg" width="109" height="109" viewBox="0 0 109 109"><g id="kvg:StrokePaths_062fe" style="fill:none;stroke:#000000;stroke-width:3;stroke-linecap:round;stroke-linejoin:round;"><g id="kvg:062fe" kvg:element="拾"><g id="kvg:062fe-g1" kvg:element="扌" kvg:variant="true" kvg:original="手" kvg:position="left" kvg:radical="general"><path id="kvg:062fe-s1" kvg:type="㇐" d="M11.17 36.25c1.71.38 3.35.52 5.33.25 5.5-.75 11.88-2.25 18.88-3.45 1.12-.19 2.23-.19 3.29-.21"/><path id="kvg:062fe-s2" kvg:type="㇚" d="M26.27 14.33c.95.95 1.76 2.42 1.76 4.77.0 14.56-.01 62.41-.01 67.37.0 9.16-4.39 4.41-7.46.75"/><path id="kvg:062fe-s3" kvg:type="㇀" d="M11.09 65.44c1.26.29 2.79.04 4.16-.97 1.63-1.19 13.12-10.74 20-16.47"/></g><g id="kvg:062fe-g2" kvg:element="合" kvg:position="right"><g id="kvg:062fe-g3" kvg:element="人"><path id="kvg:062fe-s4" kvg:type="㇒" d="M63.5 16.88c.08.97.13 2.35-.41 3.66-3.7 9.11-8.44 20.2-23.09 33.09"/><path id="kvg:062fe-s5" kvg:type="㇏" d="M64.03 21.36c6.47 7.39 16.56 18.5 23.45 24.41 2.28 1.96 4.53 3.85 7.4 4.73"/></g><g id="kvg:062fe-g4" kvg:element="一"><path id="kvg:062fe-s6" kvg:type="㇐" d="M51.82 50.77c1.25.52 2.62.47 3.93.36 5.37-.45 12.69-1.32 17.88-1.74 1.16-.09 2.35-.16 3.5.13"/></g><g id="kvg:062fe-g5" kvg:element="口"><path id="kvg:062fe-s7" kvg:type="㇑" d="M47.44 68.73c.79.79 1.38 1.76 1.52 2.43 1.42 7.32 1.84 10.89 2.6 16.08.16 1.09.33 2.25.54 3.54"/><path id="kvg:062fe-s8" kvg:type="㇕b" d="M49.89 70.36c10.34-1.73 21.62-3 27.98-3.71 3.24-.36 5.55 1.07 4.76 4.52-1.22 5.3-2.5 9.14-3.98 14.66"/><path id="kvg:062fe-s9" kvg:type="㇐b" d="M52.83 88.97c6.25-.67 15.25-1.6 24.42-2.19 1.2-.08 2.4-.15 3.6-.21"/></g></g></g></g></svg>