<svg xmlns="http://www.w3.org/2000/svg" width="109" height="109" viewBox="0 0 109 109"><g id="kvg:StrokePaths_062f6"><g id="kvg:062f6" kvg:element="拶"><g id="kvg:062f6-g1" kvg:element="扌" kvg:variant="true" kvg:original="手" kvg:position="left" kvg:radical="general"><path id="kvg:062f6-s1" kvg:type="㇐" d="M14 38.25c2.1.25 4.02.45 6.17.1 5.19-.84 13.63-2.76 20.73-3.84 1.02-.15 2.03-.3 3.02-.42"/><path id="kvg:062f6-s2" kvg:type="㇚" d="M31.02 11.58c.95.95 1.26 2.29 1.26 4.02.0 14.56-.01 66.19-.01 71.15.0 14.25-6.32 3.53-7.77 2"/><path id="kvg:062f6-s3" kvg:type="㇀" d="M13.75 66.48c1.38.77 2.73.87 4.69-.46C26.38 60.62 31.62 57.12 41.5 50"/></g><g id="kvg:062f6-g2" kvg:position="right"><g id="kvg:062f6-g3" kvg:element="巛" kvg:position="top"><path id="kvg:062f6-s4" kvg:type="㇛" d="M59.35 11.54c0 1.21-.49 2.49-1.15 3.57-2.95 4.77-4.2 6.77-8.83 12.36-1.03 1.24-1.44 1.73-.07 2.76 3.84 2.9 5.51 4.81 7.24 7.22 1.41 1.95 2.49 4.04 3.53 6.55"/><path id="kvg:062f6-s5" kvg:type="㇛" d="M77.1 11.62c0 1.01-.41 2.26-.86 2.95-2.58 3.94-3.62 5.93-8.96 11.34-1.36 1.38-1 1.77-.14 2.45 2.99 2.39 5.07 4.6 6.85 7.52 1.2 1.97 2.38 3.87 2.9 6.78"/><path id="kvg:062f6-s6" kvg:type="㇛" d="M92.67 10.96c0 1.17-.21 2.24-.89 3.18-2.29 3.16-4.03 5.74-8.1 9.79-1.71 1.7-1.44 1.94-.35 3 3.8 3.7 6.46 6.57 8.37 10.22.75 1.43 1.3 2.97 1.73 4.76"/></g><g id="kvg:062f6-g4" kvg:element="夕" kvg:position="bottom"><path id="kvg:062f6-s7" kvg:type="㇒" d="M68.51 44.64c.08 1.44-.18 2.79-.9 3.97-4.98 8.14-10.13 15.94-22.77 26.15"/><path id="kvg:062f6-s8" kvg:type="㇇" d="M67.68 54.94c1.49.33 2.95.43 4.07.22 5.27-.99 10.89-2.06 16.81-3.45 3.42-.8 4.69 1.64 3.22 4.37C83.25 72 69 87.75 43.25 99.25"/><path id="kvg:062f6-s9" kvg:type="㇔" d="M58.79 66.44c3.65 2.27 8.96 8.18 9.83 12.89"/></g></g></g></g></svg>