<svg xmlns="http://www.w3.org/2000/svg" width="109" height="109" viewBox="0 0 109 109"><g id="kvg:StrokePaths_06302"><g id="kvg:06302" kvg:element="挂"><g id="kvg:06302-g1" kvg:element="扌" kvg:variant="true" kvg:original="手" kvg:position="left" kvg:radical="general"><path id="kvg:06302-s1" kvg:type="㇐" d="M12.5 36.42c2.08.25 1.27.55 3.5.25 5.5-.75 15.5-2.5 24.67-3.67"/><path id="kvg:06302-s2" kvg:type="㇚" d="M26.77 13.5c.48.92 1.76 2.49 1.76 5.52.0 15.23.24 56.46.24 67.9.0 14.25-6.32 3.53-7.77 2"/><path id="kvg:06302-s3" kvg:type="㇀" d="M12 64.7c.74.88 1.92 1.39 3.55.58.96-.48 18.11-10.06 22.2-12.36"/></g><g id="kvg:06302-g2" kvg:element="圭" kvg:position="right"><g id="kvg:06302-g3" kvg:element="土" kvg:position="top"><path id="kvg:06302-s4" kvg:type="㇐" d="M49.05 31.74c.95.48 2.7.55 3.66.48 9-.61 21.15-2.87 33.5-3.3 1.59-.06 2.55.23 3.34.47"/><path id="kvg:06302-s5" kvg:type="㇑a" d="M65.95 12.87c.13.32 1.91 1.65 1.91 3.66.0 12.97.15 15.21.15 32.36"/><path id="kvg:06302-s6" kvg:type="㇐" d="M46.2 49.97c1.51.61 3.23.69 4.75.61 8.94-.49 29.12-3.17 39.04-3.61 2.52-.11 3.5.29 4.77.6"/></g><g id="kvg:06302-g4" kvg:element="土" kvg:position="bottom"><path id="kvg:06302-s7" kvg:type="㇐" d="M47.82 73.46c.98.38 2.76.45 3.74.38 14.59-.99 25.11-3.36 36.03-3.65 1.62-.04 2.6.18 3.41.37"/><path id="kvg:06302-s8" kvg:type="㇑a" d="M66.6 55.32c.12.28 1.68 1.45 1.68 3.22.0 11.39.13 17.64.13 32.7"/><path id="kvg:06302-s9" kvg:type="㇐" d="M41.3 93.85c1.48.58 3.17.71 4.65.58 18.34-1.62 30.17-2.1 46.58-2.86 2.47-.11 3.44.28 4.67.56"/></g></g></g></g></svg>