<svg xmlns="http://www.w3.org/2000/svg" width="109" height="109" viewBox="0 0 109 109"><g id="kvg:StrokePaths_06311"><g id="kvg:06311" kvg:element="挑"><g id="kvg:06311-g1" kvg:element="扌" kvg:variant="true" kvg:original="手" kvg:position="left" kvg:radical="general"><path id="kvg:06311-s1" kvg:type="㇐" d="M12.5 40.42c1.94.23 3.61.49 5.62.2 4.3-.61 9.24-1.6 16.68-2.85.99-.17 2.07-.27 3.11-.27"/><path id="kvg:06311-s2" kvg:type="㇚" d="M28.77 17.25c1.05 1.05 1.51 2.49 1.51 5.52.0 15.23-.01 52.71-.01 64.15.0 14.25-6.32 3.53-7.77 2"/><path id="kvg:06311-s3" kvg:type="㇀" d="M12 68.43c1 .82 2.25.57 3.75-.43 5.01-3.34 8.75-6 20-14.08"/></g><g id="kvg:06311-g2" kvg:element="兆" kvg:position="right" kvg:phon="兆"><g id="kvg:06311-g3" kvg:position="left"><g id="kvg:06311-g4" kvg:element="儿" kvg:part="1" kvg:original="八"><path id="kvg:06311-s4" kvg:type="㇒" d="M56.54 16.91c1.02 1.02 1.37 2.58 1.39 3.82C58.5 63.25 59.25 80 42.4 93.18"/></g><g id="kvg:06311-g5" kvg:element="冫"><path id="kvg:06311-s5" kvg:type="㇔" d="M43.54 32.44c2.85 2.33 7.36 9.57 8.07 13.19"/><path id="kvg:06311-s6" kvg:type="㇀" d="M40.86 66.74c1.03.5 2.06.17 2.84-.4 1.08-.78 8.61-6.78 12.86-10.56"/></g></g><g id="kvg:06311-g6" kvg:position="right"><g id="kvg:06311-g7" kvg:element="儿" kvg:part="2" kvg:original="八"><path id="kvg:06311-s7" kvg:type="㇟" d="M70.89 15.53c1.21 1.21 1.49 2.32 1.49 3.97.0 7.59.12 54.38.12 60.95.0 10.33 1.42 11.29 11.19 11.29C94 91.73 95 90 95 83.05"/></g><path id="kvg:06311-s8" kvg:type="㇒" d="M89.14 28.75c.1.84.06 1.81-.5 2.47-2.77 3.29-5.28 6.37-11.71 10.68"/><path id="kvg:06311-s9" kvg:type="㇔" d="M77.2 52.77c3.95 2.62 10.21 10.76 11.2 14.84"/></g></g></g></g></svg>