<svg xmlns="http://www.w3.org/2000/svg" width="109" height="109" viewBox="0 0 109 109"><g id="kvg:StrokePaths_0633f" style="fill:none;stroke:#000000;stroke-width:3;stroke-linecap:round;stroke-linejoin:round;"><g id="kvg:0633f" kvg:element="挿"><g id="kvg:0633f-g1" kvg:element="扌" kvg:variant="true" kvg:original="手" kvg:position="left" kvg:radical="general"><path id="kvg:0633f-s1" kvg:type="㇐" d="M14.25 36.92c1.95.23 3.77.45 5.76.21 4.33-.53 9.28-1.28 15.73-2.15 1.2-.16 2.38-.23 3.67-.23"/><path id="kvg:0633f-s2" kvg:type="㇚" d="M28.52 13c1.37 1.37 1.51 3.25 1.51 5.52.0 15.23-.01 55.71-.01 67.15.0 14.25-6.32 3.53-7.77 2"/><path id="kvg:0633f-s3" kvg:type="㇀" d="M12.5 65.18c.88.7 2.18 1 3.56.09 6.44-4.26 8.19-5.39 20.69-14.35"/></g><g id="kvg:0633f-g2" kvg:position="right" kvg:phon="千+日"><g id="kvg:0633f-g3" kvg:element="千" kvg:part="1"><g id="kvg:0633f-g4" kvg:element="丿"><path id="kvg:0633f-s4" kvg:type="㇒" d="M81.27 11.67c0 .96-.39 1.71-1.26 2.22-4.25 2.5-16.75 7.11-32.04 10.9"/></g></g><g id="kvg:0633f-g5" kvg:element="十" kvg:part="1"><path id="kvg:0633f-s5" kvg:type="㇐" d="M45.13 33.15c2.49.9 6.1.37 8.64.04 9.5-1.21 22.19-3.03 33.85-3.73 2.58-.15 5.2-.44 7.74.12"/></g><g id="kvg:0633f-g6" kvg:element="日"><path id="kvg:0633f-s6" kvg:type="㇑" d="M46.91 44.87c.74.74 1.25 2.14 1.39 2.87 1.07 5.51 2.28 13.24 3.04 20.53.15 1.45.29 2.86.42 4.19"/><path id="kvg:0633f-s7" kvg:type="㇕a" d="M48.62 46c12.63-1.88 29.26-3.96 37.9-4.54C89.75 41.25 91 42.88 90.8 46c-.29 4.47-1.57 11.58-2.44 17.76-.28 1.96-.56 3.83-.85 5.48"/><path id="kvg:0633f-s8" kvg:type="㇐a" d="M51.16 57.73c10.09-1.48 28.09-3.23 37.29-3.57"/><path id="kvg:0633f-s9" kvg:type="㇐a" d="M52.83 70.17c11.42-1.17 21.42-2.3 33.68-2.96"/></g><g id="kvg:0633f-g7" kvg:element="千" kvg:part="2"><g id="kvg:0633f-g8" kvg:element="十" kvg:part="2"><path id="kvg:0633f-s10" kvg:type="㇑" d="M67.71 22.39c.88.88 1.17 2.23 1.17 4.03.0.65.09 44.87-.01 64.58-.03 4.84.09 6.77.07 7.75"/></g></g></g></g></g></svg>