<svg xmlns="http://www.w3.org/2000/svg" width="109" height="109" viewBox="0 0 109 109"><g id="kvg:StrokePaths_0634c"><g id="kvg:0634c" kvg:element="捌"><g id="kvg:0634c-g1" kvg:element="扌" kvg:variant="true" kvg:original="手" kvg:position="left" kvg:radical="general"><path id="kvg:0634c-s1" kvg:type="㇐" d="M11.75 38.25c2.03.24 3.94.23 6.02-.17 4.24-.83 8.96-2.25 15.11-3.26 1.05-.17 2.14-.34 3.28-.48"/><g id="kvg:0634c-g2" kvg:position="left"><path id="kvg:0634c-s2" kvg:type="㇚" d="M25.65 16.58c1.01 1.01 1.4 2.79 1.4 4.93.0 13.66-.02 59.79-.02 64.44.0 13.37-5.93 3.31-7.28 1.88"/><path id="kvg:0634c-s3" kvg:type="㇀" d="M11.5 64.98c1.87 1.4 3.43.97 5.19-.46 5.7-4.65 11.69-9.39 18.31-15.27"/></g></g><g id="kvg:0634c-g3" kvg:element="別" kvg:position="right"><g id="kvg:0634c-g4" kvg:position="left"><g id="kvg:0634c-g5" kvg:element="口"><path id="kvg:0634c-s4" kvg:type="㇑" d="M40.05 23.64c.7.73 1.1 1.6 1.21 2.61.73 3.86 1.48 7.98 2.11 12.38.23 1.59.44 3.22.63 4.87"/><path id="kvg:0634c-s5" kvg:type="㇕b" d="M42.15 24.78c6.84-1.32 13.71-2.94 18-3.75 2.74-.52 4.11.87 3.6 3.59-.78 4.25-1.69 9.38-2.82 14.92"/><path id="kvg:0634c-s6" kvg:type="㇐b" d="M45.16 42.08c3.7-.46 8.22-1.03 13.46-1.57 1.34-.14 2.73-.27 4.16-.4"/></g><g id="kvg:0634c-g6" kvg:element="勹"><g id="kvg:0634c-g7" kvg:element="㇆"><path id="kvg:0634c-s7" kvg:type="㇆" d="M51.96 50.5c2.28.64 5.69 1.58 9.41 2.76 2.72.86 4.03 2.95 3.12 5.82C61.12 69.62 58 77.25 50.83 88.79c-2.55 4.11-5.8 6.07-8.14.81"/></g><path id="kvg:0634c-s8" kvg:type="㇒" d="M51.06 44.25c.31 1.12.49 1.86.15 3.13C48.5 57.62 43.62 71.5 33.5 82.13"/></g></g><g id="kvg:0634c-g8" kvg:element="刂" kvg:variant="true" kvg:original="刀" kvg:position="right"><path id="kvg:0634c-s9" kvg:type="㇑" d="M75.28 27.58c1.09 1.04 1.16 2.66 1.16 4.52.0 9.3-.01 18.53-.01 25.27.0 3.81.0 6.84.0 8.63"/><path id="kvg:0634c-s10" kvg:type="㇚" d="M92.03 13.33c1.13 1.13 1.25 2.67 1.25 4.6.0 15.53.03 68.14.03 73.42.0 12.03-6.15 1.6-7.43.27"/></g></g></g></g></svg>