<!DOCTYPE svg PUBLIC "-//W3C//DTD SVG 1.0//EN" "http://www.w3.org/TR/2001/REC-SVG-20010904/DTD/svg10.dtd" [
<!ATTLIST g
xmlns:kvg CDATA #FIXED "http://kanjivg.tagaini.net"
kvg:element CDATA #IMPLIED
kvg:variant CDATA #IMPLIED
kvg:partial CDATA #IMPLIED
kvg:original CDATA #IMPLIED
kvg:part CDATA #IMPLIED
kvg:number CDATA #IMPLIED
kvg:tradForm CDATA #IMPLIED
kvg:radicalForm CDATA #IMPLIED
kvg:position CDATA #IMPLIED
kvg:radical CDATA #IMPLIED
kvg:phon CDATA #IMPLIED >
<!ATTLIST path
xmlns:kvg CDATA #FIXED "http://kanjivg.tagaini.net"
kvg:type CDATA #IMPLIED >
]><svg xmlns="http://www.w3.org/2000/svg" width="109" height="109" viewBox="0 0 109 109"><g id="kvg:StrokePaths_0634d" style="fill:none;stroke:#000000;stroke-width:3;stroke-linecap:round;stroke-linejoin:round;"><g id="kvg:0634d" kvg:element="捍"><g id="kvg:0634d-g1" kvg:element="扌" kvg:variant="true" kvg:original="手" kvg:position="left" kvg:radical="general"><path id="kvg:0634d-s1" kvg:type="㇐" d="M11.5 35.92c2.08.25 1.25.39 3.5.25 6.75-.42 15.75-1.92 26.17-2.67"/><path id="kvg:0634d-s2" kvg:type="㇚" d="M26.77 12.5c.48.92 1.76 2.49 1.76 5.52.0 15.23.24 59.96.24 71.4.0 14.25-6.32 3.53-7.77 2"/><path id="kvg:0634d-s3" kvg:type="㇀" d="M11 64.02c1.25 1.48 2.25 1.73 4 .98 1.67-.71 15.85-8.7 22.75-12.58"/></g><g id="kvg:0634d-g2" kvg:element="旱" kvg:position="right"><g id="kvg:0634d-g3" kvg:element="日" kvg:position="top"><path id="kvg:0634d-s4" kvg:type="㇑" d="M46.75 15.87c.44.43.45.74.69 1.28 1.97 4.5 3.45 15.87 4.68 24.26"/><path id="kvg:0634d-s5" kvg:type="㇕a" d="M48.1 17.95c10.11-.9 30-2.92 37.54-3.67 2.77-.28 3.34 1.59 3.2 2.57-.52 3.59-2.67 16.92-3.93 22.93"/><path id="kvg:0634d-s6" kvg:type="㇐a" d="M50.41 28.44c3.29-.35 32.23-2.92 36.65-2.62"/><path id="kvg:0634d-s7" kvg:type="㇐a" d="M52.42 39.77c9.36-.98 22.44-1.54 32.49-2.16"/></g><g id="kvg:0634d-g4" kvg:element="干" kvg:position="bottom"><path id="kvg:0634d-s8" kvg:type="㇐" d="M48.22 51.87c.82.46 3.64.5 4.46.42 5.66-.54 22.41-2.36 32.07-3.27 1.36-.13 4.22.4 4.9.63"/><g id="kvg:0634d-g5" kvg:element="十"><path id="kvg:0634d-s9" kvg:type="㇐" d="M42 69.98c1.27.27 3.62.38 4.88.27 13.04-1.18 31.53-3.55 45.41-3.81 2.12-.04 3.39.13 4.46.26"/><path id="kvg:0634d-s10" kvg:type="㇑" d="M67.33 52.72c.42.49 1.38 2.03 1.38 4.67.0.99-.05 34.97-.14 41.12"/></g></g></g></g></g><g id="kvg:StrokeNumbers_0634d" style="font-size:8;fill:#808080"><text transform="matrix(1 0 0 1 4.94 37.13)">1</text><text transform="matrix(1 0 0 1 18.50 13.50)">2</text><text transform="matrix(1 0 0 1 3.50 69.50)">3</text><text transform="matrix(1 0 0 1 40.50 23.50)">4</text><text transform="matrix(1 0 0 1 51.50 14.50)">5</text><text transform="matrix(1 0 0 1 54.50 25.50)">6</text><text transform="matrix(1 0 0 1 55.50 37.50)">7</text><text transform="matrix(1 0 0 1 46.50 49.50)">8</text><text transform="matrix(1 0 0 1 39.50 66.50)">9</text><text transform="matrix(1 0 0 1 57.50 60.50)">10</text></g></svg>