<svg xmlns="http://www.w3.org/2000/svg" width="109" height="109" viewBox="0 0 109 109"><g id="kvg:StrokePaths_0636e" style="fill:none;stroke:#000000;stroke-width:3;stroke-linecap:round;stroke-linejoin:round;"><g id="kvg:0636e" kvg:element="据"><g id="kvg:0636e-g1" kvg:element="扌" kvg:variant="true" kvg:original="手" kvg:position="left" kvg:radical="general"><path id="kvg:0636e-s1" kvg:type="㇐" d="M13.75 39.67c1.95.23 3.77.48 5.76.16 5.05-.8 12.24-1.95 20.54-3.45.95-.17 1.94-.13 2.86-.13"/><path id="kvg:0636e-s2" kvg:type="㇚" d="M28.77 16c1.12 1.12 1.51 2.75 1.51 5.27.0 15.23-.01 52.23-.01 63.9.0 14.25-5.82 3.53-7.27 2"/><path id="kvg:0636e-s3" kvg:type="㇀" d="M13.25 64.43c.97.97 2.25 1.32 4.25.07 5.11-3.19 9-6 20.25-14.08"/></g><g id="kvg:0636e-g2" kvg:element="居" kvg:position="right" kvg:phon="居"><g id="kvg:0636e-g3" kvg:element="尸" kvg:position="tare"><path id="kvg:0636e-s4" kvg:type="㇕c" d="M47.84 20.73c1.29.52 3.81 1.05 5.17.88 7.7-.95 23.21-3.02 29.51-3.73 3.23-.36 5.4.37 4.39 4.14-.93 3.49-1.65 6.99-2.86 11.56"/><path id="kvg:0636e-s5" kvg:type="㇐b" d="M51.79 38.19c3.22-.15 17.34-1.94 29.72-3.12 1.73-.16 3.35-.23 4.8-.3"/><path id="kvg:0636e-s6" kvg:type="㇒" d="M49.88 21.54c1.04 1.04 1.42 2.46 1.41 4.26C51.12 52 46.72 76.5 36.56 88.56"/></g><g id="kvg:0636e-g4" kvg:element="古" kvg:position="tarec"><g id="kvg:0636e-g5" kvg:element="十" kvg:position="top"><path id="kvg:0636e-s7" kvg:type="㇐" d="M51.82 58.15c2.6.27 5.07.04 7.65-.29 7.67-1 21.11-2.95 28.77-3.48 1.87-.13 4.32-.33 6.16.08"/><path id="kvg:0636e-s8" kvg:type="㇑a" d="M68.72 41.94c1.17 1.17 1.41 2.44 1.41 4.39.0 12.3.12 20.42.12 26.04"/></g><g id="kvg:0636e-g6" kvg:element="口" kvg:position="bottom"><path id="kvg:0636e-s9" kvg:type="㇑" d="M54.45 73.74c.78.78 1.3 1.76 1.58 2.82.71 2.76 1.91 8.82 2.79 14.43.23 1.45.43 2.88.6 4.26"/><path id="kvg:0636e-s10" kvg:type="㇕b" d="M56.36 75.02c7.54-1.11 21.04-3.1 27.27-3.66 3.49-.31 4.89.46 4.07 4.09-.93 4.06-2.13 9.73-2.98 14.44"/><path id="kvg:0636e-s11" kvg:type="㇐b" d="M60.51 92.73c4.47-.25 15.27-1.62 22.5-2.28 1.33-.12 2.86-.03 4.02-.03"/></g></g></g></g></g></svg>