<svg xmlns="http://www.w3.org/2000/svg" width="109" height="109" viewBox="0 0 109 109"><g id="kvg:StrokePaths_06376" style="fill:none;stroke:#000000;stroke-width:3;stroke-linecap:round;stroke-linejoin:round;"><g id="kvg:06376" kvg:element="捶"><g id="kvg:06376-g1" kvg:element="扌" kvg:variant="true" kvg:original="手" kvg:position="left" kvg:radical="general"><path id="kvg:06376-s1" kvg:type="㇐" d="M11.75 35.67c1.5.35 2.98.39 4.46.12 5.55-.76 13.81-1.69 22.46-2.79"/><path id="kvg:06376-s2" kvg:type="㇚" d="M25.27 12.5c.48.92 1.76 2.49 1.76 5.52.0 15.23-.01 59.46-.01 70.9.0 14.25-6.07 4.53-7.52 3"/><path id="kvg:06376-s3" kvg:type="㇀" d="M11.75 63.99c2.18 1.19 4.33.66 5.93-.59 3.31-2.2 13.91-9.37 19.93-13.23"/></g><g id="kvg:06376-g2" kvg:element="垂" kvg:position="right"><g id="kvg:06376-g3" kvg:element="千" kvg:part="1"><g id="kvg:06376-g4" kvg:element="丿"><path id="kvg:06376-s4" kvg:type="㇒" d="M82.46 12.5c.04.84-.54 1.77-1.74 2.57-6.38 4.27-15.31 8.58-30.39 12.23"/></g><g id="kvg:06376-g5" kvg:element="十" kvg:part="1"><path id="kvg:06376-s5" kvg:type="㇐" d="M45.56 37.4c2.46.48 4.93.39 7.39.04 11.36-1.63 24.91-2.9 34.53-3.56 2.37-.16 4.72-.07 7.06.36"/></g></g><path id="kvg:06376-s6" kvg:type="㇐" d="M41 55.71c2.67.41 5.33.42 8.01.16 13.33-1.29 26.65-2.22 41.36-3.02 2.66-.15 5.31-.14 7.96.23"/><path id="kvg:06376-s7" kvg:type="㇑" d="M51.17 44.25c1.03 1.03 1.31 2.67 1.36 3.59.54 10.28.65 14.05.91 21.16"/><path id="kvg:06376-s8" kvg:type="㇑" d="M85.19 40.75c.79.86.9 2.14.77 3.75-1.03 12.05-1.25 14.61-1.72 22.25"/><g id="kvg:06376-g6" kvg:element="土"><path id="kvg:06376-s9" kvg:type="㇐" d="M45.12 75.62c2.3.29 4.6.41 6.9.25 11.01-.77 26.18-1.63 35.92-2.34 2.36-.17 4.72-.02 7.08.26"/><g id="kvg:06376-g7" kvg:element="千" kvg:part="2"><g id="kvg:06376-g8" kvg:element="十" kvg:part="2"><path id="kvg:06376-s10" kvg:type="㇑" d="M67.75 25.25c.86.86.97 2.71.97 4 0 10.06-.06 57.72-.06 63"/></g></g><path id="kvg:06376-s11" kvg:type="㇐" d="M42.52 94.3c2.58.58 5.17.32 7.76.12 13.79-1.02 27.61-1.83 40.48-2.22 2.59-.08 5.71.15 8.24.94"/></g></g></g></g></svg>