<svg xmlns="http://www.w3.org/2000/svg" width="109" height="109" viewBox="0 0 109 109"><g id="kvg:StrokePaths_06389" style="fill:none;stroke:#000000;stroke-width:3;stroke-linecap:round;stroke-linejoin:round;"><g id="kvg:06389" kvg:element="掉"><g id="kvg:06389-g1" kvg:element="扌" kvg:variant="true" kvg:original="手" kvg:position="left" kvg:radical="general"><path id="kvg:06389-s1" kvg:type="㇐" d="M12.75 38.42c2.22.25 1.35.55 3.73.25 5.85-.75 15.43-2.5 25.19-3.67"/><path id="kvg:06389-s2" kvg:type="㇚" d="M27.27 14.5c.48.92 1.76 2.49 1.76 5.52.0 15.23.24 56.46.24 67.9.0 14.25-6.32 3.53-7.77 2"/><path id="kvg:06389-s3" kvg:type="㇀" d="M11.75 67.74c.9 1.06 2.33 1.68 4.31.7 1.17-.58 19.23-12.51 24.19-15.28"/></g><g id="kvg:06389-g2" kvg:element="卓" kvg:position="right"><g id="kvg:06389-g3" kvg:element="卜" kvg:original="ト" kvg:position="top"><path id="kvg:06389-s4" kvg:type="㇑" d="M65.31 12.88c.76.33 2.36 2.46 2.51 3.12s.4 14.53.25 18.63"/><path id="kvg:06389-s5" kvg:type="㇐" d="M68.25 23.5c2 0 12.67-1.36 18.5-2.27C88.83 20.9 89.75 21.08 91 21"/></g><g id="kvg:06389-g4" kvg:element="早" kvg:position="bottom"><g id="kvg:06389-g5" kvg:element="日" kvg:position="top"><path id="kvg:06389-s6" kvg:type="㇑" d="M50.16 36.17c.65 1.17 1.03 1.54 1.24 3.11.57 4.28 3.07 19.63 3.1 23.22"/><path id="kvg:06389-s7" kvg:type="㇕a" d="M52.73 37.61c3.71-.19 32.44-3.86 35.79-3.37 1.33.19 2.44 1.69 2.09 3.69C89.75 43 88 55 85.43 60.58"/><path id="kvg:06389-s8" kvg:type="㇐a" d="M53.48 48.31c6.33-.43 29.11-2.72 34.78-2.72"/><path id="kvg:06389-s9" kvg:type="㇐a" d="M55.14 59.86c9.11-.74 25.78-2.33 30.41-2.33"/></g><g id="kvg:06389-g6" kvg:element="十" kvg:position="bottom"><path id="kvg:06389-s10" kvg:type="㇐" d="M40.88 75.21c1.19.46 3.38.58 4.57.46 10.3-1.09 39.82-3.46 49.51-3.42 1.99.01 3.18.22 4.17.45"/><path id="kvg:06389-s11" kvg:type="㇑" d="M67.73 61.75c.44.54 1.38 4.03 1.47 5.1.09 1.08-.06 25.43-.15 32.15"/></g></g></g></g></g></svg>