<!DOCTYPE svg PUBLIC "-//W3C//DTD SVG 1.0//EN" "http://www.w3.org/TR/2001/REC-SVG-20010904/DTD/svg10.dtd" [
<!ATTLIST g
xmlns:kvg CDATA #FIXED "http://kanjivg.tagaini.net"
kvg:element CDATA #IMPLIED
kvg:variant CDATA #IMPLIED
kvg:partial CDATA #IMPLIED
kvg:original CDATA #IMPLIED
kvg:part CDATA #IMPLIED
kvg:number CDATA #IMPLIED
kvg:tradForm CDATA #IMPLIED
kvg:radicalForm CDATA #IMPLIED
kvg:position CDATA #IMPLIED
kvg:radical CDATA #IMPLIED
kvg:phon CDATA #IMPLIED >
<!ATTLIST path
xmlns:kvg CDATA #FIXED "http://kanjivg.tagaini.net"
kvg:type CDATA #IMPLIED >
]><svg xmlns="http://www.w3.org/2000/svg" width="109" height="109" viewBox="0 0 109 109"><g id="kvg:StrokePaths_0639f" style="fill:none;stroke:#000000;stroke-width:3;stroke-linecap:round;stroke-linejoin:round;"><g id="kvg:0639f" kvg:element="掟"><g id="kvg:0639f-g1" kvg:element="扌" kvg:variant="true" kvg:original="手" kvg:position="left" kvg:radical="general"><path id="kvg:0639f-s1" kvg:type="㇐" d="M13.25 37.73c1.56.31 3.11.34 4.65.07 5.56-.69 14.31-1.86 22.77-2.81"/><path id="kvg:0639f-s2" kvg:type="㇚" d="M29.02 14.5c.87.87 1.51 2.74 1.51 5.77.0 15.23.24 54.21.24 65.65.0 14.25-6.32 3.53-7.77 2"/><path id="kvg:0639f-s3" kvg:type="㇀" d="M12.5 66.7c1.75 1.05 3.31 1.07 4.7.05 4.23-2.37 20.49-11.79 24.3-13.83"/></g><g id="kvg:0639f-g2" kvg:element="定" kvg:position="right"><g id="kvg:0639f-g3" kvg:element="宀" kvg:position="top"><path id="kvg:0639f-s4" kvg:type="㇑a" d="M67.41 14.67c.71.8 1.18 2.3 1.16 3.4-.07 3.46-.07 8.48-.07 11.63"/><g id="kvg:0639f-g4" kvg:element="冖"><path id="kvg:0639f-s5" kvg:type="㇔" d="M48.79 30.91c0 3.31-2.59 12.43-3.77 14.64"/><path id="kvg:0639f-s6" kvg:type="㇖b" d="M49.12 33.32c10.66-1.87 30.15-3.98 40.19-4.43 9.21-.41 1.92 6.49-.95 8.92"/></g></g><g id="kvg:0639f-g5" kvg:element="疋" kvg:variant="true" kvg:position="bottom"><path id="kvg:0639f-s7" kvg:type="㇐" d="M51.32 50.21c2.07.42 4.07.33 6.17.0 4.44-.7 19.1-2.47 24.51-2.84 1.87-.12 3.74-.1 5.61.05"/><g id="kvg:0639f-g6" kvg:element="龰"><g id="kvg:0639f-g7" kvg:element="卜" kvg:original="ト"><path id="kvg:0639f-s8" kvg:type="㇑" d="M66.16 50.45c.81.42 1.46 1.89 1.46 2.75.0 4.92-.04 23.67-.04 30.37"/><path id="kvg:0639f-s9" kvg:type="㇐" d="M67.78 66.6c5.97-.51 8.34-1.03 17.35-2.06 1.45-.17 1.82-.17 2.74.0"/></g><g id="kvg:0639f-g8" kvg:element="人"><path id="kvg:0639f-s10" kvg:type="㇒" d="M52.28 60.46c.59.79.77 2.28.66 3.56C52.25 72.25 46.5 88 36.31 96.67"/><path id="kvg:0639f-s11" kvg:type="㇏" d="M52.19 76.05C55.5 76.5 75.62 92 87.07 94.67c2.13.5 3.69 1.32 5.67 1.58"/></g></g></g></g></g></g><g id="kvg:StrokeNumbers_0639f" style="font-size:8;fill:#808080"><text transform="matrix(1 0 0 1 6.50 38.50)">1</text><text transform="matrix(1 0 0 1 19.50 14.50)">2</text><text transform="matrix(1 0 0 1 4.50 70.50)">3</text><text transform="matrix(1 0 0 1 59.00 14.40)">4</text><text transform="matrix(1 0 0 1 42.50 32.50)">5</text><text transform="matrix(1 0 0 1 51.50 29.50)">6</text><text transform="matrix(1 0 0 1 53.00 47.50)">7</text><text transform="matrix(1 0 0 1 59.75 59.60)">8</text><text transform="matrix(1 0 0 1 72.25 62.50)">9</text><text transform="matrix(1 0 0 1 39.50 63.50)">10</text><text transform="matrix(1 0 0 1 54.50 75.50)">11</text></g></svg>