<svg xmlns="http://www.w3.org/2000/svg" width="109" height="109" viewBox="0 0 109 109"><g id="kvg:StrokePaths_0639b" style="fill:none;stroke:#000000;stroke-width:3;stroke-linecap:round;stroke-linejoin:round;"><g id="kvg:0639b" kvg:element="掛"><g id="kvg:0639b-g1" kvg:element="扌" kvg:variant="true" kvg:original="手" kvg:position="left" kvg:radical="general"><path id="kvg:0639b-s1" kvg:type="㇐" d="M14.5 39.67c2.11.25 3.73.23 5.89-.09 4.2-.64 9.03-1.47 15.38-2.42.93-.14 1.89-.27 2.9-.4"/><path id="kvg:0639b-s2" kvg:type="㇚" d="M28.27 16.25c.93.93 1.51 2.88 1.51 5.02.0 15.23-.01 52.21-.01 63.65.0 14.25-6.07 3.53-7.52 2"/><path id="kvg:0639b-s3" kvg:type="㇀" d="m13.5 67.39c1.62.99 2.5.99 4.12-.51 4.43-4.09 7.63-7 18.45-17.66"/></g><g id="kvg:0639b-g2" kvg:element="卦" kvg:position="right" kvg:phon="卦"><g id="kvg:0639b-g3" kvg:element="圭" kvg:position="left"><g id="kvg:0639b-g4" kvg:element="土" kvg:position="top"><path id="kvg:0639b-s4" kvg:type="㇐" d="M43.96 34.22c1.01.5 2.66.28 3.67.16 7.24-.88 11.99-1.63 16.38-2.22 1.28-.17 2.54-.24 3.78.13"/><path id="kvg:0639b-s5" kvg:type="㇑a" d="M54.98 17.25c.82.82 1.11 1.77 1.11 3.33.0 10.02-.1 13.41-.1 26.67"/><path id="kvg:0639b-s6" kvg:type="㇐" d="M41.61 49.48c.86.42 2.44.51 3.29.42 6.1-.65 14.05-2.21 23.57-2.76 1.43-.08 2.29.2 3.01.41"/></g><g id="kvg:0639b-g5" kvg:element="土" kvg:position="bottom"><path id="kvg:0639b-s7" kvg:type="㇐" d="M42.91 68.19c1.2.65 3.09.53 4.34.29 6.58-1.27 13.75-2.22 18.51-2.77 1.18-.14 2.64-.37 3.77.0"/><path id="kvg:0639b-s8" kvg:type="㇑a" d="M55.59 55c.77.77 1.25 1.94 1.25 3.17.0 9.46-.09 10.57-.09 23.08"/><path id="kvg:0639b-s9" kvg:type="㇀/㇐" d="M42.04 86.57c1.08.8 2.67.65 3.44.34 10.7-4.32 15.28-6.22 25.38-10.2"/></g></g><g id="kvg:0639b-g6" kvg:element="卜" kvg:original="ト" kvg:position="right"><path id="kvg:0639b-s10" kvg:type="㇑" d="M77.68 15.05c1.01 1.01 1.73 2.45 1.73 4.34.0.59.04 52.87.05 71.85.0 3.61.0 6.01.0 6.63"/><path id="kvg:0639b-s11" kvg:type="㇔" d="M82.75 47.25c5.12 3.12 11.62 8.88 14 14.5"/></g></g></g></g></svg>