<svg xmlns="http://www.w3.org/2000/svg" width="109" height="109" viewBox="0 0 109 109"><g id="kvg:StrokePaths_063a2" style="fill:none;stroke:#000000;stroke-width:3;stroke-linecap:round;stroke-linejoin:round;"><g id="kvg:063a2" kvg:element="探"><g id="kvg:063a2-g1" kvg:element="扌" kvg:variant="true" kvg:original="手" kvg:position="left" kvg:radical="general"><path id="kvg:063a2-s1" kvg:type="㇐" d="M11.75 38.42c2.08.25 3.01.24 5.25.0 5.12-.54 9.85-1.25 17.76-2.36 1.84-.26 2.99-.18 4.16-.06"/><path id="kvg:063a2-s2" kvg:type="㇚" d="M28.02 15c1.12 1.12 1.51 2.5 1.51 4.77.0 15.23.24 54.71.24 66.15.0 14.25-6.32 3.53-7.77 2"/><path id="kvg:063a2-s3" kvg:type="㇀" d="M12.29 68.98c.75.66 1.99 1.07 3.34.04 7.25-5.52 12.25-9.4 21.25-16.65"/></g><g id="kvg:063a2-g2" kvg:position="right"><g id="kvg:063a2-g3" kvg:position="top" kvg:phon="㓁+木"><g id="kvg:063a2-g4" kvg:element="㓁"><g id="kvg:063a2-g5" kvg:element="冖"><path id="kvg:063a2-s4" kvg:type="㇔" d="M46.89 18.88c0 3.09-2.2 11.6-3.21 13.66"/><path id="kvg:063a2-s5" kvg:type="㇖b" d="M47.57 21.12c7.45-.77 33.43-3.55 39.48-3.84 9.44-.46 2 5.36-.35 7.02"/></g><g id="kvg:063a2-g6" kvg:element="儿" kvg:original="八"><g id="kvg:063a2-g7" kvg:element="丿" kvg:position="left"><path id="kvg:063a2-s6" kvg:type="㇒" d="M57.64 26.75c.1 1.11.01 2.21-.52 3.18-2.5 4.57-5.5 9.07-12.1 14.24"/></g><g id="kvg:063a2-g8" kvg:position="right"><path id="kvg:063a2-s7" kvg:type="㇟" d="M70.35 23.62c.7.7 1 1.75 1 2.95.0 2.43-.04 4.56-.04 7.57.0 2.74 1.19 4.42 9.64 4.42 5.04.0 8.12-.64 8.82-1.01"/></g></g></g><g id="kvg:063a2-g9" kvg:element="木" kvg:position="bottom"><path id="kvg:063a2-s8" kvg:type="㇐" d="M43.55 55.58c2.45.42 4.64.3 6.82.05 7.14-.79 22.48-2.24 32.25-2.95 1.86-.13 4.37-.19 5.77.18"/><path id="kvg:063a2-s9" kvg:type="㇑" d="M64.99 42.25c.82.82 1.08 2.12 1.08 3.29.0 5.89.02 32.12-.07 44.84-.02 3.25.04 4.98.0 5.88"/><path id="kvg:063a2-s10" kvg:type="㇒" d="M64.09 54.97c0 1.28-.99 3.42-1.96 5C56.69 68.9 49.75 77.5 39.73 84.1"/><path id="kvg:063a2-s11" kvg:type="㇏" d="M66.78 55.3c3.6 4.33 14.47 15.89 21.46 23.2 1.72 1.8 5.51 5 7.78 6.55"/></g></g></g></g></g></svg>