<svg xmlns="http://www.w3.org/2000/svg" width="109" height="109" viewBox="0 0 109 109"><g id="kvg:StrokePaths_063a7"><g id="kvg:063a7" kvg:element="控"><g id="kvg:063a7-g1" kvg:element="扌" kvg:variant="true" kvg:original="手" kvg:position="left" kvg:radical="general"><path id="kvg:063a7-s1" kvg:type="㇐" d="M14 39.17c2.25.58 3.64.51 5.74.16 5.14-.85 12.35-2.46 19.52-3.44.97-.13 1.94-.26 2.9-.38"/><path id="kvg:063a7-s2" kvg:type="㇚" d="M29.77 13.5c1.05 1.05 1.51 2.62 1.51 5.02.0 15.23-.01 54.96-.01 66.4.0 14.25-6.32 3.53-7.77 2"/><path id="kvg:063a7-s3" kvg:type="㇀" d="M13.56 66.87c.94.51 2.37.56 3.52-.27 3.79-2.73 11.92-9.35 20.67-17.19"/></g><g id="kvg:063a7-g2" kvg:element="空" kvg:position="right" kvg:phon="空"><g id="kvg:063a7-g3" kvg:element="穴" kvg:position="top"><g id="kvg:063a7-g4" kvg:element="宀"><path id="kvg:063a7-s4" kvg:type="㇑a" d="M67.79 14.75c.98.98 1.2 2.12 1.2 3.64.0 3.36-.08 8.11-.08 11.17"/><g id="kvg:063a7-g5" kvg:element="冖"><path id="kvg:063a7-s5" kvg:type="㇔" d="M49.07 31.73c0 3.51-2.06 13.18-2.99 15.52"/><path id="kvg:063a7-s6" kvg:type="㇖b" d="M50.11 33.88C61.5 31.62 83.12 28 90.97 28c7.69.0 3.21 4.67-.47 8.17"/></g></g><g id="kvg:063a7-g6" kvg:element="八"><path id="kvg:063a7-s7" kvg:type="㇒" d="M61.52 40.5c.16 1.18-.03 2.31-.48 3.39C58.5 50 56.38 55.25 47.75 63"/><path id="kvg:063a7-s8" kvg:type="㇟a/㇏" d="M74.51 35.72c.95.95 1.24 2.22 1.24 3.78.0 3.5.06 5.88.06 8.56.0 6.2 1.31 7.26 8.71 7.26 3.53.0 7.36-.82 8.98-1.82"/></g></g><g id="kvg:063a7-g7" kvg:element="工" kvg:position="bottom"><path id="kvg:063a7-s9" kvg:type="㇐" d="M54.42 67.72c2.45.66 4.19.26 5.95-.02 5.79-.92 13.15-2.18 19.63-2.93 2.03-.23 4.37-.39 6.06-.02"/><path id="kvg:063a7-s10" kvg:type="㇑a" d="M67.58 69.2c.93.93 1.21 1.93 1.21 3.25.0 2.8-.04 11.68-.04 16.43"/><path id="kvg:063a7-s11" kvg:type="㇐" d="M44.25 91.8c2.75.7 6.38.54 9 .18 9.88-1.36 22.08-2.9 34.12-3.75 2.7-.19 6.38-.1 8.63.83"/></g></g></g></g></svg>