<svg xmlns="http://www.w3.org/2000/svg" width="109" height="109" viewBox="0 0 109 109"><g id="kvg:StrokePaths_063a5" style="fill:none;stroke:#000000;stroke-width:3;stroke-linecap:round;stroke-linejoin:round;"><g id="kvg:063a5" kvg:element="接"><g id="kvg:063a5-g1" kvg:element="扌" kvg:variant="true" kvg:original="手" kvg:position="left" kvg:radical="general"><path id="kvg:063a5-s1" kvg:type="㇐" d="M15.75 37.92c1.75.46 3.27.57 5.5.25 8-1.17 11.35-1.72 18.53-2.72 1.13-.16 1.97-.2 3.39-.2"/><path id="kvg:063a5-s2" kvg:type="㇚" d="M31.52 15c1.18 1.18 1.76 3.12 1.76 5.52.0 15.23-.01 51.96-.01 63.4.0 14.25-6.32 3.53-7.77 2"/><path id="kvg:063a5-s3" kvg:type="㇀" d="M13.12 65.65c1.39.63 2.77.6 4.16-.38 4.92-3.44 12.11-7.92 23.46-15.77"/></g><g id="kvg:063a5-g2" kvg:element="妾" kvg:position="right" kvg:phon="妾"><g id="kvg:063a5-g3" kvg:element="立" kvg:position="top"><g id="kvg:063a5-g4" kvg:element="亠" kvg:position="top"><path id="kvg:063a5-s4" kvg:type="㇑a" d="M65.47 12.75c.77.77 1.48 1.99 1.48 3.12s0 5.76.0 8.84"/><path id="kvg:063a5-s5" kvg:type="㇐" d="M48.5 27.3c1.44.4 3.52.46 5 .27 7.37-.94 21.52-2.75 28.74-3.27 1.69-.12 3.35-.2 5.03.08"/></g><g id="kvg:063a5-g5" kvg:position="bottom"><path id="kvg:063a5-s6" kvg:type="㇔" d="M54.62 32.75c2.75 2.75 5.12 6.62 5.81 9.95"/><path id="kvg:063a5-s7" kvg:type="㇒" d="M77.13 28.32c.37.81.56 2.37.14 3.33-1.64 3.72-3.96 9.04-5.23 11.52"/><path id="kvg:063a5-s8" kvg:type="㇐" d="M43.94 46.72c1.89.5 4.28.42 6.21.17C62 45.38 76.96 44.17 88 43.58c2.17-.11 4.51-.01 6.66.34"/></g></g><g id="kvg:063a5-g6" kvg:element="女" kvg:position="bottom"><path id="kvg:063a5-s9" kvg:type="㇛" d="M63.82 49.24c.37 1.07.25 2.48-.18 3.76-2.17 6.43-6.13 15.67-11.12 22.78-.73 1.04-.19 1.86.56 1.87 9.46.08 18.85 3.05 27.5 8.75 3.16 2.08 6.18 4.52 9.02 7.32"/><path id="kvg:063a5-s10" kvg:type="㇒" d="M79.75 58.38c.37 1.37.22 3.07-.19 4.34-3.43 10.65-11.17 24.27-31.73 32.03"/><path id="kvg:063a5-s11" kvg:type="㇐" d="M41.79 65.28c1.73.65 4.68.52 6.47.3 11.86-1.45 26.54-2.81 40.11-3.25 2.45-.08 5.38-.2 7.71.44"/></g></g></g></g></svg>