<svg xmlns="http://www.w3.org/2000/svg" width="109" height="109" viewBox="0 0 109 109"><g id="kvg:StrokePaths_063c9" style="fill:none;stroke:#000000;stroke-width:3;stroke-linecap:round;stroke-linejoin:round;"><g id="kvg:063c9" kvg:element="揉"><g id="kvg:063c9-g1" kvg:element="扌" kvg:variant="true" kvg:original="手" kvg:position="left" kvg:radical="general"><path id="kvg:063c9-s1" kvg:type="㇐" d="M12.25 37.26c2.1.2 1.28.45 3.53.2 5.55-.61 15.64-2.03 24.88-2.98"/><path id="kvg:063c9-s2" kvg:type="㇚" d="M27.27 14.5c.48.92 1.76 2.49 1.76 5.52.0 15.23.24 52.96.24 64.4.0 14.25-6.32 3.53-7.77 2"/><path id="kvg:063c9-s3" kvg:type="㇀" d="M11.5 65.31c1.03 1.22 2.67 1.94 4.95.81 1.34-.67 16.55-11.87 23.3-17.06"/></g><g id="kvg:063c9-g2" kvg:element="柔" kvg:position="right"><g id="kvg:063c9-g3" kvg:element="矛" kvg:position="top"><g id="kvg:063c9-g4" kvg:element="予"><g id="kvg:063c9-g5" kvg:element="マ" kvg:position="top"><path id="kvg:063c9-s4" kvg:type="㇇" d="M50.49 15.73c1.05.4 2.11.49 3.12.31 2-.36 26.27-4.08 28.39-4.45 2.12-.36 2.84 1.53 1.58 2.71-2.17 2.04-15.36 10.23-16.7 11.68"/><path id="kvg:063c9-s5" kvg:type="㇔" d="M59.17 22.26c2.23.87 7.5 4.21 8.55 6.48"/></g><g id="kvg:063c9-g6" kvg:element="了" kvg:position="bottom"><path id="kvg:063c9-s6" kvg:type="㇇" d="M47.73 33.71c.59.23 2.36.41 4.23.11 13.03-2.07 26.21-4.09 34.93-4.36 6.61-.21 2.36 4.79-1.97 8.45"/><g id="kvg:063c9-g7" kvg:element="亅"><path id="kvg:063c9-s7" kvg:type="㇚" d="M69.02 33.15c0 8.71-.03 13.87-.03 19.3.0 6.55-4.52 1.72-6.29-.33"/></g></g></g><g id="kvg:063c9-g8" kvg:element="丿"><path id="kvg:063c9-s8" kvg:type="㇒" d="M64.24 31.73c.06.54.2 1.44-.12 2.19-2.5 5.81-7.97 13.92-20.49 20.93"/></g></g><g id="kvg:063c9-g9" kvg:element="木" kvg:position="bottom"><path id="kvg:063c9-s9" kvg:type="㇐" d="M41.53 69.04c1.37.56 2.92.74 4.49.56 8.01-.92 31.54-3.12 43.65-4.21 1.56-.14 2.54.1 4.1.49"/><path id="kvg:063c9-s10" kvg:type="㇑" d="M65.92 59.33c.7.99 1.23 2.19 1.23 3.2.0 10.35.0 30.3-.18 36.46"/><path id="kvg:063c9-s11" kvg:type="㇒" d="M65.92 67.19C61.87 76.5 49.51 88.6 38.5 92.56"/><path id="kvg:063c9-s12" kvg:type="㇏" d="M67.85 67.95c3.53 3.09 20.11 18.61 23.94 21.65 1.3 1.03 2.41 1.47 3.71 1.77"/></g></g></g></g></svg>