<!DOCTYPE svg PUBLIC "-//W3C//DTD SVG 1.0//EN" "http://www.w3.org/TR/2001/REC-SVG-20010904/DTD/svg10.dtd" [
<!ATTLIST g
xmlns:kvg CDATA #FIXED "http://kanjivg.tagaini.net"
kvg:element CDATA #IMPLIED
kvg:variant CDATA #IMPLIED
kvg:partial CDATA #IMPLIED
kvg:original CDATA #IMPLIED
kvg:part CDATA #IMPLIED
kvg:number CDATA #IMPLIED
kvg:tradForm CDATA #IMPLIED
kvg:radicalForm CDATA #IMPLIED
kvg:position CDATA #IMPLIED
kvg:radical CDATA #IMPLIED
kvg:phon CDATA #IMPLIED >
<!ATTLIST path
xmlns:kvg CDATA #FIXED "http://kanjivg.tagaini.net"
kvg:type CDATA #IMPLIED >
]><svg xmlns="http://www.w3.org/2000/svg" width="109" height="109" viewBox="0 0 109 109"><g id="kvg:StrokePaths_06406" style="fill:none;stroke:#000000;stroke-width:3;stroke-linecap:round;stroke-linejoin:round;"><g id="kvg:06406" kvg:element="搆"><g id="kvg:06406-g1" kvg:element="扌" kvg:variant="true" kvg:original="手" kvg:position="left" kvg:radical="general"><path id="kvg:06406-s1" kvg:type="㇐" d="M11.5 37.92c2.08.25 1.27.55 3.5.25 5.5-.75 15.5-2 24.67-3.17"/><path id="kvg:06406-s2" kvg:type="㇚" d="M26.27 12c.48.92 1.76 2.49 1.76 5.52.0 15.23.24 59.46.24 70.9.0 14.25-6.32 3.53-7.77 2"/><path id="kvg:06406-s3" kvg:type="㇀" d="M11 67.06c.84 1 2.18 1.58 4.04.66 1.1-.54 18.66-11.19 23.31-13.81"/></g><g id="kvg:06406-g2" kvg:element="冓" kvg:position="right"><g id="kvg:06406-g3" kvg:element="三" kvg:part="1" kvg:position="top"><g id="kvg:06406-g4" kvg:element="一"><path id="kvg:06406-s4" kvg:type="㇐" d="M45.67 24.29c1.07.17 3.03.21 4.08.09 4.31-.49 27.96-2.63 38.48-3.19 1.77-.09 2.84.02 3.73.09"/></g><path id="kvg:06406-s5" kvg:type="㇑a" d="M54.77 12.39c.65.38 2.03 3.02 2.16 3.85.14.83 1.76 17.73 2.51 29.53"/><path id="kvg:06406-s6" kvg:type="㇑a" d="M75.34 10.96c1.17.5 2.09 2.91 2.04 3.73C77 21.25 76.25 32.75 75.5 44.25"/><g id="kvg:06406-g5" kvg:element="三" kvg:part="2"><g id="kvg:06406-g6" kvg:element="一"><path id="kvg:06406-s7" kvg:type="㇐" d="M47 34.65c1.29.2 3.65.21 4.93.11 10.07-.81 22.77-2.43 35.48-3.13 2.14-.12 3.43.02 4.51.11"/></g><g id="kvg:06406-g7" kvg:element="再" kvg:part="1"><g id="kvg:06406-g8" kvg:element="一"><path id="kvg:06406-s8" kvg:type="㇐" d="M41.04 46.66c1.36.31 3.86.34 5.22.2 8.67-.9 29.68-2.63 46.21-3.75 2.26-.15 3.63.06 4.76.2"/></g></g></g></g><g id="kvg:06406-g9" kvg:element="再" kvg:part="2" kvg:position="bottom"><g id="kvg:06406-g10" kvg:element="冉"><g id="kvg:06406-g11" kvg:element="冂"><path id="kvg:06406-s9" kvg:type="㇑" d="M51.36 54.94c.34.75 1.07 2.44.95 3.78-.11 1.34.11 38.19.11 40.43"/><path id="kvg:06406-s10" kvg:type="㇆a" d="M52.25 57.43c4.32-.6 29.61-3.73 30.47-3.94 1.82-.45 2.96 2.01 2.95 2.75-.09 4.58-.34 31.43-.34 34.86.0 9.15-5.4 1.54-6.9.39"/></g><g id="kvg:06406-g12" kvg:element="土" kvg:variant="true"><path id="kvg:06406-s11" kvg:type="㇑a" d="M66.77 47.29c.08.2 1.14 1.03 1.14 2.29.0 8.11.09 15.81.09 26.54"/><path id="kvg:06406-s12" kvg:type="㇐a" d="M52.47 67.91c8.43-.71 23.51-2.16 32.64-2.73"/><path id="kvg:06406-s13" kvg:type="㇐" d="M38.31 80.15c1.14.31 3.24.38 4.38.31 14.15-.87 39.38-3.64 52.03-4.05 1.9-.06 3.05.15 4 .3"/></g></g></g></g></g></g><g id="kvg:StrokeNumbers_06406" style="font-size:8;fill:#808080"><text transform="matrix(1 0 0 1 4.50 37.50)">1</text><text transform="matrix(1 0 0 1 17.50 12.50)">2</text><text transform="matrix(1 0 0 1 3.50 68.50)">3</text><text transform="matrix(1 0 0 1 42.50 21.50)">4</text><text transform="matrix(1 0 0 1 46.50 12.50)">5</text><text transform="matrix(1 0 0 1 66.25 10.50)">6</text><text transform="matrix(1 0 0 1 42.50 33.50)">7</text><text transform="matrix(1 0 0 1 38.50 43.85)">8</text><text transform="matrix(1 0 0 1 44.75 61.50)">9</text><text transform="matrix(1 0 0 1 52.50 54.50)">10</text><text transform="matrix(1 0 0 1 71.00 52.50)">11</text><text transform="matrix(1 0 0 1 54.75 64.50)">12</text><text transform="matrix(1 0 0 1 34.50 77.50)">13</text></g></svg>