<svg xmlns="http://www.w3.org/2000/svg" width="109" height="109" viewBox="0 0 109 109"><g id="kvg:StrokePaths_0640f" style="fill:none;stroke:#000000;stroke-width:3;stroke-linecap:round;stroke-linejoin:round;"><g id="kvg:0640f" kvg:element="搏"><g id="kvg:0640f-g1" kvg:element="扌" kvg:variant="true" kvg:original="手" kvg:position="left" kvg:radical="general"><path id="kvg:0640f-s1" kvg:type="㇐" d="M12.5 37.75c2.08.25 1.25.25 3.5.25 4.26.0 17.5-2.5 26.67-3.67"/><path id="kvg:0640f-s2" kvg:type="㇚" d="M29.27 13.83c.48.92 1.67 2.49 1.76 5.52.4 14.55.24 63.66.24 68.62.0 12.28-6.21 2.5-7.71 1.25"/><path id="kvg:0640f-s3" kvg:type="㇀" d="M13 65.66c1.74 1.05 2.86.57 4.6-.33C18.63 64.8 37.9 54.06 42.25 51.5"/></g><g id="kvg:0640f-g2" kvg:element="尃" kvg:position="right"><g id="kvg:0640f-g3" kvg:element="甫" kvg:position="top"><path id="kvg:0640f-s4" kvg:type="㇐" d="M46.76 24.4c1.08.38 3.05.42 4.12.38 9.36-.28 26.36-2.03 36.34-3.2 1.78-.21 2.87.18 3.76.38"/><g id="kvg:0640f-g4" kvg:element="用" kvg:variant="true"><path id="kvg:0640f-s5" kvg:type="㇑" d="M51.31 34.13c.5.49.83.98 1 1.47s-.2 21.36-.18 25.77"/><path id="kvg:0640f-s6" kvg:type="㇆" d="M53.31 36.42c5.61-.2 31.18-3.54 32.67-3.67 2.66-.24 3.66 1.59 3.33 2.32-.04 1.65-.92 12.68-.92 23.87"/><path id="kvg:0640f-s7" kvg:type="㇐" d="M53.31 45.3c7.42-.43 28.84-2.85 34.83-3.22"/><path id="kvg:0640f-s8" kvg:type="㇐" d="M53.47 54.51c5.33-.37 28.97-2.86 35.13-3.1"/><path id="kvg:0640f-s9" kvg:type="㇑" d="M67.69 11.74c.93.43 1.48 1.92 1.67 2.77s0 41.19-.18 46.51"/></g><g id="kvg:0640f-g5" kvg:element="丶"><path id="kvg:0640f-s10" kvg:type="㇔" d="M86.03 11.25c3.31 1.11 8.55 4.58 9.38 6.31"/></g></g><g id="kvg:0640f-g6" kvg:element="寸" kvg:position="bottom"><path id="kvg:0640f-s11" kvg:type="㇐" d="M41.88 71.67c1.15.58 3.24.72 4.39.58 12.69-1.61 33.36-2.82 47.35-3.7 1.91-.12 3.05.27 4.01.56"/><path id="kvg:0640f-s12" kvg:type="㇚" d="M80.94 59.8c.06.35.91 1.8.91 3.99.0 14.75-.18 26.94-.18 30.53.0 8.7-5.44 1.29-7.02.18"/><path id="kvg:0640f-s13" kvg:type="㇔" d="M54.14 78.83c2.89 1.65 7.47 6.76 8.19 9.32"/></g></g></g></g></svg>