<svg xmlns="http://www.w3.org/2000/svg" width="109" height="109" viewBox="0 0 109 109"><g id="kvg:StrokePaths_06416"><g id="kvg:06416" kvg:element="搖"><g id="kvg:06416-g1" kvg:element="扌" kvg:variant="true" kvg:original="手" kvg:position="left" kvg:radical="general"><path id="kvg:06416-s1" kvg:type="㇐" d="M13 35.25c2.08.25 1.25.25 3.5.25 4.26.0 15.5-2.5 24.67-3.67"/><path id="kvg:06416-s2" kvg:type="㇚" d="M27.63 13.33c.52.98 1.79 2.67 1.88 5.92.43 15.62-.27 64.55-.27 69.86.0 10.88-6.66 2.68-8.27 1.34"/><path id="kvg:06416-s3" kvg:type="㇀" d="M13 63.71c1.67.96 2.74.52 4.42-.3.98-.49 18.91-10.82 23.08-13.16"/></g><g id="kvg:06416-g2" kvg:element="䍃" kvg:position="right"><g id="kvg:06416-g3" kvg:element="月" kvg:position="top"><path id="kvg:06416-s4" kvg:type="㇒" d="M66.14 12.5c.85.86.22 2.84-.55 3.97C61.78 22.08 54.5 30 43.78 35.82"/><path id="kvg:06416-s5" kvg:type="㇇" d="M63.69 20.1c1.33.49 1.35.84 3.26.61 3.8-.46 11.11-1.87 14.13-2.7 2.42-.66 3.48.91 2.19 3.17-5.59 9.85-21.78 25.73-42.5 35.4"/><path id="kvg:06416-s6" kvg:type="㇔" d="M59.63 27.93c1.06.52 5.28 3.6 7.4 6.69"/><path id="kvg:06416-s7" kvg:type="㇔" d="M49.28 36.14c1.18.88 4.73 4.6 5.72 6.57"/></g><g id="kvg:06416-g4" kvg:element="缶" kvg:position="bottom"><path id="kvg:06416-s8" kvg:type="㇒" d="M57.44 49.14c.04.39.08 1-.08 1.56-.91 3.29-6.14 10.5-13.3 14.91"/><path id="kvg:06416-s9" kvg:type="㇐" d="M56.87 55.94c.67.24 1.89.29 2.56.24 8.18-.65 15.61-2.21 22.96-3.04 1.1-.12 1.78.11 2.33.23"/><path id="kvg:06416-s10" kvg:type="㇐" d="M38.63 72.39c1.08.34 3.06.39 4.13.34 11.22-.56 33.21-4.94 49.59-5.07 1.8-.01 2.88.16 3.77.33"/><path id="kvg:06416-s11" kvg:type="㇑" d="M65.22 58.38c.67.85 1.43 1.47 1.43 2.65.0 4.12-.07 27.38-.18 30.86"/><path id="kvg:06416-s12" kvg:type="㇄" d="M49.1 81c.54.28 1.1 1.46 1.08 2.03-.18 3.47-.93 5.47-2 9.03-.37 1.23-.26 2.57 1.07 2.34 12.01-2.14 29.41-3.15 36.16-3.3"/><path id="kvg:06416-s13" kvg:type="㇑" d="M85.67 76.92c.54.28 1.11 2.08 1.08 2.65-.24 3.68-.45 8.18-.45 15.57"/></g></g></g></g></svg>