<svg xmlns="http://www.w3.org/2000/svg" width="109" height="109" viewBox="0 0 109 109"><g id="kvg:StrokePaths_0643a" style="fill:none;stroke:#000000;stroke-width:3;stroke-linecap:round;stroke-linejoin:round;"><g id="kvg:0643a" kvg:element="携"><g id="kvg:0643a-g1" kvg:element="扌" kvg:variant="true" kvg:original="手" kvg:position="left" kvg:radical="general"><path id="kvg:0643a-s1" kvg:type="㇐" d="M15 39.67c1.94.23 3.76.48 5.75.17 4.58-.72 11.41-1.82 18.51-3.29.86-.18 1.74-.3 2.66-.3"/><path id="kvg:0643a-s2" kvg:type="㇚" d="M31.77 15.75c.99.99 1.51 3 1.51 5.27.0 15.23-.01 53.21-.01 64.65.0 14.25-6.32 3.53-7.77 2"/><path id="kvg:0643a-s3" kvg:type="㇀" d="M14.07 67.06c1.02.88 2.59.7 3.96-.27 4.84-3.41 9.47-6.79 20.72-14.87"/></g><g id="kvg:0643a-g2" kvg:element="隽" kvg:position="right" kvg:phon="隽"><g id="kvg:0643a-g3" kvg:element="隹" kvg:position="top"><g id="kvg:0643a-g4" kvg:element="亻" kvg:variant="true" kvg:original="人"><path id="kvg:0643a-s4" kvg:type="㇒" d="M56.33 14.43c.14 1.19-.01 2.27-.42 3.34-2.65 6.79-6.53 12.88-12.67 21.4"/><path id="kvg:0643a-s5" kvg:type="㇑" d="M51.02 28.45c.58.58.57 1.12.57 2.3.0 6.97-.03 17.27-.05 23.51.0 1.6-.01 2.93-.01 3.87"/></g><path id="kvg:0643a-s6" kvg:type="㇒" d="M74.26 12.9c.05.44.0 1.04-.14 1.43-.92 2.5-2.1 4.45-4.25 7.55"/><path id="kvg:0643a-s7" kvg:type="㇐b" d="M52.94 26.11c5.33-.76 20.34-2.29 29.3-3.47 2.99-.4 5.2-.7 5.96-.82"/><path id="kvg:0643a-s8" kvg:type="㇑a" d="M68.87 26.29c.73.73.89 1.84.89 3.02.0 4.82.15 16.3.07 23.38"/><path id="kvg:0643a-s9" kvg:type="㇐b" d="M52.36 36.06c6.77-.56 19.96-2.05 27.62-3.06 2.2-.29 3.81-.51 4.45-.6"/><path id="kvg:0643a-s10" kvg:type="㇐b" d="M52.46 45.22c5.34-.61 19.33-2.04 27.29-2.89 1.77-.19 3.54-.35 5.31-.59"/><path id="kvg:0643a-s11" kvg:type="㇐b" d="M52.35 55.12c6.53-.46 23.24-2.02 33.04-3.02 2.13-.22 4.29-.36 6.41-.72"/></g><g id="kvg:0643a-g5" kvg:element="乃" kvg:position="bottom"><g id="kvg:0643a-g6" kvg:element="丿"><path id="kvg:0643a-s12" kvg:type="㇒" d="M61.2 66.91c.33.6.32 2.1-.08 3.02-3.24 7.45-8.62 18.45-20.05 25.8"/></g><path id="kvg:0643a-s13" kvg:type="㇡" d="M46 64.8c1.67.65 3.54.64 5.26.46 7.58-.82 19.7-3.19 26.74-4.14 2.04-.28 4.12.02 2.89 2.47-6.87 13.54-10.9 10.99 8.36 8.64 2.82-.35 3.24.61 2.38 3.12-2.17 6.32-4.84 15.31-9.87 20.25-3.21 3.16-5.61.54-6.74-1.27"/></g></g></g></g></svg>