<svg xmlns="http://www.w3.org/2000/svg" width="109" height="109" viewBox="0 0 109 109"><g id="kvg:StrokePaths_0646f" style="fill:none;stroke:#000000;stroke-width:3;stroke-linecap:round;stroke-linejoin:round;"><g id="kvg:0646f" kvg:element="摯"><g id="kvg:0646f-g1" kvg:element="執" kvg:position="top"><g id="kvg:0646f-g2" kvg:element="幸" kvg:position="left"><g id="kvg:0646f-g3" kvg:element="土" kvg:position="top"><path id="kvg:0646f-s1" kvg:type="㇐" d="M18.9 17.63c.73.23 2.07.27 2.8.23 5.2-.26 17.89-1.77 22.92-1.89 1.22-.03 1.95.11 2.56.22"/><path id="kvg:0646f-s2" kvg:type="㇑a" d="M32.88 9.52c.1.19 1.39.98 1.39 2.17.0 7.76-.15 12.99-.15 14.94"/><path id="kvg:0646f-s3" kvg:type="㇐" d="M15.53 27.96c1.05.31 2.98.39 4.03.31 11.5-.93 20.08-2.21 27.86-2.39 1.75-.04 2.8.15 3.68.3"/></g><g id="kvg:0646f-g4" kvg:element="𢆉"><g id="kvg:0646f-g5" kvg:element="䒑" kvg:part="1"><path id="kvg:0646f-s4" kvg:type="㇔" d="M24.32 31.34c1.56 1.02 4.04 4.18 4.43 5.76"/><path id="kvg:0646f-s5" kvg:type="㇒" d="M42.79 29.28c.01.18.02.46-.02.71-.26 1.5-1.76 4.51-4.19 7.4"/></g><g id="kvg:0646f-g6" kvg:element="干" kvg:position="bottom"><g id="kvg:0646f-g7" kvg:element="䒑" kvg:part="2"><path id="kvg:0646f-s6" kvg:type="㇐" d="M16.89 39.87c.61.23 2.69.23 3.3.2 8.65-.37 15.77-1.23 26.03-1.69 1.01-.05 3.12-.14 3.62-.03"/></g><g id="kvg:0646f-g8" kvg:element="十"><path id="kvg:0646f-s7" kvg:type="㇐" d="M15.32 49.46c1.03.27 2.92.34 3.95.27 8.66-.66 20.21-2.31 29.07-2.73 1.71-.08 2.75.13 3.6.26"/><path id="kvg:0646f-s8" kvg:type="㇑" d="M33.7 40.59c.37.29 1.16 1.59 1.24 2.17.08.58-.05 14.13-.12 17.73"/></g></g></g></g><g id="kvg:0646f-g9" kvg:element="丸" kvg:position="right"><g id="kvg:0646f-g10" kvg:element="九"><path id="kvg:0646f-s9" kvg:type="㇒" d="M70.15 9.18c.46.4.65 1.77.61 2.49-1.17 22.78-5.01 35.08-19.91 44.18"/><g id="kvg:0646f-g11" kvg:element="乙"><path id="kvg:0646f-s10" kvg:type="㇈" d="M56.46 23.11c.83.38 3.09.13 4.12.0 1.04-.13 17.09-3.3 20.35-4.06 2.39-.56 3.74 1.22 3.1 2.65-.93 2.1-3.19 12.61-3.99 17.82-1.29 8.4-.3 12.46 8.75 12.46 8.39.0 7.24-2.47 7.24-6.96"/></g></g><g id="kvg:0646f-g12" kvg:element="丶"><path id="kvg:0646f-s11" kvg:type="㇔" d="M58.78 33.14c6.14 1.95 12.44 8.91 13.64 12.11"/></g></g></g><g id="kvg:0646f-g13" kvg:element="手" kvg:position="bottom" kvg:radical="general"><path id="kvg:0646f-s12" kvg:type="㇒" d="M67.98 53c.09.28.19.73-.18 1.14-2.2 2.4-14.8 7.65-32.05 10.87"/><path id="kvg:0646f-s13" kvg:type="㇐" d="M30.88 72.36c.94.32 2.66.4 3.6.32 11.77-.89 24.68-2.79 42.77-4.13 1.56-.12 4.1-.13 4.88.03"/><path id="kvg:0646f-s14" kvg:type="㇐" d="M18.4 81.82c1.66.41 4.69.5 6.35.41 12.5-.68 39.75-2.98 62.24-3.65 2.76-.08 4.42.19 5.8.4"/><path id="kvg:0646f-s15" kvg:type="㇁" d="M54.26 62.72c5.99 5.28 7.99 21.78 4.16 31.89-3.18 8.4-6.42 3.64-8.48.43"/></g></g></g></svg>