<!DOCTYPE svg PUBLIC "-//W3C//DTD SVG 1.0//EN" "http://www.w3.org/TR/2001/REC-SVG-20010904/DTD/svg10.dtd" [
<!ATTLIST g
xmlns:kvg CDATA #FIXED "http://kanjivg.tagaini.net"
kvg:element CDATA #IMPLIED
kvg:variant CDATA #IMPLIED
kvg:partial CDATA #IMPLIED
kvg:original CDATA #IMPLIED
kvg:part CDATA #IMPLIED
kvg:number CDATA #IMPLIED
kvg:tradForm CDATA #IMPLIED
kvg:radicalForm CDATA #IMPLIED
kvg:position CDATA #IMPLIED
kvg:radical CDATA #IMPLIED
kvg:phon CDATA #IMPLIED >
<!ATTLIST path
xmlns:kvg CDATA #FIXED "http://kanjivg.tagaini.net"
kvg:type CDATA #IMPLIED >
]><svg xmlns="http://www.w3.org/2000/svg" width="109" height="109" viewBox="0 0 109 109"><g id="kvg:StrokePaths_06469" style="fill:none;stroke:#000000;stroke-width:3;stroke-linecap:round;stroke-linejoin:round;"><g id="kvg:06469" kvg:element="摩"><g id="kvg:06469-g1" kvg:element="麻" kvg:position="tare" kvg:radical="nelson" kvg:phon="麻"><g id="kvg:06469-g2" kvg:element="广" kvg:position="tare"><path id="kvg:06469-s1" kvg:type="㇑a" d="M53.06 8.13c1.15 1.15 1.26 2.37 1.26 4.15.0.79-.07 2.46-.07 4.46"/><g id="kvg:06469-g3" kvg:element="厂"><path id="kvg:06469-s2" kvg:type="㇐" d="M23.13 19.98c2.65.95 6 .66 8.75.35 14.79-1.69 28.75-3.2 46.5-4.45 3.15-.22 6.4-.47 9.5.2"/><path id="kvg:06469-s3" kvg:type="㇒" d="M25.25 21c.88.88.97 2.3.92 4.56-.29 13.19-2.96 49.33-13.61 63.66"/></g></g><g id="kvg:06469-g4" kvg:element="林"><g id="kvg:06469-g5" kvg:element="木"><path id="kvg:06469-s4" kvg:type="㇐" d="M29.88 33.59c1.8.59 3.82.2 5.65-.02 4.59-.56 10.22-1.44 15.4-2.21 1.3-.19 2.3-.1 3.12.06"/><path id="kvg:06469-s5" kvg:type="㇑" d="M42.94 24.29c.83.83 1.1 1.96 1.1 3.08.0.39.05 14.22.06 22.13.0 3.01.0 5.16-.01 5.39"/><path id="kvg:06469-s6" kvg:type="㇒" d="M42.46 33.77c0 1.36-.57 2.53-1.31 3.95-2.93 5.56-7.78 12.28-11.4 14.91"/><path id="kvg:06469-s7" kvg:type="㇔" d="M46.88 37.75c2.9 1.42 5.99 4.26 7.65 6.75"/></g><g id="kvg:06469-g6" kvg:element="木"><path id="kvg:06469-s8" kvg:type="㇐" d="M59 30.47c1.56.5 3.59.63 5.24.5 5.74-.46 12.17-1.87 20.67-2.96 1.32-.17 2.48-.16 3.31.0"/><path id="kvg:06469-s9" kvg:type="㇑" d="M72.91 22.11c1.05 1.05 1.1 2.02 1.1 3.58.0 3.77-.07 12.8.01 20.31.02 2.09.04 3.86.04 5.07"/><path id="kvg:06469-s10" kvg:type="㇒" d="M72.7 30.44c0 1.31-.84 2.77-1.82 4.51-3.35 5.98-8.8 12.39-13.1 15.15"/><path id="kvg:06469-s11" kvg:type="㇏" d="M75.38 31.12c4 4 7.5 7.75 11.42 11.09 1.62 1.38 3.21 2.44 5.03 3.53"/></g></g></g><g id="kvg:06469-g7" kvg:element="手" kvg:position="tarec" kvg:radical="tradit"><path id="kvg:06469-s12" kvg:type="㇒" d="M67.38 51.82c-.12.67-.45 1.2-1 1.59-2.56 2.19-11.88 6.84-21.33 8.44"/><path id="kvg:06469-s13" kvg:type="㇐" d="M37.74 70.95c2.28.93 6 .21 8.27-.16 8.46-1.37 18.79-3.28 29-4.34 2.5-.26 5.14-.72 7.64-.11"/><path id="kvg:06469-s14" kvg:type="㇐" d="M31.38 83.02c3.37.73 6.03.42 9.02.08 13.18-1.45 29.73-3.35 42.97-4.38 2.83-.22 5.61-.64 8.44.06"/><path id="kvg:06469-s15" kvg:type="㇁" d="M58.62 60c6.62 5.25 7.12 25.12 3.45 35.28-2.94 8.15-7.72 1.35-8.84.68"/></g></g></g><g id="kvg:StrokeNumbers_06469" style="font-size:8;fill:#808080"><text transform="matrix(1 0 0 1 44.50 8.50)">1</text><text transform="matrix(1 0 0 1 25.50 17.50)">2</text><text transform="matrix(1 0 0 1 18.75 30.50)">3</text><text transform="matrix(1 0 0 1 30.50 30.50)">4</text><text transform="matrix(1 0 0 1 36.50 27.13)">5</text><text transform="matrix(1 0 0 1 32.50 42.50)">6</text><text transform="matrix(1 0 0 1 51.50 38.50)">7</text><text transform="matrix(1 0 0 1 57.50 27.50)">8</text><text transform="matrix(1 0 0 1 65.50 24.50)">9</text><text transform="matrix(1 0 0 1 57.75 40.63)">10</text><text transform="matrix(1 0 0 1 83.50 37.50)">11</text><text transform="matrix(1 0 0 1 51.50 56.50)">12</text><text transform="matrix(1 0 0 1 27.75 72.13)">13</text><text transform="matrix(1 0 0 1 26.50 80.50)">14</text><text transform="matrix(1 0 0 1 52.50 66.50)">15</text></g></svg>