<svg xmlns="http://www.w3.org/2000/svg" width="109" height="109" viewBox="0 0 109 109"><g id="kvg:StrokePaths_06478"><g id="kvg:06478" kvg:element="摸"><g id="kvg:06478-g1" kvg:element="扌" kvg:variant="true" kvg:original="手" kvg:position="left" kvg:radical="general"><path id="kvg:06478-s1" kvg:type="㇐" d="M12 37.42c2.08.25 1.27.55 3.5.25C21 36.92 31 35.17 40.17 34"/><path id="kvg:06478-s2" kvg:type="㇚" d="M27.77 16c.48.92 1.67 2.49 1.76 5.52.4 14.55.24 59.94.24 64.9.0 14.25-6.32 3.53-7.77 2"/><path id="kvg:06478-s3" kvg:type="㇀" d="M13 62.96c1.5 1.29 3.25 1.54 6.22-.04 1.61-.86 12.45-7.12 19.28-11.26"/></g><g id="kvg:06478-g2" kvg:element="莫" kvg:position="right"><g id="kvg:06478-g3" kvg:element="艹" kvg:variant="true" kvg:original="艸" kvg:position="top"><path id="kvg:06478-s4" kvg:type="㇐" d="M41.05 25.62c1.02.52 2.21.62 3.23.52 9.38-.95 34.69-3.92 45.51-3.99 1.7-.01 2.72.25 3.57.51"/><path id="kvg:06478-s5" kvg:type="㇑a" d="M52.75 13.98c1.38 1.42 1.82 1.85 1.97 2.72 1.38 8.16 1.77 13.08 2.17 16.04"/><path id="kvg:06478-s6" kvg:type="㇑a" d="M77.3 12.25c.33 1.16.69 2 .39 3.46-1.38 6.92-1.97 9.13-3.55 16.05"/></g><g id="kvg:06478-g4" kvg:position="bottom"><g id="kvg:06478-g5" kvg:element="日"><path id="kvg:06478-s7" kvg:type="㇑" d="M47.84 38.57c.41.52 1.14 2.27 1.21 2.97.55 5.28 3.09 17.23 3.09 17.58s.14 1.35.27 2.05"/><path id="kvg:06478-s8" kvg:type="㇕a" d="M49.73 40.14c6.18-.98 31.62-4.6 33.71-4.7 1.75-.09 2.81 2.43 2.74 2.97-.57 4.21-2.34 15.09-3.3 19.42"/><path id="kvg:06478-s9" kvg:type="㇐a" d="M50.63 48.61c3.11.0 30.54-2.86 34.06-2.86"/><path id="kvg:06478-s10" kvg:type="㇐a" d="M52.507917 59.802708c5.725-.247708 22.184375-2.494583 29.923541-3.022916"/></g><g id="kvg:06478-g6" kvg:element="大"><path id="kvg:06478-s11" kvg:type="㇐" d="M39.98 72.88c1.28.39 2.72.21 3.56.11 15.66-1.95 34.6-3.17 46.83-4.08 1.06-.08 2.96-.08 4.14-.08"/><path id="kvg:06478-s12" kvg:type="㇒" d="M65.67 60.93c-.08 1.18.41 1.06.29 2.1C63.9 80.72 57.25 91.75 37.5 96.5"/><path id="kvg:06478-s13" kvg:type="㇏" d="M65.82 70.56c6.35 5.85 20.09 19.63 26.43 23.55 2.16 1.33 2.91 1.53 3.89 1.66"/></g></g></g></g></g></svg>