<svg xmlns="http://www.w3.org/2000/svg" width="109" height="109" viewBox="0 0 109 109"><g id="kvg:StrokePaths_0647a"><g id="kvg:0647a" kvg:element="摺"><g id="kvg:0647a-g1" kvg:element="扌" kvg:original="手" kvg:position="left" kvg:radical="general"><path id="kvg:0647a-s1" kvg:type="㇐" d="M12.5 40.75C14.58 41 13.77 41.3 16 41c5.5-.75 14.5-2 23.67-3.17"/><path id="kvg:0647a-s2" kvg:type="㇚" d="M28.27 13.83c.48.92 1.67 2.49 1.76 5.52.4 14.55.24 61.44.24 66.4.0 14.25-6.32 3.53-7.77 2"/><path id="kvg:0647a-s3" kvg:type="㇀" d="M11 68.52c2.73 2.19 4.49 1.19 7.22-.69C19.83 66.72 29.67 59.31 36.5 54"/></g><g id="kvg:0647a-g2" kvg:element="習" kvg:position="right"><g id="kvg:0647a-g3" kvg:element="羽" kvg:position="top"><path id="kvg:0647a-s4" kvg:type="㇆" d="M40.75 19.07c2.1.74 1.47.74 4.55.5 6.27-.5 12.55-2.26 14.46-2.37 2.17-.12 3.42.99 3.49 3 .08 2.22-.31 23.36-.31 30.43"/><path id="kvg:0647a-s5" kvg:type="㇒/㇔" d="M53.57 21.45c.03.29.07.76-.07 1.18-.82 2.5-5.53 7.99-11.98 11.35"/><path id="kvg:0647a-s6" kvg:type="㇒/㇀" d="M58.7 30.11c.05.5.1 1.3-.09 2.02-1.12 4.25-7.58 13.58-16.42 19.28"/><path id="kvg:0647a-s7" kvg:type="㇆" d="M69.07 18.09c2.09.77 1.73.77 4.79.51 6.24-.52 13.79-2.31 15.7-2.39 4.28-.18 4.1.91 4.1 3.04.0 3.41-.52 23.88-.52 31.17"/><path id="kvg:0647a-s8" kvg:type="㇒/㇔" d="M82.13 20.97c.03.28.07.73-.07 1.14C81.2 24.51 76.3 29.77 69.59 33"/><path id="kvg:0647a-s9" kvg:type="㇒/㇀" d="M89.28 27.41c.05.47.11 1.2-.1 1.87-1.26 3.95-8.51 12.61-18.43 17.91"/></g><g id="kvg:0647a-g4" kvg:element="白" kvg:position="bottom"><g id="kvg:0647a-g5" kvg:position="top"><path id="kvg:0647a-s10" kvg:type="㇔" d="M67.2 53.25c.47.43.14 1.47-.05 1.81-1.89 3.35-4.79 7.1-8.5 10.24"/></g><g id="kvg:0647a-g6" kvg:element="日" kvg:position="bottom"><path id="kvg:0647a-s11" kvg:type="㇑" d="M50.68 65.69c.54.7 1.01 1.05 1.08 1.97.28 3.65 2.71 22.77 2.92 27.34"/><path id="kvg:0647a-s12" kvg:type="㇕a" d="M52.08 67.8c3.04-.12 29.63-3.44 32.4-3.58 2.31-.12 3.13 1.01 2.87 3.81-.43 4.46-1.18 13.37-2.61 24.55"/><path id="kvg:0647a-s13" kvg:type="㇐a" d="M53.84 79.73c6.34-.92 25.78-2.79 32.28-3.12"/><path id="kvg:0647a-s14" kvg:type="㇐a" d="M55.57 92.79c6.08.0 19.69-1.94 27.55-1.94"/></g></g></g></g></g></svg>