<svg xmlns="http://www.w3.org/2000/svg" width="109" height="109" viewBox="0 0 109 109"><g id="kvg:StrokePaths_06495" style="fill:none;stroke:#000000;stroke-width:3;stroke-linecap:round;stroke-linejoin:round;"><g id="kvg:06495" kvg:element="撕"><g id="kvg:06495-g1" kvg:element="扌" kvg:variant="true" kvg:original="手" kvg:position="left" kvg:radical="general"><path id="kvg:06495-s1" kvg:type="㇐" d="M10 35.92c2.08.25 1.27.55 3.5.25 5.5-.75 13.5-1.5 22.67-2.67"/><path id="kvg:06495-s2" kvg:type="㇚" d="M24.74 12.5c.49.93 1.78 2.52 1.78 5.59.0 15.42.25 57.16.25 68.74.0 14.43-6.4 3.58-7.86 2.03"/><path id="kvg:06495-s3" kvg:type="㇀" d="M11.5 62.1c.82.97 2.12 1.54 3.92.64 1.06-.53 16.9-9.54 21.41-12.07"/></g><g id="kvg:06495-g2" kvg:element="斯" kvg:position="right"><g id="kvg:06495-g3" kvg:element="其" kvg:position="left"><g id="kvg:06495-g4" kvg:position="top"><g id="kvg:06495-g5" kvg:element="甘"><g id="kvg:06495-g6" kvg:element="廿" kvg:part="1"><g id="kvg:06495-g7" kvg:element="十"><path id="kvg:06495-s4" kvg:type="㇐" d="M37.12 27.84c1.02.16 2.75.42 3.23.34 4.44-.68 17.76-2.68 23.21-3.25.8-.08 2.02.16 2.42.33"/><path id="kvg:06495-s5" kvg:type="㇑a" d="M44.62 15.78c.56.48.89 2.15 1 3.11s0 43.27-.11 49.24"/></g><path id="kvg:06495-s6" kvg:type="㇑a" d="M58.45 14c.56.48.89 2.15 1 3.11s0 44.14-.11 50.11"/></g><path id="kvg:06495-s7" kvg:type="㇐a" d="M45.83 41.87c2.05-.24 11.4-1.89 13.32-2.13"/><g id="kvg:06495-g8" kvg:element="廿" kvg:part="2"><path id="kvg:06495-s8" kvg:type="㇐a" d="M45.71 55.77c2.31-.24 10.63-1.65 13.33-2.13"/></g></g><path id="kvg:06495-s9" kvg:type="㇐" d="M35.47 69.68c1.03.82 2.48.53 3.19.5 5.84-.19 18.33-1.44 26.06-2.36 1.16-.14 1.87.24 2.45.49"/></g><g id="kvg:06495-g9" kvg:element="八" kvg:position="bottom"><path id="kvg:06495-s10" kvg:type="㇒" d="M45.8 77.71c.03.39.07 1.02-.07 1.59C44.9 82.65 40.15 90 33.64 94.5"/><path id="kvg:06495-s11" kvg:type="㇔/㇏" d="M55.46 76.25c2.51 1.46 6.48 5.99 7.11 8.25"/></g></g><g id="kvg:06495-g10" kvg:element="斤" kvg:position="right"><path id="kvg:06495-s12" kvg:type="㇒" d="M91.99 13.25c.04.34.18 1-.08 1.36-3.63 4.98-8.26 8.74-15.91 13.02"/><path id="kvg:06495-s13" kvg:type="㇒" d="M73.71 28.33c1.19 2.01 1.2 3.92 1.17 6.1-.1 6.59-.18 8.31-.18 16.16.0 14.36-2.53 32.12-11.2 42.22"/><path id="kvg:06495-s14" kvg:type="㇐" d="M74.91 41.8c.25.17 1.21.2 1.9.1 4.44-.65 14.77-1.74 18.94-2.27.67-.09 1.83-.17 2.25.0"/><path id="kvg:06495-s15" kvg:type="㇑" d="M86.72 44.48c.62.61.99 2.75 1.11 3.97s0 41.17-.12 48.8"/></g></g></g></g></svg>