<svg xmlns="http://www.w3.org/2000/svg" width="109" height="109" viewBox="0 0 109 109"><g id="kvg:StrokePaths_06493" style="fill:none;stroke:#000000;stroke-width:3;stroke-linecap:round;stroke-linejoin:round;"><g id="kvg:06493" kvg:element="撓"><g id="kvg:06493-g1" kvg:element="扌" kvg:variant="true" kvg:original="手" kvg:position="left" kvg:radical="general"><path id="kvg:06493-s1" kvg:type="㇐" d="M13 36.92c2.08.25 1.27.55 3.5.25 5.5-.75 14-2 23.17-3.17"/><path id="kvg:06493-s2" kvg:type="㇚" d="M27.27 14c.48.92 1.76 2.49 1.76 5.52.0 15.23.24 56.46.24 67.9.0 14.25-6.32 3.53-7.77 2"/><path id="kvg:06493-s3" kvg:type="㇀" d="M12.5 66.3c.66.79 1.72 1.25 3.19.52.86-.43 17.83-10.59 21.49-12.66"/></g><g id="kvg:06493-g2" kvg:element="堯" kvg:position="right"><g id="kvg:06493-g3" kvg:position="top"><g id="kvg:06493-g4" kvg:element="土" kvg:position="top"><path id="kvg:06493-s4" kvg:type="㇐" d="M50.18 23.03c.59.32 1.68.36 2.28.32 6.29-.36 20.23-2.42 27.92-2.71.99-.04 1.58.15 2.08.31"/><path id="kvg:06493-s5" kvg:type="㇑a" d="M65.17 12.62c.07.23 1.01 1.22 1.01 2.71.0 1.67.29 9.42.29 16.38"/><path id="kvg:06493-s6" kvg:type="㇐" d="M45.6 33.96c1.34.49 3.8.55 5.14.49C59.5 34 72.75 32.5 85 31.43c2.23-.2 3.58.23 4.69.48"/></g><g id="kvg:06493-g5" kvg:position="bottom"><g id="kvg:06493-g6" kvg:element="土" kvg:position="left"><path id="kvg:06493-s7" kvg:type="㇀/㇐" d="M40.69 48.14c.58.38 1.72.4 2.31.36 3.84-.25 14.11-1.39 18.22-2 .96-.14 2.02-.18 2.5.01"/><path id="kvg:06493-s8" kvg:type="㇑" d="M52.13 40.5c.84.5 1.51 2.23 1.51 3.25.0 7.25.02 3.25.02 14"/><path id="kvg:06493-s9" kvg:type="㇐" d="M40.34 61.19c.59.56 1.78 1.36 3.55.62 4.93-2.06 13.81-5.25 18.75-7.31"/></g><g id="kvg:06493-g7" kvg:element="土" kvg:position="right"><path id="kvg:06493-s10" kvg:type="㇐" d="M69.11 46.03c.64.32 1.81.33 2.45.32 5.93-.11 14.2-1.61 20-1.71 1.06-.02 1.7.15 2.23.31"/><path id="kvg:06493-s11" kvg:type="㇑a" d="M80.21 36.12c.07.23 1.09 1.22 1.09 2.71.0 1.67-.22 11.42-.22 18.38"/><path id="kvg:06493-s12" kvg:type="㇐" d="M67.27 58.23c.74.3 2.48.37 3.22.3C77.1 58 87.02 57 93.66 56.59c1.23-.08 1.98.15 2.59.3"/></g></g></g><g id="kvg:06493-g8" kvg:element="兀" kvg:position="bottom"><g id="kvg:06493-g9" kvg:element="一"><path id="kvg:06493-s13" kvg:type="㇐" d="M41.77 69.9c.96.37 2.73.41 3.69.37 6.71-.27 34.31-3.76 43.46-3.76 1.6.0 2.57.18 3.37.36"/></g><g id="kvg:06493-g10" kvg:element="儿" kvg:original="八"><g id="kvg:06493-g11" kvg:element="丿"><path id="kvg:06493-s14" kvg:type="㇒" d="M57.79 73.5c.06.52.04 1.33-.12 2.1-1.42 6.9-7.42 16.9-21.5 20.07"/></g><path id="kvg:06493-s15" kvg:type="㇟" d="M71.09 71.41c.55 1.04 1.02 2.26 1.02 3.85.0 2.14-.02 5.34-.02 10.19.0 8.49 2.53 10.04 12.32 10.04s11.37-1.98 11.37-8.81"/></g></g></g></g></g></svg>