<svg xmlns="http://www.w3.org/2000/svg" width="109" height="109" viewBox="0 0 109 109"><g id="kvg:StrokePaths_064bc" style="fill:none;stroke:#000000;stroke-width:3;stroke-linecap:round;stroke-linejoin:round;"><g id="kvg:064bc" kvg:element="撼"><g id="kvg:064bc-g1" kvg:element="扌" kvg:variant="true" kvg:original="手" kvg:position="left" kvg:radical="general"><path id="kvg:064bc-s1" kvg:type="㇐" d="M11 37.42c2.08.25 1.27.55 3.5.25C20 36.92 30 35.17 39.17 34"/><path id="kvg:064bc-s2" kvg:type="㇚" d="M25.64 13c.52.94 1.87 2.56 1.87 5.67.0 15.66.26 58.04.26 69.79.0 14.65-6.73 3.63-8.27 2.06"/><path id="kvg:064bc-s3" kvg:type="㇀" d="M11.5 63.86c.89 1.18 2.32 1.87 4.29.78 1.16-.64 18.2-12.13 23.13-15.22"/></g><g id="kvg:064bc-g2" kvg:element="感" kvg:position="right"><g id="kvg:064bc-g3" kvg:element="咸" kvg:position="top"><g id="kvg:064bc-g4" kvg:element="戍" kvg:part="1" kvg:variant="true" kvg:original="戌"><g id="kvg:064bc-g5" kvg:element="厂" kvg:part="1"><path id="kvg:064bc-s4" kvg:type="㇒" d="M46.63 26.73c.05 1.07 1.04 2.35.95 3.89-.81 13.06-1.84 31-12.58 41.41"/></g><g id="kvg:064bc-g6" kvg:element="戈" kvg:part="1"><g id="kvg:064bc-g7" kvg:element="弋" kvg:part="1"><g id="kvg:064bc-g8" kvg:element="厂" kvg:part="2"><path id="kvg:064bc-s5" kvg:type="㇐" d="M47.71 27.58c1.13.17 3.23.26 4.35.17 4.59-.34 21.64-2.58 31.1-3.52 1.86-.19 3.6-.09 4.54.0"/></g></g></g><g id="kvg:064bc-g9" kvg:element="一"><path id="kvg:064bc-s6" kvg:type="㇐" d="M50.02 41.61c.9.29 3.11-.03 4-.15 3.16-.4 7.24-1.77 10.14-2.03 1.48-.14 2.76-.24 3.51-.09"/></g></g><g id="kvg:064bc-g10" kvg:element="口"><path id="kvg:064bc-s7" kvg:type="㇑" d="M48.79 50.99c.29.28.59.51.72.85 1.01 2.74 2.2 7.87 2.89 12.79"/><path id="kvg:064bc-s8" kvg:type="㇕b" d="M51.11 51.65c5.95-1.08 9.98-1.31 13.39-1.67 1.25-.13 1.99.78 1.82 1.55-.74 3.2-.76 5.29-1.85 9.72"/><path id="kvg:064bc-s9" kvg:type="㇐b" d="M52.23 62.55c4-.41 7.27-.55 13.48-1.41"/></g><g id="kvg:064bc-g11" kvg:element="戍" kvg:part="2" kvg:variant="true" kvg:original="戌"><g id="kvg:064bc-g12" kvg:element="戈" kvg:part="2"><g id="kvg:064bc-g13" kvg:element="弋" kvg:part="2"><path id="kvg:064bc-s10" kvg:type="㇂" d="M67.55 11.72c1.03 1.22 1.82 1.8 2.14 4.39 3.05 24.14 10.55 42.39 22.36 51.1 4.01 2.95 3.43.98 2.92-4.45"/></g><g id="kvg:064bc-g14" kvg:element="丿"><path id="kvg:064bc-s11" kvg:type="㇒" d="M88.29 35.64c.07.82.15 2.11-.15 3.29C86.38 45.87 76.61 61.68 62.75 71"/></g><g id="kvg:064bc-g15" kvg:element="弋" kvg:part="3"><g id="kvg:064bc-g16" kvg:element="丶"><path id="kvg:064bc-s12" kvg:type="㇔" d="M82.25 12.5c2.98 1.23 7.75 4.03 9.15 6.14"/></g></g></g></g></g><g id="kvg:064bc-g17" kvg:element="心" kvg:position="bottom"><path id="kvg:064bc-s13" kvg:type="㇔" d="M43.75 79.25c.36 2.14-3.6 11.61-6.49 15.18"/><path id="kvg:064bc-s14" kvg:type="㇃" d="M51 74.25c9.14 17.41 18.03 24.32 32.35 24 11.08-.25 8.4-4.16 3.2-8.42"/><path id="kvg:064bc-s15" kvg:type="㇔a" d="M67.58 77.4c3.19 7.64 5.47 6.49 6.19 2.47"/><path id="kvg:064bc-s16" kvg:type="㇔" d="M86 75.75c4.43 2.67 7.27 5.26 10.75 9.61"/></g></g></g></g></svg>