<svg xmlns="http://www.w3.org/2000/svg" width="109" height="109" viewBox="0 0 109 109"><g id="kvg:StrokePaths_064cd" style="fill:none;stroke:#000000;stroke-width:3;stroke-linecap:round;stroke-linejoin:round;"><g id="kvg:064cd" kvg:element="操"><g id="kvg:064cd-g1" kvg:element="扌" kvg:variant="true" kvg:original="手" kvg:position="left" kvg:radical="general"><path id="kvg:064cd-s1" kvg:type="㇐" d="M13 40.42c1.75.33 3.02.53 5.25.25 5.38-.67 10.38-1.79 19.27-3.26.96-.16 1.93-.28 2.89-.4"/><path id="kvg:064cd-s2" kvg:type="㇚" d="M28.52 15c.99.99 1.51 2.5 1.51 4.52.0 15.23-.01 55.96-.01 67.4.0 14.25-6.32 3.53-7.77 2"/><path id="kvg:064cd-s3" kvg:type="㇀" d="M10.5 69.93c1.12.7 2.43.47 3.64-.32 3.61-2.36 10.61-7.36 23.61-16.11"/></g><g id="kvg:064cd-g2" kvg:element="喿" kvg:position="right" kvg:phon="品+木"><g id="kvg:064cd-g3" kvg:element="品" kvg:position="top"><g id="kvg:064cd-g4" kvg:element="口" kvg:position="top"><path id="kvg:064cd-s4" kvg:type="㇑" d="M51.77 15.1c.56.56 1.34 1.26 1.46 2.25.8 2.82 1.38 7.86 2.14 12.13.3 1.65.57 3.21.8 4.52"/><path id="kvg:064cd-s5" kvg:type="㇕b" d="M54.11 16.3c7.97-1.12 15.74-2.1 20.77-2.61 3.05-.3 5.15.04 4.25 3.56-.75 2.95-1.31 6.14-2.2 10.48"/><path id="kvg:064cd-s6" kvg:type="㇐b" d="M56.75 31.52c5.5-.77 11.9-1.9 18.5-2.54 1.12-.11 2.25.04 3.36-.06"/></g><g id="kvg:064cd-g5" kvg:position="bottom"><g id="kvg:064cd-g6" kvg:element="口" kvg:position="left"><path id="kvg:064cd-s7" kvg:type="㇑" d="M44.5 41.18c.6.6.98 1.65 1.22 2.7.9 3.87 1.25 5.88 1.78 9.34.22 1.45.67 3.09.83 4.28"/><path id="kvg:064cd-s8" kvg:type="㇕b" d="M46.68 42.23c5.19-.98 8.69-1.73 12.58-2.35 2.7-.43 3.94.56 3.36 3.38-.61 2.94-1.07 5.23-1.93 8.98"/><path id="kvg:064cd-s9" kvg:type="㇐b" d="M48.96 55.12c3.1-.34 4.62-.97 9.56-1.44.98-.09 2.03-.19 3.18-.29"/></g><g id="kvg:064cd-g7" kvg:element="口" kvg:position="right"><path id="kvg:064cd-s10" kvg:type="㇑" d="M70.28 38.29c.84.46 1.12 1.29 1.33 2.3 1.01 4.91 1.12 5.73 1.77 9.39.21 1.21.4 2.4.55 3.52"/><path id="kvg:064cd-s11" kvg:type="㇕b" d="M72.07 39.15c6.44-.93 12.4-1.64 15.96-2.05 2.44-.28 3.31.29 2.78 2.76-.67 3.05-1.19 5.79-2.13 9.84"/><path id="kvg:064cd-s12" kvg:type="㇐b" d="M75.12 52.35c5.01-.73 5.83-1.03 11.16-1.47 1.17-.09 2.49-.19 4.03-.27"/></g></g></g><g id="kvg:064cd-g8" kvg:element="木" kvg:position="bottom"><path id="kvg:064cd-s13" kvg:type="㇐" d="M43.22 66.48c2.5.56 5.36.51 7.9.19 9.26-1.17 25.72-3.35 36.63-4.08 2.17-.14 4.5-.09 6.71.1"/><path id="kvg:064cd-s14" kvg:type="㇑" d="M67.64 57.59c.82.82 1.23 1.73 1.23 2.53.0 5.73-.05 21.88-.06 32.38.0 1.88.0 3.59.0 5.02"/><path id="kvg:064cd-s15" kvg:type="㇒" d="M65.66 65.76c0 1.37-.85 2.68-2.07 4.42C58 78.07 50.12 85.88 41.04 90.85"/><path id="kvg:064cd-s16" kvg:type="㇏" d="M69.66 65.12C73 68.75 84.54 79.48 91 85.26c1.46 1.31 3.75 2.99 5.96 4.27"/></g></g></g></g></svg>