<svg xmlns="http://www.w3.org/2000/svg" width="109" height="109" viewBox="0 0 109 109"><g id="kvg:StrokePaths_064da"><g id="kvg:064da" kvg:element="據"><g id="kvg:064da-g1" kvg:element="扌" kvg:variant="true" kvg:original="手" kvg:position="left" kvg:radical="general"><path id="kvg:064da-s1" kvg:type="㇐" d="M11.5 34.75c2.08.25 1.25.25 3.5.25 4.26.0 14-2 23.17-3.17"/><path id="kvg:064da-s2" kvg:type="㇚" d="M25.27 11.83c.48.92 1.67 2.49 1.76 5.52.4 14.55-.26 67.66-.26 72.62.0 10.03-6.71 2-8.21.75"/><path id="kvg:064da-s3" kvg:type="㇀" d="M11.5 63.23c2.58 1.81 4.23.98 6.81-.57 1.52-.91 13.75-9.03 20.19-13.42"/></g><g id="kvg:064da-g2" kvg:element="豦" kvg:position="right"><g id="kvg:064da-g3" kvg:element="虍" kvg:position="tare"><path id="kvg:064da-s4" kvg:type="㇑a" d="M61.52 10.58c.98.92 1.76 1.99 1.76 5.02.0 5.9-.02 7.19-.02 12.15"/><path id="kvg:064da-s5" kvg:type="㇐b" d="M63.35 19.06c8.56-.99 12.42-1.64 16.88-2.43 1.4-.25 3.91-.18 5.52.14"/><path id="kvg:064da-s6" kvg:type="㇒" d="M46.37 28.18c.53.57.65 2.73.58 4.82C46.24 55 43.77 77.25 33.5 92.15"/><path id="kvg:064da-s7" kvg:type="㇖a" d="M47.24 30.35c.99.16 2.78-.1 4.38-.33 13.63-2.01 28.63-4.26 35.2-4.49 10.29-.36 2.68 7.11.12 8.91"/><g id="kvg:064da-g4" kvg:element="七"><g id="kvg:064da-g5" kvg:element="一"><path id="kvg:064da-s8" kvg:type="㇐" d="M52 40.07c.66.15 1.88.18 2.54.15 6.66-.35 16.43-3.01 23.88-3.9 1.09-.13 1.77.07 2.32.14"/></g><path id="kvg:064da-s9" kvg:type="㇟a" d="M64.25 32.68c.49.28.27 1 .43 1.36.16.37-.09 5.98-.09 7.34.0 3.9 1.41 5.88 9.24 5.88 5.67.0 8.19-1 10.42-1.55"/></g></g><g id="kvg:064da-g6" kvg:element="豕" kvg:position="tarec"><path id="kvg:064da-s10" kvg:type="㇐" d="M51.7 55.01c.9.16 2.56.18 3.47.16 10-.27 18.77-1.77 30.06-2.25 1.49-.06 2.41.07 3.17.15"/><path id="kvg:064da-s11" kvg:type="㇒" d="M67.81 56.24c.05.31.1.8-.1 1.25-1.16 2.63-7.81 8.41-16.91 11.94"/><path id="kvg:064da-s12" kvg:type="㇁" d="M64.72 62.17c6.3 3.01 11.44 19.82 6.52 31.92-1.47 3.62-5.45.61-6.23.03"/><path id="kvg:064da-s13" kvg:type="㇒" d="M66.62 66.94c.05.35.11.89-.1 1.39-1.26 2.94-8.46 9.38-18.33 13.33"/><path id="kvg:064da-s14" kvg:type="㇒" d="M68.96 76.11c.06.38.26 1.05-.13 1.54-2.87 3.62-10.44 10.37-22.6 14.73"/><path id="kvg:064da-s15" kvg:type="㇒" d="M84.41 59.86c.03.26.06.68-.06 1.06-.74 2.23-4.98 7.12-10.78 10.12"/><path id="kvg:064da-s16" kvg:type="㇏" d="M71.44 70.64c5.22 5.33 9.87 9.12 17.35 15.28 2.61 2.14 4.13 2.74 6.45 3.33"/></g></g></g></g></svg>