<svg xmlns="http://www.w3.org/2000/svg" width="109" height="109" viewBox="0 0 109 109"><g id="kvg:StrokePaths_064e6" style="fill:none;stroke:#000000;stroke-width:3;stroke-linecap:round;stroke-linejoin:round;"><g id="kvg:064e6" kvg:element="擦"><g id="kvg:064e6-g1" kvg:element="扌" kvg:variant="true" kvg:original="手" kvg:position="left" kvg:radical="general"><path id="kvg:064e6-s1" kvg:type="㇐" d="M11.75 37.42c2.27.27 4.33.43 6.64-.08 4.41-.98 9.11-1.96 15.36-3.34.97-.22 1.96-.21 2.92-.24"/><path id="kvg:064e6-s2" kvg:type="㇚" d="M25.52 13.5c1.05 1.05 1.51 2.75 1.51 4.77.0 15.23-.01 54.21-.01 65.65.0 14.25-6.32 3.53-7.77 2"/><path id="kvg:064e6-s3" kvg:type="㇀" d="M10.13 63.25c1.12 1 2.84.76 4.42-.3 4.96-3.33 8.96-6.46 20.21-14.54"/></g><g id="kvg:064e6-g2" kvg:element="察" kvg:position="right" kvg:phon="察"><g id="kvg:064e6-g3" kvg:element="宀" kvg:position="top"><path id="kvg:064e6-s4" kvg:type="㇑a" d="M65.53 12.29c.9.9 1.17 2.09 1.17 3.52.0 1.57-.06 3.81-.06 7.04"/><g id="kvg:064e6-g4" kvg:element="冖"><path id="kvg:064e6-s5" kvg:type="㇔" d="M44.65 25.66c0 2.65-1.84 9.93-2.67 11.69"/><path id="kvg:064e6-s6" kvg:type="㇖b" d="M45.36 26.91c8.76-1.28 37.03-4.36 41.7-4.45 11.44-.21.9 6.63-.27 7.42"/></g></g><g id="kvg:064e6-g5" kvg:element="祭" kvg:position="bottom"><g id="kvg:064e6-g6" kvg:position="top"><g id="kvg:064e6-g7" kvg:element="月"><path id="kvg:064e6-s7" kvg:type="㇒" d="M53.66 31.9c.46 1.22-.24 2.62-.83 3.63-1.96 3.34-7.21 11.2-11.44 14.75"/><path id="kvg:064e6-s8" kvg:type="㇇a" d="M55 36.9c1.93-.19 4.51-.99 7.52-1.71 2.74-.66 3.68.62 3.01 2.52C62.74 45.64 53.66 56.45 39.25 64"/><path id="kvg:064e6-s9" kvg:type="㇔/㇐" d="M51.38 42.75c.64.25 2.41 1.73 3.68 3.21"/><path id="kvg:064e6-s10" kvg:type="㇔/㇐" d="M46.12 48.5c.86.52 2.58 2.72 3.29 3.88"/></g><path id="kvg:064e6-s11" kvg:type="㇇" d="M69.45 37.14c1.65.56 3.19.37 4.43.0s5.38-1.38 9.34-2.36c1.67-.41 3.1.61 1.96 2.68C83 41.38 76.92 47.71 72.59 50.89"/><path id="kvg:064e6-s12" kvg:type="㇏" d="M68.51 43.23c2.49.0 17.04 11.29 18.65 12.37 1.61 1.08 5.54 3.23 7.86 3.77"/></g><g id="kvg:064e6-g8" kvg:element="示" kvg:position="bottom"><path id="kvg:064e6-s13" kvg:type="㇐" d="M54.22 61.71c1.78.41 3.46.19 5.07-.06 4.1-.64 9.62-1.36 14.09-1.81 1.68-.17 3.38-.29 5.05.09"/><path id="kvg:064e6-s14" kvg:type="㇐" d="M44.78 72.7c2.47.83 5.43.32 7.97.07 6.86-.69 19.03-2.05 27.87-2.44 2.68-.12 5.41-.27 8.06.26"/><path id="kvg:064e6-s15" kvg:type="㇑" d="M66.17 73.66c.64.65 1.01 1.71 1.01 3.38.0 6.71.04 11.65.04 15.36.0 7.34-4.79.87-6-.06"/><path id="kvg:064e6-s16" kvg:type="㇒" d="M53.44 80.67c.1.94.02 1.28-.58 2.04-2.33 2.94-6.32 6.41-12.97 10.03"/><path id="kvg:064e6-s17" kvg:type="㇔" d="M76.38 79.97c3.88 1.88 10.22 7.53 11.19 10.46"/></g></g></g></g></g></svg>