<svg xmlns="http://www.w3.org/2000/svg" width="109" height="109" viewBox="0 0 109 109"><g id="kvg:StrokePaths_064ec" style="fill:none;stroke:#000000;stroke-width:3;stroke-linecap:round;stroke-linejoin:round;"><g id="kvg:064ec" kvg:element="擬"><g id="kvg:064ec-g1" kvg:element="扌" kvg:variant="true" kvg:original="手" kvg:position="left" kvg:radical="general"><path id="kvg:064ec-s1" kvg:type="㇐" d="M13.25 39.92c1.84.22 3.48.27 5.38-.03 4.43-.71 10.09-2.06 16.6-3.25.71-.13 1.52-.14 2.19-.14"/><path id="kvg:064ec-s2" kvg:type="㇚" d="M27.02 16c1.18 1.18 1.76 2.75 1.76 4.52.0 15.23-.01 52.96-.01 64.4.0 14.25-6.32 3.53-7.77 2"/><path id="kvg:064ec-s3" kvg:type="㇀" d="M12 66.51c.99.99 2.5 1.24 4.18-.2 4.62-3.97 6.7-6.31 18.32-16.64"/></g><g id="kvg:064ec-g2" kvg:element="疑" kvg:position="right" kvg:phon="疑"><g id="kvg:064ec-g3" kvg:position="left"><g id="kvg:064ec-g4" kvg:element="匕"><path id="kvg:064ec-s4" kvg:type="㇒" d="M57.4 21.75c.1.88-.43 1.64-.92 2.02-1.82 1.4-5.72 3.21-9.85 4.86"/><path id="kvg:064ec-s5" kvg:type="㇟" d="M43.02 13.8c.71.71.98 1.62.98 2.58.0.6.04 17.67.04 19.52.0 4.76 1.34 5.69 8.19 5.69 7.4.0 7.76-1.58 7.76-5.77"/></g><g id="kvg:064ec-g5" kvg:element="矢" kvg:variant="true"><path id="kvg:064ec-s6" kvg:type="㇒" d="M46.25 48c.03.47.06 1.21-.06 1.88-.66 3.97-3.67 10.08-8.69 16.37"/><g id="kvg:064ec-g6" kvg:element="天" kvg:variant="true"><path id="kvg:064ec-s7" kvg:type="㇐" d="M44.59 58.03c.91.0 1.7-.14 2.93-.46 2.99-.77 5.6-1.65 8.05-2.19.91-.2 1.49-.26 1.95-.15"/><g id="kvg:064ec-g7" kvg:element="大" kvg:variant="true"><path id="kvg:064ec-s8" kvg:type="㇐" d="M35.61 72.44c1.27.55 3.45.29 4.76.06 5.9-1.06 11.55-2.5 16.26-3.14 1.33-.18 2.6-.37 3.93-.05"/><path id="kvg:064ec-s9" kvg:type="㇒" d="M50.1 60.23c.65.65.69 1.76.6 2.78-.95 11.74-4.45 24.12-15.2 31.49"/><path id="kvg:064ec-s10" kvg:type="㇔/㇏" d="M51.38 76.5c2.84 1.13 4.86 3.82 6.12 5.75"/></g></g></g></g><g id="kvg:064ec-g8" kvg:position="right"><g id="kvg:064ec-g9" kvg:element="マ"><path id="kvg:064ec-s11" kvg:type="㇇" d="M64.71 22.49c2.54.64 4.82-.03 6.18-.42 4.55-1.31 12.33-3.84 13.63-4.12 1.68-.36 2.54.95 1.83 2.52-.71 1.56-8.05 12.67-9.11 14.11"/><path id="kvg:064ec-s12" kvg:type="㇔" d="M71.12 32.5c1.77.94 6.75 4.95 7.59 7.41"/></g><g id="kvg:064ec-g10" kvg:element="疋"><path id="kvg:064ec-s13" kvg:type="㇖a" d="M61.74 47.57c1.89.46 3.54.35 5.43-.02 7.37-1.48 14.55-3.3 22.97-5.28 5.4-1.27 2.12 4.73-.84 7.77"/><g id="kvg:064ec-g11" kvg:element="卜" kvg:original="ト"><path id="kvg:064ec-s14" kvg:type="㇑a" d="M76.45 47.41c.94.94 1.21 2.21 1.21 3.65.0 3.57-.04 26.13-.04 31.82"/><path id="kvg:064ec-s15" kvg:type="㇐b" d="M78.62 65c2.97-.57 6.35-1.14 10.56-2.16.65-.16 2.36-.45 3.1-.14"/></g><g id="kvg:064ec-g12" kvg:element="人"><path id="kvg:064ec-s16" kvg:type="㇒" d="M67.78 60.11c.47.89.59 2.15.42 3.34-1.03 7.04-5.23 24.02-15.44 31.8"/><path id="kvg:064ec-s17" kvg:type="㇏" d="M66.82 74.94c3.76 3 13.99 11.81 20.39 16.86 2.35 1.85 4.42 3.45 7.54 4.7"/></g></g></g></g></g></g></svg>