<svg xmlns="http://www.w3.org/2000/svg" width="109" height="109" viewBox="0 0 109 109"><g id="kvg:StrokePaths_064e0" style="fill:none;stroke:#000000;stroke-width:3;stroke-linecap:round;stroke-linejoin:round;"><g id="kvg:064e0" kvg:element="擠"><g id="kvg:064e0-g1" kvg:element="扌" kvg:variant="true" kvg:original="手" kvg:position="left" kvg:radical="general"><path id="kvg:064e0-s1" kvg:type="㇐" d="M13 35.92c2.08.25 1.27.55 3.5.25 5.5-.75 13.5-2 22.67-3.17"/><path id="kvg:064e0-s2" kvg:type="㇚" d="M26.77 12.5c.48.92 1.76 2.49 1.76 5.52.0 15.23.24 58.96.24 70.4.0 14.25-6.32 3.53-7.77 2"/><path id="kvg:064e0-s3" kvg:type="㇀" d="M11 62.63c.92.94 2.39 1.49 4.43.62 1.2-.51 19.48-10.88 24.57-13.33"/></g><g id="kvg:064e0-g2" kvg:element="齊" kvg:position="right"><g id="kvg:064e0-g3" kvg:element="亠" kvg:position="top"><path id="kvg:064e0-s4" kvg:type="㇑a" d="M65.49 9.25c.64.42 1.7 2.05 1.7 2.89.0 3.09-.2 7-.08 9.62"/><path id="kvg:064e0-s5" kvg:type="㇐" d="M42.23 23.69c1.43.34 2.68.59 4.33.48 10.02-.67 33.5-3.68 44.89-4.38 1.68-.1 2.53.04 3.78.61"/></g><g id="kvg:064e0-g4" kvg:position="bottom"><path id="kvg:064e0-s6" kvg:type="㇔" d="M58.77 27.58c2.14.99 5.53 4.09 6.07 5.63"/><path id="kvg:064e0-s7" kvg:type="㇒" d="M74.52 24.64c.02.26.03.67-.03 1.05-.4 2.21-2.71 7.06-5.87 10.03"/><path id="kvg:064e0-s8" kvg:type="㇑" d="M67.31 38.33c.35.4.59.86.62 2.17.14 6.28-.01 14.11-.01 16.25"/><g id="kvg:064e0-g5" kvg:element="刀"><path id="kvg:064e0-s9" kvg:type="㇆" d="M44.1 37.19c.5.24 1.56.21 2 .13 3.55-.68 10.67-1.99 12.64-2.24 1.28-.16 1.7.74 1.57 1.87-.74 6.3-2.77 11.55-5.03 16.34-1.18 2.51-2.56 1.71-3.42-.24"/><path id="kvg:064e0-s10" kvg:type="㇒" d="M51.34 37.02c.03.51.08 1.31-.06 2.03-1.05 5.36-5.48 12.94-11.13 19.45"/></g><path id="kvg:064e0-s11" kvg:type="㇒" d="M90.49 26.39c.03.22.06.56-.06.87-.72 1.84-5.53 6.35-11.21 8.83"/><path id="kvg:064e0-s12" kvg:type="㇙" d="M76.96 35.77c.34.61.59 1.43.59 2.34.0.92-.08 12.32-.08 13.75s.08 1.83 1.17.81c1.09-1.02 6.83-5.56 7.5-6.17"/><path id="kvg:064e0-s13" kvg:type="㇏" d="M85.44 33.61c1.72 4.33 4.79 10.54 8.9 15.15.99 1.11 2.36 1.83 3.66 2.49"/><path id="kvg:064e0-s14" kvg:type="㇒" d="M51.31 59.82c.91.51 1.24 1.83 1.24 2.39.0 3.02-.17 12.74-.28 13.91-.6 6.66-2.91 15.71-11.9 21.35"/><g id="kvg:064e0-g6" kvg:element="二"><path id="kvg:064e0-s15" kvg:type="㇐" d="M52.99 67.82c4.08-.57 32.65-3.07 35.53-3.32"/><path id="kvg:064e0-s16" kvg:type="㇐" d="M52.16 79.13c3.67-.13 31.42-2.38 36.33-2.59"/></g><path id="kvg:064e0-s17" kvg:type="㇑" d="M87.26 56.51c.57.56 1.5 2.71 1.5 3.83.0 4.4-.02 36.65-.08 39.8"/></g></g></g></g></svg>