<svg xmlns="http://www.w3.org/2000/svg" width="109" height="109" viewBox="0 0 109 109"><g id="kvg:StrokePaths_064e7"><g id="kvg:064e7" kvg:element="擧"><g id="kvg:064e7-g1" kvg:element="與" kvg:position="top" kvg:phon="與"><g id="kvg:064e7-g2" kvg:position="top"><path id="kvg:064e7-s1" kvg:type="㇐" d="M50.29 18.55c4.86-.22 7.04-1.52 10.25-1.74.91-.06 1.75.08 2.21.16"/><path id="kvg:064e7-s2" kvg:type="㇞" d="M51.02 9.05c.79.73.67 2.73.16 3.89-.59 1.33-2.42 9.31-3.66 13.74-.54 1.94.24 2.31 2.6 1.83 1.68-.34 4.64-.86 8.87-1.25 1.77-.16 3.18.68 2.87 2.01-1.58 6.8-2.35 12.33-3.61 20.64"/><path id="kvg:064e7-s3" kvg:type="㇑" d="M48.37 34.14c1.09.38 1.92 1.67 1.96 2.44.17 3.17-.08 7.77-.08 13.79"/><g id="kvg:064e7-g3" kvg:element="𦥑" kvg:variant="true" kvg:original="臼"><path id="kvg:064e7-s4" kvg:type="㇒" d="M39.11 10.64c.03.2.1.57-.05.8-1.93 2.8-4.78 5.37-9.81 7.63"/><path id="kvg:064e7-s5" kvg:type="㇑" d="M25.37 19.35c1.09.38 1.82 1.68 1.96 2.44.42 2.26 2.17 22.81 2.92 29.77"/><path id="kvg:064e7-s6" kvg:type="㇐" d="M28.25 29.57c3.48-.39 6.94-1.15 9.78-1.57 1.25-.19 2.78-.31 3.47-.31"/><path id="kvg:064e7-s7" kvg:type="㇐" d="M29 39.35c4-.38 6.97-1.01 10.02-1.21 1.07-.07 2.51-.11 3.23-.11"/><path id="kvg:064e7-s8" kvg:type="㇕" d="M69.6 15.89c1.4.01 2.34.41 4.23.09 4.93-.83 10.02-3.12 10.59-3.12 1.61.0 2.45.89 2.1 2.06C85 20.11 83 41.6 82 48.75"/><path id="kvg:064e7-s9" kvg:type="㇐" d="M70 25.81c.71.12 2.17.53 3.25.51 3.87-.08 10.27-1.51 11.25-1.51"/><path id="kvg:064e7-s10" kvg:type="㇐" d="M69.5 37.53c.62.1 2.3.53 3 .55 3.27.1 8-.86 11-1.05"/></g><path id="kvg:064e7-s11" kvg:type="㇐" d="M12.25 51.75c1.57.48 4.44.57 6.01.48 12.32-.66 55.18-3.34 75-3.78 2.61-.06 4.18.23 5.49.47"/></g><g id="kvg:064e7-g4" kvg:element="八" kvg:position="bottom"><g id="kvg:064e7-g5" kvg:position="left"><path id="kvg:064e7-s12" kvg:type="㇒" d="M40.24 53.19c.07.58.31 1.56-.14 2.32C37 60.75 28.75 68.75 15.31 77.72"/></g><g id="kvg:064e7-g6" kvg:position="right"><path id="kvg:064e7-s13" kvg:type="㇏" d="M65.75 51.5c3.51 2.87 20 17.28 23.81 20.11 1.29.96 2.4 1.37 3.69 1.64"/></g></g></g><g id="kvg:064e7-g7" kvg:element="手" kvg:position="bottom" kvg:radical="general"><path id="kvg:064e7-s14" kvg:type="㇒" d="M64.5 58c.07.2.15.52-.14.8-1.77 1.7-11.94 5.42-25.85 7.71"/><path id="kvg:064e7-s15" kvg:type="㇐" d="M34.38 73.36c.94.32 2.66.4 3.6.32 11.77-.89 13.18-1.29 31.27-2.63 1.56-.12 4.1-.13 4.88.03"/><path id="kvg:064e7-s16" kvg:type="㇐" d="M24.9 83.79c1.26.44 3.57.53 4.83.44 9.52-.72 34.27-3.47 51.89-3.9 2.1-.05 3.36.21 4.41.42"/><path id="kvg:064e7-s17" kvg:type="㇁" d="M52.38 63.72c5.87 7.84 9.62 20.78 6.45 30.1-2.78 8.18-6.58 3.93-9.89.89"/></g></g></g></svg>