<svg xmlns="http://www.w3.org/2000/svg" width="109" height="109" viewBox="0 0 109 109"><g id="kvg:StrokePaths_064fd"><g id="kvg:064fd" kvg:element="擽"><g id="kvg:064fd-g1" kvg:element="扌" kvg:variant="true" kvg:original="手" kvg:position="left" kvg:radical="general"><path id="kvg:064fd-s1" kvg:type="㇐" d="M10.5 41.92c2.08.25 1.27.55 3.5.25 5.5-.75 15.5-2.5 24.67-3.67"/><path id="kvg:064fd-s2" kvg:type="㇚" d="M26.27 16c.48.92 1.76 2.49 1.76 5.52.0 15.23.24 54.46.24 65.9.0 14.25-6.32 3.53-7.77 2"/><path id="kvg:064fd-s3" kvg:type="㇀" d="M10.5 67.99c.79 1.06 2.05 1.68 3.79.7 1.03-.58 17.61-13.01 21.96-15.78"/></g><g id="kvg:064fd-g2" kvg:element="樂" kvg:position="right"><g id="kvg:064fd-g3" kvg:position="top"><g id="kvg:064fd-g4" kvg:element="白"><g id="kvg:064fd-g5" kvg:position="top"><path id="kvg:064fd-s4" kvg:type="㇔" d="M69.03 10.75c.15.43.17.97.13 1.35-.21 2.24-1.99 7.59-3.6 10.59"/></g><g id="kvg:064fd-g6" kvg:element="日" kvg:position="bottom"><path id="kvg:064fd-s5" kvg:type="㇑" d="M60.58 23.06c.39.69.92 2.01.92 2.9.0.89-.09 22.55.02 26.96"/><path id="kvg:064fd-s6" kvg:type="㇕a" d="M61.27 24.14c1.51-.11 11.01-1.91 12.38-2.04 1.14-.11 1.88.75 1.79 1.41-.18 1.34.06 22.78-.08 29.92"/><path id="kvg:064fd-s7" kvg:type="㇐a" d="M62.2 37.64c2.04.0 10.58-1.6 12.88-1.6"/><path id="kvg:064fd-s8" kvg:type="㇐a" d="M61.96 51.69c3.01.0 8.7-.94 12.6-.94"/></g></g><g id="kvg:064fd-g7" kvg:element="幺"><path id="kvg:064fd-s9" kvg:type="㇜" d="M50.16 14.37c.19 1.1.35 2.02-.09 3.11-1.96 4.75-5.24 10.19-7.11 12.75-.38.52-.37 2.53.0 2.74 1.97 1.1 4.76 2.29 7.35 3.93"/><path id="kvg:064fd-s10" kvg:type="㇜" d="M55.52 26.78c.19.48.25 2.04.0 2.54-3.67 7.43-9 16.18-14.25 24.33-.65 1-.38 2.09.37 1.77 3.13-1.33 9.4-4.13 13.43-5.4"/><path id="kvg:064fd-s11" kvg:type="㇔" d="M52.23 45.69c1.74 1.87 4.5 7.7 4.94 10.62"/></g><g id="kvg:064fd-g8" kvg:element="幺"><path id="kvg:064fd-s12" kvg:type="㇜" d="M89.15 14.37c.19 1.05.35 1.94-.09 2.98-1.96 4.56-4.24 11.22-6.11 13.68-.38.5-.37 2.43.0 2.63 1.96 1.05 5.78 2.31 7.46 4.24"/><path id="kvg:064fd-s13" kvg:type="㇜" d="M96.51 26.28c.19.45.29 1.96.0 2.4-3.93 6.08-8.96 15.69-13.75 23.54-.6.99-.38 2 .37 1.7 3.13-1.25 8.24-3.4 12.27-4.6"/><path id="kvg:064fd-s14" kvg:type="㇔" d="M92.89 45.19c1.87 1.87 4.84 7.7 5.31 10.62"/></g></g><g id="kvg:064fd-g9" kvg:element="木" kvg:position="bottom"><path id="kvg:064fd-s15" kvg:type="㇐" d="M39.28 67.63c.68.2 2.5.64 4.33.6 7.41-.17 34.94-2.74 49.93-3.93 1.81-.15 2.28-.2 3.42.0"/><path id="kvg:064fd-s16" kvg:type="㇑" d="M67.12 57.5c.69.28 1.11 1.24 1.24 1.79s0 35.77-.14 39.21"/><path id="kvg:064fd-s17" kvg:type="㇒" d="M66.69 66.75C60 77 50.25 88.25 35.88 95"/><path id="kvg:064fd-s18" kvg:type="㇏" d="M69.18 66.11c4.88 6.38 15.96 17.92 23 22.67 1.39.94 2.39 1.64 3.68 1.97"/></g></g></g></g></svg>