<svg xmlns="http://www.w3.org/2000/svg" width="109" height="109" viewBox="0 0 109 109"><g id="kvg:StrokePaths_06518"><g id="kvg:06518" kvg:element="攘"><g id="kvg:06518-g1" kvg:element="扌" kvg:variant="true" kvg:original="手" kvg:position="left" kvg:radical="general"><path id="kvg:06518-s1" kvg:type="㇐" d="M11.5 37.42c2.08.25 1.27.55 3.5.25 5.5-.75 15-2 24.17-3.17"/><path id="kvg:06518-s2" kvg:type="㇚" d="M25.27 14c.48.92 1.76 2.49 1.76 5.52.0 15.23.24 56.46.24 67.9.0 14.25-6.32 3.53-7.77 2"/><path id="kvg:06518-s3" kvg:type="㇀" d="M11.5 64.1c.78.97 2.01 1.54 3.72.64 1.01-.53 17.98-11.04 22.26-13.57"/></g><g id="kvg:06518-g2" kvg:element="襄" kvg:position="right"><g id="kvg:06518-g3" kvg:element="衣" kvg:part="1"><g id="kvg:06518-g4" kvg:element="亠" kvg:position="top"><path id="kvg:06518-s4" kvg:type="㇑a" d="M64.55 11c.58.39 1.54 1.74 1.54 2.64.0 1.48-.08 4.76-.08 6.38"/><path id="kvg:06518-s5" kvg:type="㇐" d="M38.78 22.96c1.02.1 3.35.61 4.35.52 11.08-1.09 35.82-3.77 46.73-4.05 1.69-.04 2.54.04 3.8.66"/></g></g><g id="kvg:06518-g5" kvg:element="口" kvg:position="left"><path id="kvg:06518-s6" kvg:type="㇑" d="M44.6 29.55c.25.2.54.36.62.62.83 2.63 1.5 6.5 2.1 10.08"/><path id="kvg:06518-s7" kvg:type="㇕b" d="M46.17 30.9c5.15-1.04 10.92-2.16 13.87-2.42 1.08-.1 1.73.57 1.57 1.13-.64 2.33-.88 4.15-1.83 7.36"/><path id="kvg:06518-s8" kvg:type="㇐b" d="M47.44 39c3.47-.3 8.66-1.29 13.42-1.74"/></g><g id="kvg:06518-g6" kvg:element="口" kvg:position="right"><path id="kvg:06518-s9" kvg:type="㇑" d="M69 27.33c.24.2.49.37.6.62.84 1.99 1.45 7.48 2.03 11.05"/><path id="kvg:06518-s10" kvg:type="㇕b" d="M70.52 28.68c4.98-1.04 12.64-2.19 15.49-2.45 1.04-.1 1.67.57 1.52 1.13-.62 2.33-1.74 4.61-2.66 7.83"/><path id="kvg:06518-s11" kvg:type="㇐b" d="M71.75 37.25c3.35-.3 10.37-1.33 14.97-1.78"/></g><g id="kvg:06518-g7" kvg:element="三" kvg:part="1"><g id="kvg:06518-g8" kvg:element="一" kvg:position="top"><path id="kvg:06518-s12" kvg:type="㇐" d="M46.2 47.72c.81.25 3.15.3 3.96.25 7.39-.47 27.54-2.78 35.48-3.34 1.34-.09 2.16.12 2.83.24"/></g></g><path id="kvg:06518-s13" kvg:type="㇑" d="M56.52 42.94c1.11.46 1.62 2.5 1.62 3.46.0 3.1.8 10.1.8 17.51"/><path id="kvg:06518-s14" kvg:type="㇑" d="M76.25 41.25c.9.91.83 2 .73 3.42-.39 5.58-.58 10.33-1.12 17.46"/><g id="kvg:06518-g9" kvg:element="三" kvg:part="1" kvg:position="bottom"><g id="kvg:06518-g10" kvg:element="一"><path id="kvg:06518-s15" kvg:type="㇐" d="M44.82 55.96c.95.41 3.71.5 4.67.41 8.7-.78 27.34-2.83 36.69-3.74 1.58-.15 2.54.2 3.34.4"/></g><g id="kvg:06518-g11" kvg:element="一"><path id="kvg:06518-s16" kvg:type="㇐" d="M39.48 65.24c1.27.29 3.6.41 4.88.29 11.65-1.08 36.51-4.06 48.18-4.21 2.12-.03 3.4.14 4.46.29"/></g></g><g id="kvg:06518-g12" kvg:element="衣" kvg:part="2" kvg:position="bottom"><path id="kvg:06518-s17" kvg:type="㇒" d="M61.79 64.14c.08.48.3 1.28-.15 1.93-2.9 4.19-12.32 12.84-26.83 19.46"/><path id="kvg:06518-s18" kvg:type="㇙" d="M54.69 77.15c.36.29.76 1.58.76 2.08-.02 6.4-.25 14.43-.25 15.52.0 1.08.9 1.7 2.04.89s11.1-6.89 13.54-8.73"/><path id="kvg:06518-s19" kvg:type="㇒" d="M87.78 65.2c.03.27-.32 1.83-.5 2.18-1.09 2.19-3.86 4.76-9.42 9.11"/><path id="kvg:06518-s20" kvg:type="㇏" d="M66.83 71.91c1.32.62 3.42 2.36 3.79 2.63 5.38 3.9 18.46 13.84 22.1 16.13 1.37.87 2.54 1.24 3.91 1.48"/></g></g></g></g></svg>