<!DOCTYPE svg PUBLIC "-//W3C//DTD SVG 1.0//EN" "http://www.w3.org/TR/2001/REC-SVG-20010904/DTD/svg10.dtd" [
<!ATTLIST g
xmlns:kvg CDATA #FIXED "http://kanjivg.tagaini.net"
kvg:element CDATA #IMPLIED
kvg:variant CDATA #IMPLIED
kvg:partial CDATA #IMPLIED
kvg:original CDATA #IMPLIED
kvg:part CDATA #IMPLIED
kvg:number CDATA #IMPLIED
kvg:tradForm CDATA #IMPLIED
kvg:radicalForm CDATA #IMPLIED
kvg:position CDATA #IMPLIED
kvg:radical CDATA #IMPLIED
kvg:phon CDATA #IMPLIED >
<!ATTLIST path
xmlns:kvg CDATA #FIXED "http://kanjivg.tagaini.net"
kvg:type CDATA #IMPLIED >
]><svg xmlns="http://www.w3.org/2000/svg" width="109" height="109" viewBox="0 0 109 109"><g id="kvg:StrokePaths_0651c" style="fill:none;stroke:#000000;stroke-width:3;stroke-linecap:round;stroke-linejoin:round;"><g id="kvg:0651c" kvg:element="攜"><g id="kvg:0651c-g1" kvg:element="扌" kvg:variant="true" kvg:original="手" kvg:position="left" kvg:radical="general"><path id="kvg:0651c-s1" kvg:type="㇐" d="M11.5 36.42c2.08.25 1.27.55 3.5.25 5.5-.75 15-2.5 24.17-3.67"/><path id="kvg:0651c-s2" kvg:type="㇚" d="M25.7 13.5c.5.95 1.81 2.59 1.81 5.74.0 15.84.25 58.74.25 70.63.0 14.82-6.53 3.67-8.02 2.08"/><path id="kvg:0651c-s3" kvg:type="㇀" d="M12.5 67.73c.72.85 1.85 1.34 3.43.56.93-.46 18.35-10.91 22.3-13.13"/></g><g id="kvg:0651c-g2" kvg:element="巂" kvg:position="right"><g id="kvg:0651c-g3" kvg:element="崔" kvg:position="top"><g id="kvg:0651c-g4" kvg:element="山" kvg:position="top"><path id="kvg:0651c-s4" kvg:type="㇑a" d="M66.93 10c.6.34 1.87 2.57 1.99 3.25.12.69-.08 7.07-.2 11.35"/><path id="kvg:0651c-s5" kvg:type="㇄a" d="M49.4 15.36c.6.34 1.29 1.8 1.2 2.49-.39 3.06-.98 4.93-1.48 7.53-.3 1.55.19 2.25 1.66 1.93 9.47-2.06 32.87-3.2 40.4-3.39"/><path id="kvg:0651c-s6" kvg:type="㇑" d="M91.14 12.4c.8.39 1.23 2.44 1.1 3.22-.79 4.82-.58 5.54-1.29 10.56"/></g><g id="kvg:0651c-g5" kvg:element="隹" kvg:position="bottom"><g id="kvg:0651c-g6" kvg:element="亻" kvg:variant="true" kvg:original="人"><path id="kvg:0651c-s7" kvg:type="㇒" d="M55.27 30.44c.18.85-.05 1.97-.61 2.7-3.59 4.66-7.87 9.35-16.37 14.29"/><path id="kvg:0651c-s8" kvg:type="㇑" d="M50.53 40.81c.15 4.88.15 20.68-.02 24.74"/></g><path id="kvg:0651c-s9" kvg:type="㇒" d="M72.89 28.36c.05.48-.01 1.11-.15 1.52-.9 2.63-2.04 4.66-4.09 7.86"/><path id="kvg:0651c-s10" kvg:type="㇐b" d="M50.18 40.26c8.01-.51 40.74-3.06 44.18-3.35"/><path id="kvg:0651c-s11" kvg:type="㇑a" d="M69.98 39.9c.68.35 1.22 1.11 1.22 1.71.0 6.18-.34 15.62-.34 20.36"/><path id="kvg:0651c-s12" kvg:type="㇐b" d="M51.61 47.33c7.56-.42 36.37-1.95 39.61-2.18"/><path id="kvg:0651c-s13" kvg:type="㇐b" d="M50.69 54.76c7.97-.36 38.18-1.92 41.6-2.11"/><path id="kvg:0651c-s14" kvg:type="㇐b" d="M50.72 62.89c8.01-.51 41.06-1.78 44.5-2.06"/></g></g><g id="kvg:0651c-g7" kvg:element="冏" kvg:position="bottom"><g id="kvg:0651c-g8" kvg:element="冂"><path id="kvg:0651c-s15" kvg:type="㇑" d="M47.75 70.14c.48.45.63.71.63 1.43.0.81.16 24.77.16 26.1"/><path id="kvg:0651c-s16" kvg:type="㇆a" d="M48.87 72.03c6.02-.36 40.53-3.28 41.74-3.28 4.12.0 3.48 1.16 3.48 2.76.0.89.16 18.06.16 20.11.0 6.63-4.01 3.63-6.06.86"/></g><g id="kvg:0651c-g9" kvg:element="儿" kvg:variant="true" kvg:original="八"><g id="kvg:0651c-g10" kvg:element="丿"><path id="kvg:0651c-s17" kvg:type="㇒" d="M62.3 72.42c.05.48.33.46.32 1.01-.07 2.78-3.4 7.44-9.07 9.69"/></g><path id="kvg:0651c-s18" kvg:type="㇟" d="M74.87 70.57c.27.27.49.6.5 1.02.07 1.88-.19 3.71-.19 4.99.0 2.99 3.24 2.65 6.42 2.65 3.36.0 5.58-.39 6.05-.6"/></g><g id="kvg:0651c-g11" kvg:element="口"><path id="kvg:0651c-s19" kvg:type="㇑" d="M59.21 86.03c.27.17.54.31.66.53.93 1.7 1.73 6.39 2.37 9.44"/><path id="kvg:0651c-s20" kvg:type="㇕b" d="M60.89 86.75c5.5-.56 13.8-1.43 16.95-1.66 1.15-.08 1.84.48 1.68.96-.75 2.19-1.24 4.59-2.18 7.13"/><path id="kvg:0651c-s21" kvg:type="㇐b" d="M62.37 94.73c3.7-.25 11.04-.69 16.12-1.08"/></g></g></g></g></g><g id="kvg:StrokeNumbers_0651c" style="font-size:8;fill:#808080"><text transform="matrix(1 0 0 1 5.50 36.50)">1</text><text transform="matrix(1 0 0 1 17.00 13.50)">2</text><text transform="matrix(1 0 0 1 4.50 67.50)">3</text><text transform="matrix(1 0 0 1 59.25 10.15)">4</text><text transform="matrix(1 0 0 1 41.50 15.50)">5</text><text transform="matrix(1 0 0 1 83.75 12.50)">6</text><text transform="matrix(1 0 0 1 44.50 37.50)">7</text><text transform="matrix(1 0 0 1 43.50 53.03)">8</text><text transform="matrix(1 0 0 1 64.50 32.50)">9</text><text transform="matrix(1 0 0 1 57.00 37.70)">10</text><text transform="matrix(1 0 0 1 74.50 44.50)">11</text><text transform="matrix(1 0 0 1 54.61 46.05)">12</text><text transform="matrix(1 0 0 1 54.65 53.50)">13</text><text transform="matrix(1 0 0 1 54.50 60.90)">14</text><text transform="matrix(1 0 0 1 37.50 77.50)">15</text><text transform="matrix(1 0 0 1 52.50 69.50)">16</text><text transform="matrix(1 0 0 1 51.50 78.50)">17</text><text transform="matrix(1 0 0 1 64.75 78.50)">18</text><text transform="matrix(1 0 0 1 51.50 92.50)">19</text><text transform="matrix(1 0 0 1 62.50 84.50)">20</text><text transform="matrix(1 0 0 1 64.50 92.50)">21</text></g></svg>