<!DOCTYPE svg PUBLIC "-//W3C//DTD SVG 1.0//EN" "http://www.w3.org/TR/2001/REC-SVG-20010904/DTD/svg10.dtd" [
<!ATTLIST g
xmlns:kvg CDATA #FIXED "http://kanjivg.tagaini.net"
kvg:element CDATA #IMPLIED
kvg:variant CDATA #IMPLIED
kvg:partial CDATA #IMPLIED
kvg:original CDATA #IMPLIED
kvg:part CDATA #IMPLIED
kvg:number CDATA #IMPLIED
kvg:tradForm CDATA #IMPLIED
kvg:radicalForm CDATA #IMPLIED
kvg:position CDATA #IMPLIED
kvg:radical CDATA #IMPLIED
kvg:phon CDATA #IMPLIED >
<!ATTLIST path
xmlns:kvg CDATA #FIXED "http://kanjivg.tagaini.net"
kvg:type CDATA #IMPLIED >
]><svg xmlns="http://www.w3.org/2000/svg" width="109" height="109" viewBox="0 0 109 109"><g id="kvg:StrokePaths_0652b" style="fill:none;stroke:#000000;stroke-width:3;stroke-linecap:round;stroke-linejoin:round;"><g id="kvg:0652b" kvg:element="攫"><g id="kvg:0652b-g1" kvg:element="扌" kvg:variant="true" kvg:original="手" kvg:position="left" kvg:radical="general"><path id="kvg:0652b-s1" kvg:type="㇐" d="M11.5 35.42c2.08.25 1.27.55 3.5.25 5.5-.75 15.5-2.5 24.67-3.67"/><path id="kvg:0652b-s2" kvg:type="㇚" d="M25.77 13c.48.92 1.76 2.49 1.76 5.52.0 15.23.24 58.96.24 70.4.0 14.25-6.82 3.53-8.27 2"/><path id="kvg:0652b-s3" kvg:type="㇀" d="M11.5 62.52c1.25 1.48 2.74 1.35 5.5-.02 1.63-.81 12.25-9 19.25-14.08"/></g><g id="kvg:0652b-g2" kvg:element="矍" kvg:position="right"><g id="kvg:0652b-g3" kvg:element="瞿" kvg:position="top"><g id="kvg:0652b-g4" kvg:position="top"><g id="kvg:0652b-g5" kvg:element="目" kvg:position="left"><path id="kvg:0652b-s4" kvg:type="㇑" d="M45.92 13.47c.26.46.64 1.27.64 1.89s.46 18.14.46 18.44"/><path id="kvg:0652b-s5" kvg:type="㇕a" d="M46.48 14.07c1.48-.08 13.99-1.69 15.33-1.78 1.12-.08 2 .93 1.91 1.49-.12.72-.26 16.48-.26 19.25"/><path id="kvg:0652b-s6" kvg:type="㇐a" d="M47.35 20.5c2.91-.1 13.57-.97 15.93-.97"/><path id="kvg:0652b-s7" kvg:type="㇐a" d="M47.85 26.33c3.91-.26 11.46-.92 15.26-.92"/><path id="kvg:0652b-s8" kvg:type="㇐a" d="M47.33 31.97c3.36-.13 12.18-.68 15.97-.68"/></g><g id="kvg:0652b-g6" kvg:element="目" kvg:position="right"><path id="kvg:0652b-s9" kvg:type="㇑" d="M71.94 12.17c.25.46.24 1.27.24 1.88.0.61.35 17.64.35 17.95"/><path id="kvg:0652b-s10" kvg:type="㇕a" d="M72.48 13.24c1.43-.08 13.96-2.16 15.26-2.26 1.08-.08 1.94.93 1.85 1.49-.11.72-.25 16.48-.25 19.25"/><path id="kvg:0652b-s11" kvg:type="㇐a" d="M73.34 18.84c2.82-.1 13.54-1.45 15.83-1.45"/><path id="kvg:0652b-s12" kvg:type="㇐a" d="M73.45 25.52c3.79-.26 11.87-1.39 15.54-1.39"/><path id="kvg:0652b-s13" kvg:type="㇐a" d="M73.83 31.14c3.25-.13 11.68-1.16 15.36-1.16"/></g></g><g id="kvg:0652b-g7" kvg:element="隻" kvg:part="1" kvg:position="bottom"><g id="kvg:0652b-g8" kvg:element="隹"><g id="kvg:0652b-g9" kvg:element="亻" kvg:variant="true" kvg:original="人"><path id="kvg:0652b-s14" kvg:type="㇒" d="M54.55 36.36c.16.83-.04 1.91-.54 2.62-3.19 4.51-7.23 8.34-14.53 13.83"/><path id="kvg:0652b-s15" kvg:type="㇑" d="M50.49 44.6c.38.75.38 1.09.42 1.62.38 4.71-.2 17.16-.2 20.84"/></g><path id="kvg:0652b-s16" kvg:type="㇒" d="M69.93 36.03c.03.33-.01.77-.11 1.05-.66 1.81-1.5 3.22-3.01 5.43"/><path id="kvg:0652b-s17" kvg:type="㇐b" d="M51.11 44.55c7.44-.44 35.6-1.86 38.8-2.1"/><path id="kvg:0652b-s18" kvg:type="㇑a" d="M68 45.32c.36.17.65.41.65.71.0 3.06.04 13.18-.18 17.99"/><path id="kvg:0652b-s19" kvg:type="㇐b" d="M51.73 51.32c7.02-.37 32.65-1.97 35.66-2.17"/><path id="kvg:0652b-s20" kvg:type="㇐b" d="M50.88 57.82c7.4-.31 33.63-1.76 36.81-1.93"/><path id="kvg:0652b-s21" kvg:type="㇐b" d="M50.88 65.46c7.44-.44 38.31-1.99 41.5-2.23"/></g></g></g><g id="kvg:0652b-g10" kvg:element="隻" kvg:part="2" kvg:position="bottom"><g id="kvg:0652b-g11" kvg:element="又"><path id="kvg:0652b-s22" kvg:type="㇇" d="M47.25 74.83c1.73.18 1.95.46 5.41.18 3.46-.27 28.11-3.63 30.49-3.9 2.38-.27 2.89 2.04 1.95 2.97C73.75 85.25 58.47 94.02 39 98.5"/><path id="kvg:0652b-s23" kvg:type="㇏" d="M52.45 79.89c3.84.42 22.62 11.53 36.01 16.09 2.08.71 3.6 1.18 5.54 1.42"/></g></g></g></g></g><g id="kvg:StrokeNumbers_0652b" style="font-size:8;fill:#808080"><text transform="matrix(1 0 0 1 5.50 35.50)">1</text><text transform="matrix(1 0 0 1 16.50 13.50)">2</text><text transform="matrix(1 0 0 1 3.75 63.50)">3</text><text transform="matrix(1 0 0 1 37.50 14.50)">4</text><text transform="matrix(1 0 0 1 48.25 10.33)">5</text><text transform="matrix(1 0 0 1 51.46 18.75)">6</text><text transform="matrix(1 0 0 1 51.50 26.18)">7</text><text transform="matrix(1 0 0 1 51.47 31.10)">8</text><text transform="matrix(1 0 0 1 66.50 19.53)">9</text><text transform="matrix(1 0 0 1 74.25 9.50)">10</text><text transform="matrix(1 0 0 1 75.25 17.38)">11</text><text transform="matrix(1 0 0 1 74.75 24.80)">12</text><text transform="matrix(1 0 0 1 75.25 30.23)">13</text><text transform="matrix(1 0 0 1 41.75 41.65)">14</text><text transform="matrix(1 0 0 1 41.75 56.08)">15</text><text transform="matrix(1 0 0 1 64.25 32.50)">16</text><text transform="matrix(1 0 0 1 57.50 41.93)">17</text><text transform="matrix(1 0 0 1 72.25 49.85)">18</text><text transform="matrix(1 0 0 1 55.25 49.78)">19</text><text transform="matrix(1 0 0 1 55.25 57.70)">20</text><text transform="matrix(1 0 0 1 55.25 64.63)">21</text><text transform="matrix(1 0 0 1 36.50 75.50)">22</text><text transform="matrix(1 0 0 1 46.50 87.50)">23</text></g></svg>