<svg xmlns="http://www.w3.org/2000/svg" width="109" height="109" viewBox="0 0 109 109"><g id="kvg:StrokePaths_0653e"><g id="kvg:0653e" kvg:element="放"><g id="kvg:0653e-g1" kvg:element="方" kvg:position="left" kvg:radical="nelson" kvg:phon="方"><g id="kvg:0653e-g2" kvg:element="亠" kvg:position="top"><path id="kvg:0653e-s1" kvg:type="㇑a" d="M33.36 14.75c1.32 1.32 1.98 2.75 1.98 4.41.0 3.96-.15 7.59-.15 11.15"/><path id="kvg:0653e-s2" kvg:type="㇐" d="M13.25 33.12c2.25.38 4.01.5 6.14.31 9.88-.88 17.86-2.06 26.02-3.43 2.28-.38 4.6-.63 6.85-.38"/></g><g id="kvg:0653e-g3" kvg:position="bottom"><path id="kvg:0653e-s3" kvg:type="㇆a" d="M33 45.75c3.34.52 6.63 1.03 9.99 1.36 3.41.34 3.82 2.99 3.51 5.64-1 8.5-8.74 29.43-13.38 34.83-4.87 5.67-7.72.26-9.09-.57"/><path id="kvg:0653e-s4" kvg:type="㇒" d="M32.75 34.75c.62 1.12.91 2.54.62 3.95C31.22 49.12 24.6 65.77 10.5 76.5"/></g></g><g id="kvg:0653e-g4" kvg:element="攵" kvg:variant="true" kvg:original="攴" kvg:position="right" kvg:radical="tradit"><g id="kvg:0653e-g5" kvg:element="𠂉" kvg:position="top"><path id="kvg:0653e-s5" kvg:type="㇒" d="M68 15.39c.25 1.11.2 2.02-.08 3.23-1.79 7.51-7.09 22.94-14.91 33.5"/><path id="kvg:0653e-s6" kvg:type="㇐" d="M62.76 39.82c1.65.26 2.96.45 4.63.26 6.96-.77 15.48-3.09 23.12-4.3 1.19-.19 2.97-.48 4.19-.1"/></g><g id="kvg:0653e-g6" kvg:element="乂" kvg:position="bottom"><g id="kvg:0653e-g7" kvg:element="丿"><path id="kvg:0653e-s7" kvg:type="㇒" d="M80.35 42c.55 1.26.85 2.17.27 4.48C75.43 67.47 65 84.38 46.48 93.5"/></g><path id="kvg:0653e-s8" kvg:type="㇏" d="M59.15 53.28c2.69.64 18.27 22.67 28.51 32.28 2.17 2.04 4.74 4.45 7.71 5.19"/></g></g></g></g></svg>