<!DOCTYPE svg PUBLIC "-//W3C//DTD SVG 1.0//EN" "http://www.w3.org/TR/2001/REC-SVG-20010904/DTD/svg10.dtd" [
<!ATTLIST g
xmlns:kvg CDATA #FIXED "http://kanjivg.tagaini.net"
kvg:element CDATA #IMPLIED
kvg:variant CDATA #IMPLIED
kvg:partial CDATA #IMPLIED
kvg:original CDATA #IMPLIED
kvg:part CDATA #IMPLIED
kvg:number CDATA #IMPLIED
kvg:tradForm CDATA #IMPLIED
kvg:radicalForm CDATA #IMPLIED
kvg:position CDATA #IMPLIED
kvg:radical CDATA #IMPLIED
kvg:phon CDATA #IMPLIED >
<!ATTLIST path
xmlns:kvg CDATA #FIXED "http://kanjivg.tagaini.net"
kvg:type CDATA #IMPLIED >
]><svg xmlns="http://www.w3.org/2000/svg" width="109" height="109" viewBox="0 0 109 109"><g id="kvg:StrokePaths_06558" style="fill:none;stroke:#000000;stroke-width:3;stroke-linecap:round;stroke-linejoin:round;"><g id="kvg:06558" kvg:element="敘"><g id="kvg:06558-g1" kvg:element="余" kvg:position="left"><g id="kvg:06558-g2" kvg:element="人" kvg:variant="true" kvg:position="top"><path id="kvg:06558-s1" kvg:type="㇒" d="M34.32 13c.08.81.28 2.14-.15 3.25-2.13 7.97-7.94 18.33-20.95 31.08"/><path id="kvg:06558-s2" kvg:type="㇔/㇏" d="M36.75 20.75c5.3 3.5 11.71 9.1 14.5 14"/></g><g id="kvg:06558-g3" kvg:position="bottom"><path id="kvg:06558-s3" kvg:type="㇐" d="M21 44.18c.63.26 1.78.3 2.41.26 6.07-.43 15.02-2.22 20.11-2.56.94-.06 1.51.12 1.98.25"/><path id="kvg:06558-s4" kvg:type="㇐" d="M14.48 60.02c.97.45 2.77.59 3.76.5 10.06-.97 21.01-2.76 30.33-3.6 1.85-.17 2.97.15 3.9.3"/><g id="kvg:06558-g4" kvg:element="小"><path id="kvg:06558-s5" kvg:type="㇚" d="M34.04 44.8c.08.46 1.21 2.39 1.21 5.3.0 18.93-.25 33.26-.25 38.02.0 10.8-5.96 1.92-7.4.72"/><path id="kvg:06558-s6" kvg:type="㇒" d="M23.74 70.25c.03.46.14 1.25-.07 1.85-1.54 4.41-5.5 10.97-11.79 17.67"/><path id="kvg:06558-s7" kvg:type="㇔" d="M44.37 69.49c2.24 1.93 5.78 7.95 6.34 10.96"/></g></g></g><g id="kvg:06558-g5" kvg:element="攵" kvg:variant="true" kvg:original="攴" kvg:position="right" kvg:radical="general"><g id="kvg:06558-g6" kvg:element="𠂉" kvg:position="top"><path id="kvg:06558-s8" kvg:type="㇒" d="M65.85 13.64c.04.81.24 2.13-.08 3.24C63.78 24 58.39 40.15 51.5 50"/><path id="kvg:06558-s9" kvg:type="㇐" d="M61.47 36.9c.03-.25 1.77.71 2.41.64 6.53-.73 17.7-3.34 27.67-4.51 1.12-.13 1.81-.03 2.1.12"/></g><g id="kvg:06558-g7" kvg:element="乂" kvg:position="bottom"><g id="kvg:06558-g8" kvg:element="丿"><path id="kvg:06558-s10" kvg:type="㇒" d="M82.78 38.43c.57 1.43.88 2.45.28 5.07-5.4 23.77-17.69 45-35.44 53.25"/></g><path id="kvg:06558-s11" kvg:type="㇏" d="M58.5 53.51c3 .49 22.23 31.73 32.43 39.37 1.96 1.47 3.21 1.72 4.82 1.87"/></g></g></g></g><g id="kvg:StrokeNumbers_06558" style="font-size:8;fill:#808080"><text transform="matrix(1 0 0 1 27.50 13.50)">1</text><text transform="matrix(1 0 0 1 40.50 20.50)">2</text><text transform="matrix(1 0 0 1 28.50 40.50)">3</text><text transform="matrix(1 0 0 1 7.50 60.50)">4</text><text transform="matrix(1 0 0 1 27.25 53.50)">5</text><text transform="matrix(1 0 0 1 15.50 71.50)">6</text><text transform="matrix(1 0 0 1 38.50 69.50)">7</text><text transform="matrix(1 0 0 1 56.25 13.10)">8</text><text transform="matrix(1 0 0 1 66.50 34.50)">9</text><text transform="matrix(1 0 0 1 71.50 45.50)">10</text><text transform="matrix(1 0 0 1 61.50 56.50)">11</text></g></svg>