<!DOCTYPE svg PUBLIC "-//W3C//DTD SVG 1.0//EN" "http://www.w3.org/TR/2001/REC-SVG-20010904/DTD/svg10.dtd" [
<!ATTLIST g
xmlns:kvg CDATA #FIXED "http://kanjivg.tagaini.net"
kvg:element CDATA #IMPLIED
kvg:variant CDATA #IMPLIED
kvg:partial CDATA #IMPLIED
kvg:original CDATA #IMPLIED
kvg:part CDATA #IMPLIED
kvg:number CDATA #IMPLIED
kvg:tradForm CDATA #IMPLIED
kvg:radicalForm CDATA #IMPLIED
kvg:position CDATA #IMPLIED
kvg:radical CDATA #IMPLIED
kvg:phon CDATA #IMPLIED >
<!ATTLIST path
xmlns:kvg CDATA #FIXED "http://kanjivg.tagaini.net"
kvg:type CDATA #IMPLIED >
]><svg xmlns="http://www.w3.org/2000/svg" width="109" height="109" viewBox="0 0 109 109"><g id="kvg:StrokePaths_06556" style="fill:none;stroke:#000000;stroke-width:3;stroke-linecap:round;stroke-linejoin:round;"><g id="kvg:06556" kvg:element="敖"><g id="kvg:06556-g1" kvg:position="left"><g id="kvg:06556-g2" kvg:element="土" kvg:position="top"><path id="kvg:06556-s1" kvg:type="㇐" d="M18.82 24.04c.86.34 2.45.39 3.31.34C28.75 24 39.75 23 47.79 22.02c1.43-.17 2.3.16 3.02.33"/><path id="kvg:06556-s2" kvg:type="㇑a" d="M33.03 12c.11.26 1.56 1.34 1.56 2.98.0 10.56-.32 8.15-.32 22.12"/><path id="kvg:06556-s3" kvg:type="㇐" d="M14.41 38.18c1.34.48 3.79.45 5.13.48 5.21.09 23.21-1.91 29.12-2.1 2.23-.07 3.57.23 4.68.47"/></g><g id="kvg:06556-g3" kvg:element="放" kvg:part="1" kvg:position="bottom"><g id="kvg:06556-g4" kvg:element="方" kvg:position="left"><g id="kvg:06556-g5" kvg:element="亠" kvg:position="top"><path id="kvg:06556-s4" kvg:type="㇑a" d="M32.8 41.75c.67.42 1.78 2.06 1.78 2.9.0 3.1-.21 4.84-.09 7.47"/><path id="kvg:06556-s5" kvg:type="㇐" d="M14 52.94c.9.27 2.79.36 3.62.38 7.13.17 23.63-2.08 31.46-2.98 1.4-.16 2.12.03 3.17.49"/></g><g id="kvg:06556-g6" kvg:position="bottom"><path id="kvg:06556-s6" kvg:type="㇆a" d="M33.29 59.83c4.21 2.42 10.21 4.67 14.89 5.87.79.2 1.57 1.04 1.44 2.66-.35 4.28-8.65 21.77-11.66 25.25-3.26 3.77-5.44-.15-6.41-.65"/><path id="kvg:06556-s7" kvg:type="㇒" d="M33.52 55.39c.3 1 .24 2.13-.12 3.25-2.49 7.77-9.69 23.46-20.87 30.81"/></g></g></g></g><g id="kvg:06556-g7" kvg:element="放" kvg:part="2" kvg:position="right"><g id="kvg:06556-g8" kvg:element="攵" kvg:variant="true" kvg:original="攴" kvg:position="right" kvg:radical="general"><g id="kvg:06556-g9" kvg:element="𠂉" kvg:position="top"><path id="kvg:06556-s8" kvg:type="㇒" d="M69.09 12.64c.04.97.1 2.54-.08 3.91-1.26 9.45-4.26 29.2-14.49 39.93"/><path id="kvg:06556-s9" kvg:type="㇐" d="M67.58 35.38c.03-.18 1.54.52 2.09.47 5.67-.54 12.36-3.46 21.01-4.33.97-.1 1.57-.02 1.82.09"/></g><g id="kvg:06556-g10" kvg:element="乂" kvg:position="bottom"><g id="kvg:06556-g11" kvg:element="丿"><path id="kvg:06556-s10" kvg:type="㇒" d="M82.45 38.24c.5 1.44.78 2.46.25 5.09-4.77 23.84-15.64 45.15-31.33 53.42"/></g><path id="kvg:06556-s11" kvg:type="㇏" d="M60.74 47.87c5.65 10.97 21.64 36.58 31.57 45.39 1.91 1.7 3.13 1.98 4.69 2.16"/></g></g></g></g></g><g id="kvg:StrokeNumbers_06556" style="font-size:8;fill:#808080"><text transform="matrix(1 0 0 1 12.50 23.50)">1</text><text transform="matrix(1 0 0 1 23.50 12.50)">2</text><text transform="matrix(1 0 0 1 7.50 38.50)">3</text><text transform="matrix(1 0 0 1 26.50 47.90)">4</text><text transform="matrix(1 0 0 1 6.50 52.50)">5</text><text transform="matrix(1 0 0 1 39.50 60.50)">6</text><text transform="matrix(1 0 0 1 24.50 62.50)">7</text><text transform="matrix(1 0 0 1 59.75 11.85)">8</text><text transform="matrix(1 0 0 1 71.50 32.50)">9</text><text transform="matrix(1 0 0 1 72.50 44.50)">10</text><text transform="matrix(1 0 0 1 64.50 53.50)">11</text></g></svg>