<!DOCTYPE svg PUBLIC "-//W3C//DTD SVG 1.0//EN" "http://www.w3.org/TR/2001/REC-SVG-20010904/DTD/svg10.dtd" [
<!ATTLIST g
xmlns:kvg CDATA #FIXED "http://kanjivg.tagaini.net"
kvg:element CDATA #IMPLIED
kvg:variant CDATA #IMPLIED
kvg:partial CDATA #IMPLIED
kvg:original CDATA #IMPLIED
kvg:part CDATA #IMPLIED
kvg:number CDATA #IMPLIED
kvg:tradForm CDATA #IMPLIED
kvg:radicalForm CDATA #IMPLIED
kvg:position CDATA #IMPLIED
kvg:radical CDATA #IMPLIED
kvg:phon CDATA #IMPLIED >
<!ATTLIST path
xmlns:kvg CDATA #FIXED "http://kanjivg.tagaini.net"
kvg:type CDATA #IMPLIED >
]><svg xmlns="http://www.w3.org/2000/svg" width="109" height="109" viewBox="0 0 109 109"><g id="kvg:StrokePaths_06562" style="fill:none;stroke:#000000;stroke-width:3;stroke-linecap:round;stroke-linejoin:round;"><g id="kvg:06562" kvg:element="敢"><g id="kvg:06562-g1" kvg:position="left" kvg:phon="耳甘V"><path id="kvg:06562-s1" kvg:type="㇐" d="M19 19.52c1.23.5 3.33.34 4.61.17 5.01-.68 14.99-2.37 19.99-2.73 1.43-.1 2.98-.18 4.39.17"/><path id="kvg:06562-s2" kvg:type="㇑a" d="M33.04 20.25c.85.85 1.12 2 1.12 3.53.0 3.13-.04 5.36-.04 8.84"/><g id="kvg:06562-g2" kvg:element="耳"><path id="kvg:06562-s3" kvg:type="㇐" d="M12.27 36.12c1.98.5 3.8.29 5.36.03 8.12-1.33 20.93-2.74 29.23-3.57 2.01-.2 3.94-.53 5.9.13"/><path id="kvg:06562-s4" kvg:type="㇑a" d="M23.01 38.75c.74.74.97 1.85.97 2.85s-.11 31.27-.11 35.4"/><path id="kvg:06562-s5" kvg:type="㇐a" d="M25 48.17c3.88-.42 11.63-2.05 17.34-2.66"/><path id="kvg:06562-s6" kvg:type="㇐a" d="M24.71 60.54c4.54-.54 11.92-1.79 17.94-2.46"/><path id="kvg:06562-s7" kvg:type="㇀" d="M13 80.62c.75.75 2.11.84 3.06.45C27.62 76.25 34.75 73.25 42.25 70"/><path id="kvg:06562-s8" kvg:type="㇑" d="M42.3 35.3c.83.83 1.22 1.95 1.22 3.35.0.66-.01 34.56-.02 49.48.0 3.4.0 5.81.0 6.62"/></g></g><g id="kvg:06562-g3" kvg:element="攵" kvg:variant="true" kvg:original="攴" kvg:position="right" kvg:radical="general"><g id="kvg:06562-g4" kvg:element="𠂉" kvg:position="top"><path id="kvg:06562-s9" kvg:type="㇒" d="M65.33 15.68c.3.94.49 1.99.18 3.15-1.99 7.47-6.71 21.95-13.59 32.29"/><path id="kvg:06562-s10" kvg:type="㇐" d="M61.94 38.69c1.36.08 2.6-.09 3.94-.31 5.56-.94 12.08-2.14 19.12-3.87 1.28-.32 3.5-.62 4.91-.29"/></g><g id="kvg:06562-g5" kvg:element="乂" kvg:position="bottom"><g id="kvg:06562-g6" kvg:element="丿"><path id="kvg:06562-s11" kvg:type="㇒" d="M77.51 43.02c.44 1.19.59 2.57-.03 4.69C71.88 67.18 63.33 81 50.15 90.84"/></g><path id="kvg:06562-s12" kvg:type="㇏" d="M56.17 55.43c2.08.0 19.83 20.32 30.96 29.81 2.51 2.14 5.12 3.76 7.62 4.86"/></g></g></g></g><g id="kvg:StrokeNumbers_06562" style="font-size:8;fill:#808080"><text transform="matrix(1 0 0 1 12.50 20.50)">1</text><text transform="matrix(1 0 0 1 26.50 28.63)">2</text><text transform="matrix(1 0 0 1 4.50 37.50)">3</text><text transform="matrix(1 0 0 1 16.50 46.63)">4</text><text transform="matrix(1 0 0 1 29.25 44.50)">5</text><text transform="matrix(1 0 0 1 29.25 56.50)">6</text><text transform="matrix(1 0 0 1 5.50 78.50)">7</text><text transform="matrix(1 0 0 1 35.50 42.13)">8</text><text transform="matrix(1 0 0 1 56.25 16.50)">9</text><text transform="matrix(1 0 0 1 66.75 34.50)">10</text><text transform="matrix(1 0 0 1 67.50 46.55)">11</text><text transform="matrix(1 0 0 1 57.50 54.13)">12</text></g></svg>