<svg xmlns="http://www.w3.org/2000/svg" width="109" height="109" viewBox="0 0 109 109"><g id="kvg:StrokePaths_06575"><g id="kvg:06575" kvg:element="敵"><g id="kvg:06575-g1" kvg:element="啇" kvg:position="left" kvg:phon="啇"><g id="kvg:06575-g2" kvg:element="亠"><path id="kvg:06575-s1" kvg:type="㇑a" d="M29.75 13.75c1 .75 1.5 2 1.5 3.75s0 4.88.0 8"/><path id="kvg:06575-s2" kvg:type="㇐" d="M11 28.45c2.38.42 4.46.37 6.62.09 7.76-1.04 20.11-2.9 28.88-3.43 2.1-.13 4.25-.23 6.25-.02"/></g><path id="kvg:06575-s3" kvg:type="㇔" d="M19.88 31.5c2.83 3.73 4.12 7.54 4.38 10"/><path id="kvg:06575-s4" kvg:type="㇒" d="M41.73 28.5c.27.75.18 1.63.04 1.94-1.4 3.18-3.69 8.06-4.78 9.81"/><g id="kvg:06575-g3" kvg:element="冂"><path id="kvg:06575-s5" kvg:type="㇑" d="M12 43.73c.88.88 1.42 2.25 1.29 3.63-.11 1.1.04 26.93.11 38.64.02 2.98.03 5.03.03 5.5"/><path id="kvg:06575-s6" kvg:type="㇆a" d="M14.54 45.52c5.09-.61 23.59-2.9 32.75-4.07 2.17-.28 3.48.3 3.48 2.59.0 1.29.1 41.09.1 44.62.0 7.96-4.62 1.84-6.63-.08"/></g><g id="kvg:06575-g4" kvg:element="古"><g id="kvg:06575-g5" kvg:element="十" kvg:position="top"><path id="kvg:06575-s7" kvg:type="㇐" d="M19 55.31c1.4.48 2.73.5 4.16.3 4.43-.59 12.76-1.88 17.6-2.21.9-.06 2.51-.28 3.5-.08"/><path id="kvg:06575-s8" kvg:type="㇑a" d="M30.2 46.75c1.02 1.02 1.5 2.25 1.5 3.88.0 6.12.17 9.74.17 14.3"/></g><g id="kvg:06575-g6" kvg:element="口" kvg:position="bottom"><path id="kvg:06575-s9" kvg:type="㇑" d="M21.69 66.54c.82.82 1.06 1.71 1.36 3.22.4 2.03 1.22 4.91 1.71 7.95.22 1.39.42 2.7.56 3.79"/><path id="kvg:06575-s10" kvg:type="㇕b" d="M23.21 67.17c5.16-.8 12.66-1.8 16.62-2.35 1.18-.16 2.04.67 1.73 2.01-.57 2.44-1.66 5.7-2.31 8.98"/><path id="kvg:06575-s11" kvg:type="㇐b" d="M26.04 78.4c2.76-.14 7.14-.77 11.25-1.24 1.09-.13 2.11-.22 2.99-.27"/></g></g></g><g id="kvg:06575-g7" kvg:element="攵" kvg:variant="true" kvg:original="攴" kvg:position="right" kvg:radical="general"><g id="kvg:06575-g8" kvg:element="𠂉" kvg:position="top"><path id="kvg:06575-s12" kvg:type="㇒" d="M68.56 14.89c.19.98.2 1.71-.06 2.87-1.68 7.4-5.45 22.25-11.25 32.49"/><path id="kvg:06575-s13" kvg:type="㇐" d="M65.25 40.01c1.25.11 2.11-.09 2.59-.13 4.34-.37 11.79-2.38 17.79-3.61 1.27-.26 3.37-.52 4.62-.3"/></g><g id="kvg:06575-g9" kvg:element="乂" kvg:position="bottom"><g id="kvg:06575-g10" kvg:element="丿"><path id="kvg:06575-s14" kvg:type="㇒" d="M78.26 41.93c.35 1.22.54 2.09.17 4.31-3.3 20.2-10.18 36.39-22.18 45.26"/></g><path id="kvg:06575-s15" kvg:type="㇏" d="M58.04 55.51c2.28.56 20.11 21.2 31.51 30.1 2.21 1.72 4.83 3.9 7.46 4.65"/></g></g></g></g></svg>