<svg xmlns="http://www.w3.org/2000/svg" width="109" height="109" viewBox="0 0 109 109"><g id="kvg:StrokePaths_06587"><g id="kvg:06587" kvg:element="文" kvg:radical="general"><g id="kvg:06587-g1" kvg:element="亠" kvg:position="top"><path id="kvg:06587-s1" kvg:type="㇑a" d="M51.62 12.75c1.06 1.06 1.73 2.5 1.73 4.01.0 4.32-.11 7.61-.11 12.15"/><path id="kvg:06587-s2" kvg:type="㇐" d="M16.88 32.72c2.7.66 5.71.86 8.6.54 15.77-1.76 40.15-5.01 56.42-6.1 3.67-.25 6.15.05 8.88.69"/></g><g id="kvg:06587-g2" kvg:element="乂" kvg:position="bottom"><path id="kvg:06587-s3" kvg:type="㇒" d="M69.89 32.5c.36 2.12.06 3.82-.93 6.27C61.62 57 43.75 80.25 18.75 93.75"/><path id="kvg:06587-s4" kvg:type="㇏" d="M31 43.75c6 0 27.27 26.79 49.26 42.1 4.13 2.87 7.49 4.77 11.49 6.04"/></g></g></g></svg>