<!DOCTYPE svg PUBLIC "-//W3C//DTD SVG 1.0//EN" "http://www.w3.org/TR/2001/REC-SVG-20010904/DTD/svg10.dtd" [
<!ATTLIST g
xmlns:kvg CDATA #FIXED "http://kanjivg.tagaini.net"
kvg:element CDATA #IMPLIED
kvg:variant CDATA #IMPLIED
kvg:partial CDATA #IMPLIED
kvg:original CDATA #IMPLIED
kvg:part CDATA #IMPLIED
kvg:number CDATA #IMPLIED
kvg:tradForm CDATA #IMPLIED
kvg:radicalForm CDATA #IMPLIED
kvg:position CDATA #IMPLIED
kvg:radical CDATA #IMPLIED
kvg:phon CDATA #IMPLIED >
<!ATTLIST path
xmlns:kvg CDATA #FIXED "http://kanjivg.tagaini.net"
kvg:type CDATA #IMPLIED >
]><svg xmlns="http://www.w3.org/2000/svg" width="109" height="109" viewBox="0 0 109 109"><g id="kvg:StrokePaths_0659f" style="fill:none;stroke:#000000;stroke-width:3;stroke-linecap:round;stroke-linejoin:round;"><g id="kvg:0659f" kvg:element="斟"><g id="kvg:0659f-g1" kvg:element="甚" kvg:position="left"><g id="kvg:0659f-g2" kvg:element="甘" kvg:position="top"><g id="kvg:0659f-g3" kvg:element="廿" kvg:part="1"><g id="kvg:0659f-g4" kvg:element="十"><path id="kvg:0659f-s1" kvg:type="㇐" d="M13.28 27.91c.89.43 2.53.54 3.42.43 6.57-.79 25.8-2.59 37.18-3.54 1.48-.12 2.38.21 3.12.42"/><path id="kvg:0659f-s2" kvg:type="㇑" d="M24.75 15.75c.78.48 1.24 2.16 1.4 3.12s.15 39.18.02 44.13"/></g><path id="kvg:0659f-s3" kvg:type="㇑" d="M44.31 12.53c.8.5 1.28 2.23 1.44 3.22.16.99.22 40.01.09 44.96"/></g><path id="kvg:0659f-s4" kvg:type="㇐" d="M26.69 38.87c2.5-.4 16.88-1.88 18.64-1.88"/><g id="kvg:0659f-g5" kvg:element="廿" kvg:part="2"><path id="kvg:0659f-s5" kvg:type="㇐" d="M26.69 50.05c3.82-.2 15.47-1.39 19-1.58"/></g></g><g id="kvg:0659f-g6" kvg:element="匹" kvg:position="bottom"><g id="kvg:0659f-g7" kvg:element="匚" kvg:part="1"><path id="kvg:0659f-s6" kvg:type="㇐" d="M10.75 64.3c1.05.44 2.99.51 4.04.44 10.97-.73 28.55-4.03 39.27-4.79 1.75-.12 2.81.21 3.69.43"/></g><g id="kvg:0659f-g8" kvg:element="儿"><g id="kvg:0659f-g9" kvg:element="八" kvg:variant="true"><g id="kvg:0659f-g10" kvg:element="丿" kvg:position="left"><path id="kvg:0659f-s7" kvg:type="㇒" d="M32.5 66.25c.26.29.57 1.03.51 1.61-.52 4.72-4.12 12.62-8.25 15.39"/></g><g id="kvg:0659f-g11" kvg:position="right"><path id="kvg:0659f-s8" kvg:type="㇟" d="M40.71 63.78c.57.88 1.05 1.91 1.05 3.26.0 1.95-.13 1.62-.13 5.06.0 6.94 1.71 7.14 6.63 7.14 4.24.0 5.52-.79 6.24-1.62"/></g></g></g><g id="kvg:0659f-g12" kvg:element="匚" kvg:part="2"><path id="kvg:0659f-s9" kvg:type="㇗" d="M19.06 67.64c.82 1.26 1.51 2.74 1.51 4.68.0 2.8-.08 9.02-.08 13.18.0 8.42 2.68 8.5 15.85 8.5 11.34.0 14.78-.76 16.7-1.77"/></g></g></g><g id="kvg:0659f-g13" kvg:element="斗" kvg:position="right" kvg:radical="general"><g id="kvg:0659f-g14" kvg:element="丶"><path id="kvg:0659f-s10" kvg:type="㇔" d="M64.25 27.5C67.34 29 72.23 33.67 73 36"/></g><g id="kvg:0659f-g15" kvg:element="丶"><path id="kvg:0659f-s11" kvg:type="㇔" d="M60.25 44.25c3.26 1.41 8.43 5.8 9.25 8"/></g><path id="kvg:0659f-s12" kvg:type="㇐" d="M56.75 66.25c.65.25 2.4.93 4.13.75 7.12-.75 25.62-4 35.85-4 1.74.0 2.18-.25 3.26.0"/><path id="kvg:0659f-s13" kvg:type="㇑" d="M79.37 12.25c1.09.5 1.74 2.25 1.96 3.25s0 75.25-.22 81.5"/></g></g></g><g id="kvg:StrokeNumbers_0659f" style="font-size:8;fill:#808080"><text transform="matrix(1 0 0 1 6.50 28.50)">1</text><text transform="matrix(1 0 0 1 15.50 16.50)">2</text><text transform="matrix(1 0 0 1 35.50 13.48)">3</text><text transform="matrix(1 0 0 1 30.50 35.50)">4</text><text transform="matrix(1 0 0 1 30.50 46.33)">5</text><text transform="matrix(1 0 0 1 3.50 64.50)">6</text><text transform="matrix(1 0 0 1 25.75 71.10)">7</text><text transform="matrix(1 0 0 1 44.50 69.50)">8</text><text transform="matrix(1 0 0 1 12.50 74.50)">9</text><text transform="matrix(1 0 0 1 59.50 25.50)">10</text><text transform="matrix(1 0 0 1 54.50 41.50)">11</text><text transform="matrix(1 0 0 1 59.50 63.50)">12</text><text transform="matrix(1 0 0 1 70.50 9.50)">13</text></g></svg>