<svg xmlns="http://www.w3.org/2000/svg" width="109" height="109" viewBox="0 0 109 109"><g id="kvg:StrokePaths_065a1"><g id="kvg:065a1" kvg:element="斡"><g id="kvg:065a1-g1" kvg:element="𠦝" kvg:position="left"><g id="kvg:065a1-g2" kvg:element="十" kvg:position="top" kvg:radical="nelson"><path id="kvg:065a1-s1" kvg:type="㇐" d="M12.93 27.63c1.8.35 3.59.39 5.37.12 6.26-.79 14.65-2.25 20.72-2.89 1.68-.25 3.36-.16 5.04.26"/><path id="kvg:065a1-s2" kvg:type="㇑" d="M27.16 12.88c.79.79 1 1.62 1 2.9.0.51-.03 17.33-.03 22.22"/></g><g id="kvg:065a1-g3" kvg:element="早" kvg:position="bottom"><g id="kvg:065a1-g4" kvg:element="日" kvg:position="top"><path id="kvg:065a1-s3" kvg:type="㇑" d="M13.52 39.91c.72.72 1.04 1.51 1.26 2.86.84 5.03 1.93 10.82 2.63 15.74.2 1.42.37 2.77.49 4.01"/><path id="kvg:065a1-s4" kvg:type="㇕a" d="M15.83 41.16c5.09-1.06 18.23-3.18 23.94-3.87 3.49-.42 4.49.71 3.94 3.95-.52 3.1-1.57 9.43-2.55 14.78-.23 1.26-.47 2.47-.69 3.57"/><path id="kvg:065a1-s5" kvg:type="㇐a" d="M17.24 50.38c7.26-1.25 17.76-2.63 23.99-3"/><path id="kvg:065a1-s6" kvg:type="㇐a" d="M19.2 61.31c7.8-1.44 14.68-2.56 20.23-2.89"/></g><g id="kvg:065a1-g5" kvg:element="十" kvg:position="bottom"><path id="kvg:065a1-s7" kvg:type="㇐" d="M10.24 76.32c1.61.66 3.52.31 5.16.09 6.71-.88 17.69-2.74 24.49-3.19 2.04-.13 3.82-.52 5.87-.02"/><path id="kvg:065a1-s8" kvg:type="㇑" d="M28.07 62.24c.78.79 1.07 2.01 1.07 3.24.0.63-.01 17.51-.01 26.89.0 2.44.0 4.37.0 5.38"/></g></g></g><g id="kvg:065a1-g6" kvg:position="right"><g id="kvg:065a1-g7" kvg:position="top"><path id="kvg:065a1-s9" kvg:type="㇒" d="M70.09 12.75c0 1.25-.23 2.08-.61 3.17C67 23.12 61.62 35.12 50.62 45.75"/><path id="kvg:065a1-s10" kvg:type="㇏" d="M70.09 17.5c3.67 4.89 14.19 16.06 19.88 21.78 1.87 1.87 3.65 3.47 6.4 4.82"/></g><g id="kvg:065a1-g8" kvg:element="斗" kvg:position="bottom" kvg:radical="tradit"><g id="kvg:065a1-g9" kvg:element="丶"><path id="kvg:065a1-s11" kvg:type="㇔" d="M60.07 44.48c2.65 1.23 6.6 5.29 7.27 7.2"/></g><g id="kvg:065a1-g10" kvg:element="丶"><path id="kvg:065a1-s12" kvg:type="㇔" d="M56.49 56.8c3.07 1.52 7.93 5.77 8.7 8.14"/></g><path id="kvg:065a1-s13" kvg:type="㇐" d="M51.5 76.16c1.94.69 4.08.61 6.12.31 7.46-1.1 22.5-3.93 31.63-4.55 1.85-.13 3.38-.41 5.5-.11"/><path id="kvg:065a1-s14" kvg:type="㇑" d="M75.45 36.25c.96.96 1.1 2.12 1.1 3.35.0.75.03 36.21.04 51.9.0 3.07.0 5.38.0 6.5"/></g></g></g></g></svg>