<!DOCTYPE svg PUBLIC "-//W3C//DTD SVG 1.0//EN" "http://www.w3.org/TR/2001/REC-SVG-20010904/DTD/svg10.dtd" [
<!ATTLIST g
xmlns:kvg CDATA #FIXED "http://kanjivg.tagaini.net"
kvg:element CDATA #IMPLIED
kvg:variant CDATA #IMPLIED
kvg:partial CDATA #IMPLIED
kvg:original CDATA #IMPLIED
kvg:part CDATA #IMPLIED
kvg:number CDATA #IMPLIED
kvg:tradForm CDATA #IMPLIED
kvg:radicalForm CDATA #IMPLIED
kvg:position CDATA #IMPLIED
kvg:radical CDATA #IMPLIED
kvg:phon CDATA #IMPLIED >
<!ATTLIST path
xmlns:kvg CDATA #FIXED "http://kanjivg.tagaini.net"
kvg:type CDATA #IMPLIED >
]><svg xmlns="http://www.w3.org/2000/svg" width="109" height="109" viewBox="0 0 109 109"><g id="kvg:StrokePaths_065b9" style="fill:none;stroke:#000000;stroke-width:3;stroke-linecap:round;stroke-linejoin:round;"><g id="kvg:065b9" kvg:element="方" kvg:radical="general"><g id="kvg:065b9-g1" kvg:element="亠" kvg:position="top"><path id="kvg:065b9-s1" kvg:type="㇑a" d="M52.86 12c1.07 1.07 1.73 2.5 1.73 4.41.0 4.84-.15 7.84-.15 11.65"/><path id="kvg:065b9-s2" kvg:type="㇐" d="M15.5 31.61c2.5.64 6.38.89 10.02.55C43.97 30.41 67.12 28 85.87 27.2c3.88-.16 6.36.05 9.25.7"/></g><g id="kvg:065b9-g2" kvg:position="bottom"><path id="kvg:065b9-s3" kvg:type="㇆a" d="M53.48 47.2c6.64 1.17 13.39.92 18.51.41 3.41-.34 5.18 1.75 4.67 4.36-2.03 10.4-10.53 33.53-16.54 41.1C55.33 99.11 53 94.24 50.03 91"/><path id="kvg:065b9-s4" kvg:type="㇒" d="M54.51 32.75c.49 1.5.39 3.19-.19 4.88-4.02 11.66-15.64 35.22-33.7 46.25"/></g></g></g><g id="kvg:StrokeNumbers_065b9" style="font-size:8;fill:#808080"><text transform="matrix(1 0 0 1 44.25 12.50)">1</text><text transform="matrix(1 0 0 1 8.50 32.50)">2</text><text transform="matrix(1 0 0 1 58.50 45.13)">3</text><text transform="matrix(1 0 0 1 45.50 39.50)">4</text></g></svg>