<svg xmlns="http://www.w3.org/2000/svg" width="109" height="109" viewBox="0 0 109 109"><g id="kvg:StrokePaths_065cc"><g id="kvg:065cc" kvg:element="旌"><g id="kvg:065cc-g1" kvg:element="方" kvg:position="left" kvg:radical="general"><g id="kvg:065cc-g2" kvg:element="亠" kvg:position="top"><path id="kvg:065cc-s1" kvg:type="㇑a" d="M29.14 15.25c.65.54 1.73 2.65 1.73 3.73.0 3.99-.21 9.71-.09 13.09"/><path id="kvg:065cc-s2" kvg:type="㇐" d="M13.25 33.47c.86.04 3.87.25 4.7.2 6.77-.42 19.47-2.9 24.32-3.29 1.41-.11 2.16-.13 3.72-.13"/></g><g id="kvg:065cc-g3" kvg:position="bottom"><path id="kvg:065cc-s3" kvg:type="㇆a" d="M28.84 44.5c3.56 1.03 5.97 2.31 10.12 3.71 2.04.69 2.71 1.75 2.59 4.48-.31 7.2-7.21 32.28-11.96 36.85-3.4 3.27-5.34-.76-6.19-1.61"/><path id="kvg:065cc-s4" kvg:type="㇒" d="M28.78 36.25c.05 1.06.13 2.74-.11 4.26-1.76 11.23-7.21 29.18-18.78 40.74"/></g></g><g id="kvg:065cc-g4" kvg:position="right"><g id="kvg:065cc-g5" kvg:element="𠂉"><path id="kvg:065cc-s5" kvg:type="㇒" d="M61.04 14.25c.12 1.58-.04 3.66-.43 5.02C58.06 27.93 54.83 35.25 49 45.79"/><path id="kvg:065cc-s6" kvg:type="㇐" d="M59.25 29.89c1.02.11 3 .59 4.79.48 8.35-.51 20.39-2.97 25.92-3.48 1.56-.14 3 .18 3.79.37"/></g><g id="kvg:065cc-g6" kvg:element="生"><g id="kvg:065cc-g7" kvg:element="𠂉"><path id="kvg:065cc-s7" kvg:type="㇒" d="M58.89 43.94c.03.58.06 1.5-.06 2.33-.76 4.91-5.08 15.7-11 22.3"/><path id="kvg:065cc-s8" kvg:type="㇐" d="M58.3 56.94c1 .27 2.82.32 3.82.27 7.19-.39 19.75-2.68 25.95-3.09 1.65-.11 2.34-.06 3.22-.02"/></g><path id="kvg:065cc-s9" kvg:type="㇑a" d="M69.49 36.88c.8.4 2.49 2.97 2.65 3.76.16.79-.1 46.46-.26 51.42"/><path id="kvg:065cc-s10" kvg:type="㇐" d="M57.05 73.16c1.11.2 3.13.24 4.24.2 7.97-.29 16.64-2.05 23.52-2.35 1.83-.08 2.6-.04 3.57-.01"/><path id="kvg:065cc-s11" kvg:type="㇐" d="M45 93.55c1.21.35 3.41.43 4.62.35 8.69-.51 35.69-2.55 43.19-3.09 2-.14 3.69.29 5.54 1.16"/></g></g></g></g></svg>