<svg xmlns="http://www.w3.org/2000/svg" width="109" height="109" viewBox="0 0 109 109"><g id="kvg:StrokePaths_065c4" style="fill:none;stroke:#000000;stroke-width:3;stroke-linecap:round;stroke-linejoin:round;"><g id="kvg:065c4" kvg:element="旄"><g id="kvg:065c4-g1" kvg:element="方" kvg:position="left" kvg:radical="general"><g id="kvg:065c4-g2" kvg:element="亠" kvg:position="top"><path id="kvg:065c4-s1" kvg:type="㇑a" d="M27.64 13.75c.65.61 1.73 2.96 1.73 4.16.0 4.45-.21 10.38-.09 14.15"/><path id="kvg:065c4-s2" kvg:type="㇐" d="M10.5 33.71c.97.04 4.37.27 5.31.21 7.65-.45 21.99-3.11 27.48-3.52 1.59-.12 2.44-.14 4.21-.14"/></g><g id="kvg:065c4-g3" kvg:position="bottom"><path id="kvg:065c4-s3" kvg:type="㇆a" d="M29.34 43c3.7 1.12 7.2 1.02 11.52 2.56 2.12.75 2.82 1.91 2.69 4.89-.32 7.86-8.03 36.74-12.97 41.73-3.54 3.57-5.54-.83-6.44-1.76"/><path id="kvg:065c4-s4" kvg:type="㇒" d="M28.53 36c.05 1.22.12 3.15-.1 4.9-1.62 12.92-6.64 33.56-17.29 46.85"/></g></g><g id="kvg:065c4-g4" kvg:position="right"><g id="kvg:065c4-g5" kvg:element="𠂉"><path id="kvg:065c4-s5" kvg:type="㇒" d="M60.55 12.75c.11 1.46-.03 3.37-.39 4.62-2.28 7.97-5.18 14.72-10.41 24.42"/><path id="kvg:065c4-s6" kvg:type="㇐" d="M57.75 27.89c1.02.11 3 .59 4.79.48 8.35-.51 22.39-3.47 27.92-3.98 1.56-.14 3 .18 3.79.37"/></g><g id="kvg:065c4-g6" kvg:element="毛"><path id="kvg:065c4-s7" kvg:type="㇒" d="M83.76 34.5c.09.39.37 1.12-.17 1.56-5.09 4.19-16.72 10.65-30.09 14.97"/><path id="kvg:065c4-s8" kvg:type="㇐" d="M50 61.87c1.04.37 2.95.48 3.98.37 10.8-1.17 25.58-4.57 34.51-5.43 1.71-.17 2.77.17 3.64.36"/><path id="kvg:065c4-s9" kvg:type="㇐" d="M46.38 75.66c1.05.27 4.1.43 5.14.27 14.24-2.18 31-5.76 40.49-6.38 1.74-.12 3.91.13 4.79.27"/><path id="kvg:065c4-s10" kvg:type="㇟" d="M67.99 49.38c.56.87 1.01 1.89 1.04 3.23.15 5.97-.55 30.21-.55 33.87.0 9.66 3.33 10.05 14.48 10.05 14.02.0 13.54-1.84 13.54-8.22"/></g></g></g></g></svg>