<svg xmlns="http://www.w3.org/2000/svg" width="109" height="109" viewBox="0 0 109 109"><g id="kvg:StrokePaths_065db"><g id="kvg:065db" kvg:element="旛"><g id="kvg:065db-g1" kvg:element="方" kvg:position="left" kvg:radical="general"><g id="kvg:065db-g2" kvg:element="亠" kvg:position="top"><path id="kvg:065db-s1" kvg:type="㇑a" d="M27.64 15.25c.65.61 1.73 2.96 1.73 4.16.0 4.45-.21 8.88-.09 12.65"/><path id="kvg:065db-s2" kvg:type="㇐" d="M13 33.38c.83.05 3.72.36 4.52.29 6.51-.6 18.73-2.67 23.39-3.22 1.36-.16 2.08-.19 3.58-.19"/></g><g id="kvg:065db-g3" kvg:position="bottom"><path id="kvg:065db-s3" kvg:type="㇆a" d="M29.17 45c3.33 1 5.58 2.25 9.46 3.61 1.91.67 2.53 1.71 2.42 4.36-.29 7-7.67 31.41-12.12 35.85-3.18 3.18-4.99-.74-5.79-1.57"/><path id="kvg:065db-s4" kvg:type="㇒" d="M27.78 36.25c.05 1.02.12 2.65-.1 4.11-1.6 10.86-6.54 28.21-17.05 39.39"/></g></g><g id="kvg:065db-g4" kvg:position="right"><g id="kvg:065db-g5" kvg:element="𠂉"><path id="kvg:065db-s5" kvg:type="㇒" d="M58.53 12.75c.11 1.2-.03 2.76-.39 3.79-2.28 6.53-5.17 12.06-10.39 20"/><path id="kvg:065db-s6" kvg:type="㇐" d="M57.93 23.31c.91.1 2.67.52 4.27.43 7.45-.46 19.98-3.1 24.91-3.55 1.39-.13 2.68.16 3.38.33"/></g><g id="kvg:065db-g6" kvg:element="番"><g id="kvg:065db-g7" kvg:element="釆" kvg:position="top"><g id="kvg:065db-g8" kvg:element="丿"><path id="kvg:065db-s7" kvg:type="㇒" d="M80.24 25.25c.07.29.1.71-.14 1.18-1.9 3.84-12.21 7.46-24.45 10.55"/></g><g id="kvg:065db-g9" kvg:element="米"><path id="kvg:065db-s8" kvg:type="㇔" d="M52.91 40.98c2.21 1.16 5.55 4.44 6.1 6.25"/><path id="kvg:065db-s9" kvg:type="㇒" d="M85.27 35.75c.02.24.12.65-.04.98-1.25 2.64-3.27 5.75-7.4 9.38"/><path id="kvg:065db-s10" kvg:type="㇐" d="M49.75 50.16c.56.13 2.06.33 3.55.38 4.11.13 31.7-3.04 39.22-3.27 1.49-.05 1.87-.13 2.8.0"/><path id="kvg:065db-s11" kvg:type="㇑" d="M68.43 35.63c.99.27 1.78 1.58 1.78 2.16.0 3.37.0 26.73-.2 30.09"/><path id="kvg:065db-s12" kvg:type="㇒" d="M67.7 49.89c-4.16 6.7-14.09 15.34-23.45 19.2"/><path id="kvg:065db-s13" kvg:type="㇏" d="M70.78 48.99c3.11 2.19 18.04 13.6 21.43 15.76 1.15.73 2.13 1.04 3.28 1.25"/></g></g><g id="kvg:065db-g10" kvg:element="田" kvg:position="bottom"><path id="kvg:065db-s14" kvg:type="㇑" d="M52.11 73.13c.25.41.25.69.39 1.2 1.11 4.18 2.49 14.96 3.15 22.67"/><path id="kvg:065db-s15" kvg:type="㇕a" d="M53.28 74.48c11.01-1.19 25-2.93 31.56-3.34 2.41-.15 3.64 1.06 3.51 2.18-.54 4.63-2.65 15.58-4.49 22.7"/><path id="kvg:065db-s16" kvg:type="㇑a" d="M69.17 74.02c.52.79.71 1.11.7 2.21-.01 5.2.16 16.03.16 17.72"/><path id="kvg:065db-s17" kvg:type="㇐a" d="M54.85 84.12c2.87-.2 28.97-2.06 31.34-2.06"/><path id="kvg:065db-s18" kvg:type="㇐a" d="M56.1 95.2c7.6-.27 19.5-1.49 28.24-1.6"/></g></g></g></g></g></svg>