<svg xmlns="http://www.w3.org/2000/svg" width="109" height="109" viewBox="0 0 109 109"><g id="kvg:StrokePaths_065e7"><g id="kvg:065e7" kvg:element="旧"><g id="kvg:065e7-g1" kvg:element="丨" kvg:position="left" kvg:radical="nelson"><path id="kvg:065e7-s1" kvg:type="㇑" d="M23.16 23c1.05 1.05 1.7 2.5 1.7 3.82.0.77-.16 42.52-.2 59.68-.01 2.88-.01 5.07-.01 6.25"/></g><g id="kvg:065e7-g2" kvg:element="日" kvg:position="right" kvg:radical="tradit"><path id="kvg:065e7-s2" kvg:type="㇑" d="M46 23.3c1.1 1.1 1.51 2.53 1.51 4.56.0 3.28.0 41.59.0 57.76.0 3.59.0 6.09.0 6.88"/><path id="kvg:065e7-s3" kvg:type="㇕a" d="M48.55 25.3c3.54-.25 30.01-3 33.24-3.3 2.69-.25 4.46 1.25 4.46 4.06.0 2.48-.05 41.35-.07 57.31.0 3.83-.01 6.32-.01 6.61"/><path id="kvg:065e7-s4" kvg:type="㇐a" d="M48.43 54.99c8.32-.74 31.36-3.04 36.79-3.04"/><path id="kvg:065e7-s5" kvg:type="㇐a" d="M48.8 86.71C59.88 86 73.12 85 85.05 84.68"/></g></g></g></svg>