<!DOCTYPE svg PUBLIC "-//W3C//DTD SVG 1.0//EN" "http://www.w3.org/TR/2001/REC-SVG-20010904/DTD/svg10.dtd" [
<!ATTLIST g
xmlns:kvg CDATA #FIXED "http://kanjivg.tagaini.net"
kvg:element CDATA #IMPLIED
kvg:variant CDATA #IMPLIED
kvg:partial CDATA #IMPLIED
kvg:original CDATA #IMPLIED
kvg:part CDATA #IMPLIED
kvg:number CDATA #IMPLIED
kvg:tradForm CDATA #IMPLIED
kvg:radicalForm CDATA #IMPLIED
kvg:position CDATA #IMPLIED
kvg:radical CDATA #IMPLIED
kvg:phon CDATA #IMPLIED >
<!ATTLIST path
xmlns:kvg CDATA #FIXED "http://kanjivg.tagaini.net"
kvg:type CDATA #IMPLIED >
]><svg xmlns="http://www.w3.org/2000/svg" width="109" height="109" viewBox="0 0 109 109"><g id="kvg:StrokePaths_065ec" style="fill:none;stroke:#000000;stroke-width:3;stroke-linecap:round;stroke-linejoin:round;"><g id="kvg:065ec" kvg:element="旬"><g id="kvg:065ec-g1" kvg:element="勹" kvg:position="kamae" kvg:radical="nelson" kvg:phon="匀"><g id="kvg:065ec-g2" kvg:element="丿"><path id="kvg:065ec-s1" kvg:type="㇒" d="M38.5 12c.06.9-.06 2.35-.38 3.63-2.25 9.24-9.97 23.96-21.88 34.25"/></g><path id="kvg:065ec-s2" kvg:type="㇆" d="M35.5 31c2.88.69 5.48.39 8.39-.04 9.58-1.4 32.4-4.88 40.23-5.76 5.87-.67 8.24 1.58 7.38 7.55-.75 5.25-4.98 38.75-14.25 58-3.5 7.28-5.99 5.29-10.75.25"/></g><g id="kvg:065ec-g3" kvg:element="日" kvg:radical="tradit"><path id="kvg:065ec-s3" kvg:type="㇑" d="M31.02 47.69c.71.71.99 1.93.99 2.97.0.43.0 16.96.0 26.21.0 3.61.0 6.11.0 6.12"/><path id="kvg:065ec-s4" kvg:type="㇕a" d="M33.12 49.82c1.77-.11 16.84-2.48 22.54-3.3 2.99-.43 4.56.18 4.51 3.35-.07 4.45-.01 18.09.03 25.75.02 3.16.03 5.3.03 5.35"/><path id="kvg:065ec-s5" kvg:type="㇐a" d="M33.24 64.73c4.38-.48 20.26-2.23 25.88-2.56"/><path id="kvg:065ec-s6" kvg:type="㇐a" d="M33.36 80.06c6.51-.44 18.01-1.19 25.75-1.54"/></g></g></g><g id="kvg:StrokeNumbers_065ec" style="font-size:8;fill:#808080"><text transform="matrix(1 0 0 1 30.75 13.63)">1</text><text transform="matrix(1 0 0 1 44.25 27.13)">2</text><text transform="matrix(1 0 0 1 24.75 58.63)">3</text><text transform="matrix(1 0 0 1 35.25 46.63)">4</text><text transform="matrix(1 0 0 1 36.75 61.55)">5</text><text transform="matrix(1 0 0 1 36.75 76.48)">6</text></g></svg>