<svg xmlns="http://www.w3.org/2000/svg" width="109" height="109" viewBox="0 0 109 109"><g id="kvg:StrokePaths_065f1" style="fill:none;stroke:#000000;stroke-width:3;stroke-linecap:round;stroke-linejoin:round;"><g id="kvg:065f1" kvg:element="旱"><g id="kvg:065f1-g1" kvg:element="日" kvg:position="top" kvg:radical="general"><path id="kvg:065f1-s1" kvg:type="㇑" d="M29.24 14.08c.51.49.52.83.8 1.45 2.31 5.09 3.46 17.94 4.89 27.43"/><path id="kvg:065f1-s2" kvg:type="㇕a" d="M30.82 15.87c11.83-1.01 35.11-2.74 43.94-3.59 3.24-.31 3.91 1.79 3.74 2.9-.61 4.06-3.12 19.13-4.6 25.92"/><path id="kvg:065f1-s3" kvg:type="㇐a" d="M33.53 28.3c3.85-.4 37.72-3.3 42.89-2.97"/><path id="kvg:065f1-s4" kvg:type="㇐a" d="M35.29 41.11C46.25 40 62.14 39.37 73.9 38.67"/></g><g id="kvg:065f1-g2" kvg:element="干" kvg:position="bottom"><path id="kvg:065f1-s5" kvg:type="㇐" d="M28.88 52.62c.94.43 4.18.46 5.12.38 6.5-.5 29.16-2.16 40.25-3 1.56-.12 4.85.37 5.63.58"/><g id="kvg:065f1-g3" kvg:element="十"><path id="kvg:065f1-s6" kvg:type="㇐" d="M14.38 70.98c1.65.28 4.68.4 6.31.28 16.86-1.22 50.47-3.68 68.43-3.94 2.74-.04 4.39.13 5.76.27"/><path id="kvg:065f1-s7" kvg:type="㇑" d="M52.31 53.63c.54.51 1.68 3.81 1.79 4.83.11 1.02-.07 35.17-.18 41.54"/></g></g></g></g></svg>