<svg xmlns="http://www.w3.org/2000/svg" width="109" height="109" viewBox="0 0 109 109"><g id="kvg:StrokePaths_0660e"><g id="kvg:0660e" kvg:element="明"><g id="kvg:0660e-g1" kvg:element="日" kvg:position="left" kvg:radical="general"><path id="kvg:0660e-s1" kvg:type="㇑" d="M16.75 25.22c.89.89 1.32 2.29 1.32 3.66.0 1.11.07 27.44.0 37.63-.02 2.32-.02 3.78-.02 3.91"/><path id="kvg:0660e-s2" kvg:type="㇕a" d="M19.29 27.75c5.66-.81 19.54-2.59 21.22-2.75 1.76-.17 2.89 1.89 2.75 2.91-.23 1.7-.45 27.34-.52 36.6-.01 1.9-.02 3.11-.02 3.29"/><path id="kvg:0660e-s3" kvg:type="㇐a" d="M19.16 46.97C23.5 46.5 37 45.12 41.77 44.76"/><path id="kvg:0660e-s4" kvg:type="㇐a" d="M19 66.59c8.5-.97 14.37-1.59 22.49-2.11"/></g><g id="kvg:0660e-g2" kvg:element="月" kvg:position="right"><path id="kvg:0660e-s5" kvg:type="㇓" d="M57.55 16c.95 1.25 1.09 2.48 1.11 3.5 1.09 49.25-4.41 64.75-17.41 75.75"/><path id="kvg:0660e-s6" kvg:type="㇆a" d="M59.5 17.98c6.56-1.04 21.76-3.51 23.07-3.73 2.97-.5 5.21.62 5.21 4.5.0 1.49.19 50.25.19 70.5.0 11.88-7.22 3.5-8.3 2.5"/><path id="kvg:0660e-s7" kvg:type="㇐a" d="M59.77 39c7.85-1 19.73-2.25 26.95-2.75"/><path id="kvg:0660e-s8" kvg:type="㇐a" d="M59.25 57.75c6.62-.62 20-1.5 27.36-2"/></g></g></g></svg>