<svg xmlns="http://www.w3.org/2000/svg" width="109" height="109" viewBox="0 0 109 109"><g id="kvg:StrokePaths_06602" style="fill:none;stroke:#000000;stroke-width:3;stroke-linecap:round;stroke-linejoin:round;"><g id="kvg:06602" kvg:element="昂"><g id="kvg:06602-g1" kvg:element="日" kvg:position="top" kvg:radical="general"><path id="kvg:06602-s1" kvg:type="㇑" d="M28.49 12.83c.76.73 1.23 1.77 1.42 2.78 1.33 6.76 2.71 13.75 3.66 20.77.2 1.49.4 2.94.61 4.32"/><path id="kvg:06602-s2" kvg:type="㇕a" d="M30.82 15.12c12.72-1.51 28.8-3.87 40.94-4.64 3.93-.25 6.09.87 5.42 5.04-.6 3.69-1.64 9.64-2.66 14.87-.39 1.98-.77 3.86-1.12 5.47"/><path id="kvg:06602-s3" kvg:type="㇐a" d="M33.03 25.8c7.09-.92 32.22-3.8 41.89-4.22"/><path id="kvg:06602-s4" kvg:type="㇐a" d="M35.04 36.61c12.08-1.49 25.85-2.74 37.61-3.44"/></g><g id="kvg:06602-g2" kvg:position="bottom"><g id="kvg:06602-g3" kvg:position="right"><path id="kvg:06602-s5" kvg:type="㇒" d="M43.54 43.98c-.29.89-.95 1.5-1.62 2.07-2.94 2.53-9.67 5.69-16.53 8.21"/><path id="kvg:06602-s6" kvg:type="㇙" d="M21 53.27c.87.87 1.03 1.89 1.03 3.14S22 79.06 22 81c0 1.95-.07 2.18 1.95 1.11 4.66-2.48 17.8-9.24 21.78-11.08"/></g><g id="kvg:06602-g4" kvg:element="卩" kvg:position="left"><path id="kvg:06602-s7" kvg:type="㇆" d="M58 44.95c1 .55 2.76.79 4.26.64s18.24-2.34 21.86-2.63c3.07-.25 4.35 1.62 4.01 4.44-.91 7.61-3.26 20.75-5.2 27.48-1.88 6.52-5.8 1.5-7.21-.06"/><path id="kvg:06602-s8" kvg:type="㇑" d="M59.56 45.75c.78.78 1 1.73 1 3.13C60.55 57.71 60.52 80.51 60.5 92c0 2.73.0 4.87.0 6.12"/></g></g></g></g></svg>