<svg xmlns="http://www.w3.org/2000/svg" width="109" height="109" viewBox="0 0 109 109"><g id="kvg:StrokePaths_06603" style="fill:none;stroke:#000000;stroke-width:3;stroke-linecap:round;stroke-linejoin:round;"><g id="kvg:06603" kvg:element="昃"><g id="kvg:06603-g1" kvg:element="日" kvg:position="top" kvg:radical="general"><path id="kvg:06603-s1" kvg:type="㇑" d="M32.24 13.58c.34.45.35.77.54 1.34 1.56 4.69 2.67 16.54 3.63 25.29"/><path id="kvg:06603-s2" kvg:type="㇕a" d="M34.78 15.37c10.81-1.01 30.24-2.74 38.31-3.59 2.96-.31 3.57 1.79 3.42 2.9-.56 4.06-2.89 16.63-4.25 23.42"/><path id="kvg:06603-s3" kvg:type="㇐a" d="M36.8 26.3c3.52-.4 33.94-2.31 36.85-2.47"/><path id="kvg:06603-s4" kvg:type="㇐a" d="M37.95 37.11c10.01-1.11 24.02-1.24 34.76-1.94"/></g><g id="kvg:06603-g2" kvg:element="仄" kvg:position="bottom"><g id="kvg:06603-g3" kvg:element="厂" kvg:position="tare"><path id="kvg:06603-s5" kvg:type="㇐" d="M21.63 49.25c1.86.45 5.26.52 7.12.45 19.32-.76 38.26-2.93 56.98-3.52 3.09-.1 4.95.22 6.5.44"/><path id="kvg:06603-s6" kvg:type="㇒" d="M30.47 53.51c.71.94.73 1.69.61 3.23-.96 12.3-5.83 29.77-18.2 41.83"/></g><g id="kvg:06603-g4" kvg:element="人" kvg:position="tarec"><path id="kvg:06603-s7" kvg:type="㇒" d="M58.04 54.5c.08 1.03.17 2.67-.16 4.15-1.99 8.75-9.33 30.08-28.57 39.7"/><path id="kvg:06603-s8" kvg:type="㇏" d="M56.66 65.22c4.39 5.72 23.29 24.41 28.13 28.59 1.64 1.42 3.75 2.03 5.39 2.44"/></g></g></g></g></svg>