<!DOCTYPE svg PUBLIC "-//W3C//DTD SVG 1.0//EN" "http://www.w3.org/TR/2001/REC-SVG-20010904/DTD/svg10.dtd" [
<!ATTLIST g
xmlns:kvg CDATA #FIXED "http://kanjivg.tagaini.net"
kvg:element CDATA #IMPLIED
kvg:variant CDATA #IMPLIED
kvg:partial CDATA #IMPLIED
kvg:original CDATA #IMPLIED
kvg:part CDATA #IMPLIED
kvg:number CDATA #IMPLIED
kvg:tradForm CDATA #IMPLIED
kvg:radicalForm CDATA #IMPLIED
kvg:position CDATA #IMPLIED
kvg:radical CDATA #IMPLIED
kvg:phon CDATA #IMPLIED >
<!ATTLIST path
xmlns:kvg CDATA #FIXED "http://kanjivg.tagaini.net"
kvg:type CDATA #IMPLIED >
]><svg xmlns="http://www.w3.org/2000/svg" width="109" height="109" viewBox="0 0 109 109"><g id="kvg:StrokePaths_0662d" style="fill:none;stroke:#000000;stroke-width:3;stroke-linecap:round;stroke-linejoin:round;"><g id="kvg:0662d" kvg:element="昭"><g id="kvg:0662d-g1" kvg:element="日" kvg:position="left" kvg:radical="general"><path id="kvg:0662d-s1" kvg:type="㇑" d="M16.75 26.48c.76.76 1.45 1.97 1.45 3.49s-.23 41.98-.23 42.74c0 .76-.02 2.04-.02 3.54"/><path id="kvg:0662d-s2" kvg:type="㇕a" d="M18.77 27.42C22 27 35.14 24.48 36.93 24.25c1.49-.19 2.83 1.13 2.83 3.24.0 2.3-.35 26.33-.34 43.12.0 1.73-.12 2.98-.12 4.13"/><path id="kvg:0662d-s3" kvg:type="㇐a" d="M19.37 49.55C23.5 49 33.88 47.5 38.49 47.14"/><path id="kvg:0662d-s4" kvg:type="㇐a" d="M18.77 73.15c7.98-1.03 11.73-1.65 19.49-2.53"/></g><g id="kvg:0662d-g2" kvg:element="召" kvg:position="right" kvg:phon="召"><g id="kvg:0662d-g3" kvg:element="刀"><path id="kvg:0662d-s5" kvg:type="㇆" d="M49.21 22.3c1.85 1.06 4.42.72 6.4.48 10.13-1.22 24.14-3.53 30.59-4.56 3.6-.58 5.22.91 5.05 3.82-.38 6.84-2.38 18.62-5.86 26.2-2.65 5.76-5.65 3.89-8.45.11"/><path id="kvg:0662d-s6" kvg:type="㇒" d="M65.75 24.64c.5.86.48 2.1.14 3.22-3.39 11.14-8.51 23.39-19 32.79"/></g><g id="kvg:0662d-g4" kvg:element="口"><path id="kvg:0662d-s7" kvg:type="㇑" d="M50.75 65.64c.79.78 1.24 1.73 1.33 2.83 1.08 4.58 2.3 13.9 3.13 20.65.15 1.22.29 2.36.41 3.37"/><path id="kvg:0662d-s8" kvg:type="㇕b" d="M52.84 67.28c9.66-1.78 26.44-3.77 33.4-4.54 3.27-.36 4.77 2.51 4.09 4.96-1.24 4.48-3.31 12.05-4.73 18.35"/><path id="kvg:0662d-s9" kvg:type="㇐b" d="M56.59 88.83c4.58-.51 17.89-1.36 27.78-1.82 1.26-.06 2.46-.11 3.58-.15"/></g></g></g></g><g id="kvg:StrokeNumbers_0662d" style="font-size:8;fill:#808080"><text transform="matrix(1 0 0 1 10.50 35.50)">1</text><text transform="matrix(1 0 0 1 19.50 23.50)">2</text><text transform="matrix(1 0 0 1 22.50 45.13)">3</text><text transform="matrix(1 0 0 1 22.33 69.13)">4</text><text transform="matrix(1 0 0 1 49.50 19.63)">5</text><text transform="matrix(1 0 0 1 56.25 33.16)">6</text><text transform="matrix(1 0 0 1 45.75 76.63)">7</text><text transform="matrix(1 0 0 1 55.50 63.50)">8</text><text transform="matrix(1 0 0 1 59.50 85.50)">9</text></g></svg>