<svg xmlns="http://www.w3.org/2000/svg" width="109" height="109" viewBox="0 0 109 109"><g id="kvg:StrokePaths_06628" style="fill:none;stroke:#000000;stroke-width:3;stroke-linecap:round;stroke-linejoin:round;"><g id="kvg:06628" kvg:element="昨"><g id="kvg:06628-g1" kvg:element="日" kvg:position="left" kvg:radical="general"><path id="kvg:06628-s1" kvg:type="㇑" d="M14.02 31.44c.96.96 1.36 2.31 1.36 3.72.0.85.03 26.76.04 37.59.0 2.78.01 4.56.01 4.68"/><path id="kvg:06628-s2" kvg:type="㇕a" d="M16.38 32.82c1.34-.1 11.98-2.09 17.26-2.89 2.86-.43 4.52 1.07 4.52 3.58.0 5.86.02 24.4.02 35.99.0 1.98.0 3.77.0 5.25"/><path id="kvg:06628-s3" kvg:type="㇐a" d="M16.43 52.48c6.57-1.1 16.32-2.23 20.94-2.56"/><path id="kvg:06628-s4" kvg:type="㇐a" d="M16.07 73.56c6.18-.94 14.05-2.06 21.29-2.54"/></g><g id="kvg:06628-g2" kvg:element="乍" kvg:position="right" kvg:phon="乍"><g id="kvg:06628-g3" kvg:element="丿"><path id="kvg:06628-s5" kvg:type="㇒" d="M60.5 12.75c.25 1.12.25 2.16-.09 3.31C58 24.25 52.34 38.62 43.81 48"/></g><path id="kvg:06628-s6" kvg:type="㇐" d="M55.36 33.67c1.39.2 2.64.18 3.48.12 10-.69 22.52-3.61 30.91-4.76 1.92-.26 4.02-.7 5.96-.4"/><path id="kvg:06628-s7" kvg:type="㇑" d="M66.91 34.71c1 1 1.28 2.29 1.28 3.38.0.82-.12 38.29-.16 54.16-.01 2.96-.01 5.17-.01 6.25"/><path id="kvg:06628-s8" kvg:type="㇐b" d="M70.57 51.69c5.18-.94 11.68-1.94 17.53-2.88 1.38-.22 2.89-.43 4.37-.07"/><path id="kvg:06628-s9" kvg:type="㇐b" d="M69.99 69.44c3.76-.44 12.76-1.69 21.36-2.63.77-.08 2.75-.16 3.13-.07"/></g></g></g></svg>