<!DOCTYPE svg PUBLIC "-//W3C//DTD SVG 1.0//EN" "http://www.w3.org/TR/2001/REC-SVG-20010904/DTD/svg10.dtd" [
<!ATTLIST g
xmlns:kvg CDATA #FIXED "http://kanjivg.tagaini.net"
kvg:element CDATA #IMPLIED
kvg:variant CDATA #IMPLIED
kvg:partial CDATA #IMPLIED
kvg:original CDATA #IMPLIED
kvg:part CDATA #IMPLIED
kvg:number CDATA #IMPLIED
kvg:tradForm CDATA #IMPLIED
kvg:radicalForm CDATA #IMPLIED
kvg:position CDATA #IMPLIED
kvg:radical CDATA #IMPLIED
kvg:phon CDATA #IMPLIED >
<!ATTLIST path
xmlns:kvg CDATA #FIXED "http://kanjivg.tagaini.net"
kvg:type CDATA #IMPLIED >
]><svg xmlns="http://www.w3.org/2000/svg" width="109" height="109" viewBox="0 0 109 109"><g id="kvg:StrokePaths_0664f" style="fill:none;stroke:#000000;stroke-width:3;stroke-linecap:round;stroke-linejoin:round;"><g id="kvg:0664f" kvg:element="晏"><g id="kvg:0664f-g1" kvg:element="日" kvg:position="top" kvg:radical="general"><path id="kvg:0664f-s1" kvg:type="㇑" d="M31.24 11.7c.78.78 1.24 1.71 1.38 2.8 1.25 7.37 2.35 13.74 3.46 21.96"/><path id="kvg:0664f-s2" kvg:type="㇕a" d="M33.23 13.42c8.61-1.05 25.84-2.65 36.78-3.68 3.44-.32 5.91.13 5.3 4.14-.7 4.65-2.29 14.15-3.49 19.97"/><path id="kvg:0664f-s3" kvg:type="㇐a" d="M34.72 23.05C42 22.38 65.5 20.5 73.2 20.28"/><path id="kvg:0664f-s4" kvg:type="㇐a" d="M36.85 33.33c10.4-.58 21.15-1.58 34.43-1.77"/></g><g id="kvg:0664f-g2" kvg:element="安" kvg:position="bottom"><g id="kvg:0664f-g3" kvg:element="宀" kvg:position="top"><path id="kvg:0664f-s5" kvg:type="㇑a" d="M52.74 37.23c1.14 1.14 1.5 2.4 1.5 4.19.0 1.33-.08 2.71-.08 5.13"/><g id="kvg:0664f-g4" kvg:element="冖"><path id="kvg:0664f-s6" kvg:type="㇔" d="M21.75 46.75c0 3.45-3.54 12.95-5.15 15.25"/><path id="kvg:0664f-s7" kvg:type="㇖b" d="M22.24 50.23c16.63-1.6 47.76-4.48 65.68-4.88 9.83-.22-.64 8.21-2.17 8.9"/></g></g><g id="kvg:0664f-g5" kvg:element="女" kvg:position="bottom"><path id="kvg:0664f-s8" kvg:type="㇛" d="M49.46 51.5c.5 1.17.32 2.7-.25 4.09-2.79 6.75-6.33 14.03-12.93 22.18-1.61 1.99-1.69 3.26.97 3.36 9.86.35 24.19 4.94 34.22 10.7 4.08 2.35 7.46 4.89 9.53 7.41"/><path id="kvg:0664f-s9" kvg:type="㇒" d="M67.75 61c.13.95-.02 2.99-.52 4.36-4.04 11.08-17.88 28.41-44.73 34.89"/><path id="kvg:0664f-s10" kvg:type="㇐" d="M15.63 69.62c3.38.73 6.84.37 10.25.15 12.08-.78 38.79-2.76 55.62-3.16 3.77-.09 7.58-.28 11.25.74"/></g></g></g></g><g id="kvg:StrokeNumbers_0664f" style="font-size:8;fill:#808080"><text transform="matrix(1 0 0 1 25.25 18.25)">1</text><text transform="matrix(1 0 0 1 35.41 10.60)">2</text><text transform="matrix(1 0 0 1 39.25 20.60)">3</text><text transform="matrix(1 0 0 1 39.10 31.25)">4</text><text transform="matrix(1 0 0 1 44.25 41.58)">5</text><text transform="matrix(1 0 0 1 15.25 48.25)">6</text><text transform="matrix(1 0 0 1 25.25 47.25)">7</text><text transform="matrix(1 0 0 1 41.25 57.25)">8</text><text transform="matrix(1 0 0 1 59.19 59.28)">9</text><text transform="matrix(1 0 0 1 19.25 67.25)">10</text></g></svg>