<!DOCTYPE svg PUBLIC "-//W3C//DTD SVG 1.0//EN" "http://www.w3.org/TR/2001/REC-SVG-20010904/DTD/svg10.dtd" [
<!ATTLIST g
xmlns:kvg CDATA #FIXED "http://kanjivg.tagaini.net"
kvg:element CDATA #IMPLIED
kvg:variant CDATA #IMPLIED
kvg:partial CDATA #IMPLIED
kvg:original CDATA #IMPLIED
kvg:part CDATA #IMPLIED
kvg:number CDATA #IMPLIED
kvg:tradForm CDATA #IMPLIED
kvg:radicalForm CDATA #IMPLIED
kvg:position CDATA #IMPLIED
kvg:radical CDATA #IMPLIED
kvg:phon CDATA #IMPLIED >
<!ATTLIST path
xmlns:kvg CDATA #FIXED "http://kanjivg.tagaini.net"
kvg:type CDATA #IMPLIED >
]><svg xmlns="http://www.w3.org/2000/svg" width="109" height="109" viewBox="0 0 109 109"><g id="kvg:StrokePaths_06644" style="fill:none;stroke:#000000;stroke-width:3;stroke-linecap:round;stroke-linejoin:round;"><g id="kvg:06644" kvg:element="晄"><g id="kvg:06644-g1" kvg:element="日" kvg:position="left" kvg:radical="general"><path id="kvg:06644-s1" kvg:type="㇑" d="M13.27 24.51c.39.99.78 2.11.78 3.37.0 1.27-.13 53.62.0 54.9"/><path id="kvg:06644-s2" kvg:type="㇕a" d="M14.19 26.63c5.06-.79 13.06-1.81 16.92-2.34 1.64-.23 2.61 2 2.61 2.95.0 4.89-.52 46.31-.52 55.06"/><path id="kvg:06644-s3" kvg:type="㇐a" d="M14.08 52.58c6.67-.22 13.42-1.7 19.22-1.82"/><path id="kvg:06644-s4" kvg:type="㇐a" d="M13.94 80.26c6.06-.08 11.56-1.24 18.85-1.09"/></g><g id="kvg:06644-g2" kvg:element="光" kvg:position="right"><g id="kvg:06644-g3" kvg:element="⺌" kvg:variant="true" kvg:original="小" kvg:position="top"><path id="kvg:06644-s5" kvg:type="㇑" d="M64.48 13.62c.1.28 1.37 1.46 1.46 3.25.47 8.57-.3 28.83-.3 31.75"/><path id="kvg:06644-s6" kvg:type="㇔" d="M44.19 26.33c3.53 2.58 9.13 10.62 10.01 14.63"/><path id="kvg:06644-s7" kvg:type="㇒" d="M89.17 22.75c.04.41.08 1.05-.08 1.63-.91 3.44-6.16 10.97-13.34 15.59"/></g><g id="kvg:06644-g4" kvg:element="兀" kvg:position="bottom"><g id="kvg:06644-g5" kvg:element="一"><path id="kvg:06644-s8" kvg:type="㇐" d="M39.38 50.32c1.45.27 4.13.45 5.57.27 11.05-1.35 34.3-3.1 46.96-3.12 2.42.0 3.88.13 5.09.27"/></g><g id="kvg:06644-g6" kvg:element="儿" kvg:original="八"><g id="kvg:06644-g7" kvg:element="丿"><path id="kvg:06644-s9" kvg:type="㇒" d="M59.34 53.5c.06.95.18 2.46-.13 3.81-2.6 11.45-10.29 29.34-22.69 36.44"/></g><path id="kvg:06644-s10" kvg:type="㇟" d="M71.32 51.37c.48 1.3.85 2.84.88 4.84.09 6.33-.24 19.2-.24 27.79.0 9.75 2.54 10.77 13.01 10.77 9.28.0 10.92-2.52 10.92-9.39"/></g></g></g></g></g><g id="kvg:StrokeNumbers_06644" style="font-size:8;fill:#808080"><text transform="matrix(1 0 0 1 6.50 31.50)">1</text><text transform="matrix(1 0 0 1 17.50 22.50)">2</text><text transform="matrix(1 0 0 1 18.50 48.50)">3</text><text transform="matrix(1 0 0 1 18.50 76.50)">4</text><text transform="matrix(1 0 0 1 54.50 13.50)">5</text><text transform="matrix(1 0 0 1 40.50 23.50)">6</text><text transform="matrix(1 0 0 1 82.50 22.50)">7</text><text transform="matrix(1 0 0 1 37.50 46.50)">8</text><text transform="matrix(1 0 0 1 51.50 59.50)">9</text><text transform="matrix(1 0 0 1 61.50 65.50)">10</text></g></svg>