<svg xmlns="http://www.w3.org/2000/svg" width="109" height="109" viewBox="0 0 109 109"><g id="kvg:StrokePaths_0665e"><g id="kvg:0665e" kvg:element="晞"><g id="kvg:0665e-g1" kvg:element="日" kvg:position="left" kvg:radical="general"><path id="kvg:0665e-s1" kvg:type="㇑" d="M13.27 21.94c.38.78.76 1.68.76 2.72s-.13 51.29.0 52.34"/><path id="kvg:0665e-s2" kvg:type="㇕a" d="M14.66 24.57C19.6 23.5 27.4 22 31.17 21.24c1.6-.32 2.55 1.44 2.55 2.22.0 4.04-.5 43.29-.5 50.51"/><path id="kvg:0665e-s3" kvg:type="㇐a" d="M14.06 47.23c6.51-.73 13.59-1.73 19.25-2.31"/><path id="kvg:0665e-s4" kvg:type="㇐a" d="M14.42 73.06c5.91-.56 11.28-1.56 18.4-2.04"/></g><g id="kvg:0665e-g2" kvg:element="希" kvg:position="right"><g id="kvg:0665e-g3" kvg:element="乂" kvg:position="top"><g id="kvg:0665e-g4" kvg:element="丿"><path id="kvg:0665e-s5" kvg:type="㇒" d="M83.02 10.18c.27 1.12-.34 1.76-1.4 2.52-9.02 6.45-21.91 14.09-37.55 18.49"/></g><path id="kvg:0665e-s6" kvg:type="㇏" d="M49.99 14.22C62 16.25 76.25 22.25 84.86 29.76"/></g><g id="kvg:0665e-g5" kvg:element="布" kvg:position="bottom"><path id="kvg:0665e-s7" kvg:type="㇒" d="M64.86 29.67c.08 1.11-.14 2.95-.69 4.47C60 45.73 52.35 61.69 35.94 76.9"/><path id="kvg:0665e-s8" kvg:type="㇐" d="M39.79 41.18c1.59.45 4.5.51 6.09.45 13.85-.59 31-3.29 49.25-3.69 2.65-.06 4.24.21 5.56.44"/><g id="kvg:0665e-g6" kvg:element="巾"><path id="kvg:0665e-s9" kvg:type="㇑" d="M52.21 61.1c.42.3 1.31 2.21 1.4 2.8.27 1.91 2.42 23.43 2.36 25.94"/><path id="kvg:0665e-s10" kvg:type="㇆a" d="M52.98 61.79c2.64-.21 33.38-3.82 35.35-3.95 2.31-.15 3.73 1.41 3.73 3.95.0 9.09-.56 12.96-2.04 20.15-1.62 7.89-5.7 1.55-6.58.51"/><path id="kvg:0665e-s11" kvg:type="㇑" d="M69.78 44.5c.42.3 1.31 2.21 1.4 2.8.08.59-.05 49.51-.14 53.2"/></g></g></g></g></g></svg>