<svg xmlns="http://www.w3.org/2000/svg" width="109" height="109" viewBox="0 0 109 109"><g id="kvg:StrokePaths_06652"><g id="kvg:06652" kvg:element="晒"><g id="kvg:06652-g1" kvg:element="日" kvg:position="left" kvg:radical="general"><path id="kvg:06652-s1" kvg:type="㇑" d="M12.02 30.71c.83.83.99 1.94.99 3 0 4.12.0 24.9.0 37.17.0 4.24.0 7.47.0 8.62"/><path id="kvg:06652-s2" kvg:type="㇕a" d="M13.62 32.11c4.39-.99 10.85-1.92 14.79-2.65 2-.37 3.56 1 3.56 3.05.0 5.89.01 25.19.01 37 0 3.48.0 6.32.0 7.96"/><path id="kvg:06652-s3" kvg:type="㇐a" d="M14.04 53.47c6.35-.74 10.71-1.22 16.78-1.83"/><path id="kvg:06652-s4" kvg:type="㇐a" d="M14.14 76.78c5.77-.57 9.76-1.08 16.7-1.57"/></g><g id="kvg:06652-g2" kvg:element="西" kvg:variant="true" kvg:original="襾" kvg:position="right"><path id="kvg:06652-s5" kvg:type="㇐" d="M39.2 25.23c3.26.49 6.53.53 9.8.11 10.7-.8 25.9-2.78 37.88-3.44 3.14-.16 6.26-.01 9.37.43"/><path id="kvg:06652-s6" kvg:type="㇑" d="M40.54 44.88c1.04 1.04 1.12 1.99 1.27 3.65.63 7.25 1.68 19.1 2.67 30.6.29 3.33.57 6.63.84 9.79"/><path id="kvg:06652-s7" kvg:type="㇕a" d="M42.75 46.88c11.86-1.44 37.32-4.11 47.13-4.58 4.14-.2 6.61 1.82 6.08 6.36-.78 6.66-1.82 16.09-3.27 26.57-.51 3.7-1.07 7.52-1.69 11.4"/><path id="kvg:06652-s8" kvg:type="㇒" d="M58.55 27.85c1.05 1.05 1.25 2.54 1.28 4.08.29 13.83-2.58 32.83-12.05 38.11"/><path id="kvg:06652-s9" kvg:type="㇟a" d="M73.17 26.27c.97.97 1.36 2.61 1.36 4.09.0 14.27-.35 23.15-.35 27.64.0 5.76 1.07 6.93 6.61 6.93 4.69.0 7.28-1.16 7.54-1.5"/><path id="kvg:06652-s10" kvg:type="㇐a" d="M46 86.24c11.13-.86 31.82-2.26 44.56-2.49"/></g></g></g></svg>