<svg xmlns="http://www.w3.org/2000/svg" width="109" height="109" viewBox="0 0 109 109"><g id="kvg:StrokePaths_06666" style="fill:none;stroke:#000000;stroke-width:3;stroke-linecap:round;stroke-linejoin:round;"><g id="kvg:06666" kvg:element="晦"><g id="kvg:06666-g1" kvg:element="日" kvg:position="left" kvg:radical="general"><path id="kvg:06666-s1" kvg:type="㇑" d="M14.02 30.69c.77.77 1.03 1.93 1.03 2.97.0 3.18.0 25.54.0 37.71.0 3.95.0 6.83.0 7.62"/><path id="kvg:06666-s2" kvg:type="㇕a" d="M15.69 32.57c4.38-.93 10.6-1.8 14.69-2.51 2.39-.41 4.34.48 4.34 3.19.0 7.4-.02 37.01-.02 43.73"/><path id="kvg:06666-s3" kvg:type="㇐a" d="M16.08 53.23c6.67-.73 11.67-1.48 17.47-2.06"/><path id="kvg:06666-s4" kvg:type="㇐a" d="M15.94 75.81c6.56-.81 10.31-1.31 17.6-1.79"/></g><g id="kvg:06666-g2" kvg:element="毎" kvg:position="right"><g id="kvg:06666-g3" kvg:position="top"><g id="kvg:06666-g4" kvg:element="丿"><path id="kvg:06666-s5" kvg:type="㇒" d="M61.25 12.5c-.03 1.4-.28 2.75-.76 4.05-2.87 6.95-9.04 17.8-14.49 24.2"/></g><path id="kvg:06666-s6" kvg:type="㇐" d="M58.13 28.53c1.87.22 3.68.17 4.6.04 6.77-.94 11.9-1.82 20.82-3.74 2.35-.51 4.7-.7 6.99-.32"/></g><g id="kvg:06666-g5" kvg:element="毋" kvg:original="母" kvg:partial="true" kvg:position="bottom"><path id="kvg:06666-s7" kvg:type="㇛" d="M56.7 39.62c.68 1.51.67 2.38.07 4.31C53.5 54.38 50 63.75 46.86 71.28c-1.26 3.01-.17 3.75 2.39 4.01 10.4 1.06 21.86 3.2 32.41 7.65 3.4 1.44 6.7 3.11 9.85 5.07"/><path id="kvg:06666-s8" kvg:type="㇆a" d="M57.5 41.91c1.5.59 2.9.46 3.78.36 8-.88 12.1-1.77 19.97-2.71 2.53-.3 5.04.31 4.76 3.48-1.26 14.3-8.04 43.25-11.56 50.59-2.7 5.63-5.62-.59-6.62-1.62"/><path id="kvg:06666-s9" kvg:type="㇔" d="M66.077858 47.195946c2.269983 1.293002 4.809791 4.256334 5.300416 6.038107"/><path id="kvg:06666-s10" kvg:type="㇔" d="M63.92 65.16c2.269983 1.293002 4.809791 4.256334 5.300416 6.038107"/><path id="kvg:06666-s11" kvg:type="㇐" d="M40.38 60.67c3.2.55 6.39.29 9.65-.01 11.23-1.04 24.46-2.19 38.98-2.85 3.33-.15 6.61-.04 9.88.48"/></g></g></g></g></svg>