<svg xmlns="http://www.w3.org/2000/svg" width="109" height="109" viewBox="0 0 109 109"><g id="kvg:StrokePaths_0667a"><g id="kvg:0667a" kvg:element="智"><g id="kvg:0667a-g1" kvg:element="知" kvg:position="top"><g id="kvg:0667a-g2" kvg:element="矢" kvg:variant="true" kvg:position="left"><path id="kvg:0667a-s1" kvg:type="㇒" d="M30.27 11.71c.09.9.0 1.77-.28 2.62-1.13 4.02-4.44 11.01-10.83 17.66"/><g id="kvg:0667a-g3" kvg:element="天" kvg:variant="true"><path id="kvg:0667a-s2" kvg:type="㇐" d="M29.99 22.13c1.51.24 2.63.03 4.02-.19 3.43-.54 7.28-1.54 12.29-2.31 1.57-.24 3.12-.33 4.71-.01"/><g id="kvg:0667a-g4" kvg:element="大" kvg:variant="true"><path id="kvg:0667a-s3" kvg:type="㇐" d="M14.67 39.37c1.87.67 4.68.28 6.59.12 8.99-.76 21.11-2.73 28.6-4.1.77-.14 2.5-.38 4.24-.03"/><path id="kvg:0667a-s4" kvg:type="㇒" d="M38.49 24.19c.36.91.2 1.83.02 2.95C35.25 46.5 27.75 56.25 16.32 61.93"/><path id="kvg:0667a-s5" kvg:type="㇔/㇏" d="M37.75 42.75c6.98 2.81 13.23 7.63 14.45 10.66"/></g></g></g><g id="kvg:0667a-g5" kvg:element="口" kvg:position="right"><path id="kvg:0667a-s6" kvg:type="㇑" d="M62.25 23.75c.98.81 1.54 1.85 1.7 3.11 1.15 4.1 2.14 11.22 3.1 17.52.29 1.93.56 3.78.8 5.45"/><path id="kvg:0667a-s7" kvg:type="㇕b" d="M64.46 25.44c7.73-.91 17.29-2.11 24.05-2.84 2.86-.31 5.29.17 4.53 3.59-1.05 4.75-1.91 10.43-3.56 17.75"/><path id="kvg:0667a-s8" kvg:type="㇐b" d="M68.54 47.16c6.18-.65 12.09-1.23 18.6-1.87 1.34-.13 2.73-.27 4.15-.41"/></g></g><g id="kvg:0667a-g6" kvg:element="日" kvg:position="bottom" kvg:radical="general"><path id="kvg:0667a-s9" kvg:type="㇑" d="M36.1 60.03c.93.93 1.14 2.22 1.14 3.68.0.92.0 18.77.0 29.42.0 2.58.0 4.74.0 6.12"/><path id="kvg:0667a-s10" kvg:type="㇕a" d="M37.94 61.49c5.07-.45 23.91-2.43 29.44-2.91 2.94-.25 4.78.31 4.77 3.54-.01 3.63-.02 19.5-.02 29 0 4.1.0 7.01.0 7.25"/><path id="kvg:0667a-s11" kvg:type="㇐a" d="M38.36 78.1c9.14-.98 24.89-2.48 32.49-2.71"/><path id="kvg:0667a-s12" kvg:type="㇐a" d="M38.56 95.46c8.44-.71 26.77-2.43 32.04-2.43"/></g></g></g></svg>