<svg xmlns="http://www.w3.org/2000/svg" width="109" height="109" viewBox="0 0 109 109"><g id="kvg:StrokePaths_06681"><g id="kvg:06681" kvg:element="暁"><g id="kvg:06681-g1" kvg:element="日" kvg:position="left" kvg:radical="general"><path id="kvg:06681-s1" kvg:type="㇑" d="M14.27 28.19c.83.83 1.01 1.93 1.01 3.47.0 2.01.0 27.69.0 39.71.0 2.71.0 4.73.0 5.62"/><path id="kvg:06681-s2" kvg:type="㇕a" d="M16.41 29.82c5.47-.82 9.32-1.83 13.26-2.47 3.01-.49 4.55.09 4.55 3.4.0 7.63-.01 27.31.0 38.25.0 2.59.0 4.55.0 5.48"/><path id="kvg:06681-s3" kvg:type="㇐a" d="M16.31 50.23c6.51-.73 10.84-1.48 16.5-2.06"/><path id="kvg:06681-s4" kvg:type="㇐a" d="M16.42 72.56c5.91-.56 9.03-1.31 16.15-1.79"/></g><g id="kvg:06681-g2" kvg:element="尭" kvg:position="right" kvg:phon="尭"><g id="kvg:06681-g3" kvg:element="卉" kvg:position="top"><g id="kvg:06681-g4" kvg:element="十" kvg:position="top"><path id="kvg:06681-s5" kvg:type="㇐" d="M46.67 27.2c1.98.66 4.8.45 6.84.16 6.64-.96 16.49-2.46 24.51-3.44 2.27-.28 4.35-.47 6.61-.04"/><path id="kvg:06681-s6" kvg:type="㇑" d="M63.5 11.56c1.03 1.03 1.53 2.31 1.53 3.98.0.54-.01 10.85-.02 17.08.0 2.5-.01 4.33-.01 4.63"/></g><g id="kvg:06681-g5" kvg:element="廾" kvg:position="bottom"><g id="kvg:06681-g6" kvg:element="十" kvg:part="1"><path id="kvg:06681-s7" kvg:type="㇐" d="M40.33 47.94c2.05.95 5.25.44 7.44.17 10.34-1.3 28.63-3.45 39.61-4.44 2.43-.22 4.75-.52 7.14.12"/></g><g id="kvg:06681-g7" kvg:element="丿"><path id="kvg:06681-s8" kvg:type="㇑a/㇒" d="M51.87 37.75c.81.81 1.15 2.03 1.2 2.91.5 7.8.93 15.59 1.3 22.38"/></g><g id="kvg:06681-g8" kvg:element="十" kvg:part="2"><path id="kvg:06681-s9" kvg:type="㇑a" d="M77.51 34.17c1.04 1.04.95 2.44.81 4.74C77.88 46.5 77.75 49 76.79 59.85"/></g></g></g><g id="kvg:06681-g9" kvg:position="bottom"><g id="kvg:06681-g10" kvg:element="兀"><g id="kvg:06681-g11" kvg:element="一"><path id="kvg:06681-s10" kvg:type="㇐" d="M43.2 64.61c2.15-.06 4.26.28 6.42.01 8.89-1.1 23.67-3 33.75-3.94 2.63-.24 5.3-.43 7.88.3"/></g></g><g id="kvg:06681-g12" kvg:element="儿" kvg:original="八"><g id="kvg:06681-g13" kvg:element="丿"><path id="kvg:06681-s11" kvg:type="㇒" d="M56.52 67.66c.06.67.13 1.71-.11 2.68-1.38 5.68-8.69 19.07-20.28 25.88"/></g><path id="kvg:06681-s12" kvg:type="㇟" d="M69.3 65.72c.8.8.96 1.99.96 3.42.0 6.74-.07 12.37-.07 16.88.0 6.74 1.8 8.67 12.3 8.67 11.5.0 13.1-1.93 13.1-7.39"/></g></g></g></g></g></svg>