<svg xmlns="http://www.w3.org/2000/svg" width="109" height="109" viewBox="0 0 109 109"><g id="kvg:StrokePaths_06689"><g id="kvg:06689" kvg:element="暉"><g id="kvg:06689-g1" kvg:element="日" kvg:position="left" kvg:radical="general"><path id="kvg:06689-s1" kvg:type="㇑" d="M12.02 22.19c.83.83 1.01 1.93 1.01 3.47.0.86.0 32.38.0 45.59.0 2.86.0 4.86.0 5.5"/><path id="kvg:06689-s2" kvg:type="㇕a" d="M13.91 23.39C20 22.25 22.25 22 27.26 21.21c3.25-.51 4.23.24 4.21 3.16-.04 6.34-.01 32.4.0 45.25.0 2.74.0 4.88.0 6.1"/><path id="kvg:06689-s3" kvg:type="㇐a" d="M14.06 46.72c6.51-.74 10.59-1.26 16.25-1.85"/><path id="kvg:06689-s4" kvg:type="㇐a" d="M14.17 73.04c5.91-.57 9.03-.59 16.15-1.08"/></g><g id="kvg:06689-g2" kvg:element="軍" kvg:position="right"><g id="kvg:06689-g3" kvg:element="冖" kvg:position="top"><path id="kvg:06689-s5" kvg:type="㇔" d="M42.62 14c-.13 3.5-3.13 12.66-4.2 14.75"/><path id="kvg:06689-s6" kvg:type="㇖b" d="M43.24 15.83c6.43-.67 33.38-3.37 46.1-3.37 10.91.0 1 8.15-.19 9.29"/></g><g id="kvg:06689-g4" kvg:element="車" kvg:position="bottom"><path id="kvg:06689-s7" kvg:type="㇐" d="M45.64 31.95c2.98.68 5.65.25 7.99.01 7.98-.83 17.92-2.16 26.74-2.74 2.28-.15 4.49-.34 6.74.18"/><path id="kvg:06689-s8" kvg:type="㇑" d="M44.07 42.83c.69.48 1.58 2.35 1.71 2.98.78 3.83 1.53 11.28 2.52 18.69.2 1.48.41 2.96.63 4.41"/><path id="kvg:06689-s9" kvg:type="㇕a" d="M46.49 44.82c11.66-1.71 30.32-3.9 38.51-4.27 3.72-.17 5.08.77 4.72 4.46-.41 4.21-1.44 10.32-2.75 16.58-.32 1.51-.65 3.03-.99 4.53"/><path id="kvg:06689-s10" kvg:type="㇐a" d="M47.99 55.53c10.14-1.15 28.76-2.78 39.65-3.33"/><path id="kvg:06689-s11" kvg:type="㇐a" d="M49.74 66.48c9.27-.95 22.51-2.35 35.74-3.07"/><path id="kvg:06689-s12" kvg:type="㇐" d="M38.25 78.99c3.02 1.18 6.75.76 9.89.41 13.61-1.52 28.27-2.51 41.87-3.23 3.23-.17 6.09-.26 9.24.48"/><path id="kvg:06689-s13" kvg:type="㇑" d="M65.42 20.38c1.16 1.16 1.62 2.74 1.62 4.79.0 3.23.01 45.31.01 65.32.0 4.43.0 7.77.0 9.38"/></g></g></g></g></svg>