<svg xmlns="http://www.w3.org/2000/svg" width="109" height="109" viewBox="0 0 109 109"><g id="kvg:StrokePaths_0668e" style="fill:none;stroke:#000000;stroke-width:3;stroke-linecap:round;stroke-linejoin:round;"><g id="kvg:0668e" kvg:element="暎"><g id="kvg:0668e-g1" kvg:element="日" kvg:position="left" kvg:radical="general"><path id="kvg:0668e-s1" kvg:type="㇑" d="M13.27 23.94c.39.78.78 1.18.78 2.22s-.13 45.79.0 46.84"/><path id="kvg:0668e-s2" kvg:type="㇕a" d="M14.69 26.07c2.2-.13 11.41-1.67 13.42-1.83 1.67-.13 2.74 1.45 2.61 2.22-.26 1.57-.52 44.23-.52 45.01"/><path id="kvg:0668e-s3" kvg:type="㇐a" d="M15.08 47.23c2.97.0 10.86-1.31 14.22-1.31"/><path id="kvg:0668e-s4" kvg:type="㇐a" d="M14.94 70.56C21 70 21.75 69.5 29.29 69.02"/></g><g id="kvg:0668e-g2" kvg:element="英" kvg:position="right"><g id="kvg:0668e-g3" kvg:element="艹" kvg:variant="true" kvg:original="艸" kvg:position="top"><path id="kvg:0668e-s5" kvg:type="㇐" d="M38.36 25.37c1.11.46 2.4.5 3.52.46 9.87-.33 38.14-3.03 49.92-3.09 1.85-.01 2.97.22 3.89.45"/><path id="kvg:0668e-s6" kvg:type="㇑a" d="M51.48 13.5c1.26 1.4 1.73 1.82 1.79 2.69C54 26 54.79 30.35 54.95 34"/><path id="kvg:0668e-s7" kvg:type="㇑a" d="M78.09 12.75c.24 1.09.54 1.9.28 3.25-1.54 7.89-1.74 9.83-3.41 17.25"/></g><g id="kvg:0668e-g4" kvg:element="央" kvg:position="bottom"><path id="kvg:0668e-s8" kvg:type="㇑a" d="M46.02 47.12c.96 1 1.09 1.78 1.23 3.01.98 8.59 1.65 17.46 1.89 18.86"/><path id="kvg:0668e-s9" kvg:type="㇕b" d="M47.84 48.94c3.33-.38 30-3.33 34.52-3.72C85 45 87 47 86.79 49.19c-.17 1.74-3.44 15.4-3.83 17.48"/><g id="kvg:0668e-g5" kvg:element="大"><path id="kvg:0668e-s10" kvg:type="㇐" d="M37.55 69.25c.94.44 3.36.73 4.39.62 14.2-1.49 27.72-1.85 50.56-3.54 1.3-.09 3-.08 4.57.94"/><path id="kvg:0668e-s11" kvg:type="㇒" d="M65.31 34.5c.67.52 1.13 1.88 1.13 3.77.0 39.5-9.61 48.97-30.08 59.98"/><path id="kvg:0668e-s12" kvg:type="㇏" d="M63.9 69.17c6.97 7.78 21.29 19.27 28.24 24.48 2.37 1.77 3.19 2.04 4.27 2.2"/></g></g></g></g></g></svg>