<svg xmlns="http://www.w3.org/2000/svg" width="109" height="109" viewBox="0 0 109 109"><g id="kvg:StrokePaths_06697"><g id="kvg:06697" kvg:element="暗"><g id="kvg:06697-g1" kvg:element="日" kvg:position="left" kvg:radical="general"><path id="kvg:06697-s1" kvg:type="㇑" d="M13.75 31.36c.85.85 1.39 2.13 1.39 3.58.0 1.21-.07 30.39-.04 40.88.01 2.02.02 3.32.04 3.56"/><path id="kvg:06697-s2" kvg:type="㇕a" d="M16.27 32.76c4.13-.44 13.71-1.5 14.98-1.7 2.89-.44 4.5 1 4.25 3.75-.16 1.81-.82 29.69-1.04 39.5-.04 1.99-.07 3.25-.07 3.44"/><path id="kvg:06697-s3" kvg:type="㇐a" d="M16.24 53.77c3.51-.33 13.63-1.71 17.6-2.06"/><path id="kvg:06697-s4" kvg:type="㇐a" d="M16.17 76.13c4.7-.44 10.7-1.19 17.01-1.84"/></g><g id="kvg:06697-g2" kvg:element="音" kvg:position="right" kvg:phon="音"><g id="kvg:06697-g3" kvg:element="立"><g id="kvg:06697-g4" kvg:element="亠" kvg:position="top"><path id="kvg:06697-s5" kvg:type="㇑a" d="M65.06 11.56c1.04 1.03 1.66 2.26 1.66 3.68.0 4.48.02 5.86.16 9.66"/><path id="kvg:06697-s6" kvg:type="㇐" d="M46.27 27.81c1.66.26 3.88.11 5.64-.05 7.8-.7 20.96-2.82 31.88-3.82 2.18-.2 4.02-.13 5.73.36"/></g><g id="kvg:06697-g5" kvg:position="bottom"><path id="kvg:06697-s7" kvg:type="㇔" d="M53.75 34.07c3.81 4.94 4.6 9.68 5.14 13.15"/><path id="kvg:06697-s8" kvg:type="㇒" d="M78.59 28.57c.16 1 .29 2.25.04 3.27-1.32 5.36-3.6 11.36-4.75 13.86"/><path id="kvg:06697-s9" kvg:type="㇐" d="M40.8 51.3c1.7.26 4.77.55 6.56.36 12.76-1.35 30.26-3.1 42.25-3.78 3.06-.17 6.49.0 8.34.59"/></g></g><g id="kvg:06697-g6" kvg:element="日"><path id="kvg:06697-s10" kvg:type="㇑" d="M51.59 61.52c.49.81.99 1.81.99 2.92.0.91-.08 22.69-.1 31.12-.01 1.85-.01 3.05-.01 3.26"/><path id="kvg:06697-s11" kvg:type="㇕a" d="M53.27 63.01c6.92-.82 21.98-2.82 25.64-3.32 2.5-.34 3.82 1.13 3.82 3.81.0 2.39-.7 22.36-.7 29.57.0 1.12-.01 2.37-.01 3.61"/><path id="kvg:06697-s12" kvg:type="㇐a" d="M53.62 77.95c6.5-.63 21.63-2.25 28-2.59"/><path id="kvg:06697-s13" kvg:type="㇐a" d="M53.64 95.61c6.98-.67 19.78-1.94 26.91-2.32"/></g></g></g></g></svg>