<!DOCTYPE svg PUBLIC "-//W3C//DTD SVG 1.0//EN" "http://www.w3.org/TR/2001/REC-SVG-20010904/DTD/svg10.dtd" [
<!ATTLIST g
xmlns:kvg CDATA #FIXED "http://kanjivg.tagaini.net"
kvg:element CDATA #IMPLIED
kvg:variant CDATA #IMPLIED
kvg:partial CDATA #IMPLIED
kvg:original CDATA #IMPLIED
kvg:part CDATA #IMPLIED
kvg:number CDATA #IMPLIED
kvg:tradForm CDATA #IMPLIED
kvg:radicalForm CDATA #IMPLIED
kvg:position CDATA #IMPLIED
kvg:radical CDATA #IMPLIED
kvg:phon CDATA #IMPLIED >
<!ATTLIST path
xmlns:kvg CDATA #FIXED "http://kanjivg.tagaini.net"
kvg:type CDATA #IMPLIED >
]><svg xmlns="http://www.w3.org/2000/svg" width="109" height="109" viewBox="0 0 109 109"><g id="kvg:StrokePaths_066a6" style="fill:none;stroke:#000000;stroke-width:3;stroke-linecap:round;stroke-linejoin:round;"><g id="kvg:066a6" kvg:element="暦"><g id="kvg:066a6-g1" kvg:element="厂" kvg:position="tare" kvg:radical="nelson" kvg:phon="厤V1"><path id="kvg:066a6-s1" kvg:type="㇐" d="M22.38 17.73c3.12.65 6.88.24 9.88.04 13.71-.87 29.86-2.26 45.99-3.38 3.44-.24 6.72-.55 10.13.18"/><path id="kvg:066a6-s2" kvg:type="㇒" d="M24.75 18.5c.94.94.97 2.23.92 4.6C25.25 41 22.45 72.99 11.81 87.97"/></g><g id="kvg:066a6-g2" kvg:position="tarec"><g id="kvg:066a6-g3" kvg:element="林" kvg:position="top" kvg:phon="厤V2"><g id="kvg:066a6-g4" kvg:element="木" kvg:variant="true" kvg:position="left"><path id="kvg:066a6-s3" kvg:type="㇐" d="M28.58 35.31c2.04.72 4.47.16 6.55-.07 5.18-.57 12.05-1.29 16.72-1.62 1.49-.1 2.61-.12 3.54.07"/><path id="kvg:066a6-s4" kvg:type="㇑" d="M43.88 23.26c1 1 1.24 2.37 1.24 3.64.0.63-.1 25.73-.1 30.1.0 1.92.01 3.74-.02 4.5"/><path id="kvg:066a6-s5" kvg:type="㇒" d="M43.9 35.52c0 1.48-.92 3.26-1.94 5.1-3.4 6.15-7.71 11.26-13.03 15.95"/><path id="kvg:066a6-s6" kvg:type="㇔/㇏" d="M47.47 41.09c2.69 1.35 5.57 4.05 7.1 6.41"/></g><g id="kvg:066a6-g5" kvg:element="木" kvg:position="right"><path id="kvg:066a6-s7" kvg:type="㇐" d="M60.93 32.97c1.34.46 3.1.29 4.44.03 5.26-1 9.24-1.19 15.63-2.07 2.1-.29 4.01-.61 6.12-.17"/><path id="kvg:066a6-s8" kvg:type="㇑" d="M70.8 20.86c.98.98 1.24 2.14 1.24 3.89.0 4.72-.05 21.66.01 30.75.01 1.54.02 2.83.02 3.76"/><path id="kvg:066a6-s9" kvg:type="㇒" d="M71.26 33.19c0 1.31-.55 3.55-2.1 6.29-3.55 6.28-7.41 10.78-12.61 15.63"/><path id="kvg:066a6-s10" kvg:type="㇏" d="M72.61 34.48c5.76 6.9 11.09 12.84 16.07 17.09 1.71 1.46 3.57 2.93 5.89 4.05"/></g></g><g id="kvg:066a6-g6" kvg:element="日" kvg:position="bottom" kvg:radical="tradit"><path id="kvg:066a6-s11" kvg:type="㇑" d="M35.74 68.35c.76.85 1.21 2.57 1.43 3.64 1.2 5.76 2.2 12.79 3.24 20.18.29 2.09.57 4.13.82 6.04"/><path id="kvg:066a6-s12" kvg:type="㇕a" d="M37.61 69.67c15.51-1.8 27.88-2.78 38.3-3.88 4.67-.49 5.76 1.15 5.21 5.33-.65 4.9-1.68 12.67-2.79 19.39-.35 2.14-.72 4.18-1.08 5.98"/><path id="kvg:066a6-s13" kvg:type="㇐a" d="M39.96 82.36c4.55-.51 27.91-2.73 38.99-3.22"/><path id="kvg:066a6-s14" kvg:type="㇐a" d="M42.2 95.79c10.67-1.04 20.42-1.38 34.3-2.29"/></g></g></g></g><g id="kvg:StrokeNumbers_066a6" style="font-size:8;fill:#808080"><text transform="matrix(1 0 0 1 22.25 15.25)">1</text><text transform="matrix(1 0 0 1 18.50 27.25)">2</text><text transform="matrix(1 0 0 1 29.25 32.25)">3</text><text transform="matrix(1 0 0 1 36.25 26.25)">4</text><text transform="matrix(1 0 0 1 33.25 44.25)">5</text><text transform="matrix(1 0 0 1 52.25 42.25)">6</text><text transform="matrix(1 0 0 1 58.25 29.88)">7</text><text transform="matrix(1 0 0 1 63.25 23.88)">8</text><text transform="matrix(1 0 0 1 61.25 42.25)">9</text><text transform="matrix(1 0 0 1 79.25 40.25)">10</text><text transform="matrix(1 0 0 1 27.50 77.88)">11</text><text transform="matrix(1 0 0 1 38.00 67.38)">12</text><text transform="matrix(1 0 0 1 43.25 79.30)">13</text><text transform="matrix(1 0 0 1 43.25 93.25)">14</text></g></svg>