<svg xmlns="http://www.w3.org/2000/svg" width="109" height="109" viewBox="0 0 109 109"><g id="kvg:StrokePaths_066c7"><g id="kvg:066c7" kvg:element="曇"><g id="kvg:066c7-g1" kvg:element="日" kvg:position="top" kvg:radical="general"><path id="kvg:066c7-s1" kvg:type="㇑" d="M31.45 13.2c.67.67 1.11 1.53 1.31 2.25 1.61 5.79 1.99 8.08 3.17 13.26.27 1.19.63 2.35.8 3.49"/><path id="kvg:066c7-s2" kvg:type="㇕a" d="M32.88 14.14C46.5 12.62 62.94 11.21 71 10.52c2.67-.23 4.62.91 4.21 3.74-.37 2.55-1.47 6.75-2.52 10.79-.41 1.55-.8 3.08-1.15 4.48"/><path id="kvg:066c7-s3" kvg:type="㇐a" d="M35.88 21.95c8.24-1.08 30.12-2.83 37.07-3.02"/><path id="kvg:066c7-s4" kvg:type="㇐a" d="M37.53 30.33c8.1-.71 23.43-2.15 33.47-2.83"/></g><g id="kvg:066c7-g2" kvg:element="雲" kvg:position="bottom"><g id="kvg:066c7-g3" kvg:element="雨" kvg:variant="true" kvg:position="top"><path id="kvg:066c7-s5" kvg:type="㇐" d="M34.21 39.56c2.2.23 4.24.08 6.42-.18 5.47-.67 16.34-1.84 25.25-2.39 2.12-.13 4.26-.3 6.37-.03"/><path id="kvg:066c7-s6" kvg:type="㇔/㇑" d="M21.1 48.77c-.2 5.28-1.95 10.09-3.22 15.35"/><path id="kvg:066c7-s7" kvg:type="㇖b/㇆" d="M22.25 51.4c17.62-2.03 49-5.13 63.5-5.51 11.49-.3 1.54 6.18.25 7.5"/><path id="kvg:066c7-s8" kvg:type="㇑" d="M51.48 40.25c1.07 1.07 1.57 2.5 1.57 3.78.0 1.38.03 9.99.04 15.59.01 2.74.02 4.76.02 4.87"/><path id="kvg:066c7-s9" kvg:type="㇔" d="M34.38 55.5c2.54.56 6 2.24 7.38 3.18"/><path id="kvg:066c7-s10" kvg:type="㇔" d="M29.97 62.22c2.5.58 6.37 2.69 7.74 3.65"/><path id="kvg:066c7-s11" kvg:type="㇔" d="M67.68 53.11c3.02.92 6.44 2.77 7.65 3.54"/><path id="kvg:066c7-s12" kvg:type="㇔" d="M65.75 60c2.57.75 6.08 3.01 7.49 4.26"/></g><g id="kvg:066c7-g4" kvg:element="云" kvg:position="bottom"><g id="kvg:066c7-g5" kvg:element="二"><path id="kvg:066c7-s13" kvg:type="㇐" d="M38 71.05c1.45.45 3.27.23 4.77.14 5.35-.33 13.07-1.34 21.23-1.92 1.38-.1 2.64-.16 4 .09"/><path id="kvg:066c7-s14" kvg:type="㇐" d="M19 82.5c3.04.63 6.22.27 9.27-.01 13.03-1.17 33.23-3.83 52.36-4.63 3.39-.14 6.87-.11 9.87.64"/></g><g id="kvg:066c7-g6" kvg:element="厶"><path id="kvg:066c7-s15" kvg:type="㇜" d="M47.68 83.59c.07.93-.34 1.83-1.11 2.72-2.57 2.94-5.82 5.94-10.04 9.73-1.74 1.56-1.5 2.75 1.26 2.15 7.71-1.68 19.84-3.81 32.96-6.11"/><path id="kvg:066c7-s16" kvg:type="㇔" d="M65.46 85.44c4.36 2.44 11.26 10.02 12.35 13.81"/></g></g></g></g></g></svg>