<svg xmlns="http://www.w3.org/2000/svg" width="109" height="109" viewBox="0 0 109 109"><g id="kvg:StrokePaths_066e9" style="fill:none;stroke:#000000;stroke-width:3;stroke-linecap:round;stroke-linejoin:round;"><g id="kvg:066e9" kvg:element="曩"><g id="kvg:066e9-g1" kvg:element="日" kvg:position="top" kvg:radical="general"><path id="kvg:066e9-s1" kvg:type="㇑" d="M33.49 11.31c.39.31.4.53.61.93 1.76 3.27 2.52 10.03 3.62 16.13"/><path id="kvg:066e9-s2" kvg:type="㇕a" d="M34.64 12.35c9.42-.68 31.86-3.18 38.89-3.75 2.58-.21 3.11 1.2 2.98 1.95-.49 2.73-2.09 10.5-3.27 15.07"/><path id="kvg:066e9-s3" kvg:type="㇐a" d="M36.4 19.19c3.07-.27 35.52-3.06 38.05-3.17"/><path id="kvg:066e9-s4" kvg:type="㇐a" d="M37.91 26.46c8.72-.75 26.37-2.34 35.74-2.81"/></g><g id="kvg:066e9-g2" kvg:element="襄" kvg:position="bottom"><g id="kvg:066e9-g3" kvg:element="衣" kvg:part="1"><g id="kvg:066e9-g4" kvg:element="亠" kvg:position="top"><path id="kvg:066e9-s5" kvg:type="㇑a" d="M52.39 27.75c.77.32 2.03 1.46 2.03 2.21.0 1.24-.1 3.48-.1 4.84"/><path id="kvg:066e9-s6" kvg:type="㇐" d="M21 36.76c1.26.09 4.14.58 5.37.49 13.67-1.03 44.23-3.59 57.69-3.85 2.08-.04 3.14.04 4.69.63"/></g></g><g id="kvg:066e9-g5" kvg:element="口" kvg:position="left"><path id="kvg:066e9-s7" kvg:type="㇑" d="M28.25 42.78c.3.17.65.31.75.54 1 2.29 1.81 6.08 2.53 9.19"/><path id="kvg:066e9-s8" kvg:type="㇕b" d="M30.14 43.95c6.2-.9 13.75-1.98 17.3-2.21 1.3-.08 2.08.49 1.89.98-.77 2.02-1.67 3.71-2.81 6.5"/><path id="kvg:066e9-s9" kvg:type="㇐b" d="M31.67 50.98c4.17-.26 10.42-1.12 16.15-1.51"/></g><g id="kvg:066e9-g6" kvg:element="口" kvg:position="right"><path id="kvg:066e9-s10" kvg:type="㇑" d="M58.75 40.66c.3.16.61.3.75.5 1.05 1.6 1.81 6.01 2.53 8.88"/><path id="kvg:066e9-s11" kvg:type="㇕b" d="M60.64 41.74c6.2-.83 15.75-1.76 19.3-1.97 1.3-.08 2.08.46 1.89.91-.77 1.87-2.17 3.71-3.31 6.29"/><path id="kvg:066e9-s12" kvg:type="㇐b" d="M62.17 48.63c4.17-.24 12.92-1.07 18.65-1.43"/></g><g id="kvg:066e9-g7" kvg:element="三" kvg:part="1"><g id="kvg:066e9-g8" kvg:element="一" kvg:position="top"><path id="kvg:066e9-s13" kvg:type="㇐" d="M28.41 59.56c.95.24 3.69.29 4.65.24 8.67-.46 37.53-2.71 46.85-3.25 1.57-.09 2.53.12 3.32.24"/></g></g><path id="kvg:066e9-s14" kvg:type="㇑" d="M42.81 54.62c1.46.38 2.13 2.09 2.13 2.89.0 2.59 1.05 9.45 1.05 15.65"/><path id="kvg:066e9-s15" kvg:type="㇑" d="M67.31 52.55c1.18.76 1.09 1.67.96 2.86-.52 4.67-1.27 9.81-1.97 15.78"/><g id="kvg:066e9-g9" kvg:element="三" kvg:part="2" kvg:position="bottom"><g id="kvg:066e9-g10" kvg:element="一"><path id="kvg:066e9-s16" kvg:type="㇐" d="M30.16 66.43c1.02.28 3.98.34 5 .28 9.33-.54 31.72-2.71 41.74-3.33 1.69-.11 2.72.13 3.58.27"/></g><g id="kvg:066e9-g11" kvg:element="一"><path id="kvg:066e9-s17" kvg:type="㇐" d="M16.75 75.25c1.67.38 4.74.53 6.41.38 15.3-1.4 48.65-4.69 63.99-4.88 2.78-.04 4.46.18 5.85.37"/></g></g><g id="kvg:066e9-g12" kvg:element="衣" kvg:part="2" kvg:position="bottom"><path id="kvg:066e9-s18" kvg:type="㇒" d="M48.47 73.12c.09.44.35 1.17-.18 1.77-3.43 3.85-14.58 10.87-31.74 16.95"/><path id="kvg:066e9-s19" kvg:type="㇙" d="M40.25 84.32c.48.24 1 1.32 1 1.74-.03 5.35-.32 9.99-.32 10.89.0.91 1.18 1.42 2.68.74s12.64-7.35 15.85-8.89"/><path id="kvg:066e9-s20" kvg:type="㇒" d="M79.43 74.66c.03.2.28.97.12 1.24-1 1.67-4.14 4.05-9.24 7.36"/><path id="kvg:066e9-s21" kvg:type="㇏" d="M56.75 78.6c1.48.55 3.85 2.12 4.26 2.35 6.05 3.49 20.76 12.41 24.85 14.46 1.54.78 2.86 1.11 4.4 1.33"/></g></g></g></g></svg>