<svg xmlns="http://www.w3.org/2000/svg" width="109" height="109" viewBox="0 0 109 109"><g id="kvg:StrokePaths_066f5"><g id="kvg:066f5" kvg:element="曵"><g id="kvg:066f5-g1" kvg:element="曳"><g id="kvg:066f5-g2" kvg:element="日" kvg:original="曰" kvg:radical="general"><path id="kvg:066f5-s1" kvg:type="㇑" d="M21.5 32.8c.39.48.9 1.31 1.11 1.91 1.74 4.96 3.9 18.49 4.98 27.75"/><path id="kvg:066f5-s2" kvg:type="㇕" d="M23.81 33.96c13.51-1.25 43.69-4.46 53.81-4.92 2.36-.11 3.63 1.45 3.38 3.84-.53 5.02-2.03 16.61-5.12 24.98"/><path id="kvg:066f5-s3" kvg:type="㇐" d="M26.33 46.29c3.53-.39 28.72-2.28 40.19-3.31 2.81-.25 4.83.08 5.55.04"/><path id="kvg:066f5-s4" kvg:type="㇐" d="M27.79 59.11c9.73-.53 35.16-2.76 48.59-3.62"/></g><path id="kvg:066f5-s5" kvg:type="㇂" d="M42.92 12c1.95 1.81 2.28 2.32 2.69 6.22 3.42 32.66 15.87 64.54 39.79 76.72 7.68 3.91 6.59.78 5.62-7.26"/><g id="kvg:066f5-g3" kvg:element="丿"><path id="kvg:066f5-s6" kvg:type="㇒" d="M74.9 64.62c.15.75.58 2.15-.29 3.02C67 75.25 50.75 87.75 23.31 97.25"/></g></g><g id="kvg:066f5-g4" kvg:element="丶"><path id="kvg:066f5-s7" kvg:type="㇔" d="M59.88 10.25c4.54 1.82 11.73 7.5 12.87 10.34"/></g></g></g></svg>