<svg xmlns="http://www.w3.org/2000/svg" width="109" height="109" viewBox="0 0 109 109"><g id="kvg:StrokePaths_066fe" style="fill:none;stroke:#000000;stroke-width:3;stroke-linecap:round;stroke-linejoin:round;"><g id="kvg:066fe" kvg:element="曾"><g id="kvg:066fe-g1" kvg:position="top"><g id="kvg:066fe-g2" kvg:element="八" kvg:radical="nelson"><g id="kvg:066fe-g3" kvg:position="left"><path id="kvg:066fe-s1" kvg:type="㇒" d="M41.48 12.24c0 1.01-.42 2.33-1.05 3.09C36.25 20.38 28 28.38 17.75 34.25"/></g><g id="kvg:066fe-g4" kvg:position="right"><path id="kvg:066fe-s2" kvg:type="㇏" d="M58.5 9c5 .25 18.38 10.83 25.96 15.44 3.37 2.05 6.2 4.28 10.29 4.77"/></g></g><path id="kvg:066fe-s3" kvg:type="㇑" d="M25.4 33.92c.71.71 1.26 1.64 1.35 2.17.87 4.9 2.05 10.77 3.29 17.16.35 1.8.7 3.64 1.05 5.51"/><path id="kvg:066fe-s4" kvg:type="㇕" d="M27.23 35.24c14.48-1.65 37.32-3.91 50.14-4.65 3.65-.21 5.68 1.1 4.92 4.82-.63 3.13-1.68 7.56-2.96 12.58-.49 1.91-1.01 3.9-1.55 5.94"/><path id="kvg:066fe-s5" kvg:type="㇑" d="M52.95 33.44c.87.87 1 2.05 1 3.19.0 4.35-.01 9.8-.01 16.23"/><path id="kvg:066fe-s6" kvg:type="㇔" d="M36.33 40.32c2.75 1.57 6.87 6.45 7.55 8.89"/><path id="kvg:066fe-s7" kvg:type="㇒" d="M70.58 36.86c0 .89-.25 1.73-.72 2.34-1.65 2.77-4.61 6.81-8.67 9.91"/><path id="kvg:066fe-s8" kvg:type="㇐" d="M31.81 55.9c14.06-1.65 31.71-3.35 45.34-3.95"/></g><g id="kvg:066fe-g5" kvg:element="日" kvg:original="曰" kvg:position="bottom" kvg:radical="tradit"><path id="kvg:066fe-s9" kvg:type="㇑" d="M34.5 65.52c.8.8 1.14 2.06 1.24 3 .8 6.96 1.76 15.85 2.62 24.48.22 2.19.43 4.37.63 6.5"/><path id="kvg:066fe-s10" kvg:type="㇕a" d="M36.19 67.14c3.93-.26 26.22-2.28 32.95-2.79 3.78-.29 5.09.78 4.75 4.52-.4 4.29-1.24 13.86-2.12 22.5-.26 2.52-.51 4.96-.77 7.17"/><path id="kvg:066fe-s11" kvg:type="㇐a" d="M37.9 81.02c7.85-.52 26.73-1.89 34.67-2.17"/><path id="kvg:066fe-s12" kvg:type="㇐a" d="M39.45 96.96c11.93-.83 21.44-1.6 31.04-1.69"/></g></g></g></svg>