<svg xmlns="http://www.w3.org/2000/svg" width="109" height="109" viewBox="0 0 109 109"><g id="kvg:StrokePaths_066fd" style="fill:none;stroke:#000000;stroke-width:3;stroke-linecap:round;stroke-linejoin:round;"><g id="kvg:066fd" kvg:element="曽"><g id="kvg:066fd-g1" kvg:position="top"><g id="kvg:066fd-g2" kvg:element="八" kvg:variant="true" kvg:radical="nelson"><path id="kvg:066fd-s1" kvg:type="㇔" d="M32.52 12.92c3.63 2.53 9.37 10.42 10.28 14.36"/><path id="kvg:066fd-s2" kvg:type="㇒" d="M69.53 10.31c0 1.19-.3 2.19-.85 3.08-2.68 4.36-3.99 6.71-8.43 12.48"/></g><g id="kvg:066fd-g3" kvg:element="田"><path id="kvg:066fd-s3" kvg:type="㇑" d="M22.76 30.27c.8.8 1.02 1.74 1.19 2.83.85 5.63 1.87 12.39 2.75 18.9.33 2.48.65 4.93.93 7.26"/><path id="kvg:066fd-s4" kvg:type="㇕a" d="M24.76 31.96c16.45-1.62 39.93-3.5 53.75-4.35 4.57-.28 6.22.91 5.42 5.4-.73 4.06-2.22 10.09-3.78 16.37-.58 2.34-1.17 4.72-1.74 7.04"/><path id="kvg:066fd-s5" kvg:type="㇑a" d="M52.71 30.43c.68.68.75 1.54.75 2.69-.01 5.8-.03 13.53-.03 21.79"/><path id="kvg:066fd-s6" kvg:type="㇐a" d="M26.94 45.45c16.69-1.32 37.94-2.82 53.89-3.33"/><path id="kvg:066fd-s7" kvg:type="㇐a" d="M28.41 57.66c13.84-1.16 32.71-2.41 49.38-3.05"/></g></g><g id="kvg:066fd-g4" kvg:element="日" kvg:position="bottom" kvg:radical="tradit"><path id="kvg:066fd-s8" kvg:type="㇑" d="M30.75 67.02c.93.93 1.13 2.23 1.24 3.75.54 7.41.94 13.95 1.31 20.23.15 2.61.3 5.18.44 7.75"/><path id="kvg:066fd-s9" kvg:type="㇕a" d="M32.48 68.89c7.71-.74 25.79-2.43 40.02-3.1 3.15-.15 5.26 1.47 4.86 4.59-.52 4.04-1.8 12.15-3.09 20.24-.43 2.69-.86 5.38-1.26 7.91"/><path id="kvg:066fd-s10" kvg:type="㇐a" d="M34.22 82.02C48 81.25 62.38 80.5 74.78 80.09"/><path id="kvg:066fd-s11" kvg:type="㇐a" d="M34.98 96.21c11.27-.46 26.67-.94 37.56-.94"/></g></g></g></svg>