<svg xmlns="http://www.w3.org/2000/svg" width="109" height="109" viewBox="0 0 109 109"><g id="kvg:StrokePaths_0670d"><g id="kvg:0670d" kvg:element="服"><g id="kvg:0670d-g1" kvg:element="月" kvg:variant="true" kvg:original="肉" kvg:position="left" kvg:radical="general"><path id="kvg:0670d-s1" kvg:type="㇓" d="M19.92 19.5c.98.98 1.41 2.23 1.42 3.25.4 41.62-1.72 55.38-9.1 68.75"/><path id="kvg:0670d-s2" kvg:type="㇆a" d="M22.52 21.25c2.34-.25 11.84-2.53 13.59-2.75 2.01-.25 3.91 1.12 3.91 4 0 1.49-.09 40.25-.09 60.5.0 12.38-5.68 6.25-8.64 3"/><path id="kvg:0670d-s3" kvg:type="㇐a" d="M22.52 39.75C27.75 39 34.5 38 39.15 37.5"/><path id="kvg:0670d-s4" kvg:type="㇐a" d="M22 57.25C27 56.5 33.38 55.5 38.51 55"/></g><g id="kvg:0670d-g2" kvg:position="right" kvg:phon="𠬝"><g id="kvg:0670d-g3" kvg:element="卩"><path id="kvg:0670d-s5" kvg:type="㇆" d="M49.25 17c.83.47 2.46 1.38 4.51 1.13C62.75 17 76.02 15.2 78 15c2.5-.25 7.41-.15 5.5 4.75-1.75 4.5-3.14 8.91-5 12.75-4 8.25-7.75 3.75-9.75 1.25"/><path id="kvg:0670d-s6" kvg:type="㇑" d="M51.87 18.25c.63.63.96 2.23.96 3.25.0 2.93-.15 45.78-.2 65.25-.01 3.79-.02 6.7-.02 8.25"/></g><g id="kvg:0670d-g4" kvg:element="又"><path id="kvg:0670d-s7" kvg:type="㇇" d="M56.34 50.35c2.03.53 3.78.51 5.61.05 1.83-.45 16.71-4.66 17.97-5.1 2.87-.99 4.49 1.17 3.96 3.33C80 64.75 70.25 80.5 60.5 90"/><path id="kvg:0670d-s8" kvg:type="㇏" d="M59.4 58.98c2.91.74 15.91 17.85 26.71 27.92 2.41 2.25 4.39 4.23 7.64 6.04"/></g></g></g></g></svg>