<svg xmlns="http://www.w3.org/2000/svg" width="109" height="109" viewBox="0 0 109 109"><g id="kvg:StrokePaths_0671f"><g id="kvg:0671f" kvg:element="期"><g id="kvg:0671f-g1" kvg:element="其" kvg:position="left" kvg:phon="其"><g id="kvg:0671f-g2" kvg:element="甘"><g id="kvg:0671f-g3" kvg:element="廿" kvg:part="1"><g id="kvg:0671f-g4" kvg:element="十"><path id="kvg:0671f-s1" kvg:type="㇐" d="M15.96 32.56c2.54.31 4.38.09 6.29-.22 8.88-1.46 19.12-3.12 28.54-4.2 2.05-.23 4.09-.39 6.09-.08"/><path id="kvg:0671f-s2" kvg:type="㇑a" d="M26.5 18c1 1 1.46 2.38 1.46 3.77.0 2.06.1 40.22.1 48.49"/></g><path id="kvg:0671f-s3" kvg:type="㇑a" d="M44.75 12.5c1.25 1.25 1.63 2.75 1.63 4.31.0.95-.15 42.69-.15 50.82"/></g><path id="kvg:0671f-s4" kvg:type="㇐a" d="M29.15 44.16c2.69-.24 13.31-1.86 15.84-2.09"/><g id="kvg:0671f-g5" kvg:element="廿" kvg:part="2"><path id="kvg:0671f-s5" kvg:type="㇐a" d="M29.07 56.35c4.05-.73 10.8-1.6 15.75-2.09"/></g></g><path id="kvg:0671f-s6" kvg:type="㇐" d="M12.25 72.34c2.38.66 5.31.48 7.75.08 9.37-1.54 22.5-3.29 32.88-4.51 2.35-.27 4.99-.54 7.62.01"/><g id="kvg:0671f-g6" kvg:element="八"><path id="kvg:0671f-s7" kvg:type="㇒" d="M29.02 78.48c.14 1.17-.11 2.2-.75 3.07-2.36 3.59-6.74 8.63-12.56 13.17"/><path id="kvg:0671f-s8" kvg:type="㇔/㇏" d="M43.54 77.29c3.51 2.15 9.07 8.85 9.95 12.19"/></g></g><g id="kvg:0671f-g7" kvg:element="月" kvg:position="right" kvg:radical="general"><path id="kvg:0671f-s9" kvg:type="㇓" d="M67.12 22.02c.99.99 1.66 2.37 1.68 3.32C69.5 67 66.75 79 56.75 91.5"/><path id="kvg:0671f-s10" kvg:type="㇆a" d="M69.72 23.46c1.85-.23 17.58-2.8 18.98-2.97 3.05-.37 4.34 1.13 4.34 3.97.0 1.39-.21 46.56-.21 65.6.0 7.93-5.2 2.68-8 .12"/><path id="kvg:0671f-s11" kvg:type="㇐a" d="M69.97 42.31c6.78-.94 14.53-2.06 21.73-2.73"/><path id="kvg:0671f-s12" kvg:type="㇐a" d="M69.18 60.64c5.32-.51 16.19-1.51 22.46-1.79"/></g></g></g></svg>