<svg xmlns="http://www.w3.org/2000/svg" width="109" height="109" viewBox="0 0 109 109"><g id="kvg:StrokePaths_06727" style="fill:none;stroke:#000000;stroke-width:3;stroke-linecap:round;stroke-linejoin:round;"><g id="kvg:06727" kvg:element="朧"><g id="kvg:06727-g1" kvg:element="月" kvg:variant="true" kvg:original="肉" kvg:position="left" kvg:radical="general"><path id="kvg:06727-s1" kvg:type="㇓" d="M17.4 21.24c.46.95.76 1.88.92 2.8.15.92.14 25.9-.35 33.63-.7 11-1.41 22.08-7.97 34.72"/><path id="kvg:06727-s2" kvg:type="㇆a" d="M19.24 22.31c1.84-.06 10.62-1.84 11.99-1.96 2.45-.23 3.06 1.31 3.06 2.67.0 3.23-.46 45.72-.46 64.05.0 12.61-5.16 3.55-6.73 2.04"/><path id="kvg:06727-s3" kvg:type="㇐a" d="M18.74 41.7c4.03-.35 11.39-2.04 14.93-2.07"/><path id="kvg:06727-s4" kvg:type="㇐a" d="M18.69 58.65c3.32-.08 10.17-1.28 14.67-1.7"/></g><g id="kvg:06727-g2" kvg:element="龍" kvg:position="right"><g id="kvg:06727-g3" kvg:position="left"><g id="kvg:06727-g4" kvg:element="立" kvg:position="top"><g id="kvg:06727-g5" kvg:element="亠" kvg:position="top"><path id="kvg:06727-s5" kvg:type="㇑a" d="M52.67 13.37c1.33.88 1.71 1.67 1.71 3.54.0 4.34.0 6.34.0 8.09"/><path id="kvg:06727-s6" kvg:type="㇐" d="M41.55 26.09c.48.35 2.12.55 2.6.55 2.7.0 18.07-2.46 22.16-2.29.8.03 1.28.27 1.68.46"/></g><g id="kvg:06727-g6" kvg:position="bottom"><path id="kvg:06727-s7" kvg:type="㇔" d="M47.52 29.57c2.14 3.75 3.12 7.51 3.31 9.91"/><path id="kvg:06727-s8" kvg:type="㇒" d="M63.27 28.38c.37.42.41 1.49.37 1.81-.29 2.18-3.38 8.47-4.12 10.09"/><path id="kvg:06727-s9" kvg:type="㇐" d="M40 42.99c.84.39 1.82.48 2.66.48C52.64 43.49 58.5 42 68.3 41.21c1.39-.11 2.24.28 2.94.49"/></g></g><g id="kvg:06727-g7" kvg:element="月" kvg:variant="true" kvg:original="肉" kvg:position="bottom"><path id="kvg:06727-s10" kvg:type="㇑" d="M45.48 51.2c.36.62.61 1.74.73 2.35.12.62.17 39.38.12 40.76"/><path id="kvg:06727-s11" kvg:type="㇕" d="M46.43 52.82c1.46-.15 15.31-2.26 16.39-2.43 1.94-.31 2.67 2.01 2.43 2.93-.23.89-.36 22.03-.36 34.54.0 11.09-3.13 5.73-5.79 2.37"/><path id="kvg:06727-s12" kvg:type="㇐" d="M46.93 63.21c5.09-.95 13.12-1.33 17.47-1.79"/><path id="kvg:06727-s13" kvg:type="㇐" d="M47.3 73.93c3.88-.46 12.37-1.35 16.86-1.66"/></g></g><g id="kvg:06727-g8" kvg:position="right"><path id="kvg:06727-s14" kvg:type="㇐" d="M76.46 22.87c3.99-.26 12.17-1.25 16.69-1.73 1.03-.11 1.67.07 2.19.15"/><path id="kvg:06727-s15" kvg:type="㇞" d="M74.9 13.99c.92 1.06 1.18 1.15 1.2 2.63.03 3.13-.13 10.88-.23 15.21-.02.93.14 1.81 1.86 1.64 4.77-.47 8.02-1.22 13.63-1.99 2.39-.33 2.37.81 2.01 2.42-.7 3.1-1.14 7.93-1.86 13.35"/><path id="kvg:06727-s16" kvg:type="㇐" d="M74.96 48.75c4.04-.25 13.75-1 18.14-1.47"/><path id="kvg:06727-s17" kvg:type="㇟" d="M73.3 47.37c.55 1.24.98 2.7 1.01 4.62.15 8.54-.39 25.7-.39 31.51.0 13.56 6.55 12.03 13.01 12.03 10.3.0 10.96-2.9 10.96-9.52"/><path id="kvg:06727-s18" kvg:type="㇐" d="M74.63 59.54c3.36-.53 10.29-1.54 15.84-1.97.89-.07 1.41.14 1.85.3"/><path id="kvg:06727-s19" kvg:type="㇐" d="M75.52 70c3.37-.53 11.53-1.5 15.83-1.97.89-.1 1.41.14 1.85.3"/><path id="kvg:06727-s20" kvg:type="㇐" d="M75.17 80c3.37-.53 12.16-1.25 16.89-1.97.89-.13 1.41.14 1.85.3"/></g></g></g></g></svg>