<svg xmlns="http://www.w3.org/2000/svg" width="109" height="109" viewBox="0 0 109 109"><g id="kvg:StrokePaths_06734" style="fill:none;stroke:#000000;stroke-width:3;stroke-linecap:round;stroke-linejoin:round;"><g id="kvg:06734" kvg:element="朴"><g id="kvg:06734-g1" kvg:element="木" kvg:position="left" kvg:radical="general"><path id="kvg:06734-s1" kvg:type="㇐" d="M14.28 37.47c1.28.89 4.97.37 6.36.13 6.66-1.16 19.23-3.51 25.91-4.72 1.77-.32 4.5-.47 6.21.24"/><path id="kvg:06734-s2" kvg:type="㇑" d="M35.61 14.25c1.01 1.01 1.54 2.62 1.54 4.67.0.77.06 47.95.06 70.33.0 4.79-.05 7.54-.08 8.62"/><path id="kvg:06734-s3" kvg:type="㇒" d="M36.44 36.28c0 1.72-.85 4.21-1.49 5.56-5.32 11.33-10.7 19.65-21.59 31.24"/><path id="kvg:06734-s4" kvg:type="㇔/㇏" d="M40.88 46.62c3.26 1.88 8.62 7.98 11.38 11.62"/></g><g id="kvg:06734-g2" kvg:element="卜" kvg:original="ト" kvg:position="right" kvg:phon="卜"><path id="kvg:06734-s5" kvg:type="㇑" d="M67.31 12.63c1.09 1.09 1.51 2.74 1.51 4.5.0.59.02 50.89.01 71.62.0 5.28.0 8.68-.01 8.88"/><path id="kvg:06734-s6" kvg:type="㇔" d="M72.75 41.25c7.5 4.25 17.5 12 22 20"/></g></g></g></svg>