<svg xmlns="http://www.w3.org/2000/svg" width="109" height="109" viewBox="0 0 109 109"><g id="kvg:StrokePaths_0674f"><g id="kvg:0674f" kvg:element="杏"><g id="kvg:0674f-g1" kvg:element="木" kvg:position="top" kvg:radical="general"><path id="kvg:0674f-s1" kvg:type="㇐" d="M21.25 30.86c3.88.76 7.14.59 10.64.08 12.24-1.77 33.88-3.9 47.87-5 3.18-.25 6.09-.18 9.24.45"/><path id="kvg:0674f-s2" kvg:type="㇑" d="M53 11.5c1.25 1.25 1.5 2.62 1.5 4.25.0 6.03.03 27.29.02 38.5.0 3.94-.01 6.64-.02 7"/><path id="kvg:0674f-s3" kvg:type="㇒" d="M51.75 29.5c0 1.25-1.13 3.57-2.67 5.51C40.74 45.47 29.75 55.75 13.75 63"/><path id="kvg:0674f-s4" kvg:type="㇏" d="M55.25 29.25c4.75 4.12 20.1 16.72 28.92 23.43 2.05 1.56 5.33 3.69 8.33 4.82"/></g><g id="kvg:0674f-g2" kvg:element="口" kvg:position="bottom"><path id="kvg:0674f-s5" kvg:type="㇑" d="M32.5 69.49c1.09 1.03 1.58 2.02 1.93 3.49 1.2 5.15 2.37 11.33 3.44 18.02.36 2.26.69 4.45.97 6.46"/><path id="kvg:0674f-s6" kvg:type="㇕b" d="M34.67 71.08c12.29-1.66 29.1-3.47 36.72-4.33 3.84-.43 5.73 1.26 4.93 5.26C75.16 77.83 74 84.12 72.1 91.96"/><path id="kvg:0674f-s7" kvg:type="㇐b" d="M39.8 95.4c8.39-.74 18.83-1.72 28.96-2.33 2.19-.13 4.37-.24 6.51-.33"/></g></g></g></svg>