<svg xmlns="http://www.w3.org/2000/svg" width="109" height="109" viewBox="0 0 109 109"><g id="kvg:StrokePaths_06746" style="fill:none;stroke:#000000;stroke-width:3;stroke-linecap:round;stroke-linejoin:round;"><g id="kvg:06746" kvg:element="杆"><g id="kvg:06746-g1" kvg:element="木" kvg:position="left" kvg:radical="general"><path id="kvg:06746-s1" kvg:type="㇐" d="M12.28 35.72c.35.24 2.39.41 3.31.31 3.94-.41 19.62-1.21 25.95-2.41.92-.17 2.15-.24 2.73.0"/><path id="kvg:06746-s2" kvg:type="㇑" d="M27.86 14c.91.47 2.54 3 2.54 4.92.0.95-.12 71.75-.3 77.58"/><path id="kvg:06746-s3" kvg:type="㇒" d="M29.94 38.78c-5.5 16.45-8.56 23.41-17.08 37.81"/><path id="kvg:06746-s4" kvg:type="㇔/㇏" d="M32.47 45.9c2.37 1.59 6.28 6.76 8.28 9.85"/></g><g id="kvg:06746-g2" kvg:element="干" kvg:position="right"><path id="kvg:06746-s5" kvg:type="㇐" d="M49.17 21.85c.77.25 3.41.27 4.19.23 5.32-.29 23.84-2.15 32.91-2.64 1.28-.07 3.96.21 4.6.34"/><g id="kvg:06746-g3" kvg:element="十"><path id="kvg:06746-s6" kvg:type="㇐" d="M45.88 50.78c1.29.46 3.67.59 4.96.46C63 50 77.99 48.75 92.1 48.33c2.16-.06 3.45.22 4.53.45"/><path id="kvg:06746-s7" kvg:type="㇑" d="M67.81 23.63c.54.51 1.79 2.12 1.79 4.83.0 5.29-.07 62.56-.18 68.92"/></g></g></g></g></svg>