<!DOCTYPE svg PUBLIC "-//W3C//DTD SVG 1.0//EN" "http://www.w3.org/TR/2001/REC-SVG-20010904/DTD/svg10.dtd" [
<!ATTLIST g
xmlns:kvg CDATA #FIXED "http://kanjivg.tagaini.net"
kvg:element CDATA #IMPLIED
kvg:variant CDATA #IMPLIED
kvg:partial CDATA #IMPLIED
kvg:original CDATA #IMPLIED
kvg:part CDATA #IMPLIED
kvg:number CDATA #IMPLIED
kvg:tradForm CDATA #IMPLIED
kvg:radicalForm CDATA #IMPLIED
kvg:position CDATA #IMPLIED
kvg:radical CDATA #IMPLIED
kvg:phon CDATA #IMPLIED >
<!ATTLIST path
xmlns:kvg CDATA #FIXED "http://kanjivg.tagaini.net"
kvg:type CDATA #IMPLIED >
]><svg xmlns="http://www.w3.org/2000/svg" width="109" height="109" viewBox="0 0 109 109"><g id="kvg:StrokePaths_06749" style="fill:none;stroke:#000000;stroke-width:3;stroke-linecap:round;stroke-linejoin:round;"><g id="kvg:06749" kvg:element="杉"><g id="kvg:06749-g1" kvg:element="木" kvg:position="left" kvg:radical="general"><path id="kvg:06749-s1" kvg:type="㇐" d="M14.78 37.72c2.47.66 5.37.35 6.85.14 6.65-.93 17.33-2.94 23.04-4.03 1.27-.24 2.96-.45 4.35-.21"/><path id="kvg:06749-s2" kvg:type="㇑" d="M33.11 13.25c1.26 1.26 1.54 3.5 1.54 5.42.0.63-.01 47.37-.02 67.7.0 5.36.0 8.88.0 9.25"/><path id="kvg:06749-s3" kvg:type="㇒" d="M33.69 37.78c0 1.97-1.32 5.56-1.98 6.94C26.76 55.07 23.5 62 13.61 74.59"/><path id="kvg:06749-s4" kvg:type="㇔/㇏" d="M37.22 45.15c3.9 2.98 8.4 7.48 11.53 12.6"/></g><g id="kvg:06749-g2" kvg:element="彡" kvg:position="right" kvg:phon="彡"><path id="kvg:06749-s5" kvg:type="㇒" d="M82.7 13.25c.08.67-.21 1.58-.66 2.46-2.96 5.79-10.92 16.16-27.02 24.45"/><path id="kvg:06749-s6" kvg:type="㇒" d="M86.98 37.61c.1.76-.1 1.85-.69 2.78-4.67 7.48-14.04 20.23-32.71 29.03"/><path id="kvg:06749-s7" kvg:type="㇒" d="M97.53 62c.12.89-.21 1.95-.98 3.08C89 76.25 74.75 89.25 55.07 99"/></g></g></g><g id="kvg:StrokeNumbers_06749" style="font-size:8;fill:#808080"><text transform="matrix(1 0 0 1 8.50 39.13)">1</text><text transform="matrix(1 0 0 1 23.50 13.63)">2</text><text transform="matrix(1 0 0 1 23.25 49.63)">3</text><text transform="matrix(1 0 0 1 41.50 46.63)">4</text><text transform="matrix(1 0 0 1 74.50 14.50)">5</text><text transform="matrix(1 0 0 1 78.75 37.55)">6</text><text transform="matrix(1 0 0 1 89.50 61.50)">7</text></g></svg>