<svg xmlns="http://www.w3.org/2000/svg" width="109" height="109" viewBox="0 0 109 109"><g id="kvg:StrokePaths_0675f"><g id="kvg:0675f" kvg:element="束"><g id="kvg:0675f-g1" kvg:element="木" kvg:part="1" kvg:radical="tradit"><path id="kvg:0675f-s1" kvg:type="㇐" d="M24.25 26.39c2.62.36 5.6.27 8.01-.02 10.76-1.28 30.24-3.62 41.86-4.68 3.13-.28 6-.32 8.13.06"/></g><g id="kvg:0675f-g2" kvg:element="口"><path id="kvg:0675f-s2" kvg:type="㇑" d="M27.25 41.57c.9.9 1.56 2.06 1.79 3.26.94 4.9 1.7 10.07 2.38 14.91.19 1.37.38 2.71.56 4.01"/><path id="kvg:0675f-s3" kvg:type="㇕b" d="M29.74 43.64C42.5 41.75 69.5 39 76.33 38.49c2.93-.22 4.77 2.45 4 4.64C78.25 49 77.75 51 76.11 55.49"/><path id="kvg:0675f-s4" kvg:type="㇐b" d="M32.92 60.93c10.7-1.02 28.73-3.19 40.46-4.23 1.92-.17 3.67-.31 5.19-.41"/></g><g id="kvg:0675f-g3" kvg:element="木" kvg:part="2" kvg:radical="tradit"><path id="kvg:0675f-s5" kvg:type="㇑" d="M52 11.25c1.12 1.12 1.5 2.62 1.5 4 0 .88.0 55.63.0 76.5.0 3.52.0 6.08.0 7.25"/><g id="kvg:0675f-g4" kvg:element="丿" kvg:radical="nelson"><path id="kvg:0675f-s6" kvg:type="㇒" d="M50.38 60c0 1-.1 1.92-.84 3.1C42.5 74.38 28.88 86.88 16.5 92.5"/></g><path id="kvg:0675f-s7" kvg:type="㇏" d="M56 60.5c4.35 3.21 20.69 16.75 28.89 23.01 2.73 2.08 5.36 3.74 8.49 4.62"/></g></g></g></svg>