<svg xmlns="http://www.w3.org/2000/svg" width="109" height="109" viewBox="0 0 109 109"><g id="kvg:StrokePaths_06760" style="fill:none;stroke:#000000;stroke-width:3;stroke-linecap:round;stroke-linejoin:round;"><g id="kvg:06760" kvg:element="杠"><g id="kvg:06760-g1" kvg:element="木" kvg:position="left" kvg:radical="general"><path id="kvg:06760-s1" kvg:type="㇐" d="M12.78 37.72c.36.24 2.47.41 3.42.31 4.08-.41 17.69-1.71 24.24-2.91.95-.17 2.22-.24 2.82.0"/><path id="kvg:06760-s2" kvg:type="㇑" d="M27.63 15.5c.9.47 2.37 2 2.49 4.42.05.95-.12 68.75-.3 74.58"/><path id="kvg:06760-s3" kvg:type="㇒" d="M29.67 39.28C24.25 56.25 20 64 10.35 76.59"/><path id="kvg:06760-s4" kvg:type="㇔/㇏" d="M32.16 47.4c3.12 1.43 8.34 5.85 10.89 9.35"/></g><g id="kvg:06760-g2" kvg:element="工" kvg:position="right"><path id="kvg:06760-s5" kvg:type="㇐" d="M46.25 29.33c1.02.59 4.34.6 5.38.6 6.72.0 28.5-2.53 36.57-3.14 1.57-.12 3 .12 4.31.61"/><path id="kvg:06760-s6" kvg:type="㇑a" d="M66.79 30.75c1.43 1.78 1.43 2.85 1.43 4.28.0 9.98-.04 35.86-.04 52.97"/><path id="kvg:06760-s7" kvg:type="㇐" d="M40.75 90.05c.92.32 4.2.65 5.75.51C63.25 89 77 87.25 92.25 86.77c2.5-.08 5.5.53 6.75 1.03"/></g></g></g></svg>