<svg xmlns="http://www.w3.org/2000/svg" width="109" height="109" viewBox="0 0 109 109"><g id="kvg:StrokePaths_06763" style="fill:none;stroke:#000000;stroke-width:3;stroke-linecap:round;stroke-linejoin:round;"><g id="kvg:06763" kvg:element="杣"><g id="kvg:06763-g1" kvg:element="木" kvg:position="left" kvg:radical="general"><path id="kvg:06763-s1" kvg:type="㇐" d="M12.78 39.72c.35.24 2.39.41 3.31.31 3.94-.41 18.12-2.21 24.45-3.41.92-.17 2.15-.24 2.73.0"/><path id="kvg:06763-s2" kvg:type="㇑" d="M27.36 17.5c.91.47 2.54 2.5 2.54 4.42.0.95-.12 67.25-.3 73.08"/><path id="kvg:06763-s3" kvg:type="㇒" d="M29.44 43.28c-5.34 14.93-8.31 21.24-16.58 34.31"/><path id="kvg:06763-s4" kvg:type="㇔/㇏" d="M33.22 47.9c2.73 1.55 7.22 6.59 9.53 9.6"/></g><g id="kvg:06763-g2" kvg:element="山" kvg:position="right"><path id="kvg:06763-s5" kvg:type="㇑a" d="M68.24 19.5c.76.47 2.51 2.5 2.51 4.49.0 10.76.25 55.26.25 63.18"/><path id="kvg:06763-s6" kvg:type="㇄a" d="M50.99 51.21c.76.47 1.63 2.98 1.51 3.94-.5 4.23-2 21.6-3.5 31.88-.31 2.15.63 3.41 2.5 2.97 9.5-2.24 33-4.14 42.5-4.4"/><path id="kvg:06763-s7" kvg:type="㇑" d="M92.74 48.63c.76.48 1.51 3.53 1.51 4.49.0 7.38-.25 21.12-.25 34.84"/></g></g></g></svg>