<svg xmlns="http://www.w3.org/2000/svg" width="109" height="109" viewBox="0 0 109 109"><g id="kvg:StrokePaths_06765" style="fill:none;stroke:#000000;stroke-width:3;stroke-linecap:round;stroke-linejoin:round;"><g id="kvg:06765" kvg:element="来"><path id="kvg:06765-s1" kvg:type="㇐" d="M25.54 28.33c1.61.39 4.58.53 6.19.39 16.32-1.46 27.01-3.46 43.69-3.67 2.69-.03 4.31.18 5.65.38"/><g id="kvg:06765-g1" kvg:element="米"><path id="kvg:06765-s2" kvg:type="㇔" d="M30.12 37.62c2.85 2.07 7.16 7.91 7.88 11.12"/><path id="kvg:06765-s3" kvg:type="㇒" d="M74.52 33c.08.98-.11 1.9-.58 2.77-1.33 3.04-4.7 7.77-9.06 10.86"/><g id="kvg:06765-g2" kvg:element="木" kvg:radical="tradit"><path id="kvg:06765-s4" kvg:type="㇐" d="M16.62 57c2.28.5 4.9.74 8.42.5 14.81-1 39.08-3.5 58.03-4.25 3.54-.14 6.33.25 8.55.5"/><path id="kvg:06765-s5" kvg:type="㇑" d="M51.67 10.75c1.33 1 2.18 2.75 2.18 4.5.0.9.06 58.96-.17 78-.03 2.77-.07 4.71-.1 5.5"/><g id="kvg:06765-g3" kvg:element="丿" kvg:radical="nelson"><path id="kvg:06765-s6" kvg:type="㇒" d="M49.75 56.5c0 1.5-.44 2.48-.82 3.11C42.37 70.49 29 83.75 15.75 90.5"/></g><path id="kvg:06765-s7" kvg:type="㇏" d="M55 56.25c4.38 3.88 19.75 19 29.73 26.28 2.82 2.06 6.52 4.5 10.02 5.22"/></g></g></g></g></svg>