<svg xmlns="http://www.w3.org/2000/svg" width="109" height="109" viewBox="0 0 109 109"><g id="kvg:StrokePaths_0676d"><g id="kvg:0676d" kvg:element="杭"><g id="kvg:0676d-g1" kvg:element="木" kvg:position="left" kvg:radical="general"><path id="kvg:0676d-s1" kvg:type="㇐" d="M14.28 40.47c3.03.49 5.28.45 8.24-.14 4.5-.72 11.39-1.87 15.88-2.68 1.51-.46 3.05-.39 4.61-.28"/><path id="kvg:0676d-s2" kvg:type="㇑" d="M30.46 16.58c.88.88 1.29 2.75 1.29 3.92.0.74.12 40.98.1 61.88.0 5.77-.01 10.06-.01 11.62"/><path id="kvg:0676d-s3" kvg:type="㇒" d="M30.69 40.53c0 1.72-.83 4.33-1.35 5.53-5.14 11.7-9.46 18.81-17.73 28.78"/><path id="kvg:0676d-s4" kvg:type="㇔/㇏" d="M34.47 50.9c2.3 1.28 5.47 5.66 7.41 8.14"/></g><g id="kvg:0676d-g2" kvg:element="亢" kvg:position="right"><g id="kvg:0676d-g3" kvg:element="亠" kvg:position="top"><path id="kvg:0676d-s5" kvg:type="㇑a" d="M67.18 14c1.1 1.1 1.65 2.75 1.65 4.41.0 4.45-.08 7.27-.08 11.21"/><path id="kvg:0676d-s6" kvg:type="㇐" d="M47.52 32.89c3.23.61 5.68.41 8.61-.03 9.69-1.45 19.38-2.73 31.13-3.71 2.71-.22 5.37-.53 7.93.02"/></g><g id="kvg:0676d-g4" kvg:element="几" kvg:position="bottom"><g id="kvg:0676d-g5" kvg:element="丿"><path id="kvg:0676d-s7" kvg:type="㇒" d="M57.69 44.75c.91.91 1.25 2.25 1.33 3.93C60 71.62 55.5 84.88 43.5 93"/></g><path id="kvg:0676d-s8" kvg:type="㇈b" d="M60.38 47c4.21-.93 8.29-2.06 12.6-3.22 4.32-1.17 5.58-.78 5.52 4.52C78.38 58.5 78.3 75.43 78.29 81c-.04 12.25 4.51 11.53 9.29 11.53 6.92.0 8.06-2.28 8.06-9.12"/></g></g></g></g></svg>