<svg xmlns="http://www.w3.org/2000/svg" width="109" height="109" viewBox="0 0 109 109"><g id="kvg:StrokePaths_06764" style="fill:none;stroke:#000000;stroke-width:3;stroke-linecap:round;stroke-linejoin:round;"><g id="kvg:06764" kvg:element="杤"><g id="kvg:06764-g1" kvg:element="木" kvg:position="left" kvg:radical="general"><path id="kvg:06764-s1" kvg:type="㇐" d="M13.5 38.46c.56.16 2.24.63 3.71.5 5.2-.47 18.69-2.75 24.26-3.06 1.48-.08 2.6.03 3.53.19"/><path id="kvg:06764-s2" kvg:type="㇑" d="M29.5 14.5c1.25.5 2 2.25 2.25 3.25s0 72.25-.25 78.5"/><path id="kvg:06764-s3" kvg:type="㇒" d="M31.75 38.5C28.37 50.37 18.29 70.28 11.25 77"/><path id="kvg:06764-s4" kvg:type="㇏" d="M34.25 45.75c3.31 2.1 6.86 6.32 8.75 10"/></g><g id="kvg:06764-g2" kvg:element="万" kvg:position="right"><g id="kvg:06764-g3" kvg:element="一"><path id="kvg:06764-s5" kvg:type="㇐" d="M47.06 24.53c1.1.5 3.13.58 4.23.5 11.49-.83 25.52-3.77 40.47-3.74 1.84.0 2.94.24 3.86.49"/></g><path id="kvg:06764-s6" kvg:type="㇆" d="M68.32 36.74c4.91 2.99 14.93 6.51 20.55 7.48 3.34.58 3.23 2.14 2.62 4.4-4.18 15.45-7.99 30.14-14.86 40.84-5.58 8.69-7.63.23-8.99-.51"/><path id="kvg:06764-s7" kvg:type="㇒" d="M69.18 26.24c.08 1.46.26 3.77-.16 5.85C66.25 45.75 56.75 74 41.1 88.03"/></g></g></g></svg>