<svg xmlns="http://www.w3.org/2000/svg" width="109" height="109" viewBox="0 0 109 109"><g id="kvg:StrokePaths_0677e" style="fill:none;stroke:#000000;stroke-width:3;stroke-linecap:round;stroke-linejoin:round;"><g id="kvg:0677e" kvg:element="松"><g id="kvg:0677e-g1" kvg:element="木" kvg:position="left" kvg:radical="general"><path id="kvg:0677e-s1" kvg:type="㇐" d="M12.28 43c1.97.25 4.92.12 6.5-.09 6.04-.82 17.17-3.08 23.01-4.44.91-.21 2.4-.23 2.98.0"/><path id="kvg:0677e-s2" kvg:type="㇑" d="M31.61 15c1.32 1.32 1.79 3.12 1.79 4.52.0.79-.04 50.83-.05 68.98.0 2.98.0 5.1.0 6"/><path id="kvg:0677e-s3" kvg:type="㇒" d="M32.44 41.66c0 1.09-.47 2.56-.93 3.42-5.94 10.93-9.9 16.34-19.65 26.72"/><path id="kvg:0677e-s4" kvg:type="㇔/㇏" d="M36.25 51.25c2.72 1.35 7.2 5.73 9.5 8.35"/></g><g id="kvg:0677e-g2" kvg:element="公" kvg:position="right" kvg:phon="公"><g id="kvg:0677e-g3" kvg:element="八" kvg:position="top"><path id="kvg:0677e-s5" kvg:type="㇒" d="M57.37 28.25c.19.59.0 1.76-.25 2.46-1.79 5.08-4.62 11.66-10.37 17.54"/><path id="kvg:0677e-s6" kvg:type="㇏" d="M67.77 23.43c3.58 1.6 15.48 18.28 21.92 22.25 2.49 1.54 3.38 2.36 5.8 2.86"/></g><g id="kvg:0677e-g4" kvg:element="厶" kvg:position="bottom"><path id="kvg:0677e-s7" kvg:type="㇜" d="M66.22 55.83c.28.92.12 2.28-.26 3C60.73 68.58 57 74.5 48.6 84.71c-1.89 2.3-.92 4.41 1.99 3.57 9.16-2.65 22.16-6.4 32.77-9.2"/><path id="kvg:0677e-s8" kvg:type="㇔" d="M78.27 70.95c4.37 3.64 9.86 13.05 11.89 20.12"/></g></g></g></g></svg>