<svg xmlns="http://www.w3.org/2000/svg" width="109" height="109" viewBox="0 0 109 109"><g id="kvg:StrokePaths_0677c"><g id="kvg:0677c" kvg:element="杼"><g id="kvg:0677c-g1" kvg:element="木" kvg:position="left" kvg:radical="general"><path id="kvg:0677c-s1" kvg:type="㇐" d="M13.78 37.72c.35.24 2.39.41 3.31.31 3.94-.41 18.62-1.71 24.95-2.91.92-.17 2.15-.24 2.73.0"/><path id="kvg:0677c-s2" kvg:type="㇑" d="M29.36 15c.91.47 2.04 2.5 2.04 4.92.0.95-.12 70.75-.3 76.58"/><path id="kvg:0677c-s3" kvg:type="㇒" d="M30.94 41.28C25.44 56 22.38 62.21 13.86 75.09"/><path id="kvg:0677c-s4" kvg:type="㇔/㇏" d="M34.47 47.9c2.23 1.77 5.9 6.42 7.78 9.85"/></g><g id="kvg:0677c-g2" kvg:element="予" kvg:position="right"><g id="kvg:0677c-g3" kvg:element="マ" kvg:position="top"><path id="kvg:0677c-s5" kvg:type="㇇" d="M49.51 16.09c1.27 1.05 3.99 1.68 5.43 1.42 2.85-.52 25.58-3.74 28.58-4.26s4.1 2.27 2.24 3.92C82 20.5 72.5 29.25 68.09 32.56"/><path id="kvg:0677c-s6" kvg:type="㇔" d="M60 26.75c2.89 1.47 10.39 7.14 11.75 11"/></g><g id="kvg:0677c-g4" kvg:element="了" kvg:position="bottom"><path id="kvg:0677c-s7" kvg:type="㇇" d="M44.67 44.61c.98.65 2.84 1.88 6.84 1.17s33.03-4.35 36.27-4.51C98 40.75 91 47.75 85.46 52.75"/><g id="kvg:0677c-g5" kvg:element="亅"><path id="kvg:0677c-s8" kvg:type="㇚" d="M67.76 46.75c1.62 1.02 2.82 2.38 2.82 4.41.0 2.04-.29 34.35-.31 38.09-.03 8.25-5.08 1.68-7.5-.02"/></g></g></g></g></g></svg>