<svg xmlns="http://www.w3.org/2000/svg" width="109" height="109" viewBox="0 0 109 109"><g id="kvg:StrokePaths_06773" style="fill:none;stroke:#000000;stroke-width:3;stroke-linecap:round;stroke-linejoin:round;"><g id="kvg:06773" kvg:element="杳"><g id="kvg:06773-g1" kvg:element="木" kvg:position="top" kvg:radical="general"><path id="kvg:06773-s1" kvg:type="㇐" d="M19.5 26.98c1.98.46 4.23.61 6.51.46 11.6-.76 39.76-2.91 57.3-3.8 2.26-.11 3.68.08 5.94.41"/><path id="kvg:06773-s2" kvg:type="㇑" d="M52.59 11c1.02.5 1.83 2.22 1.83 3.25.0 10.5.0 37.75-.2 44"/><path id="kvg:06773-s3" kvg:type="㇒" d="M52 26c-8.75 12.5-19.25 23.25-38.75 31"/><path id="kvg:06773-s4" kvg:type="㇏" d="M54.75 24.75c5.5 5 27 23.25 34.2 26.81 2.02 1 3.45 1.82 5.3 2.19"/></g><g id="kvg:06773-g2" kvg:element="日" kvg:position="bottom"><path id="kvg:06773-s5" kvg:type="㇑" d="M29.99 64.86c.34.51.9 2.56 1 3.24 1.11 7 3.01 19.43 3.96 29.36"/><path id="kvg:06773-s6" kvg:type="㇕a" d="M31.08 66.79c11.9-1.34 34.77-2.62 43.65-3.74 3.26-.41 4.99.77 4.77 3.66-.47 6.03-3.5 19.79-5.62 28.4"/><path id="kvg:06773-s7" kvg:type="㇐a" d="M33.34 79.5c3.88-.52 39.91-2.5 44.57-2.51"/><path id="kvg:06773-s8" kvg:type="㇐a" d="M34.64 94.79c10.38-1.37 26.24-2.08 39.24-2.32"/></g></g></g></svg>