<!DOCTYPE svg PUBLIC "-//W3C//DTD SVG 1.0//EN" "http://www.w3.org/TR/2001/REC-SVG-20010904/DTD/svg10.dtd" [
<!ATTLIST g
xmlns:kvg CDATA #FIXED "http://kanjivg.tagaini.net"
kvg:element CDATA #IMPLIED
kvg:variant CDATA #IMPLIED
kvg:partial CDATA #IMPLIED
kvg:original CDATA #IMPLIED
kvg:part CDATA #IMPLIED
kvg:number CDATA #IMPLIED
kvg:tradForm CDATA #IMPLIED
kvg:radicalForm CDATA #IMPLIED
kvg:position CDATA #IMPLIED
kvg:radical CDATA #IMPLIED
kvg:phon CDATA #IMPLIED >
<!ATTLIST path
xmlns:kvg CDATA #FIXED "http://kanjivg.tagaini.net"
kvg:type CDATA #IMPLIED >
]><svg xmlns="http://www.w3.org/2000/svg" width="109" height="109" viewBox="0 0 109 109"><g id="kvg:StrokePaths_067a0" style="fill:none;stroke:#000000;stroke-width:3;stroke-linecap:round;stroke-linejoin:round;"><g id="kvg:067a0" kvg:element="枠"><g id="kvg:067a0-g1" kvg:element="木" kvg:position="left" kvg:radical="general"><path id="kvg:067a0-s1" kvg:type="㇐" d="M13.28 39.22c2.1.41 5.1.49 6.6.28 7-1 16.25-1.75 23.66-2.88.92-.14 2.46-.37 3.73.0"/><path id="kvg:067a0-s2" kvg:type="㇑" d="M32.36 14c1.07 1.07 1.29 2.75 1.29 4.67.0 4.19.04 59.08.04 69.58.0 4.1-.03 7.49-.06 8.5"/><path id="kvg:067a0-s3" kvg:type="㇒" d="M32.94 39.28c0 1.72-.96 3.93-1.76 5.79-4.67 10.88-9.55 19.55-18.82 31.02"/><path id="kvg:067a0-s4" kvg:type="㇔/㇏" d="M36.12 46c2.46 1.55 7.55 8.5 9.62 11.5"/></g><g id="kvg:067a0-g2" kvg:element="卆" kvg:position="right"><g id="kvg:067a0-g3" kvg:element="九" kvg:position="top"><path id="kvg:067a0-s5" kvg:type="㇒" d="M66.65 12.12c.6 1.25.64 2.27.47 3.64-1.75 13.86-4.75 25.99-16.34 36.84"/><g id="kvg:067a0-g4" kvg:element="乙"><path id="kvg:067a0-s6" kvg:type="㇈" d="M50.14 25.19c1.99.68 4.62.33 6.01.08 5.09-.92 16.73-3.59 20.58-4.48 2.78-.64 4.83.13 4.27 3.52-.63 3.81-1.13 6.81-1.58 13.46-.56 8.2 1.08 9.86 7.9 9.86 7.68.0 9.2-.86 9.2-6.59"/></g></g><g id="kvg:067a0-g5" kvg:element="十" kvg:position="bottom"><path id="kvg:067a0-s7" kvg:type="㇐" d="M46.75 68.47c2.62.53 5.27.4 7.25.12 11.25-1.59 27.32-3.18 36.38-3.8 2.57-.18 4.68-.07 7.12.81"/><path id="kvg:067a0-s8" kvg:type="㇑" d="M69.6 50.55c1.12 1.12 1.42 2.58 1.42 4.31.0.55.07 25.47.08 37.14.0 3.34.01 5.59.0 5.88"/></g></g></g></g><g id="kvg:StrokeNumbers_067a0" style="font-size:8;fill:#808080"><text transform="matrix(1 0 0 1 6.50 40.38)">1</text><text transform="matrix(1 0 0 1 22.25 13.25)">2</text><text transform="matrix(1 0 0 1 21.50 50.88)">3</text><text transform="matrix(1 0 0 1 41.00 47.88)">4</text><text transform="matrix(1 0 0 1 57.50 12.25)">5</text><text transform="matrix(1 0 0 1 47.25 22.25)">6</text><text transform="matrix(1 0 0 1 47.25 65.25)">7</text><text transform="matrix(1 0 0 1 60.25 52.25)">8</text></g></svg>