<svg xmlns="http://www.w3.org/2000/svg" width="109" height="109" viewBox="0 0 109 109"><g id="kvg:StrokePaths_067a2"><g id="kvg:067a2" kvg:element="枢"><g id="kvg:067a2-g1" kvg:element="木" kvg:position="left" kvg:radical="general"><path id="kvg:067a2-s1" kvg:type="㇐" d="M11.03 39.22c2.35.66 4.75.42 6.37.26 5.73-.56 16.78-2.44 22.89-3.5.95-.16 2.83-.48 3.73-.11"/><path id="kvg:067a2-s2" kvg:type="㇑" d="M28.86 14.5c1.26 1.26 1.79 2.62 1.79 4.42.0 6.22-.01 49.75-.02 68.83.0 3.41.0 6.02.0 7.5"/><path id="kvg:067a2-s3" kvg:type="㇒" d="M29.69 39.53c0 1.72-1.34 4.73-1.97 6.21-4.78 11.18-8.29 17.22-16.36 28.35"/><path id="kvg:067a2-s4" kvg:type="㇔/㇏" d="M33.38 49.62c2.56 1.68 6.1 7.41 8.26 10.66"/></g><g id="kvg:067a2-g2" kvg:element="区" kvg:position="right" kvg:phon="区"><g id="kvg:067a2-g3" kvg:element="匚" kvg:part="1" kvg:position="kamae"><path id="kvg:067a2-s5" kvg:type="㇐" d="M49.13 21.86c2.62.77 5.48.69 7.89.48 9.43-.81 19.87-2.15 29.61-3.27 2.44-.28 5.37-.56 7.43-.13"/></g><g id="kvg:067a2-g4" kvg:element="乂"><g id="kvg:067a2-g5" kvg:element="丿"><path id="kvg:067a2-s6" kvg:type="㇒" d="M82.05 31.29c.36 1.1.29 2.47-.32 4.39-4.48 14.2-10.1 28.45-22.12 40.34"/></g><path id="kvg:067a2-s7" kvg:type="㇔/㇏" d="M60.04 41.8c9.75 4.84 22.03 21.62 26.91 31.86"/></g><g id="kvg:067a2-g6" kvg:element="匚" kvg:part="2" kvg:position="kamae"><path id="kvg:067a2-s8" kvg:type="㇗" d="M50.38 22.77c1.05 1.05 1.25 2.23 1.25 3.98.0 13.6.0 50.33.0 59.25.0 3.44.02 4.86 3.74 4.11 15.38-3.11 27.01-3.73 35.5-3.56 2.31.05 5.27.73 6.69 1.2"/></g></g></g></g></svg>