<svg xmlns="http://www.w3.org/2000/svg" width="109" height="109" viewBox="0 0 109 109"><g id="kvg:StrokePaths_067a9"><g id="kvg:067a9" kvg:element="枩"><g id="kvg:067a9-g1" kvg:element="木" kvg:position="top" kvg:radical="general"><path id="kvg:067a9-s1" kvg:type="㇐" d="M22.25 25.11c1.75.57 3.74.75 5.75.57C38.25 24.75 66.5 23 82 21.9c2-.14 3.25.1 5.25.5"/><path id="kvg:067a9-s2" kvg:type="㇑" d="M52.25 8.75c1.25.5 2.25 2.22 2.25 3.25.0 10.5.0 31.75-.25 38"/><path id="kvg:067a9-s3" kvg:type="㇒" d="M53.75 24.25c-6.68 9.94-24.6 25.12-38.5 30.75"/><path id="kvg:067a9-s4" kvg:type="㇏" d="M54 26c5.04 3.24 28.72 19.47 34.2 22.65 1.86 1.08 3.45 1.54 5.3 1.85"/></g><g id="kvg:067a9-g2" kvg:element="公" kvg:position="bottom"><g id="kvg:067a9-g3" kvg:element="八" kvg:position="top"><path id="kvg:067a9-s5" kvg:type="㇒" d="M42.48 54.98c.42.59-.03 1.29-.58 2C37.86 62.16 30.24 69.84 18 74.85"/><path id="kvg:067a9-s6" kvg:type="㇔/㇏" d="M64.75 54.75c5.92 1.2 19.58 9.78 25.5 16.97"/></g><g id="kvg:067a9-g4" kvg:element="厶" kvg:position="bottom"><path id="kvg:067a9-s7" kvg:type="㇜" d="M53.57 67.18c-.07 1.32-.5 2.83-1.02 3.48-7 8.79-12.79 14.68-22.76 23.45-2.43 2.13-1.55 4.25 2.34 3.44 10.84-2.25 33.52-6.64 45.26-7.95"/><path id="kvg:067a9-s8" kvg:type="㇔" d="M67.39 80.15c5.86 3.46 15.15 14.22 16.61 19.6"/></g></g></g></g></svg>