<!DOCTYPE svg PUBLIC "-//W3C//DTD SVG 1.0//EN" "http://www.w3.org/TR/2001/REC-SVG-20010904/DTD/svg10.dtd" [
<!ATTLIST g
xmlns:kvg CDATA #FIXED "http://kanjivg.tagaini.net"
kvg:element CDATA #IMPLIED
kvg:variant CDATA #IMPLIED
kvg:partial CDATA #IMPLIED
kvg:original CDATA #IMPLIED
kvg:part CDATA #IMPLIED
kvg:number CDATA #IMPLIED
kvg:tradForm CDATA #IMPLIED
kvg:radicalForm CDATA #IMPLIED
kvg:position CDATA #IMPLIED
kvg:radical CDATA #IMPLIED
kvg:phon CDATA #IMPLIED >
<!ATTLIST path
xmlns:kvg CDATA #FIXED "http://kanjivg.tagaini.net"
kvg:type CDATA #IMPLIED >
]><svg xmlns="http://www.w3.org/2000/svg" width="109" height="109" viewBox="0 0 109 109"><g id="kvg:StrokePaths_067b3" style="fill:none;stroke:#000000;stroke-width:3;stroke-linecap:round;stroke-linejoin:round;"><g id="kvg:067b3" kvg:element="枳"><g id="kvg:067b3-g1" kvg:element="木" kvg:position="left" kvg:radical="general"><path id="kvg:067b3-s1" kvg:type="㇐" d="M13.03 36.72c.37.24 2.57.41 3.56.31 4.24-.41 18.42-2.21 25.24-3.41.99-.17 2.31-.24 2.94.0"/><path id="kvg:067b3-s2" kvg:type="㇑" d="M28.86 13.5c.91.47 2.04 3.5 2.04 5.42.0.95-.12 69.75-.3 75.58"/><path id="kvg:067b3-s3" kvg:type="㇒" d="M30.44 38.78c-5.1 15.04-8.69 22.72-16.83 34.56"/><path id="kvg:067b3-s4" kvg:type="㇔/㇏" d="M33.47 46.65c2.37 1.7 7.28 8.3 9.28 11.6"/></g><g id="kvg:067b3-g2" kvg:element="只" kvg:position="right"><g id="kvg:067b3-g3" kvg:element="口" kvg:position="top"><path id="kvg:067b3-s5" kvg:type="㇑" d="M52.83 25.12c.41.58.82 1.06 1 1.79 1.41 5.75 3.1 21.6 4.07 31.92"/><path id="kvg:067b3-s6" kvg:type="㇕b" d="M54.15 27.55c12.37-1.7 27.55-3.31 33.7-4.05 2.25-.27 3.39 1.48 2.95 4.17-1.16 7.08-2.24 19.55-4.22 28.7"/><path id="kvg:067b3-s7" kvg:type="㇐b" d="M57.66 55.8c7.22-.84 17.59-1.3 28.99-2.07"/></g><g id="kvg:067b3-g4" kvg:element="八" kvg:position="bottom"><g id="kvg:067b3-g5" kvg:position="left"><path id="kvg:067b3-s8" kvg:type="㇒" d="M62.58 66.74c.05.55.25 1.48-.1 2.22C60 74.25 54.25 82.75 45.06 90.22"/></g><g id="kvg:067b3-g6" kvg:position="right"><path id="kvg:067b3-s9" kvg:type="㇏" d="M80.7 67.89c5.6 3.73 14.46 15.33 15.86 21.12"/></g></g></g></g></g><g id="kvg:StrokeNumbers_067b3" style="font-size:8;fill:#808080"><text transform="matrix(1 0 0 1 7.50 37.50)">1</text><text transform="matrix(1 0 0 1 19.50 13.50)">2</text><text transform="matrix(1 0 0 1 20.50 46.50)">3</text><text transform="matrix(1 0 0 1 35.50 45.50)">4</text><text transform="matrix(1 0 0 1 47.50 34.50)">5</text><text transform="matrix(1 0 0 1 56.50 24.50)">6</text><text transform="matrix(1 0 0 1 61.25 52.18)">7</text><text transform="matrix(1 0 0 1 53.50 68.50)">8</text><text transform="matrix(1 0 0 1 73.25 69.50)">9</text></g></svg>