<svg xmlns="http://www.w3.org/2000/svg" width="109" height="109" viewBox="0 0 109 109"><g id="kvg:StrokePaths_067cf"><g id="kvg:067cf" kvg:element="柏"><g id="kvg:067cf-g1" kvg:element="木" kvg:position="left" kvg:radical="general"><path id="kvg:067cf-s1" kvg:type="㇐" d="M15.28 38.73c.39.23 2.7.39 3.74.3 4.46-.39 19.37-3.03 26.54-4.17 1.04-.16 1.3-.23 1.96.0"/><path id="kvg:067cf-s2" kvg:type="㇑" d="M32.36 14c.91.47 2.54 2.25 2.54 4.92.0.95-.12 70.25-.3 76.08"/><path id="kvg:067cf-s3" kvg:type="㇒" d="M34.44 40.78c-6.29 15.04-10.85 21.4-20.58 34.56"/><path id="kvg:067cf-s4" kvg:type="㇔/㇏" d="M37.97 47.4c2.68 2.03 6.4 7.71 8.66 11.64"/></g><g id="kvg:067cf-g2" kvg:element="白" kvg:position="right"><g id="kvg:067cf-g3" kvg:position="top"><path id="kvg:067cf-s5" kvg:type="㇔" d="M71.41 16.5c.5 1.02.68 2.31.46 3.15-1.63 6.18-6.71 17.77-12.18 24.81"/></g><g id="kvg:067cf-g4" kvg:element="日" kvg:position="bottom"><path id="kvg:067cf-s6" kvg:type="㇑" d="M53.8 44.76c.59 1.14 1.19 3.03 1.19 4.55.0 1.51 1.19 33.1 1.19 42.19"/><path id="kvg:067cf-s7" kvg:type="㇕a" d="M55.35 47.5c3.35-.19 31.07-3.57 34.12-3.89 1.94-.21 2.73 1.24 2.72 3.63-.01 4.08-1.53 30.62-2.16 43.12"/><path id="kvg:067cf-s8" kvg:type="㇐a" d="M55.81 66.47c7.03-.57 29.92-3.11 35.05-3.11"/><path id="kvg:067cf-s9" kvg:type="㇐a" d="M56.98 88.53c8.41-.61 23.88-2.06 32.85-2.34"/></g></g></g></g></svg>