<!DOCTYPE svg PUBLIC "-//W3C//DTD SVG 1.0//EN" "http://www.w3.org/TR/2001/REC-SVG-20010904/DTD/svg10.dtd" [
<!ATTLIST g
xmlns:kvg CDATA #FIXED "http://kanjivg.tagaini.net"
kvg:element CDATA #IMPLIED
kvg:variant CDATA #IMPLIED
kvg:partial CDATA #IMPLIED
kvg:original CDATA #IMPLIED
kvg:part CDATA #IMPLIED
kvg:number CDATA #IMPLIED
kvg:tradForm CDATA #IMPLIED
kvg:radicalForm CDATA #IMPLIED
kvg:position CDATA #IMPLIED
kvg:radical CDATA #IMPLIED
kvg:phon CDATA #IMPLIED >
<!ATTLIST path
xmlns:kvg CDATA #FIXED "http://kanjivg.tagaini.net"
kvg:type CDATA #IMPLIED >
]><svg xmlns="http://www.w3.org/2000/svg" width="109" height="109" viewBox="0 0 109 109"><g id="kvg:StrokePaths_067de" style="fill:none;stroke:#000000;stroke-width:3;stroke-linecap:round;stroke-linejoin:round;"><g id="kvg:067de" kvg:element="柞"><g id="kvg:067de-g1" kvg:element="木" kvg:position="left" kvg:radical="general"><path id="kvg:067de-s1" kvg:type="㇐" d="M12.28 36.72c.37.24 2.55.41 3.52.31 4.2-.41 19.3-1.71 26.06-2.91.98-.17 2.29-.24 2.91.0"/><path id="kvg:067de-s2" kvg:type="㇑" d="M29.36 14c.91.47 2.04 2.25 2.04 4.42.0.95-.12 70.25-.3 76.08"/><path id="kvg:067de-s3" kvg:type="㇒" d="M30.94 38.78c-5.9 16.78-9.19 23.87-18.33 38.56"/><path id="kvg:067de-s4" kvg:type="㇔/㇏" d="M34.47 48.9c2.37 1.59 7.28 6.76 9.28 9.85"/></g><g id="kvg:067de-g2" kvg:element="乍" kvg:position="right"><g id="kvg:067de-g3" kvg:element="丿"><path id="kvg:067de-s5" kvg:type="㇒" d="M62.25 13.5c.05.83.24 2.16-.1 3.31C60 24.25 54.25 37.75 45.06 48.5"/></g><path id="kvg:067de-s6" kvg:type="㇐" d="M57.36 31.81c.92.24 2.61.28 3.54.24 12.18-.5 20.71-3.1 29.67-3.61 1.7-.1 2.81.03 4.14.27"/><path id="kvg:067de-s7" kvg:type="㇑" d="M65.16 34.46c.85.48 1.36 2.17 1.53 3.13s0 52.14-.17 58.16"/><path id="kvg:067de-s8" kvg:type="㇐b" d="M67.57 51.84c6.35-.65 13.09-1.33 20.27-1.98 1.69-.15 2.32-.21 4.13.12"/><path id="kvg:067de-s9" kvg:type="㇐b" d="M66.99 68.09c4.66-.36 12.21-1.17 22.87-1.94.96-.07 3.4.07 3.88.14"/></g></g></g><g id="kvg:StrokeNumbers_067de" style="font-size:8;fill:#808080"><text transform="matrix(1 0 0 1 6.50 37.50)">1</text><text transform="matrix(1 0 0 1 20.50 14.50)">2</text><text transform="matrix(1 0 0 1 20.50 47.50)">3</text><text transform="matrix(1 0 0 1 35.50 46.50)">4</text><text transform="matrix(1 0 0 1 52.50 12.50)">5</text><text transform="matrix(1 0 0 1 64.50 28.50)">6</text><text transform="matrix(1 0 0 1 58.50 42.50)">7</text><text transform="matrix(1 0 0 1 70.50 48.50)">8</text><text transform="matrix(1 0 0 1 70.50 64.50)">9</text></g></svg>