<svg xmlns="http://www.w3.org/2000/svg" width="109" height="109" viewBox="0 0 109 109"><g id="kvg:StrokePaths_067d4" style="fill:none;stroke:#000000;stroke-width:3;stroke-linecap:round;stroke-linejoin:round;"><g id="kvg:067d4" kvg:element="柔"><g id="kvg:067d4-g1" kvg:element="矛" kvg:position="top" kvg:radical="nelson"><g id="kvg:067d4-g2" kvg:element="予"><g id="kvg:067d4-g3" kvg:element="マ" kvg:position="top"><path id="kvg:067d4-s1" kvg:type="㇇" d="M31.02 15.29c2.2.6 4.85.52 7.11.2 7.43-1.05 26.91-4.33 29.48-4.64 3.01-.37 4.02 1.66 1.74 3.5-2.89 2.34-12.59 9.62-14.49 11.09"/><path id="kvg:067d4-s2" kvg:type="㇔" d="M44.5 22c2.65.73 8.89 3.55 10.14 5.47"/></g><g id="kvg:067d4-g4" kvg:element="了" kvg:position="bottom"><path id="kvg:067d4-s3" kvg:type="㇇a" d="M22.32 34.79c3.02.56 6.23.63 9.21-.17 12.98-3.5 31.35-7.25 45.9-7.43 7.1-.09 2.95 4.81-1.88 9.32"/><g id="kvg:067d4-g5" kvg:element="亅"><path id="kvg:067d4-s4" kvg:type="㇚" d="M55.51 31.29c.91.91.97 1.96.97 3.59.0 6.23-.02 10.73-.02 15.07.0 6.25-3.84 1.89-5.44-.07"/></g></g></g><g id="kvg:067d4-g6" kvg:element="丿"><path id="kvg:067d4-s5" kvg:type="㇒" d="M52.99 30.75c.08.64-.39 1.72-.92 2.56C47.25 40.88 41.62 49 23.64 57.26"/></g></g><g id="kvg:067d4-g7" kvg:element="木" kvg:position="bottom" kvg:radical="tradit"><path id="kvg:067d4-s6" kvg:type="㇐" d="M18.75 68.86c3.05.89 6.13.65 9.24.33 13.89-1.44 35.76-3.82 53.88-4.55 3.34-.13 6.11-.08 9.38.51"/><path id="kvg:067d4-s7" kvg:type="㇑" d="M53.75 58.25C54.69 59.19 55 60.62 55 62c0 8.67.11 23.62.11 33 0 1.86-.07 3.41-.11 4.5"/><path id="kvg:067d4-s8" kvg:type="㇒" d="M52.75 67.75c0 1.25-.82 2.79-1.67 3.98-6.67 9.34-20.69 20-33.33 23.77"/><path id="kvg:067d4-s9" kvg:type="㇏" d="M56 68c3.79 2.5 18.27 13.28 26.8 18.99 2.43 1.63 5.7 3.63 8.7 4.51"/></g></g></g></svg>