<!DOCTYPE svg PUBLIC "-//W3C//DTD SVG 1.0//EN" "http://www.w3.org/TR/2001/REC-SVG-20010904/DTD/svg10.dtd" [
<!ATTLIST g
xmlns:kvg CDATA #FIXED "http://kanjivg.tagaini.net"
kvg:element CDATA #IMPLIED
kvg:variant CDATA #IMPLIED
kvg:partial CDATA #IMPLIED
kvg:original CDATA #IMPLIED
kvg:part CDATA #IMPLIED
kvg:number CDATA #IMPLIED
kvg:tradForm CDATA #IMPLIED
kvg:radicalForm CDATA #IMPLIED
kvg:position CDATA #IMPLIED
kvg:radical CDATA #IMPLIED
kvg:phon CDATA #IMPLIED >
<!ATTLIST path
xmlns:kvg CDATA #FIXED "http://kanjivg.tagaini.net"
kvg:type CDATA #IMPLIED >
]><svg xmlns="http://www.w3.org/2000/svg" width="109" height="109" viewBox="0 0 109 109"><g id="kvg:StrokePaths_067fe" style="fill:none;stroke:#000000;stroke-width:3;stroke-linecap:round;stroke-linejoin:round;"><g id="kvg:067fe" kvg:element="柾"><g id="kvg:067fe-g1" kvg:element="木" kvg:position="left" kvg:radical="general"><path id="kvg:067fe-s1" kvg:type="㇐" d="M12.53 38.22c2.1.66 4.4.56 6.1.32 6.5-.91 13.33-1.87 18.9-2.77 1.46-.24 3.48-.39 4.99-.15"/><path id="kvg:067fe-s2" kvg:type="㇑" d="M28.36 14.25c1.19 1.19 1.54 2.62 1.54 4.42.0.79.07 48.62.09 68.83.0 4.23.01 7.25.01 8.38"/><path id="kvg:067fe-s3" kvg:type="㇒" d="M29.69 40.53c-.06 1.59-.81 3.47-1.66 5.6-4.7 11.85-9.15 19.49-16.42 29.46"/><path id="kvg:067fe-s4" kvg:type="㇔/㇏" d="M33.22 48.9c2.37 1.59 6.28 7.76 8.28 10.85"/></g><g id="kvg:067fe-g2" kvg:element="正" kvg:position="right"><path id="kvg:067fe-s5" kvg:type="㇐" d="M47 22.37c2.75.5 5.25.32 7.52.11 8.61-.81 18.36-2.48 30.73-3.58 2.38-.21 4.88-.27 7.23.24"/><g id="kvg:067fe-g3" kvg:element="止"><g id="kvg:067fe-g4" kvg:element="卜" kvg:original="ト"><path id="kvg:067fe-s6" kvg:type="㇑a" d="M68.47 23.57c.98.98 1.24 1.93 1.24 3.96.0 14.41.0 53.12.0 58.03"/><path id="kvg:067fe-s7" kvg:type="㇐b" d="M70.7 51.77c1.44-.26 10.69-1.68 17.04-2.6 1.58-.23 3.01-.55 4.76-.31"/></g><path id="kvg:067fe-s8" kvg:type="㇑a" d="M51.15 48.11c.81.81 1.32 1.89 1.32 3.63.0 7.6-.02 32.45-.02 35.04"/><path id="kvg:067fe-s9" kvg:type="㇐" d="M38.8 88.02c2.99 1 6.13 1.02 9.2.64 11.42-1.39 27.6-2.85 40.75-3.08 2.93-.05 6.38-.2 9.95 1.2"/></g></g></g></g><g id="kvg:StrokeNumbers_067fe" style="font-size:8;fill:#808080"><text transform="matrix(1 0 0 1 6.25 39.25)">1</text><text transform="matrix(1 0 0 1 20.00 13.25)">2</text><text transform="matrix(1 0 0 1 20.25 48.25)">3</text><text transform="matrix(1 0 0 1 34.00 47.25)">4</text><text transform="matrix(1 0 0 1 45.25 19.25)">5</text><text transform="matrix(1 0 0 1 61.25 31.25)">6</text><text transform="matrix(1 0 0 1 74.25 48.25)">7</text><text transform="matrix(1 0 0 1 45.25 45.25)">8</text><text transform="matrix(1 0 0 1 36.25 85.25)">9</text></g></svg>