<svg xmlns="http://www.w3.org/2000/svg" width="109" height="109" viewBox="0 0 109 109"><g id="kvg:StrokePaths_06803"><g id="kvg:06803" kvg:element="栃"><g id="kvg:06803-g1" kvg:element="木" kvg:position="left" kvg:radical="general"><path id="kvg:06803-s1" kvg:type="㇐" d="M14.78 38.36c.38.26 2.62.45 3.63.34 4.32-.45 18.77-2.42 25.72-3.74 1.01-.19 1.26-.26 1.89.0"/><path id="kvg:06803-s2" kvg:type="㇑" d="M31.86 13.5c.91.47 2.54 1.75 2.54 4.42.0.95-.12 70.25-.3 76.08"/><path id="kvg:06803-s3" kvg:type="㇒" d="M33.94 40.28C27.23 54.23 23.5 60.13 13.11 72.34"/><path id="kvg:06803-s4" kvg:type="㇔/㇏" d="M37.47 48.4c2.45 1.32 6.28 5.6 7.91 8.89"/></g><g id="kvg:06803-g2" kvg:position="right"><g id="kvg:06803-g3" kvg:element="厂" kvg:variant="true"><path id="kvg:06803-s5" kvg:type="㇒" d="M81.04 14.5c.07.48.27 1.4-.14 1.94-5.09 6.83-12.63 13.09-25.9 18.6"/><path id="kvg:06803-s6" kvg:type="㇒" d="M53.39 31.53c1.11.72 1.42 3.33 1.42 5.19.0 15.28-3.07 35.79-12.01 50.75"/></g><g id="kvg:06803-g4" kvg:element="万"><g id="kvg:06803-g5" kvg:element="一"><path id="kvg:06803-s7" kvg:type="㇐" d="M56.91 46.4c1.08.39 3.05.47 4.13.39 7.17-.54 26.02-3.29 34.39-3.5 1.8-.05 2.87.19 3.77.38"/></g><path id="kvg:06803-s8" kvg:type="㇆" d="M72.77 55.84c4.73 1.66 11.48 4.66 16.02 5.34 2.35.35 3.43 1.32 2.88 3.06C88.25 75 82.87 86.1 77.93 92.72c-4.64 6.21-5.33.18-6.29-.4"/><path id="kvg:06803-s9" kvg:type="㇒" d="M73.02 48.71c.06.94.12 2.43-.12 3.78C71.5 60.46 65 80.5 52.49 88.67"/></g></g></g></g></svg>