<svg xmlns="http://www.w3.org/2000/svg" width="109" height="109" viewBox="0 0 109 109"><g id="kvg:StrokePaths_06802" style="fill:none;stroke:#000000;stroke-width:3;stroke-linecap:round;stroke-linejoin:round;"><g id="kvg:06802" kvg:element="栂"><g id="kvg:06802-g1" kvg:element="木" kvg:position="left" kvg:radical="general"><path id="kvg:06802-s1" kvg:type="㇐" d="M13.28 38.22c.35.24 2.39.37 3.31.31 4.67-.28 17.62-2.21 23.95-3.41.92-.17 1.15-.24 1.73.0"/><path id="kvg:06802-s2" kvg:type="㇑" d="M27.86 14.5c.91.47 2.39 1.25 2.54 4.92.04.95-.12 70.25-.3 76.08"/><path id="kvg:06802-s3" kvg:type="㇒" d="M29.94 39.28c-5.66 15.58-8.81 22.17-17.58 35.81"/><path id="kvg:06802-s4" kvg:type="㇔/㇏" d="M32.97 46.9c1.91 1.4 4.55 6.18 6.16 8.89"/></g><g id="kvg:06802-g2" kvg:element="母" kvg:position="right"><g id="kvg:06802-g3" kvg:element="毋" kvg:part="1" kvg:variant="true"><path id="kvg:06802-s5" kvg:type="㇛" d="M52.88 20.87c.77 1.02 1.85 4.42 1.64 7.09-.99 12.62-3.58 34.3-6.85 46.1-1 3.6-.3 5.27 2.47 5.2 10.65-.25 25.62.0 38.12 6.25"/><path id="kvg:06802-s6" kvg:type="㇆" d="M54.07 22.55c.72-.18 2.12-.36 2.75-.48 6.46-1.21 24.14-2.57 27.88-3.57 2.72-.73 3.96.76 3.73 4.25-1.19 18.76-4.75 51.5-10.73 69.18-2.49 7.35-6.69 1.68-7.75.0"/></g><path id="kvg:06802-s7" kvg:type="㇔" d="M63.8 28.25c2.71 1.94 7.01 7.98 7.69 11"/><path id="kvg:06802-s8" kvg:type="㇔" d="M64.65 58.5c3.04 2.25 7.86 9.25 8.62 12.75"/><g id="kvg:06802-g4" kvg:element="毋" kvg:part="2" kvg:variant="true"><path id="kvg:06802-s9" kvg:type="㇐" d="M42.63 49.45c.8.63 2.25.67 3.06.63C56.5 49.5 80.11 47 96.59 46.57c1.33-.03 2.13.3 2.79.61"/></g></g></g></g></svg>