<svg xmlns="http://www.w3.org/2000/svg" width="109" height="109" viewBox="0 0 109 109"><g id="kvg:StrokePaths_06816"><g id="kvg:06816" kvg:element="栖"><g id="kvg:06816-g1" kvg:element="木" kvg:position="left" kvg:radical="general"><path id="kvg:06816-s1" kvg:type="㇐" d="M13.03 40.97c2.02.33 4.05.41 6.09.23 4.61-.6 12.39-1.99 17.76-2.93 1.29-.13 2.59-.18 3.89-.14"/><path id="kvg:06816-s2" kvg:type="㇑" d="M29.11 17c1.07 1.07 1.54 2.75 1.54 4.92.0.77-.04 44.72-.05 64.7.0 4.55.0 7.85.0 9.12"/><path id="kvg:06816-s3" kvg:type="㇒" d="M29.94 40.78c-.06 2.47-1.1 5.18-1.63 6.42-4.96 11.82-8.44 18.49-16.7 29.88"/><path id="kvg:06816-s4" kvg:type="㇔/㇏" d="M33.47 51.4c2.45 1.36 6.15 6.1 7.66 8.89"/></g><g id="kvg:06816-g2" kvg:element="西" kvg:variant="true" kvg:original="襾" kvg:position="right"><path id="kvg:06816-s5" kvg:type="㇐" d="M43.95 23.23c2.85.45 5.69.52 8.55.19 10.69-.77 24.96-3.04 37.13-3.6 2.47-.25 4.92-.16 7.37.27"/><path id="kvg:06816-s6" kvg:type="㇑" d="M47.54 40.88c.85.85 1.4 2.55 1.4 4.55.0 7.48-.04 27.05-.06 40.57.0 3.77-.01 7.07-.01 9.5"/><path id="kvg:06816-s7" kvg:type="㇕a" d="M49.64 42.92c11.78-1.43 29.43-3.57 38.61-4.52 3.36-.35 5.21 1.01 5.21 4.76.0 7.45-.14 26.43-.19 41.22-.01 3.21-.02 6.22-.02 8.88"/><path id="kvg:06816-s8" kvg:type="㇒" d="M63.43 25.35c.92.92 1.17 2.77 1.15 4.41-.21 18.12-1.33 32.24-9.8 40.77"/><path id="kvg:06816-s9" kvg:type="㇟a" d="M75.67 23.77c1.03 1.03 1.36 2.36 1.36 3.84.0 14.82-.03 28.53-.03 33.02.0 5.76 1 7.55 6.54 7.55 4.69.0 6.78-.91 7.04-1.25"/><path id="kvg:06816-s10" kvg:type="㇐a" d="M50 91.99C61.38 91.25 78.5 90 92.3 89.75"/></g></g></g></svg>