<svg xmlns="http://www.w3.org/2000/svg" width="109" height="109" viewBox="0 0 109 109"><g id="kvg:StrokePaths_06817" style="fill:none;stroke:#000000;stroke-width:3;stroke-linecap:round;stroke-linejoin:round;"><g id="kvg:06817" kvg:element="栗"><g id="kvg:06817-g1" kvg:element="覀" kvg:variant="true" kvg:original="襾" kvg:position="top" kvg:radical="nelson"><path id="kvg:06817-s1" kvg:type="㇐" d="M28.5 14.64c2.88.61 5.57.75 8 .54 9.43-.82 26.58-2.66 35.74-3.19 2.77-.16 5.79-.4 8.51.27"/><path id="kvg:06817-s2" kvg:type="㇑" d="M23.88 28.57c.77.67 1.22 1.52 1.33 2.54.82 4.4 1.61 8.79 2.43 13.52.23 1.33.47 2.69.71 4.09"/><path id="kvg:06817-s3" kvg:type="㇕" d="M26.29 30.28c13.46-1.4 38.58-3.78 56.08-5.02 3.46-.25 4.88 1.74 4.26 4.27-.75 3.04-2.08 7.36-3.59 11.45-.48 1.3-.98 2.58-1.48 3.78"/><path id="kvg:06817-s4" kvg:type="㇑" d="M41.12 17.75c1.06 1.06 1.57 2.24 1.71 3.25.42 3 1.42 15.25 2.42 22.25"/><path id="kvg:06817-s5" kvg:type="㇑" d="M64.12 15.5c.63 1 .75 2.12.63 4-.4 6.03-1.25 16-2 22.75"/><path id="kvg:06817-s6" kvg:type="㇐" d="M29.25 45.62c10.13-1 37.75-3 52.2-3.63"/></g><g id="kvg:06817-g2" kvg:element="木" kvg:position="bottom" kvg:radical="tradit"><path id="kvg:06817-s7" kvg:type="㇐" d="M18.41 64.61c3.37 1.06 6.89 1 10.33.7 18.01-1.56 35.01-2.81 55.13-3.83 3.46-.17 7.01.0 10.42.66"/><path id="kvg:06817-s8" kvg:type="㇑" d="M52.9 48.75c1.05 1.05 1.34 2 1.34 3.5.0 8.49-.01 28.33-.01 40.5.0 2.88.0 5.3.0 7"/><path id="kvg:06817-s9" kvg:type="㇒" d="M51.14 64.74c0 1.01-.79 2.32-1.66 3.34-8.1 9.54-20.11 19.42-36.73 24.84"/><path id="kvg:06817-s10" kvg:type="㇏" d="M57.12 64.25c3.74 2.87 18.79 15.29 26.85 21.18 2.21 1.62 4.81 3.46 8.53 4.82"/></g></g></g></svg>