<svg xmlns="http://www.w3.org/2000/svg" width="109" height="109" viewBox="0 0 109 109"><g id="kvg:StrokePaths_0681e" style="fill:none;stroke:#000000;stroke-width:3;stroke-linecap:round;stroke-linejoin:round;"><g id="kvg:0681e" kvg:element="栞"><g id="kvg:0681e-g1" kvg:element="幵" kvg:position="top"><g id="kvg:0681e-g2" kvg:element="干"><path id="kvg:0681e-s1" kvg:type="㇐" d="M18.32 18.03c2.18.59 4.03.39 5.92.24 4.84-.37 12.96-1.03 18.52-1.58 1.5-.15 3.3-.46 4.79-.09"/><g id="kvg:0681e-g3" kvg:element="十"><path id="kvg:0681e-s2" kvg:type="㇐" d="M14.34 36.88c1.63.64 4.2.76 5.91.61 6.74-.59 19.26-2.23 26.51-2.83 1.7-.14 3.24-.2 4.9.19"/><path id="kvg:0681e-s3" kvg:type="㇑" d="M33.52 21.15c1.04 1.04 1.01 2.47 1.01 3.53.0.59-.01 16.4-.02 26.31.0 2.55.0 4.71.0 6.12"/></g></g><g id="kvg:0681e-g4" kvg:element="干"><path id="kvg:0681e-s4" kvg:type="㇐" d="M59.32 16.78c1.87.78 4.13.63 6.06.46 4.65-.42 12.44-1.42 17.88-1.98 1.8-.19 3.52-.34 5.3.11"/><g id="kvg:0681e-g5" kvg:element="十"><path id="kvg:0681e-s5" kvg:type="㇐" d="M56.84 34.13c1.67.65 4.28.5 6.04.37 6.59-.51 18.29-1.55 25.38-2.09 1.7-.13 3.25-.28 4.91-.06"/><path id="kvg:0681e-s6" kvg:type="㇑" d="M74.02 19.15c.85.85 1.01 1.85 1.01 3.03.0.58.02 16.42.01 25.81-.01 2.82-.01 5.05-.03 6.13"/></g></g></g><g id="kvg:0681e-g6" kvg:element="木" kvg:position="bottom" kvg:radical="general"><path id="kvg:0681e-s7" kvg:type="㇐" d="M15.75 64.23c3.55.82 7.28.52 10.88.18 13.7-1.28 38.12-2.67 54.5-3.52 3.68-.19 7.21-.11 10.87.41"/><path id="kvg:0681e-s8" kvg:type="㇑" d="M52.75 48c1.19 1.19 1.5 2.5 1.5 4.5.0 8.34.0 27.96.0 39.62.0 3.02.0 5.51.0 7.12"/><path id="kvg:0681e-s9" kvg:type="㇒" d="M50.5 63.25c0 1.12-.74 2.32-1.52 3.62C42.43 77.74 28.47 88.86 13.5 94"/><path id="kvg:0681e-s10" kvg:type="㇏" d="M54.75 63.25c6.62 5.88 19.9 16 28.5 22.18 2.92 2.09 6.25 3.95 10.25 5.32"/></g></g></g></svg>