<svg xmlns="http://www.w3.org/2000/svg" width="109" height="109" viewBox="0 0 109 109"><g id="kvg:StrokePaths_0682a"><g id="kvg:0682a" kvg:element="株"><g id="kvg:0682a-g1" kvg:element="木" kvg:position="left" kvg:radical="general"><path id="kvg:0682a-s1" kvg:type="㇐" d="M8.9 39.97c1.97.78 5.08.38 6.6.15 5.58-.88 15.09-3.01 20.61-4 .98-.17 2.54-.24 3.16.0"/><path id="kvg:0682a-s2" kvg:type="㇑" d="M24.61 15.5c1.38 1.38 1.79 3.62 1.79 4.92.0 2.56.03 43.72.04 65.7.0 3.06.0 5.74.0 7.88"/><path id="kvg:0682a-s3" kvg:type="㇒" d="M25.69 40.28c0 1.59-.76 5.95-1.24 7.29-4.24 11.91-7.58 18.05-14.34 27.77"/><path id="kvg:0682a-s4" kvg:type="㇔/㇏" d="M28.88 47.5c2.62 1.42 6.92 6.01 9.12 8.75"/></g><g id="kvg:0682a-g2" kvg:element="朱" kvg:position="right" kvg:phon="朱"><path id="kvg:0682a-s5" kvg:type="㇒" d="M52.74 22.61c.03.52.12 1.5-.06 2.09-2.2 7.35-4.68 13.55-10.21 20.54"/><g id="kvg:0682a-g3" kvg:element="未"><path id="kvg:0682a-s6" kvg:type="㇐" d="M52.49 35.75c1.76.25 3.89.05 5.38-.23 8-1.52 17.62-3.14 24.5-3.83 1.58-.16 3-.38 4.57.0"/><g id="kvg:0682a-g4" kvg:element="木"><path id="kvg:0682a-s7" kvg:type="㇐" d="M43.89 54.25c2.36.25 5.51.12 7.76-.17 8.5-1.06 24.51-3.42 35.48-4.65 2.53-.28 4.77-.34 7.28.2"/><path id="kvg:0682a-s8" kvg:type="㇑" d="M66.48 12.75c.95.95 1.3 2.17 1.3 3.17.0 4.45-.13 66.33-.13 73.83.0 3.24-.1 4.25-.1 6.25"/><path id="kvg:0682a-s9" kvg:type="㇒" d="M66.25 53.04c0 1.08-.51 2.52-1.46 4.14C58.78 67.47 47.92 80.27 38.95 85.5"/><path id="kvg:0682a-s10" kvg:type="㇏" d="M67.35 52.81c3.17 5.16 14.58 18.53 21.4 25.43 1.89 1.92 4.25 3.76 6.5 5.38"/></g></g></g></g></g></svg>