<svg xmlns="http://www.w3.org/2000/svg" width="109" height="109" viewBox="0 0 109 109"><g id="kvg:StrokePaths_06822"><g id="kvg:06822" kvg:element="栢"><g id="kvg:06822-g1" kvg:element="木" kvg:position="left" kvg:radical="general"><path id="kvg:06822-s1" kvg:type="㇐" d="M12.78 39.2c2.03.35 4.08.56 6.11.27 5.53-.81 13.96-2.15 19.66-3.12 1.57-.26 3.14-.36 4.72-.3"/><path id="kvg:06822-s2" kvg:type="㇑" d="M29.61 14c1.07 1.07 1.54 3.25 1.54 5.5.0.83-.02 47.87-.02 68.87.0 4.7.0 8.09.0 9.38"/><path id="kvg:06822-s3" kvg:type="㇒" d="M29.94 38.38c0 1.74-.98 4.45-1.56 6.04-4.86 13.21-8.13 19.21-16.52 33.24"/><path id="kvg:06822-s4" kvg:type="㇔/㇏" d="M34.47 50.89c2.68 1.56 6.4 6.38 8.66 9.4"/></g><g id="kvg:06822-g2" kvg:element="百" kvg:position="right"><g id="kvg:06822-g3" kvg:position="top"><path id="kvg:06822-s5" kvg:type="㇐" d="M44.71 24.39c2.92.56 5.84.62 8.78.17C62.95 23.45 76 21.75 88 21.17c2.89-.14 5.71-.15 8.54.41"/></g><g id="kvg:06822-g4" kvg:element="白" kvg:position="bottom"><g id="kvg:06822-g5" kvg:position="top"><path id="kvg:06822-s6" kvg:type="㇔" d="M69.61 25.83c0 1.17-.12 2.1-.51 3.1-1.73 4.44-3.6 8.94-7.1 14.69"/></g><g id="kvg:06822-g6" kvg:element="日" kvg:position="bottom"><path id="kvg:06822-s7" kvg:type="㇑" d="M51.51 45.85c1.01 1.01 1.41 1.94 1.47 3.65.38 10.85.87 26.98 1.2 38.13.12 4.02.22 7.38.28 9.62"/><path id="kvg:06822-s8" kvg:type="㇕a" d="M53.34 47.39c3.15-.2 25.43-2.67 31.53-3.28 3.8-.38 5.19.88 5.19 4.51.0 6.34-.25 24.82-.35 38.38-.02 3.29-.04 6.29-.04 8.75"/><path id="kvg:06822-s9" kvg:type="㇐a" d="M54.78 68.23C69 66.79 79.5 66 88.98 65.69"/><path id="kvg:06822-s10" kvg:type="㇐a" d="M55.47 94.39c11.28-.86 22.78-2.1 33.39-2.12"/></g></g></g></g></g></svg>