<svg xmlns="http://www.w3.org/2000/svg" width="109" height="109" viewBox="0 0 109 109"><g id="kvg:StrokePaths_06821"><g id="kvg:06821" kvg:element="校"><g id="kvg:06821-g1" kvg:element="木" kvg:position="left" kvg:radical="general"><path id="kvg:06821-s1" kvg:type="㇐" d="M11.53 40.68c1.1.32 2.6.45 4.53.32 5.4-.35 16.57-3 23.14-4.04 1.25-.2 2.3-.18 3.07.0"/><path id="kvg:06821-s2" kvg:type="㇑" d="M28.99 17.25c1.07 1.07 1.76 3.25 1.76 5.25.0.77-.03 48.09-.18 65.25-.03 3.03-.05 5.16-.07 6"/><path id="kvg:06821-s3" kvg:type="㇒" d="M30.25 40.75c0 1.25-.49 2.66-.96 3.77C25.28 53.91 20.88 62.25 15 70"/><path id="kvg:06821-s4" kvg:type="㇔/㇏" d="M33.75 51.25c2.75 1.5 6 5.25 7.25 7.75"/></g><g id="kvg:06821-g2" kvg:element="交" kvg:position="right" kvg:phon="交"><g id="kvg:06821-g3" kvg:element="亠"><path id="kvg:06821-s5" kvg:type="㇑a" d="M66.39 15.5c.99.99 1.38 1.88 1.38 3.62.0 4.25-.02 7.62-.08 10.41"/><path id="kvg:06821-s6" kvg:type="㇐" d="M48.12 31.71c2.3.29 3.9.44 6.09.2 10.28-1.16 20.32-2.66 32.45-3.53 2.35-.17 4.03-.01 5.33.32"/></g><g id="kvg:06821-g4" kvg:element="父"><path id="kvg:06821-s7" kvg:type="㇒" d="M59.24 38.93c.2.53.06 2.27-.4 3.14C57 45.5 53.75 49.5 50 52.5"/><path id="kvg:06821-s8" kvg:type="㇔" d="M79.27 38.5c4.34 3.07 8.73 8.68 10.9 12.41"/><path id="kvg:06821-s9" kvg:type="㇒" d="M79.15 49.18c.35 1.32.17 2.62-.54 4.18C72.25 67.25 58.75 83.25 44 91.25"/><path id="kvg:06821-s10" kvg:type="㇏" d="M55.95 55.88C62.25 59.25 77.59 78 87.4 86.21c2.64 2.21 5.07 4.15 8.6 4.44"/></g></g></g></g></svg>