<svg xmlns="http://www.w3.org/2000/svg" width="109" height="109" viewBox="0 0 109 109"><g id="kvg:StrokePaths_0684e" style="fill:none;stroke:#000000;stroke-width:3;stroke-linecap:round;stroke-linejoin:round;"><g id="kvg:0684e" kvg:element="桎"><g id="kvg:0684e-g1" kvg:element="木" kvg:position="left" kvg:radical="general"><path id="kvg:0684e-s1" kvg:type="㇐" d="M11.28 37.72c.35.24 2.39.41 3.31.31 3.94-.41 18.12-2.21 24.45-3.41.92-.17 2.15-.24 2.73.0"/><path id="kvg:0684e-s2" kvg:type="㇑" d="M25.86 13.5c.91.47 2.54 2.25 2.54 4.92.0.95-.12 71.75-.3 77.58"/><path id="kvg:0684e-s3" kvg:type="㇒" d="M27.94 41.28c-5.1 15.04-8.94 21.4-16.83 34.56"/><path id="kvg:0684e-s4" kvg:type="㇔/㇏" d="M31.22 47.4c2.59 1.86 6.85 6.74 9.03 10.35"/></g><g id="kvg:0684e-g2" kvg:element="至" kvg:position="right"><path id="kvg:0684e-s5" kvg:type="㇐" d="M45.25 22.64c1.12.37 3.16.43 4.28.37C59.25 22.5 74 20 85.92 19.54c1.86-.07 2.97.18 3.9.36"/><g id="kvg:0684e-g3" kvg:element="厶"><path id="kvg:0684e-s6" kvg:type="㇜" d="M63.71 24.52c.46.52.63 2.15.28 2.76C59.92 34.3 55.62 40.32 50 47.09c-1.81 2.18-1.94 3.66.97 3.01 6.79-1.5 23.19-5.02 33.89-7.5"/><path id="kvg:0684e-s7" kvg:type="㇔" d="M76.06 34.3c4.87 2.74 12.58 11.29 13.8 15.56"/></g><g id="kvg:0684e-g4" kvg:element="土"><path id="kvg:0684e-s8" kvg:type="㇐" d="M45.71 71.37c1.17.42 3.31.52 4.48.42 12.03-1.04 23.37-3.24 34.31-3.24 1.95.0 3.11.2 4.09.41"/><path id="kvg:0684e-s9" kvg:type="㇑a" d="M65.48 53.21c.11.28 1.67 1.44 1.63 3.21-.18 10.08-.08 26.86-.08 36.07"/><path id="kvg:0684e-s10" kvg:type="㇐" d="M40.88 93.93c1.36.38 3.87.47 5.23.38 12.15-.81 27.9-3.06 44.76-3.2 2.27-.02 3.63.18 4.77.37"/></g></g></g></g></svg>