<svg xmlns="http://www.w3.org/2000/svg" width="109" height="109" viewBox="0 0 109 109"><g id="kvg:StrokePaths_06843"><g id="kvg:06843" kvg:element="桃"><g id="kvg:06843-g1" kvg:element="木" kvg:position="left" kvg:radical="general"><path id="kvg:06843-s1" kvg:type="㇐" d="M12.03 39.47c1.72.41 3.88.23 5.11.07 6.12-.78 15.11-3.11 20.65-4.17.92-.17 2.15-.24 2.73.0"/><path id="kvg:06843-s2" kvg:type="㇑" d="M27.86 18c1.26 1.26 1.54 3 1.54 4.92.0-.24.17 40.89.05 60.58-.03 4.72-.06 8.18-.11 9.5"/><path id="kvg:06843-s3" kvg:type="㇒" d="M29.19 41.53c0 1.97-1.62 5.78-2.27 7.38-4.36 10.81-7.64 16.29-15.06 27.18"/><path id="kvg:06843-s4" kvg:type="㇔/㇏" d="M32.75 50c2.29 1.71 6.07 6.18 8 9.5"/></g><g id="kvg:06843-g2" kvg:element="兆" kvg:position="right" kvg:phon="兆"><g id="kvg:06843-g3" kvg:position="left"><g id="kvg:06843-g4" kvg:element="儿" kvg:part="1" kvg:original="八"><path id="kvg:06843-s5" kvg:type="㇒" d="M56.79 18.91c1.15 1.15 1.39 2.34 1.39 4.32.0 24.35 3.94 55.9-16.28 70.96"/></g><g id="kvg:06843-g5" kvg:element="冫"><path id="kvg:06843-s6" kvg:type="㇔" d="M44.16 39.06c2.89 1.47 7.47 6.03 8.2 8.32"/><path id="kvg:06843-s7" kvg:type="㇀" d="M42.11 68.99c1.14.76 2.06.42 2.84-.15 1.08-.78 6.55-5.55 10.8-9.34"/></g></g><g id="kvg:06843-g6" kvg:position="right"><g id="kvg:06843-g7" kvg:element="儿" kvg:part="2" kvg:original="八"><path id="kvg:06843-s8" kvg:type="㇟" d="M70.28 15.94c1.21 1.21 1.24 2.32 1.24 3.97.0 7.59-.01 55.22-.01 60.22C71.5 91 73 92.23 83.94 92.23c10.31.0 11.56-1.73 11.56-8.68"/></g><path id="kvg:06843-s9" kvg:type="㇒" d="M89.64 31.25c.11.81.02 1.58-.41 2.25C87 36.88 83.5 40.38 75.5 46.12"/><path id="kvg:06843-s10" kvg:type="㇔" d="M75.38 51.88c6.1 2.65 15.75 10.87 17.27 14.98"/></g></g></g></g></svg>