<svg xmlns="http://www.w3.org/2000/svg" width="109" height="109" viewBox="0 0 109 109"><g id="kvg:StrokePaths_06848" style="fill:none;stroke:#000000;stroke-width:3;stroke-linecap:round;stroke-linejoin:round;"><g id="kvg:06848" kvg:element="案"><g id="kvg:06848-g1" kvg:element="安" kvg:position="top" kvg:phon="安"><g id="kvg:06848-g2" kvg:element="宀" kvg:position="top" kvg:radical="nelson"><path id="kvg:06848-s1" kvg:type="㇑a" d="M54.53 9.95c1.07 1.07 1.61 2.17 1.61 3.36.0 2.44-.07 3.58-.07 5.79"/><g id="kvg:06848-g3" kvg:element="冖"><path id="kvg:06848-s2" kvg:type="㇔" d="M25.38 21.75c0 3.05-2.26 11.63-3.29 13.75"/><path id="kvg:06848-s3" kvg:type="㇖b" d="M26.47 23.54c13.97-1.85 50.2-5.16 56.57-5.46 9.53-.44 3.21 4.66-1.51 7.48"/></g></g><g id="kvg:06848-g4" kvg:element="女" kvg:position="bottom"><path id="kvg:06848-s4" kvg:type="㇛" d="M50.4 27.69c.35.68.28 1.97-.24 2.98-2.04 3.95-5.04 9.57-11.61 16.36-1.36 1.4-.74 2.41.26 2.35 8.41-.53 21.28 1.68 31.22 5.29 4.32 1.57 8.09 3.4 10.7 5.39"/><path id="kvg:06848-s5" kvg:type="㇒" d="M68.25 31.88c.21.94.2 2.35-.23 3.36-3.52 8.18-13.38 21.51-38.94 26.96"/><path id="kvg:06848-s6" kvg:type="㇐" d="M13 41.5c3.38.38 6.82.33 10.38-.05 15.87-1.7 45.49-3.95 62.13-4.97 2.97-.18 6.35-.06 9.24.52"/></g></g><g id="kvg:06848-g5" kvg:element="木" kvg:position="bottom" kvg:radical="tradit"><path id="kvg:06848-s7" kvg:type="㇐" d="M23.64 71.15c3.16.5 6.45.18 9.59-.12 8.85-.87 28.57-2.56 44.26-3.28 3.25-.15 6.77-.28 9.99.41"/><path id="kvg:06848-s8" kvg:type="㇑" d="M53.09 60.75c.89.89 1.35 2.49 1.35 3.5.0 2.12-.1 18.5-.14 28.38-.01 2.33-.01 4.29-.01 5.62"/><path id="kvg:06848-s9" kvg:type="㇒" d="M52.25 70.25c0 .62-.4 1.84-1.19 2.89-7.44 9.93-19.96 19.99-34.31 23.61"/><path id="kvg:06848-s10" kvg:type="㇏" d="M54.75 70.75c4.36 2.71 21.13 13.94 29.7 19.33 2.96 1.86 5.05 3.05 8.55 4.17"/></g></g></g></svg>