<!DOCTYPE svg PUBLIC "-//W3C//DTD SVG 1.0//EN" "http://www.w3.org/TR/2001/REC-SVG-20010904/DTD/svg10.dtd" [
<!ATTLIST g
xmlns:kvg CDATA #FIXED "http://kanjivg.tagaini.net"
kvg:element CDATA #IMPLIED
kvg:variant CDATA #IMPLIED
kvg:partial CDATA #IMPLIED
kvg:original CDATA #IMPLIED
kvg:part CDATA #IMPLIED
kvg:number CDATA #IMPLIED
kvg:tradForm CDATA #IMPLIED
kvg:radicalForm CDATA #IMPLIED
kvg:position CDATA #IMPLIED
kvg:radical CDATA #IMPLIED
kvg:phon CDATA #IMPLIED >
<!ATTLIST path
xmlns:kvg CDATA #FIXED "http://kanjivg.tagaini.net"
kvg:type CDATA #IMPLIED >
]><svg xmlns="http://www.w3.org/2000/svg" width="109" height="109" viewBox="0 0 109 109"><g id="kvg:StrokePaths_06846" style="fill:none;stroke:#000000;stroke-width:3;stroke-linecap:round;stroke-linejoin:round;"><g id="kvg:06846" kvg:element="框"><g id="kvg:06846-g1" kvg:element="木" kvg:position="left" kvg:radical="general"><path id="kvg:06846-s1" kvg:type="㇐" d="M11.28 36.27c.36.25 2.47.42 3.42.32 4.08-.42 16.68-1.78 23.24-3.03.95-.18 2.23-.25 2.82.0"/><path id="kvg:06846-s2" kvg:type="㇑" d="M27.36 14.5c.91.47 2.04 2 2.04 4.92.0.95-.12 68.75-.3 74.58"/><path id="kvg:06846-s3" kvg:type="㇒" d="M28.44 39.28c-5.1 15.04-7.94 21.4-15.83 34.56"/><path id="kvg:06846-s4" kvg:type="㇔/㇏" d="M31.47 44.9c2.37 1.59 6.28 6.76 8.28 9.85"/></g><g id="kvg:06846-g2" kvg:element="匡" kvg:position="right"><g id="kvg:06846-g3" kvg:element="匚" kvg:part="1"><path id="kvg:06846-s5" kvg:type="㇐" d="M43.38 20.48c1.12.54 3.18.63 4.3.54 11.68-.91 30.82-2.77 43.81-3.23 1.87-.07 2.99.26 3.93.53"/></g><g id="kvg:06846-g4" kvg:element="王" kvg:original="玉" kvg:partial="true"><path id="kvg:06846-s6" kvg:type="㇐" d="M55.95 35.69c.61.2 2.62.06 3.24.01 6.81-.48 19.94-2.12 26.91-2.33.95-.03 1.81.04 2.6.21"/><path id="kvg:06846-s7" kvg:type="㇑a" d="M70.76 35.25c.97 1.33.97 2.13.97 3.19.0 7.45-.01 26.01-.01 37.95"/><path id="kvg:06846-s8" kvg:type="㇐" d="M56.99 54.77c.52.2 2.72.6 3.25.59 6.26-.1 17.29-1.67 23.76-2.02.64-.03 2.06-.08 3.03.09"/><path id="kvg:06846-s9" kvg:type="㇐" d="M53.13 77.83c.46.18 2.87.59 3.65.5 10.96-1.25 21.45-2.78 33.16-3.21 1.26-.05 2.77.29 3.4.57"/></g><g id="kvg:06846-g5" kvg:element="匚" kvg:part="2"><path id="kvg:06846-s10" kvg:type="㇗" d="M47.22 21c0 4-1.37 64.5-1.37 68.25.0 3 .76 3.8 2.03 3.5 10.62-2.5 37.67-3.58 43.71-2.75 2.38.33 4.43.25 5.91.75"/></g></g></g></g><g id="kvg:StrokeNumbers_06846" style="font-size:8;fill:#808080"><text transform="matrix(1 0 0 1 5.85 37.50)">1</text><text transform="matrix(1 0 0 1 18.50 14.50)">2</text><text transform="matrix(1 0 0 1 18.50 46.50)">3</text><text transform="matrix(1 0 0 1 35.50 44.50)">4</text><text transform="matrix(1 0 0 1 46.50 17.50)">5</text><text transform="matrix(1 0 0 1 52.50 32.50)">6</text><text transform="matrix(1 0 0 1 64.50 44.50)">7</text><text transform="matrix(1 0 0 1 53.50 51.50)">8</text><text transform="matrix(1 0 0 1 50.50 74.50)">9</text><text transform="matrix(1 0 0 1 36.44 28.50)">10</text></g></svg>