<!DOCTYPE svg PUBLIC "-//W3C//DTD SVG 1.0//EN" "http://www.w3.org/TR/2001/REC-SVG-20010904/DTD/svg10.dtd" [
<!ATTLIST g
xmlns:kvg CDATA #FIXED "http://kanjivg.tagaini.net"
kvg:element CDATA #IMPLIED
kvg:variant CDATA #IMPLIED
kvg:partial CDATA #IMPLIED
kvg:original CDATA #IMPLIED
kvg:part CDATA #IMPLIED
kvg:number CDATA #IMPLIED
kvg:tradForm CDATA #IMPLIED
kvg:radicalForm CDATA #IMPLIED
kvg:position CDATA #IMPLIED
kvg:radical CDATA #IMPLIED
kvg:phon CDATA #IMPLIED >
<!ATTLIST path
xmlns:kvg CDATA #FIXED "http://kanjivg.tagaini.net"
kvg:type CDATA #IMPLIED >
]><svg xmlns="http://www.w3.org/2000/svg" width="109" height="109" viewBox="0 0 109 109"><g id="kvg:StrokePaths_06863" style="fill:none;stroke:#000000;stroke-width:3;stroke-linecap:round;stroke-linejoin:round;"><g id="kvg:06863" kvg:element="档"><g id="kvg:06863-g1" kvg:element="木" kvg:position="left" kvg:radical="general"><path id="kvg:06863-s1" kvg:type="㇐" d="M12.28 37.72c.35.24 2.39.41 3.31.31 3.94-.41 16.12-1.71 22.45-2.91.92-.17 2.15-.24 2.73.0"/><path id="kvg:06863-s2" kvg:type="㇑" d="M26.36 14c.91.47 2.54 2.75 2.54 4.92.0.95-.12 70.75-.3 76.58"/><path id="kvg:06863-s3" kvg:type="㇒" d="M28.44 39.28c-5.33 15.04-9.33 21.4-17.58 34.56"/><path id="kvg:06863-s4" kvg:type="㇔/㇏" d="M30.97 46.9c2.37 1.59 7.28 6.76 9.28 9.85"/></g><g id="kvg:06863-g2" kvg:element="当" kvg:position="right"><g id="kvg:06863-g3" kvg:element="⺌" kvg:variant="true" kvg:original="小" kvg:position="top"><path id="kvg:06863-s5" kvg:type="㇑" d="M69.01 12.87c.14.28 1.91 1.48 2.04 3.28.66 8.64.26 23.97.26 35.46"/><path id="kvg:06863-s6" kvg:type="㇔" d="M50 28.55c3.62 2.69 9.35 11.06 10.26 15.24"/><path id="kvg:06863-s7" kvg:type="㇒" d="M94.1 22.36c.04.6.21 1.58-.07 2.41C92.25 30 88 40.75 81.41 48.82"/></g><g id="kvg:06863-g4" kvg:element="⺕" kvg:variant="true" kvg:original="彑" kvg:position="bottom"><path id="kvg:06863-s8" kvg:type="㇕" d="M49.38 52.76c2.93.97 3.1.95 5.03.77 13.27-1.19 32.54-2.39 36.19-2.88 2.71-.36 3.8.95 3.48 3.83-1.1 10.02-2.52 29.81-3.35 40.66"/><path id="kvg:06863-s9" kvg:type="㇐c" d="M48.48 71.31c1.88.19 3.36.56 5.45.39 18.22-1.55 24.08-1.81 38.54-2.38"/><path id="kvg:06863-s10" kvg:type="㇐c" d="M47.72 93.01c1.15.24 3.23.86 4.6.72 12.65-1.21 26.35-1.89 37.85-2.38"/></g></g></g></g><g id="kvg:StrokeNumbers_06863" style="font-size:8;fill:#808080"><text transform="matrix(1 0 0 1 5.85 38.50)">1</text><text transform="matrix(1 0 0 1 17.50 14.50)">2</text><text transform="matrix(1 0 0 1 18.50 47.50)">3</text><text transform="matrix(1 0 0 1 33.50 45.50)">4</text><text transform="matrix(1 0 0 1 60.50 12.83)">5</text><text transform="matrix(1 0 0 1 42.50 26.50)">6</text><text transform="matrix(1 0 0 1 87.50 20.50)">7</text><text transform="matrix(1 0 0 1 48.44 50.60)">8</text><text transform="matrix(1 0 0 1 47.50 67.50)">9</text><text transform="matrix(1 0 0 1 44.50 90.46)">10</text></g></svg>