<svg xmlns="http://www.w3.org/2000/svg" width="109" height="109" viewBox="0 0 109 109"><g id="kvg:StrokePaths_06877"><g id="kvg:06877" kvg:element="桷"><g id="kvg:06877-g1" kvg:element="木" kvg:position="left" kvg:radical="general"><path id="kvg:06877-s1" kvg:type="㇐" d="M11.78 36.97c.37.24 2.58.41 3.57.31 4.25-.41 16.89-2.21 23.73-3.41.99-.17 2.32-.24 2.94.0"/><path id="kvg:06877-s2" kvg:type="㇑" d="M28.11 13.75c.91.47 2.54 2 2.54 4.42.0.95-.12 70.75-.3 76.58"/><path id="kvg:06877-s3" kvg:type="㇒" d="M30.69 37.53c-5.74 16.13-8.94 22.94-17.83 37.06"/><path id="kvg:06877-s4" kvg:type="㇔/㇏" d="M33.47 46.9c2.44 1.47 6.47 6.25 8.53 9.1"/></g><g id="kvg:06877-g2" kvg:element="角" kvg:position="right"><g id="kvg:06877-g3" kvg:element="𠂊" kvg:variant="true" kvg:original="勹" kvg:position="top"><path id="kvg:06877-s5" kvg:type="㇒" d="M60.74 12.5c.05.63.1 1.63-.1 2.53-1.14 5.34-8.16 17.05-17.15 24.22"/><path id="kvg:06877-s6" kvg:type="㇇a" d="M59.44 19.54c2.5.0 16.66-2.52 19.16-3.33 2.5-.81 3.65 1.14 2.5 2.65C77.35 23.73 74.25 28 69.52 37"/></g><g id="kvg:06877-g4" kvg:position="bottom"><path id="kvg:06877-s7" kvg:type="㇒" d="M49.89 37.5c.65.77 1.3 2.94 1.3 3.76.0 3.18-.11 17.9-.11 19.64.0 11.85-3.12 24.92-8.58 31.85"/><path id="kvg:06877-s8" kvg:type="㇆a" d="M51.41 40.19c3.03-.19 32.03-4.25 34.28-4.45 4.04-.37 5.47 3.15 5.05 5.35-.23 1.18-.76 29.69-.76 44.86.0 12.91-5.05 5.27-7.38 2.35"/><path id="kvg:06877-s9" kvg:type="㇑a" d="M68.35 40.87c.06.24.85 1.25.91 2.77.29 7.29-.19 23.38-.19 25.87"/><path id="kvg:06877-s10" kvg:type="㇐a" d="M51.41 54.35c5.22.0 29.49-2.85 38.56-2.85"/><path id="kvg:06877-s11" kvg:type="㇐a" d="M50.4 70.75c7.85-.25 29.4-2.5 39.02-2.5"/></g></g></g></g></svg>