<svg xmlns="http://www.w3.org/2000/svg" width="109" height="109" viewBox="0 0 109 109"><g id="kvg:StrokePaths_068a2"><g id="kvg:068a2" kvg:element="梢"><g id="kvg:068a2-g1" kvg:element="木" kvg:position="left" kvg:radical="general"><path id="kvg:068a2-s1" kvg:type="㇐" d="M14.28 39.72c1.14.8 4.41.44 5.73.26 4.76-.64 13.58-1.79 19.25-2.75 1.61-.27 3.11-.48 4.75-.36"/><path id="kvg:068a2-s2" kvg:type="㇑" d="M30.61 15.25c1.07 1.07 1.29 2.25 1.29 4.42.0.79-.04 47.4-.05 67.33.0 4.07.0 7.02.0 8.25"/><path id="kvg:068a2-s3" kvg:type="㇒" d="M31.19 40.03c0 1.47-.54 3.9-1.03 5.23-4.38 11.92-7.73 17.91-15.05 29.58"/><path id="kvg:068a2-s4" kvg:type="㇔/㇏" d="M35.25 49.88c2.14 1.38 7.45 8.45 9.25 11.12"/></g><g id="kvg:068a2-g2" kvg:element="肖" kvg:position="right"><g id="kvg:068a2-g3" kvg:element="⺌" kvg:variant="true" kvg:original="小" kvg:position="top"><path id="kvg:068a2-s5" kvg:type="㇑a" d="M66.44 11.62c.97.97 1.22 2.13 1.22 3.33.0 11.3.0 21.87.0 24.42"/><path id="kvg:068a2-s6" kvg:type="㇔" d="M43.94 21.24c3.33 2.02 8.61 7.9 9.45 11.04"/><path id="kvg:068a2-s7" kvg:type="㇒" d="M89.71 15.9c.09.91-.04 1.78-.39 2.62-1.94 3.6-4.82 7.35-9.93 12.55"/></g><g id="kvg:068a2-g4" kvg:element="月" kvg:position="bottom"><path id="kvg:068a2-s8" kvg:type="㇑" d="M52.11 41.47c.9.9.99 2.03.99 3.5.0.82-.03 30.8-.04 44.53.0 3.31.0 5.67.0 6.47"/><path id="kvg:068a2-s9" kvg:type="㇆a" d="M54.34 42.97c4.41-.84 22.78-4.09 26.49-4.5 2.41-.27 4.15.78 4.15 3.5.0 10.78-.1 39.82-.1 47.91.0 10.78-5.12 3.38-6.98 1.62"/><path id="kvg:068a2-s10" kvg:type="㇐a" d="M54.09 55.97C64.5 54.72 76.21 53.64 83.5 53"/><path id="kvg:068a2-s11" kvg:type="㇐a" d="M54.22 69.97c6.26-.65 21.92-2.16 29.15-2.59"/></g></g></g></g></svg>