<svg xmlns="http://www.w3.org/2000/svg" width="109" height="109" viewBox="0 0 109 109"><g id="kvg:StrokePaths_068a7"><g id="kvg:068a7" kvg:element="梧"><g id="kvg:068a7-g1" kvg:element="木" kvg:position="left" kvg:radical="general"><path id="kvg:068a7-s1" kvg:type="㇐" d="M10.78 38.47c1.97.53 4.15.48 5.6.34 5.26-.51 15.59-1.71 21.39-2.71 1.19-.2 2.61-.47 4-.23"/><path id="kvg:068a7-s2" kvg:type="㇑" d="M28.11 13c.94.94 1.29 2.62 1.29 4.67.0.8-.04 52.43-.05 72.58.0 3.82.0 6.5.0 7.5"/><path id="kvg:068a7-s3" kvg:type="㇒" d="M28.19 38.78c0 1.59-.75 4.12-1.2 5.46-3.74 11.13-7.49 20.13-14.63 30.84"/><path id="kvg:068a7-s4" kvg:type="㇔/㇏" d="M32.38 50.5c1.89 1.58 5.78 8.69 7.38 11.75"/></g><g id="kvg:068a7-g2" kvg:element="吾" kvg:position="right"><g id="kvg:068a7-g3" kvg:element="五" kvg:position="top"><g id="kvg:068a7-g4" kvg:element="二" kvg:part="1"><path id="kvg:068a7-s5" kvg:type="㇐" d="M50.9 17.72c2.1.4 3.79.19 5.49-.01 6.74-.77 17.36-1.96 25.23-2.85 1.82-.2 3.88-.26 5.68.18"/></g><path id="kvg:068a7-s6" kvg:type="㇑a" d="M67.29 19.75c.5 1 .47 2.25.12 4.39C66.55 29.4 61.62 49 59.98 54.25"/><path id="kvg:068a7-s7" kvg:type="㇕c" d="M51.57 36.21c2.12.68 4.57.77 6.79.38 7.86-1.35 16.67-2.61 21.77-3.34 3.27-.47 4.51.31 3.84 3.75-.96 4.91-2.73 12.74-3.51 16.74"/><g id="kvg:068a7-g5" kvg:element="二" kvg:part="2"><path id="kvg:068a7-s8" kvg:type="㇐" d="M45.13 57.98c2.28.8 5.33.36 7.63.05C64 56.5 75.88 55.12 90.5 54.54c2.67-.11 5.26.02 7.87.57"/></g></g><g id="kvg:068a7-g6" kvg:element="口" kvg:position="bottom"><path id="kvg:068a7-s9" kvg:type="㇑" d="M51.8 69.75c.91.91 1.21 2.06 1.39 3.12 1.06 6.26 1.95 11.42 2.73 17.64.2 1.6.38 3.12.53 4.49"/><path id="kvg:068a7-s10" kvg:type="㇕b" d="m53.64 71.09c6.52-1 22.15-2.65 27.98-3.39 2.95-.38 4.67.98 4.07 4.06-.96 4.95-2.81 11.74-3.72 16.46"/><path id="kvg:068a7-s11" kvg:type="㇐b" d="M56.82 91.66c5.14-.33 16.24-1.53 23.44-2.12 1.72-.14 3.22-.24 4.36-.29"/></g></g></g></g></svg>