<svg xmlns="http://www.w3.org/2000/svg" width="109" height="109" viewBox="0 0 109 109"><g id="kvg:StrokePaths_068bc"><g id="kvg:068bc" kvg:element="梼"><g id="kvg:068bc-g1" kvg:element="木" kvg:position="left" kvg:radical="general"><path id="kvg:068bc-s1" kvg:type="㇐" d="M13.5 37.96c.56.16 2.24.13 3.71.0 5.2-.47 14.69-1.75 20.26-2.06 1.48-.08 2.6-.47 3.53-.31"/><path id="kvg:068bc-s2" kvg:type="㇑" d="M28 15.5c1.25.5 2 2.25 2.25 3.25s0 71.25-.25 77.5"/><path id="kvg:068bc-s3" kvg:type="㇒" d="M29.75 38.5c-2.81 10.33-11.16 27.65-17 33.5"/><path id="kvg:068bc-s4" kvg:type="㇏" d="M32.5 47.25c3.22 2.21 6.66 6.63 8.5 10.5"/></g><g id="kvg:068bc-g2" kvg:element="寿" kvg:position="right"><g id="kvg:068bc-g3" kvg:element="三"><g id="kvg:068bc-g4" kvg:element="一" kvg:position="top"><path id="kvg:068bc-s5" kvg:type="㇐" d="M48.56 25.9c.89.37 2.53.45 3.42.37 6.21-.52 25.4-3.76 33.88-3.76 1.49.0 2.38.18 3.12.36"/></g><g id="kvg:068bc-g5" kvg:position="bottom"><g id="kvg:068bc-g6" kvg:element="一"><path id="kvg:068bc-s6" kvg:type="㇐" d="M50.59 36.39c.82.38 2.33.45 3.15.38 6.04-.52 22.32-3.02 28.19-3.38 1.37-.08 2.19.18 2.88.37"/></g><g id="kvg:068bc-g7" kvg:element="一"><path id="kvg:068bc-s7" kvg:type="㇐" d="M43.9 49.29c1.07.4 3.05.54 4.12.4 8.68-1.12 30.23-3.23 42.86-3.87 1.79-.09 2.86.19 3.76.39"/></g></g></g><g id="kvg:068bc-g8" kvg:element="丿"><path id="kvg:068bc-s8" kvg:type="㇒" d="M67.14 12.5c.61 1.5.84 2.91.72 5.06C66.25 45 63.25 74.25 42.96 91.04"/></g><g id="kvg:068bc-g9" kvg:element="寸"><path id="kvg:068bc-s9" kvg:type="㇐" d="M44.63 66.31c1.39.67 3.94.84 5.34.67 15.44-1.86 27.52-3.43 44.53-4.45 2.32-.14 3.71.32 4.88.65"/><path id="kvg:068bc-s10" kvg:type="㇚" d="M80.95 53.33c.07.45 1.1 2.33 1.1 5.17.0 19.11-.29 28.19-.29 32.84.0 11.27-6.14 2.14-8.06.7"/><path id="kvg:068bc-s11" kvg:type="㇔" d="M60.06 74.37c2.8 1.46 7.24 5.99 7.94 8.25"/></g></g></g></g></svg>