<svg xmlns="http://www.w3.org/2000/svg" width="109" height="109" viewBox="0 0 109 109"><g id="kvg:StrokePaths_068c9" style="fill:none;stroke:#000000;stroke-width:3;stroke-linecap:round;stroke-linejoin:round;"><g id="kvg:068c9" kvg:element="棉"><g id="kvg:068c9-g1" kvg:element="木" kvg:position="left" kvg:radical="general"><path id="kvg:068c9-s1" kvg:type="㇐" d="M15.28 39.72c.35.24 2.39.41 3.31.31 3.94-.41 17.12-2.21 23.45-3.41.92-.17 2.15-.24 2.73.0"/><path id="kvg:068c9-s2" kvg:type="㇑" d="M31.36 14.5c.91.47 2.04 2.5 2.04 4.42.0 4.58-.12 72.75-.3 78.58"/><path id="kvg:068c9-s3" kvg:type="㇒" d="M32.94 42.28C26.47 55.91 23.5 62.5 12.86 73.59"/><path id="kvg:068c9-s4" kvg:type="㇔/㇏" d="M36.47 47.9c2.37 1.59 5.66 7.05 7.66 10.14"/></g><g id="kvg:068c9-g2" kvg:element="帛" kvg:position="right"><g id="kvg:068c9-g3" kvg:element="白" kvg:position="top"><g id="kvg:068c9-g4" kvg:position="top"><path id="kvg:068c9-s5" kvg:type="㇔" d="M71.22 10.5c.31.43.35.95.28 1.33-.43 2.2-5.14 7.98-8.52 10.94"/></g><g id="kvg:068c9-g5" kvg:element="日" kvg:position="bottom"><path id="kvg:068c9-s6" kvg:type="㇑" d="M53.85 23.56c.52 1.02.82 1.55 1.04 2.9.61 3.79 2.12 14.38 3.11 24.15"/><path id="kvg:068c9-s7" kvg:type="㇕a" d="M55.2 25.97c2.92-.17 29.05-3.2 31.71-3.4 2.21-.17 3.55.56 3.47 3.08-.07 2.1-1.13 12.7-4.16 23.4"/><path id="kvg:068c9-s8" kvg:type="㇐a" d="M57.58 36.52c8-.6 24.3-2.22 31.51-2.45"/><path id="kvg:068c9-s9" kvg:type="㇐a" d="M58.51 48.24c10.51-1.15 19.64-1.36 27.72-1.9"/></g></g><g id="kvg:068c9-g6" kvg:element="巾" kvg:position="bottom"><path id="kvg:068c9-s10" kvg:type="㇑" d="M53.62 61.15c.38 1.35 1.31 3.07 1.33 3.65.17 7.28-.66 15.01-.52 23.25"/><path id="kvg:068c9-s11" kvg:type="㇆a" d="M55.5 64.04c2.75-.26 32.87-3.76 34.92-3.92 2.41-.19 3.93 3.24 3.84 4.92-.43 8.44-1.6 12.78-3.53 21.62-1.28 5.85-4.12 1.32-5.28-.73"/><path id="kvg:068c9-s12" kvg:type="㇑" d="M70.42 49.49c.62.37 1.94 2.75 2.06 3.49s-.08 41.81-.21 46.4"/></g></g></g></g></svg>