<!DOCTYPE svg PUBLIC "-//W3C//DTD SVG 1.0//EN" "http://www.w3.org/TR/2001/REC-SVG-20010904/DTD/svg10.dtd" [
<!ATTLIST g
xmlns:kvg CDATA #FIXED "http://kanjivg.tagaini.net"
kvg:element CDATA #IMPLIED
kvg:variant CDATA #IMPLIED
kvg:partial CDATA #IMPLIED
kvg:original CDATA #IMPLIED
kvg:part CDATA #IMPLIED
kvg:number CDATA #IMPLIED
kvg:tradForm CDATA #IMPLIED
kvg:radicalForm CDATA #IMPLIED
kvg:position CDATA #IMPLIED
kvg:radical CDATA #IMPLIED
kvg:phon CDATA #IMPLIED >
<!ATTLIST path
xmlns:kvg CDATA #FIXED "http://kanjivg.tagaini.net"
kvg:type CDATA #IMPLIED >
]><svg xmlns="http://www.w3.org/2000/svg" width="109" height="109" viewBox="0 0 109 109"><g id="kvg:StrokePaths_068c6" style="fill:none;stroke:#000000;stroke-width:3;stroke-linecap:round;stroke-linejoin:round;"><g id="kvg:068c6" kvg:element="棆"><g id="kvg:068c6-g1" kvg:element="木" kvg:position="left" kvg:radical="general"><path id="kvg:068c6-s1" kvg:type="㇐" d="M12.28 38.22c.35.24 2.39.41 3.31.31 3.94-.41 16.12-1.71 22.45-2.91.92-.17 2.15-.24 2.73.0"/><path id="kvg:068c6-s2" kvg:type="㇑" d="M26.36 15.5c.91.47 2.04 2 2.04 4.42.0.95-.12 67.75-.3 73.58"/><path id="kvg:068c6-s3" kvg:type="㇒" d="M27.94 40.28c-5.1 15.04-7.94 21.4-15.83 34.56"/><path id="kvg:068c6-s4" kvg:type="㇔/㇏" d="M30.47 47.9c2.37 1.59 6.28 6.76 8.28 9.85"/></g><g id="kvg:068c6-g2" kvg:element="侖" kvg:position="right"><g id="kvg:068c6-g3" kvg:element="人" kvg:position="top"><path id="kvg:068c6-s5" kvg:type="㇒" d="M64.58 10.4c.07.95.14 2.45-.13 3.8-1.6 8.03-9.66 24.97-22.71 36.92"/><path id="kvg:068c6-s6" kvg:type="㇏" d="M65.37 16.38c5.16 5.23 21.69 25.32 26.04 29.66 1.48 1.47 3.38 2.1 4.85 2.52"/></g><g id="kvg:068c6-g4" kvg:position="bottom"><g id="kvg:068c6-g5" kvg:element="一"><path id="kvg:068c6-s7" kvg:type="㇐" d="M53.16 45.85c.76.31 2.16.4 2.92.31 4.86-.54 16.21-1.97 21.66-2.27 1.27-.07 2.04.15 2.67.3"/></g><g id="kvg:068c6-g6" kvg:element="冊"><g id="kvg:068c6-g7" kvg:element="冂"><path id="kvg:068c6-s8" kvg:type="㇑" d="M47.38 56.16c.47.65 1.04 1.67 1.11 2.82.38 6.19-.52 30.61.03 36.91"/><path id="kvg:068c6-s9" kvg:type="㇆a" d="M48.99 59.54c6.02-.28 35.31-2.87 36.5-3 2.54-.28 3.43 2.78 3.45 4.04.08 6.74-.08 17.82-.19 29.83-.07 7.93-2.46 5.24-5.65 2.35"/></g><g id="kvg:068c6-g8" kvg:element="廾" kvg:variant="true"><g id="kvg:068c6-g9" kvg:element="十" kvg:part="1" kvg:variant="true"><path id="kvg:068c6-s10" kvg:type="㇐" d="M49.32 75.27c4.82-.25 35.98-2.3 39.38-2.39"/></g><g id="kvg:068c6-g10" kvg:element="丿" kvg:variant="true"><path id="kvg:068c6-s11" kvg:type="㇑" d="M60.89 60.53c.7.82 1.18 1.76 1.21 4.38.17 12.59-.24 23.27-.29 27.55"/></g><g id="kvg:068c6-g11" kvg:element="十" kvg:part="2" kvg:variant="true"><path id="kvg:068c6-s12" kvg:type="㇑" d="M73.45 59.87c.7.82 1.18 1.77 1.21 4.39.17 12.59-.24 24.94-.28 29.22"/></g></g></g></g></g></g></g><g id="kvg:StrokeNumbers_068c6" style="font-size:8;fill:#808080"><text transform="matrix(1 0 0 1 5.50 38.50)">1</text><text transform="matrix(1 0 0 1 17.50 16.50)">2</text><text transform="matrix(1 0 0 1 18.50 47.50)">3</text><text transform="matrix(1 0 0 1 31.50 46.57)">4</text><text transform="matrix(1 0 0 1 57.50 12.50)">5</text><text transform="matrix(1 0 0 1 71.50 20.50)">6</text><text transform="matrix(1 0 0 1 58.50 42.50)">7</text><text transform="matrix(1 0 0 1 41.50 67.50)">8</text><text transform="matrix(1 0 0 1 51.50 55.50)">9</text><text transform="matrix(1 0 0 1 52.25 71.50)">10</text><text transform="matrix(1 0 0 1 64.50 67.50)">11</text><text transform="matrix(1 0 0 1 76.50 67.50)">12</text></g></svg>