<svg xmlns="http://www.w3.org/2000/svg" width="109" height="109" viewBox="0 0 109 109"><g id="kvg:StrokePaths_068e3"><g id="kvg:068e3" kvg:element="棣"><g id="kvg:068e3-g1" kvg:element="木" kvg:position="left" kvg:radical="general"><path id="kvg:068e3-s1" kvg:type="㇐" d="M12.28 37.72c.35.24 2.39.41 3.31.31 3.94-.41 15.12-2.21 21.45-3.41.92-.17 2.15-.24 2.73.0"/><path id="kvg:068e3-s2" kvg:type="㇑" d="M27.36 13.5c.91.47 2.04 2 2.04 4.42.0.95-.12 74.25-.3 80.08"/><path id="kvg:068e3-s3" kvg:type="㇒" d="M28.94 39.28c-5.1 15.04-7.94 21.4-15.83 34.56"/><path id="kvg:068e3-s4" kvg:type="㇔/㇏" d="M31.97 48.4c2.37 1.59 6.28 6.76 8.28 9.85"/></g><g id="kvg:068e3-g2" kvg:element="隶" kvg:position="right"><g id="kvg:068e3-g3" kvg:element="⺕" kvg:variant="true" kvg:original="彑"><path id="kvg:068e3-s5" kvg:type="㇕" d="M50.7 24.66c1.05.34 2.53.82 4.13.58 9.92-1.49 17.42-1.86 27.44-3.35 2.95-.44 3.79 1.44 3.45 4.13-.9 7.04-1.72 10.94-2.92 23.01"/><path id="kvg:068e3-s6" kvg:type="㇐" d="M45.88 38.18c1.55.1 2.74.27 4.48.04 11.39-1.47 27.14-2.47 42.2-4.07 1.92-.2 3.45.16 4.31.33"/><path id="kvg:068e3-s7" kvg:type="㇐c" d="M50.71 52.21c.86.12 2.41.47 3.45.27 9.35-1.73 18.65-1.75 27.27-3.11 1.38-.22 2.24-.24 3.27-.14"/></g><g id="kvg:068e3-g4" kvg:element="氺" kvg:variant="true" kvg:original="水"><path id="kvg:068e3-s8" kvg:type="㇚" d="M65.98 11.83c.08.5 1.5 1.62 1.58 4.81.36 15.33-.23 68.58-.23 73.8.0 11.05-6.42 1.58-7.77.26"/><path id="kvg:068e3-s9" kvg:type="㇔" d="M49.81 61.56c2.92 1.39 7.53 5.72 8.26 7.88"/><path id="kvg:068e3-s10" kvg:type="㇀" d="M42.65 87.74c1.25 1.22 2.29 1.74 3.53.7C46.91 87.82 57.39 77.96 60.51 75"/><path id="kvg:068e3-s11" kvg:type="㇒" d="M86.44 56.89c.03.28.06.73-.05 1.13-.66 2.39-4.47 7.63-9.67 10.84"/><path id="kvg:068e3-s12" kvg:type="㇏" d="M69.31 66.75c2.79.94 18.16 18.57 21.82 21.76 1.24 1.08 2.3 1.54 3.55 1.85"/></g></g></g></g></svg>