<svg xmlns="http://www.w3.org/2000/svg" width="109" height="109" viewBox="0 0 109 109"><g id="kvg:StrokePaths_068ee"><g id="kvg:068ee" kvg:element="森"><g id="kvg:068ee-g1" kvg:element="木" kvg:position="top" kvg:radical="general"><path id="kvg:068ee-s1" kvg:type="㇐" d="M30.12 23.67c.87.24 4.4.62 6.7.33 11.37-1.4 20.02-2 36.05-3.21 2.32-.18 2.92-.24 4.37.0"/><path id="kvg:068ee-s2" kvg:type="㇑" d="M52.75 10c.75.75 1.25 1.75 1.25 3.16.0 4.34.06 22-.15 31.6-.03 1.48-.07 2.69-.1 3.5"/><path id="kvg:068ee-s3" kvg:type="㇒" d="M51.5 22.9c0 1.1-.27 1.78-.81 2.41C43 34.25 31.34 41.69 20.5 45.5"/><path id="kvg:068ee-s4" kvg:type="㇏" d="M56 24.4c5.25 4.35 22.25 15.35 29.03 17.6 1.77.59 3.07 1.25 4.72 1.5"/></g><g id="kvg:068ee-g2" kvg:element="林" kvg:position="bottom"><g id="kvg:068ee-g3" kvg:element="木"><path id="kvg:068ee-s5" kvg:type="㇐" d="M12.46 61.06c.77.22 3.1.42 5.14.25 6.65-.56 15.15-1.69 23.13-2.49 2.04-.21 3.85-.42 5.13-.2"/><path id="kvg:068ee-s6" kvg:type="㇑" d="M32.61 46.29c.86.86 1.42 1.96 1.42 3.16.0.79.06 31.46-.14 44.06-.03 2.17-.07 3.78-.1 4.6"/><path id="kvg:068ee-s7" kvg:type="㇒" d="M33.07 60.68c0 1.2-.44 2.02-1.04 3.12C28 71.12 19.75 83 13.5 88"/><path id="kvg:068ee-s8" kvg:type="㇔/㇏" d="M37.61 67.19c2.08 1.43 4.69 4.07 6.51 6.31"/></g><g id="kvg:068ee-g4" kvg:element="木"><path id="kvg:068ee-s9" kvg:type="㇐" d="M52.28 59.98c1.72.14 2.82.09 4.54-.08 8.93-.91 17.81-1.66 26.47-2.43 2.01-.18 3.77-.22 5.04.0"/><path id="kvg:068ee-s10" kvg:type="㇑" d="M68.12 42.75c1.07 1.06 1.42 2.62 1.42 3.91.0.8.06 35.28-.15 48.09-.03 2.01-.06 3.49-.1 4.25"/><path id="kvg:068ee-s11" kvg:type="㇒" d="M67.84 59.75c0 1-.19 1.62-.81 2.87-4.52 9.22-14.61 21.74-21.78 26.14"/><path id="kvg:068ee-s12" kvg:type="㇏" d="M69.77 58.93c7.05 10.52 18.34 24.02 24.07 28.17 1.63 1.18 2.55 2 3.92 2.4"/></g></g></g></g></svg>