<svg xmlns="http://www.w3.org/2000/svg" width="109" height="109" viewBox="0 0 109 109"><g id="kvg:StrokePaths_068f9"><g id="kvg:068f9" kvg:element="棹"><g id="kvg:068f9-g1" kvg:element="木" kvg:position="left" kvg:radical="general"><path id="kvg:068f9-s1" kvg:type="㇐" d="M11.78 37.72c.35.24 2.39.41 3.31.31 3.94-.41 17.62-1.71 23.95-2.91.92-.17 2.15-.24 2.73.0"/><path id="kvg:068f9-s2" kvg:type="㇑" d="M27.36 15c.91.47 2.04 2.5 2.04 3.92.0.95-.12 68.75-.3 74.58"/><path id="kvg:068f9-s3" kvg:type="㇒" d="M28.94 39.28c-5.1 15.04-7.94 21.4-15.83 34.56"/><path id="kvg:068f9-s4" kvg:type="㇔/㇏" d="M31.47 45.4c2.37 1.59 7.28 6.76 9.28 9.85"/></g><g id="kvg:068f9-g2" kvg:element="卓" kvg:position="right"><g id="kvg:068f9-g3" kvg:element="卜" kvg:original="ト" kvg:position="top"><path id="kvg:068f9-s5" kvg:type="㇑" d="M65.81 11.88c.76.33 1.86 2.46 2.01 3.12s.4 14.53.25 18.63"/><path id="kvg:068f9-s6" kvg:type="㇐" d="M68.25 22.5c2 0 13.67-1.36 19.5-2.27C89.83 19.9 90.75 20.08 92 20"/></g><g id="kvg:068f9-g4" kvg:element="早" kvg:position="bottom"><g id="kvg:068f9-g5" kvg:element="日" kvg:position="top"><path id="kvg:068f9-s7" kvg:type="㇑" d="M49.16 34.67c.69 1.17 1.6 1.54 1.82 3.11.6 4.28 2.2 17.63 2.23 21.22"/><path id="kvg:068f9-s8" kvg:type="㇕a" d="M51.36 36.11c3.89-.19 34.04-3.86 37.55-3.37 1.39.19 2.73 1.73 2.2 3.69-1 3.69-3.09 14.55-4.92 21.16"/><path id="kvg:068f9-s9" kvg:type="㇐a" d="M52.14 45.81c6.64-.43 30.55-2.72 36.5-2.72"/><path id="kvg:068f9-s10" kvg:type="㇐a" d="M53.88 56.36c9.56-.74 27.05-2.33 31.91-2.33"/></g><g id="kvg:068f9-g6" kvg:element="十" kvg:position="bottom"><path id="kvg:068f9-s11" kvg:type="㇐" d="M41.88 72.21c1.19.46 3.38.58 4.57.46 10.3-1.09 37.82-3.46 47.51-3.42 1.99.01 3.18.22 4.17.45"/><path id="kvg:068f9-s12" kvg:type="㇑" d="M68.73 58.75c.44.55 1.38 1.63 1.47 2.74.09 1.1-.06 28.62-.15 35.51"/></g></g></g></g></g></svg>