<svg xmlns="http://www.w3.org/2000/svg" width="109" height="109" viewBox="0 0 109 109"><g id="kvg:StrokePaths_068fa"><g id="kvg:068fa" kvg:element="棺"><g id="kvg:068fa-g1" kvg:element="木" kvg:position="left" kvg:radical="general"><path id="kvg:068fa-s1" kvg:type="㇐" d="M14.28 39.72c2.22.53 4.54.23 6.01.03 5.47-.73 15.03-2.8 20.61-3.91 1.16-.23 2.6-.46 3.87-.22"/><path id="kvg:068fa-s2" kvg:type="㇑" d="M31.86 16.75c1.26 1.26 1.54 2.88 1.54 4.67.0.63-.02 47.45-.02 67.08.0 4.6.0 7.71.0 8.38"/><path id="kvg:068fa-s3" kvg:type="㇒" d="M32.69 39.78c0 1.59-.95 4.46-1.53 6.03-4.41 11.92-8.3 17.77-15.05 29.03"/><path id="kvg:068fa-s4" kvg:type="㇔/㇏" d="M36.5 46.75c2.65 1.94 7.12 7.88 9.25 12"/></g><g id="kvg:068fa-g2" kvg:element="官" kvg:position="right" kvg:phon="官"><g id="kvg:068fa-g3" kvg:element="宀" kvg:position="top"><path id="kvg:068fa-s5" kvg:type="㇑a" d="M68.95 14.79c.95.95 1.35 1.96 1.35 3.46.0 3.1-.06 7.39-.06 10.22"/><g id="kvg:068fa-g4" kvg:element="冖"><path id="kvg:068fa-s6" kvg:type="㇔" d="M50.73 30c0 3.15-1.83 12.97-2.66 15.07"/><path id="kvg:068fa-s7" kvg:type="㇖b" d="M51.56 32.72c11.44-2.47 31.57-5.16 38.81-5.37 7.25-.22 4.88 3.41-.26 7.84"/></g></g><g id="kvg:068fa-g5" kvg:position="bottom"><g id="kvg:068fa-g6" kvg:element="口"><path id="kvg:068fa-s8" kvg:type="㇑" d="M57.27 43.84c.82.82 1.23 2.04 1.23 3.51.0.68-.06 28.05-.08 43.78.0 2.12.0 4.02.0 5.62"/><path id="kvg:068fa-s9" kvg:type="㇕b" d="M59.31 46.5c5.64-1.15 15.22-2.69 20.43-3.44 3.41-.5 4.95-.28 4.17 3.58-.72 3.56-1.55 6.18-2.57 11.13"/><path id="kvg:068fa-s10" kvg:type="㇐b" d="M59.44 61.76c3.66-.45 13.7-1.8 20.32-2.55 1.29-.15 2.46-.29 3.44-.42"/></g><path id="kvg:068fa-s11" kvg:type="㇕b" d="M59.67 75.17c5.43-.79 17.04-2.63 22.59-3.47 2.97-.45 4.6.38 3.94 3.82-.8 4.2-1.94 7.98-3.02 13.69"/><path id="kvg:068fa-s12" kvg:type="㇐b" d="M59.56 92.71c3.64-.49 13.71-1.58 21.43-2.3 1.55-.14 3.01-.27 4.3-.38"/></g></g></g></g></svg>