<svg xmlns="http://www.w3.org/2000/svg" width="109" height="109" viewBox="0 0 109 109"><g id="kvg:StrokePaths_06904" style="fill:none;stroke:#000000;stroke-width:3;stroke-linecap:round;stroke-linejoin:round;"><g id="kvg:06904" kvg:element="椄"><g id="kvg:06904-g1" kvg:element="木" kvg:position="left" kvg:radical="general"><path id="kvg:06904-s1" kvg:type="㇐" d="M11.78 38.72c.35.24 2.39.41 3.31.31 3.94-.41 17.62-1.71 23.95-2.91.92-.17 2.15-.24 2.73.0"/><path id="kvg:06904-s2" kvg:type="㇑" d="M26.86 14c.91.47 1.86 3.49 2.04 4.42s-.12 72.75-.3 78.58"/><path id="kvg:06904-s3" kvg:type="㇒" d="M28.94 41.28c-5.1 15.04-7.94 21.4-15.83 34.56"/><path id="kvg:06904-s4" kvg:type="㇔/㇏" d="M31.47 47.4c3.28 3.1 5.53 6.85 7.28 10.85"/></g><g id="kvg:06904-g2" kvg:element="妾" kvg:position="right"><g id="kvg:06904-g3" kvg:element="立" kvg:position="top"><g id="kvg:06904-g4" kvg:element="亠" kvg:position="top"><path id="kvg:06904-s5" kvg:type="㇑a" d="M64.97 12.25c.28.75.98 1.99.98 3.12s0 6.76.0 9.84"/><path id="kvg:06904-s6" kvg:type="㇐" d="M45.25 27c1.39.36 3.02.52 4.4.36 9.6-1.11 27.87-2.93 35.52-3.53 2.31-.18 3.7.17 4.86.35"/></g><g id="kvg:06904-g5" kvg:position="bottom"><path id="kvg:06904-s7" kvg:type="㇔" d="M54.31 33.28c3.8 3.98 5.53 8.05 5.87 10.67"/><path id="kvg:06904-s8" kvg:type="㇒" d="M80.93 28.32c.32 1.18.43 1.81.33 2.26-.66 3.06-6.81 12.26-8.47 14.6"/><path id="kvg:06904-s9" kvg:type="㇐" d="M43.19 48.47c1.39.25 3.02.42 4.39.25C59.5 47.25 78.5 45 90.3 44.67c2.31-.06 3.7.12 4.85.25"/></g></g><g id="kvg:06904-g6" kvg:element="女" kvg:position="bottom"><path id="kvg:06904-s10" kvg:type="㇛" d="M64.07 50.74c.37 1.07.25 2.48-.18 3.76-2.17 6.43-5.38 16.67-10.37 23.78-.73 1.04-.19 1.86.56 1.87C67 80.25 80 85.75 89.35 95.21"/><path id="kvg:06904-s11" kvg:type="㇒" d="M81.25 57.88c.1.95.17 3.26-.21 4.64C77.96 73.66 64.75 92 47.08 97.25"/><path id="kvg:06904-s12" kvg:type="㇐" d="M41.29 67.03c.76.28 4.15.35 4.91.28 12.05-1.06 31.05-3.31 46.91-3.56 1.26-.02 3.44.27 4.47.77"/></g></g></g></g></svg>