<svg xmlns="http://www.w3.org/2000/svg" width="109" height="109" viewBox="0 0 109 109"><g id="kvg:StrokePaths_0690d"><g id="kvg:0690d" kvg:element="植"><g id="kvg:0690d-g1" kvg:element="木" kvg:position="left" kvg:radical="general"><path id="kvg:0690d-s1" kvg:type="㇐" d="M12.53 36.47c1.85.53 3.66.31 5.36.16 7.23-.63 14.51-1.97 21.65-3.01.92-.13 2.59-.24 3.71.01"/><path id="kvg:0690d-s2" kvg:type="㇑" d="M28.86 17c1.13 1.13 1.79 2.97 1.79 3.92.0 2.77-.04 47.89-.05 65.45.0 2.9.0 5.04.0 6.12"/><path id="kvg:0690d-s3" kvg:type="㇒" d="M29.69 37.28c0 1.84-.52 3.82-.89 4.67-5.15 11.98-10.3 20.92-16.94 28.88"/><path id="kvg:0690d-s4" kvg:type="㇔/㇏" d="M33 43.88c2.51 1.73 6.63 6.27 8.75 9.62"/></g><g id="kvg:0690d-g2" kvg:element="直" kvg:position="right" kvg:phon="直"><g id="kvg:0690d-g3" kvg:element="十"><path id="kvg:0690d-s5" kvg:type="㇐" d="M52.16 29.45c2.21.3 4.16.27 5.84.11 8.54-.81 21-1.94 31-2.75 1.67-.13 3.37-.11 5.03.22"/><path id="kvg:0690d-s6" kvg:type="㇑a" d="M72.24 15.12c.94.94 1.38 2.46 1.31 3.37-.42 4.89-1.05 10.14-2.36 21.47"/></g><g id="kvg:0690d-g4" kvg:element="目"><path id="kvg:0690d-s7" kvg:type="㇑" d="M58.1 41.34c.97.97 1.36 2.38 1.36 3.54.0 1.02-.04 20.49-.05 31.24.0 1.43.0 2.7.0 3.76"/><path id="kvg:0690d-s8" kvg:type="㇕a" d="M60.47 42.84c2.68-.15 21.82-2.76 24.28-2.94 1.93-.14 3.54 1.92 3.54 3 0 2.2-.2 18.86-.24 31.35-.01 1.55-.01 3.04-.01 4.42"/><path id="kvg:0690d-s9" kvg:type="㇐a" d="M60.92 54.52c5.09-.2 22.02-1.84 26.18-1.84"/><path id="kvg:0690d-s10" kvg:type="㇐a" d="M60.62 66.43c6.79-.49 19.58-1.74 26.17-1.74"/><path id="kvg:0690d-s11" kvg:type="㇐a" d="M60.63 77.97c4.73-.44 22.78-2.02 26.19-2.02"/></g><path id="kvg:0690d-s12" kvg:type="㇗" d="M48.18 58.72c.69 1.14 1.03 1.6 1.03 3.88s-.33 18.77-.28 22.62c.03 2.34 1.16 3.33 3.24 3.17 13.96-1.02 24.58-1.64 40.84-2.13 1.89-.06 4.37-.14 6.24.37"/></g></g></g></svg>