<!DOCTYPE svg PUBLIC "-//W3C//DTD SVG 1.0//EN" "http://www.w3.org/TR/2001/REC-SVG-20010904/DTD/svg10.dtd" [
<!ATTLIST g
xmlns:kvg CDATA #FIXED "http://kanjivg.tagaini.net"
kvg:element CDATA #IMPLIED
kvg:variant CDATA #IMPLIED
kvg:partial CDATA #IMPLIED
kvg:original CDATA #IMPLIED
kvg:part CDATA #IMPLIED
kvg:number CDATA #IMPLIED
kvg:tradForm CDATA #IMPLIED
kvg:radicalForm CDATA #IMPLIED
kvg:position CDATA #IMPLIED
kvg:radical CDATA #IMPLIED
kvg:phon CDATA #IMPLIED >
<!ATTLIST path
xmlns:kvg CDATA #FIXED "http://kanjivg.tagaini.net"
kvg:type CDATA #IMPLIED >
]><svg xmlns="http://www.w3.org/2000/svg" width="109" height="109" viewBox="0 0 109 109"><g id="kvg:StrokePaths_0690b" style="fill:none;stroke:#000000;stroke-width:3;stroke-linecap:round;stroke-linejoin:round;"><g id="kvg:0690b" kvg:element="椋"><g id="kvg:0690b-g1" kvg:element="木" kvg:position="left" kvg:radical="general"><path id="kvg:0690b-s1" kvg:type="㇐" d="M12.53 38.22c1.37.96 4.81.74 6.35.55C25 38 32.17 37.02 37.51 36.17c1.28-.2 3.37-.42 4.76-.31"/><path id="kvg:0690b-s2" kvg:type="㇑" d="M29.11 14.25c1.19 1.19 1.54 2.75 1.54 5.17.0.8-.02 48.57-.02 68.08.0 3.8.0 6.52.0 7.62"/><path id="kvg:0690b-s3" kvg:type="㇒" d="M30.19 38.78c0 1.47-.94 4.24-1.61 5.82-4.71 11.06-9.21 19.02-16.22 27.73"/><path id="kvg:0690b-s4" kvg:type="㇔/㇏" d="M33.5 46c2.44 1.74 6.45 7.38 8.5 10.75"/></g><g id="kvg:0690b-g2" kvg:element="京" kvg:position="right"><g id="kvg:0690b-g3" kvg:element="亠" kvg:position="top"><path id="kvg:0690b-s5" kvg:type="㇑a" d="M68.37 11.67c1.11 1.11 1.3 2.33 1.3 4.23.0 1.98-.04 5.98-.04 8.73"/><path id="kvg:0690b-s6" kvg:type="㇐" d="M43.5 27.11c3.12.64 5.81.49 8.88.11 10.09-1.23 26.53-2.58 37.12-3.17 3.04-.17 6.38-.05 9.02.58"/></g><g id="kvg:0690b-g4" kvg:position="bottom"><g id="kvg:0690b-g5" kvg:element="口"><path id="kvg:0690b-s7" kvg:type="㇑" d="M50.79 38.2c1.01 1.01 1.53 1.91 1.77 3.15.82 4.28 1.48 7.06 2.22 12.03.24 1.62.51 3.32.81 5.06"/><path id="kvg:0690b-s8" kvg:type="㇕b" d="M53.1 40.2c8.26-1.46 25.29-3.66 30.9-4.26 2.33-.25 4.48 2.04 3.54 4.9C86.5 44.02 85.5 49 84.29 53.1"/><path id="kvg:0690b-s9" kvg:type="㇐b" d="M55.97 57c6.52-.84 16.16-1.67 25.53-2.47 1.83-.15 3.64-.31 5.42-.46"/></g><g id="kvg:0690b-g6" kvg:element="小"><path id="kvg:0690b-s10" kvg:type="㇚" d="M69.25 58.5c1.17 1.17 1.3 2.52 1.3 4.41.0 4.8-.03 23.77-.03 27.9.0 8.85-6.01.49-7.26-.73"/><path id="kvg:0690b-s11" kvg:type="㇒" d="M55.62 67.72c.1 1.1-.02 2.19-.54 3.19-2.2 4.22-7.28 10.16-14.7 16.44"/><path id="kvg:0690b-s12" kvg:type="㇔" d="M81.88 66.47c6 4.4 13.42 14.79 14.83 20.66"/></g></g></g></g></g><g id="kvg:StrokeNumbers_0690b" style="font-size:8;fill:#808080"><text transform="matrix(1 0 0 1 6.25 38.25)">1</text><text transform="matrix(1 0 0 1 20.25 14.25)">2</text><text transform="matrix(1 0 0 1 19.25 49.25)">3</text><text transform="matrix(1 0 0 1 36.29 46.60)">4</text><text transform="matrix(1 0 0 1 59.00 8.58)">5</text><text transform="matrix(1 0 0 1 48.00 21.50)">6</text><text transform="matrix(1 0 0 1 44.00 49.43)">7</text><text transform="matrix(1 0 0 1 58.00 35.35)">8</text><text transform="matrix(1 0 0 1 60.00 52.28)">9</text><text transform="matrix(1 0 0 1 57.00 66.20)">10</text><text transform="matrix(1 0 0 1 45.00 68.13)">11</text><text transform="matrix(1 0 0 1 85.00 64.05)">12</text></g></svg>