<svg xmlns="http://www.w3.org/2000/svg" width="109" height="109" viewBox="0 0 109 109"><g id="kvg:StrokePaths_0690c" style="fill:none;stroke:#000000;stroke-width:3;stroke-linecap:round;stroke-linejoin:round;"><g id="kvg:0690c" kvg:element="椌"><g id="kvg:0690c-g1" kvg:element="木" kvg:position="left" kvg:radical="general"><path id="kvg:0690c-s1" kvg:type="㇐" d="M11.78 38.22c.35.24 2.39.41 3.31.31 3.94-.41 14.12-1.21 20.45-2.41.92-.17 2.15-.24 2.73.0"/><path id="kvg:0690c-s2" kvg:type="㇑" d="M26.86 17c.91.47 2.04 2.25 2.04 4.42.0.95-.12 67.25-.3 73.08"/><path id="kvg:0690c-s3" kvg:type="㇒" d="M28.44 40.28c-5.1 15.04-7.94 22.4-15.83 35.56"/><path id="kvg:0690c-s4" kvg:type="㇔/㇏" d="M30.97 46.4c2.37 1.59 6.28 5.76 8.28 8.85"/></g><g id="kvg:0690c-g2" kvg:element="空" kvg:position="right"><g id="kvg:0690c-g3" kvg:element="穴" kvg:variant="true" kvg:position="top"><g id="kvg:0690c-g4" kvg:element="宀"><path id="kvg:0690c-s5" kvg:type="㇑a" d="M64.65 15.25c.51.37 1.24 1.32 1.23 2.39-.04 3.36-.04 8.86-.04 11.92"/><g id="kvg:0690c-g5" kvg:element="冖"><path id="kvg:0690c-s6" kvg:type="㇔" d="M46.51 29.48c0 3.34-2.31 12.54-3.36 14.77"/><path id="kvg:0690c-s7" kvg:type="㇖b" d="M47.11 32.13C53.25 31 83.85 28.28 88.47 28c7.67-.47 3.71 5.17.03 8.67"/></g></g><g id="kvg:0690c-g6" kvg:element="八" kvg:variant="true"><path id="kvg:0690c-s8" kvg:type="㇒" d="M58.52 39.75c.07.54.11 1.4-.15 2.19C56.13 48.72 53.06 53.92 45 61"/><path id="kvg:0690c-s9" kvg:type="㇟a/㇏" d="M73.01 35.22c.94 1.02 1.68 2.22 1.74 3.78.12 3.5.06 6.81.06 9.56.0 5.19 1.19 6.81 8.43 6.81 3.74.0 7.91-1.05 9.76-1.62"/></g></g><g id="kvg:0690c-g7" kvg:element="工" kvg:position="bottom"><path id="kvg:0690c-s10" kvg:type="㇐" d="M49.67 67.98c1.02.53 3.21.63 4.25.55 9.17-.77 18.31-2.04 29.86-2.84 1.57-.11 3 .11 4.29.55"/><path id="kvg:0690c-s11" kvg:type="㇑a" d="M66.58 68.95c.96 1.25.96 2 .96 3 0 7 .15 11.3.15 19.3"/><path id="kvg:0690c-s12" kvg:type="㇐" d="M39.75 92.55c.72.32 4.53.61 5.75.51 9.53-.8 32.98-2.55 47.44-3.28 1.96-.1 4.32.53 5.3 1.03"/></g></g></g></g></svg>