<svg xmlns="http://www.w3.org/2000/svg" width="109" height="109" viewBox="0 0 109 109"><g id="kvg:StrokePaths_0691c" style="fill:none;stroke:#000000;stroke-width:3;stroke-linecap:round;stroke-linejoin:round;"><g id="kvg:0691c" kvg:element="検"><g id="kvg:0691c-g1" kvg:element="木" kvg:position="left" kvg:radical="general"><path id="kvg:0691c-s1" kvg:type="㇐" d="M10.03 38.99c1.97.64 4.06.58 5.61.36 5.46-.79 14.29-2.36 21.17-3.76 1.45-.29 2.94-.46 3.95-.25"/><path id="kvg:0691c-s2" kvg:type="㇑" d="M28.27 10.5c.93.93 1.54 2.75 1.54 4.28.0.83-.04 54.55-.23 74.34-.03 3.52-.07 5.97-.1 6.88"/><path id="kvg:0691c-s3" kvg:type="㇒" d="M28.81 38.42c0 1.45-.48 3.01-.94 4.07-5.39 12.24-9.04 18.38-17.93 30.09"/><path id="kvg:0691c-s4" kvg:type="㇔/㇏" d="M32.62 45.62c2.19 1.84 5.78 7.82 7.63 11.39"/></g><g id="kvg:0691c-g2" kvg:element="㑒" kvg:original="僉" kvg:partial="true" kvg:position="right" kvg:phon="僉V"><g id="kvg:0691c-g3" kvg:element="人" kvg:position="top"><path id="kvg:0691c-s5" kvg:type="㇒" d="M64.87 9.75c.07.79.08 1.87-.38 2.94C61.75 19 53.25 34.25 40.96 43.5"/><path id="kvg:0691c-s6" kvg:type="㇏" d="M64.78 14.88c5.47 4.37 16.81 16.59 23.76 22.98 2.2 2.03 4.29 3.27 6.76 4.83"/></g><g id="kvg:0691c-g4" kvg:position="bottom"><g id="kvg:0691c-g5" kvg:element="一"><path id="kvg:0691c-s7" kvg:type="㇐" d="M50.78 43.24c1.97.39 3.82.25 5.38.04 4.77-.67 13.87-2.1 19.99-2.77 1.29-.14 3.11-.38 4.62-.17"/></g><g id="kvg:0691c-g6" kvg:element="口"><path id="kvg:0691c-s8" kvg:type="㇑" d="M46.68 55.84c.62.62.95 1.54 1.08 2.29 1.02 5.79 1.2 9.36 1.85 14.5.15 1.18.32 2.44.53 3.84"/><path id="kvg:0691c-s9" kvg:type="㇕b" d="M49.16 57.74c9.93-1.3 26.3-3.22 33.09-3.84 2.93-.27 4.97.72 4.06 3.87-1.13 3.85-2.2 7.44-3.53 11.68"/><path id="kvg:0691c-s10" kvg:type="㇐b" d="M51.08 73.75c5.54-.46 20.55-2.12 30.07-2.94 1.67-.14 3.17-.26 4.4-.34"/></g><g id="kvg:0691c-g7" kvg:element="人"><path id="kvg:0691c-s11" kvg:type="㇒" d="M63.79 45.5c.92.92 1.34 2.38 1.36 3.75.48 25.5-4.02 39.75-25.15 51"/><path id="kvg:0691c-s12" kvg:type="㇏" d="M64 73c3.83 4.52 20.32 19.27 24.55 22.58 1.43 1.12 3.27 1.6 4.7 1.92"/></g></g></g></g></g></svg>