<!DOCTYPE svg PUBLIC "-//W3C//DTD SVG 1.0//EN" "http://www.w3.org/TR/2001/REC-SVG-20010904/DTD/svg10.dtd" [
<!ATTLIST g
xmlns:kvg CDATA #FIXED "http://kanjivg.tagaini.net"
kvg:element CDATA #IMPLIED
kvg:variant CDATA #IMPLIED
kvg:partial CDATA #IMPLIED
kvg:original CDATA #IMPLIED
kvg:part CDATA #IMPLIED
kvg:number CDATA #IMPLIED
kvg:tradForm CDATA #IMPLIED
kvg:radicalForm CDATA #IMPLIED
kvg:position CDATA #IMPLIED
kvg:radical CDATA #IMPLIED
kvg:phon CDATA #IMPLIED >
<!ATTLIST path
xmlns:kvg CDATA #FIXED "http://kanjivg.tagaini.net"
kvg:type CDATA #IMPLIED >
]><svg xmlns="http://www.w3.org/2000/svg" width="109" height="109" viewBox="0 0 109 109"><g id="kvg:StrokePaths_06939" style="fill:none;stroke:#000000;stroke-width:3;stroke-linecap:round;stroke-linejoin:round;"><g id="kvg:06939" kvg:element="椹"><g id="kvg:06939-g1" kvg:element="木" kvg:position="left" kvg:radical="general"><path id="kvg:06939-s1" kvg:type="㇐" d="M13.28 38.72c.35.24 2.39.41 3.31.31 3.94-.41 15.12-1.21 21.45-2.41.92-.17 2.15-.24 2.73.0"/><path id="kvg:06939-s2" kvg:type="㇑" d="M27.36 15.5c.91.47 2.86 3.49 3.04 4.42s-.12 69.75-.3 75.58"/><path id="kvg:06939-s3" kvg:type="㇒" d="M29.94 40.28c-5.1 15.04-7.94 21.4-15.83 34.56"/><path id="kvg:06939-s4" kvg:type="㇔/㇏" d="M33.47 47.4c2.37 1.59 6.28 6.76 8.28 9.85"/></g><g id="kvg:06939-g2" kvg:element="甚" kvg:position="right"><g id="kvg:06939-g3" kvg:element="甘" kvg:position="top"><g id="kvg:06939-g4" kvg:element="廿" kvg:part="1"><g id="kvg:06939-g5" kvg:element="十"><path id="kvg:06939-s5" kvg:type="㇐" d="M42.9 29.71c1.33.42 3.76.56 5.09.49 9.76-.56 26.42-2.62 43.32-3.21 2.2-.08 3.54.25 4.64.47"/><path id="kvg:06939-s6" kvg:type="㇑" d="M54.93 15.39c.91.5 1.46 2.17 1.65 3.13.19.96.31 42.28.17 47.18"/></g><path id="kvg:06939-s7" kvg:type="㇑" d="M79.56 13.77c.94.51 1.51 2.24 1.7 3.23.19.98.39 41.6.26 46.5"/></g><path id="kvg:06939-s8" kvg:type="㇐" d="M57.28 41.32c2.92-.32 21.49-1.85 23.56-1.8"/><g id="kvg:06939-g6" kvg:element="廿" kvg:part="2"><path id="kvg:06939-s9" kvg:type="㇐" d="M57.32 53.38c4.47-.09 19.25-1.41 23.38-1.51"/></g></g><g id="kvg:06939-g7" kvg:element="匹" kvg:position="bottom"><g id="kvg:06939-g8" kvg:element="匚" kvg:part="1"><path id="kvg:06939-s10" kvg:type="㇐" d="M39 66.5c1.23.46 3.49.58 4.73.54 12.83-.43 37.47-3.11 50.01-3.56 2.05-.07 3.29.28 4.32.53"/></g><g id="kvg:06939-g9" kvg:element="儿"><g id="kvg:06939-g10" kvg:element="八" kvg:variant="true"><g id="kvg:06939-g11" kvg:element="丿" kvg:position="left"><path id="kvg:06939-s11" kvg:type="㇒" d="M63.29 68.14c.31.29.67 1.53.6 2.11-.59 4.65-2.79 10.79-7.96 15.96"/></g><g id="kvg:06939-g12" kvg:position="right"><path id="kvg:06939-s12" kvg:type="㇟" d="M75.12 65.93c.67.88 1.24 1.92 1.24 3.26.01 1.93-.15 3.6-.14 7-.09 4.42.74 5.64 7.77 5.76 4.96.11 9.19-.75 10.03-1.55"/></g></g></g><g id="kvg:06939-g13" kvg:element="匚" kvg:part="2"><path id="kvg:06939-s13" kvg:type="㇗" d="M48.55 69.11c.69.89 1.52 2.89 1.52 6.06.0 2.99-.06-.08-.06 8.37s1.15 10.08 23.07 10.08c13.47.0 18.89-1.47 21.48-2.49"/></g></g></g></g></g><g id="kvg:StrokeNumbers_06939" style="font-size:8;fill:#808080"><text transform="matrix(1 0 0 1 6.50 38.50)">1</text><text transform="matrix(1 0 0 1 19.50 15.50)">2</text><text transform="matrix(1 0 0 1 20.50 49.50)">3</text><text transform="matrix(1 0 0 1 36.54 47.50)">4</text><text transform="matrix(1 0 0 1 40.50 26.50)">5</text><text transform="matrix(1 0 0 1 46.50 13.50)">6</text><text transform="matrix(1 0 0 1 71.50 13.50)">7</text><text transform="matrix(1 0 0 1 61.75 37.50)">8</text><text transform="matrix(1 0 0 1 61.75 49.50)">9</text><text transform="matrix(1 0 0 1 42.50 63.50)">10</text><text transform="matrix(1 0 0 1 53.75 74.50)">11</text><text transform="matrix(1 0 0 1 67.50 74.50)">12</text><text transform="matrix(1 0 0 1 38.50 76.73)">13</text></g></svg>