<svg xmlns="http://www.w3.org/2000/svg" width="109" height="109" viewBox="0 0 109 109"><g id="kvg:StrokePaths_06936"><g id="kvg:06936" kvg:element="椶"><g id="kvg:06936-g1" kvg:element="木" kvg:position="left" kvg:radical="general"><path id="kvg:06936-s1" kvg:type="㇐" d="M11.78 38.22c.35.24 2.39.41 3.31.31 3.94-.41 17.12-1.71 23.45-2.91.92-.17 2.15-.24 2.73.0"/><path id="kvg:06936-s2" kvg:type="㇑" d="M27.36 13.5c.91.47 2.04 2.25 2.04 4.42.0.95-.12 71.75-.3 77.58"/><path id="kvg:06936-s3" kvg:type="㇒" d="M28.94 39.28c-5.1 15.04-7.94 21.4-15.83 34.56"/><path id="kvg:06936-s4" kvg:type="㇔/㇏" d="M32.47 46.4c2.37 1.59 6.28 6.76 8.28 9.85"/></g><g id="kvg:06936-g2" kvg:position="right"><g id="kvg:06936-g3" kvg:element="兇" kvg:position="top"><g id="kvg:06936-g4" kvg:element="凶" kvg:position="top"><g id="kvg:06936-g5" kvg:element="乂"><g id="kvg:06936-g6" kvg:element="丿"><path id="kvg:06936-s5" kvg:type="㇒" d="M74.16 13.68c.33.55.25 1.53-.34 2.46C68.25 25 62.5 30.75 53.66 36.18"/></g><path id="kvg:06936-s6" kvg:type="㇔/㇏" d="M56.67 20.12c6.96 2.03 16.96 8.62 20.59 13.44"/></g><g id="kvg:06936-g7" kvg:element="凵" kvg:position="kamae"><path id="kvg:06936-s7" kvg:type="㇄a" d="M47.26 16.76c.42.23 1.3 1.72 1.38 2.17.61 3.35-.47 21.18-.51 22.27-.04 1.08.91 1.01 1.73.97 7.58-.42 29.52-2.64 33.85-2.87"/><path id="kvg:06936-s8" kvg:type="㇑" d="M84.25 13.8c.44.23 1.13 1.73 1.08 2.2-.23 2.15-.32 15.63-1.55 25.9"/></g></g><g id="kvg:06936-g8" kvg:element="儿" kvg:position="bottom"><g id="kvg:06936-g9" kvg:element="八" kvg:variant="true"><g id="kvg:06936-g10" kvg:element="丿" kvg:position="left"><path id="kvg:06936-s9" kvg:type="㇒" d="M54.79 47.44c.04.38.19 1.03-.08 1.53C52.5 53 47.75 59.25 40.17 63.67"/></g><g id="kvg:06936-g11" kvg:position="right"><path id="kvg:06936-s10" kvg:type="㇟" d="M71.84 40.56c.13 4.97-.02 6.63-.02 10.01.0 7.9 5.68 7 11.27 7 5.9.0 9.78-1.02 10.61-1.59 1.75-1.22 1.28-1.82 1.43-3.95"/></g></g></g></g><g id="kvg:06936-g12" kvg:element="夂" kvg:position="bottom"><path id="kvg:06936-s11" kvg:type="㇒" d="M60.76 55c.05.59.11 1.51-.1 2.35-1.25 4.96-8.38 15.85-18.16 22.52"/><path id="kvg:06936-s12" kvg:type="㇇" d="M58.62 66.77c.29.03 1.88.34 2.7.17 5.68-1.19 11.71-2.88 15.62-3.63 2.68-.51 2.95 1.58 2.26 2.98C75.44 73.91 61.25 91.5 42.25 98"/><path id="kvg:06936-s13" kvg:type="㇏" d="M53.56 70.53c4.65 4.23 25.72 20.32 31.99 24.19 1.87 1.15 3.38 1.71 5.2 2.06"/></g></g></g></g></svg>