<svg xmlns="http://www.w3.org/2000/svg" width="109" height="109" viewBox="0 0 109 109"><g id="kvg:StrokePaths_06955"><g id="kvg:06955" kvg:element="楕"><g id="kvg:06955-g1" kvg:element="木" kvg:position="left" kvg:radical="general"><path id="kvg:06955-s1" kvg:type="㇐" d="M13.28 39.22c1.9.28 3.81.39 5.73.32 5.5-.53 15.81-1.8 21.39-2.81 1.02-.23 2.06-.27 3.12-.12"/><path id="kvg:06955-s2" kvg:type="㇑" d="M30.61 15.5c.94.94 1.29 2.62 1.29 3.92.0.76-.01 44.42-.02 65.2.0 5.17.0 8.93.0 10.25"/><path id="kvg:06955-s3" kvg:type="㇒" d="M31.44 39.78c0 1.72-.46 3.89-.92 5.22C26.5 56.5 19 67.38 11.25 77.25"/><path id="kvg:06955-s4" kvg:type="㇔/㇏" d="M35.47 50.15c3.28 2.23 6.4 5.85 8.41 9.39"/></g><g id="kvg:06955-g2" kvg:position="right"><g id="kvg:06955-g3" kvg:element="左" kvg:position="top"><g id="kvg:06955-g4" kvg:position="kamae"><path id="kvg:06955-s5" kvg:type="㇐" d="M45.48 24.28c2.65.41 5.29.41 7.93.0 10-.99 20.17-2.76 32.59-3.62 2.25-.22 4.51-.18 6.77.13"/><path id="kvg:06955-s6" kvg:type="㇒" d="M67.33 11.75c.15.76.01 1.88-.27 2.73-4.77 14.56-12.4 26.24-23.94 34.36"/></g><g id="kvg:06955-g5" kvg:element="工"><path id="kvg:06955-s7" kvg:type="㇐" d="M62.14 32.73c1.93.12 3.84.04 5.75-.22 3.98-.46 10.44-1.22 15.12-1.83 1.51-.29 3.03-.27 4.56.07"/><path id="kvg:06955-s8" kvg:type="㇑a" d="M71.35 33.18c.86.86 1.15 1.82 1.15 2.81.0 2.76.03 4.01.03 6.9"/><path id="kvg:06955-s9" kvg:type="㇐" d="M51.83 45.46c2.52.43 5.04.39 7.55-.13 9.58-1.21 19.94-2.52 29.49-2.73 2.44-.16 4.86.03 7.26.57"/></g></g><g id="kvg:06955-g6" kvg:element="月" kvg:position="bottom"><path id="kvg:06955-s10" kvg:type="㇑" d="M56.03 54.08c.82.82 1.15 1.92 1.15 2.97.0.67-.06 34.08-.06 39.24"/><path id="kvg:06955-s11" kvg:type="㇆a" d="M58.08 55.21C67.62 54 76.38 53 81.94 52.32c3.89-.48 4.69.96 4.69 4.69.0 7.37.06 30.12.06 34.81.0 11.44-4.7 4.69-7.27 2.14"/><path id="kvg:06955-s12" kvg:type="㇐a" d="M58.08 66.99c10.04-1.11 17.79-2.11 27.85-2.62"/><path id="kvg:06955-s13" kvg:type="㇐a" d="M58.16 77.61c9.47-.98 15.84-1.36 27.89-2.28"/></g></g></g></g></svg>