<svg xmlns="http://www.w3.org/2000/svg" width="109" height="109" viewBox="0 0 109 109"><g id="kvg:StrokePaths_06954"><g id="kvg:06954" kvg:element="楔"><g id="kvg:06954-g1" kvg:element="木" kvg:position="left" kvg:radical="general"><path id="kvg:06954-s1" kvg:type="㇐" d="M12.28 38.72c.35.24 2.39.41 3.31.31 3.94-.41 15.12-1.71 21.45-2.91.92-.17 2.15-.24 2.73.0"/><path id="kvg:06954-s2" kvg:type="㇑" d="M27.36 15.5c.91.47 2.04 2.5 2.04 4.42.0.95-.12 69.25-.3 75.08"/><path id="kvg:06954-s3" kvg:type="㇒" d="M28.94 40.28C23.2 55.32 20 61.68 11.11 74.84"/><path id="kvg:06954-s4" kvg:type="㇔/㇏" d="M31.97 46.65c2.09 1.63 5.52 6.94 7.28 10.1"/></g><g id="kvg:06954-g2" kvg:element="契" kvg:position="right"><g id="kvg:06954-g3" kvg:position="top"><g id="kvg:06954-g4" kvg:element="龶" kvg:position="left"><path id="kvg:06954-s5" kvg:type="㇐" d="M42.75 23.13c1 .37 2.12.15 3.18.0 4.56-.63 11.65-.87 15.37-1.55 1.06-.19 1.34-.22 2.01.0"/><path id="kvg:06954-s6" kvg:type="㇐" d="M44.12 34.22c1.07.0 1.11.1 2.18.0 6.95-.67 11.93-2.37 15.65-3.05 1.06-.19 1.34-.22 2.01.0"/><path id="kvg:06954-s7" kvg:type="㇐" d="M43 46.34c1.01.94 1.62 1.37 3.53.62 5.21-2.03 11.76-4.37 19.32-7.03"/><path id="kvg:06954-s8" kvg:type="㇑" d="M50.91 13.25c.78.45 1.75 2.02 1.9 2.92.16.9 2.94 29.33 4.26 40.38"/></g><g id="kvg:06954-g5" kvg:element="刀" kvg:position="right"><path id="kvg:06954-s9" kvg:type="㇆" d="M69.89 20.44c.84.34 1.9.3 2.64.19 6.02-.95 16.13-3.31 19.46-3.66 2.17-.23 2.87.69 3.01 2.29.49 5.5-3.13 24.72-7.17 31.34C85.75 54 84 52.25 82.05 50.24"/><path id="kvg:06954-s10" kvg:type="㇒" d="M80.26 22.32c.03.48.04 1.25-.06 1.95C79.12 31.11 76 43.5 67.74 50.13"/></g></g><g id="kvg:06954-g6" kvg:element="大" kvg:position="bottom"><path id="kvg:06954-s11" kvg:type="㇐" d="M38.15 69.43c2.38.57 5.05.3 6.62.16 27.02-2.44 22.81-2.27 47.54-3.61 1.97-.11 3.95.03 5.7.38"/><path id="kvg:06954-s12" kvg:type="㇒" d="M66.16 56.9c.44.54.85 1.18.65 2.33C63.25 79.5 54.25 90.25 38.66 96.25"/><path id="kvg:06954-s13" kvg:type="㇏" d="M65.75 67.5c5.88 6.59 19.6 21.22 25.47 25.64 2 1.5 2.69 1.72 3.6 1.87"/></g></g></g></g></svg>