<svg xmlns="http://www.w3.org/2000/svg" width="109" height="109" viewBox="0 0 109 109"><g id="kvg:StrokePaths_0695d" style="fill:none;stroke:#000000;stroke-width:3;stroke-linecap:round;stroke-linejoin:round;"><g id="kvg:0695d" kvg:element="楝"><g id="kvg:0695d-g1" kvg:element="木" kvg:position="left" kvg:radical="general"><path id="kvg:0695d-s1" kvg:type="㇐" d="M11.28 37.77c.36.29 2.52.49 3.49.37 4.16-.48 15.94-1.43 22.62-2.87.97-.21 2.27-.29 2.88.0"/><path id="kvg:0695d-s2" kvg:type="㇑" d="M26.86 17c.91.47 2.54 2 2.54 4.42.0.95-.12 67.25-.3 73.08"/><path id="kvg:0695d-s3" kvg:type="㇒" d="M28.94 38.78c-5.98 15.91-9.19 24.72-18.58 36.56"/><path id="kvg:0695d-s4" kvg:type="㇔/㇏" d="M31.47 47.9c2.37 1.59 6.28 6.76 8.28 9.85"/></g><g id="kvg:0695d-g2" kvg:element="柬" kvg:position="right"><g id="kvg:0695d-g3" kvg:element="束" kvg:part="1"><g id="kvg:0695d-g4" kvg:element="木" kvg:part="1"><path id="kvg:0695d-s5" kvg:type="㇐" d="M46.64 26.04c1.11.71 2.98.6 4.9.53 8.96-.32 19.96-1.82 29.67-2.51 2.1-.15 4.04-.07 5.89.55"/></g><g id="kvg:0695d-g5" kvg:element="口" kvg:part="1"><path id="kvg:0695d-s6" kvg:type="㇑" d="M46.72 39.82c.26.41.53.75.65 1.27.91 4.08 2.97 14.33 3.6 21.66"/><path id="kvg:0695d-s7" kvg:type="㇕" d="M47.7 41.64c9.05-1.14 36.37-3.27 39.45-3.65 1.92-.24 2.92 1.36 2.62 3.64-.87 6.62-2.84 15.37-3.92 19.86"/></g></g><path id="kvg:0695d-s8" kvg:type="㇔" d="M55.06 47.33c1.68 1.66 4.35 6.81 4.77 9.38"/><path id="kvg:0695d-s9" kvg:type="㇒" d="M79.11 46.14c.01.22.03.57-.03.88-.33 1.86-2.2 5.94-4.76 8.44"/><g id="kvg:0695d-g6" kvg:element="束" kvg:part="2"><g id="kvg:0695d-g7" kvg:element="口" kvg:part="2"><path id="kvg:0695d-s10" kvg:type="㇐" d="M50.76 61.93c8.6-.92 27.19-1.69 35.23-2.14"/></g><g id="kvg:0695d-g8" kvg:element="木" kvg:part="2"><path id="kvg:0695d-s11" kvg:type="㇑" d="M65.15 13.25c.87.5 1.39 2.25 1.56 3.25s0 74.75-.17 81"/><path id="kvg:0695d-s12" kvg:type="㇒" d="M66.54 60.75c-4.94 9.9-17.77 23.9-28.04 29.5"/><path id="kvg:0695d-s13" kvg:type="㇏" d="M66.87 61c3.85 3.51 20.4 20.55 24.58 24 1.42 1.17 2.63 1.67 4.05 2"/></g></g></g></g></g></svg>