<svg xmlns="http://www.w3.org/2000/svg" width="109" height="109" viewBox="0 0 109 109"><g id="kvg:StrokePaths_0695a" style="fill:none;stroke:#000000;stroke-width:3;stroke-linecap:round;stroke-linejoin:round;"><g id="kvg:0695a" kvg:element="楚"><g id="kvg:0695a-g1" kvg:element="林" kvg:position="top"><g id="kvg:0695a-g2" kvg:element="木" kvg:variant="true" kvg:position="left" kvg:radical="tradit"><path id="kvg:0695a-s1" kvg:type="㇐" d="M16.5 25.75c2.22.18 4.43.12 6.63-.18 6.63-.76 14.19-1.86 21.12-2.32 2-.13 3.5-.25 4.75.0"/><path id="kvg:0695a-s2" kvg:type="㇑" d="M34.75 13.25c.94.94 1.25 2.38 1.25 3.5.0 1.03.0 27.38.0 33.5"/><path id="kvg:0695a-s3" kvg:type="㇒" d="M35.25 25.75c0 1.12-1.18 3.34-1.96 4.49C28.84 36.8 20.56 45.31 14.5 48.5"/><path id="kvg:0695a-s4" kvg:type="㇔/㇏" d="M39.75 31.5c2.64 1.41 5.94 4.03 8.25 6.25"/></g><g id="kvg:0695a-g3" kvg:element="木" kvg:position="right" kvg:radical="tradit"><path id="kvg:0695a-s5" kvg:type="㇐" d="M56 21.75c2.12.29 4.25.33 6.38.13 5.37-.35 11.83-1.19 20.61-2.16 2-.34 4-.33 6.02.03"/><path id="kvg:0695a-s6" kvg:type="㇑" d="M71.25 9.25c.94.94 1.25 2.38 1.25 3.5.0 1.03.0 26.75-.25 33"/><path id="kvg:0695a-s7" kvg:type="㇒" d="M71.5 21.5c0 1.38-.79 3-1.59 4.21-4.66 7.04-11.2 13.94-18.16 18.79"/><path id="kvg:0695a-s8" kvg:type="㇏" d="M73.25 22.25c4.01 4.42 9.26 9.74 13.84 13.26C89.28 37.5 91.75 39 94.5 40"/></g></g><g id="kvg:0695a-g4" kvg:element="疋" kvg:variant="true" kvg:position="bottom" kvg:radical="nelson"><path id="kvg:0695a-s9" kvg:type="㇖" d="M24.58 55.9c3 .66 5.96.64 8.92.1 14.5-2.62 31.25-4.38 46.54-4.75 8.55-.21 4.97 3.08-.62 8"/><g id="kvg:0695a-g5" kvg:element="卜" kvg:original="ト"><path id="kvg:0695a-s10" kvg:type="㇑" d="M53.25 55.58c1.02 1.02 1.25 2.17 1.25 3.41.0 6.51.0 16.76.0 25.84"/><path id="kvg:0695a-s11" kvg:type="㇐" d="M54.76 70.06c5.83-.61 10.87-.93 19.25-1.87 1.77-.2 3.75-.2 5.53-.07"/></g><g id="kvg:0695a-g6" kvg:element="人"><path id="kvg:0695a-s12" kvg:type="㇒" d="M35.43 63.54c0 .96-.01 1.94-.36 2.96-3.45 10.12-8.33 17.24-18.74 27.24"/><path id="kvg:0695a-s13" kvg:type="㇏" d="M32.21 75.29c6.49 2.5 25.32 12.85 40.82 18.12 6.04 1.96 12.19 3.5 18.44 4.6"/></g></g></g></g></svg>