<svg xmlns="http://www.w3.org/2000/svg" width="109" height="109" viewBox="0 0 109 109"><g id="kvg:StrokePaths_0695c"><g id="kvg:0695c" kvg:element="楜"><g id="kvg:0695c-g1" kvg:element="木" kvg:position="left" kvg:radical="general"><path id="kvg:0695c-s1" kvg:type="㇐" d="M10.78 38.22c.35.24 2.39.41 3.31.31 3.94-.41 15.62-1.21 21.95-2.41.92-.17 2.15-.24 2.73.0"/><path id="kvg:0695c-s2" kvg:type="㇑" d="M25.36 16.5c.91.47 2.04 2.75 2.04 4.42.0.95-.12 66.75-.3 72.58"/><path id="kvg:0695c-s3" kvg:type="㇒" d="M26.94 40.28c-5.1 15.04-7.94 21.4-15.83 34.56"/><path id="kvg:0695c-s4" kvg:type="㇔/㇏" d="M30.47 47.65c2.23 1.46 5.9 5.28 7.78 8.1"/></g><g id="kvg:0695c-g2" kvg:element="胡" kvg:position="right"><g id="kvg:0695c-g3" kvg:element="古" kvg:position="left"><g id="kvg:0695c-g4" kvg:element="十"><path id="kvg:0695c-s5" kvg:type="㇐" d="M40 42.11c.33.18 2.18.44 4.8.44 4.87.0 15.4-2.33 20.5-2.33.87.0 3.17.04 3.71.22"/><path id="kvg:0695c-s6" kvg:type="㇑a" d="M52.98 18.88c.67.41 1.2 1.83 1.2 2.68.0 14.43.0 35.22-.13 40.38"/></g><g id="kvg:0695c-g5" kvg:element="口"><path id="kvg:0695c-s7" kvg:type="㇑" d="M43.65 62.79c.21.63.45 1.06.52 1.54.51 3.47 2.16 17.54 2.89 24.12"/><path id="kvg:0695c-s8" kvg:type="㇕b" d="M44.7 63.8c5.79-.7 15.12-1.97 19.07-2.08 1.63-.05 2.51.98 2.37 2.04-.54 4-2.59 14.03-3.47 19.34"/><path id="kvg:0695c-s9" kvg:type="㇐b" d="M46.87 85.17c4.79-.29 11.77-1.17 17.53-1.55"/></g></g><g id="kvg:0695c-g6" kvg:element="月" kvg:position="right"><path id="kvg:0695c-s10" kvg:type="㇓" d="M75.9 20.75c.29.98.48 1.95.58 2.91.09.97-.1 27.59-.1 31.82.0 10.36-2.85 27.01-9.62 36.02"/><path id="kvg:0695c-s11" kvg:type="㇆a" d="M77.22 22.22c1.49-.19 13.61-2.03 14.75-2.01 1.78.03 2.45 1.1 2.45 2.52.0 3.76-.82 46.13-.82 65.1.0 10.17-6.09 1.67-8.09-.08"/><path id="kvg:0695c-s12" kvg:type="㇐a" d="M76.96 42.69c6.29-.69 12.62-1.16 17.16-1.4"/><path id="kvg:0695c-s13" kvg:type="㇐a" d="M76.64 60.31c4.03-.29 11.86-1.02 16.52-1"/></g></g></g></g></svg>