<svg xmlns="http://www.w3.org/2000/svg" width="109" height="109" viewBox="0 0 109 109"><g id="kvg:StrokePaths_0696f" style="fill:none;stroke:#000000;stroke-width:3;stroke-linecap:round;stroke-linejoin:round;"><g id="kvg:0696f" kvg:element="楯"><g id="kvg:0696f-g1" kvg:element="木" kvg:position="left" kvg:radical="general"><path id="kvg:0696f-s1" kvg:type="㇐" d="M12.53 40.47c2.32.39 4.66.48 6.98.11 6.62-1.07 11.12-1.7 17.26-2.46 1.52-.19 2.97-.6 4.5-.49"/><path id="kvg:0696f-s2" kvg:type="㇑" d="M29.61 19.75c1.13 1.13 1.29 2.25 1.29 4.17.0.75-.01 41.24-.02 61.45.0 5.45.0 9.42.0 10.75"/><path id="kvg:0696f-s3" kvg:type="㇒" d="M30.69 40.78c-.44 2.59-1.38 5.38-2.03 7.23-3.89 11.13-7.14 16.71-13.8 28.08"/><path id="kvg:0696f-s4" kvg:type="㇔/㇏" d="M34.97 49.15c2.28 1.98 4.65 6.23 5.66 9.39"/></g><g id="kvg:0696f-g2" kvg:element="盾" kvg:position="right"><g id="kvg:0696f-g3" kvg:element="厂" kvg:variant="true" kvg:position="kamae"><path id="kvg:0696f-s5" kvg:type="㇒/㇐" d="M83.77 14.75c-.38.98-1.05 1.58-1.93 2.03C73.62 21 66.81 24.13 52.75 28.25"/><path id="kvg:0696f-s6" kvg:type="㇒" d="M49.03 28c1.05 1.04 1.19 2.12 1.19 3.99.0 20.63 1.03 44.26-12.02 60.73"/></g><g id="kvg:0696f-g4" kvg:element="十"><path id="kvg:0696f-s7" kvg:type="㇐" d="M53.31 39.83c2.89.24 5.75.09 8.57-.44 10.07-1.66 18.88-2.56 28.13-3.68 2.43-.29 4.84-.2 7.24.27"/><path id="kvg:0696f-s8" kvg:type="㇑" d="M70.25 27.38c.94.94 1.16 2.12 1.16 3.55.0.96-.04 13.44-.04 19.57"/></g><g id="kvg:0696f-g5" kvg:element="目"><path id="kvg:0696f-s9" kvg:type="㇑" d="M58.2 52.05c.68.68.93 2.03.93 3.39.0 1.02.0 21.42.0 33.43.0 3.92.0 6.96.0 8.12"/><path id="kvg:0696f-s10" kvg:type="㇕a" d="M59.98 53.16c2.41-.15 18.01-1.79 23.16-2.29 3.9-.38 4.88 1.38 4.89 5.13.01 5.33-.01 22.77-.02 33.38.0 4.28-.01 7.45-.01 8.25"/><path id="kvg:0696f-s11" kvg:type="㇐a" d="M60.13 65.97c6.53-.66 22.17-1.66 26.51-1.66"/><path id="kvg:0696f-s12" kvg:type="㇐a" d="M60.42 79.66c7.83-.42 18.79-1.26 26.39-1.54"/><path id="kvg:0696f-s13" kvg:type="㇐a" d="M60.22 93.9c6.33-.41 19.73-1.02 26.69-1.02"/></g></g></g></g></svg>