<svg xmlns="http://www.w3.org/2000/svg" width="109" height="109" viewBox="0 0 109 109"><g id="kvg:StrokePaths_06978"><g id="kvg:06978" kvg:element="楸"><g id="kvg:06978-g1" kvg:element="木" kvg:position="left" kvg:radical="general"><path id="kvg:06978-s1" kvg:type="㇐" d="M10.28 38.22c.35.24 2.39.41 3.31.31 3.94-.41 15.12-1.21 21.45-2.41.92-.17 2.15-.24 2.73.0"/><path id="kvg:06978-s2" kvg:type="㇑" d="M25.36 15.5c.91.47 2.04 2.75 2.04 4.42.0.95-.12 69.75-.3 75.58"/><path id="kvg:06978-s3" kvg:type="㇒" d="M26.94 41.28c-5.1 15.04-7.94 21.4-15.83 34.56"/><path id="kvg:06978-s4" kvg:type="㇔/㇏" d="M30.22 49.4c2.16 1.51 5.71 6.42 7.53 9.35"/></g><g id="kvg:06978-g2" kvg:element="秋" kvg:position="right"><g id="kvg:06978-g3" kvg:element="禾" kvg:position="left"><g id="kvg:06978-g4" kvg:element="丿" kvg:position="top"><path id="kvg:06978-s5" kvg:type="㇒" d="M60.4 14.25c.05.33.12.85-.11 1.32-1.37 2.79-9.22 8.9-19.95 12.65"/></g><g id="kvg:06978-g5" kvg:element="木" kvg:position="bottom"><path id="kvg:06978-s6" kvg:type="㇐" d="M36.24 43.26c.56.17 2.04.44 3.52.5 4.07.17 9.99-1.27 19.53-2.85 1.46-.24 1.85-.17 2.78.0"/><path id="kvg:06978-s7" kvg:type="㇑" d="M51.58 25.46c.26.43 1.15 1.92 1.2 2.77.05.85.0 61.44-.05 66.77"/><path id="kvg:06978-s8" kvg:type="㇒" d="M52.55 43.81c-3.47 11.36-9.27 25.37-17.14 34.67"/><path id="kvg:06978-s9" kvg:type="㇏" d="M54.93 52.58c3.47 2.47 6.42 7.42 8.29 10.6"/></g></g><g id="kvg:06978-g6" kvg:element="火" kvg:position="right"><path id="kvg:06978-s10" kvg:type="㇔" d="M65.65 36.39c1.95 3.31 4.78 12.69 5.31 16"/><path id="kvg:06978-s11" kvg:type="㇒" d="M93.73 33.3c.6.85.27 3.12-.28 4.45-.55 1.32-6.52 11.13-9.24 14.22"/><path id="kvg:06978-s12" kvg:type="㇒" d="M77.99 14.8c.66.79 1 2.93 1 4.25.0 37.7-.99 62.7-16.5 76.84"/><path id="kvg:06978-s13" kvg:type="㇏" d="M78.47 51.9c5 17.4 11.99 32.18 16.25 38.95 1.24 1.97 1.44 1.87 2.41 2.4"/></g></g></g></g></svg>