<svg xmlns="http://www.w3.org/2000/svg" width="109" height="109" viewBox="0 0 109 109"><g id="kvg:StrokePaths_06973"><g id="kvg:06973" kvg:element="楳"><g id="kvg:06973-g1" kvg:element="木" kvg:position="left" kvg:radical="general"><path id="kvg:06973-s1" kvg:type="㇐" d="M12.28 38.72c.35.24 2.39.41 3.31.31 3.94-.41 17.12-1.71 23.45-2.91.92-.17 1.15-.24 1.73.0"/><path id="kvg:06973-s2" kvg:type="㇑" d="M26.86 14.5c.91.47 2.54 2.25 2.54 4.42.0.95-.12 69.75-.3 75.58"/><path id="kvg:06973-s3" kvg:type="㇒" d="M28.94 40.28C23.44 55 20.38 61.21 11.86 74.09"/><path id="kvg:06973-s4" kvg:type="㇔/㇏" d="M31.47 46.4c2.61 1.48 6.21 6.53 8.41 9.39"/></g><g id="kvg:06973-g2" kvg:element="某" kvg:position="right"><g id="kvg:06973-g3" kvg:element="甘" kvg:position="top"><g id="kvg:06973-g4" kvg:element="廿" kvg:part="1"><g id="kvg:06973-g5" kvg:element="十"><path id="kvg:06973-s5" kvg:type="㇐" d="M42.26 28.82c1.01.36 2.87.46 3.88.36 9.37-.93 30.84-3.74 42.79-4.75 1.68-.14 3.54.17 4.38.35"/><path id="kvg:06973-s6" kvg:type="㇑" d="M53.91 17.09c.72.33 1.25 1.49 1.3 2.17.29 3.98 1.04 25.48 1.36 33.03"/></g><path id="kvg:06973-s7" kvg:type="㇑" d="M78.39 14.26c.73.33 1.16 1.5 1.31 2.17.14.67-.5 28.91-.65 33.09"/></g><path id="kvg:06973-s8" kvg:type="㇐" d="M56.16 38.77c2.83-.33 20.81-2.01 22.81-2.01"/><g id="kvg:06973-g6" kvg:element="廿" kvg:part="2"><path id="kvg:06973-s9" kvg:type="㇐" d="M56.66 50.65c4.33-.17 18.15-1.94 22.15-2.1"/></g></g><g id="kvg:06973-g7" kvg:element="木" kvg:position="bottom"><path id="kvg:06973-s10" kvg:type="㇐" d="M43.26 65.94c1.61.58 3.45.76 5.3.58 9.44-.94 26.35-2.73 40.62-3.84 1.84-.14 2.99.1 4.84.51"/><path id="kvg:06973-s11" kvg:type="㇑" d="M66.68 54.9c.89 1.14 1.27 2.72 1.27 3.77.0 10.63-.23 24.98-.23 37.78"/><path id="kvg:06973-s12" kvg:type="㇒" d="M66.93 65.61C60 76 51.25 84.75 37.84 90.82"/><path id="kvg:06973-s13" kvg:type="㇏" d="M67.56 65.72c3.58 2.82 20.43 16.97 24.32 19.75 1.32.94 2.45 1.34 3.77 1.61"/></g></g></g></g></svg>