<svg xmlns="http://www.w3.org/2000/svg" width="109" height="109" viewBox="0 0 109 109"><g id="kvg:StrokePaths_0697e" style="fill:none;stroke:#000000;stroke-width:3;stroke-linecap:round;stroke-linejoin:round;"><g id="kvg:0697e" kvg:element="楾"><g id="kvg:0697e-g1" kvg:element="木" kvg:position="left" kvg:radical="general"><path id="kvg:0697e-s1" kvg:type="㇐" d="M11.28 37.72c.35.24 2.39.41 3.31.31 3.94-.41 18.12-1.71 24.45-2.91.92-.17 2.15-.24 2.73.0"/><path id="kvg:0697e-s2" kvg:type="㇑" d="M25.86 14c.91.47 2.54 2.5 2.54 4.92.0.95-.12 69.25-.3 75.08"/><path id="kvg:0697e-s3" kvg:type="㇒" d="M28.44 39.78c-5.25 14.49-9.2 20.62-17.33 33.31"/><path id="kvg:0697e-s4" kvg:type="㇔/㇏" d="M31.22 47.65c2.59 1.55 6.85 6.59 9.03 9.6"/></g><g id="kvg:0697e-g2" kvg:element="泉" kvg:position="right"><g id="kvg:0697e-g3" kvg:element="白" kvg:position="top"><g id="kvg:0697e-g4" kvg:position="top"><path id="kvg:0697e-s5" kvg:type="㇔" d="M66.01 11c.31.46.36 1.04.29 1.47-.44 2.51-4.22 8.73-7.66 12.34"/></g><g id="kvg:0697e-g5" kvg:element="日" kvg:position="bottom"><path id="kvg:0697e-s6" kvg:type="㇑" d="M50.09 25.6c.55.59 1.11.86 1.11 1.68s2.95 20.52 3.18 24.55"/><path id="kvg:0697e-s7" kvg:type="㇕a" d="M51.53 27.5c3.13-.27 28.41-4.17 31.26-4.44 2.38-.23 3.87.89 3.43 3.27-.23 1.29-1.98 12.75-4.16 22.18"/><path id="kvg:0697e-s8" kvg:type="㇐a" d="M53.14 38.02c3.6-.19 25.5-3.05 30.94-3.34"/><path id="kvg:0697e-s9" kvg:type="㇐a" d="M54.44 49.81c9.47-1.05 19.59-2.53 27.7-2.96"/></g></g><g id="kvg:0697e-g6" kvg:element="水" kvg:position="bottom"><path id="kvg:0697e-s10" kvg:type="㇚" d="M67.72 51.67c.06.44.87 2.29.93 5.09.3 13.41-.19 32.84-.19 37.41.0 5.59-3.71 3.59-7.04-.68"/><path id="kvg:0697e-s11" kvg:type="㇇" d="M41.6 66.43c1.38.19 2.98.74 4.36.37 1.38-.37 8.66-2.36 10.95-3.1 2.29-.74 3.06 1.02 2.44 2.72C56.5 74.25 48.75 85 37.5 91.5"/><path id="kvg:0697e-s12" kvg:type="㇒" d="M88.01 57c.06.32.11.87-.12 1.28-2.11 3.94-6.83 9.16-10.64 11.22"/><path id="kvg:0697e-s13" kvg:type="㇏" d="M69 61.25c5.94 9.07 15.9 21.32 22.54 26.55 1.4 1.1 2.73 1.66 4.02 2.03"/></g></g></g></g></svg>