<svg xmlns="http://www.w3.org/2000/svg" width="109" height="109" viewBox="0 0 109 109"><g id="kvg:StrokePaths_0699b" style="fill:none;stroke:#000000;stroke-width:3;stroke-linecap:round;stroke-linejoin:round;"><g id="kvg:0699b" kvg:element="榛"><g id="kvg:0699b-g1" kvg:element="木" kvg:position="left" kvg:radical="general"><path id="kvg:0699b-s1" kvg:type="㇐" d="M13.03 38.97c1.23.86 4.47.93 5.88.75 6.34-.84 13.49-1.69 18.85-2.57 1.24-.21 2.87-.51 4.26-.27"/><path id="kvg:0699b-s2" kvg:type="㇑" d="M29.36 16.25c1.44 1.44 1.79 3 1.79 5.42.0.79-.02 45.02-.02 64.58.0 4.05.0 7.04.0 8.38"/><path id="kvg:0699b-s3" kvg:type="㇒" d="M30.19 39.53c0 1.34-.59 3.23-1.11 4.52-5.36 13.22-9.61 21.69-17.58 31.82"/><path id="kvg:0699b-s4" kvg:type="㇔/㇏" d="M33.62 49.38c2.33 1.35 6.16 5.75 8.12 8.38"/></g><g id="kvg:0699b-g2" kvg:element="秦" kvg:position="right"><g id="kvg:0699b-g3" kvg:element="𡗗" kvg:position="top"><g id="kvg:0699b-g4" kvg:element="三"><g id="kvg:0699b-g5" kvg:element="一" kvg:position="top"><path id="kvg:0699b-s5" kvg:type="㇐" d="M48.95 25.23c1.56.68 3.66.32 5.3.22 8.04-.49 16.7-2.01 24.63-2.6 2.15-.16 4.35-.45 6.46.1"/></g><g id="kvg:0699b-g6" kvg:position="bottom"><g id="kvg:0699b-g7" kvg:element="一"><path id="kvg:0699b-s6" kvg:type="㇐" d="M49.31 35.28c1.84.9 4.52.34 6.44.2 6.98-.52 14.95-1.56 22.63-2.14 2.08-.16 4.47-.19 6.48.4"/></g><g id="kvg:0699b-g8" kvg:element="大" kvg:part="1"><g id="kvg:0699b-g9" kvg:element="一"><path id="kvg:0699b-s7" kvg:type="㇐" d="M42.73 46.67c2.33 1 5.34.43 7.77.21 10.26-.93 23.11-2.86 35.38-3.23 2.73-.08 5.55-.27 8.22.42"/></g></g></g></g><g id="kvg:0699b-g10" kvg:element="大" kvg:part="2"><g id="kvg:0699b-g11" kvg:element="人"><path id="kvg:0699b-s8" kvg:type="㇒" d="M67.02 12.75c.31 1.16.52 2.26.25 4.1C65.19 30.86 57.25 56.38 40.41 67"/><path id="kvg:0699b-s9" kvg:type="㇏" d="M69.11 37.79c3.01 3.97 13.23 15 18.7 20.79 1.82 1.93 3.7 3.3 6.2 4.93"/></g></g></g><g id="kvg:0699b-g12" kvg:element="禾" kvg:position="bottom"><g id="kvg:0699b-g13" kvg:element="丿" kvg:position="top"><path id="kvg:0699b-s10" kvg:type="㇒" d="M72.03 53.25c-.15 1-.71 1.71-1.46 2.14-2.6 2.2-9.22 5.25-19.92 8.85"/></g><g id="kvg:0699b-g14" kvg:element="木" kvg:position="bottom"><path id="kvg:0699b-s11" kvg:type="㇐" d="M45.07 72.19c2.3.85 4.83.32 7.18.06 6.6-.72 18.19-2.06 26.01-2.69 2.5-.2 4.99-.49 7.46.06"/><path id="kvg:0699b-s12" kvg:type="㇑" d="M64.49 62.15c.81.81 1.08 1.98 1.08 3.21.0.34-.04 15.56-.05 24.89C65.5 93.51 65.5 96.06 65.5 97"/><path id="kvg:0699b-s13" kvg:type="㇒" d="M64.48 71.59c0 1.28-.43 2.18-1.29 3.33-4.83 6.5-12.36 13.97-19.66 18.31"/><path id="kvg:0699b-s14" kvg:type="㇏" d="M68.93 77.23C74.5 78.5 84.5 86.75 87.77 91"/></g></g></g></g></g></svg>