<svg xmlns="http://www.w3.org/2000/svg" width="109" height="109" viewBox="0 0 109 109"><g id="kvg:StrokePaths_069a0" style="fill:none;stroke:#000000;stroke-width:3;stroke-linecap:round;stroke-linejoin:round;"><g id="kvg:069a0" kvg:element="榠"><g id="kvg:069a0-g1" kvg:element="木" kvg:position="left" kvg:radical="general"><path id="kvg:069a0-s1" kvg:type="㇐" d="M10.28 38.22c.35.24 2.39.41 3.31.31 3.94-.41 16.12-1.21 22.45-2.41.92-.17 2.15-.24 2.73.0"/><path id="kvg:069a0-s2" kvg:type="㇑" d="M25.36 15.5c.91.47 2.04 2.25 2.04 4.42.0.95-.12 68.75-.3 74.58"/><path id="kvg:069a0-s3" kvg:type="㇒" d="M26.94 39.28c-5.1 15.04-7.94 21.4-15.83 34.56"/><path id="kvg:069a0-s4" kvg:type="㇔/㇏" d="M30.47 45.9c2.25 1.67 6.88 7.11 8.78 10.35"/></g><g id="kvg:069a0-g2" kvg:element="冥" kvg:position="right"><g id="kvg:069a0-g3" kvg:element="冖" kvg:position="top"><path id="kvg:069a0-s5" kvg:type="㇔" d="M47.67 19.32c0 3.55-2.46 13.31-3.58 15.68"/><path id="kvg:069a0-s6" kvg:type="㇖b" d="M48.06 23.17C57.75 21.5 82 18.25 90.1 17.83c8.91-.46 1.23 7.11-.8 8.76"/></g><g id="kvg:069a0-g4" kvg:position="bottom"><g id="kvg:069a0-g5" kvg:element="日"><path id="kvg:069a0-s7" kvg:type="㇑" d="M53.71 34.88c.13.24.96 1.67 1.18 2.61.96 4.03 2.36 15.71 2.96 23.22"/><path id="kvg:069a0-s8" kvg:type="㇕a" d="M55.05 35.9c6.24-.85 19.45-2.65 26.92-3.12 2.06-.13 3.08 1.29 2.98 2.4C84.57 39.24 83 48.75 82.3 58.07"/><path id="kvg:069a0-s9" kvg:type="㇐a" d="M56.94 46.84c2.42-.39 24.75-2.38 26.75-2.54"/><path id="kvg:069a0-s10" kvg:type="㇐a" d="M57.88 58.09c5.35-.43 16.89-1.3 24.28-2.01"/></g><g id="kvg:069a0-g6" kvg:element="六"><g id="kvg:069a0-g7" kvg:element="亠" kvg:position="top"><path id="kvg:069a0-s11" kvg:type="㇑a" d="M68.04 62.5c.51.43 1.36 2.11 1.36 2.97.0 3.42-.01 3.76-.07 6.21"/><path id="kvg:069a0-s12" kvg:type="㇐" d="M40.04 73.69c1.1.13 3.6.75 4.67.67 12.24-.91 35.28-3.84 49.11-4.6 1.81-.1 2.74.06 4.09.86"/></g><g id="kvg:069a0-g8" kvg:element="八" kvg:position="bottom"><path id="kvg:069a0-s13" kvg:type="㇒" d="M60.8 79.49c.37.74.19 2.7-.43 3.58-3.39 4.82-7.98 8.74-15 12.93"/><path id="kvg:069a0-s14" kvg:type="㇏" d="M77.55 78.86c6.39 4.59 11.67 9.88 14.86 15.45"/></g></g></g></g></g></g></svg>