<!DOCTYPE svg PUBLIC "-//W3C//DTD SVG 1.0//EN" "http://www.w3.org/TR/2001/REC-SVG-20010904/DTD/svg10.dtd" [
<!ATTLIST g
xmlns:kvg CDATA #FIXED "http://kanjivg.tagaini.net"
kvg:element CDATA #IMPLIED
kvg:variant CDATA #IMPLIED
kvg:partial CDATA #IMPLIED
kvg:original CDATA #IMPLIED
kvg:part CDATA #IMPLIED
kvg:number CDATA #IMPLIED
kvg:tradForm CDATA #IMPLIED
kvg:radicalForm CDATA #IMPLIED
kvg:position CDATA #IMPLIED
kvg:radical CDATA #IMPLIED
kvg:phon CDATA #IMPLIED >
<!ATTLIST path
xmlns:kvg CDATA #FIXED "http://kanjivg.tagaini.net"
kvg:type CDATA #IMPLIED >
]><svg xmlns="http://www.w3.org/2000/svg" width="109" height="109" viewBox="0 0 109 109"><g id="kvg:StrokePaths_069ae" style="fill:none;stroke:#000000;stroke-width:3;stroke-linecap:round;stroke-linejoin:round;"><g id="kvg:069ae" kvg:element="榮"><g id="kvg:069ae-g1" kvg:element="𤇾" kvg:position="top" kvg:phon="𤇾"><g id="kvg:069ae-g2" kvg:element="炏"><g id="kvg:069ae-g3" kvg:element="火"><path id="kvg:069ae-s1" kvg:type="㇔" d="M20.5 18.68c2.76 1.94 5.52 7.18 5.75 10.31"/><path id="kvg:069ae-s2" kvg:type="㇒" d="M47.23 14.37c.63.45.34 1.61-.24 2.31-.57.7-5.88 5.64-8.74 7.28"/><path id="kvg:069ae-s3" kvg:type="㇒" d="M35.36 12.25c.89.76.89 2.69.89 3.18C36.25 29 31.75 37 25 42"/><path id="kvg:069ae-s4" kvg:type="㇏" d="M37.97 29.39c4.09 1.71 9.25 7.11 10.33 9.52"/></g><g id="kvg:069ae-g4" kvg:element="火"><path id="kvg:069ae-s5" kvg:type="㇔" d="M54 15.43c2.76 2.7 4.97 7.04 5.25 10.06"/><path id="kvg:069ae-s6" kvg:type="㇒" d="M81.23 13.87c.02 1.13-.12 2.15-.74 2.81-1.24 1.32-6.38 4.64-9.24 6.28"/><path id="kvg:069ae-s7" kvg:type="㇒" d="M67.84 10.75c.91.69.91 1.54.91 1.99C68.75 25.25 64 34.5 57.25 38"/><path id="kvg:069ae-s8" kvg:type="㇏" d="M69.97 27.64c4.29 1.75 9.7 7.3 10.83 9.77"/></g></g><g id="kvg:069ae-g5" kvg:element="冖"><path id="kvg:069ae-s9" kvg:type="㇔" d="M19.66 45.69c-.14 3.93-3.48 14.22-4.66 16.56"/><path id="kvg:069ae-s10" kvg:type="㇆" d="M19.72 49c6.78-.75 48.25-5.81 65.97-6.25 10.06-.25 3.81 5.75-.69 9.5"/></g></g><g id="kvg:069ae-g6" kvg:element="木" kvg:position="bottom" kvg:radical="general"><path id="kvg:069ae-s11" kvg:type="㇐" d="M26 63.2c1.47.48 3.13.63 4.82.48 8.59-.78 33.51-3.5 46.49-4.42 1.67-.12 2.72.08 4.4.42"/><path id="kvg:069ae-s12" kvg:type="㇑" d="M53 50.25c.87.35 1.57 2.05 1.57 2.77.0 7.33.0 42.61-.17 46.98"/><path id="kvg:069ae-s13" kvg:type="㇒" d="M54.35 62.31c-6.32 9.5-19.85 21.94-36.4 29.39"/><path id="kvg:069ae-s14" kvg:type="㇏" d="M54.77 64.63C59.3 68 80.6 84.91 85.53 88.23c1.67 1.12 3.1 1.6 4.77 1.93"/></g></g></g><g id="kvg:StrokeNumbers_069ae" style="font-size:8;fill:#808080"><text transform="matrix(1 0 0 1 13.75 18.50)">1</text><text transform="matrix(1 0 0 1 42.50 10.50)">2</text><text transform="matrix(1 0 0 1 27.50 12.50)">3</text><text transform="matrix(1 0 0 1 43.50 30.50)">4</text><text transform="matrix(1 0 0 1 52.50 12.50)">5</text><text transform="matrix(1 0 0 1 77.50 9.50)">6</text><text transform="matrix(1 0 0 1 61.50 10.50)">7</text><text transform="matrix(1 0 0 1 78.75 26.60)">8</text><text transform="matrix(1 0 0 1 13.50 46.50)">9</text><text transform="matrix(1 0 0 1 30.50 44.50)">10</text><text transform="matrix(1 0 0 1 23.50 60.50)">11</text><text transform="matrix(1 0 0 1 41.50 54.50)">12</text><text transform="matrix(1 0 0 1 36.50 71.23)">13</text><text transform="matrix(1 0 0 1 64.75 70.50)">14</text></g></svg>