<!DOCTYPE svg PUBLIC "-//W3C//DTD SVG 1.0//EN" "http://www.w3.org/TR/2001/REC-SVG-20010904/DTD/svg10.dtd" [
<!ATTLIST g
xmlns:kvg CDATA #FIXED "http://kanjivg.tagaini.net"
kvg:element CDATA #IMPLIED
kvg:variant CDATA #IMPLIED
kvg:partial CDATA #IMPLIED
kvg:original CDATA #IMPLIED
kvg:part CDATA #IMPLIED
kvg:number CDATA #IMPLIED
kvg:tradForm CDATA #IMPLIED
kvg:radicalForm CDATA #IMPLIED
kvg:position CDATA #IMPLIED
kvg:radical CDATA #IMPLIED
kvg:phon CDATA #IMPLIED >
<!ATTLIST path
xmlns:kvg CDATA #FIXED "http://kanjivg.tagaini.net"
kvg:type CDATA #IMPLIED >
]><svg xmlns="http://www.w3.org/2000/svg" width="109" height="109" viewBox="0 0 109 109"><g id="kvg:StrokePaths_069be" style="fill:none;stroke:#000000;stroke-width:3;stroke-linecap:round;stroke-linejoin:round;"><g id="kvg:069be" kvg:element="榾"><g id="kvg:069be-g1" kvg:element="木" kvg:position="left" kvg:radical="general"><path id="kvg:069be-s1" kvg:type="㇐" d="M11.28 37.58c.36.27 2.47.46 3.42.35 4.08-.46 16.68-1.36 23.24-2.72.95-.2 2.23-.27 2.82.0"/><path id="kvg:069be-s2" kvg:type="㇑" d="M27.36 13.5c.91.47 2.04 2.5 2.04 4.42.0.95-.12 73.25-.3 79.08"/><path id="kvg:069be-s3" kvg:type="㇒" d="M28.94 38.28c-5.66 15.36-8.81 21.86-17.58 35.31"/><path id="kvg:069be-s4" kvg:type="㇔/㇏" d="M31.47 46.9c2.37 1.92 6.28 8.14 8.28 11.85"/></g><g id="kvg:069be-g2" kvg:element="骨" kvg:position="right"><g id="kvg:069be-g3" kvg:position="top"><path id="kvg:069be-s5" kvg:type="㇑a" d="M53.72 14.21c.4.54.76 1.75.81 2.47.26 3.7 1.6 21.76 1.6 22.12"/><path id="kvg:069be-s6" kvg:type="㇕b" d="M55.13 16.23c2.27-.09 25.74-3.64 27.81-3.74 1.72-.09 2.79 1.5 2.7 2.04C85 18.75 83.75 26 82.75 35.47"/><path id="kvg:069be-s7" kvg:type="㇑a" d="M68.34 23.43c.4.54.75 1.75.81 2.48.26 3.24.1 10.71.1 11.07"/><path id="kvg:069be-s8" kvg:type="㇐a" d="M69.32 24.45c2.27-.09 12.65-1.56 14.71-1.8"/><path id="kvg:069be-s9" kvg:type="㇔" d="M46.13 37.69c0 3.09-2.08 11.19-2.8 13.26"/><path id="kvg:069be-s10" kvg:type="㇖b" d="M45.89 40.78c9.29-1.39 39.12-5.62 45.22-5.97 9.52-.55 2.02 5.68-.36 7.65"/></g><g id="kvg:069be-g4" kvg:element="月" kvg:position="bottom"><path id="kvg:069be-s11" kvg:type="㇑" d="M54.61 49.62c.56.7.93 1.4 1.11 2.1s.26 43.01.19 44.58"/><path id="kvg:069be-s12" kvg:type="㇆a" d="M56.84 51.32c2.22-.17 22.12-3.65 23.77-3.85 2.96-.35 4.08 2.27 3.71 3.32-.36 1.01-.56 25.87-.56 40.04.0 9.09-4.45 3.15-6.3 1.57"/><path id="kvg:069be-s13" kvg:type="㇐a" d="M56.34 63.31c7.6-1.05 21.02-2.14 27.69-2.67"/><path id="kvg:069be-s14" kvg:type="㇐a" d="M56.38 76.17c5.93-.53 19.92-2.62 26.77-2.97"/></g></g></g></g><g id="kvg:StrokeNumbers_069be" style="font-size:8;fill:#808080"><text transform="matrix(1 0 0 1 5.85 38.50)">1</text><text transform="matrix(1 0 0 1 18.50 13.50)">2</text><text transform="matrix(1 0 0 1 18.50 47.50)">3</text><text transform="matrix(1 0 0 1 32.50 45.50)">4</text><text transform="matrix(1 0 0 1 45.50 20.50)">5</text><text transform="matrix(1 0 0 1 56.50 12.50)">6</text><text transform="matrix(1 0 0 1 61.50 28.50)">7</text><text transform="matrix(1 0 0 1 71.50 21.50)">8</text><text transform="matrix(1 0 0 1 39.50 43.50)">9</text><text transform="matrix(1 0 0 1 46.50 37.50)">10</text><text transform="matrix(1 0 0 1 46.75 60.38)">11</text><text transform="matrix(1 0 0 1 57.50 47.50)">12</text><text transform="matrix(1 0 0 1 59.50 59.50)">13</text><text transform="matrix(1 0 0 1 59.50 71.50)">14</text></g></svg>