<svg xmlns="http://www.w3.org/2000/svg" width="109" height="109" viewBox="0 0 109 109"><g id="kvg:StrokePaths_069c7"><g id="kvg:069c7" kvg:element="槇"><g id="kvg:069c7-g1" kvg:element="木" kvg:position="left" kvg:radical="general"><path id="kvg:069c7-s1" kvg:type="㇐" d="M10.03 38.22c.36.24 2.52.41 3.49.31 4.16-.41 19.68-2.71 26.37-3.91.97-.17 2.27-.24 2.88.0"/><path id="kvg:069c7-s2" kvg:type="㇑" d="M27.86 14.5c.91.47 2.54 2.5 2.54 4.42.0.95-.12 71.75-.3 77.58"/><path id="kvg:069c7-s3" kvg:type="㇒" d="M29.94 40.28c-5.66 13.41-8.81 19.07-17.58 30.81"/><path id="kvg:069c7-s4" kvg:type="㇔/㇏" d="M32.47 44.9c2.37 1.59 6.28 5.76 8.28 8.85"/></g><g id="kvg:069c7-g2" kvg:element="眞" kvg:position="right"><g id="kvg:069c7-g3" kvg:element="匕" kvg:position="top"><path id="kvg:069c7-s5" kvg:type="㇒" d="M81.09 13.23c-.27.68-1.03 1.52-1.6 1.82-3.64 1.91-14.17 6.68-25.94 8.64"/><path id="kvg:069c7-s6" kvg:type="㇟" d="M52.13 13.5c.76.65.81 1.09 1.07 1.96.25.87-.18 5.79-.18 8.52.0 7.02 10.18 6.36 18.85 6.36 12.58.0 17.34-1.15 17.34-8.53"/></g><g id="kvg:069c7-g4" kvg:position="bottom"><g id="kvg:069c7-g5" kvg:element="目"><path id="kvg:069c7-s7" kvg:type="㇑" d="M58.96 38.01c.38.71.95 2 .95 2.95s-.13 28.97.0 29.91"/><path id="kvg:069c7-s8" kvg:type="㇕a" d="M60.55 39.97c2.18-.12 19.8-2.25 21.79-2.22.91.02 1.81.47 1.81 1.99.0 1.13.03 29.23-.1 29.93"/><path id="kvg:069c7-s9" kvg:type="㇐a" d="M60 49.23c4.3-.16 20.15-1.95 23.65-1.95"/><path id="kvg:069c7-s10" kvg:type="㇐a" d="M59.84 58.74c5.78-.4 18.28-1.87 23.89-1.87"/><path id="kvg:069c7-s11" kvg:type="㇐a" d="M60.03 68.86c4.33.0 18.13-1.96 23.74-1.96"/></g><path id="kvg:069c7-s12" kvg:type="㇄" d="M48.94 48.42c.5.92 1.17 1.62 1.17 3.23.0 1.62-.85 20.1-1.33 24.85-.21 2.07.19 3.83 2 3.42 14.23-3.17 32.18-3.23 39.48-2.77 1.5.1 3 .35 4.5.96"/><g id="kvg:069c7-g6" kvg:element="八"><g id="kvg:069c7-g7" kvg:position="left"><path id="kvg:069c7-s13" kvg:type="㇒" d="M60.32 84.98c.05.26.11.68-.1 1.06-1.24 2.24-8.39 7.17-18.16 10.18"/></g><g id="kvg:069c7-g8" kvg:position="right"><path id="kvg:069c7-s14" kvg:type="㇏" d="M78.39 83.73c5.07 2.18 13.09 8.96 14.36 12.35"/></g></g></g></g></g></g></svg>