<svg xmlns="http://www.w3.org/2000/svg" width="109" height="109" viewBox="0 0 109 109"><g id="kvg:StrokePaths_069d8" style="fill:none;stroke:#000000;stroke-width:3;stroke-linecap:round;stroke-linejoin:round;"><g id="kvg:069d8" kvg:element="様"><g id="kvg:069d8-g1" kvg:element="木" kvg:position="left" kvg:radical="general"><path id="kvg:069d8-s1" kvg:type="㇐" d="M9.28 39.91c1.6.34 3.76.26 5.11.19 6.22-.32 16.3-1.63 24.4-3.29 1.26-.26 2.84-.43 4.22-.22"/><path id="kvg:069d8-s2" kvg:type="㇑" d="M28.11 15.75c1.38 1.38 2.04 3.38 2.04 5.17.0.81-.04 52.36-.05 71.7.0 3.25.0 5.58.0 6.62"/><path id="kvg:069d8-s3" kvg:type="㇒" d="M29.19 39.53c0 1.09-.16 2.19-.37 2.9-3.88 12.96-9.13 23.42-17.19 34.32"/><path id="kvg:069d8-s4" kvg:type="㇔/㇏" d="M33.22 48.9c2.37 1.59 6.28 5.76 8.28 8.85"/></g><g id="kvg:069d8-g2" kvg:position="right"><g id="kvg:069d8-g3" kvg:element="羊" kvg:phon="羊"><g id="kvg:069d8-g4" kvg:element="䒑"><path id="kvg:069d8-s5" kvg:type="㇔" d="M54.52 13.83c3.1 1.66 8.02 6.81 8.79 9.38"/><path id="kvg:069d8-s6" kvg:type="㇒" d="M83.52 11.39c.04.37.07.96-.07 1.49-.7 2.6-3.57 7.24-8.57 12.12"/><path id="kvg:069d8-s7" kvg:type="㇐" d="M49.5 30.14c2.38.49 4.8.25 7 .01 6.9-.76 19.36-2.1 26.49-2.72 2.37-.21 5.38-.17 7.5.09"/></g><path id="kvg:069d8-s8" kvg:type="㇐" d="M52.25 41.81c1.71.59 4.13.46 5.88.32 6.25-.51 16.62-1.51 23.63-2.59 2.09-.32 4.62-.54 6.5-.2"/><path id="kvg:069d8-s9" kvg:type="㇐" d="M47.5 54.39c2.62.36 5.06.22 7.36.0 8.21-.8 24.79-2.29 33.27-2.96 2.49-.19 5.24-.31 8.12.08"/><path id="kvg:069d8-s10" kvg:type="㇑" d="M68.02 31.83c.98.92 2.01 2.54 2.01 4.02.0 14.56-.01 51.16-.01 56.12.0 8.12-4.91 3.42-8.71.25"/></g><g id="kvg:069d8-g5" kvg:element="氺" kvg:variant="true" kvg:original="水" kvg:partial="true"><path id="kvg:069d8-s11" kvg:type="㇔" d="M48.77 62.21c2.84 1.24 7.33 5.08 8.04 7.01"/><path id="kvg:069d8-s12" kvg:type="㇀" d="M43.75 87.03c.98.43 1.93.37 2.99-.42 1.01-.75 9.97-7.69 13.39-11.11"/><path id="kvg:069d8-s13" kvg:type="㇒" d="M90.03 59.14c.07.63-.06 1.22-.45 1.72-1.58 2.01-3.7 4.26-7.77 7.1"/><path id="kvg:069d8-s14" kvg:type="㇏" d="M77.62 73.5c3.9 1.94 13.02 12.58 15.74 14.9.92.79 1.71 1.12 2.63 1.35"/></g></g></g></g></svg>