<svg xmlns="http://www.w3.org/2000/svg" width="109" height="109" viewBox="0 0 109 109"><g id="kvg:StrokePaths_069e7"><g id="kvg:069e7" kvg:element="槧"><g id="kvg:069e7-g1" kvg:element="斬" kvg:position="top"><g id="kvg:069e7-g2" kvg:element="車" kvg:position="left"><path id="kvg:069e7-s1" kvg:type="㇐" d="M15.62 20.85c.67.31 1.88.38 2.55.31 9.28-.93 19.51-1.95 28.95-2.75 1.11-.09 1.78.15 2.33.3"/><path id="kvg:069e7-s2" kvg:type="㇑" d="M18.58 28.43c.43.33.97 1.29 1.05 1.74.58 3.2 2.19 11.31 3.01 17.36"/><path id="kvg:069e7-s3" kvg:type="㇕a" d="M20.64 29.79c6.52-.64 19.96-2.55 24.41-2.65 1.84-.04 2.22.88 2.14 1.88-.27 3.44-1.44 9.24-2.21 15.58"/><path id="kvg:069e7-s4" kvg:type="㇐a" d="M21.36 37.06c4.91-.17 15.83-1.71 25.26-2.14"/><path id="kvg:069e7-s5" kvg:type="㇐a" d="M22.59 45.18c5.71-.66 14.45-1.95 21.89-1.95"/><path id="kvg:069e7-s6" kvg:type="㇐" d="M15.33 53.5c.84.56 2.35.63 3.2.56 8.6-.67 20.59-2.8 28.59-3.46 1.39-.11 2.66-.12 3.36.16"/><path id="kvg:069e7-s7" kvg:type="㇑" d="M31.52 10.4c.58.4 1.93 2.2 1.93 3.76.0 5.85-.48 45.6-.6 50.55"/></g><g id="kvg:069e7-g3" kvg:element="斤" kvg:position="right"><path id="kvg:069e7-s8" kvg:type="㇒" d="M80.67 12c.05.29.21.84-.1 1.15-4.36 4.2-9.93 7.37-19.12 10.99"/><path id="kvg:069e7-s9" kvg:type="㇒" d="M58.83 22.64c.48 1.02.97 2 .97 3.11.0 11.01.44 23.49-6.89 30.28"/><path id="kvg:069e7-s10" kvg:type="㇐" d="M61.92 32.9c.4.16 1.97.27 3.03.09 5.85-1 17.06-2.85 23.72-3.35 1.07-.08 2.92-.16 3.59.0"/><path id="kvg:069e7-s11" kvg:type="㇑" d="M75.18 32.9c.86.5 1.38 2.25 1.55 3.26.17 1 0 20.83-.17 27.1"/></g></g><g id="kvg:069e7-g4" kvg:element="木" kvg:position="bottom" kvg:radical="general"><path id="kvg:069e7-s12" kvg:type="㇐" d="M18.75 74.61c1.9.57 4.06.75 6.25.57C36.13 74.25 68.96 72 85.8 70.9c2.17-.14 3.53.1 5.7.5"/><path id="kvg:069e7-s13" kvg:type="㇑" d="M52.25 61.25c1.25.5 2.25 2.22 2.25 3.25.0 10.5.0 29.75-.25 36"/><path id="kvg:069e7-s14" kvg:type="㇒" d="M50.25 73.75c-6.75 8.5-21.25 18.75-36 23"/><path id="kvg:069e7-s15" kvg:type="㇏" d="M54.5 73.5c4.62 2.67 26.36 16.09 31.38 18.72 1.7.89 3.16 1.27 4.87 1.53"/></g></g></g></svg>