<!DOCTYPE svg PUBLIC "-//W3C//DTD SVG 1.0//EN" "http://www.w3.org/TR/2001/REC-SVG-20010904/DTD/svg10.dtd" [
<!ATTLIST g
xmlns:kvg CDATA #FIXED "http://kanjivg.tagaini.net"
kvg:element CDATA #IMPLIED
kvg:variant CDATA #IMPLIED
kvg:partial CDATA #IMPLIED
kvg:original CDATA #IMPLIED
kvg:part CDATA #IMPLIED
kvg:number CDATA #IMPLIED
kvg:tradForm CDATA #IMPLIED
kvg:radicalForm CDATA #IMPLIED
kvg:position CDATA #IMPLIED
kvg:radical CDATA #IMPLIED
kvg:phon CDATA #IMPLIED >
<!ATTLIST path
xmlns:kvg CDATA #FIXED "http://kanjivg.tagaini.net"
kvg:type CDATA #IMPLIED >
]><svg xmlns="http://www.w3.org/2000/svg" width="109" height="109" viewBox="0 0 109 109"><g id="kvg:StrokePaths_069e8" style="fill:none;stroke:#000000;stroke-width:3;stroke-linecap:round;stroke-linejoin:round;"><g id="kvg:069e8" kvg:element="槨"><g id="kvg:069e8-g1" kvg:element="木" kvg:position="left" kvg:radical="general"><path id="kvg:069e8-s1" kvg:type="㇐" d="M11.53 36.78c.35.21 2.41.36 3.34.27 3.98-.36 13.25-1.93 19.64-2.99.93-.15 2.17-.21 2.75.0"/><path id="kvg:069e8-s2" kvg:type="㇑" d="M24.86 14.5c.91.47 2.54 2 2.54 4.42.0.95-.12 70.75-.3 76.58"/><path id="kvg:069e8-s3" kvg:type="㇒" d="M27.44 38.28c-5.18 16.34-8.06 23.25-16.08 37.56"/><path id="kvg:069e8-s4" kvg:type="㇔/㇏" d="M29.47 49.4c2.37 1.59 6.28 6.76 8.28 9.85"/></g><g id="kvg:069e8-g2" kvg:element="郭" kvg:position="right"><g id="kvg:069e8-g3" kvg:element="享" kvg:position="left"><g id="kvg:069e8-g4" kvg:element="亠" kvg:position="top"><path id="kvg:069e8-s5" kvg:type="㇑a" d="M52.09 13c.7.52 1.85 2.52 1.85 3.55.0 3.8-.22 5.51-.09 8.73"/><path id="kvg:069e8-s6" kvg:type="㇐" d="M39.3 26.88c.57.06 1.88.38 2.44.3 4.51-.64 17.69-2.49 24.12-2.93.95-.06 1.43.03 2.13.39"/></g><g id="kvg:069e8-g5" kvg:position="bottom"><g id="kvg:069e8-g6" kvg:element="口"><path id="kvg:069e8-s7" kvg:type="㇑" d="M43.41 34.12c.21.24.92.94 1.01 1.25.72 2.4 2.33 9.19 2.82 13.5"/><path id="kvg:069e8-s8" kvg:type="㇕b" d="M45.2 35.44c5.08-1.01 15.28-2.64 17.9-2.98.96-.12 1.53 1.25 1.4 1.98-.57 3.02-1.22 6.8-2.43 11.15"/><path id="kvg:069e8-s9" kvg:type="㇐b" d="M47.45 47.28c3.08-.38 12.67-.93 16.57-1.31"/></g><g id="kvg:069e8-g7" kvg:element="子" kvg:variant="true"><path id="kvg:069e8-s10" kvg:type="㇖" d="M44.62 57.5c.63.21 1.83.53 2.78.35 1.16-.22 14.08-4.21 15.18-4.21 1.11.0 1.69 1.11.58 2.34-1.34 1.48-4.42 6.13-8.29 10.65"/><path id="kvg:069e8-s11" kvg:type="㇁" d="M52.19 66.76c3.81 4.49 8.02 15.07 4.04 25.37-2.36 6.09-5.48 1.37-6.62-.49"/><path id="kvg:069e8-s12" kvg:type="㇀/㇐" d="M40.63 78.47c.87 1.03 2.77 1.25 3.72.76C52.5 75 58.25 72 67.85 67.34"/></g></g></g><g id="kvg:069e8-g8" kvg:element="⻏" kvg:variant="true" kvg:original="邑" kvg:position="right"><path id="kvg:069e8-s13" kvg:type="㇇" d="M74.82 20.93c1.18.07 3.11.03 3.93-.1 5-.83 8.5-1.83 12.12-2.65 2.79-.63 3.74 1.85 2.58 4.65-1.15 2.8-6.05 17.4-8.07 21.4"/><path id="kvg:069e8-s14" kvg:type="㇁" d="M84.84 44.23c18.56 9.14 13.97 47.78 2.02 33.22"/><path id="kvg:069e8-s15" kvg:type="㇑" d="M76.94 21.45c.02.11.53 1.02.54 2.55.08 11.98-.06 66.72-.2 72.25"/></g></g></g></g><g id="kvg:StrokeNumbers_069e8" style="font-size:8;fill:#808080"><text transform="matrix(1 0 0 1 4.50 36.50)">1</text><text transform="matrix(1 0 0 1 16.66 15.50)">2</text><text transform="matrix(1 0 0 1 17.50 46.50)">3</text><text transform="matrix(1 0 0 1 32.50 48.50)">4</text><text transform="matrix(1 0 0 1 44.25 13.50)">5</text><text transform="matrix(1 0 0 1 37.50 23.50)">6</text><text transform="matrix(1 0 0 1 38.50 43.50)">7</text><text transform="matrix(1 0 0 1 48.50 33.10)">8</text><text transform="matrix(1 0 0 1 49.50 44.50)">9</text><text transform="matrix(1 0 0 1 41.50 55.50)">10</text><text transform="matrix(1 0 0 1 44.25 69.50)">11</text><text transform="matrix(1 0 0 1 36.50 74.50)">12</text><text transform="matrix(1 0 0 1 74.50 17.50)">13</text><text transform="matrix(1 0 0 1 81.50 54.50)">14</text><text transform="matrix(1 0 0 1 67.50 32.50)">15</text></g></svg>