<svg xmlns="http://www.w3.org/2000/svg" width="109" height="109" viewBox="0 0 109 109"><g id="kvg:StrokePaths_069fb" style="fill:none;stroke:#000000;stroke-width:3;stroke-linecap:round;stroke-linejoin:round;"><g id="kvg:069fb" kvg:element="槻"><g id="kvg:069fb-g1" kvg:element="木" kvg:position="left" kvg:radical="general"><path id="kvg:069fb-s1" kvg:type="㇐" d="M10.28 37.47c1.85.66 4.19.82 5.86.59 4.76-.65 8.84-1.25 14.75-2.07 1.09-.15 2.49-.49 3.63-.12"/><path id="kvg:069fb-s2" kvg:type="㇑" d="M24.61 15.25c1.19 1.19 1.29 2.75 1.29 4.42.0.77-.02 46.9-.02 67.33.0 4.66.0 7.99.0 9.12"/><path id="kvg:069fb-s3" kvg:type="㇒" d="M25.44 38.53c0 1.72-.79 4.29-1.28 5.6C19.64 56.2 16.64 63.48 8.75 73.62"/><path id="kvg:069fb-s4" kvg:type="㇔/㇏" d="M28.97 49.4c2 1.59 3.6 6.76 5.28 9.85"/></g><g id="kvg:069fb-g2" kvg:element="規" kvg:position="right"><g id="kvg:069fb-g3" kvg:element="夫" kvg:position="left"><path id="kvg:069fb-s5" kvg:type="㇐" d="M39.34 35.43c1.57.44 3.04.42 4.66.31 3.51-.25 9.3-.8 14.15-1.47 1-.14 2.07-.39 3.09-.22"/><g id="kvg:069fb-g4" kvg:element="大"><path id="kvg:069fb-s6" kvg:type="㇐" d="M37.14 51.08c1.48.4 3.62.36 5.13.25 5.31-.38 10.85-1.2 16.49-2.01 1.19-.17 2.33-.13 3.51.06"/><path id="kvg:069fb-s7" kvg:type="㇒" d="M50.28 15.25c.92.92 1.07 2 1.09 3.73.5 40.15.13 55.77-16.12 70.27"/><path id="kvg:069fb-s8" kvg:type="㇔/㇏" d="M53.07 65.16c3.35 3.26 6.5 8.42 8.05 12.87"/></g></g><g id="kvg:069fb-g5" kvg:element="見" kvg:position="right"><g id="kvg:069fb-g6" kvg:element="目" kvg:position="top"><path id="kvg:069fb-s9" kvg:type="㇑" d="M66.39 18.11c.94.94 1.15 2.02 1.15 3.37.0 7.27-.03 28.31-.03 39.89.0 2.39.0 4.37.0 5.75"/><path id="kvg:069fb-s10" kvg:type="㇕a" d="M67.9 19.23c2.96-.62 13.61-2.03 17.86-2.55C88.66 16.32 90 16.95 90 20c-.02 8.01-.12 44.68-.12 45.62"/><path id="kvg:069fb-s11" kvg:type="㇐a" d="M68.74 33.81c5.01-.44 16.84-1.75 20.17-1.75"/><path id="kvg:069fb-s12" kvg:type="㇐a" d="M68.91 48.75c5.59-.5 14.42-1.78 19.75-1.78"/><path id="kvg:069fb-s13" kvg:type="㇐a" d="M68.7 64.61c6.3-.48 13.55-1.23 19.75-1.53"/></g><g id="kvg:069fb-g7" kvg:element="儿" kvg:position="bottom"><path id="kvg:069fb-s14" kvg:type="㇒" d="M72.13 69.28c.5.85.61 1.61.41 2.97-1.03 6.88-4.78 15-16.11 21.25"/><path id="kvg:069fb-s15" kvg:type="㇟" d="M80.36 66.54c.92.92.84 2.22.87 3.98.08 4.71-.1 8.49-.1 13.98.0 7.58 1.46 8.88 8.46 8.88 7.33.0 7.99-.97 7.99-8.46"/></g></g></g></g></g></svg>