<!DOCTYPE svg PUBLIC "-//W3C//DTD SVG 1.0//EN" "http://www.w3.org/TR/2001/REC-SVG-20010904/DTD/svg10.dtd" [
<!ATTLIST g
xmlns:kvg CDATA #FIXED "http://kanjivg.tagaini.net"
kvg:element CDATA #IMPLIED
kvg:variant CDATA #IMPLIED
kvg:partial CDATA #IMPLIED
kvg:original CDATA #IMPLIED
kvg:part CDATA #IMPLIED
kvg:number CDATA #IMPLIED
kvg:tradForm CDATA #IMPLIED
kvg:radicalForm CDATA #IMPLIED
kvg:position CDATA #IMPLIED
kvg:radical CDATA #IMPLIED
kvg:phon CDATA #IMPLIED >
<!ATTLIST path
xmlns:kvg CDATA #FIXED "http://kanjivg.tagaini.net"
kvg:type CDATA #IMPLIED >
]><svg xmlns="http://www.w3.org/2000/svg" width="109" height="109" viewBox="0 0 109 109"><g id="kvg:StrokePaths_06a0b" style="fill:none;stroke:#000000;stroke-width:3;stroke-linecap:round;stroke-linejoin:round;"><g id="kvg:06a0b" kvg:element="樋"><g id="kvg:06a0b-g1" kvg:element="木" kvg:position="left" kvg:radical="general"><path id="kvg:06a0b-s1" kvg:type="㇐" d="M11.28 37.72c.35.24 2.39.41 3.31.31 3.94-.41 15.12-2.21 21.45-3.41.92-.17 1.15-.24 1.73.0"/><path id="kvg:06a0b-s2" kvg:type="㇑" d="M24.86 14.5c.91.47 2.54 2 2.54 4.42.0.95-.12 71.25-.3 77.08"/><path id="kvg:06a0b-s3" kvg:type="㇒" d="M26.94 39.28c-4.86 15.69-7.56 22.32-15.08 36.06"/><path id="kvg:06a0b-s4" kvg:type="㇔/㇏" d="M29.97 45.15c2.53 1.84 6.03 5.83 8.16 9.39"/></g><g id="kvg:06a0b-g2" kvg:element="通" kvg:position="right"><g id="kvg:06a0b-g3" kvg:element="甬" kvg:position="nyoc"><g id="kvg:06a0b-g4" kvg:element="マ" kvg:position="top"><path id="kvg:06a0b-s5" kvg:type="㇇" d="M59.12 17.34c.93.6 2.2 1.16 3.26 1.1 1.21-.06 18.31-3.62 24.45-4.65C91.5 13 92 14.25 88.84 17.03c-1.2 1.05-10.59 8.22-14.2 10.4"/><path id="kvg:06a0b-s6" kvg:type="㇔" d="M68.65 24c2.4.97 8.6 4.71 9.73 7.25"/></g><g id="kvg:06a0b-g5" kvg:element="用" kvg:position="bottom"><path id="kvg:06a0b-s7" kvg:type="㇑/㇒" d="M61.54 36.38c.43.58.72 1.16.86 1.74.14.58.14 40.79.14 42.1"/><path id="kvg:06a0b-s8" kvg:type="㇆a" d="M63.26 37.52c4.83-.24 26.25-3.25 27.54-3.41 2.3-.29 3.16 1.89 2.87 2.76-.28.84-.43 28.56-.43 40.34.0 7.54-4.49 1.25-5.4.75"/><path id="kvg:06a0b-s9" kvg:type="㇐a" d="M63.26 49.58c8.35-1.51 23.99-2.44 29.9-2.76"/><path id="kvg:06a0b-s10" kvg:type="㇐a" d="M63.06 61.83c6.69-1.11 24.72-2.25 30.03-2.54"/><path id="kvg:06a0b-s11" kvg:type="㇑" d="M76.3 37.6c.57.28.91 1.26 1.02 1.82s0 36.79-.11 40.29"/></g></g><g id="kvg:06a0b-g6" kvg:element="辶" kvg:position="nyo"><path id="kvg:06a0b-s12" kvg:type="㇔" d="M46.2 16.5c2.97 1.74 7.66 7.17 8.41 9.88"/><path id="kvg:06a0b-s13" kvg:type="㇔" d="M40.69 39c3.54.99 9.15 4.09 10.04 5.63"/><path id="kvg:06a0b-s14" kvg:type="㇋" d="M39.5 60.94c1.84.85 3.06.43 3.88.21.82-.21 6.53-2.99 7.76-3.42 1.22-.43 3.06 1.07 2.25 2.35-.82 1.28-3.27 6.19-3.88 7.26-.61 1.07-.41 2.99.82 4.48s2.25 3.2 2.86 4.48.61 2.35-.61 3.42c-1.22 1.07-7.35 7.04-8.57 7.47"/><path id="kvg:06a0b-s15" kvg:type="㇏" d="M40.35 88.07c2.02-.24 6.06-.85 9.08-.37 3.03.49 20.23 3.76 23.21 4.39 8.07 1.71 14.3 2.19 20.35 1.34"/></g></g></g></g><g id="kvg:StrokeNumbers_06a0b" style="font-size:8;fill:#808080"><text transform="matrix(1 0 0 1 4.50 38.50)">1</text><text transform="matrix(1 0 0 1 16.50 14.50)">2</text><text transform="matrix(1 0 0 1 17.50 47.50)">3</text><text transform="matrix(1 0 0 1 33.50 45.50)">4</text><text transform="matrix(1 0 0 1 51.50 16.50)">5</text><text transform="matrix(1 0 0 1 61.50 26.50)">6</text><text transform="matrix(1 0 0 1 55.50 43.50)">7</text><text transform="matrix(1 0 0 1 64.50 34.50)">8</text><text transform="matrix(1 0 0 1 66.50 46.50)">9</text><text transform="matrix(1 0 0 1 65.50 58.50)">10</text><text transform="matrix(1 0 0 1 79.50 43.50)">11</text><text transform="matrix(1 0 0 1 40.50 14.50)">12</text><text transform="matrix(1 0 0 1 40.50 37.50)">13</text><text transform="matrix(1 0 0 1 39.50 57.50)">14</text><text transform="matrix(1 0 0 1 34.50 84.50)">15</text></g></svg>