<svg xmlns="http://www.w3.org/2000/svg" width="109" height="109" viewBox="0 0 109 109"><g id="kvg:StrokePaths_06a12" style="fill:none;stroke:#000000;stroke-width:3;stroke-linecap:round;stroke-linejoin:round;"><g id="kvg:06a12" kvg:element="樒"><g id="kvg:06a12-g1" kvg:element="木" kvg:position="left" kvg:radical="general"><path id="kvg:06a12-s1" kvg:type="㇐" d="M10.28 35.72c.37.24 2.57.36 3.56.31 5.56-.28 15.18-.71 22-1.91.99-.17 2.31-.24 2.93.0"/><path id="kvg:06a12-s2" kvg:type="㇑" d="M24.86 14.5c.91.47 2.54 2 2.54 4.42.0.95-.12 72.75-.3 78.58"/><path id="kvg:06a12-s3" kvg:type="㇒" d="M26.94 40.28c-4.7 15.15-7.31 21.55-14.58 34.81"/><path id="kvg:06a12-s4" kvg:type="㇔/㇏" d="M29.72 50.15c2.3 1.88 6.09 7.97 8.03 11.6"/></g><g id="kvg:06a12-g2" kvg:element="密" kvg:position="right"><g id="kvg:06a12-g3" kvg:element="宀" kvg:position="top"><path id="kvg:06a12-s5" kvg:type="㇑a" d="M65.37 12.04c1.03.37 2.5 2.36 2.48 3.58-.07 3.83-.07 6.94-.07 10.43"/><g id="kvg:06a12-g4" kvg:element="冖"><path id="kvg:06a12-s6" kvg:type="㇔" d="M44.94 26.75c0 3.42-2.36 12.94-3.44 15.28"/><path id="kvg:06a12-s7" kvg:type="㇖b" d="M45.37 28.21c9.13-.96 39.36-2.37 45.39-3.04 9.42-1.06 2 6.94-.34 9.14"/></g></g><g id="kvg:06a12-g5" kvg:element="宓" kvg:position="bottom"><g id="kvg:06a12-g6" kvg:element="必"><g id="kvg:06a12-g7" kvg:element="心" kvg:part="1" kvg:variant="true"><path id="kvg:06a12-s8" kvg:type="㇔" d="M62.95 37.52c1.12 2.38 3.58 5.7 4.28 2.34"/></g><g id="kvg:06a12-g8" kvg:element="丿"><path id="kvg:06a12-s9" kvg:type="㇒" d="M79.05 33.8c.09.75.11 1.91-.18 3.01-2.38 8.96-19.17 25.7-37.73 33"/></g><g id="kvg:06a12-g9" kvg:element="心" kvg:part="2" kvg:variant="true"><path id="kvg:06a12-s10" kvg:type="㇃" d="M54.45 37.39c5.41 15.25 10.86 26.1 30.37 25.8 6.88-.11 5.2-3.76 2.35-6.96"/><path id="kvg:06a12-s11" kvg:type="㇔" d="M48.3 44.2c.25 1.81-2.51 9.79-4.51 12.8"/><path id="kvg:06a12-s12" kvg:type="㇔" d="M85.55 43.24c3.55 1.94 7.76 5.91 9.09 9.68"/></g></g><g id="kvg:06a12-g10" kvg:element="山"><path id="kvg:06a12-s13" kvg:type="㇑a" d="M66.05 66.17c.48.35 1.5 2.64 1.59 3.35.1.71-.26 14.67-.26 23.07"/><path id="kvg:06a12-s14" kvg:type="㇄a" d="M48.59 76.46c.48.35 1.03 1.85.96 2.56-.32 3.15-.58 8.15-1.87 14.55-.32 1.58-.14 3.59.95 2.95 2.69-1.57 32.39-5.32 38.41-5.51"/><path id="kvg:06a12-s15" kvg:type="㇑" d="M88.08 73.39c.48.35 1.04 2.64.96 3.35-.48 4.33-.56 9.83-1.35 17.9"/></g></g></g></g></g></svg>