<svg xmlns="http://www.w3.org/2000/svg" width="109" height="109" viewBox="0 0 109 109"><g id="kvg:StrokePaths_06a1b"><g id="kvg:06a1b" kvg:element="樛"><g id="kvg:06a1b-g1" kvg:element="木" kvg:position="left" kvg:radical="general"><path id="kvg:06a1b-s1" kvg:type="㇐" d="M10.78 36.72c.35.24 2.39.41 3.31.31 3.94-.41 14.12-1.71 20.45-2.91.92-.17 2.15-.24 2.73.0"/><path id="kvg:06a1b-s2" kvg:type="㇑" d="M25.86 14.5c.91.47 2.04 2.5 2.04 4.42.0.95-.12 71.25-.3 77.08"/><path id="kvg:06a1b-s3" kvg:type="㇒" d="M26.94 39.28c-5.1 15.04-7.94 21.4-15.83 34.56"/><path id="kvg:06a1b-s4" kvg:type="㇔/㇏" d="M29.47 44.9c2.37 1.59 6.28 6.76 8.28 9.85"/></g><g id="kvg:06a1b-g2" kvg:element="翏" kvg:position="right"><g id="kvg:06a1b-g3" kvg:element="羽" kvg:variant="true"><g id="kvg:06a1b-g4" kvg:position="left"><path id="kvg:06a1b-s5" kvg:type="㇆" d="M41.25 16.4c1.04.96 2.43.81 3.97.65 5.28-.55 11.98-1.07 12.93-1.17 2.14-.23 2.94 1.48 2.67 2.16-.26.66-.4 14.69-.4 23.89"/><path id="kvg:06a1b-s6" kvg:type="㇒" d="M51.77 19.64c.03.3.06.78-.05 1.21-.68 2.56-4.58 8.17-9.91 11.61"/><path id="kvg:06a1b-s7" kvg:type="㇒" d="M57.01 27.89c.04.37.09.96-.08 1.5-1.04 3.16-6.98 10.09-15.12 14.33"/></g><g id="kvg:06a1b-g5" kvg:position="right"><path id="kvg:06a1b-s8" kvg:type="㇆" d="M68.3 15.42c.92.78 1.7.58 3.05.52 3.74-.17 12.5-1.89 13.34-1.97 1.88-.18 2.58 1.2 2.35 1.75-.23.53-.35 20.01-.35 27.46"/><path id="kvg:06a1b-s9" kvg:type="㇒" d="M79.52 17.39c.04.28.08.72-.08 1.12-.92 2.36-6.18 7.54-13.38 10.71"/><path id="kvg:06a1b-s10" kvg:type="㇒" d="M84.26 24.89c.04.3.08.78-.08 1.21-.95 2.56-6.41 8.17-13.88 11.61"/></g></g><path id="kvg:06a1b-s11" kvg:type="㇒" d="M66.7 41.75c.08.58.36 1.57-.16 2.32C62.84 49.33 53 59.25 37.71 66.25"/><path id="kvg:06a1b-s12" kvg:type="㇏" d="M66 45c4.03 3.78 21.36 16.12 25.81 18.89 1.51.94 3.44 1.34 4.94 1.61"/><g id="kvg:06a1b-g6" kvg:element="彡"><path id="kvg:06a1b-s13" kvg:type="㇒" d="M69.8 56.5c.07.4.25 1.09-.14 1.62-2.54 3.45-11.07 10.18-23.63 14.9"/><path id="kvg:06a1b-s14" kvg:type="㇒" d="M75.23 66.77c.08.42.3 1.15-.16 1.69C71.9 72.14 61.54 79.51 46 84.6"/><path id="kvg:06a1b-s15" kvg:type="㇒" d="M83.01 77.63c.12.47.24 1.21-.22 1.88-2.75 3.96-18.56 12.66-40.19 17.99"/></g></g></g></g></svg>