<!DOCTYPE svg PUBLIC "-//W3C//DTD SVG 1.0//EN" "http://www.w3.org/TR/2001/REC-SVG-20010904/DTD/svg10.dtd" [
<!ATTLIST g
xmlns:kvg CDATA #FIXED "http://kanjivg.tagaini.net"
kvg:element CDATA #IMPLIED
kvg:variant CDATA #IMPLIED
kvg:partial CDATA #IMPLIED
kvg:original CDATA #IMPLIED
kvg:part CDATA #IMPLIED
kvg:number CDATA #IMPLIED
kvg:tradForm CDATA #IMPLIED
kvg:radicalForm CDATA #IMPLIED
kvg:position CDATA #IMPLIED
kvg:radical CDATA #IMPLIED
kvg:phon CDATA #IMPLIED >
<!ATTLIST path
xmlns:kvg CDATA #FIXED "http://kanjivg.tagaini.net"
kvg:type CDATA #IMPLIED >
]><svg xmlns="http://www.w3.org/2000/svg" width="109" height="109" viewBox="0 0 109 109"><g id="kvg:StrokePaths_06a21" style="fill:none;stroke:#000000;stroke-width:3;stroke-linecap:round;stroke-linejoin:round;"><g id="kvg:06a21" kvg:element="模"><g id="kvg:06a21-g1" kvg:element="木" kvg:position="left" kvg:radical="general"><path id="kvg:06a21-s1" kvg:type="㇐" d="M13.03 36.72c2.1.66 4.5.18 5.84.0 4.74-.64 13.4-2.14 18.76-3.18 1.22-.24 2.87-.29 4.13-.17"/><path id="kvg:06a21-s2" kvg:type="㇑" d="M28.36 15.5c1.07 1.07 1.29 2.38 1.29 4.17.0 7.11-.08 51.33-.21 69.83-.03 3.82-.06 6.5-.09 7.5"/><path id="kvg:06a21-s3" kvg:type="㇒" d="M28.69 36.78c0 2.09-1.14 5.55-1.7 7.06-4.33 11.76-9.37 20.28-15.38 29"/><path id="kvg:06a21-s4" kvg:type="㇔/㇏" d="M32.12 44c2.69 1.62 7.11 6.86 9.38 10"/></g><g id="kvg:06a21-g2" kvg:element="莫" kvg:position="right" kvg:phon="莫"><g id="kvg:06a21-g3" kvg:element="艹" kvg:variant="true" kvg:original="艸" kvg:position="top"><path id="kvg:06a21-s5" kvg:type="㇐" d="M41.53 25.46c2.35.41 4.72.16 6.86-.05 10.01-1.02 26.86-3.03 37.87-3.48 2.46-.1 4.94-.27 7.34.4"/><path id="kvg:06a21-s6" kvg:type="㇑a" d="M52.84 14.12c.95.95 1.44 2.05 1.6 2.89 1.47 7.93 2.14 12.91 2.56 15.8"/><path id="kvg:06a21-s7" kvg:type="㇑a" d="M77.46 12.69c.67.93.73 1.95.42 3.37-1.47 6.73-1.85 8.34-3.53 15.07"/></g><g id="kvg:06a21-g4" kvg:position="bottom"><g id="kvg:06a21-g5" kvg:element="日"><path id="kvg:06a21-s8" kvg:type="㇑" d="M47.36 38.14c.75.75 1.39 1.86 1.54 2.57 1.35 6.29 2.98 16.83 2.98 17.19.0.36.39 2.61.54 3.33"/><path id="kvg:06a21-s9" kvg:type="㇕a" d="M49.62 39.76c5.91-.91 26.81-3.6 32.63-4.22 2.29-.24 4.58.96 4.18 3.59-.56 3.6-1.99 10.29-3.07 15.14-.33 1.48-.62 2.79-.85 3.79"/><path id="kvg:06a21-s10" kvg:type="㇐a" d="M51.55 49.03c7.2-.9 28.89-3.46 32.64-3.46"/><path id="kvg:06a21-s11" kvg:type="㇐a" d="M53.08 59.21c7.79-.71 20.17-2.46 28.76-2.77"/></g><g id="kvg:06a21-g6" kvg:element="大"><path id="kvg:06a21-s12" kvg:type="㇐" d="M39.57 72.1c2.08.57 4.27.55 6.43.31 14.65-1.58 29.62-3.03 42.5-3.68 2.3-.12 5.12-.1 7 .46"/><path id="kvg:06a21-s13" kvg:type="㇒" d="M65.38 61.01c.74.74.89 2.05.78 3.09C64.2 81.65 56.01 90.5 39.25 96.06"/><path id="kvg:06a21-s14" kvg:type="㇏" d="M65.74 71.11c5.98 5.31 16.38 14.64 23.94 20.75 1.71 1.38 3.89 2.94 6.05 3.49"/></g></g></g></g></g><g id="kvg:StrokeNumbers_06a21" style="font-size:8;fill:#808080"><text transform="matrix(1 0 0 1 6.50 37.50)">1</text><text transform="matrix(1 0 0 1 20.25 15.13)">2</text><text transform="matrix(1 0 0 1 18.50 47.50)">3</text><text transform="matrix(1 0 0 1 35.50 44.50)">4</text><text transform="matrix(1 0 0 1 38.50 22.63)">5</text><text transform="matrix(1 0 0 1 46.50 11.50)">6</text><text transform="matrix(1 0 0 1 70.50 11.50)">7</text><text transform="matrix(1 0 0 1 42.50 46.50)">8</text><text transform="matrix(1 0 0 1 48.75 36.50)">9</text><text transform="matrix(1 0 0 1 54.75 46.63)">10</text><text transform="matrix(1 0 0 1 54.75 56.50)">11</text><text transform="matrix(1 0 0 1 36.50 69.50)">12</text><text transform="matrix(1 0 0 1 55.50 67.63)">13</text><text transform="matrix(1 0 0 1 77.50 79.63)">14</text></g></svg>