<svg xmlns="http://www.w3.org/2000/svg" width="109" height="109" viewBox="0 0 109 109"><g id="kvg:StrokePaths_06a2a" style="fill:none;stroke:#000000;stroke-width:3;stroke-linecap:round;stroke-linejoin:round;"><g id="kvg:06a2a" kvg:element="横"><g id="kvg:06a2a-g1" kvg:element="木" kvg:position="left" kvg:radical="general"><path id="kvg:06a2a-s1" kvg:type="㇐" d="M12.78 39.22c2.1.81 4.32.67 5.85.51 5.28-.53 12.24-1.16 20.34-2.41 1.94-.3 3.41-.61 4.8-.31"/><path id="kvg:06a2a-s2" kvg:type="㇑" d="M29.86 14c1.51 1 2.54 3.25 2.54 5.92.0.82-.09 53.48-.23 71.45-.02 2.84-.05 4.83-.07 5.62"/><path id="kvg:06a2a-s3" kvg:type="㇒" d="M31.44 40.28c0 1.22-.55 3.41-.82 4.09-5.17 13.13-7.93 18.31-16.26 30.47"/><path id="kvg:06a2a-s4" kvg:type="㇔" d="M35 50.12c2.51 1.56 6.63 6.61 8.75 9.62"/></g><g id="kvg:06a2a-g2" kvg:element="黄" kvg:position="right" kvg:phon="黄"><g id="kvg:06a2a-g3" kvg:element="龷"><path id="kvg:06a2a-s5" kvg:type="㇐" d="M47.41 27.18c1.37.37 3.89.26 5.26.12C63.5 26.12 74 24.75 86.54 23.84c2.28-.16 3.91-.08 5.05.11"/><path id="kvg:06a2a-s6" kvg:type="㇑a" d="M55.87 14.6c1.26.78 2.01 2.28 2.08 3.78.25 5.44.88 13.43 1.66 22.92"/><path id="kvg:06a2a-s7" kvg:type="㇑a" d="M77.66 11.88c1.1 1.1 1.46 2.24 1.3 4.19-.44 5.44-1.29 13.28-2.37 23.38"/><path id="kvg:06a2a-s8" kvg:type="㇐" d="M42.88 42.99c1.92.53 5.46.52 7.37.28 13-1.64 27.5-3.14 40.78-3.65 3.2-.12 5.12.26 6.73.52"/></g><g id="kvg:06a2a-g4" kvg:element="由"><path id="kvg:06a2a-s9" kvg:type="㇑" d="M49.42 52.37c.73.73 1.2 1.63 1.33 2.9.52 5.22 1.63 13.11 2.4 20.97.16 1.61.35 2.25.43 3.5"/><path id="kvg:06a2a-s10" kvg:type="㇕a" d="M51.01 53.23c10.03-.99 29.26-3.12 35.08-3.24 2.76-.06 4.29 1.14 4.01 3.56-.46 4.04-1.55 11.24-2.71 18.36-.23 1.38-.47 2.75-.75 4.08"/><path id="kvg:06a2a-s11" kvg:type="㇑a" d="M67 42.84c.66.41 1.68 1.53 1.68 2.91.0 8.39.14 26.08.14 28.33"/><path id="kvg:06a2a-s12" kvg:type="㇐a" d="M53.62 64.32c3.05-.46 28.67-3.19 34.01-3.19"/><path id="kvg:06a2a-s13" kvg:type="㇐a" d="M54.62 76.38c9.64-.97 19.7-1.8 30.85-2.4"/></g><g id="kvg:06a2a-g5" kvg:element="八"><path id="kvg:06a2a-s14" kvg:type="㇒" d="M60.5 81.25c.11.99.09 1.7-.5 2.51C56.88 88 53.21 92.34 45 97.5"/><path id="kvg:06a2a-s15" kvg:type="㇔" d="M76.5 84c5.73 2.38 12.38 8.25 16.25 13.5"/></g></g></g></g></svg>