<!DOCTYPE svg PUBLIC "-//W3C//DTD SVG 1.0//EN" "http://www.w3.org/TR/2001/REC-SVG-20010904/DTD/svg10.dtd" [
<!ATTLIST g
xmlns:kvg CDATA #FIXED "http://kanjivg.tagaini.net"
kvg:element CDATA #IMPLIED
kvg:variant CDATA #IMPLIED
kvg:partial CDATA #IMPLIED
kvg:original CDATA #IMPLIED
kvg:part CDATA #IMPLIED
kvg:number CDATA #IMPLIED
kvg:tradForm CDATA #IMPLIED
kvg:radicalForm CDATA #IMPLIED
kvg:position CDATA #IMPLIED
kvg:radical CDATA #IMPLIED
kvg:phon CDATA #IMPLIED >
<!ATTLIST path
xmlns:kvg CDATA #FIXED "http://kanjivg.tagaini.net"
kvg:type CDATA #IMPLIED >
]><svg xmlns="http://www.w3.org/2000/svg" width="109" height="109" viewBox="0 0 109 109"><g id="kvg:StrokePaths_06a23" style="fill:none;stroke:#000000;stroke-width:3;stroke-linecap:round;stroke-linejoin:round;"><g id="kvg:06a23" kvg:element="樣"><g id="kvg:06a23-g1" kvg:element="木" kvg:position="left" kvg:radical="general"><path id="kvg:06a23-s1" kvg:type="㇐" d="M10.28 34.02c.39.27 2.69.46 3.73.35 4.44-.46 16.54-.23 23.68-1.59 1.03-.2 2.42-.27 3.07.0"/><path id="kvg:06a23-s2" kvg:type="㇑" d="M27.36 13.5c.91.47 2.54 2.25 2.54 4.42.0.95-.12 71.75-.3 77.58"/><path id="kvg:06a23-s3" kvg:type="㇒" d="M29.69 37.53c-5.9 17-9.19 24.18-18.33 39.06"/><path id="kvg:06a23-s4" kvg:type="㇔/㇏" d="M31.97 48.4c2.37 1.59 6.28 7.76 8.28 10.85"/></g><g id="kvg:06a23-g2" kvg:position="right"><g id="kvg:06a23-g3" kvg:element="羊" kvg:variant="true" kvg:position="top"><g id="kvg:06a23-g4" kvg:element="䒑"><path id="kvg:06a23-s5" kvg:type="㇔" d="M49.71 12.06c2.96 1.62 7.65 6.67 8.4 9.19"/><path id="kvg:06a23-s6" kvg:type="㇒" d="M78.12 10.39c.03.28.05.71-.04 1.11-.55 2.33-3.73 7.45-8.09 10.58"/><path id="kvg:06a23-s7" kvg:type="㇐" d="M47.33 27.05c.73.13 2.06.15 2.79.13 7.02-.19 28.27-2.06 35.02-2.24 1.21-.03 1.94.06 2.54.13"/></g><path id="kvg:06a23-s8" kvg:type="㇑a" d="M65.17 28.8c.72.42 1.31 1.86 1.31 2.72.0 4.88-.15 5.15-.15 14.37"/><path id="kvg:06a23-s9" kvg:type="㇐" d="M49.1 37.54c.71.32 2 .37 2.71.32 6.31-.42 24.15-3.28 30.52-3.16 1.18.02 1.89.15 2.48.31"/><path id="kvg:06a23-s10" kvg:type="㇐" d="M42.63 47.45c1.33.4 3.77.51 5.1.4 8.09-.7 27.41-2.7 41.99-3.52 2.21-.12 3.55.19 4.65.39"/></g><g id="kvg:06a23-g5" kvg:element="永" kvg:position="bottom"><g id="kvg:06a23-g6" kvg:element="丶" kvg:position="top"><path id="kvg:06a23-s11" kvg:type="㇐/㇔" d="M59.73 50.5c4.28 1.47 7.7 3.5 8.99 5.53"/></g><g id="kvg:06a23-g7" kvg:element="水" kvg:variant="true" kvg:position="bottom"><path id="kvg:06a23-s12" kvg:type="㇆" d="M52.01 62.92c.01.07 1.07.64 2.62.47 2.87-.32 7.15-1.26 9.95-1.26 1.48.0 3.29.58 3.14 2.44-.67 7.9-.33 27.78-.33 30.39.0 5.29-5.4-.71-6.76-1.91"/><path id="kvg:06a23-s13" kvg:type="㇇" d="M42.64 73.68c1.07.13 2.31.52 3.37.26 1.06-.26 8.78-1.14 10.55-1.66s2.3 1.42 1.66 2.56C54.79 81 49.5 86 41.87 91.43"/><path id="kvg:06a23-s14" kvg:type="㇒" d="M86.96 60.53c.07.33.13.9-.15 1.33-2.62 4.07-8.46 9.47-13.2 11.59"/><path id="kvg:06a23-s15" kvg:type="㇏" d="M70.2 71.62c7.55 6.88 14.55 14.13 21.56 19.42 1.25.94 2.61 1.21 3.84 1.49"/></g></g></g></g></g><g id="kvg:StrokeNumbers_06a23" style="font-size:8;fill:#808080"><text transform="matrix(1 0 0 1 4.50 34.00)">1</text><text transform="matrix(1 0 0 1 18.50 13.50)">2</text><text transform="matrix(1 0 0 1 20.50 44.50)">3</text><text transform="matrix(1 0 0 1 33.50 47.50)">4</text><text transform="matrix(1 0 0 1 42.50 12.50)">5</text><text transform="matrix(1 0 0 1 70.50 10.50)">6</text><text transform="matrix(1 0 0 1 40.25 26.50)">7</text><text transform="matrix(1 0 0 1 59.12 33.38)">8</text><text transform="matrix(1 0 0 1 43.25 35.88)">9</text><text transform="matrix(1 0 0 1 39.50 44.50)">10</text><text transform="matrix(1 0 0 1 52.50 55.50)">11</text><text transform="matrix(1 0 0 1 45.50 59.50)">12</text><text transform="matrix(1 0 0 1 38.50 70.50)">13</text><text transform="matrix(1 0 0 1 76.50 59.50)">14</text><text transform="matrix(1 0 0 1 79.50 78.50)">15</text></g></svg>