<svg xmlns="http://www.w3.org/2000/svg" width="109" height="109" viewBox="0 0 109 109"><g id="kvg:StrokePaths_06a4b"><g id="kvg:06a4b" kvg:element="橋"><g id="kvg:06a4b-g1" kvg:element="木" kvg:position="left" kvg:radical="general"><path id="kvg:06a4b-s1" kvg:type="㇐" d="M11.65 37.72c2.35.53 4.47.56 6.11.38 7.29-.81 12.54-2.11 20.1-3.23 1.19-.17 2.78-.24 3.52.0"/><path id="kvg:06a4b-s2" kvg:type="㇑" d="M28.1 14.75c1.33 1.33 1.73 3.12 1.73 5.17.0 4.43-.03 50.19-.04 69.2.0 3.3.0 5.79.0 7.12"/><path id="kvg:06a4b-s3" kvg:type="㇒" d="M29.13 38.03c0 .97-.28 2.88-.54 3.55-5.29 13.68-8.98 21.45-17.01 32.26"/><path id="kvg:06a4b-s4" kvg:type="㇔" d="M32.88 45.25c2.08 1.58 5.5 6.69 7.25 9.75"/></g><g id="kvg:06a4b-g2" kvg:element="喬" kvg:position="right" kvg:phon="喬"><g id="kvg:06a4b-g3" kvg:element="呑" kvg:position="top"><g id="kvg:06a4b-g4" kvg:element="夭"><g id="kvg:06a4b-g5" kvg:element="丿"><path id="kvg:06a4b-s5" kvg:type="㇒" d="M77.25 10.75c0 .99-.59 1.85-1.21 2.5-3.46 3.65-13.06 7.73-25.86 10.79"/></g><g id="kvg:06a4b-g6" kvg:element="大"><path id="kvg:06a4b-s6" kvg:type="㇐" d="M45.55 33.13c2.19.45 4.51.46 6.69.06 9.38-1.69 22.4-3.55 31.14-4.32 2.47-.22 4.88-.23 7.34.05"/><path id="kvg:06a4b-s7" kvg:type="㇒" d="M65.6 22.44c.58.83.1 2.26-.27 3.05C59.51 38.12 54.42 44.83 46.5 51.55"/><path id="kvg:06a4b-s8" kvg:type="㇏" d="M71.22 31.52c4.98 3.98 15.76 13.35 20.73 16.01 1.69.9 2.28 1.04 3.05 1.13"/></g></g><g id="kvg:06a4b-g7" kvg:element="口"><path id="kvg:06a4b-s9" kvg:type="㇑" d="M54.59 44.91c.63.63 1.46 1.33 1.77 2.45.67 2.41 1.09 4.98 1.48 7.36.2 1.23.39 2.4.61 3.48"/><path id="kvg:06a4b-s10" kvg:type="㇕b" d="M55.92 45.8c6.07-1.23 16.8-2.57 20.23-3.21 1.83-.34 2.66 1.29 2.27 2.7-.59 2.12-1.01 3.69-1.77 7.51"/><path id="kvg:06a4b-s11" kvg:type="㇐b" d="M59.26 55.83c3.25-.6 9.2-1.11 14.75-1.69 1.34-.14 2.65-.28 3.89-.43"/></g></g><g id="kvg:06a4b-g8" kvg:element="冋" kvg:position="bottom"><g id="kvg:06a4b-g9" kvg:element="冂"><path id="kvg:06a4b-s12" kvg:type="㇑" d="M44.5 64.5c1.06 1.06 1.66 2.47 1.86 3.91.62 4.49 1.7 15.37 2.4 22.46.17 1.74.32 3.25.42 4.38"/><path id="kvg:06a4b-s13" kvg:type="㇆a" d="M47 66.25c6.38-.45 40.56-3.83 41.77-3.98 3.23-.4 5.41.81 5.12 4.84-.2 2.74-2.4 17.56-5.19 26.46-1.97 6.28-4.8 3.04-7.79.02"/></g><g id="kvg:06a4b-g10" kvg:element="口"><path id="kvg:06a4b-s14" kvg:type="㇑" d="M57.67 73.72c.62.62 1.1 1.28 1.27 2.09.59 2.82 1 5.4 1.49 8.06.17.94.35 1.89.56 2.86"/><path id="kvg:06a4b-s15" kvg:type="㇕b" d="M59.37 74.48c6.49-1.25 12.97-1.89 16.63-2.62 2.29-.45 3.2.85 2.7 2.72-.7 2.66-1.04 3.44-2.17 7.18"/><path id="kvg:06a4b-s16" kvg:type="㇐b" d="M62.04 84.67c3.62-.63 8.42-1.13 13.37-1.69.94-.11 1.86-.21 2.72-.3"/></g></g></g></g></g></svg>