<!DOCTYPE svg PUBLIC "-//W3C//DTD SVG 1.0//EN" "http://www.w3.org/TR/2001/REC-SVG-20010904/DTD/svg10.dtd" [
<!ATTLIST g
xmlns:kvg CDATA #FIXED "http://kanjivg.tagaini.net"
kvg:element CDATA #IMPLIED
kvg:variant CDATA #IMPLIED
kvg:partial CDATA #IMPLIED
kvg:original CDATA #IMPLIED
kvg:part CDATA #IMPLIED
kvg:number CDATA #IMPLIED
kvg:tradForm CDATA #IMPLIED
kvg:radicalForm CDATA #IMPLIED
kvg:position CDATA #IMPLIED
kvg:radical CDATA #IMPLIED
kvg:phon CDATA #IMPLIED >
<!ATTLIST path
xmlns:kvg CDATA #FIXED "http://kanjivg.tagaini.net"
kvg:type CDATA #IMPLIED >
]><svg xmlns="http://www.w3.org/2000/svg" width="109" height="109" viewBox="0 0 109 109"><g id="kvg:StrokePaths_06a47" style="fill:none;stroke:#000000;stroke-width:3;stroke-linecap:round;stroke-linejoin:round;"><g id="kvg:06a47" kvg:element="橇"><g id="kvg:06a47-g1" kvg:element="木" kvg:position="left" kvg:radical="general"><path id="kvg:06a47-s1" kvg:type="㇐" d="M9.78 37.22c.35.24 2.39.41 3.31.31 3.94-.41 16.62-1.21 22.95-2.41.92-.17 2.15-.24 2.73.0"/><path id="kvg:06a47-s2" kvg:type="㇑" d="M26.36 15.5c.91.47 2.04 2.25 2.04 4.42.0.95-.12 72.25-.3 78.08"/><path id="kvg:06a47-s3" kvg:type="㇒" d="M27.94 37.78c-5.1 15.04-9.94 22.4-17.83 35.56"/><path id="kvg:06a47-s4" kvg:type="㇔/㇏" d="M30.47 46.4c2.78 1.75 6.18 5.22 8.53 8.6"/></g><g id="kvg:06a47-g2" kvg:element="毳" kvg:position="right"><g id="kvg:06a47-g3" kvg:element="毛" kvg:position="top"><path id="kvg:06a47-s5" kvg:type="㇒" d="M77.77 11c-.27.75-.66 1.26-1.16 1.56-4.72 2.83-14.48 6.7-26.86 9.62"/><path id="kvg:06a47-s6" kvg:type="㇐" d="M47.5 29.07c.92.27 2.6.35 3.51.27 9.52-.84 22.54-3.28 30.41-3.9 1.51-.12 2.44.13 3.21.26"/><path id="kvg:06a47-s7" kvg:type="㇐" d="M44.13 38.56c1.01.19 3.93.3 4.93.19 11.19-1.25 30.27-4.42 39.38-4.85 1.67-.08 3.76.09 4.6.18"/><path id="kvg:06a47-s8" kvg:type="㇟" d="M64.49 19.33c.53.53.96 1.15.99 1.96.14 3.63-.52 18.39-.52 20.62.0 5.88 3.15 6.11 13.72 6.11 13.28.0 12.83-1.12 12.83-5.01"/></g><g id="kvg:06a47-g4" kvg:position="bottom"><g id="kvg:06a47-g5" kvg:element="毛" kvg:position="left"><path id="kvg:06a47-s9" kvg:type="㇒" d="M57.11 54c.05.22.19.63-.09.88-2.68 2.36-8.8 6.01-15.83 8.44"/><path id="kvg:06a47-s10" kvg:type="㇐" d="M36.8 71.55c.58.19 1.64.22 2.22.19 5.33-.22 14.24-2.4 19.22-2.85.95-.09 1.54.09 2.02.19"/><path id="kvg:06a47-s11" kvg:type="㇐" d="M34.63 81.58c.58.17 2.25.21 2.82.17 7.22-.57 17.03-3.55 22.25-3.94.95-.07 2.15.08 2.63.16"/><path id="kvg:06a47-s12" kvg:type="㇟" d="M48.26 63.39c.32.61.57 1.32.59 2.25.09 4.16-.31 21.07-.31 23.63.0 6.74 1.89 7.01 8.21 7.01 7.95.0 7.68-1.29 7.68-5.74"/></g><g id="kvg:06a47-g6" kvg:element="毛" kvg:position="right"><path id="kvg:06a47-s13" kvg:type="㇒" d="M89.45 53c.05.22.23.63-.11.88-3.11 2.35-10.21 5.99-18.38 8.41"/><path id="kvg:06a47-s14" kvg:type="㇐" d="M69.35 69.11c.61.16 1.74.21 2.35.16 6.38-.51 15.12-2 20.4-2.38 1.01-.07 1.64.08 2.15.16"/><path id="kvg:06a47-s15" kvg:type="㇐" d="M68.63 79.77c.61.14 2.37.18 2.98.14 7.63-.48 18-2.98 23.5-3.31 1.01-.06 2.27.07 2.78.14"/><path id="kvg:06a47-s16" kvg:type="㇟" d="M80.46 61.58c.38.64.67 1.4.7 2.39.1 4.42-.37 22.39-.37 25.11.0 7.16 2.22 7.45 9.67 7.45 9.36.0 9.05-1.37 9.05-6.1"/></g></g></g></g></g><g id="kvg:StrokeNumbers_06a47" style="font-size:8;fill:#808080"><text transform="matrix(1 0 0 1 4.50 38.50)">1</text><text transform="matrix(1 0 0 1 16.66 15.50)">2</text><text transform="matrix(1 0 0 1 17.71 46.50)">3</text><text transform="matrix(1 0 0 1 33.50 46.85)">4</text><text transform="matrix(1 0 0 1 69.50 10.50)">5</text><text transform="matrix(1 0 0 1 39.50 29.50)">6</text><text transform="matrix(1 0 0 1 41.50 35.50)">7</text><text transform="matrix(1 0 0 1 57.50 26.50)">8</text><text transform="matrix(1 0 0 1 49.50 53.50)">9</text><text transform="matrix(1 0 0 1 31.50 68.50)">10</text><text transform="matrix(1 0 0 1 32.50 79.50)">11</text><text transform="matrix(1 0 0 1 51.50 66.50)">12</text><text transform="matrix(1 0 0 1 76.25 54.73)">13</text><text transform="matrix(1 0 0 1 63.50 67.50)">14</text><text transform="matrix(1 0 0 1 64.50 77.50)">15</text><text transform="matrix(1 0 0 1 83.50 64.50)">16</text></g></svg>