<svg xmlns="http://www.w3.org/2000/svg" width="109" height="109" viewBox="0 0 109 109"><g id="kvg:StrokePaths_06a44"><g id="kvg:06a44" kvg:element="橄"><g id="kvg:06a44-g1" kvg:element="木" kvg:position="left" kvg:radical="general"><path id="kvg:06a44-s1" kvg:type="㇐" d="M9.28 39.72c.35.24 2.39.41 3.31.31 3.94-.41 14.12-1.21 20.45-2.41.92-.17 2.15-.24 2.73.0"/><path id="kvg:06a44-s2" kvg:type="㇑" d="M23.86 15.5c.91.47 2.04 2.5 2.04 4.42.0.95-.12 70.75-.3 76.58"/><path id="kvg:06a44-s3" kvg:type="㇒" d="M25.44 40.28c-5.1 15.04-7.94 21.4-15.83 34.56"/><path id="kvg:06a44-s4" kvg:type="㇔/㇏" d="M28.72 47.9c2.45 1.76 5.46 7.45 7.53 10.85"/></g><g id="kvg:06a44-g2" kvg:element="敢" kvg:position="right"><g id="kvg:06a44-g3" kvg:position="left"><path id="kvg:06a44-s5" kvg:type="㇐" d="M38.1 19.54c.86.14 2.43.18 3.29.14 5.47-.24 15.1-1.18 20.45-1.7 1.42-.14 2.29.07 3.01.13"/><path id="kvg:06a44-s6" kvg:type="㇑" d="M50.16 19c.73.32 1.78 1.9 1.77 2.82-.05 2.92-.05 7.88-.06 10.54"/><g id="kvg:06a44-g4" kvg:element="耳"><path id="kvg:06a44-s7" kvg:type="㇐" d="M35.77 32.7c.78.55 2.2.59 3 .55 7.38-.39 18.29-1.51 26.9-2.4 1.3-.13 2.08.26 2.74.53"/><path id="kvg:06a44-s8" kvg:type="㇑a" d="M43.56 35.75c.23.6.58.6.58 1.6s-.12 38.16-.12 41.77"/><path id="kvg:06a44-s9" kvg:type="㇐a" d="M44.45 47.67c2.24.0 11.33-.91 15.17-.91"/><path id="kvg:06a44-s10" kvg:type="㇐a" d="M44.22 61.29c2.77.0 11.51-1.21 15.55-1.21"/><path id="kvg:06a44-s11" kvg:type="㇀" d="M36.45 80.62c.23.72 2.28 1.33 3.05.95 8.55-4.32 14.45-7.32 20.45-10.57"/><path id="kvg:06a44-s12" kvg:type="㇑" d="M59.39 34.55c.23.8.58.6.58 1.6s.12 52.39.12 60.61"/></g></g><g id="kvg:06a44-g5" kvg:element="攵" kvg:variant="true" kvg:original="攴" kvg:position="right"><g id="kvg:06a44-g6" kvg:element="𠂉" kvg:position="top"><path id="kvg:06a44-s13" kvg:type="㇒" d="M79.2 16.18c.04.83.23 2.19-.07 3.33-1.92 7.31-6.24 21.74-12.89 31.86"/><path id="kvg:06a44-s14" kvg:type="㇐" d="M77.1 36.44c.44.41 1.24.46 1.68.41 4.55-.47 12.47-1.85 16.14-2.22.78-.08 1.26-.02 1.46.08"/></g><g id="kvg:06a44-g7" kvg:element="乂" kvg:position="bottom"><g id="kvg:06a44-g8" kvg:element="丿"><path id="kvg:06a44-s15" kvg:type="㇒" d="M86.8 39.02c.32 1.34.61 2.33.16 4.73C82.89 65.69 79.75 80 67.07 93.46"/></g><path id="kvg:06a44-s16" kvg:type="㇏" d="M69.78 48.43C74.25 59.5 87.2 82.62 94.71 91.64c1.44 1.74 2.36 2.02 3.54 2.21"/></g></g></g></g></g></svg>