<svg xmlns="http://www.w3.org/2000/svg" width="109" height="109" viewBox="0 0 109 109"><g id="kvg:StrokePaths_06aa3" style="fill:none;stroke:#000000;stroke-width:3;stroke-linecap:round;stroke-linejoin:round;"><g id="kvg:06aa3" kvg:element="檣"><g id="kvg:06aa3-g1" kvg:element="木" kvg:position="left" kvg:radical="general"><path id="kvg:06aa3-s1" kvg:type="㇐" d="M12.03 39.47c.36.24 2.47.41 3.42.31 4.08-.41 16.68-1.71 23.24-2.91.95-.17 2.23-.24 2.82.0"/><path id="kvg:06aa3-s2" kvg:type="㇑" d="M28.11 14.75c.91.47 2.04 2.75 2.04 4.42.0.95-.12 72.25-.3 78.08"/><path id="kvg:06aa3-s3" kvg:type="㇒" d="M29.69 40.53c-5.81 16.23-11.33 23.1-20.33 37.31"/><path id="kvg:06aa3-s4" kvg:type="㇔/㇏" d="M32.22 49.15c2.37 1.59 5.28 5.76 7.28 8.85"/></g><g id="kvg:06aa3-g2" kvg:element="嗇" kvg:position="right"><g id="kvg:06aa3-g3" kvg:element="巫" kvg:variant="true" kvg:position="top"><g id="kvg:06aa3-g4" kvg:element="工" kvg:part="1" kvg:variant="true"><g id="kvg:06aa3-g5" kvg:element="土" kvg:part="1"><path id="kvg:06aa3-s5" kvg:type="㇐" d="M47.12 26.19c.93.41 3.96.54 4.9.42 4.37-.56 29.96-2.46 37.3-2.89 1.43-.08 2.74.08 3.92.43"/><path id="kvg:06aa3-s6" kvg:type="㇑" d="M67.46 13c1.57 2.01 1.57 3.22 1.57 4.83.0 6.17-.05 28.92-.05 36.92"/></g></g><g id="kvg:06aa3-g6" kvg:element="从"><g id="kvg:06aa3-g7" kvg:element="人" kvg:position="left"><path id="kvg:06aa3-s7" kvg:type="㇒" d="M54.64 33.99c.11.41.08 1.31-.07 1.77-1.48 4.49-3.81 10.33-8.38 14.61"/><path id="kvg:06aa3-s8" kvg:type="㇏" d="M55.68 41.41c2.21 1.2 5.04 4.38 6.12 7.4"/></g><g id="kvg:06aa3-g8" kvg:element="人" kvg:position="right"><path id="kvg:06aa3-s9" kvg:type="㇒" d="M85.22 30.74c.12.42.09 1.35-.08 1.83-1.68 4.62-4.31 10.65-9.47 15.06"/><path id="kvg:06aa3-s10" kvg:type="㇏" d="M84.65 39.88c2.82 1.24 6.41 4.54 7.78 7.67"/></g></g><g id="kvg:06aa3-g9" kvg:element="工" kvg:part="2" kvg:variant="true"><g id="kvg:06aa3-g10" kvg:element="土" kvg:part="2"><path id="kvg:06aa3-s11" kvg:type="㇐" d="M46.25 56.21c.67.22 3.04.45 4.17.35 12.14-1.09 30.89-2.71 41.94-3.04 1.81-.05 3.99.37 4.89.72"/></g></g></g><g id="kvg:06aa3-g11" kvg:element="回" kvg:position="bottom"><g id="kvg:06aa3-g12" kvg:element="囗" kvg:part="1"><path id="kvg:06aa3-s12" kvg:type="㇑" d="M49.31 65.33c.56.73.61 1.51.77 2.43 1.17 6.99 2.49 17.28 3.64 29.49"/><path id="kvg:06aa3-s13" kvg:type="㇕a" d="M50.42 66.5c10.87-1.29 33.04-3.25 39.85-3.25 1.55.0 3.15 2.22 2.97 3.69-.84 6.96-3.5 20.31-6.09 29.1"/></g><g id="kvg:06aa3-g13" kvg:element="口"><path id="kvg:06aa3-s14" kvg:type="㇑" d="M61.19 73.29c.27.21.55.39.66.66.93 2.13 1.38 7.92 2.17 11.75"/><path id="kvg:06aa3-s15" kvg:type="㇕b" d="M62.86 74.18c5.5-1.11 10.72-1.89 13.87-2.17 1.15-.1 1.84.61 1.68 1.21-.68 2.49-1.1 5.95-2.11 9.39"/><path id="kvg:06aa3-s16" kvg:type="㇐b" d="M64.19 84.19c3.99-.55 8.18-.78 13.27-1.27"/></g><g id="kvg:06aa3-g14" kvg:element="囗" kvg:part="2"><path id="kvg:06aa3-s17" kvg:type="㇐a" d="M53.86 94.72c8.22-.29 24.05-1.27 34.19-2.06"/></g></g></g></g></g></svg>