<svg xmlns="http://www.w3.org/2000/svg" width="109" height="109" viewBox="0 0 109 109"><g id="kvg:StrokePaths_06ac1"><g id="kvg:06ac1" kvg:element="櫁"><g id="kvg:06ac1-g1" kvg:element="木" kvg:position="left" kvg:radical="general"><path id="kvg:06ac1-s1" kvg:type="㇐" d="M11.28 36.72c.35.24 2.39.41 3.31.31 3.94-.41 14.12-1.21 20.45-2.41.92-.17 2.15-.24 2.73.0"/><path id="kvg:06ac1-s2" kvg:type="㇑" d="M25.36 15.5c.91.47 2.54 2.25 2.54 4.42.0.95-.12 70.75-.3 76.58"/><path id="kvg:06ac1-s3" kvg:type="㇒" d="M27.44 41.28c-5.1 15.04-7.94 20.4-15.83 33.56"/><path id="kvg:06ac1-s4" kvg:type="㇔/㇏" d="M30.22 49.65c2.16 1.88 5.71 7.97 7.53 11.6"/></g><g id="kvg:06ac1-g2" kvg:element="蜜" kvg:position="right"><g id="kvg:06ac1-g3" kvg:element="宓" kvg:position="top"><g id="kvg:06ac1-g4" kvg:element="宀"><path id="kvg:06ac1-s5" kvg:type="㇑a" d="M64.67 11.54c.92.36 2.24 2.31 2.21 3.5-.07 3.75-.06 6.85-.06 10.26"/><g id="kvg:06ac1-g5" kvg:element="冖"><path id="kvg:06ac1-s6" kvg:type="㇔" d="M44.75 25.03c0 3.34-2.61 12.65-3.58 14.93"/><path id="kvg:06ac1-s7" kvg:type="㇖b" d="M45.03 27.91c6.65-1.32 38.86-3.81 44.29-3.94 9.68-.22 1.79 6.78-.31 8.93"/></g></g><g id="kvg:06ac1-g6" kvg:element="必"><g id="kvg:06ac1-g7" kvg:element="心" kvg:part="1" kvg:variant="true"><path id="kvg:06ac1-s8" kvg:type="㇔" d="M62.31 33.48c.85 1.8 3.09 5.33 3.62 2.79"/></g><g id="kvg:06ac1-g8" kvg:element="丿"><path id="kvg:06ac1-s9" kvg:type="㇒" d="M77.45 30.42c.08.63.1 1.61-.16 2.54-2.1 7.55-16.89 21.67-33.25 27.82"/></g><g id="kvg:06ac1-g9" kvg:element="心" kvg:part="2" kvg:variant="true"><path id="kvg:06ac1-s10" kvg:type="㇃" d="M54.91 33.95c5 13.65 10.59 20.8 28.51 23.1 6.31.81 4.81-3.37 2.17-6.23"/><path id="kvg:06ac1-s11" kvg:type="㇔" d="M49.22 40.55c.26 1.54-2.65 8.33-4.77 10.89"/><path id="kvg:06ac1-s12" kvg:type="㇔" d="M86.49 40.44c3.38 1.6 7.4 4.87 8.67 7.98"/></g></g></g><g id="kvg:06ac1-g10" kvg:element="虫" kvg:position="bottom"><g id="kvg:06ac1-g11" kvg:element="中"><g id="kvg:06ac1-g12" kvg:element="口"><path id="kvg:06ac1-s13" kvg:type="㇑" d="M48.82 68.03c.43.33.73 1.13.81 1.56.58 3.11 1.17 7.7 1.99 13.58"/><path id="kvg:06ac1-s14" kvg:type="㇕b" d="M49.95 68.73c6.51-.62 28.76-2.82 33.47-3.06 1.84-.09 1.92.99 1.74 2.37-.42 3.21-1.09 4.58-2.36 9.88"/><path id="kvg:06ac1-s15" kvg:type="㇐b" d="M51.86 80.91c5.24-.62 24.39-2.16 33.09-2.1"/></g><g id="kvg:06ac1-g13" kvg:element="丨"><path id="kvg:06ac1-s16" kvg:type="㇑a" d="M65.59 57.99c.72.33 1.15 1.46 1.29 2.11s0 28.11-.14 32.17"/></g></g><path id="kvg:06ac1-s17" kvg:type="㇀" d="M46.38 94.68c.62 1.07 2.11 1.21 2.95 1.13s31.72-4.21 36.96-4.85"/><path id="kvg:06ac1-s18" kvg:type="㇔" d="M79.67 84.17c4.01 2.29 10.37 9.41 11.38 12.98"/></g></g></g></g></svg>