<svg xmlns="http://www.w3.org/2000/svg" width="109" height="109" viewBox="0 0 109 109"><g id="kvg:StrokePaths_06aea"><g id="kvg:06aea" kvg:element="櫪"><g id="kvg:06aea-g1" kvg:element="木" kvg:position="left" kvg:radical="general"><path id="kvg:06aea-s1" kvg:type="㇐" d="M10.28 34.72c.35.24 2.39.41 3.31.31 3.94-.41 15.12-.21 21.45-1.41.92-.17 2.15-.24 2.73.0"/><path id="kvg:06aea-s2" kvg:type="㇑" d="M25.86 14c.91.47 2.04 2 2.04 4.42.0.95-.12 72.25-.3 78.08"/><path id="kvg:06aea-s3" kvg:type="㇒" d="M26.94 39.28c-5.1 15.04-7.94 21.4-15.83 34.56"/><path id="kvg:06aea-s4" kvg:type="㇔/㇏" d="M29.47 45.9c2.37 1.59 6.28 7.76 8.28 10.85"/></g><g id="kvg:06aea-g2" kvg:element="歴" kvg:variant="true" kvg:position="right"><g id="kvg:06aea-g3" kvg:element="厂" kvg:position="tare"><path id="kvg:06aea-s5" kvg:type="㇐" d="M42.3 18.08c1.16.52 3.3.57 4.46.52 13.49-.6 26.86-1.86 42.04-2.07 1.94-.03 3.1.25 4.07.51"/><path id="kvg:06aea-s6" kvg:type="㇒" d="M46.03 18.75c.04 1.66-.07 3.78-.07 6.17.0 31.58-2.71 50.58-12.15 63.3"/></g><g id="kvg:06aea-g4" kvg:position="tarec"><g id="kvg:06aea-g5" kvg:element="林" kvg:variant="true"><g id="kvg:06aea-g6" kvg:element="禾" kvg:position="left"><g id="kvg:06aea-g7" kvg:element="丿" kvg:position="top"><path id="kvg:06aea-s7" kvg:type="㇒" d="M66.74 23c.04.23.08.58-.08.91-.97 1.91-6.55 6.11-14.18 8.68"/></g><g id="kvg:06aea-g8" kvg:element="木" kvg:position="bottom"><path id="kvg:06aea-s8" kvg:type="㇐" d="M48.81 40.97c.23.11 1.14.4 1.75.33 2.74-.33 11.55-1.41 16.19-1.71.61-.04 1.37.13 1.75.24"/><path id="kvg:06aea-s9" kvg:type="㇑" d="M59.41 32.52c.27.22.43.99.49 1.44.05.44.0 22.78-.05 25.54"/><path id="kvg:06aea-s10" kvg:type="㇒" d="M60.12 40.3C57.75 46.75 54 53.25 48.35 56.88"/><path id="kvg:06aea-s11" kvg:type="㇏" d="M61.01 44.19c2.75 1.32 5.91 3.79 7.17 6.73"/></g></g><g id="kvg:06aea-g9" kvg:element="禾" kvg:position="right"><g id="kvg:06aea-g10" kvg:element="丿" kvg:position="top"><path id="kvg:06aea-s12" kvg:type="㇒" d="M89.04 22c.04.19.08.49-.07.77-.91 1.62-6.15 5.16-13.32 7.33"/></g><g id="kvg:06aea-g11" kvg:element="木" kvg:position="bottom"><path id="kvg:06aea-s13" kvg:type="㇐" d="M72.18 38.73c.21.09 1.07.33 1.64.27 2.57-.27 13.64-1.53 18-1.78.57-.03 1.29.11 1.64.19"/><path id="kvg:06aea-s14" kvg:type="㇑" d="M82.1 30.64c.25.18.41.8.46 1.15s0 25.12-.05 27.34"/><path id="kvg:06aea-s15" kvg:type="㇒" d="M82.32 38.49c-2.45 5.43-7.75 12.63-12.07 16.57"/><path id="kvg:06aea-s16" kvg:type="㇏" d="M82.89 39.91c1.83 2.17 10.19 12.43 12.18 14.56.67.72 1.25 1.03 1.92 1.24"/></g></g></g><g id="kvg:06aea-g12" kvg:element="止"><g id="kvg:06aea-g13" kvg:element="卜" kvg:original="ト"><path id="kvg:06aea-s17" kvg:type="㇑a" d="M68.86 62c.8.45 1.28 2.01 1.44 2.91.16.89.43 19.74.27 25.34"/><path id="kvg:06aea-s18" kvg:type="㇐b" d="M70.67 75.68c5.7-.4 11.57-1.34 17.57-1.61 1.39-.06 1.74-.13 2.62.0"/></g><path id="kvg:06aea-s19" kvg:type="㇑a" d="M53.46 69.51c.76.43 1.22 1.93 1.37 2.78.15.86.32 13.18.17 18.54"/><path id="kvg:06aea-s20" kvg:type="㇐" d="M40.91 91.11c.58.21 2.12.69 3.65.64C53 91.5 79.3 89.5 91.5 89.47c1.54.0 4.21.43 5.09.64"/></g></g></g></g></g></svg>