<svg xmlns="http://www.w3.org/2000/svg" width="109" height="109" viewBox="0 0 109 109"><g id="kvg:StrokePaths_06b23"><g id="kvg:06b23" kvg:element="欣"><g id="kvg:06b23-g1" kvg:element="斤" kvg:position="left" kvg:radical="nelson"><path id="kvg:06b23-s1" kvg:type="㇒" d="M43.15 13.25C43 15 42.13 15.9 40.93 17.04 36 21.75 30.38 26.12 21 32.13"/><path id="kvg:06b23-s2" kvg:type="㇒" d="M18.56 34.04c1.02 1.02 1.26 2.6 1.26 4.47.0 8.99 1.68 30.87-9.91 46.92"/><path id="kvg:06b23-s3" kvg:type="㇐" d="M23.3 44.93c1.53.35 3.31.06 4.83-.14 6.56-.85 13.49-2.02 18.98-2.87 1.84-.29 3.68-.59 5.54-.34"/><path id="kvg:06b23-s4" kvg:type="㇑" d="M36.07 46.66c1.01 1.01 1.29 2.34 1.29 4.19.0.99-.09 23.81-.11 37.28.0 3.16-.01 5.79-.01 7.5"/></g><g id="kvg:06b23-g2" kvg:element="欠" kvg:position="right" kvg:radical="tradit"><g id="kvg:06b23-g3" kvg:position="top"><path id="kvg:06b23-s5" kvg:type="㇒" d="M66.88 15.75C67 17 66.9 18.19 66.55 19.49c-2.05 7.64-6.8 23.76-14.9 35.51"/><path id="kvg:06b23-s6" kvg:type="㇖a" d="M62.82 40.41c1.81.34 3.73.05 5.45-.33 4.98-1.1 19.04-4.25 20.35-4.26 5.24-.05.63 6.43-5.04 11.67"/></g><g id="kvg:06b23-g4" kvg:position="bottom"><path id="kvg:06b23-s7" kvg:type="㇒" d="M68.71 51.25c.42 1.12.44 2.5.13 4.03C66 69.62 61.75 85.25 48.5 95.75"/><path id="kvg:06b23-s8" kvg:type="㇏" d="M68.58 62.25c4.68 6.25 12.32 16.72 18.94 24.37 2.01 2.32 3.96 4.38 6.49 6.13"/></g></g></g></g></svg>