<!DOCTYPE svg PUBLIC "-//W3C//DTD SVG 1.0//EN" "http://www.w3.org/TR/2001/REC-SVG-20010904/DTD/svg10.dtd" [
<!ATTLIST g
xmlns:kvg CDATA #FIXED "http://kanjivg.tagaini.net"
kvg:element CDATA #IMPLIED
kvg:variant CDATA #IMPLIED
kvg:partial CDATA #IMPLIED
kvg:original CDATA #IMPLIED
kvg:part CDATA #IMPLIED
kvg:number CDATA #IMPLIED
kvg:tradForm CDATA #IMPLIED
kvg:radicalForm CDATA #IMPLIED
kvg:position CDATA #IMPLIED
kvg:radical CDATA #IMPLIED
kvg:phon CDATA #IMPLIED >
<!ATTLIST path
xmlns:kvg CDATA #FIXED "http://kanjivg.tagaini.net"
kvg:type CDATA #IMPLIED >
]><svg xmlns="http://www.w3.org/2000/svg" width="109" height="109" viewBox="0 0 109 109"><g id="kvg:StrokePaths_06b3d" style="fill:none;stroke:#000000;stroke-width:3;stroke-linecap:round;stroke-linejoin:round;"><g id="kvg:06b3d" kvg:element="欽"><g id="kvg:06b3d-g1" kvg:element="金" kvg:position="left" kvg:radical="nelson"><path id="kvg:06b3d-s1" kvg:type="㇒" d="M32.25 15.49c0 1.24-.09 2.29-.55 3.46-2.24 5.75-11.89 19.72-20.23 26.18"/><path id="kvg:06b3d-s2" kvg:type="㇔/㇏" d="M34.14 20.46c5.23 2.41 10.73 6.29 14.11 11.04"/><path id="kvg:06b3d-s3" kvg:type="㇐" d="M21.75 42.25c1.63.5 3.37.44 5.03.17 4.1-.65 8.82-1.74 13.59-2.42 1.26-.18 2.36-.25 3.62-.25"/><path id="kvg:06b3d-s4" kvg:type="㇐" d="M15.34 56.81c2.04.56 4.17.59 5.67.38 5.69-.79 14-2.33 20.28-3.12.74-.09 2.38-.38 3.49-.1"/><path id="kvg:06b3d-s5" kvg:type="㇑a" d="M30.7 43.94c1.24.78 1.24 2.52 1.24 3.14.0 4.35.62 33.63.31 37.98"/><path id="kvg:06b3d-s6" kvg:type="㇔" d="M13.89 68.76c4.37 4.66 6.51 9.71 7.4 12.44"/><path id="kvg:06b3d-s7" kvg:type="㇒" d="M46.7 61.8c.05.95-.35 1.82-.66 2.35-1.29 2.23-2.54 4.11-5.87 8.38"/><path id="kvg:06b3d-s8" kvg:type="㇀/㇐" d="M13.75 90.5c1.38.88 2.38.88 4 .25 1.26-.48 13-4.5 26.25-9.5"/></g><g id="kvg:06b3d-g2" kvg:element="欠" kvg:position="right" kvg:radical="tradit"><g id="kvg:06b3d-g3" kvg:position="top"><path id="kvg:06b3d-s9" kvg:type="㇒" d="M66.29 15.75c.04.83-.03 2.17-.32 3.34C64 27 59.75 38.5 51.97 50"/><path id="kvg:06b3d-s10" kvg:type="㇖a" d="M62.11 37.24c1.64.14 2.58.18 3.93-.14 1.64-.39 17.77-3.83 19.32-4.04 5.89-.81.02 8.19-3.89 13.69"/></g><g id="kvg:06b3d-g4" kvg:position="bottom"><path id="kvg:06b3d-s11" kvg:type="㇒" d="M67.03 47c.47.75.63 2.89.37 4.52C65.62 62.38 61.12 82.88 44 94.25"/><path id="kvg:06b3d-s12" kvg:type="㇏" d="M66.62 59.5c3.35 5.23 14.71 20.79 22 28.88 2 2.22 4.02 4.13 6.63 5.62"/></g></g></g></g><g id="kvg:StrokeNumbers_06b3d" style="font-size:8;fill:#808080"><text transform="matrix(1 0 0 1 24.25 16.25)">1</text><text transform="matrix(1 0 0 1 39.25 19.80)">2</text><text transform="matrix(1 0 0 1 26.25 39.25)">3</text><text transform="matrix(1 0 0 1 8.25 57.25)">4</text><text transform="matrix(1 0 0 1 25.00 52.25)">5</text><text transform="matrix(1 0 0 1 7.25 70.25)">6</text><text transform="matrix(1 0 0 1 38.00 64.25)">7</text><text transform="matrix(1 0 0 1 5.25 94.35)">8</text><text transform="matrix(1 0 0 1 57.00 15.25)">9</text><text transform="matrix(1 0 0 1 66.25 33.25)">10</text><text transform="matrix(1 0 0 1 57.25 52.25)">11</text><text transform="matrix(1 0 0 1 71.25 64.25)">12</text></g></svg>