<!DOCTYPE svg PUBLIC "-//W3C//DTD SVG 1.0//EN" "http://www.w3.org/TR/2001/REC-SVG-20010904/DTD/svg10.dtd" [
<!ATTLIST g
xmlns:kvg CDATA #FIXED "http://kanjivg.tagaini.net"
kvg:element CDATA #IMPLIED
kvg:variant CDATA #IMPLIED
kvg:partial CDATA #IMPLIED
kvg:original CDATA #IMPLIED
kvg:part CDATA #IMPLIED
kvg:number CDATA #IMPLIED
kvg:tradForm CDATA #IMPLIED
kvg:radicalForm CDATA #IMPLIED
kvg:position CDATA #IMPLIED
kvg:radical CDATA #IMPLIED
kvg:phon CDATA #IMPLIED >
<!ATTLIST path
xmlns:kvg CDATA #FIXED "http://kanjivg.tagaini.net"
kvg:type CDATA #IMPLIED >
]><svg xmlns="http://www.w3.org/2000/svg" width="109" height="109" viewBox="0 0 109 109"><g id="kvg:StrokePaths_06b38" style="fill:none;stroke:#000000;stroke-width:3;stroke-linecap:round;stroke-linejoin:round;"><g id="kvg:06b38" kvg:element="欸"><g id="kvg:06b38-g1" kvg:element="矣" kvg:position="left"><g id="kvg:06b38-g2" kvg:element="厶" kvg:position="top"><path id="kvg:06b38-s1" kvg:type="㇜" d="M32.04 15c.05.71.1 2.07-.25 2.61C27 25 22.31 32 16.79 37.27c-1.75 1.67-1.68 3.27.81 2.58 7.65-2.11 20.02-5.6 27.2-7.16"/><path id="kvg:06b38-s2" kvg:type="㇔" d="M39.26 25.95c3.93 2.55 10.16 10.47 11.14 14.43"/></g><g id="kvg:06b38-g3" kvg:element="矢" kvg:variant="true" kvg:position="bottom"><path id="kvg:06b38-s3" kvg:type="㇒" d="M23.81 46.02c.03.44.06 1.14-.05 1.78-.66 3.75-4.79 12.98-8.9 16.39"/><g id="kvg:06b38-g4" kvg:element="天" kvg:variant="true"><path id="kvg:06b38-s4" kvg:type="㇐" d="M21.55 55.41c1.22.02 3.1.03 3.95-.01 3.46-.17 13.44-1.25 18.77-1.54 1.4-.08 2.3-.1 3.01-.06"/><g id="kvg:06b38-g5" kvg:element="大" kvg:variant="true"><path id="kvg:06b38-s5" kvg:type="㇐" d="M10.66 72.13c1.2.39 3.74.43 4.52.38 10.32-.76 23.87-2.55 33.26-2.81 1-.03 2.41.1 4.64.57"/><path id="kvg:06b38-s6" kvg:type="㇒" d="M32.06 58.21c.23.58.48 1.12.44 2.24-.5 14.8-6.75 28.3-18.94 35.4"/><path id="kvg:06b38-s7" kvg:type="㇔/㇏" d="M30.8 75.08c5.62 3.1 13.1 9.98 14.93 14.08"/></g></g></g></g><g id="kvg:06b38-g6" kvg:element="欠" kvg:position="right" kvg:radical="general"><g id="kvg:06b38-g7" kvg:position="top"><path id="kvg:06b38-s8" kvg:type="㇒" d="M65.75 15c.04.83.08 2.13-.08 3.31C64.72 25.3 59.3 40.62 51.89 50"/><path id="kvg:06b38-s9" kvg:type="㇖a" d="M62.22 37.49c.91.36 2.64.43 4.01.11 1.67-.39 17.68-4.15 19.26-4.35 8-1 0 9.25-3 13"/></g><g id="kvg:06b38-g8" kvg:position="bottom"><path id="kvg:06b38-s10" kvg:type="㇒" d="M66.6 46c.4 1.75.59 2.56.37 4.3C64.75 68.25 60.5 84 44.25 96.25"/><path id="kvg:06b38-s11" kvg:type="㇏" d="M66.42 57c3.7 8.36 17.04 28.04 23.11 34.96 1.28 1.46 2.25 2.33 3.46 2.79"/></g></g></g></g><g id="kvg:StrokeNumbers_06b38" style="font-size:8;fill:#808080"><text transform="matrix(1 0 0 1 24.50 13.50)">1</text><text transform="matrix(1 0 0 1 40.50 23.55)">2</text><text transform="matrix(1 0 0 1 15.50 51.50)">3</text><text transform="matrix(1 0 0 1 28.50 52.50)">4</text><text transform="matrix(1 0 0 1 3.50 72.50)">5</text><text transform="matrix(1 0 0 1 25.50 64.25)">6</text><text transform="matrix(1 0 0 1 41.50 80.50)">7</text><text transform="matrix(1 0 0 1 56.50 14.50)">8</text><text transform="matrix(1 0 0 1 67.50 34.50)">9</text><text transform="matrix(1 0 0 1 55.50 53.50)">10</text><text transform="matrix(1 0 0 1 72.50 64.50)">11</text></g></svg>