<svg xmlns="http://www.w3.org/2000/svg" width="109" height="109" viewBox="0 0 109 109"><g id="kvg:StrokePaths_06b3e" style="fill:none;stroke:#000000;stroke-width:3;stroke-linecap:round;stroke-linejoin:round;"><g id="kvg:06b3e" kvg:element="款"><g id="kvg:06b3e-g1" kvg:position="left"><g id="kvg:06b3e-g2" kvg:element="士" kvg:position="top"><path id="kvg:06b3e-s1" kvg:type="㇐" d="M13.25 28.93c2.14.76 4.51.34 6.64.01 9.35-1.45 19.28-3.25 26.25-4 2.08-.22 4.05-.44 6.12.0"/><path id="kvg:06b3e-s2" kvg:type="㇑a" d="M32.47 14.17c.81.81 1.09 2.08 1.09 3.66.0 4.17-.06 14.44-.06 19.3"/><path id="kvg:06b3e-s3" kvg:type="㇐" d="M18.04 39.51c1.55.47 3.29.21 4.85-.03 7.36-1.11 16.76-2.23 22.24-2.93 1.8-.23 3.07-.16 4.83.17"/></g><g id="kvg:06b3e-g3" kvg:element="示" kvg:position="bottom"><g id="kvg:06b3e-g4" kvg:position="top"><path id="kvg:06b3e-s4" kvg:type="㇐" d="M22.75 51.7c1.13.46 3.09.38 4.27.15 4.36-.85 9.73-1.98 14.47-2.55 1.3-.16 2.81-.45 4.08-.14"/><path id="kvg:06b3e-s5" kvg:type="㇐" d="M13.83 64.37c1.91.68 4.74.41 6.69.11 7.1-1.11 18.73-2.82 26.85-3.74 1.91-.22 3.86-.24 5.76.17"/></g><g id="kvg:06b3e-g5" kvg:position="bottom"><path id="kvg:06b3e-s6" kvg:type="㇑" d="M33.47 65.19c.74.74 1.23 1.94 1.23 3.57.0 11.12-.07 17.37-.07 21.25.0 9.38-4.5 1.75-6.19.15"/><path id="kvg:06b3e-s7" kvg:type="㇒" d="M21.76 74c.11.99-.04 1.93-.46 2.83-2.43 4.05-6.18 7.67-11.06 12.42"/><path id="kvg:06b3e-s8" kvg:type="㇔" d="M45.38 72.12c1.62 2.01 4.26 8.03 4.66 11.15"/></g></g></g><g id="kvg:06b3e-g6" kvg:element="欠" kvg:position="right" kvg:radical="general"><g id="kvg:06b3e-g7" kvg:position="top"><path id="kvg:06b3e-s9" kvg:type="㇒" d="M65.71 17.75c.06 1.22-.25 2.26-.67 3.39-2.53 6.64-6.45 16.03-12.53 24.61"/><path id="kvg:06b3e-s10" kvg:type="㇖a" d="M61.54 36.49c2.21.51 5.1.05 6.83-.51 5.29-1.69 13.88-4.98 19.78-6.42 5.67-1.39-.86 8.44-4.47 13.19"/></g><g id="kvg:06b3e-g8" kvg:position="bottom"><path id="kvg:06b3e-s11" kvg:type="㇒" d="M69.33 47c.42 1 .54 2.44.37 4.11C68.62 61.56 62.5 85.75 47 95.5"/><path id="kvg:06b3e-s12" kvg:type="㇏" d="M69.19 59.5c4.18 6.12 13.11 19.92 20.33 28.08 2.12 2.4 3.95 4.3 6.72 5.92"/></g></g></g></g></svg>