<svg xmlns="http://www.w3.org/2000/svg" width="109" height="109" viewBox="0 0 109 109"><g id="kvg:StrokePaths_06b4c"><g id="kvg:06b4c" kvg:element="歌"><g id="kvg:06b4c-g1" kvg:position="left"><g id="kvg:06b4c-g2" kvg:element="哥" kvg:position="top" kvg:phon="哥"><g id="kvg:06b4c-g3" kvg:element="可"><g id="kvg:06b4c-g4" kvg:element="丁" kvg:part="1"><g id="kvg:06b4c-g5" kvg:element="一"><path id="kvg:06b4c-s1" kvg:type="㇐" d="M12.87 22.32c1.62.38 4.57.57 6.21.38 8.42-.95 18.04-2.45 27.39-3.16 2.68-.2 4.32.18 5.67.37"/></g></g><g id="kvg:06b4c-g6" kvg:element="口"><path id="kvg:06b4c-s2" kvg:type="㇑" d="M16.65 32.85c.56.41.88.96.97 1.65.62 2.03 1.31 5.53 1.85 8.42.19 1 .35 1.96.49 2.84"/><path id="kvg:06b4c-s3" kvg:type="㇕b" d="M18.75 34.28c4.65-.96 11.62-2.38 14.17-2.62 1.1-.1 1.76.61 1.6 1.22-.5 1.92-1.31 5.39-1.98 7.88"/><path id="kvg:06b4c-s4" kvg:type="㇐b" d="M20.83 43.36c2.68-.24 5.82-.99 9.42-1.31 1.15-.1 2.32-.21 3.49-.33"/></g><g id="kvg:06b4c-g7" kvg:element="丁" kvg:part="2" kvg:position="bottom"><g id="kvg:06b4c-g8" kvg:element="亅" kvg:variant="true"><path id="kvg:06b4c-s5" kvg:type="㇑/㇚" d="M44 21.37c.03.26.98 1.35 1.01 3 .12 5.81.06 14.91-.02 20.39-.03 1.96-.06 3.46-.08 4.17"/></g></g></g><g id="kvg:06b4c-g9" kvg:element="可"><g id="kvg:06b4c-g10" kvg:element="丁" kvg:part="1"><g id="kvg:06b4c-g11" kvg:element="一"><path id="kvg:06b4c-s6" kvg:type="㇐" d="M9.63 54.68c1.45.39 4.92.56 6.39.39C25.38 54 36.5 52 47.8 50.96c2.4-.22 3.87.19 5.08.39"/></g></g><g id="kvg:06b4c-g12" kvg:element="口"><path id="kvg:06b4c-s7" kvg:type="㇑" d="M13.93 64.82c.61.45.97 1.05 1.08 1.8.67 2.09 1.17 5.73 1.75 8.83.2 1.06.37 2.08.52 3.01"/><path id="kvg:06b4c-s8" kvg:type="㇕b" d="M16.31 66.05c5-1.02 12.81-2.25 15.54-2.51 1.2-.11 1.91.66 1.74 1.32-.52 2-1.86 6.32-2.56 8.9"/><path id="kvg:06b4c-s9" kvg:type="㇐b" d="M18.16 76.42c3.18-.29 7.53-1.08 11.84-1.48.89-.08 1.79-.17 2.69-.26"/></g><g id="kvg:06b4c-g13" kvg:element="丁" kvg:part="2"><g id="kvg:06b4c-g14" kvg:element="亅"><path id="kvg:06b4c-s10" kvg:type="㇚" d="M43.91 54.26c.06.26.79 1.35.85 3 .27 7.9-.17 31.89-.17 34.59.0 4.66-4.25-.98-6.35-2.12"/></g></g></g></g></g><g id="kvg:06b4c-g15" kvg:element="欠" kvg:position="right" kvg:radical="general"><path id="kvg:06b4c-s11" kvg:type="㇒" d="M66.24 13c.5 1.67.52 3.33.09 4.95C64.43 25.07 61 36.25 56.45 44"/><path id="kvg:06b4c-s12" kvg:type="㇖" d="M62.88 37.4c.81.35 2.59.37 3.82.1 7.3-1.62 13.36-2.99 19.42-4.35 7.82-1.76-.89 10.41-2.12 12.1"/><path id="kvg:06b4c-s13" kvg:type="㇒" d="M68 44.38c.37 1.12.53 2.34.41 3.96C67.6 58.43 63.5 80.33 51.25 91"/><path id="kvg:06b4c-s14" kvg:type="㇏" d="M68.5 61c3.45 4.84 14.8 18.55 21.86 25.13C92 87.66 93.78 89.37 96 90"/></g></g></g></svg>