<svg xmlns="http://www.w3.org/2000/svg" width="109" height="109" viewBox="0 0 109 109"><g id="kvg:StrokePaths_06b5b"><g id="kvg:06b5b" kvg:element="歛"><g id="kvg:06b5b-g1" kvg:element="僉" kvg:position="left"><g id="kvg:06b5b-g2" kvg:element="人" kvg:position="top"><path id="kvg:06b5b-s1" kvg:type="㇒" d="M34.5 12c.06.85.3 2.27-.13 3.41C31.64 22.64 23.92 37.83 11 48.04"/><path id="kvg:06b5b-s2" kvg:type="㇏" d="M34.42 19.79c7.6 3.6 14.44 9.15 18.17 16.07"/></g><g id="kvg:06b5b-g3" kvg:position="bottom"><g id="kvg:06b5b-g4" kvg:element="一"><path id="kvg:06b5b-s3" kvg:type="㇐" d="M24.39 42.09c.82.18 2.32.19 3.15.18 6.3-.05 11.75-1.49 16.81-1.28 1.36.06 2.19.08 2.87.17"/></g><g id="kvg:06b5b-g5" kvg:element="口"><path id="kvg:06b5b-s4" kvg:type="㇑" d="M15.53 53.46c.24.27.48.49.59.82.83 2.63 1.18 9.88 1.75 14.59"/><path id="kvg:06b5b-s5" kvg:type="㇕b" d="M16.64 54.85c6.03-1.2 10.17-2.08 12.96-2.42 1.02-.13 1.63.75 1.49 1.49-.6 3.07-1.31 7.56-2.21 11.8"/><path id="kvg:06b5b-s6" kvg:type="㇐b" d="M17.97 67.34c3.28-.39 7.69-.65 12.19-1.25"/></g><g id="kvg:06b5b-g6" kvg:element="口"><path id="kvg:06b5b-s7" kvg:type="㇑" d="M35.86 51.77c.24.25.49.46.59.78.84 2.5 1.83 9.39 2.41 13.88"/><path id="kvg:06b5b-s8" kvg:type="㇕b" d="M37.36 53.56c5.03-.95 10.88-1.52 13.7-1.85 1.03-.12 1.65.71 1.5 1.42-.61 2.92-1.75 6.76-2.66 10.79"/><path id="kvg:06b5b-s9" kvg:type="㇐b" d="M38.97 65.45c3.31-.37 7.97-1 12.42-1.18"/></g><g id="kvg:06b5b-g7" kvg:element="人"><path id="kvg:06b5b-s10" kvg:type="㇒" d="M25.05 72.04c.17 1.06.11 2.08-.12 2.76C22.89 80.81 18.22 88.76 9.86 96"/><path id="kvg:06b5b-s11" kvg:type="㇏" d="M24.13 79.24c3.11 1.34 7.07 4.92 8.58 8.3"/></g><g id="kvg:06b5b-g8" kvg:element="人"><path id="kvg:06b5b-s12" kvg:type="㇒" d="M45.84 70.87c.18 1.08.11 2.11-.13 2.81-2.1 6.12-6.91 14.2-15.52 21.57"/><path id="kvg:06b5b-s13" kvg:type="㇏" d="M43.85 79.66c3.16 1.4 6.77 4.67 8.31 8.2"/></g></g></g><g id="kvg:06b5b-g9" kvg:element="欠" kvg:position="right" kvg:radical="general"><g id="kvg:06b5b-g10" kvg:position="top"><path id="kvg:06b5b-s14" kvg:type="㇒" d="M67.25 13.5c.03.77.07 1.98-.06 3.08-.77 6.48-5.22 20.71-11.3 29.42"/><path id="kvg:06b5b-s15" kvg:type="㇖a" d="M65.22 32.99c.91.36 2.63.88 4.01.61 4.51-.85 16.18-2.65 17.76-2.85 8-1 .67 9.09-1 11"/></g><g id="kvg:06b5b-g11" kvg:position="bottom"><path id="kvg:06b5b-s16" kvg:type="㇒" d="M69.11 42.5c.05 1.27.12 3.25-.11 5.09C66.75 65.29 64 83 50 96.25"/><path id="kvg:06b5b-s17" kvg:type="㇏" d="M68.42 54.5c3.76 8.97 17.36 30.09 23.55 37.51 1.31 1.56 2.29 2.49 3.53 2.99"/></g></g></g></g></svg>