<!DOCTYPE svg PUBLIC "-//W3C//DTD SVG 1.0//EN" "http://www.w3.org/TR/2001/REC-SVG-20010904/DTD/svg10.dtd" [
<!ATTLIST g
xmlns:kvg CDATA #FIXED "http://kanjivg.tagaini.net"
kvg:element CDATA #IMPLIED
kvg:variant CDATA #IMPLIED
kvg:partial CDATA #IMPLIED
kvg:original CDATA #IMPLIED
kvg:part CDATA #IMPLIED
kvg:number CDATA #IMPLIED
kvg:tradForm CDATA #IMPLIED
kvg:radicalForm CDATA #IMPLIED
kvg:position CDATA #IMPLIED
kvg:radical CDATA #IMPLIED
kvg:phon CDATA #IMPLIED >
<!ATTLIST path
xmlns:kvg CDATA #FIXED "http://kanjivg.tagaini.net"
kvg:type CDATA #IMPLIED >
]><svg xmlns="http://www.w3.org/2000/svg" width="109" height="109" viewBox="0 0 109 109"><g id="kvg:StrokePaths_06b59" style="fill:none;stroke:#000000;stroke-width:3;stroke-linecap:round;stroke-linejoin:round;"><g id="kvg:06b59" kvg:element="歙"><g id="kvg:06b59-g1" kvg:element="翕" kvg:position="left"><g id="kvg:06b59-g2" kvg:element="合" kvg:position="top"><g id="kvg:06b59-g3" kvg:position="top"><g id="kvg:06b59-g4" kvg:element="人"><path id="kvg:06b59-s1" kvg:type="㇒" d="M33.35 12.75c.06.56.29 1.51-.12 2.27-2.82 5.28-8.96 15.09-20.98 21.68"/><path id="kvg:06b59-s2" kvg:type="㇏" d="M34.78 16.95c6.28 1.8 16.28 9.3 20.25 15.35"/></g><g id="kvg:06b59-g5" kvg:element="一"><path id="kvg:06b59-s3" kvg:type="㇐" d="M25.85 31.02c.37.11 2.11.13 2.48.11 3.87-.13 9.03-1.28 14.56-1.3.62.0 1.52.05 1.83.11"/></g></g><g id="kvg:06b59-g6" kvg:element="口" kvg:position="bottom"><path id="kvg:06b59-s4" kvg:type="㇑" d="M20.44 38.93c.36.29.8.97.89 1.34 1.21 4.88 1.74 7.44 2.56 11.51"/><path id="kvg:06b59-s5" kvg:type="㇕b" d="M22.17 40.38c9.08-1.13 19.4-2.67 23.63-3.04 1.55-.14 2.48.8 2.26 1.6-.92 3.3-.97 4.68-2.85 9.29"/><path id="kvg:06b59-s6" kvg:type="㇐b" d="M23.8 50.46c5.72-.32 16.16-1.52 23.45-1.82"/></g></g><g id="kvg:06b59-g7" kvg:element="羽" kvg:variant="true" kvg:position="bottom"><g id="kvg:06b59-g8" kvg:position="left"><path id="kvg:06b59-s7" kvg:type="㇆" d="M12.39 59.72c1.52.73 1.78.73 4.02.49 4.54-.49 9.8-1.73 11.19-1.84 1.57-.12 2.48.48 2.53 2.45.06 2.19-.58 24.94-.58 31.92.0 7.37-5.34.18-6.12-.25"/><path id="kvg:06b59-s8" kvg:type="㇒" d="M21.71 62.48c.03.29.06.75-.05 1.16-.65 2.45-4.36 7.82-9.44 11.11"/><path id="kvg:06b59-s9" kvg:type="㇒" d="M24.83 72.62c.04.36.07.93-.07 1.45-.86 3.06-5.76 9.78-12.47 13.9"/></g><g id="kvg:06b59-g9" kvg:position="right"><path id="kvg:06b59-s10" kvg:type="㇆" d="M34.93 59.47c1.51.75 1.25.75 3.47.51 4.51-.51 10.17-1.67 11.55-1.75 3.1-.18 2.97.9 2.97 3 0 3.36-.83 24.22-.83 31.41.0 7.64-5.31.97-6.08.52"/><path id="kvg:06b59-s11" kvg:type="㇒" d="M44.33 62.25c.02.24.05.63-.04.98-.54 2.06-3.65 6.58-7.91 9.34"/><path id="kvg:06b59-s12" kvg:type="㇒" d="M47.77 71.7c.04.32.07.83-.07 1.29-.83 2.73-5.58 8.72-12.08 12.38"/></g></g></g><g id="kvg:06b59-g10" kvg:element="欠" kvg:position="right" kvg:radical="general"><g id="kvg:06b59-g11" kvg:position="top"><path id="kvg:06b59-s13" kvg:type="㇒" d="M69.25 14.5c.04.86.08 2.22-.08 3.45C68.22 25.24 62.8 41.22 55.39 51"/><path id="kvg:06b59-s14" kvg:type="㇖a" d="M65.72 37.49c.91.36 2.64.93 4.01.61 1.67-.39 18.68-4.65 20.26-4.85 8-1-.83 9.59-2.5 11.5"/></g><g id="kvg:06b59-g12" kvg:position="bottom"><path id="kvg:06b59-s15" kvg:type="㇒" d="M73.62 45c.04 1.16.1 2.97-.09 4.64C71.69 65.78 68.14 82.46 58 94"/><path id="kvg:06b59-s16" kvg:type="㇏" d="M72.42 58c3.45 8.19 15.92 27.49 21.59 34.26 1.2 1.43 2.1 2.28 3.24 2.74"/></g></g></g></g><g id="kvg:StrokeNumbers_06b59" style="font-size:8;fill:#808080"><text transform="matrix(1 0 0 1 26.50 12.50)">1</text><text transform="matrix(1 0 0 1 40.50 17.50)">2</text><text transform="matrix(1 0 0 1 32.50 27.50)">3</text><text transform="matrix(1 0 0 1 15.25 46.50)">4</text><text transform="matrix(1 0 0 1 23.50 37.50)">5</text><text transform="matrix(1 0 0 1 27.50 47.50)">6</text><text transform="matrix(1 0 0 1 6.50 60.18)">7</text><text transform="matrix(1 0 0 1 11.50 68.50)">8</text><text transform="matrix(1 0 0 1 17.25 77.50)">9</text><text transform="matrix(1 0 0 1 34.50 57.95)">10</text><text transform="matrix(1 0 0 1 33.50 67.50)">11</text><text transform="matrix(1 0 0 1 37.50 77.50)">12</text><text transform="matrix(1 0 0 1 57.50 14.50)">13</text><text transform="matrix(1 0 0 1 68.50 34.50)">14</text><text transform="matrix(1 0 0 1 62.50 49.50)">15</text><text transform="matrix(1 0 0 1 76.50 63.50)">16</text></g></svg>