<svg xmlns="http://www.w3.org/2000/svg" width="109" height="109" viewBox="0 0 109 109"><g id="kvg:StrokePaths_06b54" style="fill:none;stroke:#000000;stroke-width:3;stroke-linecap:round;stroke-linejoin:round;"><g id="kvg:06b54" kvg:element="歔"><g id="kvg:06b54-g1" kvg:element="虚" kvg:variant="true" kvg:position="left"><g id="kvg:06b54-g2" kvg:element="虍" kvg:position="tare"><path id="kvg:06b54-s1" kvg:type="㇑a" d="M33.05 12.33c.7.8 1.25 1.74 1.25 4.4.0 5.17-.01 8.18-.01 12.52"/><path id="kvg:06b54-s2" kvg:type="㇐b" d="M34.77 21.27c4.73-.82 11.01-1.79 15.39-2.38 1.48-.2 2.39.18 3.14.37"/><path id="kvg:06b54-s3" kvg:type="㇒" d="M18.58 27.68c.42.58.58 2.75.46 4.82C17.76 54.22 17.5 75 8 91.75"/><path id="kvg:06b54-s4" kvg:type="㇖a" d="M19.09 30.74c1.16.01 2.53-.14 3.75-.22C30.5 30 44.37 27.5 51.61 27.34c7.64-.17 1.62 5.16-.28 7.28"/><g id="kvg:06b54-g3" kvg:element="七"><g id="kvg:06b54-g4" kvg:element="一"><path id="kvg:06b54-s5" kvg:type="㇐" d="M24.69 42.69c.5.37 1.73.45 2.24.37 5.2-.81 15.55-1.57 20.99-2.47.84-.14 1.34.18 1.76.36"/></g><path id="kvg:06b54-s6" kvg:type="㇟a" d="M35.17 35.68c.29.38.68 1.86.68 2.39.0 4.19-.05 6-.05 7.87.0 5.56 2.59 5.56 6.77 5.56 1.56.0 7.64.0 8.98-.75"/></g></g><g id="kvg:06b54-g5" kvg:element="业" kvg:position="tarec"><g id="kvg:06b54-g6" kvg:element="丱"><g id="kvg:06b54-g7" kvg:position="left"><path id="kvg:06b54-s7" kvg:type="㇄" d="M22.64 64.49c.47.4.8 1.37.84 2.7.07 2.4-.13 6.24-.43 11.05-.06.94.39 1.58 1.37 1.2 3.16-1.2 7.39-1.6 8.69-1.7"/><g id="kvg:06b54-g8" kvg:element="丿" kvg:radical="nelson"><path id="kvg:06b54-s8" kvg:type="㇑" d="M32.47 58.83c.59.86 1 1.87 1.05 4.73.24 13.72-.15 22.73-.15 27.4"/></g></g><g id="kvg:06b54-g9" kvg:position="right"><g id="kvg:06b54-g10" kvg:element="丨"><path id="kvg:06b54-s9" kvg:type="㇑" d="M51.73 60.33c.47.4.84 1.87.84 3.2.0 3.67-.62 7-.62 11.93"/></g><path id="kvg:06b54-s10" kvg:type="㇐" d="M42.974479 75.678073c2.792347-.249946 5.288373-.477533 8.614948-.811823"/><path id="kvg:06b54-s11" kvg:type="㇑" d="M40.34 57.58c.58.85.98 1.85 1.03 4.66.24 13.52-.15 21.37-.15 25.97"/></g></g><g id="kvg:06b54-g11" kvg:element="一"><path id="kvg:06b54-s12" kvg:type="㇐" d="M19.42 94.11c.75 1.01 2.04 1.29 2.88 1.01 6.2-2.12 23.95-8.37 31.88-11.07"/></g></g></g><g id="kvg:06b54-g12" kvg:element="欠" kvg:position="right" kvg:radical="tradit"><g id="kvg:06b54-g13" kvg:position="top"><path id="kvg:06b54-s13" kvg:type="㇒" d="M69.5 15c.03.86.06 2.22-.06 3.45-.76 7.28-5.11 23.26-11.06 33.05"/><path id="kvg:06b54-s14" kvg:type="㇖a" d="M66.72 37.51c.78.33 2.27.85 3.45.56 1.44-.35 17.66-4.64 19.02-4.82 6.88-.91-1.64 9.77-3.08 11.51"/></g><g id="kvg:06b54-g14" kvg:position="bottom"><path id="kvg:06b54-s15" kvg:type="㇒" d="M71.1 46c.65 1 .53 3.01.37 4.73C70 67.5 66.25 83.75 49.75 96.5"/><path id="kvg:06b54-s16" kvg:type="㇏" d="M70.42 59.5c3.42 8.08 15.76 27.11 21.37 33.8 1.18 1.41 2.08 2.25 3.2 2.7"/></g></g></g></g></svg>