<svg xmlns="http://www.w3.org/2000/svg" width="109" height="109" viewBox="0 0 109 109"><g id="kvg:StrokePaths_06b64" style="fill:none;stroke:#000000;stroke-width:3;stroke-linecap:round;stroke-linejoin:round;"><g id="kvg:06b64" kvg:element="此"><g id="kvg:06b64-g1" kvg:element="止" kvg:position="left" kvg:radical="general"><g id="kvg:06b64-g2" kvg:element="卜" kvg:original="ト"><path id="kvg:06b64-s1" kvg:type="㇑" d="M32.62 20.25c.94.94 1.21 2.12 1.21 3.5.0 1.02-.08 47.75-.08 58.5"/><path id="kvg:06b64-s2" kvg:type="㇐" d="M34.88 50c4.21-.65 9.54-1.49 13.98-2.2 1.36-.32 2.74-.42 4.14-.3"/></g><path id="kvg:06b64-s3" kvg:type="㇑" d="M16.62 51.5c1.13 1.13 1.21 2.75 1.21 4.5.0 5.5.05 27 .05 34.38"/><path id="kvg:06b64-s4" kvg:type="㇀/㇐" d="M12 91.75c1.66.99 3.26 1.12 4.8.39C31 85.12 38.38 81.25 51.75 73.75"/></g><g id="kvg:06b64-g3" kvg:element="匕" kvg:position="right"><path id="kvg:06b64-s5" kvg:type="㇒" d="M88.29 37.81c-.41 1.31-1.16 2.06-1.99 2.73C82.48 43.64 75.62 47.25 66 51"/><path id="kvg:06b64-s6" kvg:type="㇟" d="M60.75 15c1 1 1.26 1.95 1.26 3.57.0 3.18.11 48.43.11 59.35.0 9.49 2.25 11.34 15.72 11.34 13.33.0 14.66-1.68 14.66-10.6"/></g></g></g></svg>