<!DOCTYPE svg PUBLIC "-//W3C//DTD SVG 1.0//EN" "http://www.w3.org/TR/2001/REC-SVG-20010904/DTD/svg10.dtd" [
<!ATTLIST g
xmlns:kvg CDATA #FIXED "http://kanjivg.tagaini.net"
kvg:element CDATA #IMPLIED
kvg:variant CDATA #IMPLIED
kvg:partial CDATA #IMPLIED
kvg:original CDATA #IMPLIED
kvg:part CDATA #IMPLIED
kvg:number CDATA #IMPLIED
kvg:tradForm CDATA #IMPLIED
kvg:radicalForm CDATA #IMPLIED
kvg:position CDATA #IMPLIED
kvg:radical CDATA #IMPLIED
kvg:phon CDATA #IMPLIED >
<!ATTLIST path
xmlns:kvg CDATA #FIXED "http://kanjivg.tagaini.net"
kvg:type CDATA #IMPLIED >
]><svg xmlns="http://www.w3.org/2000/svg" width="109" height="109" viewBox="0 0 109 109"><g id="kvg:StrokePaths_06b6a" style="fill:none;stroke:#000000;stroke-width:3;stroke-linecap:round;stroke-linejoin:round;"><g id="kvg:06b6a" kvg:element="歪"><g id="kvg:06b6a-g1" kvg:element="丕" kvg:position="top"><g id="kvg:06b6a-g2" kvg:element="不" kvg:position="top"><g id="kvg:06b6a-g3" kvg:element="一" kvg:radical="nelson"><path id="kvg:06b6a-s1" kvg:type="㇐" d="M17.31 18.6c1.57.49 4.45.64 6.02.49 11.46-1.09 45.86-3.76 63.11-4.65 2.61-.13 4.18.23 5.49.48"/></g><g id="kvg:06b6a-g4" kvg:element="丿"><path id="kvg:06b6a-s2" kvg:type="㇒" d="M54.96 19.05c.12.69-.03 2.42-.73 3.26C49.5 28 35 39 14.02 48.23"/></g><g id="kvg:06b6a-g5" kvg:element="丨"><path id="kvg:06b6a-s3" kvg:type="㇑" d="M52.79 27.03c.98.45 1.56 2.02 1.76 2.92.2.9.0 20-.2 25.61"/></g><path id="kvg:06b6a-s4" kvg:type="㇔" d="M65.97 30.26c9.75 2.79 21.77 9.53 27.63 15.79"/></g><g id="kvg:06b6a-g6" kvg:element="正" kvg:part="1" kvg:position="bottom"><g id="kvg:06b6a-g7" kvg:element="一"><path id="kvg:06b6a-s5" kvg:type="㇐" d="M24.88 63.2c1.19.32 3.38.37 4.57.32 11.95-.48 38.27-3.51 55.01-3.69 1.99-.02 3.18.15 4.17.31"/></g></g></g><g id="kvg:06b6a-g8" kvg:element="正" kvg:part="2" kvg:position="bottom"><g id="kvg:06b6a-g9" kvg:element="止" kvg:radical="tradit"><g id="kvg:06b6a-g10" kvg:element="卜" kvg:original="ト"><path id="kvg:06b6a-s6" kvg:type="㇑a" d="M53.71 63.5c.09.23 1.17 1.19 1.26 2.65.4 6.98-.26 25.25-.26 27.63"/><path id="kvg:06b6a-s7" kvg:type="㇐b" d="M56.38 75.86c.43.14 1.24.21 1.67.14 1.76-.27 13.46-2 20.56-2.59.72-.06 1.16.07 1.52.13"/></g><path id="kvg:06b6a-s8" kvg:type="㇑a" d="M32.95 73.02c.1.17 1.4.86 1.5 1.92.48 5.06-.31 18.31-.31 20.03"/><path id="kvg:06b6a-s9" kvg:type="㇐" d="M14.25 95.26c1.59.28 5.01.7 6.52.63 6.18-.28 40.14-2.87 69.4-2.91 2.55.0 4.76.42 6.08.85"/></g></g></g></g><g id="kvg:StrokeNumbers_06b6a" style="font-size:8;fill:#808080"><text transform="matrix(1 0 0 1 10.50 19.50)">1</text><text transform="matrix(1 0 0 1 39.50 26.55)">2</text><text transform="matrix(1 0 0 1 46.50 40.48)">3</text><text transform="matrix(1 0 0 1 67.50 27.50)">4</text><text transform="matrix(1 0 0 1 17.50 64.50)">5</text><text transform="matrix(1 0 0 1 47.25 71.50)">6</text><text transform="matrix(1 0 0 1 59.50 72.50)">7</text><text transform="matrix(1 0 0 1 23.50 74.50)">8</text><text transform="matrix(1 0 0 1 6.25 94.50)">9</text></g></svg>