<svg xmlns="http://www.w3.org/2000/svg" width="109" height="109" viewBox="0 0 109 109"><g id="kvg:StrokePaths_06b7f"><g id="kvg:06b7f" kvg:element="歿"><g id="kvg:06b7f-g1" kvg:element="歹" kvg:position="left" kvg:radical="general"><g id="kvg:06b7f-g2" kvg:element="一"><path id="kvg:06b7f-s1" kvg:type="㇐" d="M14.75 17.97c1.5.28 2.79.59 3.8.52C25 18 38 16.25 44.28 15.51c1.64-.19 2.64.25 3.47.5"/></g><g id="kvg:06b7f-g3" kvg:element="夕"><path id="kvg:06b7f-s2" kvg:type="㇒" d="M28.69 21.39c.18.7.25 1.83-.13 3.17-2.57 9.05-7.79 22.31-16.89 33.35"/><path id="kvg:06b7f-s3" kvg:type="㇇" d="M28 35.96c.28.05 1.99.5 2.8.36 2.65-.44 6.17-1.76 10.72-2.52 2.68-.45 3.13 2.19 2.47 4.73C40.33 52.44 24.86 83.84 8.61 91"/><path id="kvg:06b7f-s4" kvg:type="㇔" d="M20.71 51.48c2.93 1.97 7.58 8.09 8.31 11.16"/></g></g><g id="kvg:06b7f-g4" kvg:position="right"><g id="kvg:06b7f-g5" kvg:element="𠂊" kvg:variant="true" kvg:original="勹" kvg:position="top"><path id="kvg:06b7f-s5" kvg:type="㇒" d="M63.79 11.5c.05.91.11 2.35-.1 3.66-1.21 7.7-7.94 26.84-17.66 34.97"/><path id="kvg:06b7f-s6" kvg:type="㇇" d="M66.28 18.44c.54.37 1.3.49 2.17.25.87-.25 14.21-1.82 16.37-1.94 2.17-.12 3.86.74 3.34 3.29C87 25.75 83 37.75 78.91 44.71c-2.42 4.12-4.94 1.23-6.57-1.1"/></g><g id="kvg:06b7f-g6" kvg:element="又" kvg:position="bottom"><path id="kvg:06b7f-s7" kvg:type="㇇" d="M54.24 55.35c1.26.65 2.12.91 5.28.71 4.7-.3 19.25-2.17 21.39-2.6 2.14-.43 3.61 1.53 2.92 3.14C76.25 74.25 59.5 91.5 40 96.75"/><path id="kvg:06b7f-s8" kvg:type="㇏" d="M48.49 63.78c7.01.72 25 22.1 39.5 30.82 2.26 1.36 3.9 2.27 6 2.72"/></g></g></g></g></svg>