<svg xmlns="http://www.w3.org/2000/svg" width="109" height="109" viewBox="0 0 109 109"><g id="kvg:StrokePaths_06b74"><g id="kvg:06b74" kvg:element="歴"><g id="kvg:06b74-g1" kvg:phon="厤V"><g id="kvg:06b74-g2" kvg:element="厂" kvg:position="tare" kvg:radical="nelson"><path id="kvg:06b74-s1" kvg:type="㇐" d="M22.13 18.48c2.49.89 5.42.58 8 .41 14.51-.95 32.17-2.65 49.62-3.47 2.85-.13 6-.29 8.38.15"/><path id="kvg:06b74-s2" kvg:type="㇒" d="M24.75 19.25c1 1 1.18 2.38 1.18 4.06C25.88 46 23.12 71.88 10.06 92.97"/></g><g id="kvg:06b74-g3" kvg:element="林" kvg:position="tarec"><g id="kvg:06b74-g4" kvg:element="木" kvg:variant="true" kvg:position="left"><path id="kvg:06b74-s3" kvg:type="㇐" d="M29.65 36.53c.55.13 1.72.13 3.19.0C39 36 46.5 35.12 52.02 34.45c1.46-.18 2.58.1 3.51.23"/><path id="kvg:06b74-s4" kvg:type="㇑" d="M44.07 24.32c.74.74 1.16 1.81 1.16 3.23.0.46-.12 20.11-.17 29.83-.01 2.29-.02 4.04-.02 4.84"/><path id="kvg:06b74-s5" kvg:type="㇒" d="M44.25 36.95c0 1.18-.46 2.55-.93 3.4-3 5.48-8.78 12.68-13.34 16.11"/><path id="kvg:06b74-s6" kvg:type="㇔/㇏" d="M48.68 43.18c2.07.95 4.7 3.45 6.11 5.63"/></g><g id="kvg:06b74-g5" kvg:element="木" kvg:position="right"><path id="kvg:06b74-s7" kvg:type="㇐" d="M60.89 33.9c1.86.47 3.22.28 4.75.04 4.15-.64 10.93-1.51 17.36-2.11 1.46-.14 3.04-.39 4.5-.13"/><path id="kvg:06b74-s8" kvg:type="㇑" d="M71.09 21.75c.77.77 1.16 1.88 1.16 3.23.0 4.65.04 21.84.06 30.64.0 2.13.01 3.77.01 4.62"/><path id="kvg:06b74-s9" kvg:type="㇒" d="M71.38 34.75c0 1.12-.44 2.79-.88 3.73-3.2 6.74-9.75 14.77-14.78 17.98"/><path id="kvg:06b74-s10" kvg:type="㇏" d="M72.88 34.88c4.84 6.5 12.2 14.59 17.05 18.59 1.48 1.22 3.3 2.78 5.2 3.28"/></g></g></g><g id="kvg:06b74-g6" kvg:element="止" kvg:radical="tradit"><g id="kvg:06b74-g7" kvg:element="卜" kvg:original="ト"><path id="kvg:06b74-s11" kvg:type="㇑a" d="M56.87 63.5c.88.88 1.43 2 1.43 3.28.0.88.06 16.72.06 23.22"/><path id="kvg:06b74-s12" kvg:type="㇐b" d="M59.27 75.43c6.09-.64 11.62-1.64 18.03-2.07 1.49-.1 1.86-.21 2.79.0"/></g><path id="kvg:06b74-s13" kvg:type="㇑a" d="M37.03 71.76c.92.92 1.58 2.16 1.68 3.03.29 2.71.66 9.09 1.06 16.04"/><path id="kvg:06b74-s14" kvg:type="㇐" d="M24.41 92.11c2.23.68 4.43.73 6.71.54 12.37-1.02 38.94-2.51 53.37-2.67 2.62-.03 5.26.12 7.84.63"/></g></g></g></svg>