<svg xmlns="http://www.w3.org/2000/svg" width="109" height="109" viewBox="0 0 109 109"><g id="kvg:StrokePaths_06b8b" style="fill:none;stroke:#000000;stroke-width:3;stroke-linecap:round;stroke-linejoin:round;"><g id="kvg:06b8b" kvg:element="残"><g id="kvg:06b8b-g1" kvg:element="歹" kvg:position="left" kvg:radical="general"><g id="kvg:06b8b-g2" kvg:element="一"><path id="kvg:06b8b-s1" kvg:type="㇐" d="M13.5 21.72c2 .28 3.54.31 5.38.03 5.37-.82 15.93-2.6 22.24-3.46 2.01-.27 4.14-.54 5.64-.02"/></g><g id="kvg:06b8b-g3" kvg:element="夕"><path id="kvg:06b8b-s2" kvg:type="㇒" d="M30.38 24.12c.34 1.24.3 2.45-.12 3.73-2.79 8.63-8.48 21.25-18.38 31.77"/><path id="kvg:06b8b-s3" kvg:type="㇇" d="M29.64 39.5c.26.05 1.38.17 2.14.11 3.1-.24 5.23-.61 9.93-2.05 2.42-.74 3.53.76 2.79 3.31-5.62 19.38-14.5 42-31.89 55.38"/><path id="kvg:06b8b-s4" kvg:type="㇔" d="M20.88 53.75c4.2 1.88 9.98 7.21 11.9 10.64"/></g></g><g id="kvg:06b8b-g4" kvg:element="戋" kvg:variant="true" kvg:original="戔" kvg:position="right" kvg:phon="戋/戔V"><g id="kvg:06b8b-g5" kvg:element="三" kvg:part="1"><g id="kvg:06b8b-g6" kvg:element="一" kvg:position="top"><path id="kvg:06b8b-s5" kvg:type="㇐" d="M52.25 31.4c1.8.65 3.95.45 5.79.12 4.99-.88 14.92-3.93 20.85-5.45 1.19-.31 2.37-.58 3.61-.58"/></g><g id="kvg:06b8b-g7" kvg:element="一" kvg:position="bottom"><path id="kvg:06b8b-s6" kvg:type="㇐" d="M51.25 45.14c2.25.49 4.54.29 6.4-.13 5.97-1.36 16.72-5.1 22.11-6.82 1.21-.39 2.45-.69 3.73-.69"/></g><g id="kvg:06b8b-g8" kvg:element="戈"><g id="kvg:06b8b-g9" kvg:element="弋" kvg:part="1"><g id="kvg:06b8b-g10" kvg:element="三" kvg:part="2"><g id="kvg:06b8b-g11" kvg:element="一"><path id="kvg:06b8b-s7" kvg:type="㇐" d="M47.5 57.7c2.4.86 5.21.46 7.63-.07 6.57-1.42 22.23-5.9 29.79-7.99 1.6-.44 3.19-.71 4.83-.89"/></g></g><path id="kvg:06b8b-s8" kvg:type="㇂" d="M61.5 11.25c1.5 1.75 2.39 3.48 2.69 7.25 2.44 30.38 10.94 58.88 27.71 73 5.34 4.5 4.48-2.62 4.32-8.25"/></g><g id="kvg:06b8b-g12" kvg:element="丿"><path id="kvg:06b8b-s9" kvg:type="㇒" d="M87 57.12c.11.77-.04 1.73-.48 2.83C83.88 66.47 70.18 81.23 48 90.25"/></g><g id="kvg:06b8b-g13" kvg:element="弋" kvg:part="2"><g id="kvg:06b8b-g14" kvg:element="丶"><path id="kvg:06b8b-s10" kvg:type="㇔" d="M79 12.75c4.59 2.35 11 7.12 14.08 11.75"/></g></g></g></g></g></g></g></svg>