<svg xmlns="http://www.w3.org/2000/svg" width="109" height="109" viewBox="0 0 109 109"><g id="kvg:StrokePaths_06baa"><g id="kvg:06baa" kvg:element="殪"><g id="kvg:06baa-g1" kvg:element="歹" kvg:position="left" kvg:radical="general"><g id="kvg:06baa-g2" kvg:element="一"><path id="kvg:06baa-s1" kvg:type="㇐" d="M14.75 17.97c1 .03 2.79.59 3.8.52C25 18 38 16.25 44.28 15.51c1.64-.19 2.64.25 3.47.5"/></g><g id="kvg:06baa-g3" kvg:element="夕"><path id="kvg:06baa-s2" kvg:type="㇒" d="M28.45 20.89c.18.68.74 2.76.36 4.06-2.6 8.81-7.9 21.71-17.13 32.46"/><path id="kvg:06baa-s3" kvg:type="㇇" d="M27.64 36.5c.26.05 2.39.0 3.14-.14 2.47-.45 7.2-2.28 11.43-3.05 2.49-.46 2.91 2.23 2.29 4.81C41.11 52.26 24.22 84.21 9.11 91.5"/><path id="kvg:06baa-s4" kvg:type="㇔" d="M20.71 51.48c3.29 2.06 8.49 8.46 9.31 11.66"/></g></g><g id="kvg:06baa-g4" kvg:element="壹" kvg:position="right"><g id="kvg:06baa-g5" kvg:element="士" kvg:position="top"><path id="kvg:06baa-s5" kvg:type="㇐" d="M50.52 22.33c.92.39 2.6.46 3.51.39 9.53-.66 26.91-2.74 37.8-2.71 1.53.0 2.44.19 3.21.39"/><path id="kvg:06baa-s6" kvg:type="㇑a" d="M71.02 11.5c.76.36 1.21 1.63 1.36 2.36s.42 13.48.27 18.02"/><path id="kvg:06baa-s7" kvg:type="㇐" d="M55.67 33.19c.73.27 2.07.29 2.8.27 9.65-.32 19.05-2.41 29.23-2.38 1.22.0 1.95.13 2.56.26"/></g><g id="kvg:06baa-g6" kvg:position="bottom"><g id="kvg:06baa-g7" kvg:element="冖"><path id="kvg:06baa-s8" kvg:type="㇔" d="M50.55 41.95c-.11 3.2-3.14 11.58-4.05 13.49"/><path id="kvg:06baa-s9" kvg:type="㇖b" d="M52.07 44.15c2.6.0 27.46-3.77 40.53-3.77 8.89.0 2.81 5.1-.51 8.43"/></g><g id="kvg:06baa-g8" kvg:element="豆"><g id="kvg:06baa-g9" kvg:position="top"><path id="kvg:06baa-s10" kvg:type="㇐" d="M56.79 52.93c.73.36 2.07.4 2.81.36 7.63-.41 13.4-2.04 22.55-2.68 1.22-.08 1.96.17 2.57.35"/></g><g id="kvg:06baa-g10" kvg:position="bottom"><g id="kvg:06baa-g11" kvg:element="口"><path id="kvg:06baa-s11" kvg:type="㇑" d="M54.87 61.17c.28.3.63.53.68.93.38 2.87 1.9 9.68 2.75 15.4"/><path id="kvg:06baa-s12" kvg:type="㇕b" d="M55.8 62.61C61.4 62.1 78.5 60 83.9 59.04c1.56-.28 3.15.67 2.8 2.16-.64 2.68-1.8 6.8-3.73 11.92"/><path id="kvg:06baa-s13" kvg:type="㇐b" d="M58.58 75.49c5.54-.27 22.13-1.76 26.83-1.83"/></g><path id="kvg:06baa-s14" kvg:type="㇔" d="M57.25 80.42c2.21 1.82 5.71 7.5 6.26 10.34"/><path id="kvg:06baa-s15" kvg:type="㇒" d="M83.1 78.47c.02.28.03.71-.04 1.1-.41 2.33-2.78 7.42-6.01 10.55"/><path id="kvg:06baa-s16" kvg:type="㇐" d="M41.94 94.51c1.26.51 3.58.59 4.84.51 13.15-.85 34.69-2.15 48.67-2.5 2.11-.05 3.37.24 4.42.5"/></g></g></g></g></g></g></svg>