<svg xmlns="http://www.w3.org/2000/svg" width="109" height="109" viewBox="0 0 109 109"><g id="kvg:StrokePaths_06baf"><g id="kvg:06baf" kvg:element="殯"><g id="kvg:06baf-g1" kvg:element="歹" kvg:position="left" kvg:radical="general"><g id="kvg:06baf-g2" kvg:element="一"><path id="kvg:06baf-s1" kvg:type="㇐" d="M14.75 21.47c1 .03 2.79.07 3.8.02 4.2-.23 16.45-2.23 22.74-2.97 1.64-.19 2.64.25 3.47.5"/></g><g id="kvg:06baf-g3" kvg:element="夕"><path id="kvg:06baf-s2" kvg:type="㇒" d="M26.99 23.39c.17.72.68 2.89.32 4.26-2.38 9.23-7.22 22.75-15.64 34.01"/><path id="kvg:06baf-s3" kvg:type="㇇" d="M26.64 40c.26.05 1.39.0 2.14-.14 2.47-.45 5.2-1.78 9.43-2.55 2.49-.46 2.91 2.23 2.29 4.81C37.11 56.26 25.25 82.75 9.61 93"/><path id="kvg:06baf-s4" kvg:type="㇔" d="M21.46 55.73c2.67 1.66 6.9 6.83 7.56 9.41"/></g></g><g id="kvg:06baf-g4" kvg:element="賓" kvg:variant="true" kvg:position="right"><g id="kvg:06baf-g5" kvg:position="top"><g id="kvg:06baf-g6" kvg:element="宀"><path id="kvg:06baf-s5" kvg:type="㇑a" d="M67.65 11.05c.87.34 2.11 2.02 2.09 3-.06 3.1-.06 5.13-.07 7.96"/><g id="kvg:06baf-g7" kvg:element="冖"><path id="kvg:06baf-s6" kvg:type="㇔" d="M50.74 22.14c0 2.51-2.39 10.24-3.3 11.91"/><path id="kvg:06baf-s7" kvg:type="㇖b" d="M51.06 24.2c6.28-.79 34.31-2.6 39.4-2.9 7.97-.47 1.69 5.7-.3 7.39"/></g></g><path id="kvg:06baf-s8" kvg:type="㇐" d="M54.58 32.31c.73.35 2.05.39 2.78.35 4.94-.25 20.3-1.81 24.32-2.15 1.2-.1 1.93.17 2.54.35"/><g id="kvg:06baf-g8" kvg:element="少" kvg:variant="true"><g id="kvg:06baf-g9" kvg:element="小" kvg:partial="true"><path id="kvg:06baf-s9" kvg:type="㇚" d="M68.48 34.61c.04.23.59 1.18.63 2.62.21 6.9-.13 6.29-.13 8.65.0 6.67-3.64.71-4.4.12"/><path id="kvg:06baf-s10" kvg:type="㇒" d="M55.45 40.54c.03.27.11.71-.06 1.08-1.18 2.7-6.16 7.89-10.21 10.38"/></g><g id="kvg:06baf-g10" kvg:element="丿"><path id="kvg:06baf-s11" kvg:type="㇒" d="M85.42 38.3c.12.55.01 1.95-.68 2.65-6.25 6.27-21.89 14.62-41.49 20.83"/></g></g></g><g id="kvg:06baf-g11" kvg:element="貝" kvg:position="bottom"><g id="kvg:06baf-g12" kvg:element="目" kvg:position="top"><path id="kvg:06baf-s12" kvg:type="㇑" d="M56.05 56.98c.77 1.08 1.17 1.84 1.17 3.59.0 3.99-.35 14.2-.35 25.72"/><path id="kvg:06baf-s13" kvg:type="㇕a" d="M58.01 56.97c2.68-.22 24.12-1.5 26.56-1.76 2.04-.22 3.12 1.21 3.12 2.86.0 4.02-.6 25.54-.6 26.86"/><path id="kvg:06baf-s14" kvg:type="㇐a" d="M58.27 65.47c5.01-.33 24.46-1.87 28.76-1.87"/><path id="kvg:06baf-s15" kvg:type="㇐a" d="M57.49 73.58c7.57-.64 22.05-1.44 30.07-1.57"/><path id="kvg:06baf-s16" kvg:type="㇐a" d="M57.14 83.3c7.57-.48 22.02-1.75 28.92-1.75"/></g><g id="kvg:06baf-g13" kvg:element="八" kvg:position="bottom"><path id="kvg:06baf-s17" kvg:type="㇒" d="M63.08 87.34c.4 1.05.26 1.92-.53 2.68-1.74 1.69-7.21 6.1-14.02 9.04"/><path id="kvg:06baf-s18" kvg:type="㇔" d="M79.5 87.86c6.18 3 13.47 8.45 15.16 11.08"/></g></g></g></g></g></svg>