<svg xmlns="http://www.w3.org/2000/svg" width="109" height="109" viewBox="0 0 109 109"><g id="kvg:StrokePaths_06ba4"><g id="kvg:06ba4" kvg:element="殤"><g id="kvg:06ba4-g1" kvg:element="歹" kvg:position="left" kvg:radical="general"><g id="kvg:06ba4-g2" kvg:element="一"><path id="kvg:06ba4-s1" kvg:type="㇐" d="M15.75 17.47c1 .28 2.79.56 3.8.52C25 17.75 39 17.25 45.28 16.51c1.64-.19 2.64.25 3.47.5"/></g><g id="kvg:06ba4-g3" kvg:element="夕"><path id="kvg:06ba4-s2" kvg:type="㇒" d="M29.66 20.39c.2.73.84 1.96.38 3.34C26.75 33.75 20 47.75 11.67 59.41"/><path id="kvg:06ba4-s3" kvg:type="㇇" d="M27.64 36.5c.26.05 1.89.0 2.64-.14 2.47-.45 4.7-.78 8.93-1.55 2.49-.46 2.91 2.23 2.29 4.81C38.11 53.76 26 79 11.61 91.5"/><path id="kvg:06ba4-s4" kvg:type="㇔" d="M18.96 54.23c3.55 1.84 9.17 7.55 10.06 10.41"/></g></g><g id="kvg:06ba4-g4" kvg:element="𬀷" kvg:position="right"><g id="kvg:06ba4-g5" kvg:element="𠂉"><path id="kvg:06ba4-s5" kvg:type="㇒" d="M61.35 11.5c.04.48.14 1.38-.07 1.92C58.67 20.18 54.89 26.71 48 32.79"/><path id="kvg:06ba4-s6" kvg:type="㇐" d="M61 21.14c.76.38 2.24.46 3 .36 4.82-.66 20.15-2.39 25.5-3 1.25-.14 2.62-.18 3.25.01"/></g><g id="kvg:06ba4-g6" kvg:element="昜"><g id="kvg:06ba4-g7" kvg:element="旦" kvg:position="top"><g id="kvg:06ba4-g8" kvg:element="日"><path id="kvg:06ba4-s7" kvg:type="㇑" d="M56.63 30.86c.24.4.4.61.48 1.13.59 3.68 2.39 15.99 2.47 16.52"/><path id="kvg:06ba4-s8" kvg:type="㇕a" d="M57.7 31.5c4.62-.52 19.26-1.91 25.18-2.26 1.03-.06 1.65 1.42 1.61 1.82-.45 4.96-1.8 11.17-3.24 15.39"/><path id="kvg:06ba4-s9" kvg:type="㇐a" d="M58.63 38.8c1.83.0 21.97-1.74 24.05-1.74"/><path id="kvg:06ba4-s10" kvg:type="㇐a" d="M59.86 46.44c3.73-.39 16.34-1.22 20.99-1.55"/></g><g id="kvg:06ba4-g9" kvg:element="一"><path id="kvg:06ba4-s11" kvg:type="㇐" d="M46.31 55.56c1.28.3 3.62.35 4.89.3 13.28-.51 29.55-2.81 42-2.93 2.13-.02 3.4.15 4.47.3"/></g></g><g id="kvg:06ba4-g10" kvg:element="勿" kvg:position="bottom"><g id="kvg:06ba4-g11" kvg:element="勹"><path id="kvg:06ba4-s12" kvg:type="㇒" d="M59.13 58.23c.04.47.24 1.27-.08 1.89-2.3 4.38-8.15 11.02-15.85 16.85"/><path id="kvg:06ba4-s13" kvg:type="㇆" d="M57.29 65.46c.83.45 2 .61 3.34.3 1.33-.3 24.34-2.88 27.68-3.03s4 1.51 3.5 4.69C91.31 70.6 88.33 87.62 81 96.24c-2.21 2.59-3.45-.43-5.42-2.32"/></g><path id="kvg:06ba4-s14" kvg:type="㇒" d="M64.16 68.72c.05.42.15 1.1-.1 1.69-2.52 5.85-9.44 13.99-19.4 18.79"/><path id="kvg:06ba4-s15" kvg:type="㇒" d="M77.37 67.54c.09.78.34 2.06-.18 3.13-3.25 6.74-10.07 16.89-23.32 25.73"/></g></g></g></g></g></svg>