<svg xmlns="http://www.w3.org/2000/svg" width="109" height="109" viewBox="0 0 109 109"><g id="kvg:StrokePaths_06bb5"><g id="kvg:06bb5" kvg:element="段"><g id="kvg:06bb5-g1" kvg:position="left" kvg:phon="耑V"><path id="kvg:06bb5-s1" kvg:type="㇒" d="M39.33 12.75c.11 1.05.02 2.04-.63 2.92C34.75 21 30 25.75 23.25 30.79"/><path id="kvg:06bb5-s2" kvg:type="㇑" d="M20.37 31c.88.88 1.21 2.25 1.21 3.5.0 4.52-.06 36.54-.08 55.62.0 2.04.0 3.93.0 5.62"/><path id="kvg:06bb5-s3" kvg:type="㇐b" d="M22.75 44c6.75-.75 16.51-2.38 17.75-2.5 1.4-.13 2.5-.25 3.75.0"/><path id="kvg:06bb5-s4" kvg:type="㇐b" d="M22.5 61c6.75-.75 17.51-2.63 18.75-2.75 1.4-.13 2.5-.25 3.75.0"/><path id="kvg:06bb5-s5" kvg:type="㇀" d="M10.5 82.67c1 1.08 2.38.97 4.22.24 1.09-.43 20.92-7.84 25.53-9.91"/></g><g id="kvg:06bb5-g2" kvg:element="殳" kvg:position="right" kvg:radical="general"><g id="kvg:06bb5-g3" kvg:element="几" kvg:position="top"><g id="kvg:06bb5-g4" kvg:element="丿"><path id="kvg:06bb5-s6" kvg:type="㇒" d="M56.55 19.6c.7.65 1.02 1.68.96 2.77C56.88 34.12 55.88 42.25 49.3 51"/></g><path id="kvg:06bb5-s7" kvg:type="㇈b" d="M58.01 21.12c4.12-.62 13.24-2.62 16.17-2.98 2.35-.29 3.13.87 2.83 3.04-.63 4.45-1.41 10.44-1.41 14.22.0 6.6 1.16 8.77 8.35 8.77 7.3.0 7.85-1.55 7.85-7.6"/></g><g id="kvg:06bb5-g5" kvg:element="又" kvg:position="bottom"><path id="kvg:06bb5-s8" kvg:type="㇇" d="M54.74 55.82c1.58.37 3.12.8 6.18-.13 4.32-1.32 11.22-3.77 13.31-4.56 2.64-1 4.51.87 3.46 3.8-7.22 20.1-18.95 32.33-36.59 40.74"/><path id="kvg:06bb5-s9" kvg:type="㇏" d="M51.3 64.26C55.5 64.59 70.32 78 84.21 89.43c2.67 2.2 6.92 4.7 9.69 6.01"/></g></g></g></g></svg>