<svg xmlns="http://www.w3.org/2000/svg" width="109" height="109" viewBox="0 0 109 109"><g id="kvg:StrokePaths_06bbf"><g id="kvg:06bbf" kvg:element="殿"><g id="kvg:06bbf-g1" kvg:position="left" kvg:phon="尸+共"><g id="kvg:06bbf-g2" kvg:element="尸" kvg:position="tare"><path id="kvg:06bbf-s1" kvg:type="㇕c" d="M17.97 18.69c1.5.56 3.41 1.05 5 .94 7.68-.55 18.07-2.32 22.64-2.85 2.25-.26 4.21.37 3.81 2.9-.55 3.57-1.69 6.53-3 12.45"/><path id="kvg:06bbf-s2" kvg:type="㇐b" d="M22.59 35.02c3.45-.15 15.17-1.76 21.92-2.4 1.69-.16 3.08-.27 3.98-.31"/><path id="kvg:06bbf-s3" kvg:type="㇒" d="M20.41 19.84c1 1 1.25 2.19 1.26 3.41C21.79 45.06 22 72.38 9.75 87.5"/></g><g id="kvg:06bbf-g3" kvg:element="共" kvg:position="tarec"><g id="kvg:06bbf-g4" kvg:position="top"><path id="kvg:06bbf-s4" kvg:type="㇐" d="M23.67 52.28c1.7.35 2.78.02 4.07-.17 4.87-.7 15.91-2.2 20.99-2.53 1.1-.07 2.21-.13 3.3.1"/><path id="kvg:06bbf-s5" kvg:type="㇑a" d="M29.67 42.94c.82.82 1.11 2.19 1.19 3.06.44 5.43.77 15.33.97 19.94"/><path id="kvg:06bbf-s6" kvg:type="㇑a" d="M45.3 39.25c.58 1 .83 2 .71 3.26-.76 8.42-1.55 12.69-2.41 21.63"/><path id="kvg:06bbf-s7" kvg:type="㇐" d="M21.87 68c2 .5 4.04.21 5.66-.12 6.22-1.26 15.22-2.76 22.47-3.34 1.81-.15 3.6-.25 5.38.28"/></g><g id="kvg:06bbf-g5" kvg:element="八" kvg:position="bottom"><path id="kvg:06bbf-s8" kvg:type="㇒" d="M28 76.51c.03.38.07.98-.07 1.53-.82 3.22-5.93 9.95-11.65 15.13"/><path id="kvg:06bbf-s9" kvg:type="㇔" d="M44.5 74.62c1.84 2.18 4.74 8.96 5.2 12.34"/></g></g></g><g id="kvg:06bbf-g6" kvg:element="殳" kvg:position="right" kvg:radical="tradit"><g id="kvg:06bbf-g7" kvg:element="几" kvg:position="top"><g id="kvg:06bbf-g8" kvg:element="丿" kvg:radical="nelson"><path id="kvg:06bbf-s10" kvg:type="㇒" d="M63.43 15.58c.87.87.97 2.05.96 3.07-.2 10.49-2.01 19.35-8.01 25.97"/></g><path id="kvg:06bbf-s11" kvg:type="㇈b" d="M65.24 17.01c4.51-.39 11.26-1.51 13.63-2.37 2.14-.77 3.13.18 2.92 2.18-.42 3.93-1.12 9.58-1.12 13.51.0 7.75 1.04 8.87 7.92 8.87 5.91.0 6.92-1.2 6.92-7.29"/></g><g id="kvg:06bbf-g9" kvg:element="又" kvg:position="bottom"><path id="kvg:06bbf-s12" kvg:type="㇇" d="M61.32 52.1c1.25.36 3.41.4 5.91-.14 2.22-.48 11.49-3.06 14.71-3.96 2.32-.65 4.42 1.2 3.27 3.68C77 69.38 65.75 83 51.32 91.92"/><path id="kvg:06bbf-s13" kvg:type="㇏" d="M57.4 59.4c3.44.31 15.98 14.48 27.85 25.36 2.92 2.67 5.87 4.87 10.24 6.71"/></g></g></g></g></svg>