<svg xmlns="http://www.w3.org/2000/svg" width="109" height="109" viewBox="0 0 109 109"><g id="kvg:StrokePaths_06bb3"><g id="kvg:06bb3" kvg:element="殳" kvg:radical="general"><g id="kvg:06bb3-g1" kvg:element="几" kvg:position="top"><g id="kvg:06bb3-g2" kvg:element="丿"><path id="kvg:06bb3-s1" kvg:type="㇒" d="M37.77 13.64c.48.86.96 2.74.92 4-.35 13.02-4.02 28.02-14.8 33.49"/></g><path id="kvg:06bb3-s2" kvg:type="㇈b" d="M39.67 16c3.33.33 20.77-1.66 23-2.33 3.33-1 5.01 2.12 4.67 4.33-.67 4.33-1 11.67-1 16 0 6 1.67 10.33 12.67 10.33 13 0 12.67-.67 12.67-13"/></g><g id="kvg:06bb3-g3" kvg:element="又" kvg:position="bottom"><path id="kvg:06bb3-s3" kvg:type="㇇" d="M33 55.25c2 .4 2.25.99 6.25.4s24.25-3.24 27-3.83c2.75-.59 4.98 2.3 3.75 4.35-12.67 21.17-29 33.17-53 43"/><path id="kvg:06bb3-s4" kvg:type="㇏" d="M35.92 61.37c5.08.87 29.9 24.21 47.59 33.77 2.75 1.49 4.76 2.48 7.33 2.98"/></g></g></g></svg>