<svg xmlns="http://www.w3.org/2000/svg" width="109" height="109" viewBox="0 0 109 109"><g id="kvg:StrokePaths_06bbc" style="fill:none;stroke:#000000;stroke-width:3;stroke-linecap:round;stroke-linejoin:round;"><g id="kvg:06bbc" kvg:element="殼"><g id="kvg:06bbc-g1" kvg:position="left"><g id="kvg:06bbc-g2" kvg:element="士" kvg:position="top"><path id="kvg:06bbc-s1" kvg:type="㇐" d="M14.25 21.9c1.03.46 2.92.63 3.96.6 7.04-.25 20.54-1 28.67-1.54 1.73-.12 2.76-.06 3.62.13"/><path id="kvg:06bbc-s2" kvg:type="㇑a" d="M30.53 12.38c.9.29 1.44 1.5 1.62 2.21.18.7.11 15.75.02 18.01"/><path id="kvg:06bbc-s3" kvg:type="㇐" d="M18.44 33.41c.75.17 2.12.53 2.87.51 6.19-.17 16.19-1.17 23.5-1.52 1.25-.06 2-.05 2.62.02"/></g><g id="kvg:06bbc-g3" kvg:position="bottom"><g id="kvg:06bbc-g4" kvg:element="冖"><path id="kvg:06bbc-s4" kvg:type="㇔" d="M14.5 41.2c-.08 3.34-1.53 11.55-3.5 15.05"/><path id="kvg:06bbc-s5" kvg:type="㇖b" d="M14.43 43.32c9.57-.82 24.5-2.23 33.46-2.42 7.36-.15 2.21 6.2.19 8.62"/></g><path id="kvg:06bbc-s6" kvg:type="㇐" d="M19.25 53.99c.7.28 1.98.24 2.68.28 3.82.22 11.82-1.28 16.12-1.39 1.17-.03 1.87.14 2.45.28"/><g id="kvg:06bbc-g5" kvg:element="几"><g id="kvg:06bbc-g6" kvg:element="丿"><path id="kvg:06bbc-s7" kvg:type="㇒" d="M20.61 64.23c.36.8.89 1.42.87 2.42C21.25 77.5 19.5 87.25 13.25 94"/></g><path id="kvg:06bbc-s8" kvg:type="㇈b" d="M21.69 65.58c2.07-.32 11.85-2.37 13.5-2.68 1.65-.32 3.44.32 3.03 1.9s-1.35 22.81-1.47 23.96c-.25 2.5 1 3.75 2.5 2.5 5.07-4.23 9.5-9.5 12.25-12.75"/></g></g></g><g id="kvg:06bbc-g7" kvg:element="殳" kvg:position="right" kvg:radical="general"><g id="kvg:06bbc-g8" kvg:element="几" kvg:position="top"><g id="kvg:06bbc-g9" kvg:element="丿"><path id="kvg:06bbc-s9" kvg:type="㇒" d="M60.94 18.35c.56.65.99 1.85.97 2.89C61.8 31.98 61.75 43 56.08 48.86"/></g><path id="kvg:06bbc-s10" kvg:type="㇈b" d="M62.29 19.28c2.16.28 14.47-2.34 15.92-2.9 2.16-.84 3.76.91 3.03 2.62-1.49 3.49-1.65 12.75-1.65 16.37.0 9.12 1.16 10.14 8.72 10.14 5.7.0 5.76-1.51 5.76-9.36"/></g><g id="kvg:06bbc-g10" kvg:element="又" kvg:position="bottom"><path id="kvg:06bbc-s11" kvg:type="㇇" d="M60.15 56.69c1.39.37 1.57.92 4.35.37 2.79-.55 14.89-3.52 16.81-4.07s3.56 2.19 2.61 4.06C75 74.75 67 86.5 52 95.67"/><path id="kvg:06bbc-s12" kvg:type="㇏" d="M57.04 62.4c3.47.79 20.41 21.92 32.49 30.58 1.88 1.35 3.25 2.25 5 2.7"/></g></g></g></g></svg>