<svg xmlns="http://www.w3.org/2000/svg" width="109" height="109" viewBox="0 0 109 109"><g id="kvg:StrokePaths_06bd3"><g id="kvg:06bd3" kvg:element="毓"><g id="kvg:06bd3-g1" kvg:element="毎" kvg:variant="true" kvg:position="left"><g id="kvg:06bd3-g2" kvg:position="top"><g id="kvg:06bd3-g3" kvg:element="丿"><path id="kvg:06bd3-s1" kvg:type="㇒" d="M23.81 13.25c.03.63.1 1.65-.06 2.55-1 5.48-6.44 17.64-10.65 24.37"/></g><path id="kvg:06bd3-s2" kvg:type="㇐" d="M23.49 25.42c.73.16 2.85.25 3.56.16 4.08-.53 12.4-1.77 20.14-2.59 1.19-.13 2.71.07 3.32.15"/></g><g id="kvg:06bd3-g4" kvg:element="毋" kvg:variant="true" kvg:original="母" kvg:position="bottom" kvg:radical="general"><path id="kvg:06bd3-s3" kvg:type="㇛" d="M21.76 38.76c.73.92 1.34 4.01.91 6.35-1.89 10.27-4.9 28.54-7 33.84-1.23 3.11-.35 4.66 1.05 4.66 11.24.0 21.77.39 34.12 5.76"/><path id="kvg:06bd3-s4" kvg:type="㇆" d="M22.7 40.96c.7-.17 2.04-.33 2.65-.44 6.3-1.11 15.64-2.2 19.13-2.2 1.78.0 2.75 1.8 2.63 4-.89 16.19-5.91 45.04-9.95 52.77-2.17 4.15-5.42.9-7.15-1.83"/><path id="kvg:06bd3-s5" kvg:type="㇔" d="M29.95 48.35c1.92 1.08 4.97 4.43 5.45 6.1"/><path id="kvg:06bd3-s6" kvg:type="㇔" d="M27 68.44c2.19 1.39 5.65 5.7 6.2 7.85"/><path id="kvg:06bd3-s7" kvg:type="㇐" d="M10.14 61.14c.66.4 1.87.44 2.53.4 8.58-.54 25.77-.93 38.4-1.04 1.1-.01 1.76.19 2.31.39"/></g></g><g id="kvg:06bd3-g5" kvg:element="㐬" kvg:position="right"><g id="kvg:06bd3-g6" kvg:position="top"><g id="kvg:06bd3-g7" kvg:element="亠"><path id="kvg:06bd3-s8" kvg:type="㇑a" d="M72.75 10.75c.77.42 2.05 2.03 2.05 2.87.0 3.06-.1 8.13-.1 11.55"/><path id="kvg:06bd3-s9" kvg:type="㇐" d="M55.44 26.28c.98.07 3.22.48 4.17.38 7.7-.79 24.04-2.56 33.81-2.77 1.62-.03 2.44.03 3.64.48"/></g><g id="kvg:06bd3-g8" kvg:element="厶"><path id="kvg:06bd3-s10" kvg:type="㇜" d="M72.19 28.5c.57.44.33 2.36-.05 2.9C69 35.75 63.5 40.75 60.25 44.5c-2.92 3.36-1.82 3.63 1.75 3 11.25-2 14.25-2.75 27.5-5"/><path id="kvg:06bd3-s11" kvg:type="㇔" d="M81.41 33.35c4.52 2.76 11.67 11.33 12.8 15.62"/></g></g><g id="kvg:06bd3-g9" kvg:element="川" kvg:variant="true" kvg:original="巛" kvg:position="bottom"><path id="kvg:06bd3-s12" kvg:type="㇒" d="M61.26 57.89c.24.61.43 2.2.42 3.44C61.5 77.5 58.75 90 48.81 97.72"/><path id="kvg:06bd3-s13" kvg:type="㇑" d="M71.77 57.37c.09.48 1.17 2.49 1.26 5.52.4 14.55-.26 26.16-.26 31.12"/><path id="kvg:06bd3-s14" kvg:type="㇟" d="M83.6 54.37c.74 1.19 1.33 2.59 1.38 4.43.2 8.19-.53 21.14-.53 26.7.0 8.75.31 11.03 7.17 11.03 5.89.0 6.39-1.28 6.39-11.12"/></g></g></g></g></svg>