<!DOCTYPE svg PUBLIC "-//W3C//DTD SVG 1.0//EN" "http://www.w3.org/TR/2001/REC-SVG-20010904/DTD/svg10.dtd" [
<!ATTLIST g
xmlns:kvg CDATA #FIXED "http://kanjivg.tagaini.net"
kvg:element CDATA #IMPLIED
kvg:variant CDATA #IMPLIED
kvg:partial CDATA #IMPLIED
kvg:original CDATA #IMPLIED
kvg:part CDATA #IMPLIED
kvg:number CDATA #IMPLIED
kvg:tradForm CDATA #IMPLIED
kvg:radicalForm CDATA #IMPLIED
kvg:position CDATA #IMPLIED
kvg:radical CDATA #IMPLIED
kvg:phon CDATA #IMPLIED >
<!ATTLIST path
xmlns:kvg CDATA #FIXED "http://kanjivg.tagaini.net"
kvg:type CDATA #IMPLIED >
]><svg xmlns="http://www.w3.org/2000/svg" width="109" height="109" viewBox="0 0 109 109"><g id="kvg:StrokePaths_06bd4" style="fill:none;stroke:#000000;stroke-width:3;stroke-linecap:round;stroke-linejoin:round;"><g id="kvg:06bd4" kvg:element="比" kvg:radical="general"><g id="kvg:06bd4-g1" kvg:position="left"><path id="kvg:06bd4-s1" kvg:type="㇐b" d="M29.25 49.75c5.98-.66 12-3 17.21-4.11 1.53-.33 2.5-.32 3.29-.13"/><path id="kvg:06bd4-s2" kvg:type="㇙" d="M24.5 23.5c1 1 1.51 2.45 1.51 4.07.0 4.45-.34 50.16-.34 57.09.0 5.82-.75 5.98 4.33 3.33 6.25-3.25 11.07-5.89 15.67-8"/></g><g id="kvg:06bd4-g2" kvg:element="匕" kvg:position="right"><path id="kvg:06bd4-s3" kvg:type="㇒" d="M86.84 37.94c.03 1.06-.53 2.19-1.51 2.98C82.75 43 72.38 49.38 63.67 53.67"/><path id="kvg:06bd4-s4" kvg:type="㇟" d="M59.25 16.25c1.25 1.25 1.58 3 1.58 4.58.0 11.29-.11 45.92-.11 54.98.0 16.44.78 17.94 17.03 17.94 15.5.0 17-3 17-13.88"/></g></g></g><g id="kvg:StrokeNumbers_06bd4" style="font-size:8;fill:#808080"><text transform="matrix(1 0 0 1 29.75 46.13)">1</text><text transform="matrix(1 0 0 1 15.50 24.50)">2</text><text transform="matrix(1 0 0 1 77.50 35.50)">3</text><text transform="matrix(1 0 0 1 50.50 16.63)">4</text></g></svg>