<svg xmlns="http://www.w3.org/2000/svg" width="109" height="109" viewBox="0 0 109 109"><g id="kvg:StrokePaths_06bec"><g id="kvg:06bec" kvg:element="毬"><g id="kvg:06bec-g1" kvg:element="毛" kvg:position="nyo" kvg:radical="general"><path id="kvg:06bec-s1" kvg:type="㇒" d="M40.39 13.75c0 1.25-.29 2.22-1.26 3.25-4.26 4.5-14.06 11.06-28.51 15.5"/><path id="kvg:06bec-s2" kvg:type="㇐" d="M11.12 46.58c2.13.67 4.16.32 5.77.02C24 45.25 30.38 44 37.64 42.97c2.17-.31 4.71-.72 6.86.08"/><path id="kvg:06bec-s3" kvg:type="㇐" d="M8.5 64.67c2.02.83 4.75.39 6.83.04 8.04-1.34 19.31-3.6 26.67-4.63 2.09-.29 4.09-.33 6.12.17"/><path id="kvg:06bec-s4" kvg:type="㇟" d="M27.11 29.87c1.14 1.14 1.35 2.25 1.35 4.43.0 8.19-.08 36.18-.08 41.2.0 18.45 1.12 21.03 36.24 21.03 30.64.0 31.51-2.78 31.51-13.03"/></g><g id="kvg:06bec-g2" kvg:element="求" kvg:position="nyoc"><path id="kvg:06bec-s5" kvg:type="㇐" d="M48.87 29.58c2.63.42 5.37.27 7.75.04 9-.87 22.37-2.1 30.75-2.55 2.42-.13 4.92-.33 7.31.18"/><g id="kvg:06bec-g3" kvg:element="氺" kvg:variant="true" kvg:original="水"><path id="kvg:06bec-s6" kvg:type="㇚" d="M69.83 12.33c1.11 1.11 1.35 2.29 1.35 4.25.0 12.53.03 59.55.03 63.81.0 11.61-5.33 3.11-6.62 1.46"/><path id="kvg:06bec-s7" kvg:type="㇔" d="M53.14 41.42c2.78 1.71 7.19 7.05 7.88 9.71"/><path id="kvg:06bec-s8" kvg:type="㇀" d="M45.28 72.49c1.35 1.13 2.97.88 4.48-.3 1.15-.91 8.76-7.44 14.46-12.55"/><path id="kvg:06bec-s9" kvg:type="㇒" d="M90.27 37.75c0 .87-.39 1.87-.94 2.54-2.95 3.58-5.7 6.58-10.29 9.94"/><path id="kvg:06bec-s10" kvg:type="㇔/㇏" d="M79.44 58.36C85 61.75 90.25 67 93.39 74.24"/></g><g id="kvg:06bec-g4" kvg:element="丶"><path id="kvg:06bec-s11" kvg:type="㇔" d="M79.62 11.12c3 1.57 7.74 6.47 8.49 8.92"/></g></g></g></g></svg>