<svg xmlns="http://www.w3.org/2000/svg" width="109" height="109" viewBox="0 0 109 109"><g id="kvg:StrokePaths_06bef"><g id="kvg:06bef" kvg:element="毯"><g id="kvg:06bef-g1" kvg:element="毛" kvg:position="nyo" kvg:radical="general"><path id="kvg:06bef-s1" kvg:type="㇒" d="M40.28 15c.08.41.32 1.17-.15 1.63C35.75 21 25.75 27.75 14.25 32.25"/><path id="kvg:06bef-s2" kvg:type="㇐" d="M11 47.21c.89.28 2.53.36 3.42.28 9.26-.89 20.94-3.44 28.59-4.09 1.47-.12 2.38.13 3.12.27"/><path id="kvg:06bef-s3" kvg:type="㇐" d="M8.38 65.06c.94.25 3.69.38 4.63.25 10-1.31 22.93-3.87 31.47-4.45 1.57-.11 3.52.12 4.31.25"/><path id="kvg:06bef-s4" kvg:type="㇟" d="M27.99 30.37c.59 1.19 1.06 2.59 1.1 4.43.16 8.19-.58 38.93-.58 43.95.0 16.5 3.5 17.78 35.74 17.78 34.01.0 33.26-4.53 33.26-13.28"/></g><g id="kvg:06bef-g2" kvg:element="炎" kvg:position="nyoc"><g id="kvg:06bef-g3" kvg:element="火" kvg:position="top"><path id="kvg:06bef-s5" kvg:type="㇔" d="M55.21 22.67c2.42 2.11 5.95 8.09 6.61 10.2"/><path id="kvg:06bef-s6" kvg:type="㇒" d="M85.15 17.31c.43.48.39 1.99.0 2.74s-5.17 6.75-7.12 8.5"/><path id="kvg:06bef-s7" kvg:type="㇒" d="M70.4 13.25c.65.37.78 1.31.78 1.93.0 21.82-6.62 29.95-16.92 36.07"/><path id="kvg:06bef-s8" kvg:type="㇏" d="M71.18 34.65c7.13 3.07 12.6 8.62 15.57 12.23"/></g><g id="kvg:06bef-g4" kvg:element="火" kvg:position="bottom"><path id="kvg:06bef-s9" kvg:type="㇔" d="M55.43 59.92c2.36 2.37 5.79 9.09 6.43 11.46"/><path id="kvg:06bef-s10" kvg:type="㇒" d="M88.65 54.31c.43.48.39 1.99.0 2.74s-7.67 7.75-9.62 9.5"/><path id="kvg:06bef-s11" kvg:type="㇒" d="M71.9 51.25c.65.37.78 1.31.78 1.93-.13 24.84-10.62 29.45-20.92 35.57"/><path id="kvg:06bef-s12" kvg:type="㇏" d="M73.18 72.9c6.44 3.38 11.39 9.5 14.07 13.48"/></g></g></g></g></svg>