<!DOCTYPE svg PUBLIC "-//W3C//DTD SVG 1.0//EN" "http://www.w3.org/TR/2001/REC-SVG-20010904/DTD/svg10.dtd" [
<!ATTLIST g
xmlns:kvg CDATA #FIXED "http://kanjivg.tagaini.net"
kvg:element CDATA #IMPLIED
kvg:variant CDATA #IMPLIED
kvg:partial CDATA #IMPLIED
kvg:original CDATA #IMPLIED
kvg:part CDATA #IMPLIED
kvg:number CDATA #IMPLIED
kvg:tradForm CDATA #IMPLIED
kvg:radicalForm CDATA #IMPLIED
kvg:position CDATA #IMPLIED
kvg:radical CDATA #IMPLIED
kvg:phon CDATA #IMPLIED >
<!ATTLIST path
xmlns:kvg CDATA #FIXED "http://kanjivg.tagaini.net"
kvg:type CDATA #IMPLIED >
]><svg xmlns="http://www.w3.org/2000/svg" width="109" height="109" viewBox="0 0 109 109"><g id="kvg:StrokePaths_06c17" style="fill:none;stroke:#000000;stroke-width:3;stroke-linecap:round;stroke-linejoin:round;"><g id="kvg:06c17" kvg:element="気"><g id="kvg:06c17-g1" kvg:element="气" kvg:position="kamae" kvg:radical="general" kvg:phon="气"><g id="kvg:06c17-g2" kvg:element="𠂉"><path id="kvg:06c17-s1" kvg:type="㇒" d="M37.75 9.25c.25 1.62-.25 2.75-1 4.25C35.63 15.74 28 25.25 24 29"/><path id="kvg:06c17-s2" kvg:type="㇐" d="M36.5 21.25c1.33-.03 3.29-.05 4.8-.32 9.2-1.68 18.17-3.46 26.98-5.27 1.63-.33 3.71-.64 5.21-.91"/></g><path id="kvg:06c17-s3" kvg:type="㇐" d="M31.25 32.75c1.5.38 3.3.26 4.96.08 7.67-.83 19.54-2.58 29.14-4.39 1.94-.37 3.64-.41 4.91-.45"/><path id="kvg:06c17-s4" kvg:type="㇈a" d="M18.5 47c1.88.75 4 .88 6.25.5 15.08-2.51 35-5.62 48.25-8 4.73-.85 5.6.47 4.5 6.25-4 21 .71 40.32 11.5 50 7.25 6.5 6.5.75 6-5.25"/></g><g id="kvg:06c17-g3" kvg:element="乂"><g id="kvg:06c17-g4" kvg:element="丿"><path id="kvg:06c17-s5" kvg:type="㇒" d="M57 51.75c.12 1.62-.17 3.03-1 4.75C49.5 70 40.25 82.75 25.75 93.25"/></g><path id="kvg:06c17-s6" kvg:type="㇔/㇒" d="M30 63.75C41.5 68 54.5 78 62.25 90.5"/></g></g></g><g id="kvg:StrokeNumbers_06c17" style="font-size:8;fill:#808080"><text transform="matrix(1 0 0 1 29.50 10.50)">1</text><text transform="matrix(1 0 0 1 43.50 17.50)">2</text><text transform="matrix(1 0 0 1 35.25 30.13)">3</text><text transform="matrix(1 0 0 1 10.50 48.13)">4</text><text transform="matrix(1 0 0 1 48.50 53.50)">5</text><text transform="matrix(1 0 0 1 20.50 63.13)">6</text></g></svg>