<svg xmlns="http://www.w3.org/2000/svg" width="109" height="109" viewBox="0 0 109 109"><g id="kvg:StrokePaths_06c3a" style="fill:none;stroke:#000000;stroke-width:3;stroke-linecap:round;stroke-linejoin:round;"><g id="kvg:06c3a" kvg:element="氺" kvg:variant="true" kvg:original="水" kvg:radical="tradit"><path id="kvg:06c3a-s1" kvg:type="㇚" d="M52.02 6.08c1.33 1.33 1.51 2.67 1.51 4.77.0 18.15-.01 78.66-.01 83.62.0 10.53-7.21 1.5-8.71.25"/><path id="kvg:06c3a-s2" kvg:type="㇔" d="M17.25 26.38c5.65 2.58 14.59 10.61 16 14.62"/><path id="kvg:06c3a-s3" kvg:type="㇀" d="M10.5 75.35c1.75 1.15 3.5.85 5.41-.6 1.13-.85 13.44-11.42 18.21-15.51"/><path id="kvg:06c3a-s4" kvg:type="㇒" d="M87.75 23c-.37 1.38-.76 2.34-1.64 3.32-3.86 4.3-10.44 9.61-20.8 15.9"/><path id="kvg:06c3a-s5" kvg:type="㇏" d="M66.38 56.75C77.5 62 92.12 73.38 95.88 80.38"/></g></g></svg>