<svg xmlns="http://www.w3.org/2000/svg" width="109" height="109" viewBox="0 0 109 109"><g id="kvg:StrokePaths_06c41" style="fill:none;stroke:#000000;stroke-width:3;stroke-linecap:round;stroke-linejoin:round;"><g id="kvg:06c41" kvg:element="汁"><g id="kvg:06c41-g1" kvg:element="氵" kvg:variant="true" kvg:original="水" kvg:position="left" kvg:radical="general"><path id="kvg:06c41-s1" kvg:type="㇔" d="M21.75 17.5c4.68 1.78 12.08 7.32 13.25 10.09"/><path id="kvg:06c41-s2" kvg:type="㇔" d="M15.5 40.62c4.5 1.61 11.62 6.62 12.75 9.12"/><path id="kvg:06c41-s3" kvg:type="㇀" d="M15.6 87.53c1.52.69 3.12.5 4.03-.79 3.22-4.57 6.44-10.16 9.36-15.99"/></g><g id="kvg:06c41-g2" kvg:element="十" kvg:position="right" kvg:phon="十"><path id="kvg:06c41-s4" kvg:type="㇐" d="M40.67 48.16c2.32.83 5.59.5 7.98.27 12.58-1.23 30.86-3.05 40.97-3.66 2.42-.15 4.83-.28 7.22.23"/><path id="kvg:06c41-s5" kvg:type="㇑" d="M66.68 14.13c1.22 1.22 1.64 2.99 1.64 4.45.0.82.02 50.57.02 69.42.0 4.28.0 6.96-.01 7.13"/></g></g></g></svg>