<svg xmlns="http://www.w3.org/2000/svg" width="109" height="109" viewBox="0 0 109 109"><g id="kvg:StrokePaths_06c40"><g id="kvg:06c40" kvg:element="汀"><g id="kvg:06c40-g1" kvg:element="氵" kvg:variant="true" kvg:original="水" kvg:position="left" kvg:radical="general"><path id="kvg:06c40-s1" kvg:type="㇔" d="M21.88 13.88c3.84 1.71 9.91 7.05 10.88 9.72"/><path id="kvg:06c40-s2" kvg:type="㇔" d="M14.25 42c4.24 1.54 10.94 6.35 12 8.75"/><path id="kvg:06c40-s3" kvg:type="㇀" d="M18 88.71c1.75.67 3.26.11 4.26-1.5 2.92-4.7 6.71-13.45 9.37-19.45"/></g><g id="kvg:06c40-g2" kvg:element="丁" kvg:position="right"><g id="kvg:06c40-g3" kvg:element="一"><path id="kvg:06c40-s4" kvg:type="㇐" d="M39.5 20.42c3.5.95 7.05.43 10.25.11 11.96-1.21 23.74-2.38 37.75-3.08 3.15-.16 6.16-.37 9.25.36"/></g><g id="kvg:06c40-g4" kvg:element="亅"><path id="kvg:06c40-s5" kvg:type="㇚" d="M68.52 21.83c1.14 1.14 1.5 2.54 1.5 5.06.0 14.67.0 55.11.0 60.3.0 11.31-7.46 1.26-8.96.0"/></g></g></g></g></svg>