<svg xmlns="http://www.w3.org/2000/svg" width="109" height="109" viewBox="0 0 109 109"><g id="kvg:StrokePaths_06c5e"><g id="kvg:06c5e" kvg:element="汞"><g id="kvg:06c5e-g1" kvg:element="工" kvg:position="top" kvg:radical="nelson"><path id="kvg:06c5e-s1" kvg:type="㇐" d="M28.12 16.96c.95.3 4.04.4 5 .31 4.46-.41 37.51-2.26 45.01-2.57 1.46-.06 2.79.06 4 .31"/><path id="kvg:06c5e-s2" kvg:type="㇑a" d="M52.32 18.9c1.88 1.92 1.88 3.07 1.88 4.61.0 2.99-.06 8.74-.06 12.95"/><path id="kvg:06c5e-s3" kvg:type="㇐" d="M14.67 38.97c.94.22 4.31.45 5.91.35 17.21-1.06 51.39-3.63 67.06-3.96 2.57-.05 5.65.36 6.94.71"/></g><g id="kvg:06c5e-g2" kvg:element="水" kvg:position="bottom" kvg:radical="tradit"><path id="kvg:06c5e-s4" kvg:type="㇚" d="M53.79 41.08c.82.76 1.39 2.06 1.46 4.58.33 12.08-.21 43.67-.21 47.79.0 8.12-6.24.03-7.48-1.01"/><path id="kvg:06c5e-s5" kvg:type="㇇" d="M18.5 56.75c1.5.25 3.18.72 4.75.5 5.25-.75 12-1.75 16.84-2.25 2.68-.28 4.61.79 3.75 3C39.25 69.75 29.25 82.5 13.5 90.25"/><path id="kvg:06c5e-s6" kvg:type="㇒" d="M82.72 44.5c.09.41-.19 1.59-.55 2.12C78.79 51.66 71.61 57.87 65.5 60.5"/><path id="kvg:06c5e-s7" kvg:type="㇏" d="M55.5 53c11.25 10.75 25.25 24.25 35.44 31.35 2.1 1.46 4.29 1.96 6.31 2.4"/></g></g></g></svg>