<svg xmlns="http://www.w3.org/2000/svg" width="109" height="109" viewBox="0 0 109 109"><g id="kvg:StrokePaths_06c70"><g id="kvg:06c70" kvg:element="汰"><g id="kvg:06c70-g1" kvg:element="氵" kvg:variant="true" kvg:original="水" kvg:position="left" kvg:radical="general"><path id="kvg:06c70-s1" kvg:type="㇔" d="M21.88 19.5c3.84 1.47 9.91 6.05 10.87 8.34"/><path id="kvg:06c70-s2" kvg:type="㇔" d="M13.75 43c4.32 1.32 11.17 5.44 12.25 7.5"/><path id="kvg:06c70-s3" kvg:type="㇀" d="M15.25 90.23c1.93.64 3.16.07 4.2-1.5 3.03-4.57 6.05-10.16 8.8-15.99"/></g><g id="kvg:06c70-g2" kvg:element="太" kvg:position="right"><g id="kvg:06c70-g3" kvg:element="大" kvg:position="top"><path id="kvg:06c70-s4" kvg:type="㇐" d="M36.62 43.91c3.12.96 6.28.94 9.02.55 11.98-1.72 19.47-2.24 37.11-3.64 3.62-.29 5.49-.28 8.99.65"/><path id="kvg:06c70-s5" kvg:type="㇒" d="M61 16c1.06 1.06 1.24 2.56 1.24 4.87C62.24 57 52 81.55 32.25 93.86"/><path id="kvg:06c70-s6" kvg:type="㇏" d="M61.25 44.3c5.78 8.83 16.79 26.84 24.65 37.81 2.69 3.76 5.22 6.89 9.1 10.27"/></g><g id="kvg:06c70-g4" kvg:element="丶" kvg:position="bottom"><path id="kvg:06c70-s7" kvg:type="㇔" d="M57.75 79.64c3.97 1.78 9.5 6.73 11.25 10.11"/></g></g></g></g></svg>