<svg xmlns="http://www.w3.org/2000/svg" width="109" height="109" viewBox="0 0 109 109"><g id="kvg:StrokePaths_06c73"><g id="kvg:06c73" kvg:element="汳"><g id="kvg:06c73-g1" kvg:element="氵" kvg:variant="true" kvg:original="水" kvg:position="left" kvg:radical="general"><path id="kvg:06c73-s1" kvg:type="㇔" d="M19.38 16.75c4.9 1.65 12.64 6.78 13.87 9.34"/><path id="kvg:06c73-s2" kvg:type="㇔" d="M14.75 44.25c4.68 1.63 12.08 6.71 13.25 9.25"/><path id="kvg:06c73-s3" kvg:type="㇀" d="M15.25 89.75c1.78 1.25 3.91 1.3 5.03-.24C23.54 85 31.79 71 34.75 65.25"/></g><g id="kvg:06c73-g2" kvg:element="反" kvg:position="right"><g id="kvg:06c73-g3" kvg:element="厂"><path id="kvg:06c73-s4" kvg:type="㇐" d="M45.54 21.42c1.27.39 3.61.53 4.86.39 11.94-1.36 25.61-3.06 36.14-3.78 2.1-.14 3.38.19 4.43.38"/><path id="kvg:06c73-s5" kvg:type="㇒" d="M48.75 21.92c.45 1.81.48 4.31.42 6.71C48.54 52.79 50.5 74 36.72 93.53"/></g><g id="kvg:06c73-g4" kvg:element="又"><path id="kvg:06c73-s6" kvg:type="㇇" d="M50.3 42.76c1.7.24 3.5.21 6.27-.12C62 42 77 40.5 81.77 40.01c1.96-.2 4.24 1.61 3.56 3.72-8.03 24.92-18.69 44.94-37.6 53.79"/><path id="kvg:06c73-s7" kvg:type="㇏" d="M54.19 45.03c3.06 7.22 16.56 31.22 34.91 47.31 2.24 1.96 3.57 3.57 5.49 4.28"/></g></g></g></g></svg>