<svg xmlns="http://www.w3.org/2000/svg" width="109" height="109" viewBox="0 0 109 109"><g id="kvg:StrokePaths_06c8c"><g id="kvg:06c8c" kvg:element="沌"><g id="kvg:06c8c-g1" kvg:element="氵" kvg:variant="true" kvg:original="水" kvg:position="left" kvg:radical="general"><path id="kvg:06c8c-s1" kvg:type="㇔" d="M20.63 18.25c4.45 1.47 11.5 6.05 12.62 8.34"/><path id="kvg:06c8c-s2" kvg:type="㇔" d="M14 41.5c4.06 1.41 10.48 5.8 11.5 8"/><path id="kvg:06c8c-s3" kvg:type="㇀" d="M15.25 89.71c1.5 1.31 3.31 1.36 4.25-.25C22.25 84.75 25 79 27.5 73"/></g><g id="kvg:06c8c-g2" kvg:element="屯" kvg:position="right"><g id="kvg:06c8c-g3" kvg:element="丿"><path id="kvg:06c8c-s4" kvg:type="㇒" d="M83.98 20.54c.1.38.39 1.11-.2 1.54-7.32 5.42-18.14 10.4-37.22 14.77"/></g><g id="kvg:06c8c-g4" kvg:element="屮" kvg:variant="true"><g id="kvg:06c8c-g5" kvg:element="凵"><path id="kvg:06c8c-s5" kvg:type="㇗a" d="M44.47 46.92c.51.34 1.32 1.28 1.33 3.42.01 2.48-2.79 11.17-3.54 16.3-.33 2.24-.54 3.34 1.9 2.69 8.88-2.34 28.6-4.82 39.3-7.06"/><path id="kvg:06c8c-s6" kvg:type="㇑" d="M86.32 39.52c.62.52 1.95 2.22 1.86 3.36-.42 5.27-2.11 14.7-3.52 24.26"/></g><g id="kvg:06c8c-g6" kvg:element="丿" kvg:variant="true"><path id="kvg:06c8c-s7" kvg:type="㇟" d="M62.62 13.62c.89 1.38 1.59 3.01 1.64 5.14.24 9.5-.01 49.54-.01 62.64s3.18 13.38 14.66 13.38C90.39 94.77 95 93.7 95 84.18"/></g></g></g></g></g></svg>