<svg xmlns="http://www.w3.org/2000/svg" width="109" height="109" viewBox="0 0 109 109"><g id="kvg:StrokePaths_06c96"><g id="kvg:06c96" kvg:element="沖"><g id="kvg:06c96-g1" kvg:element="氵" kvg:variant="true" kvg:original="水" kvg:position="left" kvg:radical="general"><path id="kvg:06c96-s1" kvg:type="㇔" d="M25.13 18.25c3.31 1.47 8.54 6.05 9.37 8.34"/><path id="kvg:06c96-s2" kvg:type="㇔" d="M16 37.5c3.88 1.54 10.03 6.35 11 8.75"/><path id="kvg:06c96-s3" kvg:type="㇀" d="M12.87 86.7c1.34.49 2.68.22 3.48-.98 3.1-4.64 7.33-10.8 10.15-16.72"/></g><g id="kvg:06c96-g2" kvg:element="中" kvg:position="right" kvg:phon="中"><g id="kvg:06c96-g3" kvg:element="口"><path id="kvg:06c96-s4" kvg:type="㇑" d="M43.99 38.73c.76.76 1.37 1.66 1.61 3.02.74 4.23 1.59 10.05 2.55 16.95.19 1.38.39 2.8.59 4.26"/><path id="kvg:06c96-s5" kvg:type="㇕b" d="M46.06 40.11c12.56-1.73 33.33-3.8 41.82-4.32 3.4-.21 5.51.86 4.33 4.27-1.84 5.32-2.71 8.07-5.72 15.75"/><path id="kvg:06c96-s6" kvg:type="㇐b" d="M49.55 59.37c9.41-.78 23.38-1.38 35.21-2.05 1.3-.07 2.58-.14 3.83-.2"/></g><g id="kvg:06c96-g4" kvg:element="丨"><path id="kvg:06c96-s7" kvg:type="㇑" d="M66.17 14.75c.85.85 1.32 2.38 1.32 4.07.0 3.25.04 53.36.03 71.05.0 3.69.0 5.97-.01 6.12"/></g></g></g></g></svg>