<!DOCTYPE svg PUBLIC "-//W3C//DTD SVG 1.0//EN" "http://www.w3.org/TR/2001/REC-SVG-20010904/DTD/svg10.dtd" [
<!ATTLIST g
xmlns:kvg CDATA #FIXED "http://kanjivg.tagaini.net"
kvg:element CDATA #IMPLIED
kvg:variant CDATA #IMPLIED
kvg:partial CDATA #IMPLIED
kvg:original CDATA #IMPLIED
kvg:part CDATA #IMPLIED
kvg:number CDATA #IMPLIED
kvg:tradForm CDATA #IMPLIED
kvg:radicalForm CDATA #IMPLIED
kvg:position CDATA #IMPLIED
kvg:radical CDATA #IMPLIED
kvg:phon CDATA #IMPLIED >
<!ATTLIST path
xmlns:kvg CDATA #FIXED "http://kanjivg.tagaini.net"
kvg:type CDATA #IMPLIED >
]><svg xmlns="http://www.w3.org/2000/svg" width="109" height="109" viewBox="0 0 109 109"><g id="kvg:StrokePaths_06c9b" style="fill:none;stroke:#000000;stroke-width:3;stroke-linecap:round;stroke-linejoin:round;"><g id="kvg:06c9b" kvg:element="沛"><g id="kvg:06c9b-g1" kvg:element="氵" kvg:variant="true" kvg:original="水" kvg:position="left" kvg:radical="general"><path id="kvg:06c9b-s1" kvg:type="㇔" d="M19.13 17.25c4.1 1.65 10.59 6.78 11.62 9.34"/><path id="kvg:06c9b-s2" kvg:type="㇔" d="M13.5 41.25c4.24 1.63 10.94 6.21 12 8.75"/><path id="kvg:06c9b-s3" kvg:type="㇀" d="M13.25 85.73c1.71 1.27 3.78 1.32 4.86-.25 3.14-4.57 6.29-10.16 9.14-15.99"/></g><g id="kvg:06c9b-g2" kvg:element="市" kvg:position="right"><g id="kvg:06c9b-g3" kvg:element="亠" kvg:partial="true" kvg:position="top"><path id="kvg:06c9b-s4" kvg:type="㇐" d="M39.75 27.98c1.03.1 3.38.67 4.38.53 8.09-1.11 36.81-4.2 47.79-4.48 1.7-.05 2.56.04 3.83.68"/></g><g id="kvg:06c9b-g4" kvg:element="巾" kvg:position="bottom"><path id="kvg:06c9b-s5" kvg:type="㇑" d="M43.67 41.81c.84.46 2.14 2.98 2.3 3.92.17.93 1.39 28.65 1.22 34.47"/><path id="kvg:06c9b-s6" kvg:type="㇆a" d="M45.99 44.54c3.68-.3 37.96-4.5 40.69-4.79 2.32-.25 3.73 1.81 3.81 3.79C90.9 54.12 90.5 63 88.54 73.27c-1.68 8.81-5.07 3.48-7.4.05"/><path id="kvg:06c9b-s7" kvg:type="㇑" d="M63.98 11.25c.82.59 2.15 2.85 2.15 4.02.255379 11.349692.207795 74.512537.23 84.86"/></g></g></g></g><g id="kvg:StrokeNumbers_06c9b" style="font-size:8;fill:#808080"><text transform="matrix(1 0 0 1 12.50 17.50)">1</text><text transform="matrix(1 0 0 1 5.50 41.50)">2</text><text transform="matrix(1 0 0 1 6.50 90.50)">3</text><text transform="matrix(1 0 0 1 37.50 24.50)">4</text><text transform="matrix(1 0 0 1 38.25 51.25)">5</text><text transform="matrix(1 0 0 1 48.25 41.18)">6</text><text transform="matrix(1 0 0 1 54.50 11.50)">7</text></g></svg>