<!DOCTYPE svg PUBLIC "-//W3C//DTD SVG 1.0//EN" "http://www.w3.org/TR/2001/REC-SVG-20010904/DTD/svg10.dtd" [
<!ATTLIST g
xmlns:kvg CDATA #FIXED "http://kanjivg.tagaini.net"
kvg:element CDATA #IMPLIED
kvg:variant CDATA #IMPLIED
kvg:partial CDATA #IMPLIED
kvg:original CDATA #IMPLIED
kvg:part CDATA #IMPLIED
kvg:number CDATA #IMPLIED
kvg:tradForm CDATA #IMPLIED
kvg:radicalForm CDATA #IMPLIED
kvg:position CDATA #IMPLIED
kvg:radical CDATA #IMPLIED
kvg:phon CDATA #IMPLIED >
<!ATTLIST path
xmlns:kvg CDATA #FIXED "http://kanjivg.tagaini.net"
kvg:type CDATA #IMPLIED >
]><svg xmlns="http://www.w3.org/2000/svg" width="109" height="109" viewBox="0 0 109 109"><g id="kvg:StrokePaths_06cab" style="fill:none;stroke:#000000;stroke-width:3;stroke-linecap:round;stroke-linejoin:round;"><g id="kvg:06cab" kvg:element="沫"><g id="kvg:06cab-g1" kvg:element="氵" kvg:variant="true" kvg:original="水" kvg:position="left" kvg:radical="general"><path id="kvg:06cab-s1" kvg:type="㇔" d="M21.38 15.5c3.84 1.52 9.91 6.23 10.87 8.59"/><path id="kvg:06cab-s2" kvg:type="㇔" d="M13.5 39.5c4.06 1.41 10.48 5.8 11.5 8"/><path id="kvg:06cab-s3" kvg:type="㇀" d="M11.75 92.21c1.78 1.31 3.91.36 5.03-1.25 3.25-4.7 6.51-9.45 9.47-15.45"/></g><g id="kvg:06cab-g2" kvg:element="末" kvg:position="right"><path id="kvg:06cab-s4" kvg:type="㇐" d="M37.43 32.12c1.13.52 3.2.62 4.34.52 5.72-.47 40.56-4.1 47.22-4.32 1.89-.06 3.02.25 3.96.51"/><g id="kvg:06cab-g3" kvg:element="木"><path id="kvg:06cab-s5" kvg:type="㇐" d="M43.92 50.77c.66.31 2.44.53 4.19.31 10.64-1.34 27-3.53 36.47-4.16 1.76-.12 2.2-.31 3.3.0"/><path id="kvg:06cab-s6" kvg:type="㇑" d="M62.3 12.5c1.2.48 2.15 2.12 2.15 3.11.0 7.14-.24 74.39-.24 82.39"/><path id="kvg:06cab-s7" kvg:type="㇒" d="M63.66 50.8c-5.41 11.87-19.47 28.68-30.72 35.4"/><path id="kvg:06cab-s8" kvg:type="㇏" d="M64.84 50.06c4.02 4.46 21.63 25.57 26 29.96 1.48 1.49 2.75 2.12 4.23 2.55"/></g></g></g></g><g id="kvg:StrokeNumbers_06cab" style="font-size:8;fill:#808080"><text transform="matrix(1 0 0 1 15.25 15.50)">1</text><text transform="matrix(1 0 0 1 6.50 39.50)">2</text><text transform="matrix(1 0 0 1 5.25 92.48)">3</text><text transform="matrix(1 0 0 1 36.50 29.50)">4</text><text transform="matrix(1 0 0 1 36.50 51.50)">5</text><text transform="matrix(1 0 0 1 53.50 12.25)">6</text><text transform="matrix(1 0 0 1 51.50 60.18)">7</text><text transform="matrix(1 0 0 1 76.50 59.10)">8</text></g></svg>