<svg xmlns="http://www.w3.org/2000/svg" width="109" height="109" viewBox="0 0 109 109"><g id="kvg:StrokePaths_06cba"><g id="kvg:06cba" kvg:element="沺"><g id="kvg:06cba-g1" kvg:element="氵" kvg:variant="true" kvg:original="水" kvg:position="left" kvg:radical="general"><path id="kvg:06cba-s1" kvg:type="㇔" d="M18.63 13.5c4.45 1.78 11.5 7.32 12.62 10.09"/><path id="kvg:06cba-s2" kvg:type="㇔" d="M13.25 39.5C17.75 41.53 24.87 47.84 26 51"/><path id="kvg:06cba-s3" kvg:type="㇀" d="M14.25 87.23c1.71 1.27 3.75 1.31 4.86-.25C23 81.5 27.5 74.75 31.75 68.5"/></g><g id="kvg:06cba-g2" kvg:element="田" kvg:position="right"><path id="kvg:06cba-s4" kvg:type="㇑" d="M42 26.59c.36 1.07 1.49 2.77 1.56 4.1C44.25 44 44 68 44.52 89.5"/><path id="kvg:06cba-s5" kvg:type="㇕a" d="M43.18 28.59c12.58-1.19 35.63-2.19 45.02-3.34 3.45-.42 5.2 2.99 5.02 6.15-.69 11.57-2.97 39.36-5.18 57.54"/><path id="kvg:06cba-s6" kvg:type="㇑a" d="M65.43 28.43c.57.57.96 2.29.96 4.2-.05 12.55-.28 48.29-.28 52.84"/><path id="kvg:06cba-s7" kvg:type="㇐a" d="M44.44 56.51c4.12-.52 43.79-1.67 47.19-1.67"/><path id="kvg:06cba-s8" kvg:type="㇐a" d="M45.18 86.19c9.1.0 30.65-.92 43.21-1.21"/></g></g></g></svg>