<svg xmlns="http://www.w3.org/2000/svg" width="109" height="109" viewBox="0 0 109 109"><g id="kvg:StrokePaths_06cbc"><g id="kvg:06cbc" kvg:element="沼"><g id="kvg:06cbc-g1" kvg:element="氵" kvg:variant="true" kvg:original="水" kvg:position="left" kvg:radical="general"><path id="kvg:06cbc-s1" kvg:type="㇔" d="M20.75 13.5c3.88 1.65 10.03 6.78 11 9.34"/><path id="kvg:06cbc-s2" kvg:type="㇔" d="M17 37.5c3.62 1.72 9.34 7.07 10.25 9.75"/><path id="kvg:06cbc-s3" kvg:type="㇀" d="M16.25 89.98c1.77.65 2.84-.14 3.9-1.59 3.99-5.47 7.98-12.16 11.6-19.14"/></g><g id="kvg:06cbc-g2" kvg:element="召" kvg:position="right" kvg:phon="召"><g id="kvg:06cbc-g3" kvg:element="刀" kvg:position="top"><path id="kvg:06cbc-s4" kvg:type="㇆" d="M45.11 22.45c2.89 1.05 6.37.89 8.75.58 10.73-1.38 25.75-4.46 30.99-4.82 3.81-.26 5.74 1.2 5.11 4.95-1.02 5.98-2.46 17.09-7.31 26.69-2.94 5.81-6.29-.17-7.14-1.09"/><path id="kvg:06cbc-s5" kvg:type="㇒" d="M64.04 24.58c.06.79.26 2.07-.12 3.19C60 39.25 54.25 49.38 43.73 59.73"/></g><g id="kvg:06cbc-g4" kvg:element="口" kvg:position="bottom"><path id="kvg:06cbc-s6" kvg:type="㇑" d="M48.09 65.29c.93.93 1.51 2.11 1.61 3.19.92 3.88 1.68 11.14 2.48 17.53.3 2.36.56 4.53.79 6.24"/><path id="kvg:06cbc-s7" kvg:type="㇕b" d="M50.51 67.14c8.41-1.22 24.84-3.72 32.79-4.44 4.34-.4 7.01.91 5.59 5.65-1.38 4.63-3.47 11.95-4.82 17.83"/><path id="kvg:06cbc-s8" kvg:type="㇐b" d="M53.9 88.79c5.73-.27 16.66-1.05 26.35-1.54 2.02-.1 3.95-.19 5.72-.26"/></g></g></g></g></svg>