<svg xmlns="http://www.w3.org/2000/svg" width="109" height="109" viewBox="0 0 109 109"><g id="kvg:StrokePaths_06cd5" style="fill:none;stroke:#000000;stroke-width:3;stroke-linecap:round;stroke-linejoin:round;"><g id="kvg:06cd5" kvg:element="法"><g id="kvg:06cd5-g1" kvg:element="氵" kvg:variant="true" kvg:original="水" kvg:position="left" kvg:radical="general"><path id="kvg:06cd5-s1" kvg:type="㇔" d="M21.62 18.38c4.28 1.45 10 5.12 12.12 8.22"/><path id="kvg:06cd5-s2" kvg:type="㇔" d="M16.12 41.5c4.28 1.28 9.5 4.25 12.12 7.25"/><path id="kvg:06cd5-s3" kvg:type="㇀" d="M14.62 92.12c1.1.26 2.42-.08 3.07-1.16 2.92-4.77 6.64-12.13 9.3-18.22"/></g><g id="kvg:06cd5-g2" kvg:element="去" kvg:position="right"><g id="kvg:06cd5-g3" kvg:element="土" kvg:position="top"><path id="kvg:06cd5-s4" kvg:type="㇐" d="M45.25 33.73c1.39.38 3.95.72 5.34.63 9.28-.6 24.28-1.98 33.87-2.81 2.31-.2 4-.07 5.16.12"/><path id="kvg:06cd5-s5" kvg:type="㇑a" d="M64.17 15.25c.91.91 1.52 2.12 1.52 3.85.0 8.86.14 30.73.14 33.74"/><path id="kvg:06cd5-s6" kvg:type="㇐" d="M38.13 55.92c1.82.54 5.18.49 7 .29 14.38-1.58 34.32-3.71 46.12-3.9 3.04-.05 4.87.25 6.39.52"/></g><g id="kvg:06cd5-g4" kvg:element="厶" kvg:position="bottom"><path id="kvg:06cd5-s7" kvg:type="㇜" d="M63.1 58.57c.4 1.21.05 2.88-.35 3.63-5.5 10.3-9.5 15.3-17 25.79-2.16 3.03-1.84 4.42 2.6 3.31 12.15-3.05 19.65-4.49 36.9-8.12"/><path id="kvg:06cd5-s8" kvg:type="㇔" d="M79.02 73.32c4.43 3.6 11.44 14.8 12.54 20.4"/></g></g></g></g></svg>