<svg xmlns="http://www.w3.org/2000/svg" width="109" height="109" viewBox="0 0 109 109"><g id="kvg:StrokePaths_06cdb" style="fill:none;stroke:#000000;stroke-width:3;stroke-linecap:round;stroke-linejoin:round;"><g id="kvg:06cdb" kvg:element="泛"><g id="kvg:06cdb-g1" kvg:element="氵" kvg:variant="true" kvg:original="水" kvg:position="left" kvg:radical="general"><path id="kvg:06cdb-s1" kvg:type="㇔" d="M19.13 16.5c3.92 1.96 10.13 8.05 11.12 11.09"/><path id="kvg:06cdb-s2" kvg:type="㇔" d="M13.75 42.75C17.72 44.56 24.01 50.19 25 53"/><path id="kvg:06cdb-s3" kvg:type="㇀" d="M11.75 88.23c1.71 1.27 3.78 1.32 4.86-.25 3.14-4.57 9.79-14.66 12.64-20.49"/></g><g id="kvg:06cdb-g2" kvg:element="乏" kvg:position="right"><g id="kvg:06cdb-g3" kvg:element="丿" kvg:position="top"><path id="kvg:06cdb-s4" kvg:type="㇒" d="M82.69 15c.11.35.42 1.02-.22 1.42-7.92 5-19.62 9.59-40.26 13.62"/></g><g id="kvg:06cdb-g4" kvg:element="之" kvg:position="bottom"><g id="kvg:06cdb-g5" kvg:element="丶"><path id="kvg:06cdb-s5" kvg:type="㇔" d="M64.03 31.33c.87.92 1.54 1.99 1.54 5.02.0 3.15-.02 4.19-.02 9.15"/></g><path id="kvg:06cdb-s6" kvg:type="㇇" d="M40.62 48.5c.89.45 2.2.81 3.74.7 6.13-.44 38.14-4.79 40.41-5.2 4.11-.75 4.99 2 2.2 4.75-12.04 11.85-26.59 21.5-44.62 32"/><path id="kvg:06cdb-s7" kvg:type="㇏" d="M35.25 80.91c3.75-.16 5.98.41 9.74 1.07 5.76 1.01 21.89 6.72 25.44 8.2C80.75 94.5 86.25 95.75 93 96.52"/></g></g></g></g></svg>