<svg xmlns="http://www.w3.org/2000/svg" width="109" height="109" viewBox="0 0 109 109"><g id="kvg:StrokePaths_06cef"><g id="kvg:06cef" kvg:element="泯"><g id="kvg:06cef-g1" kvg:element="氵" kvg:variant="true" kvg:original="水" kvg:position="left" kvg:radical="general"><path id="kvg:06cef-s1" kvg:type="㇔" d="M18.13 17c4.45 1.78 11.5 7.32 12.62 10.09"/><path id="kvg:06cef-s2" kvg:type="㇔" d="M14.5 43.25c4.24 1.63 10.94 6.71 12 9.25"/><path id="kvg:06cef-s3" kvg:type="㇀" d="M13.75 88.76c1.84 1.23 4.05 1.29 5.2-.24 3.37-4.44 10.23-15.36 13.3-21.02"/></g><g id="kvg:06cef-g2" kvg:element="民" kvg:position="right"><path id="kvg:06cef-s4" kvg:type="㇕" d="M39.25 17.5c1.17.34 2.71 1.32 5.24 1.07 13.76-1.32 32.01-3.07 38.48-3.55 1.61-.12 3.12 1.77 2.83 3.06-1.09 4.73-3.04 12.43-3.47 16.66"/><g id="kvg:06cef-g3" kvg:element="氏" kvg:variant="true"><path id="kvg:06cef-s5" kvg:type="㇐" d="M44.2 38.56c9.3-.56 30.13-2.67 36.95-3.47 1.07-.12 3.21.17 3.75.34"/><path id="kvg:06cef-s6" kvg:type="㇙" d="M44.25 19.35c0 2.15-.12 3.23-.12 5.31.0 2.08-.17 60.66-.17 63.89s.72 4.11 3.4 2.35C52.5 87.5 62.75 80.5 65.93 78.54"/><path id="kvg:06cef-s7" kvg:type="㇐" d="M44.13 56.32c9.75-.42 33.46-3.42 46.68-4.44 1.3-.1 2.06.14 2.7.28"/><path id="kvg:06cef-s8" kvg:type="㇂" d="M64.98 39.81c.35.69 1.06 2.56 1.17 3.88C68 66 77 85.75 94.06 94.51c6.15 3.16 3.86-6.41 3.86-8.91"/></g></g></g></g></svg>