<svg xmlns="http://www.w3.org/2000/svg" width="109" height="109" viewBox="0 0 109 109"><g id="kvg:StrokePaths_06ce1" style="fill:none;stroke:#000000;stroke-width:3;stroke-linecap:round;stroke-linejoin:round;"><g id="kvg:06ce1" kvg:element="泡"><g id="kvg:06ce1-g1" kvg:element="氵" kvg:variant="true" kvg:original="水" kvg:position="left" kvg:radical="general"><path id="kvg:06ce1-s1" kvg:type="㇔" d="M21.62 15.38c4.37 1.49 11.28 6.14 12.38 8.47"/><path id="kvg:06ce1-s2" kvg:type="㇔" d="M15.75 38.5c4.24 1.63 10.94 6.71 12 9.25"/><path id="kvg:06ce1-s3" kvg:type="㇀" d="M14.5 94.48c1.62.52 3.11-.12 4.11-1.75 3.14-5.11 5.79-9.91 8.64-15.74"/></g><g id="kvg:06ce1-g2" kvg:element="包" kvg:position="right" kvg:phon="包"><g id="kvg:06ce1-g3" kvg:element="勹"><g id="kvg:06ce1-g4" kvg:element="丿"><path id="kvg:06ce1-s4" kvg:type="㇒" d="M57.89 12.75c.07 1.13.09 2.1-.3 3.18-2.71 7.44-8.44 19.09-16.11 28.52"/></g><path id="kvg:06ce1-s5" kvg:type="㇆" d="M54.73 29.23c2.52.77 5.24.45 7.39.13 6.38-.96 19.9-3.43 25.37-4.21 4-.57 5.96.93 5.72 5.1-.52 8.81-2.57 22.56-6.13 35.08-1.59 5.62-3.33 6.76-7.58 2.24"/></g><g id="kvg:06ce1-g5" kvg:element="己"><path id="kvg:06ce1-s6" kvg:type="㇕c" d="M49.48 46.27c2.3.89 3.7.77 6.15.37 5.13-.84 14.49-2.31 15.58-2.42 1.62-.16 2.92 1.05 2.32 3.52-.52 2.14-2.02 9.01-3.6 15.5"/><path id="kvg:06ce1-s7" kvg:type="㇐" d="M48.08 65.14c.94.24 2.3.91 3.92.87 5.5-.13 11.14-.96 16-1.54 2.06-.25 3-.35 4.38-.05"/><path id="kvg:06ce1-s8" kvg:type="㇟" d="M48.99 66.53c.93.93 1.1 1.93 1.09 3.65C50.05 75.69 50 81.7 50 85.5c0 10.45 1.25 11.19 22.82 11.19 20.93.0 22.21-1.81 22.21-13.09"/></g></g></g></g></svg>