<svg xmlns="http://www.w3.org/2000/svg" width="109" height="109" viewBox="0 0 109 109"><g id="kvg:StrokePaths_06d0b"><g id="kvg:06d0b" kvg:element="洋"><g id="kvg:06d0b-g1" kvg:element="氵" kvg:variant="true" kvg:original="水" kvg:position="left" kvg:radical="general"><path id="kvg:06d0b-s1" kvg:type="㇔" d="M20.47 16.1c4.27 1.65 10.89 6.3 11.84 8.45"/><path id="kvg:06d0b-s2" kvg:type="㇔" d="M14.75 38.62c4.55 1.68 11.64 6.24 12.69 8.29"/><path id="kvg:06d0b-s3" kvg:type="㇀" d="M12 90.11c1.27.32 2.51.04 3.35-1 3.92-4.86 11.37-15.58 15.04-21.9"/></g><g id="kvg:06d0b-g2" kvg:element="羊" kvg:position="right" kvg:phon="羊"><g id="kvg:06d0b-g3" kvg:element="䒑"><path id="kvg:06d0b-s4" kvg:type="㇔" d="M47.88 14.25c2.78 1.94 7.19 7.96 7.89 10.97"/><path id="kvg:06d0b-s5" kvg:type="㇒" d="M83.37 11.75c.04.44.17 1.17-.08 1.78-1.64 3.97-4.83 8.6-10.59 14.04"/><path id="kvg:06d0b-s6" kvg:type="㇐" d="M43.07 32.89c2.31.49 5.31.2 7.39.01 8.75-.8 23.4-2.48 31.83-3.06 2.42-.17 5.21-.57 7.57.17"/></g><path id="kvg:06d0b-s7" kvg:type="㇐" d="M48.28 50.89c2.59.49 5.06.35 7.1.24 7.46-.44 16.67-1.75 23.87-2.56 2.14-.24 4.38-.64 6.52-.3"/><path id="kvg:06d0b-s8" kvg:type="㇐" d="M38 72.45c2.5.55 5.3.53 7.74.19 10.76-1.51 30.31-3.45 42.64-4.38 2.43-.18 5.71-.1 8.12.25"/><path id="kvg:06d0b-s9" kvg:type="㇑" d="M65.26 34.25c.93.93 1.46 2.23 1.46 3.25.0 2.83-.12 37.06-.17 53.5-.01 3.86-.02 6.74-.02 8"/></g></g></g></svg>