<svg xmlns="http://www.w3.org/2000/svg" width="109" height="109" viewBox="0 0 109 109"><g id="kvg:StrokePaths_06d0c" style="fill:none;stroke:#000000;stroke-width:3;stroke-linecap:round;stroke-linejoin:round;"><g id="kvg:06d0c" kvg:element="洌"><g id="kvg:06d0c-g1" kvg:element="氵" kvg:variant="true" kvg:original="水" kvg:position="left" kvg:radical="general"><path id="kvg:06d0c-s1" kvg:type="㇔" d="M14.63 16.75c4.28 1.74 11.05 7.14 12.12 9.84"/><path id="kvg:06d0c-s2" kvg:type="㇔" d="M12 43c4.41 1.5 11.4 6.17 12.5 8.5"/><path id="kvg:06d0c-s3" kvg:type="㇀" d="M12.25 88.73c1.71 1.27 3.78 1.32 4.86-.25 3.14-4.57 7.29-11.66 10.14-17.49"/></g><g id="kvg:06d0c-g2" kvg:element="列" kvg:position="right"><g id="kvg:06d0c-g3" kvg:element="歹"><g id="kvg:06d0c-g4" kvg:element="一"><path id="kvg:06d0c-s4" kvg:type="㇐" d="M34.28 20.23c.94.52 2.67.63 3.62.52C44 20 59.36 18.5 65.77 18.26c1.57-.06 2.52.25 3.31.51"/></g><g id="kvg:06d0c-g5" kvg:element="夕"><path id="kvg:06d0c-s5" kvg:type="㇒" d="M49.13 22.9c.17.6.51 2.39.33 3.59-1.08 7.06-7.65 22.32-16.09 31.81"/><path id="kvg:06d0c-s6" kvg:type="㇇" d="M49.34 36.81c.25.05 2.69.0 3.4-.14 2.36-.45 5.07-1.28 9.1-2.06 2.38-.46 3.65 1.2 3.19 3.83C62.37 53.75 44.51 85.25 30.27 94"/><path id="kvg:06d0c-s7" kvg:type="㇔" d="M41.16 53.09c3.32 2.33 8.58 9.58 9.41 13.2"/></g></g><g id="kvg:06d0c-g6" kvg:element="刂" kvg:variant="true" kvg:original="刀" kvg:position="right"><path id="kvg:06d0c-s8" kvg:type="㇑" d="M74.71 28.37c.88.54 2.1 2.11 2.1 4.69.0 13.47-.31 33.74-.31 37.95"/><path id="kvg:06d0c-s9" kvg:type="㇚" d="M91.16 16.33c.67.97 1.53 2.64 1.61 5.85.37 15.42-.2 63.75-.23 69-.07 10.37-6.6 1.59-7.98.26"/></g></g></g></g></svg>