<svg xmlns="http://www.w3.org/2000/svg" width="109" height="109" viewBox="0 0 109 109"><g id="kvg:StrokePaths_06d1e"><g id="kvg:06d1e" kvg:element="洞"><g id="kvg:06d1e-g1" kvg:element="氵" kvg:variant="true" kvg:original="水" kvg:position="left" kvg:radical="general"><path id="kvg:06d1e-s1" kvg:type="㇔" d="M19.38 16.25c3.92 1.38 10.13 5.69 11.12 7.84"/><path id="kvg:06d1e-s2" kvg:type="㇔" d="M14 41.38c4.32 1.52 11.17 6.26 12.25 8.62"/><path id="kvg:06d1e-s3" kvg:type="㇀" d="M16.22 87.29c1.15.46 2.04-.01 2.79-1.37C21.67 81.08 24.12 76 27.25 69"/></g><g id="kvg:06d1e-g2" kvg:element="同" kvg:position="right" kvg:phon="同"><g id="kvg:06d1e-g3" kvg:element="冂"><path id="kvg:06d1e-s4" kvg:type="㇑" d="M40.62 19.32c.91.91 1.22 2.68 1.22 4.36.0 3.66-.06 52.79-.06 60.92.0 5.3-.03 7.73-.03 8.53"/><path id="kvg:06d1e-s5" kvg:type="㇆a" d="M42.5 20.73c6.87-.96 43.47-4.38 44.86-4.56 2.98-.4 3.98 1.5 3.98 4.15.0 2.41-.07 62.85-.07 68.39.0 11.79-4.76 4.04-7.09 1.94"/></g><g id="kvg:06d1e-g4" kvg:element="一"><path id="kvg:06d1e-s6" kvg:type="㇐" d="M51.77 37.37c1.24.6 3.32.46 4.61.24 6.13-1.06 12.82-1.83 18.01-2.21 1.7-.12 3.33-.28 4.99.2"/></g><g id="kvg:06d1e-g5" kvg:element="口"><path id="kvg:06d1e-s7" kvg:type="㇑" d="M53.38 49.83c.74.69 1.16 1.54 1.28 2.54.84 4.26 1.72 8.51 2.57 14.11.28 1.8.42 3.53.62 5.05"/><path id="kvg:06d1e-s8" kvg:type="㇕b" d="M55.93 50.96C63 50 69.29 49.1 73.76 48.47c2.88-.41 4.22.25 3.63 3.29-.83 4.29-1.79 8.54-2.99 14.35"/><path id="kvg:06d1e-s9" kvg:type="㇐b" d="M59.14 69.18c3.86-.47 7.65-.97 12.9-1.72 1.28-.18 2.33-.29 3.85-.29"/></g></g></g></g></svg>