<svg xmlns="http://www.w3.org/2000/svg" width="109" height="109" viewBox="0 0 109 109"><g id="kvg:StrokePaths_06d17" style="fill:none;stroke:#000000;stroke-width:3;stroke-linecap:round;stroke-linejoin:round;"><g id="kvg:06d17" kvg:element="洗"><g id="kvg:06d17-g1" kvg:element="氵" kvg:variant="true" kvg:original="水" kvg:position="left" kvg:radical="general"><path id="kvg:06d17-s1" kvg:type="㇔" d="M21.88 21.25c3.75 1.25 9.68 5.15 10.62 7.09"/><path id="kvg:06d17-s2" kvg:type="㇔" d="M15 43.5c3.97 1.46 8.84 5.06 11.25 8.25"/><path id="kvg:06d17-s3" kvg:type="㇀" d="M14.25 88.5c1.45.68 2.98.48 3.85-.83 3.1-4.66 6.21-10.35 9.03-16.3"/></g><g id="kvg:06d17-g2" kvg:element="先" kvg:position="right" kvg:phon="先"><g id="kvg:06d17-g3" kvg:position="top"><path id="kvg:06d17-s4" kvg:type="㇒" d="M48.77 27.75c.09 1.01.12 2.17-.19 3.15-2.2 6.85-5.08 13.98-9.58 20.35"/><path id="kvg:06d17-s5" kvg:type="㇐" d="M49.63 38.29c1.37.21 2.5.21 4.14.03 6.47-.72 15.86-2.57 23.32-3.94 1.13-.21 3.84.13 4.41.27"/><path id="kvg:06d17-s6" kvg:type="㇑a" d="M61.81 15.38c1.15 1.15 1.51 2.62 1.51 4 0 .91-.07 28.74-.07 35.12"/><path id="kvg:06d17-s7" kvg:type="㇐" d="M37.38 57.01c2.61.94 6.03.64 8.74.37C57.25 56.25 73.25 54.5 84 53.64c2.66-.21 5.26-.16 7.88.4"/></g><g id="kvg:06d17-g4" kvg:element="儿" kvg:original="八" kvg:position="bottom"><g id="kvg:06d17-g5" kvg:element="丿"><path id="kvg:06d17-s8" kvg:type="㇒" d="M54.18 59.93c.07.86.21 2.25-.14 3.47C51 74.25 43.38 87.88 31.14 97.15"/></g><path id="kvg:06d17-s9" kvg:type="㇟" d="M67.49 58.12c1.07 1.07 1.43 2.63 1.43 4.15.0 5.26-.04 13.88-.04 19.98.0 11 1 12.03 12.88 12.03 11.5.0 12.14-1.53 12.14-9.33"/></g></g></g></g></svg>