<svg xmlns="http://www.w3.org/2000/svg" width="109" height="109" viewBox="0 0 109 109"><g id="kvg:StrokePaths_06d35"><g id="kvg:06d35" kvg:element="洵"><g id="kvg:06d35-g1" kvg:element="氵" kvg:variant="true" kvg:original="水" kvg:position="left" kvg:radical="general"><path id="kvg:06d35-s1" kvg:type="㇔" d="M22.38 15.5c4.45 1.78 11.5 7.32 12.62 10.09"/><path id="kvg:06d35-s2" kvg:type="㇔" d="M15.25 40c4.24 1.63 10.94 6.71 12 9.25"/><path id="kvg:06d35-s3" kvg:type="㇀" d="M15 88.48c2.25.77 3.28-.18 4.36-1.75 3.14-4.57 6.29-10.16 9.14-15.99"/></g><g id="kvg:06d35-g2" kvg:element="旬" kvg:position="right"><g id="kvg:06d35-g3" kvg:element="勹"><g id="kvg:06d35-g4" kvg:element="丿"><path id="kvg:06d35-s4" kvg:type="㇒" d="M56.79 13c.09 1.3-.31 2.94-.86 4.17-3.3 7.45-8.95 17.91-18.68 28.96"/></g><path id="kvg:06d35-s5" kvg:type="㇆" d="M52.95 29.21c3.3 1.17 5.92.74 8.68.48 7.12-.67 20.59-1.71 25.88-2.1 5.36-.39 6.66 2 6.04 7.23-.54 4.51-2.17 31.18-7.53 51.85-2.54 9.77-6.16 8.84-10.96 2.77"/></g><g id="kvg:06d35-g5" kvg:element="日"><path id="kvg:06d35-s6" kvg:type="㇑" d="M49.49 44.17c.86.86 1.02 1.83 1.02 3.58.0.76.0 15.42.0 24.25.0 2.54.0 4.6.0 5.7"/><path id="kvg:06d35-s7" kvg:type="㇕a" d="M50.94 45.95c1.19-.1 11.21-1.49 15.58-2.31 2.1-.39 3.61.63 3.61 3.62.0 5.22.0 17.46.0 24.62.0 3.12.0 5.27.0 5.47"/><path id="kvg:06d35-s8" kvg:type="㇐a" d="M51.69 60.45c3.93-.45 14.85-1.38 17.08-1.38"/><path id="kvg:06d35-s9" kvg:type="㇐a" d="M51.6 75.08c5.02-.46 11.65-1.08 17.42-1.45"/></g></g></g></g></svg>