<svg xmlns="http://www.w3.org/2000/svg" width="109" height="109" viewBox="0 0 109 109"><g id="kvg:StrokePaths_06d33"><g id="kvg:06d33" kvg:element="洳"><g id="kvg:06d33-g1" kvg:element="氵" kvg:variant="true" kvg:original="水" kvg:position="left" kvg:radical="general"><path id="kvg:06d33-s1" kvg:type="㇔" d="M18.13 17c4.28 1.78 11.05 7.32 12.12 10.09"/><path id="kvg:06d33-s2" kvg:type="㇔" d="M13.5 43.5c4.24 1.85 10.94 7.62 12 10.5"/><path id="kvg:06d33-s3" kvg:type="㇀" d="M13.75 88.73c1.71 1.27 3.78 1.32 4.86-.25 3.14-4.57 8.29-13.66 11.14-19.49"/></g><g id="kvg:06d33-g2" kvg:element="如" kvg:position="right"><g id="kvg:06d33-g3" kvg:element="女" kvg:position="left"><path id="kvg:06d33-s4" kvg:type="㇛" d="M49.99 18.12c.29 1 .83 2.63.68 4.07-.75 7.08-6.17 34.07-10.86 43.02-.85 1.62.3 2.42.68 2.52 9.27 2.53 15.44 9.78 19.69 20.06"/><path id="kvg:06d33-s5" kvg:type="㇒" d="M61.59 32.89c.24 1.58.62 4.27.3 6.32C59.3 55.8 51.35 79.91 32.83 92.25"/><path id="kvg:06d33-s6" kvg:type="㇀/㇐" d="M33.5 44.98c.56.77 1.3 1.32 2.79 1.14 1.6-.2 18.26-3.56 27.39-5.49"/></g><g id="kvg:06d33-g4" kvg:element="口" kvg:position="right"><path id="kvg:06d33-s7" kvg:type="㇑" d="M70.77 31.27c.36.75.72 1.38.87 2.32 1.23 7.47.15 40.42.37 56.11"/><path id="kvg:06d33-s8" kvg:type="㇕b" d="M71.72 33.48c8.11-1.2 14.28-2.23 20.29-2.98 1.55-.19 3.28 1.62 3.06 3.73-.9 8.72-3.67 37-4.8 51.16"/><path id="kvg:06d33-s9" kvg:type="㇐b" d="M72.18 86.71c6.58-.86 14.82-1.21 21.04-1.38"/></g></g></g></g></svg>