<svg xmlns="http://www.w3.org/2000/svg" width="109" height="109" viewBox="0 0 109 109"><g id="kvg:StrokePaths_06d45"><g id="kvg:06d45" kvg:element="浅"><g id="kvg:06d45-g1" kvg:element="氵" kvg:variant="true" kvg:original="水" kvg:position="left" kvg:radical="general"><path id="kvg:06d45-s1" kvg:type="㇔" d="M19.26 17.25c4.06 1.56 10.48 6.41 11.49 8.84"/><path id="kvg:06d45-s2" kvg:type="㇔" d="M13.62 44c4.28 1.41 11.05 5.8 12.12 8"/><path id="kvg:06d45-s3" kvg:type="㇀" d="M15.88 91.62c1.53.06 2.51-.95 3.2-2.18 3.07-5.49 6.14-12.2 8.92-19.2"/></g><g id="kvg:06d45-g2" kvg:element="戋" kvg:variant="true" kvg:original="戔" kvg:position="right" kvg:phon="戋/戔V"><g id="kvg:06d45-g3" kvg:element="三" kvg:part="1"><g id="kvg:06d45-g4" kvg:element="一" kvg:position="top"><path id="kvg:06d45-s4" kvg:type="㇐" d="M39.45 31.88c1.37.41 3.91.39 5.25.16 7.14-1.24 23.17-4.66 33.42-5.54 2.17-.19 3.75-.12 5.1.11"/></g><g id="kvg:06d45-g5" kvg:element="一" kvg:position="bottom"><path id="kvg:06d45-s5" kvg:type="㇐" d="M42.99 45.42c1.36.48 3.89.49 5.22.19 8.53-1.87 19.29-4.24 27.51-5.56 2.59-.41 4.74-.42 6-.1"/></g><g id="kvg:06d45-g6" kvg:element="戈"><g id="kvg:06d45-g7" kvg:element="弋" kvg:part="1"><g id="kvg:06d45-g8" kvg:element="三" kvg:part="2"><g id="kvg:06d45-g9" kvg:element="一"><path id="kvg:06d45-s6" kvg:type="㇐" d="M37.55 60.38c2.13.62 6.08.5 8.16.1 9.79-1.85 30.21-6.09 43.13-7.48 2.49-.27 4.46-.12 5.66.0"/></g></g><path id="kvg:06d45-s7" kvg:type="㇂" d="M50.88 11c1.62 1.25 2.67 3.62 2.96 6.49C57.25 52 66.12 77.19 89.31 93.61c7.17 5.08 6.67.81 5.68-7.58"/></g><g id="kvg:06d45-g10" kvg:element="丿"><path id="kvg:06d45-s8" kvg:type="㇒" d="M84.75 60.25c.12.84-.11 1.97-.74 3.1C79 72.25 65 87.12 40.78 96.23"/></g><g id="kvg:06d45-g11" kvg:element="弋" kvg:part="2"><g id="kvg:06d45-g12" kvg:element="丶"><path id="kvg:06d45-s9" kvg:type="㇔" d="M68.55 11.08c3.47 1.44 9.01 4.72 10.62 7.18"/></g></g></g></g></g></g></g></svg>