<svg xmlns="http://www.w3.org/2000/svg" width="109" height="109" viewBox="0 0 109 109"><g id="kvg:StrokePaths_06d5c" style="fill:none;stroke:#000000;stroke-width:3;stroke-linecap:round;stroke-linejoin:round;"><g id="kvg:06d5c" kvg:element="浜"><g id="kvg:06d5c-g1" kvg:element="氵" kvg:variant="true" kvg:original="水" kvg:position="left" kvg:radical="general"><path id="kvg:06d5c-s1" kvg:type="㇔" d="M22.62 16.38c3.75 1.58 9.69 6.5 10.62 8.97"/><path id="kvg:06d5c-s2" kvg:type="㇔" d="M16.25 38c3.79 1.5 9.8 6.17 10.75 8.5"/><path id="kvg:06d5c-s3" kvg:type="㇀" d="M14.75 87.46c1.62.79 2.85.34 3.82-1.1 3.41-5.03 6.83-11.18 9.93-17.6"/></g><g id="kvg:06d5c-g2" kvg:element="兵" kvg:position="right" kvg:phon="賓V"><g id="kvg:06d5c-g3" kvg:element="丘" kvg:position="top"><g id="kvg:06d5c-g4" kvg:element="斤"><path id="kvg:06d5c-s4" kvg:type="㇒" d="M66.88 15.75c.07.89-.11 1.72-.55 2.48C62 25.62 58.46 30.91 49.84 38.95"/><path id="kvg:06d5c-s5" kvg:type="㇑a" d="M45.92 38.25c1.23.87 1.85 2.2 2.04 3.84.71 6.06 2.09 17.28 2.72 23.9"/><path id="kvg:06d5c-s6" kvg:type="㇐" d="M49.38 41.13c1.36-.19 2.9-.4 4.59-.62 8.05-1.04 18.96-2.3 26.82-3.47 1.42-.21 3.91-.18 4.8.0"/><path id="kvg:06d5c-s7" kvg:type="㇑a" d="M75.17 40.81c.4 1.18.36 2.44.11 3.8-.74 3.95-1.81 8.71-3.93 18.63"/></g><g id="kvg:06d5c-g5" kvg:element="一"><path id="kvg:06d5c-s8" kvg:type="㇐" d="M36.81 67.71c2.26.61 5.13.73 7.45.46C54.12 67 78 64.88 88.89 64.43c2.41-.1 4.98.19 6.8.88"/></g></g><g id="kvg:06d5c-g6" kvg:element="八" kvg:position="bottom"><g id="kvg:06d5c-g7" kvg:position="left"><path id="kvg:06d5c-s9" kvg:type="㇒" d="M54.18 75.84c.12 1.04-.18 1.7-.77 2.56-3.66 5.35-9.04 11.1-19.38 17.15"/></g><g id="kvg:06d5c-g8" kvg:position="right"><path id="kvg:06d5c-s10" kvg:type="㇔/㇏" d="M70.44 74.43c6.34 3.51 16.37 14.42 17.96 19.88"/></g></g></g></g></g></svg>