<svg xmlns="http://www.w3.org/2000/svg" width="109" height="109" viewBox="0 0 109 109"><g id="kvg:StrokePaths_06d6e"><g id="kvg:06d6e" kvg:element="浮"><g id="kvg:06d6e-g1" kvg:element="氵" kvg:variant="true" kvg:original="水" kvg:position="left" kvg:radical="general"><path id="kvg:06d6e-s1" kvg:type="㇔" d="M22.12 17.88c3.93 1.45 10.14 5.96 11.12 8.22"/><path id="kvg:06d6e-s2" kvg:type="㇔" d="M16 40.12c4.15 1.26 10.71 5.17 11.75 7.12"/><path id="kvg:06d6e-s3" kvg:type="㇀" d="M12.72 88.81c1.4.19 2.25-.04 3.14-1.32C19 82.92 24.12 73.75 27.75 67.5"/></g><g id="kvg:06d6e-g2" kvg:element="孚" kvg:variant="true" kvg:position="right" kvg:phon="孚"><g id="kvg:06d6e-g3" kvg:element="⺤" kvg:variant="true" kvg:original="爪" kvg:position="top"><path id="kvg:06d6e-s4" kvg:type="㇒" d="M73.52 12.04c-.4 1.21-1.18 1.7-1.9 2.08-5.12 2.64-10.74 4.76-22.51 7.86"/><path id="kvg:06d6e-s5" kvg:type="㇔" d="M44.02 29.99c2.84 1.73 6.59 6.64 7.3 9.34"/><path id="kvg:06d6e-s6" kvg:type="㇔" d="M59.19 25.76c2.36 1.74 5.36 6.64 5.95 9.34"/><path id="kvg:06d6e-s7" kvg:type="㇒" d="M87.02 21.09c.12.91-.3 1.76-.76 2.55-2.38 3.36-5.86 7.47-12.07 12.69"/></g><g id="kvg:06d6e-g4" kvg:element="子" kvg:position="bottom"><path id="kvg:06d6e-s8" kvg:type="㇖" d="M45.73 46.87c2.47.62 5.05.6 7.55.14 7.32-1.36 19.85-3.88 27.28-5.26 1.78-.33 2.82 1.48.86 2.84-3.29 2.28-13.13 9.24-17.72 12.07"/><path id="kvg:06d6e-s9" kvg:type="㇁" d="M62.97 56.91c8.66 9.59 10.25 25.98 7.46 33.41-2.32 6.19-7.26 8.14-12.14 1.69"/><path id="kvg:06d6e-s10" kvg:type="㇐" d="M36.5 69.89c2.5.73 5.83.61 8.12.24 11.75-1.88 32.5-4.3 44.12-5.21 3.01-.24 6.6-.08 9.5.84"/></g></g></g></g></svg>