<svg xmlns="http://www.w3.org/2000/svg" width="109" height="109" viewBox="0 0 109 109"><g id="kvg:StrokePaths_06d6c"><g id="kvg:06d6c" kvg:element="浬"><g id="kvg:06d6c-g1" kvg:element="氵" kvg:variant="true" kvg:original="水" kvg:position="left" kvg:radical="general"><path id="kvg:06d6c-s1" kvg:type="㇔" d="M18.13 16.25c4.28 1.65 10.24 6.38 12.37 9.09"/><path id="kvg:06d6c-s2" kvg:type="㇔" d="M13.75 43.25c4.5 1.46 11.12 5.25 12.75 7.75"/><path id="kvg:06d6c-s3" kvg:type="㇀" d="M15 89.19c2.12.68 3.71-.62 4.77-2.26 3.09-4.77 8.17-14.48 10.98-20.56"/></g><g id="kvg:06d6c-g2" kvg:element="里" kvg:position="right"><g id="kvg:06d6c-g3" kvg:element="日"><path id="kvg:06d6c-s4" kvg:type="㇑" d="M43.54 20.5c.79.79 1.31 1.38 1.49 2.67 1.39 9.96 2.31 17.01 3.35 26.21.25 2.18.5 4.49.77 6.98"/><path id="kvg:06d6c-s5" kvg:type="㇕a" d="M46.01 22.29c16.29-1.52 30.11-2.83 38.11-3.53 4.64-.41 7.64.31 6.93 5.87-.76 5.97-1.9 14.25-3.1 21.63-.47 2.88-.94 5.62-1.4 8.04"/><path id="kvg:06d6c-s6" kvg:type="㇐a" d="M48.3 37.49c8.82-.74 32.95-2.87 39.94-2.81"/><path id="kvg:06d6c-s7" kvg:type="㇐a" d="M49.72 53.52c7.9-.63 25.03-1.77 36.07-2.05"/></g><path id="kvg:06d6c-s8" kvg:type="㇑a" d="M65.83 22.13c1.08 1.08 1.6 2.62 1.6 4.36.0 12.9-.05 57.47-.05 62.13"/><path id="kvg:06d6c-s9" kvg:type="㇐" d="M44.97 71.92c2.24.48 4.5.52 6.77.13 9.02-1.07 21.01-2.17 29.64-2.49 2.47-.33 4.92.0 7.34.48"/><path id="kvg:06d6c-s10" kvg:type="㇐" d="M36.88 91.23c3.24.65 6.47.57 9.75.21 13.12-1.44 25.62-2.19 41.5-2.84 3.18-.13 6.35-.01 9.5.47"/></g></g></g></svg>