<svg xmlns="http://www.w3.org/2000/svg" width="109" height="109" viewBox="0 0 109 109"><g id="kvg:StrokePaths_06d79" style="fill:none;stroke:#000000;stroke-width:3;stroke-linecap:round;stroke-linejoin:round;"><g id="kvg:06d79" kvg:element="浹"><g id="kvg:06d79-g1" kvg:element="氵" kvg:variant="true" kvg:original="水" kvg:position="left" kvg:radical="general"><path id="kvg:06d79-s1" kvg:type="㇔" d="M17.38 15.5c4.72 1.78 12.19 7.32 13.37 10.09"/><path id="kvg:06d79-s2" kvg:type="㇔" d="M14 41.75c4.24 1.63 10.94 6.71 12 9.25"/><path id="kvg:06d79-s3" kvg:type="㇀" d="M13.25 89.23c1.71 1.27 3.78 1.32 4.86-.25 3.14-4.57 9.29-16.16 12.14-21.99"/></g><g id="kvg:06d79-g2" kvg:element="夾" kvg:position="right"><g id="kvg:06d79-g3" kvg:element="大" kvg:part="1"><path id="kvg:06d79-s4" kvg:type="㇐" d="M37.75 31.15c1.29.44 3.65.49 4.94.44 9.06-.34 39.58-3.02 47.54-2.52 2.14.14 3.44.21 4.52.43"/></g><g id="kvg:06d79-g4" kvg:element="从"><g id="kvg:06d79-g5" kvg:element="人" kvg:position="left"><path id="kvg:06d79-s5" kvg:type="㇒" d="M49.51 40.74c0 .6.05 1.1-.09 1.8-1.31 6.52-5.21 14.63-10.95 21.83"/><path id="kvg:06d79-s6" kvg:type="㇏" d="M47.64 53.71c2.93 1.5 6.68 5.5 8.11 9.29"/></g><g id="kvg:06d79-g6" kvg:element="人" kvg:position="right"><path id="kvg:06d79-s7" kvg:type="㇒" d="M82.77 38.74c0 .54.08 1.01-.08 1.62-1.38 5.28-5.3 14.69-9.97 20.02"/><path id="kvg:06d79-s8" kvg:type="㇏" d="M80.89 50.71c5.01 2.86 8.86 6.44 11.86 10.79"/></g></g><g id="kvg:06d79-g7" kvg:element="大" kvg:part="2"><path id="kvg:06d79-s9" kvg:type="㇒" d="M63.25 12.25c.48 1.17 1.25 2.52 1.25 5.04.0 46.84-2.99 62.71-31.24 80.21"/><path id="kvg:06d79-s10" kvg:type="㇏" d="M63.5 53c6.01 12.1 19.23 33.57 27.38 40.53 2.28 1.95 2.89 2.51 3.87 2.72"/></g></g></g></g></svg>