<!DOCTYPE svg PUBLIC "-//W3C//DTD SVG 1.0//EN" "http://www.w3.org/TR/2001/REC-SVG-20010904/DTD/svg10.dtd" [
<!ATTLIST g
xmlns:kvg CDATA #FIXED "http://kanjivg.tagaini.net"
kvg:element CDATA #IMPLIED
kvg:variant CDATA #IMPLIED
kvg:partial CDATA #IMPLIED
kvg:original CDATA #IMPLIED
kvg:part CDATA #IMPLIED
kvg:number CDATA #IMPLIED
kvg:tradForm CDATA #IMPLIED
kvg:radicalForm CDATA #IMPLIED
kvg:position CDATA #IMPLIED
kvg:radical CDATA #IMPLIED
kvg:phon CDATA #IMPLIED >
<!ATTLIST path
xmlns:kvg CDATA #FIXED "http://kanjivg.tagaini.net"
kvg:type CDATA #IMPLIED >
]><svg xmlns="http://www.w3.org/2000/svg" width="109" height="109" viewBox="0 0 109 109"><g id="kvg:StrokePaths_06daf" style="fill:none;stroke:#000000;stroke-width:3;stroke-linecap:round;stroke-linejoin:round;"><g id="kvg:06daf" kvg:element="涯"><g id="kvg:06daf-g1" kvg:element="氵" kvg:variant="true" kvg:original="水" kvg:position="left" kvg:radical="general"><path id="kvg:06daf-s1" kvg:type="㇔" d="M19.5 17.62c3.97 1.45 10.26 5.96 11.25 8.22"/><path id="kvg:06daf-s2" kvg:type="㇔" d="M14.5 44.25c3.97 1.37 10.26 5.62 11.25 7.75"/><path id="kvg:06daf-s3" kvg:type="㇀" d="M14.95 90.6c1.25.62 3.05.14 3.8-1.14C21.5 84.75 26.5 74 29 68"/></g><g id="kvg:06daf-g2" kvg:element="厓" kvg:position="kamae" kvg:phon="厓"><g id="kvg:06daf-g3" kvg:element="厂"><path id="kvg:06daf-s4" kvg:type="㇐" d="M39.92 22.55c2.7.45 6.01.37 8.46.14 9.23-.88 21.64-2.64 33.36-3.4 2.75-.18 5.45-.5 8.13.26"/><path id="kvg:06daf-s5" kvg:type="㇒" d="M42.91 23.69c.77.77 1.21 1.94 1.17 3.72-.58 25.46-4.34 48.2-14.58 62.34"/></g><g id="kvg:06daf-g4" kvg:element="圭"><g id="kvg:06daf-g5" kvg:element="土" kvg:position="top"><path id="kvg:06daf-s6" kvg:type="㇐" d="M52.7 40.21c1.42.63 3.81.35 5.3.19 7.12-.78 16.83-2.14 23.87-2.53 1.56-.08 3.13-.25 4.66.16"/><path id="kvg:06daf-s7" kvg:type="㇑a" d="M67.86 27.37c.89.89 1.23 2.2 1.23 3.54S69 48.56 69 53.25"/><path id="kvg:06daf-s8" kvg:type="㇐" d="M49.12 55.34c2 .81 4.44.54 6.51.29 9.62-1.14 21.79-2.13 30.62-2.56 2.19-.11 4.31.06 6.45.58"/></g><g id="kvg:06daf-g6" kvg:element="土" kvg:position="bottom"><path id="kvg:06daf-s9" kvg:type="㇐" d="M51.59 72.46c1.49.58 3.86.4 5.42.23 8.16-.9 18.77-2.12 26.75-2.49 1.6-.08 3.19-.19 4.76.18"/><path id="kvg:06daf-s10" kvg:type="㇑a" d="M67.9 60.21c1.2 1.2 1.54 2.62 1.54 4.4S69.38 83 69.38 88.25"/><path id="kvg:06daf-s11" kvg:type="㇐" d="M42.8 90.33c2.36.95 5.32.84 7.81.64 12.08-.95 27.37-1.83 38.64-2.34 2.66-.12 5.14.14 7.7.76"/></g></g></g></g></g><g id="kvg:StrokeNumbers_06daf" style="font-size:8;fill:#808080"><text transform="matrix(1 0 0 1 12.75 16.63)">1</text><text transform="matrix(1 0 0 1 6.50 43.63)">2</text><text transform="matrix(1 0 0 1 7.50 94.50)">3</text><text transform="matrix(1 0 0 1 40.50 19.63)">4</text><text transform="matrix(1 0 0 1 36.75 33.50)">5</text><text transform="matrix(1 0 0 1 51.50 37.63)">6</text><text transform="matrix(1 0 0 1 59.50 31.63)">7</text><text transform="matrix(1 0 0 1 48.50 52.63)">8</text><text transform="matrix(1 0 0 1 49.50 69.05)">9</text><text transform="matrix(1 0 0 1 57.50 64.63)">10</text><text transform="matrix(1 0 0 1 40.50 87.13)">11</text></g></svg>