<svg xmlns="http://www.w3.org/2000/svg" width="109" height="109" viewBox="0 0 109 109"><g id="kvg:StrokePaths_06dcc" style="fill:none;stroke:#000000;stroke-width:3;stroke-linecap:round;stroke-linejoin:round;"><g id="kvg:06dcc" kvg:element="淌"><g id="kvg:06dcc-g1" kvg:element="氵" kvg:variant="true" kvg:original="水" kvg:position="left" kvg:radical="general"><path id="kvg:06dcc-s1" kvg:type="㇔" d="M17.13 15.75c4.63 1.74 11.96 7.14 13.12 9.84"/><path id="kvg:06dcc-s2" kvg:type="㇔" d="M14 42.5c4.41 1.59 11.4 6.53 12.5 9"/><path id="kvg:06dcc-s3" kvg:type="㇀" d="M15.75 89.71c1.5 1.31 3.31 1.36 4.25-.25C22.75 84.75 28.5 73 31 67"/></g><g id="kvg:06dcc-g2" kvg:element="尚" kvg:variant="true" kvg:position="right"><g id="kvg:06dcc-g3" kvg:element="⺌" kvg:variant="true" kvg:original="小" kvg:position="top"><path id="kvg:06dcc-s4" kvg:type="㇑" d="M63.04 12.62c.21.4 2.33 2.07 2.33 4.59.0 11.46-.18 21.86-.18 25.99"/><path id="kvg:06dcc-s5" kvg:type="㇒" d="M53.12 22.02c.05.42.1 1.07-.09 1.67-1.09 3.52-7.37 11.26-15.95 15.99"/><path id="kvg:06dcc-s6" kvg:type="㇔" d="M77.3 20.6c6.08 2.68 15.72 11.03 17.24 15.2"/></g><g id="kvg:06dcc-g4" kvg:element="冋" kvg:position="bottom"><g id="kvg:06dcc-g5" kvg:element="冂"><path id="kvg:06dcc-s7" kvg:type="㇑" d="M42.55 43.35c.97.77 1.7 2.58 1.78 4.01.35 6.26-.62 39.29-.43 48.53"/><path id="kvg:06dcc-s8" kvg:type="㇆a" d="M44.17 45.84C61 44.36 73.45 42.75 86.26 41.6c2.76-.25 4.83 1.74 4.77 4.04-.21 8.22-.16 28.5-.16 42.11.0 9.75-5.19 5.41-8.28.79"/></g><g id="kvg:06dcc-g6" kvg:element="口"><path id="kvg:06dcc-s9" kvg:type="㇑" d="M56.31 57.33c.24.22.51.39.58.68.68 2.52 2.11 18.05 2.79 21.76"/><path id="kvg:06dcc-s10" kvg:type="㇕b" d="M57.79 58.81c4.38-.54 11.36-2.28 15.43-2.54 1.77-.11 3.05 1.12 2.82 2.71-.79 5.27-1.34 7.47-2.97 16.78"/><path id="kvg:06dcc-s11" kvg:type="㇐b" d="M60.18 77.46c5.67-.73 10.28-.89 14.78-1.39"/></g></g></g></g></g></svg>