<!DOCTYPE svg PUBLIC "-//W3C//DTD SVG 1.0//EN" "http://www.w3.org/TR/2001/REC-SVG-20010904/DTD/svg10.dtd" [
<!ATTLIST g
xmlns:kvg CDATA #FIXED "http://kanjivg.tagaini.net"
kvg:element CDATA #IMPLIED
kvg:variant CDATA #IMPLIED
kvg:partial CDATA #IMPLIED
kvg:original CDATA #IMPLIED
kvg:part CDATA #IMPLIED
kvg:number CDATA #IMPLIED
kvg:tradForm CDATA #IMPLIED
kvg:radicalForm CDATA #IMPLIED
kvg:position CDATA #IMPLIED
kvg:radical CDATA #IMPLIED
kvg:phon CDATA #IMPLIED >
<!ATTLIST path
xmlns:kvg CDATA #FIXED "http://kanjivg.tagaini.net"
kvg:type CDATA #IMPLIED >
]><svg xmlns="http://www.w3.org/2000/svg" width="109" height="109" viewBox="0 0 109 109"><g id="kvg:StrokePaths_06dc0" style="fill:none;stroke:#000000;stroke-width:3;stroke-linecap:round;stroke-linejoin:round;"><g id="kvg:06dc0" kvg:element="淀"><g id="kvg:06dc0-g1" kvg:element="氵" kvg:variant="true" kvg:original="水" kvg:position="left" kvg:radical="general"><path id="kvg:06dc0-s1" kvg:type="㇔" d="M18.13 15.25c3.92 1.65 10.13 6.78 11.12 9.34"/><path id="kvg:06dc0-s2" kvg:type="㇔" d="M11.5 37.25C15.91 38.62 22.9 42.87 24 45"/><path id="kvg:06dc0-s3" kvg:type="㇀" d="M10.25 89.25c1.75 1.25 3.85 1.3 4.94-.24 3.2-4.5 6.4-10.01 9.31-15.76"/></g><g id="kvg:06dc0-g2" kvg:element="定" kvg:position="right"><g id="kvg:06dc0-g3" kvg:element="宀" kvg:position="top"><path id="kvg:06dc0-s4" kvg:type="㇑a" d="M60.66 13.42c.71.8 1.93 2.8 1.91 3.9-.07 3.46-.07 7.98-.07 11.13"/><g id="kvg:06dc0-g4" kvg:element="冖"><path id="kvg:06dc0-s5" kvg:type="㇔" d="M40.41 29.41c0 3.09-1.73 11.58-2.51 13.64"/><path id="kvg:06dc0-s6" kvg:type="㇖b" d="M41.12 31.56c11.95-1.7 32.11-4.54 43.36-4.95 10.33-.38 3.27 5 .05 7.22"/></g></g><g id="kvg:06dc0-g5" kvg:element="疋" kvg:variant="true" kvg:position="bottom"><path id="kvg:06dc0-s7" kvg:type="㇐" d="M48.32 43.96c2.07.42 4.07.83 6.17.5 4.97-.78 16.77-2.2 21.5-2.9 2.81-.42 2.33-.38 4.61-.38"/><g id="kvg:06dc0-g6" kvg:element="龰"><g id="kvg:06dc0-g7" kvg:element="卜" kvg:original="ト"><path id="kvg:06dc0-s8" kvg:type="㇑" d="M61.41 44.95c.81.42 1.3 1.9 1.46 2.75.16.85.37 30.08.21 35.37"/><path id="kvg:06dc0-s9" kvg:type="㇐" d="M63.78 61.39c6.19-.71 8.65-1.43 17.99-2.85 1.5-.23 1.89-.24 2.84.0"/></g><g id="kvg:06dc0-g8" kvg:element="人"><path id="kvg:06dc0-s10" kvg:type="㇒" d="M47.54 61.96c.04.72.09 1.86-.09 2.9-1.05 6.12-7.15 18.35-15.39 26.56"/><path id="kvg:06dc0-s11" kvg:type="㇏" d="M44.19 73.8C53 79.5 74.5 90.25 85.8 92.92c2.37.56 5.19.82 7.44 1.08"/></g></g></g></g></g></g><g id="kvg:StrokeNumbers_06dc0" style="font-size:8;fill:#808080"><text transform="matrix(1 0 0 1 12.50 15.50)">1</text><text transform="matrix(1 0 0 1 4.50 37.50)">2</text><text transform="matrix(1 0 0 1 3.50 92.50)">3</text><text transform="matrix(1 0 0 1 52.50 13.50)">4</text><text transform="matrix(1 0 0 1 34.50 29.50)">5</text><text transform="matrix(1 0 0 1 43.50 28.50)">6</text><text transform="matrix(1 0 0 1 46.50 40.50)">7</text><text transform="matrix(1 0 0 1 55.25 54.50)">8</text><text transform="matrix(1 0 0 1 66.50 57.50)">9</text><text transform="matrix(1 0 0 1 36.50 62.50)">10</text><text transform="matrix(1 0 0 1 50.25 74.50)">11</text></g></svg>