<!DOCTYPE svg PUBLIC "-//W3C//DTD SVG 1.0//EN" "http://www.w3.org/TR/2001/REC-SVG-20010904/DTD/svg10.dtd" [
<!ATTLIST g
xmlns:kvg CDATA #FIXED "http://kanjivg.tagaini.net"
kvg:element CDATA #IMPLIED
kvg:variant CDATA #IMPLIED
kvg:partial CDATA #IMPLIED
kvg:original CDATA #IMPLIED
kvg:part CDATA #IMPLIED
kvg:number CDATA #IMPLIED
kvg:tradForm CDATA #IMPLIED
kvg:radicalForm CDATA #IMPLIED
kvg:position CDATA #IMPLIED
kvg:radical CDATA #IMPLIED
kvg:phon CDATA #IMPLIED >
<!ATTLIST path
xmlns:kvg CDATA #FIXED "http://kanjivg.tagaini.net"
kvg:type CDATA #IMPLIED >
]><svg xmlns="http://www.w3.org/2000/svg" width="109" height="109" viewBox="0 0 109 109"><g id="kvg:StrokePaths_06dd8" style="fill:none;stroke:#000000;stroke-width:3;stroke-linecap:round;stroke-linejoin:round;"><g id="kvg:06dd8" kvg:element="淘"><g id="kvg:06dd8-g1" kvg:element="氵" kvg:variant="true" kvg:original="水" kvg:position="left" kvg:radical="general"><path id="kvg:06dd8-s1" kvg:type="㇔" d="M18.38 18c4.54 1.34 11.73 5.51 12.87 7.59"/><path id="kvg:06dd8-s2" kvg:type="㇔" d="M15.75 42.75c3.27 1.28 8.43 5.26 9.25 7.25"/><path id="kvg:06dd8-s3" kvg:type="㇀" d="M16.25 90.21c1.5 1.31 3.31 1.36 4.25-.25 2.75-4.7 5.5-10.45 8-16.45"/></g><g id="kvg:06dd8-g2" kvg:position="right"><g id="kvg:06dd8-g3" kvg:element="勹"><g id="kvg:06dd8-g4" kvg:element="丿"><path id="kvg:06dd8-s4" kvg:type="㇒" d="M54.02 12.5c.05.65.1 1.66-.1 2.59-1.19 5.46-8.04 17.45-17.42 24.79"/></g><path id="kvg:06dd8-s5" kvg:type="㇆" d="M50.5 26.25c.99.75 3.31.71 4.95.5 5.8-.75 27.8-2.75 32.69-3.5 3.91-.6 6.27.0 6.15 4.25C93.75 47 91.25 69.25 87 90c-1.01 4.91-4.13 2.63-6.47-.5"/></g><g id="kvg:06dd8-g5" kvg:element="缶"><path id="kvg:06dd8-s6" kvg:type="㇒" d="M54.98 32.39c.03.49.07 1.27-.07 1.97-.79 4.16-5.34 13.29-11.56 18.87"/><path id="kvg:06dd8-s7" kvg:type="㇐" d="M52.11 43.43c.54.28 1.53.34 2.08.28 6.64-.77 16.73-2.11 22.7-3.09.89-.15 1.44.13 1.89.27"/><path id="kvg:06dd8-s8" kvg:type="㇐" d="M38.63 58.85c.88.35 2.49.39 3.37.35 10.25-.45 26.68-3.54 40.04-3.68 1.47-.02 2.35.17 3.08.34"/><path id="kvg:06dd8-s9" kvg:type="㇑" d="M60.74 44.54c.49.8 1.04 1.39 1.04 2.5.0 3.9-.55 29.76-.63 33.06"/><path id="kvg:06dd8-s10" kvg:type="㇄" d="M46.05 66.94c.39.26.82 1.38.78 1.91C46.5 74 46 77 45.83 81.25c-.05 1.21.81 2.43 1.78 2.21 9.64-2.21 17.64-3.96 29.6-4.15"/><path id="kvg:06dd8-s11" kvg:type="㇑" d="M77.98 64.31c.45.3.97 2.26.9 2.86-.44 3.71-.89 8.06-1.63 14.96"/></g></g></g></g><g id="kvg:StrokeNumbers_06dd8" style="font-size:8;fill:#808080"><text transform="matrix(1 0 0 1 11.50 18.50)">1</text><text transform="matrix(1 0 0 1 7.50 43.50)">2</text><text transform="matrix(1 0 0 1 8.50 88.98)">3</text><text transform="matrix(1 0 0 1 45.50 13.50)">4</text><text transform="matrix(1 0 0 1 58.50 23.50)">5</text><text transform="matrix(1 0 0 1 46.50 37.50)">6</text><text transform="matrix(1 0 0 1 59.50 41.50)">7</text><text transform="matrix(1 0 0 1 32.50 60.50)">8</text><text transform="matrix(1 0 0 1 54.50 52.50)">9</text><text transform="matrix(1 0 0 1 34.50 69.50)">10</text><text transform="matrix(1 0 0 1 66.50 66.50)">11</text></g></svg>