<svg xmlns="http://www.w3.org/2000/svg" width="109" height="109" viewBox="0 0 109 109"><g id="kvg:StrokePaths_06dd9"><g id="kvg:06dd9" kvg:element="淙"><g id="kvg:06dd9-g1" kvg:element="氵" kvg:variant="true" kvg:original="水" kvg:position="left" kvg:radical="general"><path id="kvg:06dd9-s1" kvg:type="㇔" d="M17.13 14c4.28 1.87 11.05 7.68 12.12 10.59"/><path id="kvg:06dd9-s2" kvg:type="㇔" d="M12.25 41.5c4.68 1.85 12.08 7.62 13.25 10.5"/><path id="kvg:06dd9-s3" kvg:type="㇀" d="M14.25 87.73c1.71 1.27 3.78 1.32 4.86-.25 3.14-4.57 9.79-15.66 12.64-21.49"/></g><g id="kvg:06dd9-g2" kvg:element="宗" kvg:position="right"><g id="kvg:06dd9-g3" kvg:element="宀" kvg:position="top"><path id="kvg:06dd9-s4" kvg:type="㇑a" d="M62.63 11c1.09.38 2.65 2.27 2.63 3.38-.08 3.5-.08 8.02-.08 11.2"/><g id="kvg:06dd9-g4" kvg:element="冖"><path id="kvg:06dd9-s5" kvg:type="㇔" d="M41.55 26.06c0 3.21-2.59 13.56-3.76 15.7"/><path id="kvg:06dd9-s6" kvg:type="㇖b" d="M41.69 27.78c7.89-.89 40.72-2.56 47.11-2.89 10-.53 1.62 6.92-.87 8.82"/></g></g><g id="kvg:06dd9-g5" kvg:element="示" kvg:position="bottom"><g id="kvg:06dd9-g6" kvg:position="top"><path id="kvg:06dd9-s7" kvg:type="㇐" d="M48.85 40.2c.74.22 2.09.28 2.83.22 4.7-.38 21.39-1.78 26.37-1.84 1.23-.02 1.97.1 2.58.22"/><path id="kvg:06dd9-s8" kvg:type="㇐" d="M39.08 57.53c1.2.43 3.4.51 4.6.43 9.06-.63 30.62-2.45 45.24-2.47 2 0 3.2.2 4.2.42"/></g><g id="kvg:06dd9-g7" kvg:position="bottom"><path id="kvg:06dd9-s9" kvg:type="㇑" d="M64.86 59.59c.07.37 1.36 1.92 1.42 4.27.31 11.26.25 24.55.25 28.39.0 8.15-5 1.93-8.24-.81"/><path id="kvg:06dd9-s10" kvg:type="㇒" d="M51.48 69.17c.04.56.09 1.44-.09 2.24-1.1 4.72-9.07 13.94-17.71 20.28"/><path id="kvg:06dd9-s11" kvg:type="㇔" d="M77.15 69.43c5.72 3.3 15.06 13.21 16.49 18.34"/></g></g></g></g></g></svg>