<svg xmlns="http://www.w3.org/2000/svg" width="109" height="109" viewBox="0 0 109 109"><g id="kvg:StrokePaths_06deb" style="fill:none;stroke:#000000;stroke-width:3;stroke-linecap:round;stroke-linejoin:round;"><g id="kvg:06deb" kvg:element="淫"><g id="kvg:06deb-g1" kvg:element="氵" kvg:original="水" kvg:position="left" kvg:radical="general"><path id="kvg:06deb-s1" kvg:type="㇔" d="M20.38 17c4.54 1.69 11.73 6.96 12.87 9.59"/><path id="kvg:06deb-s2" kvg:type="㇔" d="M14.5 44c4.41 1.41 11.4 5.8 12.5 8"/><path id="kvg:06deb-s3" kvg:type="㇀" d="M17.25 91.21c1.5 1.31 3.31 1.36 4.25-.25 2.75-4.7 5.5-10.45 8-16.45"/></g><g id="kvg:06deb-g2" kvg:position="right"><g id="kvg:06deb-g3" kvg:element="⺤" kvg:original="爪" kvg:position="top"><path id="kvg:06deb-s4" kvg:type="㇒" d="M82.46 12.89c.09.28.2.73-.19 1.14-2.26 2.41-15.22 7.69-32.97 10.93"/><path id="kvg:06deb-s5" kvg:type="㇒" d="M50.54 27.39c.03.43.16 1.17-.06 1.74-1.62 4.29-4.4 10.2-9.73 16.62"/><path id="kvg:06deb-s6" kvg:type="㇔" d="M63.77 27.08c2.66 2.36 6.88 9.71 7.54 13.38"/><path id="kvg:06deb-s7" kvg:type="㇔" d="M79.52 23.83C83.57 26.38 89.99 34.29 91 38.25"/></g><g id="kvg:06deb-g4" kvg:element="壬" kvg:position="bottom"><g id="kvg:06deb-g5" kvg:element="丿"><path id="kvg:06deb-s8" kvg:type="㇒" d="M84.55 44.5c.1.27.39.77-.2 1.07-7.34 3.75-18.18 7.19-37.31 10.22"/></g><g id="kvg:06deb-g6" kvg:element="士"><path id="kvg:06deb-s9" kvg:type="㇐" d="M39.68 71.18c1.18.42 3.35.49 4.54.42 12.31-.71 33.89-3.21 47.97-3.19 1.97.0 3.15.2 4.14.41"/><path id="kvg:06deb-s10" kvg:type="㇑a" d="M67.19 54.08c.98.39 1.75 1.73 1.75 2.53.0 8.89.0 30.27-.19 35.14"/><path id="kvg:06deb-s11" kvg:type="㇐" d="M45.07 93.08c.94.29 2.67.32 3.62.29 12.47-.34 28.92-2.04 42.08-2.01 1.57.0 2.52.14 3.3.28"/></g></g></g></g></g></svg>