<svg xmlns="http://www.w3.org/2000/svg" width="109" height="109" viewBox="0 0 109 109"><g id="kvg:StrokePaths_06df9" style="fill:none;stroke:#000000;stroke-width:3;stroke-linecap:round;stroke-linejoin:round;"><g id="kvg:06df9" kvg:element="淹"><g id="kvg:06df9-g1" kvg:element="氵" kvg:variant="true" kvg:original="水" kvg:position="left" kvg:radical="general"><path id="kvg:06df9-s1" kvg:type="㇔" d="M16.13 15.5c4.45 1.78 11.5 7.32 12.62 10.09"/><path id="kvg:06df9-s2" kvg:type="㇔" d="M11.75 42c4.5 1.85 11.62 7.62 12.75 10.5"/><path id="kvg:06df9-s3" kvg:type="㇀" d="M13.25 88.23c1.71 1.27 4 1.46 4.86-.25C21.25 81.75 24 76.25 26.75 70"/></g><g id="kvg:06df9-g2" kvg:element="奄" kvg:position="right"><g id="kvg:06df9-g3" kvg:element="大" kvg:position="top"><path id="kvg:06df9-s4" kvg:type="㇐" d="M36.24 27.41c.99.46 3.64 1.01 5.75.8 14.27-1.38 32.45-3.13 45.27-3.79 2.2-.11 3.97.3 5.96.67"/><path id="kvg:06df9-s5" kvg:type="㇒" d="M60.23 11.5c.26 1.18.01 2.97-.36 4.3C54.45 35.2 47.78 47.76 36 59.13"/><path id="kvg:06df9-s6" kvg:type="㇏" d="M68.61 26.17c5.34 6.18 17.29 21.41 22.62 25.55 1.81 1.41 2.44 1.62 3.27 1.75"/></g><g id="kvg:06df9-g4" kvg:element="电" kvg:position="bottom"><g id="kvg:06df9-g5" kvg:element="日"><path id="kvg:06df9-s7" kvg:type="㇑" d="M44.69 53.16c.48.58.96 1.76.96 2.56.01.79 3.09 23.7 3.25 24.48"/><path id="kvg:06df9-s8" kvg:type="㇕a" d="M46.43 54.5c2.68-.21 29.58-2.92 32.02-3.14 2.03-.18 3.52 2.04 3.33 3.86-.39 3.71-2.04 12.54-3.65 22.19"/><path id="kvg:06df9-s9" kvg:type="㇐a" d="M47.14 65.88c3.62-.15 28.59-2.63 32.69-2.8"/><path id="kvg:06df9-s10" kvg:type="㇐a" d="M49.37 76.92c5.58-.43 23.86-2.15 28.25-2.33"/></g><path id="kvg:06df9-s11" kvg:type="㇟" d="M62.17 40.59c.62 1.11 1.1 2.42 1.14 4.14.17 7.65-.44 34.94-.44 40.15.0 8.88 3.73 9.15 17.46 9.15 12.63.0 14.41-1.9 14.41-10.4"/></g></g></g></g></svg>