<svg xmlns="http://www.w3.org/2000/svg" width="109" height="109" viewBox="0 0 109 109"><g id="kvg:StrokePaths_06e0a" style="fill:none;stroke:#000000;stroke-width:3;stroke-linecap:round;stroke-linejoin:round;"><g id="kvg:06e0a" kvg:element="渊"><g id="kvg:06e0a-g1" kvg:element="氵" kvg:variant="true" kvg:original="水" kvg:position="left" kvg:radical="general"><path id="kvg:06e0a-s1" kvg:type="㇔" d="M19.63 15.5c4.28 1.52 11.05 6.23 12.12 8.59"/><path id="kvg:06e0a-s2" kvg:type="㇔" d="M16 40.25c4.41 1.37 11.4 5.62 12.5 7.75"/><path id="kvg:06e0a-s3" kvg:type="㇀" d="M15.25 85.73c1.71 1.27 3.78 1.32 4.86-.25 3.14-4.57 6.29-10.16 9.14-15.99"/></g><g id="kvg:06e0a-g2" kvg:position="right"><g id="kvg:06e0a-g3" kvg:element="丿"><path id="kvg:06e0a-s4" kvg:type="㇒" d="M43.15 19.5c.41 2 1 3.57 1 6.06.0 23.69 3.6 55.19-12.35 67.4"/></g><g id="kvg:06e0a-g4" kvg:element="米" kvg:variant="true"><path id="kvg:06e0a-s5" kvg:type="㇔" d="M51.19 31.39c2.65 2.26 6.65 8.65 7.31 12.16"/><path id="kvg:06e0a-s6" kvg:type="㇒" d="M80.76 27.97c.02.31.16.85-.04 1.26-1.47 3.02-5.42 8.99-9.4 12.56"/><path id="kvg:06e0a-s7" kvg:type="㇐" d="M51.1 51.53c.67.33 2.47.56 4.27.38 6.43-.65 17.52-1.54 26.62-2.05 1.8-.1 2.24-.33 3.37.0"/><path id="kvg:06e0a-s8" kvg:type="㇑" d="M65.02 21.96c.88.45 1.41 2.03 1.59 2.94s0 56.74-.18 62.39"/><path id="kvg:06e0a-s9" kvg:type="㇒" d="M66.52 52.46C63.26 61.1 55.33 73.24 48 78.23"/><path id="kvg:06e0a-s10" kvg:type="㇔/㇏" d="M70.12 58.32c7.2 3.1 11.13 6.18 15.15 11.4"/></g><g id="kvg:06e0a-g5" kvg:element="丨"><path id="kvg:06e0a-s11" kvg:type="㇑" d="M89.87 14.25c1.09.5 1.74 2.25 1.96 3.25s0 73.25-.22 79.5"/></g></g></g></g></svg>