<svg xmlns="http://www.w3.org/2000/svg" width="109" height="109" viewBox="0 0 109 109"><g id="kvg:StrokePaths_06e1b"><g id="kvg:06e1b" kvg:element="減"><g id="kvg:06e1b-g1" kvg:element="氵" kvg:variant="true" kvg:original="水" kvg:position="left" kvg:radical="general"><path id="kvg:06e1b-s1" kvg:type="㇔" d="M17.75 15.62c4.24 1.68 10.94 6.35 12 8.97"/><path id="kvg:06e1b-s2" kvg:type="㇔" d="M15 38.25c3.71 1.28 8.75 5.38 10.75 8"/><path id="kvg:06e1b-s3" kvg:type="㇀" d="M14.38 86.86c1.28.36 2.52.0 3.28-1.22 3.26-5.19 6.51-11.53 9.47-18.15"/></g><g id="kvg:06e1b-g2" kvg:element="咸" kvg:position="right" kvg:phon="咸"><g id="kvg:06e1b-g3" kvg:element="戍" kvg:part="1" kvg:variant="true" kvg:original="戌"><g id="kvg:06e1b-g4" kvg:element="厂" kvg:part="1"><path id="kvg:06e1b-s4" kvg:type="㇒" d="M40.26 33.78c.61.61.93 1.47.93 2.73.0 17.48-2.32 39.5-11.89 53.52"/></g><g id="kvg:06e1b-g5" kvg:element="戈" kvg:part="1"><g id="kvg:06e1b-g6" kvg:element="弋" kvg:part="1"><g id="kvg:06e1b-g7" kvg:element="厂" kvg:part="2"><path id="kvg:06e1b-s5" kvg:type="㇐" d="M37.9 32.94c2.91.49 5.31.15 7.82-.17 8.55-1.1 21.07-3.05 34.37-4.21 2.3-.2 4.9-.49 7.23.1"/></g></g></g><g id="kvg:06e1b-g8" kvg:element="一"><path id="kvg:06e1b-s6" kvg:type="㇐" d="M47.25 48.73c1.5.27 2.86.1 3.78-.07 3.25-.59 6.84-1.41 9.76-2.03 1.5-.32 2.84-.36 3.61-.14"/></g></g><g id="kvg:06e1b-g9" kvg:element="口"><path id="kvg:06e1b-s7" kvg:type="㇑" d="M45.75 61.11c.88.88 1.36 1.88 1.4 3.04.58 2.95 1.04 7.12 1.49 11.35.16 1.49.31 2.49.46 3.95"/><path id="kvg:06e1b-s8" kvg:type="㇕b" d="M48.1 62.35c5.91-1.19 9.8-2.35 13.27-2.95 2.61-.45 4.19.5 3.6 3.37-.7 3.43-1.1 4.99-2.25 10.2"/><path id="kvg:06e1b-s9" kvg:type="㇐b" d="M50.15 76.38c4.36-.79 7.15-1.42 11.21-2.08 1.15-.19 2.39-.38 3.81-.58"/></g><g id="kvg:06e1b-g10" kvg:element="戍" kvg:part="2" kvg:variant="true" kvg:original="戌"><g id="kvg:06e1b-g11" kvg:element="戈" kvg:part="2"><g id="kvg:06e1b-g12" kvg:element="弋" kvg:part="2"><path id="kvg:06e1b-s10" kvg:type="㇂" d="M64 12.75c1.43 1.66 2.11 3.26 2.33 5.95 2.29 27.92 9.42 56.3 23.84 71.22 4.63 4.8 4.76 1.07 4.04-6.29"/></g><g id="kvg:06e1b-g13" kvg:element="丿"><path id="kvg:06e1b-s11" kvg:type="㇒" d="M85.59 41.62c.29 1.01.12 2.34-.12 3.92-1.42 9.32-9.22 31.34-20.67 43.33"/></g><g id="kvg:06e1b-g14" kvg:element="弋" kvg:part="3"><g id="kvg:06e1b-g15" kvg:element="丶"><path id="kvg:06e1b-s12" kvg:type="㇔" d="M75.53 11.24c2.83 1.58 7.35 5.2 8.67 7.92"/></g></g></g></g></g></g></g></svg>