<svg xmlns="http://www.w3.org/2000/svg" width="109" height="109" viewBox="0 0 109 109"><g id="kvg:StrokePaths_06e15"><g id="kvg:06e15" kvg:element="渕"><g id="kvg:06e15-g1" kvg:element="氵" kvg:variant="true" kvg:original="水" kvg:position="left" kvg:radical="general"><path id="kvg:06e15-s1" kvg:type="㇔" d="M15.13 18.75c4.1 1.65 10.59 6.78 11.62 9.34"/><path id="kvg:06e15-s2" kvg:type="㇔" d="M12.5 41.75C16.56 43.56 22.98 49.19 24 52"/><path id="kvg:06e15-s3" kvg:type="㇀" d="M12.25 85.23c1.71 1.27 3.97 1.44 4.86-.25C20.5 78.5 22.89 73.83 25.75 68"/></g><g id="kvg:06e15-g2" kvg:position="right"><g id="kvg:06e15-g3" kvg:element="关" kvg:position="left"><path id="kvg:06e15-s4" kvg:type="㇔" d="M34.77 18.08c3.28 2.27 8.47 9.35 9.29 12.88"/><path id="kvg:06e15-s5" kvg:type="㇒" d="M61.28 13.14c.02.47.04 1.22-.04 1.9-.46 4.01-3.09 11.79-6.69 17.17"/><g id="kvg:06e15-g4" kvg:element="天" kvg:variant="true"><path id="kvg:06e15-s6" kvg:type="㇐" d="M35.56 40.17c.99.38 2.8.46 3.78.38C46 40 54 38.25 62.66 38.29c1.64.01 2.63.18 3.45.37"/><g id="kvg:06e15-g5" kvg:element="大" kvg:variant="true"><path id="kvg:06e15-s7" kvg:type="㇐" d="M33.43 59.97c.71.29 2.54.41 3.32.4 7-.12 20.88-2.25 28.67-2.5.99-.03 2.39.11 4.6.6"/><path id="kvg:06e15-s8" kvg:type="㇒" d="M51.53 43.48c.45.7.93 2.41.86 3.76-1.13 21.38-8.63 35.9-22.55 43.12"/><path id="kvg:06e15-s9" kvg:type="㇔/㇏" d="M55.14 71.55C60.4 74.37 66.4 80.51 69 85"/></g></g></g><g id="kvg:06e15-g6" kvg:element="刂" kvg:variant="true" kvg:original="刀" kvg:position="right"><path id="kvg:06e15-s10" kvg:type="㇑" d="M75.27 29.08c.98.92 1.67 1.99 1.76 5.02C77.42 48.66 77 59.79 77 64.75"/><path id="kvg:06e15-s11" kvg:type="㇚" d="M90.27 18.08c.98.92 1.67 1.99 1.76 5.02.4 14.55-.26 60.16-.26 65.12.0 13.14-7.21 1.5-8.71.25"/></g></g></g></g></svg>