<svg xmlns="http://www.w3.org/2000/svg" width="109" height="109" viewBox="0 0 109 109"><g id="kvg:StrokePaths_06e1f" style="fill:none;stroke:#000000;stroke-width:3;stroke-linecap:round;stroke-linejoin:round;"><g id="kvg:06e1f" kvg:element="渟"><g id="kvg:06e1f-g1" kvg:element="氵" kvg:variant="true" kvg:original="水" kvg:position="left" kvg:radical="general"><path id="kvg:06e1f-s1" kvg:type="㇔" d="M19.38 14.25c4.19 1.82 10.82 7.5 11.87 10.34"/><path id="kvg:06e1f-s2" kvg:type="㇔" d="M14 38.75c4.77 1.81 12.31 7.44 13.5 10.25"/><path id="kvg:06e1f-s3" kvg:type="㇀" d="M13.25 88.73c1.71 1.27 3.78 1.32 4.86-.25 3.14-4.57 7.79-14.66 10.64-20.49"/></g><g id="kvg:06e1f-g2" kvg:element="亭" kvg:position="right"><g id="kvg:06e1f-g3" kvg:element="亠" kvg:position="top"><path id="kvg:06e1f-s4" kvg:type="㇑a" d="M63.51 10.11c.68.46 1.79 2.22 1.79 3.13.0 3.35-.21 5.15-.09 7.98"/><path id="kvg:06e1f-s5" kvg:type="㇐" d="M42.12 23.58c1.07.1 3.52.56 4.57.52C57.22 23.63 77.3 21.4 88 21.12c1.77-.05 2.67.04 3.99.66"/></g><g id="kvg:06e1f-g4" kvg:position="bottom"><g id="kvg:06e1f-g5" kvg:element="口"><path id="kvg:06e1f-s6" kvg:type="㇑" d="M50.44 31.27c.27.26 1.08.96 1.16 1.3.77 2.97 1.74 9.22 2.51 13.58"/><path id="kvg:06e1f-s7" kvg:type="㇕b" d="M52.62 32.51c6.13-.51 20.68-1.63 25.27-2.27 1.15-.16 2.44.89 2.18 2.46-.51 3.06-1.4 4.4-2.61 9.39"/><path id="kvg:06e1f-s8" kvg:type="㇐b" d="M54.68 44.59c5.43-.94 19.84-1.54 24.94-2.13"/></g><g id="kvg:06e1f-g6" kvg:element="冖"><path id="kvg:06e1f-s9" kvg:type="㇔" d="M41.08 52.02c-.13 3.53-3.13 12.29-4.2 14.39"/><path id="kvg:06e1f-s10" kvg:type="㇖b" d="M41.23 54.66C54.5 52.5 74.75 51 91.17 50.49c9.76-.3.8 8.55-.57 10.09"/></g><g id="kvg:06e1f-g7" kvg:element="丁"><g id="kvg:06e1f-g8" kvg:element="一"><path id="kvg:06e1f-s11" kvg:type="㇐" d="M45.18 66.12c.91.45 2.58.46 3.5.45 7.31-.07 20.94-1.61 32.18-2.2 1.52-.08 2.44.21 3.2.44"/></g><g id="kvg:06e1f-g9" kvg:element="亅"><path id="kvg:06e1f-s12" kvg:type="㇚" d="M65.77 68.48c.04.3 1.09 2.09 1.14 4.04.2 9.33-.13 18.4-.13 21.58.0 6.91-6.8-.67-7.56-1.48"/></g></g></g></g></g></g></svg>