<svg xmlns="http://www.w3.org/2000/svg" width="109" height="109" viewBox="0 0 109 109"><g id="kvg:StrokePaths_06e2e" style="fill:none;stroke:#000000;stroke-width:3;stroke-linecap:round;stroke-linejoin:round;"><g id="kvg:06e2e" kvg:element="渮"><g id="kvg:06e2e-g1" kvg:element="氵" kvg:variant="true" kvg:original="水" kvg:position="left" kvg:radical="general"><path id="kvg:06e2e-s1" kvg:type="㇔" d="M17.38 15.5c4.19 1.6 10.82 6.6 11.87 9.09"/><path id="kvg:06e2e-s2" kvg:type="㇔" d="M12.75 42c4.5 1.76 11.62 7.26 12.75 10"/><path id="kvg:06e2e-s3" kvg:type="㇀" d="M14.25 88.23c1.71 1.27 3.78 1.32 4.86-.25 3.14-4.57 6.29-10.16 9.14-15.99"/></g><g id="kvg:06e2e-g2" kvg:element="苛" kvg:position="right"><g id="kvg:06e2e-g3" kvg:element="艹" kvg:variant="true" kvg:original="艸" kvg:position="top"><path id="kvg:06e2e-s4" kvg:type="㇐" d="M37.25 24.78c1.28.44 2.78.53 4.07.44 11.8-.81 37.08-4.02 50.69-4.08 2.14-.01 3.42.21 4.49.43"/><path id="kvg:06e2e-s5" kvg:type="㇑a" d="M48.72 14.03c1.68 1.35 2.22 1.76 2.4 2.59 1.68 7.77 3.12 15.77 3.6 18.59"/><path id="kvg:06e2e-s6" kvg:type="㇑a" d="M76.5 10.79c.27 1.08.61 1.88.32 3.2-1.74 7.76-2.53 11.65-4.42 18.95"/></g><g id="kvg:06e2e-g4" kvg:element="可" kvg:position="bottom"><g id="kvg:06e2e-g5" kvg:element="丁" kvg:part="1"><g id="kvg:06e2e-g6" kvg:element="一"><path id="kvg:06e2e-s7" kvg:type="㇐" d="M34.22 43.98c1.7.44 4.81.55 6.51.44 10.11-.62 39.83-4.06 53.87-4.64 2.82-.12 4.53.21 5.94.43"/></g></g><g id="kvg:06e2e-g7" kvg:element="口"><path id="kvg:06e2e-s8" kvg:type="㇑" d="M42.83 57.21c.35.36.72.66.87 1.12 1.23 3.58 2.2 14.44 3.04 20.88"/><path id="kvg:06e2e-s9" kvg:type="㇕b" d="M44.4 59.36c6.83-1.66 15.64-3.05 19.55-3.47 1.43-.15 2.7 1.39 2.58 2.3C66 62.2 64 67.5 62.94 74.14"/><path id="kvg:06e2e-s10" kvg:type="㇐b" d="M46.64 76.05c4.59-.47 11.92-1.22 18.23-1.94"/></g><g id="kvg:06e2e-g8" kvg:element="丁" kvg:part="2"><g id="kvg:06e2e-g9" kvg:element="亅"><path id="kvg:06e2e-s11" kvg:type="㇚" d="M79.66 42.01c.07.39 1.82 2.46 1.89 4.93.32 11.86-.2 43.83-.2 47.87.0 7.8-8.21-1.21-9.39-2.23"/></g></g></g></g></g></g></svg>