<svg xmlns="http://www.w3.org/2000/svg" width="109" height="109" viewBox="0 0 109 109"><g id="kvg:StrokePaths_06e25"><g id="kvg:06e25" kvg:element="渥"><g id="kvg:06e25-g1" kvg:element="氵" kvg:variant="true" kvg:original="水" kvg:position="left" kvg:radical="general"><path id="kvg:06e25-s1" kvg:type="㇔" d="M18.51 16.62c4.23 1.58 10.93 6.5 11.99 8.97"/><path id="kvg:06e25-s2" kvg:type="㇔" d="M13.5 44c4.24 1.37 10.94 5.62 12 7.75"/><path id="kvg:06e25-s3" kvg:type="㇀" d="M15 90.43c1.88.45 3.12-.1 4.09-1.76 2.81-4.84 4.86-10 7.41-16.17"/></g><g id="kvg:06e25-g2" kvg:element="屋" kvg:position="right" kvg:phon="屋"><g id="kvg:06e25-g3" kvg:element="尸" kvg:position="tare"><path id="kvg:06e25-s4" kvg:type="㇕c" d="M41.42 20.09c1.44.54 4.22.77 5.75.66 7.08-.52 24.88-2.83 31.96-3.6 3.76-.41 5.1 1.12 4.81 3.2-.44 3.15-1.19 6.15-2.16 10.62"/><path id="kvg:06e25-s5" kvg:type="㇐b" d="M46.34 35.43c3.24-.14 22.11-2 32.17-2.88 2.76-.24 4.86-.41 5.78-.45"/><path id="kvg:06e25-s6" kvg:type="㇒" d="M44.99 21.72c.9.89 1.18 2.46 1.14 3.53-1.11 31.83-4.39 46.5-14.94 62.8"/></g><g id="kvg:06e25-g4" kvg:element="至" kvg:position="tarec"><path id="kvg:06e25-s7" kvg:type="㇐" d="M50.91 45.86c1.71.64 4.23.29 5.98.06 8.33-1.12 17.16-2.1 25.11-2.75 2.01-.16 4.03-.45 6.01-.01"/><path id="kvg:06e25-s8" kvg:type="㇜" d="M66.99 47.39c.01 1.11-.22 1.76-.76 2.38-3.61 4.11-6.48 6.73-10.68 9.72-1.75 1.25-1.64 3.6.83 3.01 6.74-1.62 15.87-3.5 25.57-5.91"/><path id="kvg:06e25-s9" kvg:type="㇔" d="M78.24 51.52c3.36 1.96 8.68 8.06 9.52 11.11"/><g id="kvg:06e25-g5" kvg:element="土"><path id="kvg:06e25-s10" kvg:type="㇐" d="M47.85 76.12c2.13.68 4.9.25 7.05-.02 8.04-1.02 18.98-1.85 27.36-2.45 2.26-.16 4.67-.27 6.92.16"/><path id="kvg:06e25-s11" kvg:type="㇑a" d="M66.43 64.27c.96.96 1.18 2.11 1.18 3.59.0 5.77-.11 19.75-.11 21.4"/><path id="kvg:06e25-s12" kvg:type="㇐" d="M40.31 90.99c2.57.74 5.55.83 8.19.55 9.96-1.07 27.13-2.04 41.39-2.59 2.92-.11 6.36.17 8.7.78"/></g></g></g></g></g></svg>