<svg xmlns="http://www.w3.org/2000/svg" width="109" height="109" viewBox="0 0 109 109"><g id="kvg:StrokePaths_06e2d"><g id="kvg:06e2d" kvg:element="渭"><g id="kvg:06e2d-g1" kvg:element="氵" kvg:variant="true" kvg:original="水" kvg:position="left" kvg:radical="general"><path id="kvg:06e2d-s1" kvg:type="㇔" d="M20.13 16.5c3.92 1.6 10.13 6.6 11.12 9.09"/><path id="kvg:06e2d-s2" kvg:type="㇔" d="M15.25 43.5c4.32 1.59 11.17 6.53 12.25 9"/><path id="kvg:06e2d-s3" kvg:type="㇀" d="M18.75 88.73c1.71 1.27 3.78 1.32 4.86-.25 3.14-4.57 7.79-13.66 10.64-19.49"/></g><g id="kvg:06e2d-g2" kvg:element="胃" kvg:position="right"><g id="kvg:06e2d-g3" kvg:element="田" kvg:position="top"><path id="kvg:06e2d-s4" kvg:type="㇑" d="M45.13 14.92c.32.47.7 1.26.87 1.85 1.43 4.86 2.28 16.64 3.12 25.68"/><path id="kvg:06e2d-s5" kvg:type="㇕a" d="M46.65 16.02c11.36-1.07 30.19-1.84 38.67-2.75 3.12-.33 4.87 1.13 4.53 3.73-.64 4.87-1.57 12.12-3.11 22.31"/><path id="kvg:06e2d-s6" kvg:type="㇑a" d="M65.68 14.83c.58.39 1.23 2.42 1.23 4.04.0 7.4-.09 12.08-.09 19.88"/><path id="kvg:06e2d-s7" kvg:type="㇐a" d="M48.17 28.59c3.7-.43 33.58-3.09 40.62-3.11"/><path id="kvg:06e2d-s8" kvg:type="㇐a" d="M49.72 40.19c9.5-.82 25.83-1.92 37.12-2.62"/></g><g id="kvg:06e2d-g4" kvg:element="月" kvg:position="bottom"><path id="kvg:06e2d-s9" kvg:type="㇑" d="M50.88 50.16c.6.63.99 1.76 1.2 2.4.2.64.35 41.34.28 42.79"/><path id="kvg:06e2d-s10" kvg:type="㇆a" d="M52.08 51.25c2.38-.21 27.36-1.83 29.13-2.05 3.17-.38 3.97 1.9 3.97 2.99.0 2.44-.07 23.42-.07 36.48.0 10.47-7.38 1.71-8.17.92"/><path id="kvg:06e2d-s11" kvg:type="㇐a" d="M52.8 62.66c7.7-.41 24.89-1.32 32.02-1.93"/><path id="kvg:06e2d-s12" kvg:type="㇐a" d="M52.43 75.39c6.34-.6 24.7-1.81 32.04-2.27"/></g></g></g></g></svg>