<svg xmlns="http://www.w3.org/2000/svg" width="109" height="109" viewBox="0 0 109 109"><g id="kvg:StrokePaths_06e23"><g id="kvg:06e23" kvg:element="渣"><g id="kvg:06e23-g1" kvg:element="氵" kvg:variant="true" kvg:original="水" kvg:position="left" kvg:radical="general"><path id="kvg:06e23-s1" kvg:type="㇔" d="M14.88 16.5c4.37 1.96 11.27 8.05 12.37 11.09"/><path id="kvg:06e23-s2" kvg:type="㇔" d="M10.25 42.75C14.93 44.73 22.33 50.91 23.5 54"/><path id="kvg:06e23-s3" kvg:type="㇀" d="M11.25 89.73c1.71 1.27 3.78 1.32 4.86-.25 3.14-4.57 6.29-10.16 9.14-15.99"/></g><g id="kvg:06e23-g2" kvg:element="査" kvg:position="right"><g id="kvg:06e23-g3" kvg:element="木" kvg:position="top"><path id="kvg:06e23-s4" kvg:type="㇐" d="M36.71 25.63c.75.25 3.28.45 5.28.23 8.19-.87 33.5-2.62 45.33-2.97 2.01-.06 3.54.25 4.79.5"/><path id="kvg:06e23-s5" kvg:type="㇑" d="M60.63 10.5c1.06.43 1.9 1.93 1.9 2.82.0 8.98.0 31.3-.21 36.73"/><path id="kvg:06e23-s6" kvg:type="㇒" d="M62.38 25.13c-5.29 8.88-19.04 21.44-30.05 26.47"/><path id="kvg:06e23-s7" kvg:type="㇏" d="M62.65 25.43c4.39 3.34 23.62 19.14 28.39 22.42 1.62 1.11 3 1.59 4.62 1.91"/></g><g id="kvg:06e23-g4" kvg:element="且" kvg:position="bottom"><g id="kvg:06e23-g5" kvg:element="月"><path id="kvg:06e23-s8" kvg:type="㇑a" d="M45.27 55.89c.58.58 1.06 1.64 1.16 2.24.82 5.11 2.57 27.33 2.44 36.69"/><path id="kvg:06e23-s9" kvg:type="㇕b" d="M46.57 57.49c2.29-.15 28.23-2.66 29.93-2.83 3.04-.3 3.84 1.79 3.84 2.74.0 5.23-.13 20.75-.21 32.46"/><path id="kvg:06e23-s10" kvg:type="㇐a" d="M48.17 70.75c7.8-.89 24.55-2.72 31.41-3.18"/><path id="kvg:06e23-s11" kvg:type="㇐a" d="M48.66 82.16c6.09-.45 24.42-2.3 31.46-2.61"/></g><g id="kvg:06e23-g6" kvg:element="一"><path id="kvg:06e23-s12" kvg:type="㇐" d="M32.73 95.19c1.15.38 4.25.77 5.4.64 14.37-1.59 41.37-3.09 53.38-3.41 1.92-.05 3.49.2 6.02.67"/></g></g></g></g></g></svg>