<svg xmlns="http://www.w3.org/2000/svg" width="109" height="109" viewBox="0 0 109 109"><g id="kvg:StrokePaths_06e26"><g id="kvg:06e26" kvg:element="渦"><g id="kvg:06e26-g1" kvg:element="氵" kvg:variant="true" kvg:original="水" kvg:position="left" kvg:radical="general"><path id="kvg:06e26-s1" kvg:type="㇔" d="M18.5 18.38c3.71 1.32 9.57 5.42 10.5 7.47"/><path id="kvg:06e26-s2" kvg:type="㇔" d="M13.88 42c3.93 1.32 10.14 5.44 11.12 7.5"/><path id="kvg:06e26-s3" kvg:type="㇀" d="M14.88 88.75c1.07.25 2.1-.09 2.74-1.16C20.5 82.85 23.38 77.05 26 71"/></g><g id="kvg:06e26-g2" kvg:element="咼" kvg:position="right" kvg:phon="咼"><path id="kvg:06e26-s4" kvg:type="㇑a" d="M45.98 17.5c.89.89 1.27 2.5 1.39 4 .62 8.25 1.77 19.75 2.34 30"/><path id="kvg:06e26-s5" kvg:type="㇕b" d="M47.61 19c7.32-.76 23.96-2.65 30.14-3.47 3.54-.47 4.94.18 4.45 4.08-.8 6.26-2.14 22.69-2.84 29.13"/><path id="kvg:06e26-s6" kvg:type="㇑a" d="M61.64 30.25c.99.99 1.24 2.24 1.24 3.25.0 3.75-.06 9.88-.06 16.75"/><path id="kvg:06e26-s7" kvg:type="㇐a" d="M63.5 31.75c2.66-.25 11.87-1.5 16.55-2"/><g id="kvg:06e26-g3" kvg:element="冂"><path id="kvg:06e26-s8" kvg:type="㇑" d="M39.75 50.75c.88.88 1.25 2.29 1.25 4.39.0 4.11.09 21.12-.01 32.11-.02 2.68-.04 5.09-.06 7"/><path id="kvg:06e26-s9" kvg:type="㇆a" d="M42.02 53.5c8.48-1 40.98-4 46.44-4.25 3.46-.16 4.63 1.52 4.46 4.63-.6 11.73-1.82 25.9-4.53 35.62-2.68 9.6-5.72 4-8 .75"/></g><g id="kvg:06e26-g4" kvg:element="口"><path id="kvg:06e26-s10" kvg:type="㇑" d="M51.92 64.27c.72.72 1.08 1.48 1.26 2.38.58 2.78 1.14 6.35 1.71 10.36.17 1.21.34 2.39.5 3.49"/><path id="kvg:06e26-s11" kvg:type="㇕b" d="M53.84 65.43c6.82-1.25 14.79-2.32 19.16-2.81 2.65-.3 3.61.38 2.96 3.03-.76 3.07-1.39 5.75-2.46 9.98"/><path id="kvg:06e26-s12" kvg:type="㇐b" d="M56.55 78.48c3.75-.37 9.25-.97 14.74-1.55 1.15-.12 2.78-.25 3.86-.37"/></g></g></g></g></svg>