<svg xmlns="http://www.w3.org/2000/svg" width="109" height="109" viewBox="0 0 109 109"><g id="kvg:StrokePaths_06e2c" style="fill:none;stroke:#000000;stroke-width:3;stroke-linecap:round;stroke-linejoin:round;"><g id="kvg:06e2c" kvg:element="測"><g id="kvg:06e2c-g1" kvg:element="氵" kvg:variant="true" kvg:original="水" kvg:position="left" kvg:radical="general"><path id="kvg:06e2c-s1" kvg:type="㇔" d="M16.12 17c3.66 1.52 9.46 6.23 10.38 8.59"/><path id="kvg:06e2c-s2" kvg:type="㇔" d="M13.38 42.5c3.93 1.32 10.14 5.44 11.12 7.5"/><path id="kvg:06e2c-s3" kvg:type="㇀" d="M11.91 88.45c1.29.49 2.59.22 3.36-.99 3-4.7 6-10.45 8.72-16.45"/></g><g id="kvg:06e2c-g2" kvg:element="則" kvg:position="right" kvg:phon="則"><g id="kvg:06e2c-g3" kvg:element="貝" kvg:position="left"><g id="kvg:06e2c-g4" kvg:element="目" kvg:position="top"><path id="kvg:06e2c-s4" kvg:type="㇑" d="M36.68 21.54c.76.77 1.41 2.07 1.41 3.46.0 4.94.0 28.53.0 39 0 1.71.0 3.07.0 3.94"/><path id="kvg:06e2c-s5" kvg:type="㇕a" d="M38.96 22.97c2.1-.17 18.07-2.4 19.97-2.61 1.59-.17 2.71.97 2.71 2.26.0 5.38-.02 30.35-.02 38.76.0 1.57.0 4.33.0 5.38"/><path id="kvg:06e2c-s6" kvg:type="㇐a" d="M39.43 36.91c4.33-.52 15.35-1.89 20.87-2.32"/><path id="kvg:06e2c-s7" kvg:type="㇐a" d="M39.35 50.2c6.38-.69 13.98-1.73 20.45-2.08"/><path id="kvg:06e2c-s8" kvg:type="㇐a" d="M39.39 65.22c5.03-.75 14.04-1.79 20.45-2.09"/></g><g id="kvg:06e2c-g5" kvg:element="八" kvg:position="bottom"><path id="kvg:06e2c-s9" kvg:type="㇒" d="M42.6 72.91c.32 1.34.07 2.75-.52 3.76-2.67 4.54-7.38 10.22-11.2 13.71"/><path id="kvg:06e2c-s10" kvg:type="㇔" d="M55.62 73.75c3.98 4.04 8.68 11.36 9.77 14.9"/></g></g><g id="kvg:06e2c-g6" kvg:element="刂" kvg:variant="true" kvg:original="刀" kvg:position="right"><path id="kvg:06e2c-s11" kvg:type="㇑" d="M74.71 28.61c1.03 1.03 1.72 2.64 1.72 4.91.0 10.91.03 25.23.03 27.73.0 1.97-.05 3.58-.05 4.71"/><path id="kvg:06e2c-s12" kvg:type="㇚" d="M90.9 15.32c1.14 1.14 1.84 3.05 1.84 4.99.0 14.46-.23 64-.23 68.92.0 7.86-4.23 3.58-7.87.25"/></g></g></g></g></svg>