<!DOCTYPE svg PUBLIC "-//W3C//DTD SVG 1.0//EN" "http://www.w3.org/TR/2001/REC-SVG-20010904/DTD/svg10.dtd" [
<!ATTLIST g
xmlns:kvg CDATA #FIXED "http://kanjivg.tagaini.net"
kvg:element CDATA #IMPLIED
kvg:variant CDATA #IMPLIED
kvg:partial CDATA #IMPLIED
kvg:original CDATA #IMPLIED
kvg:part CDATA #IMPLIED
kvg:number CDATA #IMPLIED
kvg:tradForm CDATA #IMPLIED
kvg:radicalForm CDATA #IMPLIED
kvg:position CDATA #IMPLIED
kvg:radical CDATA #IMPLIED
kvg:phon CDATA #IMPLIED >
<!ATTLIST path
xmlns:kvg CDATA #FIXED "http://kanjivg.tagaini.net"
kvg:type CDATA #IMPLIED >
]><svg xmlns="http://www.w3.org/2000/svg" width="109" height="109" viewBox="0 0 109 109"><g id="kvg:StrokePaths_06e4e" style="fill:none;stroke:#000000;stroke-width:3;stroke-linecap:round;stroke-linejoin:round;"><g id="kvg:06e4e" kvg:element="湎"><g id="kvg:06e4e-g1" kvg:element="氵" kvg:variant="true" kvg:original="水" kvg:position="left" kvg:radical="general"><path id="kvg:06e4e-s1" kvg:type="㇔" d="M16.88 15.25c4.37 1.65 11.27 6.78 12.37 9.34"/><path id="kvg:06e4e-s2" kvg:type="㇔" d="M12.25 41.5c4.68 1.85 12.08 7.62 13.25 10.5"/><path id="kvg:06e4e-s3" kvg:type="㇀" d="M14.75 88.71c1.5 1.31 3.31 1.36 4.25-.25C21.75 83.75 28 73 30.5 67"/></g><g id="kvg:06e4e-g2" kvg:element="面" kvg:position="right"><path id="kvg:06e4e-s4" kvg:type="㇐" d="M36.77 19.87c2.03.56 5.72.71 7.78.56 13.2-.93 33.2-2.68 45.61-3.42 3.37-.2 5.41.27 7.1.55"/><path id="kvg:06e4e-s5" kvg:type="㇒" d="M62.89 21.6c.02.37.05.96-.05 1.49-.6 3.14-4.04 10.04-8.75 14.26"/><path id="kvg:06e4e-s6" kvg:type="㇑" d="M40 38.67c.8 1 1.24 1.75 1.26 3.07C41.5 58 41 77.25 41.46 95.25"/><path id="kvg:06e4e-s7" kvg:type="㇕a" d="M41.81 40.83c13.01-1.34 38.4-3.73 46.69-4.03 3.43-.12 5.15 1.73 4.98 4.59-.73 12.35-.98 37.35-2.27 53.04"/><path id="kvg:06e4e-s8" kvg:type="㇑a" d="M56.29 41.53c.53.78 1.06 2.08 1.06 3.12s.21 43.84.21 43.84"/><path id="kvg:06e4e-s9" kvg:type="㇑a" d="M73.64 40.93c.53 1.3 1.06 2.08 1.06 3.12s-.24 42.04-.24 44.64"/><path id="kvg:06e4e-s10" kvg:type="㇐a" d="M57.88 55.52c1.77.0 14.49-.82 16.26-.82"/><path id="kvg:06e4e-s11" kvg:type="㇐a" d="M57.91 71.4c3-.52 14.08-1.06 16.55-1.32"/><path id="kvg:06e4e-s12" kvg:type="㇐a" d="M42.27 91.59c3.71-.26 44.83-3.12 49.25-3.12"/></g></g></g><g id="kvg:StrokeNumbers_06e4e" style="font-size:8;fill:#808080"><text transform="matrix(1 0 0 1 9.50 15.50)">1</text><text transform="matrix(1 0 0 1 5.50 42.55)">2</text><text transform="matrix(1 0 0 1 6.50 90.50)">3</text><text transform="matrix(1 0 0 1 36.50 17.50)">4</text><text transform="matrix(1 0 0 1 53.00 29.50)">5</text><text transform="matrix(1 0 0 1 33.50 46.50)">6</text><text transform="matrix(1 0 0 1 44.00 37.50)">7</text><text transform="matrix(1 0 0 1 49.50 49.50)">8</text><text transform="matrix(1 0 0 1 66.50 46.50)">9</text><text transform="matrix(1 0 0 1 61.50 52.50)">10</text><text transform="matrix(1 0 0 1 61.50 67.50)">11</text><text transform="matrix(1 0 0 1 46.50 87.50)">12</text></g></svg>