<svg xmlns="http://www.w3.org/2000/svg" width="109" height="109" viewBox="0 0 109 109"><g id="kvg:StrokePaths_06e56"><g id="kvg:06e56" kvg:element="湖"><g id="kvg:06e56-g1" kvg:element="氵" kvg:variant="true" kvg:original="水" kvg:position="left" kvg:radical="general"><path id="kvg:06e56-s1" kvg:type="㇔" d="M20.13 17c3.31 1.47 8.54 6.05 9.37 8.34"/><path id="kvg:06e56-s2" kvg:type="㇔" d="M14.75 38c3.79 1.15 9.8 5.72 10.75 7.5"/><path id="kvg:06e56-s3" kvg:type="㇀" d="M14.75 82.46c1.88.42 3.31-.39 4.25-2C21.75 75.75 24.5 70 27 64"/></g><g id="kvg:06e56-g2" kvg:element="胡" kvg:position="right" kvg:phon="胡"><g id="kvg:06e56-g3" kvg:element="古"><g id="kvg:06e56-g4" kvg:element="十"><path id="kvg:06e56-s4" kvg:type="㇐" d="M32.25 41c1.25.62 3.12.67 5.5.5 7.12-.5 19.12-2.5 24-3 .99-.1 2.62-.25 3.75.0"/><path id="kvg:06e56-s5" kvg:type="㇑a" d="M48.73 15.63c1.19 1.19 1.7 2.74 1.7 4.43.0 14.43.25 33.72.12 38.88"/></g><g id="kvg:06e56-g5" kvg:element="口"><path id="kvg:06e56-s6" kvg:type="㇑" d="M36.65 60.04c.84.84 1.27 1.96 1.38 3.06.39 3.87 1.49 10.11 2.16 15.64.13 1.11.26 2.18.37 3.21"/><path id="kvg:06e56-s7" kvg:type="㇕b" d="M38.7 61.05c5.17-.62 15.16-2.31 20.05-2.73 2.93-.26 4.37.72 3.93 3.69-.57 3.92-1.73 8.91-2.51 13.6"/><path id="kvg:06e56-s8" kvg:type="㇐b" d="M40.37 78.17c3.99-.24 12.09-1.41 18.01-2.01 1.19-.12 2.3-.22 3.27-.28"/></g></g><g id="kvg:06e56-g6" kvg:element="月"><path id="kvg:06e56-s9" kvg:type="㇓" d="M71.74 20c.63.63 1.19 1.63 1.22 2.58 1.54 44.8-1.71 57.55-12.21 66.92"/><path id="kvg:06e56-s10" kvg:type="㇆a" d="M73.72 21.22c1.26-.16 10.54-1.87 14.02-2.52 3-.57 4.65-.3 4.68 3.17.05 6.53.17 46.75.17 64.96.0 10.29-6.59 2.67-8.59.92"/><path id="kvg:06e56-s11" kvg:type="㇐a" d="M74.46 41.19c5.17-.89 12.12-1.91 16.66-2.15"/><path id="kvg:06e56-s12" kvg:type="㇐a" d="M73.64 59.31c4.03-.29 12.74-1.31 17.52-1.5"/></g></g></g></g></svg>