<svg xmlns="http://www.w3.org/2000/svg" width="109" height="109" viewBox="0 0 109 109"><g id="kvg:StrokePaths_06e58"><g id="kvg:06e58" kvg:element="湘"><g id="kvg:06e58-g1" kvg:element="氵" kvg:variant="true" kvg:original="水" kvg:position="left" kvg:radical="general"><path id="kvg:06e58-s1" kvg:type="㇔" d="M18.38 17.75c3.57 1.47 8.72 6.05 9.62 8.34"/><path id="kvg:06e58-s2" kvg:type="㇔" d="M13 42.25c3.71 1.28 9.07 5.51 10 7.5"/><path id="kvg:06e58-s3" kvg:type="㇀" d="M14.25 90.71c1.88.42 2.97.2 3.75-1.5 3-6.58 4.62-10.45 7.5-17.7"/></g><g id="kvg:06e58-g2" kvg:element="相" kvg:position="right"><g id="kvg:06e58-g3" kvg:element="木" kvg:position="left"><path id="kvg:06e58-s4" kvg:type="㇐" d="M30.9 38.74c1.99.54 3.99.63 5.99.27 4.59-.48 10.24-1.51 15.48-2.03 1.67-.16 3-.23 4.91-.35"/><path id="kvg:06e58-s5" kvg:type="㇑" d="M44.77 15.75c1.05 1.05 1.3 2.25 1.3 3.59.0.75.03 40.52.04 62.29.0 6.45.01 11.32.01 13.12"/><path id="kvg:06e58-s6" kvg:type="㇒" d="M45.75 38.62c0 1.62-.29 3.33-.81 5.18-3.03 10.8-8.25 21.62-14.44 31.43"/><path id="kvg:06e58-s7" kvg:type="㇔" d="M48.67 48.26C52.75 51.5 55 54 56.68 58.2"/></g><g id="kvg:06e58-g4" kvg:element="目" kvg:position="right"><path id="kvg:06e58-s8" kvg:type="㇑" d="M64.18 29.85c.92.92 1.36 2.02 1.36 3.67.0 3.99.0 32.31.0 48.73.0 5.09.0 9.04.0 10.75"/><path id="kvg:06e58-s9" kvg:type="㇕a" d="M66.29 31.41c2.26-.2 16.37-2.28 21.31-2.95 2.79-.38 4.68.85 4.68 4.29.0 7.47-.02 34.79-.03 49.38.0 4.46.0 7.72.0 8.88"/><path id="kvg:06e58-s10" kvg:type="㇐a" d="M66.5 49.59c5.04-.31 20.67-1.87 24.78-1.87"/><path id="kvg:06e58-s11" kvg:type="㇐a" d="M66.46 68.8c6.78-.76 18.24-1.71 24.82-1.71"/><path id="kvg:06e58-s12" kvg:type="㇐a" d="M66.52 89.41c5.08.0 18.13-.77 24.7-.77"/></g></g></g></g></svg>