<svg xmlns="http://www.w3.org/2000/svg" width="109" height="109" viewBox="0 0 109 109"><g id="kvg:StrokePaths_06e7f" style="fill:none;stroke:#000000;stroke-width:3;stroke-linecap:round;stroke-linejoin:round;"><g id="kvg:06e7f" kvg:element="湿"><g id="kvg:06e7f-g1" kvg:element="氵" kvg:variant="true" kvg:original="水" kvg:position="left" kvg:radical="general"><path id="kvg:06e7f-s1" kvg:type="㇔" d="M21.38 17.5c4.1 1.47 10.59 6.05 11.62 8.34"/><path id="kvg:06e7f-s2" kvg:type="㇔" d="M16.5 39.25c3.97 1.59 10.26 6.53 11.25 9"/><path id="kvg:06e7f-s3" kvg:type="㇀" d="M16.45 89.6c1.25.62 2.55.39 3.3-.9 2.75-4.7 5.5-10.45 8-16.45"/></g><g id="kvg:06e7f-g2" kvg:position="right"><g id="kvg:06e7f-g3" kvg:element="日" kvg:position="top"><path id="kvg:06e7f-s4" kvg:type="㇑" d="M43.2 19.81c1 1 1.37 2.2 1.49 3.07.42 3.07 1.74 14.22 2.38 20.11.22 2 .52 3.88.69 4.75"/><path id="kvg:06e7f-s5" kvg:type="㇕a" d="M45.5 21.35c7.42-1.21 30.25-3.97 38.14-4.09 3.51-.05 5.22.9 4.57 4.64-.9 5.17-2.58 13.17-3.93 19.12-.47 2.08-.87 3.81-1.14 4.94"/><path id="kvg:06e7f-s6" kvg:type="㇐a" d="M47.27 33.44c5.85-.69 33.68-3.41 37.93-3.59"/><path id="kvg:06e7f-s7" kvg:type="㇐a" d="M48.64 45.48c7.66-.8 23.36-1.98 34.09-2.38"/></g><g id="kvg:06e7f-g4" kvg:element="业" kvg:position="bottom"><path id="kvg:06e7f-s8" kvg:type="㇑a" d="M58.94 52.38c1.22 1.22 1.48 2.37 1.48 4.26.0 12.62.0 24.73.0 33.17"/><path id="kvg:06e7f-s9" kvg:type="㇑a" d="M72.23 51.6c1.02 1.02 1.28 2.4 1.28 4.09.0 5.06.0 24.93.0 33.22"/><path id="kvg:06e7f-s10" kvg:type="㇔" d="M44.08 66.45c2.82 2.57 7.28 10.08 7.98 14.08"/><path id="kvg:06e7f-s11" kvg:type="㇒" d="M90.99 62c.08.97-.03 1.67-.4 2.58-1.62 4.02-3.57 7.43-10.27 14.71"/><path id="kvg:06e7f-s12" kvg:type="㇐" d="M37.34 92.25c2.54.92 5.7.76 8.29.41 12.94-1.75 30.39-2.95 42.38-3.4 2.44-.09 4.8.29 7.16.8"/></g></g></g></g></svg>