<svg xmlns="http://www.w3.org/2000/svg" width="109" height="109" viewBox="0 0 109 109"><g id="kvg:StrokePaths_06e80"><g id="kvg:06e80" kvg:element="満"><g id="kvg:06e80-g1" kvg:element="氵" kvg:variant="true" kvg:original="水" kvg:position="left" kvg:radical="general"><path id="kvg:06e80-s1" kvg:type="㇔" d="M19.88 17c3.31 1.47 8.12 5.38 10.37 8.34"/><path id="kvg:06e80-s2" kvg:type="㇔" d="M15.5 38.75c3.71 1.41 8.5 5.12 10.5 8"/><path id="kvg:06e80-s3" kvg:type="㇀" d="M12.62 90.48c1.3.38 2.57.0 3.35-1.29 3.32-5.52 6.64-12.27 9.65-19.31"/></g><g id="kvg:06e80-g2" kvg:position="right" kvg:phon="廿+両"><g id="kvg:06e80-g3" kvg:element="艹" kvg:position="top"><g id="kvg:06e80-g4" kvg:element="十"><path id="kvg:06e80-s4" kvg:type="㇐" d="M37.93726 29.02c1.76.53 5.09.47 6.84.28 14.78-1.67 28.692576-3.42 41.792576-4.03 2.93-.14 4.69.25 6.15.51"/><path id="kvg:06e80-s5" kvg:type="㇑a" d="M51.67 15.5c1.04 1.04 1.92 2.36 1.99 3.25.84 10.25 1.59 15.75 2 22.25"/></g><path id="kvg:06e80-s6" kvg:type="㇑a" d="M76.25 13.55c.78.79 1.03 1.94.85 3.42-1.06 8.72-1.67 14.31-3 22.55"/></g><g id="kvg:06e80-g5" kvg:element="両" kvg:position="bottom"><path id="kvg:06e80-s7" kvg:type="㇐" d="M36.151595 43.43c1.55.42 4.402969.609834 5.94.42 9.752306-1.204476 35.042963-2.762866 47.628262-3.84 2.573863-.220289 4.13.2 5.42.42"/><g id="kvg:06e80-g6" kvg:element="冂"><path id="kvg:06e80-s8" kvg:type="㇑" d="M39.82 55.91c.88.88 1.24 2.21 1.28 3.43.27 7.71.11 20.47-.02 28.29-.06 3.5-.11 6.01-.11 6.62"/><path id="kvg:06e80-s9" kvg:type="㇆a" d="M41.75 57.27C49.19 56.74 86.6 52 88.07 51.9c4.18-.28 5.87 1.59 5.87 6.37.0 2.77-.31 21.4-1.28 33.31-.66 8.04-5.41 1.29-7.15-.78"/></g><g id="kvg:06e80-g7" kvg:element="山"><path id="kvg:06e80-s10" kvg:type="㇑a" d="M64.8 43.91c.83.83 1.25 1.96 1.25 3.33.0.71-.06 26.44-.15 30.82"/><path id="kvg:06e80-s11" kvg:type="㇄a" d="M53.41 67.46c.82.82 1.09 2.04.95 3.29-.34 3.13-.49 4.75-.78 7.25-.2 1.73.84 3.19 2.12 2.94 6.55-1.32 15.17-2.57 21.97-3.41"/><path id="kvg:06e80-s12" kvg:type="㇑" d="M78.22 64.99c.83.83 1.03 2.14.96 3.33-.18 2.96-.31 5.85-.43 8.93-.06 1.53-.11 3.11-.17 4.77"/></g></g></g></g></g></svg>