<svg xmlns="http://www.w3.org/2000/svg" width="109" height="109" viewBox="0 0 109 109"><g id="kvg:StrokePaths_06e8c"><g id="kvg:06e8c" kvg:element="溌"><g id="kvg:06e8c-g1" kvg:element="氵" kvg:variant="true" kvg:original="水" kvg:position="left" kvg:radical="general"><path id="kvg:06e8c-s1" kvg:type="㇔" d="M17.38 15c4.01 1.25 10.36 5.15 11.37 7.09"/><path id="kvg:06e8c-s2" kvg:type="㇔" d="M12.25 39.25c3.79 1.46 9.8 5.99 10.75 8.25"/><path id="kvg:06e8c-s3" kvg:type="㇀" d="M12.25 87.71c1.5 1.31 3.31 1.36 4.25-.25C19.25 82.75 22 77 24.5 71"/></g><g id="kvg:06e8c-g2" kvg:element="発" kvg:position="right"><g id="kvg:06e8c-g3" kvg:element="癶" kvg:position="top"><g id="kvg:06e8c-g4" kvg:position="left"><path id="kvg:06e8c-s4" kvg:type="㇇" d="M42.29 15.86c1.24.56 1.75.68 3.71.19 3.3-.83 5.77-1.45 9.88-2.58 3.23-.89 3.95.47 2.9 3.48C56.3 24 42.5 45.04 30.75 48.75"/><path id="kvg:06e8c-s5" kvg:type="㇔" d="M36.76 25.32c3.61 1.07 9.34 4.4 10.24 6.06"/></g><g id="kvg:06e8c-g5" kvg:position="right"><path id="kvg:06e8c-s6" kvg:type="㇒" d="M78.12 14.39c.02.24.05.62-.05.96-.6 2.03-4.02 6.49-8.7 9.22"/><path id="kvg:06e8c-s7" kvg:type="㇏" d="M58.79 18.26c6.4 4.59 24.63 21.84 31.58 25.72 1.86 1.04 3.17 1.82 4.88 2.19"/><path id="kvg:06e8c-s8" kvg:type="㇒" d="M88.89 24.15c.03.22.06.56-.06.86-.72 1.82-4.87 5.82-10.53 8.27"/></g></g><g id="kvg:06e8c-g6" kvg:position="bottom"><g id="kvg:06e8c-g7" kvg:element="二"><g id="kvg:06e8c-g8" kvg:position="top"><path id="kvg:06e8c-s9" kvg:type="㇐" d="M40.72 49.89c1.11.38 3.15.49 4.27.38 7.09-.66 23.59-2.77 30.95-3.88 1.83-.28 2.97-.32 3.9-.13"/></g><g id="kvg:06e8c-g9" kvg:position="bottom"><path id="kvg:06e8c-s10" kvg:type="㇐" d="M32.32 68.99c.9.29 4.46.33 5.37.29 11.94-.58 43.45-4.73 49.01-4.39 1.5.09 4.32.14 5.07.28"/></g></g><g id="kvg:06e8c-g10" kvg:element="儿" kvg:variant="true" kvg:original="八"><g id="kvg:06e8c-g11" kvg:element="丿" kvg:position="left"><path id="kvg:06e8c-s11" kvg:type="㇒" d="M51.39 52.5c.67 1 1.2 2.73 1.2 4.3C52.49 75.75 45.22 92 29.93 97.92"/></g><g id="kvg:06e8c-g12" kvg:position="right"><path id="kvg:06e8c-s12" kvg:type="㇟" d="M66.5 50.37c.71.66 1.39 2.73 1.42 4.65.14 8.61-.37 22.75-.37 28.61.0 13.67 6.16 12.65 12.22 12.65 6.4.0 10.59-1.08 11.51-3.28 1.13-2.72 1.38-3.15 1.56-6.83"/></g></g></g></g></g></g></svg>