<svg xmlns="http://www.w3.org/2000/svg" width="109" height="109" viewBox="0 0 109 109"><g id="kvg:StrokePaths_06e96"><g id="kvg:06e96" kvg:element="準"><g id="kvg:06e96-g1" kvg:position="top"><g id="kvg:06e96-g2" kvg:element="氵" kvg:variant="true" kvg:original="水" kvg:radical="tradit"><path id="kvg:06e96-s1" kvg:type="㇔" d="M29.11 12.25c3.12 1.36 8.04 5.61 8.83 7.73"/><path id="kvg:06e96-s2" kvg:type="㇔" d="M21.88 27.12c3.27 1.26 8.44 5.2 9.26 7.17"/><path id="kvg:06e96-s3" kvg:type="㇀" d="M22.51 58.14c1.5.73 3.3.77 4.25-.14 2.75-2.64 5.5-5.88 7.99-9.25"/></g><g id="kvg:06e96-g3" kvg:element="隼" kvg:part="1" kvg:phon="隼1"><g id="kvg:06e96-g4" kvg:element="隹"><g id="kvg:06e96-g5" kvg:element="亻" kvg:variant="true" kvg:original="人"><path id="kvg:06e96-s4" kvg:type="㇒" d="M55.36 8.75c.16 1.17-.04 2.7-.56 3.7C51.53 18.83 47.38 24.23 39.88 32"/><path id="kvg:06e96-s5" kvg:type="㇑" d="M50.38 22.98c.82.82 1.42 2.11 1.46 3.51.19 6.7.21 18.01.21 26.76.0 1.81.0 3.21.06 4"/></g><path id="kvg:06e96-s6" kvg:type="㇒" d="M74.9 9.5c.05.57-.02 1.32-.19 1.81-1.14 3.12-2.59 5.52-5.21 9.32"/><path id="kvg:06e96-s7" kvg:type="㇐b" d="M51.83 23.31c5.73-.72 24.54-2.55 33-3.47 1.95-.21 3.35-.38 3.92-.47"/><path id="kvg:06e96-s8" kvg:type="㇑a" d="M69.26 23.3c.33.29.59 1.68.59 2.17.0 5.02-.16 19.15-.16 28.14"/><path id="kvg:06e96-s9" kvg:type="㇐b" d="M53.04 34.33c5.14-.48 21.94-2.02 29.71-2.78 1.96-.19 3.38-.34 3.93-.4"/><path id="kvg:06e96-s10" kvg:type="㇐b" d="M52.26 45.52c5.57-.42 23.31-2.35 31.98-3.06 1.91-.16 3.44-.25 4.36-.26"/><path id="kvg:06e96-s11" kvg:type="㇐b" d="M52.46 56.79c5.52-.59 24.97-3.55 35.04-3.42 2.37.03 4.24.15 5.29.4"/></g></g></g><g id="kvg:06e96-g6" kvg:element="隼" kvg:part="2" kvg:position="bottom" kvg:phon="隼2"><g id="kvg:06e96-g7" kvg:element="十" kvg:radical="nelson"><path id="kvg:06e96-s12" kvg:type="㇐" d="M13.13 77.73c3.26 1.16 7.04 1 10.37.63 19.38-2.11 49.21-4.21 63.63-4.73 2.95-.11 5.85-.19 8.75.44"/><path id="kvg:06e96-s13" kvg:type="㇑" d="M52.66 62.63c.92.92 1.82 2.74 1.82 4.53.0.92.06 14.59.06 27.59.0 2.18-.01 4.64-.04 5.88"/></g></g></g></g></svg>