<svg xmlns="http://www.w3.org/2000/svg" width="109" height="109" viewBox="0 0 109 109"><g id="kvg:StrokePaths_06eba" style="fill:none;stroke:#000000;stroke-width:3;stroke-linecap:round;stroke-linejoin:round;"><g id="kvg:06eba" kvg:element="溺"><g id="kvg:06eba-g1" kvg:element="氵" kvg:original="水" kvg:position="left" kvg:radical="general"><path id="kvg:06eba-s1" kvg:type="㇔" d="M19.88 16.25c3.31 1.47 8.54 6.05 9.37 8.34"/><path id="kvg:06eba-s2" kvg:type="㇔" d="M13.25 40.25c3.62 1.37 9.34 5.62 10.25 7.75"/><path id="kvg:06eba-s3" kvg:type="㇀" d="M14.25 87.71c1.5 1.31 3.31 1.36 4.25-.25C21.25 82.75 24 77 26.5 71"/></g><g id="kvg:06eba-g2" kvg:element="弱" kvg:position="right"><g id="kvg:06eba-g3" kvg:element="弓" kvg:position="left"><path id="kvg:06eba-s4" kvg:type="㇕c" d="M36.97 18.41c1.15.59 3.66.55 4.78.45 6.88-.61 11.63-1.86 15.76-2.62 2.29-.42 3.49-.26 2.83 1.68-.67 1.94-2.46 10.58-4.07 14.78"/><path id="kvg:06eba-s5" kvg:type="㇐" d="M42.25 35.25c1.75.0 11.5-1.5 12.75-1.5s2.5-.5 3.5-.5"/><path id="kvg:06eba-s6" kvg:type="㇉" d="M40.73 33.12c.52.97.99 2.1.66 3.63-.38 1.76-2.13 8.51-3.05 12.32-.62 2.59.37 2.91 1.9 2.41 3.67-1.22 13.76-3.41 16.59-3.58 2.29-.14 3.45 1.28 3.22 4.6C59.34 63 56.07 79.25 50.63 91.58c-1.88 4.25-5.08 2.42-6.58-1.53"/></g><g id="kvg:06eba-g4" kvg:position="right"><g id="kvg:06eba-g5" kvg:element="冫" kvg:variant="true"><g id="kvg:06eba-g6" kvg:position="top"><path id="kvg:06eba-s7" kvg:type="㇒/㇔" d="M48.88 52.14c.05.37.22 1.02-.09 1.5C45.75 58.25 40.3 63 32.31 67.97"/></g><g id="kvg:06eba-g7" kvg:position="bottom"><path id="kvg:06eba-s8" kvg:type="㇒/㇀" d="M52.24 62.64c.06.47.3 1.3-.11 1.9C48.61 69.75 41.08 77 32.57 82.72"/></g></g><g id="kvg:06eba-g8" kvg:element="弓"><path id="kvg:06eba-s9" kvg:type="㇕c" d="M68.58 15.91c1.89.84 3.67.62 4.78.45 3.96-.61 14.03-1.39 16.24-2.12s3.49.74 2.83 2.68-1.57 6.83-3.58 14.28"/><path id="kvg:06eba-s10" kvg:type="㇐" d="M74.75 33.75c1.75.0 11.5-2 12.75-2s2.5.0 3.5.0"/><path id="kvg:06eba-s11" kvg:type="㇉" d="M72.26 32.12c.52.97.99 2.1.66 3.63-.38 1.76-1.9 7.02-3 11.82-.27 1.19.34 2.83 1.9 2.41 6.33-1.72 14.84-2.91 17.67-3.08 2.29-.14 3.66 1.3 3.22 4.6-2.15 16.01-2.52 29.41-7.75 40.08-2.04 4.17-5.69 1.67-7.09-1.03"/></g><g id="kvg:06eba-g9" kvg:element="冫" kvg:variant="true"><g id="kvg:06eba-g10" kvg:position="top"><path id="kvg:06eba-s12" kvg:type="㇒/㇔" d="M82.63 50.14c.04.39.09 1.01-.09 1.57-1.09 3.31-7.37 10.56-15.96 15.01"/></g><g id="kvg:06eba-g11" kvg:position="bottom"><path id="kvg:06eba-s13" kvg:type="㇒/㇀" d="M86.51 61.64c.07.52.27 1.4-.13 2.09-3.5 6.02-11.81 13.52-22.91 19.99"/></g></g></g></g></g></g></svg>