<svg xmlns="http://www.w3.org/2000/svg" width="109" height="109" viewBox="0 0 109 109"><g id="kvg:StrokePaths_06ebd" style="fill:none;stroke:#000000;stroke-width:3;stroke-linecap:round;stroke-linejoin:round;"><g id="kvg:06ebd" kvg:element="溽"><g id="kvg:06ebd-g1" kvg:element="氵" kvg:variant="true" kvg:original="水" kvg:position="left" kvg:radical="general"><path id="kvg:06ebd-s1" kvg:type="㇔" d="M17.88 15.5c4.37 1.96 11.27 8.05 12.37 11.09"/><path id="kvg:06ebd-s2" kvg:type="㇔" d="M13.75 42.5c4.32 2.29 11.17 9.43 12.25 13"/><path id="kvg:06ebd-s3" kvg:type="㇀" d="M14.25 90.23c1.71 1.27 3.78 1.32 4.86-.25 3.14-4.57 9.79-16.16 12.64-21.99"/></g><g id="kvg:06ebd-g2" kvg:element="辱" kvg:position="right"><g id="kvg:06ebd-g3" kvg:element="辰" kvg:position="top"><g id="kvg:06ebd-g4" kvg:element="厂"><path id="kvg:06ebd-s4" kvg:type="㇐" d="M43.91 15.77c1.22.44 3.46.54 4.68.44 9.89-.83 33.14-1.79 38.42-2.17 2.03-.14 3.26.21 4.27.43"/><path id="kvg:06ebd-s5" kvg:type="㇒" d="M47.08 16.53c.03 1.05-.05 2.69-.05 4.2.0 9.67-2.65 24.93-9.53 34.47"/></g><path id="kvg:06ebd-s6" kvg:type="㇐" d="M55.16 25.68c1.05.31 2.97.4 4.01.31 6.67-.54 14.98-1.67 21.63-2.17 1.73-.13 2.79.15 3.66.3"/><path id="kvg:06ebd-s7" kvg:type="㇐" d="M50.38 35.51c.86.31 2.45.4 3.31.31 5.5-.54 28.82-2.3 34.76-2.39 1.44-.02 4.14.15 4.86.3"/><path id="kvg:06ebd-s8" kvg:type="㇙" d="M55.29 38.04c1.13 1.43 1.05 2.04 1.05 4.08.0 9.64-.34 12.61-.34 14.24s1.24 2.56 2.81 1.33c1.57-1.22 4.44-2.94 10.34-6.47"/><path id="kvg:06ebd-s9" kvg:type="㇒" d="M85.59 37.64c.02.17.05.43-.04.68-.53 1.42-3.54 4.55-7.66 6.46"/><path id="kvg:06ebd-s10" kvg:type="㇏" d="M64.72 36.64c5.53 4.27 20.02 14.59 24.06 17.29 1.37.92 2.54 1.31 3.91 1.57"/></g><g id="kvg:06ebd-g5" kvg:element="寸" kvg:position="bottom"><path id="kvg:06ebd-s11" kvg:type="㇐" d="M39.06 70.6c1.5.73 4.24.78 5.76.73 16.97-.57 29.38-1.89 47.73-2.99 2.5-.15 4.01.34 5.26.71"/><path id="kvg:06ebd-s12" kvg:type="㇚" d="M78.97 56.33c.06.44.89 2.26.89 5.03.0 18.57.21 26.86.21 31.38.0 10.96-5.31 1.62-6.86.23"/><path id="kvg:06ebd-s13" kvg:type="㇔" d="M52.88 77.65c2.6 1.78 6.72 7.33 7.37 10.11"/></g></g></g></g></svg>