<!DOCTYPE svg PUBLIC "-//W3C//DTD SVG 1.0//EN" "http://www.w3.org/TR/2001/REC-SVG-20010904/DTD/svg10.dtd" [
<!ATTLIST g
xmlns:kvg CDATA #FIXED "http://kanjivg.tagaini.net"
kvg:element CDATA #IMPLIED
kvg:variant CDATA #IMPLIED
kvg:partial CDATA #IMPLIED
kvg:original CDATA #IMPLIED
kvg:part CDATA #IMPLIED
kvg:number CDATA #IMPLIED
kvg:tradForm CDATA #IMPLIED
kvg:radicalForm CDATA #IMPLIED
kvg:position CDATA #IMPLIED
kvg:radical CDATA #IMPLIED
kvg:phon CDATA #IMPLIED >
<!ATTLIST path
xmlns:kvg CDATA #FIXED "http://kanjivg.tagaini.net"
kvg:type CDATA #IMPLIED >
]><svg xmlns="http://www.w3.org/2000/svg" width="109" height="109" viewBox="0 0 109 109"><g id="kvg:StrokePaths_06ecc" style="fill:none;stroke:#000000;stroke-width:3;stroke-linecap:round;stroke-linejoin:round;"><g id="kvg:06ecc" kvg:element="滌"><g id="kvg:06ecc-g1" kvg:element="氵" kvg:variant="true" kvg:original="水" kvg:position="left" kvg:radical="general"><path id="kvg:06ecc-s1" kvg:type="㇔" d="M14.63 15.75c4.1 1.56 10.59 6.41 11.62 8.84"/><path id="kvg:06ecc-s2" kvg:type="㇔" d="M8.75 43c4.32 1.76 11.17 7.26 12.25 10"/><path id="kvg:06ecc-s3" kvg:type="㇀" d="M10.75 88.23c1.71 1.27 3.78 1.32 4.86-.25 3.14-4.57 6.29-10.16 9.14-15.99"/></g><g id="kvg:06ecc-g2" kvg:element="條" kvg:position="right"><g id="kvg:06ecc-g3" kvg:element="攸" kvg:part="1" kvg:position="left"><g id="kvg:06ecc-g4" kvg:element="亻" kvg:variant="true" kvg:original="人" kvg:position="left"><path id="kvg:06ecc-s4" kvg:type="㇒" d="M47.03 16.72c.2 1.67-.06 3.85-.7 5.28-4.13 9.1-9.36 17.65-18.83 28.73"/><path id="kvg:06ecc-s5" kvg:type="㇑" d="M36.8 42.24c.41.98 1.09 1.9 1.09 3.16.0 13.98-.47 38.88-.47 49.41"/></g><g id="kvg:06ecc-g5" kvg:element="丨" kvg:position="right"><path id="kvg:06ecc-s6" kvg:type="㇑" d="M47.52 34.62c.86.9 1.46 1.95 1.53 4.92.35 14.25-.02 39.95-.02 44.81"/></g></g><g id="kvg:06ecc-g6" kvg:position="right"><g id="kvg:06ecc-g7" kvg:element="攸" kvg:part="2" kvg:position="top"><g id="kvg:06ecc-g8" kvg:element="攵" kvg:variant="true" kvg:original="攴"><g id="kvg:06ecc-g9" kvg:element="𠂉" kvg:position="top"><path id="kvg:06ecc-s7" kvg:type="㇒" d="M70.14 15.39c.04.48.22 1.26-.07 1.92-1.86 4.22-6.89 13.8-13.31 19.64"/><path id="kvg:06ecc-s8" kvg:type="㇐" d="M70.03 24.87c.03-.09 1.49.26 2.01.23 5.47-.27 11.64-2.18 19.99-2.61.94-.05 1.51-.01 1.76.04"/></g><g id="kvg:06ecc-g10" kvg:element="乂" kvg:position="bottom"><g id="kvg:06ecc-g11" kvg:element="丿"><path id="kvg:06ecc-s9" kvg:type="㇒" d="M85.16 26.53c-.04.86.1 2.56-.65 3.6-5.7 7.89-11.79 14.98-28.61 22.51"/></g><path id="kvg:06ecc-s10" kvg:type="㇏" d="M62.26 31.24c5.32 1.55 20.51 14.8 29.92 18.6 1.81.73 2.96.85 4.45.93"/></g></g></g><g id="kvg:06ecc-g12" kvg:element="木" kvg:position="bottom"><path id="kvg:06ecc-s11" kvg:type="㇐" d="M56.41 64.03c1.06.39 2.25.42 3.47.39 6.62-.17 24.67-2.34 34.03-3.08 1.21-.1 1.96.07 3.17.34"/><path id="kvg:06ecc-s12" kvg:type="㇑" d="M73.54 50.26c.58.98 1.11 2.21 1.11 2.78.0 5.81.0 40.51-.12 43.97"/><path id="kvg:06ecc-s13" kvg:type="㇒" d="M74.23 64.29c-3.64 8.14-13.41 20.59-20.99 25.2"/><path id="kvg:06ecc-s14" kvg:type="㇏" d="M74.65 64.62c4.33 6.38 15.64 19.02 19.98 22.4 1.18.92 2.01 1.52 3.1 1.83"/></g></g></g></g></g><g id="kvg:StrokeNumbers_06ecc" style="font-size:8;fill:#808080"><text transform="matrix(1 0 0 1 7.50 16.13)">1</text><text transform="matrix(1 0 0 1 1.50 43.50)">2</text><text transform="matrix(1 0 0 1 3.50 91.50)">3</text><text transform="matrix(1 0 0 1 39.50 16.50)">4</text><text transform="matrix(1 0 0 1 30.50 56.50)">5</text><text transform="matrix(1 0 0 1 41.50 43.50)">6</text><text transform="matrix(1 0 0 1 63.50 15.50)">7</text><text transform="matrix(1 0 0 1 74.50 21.50)">8</text><text transform="matrix(1 0 0 1 75.50 32.50)">9</text><text transform="matrix(1 0 0 1 60.50 40.50)">10</text><text transform="matrix(1 0 0 1 53.50 61.38)">11</text><text transform="matrix(1 0 0 1 64.50 55.50)">12</text><text transform="matrix(1 0 0 1 59.50 74.98)">13</text><text transform="matrix(1 0 0 1 81.50 71.50)">14</text></g></svg>