<svg xmlns="http://www.w3.org/2000/svg" width="109" height="109" viewBox="0 0 109 109"><g id="kvg:StrokePaths_06ecb"><g id="kvg:06ecb" kvg:element="滋"><g id="kvg:06ecb-g1" kvg:element="氵" kvg:variant="true" kvg:original="水" kvg:position="left" kvg:radical="general"><path id="kvg:06ecb-s1" kvg:type="㇔" d="M22.01 18c3.97 1.38 10.25 5.69 11.24 7.84"/><path id="kvg:06ecb-s2" kvg:type="㇔" d="M14.88 41.25c4.02 1.32 10.37 5.44 11.38 7.5"/><path id="kvg:06ecb-s3" kvg:type="㇀" d="M14.25 87.86c1.25.65 2.54.41 3.28-.95 2.74-4.98 5.48-11.06 7.97-17.41"/></g><g id="kvg:06ecb-g2" kvg:element="兹" kvg:variant="true" kvg:original="茲" kvg:position="right" kvg:phon="兹/茲V"><g id="kvg:06ecb-g3" kvg:element="艹" kvg:variant="true" kvg:original="艸" kvg:position="top"><g id="kvg:06ecb-g4" kvg:element="玄" kvg:part="1" kvg:number="1" kvg:partial="true"><g id="kvg:06ecb-g5" kvg:element="亠" kvg:partial="true"><path id="kvg:06ecb-s4" kvg:type="㇔" d="M50.32 19.61c2.73 2.12 7.05 8.7 7.74 11.99"/></g></g><path id="kvg:06ecb-s5" kvg:type="㇒" d="M82.11 17.39c.14.7-.16 1.83-.39 2.34-1.97 4.4-5.27 9.84-7.6 12.65"/><path id="kvg:06ecb-s6" kvg:type="㇐" d="M37.38 38.68c2.87.44 5.81.4 8.49.19 11.66-.91 23.62-2.46 42.77-3.41 2.82-.14 5.55-.09 8.33.51"/></g><g id="kvg:06ecb-g6" kvg:position="bottom"><g id="kvg:06ecb-g7" kvg:element="玄" kvg:part="2" kvg:number="1" kvg:partial="true" kvg:position="left"><g id="kvg:06ecb-g8" kvg:element="幺"><path id="kvg:06ecb-s7" kvg:type="㇜" d="M50.27 46.6c.23.92.3 2.11-.12 3.1-1.93 4.57-5.64 10.34-8.99 15.42-.66 1.01-1.16 1.88.0 2.29 2.89 1.01 6.2 2.7 8.31 4.38"/><path id="kvg:06ecb-s8" kvg:type="㇜" d="M60.77 55.66c.48 1.34.1 2.84-.83 4.19-5.73 8.36-13.31 17.52-22.78 28.46-1.09 1.26-.4 2.44.9 2.08 8.95-2.46 13.08-3.64 20.83-5.92"/><path id="kvg:06ecb-s9" kvg:type="㇔" d="M55.85 77.19c2.68 2.77 6.92 11.4 7.59 15.71"/></g></g><g id="kvg:06ecb-g9" kvg:element="玄" kvg:part="1" kvg:number="2" kvg:partial="true" kvg:position="right"><g id="kvg:06ecb-g10" kvg:element="幺"><path id="kvg:06ecb-s10" kvg:type="㇜" d="M80.57 45.76c.25 1.03.34 2.01-.12 3.17-2.32 5.81-5.97 11.62-9.06 16.1-1.01 1.46-.38 2.21.75 2.58 2.68.88 4.99 2 8.63 3.73"/><path id="kvg:06ecb-s11" kvg:type="㇜" d="M90.39 54.96c.3 1.13.15 3.42-.28 4.08C84.76 67.35 80.18 74 72.48 84.21c-1.43 1.89-1.57 3.62 1.62 2.56 6.56-2.19 9.53-3.26 17.02-5.51"/><path id="kvg:06ecb-s12" kvg:type="㇔" d="M88.79 75.1c2.36 2.73 6.08 11.21 6.67 15.46"/></g></g></g></g></g></g></svg>