<svg xmlns="http://www.w3.org/2000/svg" width="109" height="109" viewBox="0 0 109 109"><g id="kvg:StrokePaths_06ed4" style="fill:none;stroke:#000000;stroke-width:3;stroke-linecap:round;stroke-linejoin:round;"><g id="kvg:06ed4" kvg:element="滔"><g id="kvg:06ed4-g1" kvg:element="氵" kvg:variant="true" kvg:original="水" kvg:position="left" kvg:radical="general"><path id="kvg:06ed4-s1" kvg:type="㇔" d="M18.38 17c4.19 1.78 10.82 7.32 11.87 10.09"/><path id="kvg:06ed4-s2" kvg:type="㇔" d="M13.25 41.75c4.68 2.07 12.08 8.53 13.25 11.75"/><path id="kvg:06ed4-s3" kvg:type="㇀" d="M14.75 89.73c1.71 1.27 3.78 1.32 4.86-.25 3.14-4.57 8.79-15.16 11.64-20.99"/></g><g id="kvg:06ed4-g2" kvg:element="舀" kvg:position="right"><g id="kvg:06ed4-g3" kvg:element="⺤" kvg:variant="true" kvg:original="爪" kvg:position="top"><path id="kvg:06ed4-s4" kvg:type="㇒" d="M81.7 10.43c.1.28.21.72-.21 1.12C79 13.9 64.74 19.06 45.21 22.21"/><path id="kvg:06ed4-s5" kvg:type="㇒" d="M48.26 26.62c.03.52.07 1.35-.07 2.09-.8 4.41-5.4 14.1-11.69 20.03"/><path id="kvg:06ed4-s6" kvg:type="㇔" d="M61.21 26.94c3.32 2.69 8.58 11.06 9.41 15.24"/><path id="kvg:06ed4-s7" kvg:type="㇔" d="M79.2 22.68c5.66 3.26 14.63 13.43 16.05 18.5"/></g><g id="kvg:06ed4-g4" kvg:element="臼" kvg:position="bottom"><path id="kvg:06ed4-s8" kvg:type="㇒" d="M61.87 48.71c.05.3.21.87-.1 1.19-4.04 4.23-8.76 7.99-17.97 11.36"/><path id="kvg:06ed4-s9" kvg:type="㇑" d="M41.53 59.25c.67.76.94 2.47 1.11 4.03.61 5.71 2.52 27.51 3.13 35.22"/><path id="kvg:06ed4-s10" kvg:type="㇐" d="M44.17 76.41c3.9-.33 15.69-2.15 16.62-2.15s2.23.0 2.97.0"/><path id="kvg:06ed4-s11" kvg:type="㇕" d="M70.63 57.13c.93.17 1.67.49 2.97.49s15.06-1.98 16.55-2.14c1.49-.16 2.72.82 2.6 1.81-1.12 9.56-3.1 31.01-4.22 38.92"/><path id="kvg:06ed4-s12" kvg:type="㇐" d="M70.5 73.11c.93.16 1.67.49 2.97.49s15.69-1.82 17.17-1.98"/><path id="kvg:06ed4-s13" kvg:type="㇐" d="M45.71 95.7c2.42.0 40.1-2.64 42.89-2.81"/></g></g></g></g></svg>