<svg xmlns="http://www.w3.org/2000/svg" width="109" height="109" viewBox="0 0 109 109"><g id="kvg:StrokePaths_06eff"><g id="kvg:06eff" kvg:element="滿"><g id="kvg:06eff-g1" kvg:element="氵" kvg:variant="true" kvg:original="水" kvg:position="left" kvg:radical="general"><path id="kvg:06eff-s1" kvg:type="㇔" d="M18.38 14.75c4.19 1.65 10.82 6.78 11.87 9.34"/><path id="kvg:06eff-s2" kvg:type="㇔" d="M14 42.5c4.77 1.85 12.31 7.62 13.5 10.5"/><path id="kvg:06eff-s3" kvg:type="㇀" d="M14.75 90.68c1.65 1.34 4.14.9 5.18-.76 3.03-4.84 5.56-10.25 8.32-16.42"/></g><g id="kvg:06eff-g2" kvg:position="right"><g id="kvg:06eff-g3" kvg:element="廿"><g id="kvg:06eff-g4" kvg:element="十"><path id="kvg:06eff-s4" kvg:type="㇐" d="M36.57 25.06c1.08.38 3.05.45 4.13.38 5.62-.35 36.38-3.4 48.22-3.56 1.79-.03 2.87.18 3.77.38"/><path id="kvg:06eff-s5" kvg:type="㇑" d="M50.51 13.69c.89.35 1.42 1.6 1.6 2.31s1.5 17.07 1.32 21.5"/></g><path id="kvg:06eff-s6" kvg:type="㇑" d="M74.85 11.75c.89.35 1.42 1.6 1.6 2.31.18.71-.42 12.84-.95 19.4"/><g id="kvg:06eff-g5" kvg:element="兩" kvg:part="1"><path id="kvg:06eff-s7" kvg:type="㇐" d="M53.43 35.76c3.37.0 21.26-1.79 24.3-1.95"/></g></g><g id="kvg:06eff-g6" kvg:element="兩" kvg:part="2"><g id="kvg:06eff-g7" kvg:element="冂"><path id="kvg:06eff-s8" kvg:type="㇑" d="M38.25 46.77c1.25 1.23 1.93 2.96 2.11 4.68 1.06 10.25 1.81 39.96 1.81 44.57"/><path id="kvg:06eff-s9" kvg:type="㇆a" d="M41.06 49.21c9.87-.96 41.96-4.76 48.17-5.5 2.01-.24 3.7.97 3.63 3.61-.35 13.43-.1 27.18-2.11 41.85-.97 7.07-4.63 4.82-7.25.0"/></g><path id="kvg:06eff-s10" kvg:type="㇑" d="M63.44 36.84c1.01 1.2 1.81 2.65 1.81 4.33.0.96-.1 49.52-.1 52.17"/><g id="kvg:06eff-g8" kvg:element="入"><path id="kvg:06eff-s11" kvg:type="㇒" d="M53.43 64.88c-1.44 3.85-5.18 9.31-8.17 11.49"/><path id="kvg:06eff-s12" kvg:type="㇏" d="M47.8 56.9c.47.0.89.48 1.12.84 3.73 5.91 7.96 11.98 11.42 16.16.39.47.76.64 1.18.77"/></g><g id="kvg:06eff-g9" kvg:element="入"><path id="kvg:06eff-s13" kvg:type="㇒" d="M77.87 61.55c-1.5 3.83-5.38 9.26-8.49 11.43"/><path id="kvg:06eff-s14" kvg:type="㇏" d="M73.09 53.48c.5.0.99.48 1.18.88 2.93 6.01 7.36 12.69 12.1 16.87.48.42.81.67 1.25.81"/></g></g></g></g></g></svg>