<!DOCTYPE svg PUBLIC "-//W3C//DTD SVG 1.0//EN" "http://www.w3.org/TR/2001/REC-SVG-20010904/DTD/svg10.dtd" [
<!ATTLIST g
xmlns:kvg CDATA #FIXED "http://kanjivg.tagaini.net"
kvg:element CDATA #IMPLIED
kvg:variant CDATA #IMPLIED
kvg:partial CDATA #IMPLIED
kvg:original CDATA #IMPLIED
kvg:part CDATA #IMPLIED
kvg:number CDATA #IMPLIED
kvg:tradForm CDATA #IMPLIED
kvg:radicalForm CDATA #IMPLIED
kvg:position CDATA #IMPLIED
kvg:radical CDATA #IMPLIED
kvg:phon CDATA #IMPLIED >
<!ATTLIST path
xmlns:kvg CDATA #FIXED "http://kanjivg.tagaini.net"
kvg:type CDATA #IMPLIED >
]><svg xmlns="http://www.w3.org/2000/svg" width="109" height="109" viewBox="0 0 109 109"><g id="kvg:StrokePaths_06f13" style="fill:none;stroke:#000000;stroke-width:3;stroke-linecap:round;stroke-linejoin:round;"><g id="kvg:06f13" kvg:element="漓"><g id="kvg:06f13-g1" kvg:element="氵" kvg:variant="true" kvg:original="水" kvg:position="left" kvg:radical="general"><path id="kvg:06f13-s1" kvg:type="㇔" d="M16.63 17.5c4.45 1.52 11.5 6.23 12.62 8.59"/><path id="kvg:06f13-s2" kvg:type="㇔" d="M13.75 41c4.5 1.59 11.62 6.53 12.75 9"/><path id="kvg:06f13-s3" kvg:type="㇀" d="M13.25 89.73c1.71 1.27 3.78 1.32 4.86-.25 3.14-4.57 8.79-16.66 11.64-22.49"/></g><g id="kvg:06f13-g2" kvg:element="离" kvg:position="right"><g id="kvg:06f13-g3" kvg:element="亠"><path id="kvg:06f13-s4" kvg:type="㇑a" d="M64.69 10.25c.74.34 1.96 1.67 1.96 2.36.0 2.52-.23 8.49-.1 10.62"/><path id="kvg:06f13-s5" kvg:type="㇐" d="M40.42 24.01c2.09.33 3.92.56 6.33.47C59.5 24 71.38 22.77 88.04 22.1c2.45-.1 3.7.04 5.53.6"/></g><g id="kvg:06f13-g4" kvg:element="凶"><g id="kvg:06f13-g5" kvg:element="乂"><g id="kvg:06f13-g6" kvg:element="丿"><path id="kvg:06f13-s6" kvg:type="㇒" d="M75.96 27.93c.35.45.7.81.18 1.61-4.71 7.16-10.89 11.71-21.87 16.9"/></g><path id="kvg:06f13-s7" kvg:type="㇔/㇏" d="M56.56 31.35c7.37 2.18 17.98 9.26 21.83 14.45"/></g><g id="kvg:06f13-g7" kvg:element="凵" kvg:position="kamae"><path id="kvg:06f13-s8" kvg:type="㇄a" d="M47.67 31.3c.42.2 1.3 1.47 1.38 1.86.61 2.87-.54 16.6-.58 17.53s.91 1.41 1.73 1.33c13.05-1.27 31.65-2.36 35.97-2.55"/><path id="kvg:06f13-s9" kvg:type="㇑" d="M86.88 28.08c.42.2 1.3 1.47 1.38 1.86s-1.31 14.7-1.68 22.42"/></g></g><g id="kvg:06f13-g8" kvg:element="禸"><g id="kvg:06f13-g9" kvg:element="冂"><path id="kvg:06f13-s10" kvg:type="㇑" d="M42.9 61.73c.75.9.88 2.34 1.01 3.98.34 4.29 1.75 30.58 1.75 33.29"/><path id="kvg:06f13-s11" kvg:type="㇆" d="M44.13 63.46c6.68-.76 46.19-2.96 47.52-2.96 1.93.0 3.16.57 3.16 2.27.0 3.59-2.07 23.36-3.35 28.72-2.06 8.65-5.45 3.74-7.24 1.94"/></g><path id="kvg:06f13-s12" kvg:type="㇒" d="M66.54 53.25c.29.5.37 2.46.1 3.08-3.545644 11.817751-4.500634 16.741616-5.805787 22.015808"/><path id="kvg:06f13-s13" kvg:type="㇐" d="M53.824029 80.456421c8.3-2.46 15.55-4.46 22.99-6.56"/><path id="kvg:06f13-s14" kvg:type="㇔" d="M73.08 66.81c3.08 2.76 7.96 11.36 8.73 15.66"/></g></g></g></g><g id="kvg:StrokeNumbers_06f13" style="font-size:8;fill:#808080"><text transform="matrix(1 0 0 1 8.50 18.88)">1</text><text transform="matrix(1 0 0 1 4.75 41.05)">2</text><text transform="matrix(1 0 0 1 5.25 94.48)">3</text><text transform="matrix(1 0 0 1 56.00 7.90)">4</text><text transform="matrix(1 0 0 1 37.75 20.08)">5</text><text transform="matrix(1 0 0 1 67.50 31.50)">6</text><text transform="matrix(1 0 0 1 53.50 38.50)">7</text><text transform="matrix(1 0 0 1 39.50 34.50)">8</text><text transform="matrix(1 0 0 1 80.75 33.50)">9</text><text transform="matrix(1 0 0 1 33.50 70.50)">10</text><text transform="matrix(1 0 0 1 45.16 60.83)">11</text><text transform="matrix(1 0 0 1 67.62 58.72)">12</text><text transform="matrix(1 0 0 1 49.99 88.08)">13</text><text transform="matrix(1 0 0 1 77.50 70.50)">14</text></g></svg>