<svg xmlns="http://www.w3.org/2000/svg" width="109" height="109" viewBox="0 0 109 109"><g id="kvg:StrokePaths_06f14" style="fill:none;stroke:#000000;stroke-width:3;stroke-linecap:round;stroke-linejoin:round;"><g id="kvg:06f14" kvg:element="演"><g id="kvg:06f14-g1" kvg:element="氵" kvg:variant="true" kvg:original="水" kvg:position="left" kvg:radical="general"><path id="kvg:06f14-s1" kvg:type="㇔" d="M19.38 17c3.48 1.34 9 5.51 9.87 7.59"/><path id="kvg:06f14-s2" kvg:type="㇔" d="M14.25 40c3.79 1.23 8.25 4 11.25 7.75"/><path id="kvg:06f14-s3" kvg:type="㇀" d="M12.54 88.82c1.28.49 2.56.22 3.33-.98 2.97-4.67 5.93-10.38 8.63-16.34"/></g><g id="kvg:06f14-g2" kvg:element="寅" kvg:position="right" kvg:phon="寅"><g id="kvg:06f14-g3" kvg:element="宀" kvg:position="top"><path id="kvg:06f14-s4" kvg:type="㇑a" d="M63.11 12.5c.95.95 1.24 2.5 1.24 3.96.0 3.46-.08 4.14-.08 7.29"/><g id="kvg:06f14-g4" kvg:element="冖"><path id="kvg:06f14-s5" kvg:type="㇔" d="M41.55 23.93c0 3.33-2.47 12.5-3.6 14.73"/><path id="kvg:06f14-s6" kvg:type="㇖b" d="M42.04 26.76c16.21-2.01 38.94-4.3 45.98-4.34 5.92-.03 2.2 4.65-1.67 7.73"/></g></g><g id="kvg:06f14-g5" kvg:position="bottom"><path id="kvg:06f14-s7" kvg:type="㇐" d="M49.57 36.57c1.68.3 3.53.08 5.17-.14C60.3 35.7 68.37 34.51 74 34c1.69-.15 3.19-.24 4.84.21"/><g id="kvg:06f14-g6" kvg:element="由"><g id="kvg:06f14-g7" kvg:element="日" kvg:part="1" kvg:partial="true"><path id="kvg:06f14-s8" kvg:type="㇑" d="M44 47.98c1.01 1.01 1.34 2.24 1.51 3.64.73 5.88 1.56 12.07 2.2 18.88.14 1.46.26 2.88.37 4.23"/><path id="kvg:06f14-s9" kvg:type="㇕a" d="M45.96 48.93c10.14-1.11 26.69-3.03 34.54-3.64 3.58-.28 5.44.96 4.98 4.72-.51 4.22-1.49 11.54-2.65 17.16-.39 1.89-.79 3.59-1.21 4.92"/></g><g id="kvg:06f14-g8" kvg:element="丨"><path id="kvg:06f14-s10" kvg:type="㇑a" d="M62.88 38.25C63.63 38.99 64 40 64 41.03c0 7.88.13 26.55.13 28.6"/></g><g id="kvg:06f14-g9" kvg:element="日" kvg:part="2" kvg:partial="true"><path id="kvg:06f14-s11" kvg:type="㇐a" d="M47.91 60.12c8.72-1 27.34-2.87 35.46-3.09"/><path id="kvg:06f14-s12" kvg:type="㇐a" d="M48.84 71.5c8.78-.88 22.92-2.05 32.37-2.18"/></g></g><g id="kvg:06f14-g10" kvg:element="八" kvg:variant="true"><g id="kvg:06f14-g11" kvg:position="left"><path id="kvg:06f14-s13" kvg:type="㇒" d="M54.21 80.06c.04.38-.04 1.29-.34 1.78-2.5 4.16-6.25 8.53-15.19 14.62"/></g><g id="kvg:06f14-g12" kvg:position="right"><path id="kvg:06f14-s14" kvg:type="㇔" d="M73.88 80.62c6.12 3.12 12.25 8.62 15.96 14.85"/></g></g></g></g></g></g></svg>