<svg xmlns="http://www.w3.org/2000/svg" width="109" height="109" viewBox="0 0 109 109"><g id="kvg:StrokePaths_06f32" style="fill:none;stroke:#000000;stroke-width:3;stroke-linecap:round;stroke-linejoin:round;"><g id="kvg:06f32" kvg:element="漲"><g id="kvg:06f32-g1" kvg:element="氵" kvg:variant="true" kvg:original="水" kvg:position="left" kvg:radical="general"><path id="kvg:06f32-s1" kvg:type="㇔" d="M15.88 18.5c4.19 1.78 10.82 7.32 11.87 10.09"/><path id="kvg:06f32-s2" kvg:type="㇔" d="M12.25 42.25c4.32 1.9 11.17 7.8 12.25 10.75"/><path id="kvg:06f32-s3" kvg:type="㇀" d="M10.75 88.23c1.71 1.27 3.78 1.32 4.86-.25 3.14-4.57 6.79-11.66 9.64-17.49"/></g><g id="kvg:06f32-g2" kvg:element="張" kvg:position="right"><g id="kvg:06f32-g3" kvg:element="弓" kvg:position="left"><path id="kvg:06f32-s4" kvg:type="㇕c" d="M33.16 20.83c1.34.42 3.27.79 4.1.54.68-.2 12.1-2.26 14-2.77 2.2-.6 3.45 1.34 2.78 3.38s-2.95 11.49-3.4 14.47"/><path id="kvg:06f32-s5" kvg:type="㇐" d="M38.75 38.75c1.75.0 9-1.5 10.25-1.5s2.5-.5 3.5-.5"/><path id="kvg:06f32-s6" kvg:type="㇉" d="M37.7 36.87c.39.96.3 2.87.05 4.38-.29 1.73-2.85 12.05-3.37 12.83-1.13 1.67-.1 3.56 2.44 3.05 4.44-.88 8.9-1.53 11.87-2.18 2.07-.45 2.57 1.7 2.42 3.42C50.33 67.21 48.5 82 43.16 90.76c-2.97 4.87-5.91 2.24-7.57-1.16"/></g><g id="kvg:06f32-g4" kvg:element="長" kvg:position="right"><path id="kvg:06f32-s7" kvg:type="㇑a" d="M63.42 17.75c.84 1.5.84 1.75.84 3.25s.28 30 .28 32.25"/><path id="kvg:06f32-s8" kvg:type="㇐b" d="M64.65 18.55c8.37-.2 20.33-2.84 22.18-2.84 1.46.0.54.0 2.23.0"/><path id="kvg:06f32-s9" kvg:type="㇐b" d="M64.68 29.61c6.48-.19 16.26-2.25 17.7-2.25 1.13.0 1.56-.19 2.5.0"/><path id="kvg:06f32-s10" kvg:type="㇐b" d="M65.39 40.84c7.34-.2 14.97-1.83 17.68-2.23 1.27-.19 2.09-.2 3.51-.2"/><path id="kvg:06f32-s11" kvg:type="㇐" d="M55.9 53.31c.84.25 2.39.29 3.24.25 8.79-.41 24.97-2.52 33.24-3.08 1.4-.09 2.25.12 2.96.24"/><path id="kvg:06f32-s12" kvg:type="㇙" d="M63.49 56.5c.76 1.71.71 2.45.71 4.89.0 11.56-.23 28.14-.23 30.09.0 1.96 1.53 2.29 2.9 1.1 2.39-2.09 8.13-8.11 9.55-9.58"/><path id="kvg:06f32-s13" kvg:type="㇒" d="M89.57 57.75c.03.25.28 1.22.12 1.55-.98 2.08-4.05 5.06-9.06 9.2"/><path id="kvg:06f32-s14" kvg:type="㇏" d="M70.16 60.25C74 61 88.68 85.97 93.91 89.69c1.25.89 2 1.29 3.34 1.81"/></g></g></g></g></svg>