<!DOCTYPE svg PUBLIC "-//W3C//DTD SVG 1.0//EN" "http://www.w3.org/TR/2001/REC-SVG-20010904/DTD/svg10.dtd" [
<!ATTLIST g
xmlns:kvg CDATA #FIXED "http://kanjivg.tagaini.net"
kvg:element CDATA #IMPLIED
kvg:variant CDATA #IMPLIED
kvg:partial CDATA #IMPLIED
kvg:original CDATA #IMPLIED
kvg:part CDATA #IMPLIED
kvg:number CDATA #IMPLIED
kvg:tradForm CDATA #IMPLIED
kvg:radicalForm CDATA #IMPLIED
kvg:position CDATA #IMPLIED
kvg:radical CDATA #IMPLIED
kvg:phon CDATA #IMPLIED >
<!ATTLIST path
xmlns:kvg CDATA #FIXED "http://kanjivg.tagaini.net"
kvg:type CDATA #IMPLIED >
]><svg xmlns="http://www.w3.org/2000/svg" width="109" height="109" viewBox="0 0 109 109"><g id="kvg:StrokePaths_06f3f" style="fill:none;stroke:#000000;stroke-width:3;stroke-linecap:round;stroke-linejoin:round;"><g id="kvg:06f3f" kvg:element="漿"><g id="kvg:06f3f-g1" kvg:element="將" kvg:position="top"><g id="kvg:06f3f-g2" kvg:element="爿" kvg:position="left"><path id="kvg:06f3f-s1" kvg:type="㇑" d="M34.82 13.07c1.16.85 1.91 2.31 1.91 3.32.0 9.63-.04 43.96-.04 47.23"/><path id="kvg:06f3f-s2" kvg:type="㇄" d="M17.27 17.37c1.54.45 2.13.98 2.26 2.47.2 2.23-.83 8.3-1.31 10.65-.15.75.28 1.91 2.57 1.74 4.09-.3 11.99-1.34 15.43-1.62"/><path id="kvg:06f3f-s3" kvg:type="㇐" d="M14.05 44.96c1.24.17 1.5.65 2.95.54 6.21-.49 14.63-2.8 18.97-3.07"/><path id="kvg:06f3f-s4" kvg:type="㇒" d="M23.43 46.95c.02.41.38 1.06.33 1.66-.51 5.14-2.51 9.89-7.04 15.86"/></g><g id="kvg:06f3f-g3" kvg:position="right"><g id="kvg:06f3f-g4" kvg:element="月" kvg:variant="true" kvg:position="top"><path id="kvg:06f3f-s5" kvg:type="㇒" d="M65.99 7.75c.26 1.25.14 2.15-.54 3.01-3.4 4.26-9.91 10.88-19.83 14.68"/><path id="kvg:06f3f-s6" kvg:type="㇇" d="M64.06 15.08c1.26.28 2.23.47 4.06.35 5.64-.38 9.05-1.4 11.92-1.87 2.3-.38 2.69 1.47 1.59 2.8-6.05 7.31-16.13 14.64-37.51 21"/><path id="kvg:06f3f-s7" kvg:type="㇔" d="M59.93 20.38c.76.37 3.81 2.57 5.33 4.78"/><path id="kvg:06f3f-s8" kvg:type="㇔" d="M52.58 25.48c.92.68 3.69 3.55 4.46 5.07"/></g><g id="kvg:06f3f-g5" kvg:element="寸" kvg:position="bottom"><path id="kvg:06f3f-s9" kvg:type="㇐" d="M42.51 41.54c1.23.39 3.46.43 4.7.39 13.58-.47 28.92-3.38 43.88-3.97 2.04-.08 3.27.18 4.29.38"/><path id="kvg:06f3f-s10" kvg:type="㇚" d="M78.69 27.95c.06.19.93.98.93 2.17.0 8.01-.19 23.56-.19 25.51.0 4.72-2.18 4.12-6.18-.4"/><path id="kvg:06f3f-s11" kvg:type="㇔" d="M53.38 46.92c2.88 1.54 7.45 6.31 8.17 8.7"/></g></g></g><g id="kvg:06f3f-g6" kvg:element="水" kvg:position="bottom" kvg:radical="general"><path id="kvg:06f3f-s12" kvg:type="㇚" d="M53.77 60.08c.98.47 1.67 1.28 1.76 2.85.4 7.51-.26 29.82-.26 32.37.0 6.7-4.77 1.45-6.52-.63"/><path id="kvg:06f3f-s13" kvg:type="㇇" d="M22 74.15c1.5.13 3.25.52 4.75.26s14.34-3.19 16.84-3.71 2.98 1.39 2.25 2.55C41 81 29.5 92.75 16.5 96.61"/><path id="kvg:06f3f-s14" kvg:type="㇒" d="M77.23 66.23c.06.27-.12 1.06-.34 1.41-2.11 3.35-6.58 7.48-10.39 9.23"/><path id="kvg:06f3f-s15" kvg:type="㇏" d="M57 72.53C66 80 78 89 88.19 94.13c1.91.96 3.78 1.35 5.56 1.65"/></g></g></g><g id="kvg:StrokeNumbers_06f3f" style="font-size:8;fill:#808080"><text transform="matrix(1 0 0 1 27.50 12.50)">1</text><text transform="matrix(1 0 0 1 9.75 17.50)">2</text><text transform="matrix(1 0 0 1 6.50 45.50)">3</text><text transform="matrix(1 0 0 1 15.50 54.50)">4</text><text transform="matrix(1 0 0 1 58.50 9.50)">5</text><text transform="matrix(1 0 0 1 71.50 11.50)">6</text><text transform="matrix(1 0 0 1 66.50 22.43)">7</text><text transform="matrix(1 0 0 1 56.50 27.85)">8</text><text transform="matrix(1 0 0 1 58.50 38.50)">9</text><text transform="matrix(1 0 0 1 69.25 33.50)">10</text><text transform="matrix(1 0 0 1 44.50 51.50)">11</text><text transform="matrix(1 0 0 1 42.50 61.50)">12</text><text transform="matrix(1 0 0 1 11.50 75.50)">13</text><text transform="matrix(1 0 0 1 64.50 66.50)">14</text><text transform="matrix(1 0 0 1 59.50 88.50)">15</text></g></svg>