<svg xmlns="http://www.w3.org/2000/svg" width="109" height="109" viewBox="0 0 109 109"><g id="kvg:StrokePaths_06f66"><g id="kvg:06f66" kvg:element="潦"><g id="kvg:06f66-g1" kvg:element="氵" kvg:variant="true" kvg:original="水" kvg:position="left" kvg:radical="general"><path id="kvg:06f66-s1" kvg:type="㇔" d="M19.88 16.5c3.84 1.6 9.91 6.6 10.87 9.09"/><path id="kvg:06f66-s2" kvg:type="㇔" d="M15 42.25c4.24 1.54 10.94 6.35 12 8.75"/><path id="kvg:06f66-s3" kvg:type="㇀" d="M13.75 87.73c1.71 1.27 3.78 1.32 4.86-.25 3.14-4.57 7.29-11.66 10.14-17.49"/></g><g id="kvg:06f66-g2" kvg:element="尞" kvg:position="right"><g id="kvg:06f66-g3" kvg:element="大"><path id="kvg:06f66-s4" kvg:type="㇐" d="M40.98 24.92c.9.32 3.28.69 5.18.55 12.85-.95 29.19-3.18 40.72-3.64 1.98-.08 3.58-.04 5.37.21"/><path id="kvg:06f66-s5" kvg:type="㇒" d="M65 11.25c.4.59.49 1.77.15 3.01C60.75 30 54.25 43.5 38.25 54.01"/><path id="kvg:06f66-s6" kvg:type="㇏" d="M64.18 23.67c6.89 5.85 22.97 20.76 29.85 24.67 2.34 1.33 3.15 1.53 4.22 1.66"/></g><path id="kvg:06f66-s7" kvg:type="㇔" d="M42.52 33.33c2.4 1.13 6.19 4.63 6.79 6.38"/><path id="kvg:06f66-s8" kvg:type="㇒" d="M88.28 28.14c.02.21.04.55-.04.86-.53 1.81-3.55 5.78-7.68 8.22"/><g id="kvg:06f66-g4" kvg:element="日"><path id="kvg:06f66-s9" kvg:type="㇑" d="M49.74 48.45c.23.35.23.59.36 1.03 1.04 3.63 2.47 12.79 3.11 19.55"/><path id="kvg:06f66-s10" kvg:type="㇕a" d="M50.82 49.37c8.02-.91 22.23-2.4 28.23-3.17 2.2-.28 3.83 1.71 3.71 2.71-.41 3.66-2.4 12.11-3.4 18.22"/><path id="kvg:06f66-s11" kvg:type="㇐a" d="M52.31 58.31c2.61-.36 26.57-2.47 28.73-2.62"/><path id="kvg:06f66-s12" kvg:type="㇐a" d="M53.63 67.6c5.78-.39 17.74-1.58 25.72-2.21"/></g><g id="kvg:06f66-g5" kvg:element="小"><path id="kvg:06f66-s13" kvg:type="㇚" d="M66.36 70.37c.07.39.95 2.02 1.02 4.48.33 11.82-.21 14.38-.21 18.41.0 9.14-5.85 1.22-7.07.2"/><path id="kvg:06f66-s14" kvg:type="㇒" d="M49.46 76.18c.04.38.08.99-.07 1.54-.9 3.26-6.07 10.4-13.13 14.78"/><path id="kvg:06f66-s15" kvg:type="㇔" d="M79.71 76.12c4.78 2.67 12.35 10.98 13.54 15.13"/></g></g></g></g></svg>