<svg xmlns="http://www.w3.org/2000/svg" width="109" height="109" viewBox="0 0 109 109"><g id="kvg:StrokePaths_06f6f"><g id="kvg:06f6f" kvg:element="潯"><g id="kvg:06f6f-g1" kvg:element="氵" kvg:variant="true" kvg:original="水" kvg:position="left" kvg:radical="general"><path id="kvg:06f6f-s1" kvg:type="㇔" d="M18.38 16c4.01 1.6 10.36 6.6 11.37 9.09"/><path id="kvg:06f6f-s2" kvg:type="㇔" d="M15 42.25c4.06 1.54 10.48 6.35 11.5 8.75"/><path id="kvg:06f6f-s3" kvg:type="㇀" d="M13.25 88.73c1.71 1.27 3.78 1.32 4.86-.25 3.14-4.57 7.29-13.66 10.14-19.49"/></g><g id="kvg:06f6f-g2" kvg:element="尋" kvg:position="right"><g id="kvg:06f6f-g3" kvg:position="top"><g id="kvg:06f6f-g4" kvg:element="⺕" kvg:variant="true" kvg:original="彑" kvg:position="top"><path id="kvg:06f6f-s4" kvg:type="㇕" d="M46.17 15.84c1.94.21 2.86.57 4.64.43 10.84-.85 21.45-2.52 28.96-3.27 2.5-.25 3.8 1.56 3.42 3.69-1.01 5.57-1.74 6.8-3.1 16.39"/><path id="kvg:06f6f-s5" kvg:type="㇐" d="M37.85 25.52c2.02.17 3.59.53 5.82.34 15.58-1.36 32.13-3.3 46.08-3.98 2.32-.11 4.49-.38 6.89.25"/><path id="kvg:06f6f-s6" kvg:type="㇐c" d="M44.61 35c.97.13 2.71.46 3.87.39 10.64-.65 20.34-2.19 30.02-2.45 1.55-.04 2.52.0 3.68.13"/></g><g id="kvg:06f6f-g5" kvg:position="bottom"><g id="kvg:06f6f-g6" kvg:element="工" kvg:position="left"><path id="kvg:06f6f-s7" kvg:type="㇐" d="M38.28 44.81c.54.18 1.61.21 2.16.17 3.46-.31 13.05-1.83 16.9-2.12.9-.07 1.88-.08 2.34.0"/><path id="kvg:06f6f-s8" kvg:type="㇑a" d="M48.19 45c.9.31 1.62 1.39 1.62 2.03.0 4.52.03 4.78.03 11.48"/><path id="kvg:06f6f-s9" kvg:type="㇐" d="M38.44 61.94c.57.56 1.72.86 3.44.12 4.78-2.05 13.37-5.7 18.15-7.74"/></g><g id="kvg:06f6f-g7" kvg:element="口" kvg:position="right"><path id="kvg:06f6f-s10" kvg:type="㇑" d="M65.19 40.84c.43.29.87.54 1.05.9 1.48 2.9 2.24 10.3 3.25 15.51"/><path id="kvg:06f6f-s11" kvg:type="㇕b" d="M66.6 42.97c7.76-1.58 17.21-2.83 21.66-3.23 1.62-.15 2.6.86 2.37 1.72-.96 3.54-2.09 7.33-3.52 12.23"/><path id="kvg:06f6f-s12" kvg:type="㇐b" d="M69.69 55.09c5.22-.37 12.87-1 20.04-1.56"/></g></g></g><g id="kvg:06f6f-g8" kvg:element="寸" kvg:position="bottom"><path id="kvg:06f6f-s13" kvg:type="㇐" d="M34.63 71.48c1.84.78 5.2.88 7.08.78C64 71 69.64 68.94 92.17 67.76c3.07-.16 4.92.37 6.46.76"/><path id="kvg:06f6f-s14" kvg:type="㇚" d="M77.85 60.32c.07.42 1.01 2.2 1.01 4.89.0 18.07-.2 23.18-.2 27.57.0 10.66-6.69 1.58-8.45.22"/><path id="kvg:06f6f-s15" kvg:type="㇔" d="M51.12 77.62c2.45 1.89 6.33 7.76 6.95 10.7"/></g></g></g></g></svg>