<!DOCTYPE svg PUBLIC "-//W3C//DTD SVG 1.0//EN" "http://www.w3.org/TR/2001/REC-SVG-20010904/DTD/svg10.dtd" [
<!ATTLIST g
xmlns:kvg CDATA #FIXED "http://kanjivg.tagaini.net"
kvg:element CDATA #IMPLIED
kvg:variant CDATA #IMPLIED
kvg:partial CDATA #IMPLIED
kvg:original CDATA #IMPLIED
kvg:part CDATA #IMPLIED
kvg:number CDATA #IMPLIED
kvg:tradForm CDATA #IMPLIED
kvg:radicalForm CDATA #IMPLIED
kvg:position CDATA #IMPLIED
kvg:radical CDATA #IMPLIED
kvg:phon CDATA #IMPLIED >
<!ATTLIST path
xmlns:kvg CDATA #FIXED "http://kanjivg.tagaini.net"
kvg:type CDATA #IMPLIED >
]><svg xmlns="http://www.w3.org/2000/svg" width="109" height="109" viewBox="0 0 109 109"><g id="kvg:StrokePaths_06f70" style="fill:none;stroke:#000000;stroke-width:3;stroke-linecap:round;stroke-linejoin:round;"><g id="kvg:06f70" kvg:element="潰"><g id="kvg:06f70-g1" kvg:element="氵" kvg:variant="true" kvg:original="水" kvg:position="left" kvg:radical="general"><path id="kvg:06f70-s1" kvg:type="㇔" d="M21.38 17.25c4.01 1.65 10.36 6.78 11.37 9.34"/><path id="kvg:06f70-s2" kvg:type="㇔" d="M15.25 44.25C19.04 45.79 25.05 50.6 26 53"/><path id="kvg:06f70-s3" kvg:type="㇀" d="M17.75 88.71c1.5 1.31 3.31 1.36 4.25-.25C24.75 83.75 27.5 78 30 72"/></g><g id="kvg:06f70-g2" kvg:element="貴" kvg:position="right"><g id="kvg:06f70-g3" kvg:position="top"><g id="kvg:06f70-g4" kvg:element="中"><g id="kvg:06f70-g5" kvg:element="口"><path id="kvg:06f70-s4" kvg:type="㇑" d="M44.34 21.17c.34.19 1.01.62 1.11 1.08.77 3.34 1.19 7.07 2.27 13.39"/><path id="kvg:06f70-s5" kvg:type="㇕b" d="M45.74 22.74c10.26-1.49 30.37-3.63 36.6-3.89 2.43-.1 3.24.9 2.97 3.46-.26 2.45-.76 3.48-2.37 8.94"/><path id="kvg:06f70-s6" kvg:type="㇐b" d="M47.69 33.93c6.93-.67 27.68-2.17 37.37-2.8"/></g><g id="kvg:06f70-g6" kvg:element="丨"><path id="kvg:06f70-s7" kvg:type="㇑a" d="M63.55 10c.96.51 1.73 2.26 1.73 3.31.0 9.69.0 22.08-.19 28.44"/></g></g><path id="kvg:06f70-s8" kvg:type="㇐" d="M36.5 43.2c1.17.54 3.31.62 4.48.54 11.27-.74 36.3-3.24 50.68-3.73 1.95-.07 3.12.26 4.09.53"/></g><g id="kvg:06f70-g7" kvg:element="貝" kvg:position="bottom"><g id="kvg:06f70-g8" kvg:element="目" kvg:position="top"><path id="kvg:06f70-s9" kvg:type="㇑" d="M47.76 51.05c.57.84.97 3.13.97 4.25s.05 31.31.05 31.87"/><path id="kvg:06f70-s10" kvg:type="㇕a" d="M49.25 52.56c7.75-.81 28.3-3.66 31.24-3.83 2.45-.14 3.85.64 3.32 3.49-.61 3.21-.71 31.89-.71 32.73"/><path id="kvg:06f70-s11" kvg:type="㇐a" d="M49.06 62.76c5.88-.81 28.39-2.94 33.57-2.94"/><path id="kvg:06f70-s12" kvg:type="㇐a" d="M49.33 73c8.17-.75 24.62-2.29 32.93-2.29"/><path id="kvg:06f70-s13" kvg:type="㇐a" d="M49.5 84.2c6.42.0 25.28-2.29 33.59-2.29"/></g><g id="kvg:06f70-g9" kvg:element="八" kvg:position="bottom"><path id="kvg:06f70-s14" kvg:type="㇒" d="M57.63 87.02c.5 1.04-.01 2.33-1 3.09-2.98 2.3-11.16 6.93-17.12 9.64"/><path id="kvg:06f70-s15" kvg:type="㇔" d="M71.67 87.21c7.4 3.06 16.14 8.61 18.16 11.29"/></g></g></g></g></g><g id="kvg:StrokeNumbers_06f70" style="font-size:8;fill:#808080"><text transform="matrix(1 0 0 1 14.50 16.38)">1</text><text transform="matrix(1 0 0 1 6.50 43.50)">2</text><text transform="matrix(1 0 0 1 9.50 92.50)">3</text><text transform="matrix(1 0 0 1 38.25 28.50)">4</text><text transform="matrix(1 0 0 1 46.50 18.50)">5</text><text transform="matrix(1 0 0 1 50.50 30.50)">6</text><text transform="matrix(1 0 0 1 55.50 9.50)">7</text><text transform="matrix(1 0 0 1 35.50 39.50)">8</text><text transform="matrix(1 0 0 1 39.00 61.03)">9</text><text transform="matrix(1 0 0 1 50.50 49.45)">10</text><text transform="matrix(1 0 0 1 52.50 59.38)">11</text><text transform="matrix(1 0 0 1 52.50 70.50)">12</text><text transform="matrix(1 0 0 1 52.50 81.50)">13</text><text transform="matrix(1 0 0 1 41.50 92.50)">14</text><text transform="matrix(1 0 0 1 66.50 95.50)">15</text></g></svg>