<!DOCTYPE svg PUBLIC "-//W3C//DTD SVG 1.0//EN" "http://www.w3.org/TR/2001/REC-SVG-20010904/DTD/svg10.dtd" [
<!ATTLIST g
xmlns:kvg CDATA #FIXED "http://kanjivg.tagaini.net"
kvg:element CDATA #IMPLIED
kvg:variant CDATA #IMPLIED
kvg:partial CDATA #IMPLIED
kvg:original CDATA #IMPLIED
kvg:part CDATA #IMPLIED
kvg:number CDATA #IMPLIED
kvg:tradForm CDATA #IMPLIED
kvg:radicalForm CDATA #IMPLIED
kvg:position CDATA #IMPLIED
kvg:radical CDATA #IMPLIED
kvg:phon CDATA #IMPLIED >
<!ATTLIST path
xmlns:kvg CDATA #FIXED "http://kanjivg.tagaini.net"
kvg:type CDATA #IMPLIED >
]><svg xmlns="http://www.w3.org/2000/svg" width="109" height="109" viewBox="0 0 109 109"><g id="kvg:StrokePaths_06f7a" style="fill:none;stroke:#000000;stroke-width:3;stroke-linecap:round;stroke-linejoin:round;"><g id="kvg:06f7a" kvg:element="潺"><g id="kvg:06f7a-g1" kvg:element="氵" kvg:variant="true" kvg:original="水" kvg:position="left" kvg:radical="general"><path id="kvg:06f7a-s1" kvg:type="㇔" d="M19.88 16.5c3.84 1.6 9.91 6.6 10.87 9.09"/><path id="kvg:06f7a-s2" kvg:type="㇔" d="M15 41.75c4.41 1.72 11.4 7.07 12.5 9.75"/><path id="kvg:06f7a-s3" kvg:type="㇀" d="M13.75 87.23c1.71 1.27 3.78 1.32 4.86-.25 3.14-4.57 7.79-13.16 10.64-18.99"/></g><g id="kvg:06f7a-g2" kvg:element="孱" kvg:position="right"><g id="kvg:06f7a-g3" kvg:element="尸" kvg:position="tare"><path id="kvg:06f7a-s4" kvg:type="㇕c" d="M42.13 16.25c1.63.7 3.52.84 5.25.7 9.35-.78 33.36-2.47 37.09-3.06 2.46-.38 4.09 1.06 3.67 3.83-.54 3.48-1.7 4.46-2.45 8.62"/><path id="kvg:06f7a-s5" kvg:type="㇐b" d="M46.58 30.25c4.69-.23 35.65-3.44 40.54-3.68"/><path id="kvg:06f7a-s6" kvg:type="㇒" d="M45.89 17.87c0 3.68-.23 14.37-.59 17.8-2.04 19.46-3.53 34.87-13.55 48.84"/></g><g id="kvg:06f7a-g4" kvg:position="tarec"><g id="kvg:06f7a-g5" kvg:element="子" kvg:position="top"><path id="kvg:06f7a-s7" kvg:type="㇖" d="M54.84 36.95c.76.17 2.21.44 3.36.29 1.4-.18 18.79-2.26 20.12-2.26s2.78.51 1.45 1.53-7.82 6.04-11.2 7.88"/><path id="kvg:06f7a-s8" kvg:type="㇁" d="M66.83 44.46c3.2 1.24 6.86 9.3 3.61 18.4-1.39 3.91-3.69 1.64-5.22-.59"/><path id="kvg:06f7a-s9" kvg:type="㇐" d="M49.68 50.65c.71.43 2.54.58 3.82.47 4.46-.37 29.98-3.96 35.37-3.58 1.27.09 2.4.14 3.25.57"/></g><g id="kvg:06f7a-g6" kvg:position="bottom"><g id="kvg:06f7a-g7" kvg:element="子" kvg:variant="true" kvg:position="left"><path id="kvg:06f7a-s10" kvg:type="㇖" d="M44.08 66.68c.52.16 1.49.42 2.27.27.95-.17 12.73-2.13 13.64-2.13.91.0 1.89.48.98 1.44-.9.96-5.3 5.71-7.59 7.46"/><path id="kvg:06f7a-s11" kvg:type="㇁" d="M51.9 73.85c4.35 5.15 6.6 12.65 3.3 19.09-2.83 5.52-5.19 2.81-6.09.43"/><path id="kvg:06f7a-s12" kvg:type="㇀/㇐" d="M42.19 83.78c.48 1.48 2.15 1.03 3.02.66 3.03-1.28 18.29-9.32 22.77-11.1"/></g><g id="kvg:06f7a-g8" kvg:element="子" kvg:position="right"><path id="kvg:06f7a-s13" kvg:type="㇖" d="M74.57 63.62c.55.18 2.59.47 3.42.31C79.01 63.73 89.57 62 90.53 62c.96.0 2.01.55 1.05 1.64-.96 1.1-5.65 6.5-8.09 8.49"/><path id="kvg:06f7a-s14" kvg:type="㇁" d="M81.44 71.86c3 1.49 6.81 12.14 3.45 20.8-2.37 6.1-4.89 4.34-7.4.5"/><path id="kvg:06f7a-s15" kvg:type="㇐" d="M68.66 80.65c.69.55 2.48.74 3.72.6 4.34-.48 20.21-2.93 25.45-2.45 1.24.11 2.34.18 3.17.73"/></g></g></g></g></g></g><g id="kvg:StrokeNumbers_06f7a" style="font-size:8;fill:#808080"><text transform="matrix(1 0 0 1 13.50 16.50)">1</text><text transform="matrix(1 0 0 1 7.50 42.50)">2</text><text transform="matrix(1 0 0 1 6.50 89.50)">3</text><text transform="matrix(1 0 0 1 46.50 13.50)">4</text><text transform="matrix(1 0 0 1 50.50 26.50)">5</text><text transform="matrix(1 0 0 1 38.50 25.50)">6</text><text transform="matrix(1 0 0 1 49.50 37.50)">7</text><text transform="matrix(1 0 0 1 60.50 45.50)">8</text><text transform="matrix(1 0 0 1 48.50 48.50)">9</text><text transform="matrix(1 0 0 1 45.25 63.20)">10</text><text transform="matrix(1 0 0 1 44.00 76.50)">11</text><text transform="matrix(1 0 0 1 37.50 80.55)">12</text><text transform="matrix(1 0 0 1 75.50 61.50)">13</text><text transform="matrix(1 0 0 1 73.50 73.50)">14</text><text transform="matrix(1 0 0 1 68.50 78.50)">15</text></g></svg>