<svg xmlns="http://www.w3.org/2000/svg" width="109" height="109" viewBox="0 0 109 109"><g id="kvg:StrokePaths_06f74" style="fill:none;stroke:#000000;stroke-width:3;stroke-linecap:round;stroke-linejoin:round;"><g id="kvg:06f74" kvg:element="潴"><g id="kvg:06f74-g1" kvg:element="氵" kvg:variant="true" kvg:original="水" kvg:position="left" kvg:radical="general"><path id="kvg:06f74-s1" kvg:type="㇔" d="M14.63 17.75c3.57 1.38 9.22 5.69 10.12 7.84"/><path id="kvg:06f74-s2" kvg:type="㇔" d="M12 45c3.71 1.32 9.57 5.44 10.5 7.5"/><path id="kvg:06f74-s3" kvg:type="㇀" d="M12.25 89.33c1.29 1.14 3.33.69 4.14-.72 2.36-4.1 6.21-14.62 8.36-19.86"/></g><g id="kvg:06f74-g2" kvg:element="猪" kvg:variant="true" kvg:position="right"><g id="kvg:06f74-g3" kvg:element="⺨" kvg:variant="true" kvg:original="犬" kvg:position="left"><path id="kvg:06f74-s4" kvg:type="㇒" d="M53.05 15.75c.06.63.29 1.83-.13 2.51C47.54 26.88 42.07 32.97 29 42.29"/><path id="kvg:06f74-s5" kvg:type="㇁" d="M33 19.75c25.5 22.5 17 85.75 3.25 70"/><path id="kvg:06f74-s6" kvg:type="㇒" d="M43.85 44c.04.75.18 2.2-.08 3.01-3.38 10.32-6.02 18.24-15.02 28.79"/></g><g id="kvg:06f74-g4" kvg:element="者" kvg:variant="true" kvg:position="right"><g id="kvg:06f74-g5" kvg:element="耂" kvg:original="老" kvg:partial="true"><g id="kvg:06f74-g6" kvg:element="土"><path id="kvg:06f74-s7" kvg:type="㇐" d="M56.49 31.5c.87.28 2.45.32 3.33.28 9.86-.45 10.92-1.56 20.65-1.75 1.45-.03 2.31.13 3.04.27"/><path id="kvg:06f74-s8" kvg:type="㇑a" d="M70.52 13.62c.08.29 1.15 1.49 1.23 3.3.39 8.7.21 26.3.21 29.26"/><path id="kvg:06f74-s9" kvg:type="㇐" d="M52.44 47.87c1.24.26 3.15.48 4.26.39 6.19-.54 31.35-3.61 38.54-3.73 1.85-.03 2.96.18 3.89.38"/></g><path id="kvg:06f74-s10" kvg:type="㇒" d="M90.19 18.32c.1 1.12.07 2.62-.55 4.01C81.5 40.75 73.25 55.5 53.42 67.85"/></g><path id="kvg:06f74-s11" kvg:type="㇔" d="M80.74 49.75c2.27 1.1 5.87 4.53 6.44 6.25"/><g id="kvg:06f74-g7" kvg:element="日"><path id="kvg:06f74-s12" kvg:type="㇑" d="M65.84 62.15c.44 1.34.88 2 .88 3.79.0 1.78-.29 30.17-.29 31.07"/><path id="kvg:06f74-s13" kvg:type="㇕a" d="M66.52 63.26c1.57-.14 21.45-2.45 22.88-2.62 1.19-.14 1.96 1.57 1.87 2.41-.19 1.7-.28 20.54-.28 33.02"/><path id="kvg:06f74-s14" kvg:type="㇐a" d="M66.85 78.14C73.5 77.5 84 76.5 90.7 76.07"/><path id="kvg:06f74-s15" kvg:type="㇐a" d="M66.76 93.82c5.82.0 17.36-1.25 23.94-1.28"/></g></g></g></g></g></svg>