<svg xmlns="http://www.w3.org/2000/svg" width="109" height="109" viewBox="0 0 109 109"><g id="kvg:StrokePaths_06f97"><g id="kvg:06f97" kvg:element="澗"><g id="kvg:06f97-g1" kvg:element="氵" kvg:variant="true" kvg:original="水" kvg:position="left" kvg:radical="general"><path id="kvg:06f97-s1" kvg:type="㇔" d="M17.63 16.75c4.19 1.65 10.32 6.28 11.37 8.84"/><path id="kvg:06f97-s2" kvg:type="㇔" d="M15.25 43.75c3.79 1.54 9.8 6.35 10.75 8.75"/><path id="kvg:06f97-s3" kvg:type="㇀" d="M16.25 92.21c1.75.0 2.81-.64 3.75-2.25 2.75-4.7 5.5-10.45 8-16.45"/></g><g id="kvg:06f97-g2" kvg:element="間" kvg:position="right"><g id="kvg:06f97-g3" kvg:element="門" kvg:position="kamae"><g id="kvg:06f97-g4" kvg:position="left"><path id="kvg:06f97-s4" kvg:type="㇑" d="M36.39 19.41c.85.85 1.18 1.97 1.18 3.27.0.69.03 39.34.04 60.07.0 6.16.01 10.67.01 12.02"/><path id="kvg:06f97-s5" kvg:type="㇕a" d="M37.73 20.12c1.69-.08 12.07-1.89 16.4-2.53 2.41-.36 4.16.4 4.06 3.04-.13 3.46-.5 11.73-.75 17.38-.14 3.18-.24 5.53-.24 5.71"/><path id="kvg:06f97-s6" kvg:type="㇐a" d="M38.84 31.78c5.91-1.03 13.09-2.09 17.84-2.72"/><path id="kvg:06f97-s7" kvg:type="㇐a" d="M38.48 43.99c6.67-1.14 12.01-2.25 17.91-2.77"/></g><g id="kvg:06f97-g5" kvg:position="right"><path id="kvg:06f97-s8" kvg:type="㇑" d="M70.18 16.8c.34.53.69 1.65.69 2.36.0.7-.12 23 0 23.7"/><path id="kvg:06f97-s9" kvg:type="㇆a" d="M71.94 17.98c3.81-.84 13.69-2.8 17.44-3.33 2.45-.35 3.59 1.19 3.59 3.35.0 9-.1 61.64-.1 72.98.0 10.01-5.93 1.29-7.06.22"/><path id="kvg:06f97-s10" kvg:type="㇐a" d="M71.78 28.95c4.97-.7 14.22-1.82 19.72-2.41"/><path id="kvg:06f97-s11" kvg:type="㇐a" d="M71.69 41.19c5.91-.89 13.69-2.06 20.08-2.48"/></g></g><g id="kvg:06f97-g6" kvg:element="日"><path id="kvg:06f97-s12" kvg:type="㇑" d="M53.3 53.37c.6.6.9 1.61.9 2.61.0 2.69.0 17.56.0 25.52.0 2.46.0 4.26.0 4.84"/><path id="kvg:06f97-s13" kvg:type="㇕a" d="M54.74 54.72c1.61-.11 12.95-1.61 16.76-2.12 1.96-.27 3.26 1.09 3.19 3.03-.19 5.39-.12 28.78-.12 29.47"/><path id="kvg:06f97-s14" kvg:type="㇐a" d="M55.31 68.53c4.94-.78 12.69-1.9 18.26-2.21"/><path id="kvg:06f97-s15" kvg:type="㇐a" d="M55.49 84.26c5.26-.63 12.89-1.51 17.87-1.96"/></g></g></g></g></svg>