<!DOCTYPE svg PUBLIC "-//W3C//DTD SVG 1.0//EN" "http://www.w3.org/TR/2001/REC-SVG-20010904/DTD/svg10.dtd" [
<!ATTLIST g
xmlns:kvg CDATA #FIXED "http://kanjivg.tagaini.net"
kvg:element CDATA #IMPLIED
kvg:variant CDATA #IMPLIED
kvg:partial CDATA #IMPLIED
kvg:original CDATA #IMPLIED
kvg:part CDATA #IMPLIED
kvg:number CDATA #IMPLIED
kvg:tradForm CDATA #IMPLIED
kvg:radicalForm CDATA #IMPLIED
kvg:position CDATA #IMPLIED
kvg:radical CDATA #IMPLIED
kvg:phon CDATA #IMPLIED >
<!ATTLIST path
xmlns:kvg CDATA #FIXED "http://kanjivg.tagaini.net"
kvg:type CDATA #IMPLIED >
]><svg xmlns="http://www.w3.org/2000/svg" width="109" height="109" viewBox="0 0 109 109"><g id="kvg:StrokePaths_06fee" style="fill:none;stroke:#000000;stroke-width:3;stroke-linecap:round;stroke-linejoin:round;"><g id="kvg:06fee" kvg:element="濮"><g id="kvg:06fee-g1" kvg:element="氵" kvg:variant="true" kvg:original="水" kvg:position="left" kvg:radical="general"><path id="kvg:06fee-s1" kvg:type="㇔" d="M16.38 16.75c5.25 1.74 13.55 7.14 14.87 9.84"/><path id="kvg:06fee-s2" kvg:type="㇔" d="M12.5 42.5c4.77 1.41 12.31 5.8 13.5 8"/><path id="kvg:06fee-s3" kvg:type="㇀" d="M13.25 88.23c1.71 1.27 3.78 1.32 4.86-.25 3.14-4.57 6.29-10.16 9.14-15.99"/></g><g id="kvg:06fee-g2" kvg:element="僕" kvg:position="right"><g id="kvg:06fee-g3" kvg:element="亻" kvg:variant="true" kvg:original="人" kvg:position="left"><path id="kvg:06fee-s4" kvg:type="㇒" d="M48.18 15.71c.12 1.08.21 2.42-.11 3.74-2 8.35-9.71 24.5-19.01 35.82"/><path id="kvg:06fee-s5" kvg:type="㇑" d="M38.99 44.48c.51.61 1.16 1.95 1.16 3.2.0 12.92-.25 38.82-.25 47.5"/></g><g id="kvg:06fee-g4" kvg:element="菐" kvg:position="right"><g id="kvg:06fee-g5" kvg:element="业"><path id="kvg:06fee-s6" kvg:type="㇑" d="M63.18 15.29c1.1 1.43 1.75 2.82 1.87 3.95.45 4.26 1.28 11.16 1.66 15.53"/><path id="kvg:06fee-s7" kvg:type="㇑" d="M74.2 14.58c.8 1.46.96 2.33.96 3.5.0 1.17.2 12.3-.12 15.2"/><path id="kvg:06fee-s8" kvg:type="㇔" d="M54.03 23.13c1.64 1.36 4.23 5.59 4.64 7.71"/><path id="kvg:06fee-s9" kvg:type="㇒" d="M86.81 17.98c.02.34.04.87-.04 1.35-.44 2.85-2.94 9.1-6.36 12.93"/><path id="kvg:06fee-s10" kvg:type="㇐" d="M48.91 35.98c.82.34 2.31.35 3.13.34 4.46-.07 31.54-3.83 39.3-3.83 1.36.0 2.18.16 2.86.33"/></g><path id="kvg:06fee-s11" kvg:type="㇔" d="M60.96 38.25c1.64 1.44 4.25 5.91 4.66 8.15"/><path id="kvg:06fee-s12" kvg:type="㇒" d="M80.59 36.28c.02.24.04.63-.03.98-.43 2.06-2.91 6.58-6.3 9.35"/><g id="kvg:06fee-g6" kvg:element="三"><g id="kvg:06fee-g7" kvg:element="一" kvg:position="top"><path id="kvg:06fee-s13" kvg:type="㇐" d="M51.22 49.27c1.3.34 3.68.32 4.98.34 8.2.14 18.3-1.61 29.14-2.95 2.15-.27 3.47.16 4.55.33"/></g><g id="kvg:06fee-g8" kvg:position="bottom"><g id="kvg:06fee-g9" kvg:element="一"><path id="kvg:06fee-s14" kvg:type="㇐" d="M53.42 58.74c1.09.34 3.08.89 4.16.84 6.92-.33 16.17-1.58 26.3-2.49 1.8-.16 2.9.16 3.8.33"/></g><g id="kvg:06fee-g10" kvg:element="一"><path id="kvg:06fee-s15" kvg:type="㇐" d="M47.81 70.2c1.12.34 3.17.43 4.29.34 6.14-.48 26.87-2.99 37.49-2.99 1.86.0 2.98.16 3.91.33"/></g></g></g><g id="kvg:06fee-g11" kvg:element="人"><path id="kvg:06fee-s16" kvg:type="㇒" d="M68.27 50.01c.38.92.7 2.55.69 4.01-.11 13.87-3.82 33.8-20.25 40.9"/><path id="kvg:06fee-s17" kvg:type="㇏" d="M69.17 70.12c2.06 4 12.71 15.85 20.22 21.73 1.17.92 2.02 1.53 3.11 1.83"/></g></g></g></g></g><g id="kvg:StrokeNumbers_06fee" style="font-size:8;fill:#808080"><text transform="matrix(1 0 0 1 9.75 17.38)">1</text><text transform="matrix(1 0 0 1 4.50 43.50)">2</text><text transform="matrix(1 0 0 1 6.50 90.50)">3</text><text transform="matrix(1 0 0 1 39.50 15.50)">4</text><text transform="matrix(1 0 0 1 32.50 60.08)">5</text><text transform="matrix(1 0 0 1 58.50 12.50)">6</text><text transform="matrix(1 0 0 1 69.50 11.50)">7</text><text transform="matrix(1 0 0 1 53.50 20.50)">8</text><text transform="matrix(1 0 0 1 81.50 13.78)">9</text><text transform="matrix(1 0 0 1 47.25 33.50)">10</text><text transform="matrix(1 0 0 1 53.75 44.50)">11</text><text transform="matrix(1 0 0 1 69.25 42.55)">12</text><text transform="matrix(1 0 0 1 43.50 49.50)">13</text><text transform="matrix(1 0 0 1 43.50 59.50)">14</text><text transform="matrix(1 0 0 1 43.50 67.50)">15</text><text transform="matrix(1 0 0 1 59.25 56.50)">16</text><text transform="matrix(1 0 0 1 76.50 78.50)">17</text></g></svg>