<!DOCTYPE svg PUBLIC "-//W3C//DTD SVG 1.0//EN" "http://www.w3.org/TR/2001/REC-SVG-20010904/DTD/svg10.dtd" [
<!ATTLIST g
xmlns:kvg CDATA #FIXED "http://kanjivg.tagaini.net"
kvg:element CDATA #IMPLIED
kvg:variant CDATA #IMPLIED
kvg:partial CDATA #IMPLIED
kvg:original CDATA #IMPLIED
kvg:part CDATA #IMPLIED
kvg:number CDATA #IMPLIED
kvg:tradForm CDATA #IMPLIED
kvg:radicalForm CDATA #IMPLIED
kvg:position CDATA #IMPLIED
kvg:radical CDATA #IMPLIED
kvg:phon CDATA #IMPLIED >
<!ATTLIST path
xmlns:kvg CDATA #FIXED "http://kanjivg.tagaini.net"
kvg:type CDATA #IMPLIED >
]><svg xmlns="http://www.w3.org/2000/svg" width="109" height="109" viewBox="0 0 109 109"><g id="kvg:StrokePaths_06feb" style="fill:none;stroke:#000000;stroke-width:3;stroke-linecap:round;stroke-linejoin:round;"><g id="kvg:06feb" kvg:element="濫"><g id="kvg:06feb-g1" kvg:element="氵" kvg:variant="true" kvg:original="水" kvg:position="left" kvg:radical="general"><path id="kvg:06feb-s1" kvg:type="㇔" d="M17.88 14.75c3.48 1.52 9 6.23 9.87 8.59"/><path id="kvg:06feb-s2" kvg:type="㇔" d="M13.75 35.5c3.79 1.5 9.8 6.17 10.75 8.5"/><path id="kvg:06feb-s3" kvg:type="㇀" d="M12 86.48c1.62.39 2.62-.12 3.61-1.75 3.39-5.61 6.04-10.66 8.89-16.49"/></g><g id="kvg:06feb-g2" kvg:element="監" kvg:position="right" kvg:phon="監"><g id="kvg:06feb-g3" kvg:position="top"><g id="kvg:06feb-g4" kvg:element="臣" kvg:position="left"><path id="kvg:06feb-s4" kvg:type="㇑" d="M39.02 17.61c1.06 1.06 1.28 2.27 1.28 3.77.0 6.28-.06 25.32-.06 34.87.0 1.37.02 4.24.0 4.87"/><path id="kvg:06feb-s5" kvg:type="㇐b" d="M40.88 18.26c5.62-.63 14.58-1.85 21.09-2.13.99-.04 1.58-.1 2.07.06"/><path id="kvg:06feb-s6" kvg:type="㇑a" d="M52.74 19.3c.79.79.88 1.56.88 2.8.0 2.77-.08 5.14-.08 8.06"/><path id="kvg:06feb-s7" kvg:type="㇕b" d="M41.55 32.83c6.08-.8 12.68-1.81 17.33-2.44 2.92-.4 3.87.31 3.32 3.26-.46 2.49-1.04 5.41-1.47 8.25"/><path id="kvg:06feb-s8" kvg:type="㇐b" d="M41.58 45.03c2.23-.28 12.72-1.75 18.46-2.33 1.49-.15 2.62-.26 3.16-.3"/><path id="kvg:06feb-s9" kvg:type="㇑a" d="M52.78 45.46c.69.69.88 1.41.88 2.68.0 3.2.02 6.35-.04 8.74"/><path id="kvg:06feb-s10" kvg:type="㇐b" d="M41.6 59.2c5.77-.58 12.26-1.44 18.77-2.06 1.34-.13 3-.27 4.45-.15"/></g><g id="kvg:06feb-g5" kvg:position="right"><g id="kvg:06feb-g6" kvg:element="𠂉"><path id="kvg:06feb-s11" kvg:type="㇒" d="M77.6 17.25c.02.6.17 1.61-.05 2.41-1.63 5.88-4.59 14.46-8.8 22.59"/><path id="kvg:06feb-s12" kvg:type="㇐" d="M76.55 33.39c1.45.11 2.84.04 3.49-.08 5.45-.95 8.53-1.5 12.34-2.12 1.06-.17 2.74-.32 3.98-.18"/></g><path id="kvg:06feb-s13" kvg:type="㇐" d="M72.6 49.66c1.65.09 2.87.14 3.88.04 7.14-.7 12.84-1.4 14.37-1.61s2.91-.36 4.04-.03"/></g></g><g id="kvg:06feb-g7" kvg:element="皿" kvg:position="bottom"><path id="kvg:06feb-s14" kvg:type="㇑a" d="M39.87 70.62c.6.58 1.34 1.37 1.5 2.46.88 5.93 1.36 9.27 2.08 16.45"/><path id="kvg:06feb-s15" kvg:type="㇕b" d="M41.86 72.06c10.1-1.58 30.27-3.69 40.27-4.23 4.04-.22 5.89.42 5.02 5.05-.69 3.67-1.39 6.75-2.62 14.2"/><path id="kvg:06feb-s16" kvg:type="㇑a" d="M54.19 72.74c.25.38.54.68.61 1.16.7 4.85 1.04 7.92 1.65 14.7"/><path id="kvg:06feb-s17" kvg:type="㇑a" d="M69.53 70.27c.46.44.89 1.21.82 1.8-.73 5.87-1.03 8.43-1.92 15.95"/><path id="kvg:06feb-s18" kvg:type="㇐" d="M28.5 90.79c3.25 1.13 6.74.92 10.11.61 13.89-1.27 30.43-2.72 49.01-3.49 3.54-.15 7.53.16 10.98.84"/></g></g></g></g><g id="kvg:StrokeNumbers_06feb" style="font-size:8;fill:#808080"><text transform="matrix(1 0 0 1 12.50 14.88)">1</text><text transform="matrix(1 0 0 1 6.50 37.25)">2</text><text transform="matrix(1 0 0 1 5.00 91.23)">3</text><text transform="matrix(1 0 0 1 33.50 28.38)">4</text><text transform="matrix(1 0 0 1 39.50 14.88)">5</text><text transform="matrix(1 0 0 1 56.25 25.38)">6</text><text transform="matrix(1 0 0 1 43.25 29.80)">7</text><text transform="matrix(1 0 0 1 43.25 41.73)">8</text><text transform="matrix(1 0 0 1 56.25 52.15)">9</text><text transform="matrix(1 0 0 1 42.25 56.25)">10</text><text transform="matrix(1 0 0 1 70.25 13.38)">11</text><text transform="matrix(1 0 0 1 79.25 30.25)">12</text><text transform="matrix(1 0 0 1 70.25 47.25)">13</text><text transform="matrix(1 0 0 1 31.25 78.25)">14</text><text transform="matrix(1 0 0 1 41.00 68.25)">15</text><text transform="matrix(1 0 0 1 45.50 80.25)">16</text><text transform="matrix(1 0 0 1 61.25 78.25)">17</text><text transform="matrix(1 0 0 1 26.00 88.38)">18</text></g></svg>