<svg xmlns="http://www.w3.org/2000/svg" width="109" height="109" viewBox="0 0 109 109"><g id="kvg:StrokePaths_06ffe" style="fill:none;stroke:#000000;stroke-width:3;stroke-linecap:round;stroke-linejoin:round;"><g id="kvg:06ffe" kvg:element="濾"><g id="kvg:06ffe-g1" kvg:element="氵" kvg:variant="true" kvg:original="水" kvg:position="left" kvg:radical="general"><path id="kvg:06ffe-s1" kvg:type="㇔" d="M16.13 14.25c3.92 1.56 10.13 6.41 11.12 8.84"/><path id="kvg:06ffe-s2" kvg:type="㇔" d="M14 38c4.24 1.85 10.94 7.62 12 10.5"/><path id="kvg:06ffe-s3" kvg:type="㇀" d="M13.75 89.45c2.5 1.05 4.01.23 5.01-1.82 2.92-5.97 5.34-12.76 7.99-20.37"/></g><g id="kvg:06ffe-g2" kvg:element="慮" kvg:position="right"><g id="kvg:06ffe-g3" kvg:element="虍" kvg:position="tare"><path id="kvg:06ffe-s4" kvg:type="㇑a" d="M60.76 8.58c.84.82 1.5 1.77 1.5 4.47.0 5.25-.02 7.29-.02 11.7"/><path id="kvg:06ffe-s5" kvg:type="㇐b" d="M62.27 16.27c5.58-.77 13.09-1.77 18.74-2.38 1.86-.2 3.01.18 3.95.37"/><path id="kvg:06ffe-s6" kvg:type="㇒" d="M42.25 25.68c.5 1.32.72 3.48.69 5.04C42.25 62 38.11 77.93 27.5 91"/><path id="kvg:06ffe-s7" kvg:type="㇖a" d="M43.34 27.24c.95.19 2.65.42 4.2.28C59.25 26.5 79.65 23.5 89 23.34c9.86-.17 2.09 6.16-.37 8.28"/><g id="kvg:06ffe-g4" kvg:element="七"><g id="kvg:06ffe-g5" kvg:element="一"><path id="kvg:06ffe-s8" kvg:type="㇐" d="M49.15 36.6c.95.54 3.29.69 4.25.54 9.5-1.55 14.05-2.31 24.34-3.62 1.58-.2 2.54.26 3.33.53"/></g><path id="kvg:06ffe-s9" kvg:type="㇟a" d="M62.15 28.68c.52.34 1.2 1.67 1.2 2.14.0 3.76-.1 6.89-.1 8.57.0 4.99 2.87 4.61 10.28 4.61 2.76.0 9.46.0 11.83-.67"/></g></g><g id="kvg:06ffe-g6" kvg:element="思" kvg:position="tarec"><g id="kvg:06ffe-g7" kvg:element="田" kvg:position="top"><path id="kvg:06ffe-s10" kvg:type="㇑" d="M51.75 53.04c.26.3.26.5.4.87 1.15 3.03 2.18 12.91 2.86 18.48"/><path id="kvg:06ffe-s11" kvg:type="㇕a" d="M52.97 53.49c9.12-.31 24.95-1.98 31.76-2.27 2.5-.11 3.46.53 3.21 3.14-.43 4.46-2.05 10.79-3.39 15.8"/><path id="kvg:06ffe-s12" kvg:type="㇑a" d="M67.78 53.83c.72.67.96 1.12.95 2.17-.04 4.48.05 12.88.05 14.07"/><path id="kvg:06ffe-s13" kvg:type="㇐a" d="M54.87 61.61c2.97-.15 28.14-1.87 30.59-1.87"/><path id="kvg:06ffe-s14" kvg:type="㇐a" d="M56.02 71.37c7.09-.81 22.16-2.03 28.61-2.27"/></g><g id="kvg:06ffe-g8" kvg:element="心" kvg:position="bottom"><path id="kvg:06ffe-s15" kvg:type="㇔" d="M47.26 80.86c.23 1.83-2.33 9.89-4.2 12.94"/><path id="kvg:06ffe-s16" kvg:type="㇃" d="M53.22 77.88C59.75 88.75 67.5 96.5 86.19 97.22c6.06.23 6.31-2.47 1.83-5.63"/><path id="kvg:06ffe-s17" kvg:type="㇔a" d="M67.64 78.3c1.29 3.48 3.46 8.43 4.26 3.52"/><path id="kvg:06ffe-s18" kvg:type="㇔" d="M85.02 77.83c4.77 1.66 8.35 3.17 12.23 8.32"/></g></g></g></g></g></svg>