<!DOCTYPE svg PUBLIC "-//W3C//DTD SVG 1.0//EN" "http://www.w3.org/TR/2001/REC-SVG-20010904/DTD/svg10.dtd" [
<!ATTLIST g
xmlns:kvg CDATA #FIXED "http://kanjivg.tagaini.net"
kvg:element CDATA #IMPLIED
kvg:variant CDATA #IMPLIED
kvg:partial CDATA #IMPLIED
kvg:original CDATA #IMPLIED
kvg:part CDATA #IMPLIED
kvg:number CDATA #IMPLIED
kvg:tradForm CDATA #IMPLIED
kvg:radicalForm CDATA #IMPLIED
kvg:position CDATA #IMPLIED
kvg:radical CDATA #IMPLIED
kvg:phon CDATA #IMPLIED >
<!ATTLIST path
xmlns:kvg CDATA #FIXED "http://kanjivg.tagaini.net"
kvg:type CDATA #IMPLIED >
]><svg xmlns="http://www.w3.org/2000/svg" width="109" height="109" viewBox="0 0 109 109"><g id="kvg:StrokePaths_06ff6" style="fill:none;stroke:#000000;stroke-width:3;stroke-linecap:round;stroke-linejoin:round;"><g id="kvg:06ff6" kvg:element="濶"><g id="kvg:06ff6-g1" kvg:element="氵" kvg:variant="true" kvg:original="水" kvg:position="left" kvg:radical="general"><path id="kvg:06ff6-s1" kvg:type="㇔" d="M17.88 15.5c3.84 1.52 9.91 6.23 10.87 8.59"/><path id="kvg:06ff6-s2" kvg:type="㇔" d="M11.75 36.25c4.15 1.28 10.71 5.26 11.75 7.25"/><path id="kvg:06ff6-s3" kvg:type="㇀" d="M11.75 86.23c1.71 1.27 3.78 1.32 4.86-.25 3.14-4.57 6.79-13.16 9.64-18.99"/></g><g id="kvg:06ff6-g2" kvg:position="right"><g id="kvg:06ff6-g3" kvg:element="門" kvg:position="kamae"><g id="kvg:06ff6-g4" kvg:position="left"><path id="kvg:06ff6-s4" kvg:type="㇑" d="M37.39 16.81c.58.42 1.02 2.25 1.14 3.09s-.08 67.4-.19 72.65"/><path id="kvg:06ff6-s5" kvg:type="㇕a" d="M38.69 18.19c1.94-.09 15.22-2.48 16.98-2.6 1.47-.09 2.23.85 2.3 1.59.11 1.14-1.22 22.68-1.22 23.24"/><path id="kvg:06ff6-s6" kvg:type="㇐a" d="M39.03 28.71c4.76-.55 13.11-1.97 17.69-2.56"/><path id="kvg:06ff6-s7" kvg:type="㇐a" d="M38.69 40.46c6.45-1.07 11.34-1.88 17.04-2.38"/></g><g id="kvg:06ff6-g5" kvg:position="right"><path id="kvg:06ff6-s8" kvg:type="㇑" d="M70.48 15.4c.32.49.64 1.54.64 2.19s-.11 20.87.0 21.52"/><path id="kvg:06ff6-s9" kvg:type="㇆a" d="M71.19 16.73c1.81-.08 17.48-2.64 19.12-2.74 1.37-.08 2.66 1.39 2.65 1.89C92.6 30.93 92.6 78.91 92.6 89.82c0 10.93-6.05 1.7-7.1.7"/><path id="kvg:06ff6-s10" kvg:type="㇐a" d="M71.5 26.19c2.45.0 18.02-1.97 20.79-1.97"/><path id="kvg:06ff6-s11" kvg:type="㇐a" d="M71.65 36.83c3.61.0 15.71-1.31 20.39-1.31"/></g></g><g id="kvg:06ff6-g6" kvg:element="舌"><g id="kvg:06ff6-g7" kvg:element="千" kvg:position="top"><path id="kvg:06ff6-s12" kvg:type="㇒" d="M74.42 44.75c.07.21-.51 1.29-.88 1.51-2.84 1.69-10.04 4.48-22.62 6.83"/><path id="kvg:06ff6-s13" kvg:type="㇐" d="M46.08 62.16c1.01.32 3.53.46 4.53.32 7.65-1.14 17.36-3.33 29.38-3.52 1.68-.02 2.69.15 3.53.31"/><path id="kvg:06ff6-s14" kvg:type="㇑a" d="M62.34 52.77c.41.23 1.29 1.72 1.37 2.18.15.85-.05 12.03-.14 14.98"/></g><g id="kvg:06ff6-g8" kvg:element="口" kvg:position="bottom"><path id="kvg:06ff6-s15" kvg:type="㇑" d="M50.57 70.62c.36.25.8.43.87.76.73 3.17 1.87 10.7 2.25 15.62"/><path id="kvg:06ff6-s16" kvg:type="㇕b" d="M52.13 71.94c8.35-.79 18.72-2.23 23.42-2.55 1.72-.12 2.21 1.21 1.96 1.91-1.01 2.9-2.08 6.58-2.95 10.96"/><path id="kvg:06ff6-s17" kvg:type="㇐b" d="M53.51 85.7c5.52-.37 14.65-2.01 22.23-2.58"/></g></g></g></g></g><g id="kvg:StrokeNumbers_06ff6" style="font-size:8;fill:#808080"><text transform="matrix(1 0 0 1 11.50 15.50)">1</text><text transform="matrix(1 0 0 1 3.50 36.50)">2</text><text transform="matrix(1 0 0 1 4.50 87.50)">3</text><text transform="matrix(1 0 0 1 30.50 21.50)">4</text><text transform="matrix(1 0 0 1 40.50 14.50)">5</text><text transform="matrix(1 0 0 1 42.50 25.50)">6</text><text transform="matrix(1 0 0 1 42.54 36.50)">7</text><text transform="matrix(1 0 0 1 63.50 22.50)">8</text><text transform="matrix(1 0 0 1 73.50 13.50)">9</text><text transform="matrix(1 0 0 1 74.27 23.50)">10</text><text transform="matrix(1 0 0 1 74.50 33.50)">11</text><text transform="matrix(1 0 0 1 63.50 44.50)">12</text><text transform="matrix(1 0 0 1 42.50 59.50)">13</text><text transform="matrix(1 0 0 1 66.50 55.50)">14</text><text transform="matrix(1 0 0 1 42.50 78.50)">15</text><text transform="matrix(1 0 0 1 53.25 69.50)">16</text><text transform="matrix(1 0 0 1 56.50 82.50)">17</text></g></svg>