<svg xmlns="http://www.w3.org/2000/svg" width="109" height="109" viewBox="0 0 109 109"><g id="kvg:StrokePaths_07009"><g id="kvg:07009" kvg:element="瀉"><g id="kvg:07009-g1" kvg:element="氵" kvg:variant="true" kvg:original="水" kvg:position="left" kvg:radical="general"><path id="kvg:07009-s1" kvg:type="㇔" d="M15.63 16c4.45 1.78 11.5 7.32 12.62 10.09"/><path id="kvg:07009-s2" kvg:type="㇔" d="M13.25 40.5C17.75 42 24.87 46.67 26 49"/><path id="kvg:07009-s3" kvg:type="㇀" d="M14.25 86.65c1.53 1.38 3.37 1.44 4.34-.27C21.4 81.41 24.2 75.33 26.75 69"/></g><g id="kvg:07009-g2" kvg:element="寫" kvg:position="right"><g id="kvg:07009-g3" kvg:element="宀" kvg:position="top"><path id="kvg:07009-s4" kvg:type="㇑a" d="M61.01 10.31c.74.27 1.79 1.59 1.78 2.37-.05 2.44-.05 4.81-.06 7.04"/><g id="kvg:07009-g4" kvg:element="冖"><path id="kvg:07009-s5" kvg:type="㇔" d="M39.46 20.83c0 3.42-3.83 12.83-5.57 15.11"/><path id="kvg:07009-s6" kvg:type="㇖b" d="M39.23 23.38c13.27-2.13 44.28-5.45 50.6-5.8 9.86-.54 1.05 8.28-1.41 10.21"/></g></g><g id="kvg:07009-g5" kvg:position="bottom"><g id="kvg:07009-g6" kvg:element="臼"><path id="kvg:07009-s7" kvg:type="㇒" d="M58.32 28.96c.04.22.17.64-.08.88-3.34 3.12-7.23 5.9-14.83 8.38"/><path id="kvg:07009-s8" kvg:type="㇑" d="M41.12 37.1c.82.44 1.15 1.42 1.35 2.32.74 3.29 3.07 16.14 3.82 20.58"/><path id="kvg:07009-s9" kvg:type="㇐" d="M44.15 46.91c3.46-.51 13-2.56 13.83-2.56s1.98.0 2.63.0"/><path id="kvg:07009-s10" kvg:type="㇕" d="M67.01 32.74c.82.1 1.48.3 2.63.3 1.15.0 12.33-1.21 13.65-1.31 1.32-.1 2.41.5 2.3 1.11-.99 5.86-3.29 24.15-3.46 24.55"/><path id="kvg:07009-s11" kvg:type="㇐" d="M66.84 43.84c.82.1 1.98.8 3.13.8 1.15.0 12.5-1.81 13.82-1.91"/><path id="kvg:07009-s12" kvg:type="㇐" d="M45.96 57.28c2.14.0 33.06-2.31 35.53-2.41"/></g><g id="kvg:07009-g7" kvg:element="勹"><g id="kvg:07009-g8" kvg:element="丿"><path id="kvg:07009-s13" kvg:type="㇒" d="M51.11 60.5c.05.42.11 1.07-.1 1.67-1.25 3.52-8.43 11.24-18.25 15.96"/></g><path id="kvg:07009-s14" kvg:type="㇆" d="M50.77 68.5c1.04.4 2.5.99 4.18.77 4.05-.52 29.9-3.55 34.08-3.69 4.18-.13 5.03 1.35 4.39 4.17C92 76 87.5 88.5 83.29 95.87c-1.78 3.12-4.54 3.13-6.53-1.21"/></g><g id="kvg:07009-g9" kvg:element="灬" kvg:variant="true" kvg:original="火"><path id="kvg:07009-s15" kvg:type="㇔" d="M40.66 78.5c0 5.25-4.6 13-5.8 14.5"/><path id="kvg:07009-s16" kvg:type="㇔" d="M49.13 75.83c1.47 2.33 2.86 8.75 3.22 12.38"/><path id="kvg:07009-s17" kvg:type="㇔" d="M58.84 75.08c1.96 2.1 5.06 8.62 5.55 11.88"/><path id="kvg:07009-s18" kvg:type="㇔" d="M70.33 73.33c2.38 1.96 6.15 8.08 6.75 11.13"/></g></g></g></g></g></svg>