<!DOCTYPE svg PUBLIC "-//W3C//DTD SVG 1.0//EN" "http://www.w3.org/TR/2001/REC-SVG-20010904/DTD/svg10.dtd" [
<!ATTLIST g
xmlns:kvg CDATA #FIXED "http://kanjivg.tagaini.net"
kvg:element CDATA #IMPLIED
kvg:variant CDATA #IMPLIED
kvg:partial CDATA #IMPLIED
kvg:original CDATA #IMPLIED
kvg:part CDATA #IMPLIED
kvg:number CDATA #IMPLIED
kvg:tradForm CDATA #IMPLIED
kvg:radicalForm CDATA #IMPLIED
kvg:position CDATA #IMPLIED
kvg:radical CDATA #IMPLIED
kvg:phon CDATA #IMPLIED >
<!ATTLIST path
xmlns:kvg CDATA #FIXED "http://kanjivg.tagaini.net"
kvg:type CDATA #IMPLIED >
]><svg xmlns="http://www.w3.org/2000/svg" width="109" height="109" viewBox="0 0 109 109"><g id="kvg:StrokePaths_07058" style="fill:none;stroke:#000000;stroke-width:3;stroke-linecap:round;stroke-linejoin:round;"><g id="kvg:07058" kvg:element="灘"><g id="kvg:07058-g1" kvg:element="氵" kvg:variant="true" kvg:original="水" kvg:position="left" kvg:radical="general"><path id="kvg:07058-s1" kvg:type="㇔" d="M13.13 19.25c3.4 1.21 8.77 4.96 9.62 6.84"/><path id="kvg:07058-s2" kvg:type="㇔" d="M11 43.75c3.35 1.19 8.66 4.9 9.5 6.75"/><path id="kvg:07058-s3" kvg:type="㇀" d="M11.25 88.21c1.5.54 3.31.36 4.25-1.25 2.75-4.7 5.5-10.45 8-16.45"/></g><g id="kvg:07058-g2" kvg:element="難" kvg:position="right"><g id="kvg:07058-g3" kvg:position="left"><g id="kvg:07058-g4" kvg:element="艹" kvg:variant="true" kvg:original="艸"><path id="kvg:07058-s4" kvg:type="㇐" d="M28.98 28.62c.74.31 1.61.39 2.35.31 8.06-.84 21.88-3.53 29.69-3.56 1.24.0 1.98.15 2.6.3"/><path id="kvg:07058-s5" kvg:type="㇑a" d="M36.37 18.07c1 1.27 1.32 1.65 1.42 2.44 1 7.31 1.48 12.82 1.76 15.47"/><path id="kvg:07058-s6" kvg:type="㇑a" d="M54.36 14.81c.37 1.04.76 1.79.44 3.1-1.15 4.7-1.93 12.117708-3.19 17.137708"/><path id="kvg:07058-s7" kvg:type="㇐b" d="M41.127083 35.749376c2.726041-.122292 6.940624-.203333 9.624791-.362708"/></g><g id="kvg:07058-g5" kvg:element="口"><path id="kvg:07058-s8" kvg:type="㇑" d="M31.41 41.95c.3.3.6.54.73.91 1.03 2.94 2.7 10.5 3.41 15.77"/><path id="kvg:07058-s9" kvg:type="㇕b" d="M33.26 42.94c7.49-1.19 21.92-3.18 25.39-3.57 1.27-.14 2.04.84 1.85 1.66-.75 3.43-1.63 7.03-2.75 11.78"/><path id="kvg:07058-s10" kvg:type="㇐b" d="M35.68 56.06c4.09-.44 17.73-2.15 23.34-2.81"/></g><g id="kvg:07058-g6" kvg:element="夫"><path id="kvg:07058-s11" kvg:type="㇐" d="M31.99 66.16c.61.27 1.72.38 2.33.27 5.27-.93 17.02-2.18 22.62-2.75 1.01-.1 1.62.13 2.12.26"/><g id="kvg:07058-g7" kvg:element="大"><path id="kvg:07058-s12" kvg:type="㇐" d="M28.39 77.5c.59.27 1.68.27 2.28.27 3.55-.01 22.84-2.51 28.77-3.16.99-.11 1.59.13 2.08.26"/><path id="kvg:07058-s13" kvg:type="㇒" d="M45.44 36.87125c.33.85.311042 3.038333.291042 4.688333C45.411042 73.989583 42.88 87.42 27.74 96.69"/><path id="kvg:07058-s14" kvg:type="㇏" d="M44.13 78.92c6.1 3 11.89 8.19 14.43 13.51"/></g></g></g><g id="kvg:07058-g8" kvg:element="隹" kvg:position="right"><g id="kvg:07058-g9" kvg:element="亻" kvg:variant="true" kvg:original="人"><path id="kvg:07058-s15" kvg:type="㇒" d="M72.25 16.8c.08 1.09-.02 2.51-.29 3.42-1.72 5.85-3.9 10.77-7.84 17.81"/><path id="kvg:07058-s16" kvg:type="㇑" d="M66.75 37.59c.75.91 1.57 2.64 1.59 3.41C68.7 51.91 68 88.42 68.24 94.58"/></g><path id="kvg:07058-s17" kvg:type="㇒" d="M88.04 16.52c.07.97-.02 2.25-.23 3.07-1.38 5.27-3.12 9.32-6.28 15.69"/><path id="kvg:07058-s18" kvg:type="㇐b" d="M68.02 38.09c5.2-.86 25-3.15 27.23-3.65"/><path id="kvg:07058-s19" kvg:type="㇑a" d="M82.3 37.16c.25.43.87 3.01.87 3.74.0 7.38.03 36.28-.12 47.88"/><path id="kvg:07058-s20" kvg:type="㇐b" d="M68.95 54.62c4.91-.68 24.91-2.01 27.01-2.4"/><path id="kvg:07058-s21" kvg:type="㇐b" d="M68.85 70.57c5.18-.53 25.17-1.76 27.39-2.08"/><path id="kvg:07058-s22" kvg:type="㇐b" d="M68.62 90.19c6.7-.69 28.4-2.02 30.63-2.52"/></g></g></g></g><g id="kvg:StrokeNumbers_07058" style="font-size:8;fill:#808080"><text transform="matrix(1 0 0 1 6.50 19.50)">1</text><text transform="matrix(1 0 0 1 3.50 43.50)">2</text><text transform="matrix(1 0 0 1 4.50 91.50)">3</text><text transform="matrix(1 0 0 1 26.50 25.50)">4</text><text transform="matrix(1 0 0 1 30.50 15.50)">5</text><text transform="matrix(1 0 0 1 45.50 15.50)">6</text><text transform="matrix(1 0 0 1 33.1 36)">7</text><text transform="matrix(1 0 0 1 26.50 50.50)">8</text><text transform="matrix(1 0 0 1 31 41)">9</text><text transform="matrix(1 0 0 1 35.60 52.50)">10</text><text transform="matrix(1 0 0 1 29.00 64.95)">11</text><text transform="matrix(1 0 0 1 26.50 74.13)">12</text><text transform="matrix(1 0 0 1 46.3 47.7)">13</text><text transform="matrix(1 0 0 1 51.75 83.23)">14</text><text transform="matrix(1 0 0 1 63.50 14.50)">15</text><text transform="matrix(1 0 0 1 60.00 55.08)">16</text><text transform="matrix(1 0 0 1 80.50 12.50)">17</text><text transform="matrix(1 0 0 1 71.50 34.50)">18</text><text transform="matrix(1 0 0 1 86.00 43.50)">19</text><text transform="matrix(1 0 0 1 72.27 51.50)">20</text><text transform="matrix(1 0 0 1 72.27 67.50)">21</text><text transform="matrix(1 0 0 1 72.50 86.50)">22</text></g></svg>