<svg xmlns="http://www.w3.org/2000/svg" width="109" height="109" viewBox="0 0 109 109"><g id="kvg:StrokePaths_07089"><g id="kvg:07089" kvg:element="炉"><g id="kvg:07089-g1" kvg:element="火" kvg:position="left" kvg:radical="general"><path id="kvg:07089-s1" kvg:type="㇔" d="M13.63 37.95c1.54 3.44 3.78 13.19 4.2 16.63"/><path id="kvg:07089-s2" kvg:type="㇒" d="M41.46 32.61c.17 1.02-.14 1.81-.72 2.84S36 43.12 32.57 47.04"/><path id="kvg:07089-s3" kvg:type="㇒" d="M28.27 17.25c.72.76.93 2.02.95 3.28C29.75 63 27.25 81.25 12 94.5"/><path id="kvg:07089-s4" kvg:type="㇔/㇏" d="M30 69c4.27 2.17 9.65 9.05 10.77 12.13"/></g><g id="kvg:07089-g2" kvg:element="戸" kvg:position="right" kvg:phon="戸/盧"><path id="kvg:07089-s5" kvg:type="㇐" d="M48.37 20.67c2.68.54 5.3.53 8 .23 9.14-1.02 20.38-2.22 29.38-2.72 2.07-.12 4.33.05 6.38.51"/><path id="kvg:07089-s6" kvg:type="㇕c" d="M50.34 35.82c2.03 1.18 4.07.76 6.28.48 8.29-1.06 19.8-2.06 26.63-2.7 3.84-.36 6.81-.26 5.59 4.57-1.09 4.32-2.47 9.08-3.96 15.74"/><path id="kvg:07089-s7" kvg:type="㇐b" d="M54.21 57.33c8.42-.83 20.48-2.06 28.55-2.54 1.53-.09 2.97-.14 4.27-.14"/><path id="kvg:07089-s8" kvg:type="㇒" d="M52.38 37.33c.74 1.17 1.08 2.42 1.08 4.04C53.46 65.29 51.62 82 40 94"/></g></g></g></svg>