<svg xmlns="http://www.w3.org/2000/svg" width="109" height="109" viewBox="0 0 109 109"><g id="kvg:StrokePaths_0708e"><g id="kvg:0708e" kvg:element="炎"><g id="kvg:0708e-g1" kvg:element="火" kvg:position="top" kvg:radical="general"><path id="kvg:0708e-s1" kvg:type="㇔" d="M30.25 21.6c3.3 2.36 8.1 9.03 9 11.38"/><path id="kvg:0708e-s2" kvg:type="㇒" d="M77 17.44c.5.94.31 2.35-.5 3.17-1.75 1.77-6.62 5.9-11.25 8.68"/><path id="kvg:0708e-s3" kvg:type="㇒" d="M53.75 11.75c.62 1 .79 1.88.75 2.98C53.5 40.25 41.38 48.5 23 55.25"/><path id="kvg:0708e-s4" kvg:type="㇔/㇏" d="M54.5 32.81C69.75 37.5 79.75 45.88 87.25 54.5"/></g><g id="kvg:0708e-g2" kvg:element="火" kvg:position="bottom"><path id="kvg:0708e-s5" kvg:type="㇔" d="M31 62.38c3.45 2.2 8.46 8.44 9.4 10.64"/><path id="kvg:0708e-s6" kvg:type="㇒" d="M74.42 57.12c.2 1.25-.17 2.25-.75 2.88-.87.95-8.28 8.27-12.04 10.72"/><path id="kvg:0708e-s7" kvg:type="㇒" d="M54.27 52.25c.61.88.77 1.74.64 3.31C52.62 83.88 40.5 89.12 18.5 97"/><path id="kvg:0708e-s8" kvg:type="㇏" d="M53.66 70.63c10.96 7.56 22.19 16.22 30.23 21.8 2.99 2.07 6.24 3.57 9.62 4.77"/></g></g></g></svg>