<svg xmlns="http://www.w3.org/2000/svg" width="109" height="109" viewBox="0 0 109 109"><g id="kvg:StrokePaths_070ae"><g id="kvg:070ae" kvg:element="炮"><g id="kvg:070ae-g1" kvg:element="火" kvg:position="left" kvg:radical="general"><path id="kvg:070ae-s1" kvg:type="㇔" d="M12.24 37.25c2.69 3.72 6.61 14.28 7.34 18"/><path id="kvg:070ae-s2" kvg:type="㇒" d="M41.58 30.25c.71.87.54 2.53-.11 3.88-.64 1.35-7.27 11.46-10.49 14.62"/><path id="kvg:070ae-s3" kvg:type="㇒" d="M26.75 14.25c.76.78 1.52 1.83 1.53 3.14C28.5 71.2 24.5 81.92 12 95.5"/><path id="kvg:070ae-s4" kvg:type="㇔/㇏" d="M29.25 67c4.95 3 11.2 12.5 12.5 16.75"/></g><g id="kvg:070ae-g2" kvg:element="包" kvg:position="right"><g id="kvg:070ae-g3" kvg:element="勹"><g id="kvg:070ae-g4" kvg:element="丿"><path id="kvg:070ae-s5" kvg:type="㇒" d="M59.12 12.5c.04.78.23 2.07-.09 3.12-2.1 6.88-7.82 19.81-15.67 29.86"/></g><path id="kvg:070ae-s6" kvg:type="㇆" d="M57.49 27.68c.98.61 2.35.82 3.92.41S84 24.81 87.9 24.45c1.85-.17 3.87 1.12 3.87 3.41-.02 8.64-3.02 27.14-7.6 40.21-1.44 4.11-4.96 3.03-7.27.48"/></g><g id="kvg:070ae-g5" kvg:element="巳"><g id="kvg:070ae-g6" kvg:element="己" kvg:variant="true"><path id="kvg:070ae-s7" kvg:type="㇕" d="M51.03 43.85c1.28.81 2.37.81 4.25.54 3.81-.54 16.14-2.3 17.3-2.41 1.54-.13 3.17 1.05 2.2 2.97-1.03 2.05-1.53 6.3-2.62 12.53"/><path id="kvg:070ae-s8" kvg:type="㇐" d="M54.74 60.85c4.12-.45 14.07-1.79 19.93-2.18"/><path id="kvg:070ae-s9" kvg:type="㇟" d="M53.52 46.02c.48.98.52 1.39.51 3.09C54 54.54 54.17 74.86 54.17 79.6c0 12.4 3.08 14.58 21.57 14.58 19.26.0 21.4-1.94 21.4-13.39"/></g></g></g></g></g></svg>