<svg xmlns="http://www.w3.org/2000/svg" width="109" height="109" viewBox="0 0 109 109"><g id="kvg:StrokePaths_070ad"><g id="kvg:070ad" kvg:element="炭"><g id="kvg:070ad-g1" kvg:element="山" kvg:position="top" kvg:radical="nelson"><path id="kvg:070ad-s1" kvg:type="㇑a" d="M52.51 13.38c.99.99 1.86 2.62 1.86 3.9.0 1.97-.19 9.22-.19 13.98"/><path id="kvg:070ad-s2" kvg:type="㇄a" d="M29.68 21c.56.33.95 1.5.87 2.66-.17 2.59-.42 5.47-.84 9.26-.17 1.52 1.09 2.64 2.36 2.28 8.43-2.45 43.33-5.17 48.35-5.3"/><path id="kvg:070ad-s3" kvg:type="㇑" d="M81.02 16.62c.93.93 1.23 2 1.12 3.15-.28 2.96-.62 6.15-.84 9.23-.08 1.17-.15 2.33-.19 3.46"/></g><g id="kvg:070ad-g2" kvg:element="灰" kvg:position="bottom"><g id="kvg:070ad-g3" kvg:element="厂" kvg:position="tare"><path id="kvg:070ad-s4" kvg:type="㇐" d="M25.72 47.15c2.42.61 4.94.29 7.4.11 12.69-.88 29.83-3.41 43.25-3.89 3.06-.11 6.15-.2 9.19.26"/><path id="kvg:070ad-s5" kvg:type="㇒" d="M27.43 48.16c.83.83 1.23 2.03 1.18 3.58-.49 15.14-2.36 28.89-12.56 40.52"/></g><g id="kvg:070ad-g4" kvg:element="火" kvg:position="tarec" kvg:radical="tradit"><path id="kvg:070ad-s6" kvg:type="㇔" d="M37.54 62.62c2.4 2.09 5.88 8.01 6.53 10.11"/><path id="kvg:070ad-s7" kvg:type="㇒" d="M80.4 56.21c.33 1.17.1 2.5-.66 3.44-2.61 3.23-7.93 8.93-11.23 11.3"/><path id="kvg:070ad-s8" kvg:type="㇒" d="M56.94 51.76c.9.9 1.03 2.23.99 3.75C57.25 81.5 44.12 91.25 32.5 96.25"/><path id="kvg:070ad-s9" kvg:type="㇏" d="M57.51 67.62c8.25 11.12 15.93 19.16 22.88 23.97 2.25 1.55 4.48 2.91 7.61 3.99"/></g></g></g></g></svg>