<svg xmlns="http://www.w3.org/2000/svg" width="109" height="109" viewBox="0 0 109 109"><g id="kvg:StrokePaths_070ac" style="fill:none;stroke:#000000;stroke-width:3;stroke-linecap:round;stroke-linejoin:round;"><g id="kvg:070ac" kvg:element="炬"><g id="kvg:070ac-g1" kvg:element="火" kvg:position="left" kvg:radical="general"><path id="kvg:070ac-s1" kvg:type="㇔" d="M13.99 36.75c2.05 3.93 5.03 15.07 5.59 19"/><path id="kvg:070ac-s2" kvg:type="㇒" d="M42.03 31.25c.76.77.61 2.28-.08 3.47s-7.27 10-10.72 12.78"/><path id="kvg:070ac-s3" kvg:type="㇒" d="M27.75 15.75c.76.75 1.52 1.75 1.53 3 .22 51.5-3.78 60-15.78 74.75"/><path id="kvg:070ac-s4" kvg:type="㇔/㇏" d="M29.5 66.5c4.26 2.73 9.63 11.38 10.75 15.25"/></g><g id="kvg:070ac-g2" kvg:element="巨" kvg:position="right"><g id="kvg:070ac-g3" kvg:element="匚" kvg:part="1" kvg:variant="true"><path id="kvg:070ac-s5" kvg:type="㇑" d="M51.04 20.76c.97.43 1.56 1.94 1.75 2.8.2.86.0 61.81-.2 67.19"/></g><g id="kvg:070ac-g4" kvg:element="二" kvg:part="1"><path id="kvg:070ac-s6" kvg:type="㇐" d="M52.51 21.88c7.75-.49 27.72-2.28 36.83-3.19 2.7-.27 4.37-.16 5.73.02"/></g><path id="kvg:070ac-s7" kvg:type="㇕" d="M53.39 45.16c15.39-1.52 22.46-2.41 33.16-3.24 2.62-.2 4.05 1.39 3.49 3.98C89.16 50 88 58 87.26 63.49"/><path id="kvg:070ac-s8" kvg:type="㇐" d="M52.98 66.27c6.43-.64 30.93-2.22 36.98-2.61"/><g id="kvg:070ac-g5" kvg:element="二" kvg:part="2"><g id="kvg:070ac-g6" kvg:element="匚" kvg:part="2" kvg:variant="true"><path id="kvg:070ac-s9" kvg:type="㇐" d="M52.868333 89.525625c1.74.34 2.86.57 5.23.35 6.6975-1.032917 21.130833-3.641875 29.874792-2.966458 3.259997-.1 5.229997.29 6.859997.53"/></g></g></g></g></g></svg>