<svg xmlns="http://www.w3.org/2000/svg" width="109" height="109" viewBox="0 0 109 109"><g id="kvg:StrokePaths_070df" style="fill:none;stroke:#000000;stroke-width:3;stroke-linecap:round;stroke-linejoin:round;"><g id="kvg:070df" kvg:element="烟"><g id="kvg:070df-g1" kvg:element="火" kvg:position="left" kvg:radical="general"><path id="kvg:070df-s1" kvg:type="㇔" d="M12.74 36.5c2.33 3.88 5.71 14.87 6.34 18.75"/><path id="kvg:070df-s2" kvg:type="㇒" d="M41 29.75c.78.79.64 2.34-.06 3.56-.7 1.23-7.44 10.33-10.96 13.19"/><path id="kvg:070df-s3" kvg:type="㇒" d="M26.75 18.25c.76.75 1.03 2.25 1.03 3.5C27.78 67.5 24 77 10 91.5"/><path id="kvg:070df-s4" kvg:type="㇔/㇏" d="M28.25 65.5C33 68.5 39 78 40.25 82.25"/></g><g id="kvg:070df-g2" kvg:element="因" kvg:position="right"><g id="kvg:070df-g3" kvg:element="囗" kvg:part="1"><path id="kvg:070df-s5" kvg:type="㇑" d="M48.25 20.26c.5 1.33 1.22 2.32 1.23 4.09.09 13.23.09 43.4-.21 68.66"/><path id="kvg:070df-s6" kvg:type="㇕a" d="M49.55 21.42C61.25 20.5 82.44 19 90.43 19c1.82.0 3.85 1.81 3.82 4.6-.17 14.6-.66 47.96-.33 68.58"/></g><g id="kvg:070df-g4" kvg:element="大"><path id="kvg:070df-s7" kvg:type="㇐" d="M56.1 42.99c1.03.35 3.18.63 3.87.6 7.29-.34 15.97-.92 24.87-1.96.85-.1 2.38-.07 3.34-.07"/><path id="kvg:070df-s8" kvg:type="㇒" d="M70.57 26.63c.25.7.38 1.51.37 3.02-.12 26.15-4.87 39.94-14.73 47.97"/><path id="kvg:070df-s9" kvg:type="㇏" d="M70 43.75c2.5 6.25 11.25 22.5 15.37 27.27 1.01 1.17 1.55 1.86 2.38 2.23"/></g><g id="kvg:070df-g5" kvg:element="囗" kvg:part="2"><path id="kvg:070df-s10" kvg:type="㇐a" d="M49.4 90.23c8.65.0 32.57-1.45 44.52-1.83"/></g></g></g></g></svg>