<svg xmlns="http://www.w3.org/2000/svg" width="109" height="109" viewBox="0 0 109 109"><g id="kvg:StrokePaths_070f9" style="fill:none;stroke:#000000;stroke-width:3;stroke-linecap:round;stroke-linejoin:round;"><g id="kvg:070f9" kvg:element="烹"><g id="kvg:070f9-g1" kvg:element="亨" kvg:position="top"><g id="kvg:070f9-g2" kvg:element="亠" kvg:position="top" kvg:radical="nelson"><path id="kvg:070f9-s1" kvg:type="㇑a" d="M51.98 8.5c.85.43 2.25 2.11 2.25 2.97.0 3.18-.27 6.8-.11 9.49"/><path id="kvg:070f9-s2" kvg:type="㇐" d="M17.5 22.86c2 .37 3.76.71 6.06.52 13.94-1.13 44.19-3.17 60.14-3.92 2.35-.11 3.55.04 5.3.66"/></g><g id="kvg:070f9-g3" kvg:position="bottom"><g id="kvg:070f9-g4" kvg:element="口" kvg:position="top"><path id="kvg:070f9-s3" kvg:type="㇑" d="M31.89 30.73c.37.24.74.44.91.75 1.28 2.41 2.8 9.48 3.68 13.8"/><path id="kvg:070f9-s4" kvg:type="㇕b" d="M33.68 32.06c9.01-1.01 33.9-3.34 38.55-3.68 1.7-.12 2.72 1.25 2.48 1.99-1.01 3.03-2.16 5.22-4.31 9.59"/><path id="kvg:070f9-s5" kvg:type="㇐b" d="M36.84 43.26c5.46-.38 28.33-2.54 35.25-2.93"/></g><g id="kvg:070f9-g5" kvg:element="了" kvg:position="bottom"><path id="kvg:070f9-s6" kvg:type="㇇" d="M25.53 52.75c1.3.31 3.76.79 5.72.52 2.39-.33 37.93-4.79 40.21-4.79s4.19 2.15 1.59 3.57c-4.56 2.5-14.46 8.09-19.9 11.88"/><g id="kvg:070f9-g6" kvg:element="亅"><path id="kvg:070f9-s7" kvg:type="㇁" d="M50.23 60.85c6.02 4.9 8.26 14.82 4.56 23.97C52.5 90.5 49 86 47.18 83.29"/></g></g></g></g><g id="kvg:070f9-g7" kvg:element="灬" kvg:variant="true" kvg:original="火" kvg:position="bottom" kvg:radical="tradit"><path id="kvg:070f9-s8" kvg:type="㇔" d="M24 87c0 5.25-5.16 13-6.5 14.5"/><path id="kvg:070f9-s9" kvg:type="㇔" d="M39.52 88.83c2.93 2.15 5.7 8.05 6.44 11.38"/><path id="kvg:070f9-s10" kvg:type="㇔" d="M62.87 88.08c2.8 1.92 7.23 7.9 7.93 10.88"/><path id="kvg:070f9-s11" kvg:type="㇔" d="M82.77 87.08c3.46 2.27 8.93 9.35 9.79 12.88"/></g></g></g></svg>