<!DOCTYPE svg PUBLIC "-//W3C//DTD SVG 1.0//EN" "http://www.w3.org/TR/2001/REC-SVG-20010904/DTD/svg10.dtd" [
<!ATTLIST g
xmlns:kvg CDATA #FIXED "http://kanjivg.tagaini.net"
kvg:element CDATA #IMPLIED
kvg:variant CDATA #IMPLIED
kvg:partial CDATA #IMPLIED
kvg:original CDATA #IMPLIED
kvg:part CDATA #IMPLIED
kvg:number CDATA #IMPLIED
kvg:tradForm CDATA #IMPLIED
kvg:radicalForm CDATA #IMPLIED
kvg:position CDATA #IMPLIED
kvg:radical CDATA #IMPLIED
kvg:phon CDATA #IMPLIED >
<!ATTLIST path
xmlns:kvg CDATA #FIXED "http://kanjivg.tagaini.net"
kvg:type CDATA #IMPLIED >
]><svg xmlns="http://www.w3.org/2000/svg" width="109" height="109" viewBox="0 0 109 109"><g id="kvg:StrokePaths_07109" style="fill:none;stroke:#000000;stroke-width:3;stroke-linecap:round;stroke-linejoin:round;"><g id="kvg:07109" kvg:element="焉"><g id="kvg:07109-g1" kvg:element="正" kvg:position="top"><g id="kvg:07109-g2" kvg:element="一" kvg:radical="nelson"><path id="kvg:07109-s1" kvg:type="㇐" d="M22.71 14.97c1.13.46 3.19.52 4.32.46 11.31-.68 37.22-2.5 53.06-2.76 1.88-.03 3.01.22 3.95.45"/></g><g id="kvg:07109-g3" kvg:element="止"><g id="kvg:07109-g4" kvg:element="卜" kvg:original="ト"><path id="kvg:07109-s2" kvg:type="㇑a" d="M53.38 16.3c.07.24.92 1.26.98 2.79.31 7.37-.2 16.99-.2 19.5"/><path id="kvg:07109-s3" kvg:type="㇐b" d="M55.73 25.88c.44.12 1.24.13 1.68.12 4.22-.01 11.86-1.4 20.26-1.44.73.0 1.17.06 1.54.12"/></g><path id="kvg:07109-s4" kvg:type="㇑a" d="M32.51 22.46c.07.2.97 1.03 1.04 2.28.33 6.02.68 13.77.68 15.81"/><path id="kvg:07109-s5" kvg:type="㇐" d="M14.21 40.84c1.57.36 4.95.9 6.45.8 13.34-.89 49.09-4.39 69.11-4.92 2.52-.07 4.71.54 6.02 1.08"/></g></g><g id="kvg:07109-g5" kvg:position="bottom"><path id="kvg:07109-s6" kvg:type="㇐" d="M35.73 53.09c.9.2 2.54.2 3.44.2 8.63-.01 24.83-2.04 42.4-3.24 1.49-.1 2.39.09 3.14.19"/><path id="kvg:07109-s7" kvg:type="㇉" d="M36.25 41.5c.46.38 1.08 2.48.95 3.12C35.75 52 34.5 60 32.97 64.2c-.62 1.69.13 4.27 2.51 3.58 5.27-1.53 41.3-2.9 49.17-3.77 5.12-.57 7.73 2.65 6.82 6.53C89.5 79 86.25 86.75 83.25 93.25 78.56 103.41 75.5 96 73.3 92.7"/><g id="kvg:07109-g6" kvg:element="灬" kvg:variant="true" kvg:original="火" kvg:radical="tradit"><path id="kvg:07109-s8" kvg:type="㇔" d="M23.08 79c-.83 5.75-2.83 12-6.8 15.25"/><path id="kvg:07109-s9" kvg:type="㇔" d="M36 77.75c2.55 2.65 4.98 9.93 5.62 14.05"/><path id="kvg:07109-s10" kvg:type="㇔" d="M53 76c2.39 2.22 6.16 9.12 6.76 12.58"/><path id="kvg:07109-s11" kvg:type="㇔" d="M68.25 72.75c2.74 2.14 7.07 8.78 7.75 12.1"/></g></g></g></g><g id="kvg:StrokeNumbers_07109" style="font-size:8;fill:#808080"><text transform="matrix(1 0 0 1 15.50 14.50)">1</text><text transform="matrix(1 0 0 1 46.50 23.55)">2</text><text transform="matrix(1 0 0 1 58.50 22.48)">3</text><text transform="matrix(1 0 0 1 23.50 25.50)">4</text><text transform="matrix(1 0 0 1 6.50 40.33)">5</text><text transform="matrix(1 0 0 1 43.25 49.43)">6</text><text transform="matrix(1 0 0 1 28.50 50.50)">7</text><text transform="matrix(1 0 0 1 16.25 79.10)">8</text><text transform="matrix(1 0 0 1 28.25 78.50)">9</text><text transform="matrix(1 0 0 1 42.25 75.95)">10</text><text transform="matrix(1 0 0 1 59.50 75.88)">11</text></g></svg>