<svg xmlns="http://www.w3.org/2000/svg" width="109" height="109" viewBox="0 0 109 109"><g id="kvg:StrokePaths_07114" style="fill:none;stroke:#000000;stroke-width:3;stroke-linecap:round;stroke-linejoin:round;"><g id="kvg:07114" kvg:element="焔"><g id="kvg:07114-g1" kvg:element="火" kvg:position="left" kvg:radical="tradit"><path id="kvg:07114-s1" kvg:type="㇔" d="M14.74 38c1.59 3.47 3.41 13.28 3.84 16.75"/><path id="kvg:07114-s2" kvg:type="㇒" d="M42.6 31.25c0 1.25-.4 2.25-1.12 3.2-2.23 2.93-4.98 6.68-9.25 11.05"/><path id="kvg:07114-s3" kvg:type="㇒" d="M27.75 16.75c.94.94 1.01 2 1.03 3.25.72 50.88-2.91 59.5-16.03 73.75"/><path id="kvg:07114-s4" kvg:type="㇔/㇏" d="M30.12 66.25c5.07 3.34 9.65 9.17 11.62 13.5"/></g><g id="kvg:07114-g2" kvg:position="right"><g id="kvg:07114-g3" kvg:element="𠂊" kvg:variant="true" kvg:original="勹" kvg:position="top"><g id="kvg:07114-g4" kvg:element="丿" kvg:radical="nelson"><path id="kvg:07114-s5" kvg:type="㇒" d="M64.75 12c0 1.38-.22 2.54-.62 3.75C59.5 29.75 54.51 39.08 43 49"/></g><path id="kvg:07114-s6" kvg:type="㇇" d="M64.5 24.13c1.55.39 3.09.15 4.63-.22 4.83-.82 12.29-2.63 14.31-3.17 1.81-.49 3.31.51 2.31 2.76-2.59 5.84-9 15-15.25 22.25"/></g><g id="kvg:07114-g5" kvg:element="旧" kvg:position="bottom"><g id="kvg:07114-g6" kvg:element="丨" kvg:position="left"><path id="kvg:07114-s7" kvg:type="㇑" d="M48.91 54.69c.82.82.94 2.3.92 3.45-.06 3.94-.14 18.5-.17 28.61-.01 3.33-.01 6.17-.01 8"/></g><g id="kvg:07114-g7" kvg:element="日" kvg:position="right"><path id="kvg:07114-s8" kvg:type="㇑" d="M66.36 53.53c.81.81 1 1.88 1 3.1.0.98-.03 17.6-.04 28.62.0 3.85-.01 7.01-.01 8.6"/><path id="kvg:07114-s9" kvg:type="㇕a" d="M68.39 55.63c1.86-.13 14.33-2.1 18.99-2.72 2.3-.31 3.55.9 3.55 3.21.0 7.12.02 19.02.05 27.75.02 3.58.03 6.55.03 8.26"/><path id="kvg:07114-s10" kvg:type="㇐a" d="M68.72 72.63C77 71.62 83 70.88 90.29 70.3"/><path id="kvg:07114-s11" kvg:type="㇐a" d="M68.14 91.01c8.61-.63 13.86-1.38 21.7-1.78"/></g></g></g></g></g></svg>