<svg xmlns="http://www.w3.org/2000/svg" width="109" height="109" viewBox="0 0 109 109"><g id="kvg:StrokePaths_0713c" style="fill:none;stroke:#000000;stroke-width:3;stroke-linecap:round;stroke-linejoin:round;"><g id="kvg:0713c" kvg:element="焼"><g id="kvg:0713c-g1" kvg:element="火" kvg:position="left" kvg:radical="general"><path id="kvg:0713c-s1" kvg:type="㇔" d="M12.62 36.75c1.7 2.48 4.16 9.52 4.62 12"/><path id="kvg:0713c-s2" kvg:type="㇒" d="M40.49 30.75c.38 1 .26 2.34-.38 3.22-1.86 2.53-3.98 5.53-7.86 9.78"/><path id="kvg:0713c-s3" kvg:type="㇒" d="M27.76 18.25c.74.72.99 2.18.99 3.38C28.6 69.4 23.88 75.88 10.25 90.5"/><path id="kvg:0713c-s4" kvg:type="㇔/㇏" d="M29.38 63.88c4.73 4.33 8.51 10.11 10.88 16.38"/></g><g id="kvg:0713c-g2" kvg:element="尭" kvg:position="right"><g id="kvg:0713c-g3" kvg:element="卉" kvg:position="top"><g id="kvg:0713c-g4" kvg:element="十" kvg:position="top"><path id="kvg:0713c-s5" kvg:type="㇐" d="M50.61 25.75c2.14.5 4.4.11 6.52-.12 6.98-.77 17.72-2.23 26.13-2.96 1.97-.17 3.7-.44 5.64-.03"/><path id="kvg:0713c-s6" kvg:type="㇑" d="M67.86 12.63c.75.76 1.28 1.99 1.28 3.24.0.69.05 9.38.07 16 0 1.58.01 3.04.01 4.25"/></g><g id="kvg:0713c-g5" kvg:element="廾" kvg:position="bottom"><g id="kvg:0713c-g6" kvg:element="十" kvg:part="1"><path id="kvg:0713c-s7" kvg:type="㇐" d="M43.65 48.13c2.6.49 4.58.39 6.73.16 9.98-1.07 27.12-2.66 39.12-3.62 2.44-.19 4.89-.32 7.27.37"/></g><g id="kvg:0713c-g7" kvg:element="丿"><path id="kvg:0713c-s8" kvg:type="㇑a/㇒" d="M55.56 37.57c.93.93 1.41 2.31 1.46 3.18.48 7.75.75 16 .75 21.47"/></g><g id="kvg:0713c-g8" kvg:element="十" kvg:part="2"><path id="kvg:0713c-s9" kvg:type="㇑a" d="M83.43 35.2c.57.8.92 2.52.56 4.24C82 49 80.62 55 79.36 60.82"/></g></g></g><g id="kvg:0713c-g9" kvg:position="bottom"><g id="kvg:0713c-g10" kvg:element="兀"><g id="kvg:0713c-g11" kvg:element="一"><path id="kvg:0713c-s10" kvg:type="㇐" d="M43.98 63.2c2.5.56 4.99.35 7.52.12 9.83-.89 26.05-2.23 36.5-2.8 2.45-.13 4.83-.37 7.21.32"/></g></g><g id="kvg:0713c-g12" kvg:element="儿" kvg:original="八"><g id="kvg:0713c-g13" kvg:element="丿"><path id="kvg:0713c-s11" kvg:type="㇒" d="M60.67 66.12c.06.66-.08 1.72-.38 2.67-2.04 6.46-9.41 17.58-22.88 25.5"/></g><path id="kvg:0713c-s12" kvg:type="㇟" d="M73.07 64.26c.84.84 1.37 2.2 1.37 3.57.0 7.92-.08 12.37-.08 16.55.0 7.12 1.52 8.65 11.19 8.65 10.71.0 11.7-1.79 11.7-7.6"/></g></g></g></g></g></svg>