<!DOCTYPE svg PUBLIC "-//W3C//DTD SVG 1.0//EN" "http://www.w3.org/TR/2001/REC-SVG-20010904/DTD/svg10.dtd" [
<!ATTLIST g
xmlns:kvg CDATA #FIXED "http://kanjivg.tagaini.net"
kvg:element CDATA #IMPLIED
kvg:variant CDATA #IMPLIED
kvg:partial CDATA #IMPLIED
kvg:original CDATA #IMPLIED
kvg:part CDATA #IMPLIED
kvg:number CDATA #IMPLIED
kvg:tradForm CDATA #IMPLIED
kvg:radicalForm CDATA #IMPLIED
kvg:position CDATA #IMPLIED
kvg:radical CDATA #IMPLIED
kvg:phon CDATA #IMPLIED >
<!ATTLIST path
xmlns:kvg CDATA #FIXED "http://kanjivg.tagaini.net"
kvg:type CDATA #IMPLIED >
]><svg xmlns="http://www.w3.org/2000/svg" width="109" height="109" viewBox="0 0 109 109"><g id="kvg:StrokePaths_07130" style="fill:none;stroke:#000000;stroke-width:3;stroke-linecap:round;stroke-linejoin:round;"><g id="kvg:07130" kvg:element="焰"><g id="kvg:07130-g1" kvg:element="火" kvg:position="left" kvg:radical="tradit"><path id="kvg:07130-s1" kvg:type="㇔" d="M14.74 38c1.59 3.47 3.91 13.28 4.34 16.75"/><path id="kvg:07130-s2" kvg:type="㇒" d="M42.1 30.75c.7.7.51 2.12-.12 3.2-.63 1.08-6.6 9.03-9.75 11.55"/><path id="kvg:07130-s3" kvg:type="㇒" d="M27.75 16.25c.76.75 1.52 1.75 1.53 3C29.5 70.75 25.5 81 13 94"/><path id="kvg:07130-s4" kvg:type="㇔/㇏" d="M29.75 65c4.75 2.64 10.75 8.51 12 12.25"/></g><g id="kvg:07130-g2" kvg:element="臽" kvg:position="right"><g id="kvg:07130-g3" kvg:element="𠂊" kvg:variant="true" kvg:original="勹" kvg:position="top"><g id="kvg:07130-g4" kvg:element="丿" kvg:radical="nelson"><path id="kvg:07130-s5" kvg:type="㇒" d="M62.95 11c.05.87.11 2.25-.1 3.51-1.25 7.39-8.43 23.62-18.26 33.55"/></g><path id="kvg:07130-s6" kvg:type="㇇" d="M63 21.59c.59.28 1.4.33 2.35.19 3.63-.53 14.12-2.77 16.47-2.86s2.82.93 2.46 2.88c-.35 1.95-3.96 17.42-9.12 22.72-1.55 1.59-3.37.43-5.13-1.34"/></g><g id="kvg:07130-g5" kvg:element="臼" kvg:position="bottom"><path id="kvg:07130-s7" kvg:type="㇒" d="M63.97 46.21c.05.27.19.8-.09 1.1-3.73 3.92-8.09 7.41-16.59 10.52"/><path id="kvg:07130-s8" kvg:type="㇑" d="M45.44 56.8c.72.74 1.01 2.4 1.19 3.92.65 5.56 2.7 27.27 3.36 34.78"/><path id="kvg:07130-s9" kvg:type="㇐" d="M48.3 74.37c3.56-.34 13.83-2.69 14.68-2.69s2.03.0 2.71.0"/><path id="kvg:07130-s10" kvg:type="㇕" d="M72.85 54.12c.85.17 1.52.51 2.71.51s13.72-2.03 15.07-2.2c1.35-.17 2.48.84 2.37 1.86-1.02 9.8-2.37 28.72-3.39 36.82-.15 1.17.0 1.86-.17 2.53"/><path id="kvg:07130-s11" kvg:type="㇐" d="M73.19 70.51c.85.17 1.52.51 2.71.51 1.18.0 14.28-1.35 15.64-1.52"/><path id="kvg:07130-s12" kvg:type="㇐" d="M50.16 92.63c2.2.0 36.07-2.2 38.61-2.37"/></g></g></g></g><g id="kvg:StrokeNumbers_07130" style="font-size:8;fill:#808080"><text transform="matrix(1 0 0 1 7.50 36.50)">1</text><text transform="matrix(1 0 0 1 38.50 27.50)">2</text><text transform="matrix(1 0 0 1 18.50 16.50)">3</text><text transform="matrix(1 0 0 1 31.50 64.50)">4</text><text transform="matrix(1 0 0 1 56.50 11.50)">5</text><text transform="matrix(1 0 0 1 69.50 18.50)">6</text><text transform="matrix(1 0 0 1 57.50 48.00)">7</text><text transform="matrix(1 0 0 1 40.50 64.00)">8</text><text transform="matrix(1 0 0 1 49.50 71.00)">9</text><text transform="matrix(1 0 0 1 71.50 52.00)">10</text><text transform="matrix(1 0 0 1 70.50 68.00)">11</text><text transform="matrix(1 0 0 1 52.50 88.00)">12</text></g></svg>