<svg xmlns="http://www.w3.org/2000/svg" width="109" height="109" viewBox="0 0 109 109"><g id="kvg:StrokePaths_07149"><g id="kvg:07149" kvg:element="煉"><g id="kvg:07149-g1" kvg:element="火" kvg:position="left" kvg:radical="general"><path id="kvg:07149-s1" kvg:type="㇔" d="M11.24 39.25c1.78 3.31 4.36 12.69 4.84 16"/><path id="kvg:07149-s2" kvg:type="㇒" d="M38 32c.78.78.64 2.31-.06 3.52C37.24 36.73 31 45.68 27.48 48.5"/><path id="kvg:07149-s3" kvg:type="㇒" d="M23.61 17.25c.59.76 1.13 1.77 1.17 3.03C26.5 68.25 23.75 83 10 94.75"/><path id="kvg:07149-s4" kvg:type="㇔/㇏" d="M24.75 67.5c5.34 2.64 12.09 11.01 13.5 14.75"/></g><g id="kvg:07149-g2" kvg:element="東" kvg:position="right"><g id="kvg:07149-g3" kvg:element="木" kvg:part="1"><path id="kvg:07149-s5" kvg:type="㇐" d="M46.21 26.17c.82.38 2.32.42 3.15.38 8.55-.44 24.39-3.05 35.19-3.38 1.37-.04 2.19.18 2.88.37"/></g><g id="kvg:07149-g4" kvg:element="日"><path id="kvg:07149-s6" kvg:type="㇑" d="M44.91 38.39c.34.36 1.38 1.47 1.38 2.34.0.86 3.29 21.79 3.29 22.22s.15.43.29 1.3"/><path id="kvg:07149-s7" kvg:type="㇕a" d="M47.03 39.39c6.47-.64 36.17-4.02 38.43-4.15 1.89-.11 3.05 2.63 2.96 3.28-.92 6.98-1.67 12.23-3.62 22.74"/><path id="kvg:07149-s8" kvg:type="㇔" d="M54.127293 44.953542c1.75 1.16 5.8725 6.927292 6.3125 8.727292"/><path id="kvg:07149-s9" kvg:type="㇒" d="M78.464793 42.900208c.01.21.02.53-.02.83-.2 1.74-2.7325 6.818958-4.3425 9.158958"/><path id="kvg:07149-s10" kvg:type="㇐a" d="M50.89 61.82c6.86-.46 24.78-2.15 33.32-2.55"/></g><g id="kvg:07149-g5" kvg:element="木" kvg:part="2"><path id="kvg:07149-s11" kvg:type="㇑" d="M64.44 11.75c1.09.5 1.75 2.25 1.97 3.25s0 76.75-.22 83"/><path id="kvg:07149-s12" kvg:type="㇒" d="M64.69 61.75c-4.65 9.9-16.76 23.9-26.44 29.5"/><path id="kvg:07149-s13" kvg:type="㇏" d="M66.69 60.75c6.94 9.5 21.37 23.87 26.07 26.73 1.61.98 2.76 1.9 4.24 2.27"/></g></g></g></g></svg>