<svg xmlns="http://www.w3.org/2000/svg" width="109" height="109" viewBox="0 0 109 109"><g id="kvg:StrokePaths_07155" style="fill:none;stroke:#000000;stroke-width:3;stroke-linecap:round;stroke-linejoin:round;"><g id="kvg:07155" kvg:element="煕"><g id="kvg:07155-g1" kvg:element="巸" kvg:position="top"><g id="kvg:07155-g2" kvg:element="𦣝" kvg:position="left"><g id="kvg:07155-g3" kvg:element="匚" kvg:part="1"><path id="kvg:07155-s1" kvg:type="㇑" d="M18.87 17.25c0 1-.26 1.75-.04 2.75.22 1-.4 41-.4 44.88.0.69-.118035 2.287427-.06873 3.071383"/></g><path id="kvg:07155-s2" kvg:type="㇐" d="M16.25 16.5c.63.29 1.78.32 2.41.29C23.5 16.5 42 15 48.05 14.37c1.04-.11 2.18.14 2.7.28"/><path id="kvg:07155-s3" kvg:type="㇑" d="M26.06 25.99c.44.76 1.08 2.23 1.08 3.08.0 9.43-.47 16.93-.47 22.7"/><path id="kvg:07155-s4" kvg:type="㇉" d="M34.808206 16.888598c.776837.624637.769936.890324 1.327738 2.255921.07143 2.427324-.102404 8.542557-.377502 10.383429-.275097 1.840872.169396 2.818365 2.187818 2.4335 2.018421-.384864 6.026533-1.259137 8.348595-1.089406 1.34601.09839 2.159881.584176 1.965658 2.36277-.491556 4.501414-1.423878 7.084506-2.763076 12.07017"/><path id="kvg:07155-s5" kvg:type="㇐" d="M35.72 46.95c2.28-.2 7.78-.7 11.87-1.03"/><g id="kvg:07155-g4" kvg:element="匚" kvg:part="2"><path id="kvg:07155-s6" kvg:type="㇑" d="M34.13 44.75c.82.38 1.31 1.69 1.47 2.44s0 12.62-.16 17.31"/></g><path id="kvg:07155-s7" kvg:type="㇐" d="M18.644537 66.889142C25.234537 66.099142 41 64.5 50.05 64.37c1.05-.01 2.18.14 2.7.28"/></g><g id="kvg:07155-g5" kvg:element="巳" kvg:position="right"><g id="kvg:07155-g6" kvg:element="己" kvg:variant="true"><path id="kvg:07155-s8" kvg:type="㇕" d="M57.5 14.49c1.19.89 2.19.71 3.95.6 5.55-.34 22.23-1.63 23.32-1.61C87 13.5 88.25 15 87.82 16.76c-.17.68-3.11 12.36-4.11 18.96"/><path id="kvg:07155-s9" kvg:type="㇐" d="M60.75 37.42c5.5-.17 12.25-.92 24.71-1.04"/><path id="kvg:07155-s10" kvg:type="㇟" d="M60.36 15.8c-.02 5.31.08 29.49.1 34.3.04 13.62 2.43 14.15 18.48 14.15 14.81.0 14.88-4.37 14.88-8.91"/></g></g></g><g id="kvg:07155-g7" kvg:element="灬" kvg:variant="true" kvg:original="火" kvg:position="bottom" kvg:radical="general"><path id="kvg:07155-s11" kvg:type="㇔" d="M20.75 80c0 6.16-6.15 15.24-7.75 17"/><path id="kvg:07155-s12" kvg:type="㇔" d="M39.45 77.62c3.24 3.44 5.66 12.85 6 18.16"/><path id="kvg:07155-s13" kvg:type="㇔" d="M59.52 76.26c3.74 3.18 9.02 13.05 9.41 17.96"/><path id="kvg:07155-s14" kvg:type="㇔" d="M81.27 76.26c4.98 3.41 12.27 13.96 13.01 19.21"/></g></g></g></svg>