<svg xmlns="http://www.w3.org/2000/svg" width="109" height="109" viewBox="0 0 109 109"><g id="kvg:StrokePaths_07156"><g id="kvg:07156" kvg:element="煖"><g id="kvg:07156-g1" kvg:element="火" kvg:position="left" kvg:radical="general"><path id="kvg:07156-s1" kvg:type="㇔" d="M11.49 34.5c2.23 3.67 5.48 14.08 6.09 17.75"/><path id="kvg:07156-s2" kvg:type="㇒" d="M38.65 30.25c.68.86.44 2.5-.18 3.84S32.75 43 27.98 47.5"/><path id="kvg:07156-s3" kvg:type="㇒" d="M25.75 14.25c.76.75 1.03 2.25 1.03 3.5C26.63 67.5 25.75 78.5 12 95.5"/><path id="kvg:07156-s4" kvg:type="㇔/㇏" d="M26.25 72.25c4.35 2.6 9.85 10.82 11 14.5"/></g><g id="kvg:07156-g2" kvg:element="爰" kvg:position="right"><g id="kvg:07156-g3" kvg:element="⺤" kvg:variant="true" kvg:original="爪" kvg:position="top"><path id="kvg:07156-s5" kvg:type="㇒" d="M83.54 11.39c.09.18.18.47-.18.73-2.16 1.54-14.54 4.92-31.49 7"/><path id="kvg:07156-s6" kvg:type="㇒" d="M51.08 26c.03.43.06 1.12-.06 1.74-.67 3.68-4.53 11.75-9.81 16.69"/><path id="kvg:07156-s7" kvg:type="㇔" d="M62.82 24.67c2.5 2.1 6.45 8.65 7.08 11.92"/><path id="kvg:07156-s8" kvg:type="㇔" d="M80.71 22.63c5.08 2.8 13.12 11.51 14.39 15.87"/></g><g id="kvg:07156-g4" kvg:position="bottom"><path id="kvg:07156-s9" kvg:type="㇐" d="M49.98 43.74c1.07.36 3.01.33 4.09.36 6.68.15 20.18-1.35 26.94-2.2 1.76-.22 2.84.17 3.73.35"/><g id="kvg:07156-g5" kvg:element="友"><path id="kvg:07156-s10" kvg:type="㇐" d="M41.38 57.86c1.45.51 4.12.55 5.58.51C59.43 58 76.5 56.5 90.29 55.88c2.42-.11 3.88.24 5.09.5"/><path id="kvg:07156-s11" kvg:type="㇒" d="M63.91 47.32c.27.85.68 1.8.32 3.33-2.73 11.6-9.6 31.64-27.98 42.34"/><g id="kvg:07156-g6" kvg:element="又"><path id="kvg:07156-s12" kvg:type="㇇" d="M62.48 67.55c1.02.2 2.59.46 3.35.4 5.17-.45 11.9-1.53 15.98-2.13 2.18-.32 3.07 1.88 2.12 3.59C78.5 79.25 63.5 93.75 46.69 1e2"/><path id="kvg:07156-s13" kvg:type="㇏" d="M57.02 72.39c3.38.71 22.51 18.55 29.51 22.08 4.7 2.36 6.32 3.1 8.05 3.44"/></g></g></g></g></g></g></svg>