<svg xmlns="http://www.w3.org/2000/svg" width="109" height="109" viewBox="0 0 109 109"><g id="kvg:StrokePaths_07169" style="fill:none;stroke:#000000;stroke-width:3;stroke-linecap:round;stroke-linejoin:round;"><g id="kvg:07169" kvg:element="煩"><g id="kvg:07169-g1" kvg:element="火" kvg:position="left" kvg:radical="general"><path id="kvg:07169-s1" kvg:type="㇔" d="M14.4 39.5c1.22 4.25 2.47 11.38 2.52 16.25"/><path id="kvg:07169-s2" kvg:type="㇒" d="M41.05 32.5c.07 1.38-.16 2.3-.85 3.31C38.88 37.75 35 42.12 30.23 46"/><path id="kvg:07169-s3" kvg:type="㇒" d="M26.28 16c1.05 1.05 1.25 2.25 1.25 4 0 43.76-3.78 59.75-16.03 73"/><path id="kvg:07169-s4" kvg:type="㇔/㇏" d="M27.75 64.5c4.85 2.69 10.97 11.19 12.25 15"/></g><g id="kvg:07169-g2" kvg:element="頁" kvg:position="right"><path id="kvg:07169-s5" kvg:type="㇐" d="M48.39 18.09c2.36.78 5.21.61 7.23.33 9.22-1.27 23.16-2.2 32.5-2.88 2.67-.2 5.42-.31 8.02.58"/><path id="kvg:07169-s6" kvg:type="㇒" d="M69.79 20.29c.04.59-.02 1.16-.18 1.72-.99 2.36-2.29 4.33-4.63 7.93"/><g id="kvg:07169-g3" kvg:element="貝"><g id="kvg:07169-g4" kvg:element="目" kvg:position="top"><path id="kvg:07169-s7" kvg:type="㇑" d="M53.03 31.64c.98.98 1.25 2.3 1.25 3.67.0 1.16.14 22.54.03 35.19-.02 2.29-.03 4.29-.03 5.83"/><path id="kvg:07169-s8" kvg:type="㇕a" d="M55.38 33.76c4.12-.63 26.01-3.51 28.63-3.72 2.18-.17 3.72 1.33 3.72 3.18.0 3.03-.07 24.05-.04 35.15.01 3.54.02 5.88.02 5.93"/><path id="kvg:07169-s9" kvg:type="㇐a" d="M55.33 46.56c8.79-1.02 24.79-2.6 30.94-2.97"/><path id="kvg:07169-s10" kvg:type="㇐a" d="M55.31 59.69c7.52-1.03 23.27-2.52 31.12-3.01"/><path id="kvg:07169-s11" kvg:type="㇐a" d="M55.55 73.06c9.1-1.01 22.76-2.16 31.13-2.67"/></g><g id="kvg:07169-g5" kvg:element="八" kvg:position="bottom"><path id="kvg:07169-s12" kvg:type="㇒" d="M57.88 78.88c.1 1.03-.17 2.24-.97 3.2-2.83 3.38-10.11 9.67-14.8 13.16"/><path id="kvg:07169-s13" kvg:type="㇔" d="M78.62 79.25c5.9 4.55 12.87 12.8 14.48 16.79"/></g></g></g></g></g></svg>