<!DOCTYPE svg PUBLIC "-//W3C//DTD SVG 1.0//EN" "http://www.w3.org/TR/2001/REC-SVG-20010904/DTD/svg10.dtd" [
<!ATTLIST g
xmlns:kvg CDATA #FIXED "http://kanjivg.tagaini.net"
kvg:element CDATA #IMPLIED
kvg:variant CDATA #IMPLIED
kvg:partial CDATA #IMPLIED
kvg:original CDATA #IMPLIED
kvg:part CDATA #IMPLIED
kvg:number CDATA #IMPLIED
kvg:tradForm CDATA #IMPLIED
kvg:radicalForm CDATA #IMPLIED
kvg:position CDATA #IMPLIED
kvg:radical CDATA #IMPLIED
kvg:phon CDATA #IMPLIED >
<!ATTLIST path
xmlns:kvg CDATA #FIXED "http://kanjivg.tagaini.net"
kvg:type CDATA #IMPLIED >
]><svg xmlns="http://www.w3.org/2000/svg" width="109" height="109" viewBox="0 0 109 109"><g id="kvg:StrokePaths_0718f" style="fill:none;stroke:#000000;stroke-width:3;stroke-linecap:round;stroke-linejoin:round;"><g id="kvg:0718f" kvg:element="熏"><g id="kvg:0718f-g1" kvg:position="top"><g id="kvg:0718f-g2" kvg:element="千" kvg:part="1"><g id="kvg:0718f-g3" kvg:element="丿"><path id="kvg:0718f-s1" kvg:type="㇒" d="M72.45 9.17c.12.27-.89 1.7-1.54 1.99-4.96 2.22-17.57 5.88-39.58 8.97"/></g><g id="kvg:0718f-g4" kvg:element="十"><path id="kvg:0718f-s2" kvg:type="㇐" d="M19.49 30.46c1.24.4 4.33.47 5.56.4C44 29.75 63.25 28 84.68 26.62c2.06-.13 3.3.19 4.33.39"/></g></g><g id="kvg:0718f-g5" kvg:element="黑" kvg:variant="true" kvg:original="黒"><g id="kvg:0718f-g6" kvg:element="里" kvg:variant="true"><path id="kvg:0718f-s3" kvg:type="㇑" d="M28.11 38.01c.41.35.92 1.35 1.15 1.79 1.85 3.58 3.59 13.02 4.74 19.7"/><path id="kvg:0718f-s4" kvg:type="㇕" d="M30.37 39.21c13.13-.82 36.65-2.59 46.45-3.28 3.6-.25 5.43 1 5.26 2.3-.43 3.31-3.33 13.43-6 19.24"/><path id="kvg:0718f-s5" kvg:type="㇔" d="M39.77 44.84c2.21 1.16 5.71 4.77 6.27 6.57"/><path id="kvg:0718f-s6" kvg:type="㇒" d="M69.79 42.47c.02.2.04.52-.04.8-.43 1.69-2.87 5.41-6.21 7.69"/><path id="kvg:0718f-s7" kvg:type="㇐" d="M34.22 57.52c9.46-.35 29.81-2.57 42.87-3.14"/><g id="kvg:0718f-g7" kvg:element="千" kvg:part="2"><path id="kvg:0718f-s8" kvg:type="㇑" d="M52.22 19.96c.65.45 2.04 3.36 2.17 4.25.13.9-.08 45.19-.22 50.79"/></g><path id="kvg:0718f-s9" kvg:type="㇐" d="M29.38 66.89c1.03.28 2.92.31 3.96.28 10.75-.32 24.21-3.14 43.99-3.22 1.72.0 2.75.13 3.61.27"/><path id="kvg:0718f-s10" kvg:type="㇐" d="M18.13 76.64c1.48.43 4.2.5 5.68.43 15.43-.73 42.58-3.25 64.13-3.25 2.47.0 3.95.21 5.19.43"/></g></g></g><g id="kvg:0718f-g8" kvg:element="灬" kvg:variant="true" kvg:original="火" kvg:position="bottom" kvg:radical="general"><path id="kvg:0718f-s11" kvg:type="㇔" d="M27.19 86.5c-1.26 5.38-7.31 11.66-8.94 13"/><path id="kvg:0718f-s12" kvg:type="㇔" d="M43.07 83.5c2.99 2.68 7.44 9.81 6.58 14.25"/><path id="kvg:0718f-s13" kvg:type="㇔" d="M62.25 82.25c3.05 2.29 7.5 8.95 7.5 13"/><path id="kvg:0718f-s14" kvg:type="㇔" d="M82.21 81.58c4.27 2.63 11.03 10.8 12.1 14.88"/></g></g></g><g id="kvg:StrokeNumbers_0718f" style="font-size:8;fill:#808080"><text transform="matrix(1 0 0 1 64.50 8.50)">1</text><text transform="matrix(1 0 0 1 10.50 30.50)">2</text><text transform="matrix(1 0 0 1 18.75 46.98)">3</text><text transform="matrix(1 0 0 1 31.75 37.90)">4</text><text transform="matrix(1 0 0 1 34.50 48.50)">5</text><text transform="matrix(1 0 0 1 61.75 45.75)">6</text><text transform="matrix(1 0 0 1 36.50 55.50)">7</text><text transform="matrix(1 0 0 1 45.50 26.50)">8</text><text transform="matrix(1 0 0 1 22.50 67.50)">9</text><text transform="matrix(1 0 0 1 7.50 77.50)">10</text><text transform="matrix(1 0 0 1 18.50 88.50)">11</text><text transform="matrix(1 0 0 1 34.50 89.50)">12</text><text transform="matrix(1 0 0 1 53.50 87.50)">13</text><text transform="matrix(1 0 0 1 72.50 86.50)">14</text></g></svg>