<svg xmlns="http://www.w3.org/2000/svg" width="109" height="109" viewBox="0 0 109 109"><g id="kvg:StrokePaths_07199" style="fill:none;stroke:#000000;stroke-width:3;stroke-linecap:round;stroke-linejoin:round;"><g id="kvg:07199" kvg:element="熙"><g id="kvg:07199-g1" kvg:position="top"><g id="kvg:07199-g2" kvg:position="left"><path id="kvg:07199-s1" kvg:type="㇑" d="M18.62 14.5c1.06 1.06 1.21 2.38 1.21 3.75.0.85.02 28.59.03 41.88.0 2.63.0 4.7.0 5.88"/><g id="kvg:07199-g3" kvg:element="匚" kvg:part="1" kvg:variant="true"><path id="kvg:07199-s2" kvg:type="㇐" d="M20.41 16.54c4.23-.25 19.13-1.81 26.61-2.62 1.84-.2 3.66-.51 5.48-.02"/></g><path id="kvg:07199-s3" kvg:type="㇑" d="M37.85 16.5c.7.7.78 1.5.78 2.75.0 2.65.0 6.88.0 10"/><path id="kvg:07199-s4" kvg:type="㇑" d="M26.88 29.86c.73.71 1.12 1.58 1.18 2.62.5 3.19 1.28 7.44 1.9 11.35.23 1.46.44 2.88.6 4.17"/><path id="kvg:07199-s5" kvg:type="㇕" d="M28.66 31.41c7.04-1.01 14.1-1.98 18.48-2.49 2.49-.29 4.38.08 3.66 3-.82 3.34-1.27 6.15-2.44 10.79"/><path id="kvg:07199-s6" kvg:type="㇐" d="M31.47 45.7c3.84-.38 9.82-.99 15.42-1.59 1.35-.15 2.68-.29 3.95-.43"/><path id="kvg:07199-s7" kvg:type="㇑" d="M39.35 46.5c.7.7.79 1.5.79 2.48.0.54-.02 7.27-.02 10.77"/><g id="kvg:07199-g4" kvg:element="匚" kvg:part="2" kvg:variant="true"><path id="kvg:07199-s8" kvg:type="㇐" d="M21.16 62.54c4.09-.24 19.15-1.71 27.21-2.54 2.11-.22 4.53-.42 6.62.15"/></g></g><g id="kvg:07199-g5" kvg:element="巳" kvg:position="right"><g id="kvg:07199-g6" kvg:element="己" kvg:variant="true"><path id="kvg:07199-s9" kvg:type="㇕" d="M59.25 15.24c1.88.76 3.2.82 4.95.6 5.42-.69 15.56-1.95 19.69-2.43 2.91-.34 4.51 1.16 4.1 4.34-.28 2.17-1.64 9.8-2.54 15.73"/><path id="kvg:07199-s10" kvg:type="㇐" d="M63.25 37.17c2.86-.34 12.1-1.56 20.28-2.48 1.86-.21 3.62-.4 5.18-.56"/><path id="kvg:07199-s11" kvg:type="㇟" d="M61.11 16.3c.98.98 1.25 1.97 1.25 3.7.01 8.27-.12 23.33-.11 27C62.29 59.57 63 61 78.94 61c13.31.0 14.63-1.88 14.63-7.97"/></g></g></g><g id="kvg:07199-g7" kvg:element="灬" kvg:variant="true" kvg:original="火" kvg:position="bottom" kvg:radical="general"><path id="kvg:07199-s12" kvg:type="㇔" d="M22.75 79c0 5.25-5.75 13-7.25 14.5"/><path id="kvg:07199-s13" kvg:type="㇔" d="M40.15 77.12c2.34 2.97 4.09 11.08 4.34 15.66"/><path id="kvg:07199-s14" kvg:type="㇔" d="M60.02 75.51c2.65 2.87 6.38 11.78 6.66 16.21"/><path id="kvg:07199-s15" kvg:type="㇔" d="M80.27 73.01c4.11 4.24 10.17 15.51 10.76 20.96"/></g></g></g></svg>