<svg xmlns="http://www.w3.org/2000/svg" width="109" height="109" viewBox="0 0 109 109"><g id="kvg:StrokePaths_071a8" style="fill:none;stroke:#000000;stroke-width:3;stroke-linecap:round;stroke-linejoin:round;"><g id="kvg:071a8" kvg:element="熨"><g id="kvg:071a8-g1" kvg:element="尉" kvg:position="top"><g id="kvg:071a8-g2" kvg:position="left"><g id="kvg:071a8-g3" kvg:element="尸" kvg:position="tare"><path id="kvg:071a8-s1" kvg:type="㇕c" d="M20.85 13.05c1.05.46 3.1.86 4.21.77 6.03-.51 22.04-2.08 24.46-2.26 1.2-.09 2.6 1.13 2.6 2.5.0 2.3-1.54 4.78-2.46 9.65"/><path id="kvg:071a8-s2" kvg:type="㇐b" d="M23.83 26.79c4.21-.21 25.1-2.28 28.26-2.43"/><path id="kvg:071a8-s3" kvg:type="㇒" d="M22.86 13.69c.89 1.56.67 2.3.67 4.59.0 10.97-.79 30.97-8.79 39.1"/></g><g id="kvg:071a8-g4" kvg:element="示" kvg:variant="true" kvg:position="tarec"><g id="kvg:071a8-g5" kvg:position="top"><path id="kvg:071a8-s4" kvg:type="㇐" d="M29.37 34.19c.79.28 2.25.36 3.04.28 5.78-.59 10.09-1.22 15.7-1.83 1.31-.14 2.12.13 2.78.27"/><path id="kvg:071a8-s5" kvg:type="㇐" d="M24.32 43.73c.88.24 2.51.33 3.38.24 8.13-.82 19.37-2.32 24.91-2.61 1.47-.08 2.35.11 3.09.23"/></g><g id="kvg:071a8-g6" kvg:position="bottom"><path id="kvg:071a8-s6" kvg:type="㇑" d="M40.24 45.04c.07.31.9 1.63.96 3.62.31 9.56-.12 9.51-.12 11.88.0 5.03-2.52 1.81-4.86.12"/><path id="kvg:071a8-s7" kvg:type="㇒" d="M28.38 50.97c.02.21.03.53-.03.82-.4 1.74-2.82 5.13-5.92 7.47"/><path id="kvg:071a8-s8" kvg:type="㇑/㇔" d="M48.97 49.06c1.88 1.15 4.95 4.58 5.43 6.37"/></g></g></g><g id="kvg:071a8-g7" kvg:element="寸" kvg:position="right"><path id="kvg:071a8-s9" kvg:type="㇐" d="M58.13 25.01c.92.21 2.59.27 3.52.21 10.17-.6 19.31-2.19 30.52-2.52 1.53-.04 2.45.1 3.21.21"/><path id="kvg:071a8-s10" kvg:type="㇚" d="M78.48 10.78c.13.38 1.85 1.99 1.85 4.41.0 16.29-.21 36.22-.21 39.82.0 8.74-6.23 1.29-8.05.18"/><path id="kvg:071a8-s11" kvg:type="㇔" d="M62.06 35.25c2.67 1.71 6.9 7.03 7.57 9.68"/></g></g><g id="kvg:071a8-g8" kvg:element="火" kvg:position="bottom" kvg:radical="general"><path id="kvg:071a8-s12" kvg:type="㇔" d="M25.25 69.57c3.09 2.09 8.16 9.04 9 11.13"/><path id="kvg:071a8-s13" kvg:type="㇒" d="M77.58 66.53c.17 1.14.15 1.92-.5 2.72-.65.79-7.32 6.8-10.58 8.66"/><path id="kvg:071a8-s14" kvg:type="㇒" d="M51.93 61.75c.57 1 1.08 2.33 1.07 2.94-.25 17.56-11.25 29.56-34 35.06"/><path id="kvg:071a8-s15" kvg:type="㇏" d="M51.75 75.65c11.75 8.4 26 16.94 33.75 20.44 2.44 1.1 3 .98 5 1.26"/></g></g></g></svg>