<svg xmlns="http://www.w3.org/2000/svg" width="109" height="109" viewBox="0 0 109 109"><g id="kvg:StrokePaths_071be" style="fill:none;stroke:#000000;stroke-width:3;stroke-linecap:round;stroke-linejoin:round;"><g id="kvg:071be" kvg:element="熾"><g id="kvg:071be-g1" kvg:element="火" kvg:position="left" kvg:radical="general"><path id="kvg:071be-s1" kvg:type="㇔" d="M11.99 38.25c1.5 3.52 3.68 13.48 4.09 17"/><path id="kvg:071be-s2" kvg:type="㇒" d="M36.15 31.75c.68.86.94 2.5.32 3.84s-6.91 11.3-10 14.41"/><path id="kvg:071be-s3" kvg:type="㇒" d="M24.53 12.75c.63.79 1.26 2.35 1.25 3.67C25.66 68.92 22.75 83.25 10 93.75"/><path id="kvg:071be-s4" kvg:type="㇔/㇏" d="M25.75 66.5c4.75 3 10.75 12.5 12 16.75"/></g><g id="kvg:071be-g2" kvg:element="音" kvg:part="1" kvg:position="right"><g id="kvg:071be-g3" kvg:position="top"><g id="kvg:071be-g4" kvg:element="立"><path id="kvg:071be-s5" kvg:type="㇑a" d="M54.05 13.25c.78.37 1.25 1.51 1.23 2.39-.08 3.36-.15 8.57-.06 11.42"/><path id="kvg:071be-s6" kvg:type="㇐" d="M41.81 28c.59.08 2.91.48 3.49.42C49 28 59.25 26.5 66.25 25.88c.97-.09 1.54-.14 2.03-.12"/><path id="kvg:071be-s7" kvg:type="㇔" d="M45.16 35c2.68 3.15 4.29 7.1 4.68 9.31"/><path id="kvg:071be-s8" kvg:type="㇒" d="M64.77 32.75c.23 1 .1 3.16-.13 3.55-2.64 4.45-4.69 8.98-6.47 11.2"/><g id="kvg:071be-g5" kvg:element="戈" kvg:part="1"><g id="kvg:071be-g6" kvg:element="弋" kvg:part="1"><path id="kvg:071be-s9" kvg:type="㇐" d="M35 50c1.2.25 2.67.47 3.88.37 21.06-1.63 33.38-3.38 51.6-4.87 2.03-.17 4.3.0 5.52.54"/></g></g></g><g id="kvg:071be-g7" kvg:element="音" kvg:part="2"><g id="kvg:071be-g8" kvg:element="日" kvg:position="bottom"><path id="kvg:071be-s10" kvg:type="㇑" d="M44.94 59.73c.31.69.81 2.3.81 3.25s-.07 25.57-.07 26.52"/><path id="kvg:071be-s11" kvg:type="㇕a" d="M46.28 61.05c1.78-.24 15.35-1.88 16.92-2.46 1.57-.58 2.4-.29 2.3.9-.1 1.19-.51 27.92-.78 29.08"/><path id="kvg:071be-s12" kvg:type="㇐a" d="M46.59 73.81c2.4-.17 14.83-1.73 17.54-1.92"/><path id="kvg:071be-s13" kvg:type="㇐a" d="M46.28 87c3.55-.25 13.06-1.37 17.65-1.69"/></g></g></g><g id="kvg:071be-g9" kvg:element="戈" kvg:part="2"><g id="kvg:071be-g10" kvg:element="弋" kvg:part="2"><path id="kvg:071be-s14" kvg:type="㇂" d="M72.74 14c1.07 1.79 1.63 2.28 1.74 6.15.8 29.46 7.59 64.8 20.03 75.81 4.23 3.75 3.61.77 3.08-7.17"/></g><g id="kvg:071be-g11" kvg:element="丿"><path id="kvg:071be-s15" kvg:type="㇒" d="M89.74 54.15c.07.91.14 2.35-.13 3.65C88 65.5 79.24 83.76 66.56 94.11"/></g><g id="kvg:071be-g12" kvg:element="弋" kvg:part="3"><g id="kvg:071be-g13" kvg:element="丶"><path id="kvg:071be-s16" kvg:type="㇔" d="M83.2 24.26c2.33 2.1 6.07 6.9 7.16 10.5"/></g></g></g></g></g></g></svg>