<svg xmlns="http://www.w3.org/2000/svg" width="109" height="109" viewBox="0 0 109 109"><g id="kvg:StrokePaths_071b9" style="fill:none;stroke:#000000;stroke-width:3;stroke-linecap:round;stroke-linejoin:round;"><g id="kvg:071b9" kvg:element="熹"><g id="kvg:071b9-g1" kvg:element="喜" kvg:position="top"><g id="kvg:071b9-g2" kvg:element="吉" kvg:position="top"><g id="kvg:071b9-g3" kvg:element="士" kvg:position="top"><path id="kvg:071b9-s1" kvg:type="㇐" d="M28.12 19.39c1.4.36 3.98.33 5.38.22 14.62-1.21 27.47-3.73 43.97-4.23 2.34-.07 3.75.06 4.92.23"/><path id="kvg:071b9-s2" kvg:type="㇑a" d="M52.76 8.26c.86.25 1.37 1.22 1.54 1.77.17.56.01 13.13-.16 16.66"/><path id="kvg:071b9-s3" kvg:type="㇐" d="M34.43 28.71c1.14.16 3.23.17 4.37.08C50 28 63.75 26.75 73.43 26.29c1.9-.09 3.04.02 3.99.09"/></g><g id="kvg:071b9-g4" kvg:element="口" kvg:position="bottom"><path id="kvg:071b9-s4" kvg:type="㇑" d="M34.74 35.83c.39.22.79.41.96.68 1.36 2.2 2.99 8.27 3.92 12.22"/><path id="kvg:071b9-s5" kvg:type="㇕b" d="M37.18 37c9.6-.92 29.57-3 34.66-3.86 1.79-.3 3.61 1.16 3.14 2.82-.73 2.55-1.8 4.74-4.1 8.73"/><path id="kvg:071b9-s6" kvg:type="㇐b" d="M40.01 47.27c5.81-.35 25.8-1.89 33.18-2.24"/></g></g><g id="kvg:071b9-g5" kvg:position="bottom"><path id="kvg:071b9-s7" kvg:type="㇔" d="M35.77 49.61c2.49 1.48 6.42 6.09 7.04 8.39"/><path id="kvg:071b9-s8" kvg:type="㇒" d="M70.54 48.51c.01.21.03.56-.03.86-.3 1.82-2.06 5.82-4.46 8.27"/><path id="kvg:071b9-s9" kvg:type="㇐" d="M16.25 62.43c1.94.47 5.5.58 7.43.47 14.28-.86 43.65-4.75 65.28-5.39 3.23-.1 5.17.22 6.79.46"/><g id="kvg:071b9-g6" kvg:element="口"><path id="kvg:071b9-s10" kvg:type="㇑" d="M35.28 67.78c.46.21.93.39 1.13.66 1.59 2.12 2.49 8.97 3.58 12.77"/><path id="kvg:071b9-s11" kvg:type="㇕b" d="M38.14 68.91c11.23-.89 28.41-3.58 34.2-3.25 1.66.09 2.89 2.1 2.59 2.75-1 2.11-1.85 4.76-3.79 8.26"/><path id="kvg:071b9-s12" kvg:type="㇐b" d="M40.45 79.81c6.8-.34 24.76-2.48 33.39-2.82"/></g></g></g><g id="kvg:071b9-g7" kvg:element="灬" kvg:variant="true" kvg:original="火" kvg:position="bottom" kvg:radical="general"><path id="kvg:071b9-s13" kvg:type="㇔" d="M24.94 87.5c0 4.89-5.16 12.1-6.5 13.5"/><path id="kvg:071b9-s14" kvg:type="㇔" d="M39.71 85.83c3.27 2.62 6.37 9.81 7.19 13.88"/><path id="kvg:071b9-s15" kvg:type="㇔" d="M61.82 85.58c3.33 2.36 8.6 9.71 9.43 13.38"/><path id="kvg:071b9-s16" kvg:type="㇔" d="M81.21 84.33c4.69 2.58 12.12 10.62 13.29 14.63"/></g></g></g></svg>