<svg xmlns="http://www.w3.org/2000/svg" width="109" height="109" viewBox="0 0 109 109"><g id="kvg:StrokePaths_071d7" style="fill:none;stroke:#000000;stroke-width:3;stroke-linecap:round;stroke-linejoin:round;"><g id="kvg:071d7" kvg:element="燗"><g id="kvg:071d7-g1" kvg:element="火" kvg:position="left" kvg:radical="general"><path id="kvg:071d7-s1" kvg:type="㇔" d="M11.49 38.25c1.87 3.41 4.58 13.09 5.09 16.5"/><path id="kvg:071d7-s2" kvg:type="㇒" d="M35.11 31.25c.39.75-.01 2.43-.63 3.38-.61.95-5.93 7.4-9.01 9.62"/><path id="kvg:071d7-s3" kvg:type="㇒" d="M22.96 16.25c.66.74 1.31 1.72 1.32 2.94.19 50.51-3.26 60.56-14.03 73.31"/><path id="kvg:071d7-s4" kvg:type="㇔/㇏" d="M24.5 67.25c4.45 2.96 10.08 12.31 11.25 16.5"/></g><g id="kvg:071d7-g2" kvg:element="間" kvg:variant="true" kvg:position="right"><g id="kvg:071d7-g3" kvg:element="門" kvg:position="kamae"><g id="kvg:071d7-g4" kvg:position="left"><path id="kvg:071d7-s5" kvg:type="㇑" d="M40.89 18.16c.6.45 1.06 2.38 1.18 3.27s-.08 66.28-.2 71.84"/><path id="kvg:071d7-s6" kvg:type="㇕a" d="M42.23 19.62c2.01-.1 14.28-2.13 16.1-2.25 1.52-.1 2.81 1.4 2.89 2.19.11 1.21-1.27 23.06-1.27 23.65"/><path id="kvg:071d7-s7" kvg:type="㇐a" d="M42.59 30.78c4.93-.58 13.09-1.59 17.84-2.22"/><path id="kvg:071d7-s8" kvg:type="㇐a" d="M42.23 42.11c6.68-.57 10.76-1 16.66-1.26"/></g><g id="kvg:071d7-g5" kvg:position="right"><path id="kvg:071d7-s9" kvg:type="㇑" d="M72.68 16.3c.34.48.69 1.51.69 2.15.0.64-.12 22.01.0 22.65"/><path id="kvg:071d7-s10" kvg:type="㇆a" d="M73.44 17.73c1.94-.09 17.23-2.38 19-2.49 1.48-.09 2.81.76 2.81 2.49.0 16.2-.39 61-.39 72.75.0 10.01-5.43 1.79-6.56.72"/><path id="kvg:071d7-s11" kvg:type="㇐a" d="M73.78 27.4c2.63.0 17.25-1.52 20.22-1.52"/><path id="kvg:071d7-s12" kvg:type="㇐a" d="M73.94 38.35c3.89.0 15.3-1.35 20.33-1.35"/></g></g><g id="kvg:071d7-g6" kvg:element="日" kvg:variant="true"><g id="kvg:071d7-g7" kvg:element="月"><path id="kvg:071d7-s13" kvg:type="㇓" d="M56.95 51.98c.31.51.51 1.02.61 1.52s-.24 14.05-.24 18.26c0 6.48-.07 12.73-5.82 20.35"/><path id="kvg:071d7-s14" kvg:type="㇆a" d="M58.08 53.47c2.43-.05 15.1-2.13 16.91-2.13 2.63.0 3.54 1.91 3.54 3.3.0 2.79-.61 14.71-.61 30.53.0 10.89-3.59 4.65-5.66 3.34"/><path id="kvg:071d7-s15" kvg:type="㇐a" d="M58.08 64c5.32-.3 14.47-1.26 19.15-1.29"/><path id="kvg:071d7-s16" kvg:type="㇐a" d="M58.01 75.16c4.38-.07 13.86-.6 19.81-.97"/></g></g></g></g></g></svg>