<svg xmlns="http://www.w3.org/2000/svg" width="109" height="109" viewBox="0 0 109 109"><g id="kvg:StrokePaths_071e6" style="fill:none;stroke:#000000;stroke-width:3;stroke-linecap:round;stroke-linejoin:round;"><g id="kvg:071e6" kvg:element="燦"><g id="kvg:071e6-g1" kvg:element="火" kvg:position="left" kvg:radical="general"><path id="kvg:071e6-s1" kvg:type="㇔" d="M8.25 36.62c2.49 3.43 6.11 13.14 6.79 16.56"/><path id="kvg:071e6-s2" kvg:type="㇒" d="M32.82 28.97c.18 1.03-.04 2.07-.56 3.11s-5.23 8.72-7.83 11.16"/><path id="kvg:071e6-s3" kvg:type="㇒" d="M20.77 14.75c1.05 1.05 1.4 2.57 1.39 3.88C22.05 70.48 21.62 80 8.75 95.5"/><path id="kvg:071e6-s4" kvg:type="㇔/㇏" d="M23.88 68.12c3.76 2.62 8.5 10.9 9.49 14.61"/></g><g id="kvg:071e6-g2" kvg:element="粲" kvg:position="right"><g id="kvg:071e6-g3" kvg:position="top"><g id="kvg:071e6-g4" kvg:position="left"><g id="kvg:071e6-g5" kvg:element="卜" kvg:original="ト" kvg:position="top"><path id="kvg:071e6-s5" kvg:type="㇑" d="M49.39 12.38c.8.8 1.02 1.62 1.02 2.73.0.34-.03 9.5-.03 14.51"/><path id="kvg:071e6-s6" kvg:type="㇐" d="M51.62 21.04c4.13-.79 5.88-1.16 7.45-1.47.62-.12 1.76-.25 2.27-.16"/></g><g id="kvg:071e6-g6" kvg:element="夕" kvg:position="bottom"><path id="kvg:071e6-s7" kvg:type="㇒" d="M42.9 24.74c-.02.88-.14 1.96-.42 2.79-1.26 3.67-3.98 9.58-7.77 14.48"/><path id="kvg:071e6-s8" kvg:type="㇇" d="M43.71 31.46c.79.29 1.54.16 2.57-.07 1.61-.35 9.21-2.63 12.46-3.5 1.49-.4 3.54.96 2.71 2.83C57.49 39.6 46.7 51.87 34.28 57"/><path id="kvg:071e6-s9" kvg:type="㇔" d="M42 37.38c2.28 1.15 5.9 4.71 6.47 6.49"/></g></g><g id="kvg:071e6-g7" kvg:element="又" kvg:position="right"><path id="kvg:071e6-s10" kvg:type="㇇" d="M68.71 19.79c.84.19 2.19.48 3.86.19s12.68-3.01 13.83-3.3c2.23-.56 3.18 1.23 2.24 3C83.88 28.62 73.88 39.38 65 45.25"/><path id="kvg:071e6-s11" kvg:type="㇔/㇏" d="M69.17 26.52C75 29 86.19 37.73 90.88 44.18"/></g></g><g id="kvg:071e6-g8" kvg:element="米" kvg:position="bottom"><path id="kvg:071e6-s12" kvg:type="㇔" d="M46.21 55.33c1.94 1.47 4.86 5.63 5.35 7.92"/><path id="kvg:071e6-s13" kvg:type="㇒" d="M81.98 50.39c.07.87-.06 1.71-.4 2.52-1.33 2.47-2.77 4.63-6.47 8.81"/><path id="kvg:071e6-s14" kvg:type="㇐" d="M35.56 67.12c2.47.49 4.82.36 7.31.13 9.13-.81 32.58-2.78 43.51-3.39 2.46-.14 5.12-.24 7.48.09"/><path id="kvg:071e6-s15" kvg:type="㇑" d="M61.75 49.75c.88.88 1.15 2 1.15 3.28.0.64.06 25.02.08 37.85.01 3.18.01 5.66.01 6.88"/><path id="kvg:071e6-s16" kvg:type="㇒" d="M59.75 66.5c0 1.25-.33 2.13-1.1 3.23-5.99 8.51-15.9 17.37-27.51 22.02"/><path id="kvg:071e6-s17" kvg:type="㇏" d="M65.12 66.88c3.75 3.75 14.2 13.65 21.22 19.41 2.4 1.97 4.78 3.34 7.18 4.47"/></g></g></g></g></svg>