<svg xmlns="http://www.w3.org/2000/svg" width="109" height="109" viewBox="0 0 109 109"><g id="kvg:StrokePaths_071f9" style="fill:none;stroke:#000000;stroke-width:3;stroke-linecap:round;stroke-linejoin:round;"><g id="kvg:071f9" kvg:element="燹"><g id="kvg:071f9-g1" kvg:position="top"><g id="kvg:071f9-g2" kvg:element="豕" kvg:position="left"><path id="kvg:071f9-s1" kvg:type="㇐" d="M17.77 16.49c.97.45 2.74.55 3.71.45 6.93-.71 14.81-2.45 25.71-2.64 1.61-.03 2.58.22 3.39.44"/><path id="kvg:071f9-s2" kvg:type="㇒" d="M34.16 18.02c.04.31.09.8-.08 1.25-1.02 2.63-6.85 8.4-14.83 11.94"/><path id="kvg:071f9-s3" kvg:type="㇁" d="M32.62 24.25c5.38 5.75 7.41 14.19 5.4 25.2-1.52 8.31-5.68 2.02-6.31 1.52"/><path id="kvg:071f9-s4" kvg:type="㇒" d="M32.08 28.78c.04.27.08.7-.07 1.09-.86 2.3-5.82 7.36-12.61 10.45"/><path id="kvg:071f9-s5" kvg:type="㇒" d="M34.94 35.25c.04.31.08.81-.08 1.25-.98 2.64-6.63 8.45-14.35 12"/><path id="kvg:071f9-s6" kvg:type="㇒" d="M47.31 21.95c.02.21.05.55-.05.86-.59 1.8-3.97 5.76-8.6 8.19"/><path id="kvg:071f9-s7" kvg:type="㇏" d="M39.49 34.37c3.82 1.98 8.79 7.15 10.1 12.06"/></g><g id="kvg:071f9-g3" kvg:element="豕" kvg:position="right"><path id="kvg:071f9-s8" kvg:type="㇐" d="M58.02 15.8c.83.42 2.36.51 3.19.42 5.96-.66 16.59-2.8 25.96-2.99 1.39-.03 2.22.2 2.91.41"/><path id="kvg:071f9-s9" kvg:type="㇒" d="M71.41 16.25c.04.28.08.72-.08 1.12-.91 2.37-6.16 7.57-13.34 10.76"/><path id="kvg:071f9-s10" kvg:type="㇁" d="M68.62 23c7.22 7.72 10.95 17.1 6.9 28.41-2.32 6.48-5.68 2.19-6.31 1.65"/><path id="kvg:071f9-s11" kvg:type="㇒" d="M68.59 28.33c.03.25.07.66-.07 1.02-.79 2.15-5.36 6.86-11.61 9.75"/><path id="kvg:071f9-s12" kvg:type="㇒" d="M72.44 34.27c.04.33.08.85-.08 1.32-.93 2.78-6.29 8.88-13.61 12.62"/><path id="kvg:071f9-s13" kvg:type="㇒" d="M86.81 22.1c.02.25.05.66-.05 1.02-.56 2.16-3.74 6.89-8.11 9.79"/><path id="kvg:071f9-s14" kvg:type="㇏" d="M77.74 36.61c4.86 2.12 11.18 7.68 12.85 12.95"/></g></g><g id="kvg:071f9-g4" kvg:element="火" kvg:position="bottom" kvg:radical="general"><path id="kvg:071f9-s15" kvg:type="㇔" d="M27.5 64.43c3.52 2.63 9.29 11.41 10.25 14.04"/><path id="kvg:071f9-s16" kvg:type="㇒" d="M79.26 61.5c.24 1.25.24 2.21-.5 3.15s-8.33 8.06-12.01 10.24"/><path id="kvg:071f9-s17" kvg:type="㇒" d="M53.42 54.5c.83 1 1.09 2.08 1.08 2.79C54 82.5 37.25 94 19.75 98.75"/><path id="kvg:071f9-s18" kvg:type="㇏" d="M52.75 71.01c10.99 10.38 24.32 20.93 31.57 25.26 2.28 1.36 2.81 1.21 4.68 1.56"/></g></g></g></svg>