<svg xmlns="http://www.w3.org/2000/svg" width="109" height="109" viewBox="0 0 109 109"><g id="kvg:StrokePaths_0722d" style="fill:none;stroke:#000000;stroke-width:3;stroke-linecap:round;stroke-linejoin:round;"><g id="kvg:0722d" kvg:element="爭"><g id="kvg:0722d-g1" kvg:element="⺤" kvg:variant="true" kvg:original="爪" kvg:position="top" kvg:radical="general"><path id="kvg:0722d-s1" kvg:type="㇒" d="M73.44 9.39c.06 1.11-1.05 2.21-1.73 2.5-3.71 1.61-17.5 5.24-39.65 8.07"/><path id="kvg:0722d-s2" kvg:type="㇒" d="M32.27 26.14c.04.4.08 1.04-.07 1.62-.9 3.41-6.06 10.88-13.13 15.46"/><path id="kvg:0722d-s3" kvg:type="㇔" d="M48.77 24.33c2.57 1.92 6.65 7.9 7.29 10.88"/><path id="kvg:0722d-s4" kvg:type="㇔" d="M74.02 21.08c5.04 2.23 13.03 9.17 14.29 12.63"/></g><g id="kvg:0722d-g2" kvg:position="bottom"><g id="kvg:0722d-g3" kvg:element="⺕" kvg:variant="true" kvg:original="彑"><path id="kvg:0722d-s5" kvg:type="㇕" d="M30 42.25c2 .25 3.7.66 6 .5 14-1 27.75-3 41-3.75 3.24-.18 4 1.75 3.5 4.25-1.31 6.54-2 15-3 23"/><path id="kvg:0722d-s6" kvg:type="㇐" d="M15.25 56.5c2.42.25 4.31.73 6.98.5 23.37-2 50.77-4.5 69.3-5.25 2.96-.12 5.37.5 6.71.75"/><path id="kvg:0722d-s7" kvg:type="㇐c" d="M29.5 70.18c1.25.15 3.51.54 5 .46 13.75-.76 29.75-3.48 42.25-3.79 2-.05 3.25.0 4.75.15"/></g><g id="kvg:0722d-g4" kvg:element="亅"><path id="kvg:0722d-s8" kvg:type="㇚" d="M53.08 43.33c.67.92 1.91 3.01 1.98 6.06.31 14.66-.2 38.55-.2 43.55.0 10.56-6.92.2-7.8-.75"/></g></g></g></g></svg>