<svg xmlns="http://www.w3.org/2000/svg" width="109" height="109" viewBox="0 0 109 109"><g id="kvg:StrokePaths_0723e"><g id="kvg:0723e" kvg:element="爾"><g id="kvg:0723e-g1" kvg:element="一" kvg:radical="nelson"><path id="kvg:0723e-s1" kvg:type="㇐" d="M26.75 17.9c3.12.6 6.31.17 9.13-.11 9.91-.96 26.17-2.73 36.24-3.33 3-.18 6.15-.49 9.12.16"/></g><g id="kvg:0723e-g2" kvg:element="八"><g id="kvg:0723e-g3" kvg:position="left"><path id="kvg:0723e-s2" kvg:type="㇒" d="M40.48 23.14c-.23.98-.84 1.82-1.61 2.55-3.62 3.43-11.12 8.68-24.57 14.52"/></g><g id="kvg:0723e-g4" kvg:position="right"><path id="kvg:0723e-s3" kvg:type="㇏" d="M71.02 22.58c7.07 1.96 18.27 8.08 20.04 11.13"/></g></g><g id="kvg:0723e-g5" kvg:element="冂"><path id="kvg:0723e-s4" kvg:type="㇑" d="M23.22 40.38c1.07 1.07 1.12 2.53 1.12 4.48.0 5.15-.02 32.67-.03 46.39.0 3.98.0 6.77.0 7.5"/><path id="kvg:0723e-s5" kvg:type="㇆a" d="M25.34 42.03c8.24-.86 49.79-3.91 54.06-4.3 3.51-.32 5.14.77 5.14 3.83.0 5.19-.15 44.87-.15 49.81.0 13.12-5.18 4.08-7.79 1.29"/></g><path id="kvg:0723e-s6" kvg:type="㇑" d="M52.97 18.38c1.14 1.14 1.37 2.87 1.37 4.73.0 4.12-.02 45.33-.03 63.14.0 4.39.0 7.36.0 8"/><g id="kvg:0723e-g6" kvg:element="爻" kvg:variant="true" kvg:radical="tradit"><g id="kvg:0723e-g7" kvg:element="乂" kvg:variant="true" kvg:position="top"><path id="kvg:0723e-s7" kvg:type="㇒" d="M45.33 46.89c.13 1.1-.07 2.13-.61 3.09-2.35 3.89-6.96 9.6-13.42 14.98"/><path id="kvg:0723e-s8" kvg:type="㇔/㇏" d="M34.23 51.9c4.95 1.97 9.77 6.64 12.08 10.11"/></g><g id="kvg:0723e-g8" kvg:element="乂" kvg:variant="true" kvg:position="bottom"><path id="kvg:0723e-s9" kvg:type="㇒" d="M44.83 69.14c.09 1.19-.04 2.27-.44 3.41-1.62 4.58-7.03 11.52-13.59 18.67"/><path id="kvg:0723e-s10" kvg:type="㇔/㇏" d="M33.98 75.65c4.27 2.47 9.27 8.1 11.83 13.36"/></g></g><g id="kvg:0723e-g9" kvg:element="爻" kvg:variant="true" kvg:radical="tradit"><g id="kvg:0723e-g10" kvg:element="乂" kvg:variant="true" kvg:position="top"><path id="kvg:0723e-s11" kvg:type="㇒" d="M75.77 45.14c.13 1.09-.08 2.11-.69 3.02-2.45 3.71-7.7 8.71-14.77 13.8"/><path id="kvg:0723e-s12" kvg:type="㇔/㇏" d="M62.67 49.88c4.95 1.87 10.95 6.37 13.89 10.8"/></g><g id="kvg:0723e-g11" kvg:element="乂" kvg:variant="true" kvg:position="bottom"><path id="kvg:0723e-s13" kvg:type="㇒" d="M75.33 67.14c.12 1.06-.06 2.06-.53 3.01-1.6 3.81-6.48 9.64-13 15.07"/><path id="kvg:0723e-s14" kvg:type="㇔/㇏" d="M64.47 71.4C69.5 74 75.5 79.75 78.31 83.77"/></g></g></g></g></svg>