<svg xmlns="http://www.w3.org/2000/svg" width="109" height="109" viewBox="0 0 109 109"><g id="kvg:StrokePaths_0723c" style="fill:none;stroke:#000000;stroke-width:3;stroke-linecap:round;stroke-linejoin:round;"><g id="kvg:0723c" kvg:element="爼"><g id="kvg:0723c-g1" kvg:element="爻" kvg:position="left" kvg:radical="general"><g id="kvg:0723c-g2" kvg:element="乂" kvg:position="top"><path id="kvg:0723c-s1" kvg:type="㇒" d="M43.69 14.39c.09.81.18 2.1-.17 3.27-2.1 6.9-14.18 22.04-30.71 31.3"/><path id="kvg:0723c-s2" kvg:type="㇏" d="M18.41 21.77C28.25 25.5 40.5 36 45.56 44.17"/></g><g id="kvg:0723c-g3" kvg:element="乂" kvg:position="bottom"><path id="kvg:0723c-s3" kvg:type="㇒" d="M43.51 51.64c.09.92.18 2.38-.17 3.7-2.06 7.8-13.87 24.9-30.03 35.38"/><path id="kvg:0723c-s4" kvg:type="㇏" d="M20 58.95c9.9 3.9 22.22 14.87 27.31 23.41"/></g></g><g id="kvg:0723c-g4" kvg:element="且" kvg:position="right"><g id="kvg:0723c-g5" kvg:element="月"><path id="kvg:0723c-s5" kvg:type="㇑a" d="M58.13 20.09c.53 1.03.88 2.05 1.06 3.06.18 1.01.39 63.58.32 65.81"/><path id="kvg:0723c-s6" kvg:type="㇕b" d="M60.24 21.23c2.05-.1 20.83-2.48 22.35-2.66 2.73-.31 3.77 3.51 3.44 4.98-.33 1.41-.16 43.71-.26 63.89"/><path id="kvg:0723c-s7" kvg:type="㇐a" d="M60.31 43.4c7.94-.65 18.43-.94 24.58-1.25"/><path id="kvg:0723c-s8" kvg:type="㇐a" d="M60.72 63.86c5.46-.36 17.41-.76 23.72-.81"/></g><g id="kvg:0723c-g6" kvg:element="一"><path id="kvg:0723c-s9" kvg:type="㇐" d="M39.54 90.24c1.3.51 3.68.59 4.98.51 13.51-.85 37.97-2.42 51.57-2.42 2.17.0 3.46.24 4.55.5"/></g></g></g></g></svg>