<svg xmlns="http://www.w3.org/2000/svg" width="109" height="109" viewBox="0 0 109 109"><g id="kvg:StrokePaths_0724c" style="fill:none;stroke:#000000;stroke-width:3;stroke-linecap:round;stroke-linejoin:round;"><g id="kvg:0724c" kvg:element="牌"><g id="kvg:0724c-g1" kvg:element="片" kvg:position="left" kvg:radical="general"><path id="kvg:0724c-s1" kvg:type="㇒" d="M19.07 22.79c.68 1.21 1.37 2.6 1.37 4 0 44.68-3.46 53.65-7.85 63.17"/><path id="kvg:0724c-s2" kvg:type="㇑a" d="M33.36 18.5c.66.38 1.61 2.22 1.59 3.3-.05 3.41-.05 17.86-.05 20.96"/><path id="kvg:0724c-s3" kvg:type="㇐b" d="M20.53 45.2C25 44.52 37.5 42.75 43.3 42.11c.78-.09 1.12-.12 1.85-.12"/><path id="kvg:0724c-s4" kvg:type="㇕" d="M20.21 62.41c.19-.02 1.66.35 2.35.17 5.01-1.33 9.69-2.08 12.95-2.9 1.21-.3 2.77.66 2.77 2.82.0 1.39-.25 29.79-.25 30.47"/></g><g id="kvg:0724c-g2" kvg:element="卑" kvg:position="right"><g id="kvg:0724c-g3" kvg:position="top"><g id="kvg:0724c-g4" kvg:element="丿"><path id="kvg:0724c-s5" kvg:type="㇒" d="M71.01 11.14c.04.4.09 1.02-.08 1.59-.98 3.36-6.64 10.72-14.38 15.23"/></g><g id="kvg:0724c-g5" kvg:element="田"><path id="kvg:0724c-s6" kvg:type="㇑" d="M51.49 28.59c.29.43.3.73.46 1.27 1.33 4.46 2.58 16.02 3.4 24.35"/><path id="kvg:0724c-s7" kvg:type="㇕a" d="M52.87 29.69c10.29-1.12 28.73-2.96 36.42-3.9 2.82-.35 3.92.6 3.72 2.96-.38 4.52-2.26 15.25-4.54 22.84"/><path id="kvg:0724c-s8" kvg:type="㇐a" d="M54.79 40.73c3.35-.44 32.3-3.66 35.07-3.84"/><path id="kvg:0724c-s9" kvg:type="㇐a" d="M55.89 52.21c7.41-.48 22.35-1.98 32.58-2.76"/><path id="kvg:0724c-s10" kvg:type="㇑a" d="M69.7 28.97c.85 1.07 1.28 1.22 1.3 1.92.267735 6.31 2.707625 13.627467-.90711 20.568555-3.614735 6.941089-7.410317 11.731313-12.886944 16.021695"/></g></g><g id="kvg:0724c-g6" kvg:position="bottom"><g id="kvg:0724c-g7" kvg:element="十"><path id="kvg:0724c-s11" kvg:type="㇐" d="M45.25 72.81c.65.25 2.4.93 4.14.75 11.72-1.24 33.75-4.82 44.88-5.06 1.74-.04 3.15.07 4.24.32"/><path id="kvg:0724c-s12" kvg:type="㇑" d="M76.37 54.75c1.09.5 1.96 2.23 1.96 3.25.0 4 .28 27.75.28 39"/></g></g></g></g></g></svg>