<svg xmlns="http://www.w3.org/2000/svg" width="109" height="109" viewBox="0 0 109 109"><g id="kvg:StrokePaths_07247" style="fill:none;stroke:#000000;stroke-width:3;stroke-linecap:round;stroke-linejoin:round;"><g id="kvg:07247" kvg:element="片" kvg:radical="general"><path id="kvg:07247-s1" kvg:type="㇒" d="M32.9 17.47c1.07 1.07 1.5 2.75 1.5 4.34.0 50.45-8.15 60.7-19.9 71.45"/><path id="kvg:07247-s2" kvg:type="㇑a" d="M62.54 12.75c.92.92 1.37 2.12 1.37 4.02.0 3.9-.04 16.18-.04 19.73"/><path id="kvg:07247-s3" kvg:type="㇐b" d="M35.35 41.27c10.77-1.02 30.16-3.55 42.52-5.43 2.69-.41 5.75-.84 8.13-.59"/><path id="kvg:07247-s4" kvg:type="㇕" d="M34.94 62.07c2.68.18 4.85.19 7.41-.2 10-1.54 22.53-3.81 26.5-4.63 2.39-.49 4.61.76 4.61 3.22.0 5.54-.15 23.54-.15 28.29.0 4.48-.07 5.65-.07 8.5"/></g></g></svg>