<!DOCTYPE svg PUBLIC "-//W3C//DTD SVG 1.0//EN" "http://www.w3.org/TR/2001/REC-SVG-20010904/DTD/svg10.dtd" [
<!ATTLIST g
xmlns:kvg CDATA #FIXED "http://kanjivg.tagaini.net"
kvg:element CDATA #IMPLIED
kvg:variant CDATA #IMPLIED
kvg:partial CDATA #IMPLIED
kvg:original CDATA #IMPLIED
kvg:part CDATA #IMPLIED
kvg:number CDATA #IMPLIED
kvg:tradForm CDATA #IMPLIED
kvg:radicalForm CDATA #IMPLIED
kvg:position CDATA #IMPLIED
kvg:radical CDATA #IMPLIED
kvg:phon CDATA #IMPLIED >
<!ATTLIST path
xmlns:kvg CDATA #FIXED "http://kanjivg.tagaini.net"
kvg:type CDATA #IMPLIED >
]><svg xmlns="http://www.w3.org/2000/svg" width="109" height="109" viewBox="0 0 109 109"><g id="kvg:StrokePaths_0725d" style="fill:none;stroke:#000000;stroke-width:3;stroke-linecap:round;stroke-linejoin:round;"><g id="kvg:0725d" kvg:element="牝"><g id="kvg:0725d-g1" kvg:element="牛" kvg:variant="true" kvg:position="left" kvg:radical="general"><path id="kvg:0725d-s1" kvg:type="㇒" d="M23.77 27.14c.03.61.07 1.57-.07 2.44-.85 5.15-5.72 16.46-12.39 23.38"/><path id="kvg:0725d-s2" kvg:type="㇐" d="M22.75 40.75c6.75-.75 21-4 22.25-4s2.5.0 3.75.25"/><path id="kvg:0725d-s3" kvg:type="㇑" d="M34.87 12.75c1.09.5 1.74 2.25 1.96 3.25s0 74.75-.22 81"/><path id="kvg:0725d-s4" kvg:type="㇀" d="M14.5 70.45c1.99 1.31 3.64 1.87 5.63.75C21.3 70.54 41.04 59.18 46 56"/></g><g id="kvg:0725d-g2" kvg:element="匕" kvg:position="right"><path id="kvg:0725d-s5" kvg:type="㇒" d="M91.93 31.96c.21.37.35 1.44-.2 2.01C88.16 37.63 75.9 47.74 64.36 51.5"/><path id="kvg:0725d-s6" kvg:type="㇟" d="M59.5 15.25c1.2 1.28 1.28 2.14 1.68 3.85s.13 54.97.13 66.62 9.76 9.79 18.07 9.79C95.72 95.51 96 92.26 96 84.09"/></g></g></g><g id="kvg:StrokeNumbers_0725d" style="font-size:8;fill:#808080"><text transform="matrix(1 0 0 1 15.50 25.50)">1</text><text transform="matrix(1 0 0 1 27.50 37.50)">2</text><text transform="matrix(1 0 0 1 25.50 12.50)">3</text><text transform="matrix(1 0 0 1 7.50 70.50)">4</text><text transform="matrix(1 0 0 1 82.50 31.50)">5</text><text transform="matrix(1 0 0 1 50.50 15.50)">6</text></g></svg>