<svg xmlns="http://www.w3.org/2000/svg" width="109" height="109" viewBox="0 0 109 109"><g id="kvg:StrokePaths_07269"><g id="kvg:07269" kvg:element="物"><g id="kvg:07269-g1" kvg:element="牛" kvg:variant="true" kvg:position="left" kvg:radical="general"><path id="kvg:07269-s1" kvg:type="㇒" d="M24.27 24.64c.03.65.07 1.68-.06 2.61-.78 5.5-5.26 17.57-11.4 24.96"/><path id="kvg:07269-s2" kvg:type="㇐" d="M24.25 38.75c1 .12 2.08-.01 3.24-.19 6.4-1 11.5-2.03 15.64-2.93 1.75-.38 3.57-.44 5.12-.13"/><path id="kvg:07269-s3" kvg:type="㇑" d="M35.37 13.75c1.19 1.19 1.46 2.88 1.46 4 0 .88-.16 52.04-.21 71.5-.01 3.29-.01 5.67-.01 6.75"/><path id="kvg:07269-s4" kvg:type="㇀" d="M14.83 70.21c1.28.62 2.49.68 3.86-.21C19.84 69.27 39.15 56.56 44 53"/></g><g id="kvg:07269-g2" kvg:element="勿" kvg:position="right" kvg:phon="勿"><g id="kvg:07269-g3" kvg:element="勹"><path id="kvg:07269-s5" kvg:type="㇒" d="M67.27 15.75c.05.66.2 1.74-.1 2.66-2.36 7.42-7.99 16.52-17.29 25.46"/><path id="kvg:07269-s6" kvg:type="㇆" d="M59.25 38.66c1.75.47 3.07.46 5.16.17 6.96-.96 18.71-3.46 25.66-4.75 5.08-.95 6.2 2.13 5.42 6.59-.77 4.47-5.95 37.3-17.3 49.42-3.41 3.64-5.21 1.6-8.26-1.06"/></g><path id="kvg:07269-s7" kvg:type="㇒" d="M66.26 41.88c.06.64.07 1.99-.36 2.83-4.54 8.79-9.7 16.04-20.02 24.7"/><path id="kvg:07269-s8" kvg:type="㇒" d="M79.62 39.6c.51 1.27.41 2.72-.16 4.11-4.52 11.13-11.71 24.8-27.21 39.28"/></g></g></g></svg>