<svg xmlns="http://www.w3.org/2000/svg" width="109" height="109" viewBox="0 0 109 109"><g id="kvg:StrokePaths_07282" style="fill:none;stroke:#000000;stroke-width:3;stroke-linecap:round;stroke-linejoin:round;"><g id="kvg:07282" kvg:element="犂"><g id="kvg:07282-g1" kvg:position="top"><g id="kvg:07282-g2" kvg:element="禾" kvg:position="left"><g id="kvg:07282-g3" kvg:element="丿" kvg:position="top"><path id="kvg:07282-s1" kvg:type="㇒" d="M43.51 10.5c.06.26.13.67-.12 1.04-1.47 2.19-9.88 7.01-21.39 9.96"/></g><g id="kvg:07282-g4" kvg:element="木" kvg:position="bottom"><path id="kvg:07282-s2" kvg:type="㇐" d="M13.62 32.35c.37.21 1.36.55 2.35.62 2.72.21 25.6-3.11 32.41-4.14.99-.15 1.24-.21 1.86.0"/><path id="kvg:07282-s3" kvg:type="㇑" d="M34.83 20.66c.37.41 1.08 2.86 1.16 3.69.07.83.0 24.23-.07 29.4"/><path id="kvg:07282-s4" kvg:type="㇒" d="M33.43 31.47C30.25 38.75 25 46.5 15.25 51.75"/><path id="kvg:07282-s5" kvg:type="㇏" d="M38.75 36.75c3.67 1.75 6.77 5.25 8.75 7.5"/></g></g><g id="kvg:07282-g5" kvg:position="right"><g id="kvg:07282-g6" kvg:element="勹"><g id="kvg:07282-g7" kvg:element="丿"><path id="kvg:07282-s6" kvg:type="㇒" d="M65.89 11c.03.51.06 1.33-.06 2.06-.67 4.35-4.54 13.9-9.83 19.75"/></g><path id="kvg:07282-s7" kvg:type="㇆" d="M66.42 22.38c.58.35 2.88.35 3.83.24 3-.37 16.58-2.74 18.92-2.85 2.33-.12 4.03 1.22 3.45 3.65-1.87 7.84-5.6 17.97-9.17 25.62-2.2 4.72-4.95 3.18-6.7.94"/></g><g id="kvg:07282-g8" kvg:element="丿"><path id="kvg:07282-s8" kvg:type="㇒" d="M74.77 24.64c.04.49.08 1.27-.07 1.97-.88 4.15-5.95 13.27-12.89 18.85"/></g></g></g><g id="kvg:07282-g9" kvg:element="牛" kvg:position="bottom" kvg:radical="general"><path id="kvg:07282-s9" kvg:type="㇒" d="M42.54 53.36c.04.47.08 1.21-.08 1.88-.93 3.97-6.29 12.68-13.63 18.02"/><path id="kvg:07282-s10" kvg:type="㇐" d="M40.55 64.7c.9.3 2.56.36 3.46.3 11.07-.82 20.76-1.92 30.7-2.96 1.49-.16 2.41.14 3.16.29"/><path id="kvg:07282-s11" kvg:type="㇐" d="M17.69 80.78c1.77.51 5.03.6 6.8.51C39.5 80.5 69 77.5 88.86 77.39c2.96-.02 4.73.24 6.21.5"/><path id="kvg:07282-s12" kvg:type="㇑" d="M54.38 49.38c.73.35 2.27 2.61 2.41 3.3.15.7-.09 44.46-.24 48.81"/></g></g></g></svg>