<svg xmlns="http://www.w3.org/2000/svg" width="109" height="109" viewBox="0 0 109 109"><g id="kvg:StrokePaths_07280"><g id="kvg:07280" kvg:element="犀"><g id="kvg:07280-g1" kvg:element="尸" kvg:position="tare" kvg:radical="nelson"><path id="kvg:07280-s1" kvg:type="㇕c" d="M26.18 15.9c2.92.73 5.85.82 8.81.54 12.88-1.19 28.88-2.57 40.65-3.46 5.06-.38 6.51.99 5.49 4.64-.89 3.17-1.12 3.88-2.5 7.94"/><path id="kvg:07280-s2" kvg:type="㇐b" d="M31.15 29.42c4.32-.19 28.58-1.7 41.61-2.46 3.58-.21 6.31-.36 7.55-.41"/><path id="kvg:07280-s3" kvg:type="㇒" d="M29.58 17.33c.79.79.93 1.8.92 2.92-.38 25-5.5 53.12-17 66.25"/></g><g id="kvg:07280-g2" kvg:position="tarec"><path id="kvg:07280-s4" kvg:type="㇑" d="M57.27 32.08c.98.92 1.26 2.04 1.26 4.27.0 2.44-.01 5.58-.01 8.77.0 2.07-.01 4.17-.01 6.12"/><g id="kvg:07280-g3" kvg:element="二"><path id="kvg:07280-s5" kvg:type="㇐" d="M36.25 38.18c1 .13 2 .3 3 .21 3.25-.27 6.12-.39 9.24-.7 1.06-.1 2.09-.15 3.13.02"/><path id="kvg:07280-s6" kvg:type="㇐" d="M35 48.18c1.12.13 2.25.3 3.38.21 3.25-.26 6.85-.73 9.51-.94 1.17-.16 2.33-.16 3.49.02"/></g><g id="kvg:07280-g4" kvg:element="二"><path id="kvg:07280-s7" kvg:type="㇐" d="M67.25 36.43c1.12.14 2.25.28 3.38.21 2.96-.19 7.18-.73 9.75-.95 1-.15 2-.14 3 .03"/><path id="kvg:07280-s8" kvg:type="㇐" d="M67.5 45.95c1 .12 2 .26 3 .24 3.75-.06 9.15-1.07 11.98-1.32.89-.11 1.77-.09 2.65.07"/></g><g id="kvg:07280-g5" kvg:element="牛" kvg:radical="tradit"><path id="kvg:07280-s9" kvg:type="㇒" d="M42.36 55.98c0 1.02-.19 2.25-.73 3.23C39 64 36.38 68.25 30.9 74.33"/><path id="kvg:07280-s10" kvg:type="㇐" d="M41.26 66.65c2.25.22 4.5.28 6.75.19 8.42-.67 20.01-1.76 27.86-2.52 2.05-.37 4.11-.41 6.16-.11"/><path id="kvg:07280-s11" kvg:type="㇐" d="M24.87 79.73c3.96.38 7.92.53 11.89.14 12.99-1.25 28.9-2.34 43.62-2.72 3.91-.1 7.5-.03 11.51.64"/><path id="kvg:07280-s12" kvg:type="㇑" d="M57.79 55.88c.92.92 1.09 2.12 1.07 3.23C58.85 59.46 58.84 79 58.8 91.12c-.01 4.79-.03 8.42-.05 9.25"/></g></g></g></g></svg>