<svg xmlns="http://www.w3.org/2000/svg" width="109" height="109" viewBox="0 0 109 109"><g id="kvg:StrokePaths_07296" style="fill:none;stroke:#000000;stroke-width:3;stroke-linecap:round;stroke-linejoin:round;"><g id="kvg:07296" kvg:element="犖"><g id="kvg:07296-g1" kvg:element="𤇾" kvg:position="top"><g id="kvg:07296-g2" kvg:element="炏"><g id="kvg:07296-g3" kvg:element="火"><path id="kvg:07296-s1" kvg:type="㇔" d="M20.75 18.18c2.88 1.94 5.76 7.18 6 10.31"/><path id="kvg:07296-s2" kvg:type="㇒" d="M48.82 16.37c.46.42.25 1.94-.17 2.59s-4.3 4.74-6.4 6.25"/><path id="kvg:07296-s3" kvg:type="㇒" d="M35.56 11.75c.69.75.69 2.67.69 3.15.0 14.1-4.78 20.62-11.25 24.85"/><path id="kvg:07296-s4" kvg:type="㇏" d="M36.72 28.89c4.39 1.62 9.93 6.73 11.08 9.02"/></g><g id="kvg:07296-g4" kvg:element="火"><path id="kvg:07296-s5" kvg:type="㇔" d="M57 17.18c2.89 2.7 5.21 7.04 5.5 10.06"/><path id="kvg:07296-s6" kvg:type="㇒" d="M84.35 14.37c.42.38-.32 2.21-.7 2.8-.38.59-4.01 3.42-5.91 4.79"/><path id="kvg:07296-s7" kvg:type="㇒" d="M71.24 9.25c.51 1 .51 2.1.51 2.56C71.75 26 66.25 34 59 38"/><path id="kvg:07296-s8" kvg:type="㇏" d="M73.22 26.64c4.39 1.66 9.93 6.92 11.08 9.27"/></g></g><g id="kvg:07296-g5" kvg:element="冖"><path id="kvg:07296-s9" kvg:type="㇔" d="M19.16 42.69c-.11 3.46-2.73 12.5-3.66 14.56"/><path id="kvg:07296-s10" kvg:type="㇆" d="M18.72 47c3.53.0 50.25-4.75 67.97-4.75 12.06.0 3.81 5.75-.69 9.5"/></g></g><g id="kvg:07296-g6" kvg:element="牛" kvg:position="bottom" kvg:radical="general"><path id="kvg:07296-s11" kvg:type="㇒" d="M40.78 53.53c.04.47.08 1.22-.08 1.9-.96 4.01-6.48 12.8-14.04 18.18"/><path id="kvg:07296-s12" kvg:type="㇐" d="M39.08 64.84c.96.29 2.71.35 3.67.29 11.74-.78 19.65-2.26 30.19-3.26 1.58-.15 2.55.13 3.35.28"/><path id="kvg:07296-s13" kvg:type="㇐" d="M14.97 80.1c1.98.71 5.61.82 7.59.71 20.6-1.18 34.49-3.27 64.55-3.55 3.3-.03 5.28.33 6.93.69"/><path id="kvg:07296-s14" kvg:type="㇑" d="M53.24 49.13c.56.33 1.76 2.5 1.87 3.17s-.07 45.03-.19 49.2"/></g></g></g></svg>