<!DOCTYPE svg PUBLIC "-//W3C//DTD SVG 1.0//EN" "http://www.w3.org/TR/2001/REC-SVG-20010904/DTD/svg10.dtd" [
<!ATTLIST g
xmlns:kvg CDATA #FIXED "http://kanjivg.tagaini.net"
kvg:element CDATA #IMPLIED
kvg:variant CDATA #IMPLIED
kvg:partial CDATA #IMPLIED
kvg:original CDATA #IMPLIED
kvg:part CDATA #IMPLIED
kvg:number CDATA #IMPLIED
kvg:tradForm CDATA #IMPLIED
kvg:radicalForm CDATA #IMPLIED
kvg:position CDATA #IMPLIED
kvg:radical CDATA #IMPLIED
kvg:phon CDATA #IMPLIED >
<!ATTLIST path
xmlns:kvg CDATA #FIXED "http://kanjivg.tagaini.net"
kvg:type CDATA #IMPLIED >
]><svg xmlns="http://www.w3.org/2000/svg" width="109" height="109" viewBox="0 0 109 109"><g id="kvg:StrokePaths_072a2" style="fill:none;stroke:#000000;stroke-width:3;stroke-linecap:round;stroke-linejoin:round;"><g id="kvg:072a2" kvg:element="犢"><g id="kvg:072a2-g1" kvg:element="牛" kvg:variant="true" kvg:position="left" kvg:radical="general"><path id="kvg:072a2-s1" kvg:type="㇒" d="M20.28 23.14c.02.66.05 1.71-.05 2.66-.58 5.6-3.89 17.89-8.42 25.42"/><path id="kvg:072a2-s2" kvg:type="㇐" d="M20.5 38.82c.69.11 1.62.19 2.68.03 5.3-.83 12.44-2.09 13.23-2.09.95.0 1.9.0 2.85.16"/><path id="kvg:072a2-s3" kvg:type="㇑" d="M28.87 11.75c1.09.5 1.74 2.25 1.96 3.25.22 1 0 77.75-.22 84"/><path id="kvg:072a2-s4" kvg:type="㇀" d="M11.5 66.71c1.8 1.06 3.29 1.52 5.09.61C17.65 66.78 35.51 57.58 40 55"/></g><g id="kvg:072a2-g2" kvg:element="賣" kvg:variant="true" kvg:position="right"><g id="kvg:072a2-g3" kvg:position="top"><g id="kvg:072a2-g4" kvg:element="士"><path id="kvg:072a2-s5" kvg:type="㇐" d="M49.06 18.5c1.17.47 3.32.54 4.49.47 12.2-.78 18.32-1.88 32.64-2.87 1.95-.14 3.12.22 4.1.46"/><path id="kvg:072a2-s6" kvg:type="㇑a" d="M67.84 10c.74.33 1.18 1.48 1.33 2.13.15.66.0 10.16-.15 14.26"/><path id="kvg:072a2-s7" kvg:type="㇐" d="M53.66 28.68c.87.3 2.45.33 3.31.3C64 28.75 75 27 83.49 26.36c1.44-.11 2.31.14 3.03.3"/></g><g id="kvg:072a2-g5" kvg:element="罒" kvg:variant="true" kvg:original="网"><path id="kvg:072a2-s8" kvg:type="㇑" d="M45.92 36.18c.24.28.48.51.59.86.82 2.75 3.31 10.34 3.88 15.29"/><path id="kvg:072a2-s9" kvg:type="㇕" d="M47.4 38.05c5.24-1.08 43.34-4.51 46.13-4.87 1.02-.13 2.4.93 2.12 2.48-.57 3.23-2.15 8.35-4.09 13.88"/><path id="kvg:072a2-s10" kvg:type="㇒" d="M63.9 39.06c.04.2.04.51-.08.8-1.11 2.54-2.52 4.48-7.25 6.94"/><path id="kvg:072a2-s11" kvg:type="㇄" d="M74.82 36.08c.56.37 1.05.81 1.05 1.38.0.77-.17 2.21-.17 2.76.0 1.5 1.93 2.12 5.62 2.12 3.33.0 5.79.0 7.2-.48"/><path id="kvg:072a2-s12" kvg:type="㇐" d="M51.13 50.83c3.27-.41 36.32-3.02 40.81-3.65"/></g></g><g id="kvg:072a2-g6" kvg:element="貝" kvg:position="bottom"><g id="kvg:072a2-g7" kvg:element="目" kvg:position="top"><path id="kvg:072a2-s13" kvg:type="㇑" d="M54.29 56.57c.5 1.09 1.22 1.9 1.22 3.35s.23 22.63-.36 28.72"/><path id="kvg:072a2-s14" kvg:type="㇕a" d="M56.35 58.74c2.82-.18 25.8-2.43 28.38-2.64 2.14-.18 3.28.97 3.28 2.28.0 3.21-.63 26.56-.63 27.61"/><path id="kvg:072a2-s15" kvg:type="㇐a" d="M56.07 67.73c5.27-.4 26.71-2.37 31.23-2.37"/><path id="kvg:072a2-s16" kvg:type="㇐a" d="M55.8 77.17c7.95-.77 23.1-1.86 31.54-2.01"/><path id="kvg:072a2-s17" kvg:type="㇐a" d="M55.44 86.3c7.96-.58 24.65-1.62 31.9-1.62"/></g><g id="kvg:072a2-g8" kvg:element="八" kvg:position="bottom"><path id="kvg:072a2-s18" kvg:type="㇒" d="M62.79 89.76c.46.94-.34 1.86-1.25 2.55-2.72 2.07-9.88 6.49-15.33 8.93"/><path id="kvg:072a2-s19" kvg:type="㇔" d="M78.94 90.36c6.55 2.22 13.18 7.01 14.83 9.19"/></g></g></g></g></g><g id="kvg:StrokeNumbers_072a2" style="font-size:8;fill:#808080"><text transform="matrix(1 0 0 1 12.50 23.50)">1</text><text transform="matrix(1 0 0 1 22.66 35.85)">2</text><text transform="matrix(1 0 0 1 19.50 12.50)">3</text><text transform="matrix(1 0 0 1 4.50 69.50)">4</text><text transform="matrix(1 0 0 1 42.25 19.50)">5</text><text transform="matrix(1 0 0 1 58.50 9.25)">6</text><text transform="matrix(1 0 0 1 48.25 28.50)">7</text><text transform="matrix(1 0 0 1 41.25 44.10)">8</text><text transform="matrix(1 0 0 1 47.50 35.50)">9</text><text transform="matrix(1 0 0 1 52.25 43.50)">10</text><text transform="matrix(1 0 0 1 67.50 42.88)">11</text><text transform="matrix(1 0 0 1 63.25 47.50)">12</text><text transform="matrix(1 0 0 1 44.50 64.50)">13</text><text transform="matrix(1 0 0 1 56.50 56.50)">14</text><text transform="matrix(1 0 0 1 59.50 65.58)">15</text><text transform="matrix(1 0 0 1 59.38 74.50)">16</text><text transform="matrix(1 0 0 1 59.43 83.43)">17</text><text transform="matrix(1 0 0 1 46.50 95.50)">18</text><text transform="matrix(1 0 0 1 70.50 96.28)">19</text></g></svg>