<!DOCTYPE svg PUBLIC "-//W3C//DTD SVG 1.0//EN" "http://www.w3.org/TR/2001/REC-SVG-20010904/DTD/svg10.dtd" [
<!ATTLIST g
xmlns:kvg CDATA #FIXED "http://kanjivg.tagaini.net"
kvg:element CDATA #IMPLIED
kvg:variant CDATA #IMPLIED
kvg:partial CDATA #IMPLIED
kvg:original CDATA #IMPLIED
kvg:part CDATA #IMPLIED
kvg:number CDATA #IMPLIED
kvg:tradForm CDATA #IMPLIED
kvg:radicalForm CDATA #IMPLIED
kvg:position CDATA #IMPLIED
kvg:radical CDATA #IMPLIED
kvg:phon CDATA #IMPLIED >
<!ATTLIST path
xmlns:kvg CDATA #FIXED "http://kanjivg.tagaini.net"
kvg:type CDATA #IMPLIED >
]><svg xmlns="http://www.w3.org/2000/svg" width="109" height="109" viewBox="0 0 109 109"><g id="kvg:StrokePaths_072a7" style="fill:none;stroke:#000000;stroke-width:3;stroke-linecap:round;stroke-linejoin:round;"><g id="kvg:072a7" kvg:element="犧"><g id="kvg:072a7-g1" kvg:element="牛" kvg:variant="true" kvg:position="left" kvg:radical="general"><path id="kvg:072a7-s1" kvg:type="㇒" d="M20.28 23.14c.03.61.06 1.57-.05 2.44-.65 5.15-3.72 17.16-8.42 25.38"/><path id="kvg:072a7-s2" kvg:type="㇐" d="M19.25 38.75c.82-.09 1.76.28 2.77.12 7.27-1.12 15.38-3.12 16.48-3.12 1.25.0 1.5.0 2.75.25"/><path id="kvg:072a7-s3" kvg:type="㇑" d="M28.37 11.75c1.09.5 1.74 2.25 1.96 3.25.22 1 0 78.25-.22 84.5"/><path id="kvg:072a7-s4" kvg:type="㇀" d="M11.5 66.83c1.5.67 3.35.55 5.18-.68 1.08-.72 18.25-12.17 22.82-15.65"/></g><g id="kvg:072a7-g2" kvg:element="羲" kvg:position="right"><g id="kvg:072a7-g3" kvg:element="羊" kvg:variant="true" kvg:position="top"><g id="kvg:072a7-g4" kvg:element="䒑"><path id="kvg:072a7-s5" kvg:type="㇔" d="M51.26 12.62c2.64 1.44 7.27 5.94 7.93 8.18"/><path id="kvg:072a7-s6" kvg:type="㇒" d="M75.87 9.75c.02.23.04.6-.03.93-.39 1.97-2.43 6.57-5.57 10.19"/><path id="kvg:072a7-s7" kvg:type="㇐" d="M44.67 24.76c1.05.34 2.98.36 4.03.34 6.35-.1 26.62-3.83 36.1-3.71 1.75.02 2.8.16 3.68.33"/></g><path id="kvg:072a7-s8" kvg:type="㇑a" d="M64.46 23.32c.75.3 1.35 1.32 1.35 1.94.0 5.08.0 10.87.0 16.19"/><path id="kvg:072a7-s9" kvg:type="㇐" d="M48.38 33.77c.83.23 2.36.29 3.19.23 6.92-.5 21.37-3.14 29.57-3.39 1.38-.04 2.22.11 2.91.22"/><path id="kvg:072a7-s10" kvg:type="㇐" d="M42.38 42.98c1.33.47 3.8.7 5.12.47 5.41-.92 27.06-3.15 41.7-4.12 2.22-.15 3.56.23 4.68.46"/></g><g id="kvg:072a7-g5" kvg:position="bottom"><g id="kvg:072a7-g6" kvg:element="禾"><g id="kvg:072a7-g7" kvg:element="丿"><path id="kvg:072a7-s11" kvg:type="㇒" d="M58.1 46c.04.24.09.62-.09.97-1.11 2.05-7.45 6.53-16.14 9.28"/></g><g id="kvg:072a7-g8" kvg:element="戈" kvg:part="1"><g id="kvg:072a7-g9" kvg:element="弋" kvg:part="1"><path id="kvg:072a7-s12" kvg:type="㇐" d="M37.21 60.46c.85.43 3.11 1.01 5.36.78C55 60 69.92 57.75 89.14 56.19c2.27-.18 3.93.07 5.34.5"/></g></g><g id="kvg:072a7-g10" kvg:element="亅"><path id="kvg:072a7-s13" kvg:type="㇚" d="M53.86 53.49c.43.47.68 2.13.77 3.07s0 9.45-.08 15.35"/></g><path id="kvg:072a7-s14" kvg:type="㇒" d="M52.16 60.47C49.34 66.04 43.41 72.01 35.75 75"/><path id="kvg:072a7-s15" kvg:type="㇔/㇏" d="M56.62 63.5c5.02.82 8.31 2.46 11.21 4.75"/></g><g id="kvg:072a7-g11" kvg:element="丂"><path id="kvg:072a7-s16" kvg:type="㇐" d="M41.91 76.21c.95.35 2.69.44 3.64.35 6.05-.61 11.7-1.38 17.75-2.45 1.56-.28 2.53.17 3.33.34"/><path id="kvg:072a7-s17" kvg:type="㇉" d="M49.99 77.55c.3.39.25 1.44.06 2.05-.22.7-3.19 4.53-3.29 4.92s-.04 1.37.8 1.16c2.78-.69 8.09-1.6 12.38-2.16 1.61-.21 2.3 1.12 2.11 2.64-.45 3.6-2.79 8.4-5.37 11.51-2.29 2.76-4.06.5-5.34-1.95"/></g><g id="kvg:072a7-g12" kvg:element="戈" kvg:part="2"><g id="kvg:072a7-g13" kvg:element="弋" kvg:part="2"><path id="kvg:072a7-s18" kvg:type="㇂" d="M71.04 45.75c1.19 1.1 1.39 1.4 1.64 3.76C74.77 69.24 80 84.25 93.65 95.85c4.06 3.45 4.02.47 3.42-4.38"/></g><g id="kvg:072a7-g14" kvg:element="丿"><path id="kvg:072a7-s19" kvg:type="㇒" d="M88.51 64.6c.06.72.13 1.87-.12 2.91-1.48 6.14-9.69 21.61-21.98 29.1"/></g><g id="kvg:072a7-g15" kvg:element="弋" kvg:part="2"><g id="kvg:072a7-g16" kvg:element="丶"><path id="kvg:072a7-s20" kvg:type="㇔" d="M81.49 44.81c2.62 1.2 6.8 3.95 8.02 6.01"/></g></g></g></g></g></g></g><g id="kvg:StrokeNumbers_072a7" style="font-size:8;fill:#808080"><text transform="matrix(1 0 0 1 12.50 23.50)">1</text><text transform="matrix(1 0 0 1 22.50 35.35)">2</text><text transform="matrix(1 0 0 1 18.50 11.50)">3</text><text transform="matrix(1 0 0 1 5.54 70.50)">4</text><text transform="matrix(1 0 0 1 44.50 13.50)">5</text><text transform="matrix(1 0 0 1 66.75 9.50)">6</text><text transform="matrix(1 0 0 1 39.50 24.50)">7</text><text transform="matrix(1 0 0 1 58.00 30.60)">8</text><text transform="matrix(1 0 0 1 41.50 33.03)">9</text><text transform="matrix(1 0 0 1 41.50 40.50)">10</text><text transform="matrix(1 0 0 1 46.50 50.50)">11</text><text transform="matrix(1 0 0 1 34.50 58.50)">12</text><text transform="matrix(1 0 0 1 56.50 57.50)">13</text><text transform="matrix(1 0 0 1 35.75 69.50)">14</text><text transform="matrix(1 0 0 1 64.50 65.58)">15</text><text transform="matrix(1 0 0 1 44.75 73.50)">16</text><text transform="matrix(1 0 0 1 37.75 85.50)">17</text><text transform="matrix(1 0 0 1 62.50 51.50)">18</text><text transform="matrix(1 0 0 1 78.50 65.28)">19</text><text transform="matrix(1 0 0 1 77.50 52.50)">20</text></g></svg>