<svg xmlns="http://www.w3.org/2000/svg" width="109" height="109" viewBox="0 0 109 109"><g id="kvg:StrokePaths_072a0"><g id="kvg:072a0" kvg:element="犠"><g id="kvg:072a0-g1" kvg:element="牛" kvg:variant="true" kvg:position="left" kvg:radical="general"><path id="kvg:072a0-s1" kvg:type="㇒" d="M22.75 25.5c.03.67.15 1.75-.05 2.69-1.33 6.18-4.7 16.31-9.64 24.77"/><path id="kvg:072a0-s2" kvg:type="㇐" d="M23.5 38c1.12.12 1.93.17 3.72-.18 4.2-.84 7.17-1.76 11.03-2.82 1.36-.37 2.5-.5 3.75-.25"/><path id="kvg:072a0-s3" kvg:type="㇑" d="M31.37 13c1.06 1.06 1.21 2.62 1.21 4 0 2.26-.06 49.56-.08 73.5.0 2.49.0 4.72.0 6.62"/><path id="kvg:072a0-s4" kvg:type="㇀" d="M12 69.54c1.5.71 2.57.86 4.43-.99C23 62 28.75 56.25 40 44.75"/></g><g id="kvg:072a0-g2" kvg:element="義" kvg:position="right" kvg:phon="義"><g id="kvg:072a0-g3" kvg:element="羊" kvg:variant="true" kvg:position="top"><g id="kvg:072a0-g4" kvg:element="䒑"><path id="kvg:072a0-s5" kvg:type="㇔" d="M50 14.25c2.36 1.18 6.1 4.83 6.69 6.66"/><path id="kvg:072a0-s6" kvg:type="㇒" d="M74.32 10.39c.11.78-.06 1.49-.52 2.13-1.25 2.58-3.28 5.15-6.8 9.23"/><path id="kvg:072a0-s7" kvg:type="㇐" d="M44.87 26.37c2.13.38 4.34.13 5.84-.1 6.55-1.01 19.93-2.65 27.04-3.3 1.89-.17 3.97-.47 5.84.02"/></g><path id="kvg:072a0-s8" kvg:type="㇑a" d="M63.49 25.9c.81.81 1.27 1.85 1.27 2.99.0.63.0 9.49.0 13.86"/><path id="kvg:072a0-s9" kvg:type="㇐" d="M48.15 35.04c1.22.54 3.81.45 5.09.28 5.57-.75 16.49-2.4 22.64-2.96 1.57-.14 3.57-.12 5.12.29"/><path id="kvg:072a0-s10" kvg:type="㇐" d="M42.77 45.74c1.69.66 4.34.58 6.09.33 10.67-1.48 24.26-3.45 35.62-4.32 2.31-.18 4.54-.3 6.82.24"/></g><g id="kvg:072a0-g5" kvg:element="我" kvg:position="bottom"><g id="kvg:072a0-g6" kvg:element="丿"><path id="kvg:072a0-s11" kvg:type="㇒" d="M55.75 48.75c.12 1-.2 1.82-.89 2.61C52.58 54 48.3 56.72 40.7 59.92"/></g><g id="kvg:072a0-g7" kvg:element="戈" kvg:part="1"><g id="kvg:072a0-g8" kvg:element="弋" kvg:part="1"><path id="kvg:072a0-s12" kvg:type="㇐" d="M39.29 65.29c3.04 1.07 6.76.35 9.84-.14 9.59-1.53 24.7-3.99 36.02-5.47 3.03-.39 6.07-.53 9.06.1"/></g></g><g id="kvg:072a0-g9" kvg:element="亅"><path id="kvg:072a0-s13" kvg:type="㇚" d="M53.35 56.19c.79.79 1.29 2.19 1.29 3.8.0 12.51.04 29.57.04 32.53.0 7.6-4.33-.07-5.58-.82"/></g><path id="kvg:072a0-s14" kvg:type="㇀" d="M39.25 82.17c1.25.95 2.39.95 4.19-.16 1.06-.65 14.2-8.77 18.71-11.91"/><g id="kvg:072a0-g10" kvg:element="戈" kvg:part="2"><path id="kvg:072a0-s15" kvg:type="㇂" d="M68.68 48.7c1.12 1.06 1.73 2.6 1.99 4.88 2.01 17.77 8.51 32.97 19.26 41.77 5.07 4.16 5.7 3.03 4.74-5.29"/><g id="kvg:072a0-g11" kvg:element="丿"><path id="kvg:072a0-s16" kvg:type="㇒" d="M84.03 66.52c.09 1.23-.02 2.16-.41 3.04C81 75.5 74.62 85.25 62 93.75"/></g><g id="kvg:072a0-g12" kvg:element="弋" kvg:part="2"><g id="kvg:072a0-g13" kvg:element="丶"><path id="kvg:072a0-s17" kvg:type="㇔" d="M78.62 48.04c2.1 1.14 5.46 3.73 6.44 5.68"/></g></g></g></g></g></g></g></svg>