<svg xmlns="http://www.w3.org/2000/svg" width="109" height="109" viewBox="0 0 109 109"><g id="kvg:StrokePaths_072b6" style="fill:none;stroke:#000000;stroke-width:3;stroke-linecap:round;stroke-linejoin:round;"><g id="kvg:072b6" kvg:element="状"><g id="kvg:072b6-g1" kvg:element="⺦" kvg:variant="true" kvg:original="爿" kvg:position="left" kvg:radical="nelson" kvg:phon="丬"><path id="kvg:072b6-s1" kvg:type="㇑" d="M33.37 16.5c.94.94 1.46 3 1.46 4.25.0.85-.11 46.62-.11 67 0 3.92.03 6 .03 7.87"/><path id="kvg:072b6-s2" kvg:type="㇔" d="M14.75 30.5c3.53 1.85 8.12 6.62 10 10.5"/><path id="kvg:072b6-s3" kvg:type="㇀" d="M11.25 73.14c1.5.99 3.37.36 4.54-.96C19.21 68.34 21.5 66 26.75 59.5"/></g><g id="kvg:072b6-g2" kvg:element="犬" kvg:position="right" kvg:radical="tradit"><g id="kvg:072b6-g3" kvg:element="大"><path id="kvg:072b6-s4" kvg:type="㇐" d="M43.88 47.11c2 .64 4.9.47 6.62.26 8.75-1.08 24.18-3.39 31.96-4.29 1.79-.21 4.41-.21 6.19.17"/><path id="kvg:072b6-s5" kvg:type="㇒" d="M63.01 16.5c1 .99 1.42 2.66 1.49 4.82 1 29.68-2.75 57.56-21.72 72.43"/><path id="kvg:072b6-s6" kvg:type="㇏" d="M64.25 46.25c4.35 11.11 15.58 29.31 22.97 38.03 1.53 1.81 3.66 4.35 6.03 6.1"/></g><g id="kvg:072b6-g4" kvg:element="丶"><path id="kvg:072b6-s7" kvg:type="㇔" d="M78.31 19.5c4.56 3.52 6.56 6.95 7.98 10.25"/></g></g></g></g></svg>