<svg xmlns="http://www.w3.org/2000/svg" width="109" height="109" viewBox="0 0 109 109"><g id="kvg:StrokePaths_072c3"><g id="kvg:072c3" kvg:element="狃"><g id="kvg:072c3-g1" kvg:element="⺨" kvg:variant="true" kvg:original="犬" kvg:position="left" kvg:radical="general"><path id="kvg:072c3-s1" kvg:type="㇒" d="M39.8 16.5c.07.54.31 1.58-.14 2.16C34 26.06 28.25 31.29 14.5 39.29"/><path id="kvg:072c3-s2" kvg:type="㇁" d="M19.37 16.5C48.5 41 36.5 104 22.93 88.13"/><path id="kvg:072c3-s3" kvg:type="㇒" d="M31.84 43c.05.67.21 1.96-.09 2.68-3.88 9.19-7.82 15.68-17.24 25.62"/></g><g id="kvg:072c3-g2" kvg:element="丑" kvg:position="right"><path id="kvg:072c3-s4" kvg:type="㇕" d="M49.09 21.74c1.25.64 3.62.93 5.09.78 9.94-1.04 21.48-1.96 30.46-2.78 2.55-.23 4.16 1.4 3.72 4.28-1.61 10.73-5.4 48.31-7.31 65.08"/><path id="kvg:072c3-s5" kvg:type="㇑" d="M65.36 25.66c.96.54 1.91 3.47 1.73 4.56-2.59 15.53-9.46 50.2-11.57 59.6"/><g id="kvg:072c3-g3" kvg:element="一"><path id="kvg:072c3-s6" kvg:type="㇐" d="M44.02 52.22c1.41.7 3.99.75 5.41.7 16.93-.56 29.01-1.57 46.61-1.88 2.35-.04 3.76.34 4.94.69"/></g><path id="kvg:072c3-s7" kvg:type="㇐" d="M39.75 90.74c1.75.51 3.68.78 4.99.69 15.76-1.17 33.46-2.04 49.7-2.33 2.17-.04 3.47.31 4.56.64"/></g></g></g></svg>