<svg xmlns="http://www.w3.org/2000/svg" width="109" height="109" viewBox="0 0 109 109"><g id="kvg:StrokePaths_072ce" style="fill:none;stroke:#000000;stroke-width:3;stroke-linecap:round;stroke-linejoin:round;"><g id="kvg:072ce" kvg:element="狎"><g id="kvg:072ce-g1" kvg:element="⺨" kvg:variant="true" kvg:original="犬" kvg:position="left" kvg:radical="general"><path id="kvg:072ce-s1" kvg:type="㇒" d="M37.8 16c.07.58.31 1.7-.14 2.32C32 26.29 26.25 31.93 12.5 40.54"/><path id="kvg:072ce-s2" kvg:type="㇁" d="M15.08 18.5c31.42 22 21.57 84.02 7.1 71.42"/><path id="kvg:072ce-s3" kvg:type="㇒" d="M30.32 44.5c.05.63.25 1.83-.11 2.51C25.67 55.63 21.05 61.72 10 71.04"/></g><g id="kvg:072ce-g2" kvg:element="甲" kvg:position="right"><g id="kvg:072ce-g3" kvg:element="日" kvg:partial="true"><path id="kvg:072ce-s4" kvg:type="㇑" d="M48.01 21.25c.32.67 1.35 2.14 1.5 2.96 1.52 8.41 3.49 23.11 4.17 35.58"/><path id="kvg:072ce-s5" kvg:type="㇕" d="M50.05 22.74c12.66-1.38 32.23-3.25 40.94-3.8 3.2-.2 5.1 1.25 4.94 4.06-.37 6.68-3.36 29.96-4.68 34.05"/><path id="kvg:072ce-s6" kvg:type="㇐" d="M51.92 39.7c3.8-.28 39.13-3.2 42.26-3.15"/><path id="kvg:072ce-s7" kvg:type="㇐" d="M54.34 56.64c11.02-1.37 25.56-2.61 37.6-3.1"/></g><g id="kvg:072ce-g4" kvg:element="丨"><path id="kvg:072ce-s8" kvg:type="㇑" d="M70.11 22.94c.89.56 1.44 2.03 1.44 3.81-.03 8.98.3 70.04.3 72.97"/></g></g></g></g></svg>