<svg xmlns="http://www.w3.org/2000/svg" width="109" height="109" viewBox="0 0 109 109"><g id="kvg:StrokePaths_072fd" style="fill:none;stroke:#000000;stroke-width:3;stroke-linecap:round;stroke-linejoin:round;"><g id="kvg:072fd" kvg:element="狽"><g id="kvg:072fd-g1" kvg:element="⺨" kvg:variant="true" kvg:original="犬" kvg:position="left" kvg:radical="general"><path id="kvg:072fd-s1" kvg:type="㇒" d="M38.81 15.5c.06.61.28 1.8-.12 2.46C33.58 26.42 28.4 32.4 16 41.54"/><path id="kvg:072fd-s2" kvg:type="㇁" d="M18.5 19.5c30.25 20.75 19 85 6.5 70.5"/><path id="kvg:072fd-s3" kvg:type="㇒" d="M31.84 44c.04.65.2 1.9-.09 2.61-3.71 8.94-7.48 15.27-16.5 24.94"/></g><g id="kvg:072fd-g2" kvg:element="貝" kvg:position="right"><g id="kvg:072fd-g3" kvg:element="目" kvg:position="top"><path id="kvg:072fd-s4" kvg:type="㇑" d="M53.4 18.32c.5 1.22 1.23 2.13 1.23 3.76s.23 45-.37 51.83"/><path id="kvg:072fd-s5" kvg:type="㇕a" d="M55.47 20.74c2.84-.2 24.49-3.31 27.08-3.55 2.16-.2 3.31 1.12 3.31 2.65.0 3.72-.64 51.09-.64 52.31"/><path id="kvg:072fd-s6" kvg:type="㇐a" d="M54.69 37.94c5.31-.47 25.91-3.31 30.47-3.31"/><path id="kvg:072fd-s7" kvg:type="㇐a" d="M54.92 53.88c8.02-.9 21.77-2.72 30.27-2.9"/><path id="kvg:072fd-s8" kvg:type="㇐a" d="M54.56 72.21c8.02-.67 23.33-2.44 30.64-2.44"/></g><g id="kvg:072fd-g4" kvg:element="八" kvg:position="bottom"><path id="kvg:072fd-s9" kvg:type="㇒" d="M61.37 79.87c.45 1.14-.39 2.21-1.23 3.09C57.25 86 52 90.75 45 93.81"/><path id="kvg:072fd-s10" kvg:type="㇔" d="M78.6 78.66c5.66 4.66 12.36 13.1 13.9 17.17"/></g></g></g></g></svg>