<!DOCTYPE svg PUBLIC "-//W3C//DTD SVG 1.0//EN" "http://www.w3.org/TR/2001/REC-SVG-20010904/DTD/svg10.dtd" [
<!ATTLIST g
xmlns:kvg CDATA #FIXED "http://kanjivg.tagaini.net"
kvg:element CDATA #IMPLIED
kvg:variant CDATA #IMPLIED
kvg:partial CDATA #IMPLIED
kvg:original CDATA #IMPLIED
kvg:part CDATA #IMPLIED
kvg:number CDATA #IMPLIED
kvg:tradForm CDATA #IMPLIED
kvg:radicalForm CDATA #IMPLIED
kvg:position CDATA #IMPLIED
kvg:radical CDATA #IMPLIED
kvg:phon CDATA #IMPLIED >
<!ATTLIST path
xmlns:kvg CDATA #FIXED "http://kanjivg.tagaini.net"
kvg:type CDATA #IMPLIED >
]><svg xmlns="http://www.w3.org/2000/svg" width="109" height="109" viewBox="0 0 109 109"><g id="kvg:StrokePaths_072fc" style="fill:none;stroke:#000000;stroke-width:3;stroke-linecap:round;stroke-linejoin:round;"><g id="kvg:072fc" kvg:element="狼"><g id="kvg:072fc-g1" kvg:element="⺨" kvg:variant="true" kvg:original="犬" kvg:position="left" kvg:radical="general"><path id="kvg:072fc-s1" kvg:type="㇒" d="M36.31 15c.06.63.27 1.85-.12 2.53C31.2 26.23 26.13 32.39 14 41.79"/><path id="kvg:072fc-s2" kvg:type="㇁" d="M18 21c28.75 24 15.75 81.5 5 69.5"/><path id="kvg:072fc-s3" kvg:type="㇒" d="M29.83 43c.05.66.22 1.94-.1 2.65-4.1 9.1-8.27 15.54-18.23 25.39"/></g><g id="kvg:072fc-g2" kvg:element="良" kvg:position="right"><path id="kvg:072fc-s4" kvg:type="㇑a" d="M61.25 12.75c1.17.59 1.87 1.47 2.1 2.64.23 1.17.23 6.86.23 9.8"/><g id="kvg:072fc-g3" kvg:element="艮"><path id="kvg:072fc-s5" kvg:type="㇕" d="M49.32 27.81c2.3-.11 27.14-3.69 29.23-3.82 1.74-.11 2.75 1.25 2.73 1.93-.12 4.83-3.04 19.83-4.01 24.63"/><path id="kvg:072fc-s6" kvg:type="㇐a" d="M49.98 40.44c5.77-.54 23.04-2.67 28.59-3.1"/><path id="kvg:072fc-s7" kvg:type="㇐a" d="M49.59 53.42c7.91-.87 21.29-2.12 29.88-2.95"/><path id="kvg:072fc-s8" kvg:type="㇙" d="M47.01 25.73c1.31.53 2.09 2.39 2.35 3.45.26 1.06.26 57.87.26 60.52.0 3.05-.18 5.34 2.99 3.23C57.75 89.5 58.75 89 67 84"/><path id="kvg:072fc-s9" kvg:type="㇒" d="M86.17 52.05c.33 1.43.53 2-.57 3.15-2.14 2.23-8.59 7.4-11.52 9.41"/><path id="kvg:072fc-s10" kvg:type="㇏" d="M57.88 54.23c5.78 3.93 21.02 22.28 29.8 28.97 4.68 3.57 7.06 4.51 9.63 5.19"/></g></g></g></g><g id="kvg:StrokeNumbers_072fc" style="font-size:8;fill:#808080"><text transform="matrix(1 0 0 1 29.50 14.13)">1</text><text transform="matrix(1 0 0 1 9.44 20.50)">2</text><text transform="matrix(1 0 0 1 22.50 44.50)">3</text><text transform="matrix(1 0 0 1 53.44 13.16)">4</text><text transform="matrix(1 0 0 1 50.50 23.50)">5</text><text transform="matrix(1 0 0 1 54.50 36.50)">6</text><text transform="matrix(1 0 0 1 54.50 49.68)">7</text><text transform="matrix(1 0 0 1 41.44 34.50)">8</text><text transform="matrix(1 0 0 1 74.50 59.50)">9</text><text transform="matrix(1 0 0 1 54.50 66.50)">10</text></g></svg>