<svg xmlns="http://www.w3.org/2000/svg" width="109" height="109" viewBox="0 0 109 109"><g id="kvg:StrokePaths_072f9"><g id="kvg:072f9" kvg:element="狹"><g id="kvg:072f9-g1" kvg:element="⺨" kvg:variant="true" kvg:original="犬" kvg:position="left" kvg:radical="general"><path id="kvg:072f9-s1" kvg:type="㇒" d="M37.05 16.5c.07.57.31 1.68-.14 2.3-5.66 7.89-11.41 13.46-25.16 21.99"/><path id="kvg:072f9-s2" kvg:type="㇁" d="M17.5 17.75c28.25 23.5 17.46 85.03 5.75 72"/><path id="kvg:072f9-s3" kvg:type="㇒" d="M31.33 44c.05.61.23 1.8-.1 2.46-4.21 8.46-8.49 14.43-18.73 23.58"/></g><g id="kvg:072f9-g2" kvg:element="夾" kvg:position="right"><g id="kvg:072f9-g3" kvg:element="大" kvg:part="1"><path id="kvg:072f9-s4" kvg:type="㇐" d="M41.25 30.15c1.18.28 3.35.35 4.53.28 7.53-.48 36.28-3.52 43.58-3.2 1.96.09 3.15.13 4.14.27"/></g><g id="kvg:072f9-g4" kvg:element="从"><g id="kvg:072f9-g5" kvg:element="人" kvg:position="left"><path id="kvg:072f9-s5" kvg:type="㇒" d="M51.01 38.74c0 .56.04 1.03-.07 1.69-1.04 6.11-4.15 13.7-8.72 20.45"/><path id="kvg:072f9-s6" kvg:type="㇏" d="M50.39 49.71c2.84 1.5 6.48 5.5 7.86 9.29"/></g><g id="kvg:072f9-g6" kvg:element="人" kvg:position="right"><path id="kvg:072f9-s7" kvg:type="㇒" d="M83.27 36.74c0 .5.07.92-.07 1.49-1.27 4.86-4.9 13.5-9.22 18.4"/><path id="kvg:072f9-s8" kvg:type="㇏" d="M81.14 47.46c4.7 2.79 8.3 6.29 11.11 10.54"/></g></g><g id="kvg:072f9-g7" kvg:element="大" kvg:part="2"><path id="kvg:072f9-s9" kvg:type="㇒" d="M65.34 13.25c.44 1.13 1.15 2.43 1.15 4.86.0 45.19-1.47 62.29-28.74 77.39"/><path id="kvg:072f9-s10" kvg:type="㇏" d="M66.25 57.5c5.72 10.21 18.31 28.33 26.07 34.2 2.17 1.65 2.75 2.12 3.68 2.3"/></g></g></g></g></svg>