<svg xmlns="http://www.w3.org/2000/svg" width="109" height="109" viewBox="0 0 109 109"><g id="kvg:StrokePaths_0730a" style="fill:none;stroke:#000000;stroke-width:3;stroke-linecap:round;stroke-linejoin:round;"><g id="kvg:0730a" kvg:element="猊"><g id="kvg:0730a-g1" kvg:element="⺨" kvg:variant="true" kvg:original="犬" kvg:position="left" kvg:radical="general"><path id="kvg:0730a-s1" kvg:type="㇒" d="M38.04 16.25c.07.61.32 1.8-.14 2.46C32.08 27.17 26.16 33.15 12 42.29"/><path id="kvg:0730a-s2" kvg:type="㇁" d="M18 19.25c28.25 22.94 17.46 83.01 5.75 70.29"/><path id="kvg:0730a-s3" kvg:type="㇒" d="M31.33 43.5c.05.67.23 1.96-.1 2.68-4.16 9.19-8.38 15.68-18.48 25.62"/></g><g id="kvg:0730a-g2" kvg:element="兒" kvg:position="right"><g id="kvg:0730a-g3" kvg:element="臼" kvg:position="top"><path id="kvg:0730a-s4" kvg:type="㇒" d="M63.6 15.96c.04.22-.63 1.64-.9 1.87-3.54 3.06-6.32 6.5-14.89 10.47"/><path id="kvg:0730a-s5" kvg:type="㇑" d="M46.11 27.51c.67.57.94 1.85 1.1 3.02.6 4.28 2.06 20.06 2.67 25.85"/><path id="kvg:0730a-s6" kvg:type="㇐" d="M49.01 39.76c3.92-.7 10.81-1.86 11.75-1.86s2.24.0 2.99.0"/><path id="kvg:0730a-s7" kvg:type="㇕" d="M71.94 23.95c.79.13 1.42.39 2.51.39 1.1.0 11.83-2.56 13.09-2.69s2.77.85 2.6 2.33c-.96 8.18-2.98 29.6-3.14 30.12"/><path id="kvg:0730a-s8" kvg:type="㇐" d="M71.62 37.06c.79.13 1.42.39 2.52.39s12.9-1.54 14.16-1.67"/><path id="kvg:0730a-s9" kvg:type="㇐" d="M50.04 53.72c3.93-.26 34.87-2.14 37.23-2.27"/></g><g id="kvg:0730a-g4" kvg:element="儿" kvg:position="bottom"><g id="kvg:0730a-g5" kvg:element="八" kvg:variant="true"><g id="kvg:0730a-g6" kvg:element="丿" kvg:position="left"><path id="kvg:0730a-s10" kvg:type="㇒" d="M59.66 58c.05.83.07 2.15-.1 3.35-1.25 8.77-5.26 24.26-17.14 32.04"/></g><g id="kvg:0730a-g7" kvg:position="right"><path id="kvg:0730a-s11" kvg:type="㇟" d="M71.26 56.14c.59 1.07 1.06 2.33 1.1 3.97.16 7.35-.02 17.82-.02 22.82.0 8.82 2.17 10.35 12.19 10.35 10.23.0 12.12-2.04 12.12-8.19"/></g></g></g></g></g></g></svg>