<svg xmlns="http://www.w3.org/2000/svg" width="109" height="109" viewBox="0 0 109 109"><g id="kvg:StrokePaths_07316" style="fill:none;stroke:#000000;stroke-width:3;stroke-linecap:round;stroke-linejoin:round;"><g id="kvg:07316" kvg:element="猖"><g id="kvg:07316-g1" kvg:element="⺨" kvg:variant="true" kvg:original="犬" kvg:position="left" kvg:radical="general"><path id="kvg:07316-s1" kvg:type="㇒" d="M38.04 16.25c.07.61.33 1.8-.15 2.46C31.84 27.17 25.7 33.15 11 42.29"/><path id="kvg:07316-s2" kvg:type="㇁" d="M18 18.75c30.25 24.25 17.96 84.03 6.25 71"/><path id="kvg:07316-s3" kvg:type="㇒" d="M31.33 43c.05.69.24 2.02-.11 2.77-4.38 9.51-8.83 16.24-19.47 26.52"/></g><g id="kvg:07316-g2" kvg:element="昌" kvg:position="right"><g id="kvg:07316-g3" kvg:element="日" kvg:position="top"><path id="kvg:07316-s4" kvg:type="㇑" d="M49.77 21.13c.39.64 1.28 1.88 1.28 2.73s3.37 23.79 3.5 24.64"/><path id="kvg:07316-s5" kvg:type="㇕a" d="M51.69 22.16c2.2-.11 34.41-3.04 36.42-3.17 1.67-.11 3.39 1.62 3.11 3.19C90.24 27.8 90 35.82 86.84 46.22"/><path id="kvg:07316-s6" kvg:type="㇐a" d="M53.08 34.15C60.5 33.52 84 31.87 89.3 31.36"/><path id="kvg:07316-s7" kvg:type="㇐a" d="M54.44 46.11c6.06-.46 25.31-1.68 32.85-2.07"/></g><g id="kvg:07316-g4" kvg:element="日" kvg:position="bottom"><path id="kvg:07316-s8" kvg:type="㇑" d="M48.52 60.41c.52.75.92 1.61 1.05 2.63.3 2.42 3.8 28.57 3.8 29.08s.17 1.96.35 2.98"/><path id="kvg:07316-s9" kvg:type="㇕a" d="M50.44 61.44c2.95-.22 38.29-3.86 40.98-4.1 2.24-.2 3.59 1.41 3.59 3.79.0 6.11-3.87 23.12-5.28 30.85"/><path id="kvg:07316-s10" kvg:type="㇐a" d="M51.91 75.8c8.48-.97 36.18-3.45 40.7-3.6"/><path id="kvg:07316-s11" kvg:type="㇐a" d="M54 90.76c8.14-.82 26.17-1.89 36.31-2.7"/></g></g></g></g></svg>