<svg xmlns="http://www.w3.org/2000/svg" width="109" height="109" viewBox="0 0 109 109"><g id="kvg:StrokePaths_0732b" style="fill:none;stroke:#000000;stroke-width:3;stroke-linecap:round;stroke-linejoin:round;"><g id="kvg:0732b" kvg:element="猫"><g id="kvg:0732b-g1" kvg:element="⺨" kvg:variant="true" kvg:original="犬" kvg:position="left" kvg:radical="general"><path id="kvg:0732b-s1" kvg:type="㇒" d="M36.05 19.5c.07.61-.17 1.57-.63 2.21C30 29.25 23.75 36.25 11.25 45.29"/><path id="kvg:0732b-s2" kvg:type="㇁" d="M19 19.25c28.25 23.5 17.71 84.53 6 71.5"/><path id="kvg:0732b-s3" kvg:type="㇒" d="M31.33 46.75c.05.63-.01 1.58-.36 2.26-4.44 8.62-8.69 14.71-19.47 24.03"/></g><g id="kvg:0732b-g2" kvg:element="苗" kvg:position="right" kvg:phon="苗"><g id="kvg:0732b-g3" kvg:element="艹" kvg:variant="true" kvg:original="艸" kvg:position="top"><path id="kvg:0732b-s4" kvg:type="㇐" d="M42.25 32.18c2.75.45 4.5.33 6.63.07 12.24-1.5 29.24-3.12 40.87-3.86 2.16-.14 4.37-.17 6.49.26"/><path id="kvg:0732b-s5" kvg:type="㇑a" d="M55.26 17.76c.99.99 1.55 2.3 1.67 3.39C58.1 31.32 59.11 41.3 59.44 45"/><path id="kvg:0732b-s6" kvg:type="㇑a" d="M79.98 16.5c.65 1 .77 1.88.58 3.07-1.66 10.51-2.17 14.72-4.17 24.58"/></g><g id="kvg:0732b-g4" kvg:element="田" kvg:position="bottom"><path id="kvg:0732b-s7" kvg:type="㇑" d="M47.32 52.24c.97.97 1.36 2.43 1.5 3.5 1.06 8.64 2.3 20.37 3.03 31.5.13 1.92.24 3.8.35 5.59"/><path id="kvg:0732b-s8" kvg:type="㇕a" d="M49.78 54.28c12.83-1.32 25.34-2.9 36.47-3.46 3.89-.19 6.42.53 6.01 4.81-.62 6.5-2.2 19.8-3.89 30.68-.35 2.25-.7 4.4-1.05 6.36"/><path id="kvg:0732b-s9" kvg:type="㇑a" d="M67.8 53.84c.87.87 1.08 2.01 1.08 3.16.0 8-.01 25.49-.01 31.62"/><path id="kvg:0732b-s10" kvg:type="㇐a" d="M51.47 70.33c5.4-.58 35.24-2.33 38.19-2.39"/><path id="kvg:0732b-s11" kvg:type="㇐a" d="M53.28 90.49c9.97-.62 22.66-1 33.57-1.4"/></g></g></g></g></svg>