<svg xmlns="http://www.w3.org/2000/svg" width="109" height="109" viewBox="0 0 109 109"><g id="kvg:StrokePaths_07336" style="fill:none;stroke:#000000;stroke-width:3;stroke-linecap:round;stroke-linejoin:round;"><g id="kvg:07336" kvg:element="猶"><g id="kvg:07336-g1" kvg:element="⺨" kvg:variant="true" kvg:original="犬" kvg:position="left" kvg:radical="general"><path id="kvg:07336-s1" kvg:type="㇒" d="M38.3 17.5c.13 1.02-.47 1.98-1.1 2.69-4.83 5.56-10.87 11.33-23.7 18.85"/><path id="kvg:07336-s2" kvg:type="㇁" d="M19.25 17c28.25 23.5 17.71 83.28 6 70.25"/><path id="kvg:07336-s3" kvg:type="㇒" d="M31.08 45.75c.1 1.09-.15 1.86-.7 2.82-4.11 7.24-8.18 12.52-18.13 20.47"/></g><g id="kvg:07336-g2" kvg:element="酋" kvg:position="right" kvg:phon="酋"><g id="kvg:07336-g3" kvg:element="八" kvg:variant="true" kvg:position="top"><g id="kvg:07336-g4" kvg:position="left"><path id="kvg:07336-s4" kvg:type="㇔" d="M50.88 15.12c3.06 2.31 7.92 9.5 8.69 13.09"/></g><g id="kvg:07336-g5" kvg:position="right"><path id="kvg:07336-s5" kvg:type="㇒" d="M81.41 12.96c.1.81.02 1.59-.26 2.34-1.08 3.67-3.17 8.48-6.88 13.93"/></g></g><g id="kvg:07336-g6" kvg:element="酉" kvg:position="bottom"><g id="kvg:07336-g7" kvg:element="西" kvg:part="1" kvg:original="襾"><path id="kvg:07336-s6" kvg:type="㇐" d="M42.84 33.93c1.84.83 4.98.64 6.93.48 10.14-.84 30.88-3.21 40.73-4.11 1.92-.17 4.02-.54 5.91-.02"/><path id="kvg:07336-s7" kvg:type="㇑" d="M48.71 48.89c.89.89.99 1.86.99 3.43.0.62-.05 22.93-.05 35.18.0 3.84-.02 6.65-.02 6.75"/><path id="kvg:07336-s8" kvg:type="㇕a" d="M50.59 50.8c6.16-.55 32.94-3.53 35.7-3.65 2.3-.1 3.93 1.24 3.93 3.57.0 1.07-.04 23.16-.04 35.53.0 2.81-.03 5.2-.02 6.85"/><path id="kvg:07336-s9" kvg:type="㇒" d="M61.92 35.74c.92.96 1.11 2.53 1.12 3.86.11 12.97-.91 23.53-9.59 29.92"/><path id="kvg:07336-s10" kvg:type="㇟a" d="M72.87 34.59c.89.89 1.09 2.08 1.09 3.73.0 3.42-.01 12.05-.06 18.53-.04 5.62 1.4 6.57 6.97 6.57 3.54.0 7.31-.7 7.71-1.33"/></g><g id="kvg:07336-g8" kvg:element="一"><path id="kvg:07336-s11" kvg:type="㇐a" d="M51.06 77.54c5.82-.54 33.38-2.62 38.01-2.62"/></g><g id="kvg:07336-g9" kvg:element="西" kvg:part="2" kvg:original="襾"><path id="kvg:07336-s12" kvg:type="㇐a" d="M50.78 91.59c9.6-.84 27.99-2.25 38.37-2.65"/></g></g></g></g></g></svg>