<!DOCTYPE svg PUBLIC "-//W3C//DTD SVG 1.0//EN" "http://www.w3.org/TR/2001/REC-SVG-20010904/DTD/svg10.dtd" [
<!ATTLIST g
xmlns:kvg CDATA #FIXED "http://kanjivg.tagaini.net"
kvg:element CDATA #IMPLIED
kvg:variant CDATA #IMPLIED
kvg:partial CDATA #IMPLIED
kvg:original CDATA #IMPLIED
kvg:part CDATA #IMPLIED
kvg:number CDATA #IMPLIED
kvg:tradForm CDATA #IMPLIED
kvg:radicalForm CDATA #IMPLIED
kvg:position CDATA #IMPLIED
kvg:radical CDATA #IMPLIED
kvg:phon CDATA #IMPLIED >
<!ATTLIST path
xmlns:kvg CDATA #FIXED "http://kanjivg.tagaini.net"
kvg:type CDATA #IMPLIED >
]><svg xmlns="http://www.w3.org/2000/svg" width="109" height="109" viewBox="0 0 109 109"><g id="kvg:StrokePaths_07337" style="fill:none;stroke:#000000;stroke-width:3;stroke-linecap:round;stroke-linejoin:round;"><g id="kvg:07337" kvg:element="猷"><g id="kvg:07337-g1" kvg:element="酋" kvg:position="left"><g id="kvg:07337-g2" kvg:element="八" kvg:variant="true" kvg:position="top"><g id="kvg:07337-g3" kvg:position="left"><path id="kvg:07337-s1" kvg:type="㇒" d="M23.447083 18.27625c.04.33.07.85-.08 1.32C21.662292 22.840417 15.6575 29.992292 9.89 34.99125"/></g><g id="kvg:07337-g4" kvg:position="right"><path id="kvg:07337-s2" kvg:type="㇏" d="M32.850625 15.133333c.84.14 1.63.33 2.17.7C39.239375 20.966458 46.284792 27.395208 50.14 31.01125c2 .93 2.72 1.42 4.67 1.72"/></g></g><g id="kvg:07337-g5" kvg:element="酉" kvg:position="bottom"><g id="kvg:07337-g6" kvg:element="西" kvg:part="1" kvg:original="襾"><path id="kvg:07337-s3" kvg:type="㇐" d="M17.6 33.85125c.74.3 3.04.38 3.78.3 4.96-.53 13.53-2.27 19.69-3.1 1.22-.16 2.6.15 3.22.3"/><path id="kvg:07337-s4" kvg:type="㇑" d="M15.66 48.89c.46.62.63 2.1.63 2.93.0.82-.3 44.29-.3 44.7"/><path id="kvg:07337-s5" kvg:type="㇕a" d="M17.06 51.05c2.6-.1 28.48-4.28 30.85-4.4 1.97-.1 3.38.99 3.38 3.32.0 1.3-.27 35.59-.27 44.63"/><path id="kvg:07337-s6" kvg:type="㇒" d="M27.18 35.24c.76 1.08.51 2.56.52 4.04.09 14.54-.5 26.59-7.71 32.99"/><path id="kvg:07337-s7" kvg:type="㇟a" d="M36.05 34.34c.53 1.07.95 2.33.98 3.98.1 5.24-.23 15.3-.28 21.78-.04 5.62 1.49 6.32 6.55 6.32 3.21.0 6.4-.7 6.76-1.33"/></g><g id="kvg:07337-g7" kvg:element="一"><path id="kvg:07337-s8" kvg:type="㇐a" d="M16.81 81.29c3.51.0 29.93-3.37 33.9-3.37"/></g><g id="kvg:07337-g8" kvg:element="西" kvg:part="2" kvg:original="襾"><path id="kvg:07337-s9" kvg:type="㇐a" d="M17 93.84c7.15-.47 24.44-2.25 33.35-2.65"/></g></g></g><g id="kvg:07337-g9" kvg:element="犬" kvg:position="right" kvg:radical="general"><g id="kvg:07337-g10" kvg:element="大"><path id="kvg:07337-s10" kvg:type="㇐" d="M56.65 41.89c.85.61 3.5 1.1 4.61.97 5.24-.61 25.33-3.5 31.54-4.03.79-.07 1.91-.39 3.68.09"/><path id="kvg:07337-s11" kvg:type="㇒" d="M72.33 12.75c.45 1.17.72 2.34.78 4.67.78 30.49-2.45 64.56-15.61 78.08"/><path id="kvg:07337-s12" kvg:type="㇏" d="M72.62 42c4.94 14.65 14.55 39.44 20.86 49.9 1.66 2.75 2.26 3.1 3.03 3.35"/></g><g id="kvg:07337-g11" kvg:element="丶"><path id="kvg:07337-s13" kvg:type="㇔" d="M84.13 18.5c5.64 3.98 7.18 7.02 8.93 10.75"/></g></g></g></g><g id="kvg:StrokeNumbers_07337" style="font-size:8;fill:#808080"><text transform="matrix(1 0 0 1 16.3 19.50)">1</text><text transform="matrix(1 0 0 1 34.75 13.50)">2</text><text transform="matrix(1 0 0 1 19.75 31.8)">3</text><text transform="matrix(1 0 0 1 8.50 56.50)">4</text><text transform="matrix(1 0 0 1 16.75 47.50)">5</text><text transform="matrix(1 0 0 1 20.50 42.50)">6</text><text transform="matrix(1 0 0 1 30.50 41.50)">7</text><text transform="matrix(1 0 0 1 22.50 77.50)">8</text><text transform="matrix(1 0 0 1 22.75 90.03)">9</text><text transform="matrix(1 0 0 1 56.50 39.6)">10</text><text transform="matrix(1 0 0 1 59.75 12.50)">11</text><text transform="matrix(1 0 0 1 77.50 49.50)">12</text><text transform="matrix(1 0 0 1 79.50 15.50)">13</text></g></svg>