<svg xmlns="http://www.w3.org/2000/svg" width="109" height="109" viewBox="0 0 109 109"><g id="kvg:StrokePaths_0734e"><g id="kvg:0734e" kvg:element="獎"><g id="kvg:0734e-g1" kvg:element="將" kvg:position="top"><g id="kvg:0734e-g2" kvg:element="爿" kvg:position="left"><path id="kvg:0734e-s1" kvg:type="㇑" d="M37.4 9.68c1.04.94 1.7 2.55 1.7 3.66.0 10.62-.03 44.67-.03 48.28"/><path id="kvg:0734e-s2" kvg:type="㇄" d="M21.7 11.6c1.38.55 1.91 1.2 2.03 3.04.18 2.75-1.25 8.59-1.68 11.47-.14.92.25 2.35 2.3 2.14 3.66-.37 10.73-2.03 13.81-2.38"/><path id="kvg:0734e-s3" kvg:type="㇐" d="M15.64 38.97c1.29.12 1.55.48 3.06.4 6.44-.36 15.18-2.08 19.67-2.28"/><path id="kvg:0734e-s4" kvg:type="㇒" d="M26.87 41.31c.03.4.62 1.05.49 1.62-1.12 5.07-4.12 11.32-10.19 15.5"/></g><g id="kvg:0734e-g3" kvg:position="right"><g id="kvg:0734e-g4" kvg:element="月" kvg:variant="true" kvg:position="top"><path id="kvg:0734e-s5" kvg:type="㇒" d="M66.76 8c.58.61-.01 2.52-.54 3.31-2.62 3.95-8.17 9.59-15.83 13.12"/><path id="kvg:0734e-s6" kvg:type="㇇" d="M63.94 15c1.13.3 2 .52 3.62.38 5.04-.42 10.78-2.21 13.38-2.56C83.25 12.5 84.75 14.25 83 16c-8.13 8.13-17.21 15.03-36.35 20.06"/><path id="kvg:0734e-s7" kvg:type="㇔" d="M62.85 18.79c.61.41 3.07 2.86 4.29 5.32"/><path id="kvg:0734e-s8" kvg:type="㇔" d="M54.98 25.42c.59.59 2.35 3.11 2.84 4.44"/></g><g id="kvg:0734e-g5" kvg:element="寸" kvg:position="bottom"><path id="kvg:0734e-s9" kvg:type="㇐" d="M44.1 40.15c1.17.35 3.3.39 4.48.35 12.95-.43 26.09-2.45 40.36-2.99 1.94-.07 3.12.17 4.09.35"/><path id="kvg:0734e-s10" kvg:type="㇚" d="M79.06 27.29c.06.21.83 1.08.83 2.39.0 8.83-.17 21.29-.17 23.43.0 7.38-4.96.77-6.41.11"/><path id="kvg:0734e-s11" kvg:type="㇔" d="M56.01 45.52c2.15 1.48 5.56 6.07 6.1 8.36"/></g></g></g><g id="kvg:0734e-g6" kvg:element="犬" kvg:position="bottom" kvg:radical="general"><g id="kvg:0734e-g7" kvg:element="大"><path id="kvg:0734e-s12" kvg:type="㇐" d="M17.27 74.64c1.08.24 4.74.55 6.81.4 10.83-.74 48.33-2.97 61.39-3.49 1.49-.06 3.61.09 6.94.51"/><path id="kvg:0734e-s13" kvg:type="㇒" d="M53.06 56.75c.44 1 .55 2.25.6 3.5C54.25 77 46.25 93.5 21.63 101"/><path id="kvg:0734e-s14" kvg:type="㇏" d="M56.26 73.65c6.8 6.98 20.02 18.78 28.69 23.76 2.28 1.31 3.11 1.47 4.16 1.6"/></g><g id="kvg:0734e-g8" kvg:element="丶"><path id="kvg:0734e-s15" kvg:type="㇔" d="M64.91 59.93c5.72 2.31 7.29 4.08 9.06 6.25"/></g></g></g></g></svg>