<svg xmlns="http://www.w3.org/2000/svg" width="109" height="109" viewBox="0 0 109 109"><g id="kvg:StrokePaths_07357"><g id="kvg:07357" kvg:element="獗"><g id="kvg:07357-g1" kvg:element="⺨" kvg:variant="true" kvg:original="犬" kvg:position="left" kvg:radical="general"><path id="kvg:07357-s1" kvg:type="㇒" d="M31.56 15.25c.06.63.27 1.85-.12 2.54-4.94 8.7-9.95 14.85-21.94 24.26"/><path id="kvg:07357-s2" kvg:type="㇁" d="M12.5 17.75c28.25 23.5 15.96 85.03 4.25 72"/><path id="kvg:07357-s3" kvg:type="㇒" d="M25.35 46c.04.59.19 1.73-.08 2.37-3.49 8.13-7.04 13.88-15.51 22.67"/></g><g id="kvg:07357-g2" kvg:element="厥" kvg:position="right"><g id="kvg:07357-g3" kvg:element="厂" kvg:position="tare"><path id="kvg:07357-s4" kvg:type="㇐" d="M39.95 17.57c1.41.66 3.98.77 5.39.66 14.63-1.11 30.13-2.41 44.32-3.28 2.34-.14 3.75.32 4.92.65"/><path id="kvg:07357-s5" kvg:type="㇒" d="M42.45 18.63c.37 1.47.38 1.86.31 4.27-.5 19.23-.01 54.1-10.2 70.18"/></g><g id="kvg:07357-g4" kvg:position="tarec"><g id="kvg:07357-g5" kvg:element="屰" kvg:position="left"><path id="kvg:07357-s6" kvg:type="㇔" d="M49.65 28.43c1.87 1.93 4.82 7.95 5.29 10.95"/><path id="kvg:07357-s7" kvg:type="㇒" d="M67.23 23.91c.02.36.04.93-.03 1.45-.41 3.06-2.75 9.77-5.96 13.88"/><path id="kvg:07357-s8" kvg:type="㇐" d="M47.11 44.87c.61.3 1.72.33 2.33.3 4.96-.21 15.96-3.68 19.72-3.33 1.01.09 1.62.14 2.13.29"/><g id="kvg:07357-g6" kvg:element="屮"><g id="kvg:07357-g7" kvg:element="凵"><path id="kvg:07357-s9" kvg:type="㇗a" d="M49.31 53.58c.49.35 1.04 1.85.98 2.56-.37 4.23-1.64 10.23-1.76 14.28-.05 1.62-.22 2.57.97 2.17 6.61-2.23 11-3 18.01-4.27"/><path id="kvg:07357-s10" kvg:type="㇑" d="M68.38 52.21c.49.35 1.04 2.64.98 3.35-.54 6.45-.23 9.64-1.05 16.25"/></g><g id="kvg:07357-g8" kvg:element="丿"><path id="kvg:07357-s11" kvg:type="㇒" d="M58.42 46.59c.46 1.3.71 2.89.71 4.51.0 16.98-.37 31.91-13.34 43.13"/></g></g></g><g id="kvg:07357-g9" kvg:element="欠" kvg:position="right"><g id="kvg:07357-g10" kvg:position="top"><path id="kvg:07357-s12" kvg:type="㇒" d="M81.32 24.77c.02.65.04 1.68-.04 2.62-.47 5.52-3.18 17.62-6.88 25.04"/><path id="kvg:07357-s13" kvg:type="㇖a" d="M81.87 40.15c.56.3 1.6.66 2.47.51 3.9-.66 10.88-2.57 11.86-2.58 3.39-.05-.58 5.79-3.58 9.76"/></g><g id="kvg:07357-g11" kvg:position="bottom"><path id="kvg:07357-s14" kvg:type="㇒" d="M80.82 50.53c.68 1.22.78 2.12.67 3.58-.74 10.63-5.74 28.63-18.61 40.38"/><path id="kvg:07357-s15" kvg:type="㇏" d="M80.68 64.41c2.4 5.57 10.8 22.27 15.11 28.22.91 1.25 1.6 2 2.46 2.4"/></g></g></g></g></g></g></svg>