<svg xmlns="http://www.w3.org/2000/svg" width="109" height="109" viewBox="0 0 109 109"><g id="kvg:StrokePaths_0736a"><g id="kvg:0736a" kvg:element="獪"><g id="kvg:0736a-g1" kvg:element="⺨" kvg:variant="true" kvg:original="犬" kvg:position="left" kvg:radical="general"><path id="kvg:0736a-s1" kvg:type="㇒" d="M36.04 15.75c.07.67.32 1.97-.14 2.7-5.94 9.27-11.97 15.82-26.4 25.84"/><path id="kvg:0736a-s2" kvg:type="㇁" d="M13.5 16.75c28.25 24.93 17.46 90.21 5.75 76.39"/><path id="kvg:0736a-s3" kvg:type="㇒" d="M26.84 45.5c.04.6.2 1.77-.09 2.42-3.71 8.29-7.48 14.16-16.5 23.13"/></g><g id="kvg:0736a-g2" kvg:element="會" kvg:position="right"><g id="kvg:0736a-g3" kvg:position="top"><g id="kvg:0736a-g4" kvg:element="人"><path id="kvg:0736a-s4" kvg:type="㇒" d="M64.58 10.75c.08.75.31 2.03-.16 3.03C61.15 20.89 51.83 32.63 37 42.77"/><path id="kvg:0736a-s5" kvg:type="㇏" d="M64.76 14.84c4.45 4.7 23.11 19.54 28.02 22.98 1.67 1.17 3.8 1.67 5.47 2"/></g><path id="kvg:0736a-s6" kvg:type="㇐" d="M53.31 35.79c.76.25 2.16.3 2.92.25 4.99-.34 13.62-1.8 18.67-1.87 1.27-.02 2.03.12 2.67.24"/><path id="kvg:0736a-s7" kvg:type="㇑" d="M42.75 44.97c.37.75 1.22 2.17 1.38 3.15.43 2.7 2.09 13.9 2.85 17.95"/><path id="kvg:0736a-s8" kvg:type="㇕" d="M44.76 46.81c3.84-.77 40.67-3.93 42.27-4.08 1.33-.12 2.21 1.37 2.09 2.09-.58 3.33-3.31 14.9-4.14 18.88"/><path id="kvg:0736a-s9" kvg:type="㇑" d="M64.47 46c.78.75 1 1.08 1.02 2.5.04 4.21.17 11.69.17 13.58"/><path id="kvg:0736a-s10" kvg:type="㇔" d="M50.87 51.56c2.2 1.26 5.68 5.17 6.23 7.13"/><path id="kvg:0736a-s11" kvg:type="㇒" d="M78.95 48.86c.02.24.04.62-.04.96-.43 2.03-2.9 6.49-6.27 9.22"/><path id="kvg:0736a-s12" kvg:type="㇐" d="M47.2 63.84c4.99-.47 34.55-2.27 38.34-2.27"/></g><g id="kvg:0736a-g5" kvg:element="日" kvg:position="bottom"><path id="kvg:0736a-s13" kvg:type="㇑" d="M51.06 71.66c.22.49.85 1.81.85 2.42.0 7.66.06 16.41.06 25.15"/><path id="kvg:0736a-s14" kvg:type="㇕a" d="M52.1 72.87c7.76-.67 21.06-1.78 26.85-2.39 2.13-.23 3.22 1.2 3.11 2.54-.4 4.92-.65 16.83-1.62 25.03"/><path id="kvg:0736a-s15" kvg:type="㇐a" d="M52.17 84.64c2.53-.3 26.99-2.23 29.08-2.27"/><path id="kvg:0736a-s16" kvg:type="㇐a" d="M52 96.28c6.58-.58 22.06-1.2 28.44-1.66"/></g></g></g></g></svg>