<!DOCTYPE svg PUBLIC "-//W3C//DTD SVG 1.0//EN" "http://www.w3.org/TR/2001/REC-SVG-20010904/DTD/svg10.dtd" [
<!ATTLIST g
xmlns:kvg CDATA #FIXED "http://kanjivg.tagaini.net"
kvg:element CDATA #IMPLIED
kvg:variant CDATA #IMPLIED
kvg:partial CDATA #IMPLIED
kvg:original CDATA #IMPLIED
kvg:part CDATA #IMPLIED
kvg:number CDATA #IMPLIED
kvg:tradForm CDATA #IMPLIED
kvg:radicalForm CDATA #IMPLIED
kvg:position CDATA #IMPLIED
kvg:radical CDATA #IMPLIED
kvg:phon CDATA #IMPLIED >
<!ATTLIST path
xmlns:kvg CDATA #FIXED "http://kanjivg.tagaini.net"
kvg:type CDATA #IMPLIED >
]><svg xmlns="http://www.w3.org/2000/svg" width="109" height="109" viewBox="0 0 109 109"><g id="kvg:StrokePaths_07372" style="fill:none;stroke:#000000;stroke-width:3;stroke-linecap:round;stroke-linejoin:round;"><g id="kvg:07372" kvg:element="獲"><g id="kvg:07372-g1" kvg:element="⺨" kvg:variant="true" kvg:original="犬" kvg:position="left" kvg:radical="general"><path id="kvg:07372-s1" kvg:type="㇒" d="M35.82 17.75c0 1.12.06 2.12-.61 3.12C29.98 28.65 25.62 33 15 42.04"/><path id="kvg:07372-s2" kvg:type="㇁" d="M20.5 20.5c24.72 20.64 18.27 80.33 7 67.75"/><path id="kvg:07372-s3" kvg:type="㇒" d="M31.83 43.75c.05.71.22 2.08-.1 2.85-3.98 9.77-7.46 15.34-17.11 25.9"/></g><g id="kvg:07372-g2" kvg:element="蒦" kvg:position="right" kvg:phon="蒦"><g id="kvg:07372-g3" kvg:element="艹" kvg:variant="true" kvg:original="艸" kvg:position="top"><path id="kvg:07372-s4" kvg:type="㇐" d="M42.25 22.97c2.25.53 4.3.26 6.13.08 8.92-.87 24.82-2.84 34.37-3.31 2.09-.1 4.19-.2 6.25.26"/><path id="kvg:07372-s5" kvg:type="㇑a" d="M53.83 14.57c.86.86 1.29 1.43 1.59 2.73 1.35 5.86 1.74 8.06 2.01 10.22"/><path id="kvg:07372-s6" kvg:type="㇑a" d="M74.84 11.89c.53.86.62 1.76.34 2.84-.94 3.64-1.56 6.64-2.81 11.02"/></g><g id="kvg:07372-g4" kvg:element="隻" kvg:position="bottom"><g id="kvg:07372-g5" kvg:element="隹" kvg:position="top"><g id="kvg:07372-g6" kvg:element="亻" kvg:variant="true" kvg:original="人"><path id="kvg:07372-s7" kvg:type="㇒" d="M53.38 30.59c.11.9-.03 2.07-.39 2.84-2.3 4.9-5.21 9.04-10.47 15"/><path id="kvg:07372-s8" kvg:type="㇑" d="M50.98 40.31c.67.67.94 1.56.94 2.93.0 4.37.02 11.96.04 17.51.0 1.92.01 3.54.01 4.59"/></g><path id="kvg:07372-s9" kvg:type="㇒" d="M69.58 29.41c.03.36-.01.84-.1 1.15-.57 1.99-1.3 3.52-2.61 5.94"/><path id="kvg:07372-s10" kvg:type="㇐b" d="M51.68 39.81c5.44-.42 20.62-2.21 27.82-3.02 1.69-.19 2.93-.33 3.48-.38"/><path id="kvg:07372-s11" kvg:type="㇑a" d="M66.35 39.62c.7.7 1.08 1.76 1.08 3.41.0 5.43-.04 14.23-.04 17.27"/><path id="kvg:07372-s12" kvg:type="㇐b" d="M52.63 47.55C57.76 47.2 70.81 45.8 77 45.05c1.51-.18 2.62-.31 3.16-.36"/><path id="kvg:07372-s13" kvg:type="㇐b" d="M52.98 54.96c5.41-.29 17.75-1.86 24.28-2.56 1.54-.17 2.7-.28 3.29-.32"/><path id="kvg:07372-s14" kvg:type="㇐b" d="M53.06 62.88c5.45-.42 22.64-2.2 30.7-3.3 1.89-.26 3.25-.44 3.8-.49"/></g><g id="kvg:07372-g7" kvg:element="又" kvg:position="bottom"><path id="kvg:07372-s15" kvg:type="㇇" d="M51.19 70.95c1.73.56 3.56.34 5.33.11 5.17-.68 17.79-3.13 19.23-3.53 2.38-.66 3.25 1.71 2.23 3.27C70.24 82.62 59.25 90 42.5 95.75"/><path id="kvg:07372-s16" kvg:type="㇏" d="M50.28 75.65c6.56.5 21.11 10.14 33.62 15.35 2.78 1.16 5.11 2.37 8.19 2.98"/></g></g></g></g></g><g id="kvg:StrokeNumbers_07372" style="font-size:8;fill:#808080"><text transform="matrix(1 0 0 1 28.50 17.50)">1</text><text transform="matrix(1 0 0 1 12.75 21.13)">2</text><text transform="matrix(1 0 0 1 24.50 47.50)">3</text><text transform="matrix(1 0 0 1 42.75 20.50)">4</text><text transform="matrix(1 0 0 1 48.50 11.50)">5</text><text transform="matrix(1 0 0 1 70.50 9.13)">6</text><text transform="matrix(1 0 0 1 45.50 34.63)">7</text><text transform="matrix(1 0 0 1 45.75 54.05)">8</text><text transform="matrix(1 0 0 1 73.50 33.13)">9</text><text transform="matrix(1 0 0 1 56.50 37.50)">10</text><text transform="matrix(1 0 0 1 70.50 44.50)">11</text><text transform="matrix(1 0 0 1 56.25 46.00)">12</text><text transform="matrix(1 0 0 1 56.25 53.42)">13</text><text transform="matrix(1 0 0 1 56.25 60.85)">14</text><text transform="matrix(1 0 0 1 56.25 69.77)">15</text><text transform="matrix(1 0 0 1 45.50 83.50)">16</text></g></svg>