<!DOCTYPE svg PUBLIC "-//W3C//DTD SVG 1.0//EN" "http://www.w3.org/TR/2001/REC-SVG-20010904/DTD/svg10.dtd" [
<!ATTLIST g
xmlns:kvg CDATA #FIXED "http://kanjivg.tagaini.net"
kvg:element CDATA #IMPLIED
kvg:variant CDATA #IMPLIED
kvg:partial CDATA #IMPLIED
kvg:original CDATA #IMPLIED
kvg:part CDATA #IMPLIED
kvg:number CDATA #IMPLIED
kvg:tradForm CDATA #IMPLIED
kvg:radicalForm CDATA #IMPLIED
kvg:position CDATA #IMPLIED
kvg:radical CDATA #IMPLIED
kvg:phon CDATA #IMPLIED >
<!ATTLIST path
xmlns:kvg CDATA #FIXED "http://kanjivg.tagaini.net"
kvg:type CDATA #IMPLIED >
]><svg xmlns="http://www.w3.org/2000/svg" width="109" height="109" viewBox="0 0 109 109"><g id="kvg:StrokePaths_07370" style="fill:none;stroke:#000000;stroke-width:3;stroke-linecap:round;stroke-linejoin:round;"><g id="kvg:07370" kvg:element="獰"><g id="kvg:07370-g1" kvg:element="⺨" kvg:variant="true" kvg:original="犬" kvg:position="left" kvg:radical="general"><path id="kvg:07370-s1" kvg:type="㇒" d="M35.05 16.25c.07.6.31 1.75-.14 2.39-5.66 8.21-11.41 14.02-25.16 22.9"/><path id="kvg:07370-s2" kvg:type="㇁" d="M15 17.25c28.25 23.5 19.46 85.03 7.75 72"/><path id="kvg:07370-s3" kvg:type="㇒" d="M27.84 44c.04.64.2 1.87-.09 2.56-3.71 8.78-7.48 14.99-16.5 24.48"/></g><g id="kvg:07370-g2" kvg:element="寧" kvg:variant="true" kvg:position="right"><g id="kvg:07370-g3" kvg:element="宀" kvg:position="top"><path id="kvg:07370-s4" kvg:type="㇑a" d="M64.46 10c.93.37 2.25 2.21 2.23 3.29-.07 3.4-.07 5.2-.07 8.3"/><g id="kvg:07370-g4" kvg:element="冖"><path id="kvg:07370-s5" kvg:type="㇔" d="M44.24 21.33c0 3.2-3.68 13.04-4.9 15.17"/><path id="kvg:07370-s6" kvg:type="㇖b" d="M44.28 23.55c6.47-.86 41.01-3.95 46.27-4.28 8.21-.51 1.74 6.26-.31 8.1"/></g></g><g id="kvg:07370-g5" kvg:position="bottom"><g id="kvg:07370-g6" kvg:element="心"><path id="kvg:07370-s7" kvg:type="㇔" d="M48.54 30.75c.16 1.63-1.62 8.8-2.92 11.51"/><path id="kvg:07370-s8" kvg:type="㇃" d="M55.54 29.46c6.48 10.43 11.6 13.23 23.98 12.72 5.07-.21 5.3-1.23 1.76-4.84"/><path id="kvg:07370-s9" kvg:type="㇔a" d="M64.18 28.25c1.25 3.74 3.05 7.48 4.38 1.75"/><path id="kvg:07370-s10" kvg:type="㇔" d="M78.81 28.48c4.71 1.92 8.24 3.67 12.06 9.63"/></g><g id="kvg:07370-g7" kvg:element="罒" kvg:variant="true" kvg:original="网"><g id="kvg:07370-g8" kvg:element="皿"><path id="kvg:07370-s11" kvg:type="㇑a" d="M47.72 49.03c.22.26.45.48.54.81.76 2.59 2.07 8.25 2.59 12.91"/><path id="kvg:07370-s12" kvg:type="㇕b" d="M48.69 50.29c6.11-.79 35.54-2.71 38.13-3.06.94-.12 2.23.88 1.97 2.34-.53 3.04-1.28 6.27-2.69 10.61"/><path id="kvg:07370-s13" kvg:type="㇑a" d="M60.49 51.34c.76.66.67 1.58.82 2.87.37 3.05.91 5.36 1.02 6.73"/><path id="kvg:07370-s14" kvg:type="㇑a" d="M72.46 49.76c1.29.49 1.34 1.78 1.2 3.24-.29 3.01-.19 5.48-.39 6.64"/><path id="kvg:07370-s15" kvg:type="㇐" d="M39.25 63.49c2 .45 3.46.32 5.07.23 12.09-.69 37.3-3.81 49.79-4.59 2.32-.14 3.81-.04 5.08.73"/></g></g><g id="kvg:07370-g9" kvg:element="丁"><g id="kvg:07370-g10" kvg:element="一"><path id="kvg:07370-s16" kvg:type="㇐" d="M43.08 73.01c1.06.39 3.01.5 4.07.39 10.87-1.04 28.31-3.69 41.38-4.21 1.77-.07 2.83.19 3.72.38"/></g><g id="kvg:07370-g11" kvg:element="亅"><path id="kvg:07370-s17" kvg:type="㇚" d="M66.87 73.4c.07.33 1.1 1.74 1.1 3.87.0 7.48.26 11.48.26 15.17.0 10.31-6.48.86-7.79-.02"/></g></g></g></g></g></g><g id="kvg:StrokeNumbers_07370" style="font-size:8;fill:#808080"><text transform="matrix(1 0 0 1 27.50 16.50)">1</text><text transform="matrix(1 0 0 1 8.50 17.50)">2</text><text transform="matrix(1 0 0 1 20.50 45.50)">3</text><text transform="matrix(1 0 0 1 56.00 10.50)">4</text><text transform="matrix(1 0 0 1 39.00 23.33)">5</text><text transform="matrix(1 0 0 1 46.50 19.50)">6</text><text transform="matrix(1 0 0 1 45.50 30.50)">7</text><text transform="matrix(1 0 0 1 52.50 37.50)">8</text><text transform="matrix(1 0 0 1 58.00 29.50)">9</text><text transform="matrix(1 0 0 1 72.50 27.50)">10</text><text transform="matrix(1 0 0 1 38.25 53.38)">11</text><text transform="matrix(1 0 0 1 48.25 47.05)">12</text><text transform="matrix(1 0 0 1 52.50 56.98)">13</text><text transform="matrix(1 0 0 1 64.50 55.50)">14</text><text transform="matrix(1 0 0 1 37.00 60.83)">15</text><text transform="matrix(1 0 0 1 44.25 70.75)">16</text><text transform="matrix(1 0 0 1 57.50 81.18)">17</text></g></svg>