<!DOCTYPE svg PUBLIC "-//W3C//DTD SVG 1.0//EN" "http://www.w3.org/TR/2001/REC-SVG-20010904/DTD/svg10.dtd" [
<!ATTLIST g
xmlns:kvg CDATA #FIXED "http://kanjivg.tagaini.net"
kvg:element CDATA #IMPLIED
kvg:variant CDATA #IMPLIED
kvg:partial CDATA #IMPLIED
kvg:original CDATA #IMPLIED
kvg:part CDATA #IMPLIED
kvg:number CDATA #IMPLIED
kvg:tradForm CDATA #IMPLIED
kvg:radicalForm CDATA #IMPLIED
kvg:position CDATA #IMPLIED
kvg:radical CDATA #IMPLIED
kvg:phon CDATA #IMPLIED >
<!ATTLIST path
xmlns:kvg CDATA #FIXED "http://kanjivg.tagaini.net"
kvg:type CDATA #IMPLIED >
]><svg xmlns="http://www.w3.org/2000/svg" width="109" height="109" viewBox="0 0 109 109"><g id="kvg:StrokePaths_0737b" style="fill:none;stroke:#000000;stroke-width:3;stroke-linecap:round;stroke-linejoin:round;"><g id="kvg:0737b" kvg:element="獻"><g id="kvg:0737b-g1" kvg:position="left"><g id="kvg:0737b-g2" kvg:element="虍" kvg:position="tare"><path id="kvg:0737b-s1" kvg:type="㇑a" d="M33.94 11.08c.65.88 1.15 1.92 1.15 4.85.0 5.7-.01 6.46-.01 11.25"/><path id="kvg:0737b-s2" kvg:type="㇐b" d="M35.63 18.97c4.44-.75 10.8-1.21 15.3-1.8 1.48-.19 2.39.18 3.14.36"/><path id="kvg:0737b-s3" kvg:type="㇒" d="M18.41 27.97c.59 1.03 1.47 3.61 1.48 5.62C20 58 20.25 75 9.2 94.42"/><path id="kvg:0737b-s4" kvg:type="㇖a" d="M19.58 30.35c8.79-1.95 26.24-4.36 33.77-4.52 7.93-.17 3.16 3.67-.14 6.03"/><g id="kvg:0737b-g3" kvg:element="七"><g id="kvg:0737b-g4" kvg:element="一"><path id="kvg:0737b-s5" kvg:type="㇐" d="M22.59 37.73c.54.35 1.88.41 2.42.35 5.44-.54 14.69-3 20.56-3.87.9-.13 1.45.17 1.9.35"/></g><path id="kvg:0737b-s6" kvg:type="㇟a" d="M34.18 28.75c.36.37.84 1.82.84 2.34.0 4.1-.07 3.82-.07 5.65.0 5.44 2.01 5.03 7.19 5.03 1.93.0 6.72-.42 8.38-1.15"/></g></g><g id="kvg:0737b-g5" kvg:element="鬲" kvg:position="tarec"><g id="kvg:0737b-g6" kvg:position="top"><g id="kvg:0737b-g7" kvg:element="一"><path id="kvg:0737b-s7" kvg:type="㇐" d="M25.29 49.18c.7.23 1.98.29 2.68.23 7.19-.63 14.79-1.66 21.31-2.52 1.15-.15 1.86.11 2.44.23"/></g><g id="kvg:0737b-g8" kvg:element="口"><path id="kvg:0737b-s8" kvg:type="㇑" d="M27.17 55.29c.23.18.47.33.57.56.8 1.79 1.76 6.42 2.3 9.64"/><path id="kvg:0737b-s9" kvg:type="㇕b" d="M28.35 56.2c5.65-.75 16.57-2.54 19.48-2.79 1.07-.09 1.71.93 1.55 1.48-.63 2.25-1.34 4.89-2.19 7.34"/><path id="kvg:0737b-s10" kvg:type="㇐b" d="M30.28 64.6c3.42-.29 14.42-1.8 18.77-2.09"/></g></g><g id="kvg:0737b-g9" kvg:position="bottom"><g id="kvg:0737b-g10" kvg:element="冂"><path id="kvg:0737b-s11" kvg:type="㇑" d="M23.81 69.89c.31.63.52 1.65.42 2.79-.1 1.14.1 22.66.1 24.56"/><path id="kvg:0737b-s12" kvg:type="㇆a" d="M24.23 71.16c3.97-.51 26.41-3.52 27.19-3.7 1.25-.28 2.03.59 2.03 2.39.0 1.97-.31 21.3-.31 24.22.0 4.7-3.77 1.41-5.03-.24"/></g><g id="kvg:0737b-g11" kvg:element="儿" kvg:variant="true" kvg:original="八"><g id="kvg:0737b-g12" kvg:element="丿"><path id="kvg:0737b-s13" kvg:type="㇒" d="M34.66 71.52c.22.58.25.63.19.98-.43 2.63-2.03 6.39-6.26 9.13"/></g><path id="kvg:0737b-s14" kvg:type="㇟" d="M41.47 70c.21.45.38.97.39 1.66.06 3.07.04 2.77.04 3.9.0 2.62 2.15 2.32 4.27 2.32 2.24.0 3.71-.34 4.03-.53"/></g><path id="kvg:0737b-s15" kvg:type="㇐" d="M30.45 83.65c.2.08.72.22 1.24.25 1.43.08 9.3-1.11 13.58-1.61.62-.07.78-.1 1.17.0"/><path id="kvg:0737b-s16" kvg:type="㇑" d="M37.67 84.04c.43.56.72.9.72 1.45.0 2.15-.11 7.21-.11 12.07"/></g></g></g><g id="kvg:0737b-g13" kvg:element="犬" kvg:position="right" kvg:radical="general"><g id="kvg:0737b-g14" kvg:element="大"><path id="kvg:0737b-s17" kvg:type="㇐" d="M57.74 44.45c.52.3 2.27.58 3.3.5 7.21-.57 22.42-2.6 28.75-3.24.72-.07 1.75.12 3.37.63"/><path id="kvg:0737b-s18" kvg:type="㇒" d="M72.6 15.75c.44 1.15.71 2.29.77 4.59C74.14 50.27 70.96 83.22 58 96.5"/><path id="kvg:0737b-s19" kvg:type="㇏" d="M73.08 45.5c4.17 16 13.42 37 21.76 48.03 1.91 2.52 2.36 2.98 3.16 3.22"/></g><g id="kvg:0737b-g15" kvg:element="丶"><path id="kvg:0737b-s20" kvg:type="㇔" d="M82.35 22.5c5.13 3.98 6.54 7.02 8.13 10.75"/></g></g></g></g><g id="kvg:StrokeNumbers_0737b" style="font-size:8;fill:#808080"><text transform="matrix(1 0 0 1 25.50 11.50)">1</text><text transform="matrix(1 0 0 1 39.50 14.55)">2</text><text transform="matrix(1 0 0 1 11.50 35.98)">3</text><text transform="matrix(1 0 0 1 22.50 26.50)">4</text><text transform="matrix(1 0 0 1 23.50 36.58)">5</text><text transform="matrix(1 0 0 1 38.50 33.50)">6</text><text transform="matrix(1 0 0 1 24.50 47.50)">7</text><text transform="matrix(1 0 0 1 22.50 61.50)">8</text><text transform="matrix(1 0 0 1 29.50 54.50)">9</text><text transform="matrix(1 0 0 1 31.00 61.95)">10</text><text transform="matrix(1 0 0 1 16.75 82.50)">11</text><text transform="matrix(1 0 0 1 22.50 68.50)">12</text><text transform="matrix(1 0 0 1 26.00 77.48)">13</text><text transform="matrix(1 0 0 1 43.00 75.65)">14</text><text transform="matrix(1 0 0 1 33.50 81.50)">15</text><text transform="matrix(1 0 0 1 28.50 92.25)">16</text><text transform="matrix(1 0 0 1 55.50 41.43)">17</text><text transform="matrix(1 0 0 1 64.50 11.35)">18</text><text transform="matrix(1 0 0 1 76.50 52.28)">19</text><text transform="matrix(1 0 0 1 78.50 19.20)">20</text></g></svg>