<!DOCTYPE svg PUBLIC "-//W3C//DTD SVG 1.0//EN" "http://www.w3.org/TR/2001/REC-SVG-20010904/DTD/svg10.dtd" [
<!ATTLIST g
xmlns:kvg CDATA #FIXED "http://kanjivg.tagaini.net"
kvg:element CDATA #IMPLIED
kvg:variant CDATA #IMPLIED
kvg:partial CDATA #IMPLIED
kvg:original CDATA #IMPLIED
kvg:part CDATA #IMPLIED
kvg:number CDATA #IMPLIED
kvg:tradForm CDATA #IMPLIED
kvg:radicalForm CDATA #IMPLIED
kvg:position CDATA #IMPLIED
kvg:radical CDATA #IMPLIED
kvg:phon CDATA #IMPLIED >
<!ATTLIST path
xmlns:kvg CDATA #FIXED "http://kanjivg.tagaini.net"
kvg:type CDATA #IMPLIED >
]><svg xmlns="http://www.w3.org/2000/svg" width="109" height="109" viewBox="0 0 109 109"><g id="kvg:StrokePaths_073b2" style="fill:none;stroke:#000000;stroke-width:3;stroke-linecap:round;stroke-linejoin:round;"><g id="kvg:073b2" kvg:element="玲"><g id="kvg:073b2-g1" kvg:element="王" kvg:original="玉" kvg:partial="true" kvg:position="left" kvg:radical="general"><path id="kvg:073b2-s1" kvg:type="㇐" d="M9.65 28.33c1.53.84 5.07.34 6.71.11 4.56-.63 10.35-1.83 15.79-2.75 1.41-.24 3.32-.74 4.74-.23"/><path id="kvg:073b2-s2" kvg:type="㇑a" d="M22.42 30.71c1.06 1.06 1.31 2.04 1.31 3.38.0 4.92.04 35.9-.11 39.17"/><path id="kvg:073b2-s3" kvg:type="㇐" d="M10.16 51.37c.49.33 3.93.35 4.43.31C19 51.25 27.5 49.62 32.44 48.7c.6-.11 1.93-.32 3.25-.09"/><path id="kvg:073b2-s4" kvg:type="㇐" d="M10.77 78.95c1.03.83 2.01 1.11 3.51.33 5.6-2.9 10.93-6 18-9.92"/></g><g id="kvg:073b2-g2" kvg:element="令" kvg:position="right"><g id="kvg:073b2-g3" kvg:element="人" kvg:position="top"><path id="kvg:073b2-s5" kvg:type="㇒" d="M62.64 12.75c.08.95.13 2.52-.4 3.83C58.5 25.88 50.38 41.12 39 52.35"/><path id="kvg:073b2-s6" kvg:type="㇏" d="M62.92 17.79c8.4 8.61 15.21 17.33 24.47 26.71 2.09 2.12 5.1 4.24 7.37 5.63"/></g><g id="kvg:073b2-g4" kvg:position="bottom"><g id="kvg:073b2-g5" kvg:element="一"><path id="kvg:073b2-s7" kvg:type="㇔" d="M58.45 41.08c3.8 2.54 8.93 8.04 10.24 11.88"/></g><g id="kvg:073b2-g6" kvg:element="マ"><path id="kvg:073b2-s8" kvg:type="㇆a" d="M43.94 62.62c2.93 1.25 5.13.98 7.58.58 7.95-1.27 28.13-4.63 30.26-5 2.54-.44 3.72 1.07 1.85 3.38C78.12 68.38 70.25 78 65.96 82.33"/><path id="kvg:073b2-s9" kvg:type="㇔" d="M53.25 75.9c7.87 5.85 16.25 12.6 18.67 19.6"/></g></g></g></g></g><g id="kvg:StrokeNumbers_073b2" style="font-size:8;fill:#808080"><text transform="matrix(1 0 0 1 3.60 28.25)">1</text><text transform="matrix(1 0 0 1 15.25 39.25)">2</text><text transform="matrix(1 0 0 1 3.25 52.25)">3</text><text transform="matrix(1 0 0 1 3.25 81.25)">4</text><text transform="matrix(1 0 0 1 54.25 15.25)">5</text><text transform="matrix(1 0 0 1 69.25 22.25)">6</text><text transform="matrix(1 0 0 1 59.25 39.25)">7</text><text transform="matrix(1 0 0 1 44.25 60.25)">8</text><text transform="matrix(1 0 0 1 45.25 79.25)">9</text></g></svg>