<svg xmlns="http://www.w3.org/2000/svg" width="109" height="109" viewBox="0 0 109 109"><g id="kvg:StrokePaths_073ce" style="fill:none;stroke:#000000;stroke-width:3;stroke-linecap:round;stroke-linejoin:round;"><g id="kvg:073ce" kvg:element="珎"><g id="kvg:073ce-g1" kvg:element="王" kvg:original="玉" kvg:partial="true" kvg:position="left" kvg:radical="general"><path id="kvg:073ce-s1" kvg:type="㇐" d="M13.25 25.29c.58.38 3.73.46 4.32.35 2.73-.52 13.83-2.17 20.39-2.73.9-.08 2.55-.27 3.29.05"/><path id="kvg:073ce-s2" kvg:type="㇑a" d="M27.07 27.52c.87.88 1.48 2.78 1.48 3.48.0 5.95.02 40.12-.15 44.07"/><path id="kvg:073ce-s3" kvg:type="㇐" d="M14 49.46c.5.19 3.99.22 4.5.18 2.91-.25 13.66-1.73 17.69-2 .62-.04 2.88-.08 3.81.09"/><path id="kvg:073ce-s4" kvg:type="㇐" d="M13.25 80.25c1.5 1.75 4.18.93 5 .5C23.5 78 29.5 75 37.5 70.25"/></g><g id="kvg:073ce-g2" kvg:element="尓" kvg:position="right"><g id="kvg:073ce-g3" kvg:position="top"><g id="kvg:073ce-g4" kvg:element="丿"><path id="kvg:073ce-s5" kvg:type="㇒" d="M58.03 15.64c.04.87.19 2.28-.08 3.51-1.68 7.4-7.02 23.61-15.2 33.53"/></g><path id="kvg:073ce-s6" kvg:type="㇐" d="M55.48 37.74c1.48.08 2.61.01 3.54-.04 12.24-.69 22.54-3.97 28.84-4.35 1.53-.09 2.46.18 3.23.37"/></g><g id="kvg:073ce-g5" kvg:element="小" kvg:position="bottom"><path id="kvg:073ce-s7" kvg:type="㇚" d="M67.97 39.19c.08.41 1.12 2.15 1.2 4.78.39 12.61-.24 41.71-.24 46 0 9.74-6.89 1.3-8.33.22"/><path id="kvg:073ce-s8" kvg:type="㇒" d="M53.4 57.88c.03.62.07 1.6-.07 2.5-.81 5.26-5.47 16.82-11.85 23.89"/><path id="kvg:073ce-s9" kvg:type="㇔" d="M80.05 57.81C85 62.1 92.82 75.46 94.06 82.15"/></g></g></g></g></svg>