<!DOCTYPE svg PUBLIC "-//W3C//DTD SVG 1.0//EN" "http://www.w3.org/TR/2001/REC-SVG-20010904/DTD/svg10.dtd" [
<!ATTLIST g
xmlns:kvg CDATA #FIXED "http://kanjivg.tagaini.net"
kvg:element CDATA #IMPLIED
kvg:variant CDATA #IMPLIED
kvg:partial CDATA #IMPLIED
kvg:original CDATA #IMPLIED
kvg:part CDATA #IMPLIED
kvg:number CDATA #IMPLIED
kvg:tradForm CDATA #IMPLIED
kvg:radicalForm CDATA #IMPLIED
kvg:position CDATA #IMPLIED
kvg:radical CDATA #IMPLIED
kvg:phon CDATA #IMPLIED >
<!ATTLIST path
xmlns:kvg CDATA #FIXED "http://kanjivg.tagaini.net"
kvg:type CDATA #IMPLIED >
]><svg xmlns="http://www.w3.org/2000/svg" width="109" height="109" viewBox="0 0 109 109"><g id="kvg:StrokePaths_073c8" style="fill:none;stroke:#000000;stroke-width:3;stroke-linecap:round;stroke-linejoin:round;"><g id="kvg:073c8" kvg:element="珈"><g id="kvg:073c8-g1" kvg:element="王" kvg:original="玉" kvg:partial="true" kvg:position="left" kvg:radical="general"><path id="kvg:073c8-s1" kvg:type="㇐" d="M10.75 25.75c.56.37 3.6.45 4.16.34 2.63-.5 13.34-1.59 19.66-2.14.86-.07 2.46-.26 3.18.04"/><path id="kvg:073c8-s2" kvg:type="㇑a" d="M23.07 27.02c.87.88 1.48 2.78 1.48 3.48.0 5.95.52 40.12.35 44.07"/><path id="kvg:073c8-s3" kvg:type="㇐" d="M11 49.71c.47.19 3.8.22 4.28.18 2.77-.25 13-1.73 16.84-2 .59-.04 2.74-.08 3.63.09"/><path id="kvg:073c8-s4" kvg:type="㇐" d="M10.25 80.25c1.5 1 3.22 1.19 4.5.5 6-3.25 11.75-5.75 19.75-10.5"/></g><g id="kvg:073c8-g2" kvg:element="加" kvg:position="right"><g id="kvg:073c8-g3" kvg:element="力" kvg:position="left"><path id="kvg:073c8-s5" kvg:type="㇆" d="M36.11 36.26c1.14.74 3.9 1.52 4.67 1.39 6.97-1.15 17.8-2.78 21.17-3.52 2.19-.48 3.8.67 3.68 4.05C65.3 47.08 60.5 78 55.23 89.77c-3.93 8.78-6.96 1.33-7.84.28"/><path id="kvg:073c8-s6" kvg:type="㇒" d="M52.64 13.68c.25.42.97 2.26.85 4.36-1.16 19.54-6.99 54.21-24.59 71.6"/></g><g id="kvg:073c8-g4" kvg:element="口" kvg:position="right"><path id="kvg:073c8-s7" kvg:type="㇑" d="M71.81 32.48c.69 1.27 1.53 1.77 1.64 2.98.91 9.59 1.49 36.53 2.11 53.75"/><path id="kvg:073c8-s8" kvg:type="㇕b" d="M73.19 34.49c7.84-1.38 15.27-2.38 19.67-2.58 1.88-.09 3.36 1.04 3.21 3.28-.32 4.81-1.79 30.2-3.01 48.69"/><path id="kvg:073c8-s9" kvg:type="㇐b" d="M75.83 86.28c5.58-.47 12.14-1.62 19.44-2.18"/></g></g></g></g><g id="kvg:StrokeNumbers_073c8" style="font-size:8;fill:#808080"><text transform="matrix(1 0 0 1 4.50 25.50)">1</text><text transform="matrix(1 0 0 1 16.50 35.50)">2</text><text transform="matrix(1 0 0 1 4.50 50.50)">3</text><text transform="matrix(1 0 0 1 3.50 81.50)">4</text><text transform="matrix(1 0 0 1 35.50 33.50)">5</text><text transform="matrix(1 0 0 1 43.50 13.25)">6</text><text transform="matrix(1 0 0 1 67.50 55.50)">7</text><text transform="matrix(1 0 0 1 75.50 30.50)">8</text><text transform="matrix(1 0 0 1 79.50 82.50)">9</text></g></svg>