<svg xmlns="http://www.w3.org/2000/svg" width="109" height="109" viewBox="0 0 109 109"><g id="kvg:StrokePaths_073c2" style="fill:none;stroke:#000000;stroke-width:3;stroke-linecap:round;stroke-linejoin:round;"><g id="kvg:073c2" kvg:element="珂"><g id="kvg:073c2-g1" kvg:element="王" kvg:original="玉" kvg:partial="true" kvg:position="left" kvg:radical="general"><path id="kvg:073c2-s1" kvg:type="㇐" d="M12.5 24c2 .62 4.48.52 6.01.32 4.24-.57 11.85-1.85 17.49-2.44 1.66-.23 3.33-.27 5-.13"/><path id="kvg:073c2-s2" kvg:type="㇑a" d="M26.07 26.02c1.02 1.02 1.23 2.23 1.23 3.48.0 6.12.1 36.38.1 43.32"/><path id="kvg:073c2-s3" kvg:type="㇐" d="M14.5 49.5c1.94.4 3.89.48 5.85.23 4.18-.71 10.54-1.91 14.8-2.57 1.44-.32 2.89-.59 4.35-.29"/><path id="kvg:073c2-s4" kvg:type="㇐" d="M11.75 79.5c1.75 1.25 3.45 1.03 5.53-.04C24.5 75.75 27.88 74 38.5 68.25"/></g><g id="kvg:073c2-g2" kvg:element="可" kvg:position="right"><g id="kvg:073c2-g3" kvg:element="丁" kvg:part="1"><g id="kvg:073c2-g4" kvg:element="一"><path id="kvg:073c2-s5" kvg:type="㇐" d="M47.22 21.63c3.18.69 6.32.43 9.55-.03 9.56-1.34 22.49-2.6 31.74-3.45 3.06-.28 6.03-.25 9.03.38"/></g></g><g id="kvg:073c2-g5" kvg:element="口"><path id="kvg:073c2-s6" kvg:type="㇑" d="M50.33 38.28c1.01 1.01 1.25 2 1.4 3.3.63 5.61 1.39 10.85 1.98 15.67.26 2.09.49 4.11.66 6.04"/><path id="kvg:073c2-s7" kvg:type="㇕b" d="M52.35 40.6c5.9-1.19 12.02-2.49 15.65-3.09 1.83-.3 3.87.82 3.46 2.97-1.21 6.27-1.79 10.17-3.28 17.48"/><path id="kvg:073c2-s8" kvg:type="㇐b" d="M55.25 60.51c2.04-.32 7.56-1.1 11.37-1.64 1.91-.27 3.38-.49 3.77-.56"/></g><g id="kvg:073c2-g6" kvg:element="丁" kvg:part="2"><g id="kvg:073c2-g7" kvg:element="亅"><path id="kvg:073c2-s9" kvg:type="㇚" d="M84.66 22.09c.94.94 1.39 2.54 1.39 4.43.0 13.68.05 58.32.05 62.98.0 11.75-6.46 1.41-7.64.23"/></g></g></g></g></g></svg>