<svg xmlns="http://www.w3.org/2000/svg" width="109" height="109" viewBox="0 0 109 109"><g id="kvg:StrokePaths_073ed"><g id="kvg:073ed" kvg:element="班"><g id="kvg:073ed-g1" kvg:element="王" kvg:original="玉" kvg:partial="true" kvg:position="left" kvg:radical="general"><path id="kvg:073ed-s1" kvg:type="㇐" d="M14.27 27.36c1.73.39 4.47.15 5.76.0 4.17-.5 10.77-1.61 15.63-2.28 1.81-.25 3.5-.41 5.34-.18"/><path id="kvg:073ed-s2" kvg:type="㇑a" d="M27.06 29.8c1 1 1.31 2.61 1.31 4.17.0 11.15-.02 32.52-.02 42.71"/><path id="kvg:073ed-s3" kvg:type="㇐" d="M14.32 52.05c1.68.45 3.76.28 4.83.07 4.56-.86 11.26-2 16.28-2.94.73-.14 2.36-.4 3.46-.08"/><path id="kvg:073ed-s4" kvg:type="㇀/㇐" d="M14.66 81.11c.97 1.02 2.34 1.14 4.09.39 8.09-3.47 12-5.5 22.36-9.66"/></g><g id="kvg:073ed-g2" kvg:position="right"><g id="kvg:073ed-g3" kvg:element="刂" kvg:variant="true" kvg:original="刀"><path id="kvg:073ed-s5" kvg:type="㇑" d="M46.02 35.33c.98.92 1.76 1.99 1.76 5.02.0 8.6-.01 14.48-.02 18.9.0 2.46-.01 4.47-.01 6.25"/><path id="kvg:073ed-s6" kvg:type="㇒/㇚" d="M56.85 14.5c.82.82 1.54 2.12 1.54 4.39C58.39 43.87 60 78 42.06 94.72"/></g><g id="kvg:073ed-g4" kvg:element="王" kvg:original="玉" kvg:partial="true"><path id="kvg:073ed-s7" kvg:type="㇐" d="M67.85 23.19c1.65.44 3.27.69 4.88.48 5.5-.71 12.33-1.87 17.38-2.58 1.19-.17 2.63-.21 3.87.1"/><path id="kvg:073ed-s8" kvg:type="㇑a" d="M78.92 25.37c1.23 1.23 1.68 2.86 1.68 4.54.0 11.75-.02 33.95-.02 52.79"/><path id="kvg:073ed-s9" kvg:type="㇐" d="M68.19 51.54c1.81.46 3.99.6 5.32.44 5.36-.66 9.25-1.45 16.26-2.24.79-.09 2.1-.24 3.71-.01"/><path id="kvg:073ed-s10" kvg:type="㇐" d="M61.56 84.6c1.48.47 4.37.28 5.94.16 6.41-.49 15.85-1.79 25.26-2.12 1.57-.06 3.98.04 5.44.57"/></g></g></g></g></svg>