<svg xmlns="http://www.w3.org/2000/svg" width="109" height="109" viewBox="0 0 109 109"><g id="kvg:StrokePaths_073ea"><g id="kvg:073ea" kvg:element="珪"><g id="kvg:073ea-g1" kvg:element="王" kvg:original="玉" kvg:partial="true" kvg:position="left" kvg:radical="general"><path id="kvg:073ea-s1" kvg:type="㇐" d="M13.25 27c1.75.38 3.97.5 5.5.37 3.72-.32 11.23-1.57 16.63-2.19 1.78-.27 3.57-.58 5.37-.43"/><path id="kvg:073ea-s2" kvg:type="㇑a" d="M27.07 29.27c1.08 1.08 1.23 2.11 1.23 3.73.0 5.95-.05 36.05-.05 41.62"/><path id="kvg:073ea-s3" kvg:type="㇐" d="M14.75 52.25c1.88.5 3.83.3 5.99-.05 4.26-.7 9.63-1.7 14.4-2.69 1.52-.32 3.05-.44 4.6-.39"/><path id="kvg:073ea-s4" kvg:type="㇐" d="M12 81.68c1.12.94 2.29 1.27 4.14.31 7.73-4 13.61-7.5 22.86-12.75"/></g><g id="kvg:073ea-g2" kvg:element="圭" kvg:position="right"><g id="kvg:073ea-g3" kvg:element="土" kvg:position="top"><path id="kvg:073ea-s5" kvg:type="㇐" d="M48.55 33.24c2.39.58 4.76.19 7.2-.07 7.75-.8 16.57-2.01 25.87-2.56 2.5-.37 4.75-.24 7.42.03"/><path id="kvg:073ea-s6" kvg:type="㇑a" d="M66.7 13.12c.97.97 1.16 2.38 1.16 3.91.0 12.97-.1 15.96-.1 33.11"/><path id="kvg:073ea-s7" kvg:type="㇐" d="M46.2 52.15c2.65.34 5.3.35 7.95.05 8.55-.63 23.1-1.94 31.85-2.44 2.43-.26 4.84-.14 7.25.37"/></g><g id="kvg:073ea-g4" kvg:element="土" kvg:position="bottom"><path id="kvg:073ea-s8" kvg:type="㇐" d="M47.82 72.46c2.56.48 5.12.51 7.69.08 11.12-.92 19.29-2.01 27.99-2.47 2.18-.24 4.34-.16 6.5.25"/><path id="kvg:073ea-s9" kvg:type="㇑a" d="M67.1 56.07c.85.85 1.43 1.95 1.43 3.72.0 11.39-.04 15.9-.04 30.96"/><path id="kvg:073ea-s10" kvg:type="㇐" d="M41.55 92.76c3.21.58 6.44.62 9.7.36C65.12 92 74 91.38 87.5 90.94c3.29-.1 6.51.02 9.71.79"/></g></g></g></g></svg>