<svg xmlns="http://www.w3.org/2000/svg" width="109" height="109" viewBox="0 0 109 109"><g id="kvg:StrokePaths_07409"><g id="kvg:07409" kvg:element="琉"><g id="kvg:07409-g1" kvg:element="王" kvg:original="玉" kvg:partial="true" kvg:position="left" kvg:radical="general"><path id="kvg:07409-s1" kvg:type="㇐" d="M15.25 25c1.36.89 4.16.74 5.71.52 3.76-.52 11.34-1.92 16.56-2.47 1.24-.13 3.23-.31 4.48-.06"/><path id="kvg:07409-s2" kvg:type="㇑a" d="M28.32 28.02c1.02 1.02 1.23 1.98 1.23 3.73.0 5.95-.05 37.68-.05 43.88"/><path id="kvg:07409-s3" kvg:type="㇐" d="M16 51.12c1.31.77 4.05.33 5.5.1 3.64-.58 11.5-2.07 15.76-2.83 1.5-.27 2.49-.53 3.99-.11"/><path id="kvg:07409-s4" kvg:type="㇐" d="M14.25 82.25c1.2 1 2.47 1.27 4.52.25 6.51-3.25 11.55-6 20.98-11"/></g><g id="kvg:07409-g2" kvg:element="㐬" kvg:position="right"><g id="kvg:07409-g3" kvg:position="top"><g id="kvg:07409-g4" kvg:element="亠"><path id="kvg:07409-s5" kvg:type="㇑a" d="M65.25 13c1.06 1.06 1.3 1.88 1.3 3.37.0 3.06-.05 8.97-.05 11.26"/><path id="kvg:07409-s6" kvg:type="㇐" d="M43.69 30.78c3.19.59 5.86.2 9.09-.24 8.55-1.18 22.81-3.4 31.85-4.15 2.62-.22 5.34-.52 7.93-.01"/></g><g id="kvg:07409-g5" kvg:element="厶"><path id="kvg:07409-s7" kvg:type="㇜" d="M63.69 32.25c.31 1.25.06 2.34-.8 3.4-3.76 4.6-6.13 7.6-10.13 12.1-2.39 2.69-1.92 3.38 1.5 2.5C63.81 47.79 68 46.5 80 43.5"/><path id="kvg:07409-s8" kvg:type="㇔" d="M75.16 35.6c3.81 2.76 9.85 11.33 10.8 15.62"/></g></g><g id="kvg:07409-g6" kvg:element="川" kvg:variant="true" kvg:original="巛" kvg:position="bottom"><path id="kvg:07409-s9" kvg:type="㇒" d="M51.53 61.89c.85.85.9 1.86.9 3.52.0 15.38-4.56 24.34-13.37 30.8"/><path id="kvg:07409-s10" kvg:type="㇑" d="M64.02 56.62c.75.75 1.26 1.88 1.26 4.02.0 3.71.0 16.12.0 24.61.0 3.21.0 5.85.0 7.25"/><path id="kvg:07409-s11" kvg:type="㇟" d="M78.6 55.37c1.08 1.08 1.12 2.38 1.12 4.43.0 8.19-.03 19.14-.03 24.7.0 9.62 1.03 10.28 9.67 10.28 6.51.0 7.39-.9 7.39-8.62"/></g></g></g></g></svg>