<svg xmlns="http://www.w3.org/2000/svg" width="109" height="109" viewBox="0 0 109 109"><g id="kvg:StrokePaths_07405" style="fill:none;stroke:#000000;stroke-width:3;stroke-linecap:round;stroke-linejoin:round;"><g id="kvg:07405" kvg:element="琅"><g id="kvg:07405-g1" kvg:element="王" kvg:original="玉" kvg:partial="true" kvg:position="left" kvg:radical="general"><path id="kvg:07405-s1" kvg:type="㇐" d="M11.6 25.25c.67.37 4.31.45 4.99.34 3.16-.5 15.98-2.09 23.56-2.64 1.03-.07 2.95-.26 3.8.04"/><path id="kvg:07405-s2" kvg:type="㇑a" d="M27.55 27.52c.93.88 1.58 2.78 1.58 3.48.0 5.95.05 43.62-.13 47.57"/><path id="kvg:07405-s3" kvg:type="㇐" d="M12.52 52c.59.4 4.75.46 5.36.37 3.47-.53 15.28-2.12 20.08-2.69.74-.09 3.44-.16 4.54.19"/><path id="kvg:07405-s4" kvg:type="㇐" d="M11.75 85.25c1.25 1 3.36 1.43 4.24 1 5.61-2.75 19.12-10.25 27.67-15"/></g><g id="kvg:07405-g2" kvg:element="良" kvg:position="right"><path id="kvg:07405-s5" kvg:type="㇑a" d="M65.05 10.75c1.19.64 1.91 1.6 2.15 2.87.24 1.28.24 9.19.24 12.38"/><g id="kvg:07405-g3" kvg:element="艮"><path id="kvg:07405-s6" kvg:type="㇕" d="M52.38 27.31c2.35-.12 30.2-3.51 32.34-3.66 1.78-.12 2.81 1.36 2.79 2.1-.12 5.26-2.25 22-3.09 27.39"/><path id="kvg:07405-s7" kvg:type="㇐a" d="M53.03 40.52c5.9-.59 27.55-2.9 33.22-3.37"/><path id="kvg:07405-s8" kvg:type="㇐a" d="M53.64 53.09c8.08-.95 22.19-1.31 30.97-2.21"/><path id="kvg:07405-s9" kvg:type="㇙" d="M50.01 23.96c1.33.58 2.13 2.6 2.4 3.75.27 1.15.56 60.17.27 63.04-.27 2.6-.82 7.42 2.03 4.6C58.5 91.6 61.5 89 68.3 83.57"/><path id="kvg:07405-s10" kvg:type="㇒" d="M86.57 59.19c.28 1.17.46 1.63-.49 2.56-1.83 1.82-7.35 6.03-9.86 7.66"/><path id="kvg:07405-s11" kvg:type="㇏" d="M59.62 57.98c5.52 4.23 20.09 23.96 28.49 31.15 4.48 3.84 6.75 4.85 9.21 5.58"/></g></g></g></g></svg>