<!DOCTYPE svg PUBLIC "-//W3C//DTD SVG 1.0//EN" "http://www.w3.org/TR/2001/REC-SVG-20010904/DTD/svg10.dtd" [
<!ATTLIST g
xmlns:kvg CDATA #FIXED "http://kanjivg.tagaini.net"
kvg:element CDATA #IMPLIED
kvg:variant CDATA #IMPLIED
kvg:partial CDATA #IMPLIED
kvg:original CDATA #IMPLIED
kvg:part CDATA #IMPLIED
kvg:number CDATA #IMPLIED
kvg:tradForm CDATA #IMPLIED
kvg:radicalForm CDATA #IMPLIED
kvg:position CDATA #IMPLIED
kvg:radical CDATA #IMPLIED
kvg:phon CDATA #IMPLIED >
<!ATTLIST path
xmlns:kvg CDATA #FIXED "http://kanjivg.tagaini.net"
kvg:type CDATA #IMPLIED >
]><svg xmlns="http://www.w3.org/2000/svg" width="109" height="109" viewBox="0 0 109 109"><g id="kvg:StrokePaths_07425" style="fill:none;stroke:#000000;stroke-width:3;stroke-linecap:round;stroke-linejoin:round;"><g id="kvg:07425" kvg:element="琥"><g id="kvg:07425-g1" kvg:element="王" kvg:original="玉" kvg:partial="true" kvg:position="left" kvg:radical="general"><path id="kvg:07425-s1" kvg:type="㇐" d="M10.6 24.75c.58.37 3.71.45 4.29.34 2.72-.5 13.76-2.09 20.28-2.64.89-.07 2.54-.26 3.28.04"/><path id="kvg:07425-s2" kvg:type="㇑a" d="M23.05 27.52c.93.88 1.58 2.78 1.58 3.48.0 5.95.05 43.62-.13 47.57"/><path id="kvg:07425-s3" kvg:type="㇐" d="M11.52 51.44c.52.23 4.16.26 4.69.21 3.04-.3 13.37-1.19 17.57-1.52.65-.05 3.01-.09 3.97.11"/><path id="kvg:07425-s4" kvg:type="㇐" d="M10 85.03c1.19 1.18 4.2.7 5.04.18 5.35-3.26 11.97-8.09 20.12-13.72"/></g><g id="kvg:07425-g2" kvg:element="虎" kvg:position="right"><g id="kvg:07425-g3" kvg:element="虍" kvg:position="tare"><path id="kvg:07425-s5" kvg:type="㇑a" d="M63.13 10.08c1.04.97 1.85 2.1 1.85 5.29.0 6.22-.02 8.64-.02 13.87"/><path id="kvg:07425-s6" kvg:type="㇐b" d="M66.65 19.78c4.9-.81 12.44-1.87 17.41-2.52 1.64-.21 2.64.19 3.47.39"/><path id="kvg:07425-s7" kvg:type="㇒" d="M45.79 29.68c.61.64 1.14 3.03 1.17 5.34C47.25 62.5 45 81.75 31 97.25"/><path id="kvg:07425-s8" kvg:type="㇖a" d="M46.94 32.02c11.9-2.02 32.6-3.71 42.77-4.18 12.54-.59 2.27 6.66-.4 8.78"/><g id="kvg:07425-g4" kvg:element="七"><g id="kvg:07425-g5" kvg:element="一"><path id="kvg:07425-s9" kvg:type="㇐" d="M52.89 46.39c.64.2 1.81.29 2.44.2 6.26-.9 17.68-2.78 24.56-3.27 1.06-.08 1.7.1 2.23.2"/></g><path id="kvg:07425-s10" kvg:type="㇟a" d="M64.06 33.93c.61.44 1.42 2.17 1.42 2.78.0 4.87-.11 10.41-.11 12.58.0 6.47 2.83 6.96 11.56 6.96 3.25.0 10.25.0 13.05-.87"/></g></g><g id="kvg:07425-g6" kvg:element="儿" kvg:original="八" kvg:position="tarec"><g id="kvg:07425-g7" kvg:element="丿" kvg:position="left"><path id="kvg:07425-s11" kvg:type="㇒" d="M60.6 62.22c.04.8.42 2.07.42 3.23.0 10.05-3.02 24.3-14.86 30.97"/></g><g id="kvg:07425-g8" kvg:position="right"><path id="kvg:07425-s12" kvg:type="㇟" d="M73.76 62.25c.53 1.02.95 2.22.98 3.78.14 7-.38 13.8-.38 18.55.0 11.11 1.57 11.86 10.6 11.86s10.47-1.19 10.47-9.8"/></g></g></g></g></g><g id="kvg:StrokeNumbers_07425" style="font-size:8;fill:#808080"><text transform="matrix(1 0 0 1 4.50 24.50)">1</text><text transform="matrix(1 0 0 1 16.50 35.50)">2</text><text transform="matrix(1 0 0 1 4.50 51.50)">3</text><text transform="matrix(1 0 0 1 2.50 85.50)">4</text><text transform="matrix(1 0 0 1 53.50 10.50)">5</text><text transform="matrix(1 0 0 1 69.75 15.50)">6</text><text transform="matrix(1 0 0 1 38.50 37.50)">7</text><text transform="matrix(1 0 0 1 49.00 28.50)">8</text><text transform="matrix(1 0 0 1 51.50 43.50)">9</text><text transform="matrix(1 0 0 1 68.00 38.50)">10</text><text transform="matrix(1 0 0 1 50.50 67.50)">11</text><text transform="matrix(1 0 0 1 64.50 71.50)">12</text></g></svg>