<!DOCTYPE svg PUBLIC "-//W3C//DTD SVG 1.0//EN" "http://www.w3.org/TR/2001/REC-SVG-20010904/DTD/svg10.dtd" [
<!ATTLIST g
xmlns:kvg CDATA #FIXED "http://kanjivg.tagaini.net"
kvg:element CDATA #IMPLIED
kvg:variant CDATA #IMPLIED
kvg:partial CDATA #IMPLIED
kvg:original CDATA #IMPLIED
kvg:part CDATA #IMPLIED
kvg:number CDATA #IMPLIED
kvg:tradForm CDATA #IMPLIED
kvg:radicalForm CDATA #IMPLIED
kvg:position CDATA #IMPLIED
kvg:radical CDATA #IMPLIED
kvg:phon CDATA #IMPLIED >
<!ATTLIST path
xmlns:kvg CDATA #FIXED "http://kanjivg.tagaini.net"
kvg:type CDATA #IMPLIED >
]><svg xmlns="http://www.w3.org/2000/svg" width="109" height="109" viewBox="0 0 109 109"><g id="kvg:StrokePaths_0743f" style="fill:none;stroke:#000000;stroke-width:3;stroke-linecap:round;stroke-linejoin:round;"><g id="kvg:0743f" kvg:element="琿"><g id="kvg:0743f-g1" kvg:element="王" kvg:original="玉" kvg:partial="true" kvg:position="left" kvg:radical="general"><path id="kvg:0743f-s1" kvg:type="㇐" d="M11.1 23.25c.67.37 4.31.45 4.99.34 3.16-.5 13.48-1.59 21.06-2.14 1.03-.07 2.95-.26 3.8.04"/><path id="kvg:0743f-s2" kvg:type="㇑a" d="M24.55 25.52c.93.88 1.58 2.78 1.58 3.48.0 5.95.05 46.62-.13 50.57"/><path id="kvg:0743f-s3" kvg:type="㇐" d="M10.52 51.5c.59.4 4.75.46 5.36.37 3.47-.53 14.78-1.62 19.58-2.19.74-.09 3.44-.16 4.54.19"/><path id="kvg:0743f-s4" kvg:type="㇐" d="M12 85.46c1.75.54 4.27.79 5.12.25 5.45-3.43 12.73-8.04 21.04-13.96"/></g><g id="kvg:0743f-g2" kvg:element="軍" kvg:position="right"><g id="kvg:0743f-g3" kvg:element="冖" kvg:position="top"><path id="kvg:0743f-s5" kvg:type="㇔" d="M47.03 17.96c-.11 3.19-2.7 11.54-3.62 13.44"/><path id="kvg:0743f-s6" kvg:type="㇖b" d="M47.17 19.23c6.17-.7 31.57-4.73 43.78-5.28 9.28-.42 1.44 7.44.3 8.62"/></g><g id="kvg:0743f-g4" kvg:element="車" kvg:position="bottom"><path id="kvg:0743f-s7" kvg:type="㇐" d="M51.62 33.39c.84.37 2.38.45 3.22.37 8.12-.81 19.8-2.27 29.28-2.74 1.4-.07 2.24.17 2.94.36"/><path id="kvg:0743f-s8" kvg:type="㇑" d="M49.23 43.35c.58.47 1.32 1.82 1.43 2.44.87 4.93 2.3 14.94 3.34 22.92"/><path id="kvg:0743f-s9" kvg:type="㇕a" d="M51.46 44.69c8.83-.94 28.21-3.23 34.23-3.38 2.49-.06 3 1.29 2.9 2.76-.37 5.06-.77 13.89-2.74 22.19"/><path id="kvg:0743f-s10" kvg:type="㇐a" d="M52.54 55.17c6.66-.23 22.56-2.48 35.1-2.48"/><path id="kvg:0743f-s11" kvg:type="㇐a" d="M54.04 66.3c7.74-.93 22.23-2.21 32.3-2.21"/><path id="kvg:0743f-s12" kvg:type="㇐" d="M42.18 77.64c1.43.64 4.03.74 5.48.64 24.13-1.66 23.03-2.62 46.92-3.37 2.38-.07 3.81.31 5 .63"/><path id="kvg:0743f-s13" kvg:type="㇑" d="M67.17 22.05c.54.57 1.79 2.95 1.79 5.45.0 1.15-.07 66.46-.18 73.64"/></g></g></g></g><g id="kvg:StrokeNumbers_0743f" style="font-size:8;fill:#808080"><text transform="matrix(1 0 0 1 4.50 23.50)">1</text><text transform="matrix(1 0 0 1 17.50 33.50)">2</text><text transform="matrix(1 0 0 1 3.50 51.50)">3</text><text transform="matrix(1 0 0 1 4.54 85.50)">4</text><text transform="matrix(1 0 0 1 40.75 16.50)">5</text><text transform="matrix(1 0 0 1 50.50 15.50)">6</text><text transform="matrix(1 0 0 1 50.50 30.50)">7</text><text transform="matrix(1 0 0 1 43.50 51.50)">8</text><text transform="matrix(1 0 0 1 53.75 42.50)">9</text><text transform="matrix(1 0 0 1 55.50 52.50)">10</text><text transform="matrix(1 0 0 1 57.50 62.50)">11</text><text transform="matrix(1 0 0 1 42.50 74.50)">12</text><text transform="matrix(1 0 0 1 56.50 26.50)">13</text></g></svg>