<!DOCTYPE svg PUBLIC "-//W3C//DTD SVG 1.0//EN" "http://www.w3.org/TR/2001/REC-SVG-20010904/DTD/svg10.dtd" [
<!ATTLIST g
xmlns:kvg CDATA #FIXED "http://kanjivg.tagaini.net"
kvg:element CDATA #IMPLIED
kvg:variant CDATA #IMPLIED
kvg:partial CDATA #IMPLIED
kvg:original CDATA #IMPLIED
kvg:part CDATA #IMPLIED
kvg:number CDATA #IMPLIED
kvg:tradForm CDATA #IMPLIED
kvg:radicalForm CDATA #IMPLIED
kvg:position CDATA #IMPLIED
kvg:radical CDATA #IMPLIED
kvg:phon CDATA #IMPLIED >
<!ATTLIST path
xmlns:kvg CDATA #FIXED "http://kanjivg.tagaini.net"
kvg:type CDATA #IMPLIED >
]><svg xmlns="http://www.w3.org/2000/svg" width="109" height="109" viewBox="0 0 109 109"><g id="kvg:StrokePaths_07436" style="fill:none;stroke:#000000;stroke-width:3;stroke-linecap:round;stroke-linejoin:round;"><g id="kvg:07436" kvg:element="琶"><g id="kvg:07436-g1" kvg:position="top"><g id="kvg:07436-g2" kvg:element="王" kvg:original="玉" kvg:partial="true" kvg:position="left" kvg:radical="general"><path id="kvg:07436-s1" kvg:type="㇐" d="M19.25 18.14c.6.28 3.86.34 4.47.26 2.83-.38 14.33-1.6 21.12-2.01.93-.06 2.64-.2 3.41.03"/><path id="kvg:07436-s2" kvg:type="㇑a" d="M31.34 18.43c1.09.61 1.85 1.93 1.85 2.42.0 4.13-.07 16.4-.07 20.86"/><path id="kvg:07436-s3" kvg:type="㇐" d="M18 30.98c.55.22 4.45.26 5.01.21 3.25-.29 14.24-2.01 18.73-2.33.69-.05 3.22-.09 4.25.11"/><path id="kvg:07436-s4" kvg:type="㇐" d="M15.25 46.35c1.25.65 2.5.9 4.36.43 5.85-1.49 13.56-4.19 22.39-7.13"/></g><g id="kvg:07436-g3" kvg:element="王" kvg:original="玉" kvg:partial="true" kvg:position="right"><path id="kvg:07436-s5" kvg:type="㇐" d="M56.91 15.75c.64.45 3.71.6 4.37.53 4.72-.53 17.51-1.87 24.75-2.34.99-.06 1.88.09 2.7.47"/><path id="kvg:07436-s6" kvg:type="㇑a" d="M70.77 17.21c1.14 1.84 1.14 2.94 1.14 4.41.0 10.29-.07 5.07-.07 17.87"/><path id="kvg:07436-s7" kvg:type="㇐" d="M58.29 27.61c.63.5 2.72.23 3.37.22 5.84-.08 13.14-1.21 21.06-2.1.79-.09 2.53-.2 3.71.23"/><path id="kvg:07436-s8" kvg:type="㇐" d="M54.44 40.14c.44.15 2.72.29 3.46.24 8.89-.59 20.77-1.71 31.87-2.18 1.87-.08 1.7-.07 2.98.0"/></g></g><g id="kvg:07436-g4" kvg:element="巴" kvg:position="bottom"><g id="kvg:07436-g5" kvg:element="己" kvg:original="巳"><path id="kvg:07436-s9" kvg:type="㇕c" d="M30.12 54.07c15.95-1.9 39.01-3.15 48.85-3.83 3.59-.25 4.43 2.27 4.22 3.8-.81 5.8-1.98 10.71-3.6 14.97"/><path id="kvg:07436-s10" kvg:type="㇑a" d="M53.66 52.67c.78.38 1.55 2.85 1.55 3.62.0 4.82-.26 8.47-.26 11.39"/><path id="kvg:07436-s11" kvg:type="㇐c" d="M31.43 69.6c5.36-.43 41.51-2.13 47.64-2.56"/><path id="kvg:07436-s12" kvg:type="㇟" d="M28.5 51.7c.85 1.15 1.52 2.51 1.57 4.29.23 7.93-.43 14.66-.43 20.01.0 18.33-.77 19 32.15 19 37.1.0 30.03-8.03 30.32-11.42"/></g></g></g></g><g id="kvg:StrokeNumbers_07436" style="font-size:8;fill:#808080"><text transform="matrix(1 0 0 1 12.50 18.50)">1</text><text transform="matrix(1 0 0 1 26.50 27.85)">2</text><text transform="matrix(1 0 0 1 11.50 31.50)">3</text><text transform="matrix(1 0 0 1 8.50 47.50)">4</text><text transform="matrix(1 0 0 1 54.50 12.50)">5</text><text transform="matrix(1 0 0 1 64.25 25.50)">6</text><text transform="matrix(1 0 0 1 52.25 27.50)">7</text><text transform="matrix(1 0 0 1 53.25 37.50)">8</text><text transform="matrix(1 0 0 1 34.50 50.50)">9</text><text transform="matrix(1 0 0 1 57.50 60.50)">10</text><text transform="matrix(1 0 0 1 34.25 66.50)">11</text><text transform="matrix(1 0 0 1 19.50 60.50)">12</text></g></svg>