<svg xmlns="http://www.w3.org/2000/svg" width="109" height="109" viewBox="0 0 109 109"><g id="kvg:StrokePaths_07459"><g id="kvg:07459" kvg:element="瑙"><g id="kvg:07459-g1" kvg:element="王" kvg:original="玉" kvg:partial="true" kvg:position="left" kvg:radical="general"><path id="kvg:07459-s1" kvg:type="㇐" d="M10.6 23.25c.67.37 4.31.45 4.99.34 3.16-.5 14.98-1.59 22.56-2.14 1.03-.07 2.95-.26 3.8.04"/><path id="kvg:07459-s2" kvg:type="㇑a" d="M25.05 25.52c.93.88 1.58 2.78 1.58 3.48.0 5.95.05 46.12-.13 50.07"/><path id="kvg:07459-s3" kvg:type="㇐" d="M11.52 51.5c.59.4 4.75.46 5.36.37 3.47-.53 15.28-2.12 20.08-2.69.74-.09 3.44-.16 4.54.19"/><path id="kvg:07459-s4" kvg:type="㇐" d="M11.25 86.01c1.25.74 3.27.73 4.12.21 5.45-3.32 13.73-8.74 22.04-14.47"/></g><g id="kvg:07459-g2" kvg:position="right"><g id="kvg:07459-g3" kvg:element="巛" kvg:position="top"><path id="kvg:07459-s5" kvg:type="㇛" d="M57.26 13.03c.14 1.24.02 2.13-.34 3.14-2.37 6.75-4.27 10.55-10.23 17.69-.97 1.16-.45.98.0 1.31C53.13 39.86 56.5 43 59.57 49.5"/><path id="kvg:07459-s6" kvg:type="㇛" d="M75.1 11.37c.4 1.13-.02 2.7-.36 3.45-1.74 3.93-4.99 10.18-9.91 16-.48.56-.23.78.21 1.1 5.21 3.83 9.96 7.83 13.6 14.24"/><path id="kvg:07459-s7" kvg:type="㇛" d="M91.92 11.21c.33.79.29 1.67.15 2.45-.82 4.34-5.32 9.34-10.7 16-.46.57-.26.82.21 1.1C89 35.25 94 41.75 96.18 47.66"/></g><g id="kvg:07459-g4" kvg:element="囟" kvg:position="bottom"><path id="kvg:07459-s8" kvg:type="㇒" d="M70.78 47.89c.03.31.05.79-.05 1.24-.61 2.61-4.12 8.33-8.92 11.84"/><path id="kvg:07459-s9" kvg:type="㇑" d="M48.99 61.79c.32.61.88 2.1 1.06 2.87 1.47 6.36 2.89 22.95 3.8 34.81"/><path id="kvg:07459-s10" kvg:type="㇕" d="M49.97 64.23c11.36-1.6 33.01-4.32 41.49-5.66 3.11-.5 4.71 1.25 4.55 3-.59 6.41-3.13 24.4-4.55 35.11"/><g id="kvg:07459-g5" kvg:element="乂"><g id="kvg:07459-g6" kvg:element="丿"><path id="kvg:07459-s11" kvg:type="㇒" d="M81.06 64.79c.06.6.12 1.55-.12 2.41-1.43 5.08-9.63 16.24-20.86 23.06"/></g><path id="kvg:07459-s12" kvg:type="㇏" d="M61.04 71.36c8.25 3 21.3 12.33 23.36 17"/></g><path id="kvg:07459-s13" kvg:type="㇐" d="M53.89 97.73c8.18-.68 24.62-2.19 37.56-2.53"/></g></g></g></g></svg>