<svg xmlns="http://www.w3.org/2000/svg" width="109" height="109" viewBox="0 0 109 109"><g id="kvg:StrokePaths_0745a"><g id="kvg:0745a" kvg:element="瑚"><g id="kvg:0745a-g1" kvg:element="王" kvg:original="玉" kvg:partial="true" kvg:position="left" kvg:radical="general"><path id="kvg:0745a-s1" kvg:type="㇐" d="M10.75 25.25c1.88.62 3.94.36 5.39.14 3.72-.56 12.42-1.57 18.11-2.09 1.39-.13 3.42-.62 4.75-.05"/><path id="kvg:0745a-s2" kvg:type="㇑a" d="M24.57 27.02c1.02 1.02 1.23 2.36 1.23 4.23.0 5.95-.05 35.3-.05 42.75"/><path id="kvg:0745a-s3" kvg:type="㇐" d="M11 50.5c1.88.62 3.83.56 5.01.37 3.25-.53 13.74-2.62 18.23-3.19.69-.09 1.88-.3 3-.06"/><path id="kvg:0745a-s4" kvg:type="㇐" d="M12.25 81.5c1 .75 2.11.98 3.75.0 6.25-3.75 9.88-6.25 18.25-11.5"/></g><g id="kvg:0745a-g2" kvg:element="胡" kvg:position="right"><g id="kvg:0745a-g3" kvg:element="古" kvg:position="left"><g id="kvg:0745a-g4" kvg:element="十"><path id="kvg:0745a-s5" kvg:type="㇐" d="M36.51 41.05c2.24.58 3.67.37 5.36.19 6.88-.74 15.53-1.83 22.26-2.69 1.5-.19 2.99-.42 4.44-.34"/><path id="kvg:0745a-s6" kvg:type="㇑a" d="M52.19 15.63c.96.96 1.04 2.12 1.04 3.69.0 14.47-.11 31.87-.11 38.68"/></g><g id="kvg:0745a-g5" kvg:element="口"><path id="kvg:0745a-s7" kvg:type="㇑" d="M40.4 59.76c.86.86.97 1.74 1.15 3.11.44 3.39 1.22 8.97 1.93 14.26.21 1.55.41 3.08.6 4.52"/><path id="kvg:0745a-s8" kvg:type="㇕b" d="M42.37 60.86c4.71-.67 13.81-2.39 19.22-3.21 3.33-.5 4.42.34 3.83 3.73-.69 4.01-1.42 7.37-2.6 13.05"/><path id="kvg:0745a-s9" kvg:type="㇐b" d="M44.99 77.97c3.38-.28 10.68-1.38 16.13-2.05 1.43-.18 2.73-.32 3.8-.42"/></g></g><g id="kvg:0745a-g6" kvg:element="月" kvg:position="right"><path id="kvg:0745a-s10" kvg:type="㇓" d="M74.51 19.63c.8.8 1.14 1.87 1.16 2.82 1.2 42.8-.92 56.67-12.82 67.92"/><path id="kvg:0745a-s11" kvg:type="㇆a" d="M76.59 21.21c1.82-.24 12.81-2.7 14.17-2.96 2.43-.47 4.29.63 4.29 3.71.0 3.04.04 46.66.04 65.82.0 9.1-5.62 2.16-7.52.26"/><path id="kvg:0745a-s12" kvg:type="㇐a" d="M76.88 40.75c5.93-.89 11.89-1.74 17.1-2.05"/><path id="kvg:0745a-s13" kvg:type="㇐a" d="M76.75 59.57c4.97-.5 11.33-1.69 17.08-1.83"/></g></g></g></g></svg>