<svg xmlns="http://www.w3.org/2000/svg" width="109" height="109" viewBox="0 0 109 109"><g id="kvg:StrokePaths_07469"><g id="kvg:07469" kvg:element="瑩"><g id="kvg:07469-g1" kvg:element="𤇾" kvg:position="top"><g id="kvg:07469-g2" kvg:element="炏"><g id="kvg:07469-g3" kvg:element="火"><path id="kvg:07469-s1" kvg:type="㇔" d="M21.5 17.68c3 2.13 6 7.88 6.25 11.31"/><path id="kvg:07469-s2" kvg:type="㇒" d="M49.65 16.37c.77.52.41 2.44-.29 3.25s-7.14 5.94-10.62 7.84"/><path id="kvg:07469-s3" kvg:type="㇒" d="M36.26 10.75c.99.81 1 2.9.99 3.42C37 29 33.75 36.25 24.75 42.75"/><path id="kvg:07469-s4" kvg:type="㇏" d="M38.22 30.89c4.39 1.62 9.93 6.73 11.08 9.02"/></g><g id="kvg:07469-g4" kvg:element="火"><path id="kvg:07469-s5" kvg:type="㇔" d="M56.75 17.18c3.94 3.03 7.1 7.92 7.5 11.31"/><path id="kvg:07469-s6" kvg:type="㇒" d="M86.11 14.87c.14 1.38-.56 3.01-1.31 3.85s-8.04 5.03-11.81 6.99"/><path id="kvg:07469-s7" kvg:type="㇒" d="M71.34 9.75c.91.69.91 2.04.91 2.49.0 14.76-4.75 22.76-13 28.26"/><path id="kvg:07469-s8" kvg:type="㇏" d="M73.47 29.14c4.49 1.93 10.15 8.04 11.33 10.77"/></g></g><g id="kvg:07469-g5" kvg:element="冖"><path id="kvg:07469-s9" kvg:type="㇔" d="M19.91 47.19C19.79 50.64 17 59.69 16 61.75"/><path id="kvg:07469-s10" kvg:type="㇆" d="M19.72 51c3.53.0 49.75-5.25 67.47-5.25 12.06.0 3.81 5.75-.69 9.5"/></g></g><g id="kvg:07469-g6" kvg:element="玉" kvg:position="bottom" kvg:radical="general"><g id="kvg:07469-g7" kvg:element="王"><path id="kvg:07469-s11" kvg:type="㇐" d="M29.94 60.87c.98.44 4.16.54 5.15.45 12.57-1.07 18.34-1.88 37.4-3.45 1.5-.12 2.88.09 4.13.46"/><path id="kvg:07469-s12" kvg:type="㇑a" d="M52.74 61.47c.69.83 1.38 1.65 1.38 3.04.0 4.68.34 25.04.17 29.71"/><path id="kvg:07469-s13" kvg:type="㇐" d="M29.16 76.43c.91.41 3.91.63 4.84.54 9.19-.99 28.79-2.39 38.21-2.97 1.13-.07 3.63-.17 5.32.19"/><path id="kvg:07469-s14" kvg:type="㇐" d="M18.24 95.62c.83.28 4.04.3 5.45.23C40.25 95 70.75 93.49 86.39 93.4c2.27-.01 4.99.47 6.13.92"/></g><g id="kvg:07469-g8" kvg:element="丶"><path id="kvg:07469-s15" kvg:type="㇔" d="M66.3 80.49c4.88 1.72 9.06 5.37 10.11 7.51"/></g></g></g></g></svg>