<!DOCTYPE svg PUBLIC "-//W3C//DTD SVG 1.0//EN" "http://www.w3.org/TR/2001/REC-SVG-20010904/DTD/svg10.dtd" [
<!ATTLIST g
xmlns:kvg CDATA #FIXED "http://kanjivg.tagaini.net"
kvg:element CDATA #IMPLIED
kvg:variant CDATA #IMPLIED
kvg:partial CDATA #IMPLIED
kvg:original CDATA #IMPLIED
kvg:part CDATA #IMPLIED
kvg:number CDATA #IMPLIED
kvg:tradForm CDATA #IMPLIED
kvg:radicalForm CDATA #IMPLIED
kvg:position CDATA #IMPLIED
kvg:radical CDATA #IMPLIED
kvg:phon CDATA #IMPLIED >
<!ATTLIST path
xmlns:kvg CDATA #FIXED "http://kanjivg.tagaini.net"
kvg:type CDATA #IMPLIED >
]><svg xmlns="http://www.w3.org/2000/svg" width="109" height="109" viewBox="0 0 109 109"><g id="kvg:StrokePaths_07460" style="fill:none;stroke:#000000;stroke-width:3;stroke-linecap:round;stroke-linejoin:round;"><g id="kvg:07460" kvg:element="瑠"><g id="kvg:07460-g1" kvg:element="王" kvg:original="玉" kvg:partial="true" kvg:position="left" kvg:radical="general"><path id="kvg:07460-s1" kvg:type="㇐" d="M11.35 23.5c2.27.63 4.22.36 5.79.11 3.81-.59 11.79-1.74 17.62-2.28 1.37-.13 3.36-.61 4.68-.07"/><path id="kvg:07460-s2" kvg:type="㇑a" d="M25.3 24.77c.93.88 1.58 2.78 1.58 3.48.0 5.95-.01 45.05-.01 49.88"/><path id="kvg:07460-s3" kvg:type="㇐" d="M12.27 50.51c2.11.74 5.01.33 6.5.09 5.23-.85 11.85-2.41 15.46-3.02.65-.11 2.76-.45 4.01-.26"/><path id="kvg:07460-s4" kvg:type="㇐" d="M12.75 84.43c1.23 1.06 2.5 1.2 4.16.31 5.5-2.93 12.34-6.86 22-12.49"/></g><g id="kvg:07460-g2" kvg:element="留" kvg:position="right"><g id="kvg:07460-g3" kvg:element="卯" kvg:variant="true" kvg:position="top"><g id="kvg:07460-g4" kvg:position="left"><path id="kvg:07460-s5" kvg:type="㇒" d="M59.85 11.44c.1 1.02-.23 2.04-.84 2.88-2.51 3.43-5.88 6.18-12.23 10.57"/><path id="kvg:07460-s6" kvg:type="㇙" d="M44.12 26.6c.96.96 1.24 1.78 1.24 3.09.0 3.82-.1 16.94-.1 21.69.0 1.8 1.58 2.54 3 1.25 2.62-2.38 7.38-7.62 14.04-13.4"/><path id="kvg:07460-s7" kvg:type="㇔" d="M57.38 28.87c4.15 3.63 6.8 9 8.39 14.28"/></g><g id="kvg:07460-g5" kvg:element="卩" kvg:original="刀" kvg:position="right"><path id="kvg:07460-s8" kvg:type="㇆" d="M67.12 20.24c1.82.78 4.85.74 6.76.41 5.78-1.01 13.48-2.36 17.62-2.96 3.15-.46 5.01.54 4.75 4.03-.33 4.53-3.71 19.19-6.83 26.3-1.99 4.54-4.98 5.65-7.98 1.21"/><g id="kvg:07460-g6" kvg:element="丿"><path id="kvg:07460-s9" kvg:type="㇒" d="M79.69 23.5c.04.67.14 1.75-.09 2.67C77.04 36.27 73 44.5 63.83 53.63"/></g></g></g><g id="kvg:07460-g7" kvg:element="田" kvg:position="bottom"><path id="kvg:07460-s10" kvg:type="㇑" d="M48.11 63.47c1.02 1.02 1.25 2.35 1.42 3.52.97 6.7 1.81 15.52 2.69 24.49.22 2.25.45 4.52.68 6.76"/><path id="kvg:07460-s11" kvg:type="㇕a" d="M50.12 64.9c10.84-1.42 27.5-3.74 35.87-4.53 4.1-.38 6.21.67 5.67 5.01-.96 7.6-1.81 15.1-3.13 24.12-.26 1.81-.55 3.68-.85 5.65"/><path id="kvg:07460-s12" kvg:type="㇑a" d="M69.39 64.54c.56.56 1.03 1.7 1.02 3.18-.02 7.6-.03 22.28-.03 24.77"/><path id="kvg:07460-s13" kvg:type="㇐a" d="M52.19 79.44c8.44-1.07 27.94-3.19 37.43-3.77"/><path id="kvg:07460-s14" kvg:type="㇐a" d="M53.69 94.95c8.78-.79 23.16-2.58 33.32-2.74"/></g></g></g></g><g id="kvg:StrokeNumbers_07460" style="font-size:8;fill:#808080"><text transform="matrix(1 0 0 1 5.25 23.25)">1</text><text transform="matrix(1 0 0 1 19.25 33.25)">2</text><text transform="matrix(1 0 0 1 5.25 50.25)">3</text><text transform="matrix(1 0 0 1 6.25 87.25)">4</text><text transform="matrix(1 0 0 1 51.25 11.25)">5</text><text transform="matrix(1 0 0 1 37.25 33.50)">6</text><text transform="matrix(1 0 0 1 58.25 27.25)">7</text><text transform="matrix(1 0 0 1 67.25 18.25)">8</text><text transform="matrix(1 0 0 1 71.25 31.25)">9</text><text transform="matrix(1 0 0 1 40.25 77.25)">10</text><text transform="matrix(1 0 0 1 51.25 61.25)">11</text><text transform="matrix(1 0 0 1 72.25 70.05)">12</text><text transform="matrix(1 0 0 1 54.50 76.25)">13</text><text transform="matrix(1 0 0 1 55.25 91.25)">14</text></g></svg>