<!DOCTYPE svg PUBLIC "-//W3C//DTD SVG 1.0//EN" "http://www.w3.org/TR/2001/REC-SVG-20010904/DTD/svg10.dtd" [
<!ATTLIST g
xmlns:kvg CDATA #FIXED "http://kanjivg.tagaini.net"
kvg:element CDATA #IMPLIED
kvg:variant CDATA #IMPLIED
kvg:partial CDATA #IMPLIED
kvg:original CDATA #IMPLIED
kvg:part CDATA #IMPLIED
kvg:number CDATA #IMPLIED
kvg:tradForm CDATA #IMPLIED
kvg:radicalForm CDATA #IMPLIED
kvg:position CDATA #IMPLIED
kvg:radical CDATA #IMPLIED
kvg:phon CDATA #IMPLIED >
<!ATTLIST path
xmlns:kvg CDATA #FIXED "http://kanjivg.tagaini.net"
kvg:type CDATA #IMPLIED >
]><svg xmlns="http://www.w3.org/2000/svg" width="109" height="109" viewBox="0 0 109 109"><g id="kvg:StrokePaths_07463" style="fill:none;stroke:#000000;stroke-width:3;stroke-linecap:round;stroke-linejoin:round;"><g id="kvg:07463" kvg:element="瑣"><g id="kvg:07463-g1" kvg:element="王" kvg:original="玉" kvg:partial="true" kvg:position="left" kvg:radical="general"><path id="kvg:07463-s1" kvg:type="㇐" d="M14.1 24.25c.67.37 4.31.45 4.99.34 3.16-.5 10.48-1.09 18.06-1.64 1.03-.07 2.95-.26 3.8.04"/><path id="kvg:07463-s2" kvg:type="㇑a" d="M26.55 26.52c.93.88 1.58 2.78 1.58 3.48.0 5.95-.13 46-.13 52.07"/><path id="kvg:07463-s3" kvg:type="㇐" d="M14.52 52.37c.51.35 4.12.4 4.64.32 3.01-.46 13.24-1.84 17.4-2.33.64-.08 2.98-.14 3.93.17"/><path id="kvg:07463-s4" kvg:type="㇐" d="M14.75 86.75c1.25 1 3.36.93 4.24.5 5.61-2.75 12.76-7.5 21.67-14"/></g><g id="kvg:07463-g2" kvg:position="right"><g id="kvg:07463-g3" kvg:element="小" kvg:position="top"><path id="kvg:07463-s5" kvg:type="㇚" d="M66.76 11.87c.49.63 1.67 2.04 1.67 4.52.0 12.61-.34 16.8-.34 20.86"/><path id="kvg:07463-s6" kvg:type="㇒" d="M57.05 20.37c.04.37.08.96-.07 1.49-.89 3.15-6 10.07-12.99 14.31"/><path id="kvg:07463-s7" kvg:type="㇔" d="M78.79 20.2c5.11 2.42 13.2 9.94 14.47 13.7"/></g><g id="kvg:07463-g4" kvg:element="貝" kvg:position="bottom"><g id="kvg:07463-g5" kvg:element="目" kvg:position="top"><path id="kvg:07463-s8" kvg:type="㇑" d="M51.69 37.31c.5.98 1.24 1.71 1.24 3.02s.23 34.95-.37 40.43"/><path id="kvg:07463-s9" kvg:type="㇕a" d="M53.78 38.45c2.86-.16 25.13-2.26 27.73-2.45 2.17-.16 3.33.9 3.33 2.13.0 2.99-.64 40.65-.64 41.63"/><path id="kvg:07463-s10" kvg:type="㇐a" d="M52.99 50.27c5.34-.38 26.56-1.66 31.14-1.66"/><path id="kvg:07463-s11" kvg:type="㇐a" d="M53.72 63.17c8.06-.72 21.89-1.18 30.44-1.33"/><path id="kvg:07463-s12" kvg:type="㇐a" d="M53.35 77.2c8.06-.54 23.46-1.46 30.81-1.46"/></g><g id="kvg:07463-g6" kvg:element="八" kvg:position="bottom"><path id="kvg:07463-s13" kvg:type="㇒" d="M59.19 83.14c.5 1.18-.38 2.33-1.37 3.19C54.83 88.92 46.98 94.44 41 97.5"/><path id="kvg:07463-s14" kvg:type="㇔" d="M76.27 82.78c6 3.74 13.09 10.52 14.73 13.79"/></g></g></g></g></g><g id="kvg:StrokeNumbers_07463" style="font-size:8;fill:#808080"><text transform="matrix(1 0 0 1 7.50 24.50)">1</text><text transform="matrix(1 0 0 1 19.50 34.50)">2</text><text transform="matrix(1 0 0 1 7.50 52.50)">3</text><text transform="matrix(1 0 0 1 7.50 87.50)">4</text><text transform="matrix(1 0 0 1 56.50 10.50)">5</text><text transform="matrix(1 0 0 1 48.50 21.50)">6</text><text transform="matrix(1 0 0 1 75.50 16.68)">7</text><text transform="matrix(1 0 0 1 45.50 44.50)">8</text><text transform="matrix(1 0 0 1 56.50 34.50)">9</text><text transform="matrix(1 0 0 1 57.24 47.50)">10</text><text transform="matrix(1 0 0 1 57.50 59.50)">11</text><text transform="matrix(1 0 0 1 57.31 73.50)">12</text><text transform="matrix(1 0 0 1 44.50 87.23)">13</text><text transform="matrix(1 0 0 1 67.75 88.50)">14</text></g></svg>