<svg xmlns="http://www.w3.org/2000/svg" width="109" height="109" viewBox="0 0 109 109"><g id="kvg:StrokePaths_074a2" style="fill:none;stroke:#000000;stroke-width:3;stroke-linecap:round;stroke-linejoin:round;"><g id="kvg:074a2" kvg:element="璢"><g id="kvg:074a2-g1" kvg:element="王" kvg:original="玉" kvg:partial="true" kvg:position="left" kvg:radical="general"><path id="kvg:074a2-s1" kvg:type="㇐" d="M12.25 21.76c.58.38 3.7.46 4.28.35 2.71-.51 13.71-1.12 20.21-1.68.89-.08 2.53-.27 3.26.04"/><path id="kvg:074a2-s2" kvg:type="㇑a" d="M24.57 24.52c.87.88 1.48 2.78 1.48 3.48.0 5.95.02 46.62-.15 50.57"/><path id="kvg:074a2-s3" kvg:type="㇐" d="M12.75 49.18c.49.27 3.95.31 4.45.25 2.88-.36 13.53-2.43 17.52-2.82.61-.06 2.85-.11 3.77.13"/><path id="kvg:074a2-s4" kvg:type="㇐" d="M11.75 86.07c.59.33 2.85.76 3.72.15C21.04 82.28 28.5 77.05 37 70.25"/></g><g id="kvg:074a2-g2" kvg:element="畱" kvg:position="right"><g id="kvg:074a2-g3" kvg:element="丣" kvg:position="top"><path id="kvg:074a2-s5" kvg:type="㇐" d="M46.8 19.57c1.1.31 3.13.35 4.23.31 11.03-.43 27.66-3.54 40.47-3.53 1.84.0 2.94.15 3.86.3"/><path id="kvg:074a2-s6" kvg:type="㇑" d="M61.53 19.56c1 .83 1.28 2.66 1.28 4.12.0 3.32-.02 36.33-.02 40.85"/><path id="kvg:074a2-s7" kvg:type="㇐" d="M47.94 36.27c2.36-.19 12.18-1.61 14.11-1.8"/><path id="kvg:074a2-s8" kvg:type="㇄" d="M45.98 35.3c.92.81 1.12 1.65 1.13 2.79.03 2.41-.13 8.04-.23 11.36-.02.72.17 1.5 1.86 1.26 3.85-.55 9.28-1.22 13.24-1.91"/><path id="kvg:074a2-s9" kvg:type="㇕" d="M77.53 33.25c3.85-.55 12.87-1.92 16.82-2.68 1.64-.32 2.38 1.62 2.01 2.86-.7 2.38-1.93 7.73-2.65 11.89"/><path id="kvg:074a2-s10" kvg:type="㇐" d="M77.23 47.24c2.36-.19 16.54-1.23 18.47-1.42"/><path id="kvg:074a2-s11" kvg:type="㇑" d="M75.24 16.88c.85.7 1.51 1.85 1.51 3.08.0 2.8-.02 39.73-.02 43.54"/></g><g id="kvg:074a2-g4" kvg:element="田" kvg:position="bottom"><path id="kvg:074a2-s12" kvg:type="㇑" d="M46.85 66.83c.34.5 1.44 1.82 1.52 2.46.88 6.46 1.85 16.82 2.73 26.21"/><path id="kvg:074a2-s13" kvg:type="㇕a" d="M48.43 67.6c13.07-1.1 32.81-3.38 41.7-3.88 3.27-.18 4.43 2.79 4.25 4.16-.65 5.01-2.13 17.37-4.01 26.32"/><path id="kvg:074a2-s14" kvg:type="㇑a" d="M68.6 66.46c.73.52 1.51 2.42 1.5 3.16-.04 4.85.17 20.28.17 22.04"/><path id="kvg:074a2-s15" kvg:type="㇐a" d="M50.06 79.68c3.88-.25 39.94-3.73 43.15-3.73"/><path id="kvg:074a2-s16" kvg:type="㇐a" d="M51.22 93.68C62.75 93 78.64 91.54 90.47 91.4"/></g></g></g></g></svg>