<!DOCTYPE svg PUBLIC "-//W3C//DTD SVG 1.0//EN" "http://www.w3.org/TR/2001/REC-SVG-20010904/DTD/svg10.dtd" [
<!ATTLIST g
xmlns:kvg CDATA #FIXED "http://kanjivg.tagaini.net"
kvg:element CDATA #IMPLIED
kvg:variant CDATA #IMPLIED
kvg:partial CDATA #IMPLIED
kvg:original CDATA #IMPLIED
kvg:part CDATA #IMPLIED
kvg:number CDATA #IMPLIED
kvg:tradForm CDATA #IMPLIED
kvg:radicalForm CDATA #IMPLIED
kvg:position CDATA #IMPLIED
kvg:radical CDATA #IMPLIED
kvg:phon CDATA #IMPLIED >
<!ATTLIST path
xmlns:kvg CDATA #FIXED "http://kanjivg.tagaini.net"
kvg:type CDATA #IMPLIED >
]><svg xmlns="http://www.w3.org/2000/svg" width="109" height="109" viewBox="0 0 109 109"><g id="kvg:StrokePaths_074b0" style="fill:none;stroke:#000000;stroke-width:3;stroke-linecap:round;stroke-linejoin:round;"><g id="kvg:074b0" kvg:element="環"><g id="kvg:074b0-g1" kvg:element="王" kvg:original="玉" kvg:partial="true" kvg:position="left" kvg:radical="general"><path id="kvg:074b0-s1" kvg:type="㇐" d="M13.25 26.66c2.38.84 4.83.7 6.76.43 3.83-.52 10.16-1.73 15.06-2.14.86-.07 2.46-.25 3.18.04"/><path id="kvg:074b0-s2" kvg:type="㇑a" d="M26.07 29.34c.92.92 1.23 2.29 1.23 3.35.0 5.72-.05 34.41-.05 40.31"/><path id="kvg:074b0-s3" kvg:type="㇐" d="M13 51.17c1.88.71 3.46.51 5.01.36C22 51.12 29.62 49.5 35 48.49c.68-.13 2.22-.41 3.25-.07"/><path id="kvg:074b0-s4" kvg:type="㇀/㇐" d="M12.25 80.81c1.25.81 2.12.94 3.5.19 5.17-2.81 12-7.24 20-11.81"/></g><g id="kvg:074b0-g2" kvg:element="睘" kvg:position="right" kvg:phon="睘"><g id="kvg:074b0-g3" kvg:element="罒" kvg:variant="true" kvg:original="网"><path id="kvg:074b0-s5" kvg:type="㇑" d="M42.25 17.73c.7.7 1.27 1.61 1.46 2.35.57 2.27 1.32 5.86 1.98 9.14.3 1.48.54 2.94.69 4.29"/><path id="kvg:074b0-s6" kvg:type="㇕a" d="M43.94 18.64c6.17-1.03 32.89-4.12 39.85-4.97 2.36-.29 3.93.34 3.43 3.07-.43 2.35-1.19 5.36-2.07 8.61-.38 1.39-.78 2.79-1.19 4.1"/><path id="kvg:074b0-s7" kvg:type="㇑a" d="M56.32 17.81c.5.5.9 1.23 1.03 2.46.38 3.47.75 6.87.87 8.43"/><path id="kvg:074b0-s8" kvg:type="㇑a" d="M70.7 16.39c.58.58.65 1.36.56 2.42-.3 3.65-.76 6.57-1.06 8.98"/><path id="kvg:074b0-s9" kvg:type="㇐a" d="M47.11 31.47c9.26-1.34 27.01-3.59 36.21-4.16"/></g><path id="kvg:074b0-s10" kvg:type="㇐" d="M42 40.89c2.38.61 5.02.22 7.12-.05 8.47-1.09 25.94-3.49 33.77-3.92 1.99-.11 4.16-.13 6.12.34"/><g id="kvg:074b0-g4" kvg:element="口"><path id="kvg:074b0-s11" kvg:type="㇑" d="M47.5 48.84c.77.77 1.25 1.44 1.4 2.36.81 2.29 1.42 5.64 2.12 9.05.29 1.39.54 2.75.76 3.97"/><path id="kvg:074b0-s12" kvg:type="㇕b" d="M49.52 50.27c8.99-1.24 22.38-3.65 28.48-4.31 3.13-.34 4.63 1.41 4.06 3.33-.86 2.87-1.56 5.16-2.72 7.95"/><path id="kvg:074b0-s13" kvg:type="㇐b" d="M52.65 61.67c5.7-.77 15.76-2.11 24.11-3.16 1.68-.21 3.29-.41 4.75-.59"/></g><g id="kvg:074b0-g5" kvg:element="𧘇"><path id="kvg:074b0-s14" kvg:type="㇒" d="M64.92 62.64c.08.56-.12 1.55-.65 2.25-4.03 5.35-12.4 14.73-25.92 21.07"/><path id="kvg:074b0-s15" kvg:type="㇑" d="M62.79 70.29c.84.84 1.06 2.01 1.05 3.47-.02 4.96-.06 13.04-.08 19.5-.01 2.09-.01 3.98-.01 5.5"/><path id="kvg:074b0-s16" kvg:type="㇒" d="M82.27 65.75c.09.71-.26 1.43-.73 1.91-2.01 2.07-4.01 3.56-8.79 6.84"/><path id="kvg:074b0-s17" kvg:type="㇏" d="M64.92 72.68c1.17.45 14.44 9.65 22.05 14.19 2.09 1.25 4.03 2.26 6.53 3.38"/></g></g></g></g><g id="kvg:StrokeNumbers_074b0" style="font-size:8;fill:#808080"><text transform="matrix(1 0 0 1 6.50 28.63)">1</text><text transform="matrix(1 0 0 1 19.50 37.50)">2</text><text transform="matrix(1 0 0 1 5.50 53.50)">3</text><text transform="matrix(1 0 0 1 4.50 84.50)">4</text><text transform="matrix(1 0 0 1 34.50 21.50)">5</text><text transform="matrix(1 0 0 1 44.50 15.50)">6</text><text transform="matrix(1 0 0 1 60.50 24.50)">7</text><text transform="matrix(1 0 0 1 74.50 22.48)">8</text><text transform="matrix(1 0 0 1 48.75 28.40)">9</text><text transform="matrix(1 0 0 1 35.50 38.83)">10</text><text transform="matrix(1 0 0 1 38.25 56.75)">11</text><text transform="matrix(1 0 0 1 51.50 47.50)">12</text><text transform="matrix(1 0 0 1 54.75 58.55)">13</text><text transform="matrix(1 0 0 1 45.50 73.48)">14</text><text transform="matrix(1 0 0 1 53.50 85.50)">15</text><text transform="matrix(1 0 0 1 71.50 67.50)">16</text><text transform="matrix(1 0 0 1 68.25 88.50)">17</text></g></svg>