<svg xmlns="http://www.w3.org/2000/svg" width="109" height="109" viewBox="0 0 109 109"><g id="kvg:StrokePaths_074cf"><g id="kvg:074cf" kvg:element="瓏"><g id="kvg:074cf-g1" kvg:element="王" kvg:original="玉" kvg:partial="true" kvg:position="left" kvg:radical="general"><path id="kvg:074cf-s1" kvg:type="㇐" d="M8.25 23.08c.56.31 3.58.37 4.14.28 2.62-.41 12.26-1.24 18.55-1.69.86-.06 2.45-.22 3.16.04"/><path id="kvg:074cf-s2" kvg:type="㇑a" d="M20.7 25.02c.93.88 1.58 2.78 1.58 3.48.0 5.95.05 44.62-.13 48.57"/><path id="kvg:074cf-s3" kvg:type="㇐" d="M10.42 50.26c.45.31 3.6.35 4.06.28 2.63-.4 11.58-1.61 15.23-2.04.56-.07 2.6-.12 3.44.14"/><path id="kvg:074cf-s4" kvg:type="㇐" d="M9.4 83.56c1.18 1.16 3.17.67 4 .16 5.3-3.2 12.83-7.94 20.91-13.47"/></g><g id="kvg:074cf-g2" kvg:element="龍" kvg:position="right"><g id="kvg:074cf-g3" kvg:position="left"><g id="kvg:074cf-g4" kvg:element="立" kvg:position="top"><g id="kvg:074cf-g5" kvg:element="亠" kvg:position="top"><path id="kvg:074cf-s5" kvg:type="㇑a" d="M49.27 12.75c.48.73 1.2 2.39 1.2 4.27.0 2.59.0 4.08.0 8.17"/><path id="kvg:074cf-s6" kvg:type="㇐" d="M37.43 26.02c.78.13 3.45.15 4.23.13 4.39-.11 14.38-1.61 21.02-1.71 1.3-.02 2.07.06 2.72.13"/></g><g id="kvg:074cf-g6" kvg:position="bottom"><path id="kvg:074cf-s7" kvg:type="㇔" d="M42.3 29.27c1.57 3.98 2.28 8.05 2.43 10.67"/><path id="kvg:074cf-s8" kvg:type="㇒" d="M58.45 27.68c.32.38.36 1.43.32 1.75-.26 2.17-2.94 8.62-3.58 10.27"/><path id="kvg:074cf-s9" kvg:type="㇐" d="M34.75 42.93c1.04.28 2.25.3 3.29.28 10.25-.21 12.48-1.65 25.59-2.23 1.73-.08 2.77.13 3.64.28"/></g></g><g id="kvg:074cf-g7" kvg:element="月" kvg:position="bottom"><path id="kvg:074cf-s10" kvg:type="㇑" d="M40.81 50.99c.33.63.54 1.26.65 1.88.11.63.15 41.54.11 42.95"/><path id="kvg:074cf-s11" kvg:type="㇕" d="M42.11 52.11c1.5-.16 15.25-1.81 16.36-1.98 2-.31 2.75 2.04 2.5 2.98-.24.91-.38 22.41-.38 35.12.0 11.27-3.21 6.33-5.95 2.91"/><path id="kvg:074cf-s12" kvg:type="㇐" d="M42.11 63.19c5.12-.94 13.49-1.35 17.99-1.82"/><path id="kvg:074cf-s13" kvg:type="㇐" d="M42.48 74.59c4-.47 12.74-1.38 17.36-1.7"/></g></g><g id="kvg:074cf-g8" kvg:position="right"><path id="kvg:074cf-s14" kvg:type="㇐" d="M73.9 22.35c4.21-.3 12.84-1.41 17.6-1.95 1.08-.12 1.76.08 2.32.17"/><path id="kvg:074cf-s15" kvg:type="㇞" d="M72.24 13.99c1.07.92 1.38 2.65 1.39 3.93.03 2.71-.16 10.63-.27 14.36-.02.81.19 1.65 2.16 1.42C81.5 33 86 32.25 90.8 31.69c2.73-.32 2.75.7 2.33 2.09-.81 2.68-1.32 7.28-2.16 11.97"/><path id="kvg:074cf-s16" kvg:type="㇐" d="M70.86 47.94c.77-.05 2.17.37 3.18.28 5.34-.48 13-1.89 18.71-2.14"/><path id="kvg:074cf-s17" kvg:type="㇟" d="M73.13 48.37c.56 1.21.51 2.63.54 4.5.15 8.32.1 25.04.1 30.69.0 13.21 6.73 11.71 13.36 11.71 10.58.0 11.26-2.82 11.26-9.27"/><path id="kvg:074cf-s18" kvg:type="㇐" d="M73.78 58.26c3.67-.34 11.95-1.31 16.1-1.95.94-.14 1.54.09 2.01.2"/><path id="kvg:074cf-s19" kvg:type="㇐" d="M73.86 68.32c3.31-.3 11.84-1.34 15.59-1.89.85-.12 1.39.08 1.82.17"/><path id="kvg:074cf-s20" kvg:type="㇐" d="M74.51 79.18c3.31-.33 12.88-1.75 16.63-2.36.85-.14 1.39.09 1.82.19"/></g></g></g></g></svg>