<svg xmlns="http://www.w3.org/2000/svg" width="109" height="109" viewBox="0 0 109 109"><g id="kvg:StrokePaths_074dc" style="fill:none;stroke:#000000;stroke-width:3;stroke-linecap:round;stroke-linejoin:round;"><g id="kvg:074dc" kvg:element="瓜" kvg:radical="general"><g id="kvg:074dc-g1" kvg:element="丿"><path id="kvg:074dc-s1" kvg:type="㇒" d="M71.01 15.5c0 1.12-1.04 2.25-2.19 2.97C61.12 23.25 52.88 27.12 36 31.54"/></g><path id="kvg:074dc-s2" kvg:type="㇒" d="M31.88 32.25c.62.75 1.07 2.56.98 4.7C32 57.75 30 82.75 11.56 94.72"/><g id="kvg:074dc-g2" kvg:element="厶" kvg:variant="true"><path id="kvg:074dc-s3" kvg:type="㇑" d="M52.12 30.75c1.19 1.19 1.43 3 1.43 4.28.0 1.1-.27 38.72-.27 49.22"/><path id="kvg:074dc-s4" kvg:type="㇀/㇐" d="M37 87.63c1.68 1.23 3.37 1.51 5.06.83 8.92-2.52 19.86-5.56 27.19-7.72"/><path id="kvg:074dc-s5" kvg:type="㇔" d="M65.27 70.33c3.37 3.33 8.7 13.7 9.54 18.88"/></g><path id="kvg:074dc-s6" kvg:type="㇏" d="M66.88 28.12c2.63 1.31 6.34 31.54 20.72 53.51 2.51 4.06 5.73 7.51 9.66 10.36"/></g></g></svg>