<svg xmlns="http://www.w3.org/2000/svg" width="109" height="109" viewBox="0 0 109 109"><g id="kvg:StrokePaths_074e3"><g id="kvg:074e3" kvg:element="瓣"><g id="kvg:074e3-g1" kvg:element="辛" kvg:variant="true" kvg:position="left"><g id="kvg:074e3-g2" kvg:element="立" kvg:position="top"><g id="kvg:074e3-g3" kvg:element="亠" kvg:position="top"><path id="kvg:074e3-s1" kvg:type="㇑a" d="M23.62 13.75c1.01 1.31 1.51 1.31 1.51 4.35.0 3.05.0 3.65.0 7.65"/><path id="kvg:074e3-s2" kvg:type="㇐" d="M9.35 27.2c.83.33 1.8.38 2.62.33 4.67-.28 17.74-2.53 24.81-2.77 1.38-.05 2.21.16 2.9.32"/></g><g id="kvg:074e3-g4" kvg:position="bottom"><path id="kvg:074e3-s3" kvg:type="㇔" d="M15.2 32.5c2.88 4.57 4.19 9.24 4.45 12.25"/><path id="kvg:074e3-s4" kvg:type="㇒" d="M33.26 28.25c.54.54.61 1.82.54 2.27-.43 3.08-4.09 11.87-5.17 14.23"/><path id="kvg:074e3-s5" kvg:type="㇀" d="M9 48.8c1.04.39 2.26.53 3.29.39C17.5 48.5 28.75 47 34.87 46.7c1.73-.09 2.77.19 3.63.38"/></g></g><g id="kvg:074e3-g5" kvg:element="十" kvg:position="bottom"><path id="kvg:074e3-s6" kvg:type="㇐" d="M10.18 69.73c.66.9 1.88 1.13 2.54.9C21.13 67.69 31.5 63 37.9 60.27"/><path id="kvg:074e3-s7" kvg:type="㇑" d="M23.88 51.63c.65.58 1.45 2.12 1.47 3.28.18 9.01.53 26.42-13.1 41.34"/></g></g><g id="kvg:074e3-g6" kvg:element="瓜" kvg:radical="tradit"><g id="kvg:074e3-g7" kvg:element="丿"><path id="kvg:074e3-s8" kvg:type="㇒" d="M64.35 16c.05.32-.07 1.33-.35 1.68-3.51 4.45-8.44 8.11-17.59 11.7"/></g><path id="kvg:074e3-s9" kvg:type="㇒" d="M43.33 30.28c.4.71 1.02 1.96 1.13 3.99 1.09 21.13-.72 45.87-13.9 55.94"/><g id="kvg:074e3-g8" kvg:element="厶" kvg:variant="true" kvg:original="厶" kvg:radical="nelson"><path id="kvg:074e3-s10" kvg:type="㇑" d="M52.39 29.76c.73.62 1.31 2.75 1.31 4.01.0 6.44-.14 40.09-.14 50.55"/><path id="kvg:074e3-s11" kvg:type="㇐" d="M42.43 87.93c.53.54 2.56 1.08 3.67.5 5.86-3.1 9.29-5.39 15.56-8.83"/><path id="kvg:074e3-s12" kvg:type="㇔" d="M59.34 71.43c1.63 3.15 4.22 12.96 4.62 17.87"/></g><path id="kvg:074e3-s13" kvg:type="㇏" d="M59.06 28.17c.18.0.76.6.96 1.8 2.2 13.17 5.88 41.13 13.51 57.54 1.16 2.49 2.39 4.04 3.22 4.85"/></g><g id="kvg:074e3-g9" kvg:element="辛" kvg:position="right"><g id="kvg:074e3-g10" kvg:element="立" kvg:position="top"><g id="kvg:074e3-g11" kvg:element="亠" kvg:position="top"><path id="kvg:074e3-s14" kvg:type="㇑a" d="M81.56 12.75c1.41 1.31 2.12 1.31 2.12 4.35.0 3.05.0 4.15.0 8.15"/><path id="kvg:074e3-s15" kvg:type="㇐" d="M68.83 26.2c.69.33 1.5.38 2.19.33 3.91-.28 19.27-2.03 25.18-2.27 1.15-.05 1.85.16 2.42.32"/></g><g id="kvg:074e3-g12" kvg:position="bottom"><path id="kvg:074e3-s16" kvg:type="㇔" d="M74.65 31.5c2.71 4.66 3.94 9.43 4.18 12.5"/><path id="kvg:074e3-s17" kvg:type="㇒" d="M92.66 28.25c.53.5.59 1.68.53 2.1-.43 2.85-4.01 10.97-5.07 13.15"/><path id="kvg:074e3-s18" kvg:type="㇐" d="M68.75 47.8c.87.39 1.88.47 2.75.39 7.25-.69 18.75-2.69 26.72-2.5 1.45.04 2.31.19 3.04.38"/></g></g><g id="kvg:074e3-g13" kvg:element="十" kvg:position="bottom"><path id="kvg:074e3-s19" kvg:type="㇐" d="M71.38 63.95c.89.47 2.53.53 3.43.47 6.13-.42 14.99-1.92 21.48-2.4 1.49-.11 2.39.22 3.13.46"/><path id="kvg:074e3-s20" kvg:type="㇑" d="M83.14 48.63c.66.52 1.68 2.62 1.68 4.96.0 6.05-.19 42.74-.22 44.29"/></g></g></g></g></svg>