<svg xmlns="http://www.w3.org/2000/svg" width="109" height="109" viewBox="0 0 109 109"><g id="kvg:StrokePaths_074f0"><g id="kvg:074f0" kvg:element="瓰"><g id="kvg:074f0-g1" kvg:element="瓦" kvg:position="nyo" kvg:radical="general"><path id="kvg:074f0-s1" kvg:type="㇐" d="M11.55 18.75c1.12.57 3.17.7 4.28.57 8.91-1.05 25.32-2.64 32.29-2.89 1.86-.07 2.98.27 3.91.56"/><path id="kvg:074f0-s2" kvg:type="㇑" d="M25.42 20.75c.76.5 1.54 2.76 1.36 3.75-1.45 7.75-10.96125 56.475-12.96125 64.705"/><path id="kvg:074f0-s3" kvg:type="㇀" d="M10.866667 89.88625c.772187.3775 1.658992.07062 2.860624-.533125 5.752813-2.890435 13.997292-7.124792 19.647292-9.944792"/><path id="kvg:074f0-s4" kvg:type="㇈" d="M24.24 40.04c.87.21 1.79.69 2.64.5 2.39-.54 11.41-2.65 13.77-3.29 1.85-.5 2.85 1 2.66 2.53-.57 4.49-1.5 18.73-2.24 31.51-1.07 18.46.18 22.53 30.66 22.53 23.52.0 25.25-3.07 25.25-12.54"/><g id="kvg:074f0-g2" kvg:element="丶"><path id="kvg:074f0-s5" kvg:type="㇔" d="M24.85 53.83C28 56.19 33 63.54 33.79 67.21"/></g></g><g id="kvg:074f0-g3" kvg:element="分" kvg:position="nyoc"><g id="kvg:074f0-g4" kvg:element="八" kvg:position="top"><path id="kvg:074f0-s6" kvg:type="㇒" d="M65 16.74c.28.8-.06 1.69-.39 2.68-2.71 8.15-8.39 17.12-16.05 23.88"/><path id="kvg:074f0-s7" kvg:type="㇏" d="M74.34 14.25C77.5 15 88.59 34.53 93.96 38.94c2.08 1.71 2.82 2.62 4.83 3.17"/></g><g id="kvg:074f0-g5" kvg:element="刀" kvg:position="bottom"><path id="kvg:074f0-s8" kvg:type="㇆" d="M56.57 45.62c1.93.38 3.8.4 4.69.24 7.25-1.26 16.66-3.88 20.68-4.34 2.62-.3 3.77.91 3.63 3.02C85 53.25 82 70.5 77.82 78.78c-2.93 5.8-6.36.74-7.53-.89"/><path id="kvg:074f0-s9" kvg:type="㇒" d="M68.71 47.66c.06.71.25 1.9-.12 2.86-3.84 10.23-8.09 18.73-19.04 29.13"/></g></g></g></g></svg>