<!DOCTYPE svg PUBLIC "-//W3C//DTD SVG 1.0//EN" "http://www.w3.org/TR/2001/REC-SVG-20010904/DTD/svg10.dtd" [
<!ATTLIST g
xmlns:kvg CDATA #FIXED "http://kanjivg.tagaini.net"
kvg:element CDATA #IMPLIED
kvg:variant CDATA #IMPLIED
kvg:partial CDATA #IMPLIED
kvg:original CDATA #IMPLIED
kvg:part CDATA #IMPLIED
kvg:number CDATA #IMPLIED
kvg:tradForm CDATA #IMPLIED
kvg:radicalForm CDATA #IMPLIED
kvg:position CDATA #IMPLIED
kvg:radical CDATA #IMPLIED
kvg:phon CDATA #IMPLIED >
<!ATTLIST path
xmlns:kvg CDATA #FIXED "http://kanjivg.tagaini.net"
kvg:type CDATA #IMPLIED >
]><svg xmlns="http://www.w3.org/2000/svg" width="109" height="109" viewBox="0 0 109 109"><g id="kvg:StrokePaths_074f1" style="fill:none;stroke:#000000;stroke-width:3;stroke-linecap:round;stroke-linejoin:round;"><g id="kvg:074f1" kvg:element="瓱"><g id="kvg:074f1-g1" kvg:element="瓦" kvg:position="nyo" kvg:radical="general"><path id="kvg:074f1-s1" kvg:type="㇐" d="M11.55 18.75c1.12.57 3.17.7 4.28.57 8.91-1.05 25.32-2.64 32.29-2.89 1.86-.07 2.98.27 3.91.56"/><path id="kvg:074f1-s2" kvg:type="㇑" d="M25.42 20.75c.76.5 1.54 2.76 1.36 3.75-1.45 7.75-10.96125 56.475-12.96125 64.705"/><path id="kvg:074f1-s3" kvg:type="㇀" d="M10.866667 89.88625c.772187.3775 1.658992.07062 2.860624-.533125 5.752813-2.890435 13.997292-7.124792 19.647292-9.944792"/><path id="kvg:074f1-s4" kvg:type="㇈" d="M24.24 40.04c.87.21 1.79.69 2.64.5 2.39-.54 11.41-2.65 13.77-3.29 1.85-.5 2.85 1 2.66 2.53-.57 4.49-1.5 18.73-2.24 31.51-1.07 18.46.18 22.53 30.66 22.53 23.52.0 25.25-3.07 25.25-12.54"/><g id="kvg:074f1-g2" kvg:element="丶"><path id="kvg:074f1-s5" kvg:type="㇔" d="M24.85 53.83C28 56.19 33 63.54 33.79 67.21"/></g></g><g id="kvg:074f1-g3" kvg:element="毛" kvg:position="nyoc"><path id="kvg:074f1-s6" kvg:type="㇒" d="M81.11 14c.08.36.36 1.04-.17 1.46-4.9 3.9-16.09 9.92-28.96 13.94"/><path id="kvg:074f1-s7" kvg:type="㇐" d="M51.31 41.73c1.06.26 3.02.41 4.06.26C62 41 78 38 84.87 37.71c1.75-.08 2.83.12 3.71.25"/><path id="kvg:074f1-s8" kvg:type="㇐" d="M47.63 57.67c1.08.18 4.22.22 5.3.18 13.55-.6 25.8-3.7 35.58-4.11 1.79-.07 4.03.08 4.94.17"/><path id="kvg:074f1-s9" kvg:type="㇟" d="M66.87 27.13c.44.97.79 2.11.82 3.6.12 6.67-.43 33.74-.43 37.83.0 10.79 2.61 11.22 11.37 11.22 11 0 10.63-2.06 10.63-9.18"/></g></g></g><g id="kvg:StrokeNumbers_074f1" style="font-size:8;fill:#808080"><text transform="matrix(1 0 0 1 5.50 19.50)">1</text><text transform="matrix(1 0 0 1 18.50 29.50)">2</text><text transform="matrix(1 0 0 1 6.9 86)">3</text><text transform="matrix(1 0 0 1 30.50 36.50)">4</text><text transform="matrix(1 0 0 1 27.50 53.50)">5</text><text transform="matrix(1 0 0 1 71.50 13.50)">6</text><text transform="matrix(1 0 0 1 49.50 38.50)">7</text><text transform="matrix(1 0 0 1 47.50 54.50)">8</text><text transform="matrix(1 0 0 1 60.50 34.50)">9</text></g></svg>