<svg xmlns="http://www.w3.org/2000/svg" width="109" height="109" viewBox="0 0 109 109"><g id="kvg:StrokePaths_074f2"><g id="kvg:074f2" kvg:element="瓲"><g id="kvg:074f2-g1" kvg:element="瓦" kvg:position="nyo" kvg:radical="general"><path id="kvg:074f2-s1" kvg:type="㇐" d="M11.55 18.75c1.12.57 3.17.7 4.28.57 8.91-1.05 25.32-2.64 32.29-2.89 1.86-.07 2.98.27 3.91.56"/><path id="kvg:074f2-s2" kvg:type="㇑" d="M25.42 20.75c.76.5 1.54 2.76 1.36 3.75-1.45 7.75-10.96125 56.475-12.96125 64.705"/><path id="kvg:074f2-s3" kvg:type="㇀" d="M10.866667 89.88625c.772187.3775 1.658992.07062 2.860624-.533125 5.752813-2.890435 13.997292-7.124792 19.647292-9.944792"/><path id="kvg:074f2-s4" kvg:type="㇈" d="M24.24 40.04c.87.21 1.79.69 2.64.5 2.39-.54 11.41-2.65 13.77-3.29 1.85-.5 2.85 1 2.66 2.53-.57 4.49-1.5 18.73-2.24 31.51-1.07 18.46.18 22.53 30.66 22.53 23.52.0 25.25-3.07 25.25-12.54"/><g id="kvg:074f2-g2" kvg:element="丶"><path id="kvg:074f2-s5" kvg:type="㇔" d="M26 53.83c3.15 2.36 8.15 9.71 8.94 13.38"/></g></g><g id="kvg:074f2-g3" kvg:element="屯" kvg:position="nyoc"><g id="kvg:074f2-g4" kvg:element="丿"><path id="kvg:074f2-s6" kvg:type="㇒" d="M85.73 19.71c.09.32-.15 1.42-.68 1.78C78.46 26 69.22 29.64 52.06 33.27"/></g><g id="kvg:074f2-g5" kvg:element="屮" kvg:variant="true"><g id="kvg:074f2-g6" kvg:element="凵"><path id="kvg:074f2-s7" kvg:type="㇗a" d="M53.08 41.39c.46.28 1.19 1.07 1.19 2.84.0 2.06-.74 10.58-.99 14.22-.13 1.88-.49 3.19 1.71 2.65 7.99-1.95 19.26-3.35 31.42-4.12"/><path id="kvg:074f2-s8" kvg:type="㇑" d="M86.55 37.32c.4.39 1.25 1.66 1.19 2.51-.27 3.94-.49 12.91-1.43 20.17"/></g><g id="kvg:074f2-g7" kvg:element="丿" kvg:variant="true"><path id="kvg:074f2-s9" kvg:type="㇟" d="M67.61 13.62c.74 1.09 1.32 2.38 1.37 4.06.2 7.51-.01 40.16-.01 50.51s1.28 12.58 10.68 12.58C88.5 80.77 90 78.25 90 69.4"/></g></g></g></g></g></svg>