<svg xmlns="http://www.w3.org/2000/svg" width="109" height="109" viewBox="0 0 109 109"><g id="kvg:StrokePaths_074f7" style="fill:none;stroke:#000000;stroke-width:3;stroke-linecap:round;stroke-linejoin:round;"><g id="kvg:074f7" kvg:element="瓷"><g id="kvg:074f7-g1" kvg:element="次" kvg:variant="true" kvg:position="top"><g id="kvg:074f7-g2" kvg:element="冫" kvg:variant="true" kvg:original="二" kvg:position="left"><g id="kvg:074f7-g3" kvg:position="top"><path id="kvg:074f7-s1" kvg:type="㇐" d="M22.25 19.54c.62.07 1.83.4 2.92.33 5.09-.35 10.83-2.12 15.52-2.25.96-.02 1.83.13 2.31.26"/></g><g id="kvg:074f7-g4" kvg:position="bottom"><path id="kvg:074f7-s2" kvg:type="㇀" d="M18.5 42.17c.73.58 2.18.9 4.36.13 6.06-2.14 13.58-5.65 19.64-7.79"/></g></g><g id="kvg:074f7-g5" kvg:element="欠" kvg:position="right"><path id="kvg:074f7-s3" kvg:type="㇒" d="M57.23 10.75c.04.43.07 1.11-.07 1.73-.85 3.65-5.76 11.67-12.48 16.58"/><path id="kvg:074f7-s4" kvg:type="㇖" d="M53.31 20.41c.81.23 2.33.58 3.55.38 1.48-.24 27.4-2.43 28.81-2.44 4.86-.04-.01 6.1-3.01 9.07"/><path id="kvg:074f7-s5" kvg:type="㇒" d="M63.51 23.12c.06.65.04 1.66-.11 2.61-.95 5.9-9.87 20-22.14 26.77"/><path id="kvg:074f7-s6" kvg:type="㇏" d="M62.31 30.25C66.3 33.69 80.26 44 87.42 47.67c1.51.77 2.65 1.23 4.08 1.48"/></g></g><g id="kvg:074f7-g6" kvg:element="瓦" kvg:position="bottom" kvg:radical="general"><path id="kvg:074f7-s7" kvg:type="㇐" d="M19.3 58.61c1.93.61 5.47.7 7.39.61 16.06-.72 45.22-2.45 56.09-2.7 3.21-.07 5.14.29 6.75.6"/><path id="kvg:074f7-s8" kvg:type="㇑" d="m39.7 60.25c.08 1-.22 3.05-.45 3.59-2.47 5.66-11.063542 28.477292-13.333542 33.067292"/><path id="kvg:074f7-s9" kvg:type="㇀" d="m20.6 97.3c1.035944.308484 2.43278.131632 3.283787-.03605 8.153468-1.606505 30.289311-5.964859 38.289311-7.214859"/><path id="kvg:074f7-s10" kvg:type="㇈" d="M41.74 69.54c.87.21 2.28.1 3.14.0C55.5 68.25 63 67 69.65 66.25c1.34-.15 2.69 1.58 2.16 3.03C70 74.25 68 78.75 67.25 84.25c-1.42 10.4 1.75 12.5 12.5 12.5 11.25.0 10.58-2.27 10.75-12"/><g id="kvg:074f7-g7" kvg:element="丶"><path id="kvg:074f7-s11" kvg:type="㇔" d="M43.1 74.33c3.51 1.7 9.06 6.99 9.94 9.63"/></g></g></g></g></svg>