<!DOCTYPE svg PUBLIC "-//W3C//DTD SVG 1.0//EN" "http://www.w3.org/TR/2001/REC-SVG-20010904/DTD/svg10.dtd" [
<!ATTLIST g
xmlns:kvg CDATA #FIXED "http://kanjivg.tagaini.net"
kvg:element CDATA #IMPLIED
kvg:variant CDATA #IMPLIED
kvg:partial CDATA #IMPLIED
kvg:original CDATA #IMPLIED
kvg:part CDATA #IMPLIED
kvg:number CDATA #IMPLIED
kvg:tradForm CDATA #IMPLIED
kvg:radicalForm CDATA #IMPLIED
kvg:position CDATA #IMPLIED
kvg:radical CDATA #IMPLIED
kvg:phon CDATA #IMPLIED >
<!ATTLIST path
xmlns:kvg CDATA #FIXED "http://kanjivg.tagaini.net"
kvg:type CDATA #IMPLIED >
]><svg xmlns="http://www.w3.org/2000/svg" width="109" height="109" viewBox="0 0 109 109"><g id="kvg:StrokePaths_07505" style="fill:none;stroke:#000000;stroke-width:3;stroke-linecap:round;stroke-linejoin:round;"><g id="kvg:07505" kvg:element="甅"><g id="kvg:07505-g1" kvg:element="瓦" kvg:position="nyo" kvg:radical="general"><path id="kvg:07505-s1" kvg:type="㇐" d="M11.55 18.75c1.12.57 3.17.7 4.28.57 8.91-1.05 18.280417-2.072292 25.591042-2.89 1.86-.07 2.98.27 3.91.56"/><path id="kvg:07505-s2" kvg:type="㇑" d="M25.42 20.75c.76.5 1.54 2.76 1.36 3.75-1.45 7.75-10.96125 56.475-12.96125 64.705"/><path id="kvg:07505-s3" kvg:type="㇀" d="M10.866667 89.88625c.772187.3775 1.658992.07062 2.860624-.533125 5.752813-2.890435 13.997292-7.124792 19.647292-9.944792"/><path id="kvg:07505-s4" kvg:type="㇈" d="M24.24 40.04c.87.21 1.79.69 2.64.5 2.39-.54 11.41-2.65 13.77-3.29 1.85-.5 2.85 1 2.66 2.53-.57 4.49-1.5 18.73-2.24 31.51-1.07 18.46.18 22.53 30.66 22.53 23.52.0 25.25-3.07 25.25-12.54"/><g id="kvg:07505-g2" kvg:element="丶"><path id="kvg:07505-s5" kvg:type="㇔" d="M26 53.83c3.15 2.36 8.15 9.71 8.94 13.38"/></g></g><g id="kvg:07505-g3" kvg:element="厘" kvg:position="nyoc"><g id="kvg:07505-g4" kvg:element="厂" kvg:position="tare"><path id="kvg:07505-s6" kvg:type="㇐" d="M52.22 22.69c1.17.55 3.31.58 4.48.55 9.25-.19 22.06-2.49 29.88-2.35 1.94.04 3.11.26 4.09.54"/><path id="kvg:07505-s7" kvg:type="㇒" d="M54.51 23.62c.03 1.32-.05 2.4-.05 4.3.0 16.29-1.46 34.58-9.1 51.29"/></g><g id="kvg:07505-g5" kvg:element="里" kvg:position="tarec"><g id="kvg:07505-g6" kvg:element="日"><path id="kvg:07505-s8" kvg:type="㇑" d="M60.44 33.77c.18.35.19.59.29 1.03.82 3.61 2.34 13.9 2.85 20.64"/><path id="kvg:07505-s9" kvg:type="㇕a" d="M61.28 34.26C69 33.5 78 32.5 83.36 31.81c1.75-.22 3.63 1.71 3.54 2.7-.33 3.64-2.27 12.57-3.06 18.65"/><path id="kvg:07505-s10" kvg:type="㇐a" d="M63.22 43.6c3.65-.36 19.08-1.71 21.92-1.95"/><path id="kvg:07505-s11" kvg:type="㇐a" d="M63.9 53.3c4.57-.39 13.14-1.15 19.95-1.48"/></g><path id="kvg:07505-s12" kvg:type="㇑a" d="M72.39 33.32c.19.72.74 1.69.76 3.13.14 10.04.05 37.34.05 40.17"/><path id="kvg:07505-s13" kvg:type="㇐" d="M59.62 65.89c.52.18 1.48.2 2 .18 5.44-.21 16.91-2.07 23.65-2.11.87.0 1.4.09 1.83.18"/><path id="kvg:07505-s14" kvg:type="㇐" d="M54.59 79.17c.76.29 2.16.33 2.92.29 7.91-.48 23.79-2.18 33.21-2.16 1.26.0 2.03.14 2.66.28"/></g></g></g></g><g id="kvg:StrokeNumbers_07505" style="font-size:8;fill:#808080"><text transform="matrix(1 0 0 1 5.50 19.50)">1</text><text transform="matrix(1 0 0 1 18.50 29.50)">2</text><text transform="matrix(1 0 0 1 6.9 86)">3</text><text transform="matrix(1 0 0 1 30.50 36.50)">4</text><text transform="matrix(1 0 0 1 27.50 53.50)">5</text><text transform="matrix(1 0 0 1 54.50 20.50)">6</text><text transform="matrix(1 0 0 1 46.75 30.50)">7</text><text transform="matrix(1 0 0 1 56.50 42.50)">8</text><text transform="matrix(1 0 0 1 61.75 31.50)">9</text><text transform="matrix(1 0 0 1 65.50 41.50)">10</text><text transform="matrix(1 0 0 1 64.75 50.50)">11</text><text transform="matrix(1 0 0 1 75.50 39.50)">12</text><text transform="matrix(1 0 0 1 57.75 62.30)">13</text><text transform="matrix(1 0 0 1 53.75 75.23)">14</text></g></svg>