<svg xmlns="http://www.w3.org/2000/svg" width="109" height="109" viewBox="0 0 109 109"><g id="kvg:StrokePaths_0750c" style="fill:none;stroke:#000000;stroke-width:3;stroke-linecap:round;stroke-linejoin:round;"><g id="kvg:0750c" kvg:element="甌"><g id="kvg:0750c-g1" kvg:element="區" kvg:position="left"><g id="kvg:0750c-g2" kvg:element="匚" kvg:part="1" kvg:position="kamae"><path id="kvg:0750c-s1" kvg:type="㇐" d="M10.88 21.79c1.07.3 3.04.34 4.12.3 11.18-.5 21.27-2.02 33.32-2.29 1.79-.04 2.86.14 3.76.29"/></g><g id="kvg:0750c-g3" kvg:element="品"><g id="kvg:0750c-g4" kvg:element="口" kvg:position="top"><path id="kvg:0750c-s2" kvg:type="㇑" d="M25.71 31.15c.24.29.49.54.59.91.84 2.92 1.84 10.98 2.41 16.23"/><path id="kvg:0750c-s3" kvg:type="㇕b" d="M26.79 32.58c5.76-1.12 15.44-2.43 18.74-2.88 1.21-.16 1.93.97 1.76 1.93-.71 3.98-1.22 6.17-2.28 11.67"/><path id="kvg:0750c-s4" kvg:type="㇐b" d="M28.68 45.96c3.87-.51 12.55-1.38 17.87-2.16"/></g><g id="kvg:0750c-g5" kvg:position="bottom"><g id="kvg:0750c-g6" kvg:element="口" kvg:position="left"><path id="kvg:0750c-s5" kvg:type="㇑" d="M20.82 57.52c.28.33.57.6.69 1.02.98 3.27 2.01 13.48 2.67 19.35"/><path id="kvg:0750c-s6" kvg:type="㇕b" d="M22.24 59.74c3.59-.87 6.49-2.25 9.79-2.68 1.2-.16 1.93.93 1.76 1.85-.71 3.82-1.21 10.53-2.28 15.82"/><path id="kvg:0750c-s7" kvg:type="㇐b" d="M24.13 75.93c3.87-.49 7.95-1.25 9.43-1.15"/></g><g id="kvg:0750c-g7" kvg:element="口" kvg:position="right"><path id="kvg:0750c-s8" kvg:type="㇑" d="M39.21 55.52c.28.36.57.66.69 1.11.98 3.56 1.76 12.92 2.43 19.32"/><path id="kvg:0750c-s9" kvg:type="㇕b" d="M40.3 57.02c4.45-1.02 7.78-1.54 11.08-2.01 1.2-.17 1.93 1.01 1.76 2.02-.71 4.16-1.55 9.14-2.61 14.89"/><path id="kvg:0750c-s10" kvg:type="㇐b" d="M42.52 74.19c3.87-.53 3.89-.03 9.21-.84"/></g></g></g><g id="kvg:0750c-g8" kvg:element="匚" kvg:part="2" kvg:position="kamae"><path id="kvg:0750c-s11" kvg:type="㇗" d="M15.3 23.11c0 3.19-.33 60.38-.33 63.37.0 2.53 1.7 3.45 2.87 3.19 8.41-1.92 27.76-3.56 29.98-3.56 2.21.0 2.95.3 4.68 1.05"/></g></g><g id="kvg:0750c-g9" kvg:element="瓦" kvg:position="right" kvg:radical="general"><path id="kvg:0750c-s12" kvg:type="㇐" d="M58.3 20.37c1.16.41 3.3.5 4.45.41 9.27-.74 22.45-2.12 29.71-2.3 1.93-.05 3.1.19 4.07.4"/><path id="kvg:0750c-s13" kvg:type="㇑" d="m67.92 24.25c.76.5 1.531648 2.754692 1.36 3.75-3.445793 19.980543-4.673886 39.396905-7.670417 57.713281"/><path id="kvg:0750c-s14" kvg:type="㇀" d="m57.400579 87.573634c.420641.268828 1.216192.266992 2.165254-.355925 5.54-3.23 13.543125-7.578959 19.193125-10.398959"/><path id="kvg:0750c-s15" kvg:type="㇈" d="M71.24 37.04c.87.21 1.79.69 2.64.5 2.39-.54 8.44-2.04 10.77-2.79 1-.32 2.85 1 2.66 2.53-.57 4.49-3.13 23.12-4.24 34.01-1.82 17.95.43 21.2 8.2 20.83 4.74-.23 6.23-2.87 6.71-9.35"/><g id="kvg:0750c-g10" kvg:element="丶"><path id="kvg:0750c-s16" kvg:type="㇔" d="M69.6 55.08c2.89 2.05 7.46 8.44 8.19 11.63"/></g></g></g></g></svg>