<!DOCTYPE svg PUBLIC "-//W3C//DTD SVG 1.0//EN" "http://www.w3.org/TR/2001/REC-SVG-20010904/DTD/svg10.dtd" [
<!ATTLIST g
xmlns:kvg CDATA #FIXED "http://kanjivg.tagaini.net"
kvg:element CDATA #IMPLIED
kvg:variant CDATA #IMPLIED
kvg:partial CDATA #IMPLIED
kvg:original CDATA #IMPLIED
kvg:part CDATA #IMPLIED
kvg:number CDATA #IMPLIED
kvg:tradForm CDATA #IMPLIED
kvg:radicalForm CDATA #IMPLIED
kvg:position CDATA #IMPLIED
kvg:radical CDATA #IMPLIED
kvg:phon CDATA #IMPLIED >
<!ATTLIST path
xmlns:kvg CDATA #FIXED "http://kanjivg.tagaini.net"
kvg:type CDATA #IMPLIED >
]><svg xmlns="http://www.w3.org/2000/svg" width="109" height="109" viewBox="0 0 109 109"><g id="kvg:StrokePaths_0750d" style="fill:none;stroke:#000000;stroke-width:3;stroke-linecap:round;stroke-linejoin:round;"><g id="kvg:0750d" kvg:element="甍"><g id="kvg:0750d-g1" kvg:position="top"><g id="kvg:0750d-g2" kvg:element="艹" kvg:variant="true" kvg:original="艸" kvg:radical="nelson"><path id="kvg:0750d-s1" kvg:type="㇐" d="M20.5 17.27c1.81.53 3.91.63 5.72.53 16.61-.96 37.55-1.96 56.7-2.03 3.01-.01 4.82.25 6.33.51"/><path id="kvg:0750d-s2" kvg:type="㇑a" d="M39.12 8.5c1.25 1.02 1.64 1.33 1.78 1.96 1.24 5.87 1.24 11.41 1.6 13.54"/><path id="kvg:0750d-s3" kvg:type="㇑a" d="M67.49 8.19c.27.77.63 1.34.33 2.28-1.79 5.54-1.61 6.81-3.56 12.02"/></g><g id="kvg:0750d-g3" kvg:element="罒" kvg:variant="true" kvg:original="网"><path id="kvg:0750d-s4" kvg:type="㇑" d="M25.06 28.03c.32.26.65.48.79.81 1.11 2.59 2.45 9.75 3.21 14.41"/><path id="kvg:0750d-s5" kvg:type="㇕a" d="M27.06 29.79c7.08-1.02 52.59-2.71 56.35-3.06 1.37-.12 3.24.88 2.87 2.34-.77 3.04-2.66 8.27-4.71 12.61"/><path id="kvg:0750d-s6" kvg:type="㇑a" d="M44.94 29.84c.56.66 1.21 1.44 1.41 2.65.53 3.2.37 6.54.53 7.96"/><path id="kvg:0750d-s7" kvg:type="㇑a" d="M63.25 29.26c.44.31.67 1.1.76 2.14.28 3.11.33 7.45.01 8.75"/><path id="kvg:0750d-s8" kvg:type="㇐a" d="M30.07 41.84c4.42-.39 45.95-1.78 52.01-2.37"/></g><g id="kvg:0750d-g4" kvg:element="冖"><path id="kvg:0750d-s9" kvg:type="㇔" d="M17.91 49.13c0 3.48-3.03 13.05-4.41 15.37"/><path id="kvg:0750d-s10" kvg:type="㇆" d="M18.24 50.8c9.73-1.2 61.67-3 69.56-3.46 12.34-.71 2.12 7.2-.96 9.77"/></g></g><g id="kvg:0750d-g5" kvg:element="瓦" kvg:position="bottom" kvg:radical="tradit"><path id="kvg:0750d-s11" kvg:type="㇐" d="M28.8 58.45c1.71.54 4.86.67 6.56.54C49.03 58 59.33 57.5 70.03 57.26c2.85-.06 4.57.26 6 .53"/><path id="kvg:0750d-s12" kvg:type="㇑" d="M44.371042 60.160833c.08 1-.22 3.05-.45 3.59C42.019037 69.409688 35.543541 88.750628 33.3125 95.115"/><path id="kvg:0750d-s13" kvg:type="㇀" d="M26.852944 96.708617c1.035944.308484 2.43278.131632 3.283787-.03605C38.290199 95.066062 52.591667 92.410833 61.5 90.479583"/><path id="kvg:0750d-s14" kvg:type="㇈" d="M43.99 71.04c.78.21 2.04.11 2.81.0 5.7-.79 15.7-2.79 20.46-3.29 2.72-.29 3.7 1.35 2.88 4.03-1.89 6.22-4.39 11.93-4.19 17.47.3 8.25 3.07 10 12.69 10 12.36.0 13.2-1.77 13.36-11.5"/><g id="kvg:0750d-g6" kvg:element="丶"><path id="kvg:0750d-s15" kvg:type="㇔" d="M45.35 77.33c3.24 1.44 8.38 5.9 9.19 8.13"/></g></g></g></g><g id="kvg:StrokeNumbers_0750d" style="font-size:8;fill:#808080"><text transform="matrix(1 0 0 1 13.50 16.50)">1</text><text transform="matrix(1 0 0 1 30.50 8.50)">2</text><text transform="matrix(1 0 0 1 58.50 7.50)">3</text><text transform="matrix(1 0 0 1 19.25 34.40)">4</text><text transform="matrix(1 0 0 1 28.25 26.50)">5</text><text transform="matrix(1 0 0 1 49.50 36.25)">6</text><text transform="matrix(1 0 0 1 67.50 35.18)">7</text><text transform="matrix(1 0 0 1 32.50 38.50)">8</text><text transform="matrix(1 0 0 1 8.25 53.03)">9</text><text transform="matrix(1 0 0 1 19.50 47.50)">10</text><text transform="matrix(1 0 0 1 29.50 56.50)">11</text><text transform="matrix(1 0 0 1 31.1 67.1)">12</text><text transform="matrix(1 0 0 1 20.5 94)">13</text><text transform="matrix(1 0 0 1 46.50 67.50)">14</text><text transform="matrix(1 0 0 1 52.50 78.50)">15</text></g></svg>