<svg xmlns="http://www.w3.org/2000/svg" width="109" height="109" viewBox="0 0 109 109"><g id="kvg:StrokePaths_07503" style="fill:none;stroke:#000000;stroke-width:3;stroke-linecap:round;stroke-linejoin:round;"><g id="kvg:07503" kvg:element="甃"><g id="kvg:07503-g1" kvg:element="秋" kvg:position="top"><g id="kvg:07503-g2" kvg:element="禾" kvg:position="left"><g id="kvg:07503-g3" kvg:element="丿" kvg:position="top"><path id="kvg:07503-s1" kvg:type="㇒" d="M46.44 12.34c.06.21.13.54-.12.85-1.53 1.79-10.28 5.71-22.26 8.11"/></g><g id="kvg:07503-g4" kvg:element="木" kvg:position="bottom"><path id="kvg:07503-s2" kvg:type="㇐" d="M19.32 30.42c.61.14 2.25.37 3.87.42 4.49.14 15.18-1.46 26.39-2.17 1.63-.1 2.04-.14 3.06.0"/><path id="kvg:07503-s3" kvg:type="㇑" d="M37.08 20.49c.29.25 1.26 1.98 1.31 2.48.06.5.0 27.5-.06 30.62"/><path id="kvg:07503-s4" kvg:type="㇒" d="M37.56 30.9c-3.89 5.97-10.39 13.33-19.2 18.21"/><path id="kvg:07503-s5" kvg:type="㇏" d="M41.28 34.2c3.84 2.1 7.09 6.29 9.16 8.99"/></g></g><g id="kvg:07503-g5" kvg:element="火" kvg:position="right"><path id="kvg:07503-s6" kvg:type="㇔" d="M55.26 21.06c2.7 2.5 6.64 9.57 7.38 12.06"/><path id="kvg:07503-s7" kvg:type="㇒" d="M86.27 18.26c.26.92.26 2.21-.2 3.09-.46.88-4.95 6.86-7.24 8.91"/><path id="kvg:07503-s8" kvg:type="㇒" d="M71.14 12.39c.2.9.58 1.89.59 2.56.29 17.22-2.57 31.39-17.35 38.13"/><path id="kvg:07503-s9" kvg:type="㇏" d="M72.38 32.01c5 8.63 11.99 15.96 16.26 19.32 1.24.98 1.44.93 2.41 1.19"/></g></g><g id="kvg:07503-g6" kvg:element="瓦" kvg:position="bottom" kvg:radical="general"><path id="kvg:07503-s10" kvg:type="㇐" d="M20.3 60.11c1.93.61 5.47.7 7.39.61 14.81-.72 42.05-1.93 54.09-2.2 3.21-.07 5.14.29 6.75.6"/><path id="kvg:07503-s11" kvg:type="㇑" d="m39.261667 60.615c.08 1-.22 3.05-.45 3.59-2.47 5.66-11.063542 28.477292-13.333542 33.067292"/><path id="kvg:07503-s12" kvg:type="㇀" d="m19.018569 98.865909c1.035944.308484 2.43278.131632 3.283787-.03605C30.455824 97.223354 52.591667 92.865 60.591667 91.615"/><path id="kvg:07503-s13" kvg:type="㇈" d="M41.24 70.04c.87.21 2.28.62 3.14.5C52 69.5 63.5 67.75 68.65 67.25c1.34-.13 3.38 1.67 2.66 3.03C70 72.75 68 78.25 67.25 83.75c-1.42 10.4 2.75 12.5 12.5 12.5C91.5 96.25 93 95 93 86.75"/><g id="kvg:07503-g7" kvg:element="丶"><path id="kvg:07503-s14" kvg:type="㇔" d="M45.1 75.08c3.15 1.39 8.15 5.72 8.94 7.88"/></g></g></g></g></svg>