<!DOCTYPE svg PUBLIC "-//W3C//DTD SVG 1.0//EN" "http://www.w3.org/TR/2001/REC-SVG-20010904/DTD/svg10.dtd" [
<!ATTLIST g
xmlns:kvg CDATA #FIXED "http://kanjivg.tagaini.net"
kvg:element CDATA #IMPLIED
kvg:variant CDATA #IMPLIED
kvg:partial CDATA #IMPLIED
kvg:original CDATA #IMPLIED
kvg:part CDATA #IMPLIED
kvg:number CDATA #IMPLIED
kvg:tradForm CDATA #IMPLIED
kvg:radicalForm CDATA #IMPLIED
kvg:position CDATA #IMPLIED
kvg:radical CDATA #IMPLIED
kvg:phon CDATA #IMPLIED >
<!ATTLIST path
xmlns:kvg CDATA #FIXED "http://kanjivg.tagaini.net"
kvg:type CDATA #IMPLIED >
]><svg xmlns="http://www.w3.org/2000/svg" width="109" height="109" viewBox="0 0 109 109"><g id="kvg:StrokePaths_07511" style="fill:none;stroke:#000000;stroke-width:3;stroke-linecap:round;stroke-linejoin:round;"><g id="kvg:07511" kvg:element="甑"><g id="kvg:07511-g1" kvg:element="曽" kvg:position="left"><g id="kvg:07511-g2" kvg:position="top"><path id="kvg:07511-s1" kvg:type="㇒" d="M19.659375 14.98625c.07.94.06 1.89-.36 2.73-1.61 3.21-5.544375 9.222083-10.14625 13.860833"/><path id="kvg:07511-s2" kvg:type="㇔" d="M31.528125 10.245417c2.4221.281288 3.918494 2.273817 4.847006 2.975391 2.725664 2.059485 10.622333 10.270773 14.741327 15.667109"/><g id="kvg:07511-g3" kvg:element="田"><path id="kvg:07511-s3" kvg:type="㇑" d="M11.47 33.8c.93.93 1.01 1.65 1.29 2.7.99 5.52 1.83 10.85 2.62 16.16.3 2.03.59 4.06.87 6.1"/><path id="kvg:07511-s4" kvg:type="㇕a" d="M13.49 35.68c9.02-1.38 23.25-3.65 31.64-4.59 3.79-.42 5.61.64 5.12 4.65-.43 3.55-1.29 8.66-2.4 14.38-.38 1.95-.78 3.98-1.21 6.04"/><path id="kvg:07511-s5" kvg:type="㇑a" d="M30.14 34.76c.8.8.99 1.62.99 2.75.0 5.31.1 12.37.1 17.49"/><path id="kvg:07511-s6" kvg:type="㇔" d="M19 40.5c1.75 1.16 5.8725 6.927292 6.3125 8.727292"/><path id="kvg:07511-s7" kvg:type="㇒" d="M43.38 38.47c.01.21.02.53-.02.83-.2 1.74-2.7325 6.818958-4.3425 9.158958"/><path id="kvg:07511-s8" kvg:type="㇐a" d="M17.55 57.02c8.58-.9 19.2-1.9 28.17-2.51"/></g></g><g id="kvg:07511-g4" kvg:element="日" kvg:position="bottom"><path id="kvg:07511-s9" kvg:type="㇑" d="M18.11 65.05c.92.92 1.24 2.34 1.34 3.19.73 6.21 1.35 12.8 2.15 20.14.22 1.98.45 4.02.7 6.12"/><path id="kvg:07511-s10" kvg:type="㇕a" d="M19.59 66.77c5.34-.73 15.25-2.51 20.04-3.12 3.03-.38 4.71.64 4.45 3.84-.31 3.88-1.06 11.95-1.99 19.63-.22 1.84-.46 3.66-.7 5.4"/><path id="kvg:07511-s11" kvg:type="㇐a" d="M21.57 78.99c5.56-.61 16.06-1.86 21.38-2.03"/><path id="kvg:07511-s12" kvg:type="㇐a" d="M23.27 92.17c6.34-.42 11.1-1.17 17.27-1.36"/></g></g><g id="kvg:07511-g5" kvg:element="瓦" kvg:position="right" kvg:radical="general"><path id="kvg:07511-s13" kvg:type="㇐" d="M54.8 20.95c2.71.61 5.44.48 8.19.09 7.3-.75 17.03-1.28 23.26-1.63 2.34-.23 4.68-.19 7.02.13"/><path id="kvg:07511-s14" kvg:type="㇑" d="m67.92 24.25c.76.5 1.565481 2.761123 1.36 3.75-4.068957 19.581832-8.025888 40.705157-12.212084 60.211198"/><path id="kvg:07511-s15" kvg:type="㇀" d="m48.842448 91.327396c.9425.349114 2.621198.146563 3.57026-.476354C57.952708 87.621042 71.86 80.32 77.51 77.5"/><path id="kvg:07511-s16" kvg:type="㇈" d="M67.74 43.29c1.63.25 3.22.12 4.76-.4 2.62-.67 6.88-1.86 9.5-2.64 2.65-.78 4.08.24 3.69 3.5-.68 5.52-2.39 20.42-4.12 30.54-3.15 18.52-1.41 20.26 5.66 20.52 4.76.17 8.08-.56 8.25-10.29"/><g id="kvg:07511-g6" kvg:element="丶"><path id="kvg:07511-s17" kvg:type="㇔" d="M68 56.08c3.15 2.36 8.65 9.71 9.44 13.38"/></g></g></g></g><g id="kvg:StrokeNumbers_07511" style="font-size:8;fill:#808080"><text transform="matrix(1 0 0 1 12.2 16.1)">1</text><text transform="matrix(1 0 0 1 35.4 10)">2</text><text transform="matrix(1 0 0 1 4.25 43.48)">3</text><text transform="matrix(1 0 0 1 15.50 32.50)">4</text><text transform="matrix(1 0 0 1 32.8 40.7)">5</text><text transform="matrix(1 0 0 1 21.2 42)">6</text><text transform="matrix(1 0 0 1 38.1 40)">7</text><text transform="matrix(1 0 0 1 17.2 54.50)">8</text><text transform="matrix(1 0 0 1 11.50 72.50)">9</text><text transform="matrix(1 0 0 1 22.50 63.50)">10</text><text transform="matrix(1 0 0 1 24.50 75.50)">11</text><text transform="matrix(1 0 0 1 25.50 88.50)">12</text><text transform="matrix(1 0 0 1 56.25 18.50)">13</text><text transform="matrix(1 0 0 1 56.50 31.50)">14</text><text transform="matrix(1 0 0 1 44 88.4)">15</text><text transform="matrix(1 0 0 1 69.50 38.50)">16</text><text transform="matrix(1 0 0 1 70 56)">17</text></g></svg>