<svg xmlns="http://www.w3.org/2000/svg" width="109" height="109" viewBox="0 0 109 109"><g id="kvg:StrokePaths_07518" style="fill:none;stroke:#000000;stroke-width:3;stroke-linecap:round;stroke-linejoin:round;"><g id="kvg:07518" kvg:element="甘" kvg:radical="general"><g id="kvg:07518-g1" kvg:element="廿" kvg:part="1"><g id="kvg:07518-g2" kvg:element="十"><path id="kvg:07518-s1" kvg:type="㇐" d="M13.75 39.2c3 1.07 7.02.69 10.14.38 13.36-1.31 40.11-3.96 59.61-4.9 3.67-.18 7.99-.18 10.99.61"/><path id="kvg:07518-s2" kvg:type="㇑" d="M35.17 20c1.06 1.06 1.21 2.38 1.21 4 0 5.13.04 42.56.02 64.62.0 2.83-.01 5.41-.01 7.62"/></g><path id="kvg:07518-s3" kvg:type="㇑" d="M70.87 14c1.07 1.06 1.46 2.5 1.46 4 0 .68.02 48.38.03 68.38.0 4.98.0 8.23.0 8.62"/></g><path id="kvg:07518-s4" kvg:type="㇐a" d="M37.5 61.75c4.25-.5 30.75-3 33.75-3"/><g id="kvg:07518-g3" kvg:element="廿" kvg:part="2"><path id="kvg:07518-s5" kvg:type="㇐a" d="M37.25 89.75c6.5-.25 28-1.75 34-2"/></g></g></g></svg>