<svg xmlns="http://www.w3.org/2000/svg" width="109" height="109" viewBox="0 0 109 109"><g id="kvg:StrokePaths_0753c"><g id="kvg:0753c" kvg:element="甼"><g id="kvg:0753c-g1" kvg:element="田" kvg:position="top" kvg:radical="general"><path id="kvg:0753c-s1" kvg:type="㇑" d="M27.44 15.42c.37.54.37.9.57 1.57 1.63 5.48 3.09 19.17 4.05 29.27"/><path id="kvg:0753c-s2" kvg:type="㇕a" d="M29.16 16.25c12.92-.55 35.07-1.48 44.71-2.02 3.54-.2 5.35 1.39 5.16 2.86-.71 5.38-2.54 18.8-3.26 27.23"/><path id="kvg:0753c-s3" kvg:type="㇑a" d="M52.43 17.59c.32.66.96 1.16.95 2.12-.05 6.36.23 21.17.23 23.48"/><path id="kvg:0753c-s4" kvg:type="㇐a" d="M31.47 30.31c4.21-.27 41.18-1.86 44.66-1.86"/><path id="kvg:0753c-s5" kvg:type="㇐a" d="M32.74 44.83c9.3.0 30.3-1.22 43.14-1.37"/></g><g id="kvg:0753c-g2" kvg:element="丁" kvg:position="bottom"><g id="kvg:0753c-g3" kvg:element="一"><path id="kvg:0753c-s6" kvg:type="㇐" d="M13 59.13c1.57.38 4.44.48 6.01.38 16.04-1 51.97-4.01 71.26-4.5 2.61-.07 4.18.18 5.48.37"/></g><g id="kvg:0753c-g4" kvg:element="亅"><path id="kvg:0753c-s7" kvg:type="㇚" d="M53.27 60.33c.08.48 1.17 2.51 1.25 5.56.4 14.66-.25 21.55-.25 26.55.0 11.31-8.46.51-9.96-.75"/></g></g></g></g></svg>