<svg xmlns="http://www.w3.org/2000/svg" width="109" height="109" viewBox="0 0 109 109"><g id="kvg:StrokePaths_07567" style="fill:none;stroke:#000000;stroke-width:3;stroke-linecap:round;stroke-linejoin:round;"><g id="kvg:07567" kvg:element="畧"><g id="kvg:07567-g1" kvg:element="田" kvg:position="top" kvg:radical="general"><path id="kvg:07567-s1" kvg:type="㇑" d="M24.99 14.22c.47.48.48.81.75 1.42 2.14 4.98 4.15 17.54 5.48 26.82"/><path id="kvg:07567-s2" kvg:type="㇕a" d="M27.69 15.83c14.58-1.14 40.03-3.37 50.96-3.54 2.59-.04 4.59 1.46 4.34 4.14-.43 4.61-3.11 15.53-4.94 23.16"/><path id="kvg:07567-s3" kvg:type="㇑a" d="M53.46 14.58c.52 5.89.26 18.77.26 22.7"/><path id="kvg:07567-s4" kvg:type="㇐a" d="M28.92 28.06c4.75-.44 47.48-3.72 51.4-3.9"/><path id="kvg:07567-s5" kvg:type="㇐a" d="M31.97 39.72c13.53-1.47 32.09-2.52 46.59-3.31"/></g><g id="kvg:07567-g2" kvg:element="各" kvg:position="bottom"><g id="kvg:07567-g3" kvg:element="夂" kvg:position="top"><path id="kvg:07567-s6" kvg:type="㇒" d="M44.74 41.75c.07.5-.16 1.84-.63 2.53-3.6 5.29-11.12 12.18-22.39 18.78"/><path id="kvg:07567-s7" kvg:type="㇇" d="M42.74 48.92c.42.02 2.21.0 3.41-.07 3.95-.23 16.39-2.44 22.05-2.91 2.3-.19 3.47 2.06 2.48 3.39-5.41 7.29-27.93 22.69-52.24 27.5"/><path id="kvg:07567-s8" kvg:type="㇏" d="M36.71 53.12c7.08 3.11 39.14 14.94 48.68 17.79 2.84.85 5.15 1.26 7.92 1.51"/></g><g id="kvg:07567-g4" kvg:element="口" kvg:position="bottom"><path id="kvg:07567-s9" kvg:type="㇑" d="M33.55 75.75c.49.38 1 .69 1.22 1.17 1.71 3.75 2.58 14.54 3.75 21.29"/><path id="kvg:07567-s10" kvg:type="㇕b" d="M35.13 76.95c13.89-1.27 33.05-2.91 38.84-3.4 2.11-.18 2.88 2.07 2.58 3.13-1.25 4.39-3.08 11.03-4.94 17.1"/><path id="kvg:07567-s11" kvg:type="㇐b" d="M38.75 96.26c6.8-.56 26.81-1.66 36.15-2.51"/></g></g></g></g></svg>