<svg xmlns="http://www.w3.org/2000/svg" width="109" height="109" viewBox="0 0 109 109"><g id="kvg:StrokePaths_07565"><g id="kvg:07565" kvg:element="略"><g id="kvg:07565-g1" kvg:element="田" kvg:position="left" kvg:radical="general"><path id="kvg:07565-s1" kvg:type="㇑" d="M12.37 33.18c.66.66.97 2.03 1.09 2.98.86 6.97 1.24 24.04 1.72 37.84.06 1.64.11 3.23.17 4.76"/><path id="kvg:07565-s2" kvg:type="㇕a" d="M14.39 35.1c9.74-1.85 17.22-2.86 22.92-3.62 2.09-.28 4.16 1.98 4.05 4.06-.38 6.99-.32 23.26-.8 35.2-.05 1.13-.09 2.22-.12 3.25"/><path id="kvg:07565-s3" kvg:type="㇑a" d="M26.73 34.13c.63.63.97 1.74.97 2.86.0 9.1.14 32.39.14 35.66"/><path id="kvg:07565-s4" kvg:type="㇐a" d="M15.75 53.34c2.49-.38 22.33-2.64 24.39-2.64"/><path id="kvg:07565-s5" kvg:type="㇐a" d="M16.25 75.73c8.5-1.23 14.25-2.23 23.24-2.95"/></g><g id="kvg:07565-g2" kvg:element="各" kvg:position="right" kvg:phon="各"><g id="kvg:07565-g3" kvg:element="夂" kvg:position="top"><path id="kvg:07565-s6" kvg:type="㇒" d="M60.81 14c0 .88-.01 1.89-.33 2.88-1.98 6.12-6.6 18.5-13.61 27.54"/><path id="kvg:07565-s7" kvg:type="㇇" d="M61.48 23.93c.33.04 1.73.0 2.67-.12 3.09-.37 9.78-2.45 14.19-3.59 3.03-.78 3.89 1.39 3.12 3.52C77.22 35.38 63.25 58 45.75 66.25"/><path id="kvg:07565-s8" kvg:type="㇏" d="M56.66 32.47c5.09 4.28 22.16 18.95 31.12 25.61 1.32.98 4.97 3.29 8.01 4.74"/></g><g id="kvg:07565-g4" kvg:element="口" kvg:position="bottom"><path id="kvg:07565-s9" kvg:type="㇑" d="M51.36 70.35c1.02 1.02 1.5 2.03 1.68 3.3.84 5.98 1.09 11.36 1.84 17.59.19 1.59.27 3.18.4 4.72"/><path id="kvg:07565-s10" kvg:type="㇕b" d="M53.69 72.32c8.94-1.41 22.8-3.27 29.07-4.16 2.87-.41 4.49 1.59 4.05 3.86-.97 5.02-2.12 11.85-3.52 18.2"/><path id="kvg:07565-s11" kvg:type="㇐b" d="M56.22 93.61c5.04-.57 17.75-1.51 26.05-2.41 1.1-.12 2.48-.1 3.54-.1"/></g></g></g></g></svg>