<svg xmlns="http://www.w3.org/2000/svg" width="109" height="109" viewBox="0 0 109 109"><g id="kvg:StrokePaths_07576" style="fill:none;stroke:#000000;stroke-width:3;stroke-linecap:round;stroke-linejoin:round;"><g id="kvg:07576" kvg:element="當"><g id="kvg:07576-g1" kvg:element="尚" kvg:variant="true" kvg:position="top"><g id="kvg:07576-g2" kvg:element="⺌" kvg:variant="true" kvg:original="小" kvg:position="top" kvg:radical="nelson"><path id="kvg:07576-s1" kvg:type="㇑" d="M52.96 9.87c.09.26 1.17 1.35 1.26 2.99.4 7.9.24 15.07.24 17.76"/><path id="kvg:07576-s2" kvg:type="㇔" d="M28.52 16.33c3.72 2.14 9.61 8.8 10.54 12.13"/><path id="kvg:07576-s3" kvg:type="㇒" d="M78.51 13.75c.03.32.05.83-.05 1.3-.61 2.74-4.11 8.74-8.9 12.42"/></g><g id="kvg:07576-g3" kvg:position="bottom"><g id="kvg:07576-g4" kvg:element="冂" kvg:variant="true"><path id="kvg:07576-s4" kvg:type="㇔" d="M20.57 29.63c-.22 4.46-3.98 14.9-5.82 17.56"/><path id="kvg:07576-s5" kvg:type="㇖" d="M22.49 33.18c3.31.0 46.71-3.81 63.3-4.62 11.46-.56 7.46 5.19-.65 10.2"/></g><g id="kvg:07576-g5" kvg:element="口"><path id="kvg:07576-s6" kvg:type="㇑" d="M36.14 40.79c.28.31.61.56.7.96.81 3.56 1.84 11.03 2.65 16.25"/><path id="kvg:07576-s7" kvg:type="㇕b" d="M37.91 42.38c5.25-.75 27.37-2.25 32.22-3.01 1.22-.19 2.64.93 2.12 3.1-.84 3.54-1.55 5.07-2.98 9.88"/><path id="kvg:07576-s8" kvg:type="㇐b" d="M40.08 55.19c8.17-.44 24.42-1.94 30.94-2.12"/></g></g></g><g id="kvg:07576-g6" kvg:element="田" kvg:position="bottom" kvg:radical="tradit"><path id="kvg:07576-s9" kvg:type="㇑" d="M27.85 64.11c.37.63.87 1.55 1.07 2.33 1.63 6.38 3.1 21.81 4.06 33.56"/><path id="kvg:07576-s10" kvg:type="㇕a" d="M29.58 66.58c14.42-1.33 38.19-3.23 47.87-3.85 3.56-.23 4.87 2.62 4.67 4.33-.71 6.26-2.87 21.19-4.28 31.2"/><path id="kvg:07576-s11" kvg:type="㇑a" d="M53.93 66.4c.82.6.96 2.35.95 3.47-.05 7.4.23 23.89.23 26.57"/><path id="kvg:07576-s12" kvg:type="㇐a" d="M31.39 81.94c4.22-.31 45.32-3.16 48.81-3.16"/><path id="kvg:07576-s13" kvg:type="㇐a" d="M33.17 97.84c10.58-.84 32.41-2.42 45.29-2.59"/></g></g></g></svg>