<svg xmlns="http://www.w3.org/2000/svg" width="109" height="109" viewBox="0 0 109 109"><g id="kvg:StrokePaths_07574" style="fill:none;stroke:#000000;stroke-width:3;stroke-linecap:round;stroke-linejoin:round;"><g id="kvg:07574" kvg:element="畴"><g id="kvg:07574-g1" kvg:element="田" kvg:position="left" kvg:radical="general"><path id="kvg:07574-s1" kvg:type="㇑" d="M13.54 22.98c.96.52 1.24 1.55 1.37 2.7 1 9.43 1.49 32.99 1.76 50.38"/><path id="kvg:07574-s2" kvg:type="㇕a" d="M15.32 24.39c9.94-1.08 13.99-1.39 21.42-2.41 2.73-.38 4.04 2.34 3.83 4.87-.79 9.28-.82 33.07-2.52 48.53"/><path id="kvg:07574-s3" kvg:type="㇑a" d="M27.68 24.11c-.01 12.09.02 40.38-.22 48.41"/><path id="kvg:07574-s4" kvg:type="㇐a" d="M16.44 47.19c3.24-.22 20.7-1.58 23.37-1.59"/><path id="kvg:07574-s5" kvg:type="㇐a" d="M17.24 73.09c7.14-.09 11.06-.8 20.93-1.18"/></g><g id="kvg:07574-g2" kvg:element="寿" kvg:position="right"><g id="kvg:07574-g3" kvg:element="三"><g id="kvg:07574-g4" kvg:element="一" kvg:position="top"><path id="kvg:07574-s6" kvg:type="㇐" d="M47.56 24c1.12.28 3.17.34 4.28.28 7.79-.4 25.59-3.27 36.22-3.27 1.87.0 2.98.14 3.91.28"/></g><g id="kvg:07574-g5" kvg:position="bottom"><g id="kvg:07574-g6" kvg:element="一"><path id="kvg:07574-s7" kvg:type="㇐" d="M50.59 37.49c1.04.28 2.93.34 3.97.28 7.6-.39 22.25-2.63 29.64-2.9 1.72-.06 2.76.14 3.62.28"/></g><g id="kvg:07574-g7" kvg:element="一"><path id="kvg:07574-s8" kvg:type="㇐" d="M45.4 52.26c1.22.43 3.47.48 4.69.43C61 52.25 78.71 50.25 93.1 49.57c2.04-.1 3.26.2 4.29.42"/></g></g></g><g id="kvg:07574-g8" kvg:element="丿"><path id="kvg:07574-s9" kvg:type="㇒" d="M67.64 11c.61 1.5.84 2.91.72 5.06-1.61 27.44-7.11 55.44-26.9 75.48"/></g><g id="kvg:07574-g9" kvg:element="寸"><path id="kvg:07574-s10" kvg:type="㇐" d="M44.63 70.81c1.34.67 3.79.78 5.15.67 12.48-.98 26.52-2.93 42.91-3.95 2.23-.14 3.58.32 4.7.65"/><path id="kvg:07574-s11" kvg:type="㇚" d="M81.45 53.83c.8.92 2.1 1.83 2.1 4.67.0 19.11-.79 29.19-.79 33.84.0 11.27-5.64 2.14-7.56.7"/><path id="kvg:07574-s12" kvg:type="㇔" d="M60.56 77.37c2.63 1.37 6.79 5.62 7.44 7.75"/></g></g></g></g></svg>