<!DOCTYPE svg PUBLIC "-//W3C//DTD SVG 1.0//EN" "http://www.w3.org/TR/2001/REC-SVG-20010904/DTD/svg10.dtd" [
<!ATTLIST g
xmlns:kvg CDATA #FIXED "http://kanjivg.tagaini.net"
kvg:element CDATA #IMPLIED
kvg:variant CDATA #IMPLIED
kvg:partial CDATA #IMPLIED
kvg:original CDATA #IMPLIED
kvg:part CDATA #IMPLIED
kvg:number CDATA #IMPLIED
kvg:tradForm CDATA #IMPLIED
kvg:radicalForm CDATA #IMPLIED
kvg:position CDATA #IMPLIED
kvg:radical CDATA #IMPLIED
kvg:phon CDATA #IMPLIED >
<!ATTLIST path
xmlns:kvg CDATA #FIXED "http://kanjivg.tagaini.net"
kvg:type CDATA #IMPLIED >
]><svg xmlns="http://www.w3.org/2000/svg" width="109" height="109" viewBox="0 0 109 109"><g id="kvg:StrokePaths_0758f" style="fill:none;stroke:#000000;stroke-width:3;stroke-linecap:round;stroke-linejoin:round;"><g id="kvg:0758f" kvg:element="疏"><g id="kvg:0758f-g1" kvg:element="疋" kvg:variant="true" kvg:position="left" kvg:radical="general"><path id="kvg:0758f-s1" kvg:type="㇖" d="M10.58 28.4c.92.6 3.52.93 6.01.44 7.79-1.52 13.12-2.68 19.27-3.91 2.95-.59 4.46.52 2.4 3.2-1.93 2.5-5.31 6.5-8.51 10.62"/><g id="kvg:0758f-g2" kvg:element="卜" kvg:original="ト"><path id="kvg:0758f-s2" kvg:type="㇑" d="M25.5 39.33c.83.83 1.25 2.17 1.25 3.66.0 6.51.0 28.01.0 37.09"/><path id="kvg:0758f-s3" kvg:type="㇐" d="M27.26 55.06c6.37-.67 1-.34 10.61-1.68 1.54-.22 1.95-.22 2.92.0"/></g><g id="kvg:0758f-g3" kvg:element="人"><path id="kvg:0758f-s4" kvg:type="㇑/㇒" d="M13.27 58.58c1.01 1.01 1.17 2.67 1.26 4.27.48 9.02.73 18.27.98 24.4"/><path id="kvg:0758f-s5" kvg:type="㇀/㇏" d="M9.75 88.75c1.12 1.12 2.43 1.39 4 .5 7-4 15.25-9.5 23.25-14.25"/></g></g><g id="kvg:0758f-g4" kvg:element="㐬" kvg:position="right"><g id="kvg:0758f-g5" kvg:position="top"><g id="kvg:0758f-g6" kvg:element="亠"><path id="kvg:0758f-s6" kvg:type="㇑a" d="M64.75 14.5c1.06 1.06 1.55 2.38 1.55 3.62.0 3.06-.05 7.6-.05 10.51"/><path id="kvg:0758f-s7" kvg:type="㇐" d="M45.44 31.53c2.95.56 5.84.15 8.83-.19 8.35-.93 21.76-2.77 30.6-3.46 2.5-.2 5.5-.26 7.94.24"/></g><g id="kvg:0758f-g7" kvg:element="厶"><path id="kvg:0758f-s8" kvg:type="㇜" d="M64.19 33.5c0 1.12-.44 2.12-1.05 2.92-4.42 5.74-5.46 6.86-10.88 12.64-2.75 2.93-1.73 3.41 1.75 2.51 10.88-2.82 14.12-3.74 26.38-6.94"/><path id="kvg:0758f-s9" kvg:type="㇔" d="M75.66 37.35c4.34 2.58 10.71 10.11 11.8 14.12"/></g></g><g id="kvg:0758f-g8" kvg:element="川" kvg:variant="true" kvg:original="巛" kvg:position="bottom"><path id="kvg:0758f-s10" kvg:type="㇒" d="M52.27 60.14c.67.67.92 1.65.91 2.87C53 78.84 49.07 89.86 39.31 95.22"/><path id="kvg:0758f-s11" kvg:type="㇑" d="M64.61 58.37c.82.82.83 2.13.83 3.77.0 2.99.03 23.59.03 27.87"/><path id="kvg:0758f-s12" kvg:type="㇟" d="M78.1 55.87c.95.95 1.2 2.63 1.2 4 0 8.79.04 17.57.04 23.54.0 10.59 1.42 11.62 9.34 11.62 7.95.0 9.08-1.03 9.08-9.04"/></g></g></g></g><g id="kvg:StrokeNumbers_0758f" style="font-size:8;fill:#808080"><text transform="matrix(1 0 0 1 3.50 28.50)">1</text><text transform="matrix(1 0 0 1 17.50 45.05)">2</text><text transform="matrix(1 0 0 1 30.50 51.50)">3</text><text transform="matrix(1 0 0 1 4.25 60.50)">4</text><text transform="matrix(1 0 0 1 2.50 88.50)">5</text><text transform="matrix(1 0 0 1 54.50 14.50)">6</text><text transform="matrix(1 0 0 1 45.50 28.50)">7</text><text transform="matrix(1 0 0 1 52.25 40.60)">8</text><text transform="matrix(1 0 0 1 79.50 37.50)">9</text><text transform="matrix(1 0 0 1 41.50 63.50)">10</text><text transform="matrix(1 0 0 1 54.50 61.50)">11</text><text transform="matrix(1 0 0 1 67.50 57.50)">12</text></g></svg>