<svg xmlns="http://www.w3.org/2000/svg" width="109" height="109" viewBox="0 0 109 109"><g id="kvg:StrokePaths_0758e" style="fill:none;stroke:#000000;stroke-width:3;stroke-linecap:round;stroke-linejoin:round;"><g id="kvg:0758e" kvg:element="疎"><g id="kvg:0758e-g1" kvg:element="疋" kvg:variant="true" kvg:position="left" kvg:radical="general" kvg:phon="疋"><path id="kvg:0758e-s1" kvg:type="㇖" d="M10.72 24c1.2.5 2.9.76 4.15.5 9.67-2.05 13.75-3.25 20.75-4.9 3.33-.79 5.21.92 2.48 3.75-3.25 3.36-4.98 5.29-8.09 8.4"/><g id="kvg:0758e-g2" kvg:element="卜" kvg:original="ト"><path id="kvg:0758e-s2" kvg:type="㇑a" d="M25.62 33c1 1 1.21 2.5 1.21 3.75.0 1.05.03 29.25.03 38"/><path id="kvg:0758e-s3" kvg:type="㇐b" d="M27.88 49.75c3.87-.25 6.12-.75 9.35-1.5 1.7-.39 2.18-.25 3.26.0"/></g><g id="kvg:0758e-g3" kvg:element="人" kvg:variant="true"><path id="kvg:0758e-s4" kvg:type="㇑a/㇒" d="M13.12 54.5c1 1 1.38 2.12 1.46 3.75.05 1.02.67 16 1.03 23.5"/><path id="kvg:0758e-s5" kvg:type="㇀/㇏" d="M10 83.25c1.25 1.25 2.59 1.25 4.04.4C19.44 80.52 33.25 72 40.5 67.75"/></g></g><g id="kvg:0758e-g4" kvg:element="束" kvg:position="right"><g id="kvg:0758e-g5" kvg:element="木" kvg:part="1"><path id="kvg:0758e-s6" kvg:type="㇐" d="M48.22 27.61c2.15.39 4.1.53 5.65.28 7.87-1.27 20.67-3.25 27.73-4.03 1.74-.19 3.42-.38 5.13.09"/></g><g id="kvg:0758e-g6" kvg:element="口"><path id="kvg:0758e-s7" kvg:type="㇑" d="M46.49 40.7c.78.78 1.31 1.45 1.42 2.38.8 2.8 1.86 7.28 2.69 11.55.28 1.42.51 2.81.67 4.07"/><path id="kvg:0758e-s8" kvg:type="㇕b" d="M48.63 41.94c11.75-2.69 26.85-4.76 33.26-5.6 3.53-.46 5.78.56 4.9 4.66-1.04 4.87-1.54 6.49-2.38 11.2"/><path id="kvg:0758e-s9" kvg:type="㇐b" d="M52.41 56.56c7.33-1.01 20.09-2.81 29.1-3.72 1.76-.18 3.35-.32 4.69-.42"/></g><g id="kvg:0758e-g7" kvg:element="木" kvg:part="2"><path id="kvg:0758e-s10" kvg:type="㇑" d="M65.5 12.75c1.25 1.25 1.75 2.62 1.75 4 0 .69.03 52.85.02 74 0 5.21-.01 8.54-.02 8.75"/><path id="kvg:0758e-s11" kvg:type="㇒" d="M64.67 55.82c0 1.68-.54 2.96-1.53 4.67-5.54 9.58-14.02 19.39-23.03 25.27"/><path id="kvg:0758e-s12" kvg:type="㇏" d="M67.99 55.6C71.75 60.75 81 71.25 88.14 78.74 90.29 81 92.38 83 95.4 84.66"/></g></g></g></g></svg>