<svg xmlns="http://www.w3.org/2000/svg" width="109" height="109" viewBox="0 0 109 109"><g id="kvg:StrokePaths_07594" style="fill:none;stroke:#000000;stroke-width:3;stroke-linecap:round;stroke-linejoin:round;"><g id="kvg:07594" kvg:element="疔"><g id="kvg:07594-g1" kvg:element="疒" kvg:position="tare" kvg:radical="general"><path id="kvg:07594-s1" kvg:type="㇑a" d="M54.88 10.38c.71.36 2.23 2.72 2.37 3.44.14.73.07 4.39-.07 8.92"/><path id="kvg:07594-s2" kvg:type="㇐" d="M24.38 24.64c1.73.39 4.89.45 6.61.39 17.95-.65 38.12-3.24 54.1-3.74 2.87-.09 4.6.19 6.04.38"/><path id="kvg:07594-s3" kvg:type="㇒" d="M31.99 25.5c0 1.18.0 2.35-.01 3.5-.27 32.91-4.43 51.74-17.42 65.72"/><path id="kvg:07594-s4" kvg:type="㇔" d="M14.75 38c2.74 1.63 7.07 6.71 7.75 9.25"/><path id="kvg:07594-s5" kvg:type="㇀" d="M11.17 66.01c1.46.72 1.91.51 3.2-.37 5.2-3.55 8.2-5.82 12.13-8.89"/></g><g id="kvg:07594-g2" kvg:element="丁" kvg:position="tarec"><g id="kvg:07594-g3" kvg:element="一"><path id="kvg:07594-s6" kvg:type="㇐" d="M38.75 44.08c1.76.56 5 .75 6.76.56 9.48-.99 31-2.49 41.07-3.48 2.92-.29 4.7.27 6.17.55"/></g><g id="kvg:07594-g4" kvg:element="亅"><path id="kvg:07594-s7" kvg:type="㇚" d="M65.52 45.49c.73.92 1.75 2.5 1.75 5.56.0 21.45-.25 35.05-.25 40.05.0 10.15-6.06 2.43-7.46 1.25"/></g></g></g></g></svg>