<svg xmlns="http://www.w3.org/2000/svg" width="109" height="109" viewBox="0 0 109 109"><g id="kvg:StrokePaths_075a3" style="fill:none;stroke:#000000;stroke-width:3;stroke-linecap:round;stroke-linejoin:round;"><g id="kvg:075a3" kvg:element="疣"><g id="kvg:075a3-g1" kvg:element="疒" kvg:position="tare" kvg:radical="general"><path id="kvg:075a3-s1" kvg:type="㇑a" d="M54.41 11.13c.7.36 2.18 2.66 2.32 3.37.14.71.07 4.8-.07 9.24"/><path id="kvg:075a3-s2" kvg:type="㇐" d="M24.13 25.23c1.52.54 4.3.63 5.82.54 15.8-.91 42.05-2.52 56.11-3.23 2.53-.13 4.05.26 5.31.53"/><path id="kvg:075a3-s3" kvg:type="㇒" d="M29.99 26.5c0 1.88-.01 3.72-.02 5.5-.22 33-2.69 48.56-15.92 63.47"/><path id="kvg:075a3-s4" kvg:type="㇔" d="M12.5 38c3.53 2.25 9.12 9.25 10 12.75"/><path id="kvg:075a3-s5" kvg:type="㇀" d="M9.67 68.48c1.46.76 1.91.54 3.2-.38 5.2-3.74 8.2-6.12 12.13-9.35"/></g><g id="kvg:075a3-g2" kvg:element="尤" kvg:position="tarec"><g id="kvg:075a3-g3" kvg:element="尢"><path id="kvg:075a3-s6" kvg:type="㇐" d="M37.24 47.31c1.27.47 3.61.6 4.88.47 9.06-.94 31.19-2.82 44.86-2.8 2.12.0 3.39.22 4.45.46"/><g id="kvg:075a3-g4" kvg:element="儿" kvg:original="八"><g id="kvg:075a3-g5" kvg:element="丿"><path id="kvg:075a3-s7" kvg:type="㇒" d="M60.3 31c.09 1.67.2 1.57.2 3.87.0 15.64-4.8 49.31-30.83 61.3"/></g><path id="kvg:075a3-s8" kvg:type="㇟" d="M61.73 55c.65 1.29 1.16 2.81 1.2 4.81.17 8.89-.46 17.53-.46 23.57.0 10.37 2.27 12.52 15.43 12.52 15.6.0 16.49-1.65 16.49-9.91"/></g></g><g id="kvg:075a3-g6" kvg:element="丶"><path id="kvg:075a3-s9" kvg:type="㇔" d="M71.18 29.88c3.51 1.6 9.07 6.59 9.95 9.08"/></g></g></g></g></svg>