<!DOCTYPE svg PUBLIC "-//W3C//DTD SVG 1.0//EN" "http://www.w3.org/TR/2001/REC-SVG-20010904/DTD/svg10.dtd" [
<!ATTLIST g
xmlns:kvg CDATA #FIXED "http://kanjivg.tagaini.net"
kvg:element CDATA #IMPLIED
kvg:variant CDATA #IMPLIED
kvg:partial CDATA #IMPLIED
kvg:original CDATA #IMPLIED
kvg:part CDATA #IMPLIED
kvg:number CDATA #IMPLIED
kvg:tradForm CDATA #IMPLIED
kvg:radicalForm CDATA #IMPLIED
kvg:position CDATA #IMPLIED
kvg:radical CDATA #IMPLIED
kvg:phon CDATA #IMPLIED >
<!ATTLIST path
xmlns:kvg CDATA #FIXED "http://kanjivg.tagaini.net"
kvg:type CDATA #IMPLIED >
]><svg xmlns="http://www.w3.org/2000/svg" width="109" height="109" viewBox="0 0 109 109"><g id="kvg:StrokePaths_075ab" style="fill:none;stroke:#000000;stroke-width:3;stroke-linecap:round;stroke-linejoin:round;"><g id="kvg:075ab" kvg:element="疫"><g id="kvg:075ab-g1" kvg:element="疒" kvg:position="tare" kvg:radical="general"><path id="kvg:075ab-s1" kvg:type="㇑a" d="M57.55 13.13c1.03 1.03 1.21 2.37 1.21 3.65.0.78-.01 5.21-.01 7.21"/><path id="kvg:075ab-s2" kvg:type="㇐" d="M27.74 26.98c2.51.77 5.17.69 7.64.38 16.61-2.1 34-3.8 46.62-4.65 2.7-.18 5.22-.22 7.88.37"/><path id="kvg:075ab-s3" kvg:type="㇒" d="M30.26 27.75c.87.87 1.17 2.25 1.16 3.88-.04 19.99.46 43.87-15.76 61.09"/><path id="kvg:075ab-s4" kvg:type="㇔" d="M15.88 37.25c2.5 1.59 6.47 6.53 7.1 9"/><path id="kvg:075ab-s5" kvg:type="㇀" d="M11.92 64.72c1.2.9 2.96.76 4.34-.14 4.73-3.08 5.61-3.95 11.1-7.83"/></g><g id="kvg:075ab-g2" kvg:element="殳" kvg:position="tarec" kvg:phon="殳/役T"><g id="kvg:075ab-g3" kvg:element="几" kvg:position="top"><g id="kvg:075ab-g4" kvg:element="丿"><path id="kvg:075ab-s6" kvg:type="㇒" d="M49.67 33.48c.61.61.98 1.51.96 2.36-.19 8.79-1.13 16.41-8.6 22.6"/></g><path id="kvg:075ab-s7" kvg:type="㇈b" d="M51.35 36.12c3.78-.49 14.28-2.59 15.98-3 1.55-.37 2.67 1.01 2.5 2.75-.32 3.26-.5 5.89-.5 8.99.0 6.4.8 7.99 8.24 7.99 8.94.0 9.94-2.09 10.24-8.99"/></g><g id="kvg:075ab-g5" kvg:element="又" kvg:position="bottom"><path id="kvg:075ab-s8" kvg:type="㇇" d="M45.6 64.27c1.5.3 2.69.49 5.68.05 3-.44 18.39-3.3 20.48-3.62 2.87-.44 2.78 2.25 1.81 3.76C63.75 79.62 52 87.88 33.87 96.17"/><path id="kvg:075ab-s9" kvg:type="㇏" d="M45.04 70.85c3.87.54 20.31 13.29 34.66 20.76 3.36 1.75 6.43 3.14 10.23 4.27"/></g></g></g></g><g id="kvg:StrokeNumbers_075ab" style="font-size:8;fill:#808080"><text transform="matrix(1 0 0 1 49.50 13.50)">1</text><text transform="matrix(1 0 0 1 32.25 24.13)">2</text><text transform="matrix(1 0 0 1 24.50 36.50)">3</text><text transform="matrix(1 0 0 1 7.50 36.13)">4</text><text transform="matrix(1 0 0 1 5.25 69.50)">5</text><text transform="matrix(1 0 0 1 43.50 40.50)">6</text><text transform="matrix(1 0 0 1 54.50 33.50)">7</text><text transform="matrix(1 0 0 1 48.75 61.55)">8</text><text transform="matrix(1 0 0 1 42.75 79.48)">9</text></g></svg>