<svg xmlns="http://www.w3.org/2000/svg" width="109" height="109" viewBox="0 0 109 109"><g id="kvg:StrokePaths_075bd"><g id="kvg:075bd" kvg:element="疽"><g id="kvg:075bd-g1" kvg:element="疒" kvg:position="tare" kvg:radical="general"><path id="kvg:075bd-s1" kvg:type="㇑a" d="M55.91 11.13c.7.36 2.18 2.66 2.32 3.37.14.71.07 4.3-.07 8.74"/><path id="kvg:075bd-s2" kvg:type="㇐" d="M24.63 25.34c1.82.65 5.15.75 6.97.65 18.91-1.08 38.35-1.82 55.18-2.67 3.02-.15 4.84.31 6.36.63"/><path id="kvg:075bd-s3" kvg:type="㇒" d="M30.49 26.5c0 1.27-.01 2.52-.02 3.75C30.2 57.71 25 79.5 14.31 90.97"/><path id="kvg:075bd-s4" kvg:type="㇔" d="M12.5 35.75c3.18 2.12 8.21 8.71 9 12"/><path id="kvg:075bd-s5" kvg:type="㇀" d="M10.67 66.57c1.44.61 1.88.43 3.15-.31 5.11-3 8.06-4.92 11.93-7.51"/></g><g id="kvg:075bd-g2" kvg:element="且" kvg:position="tarec"><g id="kvg:075bd-g3" kvg:element="月"><path id="kvg:075bd-s6" kvg:type="㇑a" d="M46.56 37.2c.58.84.97 2.16 1.17 2.98s.43 49.38.36 51.19"/><path id="kvg:075bd-s7" kvg:type="㇕b" d="M48.88 38.63c2.31-.08 23.46-2.41 25.17-2.55 3.08-.25 4.25 2.83 3.87 4.02-.37 1.14-.18 32.5-.29 48.82"/><path id="kvg:075bd-s8" kvg:type="㇐a" d="M48.96 55.74c7.88-.81 20.75-1.47 27.67-1.72"/><path id="kvg:075bd-s9" kvg:type="㇐a" d="M48.42 72.58c6.15-.29 22.1-1.42 29.21-1.46"/></g><g id="kvg:075bd-g4" kvg:element="一"><path id="kvg:075bd-s10" kvg:type="㇐" d="M27.81 93.15c1.79.56 5.07.65 6.86.56 18.62-.94 22.67-2.57 56.95-2.72 2.98-.01 4.77.27 6.26.55"/></g></g></g></g></svg>