<!DOCTYPE svg PUBLIC "-//W3C//DTD SVG 1.0//EN" "http://www.w3.org/TR/2001/REC-SVG-20010904/DTD/svg10.dtd" [
<!ATTLIST g
xmlns:kvg CDATA #FIXED "http://kanjivg.tagaini.net"
kvg:element CDATA #IMPLIED
kvg:variant CDATA #IMPLIED
kvg:partial CDATA #IMPLIED
kvg:original CDATA #IMPLIED
kvg:part CDATA #IMPLIED
kvg:number CDATA #IMPLIED
kvg:tradForm CDATA #IMPLIED
kvg:radicalForm CDATA #IMPLIED
kvg:position CDATA #IMPLIED
kvg:radical CDATA #IMPLIED
kvg:phon CDATA #IMPLIED >
<!ATTLIST path
xmlns:kvg CDATA #FIXED "http://kanjivg.tagaini.net"
kvg:type CDATA #IMPLIED >
]><svg xmlns="http://www.w3.org/2000/svg" width="109" height="109" viewBox="0 0 109 109"><g id="kvg:StrokePaths_075ca" style="fill:none;stroke:#000000;stroke-width:3;stroke-linecap:round;stroke-linejoin:round;"><g id="kvg:075ca" kvg:element="痊"><g id="kvg:075ca-g1" kvg:element="疒" kvg:position="tare" kvg:radical="general"><path id="kvg:075ca-s1" kvg:type="㇑a" d="M55.41 13.13c.7.36 2.18 2.66 2.32 3.37s.07 3.8-.07 8.24"/><path id="kvg:075ca-s2" kvg:type="㇐" d="M28.13 25.73c1.52.54 4.3.63 5.82.54 15.8-.91 37.55-1.52 51.61-2.23 2.53-.13 4.05.26 5.31.53"/><path id="kvg:075ca-s3" kvg:type="㇒" d="M30.99 27c0 1.1.0 2.18-.01 3.25-.24 33.26-4.38 49.18-16.67 62.72"/><path id="kvg:075ca-s4" kvg:type="㇔" d="M14.25 36.75c2.91 2.12 7.52 8.71 8.25 12"/><path id="kvg:075ca-s5" kvg:type="㇀" d="M10.67 64.98c1.63.76 2.13.54 3.56-.38 5.79-3.74 7.63-4.62 12.01-7.85"/></g><g id="kvg:075ca-g2" kvg:element="全" kvg:position="tarec"><g id="kvg:075ca-g3" kvg:element="人" kvg:variant="true" kvg:original="入" kvg:position="top"><path id="kvg:075ca-s6" kvg:type="㇒" d="M59.43 31.5c.07.7.25 1.84-.14 2.81-2.43 6.02-11.54 17.94-24.04 26.85"/><path id="kvg:075ca-s7" kvg:type="㇏" d="M59.19 34.94c5.08 4.12 22.1 18.22 26.69 21.35 1.56 1.06 3.56 1.52 5.12 1.82"/></g><g id="kvg:075ca-g4" kvg:element="王" kvg:original="玉" kvg:partial="true" kvg:position="bottom"><path id="kvg:075ca-s8" kvg:type="㇐" d="M45.38 60.57c.81.36 3.43.56 4.25.52C56.75 60.75 65.5 59 72.89 58.4c1.24-.1 2.38.07 3.4.37"/><path id="kvg:075ca-s9" kvg:type="㇑a" d="M59.62 60.72c.71.86.71 1.38.71 2.07.0 4.83.36 24.61.18 29.44"/><path id="kvg:075ca-s10" kvg:type="㇐" d="M44 76.31c.77.45 3.31.28 4.1.2 8.2-.79 16.02-1.5 25.65-2.31.96-.08 3.08-.18 4.51.21"/><path id="kvg:075ca-s11" kvg:type="㇐" d="M33.82 93.55c2.26.45 4.76.61 6.05.5 18.16-1.55 25.76-1.8 45.17-2.34 2.09-.06 4.59.37 5.63.71"/></g></g></g></g><g id="kvg:StrokeNumbers_075ca" style="font-size:8;fill:#808080"><text transform="matrix(1 0 0 1 47.50 13.50)">1</text><text transform="matrix(1 0 0 1 30.50 22.50)">2</text><text transform="matrix(1 0 0 1 23.71 34.50)">3</text><text transform="matrix(1 0 0 1 7.50 37.50)">4</text><text transform="matrix(1 0 0 1 3.72 67.50)">5</text><text transform="matrix(1 0 0 1 51.50 34.50)">6</text><text transform="matrix(1 0 0 1 66.50 38.50)">7</text><text transform="matrix(1 0 0 1 48.50 58.50)">8</text><text transform="matrix(1 0 0 1 52.25 70.50)">9</text><text transform="matrix(1 0 0 1 33.25 77.50)">10</text><text transform="matrix(1 0 0 1 31.50 90.88)">11</text></g></svg>