<svg xmlns="http://www.w3.org/2000/svg" width="109" height="109" viewBox="0 0 109 109"><g id="kvg:StrokePaths_075d2"><g id="kvg:075d2" kvg:element="痒"><g id="kvg:075d2-g1" kvg:element="疒" kvg:position="tare" kvg:radical="general"><path id="kvg:075d2-s1" kvg:type="㇑a" d="M55.41 9.63c.7.36 2.18 2.66 2.32 3.37.14.71.07 3.8-.07 8.24"/><path id="kvg:075d2-s2" kvg:type="㇐" d="M27.63 22.73c1.83.54 5.18.63 7 .54 19.01-.91 31.94-2.52 48.85-3.23 3.04-.13 4.87.26 6.39.53"/><path id="kvg:075d2-s3" kvg:type="㇒" d="M30.99 23.5c-.02 1.27-.04 2.52-.07 3.75-.68 30.89-4.08 48.36-14.37 63.72"/><path id="kvg:075d2-s4" kvg:type="㇔" d="M14.5 37.75c2.82 1.68 7.29 6.89 8 9.5"/><path id="kvg:075d2-s5" kvg:type="㇀" d="M11.92 66.25c1.32.74 1.73.53 2.89-.37 4.69-3.65 7.4-5.97 10.94-9.12"/></g><g id="kvg:075d2-g2" kvg:element="羊" kvg:position="tarec"><g id="kvg:075d2-g3" kvg:element="䒑"><path id="kvg:075d2-s6" kvg:type="㇔" d="M47.15 28.86c2.55 1.5 6.58 6.15 7.22 8.48"/><path id="kvg:075d2-s7" kvg:type="㇒" d="M74.98 26.39c.02.29.04.75-.04 1.16-.48 2.45-3.24 7.81-7.02 11.1"/><path id="kvg:075d2-s8" kvg:type="㇐" d="M40.86 43.34c1.18.41 3.31.46 4.51.41 10.88-.5 25.81-2.78 36.41-2.63 1.96.03 3.14.19 4.12.4"/></g><path id="kvg:075d2-s9" kvg:type="㇐" d="M43.11 57.88c.78.35 2.2.35 3 .35 10.13-.02 24.89-1.73 34.7-2.1 1.3-.05 2.3.38 3.43.38"/><path id="kvg:075d2-s10" kvg:type="㇐" d="M34.42 73.81c1.44.78 4.06.85 5.51.78C51.5 74 71.1 72 86.92 70.94c2.39-.16 3.23.48 5.41.84"/><path id="kvg:075d2-s11" kvg:type="㇑" d="M61.64 45.62c.76.46 1.21 2.06 1.36 2.98.15.92.0 45.16-.15 50.9"/></g></g></g></svg>