<svg xmlns="http://www.w3.org/2000/svg" width="109" height="109" viewBox="0 0 109 109"><g id="kvg:StrokePaths_075d4" style="fill:none;stroke:#000000;stroke-width:3;stroke-linecap:round;stroke-linejoin:round;"><g id="kvg:075d4" kvg:element="痔"><g id="kvg:075d4-g1" kvg:element="疒" kvg:position="tare" kvg:radical="general"><path id="kvg:075d4-s1" kvg:type="㇑a" d="M55.56 10.13c1.09 1.09 1.26 2.49 1.26 3.9.0 1.71-.07 4.09-.07 6.96"/><path id="kvg:075d4-s2" kvg:type="㇐" d="M27.63 23.48c3.41.62 6.81.32 10.25.02C52.26 22.26 68 20.9 80.5 20.1c3.56-.48 7.1-.41 10.64.22"/><path id="kvg:075d4-s3" kvg:type="㇒" d="M30.49 24.75c.94.94 1 2.11.99 3.25C31 60.25 26.88 76.62 15.06 93.22"/><path id="kvg:075d4-s4" kvg:type="㇔" d="M12 35.75c3.71 1.9 9.82 7.8 10.75 10.75"/><path id="kvg:075d4-s5" kvg:type="㇀" d="M9.92 65.26c1.58.72 2.07.51 3.46-.37 5.62-3.55 8.12-5.57 12.37-8.64"/></g><g id="kvg:075d4-g2" kvg:element="寺" kvg:position="tarec"><g id="kvg:075d4-g3" kvg:element="土" kvg:position="top"><path id="kvg:075d4-s6" kvg:type="㇐" d="M43.19 38.26c2.27.35 4.54.38 6.82.11 7.19-.78 16.78-2.06 24.61-2.52 2.12-.27 4.24-.24 6.35.11"/><path id="kvg:075d4-s7" kvg:type="㇑a" d="M60.84 27.37c.64.65.84 1.82.84 3.13.0 6.5.03 17.27.03 19.41"/><path id="kvg:075d4-s8" kvg:type="㇐" d="M37.13 52.3c3.04.6 6.04.29 9.13-.05 10.11-1.12 25.61-2.49 37.37-3.43 2.87-.23 5.68-.33 8.5.19"/></g><g id="kvg:075d4-g4" kvg:element="寸" kvg:position="bottom"><path id="kvg:075d4-s9" kvg:type="㇐" d="M34.5 65.49c3.86.67 7.72.24 11.64-.2 12.6-1.41 26.48-2.54 38.35-3.29 3.53-.23 6.96-.57 10.41.07"/><path id="kvg:075d4-s10" kvg:type="㇚" d="M73.68 52.82c1 1 1.01 2.18 1.01 3.39.0 10.79-.07 33.2-.07 36.92.0 8.92-5.97 1.29-7.27.14"/><path id="kvg:075d4-s11" kvg:type="㇔" d="M47.75 72.65c3.17 2.16 6.72 7.32 7.52 10.68"/></g></g></g></g></svg>