<svg xmlns="http://www.w3.org/2000/svg" width="109" height="109" viewBox="0 0 109 109"><g id="kvg:StrokePaths_075e9" style="fill:none;stroke:#000000;stroke-width:3;stroke-linecap:round;stroke-linejoin:round;"><g id="kvg:075e9" kvg:element="痩"><g id="kvg:075e9-g1" kvg:element="疒" kvg:position="tare" kvg:radical="general"><path id="kvg:075e9-s1" kvg:type="㇑a" d="M55.56 11.38c1.28 1.28 1.76 2.99 1.76 4.4.0 2.21-.07 4.09-.07 6.96"/><path id="kvg:075e9-s2" kvg:type="㇐" d="M26.13 24.73c3.83.66 7.67.72 11.51.18 12.97-.87 28.68-2.27 40.73-3.04 3.68-.51 7.35-.45 11 .2"/><path id="kvg:075e9-s3" kvg:type="㇒" d="M30.74 26.5c.82.82 1 2.35.96 3.37-1.08 33.38-5.08 49.63-16.9 64.85"/><path id="kvg:075e9-s4" kvg:type="㇔" d="M14.25 38.5c2.74 1.63 7.07 6.71 7.75 9.25"/><path id="kvg:075e9-s5" kvg:type="㇀" d="M11.67 64.83c1.46.59 1.95.48 3.2-.3C20.5 61 22.57 59.51 26.5 57"/></g><g id="kvg:075e9-g2" kvg:element="叟" kvg:partial="true" kvg:position="tarec"><g id="kvg:075e9-g3" kvg:element="申" kvg:position="top"><g id="kvg:075e9-g4" kvg:element="日" kvg:original="臼" kvg:partial="true"><path id="kvg:075e9-s6" kvg:type="㇑" d="M39.51 38.26c.62.62.95 1.47 1.17 2.26.89 4.97 1.59 9.26 2.42 14.21.29 1.76.6 3.6.94 5.58"/><path id="kvg:075e9-s7" kvg:type="㇕" d="M41.27 39.27c12.28-1.44 28.26-3.33 37.12-4.09 2.97-.25 6.33.87 5.74 4.22-.54 3.06-1.77 7.82-2.92 12.19-.51 1.95-1.01 3.83-1.43 5.44"/><path id="kvg:075e9-s8" kvg:type="㇐" d="M43.16 48.24C54.38 47 69.38 45.87 81.8 44.72"/><path id="kvg:075e9-s9" kvg:type="㇐" d="M44.84 57.82c11.78-1.32 20.41-1.95 34.39-2.74"/></g><g id="kvg:075e9-g5" kvg:element="丨"><path id="kvg:075e9-s10" kvg:type="㇑" d="M60 28.5c1 1 1.34 2.12 1.34 2.97.0.87-.09 25.51-.09 34.53"/></g></g><g id="kvg:075e9-g6" kvg:element="又" kvg:position="bottom"><path id="kvg:075e9-s11" kvg:type="㇇" d="M41.58 69.19c2.44.36 4.59.22 7.04-.11 5.88-.78 19.27-3.03 24.05-3.83 3.58-.6 5.29 1.14 2.92 4.29-9.66 12.76-22.13 21.64-39.86 27.22"/><path id="kvg:075e9-s12" kvg:type="㇏" d="M45.89 73.67c5.29-.15 15.99 10.83 30.87 18.41 3.86 2.26 7.95 3.98 12.26 5.14"/></g></g></g></g></svg>