<svg xmlns="http://www.w3.org/2000/svg" width="109" height="109" viewBox="0 0 109 109"><g id="kvg:StrokePaths_075e2" style="fill:none;stroke:#000000;stroke-width:3;stroke-linecap:round;stroke-linejoin:round;"><g id="kvg:075e2" kvg:element="痢"><g id="kvg:075e2-g1" kvg:element="疒" kvg:position="tare" kvg:radical="general"><path id="kvg:075e2-s1" kvg:type="㇑a" d="M56.81 10.88c1.09 1.09 1.26 2.49 1.26 3.65.0.79.08 4.15-.07 8.96"/><path id="kvg:075e2-s2" kvg:type="㇐" d="M27.38 25.98c2.79 1 6.49.69 9.37.3 15.29-2.07 32.46-3.94 45.25-4.77 3.12-.2 6.05-.35 9.13.31"/><path id="kvg:075e2-s3" kvg:type="㇒" d="M29.49 27c1 1 1.51 2.35 1.49 3.5-.36 31.75-2.49 49.13-18.18 62.97"/><path id="kvg:075e2-s4" kvg:type="㇔" d="M15.12 41c2.78 1.72 7.18 7.07 7.88 9.75"/><path id="kvg:075e2-s5" kvg:type="㇀" d="M10.67 69.04c1.53.67 2.51.72 3.85-.09 5.45-3.28 7.47-4.7 12.47-7.7"/></g><g id="kvg:075e2-g2" kvg:element="利" kvg:position="tarec" kvg:phon="利"><g id="kvg:075e2-g3" kvg:element="禾" kvg:position="left"><g id="kvg:075e2-g4" kvg:element="丿" kvg:position="top"><path id="kvg:075e2-s6" kvg:type="㇒" d="M60.63 33.24c0 .89-.61 1.83-1.24 2.4-3.27 2.99-11.02 7.24-19.81 10.79"/></g><g id="kvg:075e2-g5" kvg:element="木" kvg:position="bottom"><path id="kvg:075e2-s7" kvg:type="㇐" d="M36.87 56.24c1.88.64 4.09.21 5.5-.09 5.55-1.18 13.14-2.55 19.52-3.48 1.63-.24 4.14-.68 5.77-.13"/><path id="kvg:075e2-s8" kvg:type="㇑" d="M52.67 43.5c.98.98 1.38 2.13 1.38 3.88.0 3.34.07 31.06.01 44.02-.02 3.11-.04 5.37-.06 6.23"/><path id="kvg:075e2-s9" kvg:type="㇒" d="M53.24 55.93c-.5 1.29-1.06 2.62-1.66 3.98-3.59 8.1-8.87 17.12-15.69 23.4"/><path id="kvg:075e2-s10" kvg:type="㇔/㇏" d="M57.13 62.58c4.08 2.4 7.54 7.21 9.74 10.3"/></g></g><g id="kvg:075e2-g6" kvg:element="刂" kvg:variant="true" kvg:original="刀" kvg:position="right"><path id="kvg:075e2-s11" kvg:type="㇑" d="M75.77 40.55c.7.66 1.24 1.83 1.24 3.63.0 7.44.04 16.94.04 24.82.0 2.86-.05 5.44-.05 6.5"/><path id="kvg:075e2-s12" kvg:type="㇚" d="M89.61 33.07c.72.68 1.28 2.18 1.28 3.99.0 10.94.06 50.69.06 55.66.0 8.77-4.88 1.12-5.98.19"/></g></g></g></g></svg>