<!DOCTYPE svg PUBLIC "-//W3C//DTD SVG 1.0//EN" "http://www.w3.org/TR/2001/REC-SVG-20010904/DTD/svg10.dtd" [
<!ATTLIST g
xmlns:kvg CDATA #FIXED "http://kanjivg.tagaini.net"
kvg:element CDATA #IMPLIED
kvg:variant CDATA #IMPLIED
kvg:partial CDATA #IMPLIED
kvg:original CDATA #IMPLIED
kvg:part CDATA #IMPLIED
kvg:number CDATA #IMPLIED
kvg:tradForm CDATA #IMPLIED
kvg:radicalForm CDATA #IMPLIED
kvg:position CDATA #IMPLIED
kvg:radical CDATA #IMPLIED
kvg:phon CDATA #IMPLIED >
<!ATTLIST path
xmlns:kvg CDATA #FIXED "http://kanjivg.tagaini.net"
kvg:type CDATA #IMPLIED >
]><svg xmlns="http://www.w3.org/2000/svg" width="109" height="109" viewBox="0 0 109 109"><g id="kvg:StrokePaths_075fe" style="fill:none;stroke:#000000;stroke-width:3;stroke-linecap:round;stroke-linejoin:round;"><g id="kvg:075fe" kvg:element="痾"><g id="kvg:075fe-g1" kvg:element="疒" kvg:position="tare" kvg:radical="general"><path id="kvg:075fe-s1" kvg:type="㇑a" d="M54.41 11.13c.7.34 2.18 2.55 2.32 3.23.14.68.07 3.64-.07 7.89"/><path id="kvg:075fe-s2" kvg:type="㇐" d="M24.13 23.73c1.52.54 4.3.63 5.82.54 15.8-.91 42.05-3.52 56.11-4.23 2.53-.13 4.05.26 5.31.53"/><path id="kvg:075fe-s3" kvg:type="㇒" d="M29.49 24.5c0 .84.0 1.68.0 2.5-.14 35.2-3.32 51.12-17.43 66.72"/><path id="kvg:075fe-s4" kvg:type="㇔" d="M11.25 35c3.62 2.16 9.34 8.89 10.25 12.25"/><path id="kvg:075fe-s5" kvg:type="㇀" d="M9.17 63.07c1.44.61 1.88.43 3.15-.31 5.11-3 9.06-5.42 12.93-8.01"/></g><g id="kvg:075fe-g2" kvg:element="阿" kvg:position="tarec"><g id="kvg:075fe-g3" kvg:element="⻖" kvg:variant="true" kvg:original="阜" kvg:position="left"><path id="kvg:075fe-s6" kvg:type="㇇" d="M34.75 36.25c1.5.5 3.25.22 4.5.06 4.5-.56 7.55-1.02 10.1-1.93 2.38-.85 4.36.85 3.31 2.84-1.06 1.99-6.86 12.71-8.71 15.54"/><path id="kvg:075fe-s7" kvg:type="㇁" d="M44.08 53.18c8.97 7.33 9.19 29.32 1.12 25.5"/><path id="kvg:075fe-s8" kvg:type="㇑" d="M37.12 36.8C37 38 37.5 38.71 37.67 39.57c.17.85.0 52.61-.17 57.93"/></g><g id="kvg:075fe-g4" kvg:element="可" kvg:position="right"><g id="kvg:075fe-g5" kvg:element="丁" kvg:part="1"><g id="kvg:075fe-g6" kvg:element="一"><path id="kvg:075fe-s9" kvg:type="㇐" d="M59.85 36.04c1.07.21 3.04.28 4.11.21 6.65-.48 19.87-1.82 28.29-2.38 1.77-.12 2.86.1 3.75.2"/></g></g><g id="kvg:075fe-g7" kvg:element="口"><path id="kvg:075fe-s10" kvg:type="㇑" d="M57.53 51.82c.33.31.68.58.82.97 1.16 3.12 2.55 13.72 3.34 19.32"/><path id="kvg:075fe-s11" kvg:type="㇕b" d="M59.21 53.51c5.79-1.01 11.6-2 15.51-2.41 1.43-.15 2.29.89 2.09 1.77-.85 3.64-1.84 9.32-3.1 14.36"/><path id="kvg:075fe-s12" kvg:type="㇐b" d="M61.85 69.15c4.6-.46 7.38-.76 13.69-1.47"/></g><g id="kvg:075fe-g8" kvg:element="丁" kvg:part="2"><g id="kvg:075fe-g9" kvg:element="亅"><path id="kvg:075fe-s13" kvg:type="㇚" d="M84.84 36.35c.07.41 1.33 2.12 1.39 4.7.32 12.39-.2 45.4-.2 49.62.0 12.33-7.03 1.2-8.22.14"/></g></g></g></g></g></g><g id="kvg:StrokeNumbers_075fe" style="font-size:8;fill:#808080"><text transform="matrix(1 0 0 1 46.50 11.85)">1</text><text transform="matrix(1 0 0 1 27.50 20.50)">2</text><text transform="matrix(1 0 0 1 21.50 33.50)">3</text><text transform="matrix(1 0 0 1 4.50 35.50)">4</text><text transform="matrix(1 0 0 1 1.50 65.50)">5</text><text transform="matrix(1 0 0 1 38.50 33.50)">6</text><text transform="matrix(1 0 0 1 40.75 62.18)">7</text><text transform="matrix(1 0 0 1 31.50 46.50)">8</text><text transform="matrix(1 0 0 1 60.75 33.50)">9</text><text transform="matrix(1 0 0 1 49.75 58.50)">10</text><text transform="matrix(1 0 0 1 61.50 49.50)">11</text><text transform="matrix(1 0 0 1 62.75 65.50)">12</text><text transform="matrix(1 0 0 1 74.50 44.50)">13</text></g></svg>