<svg xmlns="http://www.w3.org/2000/svg" width="109" height="109" viewBox="0 0 109 109"><g id="kvg:StrokePaths_07624" style="fill:none;stroke:#000000;stroke-width:3;stroke-linecap:round;stroke-linejoin:round;"><g id="kvg:07624" kvg:element="瘤"><g id="kvg:07624-g1" kvg:element="疒" kvg:position="tare" kvg:radical="general"><path id="kvg:07624-s1" kvg:type="㇑a" d="M55.41 10.63c.7.36 2.18 2.66 2.32 3.37.14.71.07 4.3-.07 8.74"/><path id="kvg:07624-s2" kvg:type="㇐" d="M26.63 24.23c1.52.54 4.3.63 5.82.54 15.8-.91 40.55-3.02 54.61-3.73 2.53-.13 4.05.26 5.31.53"/><path id="kvg:07624-s3" kvg:type="㇒" d="M29.99 25c0 1.19.0 2.36-.01 3.51-.16 34.54-2.88 49.05-14.93 65.96"/><path id="kvg:07624-s4" kvg:type="㇔" d="M13 37c3.18 2.07 8.21 8.53 9 11.75"/><path id="kvg:07624-s5" kvg:type="㇀" d="M10.67 67.57c1.34.61 2.76.43 3.94-.31 4.77-3 7.03-4.42 10.64-7.01"/></g><g id="kvg:07624-g2" kvg:element="留" kvg:position="tarec"><g id="kvg:07624-g3" kvg:element="卯" kvg:variant="true" kvg:position="top"><g id="kvg:07624-g4" kvg:position="left"><path id="kvg:07624-s6" kvg:type="㇒" d="M55.61 31.69c.03.23.12.68-.06.94-2.26 3.3-5.61 6.34-11.52 9"/><path id="kvg:07624-s7" kvg:type="㇙" d="M40.87 41c.55.32.88 1.43.99 2.07s.29 15.96.11 17.53c-.21 1.9 1.01 2.64 2.33 1.52 1.32-1.11 10.09-7.62 14.99-10.23"/><path id="kvg:07624-s8" kvg:type="㇔" d="M53.63 44.02c3.91 3.02 6.39 7.51 7.89 11.91"/></g><g id="kvg:07624-g5" kvg:element="卩" kvg:original="刀" kvg:position="right"><path id="kvg:07624-s9" kvg:type="㇆" d="M66.38 36.22c.96.33 2.66.29 3.5.18 6.83-.91 14.91-2.17 18.69-2.5 2.46-.22 3.08 1.88 2.94 3.41-.36 4.03-4.5 18.05-7.86 22.68-2.43 3.36-3.85 2.28-5.69.1"/><g id="kvg:07624-g6" kvg:element="丿"><path id="kvg:07624-s10" kvg:type="㇒" d="M76.69 38.42c.04.55.15 1.44-.1 2.2-2.64 8.32-5 14.28-16.01 22.43"/></g></g></g><g id="kvg:07624-g7" kvg:element="田" kvg:position="bottom"><path id="kvg:07624-s11" kvg:type="㇑" d="M42.86 71.58c.31.47.32.78.49 1.36 1.39 4.74 2.8 16.58 3.62 25.32"/><path id="kvg:07624-s12" kvg:type="㇕a" d="M43.95 72.68c12.55-1.18 31.6-3.14 39.85-3.61 3.03-.17 4.58.75 4.41 3.21-.32 4.68-2.29 15.28-4.1 23.58"/><path id="kvg:07624-s13" kvg:type="㇑a" d="M63.79 72.55c.61.43 1.11 1.32 1.11 2.46-.02 5.87.2 17.56.2 19.49"/><path id="kvg:07624-s14" kvg:type="㇐a" d="M46.46 83.72C50.06 83.49 82.97 81 85.95 81"/><path id="kvg:07624-s15" kvg:type="㇐a" d="M47.54 95.89c9.5-.61 25.68-1.8 36.66-1.92"/></g></g></g></g></svg>