<!DOCTYPE svg PUBLIC "-//W3C//DTD SVG 1.0//EN" "http://www.w3.org/TR/2001/REC-SVG-20010904/DTD/svg10.dtd" [
<!ATTLIST g
xmlns:kvg CDATA #FIXED "http://kanjivg.tagaini.net"
kvg:element CDATA #IMPLIED
kvg:variant CDATA #IMPLIED
kvg:partial CDATA #IMPLIED
kvg:original CDATA #IMPLIED
kvg:part CDATA #IMPLIED
kvg:number CDATA #IMPLIED
kvg:tradForm CDATA #IMPLIED
kvg:radicalForm CDATA #IMPLIED
kvg:position CDATA #IMPLIED
kvg:radical CDATA #IMPLIED
kvg:phon CDATA #IMPLIED >
<!ATTLIST path
xmlns:kvg CDATA #FIXED "http://kanjivg.tagaini.net"
kvg:type CDATA #IMPLIED >
]><svg xmlns="http://www.w3.org/2000/svg" width="109" height="109" viewBox="0 0 109 109"><g id="kvg:StrokePaths_07630" style="fill:none;stroke:#000000;stroke-width:3;stroke-linecap:round;stroke-linejoin:round;"><g id="kvg:07630" kvg:element="瘰"><g id="kvg:07630-g1" kvg:element="疒" kvg:position="tare" kvg:radical="general"><path id="kvg:07630-s1" kvg:type="㇑a" d="M57.41 10.13c.7.36 2.18 2.66 2.32 3.37.14.71.07 2.8-.07 7.24"/><path id="kvg:07630-s2" kvg:type="㇐" d="M29.13 21.73c1.52.54 4.3.63 5.82.54 15.8-.91 38.05-2.02 52.11-2.73 2.53-.13 4.05.26 5.31.53"/><path id="kvg:07630-s3" kvg:type="㇒" d="M32.49 22.5c0 28.5-3.72 48.8-16.69 66.47"/><path id="kvg:07630-s4" kvg:type="㇔" d="M13.25 32c3.62 1.9 9.34 7.8 10.25 10.75"/><path id="kvg:07630-s5" kvg:type="㇀" d="M11.67 62.57c1.44.61 1.88.43 3.15-.31 5.11-3 8.06-4.92 11.93-7.51"/></g><g id="kvg:07630-g2" kvg:element="累" kvg:position="tarec"><g id="kvg:07630-g3" kvg:element="田" kvg:position="top"><path id="kvg:07630-s6" kvg:type="㇑" d="M43.35 30.71c.24.29.59.84.72 1.2 1.06 3.01 2.12 11.26 2.78 16.87"/><path id="kvg:07630-s7" kvg:type="㇕a" d="M44.81 30.96c8.25-.76 27.91-2.18 36-2.18 1.94.0 3.22 2.06 3.1 2.89-.42 3.03-1.47 8.9-3.08 15.39"/><path id="kvg:07630-s8" kvg:type="㇑a" d="M61.63 30.63c.43.55 1.13 1.45 1.16 2.1.17 4.29.05 10.7.05 12.96"/><path id="kvg:07630-s9" kvg:type="㇐a" d="M46.2 38.89c2.69-.29 33.34-2.12 35.56-2.24"/><path id="kvg:07630-s10" kvg:type="㇐a" d="M46.94 47.31c5.94-.32 25.69-1.67 33.9-2.2"/></g><g id="kvg:07630-g4" kvg:element="糸" kvg:position="bottom"><path id="kvg:07630-s11" kvg:type="㇜" d="M58.82 46.91c.37.93.64 1.69-.18 2.63-1.95 2.22-6.34 5.76-8.68 8.15-.62.63-.74 2.16.0 2.32 2.53.55 7.53.86 9.46 2.06"/><path id="kvg:07630-s12" kvg:type="㇜" d="M73.95 49.46c.42.53.17 2.08-.42 2.64-9.04 8.62-17.56 13.08-30.99 22.72-1.46 1.05-.84 1.76.84 1.41 7.03-1.47 31.06-4.39 40.1-5.8"/><path id="kvg:07630-s13" kvg:type="㇔" d="M74.06 62.22c4.77 2.43 12.32 9.97 13.51 13.75"/><path id="kvg:07630-s14" kvg:type="㇑" d="M62.1 76.07c.06.16.87.83.93 1.85.3 4.89-.19 20.92-.19 22.58"/><path id="kvg:07630-s15" kvg:type="㇒" d="M49.14 82.88c.27.6.23 2.56-.27 2.99-3.23 2.79-11.3 8.18-15.88 10.57"/><path id="kvg:07630-s16" kvg:type="㇔" d="M75.51 82.92c4.67 2.77 12.67 10.17 14.33 12.94"/></g></g></g></g><g id="kvg:StrokeNumbers_07630" style="font-size:8;fill:#808080"><text transform="matrix(1 0 0 1 50.50 10.50)">1</text><text transform="matrix(1 0 0 1 30.50 18.50)">2</text><text transform="matrix(1 0 0 1 24.50 28.50)">3</text><text transform="matrix(1 0 0 1 5.50 32.50)">4</text><text transform="matrix(1 0 0 1 4.50 63.50)">5</text><text transform="matrix(1 0 0 1 37.75 38.75)">6</text><text transform="matrix(1 0 0 1 46.50 29.50)">7</text><text transform="matrix(1 0 0 1 67.50 35.60)">8</text><text transform="matrix(1 0 0 1 49.50 37.50)">9</text><text transform="matrix(1 0 0 1 48.50 45.50)">10</text><text transform="matrix(1 0 0 1 44.50 55.50)">11</text><text transform="matrix(1 0 0 1 62.50 53.30)">12</text><text transform="matrix(1 0 0 1 76.25 62.50)">13</text><text transform="matrix(1 0 0 1 53.25 82.50)">14</text><text transform="matrix(1 0 0 1 37.25 86.50)">15</text><text transform="matrix(1 0 0 1 74.50 81.00)">16</text></g></svg>