<svg xmlns="http://www.w3.org/2000/svg" width="109" height="109" viewBox="0 0 109 109"><g id="kvg:StrokePaths_07648" style="fill:none;stroke:#000000;stroke-width:3;stroke-linecap:round;stroke-linejoin:round;"><g id="kvg:07648" kvg:element="癈"><g id="kvg:07648-g1" kvg:element="疒" kvg:position="tare" kvg:radical="general"><path id="kvg:07648-s1" kvg:type="㇑a" d="M55.41 9.63c.7.36 1.82 1.87 1.82 3.87.0.72.07 3.3-.07 7.74"/><path id="kvg:07648-s2" kvg:type="㇐" d="M24.13 22.73c1.52.54 4.3.63 5.82.54 15.8-.91 40.55-3.02 54.61-3.73 2.53-.13 4.05.26 5.31.53"/><path id="kvg:07648-s3" kvg:type="㇒" d="M28.74 23.25c0 1.36.0 2.7-.01 4C28.51 62.3 23.75 84 14.81 94.47"/><path id="kvg:07648-s4" kvg:type="㇔" d="M11.75 34.5c2.74 1.63 7.07 6.71 7.75 9.25"/><path id="kvg:07648-s5" kvg:type="㇀" d="M9.67 61.77c1.39.7 1.82.5 3.04-.36 4.94-3.46 7.8-5.67 11.54-8.66"/></g><g id="kvg:07648-g2" kvg:element="發" kvg:position="tarec"><g id="kvg:07648-g3" kvg:element="癶" kvg:position="top"><g id="kvg:07648-g4" kvg:position="left"><path id="kvg:07648-s6" kvg:type="㇇" d="M39.03 32.08c1.01.5 1.4.41 3.04.17 4.27-.62 8.33-1.77 12.88-2.57 2.7-.48 3.62.62 2.38 3.16-5.09 10.4-13.09 20.04-25.83 27.63"/><path id="kvg:07648-s7" kvg:type="㇔" d="M36.09 41.12c2.94 1.11 7.59 4.58 8.33 6.32"/></g><g id="kvg:07648-g5" kvg:position="right"><path id="kvg:07648-s8" kvg:type="㇒" d="M75.69 28.89c.09.65-.12 1.19-.65 1.63-1.2 1.73-3.19 4.38-6.3 6.11"/><path id="kvg:07648-s9" kvg:type="㇏" d="M58.64 32.2c3.17 1.52 22.45 17.88 29.88 21.55 1.79.89 3.07 1.55 4.73 1.85"/><path id="kvg:07648-s10" kvg:type="㇒" d="M84.98 35.61c.08.59-.1 1.09-.55 1.52-1.17 1.69-3.33 3.81-7 5.98"/></g></g><g id="kvg:07648-g6" kvg:position="bottom"><g id="kvg:07648-g7" kvg:element="弓" kvg:position="left"><path id="kvg:07648-s11" kvg:type="㇕c" d="M44.19 52.81c.56.71 1.08.92 1.79.79s6.38-.63 7.81-1.02 1.82.94 1.39 1.99c-.27.66-1.63 4.18-2.27 6.72-.38 1.5-.18 2.33-.24 2.9"/><path id="kvg:07648-s12" kvg:type="㇐" d="M41.75 66.44c1.45.0 9.06-1.5 10.1-1.5s2.07-.38 2.9-.38"/><path id="kvg:07648-s13" kvg:type="㇉" d="M41.1 65.89c.43.52.36 1.95.08 2.78-.32.95-4.18 7.51-4.32 8.04s-.1 1.67 1.14 1.58c3.75-.29 11.4-1.87 13.68-2.27 2.28-.39 2.96.5 2.75 2.37-.68 5.86-4.52 14.05-8.07 18.15-2.1 2.42-4.36.41-5.01-.6"/></g><g id="kvg:07648-g8" kvg:element="殳" kvg:position="right"><g id="kvg:07648-g9" kvg:element="几" kvg:position="top"><g id="kvg:07648-g10" kvg:element="丿"><path id="kvg:07648-s14" kvg:type="㇒" d="M65 52.54c.31.83.42 1.49.4 2.09-.12 6.13-1.2 13.04-4.58 15.77"/></g><path id="kvg:07648-s15" kvg:type="㇈b" d="M65.78 53.91c.49.06 1.73-.11 3.23-.36 2.66-.45 6.13-1.16 7.7-1.37 1.43-.19 2.36 1.07 1.91 2-1.36 2.84-2.33 7.46-2.33 9.45.0 3.26 1.1 4.76 5.61 4.76 4.37.0 5.32-1.5 5.32-4.75"/></g><g id="kvg:07648-g11" kvg:element="又" kvg:position="bottom"><path id="kvg:07648-s16" kvg:type="㇇" d="M60.08 76c.84.2.94.49 2.62.2 1.68-.3 16.73-1.79 17.89-2.08 1.15-.3 2.09 1.15 1.57 2.17C76.85 86.85 67.5 93.33 57.42 98.24"/><path id="kvg:07648-s17" kvg:type="㇏" d="M63.79 79.32C67 81.75 78.75 92.14 87.32 97.01c1.33.76 2.3 1.26 3.54 1.52"/></g></g></g></g></g></g></svg>