<svg xmlns="http://www.w3.org/2000/svg" width="109" height="109" viewBox="0 0 109 109"><g id="kvg:StrokePaths_0766a"><g id="kvg:0766a" kvg:element="癪"><g id="kvg:0766a-g1" kvg:element="疒" kvg:position="tare" kvg:radical="general"><path id="kvg:0766a-s1" kvg:type="㇑a" d="M54.91 8.63c.7.36 2.18 2.66 2.32 3.37.14.71.07 4.8-.07 9.24"/><path id="kvg:0766a-s2" kvg:type="㇐" d="M26.13 22.73c1.52.54 4.3.63 5.82.54 15.8-.91 41.05-3.02 55.11-3.73 2.53-.13 4.05.26 5.31.53"/><path id="kvg:0766a-s3" kvg:type="㇒" d="M30.99 23.5c0 1.1.0 2.19-.01 3.25-.21 35.33-4.08 49.22-16.68 67.47"/><path id="kvg:0766a-s4" kvg:type="㇔" d="M12.75 35.5c3.62 1.98 9.34 8.16 10.25 11.25"/><path id="kvg:0766a-s5" kvg:type="㇀" d="M11.17 67c1.41.74 1.85.53 3.09-.37 5.03-3.65 7.93-5.97 11.73-9.12"/></g><g id="kvg:0766a-g2" kvg:element="積" kvg:position="tarec"><g id="kvg:0766a-g3" kvg:element="禾" kvg:position="left"><g id="kvg:0766a-g4" kvg:element="丿" kvg:position="top"><path id="kvg:0766a-s6" kvg:type="㇒" d="M54.35 29.81c.05.28.1.73-.1 1.14-1.17 2.4-7.91 6.71-17.13 9.93"/></g><g id="kvg:0766a-g5" kvg:element="木" kvg:position="bottom"><path id="kvg:0766a-s7" kvg:type="㇐" d="M35.12 52.88c.29.16 1.07.42 1.84.48 2.13.16 11.94-.9 17.27-1.7.77-.12.97-.16 1.45.0"/><path id="kvg:0766a-s8" kvg:type="㇑" d="M46.25 39.57c.29.32.85 1.44.91 2.08.06.64.0 52.41-.06 56.4"/><path id="kvg:0766a-s9" kvg:type="㇒" d="M46.93 54.36c-3.63 8.77-9.69 19.58-17.92 26.76"/><path id="kvg:0766a-s10" kvg:type="㇏" d="M49.07 58.91c3.48 2.57 6.43 7.7 8.31 11"/></g></g><g id="kvg:0766a-g6" kvg:element="責" kvg:position="right"><g id="kvg:0766a-g7" kvg:element="龶" kvg:position="top"><path id="kvg:0766a-s11" kvg:type="㇐" d="M62.23 33.13c.81.36 2.29.43 3.11.36 5.85-.51 18.4-1.6 23.44-2.15 1.34-.15 1.9-.08 2.62-.02"/><path id="kvg:0766a-s12" kvg:type="㇑a" d="M74.69 26.13c.45.17 1.5 1.62 1.5 1.96.0 4.31.22 16.3.25 20.8"/><path id="kvg:0766a-s13" kvg:type="㇐" d="M63.05 41.52c.74.24 2.08.29 2.82.24 5.3-.34 17.19-1.66 21.76-2.02 1.22-.1 2.12-.05 2.77-.01"/><path id="kvg:0766a-s14" kvg:type="㇐" d="M60.26 50.22c1.16.24 3.3.36 4.46.24 10.8-1.09 19.73-2.49 29.07-2.69 1.93-.04 3.39-.2 4.78.39"/></g><g id="kvg:0766a-g8" kvg:element="貝" kvg:position="bottom"><g id="kvg:0766a-g9" kvg:element="目" kvg:position="top"><path id="kvg:0766a-s15" kvg:type="㇑" d="M65.3 57.35c.41.57 1.01 1 1.01 1.76s-.14 24.3.0 25.07"/><path id="kvg:0766a-s16" kvg:type="㇕a" d="M66.99 57.97c2.32-.09 19.56-2.09 21.68-2.2 1.76-.09 2.99.2 3 2.01.01 2.43-.82 25.29-.82 25.86"/><path id="kvg:0766a-s17" kvg:type="㇐a" d="M66.95 65.26c3.31.0 19.22-1.55 22.94-1.55"/><path id="kvg:0766a-s18" kvg:type="㇐a" d="M67.14 73.67c7.36-.42 18.02-2.14 23.98-2.14"/><path id="kvg:0766a-s19" kvg:type="㇐a" d="M67.23 81.78c4.61.0 17.52-2.15 23.48-2.15"/></g><g id="kvg:0766a-g10" kvg:element="八" kvg:position="bottom"><path id="kvg:0766a-s20" kvg:type="㇒" d="M71.74 86.29c.42 1.02.34 1.8-.5 2.54-2.55 2.25-8.91 7.27-14 9.92"/><path id="kvg:0766a-s21" kvg:type="㇔" d="M82.48 86.8c5.62 3.13 12.26 8.8 13.79 11.53"/></g></g></g></g></g></g></svg>