<svg xmlns="http://www.w3.org/2000/svg" width="109" height="109" viewBox="0 0 109 109"><g id="kvg:StrokePaths_07667"><g id="kvg:07667" kvg:element="癧"><g id="kvg:07667-g1" kvg:element="疒" kvg:position="tare" kvg:radical="general"><path id="kvg:07667-s1" kvg:type="㇑a" d="M54.41 11.13c.7.36 2.18 2.66 2.32 3.37.14.71.07 4.3-.07 8.74"/><path id="kvg:07667-s2" kvg:type="㇐" d="M26.13 24.73c1.52.54 4.3.63 5.82.54 15.8-.91 39.05-3.02 53.11-3.73 2.53-.13 4.05.26 5.31.53"/><path id="kvg:07667-s3" kvg:type="㇒" d="M29.99 25.5c0 36.55-2.24 53.25-13.19 68.47"/><path id="kvg:07667-s4" kvg:type="㇔" d="M13 36.25c3.35 2.03 8.66 8.34 9.5 11.5"/><path id="kvg:07667-s5" kvg:type="㇀" d="M11.17 67c1.36.74 1.79.53 2.99-.37 4.86-3.65 7.66-5.97 11.34-9.12"/></g><g id="kvg:07667-g2" kvg:element="歴" kvg:variant="true" kvg:position="tarec"><g id="kvg:07667-g3" kvg:element="厂" kvg:position="tare"><path id="kvg:07667-s6" kvg:type="㇐" d="M38.8 33.45c1.16.45 3.3.5 4.46.45 13.49-.52 25.86-3.18 41.04-3.36 1.94-.02 3.1.22 4.07.44"/><path id="kvg:07667-s7" kvg:type="㇒" d="M41.53 34.02c.04 1.44-.08 3.71-.08 5.78.0 27.38-2.98 43.86-13.39 54.88"/></g><g id="kvg:07667-g4" kvg:element="林" kvg:variant="true"><g id="kvg:07667-g5" kvg:element="禾" kvg:position="left"><g id="kvg:07667-g6" kvg:element="丿" kvg:position="top"><path id="kvg:07667-s8" kvg:type="㇒" d="M61.75 37.14c.04.15.08.4-.07.62-.89 1.31-5.98 4.18-12.94 5.94"/></g><g id="kvg:07667-g7" kvg:element="木" kvg:position="bottom"><path id="kvg:07667-s9" kvg:type="㇐" d="M45.31 50.22c.23.1 1.14.35 1.75.29 2.74-.29 11.55-1.22 16.19-1.48.61-.03 1.37.11 1.75.21"/><path id="kvg:07667-s10" kvg:type="㇑" d="M55.91 43.4c.27.19.43.86.49 1.25.05.38.0 18.75-.05 21.14"/><path id="kvg:07667-s11" kvg:type="㇒" d="M56.12 49.64C54 54.75 50.65 59.89 45.6 62.77"/><path id="kvg:07667-s12" kvg:type="㇏" d="M58.01 52.51c2.75 1.14 5.91 3.29 7.17 5.83"/></g></g><g id="kvg:07667-g8" kvg:element="禾" kvg:position="right"><g id="kvg:07667-g9" kvg:element="丿" kvg:position="top"><path id="kvg:07667-s13" kvg:type="㇒" d="M84.54 35.27c.03.15.07.4-.06.62-.79 1.3-5.35 4.16-11.58 5.91"/></g><g id="kvg:07667-g10" kvg:element="木" kvg:position="bottom"><path id="kvg:07667-s14" kvg:type="㇐" d="M69.18 47.78c.23.08 1.17.28 1.8.23 2.81-.23 14.93-1.33 19.69-1.54.62-.03 1.41.09 1.8.17"/><path id="kvg:07667-s15" kvg:type="㇑" d="M79.6 42.27c.25.15.41.69.46 1s0 20.28-.05 22.21"/><path id="kvg:07667-s16" kvg:type="㇒" d="M79.82 48.08c-2.65 4.55-8.39 10.57-13.07 13.87"/><path id="kvg:07667-s17" kvg:type="㇏" d="M80.39 49.3c1.93 1.78 10.73 10.19 12.83 11.93.71.59 1.32.85 2.03 1.02"/></g></g></g><g id="kvg:07667-g11" kvg:element="止"><g id="kvg:07667-g12" kvg:element="卜" kvg:original="ト"><path id="kvg:07667-s18" kvg:type="㇑a" d="M66.86 68.46c.8.39 1.28 1.75 1.44 2.52.16.78.43 16.12.27 20.97"/><path id="kvg:07667-s19" kvg:type="㇐b" d="M68.67 77.66c6.12-.39 12.43-1.3 18.87-1.57 1.5-.06 1.87-.13 2.81.0"/></g><path id="kvg:07667-s20" kvg:type="㇑a" d="M51.96 72.96c.76.37 1.22 1.67 1.37 2.41s.32 12.93.17 17.57"/><path id="kvg:07667-s21" kvg:type="㇐" d="M37.41 93.33c.75.24 2.75.78 4.75.72 10.98-.28 32.19-3.04 48.06-3.07 2 0 5.48.48 6.62.72"/></g></g></g></g></svg>