<svg xmlns="http://www.w3.org/2000/svg" width="109" height="109" viewBox="0 0 109 109"><g id="kvg:StrokePaths_0766c" style="fill:none;stroke:#000000;stroke-width:3;stroke-linecap:round;stroke-linejoin:round;"><g id="kvg:0766c" kvg:element="癬"><g id="kvg:0766c-g1" kvg:element="疒" kvg:position="tare" kvg:radical="general"><path id="kvg:0766c-s1" kvg:type="㇑a" d="M56.41 9.63c.7.36 2.18 2.66 2.32 3.37.14.71.07 4.3-.07 8.74"/><path id="kvg:0766c-s2" kvg:type="㇐" d="M26.13 23.23c1.52.54 4.3.63 5.82.54 15.8-.91 41.05-3.02 55.11-3.73 2.53-.13 4.05.26 5.31.53"/><path id="kvg:0766c-s3" kvg:type="㇒" d="M30.49 24c0 1.19.0 2.35.0 3.5-.1 35-1.95 50.53-16.18 66.72"/><path id="kvg:0766c-s4" kvg:type="㇔" d="M12.75 37.5c3.44 1.72 8.89 7.07 9.75 9.75"/><path id="kvg:0766c-s5" kvg:type="㇀" d="M11.92 67.05c1.27.65 1.66.46 2.78-.33 4.52-3.19 7.13-5.22 10.55-7.97"/></g><g id="kvg:0766c-g2" kvg:element="鮮" kvg:position="tarec"><g id="kvg:0766c-g3" kvg:element="魚" kvg:position="left"><g id="kvg:0766c-g4" kvg:element="𠂊" kvg:variant="true" kvg:original="勹" kvg:position="top"><path id="kvg:0766c-s6" kvg:type="㇒" d="M48.97 29c.04.37.08.95-.07 1.47-.87 3.1-5.84 9.91-12.66 14.07"/><path id="kvg:0766c-s7" kvg:type="㇇" d="M45.94 36.95c1.4.0 10.47-2.4 11.94-2.58 1.26-.15 1.55 1.35 1.02 2.12-2.22 3.24-5.08 6.71-8.7 11.85"/></g><g id="kvg:0766c-g5" kvg:position="bottom"><g id="kvg:0766c-g6" kvg:element="田"><path id="kvg:0766c-s8" kvg:type="㇑" d="M36.04 48.3c.96.95 1.55 2 1.78 3.35.82 4.71 1.68 13.96 2.19 22.64"/><path id="kvg:0766c-s9" kvg:type="㇕a" d="M37.89 49.49c6.32-.53 17.55-2.36 22.27-2.86 1.73-.19 2.62 1.17 2.53 2.44-.33 4.63-2.2 15.05-3.52 23.95"/><path id="kvg:0766c-s10" kvg:type="㇑a" d="M48.38 48.35c.72.65 1.26 2.59 1.29 4.08.1 6.6.02 15.43.02 18.7"/><path id="kvg:0766c-s11" kvg:type="㇐a" d="M39.07 60.6c2.06-.25 20.54-1.74 22.24-1.75"/><path id="kvg:0766c-s12" kvg:type="㇐a" d="M40.34 72.1c4.55-.04 12.04-1.16 18.33-1.33"/></g><g id="kvg:0766c-g7" kvg:element="灬" kvg:variant="true" kvg:original="火"><path id="kvg:0766c-s13" kvg:type="㇔" d="M34.15 81.22c0 4.92-5.13 12.17-6.46 13.58"/><path id="kvg:0766c-s14" kvg:type="㇔" d="M41.07 80.3c1.28 2.55 2.5 9.56 2.83 13.53"/><path id="kvg:0766c-s15" kvg:type="㇔" d="M49.95 78.97c1.54 2.22 3.97 9.13 4.36 12.58"/><path id="kvg:0766c-s16" kvg:type="㇔" d="M59.79 78.89c1.96 1.73 5.07 7.11 5.55 9.8"/></g></g></g><g id="kvg:0766c-g8" kvg:element="羊" kvg:position="right"><g id="kvg:0766c-g9" kvg:element="䒑"><path id="kvg:0766c-s17" kvg:type="㇔" d="M66.8 28.69c2.47 1.89 6.39 7.77 7.01 10.72"/><path id="kvg:0766c-s18" kvg:type="㇒" d="M88.33 27.67c.02.32.04.83-.03 1.3-.41 2.73-2.76 8.73-5.98 12.4"/><path id="kvg:0766c-s19" kvg:type="㇐" d="M66.17 45.2c.8.55 2.25.6 3.05.55 5.64-.39 15.52-2.41 22.69-2.21 1.33.04 2.12.26 2.79.53"/></g><path id="kvg:0766c-s20" kvg:type="㇐" d="M68.03 61.13c.57.45 1.62.52 2.2.45C75 61 85.25 59 90.85 58.67c.95-.06 1.53.21 2.01.44"/><path id="kvg:0766c-s21" kvg:type="㇐" d="M65.66 75.55c.85.59 2.41.66 3.27.59 7.82-.64 16.26-2.37 25.91-2.08 1.42.04 2.27.28 2.99.57"/><path id="kvg:0766c-s22" kvg:type="㇑" d="M79.55 46.17c.5.39.8 1.74.91 2.52.1.77.0 45.48-.1 50.31"/></g></g></g></g></svg>