<svg xmlns="http://www.w3.org/2000/svg" width="109" height="109" viewBox="0 0 109 109"><g id="kvg:StrokePaths_07678" style="fill:none;stroke:#000000;stroke-width:3;stroke-linecap:round;stroke-linejoin:round;"><g id="kvg:07678" kvg:element="癸"><g id="kvg:07678-g1" kvg:element="癶" kvg:position="top" kvg:radical="general"><g id="kvg:07678-g2" kvg:position="left"><path id="kvg:07678-s1" kvg:type="㇇" d="M28 18.29c1.5.65 2.07.53 4.5.22 6.31-.81 6.25-1.02 12.99-2.06 3.99-.61 4.79.56 3.51 4.08-3 8.26-18.25 31.22-38 38.72"/><path id="kvg:07678-s2" kvg:type="㇔" d="M20.77 31.39c3.46 1.34 8.93 5.5 9.79 7.58"/></g><g id="kvg:07678-g3" kvg:position="right"><path id="kvg:07678-s3" kvg:type="㇒" d="M69.78 12.89c.02.28.05.72-.05 1.13-.59 2.37-4 7.58-8.67 10.77"/><path id="kvg:07678-s4" kvg:type="㇏" d="M50.75 20.04C54 22.25 83.98 50.51 90.47 55.8c2.2 1.8 4.08 2.57 6.28 3.08"/><path id="kvg:07678-s5" kvg:type="㇒" d="M80.77 24.04c.03.26.06.68-.06 1.06-.73 2.24-4.92 7.17-10.66 10.18"/></g></g><g id="kvg:07678-g4" kvg:element="天" kvg:position="bottom"><path id="kvg:07678-s6" kvg:type="㇐" d="M33.13 50.07c.75.29 2.13.32 2.88.29 8.24-.36 21.44-1.83 30.24-2.12 1.25-.04 2 .14 2.63.28"/><g id="kvg:07678-g5" kvg:element="大"><path id="kvg:07678-s7" kvg:type="㇐" d="M18.81 69.03c.97.24 4.57.37 5.63.34 9.76-.26 41.22-3.33 51.77-3.54 1.34-.03 3.77.04 6.24.51"/><path id="kvg:07678-s8" kvg:type="㇒" d="M49.92 51.13c.62.7 1.21 2.39 1.19 3.74-.24 23.37-12 35.7-31.36 42.88"/><path id="kvg:07678-s9" kvg:type="㇏" d="M50.1 67.89c7.99 6.64 25.29 22.28 33.26 26.73 2.71 1.51 3.66 1.74 4.89 1.88"/></g></g></g></g></svg>