<svg xmlns="http://www.w3.org/2000/svg" width="109" height="109" viewBox="0 0 109 109"><g id="kvg:StrokePaths_07670"><g id="kvg:07670" kvg:element="癰"><g id="kvg:07670-g1" kvg:element="疒" kvg:position="tare" kvg:radical="general"><path id="kvg:07670-s1" kvg:type="㇑a" d="M54.41 11.13c.7.36 2.18 2.66 2.32 3.37.14.71.07 3.3-.07 7.74"/><path id="kvg:07670-s2" kvg:type="㇐" d="M26.63 23.73c1.52.54 4.3.63 5.82.54 15.8-.91 39.55-2.52 53.61-3.23 2.53-.13 4.05.26 5.31.53"/><path id="kvg:07670-s3" kvg:type="㇒" d="M30.99 24.5c0 36.82-3.16 50.64-14.19 68.97"/><path id="kvg:07670-s4" kvg:type="㇔" d="M13 36.5c3.88 2.07 10.03 8.53 11 11.75"/><path id="kvg:07670-s5" kvg:type="㇀" d="M11.67 66.52c1.34.7 1.76.5 2.94-.36 4.77-3.46 7.53-5.67 11.14-8.66"/></g><g id="kvg:07670-g2" kvg:element="雝" kvg:position="tarec"><g id="kvg:07670-g3" kvg:position="left"><g id="kvg:07670-g4" kvg:element="巛" kvg:position="top"><path id="kvg:07670-s6" kvg:type="㇛" d="M41.92 30.23c.38.2.54.91.27 1.32-1.43 2.15-3.15 6.72-5.59 9.47-.47.53-.19.48.0.69 2.35 2.58 5.67 4.05 6.66 7.54"/><path id="kvg:07670-s7" kvg:type="㇛" d="M50.73 30.12c.38.2.5.91.27 1.32-1.25 2.21-2.23 5.34-4.58 7.92-.26.28-.13.57.09.74 2.48 1.91 4.21 3.54 5.65 7.43"/><path id="kvg:07670-s8" kvg:type="㇛" d="M61.14 28.84c.38.2.49.9.27 1.32-1.25 2.38-3.28 5.84-5.63 8.42-.26.28-.11.54.09.74 2.35 2.4 4.7 3.81 6.15 7.7"/></g><g id="kvg:07670-g5" kvg:element="邑" kvg:position="bottom"><g id="kvg:07670-g6" kvg:element="口" kvg:position="top"><path id="kvg:07670-s9" kvg:type="㇑" d="M38.72 53.46c.17.18.34.33.41.56.58 1.8 1.27 6.27 1.66 9.5"/><path id="kvg:07670-s10" kvg:type="㇕b" d="M39.76 54.42c3.8-.76 13.86-1.95 15.8-2.19.71-.09 1.64.51 1.54 1.02-.42 2.1-1.41 4.91-2.04 7.82"/><path id="kvg:07670-s11" kvg:type="㇐b" d="M40.87 62.47c2.29-.27 11.95-.73 15.09-1.14"/></g><g id="kvg:07670-g7" kvg:element="巴" kvg:position="bottom"><g id="kvg:07670-g8" kvg:element="己" kvg:original="巳"><path id="kvg:07670-s12" kvg:type="㇕c" d="M35.9 69.1c6.97-1.2 18.55-1.99 22.85-2.42 1.57-.16 1.94 1.44 1.84 2.4-.36 3.67-1.37 6.27-2.07 8.97"/><path id="kvg:07670-s13" kvg:type="㇑a" d="M47.19 67.72c.34.24.68 1.8.68 2.29.0 3.05-.11 6.86-.11 8.71"/><path id="kvg:07670-s14" kvg:type="㇐c" d="M36.48 79.93c2.34-.27 20.65-1.35 23.32-1.62"/><path id="kvg:07670-s15" kvg:type="㇟" d="M35.2 67.11c.37.73.67 1.59.69 2.71.1 5.01-.19 10.77-.19 14.16C35.7 91.75 36.25 94 47.5 94c11.96.0 13.25-1.75 13.25-6.72"/></g></g></g></g><g id="kvg:07670-g9" kvg:element="隹" kvg:position="right"><g id="kvg:07670-g10" kvg:element="亻" kvg:variant="true" kvg:original="人"><path id="kvg:07670-s16" kvg:type="㇒" d="M72.91 29.5c.11 1.32-.03 3.05-.37 4.18-2.19 7.21-4.96 13.32-9.97 22.1"/><path id="kvg:07670-s17" kvg:type="㇑" d="M68 46.83c.4.77.71 2.45.74 3.64.24 10.58-.33 40.02-.13 45.53"/></g><path id="kvg:07670-s18" kvg:type="㇒" d="M85.03 28.5c.05.78-.02 1.8-.17 2.47-.98 4.26-2.21 7.55-4.44 12.74"/><path id="kvg:07670-s19" kvg:type="㇐b" d="M68.62 46.06c7.38-.56 22-1.4 24.01-1.94"/><path id="kvg:07670-s20" kvg:type="㇑a" d="M81.37 46.69c.23.39.41.93.41 1.6.0 6.86.03 31.43-.11 42.24"/><path id="kvg:07670-s21" kvg:type="㇐b" d="M69.75 60.58c4.42-.83 19.85-1.73 21.75-2.18"/><path id="kvg:07670-s22" kvg:type="㇐b" d="M69.22 75.02c4.66-.7 20.42-2.11 22.42-2.49"/><path id="kvg:07670-s23" kvg:type="㇐b" d="M68.71 91.82c5.37-.32 24.79-1.4 26.79-1.95"/></g></g></g></g></svg>