<svg xmlns="http://www.w3.org/2000/svg" width="109" height="109" viewBox="0 0 109 109"><g id="kvg:StrokePaths_07686" style="fill:none;stroke:#000000;stroke-width:3;stroke-linecap:round;stroke-linejoin:round;"><g id="kvg:07686" kvg:element="皆"><g id="kvg:07686-g1" kvg:element="比" kvg:position="top" kvg:radical="nelson"><g id="kvg:07686-g2" kvg:position="left"><path id="kvg:07686-s1" kvg:type="㇐b" d="M27.5 31c5.62-.75 9.25-1.5 18-3 1.48-.25 3-.25 4 0"/><path id="kvg:07686-s2" kvg:type="㇙" d="M25 14.89c.87.87 1.26 2.11 1.26 3.8.0 6.81-.01 27.43-.01 31.81.0 3.14.75 3.62 3.75 1.68 6.31-4.09 8.83-5.85 13.25-8.43"/></g><g id="kvg:07686-g3" kvg:element="匕" kvg:position="right"><path id="kvg:07686-s3" kvg:type="㇒" d="M87.07 18.9c.18 1.35-.24 2.19-1.28 3C80.5 26 75.5 29.25 66.03 32.93"/><path id="kvg:07686-s4" kvg:type="㇟" d="M61.25 12.25c1.06 1.06 1.59 2.38 1.59 4.14.0 7.11.01 21.82.01 24.23.0 8.38 1.15 9.71 14.93 9.71 14.47.0 15.76-1.58 15.76-8.32"/></g></g><g id="kvg:07686-g4" kvg:element="白" kvg:position="bottom" kvg:radical="tradit"><g id="kvg:07686-g5" kvg:position="top"><path id="kvg:07686-s5" kvg:type="㇔" d="M52.72 49.5c.28.88.16 1.88-.59 3.09C49.7 56.54 48.88 58 45.5 62"/></g><g id="kvg:07686-g6" kvg:element="日" kvg:position="bottom"><path id="kvg:07686-s6" kvg:type="㇑" d="M34.51 63.47c1.01 1.01 1.22 2.26 1.28 3.9.17 4.5.74 17.84 1.14 25.36.1 1.82.17 3.32.22 4.27"/><path id="kvg:07686-s7" kvg:type="㇕a" d="M36.11 64.73c5.52-.48 33.1-2.81 36.26-2.98C75 61.61 76.5 63 76.5 65.54c0 1.5-2 15.47-3.65 25.69-.28 1.72-.53 3.32-.72 4.71"/><path id="kvg:07686-s8" kvg:type="㇐a" d="M37.22 78.82c7.41-.45 31.48-1.91 36.79-1.91"/><path id="kvg:07686-s9" kvg:type="㇐a" d="M38.16 95.19c8.59-.44 22.46-1.56 33.12-1.88"/></g></g></g></g></svg>