<svg xmlns="http://www.w3.org/2000/svg" width="109" height="109" viewBox="0 0 109 109"><g id="kvg:StrokePaths_07683"><g id="kvg:07683" kvg:element="皃"><g id="kvg:07683-g1" kvg:element="白" kvg:position="top" kvg:radical="general"><g id="kvg:07683-g2" kvg:position="top"><path id="kvg:07683-s1" kvg:type="㇔" d="M50.72 9.5c.54.57.24 2.3.0 2.77-1.78 3.48-6.84 9-12.82 12.96"/></g><g id="kvg:07683-g3" kvg:element="日" kvg:position="bottom"><path id="kvg:07683-s2" kvg:type="㇑" d="M25.5 25.66c.84.77 1.55 2.17 1.69 3.19.56 3.89 3.06 24.31 3.4 29.39"/><path id="kvg:07683-s3" kvg:type="㇕a" d="M27.7 27.49c4.77-.13 45.33-3.5 49.67-3.72 2.76-.14 4.21.88 3.88 2.48-.74 3.51-3.99 22.01-5.87 30.21"/><path id="kvg:07683-s4" kvg:type="㇐a" d="M29.14 41.76c10-.39 41.57-2.92 48.87-2.92"/><path id="kvg:07683-s5" kvg:type="㇐a" d="M31.1 55.77c11.97-.42 32.18-2.41 44.95-2.6"/></g></g><g id="kvg:07683-g4" kvg:element="儿" kvg:position="bottom"><g id="kvg:07683-g5" kvg:element="八" kvg:variant="true"><g id="kvg:07683-g6" kvg:element="丿" kvg:position="left"><path id="kvg:07683-s6" kvg:type="㇒" d="M42.5 59.5c.07.9.15 2.34-.14 3.63-1.68 7.66-10.5 25.94-24.44 34.78"/></g><g id="kvg:07683-g7" kvg:position="right"><path id="kvg:07683-s7" kvg:type="㇟" d="M56.99 57.87c.71 1.22 1.27 2.66 1.31 4.54.19 8.4.0 18.07.0 23.78.0 13.34 8.49 11.83 16.84 11.83 8.81.0 14.62-1.72 15.86-2.69 2.62-2.05 1.91-3.08 2.14-6.67"/></g></g></g></g></g></svg>