<svg xmlns="http://www.w3.org/2000/svg" width="109" height="109" viewBox="0 0 109 109"><g id="kvg:StrokePaths_076b9"><g id="kvg:076b9" kvg:element="皹"><g id="kvg:076b9-g1" kvg:element="皮" kvg:position="left" kvg:radical="general"><path id="kvg:076b9-s1" kvg:type="㇒" d="M16.27 29.7c.38 1.14 1.16 1.75 1.08 4.11-.78 24.56.15 40.94-9.8 57.53"/><path id="kvg:076b9-s2" kvg:type="㇖b" d="M17.7 32.04c9.55-1.29 14.05-1.79 24.33-2.89 9.03-.97 4.72 3.85.26 8.17"/><path id="kvg:076b9-s3" kvg:type="㇑a" d="M28.8 15.25c.94.52 1.5 2.34 1.68 3.38.19 1.04-.07 20.8-.07 31.46"/><path id="kvg:076b9-s4" kvg:type="㇇" d="M20.28 51.19c1.12.36 2.21.54 4.51.37 4.21-.31 16.23-1.89 17.77-2.42 1.54-.54 2.94 1.62 2.12 3.43C37 69.75 31 81.5 17.27 92.51"/><path id="kvg:076b9-s5" kvg:type="㇏" d="M23.44 61.73c8.31 5.52 16.56 14.52 21.62 25.5"/></g><g id="kvg:076b9-g2" kvg:element="軍" kvg:position="right"><g id="kvg:076b9-g3" kvg:element="冖" kvg:position="top"><path id="kvg:076b9-s6" kvg:type="㇔" d="M57.15 16.46c-.09 3.78-2.23 13.68-3 15.94"/><path id="kvg:076b9-s7" kvg:type="㇖b" d="M57.14 19.98c5.21-.69 26.67-2.2 36.98-2.75 7.84-.42.22 6.39-.75 7.56"/></g><g id="kvg:076b9-g4" kvg:element="車" kvg:position="bottom"><path id="kvg:076b9-s8" kvg:type="㇐" d="M60.09 35.89c.78.37 2.2.45 2.98.37 7.5-.81 17.79-2.27 26.55-2.74 1.29-.07 2.07.17 2.72.36"/><path id="kvg:076b9-s9" kvg:type="㇑" d="M58.34 45.35c.54.47 1.22 1.82 1.32 2.44.8 4.93 2.16 13.44 3.12 21.42"/><path id="kvg:076b9-s10" kvg:type="㇕a" d="M60.41 46.02c8.16-.9 26.06-3.07 31.63-3.21 2.3-.06 2.78 1.22 2.68 2.62-.34 4.81-2.09 13.2-3.92 21.08"/><path id="kvg:076b9-s11" kvg:type="㇐a" d="M62.33 56.17c6.15-.23 19-2.48 30.58-2.48"/><path id="kvg:076b9-s12" kvg:type="㇐a" d="M62.33 66.3c7.15-.93 19.61-1.71 28.92-1.71"/><path id="kvg:076b9-s13" kvg:type="㇐" d="M53.68 77.14c1.19.64 3.36.74 4.56.64 20.11-1.66 17.76-2.12 37.67-2.87 1.98-.07 3.18.31 4.17.63"/><path id="kvg:076b9-s14" kvg:type="㇑" d="M73.42 24.05c.5.57 2.15 1.7 2.15 4.45.0 1.15-.06 61.46-.17 68.64"/></g></g></g></g></svg>