<svg xmlns="http://www.w3.org/2000/svg" width="109" height="109" viewBox="0 0 109 109"><g id="kvg:StrokePaths_076c3"><g id="kvg:076c3" kvg:element="盃"><g id="kvg:076c3-g1" kvg:element="不" kvg:position="top"><g id="kvg:076c3-g2" kvg:element="一" kvg:radical="nelson"><path id="kvg:076c3-s1" kvg:type="㇐" d="M21.31 18.7c1.44.51 4.08.63 5.51.51 10.76-.89 42.02-3.46 57.82-4.4 2.39-.14 3.83.25 5.03.5"/></g><g id="kvg:076c3-g3" kvg:element="丿"><path id="kvg:076c3-s2" kvg:type="㇒" d="M57.46 19.05c.12.76.01 2.11-.74 3.04C51.75 28.25 36 40.75 14.02 51.23"/></g><g id="kvg:076c3-g4" kvg:element="丨"><path id="kvg:076c3-s3" kvg:type="㇑" d="M52.79 30.03c.98.45 1.56 2.02 1.76 2.92.2.9.0 22-.2 27.61"/></g><path id="kvg:076c3-s4" kvg:type="㇔" d="M64.97 31.76c9.22 3.4 20.58 11.64 26.13 19.29"/></g><g id="kvg:076c3-g5" kvg:element="皿" kvg:position="bottom" kvg:radical="tradit"><path id="kvg:076c3-s5" kvg:type="㇑a" d="M26.84 69.6c.67.6 1.54 1.75 1.69 2.27 1.13 4.08 1.55 8.86 2.32 21.63"/><path id="kvg:076c3-s6" kvg:type="㇕b" d="M29.07 71.38c12.08-.84 46.78-3.98 52.07-4.37 1.93-.14 2.6 1.84 2.32 2.68-1.14 3.47-2.46 13.8-4.24 21.74"/><path id="kvg:076c3-s7" kvg:type="㇑a" d="M44.86 71.62c.28.39.57.71.69 1.2.95 5.44.95 12.44 1.85 20.59"/><path id="kvg:076c3-s8" kvg:type="㇑a" d="M62.65 69.87c.29.46.56 1.26.48 1.86-.84 5.95-1.38 13.03-2.39 20.92"/><path id="kvg:076c3-s9" kvg:type="㇐" d="M14.88 94.98c1.52.54 4.3.63 5.82.54 15.8-.91 41.03-3.08 70.11-3.23 2.53-.01 4.05.26 5.31.53"/></g></g></g></svg>