<svg xmlns="http://www.w3.org/2000/svg" width="109" height="109" viewBox="0 0 109 109"><g id="kvg:StrokePaths_076c6" style="fill:none;stroke:#000000;stroke-width:3;stroke-linecap:round;stroke-linejoin:round;"><g id="kvg:076c6" kvg:element="盆"><g id="kvg:076c6-g1" kvg:element="分" kvg:position="top" kvg:phon="分"><g id="kvg:076c6-g2" kvg:element="八" kvg:position="top" kvg:radical="nelson"><path id="kvg:076c6-s1" kvg:type="㇒" d="M42.67 15c0 1.12-.23 1.81-.93 2.75C35.25 26.5 27.38 34.25 14 42"/><path id="kvg:076c6-s2" kvg:type="㇏" d="M56.69 10.25c5.93.0 17.68 15.38 26.75 22.43 2.95 2.3 4.44 3.2 6.81 4.32"/></g><g id="kvg:076c6-g3" kvg:element="刀" kvg:position="bottom"><path id="kvg:076c6-s3" kvg:type="㇆" d="M36.76 35.4c1.83.57 3.52.82 5.4.57 8.42-1.12 20.76-2.92 24.9-3.25 3.26-.27 4.63 1 3.91 4.18-1.17 5.21-5.28 14.59-8.61 19.46-4.09 5.98-5.99 2.03-7.07.13"/><path id="kvg:076c6-s4" kvg:type="㇒" d="M48.89 38.93c.11.99.05 1.89-.46 2.77C44 49.38 39 55.12 29.73 61"/></g></g><g id="kvg:076c6-g4" kvg:element="皿" kvg:position="bottom" kvg:radical="tradit"><path id="kvg:076c6-s5" kvg:type="㇑a" d="M24.06 69.04c1.14 1.13 1.63 2.32 1.78 3.27 1.19 7.5 2.37 12.76 3.48 20.35"/><path id="kvg:076c6-s6" kvg:type="㇕b" d="M26.15 70.89c12.6-2.02 39.95-4.63 49.98-5.25 4.11-.25 6.55.91 5.68 5.36-1.05 5.41-2.43 11.99-3.87 18.47"/><path id="kvg:076c6-s7" kvg:type="㇑a" d="M42.19 71.5c.9.9 1.34 1.81 1.47 2.7 1.21 7.92 1.58 10.92 2.53 17.33"/><path id="kvg:076c6-s8" kvg:type="㇑a" d="M62.74 69.95c.63 1.18.61 2.57.47 3.67C62.4 80 61.62 84.5 60.79 90.67"/><path id="kvg:076c6-s9" kvg:type="㇐" d="M13.38 93.54c2.8 1 5.88 1 8.76.81 15.21-.96 40.65-2.97 64.61-3.8 3.22-.11 6.26.49 9.38 1.16"/></g></g></g></svg>