<svg xmlns="http://www.w3.org/2000/svg" width="109" height="109" viewBox="0 0 109 109"><g id="kvg:StrokePaths_076ee"><g id="kvg:076ee" kvg:element="目" kvg:radical="general"><path id="kvg:076ee-s1" kvg:type="㇑" d="M29.75 19.05c1.35 1.35 1.86 3.21 1.86 5.47.0 1.77.19 42.37.06 60.23-.04 4.91-.06 8.11-.06 8.36"/><path id="kvg:076ee-s2" kvg:type="㇕a" d="M32.54 21.39c10.92-1.23 38.33-4.11 41.42-4.38 3.25-.28 5.54 1.25 5.54 4.18.0 8.95-.26 39.93-.26 64.82.0 3 .01 3.75.01 6"/><path id="kvg:076ee-s3" kvg:type="㇐a" d="M33.05 43.64c12.45-1.51 34.83-3.51 45.18-4.09"/><path id="kvg:076ee-s4" kvg:type="㇐a" d="M32.9 65.95C44.25 65 66 62.88 77.72 62.56"/><path id="kvg:076ee-s5" kvg:type="㇐a" d="M33 90.5c9.75-.5 33.25-2.5 44.79-2.53"/></g></g></svg>