<svg xmlns="http://www.w3.org/2000/svg" width="109" height="109" viewBox="0 0 109 109"><g id="kvg:StrokePaths_076ea"><g id="kvg:076ea" kvg:element="盪"><g id="kvg:076ea-g1" kvg:element="湯" kvg:position="top"><g id="kvg:076ea-g2" kvg:element="氵" kvg:variant="true" kvg:original="水" kvg:position="left"><path id="kvg:076ea-s1" kvg:type="㇔" d="M21.63 14.46c3.57 1.62 9.22 6.65 10.12 9.16"/><path id="kvg:076ea-s2" kvg:type="㇔" d="M15.25 33.13c3.79 1.33 9.8 5.46 10.75 7.53"/><path id="kvg:076ea-s3" kvg:type="㇀" d="M16.25 64.84c1.5.99 3.31 1.03 4.25-.19 2.75-3.55 10-16.88 12.5-21.41"/></g><g id="kvg:076ea-g3" kvg:element="昜" kvg:position="right"><g id="kvg:076ea-g4" kvg:element="旦" kvg:position="top"><g id="kvg:076ea-g5" kvg:element="日"><path id="kvg:076ea-s4" kvg:type="㇑" d="M49.55 11.81c.3.25.86.68.95 1.27.62 4.13 2.15 10.2 3.31 17.69"/><path id="kvg:076ea-s5" kvg:type="㇕a" d="M51.11 12.53c4.89-.59 20.32-1.65 26.58-2.04 1.09-.07 1.74 1.6 1.7 2.05-.47 5.57-2.94 16.75-2.94 17.2"/><path id="kvg:076ea-s6" kvg:type="㇐a" d="M52.59 21.22c1.94.0 22.66-1.8 24.86-1.8"/><path id="kvg:076ea-s7" kvg:type="㇐a" d="M54.27 29.3c3.95-.44 16.83-1.22 21.75-1.59"/></g><g id="kvg:076ea-g6" kvg:element="一"><path id="kvg:076ea-s8" kvg:type="㇐" d="M40.25 37.53c1.67.24 4.73.34 6.38.24 16.68-1.04 27.52-2.48 41.52-2.64 2.77-.03 4.44.11 5.83.23"/></g></g><g id="kvg:076ea-g7" kvg:element="勿" kvg:position="bottom"><g id="kvg:076ea-g8" kvg:element="勹"><path id="kvg:076ea-s9" kvg:type="㇒" d="M53.66 37.87c-.02.44-.08 1.13-.34 1.75-1.51 3.67-9.35 11.49-17.63 16.26"/><path id="kvg:076ea-s10" kvg:type="㇆" d="M53.69 45.29c.85.38 2.12.53 3.63.32 1.51-.21 23.03-2.2 26.72-2.25s3.71 1.23 3.19 3.87C86.5 50.85 83 59.25 78.17 67.32c-1.78 2.97-3.92 1.18-5.63-2"/></g><path id="kvg:076ea-s11" kvg:type="㇒" d="M57.95 48.53c-.01.31-.01 1.51-.26 1.94-2.44 4.24-8.22 9.38-15.78 12.73"/><path id="kvg:076ea-s12" kvg:type="㇒" d="M70.91 47.25c-.02.62-.09 1.59-.5 2.46-2.39 5.17-9.75 14.49-20.62 19.86"/></g></g></g><g id="kvg:076ea-g9" kvg:element="皿" kvg:position="bottom" kvg:radical="general"><path id="kvg:076ea-s13" kvg:type="㇑a" d="M27.33 76.76c.64 1 1.47 2.25 1.6 3.1 1.08 6.75 1.53 9.47 2.26 16.39"/><path id="kvg:076ea-s14" kvg:type="㇕b" d="M28.43 78.88c12.07-1.13 47.62-2.72 52.37-3.26 1.65-.19 2.64 1.11 2.4 2.22-.97 4.57-2.44 12.17-3.43 17.8"/><path id="kvg:076ea-s15" kvg:type="㇑a" d="M45.64 78.1c.27.64.54 1.18.65 1.98.91 6.27.51 9.18 1.15 15.85"/><path id="kvg:076ea-s16" kvg:type="㇑a" d="M62.83 78.86c.42.64.85 1.57.79 2.41-.4 5.36-.12 7.23-.53 13.7"/><path id="kvg:076ea-s17" kvg:type="㇐" d="M14.67 96.81c1.85.66 5.23.77 7.08.66 19.22-1.1 39.81-2.59 64.62-2.2 3.08.05 4.93.31 6.46.64"/></g></g></g></svg>