<!DOCTYPE svg PUBLIC "-//W3C//DTD SVG 1.0//EN" "http://www.w3.org/TR/2001/REC-SVG-20010904/DTD/svg10.dtd" [
<!ATTLIST g
xmlns:kvg CDATA #FIXED "http://kanjivg.tagaini.net"
kvg:element CDATA #IMPLIED
kvg:variant CDATA #IMPLIED
kvg:partial CDATA #IMPLIED
kvg:original CDATA #IMPLIED
kvg:part CDATA #IMPLIED
kvg:number CDATA #IMPLIED
kvg:tradForm CDATA #IMPLIED
kvg:radicalForm CDATA #IMPLIED
kvg:position CDATA #IMPLIED
kvg:radical CDATA #IMPLIED
kvg:phon CDATA #IMPLIED >
<!ATTLIST path
xmlns:kvg CDATA #FIXED "http://kanjivg.tagaini.net"
kvg:type CDATA #IMPLIED >
]><svg xmlns="http://www.w3.org/2000/svg" width="109" height="109" viewBox="0 0 109 109"><g id="kvg:StrokePaths_076fb" style="fill:none;stroke:#000000;stroke-width:3;stroke-linecap:round;stroke-linejoin:round;"><g id="kvg:076fb" kvg:element="盻"><g id="kvg:076fb-g1" kvg:element="目" kvg:position="left" kvg:radical="general"><path id="kvg:076fb-s1" kvg:type="㇑" d="M13.38 25.07c.29 1.36.71 2.4.71 4.16.0 1.77-.1 53.97.0 55.75"/><path id="kvg:076fb-s2" kvg:type="㇕a" d="M14.57 25.76c1.62-.02 13.48-1.32 14.96-1.4 1.23-.07 2.1 1.49 2.1 3.13.0 6.04-.57 42.89-.57 56.68"/><path id="kvg:076fb-s3" kvg:type="㇐a" d="M14.54 45.34c4.48-.46 12.21-1.02 15.85-.79"/><path id="kvg:076fb-s4" kvg:type="㇐a" d="M14.67 62.64c4.3-.21 10.54-.96 16.29-.58"/><path id="kvg:076fb-s5" kvg:type="㇐a" d="M14.04 81.75c4.41-.25 11.37-.9 16.95-.87"/></g><g id="kvg:076fb-g2" kvg:element="兮" kvg:position="right"><g id="kvg:076fb-g3" kvg:element="八" kvg:position="top"><g id="kvg:076fb-g4" kvg:position="left"><path id="kvg:076fb-s6" kvg:type="㇒" d="M55.81 16.25c.31.83.01 1.8-.43 2.77-2.58 5.76-10.08 18.6-17.63 24.73"/></g><g id="kvg:076fb-g5" kvg:position="right"><path id="kvg:076fb-s7" kvg:type="㇏" d="M66.58 11.25c1.16.27 2.26.63 3.01 1.35 6.8 6.58 15 20.23 21.44 24.35 2.78 1.78 3.77 2.73 6.47 3.3"/></g></g><g id="kvg:076fb-g6" kvg:position="bottom"><path id="kvg:076fb-s8" kvg:type="㇐" d="M47.27 43.25c.82.29 2.31.32 3.12.29 6.31-.26 21.25-1.94 30.31-2.33 1.36-.06 2.17.14 2.85.28"/><path id="kvg:076fb-s9" kvg:type="㇉" d="M57.75 45.05c.34.78.54 1.79.07 2.92-1.31 3.13-3.78 8.92-5.52 12.06-.99 1.78-.32 3.42 2.06 2.91 4.33-.93 18.49-2.57 23.88-3.43 2.79-.44 4.9.31 3.84 4.44C79.25 75 74.05 86.07 68.19 92.81c-4.94 5.69-6.41 1.44-8.35-1.45"/></g></g></g></g><g id="kvg:StrokeNumbers_076fb" style="font-size:8;fill:#808080"><text transform="matrix(1 0 0 1 7.25 32.63)">1</text><text transform="matrix(1 0 0 1 16.50 22.50)">2</text><text transform="matrix(1 0 0 1 18.24 42.50)">3</text><text transform="matrix(1 0 0 1 18.07 59.50)">4</text><text transform="matrix(1 0 0 1 18.25 78.83)">5</text><text transform="matrix(1 0 0 1 46.50 15.50)">6</text><text transform="matrix(1 0 0 1 61.50 10.50)">7</text><text transform="matrix(1 0 0 1 49.50 40.50)">8</text><text transform="matrix(1 0 0 1 48.50 53.03)">9</text></g></svg>