<svg xmlns="http://www.w3.org/2000/svg" width="109" height="109" viewBox="0 0 109 109"><g id="kvg:StrokePaths_07707"><g id="kvg:07707" kvg:element="眇"><g id="kvg:07707-g1" kvg:element="目" kvg:position="left" kvg:radical="general"><path id="kvg:07707-s1" kvg:type="㇑" d="M15.88 24.05c.34 1.34.85 2.36.85 4.09.0 1.74-.12 53.08.0 54.83"/><path id="kvg:07707-s2" kvg:type="㇕a" d="M17.31 25.23c1.96-.02 16.25-2.3 18.04-2.38 1.48-.07 2.53 1.46 2.53 3.08.0 5.94-.69 42.69-.69 56.24"/><path id="kvg:07707-s3" kvg:type="㇐a" d="M17.28 43.49c5.4-.45 15.72-1.5 20.1-1.28"/><path id="kvg:07707-s4" kvg:type="㇐a" d="M17.44 60.51c5.18-.21 12.81-1.01 19.64-1.07"/><path id="kvg:07707-s5" kvg:type="㇐a" d="M16.67 79.8c5.32-.25 13.71-1.39 20.44-1.36"/></g><g id="kvg:07707-g2" kvg:element="少" kvg:position="right"><g id="kvg:07707-g3" kvg:element="小"><path id="kvg:07707-s6" kvg:type="㇚" d="M68.36 13.75c.07.32 1.4 1.67 1.46 3.71.31 9.78-.2 37.21-.2 40.54.0 8.5-5.53.51-6.69-.33"/><path id="kvg:07707-s7" kvg:type="㇒" d="M56.94 28.19c.04.57.14 1.49-.08 2.28-1.58 5.67-7.26 15.96-12.7 21.19"/><path id="kvg:07707-s8" kvg:type="㇔" d="M81.43 27.73C87.82 31.6 96.4 41.56 98 47.59"/></g><g id="kvg:07707-g4" kvg:element="丿"><path id="kvg:07707-s9" kvg:type="㇒" d="M88.77 47.22c.14 1.15.51 3.06-.28 4.61C81.5 65.5 61.5 87 39.22 96"/></g></g></g></g></svg>