<svg xmlns="http://www.w3.org/2000/svg" width="109" height="109" viewBox="0 0 109 109"><g id="kvg:StrokePaths_0770c" style="fill:none;stroke:#000000;stroke-width:3;stroke-linecap:round;stroke-linejoin:round;"><g id="kvg:0770c" kvg:element="県"><g id="kvg:0770c-g1" kvg:position="top"><g id="kvg:0770c-g2" kvg:element="目" kvg:radical="tradit"><path id="kvg:0770c-s1" kvg:type="㇑" d="M43.42 13.91c1.09 1.09 1.39 2.61 1.39 3.84.0 1.06.0 25.55.0 34.75.0 1.48.0 3.54.0 4.01"/><path id="kvg:0770c-s2" kvg:type="㇕a" d="M45.82 16.29c2.61-.15 21.98-2.62 24.39-2.8 2.38-.18 3.39 1.28 3.38 3.39-.02 5.77-.12 25.48-.16 33.87-.01 1.6-.01 2.79-.01 3.39"/><path id="kvg:0770c-s3" kvg:type="㇐a" d="M46.03 28.68c5.6-.56 22.13-2.2 26.32-2.2"/><path id="kvg:0770c-s4" kvg:type="㇐a" d="M45.99 41.08c8.64-.83 18.51-1.83 26.05-2.09"/><path id="kvg:0770c-s5" kvg:type="㇐a" d="M46.56 53.67c6.31-.29 18.31-1.42 25.65-1.63"/></g><path id="kvg:0770c-s6" kvg:type="㇗" d="M25.75 27c.75 1 1.5 2.5 1.5 4.25S26 60.12 26 63.25c0 2.25.24 4.42 3 4.25 4.12-.25 54.25-3.75 56.5-3.75s5.25.25 7 .5"/></g><g id="kvg:0770c-g3" kvg:element="小" kvg:variant="true" kvg:position="bottom" kvg:radical="nelson"><path id="kvg:0770c-s7" kvg:type="㇑/㇚" d="M53.29 67.62c1.11 1.11 1.64 2.76 1.64 4.77.0 6.38-.11 14.5-.16 20.74-.01 1.81-.02 3.47-.02 4.88"/><path id="kvg:0770c-s8" kvg:type="㇒" d="M37.13 77c.14 1.04.03 1.92-.62 2.75-3.13 4-10.01 9.75-20.51 15.5"/><path id="kvg:0770c-s9" kvg:type="㇔" d="M73.96 77.37C79.5 80.5 86.5 87 88.75 92"/></g></g></g></svg>