<svg xmlns="http://www.w3.org/2000/svg" width="109" height="109" viewBox="0 0 109 109"><g id="kvg:StrokePaths_0771b"><g id="kvg:0771b" kvg:element="眛"><g id="kvg:0771b-g1" kvg:element="目" kvg:position="left" kvg:radical="general"><path id="kvg:0771b-s1" kvg:type="㇑" d="M12.18 23.1c.32 1.43.8 2.52.8 4.37s-.11 56.64.0 58.51"/><path id="kvg:0771b-s2" kvg:type="㇕a" d="M13.52 23.83c1.84-.02 14.76-1.39 16.43-1.47 1.39-.07 2.37 1.56 2.37 3.28.0 6.34-.15 45.01-.15 59.48"/><path id="kvg:0771b-s3" kvg:type="㇐a" d="M13.49 43.38c5.07-.48 12.26-1.13 18.43-1.33"/><path id="kvg:0771b-s4" kvg:type="㇐a" d="M13.14 60.03c4.86-.22 12.61-.78 18.93-1.1"/><path id="kvg:0771b-s5" kvg:type="㇐a" d="M12.92 82.59c4.99-.26 12.87-.95 19.19-.92"/></g><g id="kvg:0771b-g2" kvg:element="未" kvg:position="right"><path id="kvg:0771b-s6" kvg:type="㇐" d="M46.81 29.52c1.01.28 2.86.31 3.87.28 10.51-.32 18.4-1.55 30.26-2.23 1.68-.1 2.69.13 3.53.27"/><g id="kvg:0771b-g3" kvg:element="木"><path id="kvg:0771b-s7" kvg:type="㇐" d="M39.63 50.5c1.11.25 3.22.8 6.17.5 9.95-1 31.95-2.75 43.78-3.25 2.96-.12 4.71.25 6.56.5"/><path id="kvg:0771b-s8" kvg:type="㇑" d="M62.68 12.75c1.35.5 2.16 2.25 2.43 3.25s-.5 75.25-.77 81.5"/><path id="kvg:0771b-s9" kvg:type="㇒" d="M64.72 50.25C59.18 63.08 45.52 81.24 34 88.5"/><path id="kvg:0771b-s10" kvg:type="㇏" d="M64.78 49.75c4.41 7.41 20.6 26.75 27.17 32.95 1.64 1.55 2.96 2.34 4.55 2.8"/></g></g></g></g></svg>