<!DOCTYPE svg PUBLIC "-//W3C//DTD SVG 1.0//EN" "http://www.w3.org/TR/2001/REC-SVG-20010904/DTD/svg10.dtd" [
<!ATTLIST g
xmlns:kvg CDATA #FIXED "http://kanjivg.tagaini.net"
kvg:element CDATA #IMPLIED
kvg:variant CDATA #IMPLIED
kvg:partial CDATA #IMPLIED
kvg:original CDATA #IMPLIED
kvg:part CDATA #IMPLIED
kvg:number CDATA #IMPLIED
kvg:tradForm CDATA #IMPLIED
kvg:radicalForm CDATA #IMPLIED
kvg:position CDATA #IMPLIED
kvg:radical CDATA #IMPLIED
kvg:phon CDATA #IMPLIED >
<!ATTLIST path
xmlns:kvg CDATA #FIXED "http://kanjivg.tagaini.net"
kvg:type CDATA #IMPLIED >
]><svg xmlns="http://www.w3.org/2000/svg" width="109" height="109" viewBox="0 0 109 109"><g id="kvg:StrokePaths_0773a" style="fill:none;stroke:#000000;stroke-width:3;stroke-linecap:round;stroke-linejoin:round;"><g id="kvg:0773a" kvg:element="眺"><g id="kvg:0773a-g1" kvg:element="目" kvg:position="left" kvg:radical="general"><path id="kvg:0773a-s1" kvg:type="㇑" d="M13.37 25.12c.88.88 1.31 2.27 1.31 3.76.0 1.21.11 37.28.05 51.87-.01 3.44-.02 5.62-.02 5.76"/><path id="kvg:0773a-s2" kvg:type="㇕a" d="M15.22 25.95c1.57-.05 11.5-1.76 15.64-2.36 2.75-.4 4.06.48 4.02 3.41-.08 5.85.06 34.16-.01 51.5-.01 2.58-.01 4.92-.01 6.89"/><path id="kvg:0773a-s3" kvg:type="㇐a" d="M15.69 43.48c5.63-.48 12-.98 17.83-1.46"/><path id="kvg:0773a-s4" kvg:type="㇐a" d="M15.84 61.5c6-.5 10.53-1.25 17.98-1.69"/><path id="kvg:0773a-s5" kvg:type="㇐a" d="M16.08 82.17c5.17-.27 11.35-.91 17.68-.94"/></g><g id="kvg:0773a-g2" kvg:element="兆" kvg:position="right" kvg:phon="兆"><g id="kvg:0773a-g3" kvg:position="left"><g id="kvg:0773a-g4" kvg:element="儿" kvg:part="1" kvg:original="八"><path id="kvg:0773a-s6" kvg:type="㇒" d="M57.29 17.41c1.15 1.15 1.31 2.47 1.39 4.57C60.38 71.38 57.5 81 42.15 93.43"/></g><g id="kvg:0773a-g5" kvg:element="冫"><path id="kvg:0773a-s7" kvg:type="㇔" d="M42.41 38.06c3.69 1.91 8.52 7.35 9.45 10.32"/><path id="kvg:0773a-s8" kvg:type="㇀" d="M41.61 69.62c1.05.48 2.35.4 3.14-.14 1.1-.76 7.99-6.06 12.31-9.7"/></g></g><g id="kvg:0773a-g6" kvg:position="right"><g id="kvg:0773a-g7" kvg:element="儿" kvg:part="2" kvg:original="八"><path id="kvg:0773a-s9" kvg:type="㇟" d="M71.14 16.4c1.21 1.21 1.49 2.32 1.49 3.97.0 9.59.12 56 .12 61.57.0 8.99 1.34 10.79 12.44 10.79 9.9.0 11.81-1.9 11.81-8.18"/></g><path id="kvg:0773a-s10" kvg:type="㇒" d="M90.39 30.25c.11 1.07-.01 2.11-.65 3.01-2.86 3.99-5.49 6.87-12.55 12.39"/><path id="kvg:0773a-s11" kvg:type="㇔" d="M75.7 52.02c5.72 2.84 14.77 11.67 16.2 16.09"/></g></g></g></g><g id="kvg:StrokeNumbers_0773a" style="font-size:8;fill:#808080"><text transform="matrix(1 0 0 1 7.50 32.50)">1</text><text transform="matrix(1 0 0 1 17.25 22.50)">2</text><text transform="matrix(1 0 0 1 19.49 40.50)">3</text><text transform="matrix(1 0 0 1 19.32 58.50)">4</text><text transform="matrix(1 0 0 1 19.50 78.50)">5</text><text transform="matrix(1 0 0 1 48.75 17.50)">6</text><text transform="matrix(1 0 0 1 39.50 34.55)">7</text><text transform="matrix(1 0 0 1 39.75 65.50)">8</text><text transform="matrix(1 0 0 1 65.50 13.63)">9</text><text transform="matrix(1 0 0 1 79.50 30.50)">10</text><text transform="matrix(1 0 0 1 80.50 53.50)">11</text></g></svg>