<!DOCTYPE svg PUBLIC "-//W3C//DTD SVG 1.0//EN" "http://www.w3.org/TR/2001/REC-SVG-20010904/DTD/svg10.dtd" [
<!ATTLIST g
xmlns:kvg CDATA #FIXED "http://kanjivg.tagaini.net"
kvg:element CDATA #IMPLIED
kvg:variant CDATA #IMPLIED
kvg:partial CDATA #IMPLIED
kvg:original CDATA #IMPLIED
kvg:part CDATA #IMPLIED
kvg:number CDATA #IMPLIED
kvg:tradForm CDATA #IMPLIED
kvg:radicalForm CDATA #IMPLIED
kvg:position CDATA #IMPLIED
kvg:radical CDATA #IMPLIED
kvg:phon CDATA #IMPLIED >
<!ATTLIST path
xmlns:kvg CDATA #FIXED "http://kanjivg.tagaini.net"
kvg:type CDATA #IMPLIED >
]><svg xmlns="http://www.w3.org/2000/svg" width="109" height="109" viewBox="0 0 109 109"><g id="kvg:StrokePaths_0776b" style="fill:none;stroke:#000000;stroke-width:3;stroke-linecap:round;stroke-linejoin:round;"><g id="kvg:0776b" kvg:element="睫"><g id="kvg:0776b-g1" kvg:element="目" kvg:position="left" kvg:radical="general"><path id="kvg:0776b-s1" kvg:type="㇑" d="M13.13 24.98c.31 1.2.75 2.11.75 3.67s-.1 55.02.0 56.58"/><path id="kvg:0776b-s2" kvg:type="㇕a" d="M14.4 25.59c1.73-.02 14.41-1.16 15.99-1.24 1.31-.06 2.24 1.31 2.24 2.75.0 5.32-.61 44.26-.61 56.4"/><path id="kvg:0776b-s3" kvg:type="㇐a" d="M14.37 44.83c4.79-.41 13.04-1.4 16.93-1.19"/><path id="kvg:0776b-s4" kvg:type="㇐a" d="M14.51 63.06c4.59-.18 11.27-.85 17.4-.51"/><path id="kvg:0776b-s5" kvg:type="㇐a" d="M13.83 82.88c4.71-.22 12.15-1.29 18.12-1.27"/></g><g id="kvg:0776b-g2" kvg:element="疌" kvg:position="right"><path id="kvg:0776b-s6" kvg:type="㇐" d="M42.75 22.21c1.17.47 3.31.57 4.48.47 8.27-.65 31.98-3.76 39.19-3.21 1.94.15 3.11.23 4.09.46"/><g id="kvg:0776b-g3" kvg:element="⺕" kvg:variant="true" kvg:original="彑"><path id="kvg:0776b-s7" kvg:type="㇕" d="M46.07 33.87c1.75.21 2.59.57 4.2.43 9.8-.86 27.19-2.8 34.89-2.8 2.27.0 3.35 1.08 3 3.23-.92 5.63-2.07 11.39-3.3 21.07"/><path id="kvg:0776b-s8" kvg:type="㇐" d="M38.64 45.94c2.37.31 4.22.81 6.85.61 14.01-1.06 28.35-1.98 46.53-2.9 2.91-.15 5.27.11 6.58.42"/><path id="kvg:0776b-s9" kvg:type="㇐c" d="M44.62 57.25c1.22.13 4.1.46 5.55.39 13.37-.66 21.42-1.7 33.57-1.97 1.94-.04 3.16.0 4.62.13"/></g><path id="kvg:0776b-s10" kvg:type="㇑" d="M63.37 10.25c1.09.5 1.74 2.25 1.96 3.25s.5 65.25.28 71.5"/><path id="kvg:0776b-s11" kvg:type="㇐" d="M67.38 71c7.12-.75 4.62-.5 15.35-2 1.73-.24 2.18-.25 3.26.0"/><path id="kvg:0776b-s12" kvg:type="㇒" d="M51.25 67.14c.06.71.12 1.82-.12 2.83-1.43 5.97-9.62 18.72-20.82 26.74"/><path id="kvg:0776b-s13" kvg:type="㇏" d="M46.75 79.25c4.39.65 24.28 12.48 39.91 16.1 2.23.52 4.46.68 6.59.9"/></g></g></g><g id="kvg:StrokeNumbers_0776b" style="font-size:8;fill:#808080"><text transform="matrix(1 0 0 1 6.85 31.50)">1</text><text transform="matrix(1 0 0 1 17.50 21.50)">2</text><text transform="matrix(1 0 0 1 18.71 41.50)">3</text><text transform="matrix(1 0 0 1 18.54 59.50)">4</text><text transform="matrix(1 0 0 1 18.72 79.50)">5</text><text transform="matrix(1 0 0 1 39.50 19.50)">6</text><text transform="matrix(1 0 0 1 39.50 34.50)">7</text><text transform="matrix(1 0 0 1 36.50 43.50)">8</text><text transform="matrix(1 0 0 1 37.75 58.50)">9</text><text transform="matrix(1 0 0 1 50.50 9.50)">10</text><text transform="matrix(1 0 0 1 69.50 67.50)">11</text><text transform="matrix(1 0 0 1 39.50 68.50)">12</text><text transform="matrix(1 0 0 1 52.50 79.50)">13</text></g></svg>