<svg xmlns="http://www.w3.org/2000/svg" width="109" height="109" viewBox="0 0 109 109"><g id="kvg:StrokePaths_07779" style="fill:none;stroke:#000000;stroke-width:3;stroke-linecap:round;stroke-linejoin:round;"><g id="kvg:07779" kvg:element="睹"><g id="kvg:07779-g1" kvg:element="目" kvg:position="left" kvg:radical="general"><path id="kvg:07779-s1" kvg:type="㇑" d="M14.88 19.05c.3 1.34.73 2.36.73 4.09.0 1.74-.1 67.08.0 68.83"/><path id="kvg:07779-s2" kvg:type="㇕a" d="M16.12 20.23c1.69-.02 14.04-2.3 15.58-2.38 1.28-.07 2.19 1.46 2.19 3.08.0 5.94-.6 55.69-.6 69.24"/><path id="kvg:07779-s3" kvg:type="㇐a" d="M16.09 41.49c4.67-.45 13.71-1.5 17.5-1.28"/><path id="kvg:07779-s4" kvg:type="㇐a" d="M15.72 64.01C20.2 63.8 29 63 32.68 62.94"/><path id="kvg:07779-s5" kvg:type="㇐a" d="M16.06 88.8c4.59-.25 11.34-.89 17.15-.86"/></g><g id="kvg:07779-g2" kvg:element="者" kvg:variant="true" kvg:position="right"><g id="kvg:07779-g3" kvg:element="耂" kvg:original="老" kvg:partial="true"><g id="kvg:07779-g4" kvg:element="土"><path id="kvg:07779-s6" kvg:type="㇐" d="M44.93 29.12c.94.24 3.67.32 4.62.24C59.75 28.5 66.5 28 73.23 27.45c1.57-.13 2.52.12 3.3.24"/><path id="kvg:07779-s7" kvg:type="㇑a" d="M60.68 13.37c.08.23 1.14 1.22 1.22 2.71.39 7.15.21 26.67.21 29.1"/><path id="kvg:07779-s8" kvg:type="㇐" d="M39.75 46.57c1.64.45 4.17.84 5.65.67 8.21-.94 37.54-4.25 47.07-4.46 2.46-.05 3.93.32 5.16.65"/></g><path id="kvg:07779-s9" kvg:type="㇒" d="M85.09 16.82c.12 1.21.23 2.89-.63 4.31-11.09 18.35-21.56 32-41.78 48.96"/></g><path id="kvg:07779-s10" kvg:type="㇔" d="M73.25 49c2.12 1.15 5.47 4.72 6 6.5"/><g id="kvg:07779-g5" kvg:element="日"><path id="kvg:07779-s11" kvg:type="㇑" d="M57.37 62.16C57.68 63.02 58 63.45 58 64.6c0 1.15-.21 33.6-.21 34.18"/><path id="kvg:07779-s12" kvg:type="㇕a" d="M58.52 62.8c1.76-.14 24.06-2.49 25.66-2.66 1.34-.14 2.2 1.59 2.09 2.44-.21 1.72-.31 22.32-.31 34.97"/><path id="kvg:07779-s13" kvg:type="㇐a" d="M58.33 78.86c5.42.0 24.62-2.08 27.31-2.08"/><path id="kvg:07779-s14" kvg:type="㇐a" d="M58.22 95.77c6.53.0 20.03-1.27 27.41-1.3"/></g></g></g></g></svg>