<svg xmlns="http://www.w3.org/2000/svg" width="109" height="109" viewBox="0 0 109 109"><g id="kvg:StrokePaths_0777f"><g id="kvg:0777f" kvg:element="睿"><g id="kvg:0777f-g1" kvg:position="top"><g id="kvg:0777f-g2" kvg:element="卜" kvg:original="ト" kvg:radical="nelson"><path id="kvg:0777f-s1" kvg:type="㇑" d="M51.37 9.75c1.09.5 1.96 2.23 1.96 3.25.0 5.25.28 9.75.28 12.5"/><path id="kvg:0777f-s2" kvg:type="㇔" d="M53.88 16c8.37-.5 18.37-1.25 25.85-1.5 1.74-.06 2.18-.25 3.26.0"/></g><g id="kvg:0777f-g3" kvg:element="冖"><path id="kvg:0777f-s3" kvg:type="㇔" d="M20.19 24.44c-.16 4.05-4.05 14.65-5.44 17.06"/><path id="kvg:0777f-s4" kvg:type="㇖b" d="M21.18 27.9c3.51.0 48.44-3.71 66.06-3.71 11.98.0 3.78 5.69-.69 9.4"/></g><path id="kvg:0777f-s5" kvg:type="㇐" d="M30.75 34.55c.86.24 2.43.21 3.29.24 5.46.21 34.15-2.2 39.45-1.93 1.43.07 2.29.11 3.01.23"/><path id="kvg:0777f-s6" kvg:type="㇒" d="M37.26 42.64c.05.36.1.93-.09 1.45-1.16 3.06-7.78 9.77-16.85 13.87"/><path id="kvg:0777f-s7" kvg:type="㇏" d="M69.02 40.33c5.22 1.48 13.49 6.08 14.79 8.38"/><path id="kvg:0777f-s8" kvg:type="㇒" d="M52.75 38.75c.11.79.22 2.05-.21 3.19C49.97 48.68 36.46 64.86 15 72.5"/><path id="kvg:0777f-s9" kvg:type="㇏" d="M54.5 41.96c5.17 4.46 27.44 19.02 33.15 22.28 1.94 1.11 4.42 1.58 6.35 1.9"/></g><g id="kvg:0777f-g4" kvg:element="目" kvg:position="bottom" kvg:radical="tradit"><path id="kvg:0777f-s10" kvg:type="㇑" d="M38.52 62.85c.52.8 1.29 2.39 1.29 3.45s-.35 32.02-.35 32.55"/><path id="kvg:0777f-s11" kvg:type="㇕a" d="M39.64 64.3c2.96-.13 26.08-2.9 28.77-3.06 2.25-.13 3.83.64 3.83 2.98.0 1.27.08 31.55-.09 32.34"/><path id="kvg:0777f-s12" kvg:type="㇐a" d="M40.62 73.92c7.15-.52 25.08-1.69 29.83-1.69"/><path id="kvg:0777f-s13" kvg:type="㇐a" d="M40.39 84.63c8.57-.33 23.3-1.37 31.62-1.59"/><path id="kvg:0777f-s14" kvg:type="㇐a" d="M39.9 96.15c6.92-.32 24.33-1.69 31.94-1.69"/></g></g></g></svg>