<svg xmlns="http://www.w3.org/2000/svg" width="109" height="109" viewBox="0 0 109 109"><g id="kvg:StrokePaths_0778e" style="fill:none;stroke:#000000;stroke-width:3;stroke-linecap:round;stroke-linejoin:round;"><g id="kvg:0778e" kvg:element="瞎"><g id="kvg:0778e-g1" kvg:element="目" kvg:position="left" kvg:radical="general"><path id="kvg:0778e-s1" kvg:type="㇑" d="M12.88 20.07c.29 1.36.71 2.4.71 4.16.0 1.77-.1 62.47.0 64.25"/><path id="kvg:0778e-s2" kvg:type="㇕a" d="M14.07 21.26c1.62-.02 13.48-1.82 14.96-1.9 1.23-.07 2.1.99 2.1 2.63.0 6.04-.57 51.89-.57 65.68"/><path id="kvg:0778e-s3" kvg:type="㇐a" d="M14.04 42.34c4.48-.46 12.21-1.52 15.85-1.29"/><path id="kvg:0778e-s4" kvg:type="㇐a" d="M14.17 62.64c4.3-.21 10.54-1.46 16.29-1.08"/><path id="kvg:0778e-s5" kvg:type="㇐a" d="M13.54 86.25c4.41-.25 11.37-.9 16.95-.87"/></g><g id="kvg:0778e-g2" kvg:element="害" kvg:variant="true" kvg:position="right"><g id="kvg:0778e-g3" kvg:element="宀" kvg:position="top"><path id="kvg:0778e-s6" kvg:type="㇑a" d="M63.59 11c1.05.34 2.52 1.5 2.52 3.71.0 3.11-.08 6.4-.08 9.23"/><g id="kvg:0778e-g4" kvg:element="冖"><path id="kvg:0778e-s7" kvg:type="㇔" d="M43.4 23.25c0 2.77-2.92 12.9-4.02 14.75"/><path id="kvg:0778e-s8" kvg:type="㇖b" d="M43.65 26.13c1.21.07 42.72-3.14 48.87-3.41 10.73-.47 2.48 6.28-1.36 9.4"/></g></g><g id="kvg:0778e-g5" kvg:position="bottom"><g id="kvg:0778e-g6" kvg:element="龶" kvg:position="top"><path id="kvg:0778e-s9" kvg:type="㇒" d="M81.76 31c.09.32-.17 1.38-.69 1.78C74 38.25 63.5 41.75 47 44.54"/><path id="kvg:0778e-s10" kvg:type="㇐" d="M45 52.52c1.06.43 3 .56 4.06.43 9.94-1.2 28.9-3.12 36.74-3.25 1.76-.03 2.82.2 3.7.42"/><path id="kvg:0778e-s11" kvg:type="㇐" d="M38 64.61c1.37.46 3.88.51 5.26.46 9.71-.33 38.9-3.45 49.44-2.98 2.28.1 3.66.22 4.8.45"/><path id="kvg:0778e-s12" kvg:type="㇑" d="M64.12 31.25c1.09.5 1.74 2.25 1.96 3.25S66.22 62 66 68.25"/></g><g id="kvg:0778e-g7" kvg:element="口" kvg:position="bottom"><path id="kvg:0778e-s13" kvg:type="㇑" d="M48.75 76.85c.35.37.7.68.85 1.15 1.2 3.68 2.14 13.85 2.96 20.47"/><path id="kvg:0778e-s14" kvg:type="㇕b" d="M49.91 78.11c9.09-1.11 28.53-2.08 32.9-2.6 1.6-.19 2.56 1.92 2.33 3.04-.95 4.64-2.03 9.64-4.06 16.33"/><path id="kvg:0778e-s15" kvg:type="㇐b" d="M52.91 96.53c6.59-.53 24.25-.97 30.77-1.56"/></g></g></g></g></g></svg>