<svg xmlns="http://www.w3.org/2000/svg" width="109" height="109" viewBox="0 0 109 109"><g id="kvg:StrokePaths_077ad" style="fill:none;stroke:#000000;stroke-width:3;stroke-linecap:round;stroke-linejoin:round;"><g id="kvg:077ad" kvg:element="瞭"><g id="kvg:077ad-g1" kvg:element="目" kvg:position="left" kvg:radical="general"><path id="kvg:077ad-s1" kvg:type="㇑" d="M12.37 25.59c.9.9.91 1.8.91 3.69.0 1.47.07 55.99.07 56.73"/><path id="kvg:077ad-s2" kvg:type="㇕a" d="M14.22 27.39c2.45-.41 9.18-1.57 12.4-2.05 2.83-.42 3.55.87 3.57 3.67.06 7.32.03 39.88.04 54.7"/><path id="kvg:077ad-s3" kvg:type="㇐a" d="M14.2 44.82c4.59-.47 9.99-1.19 14.74-1.67"/><path id="kvg:077ad-s4" kvg:type="㇐a" d="M14.32 63.24c4.89-.49 10.93-1.24 14.86-1.4"/><path id="kvg:077ad-s5" kvg:type="㇐a" d="M14.21 83.24c3.85-.65 10.26-1.38 15.01-1.41"/></g><g id="kvg:077ad-g2" kvg:element="尞" kvg:position="right"><g id="kvg:077ad-g3" kvg:element="大"><path id="kvg:077ad-s6" kvg:type="㇐" d="M40.73 23.6c3.52.77 6.88.29 9.38-.06 9.01-1.29 22.73-2.72 32.28-3.43 2.86-.21 5.77-.57 8.6.07"/><path id="kvg:077ad-s7" kvg:type="㇒" d="M62.26 12.5c.49 1 .46 2.13.14 3.26-3.9 13.99-10.9 25.62-26.15 35.75"/><path id="kvg:077ad-s8" kvg:type="㇏" d="M68.93 22.42c4.49 4.14 13.12 13.06 19.27 18.26C90.5 42.62 92.5 44 95 45.25"/></g><path id="kvg:077ad-s9" kvg:type="㇔" d="M40.27 31.83c2.57 1.17 6.65 4.81 7.29 6.63"/><path id="kvg:077ad-s10" kvg:type="㇒" d="M88.77 26.14c.04.29.08.74-.08 1.15-.49 1.29-2.22 3.4-4.82 5.58"/><g id="kvg:077ad-g4" kvg:element="日"><path id="kvg:077ad-s11" kvg:type="㇑" d="M47.74 46.32c.72.72 1.13 1.43 1.38 2.58.85 3.9 1.82 8.69 2.68 13.37.3 1.62.58 3.22.85 4.77"/><path id="kvg:077ad-s12" kvg:type="㇕a" d="M49.87 47.53c7.72-.87 21.49-2.26 28.63-3.1 3.66-.43 5.24.69 4.69 3.95-.56 3.29-1.42 8.06-2.2 12.49-.29 1.64-.56 3.23-.8 4.68"/><path id="kvg:077ad-s13" kvg:type="㇐a" d="M51.7 56.1c2.75-.37 27.95-2.35 30.22-2.5"/><path id="kvg:077ad-s14" kvg:type="㇐a" d="M53.59 65.54c6.09-.41 16.66-1.42 25.86-1.8"/></g><g id="kvg:077ad-g5" kvg:element="小"><path id="kvg:077ad-s15" kvg:type="㇚" d="M66.36 67.37c.95.95 1.27 2.38 1.27 4.23.0 11.82-.01 16.88-.01 20.9.0 9.14-5.55.73-6.77-.29"/><path id="kvg:077ad-s16" kvg:type="㇒" d="M52.95 74.68c.13 1.02-.09 1.95-.68 2.79-1.94 3.26-7.35 7.82-16.52 13.79"/><path id="kvg:077ad-s17" kvg:type="㇔" d="M80.21 74.37C84.81 76.95 92.1 84.98 93.25 89"/></g></g></g></g></svg>