<!DOCTYPE svg PUBLIC "-//W3C//DTD SVG 1.0//EN" "http://www.w3.org/TR/2001/REC-SVG-20010904/DTD/svg10.dtd" [
<!ATTLIST g
xmlns:kvg CDATA #FIXED "http://kanjivg.tagaini.net"
kvg:element CDATA #IMPLIED
kvg:variant CDATA #IMPLIED
kvg:partial CDATA #IMPLIED
kvg:original CDATA #IMPLIED
kvg:part CDATA #IMPLIED
kvg:number CDATA #IMPLIED
kvg:tradForm CDATA #IMPLIED
kvg:radicalForm CDATA #IMPLIED
kvg:position CDATA #IMPLIED
kvg:radical CDATA #IMPLIED
kvg:phon CDATA #IMPLIED >
<!ATTLIST path
xmlns:kvg CDATA #FIXED "http://kanjivg.tagaini.net"
kvg:type CDATA #IMPLIED >
]><svg xmlns="http://www.w3.org/2000/svg" width="109" height="109" viewBox="0 0 109 109"><g id="kvg:StrokePaths_077a5" style="fill:none;stroke:#000000;stroke-width:3;stroke-linecap:round;stroke-linejoin:round;"><g id="kvg:077a5" kvg:element="瞥"><g id="kvg:077a5-g1" kvg:element="敝" kvg:position="top"><g id="kvg:077a5-g2" kvg:position="left"><g id="kvg:077a5-g3" kvg:element="小" kvg:variant="true"><path id="kvg:077a5-s1" kvg:type="㇑" d="M33.12 12c.39.23 1.22 1.73 1.3 2.2.08.46-.05 13.41-.13 16.3"/><path id="kvg:077a5-s2" kvg:type="㇒" d="M23.89 15.87c.03.31.06.79-.06 1.23-.75 2.6-5.08 8.3-11.01 11.79"/><path id="kvg:077a5-s3" kvg:type="㇔" d="M44.33 15.74c2.99 1.7 7.72 7 8.47 9.65"/></g><g id="kvg:077a5-g4" kvg:element="冂"><path id="kvg:077a5-s4" kvg:type="㇑" d="M16.5 30.76c.45.27 1.49 1.24 1.49 2.6.0.55-.06 19.48-.15 22.9"/><path id="kvg:077a5-s5" kvg:type="㇆a" d="M17.88 32.75c2.75-.19 28.17-3.04 30.22-3.16 2.41-.14 2.89 1.41 2.84 2.66-.31 7.69.24 14.37-.68 20.56-.67 4.49-3.62.61-4.77-.92"/></g><g id="kvg:077a5-g5" kvg:element="小" kvg:variant="true"><path id="kvg:077a5-s6" kvg:type="㇑" d="M33.87 34.48c.06.32.85 1.68.85 3.72.0 3.3-.17 13.33-.17 16.67"/><path id="kvg:077a5-s7" kvg:type="㇒" d="M28.17 38.79c.01.27.03.69-.03 1.07-.34 2.26-2.29 7.22-4.95 10.25"/><path id="kvg:077a5-s8" kvg:type="㇔" d="M39.9 36.73c1.6 1.61 4.14 6.63 4.54 9.13"/></g></g><g id="kvg:077a5-g6" kvg:element="攵" kvg:original="攴" kvg:position="right"><g id="kvg:077a5-g7" kvg:element="𠂉" kvg:position="top"><path id="kvg:077a5-s9" kvg:type="㇒" d="M68.99 12.76c.03.51.18 1.33-.07 2.04-1.79 5.14-5.8 13.84-11.98 20.04"/><path id="kvg:077a5-s10" kvg:type="㇐" d="M67.71 24.89c.83.2 2.36.0 2.81-.03 4.63-.33 11.83-2.44 18.91-2.97.8-.06 1.28-.01 1.49.05"/></g><g id="kvg:077a5-g8" kvg:element="乂" kvg:position="bottom"><g id="kvg:077a5-g9" kvg:element="丿"><path id="kvg:077a5-s11" kvg:type="㇒" d="M80.49 26.98c.36.64.24 1.69-.31 2.79-5.6 11.23-9.76 17.91-21.7 24.85"/></g><path id="kvg:077a5-s12" kvg:type="㇏" d="M62.92 36.06c1.2.0 1.9.45 2.85 1.05 6.43 4.11 18.25 12.07 26.84 15.97 1.58.72 3.25 1.2 4.58 1.27"/></g></g></g><g id="kvg:077a5-g10" kvg:element="目" kvg:position="bottom" kvg:radical="general"><path id="kvg:077a5-s13" kvg:type="㇑" d="M33.55 61.67c.62.79 1.52 1.38 1.52 2.43s-.41 32.73-.41 33.26"/><path id="kvg:077a5-s14" kvg:type="㇕a" d="M34.88 62.69c3.5-.13 32.86-4.23 36.05-4.2 1.32.01 3.02.51 3.02 2.71.0 1.27-.61 29.88-.61 34.65"/><path id="kvg:077a5-s15" kvg:type="㇐a" d="M36.04 72.63c6.9-.18 31.26-2.67 36.87-2.67"/><path id="kvg:077a5-s16" kvg:type="㇐a" d="M36.33 83.24c9.26-.44 27.18-2.58 36.17-2.58"/><path id="kvg:077a5-s17" kvg:type="㇐a" d="M35.39 94.65c7.96-.23 28.58-2.18 37.57-2.18"/></g></g></g><g id="kvg:StrokeNumbers_077a5" style="font-size:8;fill:#808080"><text transform="matrix(1 0 0 1 25.25 11.50)">1</text><text transform="matrix(1 0 0 1 17 16.50)">2</text><text transform="matrix(1 0 0 1 43.50 13.50)">3</text><text transform="matrix(1 0 0 1 10.25 38.40)">4</text><text transform="matrix(1 0 0 1 21.25 31.33)">5</text><text transform="matrix(1 0 0 1 28.50 49.50)">6</text><text transform="matrix(1 0 0 1 21.25 40.50)">7</text><text transform="matrix(1 0 0 1 43.50 38.10)">8</text><text transform="matrix(1 0 0 1 59.50 12.50)">9</text><text transform="matrix(1 0 0 1 72.50 21.50)">10</text><text transform="matrix(1 0 0 1 71.50 31.50)">11</text><text transform="matrix(1 0 0 1 67.50 37.50)">12</text><text transform="matrix(1 0 0 1 23.25 68.50)">13</text><text transform="matrix(1 0 0 1 37.50 59.50)">14</text><text transform="matrix(1 0 0 1 39.45 69.50)">15</text><text transform="matrix(1 0 0 1 39.45 80.50)">16</text><text transform="matrix(1 0 0 1 39.50 91.43)">17</text></g></svg>