<svg xmlns="http://www.w3.org/2000/svg" width="109" height="109" viewBox="0 0 109 109"><g id="kvg:StrokePaths_077bc"><g id="kvg:077bc" kvg:element="瞼"><g id="kvg:077bc-g1" kvg:element="目" kvg:position="left" kvg:radical="general"><path id="kvg:077bc-s1" kvg:type="㇑" d="M12.88 21.07c.29 1.36.71 2.4.71 4.16.0 1.77-.1 57.97.0 59.75"/><path id="kvg:077bc-s2" kvg:type="㇕a" d="M14.07 22.26c1.62-.02 12.48-1.82 13.96-1.9 1.23-.07 2.1 1.49 2.1 3.13.0 6.04-.57 45.89-.57 59.68"/><path id="kvg:077bc-s3" kvg:type="㇐a" d="M14.04 41.84c4.48-.46 11.21-1.02 14.85-.79"/><path id="kvg:077bc-s4" kvg:type="㇐a" d="M14.17 60.14c4.3-.21 10.83-.89 15.29-1.08"/><path id="kvg:077bc-s5" kvg:type="㇐a" d="M13.54 81.25c4.41-.25 10.37-.9 15.95-.87"/></g><g id="kvg:077bc-g2" kvg:element="僉" kvg:position="right"><g id="kvg:077bc-g3" kvg:element="人" kvg:position="top"><path id="kvg:077bc-s6" kvg:type="㇒" d="M62.36 10c.08.85.34 2.28-.15 3.43C59.09 20.7 50.27 35.99 35.5 46.25"/><path id="kvg:077bc-s7" kvg:type="㇏" d="M62.55 15c4.54 5.39 24.11 23.01 29.12 26.96 1.7 1.34 3.88 1.91 5.58 2.29"/></g><g id="kvg:077bc-g4" kvg:position="bottom"><g id="kvg:077bc-g5" kvg:element="一"><path id="kvg:077bc-s8" kvg:type="㇐" d="M51.79 39.96c.79.21 2.23.22 3.02.21 6.05-.06 13.69-.92 18.64-1.68 1.3-.2 2.1.1 2.76.2"/></g><g id="kvg:077bc-g6" kvg:element="口"><path id="kvg:077bc-s9" kvg:type="㇑" d="M39.42 53.68c.28.28.57.52.69.87C41.08 57.33 42.67 65 43.33 70"/><path id="kvg:077bc-s10" kvg:type="㇕b" d="M40.73 55.15c7.09-1.27 14.61-2.64 17.89-3.01 1.2-.13 1.92.79 1.75 1.58-.71 3.25-1.54 8-2.59 12.5"/><path id="kvg:077bc-s11" kvg:type="㇐b" d="M43.46 68.38c3.85-.41 10.58-1.13 15.87-1.76"/></g><g id="kvg:077bc-g7" kvg:element="口"><path id="kvg:077bc-s12" kvg:type="㇑" d="M66.43 50.59c.27.31.55.57.67.95.94 3.07 2.57 11.53 3.21 17.04"/><path id="kvg:077bc-s13" kvg:type="㇕b" d="M68.12 52.67c5.66-1.17 16.3-2.37 19.47-2.77 1.16-.15 1.86.87 1.69 1.74-.69 3.58-2.49 8.41-3.51 13.37"/><path id="kvg:077bc-s14" kvg:type="㇐b" d="M70.43 67.39c3.73-.46 12.38-1.24 17.5-1.94"/></g><g id="kvg:077bc-g8" kvg:element="人"><path id="kvg:077bc-s15" kvg:type="㇒" d="M50.94 72.12c.23 1.19.15 2.33-.16 3.1-2.74 6.75-8.52 15.16-19.76 23.29"/><path id="kvg:077bc-s16" kvg:type="㇏" d="M50.77 79.82c3.36 1.87 7.65 6.84 9.28 11.56"/></g><g id="kvg:077bc-g9" kvg:element="人"><path id="kvg:077bc-s17" kvg:type="㇒" d="M76.35 71.87c.21 1.21.13 2.38-.15 3.16C73.7 81.89 68 90.97 57.78 99.25"/><path id="kvg:077bc-s18" kvg:type="㇏" d="M75.11 81.45c6.77 2.77 15.42 10.14 18.72 17.12"/></g></g></g></g></g></svg>