<svg xmlns="http://www.w3.org/2000/svg" width="109" height="109" viewBox="0 0 109 109"><g id="kvg:StrokePaths_077b3" style="fill:none;stroke:#000000;stroke-width:3;stroke-linecap:round;stroke-linejoin:round;"><g id="kvg:077b3" kvg:element="瞳"><g id="kvg:077b3-g1" kvg:element="目" kvg:position="left" kvg:radical="general"><path id="kvg:077b3-s1" kvg:type="㇑" d="M13.63 23.75c.93.93 1.09 2.15 1.09 3.92.0 1.43.0 34.89.0 50.08.0 3.6.0 6.17.0 7.05"/><path id="kvg:077b3-s2" kvg:type="㇕a" d="M15.29 25.44c4.06-.44 11.11-1.71 14.85-2.17 3.21-.4 4.73.46 4.73 3.98.0 7.41.05 35.8.06 49.88.0 2.75.0 4.95.0 6.34"/><path id="kvg:077b3-s3" kvg:type="㇐a" d="M15.76 42.57c5.34-.46 11.24-1.32 17.89-1.54"/><path id="kvg:077b3-s4" kvg:type="㇐a" d="M15.92 59.91c6.08-.53 10.83-1.03 17.91-1.33"/><path id="kvg:077b3-s5" kvg:type="㇐a" d="M15.91 81.06c5.26-.25 10.46-1.18 17.96-1.37"/></g><g id="kvg:077b3-g2" kvg:element="童" kvg:position="right"><g id="kvg:077b3-g3" kvg:element="立" kvg:position="top"><g id="kvg:077b3-g4" kvg:element="亠" kvg:position="top"><path id="kvg:077b3-s6" kvg:type="㇑a" d="M65.36 13c1.01 1.01 1.18 2.16 1.18 3.68.0 1.53.0 3.94.0 6.05"/><path id="kvg:077b3-s7" kvg:type="㇐" d="M45.11 25.15c1.9.59 4.55.52 6.52.36 7.28-.57 21.53-2.24 30.13-2.73 2.37-.13 4.7-.27 7.04.17"/></g><g id="kvg:077b3-g5" kvg:position="bottom"><path id="kvg:077b3-s8" kvg:type="㇔" d="M54.62 28.38c2.29 2.94 3.34 5.53 3.55 7.47"/><path id="kvg:077b3-s9" kvg:type="㇒" d="M78.18 26.42c.2.83-.05 1.46-.46 2.3-1.41 2.94-2.75 5.18-3.85 6.66"/><path id="kvg:077b3-s10" kvg:type="㇐" d="M41.22 39.39c2.63.78 5.84.43 8.54.18 11.77-1.1 24.43-2.13 37.25-2.78 3.09-.16 5.75.11 8.77.65"/></g></g><g id="kvg:077b3-g6" kvg:element="里" kvg:position="bottom"><g id="kvg:077b3-g7" kvg:element="日"><path id="kvg:077b3-s11" kvg:type="㇑" d="M47.19 48.01c.9.9 1.18 1.87 1.48 3.59.71 4.11 1.72 10.04 2.54 14.89.28 1.63.53 3.14.75 4.42"/><path id="kvg:077b3-s12" kvg:type="㇕a" d="M48.72 49.01c9.68-1.05 21.65-2.26 31.54-3.14 3.06-.27 6.35.56 5.66 4.29-.59 3.25-1.54 8.3-2.73 13.83-.32 1.47-.65 2.97-1 4.48"/><path id="kvg:077b3-s13" kvg:type="㇐a" d="M51.01 58.65c8.11-.65 22.61-2.15 32.61-2.46"/><path id="kvg:077b3-s14" kvg:type="㇐a" d="M52.78 68.95c8.47-.95 17.59-1.57 28.67-2.27"/></g><path id="kvg:077b3-s15" kvg:type="㇑a" d="M65.86 49.38c.56.54 1 1.57 1 2.91.0 10.59-.11 35.61-.11 38.34"/><path id="kvg:077b3-s16" kvg:type="㇐" d="M48.08 79.58c2.04.66 4.08.5 6.18.3 8.11-.76 18.59-1.68 26.86-1.96 2.47-.08 4.33.18 6.7.64"/><path id="kvg:077b3-s17" kvg:type="㇐" d="M40.49 92.29c2.66 1.11 5.07.87 7.88.68C58.79 92.25 77 90.75 88 90.45c2.71-.07 5.36.22 7.97.88"/></g></g></g></g></svg>