<svg xmlns="http://www.w3.org/2000/svg" width="109" height="109" viewBox="0 0 109 109"><g id="kvg:StrokePaths_077da" style="fill:none;stroke:#000000;stroke-width:3;stroke-linecap:round;stroke-linejoin:round;"><g id="kvg:077da" kvg:element="矚"><g id="kvg:077da-g1" kvg:element="目" kvg:position="left" kvg:radical="general"><path id="kvg:077da-s1" kvg:type="㇑" d="M13.64 18.57c.61.93 1.03 2.4 1.03 4.16.0 1.77-.04 58.97.0 60.75"/><path id="kvg:077da-s2" kvg:type="㇕a" d="M14.74 21.26c1.62-.02 12.5-1.64 13.96-1.9 1.97-.35 3.1.99 3.1 2.63.0 6.04-.57 46.89-.57 60.68"/><path id="kvg:077da-s3" kvg:type="㇐a" d="M14.71 39.62c4.48-.32 12.21-1.2 15.85-1.04"/><path id="kvg:077da-s4" kvg:type="㇐a" d="M14.84 57.95c4.3-.14 10.54-1.16 16.29-.9"/><path id="kvg:077da-s5" kvg:type="㇐a" d="M15.71 80.22c4.02-.14 10.36-1 15.45-.99"/></g><g id="kvg:077da-g2" kvg:element="屬" kvg:position="right"><g id="kvg:077da-g3" kvg:element="尸" kvg:position="tare"><path id="kvg:077da-s6" kvg:type="㇕c" d="M43.38 13.61c1.59.67 3.44.85 5.15.78 10.86-.45 36.91-1.59 40.59-2 2.43-.28 3.02 1.05 2.53 3.52-.62 3.12-1.31 5.41-2.15 9.13"/><path id="kvg:077da-s7" kvg:type="㇐b" d="M47.12 26.69c5.11.0 40.58-1.7 44.88-1.7"/><path id="kvg:077da-s8" kvg:type="㇒" d="M46.21 14.79c-.13 4.45-.21 15.71-.19 20.5C46.17 59.35 42 79.5 30.48 93.93"/></g><g id="kvg:077da-g4" kvg:position="tarec"><path id="kvg:077da-s9" kvg:type="㇑" d="M70.74 28.52c.07.72.11 1.56.05 3.93-.3 11.39-.21 7.19-.33 11.07"/><g id="kvg:077da-g5" kvg:element="二"><path id="kvg:077da-s10" kvg:type="㇐" d="M53.08 33.54c.25.15.7.08.94.13 2.46.53 9.68-1.21 11.2-1.06.41.04.65.06.85.12"/><path id="kvg:077da-s11" kvg:type="㇐" d="M51.97 40.67c.28.14.78.07 1.04.13 2.73.51 10.8-1.1 12.48-.96.45.03.73.06.96.13"/></g><g id="kvg:077da-g6" kvg:element="二"><path id="kvg:077da-s12" kvg:type="㇐" d="M78.4 32.25c.26.08.74.02 1 .04 2.63.21 10.31-1.11 11.93-1.08.43.01.7.01.91.04"/><path id="kvg:077da-s13" kvg:type="㇐" d="M78.56 39.59c.32.14.89.06 1.2.12 3.14.48 12.38-1.34 14.32-1.23.52.04.83.05 1.1.11"/></g><g id="kvg:077da-g7" kvg:element="蜀"><g id="kvg:077da-g8" kvg:element="罒" kvg:variant="true" kvg:original="网" kvg:position="top"><path id="kvg:077da-s14" kvg:type="㇑" d="M52.35 47.74c.19.24.4.43.48.71.64 2.27 2.73 7.83 3.09 11.89"/><path id="kvg:077da-s15" kvg:type="㇕a" d="M53.54 50.08c4.46-.65 35.05-2.83 37.42-3.02.86-.07 2.01.73 1.74 1.85-.55 2.32-1.84 6.42-3.23 9.71"/><path id="kvg:077da-s16" kvg:type="㇑a" d="M65.93 49.37c.1 1.27.24 5.57.81 8.86"/><path id="kvg:077da-s17" kvg:type="㇑a" d="M78.59 48.15c-.2 2.2-1.02 7.92-1.34 9.26"/><path id="kvg:077da-s18" kvg:type="㇐a" d="M56.6 59.14c2.82-.25 29.82-2.03 33.69-2.44"/></g><g id="kvg:077da-g9" kvg:position="bottom"><g id="kvg:077da-g10" kvg:element="勹"><g id="kvg:077da-g11" kvg:element="丿"><path id="kvg:077da-s19" kvg:type="㇒" d="M60.42 61.75c.03.36.06.93-.12 1.45-1.09 3.03-7 9.58-14.95 13.47"/></g><path id="kvg:077da-s20" kvg:type="㇆" d="M59.75 67.56c.85.43 2.02.5 3.41.37 5-.49 23.33-3.3 26.76-3.33 3.42-.04 3.91 1.44 3.46 4.25C92.21 76.27 91 86 85.34 97.39c-1.85 4.96-3.48.9-5.45-.83"/></g><g id="kvg:077da-g12" kvg:element="虫"><g id="kvg:077da-g13" kvg:element="中"><g id="kvg:077da-g14" kvg:element="口"><path id="kvg:077da-s21" kvg:type="㇑" d="M53.88 74.44c.4.22.91 1.04.98 1.32.5 2.04.86 5.05 1.54 8.91"/><path id="kvg:077da-s22" kvg:type="㇕b" d="M55.56 75.26c6.33-.22 17.78-2.07 22.34-2.34 1.2-.07 2.58.97 2.34 1.57-.82 2.06-.98 3.14-2.33 6.55"/><path id="kvg:077da-s23" kvg:type="㇐b" d="M56.69 83.22c5.1-.26 14.81-1.75 21.94-1.92"/></g><g id="kvg:077da-g15" kvg:element="丨"><path id="kvg:077da-s24" kvg:type="㇑a" d="M66.07 69.37c.19.65.3 1.98.28 2.61-.09 3.1-.61 12.52-.61 17.57"/></g></g><path id="kvg:077da-s25" kvg:type="㇀" d="M50.96 91.91c.63.27 1.02.63 1.64.53s21.33-4.16 25.17-4.9"/><path id="kvg:077da-s26" kvg:type="㇔" d="M74.5 84.64c1.7 1.21 4.34 4.93 4.73 6.76"/></g></g></g></g></g></g></g></svg>