<svg xmlns="http://www.w3.org/2000/svg" width="109" height="109" viewBox="0 0 109 109"><g id="kvg:StrokePaths_077fc" style="fill:none;stroke:#000000;stroke-width:3;stroke-linecap:round;stroke-linejoin:round;"><g id="kvg:077fc" kvg:element="矼"><g id="kvg:077fc-g1" kvg:element="石" kvg:position="left" kvg:radical="general"><path id="kvg:077fc-s1" kvg:type="㇐" d="M12.32 26.49c.69.14 1.96.17 2.64.14 8.64-.47 14.7-1.47 26.25-2.29 1.15-.08 1.84.06 2.42.13"/><path id="kvg:077fc-s2" kvg:type="㇒" d="M26.2 28.26c.05 1.04.11 2.68-.1 4.15-1.31 8.77-8.82 27.98-19.09 39.77"/><g id="kvg:077fc-g2" kvg:element="口"><path id="kvg:077fc-s3" kvg:type="㇑" d="M21.41 54.69c.29.48.59.88.71 1.49 1.01 4.78 1.73 18.97 2.42 27.57"/><path id="kvg:077fc-s4" kvg:type="㇕b" d="M22.73 55.92c8.02-1.42 15.04-2.48 18.52-3.22 1.27-.27 2.03 1.6 1.85 3.18-.75 6.57-2.7 14.51-3.82 23.58"/><path id="kvg:077fc-s5" kvg:type="㇐b" d="M24.54 80.76c5.16-.84 9.87-.56 16.64-1.63"/></g></g><g id="kvg:077fc-g3" kvg:element="工" kvg:position="right"><path id="kvg:077fc-s6" kvg:type="㇐" d="M50.5 25.47c.95.52 4.03.53 5 .53 6.25.0 26.5-2.25 34-2.79 1.46-.11 2.79.1 4 .54"/><path id="kvg:077fc-s7" kvg:type="㇑a" d="M68.87 27.25c1.63 2.25 1.27 4.71 1.27 7.06.0 16.47-.07 22.86-.07 51.1"/><path id="kvg:077fc-s8" kvg:type="㇐" d="M41.25 87.66c.96.45 4.37.92 5.99.72 17.44-2.19 30.19-3.25 46.07-3.93 2.6-.11 5.73.75 7.03 1.46"/></g></g></g></svg>