<svg xmlns="http://www.w3.org/2000/svg" width="109" height="109" viewBox="0 0 109 109"><g id="kvg:StrokePaths_0780c"><g id="kvg:0780c" kvg:element="砌"><g id="kvg:0780c-g1" kvg:element="石" kvg:position="left" kvg:radical="general"><path id="kvg:0780c-s1" kvg:type="㇐" d="M11.88 28.77c.65.24 1.86.31 2.5.24 8.17-.82 14.89-2.06 25.8-3.49 1.09-.14 1.74.11 2.28.22"/><path id="kvg:0780c-s2" kvg:type="㇒" d="M26.28 29.68c.05.93.11 2.39-.1 3.71-1.26 7.82-7.91 25-17.69 35.52"/><g id="kvg:0780c-g2" kvg:element="口"><path id="kvg:0780c-s3" kvg:type="㇑" d="M21 54.29c.28.42.56.77.68 1.3.96 4.17 2.12 17.67 2.78 25.16"/><path id="kvg:0780c-s4" kvg:type="㇕b" d="M21.73 55.14C29.5 53.5 36.34 53 39.6 52.33c1.19-.24 1.9 1.45 1.73 2.87-.7 5.93-1.61 12.6-2.66 20.8"/><path id="kvg:0780c-s5" kvg:type="㇐b" d="M24.59 78.13c5.07-.54 9.2-1.03 15.85-1.71"/></g></g><g id="kvg:0780c-g3" kvg:element="切" kvg:position="right"><g id="kvg:0780c-g4" kvg:element="七" kvg:position="left"><g id="kvg:0780c-g5" kvg:element="一"><path id="kvg:0780c-s6" kvg:type="㇐" d="M41.3 43.57c.76.25 2.15.42 2.9.35 7.52-.62 17.2-3.03 22.2-3.87 1.24-.21 2.04-.16 2.67-.03"/></g><path id="kvg:0780c-s7" kvg:type="㇟a" d="M52.01 15.41c.53 1.13 1.09 1.9 1.22 3.38.12 1.49-.2 40.87-.57 45.44-.44 5.5 1.56 8.91 5.16 9.08 3.96.19 5.94.28 9.75-.37"/></g><g id="kvg:0780c-g6" kvg:element="刀" kvg:position="right"><path id="kvg:0780c-s8" kvg:type="㇆" d="M65.99 24.06c1.24.94 2.87.91 4 .66C80 23 87.08 22.2 92.2 21.55c3.33-.43 4.7 1.98 4.32 6.06-.77 15.89-2.78 47.36-8.26 62.34-4.4 11.98-7.49.05-8.77-1.29"/><path id="kvg:0780c-s9" kvg:type="㇒" d="M79.07 27.01c.18 1.74.38 2.57.1 4.83C78.25 55.75 70 80.75 58.84 92.35"/></g></g></g></g></svg>