<!DOCTYPE svg PUBLIC "-//W3C//DTD SVG 1.0//EN" "http://www.w3.org/TR/2001/REC-SVG-20010904/DTD/svg10.dtd" [
<!ATTLIST g
xmlns:kvg CDATA #FIXED "http://kanjivg.tagaini.net"
kvg:element CDATA #IMPLIED
kvg:variant CDATA #IMPLIED
kvg:partial CDATA #IMPLIED
kvg:original CDATA #IMPLIED
kvg:part CDATA #IMPLIED
kvg:number CDATA #IMPLIED
kvg:tradForm CDATA #IMPLIED
kvg:radicalForm CDATA #IMPLIED
kvg:position CDATA #IMPLIED
kvg:radical CDATA #IMPLIED
kvg:phon CDATA #IMPLIED >
<!ATTLIST path
xmlns:kvg CDATA #FIXED "http://kanjivg.tagaini.net"
kvg:type CDATA #IMPLIED >
]><svg xmlns="http://www.w3.org/2000/svg" width="109" height="109" viewBox="0 0 109 109"><g id="kvg:StrokePaths_07826" style="fill:none;stroke:#000000;stroke-width:3;stroke-linecap:round;stroke-linejoin:round;"><g id="kvg:07826" kvg:element="砦"><g id="kvg:07826-g1" kvg:element="此" kvg:position="top"><g id="kvg:07826-g2" kvg:element="止" kvg:position="left"><g id="kvg:07826-g3" kvg:element="卜" kvg:original="ト"><path id="kvg:07826-s1" kvg:type="㇑a" d="M37.7 11.73c.91.91 1.09 2.02 1.09 2.97.0.63-.04 24.92-.04 31.43"/><path id="kvg:07826-s2" kvg:type="㇐b" d="M40 28.65c3.21-.37 7.74-1.04 11.13-1.53 1.32-.27 2.66-.37 4.01-.29"/></g><path id="kvg:07826-s3" kvg:type="㇑a" d="M25.69 29.1c.79.79 1.09 1.77 1.09 2.72.0 3.33.09 13.54.09 17.93"/><path id="kvg:07826-s4" kvg:type="㇐" d="M17.54 51.9c1.21 1.1 2.31 1.18 4.11.62 12.09-3.76 20.22-6.36 32.47-10.01"/></g><g id="kvg:07826-g4" kvg:element="匕" kvg:position="right"><path id="kvg:07826-s5" kvg:type="㇒" d="M88.95 16.01c-.09 1.15-.55 2.05-1.37 2.7-3.17 2.88-10.56 8.01-19.83 12.17"/><path id="kvg:07826-s6" kvg:type="㇟" d="M63.58 11c1.02 1.02 1.17 2.12 1.17 3.09.0.89-.12 21.96-.12 27.53.0 6.91 2.91 8.25 15.27 8.25 10.36.0 14.56-1.88 14.56-7.46"/></g></g><g id="kvg:07826-g5" kvg:element="石" kvg:position="bottom" kvg:radical="general"><path id="kvg:07826-s7" kvg:type="㇐" d="M21.23 61.31c4.64.52 9.23.08 13.89-.33 14-1.23 30.59-2.44 45.63-2.81 3.75-.09 7.44-.24 11.12.44"/><path id="kvg:07826-s8" kvg:type="㇒" d="M43.68 63.87c0 1.26-.2 2.11-.67 3.06-3.13 6.32-12.75 16.94-30.25 25.94"/><g id="kvg:07826-g6" kvg:element="口"><path id="kvg:07826-s9" kvg:type="㇑" d="M39.99 77.24c.95.95 1.26 1.88 1.45 3.17.51 3.45 1.02 7.44 1.85 13.37.23 1.66.49 3.47.78 5.47"/><path id="kvg:07826-s10" kvg:type="㇕b" d="M42.01 78.65c9.32-1.26 27.49-3.34 35.49-3.84 3.81-.24 5.55.79 4.95 3.47-.95 4.22-2.7 8.47-5.45 17.2"/><path id="kvg:07826-s11" kvg:type="㇐b" d="M44.81 97.51c5.88-.37 17.6-1.14 27.69-1.58 2.23-.1 4.38-.18 6.36-.23"/></g></g></g></g><g id="kvg:StrokeNumbers_07826" style="font-size:8;fill:#808080"><text transform="matrix(1 0 0 1 28.50 11.63)">1</text><text transform="matrix(1 0 0 1 42.50 24.50)">2</text><text transform="matrix(1 0 0 1 16.50 28.50)">3</text><text transform="matrix(1 0 0 1 9.25 54.40)">4</text><text transform="matrix(1 0 0 1 79.50 15.50)">5</text><text transform="matrix(1 0 0 1 55.50 10.50)">6</text><text transform="matrix(1 0 0 1 13.50 63.18)">7</text><text transform="matrix(1 0 0 1 33.50 70.50)">8</text><text transform="matrix(1 0 0 1 35.25 88.50)">9</text><text transform="matrix(1 0 0 1 45.50 75.95)">10</text><text transform="matrix(1 0 0 1 46.50 94.50)">11</text></g></svg>