<svg xmlns="http://www.w3.org/2000/svg" width="109" height="109" viewBox="0 0 109 109"><g id="kvg:StrokePaths_0783f" style="fill:none;stroke:#000000;stroke-width:3;stroke-linecap:round;stroke-linejoin:round;"><g id="kvg:0783f" kvg:element="砿"><g id="kvg:0783f-g1" kvg:element="石" kvg:position="left" kvg:radical="general"><path id="kvg:0783f-s1" kvg:type="㇐" d="M12.38 24.97c1.7.44 3.39.36 5.13.2 6.24-.55 10.86-.92 18.24-1.92 1.78-.24 3.58-.22 5.37-.12"/><path id="kvg:0783f-s2" kvg:type="㇒" d="M24.96 27.68c.17 1.2.23 2.12-.08 3.25C22.38 40 18.5 50.38 10.25 61"/><g id="kvg:0783f-g2" kvg:element="口"><path id="kvg:0783f-s3" kvg:type="㇑" d="M18.5 52.79c.6.84.89 1.78.98 2.81.51 6.28 1.02 12.46 1.56 19.63.14 1.85.28 3.76.43 5.76"/><path id="kvg:0783f-s4" kvg:type="㇕b" d="M20.48 54.62c5.67-1.35 10.16-2.25 13.38-2.83 2.14-.38 3.71.45 3.34 2.97C36.42 60.03 34.99 69.5 34 75.84"/><path id="kvg:0783f-s5" kvg:type="㇐b" d="M22.34 78.34c3.12-.25 5.86-.74 9.66-1.09 1.26-.12 2.65-.22 4.19-.3"/></g></g><g id="kvg:0783f-g3" kvg:element="広" kvg:position="right"><g id="kvg:0783f-g4" kvg:element="广" kvg:position="tare"><path id="kvg:0783f-s6" kvg:type="㇑a" d="M69.98 12.32c.91.91 1.26 1.81 1.26 3.1.0.66.05 7.37-.04 11.46"/><g id="kvg:0783f-g5" kvg:element="厂"><path id="kvg:0783f-s7" kvg:type="㇐" d="M46.68 29.63c3.19.44 6.39.4 9.58-.1 10.76-.92 22.98-2.37 31.86-2.82 2.67-.23 5.34-.18 8 .16"/><path id="kvg:0783f-s8" kvg:type="㇒" d="M50.21 30.82c.93.92 1.14 1.93 1.14 3.58.0 12.98 1.57 41.97-17.6 58.11"/></g></g><g id="kvg:0783f-g6" kvg:element="厶" kvg:position="tarec"><path id="kvg:0783f-s9" kvg:type="㇜" d="M73.9 44.38c0 1.37-.21 2.59-.74 3.79C67.38 61.38 63.5 69 55.75 83.07c-1.87 3.4-.06 4.39 2.78 3.53 7.78-2.36 20.71-6.61 31.34-9.85"/><path id="kvg:0783f-s10" kvg:type="㇔" d="M82.3 62.33c4.77 4.39 12.58 18.3 13.77 25.13"/></g></g></g></g></svg>