<!DOCTYPE svg PUBLIC "-//W3C//DTD SVG 1.0//EN" "http://www.w3.org/TR/2001/REC-SVG-20010904/DTD/svg10.dtd" [
<!ATTLIST g
xmlns:kvg CDATA #FIXED "http://kanjivg.tagaini.net"
kvg:element CDATA #IMPLIED
kvg:variant CDATA #IMPLIED
kvg:partial CDATA #IMPLIED
kvg:original CDATA #IMPLIED
kvg:part CDATA #IMPLIED
kvg:number CDATA #IMPLIED
kvg:tradForm CDATA #IMPLIED
kvg:radicalForm CDATA #IMPLIED
kvg:position CDATA #IMPLIED
kvg:radical CDATA #IMPLIED
kvg:phon CDATA #IMPLIED >
<!ATTLIST path
xmlns:kvg CDATA #FIXED "http://kanjivg.tagaini.net"
kvg:type CDATA #IMPLIED >
]><svg xmlns="http://www.w3.org/2000/svg" width="109" height="109" viewBox="0 0 109 109"><g id="kvg:StrokePaths_07832" style="fill:none;stroke:#000000;stroke-width:3;stroke-linecap:round;stroke-linejoin:round;"><g id="kvg:07832" kvg:element="砲"><g id="kvg:07832-g1" kvg:element="石" kvg:position="left" kvg:radical="general"><path id="kvg:07832-s1" kvg:type="㇐" d="M11.99 27.14c1.69.49 3.17.42 4.9.23 6.73-.71 12.49-1.87 21.5-3.53 1.84-.34 3.65-.5 5.49-.18"/><path id="kvg:07832-s2" kvg:type="㇒" d="M25.4 30.3c.35 1.2.21 2.38-.09 3.81C23.38 43.25 17.91 59.98 9 71.49"/><g id="kvg:07832-g2" kvg:element="口"><path id="kvg:07832-s3" kvg:type="㇑" d="M19.8 55.22c.93.93 1.21 1.78 1.44 3.17.75 4.39 1.29 11.69 1.91 18.12.18 1.92.35 3.77.5 5.44"/><path id="kvg:07832-s4" kvg:type="㇕b" d="M21.73 56.75c6.14-1.47 12.83-3.11 17.24-4 3.38-.68 4.8-.13 4.25 3.64-.83 5.67-1.95 13.88-3.02 20.73"/><path id="kvg:07832-s5" kvg:type="㇐b" d="M24.8 80c4.79-.38 8.22-.97 13.46-1.4 1.26-.1 2.62-.21 4.13-.32"/></g></g><g id="kvg:07832-g3" kvg:element="包" kvg:position="right" kvg:phon="包"><g id="kvg:07832-g4" kvg:element="勹"><g id="kvg:07832-g5" kvg:element="丿"><path id="kvg:07832-s6" kvg:type="㇒" d="M61.86 12.25c.05.74.26 1.96-.1 2.96-2.34 6.52-8.43 18.51-17.15 28.02"/></g><path id="kvg:07832-s7" kvg:type="㇆" d="M57.74 29.18c2.51.69 4.76.48 6.74.19 5.51-.83 18.23-2.86 23.27-3.48 3.96-.49 5.65.99 5.42 5-.56 9.62-2.42 24.34-6.21 36.3-1.62 5.12-3.51 5.28-7.06 1.36"/></g><g id="kvg:07832-g6" kvg:element="己"><path id="kvg:07832-s8" kvg:type="㇕c" d="M53.28 44.99c1.84.88 3.75.75 5.6.45 3.58-.59 10.15-1.84 13.39-2.41 2.45-.44 4.74-.09 4.01 3.17-.16.73-1.91 8.55-3.12 13.78"/><path id="kvg:07832-s9" kvg:type="㇐" d="M52 62c.94.2 2.24.93 3.75.81 4.72-.38 10.22-1.21 14.74-1.65 2.19-.21 3.39-.28 5.18.01"/><path id="kvg:07832-s10" kvg:type="㇟" d="M53.77 63.27C54.5 64 54.78 65 54.78 66.36c0 5.43-.03 12.9-.03 17.64.0 9.15 1.38 10.94 21.24 10.94 18.26.0 19.9-1.94 19.9-12.64"/></g></g></g></g><g id="kvg:StrokeNumbers_07832" style="font-size:8;fill:#808080"><text transform="matrix(1 0 0 1 5.50 28.50)">1</text><text transform="matrix(1 0 0 1 17.50 37.50)">2</text><text transform="matrix(1 0 0 1 15.75 73.63)">3</text><text transform="matrix(1 0 0 1 25.50 51.50)">4</text><text transform="matrix(1 0 0 1 27.50 76.55)">5</text><text transform="matrix(1 0 0 1 53.50 13.50)">6</text><text transform="matrix(1 0 0 1 63.50 26.50)">7</text><text transform="matrix(1 0 0 1 54.50 42.50)">8</text><text transform="matrix(1 0 0 1 57.50 59.50)">9</text><text transform="matrix(1 0 0 1 44.50 68.50)">10</text></g></svg>