<svg xmlns="http://www.w3.org/2000/svg" width="109" height="109" viewBox="0 0 109 109"><g id="kvg:StrokePaths_0786f"><g id="kvg:0786f" kvg:element="硯"><g id="kvg:0786f-g1" kvg:element="石" kvg:position="left" kvg:radical="general"><path id="kvg:0786f-s1" kvg:type="㇐" d="M14.88 26.51c1.88.27 3.75.23 5.62-.1 6.58-.93 11.12-1.04 18.89-2.2 1.76-.26 3.49-.39 5.24-.13"/><path id="kvg:0786f-s2" kvg:type="㇒" d="M26.71 29.18c.29 1.2.0 2.13-.33 3.4C23.88 42 18.75 58.12 10.5 67.25"/><g id="kvg:0786f-g2" kvg:element="口"><path id="kvg:0786f-s3" kvg:type="㇑" d="M22.17 52.04c.71.71.83 1.58.97 2.72.35 2.93.85 8.79 1.26 14.49.14 1.98.28 3.94.4 5.75"/><path id="kvg:0786f-s4" kvg:type="㇕b" d="M23.98 53.37c6.09-1.01 11.64-1.87 15.77-2.74 2.17-.46 4.6-.08 4.08 2.22-1.21 5.4-1.96 9.77-3.58 17.24"/><path id="kvg:0786f-s5" kvg:type="㇐b" d="M26.09 72.34c4.45-.44 6.96-.7 10.9-1.03 1.29-.11 2.74-.23 4.45-.36"/></g></g><g id="kvg:0786f-g3" kvg:element="見" kvg:position="right"><g id="kvg:0786f-g4" kvg:element="目" kvg:position="top"><path id="kvg:0786f-s6" kvg:type="㇑" d="M53.44 17.69c.81.81 1.34 2.19 1.34 3.48.0 1.04.0 22.24.0 34.7.0 4.34.0 7.62.0 8.62"/><path id="kvg:0786f-s7" kvg:type="㇕a" d="M55.52 18.86c2.25-.16 17.75-2.56 22.53-3.21 2.37-.32 4.49 1.15 4.48 3.6-.01 4.85-.07 21.48-.11 32.5-.02 4.84-.03 8.6-.03 9.81"/><path id="kvg:0786f-s8" kvg:type="㇐a" d="M55.98 33.92c4.64-.54 20.27-2.54 25.38-2.85"/><path id="kvg:0786f-s9" kvg:type="㇐a" d="M55.94 47.32c8.81-.82 17.31-1.95 25.63-2.35"/><path id="kvg:0786f-s10" kvg:type="㇐a" d="M55.84 60.69c8.66-.94 17.54-2.06 25.63-2.35"/></g><g id="kvg:0786f-g5" kvg:element="儿" kvg:position="bottom"><path id="kvg:0786f-s11" kvg:type="㇒" d="M60.24 69.5c0 1.62-.49 2.4-.98 3.51C55.88 80.12 49.78 88.72 39 95.25"/><path id="kvg:0786f-s12" kvg:type="㇟" d="M71.86 61.97c.84.84 1.11 1.78 1.11 3.86.0 4.7-.09 11.76-.09 17.18.0 9.58.62 11.37 11.87 11.37C96.5 94.37 97 93.25 97 85.66"/></g></g></g></g></svg>