<svg xmlns="http://www.w3.org/2000/svg" width="109" height="109" viewBox="0 0 109 109"><g id="kvg:StrokePaths_07874"><g id="kvg:07874" kvg:element="硴"><g id="kvg:07874-g1" kvg:element="石" kvg:position="left" kvg:radical="general"><path id="kvg:07874-s1" kvg:type="㇐" d="M13.18 25.24c.63.22 1.81.3 2.43.26 7.99-.56 13.62-1.99 24.3-3.03 1.06-.11 1.7.13 2.23.24"/><path id="kvg:07874-s2" kvg:type="㇒" d="M26.45 27.73c.05.95.11 2.46-.1 3.82C25.04 39.6 18.63 57.3 8.5 68.13"/><g id="kvg:07874-g2" kvg:element="口"><path id="kvg:07874-s3" kvg:type="㇑" d="M19.17 55.67c.31.49.61.89.75 1.5 1.03 4.74 1.82 18.07 2.55 26.79"/><path id="kvg:07874-s4" kvg:type="㇕b" d="M21.23 57.1C27 56 35.42 55.39 39.06 54.71c1.33-.25 2.12 1.48 1.93 2.93-.78 6.06-1.83 13.38-3 21.75"/><path id="kvg:07874-s5" kvg:type="㇐b" d="M23.09 81.44c5.02-.61 9.6-1.16 16.18-1.92"/></g></g><g id="kvg:07874-g3" kvg:element="花" kvg:position="right"><g id="kvg:07874-g4" kvg:element="艹" kvg:variant="true" kvg:original="艸" kvg:position="top"><path id="kvg:07874-s6" kvg:type="㇐" d="M48.92 23.93c.92.3 1.99.33 2.91.3 10.06-.32 25.13-2.32 42.76-2.4 1.53-.01 2.45.14 3.22.3"/><path id="kvg:07874-s7" kvg:type="㇑a" d="M60.58 13.03c1.03 1.31 1.35 1.72 1.41 2.47.6 7.17 1.1 14.45 1.23 17.06"/><path id="kvg:07874-s8" kvg:type="㇑a" d="M82.37 12.07c.63.93.96 1.7.83 2.91-.84 7.13-1.19 10.62-2.15 17.34"/></g><g id="kvg:07874-g5" kvg:element="化" kvg:position="bottom"><g id="kvg:07874-g6" kvg:element="亻" kvg:variant="true" kvg:original="人"><path id="kvg:07874-s9" kvg:type="㇒" d="M64.03 39.83c0 1.49-.63 3.77-1.26 5.05C58.66 53.2 50.51 63.64 45.1 69.15"/><path id="kvg:07874-s10" kvg:type="㇑" d="M58.27 57.64c.81 1.19.64 2.36.67 3.58.18 9.13-.6 29.85-.13 34.33"/></g><g id="kvg:07874-g7" kvg:element="匕"><path id="kvg:07874-s11" kvg:type="㇒" d="M94.66 47.3c0 1.36.03 2.87-1.05 3.97-4.94 4.98-9.84 9.61-16.41 14.34"/><path id="kvg:07874-s12" kvg:type="㇟" d="M75.12 41.24c.43.82 1 2.97 1 4.1.0 3.38-.11 24.16-.11 36.66s1.49 13.71 10.24 13.71 10.08-1.46 10.08-10.53"/></g></g></g></g></g></svg>