<svg xmlns="http://www.w3.org/2000/svg" width="109" height="109" viewBox="0 0 109 109"><g id="kvg:StrokePaths_07887"><g id="kvg:07887" kvg:element="碇"><g id="kvg:07887-g1" kvg:element="石" kvg:position="left" kvg:radical="general"><path id="kvg:07887-s1" kvg:type="㇐" d="M11.88 29.66c.68.2 1.93.25 2.6.2 8.49-.69 14.44-1.65 25.78-2.85 1.12-.12 1.81.09 2.37.19"/><path id="kvg:07887-s2" kvg:type="㇒" d="M24.45 32.18c.04.84.09 2.18-.09 3.39C23.27 42.71 17.04 58.4 8.5 68"/><g id="kvg:07887-g2" kvg:element="口"><path id="kvg:07887-s3" kvg:type="㇑" d="M20.5 53.27c.28.41.56.76.68 1.27.96 4.09 2.12 14.87 2.78 22.21"/><path id="kvg:07887-s4" kvg:type="㇕b" d="M22.23 55.06c6.77-1.59 13.61-2.53 16.87-3.07 1.19-.2 1.9 1.16 1.73 2.32-.7 4.78-2.03 10.55-3.08 17.15"/><path id="kvg:07887-s5" kvg:type="㇐b" d="M24.09 74.64C29 73.82 33 73.58 39.44 72.55"/></g></g><g id="kvg:07887-g3" kvg:element="定" kvg:position="right"><g id="kvg:07887-g4" kvg:element="宀" kvg:position="top"><path id="kvg:07887-s6" kvg:type="㇑a" d="M68.16 11.92c.71.8 1.93 2.8 1.91 3.9C70 19.28 70 21.79 69.99 24.94"/><g id="kvg:07887-g5" kvg:element="冖"><path id="kvg:07887-s7" kvg:type="㇔" d="M49.83 25.91c0 3.09-2.3 11.58-3.35 13.64"/><path id="kvg:07887-s8" kvg:type="㇖b" d="M50.12 27.89c11.15-1.95 29.97-4.21 40.47-4.68 9.64-.43 3.05 4.75.05 7.29"/></g></g><g id="kvg:07887-g6" kvg:element="疋" kvg:variant="true" kvg:position="bottom"><path id="kvg:07887-s9" kvg:type="㇐" d="M52.82 43.96c2.07.42 4.07.33 6.17.0 4.97-.78 23.21-3.4 26.5-3.4 2.84.0 1.83.12 4.11.12"/><g id="kvg:07887-g7" kvg:element="龰"><g id="kvg:07887-g8" kvg:element="卜" kvg:original="ト"><path id="kvg:07887-s10" kvg:type="㇑" d="M68.41 44.95c.81.42 1.3 1.9 1.46 2.75s.37 30.08.21 35.37"/><path id="kvg:07887-s11" kvg:type="㇐" d="M70.28 63.47c5.3-.63 8.91-1.27 16.9-2.54 1.29-.2 1.62-.21 2.43.0"/></g><g id="kvg:07887-g9" kvg:element="人"><path id="kvg:07887-s12" kvg:type="㇒" d="M54.54 58.46c.04.81.09 2.1-.09 3.27-1.05 6.9-6.95 22.52-15.39 29.94"/><path id="kvg:07887-s13" kvg:type="㇏" d="M51.69 71.3c6.56 4.2 24.56 17.7 32.82 21.8 2.12 1.05 5.24 2.4 9.99 2.9"/></g></g></g></g></g></g></svg>