<svg xmlns="http://www.w3.org/2000/svg" width="109" height="109" viewBox="0 0 109 109"><g id="kvg:StrokePaths_07891"><g id="kvg:07891" kvg:element="碑"><g id="kvg:07891-g1" kvg:element="石" kvg:position="left" kvg:radical="general"><path id="kvg:07891-s1" kvg:type="㇐" d="M13.38 24.96c1.58.5 3.87.36 5.5.24 6.66-.49 11.8-1.24 20.87-2.29 1.47-.17 2.68-.26 4.12.02"/><path id="kvg:07891-s2" kvg:type="㇒" d="M27.7 27.64c.3.99.22 1.99-.09 3.19-2.11 7.93-8.23 23.05-17.11 33.15"/><g id="kvg:07891-g2" kvg:element="口"><path id="kvg:07891-s3" kvg:type="㇑" d="M20 52.81c.91.91 1.2 2.08 1.3 3.45.42 5.7.84 13.14 1.31 19.98.11 1.67.23 3.27.35 4.76"/><path id="kvg:07891-s4" kvg:type="㇕b" d="M22.23 54.55c6.37-1.19 12.37-2.25 16.16-2.84 1.9-.29 4.12.26 3.69 2.76-1.08 6.4-2.33 13.03-3.83 21.08"/><path id="kvg:07891-s5" kvg:type="㇐b" d="M23.84 78.35c3.41-.47 6.91-.85 12.92-1.59 1.28-.16 2.67-.19 4.18-.29"/></g></g><g id="kvg:07891-g3" kvg:element="卑" kvg:position="right" kvg:phon="卑"><g id="kvg:07891-g4" kvg:position="top"><g id="kvg:07891-g5" kvg:element="丿"><path id="kvg:07891-s6" kvg:type="㇒" d="M69.29 10.64c.02.33.04.84-.03 1.31-.41 2.76-2.75 8.81-5.94 12.52"/></g><g id="kvg:07891-g6" kvg:element="田"><path id="kvg:07891-s7" kvg:type="㇑" d="M50.99 26.09c.96.96 1.17 2 1.41 3.22 1.09 5.56 1.99 11.55 2.67 17.96.19 1.8.37 3.56.53 5.19"/><path id="kvg:07891-s8" kvg:type="㇕a" d="M52.87 27.44c10.65-1.7 24.91-3.23 34.51-4 3.78-.3 5.97-.21 5.5 4.09-.44 4.01-1.81 11.3-2.84 17.48-.29 1.71-.56 3.35-.82 4.84"/><path id="kvg:07891-s9" kvg:type="㇑a" d="M70.2 26.97c.85 1.07 1.28 1.22 1.3 1.92.24 6.31.09 15.93.09 19.41"/><path id="kvg:07891-s10" kvg:type="㇐a" d="M55.12 38.25c7.25-.75 25.5-2.25 35.48-2.61"/><path id="kvg:07891-s11" kvg:type="㇐a" d="M56.39 50.21c8.36-.96 20.49-1.96 32.08-2.51"/></g></g><g id="kvg:07891-g7" kvg:position="bottom"><g id="kvg:07891-g8" kvg:element="丿"><path id="kvg:07891-s12" kvg:type="㇒" d="M63.73 53.43c.07 1.05-.02 1.66-.46 2.64-1.85 4.1-4.32 8.24-8.65 13.81"/></g><g id="kvg:07891-g9" kvg:element="十"><path id="kvg:07891-s13" kvg:type="㇐" d="M48.25 70.81c2.29.88 5.62.65 8 .32 12.62-1.75 24.92-3.21 35-3.75 2.67-.14 5.14-.16 7.75.44"/><path id="kvg:07891-s14" kvg:type="㇑" d="M78.62 51.75c1.13 1.13 1.46 2.38 1.46 3.75.0.59.04 23.8.05 36.38.0 4.42.0 7.52-.01 7.88"/></g></g></g></g></g></svg>