<!DOCTYPE svg PUBLIC "-//W3C//DTD SVG 1.0//EN" "http://www.w3.org/TR/2001/REC-SVG-20010904/DTD/svg10.dtd" [
<!ATTLIST g
xmlns:kvg CDATA #FIXED "http://kanjivg.tagaini.net"
kvg:element CDATA #IMPLIED
kvg:variant CDATA #IMPLIED
kvg:partial CDATA #IMPLIED
kvg:original CDATA #IMPLIED
kvg:part CDATA #IMPLIED
kvg:number CDATA #IMPLIED
kvg:tradForm CDATA #IMPLIED
kvg:radicalForm CDATA #IMPLIED
kvg:position CDATA #IMPLIED
kvg:radical CDATA #IMPLIED
kvg:phon CDATA #IMPLIED >
<!ATTLIST path
xmlns:kvg CDATA #FIXED "http://kanjivg.tagaini.net"
kvg:type CDATA #IMPLIED >
]><svg xmlns="http://www.w3.org/2000/svg" width="109" height="109" viewBox="0 0 109 109"><g id="kvg:StrokePaths_078af" style="fill:none;stroke:#000000;stroke-width:3;stroke-linecap:round;stroke-linejoin:round;"><g id="kvg:078af" kvg:element="碯"><g id="kvg:078af-g1" kvg:element="石" kvg:position="left" kvg:radical="general"><path id="kvg:078af-s1" kvg:type="㇐" d="M12.38 29.51c.61.18 1.74.23 2.34.18 7.66-.62 15.03-1.94 25.26-3.02 1.02-.11 1.63.08 2.14.17"/><path id="kvg:078af-s2" kvg:type="㇒" d="M26.49 30.5c.05.89.11 2.3-.1 3.57-1.24 7.53-8.38 24.06-18.14 34.18"/><g id="kvg:078af-g2" kvg:element="口"><path id="kvg:078af-s3" kvg:type="㇑" d="M20 54.29c.28.42.56.77.68 1.3.96 4.17 2.12 18.17 2.78 25.66"/><path id="kvg:078af-s4" kvg:type="㇕b" d="M21.73 55.13c8.02-1.38 14.39-2.5 17.95-3.14 1.3-.23 2.08 1.38 1.9 2.75-.77 5.67-2.27 13.51-3.41 21.35"/><path id="kvg:078af-s5" kvg:type="㇐b" d="M23.59 78.2c5.24-.54 9.52-1.02 16.41-1.69"/></g></g><g id="kvg:078af-g3" kvg:element="囟" kvg:position="right"><g id="kvg:078af-g4" kvg:element="巛"><path id="kvg:078af-s6" kvg:type="㇛" d="M57.07 13.25c.15 1.05.45 1.78.14 2.67C55.25 21.5 54 25.5 47.23 33.77c-.91 1.11-.46.8.0 1.11C53.75 39.25 55.75 43 59.44 50"/><path id="kvg:078af-s7" kvg:type="㇛" d="M73.9 11.87c.52 1.12.73 2.56.54 3.4-1.18 5.23-3.66 10.56-10.03 16.29-.62.55-.3.76.28 1.09 6.73 3.77 10.61 8.46 13.71 15.02"/><path id="kvg:078af-s8" kvg:type="㇛" d="M91.51 11.46c.4.8.36 1.68.18 2.47-1.01 4.37-4.1 9.91-10.76 16.61-.57.58-.25.74.26 1.11 7.32 5.28 12.29 10.56 14.99 16.51"/></g><path id="kvg:078af-s9" kvg:type="㇒" d="M69.52 48.39c.04.34.07.87-.07 1.36-.81 2.86-4.99 8.13-11.39 11.97"/><path id="kvg:078af-s10" kvg:type="㇑" d="M49.49 60.6c.3.58.8 1.98.97 2.71 1.34 6.01 3.6 23.69 4.43 34.89"/><path id="kvg:078af-s11" kvg:type="㇕" d="M50.88 63.56c11.25-1.56 32.21-2.7 40.61-4 3.08-.48 4.67 1.21 4.51 2.91-.58 6.23-3.1 24.7-4.51 35.1"/><g id="kvg:078af-g5" kvg:element="乂" kvg:variant="true"><g id="kvg:078af-g6" kvg:element="丿"><path id="kvg:078af-s12" kvg:type="㇒" d="M80.75 64.5c.06.61.12 1.57-.11 2.44-1.36 5.14-9.19 16.41-19.89 23.31"/></g><path id="kvg:078af-s13" kvg:type="㇔/㇏" d="M60.75 70.25c7.94 3.04 20.51 12.52 22.5 17.25"/></g><path id="kvg:078af-s14" kvg:type="㇐" d="M54.93 96.72c8.14-.18 23.52-1.59 36.41-1.68"/></g></g></g><g id="kvg:StrokeNumbers_078af" style="font-size:8;fill:#808080"><text transform="matrix(1 0 0 1 5.50 29.50)">1</text><text transform="matrix(1 0 0 1 17.50 38.05)">2</text><text transform="matrix(1 0 0 1 15.50 68.50)">3</text><text transform="matrix(1 0 0 1 25.50 52.40)">4</text><text transform="matrix(1 0 0 1 26.75 74.50)">5</text><text transform="matrix(1 0 0 1 49.25 10.75)">6</text><text transform="matrix(1 0 0 1 68.25 10.43)">7</text><text transform="matrix(1 0 0 1 84.25 9.60)">8</text><text transform="matrix(1 0 0 1 63.00 46.28)">9</text><text transform="matrix(1 0 0 1 41.75 70.50)">10</text><text transform="matrix(1 0 0 1 50.75 59.50)">11</text><text transform="matrix(1 0 0 1 69.50 68.50)">12</text><text transform="matrix(1 0 0 1 56.50 79.50)">13</text><text transform="matrix(1 0 0 1 66.50 93.90)">14</text></g></svg>