<svg xmlns="http://www.w3.org/2000/svg" width="109" height="109" viewBox="0 0 109 109"><g id="kvg:StrokePaths_078bc"><g id="kvg:078bc" kvg:element="碼"><g id="kvg:078bc-g1" kvg:element="石" kvg:position="left" kvg:radical="general"><path id="kvg:078bc-s1" kvg:type="㇐" d="M15.88 28.51c.57.18 1.63.23 2.2.18 7.18-.62 12.21-1.94 21.8-3.02.95-.11 1.53.08 2.01.17"/><path id="kvg:078bc-s2" kvg:type="㇒" d="M26.5 29.25c.05 1.03.11 2.66-.1 4.14C25.15 42.12 18.01 61.27 8.25 73"/><g id="kvg:078bc-g2" kvg:element="口"><path id="kvg:078bc-s3" kvg:type="㇑" d="M21.58 56.25c.3.38.61.7.73 1.17.95 3.69 1.89 13.8 2.39 20.38"/><path id="kvg:078bc-s4" kvg:type="㇕b" d="M23.73 57.39c7.04-1.76 14.16-2.81 17.54-3.4 1.24-.22 1.98 1.29 1.8 2.57-.73 5.3-2.63 11.7-3.72 19.03"/><path id="kvg:078bc-s5" kvg:type="㇐b" d="M25.59 77.78c4.84-.47 8.79-.89 15.16-1.49"/></g></g><g id="kvg:078bc-g3" kvg:element="馬" kvg:position="right"><path id="kvg:078bc-s6" kvg:type="㇑" d="M53.65 17.06c.25.39.52 2.46.52 3.11-.02 6.53-.1 32.54-.29 42.81"/><path id="kvg:078bc-s7" kvg:type="㇐b" d="M55.73 17.94c8.13-.45 27.13-1.78 30.62-2.06 1.22-.1 3.28-.19 3.9-.06"/><path id="kvg:078bc-s8" kvg:type="㇑a" d="M71.33 18.41c.19.39.34.92.34 1.56-.02 6.52-.06 28.61-.21 38.88"/><path id="kvg:078bc-s9" kvg:type="㇐b" d="M55.85 33.87c7.25-.63 23.77-2.12 26.88-2.43 1.08-.11 2.93-.26 3.48-.23"/><path id="kvg:078bc-s10" kvg:type="㇐b" d="M55.47 47.14c7.08-.61 24.07-2.11 27.11-2.43 1.06-.11 2.86-.25 3.4-.19"/><path id="kvg:078bc-s11" kvg:type="㇆a" d="M54.37 61.67c9.66-1.58 30.09-3.88 35.45-4.36 3.48-.31 4.98.78 4.61 4.32-1.3 12.45-4.11 21.62-6.29 26.56-3.78 8.58-5.41 5.37-8.92.38"/><g id="kvg:078bc-g4" kvg:element="灬" kvg:variant="true" kvg:original="火"><path id="kvg:078bc-s12" kvg:type="㇔" d="M49.26 73.5c-.16 5.79-1.91 12.51-3.01 16"/><path id="kvg:078bc-s13" kvg:type="㇔" d="M56.5 71.5c3.27 2.38 6.34 8.76 7.13 12.35"/><path id="kvg:078bc-s14" kvg:type="㇔" d="M66.25 68c2.93 1.62 7.54 6.56 8.25 9"/><path id="kvg:078bc-s15" kvg:type="㇔" d="M77.75 65.25c2.4 1.68 6.17 6.76 6.75 9.25"/></g></g></g></g></svg>