<!DOCTYPE svg PUBLIC "-//W3C//DTD SVG 1.0//EN" "http://www.w3.org/TR/2001/REC-SVG-20010904/DTD/svg10.dtd" [
<!ATTLIST g
xmlns:kvg CDATA #FIXED "http://kanjivg.tagaini.net"
kvg:element CDATA #IMPLIED
kvg:variant CDATA #IMPLIED
kvg:partial CDATA #IMPLIED
kvg:original CDATA #IMPLIED
kvg:part CDATA #IMPLIED
kvg:number CDATA #IMPLIED
kvg:tradForm CDATA #IMPLIED
kvg:radicalForm CDATA #IMPLIED
kvg:position CDATA #IMPLIED
kvg:radical CDATA #IMPLIED
kvg:phon CDATA #IMPLIED >
<!ATTLIST path
xmlns:kvg CDATA #FIXED "http://kanjivg.tagaini.net"
kvg:type CDATA #IMPLIED >
]><svg xmlns="http://www.w3.org/2000/svg" width="109" height="109" viewBox="0 0 109 109"><g id="kvg:StrokePaths_078ba" style="fill:none;stroke:#000000;stroke-width:3;stroke-linecap:round;stroke-linejoin:round;"><g id="kvg:078ba" kvg:element="確"><g id="kvg:078ba-g1" kvg:element="石" kvg:position="left" kvg:radical="general"><path id="kvg:078ba-s1" kvg:type="㇐" d="M15.13 31.01c1.23.26 2.89.36 4.12.3C25 31 32.38 29.75 39.03 28.72c1.39-.21 2.98-.22 4.35-.05"/><path id="kvg:078ba-s2" kvg:type="㇒" d="M26.06 33.43c.19.95.11 1.64-.07 2.98-1.06 7.9-7.16 25.23-15.49 35.84"/><g id="kvg:078ba-g2" kvg:element="口"><path id="kvg:078ba-s3" kvg:type="㇑" d="M21.5 56.04c.79.79 1.41 1.87 1.51 2.96.49 5.44 1.37 11.88 2.01 17.63.17 1.51.32 2.98.44 4.37"/><path id="kvg:078ba-s4" kvg:type="㇕b" d="M23.98 57.62c5.4-1.29 10.53-2.17 14.04-2.74 2.79-.46 4.54.71 3.9 4.03-1.05 5.47-1.67 8.72-3.17 15.44"/><path id="kvg:078ba-s5" kvg:type="㇐b" d="M26.38 77.5c3.65-.46 6.91-1.03 11.13-1.61 1.08-.15 2.22-.3 3.44-.44"/></g></g><g id="kvg:078ba-g3" kvg:element="寉" kvg:variant="true" kvg:original="隺" kvg:position="right" kvg:phon="寉"><g id="kvg:078ba-g4" kvg:element="宀" kvg:partial="true" kvg:position="top"><g id="kvg:078ba-g5" kvg:element="冖"><path id="kvg:078ba-s6" kvg:type="㇔" d="M51.88 27.62c0 3.48-2.66 13.05-3.88 15.38"/><path id="kvg:078ba-s7" kvg:type="㇖b" d="M52.99 29.72c9.88-1.22 30.88-3.99 37.53-4.35 10.38-.55 2.85 6.25-.39 9.2"/></g></g><g id="kvg:078ba-g6" kvg:element="隹" kvg:position="bottom"><g id="kvg:078ba-g7" kvg:element="亻" kvg:variant="true" kvg:original="人"><path id="kvg:078ba-s8" kvg:type="㇒" d="M71.42 11.5c.46 1.12.46 2.5.13 3.97C68.39 29.53 60.75 48.5 47.5 63.16"/><path id="kvg:078ba-s9" kvg:type="㇑" d="M56.4 54.04c.72.72 1 1.97 1 3.09.0 8.19-.01 24.35-.02 34.12.0 3.38.0 6 0 7.25"/></g><path id="kvg:078ba-s10" kvg:type="㇒" d="M79.41 37c.06.63-.01 1.45-.19 1.99-1.15 3.43-2.6 6.08-5.22 10.26"/><path id="kvg:078ba-s11" kvg:type="㇐b" d="M57.58 52.23c6.07-.47 21.81-1.83 29.93-2.64 2.31-.23 4-.41 4.67-.52"/><path id="kvg:078ba-s12" kvg:type="㇑a" d="M73.81 53.26c.9.9 1.61 2.12 1.61 3.67.0 8.82.06 25.57.06 32.57"/><path id="kvg:078ba-s13" kvg:type="㇐b" d="M58.86 65.44c5.34-.58 20-1.71 27.27-2.35 1.89-.17 3.28-.3 3.88-.38"/><path id="kvg:078ba-s14" kvg:type="㇐b" d="M58.54 77.71c5.68-.49 20.72-1.7 28.08-2.34 1.85-.16 3.22-.28 3.83-.35"/><path id="kvg:078ba-s15" kvg:type="㇐b" d="M58.47 91.39c6.78-.26 23.29-.96 32.78-1.6 2.66-.18 4.58-.33 5.25-.43"/></g></g></g></g><g id="kvg:StrokeNumbers_078ba" style="font-size:8;fill:#808080"><text transform="matrix(1 0 0 1 13.50 28.50)">1</text><text transform="matrix(1 0 0 1 17.50 42.13)">2</text><text transform="matrix(1 0 0 1 17.25 71.50)">3</text><text transform="matrix(1 0 0 1 26.50 54.50)">4</text><text transform="matrix(1 0 0 1 29.25 73.63)">5</text><text transform="matrix(1 0 0 1 45.50 25.50)">6</text><text transform="matrix(1 0 0 1 55.50 26.50)">7</text><text transform="matrix(1 0 0 1 63.50 11.50)">8</text><text transform="matrix(1 0 0 1 50.25 67.63)">9</text><text transform="matrix(1 0 0 1 68.25 36.50)">10</text><text transform="matrix(1 0 0 1 63.75 48.13)">11</text><text transform="matrix(1 0 0 1 78.50 58.50)">12</text><text transform="matrix(1 0 0 1 61.50 61.50)">13</text><text transform="matrix(1 0 0 1 61.50 74.50)">14</text><text transform="matrix(1 0 0 1 61.50 88.63)">15</text></g></svg>