<svg xmlns="http://www.w3.org/2000/svg" width="109" height="109" viewBox="0 0 109 109"><g id="kvg:StrokePaths_078ca"><g id="kvg:078ca" kvg:element="磊"><g id="kvg:078ca-g1" kvg:element="石" kvg:position="top" kvg:radical="general"><path id="kvg:078ca-s1" kvg:type="㇐" d="M29 16.44c1.25.15 4.06.19 5.3.15 15.73-.52 26.82-2.02 45.68-2.1 2.09-.01 3.35.07 4.39.14"/><path id="kvg:078ca-s2" kvg:type="㇒" d="M48.4 18.36c.07.59.15 1.52-.15 2.37-1.78 4.99-12.01 15.95-26 22.66"/><g id="kvg:078ca-g2" kvg:element="口"><path id="kvg:078ca-s3" kvg:type="㇑" d="M42.18 31.34c.26.32.66 1.67.74 2.11.54 3.22 1.56 10.39 2.43 16.5"/><path id="kvg:078ca-s4" kvg:type="㇕b" d="M43.69 33.73c7.29-.64 24.29-2.78 29.26-2.88 2.06-.04 2.42 1.66 2.18 2.61-.77 3.08-2.15 6.58-3.21 12.05"/><path id="kvg:078ca-s5" kvg:type="㇐b" d="M47.28 47.77c5.88-.36 20.4-2.07 27.89-2.18"/></g></g><g id="kvg:078ca-g3" kvg:position="bottom"><g id="kvg:078ca-g4" kvg:element="石" kvg:position="left"><path id="kvg:078ca-s6" kvg:type="㇐" d="M16 59.88c.64.2 2.08.26 2.72.2 8.07-.7 19.97-2.43 29.65-2.55 1.08-.01 1.72.1 2.26.2"/><path id="kvg:078ca-s7" kvg:type="㇒" d="M29.5 59.75c.05.62.12 1.62-.11 2.51C28.02 67.57 20.2 79.2 9.5 86.33"/><g id="kvg:078ca-g5" kvg:element="口"><path id="kvg:078ca-s8" kvg:type="㇑" d="M21.37 76.25c.65.41 1.48.73 1.6 1.27.88 3.94 2.66 10.76 3.9 18.23"/><path id="kvg:078ca-s9" kvg:type="㇕b" d="M22.66 78.63c5.02-.58 20.14-1.84 23.57-1.93 1.42-.04 2.31.87 2.06 1.72-.87 2.91-2.57 7.03-3.29 12.01"/><path id="kvg:078ca-s10" kvg:type="㇐b" d="M26.23 93.77c3.57-.53 16.49-1.97 21.07-2.28"/></g></g><g id="kvg:078ca-g6" kvg:element="石" kvg:position="right"><path id="kvg:078ca-s11" kvg:type="㇐" d="M59.95 57.65c.68.2 2.19.26 2.86.2 8.49-.7 21.01-2.45 31.19-2.56 1.13-.01 1.81.1 2.37.2"/><path id="kvg:078ca-s12" kvg:type="㇒" d="M74 57c.06.65.12 1.67-.12 2.6-1.38 5.49-9.3 17.53-20.13 24.9"/><g id="kvg:078ca-g7" kvg:element="口"><path id="kvg:078ca-s13" kvg:type="㇑" d="M66.02 76.56c.44.36 1 .64 1.08 1.12.6 3.48 1.8 9.49 2.64 16.07"/><path id="kvg:078ca-s14" kvg:type="㇕b" d="M68.01 76.87c5-.7 20.08-2.19 23.5-2.29 1.41-.04 2.3 1.04 2.05 2.04-.86 3.46-2.56 8.37-3.28 14.29"/><path id="kvg:078ca-s15" kvg:type="㇐b" d="M69.83 92.54c4.08-.35 17.1-1.24 22.31-1.35"/></g></g></g></g></g></svg>