<svg xmlns="http://www.w3.org/2000/svg" width="109" height="109" viewBox="0 0 109 109"><g id="kvg:StrokePaths_078cb" style="fill:none;stroke:#000000;stroke-width:3;stroke-linecap:round;stroke-linejoin:round;"><g id="kvg:078cb" kvg:element="磋"><g id="kvg:078cb-g1" kvg:element="石" kvg:position="left" kvg:radical="general"><path id="kvg:078cb-s1" kvg:type="㇐" d="M13.38 23.48c.62.14 1.77.18 2.39.14 7.8-.51 13.26-1.58 23.68-2.46 1.03-.09 1.66.07 2.18.14"/><path id="kvg:078cb-s2" kvg:type="㇒" d="M25.49 25c.05.94.1 2.42-.1 3.77-1.16 7.95-7.8 25.39-16.9 36.07"/><g id="kvg:078cb-g2" kvg:element="口"><path id="kvg:078cb-s3" kvg:type="㇑" d="M19.04 48.73c.19.55.38 1.01.45 1.7.54 5.43.9 20.37 1.07 30.1"/><path id="kvg:078cb-s4" kvg:type="㇕b" d="M21.73 51c6.44-1.6 12.95-2.55 16.05-3.09 1.13-.2 1.81 1.17 1.65 2.34-.67 4.81-2.65 18.1-3.65 24.75"/><path id="kvg:078cb-s5" kvg:type="㇐b" d="M21.83 78.09c4.99-.38 9.06-.73 15.62-1.2"/></g></g><g id="kvg:078cb-g3" kvg:element="差" kvg:position="right"><g id="kvg:078cb-g4" kvg:element="羊" kvg:variant="true"><g id="kvg:078cb-g5" kvg:element="䒑"><path id="kvg:078cb-s6" kvg:type="㇔" d="M52.45 12.83c3.46 1.97 8.43 7.6 9.3 10.67"/><path id="kvg:078cb-s7" kvg:type="㇒" d="M83.82 10.52c.02.31.05.8-.05 1.25-.58 2.64-3.93 8.43-8.52 11.98"/><path id="kvg:078cb-s8" kvg:type="㇐" d="M45.38 29.29c.88.37 4.14.44 5.03.37 7.06-.56 30.39-3.61 38.36-3.47 1.47.02 3.99.18 4.73.36"/></g><path id="kvg:078cb-s9" kvg:type="㇑a" d="M66.57 27.93c1.08.43 1.73 1.92 1.94 2.77.22.85.5 18.49.28 23.81"/><path id="kvg:078cb-s10" kvg:type="㇐" d="M46.68 42.07c.93.34 2.64.38 3.58.34 7.73-.31 27.65-2.79 38.23-2.94 1.55-.02 2.49.16 3.27.33"/><path id="kvg:078cb-s11" kvg:type="㇐" d="M44.04 55.8c1.25.46 3.55.52 4.8.46 6.95-.33 31.13-3.18 44.28-3.47 2.08-.05 3.34.22 4.38.45"/></g><g id="kvg:078cb-g6" kvg:element="丿"><path id="kvg:078cb-s12" kvg:type="㇒" d="M57.73 57.52c.07.91.27 2.43-.14 3.63-2.99 8.76-10.6 23.02-24.02 34"/></g><g id="kvg:078cb-g7" kvg:element="工"><path id="kvg:078cb-s13" kvg:type="㇐" d="M56.03 70.47c.78.4 3.32.52 4.1.41 3.66-.54 20.34-2.32 26.49-2.73 1.2-.08 2.29.08 3.29.41"/><path id="kvg:078cb-s14" kvg:type="㇑a" d="M70.03 72.04c.83 1.09.83 1.75.83 2.62.0 6.11.0 13.3-.21 19.41"/><path id="kvg:078cb-s15" kvg:type="㇐" d="M46.75 95.32c.76.28 3.05.62 4.34.5 15.41-1.33 29.74-2.07 42.34-2.48 2.07-.07 4.55.46 5.58.9"/></g></g></g></g></svg>