<svg xmlns="http://www.w3.org/2000/svg" width="109" height="109" viewBox="0 0 109 109"><g id="kvg:StrokePaths_078c5" style="fill:none;stroke:#000000;stroke-width:3;stroke-linecap:round;stroke-linejoin:round;"><g id="kvg:078c5" kvg:element="磅"><g id="kvg:078c5-g1" kvg:element="石" kvg:position="left" kvg:radical="general"><path id="kvg:078c5-s1" kvg:type="㇐" d="M14.13 20.81c.74.08 2.1.11 2.83.08 9.27-.29 12.7-1.42 25.08-1.93 1.23-.05 1.97.04 2.59.08"/><path id="kvg:078c5-s2" kvg:type="㇒" d="M26.75 22.25c.05.99.1 2.55-.1 3.97C25.52 34.6 18.96 52.99 10 64.25"/><g id="kvg:078c5-g2" kvg:element="口"><path id="kvg:078c5-s3" kvg:type="㇑" d="M21 51.79c.28.43.56.78.68 1.31.96 4.21 2.12 15.83 2.78 23.4"/><path id="kvg:078c5-s4" kvg:type="㇕b" d="M22.75 53c4.62-1.28 10.14-1.23 15.63-2.32 1.11-.22 1.79 1.23 1.64 2.47-.62 5.12-1.35 10.01-2.27 17.09"/><path id="kvg:078c5-s5" kvg:type="㇐b" d="M25.57 74.07c4.27-.6 7.76-1.09 13.37-1.88"/></g></g><g id="kvg:078c5-g3" kvg:element="旁" kvg:position="right"><g id="kvg:078c5-g4" kvg:position="top"><g id="kvg:078c5-g5" kvg:element="立" kvg:partial="true"><g id="kvg:078c5-g6" kvg:element="亠" kvg:position="top"><path id="kvg:078c5-s6" kvg:type="㇑a" d="M69.45 11.75c.46.5 1.15 1.62 1.15 2.89.0 2.02.0 1.24.0 6.73"/><path id="kvg:078c5-s7" kvg:type="㇐" d="M51.87 24.31c.87.12 1.88.1 2.73.04 4.85-.37 27.15-2.78 34.49-3.24 1.43-.09 2.3-.03 3.02.02"/></g><g id="kvg:078c5-g7" kvg:position="bottom"><path id="kvg:078c5-s8" kvg:type="㇔" d="M58.25 26.5c2.89 4.19 4.74 9.24 5 12"/><path id="kvg:078c5-s9" kvg:type="㇒" d="M83.33 24.34c.2 1.29.37 2.34.21 2.69-1.54 3.48-4.18 10.09-5.29 12.22"/></g></g><g id="kvg:078c5-g8" kvg:element="冖"><path id="kvg:078c5-s10" kvg:type="㇔" d="M51.25 38.25c-.11 3.38-2.79 12.23-3.75 14.25"/><path id="kvg:078c5-s11" kvg:type="㇖b" d="M52.25 42.3c6.14-.72 27.95-3.7 39.91-4 7.31-.19 2.31 4.3-.42 7.1"/></g></g><g id="kvg:078c5-g9" kvg:element="方" kvg:position="bottom"><g id="kvg:078c5-g10" kvg:element="亠" kvg:position="top"><path id="kvg:078c5-s12" kvg:type="㇑a" d="M69.31 47.62c.68.48 1.81 2.33 1.81 3.29.0 3.51-.21 4.13-.09 7.1"/><path id="kvg:078c5-s13" kvg:type="㇐" d="M47.6 59.54c.89.06 2.91.39 3.77.32 6.96-.59 32.63-2.5 42.09-2.89 1.46-.06 2.21.04 3.29.4"/></g><g id="kvg:078c5-g11" kvg:position="bottom"><path id="kvg:078c5-s14" kvg:type="㇆a" d="M68.5 68c4.1 1.3 12.3 2.7 16.61 3.3 1.94.27 2.86 1.08 2.38 2.6-1.6 5.07-8.83 17.27-14.79 22.26-3.56 2.97-5.19-1.16-6.19-2.64"/><path id="kvg:078c5-s15" kvg:type="㇒" d="M69.2 62.2c.41.95.33 2.02-.16 3.09C65.68 72.66 56 85 41.84 93.53"/></g></g></g></g></g></svg>