<svg xmlns="http://www.w3.org/2000/svg" width="109" height="109" viewBox="0 0 109 109"><g id="kvg:StrokePaths_078d1" style="fill:none;stroke:#000000;stroke-width:3;stroke-linecap:round;stroke-linejoin:round;"><g id="kvg:078d1" kvg:element="磑"><g id="kvg:078d1-g1" kvg:element="石" kvg:position="left" kvg:radical="general"><path id="kvg:078d1-s1" kvg:type="㇐" d="M12.38 25.06c.68.12 1.94.15 2.62.12 8.56-.41 14.55-1.29 25.99-2.01 1.13-.07 1.82.06 2.39.12"/><path id="kvg:078d1-s2" kvg:type="㇒" d="M25 27c.05.82.11 2.13-.1 3.31C23.65 37.29 16.52 52.62 6.75 62"/><g id="kvg:078d1-g2" kvg:element="口"><path id="kvg:078d1-s3" kvg:type="㇑" d="M18 51.25c.32.51.65.93.79 1.57 1.11 5.03 2.45 18.9 3.21 27.93"/><path id="kvg:078d1-s4" kvg:type="㇕b" d="M18.79 52.82c7.4-2.11 16.08-2.11 19.64-2.82 1.3-.26 2.08 1.55 1.9 3.08-.77 6.34-1.18 13.41-2.33 22.18"/><path id="kvg:078d1-s5" kvg:type="㇐b" d="M23.59 78.9c5.15-.56 9.34-1.06 16.1-1.76"/></g></g><g id="kvg:078d1-g3" kvg:element="豈" kvg:position="right"><g id="kvg:078d1-g4" kvg:element="山" kvg:position="top"><path id="kvg:078d1-s6" kvg:type="㇑a" d="M69.33 12.25c.42.32 1.31 2.37 1.4 3 .08.63-.05 13.44-.14 17.39"/><path id="kvg:078d1-s7" kvg:type="㇄a" d="M53.07 19.97c.41.3.88 1.59.82 2.2-.27 2.71-.1 4.84-1.21 10.35-.27 1.36-.21 2.73.81 2.54 3.66-.68 31.61-4.34 36.75-4.51"/><path id="kvg:078d1-s8" kvg:type="㇑" d="M90.35 17.35c.42.29.91 2.17.84 2.75-.42 3.56-.47 6.49-1.17 13.12"/></g><g id="kvg:078d1-g5" kvg:element="豆" kvg:position="bottom"><g id="kvg:078d1-g6" kvg:position="top"><path id="kvg:078d1-s9" kvg:type="㇐" d="M52.23 46.66c.76.17 2.14.19 2.91.17 7.89-.2 19.81-2.99 34.33-3.03 1.27.0 2.02.08 2.66.17"/></g><g id="kvg:078d1-g7" kvg:position="bottom"><g id="kvg:078d1-g8" kvg:element="口"><path id="kvg:078d1-s10" kvg:type="㇑" d="M53.85 56.01c.44.32 1 .56 1.09.98.6 3.04.96 10.22 2.31 16.26"/><path id="kvg:078d1-s11" kvg:type="㇕b" d="M56.15 57.41c6.63-.62 25.59-3.18 30.11-3.28 1.87-.04 3.14.81 2.72 2.61-.75 3.23-1.97 7.42-3.41 12.02"/><path id="kvg:078d1-s12" kvg:type="㇐b" d="M57.86 71.87c4.74.0 23.95-2.45 30.49-2.54"/></g><path id="kvg:078d1-s13" kvg:type="㇔" d="M55.74 78.64c2.82 2.18 6.8 7.97 7.51 11.36"/><path id="kvg:078d1-s14" kvg:type="㇒" d="M86.25 75.25c.02.38.05.97-.04 1.51-.56 3.19-3.79 10.2-8.2 14.49"/><path id="kvg:078d1-s15" kvg:type="㇐" d="M43.39 95.1c1.37.63 3.87.77 5.24.63C65.71 94 79.19 92.3 94.33 91.86c2.28-.07 3.65.3 4.79.62"/></g></g></g></g></g></svg>