<svg xmlns="http://www.w3.org/2000/svg" width="109" height="109" viewBox="0 0 109 109"><g id="kvg:StrokePaths_07912" style="fill:none;stroke:#000000;stroke-width:3;stroke-linecap:round;stroke-linejoin:round;"><g id="kvg:07912" kvg:element="礒"><g id="kvg:07912-g1" kvg:element="石" kvg:position="left" kvg:radical="general"><path id="kvg:07912-s1" kvg:type="㇐" d="M12.25 25.08c.59.16 1.69.21 2.28.16 7.46-.57 12.68-1.79 22.64-2.78.99-.1 1.59.08 2.08.16"/><path id="kvg:07912-s2" kvg:type="㇒" d="M23.75 25c.04.88.09 2.27-.09 3.52-1.09 7.43-7.35 23.74-15.91 33.73"/><g id="kvg:07912-g2" kvg:element="口"><path id="kvg:07912-s3" kvg:type="㇑" d="M16.71 53.27c.25.52.51.95.62 1.6.83 5.12 1.71 17.22 2.2 26.4"/><path id="kvg:07912-s4" kvg:type="㇕b" d="M17.23 54.02C25 52.5 29.93 52 33.46 51.25c1.29-.27 2.06 1.62 1.87 3.23-.76 6.65-1.73 14.68-2.87 23.87"/><path id="kvg:07912-s5" kvg:type="㇐b" d="M20.59 79.71c4.81-.78 8.73-.48 15.05-1.46"/></g></g><g id="kvg:07912-g3" kvg:element="義" kvg:position="right"><g id="kvg:07912-g4" kvg:element="羊" kvg:variant="true" kvg:position="top"><g id="kvg:07912-g5" kvg:element="䒑"><path id="kvg:07912-s6" kvg:type="㇔" d="M52.05 11.82c3.07 1.75 7.93 7.2 8.7 9.93"/><path id="kvg:07912-s7" kvg:type="㇒" d="M80.49 9.75c.02.3.05.77-.05 1.2-.59 2.53-4.01 8.1-8.68 11.5"/><path id="kvg:07912-s8" kvg:type="㇐" d="M47.06 25.49c.62.11 1.75.16 2.36.11 2.49-.22 31.88-2.64 37.42-2.6C87.87 23 88.49 23.05 89 23.1"/></g><path id="kvg:07912-s9" kvg:type="㇑a" d="M66.53 25.96c.68.3 1.08 1.36 1.22 1.97s0 12.21-.14 16"/><path id="kvg:07912-s10" kvg:type="㇐" d="M50.55 36.49c.63.23 1.8.34 2.42.23 2.56-.45 27.06-3.4 32.76-3.31 1.05.02 1.68.11 2.21.23"/><path id="kvg:07912-s11" kvg:type="㇐" d="M43.5 46.65c.99.23 2.82.34 3.8.23 4.01-.45 35.36-3.12 46.23-3.59 1.65-.07 2.64.11 3.47.23"/></g><g id="kvg:07912-g6" kvg:element="我" kvg:position="bottom"><g id="kvg:07912-g7" kvg:element="丿"><path id="kvg:07912-s12" kvg:type="㇒" d="M64.5 50.25c.06.27.21.75-.11 1.09C61.84 54.08 55.84 58.2 45 61.75"/></g><g id="kvg:07912-g8" kvg:element="戈" kvg:part="1"><g id="kvg:07912-g9" kvg:element="弋" kvg:part="1"><path id="kvg:07912-s13" kvg:type="㇐" d="M40.72 69.27c1.34.33 3.8.48 5.12.33 5.41-.64 32.14-4.53 46.98-5.26 2.22-.11 3.56.16 4.68.32"/></g></g><g id="kvg:07912-g10" kvg:element="亅"><path id="kvg:07912-s14" kvg:type="㇚" d="M59.05 56.15c.09.29 1.27 1.49 1.36 3.31.44 8.73-.28 30.6-.28 33.57.0 3.02-1.65 3.62-4.3 2.4-2.06-.94-3.53-1.5-5.16-2.25"/></g><path id="kvg:07912-s15" kvg:type="㇀" d="M43.16 82.9c1.14 1.72 2.02 2.54 3.96 1.58 1.14-.56 17.3-9.53 22.14-12.23"/><g id="kvg:07912-g11" kvg:element="戈" kvg:part="2"><path id="kvg:07912-s16" kvg:type="㇂" d="M73.75 50.25c.96.99 1.34 1.28 1.57 3.4 1.93 17.86 9.98 35.1 21.12 42.48 3.82 2.53 3.26.42 2.78-3.97"/><g id="kvg:07912-g12" kvg:element="丿"><path id="kvg:07912-s17" kvg:type="㇒" d="M91.36 67.37c.07.63.14 1.65-.13 2.56C89.65 75.32 80.92 87.75 68.5 95"/></g><g id="kvg:07912-g13" kvg:element="弋" kvg:part="2"><g id="kvg:07912-g14" kvg:element="丶"><path id="kvg:07912-s18" kvg:type="㇔" d="M83.5 50.25C86.93 51.8 92.4 55.34 94 58"/></g></g></g></g></g></g></g></svg>