<!DOCTYPE svg PUBLIC "-//W3C//DTD SVG 1.0//EN" "http://www.w3.org/TR/2001/REC-SVG-20010904/DTD/svg10.dtd" [
<!ATTLIST g
xmlns:kvg CDATA #FIXED "http://kanjivg.tagaini.net"
kvg:element CDATA #IMPLIED
kvg:variant CDATA #IMPLIED
kvg:partial CDATA #IMPLIED
kvg:original CDATA #IMPLIED
kvg:part CDATA #IMPLIED
kvg:number CDATA #IMPLIED
kvg:tradForm CDATA #IMPLIED
kvg:radicalForm CDATA #IMPLIED
kvg:position CDATA #IMPLIED
kvg:radical CDATA #IMPLIED
kvg:phon CDATA #IMPLIED >
<!ATTLIST path
xmlns:kvg CDATA #FIXED "http://kanjivg.tagaini.net"
kvg:type CDATA #IMPLIED >
]><svg xmlns="http://www.w3.org/2000/svg" width="109" height="109" viewBox="0 0 109 109"><g id="kvg:StrokePaths_07941" style="fill:none;stroke:#000000;stroke-width:3;stroke-linecap:round;stroke-linejoin:round;"><g id="kvg:07941" kvg:element="祁"><g id="kvg:07941-g1" kvg:element="示" kvg:position="left" kvg:radical="general"><g id="kvg:07941-g2" kvg:position="top"><path id="kvg:07941-s1" kvg:type="㇐" d="M20.92 17.55c.9.36 2.54.4 3.44.36 5.63-.25 14.67-1.3 20.37-1.64 1.49-.09 2.39.17 3.14.35"/><path id="kvg:07941-s2" kvg:type="㇐" d="M14.67 35.65c1.37.19 3.85.1 5.2.0 8.5-.58 21.42-2 31.21-2.76 2.24-.17 3.61-.05 4.74.02"/></g><g id="kvg:07941-g3" kvg:position="bottom"><path id="kvg:07941-s3" kvg:type="㇑" d="M35.08 36.43c.61.44.98 1.97 1.1 2.85.12.88.0 51.24-.12 56.72"/><path id="kvg:07941-s4" kvg:type="㇒" d="M23.61 47.75c.57 1.55.56 2.35.56 3.66.0 9.6-1.11 22.76-9.61 35.05"/><path id="kvg:07941-s5" kvg:type="㇑/㇔" d="M46.54 44.75c1.19.46 1.91 2.05 2.15 2.97.24.91.0 28.41-.24 34.11"/></g></g><g id="kvg:07941-g4" kvg:element="⻏" kvg:original="邑" kvg:position="right"><path id="kvg:07941-s6" kvg:type="㇇" d="M62.67 19.31c.94.09 2.62.65 3.83.46 5.22-.85 16.54-2.74 19.29-3.59 3.38-1.05 6.54.92 5.26 3.48-1.79 3.59-7.46 19.35-10.09 22.84"/><path id="kvg:07941-s7" kvg:type="㇁" d="M81 43.5c19 13.25 18.25 44.5 2.73 33.66"/><path id="kvg:07941-s8" kvg:type="㇑" d="M66.33 20c.22 1 0 70.25-.22 76.5"/></g></g></g><g id="kvg:StrokeNumbers_07941" style="font-size:8;fill:#808080"><text transform="matrix(1 0 0 1 15.25 17.25)">1</text><text transform="matrix(1 0 0 1 7.50 36.50)">2</text><text transform="matrix(1 0 0 1 29.50 43.75)">3</text><text transform="matrix(1 0 0 1 17.50 50.50)">4</text><text transform="matrix(1 0 0 1 40.50 44.50)">5</text><text transform="matrix(1 0 0 1 66.50 15.50)">6</text><text transform="matrix(1 0 0 1 76.50 51.50)">7</text><text transform="matrix(1 0 0 1 58.50 28.50)">8</text></g></svg>