<svg xmlns="http://www.w3.org/2000/svg" width="109" height="109" viewBox="0 0 109 109"><g id="kvg:StrokePaths_07950" style="fill:none;stroke:#000000;stroke-width:3;stroke-linecap:round;stroke-linejoin:round;"><g id="kvg:07950" kvg:element="祐"><g id="kvg:07950-g1" kvg:element="礻" kvg:variant="true" kvg:original="示" kvg:position="left" kvg:radical="general"><path id="kvg:07950-s1" kvg:type="㇔" d="M21.83 13.62c4.01 2.21 8.31 5.51 11.75 9.38"/><path id="kvg:07950-s2" kvg:type="㇇" d="M12.58 36.36c2.19 1.04 4.71 1.24 7.06.69 6.11-1.43 13.86-4.06 17.21-5.04 2.67-.78 4.39 1.2 2.7 3.68C31.5 47.5 22.88 59 11.87 69"/><path id="kvg:07950-s3" kvg:type="㇑" d="M29 53.61c.88.88 1.02 2.14 1.02 4.14.0 6.58.03 22.39.05 31.5.01 3.28.01 5.69.01 6.5"/><path id="kvg:07950-s4" kvg:type="㇔" d="M33.62 55c3.48 2.35 7.21 5.88 10.2 10"/></g><g id="kvg:07950-g2" kvg:element="右" kvg:position="right"><path id="kvg:07950-s5" kvg:type="㇒" d="M68.4 14c.62 1.15.87 2.25.62 4.32-2.06 17-11.76 41.91-23.52 57.18"/><path id="kvg:07950-s6" kvg:type="㇐" d="M46.75 37.03c3 .85 6.26.62 9.38.13 10.37-1.66 25.56-3.65 34.36-4.29 2.55-.19 5.02-.31 7.51.41"/><g id="kvg:07950-g3" kvg:element="口"><path id="kvg:07950-s7" kvg:type="㇑" d="M56.5 63.69c.97.97 1.56 2.3 1.79 3.7.94 5.64 2.01 13.05 2.79 19.11.22 1.71.41 3.32.58 4.75"/><path id="kvg:07950-s8" kvg:type="㇕b" d="M58.82 65.81c8.8-1.42 24.11-3.77 29.81-4.27 3.21-.28 5.02 1.05 4.36 4.36-1.01 5.03-2.99 12.98-4.14 19.24"/><path id="kvg:07950-s9" kvg:type="㇐b" d="M62.76 88.45c6.65-.77 17.36-1.89 24.72-2.57 1.77-.16 3.35-.3 4.63-.4"/></g></g></g></g></svg>