<svg xmlns="http://www.w3.org/2000/svg" width="109" height="109" viewBox="0 0 109 109"><g id="kvg:StrokePaths_07960" style="fill:none;stroke:#000000;stroke-width:3;stroke-linecap:round;stroke-linejoin:round;"><g id="kvg:07960" kvg:element="祠"><g id="kvg:07960-g1" kvg:element="示" kvg:variant="true" kvg:position="left" kvg:radical="general"><g id="kvg:07960-g2" kvg:position="top"><path id="kvg:07960-s1" kvg:type="㇐" d="M18.73 18.67c.91.35 2.56.39 3.47.35 5.68-.24 9.8-1.27 15.56-1.6 1.51-.09 2.42.17 3.17.35"/><path id="kvg:07960-s2" kvg:type="㇐" d="M10.87 34.11c1.2.41 3.39.45 4.59.41C23 34.25 34.5 33 43.19 32.55c1.99-.1 3.19.2 4.19.4"/></g><g id="kvg:07960-g3" kvg:position="bottom"><path id="kvg:07960-s3" kvg:type="㇑" d="M28.2 36.43c.96.42 1.54 1.89 1.73 2.74.19.84.0 50.82-.19 56.08"/><path id="kvg:07960-s4" kvg:type="㇒" d="M18.32 48.64c.44 1.38.43 2.09.43 3.25.0 8.52-.86 20.18-7.44 31.08"/><path id="kvg:07960-s5" kvg:type="㇑/㇔" d="M41.17 45.75c.95.41 1.52 1.86 1.7 2.69.19.83.0 22.73-.19 27.89"/></g></g><g id="kvg:07960-g4" kvg:element="司" kvg:position="right"><path id="kvg:07960-s6" kvg:type="㇆" d="M53.5 18.9c1 .25 3.06.54 4.82.34 13.18-1.49 31.34-2.18 32.42-2.49 2.67-.76 4.01 1.78 4.01 3.05s-.17 63.26-.17 69.1c0 9.65-3.67 6.35-6.34 3.3"/><g id="kvg:07960-g5" kvg:element="一"><path id="kvg:07960-s7" kvg:type="㇐" d="M55.75 36.7c.98.31 2.77.4 3.75.31 6.23-.54 16.33-2.49 23.06-2.79 1.63-.07 2.61.15 3.42.31"/></g><g id="kvg:07960-g6" kvg:element="口"><path id="kvg:07960-s8" kvg:type="㇑" d="M56.4 48.29c.25.36.51.67.62 1.13.87 3.62 2.08 13.43 2.67 19.93"/><path id="kvg:07960-s9" kvg:type="㇕b" d="M57.97 49.53c8.53-1.53 17.88-2.01 21.04-2.52 1.16-.19 1.85 1.88 1.69 2.99-.69 4.55-.97 7.92-2.44 14.49"/><path id="kvg:07960-s10" kvg:type="㇐b" d="M59.94 67.01c3.72-.58 12.31-1.26 20.08-1.95"/></g></g></g></g></svg>