<svg xmlns="http://www.w3.org/2000/svg" width="109" height="109" viewBox="0 0 109 109"><g id="kvg:StrokePaths_07968"><g id="kvg:07968" kvg:element="票"><g id="kvg:07968-g1" kvg:element="覀" kvg:original="襾" kvg:position="top" kvg:radical="nelson"><path id="kvg:07968-s1" kvg:type="㇐" d="M28.5 15.64c2.44.78 4.88.62 7.38.42 8.7-.7 25.9-2.6 34.5-3.25 2.45-.19 4.88-.19 7.25.19"/><path id="kvg:07968-s2" kvg:type="㇑" d="M24 29.69c.84.55 1.35 1.32 1.51 2.31 1.05 3.12 2.19 8.57 3.04 13.2.2 1.06.38 2.08.54 3.02"/><path id="kvg:07968-s3" kvg:type="㇕a" d="M26.54 31.03c11.21-1.4 41.58-4.53 55.08-5.32 3.31-.19 6.16-.08 5.05 3.95-.92 3.33-1.95 6.79-3.64 11.64-.37 1.08-.78 2.22-1.22 3.45"/><path id="kvg:07968-s4" kvg:type="㇑" d="M41.37 19c1 1 1.82 2.24 1.96 3.25.42 3 1.92 14.12 2.67 21.5"/><path id="kvg:07968-s5" kvg:type="㇑" d="M65.12 17c.63 1.12.75 3 .38 4.75-.86 4.03-2.25 11.38-4.5 20.5"/><path id="kvg:07968-s6" kvg:type="㇐a" d="M30 46.37c12-1 40-3.37 51.45-3.63"/></g><g id="kvg:07968-g2" kvg:element="示" kvg:position="bottom" kvg:radical="tradit"><g id="kvg:07968-g3" kvg:position="top"><path id="kvg:07968-s7" kvg:type="㇐" d="M38.34 56.34c1.13.35 3.21.44 4.34.35 7.21-.6 16.2-2.19 23.84-2.52 1.88-.08 3.02.17 3.96.34"/><path id="kvg:07968-s8" kvg:type="㇐" d="M19.5 70.11c2.01.49 5.69.67 7.69.49 16.69-1.48 38.81-4.1 56.06-5 3.34-.17 5.35.23 7.02.48"/></g><g id="kvg:07968-g4" kvg:position="bottom"><path id="kvg:07968-s9" kvg:type="㇑" d="M53.77 70.72c1.07 1.07 1.74 2.41 1.74 4.2C55.51 82 55.5 88.11 55.5 93c0 6.75-3.81 2.81-6.34.29"/><path id="kvg:07968-s10" kvg:type="㇒" d="M34.3 79.32c.04.37-.05 1.26-.33 1.75C32 84.5 26.3 90.14 18.75 94.38"/><path id="kvg:07968-s11" kvg:type="㇔" d="M73.9 78.17c5.06 2.48 12.35 9.08 14.6 13.76"/></g></g></g></g></svg>