<svg xmlns="http://www.w3.org/2000/svg" width="109" height="109" viewBox="0 0 109 109"><g id="kvg:StrokePaths_0797a"><g id="kvg:0797a" kvg:element="祺"><g id="kvg:0797a-g1" kvg:element="示" kvg:variant="true" kvg:position="left" kvg:radical="general"><g id="kvg:0797a-g2" kvg:position="top"><path id="kvg:0797a-s1" kvg:type="㇐" d="M16.23 18.91c.78.45 2.21.5 3 .45 4.9-.3 12.76-2.1 17.72-2.52 1.3-.11 2.08.21 2.73.44"/><path id="kvg:0797a-s2" kvg:type="㇐" d="M13.25 35.41c1.04.38 2.95.42 3.99.38 6.56-.25 16.56-1.42 24.11-1.83 1.73-.1 2.78.18 3.64.38"/></g><g id="kvg:0797a-g3" kvg:position="bottom"><path id="kvg:0797a-s3" kvg:type="㇑" d="M27.7 36.43c.96.45 1.54 2.03 1.73 2.93s0 52.74-.19 58.38"/><path id="kvg:0797a-s4" kvg:type="㇒" d="M17.3 47.64c.46 1.53.45 2.31.45 3.61.0 9.45-.9 22.4-7.75 34.5"/><path id="kvg:0797a-s5" kvg:type="㇑/㇔" d="M38.3 44.75c1.6.41 2.56 1.86 2.87 2.69.32.83.0 25.73-.32 30.89"/></g></g><g id="kvg:0797a-g4" kvg:element="其" kvg:position="right"><g id="kvg:0797a-g5" kvg:position="top"><g id="kvg:0797a-g6" kvg:element="甘"><g id="kvg:0797a-g7" kvg:element="廿" kvg:part="1"><g id="kvg:0797a-g8" kvg:element="十"><path id="kvg:0797a-s6" kvg:type="㇐" d="M49.75 28.34c1.55-.05 3.51-.05 4.35-.09 7.7-.38 29.43-2.36 38.89-2.68 1.4-.05 2.24.09 2.93.19"/><path id="kvg:0797a-s7" kvg:type="㇑a" d="M58.82 15.53c.85.5 1.36 2.24 1.53 3.24s0 46.63-.17 52.86"/></g><path id="kvg:0797a-s8" kvg:type="㇑a" d="M80.65 11.5c1.46.5 2.34 2.25 2.64 3.25.29 1 0 48.72-.29 54.97"/></g><path id="kvg:0797a-s9" kvg:type="㇐a" d="M60.75 42.18c3.2-.19 17.31-1.45 20.3-1.64"/><g id="kvg:0797a-g9" kvg:element="廿" kvg:part="2"><path id="kvg:0797a-s10" kvg:type="㇐a" d="M61 56.3c3.57-.14 16.45-1.3 20.61-1.59"/></g></g><path id="kvg:0797a-s11" kvg:type="㇐" d="M48.75 72.02c1.42.03 2.83.03 3.84.0 5.75-.19 32.62-2.02 43.15-2.09 1.67-.01 2.67.11 3.51.21"/></g><g id="kvg:0797a-g10" kvg:element="八" kvg:position="bottom"><path id="kvg:0797a-s12" kvg:type="㇒" d="M62.49 79.5c.05.42.12 1.08-.11 1.68-1.34 3.54-9.07 11.31-19.63 16.07"/><path id="kvg:0797a-s13" kvg:type="㇔/㇏" d="M77.5 78.75c6.51 3.31 16.81 13.59 18.44 18.73"/></g></g></g></g></svg>