<!DOCTYPE svg PUBLIC "-//W3C//DTD SVG 1.0//EN" "http://www.w3.org/TR/2001/REC-SVG-20010904/DTD/svg10.dtd" [
<!ATTLIST g
xmlns:kvg CDATA #FIXED "http://kanjivg.tagaini.net"
kvg:element CDATA #IMPLIED
kvg:variant CDATA #IMPLIED
kvg:partial CDATA #IMPLIED
kvg:original CDATA #IMPLIED
kvg:part CDATA #IMPLIED
kvg:number CDATA #IMPLIED
kvg:tradForm CDATA #IMPLIED
kvg:radicalForm CDATA #IMPLIED
kvg:position CDATA #IMPLIED
kvg:radical CDATA #IMPLIED
kvg:phon CDATA #IMPLIED >
<!ATTLIST path
xmlns:kvg CDATA #FIXED "http://kanjivg.tagaini.net"
kvg:type CDATA #IMPLIED >
]><svg xmlns="http://www.w3.org/2000/svg" width="109" height="109" viewBox="0 0 109 109"><g id="kvg:StrokePaths_07977" style="fill:none;stroke:#000000;stroke-width:3;stroke-linecap:round;stroke-linejoin:round;"><g id="kvg:07977" kvg:element="祷"><g id="kvg:07977-g1" kvg:element="礻" kvg:variant="true" kvg:original="示" kvg:position="left" kvg:radical="general"><path id="kvg:07977-s1" kvg:type="㇔" d="M23.58 16.5c2.82 2.06 5.84 5.15 8.25 8.75"/><path id="kvg:07977-s2" kvg:type="㇇" d="M12.58 35.5c1.01.45 2.59 1.19 4.26.7 4.92-1.44 17.24-4.45 19.74-5.2s4.52 1.01 3 3.25C34.33 42 22.08 56.75 13.33 64.5"/><path id="kvg:07977-s3" kvg:type="㇑" d="M27 51.61c.12.29 1.65 1.53 1.77 3.39.57 8.93.06 35.7.06 38.75"/><path id="kvg:07977-s4" kvg:type="㇔" d="M31.08 51c3.41 1.82 7.07 4.56 10 7.75"/></g><g id="kvg:07977-g2" kvg:element="寿" kvg:position="right"><g id="kvg:07977-g3" kvg:element="三"><g id="kvg:07977-g4" kvg:element="一" kvg:position="top"><path id="kvg:07977-s5" kvg:type="㇐" d="M48.06 24.4c.89.37 2.53.35 3.42.37 7.77.23 26.4-3.26 34.88-3.26 1.49.0 2.38.18 3.12.36"/></g><g id="kvg:07977-g5" kvg:position="bottom"><g id="kvg:07977-g6" kvg:element="一"><path id="kvg:07977-s6" kvg:type="㇐" d="M49.59 36.45c.91.33 2.57.4 3.48.33 6.66-.46 24.6-3.08 31.08-3.4 1.51-.07 2.42.16 3.17.33"/></g><g id="kvg:07977-g7" kvg:element="一"><path id="kvg:07977-s7" kvg:type="㇐" d="M41.9 49.26c1.19.43 3.37.51 4.56.43 9.79-.69 33.51-3.44 47.51-4.12 1.98-.1 3.17.2 4.17.42"/></g></g></g><g id="kvg:07977-g8" kvg:element="丿"><path id="kvg:07977-s8" kvg:type="㇒" d="M66.51 12.5c.71 1.43 1.15 2.79.84 4.82-4.1 26.93-10.1 47.93-29.4 69.97"/></g><g id="kvg:07977-g9" kvg:element="寸"><path id="kvg:07977-s9" kvg:type="㇐" d="M39.63 64.81c1.34.67 3.78.73 5.15.67C56 65 76.79 61.55 93.18 60.53c2.23-.14 3.58.32 4.7.65"/><path id="kvg:07977-s10" kvg:type="㇚" d="M80.95 49.83c.07.45 1.1 2.33 1.1 5.17.0 19.11.21 31.19.21 35.84.0 11.27-6.14 2.14-8.06.7"/><path id="kvg:07977-s11" kvg:type="㇔" d="M58.06 70.12c3.33 1.68 8.61 6.89 9.44 9.5"/></g></g></g></g><g id="kvg:StrokeNumbers_07977" style="font-size:8;fill:#808080"><text transform="matrix(1 0 0 1 16.50 15.50)">1</text><text transform="matrix(1 0 0 1 5.50 36.89)">2</text><text transform="matrix(1 0 0 1 21.50 64.50)">3</text><text transform="matrix(1 0 0 1 33.50 51.50)">4</text><text transform="matrix(1 0 0 1 45.50 21.50)">5</text><text transform="matrix(1 0 0 1 47.50 34.50)">6</text><text transform="matrix(1 0 0 1 40.50 46.85)">7</text><text transform="matrix(1 0 0 1 58.50 13.50)">8</text><text transform="matrix(1 0 0 1 44.58 62.50)">9</text><text transform="matrix(1 0 0 1 69.92 56.50)">10</text><text transform="matrix(1 0 0 1 52.50 78.50)">11</text></g></svg>