<svg xmlns="http://www.w3.org/2000/svg" width="109" height="109" viewBox="0 0 109 109"><g id="kvg:StrokePaths_07981"><g id="kvg:07981" kvg:element="禁"><g id="kvg:07981-g1" kvg:element="林" kvg:position="top"><g id="kvg:07981-g2" kvg:element="木" kvg:variant="true" kvg:position="left"><path id="kvg:07981-s1" kvg:type="㇐" d="M17.66 26.85c.7.17 2.82.4 4.69.25 6.56-.52 13.28-1.6 20.36-2.47 1.86-.23 3.28-.27 4.45-.09"/><path id="kvg:07981-s2" kvg:type="㇑" d="M34.57 13.38c.9.9 1.36 2.12 1.36 3.24.0 6.41.01 20.05.01 28.01.0 2.14.0 3.87.0 4.94"/><path id="kvg:07981-s3" kvg:type="㇒" d="M34.74 27.47c0 1.16-.49 2.01-1.13 3.1-3.85 6.46-11.04 14.52-16.62 18.74"/><path id="kvg:07981-s4" kvg:type="㇔/㇏" d="M39.75 32.25c2.79 1.66 6.28 4.76 8.72 7.37"/></g><g id="kvg:07981-g3" kvg:element="木" kvg:position="right"><path id="kvg:07981-s5" kvg:type="㇐" d="M54.02 24.35c2.12.64 3.96.4 6.14.11 6.22-.84 14.87-1.98 23.16-2.66 1.52-.12 2.84-.17 3.79.0"/><path id="kvg:07981-s6" kvg:type="㇑" d="M68.56 10.5c.97.97 1.61 2.38 1.61 3.74.0 4.4.0 20.66-.12 29.26-.03 2.19-.07 3.88-.12 4.75"/><path id="kvg:07981-s7" kvg:type="㇒" d="M68.99 24.9c0 .97-.66 2.13-1.13 3.03-3.3 6.42-10.83 15.35-17.72 20.96"/><path id="kvg:07981-s8" kvg:type="㇏" d="M70.59 26.41c6.04 5.78 12.73 12.17 17.6 16.07 1.65 1.32 3.35 2.65 5.35 3.43"/></g></g><g id="kvg:07981-g4" kvg:element="示" kvg:position="bottom" kvg:radical="general"><g id="kvg:07981-g5" kvg:position="top"><path id="kvg:07981-s9" kvg:type="㇐" d="M37.78 55.56c1.84.44 3.87.26 5.72.06 5.35-.58 13.67-1.58 18.88-1.87 1.72-.1 3.42-.14 5.11.23"/><path id="kvg:07981-s10" kvg:type="㇐" d="M19.28 68.91c3.22.71 7.38.52 10.71.19 12.5-1.23 34.67-3.03 49.89-3.66 3.29-.13 6.58-.34 9.83.28"/></g><g id="kvg:07981-g6" kvg:position="bottom"><path id="kvg:07981-s11" kvg:type="㇑" d="M53.52 69.69c1.02 1.02 1.51 2.43 1.51 4.2.0 7.11-.01 14.21-.01 18.65.0 9.45-3.77 4.39-7.96 1.22"/><path id="kvg:07981-s12" kvg:type="㇒" d="M33.27 77.85c.13 1.06.0 2.09-.57 2.99C30 85.12 25 89.75 18.5 94.99"/><path id="kvg:07981-s13" kvg:type="㇔" d="M72.5 78.1c4.42 2.76 11.64 11.03 12.75 15.33"/></g></g></g></g></svg>