<svg xmlns="http://www.w3.org/2000/svg" width="109" height="109" viewBox="0 0 109 109"><g id="kvg:StrokePaths_0799d" style="fill:none;stroke:#000000;stroke-width:3;stroke-linecap:round;stroke-linejoin:round;"><g id="kvg:0799d" kvg:element="禝"><g id="kvg:0799d-g1" kvg:element="示" kvg:variant="true" kvg:position="left" kvg:radical="general"><g id="kvg:0799d-g2" kvg:position="top"><path id="kvg:0799d-s1" kvg:type="㇐" d="M19.25 19.65c.74.34 2.1.38 2.84.34 4.64-.23 12.1-1.22 16.81-1.54 1.23-.08 1.98.16 2.59.33"/><path id="kvg:0799d-s2" kvg:type="㇐" d="M12.13 36.5c1.21.37 3.42.38 4.63.32 7.58-.39 19.14-1.79 27.88-2.37 2-.13 3.22.13 4.23.31"/></g><g id="kvg:0799d-g3" kvg:position="bottom"><path id="kvg:0799d-s3" kvg:type="㇑" d="M29.7 38.93c.96.42 1.54 1.89 1.73 2.74.19.84.0 47.82-.19 53.08"/><path id="kvg:0799d-s4" kvg:type="㇒" d="M19.39 50.64c.37 1.36.36 2.05.36 3.2.0 8.39-.72 19.88-6.19 30.62"/><path id="kvg:0799d-s5" kvg:type="㇑/㇔" d="M41.78 46.75c.96.42 1.54 1.87 1.73 2.71.19.83.0 25.92-.19 31.12"/></g></g><g id="kvg:0799d-g4" kvg:position="right"><g id="kvg:0799d-g5" kvg:position="top"><g id="kvg:0799d-g6" kvg:element="田"><path id="kvg:0799d-s6" kvg:type="㇑" d="M53.5 18.64c.27.42.28.7.43 1.21 1.21 4.24 1.81 15.83 2.52 23.64"/><path id="kvg:0799d-s7" kvg:type="㇕a" d="M54.78 18.81c9.14-.39 25.72-1.46 32.55-1.84 2.51-.14 3.78.98 3.65 2.02-.5 3.81-1.37 16.36-2.76 22.76"/><path id="kvg:0799d-s8" kvg:type="㇑a" d="M71.88 18.17c-.02.33-.03.9-.03 1.64-.03 4.92.17 17.54.17 19.33"/><path id="kvg:0799d-s9" kvg:type="㇐a" d="M56.5 30.16c3.14-.21 30.71-2.44 33.31-2.44"/><path id="kvg:0799d-s10" kvg:type="㇐a" d="M57.45 40.4c6.45.0 21.02-1.45 29.93-1.56"/></g><path id="kvg:0799d-s11" kvg:type="㇒" d="M66 42.5c.09.47.1 1.19-.19 1.88-2.53 5.99-5.77 10.57-16.57 16.37"/><path id="kvg:0799d-s12" kvg:type="㇄" d="M77.5 41c.87.8 1.13 1.74 1.13 2.97.0 1.66-.26 5.29-.26 6.47.0 3.23 2.96 4.56 8.61 4.56 5.11.0 8.88.0 11.04-1.04"/></g><g id="kvg:0799d-g7" kvg:element="夂" kvg:position="bottom"><path id="kvg:0799d-s13" kvg:type="㇒" d="M65.98 54.25c.05.59.1 1.52-.09 2.37-1.15 5-7.72 15.97-16.71 22.69"/><path id="kvg:0799d-s14" kvg:type="㇇" d="M63.16 62.71c1.61.49 3.38.95 5.17.76 4.75-.51 11.54-1.89 15.45-2.64 2.68-.52 3.45.59 2.76 2C82.78 70.51 65.03 90.12 46 95.75"/><path id="kvg:0799d-s15" kvg:type="㇏" d="M60.24 67.71c4.34 4.08 24.04 19.58 29.9 23.31C91.88 92.13 93.3 92.67 95 93"/></g></g></g></g></svg>