<!DOCTYPE svg PUBLIC "-//W3C//DTD SVG 1.0//EN" "http://www.w3.org/TR/2001/REC-SVG-20010904/DTD/svg10.dtd" [
<!ATTLIST g
xmlns:kvg CDATA #FIXED "http://kanjivg.tagaini.net"
kvg:element CDATA #IMPLIED
kvg:variant CDATA #IMPLIED
kvg:partial CDATA #IMPLIED
kvg:original CDATA #IMPLIED
kvg:part CDATA #IMPLIED
kvg:number CDATA #IMPLIED
kvg:tradForm CDATA #IMPLIED
kvg:radicalForm CDATA #IMPLIED
kvg:position CDATA #IMPLIED
kvg:radical CDATA #IMPLIED
kvg:phon CDATA #IMPLIED >
<!ATTLIST path
xmlns:kvg CDATA #FIXED "http://kanjivg.tagaini.net"
kvg:type CDATA #IMPLIED >
]><svg xmlns="http://www.w3.org/2000/svg" width="109" height="109" viewBox="0 0 109 109"><g id="kvg:StrokePaths_079ae" style="fill:none;stroke:#000000;stroke-width:3;stroke-linecap:round;stroke-linejoin:round;"><g id="kvg:079ae" kvg:element="禮"><g id="kvg:079ae-g1" kvg:element="示" kvg:variant="true" kvg:position="left" kvg:radical="general"><g id="kvg:079ae-g2" kvg:position="top"><path id="kvg:079ae-s1" kvg:type="㇐" d="M15.75 19.66c.82.45 2.33.5 3.15.45 5.15-.31 13.43-1.61 18.65-2.03 1.37-.11 2.19.21 2.88.44"/><path id="kvg:079ae-s2" kvg:type="㇐" d="M10.37 35.57c1.08.57 3.07.62 4.15.57 6.82-.37 17.21-2.09 25.07-2.7 1.8-.14 2.89.27 3.79.55"/></g><g id="kvg:079ae-g3" kvg:position="bottom"><path id="kvg:079ae-s3" kvg:type="㇑" d="M27.49 37.93c.78.43 1.25 1.94 1.41 2.8s0 49.89-.15 55.27"/><path id="kvg:079ae-s4" kvg:type="㇒" d="M17.21 48.64c.55 1.49.53 2.25.53 3.51.0 9.21-1.07 21.81-9.25 33.6"/><path id="kvg:079ae-s5" kvg:type="㇑/㇔" d="M38.15 47.5c.97.39 1.55 1.76 1.74 2.54.19.78.0 23.32-.19 28.21"/></g></g><g id="kvg:079ae-g4" kvg:element="豊" kvg:position="right" kvg:phon="豊"><g id="kvg:079ae-g5" kvg:element="曲" kvg:position="top"><g id="kvg:079ae-g6" kvg:element="日" kvg:part="1"><path id="kvg:079ae-s6" kvg:type="㇑" d="M48.58 23.28c.32.58 1.14 1.86 1.14 2.63s3.05 22.34 3.16 23.1"/><path id="kvg:079ae-s7" kvg:type="㇕" d="M49.76 24.6c2.83-.33 37.49-3.53 39.98-3.42 1.32.06 3.26 1.35 2.92 3.06-.65 3.3-4.67 21.17-5.26 22.2"/></g><g id="kvg:079ae-g7" kvg:element="廾"><g id="kvg:079ae-g8" kvg:element="十" kvg:part="1"><path id="kvg:079ae-s8" kvg:type="㇑" d="M60.25 13.75c.71.28 1.57 2 1.59 2.46.45 10.3 1.56 24.12 1.77 28.35"/></g><g id="kvg:079ae-g9" kvg:element="丿" kvg:variant="true"><path id="kvg:079ae-s9" kvg:type="㇑" d="M75.93 11.49c.7.21 1.33 1 1.31 1.48-.74 14.32-.93 20.97-1.48 30.91"/></g><g id="kvg:079ae-g10" kvg:element="十" kvg:part="2"><path id="kvg:079ae-s10" kvg:type="㇐" d="M51.47 35.1c2.33-.06 36-3 38.63-3.07"/></g></g><g id="kvg:079ae-g11" kvg:element="日" kvg:part="2"><path id="kvg:079ae-s11" kvg:type="㇐" d="M53.62 46.4c4.8-.32 27.93-2.08 33.91-2.36"/></g></g><g id="kvg:079ae-g12" kvg:element="豆" kvg:position="bottom"><g id="kvg:079ae-g13" kvg:position="top"><path id="kvg:079ae-s12" kvg:type="㇐" d="M48.55 55.14c1.05.41 2.97.46 4.02.41 10.91-.47 18.19-2.75 38.27-2.86 1.75-.01 2.8.2 3.67.4"/></g><g id="kvg:079ae-g14" kvg:position="bottom"><g id="kvg:079ae-g15" kvg:element="口"><path id="kvg:079ae-s13" kvg:type="㇑" d="M53.45 62.94c.5.38 1.14 2.09 1.23 2.6.68 3.68 1.46 6.27 2.45 13.59"/><path id="kvg:079ae-s14" kvg:type="㇕b" d="M55.38 64.51c7.06-.74 23.86-2.8 28.68-2.91 1.99-.05 2.97.96 2.52 3.11-.8 3.85-2.17 6.72-3.23 11.23"/><path id="kvg:079ae-s15" kvg:type="㇐b" d="M57.54 77.25c6.46-.75 19.31-2.41 25.92-2.52"/></g><path id="kvg:079ae-s16" kvg:type="㇔" d="M58.63 82.16c1.36 1.32 3.5 5.41 3.84 7.46"/><path id="kvg:079ae-s17" kvg:type="㇒" d="M79.36 78.63c.06.24.82 1.38.81 1.75-.04 2.15-2.11 6.76-4.7 10.08"/><path id="kvg:079ae-s18" kvg:type="㇐" d="M44.51 93.74c1.31.42 3.72.49 5.04.42 13.67-.7 30.81-2.2 45.36-2.49 2.19-.04 3.5.2 4.6.41"/></g></g></g></g></g><g id="kvg:StrokeNumbers_079ae" style="font-size:8;fill:#808080"><text transform="matrix(1 0 0 1 9.50 18.50)">1</text><text transform="matrix(1 0 0 1 3.50 34.50)">2</text><text transform="matrix(1 0 0 1 20.25 44.98)">3</text><text transform="matrix(1 0 0 1 9.50 46.90)">4</text><text transform="matrix(1 0 0 1 33.50 44.50)">5</text><text transform="matrix(1 0 0 1 39.50 26.50)">6</text><text transform="matrix(1 0 0 1 50.25 20.68)">7</text><text transform="matrix(1 0 0 1 52.25 11.60)">8</text><text transform="matrix(1 0 0 1 68.25 9.50)">9</text><text transform="matrix(1 0 0 1 53.25 32.45)">10</text><text transform="matrix(1 0 0 1 55.25 44.38)">11</text><text transform="matrix(1 0 0 1 42.50 52.50)">12</text><text transform="matrix(1 0 0 1 43.50 69.23)">13</text><text transform="matrix(1 0 0 1 54.50 62.50)">14</text><text transform="matrix(1 0 0 1 59.25 73.50)">15</text><text transform="matrix(1 0 0 1 47.25 86.50)">16</text><text transform="matrix(1 0 0 1 68.50 84.50)">17</text><text transform="matrix(1 0 0 1 38.50 90.50)">18</text></g></svg>