<svg xmlns="http://www.w3.org/2000/svg" width="109" height="109" viewBox="0 0 109 109"><g id="kvg:StrokePaths_079b9"><g id="kvg:079b9" kvg:element="禹"><g id="kvg:079b9-g1" kvg:element="丿"><path id="kvg:079b9-s1" kvg:type="㇒" d="M74.21 9.5c.12.37.49 1.07-.25 1.49-9.13 5.25-23.64 9.07-47.45 13.3"/></g><g id="kvg:079b9-g2" kvg:element="虫" kvg:part="1"><path id="kvg:079b9-s2" kvg:type="㇑" d="M26.32 35.24c.81.52 1.84.91 1.99 1.6 1.1 4.96 2.22 11.49 3.76 20.88"/><path id="kvg:079b9-s3" kvg:type="㇕" d="M28.91 36.35c12.3-.99 38.83-3.41 47.73-3.79 3.47-.15 5.11 1.19 4.64 3.9-.97 5.61-1.74 7.53-4.13 15.98"/><path id="kvg:079b9-s4" kvg:type="㇐" d="M32.52 55.72c9.9-1 32.36-2.53 46.21-3.46"/></g><g id="kvg:079b9-g3" kvg:element="禸" kvg:variant="true" kvg:radical="general"><g id="kvg:079b9-g4" kvg:element="冂"><path id="kvg:079b9-s5" kvg:type="㇑" d="M21.25 65.91c.72.61 1.32 1.58 1.46 2.69.79 6.65 3.24 30.06 3.24 31.9"/><path id="kvg:079b9-s6" kvg:type="㇆a" d="M22.21 67.63c9.1-.49 62.53-3.71 64.32-3.95 3.22-.43 3.95 1.07 3.73 3.47C89.25 78 87 87 84.03 94.94c-1.59 4.24-4.07 2.33-6.94.73"/></g><g id="kvg:079b9-g5" kvg:element="虫" kvg:part="2"><path id="kvg:079b9-s7" kvg:type="㇑" d="M52.52 22.25c.99.38 1.78 2.18 1.78 2.96.0 5.04.5 49.72.3 54.44"/><path id="kvg:079b9-s8" kvg:type="㇐" d="M37.92 83.92c.71.7 2.14 1.13 2.83.9 6.99-2.32 25.65-7.43 27.76-8.31"/><path id="kvg:079b9-s9" kvg:type="㇔" d="M65.34 71.2c3.5 2.41 9.05 9.91 9.93 13.66"/></g></g></g></g></svg>