<svg xmlns="http://www.w3.org/2000/svg" width="109" height="109" viewBox="0 0 109 109"><g id="kvg:StrokePaths_079b0"><g id="kvg:079b0" kvg:element="禰"><g id="kvg:079b0-g1" kvg:element="示" kvg:position="left" kvg:radical="general"><g id="kvg:079b0-g2" kvg:position="top"><path id="kvg:079b0-s1" kvg:type="㇐" d="M13.98 17.05c.8.36 2.26.4 3.07.36 5.01-.25 13.07-1.3 18.15-1.64 1.33-.09 2.13.17 2.8.35"/><path id="kvg:079b0-s2" kvg:type="㇐" d="M8.41 35.15c1.22.19 3.43.1 4.63.0 7.57-.58 19.09-2 27.81-2.76 2-.17 3.22-.05 4.23.02"/></g><g id="kvg:079b0-g3" kvg:position="bottom"><path id="kvg:079b0-s3" kvg:type="㇑" d="M26.59 35.93c.54.44.87 1.97.98 2.85s0 51.24-.11 56.72"/><path id="kvg:079b0-s4" kvg:type="㇒" d="M16.38 47.25c.51 1.55.5 2.35.5 3.66.0 9.6-.99 22.76-8.56 35.05"/><path id="kvg:079b0-s5" kvg:type="㇑/㇔" d="M36.8 44.25c1.06.46 1.71 2.05 1.92 2.97.21.91.0 28.41-.21 34.11"/></g></g><g id="kvg:079b0-g4" kvg:element="爾" kvg:position="right"><path id="kvg:079b0-s6" kvg:type="㇐" d="M49.85 19.97c.81.24 2.3.3 3.11.24 7.65-.51 29.76-2.79 37.48-2.79 1.35.0 2.17.12 2.84.24"/><g id="kvg:079b0-g5" kvg:element="八"><g id="kvg:079b0-g6" kvg:position="left"><path id="kvg:079b0-s7" kvg:type="㇒" d="M60.23 25.86c.04.29.09.74-.09 1.14-1.07 2.41-7.2 7.7-15.59 10.95"/></g><g id="kvg:079b0-g7" kvg:position="right"><path id="kvg:079b0-s8" kvg:type="㇏" d="M80.51 23.8c5.63 1.68 14.55 6.91 15.96 9.52"/></g></g><g id="kvg:079b0-g8" kvg:element="冂"><path id="kvg:079b0-s9" kvg:type="㇑" d="M48.52 41.88c.77 1.06 1.02 2.63 1.02 4.47.0 6.27.16 44.1.16 47.15"/><path id="kvg:079b0-s10" kvg:type="㇆a" d="M50.05 42.91c6.15-.81 39.89-3.78 41.1-4.06 2.59-.61 3.83.49 3.83 3.38.0 3.48.34 42.65-.11 47.3-.87 8.97-5.37 2.36-7.31-.28"/></g><path id="kvg:079b0-s11" kvg:type="㇑" d="M68.98 22.07c1.06 1.07 1.4 2.67 1.4 4.53.0 4.92-.29 65.06-.29 68.15"/><g id="kvg:079b0-g9" kvg:element="爻"><g id="kvg:079b0-g10" kvg:element="乂" kvg:position="top"><path id="kvg:079b0-s12" kvg:type="㇒" d="M64.03 47.01c.03.34.07.89-.06 1.38C63.21 51.3 58.9 57.68 53 61.58"/><path id="kvg:079b0-s13" kvg:type="㇏" d="M55.18 50.74c3.52 1 8.21 6.06 9.58 9.55"/></g><g id="kvg:079b0-g11" kvg:element="乂" kvg:position="bottom"><path id="kvg:079b0-s14" kvg:type="㇒" d="M65.65 67.56c.03.42.07 1.08-.07 1.69-.84 3.56-5.64 11.36-12.21 16.14"/><path id="kvg:079b0-s15" kvg:type="㇏" d="M55.24 72.43c3.73 1.11 8.69 6.74 10.15 10.64"/></g></g><g id="kvg:079b0-g12" kvg:element="爻"><g id="kvg:079b0-g13" kvg:element="乂" kvg:position="top"><path id="kvg:079b0-s16" kvg:type="㇒" d="M87.38 45.12c.03.38.07.98-.06 1.53-.75 3.22-5.04 10.28-10.92 14.6"/><path id="kvg:079b0-s17" kvg:type="㇏" d="M78.66 50.33c3.81 1.07 8.88 6.47 10.37 10.21"/></g><g id="kvg:079b0-g14" kvg:element="乂" kvg:position="bottom"><path id="kvg:079b0-s18" kvg:type="㇒" d="M87.92 66.9c.03.4.07 1.04-.06 1.62-.77 3.41-5.18 10.88-11.22 15.46"/><path id="kvg:079b0-s19" kvg:type="㇏" d="M77.82 71.43c3.75 2.45 8.23 7.88 10.33 11.68"/></g></g></g></g></g></svg>