<svg xmlns="http://www.w3.org/2000/svg" width="109" height="109" viewBox="0 0 109 109"><g id="kvg:StrokePaths_079d2" style="fill:none;stroke:#000000;stroke-width:3;stroke-linecap:round;stroke-linejoin:round;"><g id="kvg:079d2" kvg:element="秒"><g id="kvg:079d2-g1" kvg:element="禾" kvg:position="left" kvg:radical="general"><g id="kvg:079d2-g2" kvg:element="丿" kvg:position="top"><path id="kvg:079d2-s1" kvg:type="㇒" d="M43 12.75c-.12 1-.61 1.87-1.27 2.56-3.07 3.27-13.91 8.58-26.61 12.44"/></g><g id="kvg:079d2-g3" kvg:element="木" kvg:position="bottom"><path id="kvg:079d2-s2" kvg:type="㇐" d="M13.37 42.85c2.26.4 5.11-.01 6.67-.19 6.53-.78 17.81-2.81 24.6-3.87 1.39-.22 3.43-.43 4.84.04"/><path id="kvg:079d2-s3" kvg:type="㇑" d="M33.33 23.91c.7.7 1.16 2.22 1.16 3.2.06.79.02 43.22-.03 62.02-.01 4.47-.03 7.63-.04 8.62"/><path id="kvg:079d2-s4" kvg:type="㇒" d="M33.43 41.47c0 1.53-.3 2.63-.72 3.62-4.52 10.68-11.6 23.18-20.96 31.66"/><path id="kvg:079d2-s5" kvg:type="㇔/㇏" d="M37.25 50.75c3.56 2.33 6.58 7 8.5 10"/></g></g><g id="kvg:079d2-g4" kvg:element="少" kvg:position="right"><g id="kvg:079d2-g5" kvg:element="小"><path id="kvg:079d2-s6" kvg:type="㇚" d="M72.11 15.25c1.01 1.01 1.46 2.25 1.46 3.96.0 10.67-.2 33.54-.2 37.04.0 8.5-5.53.51-6.69-.33"/><path id="kvg:079d2-s7" kvg:type="㇒" d="M61.7 33.69c.03.45.13 1.18-.07 1.81-1.4 4.49-6.41 12.65-11.21 16.79"/><path id="kvg:079d2-s8" kvg:type="㇔" d="M86.68 30.98c4.47 2.95 10.46 10.53 11.57 15.12"/></g><g id="kvg:079d2-g6" kvg:element="丿"><path id="kvg:079d2-s9" kvg:type="㇒" d="M86.55 48.47c.1 1.15.07 2.99-.46 4.61-4.46 13.67-19.71 33.54-37.61 43.67"/></g></g></g></g></svg>