<svg xmlns="http://www.w3.org/2000/svg" width="109" height="109" viewBox="0 0 109 109"><g id="kvg:StrokePaths_079ec"><g id="kvg:079ec" kvg:element="秬"><g id="kvg:079ec-g1" kvg:element="禾" kvg:position="left" kvg:radical="general"><g id="kvg:079ec-g2" kvg:element="丿" kvg:position="top"><path id="kvg:079ec-s1" kvg:type="㇒" d="M39.75 16.75c.07.3.14.77-.13 1.21-1.6 2.54-10.79 8.13-23.37 11.54"/></g><g id="kvg:079ec-g3" kvg:element="木" kvg:position="bottom"><path id="kvg:079ec-s2" kvg:type="㇐" d="M15.37 45.92c.47.12 1.72.3 2.97.35 3.44.12 15.93-2.22 24.54-2.8 1.25-.08 1.56-.11 2.35.0"/><path id="kvg:079ec-s3" kvg:type="㇑" d="M31.83 27.5c.37.43.58 1.92.66 2.78.07.85.0 60.63-.07 65.97"/><path id="kvg:079ec-s4" kvg:type="㇒" d="M32.25 50C28.15 60.08 21.29 72.51 12 80.75"/><path id="kvg:079ec-s5" kvg:type="㇔/㇏" d="M35 53.75c4.3 2.51 7.94 7.53 10.25 10.75"/></g></g><g id="kvg:079ec-g4" kvg:element="巨" kvg:position="right"><g id="kvg:079ec-g5" kvg:element="匚" kvg:part="1" kvg:variant="true"><path id="kvg:079ec-s6" kvg:type="㇑" d="M52.54 22.76c.97.44 1.56 1.97 1.75 2.85.2.88.0 61.51-.2 67"/></g><g id="kvg:079ec-g6" kvg:element="二" kvg:part="1"><path id="kvg:079ec-s7" kvg:type="㇐" d="M46.878524 22C53.568524 24.15 78.42 22.51 86.3 21.68c2.33-.25 3.78-.15 4.96.02"/></g><path id="kvg:079ec-s8" kvg:type="㇕" d="M55 45.83c15.27-1.56 17.72-1.56 28.33-2.4 2.6-.21 4.02 1.42 3.46 4.07-.88 4.19-1.92 11.52-3.02 16.5"/><path id="kvg:079ec-s9" kvg:type="㇐" d="M54.4 67.29c4.67-.22 20.19-1.74 27.6-2.16 1.84-.1 3.89.33 4.98.32"/><g id="kvg:079ec-g7" kvg:element="二" kvg:part="2"><g id="kvg:079ec-g8" kvg:element="匚" kvg:part="2" kvg:variant="true"><path id="kvg:079ec-s10" kvg:type="㇐" d="M42.26 93.01c2.67.15 3.74.43 6.16.16 8.22-.91 28.19-2.44 43.84-2.99 2.85-.1 4.57.29 5.99.53"/></g></g></g></g></g></svg>