<svg xmlns="http://www.w3.org/2000/svg" width="109" height="109" viewBox="0 0 109 109"><g id="kvg:StrokePaths_079e3" style="fill:none;stroke:#000000;stroke-width:3;stroke-linecap:round;stroke-linejoin:round;"><g id="kvg:079e3" kvg:element="秣"><g id="kvg:079e3-g1" kvg:element="禾" kvg:position="left" kvg:radical="general"><g id="kvg:079e3-g2" kvg:element="丿" kvg:position="top"><path id="kvg:079e3-s1" kvg:type="㇒" d="M39.75 17c.08.35.16.91-.16 1.42C37.7 21.41 26.85 27.98 12 32"/></g><g id="kvg:079e3-g3" kvg:element="木" kvg:position="bottom"><path id="kvg:079e3-s2" kvg:type="㇐" d="M10.37 45.65c.36.13 1.33.35 2.29.4 2.65.13 24.39-1.99 31.03-2.65.96-.1 1.21-.13 1.81.0"/><path id="kvg:079e3-s3" kvg:type="㇑" d="M30.89 28.41c.43.43.69 1.93.78 2.78.09.86.0 59.71-.09 65.06"/><path id="kvg:079e3-s4" kvg:type="㇒" d="M31.5 47C27.14 57.73 19.87 70.97 10 79.75"/><path id="kvg:079e3-s5" kvg:type="㇔/㇏" d="M33.25 50.75c4.3 2.74 7.94 8.22 10.25 11.75"/></g></g><g id="kvg:079e3-g4" kvg:element="末" kvg:position="right"><path id="kvg:079e3-s6" kvg:type="㇐" d="M47.68 34.57c1.21.34 3.42.4 4.63.34 6.11-.31 29.86-2.66 36.96-2.81 2.01-.04 3.22.16 4.23.33"/><g id="kvg:079e3-g5" kvg:element="木"><path id="kvg:079e3-s7" kvg:type="㇐" d="M49.67 54.49c.83.19 3.06.22 5.28.19 12.65-.22 20.66-1.82 31.51-2.15 2.22-.07 2.78-.19 4.17.0"/><path id="kvg:079e3-s8" kvg:type="㇑" d="M65.94 13.25c.92.47 1.46 2.11 1.65 3.05.18.94.0 74.84-.18 80.7"/><path id="kvg:079e3-s9" kvg:type="㇒" d="M68 54.25c-5.2 10.73-18.7 25.92-29.5 32"/><path id="kvg:079e3-s10" kvg:type="㇏" d="M68 54.25c3.85 4.22 20.76 24.19 24.94 28.34C94.36 83.99 95.58 84.6 97 85"/></g></g></g></g></svg>