<svg xmlns="http://www.w3.org/2000/svg" width="109" height="109" viewBox="0 0 109 109"><g id="kvg:StrokePaths_07a0b"><g id="kvg:07a0b" kvg:element="程"><g id="kvg:07a0b-g1" kvg:element="禾" kvg:position="left" kvg:radical="general"><g id="kvg:07a0b-g2" kvg:element="丿" kvg:position="top"><path id="kvg:07a0b-s1" kvg:type="㇒" d="M38 12.5c0 1.12-.32 2.27-1.14 3.08-3.24 3.17-9.64 8.14-20.36 13.67"/></g><g id="kvg:07a0b-g3" kvg:element="木" kvg:position="bottom"><path id="kvg:07a0b-s2" kvg:type="㇐" d="M10.37 43.85c1.76.28 4.09.08 5.27-.03 6.59-.58 21.68-2.59 28.24-3.56 1.2-.18 2.62-.39 3.85-.19"/><path id="kvg:07a0b-s3" kvg:type="㇑" d="M32.19 24.16c1.02 1.02 1.42 2.36 1.42 3.79.0 1.21-.17 46.28-.22 64.31-.01 3.26-.02 4.19-.02 5.37"/><path id="kvg:07a0b-s4" kvg:type="㇒" d="M32.43 42.97c0 1.28-.97 4.21-1.68 5.74-4.5 9.66-9.24 18.72-19.5 30.29"/><path id="kvg:07a0b-s5" kvg:type="㇔/㇏" d="M37.25 50.75c3.98 2.57 7.35 7.7 9.5 11"/></g></g><g id="kvg:07a0b-g4" kvg:element="呈" kvg:position="right" kvg:phon="呈"><g id="kvg:07a0b-g5" kvg:element="口" kvg:position="top"><path id="kvg:07a0b-s6" kvg:type="㇑" d="M52.26 19.41c.97.97 1.71 2.41 1.8 3.69.87 3.74 1.68 10.23 2.6 16.87.19 1.33.39 2.7.61 4.09"/><path id="kvg:07a0b-s7" kvg:type="㇕b" d="M54.81 21.06c9.63-1.1 24.46-2.49 30.7-3.15 2.87-.3 4.62 1.1 3.94 4.1-.99 4.4-1.57 5.84-3.35 15.32"/><path id="kvg:07a0b-s8" kvg:type="㇐b" d="M57.93 40.63c5.17-.55 18.17-1.54 26.6-2.3 1.47-.13 2.82-.25 3.96-.35"/></g><g id="kvg:07a0b-g6" kvg:element="王" kvg:original="玉" kvg:partial="true" kvg:position="bottom"><path id="kvg:07a0b-s9" kvg:type="㇐" d="M55.26 55.61c1.62.26 4.34.03 5.76-.13 5.04-.55 15.76-1.7 23.61-2.32 1.87-.15 3.74-.29 5.57.14"/><path id="kvg:07a0b-s10" kvg:type="㇑a" d="M71.4 56.65c.79.79 1.33 2.05 1.33 3.07.0 7.16.0 22.41.0 30.72"/><path id="kvg:07a0b-s11" kvg:type="㇐" d="M54.46 73.12c1.89.42 3.86.21 5.78.04 7.69-.68 16.83-2.26 25.64-2.94 1.64-.13 3.54-.33 5.12.12"/><path id="kvg:07a0b-s12" kvg:type="㇐" d="M45.75 92.99c2.62.51 5.33.32 7.51.12 17.36-1.62 27.86-2.48 40.24-2.67 2.42-.04 5.37.06 7.24.74"/></g></g></g></g></svg>