<!DOCTYPE svg PUBLIC "-//W3C//DTD SVG 1.0//EN" "http://www.w3.org/TR/2001/REC-SVG-20010904/DTD/svg10.dtd" [
<!ATTLIST g
xmlns:kvg CDATA #FIXED "http://kanjivg.tagaini.net"
kvg:element CDATA #IMPLIED
kvg:variant CDATA #IMPLIED
kvg:partial CDATA #IMPLIED
kvg:original CDATA #IMPLIED
kvg:part CDATA #IMPLIED
kvg:number CDATA #IMPLIED
kvg:tradForm CDATA #IMPLIED
kvg:radicalForm CDATA #IMPLIED
kvg:position CDATA #IMPLIED
kvg:radical CDATA #IMPLIED
kvg:phon CDATA #IMPLIED >
<!ATTLIST path
xmlns:kvg CDATA #FIXED "http://kanjivg.tagaini.net"
kvg:type CDATA #IMPLIED >
]><svg xmlns="http://www.w3.org/2000/svg" width="109" height="109" viewBox="0 0 109 109"><g id="kvg:StrokePaths_07a1a" style="fill:none;stroke:#000000;stroke-width:3;stroke-linecap:round;stroke-linejoin:round;"><g id="kvg:07a1a" kvg:element="稚"><g id="kvg:07a1a-g1" kvg:element="禾" kvg:position="left" kvg:radical="general"><g id="kvg:07a1a-g2" kvg:element="丿" kvg:position="top"><path id="kvg:07a1a-s1" kvg:type="㇒" d="M38.5 15.5c.06.41-.21 1.66-.63 2.15-3.63 4.35-11.5 10.72-21.63 15.6"/></g><g id="kvg:07a1a-g3" kvg:element="木" kvg:position="bottom"><path id="kvg:07a1a-s2" kvg:type="㇐" d="M13.12 42.83c2.01.55 3.62.44 5.14.28 5.77-.63 17.15-2.35 22.62-3.18.86-.13 2.24-.42 3.35-.24"/><path id="kvg:07a1a-s3" kvg:type="㇑" d="M31.08 28.66c1.07 1.07 1.16 2.22 1.16 3.69.0.69.02 40.56-.04 56.65-.01 3.16-.02 5.4-.04 6.25"/><path id="kvg:07a1a-s4" kvg:type="㇒" d="M31.43 42.97c0 1.78-.92 3.93-1.58 5.58C25.58 59.22 20.25 69 11.5 79.75"/><path id="kvg:07a1a-s5" kvg:type="㇔/㇏" d="M35.75 52.12c3.35 2.3 6.19 6.91 8 9.88"/></g></g><g id="kvg:07a1a-g4" kvg:element="隹" kvg:position="right"><g id="kvg:07a1a-g5" kvg:element="亻" kvg:variant="true" kvg:original="人"><path id="kvg:07a1a-s6" kvg:type="㇒" d="M60.92 15.25c.16 1.82-.05 2.94-.56 4.5C57.09 29.66 52.7 39.3 45.2 51.37"/><path id="kvg:07a1a-s7" kvg:type="㇑" d="M52.82 40.08c.92.92 1.42 2.42 1.42 4.16.0 8.13-.07 32.04-.1 44.13-.01 3.72-.02 6.32-.02 7"/></g><path id="kvg:07a1a-s8" kvg:type="㇒" d="M79.81 15.25c.08.97-.02 2.24-.27 3.07-1.6 5.3-3.62 9.4-7.29 15.85"/><path id="kvg:07a1a-s9" kvg:type="㇐b" d="M53.57 39.3C62 38.25 75.9 37 85.27 35.9c3.34-.39 5.84-.7 6.74-.86"/><path id="kvg:07a1a-s10" kvg:type="㇑a" d="M73.93 40.24c.97.98 1.19 1.76 1.19 3.3.0 7.73-.12 29.58-.12 43.33"/><path id="kvg:07a1a-s11" kvg:type="㇐b" d="M55.38 55.09c8.12-.46 21.46-1.57 28.41-2.15 3.36-.28 5.89-.5 6.78-.62"/><path id="kvg:07a1a-s12" kvg:type="㇐b" d="M55.23 70.92c5.92-.59 21.14-1.67 30.28-2.47 3.03-.27 5.28-.48 6.12-.58"/><path id="kvg:07a1a-s13" kvg:type="㇐b" d="M55.23 89.36c9.9-.73 26.21-1.96 36.32-2.68 2.65-.19 4.55-.35 5.26-.45"/></g></g></g><g id="kvg:StrokeNumbers_07a1a" style="font-size:8;fill:#808080"><text transform="matrix(1 0 0 1 30.75 14.50)">1</text><text transform="matrix(1 0 0 1 5.50 43.50)">2</text><text transform="matrix(1 0 0 1 24.50 37.63)">3</text><text transform="matrix(1 0 0 1 20.50 53.50)">4</text><text transform="matrix(1 0 0 1 36.50 50.50)">5</text><text transform="matrix(1 0 0 1 51.50 15.50)">6</text><text transform="matrix(1 0 0 1 47.25 60.13)">7</text><text transform="matrix(1 0 0 1 70.50 15.50)">8</text><text transform="matrix(1 0 0 1 60.50 35.50)">9</text><text transform="matrix(1 0 0 1 64.50 46.50)">10</text><text transform="matrix(1 0 0 1 59.25 51.50)">11</text><text transform="matrix(1 0 0 1 59.25 67.41)">12</text><text transform="matrix(1 0 0 1 59.25 85.33)">13</text></g></svg>