<svg xmlns="http://www.w3.org/2000/svg" width="109" height="109" viewBox="0 0 109 109"><g id="kvg:StrokePaths_07a20" style="fill:none;stroke:#000000;stroke-width:3;stroke-linecap:round;stroke-linejoin:round;"><g id="kvg:07a20" kvg:element="稠"><g id="kvg:07a20-g1" kvg:element="禾" kvg:position="left" kvg:radical="general"><g id="kvg:07a20-g2" kvg:element="丿" kvg:position="top"><path id="kvg:07a20-s1" kvg:type="㇒" d="M37.75 15.25c.07.34.16.87-.15 1.35-1.8 2.84-12.17 9.08-26.35 12.9"/></g><g id="kvg:07a20-g3" kvg:element="木" kvg:position="bottom"><path id="kvg:07a20-s2" kvg:type="㇐" d="M9.87 43.47c.51.12 1.88.38 3.25.36 6.88-.08 17.63-1.82 27.04-2.43 1.36-.09 1.71-.12 2.57.0"/><path id="kvg:07a20-s3" kvg:type="㇑" d="M28.7 26.5c.5.46.8 2.05.9 2.96.1.91.0 63.09-.1 68.79"/><path id="kvg:07a20-s4" kvg:type="㇒" d="M29.5 44.75C25.5 55.97 18.81 69.82 9.75 79"/><path id="kvg:07a20-s5" kvg:type="㇔/㇏" d="M31.75 51.75c4.3 2.74 7.94 8.22 10.25 11.75"/></g></g><g id="kvg:07a20-g4" kvg:element="周" kvg:variant="true" kvg:position="right"><g id="kvg:07a20-g5" kvg:element="冂" kvg:variant="true"><path id="kvg:07a20-s6" kvg:type="㇒/㇑" d="M48.3 17.32c.65 1.25 1.5 3.19 1.5 5.45.0 3.49.01 6.73.01 23.17.0 18.39-.48 42.12-12.32 50.31"/><path id="kvg:07a20-s7" kvg:type="㇆a" d="M49.66 19.71C55.69 18.77 89.38 16 90.59 16c2.24.0 3.5 2.25 3.5 4.48.0 2.36-.34 62.27-.34 67.69.0 8.48-1.65 8.58-6.72 2.84"/></g><g id="kvg:07a20-g6" kvg:element="吉" kvg:variant="true"><g id="kvg:07a20-g7" kvg:element="士" kvg:variant="true"><path id="kvg:07a20-s8" kvg:type="㇐" d="M56.81 33.72c.96.37 2.71.26 3.67.22 5.18-.19 16.43-1.77 20.26-1.94 1.6-.07 2.56.06 3.35.23"/><path id="kvg:07a20-s9" kvg:type="㇐" d="M55.31 47.4c1 .19 2.83.19 3.83.1 5.46-.5 18.62-1.75 25.14-1.9 1.66-.04 2.66.02 3.49.1"/><path id="kvg:07a20-s10" kvg:type="㇑" d="M68.8 22.64c.62.33.99 1.61 1.11 2.34.12.74.01 25.14-.11 29.8"/></g><g id="kvg:07a20-g8" kvg:element="口"><path id="kvg:07a20-s11" kvg:type="㇑" d="M57.94 60.5c.26.33.51.6.63 1.02.88 3.27 1.93 14.12 2.53 19.99"/><path id="kvg:07a20-s12" kvg:type="㇕b" d="M59.55 61.94c7.2-.69 17.83-2.34 20.65-2.52 1.03-.06 1.57 1.88 1.39 2.86-.76 4.07-1.33 9.54-2.86 15.36"/><path id="kvg:07a20-s13" kvg:type="㇐b" d="M61.14 79.29c4.91-.58 16.23-1.57 19.86-1.67"/></g></g></g></g></g></svg>