<svg xmlns="http://www.w3.org/2000/svg" width="109" height="109" viewBox="0 0 109 109"><g id="kvg:StrokePaths_07a3d"><g id="kvg:07a3d" kvg:element="稽"><g id="kvg:07a3d-g1" kvg:element="禾" kvg:position="left" kvg:radical="general"><g id="kvg:07a3d-g2" kvg:element="丿" kvg:position="top"><path id="kvg:07a3d-s1" kvg:type="㇒" d="M39.5 17c-.25 1.12-1.03 1.99-2.01 2.6-5.24 3.27-10.74 6.52-22.24 10.65"/></g><g id="kvg:07a3d-g3" kvg:element="木" kvg:position="bottom"><path id="kvg:07a3d-s2" kvg:type="㇐" d="M11.62 44.42c2.14.77 4.36.92 6.65.43 5.62-.65 15.11-2.24 20.74-3.08 1.57-.18 3.15-.25 4.73-.22"/><path id="kvg:07a3d-s3" kvg:type="㇑" d="M30.38 27.5c.74.74 1.07 1.59 1.07 2.94.0.68.16 39.72.15 56.81.0 3.83-.01 6.55-.03 7.5"/><path id="kvg:07a3d-s4" kvg:type="㇒" d="M31.43 45.72c-.18 1.41-.56 3.56-1.15 4.98-3.91 9.42-10.1 18.79-18.03 27.8"/><path id="kvg:07a3d-s5" kvg:type="㇔/㇏" d="M34.75 52.25c3.67 2.45 6.27 6.35 8.25 9.5"/></g></g><g id="kvg:07a3d-g4" kvg:position="right"><g id="kvg:07a3d-g5" kvg:element="尤" kvg:position="top"><g id="kvg:07a3d-g6" kvg:element="尢"><path id="kvg:07a3d-s6" kvg:type="㇐" d="M48.05 25.59c2.35.36 4.71.41 7.08.12 7.17-.88 20-2.61 28.87-3.23 2.84-.37 5.67-.35 8.5.06"/><g id="kvg:07a3d-g7" kvg:element="儿" kvg:original="八"><g id="kvg:07a3d-g8" kvg:element="丿"><path id="kvg:07a3d-s7" kvg:type="㇒" d="M64.71 12.5c.49.96.66 1.96.59 3-.55 8.5-4.8 20.88-16.63 27.17"/></g><path id="kvg:07a3d-s8" kvg:type="㇟" d="M71.35 25.41c.62.62.78 1.49.78 2.37.0 2.85-.05 5.22-.05 7.89.0 4.09 2.29 5.52 10.06 5.52 3.52.0 10.31.76 10.75-4.37"/></g></g><g id="kvg:07a3d-g9" kvg:element="丶"><path id="kvg:07a3d-s9" kvg:type="㇔" d="M76.54 10.96c2.73 1.03 6.8 4.47 7.48 6.06"/></g></g><g id="kvg:07a3d-g10" kvg:element="旨" kvg:position="bottom"><g id="kvg:07a3d-g11" kvg:element="匕" kvg:position="top"><path id="kvg:07a3d-s10" kvg:type="㇒" d="M80.48 46.3c0 1.2-.98 2.03-2.29 2.59C72 51.5 63.73 54.08 53.43 55.65"/><path id="kvg:07a3d-s11" kvg:type="㇟" d="M52.48 44.75c.63.63 1.07 1.75 1.07 2.85.0 2.25-.07 1.99-.07 6.48.0 7.03 2.62 7.67 18.94 7.67 16.7.0 18.08-2.01 18.08-6.56"/></g><g id="kvg:07a3d-g12" kvg:element="日" kvg:position="bottom"><path id="kvg:07a3d-s12" kvg:type="㇑" d="M52.46 70.78c.88.88 1.04 1.72 1.13 3.34.03.55 1.13 11.15 1.77 17.39.26 2.54.44 4.36.44 4.47"/><path id="kvg:07a3d-s13" kvg:type="㇕a" d="M54.57 71.81c4.48-.49 23.42-2.36 29.28-2.86 2.9-.25 4.51 1.39 4.04 4.06-.7 3.99-2 11.75-2.86 17.08-.51 3.14-.87 5.44-.87 5.62"/><path id="kvg:07a3d-s14" kvg:type="㇐a" d="M55.51 82.37c7.12-.74 21.24-1.99 30.25-2.34"/><path id="kvg:07a3d-s15" kvg:type="㇐a" d="M57.1 95.18c6.84-.42 17.62-1.29 26.14-1.65"/></g></g></g></g></g></svg>