<svg xmlns="http://www.w3.org/2000/svg" width="109" height="109" viewBox="0 0 109 109"><g id="kvg:StrokePaths_07a3b" style="fill:none;stroke:#000000;stroke-width:3;stroke-linecap:round;stroke-linejoin:round;"><g id="kvg:07a3b" kvg:element="稻"><g id="kvg:07a3b-g1" kvg:element="禾" kvg:position="left" kvg:radical="general"><g id="kvg:07a3b-g2" kvg:element="丿" kvg:position="top"><path id="kvg:07a3b-s1" kvg:type="㇒" d="M40.99 15c.07.3.16.77-.15 1.21-1.8 2.54-12.16 8.13-26.34 11.54"/></g><g id="kvg:07a3b-g3" kvg:element="木" kvg:position="bottom"><path id="kvg:07a3b-s2" kvg:type="㇐" d="M13.48 42.07c.31.17 1.15.44 1.99.5 2.31.17 21.19-2.47 26.95-3.3.84-.12 1.05-.16 1.57.0"/><path id="kvg:07a3b-s3" kvg:type="㇑" d="M31.33 25.5c.37.44.58 1.99.66 2.88.07.89.0 62.83-.07 68.37"/><path id="kvg:07a3b-s4" kvg:type="㇒" d="M31.93 44.47C27.59 55.46 20.34 69.01 10.5 78"/><path id="kvg:07a3b-s5" kvg:type="㇔/㇏" d="M35.75 51c2.94 2.98 5.42 8.92 7 12.75"/></g></g><g id="kvg:07a3b-g4" kvg:element="舀" kvg:position="right"><g id="kvg:07a3b-g5" kvg:element="⺤" kvg:variant="true" kvg:original="爪" kvg:position="top"><path id="kvg:07a3b-s6" kvg:type="㇒" d="M85.5 12c.1.3.2.78-.19 1.21C82.96 15.75 69.47 21.33 51 24.75"/><path id="kvg:07a3b-s7" kvg:type="㇒" d="M55.49 32.25c.03.43.07 1.11-.06 1.73C54.65 37.62 50.15 45.61 44 50.5"/><path id="kvg:07a3b-s8" kvg:type="㇔" d="M67 29.75c3.13 2.23 8.08 9.19 8.87 12.67"/><path id="kvg:07a3b-s9" kvg:type="㇔" d="M83 25.5c5.47 3.09 14.13 12.7 15.5 17.5"/></g><g id="kvg:07a3b-g6" kvg:element="臼" kvg:position="bottom"><path id="kvg:07a3b-s10" kvg:type="㇒" d="M66.18 47.86c.04.31.18.9-.08 1.23-3.46 4.36-7.5 8.26-15.4 11.73"/><path id="kvg:07a3b-s11" kvg:type="㇑" d="M49.53 59.32c.77.72 1.08 2.33 1.27 3.8.69 5.38 2.89 26.42 3.59 33.7"/><path id="kvg:07a3b-s12" kvg:type="㇐" d="M52.11 75.37c3.21-.33 11.59-2.14 12.35-2.14s1.84.0 2.45.0"/><path id="kvg:07a3b-s13" kvg:type="㇕" d="M74.55 55.98c.81.16 1.45.49 2.58.49s13.07-.98 14.36-1.14c1.29-.16 2.36.82 2.26 1.81-.97 9.55-5.09 37.95-5.25 38.61"/><path id="kvg:07a3b-s14" kvg:type="㇐" d="M75.85 73.15c.71.12 1.28.35 2.27.35s11.21-.93 12.35-1.04"/><path id="kvg:07a3b-s15" kvg:type="㇐" d="M54.05 93.53c1.92.0 32.42-2.13 34.63-2.29"/></g></g></g></g></svg>