<svg xmlns="http://www.w3.org/2000/svg" width="109" height="109" viewBox="0 0 109 109"><g id="kvg:StrokePaths_07a43"><g id="kvg:07a43" kvg:element="穃"><g id="kvg:07a43-g1" kvg:element="禾" kvg:position="left" kvg:radical="general"><g id="kvg:07a43-g2" kvg:element="丿" kvg:position="top"><path id="kvg:07a43-s1" kvg:type="㇒" d="M36.74 13.75c.07.29.15.74-.15 1.16C34.81 17.35 24.54 22.72 10.5 26"/></g><g id="kvg:07a43-g3" kvg:element="木" kvg:position="bottom"><path id="kvg:07a43-s2" kvg:type="㇐" d="M10.37 41.53c.26.13.95.34 1.63.39 1.89.13 17.35-1.95 22.07-2.59.68-.09.86-.13 1.29.0"/><path id="kvg:07a43-s3" kvg:type="㇑" d="M25.39 24.25c.43.46.69 2.05.78 2.96s0 64.59-.09 70.29"/><path id="kvg:07a43-s4" kvg:type="㇒" d="M26 44c-3.45 11.3-9.2 25.25-17 34.5"/><path id="kvg:07a43-s5" kvg:type="㇔/㇏" d="M26.5 48.75c3.98 3.09 7.35 9.27 9.5 13.25"/></g></g><g id="kvg:07a43-g4" kvg:element="容" kvg:position="right"><g id="kvg:07a43-g5" kvg:element="宀" kvg:position="top"><path id="kvg:07a43-s6" kvg:type="㇑a" d="M64.05 12.66c1.21.43 2.45 3.04 2.42 4.28-.09 3.91-.09 6.98-.09 10.54"/><g id="kvg:07a43-g6" kvg:element="冖"><path id="kvg:07a43-s7" kvg:type="㇔" d="M43.71 26.25c0 4.02-1.9 15.07-2.77 17.75"/><path id="kvg:07a43-s8" kvg:type="㇖b" d="M45.75 30.67c6.31-.56 39.98-2.55 45.11-2.58 9.31-.06 1.38 6.71-.61 7.91"/></g></g><g id="kvg:07a43-g7" kvg:element="谷" kvg:position="bottom"><g id="kvg:07a43-g8" kvg:position="top"><path id="kvg:07a43-s9" kvg:type="㇒" d="M58 38.5c.04.39.2 1.07-.09 1.58-2.23 4-6.92 9.55-15.41 15.17"/><path id="kvg:07a43-s10" kvg:type="㇔" d="M75.25 37.5c5.67 3.28 12.57 9.55 14.51 12.91"/></g><g id="kvg:07a43-g9" kvg:position="bottom"><path id="kvg:07a43-s11" kvg:type="㇒" d="M66.5 46.25c.08.71.35 1.91-.17 2.84-4.62 8.32-14.07 18.15-30.25 28.08"/><path id="kvg:07a43-s12" kvg:type="㇏" d="M65.91 50.65c7.21 7.25 20.65 17.6 27.26 21.45 1.64.96 3.54 1.58 5.08 1.89"/><g id="kvg:07a43-g10" kvg:element="口"><path id="kvg:07a43-s13" kvg:type="㇑" d="M50.5 75.75c.36.33.73 1.12.89 1.53 1.25 3.31 2.36 14.47 3.18 20.42"/><path id="kvg:07a43-s14" kvg:type="㇕b" d="M52.07 77.82c9.93-1.07 21.67-1.95 27.52-2.65 2-.24 3.22 1.6 2.92 2.65-1.45 5-1.66 9.79-3.01 15.93"/><path id="kvg:07a43-s15" kvg:type="㇐b" d="M54.34 95.72c7.43-.15 18.8-.95 27.34-1.19"/></g></g></g></g></g></g></svg>