<svg xmlns="http://www.w3.org/2000/svg" width="109" height="109" viewBox="0 0 109 109"><g id="kvg:StrokePaths_07a49" style="fill:none;stroke:#000000;stroke-width:3;stroke-linecap:round;stroke-linejoin:round;"><g id="kvg:07a49" kvg:element="穉"><g id="kvg:07a49-g1" kvg:element="禾" kvg:position="left" kvg:radical="general"><g id="kvg:07a49-g2" kvg:element="丿" kvg:position="top"><path id="kvg:07a49-s1" kvg:type="㇒" d="M39.24 14.75c.07.32.15.83-.15 1.3-1.77 2.74-11.94 8.76-25.85 12.45"/></g><g id="kvg:07a49-g3" kvg:element="木" kvg:position="bottom"><path id="kvg:07a49-s2" kvg:type="㇐" d="M11.6 41.46c.49.24 1.82.64 3.15.75 3.65.3 17.61-1.64 26.78-2.6 1.33-.14 1.66-.19 2.49.05"/><path id="kvg:07a49-s3" kvg:type="㇑" d="M28.83 26.16c.37.44.58 1.99.66 2.87.07.88.0 61.19-.07 66.72"/><path id="kvg:07a49-s4" kvg:type="㇒" d="M29.5 42.5c-3.7 13.03-9.87 29.1-18.25 39.75"/><path id="kvg:07a49-s5" kvg:type="㇔/㇏" d="M31.25 51c4.4 2.63 8.13 7.88 10.5 11.25"/></g></g><g id="kvg:07a49-g4" kvg:element="犀" kvg:position="right"><g id="kvg:07a49-g5" kvg:element="尸" kvg:position="tare"><path id="kvg:07a49-s6" kvg:type="㇕c" d="M48.67 15.82c1.43.71 3.09.84 4.61.71 9.67-.85 30.69-2.54 33.96-3.13 2.16-.39 3.22.57 2.84 3.36-.47 3.51-.69 5.79-1.34 9.99"/><path id="kvg:07a49-s7" kvg:type="㇐b" d="M52.82 30.38c4.37-.23 34.26-3.47 38.81-3.7"/><path id="kvg:07a49-s8" kvg:type="㇒" d="M52.17 17.61c0 3.95-.22 15.95-.58 19.63-2.01 20.92-3.48 37.49-13.34 52.5"/></g><g id="kvg:07a49-g6" kvg:position="tarec"><path id="kvg:07a49-s9" kvg:type="㇑" d="M72.95 31.48c.78.87 1.33 1.9 1.39 4.79.32 13.89-.02 8.77-.02 13.51"/><g id="kvg:07a49-g7" kvg:element="二"><path id="kvg:07a49-s10" kvg:type="㇐" d="M56.67 38.02c.2.11.55.07.74.11 1.94.44 7.71-.79 8.91-.66.32.04.52.05.68.11"/><path id="kvg:07a49-s11" kvg:type="㇐" d="M56.48 47.56c.2.11.57.07.77.11 2 .44 7.95-.79 9.18-.66.33.04.53.05.7.11"/></g><g id="kvg:07a49-g8" kvg:element="二"><path id="kvg:07a49-s12" kvg:type="㇐" d="M83.5 36.35c.19.11.53.07.72.11 1.88.44 7.44-.79 8.6-.66.31.04.5.05.66.11"/><path id="kvg:07a49-s13" kvg:type="㇐" d="M82.52 45.2c.24.12.67.08.9.12 2.36.48 9.36-.88 10.81-.74.39.04.63.06.82.12"/></g><g id="kvg:07a49-g9" kvg:element="牛"><path id="kvg:07a49-s14" kvg:type="㇒" d="M61.52 54.77c.02.39.05 1-.04 1.56-.53 3.29-3.57 10.5-7.73 14.92"/><path id="kvg:07a49-s15" kvg:type="㇐" d="M60.64 65.2c.62.19 1.75.23 2.37.19 7.57-.52 21.04-2.52 27.84-3.19 1.02-.1 1.65.09 2.16.19"/><path id="kvg:07a49-s16" kvg:type="㇐" d="M54.11 78.11c.83.15 2.36.17 3.2.15 8.68-.25 24.74-1.91 37.4-1.96 1.39-.01 2.22.07 2.92.14"/><path id="kvg:07a49-s17" kvg:type="㇑" d="M74.05 55.5c.4.22 1.24 1.64 1.32 2.08s-.05 37.43-.13 40.17"/></g></g></g></g></g></svg>