<svg xmlns="http://www.w3.org/2000/svg" width="109" height="109" viewBox="0 0 109 109"><g id="kvg:StrokePaths_07a46"><g id="kvg:07a46" kvg:element="穆"><g id="kvg:07a46-g1" kvg:element="禾" kvg:position="left" kvg:radical="general"><g id="kvg:07a46-g2" kvg:element="丿" kvg:position="top"><path id="kvg:07a46-s1" kvg:type="㇒" d="M39.25 15.25c.07.34-.22 1.48-.64 1.85-3.61 3.15-9.86 7.65-23.36 12.4"/></g><g id="kvg:07a46-g3" kvg:element="木" kvg:position="bottom"><path id="kvg:07a46-s2" kvg:type="㇐" d="M10.37 44.29c.36.24 1.31.62 2.26.7 2.62.23 24.03-3.51 30.57-4.69.95-.17 1.19-.23 1.78.0"/><path id="kvg:07a46-s3" kvg:type="㇑" d="M31.8 25.41c.4.45.64 2.04.72 2.95.08.91.0 64.24-.08 69.9"/><path id="kvg:07a46-s4" kvg:type="㇒" d="M32.43 44.47C27.99 55.62 20.57 69.38 10.5 78.5"/><path id="kvg:07a46-s5" kvg:type="㇔/㇏" d="M34.75 48.5c3.67 2.98 6.77 8.92 8.75 12.75"/></g></g><g id="kvg:07a46-g4" kvg:position="right"><g id="kvg:07a46-g5" kvg:element="CDP-8BC4"><g id="kvg:07a46-g6" kvg:element="白"><g id="kvg:07a46-g7" kvg:position="top"><path id="kvg:07a46-s6" kvg:type="㇔" d="M67.84 10.77c.23.34.29.78.25 1.1-.22 1.88-2.65 6.51-4.93 9.18"/></g><g id="kvg:07a46-g8" kvg:element="日" kvg:position="bottom"><path id="kvg:07a46-s7" kvg:type="㇑" d="M50.31 22.9c.56.42 1.14 1.52 1.29 2.11 1.15 4.49 2.85 14.15 3.05 15.6"/><path id="kvg:07a46-s8" kvg:type="㇕a" d="M52.39 23.79c3.01-.24 30.19-3.31 32.94-3.55 2.29-.2 3.5 1.69 3.2 3.28-.86 4.56-1.03 8.48-3.12 14.54"/><path id="kvg:07a46-s9" kvg:type="㇐a" d="M53.35 31.38c4.08-.22 29.41-2.7 34.03-2.95"/><path id="kvg:07a46-s10" kvg:type="㇐a" d="M55.49 38.86c9.48-.57 21.06-1.8 30.58-2.18"/></g></g><g id="kvg:07a46-g9" kvg:element="小"><path id="kvg:07a46-s11" kvg:type="㇚" d="M69.13 40.78c.05.18 1.48.94 1.52 2.09.23 5.52-.15 13.21-.15 15.08"/><path id="kvg:07a46-s12" kvg:type="㇒" d="M59.41 47.18c.02.29.13.8-.05 1.15-1.22 2.37-3.74 6.94-9.02 11.02"/><path id="kvg:07a46-s13" kvg:type="㇔" d="M82.99 44.31c4.11 1.78 10.62 7.31 11.65 10.07"/></g></g><g id="kvg:07a46-g10" kvg:element="彡"><path id="kvg:07a46-s14" kvg:type="㇒" d="M84.25 54.75c.1.47-.05 1.87-.7 2.39-5.06 4.11-13.81 11.11-33.58 16.91"/><path id="kvg:07a46-s15" kvg:type="㇒" d="M87.46 66.61c.12.49-.08 1.83-.73 2.45C82.25 73.32 68.75 82 52.19 87.21"/><path id="kvg:07a46-s16" kvg:type="㇒" d="M91.78 79c.12.5.25 1.29-.23 2.02-2.89 4.24-19.5 13.54-42.23 19.24"/></g></g></g></g></svg>