<!DOCTYPE svg PUBLIC "-//W3C//DTD SVG 1.0//EN" "http://www.w3.org/TR/2001/REC-SVG-20010904/DTD/svg10.dtd" [
<!ATTLIST g
xmlns:kvg CDATA #FIXED "http://kanjivg.tagaini.net"
kvg:element CDATA #IMPLIED
kvg:variant CDATA #IMPLIED
kvg:partial CDATA #IMPLIED
kvg:original CDATA #IMPLIED
kvg:part CDATA #IMPLIED
kvg:number CDATA #IMPLIED
kvg:tradForm CDATA #IMPLIED
kvg:radicalForm CDATA #IMPLIED
kvg:position CDATA #IMPLIED
kvg:radical CDATA #IMPLIED
kvg:phon CDATA #IMPLIED >
<!ATTLIST path
xmlns:kvg CDATA #FIXED "http://kanjivg.tagaini.net"
kvg:type CDATA #IMPLIED >
]><svg xmlns="http://www.w3.org/2000/svg" width="109" height="109" viewBox="0 0 109 109"><g id="kvg:StrokePaths_07a40" style="fill:none;stroke:#000000;stroke-width:3;stroke-linecap:round;stroke-linejoin:round;"><g id="kvg:07a40" kvg:element="穀"><g id="kvg:07a40-g1" kvg:position="left"><g id="kvg:07a40-g2" kvg:position="top" kvg:phon="殻1T"><g id="kvg:07a40-g3" kvg:element="士"><path id="kvg:07a40-s1" kvg:type="㇐" d="M21.53 22.65c1.72.22 3.63.23 4.98.07 6.77-.78 13.87-1.85 19.96-2.72 1.3-.19 2.35-.12 3.01.03"/><path id="kvg:07a40-s2" kvg:type="㇑a" d="M35.64 11c.68.68 1.12 1.5 1.12 2.73.0 3.27.1 10.77.1 17.89"/><path id="kvg:07a40-s3" kvg:type="㇐" d="M22.98 34c1.53.35 3.1.19 4.63-.02 6.51-.86 10.63-1.48 17.66-2.5 1.2-.17 2.47-.17 3.09-.08"/></g><g id="kvg:07a40-g4" kvg:element="冖"><path id="kvg:07a40-s4" kvg:type="㇔" d="M17.5 43.38c0 3.48-2.58 13.05-3.75 15.38"/><path id="kvg:07a40-s5" kvg:type="㇖b" d="M19.24 44.74C30 42 39.75 40.25 48.7 39.09c7.57-.98 2.55 6.16-.45 8.28"/></g></g><g id="kvg:07a40-g5" kvg:element="禾" kvg:position="bottom" kvg:radical="tradit"><g id="kvg:07a40-g6" kvg:element="丿" kvg:position="top"><path id="kvg:07a40-s6" kvg:type="㇒" d="M39.51 48.25c-.01 1-.56 2.21-1.39 2.87-3.25 2.63-7.45 5.32-16.62 9.13"/></g><g id="kvg:07a40-g7" kvg:element="木" kvg:position="bottom"><path id="kvg:07a40-s7" kvg:type="㇐" d="M14.62 69.85c2.13.53 4.2.31 6.02-.02 7.24-1.32 18.66-3.54 25.6-4.73 1.31-.22 3.92-.45 5.24-.02"/><path id="kvg:07a40-s8" kvg:type="㇑" d="M35.33 57.66c.82.82 1.16 2.22 1.16 3.44.0.67.02 20.33-.03 30.9-.01 2.53-.03 4.5-.04 5.5"/><path id="kvg:07a40-s9" kvg:type="㇒" d="M34.68 68.22c0 1.41-.65 3.33-1.46 4.67-4.16 6.91-8.85 12.61-17.97 19.86"/><path id="kvg:07a40-s10" kvg:type="㇔/㇏" d="M39.62 73c3.72 1.81 6.87 5.42 8.88 7.75"/></g></g></g><g id="kvg:07a40-g8" kvg:element="殳" kvg:position="right" kvg:radical="nelson" kvg:phon="殻2T"><g id="kvg:07a40-g9" kvg:element="几" kvg:position="top"><g id="kvg:07a40-g10" kvg:element="丿"><path id="kvg:07a40-s11" kvg:type="㇒" d="M64.09 17.22c.53.53.95 1.66.95 2.93.0 10.91-1.92 22.69-7.62 27.55"/></g><path id="kvg:07a40-s12" kvg:type="㇈b" d="M66.12 19.77c5.76-1.65 9.13-2.77 11.9-3.46 2.06-.51 2.42.53 2.22 2.38-.39 3.63-1.33 9.52-1.33 13.15.0 6.9 1.09 8.66 7.63 8.66 5.96.0 7.38-1.25 7.38-9.14"/></g><g id="kvg:07a40-g11" kvg:element="又" kvg:position="bottom"><path id="kvg:07a40-s13" kvg:type="㇇" d="M60.36 53.5c1.36.4 2.78.49 5.49-.1s13.94-4.29 15.82-4.83c2.83-.81 4.64 1.33 3.54 4.1C77.25 72.88 65.79 87.08 49.5 96.92"/><path id="kvg:07a40-s14" kvg:type="㇏" d="M59.59 61.37c3.79.46 14.79 16.01 26.45 27.24 2.17 2.09 4.46 4.52 6.81 6.01"/></g></g></g></g><g id="kvg:StrokeNumbers_07a40" style="font-size:8;fill:#808080"><text transform="matrix(1 0 0 1 14.25 23.50)">1</text><text transform="matrix(1 0 0 1 27.50 11.50)">2</text><text transform="matrix(1 0 0 1 15.75 35.50)">3</text><text transform="matrix(1 0 0 1 10.50 49.48)">4</text><text transform="matrix(1 0 0 1 19.50 42.50)">5</text><text transform="matrix(1 0 0 1 30.75 50.50)">6</text><text transform="matrix(1 0 0 1 8.50 71.50)">7</text><text transform="matrix(1 0 0 1 28.50 65.50)">8</text><text transform="matrix(1 0 0 1 23.50 78.50)">9</text><text transform="matrix(1 0 0 1 46.50 75.50)">10</text><text transform="matrix(1 0 0 1 55.50 24.50)">11</text><text transform="matrix(1 0 0 1 64.50 15.50)">12</text><text transform="matrix(1 0 0 1 63.50 50.50)">13</text><text transform="matrix(1 0 0 1 64.50 64.55)">14</text></g></svg>