<svg xmlns="http://www.w3.org/2000/svg" width="109" height="109" viewBox="0 0 109 109"><g id="kvg:StrokePaths_07a62" style="fill:none;stroke:#000000;stroke-width:3;stroke-linecap:round;stroke-linejoin:round;"><g id="kvg:07a62" kvg:element="穢"><g id="kvg:07a62-g1" kvg:element="禾" kvg:position="left" kvg:radical="general"><g id="kvg:07a62-g2" kvg:element="丿" kvg:position="top"><path id="kvg:07a62-s1" kvg:type="㇒" d="M38.5 16c.07.35.15.91-.14 1.42C36.65 20.41 26.88 26.98 13.5 31"/></g><g id="kvg:07a62-g3" kvg:element="木" kvg:position="bottom"><path id="kvg:07a62-s2" kvg:type="㇐" d="M11.37 44.84c.37.2 1.37.53 2.37.61 2.74.2 19.04-1.85 25.88-2.86.99-.15 1.24-.2 1.87.0"/><path id="kvg:07a62-s3" kvg:type="㇑" d="M28.83 27.75c.37.42.58 1.9.66 2.75.07.85.0 59.96-.07 65.25"/><path id="kvg:07a62-s4" kvg:type="㇒" d="M29.25 46.5C25.3 57.48 18.7 71.02 9.75 80"/><path id="kvg:07a62-s5" kvg:type="㇔/㇏" d="M31.25 52.5c3.98 2.1 7.35 6.3 9.5 9"/></g></g><g id="kvg:07a62-g4" kvg:element="歳" kvg:variant="true" kvg:position="right"><g id="kvg:07a62-g5" kvg:element="止" kvg:position="top"><g id="kvg:07a62-g6" kvg:element="卜" kvg:original="ト"><path id="kvg:07a62-s6" kvg:type="㇑a" d="M65.77 12.63c.93.37 1.5 1.65 1.68 2.39.19.73.43 9.73.24 14.32"/><path id="kvg:07a62-s7" kvg:type="㇐b" d="M67.83 21.61c7.11-.49 9.36-1.31 16.84-1.64 1.74-.08 2.17-.16 3.26.0"/></g><path id="kvg:07a62-s8" kvg:type="㇑a" d="M53.93 18.5c1.01.4 1.89 1.78 1.82 2.6C55.5 24 55.5 27 55.48 31.22"/><path id="kvg:07a62-s9" kvg:type="㇐" d="M42.74 32.34c.58.14 2.11.48 3.65.43 8.27-.29 33.71-3.15 44.37-3.89 1.53-.11 4.2.29 5.08.43"/></g><g id="kvg:07a62-g7" kvg:element="戌" kvg:part="1" kvg:original="戍" kvg:position="bottom"><g id="kvg:07a62-g8" kvg:element="厂"><path id="kvg:07a62-s10" kvg:type="㇒" d="M48.5 49.73c.04 1.05-.04 2.69-.08 4.2-.32 14.05-4.26 34.28-12.67 40.81"/><g id="kvg:07a62-g9" kvg:element="戈" kvg:part="1"><g id="kvg:07a62-g10" kvg:element="弋" kvg:part="1"><path id="kvg:07a62-s11" kvg:type="㇐" d="M45.5 48.17c1.19.21 3.36.26 4.55.21 9.12-.39 25.72-2.14 36.8-2.61 1.97-.08 3.16.1 4.15.21"/></g></g></g></g><g id="kvg:07a62-g11" kvg:element="一"><path id="kvg:07a62-s12" kvg:type="㇐" d="M52.5 61.16c.75.25 2.13.34 2.88.25 2.66-.34 8.99-1.62 11.42-1.84 1.24-.11 2.32-.2 2.95-.08"/></g><g id="kvg:07a62-g12" kvg:element="小" kvg:variant="true"><path id="kvg:07a62-s13" kvg:type="㇚" d="M60.6 62.25c.04.31.65 1.64.65 3.63.0 3.67-.13 7.85-.13 11.11.0 7.4-3.71.99-4.49.16"/><path id="kvg:07a62-s14" kvg:type="㇒" d="M53.19 69.72c.02.37.04.94-.04 1.47-.45 3.1-3.01 9.9-6.51 14.07"/><path id="kvg:07a62-s15" kvg:type="㇒/㇔" d="M70.65 69.47c.06.58.14 1.51-.13 2.34C68.91 76.75 59.65 87.61 47 94.25"/></g><g id="kvg:07a62-g13" kvg:element="戌" kvg:part="2" kvg:original="戍" kvg:position="bottom"><g id="kvg:07a62-g14" kvg:element="戈" kvg:part="2"><g id="kvg:07a62-g15" kvg:element="弋" kvg:part="2"><path id="kvg:07a62-s16" kvg:type="㇂" d="M71.16 36.82c1.12 1.25 1.64 1.59 1.83 4.29 1.36 19.92 7.38 40.49 19.38 50.69 6.73 5.73 5.38 2.75 4.95-5.03"/></g><g id="kvg:07a62-g16" kvg:element="丿"><path id="kvg:07a62-s17" kvg:type="㇒" d="M89.5 56.75c.08.86.16 2.23-.15 3.47-1.87 7.32-12.22 24-26.9 33.84"/></g><g id="kvg:07a62-g17" kvg:element="弋" kvg:part="3"><g id="kvg:07a62-g18" kvg:element="丶"><path id="kvg:07a62-s18" kvg:type="㇔" d="M82.5 33.75c4 1.5 10.39 4.93 12.25 7.5"/></g></g></g></g></g></g></g></svg>