<!DOCTYPE svg PUBLIC "-//W3C//DTD SVG 1.0//EN" "http://www.w3.org/TR/2001/REC-SVG-20010904/DTD/svg10.dtd" [
<!ATTLIST g
xmlns:kvg CDATA #FIXED "http://kanjivg.tagaini.net"
kvg:element CDATA #IMPLIED
kvg:variant CDATA #IMPLIED
kvg:partial CDATA #IMPLIED
kvg:original CDATA #IMPLIED
kvg:part CDATA #IMPLIED
kvg:number CDATA #IMPLIED
kvg:tradForm CDATA #IMPLIED
kvg:radicalForm CDATA #IMPLIED
kvg:position CDATA #IMPLIED
kvg:radical CDATA #IMPLIED
kvg:phon CDATA #IMPLIED >
<!ATTLIST path
xmlns:kvg CDATA #FIXED "http://kanjivg.tagaini.net"
kvg:type CDATA #IMPLIED >
]><svg xmlns="http://www.w3.org/2000/svg" width="109" height="109" viewBox="0 0 109 109"><g id="kvg:StrokePaths_07a7a" style="fill:none;stroke:#000000;stroke-width:3;stroke-linecap:round;stroke-linejoin:round;"><g id="kvg:07a7a" kvg:element="空"><g id="kvg:07a7a-g1" kvg:element="穴" kvg:variant="true" kvg:position="top" kvg:radical="general"><g id="kvg:07a7a-g2" kvg:element="宀"><path id="kvg:07a7a-s1" kvg:type="㇑a" d="M52.29 12c.96.75 1.7 2 1.7 3.64.0 3.36-.08 7.61-.08 10.67"/><g id="kvg:07a7a-g3" kvg:element="冖"><path id="kvg:07a7a-s2" kvg:type="㇔" d="M27.07 27.75c0 3.34-1.57 8.5-4.63 15.25"/><path id="kvg:07a7a-s3" kvg:type="㇖b" d="M27.65 30c18.85-2.75 40.6-5.12 52.95-5.75 9.9-.5 4.15 5-.6 8.75"/></g></g><g id="kvg:07a7a-g4" kvg:element="八" kvg:variant="true"><path id="kvg:07a7a-s4" kvg:type="㇒" d="M41.51 39c.24 1.5-.01 2.38-.67 3.76C38.17 48.4 33.38 55.88 25 61.25"/><path id="kvg:07a7a-s5" kvg:type="㇟a/㇏" d="M59.76 32.97c.94 1.02 1.43 2.47 1.49 4.03.12 3.47.06 6.75.06 9.48.0 5.77 1.69 7.33 11.45 7.33 5.5.0 10.54-1.04 12.25-1.56"/></g></g><g id="kvg:07a7a-g5" kvg:element="工" kvg:position="bottom" kvg:phon="工"><path id="kvg:07a7a-s6" kvg:type="㇐" d="M32.29 68.97c2.46 1.03 5.63.46 7.97.22 7.7-.76 18.13-2.01 27.36-2.76 2.53-.21 5.16-.53 7.62.32"/><path id="kvg:07a7a-s7" kvg:type="㇑a" d="M53.08 70.45c.67.8.96 2.05.96 3.5.0 5.56-.1 14.66-.1 16.3"/><path id="kvg:07a7a-s8" kvg:type="㇐" d="M19.5 92.55c3.17 1.27 6.19 1 9.52.7 13.57-1.2 37.71-3.53 54.11-4.35 3.19-.16 6.33-.28 9.37.9"/></g></g></g><g id="kvg:StrokeNumbers_07a7a" style="font-size:8;fill:#808080"><text transform="matrix(1 0 0 1 43.50 10.93)">1</text><text transform="matrix(1 0 0 1 20.75 28.13)">2</text><text transform="matrix(1 0 0 1 31.25 25.63)">3</text><text transform="matrix(1 0 0 1 33.50 39.13)">4</text><text transform="matrix(1 0 0 1 50.50 37.93)">5</text><text transform="matrix(1 0 0 1 25.00 71.50)">6</text><text transform="matrix(1 0 0 1 45.50 78.50)">7</text><text transform="matrix(1 0 0 1 11.25 93.50)">8</text></g></svg>