<svg xmlns="http://www.w3.org/2000/svg" width="109" height="109" viewBox="0 0 109 109"><g id="kvg:StrokePaths_07a7d" style="fill:none;stroke:#000000;stroke-width:3;stroke-linecap:round;stroke-linejoin:round;"><g id="kvg:07a7d" kvg:element="穽"><g id="kvg:07a7d-g1" kvg:element="穴" kvg:variant="true" kvg:position="top" kvg:radical="general"><g id="kvg:07a7d-g2" kvg:element="宀" kvg:position="top"><path id="kvg:07a7d-s1" kvg:type="㇑a" d="M51.73 8c1.19.4 2.89 2.39 2.86 3.56-.09 3.67-.09 6.32-.09 9.66"/><g id="kvg:07a7d-g3" kvg:element="冖"><path id="kvg:07a7d-s2" kvg:type="㇔" d="M19.98 21.26c0 3.85-3.06 14.43-4.46 16.99"/><path id="kvg:07a7d-s3" kvg:type="㇖b" d="M20.1 24.29c13.9-.79 56.51-4.46 65.44-4.17 11.55.36 2.32 7.05-.59 9.06"/></g></g><g id="kvg:07a7d-g4" kvg:element="八" kvg:variant="true" kvg:position="bottom"><path id="kvg:07a7d-s4" kvg:type="㇒" d="M40.76 27c.04.41.18 1.1-.09 1.65-2.47 5.06-7.64 10.9-15.69 15.77"/><path id="kvg:07a7d-s5" kvg:type="㇟/㇏" d="M62.59 24.37c.38.47.71 1.03.71 1.77.0 1.95-.27 5.34-.27 7.57.0 5.19 5.51 4.6 10.02 4.6 4.75.0 8.82-.67 9.49-1.05"/></g></g><g id="kvg:07a7d-g5" kvg:element="井" kvg:position="bottom"><g id="kvg:07a7d-g6" kvg:element="二" kvg:part="1"><path id="kvg:07a7d-s6" kvg:type="㇐" d="M26.07 55.89c1.18.36 3.28.23 4.42.16 8.89-.54 40.27-1.76 52.1-1.97 1.92-.03 3.16-.08 4.54.66"/></g><g id="kvg:07a7d-g7" kvg:element="廾"><g id="kvg:07a7d-g8" kvg:element="二" kvg:part="2"><g id="kvg:07a7d-g9" kvg:element="十" kvg:part="1"><path id="kvg:07a7d-s7" kvg:type="㇐" d="M15.99 72.72c1.81.29 5.14.4 6.94.33 10.66-.45 48.5-2.46 64.24-2.74 3.01-.06 4.83.16 6.34.31"/></g></g><g id="kvg:07a7d-g10" kvg:element="丿"><path id="kvg:07a7d-s8" kvg:type="㇒" d="M40.16 44.67c.91.68 1.51 1.86 1.81 2.54.3.68-.2 20.92-.2 22.45.0 15.13-9.37 25.33-23.27 30.09"/></g><g id="kvg:07a7d-g11" kvg:element="十" kvg:part="2"><path id="kvg:07a7d-s9" kvg:type="㇑" d="M63.06 44.25c1.01.32 1.61 1.46 1.81 2.1.2.65.0 51.6-.2 55.65"/></g></g></g></g></g></svg>