<svg xmlns="http://www.w3.org/2000/svg" width="109" height="109" viewBox="0 0 109 109"><g id="kvg:StrokePaths_07a79" style="fill:none;stroke:#000000;stroke-width:3;stroke-linecap:round;stroke-linejoin:round;"><g id="kvg:07a79" kvg:element="穹"><g id="kvg:07a79-g1" kvg:element="穴" kvg:variant="true" kvg:position="top" kvg:radical="general"><g id="kvg:07a79-g2" kvg:element="宀" kvg:position="top"><path id="kvg:07a79-s1" kvg:type="㇑a" d="M52.68 10c1.24.36 2.5 2.62 2.47 3.65-.09 3.26-.09 5.6-.1 8.57"/><g id="kvg:07a79-g3" kvg:element="冖"><path id="kvg:07a79-s2" kvg:type="㇔" d="M19.17 20.01c0 4.19-3.48 15.7-5.06 18.49"/><path id="kvg:07a79-s3" kvg:type="㇖b" d="M19.03 24.7c1.7-.11 3.81-.25 6.24-.41 17.89-1.16 52.63-3.27 60.75-3.18 11.94.13 2.19 8.36-.78 10.13"/></g></g><g id="kvg:07a79-g4" kvg:element="八" kvg:variant="true" kvg:position="bottom"><path id="kvg:07a79-s4" kvg:type="㇒" d="M42.27 26c.17 1.25-.14 2.28-.87 3.35-3.25 4.8-9.34 9.64-18.4 14.15"/><path id="kvg:07a79-s5" kvg:type="㇟/㇏" d="M61.34 23.87c.44.47.81 1.02.81 1.74.0 1.91-.31 5.25-.31 7.43.0 5.1 6.34 4.52 11.52 4.52 5.46.0 10.15-.66 10.91-1.03"/></g></g><g id="kvg:07a79-g5" kvg:element="弓" kvg:position="bottom"><path id="kvg:07a79-s6" kvg:type="㇕c" d="M27.52 47.18c1.34.89 2.62 1.2 4.39 1.12 1.77-.07 40.1-2.98 43.64-3.27 3.54-.3 4.05 2.19 3.28 3.57-1.2 2.17-1.52 5.05-3.08 8.64"/><path id="kvg:07a79-s7" kvg:type="㇐" d="M31.25 60.75c2.74.0 39.07-2.5 41.03-2.5 1.96.0 3.91.0 5.47.0"/><path id="kvg:07a79-s8" kvg:type="㇉" d="M30.33 59.3c.67 1.45.42 3.2-.25 5.17-.77 2.23-1.71 7.66-2.09 8.35s.01 2.94 2.66 2.23c2-.54 45.28-2.7 50.79-3.3 1.71-.19 3 1.15 2.43 3.66C83 79.24 76.35 91.22 72.64 95.31c-3.78 4.17-6.39 3.19-11.47-1.49"/></g></g></g></svg>