<svg xmlns="http://www.w3.org/2000/svg" width="109" height="109" viewBox="0 0 109 109"><g id="kvg:StrokePaths_07a81"><g id="kvg:07a81" kvg:element="突"><g id="kvg:07a81-g1" kvg:element="穴" kvg:position="top" kvg:radical="general"><g id="kvg:07a81-g2" kvg:element="宀" kvg:position="top"><path id="kvg:07a81-s1" kvg:type="㇑a" d="M52.29 12.75c1.04 1.04 1.45 2.12 1.45 3.45.0 3.09-.08 3.77-.08 6.58"/><g id="kvg:07a81-g3" kvg:element="冖"><path id="kvg:07a81-s2" kvg:type="㇔" d="M20.62 24.38c0 4.23-2.2 15.86-3.2 18.68"/><path id="kvg:07a81-s3" kvg:type="㇖b" d="M21.57 27.61c16.18-2.36 43.06-5.11 61.29-5.58 14.41-.37 4.39 6.72.99 8.73"/></g></g><g id="kvg:07a81-g4" kvg:element="八" kvg:position="bottom"><path id="kvg:07a81-s4" kvg:type="㇒" d="M38.51 35.51c.09.52-.07 1.37-.43 2.09C34.86 44.05 31 50.38 22.5 55.62"/><path id="kvg:07a81-s5" kvg:type="㇟a/㇏" d="M60.26 31.98c.94.94 1.18 1.91 1.24 3.09.25 5.25.0 2.43.0 5.93.0 4.75 1 6.25 10.5 6.25 7.25.0 11-.25 12.25-1.75"/></g></g><g id="kvg:07a81-g5" kvg:element="大" kvg:position="bottom"><path id="kvg:07a81-s6" kvg:type="㇐" d="M25.23 67.43c3.14.69 6.06.41 8.62.13 13.28-1.48 29.6-3.33 41.65-4.14 2.76-.19 5.48-.35 8.21.22"/><path id="kvg:07a81-s7" kvg:type="㇒" d="M50.97 49.28c.51.68.78 1.46.76 2.93C51.38 76.88 40.62 89.5 19.5 99"/><path id="kvg:07a81-s8" kvg:type="㇏" d="M52.29 67.33c7.61 7.06 19.56 18.06 27.96 24.18 2.62 1.91 5.39 3.58 8.25 5.11"/></g></g></g></svg>