<svg xmlns="http://www.w3.org/2000/svg" width="109" height="109" viewBox="0 0 109 109"><g id="kvg:StrokePaths_07a9f" style="fill:none;stroke:#000000;stroke-width:3;stroke-linecap:round;stroke-linejoin:round;"><g id="kvg:07a9f" kvg:element="窟"><g id="kvg:07a9f-g1" kvg:element="穴" kvg:variant="true" kvg:position="top" kvg:radical="general"><g id="kvg:07a9f-g2" kvg:element="宀" kvg:position="top"><path id="kvg:07a9f-s1" kvg:type="㇑a" d="M52.71 11.25c.96.96 1.17 2 1.17 3.45.0 3.05-.06 3.24-.06 6.02"/><g id="kvg:07a9f-g3" kvg:element="冖"><path id="kvg:07a9f-s2" kvg:type="㇔" d="M26.59 22.51c0 3.23-2.46 11.74-3.84 14.49"/><path id="kvg:07a9f-s3" kvg:type="㇖b" d="M27.5 25.25c16-2.38 32.88-4.38 52.86-5.39 9.73-.49 2.06 5.41-.36 7.3"/></g></g><g id="kvg:07a9f-g4" kvg:element="八" kvg:variant="true" kvg:position="bottom"><path id="kvg:07a9f-s4" kvg:type="㇒" d="M45.21 26.5c0 1.12-.43 2.01-1.2 2.64-3.64 3.61-7.39 6.99-14.54 10.03"/><path id="kvg:07a9f-s5" kvg:type="㇟/㇏" d="M60.59 23.37c.77.77.94 1.63.94 2.86.0 1.77-.01 2.12-.01 4.14.0 2.63.86 3.94 9.77 3.94 4.63.0 8.6-.61 9.25-.95"/></g></g><g id="kvg:07a9f-g5" kvg:element="屈" kvg:position="bottom"><g id="kvg:07a9f-g6" kvg:element="尸" kvg:position="tare"><path id="kvg:07a9f-s6" kvg:type="㇕c" d="M29.53 43.39c2.44.5 4.89.63 7.34.4 10.33-1.19 24.71-2.6 36.63-3.56 3-.24 3.89 1.62 3.25 3.63-1.02 3.19-1.21 3.63-2.52 8.32"/><path id="kvg:07a9f-s7" kvg:type="㇐b" d="M32.88 55.88c3.37-.12 25.65-2.14 37.13-3.07 3.14-.26 5.99-.43 6.96-.46"/><path id="kvg:07a9f-s8" kvg:type="㇒" d="M31.38 44.38c.94.94.85 2 .78 3.64-.78 20.11-5.03 36.48-15.93 48.2"/></g><g id="kvg:07a9f-g7" kvg:element="出" kvg:position="tarec"><g id="kvg:07a9f-g8" kvg:element="山"><path id="kvg:07a9f-s9" kvg:type="㇑a" d="M57.45 59.03c.95.94 1.03 2.22 1.03 3.42.0 4.43-.1 24.37-.1 31.29"/><path id="kvg:07a9f-s10" kvg:type="㇄" d="M41.35 65.44c.4 1.06.45 1.83.18 2.82-.65 2.37-1 3.76-2.03 5.99-.71 1.54.13 2.68 1.62 2.38 9.75-2 22.12-3.5 35.96-4.19"/><path id="kvg:07a9f-s11" kvg:type="㇑" d="M78.42 60.96c.81.81.95 1.67.79 3.11-.46 3.92-.71 6.05-1.4 11.39"/></g><g id="kvg:07a9f-g9" kvg:element="凵"><path id="kvg:07a9f-s12" kvg:type="㇄a" d="M38.04 85.98c.59.9.35 2.4-.07 3.57-.78 2.17-1.1 3.05-2.16 6.09-.75 2.19.74 2.29 2.36 1.94 9.96-2.16 33.4-4.18 41.59-4.08"/><path id="kvg:07a9f-s13" kvg:type="㇑" d="M81.53 81.33c.88.88.99 2.31.84 3.55-.74 6-1.12 7.62-1.85 13.19"/></g></g></g></g></g></svg>