<svg xmlns="http://www.w3.org/2000/svg" width="109" height="109" viewBox="0 0 109 109"><g id="kvg:StrokePaths_07a97" style="fill:none;stroke:#000000;stroke-width:3;stroke-linecap:round;stroke-linejoin:round;"><g id="kvg:07a97" kvg:element="窗"><g id="kvg:07a97-g1" kvg:element="穴" kvg:variant="true" kvg:position="top" kvg:radical="general"><g id="kvg:07a97-g2" kvg:element="宀" kvg:position="top"><path id="kvg:07a97-s1" kvg:type="㇑a" d="M51.48 9.25c.99.34 2.4 1.98 2.38 2.95-.07 3.05-.07 4.74-.08 7.52"/><g id="kvg:07a97-g3" kvg:element="冖"><path id="kvg:07a97-s2" kvg:type="㇔" d="M19 19.5c0 3.85-3.61 14.43-5.25 17"/><path id="kvg:07a97-s3" kvg:type="㇖b" d="M18.87 23.74c12.8-1.99 58.5-5.99 67.84-5.88 12.09.14 2.56 7.41-.45 9.3"/></g></g><g id="kvg:07a97-g4" kvg:element="八" kvg:variant="true" kvg:position="bottom"><path id="kvg:07a97-s4" kvg:type="㇒" d="M42.26 25.25c.06.39.23 1.04-.11 1.56-3.17 4.8-9.81 10.33-20.15 14.94"/><path id="kvg:07a97-s5" kvg:type="㇟/㇏" d="M63.09 22.37c.44.51.81 1.11.81 1.89.0 2.08-.31 5.73-.31 8.11.0 5.56 6.34 4.93 11.52 4.93 5.46.0 10.15-.72 10.91-1.12"/></g></g><g id="kvg:07a97-g5" kvg:position="bottom"><path id="kvg:07a97-s6" kvg:type="㇒" d="M52.4 36.14c.03.34.05.89-.05 1.38-.63 2.91-4.23 9.29-9.15 13.19"/><path id="kvg:07a97-s7" kvg:type="㇑" d="M25 51.75c.89.91.77 1.42.89 2.57.86 8.29.9 28.65 1.92 44.32"/><path id="kvg:07a97-s8" kvg:type="㇕" d="M26.52 53.91c13.68-1.77 44.54-3.89 53.87-4.17 3.86-.11 4.87 2.07 4.6 4.69-1 9.82-1.68 27.5-3.67 42.57"/><g id="kvg:07a97-g6" kvg:element="夕"><path id="kvg:07a97-s9" kvg:type="㇒" d="M53.76 55.5c.21.33.39 1.35.01 1.98C51.03 62 44.69 69.77 34.25 75"/><path id="kvg:07a97-s10" kvg:type="㇇" d="M53.75 61c1.1.22 2.79 1.19 3.62 1.11 4.13-.36 8.86-.49 12.52-1.44 2.63-.68 3.77.76 2.77 2.03C63.75 74 52.25 83.75 34.04 92.25"/><path id="kvg:07a97-s11" kvg:type="㇔" d="M40.89 66.89c7.63 2.8 19.7 11.51 21.61 15.86"/></g><path id="kvg:07a97-s12" kvg:type="㇐" d="M27.97 96.32c10.28.0 39.11-1.3 53.3-1.58"/></g></g></g></svg>