<!DOCTYPE svg PUBLIC "-//W3C//DTD SVG 1.0//EN" "http://www.w3.org/TR/2001/REC-SVG-20010904/DTD/svg10.dtd" [
<!ATTLIST g
xmlns:kvg CDATA #FIXED "http://kanjivg.tagaini.net"
kvg:element CDATA #IMPLIED
kvg:variant CDATA #IMPLIED
kvg:partial CDATA #IMPLIED
kvg:original CDATA #IMPLIED
kvg:part CDATA #IMPLIED
kvg:number CDATA #IMPLIED
kvg:tradForm CDATA #IMPLIED
kvg:radicalForm CDATA #IMPLIED
kvg:position CDATA #IMPLIED
kvg:radical CDATA #IMPLIED
kvg:phon CDATA #IMPLIED >
<!ATTLIST path
xmlns:kvg CDATA #FIXED "http://kanjivg.tagaini.net"
kvg:type CDATA #IMPLIED >
]><svg xmlns="http://www.w3.org/2000/svg" width="109" height="109" viewBox="0 0 109 109"><g id="kvg:StrokePaths_07aaa" style="fill:none;stroke:#000000;stroke-width:3;stroke-linecap:round;stroke-linejoin:round;"><g id="kvg:07aaa" kvg:element="窪"><g id="kvg:07aaa-g1" kvg:element="穴" kvg:variant="true" kvg:position="top" kvg:radical="general"><g id="kvg:07aaa-g2" kvg:element="宀" kvg:position="top"><path id="kvg:07aaa-s1" kvg:type="㇑a" d="M52.57 11.25C53.72 12.4 54 13.5 54 14.55c0 2.89-.12 3.31-.12 5.95"/><g id="kvg:07aaa-g3" kvg:element="冖"><path id="kvg:07aaa-s2" kvg:type="㇔" d="M26.85 21.93c0 3.4-2.82 12.75-4.1 15.02"/><path id="kvg:07aaa-s3" kvg:type="㇖b" d="M27.43 25.01c18.87-2.65 36.07-4.38 53.16-5.14 9.78-.43 1.57 5.58-.87 7.38"/></g></g><g id="kvg:07aaa-g4" kvg:element="八" kvg:variant="true" kvg:position="bottom"><path id="kvg:07aaa-s4" kvg:type="㇒" d="M45.13 26.45c-.36 1.23-.88 2.38-1.74 3.28-2.89 3.02-6.36 5.72-12.36 8.69"/><path id="kvg:07aaa-s5" kvg:type="㇟/㇏" d="M60.82 23.23c.73.73.67 1.77.67 2.84.0 1.47-.01 2.54-.01 4.23.0 3.21 2.02 3.98 9.5 3.98 4.5.0 7.65-.4 8.99-1.29"/></g></g><g id="kvg:07aaa-g5" kvg:position="bottom"><g id="kvg:07aaa-g6" kvg:element="氵" kvg:variant="true" kvg:original="水" kvg:position="left"><path id="kvg:07aaa-s6" kvg:type="㇔" d="M24.63 44.5c3.75 1.25 9.18 5.15 10.12 7.09"/><path id="kvg:07aaa-s7" kvg:type="㇔" d="M20.25 59.75c3.62 1.28 9.09 5.26 10 7.25"/><path id="kvg:07aaa-s8" kvg:type="㇀" d="M22 94c1.62.52 2.64-.19 3.68-1.76 3.03-4.57 4.82-7.86 9.07-14.74"/></g><g id="kvg:07aaa-g7" kvg:element="圭" kvg:position="right"><g id="kvg:07aaa-g8" kvg:element="土" kvg:position="top"><path id="kvg:07aaa-s9" kvg:type="㇐" d="M45.83 50.04c2.13.36 4.26.35 6.42.09 7.4-.89 16.55-2.28 23.62-2.67 1.68-.21 3.36-.16 5.02.15"/><path id="kvg:07aaa-s10" kvg:type="㇑a" d="M63 39.62c.88.88 1.04 2.01 1.04 3.23.0 8.78.08 5.92.08 17.53"/><path id="kvg:07aaa-s11" kvg:type="㇐" d="M41.44 63.04c2.77.51 5.54.53 8.31.05 11.6-1.52 21.17-2.3 30.88-2.72 2.61-.37 5.19-.22 7.74.47"/></g><g id="kvg:07aaa-g9" kvg:element="土" kvg:position="bottom"><path id="kvg:07aaa-s12" kvg:type="㇐" d="M45.47 78.82c2.5.4 5.02.4 7.54.0 7.6-.84 17.05-1.56 24.49-1.96 2.14-.28 4.26-.25 6.37.11"/><path id="kvg:07aaa-s13" kvg:type="㇑a" d="M63.88 67.25c.75.75 1.05 1.87 1.05 3.23.0 8.78-.15 9.44-.15 21.04"/><path id="kvg:07aaa-s14" kvg:type="㇐" d="M39.61 94.63c3.33.51 6.02.49 10.03-.13 11.48-1.77 20.61-3.01 31.99-3.63 3.54-.1 7.05.17 10.52.81"/></g></g></g></g></g><g id="kvg:StrokeNumbers_07aaa" style="font-size:8;fill:#808080"><text transform="matrix(1 0 0 1 43.85 12.50)">1</text><text transform="matrix(1 0 0 1 19.45 24.50)">2</text><text transform="matrix(1 0 0 1 29.50 21.50)">3</text><text transform="matrix(1 0 0 1 32.50 32.85)">4</text><text transform="matrix(1 0 0 1 54.50 30.50)">5</text><text transform="matrix(1 0 0 1 16.50 47.50)">6</text><text transform="matrix(1 0 0 1 13.25 61.50)">7</text><text transform="matrix(1 0 0 1 12.58 93.50)">8</text><text transform="matrix(1 0 0 1 43.50 47.50)">9</text><text transform="matrix(1 0 0 1 50.50 41.50)">10</text><text transform="matrix(1 0 0 1 38.50 60.05)">11</text><text transform="matrix(1 0 0 1 42.50 76.97)">12</text><text transform="matrix(1 0 0 1 53.25 71.23)">13</text><text transform="matrix(1 0 0 1 36.50 91.50)">14</text></g></svg>