<svg xmlns="http://www.w3.org/2000/svg" width="109" height="109" viewBox="0 0 109 109"><g id="kvg:StrokePaths_07aba"><g id="kvg:07aba" kvg:element="窺"><g id="kvg:07aba-g1" kvg:element="穴" kvg:variant="true" kvg:position="top" kvg:radical="general"><g id="kvg:07aba-g2" kvg:element="宀" kvg:position="top"><path id="kvg:07aba-s1" kvg:type="㇑a" d="M52.98 9c.89.89 1.4 2.48 1.38 3.45-.07 3.05-.07 3.49-.08 6.27"/><g id="kvg:07aba-g3" kvg:element="冖"><path id="kvg:07aba-s2" kvg:type="㇔" d="M19.27 19.51c-.02 3.87-1.77 11.12-3.52 14.24"/><path id="kvg:07aba-s3" kvg:type="㇖b" d="M19.87 22.74c22.63-2.37 47.76-4.12 67.34-4.88 12.08-.47 2.56 6.41-.45 8.3"/></g></g><g id="kvg:07aba-g4" kvg:element="八" kvg:variant="true" kvg:position="bottom"><path id="kvg:07aba-s4" kvg:type="㇒" d="M43.71 24c0 1-.59 2.11-1.45 2.85C37.5 31 32.9 34.66 25.98 37.67"/><path id="kvg:07aba-s5" kvg:type="㇟/㇏" d="M62.84 20.87c.62.98.86 2.02.75 3.13-.01 1.66-.04 3.71-.04 5.37.0 4.73 5.86 4.19 10.64 4.19 5.05.0 9.37-.61 10.08-.95"/></g></g><g id="kvg:07aba-g5" kvg:element="規" kvg:position="bottom"><g id="kvg:07aba-g6" kvg:element="夫" kvg:position="left"><path id="kvg:07aba-s6" kvg:type="㇐" d="M19.15 52.29c1.8.21 3.59.18 5.37-.1 4.88-.6 8.89-1.14 15.25-2.08 1.78-.26 3.53-.73 5.34-.5"/><g id="kvg:07aba-g7" kvg:element="大"><path id="kvg:07aba-s7" kvg:type="㇐" d="M12.64 67.14c2.39.23 4.76.17 7.11-.22 7.75-1.29 16.3-2.25 24.62-3.12 1.7-.18 3.41-.12 5.11.06"/><path id="kvg:07aba-s8" kvg:type="㇒" d="M30.85 41.12c.77.77 1.12 1.9 1.17 3.55C32.93 74.38 29.25 86 14.28 96.23"/><path id="kvg:07aba-s9" kvg:type="㇏" d="M33.48 75.1c5.61 3.71 10.33 8.85 12.91 13.91"/></g></g><g id="kvg:07aba-g8" kvg:element="見" kvg:position="right"><g id="kvg:07aba-g9" kvg:element="目" kvg:position="top"><path id="kvg:07aba-s10" kvg:type="㇑" d="M56.15 41.52c.78.78 1.05 2.07 1.05 3.53.0 3.38.04 18.18.06 26.8.01 3.47.01 5.94.01 6.26"/><path id="kvg:07aba-s11" kvg:type="㇕a" d="M57.92 43.38c2.43-.14 21.75-2.66 23.96-2.82 2.47.45 3.08 1.53 3.08 3.39.0 4.43-.02 17.8-.03 26.06-.01 3.82-.01 6.55-.01 6.78"/><path id="kvg:07aba-s12" kvg:type="㇐a" d="M58.7 53.41c4.91-.45 21.57-1.72 25.47-1.72"/><path id="kvg:07aba-s13" kvg:type="㇐a" d="M58.9 64.48c6.22-.28 18.67-1.7 24.74-2.14"/><path id="kvg:07aba-s14" kvg:type="㇐a" d="M59.02 76.35c6.79-.21 17.8-1.02 24.48-1.39"/></g><g id="kvg:07aba-g10" kvg:element="儿" kvg:position="bottom"><path id="kvg:07aba-s15" kvg:type="㇒" d="M62.82 80.33c.07 1.29-.19 2.48-.79 3.57-2.24 4.56-8.41 12.23-18.95 17.11"/><path id="kvg:07aba-s16" kvg:type="㇟" d="M72.7 78.26c.55.86.98 1.87 1.01 3.19.09 3.55-.16 4.42-.16 8.58.0 6.8-.06 8.97 10.2 8.97 11.23.0 11.55-1.5 11.55-6.58"/></g></g></g></g></g></svg>