<svg xmlns="http://www.w3.org/2000/svg" width="109" height="109" viewBox="0 0 109 109"><g id="kvg:StrokePaths_07acf" style="fill:none;stroke:#000000;stroke-width:3;stroke-linecap:round;stroke-linejoin:round;"><g id="kvg:07acf" kvg:element="竏"><g id="kvg:07acf-g1" kvg:element="立" kvg:position="left" kvg:radical="general"><g id="kvg:07acf-g2" kvg:element="亠" kvg:position="top"><path id="kvg:07acf-s1" kvg:type="㇑a" d="M25.99 14.75c1.21 1.14 1.84 2.66 1.84 3.84.0 2.69.0 10.65.0 17.96"/><path id="kvg:07acf-s2" kvg:type="㇐" d="M9.75 37.07c1.2.25 2.6.29 3.79.25 6.75-.21 20.11-1.2 29.28-1.7C44.8 35.5 46 35.73 47 35.86"/></g><g id="kvg:07acf-g3" kvg:position="bottom"><path id="kvg:07acf-s3" kvg:type="㇔" d="M15.75 45.5c5.5 11.56 8 23.38 8.5 31"/><path id="kvg:07acf-s4" kvg:type="㇒" d="M39.56 41.94c1.07 1.34.6 4.13.38 5.19-2.36 10.97-7.32 28.58-9.43 34.27"/><path id="kvg:07acf-s5" kvg:type="㇀/㇐" d="M11.5 90.47c1.05 1.32 3.41 1.29 4.45.77C27.43 85.51 36.82 80.22 47 75.5"/></g></g><g id="kvg:07acf-g4" kvg:element="千" kvg:position="right"><g id="kvg:07acf-g5" kvg:element="丿" kvg:position="top"><path id="kvg:07acf-s6" kvg:type="㇒" d="M86.75 13.5c.1.38-.75 2.4-1.3 2.81C81.25 19.45 70.6 24.63 52 29"/></g><g id="kvg:07acf-g6" kvg:element="十" kvg:position="bottom"><path id="kvg:07acf-s7" kvg:type="㇐" d="M47.25 51.05c1.14.19 3.99.23 5.13.19 13.2-.52 19.58-1.93 41.62-2.21 1.9-.02 3.04.09 4 .18"/><path id="kvg:07acf-s8" kvg:type="㇑" d="M71.19 26.75c.36.51 1.12 3.79 1.19 4.8s-.05 61.13-.12 67.45"/></g></g></g></g></svg>