<svg xmlns="http://www.w3.org/2000/svg" width="109" height="109" viewBox="0 0 109 109"><g id="kvg:StrokePaths_07add" style="fill:none;stroke:#000000;stroke-width:3;stroke-linecap:round;stroke-linejoin:round;"><g id="kvg:07add" kvg:element="竝"><g id="kvg:07add-g1" kvg:element="立" kvg:variant="true" kvg:position="left" kvg:radical="general"><g id="kvg:07add-g2" kvg:element="亠" kvg:position="top"><path id="kvg:07add-s1" kvg:type="㇑a" d="M26.96 16c1.04.91 1.57 2.12 1.57 3.06.0 2.14.0 13.17.0 18.98"/><path id="kvg:07add-s2" kvg:type="㇐" d="M12 38.41c1.16.3 2.53.35 3.68.3 6.57-.26 17.07-.97 25.99-1.58 1.93-.13 3.1.14 4.07.3"/></g><g id="kvg:07add-g3" kvg:position="bottom"><path id="kvg:07add-s3" kvg:type="㇔" d="M15.75 50.4c5.66 10.67 8.23 21.57 8.75 28.6"/><path id="kvg:07add-s4" kvg:type="㇒" d="M39.56 44.48c1.07 1.33.6 4.1.38 5.15-2.36 10.89-7.32 28.37-9.43 34.02"/><path id="kvg:07add-s5" kvg:type="㇀/㇐" d="M13 93.24c.9 1.06 2.9 1.04 3.79.62 9.78-4.59 17.78-8.83 26.46-12.61"/></g></g><g id="kvg:07add-g4" kvg:element="立" kvg:position="right"><g id="kvg:07add-g5" kvg:element="亠" kvg:position="top"><path id="kvg:07add-s6" kvg:type="㇑a" d="M71.01 12.75c.99 1 2.49 3.25 2.49 5.81.0 4.07.0 5.64.0 16.69"/><path id="kvg:07add-s7" kvg:type="㇐" d="M53.75 37.18c1.66.32 3.34.4 4.19.35 4.84-.3 26.88-2.02 34.2-2.28 1.43-.05 3.39.17 4.11.34"/></g><g id="kvg:07add-g6" kvg:position="bottom"><path id="kvg:07add-s8" kvg:type="㇔" d="M58.25 48.25c4.92 11.09 8.05 24.44 8.5 31.75"/><path id="kvg:07add-s9" kvg:type="㇒" d="M88.51 43c.73 1.21.56 3.18.25 4.35C86.3 56.54 78.7 80.71 76.25 87"/><path id="kvg:07add-s10" kvg:type="㇐" d="M44.75 91.41c1.5.56 4.42.55 5.67.49 15.09-.65 27.47-1.65 43.24-2.66 2.08-.13 4.59.07 6.09 1.11"/></g></g></g></g></svg>