<svg xmlns="http://www.w3.org/2000/svg" width="109" height="109" viewBox="0 0 109 109"><g id="kvg:StrokePaths_07ada" style="fill:none;stroke:#000000;stroke-width:3;stroke-linecap:round;stroke-linejoin:round;"><g id="kvg:07ada" kvg:element="竚"><g id="kvg:07ada-g1" kvg:element="立" kvg:position="left" kvg:radical="general"><g id="kvg:07ada-g2" kvg:element="亠" kvg:position="top"><path id="kvg:07ada-s1" kvg:type="㇑a" d="M24.46 17c1.04.95 1.57 2.21 1.57 3.2.0 2.24.0 9.27.0 15.35"/><path id="kvg:07ada-s2" kvg:type="㇐" d="M9.82 37.84c1.04.02 2.25-.06 3.27-.15 5.81-.56 16.78-1.9 24.67-2.75 1.71-.18 2.75-.17 3.61-.18"/></g><g id="kvg:07ada-g3" kvg:position="bottom"><path id="kvg:07ada-s3" kvg:type="㇔" d="M13.25 47.4c5.66 10.2 8.23 20.63 8.75 27.35"/><path id="kvg:07ada-s4" kvg:type="㇒" d="M35.89 41.75c.99 1.28.56 3.96.35 4.99-2.19 10.54-6.78 27.45-8.73 32.92"/><path id="kvg:07ada-s5" kvg:type="㇀/㇐" d="M11 87.52c.94 1.24 3.05 1.21 3.98.72 10.27-5.37 18.67-10.32 27.77-14.74"/></g></g><g id="kvg:07ada-g4" kvg:element="宁" kvg:position="right"><g id="kvg:07ada-g5" kvg:element="宀" kvg:position="top"><path id="kvg:07ada-s6" kvg:type="㇑a" d="M69.4 11.5c.64.43 1.56 1.53 1.54 2.77-.05 3.9-.05 8.54-.05 12.08"/><g id="kvg:07ada-g6" kvg:element="冖"><path id="kvg:07ada-s7" kvg:type="㇔" d="M49.73 25.63c0 3.37-3.03 13.62-4.09 15.87"/><path id="kvg:07ada-s8" kvg:type="㇖b" d="M49.25 29.09c6.25-1.09 38.89-3.08 42.66-3.51 10.62-1.23 2.03 7.05.66 8.54"/></g></g><g id="kvg:07ada-g7" kvg:element="丁" kvg:position="bottom"><g id="kvg:07ada-g8" kvg:element="一"><path id="kvg:07ada-s9" kvg:type="㇐" d="M46.47 49.72c1.39.39 3.94.57 5.33.47 9.5-.62 29.63-3.01 42.09-2.93 2.32.02 3.71.25 4.87.46"/></g><g id="kvg:07ada-g9" kvg:element="亅"><path id="kvg:07ada-s10" kvg:type="㇚" d="M72.21 51.11c.07.39 1 2.01 1 4.46.0 14.13-.2 32.55-.2 36.56.0 11.36-6.79.41-7.99-.6"/></g></g></g></g></g></svg>