<!DOCTYPE svg PUBLIC "-//W3C//DTD SVG 1.0//EN" "http://www.w3.org/TR/2001/REC-SVG-20010904/DTD/svg10.dtd" [
<!ATTLIST g
xmlns:kvg CDATA #FIXED "http://kanjivg.tagaini.net"
kvg:element CDATA #IMPLIED
kvg:variant CDATA #IMPLIED
kvg:partial CDATA #IMPLIED
kvg:original CDATA #IMPLIED
kvg:part CDATA #IMPLIED
kvg:number CDATA #IMPLIED
kvg:tradForm CDATA #IMPLIED
kvg:radicalForm CDATA #IMPLIED
kvg:position CDATA #IMPLIED
kvg:radical CDATA #IMPLIED
kvg:phon CDATA #IMPLIED >
<!ATTLIST path
xmlns:kvg CDATA #FIXED "http://kanjivg.tagaini.net"
kvg:type CDATA #IMPLIED >
]><svg xmlns="http://www.w3.org/2000/svg" width="109" height="109" viewBox="0 0 109 109"><g id="kvg:StrokePaths_07adc" style="fill:none;stroke:#000000;stroke-width:3;stroke-linecap:round;stroke-linejoin:round;"><g id="kvg:07adc" kvg:element="竜"><g id="kvg:07adc-g1" kvg:element="竜" kvg:variant="true" kvg:original="龍" kvg:radical="general"><g id="kvg:07adc-g2" kvg:element="立" kvg:position="top"><g id="kvg:07adc-g3" kvg:element="亠" kvg:position="top"><path id="kvg:07adc-s1" kvg:type="㇑a" d="M52.44 11c1.22 1.22 1.44 2.54 1.44 4.54.0 3.18.0 3.46.0 6.62"/><path id="kvg:07adc-s2" kvg:type="㇐" d="M29.82 24.83c1.9.53 4.5.41 6.46.22 8.53-.82 27.56-2.89 36.73-3.51 2.19-.15 4.36-.04 6.54.33"/></g><g id="kvg:07adc-g4" kvg:position="bottom"><path id="kvg:07adc-s3" kvg:type="㇔" d="M38.5 28c3.51 4.94 5.74 10.88 6.06 14.14"/><path id="kvg:07adc-s4" kvg:type="㇒" d="M68.37 25.54c.13.84.05 1.89-.11 2.34-1.63 4.62-4.49 10.36-5.77 12.85"/><path id="kvg:07adc-s5" kvg:type="㇐" d="M16.33 46.32c3.05.82 6.69.43 9.79.16 15.18-1.3 39.37-3.48 55.63-4.36 3.42-.19 6.77-.19 10.17.36"/></g></g><g id="kvg:07adc-g5" kvg:position="bottom"><path id="kvg:07adc-s6" kvg:type="㇑" d="M29.03 56.78c.78.78 1.09 1.85 1.3 3.23.87 5.88 2.29 13.08 3.14 20.25.16 1.38.32 2.71.46 3.95"/><path id="kvg:07adc-s7" kvg:type="㇕a" d="M30.69 58.15c14.94-1.65 32.94-3.52 43.81-4.36 2.64-.2 4.8 1.66 4.36 4.33-.65 4.03-2.17 11.45-3.7 18.17-.36 1.58-.69 3.1-.97 4.51"/><path id="kvg:07adc-s8" kvg:type="㇐a" d="M33 69.83c5.88-.7 35.88-3.2 42.76-3.47"/><path id="kvg:07adc-s9" kvg:type="㇐a" d="M35.07 81.7c9.95-.69 26.33-2.12 38.06-2.7"/><path id="kvg:07adc-s10" kvg:type="㇟" d="M52.74 58.62c.82.82.88 2.09.88 3.93.0 4.08-.03 16.14-.03 21.7.0 11.38 1.29 13.28 18.92 13.28 16.75.0 18.64-1.53 18.64-10.37"/></g></g></g></g><g id="kvg:StrokeNumbers_07adc" style="font-size:8;fill:#808080"><text transform="matrix(1 0 0 1 44.25 11.25)">1</text><text transform="matrix(1 0 0 1 22.25 25.25)">2</text><text transform="matrix(1 0 0 1 33.25 35.73)">3</text><text transform="matrix(1 0 0 1 60.25 31.25)">4</text><text transform="matrix(1 0 0 1 8.25 47.25)">5</text><text transform="matrix(1 0 0 1 22.25 64.25)">6</text><text transform="matrix(1 0 0 1 33.50 55.25)">7</text><text transform="matrix(1 0 0 1 36.50 66.25)">8</text><text transform="matrix(1 0 0 1 37.25 78.25)">9</text><text transform="matrix(1 0 0 1 43.25 65.25)">10</text></g></svg>