<svg xmlns="http://www.w3.org/2000/svg" width="109" height="109" viewBox="0 0 109 109"><g id="kvg:StrokePaths_07ad2"><g id="kvg:07ad2" kvg:element="竒"><g id="kvg:07ad2-g1" kvg:element="立" kvg:part="1" kvg:partial="true" kvg:position="top" kvg:radical="general"><g id="kvg:07ad2-g2" kvg:element="亠" kvg:position="top"><path id="kvg:07ad2-s1" kvg:type="㇑a" d="M52.75 8.75c1 .75 1.5 1.75 1.5 3.5s0 4.75.0 9.5"/><path id="kvg:07ad2-s2" kvg:type="㇐" d="M26 24.09c1.55.41 3.37.47 4.92.41 8.77-.35 34.14-4.41 47.39-4.71 2.59-.06 4.14.2 5.44.4"/></g><g id="kvg:07ad2-g3" kvg:position="bottom"><path id="kvg:07ad2-s3" kvg:type="㇔" d="M35.5 29.25c5.18 5.59 7.53 11.31 8 15"/><path id="kvg:07ad2-s4" kvg:type="㇒" d="M69.94 25c.82.69.53 2.58.32 3.12-1.77 4.63-6.12 13.37-7.77 16.38"/></g></g><g id="kvg:07ad2-g4" kvg:element="可" kvg:position="bottom"><g id="kvg:07ad2-g5" kvg:element="丁" kvg:part="1"><g id="kvg:07ad2-g6" kvg:element="立" kvg:part="2" kvg:partial="true" kvg:radical="general"><path id="kvg:07ad2-s5" kvg:type="㇐" d="M14.25 51.21c2.06.47 4.48.65 6.52.47 22.43-2.03 40.79-5.02 66.77-5.98 3.43-.13 5.49.22 7.21.46"/></g></g><g id="kvg:07ad2-g7" kvg:element="口"><path id="kvg:07ad2-s6" kvg:type="㇑" d="M31.25 63.81c.28.33.57.61.7 1.03.98 3.3 2.99 12.24 3.66 18.17"/><path id="kvg:07ad2-s7" kvg:type="㇕b" d="M33.02 64.77c5.97-1.08 17.73-2.35 21.05-2.79 1.21-.16 1.94.94 1.77 1.87-.72 3.85-1.4 8.7-2.46 14.03"/><path id="kvg:07ad2-s8" kvg:type="㇐b" d="M35.74 80.95c3.9-.49 13.98-1.34 19.34-2.09"/></g><g id="kvg:07ad2-g8" kvg:element="丁" kvg:part="2"><g id="kvg:07ad2-g9" kvg:element="亅"><path id="kvg:07ad2-s9" kvg:type="㇚" d="M72.52 49.85C73.5 51 74.07 52.6 74.09 54c.24 18.64.17 35.85.17 40.46.0 10.39-7.21 1.5-8.71.25"/></g></g></g></g></g></svg>