<svg xmlns="http://www.w3.org/2000/svg" width="109" height="109" viewBox="0 0 109 109"><g id="kvg:StrokePaths_07af0"><g id="kvg:07af0" kvg:element="竰"><g id="kvg:07af0-g1" kvg:element="立" kvg:position="left" kvg:radical="general"><g id="kvg:07af0-g2" kvg:element="亠" kvg:position="top"><path id="kvg:07af0-s1" kvg:type="㇑a" d="M23.46 19c1.04.79 1.57 1.83 1.57 2.65.0 1.85.0 10.16.0 15.19"/><path id="kvg:07af0-s2" kvg:type="㇐" d="M9.5 37.94c.98.3 2.12.35 3.1.3 5.52-.26 16.46-1.46 23.97-2.07 1.63-.13 2.61.14 3.43.29"/></g><g id="kvg:07af0-g3" kvg:position="bottom"><path id="kvg:07af0-s3" kvg:type="㇔" d="M13.75 48.54c4.37 9.05 6.35 18.3 6.75 24.26"/><path id="kvg:07af0-s4" kvg:type="㇒" d="M34.21 42c.88 1.18.5 3.63.31 4.57-1.95 9.66-6.03 25.17-7.77 30.18"/><path id="kvg:07af0-s5" kvg:type="㇀/㇐" d="M10.75 83.59c.88 1.18 2.83 1.15 3.7.69 9.54-5.1 17.34-9.82 25.8-14.03"/></g></g><g id="kvg:07af0-g4" kvg:element="厘" kvg:position="right"><g id="kvg:07af0-g5" kvg:element="厂" kvg:position="tare"><path id="kvg:07af0-s6" kvg:type="㇐" d="M45.37 18.45c1.16.59 3.27.65 4.43.59 14.95-.79 29.45-2.79 43.84-3.52 1.92-.1 3.08.28 4.04.57"/><path id="kvg:07af0-s7" kvg:type="㇒" d="M50.04 20c.05 1.82-.01 4.68-.11 7.29C49.24 46.91 50.25 79 31.75 96.5"/></g><g id="kvg:07af0-g6" kvg:element="里" kvg:position="tarec"><g id="kvg:07af0-g7" kvg:element="日"><path id="kvg:07af0-s8" kvg:type="㇑" d="M56.25 29.66c.38.57.38.95.57 1.65 1.6 5.78 2.74 21.26 3.44 31.95"/><path id="kvg:07af0-s9" kvg:type="㇕a" d="M57.79 30.44c9.4-.82 25.53-2.2 32.56-2.95 2.58-.27 3.78 1.39 3.55 2.97-.87 5.77-1.82 19.17-3.64 28.78"/><path id="kvg:07af0-s10" kvg:type="㇐a" d="M60.25 44.85c3.03-.28 29.62-2.31 32.12-2.42"/><path id="kvg:07af0-s11" kvg:type="㇐a" d="M61 59.95c6.23-.4 19.64-2.09 28.25-2.75"/></g><path id="kvg:07af0-s12" kvg:type="㇑a" d="M74.26 29.28c.09 1.01.35 2.38.36 4.4.06 14.13.02 52.56.02 56.54"/><path id="kvg:07af0-s13" kvg:type="㇐" d="M56.25 75.51c.71.2 2.02.22 2.74.2 7.42-.22 23.76-2.2 32.94-2.25 1.19-.01 1.9.09 2.5.19"/><path id="kvg:07af0-s14" kvg:type="㇐" d="M46.98 92.11c1.29.28 3.67.33 4.96.28 13.47-.47 27.3-2.11 43.33-2.09 2.15.0 3.45.13 4.53.27"/></g></g></g></g></svg>