<!DOCTYPE svg PUBLIC "-//W3C//DTD SVG 1.0//EN" "http://www.w3.org/TR/2001/REC-SVG-20010904/DTD/svg10.dtd" [
<!ATTLIST g
xmlns:kvg CDATA #FIXED "http://kanjivg.tagaini.net"
kvg:element CDATA #IMPLIED
kvg:variant CDATA #IMPLIED
kvg:partial CDATA #IMPLIED
kvg:original CDATA #IMPLIED
kvg:part CDATA #IMPLIED
kvg:number CDATA #IMPLIED
kvg:tradForm CDATA #IMPLIED
kvg:radicalForm CDATA #IMPLIED
kvg:position CDATA #IMPLIED
kvg:radical CDATA #IMPLIED
kvg:phon CDATA #IMPLIED >
<!ATTLIST path
xmlns:kvg CDATA #FIXED "http://kanjivg.tagaini.net"
kvg:type CDATA #IMPLIED >
]><svg xmlns="http://www.w3.org/2000/svg" width="109" height="109" viewBox="0 0 109 109"><g id="kvg:StrokePaths_07b04" style="fill:none;stroke:#000000;stroke-width:3;stroke-linecap:round;stroke-linejoin:round;"><g id="kvg:07b04" kvg:element="笄"><g id="kvg:07b04-g1" kvg:element="竹" kvg:variant="true" kvg:position="top" kvg:radical="general"><g id="kvg:07b04-g2" kvg:position="left"><path id="kvg:07b04-s1" kvg:type="㇒" d="M28 12c.04.56.09 1.46-.08 2.27C26.93 19.06 21.26 29.57 13.5 36"/><path id="kvg:07b04-s2" kvg:type="㇐b" d="M28.23 23.79c3.71.0 18.61-2.29 22.77-2.29"/><path id="kvg:07b04-s3" kvg:type="㇔/㇑" d="M33.52 24.83c2.66 1.79 6.88 7.35 7.54 10.13"/></g><g id="kvg:07b04-g3" kvg:position="right"><path id="kvg:07b04-s4" kvg:type="㇒" d="M65.75 10.25c.04.55.18 1.43-.09 2.2-2.01 5.76-7.56 13.98-14.92 21.05"/><path id="kvg:07b04-s5" kvg:type="㇐b" d="M64.98 21.6c7.02-.1 22.08-2.72 27.4-2.72"/><path id="kvg:07b04-s6" kvg:type="㇒/㇚" d="M77.54 23.11c.02.25.05.65-.05 1.01-.58 2.12-3.92 6.78-8.49 9.63"/></g></g><g id="kvg:07b04-g4" kvg:element="开" kvg:original="幵" kvg:partial="true" kvg:position="bottom"><g id="kvg:07b04-g5" kvg:element="干"><path id="kvg:07b04-s7" kvg:type="㇐" d="M23.25 43.24c1.5.45 4.24.5 5.75.45 9.02-.32 37.75-3.05 51.26-2.88 2.5.03 4 .21 5.25.44"/><g id="kvg:07b04-g6" kvg:element="十"><path id="kvg:07b04-s8" kvg:type="㇐" d="M14.25 64.22c1.53.33 4.35.34 5.87.33 10.13-.05 59.71-3.47 70.27-3.38 2.55.02 4.08.16 5.36.32"/><path id="kvg:07b04-s9" kvg:type="㇒/㇑" d="M40.33 45.12c.92.88 1.17 1.78 1.17 2.96.0 1.19.5 2.76.5 12.84S35.84 92.16 20.25 97.5"/></g></g><g id="kvg:07b04-g7" kvg:element="干" kvg:partial="true"><g id="kvg:07b04-g8" kvg:element="十" kvg:partial="true"><path id="kvg:07b04-s10" kvg:type="㇑" d="M65.51 43.28c1.13.78 1.99 2.55 1.99 3.33s0 49.57.0 51.9"/></g></g></g></g></g><g id="kvg:StrokeNumbers_07b04" style="font-size:8;fill:#808080"><text transform="matrix(1 0 0 1 20.50 12.50)">1</text><text transform="matrix(1 0 0 1 32.50 19.50)">2</text><text transform="matrix(1 0 0 1 29.25 32.50)">3</text><text transform="matrix(1 0 0 1 57.50 10.63)">4</text><text transform="matrix(1 0 0 1 69.50 18.50)">5</text><text transform="matrix(1 0 0 1 67.50 29.50)">6</text><text transform="matrix(1 0 0 1 15.50 44.50)">7</text><text transform="matrix(1 0 0 1 6.50 63.50)">8</text><text transform="matrix(1 0 0 1 33.50 53.50)">9</text><text transform="matrix(1 0 0 1 56.50 51.50)">10</text></g></svg>