<svg xmlns="http://www.w3.org/2000/svg" width="109" height="109" viewBox="0 0 109 109"><g id="kvg:StrokePaths_07b0f" style="fill:none;stroke:#000000;stroke-width:3;stroke-linecap:round;stroke-linejoin:round;"><g id="kvg:07b0f" kvg:element="笏"><g id="kvg:07b0f-g1" kvg:element="竹" kvg:variant="true" kvg:position="top" kvg:radical="general"><g id="kvg:07b0f-g2" kvg:position="left"><path id="kvg:07b0f-s1" kvg:type="㇒" d="M29.49 11c.04.56.09 1.46-.09 2.27C28.35 18.06 22.29 28.57 14 35"/><path id="kvg:07b0f-s2" kvg:type="㇐b" d="M28.73 23.29C33 23.5 47.34 21 51.5 21"/><path id="kvg:07b0f-s3" kvg:type="㇔/㇑" d="M35.02 24.83c2.66 1.79 6.88 7.35 7.54 10.13"/></g><g id="kvg:07b0f-g3" kvg:position="right"><path id="kvg:07b0f-s4" kvg:type="㇒" d="M64.73 9.5c.03.5.15 1.29-.07 1.99-1.67 5.2-6.29 12.62-12.41 19.01"/><path id="kvg:07b0f-s5" kvg:type="㇐b" d="M63.98 20.66c5.02-.16 23.58-2.57 28.9-2.57"/><path id="kvg:07b0f-s6" kvg:type="㇒/㇚" d="M74.27 22.75c.02.28.05.73-.04 1.14-.53 2.39-3.57 7.65-7.73 10.86"/></g></g><g id="kvg:07b0f-g4" kvg:element="勿" kvg:position="bottom"><g id="kvg:07b0f-g5" kvg:element="勹"><path id="kvg:07b0f-s7" kvg:type="㇒" d="M35 35c.06.67.11 1.73-.11 2.7-1.31 5.69-8.84 18.16-19.15 25.8"/><path id="kvg:07b0f-s8" kvg:type="㇆" d="M34.5 45.46c1.31.56 3.07.35 5.17.2 5.58-.4 37.77-4.95 42.92-5.36 5.14-.41 6.27 1.77 5.66 6.06-.6 4.29-5 36.4-14.5 50.9-2.67 4.07-5.75-.5-8.5-2.25"/></g><path id="kvg:07b0f-s9" kvg:type="㇒" d="M46.49 48.75c.08.82.22 2.13-.15 3.28C42.75 63.34 34.18 74.12 20 83.41"/><path id="kvg:07b0f-s10" kvg:type="㇒" d="M66.02 46c.11 1.24.3 3.21-.21 4.97C62.75 61.5 50 85.5 29.5 98.5"/></g></g></g></svg>