<svg xmlns="http://www.w3.org/2000/svg" width="109" height="109" viewBox="0 0 109 109"><g id="kvg:StrokePaths_07b20"><g id="kvg:07b20" kvg:element="笠"><g id="kvg:07b20-g1" kvg:element="竹" kvg:variant="true" kvg:position="top" kvg:radical="general"><g id="kvg:07b20-g2" kvg:position="left"><path id="kvg:07b20-s1" kvg:type="㇒" d="M31.24 15c.13 1.19.12 2.39-.37 3.46-3 6.54-7.12 13.92-15.62 22.29"/><path id="kvg:07b20-s2" kvg:type="㇐b" d="M28.73 29.79c.95.0 2.58-.22 4.54-.54 3.6-.59 8.84-1.29 12.6-1.9 2.16-.35 4-.59 5.13-.59"/><path id="kvg:07b20-s3" kvg:type="㇔/㇑" d="M34.27 32.33c1.78 2.01 4.6 8.01 5.04 11.13"/></g><g id="kvg:07b20-g3" kvg:position="right"><path id="kvg:07b20-s4" kvg:type="㇒" d="M66.49 13c.15 1.38-.07 2.69-.66 3.94-2.46 5.69-6.05 12.26-11.08 18.31"/><path id="kvg:07b20-s5" kvg:type="㇐b" d="M65.23 26.91c.81.0 1.95-.1 3.3-.26 4.63-.56 11.78-1.88 17.1-2.59 2.14-.29 3.99-.47 5.25-.47"/><path id="kvg:07b20-s6" kvg:type="㇒/㇚" d="M75.28 29.5c.05.61-.03 1.19-.24 1.76-.72 2.24-2.86 5.85-5.29 8.49"/></g></g><g id="kvg:07b20-g4" kvg:element="立" kvg:position="bottom"><g id="kvg:07b20-g5" kvg:element="亠" kvg:position="top"><path id="kvg:07b20-s7" kvg:type="㇑a" d="M51.48 42c1.07 1.07 1.29 2.76 1.29 4.35.0 2.52.0-.69.0 6.15"/><path id="kvg:07b20-s8" kvg:type="㇐" d="M26.5 55.29c3.17.35 6.34.33 9.5-.07 10.25-1.06 27.99-2.57 37.25-3.06 2.83-.23 5.67-.2 8.5.09"/></g><g id="kvg:07b20-g6" kvg:position="bottom"><path id="kvg:07b20-s9" kvg:type="㇔" d="M36.75 59.25C40.8 68.24 42.63 78.57 43 84.5"/><path id="kvg:07b20-s10" kvg:type="㇒" d="M69.95 56c.3 1.12.1 2.28-.1 3.02-1.54 5.85-6.19 20.36-7.73 24.36"/><path id="kvg:07b20-s11" kvg:type="㇐" d="M15.75 88.8c4.17.54 8.31.28 12.5-.06 19.77-1.6 39.5-2.62 56.88-3.38 3.73-.16 7.12.13 11.12.96"/></g></g></g></g></svg>