<svg xmlns="http://www.w3.org/2000/svg" width="109" height="109" viewBox="0 0 109 109"><g id="kvg:StrokePaths_07b4c" style="fill:none;stroke:#000000;stroke-width:3;stroke-linecap:round;stroke-linejoin:round;"><g id="kvg:07b4c" kvg:element="筌"><g id="kvg:07b4c-g1" kvg:element="竹" kvg:variant="true" kvg:position="top" kvg:radical="general"><g id="kvg:07b4c-g2" kvg:position="left"><path id="kvg:07b4c-s1" kvg:type="㇒" d="M29.49 12.25c.04.61.09 1.57-.09 2.44C28.31 19.82 22.06 31.1 13.5 38"/><path id="kvg:07b4c-s2" kvg:type="㇐b" d="M27.48 25.48c3.99.0 19.54-2.93 24.02-2.93"/><path id="kvg:07b4c-s3" kvg:type="㇔/㇑" d="M32.75 27.25c2.76 2.07 7.12 8.5 7.81 11.72"/></g><g id="kvg:07b4c-g3" kvg:position="right"><path id="kvg:07b4c-s4" kvg:type="㇒" d="M66.49 10c.03.43.13 1.12-.06 1.73C65.03 16.25 61.14 22.7 56 28.25"/><path id="kvg:07b4c-s5" kvg:type="㇐b" d="M64.48 22.58c4.53.0 22.56-3.42 27.65-3.42"/><path id="kvg:07b4c-s6" kvg:type="㇒/㇚" d="M78.99 24c.03.33.06.85-.06 1.32C78.22 28.12 74.12 34.25 68.5 38"/></g></g><g id="kvg:07b4c-g4" kvg:element="全" kvg:position="bottom"><g id="kvg:07b4c-g5" kvg:element="人" kvg:variant="true" kvg:original="入" kvg:position="top"><path id="kvg:07b4c-s7" kvg:type="㇒" d="M51.25 32.75c.11.88.42 2.32-.22 3.55-3.99 7.6-17.68 23.76-39.53 33.95"/><path id="kvg:07b4c-s8" kvg:type="㇏" d="M51.25 37.33c6.71 4.3 29.18 19.02 35.25 22.28 2.06 1.11 4.7 1.58 6.75 1.9"/></g><g id="kvg:07b4c-g6" kvg:element="王" kvg:original="玉" kvg:partial="true" kvg:position="bottom"><path id="kvg:07b4c-s9" kvg:type="㇐" d="M35.5 61.45c.8.28 3.39.6 4.2.52 3.74-.37 20.33-1.89 29.35-2.18 1.23-.04 2.34.05 3.36.28"/><path id="kvg:07b4c-s10" kvg:type="㇑a" d="M52.6 62.88c1.18.96 1.18 1.54 1.18 2.31.0 5.4.59 23.04.3 28.44"/><path id="kvg:07b4c-s11" kvg:type="㇐" d="M34.5 78.04c.92.64 3.96.31 4.91.28C50 78 60.59 76.71 72.12 75.58c1.15-.11 3.68-.26 5.4.3"/><path id="kvg:07b4c-s12" kvg:type="㇐" d="M20.35 97.08c.81.47 5.02.16 6.4.01 19.5-2.09 38.91-3.49 59.44-4.66 2.21-.12 4.86.8 5.96 1.55"/></g></g></g></g></svg>