<svg xmlns="http://www.w3.org/2000/svg" width="109" height="109" viewBox="0 0 109 109"><g id="kvg:StrokePaths_07b4b"><g id="kvg:07b4b" kvg:element="筋"><g id="kvg:07b4b-g1" kvg:element="竹" kvg:variant="true" kvg:position="top" kvg:radical="general"><g id="kvg:07b4b-g2" kvg:position="left"><path id="kvg:07b4b-s1" kvg:type="㇒" d="M29.42 13.69c.09 1.24-.08 2.27-.54 3.44-1.8 4.57-7.58 12.61-13.63 17.49"/><path id="kvg:07b4b-s2" kvg:type="㇐b" d="M28.14 25.82c2.88.0 10.52-1.91 15.98-2.87 1.82-.32 3.4-.53 4.47-.53"/><path id="kvg:07b4b-s3" kvg:type="㇔/㇑" d="M33.18 27.92c1.66 1.48 4.29 6.1 4.7 8.41"/></g><g id="kvg:07b4b-g3" kvg:position="right"><path id="kvg:07b4b-s4" kvg:type="㇒" d="M61.79 13.13c.06.98-.03 1.75-.33 2.69-1.5 4.57-4.96 10.72-9.46 16.06"/><path id="kvg:07b4b-s5" kvg:type="㇐b" d="M62.04 24.35c3.92.0 18-2.93 25.69-4.01 1.93-.27 3.55-.19 4.65-.19"/><path id="kvg:07b4b-s6" kvg:type="㇒/㇚" d="M73.45 26.47c.06.64-.05 1.25-.33 1.83-.91 2.23-3.37 5.33-6.75 8.26"/></g></g><g id="kvg:07b4b-g4" kvg:element="肋" kvg:position="bottom"><g id="kvg:07b4b-g5" kvg:element="月" kvg:position="left"><path id="kvg:07b4b-s7" kvg:type="㇓" d="M23.34 41.15c.69.69.9 1.85.95 3.09 1.08 25.25-2.3 40.63-11.55 51.2"/><path id="kvg:07b4b-s8" kvg:type="㇆a" d="M25.18 44.35c4.07-.98 13.82-2.9 15.98-3.19 2.22-.29 4.09 1.08 4.09 4.06.0 3.28.02 30.2.02 44.31.0 9.06-6.28.96-7.74-.43"/><path id="kvg:07b4b-s9" kvg:type="㇐a" d="M25.61 56.39c5.76-.77 11.14-1.89 18.51-2.64"/><path id="kvg:07b4b-s10" kvg:type="㇐a" d="M24.63 69.28c7.99-.91 13.24-1.66 19.58-2.31"/></g><g id="kvg:07b4b-g6" kvg:element="力" kvg:position="right"><path id="kvg:07b4b-s11" kvg:type="㇆" d="M56.66 52.27c2.09.35 4.02.42 5.58.15 8.32-1.4 23-4.26 26.22-4.45 3.57-.21 3.87 1.75 3.65 4.44-.85 10.33-4.73 26.83-9.67 36.96-4.25 8.71-8.3 3.37-9.77 1.32"/><path id="kvg:07b4b-s12" kvg:type="㇒" d="M73.44 38.68c.81 1.32.92 2.91.61 4.8-2.31 13.97-7.8 40.82-24.66 51.43"/></g></g></g></g></svg>