<!DOCTYPE svg PUBLIC "-//W3C//DTD SVG 1.0//EN" "http://www.w3.org/TR/2001/REC-SVG-20010904/DTD/svg10.dtd" [
<!ATTLIST g
xmlns:kvg CDATA #FIXED "http://kanjivg.tagaini.net"
kvg:element CDATA #IMPLIED
kvg:variant CDATA #IMPLIED
kvg:partial CDATA #IMPLIED
kvg:original CDATA #IMPLIED
kvg:part CDATA #IMPLIED
kvg:number CDATA #IMPLIED
kvg:tradForm CDATA #IMPLIED
kvg:radicalForm CDATA #IMPLIED
kvg:position CDATA #IMPLIED
kvg:radical CDATA #IMPLIED
kvg:phon CDATA #IMPLIED >
<!ATTLIST path
xmlns:kvg CDATA #FIXED "http://kanjivg.tagaini.net"
kvg:type CDATA #IMPLIED >
]><svg xmlns="http://www.w3.org/2000/svg" width="109" height="109" viewBox="0 0 109 109"><g id="kvg:StrokePaths_07b50" style="fill:none;stroke:#000000;stroke-width:3;stroke-linecap:round;stroke-linejoin:round;"><g id="kvg:07b50" kvg:element="筐"><g id="kvg:07b50-g1" kvg:element="竹" kvg:variant="true" kvg:position="top" kvg:radical="general"><g id="kvg:07b50-g2" kvg:position="left"><path id="kvg:07b50-s1" kvg:type="㇒" d="M27.25 11.75c.04.57.09 1.47-.08 2.29C26.16 18.88 20.39 29.5 12.5 36"/><path id="kvg:07b50-s2" kvg:type="㇐b" d="M27.73 22.79c3.71.0 18.61-2.29 22.77-2.29"/><path id="kvg:07b50-s3" kvg:type="㇔/㇑" d="M33.02 24.33c2.66 1.79 6.88 7.35 7.54 10.13"/></g><g id="kvg:07b50-g3" kvg:position="right"><path id="kvg:07b50-s4" kvg:type="㇒" d="M63.99 10.25c.04.56.19 1.46-.09 2.25C61.76 18.38 56.84 25.77 49 33"/><path id="kvg:07b50-s5" kvg:type="㇐b" d="M61.73 20.98c4.94.0 24.6-2.98 30.15-2.98"/><path id="kvg:07b50-s6" kvg:type="㇒/㇚" d="M77.49 22c.03.29.07.76-.07 1.18C76.57 25.68 71.69 31.15 65 34.5"/></g></g><g id="kvg:07b50-g4" kvg:element="匡" kvg:position="bottom"><g id="kvg:07b50-g5" kvg:element="匚" kvg:part="1"><path id="kvg:07b50-s7" kvg:type="㇐" d="M19.88 42.11c1.49.44 4.23.51 5.73.44 15.55-.73 40.63-3.83 57.67-3.83 2.49.0 3.98.21 5.23.43"/></g><g id="kvg:07b50-g6" kvg:element="王" kvg:original="玉" kvg:partial="true"><path id="kvg:07b50-s8" kvg:type="㇐" d="M38 52.12c.75.22 3.21.06 3.97.01 8.34-.54 24.42-2.38 32.96-2.61 1.16-.03 2.22.04 3.18.23"/><path id="kvg:07b50-s9" kvg:type="㇑a" d="M56.91 52.57c.69 1.13.69 1.8.69 2.7.0 6.3-.01 18.63-.01 28.74"/><path id="kvg:07b50-s10" kvg:type="㇐" d="M39.52 67.88c.65.17 2.8.1 3.46.07 6.93-.29 21.76-1.91 29.89-2.21.81-.03 2.6-.07 3.81.08"/><path id="kvg:07b50-s11" kvg:type="㇐" d="M33.21 85.14c.61.17 3.77.56 4.8.47 14.39-1.18 27.5-2.62 42.88-3.03 1.65-.04 3.64.28 4.46.54"/></g><g id="kvg:07b50-g7" kvg:element="匚" kvg:part="2"><path id="kvg:07b50-s12" kvg:type="㇗" d="M24.52 43.05c0 3.24-.48 49.83-.48 52.87.0 2.43.95 2.94 2.64 2.84 9.61-.61 55.01-3.44 58.13-3.44s5.76.2 7.69.61"/></g></g></g></g><g id="kvg:StrokeNumbers_07b50" style="font-size:8;fill:#808080"><text transform="matrix(1 0 0 1 19.50 10.50)">1</text><text transform="matrix(1 0 0 1 33.50 18.50)">2</text><text transform="matrix(1 0 0 1 27.50 31.50)">3</text><text transform="matrix(1 0 0 1 55.50 8.50)">4</text><text transform="matrix(1 0 0 1 68.50 17.50)">5</text><text transform="matrix(1 0 0 1 64.25 29.50)">6</text><text transform="matrix(1 0 0 1 22.50 39.50)">7</text><text transform="matrix(1 0 0 1 29.50 52.50)">8</text><text transform="matrix(1 0 0 1 49.25 60.53)">9</text><text transform="matrix(1 0 0 1 28.50 67.50)">10</text><text transform="matrix(1 0 0 1 29.50 80.38)">11</text><text transform="matrix(1 0 0 1 13.50 51.50)">12</text></g></svg>