<!DOCTYPE svg PUBLIC "-//W3C//DTD SVG 1.0//EN" "http://www.w3.org/TR/2001/REC-SVG-20010904/DTD/svg10.dtd" [
<!ATTLIST g
xmlns:kvg CDATA #FIXED "http://kanjivg.tagaini.net"
kvg:element CDATA #IMPLIED
kvg:variant CDATA #IMPLIED
kvg:partial CDATA #IMPLIED
kvg:original CDATA #IMPLIED
kvg:part CDATA #IMPLIED
kvg:number CDATA #IMPLIED
kvg:tradForm CDATA #IMPLIED
kvg:radicalForm CDATA #IMPLIED
kvg:position CDATA #IMPLIED
kvg:radical CDATA #IMPLIED
kvg:phon CDATA #IMPLIED >
<!ATTLIST path
xmlns:kvg CDATA #FIXED "http://kanjivg.tagaini.net"
kvg:type CDATA #IMPLIED >
]><svg xmlns="http://www.w3.org/2000/svg" width="109" height="109" viewBox="0 0 109 109"><g id="kvg:StrokePaths_07b6c" style="fill:none;stroke:#000000;stroke-width:3;stroke-linecap:round;stroke-linejoin:round;"><g id="kvg:07b6c" kvg:element="筬"><g id="kvg:07b6c-g1" kvg:element="竹" kvg:variant="true" kvg:position="top" kvg:radical="general"><g id="kvg:07b6c-g2" kvg:position="left"><path id="kvg:07b6c-s1" kvg:type="㇒" d="M29.25 11c.04.56.08 1.46-.08 2.27C28.21 18.06 22.74 28.57 15.25 35"/><path id="kvg:07b6c-s2" kvg:type="㇐b" d="M26.5 24.07c4.5.0 18.95-2.62 24-2.62"/><path id="kvg:07b6c-s3" kvg:type="㇔/㇑" d="M34.77 25.33c2.29 1.97 5.91 8.1 6.48 11.17"/></g><g id="kvg:07b6c-g3" kvg:position="right"><path id="kvg:07b6c-s4" kvg:type="㇒" d="M61.73 10.75c.03.49.14 1.27-.07 1.96-1.6 5.14-6.04 12.47-11.91 18.79"/><path id="kvg:07b6c-s5" kvg:type="㇐b" d="M60.25 21.82c5.4.0 25.19-2.64 31.25-2.64"/><path id="kvg:07b6c-s6" kvg:type="㇒/㇚" d="M75.99 22.75c.03.31.06.79-.05 1.23-.66 2.59-4.47 8.29-9.68 11.77"/></g></g><g id="kvg:07b6c-g4" kvg:element="成" kvg:position="bottom"><g id="kvg:07b6c-g5" kvg:element="𠂊" kvg:part="1" kvg:variant="true" kvg:original="勹"><g id="kvg:07b6c-g6" kvg:element="丿"><path id="kvg:07b6c-s7" kvg:type="㇒" d="M28.57 48.75c.56 1.33.87 1.94.82 3.6-.43 15.26-2.4 30.83-16.33 45.12"/></g></g><g id="kvg:07b6c-g7" kvg:element="戈" kvg:part="1"><g id="kvg:07b6c-g8" kvg:element="弋" kvg:part="1"><path id="kvg:07b6c-s8" kvg:type="㇐" d="M25.75 47.74c1.56.56 4.43.65 6 .56 8.94-.51 37.01-3.08 48.53-3.84 2.6-.17 4.17.27 5.47.55"/></g></g><g id="kvg:07b6c-g9" kvg:element="𠂊" kvg:part="2" kvg:variant="true" kvg:original="勹"><path id="kvg:07b6c-s9" kvg:type="㇆" d="M29.01 66.24c.99.26 1.65.24 2.58.1 5.93-.9 14.18-2.05 16.02-2.02 2.13.03 2.47 1.3 1.99 3.64C49.12 70.31 47.14 86.8 42.13 93c-2.99 3.7-5 .1-6.2-3.12"/></g><g id="kvg:07b6c-g10" kvg:element="戈" kvg:part="2"><path id="kvg:07b6c-s10" kvg:type="㇂" d="M56.25 34.5c1.61 1.33 2.31 1.69 2.62 4.56 2.32 21.88 11.88 46.69 32.4 55.81 6.33 2.82 5.43.57 4.63-5.31"/><g id="kvg:07b6c-g11" kvg:element="丿"><path id="kvg:07b6c-s11" kvg:type="㇒" d="M83.96 56.14c.1.98.21 2.53-.2 3.94-2.48 8.31-16.5 29.17-35.5 37.67"/></g><g id="kvg:07b6c-g12" kvg:element="弋" kvg:part="2"><g id="kvg:07b6c-g13" kvg:element="丶"><path id="kvg:07b6c-s12" kvg:type="㇔" d="M78.75 32c4.32 1.8 11.23 5.91 13.25 9"/></g></g></g></g></g></g><g id="kvg:StrokeNumbers_07b6c" style="font-size:8;fill:#808080"><text transform="matrix(1 0 0 1 20.50 10.50)">1</text><text transform="matrix(1 0 0 1 34.50 19.50)">2</text><text transform="matrix(1 0 0 1 28.50 32.50)">3</text><text transform="matrix(1 0 0 1 52.50 11.85)">4</text><text transform="matrix(1 0 0 1 67.50 18.50)">5</text><text transform="matrix(1 0 0 1 64.50 30.50)">6</text><text transform="matrix(1 0 0 1 20.75 57.50)">7</text><text transform="matrix(1 0 0 1 29.75 44.50)">8</text><text transform="matrix(1 0 0 1 34.50 62.50)">9</text><text transform="matrix(1 0 0 1 46.50 41.50)">10</text><text transform="matrix(1 0 0 1 73.50 57.50)">11</text><text transform="matrix(1 0 0 1 80.50 30.50)">12</text></g></svg>