<!DOCTYPE svg PUBLIC "-//W3C//DTD SVG 1.0//EN" "http://www.w3.org/TR/2001/REC-SVG-20010904/DTD/svg10.dtd" [
<!ATTLIST g
xmlns:kvg CDATA #FIXED "http://kanjivg.tagaini.net"
kvg:element CDATA #IMPLIED
kvg:variant CDATA #IMPLIED
kvg:partial CDATA #IMPLIED
kvg:original CDATA #IMPLIED
kvg:part CDATA #IMPLIED
kvg:number CDATA #IMPLIED
kvg:tradForm CDATA #IMPLIED
kvg:radicalForm CDATA #IMPLIED
kvg:position CDATA #IMPLIED
kvg:radical CDATA #IMPLIED
kvg:phon CDATA #IMPLIED >
<!ATTLIST path
xmlns:kvg CDATA #FIXED "http://kanjivg.tagaini.net"
kvg:type CDATA #IMPLIED >
]><svg xmlns="http://www.w3.org/2000/svg" width="109" height="109" viewBox="0 0 109 109"><g id="kvg:StrokePaths_07b8b" style="fill:none;stroke:#000000;stroke-width:3;stroke-linecap:round;stroke-linejoin:round;"><g id="kvg:07b8b" kvg:element="箋"><g id="kvg:07b8b-g1" kvg:element="竹" kvg:variant="true" kvg:position="top" kvg:radical="general"><g id="kvg:07b8b-g2" kvg:position="left"><path id="kvg:07b8b-s1" kvg:type="㇒" d="M30.5 9.75c.04.56.09 1.44-.08 2.25-1.02 4.74-6.89 15.13-14.92 21.5"/><path id="kvg:07b8b-s2" kvg:type="㇐b" d="M29.73 20.68c3.71.0 15.61-2.07 19.77-2.07"/><path id="kvg:07b8b-s3" kvg:type="㇔/㇑" d="M34.52 22.83c2.31 1.39 5.97 5.72 6.54 7.88"/></g><g id="kvg:07b8b-g3" kvg:position="right"><path id="kvg:07b8b-s4" kvg:type="㇒" d="M62.99 9.5c.03.37.12.97-.06 1.49-1.3 3.9-4.91 9.47-9.69 14.26"/><path id="kvg:07b8b-s5" kvg:type="㇐b" d="M63.5 18.51c4.6.0 20.96-2.68 26.13-2.68"/><path id="kvg:07b8b-s6" kvg:type="㇒/㇚" d="M75.5 20.75c.02.22.04.58-.03.9-.45 1.9-2.98 6.06-6.46 8.6"/></g></g><g id="kvg:07b8b-g4" kvg:element="戔" kvg:position="bottom"><g id="kvg:07b8b-g5" kvg:element="戈" kvg:position="top"><g id="kvg:07b8b-g6" kvg:element="弋" kvg:part="1"><path id="kvg:07b8b-s7" kvg:type="㇐" d="M23 42.88c1.12.49 3.17.54 4.29.49 8.72-.45 38.96-4.29 49.04-4.96 1.86-.12 2.98.23 3.92.48"/><path id="kvg:07b8b-s8" kvg:type="㇂" d="M47 32.5c1.69.6 2.46 1.46 2.82 2.75 2.95 10.81 13.72 21.85 34.4 25.88C90.85 62.43 91 59.75 90 55"/></g><g id="kvg:07b8b-g7" kvg:element="丿"><path id="kvg:07b8b-s9" kvg:type="㇒" d="M70.5 44.75c-.28.55-.56 1.12-1.22 1.62-5.81 4.38-21.23 10.69-45.53 15.88"/></g><g id="kvg:07b8b-g8" kvg:element="弋" kvg:part="2"><g id="kvg:07b8b-g9" kvg:element="丶"><path id="kvg:07b8b-s10" kvg:type="㇔" d="M54.5 28.75c3.09 1.27 8.04 4.18 9.48 6.36"/></g></g></g><g id="kvg:07b8b-g10" kvg:element="戈" kvg:position="bottom"><g id="kvg:07b8b-g11" kvg:element="弋" kvg:part="1"><path id="kvg:07b8b-s11" kvg:type="㇐" d="M23.04 77.63c1.18.55 3.35.71 4.52.55 10.32-1.4 40.46-6 51.09-6.76 1.96-.14 3.15.26 4.13.54"/><path id="kvg:07b8b-s12" kvg:type="㇂" d="M46.38 61.77c1.92.83 2.75 1.47 3.16 3.25C52.91 79.95 65.15 93.53 88.7 99.1c7.56 1.79 6.99-2.64 6.03-6.32"/></g><g id="kvg:07b8b-g12" kvg:element="丿"><path id="kvg:07b8b-s13" kvg:type="㇒" d="M74.26 78c.13.54.28 1.38-.26 2.15-3.21 4.54-21.23 15-46.45 21.1"/></g><g id="kvg:07b8b-g13" kvg:element="弋" kvg:part="2"><g id="kvg:07b8b-g14" kvg:element="丶"><path id="kvg:07b8b-s14" kvg:type="㇔" d="M57.5 60.5c3.59 1.25 9.33 4.11 11 6.25"/></g></g></g></g></g></g><g id="kvg:StrokeNumbers_07b8b" style="font-size:8;fill:#808080"><text transform="matrix(1 0 0 1 23.50 10.50)">1</text><text transform="matrix(1 0 0 1 35.50 16.50)">2</text><text transform="matrix(1 0 0 1 28.50 29.50)">3</text><text transform="matrix(1 0 0 1 54.50 9.50)">4</text><text transform="matrix(1 0 0 1 68.50 15.50)">5</text><text transform="matrix(1 0 0 1 66.50 25.50)">6</text><text transform="matrix(1 0 0 1 16.50 44.50)">7</text><text transform="matrix(1 0 0 1 41.50 38.50)">8</text><text transform="matrix(1 0 0 1 61.50 46.50)">9</text><text transform="matrix(1 0 0 1 52.50 37.50)">10</text><text transform="matrix(1 0 0 1 13.50 79.50)">11</text><text transform="matrix(1 0 0 1 35.50 67.30)">12</text><text transform="matrix(1 0 0 1 62.50 81.50)">13</text><text transform="matrix(1 0 0 1 54.50 67.50)">14</text></g></svg>