<svg xmlns="http://www.w3.org/2000/svg" width="109" height="109" viewBox="0 0 109 109"><g id="kvg:StrokePaths_07b97" style="fill:none;stroke:#000000;stroke-width:3;stroke-linecap:round;stroke-linejoin:round;"><g id="kvg:07b97" kvg:element="算"><g id="kvg:07b97-g1" kvg:element="竹" kvg:variant="true" kvg:position="top" kvg:radical="general"><g id="kvg:07b97-g2" kvg:position="left"><path id="kvg:07b97-s1" kvg:type="㇒" d="M30 9.75c.08 1.13.02 2.14-.45 3.18-2.17 4.95-6.43 11.45-12.3 17.07"/><path id="kvg:07b97-s2" kvg:type="㇐b" d="M29.73 19.79c3.05.0 11.49-1.94 16.96-2.72 1.38-.2 2.57-.32 3.44-.32"/><path id="kvg:07b97-s3" kvg:type="㇔/㇑" d="M36.38 21.62c1.48 1.38 3.81 5.69 4.18 7.84"/></g><g id="kvg:07b97-g3" kvg:position="right"><path id="kvg:07b97-s4" kvg:type="㇒" d="M62.13 7.88c.1.88-.01 2.24-.35 3.04-1.24 3.84-3.99 8.41-7.53 12.83"/><path id="kvg:07b97-s5" kvg:type="㇐b" d="M62.48 17.66c6.07.34 17.26-2.48 24.72-3.31 1.49-.17 2.76-.26 3.67-.26"/><path id="kvg:07b97-s6" kvg:type="㇒/㇚" d="M72.88 19.38c.05.59-.05 1.15-.29 1.67-.74 1.97-2.74 5.15-5.34 7.2"/></g></g><g id="kvg:07b97-g4" kvg:position="bottom"><g id="kvg:07b97-g5" kvg:element="目"><path id="kvg:07b97-s7" kvg:type="㇑" d="M34.21 33.98c.9.9 1.18 1.96 1.18 3.28.0 4.74-.16 19.76-.3 26.74-.03 1.56-.05 2.54-.05 2.63"/><path id="kvg:07b97-s8" kvg:type="㇕a" d="M36.51 35.65c7.57-.71 29.44-3.03 31.98-3.26 2.5-.22 3.76 1.11 3.76 3.29.0.99.0 14.98.02 25.06.0 1.25.0 2.44.01 3.53"/><path id="kvg:07b97-s9" kvg:type="㇐a" d="M36.57 44.92c7.68-.67 28.89-2.61 34.17-2.83"/><path id="kvg:07b97-s10" kvg:type="㇐a" d="M36 54.25c8.72-.75 25.9-2.08 34.37-2.43"/><path id="kvg:07b97-s11" kvg:type="㇐a" d="M36.66 63.57c8.09-.57 26-2.03 34.47-2.39"/></g><g id="kvg:07b97-g6" kvg:element="廾"><g id="kvg:07b97-g7" kvg:element="十" kvg:part="1"><path id="kvg:07b97-s12" kvg:type="㇐" d="M14.38 77.86c2.39.66 6.29.82 8.68.66 17.82-1.15 47.32-3.65 63.57-4.25 3.99-.15 6.38.32 8.38.65"/></g><g id="kvg:07b97-g8" kvg:element="丿"><path id="kvg:07b97-s13" kvg:type="㇒" d="M42.5 68.5c.62.88.93 2.13.93 3.3.0 11.82-4.31 23.07-20.93 29.08"/></g><g id="kvg:07b97-g9" kvg:element="十" kvg:part="2"><path id="kvg:07b97-s14" kvg:type="㇑" d="M65.75 66.5c.88.88 1.5 2.19 1.5 3.21-.01 1.88.06 17.92-.02 26.56-.02 1.93-.05 3.5-.09 4.49"/></g></g></g></g></g></svg>