<svg xmlns="http://www.w3.org/2000/svg" width="109" height="109" viewBox="0 0 109 109"><g id="kvg:StrokePaths_07baa" style="fill:none;stroke:#000000;stroke-width:3;stroke-linecap:round;stroke-linejoin:round;"><g id="kvg:07baa" kvg:element="箪"><g id="kvg:07baa-g1" kvg:element="竹" kvg:variant="true" kvg:position="top" kvg:radical="general"><g id="kvg:07baa-g2" kvg:position="left"><path id="kvg:07baa-s1" kvg:type="㇒" d="M32.5 9.75c.04.45.08 1.17-.08 1.82C31.46 15.41 25.99 23.84 18.5 29"/><path id="kvg:07baa-s2" kvg:type="㇐b" d="M29.73 19.79c3.71.0 17.61-3.29 21.77-3.29"/><path id="kvg:07baa-s3" kvg:type="㇔/㇑" d="M34.77 21.58c1.87 1.3 4.83 5.36 5.29 7.38"/></g><g id="kvg:07baa-g3" kvg:position="right"><path id="kvg:07baa-s4" kvg:type="㇒" d="M61.25 9c.02.36.1.94-.05 1.44-1.07 3.78-4.03 9.17-7.96 13.81"/><path id="kvg:07baa-s5" kvg:type="㇐b" d="M61.98 17.16c4.73.0 22.08-3.57 27.4-3.57"/><path id="kvg:07baa-s6" kvg:type="㇒/㇚" d="M74.27 17.75c.02.22.04.58-.04.9-.45 1.9-3 6.06-6.49 8.6"/></g></g><g id="kvg:07baa-g4" kvg:element="単" kvg:position="bottom"><g id="kvg:07baa-g5" kvg:element="⺍" kvg:original="つ" kvg:position="top"><path id="kvg:07baa-s7" kvg:type="㇔" d="M23.99 35.77c3.49 3.1 7.23 8.52 7.73 10.07"/><path id="kvg:07baa-s8" kvg:type="㇔" d="M45.52 32.9c1.8 1.82 6.11 6.6 6.83 9.56"/><path id="kvg:07baa-s9" kvg:type="㇒" d="M80.01 29.25c.46.59.95 1.93.19 2.88-1.7 2.12-6.2 8.37-10.41 12.02"/></g><g id="kvg:07baa-g6" kvg:element="甲" kvg:part="1" kvg:position="bottom"><g id="kvg:07baa-g7" kvg:element="日" kvg:partial="true"><path id="kvg:07baa-s10" kvg:type="㇑" d="M28.17 51.82c.34.4 1.34 2.18 1.53 2.68 1.52 4.14 2.44 11.9 3.4 19.58"/><path id="kvg:07baa-s11" kvg:type="㇕" d="M29.73 52.48c12.63-1.39 38.98-3.77 47.68-4.48 3.19-.26 5.12.56 5.03 2.3-.22 4.14-3.75 17.68-4.32 19.41"/><path id="kvg:07baa-s12" kvg:type="㇐" d="M32.88 61.16c3.79-.33 44.02-3.11 47.15-3.22"/><path id="kvg:07baa-s13" kvg:type="㇐" d="M33.68 72.31c10.99-1.32 32.5-3.03 44.53-3.84"/></g><g id="kvg:07baa-g8" kvg:element="一"><path id="kvg:07baa-s14" kvg:type="㇐" d="M17.98 83.57c1.38.56 3.92.69 5.31.56 9.21-.88 49.38-4.61 66.63-5.37 2.3-.1 3.69.27 4.84.54"/></g><g id="kvg:07baa-g9" kvg:element="甲" kvg:part="2"><g id="kvg:07baa-g10" kvg:element="丨"><path id="kvg:07baa-s15" kvg:type="㇑" d="M54.47 51.75c.58.3.94 1.14.95 2.17.04 5.2.17 45.9.19 47.6"/></g></g></g></g></g></g></svg>