<svg xmlns="http://www.w3.org/2000/svg" width="109" height="109" viewBox="0 0 109 109"><g id="kvg:StrokePaths_07bc1"><g id="kvg:07bc1" kvg:element="篁"><g id="kvg:07bc1-g1" kvg:element="竹" kvg:variant="true" kvg:position="top" kvg:radical="general"><g id="kvg:07bc1-g2" kvg:position="left"><path id="kvg:07bc1-s1" kvg:type="㇒" d="M31 9.75c.04.55.08 1.43-.08 2.22-.97 4.69-6.54 14.98-14.17 21.28"/><path id="kvg:07bc1-s2" kvg:type="㇐b" d="M29.23 21.07c4.32.0 19.67-1.85 24.52-1.85"/><path id="kvg:07bc1-s3" kvg:type="㇔/㇑" d="M34.25 22.25c2.38 1.81 6.16 7.44 6.75 10.25"/></g><g id="kvg:07bc1-g3" kvg:position="right"><path id="kvg:07bc1-s4" kvg:type="㇒" d="M64.24 9.5c.03.45.12 1.17-.06 1.8-1.34 4.71-5.04 11.42-9.94 17.2"/><path id="kvg:07bc1-s5" kvg:type="㇐b" d="M64.98 19.74c4.82.0 23.49-2.23 28.9-2.23"/><path id="kvg:07bc1-s6" kvg:type="㇒/㇚" d="M77.5 22c.03.26.06.67-.06 1.04C76.7 25.24 72.5 30.05 66.75 33"/></g></g><g id="kvg:07bc1-g4" kvg:element="皇" kvg:position="bottom"><g id="kvg:07bc1-g5" kvg:element="白" kvg:position="top"><g id="kvg:07bc1-g6" kvg:position="top"><path id="kvg:07bc1-s7" kvg:type="㇔" d="M50.07 30.75c.28.35.32.77.25 1.07-.39 1.78-3.76 6.04-6.83 8.43"/></g><g id="kvg:07bc1-g7" kvg:element="日" kvg:position="bottom"><path id="kvg:07bc1-s8" kvg:type="㇑" d="M32.93 40.48c.45.59.8 1.68.9 2.45.53 4.3 1.96 16.97 2.14 20.85"/><path id="kvg:07bc1-s9" kvg:type="㇕a" d="M34.72 42.1c10.72-1.06 35.47-2.4 39.42-2.78 1.9-.18 3.13 1.56 2.72 3.18-.93 3.6-1.96 12.85-3.81 19.74"/><path id="kvg:07bc1-s10" kvg:type="㇐a" d="M35.31 52.48c9.5-1.11 31.47-2.3 37.96-2.3"/><path id="kvg:07bc1-s11" kvg:type="㇐a" d="M37.57 61.97c11.05-.38 25.82-1.99 34.94-1.98"/></g></g><g id="kvg:07bc1-g8" kvg:element="王" kvg:original="玉" kvg:partial="true" kvg:position="bottom"><path id="kvg:07bc1-s12" kvg:type="㇐" d="M29.06 71.91c1.05.46 4.48.16 5.55.03 4.95-.62 30.28-1.9 42.2-2.38 1.62-.06 3.1.09 4.44.48"/><path id="kvg:07bc1-s13" kvg:type="㇑a" d="M53.56 72.39c.84 1.66.84 2.65.84 3.98.0 9.29-.05 6.43-.05 17.99"/><path id="kvg:07bc1-s14" kvg:type="㇐" d="M30.75 83.6c.94.58 4.03.35 4.99.25 9.98-1.01 24.63-1.99 36.36-3.02 1.17-.1 3.74-.23 5.49.27"/><path id="kvg:07bc1-s15" kvg:type="㇐" d="M17.48 95.67c.86.43 5.38.98 6.86.89 17.74-1.01 40.44-2.76 62.55-3.26 3.71-.09 5.35.45 6.92 1.2"/></g></g></g></g></svg>