<!DOCTYPE svg PUBLIC "-//W3C//DTD SVG 1.0//EN" "http://www.w3.org/TR/2001/REC-SVG-20010904/DTD/svg10.dtd" [
<!ATTLIST g
xmlns:kvg CDATA #FIXED "http://kanjivg.tagaini.net"
kvg:element CDATA #IMPLIED
kvg:variant CDATA #IMPLIED
kvg:partial CDATA #IMPLIED
kvg:original CDATA #IMPLIED
kvg:part CDATA #IMPLIED
kvg:number CDATA #IMPLIED
kvg:tradForm CDATA #IMPLIED
kvg:radicalForm CDATA #IMPLIED
kvg:position CDATA #IMPLIED
kvg:radical CDATA #IMPLIED
kvg:phon CDATA #IMPLIED >
<!ATTLIST path
xmlns:kvg CDATA #FIXED "http://kanjivg.tagaini.net"
kvg:type CDATA #IMPLIED >
]><svg xmlns="http://www.w3.org/2000/svg" width="109" height="109" viewBox="0 0 109 109"><g id="kvg:StrokePaths_07bc7" style="fill:none;stroke:#000000;stroke-width:3;stroke-linecap:round;stroke-linejoin:round;"><g id="kvg:07bc7" kvg:element="篇"><g id="kvg:07bc7-g1" kvg:element="竹" kvg:variant="true" kvg:position="top" kvg:radical="general"><g id="kvg:07bc7-g2" kvg:position="left"><path id="kvg:07bc7-s1" kvg:type="㇒" d="M29.5 11c.07 1.18-.08 2.21-.42 3.35-1.32 4.44-5.46 11.02-10.59 16.9"/><path id="kvg:07bc7-s2" kvg:type="㇐b" d="M30.48 20.38c2.89.0 10.5-1.6 16.03-2.31 1.93-.25 3.61-.16 4.74-.16"/><path id="kvg:07bc7-s3" kvg:type="㇔/㇑" d="M37.77 22.33c1.6 1.44 4.14 5.9 4.54 8.13"/></g><g id="kvg:07bc7-g3" kvg:position="right"><path id="kvg:07bc7-s4" kvg:type="㇒" d="M62.75 9.75c.11.93-.03 1.81-.42 2.65-1.4 4-4.31 9.59-8.33 14.1"/><path id="kvg:07bc7-s5" kvg:type="㇐b" d="M62.98 18.16c3.68.0 14.09-1.56 21.04-2.25 1.98-.2 3.68-.32 4.86-.32"/><path id="kvg:07bc7-s6" kvg:type="㇒/㇚" d="M74.27 20.5c.05.51-.04.99-.29 1.44-.8 1.77-2.61 4.19-5.98 6.81"/></g></g><g id="kvg:07bc7-g4" kvg:element="扁" kvg:variant="true" kvg:position="bottom"><g id="kvg:07bc7-g5" kvg:element="戸" kvg:position="tare"><path id="kvg:07bc7-s7" kvg:type="㇒/㇐" d="M76.72 30.5c-1.35 1.25-2.57 1.74-4.02 2.03-11.07 2.22-22.95 3.6-39.45 5.26"/><path id="kvg:07bc7-s8" kvg:type="㇒" d="M30.69 36.7c.93.93 1.12 2.25 1.06 4.22-.8 24.67-2.92 41-17.16 54.8"/><path id="kvg:07bc7-s9" kvg:type="㇕" d="M32.25 47.58c12.77-1.49 35.27-4.31 44.75-5.07 3.02-.24 5.42.26 4.08 3.73-1.12 2.9-1.33 3.64-2.48 7.76"/><path id="kvg:07bc7-s10" kvg:type="㇐" d="M31.43 59.81c12.7-1.31 26.95-2.69 42.7-4.17 2.9-.27 5.51-.42 7.63-.49"/></g><g id="kvg:07bc7-g6" kvg:element="冊" kvg:position="tarec"><g id="kvg:07bc7-g7" kvg:element="冂"><path id="kvg:07bc7-s11" kvg:type="㇑" d="M33.74 68.5c1 1 1.34 2.63 1.41 3.88.3 5.81.77 15.58 1.14 22.26.12 2.21.23 4.09.33 5.37"/><path id="kvg:07bc7-s12" kvg:type="㇆a" d="M35.78 70.48c5.76-.39 39.02-4.22 45.07-4.96 3.37-.41 4.92 1.19 4.6 4.37-.7 7-3.55 21.75-4.61 25.27-1.57 5.25-3.86 1.99-5.82.63"/></g><g id="kvg:07bc7-g8" kvg:element="廾" kvg:variant="true"><g id="kvg:07bc7-g9" kvg:element="十" kvg:part="1" kvg:variant="true"><path id="kvg:07bc7-s13" kvg:type="㇐" d="M36.71 83.2c10.79-1.08 29.41-3.33 46.1-4.13"/></g><g id="kvg:07bc7-g10" kvg:element="丿" kvg:variant="true"><path id="kvg:07bc7-s14" kvg:type="㇑" d="M49.65 72.05c.9.9 1.14 2.07 1.14 3.17.0 1.53.04 10.2.06 16.28.01 1.96.01 3.66.01 4.76"/></g><g id="kvg:07bc7-g11" kvg:element="十" kvg:part="2" kvg:variant="true"><path id="kvg:07bc7-s15" kvg:type="㇑" d="M65 70.13c.93.93.89 1.62.89 2.92.0 2.51.04 10.96.05 16.83.01 2.19.01 4.01.01 5.04"/></g></g></g></g></g></g><g id="kvg:StrokeNumbers_07bc7" style="font-size:8;fill:#808080"><text transform="matrix(1 0 0 1 21.50 10.50)">1</text><text transform="matrix(1 0 0 1 33.50 16.50)">2</text><text transform="matrix(1 0 0 1 31.50 29.50)">3</text><text transform="matrix(1 0 0 1 54.50 9.50)">4</text><text transform="matrix(1 0 0 1 67.50 14.50)">5</text><text transform="matrix(1 0 0 1 64.50 26.50)">6</text><text transform="matrix(1 0 0 1 61.50 34.25)">7</text><text transform="matrix(1 0 0 1 24.75 40.50)">8</text><text transform="matrix(1 0 0 1 35.00 45.75)">9</text><text transform="matrix(1 0 0 1 34.25 57.25)">10</text><text transform="matrix(1 0 0 1 26.50 88.50)">11</text><text transform="matrix(1 0 0 1 37.50 67.50)">12</text><text transform="matrix(1 0 0 1 38.50 80.23)">13</text><text transform="matrix(1 0 0 1 52.50 77.15)">14</text><text transform="matrix(1 0 0 1 68.50 75.50)">15</text></g></svg>