<svg xmlns="http://www.w3.org/2000/svg" width="109" height="109" viewBox="0 0 109 109"><g id="kvg:StrokePaths_07bc9"><g id="kvg:07bc9" kvg:element="築"><g id="kvg:07bc9-g1" kvg:element="筑" kvg:position="top"><g id="kvg:07bc9-g2" kvg:element="竹" kvg:variant="true" kvg:position="top" kvg:radical="general" kvg:phon="竹"><g id="kvg:07bc9-g3" kvg:position="left"><path id="kvg:07bc9-s1" kvg:type="㇒" d="M29.28 12.75c.06 1.18-.01 2.05-.41 3.17-1.8 5.01-5.76 12.42-11.29 18.92"/><path id="kvg:07bc9-s2" kvg:type="㇐b" d="M28.29 23.13c6.46-.25 11.08-1.63 15.71-2.85 1.26-.34 2.39-.06 3.15-.06"/><path id="kvg:07bc9-s3" kvg:type="㇔/㇑" d="M34.88 25.38c1.71 1.34 4.41 5.53 4.83 7.62"/></g><g id="kvg:07bc9-g4" kvg:position="right"><path id="kvg:07bc9-s4" kvg:type="㇒" d="M61.35 10.5c.06 1.1-.05 1.97-.37 3.03-1.4 4.67-4.39 10.03-8.54 15.62"/><path id="kvg:07bc9-s5" kvg:type="㇐b" d="M61.67 19.81c3.38.0 13.58-1.81 20.84-3.8 1.69-.46 3.19-.14 4.15-.14"/><path id="kvg:07bc9-s6" kvg:type="㇒/㇚" d="M73.44 21.44c.07.71-.11 1.36-.53 1.95-1.24 2.19-4.14 5.47-8.21 7.64"/></g></g><g id="kvg:07bc9-g5" kvg:position="bottom"><g id="kvg:07bc9-g6" kvg:element="工" kvg:position="left"><path id="kvg:07bc9-s7" kvg:type="㇐" d="M21.56 42.32c1.1.56 2.95.27 4.08.18 4.44-.37 12.15-1.38 16.37-1.95 1.18-.16 2.74-.43 4.11-.41"/><path id="kvg:07bc9-s8" kvg:type="㇑a" d="M32.94 42.76c.71.71 1.02 1.91 1.02 2.44.0 3.55-.11 6.17-.11 10.01"/><path id="kvg:07bc9-s9" kvg:type="㇀/㇐" d="M20.28 60.71c.65.69 1.96 1.06 3.93.15 5.46-2.52 15.27-6.85 20.73-9.37"/></g><g id="kvg:07bc9-g7" kvg:element="凡" kvg:position="right"><g id="kvg:07bc9-g8" kvg:element="几"><g id="kvg:07bc9-g9" kvg:element="丿"><path id="kvg:07bc9-s10" kvg:type="㇒" d="M56.81 36.06c.25.62.62 1.1.6 1.88-.29 8.94-2.16 16.56-7.06 20.57"/></g><path id="kvg:07bc9-s11" kvg:type="㇈b" d="M58.63 37.51c3.49-.39 12.05-1.92 13.86-2.37 1.8-.45 3.62.43 3.3 2.7-.54 3.91-.86 8.42-.86 10.07.0 6.59 1.2 8.02 8.15 8.02 8.23.0 7.86-1.8 7.86-6.46"/></g><g id="kvg:07bc9-g10" kvg:element="丶"><path id="kvg:07bc9-s12" kvg:type="㇔" d="M59.88 44.38c4.41 2.36 6.94 4.87 8.3 7.08"/></g></g></g></g><g id="kvg:07bc9-g11" kvg:element="木" kvg:position="bottom"><path id="kvg:07bc9-s13" kvg:type="㇐" d="M18.25 73c3.25.62 6.34.51 9.76.07 13.24-1.7 38.24-4.82 55.75-5.57 2.57-.11 5.47-.26 7.99.25"/><path id="kvg:07bc9-s14" kvg:type="㇑" d="M54 60.25c.75.75 1.25 2.25 1.25 3.5.0.83.08 19.71-.11 30.24-.04 2.51-.09 4.55-.14 5.76"/><path id="kvg:07bc9-s15" kvg:type="㇒" d="M51.75 70.75c0 1.25-.56 2-1.52 3.19C43.06 82.81 30.5 93.38 18.5 98.25"/><path id="kvg:07bc9-s16" kvg:type="㇏" d="M56 71c3.77 2.7 18.14 13.77 25.76 19.29 2.51 1.82 5.14 3.3 7.74 4.96"/></g></g></g></svg>