<svg xmlns="http://www.w3.org/2000/svg" width="109" height="109" viewBox="0 0 109 109"><g id="kvg:StrokePaths_07be6"><g id="kvg:07be6" kvg:element="篦"><g id="kvg:07be6-g1" kvg:element="竹" kvg:variant="true" kvg:position="top" kvg:radical="general"><g id="kvg:07be6-g2" kvg:position="left"><path id="kvg:07be6-s1" kvg:type="㇒" d="M28.75 9.75c.04.53.09 1.37-.09 2.13C27.59 16.37 21.43 26.22 13 32.25"/><path id="kvg:07be6-s2" kvg:type="㇐b" d="M27.73 19.57c3.89.0 18.4-1.85 22.77-1.85"/><path id="kvg:07be6-s3" kvg:type="㇔/㇑" d="M33.5 22.25c1.52 1.67 3.93 6.87 4.31 9.47"/></g><g id="kvg:07be6-g3" kvg:position="right"><path id="kvg:07be6-s4" kvg:type="㇒" d="M61.2 9.16c.03.38.11.99-.05 1.52-1.2 3.99-4.51 9.67-8.9 14.57"/><path id="kvg:07be6-s5" kvg:type="㇐b" d="M61.23 18.71c5.45.0 25.4-2.54 31.52-2.54"/><path id="kvg:07be6-s6" kvg:type="㇒/㇚" d="M76.78 20.89c.03.22.07.57-.07.89-.82 1.87-5.52 5.97-11.96 8.48"/></g></g><g id="kvg:07be6-g4" kvg:element="𣬉" kvg:position="bottom"><g id="kvg:07be6-g5" kvg:element="囟"><path id="kvg:07be6-s7" kvg:type="㇒" d="M46.78 27.14c.02.22.04.57-.04.88-.49 1.86-3.32 5.94-7.18 8.44"/><path id="kvg:07be6-s8" kvg:type="㇑" d="M22.99 36.1c.24.37.64 1.26.77 1.72 1.07 3.82 2.47 13.77 3.13 20.88"/><path id="kvg:07be6-s9" kvg:type="㇕" d="M23.88 37.91c11.87-1.16 47.7-2.58 55.46-3.85 2.85-.47 4.31 1.18 4.16 2.84-.54 6.06-1.36 9.06-2.66 19.18"/><g id="kvg:07be6-g6" kvg:element="乂"><g id="kvg:07be6-g7" kvg:element="丿"><path id="kvg:07be6-s10" kvg:type="㇒" d="M61.74 38.39c.06.35.13.9-.12 1.4-1.53 2.96-10.3 9.45-22.31 13.42"/></g><path id="kvg:07be6-s11" kvg:type="㇏" d="M39.77 42.08c8.4 1.61 21.69 6.63 23.79 9.13"/></g></g><path id="kvg:07be6-s12" kvg:type="㇐" d="M26.93 57.57C34.41 56.93 69 55 80.84 54.68"/><g id="kvg:07be6-g8" kvg:element="比"><g id="kvg:07be6-g9" kvg:position="left"><path id="kvg:07be6-s13" kvg:type="㇐b" d="M27.88 76.38c7.31-.38 13.67-1.72 20.04-2.35 1.87-.19 3.06-.18 4.02-.07"/><path id="kvg:07be6-s14" kvg:type="㇙" d="M26.5 64.66c1 .63 1.37 1.78 1.37 2.64.0 2.34-.32 26.49-.32 30.13.0 3.06-.16 4.36 4.03 1.75 5.92-3.68 11.67-6.68 17.06-9.21"/></g><g id="kvg:07be6-g10" kvg:element="匕" kvg:position="right"><path id="kvg:07be6-s15" kvg:type="㇒" d="M82.21 65.94c.26.63.54 1.94-.28 2.79C80 70.75 68.96 77.46 61.12 80.89"/><path id="kvg:07be6-s16" kvg:type="㇟" d="M57.78 61.5c1.18.58 1.69 2.59 1.69 3.33.0 1.94-.27 23.04-.27 25.32.0 6.85 2.79 9.18 16.77 9.18 14.53.0 16.04-3.08 16.04-10.97"/></g></g></g></g></g></svg>