<svg xmlns="http://www.w3.org/2000/svg" width="109" height="109" viewBox="0 0 109 109"><g id="kvg:StrokePaths_07be4"><g id="kvg:07be4" kvg:element="篤"><g id="kvg:07be4-g1" kvg:element="竹" kvg:variant="true" kvg:position="top" kvg:radical="general" kvg:phon="竹"><g id="kvg:07be4-g2" kvg:position="left"><path id="kvg:07be4-s1" kvg:type="㇒" d="M31.75 13.25c.03.46.01 1.27-.32 1.87C29 19.5 24.06 26.46 17.5 31.75"/><path id="kvg:07be4-s2" kvg:type="㇐b" d="M29.73 23.29c2.78.0 9.12-1.56 14.26-2.35 1.72-.26 3.22-.44 4.26-.44"/><path id="kvg:07be4-s3" kvg:type="㇔/㇑" d="M36.27 24.83c1.34 1.3 3.46 5.36 3.79 7.38"/></g><g id="kvg:07be4-g3" kvg:position="right"><path id="kvg:07be4-s4" kvg:type="㇒" d="M63.24 10.5c.03.41.12 1.07-.06 1.66C61.81 16.49 58.02 22.67 53 28"/><path id="kvg:07be4-s5" kvg:type="㇐b" d="M64.48 19.16c3.77.0 12.64-1.28 19.52-2.1 1.77-.21 3.29.03 4.37.03"/><path id="kvg:07be4-s6" kvg:type="㇒/㇚" d="M73.28 21.5c.06.8.02 1.25-.37 1.96-.83 1.5-2.44 3.38-4.05 5.25"/></g></g><g id="kvg:07be4-g4" kvg:element="馬" kvg:position="bottom"><path id="kvg:07be4-s7" kvg:type="㇑" d="M34.29 37.07c.69.69 1.02 1.55 1.02 2.49.0 3.96.03 17.19.03 26.81.0 1.91-.06 3.58-.09 4.87"/><path id="kvg:07be4-s8" kvg:type="㇐b" d="M36.14 38.34c8.28-.73 25.25-2.46 32.01-3.23 2.06-.23 4.55-.67 6.6-.27"/><path id="kvg:07be4-s9" kvg:type="㇑a" d="M52.82 38.3c.75.75 1.17 1.7 1.17 2.86.0 4.78-.11 18.74-.11 26.46"/><path id="kvg:07be4-s10" kvg:type="㇐b" d="M36.49 49.2c7.92-.81 23.43-2.3 29.89-3.01 2.06-.23 4.54-.66 6.6-.26"/><path id="kvg:07be4-s11" kvg:type="㇐b" d="M36.69 59.28c8.09-.83 23.92-1.97 30.07-2.58 2.01-.2 4.16-.59 6.17-.2"/><path id="kvg:07be4-s12" kvg:type="㇆a" d="M36.14 70.45c9.28-1.08 35.24-3.95 49.83-4.72 4.53-.24 5.97 1.99 5.27 4.91-2.11 8.87-5.86 17.12-9.32 23.08-4.41 7.61-7.92 3.16-10.74.71"/><g id="kvg:07be4-g5" kvg:element="灬" kvg:variant="true" kvg:original="火"><path id="kvg:07be4-s13" kvg:type="㇔" d="M22.07 81.08c-.2 5.17-1.2 10.17-2.68 14.71"/><path id="kvg:07be4-s14" kvg:type="㇔" d="M35.38 79.6c2.18 2.29 4.25 8.6 4.79 12.17"/><path id="kvg:07be4-s15" kvg:type="㇔" d="M49.8 77.79c1.56 2.01 4.2 7.71 4.91 11.38"/><path id="kvg:07be4-s16" kvg:type="㇔" d="M63.52 73.72c2.42 1.98 6.25 8.14 6.86 11.22"/></g></g></g></g></svg>