<svg xmlns="http://www.w3.org/2000/svg" width="109" height="109" viewBox="0 0 109 109"><g id="kvg:StrokePaths_07bf7" style="fill:none;stroke:#000000;stroke-width:3;stroke-linecap:round;stroke-linejoin:round;"><g id="kvg:07bf7" kvg:element="篷"><g id="kvg:07bf7-g1" kvg:element="竹" kvg:variant="true" kvg:position="top" kvg:radical="general"><g id="kvg:07bf7-g2" kvg:position="left"><path id="kvg:07bf7-s1" kvg:type="㇒" d="M27.5 9.75c.04.48.08 1.23-.07 1.92C26.54 15.7 21.46 24.57 14.5 30"/><path id="kvg:07bf7-s2" kvg:type="㇐b" d="M27.48 19.42c4.27.0 19.48-2.55 24.27-2.55"/><path id="kvg:07bf7-s3" kvg:type="㇔/㇑" d="M33.75 21c2.38 1.85 6.16 7.62 6.75 10.5"/></g><g id="kvg:07bf7-g3" kvg:position="right"><path id="kvg:07bf7-s4" kvg:type="㇒" d="M62.48 8.25c.03.47.15 1.21-.07 1.87C60.78 15.01 56.25 21.99 50.25 28"/><path id="kvg:07bf7-s5" kvg:type="㇐b" d="M60.98 17.69c5.27.0 24.6-2.98 30.52-2.98"/><path id="kvg:07bf7-s6" kvg:type="㇒/㇚" d="M78.76 19.05c.03.22.07.56-.06.87-.77 1.83-5.17 5.86-11.2 8.33"/></g></g><g id="kvg:07bf7-g4" kvg:element="逢" kvg:position="bottom"><g id="kvg:07bf7-g5" kvg:element="夆" kvg:position="nyoc"><g id="kvg:07bf7-g6" kvg:element="夂"><path id="kvg:07bf7-s7" kvg:type="㇒" d="M55 29.5c.05.41.18 1.07-.09 1.65-1.74 3.67-7.54 10.52-15.94 15.78"/><path id="kvg:07bf7-s8" kvg:type="㇇" d="M56.16 34.13c.29.02 2.05.39 2.87.32 2.68-.21 12.21-1.62 16.04-2.29 2.63-.46 2.37 1.52 1.7 2.76C73.09 41.7 54.9 53.76 38.5 57.25"/><path id="kvg:07bf7-s9" kvg:type="㇏" d="M52.73 38.06c3.85-.02 26.67 12.55 32.96 15.09 1.87.76 3.39 1.12 5.21 1.35"/></g><g id="kvg:07bf7-g7" kvg:element="丰"><g id="kvg:07bf7-g8" kvg:element="三"><g id="kvg:07bf7-g9" kvg:element="一" kvg:position="top"><path id="kvg:07bf7-s10" kvg:type="㇐" d="M47.27 60.26c.86.23 2.43.28 3.29.23 9.92-.63 19.25-1.39 27.52-2 1.42-.1 2.29.11 3 .22"/></g><g id="kvg:07bf7-g10" kvg:position="bottom"><g id="kvg:07bf7-g11" kvg:element="一"><path id="kvg:07bf7-s11" kvg:type="㇐" d="M46.36 68.82c.9.27 3.18.34 4.08.27 10.47-.75 19.4-1.77 28.14-2.49 1.5-.13 2.41.13 3.17.26"/></g><g id="kvg:07bf7-g12" kvg:element="一"><path id="kvg:07bf7-s12" kvg:type="㇐" d="M40.08 77.63c1.63.41 4.62.45 6.26.41 10.29-.26 24.84-1.88 38.29-2.56 2.71-.14 4.35.19 5.71.4"/></g></g></g><g id="kvg:07bf7-g13" kvg:element="丨"><path id="kvg:07bf7-s13" kvg:type="㇑" d="M63.81 53c.38.42 1.26 2.4 1.26 3.99.0 8.81-.15 20.96-.15 32.26"/></g></g></g><g id="kvg:07bf7-g14" kvg:element="辶" kvg:position="nyo"><path id="kvg:07bf7-s14" kvg:type="㇔" d="M20.52 33.12c3.52 1.17 9.1 4.81 9.98 6.62"/><path id="kvg:07bf7-s15" kvg:type="㇔" d="M18.02 46.88c3.24 1.12 8.38 4.62 9.19 6.36"/><path id="kvg:07bf7-s16" kvg:type="㇋" d="M14.89 62.71c2.41.54 3.93-.01 4.94-.31 1.02-.3 6.46-3.44 7.97-4 1.51-.55 3.99.58 3.07 1.87-.92 1.29-5.31 5.95-5.99 7.01s-2.04 2.13-.35 3.35c1.7 1.21 4.08 5.52 4.98 6.62.9 1.1 1 2.08-.45 3.23-1.45 1.14-7.53 6.42-9.05 6.97"/><path id="kvg:07bf7-s17" kvg:type="㇏" d="M13.99 88.98c2.91-.31 8.68-.76 13.08-.44 6.44.47 29.62 4.95 33.9 5.78 11.62 2.24 20.58 3.4 29.3 2.31"/></g></g></g></g></svg>