<svg xmlns="http://www.w3.org/2000/svg" width="109" height="109" viewBox="0 0 109 109"><g id="kvg:StrokePaths_07bf3" style="fill:none;stroke:#000000;stroke-width:3;stroke-linecap:round;stroke-linejoin:round;"><g id="kvg:07bf3" kvg:element="篳"><g id="kvg:07bf3-g1" kvg:element="竹" kvg:variant="true" kvg:position="top" kvg:radical="general"><g id="kvg:07bf3-g2" kvg:position="left"><path id="kvg:07bf3-s1" kvg:type="㇒" d="M31.75 9.25c.04.52.09 1.35-.08 2.11-1.02 4.44-6.39 13.18-14.41 19.14"/><path id="kvg:07bf3-s2" kvg:type="㇐b" d="M30 18.7c4.03.0 16.97-1.91 21.5-1.91"/><path id="kvg:07bf3-s3" kvg:type="㇔/㇑" d="M37.27 20.83c1.87 1.17 4.83 4.81 5.29 6.63"/></g><g id="kvg:07bf3-g3" kvg:position="right"><path id="kvg:07bf3-s4" kvg:type="㇒" d="M62.52 8.25c.03.42.11 1.09-.05 1.68C61.26 14.32 57.92 20.6 53.5 26"/><path id="kvg:07bf3-s5" kvg:type="㇐b" d="M63.23 16.52c5.01.0 23.89-3.08 29.52-3.08"/><path id="kvg:07bf3-s6" kvg:type="㇒/㇚" d="M77 19c.02.17.05.43-.04.66-.56 1.4-3.79 4.46-8.2 6.34"/></g></g><g id="kvg:07bf3-g4" kvg:element="畢" kvg:position="bottom"><g id="kvg:07bf3-g5" kvg:element="田" kvg:position="top"><path id="kvg:07bf3-s7" kvg:type="㇑" d="M28.99 32.27c.29.33.3.56.46.98 1.32 3.43 2.56 12.58 3.37 18.96"/><path id="kvg:07bf3-s8" kvg:type="㇕a" d="M30.5 33c13.21-1.15 36.77-3.2 46.64-4.14 3.62-.35 4.65 1.56 4.46 3.92-.28 3.6-2.14 12.49-3.68 18.45"/><path id="kvg:07bf3-s9" kvg:type="㇑a" d="M54.48 30.97c.51 4.81.25 15.33.25 18.54"/><path id="kvg:07bf3-s10" kvg:type="㇐a" d="M32.09 41.89c4.42-.29 44.26-2.9 47.92-3.07"/><path id="kvg:07bf3-s11" kvg:type="㇐a" d="M33.56 51.24c11.04-.72 31.45-1.78 44.79-2.35"/></g><g id="kvg:07bf3-g6" kvg:position="bottom"><path id="kvg:07bf3-s12" kvg:type="㇐" d="M15.5 63.17c1.49.46 4.23.58 5.72.46 15.88-1.26 53.19-4 69.82-3.99 2.48.0 3.97.22 5.22.45"/><path id="kvg:07bf3-s13" kvg:type="㇑" d="M34.65 56c.81.92 1.08 1.2 1.16 1.76.81 5.29 1.3 10.31 1.53 12.24"/><path id="kvg:07bf3-s14" kvg:type="㇑" d="M72.6 54.5c.41.82.93 1.74.65 2.78-.97 3.65-1.21 5.76-2.43 10.97"/><path id="kvg:07bf3-s15" kvg:type="㇐" d="M27.75 74.38c1.5.31 3.25.42 4.74.31 14.94-1.01 28.82-2.47 45.02-3.07 2.48-.09 3.99.15 5.24.31"/><path id="kvg:07bf3-s16" kvg:type="㇐" d="M20.25 85.14c1.58.25 3.43.34 5 .25 15.76-.83 43.89-2.31 60.97-2.81 2.63-.08 4.21.12 5.53.25"/><g id="kvg:07bf3-g7" kvg:element="丨"><path id="kvg:07bf3-s17" kvg:type="㇑" d="M53.4 52.75c.66.38 1.06 1.72 1.19 2.48.13.76.0 41.25-.13 46.02"/></g></g></g></g></g></svg>