<svg xmlns="http://www.w3.org/2000/svg" width="109" height="109" viewBox="0 0 109 109"><g id="kvg:StrokePaths_07c12" style="fill:none;stroke:#000000;stroke-width:3;stroke-linecap:round;stroke-linejoin:round;"><g id="kvg:07c12" kvg:element="簒"><g id="kvg:07c12-g1" kvg:element="算" kvg:variant="true" kvg:position="top"><g id="kvg:07c12-g2" kvg:element="竹" kvg:variant="true" kvg:position="top" kvg:radical="general"><g id="kvg:07c12-g3" kvg:position="left"><path id="kvg:07c12-s1" kvg:type="㇒" d="M28 10.56c.03.49.07 1.26-.07 1.96-.85 4.13-5.74 13.19-12.43 18.74"/><path id="kvg:07c12-s2" kvg:type="㇐b" d="M27.23 20.1c4.32.0 18.17-3.57 23.02-3.57"/><path id="kvg:07c12-s3" kvg:type="㇔/㇑" d="M34.27 20.79c2.04 1.55 5.28 6.38 5.79 8.8"/></g><g id="kvg:07c12-g4" kvg:position="right"><path id="kvg:07c12-s4" kvg:type="㇒" d="M60.75 10c.03.4.11 1.04-.05 1.59-1.24 4.18-4.66 10.14-9.19 15.27"/><path id="kvg:07c12-s5" kvg:type="㇐b" d="M59.48 18.61c4.73.0 24.58-2.83 29.9-2.83"/><path id="kvg:07c12-s6" kvg:type="㇒/㇚" d="M71.78 19.73c.01.22.03.57-.03.88-.36 1.86-2.42 5.94-5.25 8.44"/></g></g><g id="kvg:07c12-g5" kvg:position="bottom"><g id="kvg:07c12-g6" kvg:element="目"><path id="kvg:07c12-s7" kvg:type="㇑" d="M31.71 32.86c.29.53.54 1.21.93 2.08.27.59 2.65 19.61 2.65 19.92"/><path id="kvg:07c12-s8" kvg:type="㇕a" d="M34.11 34.17c3.29-.17 33.38-2.46 36.37-2.64 2.5-.15 3.51 1.23 3.26 3.74-.29 2.91-1 10.05-2.47 18.25"/><path id="kvg:07c12-s9" kvg:type="㇐a" d="M34.57 40.25c6.49-.29 32.89-2.36 38.17-2.51"/><path id="kvg:07c12-s10" kvg:type="㇐a" d="M35 46.42c8.72-.51 28.9-2 37.37-2.24"/><path id="kvg:07c12-s11" kvg:type="㇐a" d="M34.91 53.15c6.54-.19 28.25-1.62 36.72-1.86"/></g><g id="kvg:07c12-g7" kvg:element="廾" kvg:variant="true"><g id="kvg:07c12-g8" kvg:element="大"><g id="kvg:07c12-g9" kvg:element="十" kvg:part="1" kvg:partial="true"><path id="kvg:07c12-s12" kvg:type="㇐" d="M14.62 62.99c1.29.59 4.72.67 7.46.52 13.66-.76 45.81-3.13 62.43-3.98 2.86-.15 5.15-.08 7.73.39"/></g><g id="kvg:07c12-g10" kvg:element="丿"><path id="kvg:07c12-s13" kvg:type="㇒" d="M45 55.3c.24 1.15-.25 2.71-.72 3.43C36.25 71 24.5 80.5 13.25 86.44"/></g><path id="kvg:07c12-s14" kvg:type="㇏" d="M63.75 60.92c5.87 5.17 19.55 18.34 25.41 21.8 1.99 1.17 2.69 1.35 3.59 1.46"/></g></g></g></g><g id="kvg:07c12-g11" kvg:position="bottom"><g id="kvg:07c12-g12" kvg:element="丿"><path id="kvg:07c12-s15" kvg:type="㇒" d="M46.31 70c.06.55.21 1.57-.12 2.2-3.94 7.55-11.44 14.55-21.69 21.09"/></g><g id="kvg:07c12-g13" kvg:element="厶"><path id="kvg:07c12-s16" kvg:type="㇜" d="M57.04 70.5c.44.48.28 2.14-.06 2.72-4.98 8.53-9.06 14.77-15.14 20.2-1.92 1.72-1.9 3.24.89 2.72 7.52-1.39 20.27-4.89 30.59-6.92"/><path id="kvg:07c12-s17" kvg:type="㇔" d="M66.37 80.54c4.47 3.25 11.55 13.37 12.67 18.43"/></g></g></g></g></svg>