<svg xmlns="http://www.w3.org/2000/svg" width="109" height="109" viewBox="0 0 109 109"><g id="kvg:StrokePaths_07c1e" style="fill:none;stroke:#000000;stroke-width:3;stroke-linecap:round;stroke-linejoin:round;"><g id="kvg:07c1e" kvg:element="簞"><g id="kvg:07c1e-g1" kvg:element="竹" kvg:variant="true" kvg:position="top" kvg:radical="general"><g id="kvg:07c1e-g2" kvg:position="left"><path id="kvg:07c1e-s1" kvg:type="㇒" d="M32.5 9.75c.04.45.08 1.17-.08 1.82C31.46 15.41 25.99 23.84 18.5 29"/><path id="kvg:07c1e-s2" kvg:type="㇐b" d="M29.73 19.79c3.71.0 17.61-3.29 21.77-3.29"/><path id="kvg:07c1e-s3" kvg:type="㇔" d="M34.77 21.58c1.87 1.3 4.83 5.36 5.29 7.38"/></g><g id="kvg:07c1e-g3" kvg:position="right"><path id="kvg:07c1e-s4" kvg:type="㇒" d="M61.25 9c.02.36.1.94-.05 1.44-1.07 3.78-4.03 9.17-7.96 13.81"/><path id="kvg:07c1e-s5" kvg:type="㇐b" d="M61.98 17.16c4.73.0 22.08-3.57 27.4-3.57"/><path id="kvg:07c1e-s6" kvg:type="㇒" d="M74.27 17.75c.02.22.04.58-.04.9-.45 1.9-3 6.06-6.49 8.6"/></g></g><g id="kvg:07c1e-g4" kvg:element="單" kvg:variant="true" kvg:original="単" kvg:position="bottom"><g id="kvg:07c1e-g5" kvg:element="口" kvg:position="top"><path id="kvg:07c1e-s7" kvg:type="㇔" d="M24.14 33.87c.4.23.85.42.98.73 1.13 2.7 2.56 8.38 3.69 12.35"/><path id="kvg:07c1e-s8" kvg:type="㇕" d="M26.6 35.46c7.31-.57 13.59-1.71 20.33-2.29 1.69-.14 2.71.67 2.47 1.32-1.01 2.73-1.38 4.34-3.17 8.88"/><path id="kvg:07c1e-s9" kvg:type="㇐" d="M29.63 45.54c5.45-.35 11.32-1.29 18.8-1.83"/></g><g id="kvg:07c1e-g6" kvg:element="口" kvg:position="top"><path id="kvg:07c1e-s10" kvg:type="㇑" d="M56.64 32.51c.35.25.75.45.86.78.99 2.88 2.75 7.22 3.75 11.45"/><path id="kvg:07c1e-s11" kvg:type="㇕" d="M57.81 33.51c6.44-.61 17.48-1.78 23.42-2.4 1.49-.15 2.39.71 2.18 1.41-.89 2.91-2.16 4.6-3.74 9.44"/><path id="kvg:07c1e-s12" kvg:type="㇐" d="M60.97 43.22c4.8-.37 14.1-.67 20.69-1.24"/></g><g id="kvg:07c1e-g7" kvg:element="甲" kvg:part="1" kvg:position="bottom"><g id="kvg:07c1e-g8" kvg:element="日" kvg:partial="true"><path id="kvg:07c1e-s13" kvg:type="㇑" d="M28.17 51.82c.34.4 1.34 2.18 1.53 2.68 1.52 4.14 2.44 11.9 3.4 19.58"/><path id="kvg:07c1e-s14" kvg:type="㇕" d="M29.73 52.48c12.63-1.39 38.98-3.77 47.68-4.48 3.19-.26 5.12.56 5.03 2.3-.22 4.14-3.75 17.68-4.32 19.41"/><path id="kvg:07c1e-s15" kvg:type="㇐" d="M32.88 61.16c3.79-.33 44.02-3.11 47.15-3.22"/><path id="kvg:07c1e-s16" kvg:type="㇐" d="M33.68 72.31c10.99-1.32 32.5-3.03 44.53-3.84"/></g></g><path id="kvg:07c1e-s17" kvg:type="㇐" d="M17.98 83.57c1.38.56 3.92.69 5.31.56 9.21-.88 49.38-4.61 66.63-5.37 2.3-.1 3.69.27 4.84.54"/><g id="kvg:07c1e-g9" kvg:element="甲" kvg:part="2"><path id="kvg:07c1e-s18" kvg:type="㇑" d="M54.47 51.75c.58.3.94 1.14.95 2.17.04 5.2.17 45.9.19 47.6"/></g></g></g></g></svg>