<svg xmlns="http://www.w3.org/2000/svg" width="109" height="109" viewBox="0 0 109 109"><g id="kvg:StrokePaths_07c2b"><g id="kvg:07c2b" kvg:element="簫"><g id="kvg:07c2b-g1" kvg:element="竹" kvg:variant="true" kvg:position="top" kvg:radical="general"><g id="kvg:07c2b-g2" kvg:position="left"><path id="kvg:07c2b-s1" kvg:type="㇒" d="M26.75 9.75c.04.54.08 1.38-.08 2.15-.95 4.54-6.43 14.5-13.92 20.6"/><path id="kvg:07c2b-s2" kvg:type="㇐b" d="M25.48 20.37c4.79.0 20.15-2.7 25.52-2.7"/><path id="kvg:07c2b-s3" kvg:type="㇔/㇑" d="M34.25 21.5c1.87 1.49 4.84 6.14 5.31 8.47"/></g><g id="kvg:07c2b-g3" kvg:position="right"><path id="kvg:07c2b-s4" kvg:type="㇒" d="M62.74 9.75c.03.34.12.88-.06 1.35-1.3 3.53-4.91 8.57-9.69 12.9"/><path id="kvg:07c2b-s5" kvg:type="㇐b" d="M62.48 18.8c5.53.0 25.81-3.2 32.02-3.2"/><path id="kvg:07c2b-s6" kvg:type="㇒/㇚" d="M79.51 17c.03.28.07.73-.07 1.14-.8 2.39-5.4 7.65-11.69 10.86"/></g></g><g id="kvg:07c2b-g4" kvg:element="肅" kvg:position="bottom"><g id="kvg:07c2b-g5" kvg:element="聿" kvg:part="1" kvg:variant="true"><g id="kvg:07c2b-g6" kvg:element="⺕" kvg:variant="true" kvg:original="彑"><path id="kvg:07c2b-s7" kvg:type="㇕" d="M26.75 35.75c2.54.21 3.77.54 6.11.41 14.25-.82 35.62-3.57 46.82-3.57 3.31.0 4.58 1.02 4.07 3.07-1.33 5.36-2.29 8.2-2.54 13.53"/><path id="kvg:07c2b-s8" kvg:type="㇐" d="M15 44.84c2.43.23 4.33.67 7.03.46 23.51-1.83 51.07-4.13 69.72-4.82 2.98-.11 5.4.46 6.76.69"/><path id="kvg:07c2b-s9" kvg:type="㇐" d="M27 53.11c1.25.13 3.51.47 5 .4 13.75-.66 34.25-3.03 46.75-3.29 2-.04 3.25.0 4.75.13"/></g></g><g id="kvg:07c2b-g7" kvg:element="丨"><path id="kvg:07c2b-s10" kvg:type="㇑" d="M52.25 28c1.25.42 2 1.89 2.25 2.73s0 64.35-.25 69.6"/></g><g id="kvg:07c2b-g8" kvg:element="丿"><path id="kvg:07c2b-s11" kvg:type="㇒" d="M26.1 58.69c.44 1.15 1.07 2.05 1.07 3.49C27.17 75.32 28 92.5 14 101"/></g><path id="kvg:07c2b-s12" kvg:type="㇑" d="M41.64 57.9c.51.34.9.74.9 1.88.0 1.46-.01 4.37-.01 6.22"/><path id="kvg:07c2b-s13" kvg:type="㇐" d="M27.81 68.54c3.5-.14 13.15-.98 16.33-.98"/><path id="kvg:07c2b-s14" kvg:type="㇄" d="M65.48 56.34c.87.36 1.47.78 1.54 1.97.11 1.78-.19 4.91-.46 6.78-.09.6.15 1.49 1.44 1.39 4.54-.33 8.91-1.2 14.17-1.46"/><path id="kvg:07c2b-s15" kvg:type="㇑" d="M82.62 55.79c.83.5 1.41 1.09 1.48 2.75.34 7.99-.02 39.49-.02 42.21"/><g id="kvg:07c2b-g9" kvg:element="聿" kvg:part="2" kvg:variant="true"><path id="kvg:07c2b-s16" kvg:type="㇐" d="M29.31 75.9c8.65-.58 46.96-2.72 53.19-2.72"/></g><path id="kvg:07c2b-s17" kvg:type="㇕" d="M27.06 86.53c5.87-1.02 7.94-1.93 11.99-2.69 3.26-.61 3.92.88 3.92 1.76.0.88-.6 13.53-.6 14.41"/><path id="kvg:07c2b-s18" kvg:type="㇐" d="M64.8 82.42c.93.06 1.54.26 2.62.19 4.75-.3 11.92-.78 15.16-.88"/><path id="kvg:07c2b-s19" kvg:type="㇑" d="M68.86 84.41c0 4.28-.02 11.8-.02 14.57"/></g></g></g></svg>