<!DOCTYPE svg PUBLIC "-//W3C//DTD SVG 1.0//EN" "http://www.w3.org/TR/2001/REC-SVG-20010904/DTD/svg10.dtd" [
<!ATTLIST g
xmlns:kvg CDATA #FIXED "http://kanjivg.tagaini.net"
kvg:element CDATA #IMPLIED
kvg:variant CDATA #IMPLIED
kvg:partial CDATA #IMPLIED
kvg:original CDATA #IMPLIED
kvg:part CDATA #IMPLIED
kvg:number CDATA #IMPLIED
kvg:tradForm CDATA #IMPLIED
kvg:radicalForm CDATA #IMPLIED
kvg:position CDATA #IMPLIED
kvg:radical CDATA #IMPLIED
kvg:phon CDATA #IMPLIED >
<!ATTLIST path
xmlns:kvg CDATA #FIXED "http://kanjivg.tagaini.net"
kvg:type CDATA #IMPLIED >
]><svg xmlns="http://www.w3.org/2000/svg" width="109" height="109" viewBox="0 0 109 109"><g id="kvg:StrokePaths_07c2a" style="fill:none;stroke:#000000;stroke-width:3;stroke-linecap:round;stroke-linejoin:round;"><g id="kvg:07c2a" kvg:element="簪"><g id="kvg:07c2a-g1" kvg:element="竹" kvg:variant="true" kvg:position="top" kvg:radical="general"><g id="kvg:07c2a-g2" kvg:position="left"><path id="kvg:07c2a-s1" kvg:type="㇒" d="M27 9.5c.04.54.09 1.4-.08 2.18-1.01 4.59-6.77 14.66-14.67 20.82"/><path id="kvg:07c2a-s2" kvg:type="㇐b" d="M25.73 20.33c4.27.0 17.98-2.88 22.77-2.88"/><path id="kvg:07c2a-s3" kvg:type="㇔/㇑" d="M32.52 21.33c1.85 1.31 4.77 5.38 5.23 7.42"/></g><g id="kvg:07c2a-g3" kvg:position="right"><path id="kvg:07c2a-s4" kvg:type="㇒" d="M61.23 9.75c.03.39.15 1.01-.07 1.56C59.53 15.4 55 21.23 49 26.25"/><path id="kvg:07c2a-s5" kvg:type="㇐b" d="M59.98 17.65c5.55.0 25.91-3.56 32.15-3.56"/><path id="kvg:07c2a-s6" kvg:type="㇒/㇚" d="M75.02 18.55c.03.22.06.56-.05.87-.63 1.83-4.26 5.86-9.22 8.33"/></g></g><g id="kvg:07c2a-g4" kvg:position="bottom"><g id="kvg:07c2a-g5" kvg:position="top"><g id="kvg:07c2a-g6" kvg:element="旡" kvg:variant="true" kvg:original="无" kvg:position="left"><path id="kvg:07c2a-s7" kvg:type="㇐" d="M19.79 34.85c.81.17 2.31.22 3.12.17 4.25-.3 15.65-1.72 21.64-1.87 1.35-.03 2.17.08 2.85.16"/><path id="kvg:07c2a-s8" kvg:type="㇑" d="M24.09 35.19c.28.26.51 1.42.5 1.98-.02 2.74.01 5.29.06 9.82"/><path id="kvg:07c2a-s9" kvg:type="㇐" d="M11.75 47.87c.92.1 3.74.71 4.86.62 6.83-.56 23.9-2.24 29.85-2.65 1.57-.11 2.16-.04 3.78.16"/><g id="kvg:07c2a-g7" kvg:element="儿"><g id="kvg:07c2a-g8" kvg:element="八" kvg:variant="true"><g id="kvg:07c2a-g9" kvg:element="丿" kvg:position="left"><path id="kvg:07c2a-s10" kvg:type="㇒" d="M37.7 35.81c.35.41.4 1.79-.06 2.73C32.5 49 26.25 57.5 14.25 65.5"/></g><g id="kvg:07c2a-g10" kvg:position="right"><path id="kvg:07c2a-s11" kvg:type="㇟" d="M35.9 48.45c.28.5.5 1.1.52 1.88.08 3.47-.21 9.74-.21 11.33S36 65 38 63.5s7.5-6 10.25-8.25"/></g></g></g></g><g id="kvg:07c2a-g11" kvg:element="旡" kvg:variant="true" kvg:original="无" kvg:position="right"><path id="kvg:07c2a-s12" kvg:type="㇐" d="M57.32 31.93c.7.21 1.99.29 2.69.21 3.67-.39 18.23-1.86 23.4-2.06 1.17-.04 1.87.1 2.46.21"/><path id="kvg:07c2a-s13" kvg:type="㇑" d="M61.1 33.42c.25.28.39 1.46.34 2.02-.25 2.73-.46 5.77-.79 10.29"/><path id="kvg:07c2a-s14" kvg:type="㇐" d="M54.5 45.38c1 .08 4.07.62 5.29.54 7.43-.49 21.63-2.42 28.1-2.78 1.7-.09 2.34-.03 4.11.14"/><g id="kvg:07c2a-g12" kvg:element="儿"><g id="kvg:07c2a-g13" kvg:element="八" kvg:variant="true"><g id="kvg:07c2a-g14" kvg:element="丿" kvg:position="left"><path id="kvg:07c2a-s15" kvg:type="㇒" d="M73.04 33.9c.31.4.79 1.25.39 2.17-4.68 10.68-9.93 18.18-21.18 26.68"/></g><g id="kvg:07c2a-g15" kvg:position="right"><path id="kvg:07c2a-s16" kvg:type="㇟" d="M71.65 44.95c.48.48.87 1.05.9 1.8.13 3.32.13 5.09.13 7.33.0 4.92 1.57 5.72 10.95 5.72 8.88.0 10.33-1.3 10.33-5.18"/></g></g></g></g></g><g id="kvg:07c2a-g16" kvg:element="日" kvg:position="bottom"><path id="kvg:07c2a-s17" kvg:type="㇑" d="M30.5 69.23c.16.52 1.28 2.35 1.35 3 .84 7.79 3.31 18.35 3.84 28.05"/><path id="kvg:07c2a-s18" kvg:type="㇕a" d="M32.3 70.79c11.68-1.26 33.8-2.43 42.52-3.49 3.2-.39 4.34 1.49 4.18 2.87-.6 5.07-1.75 19.33-3.75 28.08"/><path id="kvg:07c2a-s19" kvg:type="㇐a" d="M34.98 83.41c4.14-.46 38.5-2.77 41.92-2.93"/><path id="kvg:07c2a-s20" kvg:type="㇐a" d="M36.4 96.12c8.77-.42 25.78-1.47 37.9-2.18"/></g></g></g></g><g id="kvg:StrokeNumbers_07c2a" style="font-size:8;fill:#808080"><text transform="matrix(1 0 0 1 18.50 10.50)">1</text><text transform="matrix(1 0 0 1 35.16 16.50)">2</text><text transform="matrix(1 0 0 1 28.50 27.50)">3</text><text transform="matrix(1 0 0 1 52.50 10.50)">4</text><text transform="matrix(1 0 0 1 68.50 13.50)">5</text><text transform="matrix(1 0 0 1 63.50 24.50)">6</text><text transform="matrix(1 0 0 1 21.00 32.50)">7</text><text transform="matrix(1 0 0 1 17.25 42.50)">8</text><text transform="matrix(1 0 0 1 4.25 49.03)">9</text><text transform="matrix(1 0 0 1 26.50 42.45)">10</text><text transform="matrix(1 0 0 1 27.50 62.50)">11</text><text transform="matrix(1 0 0 1 54.50 29.55)">12</text><text transform="matrix(1 0 0 1 51.50 38.50)">13</text><text transform="matrix(1 0 0 1 49.50 43.50)">14</text><text transform="matrix(1 0 0 1 64.50 39.50)">15</text><text transform="matrix(1 0 0 1 63.00 59.50)">16</text><text transform="matrix(1 0 0 1 19.50 76.50)">17</text><text transform="matrix(1 0 0 1 41.50 67.50)">18</text><text transform="matrix(1 0 0 1 37.50 80.50)">19</text><text transform="matrix(1 0 0 1 39.50 92.50)">20</text></g></svg>