<svg xmlns="http://www.w3.org/2000/svg" width="109" height="109" viewBox="0 0 109 109"><g id="kvg:StrokePaths_07c3e"><g id="kvg:07c3e" kvg:element="簾"><g id="kvg:07c3e-g1" kvg:element="竹" kvg:variant="true" kvg:position="top" kvg:radical="general"><g id="kvg:07c3e-g2" kvg:position="left"><path id="kvg:07c3e-s1" kvg:type="㇒" d="M30.5 11.75c.04.44.08 1.12-.07 1.75-.89 3.69-5.97 11.79-12.93 16.75"/><path id="kvg:07c3e-s2" kvg:type="㇐b" d="M29.23 20.79c3.71.0 16.11-2.29 20.27-2.29"/><path id="kvg:07c3e-s3" kvg:type="㇔/㇑" d="M35.52 21.83c1.6 1.44 4.14 5.9 4.54 8.13"/></g><g id="kvg:07c3e-g3" kvg:position="right"><path id="kvg:07c3e-s4" kvg:type="㇒" d="M61.75 11c.03.31.11.81-.05 1.25-1.2 3.28-4.53 7.96-8.95 12"/><path id="kvg:07c3e-s5" kvg:type="㇐b" d="M59.98 19.16c4.73.0 22.08-3.57 27.4-3.57"/><path id="kvg:07c3e-s6" kvg:type="㇒/㇚" d="M73.78 18.25c.01.24.03.61-.03.95-.36 2-2.42 6.37-5.25 9.05"/></g></g><g id="kvg:07c3e-g4" kvg:element="廉" kvg:position="bottom"><g id="kvg:07c3e-g5" kvg:element="广" kvg:position="tare"><path id="kvg:07c3e-s7" kvg:type="㇑a" d="M51.99 26.38c.6.27 1.86 2.01 1.98 2.54.12.54.06 3.24-.06 6.59"/><g id="kvg:07c3e-g6" kvg:element="厂"><path id="kvg:07c3e-s8" kvg:type="㇐" d="M24.07 37.59c1.44.45 4.09.53 5.53.45 15-.76 35.89-3.8 49.48-4.81 2.39-.18 3.84.22 5.05.45"/><path id="kvg:07c3e-s9" kvg:type="㇒" d="M28.69 39.92c.04 1.28.09 3.3-.08 5.14-1.02 10.84-3.32 37.14-14.33 48.81"/></g></g><g id="kvg:07c3e-g7" kvg:element="兼" kvg:position="tarec"><g id="kvg:07c3e-g8" kvg:element="八" kvg:variant="true" kvg:position="top"><g id="kvg:07c3e-g9" kvg:position="left"><path id="kvg:07c3e-s10" kvg:type="㇒" d="M50.24 38.25c.03.18.06.46-.05.71-.67 1.5-4.47 4.78-9.68 6.79"/></g><g id="kvg:07c3e-g10" kvg:position="right"><path id="kvg:07c3e-s11" kvg:type="㇒" d="M66.83 36.73c.03.18.07.47-.07.73-.81 1.55-5.43 4.95-11.77 7.03"/></g></g><g id="kvg:07c3e-g11" kvg:position="bottom"><path id="kvg:07c3e-s12" kvg:type="㇐" d="M32.38 51.14c1.01.35 2.85.42 3.85.35C42.98 51 68.13 47.7 78.17 47c1.67-.12 2.68.17 3.52.34"/><g id="kvg:07c3e-g12" kvg:element="⺕" kvg:variant="true" kvg:original="彑"><path id="kvg:07c3e-s13" kvg:type="㇕" d="M35.55 58.73c1.44.17 2.22.51 4.1.33 10.25-.99 26.13-3.6 35.35-4.1 1.84-.1 2.87 1.16 2.46 2.81-1.1 4.42-2.01 6.46-3.43 13.84"/><path id="kvg:07c3e-s14" kvg:type="㇐" d="M32.75 67.16c1.84.17 3.29.48 5.33.33 17.84-1.32 30.97-3.2 43.63-4.2 2.25-.18 4.1.33 5.12.5"/><path id="kvg:07c3e-s15" kvg:type="㇐c" d="M34.77 75.5c1.02.1 2.87.36 4.1.3 11.27-.5 23.52-2.92 33.77-3.12 1.64-.03 2.67.0 3.9.1"/></g><g id="kvg:07c3e-g13" kvg:element="丨"><path id="kvg:07c3e-s16" kvg:type="㇑" d="M48.04 42.44c.94.38 1.5 1.72 1.69 2.48s0 49.81-.19 54.58"/></g><g id="kvg:07c3e-g14" kvg:element="丨"><path id="kvg:07c3e-s17" kvg:type="㇑" d="M61.05 42.15c.94.38 1.5 1.72 1.69 2.48s0 50.33-.19 55.1"/></g><path id="kvg:07c3e-s18" kvg:type="㇒" d="M49.3 76.3C45 83.17 33.81 92.89 24.86 96.78"/><path id="kvg:07c3e-s19" kvg:type="㇏" d="M62.89 74.29c3.98 2.76 21.46 15.81 25.79 18.52 1.47.92 2.73 1.31 4.2 1.58"/></g></g></g></g></g></svg>