<svg xmlns="http://www.w3.org/2000/svg" width="109" height="109" viewBox="0 0 109 109"><g id="kvg:StrokePaths_07c4c"><g id="kvg:07c4c" kvg:element="籌"><g id="kvg:07c4c-g1" kvg:element="竹" kvg:variant="true" kvg:position="top" kvg:radical="general"><g id="kvg:07c4c-g2" kvg:position="left"><path id="kvg:07c4c-s1" kvg:type="㇒" d="M27.5 8.75c.03.47.07 1.22-.06 1.89-.75 3.99-5.05 12.74-10.94 18.11"/><path id="kvg:07c4c-s2" kvg:type="㇐b" d="M26.23 18.06c4.55.0 19.16-2.08 24.27-2.08"/><path id="kvg:07c4c-s3" kvg:type="㇔/㇑" d="M33.75 20.25c1.94 1.5 5.02 6.17 5.5 8.5"/></g><g id="kvg:07c4c-g3" kvg:position="right"><path id="kvg:07c4c-s4" kvg:type="㇒" d="M60.99 9.75c.03.37.14.97-.07 1.49-1.54 3.9-5.79 9.47-11.42 14.26"/><path id="kvg:07c4c-s5" kvg:type="㇐b" d="M58.5 17.95c5.42.0 25.29-2.07 31.38-2.07"/><path id="kvg:07c4c-s6" kvg:type="㇒/㇚" d="M75.24 17.75c.03.22.05.56-.05.88-.61 1.85-4.13 5.9-8.94 8.37"/></g></g><g id="kvg:07c4c-g4" kvg:element="壽" kvg:position="bottom"><g id="kvg:07c4c-g5" kvg:element="士" kvg:position="top"><path id="kvg:07c4c-s7" kvg:type="㇐" d="M28.75 34.12c1.18.33 3.36.38 4.54.33 12.32-.55 32.46-3.2 46.32-3.97 1.97-.11 3.16.16 4.14.32"/><path id="kvg:07c4c-s8" kvg:type="㇑a" d="M52.53 26.5c.83.34 1.32 1.51 1.49 2.18.17.67.47 7.54.31 11.74"/><path id="kvg:07c4c-s9" kvg:type="㇐" d="M30.93 42.2c1.19.22 3.38.31 4.57.22 13.14-.95 26-1.92 39.22-3.21 1.98-.19 3.18.11 4.17.22"/></g><g id="kvg:07c4c-g6" kvg:position="bottom"><path id="kvg:07c4c-s10" kvg:type="㇖" d="M17 50.15c1.46.44 2.41.36 5.1.13 13.77-1.2 57.81-3.99 64.55-4.28 11.66-.5 2.76 7.43-.15 9.25"/><g id="kvg:07c4c-g7" kvg:element="工"><path id="kvg:07c4c-s11" kvg:type="㇐" d="M30.7 55.85c.91.36 3.9.47 4.82.37 4.3-.48 30.15-1.8 37.38-2.17 1.41-.07 2.69.07 3.86.37"/><path id="kvg:07c4c-s12" kvg:type="㇑a" d="M54.28 55.1c.31.48.31.77.31 1.15.0 2.69-.01 1.6-.01 6.21"/><path id="kvg:07c4c-s13" kvg:type="㇐" d="M29.84 64.03c.59.16 2.69.33 3.68.26 10.73-.79 32.04-2.71 41.81-2.95 1.6-.04 3.52.27 4.33.53"/></g><g id="kvg:07c4c-g8" kvg:element="一"><path id="kvg:07c4c-s14" kvg:type="㇐" d="M16.75 71.87c1.71.36 4.83.44 6.54.36 10.87-.5 44.97-4.02 63.99-3.85 2.84.03 4.55.17 5.97.36"/></g><g id="kvg:07c4c-g9" kvg:element="口" kvg:position="left"><path id="kvg:07c4c-s15" kvg:type="㇑" d="M23.33 79.97c.28.26.56.48.69.81.97 2.6 2.12 10.79 2.78 15.47"/><path id="kvg:07c4c-s16" kvg:type="㇕b" d="M24.83 81.34c6.43-1.41 15.27-2.48 18.95-2.84 1.35-.13 2.16.77 1.96 1.54-.8 3.17-1.73 6.5-2.92 10.88"/><path id="kvg:07c4c-s17" kvg:type="㇐b" d="M28.68 93.2c4.23-.31 10.07-.86 15.88-1.34"/></g><g id="kvg:07c4c-g10" kvg:element="寸" kvg:position="right"><path id="kvg:07c4c-s18" kvg:type="㇐" d="M50.75 79.42c1.04.42 2.95.52 4.01.42 11.43-1.04 23.21-1.62 35.97-2.26 1.74-.09 2.79.2 3.66.41"/><path id="kvg:07c4c-s19" kvg:type="㇚" d="M76.53 71.81c.06.3.83 1.56.83 3.47.0 12.82-.17 17.15-.17 20.26.0 7.56-4.94 1.12-6.38.16"/><path id="kvg:07c4c-s20" kvg:type="㇔" d="M55.75 87.5c2.65 1.28 6.84 5.26 7.5 7.25"/></g></g></g></g></g></svg>