<svg xmlns="http://www.w3.org/2000/svg" width="109" height="109" viewBox="0 0 109 109"><g id="kvg:StrokePaths_07c58" style="fill:none;stroke:#000000;stroke-width:3;stroke-linecap:round;stroke-linejoin:round;"><g id="kvg:07c58" kvg:element="籘"><g id="kvg:07c58-g1" kvg:element="竹" kvg:variant="true" kvg:position="top" kvg:radical="general"><g id="kvg:07c58-g2" kvg:position="left"><path id="kvg:07c58-s1" kvg:type="㇒" d="M28.75 9.5c.04.49.08 1.26-.08 1.96-.95 4.14-6.43 13.22-13.92 18.79"/><path id="kvg:07c58-s2" kvg:type="㇐b" d="M26.73 19.88c4.32.0 19.17-1.97 24.02-1.97"/><path id="kvg:07c58-s3" kvg:type="㇔/㇑" d="M33.25 21.75c2.56 1.59 6.61 6.53 7.25 9"/></g><g id="kvg:07c58-g3" kvg:position="right"><path id="kvg:07c58-s4" kvg:type="㇒" d="M60.24 10.25c.03.42.12 1.11-.06 1.7-1.3 4.46-4.91 10.82-9.69 16.3"/><path id="kvg:07c58-s5" kvg:type="㇐b" d="M61 18.45c4.92.0 22.97-1.95 28.5-1.95"/><path id="kvg:07c58-s6" kvg:type="㇒/㇚" d="M76.52 20.75c.02.15.05.4-.05.61-.58 1.3-3.91 4.14-8.47 5.89"/></g></g><g id="kvg:07c58-g4" kvg:element="縢" kvg:position="bottom"><g id="kvg:07c58-g5" kvg:element="月" kvg:position="left"><path id="kvg:07c58-s7" kvg:type="㇓" d="M20.08 36.27c.68.79 1.13 1.98 1.36 2.75s.2 21.54-.52 27.97c-1.03 9.15-.24 15.25-9.26 28.88"/><path id="kvg:07c58-s8" kvg:type="㇆a" d="M21.7 38.56c2.05-.05 11.85-2.92 13.37-3.02 2.73-.19 3.41 1.07 3.41 2.19.0 2.65-.04 37.54-.04 52.6.0 10.35-5.76 2.92-7.5 1.67"/><path id="kvg:07c58-s9" kvg:type="㇐a" d="M23.5 53.99c3.69-.18 10.42-.79 13.66-.8"/><path id="kvg:07c58-s10" kvg:type="㇐a" d="M22.75 70.02c3.01-.04 10-.4 14.08-.61"/></g><g id="kvg:07c58-g6" kvg:position="right"><g id="kvg:07c58-g7" kvg:position="top"><path id="kvg:07c58-s11" kvg:type="㇒" d="M56.62 33.84c.03.26.05.68-.05 1.06-.62 2.23-4.19 7.11-9.07 10.1"/><path id="kvg:07c58-s12" kvg:type="㇔" d="M77 32c4.59 1.63 11.85 6.71 13 9.25"/><g id="kvg:07c58-g8" kvg:element="二"><g id="kvg:07c58-g9" kvg:position="top"><path id="kvg:07c58-s13" kvg:type="㇐" d="M53.89 45.32c.83.07 2.36.09 3.18.06 5.29-.15 16.85-1.86 21.97-1.79 1.38.02 2.21.03 2.9.06"/></g><g id="kvg:07c58-g10" kvg:position="bottom"><path id="kvg:07c58-s14" kvg:type="㇐" d="M44.69 56.2c1.31.48 3.71.47 5.03.45 9.49-.15 27.58-2.5 41.77-3.29 2.18-.12 3.5.2 4.59.44"/></g></g><g id="kvg:07c58-g11" kvg:element="人"><path id="kvg:07c58-s15" kvg:type="㇒" d="M67.03 32.75c0 .7.2 1.37.17 2.64C67.03 43.09 59 63.25 44.5 70"/><path id="kvg:07c58-s16" kvg:type="㇏" d="M69.27 45.17c3.57 4.35 18.97 18.55 22.92 21.74 1.34 1.08 3.05 1.54 4.39 1.85"/></g></g><g id="kvg:07c58-g12" kvg:element="糸" kvg:position="bottom"><path id="kvg:07c58-s17" kvg:type="㇜" d="M66.8 58.66c.29.56.37.91-.04 1.64-1.51 2.69-3.26 4.94-6.35 8.04-.42.42-.44 1.36.08 1.45 2.72.43 4.22 2.24 6.59 3.18"/><path id="kvg:07c58-s18" kvg:type="㇜" d="M78.48 62.23c.02 1.02-.43 2.44-.85 2.85C71.46 71.05 63.47 75.9 54.78 81.6c-1.99 1.31.67 1.74 2.01 1.4 5.61-1.44 17.97-3.72 25.21-5.25"/><path id="kvg:07c58-s19" kvg:type="㇔" d="M78.75 72.5c2.47 1.72 6.38 7.07 7 9.75"/><path id="kvg:07c58-s20" kvg:type="㇑" d="M68.28 83.25c.07.13.89.65.95 1.44.31 3.8-.19 13.76-.19 15.06"/><path id="kvg:07c58-s21" kvg:type="㇒" d="M58.38 89.41c.18.51.15 1.5-.18 1.86-2.11 2.36-7.41 6.91-10.41 8.94"/><path id="kvg:07c58-s22" kvg:type="㇔" d="M78.65 87.73c5.05 2.07 8.93 6.89 10.1 8.77"/></g></g></g></g></g></svg>