<svg xmlns="http://www.w3.org/2000/svg" width="109" height="109" viewBox="0 0 109 109"><g id="kvg:StrokePaths_07c54"><g id="kvg:07c54" kvg:element="籔"><g id="kvg:07c54-g1" kvg:element="竹" kvg:variant="true" kvg:position="top" kvg:radical="general"><g id="kvg:07c54-g2" kvg:position="left"><path id="kvg:07c54-s1" kvg:type="㇒" d="M27.49 9c.04.55.19 1.46-.08 2.22C25.75 16 21.5 24 13 32.5"/><path id="kvg:07c54-s2" kvg:type="㇐b" d="M26.73 20.22c4.36.0 20.37-3.16 25.27-3.16"/><path id="kvg:07c54-s3" kvg:type="㇔/㇑" d="M34.52 21.83c2.55 1.22 6.6 5.02 7.23 6.92"/></g><g id="kvg:07c54-g3" kvg:position="right"><path id="kvg:07c54-s4" kvg:type="㇒" d="M62.73 9c.04.51.15 1.32-.07 2.03-1.67 5.32-6.29 12.92-12.41 19.47"/><path id="kvg:07c54-s5" kvg:type="㇐b" d="M63.48 17.67c5.6.0 22.61-2.85 28.9-2.85"/><path id="kvg:07c54-s6" kvg:type="㇒/㇚" d="M73.73 19.5c.03.24.07.61-.06.95-.8 2-5.39 6.37-11.67 9.05"/></g></g><g id="kvg:07c54-g4" kvg:element="數" kvg:position="bottom"><g id="kvg:07c54-g5" kvg:element="婁" kvg:position="left"><g id="kvg:07c54-g6" kvg:position="top"><g id="kvg:07c54-g7" kvg:element="串" kvg:part="1"><g id="kvg:07c54-g8" kvg:element="口" kvg:part="1"><path id="kvg:07c54-s7" kvg:type="㇑" d="M21.24 37.21c.22.24.65 1.31.73 2.24.55 6.07 1.78 12.33 2.25 16.33"/><path id="kvg:07c54-s8" kvg:type="㇕" d="M21.8 38.62c8.07-.91 21.79-1.98 28.17-2.77 2.03-.25 3.2 1.31 2.94 3.06-1.04 6.96-2.15 10.61-3.36 14.9"/></g></g><path id="kvg:07c54-s9" kvg:type="㇐" d="M12.24 46.32c1.19.46 3.37.54 4.57.46 12.55-.84 27.94-2.03 40.37-3.17 1.98-.18 3.18.22 4.17.45"/><g id="kvg:07c54-g9" kvg:element="串" kvg:part="2"><g id="kvg:07c54-g10" kvg:element="口" kvg:part="2"><path id="kvg:07c54-s10" kvg:type="㇐" d="M24.58 53.67c4.97-.4 20.12-1.41 25.11-1.61"/></g><g id="kvg:07c54-g11" kvg:element="中"><g id="kvg:07c54-g12" kvg:element="口"><path id="kvg:07c54-s11" kvg:type="㇑" d="M21.46 60.25c.48.45.75 1.48.99 2.22.66 2.08 1.59 6.4 1.92 9.31"/><path id="kvg:07c54-s12" kvg:type="㇕b" d="M23.39 61.71c6.69-.72 20.79-2.31 26.08-2.94 1.69-.2 2.25.33 2 2.04-.19 1.35-1.21 3.98-1.62 5.95"/><path id="kvg:07c54-s13" kvg:type="㇐b" d="M25.58 69.27c1.67-.2 24.21-1.31 26.35-1.51"/></g><g id="kvg:07c54-g13" kvg:element="丨"><path id="kvg:07c54-s14" kvg:type="㇑" d="M35.66 31.23c1.07.4 1.71 1.81 1.92 2.61.21.8.0 29.14-.21 34.17"/></g></g></g></g><g id="kvg:07c54-g14" kvg:element="女" kvg:position="bottom"><path id="kvg:07c54-s15" kvg:type="㇛" d="M35.11 71.28c.24.75-.01 1.65-.28 2.55-1.35 4.38-7.4 10.37-11.19 15.28-.82 1.07-.23 1.37.34 1.36 9.7-.17 22.27 4.54 27.82 10.27"/><path id="kvg:07c54-s16" kvg:type="㇒" d="M47.75 75.5c.1.64.32 2.22-.19 3.11-4.44 7.71-11.01 18.04-32.06 23.64"/><path id="kvg:07c54-s17" kvg:type="㇐" d="M12.63 81.1c1.27.57 2.63.42 3.24.38C27.36 80.83 42.49 79.2 56 78.31c1.1-.07 2 .19 3.26.3"/></g></g><g id="kvg:07c54-g15" kvg:element="攵" kvg:variant="true" kvg:original="攴" kvg:position="right"><g id="kvg:07c54-g16" kvg:element="𠂉" kvg:position="top"><path id="kvg:07c54-s18" kvg:type="㇒" d="M71.1 32.39c.04.68.23 1.78-.07 2.71-1.92 5.94-7.13 19.42-13.78 27.65"/><path id="kvg:07c54-s19" kvg:type="㇐" d="M69.97 45.81c.03-.14 1.62.0 2.2-.04 5.96-.42 10.46-1.94 19.56-2.62 1.02-.08 1.65-.02 1.92.07"/></g><g id="kvg:07c54-g17" kvg:element="乂" kvg:position="bottom"><g id="kvg:07c54-g18" kvg:element="丿"><path id="kvg:07c54-s20" kvg:type="㇒" d="M83.66 48.56c.44 1.19.68 2.04.22 4.22C79.69 72.57 70.15 90.24 56.37 97.1"/></g><path id="kvg:07c54-s21" kvg:type="㇏" d="M62.75 60c2.83.22 19.84 28.65 28.95 35.56 1.75 1.33 2.87 1.55 4.3 1.69"/></g></g></g></g></g></svg>