<!DOCTYPE svg PUBLIC "-//W3C//DTD SVG 1.0//EN" "http://www.w3.org/TR/2001/REC-SVG-20010904/DTD/svg10.dtd" [
<!ATTLIST g
xmlns:kvg CDATA #FIXED "http://kanjivg.tagaini.net"
kvg:element CDATA #IMPLIED
kvg:variant CDATA #IMPLIED
kvg:partial CDATA #IMPLIED
kvg:original CDATA #IMPLIED
kvg:part CDATA #IMPLIED
kvg:number CDATA #IMPLIED
kvg:tradForm CDATA #IMPLIED
kvg:radicalForm CDATA #IMPLIED
kvg:position CDATA #IMPLIED
kvg:radical CDATA #IMPLIED
kvg:phon CDATA #IMPLIED >
<!ATTLIST path
xmlns:kvg CDATA #FIXED "http://kanjivg.tagaini.net"
kvg:type CDATA #IMPLIED >
]><svg xmlns="http://www.w3.org/2000/svg" width="109" height="109" viewBox="0 0 109 109"><g id="kvg:StrokePaths_07c64" style="fill:none;stroke:#000000;stroke-width:3;stroke-linecap:round;stroke-linejoin:round;"><g id="kvg:07c64" kvg:element="籤"><g id="kvg:07c64-g1" kvg:element="竹" kvg:variant="true" kvg:position="top" kvg:radical="general"><g id="kvg:07c64-g2" kvg:position="left"><path id="kvg:07c64-s1" kvg:type="㇒" d="M28.25 10.25c.04.51.09 1.31-.08 2.03-.99 4.29-6.66 13.7-14.41 19.47"/><path id="kvg:07c64-s2" kvg:type="㇐b" d="M25.23 21.1c4.46.0 20.27-2.67 25.27-2.67"/><path id="kvg:07c64-s3" kvg:type="㇔/㇑" d="M34.77 22.08c2.13 1.48 5.51 6.08 6.04 8.38"/></g><g id="kvg:07c64-g3" kvg:position="right"><path id="kvg:07c64-s4" kvg:type="㇒" d="M60.75 10c.03.4.11 1.04-.05 1.61-1.27 4.21-4.79 10.22-9.44 15.39"/><path id="kvg:07c64-s5" kvg:type="㇐b" d="M60.25 18.98c5.42.0 24.79-2.88 30.88-2.88"/><path id="kvg:07c64-s6" kvg:type="㇒/㇚" d="M75.02 21.05c.02.17.04.44-.04.68-.48 1.44-3.23 4.59-6.99 6.52"/></g></g><g id="kvg:07c64-g4" kvg:element="韱" kvg:position="bottom"><g id="kvg:07c64-g5" kvg:element="从"><g id="kvg:07c64-g6" kvg:element="人" kvg:position="left"><path id="kvg:07c64-s7" kvg:type="㇒" d="M30.26 31c.26.24.27.72.18 1.2C29.5 37.25 27 41.5 20 46.75"/><path id="kvg:07c64-s8" kvg:type="㇏" d="M30.13 37.98c2.4 1.06 5.46 3.86 6.62 6.52"/></g><g id="kvg:07c64-g7" kvg:element="人" kvg:position="right"><path id="kvg:07c64-s9" kvg:type="㇒" d="M48.74 31.75c.23.22.25.68.16 1.12-.9 4.63-2.15 8.38-9.15 13.63"/><path id="kvg:07c64-s10" kvg:type="㇏" d="M48.75 38.75c2.47.97 5.61 3.56 6.81 6.01"/></g></g><g id="kvg:07c64-g8" kvg:element="戈" kvg:part="1"><g id="kvg:07c64-g9" kvg:element="弋" kvg:part="1"><path id="kvg:07c64-s11" kvg:type="㇐" d="M16.1 51.43c1.78.49 5.03.65 6.81.49 15.59-1.42 47.34-4.42 64.32-4.71 2.96-.05 4.74.24 6.22.48"/></g></g><g id="kvg:07c64-g10" kvg:element="韭"><g id="kvg:07c64-g11" kvg:element="非"><path id="kvg:07c64-s12" kvg:type="㇑" d="M34.57 53.5c.23.28.36 1.26.41 1.83.05.56.0 31.41-.05 34.92"/><path id="kvg:07c64-s13" kvg:type="㇑" d="M44.7 52.25c.33.28.52 1.25.59 1.8s0 29.1-.06 32.56"/><path id="kvg:07c64-s14" kvg:type="㇐c" d="M18.11 62.35c.47.1 1.34.1 1.81.1 3.85-.01 9.38-1.17 12.89-1.25.79-.02 1.15-.04 1.65-.04"/><path id="kvg:07c64-s15" kvg:type="㇀" d="M18.97 71.7c.47.04 1.32-.02 1.79-.06 3.79-.3 8.94-.83 12.38-1.17.77-.08 1.13-.12 1.63-.16"/><path id="kvg:07c64-s16" kvg:type="㇐" d="M18.37 81.38c.48.08 1.36.01 1.83-.03 3.88-.32 9.1-1.02 12.85-1.75.77-.15 1.16-.14 1.66-.18"/><path id="kvg:07c64-s17" kvg:type="㇐b" d="M45.78 59.67c.65-.03.61-.04 1.09-.1 3.11-.4 7.22-1.01 10.19-1.37.81-.1 1.31.0 1.72.05"/><path id="kvg:07c64-s18" kvg:type="㇐b" d="M47 68.08c.62.0.58-.01 1.05-.05 2.99-.29 7.18-.78 10.03-1.05.78-.07 1.25.08 1.64.16"/><path id="kvg:07c64-s19" kvg:type="㇐b" d="M46.37 77.72c.65-.06.6-.06 1.08-.14 3.07-.5 7.9-1.3 10.84-1.77.8-.13 1.3-.05 1.71-.03"/></g><g id="kvg:07c64-g12" kvg:element="一"><path id="kvg:07c64-s20" kvg:type="㇐" d="M19 94.46c1.21 1.25 4.16.74 5.1.4C39 89.5 47.81 87.61 60.25 82.75"/></g></g><g id="kvg:07c64-g13" kvg:element="戈" kvg:part="2"><path id="kvg:07c64-s21" kvg:type="㇂" d="M63.75 32.75c1.3 1.39 1.51 1.78 1.79 4.77C67.81 62.55 76.1 87 92.01 96.33c5.11 3 4.38.6 3.73-5.56"/><g id="kvg:07c64-g14" kvg:element="丿"><path id="kvg:07c64-s22" kvg:type="㇒" d="M84.5 55.25c.09.97.18 2.5-.17 3.89-2.07 8.21-13.96 27.14-30.24 38.17"/></g><g id="kvg:07c64-g15" kvg:element="弋" kvg:part="2"><g id="kvg:07c64-g16" kvg:element="丶"><path id="kvg:07c64-s23" kvg:type="㇔" d="M75.25 31c3.51 1.85 9.11 6.08 10.75 9.25"/></g></g></g></g></g></g><g id="kvg:StrokeNumbers_07c64" style="font-size:8;fill:#808080"><text transform="matrix(1 0 0 1 20.50 9.50)">1</text><text transform="matrix(1 0 0 1 34.50 16.50)">2</text><text transform="matrix(1 0 0 1 29.50 27.50)">3</text><text transform="matrix(1 0 0 1 51.50 10.50)">4</text><text transform="matrix(1 0 0 1 65.50 15.50)">5</text><text transform="matrix(1 0 0 1 63.50 26.50)">6</text><text transform="matrix(1 0 0 1 22.50 34.50)">7</text><text transform="matrix(1 0 0 1 35.25 38.10)">8</text><text transform="matrix(1 0 0 1 41.50 37.03)">9</text><text transform="matrix(1 0 0 1 52.50 39.50)">10</text><text transform="matrix(1 0 0 1 5.25 52.88)">11</text><text transform="matrix(1 0 0 1 25.50 59.50)">12</text><text transform="matrix(1 0 0 1 37.50 58.98)">13</text><text transform="matrix(1 0 0 1 8.50 63.65)">14</text><text transform="matrix(1 0 0 1 8.50 72.50)">15</text><text transform="matrix(1 0 0 1 8.50 82.75)">16</text><text transform="matrix(1 0 0 1 48.50 56.50)">17</text><text transform="matrix(1 0 0 1 48.50 66.50)">18</text><text transform="matrix(1 0 0 1 48.25 75.28)">19</text><text transform="matrix(1 0 0 1 7.25 97.50)">20</text><text transform="matrix(1 0 0 1 55.50 30.50)">21</text><text transform="matrix(1 0 0 1 73.50 57.13)">22</text><text transform="matrix(1 0 0 1 79.25 29.63)">23</text></g></svg>