<svg xmlns="http://www.w3.org/2000/svg" width="109" height="109" viewBox="0 0 109 109"><g id="kvg:StrokePaths_07c73" style="fill:none;stroke:#000000;stroke-width:3;stroke-linecap:round;stroke-linejoin:round;"><g id="kvg:07c73" kvg:element="米" kvg:radical="general"><path id="kvg:07c73-s1" kvg:type="㇔" d="M26.64 25.46c4.03 2.47 10.1 9.45 11.11 13.29"/><path id="kvg:07c73-s2" kvg:type="㇒" d="M78.52 19.64c.1.85-.21 2.19-.63 2.91C75.25 27 72.25 30.5 66.56 35.22"/><path id="kvg:07c73-s3" kvg:type="㇐" d="M18 49.25c2.25.62 4.8.83 8.24.5 19.67-1.88 38.77-4.5 52.75-5.25 3.46-.19 6.13-.12 8.51.5"/><path id="kvg:07c73-s4" kvg:type="㇑" d="M51.75 13.25C53.06 14.56 54 17 54 18.75c0 4.75.06 50.93-.14 70.51-.04 3.54-.07 5.54-.11 6.49"/><path id="kvg:07c73-s5" kvg:type="㇒" d="M49.38 48.25c0 1.47-.81 3.5-1.26 4.29C41 64.89 27.22 78.84 13.5 85.75"/><path id="kvg:07c73-s6" kvg:type="㇏" d="M55.75 48.25C60 53 75.38 68.74 83.7 76.96c2.8 2.77 5.74 5.16 9.43 6.79"/></g></g></svg>