<svg xmlns="http://www.w3.org/2000/svg" width="109" height="109" viewBox="0 0 109 109"><g id="kvg:StrokePaths_07c75"><g id="kvg:07c75" kvg:element="籵"><g id="kvg:07c75-g1" kvg:element="米" kvg:variant="true" kvg:position="left" kvg:radical="general"><path id="kvg:07c75-s1" kvg:type="㇔" d="M15.44 26.89c2.92 2.26 7.33 8.65 8.06 12.16"/><path id="kvg:07c75-s2" kvg:type="㇒" d="M48.26 23.47c.02.35.05.9-.05 1.4-.57 2.96-3.87 9.45-8.39 13.42"/><path id="kvg:07c75-s3" kvg:type="㇐" d="M13.1 47.05c.67.16 2.45.55 4.23.47 6.37-.31 18.99-1.85 26.19-2.35 1.77-.12 2.22-.16 3.34.0"/><path id="kvg:07c75-s4" kvg:type="㇑" d="M30.52 16.46c.88.45 1.41 2.03 1.59 2.94s0 70.74-.18 76.39"/><path id="kvg:07c75-s5" kvg:type="㇒" d="M32.52 47.46C29.26 57.95 21.33 72.67 14 78.73"/><path id="kvg:07c75-s6" kvg:type="㇔/㇏" d="M35.12 53.82c5.53 3.1 9.6 6.67 11.65 11.9"/></g><g id="kvg:07c75-g2" kvg:element="十" kvg:position="right"><path id="kvg:07c75-s7" kvg:type="㇐" d="M53.53 46.4c1.53.5 3.27.66 5.03.5 8.97-.82 22.07-1.68 35.64-2.64 1.75-.12 2.84.08 4.6.44"/><path id="kvg:07c75-s8" kvg:type="㇑" d="M72.6 14.75c1.21.48 2.17 2.14 2.17 3.14.0 10.13.0 73.58-.24 79.61"/></g></g></g></svg>