<svg xmlns="http://www.w3.org/2000/svg" width="109" height="109" viewBox="0 0 109 109"><g id="kvg:StrokePaths_07c89" style="fill:none;stroke:#000000;stroke-width:3;stroke-linecap:round;stroke-linejoin:round;"><g id="kvg:07c89" kvg:element="粉"><g id="kvg:07c89-g1" kvg:element="米" kvg:variant="true" kvg:position="left" kvg:radical="general"><path id="kvg:07c89-s1" kvg:type="㇔" d="M15.25 27.12c2.81 2.03 7.05 7.77 7.75 10.93"/><path id="kvg:07c89-s2" kvg:type="㇒" d="M47.51 21.22c.07.8.01 1.58-.31 2.31-1.69 3.85-4.07 7.47-8.12 11.76"/><path id="kvg:07c89-s3" kvg:type="㇐" d="M14.85 46.27c2.02.36 3.77.17 5.41-.08 5.6-.83 14.49-2.44 20.63-3.73 1.28-.27 2.67-.52 3.97-.19"/><path id="kvg:07c89-s4" kvg:type="㇑" d="M30.77 15.96c1.01 1.01 1.34 2.66 1.34 3.94.0 2.46-.13 50.44-.17 67.85-.01 2.75-.01 4.7-.01 5.54"/><path id="kvg:07c89-s5" kvg:type="㇒" d="M31.27 46.46c0 1.54-.39 2.61-.92 3.96C26.41 60.53 19.88 70.88 12 79.48"/><path id="kvg:07c89-s6" kvg:type="㇔/㇏" d="M35 51.38c4 2.75 7.65 6.49 9.28 9.84"/></g><g id="kvg:07c89-g2" kvg:element="分" kvg:position="right" kvg:phon="分"><g id="kvg:07c89-g3" kvg:element="八" kvg:position="top"><path id="kvg:07c89-s7" kvg:type="㇒" d="M62.77 21.52c.23 1.23.0 2.08-.39 3.12-3.13 8.36-8 17.48-15.78 25.61"/><path id="kvg:07c89-s8" kvg:type="㇏" d="M68.84 18.5c4.36.0 13.13 15.53 19.33 21.71 1.76 1.76 3.86 3.88 5.98 5.17"/></g><g id="kvg:07c89-g4" kvg:element="刀" kvg:position="bottom"><path id="kvg:07c89-s9" kvg:type="㇆" d="M53.98 54.12c2.02.51 3.64.55 5.39.29 6.05-.86 16.17-2.88 21.12-3.68 4.49-.73 5.81.81 5.25 5.15-1.02 7.86-5 25.77-8.4 31.9-2.5 4.5-5.71 1.21-7.58-.24"/><path id="kvg:07c89-s10" kvg:type="㇒" d="M66.79 56.5c.05.76-.03 2.01-.36 3.04-3.31 10.58-9.56 23.33-17.99 31.21"/></g></g></g></g></svg>