<svg xmlns="http://www.w3.org/2000/svg" width="109" height="109" viewBox="0 0 109 109"><g id="kvg:StrokePaths_07c82" style="fill:none;stroke:#000000;stroke-width:3;stroke-linecap:round;stroke-linejoin:round;"><g id="kvg:07c82" kvg:element="粂"><g id="kvg:07c82-g1" kvg:element="久" kvg:position="top"><g id="kvg:07c82-g2" kvg:element="𠂊" kvg:variant="true" kvg:original="勹"><g id="kvg:07c82-g3" kvg:element="丿"><path id="kvg:07c82-s1" kvg:type="㇒" d="M43.99 9.75c-.04 1.31-.42 2.49-1.13 3.52-4.13 6.74-10.24 14.11-23.62 21.35"/></g><path id="kvg:07c82-s2" kvg:type="㇇" d="M43.25 18.55c1.85.21 3.73.11 5.53-.3 4.97-1.12 10.77-2.35 14.48-3.19 2.64-.59 3.86.97 2.58 3.44-4.68 9.08-28.89 28.73-52.6 34.45"/></g><path id="kvg:07c82-s3" kvg:type="㇏" d="M58.88 30.25c4.3 2.63 18.16 12.53 26.15 17.65 3.47 2.23 5.25 3.21 8.22 4.35"/></g><g id="kvg:07c82-g4" kvg:element="米" kvg:position="bottom" kvg:radical="general"><path id="kvg:07c82-s4" kvg:type="㇔" d="M32.02 52.83c3.35 1.94 8.4 6.9 9.23 9.92"/><path id="kvg:07c82-s5" kvg:type="㇒" d="M75.53 48.39c.1 1.01-.1 1.97-.59 2.87C73 54.5 69.76 58.65 67.12 61.5"/><path id="kvg:07c82-s6" kvg:type="㇐" d="M18.75 67.47c3.83.72 7.61.35 11.51.0 14.61-1.34 36.86-2.84 49.61-3.39 3.71-.16 7.42-.03 11.13.4"/><path id="kvg:07c82-s7" kvg:type="㇑" d="M53 44.5c1.25 1.25 1.5 2.62 1.5 4.25.0 1.03.0 44.75.0 52.25"/><path id="kvg:07c82-s8" kvg:type="㇒" d="M52.5 66.25c-.25 1.38-1.81 2.87-2.8 4.13-6.93 8.8-20.56 19.07-36.2 24.87"/><path id="kvg:07c82-s9" kvg:type="㇏" d="M57.25 67.38c3.84 2.7 15.4 12.16 23.67 18.09C84.59 88 88.45 90.17 92.5 92"/></g></g></g></svg>