<svg xmlns="http://www.w3.org/2000/svg" width="109" height="109" viewBox="0 0 109 109"><g id="kvg:StrokePaths_07c8b" style="fill:none;stroke:#000000;stroke-width:3;stroke-linecap:round;stroke-linejoin:round;"><g id="kvg:07c8b" kvg:element="粋"><g id="kvg:07c8b-g1" kvg:element="米" kvg:variant="true" kvg:position="left" kvg:radical="general"><path id="kvg:07c8b-s1" kvg:type="㇔" d="M15.62 26.12c2.49 1.94 6.25 7.41 6.88 10.43"/><path id="kvg:07c8b-s2" kvg:type="㇒" d="M46.51 23.72c.05.59.03 1.17-.19 1.72-1.07 2.69-2.45 5.07-5.75 9.11"/><path id="kvg:07c8b-s3" kvg:type="㇐" d="M13.1 45.77c2.02.86 4.38.59 6.52.23 6.38-1.1 17.92-3.71 23.76-4.7 1.42-.24 3.04-.65 4.48-.28"/><path id="kvg:07c8b-s4" kvg:type="㇑" d="M32.27 17.46c.88.88 1.09 2.41 1.09 3.94.0.77-.09 47.6-.09 68.1.0 3.75-.02 4.71-.02 7.12"/><path id="kvg:07c8b-s5" kvg:type="㇒" d="M31.77 44.46c0 1.55-.72 3.88-1.31 5.39-4.04 10.35-10.34 20.9-18.09 28.27"/><path id="kvg:07c8b-s6" kvg:type="㇔/㇏" d="M35.37 49.82c3.99 2.84 6.25 6.18 8.4 10.9"/></g><g id="kvg:07c8b-g2" kvg:element="卆" kvg:position="right" kvg:phon="卒/卆"><g id="kvg:07c8b-g3" kvg:element="九" kvg:position="top"><path id="kvg:07c8b-s7" kvg:type="㇒" d="M67.15 12.38c.72.88.87 2.3.83 2.98C66.82 36.43 64 48 52.53 57.36"/><g id="kvg:07c8b-g4" kvg:element="乙"><path id="kvg:07c8b-s8" kvg:type="㇈" d="M55.92 27.27c2.2.6 4.46.04 5.96-.24 5.05-.94 15.87-2.91 16.34-3.04C80 23.5 81.5 24.75 81 27.46c-.41 2.22-1.67 9.54-1.67 11.77.04 8.15.91 9.16 8.31 9.16 7.85.0 8.58-1.24 8.58-6.44"/></g></g><g id="kvg:07c8b-g5" kvg:element="十" kvg:position="bottom"><path id="kvg:07c8b-s9" kvg:type="㇐" d="M47.75 68.22c2.38.65 5.36.62 7.37.36 11.26-1.46 25.34-2.67 34.13-3.28 2.48-.17 4.63-.06 7.75.54"/><path id="kvg:07c8b-s10" kvg:type="㇑" d="M71.43 53.8c1.01 1.01 1.52 2.33 1.52 4.15.0 1.26.0 20.17.0 31.92.0 3.23-.05 5.74-.07 6.88"/></g></g></g></g></svg>