<svg xmlns="http://www.w3.org/2000/svg" width="109" height="109" viewBox="0 0 109 109"><g id="kvg:StrokePaths_07c81"><g id="kvg:07c81" kvg:element="粁"><g id="kvg:07c81-g1" kvg:element="米" kvg:variant="true" kvg:position="left" kvg:radical="general"><path id="kvg:07c81-s1" kvg:type="㇔" d="M12.94 23.39c3.28 2.54 8.24 9.96 9.06 13.91"/><path id="kvg:07c81-s2" kvg:type="㇒" d="M46.76 21.47c0 .91-.17 1.85-.5 2.57-1.76 3.84-3.51 7.34-6.94 11.76"/><path id="kvg:07c81-s3" kvg:type="㇐" d="M11.1 45.35c2.52.65 4.67.72 7.15.44 7.02-.81 18.27-2.97 24.64-3.9 1.72-.34 3.46-.43 5.21-.29"/><path id="kvg:07c81-s4" kvg:type="㇑" d="M30.77 15.21c1.13 1.13 1.59 2.54 1.59 4.44.0.73-.07 44.04-.1 65.35-.01 5.68-.01 9.8-.01 11.12"/><path id="kvg:07c81-s5" kvg:type="㇒" d="M31.52 44.71c0 1.91-1.02 4.92-1.82 6.82C25.4 61.83 17.39 72.61 10 79.98"/><path id="kvg:07c81-s6" kvg:type="㇔/㇏" d="M35.62 51.07c5.06 3.23 7.75 7.06 9.65 11.15"/></g><g id="kvg:07c81-g2" kvg:element="千" kvg:position="right"><g id="kvg:07c81-g3" kvg:element="丿" kvg:position="top"><path id="kvg:07c81-s7" kvg:type="㇒" d="M88.17 12.42c-.3 1.71-.93 2.38-2.11 3.26-5.89 4.38-17.69 9.07-34.5 15.08"/></g><g id="kvg:07c81-g4" kvg:element="十" kvg:position="bottom"><path id="kvg:07c81-s8" kvg:type="㇐" d="M49.22 51.75c2.98.59 6.15.25 9.17-.06 10.23-1.07 21.44-2.47 33.23-2.95 2.32-.25 4.62-.15 6.91.3"/><path id="kvg:07c81-s9" kvg:type="㇑" d="M72.6 26.04c.93.93 1.13 2.71 1.13 4.53.0.74.01 35.71.02 54.93.0 5.83.0 10.21.0 11.75"/></g></g></g></g></svg>