<svg xmlns="http://www.w3.org/2000/svg" width="109" height="109" viewBox="0 0 109 109"><g id="kvg:StrokePaths_07c8d" style="fill:none;stroke:#000000;stroke-width:3;stroke-linecap:round;stroke-linejoin:round;"><g id="kvg:07c8d" kvg:element="粍"><g id="kvg:07c8d-g1" kvg:element="米" kvg:variant="true" kvg:position="left" kvg:radical="general"><path id="kvg:07c8d-s1" kvg:type="㇔" d="M13.19 25.89c2.83 2.17 7.1 8.29 7.81 11.66"/><path id="kvg:07c8d-s2" kvg:type="㇒" d="M45.26 23.47c.02.31.04.81-.04 1.26-.51 2.66-3.42 8.49-7.4 12.06"/><path id="kvg:07c8d-s3" kvg:type="㇐" d="M11.1 45.77c.53.23 1.94.8 3.35.68 5.05-.45 22.05-2.7 27.76-3.42 1.4-.18 1.76-.23 2.65.0"/><path id="kvg:07c8d-s4" kvg:type="㇑" d="M28.52 13.96c.88.45 1.41 2.03 1.59 2.94s0 74.24-.18 79.89"/><path id="kvg:07c8d-s5" kvg:type="㇒" d="M30.02 44.96C26.67 56.79 18.53 73.4 11 80.23"/><path id="kvg:07c8d-s6" kvg:type="㇔/㇏" d="M32.62 51.07c4.58 2.9 7.95 6.25 9.65 11.15"/></g><g id="kvg:07c8d-g2" kvg:element="毛" kvg:position="right"><path id="kvg:07c8d-s7" kvg:type="㇒" d="M77.28 16c.07.43-.69 2.23-1.15 2.73-4.3 4.62-13.11 10.76-24.39 15.52"/><path id="kvg:07c8d-s8" kvg:type="㇐" d="M48.5 50.39c.99.35 2.81.45 3.79.35 10.29-1.1 24.36-4.27 32.87-5.08 1.63-.15 2.64.16 3.46.34"/><path id="kvg:07c8d-s9" kvg:type="㇐" d="M44.13 70c1.05.31 4.1.51 5.13.31 11.99-2.31 31-6.48 40.49-7.19 1.74-.13 3.91.15 4.79.3"/><path id="kvg:07c8d-s10" kvg:type="㇟" d="M64.99 31.87c.59 1.14 1.06 2.49 1.1 4.25.16 7.87-.58 39.83-.58 44.66.0 12.74 3.5 13.24 15.24 13.24C95.5 94.03 95 91.6 95 83.19"/></g></g></g></svg>