<svg xmlns="http://www.w3.org/2000/svg" width="109" height="109" viewBox="0 0 109 109"><g id="kvg:StrokePaths_07c9b"><g id="kvg:07c9b" kvg:element="粛"><g id="kvg:07c9b-g1" kvg:element="聿" kvg:partial="true" kvg:radical="tradit"><g id="kvg:07c9b-g2" kvg:element="⺕" kvg:variant="true" kvg:original="彑"><path id="kvg:07c9b-s1" kvg:type="㇕c" d="M29.25 22.28c2.71.71 5.38.95 8.13.61 12.24-1.52 28.76-3.23 38.12-3.64 2.92-.13 4.51 1.25 3.87 4.16-.83 3.76-2.24 10.35-3.37 17.03"/><path id="kvg:07c9b-s2" kvg:type="㇐" d="M15.75 35.08c4.25.79 7.38.62 11.12.1 21.13-2.94 42.96-4.93 58.89-5.86 3.59-.21 7.21-.18 10.74.44"/><path id="kvg:07c9b-s3" kvg:type="㇐" d="M28.5 46.04c3.19.56 6.23.3 9.38-.18 12.34-1.87 23.31-3.02 33.87-3.96 2.3-.21 4.45-.29 6.74.04"/></g><g id="kvg:07c9b-g3" kvg:element="丨" kvg:radical="nelson"><path id="kvg:07c9b-s4" kvg:type="㇑" d="M53.12 10.75c1 1 1.46 2.38 1.46 4 0 .78-.06 50.39-.08 75.75.0 3.23.0 6.07.0 8.38"/></g></g><g id="kvg:07c9b-g4" kvg:element="米" kvg:partial="true"><path id="kvg:07c9b-s5" kvg:type="㇔" d="M39.4 53.88c2.26 1.49 5.66 5.69 6.22 8"/><path id="kvg:07c9b-s6" kvg:type="㇒" d="M69.51 48.28c.07.75-.06 1.47-.37 2.16-.95 2.42-3.48 6-7.24 9.55"/><path id="kvg:07c9b-s7" kvg:type="㇐" d="M35.47 67.39c2.4.74 4.3.8 6.03.65 7.89-.67 21.39-2.99 28.99-3.74 1.41-.14 3.28-.57 4.66-.2"/><path id="kvg:07c9b-s8" kvg:type="㇒" d="M51.87 67.6c0 1.4-.44 2.31-1.01 3.26-4.64 7.79-13.54 17.07-21.61 21.25"/><path id="kvg:07c9b-s9" kvg:type="㇔/㇏" d="M57.59 73.5c6.28 2.37 12.91 7.37 16.13 12.02"/></g><path id="kvg:07c9b-s10" kvg:type="㇒" d="M27.51 53.25c.74.75.9 1.58.9 3.03.0 13.26.34 31.97-11.6 40.69"/><path id="kvg:07c9b-s11" kvg:type="㇑" d="M81.37 47c1 1 1.46 2.5 1.46 4 0 3.97.02 24.92.03 37.38.0 3.65.0 6.57.0 8.12"/></g></g></svg>