<svg xmlns="http://www.w3.org/2000/svg" width="109" height="109" viewBox="0 0 109 109"><g id="kvg:StrokePaths_07cad"><g id="kvg:07cad" kvg:element="粭"><g id="kvg:07cad-g1" kvg:element="米" kvg:variant="true" kvg:position="left" kvg:radical="general"><path id="kvg:07cad-s1" kvg:type="㇔" d="M12 25c3.26 2.52 8.19 9.64 9 13.55"/><path id="kvg:07cad-s2" kvg:type="㇒" d="M44.5 21.25c.02.34.04.88-.04 1.37-.51 2.89-3.45 9.24-7.46 13.13"/><path id="kvg:07cad-s3" kvg:type="㇐" d="M9.75 45.98c.62.13 2.28.45 3.92.38 5.91-.25 22.9-2.09 29.59-2.5 1.64-.1 2.06-.13 3.1.0"/><path id="kvg:07cad-s4" kvg:type="㇑" d="M28.73 15.46c.66.45 1.06 2.03 1.19 2.94.13.9.0 71.24-.13 76.89"/><path id="kvg:07cad-s5" kvg:type="㇒" d="M29.52 46.21C26.09 57.7 18.25 71.25 10 80.48"/><path id="kvg:07cad-s6" kvg:type="㇔/㇏" d="M32.75 51c5.35 3.31 8 7 11.28 12.71"/></g><g id="kvg:07cad-g2" kvg:element="合" kvg:position="right"><g id="kvg:07cad-g3" kvg:position="top"><g id="kvg:07cad-g4" kvg:element="人"><path id="kvg:07cad-s7" kvg:type="㇒" d="M67.75 13.5c.06.92-.21 2.46-.63 3.71-2.89 8.64-8.71 24.7-21.06 35.48"/><path id="kvg:07cad-s8" kvg:type="㇏" d="M68.33 18.08c3.74 5.99 19.87 25.55 24 29.94 1.4 1.49 3.2 2.13 4.6 2.55"/></g><g id="kvg:07cad-g5" kvg:element="一"><path id="kvg:07cad-s9" kvg:type="㇐" d="M55.8 52.35c.61.16 3.43.17 4.03.16 6.3-.18 12.29-1.42 21.3-1.45 1.01.0 2.47.07 2.98.15"/></g></g><g id="kvg:07cad-g6" kvg:element="口" kvg:position="bottom"><path id="kvg:07cad-s10" kvg:type="㇑" d="M51.59 67.83c.47.59 1.53 2.01 1.65 2.79 1.56 10.15 2.74 17.45 3.8 25.91"/><path id="kvg:07cad-s11" kvg:type="㇕b" d="M54.31 69.93c11.55-1.51 23.9-2.39 29.66-3.12 2.11-.27 3.37 1.59 3.07 3.16-1.25 6.51-1.51 12.48-4.07 21.59"/><path id="kvg:07cad-s12" kvg:type="㇐b" d="M57.25 94.48c6.41-.71 16.5-1.73 28.22-1.83"/></g></g></g></g></svg>