<svg xmlns="http://www.w3.org/2000/svg" width="109" height="109" viewBox="0 0 109 109"><g id="kvg:StrokePaths_07cab" style="fill:none;stroke:#000000;stroke-width:3;stroke-linecap:round;stroke-linejoin:round;"><g id="kvg:07cab" kvg:element="粫"><g id="kvg:07cab-g1" kvg:element="米" kvg:variant="true" kvg:position="left" kvg:radical="general"><path id="kvg:07cab-s1" kvg:type="㇔" d="M13.19 26.14c3.1 2.44 8.03 9.81 8.81 13.6"/><path id="kvg:07cab-s2" kvg:type="㇒" d="M44.26 22.97c.02.33.04.84-.04 1.31-.51 2.76-3.42 8.81-7.4 12.51"/><path id="kvg:07cab-s3" kvg:type="㇐" d="M9.46 46.37c.6.17 2.22.6 3.82.51 5.77-.33 22.39-2.19 28.91-2.74 1.6-.13 2.01-.17 3.02.0"/><path id="kvg:07cab-s4" kvg:type="㇑" d="M28.71 15.01c1.19.71 1.79 3.1 1.86 5.09.03.72.18 43.94.1 65.71-.01 4.13-.03 7.42-.03 9.44"/><path id="kvg:07cab-s5" kvg:type="㇒" d="M30.45 48.31C26.93 59.54 17.13 74.26 9.38 82.24"/><path id="kvg:07cab-s6" kvg:type="㇔/㇏" d="M32.62 50.82c5.16 3.43 8.96 7.39 10.88 13.18"/></g><g id="kvg:07cab-g2" kvg:element="而" kvg:position="right"><g id="kvg:07cab-g3" kvg:position="top"><path id="kvg:07cab-s7" kvg:type="㇐" d="M52.32 24.3c.88.23 2.5.26 3.38.23 6.78-.24 27.9-2.09 37.51-2.21 1.47-.02 2.35.11 3.08.22"/><path id="kvg:07cab-s8" kvg:type="㇒" d="M73.5 28c.02.36.04.93-.04 1.45-.46 3.06-3.12 9.77-6.75 13.87"/></g><g id="kvg:07cab-g4" kvg:position="bottom"><g id="kvg:07cab-g5" kvg:element="冂"><path id="kvg:07cab-s9" kvg:type="㇑" d="M52.21 46.32c.29 1.21.65 1.63.72 3.83.08 2.47.08 25.01.08 36.5.0 3.21.0 5.56.0 6.36"/><path id="kvg:07cab-s10" kvg:type="㇆a" d="M54.57 48.02c10.28-.95 37.6-3.14 38.74-3.2 2.33-.12 3.66 1.2 3.57 3.01-.2 4.1-1.33 33.64-1.67 40.48-.56 11.46-3.84 5.51-6.44 2.64"/></g><path id="kvg:07cab-s11" kvg:type="㇑" d="M65.78 47.22c.48.98.85 2.13.85 5.37.01 9.9-.24 19.76-.28 30.36-.01 2.15-.01 4.33.01 6.55"/><path id="kvg:07cab-s12" kvg:type="㇑" d="M79.13 47.39c.49.92.93 2 .91 5.05-.05 9.19.0 20.34.03 29.44.01 2.72.01 5.25.01 7.5"/></g></g></g></g></svg>