<!DOCTYPE svg PUBLIC "-//W3C//DTD SVG 1.0//EN" "http://www.w3.org/TR/2001/REC-SVG-20010904/DTD/svg10.dtd" [
<!ATTLIST g
xmlns:kvg CDATA #FIXED "http://kanjivg.tagaini.net"
kvg:element CDATA #IMPLIED
kvg:variant CDATA #IMPLIED
kvg:partial CDATA #IMPLIED
kvg:original CDATA #IMPLIED
kvg:part CDATA #IMPLIED
kvg:number CDATA #IMPLIED
kvg:tradForm CDATA #IMPLIED
kvg:radicalForm CDATA #IMPLIED
kvg:position CDATA #IMPLIED
kvg:radical CDATA #IMPLIED
kvg:phon CDATA #IMPLIED >
<!ATTLIST path
xmlns:kvg CDATA #FIXED "http://kanjivg.tagaini.net"
kvg:type CDATA #IMPLIED >
]><svg xmlns="http://www.w3.org/2000/svg" width="109" height="109" viewBox="0 0 109 109"><g id="kvg:StrokePaths_07cb9" style="fill:none;stroke:#000000;stroke-width:3;stroke-linecap:round;stroke-linejoin:round;"><g id="kvg:07cb9" kvg:element="粹"><g id="kvg:07cb9-g1" kvg:element="米" kvg:variant="true" kvg:position="left" kvg:radical="general"><path id="kvg:07cb9-s1" kvg:type="㇔" d="M16.5 26c2.72 2.1 6.82 8.04 7.5 11.3"/><path id="kvg:07cb9-s2" kvg:type="㇒" d="M47.26 22.75c.02.34.04.87-.04 1.35-.51 2.84-3.45 9.08-7.46 12.9"/><path id="kvg:07cb9-s3" kvg:type="㇐" d="M15.1 45.52c.55.16 2.01.55 3.46.47 5.21-.31 20.17-2.54 26.07-3.04 1.45-.12 1.82-.16 2.73.0"/><path id="kvg:07cb9-s4" kvg:type="㇑" d="M31.52 14.96c.98.54 1.41 2.03 1.59 2.94s0 71.74-.18 77.39"/><path id="kvg:07cb9-s5" kvg:type="㇒" d="M33.02 45.46c-3.79 10.49-13 25.21-21.52 31.26"/><path id="kvg:07cb9-s6" kvg:type="㇔/㇏" d="M35.87 51.07c3.98 2.65 6.9 5.71 8.38 10.18"/></g><g id="kvg:07cb9-g2" kvg:element="卒" kvg:position="right"><g id="kvg:07cb9-g3" kvg:position="top"><g id="kvg:07cb9-g4" kvg:element="亠"><path id="kvg:07cb9-s7" kvg:type="㇑a" d="M68.64 14c.49.36 1.3 1.76 1.3 2.48.0 2.65-.16 7.53-.06 9.78"/><path id="kvg:07cb9-s8" kvg:type="㇐" d="M50.46 28.25c1.07.08 3.5.52 4.54.41 8.38-.86 23.4-2.52 34.04-2.74 1.76-.04 2.65.04 3.96.53"/></g><g id="kvg:07cb9-g5" kvg:element="从"><g id="kvg:07cb9-g6" kvg:element="人" kvg:position="left"><path id="kvg:07cb9-s9" kvg:type="㇒" d="M60 34.5c0 .5.03.9-.08 1.5-.53 3.12-5.59 13.52-9.92 18.13"/><path id="kvg:07cb9-s10" kvg:type="㇏" d="M59.8 42.21c2.88 1.18 6.57 4.31 7.98 7.29"/></g><g id="kvg:07cb9-g7" kvg:element="人" kvg:position="right"><path id="kvg:07cb9-s11" kvg:type="㇒" d="M84 33.25c0 .46.03.83-.09 1.38-.65 2.88-6.87 12.48-12.2 16.75"/><path id="kvg:07cb9-s12" kvg:type="㇏" d="M83.61 42.71c3.85 1.54 8.76 5.65 10.64 9.54"/></g></g></g><g id="kvg:07cb9-g8" kvg:element="十" kvg:position="bottom"><path id="kvg:07cb9-s13" kvg:type="㇐" d="M46 67.58c1.26.3 3.56.37 4.82.29 15.97-1 33.01-2.55 44.03-2.68 2.09-.02 3.35.14 4.4.29"/><path id="kvg:07cb9-s14" kvg:type="㇑" d="M70.03 56c.58.56 1.32 2.19 1.44 3.3.12 1.12-.08 30.21-.19 37.2"/></g></g></g></g><g id="kvg:StrokeNumbers_07cb9" style="font-size:8;fill:#808080"><text transform="matrix(1 0 0 1 10.50 26.50)">1</text><text transform="matrix(1 0 0 1 39.50 21.50)">2</text><text transform="matrix(1 0 0 1 7.50 46.50)">3</text><text transform="matrix(1 0 0 1 21.75 15.50)">4</text><text transform="matrix(1 0 0 1 20.75 56.50)">5</text><text transform="matrix(1 0 0 1 40.50 52.50)">6</text><text transform="matrix(1 0 0 1 60.50 14.50)">7</text><text transform="matrix(1 0 0 1 52.50 25.50)">8</text><text transform="matrix(1 0 0 1 51.50 37.50)">9</text><text transform="matrix(1 0 0 1 63.50 42.45)">10</text><text transform="matrix(1 0 0 1 73.50 35.50)">11</text><text transform="matrix(1 0 0 1 87.50 42.50)">12</text><text transform="matrix(1 0 0 1 46.50 64.50)">13</text><text transform="matrix(1 0 0 1 57.50 58.50)">14</text></g></svg>