<svg xmlns="http://www.w3.org/2000/svg" width="109" height="109" viewBox="0 0 109 109"><g id="kvg:StrokePaths_07cce"><g id="kvg:07cce" kvg:element="糎"><g id="kvg:07cce-g1" kvg:element="米" kvg:variant="true" kvg:position="left" kvg:radical="general"><path id="kvg:07cce-s1" kvg:type="㇔" d="M14.69 27.14c2.29 2.4 5.74 9.43 6.31 13.16"/><path id="kvg:07cce-s2" kvg:type="㇒" d="M42.02 23.47c.05.79-.01 1.56-.18 2.33-1.21 3.71-2.88 8.29-5.76 12.75"/><path id="kvg:07cce-s3" kvg:type="㇐" d="M11.85 47.27c1.98.74 3.96.66 6.04.42 6.25-.72 15.27-1.78 20.61-2.44 1.44-.25 2.9-.32 4.36-.21"/><path id="kvg:07cce-s4" kvg:type="㇑" d="M27.74 14.71c1.02 1.02 1.41 2.41 1.41 3.82.0.77.04 45.35.06 66.47.0 5.15.01 8.91.01 10.29"/><path id="kvg:07cce-s5" kvg:type="㇒" d="M28.77 46.96c0 1.66-.67 3.81-1.32 5.34C22.88 63 16.88 73.12 8.25 82.73"/><path id="kvg:07cce-s6" kvg:type="㇔/㇏" d="M31.62 53.32c4.82 2.77 7.88 6.56 9.9 10.4"/></g><g id="kvg:07cce-g2" kvg:element="厘" kvg:position="right"><g id="kvg:07cce-g3" kvg:element="厂" kvg:position="tare"><path id="kvg:07cce-s7" kvg:type="㇐" d="M47.89 21.69c2.66.62 5.28.4 8 .08 9.86-1.15 19.86-2.02 30.99-3.03 2.51-.23 4.99-.16 7.46.36"/><path id="kvg:07cce-s8" kvg:type="㇒" d="M49.39 22.47c.76.76.93 1.9.94 3.13C50.5 52 50.12 76.5 39.31 92.08"/></g><g id="kvg:07cce-g4" kvg:element="里" kvg:position="tarec"><g id="kvg:07cce-g5" kvg:element="日"><path id="kvg:07cce-s9" kvg:type="㇑" d="M56.7 34.01c.69.69 1 1.52 1.13 2.46 1.04 7.65 2.29 16.4 3.28 25.53"/><path id="kvg:07cce-s10" kvg:type="㇕a" d="M57.83 34.64c10-1.37 21.86-2.54 28.69-3.38 3.53-.44 5.66.48 5.11 4.39-.78 5.67-2.9 16.48-3.83 23.43"/><path id="kvg:07cce-s11" kvg:type="㇐a" d="M60.4 46.96c9.97-1.09 19.97-2.21 29.12-2.77"/><path id="kvg:07cce-s12" kvg:type="㇐a" d="M62.3 59.24c6.07-.5 15.45-1.49 24.5-1.91"/></g><path id="kvg:07cce-s13" kvg:type="㇑a" d="M73.15 34.86c.87.87 1.2 2.26 1.2 3.92.0 12.57-.1 45.81-.1 49.35"/><path id="kvg:07cce-s14" kvg:type="㇐" d="M57.66 73.65c2.23.29 4.48.47 6.71.18C71.75 72.88 78.5 72.25 86 71.6c2.01-.17 4 .12 5.95.61"/><path id="kvg:07cce-s15" kvg:type="㇐" d="M50.86 90.27c2.88.72 5.8.83 8.77.5 8.87-1.02 20.12-1.89 29.37-2.41 3.49-.19 7.47.22 10.93.92"/></g></g></g></g></svg>