<!DOCTYPE svg PUBLIC "-//W3C//DTD SVG 1.0//EN" "http://www.w3.org/TR/2001/REC-SVG-20010904/DTD/svg10.dtd" [
<!ATTLIST g
xmlns:kvg CDATA #FIXED "http://kanjivg.tagaini.net"
kvg:element CDATA #IMPLIED
kvg:variant CDATA #IMPLIED
kvg:partial CDATA #IMPLIED
kvg:original CDATA #IMPLIED
kvg:part CDATA #IMPLIED
kvg:number CDATA #IMPLIED
kvg:tradForm CDATA #IMPLIED
kvg:radicalForm CDATA #IMPLIED
kvg:position CDATA #IMPLIED
kvg:radical CDATA #IMPLIED
kvg:phon CDATA #IMPLIED >
<!ATTLIST path
xmlns:kvg CDATA #FIXED "http://kanjivg.tagaini.net"
kvg:type CDATA #IMPLIED >
]><svg xmlns="http://www.w3.org/2000/svg" width="109" height="109" viewBox="0 0 109 109"><g id="kvg:StrokePaths_07cc5" style="fill:none;stroke:#000000;stroke-width:3;stroke-linecap:round;stroke-linejoin:round;"><g id="kvg:07cc5" kvg:element="糅"><g id="kvg:07cc5-g1" kvg:element="米" kvg:variant="true" kvg:position="left" kvg:radical="general"><path id="kvg:07cc5-s1" kvg:type="㇔" d="M12.44 25.39c3.1 2.54 7.78 9.71 8.56 13.66"/><path id="kvg:07cc5-s2" kvg:type="㇒" d="M44.01 22.72c.02.3.04.77-.04 1.19-.49 2.51-3.3 8.01-7.15 11.38"/><path id="kvg:07cc5-s3" kvg:type="㇐" d="M8.85 46.22c.59.11 2.18.4 3.75.34 5.66-.22 21.9-1.86 28.29-2.22 1.57-.09 1.97-.11 2.96.0"/><path id="kvg:07cc5-s4" kvg:type="㇑" d="M28.52 14.96c.88.45 1.41 2.03 1.59 2.94s0 73.24-.18 78.89"/><path id="kvg:07cc5-s5" kvg:type="㇒" d="M30.02 45.96C26.5 57.37 17.93 73.39 10 79.98"/><path id="kvg:07cc5-s6" kvg:type="㇔/㇏" d="M31.25 52.25c4.63 3.38 8.03 7.29 9.75 13"/></g><g id="kvg:07cc5-g2" kvg:element="柔" kvg:position="right"><g id="kvg:07cc5-g3" kvg:element="矛" kvg:position="top"><g id="kvg:07cc5-g4" kvg:element="予"><g id="kvg:07cc5-g5" kvg:element="マ" kvg:position="top"><path id="kvg:07cc5-s7" kvg:type="㇇" d="M52.49 14.91c.76.59 3.01 1.34 3.98 1.25 4.28-.41 26.09-2.71 28.11-3s2.71 1.2 1.51 2.13c-2.07 1.6-11.55 8.56-12.83 9.7"/><path id="kvg:07cc5-s8" kvg:type="㇔" d="M63 21.25c2.94 1.04 9.87 5.03 11.25 7.75"/></g><g id="kvg:07cc5-g6" kvg:element="了" kvg:position="bottom"><path id="kvg:07cc5-s9" kvg:type="㇇" d="M47.99 32.67c.62.22 2.48.97 4.48.81 13.88-1.09 27.94-2.45 37.17-2.83 9.86-.41.2 7.79-2.89 10.59"/><g id="kvg:07cc5-g7" kvg:element="亅"><path id="kvg:07cc5-s10" kvg:type="㇚" d="M73.02 33.15c0 6.45-.03 10.64-.03 14.66.0 4.85-4.52 1.27-6.29-.25"/></g></g></g><g id="kvg:07cc5-g8" kvg:element="丿"><path id="kvg:07cc5-s11" kvg:type="㇒" d="M67.25 32.75c.06.45.22 1.19-.12 1.81-2.62 4.8-8.36 11.5-21.49 17.3"/></g></g><g id="kvg:07cc5-g9" kvg:element="木" kvg:position="bottom"><path id="kvg:07cc5-s12" kvg:type="㇐" d="M46.56 66.35c1.35.28 2.88.36 4.43.26 7.88-.52 31.06-1.78 42.98-2.4 1.53-.08 2.5.03 4.04.22"/><path id="kvg:07cc5-s13" kvg:type="㇑" d="M70.42 56.33c.7.99 1.23 2.19 1.23 3.2.0 10.35.0 33.3-.18 39.46"/><path id="kvg:07cc5-s14" kvg:type="㇒" d="M68.25 66c-4.1 9.08-16.61 20.89-27.75 24.75"/><path id="kvg:07cc5-s15" kvg:type="㇏" d="M72.35 65.95c2.95 3.01 16.83 18.12 20.04 21.08 1.09 1 2.02 1.43 3.11 1.72"/></g></g></g></g><g id="kvg:StrokeNumbers_07cc5" style="font-size:8;fill:#808080"><text transform="matrix(1 0 0 1 5.50 25.50)">1</text><text transform="matrix(1 0 0 1 38.50 18.50)">2</text><text transform="matrix(1 0 0 1 2.50 46.50)">3</text><text transform="matrix(1 0 0 1 18.50 14.50)">4</text><text transform="matrix(1 0 0 1 19.50 56.50)">5</text><text transform="matrix(1 0 0 1 36.50 53.25)">6</text><text transform="matrix(1 0 0 1 49.50 11.50)">7</text><text transform="matrix(1 0 0 1 56.50 24.50)">8</text><text transform="matrix(1 0 0 1 49.50 30.50)">9</text><text transform="matrix(1 0 0 1 75.50 40.50)">10</text><text transform="matrix(1 0 0 1 50.50 42.50)">11</text><text transform="matrix(1 0 0 1 44.50 63.50)">12</text><text transform="matrix(1 0 0 1 58.50 58.73)">13</text><text transform="matrix(1 0 0 1 49.50 76.50)">14</text><text transform="matrix(1 0 0 1 81.75 73.33)">15</text></g></svg>