<svg xmlns="http://www.w3.org/2000/svg" width="109" height="109" viewBox="0 0 109 109"><g id="kvg:StrokePaths_07cc2"><g id="kvg:07cc2" kvg:element="糂"><g id="kvg:07cc2-g1" kvg:element="米" kvg:variant="true" kvg:position="left" kvg:radical="general"><path id="kvg:07cc2-s1" kvg:type="㇔" d="M12.19 24.64c2.47 2.3 6.19 8.79 6.81 12.36"/><path id="kvg:07cc2-s2" kvg:type="㇒" d="M40.76 20.75c.02.34.03.87-.03 1.35-.4 2.85-2.73 9.11-5.9 12.94"/><path id="kvg:07cc2-s3" kvg:type="㇐" d="M10.85 44.75c.51.14 1.87.48 3.22.4 4.85-.27 19.77-2.21 25.25-2.64 1.35-.11 1.69-.14 2.54.0"/><path id="kvg:07cc2-s4" kvg:type="㇑" d="M26.02 14.96c.88.45 1.41 2.03 1.59 2.94s0 73.24-.18 78.89"/><path id="kvg:07cc2-s5" kvg:type="㇒" d="M27.52 44.46C24.7 55.88 17.84 71.91 11.5 78.5"/><path id="kvg:07cc2-s6" kvg:type="㇔/㇏" d="M28.5 51.75c5.12 3.38 7.75 7 10.78 12.96"/></g><g id="kvg:07cc2-g2" kvg:element="甚" kvg:position="right"><g id="kvg:07cc2-g3" kvg:element="甘" kvg:position="top"><g id="kvg:07cc2-g4" kvg:element="廿" kvg:part="1"><g id="kvg:07cc2-g5" kvg:element="十"><path id="kvg:07cc2-s7" kvg:type="㇐" d="M47 26.63c.98.25 2.77.33 3.75.28 7.2-.33 28.86-2.08 41.32-2.42 1.63-.05 2.61.15 3.42.27"/><path id="kvg:07cc2-s8" kvg:type="㇑" d="M56.3 14.89c.83.5 1.34 2.17 1.51 3.13.17.96.28 38.78.16 43.68"/></g><path id="kvg:07cc2-s9" kvg:type="㇑" d="M78.83 11.77c.86.51 1.38 2.24 1.55 3.23.17.98.36 40.1.24 45"/></g><path id="kvg:07cc2-s10" kvg:type="㇐" d="M58.45 38.82c2.68-.32 19.67-1.35 21.56-1.3"/><g id="kvg:07cc2-g6" kvg:element="廿" kvg:part="2"><path id="kvg:07cc2-s11" kvg:type="㇐" d="M58.48 49.88c4.09-.09 18.12-1.41 21.9-1.51"/></g></g><g id="kvg:07cc2-g7" kvg:element="匹" kvg:position="bottom"><g id="kvg:07cc2-g8" kvg:element="匚" kvg:part="1"><path id="kvg:07cc2-s12" kvg:type="㇐" d="M44.75 62.55c1.38.26 3.92.33 5.3.31 14.39-.24 29.29-2.35 43.36-2.61 2.3-.04 3.69.16 4.84.3"/></g><g id="kvg:07cc2-g9" kvg:element="儿"><g id="kvg:07cc2-g10" kvg:element="八" kvg:variant="true"><g id="kvg:07cc2-g11" kvg:element="丿" kvg:position="left"><path id="kvg:07cc2-s13" kvg:type="㇒" d="M65.13 64.64c.37 1.11.32 2.06.23 2.65-.73 4.78-3.11 9.21-9.28 15.92"/></g><g id="kvg:07cc2-g12" kvg:position="right"><path id="kvg:07cc2-s14" kvg:type="㇟" d="M74.65 62.68c.66.96 1.22 2.1 1.22 3.56.01 2.11-.15 3.94-.14 7.66-.08 4.84.72 6.16 7.63 6.3 4.87.12 9.02-.82 9.84-1.7"/></g></g></g><g id="kvg:07cc2-g13" kvg:element="匚" kvg:part="2"><path id="kvg:07cc2-s15" kvg:type="㇗" d="M50.37 62.86c.67.92.47 2.97.47 6.22.0 3.07-.06 4.52-.06 13.2s-.28 10.35 22.37 10.35c15.1.0 18.32-1.51 20.83-2.56"/></g></g></g></g></g></svg>