<svg xmlns="http://www.w3.org/2000/svg" width="109" height="109" viewBox="0 0 109 109"><g id="kvg:StrokePaths_07ce2" style="fill:none;stroke:#000000;stroke-width:3;stroke-linecap:round;stroke-linejoin:round;"><g id="kvg:07ce2" kvg:element="糢"><g id="kvg:07ce2-g1" kvg:element="米" kvg:variant="true" kvg:position="left" kvg:radical="general"><path id="kvg:07ce2-s1" kvg:type="㇔" d="M15.26 28.1c2.24 2.29 5.86 8.97 6.67 12.74"/><path id="kvg:07ce2-s2" kvg:type="㇒" d="M42 25.75c.02.3.03.78-.03 1.21-.39 2.54-2.64 8.13-5.72 11.54"/><path id="kvg:07ce2-s3" kvg:type="㇐" d="M11.35 48.03c.57.12 2.08.43 3.59.36 5.41-.24 20.96-1.99 27.08-2.38 1.5-.1 1.89-.12 2.84.0"/><path id="kvg:07ce2-s4" kvg:type="㇑" d="M28.02 15.46c.88.45 1.41 2.03 1.59 2.94s0 72.24-.18 77.89"/><path id="kvg:07ce2-s5" kvg:type="㇒" d="M29.52 47.46C26 58.37 17.43 73.68 9.5 79.98"/><path id="kvg:07ce2-s6" kvg:type="㇔/㇏" d="M32.62 53.82c4.58 2.71 7.95 5.83 9.65 10.4"/></g><g id="kvg:07ce2-g2" kvg:element="莫" kvg:position="right"><g id="kvg:07ce2-g3" kvg:element="艹" kvg:variant="true" kvg:original="艸" kvg:position="top"><path id="kvg:07ce2-s7" kvg:type="㇐" d="M47.75 24.57c1.19.43 2.57.52 3.76.43 10.92-.79 28.98-3.26 41.57-3.32 1.98-.01 3.17.21 4.16.42"/><path id="kvg:07ce2-s8" kvg:type="㇑a" d="M57.8 14.44c1.47 1.22 1.94 1.58 2.1 2.33 1.47 7 1.89 12.43 2.31 14.98"/><path id="kvg:07ce2-s9" kvg:type="㇑a" d="M80.09 12.74c.66 1.01 1.02 2.79.74 4.05-1.32 5.96-1.07 7.21-2.46 13.01"/></g><g id="kvg:07ce2-g4" kvg:position="bottom"><g id="kvg:07ce2-g5" kvg:element="日"><path id="kvg:07ce2-s10" kvg:type="㇑" d="M51.19 37.16c.43.55 1.21 2.38 1.29 3.1.59 5.53 2.37 20.76 2.52 21.49"/><path id="kvg:07ce2-s11" kvg:type="㇕a" d="M52.19 38.41c6.82-.71 34.09-3.29 36.39-3.28 1.92.0 2.94 2.78 2.83 3.35-.86 4.51-2.87 15.6-4.16 20.21"/><path id="kvg:07ce2-s12" kvg:type="㇐a" d="M54 48.31c3.14.0 31.76-2.2 35.31-2.2"/><path id="kvg:07ce2-s13" kvg:type="㇐a" d="M56.25 59.09c6.81-.32 22.77-1.6 31.25-1.88"/></g><g id="kvg:07ce2-g6" kvg:element="大"><path id="kvg:07ce2-s14" kvg:type="㇐" d="M46.35 72.87c1.91.43 4.06.21 5.31.12 11.34-.74 26.09-2.24 40.66-2.62 1.58-.04 4.18-.12 6.18.41"/><path id="kvg:07ce2-s15" kvg:type="㇒" d="M70.74 61.25c.26 1 .4 2.59.28 3.66C69 83.05 60.8 91.5 43.5 97.25"/><path id="kvg:07ce2-s16" kvg:type="㇏" d="M69.42 71.43c5.63 5.71 17.84 19.17 23.47 22.99 1.91 1.3 2.58 1.5 3.45 1.62"/></g></g></g></g></g></svg>