<!DOCTYPE svg PUBLIC "-//W3C//DTD SVG 1.0//EN" "http://www.w3.org/TR/2001/REC-SVG-20010904/DTD/svg10.dtd" [
<!ATTLIST g
xmlns:kvg CDATA #FIXED "http://kanjivg.tagaini.net"
kvg:element CDATA #IMPLIED
kvg:variant CDATA #IMPLIED
kvg:partial CDATA #IMPLIED
kvg:original CDATA #IMPLIED
kvg:part CDATA #IMPLIED
kvg:number CDATA #IMPLIED
kvg:tradForm CDATA #IMPLIED
kvg:radicalForm CDATA #IMPLIED
kvg:position CDATA #IMPLIED
kvg:radical CDATA #IMPLIED
kvg:phon CDATA #IMPLIED >
<!ATTLIST path
xmlns:kvg CDATA #FIXED "http://kanjivg.tagaini.net"
kvg:type CDATA #IMPLIED >
]><svg xmlns="http://www.w3.org/2000/svg" width="109" height="109" viewBox="0 0 109 109"><g id="kvg:StrokePaths_07ce0" style="fill:none;stroke:#000000;stroke-width:3;stroke-linecap:round;stroke-linejoin:round;"><g id="kvg:07ce0" kvg:element="糠"><g id="kvg:07ce0-g1" kvg:element="米" kvg:variant="true" kvg:position="left" kvg:radical="general"><path id="kvg:07ce0-s1" kvg:type="㇔" d="M12.69 24.64c2.65 1.94 6.9 7.4 7.56 10.41"/><path id="kvg:07ce0-s2" kvg:type="㇒" d="M44.01 19.97c.07 1.02-.03 2.04-.55 2.94C41.25 26.75 40 29 36.32 33.29"/><path id="kvg:07ce0-s3" kvg:type="㇐" d="M11.35 44.02c2.37.5 4.75.58 7.15.25 5.43-.67 13.92-1.62 19.25-2.35 1.85-.38 3.72-.51 5.6-.39"/><path id="kvg:07ce0-s4" kvg:type="㇑" d="M29.27 13.96c.76.76 1.09 2.16 1.09 3.44.0.75-.07 48.8-.1 69.6-.01 4.61-.01 7.88-.01 9"/><path id="kvg:07ce0-s5" kvg:type="㇒" d="M29.52 43.96c0 1.66-1.05 4.4-1.84 6.16C23.5 59.38 18.12 68.5 11 76.23"/><path id="kvg:07ce0-s6" kvg:type="㇔/㇏" d="M33 51.25c3 2.75 5.5 5.88 7.28 10.96"/></g><g id="kvg:07ce0-g2" kvg:element="康" kvg:position="right"><g id="kvg:07ce0-g3" kvg:element="广" kvg:position="tare"><path id="kvg:07ce0-s7" kvg:type="㇑a" d="M69.67 14.63c.91.91 1.14 2.12 1.14 3.24.0.69-.06 3.25-.06 7.48"/><g id="kvg:07ce0-g4" kvg:element="厂"><path id="kvg:07ce0-s8" kvg:type="㇐" d="M48.87 29c3.24.32 6.45.21 9.63-.33 10.35-1.41 19.98-2.93 28.49-3.48 2.55-.23 5.09-.21 7.64.06"/><path id="kvg:07ce0-s9" kvg:type="㇒" d="M51.3 29.71c.93.93 1.07 2.78.93 4.72-.86 11.43-3.31 40.15-12.61 52.45"/></g></g><g id="kvg:07ce0-g5" kvg:element="隶" kvg:position="tarec"><g id="kvg:07ce0-g6" kvg:element="⺕" kvg:variant="true" kvg:original="彑"><path id="kvg:07ce0-s10" kvg:type="㇕" d="M60.25 39.6c1.63.41 3.26.43 4.88.09 8.6-1.13 13.25-1.8 19.86-2.72 3.26-.45 4.36 1.11 3.92 4.16-.65 4.47-1.04 7.75-1.88 13.53"/><path id="kvg:07ce0-s11" kvg:type="㇐" d="M56.85 48.26c2.33.28 4.67.52 7 .29 10.39-1.04 19.72-2.29 27.64-3.09 3.25-.33 5.75-.58 8.31-.48"/><path id="kvg:07ce0-s12" kvg:type="㇐c" d="M58.4 57.54c2.16.44 4.32.55 6.48.32 6.44-.6 13.52-1.52 19-2.12 1.71-.13 3.43-.11 5.14.06"/></g><g id="kvg:07ce0-g7" kvg:element="氺" kvg:variant="true" kvg:original="水"><path id="kvg:07ce0-s13" kvg:type="㇚" d="M73 31.48c.89.89.97 2.4.97 3.62.0 11.52-.09 51.11-.09 55.03.0 7.49-5.71 1.57-6.75.58"/><path id="kvg:07ce0-s14" kvg:type="㇔" d="M56.02 65.25c2.22 1.12 5.74 4.61 6.29 6.36"/><path id="kvg:07ce0-s15" kvg:type="㇀" d="M52.57 86.64c1.5.5 2.73.27 3.67-.69 2.22-1.79 9.37-7.58 11.71-9.68"/><path id="kvg:07ce0-s16" kvg:type="㇒" d="M87.64 62.81c0 .94-.11 1.36-.57 1.94-1.57 1.88-3.54 3.67-8.07 6.76"/><path id="kvg:07ce0-s17" kvg:type="㇏" d="M76.07 73.21c1.79.95 8.54 7.31 13.05 11.17 1.88 1.64 3.98 2.91 6.3 3.8"/></g></g></g></g></g><g id="kvg:StrokeNumbers_07ce0" style="font-size:8;fill:#808080"><text transform="matrix(1 0 0 1 5.50 24.50)">1</text><text transform="matrix(1 0 0 1 36.50 17.50)">2</text><text transform="matrix(1 0 0 1 3.50 45.50)">3</text><text transform="matrix(1 0 0 1 20.50 12.50)">4</text><text transform="matrix(1 0 0 1 19.50 53.50)">5</text><text transform="matrix(1 0 0 1 36.50 51.50)">6</text><text transform="matrix(1 0 0 1 61.50 14.50)">7</text><text transform="matrix(1 0 0 1 51.50 26.50)">8</text><text transform="matrix(1 0 0 1 44.50 37.50)">9</text><text transform="matrix(1 0 0 1 58.50 36.50)">10</text><text transform="matrix(1 0 0 1 55.25 46.50)">11</text><text transform="matrix(1 0 0 1 53.25 55.50)">12</text><text transform="matrix(1 0 0 1 76.50 34.50)">13</text><text transform="matrix(1 0 0 1 59.25 65.50)">14</text><text transform="matrix(1 0 0 1 48.50 82.58)">15</text><text transform="matrix(1 0 0 1 77.25 64.50)">16</text><text transform="matrix(1 0 0 1 84.50 77.43)">17</text></g></svg>