<svg xmlns="http://www.w3.org/2000/svg" width="109" height="109" viewBox="0 0 109 109"><g id="kvg:StrokePaths_07d2e"><g id="kvg:07d2e" kvg:element="紮"><g id="kvg:07d2e-g1" kvg:element="札" kvg:position="top"><g id="kvg:07d2e-g2" kvg:element="木" kvg:position="left"><path id="kvg:07d2e-s1" kvg:type="㇐" d="M15.76 22.37c1.1.36 2.35.47 3.61.36 6.44-.58 21.11-2.13 30.84-2.81 1.25-.09 2.04.06 3.3.31"/><path id="kvg:07d2e-s2" kvg:type="㇑" d="M36.54 10.75c.78.35 1.41 1.56 1.41 2.29.0 7.38.0 26.97-.16 31.36"/><path id="kvg:07d2e-s3" kvg:type="㇒" d="M37.35 22.33c-4.14 6.95-15.24 17.56-23.85 21.49"/><path id="kvg:07d2e-s4" kvg:type="㇏" d="M40.33 25.92c6.42 3.08 9.69 5.7 11.5 8.32"/></g><g id="kvg:07d2e-g3" kvg:element="乙" kvg:variant="true" kvg:position="right"><path id="kvg:07d2e-s5" kvg:type="㇟" d="M62 9.57c.76.77 1.55 2.28 1.58 3.89.16 7.19-.42 12.05-.42 16.94.0 9 2.85 10.12 16.39 10.12 10.96.0 12.35-2.22 12.35-8.01"/></g></g><g id="kvg:07d2e-g4" kvg:element="糸" kvg:position="bottom" kvg:radical="general"><path id="kvg:07d2e-s6" kvg:type="㇜" d="M49.52 39.5c.48 1.25-.03 2.52-1.26 3.6-5.39 4.74-8.01 7.65-13.5 11.22-.99.64-1.02 2.53.0 2.73 5.39 1.09 7.79 1.42 12.41 3.42"/><path id="kvg:07d2e-s7" kvg:type="㇜" d="M64.28 45.65c.47.49.12 2.62-.5 3.14-9.13 7.76-20.57 14.81-33.12 21.88-2.88 1.62-1.29 3.05.59 2.72 7.85-1.38 39.33-4.5 49.41-5.82"/><path id="kvg:07d2e-s8" kvg:type="㇔" d="M69.61 58.4C75.4 61.15 84.55 69.68 86 73.95"/><path id="kvg:07d2e-s9" kvg:type="㇑" d="M53.61 71.76c.09.26 1.2 1.33 1.29 2.95.41 7.78-.26 24.14-.26 26.79"/><path id="kvg:07d2e-s10" kvg:type="㇒" d="M39.62 81.05c.36.78.3 2.31-.36 2.87C34.94 87.55 24.12 94.56 18 97.67"/><path id="kvg:07d2e-s11" kvg:type="㇔" d="M69.02 80.55c10.08 3.69 17.81 12.28 20.15 15.62"/></g></g></g></svg>