<svg xmlns="http://www.w3.org/2000/svg" width="109" height="109" viewBox="0 0 109 109"><g id="kvg:StrokePaths_07d22"><g id="kvg:07d22" kvg:element="索"><g id="kvg:07d22-g1" kvg:position="top"><g id="kvg:07d22-g2" kvg:element="十" kvg:radical="nelson"><path id="kvg:07d22-s1" kvg:type="㇐" d="M30.63 24.2c2.37.73 4.92.64 7.36.37 7.22-.8 22.77-2.6 31.88-3.14 2.57-.15 5.2-.33 7.75.14"/><path id="kvg:07d22-s2" kvg:type="㇑a" d="M52.88 11.87c1 1 1.6 2.35 1.6 4.32.0 6.06-.09 10.81-.09 18.31"/></g><g id="kvg:07d22-g3" kvg:element="冖"><path id="kvg:07d22-s3" kvg:type="㇔" d="M19.29 38.01c0 3.73-2.78 14-4.04 16.49"/><path id="kvg:07d22-s4" kvg:type="㇖b" d="M20.24 39.99C41 37 68.12 34.38 85.7 33.84c12.06-.37 3.8 6.66-.45 10.03"/></g></g><g id="kvg:07d22-g4" kvg:element="糸" kvg:position="bottom" kvg:radical="tradit"><path id="kvg:07d22-s5" kvg:type="㇜" d="M48.76 42.25c.24 1.5-.26 2.5-1.45 3.78-2.42 2.62-4.44 4.97-8.46 8.46-.7.61-.8 2.07.0 2.23 4.24.89 7.89 1.88 11.53 3.52"/><path id="kvg:07d22-s6" kvg:type="㇜" d="M64.64 45.25c.36 1-.02 2.12-.84 3.09C56.89 56.42 49.25 63 38.75 72.16c-1.2 1.05-.69 2.48.69 2.13 5.78-1.44 24.44-5.84 31.87-7.22"/><path id="kvg:07d22-s7" kvg:type="㇔" d="M67 60.75C70.62 63 76.35 70 77.25 73.5"/><path id="kvg:07d22-s8" kvg:type="㇑" d="M54.75 73.5c.62.62 1.01 1.6 1.01 3.24.0 3.75.0 11.69.0 17.01.0 2.84.0 4.93.0 5.25"/><path id="kvg:07d22-s9" kvg:type="㇒" d="M39.94 83.5c-.06 1.38-.81 2.25-1.85 3.03-4.07 3.06-13.33 7.79-19.33 10.22"/><path id="kvg:07d22-s10" kvg:type="㇔" d="M69.75 80c5.37 3.11 14.58 11.39 16.5 14.5"/></g></g></g></svg>