<svg xmlns="http://www.w3.org/2000/svg" width="109" height="109" viewBox="0 0 109 109"><g id="kvg:StrokePaths_07d2c" style="fill:none;stroke:#000000;stroke-width:3;stroke-linecap:round;stroke-linejoin:round;"><g id="kvg:07d2c" kvg:element="紬"><g id="kvg:07d2c-g1" kvg:element="糸" kvg:position="left" kvg:radical="general"><path id="kvg:07d2c-s1" kvg:type="㇜" d="M28.63 14.92c.34 1.34.27 2.41-.42 3.8-3.2 6.4-6.49 12.15-10.88 17.21-1.21 1.39-1.57 3.19.68 4.43 3.09 1.7 4.75 2.39 8.37 4.75"/><path id="kvg:07d2c-s2" kvg:type="㇜" d="M38.3 26.43c.45 1.32.2 2.57-.5 3.59-6.17 9.02-13.12 18-20.87 26.05-2.33 2.42-1.2 3.98 1.92 3.14 6.26-1.7 14.68-4 20.65-5.43"/><path id="kvg:07d2c-s3" kvg:type="㇔" d="M35.88 47.25c2.57 2.29 7.73 8.92 8.38 12.48"/><path id="kvg:07d2c-s4" kvg:type="㇑" d="M28.89 59.62c.87.87 1.23 2.26 1.23 3.84.0 8-.06 17.86-.1 24.54C30.01 90.34 30 92.28 30 93.62"/><path id="kvg:07d2c-s5" kvg:type="㇒" d="M19.86 68.6c.14.96-.14 2.61-.39 3.3C17.5 77.25 14.5 84 11 88.93"/><path id="kvg:07d2c-s6" kvg:type="㇔" d="M37.68 66.79c3.25 3.95 5.74 13.11 6.49 16.69"/></g><g id="kvg:07d2c-g2" kvg:element="由" kvg:position="right"><g id="kvg:07d2c-g3" kvg:element="日" kvg:part="1" kvg:partial="true"><path id="kvg:07d2c-s7" kvg:type="㇑" d="M51.01 44.08c1.21 1.21 1.31 2.44 1.43 4.43.52 8.71.79 22.29 1.26 37 .07 2.23.15 4.49.23 6.76"/><path id="kvg:07d2c-s8" kvg:type="㇕a" d="M52.75 45.03c12.64-1.31 26.27-2.26 34.75-2.8 4.78-.31 6.5 1.28 6.31 6.15-.32 7.99-1.23 23.92-2.65 35.49-.31 2.52-.64 4.83-1 6.8"/></g><g id="kvg:07d2c-g4" kvg:element="丨"><path id="kvg:07d2c-s9" kvg:type="㇑a" d="M68.84 15.82c1.21 1.13 1.93 2.77 1.93 4.26.04 14.74-.02 63.94-.02 67.79"/></g><g id="kvg:07d2c-g5" kvg:element="日" kvg:part="2" kvg:partial="true"><path id="kvg:07d2c-s10" kvg:type="㇐a" d="M54.23 65.57C62 65 79.38 63.62 91.64 63.5"/><path id="kvg:07d2c-s11" kvg:type="㇐a" d="M54.99 89.65c9.15-.24 21.39-1.03 34.26-.93"/></g></g></g></g></svg>