<svg xmlns="http://www.w3.org/2000/svg" width="109" height="109" viewBox="0 0 109 109"><g id="kvg:StrokePaths_07d4c"><g id="kvg:07d4c" kvg:element="経"><g id="kvg:07d4c-g1" kvg:element="糸" kvg:position="left" kvg:radical="general"><path id="kvg:07d4c-s1" kvg:type="㇜" d="M27.9 14c.31 1.21.51 2.2-.16 3.44C24.25 24 19.75 30.75 15.92 35.49c-.54.67-.62 2.81.0 3.04 3.65 1.36 7.79 3.6 10.14 5.47"/><path id="kvg:07d4c-s2" kvg:type="㇜" d="M38.53 25.69c.34.93.07 2.29-.75 3.44-6.03 8.49-15.03 20.12-22.63 27.98-1.74 1.8.43 2.83 1.57 2.47 4.75-1.53 14.28-4.83 22.23-6.74"/><path id="kvg:07d4c-s3" kvg:type="㇔" d="M34.5 46.25c2.38 1.94 6.15 7.98 6.75 11"/><path id="kvg:07d4c-s4" kvg:type="㇑" d="M26.08 59.76c.77.77 1.28 2.24 1.28 3.53.0 6.16-.08 18.78-.13 26.59-.02 3.16-.03 5.53-.03 6.37"/><path id="kvg:07d4c-s5" kvg:type="㇒" d="M17.5 68.5c.25 1 .25 2-.12 3.11-1.35 3.98-4.66 11.52-6.75 14.89"/><path id="kvg:07d4c-s6" kvg:type="㇔" d="M36.62 68.62c2.19 2.87 3.87 9.53 4.38 12.12"/></g><g id="kvg:07d4c-g2" kvg:element="圣" kvg:position="right" kvg:phon="圣"><g id="kvg:07d4c-g3" kvg:element="又" kvg:position="top"><path id="kvg:07d4c-s7" kvg:type="㇇" d="M49.72 20.07c1.29.32 2.96.31 5.54-.18 2.29-.43 15.96-3.43 20.28-4.59 3.16-.85 5.68-.04 4.07 3.67C70.76 39.38 60.08 50.73 45.32 59.5"/><path id="kvg:07d4c-s8" kvg:type="㇏" d="M50.97 28.98c3.78.61 19.53 12.52 33.56 22.61 3.3 2.38 5.85 4.03 9.1 4.91"/></g><g id="kvg:07d4c-g4" kvg:element="土" kvg:position="bottom"><path id="kvg:07d4c-s9" kvg:type="㇐" d="M49.38 72.42c2.62.71 4.66.32 6.75.09 9.94-1.1 15.03-2.12 25.12-2.51 1.99-.08 3.93-.16 5.88.29"/><path id="kvg:07d4c-s10" kvg:type="㇑a" d="M65.92 55.62c.92.92 1.51 2.27 1.52 4.14.06 11.5-.11 26.32-.11 29.36"/><path id="kvg:07d4c-s11" kvg:type="㇐" d="M41.38 91.1c1.97.7 5.6.88 7.57.7 13.22-1.17 29.12-2.11 39.4-2.07 3.29.01 5.26.33 6.91.69"/></g></g></g></g></svg>