<svg xmlns="http://www.w3.org/2000/svg" width="109" height="109" viewBox="0 0 109 109"><g id="kvg:StrokePaths_07d5b"><g id="kvg:07d5b" kvg:element="絛"><g id="kvg:07d5b-g1" kvg:element="攸" kvg:part="1" kvg:position="left"><g id="kvg:07d5b-g2" kvg:element="亻" kvg:variant="true" kvg:original="人" kvg:position="left"><path id="kvg:07d5b-s1" kvg:type="㇒" d="M32.75 12.5c.24 2.16-.07 4.99-.84 6.84C27 31.12 20.77 42.19 9.5 56.54"/><path id="kvg:07d5b-s2" kvg:type="㇑" d="M24.52 39.5c.29 1.02.78 1.98.78 3.3.0 14.58-.33 44.22-.33 55.2"/></g><g id="kvg:07d5b-g3" kvg:element="丨" kvg:position="right"><path id="kvg:07d5b-s3" kvg:type="㇑" d="M36.26 36.33c.61.92 1.03 1.99 1.08 5.02.25 14.55-.01 36.69-.01 41.65"/></g></g><g id="kvg:07d5b-g4" kvg:position="right"><g id="kvg:07d5b-g5" kvg:element="攸" kvg:part="2" kvg:position="top"><g id="kvg:07d5b-g6" kvg:element="攵" kvg:variant="true" kvg:original="攴"><g id="kvg:07d5b-g7" kvg:element="𠂉" kvg:position="top"><path id="kvg:07d5b-s4" kvg:type="㇒" d="M60.26 11c.04.53.23 1.41-.07 2.14C58.28 17.84 53.1 28.5 46.5 35"/><path id="kvg:07d5b-s5" kvg:type="㇐" d="M60.44 21.34c.03-.06 1.64.18 2.22.17 6.04-.19 17.82-1.91 27.04-2.22 1.04-.03 1.67-.01 1.94.03"/></g><g id="kvg:07d5b-g8" kvg:element="乂" kvg:position="bottom"><g id="kvg:07d5b-g9" kvg:element="丿"><path id="kvg:07d5b-s6" kvg:type="㇒" d="M80 23.5c-.04.84.12 2.5-.75 3.52-6.58 7.71-13.61 14.63-33 21.98"/></g><path id="kvg:07d5b-s7" kvg:type="㇏" d="M55.5 28.25c6.31 1.52 24.32 14.59 35.48 18.33 2.15.72 3.52.84 5.27.92"/></g></g></g><g id="kvg:07d5b-g10" kvg:element="糸" kvg:position="bottom" kvg:radical="general"><path id="kvg:07d5b-s8" kvg:type="㇜" d="M64.03 47c.27.71.51 1.31-.14 2.02-3.14 3.48-5.14 5.73-9.35 9.28-.5.42-.54 1.65.0 1.79 2.86.71 7.26 1.6 9.71 2.91"/><path id="kvg:07d5b-s9" kvg:type="㇜" d="M77.69 50.56c.38.43.0 2.33-.5 2.79-7.39 6.72-16.07 13.12-26.22 19.25-2.33 1.4-.42 2.21 1.09 1.92 6.35-1.2 24.28-4.13 32.43-5.28"/><path id="kvg:07d5b-s10" kvg:type="㇔" d="M79.37 61.95c4.02 2.57 10.38 10.56 11.38 14.55"/><path id="kvg:07d5b-s11" kvg:type="㇑" d="M68.98 74.75c.04.19.49.99.53 2.19.17 5.76-.11 20.85-.11 22.81"/><path id="kvg:07d5b-s12" kvg:type="㇒" d="M55.79 82.25c.23.63.19 1.88-.23 2.33C52.8 87.53 45.91 93.22 42 95.75"/><path id="kvg:07d5b-s13" kvg:type="㇔" d="M80.71 82.9c7.14 2.98 12.63 9.9 14.29 12.6"/></g></g></g></g></svg>