<!DOCTYPE svg PUBLIC "-//W3C//DTD SVG 1.0//EN" "http://www.w3.org/TR/2001/REC-SVG-20010904/DTD/svg10.dtd" [
<!ATTLIST g
xmlns:kvg CDATA #FIXED "http://kanjivg.tagaini.net"
kvg:element CDATA #IMPLIED
kvg:variant CDATA #IMPLIED
kvg:partial CDATA #IMPLIED
kvg:original CDATA #IMPLIED
kvg:part CDATA #IMPLIED
kvg:number CDATA #IMPLIED
kvg:tradForm CDATA #IMPLIED
kvg:radicalForm CDATA #IMPLIED
kvg:position CDATA #IMPLIED
kvg:radical CDATA #IMPLIED
kvg:phon CDATA #IMPLIED >
<!ATTLIST path
xmlns:kvg CDATA #FIXED "http://kanjivg.tagaini.net"
kvg:type CDATA #IMPLIED >
]><svg xmlns="http://www.w3.org/2000/svg" width="109" height="109" viewBox="0 0 109 109"><g id="kvg:StrokePaths_07d56" style="fill:none;stroke:#000000;stroke-width:3;stroke-linecap:round;stroke-linejoin:round;"><g id="kvg:07d56" kvg:element="絖"><g id="kvg:07d56-g1" kvg:element="糸" kvg:position="left" kvg:radical="general"><path id="kvg:07d56-s1" kvg:type="㇜" d="M27.9 12.42c.36 1.42.71 2.63-.18 4.01C23 23.75 19.25 29.5 14.43 34.94c-.67.75-.72 3.27.0 3.54 3.81 1.42 8.14 3.28 11.41 5.88"/><path id="kvg:07d56-s2" kvg:type="㇜" d="M38.3 24.68c.3.58.37 2.46.0 3.09-5.8 9.73-15.99 22.18-23.98 30.44-1.83 1.89.46 2.98 1.65 2.59 5-1.61 17.37-4.49 23.79-6.03"/><path id="kvg:07d56-s3" kvg:type="㇔" d="M34.88 48.38c2.87 2.31 7.4 9.5 8.12 13.1"/><path id="kvg:07d56-s4" kvg:type="㇑" d="M27.64 60.87c.07.36.91 1.85.98 4.09.31 10.79-.2 29.79-.2 33.46"/><path id="kvg:07d56-s5" kvg:type="㇒" d="M17.86 71.1c.15.96.12 2.86-.15 3.55-1.77 4.5-6.2 13.17-8.71 17.03"/><path id="kvg:07d56-s6" kvg:type="㇔" d="M37.18 70.29c3.12 3.65 5.52 12.13 6.24 15.44"/></g><g id="kvg:07d56-g2" kvg:element="光" kvg:position="right"><g id="kvg:07d56-g3" kvg:element="⺌" kvg:variant="true" kvg:original="小" kvg:position="top"><path id="kvg:07d56-s7" kvg:type="㇑" d="M66.73 12.87c.1.27 1.37 1.41 1.46 3.13.47 8.26-.3 27.8-.3 30.62"/><path id="kvg:07d56-s8" kvg:type="㇔" d="M47.25 24.5c3.6 2.95 9.29 12.13 10.2 16.72"/><path id="kvg:07d56-s9" kvg:type="㇒" d="M88.24 20.5c.03.46.07 1.18-.07 1.84-.82 3.89-5.67 11.16-11.93 17.63"/></g><g id="kvg:07d56-g4" kvg:element="兀" kvg:position="bottom"><g id="kvg:07d56-g5" kvg:element="一"><path id="kvg:07d56-s10" kvg:type="㇐" d="M43.51 48.36c1 .29 2.82.33 3.82.28 10.35-.5 26.89-3.3 45.95-3.4 1.66-.01 2.66.13 3.48.28"/></g><g id="kvg:07d56-g6" kvg:element="儿" kvg:original="八"><g id="kvg:07d56-g7" kvg:element="丿"><path id="kvg:07d56-s11" kvg:type="㇒" d="M60 51c.05 1.1.39 2.83.39 4.42.0 12.58-4.14 34.08-19.13 42.33"/></g><path id="kvg:07d56-s12" kvg:type="㇟" d="M73.82 49.62c.47 1.38.84 3.01.86 5.15.09 6.59-.26 19.86-.26 28.98.0 9 1.33 12 11.3 12 10.78.0 12.17-2.5 12.17-9.45"/></g></g></g></g></g><g id="kvg:StrokeNumbers_07d56" style="font-size:8;fill:#808080"><text transform="matrix(1 0 0 1 20.50 12.50)">1</text><text transform="matrix(1 0 0 1 31.50 24.50)">2</text><text transform="matrix(1 0 0 1 33.50 45.50)">3</text><text transform="matrix(1 0 0 1 21.50 69.50)">4</text><text transform="matrix(1 0 0 1 9.50 72.50)">5</text><text transform="matrix(1 0 0 1 34.50 66.50)">6</text><text transform="matrix(1 0 0 1 58.50 11.50)">7</text><text transform="matrix(1 0 0 1 44.50 20.50)">8</text><text transform="matrix(1 0 0 1 81.50 17.50)">9</text><text transform="matrix(1 0 0 1 43.50 45.50)">10</text><text transform="matrix(1 0 0 1 50.50 58.38)">11</text><text transform="matrix(1 0 0 1 63.50 59.50)">12</text></g></svg>