<svg xmlns="http://www.w3.org/2000/svg" width="109" height="109" viewBox="0 0 109 109"><g id="kvg:StrokePaths_07d63"><g id="kvg:07d63" kvg:element="絣"><g id="kvg:07d63-g1" kvg:element="糸" kvg:position="left" kvg:radical="general"><path id="kvg:07d63-s1" kvg:type="㇜" d="M27.4 10.92c.36 1.42.38 2.47-.18 4.01-2.46 6.81-8.46 14.56-13.28 20.01-.67.75-.72 3.27.0 3.54 3.81 1.42 8.64 3.28 11.91 5.88"/><path id="kvg:07d63-s2" kvg:type="㇜" d="M38.8 25.68c.3.58.37 2.46.0 3.09C33 38.5 22.81 49.94 14.82 58.21c-1.83 1.89.46 2.98 1.65 2.59 5-1.61 16.87-4.49 23.29-6.03"/><path id="kvg:07d63-s3" kvg:type="㇔" d="M34.5 46.25c3.09 2.65 7.98 10.88 8.75 15"/><path id="kvg:07d63-s4" kvg:type="㇑" d="M27.14 60.87c.07.36.91 1.85.98 4.09.31 10.79-.2 30.79-.2 34.46"/><path id="kvg:07d63-s5" kvg:type="㇒" d="M18.85 71.1c.16.94.13 2.79-.16 3.47-1.87 4.39-6.55 12.85-9.2 16.62"/><path id="kvg:07d63-s6" kvg:type="㇔" d="M36.93 69.29c3.5 3.77 6.18 12.52 6.99 15.94"/></g><g id="kvg:07d63-g2" kvg:element="并" kvg:position="right"><g id="kvg:07d63-g3" kvg:position="top"><path id="kvg:07d63-s7" kvg:type="㇔" d="M53.03 14.34c3.26 2.37 8.41 9.73 9.22 13.41"/><path id="kvg:07d63-s8" kvg:type="㇒" d="M86.75 12.5c.02.4.04 1.03-.04 1.59-.53 3.36-3.58 10.75-7.76 15.26"/></g><g id="kvg:07d63-g4" kvg:position="bottom"><g id="kvg:07d63-g5" kvg:element="干" kvg:part="1"><path id="kvg:07d63-s9" kvg:type="㇐" d="M49.69 34.31c1 .17 2.84.21 3.84.17 7.41-.25 29.63-2.57 39.16-2.56 1.67.0 2.67.08 3.51.17"/><g id="kvg:07d63-g6" kvg:element="十" kvg:part="1"><path id="kvg:07d63-s10" kvg:type="㇐" d="M47.75 57.57c1.14.38 3.23.46 4.37.38 12.33-.88 29.25-2.81 42.64-3.26 1.9-.06 3.04.18 3.99.38"/></g></g><path id="kvg:07d63-s11" kvg:type="㇒" d="M62.36 35.93c.54 1.67 1.32 2.99 1.32 5.08.0 19.11 1.44 44.79-17.42 56.49"/><g id="kvg:07d63-g7" kvg:element="干" kvg:part="2"><g id="kvg:07d63-g8" kvg:element="十" kvg:part="2"><path id="kvg:07d63-s12" kvg:type="㇑" d="M80.66 34.75c.64.46 1.02 2.09 1.15 3.02.13.93.0 53.18-.13 58.98"/></g></g></g></g></g></g></svg>