<svg xmlns="http://www.w3.org/2000/svg" width="109" height="109" viewBox="0 0 109 109"><g id="kvg:StrokePaths_07d61"><g id="kvg:07d61" kvg:element="絡"><g id="kvg:07d61-g1" kvg:element="糸" kvg:position="left" kvg:radical="general"><path id="kvg:07d61-s1" kvg:type="㇜" d="M29.13 13.92c.34 1.34.57 2.43-.17 3.8-3.7 6.78-7.49 12.56-12.05 17.72-1.15 1.31-1.15 2.68.5 3.35 3.56 1.45 4.6 1.83 8.47 4.31"/><path id="kvg:07d61-s2" kvg:type="㇜" d="M40.8 22.93c.32.95.07 2.2-.75 3.34-6.62 9.2-16.3 20.98-24.73 30.19-1.78 1.94.46 2.98 1.65 2.59 5-1.61 15.87-4.49 22.29-6.03"/><path id="kvg:07d61-s3" kvg:type="㇔" d="M36.63 46.63c2.16 2 5.58 8.24 6.12 11.35"/><path id="kvg:07d61-s4" kvg:type="㇑" d="M27.15 58.41c.87.87 1.23 2.01 1.23 3.84.0 8.45.02 18.61.03 25.5.01 2.73.01 5.1.01 6.92"/><path id="kvg:07d61-s5" kvg:type="㇒" d="M19.13 69.6c.12.96.1 2.11-.12 2.8-1.42 4.5-4.63 12.85-7.51 17.53"/><path id="kvg:07d61-s6" kvg:type="㇔" d="M35.75 68.5c3.34 3.42 5.9 11.37 6.67 14.47"/></g><g id="kvg:07d61-g2" kvg:element="各" kvg:position="right" kvg:phon="各"><g id="kvg:07d61-g3" kvg:element="夂" kvg:position="top"><path id="kvg:07d61-s7" kvg:type="㇒" d="M62.54 14.25c.05.66.0 1.74-.35 2.63-2.69 6.87-8.69 15.87-17.37 25.44"/><path id="kvg:07d61-s8" kvg:type="㇇" d="M62.51 22.16c.33.04 1.78.11 2.71-.11 4.4-1.05 9.71-2.34 14.19-3.43 3.08-.75 3.95 1.1 3.16 3.14-4.31 11.13-21.56 37.68-40.9 45.02"/><path id="kvg:07d61-s9" kvg:type="㇏" d="M56.9 29.83c4.23 4.35 19.57 18.66 28.51 25.67 2.69 2.11 5.58 3.96 8.65 5.45"/></g><g id="kvg:07d61-g4" kvg:element="口" kvg:position="bottom"><path id="kvg:07d61-s10" kvg:type="㇑" d="M54.58 68.76c.75.8 1.17 1.75 1.25 2.85.79 5.52 1.55 11.56 2.19 17.92.19 1.94.38 3.79.56 5.43"/><path id="kvg:07d61-s11" kvg:type="㇕b" d="M56.83 70.97c8.68-1.25 19.36-2.46 24.94-3.07 3.57-.39 5.31.18 4.26 4.12C84.5 77.75 83.25 83 81.57 90"/><path id="kvg:07d61-s12" kvg:type="㇐b" d="M59.51 92.13c5.49-.38 12.9-.94 20.03-1.5 1.8-.14 3.34.0 4.84.0"/></g></g></g></g></svg>