<svg xmlns="http://www.w3.org/2000/svg" width="109" height="109" viewBox="0 0 109 109"><g id="kvg:StrokePaths_07d75"><g id="kvg:07d75" kvg:element="絵"><g id="kvg:07d75-g1" kvg:element="糸" kvg:position="left" kvg:radical="general"><path id="kvg:07d75-s1" kvg:type="㇜" d="M29.9 14.25c.31 1.21.01 2.7-.66 3.94-3.24 6.06-8.71 14.46-11.82 17.3-.64.58-.62 2.81.0 3.04 3.26 1.21 6.84 2.74 9.64 4.97"/><path id="kvg:07d75-s2" kvg:type="㇜" d="M38.53 28.69C39 30 38.64 31.49 37.9 32.6c-5.59 8.36-14.43 17.44-21.75 25.01-1.74 1.8.43 2.83 1.57 2.47 4.75-1.53 12.62-2.77 18.73-4.24"/><path id="kvg:07d75-s3" kvg:type="㇔" d="M34.75 49.25c2.38 2.12 6.15 9.21 6.75 12.5"/><path id="kvg:07d75-s4" kvg:type="㇑" d="M26.33 60.26c.64.64 1.28 1.99 1.28 3.28.0 6.41.01 20.11-.1 27.47-.04 2.57-.06 4.49-.06 5.25"/><path id="kvg:07d75-s5" kvg:type="㇒" d="M18 70.25c.2 1.28.04 2.45-.47 3.62-1.62 3.7-4.88 9.8-6.78 12.63"/><path id="kvg:07d75-s6" kvg:type="㇔" d="M36 68.75c2.25 2.75 5.25 10 5.5 13.75"/></g><g id="kvg:07d75-g2" kvg:element="会" kvg:position="right" kvg:phon="会"><g id="kvg:07d75-g3" kvg:element="人"><path id="kvg:07d75-s7" kvg:type="㇒" d="M67.28 14c.13 1.76.07 2.9-.62 4.57C63.14 27.07 57 40 46 51.06"/><path id="kvg:07d75-s8" kvg:type="㇏" d="M67.97 19.81C74.25 28.25 87 42.5 93.17 47.23c1.53 1.17 3.01 2.1 4.33 2.52"/></g><g id="kvg:07d75-g4" kvg:element="云"><g id="kvg:07d75-g5" kvg:element="二"><path id="kvg:07d75-s9" kvg:type="㇐" d="M56.6 52.22c.7.2 3.01.29 3.7.2 5.57-.67 11.57-2.05 15.69-2.33 1.16-.08 2.89.1 3.47.2"/><path id="kvg:07d75-s10" kvg:type="㇐" d="M47.75 67.36c1.5.25 4.27.41 5.75.25 10.37-1.11 23.5-2.86 33.77-3.3 2.5-.11 4 .12 5.25.25"/></g><g id="kvg:07d75-g6" kvg:element="厶"><path id="kvg:07d75-s11" kvg:type="㇜" d="M65.12 69.57c.57 1.59.18 3.19-.75 4.52-2.33 3.31-5.46 7.64-10.84 13.68-1.68 1.89-1.19 3.21 1.59 2.85 5.86-.76 18.47-4.88 28.01-6.66"/><path id="kvg:07d75-s12" kvg:type="㇔" d="M78.5 76.25c3.44 2.96 8.89 12.15 9.75 16.75"/></g></g></g></g></g></svg>