<svg xmlns="http://www.w3.org/2000/svg" width="109" height="109" viewBox="0 0 109 109"><g id="kvg:StrokePaths_07d79"><g id="kvg:07d79" kvg:element="絹"><g id="kvg:07d79-g1" kvg:element="糸" kvg:position="left" kvg:radical="general"><path id="kvg:07d79-s1" kvg:type="㇜" d="M33.13 14.17c.34 1.34.32 2.68-.42 4.05-3.08 5.65-7.49 12.82-12.05 17.97-.63.71-.68 3.1.0 3.35 3.6 1.34 6.22 1.95 10.22 4.31"/><path id="kvg:07d79-s2" kvg:type="㇜" d="M43.55 26.93c.32 1.07.32 2.32-.25 3.09-7.3 9.8-15.74 19.68-23.73 27.94-1.83 1.89-.7 3.42 1.65 2.84 5.1-1.25 16.87-4.74 23.29-6.28"/><path id="kvg:07d79-s3" kvg:type="㇔" d="M40.62 48.62c2.51 2.27 6.5 9.33 7.12 12.86"/><path id="kvg:07d79-s4" kvg:type="㇑" d="M32.39 61.12c.81.81 1.23 2.26 1.23 3.84.0 7.42-.09 16.79-.09 23.54.0 2.96-.11 4-.11 6.42"/><path id="kvg:07d79-s5" kvg:type="㇒" d="M24.12 70.75c.18.92.15 2.5-.18 3.16-2.12 4.32-7.18 12.89-10.19 16.59"/><path id="kvg:07d79-s6" kvg:type="㇔" d="M41.5 70.12c3.71 3.63 6.56 12.06 7.42 15.35"/></g><g id="kvg:07d79-g2" kvg:element="肙" kvg:position="right" kvg:phon="肙"><g id="kvg:07d79-g3" kvg:element="口" kvg:position="top"><path id="kvg:07d79-s7" kvg:type="㇑" d="M55.21 15.98c.71.71 1.16 1.52 1.33 2.35.89 4.31 1.79 8.89 2.5 13.41.21 1.34.41 2.61.58 3.72"/><path id="kvg:07d79-s8" kvg:type="㇕b" d="M57.17 17.54c7.81-1.16 22.21-2.44 28.33-3 2.84-.26 4.62.51 3.78 3.6-.95 3.46-1.91 6.36-3.59 12.02"/><path id="kvg:07d79-s9" kvg:type="㇐b" d="M60.48 33.44c4.36-.41 15.32-1.55 23.78-2.05 1.76-.1 3.39-.19 4.83-.25"/></g><g id="kvg:07d79-g4" kvg:element="月" kvg:position="bottom"><path id="kvg:07d79-s10" kvg:type="㇑" d="M56.74 44.03c.87.87 1.46 1.85 1.46 3.18.0 5.67-.02 28.42-.02 40.55.0 3.42-.01 5.74-.03 6.13"/><path id="kvg:07d79-s11" kvg:type="㇆a" d="M59.16 46.09c2.43-.2 24.45-2.37 26.26-2.6 3.24-.4 4.55.88 4.55 3.6.0 5.91-.11 24.61-.11 41.01.0 10.52-5.61 2.39-7.63.57"/><path id="kvg:07d79-s12" kvg:type="㇐a" d="M59.41 59.92c8.34-.54 22.36-1.79 29.64-2.39"/><path id="kvg:07d79-s13" kvg:type="㇐a" d="M59.27 72.66c6.48-.61 22.39-1.93 29.88-2.33"/></g></g></g></g></svg>