<!DOCTYPE svg PUBLIC "-//W3C//DTD SVG 1.0//EN" "http://www.w3.org/TR/2001/REC-SVG-20010904/DTD/svg10.dtd" [
<!ATTLIST g
xmlns:kvg CDATA #FIXED "http://kanjivg.tagaini.net"
kvg:element CDATA #IMPLIED
kvg:variant CDATA #IMPLIED
kvg:partial CDATA #IMPLIED
kvg:original CDATA #IMPLIED
kvg:part CDATA #IMPLIED
kvg:number CDATA #IMPLIED
kvg:tradForm CDATA #IMPLIED
kvg:radicalForm CDATA #IMPLIED
kvg:position CDATA #IMPLIED
kvg:radical CDATA #IMPLIED
kvg:phon CDATA #IMPLIED >
<!ATTLIST path
xmlns:kvg CDATA #FIXED "http://kanjivg.tagaini.net"
kvg:type CDATA #IMPLIED >
]><svg xmlns="http://www.w3.org/2000/svg" width="109" height="109" viewBox="0 0 109 109"><g id="kvg:StrokePaths_07da3" style="fill:none;stroke:#000000;stroke-width:3;stroke-linecap:round;stroke-linejoin:round;"><g id="kvg:07da3" kvg:element="綣"><g id="kvg:07da3-g1" kvg:element="糸" kvg:position="left" kvg:radical="general"><path id="kvg:07da3-s1" kvg:type="㇜" d="M25.4 11.92c.36 1.42.38 2.47-.18 4.01-2.46 6.81-7.46 12.56-12.28 18.01-.67.75-.72 3.27.0 3.54 3.81 1.42 7.64 3.78 10.91 6.38"/><path id="kvg:07da3-s2" kvg:type="㇜" d="M36.3 23.68c.3.58.37 2.46.0 3.09-5.8 9.73-14.99 21.18-22.98 29.44-1.83 1.89.46 2.98 1.65 2.59 5-1.61 15.87-4.49 22.29-6.03"/><path id="kvg:07da3-s3" kvg:type="㇔" d="M31.25 45.5c3.18 2.47 8.21 10.16 9 14"/><path id="kvg:07da3-s4" kvg:type="㇑" d="M25.14 58.87c.07.36.91 1.85.98 4.09.31 10.79-.2 29.79-.2 33.46"/><path id="kvg:07da3-s5" kvg:type="㇒" d="M18.1 68.85c.16.91.13 2.69-.16 3.34-1.87 4.23-6.55 12.37-9.2 16"/><path id="kvg:07da3-s6" kvg:type="㇔" d="M32.93 68.29c3.03 3.54 5.36 11.76 6.07 14.96"/></g><g id="kvg:07da3-g2" kvg:element="卷" kvg:position="right"><g id="kvg:07da3-g3" kvg:position="top"><path id="kvg:07da3-s7" kvg:type="㇒" d="M55.85 17.27c.04.4.07 1.03-.07 1.61C54.9 22.26 50.07 28.05 43 34.25"/><path id="kvg:07da3-s8" kvg:type="㇏" d="M78 17c5.77 2.44 14.05 9.45 15.5 13.25"/><g id="kvg:07da3-g4" kvg:element="二"><g id="kvg:07da3-g5" kvg:position="top"><path id="kvg:07da3-s9" kvg:type="㇐" d="M48.36 34.13c1.07.19 3.04.24 4.11.19 6.83-.33 22.75-2.23 31.28-2.41 1.79-.04 2.86.09 3.76.18"/></g><g id="kvg:07da3-g6" kvg:position="bottom"><path id="kvg:07da3-s10" kvg:type="㇐" d="M42.25 47.74c1.57.49 4.44.49 6.01.49 9.34-.02 28.74-2.84 45.19-3.05 2.61-.03 4.18.23 5.49.48"/></g></g><g id="kvg:07da3-g7" kvg:element="人"><path id="kvg:07da3-s11" kvg:type="㇒" d="M67.24 12.25c.53.84.85 2.1.55 3.97-1 6.23-12.54 40.28-26.54 51.28"/><path id="kvg:07da3-s12" kvg:type="㇏" d="M71.75 34.5c3.3 5.85 17.54 24.97 21.19 29.26 1.24 1.46 2.83 2.08 4.06 2.49"/></g></g><g id="kvg:07da3-g8" kvg:element="卩" kvg:position="bottom"><path id="kvg:07da3-s13" kvg:type="㇆" d="M55.57 61.62c.54.06 1.99.18 3.08.05 4.25-.52 17.4-2.42 18.83-2.83 2.14-.62 3.63.68 3.65 2.69.04 3.41-2 11.12-4.56 16.68-1.87 4.06-4.31.79-5.32-.48"/><path id="kvg:07da3-s14" kvg:type="㇟/㇑" d="M57.55 62.23c0 2.02.08 3.28.08 5.16.0 11.22.21 10.54.21 16.25.0 11.47 1.97 11.82 16.92 11.82 15.53.0 17.55-.96 17.55-9.35"/></g></g></g></g><g id="kvg:StrokeNumbers_07da3" style="font-size:8;fill:#808080"><text transform="matrix(1 0 0 1 19.50 11.50)">1</text><text transform="matrix(1 0 0 1 32.50 20.50)">2</text><text transform="matrix(1 0 0 1 32.50 43.50)">3</text><text transform="matrix(1 0 0 1 19.50 66.50)">4</text><text transform="matrix(1 0 0 1 9.50 70.50)">5</text><text transform="matrix(1 0 0 1 30.50 64.50)">6</text><text transform="matrix(1 0 0 1 48.50 15.50)">7</text><text transform="matrix(1 0 0 1 75.50 13.50)">8</text><text transform="matrix(1 0 0 1 55.50 30.50)">9</text><text transform="matrix(1 0 0 1 39.50 44.50)">10</text><text transform="matrix(1 0 0 1 57.50 10.50)">11</text><text transform="matrix(1 0 0 1 78.50 41.50)">12</text><text transform="matrix(1 0 0 1 57.00 58.48)">13</text><text transform="matrix(1 0 0 1 46.50 71.50)">14</text></g></svg>