<svg xmlns="http://www.w3.org/2000/svg" width="109" height="109" viewBox="0 0 109 109"><g id="kvg:StrokePaths_07dab" style="fill:none;stroke:#000000;stroke-width:3;stroke-linecap:round;stroke-linejoin:round;"><g id="kvg:07dab" kvg:element="綫"><g id="kvg:07dab-g1" kvg:element="糸" kvg:position="left" kvg:radical="general"><path id="kvg:07dab-s1" kvg:type="㇜" d="M27.65 12.17c.36 1.42.38 2.47-.18 4.01C25 23 20 30.25 15.18 35.69c-.67.75-.72 3.27.0 3.54 3.81 1.42 8.14 2.28 11.41 4.88"/><path id="kvg:07dab-s2" kvg:type="㇜" d="M37.55 25.43c.3.58.37 2.46.0 3.09-5.8 9.73-13.99 20.68-21.98 28.94-1.83 1.89.46 2.98 1.65 2.59 5-1.61 16.87-4.49 23.29-6.03"/><path id="kvg:07dab-s3" kvg:type="㇔" d="M35.38 46.38c2.6 2.45 6.72 10.05 7.37 13.85"/><path id="kvg:07dab-s4" kvg:type="㇑" d="M28.73 60.12c.07.37.97 1.92 1.04 4.26.33 11.23-.21 29.97-.21 33.8"/><path id="kvg:07dab-s5" kvg:type="㇒" d="M20.6 70.35c.16.94.13 2.79-.16 3.47-1.87 4.39-6.55 12.85-9.2 16.62"/><path id="kvg:07dab-s6" kvg:type="㇔" d="M37.18 68.79c3.75 3.71 6.62 12.33 7.49 15.69"/></g><g id="kvg:07dab-g2" kvg:element="戔" kvg:position="right"><g id="kvg:07dab-g3" kvg:element="戈" kvg:position="top"><g id="kvg:07dab-g4" kvg:element="弋" kvg:part="1"><path id="kvg:07dab-s7" kvg:type="㇐" d="M45.72 28.31c.94.34 2.67.39 3.61.34 7.33-.32 26.76-2.99 35.24-3.46 1.57-.09 2.51.17 3.29.34"/><path id="kvg:07dab-s8" kvg:type="㇂" d="M59.06 10.25c1.33.88 1.93 2.15 2.21 4.05 2.32 15.92 10.77 31.45 27.01 37.39 5.21 1.91 5.13-.32 3.81-6.6"/></g><g id="kvg:07dab-g5" kvg:element="丿"><path id="kvg:07dab-s9" kvg:type="㇒" d="M81.68 30.95c-.19.6-.36 1.23-.79 1.78C77.11 37.56 67.1 44.5 51.32 50.2"/></g><g id="kvg:07dab-g6" kvg:element="弋" kvg:part="2"><g id="kvg:07dab-g7" kvg:element="丶"><path id="kvg:07dab-s10" kvg:type="㇔" d="M72.17 11.18c3.26 1.5 8.46 4.93 9.99 7.5"/></g></g></g><g id="kvg:07dab-g8" kvg:element="戈" kvg:position="bottom"><g id="kvg:07dab-g9" kvg:element="弋" kvg:part="1"><path id="kvg:07dab-s11" kvg:type="㇐" d="M48.02 67.38c.96.44 2.73.57 3.69.44 8.42-1.12 29.01-3.33 37.68-3.93 1.6-.11 2.57.21 3.37.43"/><path id="kvg:07dab-s12" kvg:type="㇂" d="M60.51 52.92c1.43.96 2.04 1.71 2.34 3.78 2.5 17.36 10.72 34.3 28.2 40.78 5.61 2.08 5.7-.73 4.1-7.36"/></g><g id="kvg:07dab-g10" kvg:element="丿"><path id="kvg:07dab-s13" kvg:type="㇒" d="M83.4 71.53c.1.57.22 1.46-.21 2.28-2.51 4.8-16.63 15.87-36.39 22.32"/></g><g id="kvg:07dab-g11" kvg:element="弋" kvg:part="2"><g id="kvg:07dab-g12" kvg:element="丶"><path id="kvg:07dab-s14" kvg:type="㇔" d="M72.17 51.12c2.77 1.45 7.19 4.77 8.49 7.25"/></g></g></g></g></g></g></svg>