<svg xmlns="http://www.w3.org/2000/svg" width="109" height="109" viewBox="0 0 109 109"><g id="kvg:StrokePaths_07da2" style="fill:none;stroke:#000000;stroke-width:3;stroke-linecap:round;stroke-linejoin:round;"><g id="kvg:07da2" kvg:element="綢"><g id="kvg:07da2-g1" kvg:element="糸" kvg:position="left" kvg:radical="general"><path id="kvg:07da2-s1" kvg:type="㇜" d="M27.65 12.67c.36 1.42.38 2.47-.18 4.01C25 23.5 21 28.25 16.18 33.69c-.67.75-.72 3.27.0 3.54 3.81 1.42 7.64 2.78 10.91 5.38"/><path id="kvg:07da2-s2" kvg:type="㇜" d="M38.55 23.93c.3.58.37 2.46.0 3.09-5.8 9.73-15.49 21.18-23.48 29.44-1.83 1.89.46 2.98 1.65 2.59 5-1.61 16.87-4.49 23.29-6.03"/><path id="kvg:07da2-s3" kvg:type="㇔" d="M35.38 44.38c2.78 2.71 7.18 11.14 7.87 15.35"/><path id="kvg:07da2-s4" kvg:type="㇑" d="M28.89 58.62c.07.34.91 1.75.98 3.87.31 10.2-.2 31.21-.2 34.69"/><path id="kvg:07da2-s5" kvg:type="㇒" d="M18.6 68.35c.17.93.08 2.73-.17 3.42-1.68 4.73-5.68 11.98-9.93 16.41"/><path id="kvg:07da2-s6" kvg:type="㇔" d="M36.68 67.04c3 3.53 5.3 11.74 5.99 14.94"/></g><g id="kvg:07da2-g2" kvg:element="周" kvg:position="right"><g id="kvg:07da2-g3" kvg:element="冂" kvg:variant="true"><path id="kvg:07da2-s7" kvg:type="㇒/㇑" d="M50.58 17.07c.45 1.23 1.06 3.16 1.06 5.4.0 3.45.01 6.66.01 22.95.0 18.22-.33 41.72-8.64 49.83"/><path id="kvg:07da2-s8" kvg:type="㇆a" d="M51.49 19.46c5.92-.94 37.99-3.71 39.18-3.71 2.2.0 3.43 2.25 3.43 4.48.0 2.36.16 64.27.16 69.69.0 8.48-3.12 7.08-8.09 1.34"/></g><g id="kvg:07da2-g4" kvg:element="吉" kvg:variant="true"><g id="kvg:07da2-g5" kvg:element="士" kvg:variant="true"><path id="kvg:07da2-s9" kvg:type="㇐" d="M58.98 34.47c.94.37 2.66.26 3.6.22 5.08-.19 16.12-2.27 19.88-2.44 1.57-.07 2.51.06 3.29.23"/><path id="kvg:07da2-s10" kvg:type="㇐" d="M57.56 47.65c.98.19 2.78.19 3.76.1 5.36-.5 16.26-2.25 22.66-2.4 1.63-.04 2.61.02 3.43.1"/><path id="kvg:07da2-s11" kvg:type="㇑" d="M71.26 23.39c.61.33.97 1.61 1.09 2.34.12.74.01 25.14-.11 29.8"/></g><g id="kvg:07da2-g6" kvg:element="口"><path id="kvg:07da2-s12" kvg:type="㇑" d="M59.92 60.93c.2.36.4.66.49 1.11.69 3.55 2.02 12.34 2.49 18.72"/><path id="kvg:07da2-s13" kvg:type="㇕b" d="M60.7 62.69c5.79-1.19 17.92-2.34 20.9-2.52 1.09-.06 2.66 1.88 2.47 2.86-.81 4.07-2.03 8.54-3.65 14.36"/><path id="kvg:07da2-s14" kvg:type="㇐b" d="M63.59 78.91c6.66-.16 14.9-1.3 18.83-1.41"/></g></g></g></g></g></svg>