<svg xmlns="http://www.w3.org/2000/svg" width="109" height="109" viewBox="0 0 109 109"><g id="kvg:StrokePaths_07db5" style="fill:none;stroke:#000000;stroke-width:3;stroke-linecap:round;stroke-linejoin:round;"><g id="kvg:07db5" kvg:element="綵"><g id="kvg:07db5-g1" kvg:element="糸" kvg:position="left" kvg:radical="general"><path id="kvg:07db5-s1" kvg:type="㇜" d="M26.4 11.92c.36 1.42.38 2.47-.18 4.01C23.75 22.75 19.25 31 14.43 36.44c-.67.75-.72 3.27.0 3.54 3.81 1.42 8.14 3.28 11.41 5.88"/><path id="kvg:07db5-s2" kvg:type="㇜" d="M37.8 25.68c.3.58.37 2.46.0 3.09C32 38.5 22.31 51.44 14.32 59.71c-1.83 1.89.46 2.98 1.65 2.59 5-1.61 17.37-4.49 23.79-6.03"/><path id="kvg:07db5-s3" kvg:type="㇔" d="M35.38 48.63c2.34 2.36 6.04 9.69 6.62 13.35"/><path id="kvg:07db5-s4" kvg:type="㇑" d="M27.64 62.37c.07.36.91 1.85.98 4.09.31 10.79-.2 29.79-.2 33.46"/><path id="kvg:07db5-s5" kvg:type="㇒" d="M19.36 72.1c.15.94.12 2.79-.15 3.47-1.77 4.39-6.2 12.85-8.71 16.62"/><path id="kvg:07db5-s6" kvg:type="㇔" d="M36.43 68.54c3.25 3.24 5.74 10.75 6.49 13.69"/></g><g id="kvg:07db5-g2" kvg:element="采" kvg:variant="true" kvg:position="right"><g id="kvg:07db5-g3" kvg:element="⺤" kvg:variant="true" kvg:original="爪" kvg:position="top"><path id="kvg:07db5-s7" kvg:type="㇒" d="M84 10.5c.09.21.2.55-.19.85C81.49 13.15 68.2 17.09 50 19.5"/><path id="kvg:07db5-s8" kvg:type="㇒" d="M53.69 27.53c.03.44.13 1.17-.05 1.77-1.22 3.94-5.04 11.45-9.89 16.95"/><path id="kvg:07db5-s9" kvg:type="㇔" d="M65.52 26.11c2.64 2.49 6.82 10.26 7.48 14.14"/><path id="kvg:07db5-s10" kvg:type="㇔" d="M81.36 23.2C86.17 26.25 93.79 35.75 95 40.5"/></g><g id="kvg:07db5-g4" kvg:element="木" kvg:position="bottom"><path id="kvg:07db5-s11" kvg:type="㇐" d="M47.41 57.03c1.33.0 3.32.16 5.08.25 4.86.25 27.35-2.05 40.39-2.56 1.76-.07 2.21-.26 3.31.0"/><path id="kvg:07db5-s12" kvg:type="㇑" d="M67.87 45.25c.88.31 1.58 2.95 1.58 3.6.0 3.97.0 47.99-.18 51.9"/><path id="kvg:07db5-s13" kvg:type="㇒" d="M68.15 58.65c-3.48 9.87-16.26 26.8-25.65 32"/><path id="kvg:07db5-s14" kvg:type="㇏" d="M69.25 58.75c4.5 6.5 17.25 23.5 23.65 28.7 1.4 1.14 2.5 1.71 3.85 2.05"/></g></g></g></g></svg>