<svg xmlns="http://www.w3.org/2000/svg" width="109" height="109" viewBox="0 0 109 109"><g id="kvg:StrokePaths_07dc7" style="fill:none;stroke:#000000;stroke-width:3;stroke-linecap:round;stroke-linejoin:round;"><g id="kvg:07dc7" kvg:element="緇"><g id="kvg:07dc7-g1" kvg:element="糸" kvg:position="left" kvg:radical="general"><path id="kvg:07dc7-s1" kvg:type="㇜" d="M26.4 12.42c.36 1.42.38 2.47-.18 4.01C23.75 23.25 18.75 31 13.93 36.44c-.67.75-.72 3.27.0 3.54 3.81 1.42 8.14 1.78 11.41 4.38"/><path id="kvg:07dc7-s2" kvg:type="㇜" d="M36.13 25.18c.28.57.35 2.43.0 3.04-5.52 9.6-14.23 21.87-21.83 30.02-1.74 1.87.43 2.94 1.57 2.56 4.75-1.59 17.05-4.93 23.16-6.45"/><path id="kvg:07dc7-s3" kvg:type="㇔" d="M33 46c3.18 2.47 8.21 10.16 9 14"/><path id="kvg:07dc7-s4" kvg:type="㇑" d="M28.31 60.37c.09.36 1.25 1.85 1.34 4.09.43 10.79-.27 30.79-.27 34.46"/><path id="kvg:07dc7-s5" kvg:type="㇒" d="M21 68.75c.15 1.13.13 3.37-.15 4.19-1.8 5.3-6.3 15.52-8.85 20.06"/><path id="kvg:07dc7-s6" kvg:type="㇔" d="M37.18 68.29c3.12 3.77 5.52 12.52 6.24 15.94"/></g><g id="kvg:07dc7-g2" kvg:element="甾" kvg:position="right"><g id="kvg:07dc7-g3" kvg:element="巛" kvg:position="top"><path id="kvg:07dc7-s7" kvg:type="㇛" d="M55.88 14.01c.15 1.25.02 2.16-.34 3.18-2.39 6.82-4.31 11.68-10.35 18.9-.98 1.18-.45.99.0 1.32 6.51 4.75 10.08 9.46 13.51 18.54"/><path id="kvg:07dc7-s8" kvg:type="㇛" d="M72.41 11.63c.48 1.34-.03 3.2-.42 4.09-2.06 4.66-5.73 11.6-11.56 18.5-.56.67-.27.92.25 1.31C66.85 40.06 71.9 46.6 74.74 54.5"/><path id="kvg:07dc7-s9" kvg:type="㇛" d="M87.85 12.25c.39.94.35 1.97.17 2.91-.97 5.15-2.93 9.98-9.31 17.87-.55.68-.24.87.25 1.31 7.01 6.21 10.38 12.25 12.97 19.25"/></g><g id="kvg:07dc7-g4" kvg:element="田" kvg:position="bottom"><path id="kvg:07dc7-s10" kvg:type="㇑" d="M50.82 61.83c.29.59.3.98.46 1.71 1.31 5.97 2.9 22.64 3.67 33.63"/><path id="kvg:07dc7-s11" kvg:type="㇕a" d="M51.76 63.4c10.04-1.33 30.54-3.34 38.3-3.92 2.85-.21 4.3 1.51 4.15 3.11-.57 5.86-1.41 22.88-3.81 33.09"/><path id="kvg:07dc7-s12" kvg:type="㇑a" d="M70.78 63.55c.27.81.8 1.26.79 2.31-.04 6.92.18 25 .18 27.51"/><path id="kvg:07dc7-s13" kvg:type="㇐a" d="M53.95 79.24c3.39-.29 34.36-3.11 37.16-3.11"/><path id="kvg:07dc7-s14" kvg:type="㇐a" d="M54.97 95.1c7.48.0 25.73-1.96 36.05-2.12"/></g></g></g></g></svg>