<!DOCTYPE svg PUBLIC "-//W3C//DTD SVG 1.0//EN" "http://www.w3.org/TR/2001/REC-SVG-20010904/DTD/svg10.dtd" [
<!ATTLIST g
xmlns:kvg CDATA #FIXED "http://kanjivg.tagaini.net"
kvg:element CDATA #IMPLIED
kvg:variant CDATA #IMPLIED
kvg:partial CDATA #IMPLIED
kvg:original CDATA #IMPLIED
kvg:part CDATA #IMPLIED
kvg:number CDATA #IMPLIED
kvg:tradForm CDATA #IMPLIED
kvg:radicalForm CDATA #IMPLIED
kvg:position CDATA #IMPLIED
kvg:radical CDATA #IMPLIED
kvg:phon CDATA #IMPLIED >
<!ATTLIST path
xmlns:kvg CDATA #FIXED "http://kanjivg.tagaini.net"
kvg:type CDATA #IMPLIED >
]><svg xmlns="http://www.w3.org/2000/svg" width="109" height="109" viewBox="0 0 109 109"><g id="kvg:StrokePaths_07dde" style="fill:none;stroke:#000000;stroke-width:3;stroke-linecap:round;stroke-linejoin:round;"><g id="kvg:07dde" kvg:element="緞"><g id="kvg:07dde-g1" kvg:element="糸" kvg:position="left" kvg:radical="general"><path id="kvg:07dde-s1" kvg:type="㇜" d="M24.29 16.5c.28 1.26.52 2.32-.14 3.57-2.91 5.46-7.76 14.43-10.53 17.36-.57.6-.55 2.91.0 3.15 2.91 1.26 6.09 2.86 8.59 5.16"/><path id="kvg:07dde-s2" kvg:type="㇜" d="M35.3 24.69c.27.6.35 2.58.0 3.22-5.23 9.44-14 21.35-21.18 29.96-1.65 1.97.41 3.1 1.48 2.7 4.49-1.68 11.93-3.04 17.7-4.65"/><path id="kvg:07dde-s3" kvg:type="㇔" d="M29.75 47.5c2.65 2.21 6.84 9.07 7.5 12.5"/><path id="kvg:07dde-s4" kvg:type="㇑" d="M24.47 60.79c.05.28.72 1.45.77 3.21.25 8.46-.16 30.61-.16 33.5"/><path id="kvg:07dde-s5" kvg:type="㇒" d="M16.75 70.75c.12.83.1 2.47-.12 3.06-1.45 3.88-5.08 11.36-7.13 14.69"/><path id="kvg:07dde-s6" kvg:type="㇔" d="M30.75 65.25c2.62 2.19 4.64 7.27 5.25 9.25"/></g><g id="kvg:07dde-g2" kvg:element="段" kvg:position="right"><g id="kvg:07dde-g3" kvg:position="left"><path id="kvg:07dde-s7" kvg:type="㇒" d="M58.74 17.75c.04.27.14.76-.07 1.06C56.08 22.55 52.25 25.98 45.5 29"/><path id="kvg:07dde-s8" kvg:type="㇑" d="M43.45 26.75c.57.53.91 2.38 1.02 3.44.11 1.06.0 58.45-.11 65.06"/><path id="kvg:07dde-s9" kvg:type="㇐" d="M45.25 42.49c4.53-.5 11.4-1.9 12.23-1.98.94-.09 1.68.0 2.52.16"/><path id="kvg:07dde-s10" kvg:type="㇐" d="M44.89 56.97c4.61-.49 12.63-1.89 13.48-1.96.96-.09 1.71.0 2.56.16"/><path id="kvg:07dde-s11" kvg:type="㇀" d="M35.25 79.81c.88 1.38 2.6 1.7 4.22.77C40.42 80.02 56.94 70.4 61 67.75"/></g><g id="kvg:07dde-g4" kvg:element="殳" kvg:position="right"><g id="kvg:07dde-g5" kvg:element="几" kvg:position="top"><g id="kvg:07dde-g6" kvg:element="丿"><path id="kvg:07dde-s12" kvg:type="㇒" d="M68.41 20.25c.44.47.78 1.89.79 2.68.05 7.57.3 16.57-5.45 21.32"/></g><path id="kvg:07dde-s13" kvg:type="㇈b" d="M69.83 21.23c2.6-.29 9.32-2 11.6-2.34 1.83-.27 2.2 1.06 2.01 3.13-.33 3.61-.9 9.7-.9 13.31.0 4.99.97 7.6 6.51 7.6 4.33.0 6.62-1.42 6.62-6.48"/></g><g id="kvg:07dde-g7" kvg:element="又" kvg:position="bottom"><path id="kvg:07dde-s14" kvg:type="㇇" d="M67.25 54.75c1.5.5 2.32.46 4.93.06 5.32-.81 13.14-2.18 14.92-2.69 1.79-.51 3.09.91 2.44 2.75C83 73.23 74 82.75 58.5 93.25"/><path id="kvg:07dde-s15" kvg:type="㇏" d="M66.75 60.25c2.75.77 16.2 21.41 25.78 29.87 1.49 1.32 2.58 2.19 3.97 2.63"/></g></g></g></g></g><g id="kvg:StrokeNumbers_07dde" style="font-size:8;fill:#808080"><text transform="matrix(1 0 0 1 17.25 16.25)">1</text><text transform="matrix(1 0 0 1 31.00 21.25)">2</text><text transform="matrix(1 0 0 1 31.25 45.25)">3</text><text transform="matrix(1 0 0 1 18.25 69.25)">4</text><text transform="matrix(1 0 0 1 8.25 72.08)">5</text><text transform="matrix(1 0 0 1 30.25 63.25)">6</text><text transform="matrix(1 0 0 1 52.25 16.25)">7</text><text transform="matrix(1 0 0 1 37.25 38.85)">8</text><text transform="matrix(1 0 0 1 49.25 38.25)">9</text><text transform="matrix(1 0 0 1 48.25 52.25)">10</text><text transform="matrix(1 0 0 1 29.00 89.38)">11</text><text transform="matrix(1 0 0 1 59.25 30.25)">12</text><text transform="matrix(1 0 0 1 67.25 17.25)">13</text><text transform="matrix(1 0 0 1 66.25 52.25)">14</text><text transform="matrix(1 0 0 1 63.25 72.83)">15</text></g></svg>