<svg xmlns="http://www.w3.org/2000/svg" width="109" height="109" viewBox="0 0 109 109"><g id="kvg:StrokePaths_07dda" style="fill:none;stroke:#000000;stroke-width:3;stroke-linecap:round;stroke-linejoin:round;"><g id="kvg:07dda" kvg:element="線"><g id="kvg:07dda-g1" kvg:element="糸" kvg:position="left" kvg:radical="general"><path id="kvg:07dda-s1" kvg:type="㇜" d="M30.9 14c.49 1.93.1 3.5-.93 5.15-4.47 7.1-10.65 15.21-13.54 17.84-.64.58-.62 2.81.0 3.04 3.26 1.21 6.84 3.74 9.64 5.97"/><path id="kvg:07dda-s2" kvg:type="㇜" d="M40.53 25.44c.47 1.31-.11 3.17-.95 4.27C33 38.25 24.44 50.07 17.15 57.61c-1.74 1.8.43 2.83 1.57 2.47 4.75-1.53 13.62-3.77 19.73-5.24"/><path id="kvg:07dda-s3" kvg:type="㇔" d="M36.25 47.5c2.47 2.25 6.38 9.25 7 12.75"/><path id="kvg:07dda-s4" kvg:type="㇑" d="M26.99 59.75c1 1 1.68 2.02 1.68 4.17.0 9.66-.1 20.53-.15 26.83-.02 2.56-.04 4.49-.04 5.5"/><path id="kvg:07dda-s5" kvg:type="㇒" d="M18.63 70.62c.36 1.76.09 2.86-.36 3.94-1.5 3.61-3.65 8.06-6.77 12.69"/><path id="kvg:07dda-s6" kvg:type="㇔" d="M37.5 69.12c2.85 3.35 4.09 10.09 4.75 13.12"/></g><g id="kvg:07dda-g2" kvg:element="泉" kvg:position="right" kvg:phon="泉"><g id="kvg:07dda-g3" kvg:element="白" kvg:position="top"><g id="kvg:07dda-g4" kvg:position="top"><path id="kvg:07dda-s7" kvg:type="㇔" d="M66.12 12.12c.32.79.3 2-.03 2.75-.84 2.6-3.37 6.27-5.71 9.06"/></g><g id="kvg:07dda-g5" kvg:element="日" kvg:position="bottom"><path id="kvg:07dda-s8" kvg:type="㇑" d="M49.09 26.97c.97.97 1.76 2.43 2.03 4.01 1.25 7.15 2.09 12.2 2.88 17.53.2 1.34.34 2.42.38 3.08"/><path id="kvg:07dda-s9" kvg:type="㇕a" d="M51.28 27.74c9.1-1.24 28.72-3.86 33.77-4.18 2.38-.15 3.87 1.34 3.43 3.6-.2 1.07-1.82 9.53-3.62 17.61-.26 1.15-.52 2.3-.79 3.41"/><path id="kvg:07dda-s10" kvg:type="㇐a" d="M53.64 38.24c9.11-1.24 21.98-2.86 32.19-3.67"/><path id="kvg:07dda-s11" kvg:type="㇐a" d="M55.44 49.16c9.31-1.41 17.56-2.41 27.95-3.06"/></g></g><g id="kvg:07dda-g6" kvg:element="水" kvg:position="bottom"><path id="kvg:07dda-s12" kvg:type="㇚" d="M66.4 52.17c1.1 1.08 1.77 2.71 1.77 5.38.0 12.21-.16 29.45-.16 33.6.0 7.85-4.22 1.93-6.59-.44"/><path id="kvg:07dda-s13" kvg:type="㇇" d="M44.75 67.14c1.25.61 2.78.56 4 .36 2.38-.38 7.22-1.76 9.17-2.55 2.33-.95 3.45.3 2.46 2.42-3.49 7.45-7.26 15.13-20.13 22.88"/><path id="kvg:07dda-s14" kvg:type="㇒" d="M87.01 56.25c.13.79-.12 1.8-.48 2.45-2.03 3.75-5.95 7.91-9.16 9.8"/><path id="kvg:07dda-s15" kvg:type="㇏" d="M68.88 61.5c5.24 8.21 13.65 19 20.04 24.96 1.82 1.69 3.67 3.19 6.09 3.92"/></g></g></g></g></svg>