<!DOCTYPE svg PUBLIC "-//W3C//DTD SVG 1.0//EN" "http://www.w3.org/TR/2001/REC-SVG-20010904/DTD/svg10.dtd" [
<!ATTLIST g
xmlns:kvg CDATA #FIXED "http://kanjivg.tagaini.net"
kvg:element CDATA #IMPLIED
kvg:variant CDATA #IMPLIED
kvg:partial CDATA #IMPLIED
kvg:original CDATA #IMPLIED
kvg:part CDATA #IMPLIED
kvg:number CDATA #IMPLIED
kvg:tradForm CDATA #IMPLIED
kvg:radicalForm CDATA #IMPLIED
kvg:position CDATA #IMPLIED
kvg:radical CDATA #IMPLIED
kvg:phon CDATA #IMPLIED >
<!ATTLIST path
xmlns:kvg CDATA #FIXED "http://kanjivg.tagaini.net"
kvg:type CDATA #IMPLIED >
]><svg xmlns="http://www.w3.org/2000/svg" width="109" height="109" viewBox="0 0 109 109"><g id="kvg:StrokePaths_07df4" style="fill:none;stroke:#000000;stroke-width:3;stroke-linecap:round;stroke-linejoin:round;"><g id="kvg:07df4" kvg:element="練"><g id="kvg:07df4-g1" kvg:element="糸" kvg:position="left" kvg:radical="general"><path id="kvg:07df4-s1" kvg:type="㇜" d="M27.4 15.25c.31 1.21.23 2.68-.41 3.94-2.86 5.68-6.67 11.69-10.07 16.79-.92 1.39-1.05 2.64.5 3.04 3.37.87 6.33 2.23 10.39 3.97"/><path id="kvg:07df4-s2" kvg:type="㇜" d="M39.28 25.44c.47.93.34 2.43-.5 3.69C33.08 37.64 24 50.25 16.65 59.61c-1.55 1.97.43 2.83 1.57 2.47 4.75-1.53 13.12-3.27 19.23-4.74"/><path id="kvg:07df4-s3" kvg:type="㇔" d="M34.5 50.5c2.38 2.21 6.15 9.07 6.75 12.5"/><path id="kvg:07df4-s4" kvg:type="㇑" d="M27.58 61.26c.89.89 1.49 2.03 1.53 3.53.17 6.05.03 18.2-.08 25.96-.04 3.34-.08 5.87-.08 6.75"/><path id="kvg:07df4-s5" kvg:type="㇒" d="M19.51 72.25c.11.85.09 2.27-.11 2.88-1.28 3.96-4.47 11.6-6.28 15"/><path id="kvg:07df4-s6" kvg:type="㇔" d="M37.25 70.75c2.75 2.78 4.86 9.23 5.5 11.75"/></g><g id="kvg:07df4-g2" kvg:element="東" kvg:position="right" kvg:phon="東"><g id="kvg:07df4-g3" kvg:element="木" kvg:part="1"><path id="kvg:07df4-s7" kvg:type="㇐" d="M47.46 26.42c2.42.33 5.01.42 7.05.07 9.37-1.61 18.24-2.36 28.49-3.41 1.98-.2 3.98-.32 5.92.22"/></g><g id="kvg:07df4-g4" kvg:element="日"><path id="kvg:07df4-s8" kvg:type="㇑" d="M46.41 38.89c.34.36 1.22 1.49 1.38 2.34.25 1.32 2.12 12.15 3.24 18.64.38 2.21.68 3.92.8 4.58"/><path id="kvg:07df4-s9" kvg:type="㇕a" d="M48.53 39.89c5.79-.57 29.48-3.33 36.11-4 2.54-.26 4.82.96 4.43 3.87-.71 5.34-1.18 9.49-2.34 16.26-.27 1.59-.58 3.32-.93 5.24"/><path id="kvg:07df4-s10" kvg:type="㇐a" d="M50.57 50.84c6.36-.71 32.58-3.2 36.39-3.2"/><path id="kvg:07df4-s11" kvg:type="㇐a" d="M52.89 62.07c7.73-.69 23.78-2.4 32.32-2.8"/></g><g id="kvg:07df4-g5" kvg:element="木" kvg:part="2"><path id="kvg:07df4-s12" kvg:type="㇑" d="M65.44 12c1.28 1.28 1.97 3 1.97 4.5.0.88.02 54.06.03 74.88.0 3.3.0 5.79.0 7.12"/><path id="kvg:07df4-s13" kvg:type="㇒" d="M65.44 61.5c0 1.12-.15 2.31-.68 3.26-5.23 9.46-15.14 21.37-25.14 26.37"/><path id="kvg:07df4-s14" kvg:type="㇏" d="M68.69 61.5c5.75 7.99 16.89 19.54 22.63 24.22 1.75 1.43 3.95 3.2 6.19 3.78"/></g></g></g></g><g id="kvg:StrokeNumbers_07df4" style="font-size:8;fill:#808080"><text transform="matrix(1 0 0 1 20.50 15.50)">1</text><text transform="matrix(1 0 0 1 35.25 22.63)">2</text><text transform="matrix(1 0 0 1 32.25 49.63)">3</text><text transform="matrix(1 0 0 1 21.75 69.50)">4</text><text transform="matrix(1 0 0 1 11.50 75.13)">5</text><text transform="matrix(1 0 0 1 34.50 68.50)">6</text><text transform="matrix(1 0 0 1 46.50 23.50)">7</text><text transform="matrix(1 0 0 1 41.25 48.13)">8</text><text transform="matrix(1 0 0 1 48.75 36.50)">9</text><text transform="matrix(1 0 0 1 53.25 48.13)">10</text><text transform="matrix(1 0 0 1 53.50 59.50)">11</text><text transform="matrix(1 0 0 1 53.50 12.50)">12</text><text transform="matrix(1 0 0 1 49.50 73.63)">13</text><text transform="matrix(1 0 0 1 81.50 72.50)">14</text></g></svg>