<svg xmlns="http://www.w3.org/2000/svg" width="109" height="109" viewBox="0 0 109 109"><g id="kvg:StrokePaths_07e0a"><g id="kvg:07e0a" kvg:element="縊"><g id="kvg:07e0a-g1" kvg:element="糸" kvg:position="left" kvg:radical="general"><path id="kvg:07e0a-s1" kvg:type="㇜" d="M23.52 13.67c.3 1.35.31 2.35-.15 3.83-2.02 6.5-7.34 13.42-11.28 18.62-.55.72-.59 3.12.0 3.38 3.12 1.35 7.9 3.13 10.57 5.61"/><path id="kvg:07e0a-s2" kvg:type="㇜" d="M33.54 26.93c.27.53.34 2.24.0 2.81-5.28 8.86-14.1 20.19-21.37 27.71-1.67 1.72.41 2.71 1.5 2.36 4.55-1.47 15.36-4.09 21.2-5.49"/><path id="kvg:07e0a-s3" kvg:type="㇔" d="M29.38 47.38c3.31 2.18 8.54 8.96 9.37 12.35"/><path id="kvg:07e0a-s4" kvg:type="㇑" d="M24.39 60.62c.07.36.91 1.85.98 4.09.31 10.79-.2 29.79-.2 33.46"/><path id="kvg:07e0a-s5" kvg:type="㇒" d="M16.63 71.35c.12.85.1 2.52-.11 3.12-1.38 3.95-4.82 11.57-6.76 14.96"/><path id="kvg:07e0a-s6" kvg:type="㇔" d="M32.68 69.29c2.75 3.47 4.85 11.54 5.49 14.69"/></g><g id="kvg:07e0a-g2" kvg:element="益" kvg:variant="true" kvg:position="right"><g id="kvg:07e0a-g3" kvg:position="top"><g id="kvg:07e0a-g4" kvg:element="八"><g id="kvg:07e0a-g5" kvg:position="left"><path id="kvg:07e0a-s7" kvg:type="㇒" d="M55.9 15.64c.04.48.08 1.24-.08 1.94C54.9 21.66 49.03 30.62 41.8 36.1"/></g><g id="kvg:07e0a-g6" kvg:position="right"><path id="kvg:07e0a-s8" kvg:type="㇏" d="M68.38 11.56C70.57 12 83.92 28.68 90.39 32.4c2.5 1.44 3.4 2.21 5.83 2.68"/></g></g><path id="kvg:07e0a-s9" kvg:type="㇐" d="M53.27 33.3c.82.4 2.32.45 3.15.4 3.83-.2 16.33-2.2 20.22-2.67 1.36-.16 2.19-.31 2.87-.11"/><g id="kvg:07e0a-g7" kvg:element="八"><g id="kvg:07e0a-g8" kvg:position="left"><path id="kvg:07e0a-s10" kvg:type="㇒" d="M58.29 42.94c.29.65-.04 1.38-.41 2.18-2.4 5.24-11.41 16.79-16.89 19.48"/></g><g id="kvg:07e0a-g9" kvg:position="right"><path id="kvg:07e0a-s11" kvg:type="㇏" d="M71.63 40.56c2.06.39 14.56 15.3 20.63 18.63 2.35 1.29 3.19 1.98 5.46 2.39"/></g></g></g><g id="kvg:07e0a-g10" kvg:element="皿" kvg:position="bottom"><path id="kvg:07e0a-s12" kvg:type="㇑a" d="M47.21 66.4c.56.67 1.79 2.34 1.91 2.91.94 4.53 1.72 15.46 2.36 23.59"/><path id="kvg:07e0a-s13" kvg:type="㇕b" d="M49.48 67.82c10.05-.94 34.18-2.43 37.81-2.72 1.33-.11 2.26 1.11 1.94 2.76-1.03 5.23-2.42 16.79-3.37 22.72"/><path id="kvg:07e0a-s14" kvg:type="㇑a" d="M61.08 68.46c.23.43.57 1.78.57 2.33.0 6.71.32 12.46.32 21.23"/><path id="kvg:07e0a-s15" kvg:type="㇑a" d="M73.76 68.21c.58 1.28.89 2.06.83 3.14-.32 6.01-.49 12.43-1.32 20.54"/><path id="kvg:07e0a-s16" kvg:type="㇐" d="M37.89 94.48c1.12.3 3.16.35 4.28.3 11.62-.51 38.79-3.48 52.95-3.33 1.86.02 2.98.14 3.91.3"/></g></g></g></g></svg>