<svg xmlns="http://www.w3.org/2000/svg" width="109" height="109" viewBox="0 0 109 109"><g id="kvg:StrokePaths_07e05"><g id="kvg:07e05" kvg:element="縅"><g id="kvg:07e05-g1" kvg:element="糸" kvg:position="left" kvg:radical="general"><path id="kvg:07e05-s1" kvg:type="㇜" d="M26.24 13.5c.34 1.32.35 2.29-.17 3.73-2.31 6.33-6.9 14.57-11.42 19.63-.63.7-.68 3.04.0 3.29 3.57 1.32 7.04 2.55 10.1 4.96"/><path id="kvg:07e05-s2" kvg:type="㇜" d="M36.05 27.11c.27.52.34 2.21.0 2.77-5.32 8.74-15.21 20.92-22.53 28.35-1.68 1.7.42 2.68 1.51 2.33 4.58-1.45 14.97-4.06 23.36-6.42"/><path id="kvg:07e05-s3" kvg:type="㇔" d="M32.75 46.5c2.82 2.34 7.29 9.61 8 13.25"/><path id="kvg:07e05-s4" kvg:type="㇑" d="M26.05 61.62c.06.34.85 1.78.91 3.95.29 10.42-.19 27.8-.19 31.35"/><path id="kvg:07e05-s5" kvg:type="㇒" d="M17.61 70.85c.15.91.12 2.7-.15 3.35-1.77 4.24-6.2 12.42-8.71 16.05"/><path id="kvg:07e05-s6" kvg:type="㇔" d="M33.5 68.75c2.87 2.9 5.08 9.62 5.75 12.25"/></g><g id="kvg:07e05-g2" kvg:element="威" kvg:position="right"><g id="kvg:07e05-g3" kvg:element="戍" kvg:part="1" kvg:variant="true" kvg:original="戌"><g id="kvg:07e05-g4" kvg:element="厂" kvg:part="1"><path id="kvg:07e05-s7" kvg:type="㇒" d="M50.25 30.75c.04 1.42-.04 3.65-.08 5.69-.33 19.04-3.35 41.63-11.36 53.27"/></g><g id="kvg:07e05-g5" kvg:element="戈" kvg:part="1"><g id="kvg:07e05-g6" kvg:element="弋" kvg:part="1"><g id="kvg:07e05-g7" kvg:element="厂" kvg:part="2"><path id="kvg:07e05-s8" kvg:type="㇐" d="M45.87 29.18c1.2.28 3.39.35 4.59.28 6.64-.38 28.52-2.47 39.12-3.24 1.98-.15 3.19.13 4.19.28"/></g></g><g id="kvg:07e05-g8" kvg:element="一"><path id="kvg:07e05-s9" kvg:type="㇐" d="M52.25 42.61c.94.36 2.66.5 3.59.36 3.31-.49 8.44-1.54 11.47-1.86 1.55-.17 2.89-.3 3.67-.12"/></g></g></g><g id="kvg:07e05-g9" kvg:element="女"><path id="kvg:07e05-s10" kvg:type="㇛" d="M60.64 48.15c.23.72.65 1.89.53 2.92-.59 5.09-3.79 14.07-6.38 20.02-.53 1.22.22 1.77.53 1.81 4.48.6 11.75 3.7 14.93 9.85"/><path id="kvg:07e05-s11" kvg:type="㇒" d="M69.77 54.71c.06.84.11 2.87-.12 4.08-1.85 9.79-7.18 23.68-20.4 30.97"/><path id="kvg:07e05-s12" kvg:type="㇀/㇐" d="M52.87 59.13c.45.76.62 1.47 1.82 1.29C56 60.23 66.22 57.59 74 56"/></g><g id="kvg:07e05-g10" kvg:element="戍" kvg:part="2" kvg:variant="true" kvg:original="戌"><g id="kvg:07e05-g11" kvg:element="戈" kvg:part="2"><g id="kvg:07e05-g12" kvg:element="弋" kvg:part="2"><path id="kvg:07e05-s13" kvg:type="㇂" d="M72 13.25c.96 1.71 1.4 2.17 1.56 5.85 1.23 28.77 8.52 60.15 19.85 71.53 3.74 3.76 3.19 1.36 2.71-6.2"/></g><g id="kvg:07e05-g13" kvg:element="丿"><path id="kvg:07e05-s14" kvg:type="㇒" d="M91.5 42c.07 1.16.15 2.99-.15 4.65C89.59 56.46 80.25 81 66 92"/></g><g id="kvg:07e05-g14" kvg:element="弋" kvg:part="3"><g id="kvg:07e05-g15" kvg:element="丶"><path id="kvg:07e05-s15" kvg:type="㇔" d="M80.87 11.25c2.73 1.7 7.09 5.59 8.36 8.5"/></g></g></g></g></g></g></g></svg>