<svg xmlns="http://www.w3.org/2000/svg" width="109" height="109" viewBox="0 0 109 109"><g id="kvg:StrokePaths_07e1e"><g id="kvg:07e1e" kvg:element="縞"><g id="kvg:07e1e-g1" kvg:element="糸" kvg:position="left" kvg:radical="general"><path id="kvg:07e1e-s1" kvg:type="㇜" d="M25.9 14.25c0 1.25-.11 1.89-.66 3.19C22.5 24 19.5 28.75 16.17 34.24c-.95 2.06-.57 3.22 1.12 3.47 3.13 1.23 5.33 2.3 8.52 4.29"/><path id="kvg:07e1e-s2" kvg:type="㇜" d="M37.53 24.94c-.04 1.46-.49 2.74-1.34 3.85-5.35 8.28-12.69 17.46-20.45 26.45-1.98 2.29-.93 3.86 2.23 2.84 4.75-1.53 11.16-3.46 18.28-5.71"/><path id="kvg:07e1e-s3" kvg:type="㇔" d="M34 45.75c2.47 2.21 6.38 9.07 7 12.5"/><path id="kvg:07e1e-s4" kvg:type="㇑" d="M27.08 57.76c.77.77 1.03 1.74 1.03 3.28.0 6.02-.05 18.61-.09 26.84C28.01 91.47 28 94.23 28 95.25"/><path id="kvg:07e1e-s5" kvg:type="㇒" d="M18.25 68.25c.22 1.32.14 2.6-.29 3.81C15.88 77.88 14.02 82.07 11.5 87"/><path id="kvg:07e1e-s6" kvg:type="㇔" d="M36 67.75c3.12 3.55 5.02 11.29 5.75 14.5"/></g><g id="kvg:07e1e-g2" kvg:element="高" kvg:position="right"><g id="kvg:07e1e-g3" kvg:position="top"><g id="kvg:07e1e-g4" kvg:element="亠"><path id="kvg:07e1e-s7" kvg:type="㇑a" d="M69.87 12.23c.95.95 1.22 1.89 1.22 3.18.0 3.41-.08 4.71-.08 8.38"/><path id="kvg:07e1e-s8" kvg:type="㇐" d="M47.64 26.32c2.62.46 5.25.51 7.89.13 8.34-1.03 23.48-2.88 32.6-3.55 2.39-.28 4.79-.27 7.18.03"/></g><g id="kvg:07e1e-g5" kvg:element="口"><path id="kvg:07e1e-s9" kvg:type="㇑" d="M55.8 36.39c.83.56 1.32 1.35 1.46 2.35.64 2.03 1.12 4.96 1.58 8.01.25 1.63.5 3.29.76 4.86"/><path id="kvg:07e1e-s10" kvg:type="㇕b" d="M57.9 37.38c6.81-1.35 17.81-2.83 23.21-3.42 2.88-.31 4.67.62 3.85 3.69-.73 2.78-1.21 4.56-2.45 8.69"/><path id="kvg:07e1e-s11" kvg:type="㇐b" d="M60.54 49.54c5.37-.64 13.33-1.36 19.47-1.92 1.4-.13 2.71-.25 3.87-.36"/></g></g><g id="kvg:07e1e-g6" kvg:element="冋" kvg:position="bottom"><g id="kvg:07e1e-g7" kvg:element="冂"><path id="kvg:07e1e-s12" kvg:type="㇑" d="M48 60.69c1.22 1.22 1.78 2.52 1.86 4.59.2 5.43.52 12.8.85 20.72.12 2.79.24 5.65.35 8.51"/><path id="kvg:07e1e-s13" kvg:type="㇆a" d="M50.08 61.94c6.04-.4 32.41-2.96 39.45-3.75 5.16-.58 6.69.71 6.03 6.9-.73 6.8-2.09 16.66-3.57 23.78-1.96 9.43-3.99 8.63-7.48 3.78"/></g><g id="kvg:07e1e-g8" kvg:element="口"><path id="kvg:07e1e-s14" kvg:type="㇑" d="M60.21 71.25c.71.71 1.03 1.5 1.13 2.14.45 2.91.77 4.65 1.21 7.14.2 1.13.43 2.42.7 4.05"/><path id="kvg:07e1e-s15" kvg:type="㇕b" d="M62.36 72.17c4.52-.65 11.23-1.54 14.54-2.05 2.39-.36 3.91.76 3.22 3.29-.99 3.62-1.67 6.01-2.2 8"/><path id="kvg:07e1e-s16" kvg:type="㇐b" d="M64.38 83.36c2.77-.32 6.67-.65 11-1.09 1.36-.14 2.76-.29 4.18-.45"/></g></g></g></g></g></svg>