<!DOCTYPE svg PUBLIC "-//W3C//DTD SVG 1.0//EN" "http://www.w3.org/TR/2001/REC-SVG-20010904/DTD/svg10.dtd" [
<!ATTLIST g
xmlns:kvg CDATA #FIXED "http://kanjivg.tagaini.net"
kvg:element CDATA #IMPLIED
kvg:variant CDATA #IMPLIED
kvg:partial CDATA #IMPLIED
kvg:original CDATA #IMPLIED
kvg:part CDATA #IMPLIED
kvg:number CDATA #IMPLIED
kvg:tradForm CDATA #IMPLIED
kvg:radicalForm CDATA #IMPLIED
kvg:position CDATA #IMPLIED
kvg:radical CDATA #IMPLIED
kvg:phon CDATA #IMPLIED >
<!ATTLIST path
xmlns:kvg CDATA #FIXED "http://kanjivg.tagaini.net"
kvg:type CDATA #IMPLIED >
]><svg xmlns="http://www.w3.org/2000/svg" width="109" height="109" viewBox="0 0 109 109"><g id="kvg:StrokePaths_07e12" style="fill:none;stroke:#000000;stroke-width:3;stroke-linecap:round;stroke-linejoin:round;"><g id="kvg:07e12" kvg:element="縒"><g id="kvg:07e12-g1" kvg:element="糸" kvg:position="left" kvg:radical="general"><path id="kvg:07e12-s1" kvg:type="㇜" d="M26.65 12.17c.35 1.41.37 2.45-.18 3.98-2.38 6.76-6.16 12.46-10.81 17.86-.64.75-.7 3.25.0 3.52 3.68 1.41 6.82 4.25 9.97 6.83"/><path id="kvg:07e12-s2" kvg:type="㇜" d="M36.43 26.93c.27.54.34 2.29.0 2.87-5.29 9.06-14.63 21.15-21.92 28.84-1.67 1.76.42 2.77 1.5 2.41 4.56-1.5 15.39-4.18 21.25-5.62"/><path id="kvg:07e12-s3" kvg:type="㇔" d="M32.75 48c2.65 2.47 6.84 10.16 7.5 14"/><path id="kvg:07e12-s4" kvg:type="㇑" d="M26.89 61.12c.07.36.91 1.85.98 4.09C28.18 76 27.67 94 27.67 97.67"/><path id="kvg:07e12-s5" kvg:type="㇒" d="M18.61 71.85c.14.94.12 2.79-.14 3.47-1.67 4.39-5.85 12.85-8.22 16.62"/><path id="kvg:07e12-s6" kvg:type="㇔" d="M34.75 69.5c2.84 2.95 5.01 9.8 5.67 12.47"/></g><g id="kvg:07e12-g2" kvg:element="差" kvg:position="right"><g id="kvg:07e12-g3" kvg:element="羊" kvg:variant="true"><g id="kvg:07e12-g4" kvg:element="䒑"><path id="kvg:07e12-s7" kvg:type="㇔" d="M53.7 13.33c2.75 1.75 7.11 7.2 7.8 9.92"/><path id="kvg:07e12-s8" kvg:type="㇒" d="M82.5 11.25c.02.32.04.82-.04 1.28-.49 2.69-3.33 8.6-7.21 12.22"/><path id="kvg:07e12-s9" kvg:type="㇐" d="M49.38 29.1c.81.21 3.8.25 4.61.21 6.48-.32 27.36-2.35 34.67-2.27 1.35.01 3.66.1 4.34.2"/></g><path id="kvg:07e12-s10" kvg:type="㇑a" d="M67.97 29c.71.38 1.13 1.71 1.27 2.47s.33 16.52.19 21.28"/><path id="kvg:07e12-s11" kvg:type="㇐" d="M52.59 42.33c.91.26 2.58.29 3.5.26 7.55-.24 20.89-2.15 31.22-2.27 1.52-.02 2.43.12 3.19.25"/><path id="kvg:07e12-s12" kvg:type="㇐" d="M45.77 54.51c1.36.35 3.85.4 5.21.35 7.54-.26 27.5-2.44 41.77-2.67 2.26-.04 3.62.17 4.75.34"/></g><g id="kvg:07e12-g5" kvg:element="丿"><path id="kvg:07e12-s13" kvg:type="㇒" d="M57.99 57.25c.06.89.21 2.4-.11 3.58-2.4 8.65-8.53 22.72-19.31 33.57"/></g><g id="kvg:07e12-g6" kvg:element="工"><path id="kvg:07e12-s14" kvg:type="㇐" d="M59 68.83c.72.39 3.08.51 3.8.4 3.39-.53 18.86-2.28 24.56-2.68 1.11-.08 2.13.08 3.05.41"/><path id="kvg:07e12-s15" kvg:type="㇑a" d="M71.93 70.79c.78 1 .78 1.6.78 2.4.0 5.61.0 12.2-.19 17.81"/><path id="kvg:07e12-s16" kvg:type="㇐" d="M49.5 93.3c.72.27 2.89.59 4.11.49 14.6-1.28 28.17-1.99 40.1-2.39 1.96-.07 4.3.45 5.29.87"/></g></g></g></g><g id="kvg:StrokeNumbers_07e12" style="font-size:8;fill:#808080"><text transform="matrix(1 0 0 1 20.25 12.25)">1</text><text transform="matrix(1 0 0 1 33.25 22.25)">2</text><text transform="matrix(1 0 0 1 34.25 46.25)">3</text><text transform="matrix(1 0 0 1 20.00 69.25)">4</text><text transform="matrix(1 0 0 1 9.25 73.25)">5</text><text transform="matrix(1 0 0 1 32.25 66.25)">6</text><text transform="matrix(1 0 0 1 48.25 12.25)">7</text><text transform="matrix(1 0 0 1 74.25 10.25)">8</text><text transform="matrix(1 0 0 1 48.25 26.25)">9</text><text transform="matrix(1 0 0 1 58.25 37.25)">10</text><text transform="matrix(1 0 0 1 44.25 42.25)">11</text><text transform="matrix(1 0 0 1 42.25 51.25)">12</text><text transform="matrix(1 0 0 1 46.25 65.25)">13</text><text transform="matrix(1 0 0 1 61.25 66.25)">14</text><text transform="matrix(1 0 0 1 63.25 77.25)">15</text><text transform="matrix(1 0 0 1 51.25 90.00)">16</text></g></svg>