<svg xmlns="http://www.w3.org/2000/svg" width="109" height="109" viewBox="0 0 109 109"><g id="kvg:StrokePaths_07e2e"><g id="kvg:07e2e" kvg:element="縮"><g id="kvg:07e2e-g1" kvg:element="糸" kvg:position="left" kvg:radical="general"><path id="kvg:07e2e-s1" kvg:type="㇜" d="M30.36 16.42c.36 1.3.31 2.6-.43 3.93-2.8 5.03-7.28 12.27-12.25 17.12-1.06 1.03-1.43 2.66.0 3.24 3.44 1.41 4.54 1.77 7.81 4.15"/><path id="kvg:07e2e-s2" kvg:type="㇜" d="M39.55 25.68c.2 1.07.22 2.03-.5 3.09C32.5 38.38 24.12 48.5 16.07 57.71c-1.73 1.98-.92 3.29 1.4 2.59 6.78-2.05 12.4-3.8 20.79-6.03"/><path id="kvg:07e2e-s3" kvg:type="㇔" d="M34.12 46.62c2.25 2.14 5.81 8.78 6.38 12.11"/><path id="kvg:07e2e-s4" kvg:type="㇑" d="M28.33 60.62c.59.59 1.08 2.01 1.08 3.54.0 8.71-.12 18.46-.12 27.86.0 2.82-.1 5-.1 6.15"/><path id="kvg:07e2e-s5" kvg:type="㇒" d="M19.6 69.35c.16.94.12 2.29-.16 2.97-1.45 3.56-4.32 9.81-9.2 16.62"/><path id="kvg:07e2e-s6" kvg:type="㇔" d="M36.75 66.62c2.71 3.45 4.79 11.47 5.42 14.6"/></g><g id="kvg:07e2e-g2" kvg:element="宿" kvg:position="right" kvg:phon="宿"><g id="kvg:07e2e-g3" kvg:element="宀" kvg:position="top"><path id="kvg:07e2e-s7" kvg:type="㇑a" d="M68.91 12c.92.92 1.37 2.02 1.37 3.24.0 1.64-.07 5.39-.07 9.46"/><g id="kvg:07e2e-g4" kvg:element="冖"><path id="kvg:07e2e-s8" kvg:type="㇔" d="M50.6 26.46c0 3.33-2.57 12.97-3.56 15.19"/><path id="kvg:07e2e-s9" kvg:type="㇖b" d="M51.63 28.27c16.37-2.52 34.95-4.84 39.64-4.9 10.22-.12.4 6.55-.77 7.33"/></g></g><g id="kvg:07e2e-g5" kvg:element="佰" kvg:position="bottom"><g id="kvg:07e2e-g6" kvg:element="亻" kvg:variant="true" kvg:original="人"><path id="kvg:07e2e-s10" kvg:type="㇒" d="M58.15 39.5c.15 1.42-.04 3.28-.53 4.49-3.11 7.75-6.74 14.7-13.87 24.13"/><path id="kvg:07e2e-s11" kvg:type="㇑" d="M51.74 59.16c.8.8 1.22 2.33 1.22 4.34.0 9.29-.06 20.06-.08 29.62.0 1.89-.01 3.69-.01 5.38"/></g><g id="kvg:07e2e-g7" kvg:element="百"><path id="kvg:07e2e-s12" kvg:type="㇐" d="M65.16 44.42c2.09.33 3.88.31 5.34.14 5-.6 14.12-1.93 20.64-2.88 1.21-.17 2.54-.57 3.74-.25"/><g id="kvg:07e2e-g8" kvg:element="白"><g id="kvg:07e2e-g9" kvg:position="top"><path id="kvg:07e2e-s13" kvg:type="㇔" d="M76.69 46.88c.32.75.3 1.72-.04 2.42-.94 3.01-2 6.18-4.64 10.21"/></g><g id="kvg:07e2e-g10" kvg:element="日" kvg:position="bottom"><path id="kvg:07e2e-s14" kvg:type="㇑" d="M65.3 60.35c.61.61 1.16 1.61 1.16 2.81.0 10.82-.06 18.84-.06 27.1.0 2.16-.03 3.96.01 5.2"/><path id="kvg:07e2e-s15" kvg:type="㇕a" d="M67.48 62.19c4.39-.69 20.26-3.08 21.85-3.2 1.95-.15 3.05 1 3.05 1.9.0 3.29-.07 18.69-.1 27.61-.01 2.58-.02 4.62-.02 5.67"/><path id="kvg:07e2e-s16" kvg:type="㇐a" d="M67.65 75.75C74.88 75 83.25 74.5 91.1 74"/><path id="kvg:07e2e-s17" kvg:type="㇐a" d="M67.67 91.77c8.42-.6 15.08-1.27 24.1-1.82"/></g></g></g></g></g></g></g></svg>