<!DOCTYPE svg PUBLIC "-//W3C//DTD SVG 1.0//EN" "http://www.w3.org/TR/2001/REC-SVG-20010904/DTD/svg10.dtd" [
<!ATTLIST g
xmlns:kvg CDATA #FIXED "http://kanjivg.tagaini.net"
kvg:element CDATA #IMPLIED
kvg:variant CDATA #IMPLIED
kvg:partial CDATA #IMPLIED
kvg:original CDATA #IMPLIED
kvg:part CDATA #IMPLIED
kvg:number CDATA #IMPLIED
kvg:tradForm CDATA #IMPLIED
kvg:radicalForm CDATA #IMPLIED
kvg:position CDATA #IMPLIED
kvg:radical CDATA #IMPLIED
kvg:phon CDATA #IMPLIED >
<!ATTLIST path
xmlns:kvg CDATA #FIXED "http://kanjivg.tagaini.net"
kvg:type CDATA #IMPLIED >
]><svg xmlns="http://www.w3.org/2000/svg" width="109" height="109" viewBox="0 0 109 109"><g id="kvg:StrokePaths_07e22" style="fill:none;stroke:#000000;stroke-width:3;stroke-linecap:round;stroke-linejoin:round;"><g id="kvg:07e22" kvg:element="縢"><g id="kvg:07e22-g1" kvg:element="月" kvg:variant="true" kvg:original="肉" kvg:position="left" kvg:radical="nelson"><path id="kvg:07e22-s1" kvg:type="㇓" d="M17.91 14.07c.6 1.05.99 2.63 1.19 3.65.2 1.02.17 28.62-.46 37.16-.9 12.15-.21 20.25-8.14 38.37"/><path id="kvg:07e22-s2" kvg:type="㇆a" d="M19.7 15.87c1.93-.06 11.18-1.54 12.61-1.68 2.58-.25 3.22 1.42 3.22 2.9.0 3.51-.04 49.27-.04 69.22.0 13.72-5.43 3.87-7.08 2.22"/><path id="kvg:07e22-s3" kvg:type="㇐a" d="M19.5 37.87c4.02-.16 11.37-.71 14.9-.72"/><path id="kvg:07e22-s4" kvg:type="㇐a" d="M19.39 59.7c3.19-.07 10.59-.66 14.92-1.01"/></g><g id="kvg:07e22-g2" kvg:position="right"><g id="kvg:07e22-g3" kvg:position="top"><path id="kvg:07e22-s5" kvg:type="㇒" d="M55.5 13.75c.04.34.16.92-.07 1.37-1.32 2.6-7.55 10.04-13.18 13.13"/><path id="kvg:07e22-s6" kvg:type="㇔" d="M77.25 12.5c5.58 2.29 14.42 9.41 15.82 12.97"/><g id="kvg:07e22-g4" kvg:element="二"><g id="kvg:07e22-g5" kvg:position="top"><path id="kvg:07e22-s7" kvg:type="㇐" d="M49 27.54c.82.33 2.33.42 3.15.33 5.24-.56 24.44-3.28 29.52-2.9 1.36.1 2.19.16 2.88.32"/></g><g id="kvg:07e22-g6" kvg:position="bottom"><path id="kvg:07e22-s8" kvg:type="㇐" d="M42.1 40.75c1.36.52 3.87.7 5.23.52 7.34-.95 29.69-2.38 44.45-3.08 2.27-.11 3.63.25 4.77.51"/></g></g><g id="kvg:07e22-g7" kvg:element="人"><path id="kvg:07e22-s9" kvg:type="㇒" d="M65.75 11c0 .87.21 1.71.18 3.28C65.76 23.87 55.5 47 41.25 57.25"/><path id="kvg:07e22-s10" kvg:type="㇏" d="M68.94 26.31c3.34 5.06 17.76 21.58 21.45 25.29 1.25 1.26 2.86 1.79 4.11 2.15"/></g></g><g id="kvg:07e22-g8" kvg:element="糸" kvg:position="bottom" kvg:radical="tradit"><path id="kvg:07e22-s11" kvg:type="㇜" d="M65.13 44.5c.29.7.05 2.3-.65 3-3.07 3.05-7.19 7.01-10.12 8.66-.6.34-.58 1.63.0 1.76 3.07.7 6.44 1.88 9.07 3.17"/><path id="kvg:07e22-s12" kvg:type="㇜" d="M77.49 48c.32.45-.08 2.42-.5 2.9-6.15 7.04-16.87 14.8-25.32 21.22-1.94 1.47.48 2.31 1.74 2.02C58.7 72.88 78.21 70.2 85 69"/><path id="kvg:07e22-s13" kvg:type="㇔" d="M77.83 61.1c4.03 2.53 10.41 10.42 11.42 14.36"/><path id="kvg:07e22-s14" kvg:type="㇑" d="M67.57 72.87c.05.2.68 1.03.73 2.28.23 6.02-.15 21.79-.15 23.84"/><path id="kvg:07e22-s15" kvg:type="㇒" d="M56.8 80.98c.23.63.2 1.88-.24 2.33-2.81 2.95-9.83 8.65-13.82 11.19"/><path id="kvg:07e22-s16" kvg:type="㇔" d="M78.42 81.74C85.71 84.75 91.31 91.77 93 94.5"/></g></g></g></g><g id="kvg:StrokeNumbers_07e22" style="font-size:8;fill:#808080"><text transform="matrix(1 0 0 1 11.25 21.25)">1</text><text transform="matrix(1 0 0 1 22.25 12.30)">2</text><text transform="matrix(1 0 0 1 23.25 34.25)">3</text><text transform="matrix(1 0 0 1 23.25 56.25)">4</text><text transform="matrix(1 0 0 1 47.25 13.25)">5</text><text transform="matrix(1 0 0 1 74.25 9.25)">6</text><text transform="matrix(1 0 0 1 56.25 25.25)">7</text><text transform="matrix(1 0 0 1 42.25 38.25)">8</text><text transform="matrix(1 0 0 1 58.25 9.25)">9</text><text transform="matrix(1 0 0 1 77.25 34.25)">10</text><text transform="matrix(1 0 0 1 56.25 48.70)">11</text><text transform="matrix(1 0 0 1 68.25 48.25)">12</text><text transform="matrix(1 0 0 1 79.25 60.25)">13</text><text transform="matrix(1 0 0 1 58.50 80.25)">14</text><text transform="matrix(1 0 0 1 44.25 84.90)">15</text><text transform="matrix(1 0 0 1 74.25 79.25)">16</text></g></svg>