<svg xmlns="http://www.w3.org/2000/svg" width="109" height="109" viewBox="0 0 109 109"><g id="kvg:StrokePaths_07e2b" style="fill:none;stroke:#000000;stroke-width:3;stroke-linecap:round;stroke-linejoin:round;"><g id="kvg:07e2b" kvg:element="縫"><g id="kvg:07e2b-g1" kvg:element="糸" kvg:position="left" kvg:radical="general"><path id="kvg:07e2b-s1" kvg:type="㇜" d="M25.63 15.17c.34 1.34.51 2.4-.17 3.8-3.2 6.53-6.49 12.82-11.05 17.97-.63.71-.43 2.35.25 2.6 3.6 1.34 5.13 2.36 8.22 4.81"/><path id="kvg:07e2b-s2" kvg:type="㇜" d="M33.55 29.68c.32 1.2-.05 2.2-.75 3.34-5.9 9.68-9.93 15.73-18.23 24.69-1.79 1.93-.82 3.29 1.65 2.59 5.05-1.43 9.03-2.68 15.79-4.53"/><path id="kvg:07e2b-s3" kvg:type="㇔" d="M29.13 50.38c2.07 1.61 5.35 6.6 5.87 9.1"/><path id="kvg:07e2b-s4" kvg:type="㇑" d="M23.64 61.37c.87.87.98 1.88.98 3.59.0 9.66-.04 17.81-.09 25.49-.02 2.29-.03 4.58-.03 6.92"/><path id="kvg:07e2b-s5" kvg:type="㇒" d="M16.63 72.1c.11.98.09 2.15-.11 2.85C15.25 79.5 11.81 89.02 10 92.93"/><path id="kvg:07e2b-s6" kvg:type="㇔" d="M30.43 70.54c2.37 2.35 4.19 7.81 4.74 9.94"/></g><g id="kvg:07e2b-g2" kvg:element="逢" kvg:position="right" kvg:phon="逢"><g id="kvg:07e2b-g3" kvg:element="夆" kvg:position="nyoc"><g id="kvg:07e2b-g4" kvg:element="夂"><path id="kvg:07e2b-s7" kvg:type="㇒" d="M67.08 13c.07.85-.2 1.62-.53 2.39-2.31 5.41-6.76 12.7-13.8 20.03"/><path id="kvg:07e2b-s8" kvg:type="㇇" d="M67.75 19.99c.25.03 1.78.2 2.48.13 2.32-.25 8.64-2.41 11.95-3.19 2.41-.57 3.01 1.5 2.07 3.19-5.01 9.01-18.51 20.76-33.3 26.29"/><path id="kvg:07e2b-s9" kvg:type="㇏" d="M61.17 27.53c3.02-.01 16.95 6.72 25.94 11.04 2.37 1.14 5.29 2.52 7.92 2.8"/></g><g id="kvg:07e2b-g5" kvg:element="丰"><g id="kvg:07e2b-g6" kvg:element="三"><g id="kvg:07e2b-g7" kvg:element="一" kvg:position="top"><path id="kvg:07e2b-s10" kvg:type="㇐" d="M60.92 50.43c1.42.65 3.82.48 5.35.31 6.88-.79 13.2-1.44 19.1-2.21 1.42-.19 3.02-.55 4.45-.16"/></g><g id="kvg:07e2b-g8" kvg:position="bottom"><g id="kvg:07e2b-g9" kvg:element="一"><path id="kvg:07e2b-s11" kvg:type="㇐" d="M61.26 61.63c1.46.67 4.05.51 5.62.34 7.12-.76 12.95-1.34 19.01-2.09 1.24-.15 2.53-.41 3.76-.07"/></g><g id="kvg:07e2b-g10" kvg:element="一"><path id="kvg:07e2b-s12" kvg:type="㇐" d="M57.74 74.05c2.3 1.05 4.95.85 7.39.63 7.51-.66 17.23-2.29 26.29-3.13 2.05-.19 3.29-.23 4.32.05"/></g></g></g><g id="kvg:07e2b-g11" kvg:element="丨"><path id="kvg:07e2b-s13" kvg:type="㇑" d="M74.81 41.19c.93.93 1.02 2.06 1.02 3.42.0 6.27.08 24.31.02 35.89-.01 2.37-.02 4.45-.02 6.1"/></g></g></g><g id="kvg:07e2b-g12" kvg:element="⻌" kvg:original="辶" kvg:position="nyo"><path id="kvg:07e2b-s14" kvg:type="㇔" d="M39.5 22.12c2.91 1.5 7.52 6.17 8.25 8.51"/><path id="kvg:07e2b-s15" kvg:type="㇋" d="M39 57.22c2.04.93 3.39.46 4.3.23.9-.23 6.88-3 8.24-3.46s2.37.9 1.49 2.3C43.75 71 44.25 65 51.3 74.92c.9 1.26.67 2.54-.68 3.71-1.99 1.74-5.49 4.99-8 7.12"/><path id="kvg:07e2b-s16" kvg:type="㇏a" d="M37.25 87.15c2.28-.35 6.77-.59 10.27-.52 5.48.12 22.87 4.83 26.23 5.72C82.87 94.78 88 96.25 95 96.51"/></g></g></g></g></svg>