<svg xmlns="http://www.w3.org/2000/svg" width="109" height="109" viewBox="0 0 109 109"><g id="kvg:StrokePaths_07e21" style="fill:none;stroke:#000000;stroke-width:3;stroke-linecap:round;stroke-linejoin:round;"><g id="kvg:07e21" kvg:element="縡"><g id="kvg:07e21-g1" kvg:element="糸" kvg:position="left" kvg:radical="general"><path id="kvg:07e21-s1" kvg:type="㇜" d="M26.15 13.17c.36 1.42.38 2.47-.18 4.01C23.5 24 19 28.75 14.18 34.19c-.67.75-.72 3.27.0 3.54 3.81 1.42 7.64 3.78 10.91 6.38"/><path id="kvg:07e21-s2" kvg:type="㇜" d="M36.05 26.43c.3.58.37 2.46.0 3.09-5.8 9.73-13.99 20.18-21.98 28.44-1.83 1.89.46 2.98 1.65 2.59 5-1.61 14.87-3.99 21.29-5.53"/><path id="kvg:07e21-s3" kvg:type="㇔" d="M32.88 47.88c2.6 2.27 6.72 9.32 7.37 12.85"/><path id="kvg:07e21-s4" kvg:type="㇑" d="M26.39 60.62c.07.36.91 1.85.98 4.09.31 10.79-.2 28.79-.2 32.46"/><path id="kvg:07e21-s5" kvg:type="㇒" d="M17.1 71.35c.16.94.13 2.79-.16 3.47-1.87 4.39-6.55 12.85-9.2 16.62"/><path id="kvg:07e21-s6" kvg:type="㇔" d="M35.68 69.79c3.5 3.83 6.18 12.72 6.99 16.19"/></g><g id="kvg:07e21-g2" kvg:element="宰" kvg:position="right"><g id="kvg:07e21-g3" kvg:element="宀" kvg:position="top"><path id="kvg:07e21-s7" kvg:type="㇑a" d="M66.14 9.5c.95.4 2.29 2.34 2.27 3.48-.07 3.6-.07 6.22-.07 9.49"/><g id="kvg:07e21-g4" kvg:element="冖"><path id="kvg:07e21-s8" kvg:type="㇔" d="M48 20.57c0 3.44-2.16 12.88-3.14 15.18"/><path id="kvg:07e21-s9" kvg:type="㇖b" d="M47.81 25.09c1.86.16 31.71-4.09 43.62-4.52 9.1-.33 1.83 7.11-.32 9.06"/></g></g><g id="kvg:07e21-g5" kvg:element="辛" kvg:position="bottom"><g id="kvg:07e21-g6" kvg:element="立" kvg:position="top"><g id="kvg:07e21-g7" kvg:element="亠" kvg:position="top"><path id="kvg:07e21-s10" kvg:type="㇑a" d="M67.83 28.75c.74.72 1.11 1.22 1.11 2.89s0 1.97.0 6.5"/><path id="kvg:07e21-s11" kvg:type="㇐" d="M49.93 39.98c1.15.31 2.5.36 3.65.31 6.5-.27 22.48-3.33 32.32-3.55 1.92-.04 3.07.15 4.03.31"/></g><g id="kvg:07e21-g8" kvg:position="bottom"><path id="kvg:07e21-s12" kvg:type="㇔" d="M57.18 45.6c2.79 4.25 4.06 8.6 4.32 11.41"/><path id="kvg:07e21-s13" kvg:type="㇒" d="M80.04 41.09c.62.54.33 2.9.19 3.31-.95 2.78-4.63 10.62-5.87 12.94"/><path id="kvg:07e21-s14" kvg:type="㇐" d="M46.55 61.7c1.3.26 2.82.31 4.12.26 15.64-.65 27.27-2.69 43.68-3.22 2.17-.07 3.47.12 4.55.25"/></g></g><g id="kvg:07e21-g9" kvg:element="十" kvg:position="bottom"><path id="kvg:07e21-s15" kvg:type="㇐" d="M49.72 76.7c1.21.47 3.43.55 4.64.47 13.39-.92 20.88-2.42 35.13-3.4 2.01-.14 3.23.22 4.23.46"/><path id="kvg:07e21-s16" kvg:type="㇑" d="M68.56 62.88c.44.46 1.46 2.45 1.46 3.38.0 7.74-.12 30.76-.15 32.12"/></g></g></g></g></g></svg>