<svg xmlns="http://www.w3.org/2000/svg" width="109" height="109" viewBox="0 0 109 109"><g id="kvg:StrokePaths_07e3e"><g id="kvg:07e3e" kvg:element="績"><g id="kvg:07e3e-g1" kvg:element="糸" kvg:position="left" kvg:radical="general"><path id="kvg:07e3e-s1" kvg:type="㇜" d="M29.9 14.25c.31 1.21.54 2.22-.16 3.44C26.12 24 22.12 30 16.92 35.49c-1.25 1.31-.67 2.64.75 3.04 3.72 1.04 7.84 2.74 10.64 4.97"/><path id="kvg:07e3e-s2" kvg:type="㇜" d="M41.78 24.44c.34.93.22 2.31-.5 3.44C35.8 36.53 25.5 48.12 17.9 56.61c-1.67 1.87-.65 3.14 1.57 2.47 4.78-1.44 12.78-4.21 20.48-6.49"/><path id="kvg:07e3e-s3" kvg:type="㇔" d="M37 46.75c2.47 2.03 6.38 8.34 7 11.5"/><path id="kvg:07e3e-s4" kvg:type="㇑" d="M30.33 59.01c.58.58 1.28 1.87 1.28 3.28.0 7.59-.1 20.34-.1 28.71.0 2.87-.06 4.99-.06 5.75"/><path id="kvg:07e3e-s5" kvg:type="㇒" d="M22.75 68.25c.12.76-.15 2.26-.37 2.8-1.45 3.55-5.33 11.15-7.38 14.2"/><path id="kvg:07e3e-s6" kvg:type="㇔" d="M39.62 67.75c2.94 3.49 5.19 11.59 5.88 14.75"/></g><g id="kvg:07e3e-g2" kvg:element="責" kvg:position="right" kvg:phon="責"><g id="kvg:07e3e-g3" kvg:element="龶" kvg:position="top"><path id="kvg:07e3e-s7" kvg:type="㇐" d="M51.33 21.38c1.92.37 3.93.22 5.44.04 6.73-.8 17.72-2.08 24.01-2.9 1.94-.25 3.79-.13 5.72.04"/><path id="kvg:07e3e-s8" kvg:type="㇑a" d="M67.58 10.63c.83.83 1.62 2.37 1.62 3.85.0 6.27.05 19 .05 26.02"/><path id="kvg:07e3e-s9" kvg:type="㇐" d="M50.55 31.93c1.95.32 4.2.17 5.69.02 6.01-.6 18.37-1.99 24.85-2.77 1.98-.24 4.2-.29 6.19-.16"/><path id="kvg:07e3e-s10" kvg:type="㇐" d="M44.88 43.05c2.48.59 4.99.44 7.48.15 11.27-1.33 27.84-2.5 37.65-3.18 2.3-.16 4.72.01 7 .5"/></g><g id="kvg:07e3e-g4" kvg:element="貝" kvg:position="bottom"><g id="kvg:07e3e-g5" kvg:element="目" kvg:position="top"><path id="kvg:07e3e-s11" kvg:type="㇑" d="M54.47 50.69c.73.73 1.19 2.06 1.19 3.33.0.77.06 14.98.06 23.23.0 1.67-.05 3.2-.06 4.5"/><path id="kvg:07e3e-s12" kvg:type="㇕a" d="M56.48 51.9c2.75-.14 22.94-2.14 25.44-2.34 2.33-.18 3.56 1.19 3.56 2.89.0 4.24-.03 15.83-.05 23.18.0 2.26-.01 3.88-.01 4.99"/><path id="kvg:07e3e-s13" kvg:type="㇐a" d="M56.93 60.32c3.93-.04 22.79-1.56 27.2-1.6"/><path id="kvg:07e3e-s14" kvg:type="㇐a" d="M57.15 69.36c6.6-.48 20.6-1.61 27.28-2.01"/><path id="kvg:07e3e-s15" kvg:type="㇐a" d="M56.87 78.97c8.13-.72 18.78-1.19 27.39-1.81"/></g><g id="kvg:07e3e-g6" kvg:element="八" kvg:position="bottom"><path id="kvg:07e3e-s16" kvg:type="㇒" d="M63.2 84.97c.18.9-.17 1.82-1.06 2.59-2.7 2.3-10.75 7.47-16.14 10.19"/><path id="kvg:07e3e-s17" kvg:type="㇔" d="M77.42 83.63c6.38 3.58 13.92 10.07 15.66 13.21"/></g></g></g></g></g></svg>