<svg xmlns="http://www.w3.org/2000/svg" width="109" height="109" viewBox="0 0 109 109"><g id="kvg:StrokePaths_07e35" style="fill:none;stroke:#000000;stroke-width:3;stroke-linecap:round;stroke-linejoin:round;"><g id="kvg:07e35" kvg:element="縵"><g id="kvg:07e35-g1" kvg:element="糸" kvg:position="left" kvg:radical="general"><path id="kvg:07e35-s1" kvg:type="㇜" d="M29.15 11.67c.36 1.42.38 2.47-.18 4.01C26.5 22.5 21.5 29.75 16.68 35.19c-.67.75-.72 3.27.0 3.54 3.81 1.42 8.14 2.78 11.41 5.38"/><path id="kvg:07e35-s2" kvg:type="㇜" d="M40.05 24.43c.3.58.37 2.46.0 3.09-5.8 9.73-14.99 21.68-22.98 29.94-1.83 1.89.46 2.98 1.65 2.59 5-1.61 16.87-3.99 23.29-5.53"/><path id="kvg:07e35-s3" kvg:type="㇔" d="M36.88 44.63c3.13 3.02 8.09 12.42 8.87 17.12"/><path id="kvg:07e35-s4" kvg:type="㇑" d="M29.12 60.62c.05.36.74 1.85.79 4.09.25 10.79-.16 28.79-.16 32.46"/><path id="kvg:07e35-s5" kvg:type="㇒" d="M19.77 70c.18.88.15 2.61-.18 3.24-2.1 4.1-7.37 12-10.35 15.51"/><path id="kvg:07e35-s6" kvg:type="㇔" d="M38.68 68.29c2.75 3.59 4.85 11.93 5.49 15.19"/></g><g id="kvg:07e35-g2" kvg:element="曼" kvg:position="right"><g id="kvg:07e35-g3" kvg:element="日" kvg:position="top"><path id="kvg:07e35-s7" kvg:type="㇑" d="M53.83 14.15c.25.44.85 1.73.9 2.3.52 5.8 2.23 15.23 2.94 23.75"/><path id="kvg:07e35-s8" kvg:type="㇕a" d="M55.17 15.91c7.31-.96 20.92-3.08 26.38-3.88 2.01-.3 3.1.97 2.93 3.29-.29 3.84-1.03 16.76-1.94 23.16"/><path id="kvg:07e35-s9" kvg:type="㇐a" d="M56.5 26.51c2.32-.21 25.11-2.24 27.03-2.32"/><path id="kvg:07e35-s10" kvg:type="㇐a" d="M57.66 38c5.3-.46 17.06-1.83 24.37-2.59"/></g><g id="kvg:07e35-g4" kvg:position="bottom"><g id="kvg:07e35-g5" kvg:element="罒" kvg:variant="true" kvg:original="网"><path id="kvg:07e35-s11" kvg:type="㇑" d="M49.53 46.25c.27.26.54.48.66.81.93 2.6 1.92 10.27 2.56 14.94"/><path id="kvg:07e35-s12" kvg:type="㇕a" d="M50.5 48.33c5.09-.96 39.32-4.03 42.03-4.35.99-.12 2.33.83 2.07 2.22-.55 2.89-2.41 9.85-3.89 13.97"/><path id="kvg:07e35-s13" kvg:type="㇑a" d="M64.17 47.25c.16 1.52.6 8.95.75 10.66"/><path id="kvg:07e35-s14" kvg:type="㇑a" d="M78.32 45.41C78.16 48.15 77.7 53.95 77.4 57"/><path id="kvg:07e35-s15" kvg:type="㇐a" d="M52.86 60.76c3.13-.27 33.34-1.95 37.64-2.36"/></g><g id="kvg:07e35-g6" kvg:element="又"><path id="kvg:07e35-s16" kvg:type="㇇" d="M55.03 69.34c1.33.27 1.5.68 4.15.27 2.66-.41 20.54-3.5 22.37-3.91s3.13 1.61 1.77 3.46C72.34 84.1 60.26 93.37 44.02 99"/><path id="kvg:07e35-s17" kvg:type="㇏" d="M53.5 73.5c3.84.6 22.59 16.59 35.95 23.15 2.08 1.02 3.6 1.7 5.53 2.04"/></g></g></g></g></g></svg>