<svg xmlns="http://www.w3.org/2000/svg" width="109" height="109" viewBox="0 0 109 109"><g id="kvg:StrokePaths_07e6d" style="fill:none;stroke:#000000;stroke-width:3;stroke-linecap:round;stroke-linejoin:round;"><g id="kvg:07e6d" kvg:element="繭"><g id="kvg:07e6d-g1" kvg:element="艹" kvg:variant="true" kvg:original="艸" kvg:position="top" kvg:radical="nelson"><path id="kvg:07e6d-s1" kvg:type="㇐" d="M15.5 23.77c2.44.99 5.81.64 8.38.43 13.61-1.11 42.86-3.27 57.99-3.81 3.28-.12 6.66.1 9.87.89"/><path id="kvg:07e6d-s2" kvg:type="㇑a" d="M35.86 13.75c1.01.75 1.4 1.79 1.56 2.51 1.44 6.78 2.67 13.27 3.08 15.74"/><path id="kvg:07e6d-s3" kvg:type="㇑a" d="M68.5 11c.42 1.18.35 2.27.0 3.75-1.25 5.25-2 9-3.75 15.75"/></g><g id="kvg:07e6d-g2" kvg:position="bottom"><g id="kvg:07e6d-g3" kvg:element="冂"><path id="kvg:07e6d-s4" kvg:type="㇑" d="M20.75 38.5c1.19 1.19 1.5 2.5 1.5 4.75.0 1.39.0 31.62.0 46.12.0 4.47.0 7.45.0 7.62"/><path id="kvg:07e6d-s5" kvg:type="㇆a" d="M22.25 40.25c8.28-.87 48.32-4.02 59.75-4.82 4.3-.3 6.5.54 6.5 5.19.0 9.97.0 45.28.0 50.62.0 9.25-4.25 4.75-7.25 1.5"/></g><path id="kvg:07e6d-s6" kvg:type="㇑" d="M53.37 40c1.06 1.06 1.21 2.38 1.21 3.75.0.67.04 32.67.04 46.5.0 3.64.0 6.03-.01 6.25"/><g id="kvg:07e6d-g4" kvg:element="糸" kvg:radical="tradit"><path id="kvg:07e6d-s7" kvg:type="㇜" d="M37.61 44.5c.33 1.14-.06 1.83-.65 2.8-1.49 2.43-3.82 5.19-5.45 6.83-1.05 1.06-1.25 2.25.21 2.76 1.65.58 3.25 1.12 4.68 2.14"/><path id="kvg:07e6d-s8" kvg:type="㇜" d="M45.58 48.65c.04 1.23-.11 2.32-1.16 3.38-3.67 3.73-9.67 10.1-13.8 14.22-1.47 1.47-.86 2.69.85 2.25 4.4-1.12 9.65-2.87 14.88-4.03"/><path id="kvg:07e6d-s9" kvg:type="㇔" d="M44.16 60.94c1.3 1.23 3.36 5.08 3.69 7"/><path id="kvg:07e6d-s10" kvg:type="㇑" d="M38.32 69.94c.8.8 1.03 1.68 1.03 3.07.0 2.62-.06 8.32-.09 13.24-.01 1.86-.02 3.47-.02 4.5"/><path id="kvg:07e6d-s11" kvg:type="㇒" d="M32.96 75.96c.09.48.04 1.54-.34 2.39-1 2.25-3.63 6.53-5.1 8.44"/><path id="kvg:07e6d-s12" kvg:type="㇔" d="M44.79 74.97c1.07 1.49 2.9 5.45 3.29 6.94"/></g><g id="kvg:07e6d-g5" kvg:element="虫"><g id="kvg:07e6d-g6" kvg:element="中"><g id="kvg:07e6d-g7" kvg:element="口"><path id="kvg:07e6d-s13" kvg:type="㇑" d="M60.06 54.53c.68.61.97 1.82 1.08 2.57.26 1.81.54 3.96.86 6.61.13 1.08.27 2.24.42 3.49"/><path id="kvg:07e6d-s14" kvg:type="㇕b" d="M62.12 55.5c5.48-.77 12.28-1.92 16.27-2.33 2.79-.29 3 .51 2.69 3.08-.26 2.11-.27 2.52-1.09 6.54"/><path id="kvg:07e6d-s15" kvg:type="㇐b" d="M63.61 65.85c2.85-.39 8.65-1.21 13.54-1.79 1.49-.17 2.89-.33 4.1-.44"/></g><g id="kvg:07e6d-g8" kvg:element="丨"><path id="kvg:07e6d-s16" kvg:type="㇑a" d="M69.86 43.34c.84.84.96 1.78.96 3.28.0 5.96-.07 28-.07 31.13"/></g></g><path id="kvg:07e6d-s17" kvg:type="㇀" d="M60.93 80.48c.82.9 1.72 1.2 2.9.79C70.25 79 76.27 76.66 79 75.62"/><path id="kvg:07e6d-s18" kvg:type="㇔" d="M77.92 71.04c1.54 1.77 3.98 7.26 4.36 10.01"/></g></g></g></g></svg>