<svg xmlns="http://www.w3.org/2000/svg" width="109" height="109" viewBox="0 0 109 109"><g id="kvg:StrokePaths_07e7b" style="fill:none;stroke:#000000;stroke-width:3;stroke-linecap:round;stroke-linejoin:round;"><g id="kvg:07e7b" kvg:element="繻"><g id="kvg:07e7b-g1" kvg:element="糸" kvg:position="left" kvg:radical="general"><path id="kvg:07e7b-s1" kvg:type="㇜" d="M27.52 13.5c.3 1.24.32 2.16-.15 3.52-2.06 5.97-6.99 12.82-11.02 17.59-.56.66-.6 2.87.0 3.1 3.18 1.24 7.06 2.37 9.79 4.65"/><path id="kvg:07e7b-s2" kvg:type="㇜" d="M37.23 24.43c.26.58.33 2.46.0 3.09C32.11 37.25 22.05 49.7 15 57.96c-1.62 1.89.4 2.98 1.46 2.59 4.41-1.61 14.9-4.49 20.57-6.03"/><path id="kvg:07e7b-s3" kvg:type="㇔" d="M32.5 48c2.56 2.25 6.61 9.24 7.25 12.73"/><path id="kvg:07e7b-s4" kvg:type="㇑" d="M26.48 61.62c.04.34.55 1.75.59 3.88.19 10.22-.12 27.27-.12 30.76"/><path id="kvg:07e7b-s5" kvg:type="㇒" d="M17.12 72.35c.13.83.11 2.48-.13 3.08-1.57 3.9-5.51 11.41-7.74 14.75"/><path id="kvg:07e7b-s6" kvg:type="㇔" d="M34.68 69.29c3.25 4.36 5.74 14.49 6.49 18.44"/></g><g id="kvg:07e7b-g2" kvg:element="需" kvg:position="right"><g id="kvg:07e7b-g3" kvg:element="雨" kvg:variant="true" kvg:position="top"><path id="kvg:07e7b-s7" kvg:type="㇐" d="M52.5 16.86c1.08.05 2.67.2 3.73.15 5.78-.26 22.15-2.54 27.22-2.64 1.48-.03 2.7-.14 4.06.1"/><path id="kvg:07e7b-s8" kvg:type="㇔/㇑" d="M47.21 25.25c-.22 4.99-2.13 9.55-3.54 14.59"/><path id="kvg:07e7b-s9" kvg:type="㇖b/㇆" d="M47.31 29.01C52.63 27.96 80.07 25 91.36 25c10.64.0 3.14 6.24.8 8.14"/><path id="kvg:07e7b-s10" kvg:type="㇑" d="M68.35 18.18c.65 1.4.94 2.32.95 3.69.01.49-.2 24.85-.2 26.2"/><path id="kvg:07e7b-s11" kvg:type="㇔" d="M52.71 34.73c2.5.76 5.92 3.01 7.29 4.27"/><path id="kvg:07e7b-s12" kvg:type="㇔" d="M52.25 43.5c2.26.87 5.76 4.05 7 5.5"/><path id="kvg:07e7b-s13" kvg:type="㇔" d="M77.5 32.5c2.67 1.24 5.68 3.72 6.75 4.75"/><path id="kvg:07e7b-s14" kvg:type="㇔" d="M77.84 41.93c2.63.94 6.22 3.75 7.66 5.32"/></g><g id="kvg:07e7b-g4" kvg:element="而" kvg:position="bottom"><g id="kvg:07e7b-g5" kvg:position="top"><path id="kvg:07e7b-s15" kvg:type="㇐" d="M48.03 56.56c1 .46 2.84.5 3.85.46 8.34-.32 30.99-2.87 37.18-2.34 1.67.14 2.68.22 3.51.45"/><path id="kvg:07e7b-s16" kvg:type="㇒" d="M67.38 58.11c.01.23.03.6-.03.94-.39 1.98-2.63 6.31-5.7 8.96"/></g><g id="kvg:07e7b-g6" kvg:position="bottom"><g id="kvg:07e7b-g7" kvg:element="冂"><path id="kvg:07e7b-s17" kvg:type="㇑" d="M47.31 68.38c.46 1.06.85 2.75.97 4.67.17 2.81 1.25 20.06 1.61 24"/><path id="kvg:07e7b-s18" kvg:type="㇆a" d="M47.75 70.75c5.82-.8 42.02-3.67 43.17-3.95 2.45-.6 3.87.77 3.84 3.45-.09 6.51-1.76 13.85-3.17 20.73-1.43 6.97-4.48 4.93-6.32 2.32"/></g><path id="kvg:07e7b-s19" kvg:type="㇑" d="M62.15 71.74c.41.7.94 2.08.98 3.12.14 3.48-.24 18.33-.24 19.89"/><path id="kvg:07e7b-s20" kvg:type="㇑" d="M75.9 70.27c.65 1.55.93 2.57.95 4.08.09 5.84.5 15.32.12 20.63"/></g></g></g></g></g></svg>