<svg xmlns="http://www.w3.org/2000/svg" width="109" height="109" viewBox="0 0 109 109"><g id="kvg:StrokePaths_07e70"><g id="kvg:07e70" kvg:element="繰"><g id="kvg:07e70-g1" kvg:element="糸" kvg:position="left" kvg:radical="general"><path id="kvg:07e70-s1" kvg:type="㇜" d="M28.38 15.17c.34 1.34.02 2.66-.67 4.05-2.83 5.65-5.9 10.88-10.3 16.47C16.38 37 16.5 38 17.9 38.8c3.28 1.86 5.13 3.11 8.22 5.56"/><path id="kvg:07e70-s2" kvg:type="㇜" d="M38.3 27.43c.45 1.2.32 2.7-.5 3.84-6.62 9.2-13.99 18.68-21.98 26.94-1.83 1.89-.87 3.54 1.4 2.84 5.9-1.8 14.37-4.74 20.79-6.28"/><path id="kvg:07e70-s3" kvg:type="㇔" d="M34.75 48.62c2.38 2.09 6.15 8.6 6.75 11.86"/><path id="kvg:07e70-s4" kvg:type="㇑" d="M27.14 60.87c1 1 1.23 2.38 1.23 3.84.0 7.13-.05 17.81-.09 24.54-.02 3.21-.03 5.53-.03 6.13"/><path id="kvg:07e70-s5" kvg:type="㇒" d="M19.61 69.85c.14 1.53.02 2.28-.4 3.47-1.56 4.47-6.2 12.6-8.71 16.37"/><path id="kvg:07e70-s6" kvg:type="㇔" d="M34.68 69.04c3 3.24 5.3 10.75 5.99 13.69"/></g><g id="kvg:07e70-g2" kvg:element="喿" kvg:position="right" kvg:phon="品+木"><g id="kvg:07e70-g3" kvg:element="品" kvg:position="top"><g id="kvg:07e70-g4" kvg:element="口" kvg:position="top"><path id="kvg:07e70-s7" kvg:type="㇑" d="M54.29 16.72c.75.75 1.46 1.65 1.73 2.84.79 3.57 1.22 5.1 2 9.48.21 1.16.41 2.28.6 3.3"/><path id="kvg:07e70-s8" kvg:type="㇕b" d="M56.84 18.29c8.12-1.41 18.17-2.95 22.83-3.3 1.7-.13 2.72 1.03 2.48 1.8-1.01 3.17-1.88 6.99-3.38 11.37"/><path id="kvg:07e70-s9" kvg:type="㇐b" d="M59.92 30.5c4.51-.33 10.18-1.03 16.32-1.61 1.3-.12 2.61-.24 3.93-.35"/></g><g id="kvg:07e70-g5" kvg:position="bottom"><g id="kvg:07e70-g6" kvg:element="口" kvg:position="left"><path id="kvg:07e70-s10" kvg:type="㇑" d="M46.5 40.35c.7.7 1.12 1.28 1.37 2.09.64 2.11 1.6 4.96 2.26 9.08.19 1.2.36 2.38.5 3.48"/><path id="kvg:07e70-s11" kvg:type="㇕b" d="M48.32 41.4c6.03-1.24 9.86-1.9 12.58-2.29 2.9-.42 3.56.17 3 3.02-.56 2.87-1.21 5.29-2 8.91"/><path id="kvg:07e70-s12" kvg:type="㇐b" d="M51.75 53.39c2.93-.34 3.91-.62 8.49-.97.85-.07 1.78-.14 2.8-.24"/></g><g id="kvg:07e70-g7" kvg:element="口" kvg:position="right"><path id="kvg:07e70-s13" kvg:type="㇑" d="M72.42 38.7c.75.75 1.16 1.46 1.25 2.25.58 2.07 1.14 4.97 1.52 8.02.15 1.19.3 2.41.45 3.6"/><path id="kvg:07e70-s14" kvg:type="㇕b" d="M74.56 40.01c5.59-.83 10.08-1.64 13.21-2.09 2.78-.4 3.59.2 2.94 2.99-.58 2.5-1 3.91-1.82 7.5"/><path id="kvg:07e70-s15" kvg:type="㇐b" d="M77.3 51.24c2.95-.37 4.62-.8 9.19-1.33 1.17-.14 2.51-.26 4.11-.35"/></g></g></g><g id="kvg:07e70-g8" kvg:element="木" kvg:position="bottom"><path id="kvg:07e70-s16" kvg:type="㇐" d="M45.9 66.55c2.47.81 5.09.33 7.61.08 7.92-.79 21.82-2.31 31.75-3.16 2.72-.23 5.31-.51 8.02.03"/><path id="kvg:07e70-s17" kvg:type="㇑" d="M67.79 55.17c.9.9 1.18 2.4 1.18 3.51.0 8.95.0 22.84-.13 31.82-.04 2.4-.08 4.41-.14 5.83"/><path id="kvg:07e70-s18" kvg:type="㇒" d="M65.55 66.18c0 1.45-.65 2.58-1.74 4.12-5.47 7.78-14.94 16.67-22.56 20.55"/><path id="kvg:07e70-s19" kvg:type="㇏" d="M70.29 66.25c4.08 4.88 11.88 12.79 18.01 18.2 2.19 1.93 4.32 3.18 6.69 4.57"/></g></g></g></g></svg>