<svg xmlns="http://www.w3.org/2000/svg" width="109" height="109" viewBox="0 0 109 109"><g id="kvg:StrokePaths_07e89"><g id="kvg:07e89" kvg:element="纉"><g id="kvg:07e89-g1" kvg:element="糸" kvg:position="left" kvg:radical="general"><path id="kvg:07e89-s1" kvg:type="㇜" d="M26.28 15.25c.28 1.33.29 2.31-.14 3.76-1.89 6.38-5.88 11.18-9.58 16.28-.51.71-.55 3.07.0 3.32 2.92 1.33 7.91 2.57 10.41 5.01"/><path id="kvg:07e89-s2" kvg:type="㇜" d="M36.96 25.18c.27.57.33 2.41.0 3.02C31.78 37.73 23.13 50.92 16 59.01c-1.63 1.86.41 2.92 1.47 2.54 4.46-1.58 15.06-5.4 20.79-6.91"/><path id="kvg:07e89-s3" kvg:type="㇔" d="M35.38 47.63c2.6 2.4 6.72 9.87 7.37 13.6"/><path id="kvg:07e89-s4" kvg:type="㇑" d="M28.39 60.62c.07.36.91 1.85.98 4.09.31 10.79-.2 28.79-.2 32.46"/><path id="kvg:07e89-s5" kvg:type="㇒" d="M20.11 69.85c.14 1 .12 2.98-.14 3.69-1.72 4.68-6.03 13.7-8.47 17.71"/><path id="kvg:07e89-s6" kvg:type="㇔" d="M35.93 67.54c3.25 4.06 5.74 13.5 6.49 17.19"/></g><g id="kvg:07e89-g2" kvg:element="賛" kvg:position="right"><g id="kvg:07e89-g3" kvg:position="top"><g id="kvg:07e89-g4" kvg:element="夫" kvg:variant="true" kvg:position="left"><path id="kvg:07e89-s7" kvg:type="㇐" d="M45.81 21.78c.65.14 1.85.16 2.49.14 4.45-.17 10.7-.67 16.62-1.33 1.07-.12 1.73.07 2.27.14"/><g id="kvg:07e89-g5" kvg:element="大" kvg:variant="true"><path id="kvg:07e89-s8" kvg:type="㇐" d="M43.75 31.62c.56.1 1.6.09 2.15.1 4.1.03 14.33-2.1 19.39-2.06.94.01 1.5.05 1.96.09"/><path id="kvg:07e89-s9" kvg:type="㇒" d="M57.51 13.25c.25.49.34.95.34 1.89C57.91 29.65 53.5 40 43.37 45.25"/><path id="kvg:07e89-s10" kvg:type="㇔/㇏" d="M56.29 32.38c4.02 1.7 8.4 7.01 9.96 9.62"/></g></g><g id="kvg:07e89-g6" kvg:element="夫" kvg:position="right"><path id="kvg:07e89-s11" kvg:type="㇐" d="M72.68 19.9C73.29 20 74.4 20 75 20c5.86.06 11.11-.81 17.27-1.27 1-.07 1.62.05 2.13.1"/><g id="kvg:07e89-g7" kvg:element="大"><path id="kvg:07e89-s12" kvg:type="㇐" d="M71.62 29.34c.6.07 1.7.1 2.29.07 7.5-.29 15.14-1.42 20.95-1.86.98-.07 1.59.04 2.09.07"/><path id="kvg:07e89-s13" kvg:type="㇒" d="M82.95 13c.22.45.3.88.3 1.76C83.25 29 80 36.25 70.55 42.75"/><path id="kvg:07e89-s14" kvg:type="㇏" d="M81.31 30.17c3.1 3.5 8.85 9.73 12.02 11.18 1.07.49 1.25.83 1.67.9"/></g></g></g><g id="kvg:07e89-g8" kvg:element="貝" kvg:position="bottom"><g id="kvg:07e89-g9" kvg:element="目" kvg:position="top"><path id="kvg:07e89-s15" kvg:type="㇑" d="M53.59 48.62c.53.78.8 2.36.8 3.41.0 1.04-.35 30.66-.35 31.18"/><path id="kvg:07e89-s16" kvg:type="㇕a" d="M54.74 50.59c2.96-.12 26.51-2.87 29.21-2.85 1.56.01 2.33 1.17 2.33 2.11-.02 2.9-.54 30.17-.54 30.91"/><path id="kvg:07e89-s17" kvg:type="㇐a" d="M56.19 59.63c4.01.0 23.78-1.72 28.28-1.72"/><path id="kvg:07e89-s18" kvg:type="㇐a" d="M56.41 69.27C62.36 69.27 78.3 68 86 68"/><path id="kvg:07e89-s19" kvg:type="㇐a" d="M55.85 80.1c5.84.0 21.45-1.56 29-1.56"/></g><g id="kvg:07e89-g10" kvg:element="八" kvg:position="bottom"><path id="kvg:07e89-s20" kvg:type="㇒" d="M60.45 85.62c-.2 1.13-.22 1.54-1 2.41-2.45 2.72-9.11 7.24-14.79 9.72"/><path id="kvg:07e89-s21" kvg:type="㇔" d="M77.42 85.27C83.36 88.72 90.38 94.98 92 98"/></g></g></g></g></g></svg>