<!DOCTYPE svg PUBLIC "-//W3C//DTD SVG 1.0//EN" "http://www.w3.org/TR/2001/REC-SVG-20010904/DTD/svg10.dtd" [
<!ATTLIST g
xmlns:kvg CDATA #FIXED "http://kanjivg.tagaini.net"
kvg:element CDATA #IMPLIED
kvg:variant CDATA #IMPLIED
kvg:partial CDATA #IMPLIED
kvg:original CDATA #IMPLIED
kvg:part CDATA #IMPLIED
kvg:number CDATA #IMPLIED
kvg:tradForm CDATA #IMPLIED
kvg:radicalForm CDATA #IMPLIED
kvg:position CDATA #IMPLIED
kvg:radical CDATA #IMPLIED
kvg:phon CDATA #IMPLIED >
<!ATTLIST path
xmlns:kvg CDATA #FIXED "http://kanjivg.tagaini.net"
kvg:type CDATA #IMPLIED >
]><svg xmlns="http://www.w3.org/2000/svg" width="109" height="109" viewBox="0 0 109 109"><g id="kvg:StrokePaths_07e93" style="fill:none;stroke:#000000;stroke-width:3;stroke-linecap:round;stroke-linejoin:round;"><g id="kvg:07e93" kvg:element="纓"><g id="kvg:07e93-g1" kvg:element="糸" kvg:position="left" kvg:radical="general"><path id="kvg:07e93-s1" kvg:type="㇜" d="M25.94 12.42c.3 1.33.31 2.32-.15 3.77-2.05 6.4-5.94 12.71-9.94 17.82-.55.71-.6 3.08.0 3.33 3.16 1.33 6.51 3.58 9.22 6.02"/><path id="kvg:07e93-s2" kvg:type="㇜" d="M35.9 23.18c.28.61.35 2.58.0 3.24-5.4 10.2-14.43 23.24-21.87 31.91-1.71 1.99.42 3.12 1.54 2.72 4.66-1.69 15.72-4.71 21.7-6.33"/><path id="kvg:07e93-s3" kvg:type="㇔" d="M32.5 47.25c2.82 2.43 7.29 9.97 8 13.75"/><path id="kvg:07e93-s4" kvg:type="㇑" d="M26.39 60.62c.07.36.91 1.85.98 4.09.31 10.79-.2 29.79-.2 33.46"/><path id="kvg:07e93-s5" kvg:type="㇒" d="M18.76 68.5c.12 1.02.1 3.03-.12 3.75-1.45 4.75-5.08 13.92-7.14 18"/><path id="kvg:07e93-s6" kvg:type="㇔" d="M32.5 68.5c3.87 3.78 6.85 12.57 7.75 16"/></g><g id="kvg:07e93-g2" kvg:element="嬰" kvg:position="right"><g id="kvg:07e93-g3" kvg:position="top"><g id="kvg:07e93-g4" kvg:element="貝" kvg:position="left"><g id="kvg:07e93-g5" kvg:element="目" kvg:position="top"><path id="kvg:07e93-s7" kvg:type="㇑" d="M47.7 13.5c.25.68.61 1.18.61 2.09.0.9.11 22.13-.18 25.91"/><path id="kvg:07e93-s8" kvg:type="㇕a" d="M48.72 14.64c1.48-.11 12.73-2.02 14.08-2.16 1.12-.11 1.72.61 1.72 1.44.0 2.02-.33 26.46-.33 27.12"/><path id="kvg:07e93-s9" kvg:type="㇐a" d="M48.34 22.52c2.63-.24 12.83-1.66 15.09-1.66"/><path id="kvg:07e93-s10" kvg:type="㇐a" d="M48.45 31.26c3.97-.52 10.78-1.56 14.99-1.67"/><path id="kvg:07e93-s11" kvg:type="㇐a" d="M48.27 40.43c3.9-.38 11.36-1.38 14.92-1.38"/></g><g id="kvg:07e93-g6" kvg:element="八" kvg:position="bottom"><path id="kvg:07e93-s12" kvg:type="㇒" d="M53.58 45.23c.26.88-.2 1.75-.71 2.39-1.56 1.94-5.65 6.09-8.77 8.38"/><path id="kvg:07e93-s13" kvg:type="㇔" d="M60.84 45.47c2.22 1.87 4.84 5.27 5.45 6.9"/></g></g><g id="kvg:07e93-g7" kvg:element="貝" kvg:position="right"><g id="kvg:07e93-g8" kvg:element="目" kvg:position="top"><path id="kvg:07e93-s14" kvg:type="㇑" d="M73.52 11.18c.25.66.61 1.15.61 2.03s.61 22.53.32 26.22"/><path id="kvg:07e93-s15" kvg:type="㇕a" d="M74.55 12.88c1.59-.11 13.74-1.51 15.19-1.64 1.21-.11 1.86.6 1.86 1.43.0 2-.36 26.23-.36 26.89"/><path id="kvg:07e93-s16" kvg:type="㇐a" d="M74.66 21.38c2.63-.27 13.83-1.9 16.09-1.9"/><path id="kvg:07e93-s17" kvg:type="㇐a" d="M74.78 29.55c3.97-.39 11.78-1.17 15.99-1.25"/><path id="kvg:07e93-s18" kvg:type="㇐a" d="M75.1 38.59c3.97-.26 11.55-.95 15.17-.95"/></g><g id="kvg:07e93-g9" kvg:position="bottom"><path id="kvg:07e93-s19" kvg:type="㇒" d="M78.5 42.75c.2.72-.15 1.42-.54 1.94-1.19 1.58-4.32 4.94-6.71 6.81"/><path id="kvg:07e93-s20" kvg:type="㇔" d="M86.4 44.22c3.34 2.21 7.28 6.22 8.19 8.15"/></g></g></g><g id="kvg:07e93-g10" kvg:element="女" kvg:position="bottom"><path id="kvg:07e93-s21" kvg:type="㇛" d="M65.53 56.62c.43 1.08.37 2.56-.21 3.79-3.15 6.64-5.11 10.13-10.42 17.7-1.16 1.65-.24 1.93.64 1.98 12.75.73 22.83 7.79 31.97 16.17"/><path id="kvg:07e93-s22" kvg:type="㇒" d="M80.75 61.25c.09.81.16 2.8-.19 3.98C77.7 74.81 69.75 90.5 49.04 95.5"/><path id="kvg:07e93-s23" kvg:type="㇐" d="M45.63 66.4c1.36.38 2.81.63 3.46.57 13.73-1.18 31.47-3.32 44.58-3.48 1.09-.01 2.96.23 3.84.66"/></g></g></g></g><g id="kvg:StrokeNumbers_07e93" style="font-size:8;fill:#808080"><text transform="matrix(1 0 0 1 19.25 13.38)">1</text><text transform="matrix(1 0 0 1 31.25 19.25)">2</text><text transform="matrix(1 0 0 1 32.25 44.23)">3</text><text transform="matrix(1 0 0 1 20.00 68.25)">4</text><text transform="matrix(1 0 0 1 9.25 72.25)">5</text><text transform="matrix(1 0 0 1 32.25 66.00)">6</text><text transform="matrix(1 0 0 1 40.25 20.25)">7</text><text transform="matrix(1 0 0 1 50.25 11.25)">8</text><text transform="matrix(1 0 0 1 52.25 20.25)">9</text><text transform="matrix(1 0 0 1 51.02 28.70)">10</text><text transform="matrix(1 0 0 1 51.25 37.25)">11</text><text transform="matrix(1 0 0 1 41.00 49.25)">12</text><text transform="matrix(1 0 0 1 55.00 52.48)">13</text><text transform="matrix(1 0 0 1 66.25 21.25)">14</text><text transform="matrix(1 0 0 1 73.25 9.25)">15</text><text transform="matrix(1 0 0 1 77.21 18.75)">16</text><text transform="matrix(1 0 0 1 77.25 27.18)">17</text><text transform="matrix(1 0 0 1 77.22 36.25)">18</text><text transform="matrix(1 0 0 1 67.00 46.03)">19</text><text transform="matrix(1 0 0 1 81.25 51.25)">20</text><text transform="matrix(1 0 0 1 56.25 59.25)">21</text><text transform="matrix(1 0 0 1 75.50 59.25)">22</text><text transform="matrix(1 0 0 1 44.25 63.25)">23</text></g></svg>