<svg xmlns="http://www.w3.org/2000/svg" width="109" height="109" viewBox="0 0 109 109"><g id="kvg:StrokePaths_07f38" style="fill:none;stroke:#000000;stroke-width:3;stroke-linecap:round;stroke-linejoin:round;"><g id="kvg:07f38" kvg:element="缸"><g id="kvg:07f38-g1" kvg:element="缶" kvg:position="left" kvg:radical="general"><path id="kvg:07f38-s1" kvg:type="㇒" d="M23.52 13.89c.04.71.08 1.83-.07 2.85C22.56 22.75 17.47 35.93 10.5 44"/><path id="kvg:07f38-s2" kvg:type="㇐" d="M21.38 29.92c.87.38 2.46.48 3.33.38 6.79-.8 15.29-2.8 20.88-3.38 1.44-.15 2.32.18 3.04.37"/><path id="kvg:07f38-s3" kvg:type="㇐" d="M11.63 50.91c1.04.37 2.94.46 3.97.37 8.9-.78 25.15-3.53 31.65-3.91 1.72-.1 2.76.18 3.63.36"/><path id="kvg:07f38-s4" kvg:type="㇑" d="M30.49 31.63c.54 1.25 1.16 2.16 1.16 3.88.0 6.04-.06 43.02-.14 48.12"/><path id="kvg:07f38-s5" kvg:type="㇄" d="M14.06 63.63c.76.45 1.53 2.34 1.51 3.25-.07 5.62-.57 9.37-1 16.5-.12 2.06.62 3.07 2.5 2.75 5.18-.88 20.68-3.38 30.5-4.5"/><path id="kvg:07f38-s6" kvg:type="㇑" d="M48.06 61.38c.76.45 1.64 3.35 1.51 4.25-.75 5.5-.5 9.25-1.75 19.5"/></g><g id="kvg:07f38-g2" kvg:element="工" kvg:position="right"><path id="kvg:07f38-s7" kvg:type="㇐" d="M54.75 27.22c.95.52 4.03.53 5 .53 6.25.0 24-1.75 31.5-2.29 1.46-.11 2.79.1 4 .54"/><path id="kvg:07f38-s8" kvg:type="㇑a" d="M72.62 30c1.38 1.25 1.77 3.53 1.77 5.8.0 15.86-.07 26.01-.07 53.2"/><path id="kvg:07f38-s9" kvg:type="㇐" d="M52.5 90.15c.76.26 3.48.54 4.76.42 13.87-1.29 24.02-2.41 36.65-2.8 2.07-.06 4.55.44 5.59.85"/></g></g></g></svg>