<!DOCTYPE svg PUBLIC "-//W3C//DTD SVG 1.0//EN" "http://www.w3.org/TR/2001/REC-SVG-20010904/DTD/svg10.dtd" [
<!ATTLIST g
xmlns:kvg CDATA #FIXED "http://kanjivg.tagaini.net"
kvg:element CDATA #IMPLIED
kvg:variant CDATA #IMPLIED
kvg:partial CDATA #IMPLIED
kvg:original CDATA #IMPLIED
kvg:part CDATA #IMPLIED
kvg:number CDATA #IMPLIED
kvg:tradForm CDATA #IMPLIED
kvg:radicalForm CDATA #IMPLIED
kvg:position CDATA #IMPLIED
kvg:radical CDATA #IMPLIED
kvg:phon CDATA #IMPLIED >
<!ATTLIST path
xmlns:kvg CDATA #FIXED "http://kanjivg.tagaini.net"
kvg:type CDATA #IMPLIED >
]><svg xmlns="http://www.w3.org/2000/svg" width="109" height="109" viewBox="0 0 109 109"><g id="kvg:StrokePaths_07f4c" style="fill:none;stroke:#000000;stroke-width:3;stroke-linecap:round;stroke-linejoin:round;"><g id="kvg:07f4c" kvg:element="罌"><g id="kvg:07f4c-g1" kvg:position="top"><g id="kvg:07f4c-g2" kvg:element="貝" kvg:position="left"><g id="kvg:07f4c-g3" kvg:element="目" kvg:position="top"><path id="kvg:07f4c-s1" kvg:type="㇑" d="M25.77 14.54c.37.6.91 1.04.91 1.83s.17 21.21-.27 24.54"/><path id="kvg:07f4c-s2" kvg:type="㇕a" d="M27.3 15.1c2.03-.09 17.46-1.25 19.3-1.36 1.54-.09 2.36.5 2.36 1.18.0 1.66-.45 22.58-.45 23.12"/><path id="kvg:07f4c-s3" kvg:type="㇐a" d="M26.73 22.28c3.61-.17 17.62-1.2 20.72-1.2"/><path id="kvg:07f4c-s4" kvg:type="㇐a" d="M26.9 30.3c5.78-.3 15.69-.91 21.82-.97"/><path id="kvg:07f4c-s5" kvg:type="㇐a" d="M26.63 38.58c5.59-.31 16.28-1.15 21.37-1.15"/></g><g id="kvg:07f4c-g4" kvg:element="八" kvg:position="bottom"><path id="kvg:07f4c-s6" kvg:type="㇒" d="M31.5 43.25c.3.94-.23 1.87-.83 2.55-1.81 2.07-6.56 6.5-10.18 8.95"/><path id="kvg:07f4c-s7" kvg:type="㇔" d="M42.67 41.88c3.7 2.2 8.07 6.2 9.08 8.12"/></g></g><g id="kvg:07f4c-g5" kvg:element="貝" kvg:position="right"><g id="kvg:07f4c-g6" kvg:element="目" kvg:position="top"><path id="kvg:07f4c-s8" kvg:type="㇑" d="M62.08 13.1c.36.59.88 1.02.88 1.8.0.78.17 20.83-.26 24.1"/><path id="kvg:07f4c-s9" kvg:type="㇕a" d="M63.54 13.7c2.09-.1 17.98-1.34 19.88-1.46 1.58-.1 2.43.54 2.43 1.27.0 1.78-.47 24.21-.47 24.79"/><path id="kvg:07f4c-s10" kvg:type="㇐a" d="M62.99 21c3.77-.14 18.38-1.01 21.62-1.01"/><path id="kvg:07f4c-s11" kvg:type="㇐a" d="M63.15 28.57c5.69-.31 15.45-.94 21.47-1"/><path id="kvg:07f4c-s12" kvg:type="㇐a" d="M63.14 37.16c5.62-.21 16.36-.78 21.49-.78"/></g><g id="kvg:07f4c-g7" kvg:position="bottom"><path id="kvg:07f4c-s13" kvg:type="㇒" d="M67.38 43.01c.28.78-.21 1.54-.76 2.1-1.67 1.71-6.04 5.36-9.37 7.38"/><path id="kvg:07f4c-s14" kvg:type="㇔" d="M78.77 42.28c4.27 2.81 9.31 7.9 10.48 10.35"/></g></g></g><g id="kvg:07f4c-g8" kvg:element="缶" kvg:position="bottom" kvg:radical="general"><path id="kvg:07f4c-s15" kvg:type="㇒" d="M38.52 50c.04.42.08 1.09-.07 1.7-.87 3.59-5.87 11.47-12.7 16.3"/><path id="kvg:07f4c-s16" kvg:type="㇐" d="M35.13 60.23c.88.32 2.49.4 3.38.32 10.81-.89 27.22-3 36.92-4.13 1.46-.17 2.35.15 3.08.32"/><path id="kvg:07f4c-s17" kvg:type="㇐" d="M16.01 73.48c1.73.42 4.92.48 6.65.42 18.05-.7 40.18-4.24 66.52-4.4 2.89-.02 4.62.2 6.07.4"/><path id="kvg:07f4c-s18" kvg:type="㇑" d="M52.83 61.63c.46.73.98 1.26.98 2.26.0 3.51-.05 25.02-.12 27.99"/><path id="kvg:07f4c-s19" kvg:type="㇄" d="M29.25 80.25c.73.24 1.76 2.26 1.75 2.75-.07 3.01-1 5.75-2.54 10.64-.33 1.05-.33 2.38 1.45 2.01 7.83-1.65 40.45-4.8 49.64-4.93"/><path id="kvg:07f4c-s20" kvg:type="㇑" d="M79.67 76.88c.35.26 1.26 2.42 1.2 2.95-.35 3.16-.37 9.42-.78 15.67"/></g></g></g><g id="kvg:StrokeNumbers_07f4c" style="font-size:8;fill:#808080"><text transform="matrix(1 0 0 1 19.00 20.38)">1</text><text transform="matrix(1 0 0 1 29.25 11.80)">2</text><text transform="matrix(1 0 0 1 31.25 21.25)">3</text><text transform="matrix(1 0 0 1 31.25 29.25)">4</text><text transform="matrix(1 0 0 1 31.25 37.08)">5</text><text transform="matrix(1 0 0 1 20.25 48.25)">6</text><text transform="matrix(1 0 0 1 37.25 46.25)">7</text><text transform="matrix(1 0 0 1 55.25 21.25)">8</text><text transform="matrix(1 0 0 1 65.25 11.25)">9</text><text transform="matrix(1 0 0 1 65.25 19.25)">10</text><text transform="matrix(1 0 0 1 66.25 27.10)">11</text><text transform="matrix(1 0 0 1 66.25 35.25)">12</text><text transform="matrix(1 0 0 1 54.25 46.25)">13</text><text transform="matrix(1 0 0 1 71.25 50.25)">14</text><text transform="matrix(1 0 0 1 23.50 60.25)">15</text><text transform="matrix(1 0 0 1 42.25 57.25)">16</text><text transform="matrix(1 0 0 1 5.25 72.25)">17</text><text transform="matrix(1 0 0 1 42.50 68.25)">18</text><text transform="matrix(1 0 0 1 19.25 85.25)">19</text><text transform="matrix(1 0 0 1 68.25 82.25)">20</text></g></svg>