<!DOCTYPE svg PUBLIC "-//W3C//DTD SVG 1.0//EN" "http://www.w3.org/TR/2001/REC-SVG-20010904/DTD/svg10.dtd" [
<!ATTLIST g
xmlns:kvg CDATA #FIXED "http://kanjivg.tagaini.net"
kvg:element CDATA #IMPLIED
kvg:variant CDATA #IMPLIED
kvg:partial CDATA #IMPLIED
kvg:original CDATA #IMPLIED
kvg:part CDATA #IMPLIED
kvg:number CDATA #IMPLIED
kvg:tradForm CDATA #IMPLIED
kvg:radicalForm CDATA #IMPLIED
kvg:position CDATA #IMPLIED
kvg:radical CDATA #IMPLIED
kvg:phon CDATA #IMPLIED >
<!ATTLIST path
xmlns:kvg CDATA #FIXED "http://kanjivg.tagaini.net"
kvg:type CDATA #IMPLIED >
]><svg xmlns="http://www.w3.org/2000/svg" width="109" height="109" viewBox="0 0 109 109"><g id="kvg:StrokePaths_07f50" style="fill:none;stroke:#000000;stroke-width:3;stroke-linecap:round;stroke-linejoin:round;"><g id="kvg:07f50" kvg:element="罐"><g id="kvg:07f50-g1" kvg:element="缶" kvg:position="left" kvg:radical="general"><path id="kvg:07f50-s1" kvg:type="㇒" d="M21.75 21.53c.03.55.06 1.41-.06 2.2-.7 4.63-4.71 14.8-10.19 21.02"/><path id="kvg:07f50-s2" kvg:type="㇐" d="M20.41 33.93c.64.31 1.8.4 2.44.31 4.98-.66 11.22-2.31 15.32-2.79 1.06-.12 1.7.15 2.23.31"/><path id="kvg:07f50-s3" kvg:type="㇐" d="M10.99 51.36c.94.46 2.66.57 3.59.46 8.05-.96 22.76-4.36 28.64-4.84 1.56-.12 2.5.22 3.28.45"/><path id="kvg:07f50-s4" kvg:type="㇑" d="M26.79 36.17c.45 1.11.97 1.92.97 3.45.0 5.37-.05 35.76-.12 40.3"/><path id="kvg:07f50-s5" kvg:type="㇄" d="M14.4 61.13c.62.42 1.25 2.19 1.24 3.04-.06 5.24-.47 10.25-.82 16.9-.1 1.92.51 2.87 2.05 2.57 4.24-.82 16.49-5.89 24.13-7.89"/><path id="kvg:07f50-s6" kvg:type="㇑" d="M40.4 57.75c.85.45 1.7 3.3 1.69 4.21C42 67.75 41.75 78.75 41.75 83"/></g><g id="kvg:07f50-g2" kvg:position="right"><g id="kvg:07f50-g3" kvg:element="艹" kvg:variant="true" kvg:original="艸" kvg:position="top"><path id="kvg:07f50-s7" kvg:type="㇐" d="M44.56 23.72c1.22.33 2.63.4 3.85.33 11.19-.61 32.09-3.77 44.98-3.81 2.03-.01 3.25.16 4.26.32"/><path id="kvg:07f50-s8" kvg:type="㇑a" d="M56.78 14.53c1.08.86 1.43 1.12 1.55 1.65 1.08 4.96 2.01 10.58 2.32 12.38"/><path id="kvg:07f50-s9" kvg:type="㇑a" d="M80.99 12.56c.16.62.36 1.08.19 1.84-1.04 4.46-1.51 8.69-2.64 12.88"/></g><g id="kvg:07f50-g4" kvg:position="bottom"><g id="kvg:07f50-g5" kvg:element="口"><path id="kvg:07f50-s10" kvg:type="㇑" d="M48.75 33.5c.31.21.63.38.77.64 1.08 2.05 2.37 7.69 3.11 11.37"/><path id="kvg:07f50-s11" kvg:type="㇕b" d="M51.31 34.89c5.34-1.11 11.84-1.89 14.9-2.17 1.12-.1 1.79.61 1.63 1.21-.66 2.49-1.44 5.05-2.42 8.49"/><path id="kvg:07f50-s12" kvg:type="㇐b" d="M53.08 44.21c3.65-.34 9.74-1.42 14.75-1.94"/></g><g id="kvg:07f50-g6" kvg:element="口"><path id="kvg:07f50-s13" kvg:type="㇑" d="M75.3 31.87c.2.19.4.35.49.59.69 1.88 1.51 7.31 1.98 10.69"/><path id="kvg:07f50-s14" kvg:type="㇕b" d="M77.79 33.15c5.19-1.15 11.5-1.97 14.47-2.26 1.09-.11 1.74.63 1.58 1.25-.64 2.58-1.4 4.33-2.35 7.9"/><path id="kvg:07f50-s15" kvg:type="㇐b" d="M79.48 41.76c3.49-.33 8.3-.9 13.09-1.4"/></g><g id="kvg:07f50-g7" kvg:element="隹"><g id="kvg:07f50-g8" kvg:element="亻" kvg:variant="true" kvg:original="人"><path id="kvg:07f50-s16" kvg:type="㇒" d="M60.79 48.82c.13.93-.04 2.14-.46 2.93-2.7 5.06-6.13 9.34-12.33 15.5"/><path id="kvg:07f50-s17" kvg:type="㇑" d="M56.19 59.75c.27.53.48 1.7.5 2.52.16 7.33-.22 30.94-.09 34.76"/></g><path id="kvg:07f50-s18" kvg:type="㇒" d="M76.86 47.5c.04.47-.01 1.1-.15 1.5-.89 2.59-2.02 4.59-4.06 7.75"/><path id="kvg:07f50-s19" kvg:type="㇐b" d="M58.64 59.03c6.79-.76 33.6-2.97 36.52-3.38"/><path id="kvg:07f50-s20" kvg:type="㇑a" d="M73.27 59.98c.24.3.42.7.42 1.22.0 5.22.03 21.92-.12 30.14"/><path id="kvg:07f50-s21" kvg:type="㇐b" d="M57.25 70.25c6.54-.76 30.21-3.07 33.02-3.49"/><path id="kvg:07f50-s22" kvg:type="㇐b" d="M56.75 80.98c7.18-.68 32.92-2.22 36-2.59"/><path id="kvg:07f50-s23" kvg:type="㇐b" d="M58.77 93.08c6.96-.76 35.74-2.24 38.73-2.66"/></g></g></g></g></g><g id="kvg:StrokeNumbers_07f50" style="font-size:8;fill:#808080"><text transform="matrix(1 0 0 1 14.00 20.38)">1</text><text transform="matrix(1 0 0 1 27.25 29.25)">2</text><text transform="matrix(1 0 0 1 4.25 53.25)">3</text><text transform="matrix(1 0 0 1 19.75 43.25)">4</text><text transform="matrix(1 0 0 1 4.25 62.25)">5</text><text transform="matrix(1 0 0 1 31.25 58.25)">6</text><text transform="matrix(1 0 0 1 40.25 21.25)">7</text><text transform="matrix(1 0 0 1 48.00 14.25)">8</text><text transform="matrix(1 0 0 1 71.25 12.28)">9</text><text transform="matrix(1 0 0 1 39.25 41.25)">10</text><text transform="matrix(1 0 0 1 50.75 32.25)">11</text><text transform="matrix(1 0 0 1 55.25 41.25)">12</text><text transform="matrix(1 0 0 1 69.25 41.25)">13</text><text transform="matrix(1 0 0 1 82.25 29.25)">14</text><text transform="matrix(1 0 0 1 80.25 38.83)">15</text><text transform="matrix(1 0 0 1 49.25 54.25)">16</text><text transform="matrix(1 0 0 1 46.25 76.25)">17</text><text transform="matrix(1 0 0 1 66.25 49.25)">18</text><text transform="matrix(1 0 0 1 63.00 55.78)">19</text><text transform="matrix(1 0 0 1 77.25 63.95)">20</text><text transform="matrix(1 0 0 1 61.85 66.38)">21</text><text transform="matrix(1 0 0 1 61.25 78.25)">22</text><text transform="matrix(1 0 0 1 61.30 89.25)">23</text></g></svg>