<svg xmlns="http://www.w3.org/2000/svg" width="109" height="109" viewBox="0 0 109 109"><g id="kvg:StrokePaths_07f55" style="fill:none;stroke:#000000;stroke-width:3;stroke-linecap:round;stroke-linejoin:round;"><g id="kvg:07f55" kvg:element="罕"><g id="kvg:07f55-g1" kvg:element="罒" kvg:part="1" kvg:variant="true" kvg:original="网" kvg:position="top" kvg:radical="tradit"><g id="kvg:07f55-g2" kvg:element="冖" kvg:radical="nelson"><path id="kvg:07f55-s1" kvg:type="㇔" d="M21.5 14.5c0 3.91-4.13 14.65-6 17.25"/><path id="kvg:07f55-s2" kvg:type="㇆" d="M21.25 18.28c10-.78 52.25-4.28 62.81-4.27 12.27.02 6.63 3.78.76 9.24"/></g><g id="kvg:07f55-g3" kvg:element="儿"><g id="kvg:07f55-g4" kvg:element="八" kvg:variant="true"><g id="kvg:07f55-g5" kvg:element="丿" kvg:position="left"><path id="kvg:07f55-s3" kvg:type="㇒" d="M43.48 19.75c.12.56.25 1.49-.25 2.24C38.25 29.5 34 35.25 21 41.5"/></g><g id="kvg:07f55-g6" kvg:position="right"><path id="kvg:07f55-s4" kvg:type="㇟" d="M60.76 17.72c1.09.85 1.45 2.34 1.52 3.64.29 5.82-.87 11.01 2.33 13.09 3.06 1.99 20.36.42 24.14-.42"/></g></g></g></g><g id="kvg:07f55-g7" kvg:element="干" kvg:position="bottom"><g id="kvg:07f55-g8" kvg:element="罒" kvg:part="2" kvg:variant="true" kvg:original="网" kvg:radical="tradit"><path id="kvg:07f55-s5" kvg:type="㇐" d="M27.92 48.96c1 .33 4.46.36 5.47.3 6.94-.39 31.63-2.86 43.47-3.51 1.67-.09 5.17.29 6.01.45"/></g><g id="kvg:07f55-g9" kvg:element="十"><path id="kvg:07f55-s6" kvg:type="㇐" d="M18.13 66.77c2.02.29 5.74.37 7.75.29 19.02-.78 37.85-2.51 59.92-2.78 3.37-.04 5.39.14 7.08.28"/><path id="kvg:07f55-s7" kvg:type="㇑" d="M52.06 49.88c.54.51 2.29 2.12 2.29 4.83.0 5.29-.07 37.56-.18 43.92"/></g></g></g></g></svg>