<svg xmlns="http://www.w3.org/2000/svg" width="109" height="109" viewBox="0 0 109 109"><g id="kvg:StrokePaths_07f60"><g id="kvg:07f60" kvg:element="罠"><g id="kvg:07f60-g1" kvg:element="罒" kvg:variant="true" kvg:original="网" kvg:position="top" kvg:radical="general"><path id="kvg:07f60-s1" kvg:type="㇑" d="M21.89 14.07c.19.27.88 1.49.96 1.82.64 2.64 2.5 10.37 2.94 15.11"/><path id="kvg:07f60-s2" kvg:type="㇕a" d="M23.72 15.31c5.79-.82 57.28-3.96 59.93-4.32.97-.13 2.28.94 2.02 2.49-.54 3.24-1.87 9.27-3.31 13.9"/><path id="kvg:07f60-s3" kvg:type="㇑a" d="M43.76 14.86c.15 1.76.73 9.86.89 11.83"/><path id="kvg:07f60-s4" kvg:type="㇑a" d="M63.95 13.29c-.19 2.86-1.16 10.33-1.54 12.09"/><path id="kvg:07f60-s5" kvg:type="㇐a" d="M26.15 29.39c3.07-.47 51.05-3.34 55.27-4.06"/></g><g id="kvg:07f60-g2" kvg:element="民" kvg:position="bottom"><path id="kvg:07f60-s6" kvg:type="㇕" d="M23.5 39.25c1.29.39 3.48.83 6.24.6 13.01-1.1 41.35-3.66 47.18-4.09 2.51-.18 4.12 1.88 3.66 2.94-1.71 3.92-2.83 6.79-3.67 10.65"/><g id="kvg:07f60-g3" kvg:element="氏" kvg:variant="true"><path id="kvg:07f60-s7" kvg:type="㇐" d="M27.1 54.46c8.65-.95 37.65-3.72 47.61-4.52 1.56-.13 4-.33 4.79-.15"/><path id="kvg:07f60-s8" kvg:type="㇙" d="M26.5 40.25c.25 2.5.23 4.24.23 6s-.25 44.83-.25 47.57.25 3.52 3.47 1.57c3.23-1.96 25.31-11.58 27.29-12.75"/><path id="kvg:07f60-s9" kvg:type="㇐" d="M28 66.5c12.46-1.05 43.09-3.41 57.34-5.44 1.58-.23 4.41-.56 6.41.27"/><path id="kvg:07f60-s10" kvg:type="㇂" d="M52.5 52.5c.5.59 1.46 2.18 1.66 3.3C57.28 73.7 65.5 91 87.3 98.17c8.44 2.78 5.7-3.17 5.48-6.6"/></g></g></g></g></svg>