<!DOCTYPE svg PUBLIC "-//W3C//DTD SVG 1.0//EN" "http://www.w3.org/TR/2001/REC-SVG-20010904/DTD/svg10.dtd" [
<!ATTLIST g
xmlns:kvg CDATA #FIXED "http://kanjivg.tagaini.net"
kvg:element CDATA #IMPLIED
kvg:variant CDATA #IMPLIED
kvg:partial CDATA #IMPLIED
kvg:original CDATA #IMPLIED
kvg:part CDATA #IMPLIED
kvg:number CDATA #IMPLIED
kvg:tradForm CDATA #IMPLIED
kvg:radicalForm CDATA #IMPLIED
kvg:position CDATA #IMPLIED
kvg:radical CDATA #IMPLIED
kvg:phon CDATA #IMPLIED >
<!ATTLIST path
xmlns:kvg CDATA #FIXED "http://kanjivg.tagaini.net"
kvg:type CDATA #IMPLIED >
]><svg xmlns="http://www.w3.org/2000/svg" width="109" height="109" viewBox="0 0 109 109"><g id="kvg:StrokePaths_07f67" style="fill:none;stroke:#000000;stroke-width:3;stroke-linecap:round;stroke-linejoin:round;"><g id="kvg:07f67" kvg:element="罧"><g id="kvg:07f67-g1" kvg:element="罒" kvg:variant="true" kvg:original="网" kvg:position="top" kvg:radical="general"><path id="kvg:07f67-s1" kvg:type="㇑" d="M20.42 14.5c.34.3.69.54.84.91 1.19 2.93 3.18 12.07 3.99 17.34"/><path id="kvg:07f67-s2" kvg:type="㇕a" d="M22.72 16.49c6.24-.81 61.17-3.9 64.02-4.26 1.04-.13 3.45 1.42 3.17 2.95-.58 3.19-3.02 10.13-4.57 14.69"/><path id="kvg:07f67-s3" kvg:type="㇑a" d="M43.76 15.86c.15 1.76 1.73 11.36 1.89 13.33"/><path id="kvg:07f67-s4" kvg:type="㇑a" d="M65.95 14.04c-.19 2.92-1.66 12.04-2.04 13.84"/><path id="kvg:07f67-s5" kvg:type="㇐a" d="M26.36 30.6c3.19-.29 53.44-2.27 57.81-2.72"/></g><g id="kvg:07f67-g2" kvg:element="林" kvg:position="bottom"><g id="kvg:07f67-g3" kvg:element="木" kvg:variant="true" kvg:position="left"><path id="kvg:07f67-s6" kvg:type="㇐" d="M16 52.43c.75.21 3 .06 5 0 8.04-.24 16.76-1.66 24.26-2.08 1.99-.11 3.5-.22 4.75-.01"/><path id="kvg:07f67-s7" kvg:type="㇑" d="M34.16 37.75c1.08.38 1.73 1.71 1.95 2.47.22.76.0 54.54-.22 59.28"/><path id="kvg:07f67-s8" kvg:type="㇒" d="M35.75 54C32.24 64.64 21.8 82.48 14.5 88.5"/><path id="kvg:07f67-s9" kvg:type="㇔/㇏" d="M38 62c3.5 2 7.25 6 9.25 9.5"/></g><g id="kvg:07f67-g4" kvg:element="木" kvg:position="right"><path id="kvg:07f67-s10" kvg:type="㇐" d="M55.25 51.11c.56.19 1.78.29 3.28.19 5.28-.38 20.43-1.69 30.74-2.62 1.5-.14 2.8-.19 3.74.0"/><path id="kvg:07f67-s11" kvg:type="㇑" d="M69.6 37c1.02.38 1.62 1.71 1.83 2.47.2.76.0 53.78-.2 58.53"/><path id="kvg:07f67-s12" kvg:type="㇒" d="M71 52c-3.89 12.22-15.5 27.5-25 35.5"/><path id="kvg:07f67-s13" kvg:type="㇏" d="M72 51c5.92 12.04 15.4 27.5 20.21 32.25 1.37 1.35 2.14 2.29 3.29 2.75"/></g></g></g></g><g id="kvg:StrokeNumbers_07f67" style="font-size:8;fill:#808080"><text transform="matrix(1 0 0 1 14.25 22.25)">1</text><text transform="matrix(1 0 0 1 25.41 13.25)">2</text><text transform="matrix(1 0 0 1 36.46 24.25)">3</text><text transform="matrix(1 0 0 1 57.25 22.25)">4</text><text transform="matrix(1 0 0 1 28.47 27.25)">5</text><text transform="matrix(1 0 0 1 8.25 53.25)">6</text><text transform="matrix(1 0 0 1 25.25 41.25)">7</text><text transform="matrix(1 0 0 1 24.50 63.25)">8</text><text transform="matrix(1 0 0 1 41.25 61.25)">9</text><text transform="matrix(1 0 0 1 52.25 48.25)">10</text><text transform="matrix(1 0 0 1 59.25 38.25)">11</text><text transform="matrix(1 0 0 1 55.25 62.25)">12</text><text transform="matrix(1 0 0 1 79.25 60.25)">13</text></g></svg>