<svg xmlns="http://www.w3.org/2000/svg" width="109" height="109" viewBox="0 0 109 109"><g id="kvg:StrokePaths_07f72"><g id="kvg:07f72" kvg:element="署"><g id="kvg:07f72-g1" kvg:element="罒" kvg:variant="true" kvg:original="网" kvg:position="top" kvg:radical="general"><path id="kvg:07f72-s1" kvg:type="㇑" d="M23.62 12.94c.78.78 1.13 1.56 1.5 2.65.88 2.61 1.89 6.58 2.74 10.58.3 1.39.55 2.7.72 3.83"/><path id="kvg:07f72-s2" kvg:type="㇕a" d="M25.85 14.83c12.5-1.6 43.09-3.8 53.78-4.28 3.04-.13 5.15.44 4.21 3.88-.69 2.52-1.79 5.86-3.06 9.08-.4 1.02-.81 2.02-1.23 2.98"/><path id="kvg:07f72-s3" kvg:type="㇑a" d="M42.55 14.28c.59.59.94 1.37 1.12 2.49.52 3.28 1.15 6.92 1.31 8.48"/><path id="kvg:07f72-s4" kvg:type="㇑a" d="M62.15 12.87c.55.55.62 1.47.52 2.42-.4 3.61-.92 6.46-1.23 9.06"/><path id="kvg:07f72-s5" kvg:type="㇐a" d="M29.33 27.74c9.54-.86 42.54-2.99 50.23-3.36"/></g><g id="kvg:07f72-g2" kvg:element="者" kvg:position="bottom" kvg:phon="者"><g id="kvg:07f72-g3" kvg:element="耂" kvg:original="老" kvg:partial="true"><g id="kvg:07f72-g4" kvg:element="土"><path id="kvg:07f72-s6" kvg:type="㇐" d="M31.5 40.85c1.6.53 4.07.46 5.75.34 8.87-.63 21.25-2.19 29.17-2.66 1.29-.08 2.06.12 2.71.25"/><path id="kvg:07f72-s7" kvg:type="㇑a" d="M51.17 28.12c.67.67 1.27 1.88 1.27 3.18.0 7.58-.19 17.08-.19 23.1"/><path id="kvg:07f72-s8" kvg:type="㇐" d="M16.5 57.79c3.65.77 7.08.45 10.75.11 13.07-1.21 42.37-4.02 58-4.66 3.41-.14 6.76-.12 10.12.59"/></g><path id="kvg:07f72-s9" kvg:type="㇒" d="M81.59 34.02c0 .98-.57 2.44-1.84 3.67-16.41 15.81-36 30.19-63.44 42.21"/></g><g id="kvg:07f72-g5" kvg:element="日"><path id="kvg:07f72-s10" kvg:type="㇑" d="M39.02 69.98c.75.75 1.16 1.81 1.16 2.75.0 3.85.0 15.42.0 23.39.0 1.64.0 3.14.0 4.38"/><path id="kvg:07f72-s11" kvg:type="㇕a" d="M40.93 70.85c2.56-.12 27.67-2.61 30-2.75 1.94-.12 3.04.65 3.04 2.5.0 1.88-.03 15.55-.05 23.15.0 2.07-.01 3.7-.01 4.5"/><path id="kvg:07f72-s12" kvg:type="㇐a" d="M41.13 83.85c7.62-.6 25.62-2.1 31.94-2.28"/><path id="kvg:07f72-s13" kvg:type="㇐a" d="M41.22 97.11c7.05-.51 22.81-1.36 31.59-1.79"/></g></g></g></g></svg>