<svg xmlns="http://www.w3.org/2000/svg" width="109" height="109" viewBox="0 0 109 109"><g id="kvg:StrokePaths_07f79" style="fill:none;stroke:#000000;stroke-width:3;stroke-linecap:round;stroke-linejoin:round;"><g id="kvg:07f79" kvg:element="罹"><g id="kvg:07f79-g1" kvg:element="罒" kvg:variant="true" kvg:original="网" kvg:position="top" kvg:radical="general"><path id="kvg:07f79-s1" kvg:type="㇑" d="M18.7 13.29c.25.29.51.53.62.9.87 2.88 2.69 11.88 3.28 17.06"/><path id="kvg:07f79-s2" kvg:type="㇕a" d="M20.65 15.24c6.41-.86 62.33-4.13 65.26-4.51 1.07-.14 3.02 1.48 2.73 3.1-.6 3.38-3.07 9.17-4.66 14"/><path id="kvg:07f79-s3" kvg:type="㇑a" d="M40.46 14.15c.04.43.66 1.3.87 2.55.55 3.4 1.52 8.77 1.65 10.38"/><path id="kvg:07f79-s4" kvg:type="㇑a" d="M64.46 12.93c.54.82.9 1.58.81 2.6-.32 3.75-1.39 8.61-1.66 10.12"/><path id="kvg:07f79-s5" kvg:type="㇐a" d="M23 28.64c3.44-.43 56.66-2.62 61.38-3.27"/></g><g id="kvg:07f79-g2" kvg:element="惟" kvg:position="bottom"><g id="kvg:07f79-g3" kvg:element="忄" kvg:variant="true" kvg:original="心" kvg:position="left"><path id="kvg:07f79-s6" kvg:type="㇔" d="M20.33 48c0 5.65-4.23 13.98-5.33 15.59"/><path id="kvg:07f79-s7" kvg:type="㇔" d="M35.9 45.91c1.95 1.42 5.05 5.86 5.53 8.08"/><path id="kvg:07f79-s8" kvg:type="㇑" d="M27.43 36.02c1 .41 1.59 1.84 1.79 2.66s0 56.22-.2 61.32"/></g><g id="kvg:07f79-g4" kvg:element="隹" kvg:position="right"><g id="kvg:07f79-g5" kvg:element="亻" kvg:variant="true" kvg:original="人"><path id="kvg:07f79-s9" kvg:type="㇒" d="M58.44 32.6c.15 1.55-.04 3.58-.53 4.9-3.14 8.46-7.12 15.61-14.32 25.91"/><path id="kvg:07f79-s10" kvg:type="㇑" d="M52.22 50.38c.66.74 1.16 2.38 1.21 3.53.39 10.28-.21 38.38-.21 45.97"/></g><path id="kvg:07f79-s11" kvg:type="㇒" d="M77.2 32.25c.06.79-.02 1.82-.21 2.49-1.26 4.3-2.86 7.62-5.75 12.85"/><path id="kvg:07f79-s12" kvg:type="㇐b" d="M53.24 49.81c9.13-.84 37.39-3.59 40.67-4.12"/><path id="kvg:07f79-s13" kvg:type="㇑a" d="M71.5 50.47c.37.38 1.55 1.5 1.55 3.15.0 6.67.04 27.74-.18 38.24"/><path id="kvg:07f79-s14" kvg:type="㇐b" d="M54.26 64.45c7.2-.8 33.25-2.44 36.33-2.87"/><path id="kvg:07f79-s15" kvg:type="㇐b" d="M53.38 77.59c7.6-.67 36.53-2.05 39.78-2.42"/><path id="kvg:07f79-s16" kvg:type="㇐b" d="M53.38 93.69c7.63-.97 38.84-1.62 42.12-2.15"/></g></g></g></g></svg>