<svg xmlns="http://www.w3.org/2000/svg" width="109" height="109" viewBox="0 0 109 109"><g id="kvg:StrokePaths_07f83"><g id="kvg:07f83" kvg:element="羃"><g id="kvg:07f83-g1" kvg:element="罒" kvg:variant="true" kvg:original="网" kvg:position="top" kvg:radical="general"><path id="kvg:07f83-s1" kvg:type="㇑" d="M24.6 10.69c.14.2.78 1.36.84 1.6.47 1.94 1.47 6.97 1.79 10.45"/><path id="kvg:07f83-s2" kvg:type="㇕a" d="M26.04 11.2c5.38-.66 51.68-2.67 54.14-2.97.9-.11 3.11 1.75 2.87 3-.5 2.6-1.24 5.93-2.57 9.65"/><path id="kvg:07f83-s3" kvg:type="㇑a" d="M44.04 10.36c.13 1.48 1.03 8.28 1.16 9.94"/><path id="kvg:07f83-s4" kvg:type="㇑a" d="M63.44 9.04c-.09 2.4-.55 8.68-.73 10.16"/><path id="kvg:07f83-s5" kvg:type="㇐a" d="M27.58 21.74c2.89-.33 48.49-2 52.46-2.51"/></g><g id="kvg:07f83-g2" kvg:element="幕" kvg:position="bottom"><g id="kvg:07f83-g3" kvg:element="莫" kvg:position="top"><g id="kvg:07f83-g4" kvg:element="艹" kvg:variant="true" kvg:original="艸" kvg:position="top"><path id="kvg:07f83-s6" kvg:type="㇐" d="M22 31.26c1.33.46 2.88.54 4.21.46 12.24-.83 41.02-3.42 55.13-3.48 2.22-.01 3.55.22 4.66.44"/><path id="kvg:07f83-s7" kvg:type="㇑a" d="M39 25.6c.92.71 1.21.92 1.31 1.36.92 4.08 1.18 7.55 1.44 9.03"/><path id="kvg:07f83-s8" kvg:type="㇑a" d="M65.04 23.75c.18.61.38 1.05.22 1.81-.76 3.62-1.08 5.56-1.95 9.19"/></g><g id="kvg:07f83-g5" kvg:position="bottom"><g id="kvg:07f83-g6" kvg:element="日"><path id="kvg:07f83-s9" kvg:type="㇑" d="M28 38.25c.46.37 1.76 2.02 1.84 2.51.62 3.72 2.01 13.95 2.16 14.44"/><path id="kvg:07f83-s10" kvg:type="㇕a" d="M30.75 40.13c8.3-.72 40.22-3.42 43.04-3.5 2.35-.06 3.77 1.77 3.68 2.16-.76 3.07-1.69 10.55-2.97 13.7"/><path id="kvg:07f83-s11" kvg:type="㇐a" d="M31.98 47c6.29-.38 37.97-3.37 42.52-3.37"/><path id="kvg:07f83-s12" kvg:type="㇐a" d="M33.75 54.31c11.27-1.12 29.37-2.64 40.11-2.92"/></g><g id="kvg:07f83-g7" kvg:element="大"><path id="kvg:07f83-s13" kvg:type="㇐" d="M15.88 64.61c1.82.32 3.85.13 5.04.09 12.71-.45 41.58-3.14 65.22-4.15 1.5-.06 4.19-.06 5.86-.06"/><path id="kvg:07f83-s14" kvg:type="㇒" d="M45.26 54.5c-.09.94.36 1.39-.12 2.09C38 67 28.75 76.5 15.5 83"/><path id="kvg:07f83-s15" kvg:type="㇏" d="M66.5 61.74c4.97 1.21 18.25 13.06 23.52 15.66 1.79.88 2.42 1.02 3.23 1.1"/></g></g></g><g id="kvg:07f83-g8" kvg:element="巾" kvg:position="bottom"><path id="kvg:07f83-s16" kvg:type="㇑" d="M35.04 73.7c.5.28 1.55 2.12 1.65 2.68.1.57-.06 16.27-.16 19.8"/><path id="kvg:07f83-s17" kvg:type="㇆a" d="M36.89 75.99c3.07-.2 31.47-3.23 33.76-3.35 2.69-.14 3.14 1.43 3.17 2.73.18 7.16.33 12.78-.97 17.08-1.37 4.52-4.04.63-5.33-.95"/><path id="kvg:07f83-s18" kvg:type="㇑" d="M52.63 65.79c.52.29 1.64 2.18 1.74 2.76.11.58-.07 29.31-.17 32.95"/></g></g></g></g></svg>