<svg xmlns="http://www.w3.org/2000/svg" width="109" height="109" viewBox="0 0 109 109"><g id="kvg:StrokePaths_07fa4" style="fill:none;stroke:#000000;stroke-width:3;stroke-linecap:round;stroke-linejoin:round;"><g id="kvg:07fa4" kvg:element="群"><g id="kvg:07fa4-g1" kvg:element="君" kvg:position="left" kvg:phon="君"><g id="kvg:07fa4-g2" kvg:element="尹"><g id="kvg:07fa4-g3" kvg:element="⺕" kvg:variant="true" kvg:original="彑"><g id="kvg:07fa4-g4" kvg:element="尸" kvg:part="1"><path id="kvg:07fa4-s1" kvg:type="㇕c" d="M17.22 22.63c2.17.85 3.59.8 5.91.5C31 22.12 39.1 20.95 44.37 20.5c2.03-.18 3.38 1.75 3.13 3.38-.69 4.54-2.68 13.37-3.77 21.07"/><path id="kvg:07fa4-s2" kvg:type="㇐" d="M11.24 35.64c1.41.17 2.52.54 4.07.34 11.86-1.47 21.69-2.86 33.78-3.84 1.73-.14 3.03-.02 4.17.26"/></g><path id="kvg:07fa4-s3" kvg:type="㇐" d="M15.05 48.26c1.91.42 3.23.53 5.2.28 7.35-.91 14.47-2.61 21.25-3.07 1.44-.1 2.87-.16 4.29.1"/></g><g id="kvg:07fa4-g5" kvg:element="尸" kvg:part="2"><g id="kvg:07fa4-g6" kvg:element="丿"><path id="kvg:07fa4-s4" kvg:type="㇒" d="M29.25 24.31c.9.93 1.1 2.48.93 3.67C27.5 45.75 24 60.5 9.05 73.78"/></g></g></g><g id="kvg:07fa4-g7" kvg:element="口"><path id="kvg:07fa4-s5" kvg:type="㇑" d="M22.04 61.75c.86.86 1.33 1.88 1.42 2.74.46 4.48 1.13 9.47 1.89 15.61.15 1.24.31 2.53.47 3.87"/><path id="kvg:07fa4-s6" kvg:type="㇕b" d="M23.72 62.54c7.04-1.22 13.63-2.15 17.8-2.83 3.83-.62 5.11.07 4.34 4.06-.79 4.06-1.69 7.69-2.83 14.89"/><path id="kvg:07fa4-s7" kvg:type="㇐b" d="M26.88 81.28c3.72-.49 9.47-1.12 14.61-1.66 1.2-.13 2.37-.25 3.47-.36"/></g></g><g id="kvg:07fa4-g8" kvg:element="羊" kvg:position="right" kvg:radical="general"><g id="kvg:07fa4-g9" kvg:element="䒑"><path id="kvg:07fa4-s8" kvg:type="㇔" d="M59.42 17.63c2.63 1.96 6.8 8.07 7.46 11.12"/><path id="kvg:07fa4-s9" kvg:type="㇒" d="M87.27 12.64c.23.73-.06 1.98-.3 2.61-1.84 4.62-5.22 10.5-10.06 16.52"/><path id="kvg:07fa4-s10" kvg:type="㇐" d="M57.69 36.67c2.06.45 4.19.21 5.96-.04 5.93-.83 18.59-2.69 24.97-3.01 1.54-.08 3.16-.17 4.67.25"/></g><path id="kvg:07fa4-s11" kvg:type="㇐" d="M57.03 51.06c1.84.32 3.37.3 4.86.11 5.39-.68 17.5-2.37 23.99-2.7 1.54-.08 3.16-.17 4.66.25"/><path id="kvg:07fa4-s12" kvg:type="㇐" d="M53.28 66.44c2.35.43 4.97.42 7.22.19 6.77-.68 20.39-2.15 30.87-2.69 2.24-.12 4.41-.23 6.61.31"/><path id="kvg:07fa4-s13" kvg:type="㇑" d="M73.12 38.31c.85.85 1.1 1.94 1.1 3.19.0.71-.12 34.01-.16 49.01-.01 2.88-.01 5.08-.01 6.25"/></g></g></g></svg>