<!DOCTYPE svg PUBLIC "-//W3C//DTD SVG 1.0//EN" "http://www.w3.org/TR/2001/REC-SVG-20010904/DTD/svg10.dtd" [
<!ATTLIST g
xmlns:kvg CDATA #FIXED "http://kanjivg.tagaini.net"
kvg:element CDATA #IMPLIED
kvg:variant CDATA #IMPLIED
kvg:partial CDATA #IMPLIED
kvg:original CDATA #IMPLIED
kvg:part CDATA #IMPLIED
kvg:number CDATA #IMPLIED
kvg:tradForm CDATA #IMPLIED
kvg:radicalForm CDATA #IMPLIED
kvg:position CDATA #IMPLIED
kvg:radical CDATA #IMPLIED
kvg:phon CDATA #IMPLIED >
<!ATTLIST path
xmlns:kvg CDATA #FIXED "http://kanjivg.tagaini.net"
kvg:type CDATA #IMPLIED >
]><svg xmlns="http://www.w3.org/2000/svg" width="109" height="109" viewBox="0 0 109 109"><g id="kvg:StrokePaths_07fb6" style="fill:none;stroke:#000000;stroke-width:3;stroke-linecap:round;stroke-linejoin:round;"><g id="kvg:07fb6" kvg:element="羶"><g id="kvg:07fb6-g1" kvg:element="羊" kvg:variant="true" kvg:position="left" kvg:radical="general"><g id="kvg:07fb6-g2" kvg:element="䒑"><path id="kvg:07fb6-s1" kvg:type="㇔" d="M13.75 13.75c3.7 2.87 9.57 11.79 10.5 16.25"/><path id="kvg:07fb6-s2" kvg:type="㇒" d="M40.51 13.25c.02.4.04 1.02-.04 1.59C39.95 18.18 37.02 25.51 33 30"/><path id="kvg:07fb6-s3" kvg:type="㇐" d="M12.71 34.02c.75.25 2.11.25 2.86.25 6.18-.02 19.75-2.1 26.43-2.7 1.24-.11 1.99.12 2.61.24"/></g><path id="kvg:07fb6-s4" kvg:type="㇐" d="M14.43 49.97c.62.25 1.75.29 2.38.25 5.22-.34 18.21-2.21 24.45-3 1.02-.13 1.65.12 2.17.24"/><path id="kvg:07fb6-s5" kvg:type="㇀" d="M13.5 71.45c.67.95 1.91 1.12 2.58.95 5.18-1.3 20.8-8.18 29.17-11.4"/><path id="kvg:07fb6-s6" kvg:type="㇑" d="M30.16 34.56c1.09 1.19 1 2.78 1 3.61.0 38.93-2.17 46.08-14.92 58.58"/></g><g id="kvg:07fb6-g3" kvg:element="亶" kvg:position="right"><g id="kvg:07fb6-g4" kvg:element="㐭"><g id="kvg:07fb6-g5" kvg:element="亠" kvg:position="top"><path id="kvg:07fb6-s7" kvg:type="㇑a" d="M66.94 10.75c.76.43 2.01 2.09 2.01 2.95.0 3.15-.24 4.38-.1 7.05"/><path id="kvg:07fb6-s8" kvg:type="㇐" d="M47.54 23.42c1.56.28 2.92.59 4.71.38 13.25-1.56 25.74-2.9 38.14-3.45 1.83-.08 2.76.03 4.12.49"/></g><g id="kvg:07fb6-g6" kvg:element="回"><g id="kvg:07fb6-g7" kvg:element="囗" kvg:part="1"><path id="kvg:07fb6-s9" kvg:type="㇑" d="M51.03 31.93c.65.48.74 1.01.88 1.63.9 4.22 2.1 11.1 3.42 19.36"/><path id="kvg:07fb6-s10" kvg:type="㇕a" d="M52.65 33.01c9.17-.98 28.09-3.68 34.23-3.74 1.87-.02 3.44 2.34 3.28 3.49-.76 5.46-2.68 12.38-4.2 19.78"/></g><g id="kvg:07fb6-g8" kvg:element="口"><path id="kvg:07fb6-s11" kvg:type="㇑" d="M61.77 37.32c.28.15.61.24.69.46.98 2.63 1.42 5.31 2.25 8.05"/><path id="kvg:07fb6-s12" kvg:type="㇕b" d="M63.36 37.87c4.84-.42 10.83-1.21 13.36-1.5.92-.1 1.48.36 1.35.77-.55 1.72-.78 4.19-1.59 6.56"/><path id="kvg:07fb6-s13" kvg:type="㇐b" d="M64.7 45.16c3.3-.49 8.65-1.11 12.86-1.59"/></g><g id="kvg:07fb6-g9" kvg:element="囗" kvg:part="2"><path id="kvg:07fb6-s14" kvg:type="㇐a" d="M56 51.83c8.11-.66 19.81-1.54 29.5-1.79"/></g></g></g><g id="kvg:07fb6-g10" kvg:element="旦" kvg:position="bottom"><g id="kvg:07fb6-g11" kvg:element="日" kvg:position="top"><path id="kvg:07fb6-s15" kvg:type="㇑" d="M54.6 60.86c.3.54.6.8.61 1.54s1.9 20.81 2.01 21.54"/><path id="kvg:07fb6-s16" kvg:type="㇕a" d="M55.17 61.46c2.33-.16 25.81-2.86 27.94-3.04 1.77-.15 2.48 1.86 2.43 2.42-.29 3.3-1.89 21.54-1.88 22.09"/><path id="kvg:07fb6-s17" kvg:type="㇐a" d="M57.25 71.07c3.06-.07 23.38-2.19 26.84-2.27"/><path id="kvg:07fb6-s18" kvg:type="㇐a" d="M57.27 81.7c4.83-.07 20.05-1.36 26.3-1.45"/></g><g id="kvg:07fb6-g12" kvg:element="一" kvg:position="bottom"><path id="kvg:07fb6-s19" kvg:type="㇐" d="M45.79 93c1.28.67 3.64.71 4.93.67 11.35-.33 29.01-2.68 42.29-2.66 2.14.0 3.43.32 4.5.65"/></g></g></g></g></g><g id="kvg:StrokeNumbers_07fb6" style="font-size:8;fill:#808080"><text transform="matrix(1 0 0 1 8.25 15.25)">1</text><text transform="matrix(1 0 0 1 31.25 12.25)">2</text><text transform="matrix(1 0 0 1 6.25 34.25)">3</text><text transform="matrix(1 0 0 1 7.25 50.15)">4</text><text transform="matrix(1 0 0 1 5.25 72.25)">5</text><text transform="matrix(1 0 0 1 23.00 42.25)">6</text><text transform="matrix(1 0 0 1 59.25 11.25)">7</text><text transform="matrix(1 0 0 1 47.25 20.25)">8</text><text transform="matrix(1 0 0 1 45.25 39.78)">9</text><text transform="matrix(1 0 0 1 53.25 30.25)">10</text><text transform="matrix(1 0 0 1 56.25 43.25)">11</text><text transform="matrix(1 0 0 1 61.25 37.25)">12</text><text transform="matrix(1 0 0 1 66.25 43.48)">13</text><text transform="matrix(1 0 0 1 57.00 50.40)">14</text><text transform="matrix(1 0 0 1 45.00 69.25)">15</text><text transform="matrix(1 0 0 1 58.25 58.25)">16</text><text transform="matrix(1 0 0 1 60.25 68.18)">17</text><text transform="matrix(1 0 0 1 60.25 78.10)">18</text><text transform="matrix(1 0 0 1 43.25 90.25)">19</text></g></svg>