<!DOCTYPE svg PUBLIC "-//W3C//DTD SVG 1.0//EN" "http://www.w3.org/TR/2001/REC-SVG-20010904/DTD/svg10.dtd" [
<!ATTLIST g
xmlns:kvg CDATA #FIXED "http://kanjivg.tagaini.net"
kvg:element CDATA #IMPLIED
kvg:variant CDATA #IMPLIED
kvg:partial CDATA #IMPLIED
kvg:original CDATA #IMPLIED
kvg:part CDATA #IMPLIED
kvg:number CDATA #IMPLIED
kvg:tradForm CDATA #IMPLIED
kvg:radicalForm CDATA #IMPLIED
kvg:position CDATA #IMPLIED
kvg:radical CDATA #IMPLIED
kvg:phon CDATA #IMPLIED >
<!ATTLIST path
xmlns:kvg CDATA #FIXED "http://kanjivg.tagaini.net"
kvg:type CDATA #IMPLIED >
]><svg xmlns="http://www.w3.org/2000/svg" width="109" height="109" viewBox="0 0 109 109"><g id="kvg:StrokePaths_07fcc" style="fill:none;stroke:#000000;stroke-width:3;stroke-linecap:round;stroke-linejoin:round;"><g id="kvg:07fcc" kvg:element="翌"><g id="kvg:07fcc-g1" kvg:element="羽" kvg:position="top" kvg:radical="general" kvg:phon="翼T"><g id="kvg:07fcc-g2" kvg:position="left"><path id="kvg:07fcc-s1" kvg:type="㇆" d="M18.23 20c1.77 1 3.22 1 5.76.59 5.16-.84 13.96-2.41 15.54-2.6 2.85-.36 4.18.39 4.18 2.8.0 4.35.03 18.56.03 29.32.0 8.19-5.62.96-6.27.29"/><path id="kvg:07fcc-s2" kvg:type="㇔" d="M21.88 27.75c3.02 1.1 7.79 4.51 8.55 6.22"/><path id="kvg:07fcc-s3" kvg:type="㇀" d="M17.19 48.81c1.25.62 2.41.72 3.74-.07 1.05-.63 9.46-6.21 13.9-9.23"/></g><g id="kvg:07fcc-g3" kvg:position="right"><path id="kvg:07fcc-s4" kvg:type="㇆" d="M57.08 17c1.55.62 3.22.75 5.76.34 5.17-.84 16.2-3.25 17.75-3.6 2.67-.61 4.18 1.14 4.18 2.8.0 3.26-.01 22.25-.01 32.29.0 7.22-6.1.89-6.81.27"/><path id="kvg:07fcc-s5" kvg:type="㇔" d="M61.05 25.08c2.81 1.08 7.25 4.45 7.95 6.13"/><path id="kvg:07fcc-s6" kvg:type="㇀" d="M57.03 45.06c1.39.83 2.63 1.07 4.08.21 1-.6 9.9-6.07 13.29-8.76"/></g></g><g id="kvg:07fcc-g4" kvg:element="立" kvg:position="bottom"><g id="kvg:07fcc-g5" kvg:element="亠" kvg:position="top"><path id="kvg:07fcc-s7" kvg:type="㇑a" d="M52.25 51.75c1 .75 1.5 2.25 1.5 4s0 3.5.0 8.25"/><path id="kvg:07fcc-s8" kvg:type="㇐" d="M28.5 66.96c2.2.62 5.14.42 7.39.18 8.66-.92 25.94-3.26 35.62-4.07 2.67-.22 5.33-.19 7.99.26"/></g><g id="kvg:07fcc-g6" kvg:position="bottom"><path id="kvg:07fcc-s9" kvg:type="㇔" d="M38.5 74.5c3.25 3.63 5.38 7.5 6.5 11.75"/><path id="kvg:07fcc-s10" kvg:type="㇒" d="M68.75 67c.62 1.38.5 2.75.0 4.25-2.85 8.55-4.75 13-7.25 19.5"/><path id="kvg:07fcc-s11" kvg:type="㇐" d="M16.75 94.3c2.89.77 6.67.66 9.62.34 17.03-1.83 38.84-3.78 56.5-4.31 3.63-.11 7.28.17 10.88.75"/></g></g></g></g><g id="kvg:StrokeNumbers_07fcc" style="font-size:8;fill:#808080"><text transform="matrix(1 0 0 1 11.50 19.63)">1</text><text transform="matrix(1 0 0 1 14.50 30.05)">2</text><text transform="matrix(1 0 0 1 9.75 52.48)">3</text><text transform="matrix(1 0 0 1 49.50 16.50)">4</text><text transform="matrix(1 0 0 1 53.50 28.55)">5</text><text transform="matrix(1 0 0 1 49.50 43.50)">6</text><text transform="matrix(1 0 0 1 46.50 59.50)">7</text><text transform="matrix(1 0 0 1 21.50 68.50)">8</text><text transform="matrix(1 0 0 1 31.50 77.75)">9</text><text transform="matrix(1 0 0 1 57.50 73.50)">10</text><text transform="matrix(1 0 0 1 15.50 91.50)">11</text></g></svg>