<svg xmlns="http://www.w3.org/2000/svg" width="109" height="109" viewBox="0 0 109 109"><g id="kvg:StrokePaths_07fca" style="fill:none;stroke:#000000;stroke-width:3;stroke-linecap:round;stroke-linejoin:round;"><g id="kvg:07fca" kvg:element="翊"><g id="kvg:07fca-g1" kvg:element="立" kvg:position="left"><g id="kvg:07fca-g2" kvg:element="亠" kvg:position="top"><path id="kvg:07fca-s1" kvg:type="㇑a" d="M26.14 16.25c1.13.77 1.72 1.8 1.72 2.6.0 1.82.0 9.99.0 14.94"/><path id="kvg:07fca-s2" kvg:type="㇐" d="M11.5 34.97c1.01.48 2.2.55 3.2.48 5.71-.41 17-2.32 24.76-3.28 1.68-.21 2.7.23 3.54.47"/></g><g id="kvg:07fca-g3" kvg:position="bottom"><path id="kvg:07fca-s3" kvg:type="㇔" d="M15 43c3.88 10.63 5.65 21.49 6 28.5"/><path id="kvg:07fca-s4" kvg:type="㇒" d="M37.77 38.23c1.13 1.19.64 3.69.4 4.64-2.48 9.81-7.7 25.54-9.92 30.63"/><path id="kvg:07fca-s5" kvg:type="㇐" d="M12 81.05c.88 1.06 2.83 1.04 3.7.62C25.23 77.06 33.04 72.8 41.5 69"/></g></g><g id="kvg:07fca-g4" kvg:element="羽" kvg:variant="true" kvg:position="right" kvg:radical="general"><g id="kvg:07fca-g5" kvg:position="left"><path id="kvg:07fca-s6" kvg:type="㇆" d="M42.75 23.54c1.79.9 2.1.9 4.74.6 5.35-.61 11.56-2.76 13.19-2.89 1.85-.15 2.92.7 2.98 3.15.07 2.71-.69 54.22-.69 62.83.0 9.1-7.22.52-8.22-.81"/><path id="kvg:07fca-s7" kvg:type="㇒" d="M55.45 26.08c.04.49.08 1.27-.07 1.98-.91 4.17-6.1 13.33-13.21 18.93"/><path id="kvg:07fca-s8" kvg:type="㇒" d="M59.75 44c.06.82.13 2.11-.12 3.29-1.5 6.93-10.11 22.15-21.88 31.46"/></g><g id="kvg:07fca-g6" kvg:position="right"><path id="kvg:07fca-s9" kvg:type="㇆" d="M70.76 22.01c2.26.93 1.87.93 5.19.62 6.75-.62 12.72-2 14.78-2.15 3.03-.22 3.93 1.1 3.93 3.68.0 4.13-.49 55.55-.49 64.38.0 9.38-6.44 1.19-7.6.64"/><path id="kvg:07fca-s10" kvg:type="㇒" d="M85.74 24.5c.04.5.09 1.29-.09 2.01-1.12 4.24-7.07 13.54-15.9 19.24"/><path id="kvg:07fca-s11" kvg:type="㇒" d="M91 41.75c.06.69.13 1.79-.12 2.79-1.5 5.89-10.1 18.8-21.88 26.71"/></g></g></g></g></svg>