<!DOCTYPE svg PUBLIC "-//W3C//DTD SVG 1.0//EN" "http://www.w3.org/TR/2001/REC-SVG-20010904/DTD/svg10.dtd" [
<!ATTLIST g
xmlns:kvg CDATA #FIXED "http://kanjivg.tagaini.net"
kvg:element CDATA #IMPLIED
kvg:variant CDATA #IMPLIED
kvg:partial CDATA #IMPLIED
kvg:original CDATA #IMPLIED
kvg:part CDATA #IMPLIED
kvg:number CDATA #IMPLIED
kvg:tradForm CDATA #IMPLIED
kvg:radicalForm CDATA #IMPLIED
kvg:position CDATA #IMPLIED
kvg:radical CDATA #IMPLIED
kvg:phon CDATA #IMPLIED >
<!ATTLIST path
xmlns:kvg CDATA #FIXED "http://kanjivg.tagaini.net"
kvg:type CDATA #IMPLIED >
]><svg xmlns="http://www.w3.org/2000/svg" width="109" height="109" viewBox="0 0 109 109"><g id="kvg:StrokePaths_07fd5" style="fill:none;stroke:#000000;stroke-width:3;stroke-linecap:round;stroke-linejoin:round;"><g id="kvg:07fd5" kvg:element="翕"><g id="kvg:07fd5-g1" kvg:element="合" kvg:position="top"><g id="kvg:07fd5-g2" kvg:position="top"><g id="kvg:07fd5-g3" kvg:element="人" kvg:radical="nelson"><path id="kvg:07fd5-s1" kvg:type="㇒" d="M51.63 9.5c.1.76.47 2.03-.19 3.05-4.59 7.11-14.6 20.33-34.18 29.2"/><path id="kvg:07fd5-s2" kvg:type="㇏" d="M53.25 12.5c4.88 4.89 25.88 20.84 31.26 24.42 1.83 1.21 4.17 1.73 5.99 2.08"/></g><g id="kvg:07fd5-g4" kvg:element="一"><path id="kvg:07fd5-s3" kvg:type="㇐" d="M41.79 31.28c.49.1 2.77.65 3.26.6C49 31.5 55.75 30.25 63.7 29.7c.81-.06 2 .05 2.41.1"/></g></g><g id="kvg:07fd5-g5" kvg:element="口" kvg:position="bottom"><path id="kvg:07fd5-s4" kvg:type="㇑" d="M33 40.01c.45.31.98 1.04 1.1 1.44 1.49 5.23 2.14 7.97 3.15 12.33"/><path id="kvg:07fd5-s5" kvg:type="㇕b" d="M34.25 41.39c12.43-1.58 29.06-3.34 36.18-3.73 2.6-.15 3.66 1.36 3.29 2.22-1.54 3.55-1.97 5.38-2.97 9.13"/><path id="kvg:07fd5-s6" kvg:type="㇐b" d="M37.85 51.72c9.92-.5 22.59-2.08 35.25-2.57"/></g></g><g id="kvg:07fd5-g6" kvg:element="羽" kvg:variant="true" kvg:position="bottom" kvg:radical="tradit"><g id="kvg:07fd5-g7" kvg:position="left"><path id="kvg:07fd5-s7" kvg:type="㇆" d="M19.48 61.84c2.31.87 2.77 1.24 6.11.58C32.75 61 41.5 58.78 43.6 58.65c2.38-.14 3.77 1.15 3.84 3.49.08 2.59-.78 23.96-.78 32.2.0 8.71-6.17-.09-7.31-1.29"/><path id="kvg:07fd5-s8" kvg:type="㇒" d="M36.56 62.66c.06.33.11.85-.1 1.32C35.2 66.76 28 72.86 18.15 76.6"/><path id="kvg:07fd5-s9" kvg:type="㇒" d="M43.35 70.63c.07.53.34 1.42-.14 2.12-3.34 4.86-11.07 11.96-24.93 20.3"/></g><g id="kvg:07fd5-g8" kvg:position="right"><path id="kvg:07fd5-s10" kvg:type="㇆" d="M55.82 59.52c2.43.94 2.01.94 5.57.63 7.24-.63 16.04-2.59 18.25-2.69 4.97-.22 4.76 1.12 4.76 3.74.0 4.2-.52 22.99-.52 31.98.0 9.54-6.53.71-7.77.15"/><path id="kvg:07fd5-s11" kvg:type="㇒" d="M71.78 61.24c.04.32.09.83-.09 1.29-1.06 2.72-7.15 8.69-15.48 12.34"/><path id="kvg:07fd5-s12" kvg:type="㇒" d="M79.72 66.99c.07.55.14 1.42-.13 2.22-1.63 4.67-10.93 15.46-23.68 21.74"/></g></g></g></g><g id="kvg:StrokeNumbers_07fd5" style="font-size:8;fill:#808080"><text transform="matrix(1 0 0 1 43.25 11.25)">1</text><text transform="matrix(1 0 0 1 59.25 15.25)">2</text><text transform="matrix(1 0 0 1 47.25 28.25)">3</text><text transform="matrix(1 0 0 1 27.25 46.65)">4</text><text transform="matrix(1 0 0 1 37.25 38.58)">5</text><text transform="matrix(1 0 0 1 40.25 48.25)">6</text><text transform="matrix(1 0 0 1 14.25 62.25)">7</text><text transform="matrix(1 0 0 1 22.25 70.25)">8</text><text transform="matrix(1 0 0 1 34.25 75.25)">9</text><text transform="matrix(1 0 0 1 54.25 58.25)">10</text><text transform="matrix(1 0 0 1 57.25 68.25)">11</text><text transform="matrix(1 0 0 1 66.25 75.25)">12</text></g></svg>