<svg xmlns="http://www.w3.org/2000/svg" width="109" height="109" viewBox="0 0 109 109"><g id="kvg:StrokePaths_07fd2" style="fill:none;stroke:#000000;stroke-width:3;stroke-linecap:round;stroke-linejoin:round;"><g id="kvg:07fd2" kvg:element="習"><g id="kvg:07fd2-g1" kvg:element="羽" kvg:position="top" kvg:radical="general"><path id="kvg:07fd2-s1" kvg:type="㇆" d="M18 20.7c2 .55 3.77.75 6.32.27 5.65-1.07 12.79-2.92 15.59-3.44 3.82-.71 5.61 1.23 5.61 4.1.0 4.36-.67 18.84-.67 28.08.0 9.42-5.96 2.8-7.61 1.3"/><path id="kvg:07fd2-s2" kvg:type="㇔" d="M20.75 28.75c3.46.84 7.75 3 9.81 4.74"/><path id="kvg:07fd2-s3" kvg:type="㇀" d="M17.35 50.73c1.15.4 2.32.46 3.46-.32.9-.62 7.88-5.84 11.68-8.8"/><path id="kvg:07fd2-s4" kvg:type="㇆" d="M56.5 17.95c2.12.67 4 .89 6.57.52 4.41-.65 13.35-2.54 17.05-3.25 4.12-.8 6.16.26 6.14 4.41-.03 4.99-.17 21.87-.17 31.83.0 9.67-5.46 3.17-6.86 1.55"/><path id="kvg:07fd2-s5" kvg:type="㇔" d="M60 27.25c3.9 1.13 8.62 3 10.81 5.25"/><path id="kvg:07fd2-s6" kvg:type="㇀" d="M59.13 48.49c1.12.6 2.16.7 3.35-.06.93-.59 7.11-4.24 10.27-6.94"/></g><g id="kvg:07fd2-g2" kvg:element="白" kvg:position="bottom"><g id="kvg:07fd2-g3" kvg:position="top"><path id="kvg:07fd2-s7" kvg:type="㇔" d="M53.76 51.25c.25.72.02 1.44-.4 2.24-1.48 2.85-2.79 5.07-6.32 9.11"/></g><g id="kvg:07fd2-g4" kvg:element="日" kvg:position="bottom"><path id="kvg:07fd2-s8" kvg:type="㇑" d="M32.18 65.01c.78.78 1.35 1.62 1.44 2.6.33 3.39 2.18 17.3 3.15 25.12.14 1.16.27 2.18.37 3.02"/><path id="kvg:07fd2-s9" kvg:type="㇕a" d="M34.55 67c12.7-1.5 38.49-4.67 42.19-4.81 3.09-.12 4.44 2.08 4.08 5.06-.52 4.29-1.59 12.37-3.2 22.79-.17 1.11-.35 2.24-.53 3.38"/><path id="kvg:07fd2-s10" kvg:type="㇐a" d="M36.27 79.48c8.48-.98 33.23-2.98 41.93-3.32"/><path id="kvg:07fd2-s11" kvg:type="㇐a" d="M38.08 93.39c10.79-.64 26.79-2.26 38.35-2.57"/></g></g></g></g></svg>