<svg xmlns="http://www.w3.org/2000/svg" width="109" height="109" viewBox="0 0 109 109"><g id="kvg:StrokePaths_07feb" style="fill:none;stroke:#000000;stroke-width:3;stroke-linecap:round;stroke-linejoin:round;"><g id="kvg:07feb" kvg:element="翫"><g id="kvg:07feb-g1" kvg:element="習" kvg:position="left"><g id="kvg:07feb-g2" kvg:element="羽" kvg:position="top" kvg:radical="general"><path id="kvg:07feb-s1" kvg:type="㇆" d="M12.38 19.95c1.62.55 3.12.43 5.34-.01 3.41-.68 8.15-1.69 9.06-1.8 2.3-.27 2.88.86 2.88 3.06.0 2.55-.43 15.84-.43 26.75.0 5.3-3.88 2.74-5.54.8"/><path id="kvg:07feb-s2" kvg:type="㇀" d="M23.65 23.52c.03.28.06.72-.06 1.12-.71 2.36-4.81 7.54-10.41 10.71"/><path id="kvg:07feb-s3" kvg:type="㇀" d="M26.07 35.75c.04.35.08.92-.08 1.43-.97 3.01-6.52 9.61-14.13 13.65"/><path id="kvg:07feb-s4" kvg:type="㇆" d="M36.56 19.7c2.02.56 3.99.59 5.92.07 2.75-.6 6.24-1.26 7.9-1.46 2.79-.34 3.64.5 3.64 3.47.0 2.71-.43 15.25-.43 26.17.0 5.8-3.58 2.05-5.54.3"/><path id="kvg:07feb-s5" kvg:type="㇀" d="M48.27 23.98c.02.19.05.49-.05.76-.59 1.61-4 5.15-8.67 7.31"/><path id="kvg:07feb-s6" kvg:type="㇀" d="M48.77 35.88c.03.27.07.69-.06 1.07-.77 2.26-5.15 7.22-11.15 10.25"/></g><g id="kvg:07feb-g3" kvg:element="白" kvg:position="bottom"><g id="kvg:07feb-g4" kvg:position="top"><path id="kvg:07feb-s7" kvg:type="㇔" d="M34.91 52.5c.03 1.11-.3 2.04-.99 2.78-1.47 1.85-3.37 4.16-7.16 7.82"/></g><g id="kvg:07feb-g5" kvg:element="日" kvg:position="bottom"><path id="kvg:07feb-s8" kvg:type="㇑" d="M18.08 64.76c.83.83 1.1 1.87 1.18 2.85.35 4.55 1.09 13.13 1.61 20.01.21 2.79.39 5.29.49 7.13"/><path id="kvg:07feb-s9" kvg:type="㇕a" d="M20.28 66.5c8.72-1 16.59-2.25 24.95-3.31 1.97-.25 2.7 1.08 2.46 4.06-.28 3.65-.84 12.6-1.32 20.38-.15 2.35-.29 4.59-.42 6.54"/><path id="kvg:07feb-s10" kvg:type="㇐a" d="M21.39 78.73c9.99-1.1 15.74-1.85 24.76-2.57"/><path id="kvg:07feb-s11" kvg:type="㇐a" d="M22.12 91.64c6.12-.26 15-1.01 22.94-1.57"/></g></g></g><g id="kvg:07feb-g6" kvg:element="元" kvg:position="right"><g id="kvg:07feb-g7" kvg:element="二" kvg:position="top"><path id="kvg:07feb-s12" kvg:type="㇐" d="M62.73 21.98c1.92.37 3.84.37 5.77.13 6.24-.74 8.12-1.24 15.25-2.01 1.92-.21 3.8-.26 5.68.12"/><path id="kvg:07feb-s13" kvg:type="㇐" d="M57.75 44.4c2.6.64 5.12.09 7.73-.29 8.4-1.23 15.21-2.37 23.28-3.57 2.58-.59 5.19-.7 7.82-.32"/></g><g id="kvg:07feb-g8" kvg:element="儿" kvg:original="八" kvg:position="bottom"><g id="kvg:07feb-g9" kvg:element="丿"><path id="kvg:07feb-s14" kvg:type="㇒" d="M68.11 47.93c.52 1.07.67 2.54.5 3.96C67 65.75 65 80.38 55.5 90.75"/></g><path id="kvg:07feb-s15" kvg:type="㇟" d="M79.19 44.98c1.04 1.04 1.17 2.64 1.17 4.18.0 7.33-.1 25.74-.1 34.32.0 7.89 1.41 9.65 7.76 9.65 8.41.0 8.23-2.13 8.23-10.23"/></g></g></g></g></svg>