<svg xmlns="http://www.w3.org/2000/svg" width="109" height="109" viewBox="0 0 109 109"><g id="kvg:StrokePaths_07ff9"><g id="kvg:07ff9" kvg:element="翹"><g id="kvg:07ff9-g1" kvg:element="堯" kvg:position="nyo"><g id="kvg:07ff9-g2" kvg:position="top"><g id="kvg:07ff9-g3" kvg:element="土" kvg:position="top" kvg:radical="nelson"><path id="kvg:07ff9-s1" kvg:type="㇐" d="M18.84 23.08c1.02.38 2.89.44 3.91.38 3.49-.21 15.24-1.71 19.95-1.86 1.7-.05 2.72.18 3.57.37"/><path id="kvg:07ff9-s2" kvg:type="㇑a" d="M32.18 13.04c.07.23 1.04 1.2 1.04 2.66.0 1.65-.35 8.77-.35 15.61"/><path id="kvg:07ff9-s3" kvg:type="㇐" d="M15.2 32.68c.89.48 2.53.56 3.43.48C26.75 32.5 37 31 47.13 29.81c1.48-.17 2.38.23 3.13.47"/></g><g id="kvg:07ff9-g4" kvg:position="bottom"><g id="kvg:07ff9-g5" kvg:element="土" kvg:position="left"><path id="kvg:07ff9-s4" kvg:type="㇐" d="M13.69 45.24c.4.36 1.17.38 1.57.34 2.62-.24 10.62-.81 13.42-1.4.66-.14 1.37-.17 1.7.01"/><path id="kvg:07ff9-s5" kvg:type="㇑a" d="M22.25 38.32c.53.45.96 1.99.96 2.9.0 6.46.02 4.24.02 13.82"/><path id="kvg:07ff9-s6" kvg:type="㇐" d="M13.3 58.27c.45.53 1.83.83 3.18.13 3.75-1.95 10.52-4.95 14.27-6.9"/></g><g id="kvg:07ff9-g6" kvg:element="土" kvg:position="right"><path id="kvg:07ff9-s7" kvg:type="㇐" d="M33.76 42.29c.44.25 1.24.26 1.68.25 4.07-.08 9.31-1.29 13.71-1.83.72-.09 1.17.12 1.53.25"/><path id="kvg:07ff9-s8" kvg:type="㇑a" d="M42.11 34.69c.06.21.81 1.09.81 2.42.0 1.49-.16 11.24-.16 17.44"/><path id="kvg:07ff9-s9" kvg:type="㇐" d="M32.27 55.41c.55.27 1.84.33 2.39.27 4.9-.48 10.5-1.37 15.42-1.74.91-.07 1.47.13 1.92.27"/></g></g></g><g id="kvg:07ff9-g7" kvg:element="兀" kvg:position="bottom"><g id="kvg:07ff9-g8" kvg:element="一"><path id="kvg:07ff9-s10" kvg:type="㇐" d="M13.22 66.5c1 .6 2.85.67 3.85.6 7-.45 20.93-2.85 29.6-3.82 1.66-.19 2.68.29 3.52.59"/></g><g id="kvg:07ff9-g9" kvg:element="儿" kvg:original="八"><g id="kvg:07ff9-g10" kvg:element="丿"><path id="kvg:07ff9-s11" kvg:type="㇒" d="M26.73 68.63c.02.87.56 1.72.4 2.69C25.75 80 22.25 89.75 10.5 96.5"/></g><path id="kvg:07ff9-s12" kvg:type="㇟" d="M38.72 64.46c1.35 1.29.99 1.81.99 3.79.0 2.66-.05 9.15-.05 15.17.0 11.32 1.09 12.49 30.72 12.49 24.02.0 27.9-2.47 27.9-10.96"/></g></g></g><g id="kvg:07ff9-g11" kvg:element="羽" kvg:variant="true" kvg:position="nyoc" kvg:radical="tradit"><g id="kvg:07ff9-g12" kvg:position="left"><path id="kvg:07ff9-s13" kvg:type="㇆" d="M53.72 22.58c1.42.86 1.66.86 3.75.57 4.23-.57 9.14-2.6 10.43-2.73 1.46-.14 2.31 1.14 2.35 3.45.05 2.56-.54 50.77-.54 58.91.0 8.6-4.98.21-5.71-.29"/><path id="kvg:07ff9-s14" kvg:type="㇒" d="M63.49 25.25c.03.44.2 1.18-.06 1.77C61.5 31.5 58.25 37.75 52.75 44"/><path id="kvg:07ff9-s15" kvg:type="㇒" d="M65.25 44c.04.7.21 1.85-.08 2.83C63 54 57.75 64.5 49.79 73.89"/></g><g id="kvg:07ff9-g13" kvg:position="right"><path id="kvg:07ff9-s16" kvg:type="㇆" d="M75.4 19.81c1.61.84 1.33.84 3.69.56 4.8-.57 8.69-1.87 10.16-1.96 3.3-.2 3.16 1 3.16 3.34.0 3.75-.35 50.46-.35 58.48.0 8.52-5.65 1.08-6.48.58"/><path id="kvg:07ff9-s17" kvg:type="㇒" d="M84.71 23.43c.02.39.05 1-.05 1.55-.56 3.27-3.77 10.45-8.16 14.84"/><path id="kvg:07ff9-s18" kvg:type="㇒" d="M88.26 43c.04.62.25 1.64-.08 2.48-2.43 6.27-5.43 13.27-12.43 22.27"/></g></g></g></g></svg>