<!DOCTYPE svg PUBLIC "-//W3C//DTD SVG 1.0//EN" "http://www.w3.org/TR/2001/REC-SVG-20010904/DTD/svg10.dtd" [
<!ATTLIST g
xmlns:kvg CDATA #FIXED "http://kanjivg.tagaini.net"
kvg:element CDATA #IMPLIED
kvg:variant CDATA #IMPLIED
kvg:partial CDATA #IMPLIED
kvg:original CDATA #IMPLIED
kvg:part CDATA #IMPLIED
kvg:number CDATA #IMPLIED
kvg:tradForm CDATA #IMPLIED
kvg:radicalForm CDATA #IMPLIED
kvg:position CDATA #IMPLIED
kvg:radical CDATA #IMPLIED
kvg:phon CDATA #IMPLIED >
<!ATTLIST path
xmlns:kvg CDATA #FIXED "http://kanjivg.tagaini.net"
kvg:type CDATA #IMPLIED >
]><svg xmlns="http://www.w3.org/2000/svg" width="109" height="109" viewBox="0 0 109 109"><g id="kvg:StrokePaths_07ffb" style="fill:none;stroke:#000000;stroke-width:3;stroke-linecap:round;stroke-linejoin:round;"><g id="kvg:07ffb" kvg:element="翻"><g id="kvg:07ffb-g1" kvg:element="番" kvg:variant="true" kvg:position="left" kvg:phon="番"><g id="kvg:07ffb-g2" kvg:element="釆" kvg:variant="true" kvg:position="top"><g id="kvg:07ffb-g3" kvg:element="丿"><path id="kvg:07ffb-s1" kvg:type="㇒" d="M43.78 14c-.16 1.12-.63 1.75-1.52 2.25-5.39 3-12.01 5.5-23.01 8.75"/></g><g id="kvg:07ffb-g4" kvg:element="米" kvg:variant="true"><path id="kvg:07ffb-s2" kvg:type="㇔" d="M19.76 29.79c2.16 1.32 5.41 5.04 5.95 7.09"/><path id="kvg:07ffb-s3" kvg:type="㇒" d="M48.53 23.75c.1.75-.07 1.44-.5 2.07-1.13 2.45-2.89 5.26-6.06 8.48"/><path id="kvg:07ffb-s4" kvg:type="㇐" d="M15.52 43.12c2.22.52 4.74.39 6.98.03 6.7-1.07 18.08-3.61 23.77-4.68 1.49-.28 2.98-.47 4.43-.39"/><path id="kvg:07ffb-s5" kvg:type="㇑" d="M34.4 24c.8.8 1 1.63 1 3.27.0 3.84.09 17.24.04 27.74-.01 1.77-.01 3.42-.01 4.88"/><path id="kvg:07ffb-s6" kvg:type="㇒" d="M34 42c0 1.5-.67 3.03-2.11 5.05C26.47 54.66 17.98 63.06 10 67"/><path id="kvg:07ffb-s7" kvg:type="㇔/㇏" d="M39.63 45.85c3.62 1.4 8.12 5.15 10.4 8.26"/></g></g><g id="kvg:07ffb-g5" kvg:element="田" kvg:position="bottom"><path id="kvg:07ffb-s8" kvg:type="㇑" d="M18.28 66.21c.72 1.28 1.18 2.09 1.32 3.65.52 5.89.77 12.63 1.11 19.64.08 1.57.17 3.09.28 4.5"/><path id="kvg:07ffb-s9" kvg:type="㇕a" d="M20.47 67.72c9-1.18 17.76-2.88 23.78-3.59 3.66-.43 5.78-.12 5.41 3.99-.42 4.63-.84 11.69-1.85 18.22-.26 1.68-.54 3.29-.85 4.76"/><path id="kvg:07ffb-s10" kvg:type="㇑a" d="M33.48 67.29c.68.68.89 1.75.89 2.99-.01 5.85-.11 17.64-.11 19.55"/><path id="kvg:07ffb-s11" kvg:type="㇐a" d="M21.38 78.75c2.59-.23 24.19-2.82 26.33-2.82"/><path id="kvg:07ffb-s12" kvg:type="㇐a" d="M21.91 91.98c7.09-.48 16.23-2 24.13-2.13"/></g></g><g id="kvg:07ffb-g6" kvg:element="羽" kvg:position="right" kvg:radical="general"><g id="kvg:07ffb-g7" kvg:position="left"><path id="kvg:07ffb-s13" kvg:type="㇆" d="M56.27 25.41c1.48.34 2.73.34 4.07.11 4.34-.76 7.33-1.66 8.63-1.94 2.16-.45 3.71.55 3.71 2.86.0 2.56-.04 51.1-.04 63.31.0 9.3-6.65 1.16-7.39.4"/><path id="kvg:07ffb-s14" kvg:type="㇔" d="M57.39 39.38c2.5 1.33 6.45 5.49 7.07 7.56"/><path id="kvg:07ffb-s15" kvg:type="㇀" d="M57.66 67.62c1.59.63 2.59.0 3.46-1.05.51-.62 3.12-3.61 5.29-6.58"/></g><g id="kvg:07ffb-g8" kvg:position="right"><path id="kvg:07ffb-s16" kvg:type="㇆" d="M78.22 23.09c1.65.54 3.35.57 4.82.36 3.09-.44 7.12-1.32 8.44-1.46 2.15-.23 3.71.89 3.71 2.86.0.94-.06 51.27-.06 63.48.0 10.93-6.39 1.59-7.13.83"/><path id="kvg:07ffb-s17" kvg:type="㇔" d="M80.75 39.38c2.5 1.24 6.45 5.11 7.07 7.04"/><path id="kvg:07ffb-s18" kvg:type="㇀" d="M80.26 65.19c1.24.56 2.36.61 3.5-.36.68-.57 4.98-4.21 7.99-7.12"/></g></g></g></g><g id="kvg:StrokeNumbers_07ffb" style="font-size:8;fill:#808080"><text transform="matrix(1 0 0 1 34.50 13.63)">1</text><text transform="matrix(1 0 0 1 12.50 33.50)">2</text><text transform="matrix(1 0 0 1 40.50 26.50)">3</text><text transform="matrix(1 0 0 1 9.50 45.13)">4</text><text transform="matrix(1 0 0 1 27.75 31.50)">5</text><text transform="matrix(1 0 0 1 20.50 53.50)">6</text><text transform="matrix(1 0 0 1 46.50 47.50)">7</text><text transform="matrix(1 0 0 1 12.50 75.50)">8</text><text transform="matrix(1 0 0 1 25.50 64.50)">9</text><text transform="matrix(1 0 0 1 37.50 73.63)">10</text><text transform="matrix(1 0 0 1 23.25 76.50)">11</text><text transform="matrix(1 0 0 1 23.25 89.50)">12</text><text transform="matrix(1 0 0 1 53.50 22.63)">13</text><text transform="matrix(1 0 0 1 54.75 36.05)">14</text><text transform="matrix(1 0 0 1 53.50 63.50)">15</text><text transform="matrix(1 0 0 1 75.50 20.50)">16</text><text transform="matrix(1 0 0 1 77.25 36.05)">17</text><text transform="matrix(1 0 0 1 76.50 61.50)">18</text></g></svg>