<!DOCTYPE svg PUBLIC "-//W3C//DTD SVG 1.0//EN" "http://www.w3.org/TR/2001/REC-SVG-20010904/DTD/svg10.dtd" [
<!ATTLIST g
xmlns:kvg CDATA #FIXED "http://kanjivg.tagaini.net"
kvg:element CDATA #IMPLIED
kvg:variant CDATA #IMPLIED
kvg:partial CDATA #IMPLIED
kvg:original CDATA #IMPLIED
kvg:part CDATA #IMPLIED
kvg:number CDATA #IMPLIED
kvg:tradForm CDATA #IMPLIED
kvg:radicalForm CDATA #IMPLIED
kvg:position CDATA #IMPLIED
kvg:radical CDATA #IMPLIED
kvg:phon CDATA #IMPLIED >
<!ATTLIST path
xmlns:kvg CDATA #FIXED "http://kanjivg.tagaini.net"
kvg:type CDATA #IMPLIED >
]><svg xmlns="http://www.w3.org/2000/svg" width="109" height="109" viewBox="0 0 109 109"><g id="kvg:StrokePaths_08003" style="fill:none;stroke:#000000;stroke-width:3;stroke-linecap:round;stroke-linejoin:round;"><g id="kvg:08003" kvg:element="考"><g id="kvg:08003-g1" kvg:element="耂" kvg:original="老" kvg:partial="true" kvg:position="tare" kvg:radical="general"><g id="kvg:08003-g2" kvg:element="土"><path id="kvg:08003-s1" kvg:type="㇐" d="M35 24.52c1.5.27 4.25.38 5.76.27 9.12-.64 17.37-2.13 24.11-2.52 2.49-.14 4.01.13 5.26.26"/><path id="kvg:08003-s2" kvg:type="㇑a" d="M52.17 10.87c.98.98 1.77 2.38 1.77 3.89.0 6.96.13 18.42.08 23.5"/><path id="kvg:08003-s3" kvg:type="㇐" d="M13.25 42.28c2.79.69 7.32.7 10.11.44 22.93-2.1 39.09-4.6 63.81-5.43 4.63-.16 7.14.08 9.46.43"/></g><path id="kvg:08003-s4" kvg:type="㇒" d="M81.59 14.23c.19 1.38-.08 3.39-1.47 5.03C63 39.62 46.88 55.25 14.62 72.75"/></g><g id="kvg:08003-g3" kvg:element="丂" kvg:position="tarec" kvg:phon="丂"><g id="kvg:08003-g4" kvg:element="丿"><path id="kvg:08003-s5" kvg:type="㇒" d="M76.26 48.75c-.26 1.12-.94 2.24-2.61 3.04C68.75 54.12 62 56.38 54.5 58.5"/></g><path id="kvg:08003-s6" kvg:type="㇉" d="M53.25 50.25c.5 1.25-.22 3.1-1.73 5.58-1.77 2.92-4.76 6.83-5.26 7.45-2.01 2.47-1.51 4.36 1.14 4.25 3.47-.15 23.72-2.52 29.51-3.24 3.35-.42 4.84 1.97 3.93 4.6-2.3 6.72-7.79 21.33-12.08 26.38-2.52 2.98-5.27.73-7.54-2.57"/></g></g></g><g id="kvg:StrokeNumbers_08003" style="font-size:8;fill:#808080"><text transform="matrix(1 0 0 1 27.75 25.50)">1</text><text transform="matrix(1 0 0 1 41.50 11.50)">2</text><text transform="matrix(1 0 0 1 5.25 43.50)">3</text><text transform="matrix(1 0 0 1 73.50 12.50)">4</text><text transform="matrix(1 0 0 1 67.50 47.50)">5</text><text transform="matrix(1 0 0 1 39.75 64.25)">6</text></g></svg>