<!DOCTYPE svg PUBLIC "-//W3C//DTD SVG 1.0//EN" "http://www.w3.org/TR/2001/REC-SVG-20010904/DTD/svg10.dtd" [
<!ATTLIST g
xmlns:kvg CDATA #FIXED "http://kanjivg.tagaini.net"
kvg:element CDATA #IMPLIED
kvg:variant CDATA #IMPLIED
kvg:partial CDATA #IMPLIED
kvg:original CDATA #IMPLIED
kvg:part CDATA #IMPLIED
kvg:number CDATA #IMPLIED
kvg:tradForm CDATA #IMPLIED
kvg:radicalForm CDATA #IMPLIED
kvg:position CDATA #IMPLIED
kvg:radical CDATA #IMPLIED
kvg:phon CDATA #IMPLIED >
<!ATTLIST path
xmlns:kvg CDATA #FIXED "http://kanjivg.tagaini.net"
kvg:type CDATA #IMPLIED >
]><svg xmlns="http://www.w3.org/2000/svg" width="109" height="109" viewBox="0 0 109 109"><g id="kvg:StrokePaths_08005" style="fill:none;stroke:#000000;stroke-width:3;stroke-linecap:round;stroke-linejoin:round;"><g id="kvg:08005" kvg:element="者"><g id="kvg:08005-g1" kvg:element="耂" kvg:original="老" kvg:partial="true" kvg:position="tare" kvg:radical="general"><g id="kvg:08005-g2" kvg:element="土"><path id="kvg:08005-s1" kvg:type="㇐" d="M29.5 25.95c1.26.33 3.56.45 4.82.33 9.18-.91 20.31-2.28 30.41-3 2.09-.15 3.35.16 4.4.32"/><path id="kvg:08005-s2" kvg:type="㇑a" d="M51.17 10.12c.79.79 1.52 2.13 1.52 3.64.0 12 .06 25.45.06 28.5"/><path id="kvg:08005-s3" kvg:type="㇐" d="M12.5 46.03c2.76.47 5.51.85 9.48.44 16.9-1.72 50.65-5.6 66.75-5.93 4.12-.09 6.59.33 8.65.68"/></g><path id="kvg:08005-s4" kvg:type="㇒" d="M82.75 15.25c0 1.5-.57 4.02-1.89 5.61C63.81 41.23 47.5 56.38 16.25 74.12"/></g><g id="kvg:08005-g3" kvg:element="日" kvg:position="tarec"><path id="kvg:08005-s5" kvg:type="㇑" d="M41.27 60.38c.93.93 1.41 2.34 1.41 3.53.0 2.05-.03 23.14-.05 32.09.0 2.34-.01 3.84-.01 3.97"/><path id="kvg:08005-s6" kvg:type="㇕a" d="M43.68 61.53c2.31-.13 23.39-3.17 29.2-3.89 3.03-.38 4.39.78 4.24 3.73-.24 4.91-.35 20.99-.35 32.51.0 1.34-.15 4.43-.15 5.32"/><path id="kvg:08005-s7" kvg:type="㇐a" d="M44.13 78.14C52.62 77.25 70 75 75.57 74.7"/><path id="kvg:08005-s8" kvg:type="㇐a" d="M43.97 95.41c8.91-.78 22.81-2.1 31.59-2.65"/></g></g></g><g id="kvg:StrokeNumbers_08005" style="font-size:8;fill:#808080"><text transform="matrix(1 0 0 1 23.25 26.50)">1</text><text transform="matrix(1 0 0 1 41.50 10.50)">2</text><text transform="matrix(1 0 0 1 5.25 47.50)">3</text><text transform="matrix(1 0 0 1 74.50 14.50)">4</text><text transform="matrix(1 0 0 1 35.50 72.50)">5</text><text transform="matrix(1 0 0 1 54.50 56.50)">6</text><text transform="matrix(1 0 0 1 47.50 74.69)">7</text><text transform="matrix(1 0 0 1 47.50 91.50)">8</text></g></svg>