<!DOCTYPE svg PUBLIC "-//W3C//DTD SVG 1.0//EN" "http://www.w3.org/TR/2001/REC-SVG-20010904/DTD/svg10.dtd" [
<!ATTLIST g
xmlns:kvg CDATA #FIXED "http://kanjivg.tagaini.net"
kvg:element CDATA #IMPLIED
kvg:variant CDATA #IMPLIED
kvg:partial CDATA #IMPLIED
kvg:original CDATA #IMPLIED
kvg:part CDATA #IMPLIED
kvg:number CDATA #IMPLIED
kvg:tradForm CDATA #IMPLIED
kvg:radicalForm CDATA #IMPLIED
kvg:position CDATA #IMPLIED
kvg:radical CDATA #IMPLIED
kvg:phon CDATA #IMPLIED >
<!ATTLIST path
xmlns:kvg CDATA #FIXED "http://kanjivg.tagaini.net"
kvg:type CDATA #IMPLIED >
]><svg xmlns="http://www.w3.org/2000/svg" width="109" height="109" viewBox="0 0 109 109"><g id="kvg:StrokePaths_08006" style="fill:none;stroke:#000000;stroke-width:3;stroke-linecap:round;stroke-linejoin:round;"><g id="kvg:08006" kvg:element="耆"><g id="kvg:08006-g1" kvg:element="老" kvg:position="top" kvg:radical="general"><g id="kvg:08006-g2" kvg:element="耂" kvg:original="老" kvg:partial="true"><g id="kvg:08006-g3" kvg:element="土"><path id="kvg:08006-s1" kvg:type="㇐" d="M27.75 26.47c.77.21 2.19.23 2.96.21 8.79-.33 25.79-2.72 33.21-3.17 1.28-.08 2.06.1 2.71.2"/><path id="kvg:08006-s2" kvg:type="㇑a" d="M47.17 12.12c.12.18 1.65.96 1.77 2.13.57 5.61.31 20.95.31 22.86"/><path id="kvg:08006-s3" kvg:type="㇐" d="M13.5 40.79c1.57.43 4.46.62 6.01.43 16.24-1.97 47.24-5.97 69.37-8.01 2.6-.24 4.18.21 5.49.43"/></g><path id="kvg:08006-s4" kvg:type="㇒" d="M79.34 14.88c.18 1.01-.05 2.85-1.35 4.05C61.31 34.26 41.25 49.96 13.56 61.71"/></g><g id="kvg:08006-g4" kvg:element="匕"><path id="kvg:08006-s5" kvg:type="㇒" d="M71.84 41.5c.4.35.72 1.43-.37 1.93-7.7 3.48-20.6 8.07-31.47 10.09"/><path id="kvg:08006-s6" kvg:type="㇟" d="M37.85 44.92c.9.36.96.59 1.26 1.07.3.47.3 6.38.3 7.87.0 6.39 11.99 5.22 22.2 5.22 11.14.0 19.89-.58 19.93-5.64"/></g></g><g id="kvg:08006-g5" kvg:element="日" kvg:position="bottom"><path id="kvg:08006-s7" kvg:type="㇑" d="M36.52 68.69c.39.78 1.28 2.18 1.28 3.22.0 1.04 2.87 25.29 3 26.34"/><path id="kvg:08006-s8" kvg:type="㇕a" d="M38.44 70.32c2.2-.13 32.91-3.17 34.92-3.33 1.67-.13 3.74 2.45 3.61 3.22-.26 1.57-3.52 26.23-3.52 27.01"/><path id="kvg:08006-s9" kvg:type="㇐a" d="M39.33 81.98c2.97.0 32.36-2.31 35.72-2.31"/><path id="kvg:08006-s10" kvg:type="㇐a" d="M42.19 95.31c6.06-.56 22.81-1.06 30.35-1.54"/></g></g></g><g id="kvg:StrokeNumbers_08006" style="font-size:8;fill:#808080"><text transform="matrix(1 0 0 1 21.25 26.25)">1</text><text transform="matrix(1 0 0 1 37.25 12.25)">2</text><text transform="matrix(1 0 0 1 6.25 42.25)">3</text><text transform="matrix(1 0 0 1 71.25 13.25)">4</text><text transform="matrix(1 0 0 1 61.25 44.25)">5</text><text transform="matrix(1 0 0 1 33.25 60.25)">6</text><text transform="matrix(1 0 0 1 29.25 76.43)">7</text><text transform="matrix(1 0 0 1 40.25 67.25)">8</text><text transform="matrix(1 0 0 1 43.25 78.25)">9</text><text transform="matrix(1 0 0 1 43.25 92.25)">10</text></g></svg>