<svg xmlns="http://www.w3.org/2000/svg" width="109" height="109" viewBox="0 0 109 109"><g id="kvg:StrokePaths_08012" style="fill:none;stroke:#000000;stroke-width:3;stroke-linecap:round;stroke-linejoin:round;"><g id="kvg:08012" kvg:element="耒" kvg:radical="general"><g id="kvg:08012-g1" kvg:element="丿"><path id="kvg:08012-s1" kvg:type="㇒" d="M76.96 17.25c.04 1.25-.97 2.22-2.24 2.69-6.97 2.56-18.97 8.31-41.97 10.36"/></g><g id="kvg:08012-g2" kvg:element="未"><path id="kvg:08012-s2" kvg:type="㇐" d="M27.63 42.27c.88.28 2.49.31 3.37.28 9.16-.32 36-2.8 49.14-3.23 1.47-.05 2.35.13 3.08.27"/><g id="kvg:08012-g3" kvg:element="木"><path id="kvg:08012-s3" kvg:type="㇐" d="M16.94 56.75c.89.25 3.27.82 5.64.75 8.92-.25 44.17-3.25 62.91-3.5 2.37-.03 4.47.25 5.95.5"/><path id="kvg:08012-s4" kvg:type="㇑" d="M51.16 11.5c1.48.5 2.67 3.71 2.67 4.75.0 4 .5 75.75.2 82"/><path id="kvg:08012-s5" kvg:type="㇒" d="M53.5 56.25C46.71 66.79 29.13 82.78 15 88.75"/><path id="kvg:08012-s6" kvg:type="㇏" d="M54.25 56c5 6.36 26.14 24.53 33.59 29.84 1.86 1.33 3.35 2 5.16 2.41"/></g></g></g></g></svg>