<!DOCTYPE svg PUBLIC "-//W3C//DTD SVG 1.0//EN" "http://www.w3.org/TR/2001/REC-SVG-20010904/DTD/svg10.dtd" [
<!ATTLIST g
xmlns:kvg CDATA #FIXED "http://kanjivg.tagaini.net"
kvg:element CDATA #IMPLIED
kvg:variant CDATA #IMPLIED
kvg:partial CDATA #IMPLIED
kvg:original CDATA #IMPLIED
kvg:part CDATA #IMPLIED
kvg:number CDATA #IMPLIED
kvg:tradForm CDATA #IMPLIED
kvg:radicalForm CDATA #IMPLIED
kvg:position CDATA #IMPLIED
kvg:radical CDATA #IMPLIED
kvg:phon CDATA #IMPLIED >
<!ATTLIST path
xmlns:kvg CDATA #FIXED "http://kanjivg.tagaini.net"
kvg:type CDATA #IMPLIED >
]><svg xmlns="http://www.w3.org/2000/svg" width="109" height="109" viewBox="0 0 109 109"><g id="kvg:StrokePaths_08010" style="fill:none;stroke:#000000;stroke-width:3;stroke-linecap:round;stroke-linejoin:round;"><g id="kvg:08010" kvg:element="耐"><g id="kvg:08010-g1" kvg:element="而" kvg:position="left" kvg:radical="general" kvg:phon="而"><g id="kvg:08010-g2" kvg:position="top"><path id="kvg:08010-s1" kvg:type="㇐" d="M13.82 21.12c2.43.76 4.86.32 6.82.06 7.19-.94 19.6-2.79 27.75-3.49 2.06-.18 4.16-.43 6.15.26"/><path id="kvg:08010-s2" kvg:type="㇒" d="M33.56 23.45c.03.44.06 1.14-.06 1.77-.51 2.59-2.68 7.33-5.87 11.66"/></g><g id="kvg:08010-g3" kvg:position="bottom"><path id="kvg:08010-s3" kvg:type="㇑" d="M14 39.82c1.15 1.15 1.09 2.43 1.09 3.78C15.09 50 15 69.14 15 80.18c0 2.87.0 4.95.0 5.7"/><path id="kvg:08010-s4" kvg:type="㇆a" d="M15.38 41.25c7.72-1.21 25.87-3.66 32.14-4.49C50.86 36.32 53 36.6 53 40.5c0 6.8-.03 32.25-.03 38.59.0 11.41-3.21 5.66-5.67 2.94"/><path id="kvg:08010-s5" kvg:type="㇑" d="M27.06 42.22c.98.98 1.04 2.65 1.04 4.82.0 9.34.04 17.34-.04 25.46-.02 2.07-.04 4.16-.04 6.31"/><path id="kvg:08010-s6" kvg:type="㇑" d="M38.09 40.13c1.01 1.01 1.29 2.24 1.29 4.07.0 10.97.08 20.13.03 27.52-.02 2.58-.03 5.07-.03 7.54"/></g></g><g id="kvg:08010-g4" kvg:element="寸" kvg:position="right"><path id="kvg:08010-s7" kvg:type="㇐" d="M59.81 41.23c2.59.6 4.59.47 7.2.06 7.24-1.12 18.17-3.07 26.12-4.02 1.94-.23 4.37-.4 6.12.22"/><path id="kvg:08010-s8" kvg:type="㇚" d="M83.21 14.08c.98.98 1.56 2.29 1.56 4.6.0 19.79.03 66.39.03 71.2.0 11.67-6.32 1.73-8.16.24"/><path id="kvg:08010-s9" kvg:type="㇔" d="M63.88 55.38c2.47 1.92 6.38 7.89 7 10.87"/></g></g></g><g id="kvg:StrokeNumbers_08010" style="font-size:8;fill:#808080"><text transform="matrix(1 0 0 1 7.50 22.50)">1</text><text transform="matrix(1 0 0 1 24.75 29.50)">2</text><text transform="matrix(1 0 0 1 7.50 47.50)">3</text><text transform="matrix(1 0 0 1 15.75 38.50)">4</text><text transform="matrix(1 0 0 1 20.50 49.50)">5</text><text transform="matrix(1 0 0 1 32.25 48.50)">6</text><text transform="matrix(1 0 0 1 59.50 38.50)">7</text><text transform="matrix(1 0 0 1 73.50 15.50)">8</text><text transform="matrix(1 0 0 1 59.50 52.63)">9</text></g></svg>