<!DOCTYPE svg PUBLIC "-//W3C//DTD SVG 1.0//EN" "http://www.w3.org/TR/2001/REC-SVG-20010904/DTD/svg10.dtd" [
<!ATTLIST g
xmlns:kvg CDATA #FIXED "http://kanjivg.tagaini.net"
kvg:element CDATA #IMPLIED
kvg:variant CDATA #IMPLIED
kvg:partial CDATA #IMPLIED
kvg:original CDATA #IMPLIED
kvg:part CDATA #IMPLIED
kvg:number CDATA #IMPLIED
kvg:tradForm CDATA #IMPLIED
kvg:radicalForm CDATA #IMPLIED
kvg:position CDATA #IMPLIED
kvg:radical CDATA #IMPLIED
kvg:phon CDATA #IMPLIED >
<!ATTLIST path
xmlns:kvg CDATA #FIXED "http://kanjivg.tagaini.net"
kvg:type CDATA #IMPLIED >
]><svg xmlns="http://www.w3.org/2000/svg" width="109" height="109" viewBox="0 0 109 109"><g id="kvg:StrokePaths_08015" style="fill:none;stroke:#000000;stroke-width:3;stroke-linecap:round;stroke-linejoin:round;"><g id="kvg:08015" kvg:element="耕"><g id="kvg:08015-g1" kvg:element="耒" kvg:variant="true" kvg:position="left" kvg:radical="general"><g id="kvg:08015-g2" kvg:element="丿" kvg:variant="true"><path id="kvg:08015-s1" kvg:type="㇐" d="M15.55 30.1c1.95.4 3.97.27 5.6.04 6.05-.87 15.67-2.8 21.27-3.92 1.38-.28 2.58-.34 3.95-.17"/></g><g id="kvg:08015-g3" kvg:element="未"><path id="kvg:08015-s2" kvg:type="㇐" d="M15.31 43.58c1.81.58 4.01.49 5.85.17 6.46-1.1 15.48-2.94 20.25-3.81 1.4-.25 2.79-.52 4.22-.51"/><g id="kvg:08015-g4" kvg:element="木"><path id="kvg:08015-s3" kvg:type="㇐" d="M12.03 56.29c1.95.55 4.49.46 6.48.15 6.98-1.1 19.44-3.49 24.97-4.62 1.83-.37 3.64-.57 5.57-.45"/><path id="kvg:08015-s4" kvg:type="㇑" d="M31.45 14.75c.96.96 1.39 2.25 1.39 3.66.0.8-.05 49.41-.06 67.96.0 3.06.0 5.3.0 6.38"/><path id="kvg:08015-s5" kvg:type="㇒" d="M31.8 55.36c0 1.52-.5 2.49-1.1 3.8-4.42 9.51-12.47 20.86-19.9 27.33"/><path id="kvg:08015-s6" kvg:type="㇔/㇏" d="M36.38 60.12c2.59 1.73 8.46 7.83 10.71 11.26"/></g></g></g><g id="kvg:08015-g5" kvg:element="井" kvg:position="right" kvg:phon="井"><g id="kvg:08015-g6" kvg:element="二" kvg:part="1"><path id="kvg:08015-s7" kvg:type="㇐" d="M52.13 40.31c1.85.5 3.75.36 5.62.11 10.32-1.33 20.87-3.01 28.88-4 2.13-.26 4.02-.33 6.15.02"/></g><g id="kvg:08015-g7" kvg:element="廾"><g id="kvg:08015-g8" kvg:element="二" kvg:part="2"><g id="kvg:08015-g9" kvg:element="十" kvg:part="1"><path id="kvg:08015-s8" kvg:type="㇐" d="M48 59.88c2.75.37 4.79.15 7.13-.12 8.28-.95 25.34-3.73 35.11-4.7 2.41-.24 4.74-.21 7.14.19"/></g></g><g id="kvg:08015-g10" kvg:element="丿"><path id="kvg:08015-s9" kvg:type="㇒" d="M60.42 21c.91.91 1.29 2.12 1.33 3.43 1.63 50.69-3.37 57.44-13.62 67.91"/></g><g id="kvg:08015-g11" kvg:element="十" kvg:part="2"><path id="kvg:08015-s10" kvg:type="㇑" d="M79.26 14.89c1.05 1.05 1.66 2.48 1.66 3.9.0 2.4-.11 51.08-.15 69.58-.01 3.3-.01 5.61-.01 6.48"/></g></g></g></g></g><g id="kvg:StrokeNumbers_08015" style="font-size:8;fill:#808080"><text transform="matrix(1 0 0 1 8.50 31.50)">1</text><text transform="matrix(1 0 0 1 8.50 45.05)">2</text><text transform="matrix(1 0 0 1 5.25 58.50)">3</text><text transform="matrix(1 0 0 1 22.50 15.50)">4</text><text transform="matrix(1 0 0 1 18.75 69.13)">5</text><text transform="matrix(1 0 0 1 40.50 60.50)">6</text><text transform="matrix(1 0 0 1 51.50 37.50)">7</text><text transform="matrix(1 0 0 1 51.50 57.05)">8</text><text transform="matrix(1 0 0 1 53.50 21.50)">9</text><text transform="matrix(1 0 0 1 67.00 14.50)">10</text></g></svg>