<!DOCTYPE svg PUBLIC "-//W3C//DTD SVG 1.0//EN" "http://www.w3.org/TR/2001/REC-SVG-20010904/DTD/svg10.dtd" [
<!ATTLIST g
xmlns:kvg CDATA #FIXED "http://kanjivg.tagaini.net"
kvg:element CDATA #IMPLIED
kvg:variant CDATA #IMPLIED
kvg:partial CDATA #IMPLIED
kvg:original CDATA #IMPLIED
kvg:part CDATA #IMPLIED
kvg:number CDATA #IMPLIED
kvg:tradForm CDATA #IMPLIED
kvg:radicalForm CDATA #IMPLIED
kvg:position CDATA #IMPLIED
kvg:radical CDATA #IMPLIED
kvg:phon CDATA #IMPLIED >
<!ATTLIST path
xmlns:kvg CDATA #FIXED "http://kanjivg.tagaini.net"
kvg:type CDATA #IMPLIED >
]><svg xmlns="http://www.w3.org/2000/svg" width="109" height="109" viewBox="0 0 109 109"><g id="kvg:StrokePaths_08021" style="fill:none;stroke:#000000;stroke-width:3;stroke-linecap:round;stroke-linejoin:round;"><g id="kvg:08021" kvg:element="耡"><g id="kvg:08021-g1" kvg:element="耒" kvg:position="left" kvg:radical="general"><g id="kvg:08021-g2" kvg:element="丿"><path id="kvg:08021-s1" kvg:type="㇒" d="M36.99 19.91c.07.32.3.97-.13 1.29C30 26.25 21 30.75 12.5 33"/></g><g id="kvg:08021-g3" kvg:element="未"><path id="kvg:08021-s2" kvg:type="㇐" d="M10.68 41.42c.44.26 3.4.73 3.84.7 4.58-.3 14.78-1.5 22.04-2.57.73-.11 2.03.13 2.4.26"/><g id="kvg:08021-g4" kvg:element="木"><path id="kvg:08021-s3" kvg:type="㇐" d="M9.84 54.47c.36.25 2.65.74 3.61.75 4.99.01 16.35-2.09 24.48-3.08.95-.12 1.8.25 2.4.5"/><path id="kvg:08021-s4" kvg:type="㇑" d="M25.2 10.75c.71.47 1.27 3.47 1.27 4.44.0 3.74.24 76.96.1 82.81"/><path id="kvg:08021-s5" kvg:type="㇒" d="M26.53 55.86C23.7 64.83 16.38 78.42 10.5 83.5"/><path id="kvg:08021-s6" kvg:type="㇔/㇏" d="M29 61.5c4.71 3.22 8.17 8.19 11 13.75"/></g></g></g><g id="kvg:08021-g5" kvg:element="助" kvg:position="right"><g id="kvg:08021-g6" kvg:element="且" kvg:variant="true" kvg:position="left"><g id="kvg:08021-g7" kvg:element="月" kvg:variant="true"><path id="kvg:08021-s7" kvg:type="㇑a" d="M46.81 23.05c.29.96.49 1.91.59 2.84.1.94.22 57.66.18 59.73"/><path id="kvg:08021-s8" kvg:type="㇕b" d="M47.48 24.61c1.17-.1 11.85-2.27 12.72-2.43 1.55-.28 2.64 1.75 2.45 3.12-.18 1.31-.09 32.25-.15 50.97"/><path id="kvg:08021-s9" kvg:type="㇐a" d="M48.02 44.25C52 43.5 56.86 43.07 62 42.15"/><path id="kvg:08021-s10" kvg:type="㇐a" d="M48 61.39c4.28-.9 8.78-1.63 13.84-2.23"/></g><g id="kvg:08021-g8" kvg:element="一"><path id="kvg:08021-s11" kvg:type="㇀/㇐" d="M39 87.93c1.25.82 2.64 1.41 4.98.28 1.66-.8 17.8-8.31 24.77-12.71"/></g></g><g id="kvg:08021-g9" kvg:element="力" kvg:position="right"><path id="kvg:08021-s12" kvg:type="㇆" d="M67.5 38.25c.79.74 4.26.62 5 .5 7.5-1.25 17.67-3.17 20.87-3.93 2.08-.49 4.13.71 3.98 4.16-.6 14.26-6.03 43.93-8.94 50.32-3.16 6.94-5.16 5.19-7.5 1.76"/><path id="kvg:08021-s13" kvg:type="㇒" d="M83.95 14.5c.39.64.42 4.49.46 7.04C84.73 41.92 76.74 79.2 61.25 95"/></g></g></g></g><g id="kvg:StrokeNumbers_08021" style="font-size:8;fill:#808080"><text transform="matrix(1 0 0 1 33.25 16.25)">1</text><text transform="matrix(1 0 0 1 4.25 42.25)">2</text><text transform="matrix(1 0 0 1 2.25 55.25)">3</text><text transform="matrix(1 0 0 1 15.25 10.25)">4</text><text transform="matrix(1 0 0 1 16.25 64.25)">5</text><text transform="matrix(1 0 0 1 33.25 62.25)">6</text><text transform="matrix(1 0 0 1 40.25 32.25)">7</text><text transform="matrix(1 0 0 1 49.50 21.25)">8</text><text transform="matrix(1 0 0 1 51.25 40.25)">9</text><text transform="matrix(1 0 0 1 49.50 57.25)">10</text><text transform="matrix(1 0 0 1 32.25 83.25)">11</text><text transform="matrix(1 0 0 1 65.25 35.25)">12</text><text transform="matrix(1 0 0 1 71.25 14.25)">13</text></g></svg>