<svg xmlns="http://www.w3.org/2000/svg" width="109" height="109" viewBox="0 0 109 109"><g id="kvg:StrokePaths_0803f" style="fill:none;stroke:#000000;stroke-width:3;stroke-linecap:round;stroke-linejoin:round;"><g id="kvg:0803f" kvg:element="耿"><g id="kvg:0803f-g1" kvg:element="耳" kvg:position="left" kvg:radical="general"><path id="kvg:0803f-s1" kvg:type="㇐" d="M12.75 18.48c.82.42 2.33.47 3.16.42 6.53-.39 20.02-2.62 29.71-3.35 1.37-.1 2.2.2 2.88.41"/><path id="kvg:0803f-s2" kvg:type="㇑a" d="M21.09 20.07c.24 1.18.96 2.33.96 3.72s-.12 41.3-.12 46.29"/><path id="kvg:0803f-s3" kvg:type="㇐a" d="M22.3 34.98c8.15-1.73 10.87-1.48 18.08-2.33"/><path id="kvg:0803f-s4" kvg:type="㇐a" d="M22.49 48.95c6.94-1.2 13.01-1.95 18.17-2.55"/><path id="kvg:0803f-s5" kvg:type="㇀" d="M11.75 75.01c.83.49 2.36.61 3.06.26C17.63 73.86 35.67 64 40 61.75"/><path id="kvg:0803f-s6" kvg:type="㇑" d="M40.08 19.5c.88 1.31.97 1.54.97 2.99s.14 63.06.14 75.01"/></g><g id="kvg:0803f-g2" kvg:element="火" kvg:position="right"><path id="kvg:0803f-s7" kvg:type="㇔" d="M46.7 34.25c3.32 3.42 8.76 14.83 9.67 18.25"/><path id="kvg:0803f-s8" kvg:type="㇒" d="M90.06 28.5c.83.95.75 2.69.0 4.15-.75 1.47-9.04 13.43-12.81 16.85"/><path id="kvg:0803f-s9" kvg:type="㇒" d="M68.01 13.5c.86.8 1.04 2.92 1.04 4.25-.17 52.81-8.15 64.75-21.8 77.75"/><path id="kvg:0803f-s10" kvg:type="㇏" d="M67.75 52c7.5 18.5 19.45 34.54 24.95 41.68 1.73 2.25 2.13 2 3.55 2.57"/></g></g></g></svg>