<svg xmlns="http://www.w3.org/2000/svg" width="109" height="109" viewBox="0 0 109 109"><g id="kvg:StrokePaths_08036"><g id="kvg:08036" kvg:element="耶"><g id="kvg:08036-g1" kvg:element="耳" kvg:position="left" kvg:radical="general"><path id="kvg:08036-s1" kvg:type="㇐" d="M13.94 19.79c2.23 1.06 5.87.85 8.22.58 7.16-.82 16.35-2 26.09-3.49 2.61-.4 5.25-.63 7.75-.17"/><path id="kvg:08036-s2" kvg:type="㇑a" d="M24.68 23.32c.88.88 1.03 2.08 1.03 3.47s-.08 40.1-.08 45.09"/><path id="kvg:08036-s3" kvg:type="㇐a" d="M26.55 37.48c9.2-1.73 11.45-2.23 19.58-3.08"/><path id="kvg:08036-s4" kvg:type="㇐a" d="M26.74 51.7c7.51-1.2 10.26-1.95 19.42-2.8"/><path id="kvg:08036-s5" kvg:type="㇀" d="M13.5 76.24c1.5.88 2.75 1.13 4.17.52 3.39-1.46 21.02-9.81 26.21-12.17"/><path id="kvg:08036-s6" kvg:type="㇑" d="M46 20.25c1.09 1.09 1.1 2.43 1.1 3.88-.01 5.94-.07 43.46-.09 62.37.0 3.98-.01 7.14-.01 9"/></g><g id="kvg:08036-g2" kvg:element="⻏" kvg:variant="true" kvg:original="邑" kvg:position="right"><path id="kvg:08036-s7" kvg:type="㇇" d="M63.92 17.42c2.33.58 3.92.6 6.08.21 5.62-1.02 14-3 17.42-4.21 2.98-1.05 5.22 1.48 3.92 3.83-2.08 3.75-8.21 14-11.83 19"/><path id="kvg:08036-s8" kvg:type="㇁" d="M79.5 36.25c21.62 13.25 16 42.25 2.48 33.66"/><path id="kvg:08036-s9" kvg:type="㇑" d="M66.33 18.5c.83.84 1 2.08 1 3.87.0 11.95.02 48.06.03 65.5.0 4.04.0 7.1.0 8.63"/></g></g></g></svg>