<svg xmlns="http://www.w3.org/2000/svg" width="109" height="109" viewBox="0 0 109 109"><g id="kvg:StrokePaths_0804a" style="fill:none;stroke:#000000;stroke-width:3;stroke-linecap:round;stroke-linejoin:round;"><g id="kvg:0804a" kvg:element="聊"><g id="kvg:0804a-g1" kvg:element="耳" kvg:position="left" kvg:radical="general"><path id="kvg:0804a-s1" kvg:type="㇐" d="M10.55 20.72c.76.43 2.14.48 2.91.43 6.02-.4 17.79-1.9 24.89-3.39 1.24-.26 2.52-.3 3.15-.08"/><path id="kvg:0804a-s2" kvg:type="㇑a" d="M18.62 24.57c.38.93.75 2.24.75 3.57s-.09 37.65-.09 42.44"/><path id="kvg:0804a-s3" kvg:type="㇐a" d="M19.75 39.25c7.07-1.84 9-2.11 15.25-3"/><path id="kvg:0804a-s4" kvg:type="㇐a" d="M19.46 52.45c5.79-1.2 8.11-1.7 15.18-2.55"/><path id="kvg:0804a-s5" kvg:type="㇀" d="M11.25 73.6c.7.39 1.98.5 2.56.21 2.36-1.14 17.45-9.14 21.07-10.96"/><path id="kvg:0804a-s6" kvg:type="㇑" d="M34.51 22c.77 1.25.85 1.96.85 3.35s.12 59.03.12 70.4"/></g><g id="kvg:0804a-g2" kvg:element="卯" kvg:position="right"><g id="kvg:0804a-g3" kvg:position="left"><path id="kvg:0804a-s7" kvg:type="㇒" d="M58.76 13.25c.03.27.1.76-.05 1.06-1.86 3.74-5.21 6.94-10.46 11.19"/><path id="kvg:0804a-s8" kvg:type="㇙" d="M46.37 28.26c.54.48 1.81 2.69 1.92 3.66.11.96-.23 30.89-.35 33.28-.11 2.17.04 5.27 1.32 3.58s7.24-6.96 11.94-10.89"/><g id="kvg:0804a-g4" kvg:element="丿"><path id="kvg:0804a-s9" kvg:type="㇒" d="M61.05 24.68c.88.91 1.6 2.23 1.6 4.55.0 24.28 3.53 54.03-15.86 64.68"/></g></g><g id="kvg:0804a-g5" kvg:element="卩" kvg:position="right"><path id="kvg:0804a-s10" kvg:type="㇆" d="M73.54 22.99c.58.21 2.23.43 3.4.28 4.31-.53 10.94-2.64 12.39-2.85s4.21.32 4.21 3.07c0 10.26.71 26.51.02 40.38-.63 12.61-6.82 2.57-7.26 2.14"/><path id="kvg:0804a-s11" kvg:type="㇑" d="M75.7 25.11c.2.93.0 65.34-.2 71.14"/></g></g></g></g></svg>