<svg xmlns="http://www.w3.org/2000/svg" width="109" height="109" viewBox="0 0 109 109"><g id="kvg:StrokePaths_08052" style="fill:none;stroke:#000000;stroke-width:3;stroke-linecap:round;stroke-linejoin:round;"><g id="kvg:08052" kvg:element="聒"><g id="kvg:08052-g1" kvg:element="耳" kvg:position="left" kvg:radical="general"><path id="kvg:08052-s1" kvg:type="㇐" d="M9.3 18.5c.87.4 2.46.45 3.33.4 6.9-.37 20.6-2.45 30.83-3.15 1.44-.1 2.32.19 3.04.39"/><path id="kvg:08052-s2" kvg:type="㇑a" d="M19 21.5c.75 1 1.24 2.38 1.24 3.8.0 1.42-.09 43.19-.09 48.28"/><path id="kvg:08052-s3" kvg:type="㇐a" d="M21.21 36.72c7.67-1.43 9.76-1.63 16.54-2.32"/><path id="kvg:08052-s4" kvg:type="㇐a" d="M21.25 52.92c6.68-.95 9.35-1.74 17.5-2.42"/><path id="kvg:08052-s5" kvg:type="㇀" d="M11.75 75.75c.75.5 2.59.39 3.21.17 2.49-.9 17.96-7.22 21.79-8.66"/><path id="kvg:08052-s6" kvg:type="㇑" d="M38.01 20c.77 1.25.85 1.46.85 2.85s.12 64.03.12 75.4"/></g><g id="kvg:08052-g2" kvg:element="舌" kvg:position="right"><g id="kvg:08052-g3" kvg:element="千" kvg:position="top"><path id="kvg:08052-s7" kvg:type="㇒" d="M87.5 14.5c0 1.25-.8 2.57-1.44 2.95C80 21 71.6 25.67 51 30.25"/><path id="kvg:08052-s8" kvg:type="㇐" d="M45.5 46.11c1.1.24 3.84.31 4.93.24 9.46-.53 30.4-3.74 43.48-3.89 1.83-.02 2.93.12 3.84.24"/><path id="kvg:08052-s9" kvg:type="㇑a" d="M69.75 27.75c.36.4 1.13 2.97 1.2 3.77.13 1.48-.04 30.63-.12 35.73"/></g><g id="kvg:08052-g4" kvg:element="口" kvg:position="bottom"><path id="kvg:08052-s10" kvg:type="㇑" d="M52.25 67.08c.6.45 1.39 1.78 1.48 2.38C55 77.5 55.75 84 57.25 95.75"/><path id="kvg:08052-s11" kvg:type="㇕b" d="M54.62 69.45c11.17-1.45 27.02-3.21 33.3-3.81 2.3-.22 2.96 2.22 2.63 3.51-1.36 5.33-3.25 14.63-4.21 22.86"/><path id="kvg:08052-s12" kvg:type="㇐b" d="M57.01 93.79C64.34 93.28 76 92.5 88.5 92.11"/></g></g></g></g></svg>