<svg xmlns="http://www.w3.org/2000/svg" width="109" height="109" viewBox="0 0 109 109"><g id="kvg:StrokePaths_0805a"><g id="kvg:0805a" kvg:element="聚"><g id="kvg:0805a-g1" kvg:element="取" kvg:position="top"><g id="kvg:0805a-g2" kvg:element="耳" kvg:position="left" kvg:radical="general"><path id="kvg:0805a-s1" kvg:type="㇐" d="M12.65 16.85c.92.21 2.62.27 3.54.21 8.04-.45 20.7-2.46 30.78-2.81 1.54-.05 2.47.1 3.24.21"/><path id="kvg:0805a-s2" kvg:type="㇑a" d="M21.46 19.03c.68.58 1.19 1.86 1.19 2.96s.3 21.32.3 25.29"/><path id="kvg:0805a-s3" kvg:type="㇐a" d="M22.81 26.9c4.69-.4 16.69-1.9 20.15-1.92"/><path id="kvg:0805a-s4" kvg:type="㇐a" d="M23.02 35.76c4.73-.51 14.48-2.26 20-2.79"/><path id="kvg:0805a-s5" kvg:type="㇀" d="M13.44 48.92c.29.55 3.07 1 4.07.64 4.74-1.75 16.74-6.56 25.86-9.43"/><path id="kvg:0805a-s6" kvg:type="㇑" d="M42.19 17.24c.56.99 1.1 1.81 1.1 2.86s.16 23.55.16 32.16"/></g><g id="kvg:0805a-g3" kvg:element="又" kvg:position="right"><path id="kvg:0805a-s7" kvg:type="㇇" d="M55.32 19.39c1.43.36 3.27.44 5.26.18s16.5-4.5 17.88-4.63c2.03-.19 3.28.9 2.52 2.59C75.5 29.75 63 39.75 53.45 43.58"/><path id="kvg:0805a-s8" kvg:type="㇏" d="M56.24 26.04C68.5 30.75 82.25 39 90.13 48.15"/></g></g><g id="kvg:0805a-g4" kvg:position="bottom"><g id="kvg:0805a-g5" kvg:element="亻" kvg:variant="true" kvg:original="人"><path id="kvg:0805a-s9" kvg:type="㇒" d="M68.49 45.75c.1.34.39.99-.2 1.38-7.38 4.83-18.3 9.27-37.54 13.17"/><path id="kvg:0805a-s10" kvg:type="㇑" d="M51.35 57.99c.79 1.07 1.57 1.94 1.57 3.06.0 1.12-.09 28.48-.09 37.7"/></g><path id="kvg:0805a-s11" kvg:type="㇒" d="M37.5 63.89c.06.29.11.75-.11 1.17-1.33 2.46-8.93 7.86-19.33 11.16"/><path id="kvg:0805a-s12" kvg:type="㇒" d="M41.73 74.39c.07.5.15 1.3-.14 2.02C39.86 80.67 29.92 90 16.31 95.72"/><path id="kvg:0805a-s13" kvg:type="㇒" d="M80.01 57.39c.04.3.09.76-.09 1.19-1.05 2.51-7.1 8.01-15.37 11.38"/><path id="kvg:0805a-s14" kvg:type="㇏" d="M55.15 62.48c3.02.68 17.75 18.92 28.25 26.39 1.64 1.16 2.83 1.94 4.35 2.33"/></g></g></g></svg>