<svg xmlns="http://www.w3.org/2000/svg" width="109" height="109" viewBox="0 0 109 109"><g id="kvg:StrokePaths_0807d" style="fill:none;stroke:#000000;stroke-width:3;stroke-linecap:round;stroke-linejoin:round;"><g id="kvg:0807d" kvg:element="聽"><g id="kvg:0807d-g1" kvg:position="left"><g id="kvg:0807d-g2" kvg:element="耳" kvg:radical="general"><path id="kvg:0807d-s1" kvg:type="㇐" d="M11.05 18.73c.76.43 2.14.48 2.91.43 6.02-.4 17.97-2.65 26.89-3.39 1.26-.1 2.02.2 2.65.42"/><path id="kvg:0807d-s2" kvg:type="㇑a" d="M19.37 20.58c.25 1.18.99 2.33.99 3.72s-.12 25.8-.12 30.79"/><path id="kvg:0807d-s3" kvg:type="㇐a" d="M20.71 31c4.79-.75 9.02-.98 15.3-1.83"/><path id="kvg:0807d-s4" kvg:type="㇐a" d="M20.96 41.46c5.79-1.2 8.11-1.2 15.18-2.05"/><path id="kvg:0807d-s5" kvg:type="㇀" d="M12.75 57.48c.62.27 1.75.34 2.26.14 2.08-.78 15.42-6.26 18.62-7.52"/><path id="kvg:0807d-s6" kvg:type="㇑" d="M35.51 19.01c.77 1.25.85 1.46.85 2.85.0 1.56.12 64.51.12 75.9"/></g><g id="kvg:0807d-g3" kvg:element="王" kvg:original="玉" kvg:partial="true"><path id="kvg:0807d-s7" kvg:type="㇐" d="M13.83 63.98c.34.19 2.22.23 2.56.17 1.62-.25 8.22-1.06 12.11-1.33.53-.04 1.52-.13 1.96.02"/><path id="kvg:0807d-s8" kvg:type="㇑a" d="M22.14 65.45c.48.4.82 1.26.82 1.58.0 2.69.29 17.04.19 18.83"/><path id="kvg:0807d-s9" kvg:type="㇐" d="M14.39 75.59c.31.18 2.45.21 2.76.17 1.79-.24 7.9-1.64 10.38-1.9.38-.04 1.77-.07 2.34.09"/><path id="kvg:0807d-s10" kvg:type="㇐" d="M12.25 89.51c.35.12 1.75 1 2.29.78 3.44-1.42 8.34-3.49 13.58-5.95"/></g></g><g id="kvg:0807d-g4" kvg:position="right"><g id="kvg:0807d-g5" kvg:element="十"><path id="kvg:0807d-s11" kvg:type="㇐" d="M46.48 22.76c.88.31 2.49.39 3.37.31 11.17-1.02 28.74-3.98 36.45-4.11 1.46-.02 2.34.15 3.08.31"/><path id="kvg:0807d-s12" kvg:type="㇑" d="M64.64 11.13c.4.32 1.25 2.4 1.33 3.04s-.05 13.71-.13 17.71"/></g><g id="kvg:0807d-g6" kvg:element="罒" kvg:variant="true" kvg:original="网"><path id="kvg:0807d-s13" kvg:type="㇑" d="M47.5 34.39c.21.3.43.55.53.93.74 3 3.13 10.78 3.64 16.17"/><path id="kvg:0807d-s14" kvg:type="㇕a" d="M48.83 35.43c4.72-1.18 36.59-4.8 39.1-5.19.92-.14 2.16 1.02 1.91 2.7-.51 3.52-2.27 10.06-3.64 15.09"/><path id="kvg:0807d-s15" kvg:type="㇑a" d="M61.27 33.75c.14 2 1.15 11.75 1.3 14"/><path id="kvg:0807d-s16" kvg:type="㇑a" d="M74.32 32.5c-.14 3.25-.87 11.75-1.15 13.75"/><path id="kvg:0807d-s17" kvg:type="㇐a" d="M52.34 49.37c2.95-.45 30.16-3.22 34.2-3.9"/></g><path id="kvg:0807d-s18" kvg:type="㇐" d="M50 61.14c1.02.11 3.01.74 4.79.48 7.71-1.12 22.39-3.47 27.92-3.98 1.56-.14 3 .18 3.79.37"/><g id="kvg:0807d-g7" kvg:element="心"><path id="kvg:0807d-s19" kvg:type="㇔" d="M50.35 78.96c.26 1.96-2.64 10.61-4.75 13.87"/><path id="kvg:0807d-s20" kvg:type="㇃" d="M56.34 73.12C61.5 84.25 67.25 93.5 84.29 94.68c8.06.56 8.61-3.06 1.87-8.28"/><path id="kvg:0807d-s21" kvg:type="㇔a" d="M69.94 72.25c1.41 4.58 4.56 8 5.98 3.15"/><path id="kvg:0807d-s22" kvg:type="㇔" d="M86.74 67.98c3.8 1.96 6.65 3.74 9.74 9.8"/></g></g></g></g></svg>