<svg xmlns="http://www.w3.org/2000/svg" width="109" height="109" viewBox="0 0 109 109"><g id="kvg:StrokePaths_0807e"><g id="kvg:0807e" kvg:element="聾"><g id="kvg:0807e-g1" kvg:element="龍" kvg:position="top" kvg:radical="nelson"><g id="kvg:0807e-g2" kvg:position="left"><g id="kvg:0807e-g3" kvg:element="立" kvg:position="top"><g id="kvg:0807e-g4" kvg:element="亠" kvg:position="top"><path id="kvg:0807e-s1" kvg:type="㇑a" d="M32.23 10.25c.61.38 1.54 1.22 1.54 2.18.0 1.32.0 2.09.0 4.18"/><path id="kvg:0807e-s2" kvg:type="㇐" d="M16.17 17.92c.66.19 2.95.21 3.61.19 3.75-.16 25.07-2.25 30.73-2.38 1.11-.03 1.77.09 2.32.18"/></g><g id="kvg:0807e-g5" kvg:position="bottom"><path id="kvg:0807e-s3" kvg:type="㇔" d="M23.91 20.32c2.26 2.42 3.29 4.91 3.49 6.5"/><path id="kvg:0807e-s4" kvg:type="㇒" d="M44.21 18.14c.53.27.59 1.02.53 1.24-.42 1.54-4.82 6.13-5.88 7.31"/><path id="kvg:0807e-s5" kvg:type="㇐" d="M11.81 29.32c.8.26 1.73.29 2.53.26 9.5-.38 28.66-2.9 38.74-3.43 1.33-.07 2.13.12 2.8.25"/></g></g><g id="kvg:0807e-g6" kvg:element="月" kvg:position="bottom"><path id="kvg:0807e-s6" kvg:type="㇑" d="M21.75 34.48c.47.38.78.77.94 1.15.15.38.22 21.83.15 22.69"/><path id="kvg:0807e-s7" kvg:type="㇕" d="M23.62 35.36c1.87-.1 19.55-1.71 20.94-1.82 2.5-.19 3.43 1.24 3.12 1.82-.3.55-.47 10.27-.47 18.02.0 6.87-2.38 3.86-5.81 1.78"/><path id="kvg:0807e-s8" kvg:type="㇐" d="M23.62 41.92c6.4-.57 17.35-1.13 22.97-1.42"/><path id="kvg:0807e-s9" kvg:type="㇐" d="M24.09 48.87c4.99-.29 16.42-1.15 22.19-1.34"/></g></g><g id="kvg:0807e-g7" kvg:position="right"><path id="kvg:0807e-s10" kvg:type="㇐" d="M64.52 12.96c4.59-.32 14.98-1.52 20.17-2.12 1.18-.13 1.92.09 2.52.18"/><path id="kvg:0807e-s11" kvg:type="㇞" d="M61.53 7.89c1.34.65 1.72 2.22 1.74 3.13.04 1.91-.2 6.36-.33 8.99-.03.57.27 1.27 2.71 1 5.38-.59 14.21-1.35 20.14-2.13 3.35-.44 3.45.49 2.92 1.48-1.02 1.89-1.66 4.64-2.7 7.95"/><path id="kvg:0807e-s12" kvg:type="㇐" d="M63.57 30.34c4.59-.32 14.72-2.02 21.12-2.31"/><path id="kvg:0807e-s13" kvg:type="㇟" d="M61.87 28.38c.71.72 1.28 1.58 1.33 2.7.19 4.99-.01 15.52-.01 18.92.0 7.93 8.58 7.03 17.04 7.03 13.5.0 14.35-1.69 14.35-5.56"/><path id="kvg:0807e-s14" kvg:type="㇐" d="M64.31 36.8c4.59-.32 15.94-1.22 21.14-1.81 1.18-.13 1.92.09 2.52.18"/><path id="kvg:0807e-s15" kvg:type="㇐" d="M64.07 42.57c4.59-.32 16.39-.92 21.58-1.51 1.18-.13 1.92.09 2.52.18"/><path id="kvg:0807e-s16" kvg:type="㇐" d="M63.59 48.67c4.59-.32 17.83-.72 23.03-1.31 1.18-.13 1.92.09 2.52.18"/></g></g><g id="kvg:0807e-g8" kvg:element="耳" kvg:position="bottom" kvg:radical="tradit"><path id="kvg:0807e-s17" kvg:type="㇐" d="M25.52 65.4c1.09.28 3.09.33 4.18.28C42.75 65 58.12 63.82 80.02 63c1.81-.07 2.91.13 3.82.27"/><path id="kvg:0807e-s18" kvg:type="㇑a" d="M35.42 67.14c.95.41 1.45 1.5 1.45 2.61.0 1.12.21 17.22.21 21.23"/><path id="kvg:0807e-s19" kvg:type="㇐a" d="M37.37 73.33c4.31.0 24.79-1.66 32.16-1.66"/><path id="kvg:0807e-s20" kvg:type="㇐a" d="M36.93 81.04c5.32.0 24.68-2.02 32.44-2.02"/><path id="kvg:0807e-s21" kvg:type="㇀" d="M19.41 90.35c.59.9 2.67 2.13 4.33 1.93 6.66-.78 49.66-5.44 59.89-6.68"/><path id="kvg:0807e-s22" kvg:type="㇑" d="M68.59 64.93c.44.55 1.11 1.24 1.11 1.93.0.69.22 28.97.22 34.64"/></g></g></g></svg>