<svg xmlns="http://www.w3.org/2000/svg" width="109" height="109" viewBox="0 0 109 109"><g id="kvg:StrokePaths_08070"><g id="kvg:08070" kvg:element="聰"><g id="kvg:08070-g1" kvg:element="耳" kvg:position="left" kvg:radical="general"><path id="kvg:08070-s1" kvg:type="㇐" d="M9.5 20.81c.77.27 3.74.68 4.52.65 6.15-.26 17.89-3.03 27.01-3.51 1.29-.07 3.82.57 4.46.71"/><path id="kvg:08070-s2" kvg:type="㇑a" d="M18.25 24.42c1 .58 1.14 1.98 1.14 3.37s-.08 39.3-.08 44.29"/><path id="kvg:08070-s3" kvg:type="㇐a" d="M20.75 36.42c8.17-1.33 8.33-1 15.83-2"/><path id="kvg:08070-s4" kvg:type="㇐a" d="M20.25 50.42c6.17-.88 8.33-1.17 15.67-2.17"/><path id="kvg:08070-s5" kvg:type="㇀" d="M11.25 75.78c.73.47 1.88.8 2.5.47 2.48-1.35 19.07-11.5 22.88-13.66"/><path id="kvg:08070-s6" kvg:type="㇑" d="M35.58 22.08c.67.67 1.37 1.38 1.37 2.77s-.04 59.37-.04 70.73"/></g><g id="kvg:08070-g2" kvg:position="right"><g id="kvg:08070-g3" kvg:position="top"><path id="kvg:08070-s7" kvg:type="㇒" d="M69 12.75c.03.34.07.88-.07 1.37-.8 2.89-6.18 8.13-11.18 13.29"/><path id="kvg:08070-s8" kvg:type="㇑" d="M50.92 27.25c1.58.75 1.73 1.76 1.83 2.5.84 6.1 1.15 22.62 1.67 34"/><path id="kvg:08070-s9" kvg:type="㇕" d="M53 29.1c9.93-1.54 26-3.6 34.77-4.46 2.75-.27 4.12 1.2 3.98 2.89-.51 6.17-2.5 24.17-4.34 34.22"/><path id="kvg:08070-s10" kvg:type="㇒" d="M70.09 29.92c.12.24-.05 1.77-.27 2.22-.72 1.5-7.38 10.08-10.58 12.12"/><path id="kvg:08070-s11" kvg:type="㇇" d="M71.58 34.42c.92.33 2.2.38 2.67.33 1.53-.17 4.63-.69 6.67-1.33 1.46-.46 1.95.88 1.5 1.83-3.58 7.6-11.08 16.24-21.92 20.5"/><path id="kvg:08070-s12" kvg:type="㇔" d="M60.25 38.5c8.02 2.65 20.49 11.13 22.5 15.25"/><path id="kvg:08070-s13" kvg:type="㇐" d="M55.58 61.1c6.73-.6 20.35-1.74 31-2.03"/></g><g id="kvg:08070-g4" kvg:element="心" kvg:position="bottom"><path id="kvg:08070-s14" kvg:type="㇔" d="M49.52 76.33c.17 2.17-1.73 10.85-3.13 14.47"/><path id="kvg:08070-s15" kvg:type="㇃" d="M54.5 70.75C62.25 84 66 94.5 86.08 95.42c9.4.43 9.01-.78 1.17-6.83"/><path id="kvg:08070-s16" kvg:type="㇔a" d="M69.58 73.42c1.61 4.12 3.69 9.01 5.42 2.7"/><path id="kvg:08070-s17" kvg:type="㇔" d="M84 68.75c5.56 2.3 9.57 4.72 14.08 11.83"/></g></g></g></g></svg>