<svg xmlns="http://www.w3.org/2000/svg" width="109" height="109" viewBox="0 0 109 109"><g id="kvg:StrokePaths_08079" style="fill:none;stroke:#000000;stroke-width:3;stroke-linecap:round;stroke-linejoin:round;"><g id="kvg:08079" kvg:element="聹"><g id="kvg:08079-g1" kvg:element="耳" kvg:position="left" kvg:radical="general"><path id="kvg:08079-s1" kvg:type="㇐" d="M8.75 21.01c.73.28 1.72.69 2.46.66 5.83-.26 18.04-2.67 26.07-3.6 1.22-.14 2.7.58 3.31.73"/><path id="kvg:08079-s2" kvg:type="㇑a" d="M16.75 24.25c1 1 1.27 2.31 1.27 3.59s-.27 39.81-.27 44.41"/><path id="kvg:08079-s3" kvg:type="㇐a" d="M18.04 38.49c5.21-.74 10.04-1.64 15.63-2.34"/><path id="kvg:08079-s4" kvg:type="㇐a" d="M18.13 53.06c5.41-.77 9.07-1.9 15.68-2.44"/><path id="kvg:08079-s5" kvg:type="㇀" d="M10.92 75.08c.59.33 2.33.23 2.83.0 2.01-.95 16.39-8.23 19.47-9.74"/><path id="kvg:08079-s6" kvg:type="㇑" d="M32.25 21.58c1 .92 1.72 2.23 1.72 3.64.0 1.4.11 59.51.11 71.03"/></g><g id="kvg:08079-g2" kvg:element="寧" kvg:variant="true" kvg:position="right"><g id="kvg:08079-g3" kvg:element="宀" kvg:position="top"><path id="kvg:08079-s7" kvg:type="㇑a" d="M63.92 11.25c.93.36 2.51 2.61 2.49 3.64-.07 3.25-.07 4.96-.07 7.92"/><g id="kvg:08079-g4" kvg:element="冖"><path id="kvg:08079-s8" kvg:type="㇔" d="M44.06 23.47c0 2.52-3.09 11.1-3.98 12.78"/><path id="kvg:08079-s9" kvg:type="㇖b" d="M44.58 26.15c6.33-.9 40.01-5.09 45.14-5.43 8.02-.54 5.02 4.28 1.69 7.7"/></g></g><g id="kvg:08079-g5" kvg:position="bottom"><g id="kvg:08079-g6" kvg:element="心"><path id="kvg:08079-s10" kvg:type="㇔" d="M49.04 32.97c.25 1.5-2.62 8.28-4.62 10.78"/><path id="kvg:08079-s11" kvg:type="㇃" d="M54.58 30.75C59.25 41 67 44.5 78.79 43.64c5.02-.37 5.26-3.06 1.75-6.44"/><path id="kvg:08079-s12" kvg:type="㇔a" d="M66.9 30.98c1.47 3.24 3.35 6.02 4.7 2.52"/><path id="kvg:08079-s13" kvg:type="㇔" d="M81.2 29.13c4.01 1.44 7.02 2.75 10.28 7.21"/></g><g id="kvg:08079-g7" kvg:element="罒" kvg:variant="true" kvg:original="网"><g id="kvg:08079-g8" kvg:element="皿"><path id="kvg:08079-s14" kvg:type="㇑a" d="M47.92 51.08c.19.23 1.45 1.49 1.54 1.77.71 2.47 1.21 6.56 1.63 10.39"/><path id="kvg:08079-s15" kvg:type="㇕b" d="M49.82 52.33c6.03-.66 34.6-3.28 37.15-3.56.93-.1 2.7 1.24 2.45 2.46-.52 2.55-1.42 4.52-2.16 8.9"/><path id="kvg:08079-s16" kvg:type="㇑a" d="M61.63 52.62c.87.13 1.06 1.1 1.18 2.13.3 2.54.36 5.34.45 6.61"/><path id="kvg:08079-s17" kvg:type="㇑a" d="M74.09 51.08c0 .42.5 1.4.51 1.92.05 3.01-.22 6.77-.28 8.29"/><path id="kvg:08079-s18" kvg:type="㇐" d="M38.92 63.42c1.74.6 4.1 1.29 5.5 1.17 10.52-.93 37.8-3.62 48.67-4.67 2.02-.19 4.17-.17 6.33.33"/></g></g><g id="kvg:08079-g9" kvg:element="丁"><g id="kvg:08079-g10" kvg:element="一"><path id="kvg:08079-s19" kvg:type="㇐" d="M44.42 73.08c.87.35 3.96 1.05 4.83 1 9.25-.58 28.67-2.83 39.5-3.67 1.44-.11 3.94.16 4.67.33"/></g><g id="kvg:08079-g11" kvg:element="亅"><path id="kvg:08079-s20" kvg:type="㇚" d="M68.42 75.25c.05.28 1.31 1.95 1.31 3.72.0 6.21.19 9.96.19 13.02.0 8.57-5.68 1.15-6.67.42"/></g></g></g></g></g></g></svg>