<svg xmlns="http://www.w3.org/2000/svg" width="109" height="109" viewBox="0 0 109 109"><g id="kvg:StrokePaths_0808b"><g id="kvg:0808b" kvg:element="肋"><g id="kvg:0808b-g1" kvg:element="月" kvg:variant="true" kvg:original="肉" kvg:position="left" kvg:radical="general"><path id="kvg:0808b-s1" kvg:type="㇓" d="M19.33 20.98c.64.93 1.28 1.83 1.28 2.79.0 10.23-.7 29.35-.79 31.44-.43 9.99-3.83 29.43-9.57 36.17"/><path id="kvg:0808b-s2" kvg:type="㇆a" d="M21.39 21.91c2.55-.23 11.47-1.65 13.37-1.91 3.4-.46 4.68 3.02 4.25 4.41-.41 1.34-.64 40.27-.64 59.09.0 12.08-5.11 4.18-7.23 2.09"/><path id="kvg:0808b-s3" kvg:type="㇐a" d="M20.89 40.3c4.36-.3 9.48-1.48 17.14-2.18"/><path id="kvg:0808b-s4" kvg:type="㇐a" d="M20.03 57.15c6.22-.65 12.47-1.4 18.07-1.75"/></g><g id="kvg:0808b-g2" kvg:element="力" kvg:position="right"><path id="kvg:0808b-s5" kvg:type="㇆" d="M51.41 40.47c1.07.68 2.4.51 3.36.36 8.98-1.33 30.43-4.84 34.71-5.09 4.27-.24 4.52 2.03 4.37 5.19-.4 8.34-7 40.72-12.05 46.59-4.88 5.67-6.23.31-7.34-.68"/><path id="kvg:0808b-s6" kvg:type="㇒" d="M69.93 15.68c.07 1.79.18 4.63-.14 7.19-2.38 18.97-8.04 54.39-25.4 68.79"/></g></g></g></svg>