<svg xmlns="http://www.w3.org/2000/svg" width="109" height="109" viewBox="0 0 109 109"><g id="kvg:StrokePaths_0809a" style="fill:none;stroke:#000000;stroke-width:3;stroke-linecap:round;stroke-linejoin:round;"><g id="kvg:0809a" kvg:element="肚"><g id="kvg:0809a-g1" kvg:element="月" kvg:variant="true" kvg:original="肉" kvg:position="left" kvg:radical="general"><path id="kvg:0809a-s1" kvg:type="㇓" d="M17.25 19.75c1 .75 1.5 2.5 1.5 3.5.0 19-.88 41.58-.5 36 .79-11.71-1.34 21.54-8.75 35"/><path id="kvg:0809a-s2" kvg:type="㇆a" d="M19.32 21.48c2.19-.06 12.64-2.26 14.27-2.38 2.92-.22 3.64 1.26 3.64 2.58.0 3.12-.55 44.65-.55 62.36.0 12.18-4.74 4.68-6.6 3.21"/><path id="kvg:0809a-s3" kvg:type="㇐a" d="M20.82 40.3c4.23-.27 11.96-1.55 15.68-1.56"/><path id="kvg:0809a-s4" kvg:type="㇐a" d="M19.26 57.73c3.96-.09 12.16-1.4 17.54-1.85"/></g><g id="kvg:0809a-g2" kvg:element="土" kvg:position="right"><path id="kvg:0809a-s5" kvg:type="㇐" d="M45.5 51.21c1.18.22 4.46.47 5.64.41 9.73-.45 23.61-2.62 36.25-3.41 1.96-.12 4.13.27 5.11.38"/><path id="kvg:0809a-s6" kvg:type="㇑a" d="M65.75 17c1.25.75 2.34 1.83 2.34 3.63.0 11.61-.32 50.77-.32 66.12"/><path id="kvg:0809a-s7" kvg:type="㇐" d="M42.25 88.5c.97.33 5.53 1.08 6.5 1 12.06-.92 33.56-2.58 44.34-3 1.62-.07 4.09.84 4.91 1"/></g></g></g></svg>