<svg xmlns="http://www.w3.org/2000/svg" width="109" height="109" viewBox="0 0 109 109"><g id="kvg:StrokePaths_08098" style="fill:none;stroke:#000000;stroke-width:3;stroke-linecap:round;stroke-linejoin:round;"><g id="kvg:08098" kvg:element="肘"><g id="kvg:08098-g1" kvg:element="月" kvg:variant="true" kvg:original="肉" kvg:position="left" kvg:radical="general"><path id="kvg:08098-s1" kvg:type="㇓" d="M18.97 19.74c.52.95.88 1.88 1.05 2.8s.15 25.9-.41 33.63c-.8 11-1.61 22.08-9.11 34.72"/><path id="kvg:08098-s2" kvg:type="㇆a" d="M21.07 20.81c2.1-.06 12.65-2.34 14.21-2.46 2.8-.23 3.5 1.31 3.5 2.67.0 3.23-.53 46.22-.53 64.55.0 12.61-5.91 3.55-7.7 2.04"/><path id="kvg:08098-s3" kvg:type="㇐a" d="M21.07 40.7c4.61-.35 13.03-1.54 17.08-1.57"/><path id="kvg:08098-s4" kvg:type="㇐a" d="M20.01 58.65c3.79-.08 13.14-.78 18.29-1.2"/></g><g id="kvg:08098-g2" kvg:element="寸" kvg:position="right"><path id="kvg:08098-s5" kvg:type="㇐" d="M46.53 39.83c.93.51 2.61.54 3.54.47 7.68-.55 32.22-4.86 43.66-5.83 1.53-.13 2.46.22 3.23.47"/><path id="kvg:08098-s6" kvg:type="㇚" d="M77.64 14.33c.09.48 1.26 2.49 1.26 5.52.0 20.4-.26 63.16-.26 68.12.0 12.03-5.89 4.53-9.21 1.25"/><path id="kvg:08098-s7" kvg:type="㇔" d="M55.08 52.62c3.18 2.29 8.21 9.43 9 13"/></g></g></g></svg>