<!DOCTYPE svg PUBLIC "-//W3C//DTD SVG 1.0//EN" "http://www.w3.org/TR/2001/REC-SVG-20010904/DTD/svg10.dtd" [
<!ATTLIST g
xmlns:kvg CDATA #FIXED "http://kanjivg.tagaini.net"
kvg:element CDATA #IMPLIED
kvg:variant CDATA #IMPLIED
kvg:partial CDATA #IMPLIED
kvg:original CDATA #IMPLIED
kvg:part CDATA #IMPLIED
kvg:number CDATA #IMPLIED
kvg:tradForm CDATA #IMPLIED
kvg:radicalForm CDATA #IMPLIED
kvg:position CDATA #IMPLIED
kvg:radical CDATA #IMPLIED
kvg:phon CDATA #IMPLIED >
<!ATTLIST path
xmlns:kvg CDATA #FIXED "http://kanjivg.tagaini.net"
kvg:type CDATA #IMPLIED >
]><svg xmlns="http://www.w3.org/2000/svg" width="109" height="109" viewBox="0 0 109 109"><g id="kvg:StrokePaths_080aa" style="fill:none;stroke:#000000;stroke-width:3;stroke-linecap:round;stroke-linejoin:round;"><g id="kvg:080aa" kvg:element="肪"><g id="kvg:080aa-g1" kvg:element="月" kvg:variant="true" kvg:original="肉" kvg:position="left" kvg:radical="general"><path id="kvg:080aa-s1" kvg:type="㇓" d="M19.56 20.25c.85.85 1.02 2.14 1.05 3.08C21.5 62.5 20 80 12.75 93.12"/><path id="kvg:080aa-s2" kvg:type="㇆a" d="M21.4 22.6c3.1-.62 9.51-1.81 13.1-2.4 2.07-.34 4.54-.63 4.54 2.35.0 3.26-.02 44.67-.02 63.18.0 13.08-3.25 6.23-5.98 3.07"/><path id="kvg:080aa-s3" kvg:type="㇐a" d="M22.15 42.33c5.12-.65 10.69-1.34 15.5-1.92"/><path id="kvg:080aa-s4" kvg:type="㇐a" d="M21.59 60.31c4.53-.56 11.08-1.29 16.21-1.71"/></g><g id="kvg:080aa-g2" kvg:element="方" kvg:position="right" kvg:phon="方"><g id="kvg:080aa-g3" kvg:element="亠" kvg:position="top"><path id="kvg:080aa-s5" kvg:type="㇑a" d="M69.05 14.25c1.1 1.1 1.59 2.38 1.59 4.54.0 4.86.11 7.71.11 12.5"/><path id="kvg:080aa-s6" kvg:type="㇐" d="M45.88 34.64c2.91.65 5.93.79 8.88.31 10.41-1.72 23.36-3.82 35.12-4.68 2.81-.21 5.84-.11 8.5.89"/></g><g id="kvg:080aa-g4" kvg:position="bottom"><path id="kvg:080aa-s7" kvg:type="㇆a" d="M69.02 46.57c5.98 2.56 9.73 3.81 16.18 5.49 3.26.85 4.21 2.09 3.4 5.25-1.99 7.78-9.15 27.54-12.73 32.32-4.13 5.51-7.12.76-8.37-.7"/><path id="kvg:080aa-s8" kvg:type="㇒" d="M69.88 36.25c.34 1.33.3 2.59-.13 4.08-3.13 10.79-11 29.79-23.83 41.25"/></g></g></g></g><g id="kvg:StrokeNumbers_080aa" style="font-size:8;fill:#808080"><text transform="matrix(1 0 0 1 13.50 27.50)">1</text><text transform="matrix(1 0 0 1 22.50 18.13)">2</text><text transform="matrix(1 0 0 1 24.75 38.50)">3</text><text transform="matrix(1 0 0 1 24.75 56.50)">4</text><text transform="matrix(1 0 0 1 60.50 15.50)">5</text><text transform="matrix(1 0 0 1 44.50 31.55)">6</text><text transform="matrix(1 0 0 1 74.50 46.50)">7</text><text transform="matrix(1 0 0 1 60.50 43.50)">8</text></g></svg>