<svg xmlns="http://www.w3.org/2000/svg" width="109" height="109" viewBox="0 0 109 109"><g id="kvg:StrokePaths_080a1" style="fill:none;stroke:#000000;stroke-width:3;stroke-linecap:round;stroke-linejoin:round;"><g id="kvg:080a1" kvg:element="股"><g id="kvg:080a1-g1" kvg:element="月" kvg:variant="true" kvg:original="肉" kvg:position="left" kvg:radical="general"><path id="kvg:080a1-s1" kvg:type="㇓" d="M20.22 18.74c.77.77.79 2.14.8 3.05C21.38 62 20.62 75 11.5 89.39"/><path id="kvg:080a1-s2" kvg:type="㇆a" d="M22.07 19.81c3.77-1.1 9.16-2.22 12.2-2.86 3.38-.71 5.27.34 5.27 3.92.0 7.56-.02 45.68-.02 63.19.0 12.61-6.16 3.55-7.95 2.04"/><path id="kvg:080a1-s3" kvg:type="㇐a" d="M22.07 38.45c5.55-.7 11.05-1.33 16.83-2.07"/><path id="kvg:080a1-s4" kvg:type="㇐a" d="M21.76 56.4c4.49-.4 11.64-1.53 16.79-1.95"/></g><g id="kvg:080a1-g2" kvg:element="殳" kvg:position="right"><g id="kvg:080a1-g3" kvg:element="几" kvg:position="top"><g id="kvg:080a1-g4" kvg:element="丿"><path id="kvg:080a1-s5" kvg:type="㇒" d="M54.92 17.35c.68.68 1 1.82.95 2.84-.5 11.94-1.75 21.06-8.09 27.17"/></g><path id="kvg:080a1-s6" kvg:type="㇈b" d="M56.85 19.53C63.12 18.5 68 17.5 72.75 16.39c2.74-.64 4.08.56 3.33 3.62-1.2 4.87-1.71 10.75-1.71 14.37.0 7.01 1.19 8.64 9.03 8.64 7.6.0 8.53-1.01 8.53-9.36"/></g><g id="kvg:080a1-g5" kvg:element="又" kvg:position="bottom"><path id="kvg:080a1-s7" kvg:type="㇇" d="M52.75 55.69c1.53.37 3.47.42 6.54-.13 2.35-.42 14-3.33 17.75-4.28 3.64-.92 5.11 1.99 3.32 4.95C70.88 71.88 61.62 84.25 44 93.17"/><path id="kvg:080a1-s8" kvg:type="㇏" d="M51.98 62.15c5.52 1.35 18.39 14.6 31.63 24.99 3.43 2.7 6.54 5.14 10.67 6.54"/></g></g></g></g></svg>