<svg xmlns="http://www.w3.org/2000/svg" width="109" height="109" viewBox="0 0 109 109"><g id="kvg:StrokePaths_080ba" style="fill:none;stroke:#000000;stroke-width:3;stroke-linecap:round;stroke-linejoin:round;"><g id="kvg:080ba" kvg:element="肺"><g id="kvg:080ba-g1" kvg:element="月" kvg:variant="true" kvg:original="肉" kvg:position="left" kvg:radical="general"><path id="kvg:080ba-s1" kvg:type="㇓" d="M19.57 17.76c.52.96.77 2.14.78 3.09C20.75 57 19.5 74.38 11 90.87"/><path id="kvg:080ba-s2" kvg:type="㇆a" d="M21.38 19.84c4.87-.84 12.43-2.37 13.97-2.5 2.75-.23 3.44 1.32 3.44 2.7.0 3.27-.02 46.09-.02 64.67.0 11.37-5.8 3.6-7.56 2.07"/><path id="kvg:080ba-s3" kvg:type="㇐a" d="M21.38 40.01c5.49-.88 10.37-1.63 16.77-1.85"/><path id="kvg:080ba-s4" kvg:type="㇐a" d="M20.83 57.45c5.05-.57 12.18-1.04 17.23-1.47"/></g><g id="kvg:080ba-g2" kvg:element="市" kvg:position="right" kvg:phon="朮V/市"><g id="kvg:080ba-g3" kvg:element="亠" kvg:position="top"><path id="kvg:080ba-s5" kvg:type="㇑a" d="M69.38 12.75c1.12 1.12 1.52 2.5 1.52 4.16.0 3.34-.1 6.09-.1 8.4"/><path id="kvg:080ba-s6" kvg:type="㇐" d="M46 28.61c2.64.28 5.26.19 7.88-.08 9.31-.97 27.06-2.87 37-3.44 2.18-.12 4.75-.21 6.63.32"/></g><g id="kvg:080ba-g4" kvg:element="巾" kvg:position="bottom"><path id="kvg:080ba-s7" kvg:type="㇑" d="M51.15 46.5c.99.99 1.34 2.5 1.34 4.11.0.58.0 12.57-.08 20.4-.03 2.49-.05 4.57-.08 5.71"/><path id="kvg:080ba-s8" kvg:type="㇆a" d="M52.43 48.96c3.01-.27 31.68-3.47 33.93-3.59 2.39-.13 4.12 1.35 4.12 3.09.0 8.29.02 17.04-.61 23.17-.77 7.45-3.12 4.11-5.9 1.52"/><path id="kvg:080ba-s9" kvg:type="㇑" d="M69.34 32.63c.95.95 1.34 2.37 1.34 3.86.0 3.42-.05 41.08-.06 55.13.0 2.43.0 4.16.0 4.88"/></g></g></g></g></svg>