<svg xmlns="http://www.w3.org/2000/svg" width="109" height="109" viewBox="0 0 109 109"><g id="kvg:StrokePaths_080ce" style="fill:none;stroke:#000000;stroke-width:3;stroke-linecap:round;stroke-linejoin:round;"><g id="kvg:080ce" kvg:element="胎"><g id="kvg:080ce-g1" kvg:element="月" kvg:variant="true" kvg:original="肉" kvg:position="left" kvg:radical="general"><path id="kvg:080ce-s1" kvg:type="㇓" d="M22.07 20.76c.9.9 1.28 2.14 1.28 3.09.0 34.6-1.35 53.65-10.1 68.53"/><path id="kvg:080ce-s2" kvg:type="㇆a" d="M24.38 22.09c4.33-.97 10.77-2.28 13.24-2.65 3.23-.49 4.17 1.04 4.17 3.94.0 7.98-.01 45.13-.01 62.34.0 11.37-5.8 3.6-7.56 2.07"/><path id="kvg:080ce-s3" kvg:type="㇐a" d="M24.38 41.01c4.53-.36 11.12-1.26 16.02-1.6"/><path id="kvg:080ce-s4" kvg:type="㇐a" d="M23.58 58.45C28.5 58 35.5 57.41 40.56 56.98"/></g><g id="kvg:080ce-g2" kvg:element="台" kvg:position="right" kvg:phon="台"><g id="kvg:080ce-g3" kvg:element="厶" kvg:position="top"><path id="kvg:080ce-s5" kvg:type="㇜" d="M71.8 15.75c.45 1.62.41 2.93-.52 4.81C66 31.25 61.5 38.75 54.91 49.51c-2.44 3.99-2.06 4.29 1.29 3.47 11.05-2.72 20.3-4.72 33.36-8.04"/><path id="kvg:080ce-s6" kvg:type="㇔" d="M81.77 34.13c4.71 3.37 12.18 13.86 13.36 19.1"/></g><g id="kvg:080ce-g4" kvg:element="口" kvg:position="bottom"><path id="kvg:080ce-s7" kvg:type="㇑" d="M55.41 66.59c.84.89 1.32 1.95 1.43 3.17 1.06 4.56 2.21 12.47 3.06 19.51.19 1.58.37 3.09.52 4.49"/><path id="kvg:080ce-s8" kvg:type="㇕b" d="M57.3 67.81c13.12-1.54 22.96-2.37 29.61-3.22 3.11-.4 5.78.58 4.9 4.21-1.54 6.36-2.38 11.63-3.86 19.54"/><path id="kvg:080ce-s9" kvg:type="㇐b" d="M61.51 91.85c7.53-.55 16.49-1.48 23.51-1.94 1.52-.1 3.1-.08 4.76-.08"/></g></g></g></g></svg>