<svg xmlns="http://www.w3.org/2000/svg" width="109" height="109" viewBox="0 0 109 109"><g id="kvg:StrokePaths_080c6" style="fill:none;stroke:#000000;stroke-width:3;stroke-linecap:round;stroke-linejoin:round;"><g id="kvg:080c6" kvg:element="胆"><g id="kvg:080c6-g1" kvg:element="月" kvg:variant="true" kvg:original="肉" kvg:position="left" kvg:radical="general"><path id="kvg:080c6-s1" kvg:type="㇓" d="M19.75 18.33c.77.78 1.13 1.99 1.14 2.98.36 34.44-1.02 54.94-9.39 72.02"/><path id="kvg:080c6-s2" kvg:type="㇆a" d="M21.78 19.53c3.77-.73 11.68-2.48 15.22-3.01 2.84-.42 3.78.99 3.78 3.72.0 8.62-.03 49.55-.03 67.88.0 9.44-2.5 3.62-6.01 1.17"/><path id="kvg:080c6-s3" kvg:type="㇐a" d="M22.03 39.83c6.13-.75 11.79-1.58 17.56-2.24"/><path id="kvg:080c6-s4" kvg:type="㇐a" d="M21.22 59.2c5.28-.45 12.89-1.36 18.49-1.81"/></g><g id="kvg:080c6-g2" kvg:element="旦" kvg:position="right" kvg:phon="旦"><g id="kvg:080c6-g3" kvg:element="日" kvg:position="top"><path id="kvg:080c6-s5" kvg:type="㇑" d="M56.45 19.53c.95.95 1.15 2.15 1.15 3.83.0 1.4.0 28.52.0 42.39.0 2.79.0 5 0 6.3"/><path id="kvg:080c6-s6" kvg:type="㇕a" d="M58.62 20.72c5.88-.85 17.88-2.6 23.03-3.23 2.76-.34 4.22.57 4.22 3.38.0 1.83.01 29.54.02 42.62.0 3.89.0 6.5.0 6.77"/><path id="kvg:080c6-s7" kvg:type="㇐a" d="M58.77 44.06c8.98-1.06 17.73-2.31 25.88-2.45"/><path id="kvg:080c6-s8" kvg:type="㇐a" d="M58.62 68.16c5.13-.41 17.75-1.78 25.84-2.31"/></g><g id="kvg:080c6-g4" kvg:element="一" kvg:position="bottom"><path id="kvg:080c6-s9" kvg:type="㇐" d="M47.25 86.03c3 .72 5.53.42 7.89.28 9.69-.58 26.45-2.2 36.49-2.55 2.29-.08 4.64.01 6.88.64"/></g></g></g></g></svg>