<svg xmlns="http://www.w3.org/2000/svg" width="109" height="109" viewBox="0 0 109 109"><g id="kvg:StrokePaths_080c4"><g id="kvg:080c4" kvg:element="胄"><g id="kvg:080c4-g1" kvg:element="由" kvg:position="top"><g id="kvg:080c4-g2" kvg:element="日" kvg:part="1" kvg:partial="true"><path id="kvg:080c4-s1" kvg:type="㇑" d="M25.58 19.92c.54.67 1.54 2.25 1.67 2.83 1.03 4.82 2.39 14.97 3 23.83"/><path id="kvg:080c4-s2" kvg:type="㇕a" d="M27.42 21.42c17.95-1.08 40.97-3.67 52.33-3.67 2.75.0 4.25 1.5 4 4.33-.38 4.31-2.05 14.84-4.67 21.83"/></g><g id="kvg:080c4-g3" kvg:element="丨"><path id="kvg:080c4-s3" kvg:type="㇑a" d="M52.45 8.36c1.05.89 1.45 2.73 1.45 3.39.04 6.55.23 28.48.23 30.19"/></g><g id="kvg:080c4-g4" kvg:element="日" kvg:part="2" kvg:partial="true"><path id="kvg:080c4-s4" kvg:type="㇐a" d="M29.42 32.08c4.86-.45 48.48-3.83 52.5-3.83"/><path id="kvg:080c4-s5" kvg:type="㇐a" d="M30.58 43.92c11.93-.64 30.98-2.88 48.17-3.17"/></g></g><g id="kvg:080c4-g5" kvg:element="月" kvg:variant="true" kvg:original="肉" kvg:position="bottom" kvg:radical="general"><path id="kvg:080c4-s6" kvg:type="㇑" d="M34.58 54.08c1.14.67 2 2.17 2 3.83.0 6.33.32 41.39.17 42.94"/><path id="kvg:080c4-s7" kvg:type="㇆a" d="M37.08 55.58c3.01-.21 31.58-2.5 33.83-2.5 2.33.0 3.73 1.42 3.73 3.8.0 2.46-.23 23.71-.23 36.87.0 10.54-5.16 2.3-6.17 1.5"/><path id="kvg:080c4-s8" kvg:type="㇐a" d="M36.92 67.75c10.32-1.14 27.93-2.04 37-2.67"/><path id="kvg:080c4-s9" kvg:type="㇐a" d="M36.75 79.75c7.91-.43 28.69-1.84 37.83-2.17"/></g></g></g></svg>