<svg xmlns="http://www.w3.org/2000/svg" width="109" height="109" viewBox="0 0 109 109"><g id="kvg:StrokePaths_080db" style="fill:none;stroke:#000000;stroke-width:3;stroke-linecap:round;stroke-linejoin:round;"><g id="kvg:080db" kvg:element="胛"><g id="kvg:080db-g1" kvg:element="月" kvg:variant="true" kvg:original="肉" kvg:position="left" kvg:radical="general"><path id="kvg:080db-s1" kvg:type="㇓" d="M19.22 19.99c.52.95.88 1.88 1.05 2.8s.15 25.9-.41 33.63c-.8 11-2.61 22.08-8.61 34.72"/><path id="kvg:080db-s2" kvg:type="㇆a" d="M20.82 21.06c2.1-.06 11.65-2.34 13.21-2.46 2.8-.23 3.5 1.31 3.5 2.67.0 3.23-.53 46.22-.53 64.55.0 10.69-4.41 3.05-6.2 1.54"/><path id="kvg:080db-s3" kvg:type="㇐a" d="M20.82 39.95c4.61-.35 12.03-2.04 16.08-2.07"/><path id="kvg:080db-s4" kvg:type="㇐a" d="M20.26 57.4c3.79-.08 11.64-1.28 16.79-1.7"/></g><g id="kvg:080db-g2" kvg:element="甲" kvg:position="right"><g id="kvg:080db-g3" kvg:element="日" kvg:partial="true"><path id="kvg:080db-s5" kvg:type="㇑" d="M48.2 20.56c.31.66 1.33 2.6 1.49 3.41 1.56 8.28 3.15 21.23 3.97 33.53"/><path id="kvg:080db-s6" kvg:type="㇕" d="M49.67 22c12.02-1.52 31.07-4.11 39.34-4.77 3.04-.24 4.86 1.17 4.75 3.94C93.52 27.76 91 51.25 89.8 55.3"/><path id="kvg:080db-s7" kvg:type="㇐" d="M52.15 37.2C59 36.25 83 34.25 92.29 34.05"/><path id="kvg:080db-s8" kvg:type="㇐" d="M53.74 53.88C65.75 53 78.96 51.46 90.4 50.83"/></g><g id="kvg:080db-g4" kvg:element="丨"><path id="kvg:080db-s9" kvg:type="㇑" d="M69.36 22.19c.89.56 1.44 2.03 1.44 3.81-.03 8.98.3 66.54.3 69.47"/></g></g></g></g></svg>