<svg xmlns="http://www.w3.org/2000/svg" width="109" height="109" viewBox="0 0 109 109"><g id="kvg:StrokePaths_08123"><g id="kvg:08123" kvg:element="脣"><g id="kvg:08123-g1" kvg:element="辰" kvg:position="top" kvg:radical="nelson"><g id="kvg:08123-g2" kvg:element="厂"><path id="kvg:08123-s1" kvg:type="㇐" d="M26.75 14.92c1.37.41 4.13 1.09 5.5 1 11.11-.77 35.57-2.98 41.5-3.33 2.28-.13 5.69.29 6.83.5"/><path id="kvg:08123-s2" kvg:type="㇒" d="M29.3 16.92c.05 1.57-.09 4.04-.09 6.29.0 14.5-3.58 36.39-15.45 50.68"/></g><path id="kvg:08123-s3" kvg:type="㇐" d="M40.08 23.58c.85.34 3.03.8 3.88.71 5.43-.58 20.21-1.84 25.62-2.38 1.41-.14 3.62-.34 4.33-.17"/><path id="kvg:08123-s4" kvg:type="㇐" d="M32.58 32.42c.77.27 4.39.83 5.17.83 6.25.0 34.68-3.42 40-3.5 1.29-.02 5.19.03 5.83.17"/><path id="kvg:08123-s5" kvg:type="㇙" d="M40.25 32.92c1.17.91.42.74.42 2.04.0 6.15-.26 14.58-.26 15.63.0 1.04.87 2.11 2.5 1.33S53 46.67 55.17 45.88"/><path id="kvg:08123-s6" kvg:type="㇒" d="M75.78 34.54c.02.16.05.41-.05.64-.56 1.34-3.76 4.29-8.14 6.1"/><path id="kvg:08123-s7" kvg:type="㇏" d="M51 32.23c6.55 1.57 25.13 17.19 30.25 20.19 1.74 1.01 3.5.44 5.24.73"/></g><g id="kvg:08123-g3" kvg:element="月" kvg:original="肉" kvg:position="bottom" kvg:radical="tradit"><path id="kvg:08123-s8" kvg:type="㇑" d="M38.25 58.92c.67.52 1.84 2.08 1.84 3.79.0.58.25 34.01.16 35.21"/><path id="kvg:08123-s9" kvg:type="㇆a" d="M40.1 60.67c6.65-.42 28.31-2.79 30.29-2.97 3.54-.32 4.44.56 4.44 3 0 2.04-.07 20.37-.07 31.32.0 10.74-6.61 2.4-7.49 1.74"/><path id="kvg:08123-s10" kvg:type="㇐a" d="M41.46 71.39c9.07-.93 23.88-2.33 31.84-2.84"/><path id="kvg:08123-s11" kvg:type="㇐a" d="M42.16 81.46c7.12-.55 23.36-2.29 31.59-2.71"/></g></g></g></svg>