<svg xmlns="http://www.w3.org/2000/svg" width="109" height="109" viewBox="0 0 109 109"><g id="kvg:StrokePaths_08129" style="fill:none;stroke:#000000;stroke-width:3;stroke-linecap:round;stroke-linejoin:round;"><g id="kvg:08129" kvg:element="脩"><g id="kvg:08129-g1" kvg:element="攸" kvg:part="1" kvg:variant="true" kvg:position="left"><g id="kvg:08129-g2" kvg:element="亻" kvg:variant="true" kvg:original="人" kvg:position="left" kvg:radical="nelson"><path id="kvg:08129-s1" kvg:type="㇒" d="M32.25 15c.24 2.17-.32 4.26-1.1 6.12C26.19 32.98 19.89 44.61 8.5 59.04"/><path id="kvg:08129-s2" kvg:type="㇑" d="M23.78 42.5c1.17 1.17 1.5 2 1.5 3.98.0 9.87-.02 28.41-.03 39.77.0 3.03.0 5.54.0 7.25"/></g><g id="kvg:08129-g3" kvg:element="丨" kvg:position="right"><path id="kvg:08129-s3" kvg:type="㇑" d="M36.52 30.33c1.2 1.2 1.51 2.67 1.51 5.02.0 10.82-.01 27.5-.02 37.52.0 3.46.0 6.1.0 7.38"/></g></g><g id="kvg:08129-g4" kvg:position="right"><g id="kvg:08129-g5" kvg:element="攸" kvg:part="1" kvg:variant="true" kvg:position="top"><g id="kvg:08129-g6" kvg:element="攵" kvg:variant="true" kvg:original="攴"><g id="kvg:08129-g7" kvg:element="𠂉" kvg:position="top"><path id="kvg:08129-s4" kvg:type="㇒" d="M60.1 12.39c.12 1.38-.09 2.43-.78 3.7-2.42 4.51-7.01 12-13.32 17.07"/><path id="kvg:08129-s5" kvg:type="㇐" d="M58.22 24.12c1.91.25 3.41.13 5.67-.07 5.78-.5 12.73-1.43 21.37-2.69 2.01-.29 3.89-.32 5.88.03"/></g><g id="kvg:08129-g8" kvg:element="乂" kvg:position="bottom"><g id="kvg:08129-g9" kvg:element="丿"><path id="kvg:08129-s6" kvg:type="㇒" d="M78.54 25.38c0 1.25-.63 2.27-1.47 3.27C69.75 37.38 62.25 44 45.12 51.25"/></g><path id="kvg:08129-s7" kvg:type="㇏" d="M54 29.45c3.46 1.45 17.65 10.35 30.73 17.09 2.04 1.05 6.02 2.83 9.52 3.91"/></g></g><g id="kvg:08129-g10" kvg:element="月" kvg:original="肉" kvg:position="bottom" kvg:radical="tradit"><path id="kvg:08129-s8" kvg:type="㇑" d="M52.85 54.03c.87.87 1.13 1.85 1.13 3.19.0.47-.04 21.88-.06 33.28.0 3.09-.01 5.44-.01 6.44"/><path id="kvg:08129-s9" kvg:type="㇆a" d="M54.87 55.66c2.26-.14 23.01-2.43 24.7-2.43 2.06.0 3.52 1.15 3.52 3.43.0 2.34-.07 23.01-.07 34.42.0 9.17-4.64 2.67-6.41.77"/><path id="kvg:08129-s10" kvg:type="㇐a" d="M55.12 67.01c7.73-.85 20.36-1.86 27.15-2.29"/><path id="kvg:08129-s11" kvg:type="㇐a" d="M55.18 78.14c7.69-.89 19.73-1.94 26.71-2.22"/></g></g></g></g></g></svg>