<svg xmlns="http://www.w3.org/2000/svg" width="109" height="109" viewBox="0 0 109 109"><g id="kvg:StrokePaths_0813e"><g id="kvg:0813e" kvg:element="脾"><g id="kvg:0813e-g1" kvg:element="月" kvg:variant="true" kvg:original="肉" kvg:position="left" kvg:radical="general"><path id="kvg:0813e-s1" kvg:type="㇓" d="M17.92 18.25c.49.97 1.5 1.75 1.5 3.33.0.95.0 25.21-.52 33.1-.74 11.23-1.5 22.55-8.48 35.45"/><path id="kvg:0813e-s2" kvg:type="㇆a" d="M20.32 20.83c1.9-.06 10.97-2.28 12.39-2.4 2.53-.22 3.16 1.27 3.16 2.6.0 3.15-.29 44.18-.29 62.05.0 12.29-4.55 6.14-6.17 4.67"/><path id="kvg:0813e-s3" kvg:type="㇐a" d="M19.82 40.1c3.8-.32 12.24-1.83 15.58-1.85"/><path id="kvg:0813e-s4" kvg:type="㇐a" d="M19.25 57.58c3.34-.08 11.46-.92 16-1.33"/></g><g id="kvg:0813e-g2" kvg:element="卑" kvg:variant="true" kvg:position="right"><g id="kvg:0813e-g3" kvg:position="top"><g id="kvg:0813e-g4" kvg:element="丿"><path id="kvg:0813e-s5" kvg:type="㇒" d="M66.53 11.23c.03.26.05.68-.04 1.06-.57 2.23-3.81 7.11-8.26 10.1"/></g><g id="kvg:0813e-g5" kvg:element="日" kvg:variant="true"><path id="kvg:0813e-s6" kvg:type="㇑" d="M46.92 24.08c.4.42 1.84 1.94 1.95 2.5 1.13 5.91 2.94 14.83 4.05 23"/><path id="kvg:0813e-s7" kvg:type="㇕" d="M49.08 25.75c9.99-1.12 28.38-3.39 35.83-4.33 2.74-.35 5.24.92 4.84 3.25-1 5.83-1.75 15.08-4 22.91"/><path id="kvg:0813e-s8" kvg:type="㇐" d="M51.04 36.65c4.96-.4 34.37-2.86 37.07-3"/><path id="kvg:0813e-s9" kvg:type="㇐" d="M53.8 48.05c7.22-.48 22.28-2 32.25-2.79"/></g></g><g id="kvg:0813e-g6" kvg:position="bottom"><g id="kvg:0813e-g7" kvg:element="丿"><path id="kvg:0813e-s10" kvg:type="㇒" d="M67.69 25.68c.56.93.52 2.31.37 3.56-1.47 12.46-7.81 28.02-17.3 34.52"/></g><g id="kvg:0813e-g8" kvg:element="十"><path id="kvg:0813e-s11" kvg:type="㇐" d="M44.42 68.08c.66.25 3.92.4 5.67.17 13.17-1.75 29.43-3.26 40.67-3.5 1.76-.04 4.57.08 5.67.33"/><path id="kvg:0813e-s12" kvg:type="㇑" d="M72.58 49.75c.95.47 1.71 2 1.71 3.81.0.96.31 36.31.12 42.19"/></g></g></g></g></g></svg>