<svg xmlns="http://www.w3.org/2000/svg" width="109" height="109" viewBox="0 0 109 109"><g id="kvg:StrokePaths_0814b"><g id="kvg:0814b" kvg:element="腋"><g id="kvg:0814b-g1" kvg:element="月" kvg:variant="true" kvg:original="肉" kvg:position="left" kvg:radical="general"><path id="kvg:0814b-s1" kvg:type="㇓" d="M16.42 18.92c.83.83 1.53 2.42 1.53 3.35.0 6.74.14 25.66-.36 33.32-.7 10.89-1.42 21.87-8.01 34.39"/><path id="kvg:0814b-s2" kvg:type="㇆a" d="M17.58 21.08c1.82-.06 11.81-1.71 13.17-1.83 2.42-.23 3.45 1.63 3.45 2.98.0 3.19.05 46.09.05 64.17.0 12.44-4.62 3.84-6.17 2.35"/><path id="kvg:0814b-s3" kvg:type="㇐a" d="M18.32 40.42c3.89-.31 12-1.8 15.42-1.83"/><path id="kvg:0814b-s4" kvg:type="㇐a" d="M18.26 57.4c3.27-.08 11.02-1.28 15.45-1.7"/></g><g id="kvg:0814b-g2" kvg:element="夜" kvg:position="right"><g id="kvg:0814b-g3" kvg:element="亠" kvg:position="top"><path id="kvg:0814b-s5" kvg:type="㇑a" d="M64.58 13.25c.73.57 2.17 2 2.17 4.17.0 4.16-.23 5.72-.23 9.28"/><path id="kvg:0814b-s6" kvg:type="㇐" d="M43.25 28.92c1.75.58 4.37.3 5.33.17 7.81-1.09 29.06-3.38 39.67-3.67 1.64-.04 3.61.05 4.83.67"/></g><g id="kvg:0814b-g4" kvg:position="bottom"><g id="kvg:0814b-g5" kvg:element="亻" kvg:variant="true" kvg:original="人"><path id="kvg:0814b-s7" kvg:type="㇒" d="M57.62 33.07c.18 1.31-.05 3.03-.61 4.16-3.6 7.17-8.17 15.18-16.42 23.91"/><path id="kvg:0814b-s8" kvg:type="㇑" d="M49.25 53.17c1 1.08 1.79 2.99 1.79 3.93.0 6.12-.13 27.05-.13 35.81"/></g><g id="kvg:0814b-g6" kvg:element="夕"><path id="kvg:0814b-s9" kvg:type="㇒" d="M76.06 32.04c.26.54.38 2.16.02 3.2C73.75 42 66.5 53 55.54 63.6"/><path id="kvg:0814b-s10" kvg:type="㇇" d="M75.92 42.25c.3.04 1.75.61 2.58.41 2.75-.66 5-1.66 9.42-2.5 2.79-.53 3.68 1.4 2.84 3.4C84 59.75 74 77 57.34 85.64"/><path id="kvg:0814b-s11" kvg:type="㇔" d="M71.5 50.05c2.57 1.6 7.11 7.04 7.75 9.54"/></g><path id="kvg:0814b-s12" kvg:type="㇏" d="M63.55 57.56C70 64.75 80.5 80 91.5 87.78c1.66 1.18 2.81 2.18 4.33 2.62"/></g></g></g></g></svg>