<svg xmlns="http://www.w3.org/2000/svg" width="109" height="109" viewBox="0 0 109 109"><g id="kvg:StrokePaths_08150" style="fill:none;stroke:#000000;stroke-width:3;stroke-linecap:round;stroke-linejoin:round;"><g id="kvg:08150" kvg:element="腐"><g id="kvg:08150-g1" kvg:element="府" kvg:position="tare" kvg:phon="府"><g id="kvg:08150-g2" kvg:element="广" kvg:position="tare" kvg:radical="nelson"><path id="kvg:08150-s1" kvg:type="㇑a" d="M54.18 8.5c1.09 1.09 1.25 2.25 1.25 3.44.0.63-.05 2.24-.05 4.56"/><g id="kvg:08150-g3" kvg:element="厂"><path id="kvg:08150-s2" kvg:type="㇐" d="M22.74 19.43c2.82 1.02 5.99.82 8.88.52 15.25-1.57 33.25-3.7 48.62-4.43 2.9-.14 5.77.06 8.63.68"/><path id="kvg:08150-s3" kvg:type="㇒" d="M26.09 20.84c1.1 1.1 1.23 2.47 1.16 4.7-.5 16.46-2.5 43.96-15.19 61.81"/></g></g><g id="kvg:08150-g4" kvg:element="付"><g id="kvg:08150-g5" kvg:element="亻" kvg:variant="true" kvg:original="人" kvg:position="left"><path id="kvg:08150-s4" kvg:type="㇒" d="M45.45 25.38c.16.98-.1 2.22-.56 3.09-2.88 5.4-7.51 12.04-15.02 18.53"/><path id="kvg:08150-s5" kvg:type="㇑" d="M41.35 39.78c.4.72.75 1.82.75 3.19.0 3.1.08 7.35.02 13.77-.01 1.4-.02 2.91-.02 4.53"/></g><g id="kvg:08150-g6" kvg:element="寸" kvg:position="right"><path id="kvg:08150-s6" kvg:type="㇐" d="M52.45 34.5c2.42.38 4.86.18 6.92-.12 6.61-.98 16.45-2.56 26.02-3.21 1.89-.13 3.88-.34 5.74.16"/><path id="kvg:08150-s7" kvg:type="㇚" d="M76.96 21.97c.91.91 1.18 1.93 1.18 3.84.0 7.06.06 23.19.06 27.62.0 6.04-4.32 1.41-5.95.41"/><path id="kvg:08150-s8" kvg:type="㇔" d="M60.18 40.77c2.03 1.25 5.25 5.15 5.76 7.1"/></g></g></g><g id="kvg:08150-g7" kvg:element="肉" kvg:position="tarec" kvg:radical="tradit"><path id="kvg:08150-s9" kvg:type="㇑" d="M33 66.89c.93.93 1.14 2.36 1.14 3.87.0 4.3.03 14.94.0 22.74-.01 3.06-.02 5.57-.02 6.88"/><path id="kvg:08150-s10" kvg:type="㇆a" d="M35.74 68.54c7.01-.67 41.86-3.85 43.02-3.85 2.23.0 3.78 1.81 3.78 4.05.0 1.01-.04 23.63-.04 27.63.0 5.12-3.69 1.06-5.78-1.03"/><path id="kvg:08150-s11" kvg:type="㇒" d="M56.79 56.86c.33.89.25 1.89.06 2.64C55.12 66.25 51.5 76 43.07 80.96"/><path id="kvg:08150-s12" kvg:type="㇔" d="M56.12 70.75c4.86 1.56 12.57 6.41 13.78 8.83"/><path id="kvg:08150-s13" kvg:type="㇒" d="M56.76 77.81c.12 1.07-.27 1.96-.68 2.69-2.14 3.79-5.97 8.31-12.7 13.45"/><path id="kvg:08150-s14" kvg:type="㇔" d="M57.12 85.25c3.76 1.52 9.72 6.25 10.66 8.61"/></g></g></g></svg>