<svg xmlns="http://www.w3.org/2000/svg" width="109" height="109" viewBox="0 0 109 109"><g id="kvg:StrokePaths_0816e" style="fill:none;stroke:#000000;stroke-width:3;stroke-linecap:round;stroke-linejoin:round;"><g id="kvg:0816e" kvg:element="腮"><g id="kvg:0816e-g1" kvg:element="月" kvg:variant="true" kvg:original="肉" kvg:position="left" kvg:radical="general"><path id="kvg:0816e-s1" kvg:type="㇓" d="M16.92 19.08c.61.95 1.43 1.92 1.43 4.04.0.94.18 22.41-.47 30.13-.93 11 .28 21.33-7.88 37.72"/><path id="kvg:0816e-s2" kvg:type="㇆a" d="M18.45 20.36c2.14-.06 12.35-1.8 13.94-1.93 2.85-.23 3.56 1.79 3.56 3.13.0 3.18-.04 44.09-.04 62.17.0 12.44-4.01 5.67-5.83 4.18"/><path id="kvg:0816e-s3" kvg:type="㇐a" d="M18.95 40.29c4.51-.35 12.74-1.54 16.7-1.57"/><path id="kvg:0816e-s4" kvg:type="㇐a" d="M18.56 59.52c3.57-.11 11.87-1.04 16.72-1.6"/></g><g id="kvg:0816e-g2" kvg:element="思" kvg:position="right"><g id="kvg:0816e-g3" kvg:element="田" kvg:position="top"><path id="kvg:0816e-s5" kvg:type="㇑" d="M47.75 17.92c.25.54 1.36 2.5 1.5 3.17 1.12 5.51 2.73 24.26 3.39 34.42"/><path id="kvg:0816e-s6" kvg:type="㇕a" d="M49.75 19.75c8-.75 29.34-2.96 37-3.5 2.81-.2 3.99 2.18 3.83 3.67-.56 5.44-1.38 23.2-3.83 33.33"/><path id="kvg:0816e-s7" kvg:type="㇑a" d="M67.58 20.25c1.17 1 1.6 2.57 1.59 3.92-.06 7.41.07 24.21.07 26.41"/><path id="kvg:0816e-s8" kvg:type="㇐a" d="M52.15 35.26c3.43-.17 34.27-2.67 37.1-2.67"/><path id="kvg:0816e-s9" kvg:type="㇐a" d="M54.98 52.66c8.13-.74 24.42-1.6 31.82-1.82"/></g><g id="kvg:0816e-g4" kvg:element="心" kvg:position="bottom"><path id="kvg:0816e-s10" kvg:type="㇔" d="M48.76 73.21c.41 2.5-4.11 14.05-7.35 18.21"/><path id="kvg:0816e-s11" kvg:type="㇃" d="M54.94 66.84C60.06 81.45 68.5 92 86.75 93.58c6.18.54 7.11-2 3.5-7"/><path id="kvg:0816e-s12" kvg:type="㇔a" d="M70.58 67.25c1.36 3.21 5.15 7.39 6 2.85"/><path id="kvg:0816e-s13" kvg:type="㇔" d="M85.83 63.92c5.4 3.18 9.81 6.03 13.08 10.97"/></g></g></g></g></svg>