<svg xmlns="http://www.w3.org/2000/svg" width="109" height="109" viewBox="0 0 109 109"><g id="kvg:StrokePaths_08165"><g id="kvg:08165" kvg:element="腥"><g id="kvg:08165-g1" kvg:element="月" kvg:variant="true" kvg:original="肉" kvg:position="left" kvg:radical="general"><path id="kvg:08165-s1" kvg:type="㇓" d="M17.42 20.08c.83.92 1.67 2.54 1.67 3.5.0 4.17.5 23.35-.04 31.27-.77 11.28-1.56 24.65-8.8 37.62"/><path id="kvg:08165-s2" kvg:type="㇆a" d="M19.42 21.08c3.83-1.08 11.97-2.36 13.45-2.49 2.67-.23 3.33 1.29 3.33 2.64.0 3.19-.5 45.19-.5 63.32.0 12.47-5.08 4.69-6.79 3.2"/><path id="kvg:08165-s3" kvg:type="㇐a" d="M19.82 39.5c4.11-.28 12.14-1.63 15.75-1.65"/><path id="kvg:08165-s4" kvg:type="㇐a" d="M18.93 57.09c3.27-.07 12.02-1.18 16.45-1.58"/></g><g id="kvg:08165-g2" kvg:element="星" kvg:position="right"><g id="kvg:08165-g3" kvg:element="日" kvg:position="top"><path id="kvg:08165-s5" kvg:type="㇑" d="M47.75 17.08c.6.55 1.85 2.04 1.95 2.82.3 2.35 3.65 21.41 3.88 22.18"/><path id="kvg:08165-s6" kvg:type="㇕a" d="M49.79 18.43c3.49-.28 29.94-3.56 33.12-3.84 2.65-.24 4.66.91 3.94 4.44-1.31 6.41-2.08 13.57-3.61 20.89"/><path id="kvg:08165-s7" kvg:type="㇐a" d="M52.74 28.62c4.32-.29 26.77-2.5 31.66-2.83"/><path id="kvg:08165-s8" kvg:type="㇐a" d="M53.81 40.8c6.79-.37 20.33-2.24 29.11-2.72"/></g><g id="kvg:08165-g4" kvg:element="生" kvg:position="bottom"><path id="kvg:08165-s9" kvg:type="㇒" d="M53.92 47.92c.03.48.03 1.32-.1 2-.72 4.03-5.41 13.09-11.07 18.5"/><path id="kvg:08165-s10" kvg:type="㇐" d="M54.42 58.08c.66.31 4.34.4 5 .33 4.76-.44 20.83-2.42 26-3.17 1.57-.23 3.75.45 4.33.5"/><path id="kvg:08165-s11" kvg:type="㇑a" d="M67.42 43.58c.69.51 1.99 1.67 1.99 4.14.0 1.02-.09 35.19-.23 41.55"/><path id="kvg:08165-s12" kvg:type="㇐" d="M52.75 72.58c.71.48 3.45.9 4.17.83 7.58-.67 21.89-2.44 26.33-3.17 1.19-.19 4.2.26 4.83.33"/><path id="kvg:08165-s13" kvg:type="㇐" d="M44.58 90.58c1.08.43 3.78.43 4.86.34 7.8-.62 31.3-2.42 40.97-2.5 1.8-.02 3.58.08 5.67 1"/></g></g></g></g></svg>