<svg xmlns="http://www.w3.org/2000/svg" width="109" height="109" viewBox="0 0 109 109"><g id="kvg:StrokePaths_08178" style="fill:none;stroke:#000000;stroke-width:3;stroke-linecap:round;stroke-linejoin:round;"><g id="kvg:08178" kvg:element="腸"><g id="kvg:08178-g1" kvg:element="月" kvg:variant="true" kvg:original="肉" kvg:position="left" kvg:radical="general"><path id="kvg:08178-s1" kvg:type="㇓" d="M20 18.75c1 1 1.46 2.22 1.5 3.25 1.12 32.62-2 58.88-11 70"/><path id="kvg:08178-s2" kvg:type="㇆a" d="M22.25 20c4.25-.88 10.27-2.72 12.5-3 4-.5 4.5 1.67 4.5 3.25C39.25 27 39 65.5 39 85.75 39 96.5 34.75 91 32 88"/><path id="kvg:08178-s3" kvg:type="㇐a" d="M22.75 39.25c4.5-.5 9-1.25 15.25-2"/><path id="kvg:08178-s4" kvg:type="㇐a" d="M21.75 58.25c5.25-.5 9.62-1.25 16-1.75"/></g><g id="kvg:08178-g2" kvg:element="昜" kvg:position="right" kvg:phon="昜"><g id="kvg:08178-g3" kvg:element="旦" kvg:position="top"><g id="kvg:08178-g4" kvg:element="日"><path id="kvg:08178-s5" kvg:type="㇑" d="M53.36 15.8c.73.73 1.32 1.57 1.51 2.78.88 5.73 1.58 11.71 2.52 20.17.13 1.2.27 2.44.42 3.75"/><path id="kvg:08178-s6" kvg:type="㇕a" d="M55.24 16.56c4.53-.76 16.84-2.63 23.64-3.4 3.59-.41 4.67.68 4.33 4.23-.55 5.89-1.31 13.17-2.28 18.67-.25 1.41-.51 2.7-.78 3.82"/><path id="kvg:08178-s7" kvg:type="㇐a" d="M57.22 28.05c4.28-.67 20.16-2.67 24.16-2.74"/><path id="kvg:08178-s8" kvg:type="㇐a" d="M58.77 39.83c3.95-.62 15.77-1.67 20.68-2.19"/></g><g id="kvg:08178-g5" kvg:element="一"><path id="kvg:08178-s9" kvg:type="㇐" d="M46.53 51.65c1.84.33 5.24.29 7.07.08C66.87 50.25 78.62 49 90.61 48c3.06-.25 4.92-.09 6.46.08"/></g></g><g id="kvg:08178-g6" kvg:element="勿" kvg:position="bottom"><g id="kvg:08178-g7" kvg:element="勹"><path id="kvg:08178-s10" kvg:type="㇒" d="M59.13 54.79c.05.52-.22 1.15-.6 1.82-2.41 4.27-6.7 9.68-13.6 15.22"/><path id="kvg:08178-s11" kvg:type="㇆" d="M58.04 63.55c.83.46 2.22.4 3.59.3 3.24-.23 25.15-2.9 28.49-3.05 3.34-.15 3.99 1.52 3.51 4.73-.76 5.09-5.33 20.85-12.33 29.83-2.93 3.76-4.93 1.38-7.18-1.59"/></g><path id="kvg:08178-s12" kvg:type="㇒" d="M63.67 66.58c.07.4-.06 1.28-.38 1.84-2.53 4.43-8.38 10.01-17.16 14.46"/><path id="kvg:08178-s13" kvg:type="㇒" d="M78.66 65.13c.1.87.13 1.81-.47 2.99-3.7 7.26-11.82 19.26-27.81 27.9"/></g></g></g></g></svg>