<svg xmlns="http://www.w3.org/2000/svg" width="109" height="109" viewBox="0 0 109 109"><g id="kvg:StrokePaths_0817a" style="fill:none;stroke:#000000;stroke-width:3;stroke-linecap:round;stroke-linejoin:round;"><g id="kvg:0817a" kvg:element="腺"><g id="kvg:0817a-g1" kvg:element="月" kvg:variant="true" kvg:original="肉" kvg:position="left" kvg:radical="general"><path id="kvg:0817a-s1" kvg:type="㇓" d="M16.96 18.99c.84.84.96 2.01.96 3.05C17.88 58.75 17.38 79 9.25 91.89"/><path id="kvg:0817a-s2" kvg:type="㇆a" d="M18.62 19.81c3.53-.69 9.45-1.72 12-2.09 3.1-.45 4.18 1.08 4.16 3.9-.05 7.71-.22 47.78-.22 64.94.0 12.61-5.63 3.55-7.25 2.04"/><path id="kvg:0817a-s3" kvg:type="㇐a" d="M18.62 38.95c4.19-.35 10.76-1.45 15.05-1.82"/><path id="kvg:0817a-s4" kvg:type="㇐a" d="M18.07 58.15c3.45-.08 10.84-1.28 15.53-1.7"/></g><g id="kvg:0817a-g2" kvg:element="泉" kvg:position="right"><g id="kvg:0817a-g3" kvg:element="白" kvg:position="top"><g id="kvg:0817a-g4" kvg:position="top"><path id="kvg:0817a-s5" kvg:type="㇔" d="M66.23 12c0 1.12-.3 1.96-.81 2.75-1.92 3-2.85 4.42-5.92 8.12"/></g><g id="kvg:0817a-g5" kvg:element="日" kvg:position="bottom"><path id="kvg:0817a-s6" kvg:type="㇑" d="M47.84 25.22c.97.97 1.13 2.1 1.46 3.39.94 3.74 2.36 10.51 3.27 15.63.37 2.08.66 3.88.81 5.1"/><path id="kvg:0817a-s7" kvg:type="㇕a" d="M49.28 25.77c3.78-.48 27.59-3.27 33.46-3.86 3.7-.37 4.82 1.26 4.24 4.71-.47 2.8-1.49 8.92-2.77 15.25-.36 1.78-.74 3.58-1.14 5.32"/><path id="kvg:0817a-s8" kvg:type="㇐a" d="M52.14 36.24c9.73-.99 24.11-2.36 32.94-2.92"/><path id="kvg:0817a-s9" kvg:type="㇐a" d="M54.19 47.41c9.47-1 19.84-1.9 27.95-2.31"/></g></g><g id="kvg:0817a-g6" kvg:element="水" kvg:position="bottom"><path id="kvg:0817a-s10" kvg:type="㇚" d="M66.65 51.42c1.09 1.09 1.27 2.7 1.27 4.38.0 12.21-.04 31.05-.04 35.2.0 6.5-3.62 4-7.2-.29"/><path id="kvg:0817a-s11" kvg:type="㇇" d="M43 64.39c1.18.18 2.54.38 3.75.11 2.25-.5 8.2-2.33 10.17-3.05s3.62 1.07 2.96 2.67c-2.66 6.49-7.13 17.63-18.38 25.38"/><path id="kvg:0817a-s12" kvg:type="㇒" d="M89.5 53.75c0 1-.36 1.89-.86 2.59C85.12 61.25 82.2 64.1 77 68"/><path id="kvg:0817a-s13" kvg:type="㇏" d="M69.62 64c5.75 7.75 11.88 15 17.74 20.39 2.54 2.34 4.01 3.86 7.69 5.44"/></g></g></g></g></svg>