<svg xmlns="http://www.w3.org/2000/svg" width="109" height="109" viewBox="0 0 109 109"><g id="kvg:StrokePaths_08179" style="fill:none;stroke:#000000;stroke-width:3;stroke-linecap:round;stroke-linejoin:round;"><g id="kvg:08179" kvg:element="腹"><g id="kvg:08179-g1" kvg:element="月" kvg:variant="true" kvg:original="肉" kvg:position="left" kvg:radical="general"><path id="kvg:08179-s1" kvg:type="㇓" d="M17.42 22.99c.73.73 1.09 1.87 1.11 2.81C19.25 60.25 16.5 81.5 8.5 93.88"/><path id="kvg:08179-s2" kvg:type="㇆a" d="M19.38 24.07c4.5-.82 13.58-2.84 15.22-2.97 2.95-.23 3.69.9 3.69 3.43.0 3.24-.05 44.37-.05 62.76.0 11.26-6.22 3.57-8.1 2.05"/><path id="kvg:08179-s3" kvg:type="㇐a" d="M19.63 42.03c6-.78 11.87-1.78 17.73-2.33"/><path id="kvg:08179-s4" kvg:type="㇐a" d="M18.57 61.04c5.43-.79 13.25-2.28 18.67-2.7"/></g><g id="kvg:08179-g2" kvg:element="复" kvg:position="right" kvg:phon="复"><g id="kvg:08179-g3" kvg:element="𠂉"><path id="kvg:08179-s5" kvg:type="㇒" d="M56.36 12.5c.07 1.15-.01 1.98-.43 3.06-2.55 6.56-5.49 11.3-10.93 17.73"/><path id="kvg:08179-s6" kvg:type="㇐" d="M57.25 21.97c1.75.28 2.98-.01 4.15-.15 5.16-.64 16.6-2.29 23.37-3.33 1.44-.22 3.06-.16 4.51-.1"/></g><g id="kvg:08179-g4" kvg:element="日"><path id="kvg:08179-s7" kvg:type="㇑" d="M54.52 33.65c.6.6 1.03 1.54 1.03 2.25.0.54 1.33 11.31 1.94 16.6.18 1.57.3 2.61.3 2.69"/><path id="kvg:08179-s8" kvg:type="㇕a" d="M56.44 35.24c5.81-1.1 19.82-3.31 24.42-3.87 2.05-.25 4.13.65 3.74 3.02-.42 2.49-1.68 11.1-2.39 16.17-.3 2.16-.51 3.67-.51 3.82"/><path id="kvg:08179-s9" kvg:type="㇐a" d="M57.58 44.31c6.92-1.06 18.17-2.56 24.97-2.9"/><path id="kvg:08179-s10" kvg:type="㇐a" d="M58.69 53.76c6.06-.38 14.81-1.64 22.35-1.97"/></g><g id="kvg:08179-g5" kvg:element="夂"><path id="kvg:08179-s11" kvg:type="㇒" d="M59.33 60.25c.09 1.08.04 2.06-.43 3.05-2.28 4.83-5.78 11.2-13.02 17.12"/><path id="kvg:08179-s12" kvg:type="㇇" d="M60.97 65.73c.25.03 1.85.07 2.57-.08 3.09-.64 10.82-2.73 14.23-3.53 2.34-.55 3.77.53 2.91 2.63C76.62 74.62 61.12 90.75 45 97"/><path id="kvg:08179-s13" kvg:type="㇏" d="M56.9 73.06c3.31 2.41 15.6 12.06 26.38 19.33 2.42 1.63 5.47 3.48 8.47 4.57"/></g></g></g></g></svg>