<svg xmlns="http://www.w3.org/2000/svg" width="109" height="109" viewBox="0 0 109 109"><g id="kvg:StrokePaths_08180" style="fill:none;stroke:#000000;stroke-width:3;stroke-linecap:round;stroke-linejoin:round;"><g id="kvg:08180" kvg:element="膀"><g id="kvg:08180-g1" kvg:element="月" kvg:variant="true" kvg:original="肉" kvg:position="left" kvg:radical="general"><path id="kvg:08180-s1" kvg:type="㇓" d="M19.08 18.25c.58.97 1 2.71 1 3.67.0 3.08.01 23.81-.6 31.69C18.6 64.81 17.7 76.1 9.42 88.97"/><path id="kvg:08180-s2" kvg:type="㇆a" d="M20.82 19.56c1.8-.06 10.39-1.83 11.72-1.96 2.39-.23 2.99 1.3 2.99 2.66.0 3.22-.45 45.61-.45 63.9.0 12.58-5.81 5.27-7.34 3.76"/><path id="kvg:08180-s3" kvg:type="㇐a" d="M20.99 39.01c3.8-.26 10.75-1.49 14.08-1.51"/><path id="kvg:08180-s4" kvg:type="㇐a" d="M20.1 57.51c3.23-.07 9.9-1.19 14.29-1.59"/></g><g id="kvg:08180-g2" kvg:element="旁" kvg:position="right"><g id="kvg:08180-g3" kvg:position="top"><g id="kvg:08180-g4" kvg:element="立" kvg:partial="true"><g id="kvg:08180-g5" kvg:element="亠" kvg:position="top"><path id="kvg:08180-s5" kvg:type="㇑a" d="M65.25 11.92c1 .83 1.92 1.75 1.92 2.94.0 1.88.0 1.15.0 6.26"/><path id="kvg:08180-s6" kvg:type="㇐" d="M46.42 23.96c2.08.54 4.96.76 5.83.62 7-1.08 25-3.33 33.5-4.17 1.46-.14 4.27.24 5 .48"/></g><g id="kvg:08180-g6" kvg:position="bottom"><path id="kvg:08180-s7" kvg:type="㇔" d="M55.19 27.74c2.27 2.73 3.35 6.54 3.56 8.34"/><path id="kvg:08180-s8" kvg:type="㇒" d="M80.21 23.5c.16.89-.21 2.12-.33 2.36-1.24 2.41-2.57 6.74-3.46 8.22"/></g></g><g id="kvg:08180-g7" kvg:element="冖"><path id="kvg:08180-s9" kvg:type="㇔" d="M46.2 36.73c-.09 3.53-2.15 12.77-2.88 14.88"/><path id="kvg:08180-s10" kvg:type="㇖b" d="M45.75 40.92c6.95-.84 31.47-4.98 45-5.33 8.27-.22 3.09 4.7.0 8"/></g></g><g id="kvg:08180-g8" kvg:element="方" kvg:position="bottom"><g id="kvg:08180-g9" kvg:element="亠" kvg:position="top"><path id="kvg:08180-s11" kvg:type="㇑a" d="M65.25 42.75c.98.53 3.17 2.96 3.17 4 0 3.85-.38 4.58-.2 7.84"/><path id="kvg:08180-s12" kvg:type="㇐" d="M45.92 55.58c1.58.42 3.83.92 6.33.83 6.65-.22 28.89-2.98 37.83-3.67 1.38-.11 4.14.1 5.17.67"/></g><g id="kvg:08180-g10" kvg:position="bottom"><path id="kvg:08180-s13" kvg:type="㇆a" d="M67.16 61.75c3.34 2.75 11.58 4.64 14.76 5.34 1.43.32 2.35 1.89 2 3.67-1.18 5.91-5.93 16.19-10.33 22-2.63 3.46-6.25-1.76-6.83-2.33"/><path id="kvg:08180-s14" kvg:type="㇒" d="M65.58 57.92c.35.93.43 2.68.02 3.72-3.86 9.86-8.36 20.86-20.69 27.14"/></g></g></g></g></g></svg>