<svg xmlns="http://www.w3.org/2000/svg" width="109" height="109" viewBox="0 0 109 109"><g id="kvg:StrokePaths_0819a"><g id="kvg:0819a" kvg:element="膚"><g id="kvg:0819a-g1" kvg:element="虍" kvg:position="tare" kvg:radical="nelson"><path id="kvg:0819a-s1" kvg:type="㇑a" d="M52.27 9.08c1.39 1.39 1.51 2.42 1.51 5.02.0 2.77-.02 5.4-.02 9.65"/><path id="kvg:0819a-s2" kvg:type="㇐b" d="M54.85 16.27c5.15-.52 15.9-1.77 20.61-2.38 1.55-.2 2.5-.07 3.29.12"/><path id="kvg:0819a-s3" kvg:type="㇒" d="M26.11 26.68c.98.98 1.27 2.57 1.23 4.53-.47 23.42-4.84 43.3-16.59 55.3"/><path id="kvg:0819a-s4" kvg:type="㇖a" d="M28.13 28.52c1.31-.2 2.78-.39 4.35-.67 15.27-2.73 35.27-5.1 49.72-5.27 12.07-.14 2.55 5.66-.45 7.78"/><g id="kvg:0819a-g2" kvg:element="七"><g id="kvg:0819a-g3" kvg:element="一"><path id="kvg:0819a-s5" kvg:type="㇐" d="M34.25 36.44c1.89.64 4.07.49 6 .18 9.36-1.46 16.65-3.27 26.01-5.23 1.72-.36 3.48-.81 5.24-.45"/></g><path id="kvg:0819a-s6" kvg:type="㇟a" d="M50.25 27.43c.85.85 1.29 1.7 1.29 3.09.0 1.11-.1 2.48-.1 3.87.0 4.74 1.07 6.11 9.48 6.11 2.95.0 9.8-.25 12.33-1.14"/></g></g><g id="kvg:0819a-g4" kvg:element="胃" kvg:position="tarec"><g id="kvg:0819a-g5" kvg:element="田" kvg:position="top"><path id="kvg:0819a-s7" kvg:type="㇑" d="M37.12 48.17c.54.55 1 1.16 1.21 1.93.92 4.4 1.62 7.4 2.24 11.6.16 1.06.3 2.1.44 3.07"/><path id="kvg:0819a-s8" kvg:type="㇕a" d="M38.78 49.39c13.97-1.52 30.7-2.96 36.85-3.39 2.75-.19 4.66.51 3.98 3.44-.5 2.17-1.29 4.96-2.18 8.6-.3 1.24-.62 2.55-.94 3.94"/><path id="kvg:0819a-s9" kvg:type="㇑a" d="M57.27 48.36c.75.75 1.15 1.48 1.15 2.47.0 4.53-.04 6.71-.04 9.79"/><path id="kvg:0819a-s10" kvg:type="㇐a" d="M40.68 56.29c11.07-1.04 29.2-2.91 36.7-3.16"/><path id="kvg:0819a-s11" kvg:type="㇐a" d="M42.07 63.44c9.93-1.06 23.21-2.28 33.77-2.71"/></g><g id="kvg:0819a-g6" kvg:element="月" kvg:original="肉" kvg:position="bottom" kvg:radical="tradit"><path id="kvg:0819a-s12" kvg:type="㇑" d="M39.97 70.18c.74.74.89 1.93.89 2.76.0.33-.11 13.42-.11 21.06.0 1.62.02 4.62.0 4.88"/><path id="kvg:0819a-s13" kvg:type="㇆a" d="M41.87 71.61c7.13-.86 26.38-2.99 31.6-3.48 2.03-.19 3.38 1.37 3.38 3.63.0 1.53-.08 14.89-.08 23.09.0 6.26-4.85.58-5.77.08"/><path id="kvg:0819a-s14" kvg:type="㇐a" d="M42.04 79.4c10.21-1.15 25.17-2.77 33.48-3.16"/><path id="kvg:0819a-s15" kvg:type="㇐a" d="M42.03 87.14c9.6-.77 25.04-2.45 33.57-2.74"/></g></g></g></g></svg>