<svg xmlns="http://www.w3.org/2000/svg" width="109" height="109" viewBox="0 0 109 109"><g id="kvg:StrokePaths_081a4"><g id="kvg:081a4" kvg:element="膤"><g id="kvg:081a4-g1" kvg:element="月" kvg:variant="true" kvg:original="肉" kvg:position="left" kvg:radical="general"><path id="kvg:081a4-s1" kvg:type="㇓" d="M17.75 18.42c.52 1.01.83 2.02 1 3s.34 27.43-.21 35.64c-.78 11.69-1.59 23.48-8.96 36.92"/><path id="kvg:081a4-s2" kvg:type="㇆a" d="M19.75 20.25c1.78-.06 10.34-1.85 11.66-1.98 2.37-.23 2.96 1.33 2.96 2.72.0 3.29-.44 47.16-.44 65.86.0 12.86-3.83 5.96-5.34 4.41"/><path id="kvg:081a4-s3" kvg:type="㇐a" d="M19.65 40.43c3.75-.2 10.47-1.33 13.76-1.34"/><path id="kvg:081a4-s4" kvg:type="㇐a" d="M18.92 60.58c3.12-.05 9.41-.98 13.63-1.25"/></g><g id="kvg:081a4-g2" kvg:element="雪" kvg:position="right"><g id="kvg:081a4-g3" kvg:element="雨" kvg:variant="true" kvg:position="top"><path id="kvg:081a4-s5" kvg:type="㇐" d="M47.75 18.42c1.18.22 4.09.74 5.17.67 5.08-.33 20.59-1.93 30.33-2.83 1.49-.14 3.8.03 5.17.33"/><path id="kvg:081a4-s6" kvg:type="㇔/㇑" d="M44.11 25.6c-.23 4.86-2.2 10.19-3.67 15.09"/><path id="kvg:081a4-s7" kvg:type="㇖b/㇆" d="M44.42 29.02c1.22.32 37.74-3.81 49.17-3.94 7.67-.08-.62 7.23-1.67 8.33"/><path id="kvg:081a4-s8" kvg:type="㇑" d="M66.36 18.17c.82.7 1.48 1.96 1.48 2.52s.07 31.85.07 33.39"/><path id="kvg:081a4-s9" kvg:type="㇔" d="M49.92 35.73c3.27.94 7.74 3.77 9.52 5.34"/><path id="kvg:081a4-s10" kvg:type="㇔" d="M48.52 47.81c3.28.94 8.34 4.39 10.13 5.96"/><path id="kvg:081a4-s11" kvg:type="㇔" d="M76.19 35.31c3.84 1.3 8.2 3.89 9.74 4.97"/><path id="kvg:081a4-s12" kvg:type="㇔" d="M77.38 47.29c3.16 1.06 7.47 4.25 9.19 6.02"/></g><g id="kvg:081a4-g4" kvg:element="⺕" kvg:variant="true" kvg:original="彑" kvg:position="bottom"><path id="kvg:081a4-s13" kvg:type="㇕" d="M48.25 63.08c2.38 1.36 4.52 1.18 6.09 1 9.54-1.09 20.3-2.5 27.8-2.5 2.21.0 3.79.68 3.53 3.4-.87 9.41-.36 19.18-1.41 29.93"/><path id="kvg:081a4-s14" kvg:type="㇐" d="M42.56 77.47c1.39.34 3.89 1.21 5.55 1.02 15.26-1.7 29.27-3.06 43.14-3.74 2.22-.11 5.34.66 7 1"/><path id="kvg:081a4-s15" kvg:type="㇐c" d="M49.42 92.32c.78.28 5.51.93 6.45.78 8.59-1.39 15.23-1.47 23.05-2.03 1.25-.09 3.74-.12 4.67.16"/></g></g></g></g></svg>