<svg xmlns="http://www.w3.org/2000/svg" width="109" height="109" viewBox="0 0 109 109"><g id="kvg:StrokePaths_081ba" style="fill:none;stroke:#000000;stroke-width:3;stroke-linecap:round;stroke-linejoin:round;"><g id="kvg:081ba" kvg:element="膺"><g id="kvg:081ba-g1" kvg:element="广" kvg:part="1" kvg:position="tare" kvg:radical="nelson"><path id="kvg:081ba-s1" kvg:type="㇑a" d="M52.42 10.25c.76.34 1.68 1.98 1.83 2.67.15.68.16 2.82.01 7.08"/><path id="kvg:081ba-s2" kvg:type="㇐" d="M22.08 22.08c1.52.54 4.6.52 6.12.43C44 21.61 63.5 19 83.31 18.79c2.53-.03 4.34.36 5.6.63"/><path id="kvg:081ba-s3" kvg:type="㇒" d="M26.91 23.58c.05 1.6.1 4.14-.1 6.45-1.18 13.59-3.85 46.55-16.58 61.19"/></g><g id="kvg:081ba-g2" kvg:position="tarec"><g id="kvg:081ba-g3" kvg:element="倠" kvg:position="top"><g id="kvg:081ba-g4" kvg:element="亻" kvg:variant="true" kvg:original="人" kvg:position="left"><path id="kvg:081ba-s4" kvg:type="㇒" d="M44.25 26.56c.1.52.17 1.18-.09 1.83-1.61 4.08-7.35 11.47-14.87 17"/><path id="kvg:081ba-s5" kvg:type="㇑" d="M39.33 35.82c.92.27 2.12 1.49 2.12 2.05.0 5.81-.46 14.26-.46 18.16"/></g><g id="kvg:081ba-g5" kvg:element="隹" kvg:position="right"><g id="kvg:081ba-g6" kvg:element="亻" kvg:variant="true" kvg:original="人"><path id="kvg:081ba-s6" kvg:type="㇒" d="M58.17 24.41c.14.89-.04 2.05-.48 2.81-2.83 4.85-6.41 8.95-12.89 14.85"/><path id="kvg:081ba-s7" kvg:type="㇑" d="M53.48 33.74c.74.33 1.31 1.07 1.36 1.58.44 4.61-.6 18.19-.23 20.59"/></g><path id="kvg:081ba-s8" kvg:type="㇒" d="M73.4 23.42c.05.36-.01.84-.17 1.15-.98 1.99-2.22 3.52-4.46 5.94"/><path id="kvg:081ba-s9" kvg:type="㇐b" d="M54.83 33.7c5.93-.62 29.45-2.81 31.99-3.15"/><path id="kvg:081ba-s10" kvg:type="㇑a" d="M68.99 31.9c.47.17.84.41.84.7.0 3.01.05 13.79-.23 18.53"/><path id="kvg:081ba-s11" kvg:type="㇐b" d="M55.58 39.25c5.24-.36 27.25-1.47 29.5-1.67"/><path id="kvg:081ba-s12" kvg:type="㇐b" d="M55.42 45.58c5.53-.31 27.46-1.17 29.83-1.33"/><path id="kvg:081ba-s13" kvg:type="㇐b" d="M54.58 52.75c5.75-.44 32.54-1.26 35-1.5"/></g></g></g><g id="kvg:081ba-g7" kvg:element="月" kvg:original="肉" kvg:radical="tradit"><path id="kvg:081ba-s14" kvg:type="㇑" d="M40.08 59.92c.81.86 1.11 2.11 1.38 2.97s.39 34.77.27 36.7"/><path id="kvg:081ba-s15" kvg:type="㇆a" d="M41.25 62.25c2.68-.21 29.86-3.12 31.86-3.34 3.58-.41 4.56 1.78 4.47 3.07-.22 3.48-.67 11.67-.67 28.26.0 10.65-4.26 5.03-6.49 3.18"/><path id="kvg:081ba-s16" kvg:type="㇐a" d="M42.46 71.72c9.87-.89 25.79-2.35 34.46-2.8"/><path id="kvg:081ba-s17" kvg:type="㇐a" d="M41.58 81.42c8.09-.54 25.98-1.97 35.33-2.33"/></g></g></g></svg>