<svg xmlns="http://www.w3.org/2000/svg" width="109" height="109" viewBox="0 0 109 109"><g id="kvg:StrokePaths_081bd" style="fill:none;stroke:#000000;stroke-width:3;stroke-linecap:round;stroke-linejoin:round;"><g id="kvg:081bd" kvg:element="膽"><g id="kvg:081bd-g1" kvg:element="月" kvg:original="肉" kvg:position="left" kvg:radical="general"><path id="kvg:081bd-s1" kvg:type="㇓" d="M19 18.75c1.25 1 1.43 2.64 1.43 3.6.0 7.65.17 24.51-.46 32.42-.89 11.25-1.81 23.6-10.22 36.53"/><path id="kvg:081bd-s2" kvg:type="㇆a" d="M20.82 20.25c1.94-.06 11.21-2.36 12.65-2.49 2.58-.23 3.23 1.32 3.23 2.69.0 4.09-.48 47.45-.48 65.13.0 12.72-5.65 5.19-7.3 3.67"/><path id="kvg:081bd-s3" kvg:type="㇐a" d="M21.65 40.73c3.76-.25 10.8-1.29 14.1-1.31"/><path id="kvg:081bd-s4" kvg:type="㇐a" d="M20.26 59.5c3.49-.08 10.41-1.15 15.15-1.58"/></g><g id="kvg:081bd-g2" kvg:element="詹" kvg:position="right"><g id="kvg:081bd-g3" kvg:element="𠂊" kvg:variant="true" kvg:original="勹"><path id="kvg:081bd-s5" kvg:type="㇒" d="M61.76 10.5c.06.43.11 1.11-.11 1.73C60.37 15.87 53.04 23.86 43 28.75"/><path id="kvg:081bd-s6" kvg:type="㇇" d="M59.58 18.13c5.18-.34 13.74-1.43 18.9-2.81 1.49-.4 2.6.61 1.55 2.11-2.97 4.24-6.96 8.05-9.61 12.16"/></g><path id="kvg:081bd-s7" kvg:type="㇐" d="M48.08 31.01c1.48.42 4.53.78 6 .62 8.67-.89 24.48-2.18 35-3.12 2.45-.22 5.44.29 6.67.5"/><path id="kvg:081bd-s8" kvg:type="㇒" d="M51.59 32.08c.03 1.42.06 3.18-.06 5.22-.74 12.07-.78 41.44-10.39 54.33"/><path id="kvg:081bd-s9" kvg:type="㇒" d="M62.79 32.92c.12.68.25.95.19 1.53-.45 4.41-1.97 10.34-5.65 13.31"/><path id="kvg:081bd-s10" kvg:type="㇟" d="M75.33 31.08c.72.65 1.34 1.42 1.34 2.43.0 1.35-.21 3.89-.21 4.86.0 3.64.79 3.64 7.18 3.72 4.26.06 7.4.0 9.21-.85"/><g id="kvg:081bd-g4" kvg:element="言"><path id="kvg:081bd-s11" kvg:type="㇔" d="M67.04 43.17c2.75 1.41 6.6 5.28 7.29 7.47"/><path id="kvg:081bd-s12" kvg:type="㇐" d="M55.58 56.08c.78.2 3.17 1.04 5.45.86C69.5 56.25 84 54.5 88.95 53.95c1.29-.14 3.05-.2 4.64.25"/><path id="kvg:081bd-s13" kvg:type="㇐" d="M59.75 64.2c1.25.8 3.03 1.03 3.59 1.02 5.89-.15 11.44-1.33 17.23-1.58 2.12-.09 4.03.06 4.5.13"/><path id="kvg:081bd-s14" kvg:type="㇐" d="M60.08 72.75c.42.12 1.42.75 3.33.67 4.33-.19 12.36-1.26 16.6-1.73 1.73-.19 2.48-.19 4.23.39"/><g id="kvg:081bd-g5" kvg:element="口"><path id="kvg:081bd-s15" kvg:type="㇑" d="M56.25 81.08c.36.29 1.42 1.62 1.53 2C58.8 86.41 59 92 60.08 97.41"/><path id="kvg:081bd-s16" kvg:type="㇕b" d="M58.58 82.25c6.02-.81 21.36-2.05 26.91-2.86 1.39-.2 2.7.94 2.5 1.86-.83 3.84-1.77 5.1-3.25 11.5"/><path id="kvg:081bd-s17" kvg:type="㇐b" d="M60.25 94.75c4.46-.38 20.55-1.59 26.67-2.17"/></g></g></g></g></g></svg>