<svg xmlns="http://www.w3.org/2000/svg" width="109" height="109" viewBox="0 0 109 109"><g id="kvg:StrokePaths_081b8"><g id="kvg:081b8" kvg:element="膸"><g id="kvg:081b8-g1" kvg:element="月" kvg:variant="true" kvg:original="肉" kvg:position="left" kvg:radical="general"><path id="kvg:081b8-s1" kvg:type="㇓" d="M16.39 18.04c.56.96.94 1.91 1.13 2.87.19.96.27 22.8.19 24.95-.38 10.28-.95 31.9-8.45 45.54"/><path id="kvg:081b8-s2" kvg:type="㇆a" d="M17.74 20.38C19 20.15 29.03 18.25 29.96 18c1.68-.46 3.82 1 3.6 2.38-.55 3.37-.31 47.46-.31 66.16.0 12-4.49 3.21-6.06 1.58"/><path id="kvg:081b8-s3" kvg:type="㇐a" d="M17.74 39.59c4.29-.49 11.31-1.11 15.08-1.02"/><path id="kvg:081b8-s4" kvg:type="㇐a" d="M18.05 59.38c3.35.0 10.7-.88 14.56-1.21"/></g><g id="kvg:081b8-g2" kvg:position="right"><g id="kvg:081b8-g3" kvg:position="nyoc"><g id="kvg:081b8-g4" kvg:element="左" kvg:position="top"><g id="kvg:081b8-g5" kvg:position="kamae"><path id="kvg:081b8-s5" kvg:type="㇐" d="M57.6 20.55c1.25.17 2.5.34 3.62.26 9.82-.72 19.05-1.62 31.28-2.38 1.72-.11 2.62-.11 4.02.22"/><path id="kvg:081b8-s6" kvg:type="㇒" d="M72.06 12.25c.1.57.17 1.6-.01 2.24-3.17 10.93-8.25 19.7-15.93 25.8"/></g><g id="kvg:081b8-g6" kvg:element="工"><path id="kvg:081b8-s7" kvg:type="㇐" d="M69.75 28.01c.41.2 2.37.24 2.79.21 3.12-.25 12.21-1.04 16.82-1.67.63-.09 2.13.04 2.66.21"/><path id="kvg:081b8-s8" kvg:type="㇑a" d="M77.28 27.97c.85.62 1.16 1.47 1.16 1.96.0 2.35.03 4.4.03 6.86"/><path id="kvg:081b8-s9" kvg:type="㇐" d="M64.29 37.7c.56.16 2.24.26 3.18.25C75.5 37.83 83.46 36 93 36.11c1.52.02 2.73.26 3.49.5"/></g></g><g id="kvg:081b8-g7" kvg:element="月" kvg:variant="true" kvg:original="肉" kvg:position="bottom"><path id="kvg:081b8-s10" kvg:type="㇑" d="M66.43 45.09c.48.56.79 1.12.95 1.67.16.55.22 35.56.16 36.78"/><path id="kvg:081b8-s11" kvg:type="㇆a" d="M68.34 46.27c1.9-.05 17.36-1.95 18.77-2.04 2.54-.15 3.49 1.92 3.17 2.72-.31.77-.48 18.6-.48 29.58.0 9.73-2.85 3.99-4.98 1.82"/><path id="kvg:081b8-s12" kvg:type="㇐a" d="M68.34 56.43c6.5-.51 15.13-1.66 20.83-1.81"/><path id="kvg:081b8-s13" kvg:type="㇐a" d="M67.57 65.88c5.07-.17 14.83-1.15 22.11-1.73"/></g></g><g id="kvg:081b8-g8" kvg:element="辶" kvg:position="nyo"><path id="kvg:081b8-s14" kvg:type="㇔" d="M42.35 15.75c3.73 1.5 9.63 6.18 10.56 8.52"/><path id="kvg:081b8-s15" kvg:type="㇔" d="M40.1 36.25c3.81 1.15 9.85 4.73 10.81 6.52"/><path id="kvg:081b8-s16" kvg:type="㇋" d="M38.25 60.78c1.84.7 3.06.35 3.88.17s6.53-2.45 7.75-2.8c1.22-.35 3.06.87 2.24 1.92-.82 1.05-2.26 4.57-2.88 5.44-.61.87-.41 2.45.82 3.67 1.22 1.22 3.24 2.62 3.86 3.67.61 1.05.61 1.92-.61 2.8-1.22.87-5.56 5.09-9.07 7.12"/><path id="kvg:081b8-s17" kvg:type="㇏" d="M38.61 84.93c2.06-.39 6.17-1.36 9.25-.58 3.08.77 20.62 5.97 23.65 6.97 8.23 2.71 14.57 3.48 20.74 2.13"/></g></g></g></g></svg>