<!DOCTYPE svg PUBLIC "-//W3C//DTD SVG 1.0//EN" "http://www.w3.org/TR/2001/REC-SVG-20010904/DTD/svg10.dtd" [
<!ATTLIST g
xmlns:kvg CDATA #FIXED "http://kanjivg.tagaini.net"
kvg:element CDATA #IMPLIED
kvg:variant CDATA #IMPLIED
kvg:partial CDATA #IMPLIED
kvg:original CDATA #IMPLIED
kvg:part CDATA #IMPLIED
kvg:number CDATA #IMPLIED
kvg:tradForm CDATA #IMPLIED
kvg:radicalForm CDATA #IMPLIED
kvg:position CDATA #IMPLIED
kvg:radical CDATA #IMPLIED
kvg:phon CDATA #IMPLIED >
<!ATTLIST path
xmlns:kvg CDATA #FIXED "http://kanjivg.tagaini.net"
kvg:type CDATA #IMPLIED >
]><svg xmlns="http://www.w3.org/2000/svg" width="109" height="109" viewBox="0 0 109 109"><g id="kvg:StrokePaths_081c0" style="fill:none;stroke:#000000;stroke-width:3;stroke-linecap:round;stroke-linejoin:round;"><g id="kvg:081c0" kvg:element="臀"><g id="kvg:081c0-g1" kvg:element="殿" kvg:position="top"><g id="kvg:081c0-g2" kvg:position="left"><g id="kvg:081c0-g3" kvg:element="尸" kvg:position="tare"><path id="kvg:081c0-s1" kvg:type="㇕c" d="M20.58 12.75c1.85.39 3.55.43 5.83.33 7.86-.32 18.19-2.77 21.35-2.89 1.56-.06 2.25.71 2.25 1.56.0 1.44-1.23 4.61-2.43 7.66"/><path id="kvg:081c0-s2" kvg:type="㇐b" d="M23.58 22.25c4.14-.13 21.51-2.03 25.83-2.17"/><path id="kvg:081c0-s3" kvg:type="㇒" d="M23.73 13.36c0 2.12-.61 10.07-.65 12.06-.2 9.56-8.59 23.41-11.58 25.91"/></g><g id="kvg:081c0-g4" kvg:element="共" kvg:position="tarec"><g id="kvg:081c0-g5" kvg:position="top"><path id="kvg:081c0-s4" kvg:type="㇐" d="M25.58 32.11c.38.08 3.12.54 3.5.5 1.54-.15 14.6-1.86 18.21-1.86.63.0 2.31.45 2.63.49"/><path id="kvg:081c0-s5" kvg:type="㇑a" d="M29.99 26.02c.38.16 1.38 2.07 1.42 2.4.4 2.7.15 7.17.33 10"/><path id="kvg:081c0-s6" kvg:type="㇑a" d="M40.58 24.92c.29.15 1.51 1.69 1.5 2-.15 4.11.03 5.68-.83 11"/><path id="kvg:081c0-s7" kvg:type="㇐" d="M21.92 40.1c.59.16 2.83 1.15 4.67 1 3.89-.31 17.2-2.73 22.17-2.88.99-.03 2.67.17 3.17.25"/></g><g id="kvg:081c0-g6" kvg:element="八" kvg:position="bottom"><path id="kvg:081c0-s8" kvg:type="㇒" d="M31.16 44.8c.03.25.07.63-.07.98-.83 2.07-6.26 6.06-12.07 9.38"/><path id="kvg:081c0-s9" kvg:type="㇔" d="M40.44 42.75c2.65 1.46 6.85 6 7.51 8.28"/></g></g></g><g id="kvg:081c0-g7" kvg:element="殳" kvg:position="right"><g id="kvg:081c0-g8" kvg:element="几" kvg:position="top"><g id="kvg:081c0-g9" kvg:element="丿"><path id="kvg:081c0-s10" kvg:type="㇒" d="M59.92 12.08c.83.67 1.58 1.26 1.57 1.83-.15 5.83-1.68 12.55-6.19 15"/></g><path id="kvg:081c0-s11" kvg:type="㇈b" d="M61.08 12.92c1.75.17 11.66-1.49 12.83-1.83 1.75-.52 2.52.2 2.34 1.34-.35 2.24-.94 5.46-.94 7.7.0 4.8 3.33 5.13 9.1 5.13 4.96.0 6.83-2.87 6.83-6.33"/></g><g id="kvg:081c0-g10" kvg:element="又" kvg:position="bottom"><path id="kvg:081c0-s12" kvg:type="㇇" d="M58.25 32.92c1.5.33 2.87.84 4.75.58 1.87-.26 13.45-2.74 14.75-2.92 2.5-.33 3 1.42 2 2.83-6.28 8.9-13.11 12.93-24.35 17.18"/><path id="kvg:081c0-s13" kvg:type="㇏" d="M58.9 36.8c3.18.36 18.7 10.01 29.77 13.96 1.72.62 2.98 1.03 4.58 1.23"/></g></g></g><g id="kvg:081c0-g11" kvg:element="月" kvg:variant="true" kvg:original="肉" kvg:position="bottom" kvg:radical="general"><path id="kvg:081c0-s14" kvg:type="㇑" d="M36.25 54.92c1.06.92 1.15 2.08 1.5 3s.08 38.26-.07 40.33"/><path id="kvg:081c0-s15" kvg:type="㇆a" d="M37.58 56.75c2.77-.23 29.83-2.58 31.89-2.84 3.69-.47 4.7 2.03 4.61 3.51-.23 3.97-.69 14.32-.69 33.26.0 12.16-4.5 6.01-6.81 3.91"/><path id="kvg:081c0-s16" kvg:type="㇐a" d="M38.58 66.75c9.52-.89 26.81-1.72 35.17-2.17"/><path id="kvg:081c0-s17" kvg:type="㇐a" d="M38.58 77.75c7.71-.5 25.25-1.83 34.17-2.17"/></g></g></g><g id="kvg:StrokeNumbers_081c0" style="font-size:8;fill:#808080"><text transform="matrix(1 0 0 1 23.25 10.25)">1</text><text transform="matrix(1 0 0 1 28.25 20.25)">2</text><text transform="matrix(1 0 0 1 16.25 21.25)">3</text><text transform="matrix(1 0 0 1 25.00 30.25)">4</text><text transform="matrix(1 0 0 1 34.25 28.25)">5</text><text transform="matrix(1 0 0 1 44.25 27.00)">6</text><text transform="matrix(1 0 0 1 23.25 39.25)">7</text><text transform="matrix(1 0 0 1 20.25 50.25)">8</text><text transform="matrix(1 0 0 1 35.25 48.78)">9</text><text transform="matrix(1 0 0 1 52.25 19.25)">10</text><text transform="matrix(1 0 0 1 61.25 9.25)">11</text><text transform="matrix(1 0 0 1 62.25 29.25)">12</text><text transform="matrix(1 0 0 1 53.25 46.25)">13</text><text transform="matrix(1 0 0 1 26.25 65.40)">14</text><text transform="matrix(1 0 0 1 38.25 54.33)">15</text><text transform="matrix(1 0 0 1 41.00 64.25)">16</text><text transform="matrix(1 0 0 1 42.25 75.25)">17</text></g></svg>