<svg xmlns="http://www.w3.org/2000/svg" width="109" height="109" viewBox="0 0 109 109"><g id="kvg:StrokePaths_081d9"><g id="kvg:081d9" kvg:element="臙"><g id="kvg:081d9-g1" kvg:element="月" kvg:variant="true" kvg:original="肉" kvg:position="left" kvg:radical="general"><path id="kvg:081d9-s1" kvg:type="㇓" d="M16.75 20.42c1.5.83 1.7 2.4 1.86 3.38s-.36 25.48-.88 33.68c-.74 11.67-1.5 23.43-8.48 36.84"/><path id="kvg:081d9-s2" kvg:type="㇆a" d="M18.49 21.21c3.51-.71 10.83-1.66 12.26-1.79 2.56-.23 3.45.64 3.45 1.99.0 3.2-.48 45.3-.48 63.46.0 12.49-3.01 6.88-4.64 5.38"/><path id="kvg:081d9-s3" kvg:type="㇐a" d="M18.49 41.77c4.16-.18 11.76-1.03 15.42-1.04"/><path id="kvg:081d9-s4" kvg:type="㇐a" d="M17.92 61.25c3.38-.07 10.41-.82 15-1.17"/></g><g id="kvg:081d9-g2" kvg:element="燕" kvg:position="right"><g id="kvg:081d9-g3" kvg:element="廿" kvg:position="top"><g id="kvg:081d9-g4" kvg:element="十"><path id="kvg:081d9-s5" kvg:type="㇐" d="M42.42 23.75c.97.41 3.18 1.05 4.15.97 8.91-.75 35.43-2.97 45.89-3.54 1.61-.09 2.82.37 3.62.57"/><path id="kvg:081d9-s6" kvg:type="㇑" d="M53.55 13.92c1.97 1.29 2.71 1.66 2.81 2.46.5 4.02.17 9.12 1.97 17.7"/></g><path id="kvg:081d9-s7" kvg:type="㇑a" d="M76.42 12.58c.11.9 1.47 1.98 1.35 3.07-.72 6.46-1.05 9.68-1.84 15.76"/><path id="kvg:081d9-s8" kvg:type="㇐b" d="M59.18 32.61c2.73-.16 16.99-1.2 18.23-1.2"/></g><g id="kvg:081d9-g5" kvg:position="bottom"><g id="kvg:081d9-g6" kvg:element="口"><path id="kvg:081d9-s9" kvg:type="㇑" d="M59.42 43.42c.58.33 1.13 1.32 1.17 1.83C61 51 61.84 58.64 62.42 65.75"/><path id="kvg:081d9-s10" kvg:type="㇕b" d="M61.25 45.3c4.95-1.06 8.75-1.8 12.5-2.31.98-.13 1.55 1.07 1.42 2.14-.57 4.4-1.06 11.54-1.91 17.63"/><path id="kvg:081d9-s11" kvg:type="㇐b" d="M62.58 64.58c4.39-.83 8.5-1.67 12.17-2"/></g><g id="kvg:081d9-g7" kvg:element="北"><g id="kvg:081d9-g8" kvg:position="left"><path id="kvg:081d9-s12" kvg:type="㇐" d="M40.25 48.08c.69.28 1.57.94 2.26.94s8.14-1.77 8.74-1.77"/><path id="kvg:081d9-s13" kvg:type="㇑" d="M50.25 36.92c.91.59 1.21 1.93 1.21 2.32s.15 21.36.15 22.43"/><path id="kvg:081d9-s14" kvg:type="㇀" d="M40.24 67.33c1.72 1.87 3.04 1.98 4.31 1.04 7.61-5.62 10.06-7.28 14.08-10.4"/></g><g id="kvg:081d9-g9" kvg:element="匕" kvg:position="right"><path id="kvg:081d9-s15" kvg:type="㇒" d="M95.07 38.9c.09.18.13.7-.08 1-2.04 2.92-7.07 7.2-11.49 8.73"/><path id="kvg:081d9-s16" kvg:type="㇟" d="M81.08 35.25c.92 1 1.67 2.4 1.67 3.33.0.63.07 20.4.07 22.31.0 4.89 1.18 6.43 6.98 6.43 4.7.0 6.89-1.07 6.89-6.29"/></g></g><g id="kvg:081d9-g10" kvg:element="灬" kvg:variant="true" kvg:original="火"><path id="kvg:081d9-s17" kvg:type="㇔" d="M49.05 77.5c0 6.06-5.93 15.02-7.47 16.75"/><path id="kvg:081d9-s18" kvg:type="㇔" d="M58.52 77.67c2.51 3.13 4.4 11.75 5.03 16.63"/><path id="kvg:081d9-s19" kvg:type="㇔" d="M71.73 76.17c2.7 3.27 6.97 12.96 7.64 18.05"/><path id="kvg:081d9-s20" kvg:type="㇔" d="M85.36 76.5c3.92 3.13 10.13 12.85 11.11 17.72"/></g></g></g></g></g></svg>