<!DOCTYPE svg PUBLIC "-//W3C//DTD SVG 1.0//EN" "http://www.w3.org/TR/2001/REC-SVG-20010904/DTD/svg10.dtd" [
<!ATTLIST g
xmlns:kvg CDATA #FIXED "http://kanjivg.tagaini.net"
kvg:element CDATA #IMPLIED
kvg:variant CDATA #IMPLIED
kvg:partial CDATA #IMPLIED
kvg:original CDATA #IMPLIED
kvg:part CDATA #IMPLIED
kvg:number CDATA #IMPLIED
kvg:tradForm CDATA #IMPLIED
kvg:radicalForm CDATA #IMPLIED
kvg:position CDATA #IMPLIED
kvg:radical CDATA #IMPLIED
kvg:phon CDATA #IMPLIED >
<!ATTLIST path
xmlns:kvg CDATA #FIXED "http://kanjivg.tagaini.net"
kvg:type CDATA #IMPLIED >
]><svg xmlns="http://www.w3.org/2000/svg" width="109" height="109" viewBox="0 0 109 109"><g id="kvg:StrokePaths_081da" style="fill:none;stroke:#000000;stroke-width:3;stroke-linecap:round;stroke-linejoin:round;"><g id="kvg:081da" kvg:element="臚"><g id="kvg:081da-g1" kvg:element="月" kvg:variant="true" kvg:original="肉" kvg:position="left" kvg:radical="general"><path id="kvg:081da-s1" kvg:type="㇓" d="M17.25 19.75c1.75 1 1.7 4.26 1.52 3.31-.25-1.32.31 21.81-.43 31.89-.84 11.41-1.7 24.91-9.59 38.02"/><path id="kvg:081da-s2" kvg:type="㇆a" d="M18.75 21.42c1.8-.06 11.46-2.19 12.79-2.32 2.39-.22 2.99 1.28 2.99 2.61.0 5.95-.45 44.58-.45 63.24.0 12.35-4.14 6.12-5.67 4.64"/><path id="kvg:081da-s3" kvg:type="㇐a" d="M19.82 41.78c3.75-.18 10.62-1.03 13.92-1.05"/><path id="kvg:081da-s4" kvg:type="㇐a" d="M18.75 61.58c3.27-.07 10.07-.64 14.5-1"/></g><g id="kvg:081da-g2" kvg:element="盧" kvg:position="right"><g id="kvg:081da-g3" kvg:element="虍" kvg:position="tare"><path id="kvg:081da-s5" kvg:type="㇑a" d="M63.92 11.92c.82.88 2 1.24 2 4.17.0 5.7.0 6.21.0 11"/><path id="kvg:081da-s6" kvg:type="㇐b" d="M66.28 19.22c5.11-.75 11.79-1.05 16.97-1.64 1.71-.19 3.64-.02 4.5.17"/><path id="kvg:081da-s7" kvg:type="㇒" d="M47.08 27.05c.48.59.67 3.84.53 5.96-1.47 22.24-2.17 43.75-10.66 61.15"/><path id="kvg:081da-s8" kvg:type="㇖a" d="M47.75 28.92c.94.14 3.15.38 4.67.17 10.81-1.49 28.12-2.88 37.37-3 9.75-.13 2.72 4.11.29 5.67"/><g id="kvg:081da-g4" kvg:element="七"><g id="kvg:081da-g5" kvg:element="一"><path id="kvg:081da-s9" kvg:type="㇐" d="M52.58 37.19c1.17.31 2.17 1.1 4.22.98 7.69-.42 16.92-2.16 23.94-2.58 1.08-.06 2.79.09 3.33.18"/></g><path id="kvg:081da-s10" kvg:type="㇟a" d="M65.08 29.92c.44.4 1.18 1.63 1.18 2.19.0 4.44-.08 5.64-.08 7.62.0 5.9 2.43 5.45 8.71 5.45 2.34.0 8.14-.46 10.15-1.25"/></g></g><g id="kvg:081da-g6" kvg:position="tarec"><g id="kvg:081da-g7" kvg:element="田"><path id="kvg:081da-s11" kvg:type="㇑" d="M53.92 51.75c.25.4 1.53 2.68 1.67 3.17 1.09 4.04 1.63 8.62 2.28 16.05"/><path id="kvg:081da-s12" kvg:type="㇕a" d="M55.25 53.42c9.7-1.14 25.15-2.84 31.14-2.72 1.46.03 2.35 1.31 2.35 2.52.0 5.57-1.15 10.37-2.32 15.7"/><path id="kvg:081da-s13" kvg:type="㇑a" d="M70.58 53.43c.67.82 1.2 2.2 1.2 2.8-.02 3.98.11 10.43.11 11.87"/><path id="kvg:081da-s14" kvg:type="㇐a" d="M57.58 61.25c2.5-.17 28.15-2.27 30.22-2.27"/><path id="kvg:081da-s15" kvg:type="㇐a" d="M58.75 69.08c5.68.0 19.32-1.41 27.17-1.5"/></g><g id="kvg:081da-g8" kvg:element="皿"><path id="kvg:081da-s16" kvg:type="㇑a" d="M52.42 75.25c.56.83 1.75 1.95 1.83 2.67.5 4.33.46 6.56 1.33 14"/><path id="kvg:081da-s17" kvg:type="㇕b" d="M54.92 77.42c8.19-.95 30.19-2.63 33.17-2.5 1.28.05 2.49 1.58 2.32 3.38-.25 2.66-1.04 8.2-1.99 11.79"/><path id="kvg:081da-s18" kvg:type="㇑a" d="M65.11 77.43c.29.43.72 1.78.72 2.33.0 3.86.78 8.68.78 12.22"/><path id="kvg:081da-s19" kvg:type="㇑a" d="M76.73 76.84c.4.5.75 1.34.72 1.99C77.25 83 76.89 87 76.89 90.69"/><path id="kvg:081da-s20" kvg:type="㇐" d="M44.42 91.92c1 .37 3.33 1.33 5.7 1.24 10.4-.43 23.54-2.32 42.66-2.17C95 91 96.75 91.5 98.58 92.25"/></g></g></g></g></g><g id="kvg:StrokeNumbers_081da" style="font-size:8;fill:#808080"><text transform="matrix(1 0 0 1 11.25 26.25)">1</text><text transform="matrix(1 0 0 1 19.25 17.25)">2</text><text transform="matrix(1 0 0 1 22.25 38.25)">3</text><text transform="matrix(1 0 0 1 21.25 58.25)">4</text><text transform="matrix(1 0 0 1 56.25 13.25)">5</text><text transform="matrix(1 0 0 1 73.25 15.25)">6</text><text transform="matrix(1 0 0 1 40.25 37.25)">7</text><text transform="matrix(1 0 0 1 48.75 26.25)">8</text><text transform="matrix(1 0 0 1 53.25 35.25)">9</text><text transform="matrix(1 0 0 1 70.25 34.25)">10</text><text transform="matrix(1 0 0 1 48.25 61.25)">11</text><text transform="matrix(1 0 0 1 55.25 50.73)">12</text><text transform="matrix(1 0 0 1 74.25 58.25)">13</text><text transform="matrix(1 0 0 1 59.25 59.25)">14</text><text transform="matrix(1 0 0 1 60.25 67.25)">15</text><text transform="matrix(1 0 0 1 45.25 82.25)">16</text><text transform="matrix(1 0 0 1 56.25 76.68)">17</text><text transform="matrix(1 0 0 1 57.25 85.25)">18</text><text transform="matrix(1 0 0 1 68.25 84.25)">19</text><text transform="matrix(1 0 0 1 43.00 89.25)">20</text></g></svg>