<svg xmlns="http://www.w3.org/2000/svg" width="109" height="109" viewBox="0 0 109 109"><g id="kvg:StrokePaths_081d8"><g id="kvg:081d8" kvg:element="臘"><g id="kvg:081d8-g1" kvg:element="月" kvg:variant="true" kvg:original="肉" kvg:position="left" kvg:radical="general"><path id="kvg:081d8-s1" kvg:type="㇓" d="M17.92 19.58c.83.67 1.15 1.72 1.33 2.67.19.95.01 26.82-.59 34.78-.71 9.44-4.77 27.69-9.75 35.78"/><path id="kvg:081d8-s2" kvg:type="㇆a" d="M19.82 20.52C23 20 29.91 18.72 31.34 18.6c2.56-.23 3.2 1.28 3.2 2.62.0 3.18-.48 44.98-.48 63.03.0 12.41-4.01 6.16-5.64 4.67"/><path id="kvg:081d8-s3" kvg:type="㇐a" d="M20.82 40.39c3.31-.22 9.35-1.26 12.25-1.28"/><path id="kvg:081d8-s4" kvg:type="㇐a" d="M18.43 59.9c3.42-.08 10.18-1.06 14.82-1.48"/></g><g id="kvg:081d8-g2" kvg:position="right"><g id="kvg:081d8-g3" kvg:element="巛"><path id="kvg:081d8-s5" kvg:type="㇛" d="M48.92 12.58c.09.88.05 1.78-.17 2.5-1.45 4.81-.86 3.56-4.52 8.65-.6.83-.28.7.0.93 3.95 3.35 6.63 5.65 8.9 9.71"/><path id="kvg:081d8-s6" kvg:type="㇛" d="M65.07 12.1c.21.71-.01 1.7-.19 2.18-.91 2.48-1.09 4.56-3.67 8.22-.25.35-.36 1.21-.12 1.42 2.74 2.42 5.91 5.71 7.17 9.5"/><path id="kvg:081d8-s7" kvg:type="㇛" d="M81.82 11.62c.22.46.2.97.1 1.43-.56 2.53-1.76 5.64-5.41 9.51-.32.33-.13.42.15.64 3.24 2.56 5.95 4.13 7.95 7.91"/></g><path id="kvg:081d8-s8" kvg:type="㇑" d="M41.42 38.25c1.08.75 2.28 2.91 2.4 3.32 1.04 3.4 2.4 11.88 3.04 18.22"/><path id="kvg:081d8-s9" kvg:type="㇕" d="M44.25 39.92c6.34-.75 37.81-3.5 42.55-4.13 1.74-.23 2.54 1.31 2.45 2.13-.33 3.01-3.37 13.31-4.17 18.33"/><g id="kvg:081d8-g4" kvg:element="乂"><g id="kvg:081d8-g5" kvg:element="丿"><path id="kvg:081d8-s10" kvg:type="㇒" d="M73.34 39.93c.06.31.13.81-.12 1.25-1.46 2.64-8.81 8.43-20.25 11.97"/></g><path id="kvg:081d8-s11" kvg:type="㇏" d="M54.27 43.43c8.95 1.21 22.13 4.48 24.37 6.36"/></g><path id="kvg:081d8-s12" kvg:type="㇐" d="M47.06 57.51c4.57-.39 31.22-3.22 38.46-3.41"/><path id="kvg:081d8-s13" kvg:type="㇙" d="M46.08 65.58c.7.32 2 1.92 2 3.33.0.59-.13 19.12-.13 24.79.0 1.5.85 1.44 1.65.95 2.82-1.71 7.96-5.18 12.66-7.44"/><path id="kvg:081d8-s14" kvg:type="㇔" d="M53.96 67.35c2.08.92 5.37 3.79 5.89 5.22"/><path id="kvg:081d8-s15" kvg:type="㇔" d="M53.46 77.72c2.02 1.02 5.22 4.21 5.73 5.8"/><path id="kvg:081d8-s16" kvg:type="㇙" d="M64.75 62.92c.83.34 1.5 1.15 1.67 1.83.15.62.08 22.93.08 28.96.0 1.6 1.02 1.53 1.98 1.01 3.38-1.82 10.18-4.81 13.94-6.47"/><path id="kvg:081d8-s17" kvg:type="㇔" d="M72.01 67.26c2.58.95 6.66 3.91 7.31 5.39"/><path id="kvg:081d8-s18" kvg:type="㇔" d="M72.63 77.34c2.18 1 5.64 4.12 6.18 5.68"/><path id="kvg:081d8-s19" kvg:type="㇂" d="M82.25 60.75c.65.77 1.23 1.89 1.3 3.55.49 11.41 2.2 24.2 9.03 31.45 2.45 2.6 3.67 1.33 4.83-6.83"/></g></g></g></svg>