<!DOCTYPE svg PUBLIC "-//W3C//DTD SVG 1.0//EN" "http://www.w3.org/TR/2001/REC-SVG-20010904/DTD/svg10.dtd" [
<!ATTLIST g
xmlns:kvg CDATA #FIXED "http://kanjivg.tagaini.net"
kvg:element CDATA #IMPLIED
kvg:variant CDATA #IMPLIED
kvg:partial CDATA #IMPLIED
kvg:original CDATA #IMPLIED
kvg:part CDATA #IMPLIED
kvg:number CDATA #IMPLIED
kvg:tradForm CDATA #IMPLIED
kvg:radicalForm CDATA #IMPLIED
kvg:position CDATA #IMPLIED
kvg:radical CDATA #IMPLIED
kvg:phon CDATA #IMPLIED >
<!ATTLIST path
xmlns:kvg CDATA #FIXED "http://kanjivg.tagaini.net"
kvg:type CDATA #IMPLIED >
]><svg xmlns="http://www.w3.org/2000/svg" width="109" height="109" viewBox="0 0 109 109"><g id="kvg:StrokePaths_081e7" style="fill:none;stroke:#000000;stroke-width:3;stroke-linecap:round;stroke-linejoin:round;"><g id="kvg:081e7" kvg:element="臧"><g id="kvg:081e7-g1" kvg:element="爿" kvg:part="1" kvg:variant="true"><g id="kvg:081e7-g2" kvg:element="厂" kvg:part="1" kvg:variant="true"><path id="kvg:081e7-s1" kvg:type="㇓" d="M34.33 30.69c.67.92 1.1 2.5 1.1 3.58.0 26.31-.43 48.48-15.02 60.37"/></g></g><g id="kvg:081e7-g3" kvg:element="戈" kvg:part="1"><g id="kvg:081e7-g4" kvg:element="弋" kvg:part="1"><g id="kvg:081e7-g5" kvg:element="厂" kvg:part="2" kvg:variant="true"><path id="kvg:081e7-s2" kvg:type="㇐" d="M32.38 29.98c1.52.54 4.3.63 5.82.54 13.05-.77 29.55-2.02 44.11-2.73 2.53-.12 4.05.26 5.31.53"/></g></g></g><g id="kvg:081e7-g6" kvg:element="爿" kvg:part="2" kvg:variant="true"><path id="kvg:081e7-s3" kvg:type="㇄" d="M18.8 23.18c.82.56 1.13 1.22 1.2 3.09.1 2.79-.44 15.14-.7 18.07-.08.93.14 2.33 1.36 2.18 4.3-.51 9.49-1.38 14.47-1.79"/><path id="kvg:081e7-s4" kvg:type="㇐" d="M12.69 60.44c1.16.13 1.4.51 2.77.42 5.83-.38 14.47-1.23 18.54-1.43"/><path id="kvg:081e7-s5" kvg:type="㇓" d="M23.25 60.46c.02.6.02 1.54-.04 2.4-.4 6.19-1.56 16.78-6.87 23"/></g><g id="kvg:081e7-g7" kvg:element="臣" kvg:radical="general"><path id="kvg:081e7-s6" kvg:type="㇑" d="M43.23 40.33c.64.3 1.02 1.34 1.15 1.93.13.59.0 42.94-.13 46.65"/><path id="kvg:081e7-s7" kvg:type="㇐b" d="M44.52 41.81c4.2-.44 7.84-.57 17.59-1.01 1.48-.07 2.37-.14 3.11.02"/><path id="kvg:081e7-s8" kvg:type="㇑a" d="M53.77 42.13c.64.3 1.02 1.34 1.15 1.93.13.59.08 6.52-.05 10.24"/><path id="kvg:081e7-s9" kvg:type="㇕b" d="M44.77 55.58C48.5 55 58.25 54 62.52 53.61c2.83-.26 3.61.92 3.21 2.53-.71 2.9-1.76 6.56-2.48 10.05"/><path id="kvg:081e7-s10" kvg:type="㇐b" d="M44.81 68.44c4.2-.44 15.95-1.22 19.9-1.49"/><path id="kvg:081e7-s11" kvg:type="㇑a" d="M54.21 68.41c.64.3 1.02 1.34 1.15 1.93.13.59.08 10.7-.05 14.41"/><path id="kvg:081e7-s12" kvg:type="㇐b" d="M44.52 86.38c4.2-.44 8.26-1.78 18.02-2.22 1.48-.07 2.37-.14 3.11.02"/></g><g id="kvg:081e7-g8" kvg:element="戈" kvg:part="2"><g id="kvg:081e7-g9" kvg:element="弋" kvg:part="2"><path id="kvg:081e7-s13" kvg:type="㇂" d="M67 12.75c1.18 1.75 1.38 2.24 1.62 6 2.06 31.5 8.58 62.25 23.03 74 4.64 3.77 3.98.75 3.39-7"/></g><g id="kvg:081e7-g10" kvg:element="丿"><path id="kvg:081e7-s14" kvg:type="㇒" d="M86.99 39.14c.07 1.26.04 3.23-.14 5.05-1.1 11.55-9.35 38.3-24.04 49.52"/></g><g id="kvg:081e7-g11" kvg:element="弋" kvg:part="3"><g id="kvg:081e7-g12" kvg:element="丶"><path id="kvg:081e7-s15" kvg:type="㇔" d="M78 13.25c3.83 1.8 9.96 5.91 11.75 9"/></g></g></g></g></g><g id="kvg:StrokeNumbers_081e7" style="font-size:8;fill:#808080"><text transform="matrix(1 0 0 1 28.00 37.38)">1</text><text transform="matrix(1 0 0 1 33.25 27.25)">2</text><text transform="matrix(1 0 0 1 9.25 22.25)">3</text><text transform="matrix(1 0 0 1 5.25 61.25)">4</text><text transform="matrix(1 0 0 1 15.25 70.15)">5</text><text transform="matrix(1 0 0 1 38.00 48.25)">6</text><text transform="matrix(1 0 0 1 46.25 39.25)">7</text><text transform="matrix(1 0 0 1 58.25 49.25)">8</text><text transform="matrix(1 0 0 1 47.25 52.78)">9</text><text transform="matrix(1 0 0 1 48.00 65.25)">10</text><text transform="matrix(1 0 0 1 58.00 75.25)">11</text><text transform="matrix(1 0 0 1 46.25 82.25)">12</text><text transform="matrix(1 0 0 1 55.00 13.25)">13</text><text transform="matrix(1 0 0 1 74.25 38.25)">14</text><text transform="matrix(1 0 0 1 73.25 11.25)">15</text></g></svg>