<!DOCTYPE svg PUBLIC "-//W3C//DTD SVG 1.0//EN" "http://www.w3.org/TR/2001/REC-SVG-20010904/DTD/svg10.dtd" [
<!ATTLIST g
xmlns:kvg CDATA #FIXED "http://kanjivg.tagaini.net"
kvg:element CDATA #IMPLIED
kvg:variant CDATA #IMPLIED
kvg:partial CDATA #IMPLIED
kvg:original CDATA #IMPLIED
kvg:part CDATA #IMPLIED
kvg:number CDATA #IMPLIED
kvg:tradForm CDATA #IMPLIED
kvg:radicalForm CDATA #IMPLIED
kvg:position CDATA #IMPLIED
kvg:radical CDATA #IMPLIED
kvg:phon CDATA #IMPLIED >
<!ATTLIST path
xmlns:kvg CDATA #FIXED "http://kanjivg.tagaini.net"
kvg:type CDATA #IMPLIED >
]><svg xmlns="http://www.w3.org/2000/svg" width="109" height="109" viewBox="0 0 109 109"><g id="kvg:StrokePaths_081fb" style="fill:none;stroke:#000000;stroke-width:3;stroke-linecap:round;stroke-linejoin:round;"><g id="kvg:081fb" kvg:element="臻"><g id="kvg:081fb-g1" kvg:element="至" kvg:position="left" kvg:radical="general"><path id="kvg:081fb-s1" kvg:type="㇐" d="M9.42 22.95c.47.19 3.19.66 3.67.62 6.51-.51 15.06-1.51 23-1.75.79-.02 3.44.53 3.83.62"/><g id="kvg:081fb-g2" kvg:element="厶"><path id="kvg:081fb-s2" kvg:type="㇜" d="M23.75 25.2c.34.35.43 1.93.17 2.33-2.99 4.66-7 9.1-11.14 13.59-1.33 1.45-1.43 2.42.71 2 4.99-1 12.89-3.44 20.76-5.09"/><path id="kvg:081fb-s3" kvg:type="㇔" d="M29.65 29.1c2.85 2.34 7.36 9.63 8.07 13.28"/></g><g id="kvg:081fb-g3" kvg:element="土"><path id="kvg:081fb-s4" kvg:type="㇐" d="M9.75 61.2c1.5.5 2.53.89 5.17.5 6.83-1 12.77-1.38 18.17-2.17.83-.12 2.92-.58 4.83-.17"/><path id="kvg:081fb-s5" kvg:type="㇑" d="M22.75 44.36c1 .58 2 1.63 2 4.17.0 12.68.12 26.44.12 30.56"/><path id="kvg:081fb-s6" kvg:type="㇀/㇐" d="M10.25 85.2c.94.79 2.59 1.79 3.33 1.33 7.46-4.58 15.16-8.04 25.4-14.38"/></g></g><g id="kvg:081fb-g4" kvg:element="秦" kvg:position="right"><g id="kvg:081fb-g5" kvg:element="三" kvg:position="top"><g id="kvg:081fb-g6" kvg:element="一" kvg:position="top"><path id="kvg:081fb-s7" kvg:type="㇐" d="M46.42 21.03c.85.33 3.99.7 4.83.67 11.17-.4 22.07-1.75 33-2.17 1.41-.05 4.3.17 5 .33"/></g><g id="kvg:081fb-g7" kvg:position="bottom"><g id="kvg:081fb-g8" kvg:element="一"><path id="kvg:081fb-s8" kvg:type="㇐" d="M48.08 31.86c.84.41 3.33.38 4.17.33 8.71-.47 18.91-.84 28.83-1.5 1.39-.09 4.14-.21 4.83.0"/></g><g id="kvg:081fb-g9" kvg:element="大" kvg:part="1"><g id="kvg:081fb-g10" kvg:element="一"><path id="kvg:081fb-s9" kvg:type="㇐" d="M43.42 43.7c1.83.33 3.57.59 5.5.5 11.33-.5 25.86-2.7 39.5-2.67 1.74.0 5.63.42 6.5.67"/></g></g></g><g id="kvg:081fb-g11" kvg:element="大" kvg:part="2"><g id="kvg:081fb-g12" kvg:element="人"><path id="kvg:081fb-s10" kvg:type="㇒" d="M64.25 10.36c1 .83 1.47 1.96 1.17 3.83-2.27 14.23-10.48 40.9-29.18 52.08"/><path id="kvg:081fb-s11" kvg:type="㇏" d="M70.36 32.48c3.82 5.51 17.18 22.51 21.39 26.55 1.43 1.37 3.5 2.44 4.92 2.83"/></g></g></g><g id="kvg:081fb-g13" kvg:element="禾" kvg:position="bottom"><g id="kvg:081fb-g14" kvg:element="丿" kvg:position="top"><path id="kvg:081fb-s12" kvg:type="㇒" d="M74.94 47.94c.07.24.14.62-.13.97-1.57 2.04-10.62 6.53-22.99 9.27"/></g><g id="kvg:081fb-g15" kvg:element="木" kvg:position="bottom"><path id="kvg:081fb-s13" kvg:type="㇐" d="M42.58 68.7c2.42.5 3.67.5 5.5.47 5.11-.08 21.42-1.97 34.67-2.77 2.02-.12 4.8.45 7 .88"/><path id="kvg:081fb-s14" kvg:type="㇑" d="M65.01 56.42c.79.27 1.27 1.23 1.43 1.78.16.55.0 37.82-.16 41.24"/><path id="kvg:081fb-s15" kvg:type="㇒" d="M65.48 69.2c-8.06 10.41-18.3 18.1-31.28 24.97"/><path id="kvg:081fb-s16" kvg:type="㇏" d="M69.1 70.01c8.32 9.19 21.49 19.86 26.49 21.86"/></g></g></g></g></g><g id="kvg:StrokeNumbers_081fb" style="font-size:8;fill:#808080"><text transform="matrix(1 0 0 1 3.25 19.70)">1</text><text transform="matrix(1 0 0 1 13.25 32.70)">2</text><text transform="matrix(1 0 0 1 36.25 31.70)">3</text><text transform="matrix(1 0 0 1 2.25 59.70)">4</text><text transform="matrix(1 0 0 1 17.00 52.70)">5</text><text transform="matrix(1 0 0 1 5.00 81.70)">6</text><text transform="matrix(1 0 0 1 43.25 17.70)">7</text><text transform="matrix(1 0 0 1 43.25 28.70)">8</text><text transform="matrix(1 0 0 1 41.25 40.70)">9</text><text transform="matrix(1 0 0 1 56.00 6.70)">10</text><text transform="matrix(1 0 0 1 79.25 38.70)">11</text><text transform="matrix(1 0 0 1 60.25 51.70)">12</text><text transform="matrix(1 0 0 1 46.25 65.70)">13</text><text transform="matrix(1 0 0 1 55.25 64.70)">14</text><text transform="matrix(1 0 0 1 46.25 78.70)">15</text><text transform="matrix(1 0 0 1 78.25 75.70)">16</text></g></svg>