<svg xmlns="http://www.w3.org/2000/svg" width="109" height="109" viewBox="0 0 109 109"><g id="kvg:StrokePaths_08205" style="fill:none;stroke:#000000;stroke-width:3;stroke-linecap:round;stroke-linejoin:round;"><g id="kvg:08205" kvg:element="舅"><g id="kvg:08205-g1" kvg:element="臼" kvg:position="top" kvg:radical="general"><path id="kvg:08205-s1" kvg:type="㇒" d="M44.6 9.38c.04.21.19.61-.09.83-3.6 2.97-9.5 5.91-15.53 7.98"/><path id="kvg:08205-s2" kvg:type="㇑" d="M26.42 16.58c.53.42 1.61 1.96 1.74 2.83.48 3.18 2.83 12.46 3.31 16.76"/><path id="kvg:08205-s3" kvg:type="㇐" d="M31.1 25.39c4.98-.95 13.04-2.3 13.98-2.3s3.08.0 3.83.0"/><path id="kvg:08205-s4" kvg:type="㇕" d="M61.08 12.92c.81.09 2.01.5 3.33.5 1.23.0 14.37-1.59 15.78-1.69s2.58.51 2.47 1.14c-1.06 5.99-3.53 16.26-4.58 21.22"/><path id="kvg:08205-s5" kvg:type="㇐" d="M59.25 22.08c.94.16 2.86.67 4.17.67s15.84-1.17 17.33-1.33"/><path id="kvg:08205-s6" kvg:type="㇐" d="M32.16 34.57c10.16-.89 34.06-3.07 46-3.42"/></g><g id="kvg:08205-g2" kvg:element="男" kvg:position="bottom"><g id="kvg:08205-g3" kvg:element="田" kvg:position="top"><path id="kvg:08205-s7" kvg:type="㇑" d="M29.08 42.42c.82.73 1.81 1.94 2 2.67 1.12 4.23 2.94 12.82 4.09 20.69"/><path id="kvg:08205-s8" kvg:type="㇕a" d="M30.42 43.42c12.57-.75 38.59-2.88 47.17-3 3.55-.05 3.48 1.92 3 4.33-.98 4.93-2.15 10.83-4.17 19"/><path id="kvg:08205-s9" kvg:type="㇑a" d="M53.42 42.75c.68.54 1.15 2.37 1.16 3.28.05 6.34.26 13.83.26 15.62"/><path id="kvg:08205-s10" kvg:type="㇐a" d="M33.42 52.92c7.3-.84 39.89-2.8 45.83-2.83"/><path id="kvg:08205-s11" kvg:type="㇐a" d="M35.08 63.58c12.17-1.44 27-1.98 41.33-2.5"/></g><g id="kvg:08205-g4" kvg:element="力" kvg:position="bottom"><path id="kvg:08205-s12" kvg:type="㇆" d="M24.75 74.08c1.54.43 3.21.84 6 .67 13-.83 41.34-3.59 46.19-3.94 3.15-.23 3.56 1.51 3.39 3.11-.46 4.21-5.64 16.5-9.58 20.66-3.15 3.33-3.83 1.33-6-.17"/><path id="kvg:08205-s13" kvg:type="㇒" d="M51.78 65.08c.79 1.01.77 2.08.48 3.21-3.96 15.4-15.22 25.88-33.78 30.39"/></g></g></g></g></svg>