<svg xmlns="http://www.w3.org/2000/svg" width="109" height="109" viewBox="0 0 109 109"><g id="kvg:StrokePaths_08207" style="fill:none;stroke:#000000;stroke-width:3;stroke-linecap:round;stroke-linejoin:round;"><g id="kvg:08207" kvg:element="與"><g id="kvg:08207-g1" kvg:position="top"><g id="kvg:08207-g2" kvg:phon="与"><path id="kvg:08207-s1" kvg:type="㇐" d="M50.42 20.56c4.14-.25 8.93-1.74 12.88-2.1.91-.08 1.75.11 2.21.22"/><path id="kvg:08207-s2" kvg:type="㇉" d="M50.27 12.8c.79.98.67 3.63.16 5.18-.59 1.77-2.26 12.03-2.66 12.96-1.01 2.32.24 3.07 2.6 2.43 1.68-.45 5.14-1.15 9.37-1.66 1.77-.21 3.18.91 2.87 2.67-1.58 9.05-3.85 24.37-5.11 35.42"/><path id="kvg:08207-s3" kvg:type="㇑" d="M47.42 46.32c.71.83.85 2.42.66 3.43-.33 1.75-.83 11.5-2.08 20"/></g><g id="kvg:08207-g3" kvg:element="𦥑" kvg:variant="true" kvg:original="臼" kvg:radical="tradit"><path id="kvg:08207-s4" kvg:type="㇒" d="M39.18 16.04c.12.95-.48 1.9-1.14 2.5-2.77 2.45-5.34 4.94-11.04 7.26"/><path id="kvg:08207-s5" kvg:type="㇑" d="M22.12 26.5c1.09.5 1.82 2.24 1.96 3.25.42 3 2.14 32.63 2.89 41.88"/><path id="kvg:08207-s6" kvg:type="㇐" d="M25 40.75c3.48-.52 8.94-1.53 11.78-2.09 1.25-.25 2.78-.41 3.47-.41"/><path id="kvg:08207-s7" kvg:type="㇐" d="M26.75 55.75c4-.5 6.97-1.34 10.02-1.61C37.85 54.05 39.28 54 40 54"/><path id="kvg:08207-s8" kvg:type="㇕" d="M71.85 21.23c1.4.02 2.34.54 4.23.12 4.93-1.1 10.02-1.5 10.59-1.5 1.61.0 2.45 1.19 2.1 2.75-1.52 6.9-4.02 36.15-5.02 45.65"/><path id="kvg:08207-s9" kvg:type="㇐" d="M70.75 35.75c.71.16 2.17.71 3.25.68 3.87-.11 11.27-.68 12.25-.68"/><path id="kvg:08207-s10" kvg:type="㇐" d="M69.25 52c.62.13 2.3.7 3 .73 3.27.13 10-.48 13-.73"/></g><path id="kvg:08207-s11" kvg:type="㇐" d="M12.93 72.16c2.96.66 6.06.54 8.8.36 13.75-.89 47.19-2.41 66.18-3.05 3.22-.11 6.44-.11 9.47.41"/></g><g id="kvg:08207-g4" kvg:element="八" kvg:position="bottom" kvg:radical="nelson"><g id="kvg:08207-g5" kvg:position="left"><path id="kvg:08207-s12" kvg:type="㇒" d="M37.56 79.33c.18.94-.19 2.14-.95 3.14-2.85 3.7-9.91 10.56-20.05 15"/></g><g id="kvg:08207-g6" kvg:position="right"><path id="kvg:08207-s13" kvg:type="㇏" d="M66.73 78.89C73.89 82 84.82 90.32 87.56 96.97"/></g></g></g></g></svg>