<svg xmlns="http://www.w3.org/2000/svg" width="109" height="109" viewBox="0 0 109 109"><g id="kvg:StrokePaths_08209"><g id="kvg:08209" kvg:element="舉"><g id="kvg:08209-g1" kvg:element="與" kvg:position="top"><g id="kvg:08209-g2" kvg:position="top"><path id="kvg:08209-s1" kvg:type="㇐" d="M51.54 19.06c4.63-.22 6.54-.97 9.6-1.19.87-.06 1.67.08 2.1.16"/><path id="kvg:08209-s2" kvg:type="㇞" d="M52.73 9.75c.75.71.63 2.65.15 3.77-.56 1.29-3.65 13.26-4.04 13.94-.96 1.69.23 2.23 2.48 1.77 1.6-.33 4.9-.84 8.93-1.21 1.69-.15 3.03.66 2.74 1.94-1.5 6.59-3.17 12.75-4.37 20.8"/><path id="kvg:08209-s3" kvg:type="㇑" d="M49.26 35.06c1.04.36 1.87 1.61 1.87 2.37.0 2.52-.46 6.52-.46 13.3"/><g id="kvg:08209-g3" kvg:element="𦥑" kvg:variant="true" kvg:original="臼" kvg:radical="general"><path id="kvg:08209-s4" kvg:type="㇒" d="M40.34 11.76c.03.16.12.47-.06.66-2.3 2.31-5.7 4.43-11.7 6.29"/><path id="kvg:08209-s5" kvg:type="㇑" d="M25.92 18.72c1.04.36 1.73 1.63 1.87 2.37.4 2.19 1.07 24.04 1.78 30.77"/><path id="kvg:08209-s6" kvg:type="㇐" d="M28.66 29.1c3.31-.38 7.01-1.11 9.73-1.52 1.19-.18 2.65-.3 3.3-.3"/><path id="kvg:08209-s7" kvg:type="㇐" d="M29.33 39.53c3.81-.36 6.64-.98 9.55-1.17 1.02-.07 2.39-.1 3.08-.1"/><path id="kvg:08209-s8" kvg:type="㇕" d="M70.3 16.89c1.33.01 2.23.4 4.03.09 4.69-.8 10.05-2.09 10.59-2.09 1.53.0 2.33.86 2 2-1.45 5.02-3.83 25.33-4.78 32.25"/><path id="kvg:08209-s9" kvg:type="㇐" d="M70.25 26.96c.68.12 2.07.52 3.1.49 3.68-.08 10.74-.99 11.67-.99"/><path id="kvg:08209-s10" kvg:type="㇐" d="M69.82 37.8c.59.1 2.19.51 2.86.53 3.11.09 8.03-.85 10.88-1.03"/></g><path id="kvg:08209-s11" kvg:type="㇐" d="M12.73 52.26c1.54.42 4.36.49 5.89.42 12.08-.57 54.09-2.9 73.52-3.27 2.56-.05 4.1.2 5.38.41"/></g><g id="kvg:08209-g4" kvg:element="八" kvg:position="bottom"><g id="kvg:08209-g5" kvg:position="left"><path id="kvg:08209-s12" kvg:type="㇒" d="M39.56 54.82c.06.52.39 1.49-.13 2.09C35.5 61.45 27.25 69.7 16.37 76.91"/></g><g id="kvg:08209-g6" kvg:position="right"><path id="kvg:08209-s13" kvg:type="㇏" d="M67.43 52.71c6.82 6.24 13.94 12.74 20.11 17.71 2.21 1.78 4.21 2.78 6.96 4.03"/></g></g></g><g id="kvg:08209-g7" kvg:position="bottom"><g id="kvg:08209-g8" kvg:element="二"><g id="kvg:08209-g9" kvg:position="top"><path id="kvg:08209-s14" kvg:type="㇐" d="M37.36 70.46c.93.21 2.65.27 3.58.21 5.95-.37 21.99-2.4 27.76-2.15 1.55.07 2.49.1 3.27.21"/></g><g id="kvg:08209-g10" kvg:position="bottom"><path id="kvg:08209-s15" kvg:type="㇐" d="M28.67 83.37c1.37.22 3.89.24 5.25.22 8.33-.14 30.58-2.39 42.62-2.13 2.28.05 3.65.1 4.79.22"/></g></g><g id="kvg:08209-g11" kvg:element="丨"><path id="kvg:08209-s16" kvg:type="㇑" d="M52.87 57.45c1.09.5 1.74 2.25 1.96 3.25s0 32.75-.22 39"/></g></g></g></g></svg>