<svg xmlns="http://www.w3.org/2000/svg" width="109" height="109" viewBox="0 0 109 109"><g id="kvg:StrokePaths_08210"><g id="kvg:08210" kvg:element="舐"><g id="kvg:08210-g1" kvg:element="舌" kvg:position="left" kvg:radical="general"><g id="kvg:08210-g2" kvg:element="千" kvg:position="top"><path id="kvg:08210-s1" kvg:type="㇒" d="M40.69 15.83c.08.46-.62 2.2-1.07 2.69-3.43 3.78-12.12 10.7-27.31 15.94"/><path id="kvg:08210-s2" kvg:type="㇐" d="M9.08 46.42c.75.21 3.67.58 5.67.5 6.64-.28 23.52-2.23 28.5-2.5 1.24-.07 3.25-.17 4.67.33"/><path id="kvg:08210-s3" kvg:type="㇑a" d="M27.08 30.08c.53.35 1.9 1.46 2 2.17.2 1.31.11 28.48.0 33"/></g><g id="kvg:08210-g3" kvg:element="口" kvg:position="bottom"><path id="kvg:08210-s4" kvg:type="㇑" d="M13.08 66.25c.47.48 1.72 2.37 1.83 3 1.33 7.25 2.89 16.25 4 24.83"/><path id="kvg:08210-s5" kvg:type="㇕b" d="M15.08 68.23c9.1-1.34 20.59-2.37 25.71-2.92 1.87-.21 2.28 2.03 2.14 3.24-.68 5.97-1.68 12.43-3.01 19.37"/><path id="kvg:08210-s6" kvg:type="㇐b" d="M18.92 90.58c6.11-.6 14.28-1.41 22.67-2.33"/></g></g><g id="kvg:08210-g4" kvg:element="氏" kvg:position="right"><path id="kvg:08210-s7" kvg:type="㇒" d="M83.74 11.5c.11.45.23 1.15-.22 1.8-2.7 3.79-15.64 10.95-28.86 15.04"/><path id="kvg:08210-s8" kvg:type="㇙" d="M52.08 27.08c2.02.84 2.17 3.14 2.17 5.67s-.39 53.56-.39 57.5-.25 5.06 3.02 2.25c3.28-2.81 11.68-9.56 13.7-11.25"/><path id="kvg:08210-s9" kvg:type="㇐" d="M54.42 49.42c.96.36 5.71-.3 6.67-.33 5.47-.21 22.17-3 29.5-3.5 1.59-.11 4.54-.02 5.33.17"/><path id="kvg:08210-s10" kvg:type="㇂" d="M71.92 24.58c1.3 19.43 6.69 51.91 18.5 65.33 7.33 8.33 6.83.33 6.33-5.67"/></g></g></g></svg>