<svg xmlns="http://www.w3.org/2000/svg" width="109" height="109" viewBox="0 0 109 109"><g id="kvg:StrokePaths_0822b" style="fill:none;stroke:#000000;stroke-width:3;stroke-linecap:round;stroke-linejoin:round;"><g id="kvg:0822b" kvg:element="舫"><g id="kvg:0822b-g1" kvg:element="舟" kvg:position="left" kvg:radical="general"><path id="kvg:0822b-s1" kvg:type="㇒" d="M27.89 11.17c.61 1.58.24 2.49-.11 4.09-.35 1.59-1.78 2.5-6.11 10.66"/><path id="kvg:0822b-s2" kvg:type="㇒" d="M16.92 28.42c.9 1.35 1.29 3.02 1.29 4.71.0 1.69.12 24.01.23 27.06C18.95 75.53 13.5 91.5 7.92 96.92"/><path id="kvg:0822b-s3" kvg:type="㇆a" d="M17.25 29.25c3.6-.61 13.91-2.56 17.17-3.17 3.26-.61 4.12.78 4.12 2.92s-.34 53.99-.34 57.05c0 11.7-6.26 2.81-6.94 2.2"/><path id="kvg:0822b-s4" kvg:type="㇔" d="M24.28 35.44c1.85 1.91 6.46 6.99 6.92 9.22"/><path id="kvg:0822b-s5" kvg:type="㇑" d="M26.75 56.08c1.12 1.59 1.41 2.43 1.41 3.7s.21 15.97-.24 19.13"/><path id="kvg:0822b-s6" kvg:type="㇀/㇐" d="M9.92 56.75c1.33 1.5 2.51 1.15 3.79.83S44.39 47.67 46 47.67"/></g><g id="kvg:0822b-g2" kvg:element="方" kvg:position="right"><g id="kvg:0822b-g3" kvg:element="亠" kvg:position="top"><path id="kvg:0822b-s7" kvg:type="㇑a" d="M68.58 11.92c1.47.63 2.65 1.83 2.65 4.4.0 4.58-.25 8.73.02 12.6"/><path id="kvg:0822b-s8" kvg:type="㇐" d="M45.42 31.42c1.63.25 3.08.33 5.83.17 10.73-.65 27.76-3.47 42.33-4 2.25-.08 4.17.17 5.83.83"/></g><g id="kvg:0822b-g4" kvg:position="bottom"><path id="kvg:0822b-s9" kvg:type="㇆a" d="M70.08 36.92c6.17 3.83 11.92 5.33 18.33 6.83 3.02.71 2.98 2.04 2.5 4.83-1.34 7.8-12.16 35.41-16 41.5-4.16 6.61-6.93-.45-8.17-1.33"/><path id="kvg:0822b-s10" kvg:type="㇒" d="M69.58 33.42c.38 1.58.62 2.56.17 4.33C66.62 49.98 57.71 76.92 43.67 88.5"/></g></g></g></g></svg>