<svg xmlns="http://www.w3.org/2000/svg" width="109" height="109" viewBox="0 0 109 109"><g id="kvg:StrokePaths_08236" style="fill:none;stroke:#000000;stroke-width:3;stroke-linecap:round;stroke-linejoin:round;"><g id="kvg:08236" kvg:element="舶"><g id="kvg:08236-g1" kvg:element="舟" kvg:position="left" kvg:radical="general"><path id="kvg:08236-s1" kvg:type="㇒" d="M34.95 13.75c.17 1.12-.09 2.03-.75 3.47-1.2 2.66-1.95 4.53-5.7 10.28"/><path id="kvg:08236-s2" kvg:type="㇒" d="M20.65 29.22c1.19 1.19 1.2 2.75 1.25 4.34C23 66 21 85.75 14.5 95.5"/><path id="kvg:08236-s3" kvg:type="㇆a" d="M22.75 31.31c5.75-1.31 15.33-3.23 19.1-4 2.15-.44 3.6.69 3.6 3.75.0 2.22.05 55.64.05 58.82.0 9.3-5.4 1.94-6.15 1.34"/><path id="kvg:08236-s4" kvg:type="㇔" d="M30.5 36.62c1.54 1.78 4.66 5.74 5.75 8.62"/><path id="kvg:08236-s5" kvg:type="㇑" d="M33.05 54.64c.97.97 1.2 2.29 1.2 3.56.0 3.3.1 9.46.1 15.3.0 2.13.0 3.25.0 4.91"/><path id="kvg:08236-s6" kvg:type="㇀/㇐" d="M11.5 58.5c.88 1.5 2.15 1.47 3.5 1 5.75-2 28.25-9.38 35.25-11.5"/></g><g id="kvg:08236-g2" kvg:element="白" kvg:position="right" kvg:phon="白"><g id="kvg:08236-g3" kvg:position="top"><path id="kvg:08236-s7" kvg:type="㇔" d="M73.75 15c.13 1.12-.11 1.92-.37 2.59-2.13 5.41-4.5 11.79-9.19 19.12"/></g><g id="kvg:08236-g4" kvg:element="日" kvg:position="bottom"><path id="kvg:08236-s8" kvg:type="㇑" d="M57.44 38.43c1.12 1.12 1.35 2.47 1.35 4.2.0 1.99.47 27.85.83 41.62.06 2.4.1 4.46.1 6"/><path id="kvg:08236-s9" kvg:type="㇕a" d="M59.62 39.99c4.02-.64 20.64-3.2 26.9-4.1 3.05-.44 5.28.19 5.28 3.87.0 4.09-.13 27.5-.61 42.74-.07 2.16-.14 4.17-.21 5.94"/><path id="kvg:08236-s10" kvg:type="㇐a" d="M59.84 61.51c7.91-1.01 25.91-3.06 30.66-3.06"/><path id="kvg:08236-s11" kvg:type="㇐a" d="M60.71 86.68c7.78-.7 21.04-1.86 29.33-2.18"/></g></g></g></g></svg>