<svg xmlns="http://www.w3.org/2000/svg" width="109" height="109" viewBox="0 0 109 109"><g id="kvg:StrokePaths_08238" style="fill:none;stroke:#000000;stroke-width:3;stroke-linecap:round;stroke-linejoin:round;"><g id="kvg:08238" kvg:element="舸"><g id="kvg:08238-g1" kvg:element="舟" kvg:position="left" kvg:radical="general"><path id="kvg:08238-s1" kvg:type="㇒" d="M29.58 12.08c1.2 1.99.2 3.01-.48 4.5C28 19 26.25 21.5 22.5 26.75"/><path id="kvg:08238-s2" kvg:type="㇒" d="M18.58 28.58c.9 1.33 1.5 3.17 1.5 4.83s-.25 23.56-.15 26.55c.59 17.42-7.22 30.47-11.02 36.11"/><path id="kvg:08238-s3" kvg:type="㇆a" d="M19.92 30.25c3.48-.62 13.33-2.66 16.47-3.28s2.98 1.23 2.98 3.38-.33 51.91-.33 54.99c0 14.65-5.04 5.9-6.45 4.07"/><path id="kvg:08238-s4" kvg:type="㇔" d="M25.36 36.02c1.69 2.03 5.92 7.44 6.34 9.8"/><path id="kvg:08238-s5" kvg:type="㇑" d="M27.86 57.14c1.18 1.62 1.42 2.6 1.42 3.89.0 1.3.0 17.4-.47 20.63"/><path id="kvg:08238-s6" kvg:type="㇀/㇐" d="M8.42 58.08c1.33 1.42 3.51.87 4.83.5s31.26-10.75 32.92-10.75"/></g><g id="kvg:08238-g2" kvg:element="可" kvg:position="right"><g id="kvg:08238-g3" kvg:element="丁" kvg:part="1"><g id="kvg:08238-g4" kvg:element="一"><path id="kvg:08238-s7" kvg:type="㇐" d="M46.58 24.08c1.06.49 4.17.92 6.67.5 6.25-1.04 29.58-3.62 38.33-4.17 2.67-.17 5.62.75 6.5 1"/></g></g><g id="kvg:08238-g5" kvg:element="口"><path id="kvg:08238-s8" kvg:type="㇑" d="M50.75 40.58c.35.46 1.35 1.92 1.5 2.5 1.2 4.56 2.01 18.15 2.83 26.33"/><path id="kvg:08238-s9" kvg:type="㇕b" d="M53.42 42.75c5.67-1 13.52-2.16 17.01-2.78 1.27-.23 1.96 1.33 1.86 2.69-.48 5.98-1.2 11.56-1.7 20.59"/><path id="kvg:08238-s10" kvg:type="㇐b" d="M55.25 65.92c4.27-.42 10.97-1.03 16.83-1.67"/></g><g id="kvg:08238-g6" kvg:element="丁" kvg:part="2"><g id="kvg:08238-g7" kvg:element="亅"><path id="kvg:08238-s11" kvg:type="㇚" d="M85.92 23.58c.07.44 2.32 2.72 2.39 5.52.32 13.44-.2 55.14-.2 59.71.0 11.93-5 3.26-6.18 2.1"/></g></g></g></g></g></svg>