<svg xmlns="http://www.w3.org/2000/svg" width="109" height="109" viewBox="0 0 109 109"><g id="kvg:StrokePaths_08258"><g id="kvg:08258" kvg:element="艘"><g id="kvg:08258-g1" kvg:element="舟" kvg:position="left" kvg:radical="general"><path id="kvg:08258-s1" kvg:type="㇒" d="M29.42 9.75c.33 1.25.53 2.1-.3 3.5-2.36 4-3.36 6.5-6.28 10.16"/><path id="kvg:08258-s2" kvg:type="㇒" d="M18.42 25.08c.79 1.36 1 2.46 1 4.17s-.07 22.44.02 25.5c.54 18.58-2.44 31-9.69 39.5"/><path id="kvg:08258-s3" kvg:type="㇆a" d="M19.25 26.08c3.32-.65 12.21-2.21 15.27-2.44 1.98-.15 3.34.8 3.34 3.08s-.32 57.09-.32 60.35c0 10.92-6 3.65-6.63 3"/><path id="kvg:08258-s4" kvg:type="㇔" d="M24.36 31.69c1.38 2.2 4.83 8.07 5.17 10.63"/><path id="kvg:08258-s5" kvg:type="㇑" d="M26.16 55.3c1.37 1.51 1.64 2.42 1.64 3.63s-.22 15.98-.22 19.48"/><path id="kvg:08258-s6" kvg:type="㇀/㇐" d="M9.42 55.42c.38 1.34 2.86 2.18 4.07 1.82 1.2-.36 28.68-11.07 30.18-11.07"/></g><g id="kvg:08258-g2" kvg:element="叟" kvg:position="right"><g id="kvg:08258-g3" kvg:position="top"><g id="kvg:08258-g4" kvg:element="丨"><path id="kvg:08258-s7" kvg:type="㇑" d="M65.69 10.75c.87.47 1.39 2.11 1.56 3.05s0 39.18-.17 45.04"/></g><g id="kvg:08258-g5" kvg:element="𦥑" kvg:variant="true" kvg:original="臼"><path id="kvg:08258-s8" kvg:type="㇒" d="M58.77 18.87c.03.16-.66 1.3-.85 1.48-2.48 2.33-4.29 3.59-9.93 5.45"/><path id="kvg:08258-s9" kvg:type="㇑" d="M45.42 25.08c1.58.92 2.35 2.39 2.5 3.83.53 5.26 1.97 14.21 2.5 21.33"/><path id="kvg:08258-s10" kvg:type="㇐" d="M49.42 36.08c2.9-.32 7.14-1.33 7.83-1.33s3.28.17 3.83.17"/><path id="kvg:08258-s11" kvg:type="㇐" d="M50.92 47.75c3.46-.56 7.353309-.632083 10.379018-.672083"/><path id="kvg:08258-s12" kvg:type="㇕" d="M74.76 20.27c.62.15 2.79.65 3.66.65.86.0 7.71-2.01 8.7-2.16.99-.15 1.81.75 1.73 1.66-.74 8.77-3.64 26.23-3.76 26.83"/><path id="kvg:08258-s13" kvg:type="㇐" d="M73.58 32.75c.69.16 2.2.83 3.17.83s8.23-1.01 9.33-1.17"/><path id="kvg:08258-s14" kvg:type="㇐" d="M73.008675 46.920028c.516596.102843 1.031831.242231 1.466875.248099.969911.01308 8.00417-.485705 9.10417-.645705"/></g></g><g id="kvg:08258-g6" kvg:element="又" kvg:position="bottom"><path id="kvg:08258-s15" kvg:type="㇇" d="M49.25 60.58c1.43.28 2.62 1.17 5.5.83 5.75-.67 22.54-4.08 24.5-4.5 1.96-.42 3.79 2.67 2.95 4.08C72.03 77.97 57.95 89.63 41.91 96.5"/><path id="kvg:08258-s16" kvg:type="㇏" d="M50.75 66.58c3.92.11 28.9 22.22 39.38 27.85 2.24 1.21 3.88 2.01 5.97 2.41"/></g></g></g></g></svg>