<!DOCTYPE svg PUBLIC "-//W3C//DTD SVG 1.0//EN" "http://www.w3.org/TR/2001/REC-SVG-20010904/DTD/svg10.dtd" [
<!ATTLIST g
xmlns:kvg CDATA #FIXED "http://kanjivg.tagaini.net"
kvg:element CDATA #IMPLIED
kvg:variant CDATA #IMPLIED
kvg:partial CDATA #IMPLIED
kvg:original CDATA #IMPLIED
kvg:part CDATA #IMPLIED
kvg:number CDATA #IMPLIED
kvg:tradForm CDATA #IMPLIED
kvg:radicalForm CDATA #IMPLIED
kvg:position CDATA #IMPLIED
kvg:radical CDATA #IMPLIED
kvg:phon CDATA #IMPLIED >
<!ATTLIST path
xmlns:kvg CDATA #FIXED "http://kanjivg.tagaini.net"
kvg:type CDATA #IMPLIED >
]><svg xmlns="http://www.w3.org/2000/svg" width="109" height="109" viewBox="0 0 109 109"><g id="kvg:StrokePaths_08266" style="fill:none;stroke:#000000;stroke-width:3;stroke-linecap:round;stroke-linejoin:round;"><g id="kvg:08266" kvg:element="艦"><g id="kvg:08266-g1" kvg:element="舟" kvg:position="left" kvg:radical="general"><path id="kvg:08266-s1" kvg:type="㇒" d="M29.91 14c.46 1.25.34 2.38-.17 3.65-.56 1.43-2 4.72-4.9 10.09"/><path id="kvg:08266-s2" kvg:type="㇒" d="M19.59 28.92c.69 1.25 1.07 2.43 1.11 3.99 1.04 33.34-.46 48.84-8.34 60.1"/><path id="kvg:08266-s3" kvg:type="㇆a" d="M21.23 30.73c3.05-.53 10.02-2.15 14.12-3.03 4.76-1.02 5.09.45 5.07 4.8-.05 9.62-.34 53.69-.34 56.53.0 6.02-2.25 4.05-5.36 1.25"/><path id="kvg:08266-s4" kvg:type="㇔" d="M28.81 38.31c1.12 1.38 3.91 5.08 4.19 6.69"/><path id="kvg:08266-s5" kvg:type="㇑" d="M28.27 57.09c.89.89 1.29 1.79 1.29 3.24.0 2.49-.03 9.25-.04 13.67-.01 1.65-.01 2.97-.01 3.62"/><path id="kvg:08266-s6" kvg:type="㇀/㇐" d="M12.25 56.78c.62 1.1 1.69 1.2 2.85.91 1.15-.28 24.4-6.69 29.4-8.19"/></g><g id="kvg:08266-g2" kvg:element="監" kvg:position="right" kvg:phon="監"><g id="kvg:08266-g3" kvg:position="top"><g id="kvg:08266-g4" kvg:element="臣" kvg:position="left"><path id="kvg:08266-s7" kvg:type="㇑" d="M50.8 20.51c.78.78 1.09 1.99 1.09 3.02.0.38.07 20.38.02 30.23-.01 2.49-.03 4.28-.04 4.87"/><path id="kvg:08266-s8" kvg:type="㇐b" d="M52.72 22.17c4.36-.58 11.21-1.87 15.4-2.38.81-.1 2.44-.45 3.33-.16"/><path id="kvg:08266-s9" kvg:type="㇑a" d="M60.97 22.27c.56.5.68.88.68 1.92.01 2.4-.03 5.07-.03 7.18"/><path id="kvg:08266-s10" kvg:type="㇕b" d="M53.35 33.89c5.2-.86 10.3-1.75 13.91-2.34 1.46-.24 1.87.73 1.66 1.99-.37 2.28-.91 4.87-1.29 7.61"/><path id="kvg:08266-s11" kvg:type="㇐b" d="M53.12 44.62c1.73-.28 9.54-1.48 13.89-2.07 1.11-.15 1.96-.26 2.38-.3"/><path id="kvg:08266-s12" kvg:type="㇑a" d="M61.2 44.83c.17.59.68 1 .68 1.82.0 2.69.04 5.71-.01 7.73"/><path id="kvg:08266-s13" kvg:type="㇐b" d="M53.08 57.12c3.49-.53 9.65-1.87 14.54-2.5.84-.11 2.59-.29 3.55.03"/></g><g id="kvg:08266-g5" kvg:position="right"><g id="kvg:08266-g6" kvg:element="𠂉"><path id="kvg:08266-s14" kvg:type="㇒" d="M82.27 16c.05 1.09.02 1.93-.34 2.97-1.76 5.16-4.76 12.65-8.93 19.4"/><path id="kvg:08266-s15" kvg:type="㇐" d="M80.45 30.18c1.05.2 1.8.31 2.45.24 3.98-.42 5.85-1.17 10.17-1.82 1.08-.16 2.04-.22 2.57.02"/></g><path id="kvg:08266-s16" kvg:type="㇐" d="M75.61 50.15c1.34.53 2.2.49 3.62.35 4.26-.4 7.44-.68 11.14-1.16 1.24-.16 2.26-.32 3.48.11"/></g></g><g id="kvg:08266-g7" kvg:element="皿" kvg:position="bottom"><path id="kvg:08266-s17" kvg:type="㇑a" d="M54.4 66.98c.69.69 1.06 1.39 1.11 2.25C56 77.5 56 82.25 56.16 90.1"/><path id="kvg:08266-s18" kvg:type="㇕b" d="M56.12 68.71c7.6-.82 25.76-2.8 31.5-3.3 2.71-.24 3.67.55 3.25 3.44-.6 4.2-1.87 11.65-2.95 18.7"/><path id="kvg:08266-s19" kvg:type="㇑a" d="M65.54 68.85c.68.68 1.11 1.88 1.01 2.77.26 6.04.62 10.72 1.04 17.26"/><path id="kvg:08266-s20" kvg:type="㇑a" d="M78.18 67.84c.61.62.69 1.41.61 2.37-.55 6.08-1 10.02-1.66 17.8"/><path id="kvg:08266-s21" kvg:type="㇐" d="M47.98 91.14c2.52.48 4.92.61 6.89.33 12.13-1.72 22.5-2.85 36.5-3.23 2.13-.06 4 .14 5.75.48"/></g></g></g></g><g id="kvg:StrokeNumbers_08266" style="font-size:8;fill:#808080"><text transform="matrix(1 0 0 1 22.50 12.13)">1</text><text transform="matrix(1 0 0 1 13.50 37.63)">2</text><text transform="matrix(1 0 0 1 18.75 26.50)">3</text><text transform="matrix(1 0 0 1 28.50 36.50)">4</text><text transform="matrix(1 0 0 1 24.50 64.50)">5</text><text transform="matrix(1 0 0 1 4.50 59.50)">6</text><text transform="matrix(1 0 0 1 44.25 30.13)">7</text><text transform="matrix(1 0 0 1 53.25 18.13)">8</text><text transform="matrix(1 0 0 1 64.50 27.50)">9</text><text transform="matrix(1 0 0 1 53.25 31.50)">10</text><text transform="matrix(1 0 0 1 53.25 42.50)">11</text><text transform="matrix(1 0 0 1 63.50 50.83)">12</text><text transform="matrix(1 0 0 1 53.25 54.50)">13</text><text transform="matrix(1 0 0 1 71.50 13.50)">14</text><text transform="matrix(1 0 0 1 83.50 27.05)">15</text><text transform="matrix(1 0 0 1 74.50 47.50)">16</text><text transform="matrix(1 0 0 1 45.50 75.50)">17</text><text transform="matrix(1 0 0 1 56.25 65.50)">18</text><text transform="matrix(1 0 0 1 57.75 76.50)">19</text><text transform="matrix(1 0 0 1 69.50 74.50)">20</text><text transform="matrix(1 0 0 1 44.50 88.63)">21</text></g></svg>