<svg xmlns="http://www.w3.org/2000/svg" width="109" height="109" viewBox="0 0 109 109"><g id="kvg:StrokePaths_08272" style="fill:none;stroke:#000000;stroke-width:3;stroke-linecap:round;stroke-linejoin:round;"><g id="kvg:08272" kvg:element="色" kvg:radical="general"><g id="kvg:08272-g1" kvg:element="𠂊" kvg:variant="true" kvg:original="勹" kvg:position="top"><path id="kvg:08272-s1" kvg:type="㇒" d="M45.25 13.25c.17 1.43-.1 2.57-.83 3.84-3.13 5.47-13.88 15.19-21.17 20.16"/><path id="kvg:08272-s2" kvg:type="㇇a" d="M45 18.63c1 .37 2.33.44 4.03.25 5.6-.63 11.85-1.63 15.41-1.89 2.57-.19 3.31 1.14 1.81 2.76C61.69 24.69 55.75 32.25 51 39"/></g><g id="kvg:08272-g2" kvg:element="巴" kvg:position="bottom"><g id="kvg:08272-g3" kvg:element="己" kvg:original="巳"><path id="kvg:08272-s3" kvg:type="㇕" d="M26.86 42.28c1.64 1.35 5.23.67 6.68.46 14.93-2.18 31.33-4.39 39.68-5.21 2.79-.27 3.92 1.73 3.69 3.81-.4 3.68-1.02 8.04-1.65 13.54-.12 1.09-.38 2.12-.38 3.5"/><path id="kvg:08272-s4" kvg:type="㇑a" d="M50.66 42.39c.91.91 1.62 2.37 1.45 3.91-.6 5.45-.85 7.45-1.1 11.7"/><path id="kvg:08272-s5" kvg:type="㇐a" d="M30.1 61.37c4.1-.3 32.05-3.82 43.4-5.11"/><path id="kvg:08272-s6" kvg:type="㇟" d="M28.11 43.28c.64.72.97 1.42.97 2.95.0 9.03-.08 27.91-.08 33.28.0 14.5 3.25 15.87 29.84 15.87 29.16.0 30.18-2.62 30.18-13.12"/></g></g></g></g></svg>