<!DOCTYPE svg PUBLIC "-//W3C//DTD SVG 1.0//EN" "http://www.w3.org/TR/2001/REC-SVG-20010904/DTD/svg10.dtd" [
<!ATTLIST g
xmlns:kvg CDATA #FIXED "http://kanjivg.tagaini.net"
kvg:element CDATA #IMPLIED
kvg:variant CDATA #IMPLIED
kvg:partial CDATA #IMPLIED
kvg:original CDATA #IMPLIED
kvg:part CDATA #IMPLIED
kvg:number CDATA #IMPLIED
kvg:tradForm CDATA #IMPLIED
kvg:radicalForm CDATA #IMPLIED
kvg:position CDATA #IMPLIED
kvg:radical CDATA #IMPLIED
kvg:phon CDATA #IMPLIED >
<!ATTLIST path
xmlns:kvg CDATA #FIXED "http://kanjivg.tagaini.net"
kvg:type CDATA #IMPLIED >
]><svg xmlns="http://www.w3.org/2000/svg" width="109" height="109" viewBox="0 0 109 109"><g id="kvg:StrokePaths_08299" style="fill:none;stroke:#000000;stroke-width:3;stroke-linecap:round;stroke-linejoin:round;"><g id="kvg:08299" kvg:element="芙"><g id="kvg:08299-g1" kvg:element="艹" kvg:variant="true" kvg:original="艸" kvg:position="top" kvg:radical="general"><path id="kvg:08299-s1" kvg:type="㇐" d="M19.25 23.18c2.77.73 5.91.85 8.76.55 14.37-1.49 34.87-3.11 50.5-3.73 3.43-.14 6.79.14 10.16.67"/><path id="kvg:08299-s2" kvg:type="㇑a" d="M35.44 12.2c1.18 1.18 1.63 2.44 1.75 3.37C38 21.62 39 29.62 39.66 34.25"/><path id="kvg:08299-s3" kvg:type="㇑a" d="M69.26 10.67c.34 1.16.39 1.96.12 3.44-1.28 7.14-2.25 12.27-3.6 18.61"/></g><g id="kvg:08299-g2" kvg:element="夫" kvg:position="bottom"><path id="kvg:08299-s4" kvg:type="㇐" d="M29.03 48.19c3.2.5 6.27.31 9.47.01 8.7-.81 21.89-2.4 30.99-3 3.24-.21 6.69-.56 9.89.11"/><g id="kvg:08299-g3" kvg:element="大"><path id="kvg:08299-s5" kvg:type="㇐" d="M20.44 65.56c3.93.63 6.93.69 11.44.19 13.68-1.51 36.43-3.37 48.11-3.91 2.94-.14 6.29-.19 9.18.44"/><path id="kvg:08299-s6" kvg:type="㇒" d="M53.35 33c.58 1.02.79 1.97.8 3.95.24 36.47-6.77 49.18-33.58 62.8"/><path id="kvg:08299-s7" kvg:type="㇏" d="M54.38 64.75c7.3 7.89 16.88 17.5 26.75 26 2.68 2.3 6.25 4.87 10.31 6.48"/></g></g></g></g><g id="kvg:StrokeNumbers_08299" style="font-size:8;fill:#808080"><text transform="matrix(1 0 0 1 12.25 23.25)">1</text><text transform="matrix(1 0 0 1 26.25 12.25)">2</text><text transform="matrix(1 0 0 1 60.25 10.25)">3</text><text transform="matrix(1 0 0 1 22.25 49.25)">4</text><text transform="matrix(1 0 0 1 13.25 67.25)">5</text><text transform="matrix(1 0 0 1 43.25 34.25)">6</text><text transform="matrix(1 0 0 1 66.25 73.25)">7</text></g></svg>