<svg xmlns="http://www.w3.org/2000/svg" width="109" height="109" viewBox="0 0 109 109"><g id="kvg:StrokePaths_08292" style="fill:none;stroke:#000000;stroke-width:3;stroke-linecap:round;stroke-linejoin:round;"><g id="kvg:08292" kvg:element="芒"><g id="kvg:08292-g1" kvg:element="艹" kvg:variant="true" kvg:original="艸" kvg:position="top" kvg:radical="general"><path id="kvg:08292-s1" kvg:type="㇐" d="M15.28 26.97c2.11.61 4.56.73 6.68.61 19.38-1.11 41.05-4.65 63.39-4.73 3.51-.01 5.62.29 7.38.59"/><path id="kvg:08292-s2" kvg:type="㇑a" d="M35.69 13.69c1.81.81 2.66 2.05 2.77 3.05 1.05 9.52 1.49 15.44 2.05 18.77"/><path id="kvg:08292-s3" kvg:type="㇑a" d="M68.25 10.75c1.25 1.11 2.07 2.8 1.66 4.43-1.25 4.98-2.08 13.29-3.88 19.66"/></g><g id="kvg:08292-g2" kvg:element="亡" kvg:position="bottom"><g id="kvg:08292-g3" kvg:element="亠"><path id="kvg:08292-s4" kvg:type="㇑a" d="M51.81 33.86c.86.46 2.18 2.56 2.17 3.48.0 3.39-.18 8.86-.02 11.73"/><g id="kvg:08292-g4" kvg:element="匸" kvg:part="1" kvg:variant="true" kvg:original="匚"><path id="kvg:08292-s5" kvg:type="㇐" d="M21.72717 51.17c1.6.11 5.25.78 6.81.62 12.58-1.3 40.90283-3.64 56.87283-3.97 2.64-.06 3.99.05 5.95.79"/></g></g><g id="kvg:08292-g5" kvg:element="匸" kvg:part="2" kvg:variant="true" kvg:original="匚"><path id="kvg:08292-s6" kvg:type="㇄a" d="M19.54809 50.025164c.96.88 1.44 3.4 1.44 4.62.0 10.87.0 25.894836.0 30.004836.0 4.58.61 9.69 11.36 10.36 11.65.72 41.49191-.15 44.13191-.24 4.56-.16 8.45-.64 10.78-1.2"/></g></g></g></g></svg>