<!DOCTYPE svg PUBLIC "-//W3C//DTD SVG 1.0//EN" "http://www.w3.org/TR/2001/REC-SVG-20010904/DTD/svg10.dtd" [
<!ATTLIST g
xmlns:kvg CDATA #FIXED "http://kanjivg.tagaini.net"
kvg:element CDATA #IMPLIED
kvg:variant CDATA #IMPLIED
kvg:partial CDATA #IMPLIED
kvg:original CDATA #IMPLIED
kvg:part CDATA #IMPLIED
kvg:number CDATA #IMPLIED
kvg:tradForm CDATA #IMPLIED
kvg:radicalForm CDATA #IMPLIED
kvg:position CDATA #IMPLIED
kvg:radical CDATA #IMPLIED
kvg:phon CDATA #IMPLIED >
<!ATTLIST path
xmlns:kvg CDATA #FIXED "http://kanjivg.tagaini.net"
kvg:type CDATA #IMPLIED >
]><svg xmlns="http://www.w3.org/2000/svg" width="109" height="109" viewBox="0 0 109 109"><g id="kvg:StrokePaths_082ac" style="fill:none;stroke:#000000;stroke-width:3;stroke-linecap:round;stroke-linejoin:round;"><g id="kvg:082ac" kvg:element="芬"><g id="kvg:082ac-g1" kvg:element="艹" kvg:variant="true" kvg:original="艸" kvg:position="top" kvg:radical="general"><path id="kvg:082ac-s1" kvg:type="㇐" d="M16.42 22.42c1.29.53 4.33.83 7.43.63 11.91-.78 46.9-3.99 60.62-4.03 3.53-.01 6.7.97 7.78 1.24"/><path id="kvg:082ac-s2" kvg:type="㇑a" d="M35.58 11.42c1.67.83 2.55 2.06 2.67 2.83 1.25 8 2 12.25 2.17 15.33"/><path id="kvg:082ac-s3" kvg:type="㇑a" d="M67.25 9.42c1.21.85 1.37 2.91 1 4.17-1.5 5.17-1.8 10.13-3.55 15"/></g><g id="kvg:082ac-g2" kvg:element="分" kvg:position="bottom"><g id="kvg:082ac-g3" kvg:element="八" kvg:position="top"><path id="kvg:082ac-s4" kvg:type="㇒" d="M36.86 42.3c.44.76-.1 1.62-.61 2.57C32 52.71 20.02 64.5 11.09 67.84"/><path id="kvg:082ac-s5" kvg:type="㇏" d="M53.44 32.95C65.2 35.73 76.46 52.86 86.26 57.3c3.79 1.72 5.15 2.64 8.82 3.2"/></g><g id="kvg:082ac-g4" kvg:element="刀" kvg:position="bottom"><path id="kvg:082ac-s6" kvg:type="㇆" d="M33.58 58.75c1.21.47 4.17 1.25 6.67 1 8.67-.87 23.39-3.19 28.17-3.67 3.1-.31 4.83.39 4.66 2.56-.46 5.76-5.33 27.51-9.16 34.44-4.2 7.58-5.55 2.45-9-.83"/><path id="kvg:082ac-s7" kvg:type="㇒" d="M47.24 61.56c.08.81.27 2.14-.17 3.27C42.24 77.42 35.74 87.4 19.92 97.61"/></g></g></g></g><g id="kvg:StrokeNumbers_082ac" style="font-size:8;fill:#808080"><text transform="matrix(1 0 0 1 9.25 22.25)">1</text><text transform="matrix(1 0 0 1 26.25 11.60)">2</text><text transform="matrix(1 0 0 1 57.25 9.25)">3</text><text transform="matrix(1 0 0 1 28.25 41.25)">4</text><text transform="matrix(1 0 0 1 46.25 35.25)">5</text><text transform="matrix(1 0 0 1 37.25 56.25)">6</text><text transform="matrix(1 0 0 1 37.25 69.25)">7</text></g></svg>