<svg xmlns="http://www.w3.org/2000/svg" width="109" height="109" viewBox="0 0 109 109"><g id="kvg:StrokePaths_082b3"><g id="kvg:082b3" kvg:element="芳"><g id="kvg:082b3-g1" kvg:element="艹" kvg:variant="true" kvg:original="艸" kvg:position="top" kvg:radical="general"><path id="kvg:082b3-s1" kvg:type="㇐" d="M18.5 25.52c2.4.98 6.24 1.25 8.76.91 15.99-2.18 38.93-4.62 53.11-5.28 2.95-.14 6.25.18 9.12.88"/><path id="kvg:082b3-s2" kvg:type="㇑a" d="M36.5 13.25c.88.88 1.5 2 1.75 3.75 1.23 8.58 1.12 10.75 1.75 17.5"/><path id="kvg:082b3-s3" kvg:type="㇑a" d="M70.25 10.75c.42 1.18.22 2.3-.25 3.75-2.75 8.5-4 13.38-6 19"/></g><g id="kvg:082b3-g2" kvg:element="方" kvg:position="bottom" kvg:phon="方"><g id="kvg:082b3-g3" kvg:element="亠" kvg:position="top"><path id="kvg:082b3-s4" kvg:type="㇑a" d="M52.84 32.52c1.13 1.13 1.52 2.61 1.52 4.28.0 1.46-.11 6.46-.11 8.08"/><path id="kvg:082b3-s5" kvg:type="㇐" d="M14 48.37c3.62.88 6.66.48 10.25.13 13.58-1.32 43.9-3.8 59.62-4.78 3.29-.21 7.77-.21 10.88.95"/></g><g id="kvg:082b3-g4" kvg:position="bottom"><path id="kvg:082b3-s6" kvg:type="㇆a" d="M50.34 60.27c7.66 1.98 16.49 2.1 22.24 1.69 3.38-.24 5.27 1.25 4.21 4.64-2.17 6.95-12.49 25.57-16.78 29.27-5.07 4.38-7.51-.37-8.48-2.76"/><path id="kvg:082b3-s7" kvg:type="㇒" d="M53.01 49.77c.09 1-.11 2.38-.69 3.77-4 9.6-14.94 27.59-33.07 37.73"/></g></g></g></g></svg>