<!DOCTYPE svg PUBLIC "-//W3C//DTD SVG 1.0//EN" "http://www.w3.org/TR/2001/REC-SVG-20010904/DTD/svg10.dtd" [
<!ATTLIST g
xmlns:kvg CDATA #FIXED "http://kanjivg.tagaini.net"
kvg:element CDATA #IMPLIED
kvg:variant CDATA #IMPLIED
kvg:partial CDATA #IMPLIED
kvg:original CDATA #IMPLIED
kvg:part CDATA #IMPLIED
kvg:number CDATA #IMPLIED
kvg:tradForm CDATA #IMPLIED
kvg:radicalForm CDATA #IMPLIED
kvg:position CDATA #IMPLIED
kvg:radical CDATA #IMPLIED
kvg:phon CDATA #IMPLIED >
<!ATTLIST path
xmlns:kvg CDATA #FIXED "http://kanjivg.tagaini.net"
kvg:type CDATA #IMPLIED >
]><svg xmlns="http://www.w3.org/2000/svg" width="109" height="109" viewBox="0 0 109 109"><g id="kvg:StrokePaths_082d2" style="fill:none;stroke:#000000;stroke-width:3;stroke-linecap:round;stroke-linejoin:round;"><g id="kvg:082d2" kvg:element="苒"><g id="kvg:082d2-g1" kvg:element="艹" kvg:variant="true" kvg:original="艸" kvg:position="top" kvg:radical="general"><path id="kvg:082d2-s1" kvg:type="㇐" d="M15.75 22.75c1.29.53 5 .75 8.33.5 11.91-.89 46.67-3.19 60.39-3.24 3.28-.01 7.54.47 8.61.74"/><path id="kvg:082d2-s2" kvg:type="㇑a" d="M34.42 11.08c1.58.67 3.16 2.82 3.33 3.67 1.64 7.93 1.7 14.95 2.17 17.83"/><path id="kvg:082d2-s3" kvg:type="㇑a" d="M68.75 9.25c1 1 1.74 2.83 1.33 4.33-1.23 4.57-2.22 12.16-4 18"/></g><g id="kvg:082d2-g2" kvg:element="冉" kvg:position="bottom"><g id="kvg:082d2-g3" kvg:element="冂"><path id="kvg:082d2-s4" kvg:type="㇑" d="M26.58 39.42c2.17.83 3.21 3.08 3.21 5.87.0 1.99.16 47.9.16 51.21"/><path id="kvg:082d2-s5" kvg:type="㇆a" d="M29.75 42.42c6.71-.88 44.66-3.37 45.98-3.68 2.82-.66 4.9 1.61 4.59 2.65-.53 1.76-.56 43.13-.56 48.2.0 8.16-5.17 2.86-7.5 1.17"/></g><g id="kvg:082d2-g4" kvg:element="土" kvg:variant="true"><path id="kvg:082d2-s6" kvg:type="㇑a" d="M51.25 26.75c1.25.25 2.69 2.14 2.69 4 0 12-.19 21.96-.19 37.83"/><path id="kvg:082d2-s7" kvg:type="㇐a" d="M30.75 56.25c13.11-1.05 33.81-2.5 48-3.33"/><path id="kvg:082d2-s8" kvg:type="㇐" d="M13.92 71.08c2.58.67 6.58.67 9.5.5 17.99-1.03 50.24-2.74 66.33-3.17 2.42-.06 5.5.08 7.33 1"/></g></g></g></g><g id="kvg:StrokeNumbers_082d2" style="font-size:8;fill:#808080"><text transform="matrix(1 0 0 1 8.25 23.25)">1</text><text transform="matrix(1 0 0 1 26.25 12.25)">2</text><text transform="matrix(1 0 0 1 59.46 10.25)">3</text><text transform="matrix(1 0 0 1 20.00 45.25)">4</text><text transform="matrix(1 0 0 1 32.25 39.25)">5</text><text transform="matrix(1 0 0 1 45.25 34.25)">6</text><text transform="matrix(1 0 0 1 33.25 53.25)">7</text><text transform="matrix(1 0 0 1 6.25 72.25)">8</text></g></svg>