<svg xmlns="http://www.w3.org/2000/svg" width="109" height="109" viewBox="0 0 109 109"><g id="kvg:StrokePaths_082d3"><g id="kvg:082d3" kvg:element="苓"><g id="kvg:082d3-g1" kvg:element="艹" kvg:variant="true" kvg:original="艸" kvg:position="top" kvg:radical="general"><path id="kvg:082d3-s1" kvg:type="㇐" d="M16.5 22.74c1.41.56 3.04.67 4.45.56 12.93-1.01 50.97-4.71 65.87-4.78 2.34-.01 3.75.26 4.92.54"/><path id="kvg:082d3-s2" kvg:type="㇑a" d="M36.25 11c1.75 1.43 2.31 1.87 2.5 2.75C40.5 22 40 29 40.5 32"/><path id="kvg:082d3-s3" kvg:type="㇑a" d="M67.25 8.75c1.12 1 1.87 2.52 1.5 4-1.12 4.5-1.88 11.5-3.5 17.25"/></g><g id="kvg:082d3-g2" kvg:element="令" kvg:position="bottom"><g id="kvg:082d3-g3" kvg:element="人" kvg:position="top"><path id="kvg:082d3-s4" kvg:type="㇒" d="M52.13 27.5c.11.9.49 2.36-.22 3.62-4.49 7.93-18.73 24.16-35.41 33.8"/><path id="kvg:082d3-s5" kvg:type="㇏" d="M52.6 30.57c6.44 4.56 29.9 23.01 35.34 26.8 1.85 1.29 4.22 1.84 6.06 2.2"/></g><g id="kvg:082d3-g4" kvg:position="bottom"><g id="kvg:082d3-g5" kvg:element="一"><path id="kvg:082d3-s6" kvg:type="㇔" d="M47.67 48.26c4.42 1.71 11.42 7.02 12.52 9.67"/></g><g id="kvg:082d3-g6" kvg:element="マ"><path id="kvg:082d3-s7" kvg:type="㇆a" d="M29.15 66.46c1.28.73 3.97 1.09 5.43.9 2.88-.37 38.71-4 41.75-4.36 3.04-.37 3.3 1.36 1.12 3.31-5.11 4.56-20.98 18.95-22.9 20.41"/><path id="kvg:082d3-s8" kvg:type="㇔" d="M40.26 77.5c5.69 2.75 20.41 13.31 23.09 20.5"/></g></g></g></g></g></svg>