<svg xmlns="http://www.w3.org/2000/svg" width="109" height="109" viewBox="0 0 109 109"><g id="kvg:StrokePaths_082e5"><g id="kvg:082e5" kvg:element="若"><g id="kvg:082e5-g1" kvg:element="艹" kvg:variant="true" kvg:original="艸" kvg:position="top" kvg:radical="general"><path id="kvg:082e5-s1" kvg:type="㇐" d="M18.75 28.85c2.88.77 6.08.66 8.75.39 15.87-1.62 38.37-3.62 54.25-4.39 2.88-.14 6.2-.02 9 .66"/><path id="kvg:082e5-s2" kvg:type="㇑a" d="M36.23 15.33c.91.91 1.77 2.17 2.05 3.8 1.43 8.47 3.31 17.05 3.82 20.11"/><path id="kvg:082e5-s3" kvg:type="㇑a" d="M70.16 11.77c.34.98.4 2.15.08 3.67-1.84 8.92-2.5 12.19-4.44 21.27"/></g><g id="kvg:082e5-g2" kvg:element="右" kvg:position="bottom"><path id="kvg:082e5-s4" kvg:type="㇒" d="M49.75 42.75c.37 1 .43 2.33.04 3.61C46.5 57.25 38.25 73 24.25 82.75"/><path id="kvg:082e5-s5" kvg:type="㇐" d="M12 56.9c3.25.85 6.39 1.01 9.39.66 19.3-2.24 48.36-5.3 63.12-5.99 3.56-.17 7-.2 10.49.68"/><g id="kvg:082e5-g3" kvg:element="口"><path id="kvg:082e5-s6" kvg:type="㇑" d="M39.25 73.25c.94.94 1.38 2.25 1.57 3.51.8 5.24 1.47 11.39 1.98 16.49.28 2.74.46 4.91.46 5.75"/><path id="kvg:082e5-s7" kvg:type="㇕b" d="M41.5 74.83c8.12-1.21 26.75-3.46 34.13-4.11 4.1-.36 6.12 1.53 5.25 5.28-1.1 4.71-3.24 11.31-4.44 16"/><path id="kvg:082e5-s8" kvg:type="㇐b" d="M44.25 95.25c6.17-.21 21.23-1.55 30.52-2.1C76.4 93.06 77.84 93 79 93"/></g></g></g></g></svg>