<svg xmlns="http://www.w3.org/2000/svg" width="109" height="109" viewBox="0 0 109 109"><g id="kvg:StrokePaths_08305"><g id="kvg:08305" kvg:element="茅"><g id="kvg:08305-g1" kvg:element="艹" kvg:variant="true" kvg:original="艸" kvg:position="top" kvg:radical="general"><path id="kvg:08305-s1" kvg:type="㇐" d="M20.25 24.02c3.12.48 6.18.46 8.87.15 14.75-1.67 37.19-3.69 51.25-4.28 3.34-.14 6.37-.17 9.62.63"/><path id="kvg:08305-s2" kvg:type="㇑a" d="M38.75 12.25c1.19 1.19 1.6 2.61 1.75 3.5 1 6 1.75 11.5 2.25 14.5"/><path id="kvg:08305-s3" kvg:type="㇑a" d="M67.75 10.5c.42 1.18.41 2.28.0 3.75-1.25 4.5-2.5 10.5-3.25 13"/></g><g id="kvg:08305-g2" kvg:element="矛" kvg:position="bottom"><g id="kvg:08305-g3" kvg:element="予"><g id="kvg:08305-g4" kvg:element="マ" kvg:position="top"><path id="kvg:08305-s4" kvg:type="㇇" d="M33.06 36.09c2.42.64 4.75.6 7.18.28 7.2-.94 26.77-3.55 29.62-3.89 3.29-.39 3.86 1.57 1.95 2.93-4.19 2.97-12.17 8.93-14.37 10.58"/><path id="kvg:08305-s5" kvg:type="㇔" d="M48.04 42.2c2.55 1 9.16 4.87 10.37 7.5"/></g><g id="kvg:08305-g5" kvg:element="了" kvg:position="bottom"><path id="kvg:08305-s6" kvg:type="㇇" d="M22.35 55.61c3.01.8 5.86.46 8.88-.02C47.75 53 68.5 50.88 82.39 50.65c7.74-.13.38 7.02-2.6 8.55"/><g id="kvg:08305-g6" kvg:element="亅"><path id="kvg:08305-s7" kvg:type="㇁" d="M56.2 55.64c4.05 5.61 6.3 22.61 2.45 36.28-1.92 6.81-7.15 2.08-9.57-.05"/></g></g></g><g id="kvg:08305-g7" kvg:element="丿"><path id="kvg:08305-s8" kvg:type="㇒" d="M55.05 53.89c.19 1.54-.84 2.81-1.7 3.94-6.43 8.46-17.23 20.42-34.71 29.75"/></g></g></g></g></svg>