<svg xmlns="http://www.w3.org/2000/svg" width="109" height="109" viewBox="0 0 109 109"><g id="kvg:StrokePaths_0830e" style="fill:none;stroke:#000000;stroke-width:3;stroke-linecap:round;stroke-linejoin:round;"><g id="kvg:0830e" kvg:element="茎"><g id="kvg:0830e-g1" kvg:element="艹" kvg:variant="true" kvg:original="艸" kvg:position="top" kvg:radical="general"><path id="kvg:0830e-s1" kvg:type="㇐" d="M21.75 25.27c3.12.48 6.44.33 9.25.09 12.78-1.1 35.97-3.16 49.64-3.71 3.27-.13 6.65-.16 9.86.63"/><path id="kvg:0830e-s2" kvg:type="㇑a" d="M39.25 12.25c.81.81 1.67 1.87 1.8 2.75 1.26 8.25 1.59 16 1.95 19"/><path id="kvg:0830e-s3" kvg:type="㇑a" d="M68.31 11.5c.82 1 .78 2.53.52 3.78-1.5 7.36-2.19 10.04-3.83 16.97"/></g><g id="kvg:0830e-g2" kvg:element="圣" kvg:position="bottom" kvg:phon="圣"><g id="kvg:0830e-g3" kvg:element="又" kvg:position="top"><path id="kvg:0830e-s4" kvg:type="㇇" d="M36.77 40.8c2.34.37 4.72.38 7.08.06 4.93-.68 15.39-2.4 19.65-3.08 3.15-.5 5.65 1.39 2.96 4.79C56.5 55.12 41.38 66 19.57 72.75"/><path id="kvg:0830e-s5" kvg:type="㇏" d="M35.8 47.03c4.95.1 23.08 11.47 40.27 20.6 3.78 2.01 8.55 3.94 12.76 4.81"/></g><g id="kvg:0830e-g4" kvg:element="土" kvg:position="bottom"><path id="kvg:0830e-s6" kvg:type="㇐" d="M32.93 77.88c1.86.73 4.65.44 6.57.24 8.91-.94 18.29-2.15 27.25-2.59 2.09-.1 4.2-.28 6.26.2"/><path id="kvg:0830e-s7" kvg:type="㇑a" d="M52.46 64.87c.84.84 1.29 2.26 1.29 3.69.0 5.19-.06 19.44-.06 23.89"/><path id="kvg:0830e-s8" kvg:type="㇐" d="M21.17 95.3c2.65.95 6.5.67 9.22.39C45.38 94.12 61 92.62 77.5 92.01c3.33-.12 6.83.24 10.09.94"/></g></g></g></g></svg>