<svg xmlns="http://www.w3.org/2000/svg" width="109" height="109" viewBox="0 0 109 109"><g id="kvg:StrokePaths_0831c"><g id="kvg:0831c" kvg:element="茜"><g id="kvg:0831c-g1" kvg:element="艹" kvg:variant="true" kvg:original="艸" kvg:position="top" kvg:radical="general"><path id="kvg:0831c-s1" kvg:type="㇐" d="M20 26.02c3.25.73 6.44.58 9.25.33 13.42-1.2 38.5-3.11 52-3.52 2.89-.09 5.45.01 8.25.69"/><path id="kvg:0831c-s2" kvg:type="㇑a" d="M38.5 13.88c1 .88 1.35 1.77 1.5 2.61 1.4 7.84 2.35 15.66 2.75 18.51"/><path id="kvg:0831c-s3" kvg:type="㇑a" d="M66.74 11.25c.51 1 .78 2.39.58 3.75C66.5 20.5 65.75 25.25 64 34"/></g><g id="kvg:0831c-g2" kvg:element="西" kvg:variant="true" kvg:original="襾" kvg:position="bottom"><path id="kvg:0831c-s4" kvg:type="㇐" d="M23.76 42.88c2.61.83 5.95.48 8.62.32 11.85-.72 30.35-2.71 43.75-3.37 3.16-.15 6.48-.01 9.61.59"/><path id="kvg:0831c-s5" kvg:type="㇑" d="M24.29 58.74c.98.98 1.63 3.05 1.81 3.93 1.07 5.35 2.59 16.4 4.03 26.85.26 1.9.53 3.8.81 5.64"/><path id="kvg:0831c-s6" kvg:type="㇕a" d="M26.37 59.82c14.27-1.27 46-4.25 55.73-4.44 4.03-.08 5.84 2.5 5.35 5.6-.99 6.19-2.45 15.4-4.7 26.33-.44 2.13-.87 3.94-1.57 6.41"/><path id="kvg:0831c-s7" kvg:type="㇒" d="M45.53 45.24c.99.99 1.22 2.7 1.14 3.99C46 60.25 45.25 71.5 33.61 80.24"/><path id="kvg:0831c-s8" kvg:type="㇟a" d="M61.6 43.71c.91.91 1.05 2.04 1.05 3.66.0 10.91.12 17.44.09 21.51-.05 6.5.91 7.93 8.89 7.93 5.36.0 9.64-.97 9.95-1.26"/><path id="kvg:0831c-s9" kvg:type="㇐a" d="M31.71 92.93c13.92-1.18 34.78-2.47 49.35-2.66"/></g></g></g></svg>