<svg xmlns="http://www.w3.org/2000/svg" width="109" height="109" viewBox="0 0 109 109"><g id="kvg:StrokePaths_0832b" style="fill:none;stroke:#000000;stroke-width:3;stroke-linecap:round;stroke-linejoin:round;"><g id="kvg:0832b" kvg:element="茫"><g id="kvg:0832b-g1" kvg:element="艹" kvg:variant="true" kvg:original="艸" kvg:position="top" kvg:radical="general"><path id="kvg:0832b-s1" kvg:type="㇐" d="M20.33 26.17c1.25.53 4.67.83 7.83.67C39.69 26.23 67 23.5 83 23.17c2.26-.05 6.12.57 7.17.83"/><path id="kvg:0832b-s2" kvg:type="㇑a" d="M36 14c2.17.5 2.72 1.44 2.82 2.38.93 8.87 1.96 15.98 2.51 19.12"/><path id="kvg:0832b-s3" kvg:type="㇑a" d="M71.4 11.75c.6.75 1.37 2.49.8 3.94-1.73 4.43-2.38 11.32-4.87 16.98"/></g><g id="kvg:0832b-g2" kvg:position="bottom"><g id="kvg:0832b-g3" kvg:element="氵" kvg:variant="true" kvg:original="水" kvg:position="left"><path id="kvg:0832b-s4" kvg:type="㇔" d="M20.97 39.5c4.25 1.35 10.97 5.56 12.03 7.67"/><path id="kvg:0832b-s5" kvg:type="㇔" d="M16.67 56.76c4 1.16 10.33 4.77 11.33 6.58"/><path id="kvg:0832b-s6" kvg:type="㇀" d="M16.42 90.33c3.33 1.17 4.73-.69 6.16-3.13 4.16-7.11 4.92-8.7 10.09-17.87"/></g><g id="kvg:0832b-g4" kvg:element="亡" kvg:position="right"><g id="kvg:0832b-g5" kvg:element="亠"><path id="kvg:0832b-s7" kvg:type="㇑a" d="M63.71 37.94c.91.42 1.8 1.56 1.8 3.66.0 3.08-.19 8.05-.02 10.66"/><g id="kvg:0832b-g6" kvg:element="匸" kvg:part="1" kvg:variant="true" kvg:original="匚"><path id="kvg:0832b-s8" kvg:type="㇐" d="M38.83 53.67c1.67.33 4.42.83 6.83.83 7.19.0 32.95-3.08 42-3.33 1.5-.04 5.08-.42 7 0"/></g></g><g id="kvg:0832b-g7" kvg:element="匸" kvg:part="2" kvg:variant="true" kvg:original="匚"><path id="kvg:0832b-s9" kvg:type="㇄a" d="M45.5 55.67c.81.78.64 4.74.64 5.82.0 9.6.0 18.7.0 22.33.0 4.04.51 8.56 9.55 9.15 9.8.64 26.11-.13 28.32-.21 3.84-.14 6.19-.95 8.15-1.45"/></g></g></g></g></g></svg>