<svg xmlns="http://www.w3.org/2000/svg" width="109" height="109" viewBox="0 0 109 109"><g id="kvg:StrokePaths_08332" style="fill:none;stroke:#000000;stroke-width:3;stroke-linecap:round;stroke-linejoin:round;"><g id="kvg:08332" kvg:element="茲"><g id="kvg:08332-g1" kvg:element="艹" kvg:variant="true" kvg:original="艸" kvg:position="top" kvg:radical="tradit"><g id="kvg:08332-g2" kvg:element="玄" kvg:part="1" kvg:number="1" kvg:partial="true" kvg:radical="nelson"><g id="kvg:08332-g3" kvg:element="亠" kvg:partial="true"><path id="kvg:08332-s1" kvg:type="㇐" d="M18.5 28.77c1.29.53 2.8.63 4.1.53 11.9-.96 51.9-3.46 65.62-3.53 2.16-.01 3.45.25 4.53.51"/></g></g><path id="kvg:08332-s2" kvg:type="㇑" d="M36.75 16c1.75 1.43 2.31 1.87 2.5 2.75C41 27 41.5 34.5 42 37.5"/><path id="kvg:08332-s3" kvg:type="㇑" d="M68.25 13.75c.42 1.18.84 2.02.5 3.5C67.07 24.64 66 29.5 64.25 36.5"/></g><g id="kvg:08332-g4" kvg:position="bottom"><g id="kvg:08332-g5" kvg:element="玄" kvg:part="2" kvg:number="1" kvg:partial="true" kvg:position="left" kvg:radical="nelson"><g id="kvg:08332-g6" kvg:element="幺"><path id="kvg:08332-s4" kvg:type="㇜" d="M34.63 39.87c.3 1.1.39 1.94-.15 3.13C32 48.5 30 52.75 24.85 58.27c-.55.59-.63 2.69.0 2.76 3.9.47 10.87 2.95 13.59 4.97"/><path id="kvg:08332-s5" kvg:type="㇜" d="M49.79 47.62c.42 1.38.18 4.23-.39 5C41.64 63.25 32.09 75.5 20.75 89.37c-1.3 1.59-.78 2.45.78 2 10.72-3.12 17.47-4.62 26.75-7.5"/><path id="kvg:08332-s6" kvg:type="㇔" d="M42.04 74.12c3.5 3.26 9.04 13.42 9.91 18.5"/></g></g><g id="kvg:08332-g7" kvg:element="玄" kvg:part="2" kvg:number="2" kvg:partial="true" kvg:position="right"><g id="kvg:08332-g8" kvg:element="幺"><path id="kvg:08332-s7" kvg:type="㇜" d="M70.62 40.62c.34 1.18.41 2.05-.17 3.34C67.75 50 63 56.75 58.59 61.71c-.59.67-.67 2.72.0 2.95 3.53 1.18 12.63 2.78 15.66 4.94"/><path id="kvg:08332-s8" kvg:type="㇜" d="M84.66 50.36c.37 1.3.15 3.98-.34 4.71-6.57 9.68-14.7 22.06-24.66 35.12-1.14 1.5-.71 2.21.69 1.88 8.42-1.99 19.4-5.71 26.76-7.59"/><path id="kvg:08332-s9" kvg:type="㇔" d="M80.91 75.57c3.63 3.36 9.39 13.82 10.29 19.05"/></g></g></g></g></g></svg>