<svg xmlns="http://www.w3.org/2000/svg" width="109" height="109" viewBox="0 0 109 109"><g id="kvg:StrokePaths_08335" style="fill:none;stroke:#000000;stroke-width:3;stroke-linecap:round;stroke-linejoin:round;"><g id="kvg:08335" kvg:element="茵"><g id="kvg:08335-g1" kvg:element="艹" kvg:variant="true" kvg:original="艸" kvg:position="top" kvg:radical="general"><path id="kvg:08335-s1" kvg:type="㇐" d="M17.25 23.58c1.5.7 3.25.84 4.75.7 13.79-1.28 49.35-5.43 65.25-5.52 2.5-.02 4 .33 5.25.68"/><path id="kvg:08335-s2" kvg:type="㇑a" d="M35.5 10.75c1.25 1 2.31 1.87 2.5 2.75 1.75 8.25 2.25 15.75 2.75 18.75"/><path id="kvg:08335-s3" kvg:type="㇑a" d="M69 10c1.12 1 1.2 2.49 1 4-.75 5.75-1.5 9.25-3 16.25"/></g><g id="kvg:08335-g2" kvg:element="因" kvg:position="bottom"><g id="kvg:08335-g3" kvg:element="囗" kvg:part="1"><path id="kvg:08335-s4" kvg:type="㇑" d="M24.56 37.11c.64 1.07 1.56 1.87 1.57 3.29.12 10.66.12 36.99-.26 57.35"/><path id="kvg:08335-s5" kvg:type="㇕a" d="M27.51 38.85C42.77 37.62 71.5 35 81.73 35c2.33.0 3 1.86 2.96 4.11-.21 11.76-.85 42.65-.42 59.27"/></g><g id="kvg:08335-g4" kvg:element="大"><path id="kvg:08335-s6" kvg:type="㇐" d="M31.63 55.62c1.63.27 3.47.16 4.54.08 15.27-1.12 21.84-2 35.93-2.81 1.35-.08 3.77-.06 5.28-.06"/><path id="kvg:08335-s7" kvg:type="㇒" d="M54.03 41.1c.35.67.63 1.45.52 2.89C52.75 68.25 47.5 80 33.92 90.01"/><path id="kvg:08335-s8" kvg:type="㇔/㇏" d="M54.6 65.11c7.22 4.74 16.32 13.26 20.7 22.5"/></g><g id="kvg:08335-g5" kvg:element="囗" kvg:part="2"><path id="kvg:08335-s9" kvg:type="㇐a" d="M26.67 95.52c11.06.0 42.31-1.57 57.59-1.88"/></g></g></g></g></svg>