<svg xmlns="http://www.w3.org/2000/svg" width="109" height="109" viewBox="0 0 109 109"><g id="kvg:StrokePaths_08338" style="fill:none;stroke:#000000;stroke-width:3;stroke-linecap:round;stroke-linejoin:round;"><g id="kvg:08338" kvg:element="茸"><g id="kvg:08338-g1" kvg:element="艹" kvg:variant="true" kvg:original="艸" kvg:position="top" kvg:radical="general"><path id="kvg:08338-s1" kvg:type="㇐" d="M21 23.27c1.29.53 2.8.63 4.1.53 11.9-.96 46.4-4.46 60.12-4.53 2.16-.01 3.45.25 4.53.51"/><path id="kvg:08338-s2" kvg:type="㇑a" d="M38.25 12c1.75 1.43 2.41 1.85 2.5 2.75C41.5 22.25 42.5 29 43 32"/><path id="kvg:08338-s3" kvg:type="㇑a" d="M67.25 10.25c1.12 1 1.87 2.52 1.5 4-1.12 4.5-1.88 10.5-3.5 16.25"/></g><g id="kvg:08338-g2" kvg:element="耳" kvg:position="bottom"><path id="kvg:08338-s4" kvg:type="㇐" d="M28.17 39.63c1.08.44 3.07.57 4.16.44 12.92-1.57 26.76-3.25 48.54-4.56 1.8-.11 2.89.21 3.79.43"/><path id="kvg:08338-s5" kvg:type="㇑a" d="M39 41.11c.94.66 1.45 2.39 1.45 4.17s.21 31.66.21 38.06"/><path id="kvg:08338-s6" kvg:type="㇐a" d="M40.93 51.58c4.28.0 22.67-2.15 30-2.15"/><path id="kvg:08338-s7" kvg:type="㇐a" d="M40.99 64.47c5.29.0 22.07-1.93 29.78-1.93"/><path id="kvg:08338-s8" kvg:type="㇀" d="M24.59 86.6c1.66.9 3.05 1.02 4.59.59C35.35 85.45 70.52 75.02 80 72.24"/><path id="kvg:08338-s9" kvg:type="㇑" d="M69.99 38.09c.44.88 1.1 1.98 1.1 3.09.0 1.1.22 48.79.22 57.83"/></g></g></g></svg>