<!DOCTYPE svg PUBLIC "-//W3C//DTD SVG 1.0//EN" "http://www.w3.org/TR/2001/REC-SVG-20010904/DTD/svg10.dtd" [
<!ATTLIST g
xmlns:kvg CDATA #FIXED "http://kanjivg.tagaini.net"
kvg:element CDATA #IMPLIED
kvg:variant CDATA #IMPLIED
kvg:partial CDATA #IMPLIED
kvg:original CDATA #IMPLIED
kvg:part CDATA #IMPLIED
kvg:number CDATA #IMPLIED
kvg:tradForm CDATA #IMPLIED
kvg:radicalForm CDATA #IMPLIED
kvg:position CDATA #IMPLIED
kvg:radical CDATA #IMPLIED
kvg:phon CDATA #IMPLIED >
<!ATTLIST path
xmlns:kvg CDATA #FIXED "http://kanjivg.tagaini.net"
kvg:type CDATA #IMPLIED >
]><svg xmlns="http://www.w3.org/2000/svg" width="109" height="109" viewBox="0 0 109 109"><g id="kvg:StrokePaths_0834a" style="fill:none;stroke:#000000;stroke-width:3;stroke-linecap:round;stroke-linejoin:round;"><g id="kvg:0834a" kvg:element="荊"><g id="kvg:0834a-g1" kvg:element="艹" kvg:variant="true" kvg:original="艸" kvg:position="top" kvg:radical="tradit"><path id="kvg:0834a-s1" kvg:type="㇐" d="M21.5 21.27c4.38.61 9.04.46 13 .03 15.4-1.65 31.63-2.55 47.25-3.4 3.37-.18 6.69-.21 10 .37"/><path id="kvg:0834a-s2" kvg:type="㇑a" d="M39.5 10.5c1.12 1.12 1.63 2.36 1.75 3.25 1.25 9 1.75 13 2.25 16.75"/><path id="kvg:0834a-s3" kvg:type="㇑a" d="M70.75 9.5c.42 1.18.34 2.77.0 4.25-1.25 5.5-2.12 9.62-3.5 15.75"/></g><g id="kvg:0834a-g2" kvg:element="刑" kvg:position="bottom"><g id="kvg:0834a-g3" kvg:element="开" kvg:original="幵" kvg:partial="true"><g id="kvg:0834a-g4" kvg:element="干"><path id="kvg:0834a-s4" kvg:type="㇐" d="M20.82 40c2.4.39 4.79.38 7.21.11 6.47-.73 15.65-2.08 21.59-2.53 2.16-.3 4.31-.26 6.45.12"/><g id="kvg:0834a-g5" kvg:element="十"><path id="kvg:0834a-s5" kvg:type="㇐" d="M15.04 60.76c3.06.48 6.14.44 9.21-.12 7.48-.86 19-2.4 26.75-2.91 2.92-.19 5.74-.56 8.6-.09"/><path id="kvg:0834a-s6" kvg:type="㇒/㇑" d="M30.71 42.57c.89 1.34 1.07 2.68 1.07 4.69.0 28.23-4.16 38.36-16.9 48.45"/></g></g><g id="kvg:0834a-g6" kvg:element="干" kvg:partial="true"><g id="kvg:0834a-g7" kvg:element="十" kvg:partial="true"><path id="kvg:0834a-s7" kvg:type="㇑" d="M45.89 40.87c.98 1.12 1.15 2.37 1.01 3.75.04 6.67.03 30.14.0 43.12-.01 4.93-.02 8.34-.03 8.75"/></g></g></g><g id="kvg:0834a-g8" kvg:element="刂" kvg:variant="true" kvg:original="刀" kvg:radical="nelson"><path id="kvg:0834a-s8" kvg:type="㇑" d="M69.55 40.49c.85.85 1.05 2.14 1.05 3.84.0 8-.01 19.6-.01 27.54.0 3.85.0 6.84.0 8.16"/><path id="kvg:0834a-s9" kvg:type="㇚" d="M87.7 33.58c1.17 1.17 1.3 2.67 1.3 4.09.0 11.87.0 50.28.0 54.32.0 10.37-6.84 1.35-8.16.33"/></g></g></g></g><g id="kvg:StrokeNumbers_0834a" style="font-size:8;fill:#808080"><text transform="matrix(1 0 0 1 14.50 21.50)">1</text><text transform="matrix(1 0 0 1 30.50 11.50)">2</text><text transform="matrix(1 0 0 1 61.50 9.50)">3</text><text transform="matrix(1 0 0 1 13.50 40.63)">4</text><text transform="matrix(1 0 0 1 7.50 61.50)">5</text><text transform="matrix(1 0 0 1 23.25 50.50)">6</text><text transform="matrix(1 0 0 1 39.50 48.50)">7</text><text transform="matrix(1 0 0 1 60.75 43.50)">8</text><text transform="matrix(1 0 0 1 79.50 38.50)">9</text></g></svg>