<svg xmlns="http://www.w3.org/2000/svg" width="109" height="109" viewBox="0 0 109 109"><g id="kvg:StrokePaths_08352"><g id="kvg:08352" kvg:element="荒"><g id="kvg:08352-g1" kvg:element="艹" kvg:variant="true" kvg:original="艸" kvg:position="top" kvg:radical="general"><path id="kvg:08352-s1" kvg:type="㇐" d="M20.75 27.77c4 .73 7.33.32 10.74-.09 15.01-1.81 32.16-3.25 45.01-3.96 3.59-.2 7.22-.06 10.75.8"/><path id="kvg:08352-s2" kvg:type="㇑a" d="M38.75 16c1 1 1.38 2.12 1.5 3.5.77 8.48 1 12 1.5 18.5"/><path id="kvg:08352-s3" kvg:type="㇑a" d="M70.75 11.5c.5 1.12.52 2.5.25 4C70 21 68.5 28 67 35"/></g><g id="kvg:08352-g2" kvg:position="bottom" kvg:phon="亡+川"><g id="kvg:08352-g3" kvg:element="亡" kvg:position="top"><g id="kvg:08352-g4" kvg:element="亠"><path id="kvg:08352-s4" kvg:type="㇑a" d="M52.82 34.6c.98.98 1.19 2.27 1.19 3.6.0 1.43-.01 3.43-.01 4.68"/><g id="kvg:08352-g5" kvg:element="匸" kvg:part="1" kvg:variant="true" kvg:original="匚"><path id="kvg:08352-s5" kvg:type="㇐" d="M24.22 46.34c3.41.41 5.54.39 8.52.0 12.01-1.59 29-3.44 40-4.15 2.68-.17 5.75-.31 8.28.08"/></g></g><g id="kvg:08352-g6" kvg:element="匸" kvg:part="2" kvg:variant="true" kvg:original="匚"><path id="kvg:08352-s6" kvg:type="㇄a" d="M36.01 47.5c.67.67.76 1.6.76 2.54.0.83.0.96.0 1.86.0 7.47 1.85 7.88 18.73 7.88 12 0 16.87-.66 19.55-1.31"/></g></g><g id="kvg:08352-g7" kvg:element="川" kvg:variant="true" kvg:original="巛" kvg:position="bottom"><path id="kvg:08352-s7" kvg:type="㇒" d="M34.1 72.18c.4.82.47 2.03.26 2.86C32.38 83 28.25 92 16.14 98.4"/><path id="kvg:08352-s8" kvg:type="㇑" d="M52.75 68.88c.75.75 1.16 1.99 1.16 3.65.0.54.11 10.7.04 17.58-.02 2.41-.05 4.47-.07 5.63"/><path id="kvg:08352-s9" kvg:type="㇟" d="M73.1 66.62c.95.95 1.28 2.38 1.28 3.99.0 6.39.0 10.69.0 15.89.0 7.88 1.17 9.29 9.69 9.29 9.06.0 10.18-1.04 10.18-7.94"/></g></g></g></g></svg>