<!DOCTYPE svg PUBLIC "-//W3C//DTD SVG 1.0//EN" "http://www.w3.org/TR/2001/REC-SVG-20010904/DTD/svg10.dtd" [
<!ATTLIST g
xmlns:kvg CDATA #FIXED "http://kanjivg.tagaini.net"
kvg:element CDATA #IMPLIED
kvg:variant CDATA #IMPLIED
kvg:partial CDATA #IMPLIED
kvg:original CDATA #IMPLIED
kvg:part CDATA #IMPLIED
kvg:number CDATA #IMPLIED
kvg:tradForm CDATA #IMPLIED
kvg:radicalForm CDATA #IMPLIED
kvg:position CDATA #IMPLIED
kvg:radical CDATA #IMPLIED
kvg:phon CDATA #IMPLIED >
<!ATTLIST path
xmlns:kvg CDATA #FIXED "http://kanjivg.tagaini.net"
kvg:type CDATA #IMPLIED >
]><svg xmlns="http://www.w3.org/2000/svg" width="109" height="109" viewBox="0 0 109 109"><g id="kvg:StrokePaths_08358" style="fill:none;stroke:#000000;stroke-width:3;stroke-linecap:round;stroke-linejoin:round;"><g id="kvg:08358" kvg:element="荘"><g id="kvg:08358-g1" kvg:element="艹" kvg:variant="true" kvg:original="艸" kvg:position="top" kvg:radical="general"><path id="kvg:08358-s1" kvg:type="㇐" d="M22.5 24.22c3 .78 6.26.59 9 .37 12.92-1.04 36.88-3.11 50.13-3.5 2.8-.08 5.63-.24 8.38.44"/><path id="kvg:08358-s2" kvg:type="㇑a" d="M36.36 13.1c.89.89 1.42 2.04 1.57 2.76 1.45 6.79 2.44 13.03 2.86 15.49"/><path id="kvg:08358-s3" kvg:type="㇑a" d="M72.52 11.39c.37.96.36 1.92-.06 3.1-2.43 6.92-4.21 11.01-6.44 16.14"/></g><g id="kvg:08358-g2" kvg:element="壮" kvg:position="bottom" kvg:phon="壮"><g id="kvg:08358-g3" kvg:element="⺦" kvg:variant="true" kvg:original="爿" kvg:position="left"><path id="kvg:08358-s4" kvg:type="㇑" d="M32.79 37.92c1.15 1.15 1.49 2.58 1.49 4.65.0 10.38.08 30.6.08 49.47.0 2.8-.12 4.22-.12 6.96"/><path id="kvg:08358-s5" kvg:type="㇔" d="M18.05 50.09c3.11 1.61 8.04 6.62 8.82 9.13"/><path id="kvg:08358-s6" kvg:type="㇀" d="M14 82.46c1.5.79 2.84.65 3.94-.13 2.56-1.83 6.31-4.7 9.97-7.24"/></g><g id="kvg:08358-g4" kvg:element="士" kvg:position="right"><path id="kvg:08358-s7" kvg:type="㇐" d="M44.1 62.28c2.65.84 5.56.84 7.77.62 9.86-1.01 25.15-2.03 35.01-2.65 2.38-.15 4.67-.24 7 .41"/><path id="kvg:08358-s8" kvg:type="㇑a" d="M65.76 40.83c1.26 1.26 1.76 2.79 1.76 4.89.0 6.53-.02 25.34-.02 42.41"/><path id="kvg:08358-s9" kvg:type="㇐" d="M48.09 89.93c1.93.63 4.32.31 6.3.18 9.24-.6 18.36-1.23 27.49-1.87 2.04-.14 4.13-.14 6.15.25"/></g></g></g></g><g id="kvg:StrokeNumbers_08358" style="font-size:8;fill:#808080"><text transform="matrix(1 0 0 1 15.75 25.50)">1</text><text transform="matrix(1 0 0 1 26.50 13.50)">2</text><text transform="matrix(1 0 0 1 63.75 12.50)">3</text><text transform="matrix(1 0 0 1 23.25 39.13)">4</text><text transform="matrix(1 0 0 1 10.50 51.50)">5</text><text transform="matrix(1 0 0 1 6.50 87.50)">6</text><text transform="matrix(1 0 0 1 41.50 59.50)">7</text><text transform="matrix(1 0 0 1 56.25 41.50)">8</text><text transform="matrix(1 0 0 1 44.25 86.50)">9</text></g></svg>