<svg xmlns="http://www.w3.org/2000/svg" width="109" height="109" viewBox="0 0 109 109"><g id="kvg:StrokePaths_08373"><g id="kvg:08373" kvg:element="荳"><g id="kvg:08373-g1" kvg:element="艹" kvg:variant="true" kvg:original="艸" kvg:position="top" kvg:radical="general"><path id="kvg:08373-s1" kvg:type="㇐" d="M17.67 23.67c1.29.53 5.54.8 6.83.67C37 23 71.12 20.74 84.83 20.67c2.16-.01 6.92.4 8 .67"/><path id="kvg:08373-s2" kvg:type="㇑a" d="M36.5 12c2.67.83 3.8 2.47 4 3.33 1.86 8.06 2.13 14.4 2.67 17.33"/><path id="kvg:08373-s3" kvg:type="㇑a" d="M66.17 10.5c1.33 1 2.06 2.4 1.77 3.86-.86 4.43-1.36 11.65-2.6 17.31"/></g><g id="kvg:08373-g2" kvg:element="豆" kvg:position="bottom"><g id="kvg:08373-g3" kvg:position="top"><path id="kvg:08373-s4" kvg:type="㇐" d="M25.17 38c1.04.49 3.58 1 7.17.83C43.1 38.33 61 37 79.17 36c1.72-.09 5.14-.08 6 .17"/></g><g id="kvg:08373-g4" kvg:position="bottom"><g id="kvg:08373-g5" kvg:element="口"><path id="kvg:08373-s5" kvg:type="㇑" d="M32.33 48.83c.58.34 1.57 2.29 1.68 2.74.79 3.28 2.1 9.97 3.15 16.59"/><path id="kvg:08373-s6" kvg:type="㇕b" d="M34 50.17c7.77-.65 32.2-2.23 37.5-2.33 2.19-.04 3.71 1.23 3.51 3.17-.34 3.33-2.5 8.49-4.17 13.33"/><path id="kvg:08373-s7" kvg:type="㇐b" d="M38 66.17c5.82.0 27.47-1.57 35.5-1.67"/></g><path id="kvg:08373-s8" kvg:type="㇔" d="M35 72.8c2.87 2.83 7.42 11.63 8.14 16.03"/><path id="kvg:08373-s9" kvg:type="㇒" d="M71.11 68.87c.02.51.22 1.86-.05 2.54-1.81 4.59-3.93 13.26-8.51 19.06"/><path id="kvg:08373-s10" kvg:type="㇐" d="M19.17 94.33c1.47.38 4.22 1.31 5.69 1.2 17.25-1.25 45.31-3.03 62.13-2.63 2.45.06 4.79 1.07 6.02 1.26"/></g></g></g></g></svg>