<svg xmlns="http://www.w3.org/2000/svg" width="109" height="109" viewBox="0 0 109 109"><g id="kvg:StrokePaths_0837c" style="fill:none;stroke:#000000;stroke-width:3;stroke-linecap:round;stroke-linejoin:round;"><g id="kvg:0837c" kvg:element="荼"><g id="kvg:0837c-g1" kvg:element="艹" kvg:variant="true" kvg:original="艸" kvg:position="top" kvg:radical="general"><path id="kvg:0837c-s1" kvg:type="㇐" d="M15.67 23.17c1.29.53 3.83 1.08 7.17.83 11.91-.89 46.28-3.09 60-3.17 2.16-.01 7.42.57 8.5.83"/><path id="kvg:0837c-s2" kvg:type="㇑a" d="M34.33 12.33c1.67.42 2.99 1.63 3.17 2.5 1.64 8.12 2.37 14.55 2.83 17.5"/><path id="kvg:0837c-s3" kvg:type="㇑a" d="M68.5 10.5c1.06.92 1.52 2.64 1.17 4C68.6 18.66 67.54 25.02 66 30.33"/></g><g id="kvg:0837c-g2" kvg:element="余" kvg:position="bottom"><g id="kvg:0837c-g3" kvg:element="人" kvg:position="top"><path id="kvg:0837c-s4" kvg:type="㇒" d="M51.35 27.5c.1.85.37 2.24-.2 3.4-3.57 7.21-16.04 20.86-35.9 32.56"/><path id="kvg:0837c-s5" kvg:type="㇏" d="M51.41 30.61c5.62 5.34 29.82 22.79 36.02 26.7 2.1 1.33 4.8 1.9 6.9 2.27"/></g><g id="kvg:0837c-g4" kvg:position="bottom"><path id="kvg:0837c-s6" kvg:type="㇐" d="M35.83 53.17c.63.23 2.92.58 4.71.44 6.1-.47 18.27-1.97 23.96-2.28 1.63-.09 5.52.36 6.17.5"/><path id="kvg:0837c-s7" kvg:type="㇐" d="M24.17 68.17c1.11.35 4.08.76 7.17.67 11.17-.33 33.92-2.83 45-3.33 2.68-.12 7.24.82 8.17 1"/><g id="kvg:0837c-g5" kvg:element="小"><path id="kvg:0837c-s8" kvg:type="㇚" d="M52.67 55c.83 1 1.71 1.94 1.71 4.48.0 16.54-.23 28.56-.23 32.72.0 9.43-4.81 3.35-6.15 2.3"/><path id="kvg:0837c-s9" kvg:type="㇒" d="M36.44 78.56c.06.45.26 1.23-.12 1.82-2.81 4.35-10.03 10.83-21.48 17.44"/><path id="kvg:0837c-s10" kvg:type="㇔" d="M68.29 78.07c6.72 2.71 17.36 11.16 19.04 15.38"/></g></g></g></g></g></svg>