<svg xmlns="http://www.w3.org/2000/svg" width="109" height="109" viewBox="0 0 109 109"><g id="kvg:StrokePaths_08385"><g id="kvg:08385" kvg:element="莅"><g id="kvg:08385-g1" kvg:element="艹" kvg:variant="true" kvg:original="艸" kvg:position="top" kvg:radical="general"><path id="kvg:08385-s1" kvg:type="㇐" d="M14.67 21.83c2.08.42 3.83.92 9.17.67 11.93-.56 46.95-3.09 60.67-3.17 2.16-.01 7.09.74 8.17 1"/><path id="kvg:08385-s2" kvg:type="㇑a" d="M35 11.17c2.5.83 3.02 2.47 3.17 3.33 1.39 8.06 1.77 14.24 2.17 17.17"/><path id="kvg:08385-s3" kvg:type="㇑a" d="M69.81 10.75c1.44.89 1.14 2.17.92 3.54C70 18.67 68.58 24.74 66.5 29.83"/></g><g id="kvg:08385-g2" kvg:element="位" kvg:position="bottom"><g id="kvg:08385-g3" kvg:element="亻" kvg:variant="true" kvg:original="人" kvg:position="left"><path id="kvg:08385-s4" kvg:type="㇒" d="M35.84 32.8c.27 1.83-.08 4.22-.94 5.78-5.53 9.97-12.53 19.33-25.2 31.47"/><path id="kvg:08385-s5" kvg:type="㇑" d="M26.87 54.97c.63 1.03 1.26 2.8 1.31 4.77.3 11.65-.5 29.96-.07 36.01"/></g><g id="kvg:08385-g4" kvg:element="立" kvg:position="right"><g id="kvg:08385-g5" kvg:element="亠" kvg:position="top"><path id="kvg:08385-s6" kvg:type="㇑a" d="M58.17 33.17c2 .5 2.83 2.55 2.83 4s.21 9.66.21 13.6"/><path id="kvg:08385-s7" kvg:type="㇐" d="M37.17 51.83c2.58.92 4.55.85 7.67.67 8.67-.5 30.92-2.75 39.5-3.17 2.42-.12 5.26.7 6 .83"/></g><g id="kvg:08385-g6" kvg:position="bottom"><path id="kvg:08385-s8" kvg:type="㇔" d="M42.88 57.87c6.73 10.82 9.79 21.88 10.4 29.01"/><path id="kvg:08385-s9" kvg:type="㇒" d="M78.33 54.83c1.14 1.13.81 3.1.5 4C76 67 70.3 82.96 68.02 87.87"/><path id="kvg:08385-s10" kvg:type="㇐" d="M34 92.83c2 .92 3.32.95 6.83.83C53 93.25 73.3 91.88 86.5 91c3.75-.25 6.96.84 7.83 1"/></g></g></g></g></g></svg>