<svg xmlns="http://www.w3.org/2000/svg" width="109" height="109" viewBox="0 0 109 109"><g id="kvg:StrokePaths_08393"><g id="kvg:08393" kvg:element="莓"><g id="kvg:08393-g1" kvg:element="艹" kvg:variant="true" kvg:original="艸" kvg:position="top" kvg:radical="general"><path id="kvg:08393-s1" kvg:type="㇐" d="M17.25 20.11c1.4.44 3.03.53 4.44.44 12.89-.8 50.8-3.73 65.65-3.79 2.34-.01 3.74.21 4.91.43"/><path id="kvg:08393-s2" kvg:type="㇑a" d="M37.5 8.75c1.42 1.27 1.87 1.65 2.02 2.43 1.42 7.29 1.82 13.92 2.23 16.57"/><path id="kvg:08393-s3" kvg:type="㇑a" d="M67.72 8c.98.86 1.64 2.18 1.31 3.45-.98 3.88-1.64 10.34-3.06 15.3"/></g><g id="kvg:08393-g2" kvg:element="毎" kvg:variant="true" kvg:position="bottom"><g id="kvg:08393-g3" kvg:position="top"><g id="kvg:08393-g4" kvg:element="丿"><path id="kvg:08393-s4" kvg:type="㇒" d="M34.79 26.5c.05.53.17 1.37-.1 2.11-1.63 4.54-8.44 14.89-17.47 20.7"/></g><path id="kvg:08393-s5" kvg:type="㇐" d="M34.16 35.18c1.07.26 4.18.37 5.22.26C46 34.75 65.75 33 78.42 32.6c1.75-.06 3.98.12 4.87.26"/></g><g id="kvg:08393-g5" kvg:element="母" kvg:position="bottom"><g id="kvg:08393-g6" kvg:element="毋" kvg:part="1" kvg:variant="true"><path id="kvg:08393-s6" kvg:type="㇛" d="M35.64 44.02c1.1.83 1.74 3.55 1.37 5.72C35 61.5 32 72.5 28.71 79.92c-1.36 3.07-.53 4.2 1.59 4.2 16.94.0 36.91 1.96 50.94 11.29"/><path id="kvg:08393-s7" kvg:type="㇆" d="M38.38 46.93c1.13-.14 3.29-.29 4.29-.38 10.19-.96 23.58-2.7 29.23-2.7 2.88.0 3.64 1.56 3.45 3.47-1.43 14.02-4.84 33.94-10.84 50.6-2.22 6.17-6.38-.58-7.52-1.58"/></g><path id="kvg:08393-s8" kvg:type="㇔" d="M47.02 50.54c3.81 1.33 9.85 5.46 10.81 7.53"/><path id="kvg:08393-s9" kvg:type="㇔" d="M46.28 71.21c3.64 1.82 9.4 7.46 10.31 10.28"/><g id="kvg:08393-g7" kvg:element="毋" kvg:part="2" kvg:variant="true"><path id="kvg:08393-s10" kvg:type="㇐" d="M14.09 65.76c1.14.24 3.22.26 4.37.24 11.86-.27 51.42-2.64 73.24-2.7 1.9.0 3.04.11 3.99.23"/></g></g></g></g></g></svg>