<svg xmlns="http://www.w3.org/2000/svg" width="109" height="109" viewBox="0 0 109 109"><g id="kvg:StrokePaths_0839a" style="fill:none;stroke:#000000;stroke-width:3;stroke-linecap:round;stroke-linejoin:round;"><g id="kvg:0839a" kvg:element="莚"><g id="kvg:0839a-g1" kvg:element="艹" kvg:variant="true" kvg:original="艸" kvg:position="top" kvg:radical="general"><path id="kvg:0839a-s1" kvg:type="㇐" d="M17.83 24.56c1.29.37 5.17 1.19 8 .95 11.88-1.04 41.28-4.36 55-4.67 3.67-.08 7.75.38 8.83.57"/><path id="kvg:0839a-s2" kvg:type="㇑a" d="M34.67 11.67c1.83.58 3.46 2.14 3.61 3 1.42 7.99 1.82 14.26 2.23 17.17"/><path id="kvg:0839a-s3" kvg:type="㇑a" d="M66.17 9.5c1.12 1 1.87 2.19 1.5 3.67-1.12 4.5-3.04 12.42-4.67 18.17"/></g><g id="kvg:0839a-g2" kvg:element="延" kvg:variant="true" kvg:position="bottom"><g id="kvg:0839a-g3" kvg:element="正" kvg:variant="true" kvg:position="nyoc"><g id="kvg:0839a-g4" kvg:element="丿"><path id="kvg:0839a-s4" kvg:type="㇒" d="M82.93 30c.09.39.35 1.13-.18 1.58-6.62 5.54-14.91 10.13-32.16 14.6"/></g><g id="kvg:0839a-g5" kvg:element="止" kvg:variant="true"><g id="kvg:0839a-g6" kvg:element="卜" kvg:original="ト"><path id="kvg:0839a-s5" kvg:type="㇑" d="M69.07 41.86c.84.3 1.34 1.37 1.51 1.97.17.61.0 29.13-.17 32.93"/><path id="kvg:0839a-s6" kvg:type="㇐" d="M71.67 55.67c5.02-.45 9.89-1.53 15.17-1.83 1.23-.07 2.5.0 3.67.67"/></g><path id="kvg:0839a-s7" kvg:type="㇄" d="M52.5 55c.76.24 2.6 1.75 2.6 3.8.0.51.25 14.48.33 15.41.08.92 1.28 2.46 4.23 2.96 8 1.33 16.64.92 27.17.0 1.92-.17 3.96.05 4.83.17"/></g></g><g id="kvg:0839a-g7" kvg:element="廴" kvg:position="nyo"><path id="kvg:0839a-s8" kvg:type="㇇" d="M18.5 41.17c.92.58 3.16 1.56 4.45 1.17 1.3-.39 7.79-2.56 10.38-3.34s3.3 1.54 2.5 2.67c-1.48 2.08-7.88 14.68-10.48 19.35"/><path id="kvg:0839a-s9" kvg:type="㇇a" d="M24.83 61.83c3.17-.73 10.33-2.98 12.5-3.17 2.17-.18 3.42.27 2.83 3.5-2.44 13.34-11.44 28.13-25.5 35.17"/><path id="kvg:0839a-s10" kvg:type="㇏" d="M20.67 69.27c7.76-.24 37.8 20.85 63.19 26.12 3.85.8 7.75 1.14 10.64 1.44"/></g></g></g></g></svg>