<svg xmlns="http://www.w3.org/2000/svg" width="109" height="109" viewBox="0 0 109 109"><g id="kvg:StrokePaths_083a2"><g id="kvg:083a2" kvg:element="莢"><g id="kvg:083a2-g1" kvg:element="艹" kvg:variant="true" kvg:original="艸" kvg:position="top" kvg:radical="general"><path id="kvg:083a2-s1" kvg:type="㇐" d="M17.33 25.83c1.29.53 4.67 1.17 7.5.83 11.86-1.39 46.78-4.09 60.5-4.17 2.16-.01 5.75.9 6.83 1.17"/><path id="kvg:083a2-s2" kvg:type="㇑a" d="M34.33 14c1.17.5 1.99 1.22 2.17 2 1.69 7.29 3.52 15.85 4 18.5"/><path id="kvg:083a2-s3" kvg:type="㇑a" d="M67.17 10.67c2 1 2 2.36 1.83 3.83-.5 4.33-1.8 12.76-3.5 18.33"/></g><g id="kvg:083a2-g2" kvg:element="夾" kvg:position="bottom"><g id="kvg:083a2-g3" kvg:element="大" kvg:part="1"><path id="kvg:083a2-s4" kvg:type="㇐" d="M21.17 44c3.08.5 5.33.5 9.5.33 8.72-.35 39.58-3.58 48-3.67 2.27-.02 6.87.22 8 .5"/></g><g id="kvg:083a2-g4" kvg:element="从"><g id="kvg:083a2-g5" kvg:element="人" kvg:position="left"><path id="kvg:083a2-s5" kvg:type="㇒" d="M32 49.5c0 .64.25 2.04.04 2.78-1.96 6.97-5.81 14.64-14.4 22.33"/><path id="kvg:083a2-s6" kvg:type="㇏" d="M32.89 60.01c3.39 2.02 7.71 7.38 9.36 12.47"/></g><g id="kvg:083a2-g6" kvg:element="人" kvg:position="right"><path id="kvg:083a2-s7" kvg:type="㇒" d="M75.6 47.56c0 .46.08.86-.08 1.39-1.47 4.52-5.65 12.58-10.63 17.14"/><path id="kvg:083a2-s8" kvg:type="㇏" d="M72.81 57.01c6.81 3.92 12.04 8.84 16.11 14.8"/></g></g><g id="kvg:083a2-g7" kvg:element="大" kvg:part="2"><path id="kvg:083a2-s9" kvg:type="㇒" d="M53 29.17c.57.96 1.17 1.94 1.17 4 0 38.32-6.67 53.58-35.75 66"/><path id="kvg:083a2-s10" kvg:type="㇏" d="M52.75 58.01C65.86 77.3 70.32 85.23 87.4 95.89c2.76 1.73 3.5 2.23 4.68 2.41"/></g></g></g></g></svg>