<svg xmlns="http://www.w3.org/2000/svg" width="109" height="109" viewBox="0 0 109 109"><g id="kvg:StrokePaths_083a0" style="fill:none;stroke:#000000;stroke-width:3;stroke-linecap:round;stroke-linejoin:round;"><g id="kvg:083a0" kvg:element="莠"><g id="kvg:083a0-g1" kvg:element="艹" kvg:variant="true" kvg:original="艸" kvg:position="top" kvg:radical="general"><path id="kvg:083a0-s1" kvg:type="㇐" d="M18 20.77c1.29.53 2.8.63 4.1.53 11.9-.96 51.4-4.46 65.12-4.53 2.16-.01 3.45.25 4.53.51"/><path id="kvg:083a0-s2" kvg:type="㇑a" d="M39.5 10.75c.98 1.1 1.29 1.43 1.4 2.11C41.88 19.18 42.72 25.7 43 28"/><path id="kvg:083a0-s3" kvg:type="㇑a" d="M66.7 9.25c.16.74.37 1.29.19 2.2-1.05 5.35-1.53 8.02-2.68 13.05"/></g><g id="kvg:083a0-g2" kvg:element="秀" kvg:position="bottom"><g id="kvg:083a0-g3" kvg:element="禾" kvg:position="top"><g id="kvg:083a0-g4" kvg:element="丿" kvg:position="top"><path id="kvg:083a0-s4" kvg:type="㇒" d="M72.51 26.46c.12.24.32.65-.23.95-5.67 3.07-18.03 7.9-41.77 9.12"/></g><g id="kvg:083a0-g5" kvg:element="木" kvg:position="bottom"><path id="kvg:083a0-s5" kvg:type="㇐" d="M17.13 44.84c1.14.2 4.18.22 7.22.14 10.51-.25 40.69-4.01 61.58-5.01 3.03-.14 3.8-.2 5.7.0"/><path id="kvg:083a0-s6" kvg:type="㇑" d="M53.22 34.46c.89.36 1.42 1.63 1.6 2.35s0 18.99-.18 23.51"/><path id="kvg:083a0-s7" kvg:type="㇒" d="M50.25 43.34c-7.02 8.41-17.54 16.64-34.5 22.84"/><path id="kvg:083a0-s8" kvg:type="㇏" d="M54.5 42.75c5.12 2.81 28.54 16.1 34.11 18.86 1.89.94 3.5 1.34 5.39 1.61"/></g></g><g id="kvg:083a0-g6" kvg:element="乃" kvg:position="bottom"><g id="kvg:083a0-g7" kvg:element="丿"><path id="kvg:083a0-s9" kvg:type="㇒" d="M48.53 66.87c.48.67.68 1.75.24 2.8C45.12 78.5 37.88 89 21.83 98.92"/></g><path id="kvg:083a0-s10" kvg:type="㇡" d="M32.41 64.78c1.3.37 3.16.45 4.45.37 10.02-.62 21.89-2.12 31.29-3.58 2.39-.37 3.12 1.28 2.28 2.28-2.6 3.1-5.55 7.98-8.15 11.21-.51.64-.18 1.75 1.3 1.49 4.27-.74 11.41-1.78 15.49-2.27 2.22-.27 2.81 2.32 2.54 3.1-2.48 7.13-4.98 13.13-11.97 20-3.7 3.63-6.68 1.24-8.16-.5"/></g></g></g></g></svg>