<svg xmlns="http://www.w3.org/2000/svg" width="109" height="109" viewBox="0 0 109 109"><g id="kvg:StrokePaths_083bd" style="fill:none;stroke:#000000;stroke-width:3;stroke-linecap:round;stroke-linejoin:round;"><g id="kvg:083bd" kvg:element="莽"><g id="kvg:083bd-g1" kvg:element="艹" kvg:variant="true" kvg:original="艸" kvg:position="top" kvg:radical="general"><path id="kvg:083bd-s1" kvg:type="㇐" d="M17.33 22.33c1.29.53 5.42.92 8.5.67 11.9-.96 45.11-3.43 58.83-3.5 2.16-.01 6.75.9 7.83 1.17"/><path id="kvg:083bd-s2" kvg:type="㇑a" d="M35.83 11.33c1.92.42 1.99 1.36 2.17 2.17 1.64 7.55 2.2 14.76 2.67 17.5"/><path id="kvg:083bd-s3" kvg:type="㇑a" d="M67 9c1.83.83 2.2 3.01 1.83 4.33-1.12 4.05-1.87 10.32-3.5 15.5"/></g><g id="kvg:083bd-g2" kvg:position="bottom"><g id="kvg:083bd-g3" kvg:element="大"><path id="kvg:083bd-s4" kvg:type="㇐" d="M18 40c1.88.39 5.1 1.16 7.5 1 18.11-1.22 41.5-2.75 56-3.67 2.49-.16 6.58-.17 8.83.33"/><path id="kvg:083bd-s5" kvg:type="㇒" d="M51.33 26.42c.33 1.47.34 2.36-.16 3.54-7.75 18.46-19.39 31.66-34.42 40.21"/><path id="kvg:083bd-s6" kvg:type="㇏" d="M62.5 40.17c7.3 5.63 16.83 16.67 28.18 21.16 2.31.92 2.98 1.31 3.99 1.42"/></g><g id="kvg:083bd-g4" kvg:element="廾"><g id="kvg:083bd-g5" kvg:element="十" kvg:part="1"><path id="kvg:083bd-s7" kvg:type="㇐" d="M21 72.67c1.2.58 4 1.08 7.67.83 12.49-.85 38.5-3.37 54.33-4.33 2.75-.17 6.83.54 7.83.83"/></g><g id="kvg:083bd-g6" kvg:element="丿"><path id="kvg:083bd-s8" kvg:type="㇒" d="M42.7 57.67c.7 1.01 1.36 2.06 1.42 3.53.69 16.47-.65 32.32-19.87 39.88"/></g><g id="kvg:083bd-g7" kvg:element="十" kvg:part="2"><path id="kvg:083bd-s9" kvg:type="㇑" d="M65.33 57.17c1.83 1 1.98 2.94 1.98 4.53.0 7.16.0 32.67-.16 39.3"/></g></g></g></g></g></svg>