<svg xmlns="http://www.w3.org/2000/svg" width="109" height="109" viewBox="0 0 109 109"><g id="kvg:StrokePaths_083b1"><g id="kvg:083b1" kvg:element="莱"><g id="kvg:083b1-g1" kvg:element="艹" kvg:variant="true" kvg:original="艸" kvg:position="top" kvg:radical="general"><path id="kvg:083b1-s1" kvg:type="㇐" d="M20 21.77c1.29.53 2.8.63 4.1.53 11.9-.96 47.4-3.96 61.12-4.03 2.16-.01 3.45.25 4.53.51"/><path id="kvg:083b1-s2" kvg:type="㇑a" d="M36.25 10.5c1.75 1.43 2.31 1.87 2.5 2.75C40.5 21.5 41 26 41.5 29"/><path id="kvg:083b1-s3" kvg:type="㇑a" d="M68.97 8.75c.98.88 1.64 2.21 1.31 3.5-.98 3.94-1.64 10.5-3.06 15.53"/></g><g id="kvg:083b1-g2" kvg:element="来" kvg:position="bottom"><path id="kvg:083b1-s4" kvg:type="㇐" d="M22.79 39.4c1.16.4 3.29.49 4.45.4 13.01-1.04 42.78-4.32 54.78-4.53 1.93-.03 3.09.19 4.06.38"/><g id="kvg:083b1-g3" kvg:element="米"><path id="kvg:083b1-s5" kvg:type="㇔" d="M32 46.47c2.08 1.47 5.23 5.64 5.75 7.93"/><path id="kvg:083b1-s6" kvg:type="㇒" d="M75.27 42.52c.03.3.05.77-.05 1.19-.63 2.51-4.26 8.02-9.22 11.4"/><g id="kvg:083b1-g4" kvg:element="木"><path id="kvg:083b1-s7" kvg:type="㇐" d="M13.87 61.72c.92.22 3.41.86 5.86.65 10.3-.87 60.22-4.78 71.02-4.34 2.46.1 3.08-.22 4.63.0"/><path id="kvg:083b1-s8" kvg:type="㇑" d="M51.92 25.5c1.35.43 2.43 2.41 2.43 3.32.0 3.93.0 66-.27 71.43"/><path id="kvg:083b1-s9" kvg:type="㇒" d="M52.92 60.48c-6.54 11.02-22.45 26.5-37.17 32.85"/><path id="kvg:083b1-s10" kvg:type="㇏" d="M53.75 62.29C60.5 67.75 80 85.75 87.08 89.43c2.05 1.07 3.52 1.89 5.42 2.27"/></g></g></g></g></g></svg>