<!DOCTYPE svg PUBLIC "-//W3C//DTD SVG 1.0//EN" "http://www.w3.org/TR/2001/REC-SVG-20010904/DTD/svg10.dtd" [
<!ATTLIST g
xmlns:kvg CDATA #FIXED "http://kanjivg.tagaini.net"
kvg:element CDATA #IMPLIED
kvg:variant CDATA #IMPLIED
kvg:partial CDATA #IMPLIED
kvg:original CDATA #IMPLIED
kvg:part CDATA #IMPLIED
kvg:number CDATA #IMPLIED
kvg:tradForm CDATA #IMPLIED
kvg:radicalForm CDATA #IMPLIED
kvg:position CDATA #IMPLIED
kvg:radical CDATA #IMPLIED
kvg:phon CDATA #IMPLIED >
<!ATTLIST path
xmlns:kvg CDATA #FIXED "http://kanjivg.tagaini.net"
kvg:type CDATA #IMPLIED >
]><svg xmlns="http://www.w3.org/2000/svg" width="109" height="109" viewBox="0 0 109 109"><g id="kvg:StrokePaths_083ce" style="fill:none;stroke:#000000;stroke-width:3;stroke-linecap:round;stroke-linejoin:round;"><g id="kvg:083ce" kvg:element="菎"><g id="kvg:083ce-g1" kvg:element="艹" kvg:variant="true" kvg:original="艸" kvg:position="top" kvg:radical="general"><path id="kvg:083ce-s1" kvg:type="㇐" d="M16.5 21c1.37.53 4 1.25 7 1.17 12.59-.35 48.99-4.33 63.47-4.41 2.28-.01 5.23.47 6.37.74"/><path id="kvg:083ce-s2" kvg:type="㇑a" d="M36.17 10.67c1.58.83 2.17 1.72 2.33 2.5 1.68 8.24 1.75 13.33 2.5 17"/><path id="kvg:083ce-s3" kvg:type="㇑a" d="M66.5 9.17c1.28.86 1.47 3.21 1.24 4.53-.99 5.55-1.99 8.3-3.49 14.3"/></g><g id="kvg:083ce-g2" kvg:element="昆" kvg:position="bottom"><g id="kvg:083ce-g3" kvg:element="日" kvg:position="top"><path id="kvg:083ce-s4" kvg:type="㇑" d="M27.5 33.67c1 .83 1.79 2.26 1.83 3 .17 2.58 2.83 21.63 2.83 22"/><path id="kvg:083ce-s5" kvg:type="㇕a" d="M29.67 35.17c3.03-.09 40.57-3.22 43.33-3.33 2.3-.09 4.31 2.12 4.05 4.28-.13 1.14-1.92 12.78-4.22 20.72"/><path id="kvg:083ce-s6" kvg:type="㇐a" d="M32.06 45.68c9.19-.5 38.42-2.85 43.6-2.85"/><path id="kvg:083ce-s7" kvg:type="㇐a" d="M33.35 56.88c9.34-.43 28.02-2.01 39.65-2.38"/></g><g id="kvg:083ce-g4" kvg:element="比" kvg:position="bottom"><g id="kvg:083ce-g5" kvg:position="left"><path id="kvg:083ce-s8" kvg:type="㇐b" d="M28.5 75c4.93-.78 14.85-1.82 19-2.33 1.54-.19 4.2-.02 5.5.5"/><path id="kvg:083ce-s9" kvg:type="㇙" d="M25.83 63.33c1.13.58 1.78 3.33 1.83 4.17.32 5.26-.19 19-.19 28.04.0 3.12-.58 3.84 4.08 1.64C39.33 93.5 42.17 91.67 50 88"/></g><g id="kvg:083ce-g6" kvg:element="匕" kvg:position="right"><path id="kvg:083ce-s10" kvg:type="㇒" d="M86.67 63.17c.33 1.08-.28 2.93-1 3.33C77.45 71.08 74.5 72.67 64 77.67"/><path id="kvg:083ce-s11" kvg:type="㇟" d="M59.33 60.33c1.17.92 2.05 3.37 2.03 4.15-.15 4.4-.31 21.83-.31 24.19.0 6.82 1.45 9.5 16.88 9.5 12.82.0 15.74-.93 15.74-11.68"/></g></g></g></g></g><g id="kvg:StrokeNumbers_083ce" style="font-size:8;fill:#808080"><text transform="matrix(1 0 0 1 9.50 21.50)">1</text><text transform="matrix(1 0 0 1 27.50 11.85)">2</text><text transform="matrix(1 0 0 1 57.50 10.50)">3</text><text transform="matrix(1 0 0 1 20.50 41.50)">4</text><text transform="matrix(1 0 0 1 30.50 31.33)">5</text><text transform="matrix(1 0 0 1 34.50 43.50)">6</text><text transform="matrix(1 0 0 1 35.25 54.18)">7</text><text transform="matrix(1 0 0 1 32.50 71.50)">8</text><text transform="matrix(1 0 0 1 17.50 63.03)">9</text><text transform="matrix(1 0 0 1 74.25 65.95)">10</text><text transform="matrix(1 0 0 1 49.50 64.50)">11</text></g></svg>