<svg xmlns="http://www.w3.org/2000/svg" width="109" height="109" viewBox="0 0 109 109"><g id="kvg:StrokePaths_083c1" style="fill:none;stroke:#000000;stroke-width:3;stroke-linecap:round;stroke-linejoin:round;"><g id="kvg:083c1" kvg:element="菁"><g id="kvg:083c1-g1" kvg:element="艹" kvg:variant="true" kvg:original="艸" kvg:position="top" kvg:radical="general"><path id="kvg:083c1-s1" kvg:type="㇐" d="M16.33 20.5c1.32.53 3.49 1 7.65 1 12.18.0 45.52-2.76 59.52-2.83 2.2-.01 7.23-.26 8.33.0"/><path id="kvg:083c1-s2" kvg:type="㇑a" d="M36.5 11.5c2.33.67 2.74 2.55 2.83 3.33.92 7.92.67 11.42 1.17 15"/><path id="kvg:083c1-s3" kvg:type="㇑a" d="M67.83 9.83c.92.92 1.16 2.21.83 3.67-1.42 6.25-2.02 9.13-3.42 14.83"/></g><g id="kvg:083c1-g2" kvg:element="青" kvg:variant="true" kvg:position="bottom"><g id="kvg:083c1-g3" kvg:element="龶" kvg:position="top"><path id="kvg:083c1-s4" kvg:type="㇐" d="M24.33 36c1.26.3 3.92 1.25 7 1 9.1-.74 39.64-2.87 47.5-3.33 2.1-.12 6.38.28 7.5.33"/><path id="kvg:083c1-s5" kvg:type="㇑" d="M51.83 26.5c.8.19 2.17 2.25 2.17 3.67.0 4.93.13 16.22.21 22.31"/><path id="kvg:083c1-s6" kvg:type="㇐" d="M28.33 44.83c1.14.24 4.42.67 7.33.67 8.22.0 32.92-2.13 40-2.5 1.89-.1 5.66-.21 6.67-.17"/><path id="kvg:083c1-s7" kvg:type="㇐" d="M17.33 55c1.77.26 5.18 1.06 9.5.67C42.5 54.25 66.5 52.75 84 52c2.93-.13 8.05.03 10.17.67"/></g><g id="kvg:083c1-g4" kvg:element="円" kvg:variant="true" kvg:original="月" kvg:position="bottom"><g id="kvg:083c1-g5" kvg:element="冂"><path id="kvg:083c1-s8" kvg:type="㇑" d="M32.67 61.5c.33.25 1.37 2.15 1.83 2.64s.34 22.32.34 36.36"/><path id="kvg:083c1-s9" kvg:type="㇆a" d="M34.39 63.58c6.73-.46 34.48-2.86 37.13-2.86 3.12.0 3.73.78 3.79 3.57.08 3.31-.26 18.89-.26 27.7.0 12.52-5.01 3.67-7.55 2.02"/></g><path id="kvg:083c1-s10" kvg:type="㇑" d="M53.68 63.03c.83.34.75 1.46.74 2.32-.02 4.3-.1 8.97-.1 10.99"/><path id="kvg:083c1-s11" kvg:type="㇐" d="M35.5 78.83c11.8-.98 26.66-2.09 38.67-2.33"/></g></g></g></g></svg>