<svg xmlns="http://www.w3.org/2000/svg" width="109" height="109" viewBox="0 0 109 109"><g id="kvg:StrokePaths_083cc" style="fill:none;stroke:#000000;stroke-width:3;stroke-linecap:round;stroke-linejoin:round;"><g id="kvg:083cc" kvg:element="菌"><g id="kvg:083cc-g1" kvg:element="艹" kvg:variant="true" kvg:original="艸" kvg:position="top" kvg:radical="general"><path id="kvg:083cc-s1" kvg:type="㇐" d="M21.25 25.02c2.4.98 5.72.65 8.25.41 12.55-1.19 36.21-3.65 50.13-4.27 3.2-.14 6.48-.39 9.62.37"/><path id="kvg:083cc-s2" kvg:type="㇑a" d="M36.5 12.75c1.06 1.06 1.75 2.24 1.95 3.07 1.89 7.7 2.76 14.38 3.3 17.18"/><path id="kvg:083cc-s3" kvg:type="㇑a" d="M68.87 11.5c.35.97.55 2.19.16 3.39-2.27 7.01-3.05 9.77-5.53 16.36"/></g><g id="kvg:083cc-g2" kvg:position="bottom" kvg:phon="囷"><g id="kvg:083cc-g3" kvg:element="囗" kvg:part="1"><path id="kvg:083cc-s4" kvg:type="㇑" d="M24.62 40.06c1.04 1.04 1.36 2.72 1.36 4.08.0 12.67-.06 31.56-.09 46.99.0 2.04-.01 4.01-.01 5.86"/><path id="kvg:083cc-s5" kvg:type="㇕a" d="M26.88 41.34c17-1.72 35.81-3.73 53.69-4.55 2.99-.14 4.81.82 4.81 3.45.0 10.96.07 32.12.07 48.25.0 2.27.01 4.45.01 6.5"/></g><g id="kvg:083cc-g4" kvg:element="禾"><g id="kvg:083cc-g5" kvg:element="丿" kvg:position="top"><path id="kvg:083cc-s6" kvg:type="㇒" d="M62.76 43.5c.3.99-.99 1.62-1.61 2.01-3.35 2.05-11.33 5.41-21.59 7.45"/></g><g id="kvg:083cc-g6" kvg:element="木" kvg:position="bottom"><path id="kvg:083cc-s7" kvg:type="㇐" d="M35.39 61.4c1.78.54 3.66.31 5.47.12 6.66-.68 21.67-2.72 29.39-3.53 1.56-.16 3.39-.33 4.96-.05"/><path id="kvg:083cc-s8" kvg:type="㇑" d="M54.78 51.31c.7.7.81 1.81.81 3 0 5.06-.03 14.81-.03 26.06.0 2.01-.01 3.84-.01 5.38"/><path id="kvg:083cc-s9" kvg:type="㇒" d="M53.54 60.49c0 1.13-1.27 2.64-2.56 4.44-4.52 6.33-11.05 13.2-16.6 17.37"/><path id="kvg:083cc-s10" kvg:type="㇔/㇏" d="M56.19 64.63C62.5 68 68 71.75 73.01 77.31"/></g></g><g id="kvg:083cc-g7" kvg:element="囗" kvg:part="2"><path id="kvg:083cc-s11" kvg:type="㇐a" d="M27.1 94.44c16.15-1.44 39.28-2.81 57.35-3.59"/></g></g></g></g></svg>