<svg xmlns="http://www.w3.org/2000/svg" width="109" height="109" viewBox="0 0 109 109"><g id="kvg:StrokePaths_083df" style="fill:none;stroke:#000000;stroke-width:3;stroke-linecap:round;stroke-linejoin:round;"><g id="kvg:083df" kvg:element="菟"><g id="kvg:083df-g1" kvg:element="艹" kvg:variant="true" kvg:original="艸" kvg:position="top" kvg:radical="general"><path id="kvg:083df-s1" kvg:type="㇐" d="M19 21.89c1.32.41 2.86.49 4.19.41 12.16-.75 47.92-3.49 61.93-3.54 2.2-.01 3.53.2 4.63.4"/><path id="kvg:083df-s2" kvg:type="㇑a" d="M39.75 10.5c1.25 1.15 1.65 1.5 1.79 2.21 1.25 6.62 1.61 12.64 1.96 15.04"/><path id="kvg:083df-s3" kvg:type="㇑a" d="M68.12 9.75c.89.79 1.48 2 1.19 3.17-.89 3.57-1.49 9.52-2.78 14.08"/></g><g id="kvg:083df-g2" kvg:position="bottom"><g id="kvg:083df-g3" kvg:element="兔" kvg:variant="true"><g id="kvg:083df-g4" kvg:element="免"><g id="kvg:083df-g5" kvg:position="top"><g id="kvg:083df-g6" kvg:element="𠂊" kvg:variant="true" kvg:original="勹"><path id="kvg:083df-s4" kvg:type="㇒" d="M48.13 30.4c.07.44.14 1.15-.14 1.79-1.66 3.77-10.71 12.03-23.79 17.09"/><path id="kvg:083df-s5" kvg:type="㇇" d="M45.11 37.29c2.77.0 15.56-1.93 18.47-2.14 2.5-.18 2.7 2.38 1.74 3.38C62 42 59.5 45 54.87 51.24"/></g><path id="kvg:083df-s6" kvg:type="㇑" d="M27.39 53.26c.35.43.71.79.86 1.33 1.21 4.29 1.6 9.48 2.42 17.18"/><path id="kvg:083df-s7" kvg:type="㇕" d="M29.95 54.06c12.69-1.58 42.72-2.15 49.26-2.69 2.39-.19 3.83 1.96 3.49 3.11-1.42 4.74-2.94 10.27-4.07 13.65"/><path id="kvg:083df-s8" kvg:type="㇑" d="M53.35 53.77c.77.81 1.07 2.42 1.07 3.43.0 3.84.0 8.08.0 9.69"/><path id="kvg:083df-s9" kvg:type="㇐" d="M31.12 69.32c5.13-.4 42.16-2.12 47.81-2.33"/></g><g id="kvg:083df-g7" kvg:element="儿" kvg:original="八" kvg:position="bottom"><g id="kvg:083df-g8" kvg:element="丿" kvg:position="left"><path id="kvg:083df-s10" kvg:type="㇒" d="M45.11 71.23c.08.68.17 1.75-.16 2.73-1.94 5.76-11.11 19.9-28.28 26.13"/></g><g id="kvg:083df-g9" kvg:position="right"><path id="kvg:083df-s11" kvg:type="㇟" d="M58.49 69.82c.69.89 1.27 1.94 1.27 3.32.0 5.36.01 12.84.01 17.01.0 9.74 7.75 8.64 15.87 8.64 8.57.0 14.21-1.26 15.41-1.96 2.55-1.5 1.85-2.25 2.08-4.87"/></g></g></g></g><g id="kvg:083df-g10" kvg:element="丶"><path id="kvg:083df-s12" kvg:type="㇔" d="M69.27 77.33c3.54 1.83 9.16 7.53 10.04 10.38"/></g></g></g></g></svg>