<!DOCTYPE svg PUBLIC "-//W3C//DTD SVG 1.0//EN" "http://www.w3.org/TR/2001/REC-SVG-20010904/DTD/svg10.dtd" [
<!ATTLIST g
xmlns:kvg CDATA #FIXED "http://kanjivg.tagaini.net"
kvg:element CDATA #IMPLIED
kvg:variant CDATA #IMPLIED
kvg:partial CDATA #IMPLIED
kvg:original CDATA #IMPLIED
kvg:part CDATA #IMPLIED
kvg:number CDATA #IMPLIED
kvg:tradForm CDATA #IMPLIED
kvg:radicalForm CDATA #IMPLIED
kvg:position CDATA #IMPLIED
kvg:radical CDATA #IMPLIED
kvg:phon CDATA #IMPLIED >
<!ATTLIST path
xmlns:kvg CDATA #FIXED "http://kanjivg.tagaini.net"
kvg:type CDATA #IMPLIED >
]><svg xmlns="http://www.w3.org/2000/svg" width="109" height="109" viewBox="0 0 109 109"><g id="kvg:StrokePaths_083eb" style="fill:none;stroke:#000000;stroke-width:3;stroke-linecap:round;stroke-linejoin:round;"><g id="kvg:083eb" kvg:element="菫"><g id="kvg:083eb-g1" kvg:element="艹" kvg:variant="true" kvg:original="艸" kvg:position="top" kvg:radical="general"><path id="kvg:083eb-s1" kvg:type="㇐" d="M15.75 22.06c2.88.68 6.56.62 9.5.33 15.48-1.56 42.2-3.2 57.62-3.58 3.51-.09 7.05.01 10.54.5"/><path id="kvg:083eb-s2" kvg:type="㇑a" d="M40.19 10.45c.93.93 1.19 2.05 1.34 3.39.84 7.27 1.17 11.61 1.38 14.66"/><path id="kvg:083eb-s3" kvg:type="㇑a" d="M67.04 9.17c.33.96.49 1.94.29 3.21-.93 5.73-1.45 9.37-2.58 15.34"/></g><g id="kvg:083eb-g2" kvg:position="bottom"><path id="kvg:083eb-s4" kvg:type="㇐" d="M24.25 36.58c3.75.79 6.37.45 9.25.15 10.16-1.08 31.11-2.93 41.51-3.49 3.09-.17 6.44-.39 9.49.32"/><path id="kvg:083eb-s5" kvg:type="㇑" d="M29.75 47.21c.83.48 1.34 1.45 1.52 2.4.97 3.78 1.81 7.24 2.63 10.76.3 1.27.59 2.55.89 3.85"/><path id="kvg:083eb-s6" kvg:type="㇕" d="M32.02 48.94c12.1-1.68 34.24-4.11 41.97-4.8 3.42-.3 5.03.81 4.16 4.24-.74 2.94-1.27 4.95-2.27 8.07-.41 1.28-.89 2.75-1.5 4.55"/><path id="kvg:083eb-s7" kvg:type="㇐" d="M35.23 62.32c10.02-1.2 28.39-2.95 38.7-3.37"/><path id="kvg:083eb-s8" kvg:type="㇑" d="M52.62 36.75c.94.94 1.21 2.5 1.21 4 0 4.75.03 44.12.03 53.5"/><g id="kvg:083eb-g3" kvg:element="三"><g id="kvg:083eb-g4" kvg:element="一" kvg:position="top"><path id="kvg:083eb-s9" kvg:type="㇐" d="M27.75 72.58c3.25.67 5.87.53 8.49.29 8.93-.84 25.01-2.12 36.64-2.71 3.12-.16 6.29-.56 9.38.16"/></g><g id="kvg:083eb-g5" kvg:position="bottom"><g id="kvg:083eb-g6" kvg:element="一"><path id="kvg:083eb-s10" kvg:type="㇐" d="M33.5 83.58c2.04.79 4.99.6 7.14.38 7.48-.76 21.03-2 28.49-2.44 2.31-.14 4.6-.24 6.87.29"/></g><g id="kvg:083eb-g7" kvg:element="一"><path id="kvg:083eb-s11" kvg:type="㇐" d="M20 96.33c3.62 1.17 7.9.68 11.62.42 16-1.13 39.46-2.72 51.38-2.9 3.23-.05 6.32.09 9.5.71"/></g></g></g></g></g></g><g id="kvg:StrokeNumbers_083eb" style="font-size:8;fill:#808080"><text transform="matrix(1 0 0 1 5.00 22.38)">1</text><text transform="matrix(1 0 0 1 30.25 10.25)">2</text><text transform="matrix(1 0 0 1 59.00 9.25)">3</text><text transform="matrix(1 0 0 1 17.25 38.25)">4</text><text transform="matrix(1 0 0 1 24.25 55.25)">5</text><text transform="matrix(1 0 0 1 34.25 46.25)">6</text><text transform="matrix(1 0 0 1 37.50 59.43)">7</text><text transform="matrix(1 0 0 1 46.25 44.25)">8</text><text transform="matrix(1 0 0 1 20.00 72.78)">9</text><text transform="matrix(1 0 0 1 22.25 85.25)">10</text><text transform="matrix(1 0 0 1 10.50 98.25)">11</text></g></svg>