<svg xmlns="http://www.w3.org/2000/svg" width="109" height="109" viewBox="0 0 109 109"><g id="kvg:StrokePaths_083f0" style="fill:none;stroke:#000000;stroke-width:3;stroke-linecap:round;stroke-linejoin:round;"><g id="kvg:083f0" kvg:element="菰"><g id="kvg:083f0-g1" kvg:element="艹" kvg:variant="true" kvg:original="艸" kvg:position="top" kvg:radical="general"><path id="kvg:083f0-s1" kvg:type="㇐" d="M16.5 23.83c4.36.73 8.67.26 13.12-.15 14.88-1.38 35.75-2.67 49.62-3.22 4.17-.2 8.34-.03 12.51.51"/><path id="kvg:083f0-s2" kvg:type="㇑a" d="M37.5 12.5c1.06 1.06 1.65 2.35 1.75 3.25C40 22.5 40.5 27.12 41 31.12"/><path id="kvg:083f0-s3" kvg:type="㇑a" d="M67.62 11.5c.56 1.38.46 2.73.03 4.2C66 21.5 64.88 25 63.06 31.5"/></g><g id="kvg:083f0-g2" kvg:element="孤" kvg:position="bottom"><g id="kvg:083f0-g3" kvg:element="子" kvg:variant="true" kvg:position="left"><path id="kvg:083f0-s4" kvg:type="㇖" d="M19.85 40.73c2.2.67 4.38.65 6.53-.05 4.63-.89 9.76-1.85 14.6-2.81 2.52-.5 3.05 1.23 1.66 2.98-1.77 2.2-6.94 6.73-13.17 12.77"/><path id="kvg:083f0-s5" kvg:type="㇁" d="M26.21 54.91c9.29 3.84 14.26 21.73 9.13 37.2-2.77 8.33-8.15 1.75-9.32 1.07"/><path id="kvg:083f0-s6" kvg:type="㇀/㇐" d="M14.62 71.96c1.89.89 3.61.88 5.16-.04 9.54-4.65 14.6-7.57 22.55-11.53"/></g><g id="kvg:083f0-g4" kvg:element="瓜" kvg:position="right"><g id="kvg:083f0-g5" kvg:element="丿"><path id="kvg:083f0-s7" kvg:type="㇒" d="M79.47 31.75c-.09 1.25-.4 1.98-1.29 2.56-4.93 3.94-9.03 6.56-21.93 11.06"/></g><path id="kvg:083f0-s8" kvg:type="㇒" d="M51.9 44.27c.85.85 1.13 1.85 1.11 3.26C52.75 67.25 50 87.25 39.31 97.22"/><g id="kvg:083f0-g6" kvg:element="厶" kvg:variant="true"><path id="kvg:083f0-s9" kvg:type="㇑" d="M64.07 45.79c.82.82 1.02 2.22 1.02 3.24.0 5.21-.09 28.89-.09 37.34"/><path id="kvg:083f0-s10" kvg:type="㇐" d="M54.08 89.53c1.32 1 2.61 1.19 3.85.59 6.64-2.47 9.3-3.58 16.57-6.37"/><path id="kvg:083f0-s11" kvg:type="㇔" d="M73.63 77.64c3 3.29 5.32 9.08 6 13.72"/></g><path id="kvg:083f0-s12" kvg:type="㇏" d="M73.87 40.48c.24.0 1 .51 1.27 1.55 2.89 11.29 7.73 35.27 17.76 49.33 1.53 2.14 3.15 3.46 4.23 4.16"/></g></g></g></g></svg>