<svg xmlns="http://www.w3.org/2000/svg" width="109" height="109" viewBox="0 0 109 109"><g id="kvg:StrokePaths_08404"><g id="kvg:08404" kvg:element="萄"><g id="kvg:08404-g1" kvg:element="艹" kvg:variant="true" kvg:original="艸" kvg:position="top" kvg:radical="general"><path id="kvg:08404-s1" kvg:type="㇐" d="M19.5 23.77c1.35.53 2.92.63 4.28.53 12.42-.96 48.93-4.46 63.25-4.53 2.25-.01 3.6.25 4.73.51"/><path id="kvg:08404-s2" kvg:type="㇑a" d="M32.75 12c1.75 1.43 2.31 1.87 2.5 2.75C37 23 37.5 28.5 38 31.5"/><path id="kvg:08404-s3" kvg:type="㇑a" d="M67.75 11.25c1.12 1 1.87 2.52 1.5 4-1.12 4.5-2.38 9.5-4 15.25"/></g><g id="kvg:08404-g2" kvg:position="bottom"><g id="kvg:08404-g3" kvg:element="勹"><g id="kvg:08404-g4" kvg:element="丿"><path id="kvg:08404-s4" kvg:type="㇒" d="M44.31 29.75c.06.5.13 1.3-.12 2.03-1.45 4.27-9.78 13.65-21.19 19.4"/></g><path id="kvg:08404-s5" kvg:type="㇆" d="M39.99 38.82c1.01 1.18 4.05 1.72 6.04 1.45 4.93-.67 28.05-3.74 34.02-4.41 4.77-.54 7.64.0 7.5 3.8-.67 17.42-2.73 33.94-8.61 53.89-1.68 5.71-4.93 3.71-7.88-.45"/></g><g id="kvg:08404-g5" kvg:element="缶"><path id="kvg:08404-s6" kvg:type="㇒" d="M39.02 46.1c.03.37.06.94-.06 1.47-.7 3.09-4.69 9.88-10.16 14.03"/><path id="kvg:08404-s7" kvg:type="㇐" d="M34.63 55.72c.66.25 1.87.31 2.53.25 8.1-.69 14.89-2.33 22.16-3.21 1.09-.13 1.76.12 2.31.25"/><path id="kvg:08404-s8" kvg:type="㇐" d="M20.57 68.01c.97.35 2.74.41 3.7.35 10.05-.59 29.3-3.59 43.97-3.73 1.61-.01 2.58.17 3.38.34"/><path id="kvg:08404-s9" kvg:type="㇑" d="M45.14 57.77c.59.72 1.27 1.25 1.27 2.24.0 3.48-.06 22.57-.16 25.51"/><path id="kvg:08404-s10" kvg:type="㇄" d="M28.46 75.34c.48.24 1.29 1.91.95 3.21-.7 2.69-1.41 5.7-1.55 8.89-.05 1.11.42 2.27 1.55 1.97 10.84-2.86 20.92-4.93 34.57-5.99"/><path id="kvg:08404-s11" kvg:type="㇑" d="M64.34 72.11c.48.28 1.03 2.05.95 2.6-.47 3.36-.45 6.81-1.23 13.07"/></g></g></g></g></svg>