<svg xmlns="http://www.w3.org/2000/svg" width="109" height="109" viewBox="0 0 109 109"><g id="kvg:StrokePaths_08422"><g id="kvg:08422" kvg:element="萢"><g id="kvg:08422-g1" kvg:element="艹" kvg:variant="true" kvg:original="艸" kvg:position="top" kvg:radical="general"><path id="kvg:08422-s1" kvg:type="㇐" d="M17.33 25.83c1.29.53 4.92.92 7.33.67 11.88-1.23 42.61-5.09 56.33-5.17 2.16-.01 5-.08 8 .83"/><path id="kvg:08422-s2" kvg:type="㇑a" d="M35.75 13.5c2 .5 3.07 1.74 3.25 2.67 1.75 9.08 2.67 15.5 3.17 18.83"/><path id="kvg:08422-s3" kvg:type="㇑a" d="M67 11.17c1.12 1 1.62 2.61 1.25 4.08-1.12 4.5-3.12 11.17-4.75 16.92"/></g><g id="kvg:08422-g2" kvg:element="泡" kvg:position="bottom"><g id="kvg:08422-g3" kvg:element="氵" kvg:variant="true" kvg:original="水" kvg:position="left"><path id="kvg:08422-s4" kvg:type="㇔" d="M23.14 38.55c4.39 1.67 11.34 6.85 12.44 9.45"/><path id="kvg:08422-s5" kvg:type="㇔" d="M18.17 56.15c3.87 1.54 9.99 6.34 10.95 8.73"/><path id="kvg:08422-s6" kvg:type="㇀" d="M19.17 94.5c2.08.75 4.08.31 5.67-1.83 4.63-6.24 10.51-14.88 14.72-22.84"/></g><g id="kvg:08422-g4" kvg:element="包" kvg:position="right"><g id="kvg:08422-g5" kvg:element="勹"><g id="kvg:08422-g6" kvg:element="丿"><path id="kvg:08422-s7" kvg:type="㇒" d="M57.05 34.58c.04.54.22 1.43-.08 2.16-2.01 4.75-7.48 13.69-15 20.63"/></g><path id="kvg:08422-s8" kvg:type="㇆" d="M55.17 44c.81.55 3.15.59 4.5.5 3.58-.25 22.04-3.29 25.28-3.6 1.54-.15 3.4 1.01 3.21 3.05-.9 9.56-1.83 20.7-6.49 32.06C79 82.5 75.92 79.78 74 77.5"/></g><g id="kvg:08422-g7" kvg:element="己"><path id="kvg:08422-s9" kvg:type="㇕c" d="M48.82 56.29c1.15.71 3.16.95 4.85.71 3.43-.48 13.01-3.34 14.06-3.43 1.38-.12 2.47.78 1.98 2.63-.15.55-1.04 6.47-1.7 11.47"/><path id="kvg:08422-s10" kvg:type="㇐" d="M49.75 68.5c.95.39 2.25 1.3 3.74 1.24C60 69.5 66.04 68.74 69.67 68.5"/><path id="kvg:08422-s11" kvg:type="㇟" d="M51.5 70c.5 1.25.57 2.4.56 3.87-.03 4.71.11 8.85.11 12.96.0 8.94.98 9.85 22.75 9.85 19.55.0 19.58-3.32 19.58-11.85"/></g></g></g></g></g></svg>