<!DOCTYPE svg PUBLIC "-//W3C//DTD SVG 1.0//EN" "http://www.w3.org/TR/2001/REC-SVG-20010904/DTD/svg10.dtd" [
<!ATTLIST g
xmlns:kvg CDATA #FIXED "http://kanjivg.tagaini.net"
kvg:element CDATA #IMPLIED
kvg:variant CDATA #IMPLIED
kvg:partial CDATA #IMPLIED
kvg:original CDATA #IMPLIED
kvg:part CDATA #IMPLIED
kvg:number CDATA #IMPLIED
kvg:tradForm CDATA #IMPLIED
kvg:radicalForm CDATA #IMPLIED
kvg:position CDATA #IMPLIED
kvg:radical CDATA #IMPLIED
kvg:phon CDATA #IMPLIED >
<!ATTLIST path
xmlns:kvg CDATA #FIXED "http://kanjivg.tagaini.net"
kvg:type CDATA #IMPLIED >
]><svg xmlns="http://www.w3.org/2000/svg" width="109" height="109" viewBox="0 0 109 109"><g id="kvg:StrokePaths_08435" style="fill:none;stroke:#000000;stroke-width:3;stroke-linecap:round;stroke-linejoin:round;"><g id="kvg:08435" kvg:element="萵"><g id="kvg:08435-g1" kvg:element="艹" kvg:variant="true" kvg:original="艸" kvg:position="top" kvg:radical="general"><path id="kvg:08435-s1" kvg:type="㇐" d="M16 21.57c1.83.74 3.96.89 5.8.74 16.84-1.36 45.13-2.98 64.54-3.08 3.05-.02 4.88.35 6.41.73"/><path id="kvg:08435-s2" kvg:type="㇑a" d="M35.25 11.5c1.75 1.43 2.31 1.87 2.5 2.75C39.5 22.5 40 27.5 40.5 30.5"/><path id="kvg:08435-s3" kvg:type="㇑a" d="M67.25 10.25c1.12 1 1.37 2.52 1 4-1.12 4.5-1.88 9-3.5 14.75"/></g><g id="kvg:08435-g2" kvg:element="咼" kvg:position="bottom"><path id="kvg:08435-s4" kvg:type="㇑a" d="M30.6 33.94c.65 1.05 1.12 2.31 1.3 4.2.65 6.94 1.35 13.85 1.5 22.8"/><path id="kvg:08435-s5" kvg:type="㇕b" d="M31.9 36.12c8.24-.84 38.23-1.84 41.91-2.28 1.73-.21 3.46.66 3.04 2.52-.87 3.78-2.1 17.6-2.97 23.48"/><path id="kvg:08435-s6" kvg:type="㇑a" d="M52.48 44.29c.94.42 1.51 1.89 1.7 2.73.19.84.12 8.62-.07 13.87"/><path id="kvg:08435-s7" kvg:type="㇐a" d="M55.33 46.13c3.04-.21 15.3-1.18 19.63-1.6"/><g id="kvg:08435-g3" kvg:element="冂"><path id="kvg:08435-s8" kvg:type="㇑" d="M19.75 61.94c.65 1.05 1.62 2.73 1.73 4.62.77 12.44 1.77 22.19 2.03 33.34"/><path id="kvg:08435-s9" kvg:type="㇆a" d="M20.98 63.55c8.24-.84 62.31-3.75 63.93-4.04 3.47-.63 4.46 1.48 4.58 2.52.43 3.57-2.25 21.98-4.47 31.34-2 8.45-4.54 2.99-7.15.26"/></g><g id="kvg:08435-g4" kvg:element="口"><path id="kvg:08435-s10" kvg:type="㇑" d="M39.59 71.28c.37.42.74.78.9 1.31 1.27 4.21 2.35 10.24 3.22 17.81"/><path id="kvg:08435-s11" kvg:type="㇕b" d="M41.44 73.09c8.56-1.34 19.2-2.4 23.48-2.96 1.56-.2 2.51 1.2 2.28 2.39-.93 4.92-2.27 9.01-3.39 13.37"/><path id="kvg:08435-s12" kvg:type="㇐b" d="M43.88 87.88c5.03-.63 15.2-1.06 22.11-2.03"/></g></g></g></g><g id="kvg:StrokeNumbers_08435" style="font-size:8;fill:#808080"><text transform="matrix(1 0 0 1 8.50 22.50)">1</text><text transform="matrix(1 0 0 1 26.50 11.85)">2</text><text transform="matrix(1 0 0 1 58.50 10.50)">3</text><text transform="matrix(1 0 0 1 23.50 41.50)">4</text><text transform="matrix(1 0 0 1 33.50 32.50)">5</text><text transform="matrix(1 0 0 1 46.50 51.50)">6</text><text transform="matrix(1 0 0 1 56.50 43.50)">7</text><text transform="matrix(1 0 0 1 13.50 69.50)">8</text><text transform="matrix(1 0 0 1 22.50 60.50)">9</text><text transform="matrix(1 0 0 1 31.50 79.50)">10</text><text transform="matrix(1 0 0 1 43.50 70.50)">11</text><text transform="matrix(1 0 0 1 47.25 84.50)">12</text></g></svg>