<!DOCTYPE svg PUBLIC "-//W3C//DTD SVG 1.0//EN" "http://www.w3.org/TR/2001/REC-SVG-20010904/DTD/svg10.dtd" [
<!ATTLIST g
xmlns:kvg CDATA #FIXED "http://kanjivg.tagaini.net"
kvg:element CDATA #IMPLIED
kvg:variant CDATA #IMPLIED
kvg:partial CDATA #IMPLIED
kvg:original CDATA #IMPLIED
kvg:part CDATA #IMPLIED
kvg:number CDATA #IMPLIED
kvg:tradForm CDATA #IMPLIED
kvg:radicalForm CDATA #IMPLIED
kvg:position CDATA #IMPLIED
kvg:radical CDATA #IMPLIED
kvg:phon CDATA #IMPLIED >
<!ATTLIST path
xmlns:kvg CDATA #FIXED "http://kanjivg.tagaini.net"
kvg:type CDATA #IMPLIED >
]><svg xmlns="http://www.w3.org/2000/svg" width="109" height="109" viewBox="0 0 109 109"><g id="kvg:StrokePaths_08477" style="fill:none;stroke:#000000;stroke-width:3;stroke-linecap:round;stroke-linejoin:round;"><g id="kvg:08477" kvg:element="葷"><g id="kvg:08477-g1" kvg:element="艹" kvg:variant="true" kvg:original="艸" kvg:position="top" kvg:radical="general"><path id="kvg:08477-s1" kvg:type="㇐" d="M17.17 21c1.29.53 4.58.5 7.83.33 11.92-.61 48.5-2.83 60.22-3.57 3.78-.24 7.04.81 8.12 1.07"/><path id="kvg:08477-s2" kvg:type="㇑a" d="M36.67 10.83c1.58 1.17 2.41 2.51 2.5 3.17.83 6.17 1.28 10.65 1.67 12.83"/><path id="kvg:08477-s3" kvg:type="㇑a" d="M66.5 8.67c1.25.58 2.4 2.6 2.17 3.67-.71 3.26-1.81 8.17-2.83 12.33"/></g><g id="kvg:08477-g2" kvg:element="軍" kvg:position="bottom"><g id="kvg:08477-g3" kvg:element="冖" kvg:position="top"><path id="kvg:08477-s4" kvg:type="㇔" d="M22.95 30.97c-.17 3.69-4.19 13.34-5.62 15.55"/><path id="kvg:08477-s5" kvg:type="㇖b" d="M22.83 33.17c2.81-.24 39.92-3.92 61.6-4.25 12.81-.2 1.64 7.73 1.4 7.92"/></g><g id="kvg:08477-g4" kvg:element="車" kvg:position="bottom"><path id="kvg:08477-s6" kvg:type="㇐" d="M28.67 43.33c1.83.67 3.68 1 6.7.72 10.97-1.02 26.27-3.2 37.47-3.72 1.76-.08 5.45.12 6.33.33"/><path id="kvg:08477-s7" kvg:type="㇑" d="M28.5 51.5c.69.44 1.7 1.59 1.83 2.17.94 4.15 2.02 13.3 3.33 21.17"/><path id="kvg:08477-s8" kvg:type="㇕a" d="M30.83 53.33c11.9-.7 38.38-3.5 46.5-3.5 2.42.0 3.93 2.52 3.78 3.61-.49 3.75-1.95 11.89-3.78 18.39"/><path id="kvg:08477-s9" kvg:type="㇐a" d="M32.96 62.31c9.87-.64 28.71-2.31 45.54-3.14"/><path id="kvg:08477-s10" kvg:type="㇐a" d="M34.96 72.36c10.21-1.03 28.71-2.53 42.25-3.02"/><path id="kvg:08477-s11" kvg:type="㇐" d="M20.17 82.33c2.58.67 5.08.92 9 .67 22.43-1.43 35.13-3.11 57.33-3.83 2.21-.07 5.73.52 6.83.83"/><path id="kvg:08477-s12" kvg:type="㇑" d="M52.5 34.83c.89.48 2.17 1.92 2.17 3.83.0.97.18 56.69.0 62.67"/></g></g></g></g><g id="kvg:StrokeNumbers_08477" style="font-size:8;fill:#808080"><text transform="matrix(1 0 0 1 10.50 21.50)">1</text><text transform="matrix(1 0 0 1 28.66 11.85)">2</text><text transform="matrix(1 0 0 1 58.50 9.50)">3</text><text transform="matrix(1 0 0 1 16.50 33.50)">4</text><text transform="matrix(1 0 0 1 26.50 29.50)">5</text><text transform="matrix(1 0 0 1 27.50 41.50)">6</text><text transform="matrix(1 0 0 1 22.25 59.50)">7</text><text transform="matrix(1 0 0 1 33.50 51.00)">8</text><text transform="matrix(1 0 0 1 36.50 60.03)">9</text><text transform="matrix(1 0 0 1 36.50 69.50)">10</text><text transform="matrix(1 0 0 1 10.50 83.50)">11</text><text transform="matrix(1 0 0 1 42.50 38.50)">12</text></g></svg>