<svg xmlns="http://www.w3.org/2000/svg" width="109" height="109" viewBox="0 0 109 109"><g id="kvg:StrokePaths_08484" style="fill:none;stroke:#000000;stroke-width:3;stroke-linecap:round;stroke-linejoin:round;"><g id="kvg:08484" kvg:element="蒄"><g id="kvg:08484-g1" kvg:element="艹" kvg:variant="true" kvg:original="艸" kvg:position="top" kvg:radical="general"><path id="kvg:08484-s1" kvg:type="㇐" d="M17.83 20.5c1.29.53 6.7.94 8 .83 11.9-.96 46.67-3.5 60.39-3.57 2.16-.01 5.54.81 6.62 1.07"/><path id="kvg:08484-s2" kvg:type="㇑a" d="M38.5 10.5c1 .5 2.1 1.85 2.17 2.67.67 7.83 1 13.67 1 16.33"/><path id="kvg:08484-s3" kvg:type="㇑a" d="M67 9.17c1.25 1.58 1.4 2.12 1 3.5-1.17 4-2.17 9-3.92 15.83"/></g><g id="kvg:08484-g2" kvg:element="冠" kvg:position="bottom"><g id="kvg:08484-g3" kvg:element="冖" kvg:position="top"><path id="kvg:08484-s4" kvg:type="㇔" d="M21 32.66c0 3.44-3.44 12.9-5 15.19"/><path id="kvg:08484-s5" kvg:type="㇖b" d="M21.41 35.96c9.93-.86 55.46-3.51 62.59-3.8 14.75.0 5.11 7.7 2.33 9.33"/></g><g id="kvg:08484-g4" kvg:position="bottom"><g id="kvg:08484-g5" kvg:position="nyo"><g id="kvg:08484-g6" kvg:element="元"><g id="kvg:08484-g7" kvg:element="二" kvg:position="top"><path id="kvg:08484-s6" kvg:type="㇐" d="M24.5 46.67c1.5.83 3.8 1.15 4.17 1.17C33 48 41.14 46.56 46.17 46.17c.6-.05 3.2.56 3.5.67"/><path id="kvg:08484-s7" kvg:type="㇐" d="M15.83 60.17c.67.32 4.5 1.22 5.17 1.17 6.97-.54 14.83-1.83 27.17-2.33 1.12-.04 4.94.17 5.5.33"/></g><g id="kvg:08484-g8" kvg:element="儿" kvg:original="八" kvg:position="bottom"><g id="kvg:08484-g9" kvg:element="丿"><path id="kvg:08484-s8" kvg:type="㇒" d="M29.58 63.28c.55.82.75 2.07.67 3.25-.75 11.97-5.52 24.23-16.08 31.14"/></g><path id="kvg:08484-s9" kvg:type="㇟" d="M42.28 61.73c.71 1.51 1.28 3.3 1.32 5.63.11 6.22-.26 11.38-.26 18.94.0 10.45 1.54 11.35 24.35 11.35 23.81.0 25.98-1.4 25.98-12.65"/></g></g></g><g id="kvg:08484-g10" kvg:element="寸" kvg:position="nyoc"><path id="kvg:08484-s10" kvg:type="㇐" d="M56.17 54.17c.63.31 3.69.7 4.33.67 7-.33 19.33-1.53 27-2 1.05-.06 5.14.18 5.67.33"/><path id="kvg:08484-s11" kvg:type="㇚" d="M76.83 39.5c.05.27 1.8 2.22 1.8 3.93.0 11.47-.17 37.99-.17 40.78.0 6.77-5.89.82-7.3-.04"/><path id="kvg:08484-s12" kvg:type="㇔" d="M60.2 64.13c2.47 1.89 6.37 7.79 6.99 10.74"/></g></g></g></g></g></svg>