<svg xmlns="http://www.w3.org/2000/svg" width="109" height="109" viewBox="0 0 109 109"><g id="kvg:StrokePaths_0848b" style="fill:none;stroke:#000000;stroke-width:3;stroke-linecap:round;stroke-linejoin:round;"><g id="kvg:0848b" kvg:element="蒋"><g id="kvg:0848b-g1" kvg:element="艹" kvg:variant="true" kvg:original="艸" kvg:position="top" kvg:radical="general"><path id="kvg:0848b-s1" kvg:type="㇐" d="M20.75 21.27c3.51.68 7.03.62 10.61.29C44 20.38 62.12 19.25 75.25 18.9c3.88-.1 7.69-.25 11.5.38"/><path id="kvg:0848b-s2" kvg:type="㇑a" d="M39 11.75c1.06 1.06 1.68 2.35 1.75 3.25.62 8.12.75 12.12 1 16"/><path id="kvg:0848b-s3" kvg:type="㇑a" d="M66.25 9.75c.62 1.25.37 2.52.0 4-1.12 4.5-2.38 9.5-4 15.25"/></g><g id="kvg:0848b-g2" kvg:element="将" kvg:position="bottom"><g id="kvg:0848b-g3" kvg:element="⺦" kvg:variant="true" kvg:original="爿" kvg:position="left"><path id="kvg:0848b-s4" kvg:type="㇑" d="M34.41 33.68c1.2 1.2 1.66 2.82 1.66 4.24.0.67.02 32.44.03 50.46.0 5.49.01 9.71.01 11.37"/><path id="kvg:0848b-s5" kvg:type="㇔" d="M17.7 44.07c3.02 1.98 7.79 8.14 8.54 11.22"/><path id="kvg:0848b-s6" kvg:type="㇀" d="M15.5 82.51c1.75.86 2.54.51 3.69-.59 3.34-3.23 7.66-7.18 10.7-11.31"/></g><g id="kvg:0848b-g4" kvg:position="right"><g id="kvg:0848b-g5" kvg:element="⺤" kvg:variant="true" kvg:original="爪" kvg:position="top"><path id="kvg:0848b-s7" kvg:type="㇒" d="M80.68 27.89c-.34 1.12-1 1.93-1.97 2.42-4.31 2.61-14.51 6.59-28.12 9.3"/><path id="kvg:0848b-s8" kvg:type="㇔" d="M45.93 46.6c2.47 1.96 6.62 8.08 7.24 11.14"/><path id="kvg:0848b-s9" kvg:type="㇔" d="M60.34 43.95c2.04 1.74 5.27 6.9 5.78 9.6"/><path id="kvg:0848b-s10" kvg:type="㇒" d="M85.45 37.93c.1.96-.29 1.89-.75 2.74-2.07 3.84-5.12 7.81-10.75 12.83"/></g><g id="kvg:0848b-g6" kvg:element="寸" kvg:position="bottom"><path id="kvg:0848b-s11" kvg:type="㇐" d="M42.42 69.02c3.48.67 6.89.09 10.45-.2 9.5-.77 21.38-1.73 31.25-2.33 3.33-.23 6.68-.21 10.02.07"/><path id="kvg:0848b-s12" kvg:type="㇚" d="M79.51 57.08c1.52 1.52 1.24 2.8 1.24 5.17.0 16.32-.18 28.81-.18 31.51.0 6.24-5.23.98-6.75.14"/><path id="kvg:0848b-s13" kvg:type="㇔" d="M54.22 76.86c2.79 1.57 6.96 6.43 7.65 8.87"/></g></g></g></g></g></svg>