<!DOCTYPE svg PUBLIC "-//W3C//DTD SVG 1.0//EN" "http://www.w3.org/TR/2001/REC-SVG-20010904/DTD/svg10.dtd" [
<!ATTLIST g
xmlns:kvg CDATA #FIXED "http://kanjivg.tagaini.net"
kvg:element CDATA #IMPLIED
kvg:variant CDATA #IMPLIED
kvg:partial CDATA #IMPLIED
kvg:original CDATA #IMPLIED
kvg:part CDATA #IMPLIED
kvg:number CDATA #IMPLIED
kvg:tradForm CDATA #IMPLIED
kvg:radicalForm CDATA #IMPLIED
kvg:position CDATA #IMPLIED
kvg:radical CDATA #IMPLIED
kvg:phon CDATA #IMPLIED >
<!ATTLIST path
xmlns:kvg CDATA #FIXED "http://kanjivg.tagaini.net"
kvg:type CDATA #IMPLIED >
]><svg xmlns="http://www.w3.org/2000/svg" width="109" height="109" viewBox="0 0 109 109"><g id="kvg:StrokePaths_084bb" style="fill:none;stroke:#000000;stroke-width:3;stroke-linecap:round;stroke-linejoin:round;"><g id="kvg:084bb" kvg:element="蒻"><g id="kvg:084bb-g1" kvg:element="艹" kvg:variant="true" kvg:original="艸" kvg:position="top" kvg:radical="general"><path id="kvg:084bb-s1" kvg:type="㇐" d="M18.5 22.2c1.62.66 3.5.79 5.12.66 14.86-1.2 46.59-5.07 63.72-5.16 2.7-.01 4.31.31 5.66.64"/><path id="kvg:084bb-s2" kvg:type="㇑a" d="M36.25 11c1.75 1.43 2.31 1.87 2.5 2.75C40.5 22 41 26.5 41.5 29.5"/><path id="kvg:084bb-s3" kvg:type="㇑a" d="M68.75 8.75c1.12 1 1.37 2.52 1 4-1.12 4.5-2.38 10-4 15.75"/></g><g id="kvg:084bb-g2" kvg:element="弱" kvg:variant="true" kvg:position="bottom"><g id="kvg:084bb-g3" kvg:element="弓" kvg:position="left"><path id="kvg:084bb-s4" kvg:type="㇕c" d="M21.98 36.89c1.11.49 3.55 1.06 4.62.88 7.4-1.26 13.65-2.45 17.64-3.08 2.21-.35 2.87.78 2.23 2.39-.46 1.15-.97 4.11-1.79 6.98-.33 1.14-.7 2.27-1.15 3.26"/><path id="kvg:084bb-s5" kvg:type="㇐" d="M28.75 50.75c4-1 10-2.25 12.64-3 1.17-.33 2.86-.75 3.86-.5"/><path id="kvg:084bb-s6" kvg:type="㇉" d="M27.49 48.66c.58.8.61 2.24.24 3.51-.43 1.45-1.88 7.04-2.91 10.2-.7 2.15.41 2.41 2.12 1.99 4.11-1.01 13.56-4.11 17.07-4.96 2.5-.61 4.36 1.06 4.11 3.81-.79 8.7-3.2 20.26-8.05 31.87-2.57 6.17-6.19 3.01-7.87-.27"/></g><g id="kvg:084bb-g4" kvg:position="right"><g id="kvg:084bb-g5" kvg:element="冫" kvg:variant="true"><g id="kvg:084bb-g6" kvg:position="top"><path id="kvg:084bb-s7" kvg:type="㇒" d="M36.86 64.42c.05.34-.26 1.47-.62 1.91C32.75 70.5 27 74.27 17.81 78.77"/></g><g id="kvg:084bb-g7" kvg:position="bottom"><path id="kvg:084bb-s8" kvg:type="㇒" d="M42.88 71.11c.07.48-.19 1.93-.69 2.54-4.4 5.29-14.44 12.1-23.84 17.34"/></g></g><g id="kvg:084bb-g8" kvg:element="弓"><path id="kvg:084bb-s9" kvg:type="㇕c" d="M58.76 33.31c2.12.7 4.12.59 5.36.38 5.39-.94 13.96-2.65 16.44-3.25 2.48-.6 3.56 1.16 3.17 2.89-.58 2.57-1.35 4.54-2.31 7.96-.22.81-.46 1.69-.71 2.69"/><path id="kvg:084bb-s10" kvg:type="㇐" d="M65.25 46.75c2.18.0 11.59-2 13.14-2s3.11-.5 4.36-.5"/><path id="kvg:084bb-s11" kvg:type="㇉" d="M63.63 44.83c.58.8 1.11 2.74.74 4.01-.43 1.45-2.12 6.17-3.86 10.79-.36.97-.12 2.34 1.63 1.99 7.08-1.42 19.79-3.91 22.95-4.05 2.57-.11 4.06 1.07 3.61 3.81-1.44 8.62-4.44 22.87-9.04 34.03-1.58 3.83-5.25.56-6.82-1.68"/></g><g id="kvg:084bb-g9" kvg:element="冫" kvg:variant="true"><g id="kvg:084bb-g10" kvg:position="top"><path id="kvg:084bb-s12" kvg:type="㇒" d="M74.42 61.26c.04.36.19.97-.09 1.44-2.09 3.55-8.11 9.21-16.39 13.29"/></g><g id="kvg:084bb-g11" kvg:position="bottom"><path id="kvg:084bb-s13" kvg:type="㇒" d="M82.24 69.79c.08.54-.15 1.94-.67 2.66C77.01 78.65 67.75 87 52.7 92.57"/></g></g></g></g></g></g><g id="kvg:StrokeNumbers_084bb" style="font-size:8;fill:#808080"><text transform="matrix(1 0 0 1 11.50 21.50)">1</text><text transform="matrix(1 0 0 1 27.50 11.85)">2</text><text transform="matrix(1 0 0 1 59.71 8.50)">3</text><text transform="matrix(1 0 0 1 21.50 34.50)">4</text><text transform="matrix(1 0 0 1 22.50 47.50)">5</text><text transform="matrix(1 0 0 1 19.50 59.50)">6</text><text transform="matrix(1 0 0 1 23.50 73.50)">7</text><text transform="matrix(1 0 0 1 32.50 77.50)">8</text><text transform="matrix(1 0 0 1 54.75 30.03)">9</text><text transform="matrix(1 0 0 1 58.50 43.50)">10</text><text transform="matrix(1 0 0 1 53.75 54.50)">11</text><text transform="matrix(1 0 0 1 57.50 69.50)">12</text><text transform="matrix(1 0 0 1 71.50 73.50)">13</text></g></svg>