<!DOCTYPE svg PUBLIC "-//W3C//DTD SVG 1.0//EN" "http://www.w3.org/TR/2001/REC-SVG-20010904/DTD/svg10.dtd" [
<!ATTLIST g
xmlns:kvg CDATA #FIXED "http://kanjivg.tagaini.net"
kvg:element CDATA #IMPLIED
kvg:variant CDATA #IMPLIED
kvg:partial CDATA #IMPLIED
kvg:original CDATA #IMPLIED
kvg:part CDATA #IMPLIED
kvg:number CDATA #IMPLIED
kvg:tradForm CDATA #IMPLIED
kvg:radicalForm CDATA #IMPLIED
kvg:position CDATA #IMPLIED
kvg:radical CDATA #IMPLIED
kvg:phon CDATA #IMPLIED >
<!ATTLIST path
xmlns:kvg CDATA #FIXED "http://kanjivg.tagaini.net"
kvg:type CDATA #IMPLIED >
]><svg xmlns="http://www.w3.org/2000/svg" width="109" height="109" viewBox="0 0 109 109"><g id="kvg:StrokePaths_084bc" style="fill:none;stroke:#000000;stroke-width:3;stroke-linecap:round;stroke-linejoin:round;"><g id="kvg:084bc" kvg:element="蒼"><g id="kvg:084bc-g1" kvg:element="艹" kvg:variant="true" kvg:original="艸" kvg:position="top" kvg:radical="general"><path id="kvg:084bc-s1" kvg:type="㇐" d="M18.25 22.94c2.19.77 5.11.63 7.39.45 12.18-1.01 37.17-3.31 51.74-4 3.33-.16 7.01-.17 10.29.52"/><path id="kvg:084bc-s2" kvg:type="㇑a" d="M34.94 12.95c.99.99 1.37 2.09 1.49 2.86 1.2 8.06 1.99 11.94 2.23 14.94"/><path id="kvg:084bc-s3" kvg:type="㇑a" d="M67.75 9.92c.42 1.01.78 1.71.5 3-1 4.58-2.62 10.71-3.97 16.05"/></g><g id="kvg:084bc-g2" kvg:element="倉" kvg:position="bottom"><g id="kvg:084bc-g3" kvg:element="人" kvg:position="top"><path id="kvg:084bc-s4" kvg:type="㇒" d="M51.25 26.5c.2 1.63-.41 3.11-1.31 4.42C44.5 38.88 34.5 51.5 13.5 62.41"/><path id="kvg:084bc-s5" kvg:type="㇏" d="M52 30.21c5.31 3.84 20.83 14.93 29.91 20.82 2.24 1.45 7.09 4.09 10.59 5.49"/></g><g id="kvg:084bc-g4" kvg:position="bottom"><path id="kvg:084bc-s6" kvg:type="㇐" d="M41.83 45.79c1.67.33 2.96.12 4.43-.04 3.41-.36 8.36-.88 12.34-1.57 1.49-.26 2.78-.31 4.46-.01"/><path id="kvg:084bc-s7" kvg:type="㇕" d="M38.03 54.92c2.35-.14 27.61-3.01 29.76-3.16 3.07-.22 3.54 1.42 3.12 4.03-.66 4.09-1.2 6.75-2.1 11.48-.14.74-.78 3.27-.87 3.74"/><path id="kvg:084bc-s8" kvg:type="㇐" d="M36.75 63.16c4.75-.28 24.37-2.53 32.3-2.87"/><path id="kvg:084bc-s9" kvg:type="㇐" d="M34.73 71.92c6.51-.51 24.57-2.22 32.66-2.72"/><path id="kvg:084bc-s10" kvg:type="㇒" d="M36.3 52.6c.8.8 1 2.15.89 3.83-.57 8.7-6.94 30.66-19.94 38.03"/><g id="kvg:084bc-g5" kvg:element="口"><path id="kvg:084bc-s11" kvg:type="㇑" d="M37.5 81.01c.99.99 1.53 1.95 1.7 3.09.98 4.24 1.84 8.14 2.59 11.91.25 1.25.49 2.5.71 3.73"/><path id="kvg:084bc-s12" kvg:type="㇕b" d="M39.25 82c8.6-1.01 24.88-2.21 31.87-2.8 3.3-.28 5.18-.13 4.13 3.62-.99 3.54-2.13 7.05-3.52 11.36"/><path id="kvg:084bc-s13" kvg:type="㇐b" d="M43.2 97.38c5.2-.41 15.89-1.29 25.92-1.92 1.68-.11 3.36-.21 4.99-.32"/></g></g></g></g></g><g id="kvg:StrokeNumbers_084bc" style="font-size:8;fill:#808080"><text transform="matrix(1 0 0 1 11.25 24.38)">1</text><text transform="matrix(1 0 0 1 25.50 13.25)">2</text><text transform="matrix(1 0 0 1 59.25 10.25)">3</text><text transform="matrix(1 0 0 1 43.25 31.25)">4</text><text transform="matrix(1 0 0 1 68.25 38.25)">5</text><text transform="matrix(1 0 0 1 48.25 43.25)">6</text><text transform="matrix(1 0 0 1 43.50 52.25)">7</text><text transform="matrix(1 0 0 1 42.50 61.25)">8</text><text transform="matrix(1 0 0 1 42.25 69.25)">9</text><text transform="matrix(1 0 0 1 26.25 62.25)">10</text><text transform="matrix(1 0 0 1 30.50 90.25)">11</text><text transform="matrix(1 0 0 1 40.25 79.25)">12</text><text transform="matrix(1 0 0 1 45.25 94.25)">13</text></g></svg>