<svg xmlns="http://www.w3.org/2000/svg" width="109" height="109" viewBox="0 0 109 109"><g id="kvg:StrokePaths_084c6" style="fill:none;stroke:#000000;stroke-width:3;stroke-linecap:round;stroke-linejoin:round;"><g id="kvg:084c6" kvg:element="蓆"><g id="kvg:084c6-g1" kvg:element="艹" kvg:variant="true" kvg:original="艸" kvg:position="top" kvg:radical="general"><path id="kvg:084c6-s1" kvg:type="㇐" d="M21 19.27c1.72.53 3.73.63 5.45.53 15.83-.96 36.28-3.46 54.52-3.53 2.87-.01 4.59.25 6.03.51"/><path id="kvg:084c6-s2" kvg:type="㇑a" d="M34.25 9.5c1.75 1.43 2.31 1.87 2.5 2.75C38.5 20.5 39 24 39.5 27"/><path id="kvg:084c6-s3" kvg:type="㇑a" d="M68.18 8c.95.85 1.58 2.14 1.27 3.39C68.5 15.2 66.94 21.13 65.56 26"/></g><g id="kvg:084c6-g2" kvg:position="bottom"><g id="kvg:084c6-g3" kvg:element="席" kvg:position="tare"><g id="kvg:084c6-g4" kvg:element="广"><path id="kvg:084c6-s4" kvg:type="㇑a" d="M52.18 22.88c.64.35 2 2.62 2.13 3.32s.07 3.32-.06 7.69"/><g id="kvg:084c6-g5" kvg:element="厂"><path id="kvg:084c6-s5" kvg:type="㇐" d="M22.7 35.95c1.61.44 4.57.51 6.18.44 16.78-.74 33.36-2.89 52.27-3.31 2.69-.06 4.3.21 5.64.43"/><path id="kvg:084c6-s6" kvg:type="㇒" d="M26.54 37.07c.05 1.38.04 3.56-.1 5.55-1.2 17.26-2.69 40.88-17.06 52.73"/></g></g><g id="kvg:084c6-g6" kvg:position="tarec"><g id="kvg:084c6-g7" kvg:element="廿"><g id="kvg:084c6-g8" kvg:element="十"><path id="kvg:084c6-s7" kvg:type="㇐" d="M30.97 47.77c1.31.23 3.71.27 5.01.23 6.83-.21 27.81-2.62 42.84-3.16 2.18-.08 3.49.11 4.58.23"/><path id="kvg:084c6-s8" kvg:type="㇑" d="M42.96 41.12c.79.34 1.35 1.5 1.42 2.22.56 5.45 1.12 11.44 1.54 16.48"/></g><path id="kvg:084c6-s9" kvg:type="㇑a" d="M66.06 38.92c.55.24 1.04 2.03.99 2.54-.64 6.32-1.3 9.54-2.26 13.82"/><path id="kvg:084c6-s10" kvg:type="㇐b" d="M46.13 57.68c3 0 17.66-1.81 20.36-1.91"/></g><g id="kvg:084c6-g9" kvg:element="巾"><path id="kvg:084c6-s11" kvg:type="㇑" d="M32.02 67.31c.47.28 1.47 2.09 1.57 2.65.66 3.87.67 12.04 1.38 22.12"/><path id="kvg:084c6-s12" kvg:type="㇆a" d="M34 70.09c2.96-.2 43.35-4.53 45.55-4.65 2.59-.14 3.16 2.46 3.06 3.73-.47 6.41-2.29 13.67-4.58 19.71-2.04 5.38-3.79 1.38-5.14-.93"/><path id="kvg:084c6-s13" kvg:type="㇑" d="M54.16 59.95c.47.28 1.47 2.09 1.57 2.65.09.56-.06 34.91-.16 38.4"/></g></g></g></g></g></g></svg>