<svg xmlns="http://www.w3.org/2000/svg" width="109" height="109" viewBox="0 0 109 109"><g id="kvg:StrokePaths_084ca"><g id="kvg:084ca" kvg:element="蓊"><g id="kvg:084ca-g1" kvg:element="艹" kvg:variant="true" kvg:original="艸" kvg:position="top" kvg:radical="general"><path id="kvg:084ca-s1" kvg:type="㇐" d="M19 19.96c1.55.63 3.34.75 4.89.63 14.21-1.15 44.06-3.54 60.44-3.62 2.58-.01 4.12.3 5.41.61"/><path id="kvg:084ca-s2" kvg:type="㇑a" d="M37.25 11c1.75 1.43 2.37 1.86 2.5 2.75.75 5 .25 7.5.75 11.75"/><path id="kvg:084ca-s3" kvg:type="㇑a" d="M67.67 9.5c.93.87 1.55 2.2 1.25 3.49-.93 3.93-1.97 6.99-3.32 12.01"/></g><g id="kvg:084ca-g2" kvg:element="翁" kvg:position="bottom"><g id="kvg:084ca-g3" kvg:element="公" kvg:position="top"><g id="kvg:084ca-g4" kvg:element="八" kvg:position="top"><path id="kvg:084ca-s4" kvg:type="㇒" d="M45.67 27.35c.39.51-.02 1.1-.54 1.71-3.74 4.43-10.79 10.99-22.11 15.28"/><path id="kvg:084ca-s5" kvg:type="㇏" d="M57.87 27.75c3.98 1.08 17.24 12.33 24.42 15.02 2.78 1.04 3.77 1.59 6.46 1.93"/></g><g id="kvg:084ca-g5" kvg:element="厶" kvg:position="bottom"><path id="kvg:084ca-s6" kvg:type="㇜" d="M52.27 37.12c.53.35.42 1.19-.01 1.61-5.86 5.71-9.45 8.89-17.8 14.58-2.03 1.39-1.3 2.76 1.96 2.24 9.08-1.46 23.39-5.16 33.22-6.01"/><path id="kvg:084ca-s7" kvg:type="㇔" d="M62.52 43.22c4.78 2.28 12.36 9.39 13.55 12.94"/></g></g><g id="kvg:084ca-g6" kvg:element="羽" kvg:variant="true" kvg:position="bottom"><g id="kvg:084ca-g7" kvg:position="left"><path id="kvg:084ca-s8" kvg:type="㇆" d="M18.25 64.32c1.75.68 3.5.93 6.33.43 7.1-1.25 18.89-2.97 21.42-3.07 2.86-.11 4.52 1.86 4.61 3.61.1 1.94-1.06 21.87-1.06 28.03.0 9.18-5.75 1.16-7.17.78"/><path id="kvg:084ca-s9" kvg:type="㇒" d="M38.62 65.88c.05.36.11.93-.11 1.44-1.29 3.04-8.66 9.7-18.76 13.78"/><path id="kvg:084ca-s10" kvg:type="㇒" d="M45.97 72.38c.07.47.15 1.22-.14 1.9-1.71 4.01-11.5 12.82-24.9 18.2"/></g><g id="kvg:084ca-g8" kvg:position="right"><path id="kvg:084ca-s11" kvg:type="㇆" d="M57.09 62.36c2.76.67 2.28.67 6.33.45 8.23-.45 15.91-2.07 18.43-2.21 1.9-.1 3.91 1.79 3.91 3.65.0 2.96-.01 22.07-.01 28.41.0 9.84-6.25 2.84-8.1 1.46"/><path id="kvg:084ca-s12" kvg:type="㇒" d="M74.43 64.3c.04.34.09.88-.09 1.37-1.06 2.89-7.14 9.22-15.46 13.1"/><path id="kvg:084ca-s13" kvg:type="㇒" d="M82.82 71.32c.07.51.15 1.33-.14 2.08-1.69 4.38-11.41 13.99-24.71 19.87"/></g></g></g></g></g></svg>