<svg xmlns="http://www.w3.org/2000/svg" width="109" height="109" viewBox="0 0 109 109"><g id="kvg:StrokePaths_084ec"><g id="kvg:084ec" kvg:element="蓬"><g id="kvg:084ec-g1" kvg:element="艹" kvg:original="艸" kvg:position="top" kvg:radical="general"><path id="kvg:084ec-s1" kvg:type="㇐" d="M20.5 21.77c1.29.53 2.8.63 4.1.53 11.9-.96 47.4-3.96 61.12-4.03 2.16-.01 3.45.25 4.53.51"/><path id="kvg:084ec-s2" kvg:type="㇑a" d="M38 11.5c1.5 1.2 1.98 1.56 2.14 2.3 1.5 6.91 1.93 13.19 2.36 15.7"/><path id="kvg:084ec-s3" kvg:type="㇑a" d="M71.41 9c1.3.79 1.67 2.5 1.24 3.67-1.3 3.57-2.17 8.52-4.06 13.08"/></g><g id="kvg:084ec-g2" kvg:element="逢" kvg:position="bottom"><g id="kvg:084ec-g3" kvg:element="夆" kvg:position="nyoc"><g id="kvg:084ec-g4" kvg:element="夂"><path id="kvg:084ec-s4" kvg:type="㇒" d="M56.96 26.75c.05.48.18 1.25-.09 1.92-1.78 4.28-7.2 11.76-15.8 17.89"/><path id="kvg:084ec-s5" kvg:type="㇇" d="M55.51 32.64c.32.02 2.33.38 3.25.32 3.04-.21 10.27-2.75 14.64-3.27 1.6-.19 2.83 1.02 2.07 2.25C71.29 38.67 58.75 52 41.97 56.11"/><path id="kvg:084ec-s6" kvg:type="㇏" d="M50.88 38.2c4.18-.02 28.91 11.64 35.71 13.99 2.03.7 3.67 1.04 5.65 1.25"/></g><g id="kvg:084ec-g5" kvg:element="丰"><g id="kvg:084ec-g6" kvg:element="三"><g id="kvg:084ec-g7" kvg:element="一" kvg:position="top"><path id="kvg:084ec-s7" kvg:type="㇐" d="M50.7 59.21c.97.29 2.75.42 3.71.29 5.34-.75 14.59-2.5 20.6-3.01 1.6-.14 2.58.14 3.39.28"/></g><g id="kvg:084ec-g8" kvg:position="bottom"><g id="kvg:084ec-g9" kvg:element="一"><path id="kvg:084ec-s8" kvg:type="㇐" d="M48.81 68.15c.97.29 3.4.35 4.37.29 11.21-.79 14.26-2.33 23.61-3.09 1.6-.13 2.58.14 3.39.28"/></g><g id="kvg:084ec-g10" kvg:element="一"><path id="kvg:084ec-s9" kvg:type="㇐" d="M42.86 77.64c1.47.57 4.14.63 5.61.57 9.23-.37 22.27-2.62 34.34-3.57 2.43-.19 3.9.27 5.12.55"/></g></g></g><g id="kvg:084ec-g11" kvg:element="丨"><path id="kvg:084ec-s10" kvg:type="㇑" d="M64.25 49.5c.61.32 2.03 1.85 2.03 3.07.0 6.78-.25 29.2-.25 37.9"/></g></g></g><g id="kvg:084ec-g12" kvg:element="辶" kvg:position="nyo"><path id="kvg:084ec-s11" kvg:type="㇔" d="M20.71 28c3.63 1.61 9.38 6.61 10.29 9.11"/><path id="kvg:084ec-s12" kvg:type="㇔" d="M13.96 45.25c4.34.92 11.21 3.77 12.29 5.2"/><path id="kvg:084ec-s13" kvg:type="㇋" d="M11 63.98c2.64.79 4.4.39 5.58.2 1.17-.2 9.39-2.76 11.15-3.15 1.76-.39 4.4.98 3.23 2.17-1.17 1.18-4.7 5.71-5.58 6.69-.88.98-.59 2.76 1.17 4.13s3.23 2.95 4.11 4.13c.88 1.18.88 2.16-.88 3.15-1.76.99-10.57 6.5-12.33 6.89"/><path id="kvg:084ec-s14" kvg:type="㇏" d="M13.75 89.37c2.89-.38 8.65-1.33 12.98-.57s28.91 5.9 33.18 6.82c7.59 1.63 18.84 3.13 27.59 3.13"/></g></g></g></g></svg>