<svg xmlns="http://www.w3.org/2000/svg" width="109" height="109" viewBox="0 0 109 109"><g id="kvg:StrokePaths_0852c"><g id="kvg:0852c" kvg:element="蔬"><g id="kvg:0852c-g1" kvg:element="艹" kvg:variant="true" kvg:original="艸" kvg:position="top" kvg:radical="general"><path id="kvg:0852c-s1" kvg:type="㇐" d="M20 23.77c1.29.53 2.8.63 4.1.53C36 23.33 71 19.83 84.72 19.76c2.16-.01 3.45.25 4.53.51"/><path id="kvg:0852c-s2" kvg:type="㇑a" d="M35.25 12.5c1.75 1.43 2.3 1.87 2.5 2.75C39 20.75 41 29.5 41.5 32.5"/><path id="kvg:0852c-s3" kvg:type="㇑a" d="M64.55 9.75c1.02.91 1.2 2.79.86 4.13-1.02 4.09-1.7 10.9-3.18 16.12"/></g><g id="kvg:0852c-g2" kvg:element="疏" kvg:position="bottom"><g id="kvg:0852c-g3" kvg:element="疋" kvg:variant="true" kvg:position="left"><path id="kvg:0852c-s4" kvg:type="㇖" d="M14.08 43.43c.92.47 3.52.74 6.01.35 8.16-1.26 13.62-2.2 20.16-3.23 2.5-.4 3.42.74 2 2.17C40.5 44.5 36.5 48.65 33 52.2"/><g id="kvg:0852c-g4" kvg:element="卜" kvg:original="ト"><path id="kvg:0852c-s5" kvg:type="㇑" d="M28.5 53.17c.97.35 1.75 1.57 1.75 2.3.0 5.15.25 26.72.25 33.89"/><path id="kvg:0852c-s6" kvg:type="㇐" d="M30.76 66.5c6.37-.53 1-.27 10.61-1.33 1.54-.17 1.95-.18 2.92.0"/></g><g id="kvg:0852c-g5" kvg:element="人"><path id="kvg:0852c-s7" kvg:type="㇑" d="M16.77 65.98c.98.72 1.55 1.57 1.76 3.96C19 75.4 19 90.92 19 94.84"/><path id="kvg:0852c-s8" kvg:type="㇒" d="M12.75 95.03c.54.18 2.68 1.53 3.5 1.19 5.25-2.17 18.25-8.7 26.25-12.46"/></g></g><g id="kvg:0852c-g6" kvg:element="㐬" kvg:position="right"><g id="kvg:0852c-g7" kvg:position="top"><g id="kvg:0852c-g8" kvg:element="亠"><path id="kvg:0852c-s9" kvg:type="㇑a" d="M67.25 33.75c.77.33 2.05 1.61 2.05 2.26.0 2.42-.24 4.86-.1 6.91"/><path id="kvg:0852c-s10" kvg:type="㇐" d="M49.44 44.6c.98.06 3.22.38 4.17.3 7.7-.63 25.04-2.6 34.81-2.77 1.62-.03 2.44.03 3.64.38"/></g><g id="kvg:0852c-g9" kvg:element="厶"><path id="kvg:0852c-s11" kvg:type="㇜" d="M64.69 47.07c.57.29-.22 1.94-.55 2.31-4.18 4.67-4.46 6.81-9.88 11.38-2.75 2.31-1.76 2.58 1.75 1.98 9.56-1.63 17-3.41 28.5-5.75"/><path id="kvg:0852c-s12" kvg:type="㇔" d="M77.91 49.36c3.46 2.17 8.93 8.93 9.8 12.3"/></g></g><g id="kvg:0852c-g10" kvg:element="川" kvg:variant="true" kvg:original="巛" kvg:position="bottom"><path id="kvg:0852c-s13" kvg:type="㇒" d="M55.52 69.51c.23.47.42 1.7.41 2.66-.18 12.51-3.86 21.33-13.62 25.56"/><path id="kvg:0852c-s14" kvg:type="㇑" d="M66.86 67.11c.07.33 1.08 1.7 1.08 3.77.0 10.87-.22 21.35-.22 24.73"/><path id="kvg:0852c-s15" kvg:type="㇟" d="M79.6 63.74c.64 1.01 1.16 2.2 1.2 3.75.17 6.94-.46 13.68-.46 18.4.0 8.37.92 9.88 8.34 9.88 7.33.0 8.33-1.51 8.33-7.84"/></g></g></g></g></g></svg>