<!DOCTYPE svg PUBLIC "-//W3C//DTD SVG 1.0//EN" "http://www.w3.org/TR/2001/REC-SVG-20010904/DTD/svg10.dtd" [
<!ATTLIST g
xmlns:kvg CDATA #FIXED "http://kanjivg.tagaini.net"
kvg:element CDATA #IMPLIED
kvg:variant CDATA #IMPLIED
kvg:partial CDATA #IMPLIED
kvg:original CDATA #IMPLIED
kvg:part CDATA #IMPLIED
kvg:number CDATA #IMPLIED
kvg:tradForm CDATA #IMPLIED
kvg:radicalForm CDATA #IMPLIED
kvg:position CDATA #IMPLIED
kvg:radical CDATA #IMPLIED
kvg:phon CDATA #IMPLIED >
<!ATTLIST path
xmlns:kvg CDATA #FIXED "http://kanjivg.tagaini.net"
kvg:type CDATA #IMPLIED >
]><svg xmlns="http://www.w3.org/2000/svg" width="109" height="109" viewBox="0 0 109 109"><g id="kvg:StrokePaths_0852d" style="fill:none;stroke:#000000;stroke-width:3;stroke-linecap:round;stroke-linejoin:round;"><g id="kvg:0852d" kvg:element="蔭"><g id="kvg:0852d-g1" kvg:element="艹" kvg:variant="true" kvg:original="艸" kvg:position="top" kvg:radical="general"><path id="kvg:0852d-s1" kvg:type="㇐" d="M18.5 22.66c3.14.39 6.27.39 9.38.0 14.45-1.58 38.13-3.18 52.87-4.01 3.33-.19 6.62-.02 10 .5"/><path id="kvg:0852d-s2" kvg:type="㇑a" d="M38.25 11.5c.88.88 1.14 1.89 1.25 2.66 1.05 7.24 1.95 13.7 2.25 16.34"/><path id="kvg:0852d-s3" kvg:type="㇑a" d="M70 9c.42 1.18.35 2.27.0 3.75-1 4.25-1.62 7.12-3.25 14.75"/></g><g id="kvg:0852d-g2" kvg:element="陰" kvg:position="bottom"><g id="kvg:0852d-g3" kvg:element="⻖" kvg:variant="true" kvg:original="阜" kvg:position="left"><path id="kvg:0852d-s4" kvg:type="㇇" d="M17.87 37.29c1.41.75 2.7.83 4.25.71 4.5-.36 9.59-.95 13.14-1.78 2.96-.69 4.35 1.09 3.05 3.04-1.3 1.96-6.82 11.88-9.1 14.67"/><path id="kvg:0852d-s5" kvg:type="㇁" d="M29.22 53.93C41 63.58 38.5 87.75 28.89 80.24"/><path id="kvg:0852d-s6" kvg:type="㇑" d="M18.87 38.29c.79.79.91 1.96.91 3.22.0.72.03 35.35.04 51.61.0 3.18.0 5.61.0 6.91"/></g><g id="kvg:0852d-g4" kvg:position="right"><g id="kvg:0852d-g5" kvg:element="今" kvg:position="top"><g id="kvg:0852d-g6" kvg:element="人" kvg:position="top"><path id="kvg:0852d-s7" kvg:type="㇒" d="M62.47 29.79c.14 1.35.06 2.33-.63 3.5C58.12 39.5 52 47 40.34 55.22"/><path id="kvg:0852d-s8" kvg:type="㇏" d="M65.62 33.88c4.79 3.55 16.43 11.19 23.43 15.86 2.45 1.64 4.45 2.51 7.8 3.89"/></g><g id="kvg:0852d-g7" kvg:position="bottom"><g id="kvg:0852d-g8" kvg:element="一"><path id="kvg:0852d-s9" kvg:type="㇐" d="M55.3 49.3c1.62.14 3.23.08 4.82-.19 3.62-.55 9.37-1.69 12.51-2.04 1.24-.14 2.93-.29 4.18.0"/></g><path id="kvg:0852d-s10" kvg:type="㇇" d="M48.36 58.24c2.01.51 3.91.44 6.03.15 5.26-.7 16.04-2.36 20.85-3.13 3.12-.51 4.01 1.62 2.78 3.47-2.13 3.21-3.86 5.57-5.17 8.14"/></g></g><g id="kvg:0852d-g9" kvg:element="云" kvg:position="bottom"><g id="kvg:0852d-g10" kvg:element="二" kvg:position="top"><path id="kvg:0852d-s11" kvg:type="㇐" d="M49.67 69.77c2.03.62 4.06.78 6.1.47 7.12-.73 13.16-1.66 19.87-2.42 1.69-.19 3.16-.55 4.87-.2"/><path id="kvg:0852d-s12" kvg:type="㇐" d="M44.22 80.4c2.44.56 5.45.42 7.9.13 10.5-1.28 24.9-3 34.5-3.37 2.3-.09 4.62-.15 6.91.17"/></g><g id="kvg:0852d-g11" kvg:element="厶" kvg:position="bottom"><path id="kvg:0852d-s13" kvg:type="㇜" d="M59.46 82.88c.04 1.3-.34 2.4-1.14 3.29-2.53 3.33-4.84 5.84-8.03 9.46-2.41 2.74-2.41 4.24 1.72 3.27 8.88-2.09 17.22-4.24 25.99-6.4"/><path id="kvg:0852d-s14" kvg:type="㇔" d="M73.9 85.37c4.44 2.62 10.87 10.72 11.97 14.81"/></g></g></g></g></g></g><g id="kvg:StrokeNumbers_0852d" style="font-size:8;fill:#808080"><text transform="matrix(1 0 0 1 11.50 22.50)">1</text><text transform="matrix(1 0 0 1 27.50 11.85)">2</text><text transform="matrix(1 0 0 1 60.50 9.50)">3</text><text transform="matrix(1 0 0 1 22.50 35.50)">4</text><text transform="matrix(1 0 0 1 25.75 62.50)">5</text><text transform="matrix(1 0 0 1 12.50 44.50)">6</text><text transform="matrix(1 0 0 1 54.50 31.50)">7</text><text transform="matrix(1 0 0 1 71.50 35.50)">8</text><text transform="matrix(1 0 0 1 60.50 46.50)">9</text><text transform="matrix(1 0 0 1 47.75 56.50)">10</text><text transform="matrix(1 0 0 1 44.50 67.50)">11</text><text transform="matrix(1 0 0 1 40.50 77.30)">12</text><text transform="matrix(1 0 0 1 45.50 90.50)">13</text><text transform="matrix(1 0 0 1 76.50 86.15)">14</text></g></svg>