<!DOCTYPE svg PUBLIC "-//W3C//DTD SVG 1.0//EN" "http://www.w3.org/TR/2001/REC-SVG-20010904/DTD/svg10.dtd" [
<!ATTLIST g
xmlns:kvg CDATA #FIXED "http://kanjivg.tagaini.net"
kvg:element CDATA #IMPLIED
kvg:variant CDATA #IMPLIED
kvg:partial CDATA #IMPLIED
kvg:original CDATA #IMPLIED
kvg:part CDATA #IMPLIED
kvg:number CDATA #IMPLIED
kvg:tradForm CDATA #IMPLIED
kvg:radicalForm CDATA #IMPLIED
kvg:position CDATA #IMPLIED
kvg:radical CDATA #IMPLIED
kvg:phon CDATA #IMPLIED >
<!ATTLIST path
xmlns:kvg CDATA #FIXED "http://kanjivg.tagaini.net"
kvg:type CDATA #IMPLIED >
]><svg xmlns="http://www.w3.org/2000/svg" width="109" height="109" viewBox="0 0 109 109"><g id="kvg:StrokePaths_0854b" style="fill:none;stroke:#000000;stroke-width:3;stroke-linecap:round;stroke-linejoin:round;"><g id="kvg:0854b" kvg:element="蕋"><g id="kvg:0854b-g1" kvg:element="艹" kvg:variant="true" kvg:original="艸" kvg:position="top" kvg:radical="general"><path id="kvg:0854b-s1" kvg:type="㇐" d="M19 22.27c1.87.53 4.05.63 5.93.53 17.22-.96 38.92-3.46 58.77-3.53 3.12-.01 5 .25 6.56.51"/><path id="kvg:0854b-s2" kvg:type="㇑a" d="M37.5 11.57c1.5 1.23 1.98 1.6 2.14 2.36C41.14 21 40.57 26.43 41 29"/><path id="kvg:0854b-s3" kvg:type="㇑a" d="M68.21 11.75c.92.82.92 2.04.72 3.26-.69 4.24-1.53 8.79-2.86 13.49"/></g><g id="kvg:0854b-g2" kvg:position="bottom"><g id="kvg:0854b-g3" kvg:element="止" kvg:position="top"><g id="kvg:0854b-g4" kvg:element="卜" kvg:original="ト"><path id="kvg:0854b-s4" kvg:type="㇑a" d="M52.37 26c.88.41 1.42 1.83 1.59 2.64.18.81.5 14.19.32 19.27"/><path id="kvg:0854b-s5" kvg:type="㇐b" d="M54.42 35.91c6.35-.46 15.95-1.37 22.19-1.83 1.55-.11 1.94-.15 2.91.0"/></g><path id="kvg:0854b-s6" kvg:type="㇑a" d="M34.49 32.4c.89.41 1.42 1.83 1.59 2.64.18.81.0 8.8-.18 13.88"/><path id="kvg:0854b-s7" kvg:type="㇐" d="M21.37 49.76c.69.17 2.55.56 4.39.5 9.96-.33 43.32-3.32 55.99-3.32 1.85.0 5.07.33 6.12.5"/></g><g id="kvg:0854b-g5" kvg:position="bottom"><g id="kvg:0854b-g6" kvg:element="止" kvg:variant="true" kvg:position="right"><g id="kvg:0854b-g7" kvg:element="卜" kvg:original="ト"><path id="kvg:0854b-s8" kvg:type="㇑" d="M31.83 57.25c.95.44 1.52 1.97 1.71 2.84.19.87.5 23.99.31 29.46"/><path id="kvg:0854b-s9" kvg:type="㇐" d="M34.46 71.07c4.04-.53 10.15-1.58 14.12-2.11.99-.13 1.24-.18 1.85.0"/></g><path id="kvg:0854b-s10" kvg:type="㇑" d="m18.589737 67.546387c.95.434005 1.51 1.96246 1.7 2.839905.19.877446.0 18.303709-.19 23.766517"/><path id="kvg:0854b-s11" kvg:type="㇐" d="m11.223238 97.716308c.559878.05183 2.057357.13064 3.502528-.213818 7.765102-1.838527 22.267146-6.978851 32.189526-8.928364 1.452469-.285376 4.00664-.474341 4.853659-.479279"/></g><g id="kvg:0854b-g8" kvg:element="止" kvg:position="left"><g id="kvg:0854b-g9" kvg:element="卜" kvg:original="ト"><path id="kvg:0854b-s12" kvg:type="㇑a" d="M70.28 53.25c.97.48 1.56 2.14 1.75 3.1.19.95.0 32.35-.19 38.31"/><path id="kvg:0854b-s13" kvg:type="㇐b" d="M72.54 72.21c4.63-.52 11.63-1.56 16.17-2.08 1.13-.13 1.42-.17 2.12.0"/></g><path id="kvg:0854b-s14" kvg:type="㇑a" d="M57.45 67.21c.95.46 1.51 2.08 1.7 3.01.19.93.0 19.4-.19 25.19"/><path id="kvg:0854b-s15" kvg:type="㇐" d="M46 96.33c.64.16 2.36.53 4.08.47 9.24-.31 26.74-2.58 38.49-2.58 1.72.0 4.7.31 5.68.47"/></g></g></g></g></g><g id="kvg:StrokeNumbers_0854b" style="font-size:8;fill:#808080"><text transform="matrix(1 0 0 1 12.25 21.5)">1</text><text transform="matrix(1 0 0 1 29.5 11.5)">2</text><text transform="matrix(1 0 0 1 59.5 11.5)">3</text><text transform="matrix(1 0 0 1 44.25 30.5)">4</text><text transform="matrix(1 0 0 1 58.5 32.33)">5</text><text transform="matrix(1 0 0 1 25.5 33.5)">6</text><text transform="matrix(1 0 0 1 14.5 49.5)">7</text><text transform="matrix(1 0 0 1 23.5 59.5)">8</text><text transform="matrix(1 0 0 1 41.25 65.1)">9</text><text transform="matrix(1 0 0 1 6.5 69.95)">10</text><text transform="matrix(1 0 0 1 7.58 106.11)">11</text><text transform="matrix(1 0 0 1 59.25 54.8)">12</text><text transform="matrix(1 0 0 1 76.25 65.73)">13</text><text transform="matrix(1 0 0 1 53.25 62.65)">14</text><text transform="matrix(1 0 0 1 47.25 91.58)">15</text></g></svg>