<svg xmlns="http://www.w3.org/2000/svg" width="109" height="109" viewBox="0 0 109 109"><g id="kvg:StrokePaths_08549" style="fill:none;stroke:#000000;stroke-width:3;stroke-linecap:round;stroke-linejoin:round;"><g id="kvg:08549" kvg:element="蕉"><g id="kvg:08549-g1" kvg:element="艹" kvg:variant="true" kvg:original="艸" kvg:position="top" kvg:radical="general"><path id="kvg:08549-s1" kvg:type="㇐" d="M21.5 19.77c3.17.72 6.68.16 9.88-.04 12.51-.77 33.84-2.4 46.99-2.85 3.46-.12 6.7-.06 10.12.41"/><path id="kvg:08549-s2" kvg:type="㇑a" d="M37.75 10.9c.86.86 1.26 1.67 1.4 2.34 1.33 6.27 2.47 12.23 2.85 14.51"/><path id="kvg:08549-s3" kvg:type="㇑a" d="M69.43 9c.16.89.36 1.79.19 2.88-1.03 6.4-1.74 9.1-2.86 15.12"/></g><g id="kvg:08549-g2" kvg:element="焦" kvg:position="bottom"><g id="kvg:08549-g3" kvg:element="隹" kvg:position="top"><g id="kvg:08549-g4" kvg:element="亻" kvg:variant="true" kvg:original="人"><path id="kvg:08549-s4" kvg:type="㇒" d="M36.57 30.5c.21 1.25-.31 2.63-.99 3.7-4.34 6.82-9.83 12.59-19.77 20.89"/><path id="kvg:08549-s5" kvg:type="㇑" d="M32.18 41.74c.92.92 1.25 2.01 1.25 3.88.0 5.22-.01 18.85-.02 27.88.0 2.87.0 5.28.0 6.8"/></g><path id="kvg:08549-s6" kvg:type="㇒" d="M59.98 27.47c.07.69-.02 1.59-.25 2.18-1.17 2.98-2.59 5.42-4.82 8.58"/><path id="kvg:08549-s7" kvg:type="㇐b" d="M33.93 42.36c7.22-.58 29.72-1.86 40.96-2.59 3.07-.2 5.3-.35 6.14-.44"/><path id="kvg:08549-s8" kvg:type="㇑a" d="M54.73 43.64c.82.82.8 1.86.8 3.23.0 5.06.03 21.76.03 27.53"/><path id="kvg:08549-s9" kvg:type="㇐b" d="M34.4 52.95c6.6-.4 26.62-1.38 37.35-1.95 3.32-.18 5.75-.31 6.62-.38"/><path id="kvg:08549-s10" kvg:type="㇐b" d="M34.1 64.42c6.92-.39 26.81-1.36 37.79-1.94 3.54-.18 6.15-.33 7.11-.4"/><path id="kvg:08549-s11" kvg:type="㇐b" d="M34.6 76.08c7.82-.25 31.41-.89 44.65-1.37 4.58-.17 7.92-.31 8.94-.42"/></g><g id="kvg:08549-g5" kvg:element="灬" kvg:variant="true" kvg:original="火" kvg:position="bottom"><path id="kvg:08549-s12" kvg:type="㇔" d="M24.55 84.99c0 4.71-6.63 11.42-8.05 12.76"/><path id="kvg:08549-s13" kvg:type="㇔" d="M38.75 83.84c1.98 2.73 3.86 10.25 4.36 14.51"/><path id="kvg:08549-s14" kvg:type="㇔" d="M58.98 82.92c2.55 2.49 6.6 10.24 7.24 14.11"/><path id="kvg:08549-s15" kvg:type="㇔" d="M78.15 81.22c3.94 2.79 10.17 11.47 11.16 15.81"/></g></g></g></g></svg>