<svg xmlns="http://www.w3.org/2000/svg" width="109" height="109" viewBox="0 0 109 109"><g id="kvg:StrokePaths_08543" style="fill:none;stroke:#000000;stroke-width:3;stroke-linecap:round;stroke-linejoin:round;"><g id="kvg:08543" kvg:element="蕃"><g id="kvg:08543-g1" kvg:element="艹" kvg:variant="true" kvg:original="艸" kvg:position="top" kvg:radical="general"><path id="kvg:08543-s1" kvg:type="㇐" d="M20 23.27c1.29.53 2.8.63 4.1.53C36 22.83 71 19.33 84.72 19.26c2.16-.01 3.45.25 4.53.51"/><path id="kvg:08543-s2" kvg:type="㇑a" d="M38.5 13.5c1.33 1.13 1.76 1.48 1.9 2.17 1.33 6.52 1.71 12.45 2.1 14.83"/><path id="kvg:08543-s3" kvg:type="㇑a" d="M71.23 10.5c.83.74 1.38 1.86 1.1 2.94-.83 3.31-1.38 8.83-2.58 13.06"/></g><g id="kvg:08543-g2" kvg:element="番" kvg:position="bottom"><g id="kvg:08543-g3" kvg:element="釆" kvg:position="top"><g id="kvg:08543-g4" kvg:element="丿"><path id="kvg:08543-s4" kvg:type="㇒" d="M64.26 29c.1.24.13.59-.19.98-2.65 3.2-17.02 6.2-34.07 8.78"/></g><g id="kvg:08543-g5" kvg:element="米"><path id="kvg:08543-s5" kvg:type="㇔" d="M34.26 41.53c1.89 1.21 4.73 4.64 5.2 6.53"/><path id="kvg:08543-s6" kvg:type="㇒" d="M75.01 35.03c.03.29.15.76-.05 1.15-1.61 3.1-4.19 6.75-9.49 11.01"/><path id="kvg:08543-s7" kvg:type="㇐" d="M17.77 51.96c.84.16 3.09.42 5.33.48 6.17.16 53.81-5.23 63.63-4.91 2.24.07 3.26-.04 4.71.5"/><path id="kvg:08543-s8" kvg:type="㇑" d="M52.59 36.91c1.18.44 2.12 2.59 2.12 3.52.0 5.51-.24 21.31-.24 27.84"/><path id="kvg:08543-s9" kvg:type="㇒" d="M51 50.22c-6.66 8.73-22.53 19.99-37.5 25.03"/><path id="kvg:08543-s10" kvg:type="㇏" d="M55.88 50.33c4.74 2.65 27.47 16.44 32.61 19.05 1.74.88 3.24 1.26 4.99 1.52"/></g></g><g id="kvg:08543-g6" kvg:element="田" kvg:position="bottom"><path id="kvg:08543-s11" kvg:type="㇑" d="M32.4 73.64c.31.43 1.32 2.22 1.48 2.76 1.38 4.4 2.61 14.24 3.42 22.35"/><path id="kvg:08543-s12" kvg:type="㇕a" d="M34.36 75.05c13.72-1.25 31.16-3.08 39.34-3.51 3.01-.16 4.54 1.12 4.37 2.3C77.4 78.7 75.4 89.7 73.1 97.19"/><path id="kvg:08543-s13" kvg:type="㇑a" d="M53.54 74.58c.65.83.88 1.17.88 2.33-.02 5.47.2 16.36.2 18.14"/><path id="kvg:08543-s14" kvg:type="㇐a" d="M36.32 85.2c3.57-.21 36.1-2.17 39.06-2.17"/><path id="kvg:08543-s15" kvg:type="㇐a" d="M37.88 96.36c9.47-.29 24.3-2.07 35.19-2.18"/></g></g></g></g></svg>