<svg xmlns="http://www.w3.org/2000/svg" width="109" height="109" viewBox="0 0 109 109"><g id="kvg:StrokePaths_08555"><g id="kvg:08555" kvg:element="蕕"><g id="kvg:08555-g1" kvg:element="艹" kvg:variant="true" kvg:original="艸" kvg:position="top" kvg:radical="general"><path id="kvg:08555-s1" kvg:type="㇐" d="M17 21.72c1.77.63 3.83.76 5.61.63 16.29-1.16 43.66-3.56 62.44-3.64 2.95-.01 4.73.3 6.2.62"/><path id="kvg:08555-s2" kvg:type="㇑a" d="M38.35 11.5c1.39 1.13 1.83 1.48 1.98 2.17 1.38 6.52 1.78 12.45 2.17 14.83"/><path id="kvg:08555-s3" kvg:type="㇑a" d="M67.21 10.25c.89.79 1.31 1.97 1.19 3.17C68 17.5 67.25 22 66.62 27.5"/></g><g id="kvg:08555-g2" kvg:element="猶" kvg:variant="true" kvg:position="bottom"><g id="kvg:08555-g3" kvg:element="⺨" kvg:variant="true" kvg:original="犬" kvg:position="left"><path id="kvg:08555-s4" kvg:type="㇒" d="M37.56 30.75c.06.49.27 1.44-.12 1.97-4.94 6.75-9.95 11.52-21.94 18.83"/><path id="kvg:08555-s5" kvg:type="㇁" d="M19.5 32.25c26.67 19.76 16.48 71.49 5.43 60.54"/><path id="kvg:08555-s6" kvg:type="㇒" d="M32.09 51.75c.04.67.21 1.95-.09 2.68-3.88 9.19-7.82 15.68-17.24 25.62"/></g><g id="kvg:08555-g4" kvg:element="酋" kvg:position="right"><g id="kvg:08555-g5" kvg:element="八" kvg:position="top"><g id="kvg:08555-g6" kvg:position="left"><path id="kvg:08555-s7" kvg:type="㇒" d="M55.9 30.96c.04.37.21 1.02-.07 1.49-2.08 3.55-6.08 8.8-12.56 14.27"/></g><g id="kvg:08555-g7" kvg:position="right"><path id="kvg:08555-s8" kvg:type="㇏" d="M70.15 28.48c2.21.41 12.99 11.5 20.67 16.05 1.2.71 2.07 1.18 3.18 1.42"/></g></g><g id="kvg:08555-g8" kvg:element="酉" kvg:position="bottom"><g id="kvg:08555-g9" kvg:element="西" kvg:part="1" kvg:original="襾"><path id="kvg:08555-s9" kvg:type="㇐" d="M50.84 45.93c.98.44 2.77.48 3.76.44C63.5 46 70.25 45 77.73 43.85c1.61-.25 2.62.21 3.43.43"/><path id="kvg:08555-s10" kvg:type="㇑" d="M47.71 55.33c.5.58.68 1.99.68 2.77s.17 39.53.17 39.92"/><path id="kvg:08555-s11" kvg:type="㇕a" d="M49.22 57.37c2.81-.1 30.79-3.11 33.35-3.22 2.13-.1 3.65.93 3.65 3.14.0 1.23-.3 31.85-.29 40.41"/><path id="kvg:08555-s12" kvg:type="㇒" d="M59.48 48.74c.48.7.32 1.66.33 2.62.06 9.43-.32 17.25-4.86 21.41"/><path id="kvg:08555-s13" kvg:type="㇟a" d="M69.37 46.84c.59.89 1.05 1.93 1.09 3.3.11 4.34-.26 10.19-.31 15.55-.04 4.66 1.65 5.23 7.22 5.23 3.54.0 7.06-.58 7.46-1.1"/></g><g id="kvg:08555-g10" kvg:element="一"><path id="kvg:08555-s14" kvg:type="㇐a" d="M48.96 82.68c3.8.0 32.36-2.72 36.66-2.72"/></g><g id="kvg:08555-g11" kvg:element="西" kvg:part="2" kvg:original="襾"><path id="kvg:08555-s15" kvg:type="㇐a" d="M49.16 95.48c7.73-.44 26.43-1.63 36.06-2.01"/></g></g></g></g></g></g></svg>