<svg xmlns="http://www.w3.org/2000/svg" width="109" height="109" viewBox="0 0 109 109"><g id="kvg:StrokePaths_0857e" style="fill:none;stroke:#000000;stroke-width:3;stroke-linecap:round;stroke-linejoin:round;"><g id="kvg:0857e" kvg:element="蕾"><g id="kvg:0857e-g1" kvg:element="艹" kvg:variant="true" kvg:original="艸" kvg:position="top" kvg:radical="general"><path id="kvg:0857e-s1" kvg:type="㇐" d="M18 20.27c1.9.53 4.11.63 6.01.53 17.46-.96 40.46-2.46 60.59-2.53 3.17-.01 5.07.25 6.65.51"/><path id="kvg:0857e-s2" kvg:type="㇑a" d="M38.75 10.6c1.42 1.16 1.87 1.51 2.02 2.23 1.42 6.68 1.32 13.25 1.73 15.68"/><path id="kvg:0857e-s3" kvg:type="㇑a" d="M65.71 9.75c.89.79.98 2 .69 3.17-.89 3.57-1.49 9.52-2.78 14.08"/></g><g id="kvg:0857e-g2" kvg:element="雷" kvg:position="bottom"><g id="kvg:0857e-g3" kvg:element="雨" kvg:variant="true" kvg:position="top"><path id="kvg:0857e-s4" kvg:type="㇐" d="M27.72 32.87c1.62.18 4.28.64 5.75.51 8.89-.79 28.39-1.74 41.86-2.48 2.06-.11 3.77-.15 5.67.1"/><path id="kvg:0857e-s5" kvg:type="㇔/㇑" d="M20.86 40.51c-.32 5.41-3.09 11.4-5.14 16.86"/><path id="kvg:0857e-s6" kvg:type="㇖b/㇆" d="M21.65 43.47c21.05-2.14 49.15-3.99 65.26-3.99 8.34.0 3.01 4.92-1.31 8.7"/><path id="kvg:0857e-s7" kvg:type="㇑" d="M52.28 34.37c1.28.65 1.83 2.26 1.83 2.78s-.29 23.9-.29 25.34"/><path id="kvg:0857e-s8" kvg:type="㇔" d="M33.51 46.76c3.04.76 7.18 3.04 8.84 4.3"/><path id="kvg:0857e-s9" kvg:type="㇔" d="M30.75 55.12c3.02.76 7.7 3.54 9.35 4.8"/><path id="kvg:0857e-s10" kvg:type="㇔" d="M66.86 45.77c4 1.41 8.54 4.23 10.14 5.4"/><path id="kvg:0857e-s11" kvg:type="㇔" d="M66.34 55.48c3.55 1.09 8.39 4.36 10.33 6.18"/></g><g id="kvg:0857e-g4" kvg:element="田" kvg:position="bottom"><path id="kvg:0857e-s12" kvg:type="㇑" d="M26.96 67.9c.39.51.4.87.62 1.52 1.77 5.35 2.97 19.82 4.06 29.79"/><path id="kvg:0857e-s13" kvg:type="㇕a" d="M28.31 69.58c13.7-1.35 38.67-2.67 48.9-3.8 3.76-.42 4.68 2.55 4.49 4.02-.71 5.39-2.41 19.85-5.62 28.6"/><path id="kvg:0857e-s14" kvg:type="㇑a" d="M52.04 68.59c.98.27 1.56 1.98 1.6 3.14.27 7.63.09 19.12.09 23.14"/><path id="kvg:0857e-s15" kvg:type="㇐a" d="M30.38 82.94c4.46-.52 45.61-2.44 49.29-2.65"/><path id="kvg:0857e-s16" kvg:type="㇐a" d="M31.86 97.27c9.87-.57 29.36-1.4 44.72-1.98"/></g></g></g></g></svg>