<svg xmlns="http://www.w3.org/2000/svg" width="109" height="109" viewBox="0 0 109 109"><g id="kvg:StrokePaths_0858a"><g id="kvg:0858a" kvg:element="薊"><g id="kvg:0858a-g1" kvg:element="艹" kvg:variant="true" kvg:original="艸" kvg:position="top" kvg:radical="general"><path id="kvg:0858a-s1" kvg:type="㇐" d="M20 21.49c1.69.69 3.65.82 5.35.69 15.52-1.25 42.6-2.71 60.5-2.8 2.81-.02 4.5.33 5.91.67"/><path id="kvg:0858a-s2" kvg:type="㇑a" d="M40.17 11.25c1.45 1.18 1.91 1.54 2.06 2.27 1.44 6.81 1.86 13 2.27 15.48"/><path id="kvg:0858a-s3" kvg:type="㇑a" d="M69.22 10c.98.87 1.13 2.21.81 3.49-.98 3.93-2.14 9.98-3.56 15.01"/></g><g id="kvg:0858a-g2" kvg:position="bottom"><g id="kvg:0858a-g3" kvg:element="魚" kvg:position="left"><g id="kvg:0858a-g4" kvg:element="𠂊" kvg:variant="true" kvg:original="勹" kvg:position="top"><path id="kvg:0858a-s4" kvg:type="㇒" d="M30.99 29.25c.05.5.17 1.33-.09 2.02-1.73 4.57-7.35 13.62-15.92 19.35"/><path id="kvg:0858a-s5" kvg:type="㇇" d="M29.33 36.93c1.61.0 13.56-2.04 15.26-2.28 1.45-.21 2.34 1.35 1.68 2.35C44.25 40 41 44.25 39.24 49"/></g><g id="kvg:0858a-g5" kvg:position="bottom"><g id="kvg:0858a-g6" kvg:element="田"><path id="kvg:0858a-s6" kvg:type="㇑" d="M22.22 50.26c.24.43.77 2.16.9 2.71 1.07 4.5 2.69 14.82 3.35 23.21"/><path id="kvg:0858a-s7" kvg:type="㇕a" d="M23.33 51.34c8.3-1.13 21.46-3.38 27.72-3.53 2.7-.06 3.95.94 3.82 3.12-.25 4.55-1.88 14.46-3.7 22.95"/><path id="kvg:0858a-s8" kvg:type="㇑a" d="M37.22 50.58c.94.56 1.66 2.39 1.69 3.84.12 6.41.03 15.49.03 18.67"/><path id="kvg:0858a-s9" kvg:type="㇐a" d="M24.88 62.47c2.7-.44 26.46-2.23 28.69-2.41"/><path id="kvg:0858a-s10" kvg:type="㇐a" d="M26.37 74.06c5.98-.48 16.94-1.52 25.2-2.31"/></g><g id="kvg:0858a-g7" kvg:element="灬" kvg:variant="true" kvg:original="火"><path id="kvg:0858a-s11" kvg:type="㇔" d="M20.94 84.32c0 4.95-4.02 12.27-5.07 13.68"/><path id="kvg:0858a-s12" kvg:type="㇔" d="M30.6 83.33c1.56 2.32 3.04 8.69 3.44 12.29"/><path id="kvg:0858a-s13" kvg:type="㇔" d="M41.98 81.44c1.54 1.98 3.97 8.14 4.36 11.21"/><path id="kvg:0858a-s14" kvg:type="㇔" d="M53.3 79.87c1.83 1.9 4.74 7.82 5.2 10.78"/></g></g></g><g id="kvg:0858a-g8" kvg:element="刂" kvg:variant="true" kvg:original="刀" kvg:position="right"><path id="kvg:0858a-s15" kvg:type="㇑" d="M69.27 38.58c.85.76 1.52 1.64 1.52 4.14.0 15.28-.52 29.96-.52 34.05"/><path id="kvg:0858a-s16" kvg:type="㇚" d="M86.96 30.33c.88.78 1.5 1.7 1.57 4.3.36 12.46-.23 54.49-.23 58.73.0 11.25-6.46 1.28-7.8.21"/></g></g></g></g></svg>