<!DOCTYPE svg PUBLIC "-//W3C//DTD SVG 1.0//EN" "http://www.w3.org/TR/2001/REC-SVG-20010904/DTD/svg10.dtd" [
<!ATTLIST g
xmlns:kvg CDATA #FIXED "http://kanjivg.tagaini.net"
kvg:element CDATA #IMPLIED
kvg:variant CDATA #IMPLIED
kvg:partial CDATA #IMPLIED
kvg:original CDATA #IMPLIED
kvg:part CDATA #IMPLIED
kvg:number CDATA #IMPLIED
kvg:tradForm CDATA #IMPLIED
kvg:radicalForm CDATA #IMPLIED
kvg:position CDATA #IMPLIED
kvg:radical CDATA #IMPLIED
kvg:phon CDATA #IMPLIED >
<!ATTLIST path
xmlns:kvg CDATA #FIXED "http://kanjivg.tagaini.net"
kvg:type CDATA #IMPLIED >
]><svg xmlns="http://www.w3.org/2000/svg" width="109" height="109" viewBox="0 0 109 109"><g id="kvg:StrokePaths_08597" style="fill:none;stroke:#000000;stroke-width:3;stroke-linecap:round;stroke-linejoin:round;"><g id="kvg:08597" kvg:element="薗"><g id="kvg:08597-g1" kvg:element="艹" kvg:variant="true" kvg:original="艸" kvg:position="top" kvg:radical="general"><path id="kvg:08597-s1" kvg:type="㇐" d="M18.25 23.52c3.87.45 7.7.38 11.5-.22 14.46-1.94 35.38-3.65 49-4.31 4.02-.48 8.02-.39 12 .28"/><path id="kvg:08597-s2" kvg:type="㇑a" d="M37.75 12.25c.88.75 1.4 2.1 1.5 3C40 21.75 40.38 24.5 41 29"/><path id="kvg:08597-s3" kvg:type="㇑a" d="M66.86 10c.2.84.21 1.96-.01 2.99-1.32 6.05-1.6 7.39-2.85 13.51"/></g><g id="kvg:08597-g2" kvg:element="園" kvg:position="bottom"><g id="kvg:08597-g3" kvg:element="囗" kvg:part="1"><path id="kvg:08597-s4" kvg:type="㇑" d="M22.03 34.91c.84 1.09 1.12 2.51 1.12 4.05.0 11.94.06 37.51.15 51.67.02 3.39.04 6.63.06 8.38"/><path id="kvg:08597-s5" kvg:type="㇕a" d="M23.72 37.44c19.43-2.5 42.39-4.88 57.91-6.1 4.56-.36 5.62 1.48 5.62 5.91.01 12.12.1 35.1.03 49.62-.02 3.97-.03 7.31-.03 9.61"/></g><g id="kvg:08597-g4" kvg:element="袁"><g id="kvg:08597-g5" kvg:element="土" kvg:position="top"><path id="kvg:08597-s6" kvg:type="㇐" d="M37.66 43.24c2.37.31 4.72.28 7.06-.08 5.5-.64 12.95-1.66 19.53-2.52 2.15-.33 4.31-.3 6.49.11"/><path id="kvg:08597-s7" kvg:type="㇑" d="M52.76 36.78c.73.73.83 1.68.89 2.72.37 5.86.1 8.89.1 10.89"/><g id="kvg:08597-g6" kvg:element="衣" kvg:part="1" kvg:variant="true" kvg:partial="true"><g id="kvg:08597-g7" kvg:element="亠" kvg:partial="true"><path id="kvg:08597-s8" kvg:type="㇐" d="M30.06 53.09c3.17.18 6.31.02 9.42-.47 10-1.41 20.73-3.13 30.77-4.22 3-.37 6.01-.41 9.04-.11"/></g></g></g><g id="kvg:08597-g8" kvg:position="bottom"><g id="kvg:08597-g9" kvg:element="口"><path id="kvg:08597-s9" kvg:type="㇑" d="M39.83 59.2c.8.55 1.05 1.3 1.25 2.11.33 1.36.81 3.52 1.33 5.94.21.97.43 1.99.65 3.02"/><path id="kvg:08597-s10" kvg:type="㇕b" d="M41.39 60.08c7.73-1.37 17.79-2.99 24.25-4.02 1.58-.25 3.37.42 2.88 2.35-.5 1.97-.86 3.66-1.46 6.3"/><path id="kvg:08597-s11" kvg:type="㇐b" d="M44.53 68.44c4.09-.51 12.54-1.76 19.46-2.52 1.54-.17 3.01-.32 4.34-.43"/></g><g id="kvg:08597-g10" kvg:element="衣" kvg:part="2" kvg:variant="true" kvg:partial="true"><path id="kvg:08597-s12" kvg:type="㇒" d="M53.91 70.23c-.21 1.08-.69 1.99-1.45 2.73C49.13 76.65 41.89 82.3 32.13 87"/><path id="kvg:08597-s13" kvg:type="㇑/㇙" d="M53.75 74.27c.63.98.88 1.97.87 3.11-.08 5.73-.05 7.93-.02 10.38.01 1.23.03 2.53.03 4.37"/><path id="kvg:08597-s14" kvg:type="㇒" d="M71.15 69.99c-.03.82-.22 1.59-.57 2.3-.81 1.58-3.02 3.6-6.14 6.63"/><path id="kvg:08597-s15" kvg:type="㇏" d="M56.27 75.57c4.25 2.27 11.23 7 16.37 9.43 1.48.7 3.8 1.71 4.87 1.91"/></g></g></g><g id="kvg:08597-g11" kvg:element="囗" kvg:part="2" kvg:position="kamae"><path id="kvg:08597-s16" kvg:type="㇐a" d="M24.4 96.6c16.97-.97 45.3-2.52 61.85-2.85"/></g></g></g></g><g id="kvg:StrokeNumbers_08597" style="font-size:8;fill:#808080"><text transform="matrix(1 0 0 1 11.50 24.50)">1</text><text transform="matrix(1 0 0 1 28.66 12.50)">2</text><text transform="matrix(1 0 0 1 57.50 10.50)">3</text><text transform="matrix(1 0 0 1 15.50 42.50)">4</text><text transform="matrix(1 0 0 1 26.50 33.50)">5</text><text transform="matrix(1 0 0 1 30.50 44.25)">6</text><text transform="matrix(1 0 0 1 46.25 41.50)">7</text><text transform="matrix(1 0 0 1 27.50 50.50)">8</text><text transform="matrix(1 0 0 1 34.25 65.50)">9</text><text transform="matrix(1 0 0 1 45.25 57.50)">10</text><text transform="matrix(1 0 0 1 46.50 65.50)">11</text><text transform="matrix(1 0 0 1 36.50 77.50)">12</text><text transform="matrix(1 0 0 1 45.50 85.50)">13</text><text transform="matrix(1 0 0 1 60.50 72.50)">14</text><text transform="matrix(1 0 0 1 57.50 86.50)">15</text><text transform="matrix(1 0 0 1 32.50 92.50)">16</text></g></svg>