<svg xmlns="http://www.w3.org/2000/svg" width="109" height="109" viewBox="0 0 109 109"><g id="kvg:StrokePaths_085ac" style="fill:none;stroke:#000000;stroke-width:3;stroke-linecap:round;stroke-linejoin:round;"><g id="kvg:085ac" kvg:element="薬"><g id="kvg:085ac-g1" kvg:element="艹" kvg:variant="true" kvg:original="艸" kvg:position="top" kvg:radical="general"><path id="kvg:085ac-s1" kvg:type="㇐" d="M16.25 22.52c3.25.69 6.61.33 9.88.05 13.04-1.08 36.66-3.21 50.99-3.86 3.83-.17 7.75-.22 11.62.56"/><path id="kvg:085ac-s2" kvg:type="㇑a" d="M35.25 12c1.4 1.18 1.85 1.54 2 2.26 1.4 6.78 2.6 13.77 3 16.24"/><path id="kvg:085ac-s3" kvg:type="㇑a" d="M68.33 10c.3.92.68 1.61.35 2.74-1.94 6.66-2.82 9.99-4.93 16.26"/></g><g id="kvg:085ac-g2" kvg:element="楽" kvg:position="bottom" kvg:phon="楽"><g id="kvg:085ac-g3" kvg:position="top"><g id="kvg:085ac-g4" kvg:element="白"><g id="kvg:085ac-g5" kvg:position="top"><path id="kvg:085ac-s4" kvg:type="㇔" d="M50.11 27.75c.17.32.19.71.15.98-.2 1.39-1.69 4.42-3.27 6.64"/></g><g id="kvg:085ac-g6" kvg:element="日" kvg:position="bottom"><path id="kvg:085ac-s5" kvg:type="㇑" d="M38.5 38.34c.95.95 1.67 2.17 1.79 2.97.37 2.65 1.08 9.74 1.73 15.06.16 1.33.32 2.55.46 3.56"/><path id="kvg:085ac-s6" kvg:type="㇕a" d="M40.52 39.27c3.48-.65 13.68-2.36 19.08-3.22 2.64-.42 5.39.7 5.22 3.82-.2 3.48-.39 9.83-.54 14.88-.04 1.48-.09 2.84-.12 3.99"/><path id="kvg:085ac-s7" kvg:type="㇐a" d="M42.16 48.45c4.96-.57 15.96-1.95 21.41-2.4"/><path id="kvg:085ac-s8" kvg:type="㇐a" d="M43.63 58.07c6.37-.57 12.12-1.45 19.35-1.85"/></g></g><g id="kvg:085ac-g7" kvg:element="冫"><path id="kvg:085ac-s9" kvg:type="㇔" d="M19.75 38c3.71 1.34 9.57 5.49 10.5 7.57"/><path id="kvg:085ac-s10" kvg:type="㇀" d="M16.42 62.85c1.29.64 3.03.63 3.88.0 1.96-1.47 8.45-5.67 11.81-8.35"/></g><path id="kvg:085ac-s11" kvg:type="㇒" d="M82.95 31.45c.03.25.06.64-.05.99-.65 2.09-4.4 6.69-9.52 9.5"/><path id="kvg:085ac-s12" kvg:type="㇔" d="M73.75 50.4c5.5 2.23 11 5.85 13.25 9.21"/></g><g id="kvg:085ac-g8" kvg:element="木" kvg:position="bottom"><path id="kvg:085ac-s13" kvg:type="㇐" d="M16.78 74.82c3.45.7 6.99.49 10.47.22 15-1.17 37.13-4.04 54.5-5 3.72-.21 6.8-.07 10.45.38"/><path id="kvg:085ac-s14" kvg:type="㇑" d="M53.2 63.13c.83.83 1.36 2.24 1.36 3.51.0.4.0 20.12-.09 29.23-.02 2.21-.05 3.81-.09 4.38"/><path id="kvg:085ac-s15" kvg:type="㇒" d="M51.75 73.13c0 1.12-.87 2.26-1.91 3.33C42.56 83.99 28.49 92.98 18 96.83"/><path id="kvg:085ac-s16" kvg:type="㇏" d="M56.01 74.23c4.15 2.44 20.41 12.71 28.22 17.31 2.61 1.54 5.1 2.9 8.14 3.36"/></g></g></g></g></svg>