<!DOCTYPE svg PUBLIC "-//W3C//DTD SVG 1.0//EN" "http://www.w3.org/TR/2001/REC-SVG-20010904/DTD/svg10.dtd" [
<!ATTLIST g
xmlns:kvg CDATA #FIXED "http://kanjivg.tagaini.net"
kvg:element CDATA #IMPLIED
kvg:variant CDATA #IMPLIED
kvg:partial CDATA #IMPLIED
kvg:original CDATA #IMPLIED
kvg:part CDATA #IMPLIED
kvg:number CDATA #IMPLIED
kvg:tradForm CDATA #IMPLIED
kvg:radicalForm CDATA #IMPLIED
kvg:position CDATA #IMPLIED
kvg:radical CDATA #IMPLIED
kvg:phon CDATA #IMPLIED >
<!ATTLIST path
xmlns:kvg CDATA #FIXED "http://kanjivg.tagaini.net"
kvg:type CDATA #IMPLIED >
]><svg xmlns="http://www.w3.org/2000/svg" width="109" height="109" viewBox="0 0 109 109"><g id="kvg:StrokePaths_085a6" style="fill:none;stroke:#000000;stroke-width:3;stroke-linecap:round;stroke-linejoin:round;"><g id="kvg:085a6" kvg:element="薦"><g id="kvg:085a6-g1" kvg:element="艹" kvg:variant="true" kvg:original="艸" kvg:position="top" kvg:radical="general"><path id="kvg:085a6-s1" kvg:type="㇐" d="M23.25 20.33c2.75.79 6.05.62 8.64.31 12.86-1.52 34.15-3.46 46.5-3.95 2.71-.11 5.71-.04 8.36.61"/><path id="kvg:085a6-s2" kvg:type="㇑a" d="M39.77 11.4c1.04 1.04 1.27 2.23 1.39 3.83.47 6.27.87 9.4 1.09 11.31"/><path id="kvg:085a6-s3" kvg:type="㇑a" d="M67.79 9.21c.58 1.17.62 2.14.44 3.13-1.06 5.77-1.79 7.41-2.94 12.85"/></g><g id="kvg:085a6-g2" kvg:position="bottom"><g id="kvg:085a6-g3" kvg:element="广"><path id="kvg:085a6-s4" kvg:type="㇑a" d="M53.72 23.97c1.15 1.15 1.45 1.9 1.45 4.08.0.72-.04 1.55-.04 2.57"/><g id="kvg:085a6-g4" kvg:element="厂"><path id="kvg:085a6-s5" kvg:type="㇐" d="M24.34 33.43c2.78.69 5.89.64 8.66.33 14.87-1.64 30.25-3.44 47.25-3.87 2.74-.07 5.43-.11 8.13.46"/><path id="kvg:085a6-s6" kvg:type="㇒" d="M27.88 34.5c1.06 1.06 1.26 2.38 1.11 4.46C28 53 26.25 81.75 11.56 95.38"/></g></g><path id="kvg:085a6-s7" kvg:type="㇕c" d="M34.19 44.14c1.95.61 3.59.69 5.62.52 15.43-1.29 35.48-2.85 39.4-3.11 2.93-.19 3.97.9 3.44 3.09-.98 4.04-1.4 4.98-2.07 7.52"/><path id="kvg:085a6-s8" kvg:type="㇑a" d="M46.33 37.92c.88.88 1.17 2.08 1.29 3.12.09.82.66 7.24 1.14 12.84"/><path id="kvg:085a6-s9" kvg:type="㇑a" d="M64.19 35.78c.68.85.93 1.85.79 3.12-.4 3.6-.93 8.18-1.66 13.78"/><path id="kvg:085a6-s10" kvg:type="㇐" d="M32.94 55.72c2.81.53 5.03.21 7.31-.01 8.52-.83 26.78-2.15 35.63-2.54 2.31-.1 4.62-.17 7 .02"/><path id="kvg:085a6-s11" kvg:type="㇐" d="M46.25 65.39c.94.38 2.66.2 3.6.13 6.72-.46 17.56-1.86 25.16-2.78 2.19-.26 4.08-.5 6.24.02"/><path id="kvg:085a6-s12" kvg:type="㇉" d="M43.9 59.86c.47 1.14.22 2.26-.51 4.25-.52 1.41-2.35 5.45-3.43 7.73-.9 1.88-1.35 4.02 1.65 3.65 3.92-.48 32.74-2.86 43.65-3.69 4.04-.3 6.39.52 5.15 5.08-1.66 6.1-4.79 14.85-9.12 20.6-3.86 5.11-5.69.61-7.56-1.5"/><g id="kvg:085a6-g5" kvg:element="灬" kvg:variant="true" kvg:original="火"><path id="kvg:085a6-s13" kvg:type="㇔" d="M31.88 84.12c0 3.71-3.47 9.18-4.38 10.24"/><path id="kvg:085a6-s14" kvg:type="㇔" d="M42.73 83.1c1.77 1.79 3.45 6.73 3.89 9.52"/><path id="kvg:085a6-s15" kvg:type="㇔" d="M55.52 81.22c1.67 1.49 4.31 6.14 4.73 8.47"/><path id="kvg:085a6-s16" kvg:type="㇔" d="M69.17 79.95c1.73 1.18 4.46 4.85 4.89 6.69"/></g></g></g></g><g id="kvg:StrokeNumbers_085a6" style="font-size:8;fill:#808080"><text transform="matrix(1 0 0 1 16.50 21.13)">1</text><text transform="matrix(1 0 0 1 30.50 12.13)">2</text><text transform="matrix(1 0 0 1 59.50 9.50)">3</text><text transform="matrix(1 0 0 1 46.50 27.50)">4</text><text transform="matrix(1 0 0 1 25.50 30.50)">5</text><text transform="matrix(1 0 0 1 21.75 43.41)">6</text><text transform="matrix(1 0 0 1 33.50 43.33)">7</text><text transform="matrix(1 0 0 1 39.50 40.50)">8</text><text transform="matrix(1 0 0 1 56.50 39.50)">9</text><text transform="matrix(1 0 0 1 33.50 53.60)">10</text><text transform="matrix(1 0 0 1 48.50 62.53)">11</text><text transform="matrix(1 0 0 1 33.75 63.95)">12</text><text transform="matrix(1 0 0 1 24.50 82.50)">13</text><text transform="matrix(1 0 0 1 34.50 85.50)">14</text><text transform="matrix(1 0 0 1 47.50 84.50)">15</text><text transform="matrix(1 0 0 1 60.50 82.50)">16</text></g></svg>