<!DOCTYPE svg PUBLIC "-//W3C//DTD SVG 1.0//EN" "http://www.w3.org/TR/2001/REC-SVG-20010904/DTD/svg10.dtd" [
<!ATTLIST g
xmlns:kvg CDATA #FIXED "http://kanjivg.tagaini.net"
kvg:element CDATA #IMPLIED
kvg:variant CDATA #IMPLIED
kvg:partial CDATA #IMPLIED
kvg:original CDATA #IMPLIED
kvg:part CDATA #IMPLIED
kvg:number CDATA #IMPLIED
kvg:tradForm CDATA #IMPLIED
kvg:radicalForm CDATA #IMPLIED
kvg:position CDATA #IMPLIED
kvg:radical CDATA #IMPLIED
kvg:phon CDATA #IMPLIED >
<!ATTLIST path
xmlns:kvg CDATA #FIXED "http://kanjivg.tagaini.net"
kvg:type CDATA #IMPLIED >
]><svg xmlns="http://www.w3.org/2000/svg" width="109" height="109" viewBox="0 0 109 109"><g id="kvg:StrokePaths_085a4" style="fill:none;stroke:#000000;stroke-width:3;stroke-linecap:round;stroke-linejoin:round;"><g id="kvg:085a4" kvg:element="薤"><g id="kvg:085a4-g1" kvg:element="艹" kvg:variant="true" kvg:original="艸" kvg:position="top" kvg:radical="general"><path id="kvg:085a4-s1" kvg:type="㇐" d="M17 22.21c1.61.94 3.47 1.06 5.1.94 15.65-1.07 46.43-3.15 63.51-3.28 2.69-.02 4.3.45 5.64.92"/><path id="kvg:085a4-s2" kvg:type="㇑a" d="M37.36 11.5c1.55 1.27 2.04 1.65 2.21 2.43C41.12 21.22 41.56 27.35 42 30"/><path id="kvg:085a4-s3" kvg:type="㇑a" d="M67.21 11.25c.92.82 1.53 2.06 1.22 3.26-.92 3.67-1.53 9.79-2.86 14.49"/></g><g id="kvg:085a4-g2" kvg:position="bottom"><g id="kvg:085a4-g3" kvg:element="歹" kvg:position="left"><g id="kvg:085a4-g4" kvg:element="一"><path id="kvg:085a4-s4" kvg:type="㇐" d="M15.91 38.17c.97.03 2.7.1 3.67.01 4.95-.43 17.81-2.75 23.88-3.46 1.59-.19 2.55.24 3.35.49"/></g><g id="kvg:085a4-g5" kvg:element="夕"><path id="kvg:085a4-s5" kvg:type="㇒" d="M28.63 39.47c.17.59.69 2.37.33 3.49-2.42 7.56-7.36 18.62-15.95 27.84"/><path id="kvg:085a4-s6" kvg:type="㇇" d="M26.97 55.31c.26.04 1.34.0 2.07-.12 2.38-.37 5.99-1.94 10.08-2.59 2.41-.38 3.08 1.97 2.22 4.04C36.5 68.25 27 88.5 11.54 99.5"/><path id="kvg:085a4-s7" kvg:type="㇔" d="M21.49 66.27c2.76 1.58 7.13 6.51 7.82 8.98"/></g></g><g id="kvg:085a4-g6" kvg:element="韭" kvg:position="right"><g id="kvg:085a4-g7" kvg:element="非"><path id="kvg:085a4-s8" kvg:type="㇑" d="M58.98 34.52c.72.44 1.16 1.98 1.3 2.87.15.88.0 51.37-.14 56.89"/><path id="kvg:085a4-s9" kvg:type="㇑" d="M71.24 34.25c.73.44 1.16 1.99 1.31 2.87.14.88.0 50.75-.14 56.27"/><path id="kvg:085a4-s10" kvg:type="㇐c" d="M43.59 49.44c.58.31 3.13 1.31 3.71 1.31 4.7-.02 12.08-1.15 12.69-1.15"/><path id="kvg:085a4-s11" kvg:type="㇀" d="M43.91 65.41c.58.31 2.13.81 2.71.81 4.7-.02 13.1-.55 13.72-.55"/><path id="kvg:085a4-s12" kvg:type="㇐" d="M42.82 80.87c.58.31 1.63.31 2.21.31 4.7-.02 14.2-1.26 14.81-1.26"/><path id="kvg:085a4-s13" kvg:type="㇐b" d="M73.83 48.65c.83.0 12.66-1.58 16.46-2.08 1.04-.13 1.67.15 2.19.3"/><path id="kvg:085a4-s14" kvg:type="㇐b" d="M73.66 63.91c.83.0 12.28-1.03 16.08-1.53 1.04-.14 1.67.15 2.19.3"/><path id="kvg:085a4-s15" kvg:type="㇐b" d="M73.83 79.29c.83.0 12.44-1.53 16.24-2.03 1.04-.13 1.67.15 2.19.3"/></g><g id="kvg:085a4-g8" kvg:element="一"><path id="kvg:085a4-s16" kvg:type="㇐" d="M39.86 95.77c1.03.48 2.93.6 3.96.48 13.35-1.54 37.85-3.96 48.69-3.29 1.72.11 2.75.23 3.62.47"/></g></g></g></g></g><g id="kvg:StrokeNumbers_085a4" style="font-size:8;fill:#808080"><text transform="matrix(1 0 0 1 10.50 22.50)">1</text><text transform="matrix(1 0 0 1 28.66 11.85)">2</text><text transform="matrix(1 0 0 1 58.50 10.50)">3</text><text transform="matrix(1 0 0 1 8.25 38.50)">4</text><text transform="matrix(1 0 0 1 20.50 47.50)">5</text><text transform="matrix(1 0 0 1 31.50 51.25)">6</text><text transform="matrix(1 0 0 1 24.50 66.50)">7</text><text transform="matrix(1 0 0 1 50.25 33.50)">8</text><text transform="matrix(1 0 0 1 69.50 31.50)">9</text><text transform="matrix(1 0 0 1 42.50 46.50)">10</text><text transform="matrix(1 0 0 1 45.25 63.50)">11</text><text transform="matrix(1 0 0 1 40.50 77.50)">12</text><text transform="matrix(1 0 0 1 76.49 44.50)">13</text><text transform="matrix(1 0 0 1 76.32 60.50)">14</text><text transform="matrix(1 0 0 1 76.50 75.50)">15</text><text transform="matrix(1 0 0 1 33.50 92.50)">16</text></g></svg>