<svg xmlns="http://www.w3.org/2000/svg" width="109" height="109" viewBox="0 0 109 109"><g id="kvg:StrokePaths_085b9" style="fill:none;stroke:#000000;stroke-width:3;stroke-linecap:round;stroke-linejoin:round;"><g id="kvg:085b9" kvg:element="薹"><g id="kvg:085b9-g1" kvg:element="艹" kvg:variant="true" kvg:original="艸" kvg:position="top" kvg:radical="general"><path id="kvg:085b9-s1" kvg:type="㇐" d="M18.5 19.27c1.83.53 3.97.63 5.8.53 16.85-.96 38.1-3.46 57.53-3.53 3.06-.01 4.89.25 6.42.51"/><path id="kvg:085b9-s2" kvg:type="㇑a" d="M36.22 10.5c1.26 1.03 1.67 1.35 1.8 1.98C39.28 18.43 39.64 23.84 40 26"/><path id="kvg:085b9-s3" kvg:type="㇑a" d="M69.19 8.5c.8.71 1.33 1.8 1.07 2.85-.8 3.21-1.34 8.55-2.49 12.65"/></g><g id="kvg:085b9-g2" kvg:element="臺" kvg:position="bottom"><g id="kvg:085b9-g3" kvg:element="吉" kvg:position="top"><g id="kvg:085b9-g4" kvg:element="士"><path id="kvg:085b9-s4" kvg:type="㇐" d="M28.98 30.15c1.44.45 4.08.46 5.52.41 10.25-.32 29-2.07 39.73-2.6 2.4-.12 3.84.08 5.04.28"/><path id="kvg:085b9-s5" kvg:type="㇑a" d="M52.37 22.66c.56.72 1.64 1.9 1.64 2.64.0 4.6-.17 8.64-.17 11.46"/><path id="kvg:085b9-s6" kvg:type="㇐" d="M36.16 37.74c1.05.15 2.98.13 4.03.08 9.03-.41 22.51-1.94 28.26-2.63 1.74-.21 2.81.02 3.68.08"/></g><g id="kvg:085b9-g5" kvg:element="口"><path id="kvg:085b9-s7" kvg:type="㇔" d="M33.62 44.34c.2.15.41.28.5.47.7 1.5 1.54 5.62 2.02 8.31"/><path id="kvg:085b9-s8" kvg:type="㇆" d="M34.88 44.86c4.95-.63 35.82-3.29 38.37-3.5.93-.08 1.49.78 1.36 1.23-.55 1.88-1.18 3.51-2.37 6.22"/><path id="kvg:085b9-s9" kvg:type="㇑" d="M36.34 52.13c3-.24 33.92-2.84 37.73-3.08"/></g></g><g id="kvg:085b9-g6" kvg:element="冖" kvg:position="bottom"><path id="kvg:085b9-s10" kvg:type="㇕b" d="M21.96 57.84c-.15 3.41-3.1 12.32-4.34 14.35"/><path id="kvg:085b9-s11" kvg:type="㇐b" d="M21.85 59.3c3.15.0 49.56-3.75 65.39-3.75 10.77.0 3.4 5.14-.62 8.49"/></g><g id="kvg:085b9-g7" kvg:element="至" kvg:position="bottom"><path id="kvg:085b9-s12" kvg:type="㇐" d="M31.64 66.39c1.05.28 2.98.3 4.04.28 13.73-.29 21.25-2.14 38.92-2.49 1.76-.04 2.81.13 3.69.27"/><g id="kvg:085b9-g8" kvg:element="厶"><path id="kvg:085b9-s13" kvg:type="㇜" d="M46.67 68.81c.11.4.17 1.11-.17 1.42-3.98 3.62-4.59 4.35-10.09 7.84-1.77 1.12-1.87 3.05.95 2.55 10.4-1.86 25.4-4.86 36.01-6.8"/><path id="kvg:085b9-s14" kvg:type="㇔" d="M66.29 69.33c4.5 1.85 11.63 7.62 12.75 10.51"/></g><g id="kvg:085b9-g9" kvg:element="土"><path id="kvg:085b9-s15" kvg:type="㇐" d="M31.55 87.59c1.46.38 4.15.46 5.6.38C45.5 87.5 65.5 86 73.86 85.47c2.43-.15 3.9.18 5.12.37"/><path id="kvg:085b9-s16" kvg:type="㇑a" d="M54.03 79.99c.09.18 1.37 1.92 1.34 3.04-.15 6.4-.03 12.42-.03 14.25"/><path id="kvg:085b9-s17" kvg:type="㇐" d="M20.73 98.06c1.57.67 4.47.69 6.03.67 13.86-.17 28.09-2.16 58.23-2.34 2.62-.02 4.2.32 5.51.65"/></g></g></g></g></g></svg>