<!DOCTYPE svg PUBLIC "-//W3C//DTD SVG 1.0//EN" "http://www.w3.org/TR/2001/REC-SVG-20010904/DTD/svg10.dtd" [
<!ATTLIST g
xmlns:kvg CDATA #FIXED "http://kanjivg.tagaini.net"
kvg:element CDATA #IMPLIED
kvg:variant CDATA #IMPLIED
kvg:partial CDATA #IMPLIED
kvg:original CDATA #IMPLIED
kvg:part CDATA #IMPLIED
kvg:number CDATA #IMPLIED
kvg:tradForm CDATA #IMPLIED
kvg:radicalForm CDATA #IMPLIED
kvg:position CDATA #IMPLIED
kvg:radical CDATA #IMPLIED
kvg:phon CDATA #IMPLIED >
<!ATTLIST path
xmlns:kvg CDATA #FIXED "http://kanjivg.tagaini.net"
kvg:type CDATA #IMPLIED >
]><svg xmlns="http://www.w3.org/2000/svg" width="109" height="109" viewBox="0 0 109 109"><g id="kvg:StrokePaths_085ba" style="fill:none;stroke:#000000;stroke-width:3;stroke-linecap:round;stroke-linejoin:round;"><g id="kvg:085ba" kvg:element="薺"><g id="kvg:085ba-g1" kvg:element="艹" kvg:variant="true" kvg:original="艸" kvg:position="top" kvg:radical="general"><path id="kvg:085ba-s1" kvg:type="㇐" d="M19 20.77c1.69.53 3.67.63 5.36.53 15.58-.96 41.75-3.46 59.71-3.53 2.83-.01 4.52.25 5.93.51"/><path id="kvg:085ba-s2" kvg:type="㇑a" d="M37 11.25c1.33 1.19 1.76 1.56 1.9 2.29C40.24 20.42 40.62 27.5 41 30"/><path id="kvg:085ba-s3" kvg:type="㇑a" d="M68.5 10.5c.33.78.72 1.35.57 2.31-.83 5.61-1.18 8.41-2.19 13.69"/></g><g id="kvg:085ba-g2" kvg:element="齊" kvg:position="bottom"><g id="kvg:085ba-g3" kvg:element="亠" kvg:position="top"><path id="kvg:085ba-s4" kvg:type="㇑a" d="M52.45 24.25c.74.36 1.95 1.75 1.95 2.47.0 2.64-.23 3.85-.1 6.08"/><path id="kvg:085ba-s5" kvg:type="㇐" d="M21.75 34.75c2.06.37 3.87.63 6.25.51 14.49-.72 40.65-2.96 57.11-3.71 2.42-.11 3.66.04 5.47.65"/></g><g id="kvg:085ba-g4" kvg:position="bottom"><path id="kvg:085ba-s6" kvg:type="㇔" d="M45.31 37.91c1.85 1.07 4.78 4.42 5.24 6.09"/><path id="kvg:085ba-s7" kvg:type="㇒" d="M61.81 36.68c.02.2.04.52-.03.8-.4 1.69-2.67 5.41-5.78 7.68"/><path id="kvg:085ba-s8" kvg:type="㇑" d="M53.36 48.27c.43.36.74.79.77 2 .18 5.79-.01 13-.01 14.98"/><g id="kvg:085ba-g5" kvg:element="刀"><path id="kvg:085ba-s9" kvg:type="㇆" d="M20.38 46.19c.57.21 1.79.18 2.29.11 4.08-.58 17.98-2.12 20.24-2.34 1.47-.14 1.95.63 1.8 1.6-.85 5.38-2.61 10.71-5.19 14.8-1.35 2.14-2.93 1.46-3.92-.21"/><path id="kvg:085ba-s10" kvg:type="㇒" d="M32.41 45.75c.03.39.07 1.01-.06 1.57-.95 4.15-4.98 10.02-10.11 15.07"/></g><path id="kvg:085ba-s11" kvg:type="㇒" d="M83.23 36.72c.04.18.09.47-.08.72-.98 1.52-7.45 5.26-15.1 7.31"/><path id="kvg:085ba-s12" kvg:type="㇙" d="M66.62 43.62c.38.52.67 1.22.67 2s-.1 11.8-.1 13.02.1 1.57 1.35.7 7.83-4.75 8.6-5.27"/><path id="kvg:085ba-s13" kvg:type="㇏" d="M75.48 42.42c3.02 4.83 8.27 11.08 12.35 16.09 1.14 1.4 3.28 1.95 5.08 2.64"/><path id="kvg:085ba-s14" kvg:type="㇒" d="M32.85 63.65c.86.48 1.17 1.69 1.17 2.21.0 2.8-.16 11.82-.26 12.9-.56 6.18-2.74 14.57-11.2 19.8"/><g id="kvg:085ba-g6" kvg:element="二"><path id="kvg:085ba-s15" kvg:type="㇐" d="M34.53 71.26c4.68-.48 39.68-2.62 42.99-2.83"/><path id="kvg:085ba-s16" kvg:type="㇐" d="M33.57 81.43c4.22-.11 38.27-2.54 43.9-2.71"/></g><path id="kvg:085ba-s17" kvg:type="㇑" d="M76.08 61.33c.64.47 1.68 2.26 1.68 3.18.0 3.66-.02 33-.09 35.62"/></g></g></g></g><g id="kvg:StrokeNumbers_085ba" style="font-size:8;fill:#808080"><text transform="matrix(1 0 0 1 12.50 20.50)">1</text><text transform="matrix(1 0 0 1 28.50 11.50)">2</text><text transform="matrix(1 0 0 1 59.50 10.50)">3</text><text transform="matrix(1 0 0 1 45.50 27.50)">4</text><text transform="matrix(1 0 0 1 13.50 35.50)">5</text><text transform="matrix(1 0 0 1 39.50 41.50)">6</text><text transform="matrix(1 0 0 1 54.50 41.50)">7</text><text transform="matrix(1 0 0 1 47.50 54.50)">8</text><text transform="matrix(1 0 0 1 12.50 47.50)">9</text><text transform="matrix(1 0 0 1 19.50 54.95)">10</text><text transform="matrix(1 0 0 1 71.50 40.50)">11</text><text transform="matrix(1 0 0 1 58.50 49.50)">12</text><text transform="matrix(1 0 0 1 80.50 48.50)">13</text><text transform="matrix(1 0 0 1 22.50 71.50)">14</text><text transform="matrix(1 0 0 1 38.50 68.50)">15</text><text transform="matrix(1 0 0 1 38.50 78.50)">16</text><text transform="matrix(1 0 0 1 67.50 67.50)">17</text></g></svg>