<svg xmlns="http://www.w3.org/2000/svg" width="109" height="109" viewBox="0 0 109 109"><g id="kvg:StrokePaths_085c9" style="fill:none;stroke:#000000;stroke-width:3;stroke-linecap:round;stroke-linejoin:round;"><g id="kvg:085c9" kvg:element="藉"><g id="kvg:085c9-g1" kvg:element="艹" kvg:variant="true" kvg:original="艸" kvg:position="top" kvg:radical="general"><path id="kvg:085c9-s1" kvg:type="㇐" d="M21 22.77c1.53.53 3.31.63 4.84.53 14.06-.96 43.6-3.46 59.8-3.53 2.55-.01 4.08.25 5.35.51"/><path id="kvg:085c9-s2" kvg:type="㇑a" d="M37.62 12.5c1.51 1.23 1.99 1.61 2.15 2.37 1.51 7.1 1.94 13.55 2.37 16.13"/><path id="kvg:085c9-s3" kvg:type="㇑a" d="M68.25 9.5c1.11.99 1.35 2.5.98 3.95-1.11 4.45-1.85 11.36-3.46 17.05"/></g><g id="kvg:085c9-g2" kvg:position="bottom"><g id="kvg:085c9-g3" kvg:element="耒" kvg:position="left"><g id="kvg:085c9-g4" kvg:element="丿"><path id="kvg:085c9-s4" kvg:type="㇒" d="M45.47 37.63c.08.27-.19 1.28-.66 1.59-5.74 3.82-13.25 7.57-28.33 9.44"/></g><g id="kvg:085c9-g5" kvg:element="未"><path id="kvg:085c9-s5" kvg:type="㇐" d="M18.72 54.69c.51.28 3.94.77 4.46.74 5.31-.32 11.58-1.02 20-2.14.84-.11 2.36.13 2.79.27"/><g id="kvg:085c9-g6" kvg:element="木"><path id="kvg:085c9-s6" kvg:type="㇐" d="M14.09 65.41c.4.19 2.98.57 4.06.57 5.61.0 18.86-1.91 27.99-2.67 1.07-.09 2.02.19 2.7.38"/><path id="kvg:085c9-s7" kvg:type="㇑" d="M32.26 32.5c.65.37 1.17 2.75 1.17 3.52.0 2.96.22 58.1.09 62.73"/><path id="kvg:085c9-s8" kvg:type="㇒" d="M33.28 65.97c-3.49 7.4-12.53 18.61-19.79 22.8"/><path id="kvg:085c9-s9" kvg:type="㇔/㇏" d="M36.5 69.54c4.29 2.43 7.43 6.2 10 10.4"/></g></g></g><g id="kvg:085c9-g7" kvg:element="昔" kvg:position="right"><g id="kvg:085c9-g8" kvg:position="top"><g id="kvg:085c9-g9" kvg:element="廾" kvg:variant="true"><g id="kvg:085c9-g10" kvg:element="十" kvg:part="1"><path id="kvg:085c9-s10" kvg:type="㇐" d="M55.38 45.78c.91.45 2.57.51 3.49.45 6.39-.47 22.67-1.95 29.89-2.09 1.51-.03 2.42.21 3.18.44"/></g><g id="kvg:085c9-g11" kvg:element="丿" kvg:variant="true"><path id="kvg:085c9-s11" kvg:type="㇑" d="M63.2 35.09c.8.44 1.28 2 1.44 2.89s.81 12.46 1.36 20.91"/></g><g id="kvg:085c9-g12" kvg:element="十" kvg:part="2"><path id="kvg:085c9-s12" kvg:type="㇑" d="M80.34 31c.8.45 1.28 2 1.44 2.89s-1.08 15.1-2.19 24.22"/></g></g><path id="kvg:085c9-s13" kvg:type="㇐" d="M52.72 59.09c1.24.53 3.49.62 4.74.53 9.05-.62 21.3-1.37 36-2.6 2.05-.17 3.3.25 4.33.52"/></g><g id="kvg:085c9-g13" kvg:element="日" kvg:position="bottom"><path id="kvg:085c9-s14" kvg:type="㇑" d="M59.08 68.68c.36.66 1.13 1.78 1.13 2.66s2 20.04 2 25.91"/><path id="kvg:085c9-s15" kvg:type="㇕a" d="M60.81 70.01c2.05-.11 22.79-2.31 24.66-2.44 1.56-.11 2.56 1.22 2.44 1.87-.24 1.32-1.48 26.25-1.48 26.9"/><path id="kvg:085c9-s16" kvg:type="㇐a" d="M61.18 81.91c2.78.0 22.27-2 25.41-2"/><path id="kvg:085c9-s17" kvg:type="㇐a" d="M63.05 94.28c5.65-.47 16.49-.94 23.53-1.35"/></g></g></g></g></g></svg>