<svg xmlns="http://www.w3.org/2000/svg" width="109" height="109" viewBox="0 0 109 109"><g id="kvg:StrokePaths_085d0"><g id="kvg:085d0" kvg:element="藐"><g id="kvg:085d0-g1" kvg:element="艹" kvg:variant="true" kvg:original="艸" kvg:position="top" kvg:radical="general"><path id="kvg:085d0-s1" kvg:type="㇐" d="M17.5 21.39c1.71.41 3.71.49 5.43.41 15.75-.75 42.92-3.49 61.08-3.54 2.86-.01 4.57.2 6 .4"/><path id="kvg:085d0-s2" kvg:type="㇑a" d="M37.75 10.5c1.58 1.13 2.09 1.48 2.26 2.17 1.58 6.52 2.04 12.45 2.49 14.83"/><path id="kvg:085d0-s3" kvg:type="㇑a" d="M66.58 10c.9.8 1.5 2.02 1.2 3.2-.9 3.6-1.5 9.59-2.8 14.19"/></g><g id="kvg:085d0-g2" kvg:element="貌" kvg:position="bottom"><g id="kvg:085d0-g3" kvg:element="豸" kvg:position="left"><path id="kvg:085d0-s4" kvg:type="㇒" d="M37.62 28.96c.06.37.24 1.07-.12 1.49-4.45 5.24-11.02 10.05-22.6 14.27"/><path id="kvg:085d0-s5" kvg:type="㇔" d="M18.75 46.42c1.78 1.33 4.59 5.49 5.04 7.57"/><path id="kvg:085d0-s6" kvg:type="㇔" d="M29.7 40.26c1.88.98 4.84 4.03 5.31 5.56"/><path id="kvg:085d0-s7" kvg:type="㇒" d="M43.49 40.03c.07.9-.16 1.94-.64 2.5-6.37 7.53-13.94 13.19-27.27 19.36"/><path id="kvg:085d0-s8" kvg:type="㇁" d="M32.1 54.72c8.62 6.05 13.06 23.87 6.62 38.76-3.76 8.69-7.5.8-8.47.04"/><path id="kvg:085d0-s9" kvg:type="㇒" d="M34.14 59.7c.05.35.1.9-.1 1.4-1.18 2.95-7.97 9.44-17.25 13.41"/><path id="kvg:085d0-s10" kvg:type="㇒" d="M37.84 68.31c.06.52.27 1.4-.13 2.07-2.94 4.97-10.91 13.29-22.25 19.85"/></g><g id="kvg:085d0-g4" kvg:element="皃" kvg:position="right"><g id="kvg:085d0-g5" kvg:element="白" kvg:position="top"><g id="kvg:085d0-g6" kvg:position="top"><path id="kvg:085d0-s11" kvg:type="㇔" d="M69.42 27.75c.26.42.12 1.68.0 2.02-.86 2.54-3.31 6.57-6.21 9.46"/></g><g id="kvg:085d0-g7" kvg:element="日" kvg:position="bottom"><path id="kvg:085d0-s12" kvg:type="㇑" d="M51.83 40.35c.53.61.98 1.71 1.08 2.51.35 3.06 2.84 18.65 3.06 22.64"/><path id="kvg:085d0-s13" kvg:type="㇕a" d="M53.22 41.78c3.03-.1 27.69-3.2 30.45-3.36 2.83-.17 4.58 1.58 4.46 3.94-.14 2.79-2.99 15.28-4.18 21.73"/><path id="kvg:085d0-s14" kvg:type="㇐a" d="M54.59 52.11c6.35-.31 26.4-2.29 31.03-2.29"/><path id="kvg:085d0-s15" kvg:type="㇐a" d="M56.28 63.55c7.6-.33 19.99-1.89 28.09-2.04"/></g></g><g id="kvg:085d0-g8" kvg:element="儿" kvg:position="bottom"><g id="kvg:085d0-g9" kvg:element="八" kvg:variant="true"><g id="kvg:085d0-g10" kvg:element="丿" kvg:position="left"><path id="kvg:085d0-s16" kvg:type="㇒" d="M61.45 66.91c.05.76.02 1.97-.1 3.08C60.5 78 55.5 93.75 44.22 99.42"/></g><g id="kvg:085d0-g11" kvg:position="right"><path id="kvg:085d0-s17" kvg:type="㇟" d="M71.8 64.96c.51 1.04.91 2.27.94 3.88.14 7.17.0 15.41.0 20.28.0 8.63 1.27 9.16 11.52 9.16 8.75.0 9.88-1.83 9.88-8.05"/></g></g></g></g></g></g></g></svg>