<!DOCTYPE svg PUBLIC "-//W3C//DTD SVG 1.0//EN" "http://www.w3.org/TR/2001/REC-SVG-20010904/DTD/svg10.dtd" [
<!ATTLIST g
xmlns:kvg CDATA #FIXED "http://kanjivg.tagaini.net"
kvg:element CDATA #IMPLIED
kvg:variant CDATA #IMPLIED
kvg:partial CDATA #IMPLIED
kvg:original CDATA #IMPLIED
kvg:part CDATA #IMPLIED
kvg:number CDATA #IMPLIED
kvg:tradForm CDATA #IMPLIED
kvg:radicalForm CDATA #IMPLIED
kvg:position CDATA #IMPLIED
kvg:radical CDATA #IMPLIED
kvg:phon CDATA #IMPLIED >
<!ATTLIST path
xmlns:kvg CDATA #FIXED "http://kanjivg.tagaini.net"
kvg:type CDATA #IMPLIED >
]><svg xmlns="http://www.w3.org/2000/svg" width="109" height="109" viewBox="0 0 109 109"><g id="kvg:StrokePaths_085dc" style="fill:none;stroke:#000000;stroke-width:3;stroke-linecap:round;stroke-linejoin:round;"><g id="kvg:085dc" kvg:element="藜"><g id="kvg:085dc-g1" kvg:element="艹" kvg:variant="true" kvg:original="艸" kvg:position="top" kvg:radical="general"><path id="kvg:085dc-s1" kvg:type="㇐" d="M18.5 20.08c1.71.7 3.7.81 5.42.7C36 20 66.11 16.86 84.26 16.77c2.85-.02 4.57.33 5.99.68"/><path id="kvg:085dc-s2" kvg:type="㇑a" d="M37.48 11c1.26 1.03 1.67 1.35 1.8 1.98 1.26 5.95 1.62 11.35 1.98 13.52"/><path id="kvg:085dc-s3" kvg:type="㇑a" d="M67.27 9c.88.78 1.46 1.97 1.17 3.13-.88 3.52-1.47 9.38-2.74 13.87"/></g><g id="kvg:085dc-g2" kvg:element="黎" kvg:position="bottom"><g id="kvg:085dc-g3" kvg:position="top"><g id="kvg:085dc-g4" kvg:position="left"><g id="kvg:085dc-g5" kvg:element="黍" kvg:part="1"><g id="kvg:085dc-g6" kvg:element="禾" kvg:position="top"><g id="kvg:085dc-g7" kvg:element="丿" kvg:position="top"><path id="kvg:085dc-s4" kvg:type="㇒" d="M47.88 27.9c.06.2.13.52-.13.8-1.53 1.7-10.29 5.41-22.28 7.69"/></g><g id="kvg:085dc-g8" kvg:element="木" kvg:position="bottom"><path id="kvg:085dc-s5" kvg:type="㇐" d="M17.12 42.74c.33.08 3.65.26 4.53.23 6.1-.22 18.85-2.2 25.77-2.73.88-.07 1.98.09 2.53.17"/><path id="kvg:085dc-s6" kvg:type="㇑" d="M37.36 35.43c.29.39.85 1.36.9 2.14.05.62-.37 15.33-.43 20.66"/><path id="kvg:085dc-s7" kvg:type="㇒" d="M36.54 41.56c-3.45 4.58-9.46 11.29-17.04 13.99"/><path id="kvg:085dc-s8" kvg:type="㇔" d="M40.5 44.65c2.78 1.7 4.32 3.4 5.25 5.78"/></g></g></g><g id="kvg:085dc-g9" kvg:position="right"><g id="kvg:085dc-g10" kvg:element="勹"><g id="kvg:085dc-g11" kvg:element="丿"><path id="kvg:085dc-s9" kvg:type="㇒" d="M61.93 28.01c.02.33.05.84-.04 1.31-.54 2.76-3.64 8.82-7.89 12.53"/></g><path id="kvg:085dc-s10" kvg:type="㇆" d="M61.95 34.52c.6.29 2.44.38 3.4.19C66.3 34.52 82.7 32.09 85.1 32c2.4-.1 2.71.94 2.52 2.97-.37 3.9-1.62 10.79-5.16 17.3-1.09 2-3.92 1.22-5.34.02"/></g><g id="kvg:085dc-g12" kvg:element="丿"><path id="kvg:085dc-s11" kvg:type="㇒" d="M71.78 34.99c.02.34.05.88-.05 1.37-.56 2.89-3.77 9.25-8.17 13.14"/></g></g></g></g><g id="kvg:085dc-g13" kvg:position="bottom"><g id="kvg:085dc-g14" kvg:element="黍" kvg:part="2"><path id="kvg:085dc-s12" kvg:type="㇒" d="M53.75 46.93c.11.7-.07 1.99-.7 2.82-5.07 6.7-17.34 20.21-37.55 26.97"/><path id="kvg:085dc-s13" kvg:type="㇏" d="M54.5 49.74c5.17 4.2 27.44 17.91 33.15 20.98 1.94 1.04 4.42 1.49 6.35 1.79"/><g id="kvg:085dc-g15" kvg:element="氺" kvg:variant="true" kvg:original="水" kvg:position="bottom"><path id="kvg:085dc-s14" kvg:type="㇚" d="M54.59 60.72c.07.32 1.49 1.67 1.49 3.71.0 12.2-.2 25.87-.2 29.2.0 7.08-5.7 1.01-6.88.17"/><path id="kvg:085dc-s15" kvg:type="㇔" d="M36 71.02c3.88 1.28 10.03 5.25 11 7.23"/><path id="kvg:085dc-s16" kvg:type="㇀" d="M27.5 92.36c1.25.64 2.11 1.52 4.08.61 1.16-.54 12-5.34 16.92-7.93"/><path id="kvg:085dc-s17" kvg:type="㇒" d="M72.03 67.49c.03.21.05.55-.05.86-.58 1.83-3.89 5.83-8.42 8.28"/><path id="kvg:085dc-s18" kvg:type="㇔" d="M63.75 81.25C68 82.7 79.62 89.69 83.32 95.13"/></g></g></g></g></g></g><g id="kvg:StrokeNumbers_085dc" style="font-size:8;fill:#808080"><text transform="matrix(1 0 0 1 11.50 20.50)">1</text><text transform="matrix(1 0 0 1 28.66 11.85)">2</text><text transform="matrix(1 0 0 1 58.50 9.50)">3</text><text transform="matrix(1 0 0 1 34.50 30.50)">4</text><text transform="matrix(1 0 0 1 11.25 44.83)">5</text><text transform="matrix(1 0 0 1 30.50 41.50)">6</text><text transform="matrix(1 0 0 1 22.25 51.50)">7</text><text transform="matrix(1 0 0 1 45.50 47.60)">8</text><text transform="matrix(1 0 0 1 53.50 28.50)">9</text><text transform="matrix(1 0 0 1 67.50 31.50)">10</text><text transform="matrix(1 0 0 1 61.50 42.50)">11</text><text transform="matrix(1 0 0 1 28.50 63.50)">12</text><text transform="matrix(1 0 0 1 65.50 55.50)">13</text><text transform="matrix(1 0 0 1 45.50 67.50)">14</text><text transform="matrix(1 0 0 1 30.25 79.08)">15</text><text transform="matrix(1 0 0 1 23.50 87.50)">16</text><text transform="matrix(1 0 0 1 63.50 68.50)">17</text><text transform="matrix(1 0 0 1 60.50 90.50)">18</text></g></svg>