<svg xmlns="http://www.w3.org/2000/svg" width="109" height="109" viewBox="0 0 109 109"><g id="kvg:StrokePaths_085e4"><g id="kvg:085e4" kvg:element="藤"><g id="kvg:085e4-g1" kvg:element="艹" kvg:variant="true" kvg:original="艸" kvg:position="top" kvg:radical="general"><path id="kvg:085e4-s1" kvg:type="㇐" d="M18.25 21.94c2.77.97 6.91.36 9.76.02 13.99-1.71 35.12-3.61 48.73-4.31 3.43-.18 6.83.05 10.17.76"/><path id="kvg:085e4-s2" kvg:type="㇑a" d="M35.44 11.2c.93.93 1.38 1.84 1.49 2.61 1.07 8.06 1.74 11.44 1.98 14.44"/><path id="kvg:085e4-s3" kvg:type="㇑a" d="M64.75 8.67c.42 1.01.77 1.7.5 3-1.25 5.96-1.75 8.46-3.22 13.8"/></g><g id="kvg:085e4-g2" kvg:element="滕" kvg:variant="true" kvg:position="bottom"><g id="kvg:085e4-g3" kvg:element="月" kvg:position="left"><path id="kvg:085e4-s4" kvg:type="㇓" d="M18.94 39.55c.94.94.94 1.83.97 3.37.46 23.83-.79 41.96-8.16 53.47"/><path id="kvg:085e4-s5" kvg:type="㇆a" d="M20.64 40.46c1.45-.05 10.53-2.48 11.61-2.58 1.93-.19 3.25 1.5 3.25 4 0 4.37.05 40.62.05 50.01.0 9.49-5.27 1.79-6.51.51"/><path id="kvg:085e4-s6" kvg:type="㇐a" d="M21.14 55.55c4.95-.66 8.99-1.55 13.33-1.99"/><path id="kvg:085e4-s7" kvg:type="㇐a" d="M20.5 70.95c5.13-.7 8.42-1.18 13.97-1.53"/></g><g id="kvg:085e4-g4" kvg:element="劵" kvg:variant="true" kvg:position="right"><g id="kvg:085e4-g5" kvg:position="top"><path id="kvg:085e4-s8" kvg:type="㇔" d="M47.81 35.25c2.25 1.21 5.81 4.96 6.37 6.84"/><path id="kvg:085e4-s9" kvg:type="㇒" d="M78.17 31.42c.02.23.04.6-.04.93-.5 1.96-2 4.65-6.02 8.88"/><g id="kvg:085e4-g6" kvg:element="二"><g id="kvg:085e4-g7" kvg:position="top"><path id="kvg:085e4-s10" kvg:type="㇐" d="M47.54 48.91c1.95.61 4.13.28 6.1.03 5.42-.67 13.57-2.08 19.74-2.7 2.35-.24 4.65-.42 6.98.02"/></g><g id="kvg:085e4-g8" kvg:position="bottom"><path id="kvg:085e4-s11" kvg:type="㇐" d="M41.23 59.33c2.59.81 6.03.59 8.65.15 9.5-1.6 24.01-3.09 32.5-3.79 2.82-.23 5.77-.46 8.57.07"/></g></g><g id="kvg:085e4-g9" kvg:element="人"><path id="kvg:085e4-s12" kvg:type="㇒" d="M63.57 32.5c.43 1.25.68 2.62.38 4.05-2.33 11.08-7.58 30.2-22.22 38.48"/><path id="kvg:085e4-s13" kvg:type="㇏" d="M66.67 51.48C69.35 51.6 80.75 63 87.9 68.5c2.05 1.57 3.97 2.88 6.6 3.95"/></g></g><g id="kvg:085e4-g10" kvg:element="氺" kvg:variant="true" kvg:original="水" kvg:position="bottom"><path id="kvg:085e4-s14" kvg:type="㇚" d="M63.5 66.33c.9.89 1.2 2.17 1.2 3.91.0 5.01-.07 21.4-.07 25.13.0 7.94-4.8 2.22-5.93 1.27"/><path id="kvg:085e4-s15" kvg:type="㇔" d="M49.36 75.68c2 .93 5.16 3.83 5.65 5.28"/><path id="kvg:085e4-s16" kvg:type="㇀" d="M45.1 93.39c1.25 1.15 2.3 1.15 3.55.16.74-.58 6.19-5.01 9.32-7.81"/><path id="kvg:085e4-s17" kvg:type="㇒" d="M77.95 70.71c.06.74-.12 1.42-.53 2.05-.86 1.58-2.68 3.53-6.04 6.55"/><path id="kvg:085e4-s18" kvg:type="㇔/㇏" d="M71.01 84.98C75.32 87.04 82.7 92.1 85.51 96"/></g></g></g></g></g></svg>