<svg xmlns="http://www.w3.org/2000/svg" width="109" height="109" viewBox="0 0 109 109"><g id="kvg:StrokePaths_085ea" style="fill:none;stroke:#000000;stroke-width:3;stroke-linecap:round;stroke-linejoin:round;"><g id="kvg:085ea" kvg:element="藪"><g id="kvg:085ea-g1" kvg:element="艹" kvg:variant="true" kvg:original="艸" kvg:position="top" kvg:radical="general"><path id="kvg:085ea-s1" kvg:type="㇐" d="M21.5 22.04c1.65.67 3.57.8 5.23.67 15.18-1.23 38.5-3.28 55.99-3.37 2.75-.01 4.4.32 5.78.66"/><path id="kvg:085ea-s2" kvg:type="㇑a" d="M39.09 12c1.3 1.07 1.72 1.39 1.86 2.05C42.26 20.19 42.63 25.77 43 28"/><path id="kvg:085ea-s3" kvg:type="㇑a" d="M65.21 10.5c.9.8 1.5 2.03 1.21 3.22-.91 3.62-1.51 9.66-2.82 14.28"/></g><g id="kvg:085ea-g2" kvg:element="數" kvg:position="bottom"><g id="kvg:085ea-g3" kvg:element="婁" kvg:position="left"><g id="kvg:085ea-g4" kvg:position="top"><g id="kvg:085ea-g5" kvg:element="串" kvg:part="1"><g id="kvg:085ea-g6" kvg:element="口" kvg:part="2"><path id="kvg:085ea-s4" kvg:type="㇑" d="M22.16 34.61c.27.22.77 1.16.86 1.97.59 5.34 2.5 10.86 3.02 14.38"/><path id="kvg:085ea-s5" kvg:type="㇕" d="M23.14 35.67c7.18-.84 19.88-2.32 25.55-3.05 1.81-.23 2.85 1.2 2.61 2.81-.92 6.39-1.41 9.74-2.49 13.68"/></g></g><path id="kvg:085ea-s6" kvg:type="㇐" d="M13.31 42.28c.84.43 2.87.5 3.71.43 8.81-.78 27.23-2.21 37.59-2.94 1.39-.1 2.23.2 2.93.42"/><g id="kvg:085ea-g7" kvg:element="串" kvg:part="2"><g id="kvg:085ea-g8" kvg:element="口" kvg:part="2"><path id="kvg:085ea-s7" kvg:type="㇐" d="M26.75 49.42c4.34-.39 17.58-1.38 21.93-1.58"/></g><g id="kvg:085ea-g9" kvg:element="中"><g id="kvg:085ea-g10" kvg:element="口"><path id="kvg:085ea-s8" kvg:type="㇑" d="M21.89 55.71c.54.41.85 1.37 1.12 2.04.75 1.92 1.79 5.91 2.17 8.59"/><path id="kvg:085ea-s9" kvg:type="㇕b" d="M23.18 57.36c6.81-.73 20.14-2.32 25.52-2.95 1.72-.2 2.29.33 2.04 2.05-.2 1.35-1.23 3.5-1.65 5.47"/><path id="kvg:085ea-s10" kvg:type="㇐b" d="M25.01 64.8c1.84-.2 22.61-1.77 24.98-1.97"/></g><g id="kvg:085ea-g11" kvg:element="丨"><path id="kvg:085ea-s11" kvg:type="㇑" d="M36.05 27.73c.57.39.92 1.77 1.03 2.56s0 28.59-.11 33.52"/></g></g></g></g><g id="kvg:085ea-g12" kvg:element="女" kvg:position="bottom"><path id="kvg:085ea-s12" kvg:type="㇛" d="M34.14 66.51c.26.75.08 1.69-.13 2.62-1.03 4.55-5.94 10-9.23 15.22-.72 1.14-.15 1.34.39 1.37 10.08.53 17.08 4.78 21.1 10.4"/><path id="kvg:085ea-s13" kvg:type="㇒" d="M45.88 69.82c.08.65.25 2.28-.16 3.19-3.54 7.91-8.79 18.5-25.58 24.24"/><path id="kvg:085ea-s14" kvg:type="㇀/㇐" d="M15.63 75.07c1.07.84 2.21 1.34 2.72 1.29 10.4-1.15 24.36-3.99 36.33-5.32"/></g></g><g id="kvg:085ea-g13" kvg:element="攵" kvg:variant="true" kvg:original="攴" kvg:position="right"><g id="kvg:085ea-g14" kvg:element="𠂉" kvg:position="top"><path id="kvg:085ea-s15" kvg:type="㇒" d="M70.35 29.89c.04.66.22 1.73-.07 2.63-1.85 5.79-6.88 18.9-13.29 26.91"/><path id="kvg:085ea-s16" kvg:type="㇐" d="M67.22 49.36c.03-.15 1.76.0 2.38-.04 6.46-.43 11.35-1.99 21.22-2.68 1.11-.08 1.79-.02 2.08.07"/></g><g id="kvg:085ea-g15" kvg:element="乂" kvg:position="bottom"><g id="kvg:085ea-g16" kvg:element="丿"><path id="kvg:085ea-s17" kvg:type="㇒" d="M79.9 51.74c.45 1.11.7 1.9.23 3.93-4.3 18.43-14.11 34.89-28.26 41.28"/></g><path id="kvg:085ea-s18" kvg:type="㇏" d="M60 61.74c3 2.01 19.49 23.3 27.58 31.51 1.72 1.75 2.95 3 4.92 4.25"/></g></g></g></g></g></svg>