<svg xmlns="http://www.w3.org/2000/svg" width="109" height="109" viewBox="0 0 109 109"><g id="kvg:StrokePaths_085fb" style="fill:none;stroke:#000000;stroke-width:3;stroke-linecap:round;stroke-linejoin:round;"><g id="kvg:085fb" kvg:element="藻"><g id="kvg:085fb-g1" kvg:element="艹" kvg:variant="true" kvg:original="艸" kvg:position="top" kvg:radical="general"><path id="kvg:085fb-s1" kvg:type="㇐" d="M18.5 24.27c2.38.94 5.39.63 7.86.34 14.51-1.67 41.58-4.07 56.14-4.52 2.85-.09 5.7-.22 8.5.44"/><path id="kvg:085fb-s2" kvg:type="㇑a" d="M38.75 12.75c1 1 1.56 1.99 1.75 3.5.75 6 1.25 9.75 1.75 14.75"/><path id="kvg:085fb-s3" kvg:type="㇑a" d="M68.56 11.25c.32 1.15.39 2 .11 3.17-1.39 5.6-2.08 8.61-3.66 14.08"/></g><g id="kvg:085fb-g2" kvg:element="澡" kvg:position="bottom" kvg:phon="澡"><g id="kvg:085fb-g3" kvg:element="氵" kvg:variant="true" kvg:original="水" kvg:position="left"><path id="kvg:085fb-s4" kvg:type="㇔" d="M22.75 37.12c3.28 1.46 8.46 6.01 9.29 8.29"/><path id="kvg:085fb-s5" kvg:type="㇔" d="M16.2 54.98c3.47 1.27 8.95 5.24 9.82 7.22"/><path id="kvg:085fb-s6" kvg:type="㇀" d="M17.75 91.11c1.39 1.08 3.07.63 3.95-.71 2.55-3.89 5.11-8.65 7.43-13.61"/></g><g id="kvg:085fb-g4" kvg:element="喿" kvg:position="right"><g id="kvg:085fb-g5" kvg:element="品" kvg:position="top"><g id="kvg:085fb-g6" kvg:element="口" kvg:position="top"><path id="kvg:085fb-s7" kvg:type="㇑" d="M50.86 34.99c.68.33 1.09.86 1.26 1.59.72 1.89 1.33 4.73 1.89 7.62.22 1.13.43 2.23.63 3.22"/><path id="kvg:085fb-s8" kvg:type="㇕b" d="M52.97 35.81c8.15-.94 15.5-1.79 19.56-2.08 2.07-.15 2.54 1.08 2.01 2.62-.73 2.1-1.19 3.33-2.3 6.36"/><path id="kvg:085fb-s9" kvg:type="㇐b" d="M55.34 45.83c3.98-.27 9.23-1.17 14.67-1.75 1.06-.11 2.13-.22 3.2-.3"/></g><g id="kvg:085fb-g7" kvg:position="bottom"><g id="kvg:085fb-g8" kvg:element="口" kvg:position="left"><path id="kvg:085fb-s10" kvg:type="㇑" d="M40.37 53.68c.6.41.95.98 1.06 1.72.69 1.99 1.36 5.4 2.01 8.31.23 1.04.43 2.02.57 2.85"/><path id="kvg:085fb-s11" kvg:type="㇕b" d="M42.17 54.66c5.67-.64 10.59-1.5 13.73-1.82 1.91-.2 3.35.05 2.74 2.29-.6 2.19-1.04 4.34-1.88 7.16"/><path id="kvg:085fb-s12" kvg:type="㇐b" d="M45.14 64.67c2.88-.24 5.05-.84 9.85-1.29 1.17-.11 2.4-.21 3.7-.3"/></g><g id="kvg:085fb-g9" kvg:element="口" kvg:position="right"><path id="kvg:085fb-s13" kvg:type="㇑" d="M68.94 51.18c.69.69 1.06 1.58 1.24 2.43.57 2.64.8 4.43 1.25 7.12.18 1.06.35 2.06.52 2.94"/><path id="kvg:085fb-s14" kvg:type="㇕b" d="M70.59 52.1c5.41-1 11.01-1.78 14.53-2.11 2.01-.19 3.48.34 2.75 2.68-.7 2.23-1.25 4.46-2.24 7.3"/><path id="kvg:085fb-s15" kvg:type="㇐b" d="M73.42 61.84c2.58-.34 4.51-.62 10.84-.95.85-.04 1.8-.09 2.88-.13"/></g></g></g><g id="kvg:085fb-g10" kvg:element="木" kvg:position="bottom"><path id="kvg:085fb-s16" kvg:type="㇐" d="M38.15 74.59c2.72.54 5.3.27 7.75.0 12.98-1.46 27.61-2.71 39.11-3.87 2.73-.28 5.08-.31 7.75.43"/><path id="kvg:085fb-s17" kvg:type="㇑" d="M64.23 62.87c.89.89 1.19 1.76 1.19 3.01.0 6.35.12 20.08.04 28.13-.02 2.2-.05 3.96-.08 5"/><path id="kvg:085fb-s18" kvg:type="㇒" d="M62.93 73.17c0 1.33-1.19 2.46-2.47 3.79-6.22 6.51-16.88 14.31-25.47 17.55"/><path id="kvg:085fb-s19" kvg:type="㇏" d="M66.88 73.75c4.89 4.61 14.2 12.24 21.09 16.55 1.96 1.23 3.78 2.2 6.16 3.07"/></g></g></g></g></g></svg>