<!DOCTYPE svg PUBLIC "-//W3C//DTD SVG 1.0//EN" "http://www.w3.org/TR/2001/REC-SVG-20010904/DTD/svg10.dtd" [
<!ATTLIST g
xmlns:kvg CDATA #FIXED "http://kanjivg.tagaini.net"
kvg:element CDATA #IMPLIED
kvg:variant CDATA #IMPLIED
kvg:partial CDATA #IMPLIED
kvg:original CDATA #IMPLIED
kvg:part CDATA #IMPLIED
kvg:number CDATA #IMPLIED
kvg:tradForm CDATA #IMPLIED
kvg:radicalForm CDATA #IMPLIED
kvg:position CDATA #IMPLIED
kvg:radical CDATA #IMPLIED
kvg:phon CDATA #IMPLIED >
<!ATTLIST path
xmlns:kvg CDATA #FIXED "http://kanjivg.tagaini.net"
kvg:type CDATA #IMPLIED >
]><svg xmlns="http://www.w3.org/2000/svg" width="109" height="109" viewBox="0 0 109 109"><g id="kvg:StrokePaths_085fa" style="fill:none;stroke:#000000;stroke-width:3;stroke-linecap:round;stroke-linejoin:round;"><g id="kvg:085fa" kvg:element="藺"><g id="kvg:085fa-g1" kvg:element="艹" kvg:variant="true" kvg:original="艸" kvg:position="top" kvg:radical="general"><path id="kvg:085fa-s1" kvg:type="㇐" d="M17.5 21.32c1.78.72 3.85.87 5.63.72 16.34-1.32 43.81-4.44 62.65-4.54 2.96-.02 4.74.34 6.22.71"/><path id="kvg:085fa-s2" kvg:type="㇑a" d="M37.59 11c1.3 1.07 1.72 1.39 1.86 2.05 1.3 6.14 1.67 11.72 2.05 13.95"/><path id="kvg:085fa-s3" kvg:type="㇑a" d="M65.79 8.75c.89.79.98 2 .69 3.17C65.59 15.49 65 21.44 63.71 26"/></g><g id="kvg:085fa-g2" kvg:position="bottom"><g id="kvg:085fa-g3" kvg:position="kamae"><g id="kvg:085fa-g4" kvg:element="門"><g id="kvg:085fa-g5" kvg:position="left"><path id="kvg:085fa-s4" kvg:type="㇑" d="M19.58 33.18c.7.38 1.68 2.87 1.82 3.64s-.09 56.81-.23 61.6"/><path id="kvg:085fa-s5" kvg:type="㇕a" d="M21.59 34.91c2.32-.08 18.38-2.72 20.49-2.81 1.76-.08 2.68.72 2.76 1.36.13.98-1.47 17.7-1.47 18.18"/><path id="kvg:085fa-s6" kvg:type="㇐a" d="M22 42.98c5.71-.47 15.85-1.68 21.34-2.19"/><path id="kvg:085fa-s7" kvg:type="㇐a" d="M21.59 52.47c7.73-.91 13.72-1.61 20.56-2.03"/></g><g id="kvg:085fa-g6" kvg:position="right"><path id="kvg:085fa-s8" kvg:type="㇑" d="M62.81 31.04c.42.52.84 1.64.84 2.34.0.7-.14 16.88.0 17.57"/><path id="kvg:085fa-s9" kvg:type="㇆a" d="M64.36 32.98c2.38-.09 18.97-1.89 21.13-1.99 1.81-.09 2.84.95 2.83 1.48-.47 16.06-.48 48.07-.47 59.72.0 9.53-4.03 4.68-7.94 1.47"/><path id="kvg:085fa-s10" kvg:type="㇐a" d="M64.78 40.6c3.22.0 18.37-1.65 22.01-1.65"/><path id="kvg:085fa-s11" kvg:type="㇐a" d="M64.36 48.99c4.76.0 15.99-1.47 22.15-1.47"/></g></g><g id="kvg:085fa-g7" kvg:element="隹"><g id="kvg:085fa-g8" kvg:element="亻" kvg:variant="true" kvg:original="人"><path id="kvg:085fa-s12" kvg:type="㇒" d="M43.49 56.25c.13.82-.04 1.89-.45 2.59-2.62 4.46-5.95 8.24-11.96 13.67"/><path id="kvg:085fa-s13" kvg:type="㇑" d="M38.93 64.73c.56.47 1 1.52 1.03 2.25.33 6.55-.46 25.86-.18 29.27"/></g><path id="kvg:085fa-s14" kvg:type="㇒" d="M59.15 52.75c.05.52-.01 1.21-.17 1.66-.99 2.86-2.24 5.06-4.51 8.54"/><path id="kvg:085fa-s15" kvg:type="㇐b" d="M39.8 65.37c6.54-.62 30.92-3.41 33.72-3.75"/><path id="kvg:085fa-s16" kvg:type="㇑a" d="M56.1 66.01c.44.34.79.79.79 1.37.0 6.59.02 14.19-.22 22.78"/><path id="kvg:085fa-s17" kvg:type="㇐b" d="M40.68 73.93c6.17-.51 28.1-3 30.75-3.28"/><path id="kvg:085fa-s18" kvg:type="㇐b" d="M39.93 82.06c6.51-.43 28.08-2.81 30.87-3.04"/><path id="kvg:085fa-s19" kvg:type="㇐b" d="M39.93 91.59c6.54-.62 31.69-2.3 34.49-2.63"/></g></g></g></g></g><g id="kvg:StrokeNumbers_085fa" style="font-size:8;fill:#808080"><text transform="matrix(1 0 0 1 11.50 20.50)">1</text><text transform="matrix(1 0 0 1 28.66 10.50)">2</text><text transform="matrix(1 0 0 1 57.50 8.50)">3</text><text transform="matrix(1 0 0 1 13.25 40.50)">4</text><text transform="matrix(1 0 0 1 22.50 31.50)">5</text><text transform="matrix(1 0 0 1 26.46 41.50)">6</text><text transform="matrix(1 0 0 1 26.50 49.50)">7</text><text transform="matrix(1 0 0 1 56.25 38.50)">8</text><text transform="matrix(1 0 0 1 67.50 29.50)">9</text><text transform="matrix(1 0 0 1 67.27 38.50)">10</text><text transform="matrix(1 0 0 1 67.50 46.88)">11</text><text transform="matrix(1 0 0 1 33.50 58.50)">12</text><text transform="matrix(1 0 0 1 30.50 80.50)">13</text><text transform="matrix(1 0 0 1 49.25 53.50)">14</text><text transform="matrix(1 0 0 1 43.5 62.5)">15</text><text transform="matrix(1 0 0 1 59.50 69.50)">16</text><text transform="matrix(1 0 0 1 44.25 71.50)">17</text><text transform="matrix(1 0 0 1 44.50 79.50)">18</text><text transform="matrix(1 0 0 1 44.50 88.50)">19</text></g></svg>