<svg xmlns="http://www.w3.org/2000/svg" width="109" height="109" viewBox="0 0 109 109"><g id="kvg:StrokePaths_085fe"><g id="kvg:085fe" kvg:element="藾"><g id="kvg:085fe-g1" kvg:element="艹" kvg:variant="true" kvg:original="艸" kvg:position="top" kvg:radical="general"><path id="kvg:085fe-s1" kvg:type="㇐" d="M21.5 21.71c1.76.72 3.81.86 5.58.72 16.19-1.31 37.6-4.21 56.26-4.31 2.94-.02 4.7.34 6.16.7"/><path id="kvg:085fe-s2" kvg:type="㇑a" d="M37.67 11.25c1.45 1.18 1.91 1.54 2.06 2.27 1.45 6.81 1.86 13 2.27 15.48"/><path id="kvg:085fe-s3" kvg:type="㇑a" d="M66.75 10c.88.78 1.46 1.97 1.17 3.13-.88 3.52-2.46 9.38-3.74 13.87"/></g><g id="kvg:085fe-g2" kvg:element="頼" kvg:position="bottom"><g id="kvg:085fe-g3" kvg:element="束" kvg:position="left"><g id="kvg:085fe-g4" kvg:element="木" kvg:part="1"><path id="kvg:085fe-s4" kvg:type="㇐" d="M18.45 41.26c.65.28 2.92.75 3.57.71 5.46-.38 18.38-2.36 24.24-2.62 1.08-.05 2.81.13 3.35.27"/></g><g id="kvg:085fe-g5" kvg:element="口"><path id="kvg:085fe-s5" kvg:type="㇑" d="M17.61 50.54c.26.3.53.55.64.93.9 2.98 2.49 9.81 3.11 15.17"/><path id="kvg:085fe-s6" kvg:type="㇕b" d="M18.74 51.67c7.82-1.29 25.69-3.26 28.75-3.56 1.9-.19 3.11 1.93 2.6 3.66-1.35 4.63-1.68 6.67-2.74 10.21"/><path id="kvg:085fe-s7" kvg:type="㇐b" d="M21.49 64.88c9.39-.74 20.43-2.37 27.48-2.93"/></g><g id="kvg:085fe-g6" kvg:element="木" kvg:part="2"><path id="kvg:085fe-s8" kvg:type="㇑" d="M33.19 32.25c.77.42 1.23 1.91 1.38 2.76.15.85.0 58.41-.15 63.71"/><path id="kvg:085fe-s9" kvg:type="㇒" d="M33.65 64.52C29.8 73.3 19.78 85.73 11.77 90.7"/><path id="kvg:085fe-s10" kvg:type="㇏" d="M38.21 70.97c5.37 2.76 9.68 8.18 12.39 13.69"/></g></g><g id="kvg:085fe-g7" kvg:element="頁" kvg:variant="true" kvg:position="right"><g id="kvg:085fe-g8" kvg:element="刀"><path id="kvg:085fe-s11" kvg:type="㇆" d="M55.1 33.29c1.58.43 3.52 1.48 6.01 1.04 6.14-1.08 23.18-3.8 25.97-3.99 1.81-.13 2.32.57 2.22 1.45-.26 2.32-3.79 10.71-7.13 13.46-2.32 1.91-4.42.75-5.47-.63"/><path id="kvg:085fe-s12" kvg:type="㇒" d="M68.95 33.48c.04.31.09.8-.07 1.24C67.71 38 64.12 44.73 56.49 48.11"/></g><g id="kvg:085fe-g9" kvg:element="貝"><g id="kvg:085fe-g10" kvg:element="目" kvg:position="top"><path id="kvg:085fe-s13" kvg:type="㇑" d="M59.59 52.48c.44.86 1.08 1.51 1.08 2.63.0 1.12-.29 30.79-.29 31.35"/><path id="kvg:085fe-s14" kvg:type="㇕a" d="M61.4 53.89c2.48-.04 23.98-1.94 26.24-2.01 1.88-.06 2.25.95 2.25 2.41.0 1.2-.55 28.57-.55 29.32"/><path id="kvg:085fe-s15" kvg:type="㇐a" d="M61.35 62.76c4.32-.4 22.61-1.68 27.92-1.76"/><path id="kvg:085fe-s16" kvg:type="㇐a" d="M61.24 72c8.94-.22 20.97-1.26 27.74-1.37"/><path id="kvg:085fe-s17" kvg:type="㇐a" d="M60.91 82.65c7.35-.29 20.53-1.08 27.75-1.2"/></g><g id="kvg:085fe-g11" kvg:element="八" kvg:position="bottom"><path id="kvg:085fe-s18" kvg:type="㇒" d="M65.4 86.79c.42 1.06.32 1.6-.39 2.45-2.32 2.78-8.53 6.94-14.92 9.77"/><path id="kvg:085fe-s19" kvg:type="㇔" d="M79.99 86.75c5.49 2.9 12.4 9.33 13.9 11.77"/></g></g></g></g></g></g></svg>