<svg xmlns="http://www.w3.org/2000/svg" width="109" height="109" viewBox="0 0 109 109"><g id="kvg:StrokePaths_0862d"><g id="kvg:0862d" kvg:element="蘭"><g id="kvg:0862d-g1" kvg:element="艹" kvg:variant="true" kvg:original="艸" kvg:position="top" kvg:radical="general"><path id="kvg:0862d-s1" kvg:type="㇐" d="M15.75 19.07c3.62.55 7.02.36 10.27.02 15.23-1.6 37.56-3.42 51.99-4.1 3.62-.17 7.6.03 11.16.78"/><path id="kvg:0862d-s2" kvg:type="㇑a" d="M34.94 9.7c1.06.8 1.45 1.44 1.74 3.11C37.75 19 38 21.25 38.66 25.25"/><path id="kvg:0862d-s3" kvg:type="㇑a" d="M67 8.92c.42 1.01.53 1.96.25 3.25-1 4.58-2.25 7.33-3.72 11.55"/></g><g id="kvg:0862d-g2" kvg:element="闌" kvg:variant="true" kvg:position="bottom"><g id="kvg:0862d-g3" kvg:element="門" kvg:position="kamae"><g id="kvg:0862d-g4" kvg:position="left"><path id="kvg:0862d-s4" kvg:type="㇑" d="M20.66 32.27c1.04 1.03 1.24 2.16 1.24 3.44.0.59.03 34.58.05 51.04.0 3.92.01 6.8.01 7.94"/><path id="kvg:0862d-s5" kvg:type="㇕a" d="M22.82 33.92c3.45-.48 12.24-1.84 15.57-2.17 2.71-.27 3.52 1 3.34 3.38-.16 2.1-.74 7.87-1.11 11.62-.19 1.87-.32 3.24-.32 3.39"/><path id="kvg:0862d-s6" kvg:type="㇐a" d="M23.42 42c6.33-1.12 11.33-1.62 17.1-2.12"/><path id="kvg:0862d-s7" kvg:type="㇐a" d="M22.82 51.44c6.65-.89 10.55-1.56 16.42-1.97"/></g><g id="kvg:0862d-g5" kvg:position="right"><path id="kvg:0862d-s8" kvg:type="㇑" d="M64.88 29.51c.68.68.95 1.66.95 2.9.0 1.88.0 7.42.0 12.09.0 1.77.0 3.34.0 4.41"/><path id="kvg:0862d-s9" kvg:type="㇆a" d="M66.16 30.67c5.09-.42 11.84-1.54 17.09-2.01 2.8-.25 3.7.85 3.7 3.47.0 6-.08 54.63-.08 61.37.0 8.88-4.64 2.93-6.5.45"/><path id="kvg:0862d-s10" kvg:type="㇐a" d="M66.51 38.76c2.67.0 16.45-1.34 19.46-1.34"/><path id="kvg:0862d-s11" kvg:type="㇐a" d="M66.16 47.63c3.94.0 14.48-1.2 19.58-1.2"/></g></g><g id="kvg:0862d-g6" kvg:element="東" kvg:variant="true" kvg:original="柬"><g id="kvg:0862d-g7" kvg:element="束" kvg:part="1"><g id="kvg:0862d-g8" kvg:element="木" kvg:part="1"><path id="kvg:0862d-s12" kvg:type="㇐" d="M41.66 55.13c1.45.58 2.84.46 4.35.34 4.91-.39 10.83-1.56 15.76-2.19 1.11-.14 2.73-.4 3.81-.26"/></g><g id="kvg:0862d-g9" kvg:element="日" kvg:part="1"><g id="kvg:0862d-g10" kvg:element="口" kvg:part="1"><path id="kvg:0862d-s13" kvg:type="㇑" d="M37 61.62c.71.93.97 1.74 1.17 2.89.68 3.89 2.19 12.91 2.28 13.37"/><path id="kvg:0862d-s14" kvg:type="㇕" d="M38.86 63.19c3.89-.61 23.25-3.41 28.74-4.03 2.57-.29 3.83.96 3.21 3.35-.91 3.53-1.69 7.24-3.25 12.56"/></g><path id="kvg:0862d-s15" kvg:type="㇐" d="M40.05 69.08c4.87-.45 25.9-2.67 28.82-2.67"/></g></g><g id="kvg:0862d-g11" kvg:element="束" kvg:part="2"><g id="kvg:0862d-g12" kvg:element="日" kvg:part="2"><g id="kvg:0862d-g13" kvg:element="口" kvg:part="2"><path id="kvg:0862d-s16" kvg:type="㇐" d="M41.23 76.11c6.65-.74 18.84-2.17 25.39-2.42"/></g></g><g id="kvg:0862d-g14" kvg:element="木" kvg:part="2"><path id="kvg:0862d-s17" kvg:type="㇑" d="M52.68 46.25c.85.85 1.11 2 1.11 3.18.0.49-.03 28.25-.04 41.32.0 3.24.0 5.58.0 6.38"/><path id="kvg:0862d-s18" kvg:type="㇒" d="M50.39 76.06c0 1.19-.39 1.96-1.06 2.99-3.32 5.08-8.6 10.73-16.74 14.58"/><path id="kvg:0862d-s19" kvg:type="㇔/㇏" d="M56.88 80.38c4.89 1.69 9.87 5.51 13.12 9.88"/></g></g></g></g></g></g></svg>