<svg xmlns="http://www.w3.org/2000/svg" width="109" height="109" viewBox="0 0 109 109"><g id="kvg:StrokePaths_08622" style="fill:none;stroke:#000000;stroke-width:3;stroke-linecap:round;stroke-linejoin:round;"><g id="kvg:08622" kvg:element="蘢"><g id="kvg:08622-g1" kvg:element="艹" kvg:variant="true" kvg:original="艸" kvg:position="top" kvg:radical="general"><path id="kvg:08622-s1" kvg:type="㇐" d="M19 21.27c1.54.53 3.32.63 4.86.53 14.11-.96 43.75-3.46 60.02-3.53 2.56-.01 4.09.25 5.37.51"/><path id="kvg:08622-s2" kvg:type="㇑a" d="M39.17 11.75c1.45 1.18 1.91 1.54 2.06 2.27 1.44 6.81.86 12 1.27 14.48"/><path id="kvg:08622-s3" kvg:type="㇑a" d="M66.54 11c.78.69 1.29 1.74 1.03 2.76-.78 3.1-1.29 8.28-2.41 12.24"/></g><g id="kvg:08622-g2" kvg:element="龍" kvg:position="bottom"><g id="kvg:08622-g3" kvg:position="left"><g id="kvg:08622-g4" kvg:element="立" kvg:position="top"><g id="kvg:08622-g5" kvg:element="亠" kvg:position="top"><path id="kvg:08622-s4" kvg:type="㇑a" d="M32.74 30.25c.57.48 1.42 1.58 1.42 2.82.0 1.71.0 2.69.0 5.39"/><path id="kvg:08622-s5" kvg:type="㇐" d="M15.86 40.24c.91.19 4.03.22 4.94.19 5.13-.16 20.2-1.18 28.11-1.91 1.51-.14 2.42.09 3.18.18"/></g><g id="kvg:08622-g6" kvg:position="bottom"><path id="kvg:08622-s6" kvg:type="㇔" d="M23.31 42.5c2.23 2.85 3.24 5.77 3.44 7.65"/><path id="kvg:08622-s7" kvg:type="㇒" d="M44.51 41.43c.33.24.37.89.33 1.09-.27 1.35-3.04 5.38-3.7 6.41"/><path id="kvg:08622-s8" kvg:type="㇐" d="M13.79 53.22c1.3.33 2.82.38 4.12.33C26 53.25 40 52 49.35 51.27c2.17-.17 3.48.16 4.56.32"/></g></g><g id="kvg:08622-g7" kvg:element="月" kvg:position="bottom"><path id="kvg:08622-s9" kvg:type="㇑" d="M22.04 62.14c.45.52.75 1.05.9 1.57s.21 34.67.15 35.85"/><path id="kvg:08622-s10" kvg:type="㇕" d="M23.84 62.67c1.81-.13 18.4-2.34 19.75-2.49 2.41-.26 3.31 1.7 3.01 2.49-.29.75-.45 19.54-.45 30.15.0 9.41-3.27 5.28-6.58 2.43"/><path id="kvg:08622-s11" kvg:type="㇐" d="M23.84 71.72c6.18-.75 16.28-1.47 21.71-1.84"/><path id="kvg:08622-s12" kvg:type="㇐" d="M24.3 82.34c4.82-.39 15.37-1.57 20.95-1.83"/></g></g><g id="kvg:08622-g8" kvg:position="right"><path id="kvg:08622-s13" kvg:type="㇐" d="M61.35 34.91c5.48-.41 16.69-1.97 22.89-2.73 1.41-.17 2.29.11 3.01.23"/><path id="kvg:08622-s14" kvg:type="㇞" d="M59.46 28.94c1.29.83 1.66 2.87 1.68 4.04.04 2.47-.2 6.14-.32 9.54-.08 2.23.26 2.14 2.61 1.79C68.62 43.55 77 42 83.38 41.56c2.12-.15 3.83 1.14 3.32 2.41-.98 2.44-1.1 5.13-2.11 9.41"/><path id="kvg:08622-s15" kvg:type="㇐" d="M61.96 55.34c4.42-.41 19.2-1.47 25.37-1.84"/><path id="kvg:08622-s16" kvg:type="㇟" d="M60.32 53.47c.69.94 1.24 2.04 1.28 3.48.18 6.44.01 27.39.01 31.78.0 10.23 8.27 9.07 16.42 9.07 13 0 14.33-1.3 14.33-9.68"/><path id="kvg:08622-s17" kvg:type="㇐" d="M62.19 64.55c4.42-.41 15.9-1.07 20.9-1.84 1.14-.17 1.85.11 2.43.23"/><path id="kvg:08622-s18" kvg:type="㇐" d="M61.96 76c4.42-.41 15.79-1.18 20.8-1.94 1.14-.17 1.85.11 2.43.23"/><path id="kvg:08622-s19" kvg:type="㇐" d="M62.49 86.37c4.42-.41 16.19-1.57 21.19-2.34 1.14-.17 1.85.11 2.43.23"/></g></g></g></g></svg>