<svg xmlns="http://www.w3.org/2000/svg" width="109" height="109" viewBox="0 0 109 109"><g id="kvg:StrokePaths_0863f" style="fill:none;stroke:#000000;stroke-width:3;stroke-linecap:round;stroke-linejoin:round;"><g id="kvg:0863f" kvg:element="蘿"><g id="kvg:0863f-g1" kvg:element="艹" kvg:variant="true" kvg:original="艸" kvg:position="top" kvg:radical="general"><path id="kvg:0863f-s1" kvg:type="㇐" d="M17 20.92c1.73.38 3.73.46 5.46.38 15.86-.7 43.22-3.24 61.5-3.29 2.88-.01 4.6.18 6.04.37"/><path id="kvg:0863f-s2" kvg:type="㇑a" d="M37.75 11c1.75 1.43 2.31 1.87 2.5 2.75C42 22 42 24 42.5 27"/><path id="kvg:0863f-s3" kvg:type="㇑a" d="M66.13 9.5c.83.74 1.38 1.86 1.1 2.94-.83 3.31-2.25 8.83-3.44 13.06"/></g><g id="kvg:0863f-g2" kvg:element="羅" kvg:position="bottom"><g id="kvg:0863f-g3" kvg:element="罒" kvg:variant="true" kvg:original="网" kvg:position="top"><path id="kvg:0863f-s4" kvg:type="㇑" d="M25.81 31.66c.31.24.63.43.76.73 1.07 2.33 2.36 8.77 3.09 12.96"/><path id="kvg:0863f-s5" kvg:type="㇕a" d="M27.74 33.24c6.81-.91 50.14-3.95 53.77-4.26 1.32-.11 3.12 1.29 2.76 2.6-.74 2.74-1.06 6.93-3.03 10.84"/><path id="kvg:0863f-s6" kvg:type="㇑a" d="M44.95 31.94c.21 1.55 1.66 9.13 1.87 10.88"/><path id="kvg:0863f-s7" kvg:type="㇑a" d="M64.01 30.47c-.21 2.52-1.25 9.13-1.66 10.68"/><path id="kvg:0863f-s8" kvg:type="㇐a" d="M30.64 44.07c4.25-.35 45.24-3.61 51.08-4.14"/></g><g id="kvg:0863f-g4" kvg:element="維" kvg:position="bottom"><g id="kvg:0863f-g5" kvg:element="糸" kvg:position="left"><path id="kvg:0863f-s9" kvg:type="㇜" d="M30.1 48.42c.3.9.61 1.73-.15 2.55-2.56 2.76-4.75 5.36-8.7 8.82-.55.48-.59 2.08.0 2.25 3.12.9 6.18 1.75 8.86 3.4"/><path id="kvg:0863f-s10" kvg:type="㇜" d="M42.78 53.75c.26.39-.09 2.23-.5 2.57C34.25 63 23.86 69.4 16.94 74.94c-1.59 1.27-1.19 2.81 1.43 2.24 4.36-.95 22.95-4.62 28.51-5.66"/><path id="kvg:0863f-s11" kvg:type="㇔" d="M41.6 65.32c2.7 1.92 6.98 7.88 7.65 10.87"/><path id="kvg:0863f-s12" kvg:type="㇑" d="M31.88 76.61c.06.24.79 1.24.84 2.74.27 7.24-.17 17.85-.17 20.32"/><path id="kvg:0863f-s13" kvg:type="㇒" d="M23.76 80.86c.15.71.13 2.12-.15 2.62-1.79 3.33-6.27 9.74-8.81 12.59"/><path id="kvg:0863f-s14" kvg:type="㇔" d="M40.36 80.48c3.85 3.16 6.8 10.49 7.69 13.35"/></g><g id="kvg:0863f-g6" kvg:element="隹" kvg:position="right"><g id="kvg:0863f-g7" kvg:element="亻" kvg:variant="true" kvg:original="人"><path id="kvg:0863f-s15" kvg:type="㇒" d="M63.69 46.36c.13 1-.04 2.31-.44 3.16-2.56 5.45-5.8 10.07-11.66 16.71"/><path id="kvg:0863f-s16" kvg:type="㇑" d="M58.31 60.42c.72 5.58-.34 32.38-.02 37.28"/></g><path id="kvg:0863f-s17" kvg:type="㇒" d="M79.79 46.22c.06.56-.02 1.3-.21 1.78-1.24 3.08-2.81 5.45-5.65 9.19"/><path id="kvg:0863f-s18" kvg:type="㇐b" d="M58 59.68c6.81-.79 31.54-3.12 34.46-3.55"/><path id="kvg:0863f-s19" kvg:type="㇑a" d="M73.09 59.83c.33.31.59.74.59 1.28.0 5.49.04 24.3-.16 32.95"/><path id="kvg:0863f-s20" kvg:type="㇐b" d="M59.22 70.79c6.42-.66 27.7-1.88 30.45-2.24"/><path id="kvg:0863f-s21" kvg:type="㇐b" d="M58.44 81.94c6.78-.56 29.23-2.04 32.14-2.34"/><path id="kvg:0863f-s22" kvg:type="㇐b" d="M58.13 95.48c6.81-.8 32.32-1.47 35.24-1.9"/></g></g></g></g></g></svg>