<svg xmlns="http://www.w3.org/2000/svg" width="109" height="109" viewBox="0 0 109 109"><g id="kvg:StrokePaths_08650" style="fill:none;stroke:#000000;stroke-width:3;stroke-linecap:round;stroke-linejoin:round;"><g id="kvg:08650" kvg:element="虐"><g id="kvg:08650-g1" kvg:element="虍" kvg:position="tare" kvg:radical="general"><path id="kvg:08650-s1" kvg:type="㇑a" d="M53.77 9.33c.98.92 1.51 2.42 1.51 4.52.0 5.9-.02 13.44-.02 18.4"/><path id="kvg:08650-s2" kvg:type="㇐b" d="M58.35 21.65c4.65-.65 7.9-1.25 12.61-1.77 1.55-.17 2.5.15 3.29.32"/><path id="kvg:08650-s3" kvg:type="㇒" d="M28.96 35.68c.81.81 1.14 2.32 1.14 3.67C30.1 59 27.25 79.25 15.25 92"/><path id="kvg:08650-s4" kvg:type="㇖a" d="M30.24 38.21c1.25-.26 2.68-.51 4.23-.85 14.28-3.11 32.4-5.74 46.14-6.15 11.72-.35 2.48 6.22-.44 8.28"/><g id="kvg:08650-g2" kvg:element="七"><g id="kvg:08650-g3" kvg:element="一"><path id="kvg:08650-s5" kvg:type="㇐" d="M35.75 50.53c2.5.35 5.22.08 7.76-.48 8.49-1.9 14.86-3.3 25.02-4.85 2.43-.37 4.57-.5 6.97.15"/></g><path id="kvg:08650-s6" kvg:type="㇟a" d="M53.75 37.18c.52.42 1.2 2.1 1.2 2.68.0 4.71-.1 8.14-.1 11.41.0 5.6.89 6.73 9.81 6.73 2.76.0 8.21-.25 10.58-1.09"/></g></g><g id="kvg:08650-g4" kvg:position="tarec"><path id="kvg:08650-s7" kvg:type="㇐" d="M42.46 69.82c1.48.77 3.71.54 5.28.41 6.53-.53 20.03-2.04 28.76-2.6 2.26-.15 4.83-.55 7.04.14"/><path id="kvg:08650-s8" kvg:type="㇐b" d="M45.45 83.39c6.48-.4 21.62-1.96 33.32-3.34 1.98-.23 4.23-.54 6.28-.13"/><path id="kvg:08650-s9" kvg:type="㇗" d="M43.37 70.5c.75.75 1.04 1.71 1.04 2.39.0 2.99-.16 12.86-.54 21.55-.11 2.47.52 3.77 2.96 3.36 14.42-2.41 22.84-3.46 33.35-2.96 2.14.1 3.94.66 4.76.82"/></g></g></g></svg>