<!DOCTYPE svg PUBLIC "-//W3C//DTD SVG 1.0//EN" "http://www.w3.org/TR/2001/REC-SVG-20010904/DTD/svg10.dtd" [
<!ATTLIST g
xmlns:kvg CDATA #FIXED "http://kanjivg.tagaini.net"
kvg:element CDATA #IMPLIED
kvg:variant CDATA #IMPLIED
kvg:partial CDATA #IMPLIED
kvg:original CDATA #IMPLIED
kvg:part CDATA #IMPLIED
kvg:number CDATA #IMPLIED
kvg:tradForm CDATA #IMPLIED
kvg:radicalForm CDATA #IMPLIED
kvg:position CDATA #IMPLIED
kvg:radical CDATA #IMPLIED
kvg:phon CDATA #IMPLIED >
<!ATTLIST path
xmlns:kvg CDATA #FIXED "http://kanjivg.tagaini.net"
kvg:type CDATA #IMPLIED >
]><svg xmlns="http://www.w3.org/2000/svg" width="109" height="109" viewBox="0 0 109 109"><g id="kvg:StrokePaths_0865e" style="fill:none;stroke:#000000;stroke-width:3;stroke-linecap:round;stroke-linejoin:round;"><g id="kvg:0865e" kvg:element="虞"><g id="kvg:0865e-g1" kvg:element="虍" kvg:position="tare" kvg:radical="general"><path id="kvg:0865e-s1" kvg:type="㇑a" d="M51.77 9.58c.89.89 1.51 2.04 1.51 3.77.0 2.4-.02 8.27-.02 11.4"/><path id="kvg:0865e-s2" kvg:type="㇐b" d="M54.35 16.52c5.76-.77 14-1.77 19.83-2.38 1.92-.2 3.1.18 4.07.37"/><path id="kvg:0865e-s3" kvg:type="㇒" d="M27.61 27.18c.85.85 1.23 2.34 1.23 4.07.0 22.25-3.99 45.64-15.09 59.5"/><path id="kvg:0865e-s4" kvg:type="㇖a" d="M29.38 28.52c1.52-.23 3.23-.47 5.08-.73 14.74-2.08 38.57-4.81 48.74-4.95 12.07-.17 3.55 5.66.55 7.78"/><g id="kvg:0865e-g2" kvg:element="七"><g id="kvg:0865e-g3" kvg:element="一"><path id="kvg:0865e-s5" kvg:type="㇐" d="M36 37.69c1.72.79 4.32.45 6.12.11 7.7-1.46 20.69-3.07 28.77-3.96 1.77-.2 3.36-.38 5.11.11"/></g><path id="kvg:0865e-s6" kvg:type="㇟a" d="M52.5 27.43c.66.66 1.1 1.82 1.1 3.59.0 2.11-.1 4.88-.1 7.11.0 3.75 1.12 5.88 11.51 5.88 3.09.0 11.33-.5 13.99-1.39"/></g></g><g id="kvg:0865e-g4" kvg:element="呉" kvg:position="tarec" kvg:phon="呉"><g id="kvg:0865e-g5" kvg:position="top"><g id="kvg:0865e-g6" kvg:element="口"><path id="kvg:0865e-s7" kvg:type="㇑" d="M50.18 51.22c.74.74 1.22 1.59 1.31 2.38.57 1.91 1.16 4.39 1.66 7.17.22 1.24.42 2.45.58 3.5"/><path id="kvg:0865e-s8" kvg:type="㇕b" d="M52.08 52.49c5.48-.79 15.39-2.22 20.19-2.75 2.74-.31 4.43.24 3.46 3.41-.63 2.07-1.42 3.95-2.67 7.21"/><path id="kvg:0865e-s9" kvg:type="㇐b" d="M54.24 63.05c3.15-.29 11.1-1.4 16.79-2.01 1.4-.15 2.64-.27 3.62-.34"/></g><path id="kvg:0865e-s10" kvg:type="㇞" d="M39.75 55.2c.77.77 1.09 2.05 1.09 3.39.0 1.92-.01 6.91-.01 10.67.0 1.49.58 2.08 2.46 1.81 4.14-.59 27.47-3.34 32.89-3.92 1.44-.15 2.69.85 2.25 2.71-.56 2.39-.93 3.89-1.32 6.99"/></g><g id="kvg:0865e-g7" kvg:position="bottom"><path id="kvg:0865e-s11" kvg:type="㇐" d="M27 81.43c2.96 1.21 7.17.58 10.25.28 15.48-1.47 36.59-2.92 50.38-3.35 2.98-.09 5.96-.04 8.88.67"/><g id="kvg:0865e-g8" kvg:element="八"><g id="kvg:0865e-g9" kvg:position="left"><path id="kvg:0865e-s12" kvg:type="㇒" d="M48.4 86.19c.13.96-.14 2.05-.82 2.75-2.31 3.12-7.96 7.56-17.31 11.87"/></g><g id="kvg:0865e-g10" kvg:position="right"><path id="kvg:0865e-s13" kvg:type="㇔/㇏" d="M69.52 85.87c6.14 2.36 15.87 9.69 17.41 13.35"/></g></g></g></g></g></g><g id="kvg:StrokeNumbers_0865e" style="font-size:8;fill:#808080"><text transform="matrix(1 0 0 1 44.50 10.50)">1</text><text transform="matrix(1 0 0 1 59.50 12.13)">2</text><text transform="matrix(1 0 0 1 21.50 37.63)">3</text><text transform="matrix(1 0 0 1 26.25 24.13)">4</text><text transform="matrix(1 0 0 1 35.25 35.50)">5</text><text transform="matrix(1 0 0 1 45.75 33.50)">6</text><text transform="matrix(1 0 0 1 44.50 58.50)">7</text><text transform="matrix(1 0 0 1 53.50 49.50)">8</text><text transform="matrix(1 0 0 1 56.50 60.50)">9</text><text transform="matrix(1 0 0 1 30.50 62.50)">10</text><text transform="matrix(1 0 0 1 27.50 78.50)">11</text><text transform="matrix(1 0 0 1 33.50 91.50)">12</text><text transform="matrix(1 0 0 1 59.25 88.50)">13</text></g></svg>