<svg xmlns="http://www.w3.org/2000/svg" width="109" height="109" viewBox="0 0 109 109"><g id="kvg:StrokePaths_0866b" style="fill:none;stroke:#000000;stroke-width:3;stroke-linecap:round;stroke-linejoin:round;"><g id="kvg:0866b" kvg:element="虫" kvg:radical="general"><g id="kvg:0866b-g1" kvg:element="中"><g id="kvg:0866b-g2" kvg:element="口"><path id="kvg:0866b-s1" kvg:type="㇑" d="M23.64 36.26c.8.8 1.49 1.74 1.7 2.54 1.23 4.63 2.06 10.62 3.38 18.66.25 1.52.51 3.11.78 4.78"/><path id="kvg:0866b-s2" kvg:type="㇕b" d="M25.76 38.04c14.91-1.35 45.03-4.16 53.74-4.54 3.84-.17 4.01 1.78 3.63 4.25-.68 4.46-2.51 12.12-4.07 17.32"/><path id="kvg:0866b-s3" kvg:type="㇐b" d="M30 60c9.65-.99 29.67-2.45 44.76-3.49 2.03-.14 3.98-.27 5.79-.4"/></g><g id="kvg:0866b-g3" kvg:element="丨"><path id="kvg:0866b-s4" kvg:type="㇑a" d="M52.51 16.12c1 1 1.67 2.84 1.67 3.99.0 5.39.08 62.61.04 63.63"/></g></g><path id="kvg:0866b-s5" kvg:type="㇀" d="M22.75 89.75c1.31 1.31 3 1.5 4.25 1.25s47-10.5 54.75-12.5"/><path id="kvg:0866b-s6" kvg:type="㇔" d="M74.96 69.87c5.12 3.62 12.42 14.38 14.5 20.5"/></g></g></svg>