<svg xmlns="http://www.w3.org/2000/svg" width="109" height="109" viewBox="0 0 109 109"><g id="kvg:StrokePaths_08667" style="fill:none;stroke:#000000;stroke-width:3;stroke-linecap:round;stroke-linejoin:round;"><g id="kvg:08667" kvg:element="虧"><g id="kvg:08667-g1" kvg:position="left"><g id="kvg:08667-g2" kvg:element="虍" kvg:variant="true" kvg:position="tare" kvg:radical="tradit"><path id="kvg:08667-s1" kvg:type="㇑" d="M32.23 12.58c.92.77 1.64 1.66 1.64 4.19.0 4.92-.02 6.84-.02 10.98"/><path id="kvg:08667-s2" kvg:type="㇐" d="M34.27 19.27c4.67-.82 10.36-1.79 14.69-2.38 1.46-.2 2.36.18 3.09.37"/><g id="kvg:08667-g3" kvg:element="丿" kvg:radical="nelson"><path id="kvg:08667-s3" kvg:type="㇒" d="M18.58 27.18c.42.58.96 3.24.96 5.32.0 22.25.21 39.75-7.04 59.25"/></g><path id="kvg:08667-s4" kvg:type="㇖" d="M19.59 29.26c.7.18 1.93.34 3.09.24 9.07-.75 20.74-3.3 27.62-3.45 7.26-.16 2.04 5.33.23 7.34"/><g id="kvg:08667-g4" kvg:element="七"><g id="kvg:08667-g5" kvg:element="一"><path id="kvg:08667-s5" kvg:type="㇐" d="M23.19 38.69c.5.37 1.73.45 2.24.37 5.2-.81 14.05-2.57 19.49-3.47.83-.14 1.34.18 1.76.36"/></g><path id="kvg:08667-s6" kvg:type="㇟a" d="M32.92 30.18c.35.45.81 2.22.81 2.84.0 4.98-.06 1.64-.06 3.87.0 6.61 3.1 6.61 8.11 6.61 1.86.0 8.65.0 10.26-.89"/></g></g><g id="kvg:08667-g6" kvg:element="隹" kvg:position="tarec"><g id="kvg:08667-g7" kvg:element="亻" kvg:variant="true" kvg:original="人"><path id="kvg:08667-s7" kvg:type="㇒" d="M31.09 47.25c.11.99-.03 2.28-.37 3.12-2.19 5.39-4.96 9.95-9.97 16.5"/><path id="kvg:08667-s8" kvg:type="㇑" d="M27.01 59.74c.45.53.8 1.71.83 2.54.27 7.38-.37 29.38-.14 33.22"/></g><path id="kvg:08667-s9" kvg:type="㇒" d="M43.48 48.5c.04.47-.01 1.09-.14 1.5-.82 2.59-1.85 4.59-3.72 7.74"/><path id="kvg:08667-s10" kvg:type="㇐b" d="M27.71 59.9c5.26-.7 25.26-3.22 27.51-3.6"/><path id="kvg:08667-s11" kvg:type="㇑a" d="M40.9 58.94c.25.27.46.65.46 1.12.0 4.79.03 21.93-.13 29.47"/><path id="kvg:08667-s12" kvg:type="㇐b" d="M28.42 69.48c4.96-.58 23.39-2.25 25.52-2.56"/><path id="kvg:08667-s13" kvg:type="㇐b" d="M27.82 79.21c5.23-.48 23.58-1.97 25.82-2.24"/><path id="kvg:08667-s14" kvg:type="㇐b" d="M27.82 91.13c5.26-.7 26.68-2.03 28.93-2.41"/></g></g><g id="kvg:08667-g8" kvg:position="right"><g id="kvg:08667-g9" kvg:element="二"><g id="kvg:08667-g10" kvg:position="top"><path id="kvg:08667-s15" kvg:type="㇐" d="M58.34 18.6c.97.4 2.73.46 3.7.4 10.14-.58 19.71-2 27.13-2.4 1.61-.09 2.57.19 3.38.39"/></g><g id="kvg:08667-g11" kvg:position="bottom"><path id="kvg:08667-s16" kvg:type="㇐" d="M56 37.09c1.44.36 4.08.97 5.5.86 9.25-.7 23.28-2.79 30.22-3.18 2.39-.13 3.83.17 5.03.35"/></g></g><path id="kvg:08667-s17" kvg:type="㇉" d="M72.74 20c1.12.97.73 3.49.22 5.11C70.5 33 64.16 50.73 63.79 51.7c-.37.97.01 3.45 2.98 2.9 4.61-.86 15.68-2.39 21.65-3.12s4.52 4.85 4.08 6.58C90.26 67 85.25 83.5 80.27 92.6c-4.49 8.21-8.79-.16-10.49-2.03"/></g></g></g></svg>