<svg xmlns="http://www.w3.org/2000/svg" width="109" height="109" viewBox="0 0 109 109"><g id="kvg:StrokePaths_08671" style="fill:none;stroke:#000000;stroke-width:3;stroke-linecap:round;stroke-linejoin:round;"><g id="kvg:08671" kvg:element="虱"><g id="kvg:08671-g1" kvg:element="⺄" kvg:position="kamae"><path id="kvg:08671-s1" kvg:type="㇈" d="M22.25 23c2.5.5 4.99.61 6.52.38 13.4-2.01 40.14-5.63 43.73-5.63 4 0 5.82.94 5.5 4.75-1.75 20.75-1.58 50.2 9.5 66.25 7.25 10.5 7.25 1 7-6"/></g><g id="kvg:08671-g2" kvg:element="䖝" kvg:position="kamaec"><path id="kvg:08671-s2" kvg:type="㇒" d="M60.98 27c.1.41.21 1.05-.2 1.63-2.42 3.44-16.29 11-35.28 15.62"/><g id="kvg:08671-g3" kvg:element="虫" kvg:radical="general"><g id="kvg:08671-g4" kvg:element="中"><g id="kvg:08671-g5" kvg:element="口"><path id="kvg:08671-s3" kvg:type="㇑" d="M24.98 53.12c.63.37 1.43 1.65 1.54 2.14.85 3.54 1.72 7.21 2.92 13.92"/><path id="kvg:08671-s4" kvg:type="㇕b" d="M26.99 53.91c9.55-.71 29.75-4.01 36.66-4.28 2.69-.11 3.94 1.01 3.6 2.07-1.15 3.64-1.35 6.09-3.21 12.14"/><path id="kvg:08671-s5" kvg:type="㇐b" d="M29.79 67.25c7.68-.71 24.73-2.89 35.48-3.55"/></g><g id="kvg:08671-g6" kvg:element="丨"><path id="kvg:08671-s6" kvg:type="㇑a" d="M45.19 40.75c.65.47 1.04 2.11 1.17 3.06.13.94.0 35.52-.13 41.4"/></g></g><path id="kvg:08671-s7" kvg:type="㇀" d="M23.05 89.33c.95.84 2.52 1.39 3.47 1.18s36.2-9.06 39.04-10.11"/><path id="kvg:08671-s8" kvg:type="㇔" d="M58.25 72.6c4.02 3.23 12.25 12.35 13.61 16.56"/></g></g></g></g></svg>