<!DOCTYPE svg PUBLIC "-//W3C//DTD SVG 1.0//EN" "http://www.w3.org/TR/2001/REC-SVG-20010904/DTD/svg10.dtd" [
<!ATTLIST g
xmlns:kvg CDATA #FIXED "http://kanjivg.tagaini.net"
kvg:element CDATA #IMPLIED
kvg:variant CDATA #IMPLIED
kvg:partial CDATA #IMPLIED
kvg:original CDATA #IMPLIED
kvg:part CDATA #IMPLIED
kvg:number CDATA #IMPLIED
kvg:tradForm CDATA #IMPLIED
kvg:radicalForm CDATA #IMPLIED
kvg:position CDATA #IMPLIED
kvg:radical CDATA #IMPLIED
kvg:phon CDATA #IMPLIED >
<!ATTLIST path
xmlns:kvg CDATA #FIXED "http://kanjivg.tagaini.net"
kvg:type CDATA #IMPLIED >
]><svg xmlns="http://www.w3.org/2000/svg" width="109" height="109" viewBox="0 0 109 109"><g id="kvg:StrokePaths_086cb" style="fill:none;stroke:#000000;stroke-width:3;stroke-linecap:round;stroke-linejoin:round;"><g id="kvg:086cb" kvg:element="蛋"><g id="kvg:086cb-g1" kvg:element="疋" kvg:position="top" kvg:radical="nelson"><path id="kvg:086cb-s1" kvg:type="㇖" d="M21.58 18.4c2.57.44 4.13.8 6.73.44 14.79-2.01 34.18-5.09 50.56-5.09 8.83.0 5.14 3.08-.64 8"/><g id="kvg:086cb-g2" kvg:element="卜" kvg:original="ト"><path id="kvg:086cb-s2" kvg:type="㇑" d="M52.5 17.83c.97.45 1.75 1.99 1.75 2.91.0 6.51.25 11.51.25 20.59"/><path id="kvg:086cb-s3" kvg:type="㇐" d="M54.76 30.06c6.37-.67 12-.84 21.61-2.18 1.54-.22 1.95-.22 2.92.0"/></g><g id="kvg:086cb-g3" kvg:element="人"><path id="kvg:086cb-s4" kvg:type="㇒" d="M34.68 24.79c.05.68.1 1.75-.1 2.73-1.2 5.75-7.6 18.01-17 25.73"/><path id="kvg:086cb-s5" kvg:type="㇏" d="M32.71 33.29c7.81 2.7 34.65 14.84 50.05 17.67 2.98.55 5.34 1.28 8.22 1.54"/></g></g><g id="kvg:086cb-g4" kvg:element="虫" kvg:position="bottom" kvg:radical="tradit"><g id="kvg:086cb-g5" kvg:element="中"><g id="kvg:086cb-g6" kvg:element="口"><path id="kvg:086cb-s6" kvg:type="㇑" d="M26.14 62.26c.89.41 1.53 1.44 1.7 1.98 1.21 3.95 1.91 8.26 3.66 16.12"/><path id="kvg:086cb-s7" kvg:type="㇕b" d="M28.5 63.84c13.61-.79 39.9-4.06 49.75-4.37 3.84-.12 4.01 1.26 3.63 3.01-.88 4.07-1.63 6.01-3.57 12.66"/><path id="kvg:086cb-s8" kvg:type="㇐b" d="M32.5 78.76c10.95-.79 32.24-3.02 47.56-3.76"/></g><g id="kvg:086cb-g7" kvg:element="丨"><path id="kvg:086cb-s9" kvg:type="㇑a" d="M52.62 48.25c1.09.49 1.75 2.2 1.97 3.18s0 34.13-.22 40.24"/></g></g><path id="kvg:086cb-s10" kvg:type="㇀" d="M22.25 96.34c1.25.71 2 1.59 3.25 1.42 1.25-.18 48-8.33 55.75-9.75"/><path id="kvg:086cb-s11" kvg:type="㇔" d="M72.46 81.25c6.35 3.09 16.41 12.72 18 17.53"/></g></g></g><g id="kvg:StrokeNumbers_086cb" style="font-size:8;fill:#808080"><text transform="matrix(1 0 0 1 15.50 18.50)">1</text><text transform="matrix(1 0 0 1 46.50 25.55)">2</text><text transform="matrix(1 0 0 1 57.50 27.50)">3</text><text transform="matrix(1 0 0 1 26.50 27.50)">4</text><text transform="matrix(1 0 0 1 39.50 33.50)">5</text><text transform="matrix(1 0 0 1 20.25 70.25)">6</text><text transform="matrix(1 0 0 1 30.50 60.18)">7</text><text transform="matrix(1 0 0 1 34.50 75.50)">8</text><text transform="matrix(1 0 0 1 43.50 48.50)">9</text><text transform="matrix(1 0 0 1 10.25 97.50)">10</text><text transform="matrix(1 0 0 1 62.50 85.50)">11</text></g></svg>