<svg xmlns="http://www.w3.org/2000/svg" width="109" height="109" viewBox="0 0 109 109"><g id="kvg:StrokePaths_086db"><g id="kvg:086db" kvg:element="蛛"><g id="kvg:086db-g1" kvg:element="虫" kvg:position="left" kvg:radical="general"><g id="kvg:086db-g2" kvg:element="中"><g id="kvg:086db-g3" kvg:element="口"><path id="kvg:086db-s1" kvg:type="㇑" d="M11.76 36.9c.46.51 1.02 1.4 1.12 2.06.87 5.79 1.87 13.79 3.12 22.43"/><path id="kvg:086db-s2" kvg:type="㇕b" d="M13.72 38.98c6.93-.97 19.11-3.33 24.13-3.7 1.96-.14 2.86 1.38 2.62 2.83-.83 4.98-1.98 10.34-3.33 18.62"/><path id="kvg:086db-s3" kvg:type="㇐b" d="M16.26 59.43c5.58-.98 15.46-1.98 23.26-2.89"/></g><g id="kvg:086db-g4" kvg:element="丨"><path id="kvg:086db-s4" kvg:type="㇑a" d="M24.42 16.25c1.08 1 2.26 2.75 2.26 4.47.0 4.78-.2 44.28-.2 57.66"/></g></g><path id="kvg:086db-s5" kvg:type="㇀" d="M10.57 85.27c.6 1.16 2.46 1.11 3.06.82s22.04-12.15 25.76-14.47"/><path id="kvg:086db-s6" kvg:type="㇔" d="M35.25 64c2.4 2.45 6.21 10.08 6.81 13.89"/></g><g id="kvg:086db-g5" kvg:element="朱" kvg:position="right"><path id="kvg:086db-s7" kvg:type="㇒" d="M55 23.36c.02.45.09 1.28-.05 1.79-1.72 6.27-4.26 12.03-8.73 17.09"/><g id="kvg:086db-g6" kvg:element="未"><path id="kvg:086db-s8" kvg:type="㇐" d="M53.49 35c.67.27 2.41.3 3.08.27 7.01-.31 18.48-3.2 27.01-4.1 1.12-.12 1.8.13 2.36.27"/><g id="kvg:086db-g7" kvg:element="木"><path id="kvg:086db-s9" kvg:type="㇐" d="M46.89 52.5c.68.24 2.5.38 4.32.23 9.04-.73 24.88-2.12 37.39-3.34 1.81-.18 3.42.24 4.56.49"/><path id="kvg:086db-s10" kvg:type="㇑" d="M64.48 13.75c1.14.49 1.82 2.2 2.05 3.17s0 73.97-.23 80.08"/><path id="kvg:086db-s11" kvg:type="㇒" d="M66.25 54.04c-4.91 10.94-17.6 27.52-27.8 33.71"/><path id="kvg:086db-s12" kvg:type="㇏" d="M66.85 54.81C70.3 61.02 84.86 78.76 90 83.95c1.28 1.3 2.31 1.96 3.55 2.35"/></g></g></g></g></g></svg>