<svg xmlns="http://www.w3.org/2000/svg" width="109" height="109" viewBox="0 0 109 109"><g id="kvg:StrokePaths_086df" style="fill:none;stroke:#000000;stroke-width:3;stroke-linecap:round;stroke-linejoin:round;"><g id="kvg:086df" kvg:element="蛟"><g id="kvg:086df-g1" kvg:element="虫" kvg:position="left" kvg:radical="general"><g id="kvg:086df-g2" kvg:element="中"><g id="kvg:086df-g3" kvg:element="口"><path id="kvg:086df-s1" kvg:type="㇑" d="M13.26 37.4c.42.51.93 1.4 1.02 2.06.79 5.79 1.7 13.79 2.85 22.43"/><path id="kvg:086df-s2" kvg:type="㇕b" d="M15.05 39.48c6.32-.97 19.71-3.83 24.28-4.2 1.78-.14 2.61 1.38 2.39 2.83-.76 4.98-1.8 10.34-3.04 18.62"/><path id="kvg:086df-s3" kvg:type="㇐b" d="M17.36 59.93c5.09-.98 16.38-2.48 23.5-3.39"/></g><g id="kvg:086df-g4" kvg:element="丨"><path id="kvg:086df-s4" kvg:type="㇑a" d="M25.42 16.75c1.08 1 2.26 2.75 2.26 4.47.0 4.78-.2 43.28-.2 56.66"/></g></g><path id="kvg:086df-s5" kvg:type="㇀" d="M12.07 85.3c.55 1.12 2.24 1.08 2.79.79.55-.28 22.38-12.23 25.77-14.48"/><path id="kvg:086df-s6" kvg:type="㇔" d="M36 63.75c2.67 2.5 6.89 10.26 7.56 14.14"/></g><g id="kvg:086df-g5" kvg:element="交" kvg:position="right"><g id="kvg:086df-g6" kvg:element="亠" kvg:position="top"><path id="kvg:086df-s7" kvg:type="㇑a" d="M67.51 14.5c.93.61 2.46 2.95 2.46 4.15.0 4.77-.03 8.33-.12 11.76"/><path id="kvg:086df-s8" kvg:type="㇐" d="M46 32.1c1.23.06 4.03.45 5.23.35 8.71-.72 29.52-3.2 40.61-3.23 2.03-.01 3.06.03 4.57.44"/></g><g id="kvg:086df-g7" kvg:element="父" kvg:position="bottom"><path id="kvg:086df-s9" kvg:type="㇒" d="M59.95 36.09c.25.75-.01 2.51-.6 3.73C57.01 44.68 52.78 49.95 48 54.2"/><path id="kvg:086df-s10" kvg:type="㇔" d="M77.77 36.98c6.5 4.32 11.88 9.3 15.13 14.54"/><path id="kvg:086df-s11" kvg:type="㇒" d="M79.82 45.91c.49 1.11.53 3.03-.15 5.08C73.43 69.7 59.93 86.7 42.5 96.65"/><path id="kvg:086df-s12" kvg:type="㇏" d="M57.84 52.27c3.66 4.98 17.98 26.22 27.84 37.37 1.85 2.1 3.83 3.85 6.33 5.75"/></g></g></g></g></svg>