<!DOCTYPE svg PUBLIC "-//W3C//DTD SVG 1.0//EN" "http://www.w3.org/TR/2001/REC-SVG-20010904/DTD/svg10.dtd" [
<!ATTLIST g
xmlns:kvg CDATA #FIXED "http://kanjivg.tagaini.net"
kvg:element CDATA #IMPLIED
kvg:variant CDATA #IMPLIED
kvg:partial CDATA #IMPLIED
kvg:original CDATA #IMPLIED
kvg:part CDATA #IMPLIED
kvg:number CDATA #IMPLIED
kvg:tradForm CDATA #IMPLIED
kvg:radicalForm CDATA #IMPLIED
kvg:position CDATA #IMPLIED
kvg:radical CDATA #IMPLIED
kvg:phon CDATA #IMPLIED >
<!ATTLIST path
xmlns:kvg CDATA #FIXED "http://kanjivg.tagaini.net"
kvg:type CDATA #IMPLIED >
]><svg xmlns="http://www.w3.org/2000/svg" width="109" height="109" viewBox="0 0 109 109"><g id="kvg:StrokePaths_086d9" style="fill:none;stroke:#000000;stroke-width:3;stroke-linecap:round;stroke-linejoin:round;"><g id="kvg:086d9" kvg:element="蛙"><g id="kvg:086d9-g1" kvg:element="虫" kvg:position="left" kvg:radical="general"><g id="kvg:086d9-g2" kvg:element="中"><g id="kvg:086d9-g3" kvg:element="口"><path id="kvg:086d9-s1" kvg:type="㇑" d="M14.01 38.9c.8.91 1.23 1.95 1.28 3.11.65 4.32 1.42 9.47 2.11 15.36.21 1.77.41 3.61.6 5.52"/><path id="kvg:086d9-s2" kvg:type="㇕b" d="M15.97 40.48c6.34-.89 17.26-2.48 22.92-3.07 3.62-.38 4.3 1.39 3.89 3.72-.82 4.61-1.65 8.64-2.91 16.34"/><path id="kvg:086d9-s3" kvg:type="㇐b" d="M18.51 60.68c5.23-.54 11.64-1.43 18.24-2.13 1.75-.19 3.51-.36 5.27-.51"/></g><g id="kvg:086d9-g4" kvg:element="丨"><path id="kvg:086d9-s4" kvg:type="㇑a" d="M27.17 19.75c1.16 1.17 1.51 2.75 1.51 4.47.0 4.78-.2 42.03-.2 55.41"/></g></g><path id="kvg:086d9-s5" kvg:type="㇀" d="M13.07 85.45c1.31 1.3 2.63 1.2 3.82.67 11.37-5 17.37-7.62 24.62-11.12"/><path id="kvg:086d9-s6" kvg:type="㇔" d="M37.75 66.5c2.93 2.89 7.57 11.89 8.31 16.39"/></g><g id="kvg:086d9-g5" kvg:element="圭" kvg:position="right"><g id="kvg:086d9-g6" kvg:element="土" kvg:position="top"><path id="kvg:086d9-s7" kvg:type="㇐" d="M51.55 32.24c2.31.57 4.63.64 6.96.21 7.65-.87 13.87-1.7 23.74-2.66 2.03-.25 4.05-.13 6.05.36"/><path id="kvg:086d9-s8" kvg:type="㇑a" d="M67.45 12.62c.84.84 1.16 2.51 1.16 4.16.0 4.22-.1 22.85-.1 31.86"/><path id="kvg:086d9-s9" kvg:type="㇐" d="M49.2 50.4c2.64.57 5.28.67 7.94.29 8.85-1.07 20.34-2.22 28.61-2.68 2.43-.26 4.84-.14 7.25.37"/></g><g id="kvg:086d9-g7" kvg:element="土" kvg:position="bottom"><path id="kvg:086d9-s10" kvg:type="㇐" d="M50.57 70.71c2.39.46 4.79.5 7.19.13 9.18-.84 16.55-1.64 24.86-2.01 2.47-.28 4.93-.2 7.37.23"/><path id="kvg:086d9-s11" kvg:type="㇑a" d="M68.1 56.07c.85.85 1.18 1.95 1.18 3.72.0 11.39.13 13.64.13 28.7"/><path id="kvg:086d9-s12" kvg:type="㇐" d="M44.8 90.26c3.01.55 6.03.68 9.08.4 14.37-1.29 22.62-1.91 35.75-2.26 2.9-.08 5.76.14 8.58.83"/></g></g></g></g><g id="kvg:StrokeNumbers_086d9" style="font-size:8;fill:#808080"><text transform="matrix(1 0 0 1 8.50 46.50)">1</text><text transform="matrix(1 0 0 1 17.50 36.50)">2</text><text transform="matrix(1 0 0 1 20.71 57.50)">3</text><text transform="matrix(1 0 0 1 18.50 20.85)">4</text><text transform="matrix(1 0 0 1 5.50 87.50)">5</text><text transform="matrix(1 0 0 1 41.58 67.85)">6</text><text transform="matrix(1 0 0 1 46.50 31.50)">7</text><text transform="matrix(1 0 0 1 57.25 12.50)">8</text><text transform="matrix(1 0 0 1 47.50 47.50)">9</text><text transform="matrix(1 0 0 1 47.50 67.50)">10</text><text transform="matrix(1 0 0 1 55.50 59.50)">11</text><text transform="matrix(1 0 0 1 48.50 87.50)">12</text></g></svg>