<svg xmlns="http://www.w3.org/2000/svg" width="109" height="109" viewBox="0 0 109 109"><g id="kvg:StrokePaths_086fb" style="fill:none;stroke:#000000;stroke-width:3;stroke-linecap:round;stroke-linejoin:round;"><g id="kvg:086fb" kvg:element="蛻"><g id="kvg:086fb-g1" kvg:element="虫" kvg:position="left" kvg:radical="general"><g id="kvg:086fb-g2" kvg:element="中"><g id="kvg:086fb-g3" kvg:element="口"><path id="kvg:086fb-s1" kvg:type="㇑" d="M12.22 36.4c.43.51.95 1.4 1.05 2.06.81 5.79 1.75 13.29 2.92 21.93"/><path id="kvg:086fb-s2" kvg:type="㇕b" d="M14.05 38.48c6.49-.97 20.22-3.83 24.91-4.2 1.83-.14 2.68 1.38 2.45 2.83-.78 4.98-1.85 10.84-3.12 19.12"/><path id="kvg:086fb-s3" kvg:type="㇐b" d="M16.42 58.43c6.08-.68 15.83-1.68 23.61-2.39"/></g><g id="kvg:086fb-g4" kvg:element="丨"><path id="kvg:086fb-s4" kvg:type="㇑a" d="M25.53 16.75c1.01 1 2.12 2.75 2.12 4.47.0 4.78-.18 43.78-.18 57.16"/></g></g><path id="kvg:086fb-s5" kvg:type="㇀" d="M11.57 85.77c.56 1.16 2.3 1.11 2.86.82.56-.29 22.96-12.65 26.44-14.97"/><path id="kvg:086fb-s6" kvg:type="㇔" d="M35.83 63.75c2.99 3.03 7.73 12.44 8.47 17.14"/></g><g id="kvg:086fb-g5" kvg:element="兌" kvg:position="right"><g id="kvg:086fb-g6" kvg:element="八" kvg:position="top"><g id="kvg:086fb-g7" kvg:position="left"><path id="kvg:086fb-s7" kvg:type="㇒" d="M60.45 18.21c.04.43.08 1.12-.07 1.74-.92 3.68-4.88 10.08-11.93 16.69"/></g><g id="kvg:086fb-g8" kvg:position="right"><path id="kvg:086fb-s8" kvg:type="㇔" d="M69.73 13c2.15.23 17.94 18.21 20.49 20.57 1.06.98 1.96 1.4 3.02 1.68"/></g></g><g id="kvg:086fb-g9" kvg:element="兄" kvg:position="bottom"><g id="kvg:086fb-g10" kvg:element="口" kvg:position="top"><path id="kvg:086fb-s9" kvg:type="㇑" d="M53.28 39.74c.34.64.73 1.08.85 1.58.84 3.62 1.37 13.44 1.56 21"/><path id="kvg:086fb-s10" kvg:type="㇕b" d="M54.24 41.7c6.02-1.24 23.17-2.35 27.46-3.21 1.47-.29 2.82 1.5 2.54 3.31-.71 4.59-2.44 11.24-3.41 17.17"/><path id="kvg:086fb-s11" kvg:type="㇐b" d="M56.35 60.69c4.45-.38 19.84-1.1 25.99-1.73"/></g><g id="kvg:086fb-g11" kvg:element="儿" kvg:original="八" kvg:position="bottom"><g id="kvg:086fb-g12" kvg:element="丿"><path id="kvg:086fb-s12" kvg:type="㇒" d="M62.06 64.46c.06.74.12 1.92-.11 2.98C60.56 73.74 55.25 89 41.82 96"/></g><path id="kvg:086fb-s13" kvg:type="㇟" d="M72.5 62.25c.54.66.85 1.82.88 3.64.08 5-.26 11.76-.26 17.96.0 10.6 1.16 11.7 11.22 11.7 11.66.0 11.83-2.04 11.83-9"/></g></g></g></g></g></svg>