<svg xmlns="http://www.w3.org/2000/svg" width="109" height="109" viewBox="0 0 109 109"><g id="kvg:StrokePaths_08703"><g id="kvg:08703" kvg:element="蜃"><g id="kvg:08703-g1" kvg:element="辰" kvg:position="top" kvg:radical="nelson"><g id="kvg:08703-g2" kvg:element="厂"><path id="kvg:08703-s1" kvg:type="㇐" d="M25.9 14.73c1.45.38 4.11.47 5.56.38 11.75-.72 37.78-3.74 44.05-4.07 2.41-.13 3.87.18 5.08.38"/><path id="kvg:08703-s2" kvg:type="㇒" d="M28.86 15.55c.05 1.5-.1 3.87-.1 6.03.0 13.9-3.52 36.92-17.52 49.56"/></g><path id="kvg:08703-s3" kvg:type="㇐" d="M38.67 22.47c1.13.24 3.2.31 4.33.24 7.2-.42 20.09-2.06 27.27-2.45 1.87-.1 3.02.11 3.96.23"/><path id="kvg:08703-s4" kvg:type="㇐" d="M31.93 32.48c1.08.3 3.05.38 4.12.3 6.85-.52 33.38-3.66 40.78-3.75 1.79-.02 5.16.14 6.05.29"/><path id="kvg:08703-s5" kvg:type="㇙" d="M35.86 33.58c1.37 1.1 1.28 1.58 1.28 3.15.0 7.46.09 14.55.09 15.81s1.01 2.48 2.92 1.53c1.91-.95 11.94-5.66 14.5-6.6"/><path id="kvg:08703-s6" kvg:type="㇒" d="M76.58 32.38c.02.2.05.53-.05.82-.62 1.74-4.15 5.55-9 7.89"/><path id="kvg:08703-s7" kvg:type="㇏" d="M50.6 35.29c7.04 1.5 27.31 15.46 32.82 18.32 1.87.97 3.47 1.39 5.33 1.66"/></g><g id="kvg:08703-g3" kvg:element="虫" kvg:position="bottom" kvg:radical="tradit"><g id="kvg:08703-g4" kvg:element="中"><g id="kvg:08703-g5" kvg:element="口"><path id="kvg:08703-s8" kvg:type="㇑" d="M30.95 64.81c.73.53 1.26 1.85 1.4 2.55 1 5.09 1.67 4.29 3.07 13.93"/><path id="kvg:08703-s9" kvg:type="㇕b" d="M32.9 66.36c11.19-1.02 37.64-3.45 45.74-3.84 3.16-.15 3.53 1.68 2.99 3.88-.76 3.1-1.89 6.1-2.9 9.97"/><path id="kvg:08703-s10" kvg:type="㇐b" d="M35.84 79.24c9-1.02 31.73-2.1 44.33-3.06"/></g><g id="kvg:08703-g6" kvg:element="丨"><path id="kvg:08703-s11" kvg:type="㇑a" d="M53.38 52.75c1.11.43 1.78 1.94 2 2.8s-.22 30.95-.22 36.66"/></g></g><path id="kvg:08703-s12" kvg:type="㇀" d="M25.85 94.35c1.17.46 1.87 1.04 3.04.92s44.89-5.41 52.13-6.33"/><path id="kvg:08703-s13" kvg:type="㇔" d="M71.11 80.75c6.35 3.04 16.41 12.5 18 17.24"/></g></g></g></svg>