<svg xmlns="http://www.w3.org/2000/svg" width="109" height="109" viewBox="0 0 109 109"><g id="kvg:StrokePaths_08702"><g id="kvg:08702" kvg:element="蜂"><g id="kvg:08702-g1" kvg:element="虫" kvg:position="left" kvg:radical="general"><g id="kvg:08702-g2" kvg:element="中"><g id="kvg:08702-g3" kvg:element="口"><path id="kvg:08702-s1" kvg:type="㇑" d="M11.01 37.4c.43.51.97 1.4 1.07 2.06.83 5.79 1.78 13.29 2.97 21.93"/><path id="kvg:08702-s2" kvg:type="㇕b" d="M12.88 39.48c6.6-.97 18.57-3.83 23.35-4.2 1.86-.14 2.72 1.38 2.49 2.83-.79 4.98-1.88 9.84-3.17 18.12"/><path id="kvg:08702-s3" kvg:type="㇐b" d="M15.29 59.43c5.31-.98 15.1-2.48 22.53-3.39"/></g><g id="kvg:08702-g4" kvg:element="丨"><path id="kvg:08702-s4" kvg:type="㇑a" d="M23.42 15.75c1.08 1 2.26 2.75 2.26 4.47.0 4.78-.2 46.78-.2 60.16"/></g></g><path id="kvg:08702-s5" kvg:type="㇀" d="M10.57 86.27c.6 1.16 2.46 1.11 3.06.82s21.04-10.15 24.76-12.47"/><path id="kvg:08702-s6" kvg:type="㇔" d="M34.25 67.5c2.4 2.19 6.21 8.99 6.81 12.39"/></g><g id="kvg:08702-g5" kvg:element="夆" kvg:position="right"><g id="kvg:08702-g6" kvg:element="夂"><path id="kvg:08702-s7" kvg:type="㇒" d="M61.32 9.75c.04.57.09 1.48-.08 2.3-1.03 4.84-6.92 15.46-14.98 21.97"/><path id="kvg:08702-s8" kvg:type="㇇" d="M61.22 16.7c.78.3 2 .5 2.81.4 2.67-.32 10.71-2.03 14.52-3.03 2.61-.69 3.36.78 2.69 2.65-3.67 10.23-19.49 27.03-35.97 33.53"/><path id="kvg:08702-s9" kvg:type="㇏" d="M55.53 23.57c5.09 4.07 28.14 19.51 35 23.23 2.04 1.11 3.7 1.65 5.69 1.98"/></g><g id="kvg:08702-g7" kvg:element="丰" kvg:position="bottom" kvg:phon="丰"><g id="kvg:08702-g8" kvg:element="三"><g id="kvg:08702-g9" kvg:element="一" kvg:position="top"><path id="kvg:08702-s10" kvg:type="㇐" d="M53.3 54.65c.81.37 2.29.46 3.1.37 9.35-1.02 17.1-1.77 24.9-2.76 1.34-.17 2.16.18 2.83.36"/></g><g id="kvg:08702-g10" kvg:position="bottom"><g id="kvg:08702-g11" kvg:element="一"><path id="kvg:08702-s11" kvg:type="㇐" d="M51.3 67.4c.81.37 2.29.46 3.1.37 9.35-1.02 20.6-2.27 28.4-3.26 1.34-.17 2.16.18 2.83.36"/></g><g id="kvg:08702-g12" kvg:element="一"><path id="kvg:08702-s12" kvg:type="㇐" d="M47.3 80.25c1.35.62 3.82.67 5.17.62 9.77-.37 25.27-3.12 36.92-3.95 2.25-.16 3.6.29 4.72.61"/></g></g></g><g id="kvg:08702-g13" kvg:element="丨"><path id="kvg:08702-s13" kvg:type="㇑" d="M67.58 43.5c.67.39 2.21 2.25 2.21 3.74.0 8.26.28 42.51.28 53.11"/></g></g></g></g></g></svg>