<svg xmlns="http://www.w3.org/2000/svg" width="109" height="109" viewBox="0 0 109 109"><g id="kvg:StrokePaths_0870a"><g id="kvg:0870a" kvg:element="蜊"><g id="kvg:0870a-g1" kvg:element="虫" kvg:position="left" kvg:radical="general"><g id="kvg:0870a-g2" kvg:element="中"><g id="kvg:0870a-g3" kvg:element="口"><path id="kvg:0870a-s1" kvg:type="㇑" d="M10.26 38.86c.46.5 1.02 1.37 1.12 2.02.87 5.68 1.87 13.04 3.12 21.51"/><path id="kvg:0870a-s2" kvg:type="㇕b" d="M11.72 40.4c6.93-.95 21.61-3.26 26.63-3.62 1.96-.14 2.86 1.35 2.62 2.78-.83 4.88-2.48 10.15-3.83 18.27"/><path id="kvg:0870a-s3" kvg:type="㇐b" d="M14.76 59.97c5.58-.96 16.96-1.43 24.76-2.32"/></g><g id="kvg:0870a-g4" kvg:element="丨"><path id="kvg:0870a-s4" kvg:type="㇑a" d="M23.42 17.25c1.08 1 2.26 2.75 2.26 4.47.0 4.78-.2 45.28-.2 58.66"/></g></g><path id="kvg:0870a-s5" kvg:type="㇀" d="M11.57 85.77c.6 1.16 2.46 1.11 3.06.82s20.04-11.65 23.76-13.97"/><path id="kvg:0870a-s6" kvg:type="㇔" d="M34.25 65.25c2.75 2.76 7.12 11.35 7.81 15.64"/></g><g id="kvg:0870a-g5" kvg:element="利" kvg:position="right"><g id="kvg:0870a-g6" kvg:element="禾" kvg:position="left"><g id="kvg:0870a-g7" kvg:element="丿" kvg:position="top"><path id="kvg:0870a-s7" kvg:type="㇒" d="M65.05 15.21c.05.36.23 1-.11 1.45-2.68 3.59-11.43 10.09-19.85 13.92"/></g><g id="kvg:0870a-g8" kvg:element="木" kvg:position="bottom"><path id="kvg:0870a-s8" kvg:type="㇐" d="M44.87 45.53c.28.11 1.01.29 1.75.33 2.02.11 19.04-2.58 24.09-3.14.73-.08.92-.11 1.38.0"/><path id="kvg:0870a-s9" kvg:type="㇑" d="M59.49 26.73c.58.46 1.03 3.52 1.03 4.45.0 5.46.0 58.52-.11 64.34"/><path id="kvg:0870a-s10" kvg:type="㇒" d="M60.28 46.43c-2.79 7.32-7.46 16.35-13.79 22.34"/><path id="kvg:0870a-s11" kvg:type="㇏" d="M62.93 52.3c3.79 2.07 7 6.2 9.04 8.86"/></g></g><g id="kvg:0870a-g9" kvg:element="刂" kvg:variant="true" kvg:original="刀" kvg:position="right"><path id="kvg:0870a-s12" kvg:type="㇑" d="M78.5 23.62c.64.87 1.08 1.9 1.14 4.79.26 13.88-.01 42.8-.01 47.53"/><path id="kvg:0870a-s13" kvg:type="㇚" d="M93.71 15.83c1.01.88 1.72 1.91 1.8 4.83.41 14.01-.26 64.49-.26 69.26.0 11.34-6.89 1.45-8.43.24"/></g></g></g></g></svg>