<svg xmlns="http://www.w3.org/2000/svg" width="109" height="109" viewBox="0 0 109 109"><g id="kvg:StrokePaths_08729" style="fill:none;stroke:#000000;stroke-width:3;stroke-linecap:round;stroke-linejoin:round;"><g id="kvg:08729" kvg:element="蜩"><g id="kvg:08729-g1" kvg:element="虫" kvg:position="left" kvg:radical="general"><g id="kvg:08729-g2" kvg:element="中"><g id="kvg:08729-g3" kvg:element="口"><path id="kvg:08729-s1" kvg:type="㇑" d="M13.76 33.9c.46.51 1.02 1.4 1.12 2.06.87 5.79 1.62 14.54 2.62 22.93"/><path id="kvg:08729-s2" kvg:type="㇕b" d="M15.22 35.98c6.93-.97 20.11-2.83 25.13-3.2 1.96-.14 2.86 1.38 2.62 2.83-.83 4.98-1.98 9.84-3.33 18.12"/><path id="kvg:08729-s3" kvg:type="㇐b" d="M17.26 56.43c5.58-.98 16.46-1.48 24.26-2.39"/></g><g id="kvg:08729-g4" kvg:element="丨"><path id="kvg:08729-s4" kvg:type="㇑a" d="M25.92 15.25c1.08 1 2.26 2.75 2.26 4.47.0 4.78-.2 43.78-.2 57.16"/></g></g><path id="kvg:08729-s5" kvg:type="㇀" d="M13.07 83.7c.55 1.24 2.24 1.19 2.79.88.55-.31 22.38-13.48 25.77-15.96"/><path id="kvg:08729-s6" kvg:type="㇔" d="M37 61.25c2.49 2.41 6.43 9.9 7.06 13.64"/></g><g id="kvg:08729-g5" kvg:element="周" kvg:variant="true" kvg:position="right"><g id="kvg:08729-g6" kvg:element="冂" kvg:variant="true"><path id="kvg:08729-s7" kvg:type="㇒/㇑" d="M51.64 17.24c.44 1.15 1.03 2.95 1.03 5.03.0 3.22-.35 6.21.01 21.38.58 24.6-1.42 43.1-13.42 53.42"/><path id="kvg:08729-s8" kvg:type="㇆a" d="M52.53 19.07C58.14 18.15 89.48 15 90.6 15c2.08.0 3.25 2.2 3.25 4.37.0 2.3.15 62.68.15 67.97.0 12.17-6 3.67-8.75 1.27"/></g><g id="kvg:08729-g7" kvg:element="吉" kvg:variant="true"><g id="kvg:08729-g8" kvg:element="士" kvg:variant="true"><path id="kvg:08729-s9" kvg:type="㇐" d="M60.1 32.76c.89.36 2.52.25 3.41.22 4.82-.19 13.27-2.2 16.83-2.37 1.49-.07 2.37.06 3.12.22"/><path id="kvg:08729-s10" kvg:type="㇐" d="M57.35 44.62c.93.18 2.63.68 3.56.6 5.07-.49 15.77-2.18 21.83-2.33 1.55-.04 2.48.02 3.25.1"/><path id="kvg:08729-s11" kvg:type="㇑" d="M70.78 22.96c.57.32.92 1.57 1.03 2.29.12.72.01 22.02-.11 26.56"/></g><g id="kvg:08729-g9" kvg:element="口"><path id="kvg:08729-s12" kvg:type="㇑" d="M61.48 57.54c.19.35.38.64.46 1.08.65 3.48 2.94 12.46 3.38 18.68"/><path id="kvg:08729-s13" kvg:type="㇕b" d="M62.72 59.76C68.5 59 77.75 57 80.5 56.81c1.26-.09 2.39 1.83 2.23 2.79-.68 3.97-2.07 8.28-3.43 13.96"/><path id="kvg:08729-s14" kvg:type="㇐b" d="M65.52 75.03c5.03-.65 12.08-1.26 15.81-1.36"/></g></g></g></g></g></svg>