<svg xmlns="http://www.w3.org/2000/svg" width="109" height="109" viewBox="0 0 109 109"><g id="kvg:StrokePaths_0874c"><g id="kvg:0874c" kvg:element="蝌"><g id="kvg:0874c-g1" kvg:element="虫" kvg:position="left" kvg:radical="general"><g id="kvg:0874c-g2" kvg:element="中"><g id="kvg:0874c-g3" kvg:element="口"><path id="kvg:0874c-s1" kvg:type="㇑" d="M11.76 33.74c.4.59.9 1.62.99 2.4.76 6.73 1.64 15.45 2.75 25.5"/><path id="kvg:0874c-s2" kvg:type="㇕b" d="M13.49 36.16c6.1-1.13 18.51-3.46 22.93-3.89 1.72-.17 2.52 1.6 2.3 3.29-.73 5.79-1.74 12.44-2.93 22.06"/><path id="kvg:0874c-s3" kvg:type="㇐b" d="M15.72 59.36c7.53-.86 13.03-1.61 22.17-1.94"/></g><g id="kvg:0874c-g4" kvg:element="丨"><path id="kvg:0874c-s4" kvg:type="㇑a" d="M23.42 13.75c1.08 1 2.26 2.75 2.26 4.47.0 4.78-.2 49.78-.2 63.16"/></g></g><path id="kvg:0874c-s5" kvg:type="㇀" d="M11.57 86.77c.6 1.16 2.46 1.11 3.06.82S32 78.25 37.89 75.62"/><path id="kvg:0874c-s6" kvg:type="㇔" d="M32.5 67.25c3.2 3.03 8.26 12.44 9.06 17.14"/></g><g id="kvg:0874c-g5" kvg:element="科" kvg:position="right"><g id="kvg:0874c-g6" kvg:element="禾" kvg:position="left"><g id="kvg:0874c-g7" kvg:element="丿" kvg:position="top"><path id="kvg:0874c-s7" kvg:type="㇒" d="M62.26 12.25c.05.3.12.77-.11 1.21C60.8 16 53.08 21.58 42.5 25"/></g><g id="kvg:0874c-g8" kvg:element="木" kvg:position="bottom"><path id="kvg:0874c-s8" kvg:type="㇐" d="M40.44 41.12c.47.16 1.71.42 2.95.48 3.41.16 11.76-1.69 20.29-2.49 1.24-.12 1.55-.16 2.33.0"/><path id="kvg:0874c-s9" kvg:type="㇑" d="M53.64 24.12c.56.63 1.4 2.83 1.51 4.08.11 1.26.0 64.88-.11 70.54"/><path id="kvg:0874c-s10" kvg:type="㇒" d="M54.53 42.13c-2.29 8.6-7.73 20.01-11.78 26.25"/><path id="kvg:0874c-s11" kvg:type="㇔" d="M57 48.5c3.02 1.98 7.8 8.14 8.56 11.22"/></g></g><g id="kvg:0874c-g9" kvg:element="斗" kvg:position="right"><g id="kvg:0874c-g10" kvg:element="丶"><path id="kvg:0874c-s12" kvg:type="㇔" d="M69.75 21.5C73.37 23 79.09 27.67 80 30"/></g><g id="kvg:0874c-g11" kvg:element="丶"><path id="kvg:0874c-s13" kvg:type="㇔" d="M67 44.5c4.06 1.28 10.48 5.26 11.5 7.25"/></g><path id="kvg:0874c-s14" kvg:type="㇐" d="M62.25 68.98c.81.22 2.97.82 5.11.66 8.79-.66 15.54-3.39 27.61-5.3 2.1-.33 2.69-.22 4.03.0"/><path id="kvg:0874c-s15" kvg:type="㇑" d="M85.37 12.75c1.09.5 1.74 2.25 1.96 3.25s0 75.75-.22 82"/></g></g></g></g></svg>