<!DOCTYPE svg PUBLIC "-//W3C//DTD SVG 1.0//EN" "http://www.w3.org/TR/2001/REC-SVG-20010904/DTD/svg10.dtd" [
<!ATTLIST g
xmlns:kvg CDATA #FIXED "http://kanjivg.tagaini.net"
kvg:element CDATA #IMPLIED
kvg:variant CDATA #IMPLIED
kvg:partial CDATA #IMPLIED
kvg:original CDATA #IMPLIED
kvg:part CDATA #IMPLIED
kvg:number CDATA #IMPLIED
kvg:tradForm CDATA #IMPLIED
kvg:radicalForm CDATA #IMPLIED
kvg:position CDATA #IMPLIED
kvg:radical CDATA #IMPLIED
kvg:phon CDATA #IMPLIED >
<!ATTLIST path
xmlns:kvg CDATA #FIXED "http://kanjivg.tagaini.net"
kvg:type CDATA #IMPLIED >
]><svg xmlns="http://www.w3.org/2000/svg" width="109" height="109" viewBox="0 0 109 109"><g id="kvg:StrokePaths_08755" style="fill:none;stroke:#000000;stroke-width:3;stroke-linecap:round;stroke-linejoin:round;"><g id="kvg:08755" kvg:element="蝕"><g id="kvg:08755-g1" kvg:element="⻞" kvg:original="食" kvg:position="left" kvg:radical="nelson"><path id="kvg:08755-s1" kvg:type="㇒" d="M31.26 13.64c.06.65.28 1.74-.11 2.62C28.61 22.01 21.33 33.28 11 41.75"/><path id="kvg:08755-s2" kvg:type="㇔/㇏" d="M34.25 19.75c4.08 1.76 10.54 7.23 11.56 9.97"/><path id="kvg:08755-s3" kvg:type="㇐" d="M26.25 33.16c.36.15 1.02.19 1.39.15 2.3-.25 8.37-2.17 10.6-2 .6.05.96.07 1.27.14"/><path id="kvg:08755-s4" kvg:type="㇑" d="M19.27 41.44c.4.78.81 1.66.81 2.7.0 1.04-.13 54.33.0 55.37"/><path id="kvg:08755-s5" kvg:type="㇕" d="M20.22 43.05c2.27-.13 18.45-2.15 20.52-2.31 1.72-.13 2.83 1.44 2.7 2.2-.27 1.56-1.98 17.89-2.54 21.33"/><path id="kvg:08755-s6" kvg:type="㇐a" d="M20.62 53.12c3.07.0 17.88-1.79 21.36-1.79"/><path id="kvg:08755-s7" kvg:type="㇐a" d="M20.48 64.36c6.26-.56 12.71-1.54 20.51-2.02"/><path id="kvg:08755-s8" kvg:type="㇐c" d="M20.42 76.75c3.85-.25 16.49-2.64 20.22-2.47 1 .04 1.61.07 2.11.14"/><path id="kvg:08755-s9" kvg:type="㇐c" d="M20.94 89.88c3.85-.25 17-2.15 20.73-1.98 1 .04 1.61.07 2.11.14"/></g><g id="kvg:08755-g2" kvg:element="虫" kvg:position="right" kvg:radical="tradit"><g id="kvg:08755-g3" kvg:element="中"><g id="kvg:08755-g4" kvg:element="口"><path id="kvg:08755-s10" kvg:type="㇑" d="M53 39.79c.58.53 1 1.85 1.11 2.55.79 5.09 1.6 11.8 2.72 21.43"/><path id="kvg:08755-s11" kvg:type="㇕b" d="M54.54 41.84c8.88-1.02 27.83-3.95 34.25-4.34 2.51-.15 2.62 1.63 2.37 3.89-.58 5.26-2.43 9.29-4.16 17.97"/><path id="kvg:08755-s12" kvg:type="㇐b" d="M57.15 61.73c7.15-1.02 23-1.6 33-2.56"/></g><g id="kvg:08755-g5" kvg:element="丨"><path id="kvg:08755-s13" kvg:type="㇑a" d="M69.12 13.75c1.09.42 1.75 1.91 1.97 2.76.22.85.0 63.68-.22 68.99"/></g></g><path id="kvg:08755-s14" kvg:type="㇀" d="M51.75 89.92c.82.92 2.81 1.06 3.62.83.82-.23 28.82-9.24 33.88-11.07"/><path id="kvg:08755-s15" kvg:type="㇔" d="M85.49 73.25c3.34 3.31 8.63 13.6 9.46 18.74"/></g></g></g><g id="kvg:StrokeNumbers_08755" style="font-size:8;fill:#808080"><text transform="matrix(1 0 0 1 23.50 14.50)">1</text><text transform="matrix(1 0 0 1 37.50 18.05)">2</text><text transform="matrix(1 0 0 1 30.50 28.50)">3</text><text transform="matrix(1 0 0 1 13.25 50.75)">4</text><text transform="matrix(1 0 0 1 21.50 41.75)">5</text><text transform="matrix(1 0 0 1 24.50 51.50)">6</text><text transform="matrix(1 0 0 1 24.54 61.18)">7</text><text transform="matrix(1 0 0 1 24.51 73.35)">8</text><text transform="matrix(1 0 0 1 24.51 86.10)">9</text><text transform="matrix(1 0 0 1 46.50 49.50)">10</text><text transform="matrix(1 0 0 1 55.75 38.50)">11</text><text transform="matrix(1 0 0 1 59.50 59.50)">12</text><text transform="matrix(1 0 0 1 55.50 14.50)">13</text><text transform="matrix(1 0 0 1 49.50 85.50)">14</text><text transform="matrix(1 0 0 1 84.50 71.50)">15</text></g></svg>