<svg xmlns="http://www.w3.org/2000/svg" width="109" height="109" viewBox="0 0 109 109"><g id="kvg:StrokePaths_08768"><g id="kvg:08768" kvg:element="蝨"><g id="kvg:08768-g1" kvg:position="top"><g id="kvg:08768-g2" kvg:element="乙"><path id="kvg:08768-s1" kvg:type="㇈" d="M24.75 18.72c1.26-.09 2.79.35 4.5.19 13-1.17 35-4.67 42.46-6.17 2.49-.5 3.14 1.81 2.93 3.76-1.14 10.24-2.89 26.74 12.89 33.31 7.88 3.28 7.97 1.43 6.47-3.93"/></g><g id="kvg:08768-g3" kvg:element="十" kvg:variant="true"><path id="kvg:08768-s2" kvg:type="㇐" d="M23.25 34.39c1.21.38 3.42.42 4.63.38 9.87-.27 27.62-3.27 36.14-4.38 1.99-.26 3.22.18 4.23.37"/><path id="kvg:08768-s3" kvg:type="㇒" d="M49.25 22.64c.5.61.43 1.65.38 2.61C49.25 33 42.25 46 28.56 50.22"/></g></g><g id="kvg:08768-g4" kvg:position="bottom"><g id="kvg:08768-g5" kvg:element="虫" kvg:position="left" kvg:radical="general"><g id="kvg:08768-g6" kvg:element="中"><g id="kvg:08768-g7" kvg:element="口"><path id="kvg:08768-s4" kvg:type="㇑" d="M18.49 62.8c.48.33.83 1.14.92 1.58.65 3.14 1.82 9.28 2.74 15.23"/><path id="kvg:08768-s5" kvg:type="㇕b" d="M19.76 64.07c7.33-.63 23.38-2.44 28.68-2.68 2.07-.09 2.16 1 1.96 2.4-.48 3.25-.77 5.12-2.19 10.48"/><path id="kvg:08768-s6" kvg:type="㇐b" d="M21.92 76.84c5.9-.63 18.98-2.11 27.23-2.7"/></g><g id="kvg:08768-g8" kvg:element="丨"><path id="kvg:08768-s7" kvg:type="㇑a" d="M33.11 53.5c.68.24 1.08 1.09 1.22 1.58.14.49.0 32.91-.13 35.95"/></g></g><path id="kvg:08768-s8" kvg:type="㇀" d="M17.25 94.62c.77.57 2.24 1.29 3.01 1.15.77-.14 20.24-6.51 26.99-8.38"/><path id="kvg:08768-s9" kvg:type="㇔" d="M43.99 81.22c2.37 2.43 6.13 9.97 6.72 13.75"/></g><g id="kvg:08768-g9" kvg:element="虫" kvg:position="right"><g id="kvg:08768-g10" kvg:element="中"><g id="kvg:08768-g11" kvg:element="口"><path id="kvg:08768-s10" kvg:type="㇑" d="M56.99 60.82c.55.33.95 1.16 1.05 1.6.75 3.19 1.02 7.89 2.08 13.93"/><path id="kvg:08768-s11" kvg:type="㇕b" d="M58.45 62.11c8.42-.64 23.35-2.48 29.44-2.72 2.38-.09 2.48 1.02 2.25 2.44-.55 3.29-.88 5.2-2.52 10.64"/><path id="kvg:08768-s12" kvg:type="㇐b" d="M60.43 74.57c6.77-.64 19.8-1.63 29.28-2.23"/></g><g id="kvg:08768-g12" kvg:element="丨"><path id="kvg:08768-s13" kvg:type="㇑a" d="M72.11 49c.68.29 1.08 1.31 1.22 1.9.14.58.0 36.23-.13 39.89"/></g></g><path id="kvg:08768-s14" kvg:type="㇀" d="M57.75 93.12c.77.57 1.74 1.29 2.51 1.15.77-.14 24.19-5.23 28.99-6.38"/><path id="kvg:08768-s15" kvg:type="㇔" d="M83.24 81.47c3.87 2.65 10 10.88 10.97 15"/></g></g></g></g></svg>