<svg xmlns="http://www.w3.org/2000/svg" width="109" height="109" viewBox="0 0 109 109"><g id="kvg:StrokePaths_087b3"><g id="kvg:087b3" kvg:element="螳"><g id="kvg:087b3-g1" kvg:element="虫" kvg:position="left" kvg:radical="general"><g id="kvg:087b3-g2" kvg:element="中"><g id="kvg:087b3-g3" kvg:element="口"><path id="kvg:087b3-s1" kvg:type="㇑" d="M10.76 36.26c.42.6.94 1.64 1.03 2.42.8 6.79 1.22 15.58 2.37 25.71"/><path id="kvg:087b3-s2" kvg:type="㇕b" d="M12.56 37.7c6.38-1.14 17.88-2.49 22.49-2.93 1.8-.17 2.63 1.61 2.41 3.32-.77 5.83-1.82 11.54-3.06 21.24"/><path id="kvg:087b3-s3" kvg:type="㇐b" d="M14.4 62.09c5.13-1.14 15.02-1.91 22.2-2.97"/></g><g id="kvg:087b3-g4" kvg:element="丨"><path id="kvg:087b3-s4" kvg:type="㇑a" d="M21.92 16.75c1.08 1 2.26 2.75 2.26 4.47.0 4.78-.2 49.28-.2 62.66"/></g></g><path id="kvg:087b3-s5" kvg:type="㇀" d="M11.57 88.27c.6 1.16 2.46 1.11 3.06.82s18.54-10.15 22.26-12.47"/><path id="kvg:087b3-s6" kvg:type="㇔" d="M33 69.25c2.49 2.76 6.43 11.35 7.06 15.64"/></g><g id="kvg:087b3-g5" kvg:element="堂" kvg:position="right"><g id="kvg:087b3-g6" kvg:element="尚" kvg:variant="true" kvg:position="top"><g id="kvg:087b3-g7" kvg:element="⺌" kvg:variant="true" kvg:original="小" kvg:position="top"><path id="kvg:087b3-s7" kvg:type="㇑" d="M65.57 11.12c.13.28 1.92 1.45 1.89 3.22-.2 10.17-.33 15.82-.33 18.71"/><path id="kvg:087b3-s8" kvg:type="㇔" d="M46.57 18.22c3.07 1.92 7.92 7.88 8.69 10.87"/><path id="kvg:087b3-s9" kvg:type="㇒" d="M84.61 14.54c.02.38.04.98-.04 1.52-.45 3.21-3.36 9.66-6.87 13.97"/></g><g id="kvg:087b3-g8" kvg:position="bottom"><g id="kvg:087b3-g9" kvg:element="冂" kvg:variant="true"><path id="kvg:087b3-s10" kvg:type="㇔" d="M46.68 32.75c-.12 3.72-2.17 12.43-3.18 14.64"/><path id="kvg:087b3-s11" kvg:type="㇖" d="M46.36 35.84c2.2-.34 31.67-3.83 44.62-4.46 7.69-.37.7 6.53-.51 7.89"/></g><g id="kvg:087b3-g10" kvg:element="口"><path id="kvg:087b3-s12" kvg:type="㇑" d="M52.05 45c.21.23.46.41.53.71.61 2.64 2.11 11.67 2.72 15.54"/><path id="kvg:087b3-s13" kvg:type="㇕b" d="M53.38 46.84c3.98-.52 26.33-2.98 30.01-3.51.92-.13 1.84.59 1.61 2.15-.4 2.69-.94 6.2-1.9 11.54"/><path id="kvg:087b3-s14" kvg:type="㇐b" d="M55.75 59.54c5.11-.68 24.41-1.8 28.46-2.27"/></g></g></g><g id="kvg:087b3-g11" kvg:element="土" kvg:position="bottom"><path id="kvg:087b3-s15" kvg:type="㇐" d="M51.19 75.21c1.1.26 3.1.28 4.2.26 8.86-.16 20.11-1.74 29.45-2.06 1.83-.06 2.93.12 3.84.25"/><path id="kvg:087b3-s16" kvg:type="㇑a" d="M67.3 63.87c.08.27 1.09 1.39 1.17 3.09.34 7.31-.04 22.35-.04 25.95"/><path id="kvg:087b3-s17" kvg:type="㇐" d="M40.77 94.49c1.36.67 3.86.8 5.23.67C60.75 93.75 78 92.7 93.36 92.21c2.27-.07 3.64.32 4.77.66"/></g></g></g></g></svg>