<svg xmlns="http://www.w3.org/2000/svg" width="109" height="109" viewBox="0 0 109 109"><g id="kvg:StrokePaths_087ba" style="fill:none;stroke:#000000;stroke-width:3;stroke-linecap:round;stroke-linejoin:round;"><g id="kvg:087ba" kvg:element="螺"><g id="kvg:087ba-g1" kvg:element="虫" kvg:position="left" kvg:radical="general"><g id="kvg:087ba-g2" kvg:element="中"><g id="kvg:087ba-g3" kvg:element="口"><path id="kvg:087ba-s1" kvg:type="㇑" d="M12.76 37.4c.46.51 1.02 1.4 1.12 2.06.87 5.79 1.87 12.29 3.12 20.93"/><path id="kvg:087ba-s2" kvg:type="㇕b" d="M14.72 39.48c6.93-.97 21.61-3.33 26.63-3.7 1.96-.14 2.86 1.38 2.62 2.83-.83 4.98-1.98 8.34-3.33 16.62"/><path id="kvg:087ba-s3" kvg:type="㇐b" d="M17.26 58.43c5.58-.98 17.96-2.48 25.76-3.39"/></g><g id="kvg:087ba-g4" kvg:element="丨"><path id="kvg:087ba-s4" kvg:type="㇑a" d="M25.92 18.25c1.08 1 2.26 2.75 2.26 4.47.0 4.78-.2 43.28-.2 56.66"/></g></g><path id="kvg:087ba-s5" kvg:type="㇀" d="M13.07 84.77c.6 1.16 2.46 1.11 3.06.82.6-.29 21.54-11.15 25.26-13.47"/><path id="kvg:087ba-s6" kvg:type="㇔" d="M37.5 65.75c2.49 2.67 6.43 10.99 7.06 15.14"/></g><g id="kvg:087ba-g5" kvg:element="累" kvg:position="right"><g id="kvg:087ba-g6" kvg:element="田" kvg:position="top"><path id="kvg:087ba-s7" kvg:type="㇑" d="M49.56 15.95c.25.36.62 1.05.75 1.5 1.11 3.76 2.25 13.08 2.93 20.1"/><path id="kvg:087ba-s8" kvg:type="㇕a" d="M50.58 16.89c8.58-.95 32.17-3.14 39.48-3.35 2.37-.07 2.83 1.95 2.7 2.99-.44 3.79-3.05 11.14-4.72 19.26"/><path id="kvg:087ba-s9" kvg:type="㇑a" d="M68.59 16.85c.45.68 1.18 1.82 1.2 2.63.17 5.37.06 12.38.06 15.21"/><path id="kvg:087ba-s10" kvg:type="㇐a" d="M53.04 26.19c2.79-.37 34.67-2.65 36.98-2.8"/><path id="kvg:087ba-s11" kvg:type="㇐a" d="M53.33 35.72c6.18-.4 26.18-1.09 34.71-1.75"/></g><g id="kvg:087ba-g7" kvg:element="糸" kvg:position="bottom"><path id="kvg:087ba-s12" kvg:type="㇜" d="M67.68 36.87c.38 1.09.16 1.98-.69 3.08-2 2.6-5.74 6.3-9.41 9.62-.72.65-.76 2.53.0 2.72 2.61.65 7.7 2.09 9.68 3.5"/><path id="kvg:087ba-s13" kvg:type="㇜" d="M82.3 41.85c.38.54.15 2.14-.38 2.72-8.18 8.88-14.99 12.96-27.14 22.88-1.32 1.08-.76 1.81.76 1.45 6.36-1.51 23.89-5.04 32.07-6.49"/><path id="kvg:087ba-s14" kvg:type="㇔" d="M81.94 55.8c3.61 2.63 9.34 10.82 10.24 14.91"/><path id="kvg:087ba-s15" kvg:type="㇑" d="M70.04 69.48c.07.2.97 1.06 1.04 2.35.33 6.21-.21 24.05-.21 26.16"/><path id="kvg:087ba-s16" kvg:type="㇒" d="M57.77 76.79c.22.67.18 2.89-.22 3.37-2.61 3.15-9.13 9.22-12.82 11.92"/><path id="kvg:087ba-s17" kvg:type="㇔" d="M81.69 78.09c4.04 3.14 10.97 11.5 12.42 14.64"/></g></g></g></g></svg>