<svg xmlns="http://www.w3.org/2000/svg" width="109" height="109" viewBox="0 0 109 109"><g id="kvg:StrokePaths_087ef" style="fill:none;stroke:#000000;stroke-width:3;stroke-linecap:round;stroke-linejoin:round;"><g id="kvg:087ef" kvg:element="蟯"><g id="kvg:087ef-g1" kvg:element="虫" kvg:position="left" kvg:radical="general"><g id="kvg:087ef-g2" kvg:element="中"><g id="kvg:087ef-g3" kvg:element="口"><path id="kvg:087ef-s1" kvg:type="㇑" d="M10.76 37.4c.46.51 1.02 1.4 1.12 2.06.87 5.79 2.37 14.79 3.62 23.43"/><path id="kvg:087ef-s2" kvg:type="㇕b" d="M12.22 39.48c6.93-.97 21.11-3.33 26.13-3.7 1.96-.14 2.86 1.38 2.62 2.83-.83 4.98-1.98 10.84-3.33 19.12"/><path id="kvg:087ef-s3" kvg:type="㇐b" d="M15.76 60.93c5.58-.98 15.96-1.98 23.76-2.89"/></g><g id="kvg:087ef-g4" kvg:element="丨"><path id="kvg:087ef-s4" kvg:type="㇑a" d="M24.42 17.25c1.08 1 2.26 2.75 2.26 4.47.0 4.78-.2 45.78-.2 59.16"/></g></g><path id="kvg:087ef-s5" kvg:type="㇀" d="M10.57 87.27c.6 1.16 2.46 1.11 3.06.82s21.04-11.65 24.76-13.97"/><path id="kvg:087ef-s6" kvg:type="㇔" d="M34.5 67c2.67 2.98 6.89 12.26 7.56 16.89"/></g><g id="kvg:087ef-g5" kvg:element="堯" kvg:position="right"><g id="kvg:087ef-g6" kvg:position="top"><g id="kvg:087ef-g7" kvg:element="土" kvg:position="top"><path id="kvg:087ef-s7" kvg:type="㇐" d="M51.93 20.28c.92.24 2.61.66 3.53.74 5.54.48 16.79-1.52 27.78-2.53 1.53-.14 2.46.12 3.22.24"/><path id="kvg:087ef-s8" kvg:type="㇑a" d="M67.17 11.62c.07.23 1.01 1.22 1.01 2.71.0 1.67.29 9.42.29 16.38"/><path id="kvg:087ef-s9" kvg:type="㇐" d="M47.6 33.52c1.23.49 3.48.6 4.7.49 15.19-1.37 22-3.5 35.59-4.14 2.04-.1 3.27.23 4.29.48"/></g><g id="kvg:087ef-g8" kvg:position="bottom"><g id="kvg:087ef-g9" kvg:element="土" kvg:position="left"><path id="kvg:087ef-s10" kvg:type="㇐" d="M47.19 46.14c.78.38 2.31.4 3.1.36 5.17-.25 7.54-1.39 13.07-2 1.3-.14 2.71-.18 3.36.01"/><path id="kvg:087ef-s11" kvg:type="㇑" d="M55.63 39.5c.84.5 1.51 2.23 1.51 3.25.0 7.25.02 3.25.02 14"/><path id="kvg:087ef-s12" kvg:type="㇀/㇐" d="M46.84 59.47c.55.69 1.64 1.68 3.27.76 4.55-2.54 12.73-6.45 17.28-8.99"/></g><g id="kvg:087ef-g10" kvg:element="土" kvg:position="right"><path id="kvg:087ef-s13" kvg:type="㇐" d="M71.11 44.53c.64.32 1.81.33 2.45.32 5.93-.11 14.2-1.61 20-1.71 1.06-.02 1.7.15 2.23.31"/><path id="kvg:087ef-s14" kvg:type="㇑a" d="M81.21 36.12c.07.23 1.09 1.22 1.09 2.71.0 1.67-.22 10.92-.22 17.88"/><path id="kvg:087ef-s15" kvg:type="㇐" d="M68.27 57.73c.74.3 2.48.37 3.22.3 6.61-.54 17.53-1.54 24.16-1.95 1.23-.08 1.98.15 2.59.3"/></g></g></g><g id="kvg:087ef-g11" kvg:element="兀" kvg:position="bottom"><g id="kvg:087ef-g12" kvg:element="一"><path id="kvg:087ef-s16" kvg:type="㇐" d="M47.77 69.26c1.21.44 3.42.49 4.63.44 8.41-.32 24.2-3.87 35.67-3.87 2.01.0 3.22.21 4.23.43"/></g><g id="kvg:087ef-g13" kvg:element="儿" kvg:original="八"><g id="kvg:087ef-g14" kvg:element="丿"><path id="kvg:087ef-s17" kvg:type="㇒" d="M60.8 72.5c.05.6.09 1.54-.1 2.4-1.27 5.93-6.8 18.68-17.04 23.01"/></g><path id="kvg:087ef-s18" kvg:type="㇟" d="M73.09 70.41c.55 1.14 1.02 2.49 1.02 4.25.0 2.36-.02 5.9-.02 11.25.0 9.37 1.53 10.08 11.32 10.08S96.78 95 96.78 85.76"/></g></g></g></g></g></svg>