<svg xmlns="http://www.w3.org/2000/svg" width="109" height="109" viewBox="0 0 109 109"><g id="kvg:StrokePaths_087ec" style="fill:none;stroke:#000000;stroke-width:3;stroke-linecap:round;stroke-linejoin:round;"><g id="kvg:087ec" kvg:element="蟬"><g id="kvg:087ec-g1" kvg:element="虫" kvg:position="left" kvg:radical="general"><g id="kvg:087ec-g2" kvg:element="中"><g id="kvg:087ec-g3" kvg:element="口"><path id="kvg:087ec-s1" kvg:type="㇑" d="M13.51 40.09c.42.49.94 1.36 1.03 2 .8 5.62 1.72 12.91 2.87 21.3"/><path id="kvg:087ec-s2" kvg:type="㇕b" d="M15.31 42.11c6.38-.94 19.88-3.72 24.49-4.08 1.8-.14 2.63 1.34 2.41 2.75-.77 4.83-1.82 9.56-3.06 17.6"/><path id="kvg:087ec-s3" kvg:type="㇐b" d="M17.65 61.49c5.13-.95 16.52-2.41 23.7-3.29"/></g><g id="kvg:087ec-g4" kvg:element="丨"><path id="kvg:087ec-s4" kvg:type="㇑a" d="M25.42 18.25c1.08 1 2.26 2.75 2.26 4.47.0 4.78-.2 42.78-.2 56.16"/></g></g><path id="kvg:087ec-s5" kvg:type="㇀" d="M12.57 83.77c.6 1.16 2.46 1.11 3.06.82s21.04-10.15 24.76-12.47"/><path id="kvg:087ec-s6" kvg:type="㇔" d="M36.25 64.25c2.75 3.11 7.12 12.8 7.81 17.64"/></g><g id="kvg:087ec-g5" kvg:element="單" kvg:variant="true" kvg:original="単" kvg:position="right"><g id="kvg:087ec-g6" kvg:position="top"><g id="kvg:087ec-g7" kvg:element="口" kvg:position="left"><path id="kvg:087ec-s7" kvg:type="㇔" d="M48 14.06c.31.29.66.51.75.89.87 3.3 2.47 8.92 3.34 13.77"/><path id="kvg:087ec-s8" kvg:type="㇔" d="M49.91 15.62c5.65-.7 10.52-1.71 15.73-2.42 1.31-.17 2.1.81 1.91 1.62-.78 3.34-1.07 4.86-2.46 10.41"/><path id="kvg:087ec-s9" kvg:type="㇒" d="M52.74 27.43c4.22-.42 8.27-1.13 14.06-1.79"/></g><g id="kvg:087ec-g8" kvg:element="口" kvg:position="left"><path id="kvg:087ec-s10" kvg:type="㇑" d="M73.79 12.7c.27.31 1.07 1.45 1.15 1.86.77 3.57 1.13 7.6 1.91 12.85"/><path id="kvg:087ec-s11" kvg:type="㇕" d="M75.19 13.99c6.38-.83 13.55-1.86 18.16-2.62 1.16-.19 1.85.88 1.69 1.75-.69 3.61-2.49 6.96-3.4 10.86"/><path id="kvg:087ec-s12" kvg:type="㇐" d="M76.64 25.53c4.9-.29 9.81-.96 17.03-1.08"/></g></g><g id="kvg:087ec-g9" kvg:element="甲" kvg:part="1" kvg:position="bottom"><g id="kvg:087ec-g10" kvg:element="日"><path id="kvg:087ec-s13" kvg:type="㇑" d="M51.74 36.26c.27.52.76 1.43.91 2.08 1.21 5.34 2.75 15.6 3.52 25.51"/><path id="kvg:087ec-s14" kvg:type="㇕" d="M53.49 38.28c10.1-1.79 26.79-3.16 33.75-4.08 2.56-.34 4.1.72 4.02 2.97-.18 5.34-2.91 21.87-3.37 24.1"/><path id="kvg:087ec-s15" kvg:type="㇐" d="M55.02 49.68c3.04-.43 30.57-3.46 34.8-3.17"/><path id="kvg:087ec-s16" kvg:type="㇐" d="M56.54 62.23c10.42-1.43 21.8-2.04 31.42-3.08"/></g><g id="kvg:087ec-g11" kvg:element="㇐"><path id="kvg:087ec-s17" kvg:type="㇐" d="M48.94 75.38c1.2.51 3.41.6 4.62.51 6.69-.46 26.02-3.27 41.04-3.97 2.01-.09 3.21.25 4.22.5"/></g><g id="kvg:087ec-g12" kvg:element="丨"><path id="kvg:087ec-s18" kvg:type="丨" d="M70.39 37.99c.53.36.86 1.36.87 2.58.03 6.19.16 56.92.17 58.94"/></g></g></g></g></g></svg>