<svg xmlns="http://www.w3.org/2000/svg" width="109" height="109" viewBox="0 0 109 109"><g id="kvg:StrokePaths_087f2" style="fill:none;stroke:#000000;stroke-width:3;stroke-linecap:round;stroke-linejoin:round;"><g id="kvg:087f2" kvg:element="蟲"><g id="kvg:087f2-g1" kvg:element="虫" kvg:position="top" kvg:radical="general"><g id="kvg:087f2-g2" kvg:element="中"><g id="kvg:087f2-g3" kvg:element="口"><path id="kvg:087f2-s1" kvg:type="㇑" d="M31.2 23.57c.73.48 1.19 1.68 1.4 2.3.9 2.63 2.4 8.88 3.07 13.53"/><path id="kvg:087f2-s2" kvg:type="㇕b" d="M33.15 25.41c11.19-.92 33.64-2.66 41.74-3.01 3.16-.14 3.53 1.51 2.99 3.5-.76 2.79-1.89 4.09-2.9 7.57"/><path id="kvg:087f2-s3" kvg:type="㇐b" d="M35.59 36.55c9-.92 27.91-2.55 41.83-2.75"/></g><g id="kvg:087f2-g4" kvg:element="丨"><path id="kvg:087f2-s4" kvg:type="㇑a" d="M52.98 11.75c1 .39 1.6 1.75 1.8 2.52.2.78.0 27.09-.2 31.94"/></g></g><path id="kvg:087f2-s5" kvg:type="㇀" d="M30.35 48.35c1.17.46 1.87 1.04 3.04.92s35.89-5.41 43.13-6.33"/><path id="kvg:087f2-s6" kvg:type="㇔" d="M69.86 37.75c4.15 2.16 10.71 8.88 11.75 12.24"/></g><g id="kvg:087f2-g5" kvg:position="bottom"><g id="kvg:087f2-g6" kvg:element="虫" kvg:position="left"><g id="kvg:087f2-g7" kvg:element="中"><g id="kvg:087f2-g8" kvg:element="口"><path id="kvg:087f2-s7" kvg:type="㇑" d="M16.99 63.8c.48.33.83 1.14.92 1.58.65 3.14 2.32 8.78 3.24 14.73"/><path id="kvg:087f2-s8" kvg:type="㇕b" d="M18.26 65.07c7.33-.63 23.88-2.44 29.18-2.68 2.07-.09 2.16 1 1.96 2.4-.48 3.25-1.77 5.62-3.19 10.98"/><path id="kvg:087f2-s9" kvg:type="㇐b" d="M20.92 77.84c5.9-.63 19.48-1.61 27.73-2.2"/></g><g id="kvg:087f2-g9" kvg:element="丨"><path id="kvg:087f2-s10" kvg:type="㇑a" d="M31.61 54.5c.68.24 1.08 1.09 1.22 1.58.14.49.0 30.91-.13 33.95"/></g></g><path id="kvg:087f2-s11" kvg:type="㇀" d="M15.75 93.62c.77.57 2.24 1.29 3.01 1.15.77-.14 21.24-5.51 27.99-7.38"/><path id="kvg:087f2-s12" kvg:type="㇔" d="M43.24 81.22c2.81 2.69 7.27 11.06 7.97 15.25"/></g><g id="kvg:087f2-g10" kvg:element="虫" kvg:position="right"><g id="kvg:087f2-g11" kvg:element="中"><g id="kvg:087f2-g12" kvg:element="口"><path id="kvg:087f2-s13" kvg:type="㇑" d="M57.49 62.32c.55.33.95 1.16 1.05 1.6.75 3.19 2.02 7.89 3.08 13.93"/><path id="kvg:087f2-s14" kvg:type="㇕b" d="M58.95 64.11c8.42-.64 23.35-2.48 29.44-2.72 2.38-.09 2.58 1.04 2.25 2.44-.64 2.68-1.54 7.4-2.52 10.64"/><path id="kvg:087f2-s15" kvg:type="㇐b" d="M61.93 76.07c6.77-.64 18.3-1.13 27.78-1.73"/></g><g id="kvg:087f2-g13" kvg:element="丨"><path id="kvg:087f2-s16" kvg:type="㇑a" d="M72.61 50c.68.29 1.08 1.31 1.22 1.9.14.58.0 36.23-.13 39.89"/></g></g><path id="kvg:087f2-s17" kvg:type="㇀" d="M57.25 93.62c.77.57 1.74 1.29 2.51 1.15.77-.14 24.19-5.23 28.99-6.38"/><path id="kvg:087f2-s18" kvg:type="㇔" d="M82.99 80.22c3.78 3.05 9.77 12.51 10.72 17.25"/></g></g></g></g></svg>