<svg xmlns="http://www.w3.org/2000/svg" width="109" height="109" viewBox="0 0 109 109"><g id="kvg:StrokePaths_087fb"><g id="kvg:087fb" kvg:element="蟻"><g id="kvg:087fb-g1" kvg:element="虫" kvg:position="left" kvg:radical="general"><g id="kvg:087fb-g2" kvg:element="中"><g id="kvg:087fb-g3" kvg:element="口"><path id="kvg:087fb-s1" kvg:type="㇑" d="M12.31 39.63c.84.84.94 2.17 1.11 3.26.69 4.41 1.32 8.94 2.01 14.11.27 2 .54 4.08.83 6.3"/><path id="kvg:087fb-s2" kvg:type="㇕b" d="M14.27 40.91c5.32-.83 14.76-2.25 20.73-3.22 2.73-.45 4.87.47 4.35 3.71-.71 4.42-1.88 8.26-2.95 15.6"/><path id="kvg:087fb-s3" kvg:type="㇐b" d="M17.24 60.88c5.13-.58 10.8-1.56 16.26-2.38 1.61-.24 3.2-.47 4.75-.67"/></g><g id="kvg:087fb-g4" kvg:element="丨"><path id="kvg:087fb-s4" kvg:type="㇑a" d="M24.65 20c1.11 1.11 1.37 2.25 1.37 4.19.0 4.48.07 40.11.07 52.65"/></g></g><path id="kvg:087fb-s5" kvg:type="㇀" d="M11.41 84.33c.96.67 1.85.81 2.87.27 9.59-5.1 15.07-8.17 23.47-12.85"/><path id="kvg:087fb-s6" kvg:type="㇔" d="M34.47 64.44c2.29 2.04 5.9 7.94 6.99 11.57"/></g><g id="kvg:087fb-g5" kvg:element="義" kvg:position="right"><g id="kvg:087fb-g6" kvg:element="羊" kvg:variant="true" kvg:position="top"><g id="kvg:087fb-g7" kvg:element="䒑"><path id="kvg:087fb-s7" kvg:type="㇔" d="M51.55 13.57c2.54 1.19 6.56 4.87 7.19 6.72"/><path id="kvg:087fb-s8" kvg:type="㇒" d="M75.32 9.64c.06.78-.05 1.54-.32 2.27-1.25 2.71-3.13 5.71-6.24 9.54"/><path id="kvg:087fb-s9" kvg:type="㇐" d="M47.56 26c1.92.3 3.85.35 5.8.16 6.08-.88 17.94-2.75 24.89-3.52 2.14-.24 4.4-.41 6.53.13"/></g><path id="kvg:087fb-s10" kvg:type="㇑a" d="M66.03 26.71c.82.82.97 1.66.97 2.72.0.62-.12 8.63-.12 12.82"/><path id="kvg:087fb-s11" kvg:type="㇐" d="M50.8 34.82c2.22.39 4.46.38 6.71-.02 5.57-.85 14.15-2.02 19.49-2.54 1.74-.31 3.47-.29 5.19.04"/><path id="kvg:087fb-s12" kvg:type="㇐" d="M46.03 45.07c2.78.46 5.56.47 8.36.01 9.03-1.36 21.21-3.12 29.48-3.8 3.26-.27 5.26-.52 8.12-.16"/></g><g id="kvg:087fb-g8" kvg:element="我" kvg:position="bottom"><g id="kvg:087fb-g9" kvg:element="丿"><path id="kvg:087fb-s13" kvg:type="㇒" d="M58.78 49.62c0 1.13-.45 1.96-1.11 2.53-3.16 2.73-7.04 5.6-12.91 8.46"/></g><g id="kvg:087fb-g10" kvg:element="戈" kvg:part="1"><g id="kvg:087fb-g11" kvg:element="弋" kvg:part="1"><path id="kvg:087fb-s14" kvg:type="㇐" d="M43.72 65.64c3.06.64 6.08.69 9.15.08C64 63.5 75.25 61.5 87.76 60.1c2.54-.28 5.02-.19 7.52.35"/></g></g><g id="kvg:087fb-g12" kvg:element="亅"><path id="kvg:087fb-s15" kvg:type="㇚" d="M56.01 57.9c.86.86.95 1.85.95 3.27.0 8.62-.19 27.97-.19 30.9.0 5.93-3.26 2.93-4.59.65"/></g><path id="kvg:087fb-s16" kvg:type="㇀" d="M43.16 82.8c1.34.7 2.68.66 4.04-.34C48 81.88 59 74.5 64.32 70.92"/><g id="kvg:087fb-g13" kvg:element="戈" kvg:part="2"><path id="kvg:087fb-s17" kvg:type="㇂" d="M70.31 48.24c.94 1.14 1.17 2.61 1.37 4.4 2.07 18.61 9.07 34.11 19.59 43.22 4.95 4.28 6.24 2.02 5.42-5.99"/><g id="kvg:087fb-g14" kvg:element="丿"><path id="kvg:087fb-s18" kvg:type="㇒" d="M85.12 67.12c.15 1.34-.25 2.65-.84 3.84-3.15 6.29-8.4 14.79-18.43 21.5"/></g><g id="kvg:087fb-g15" kvg:element="弋" kvg:part="2"><g id="kvg:087fb-g16" kvg:element="丶"><path id="kvg:087fb-s19" kvg:type="㇔" d="M80.44 47.59c2.12 1.32 5.51 4.35 6.5 6.61"/></g></g></g></g></g></g></g></svg>