<svg xmlns="http://www.w3.org/2000/svg" width="109" height="109" viewBox="0 0 109 109"><g id="kvg:StrokePaths_0880d"><g id="kvg:0880d" kvg:element="蠍"><g id="kvg:0880d-g1" kvg:element="虫" kvg:position="left" kvg:radical="general"><g id="kvg:0880d-g2" kvg:element="中"><g id="kvg:0880d-g3" kvg:element="口"><path id="kvg:0880d-s1" kvg:type="㇑" d="M10.26 33.4c.46.51 1.02 1.4 1.12 2.06.87 5.79 1.37 16.29 2.62 24.93"/><path id="kvg:0880d-s2" kvg:type="㇕b" d="M11.22 34.98c6.93-.97 17.11-2.33 22.13-2.7 1.96-.14 2.86 1.38 2.62 2.83-.83 4.98-1.98 12.34-3.33 20.62"/><path id="kvg:0880d-s3" kvg:type="㇐b" d="M14.26 57.43c6.49-.43 12.46-.98 20.26-1.89"/></g><g id="kvg:0880d-g4" kvg:element="丨"><path id="kvg:0880d-s4" kvg:type="㇑a" d="M21.42 13.75c1.08 1 2.26 2.75 2.26 4.47.0 4.78-.2 46.78-.2 60.16"/></g></g><path id="kvg:0880d-s5" kvg:type="㇀" d="M11.07 84.55c.47.84 1.93.8 2.4.59s16.5-9.84 19.42-11.52"/><path id="kvg:0880d-s6" kvg:type="㇔" d="M29.25 67c2.23 2.45 5.75 10.08 6.31 13.89"/></g><g id="kvg:0880d-g5" kvg:element="歇" kvg:position="right"><g id="kvg:0880d-g6" kvg:element="曷" kvg:position="left"><g id="kvg:0880d-g7" kvg:element="日" kvg:position="top"><path id="kvg:0880d-s7" kvg:type="㇑" d="M42.19 15.38c.2.47.2.8.31 1.39.89 4.88 1.85 17.65 2.4 26.75"/><path id="kvg:0880d-s8" kvg:type="㇕a" d="M42.82 16.93c6.08-1.04 12.15-2.02 17.77-2.7 1.67-.2 2.38 1.84 2.29 2.98-.31 4.18-1.95 17.86-2.71 24.84"/><path id="kvg:0880d-s9" kvg:type="㇐a" d="M44.09 28.49c3.49-.37 15.83-2 17.59-2.1"/><path id="kvg:0880d-s10" kvg:type="㇐a" d="M45.43 41.65c6.21-.48 8.77-1.45 15-1.67"/></g><g id="kvg:0880d-g8" kvg:element="匃" kvg:position="bottom"><g id="kvg:0880d-g9" kvg:element="勹"><g id="kvg:0880d-g10" kvg:element="丿"><path id="kvg:0880d-s11" kvg:type="㇒" d="M48.85 44.98c.04.45.16 1.19-.07 1.8-1.77 4.6-5.79 11.34-12.53 17.22"/></g><path id="kvg:0880d-s12" kvg:type="㇆" d="M48.03 52.65c.54.5 1.8.67 2.67.33.87-.33 10.52-1.59 12.68-1.99 1.34-.25 2.27 1.32 2.04 4.84C64.58 68.72 63 77.75 59.91 89.6c-1.16 4.45-5.01 6.65-6.43 1.67"/></g><g id="kvg:0880d-g11" kvg:element="人"><path id="kvg:0880d-s13" kvg:type="㇒" d="M52.66 58.62c.16.26-.02 1.65-.13 2.16-1.08 5.08-2.16 9.36-6.02 15.47"/><path id="kvg:0880d-s14" kvg:type="㇏" d="M52.2 67.54c1.98 1.33 4.51 4.88 5.48 8.25"/></g><path id="kvg:0880d-s15" kvg:type="㇄" d="M41.27 63.51c.48.46.77 2.07.86 2.99.09.83-.71 6.72-.71 14.87.0 1.88.36 2.46 1.71 2.36 3.37-.24 6.37-.99 10.44-1.37 1.17-.11 2.11.38 2.68.38"/></g></g><g id="kvg:0880d-g12" kvg:element="欠" kvg:position="right"><g id="kvg:0880d-g13" kvg:position="top"><path id="kvg:0880d-s16" kvg:type="㇒" d="M79.74 13.5c.03.78.2 2.03-.06 3.12C78 23.75 74 37 69.5 46.5"/><path id="kvg:0880d-s17" kvg:type="㇖a" d="M76.74 37.43c.59.25 1.69.66 2.58.43 1.07-.27 14.54-3.49 15.56-3.63 5.13-.71-.94 8.27-2.93 10.77"/></g><g id="kvg:0880d-g14" kvg:position="bottom"><path id="kvg:0880d-s18" kvg:type="㇒" d="M78.5 45.5c0 1.5.62 3.51.42 5.21C77 67.75 74.5 83 65.45 95.75"/><path id="kvg:0880d-s19" kvg:type="㇏" d="M77.92 62.5c2.58 7.81 11.91 26.19 16.16 32.64.9 1.36 1.57 2.17 2.42 2.61"/></g></g></g></g></g></svg>