<svg xmlns="http://www.w3.org/2000/svg" width="109" height="109" viewBox="0 0 109 109"><g id="kvg:StrokePaths_08811" style="fill:none;stroke:#000000;stroke-width:3;stroke-linecap:round;stroke-linejoin:round;"><g id="kvg:08811" kvg:element="蠑"><g id="kvg:08811-g1" kvg:element="虫" kvg:position="left" kvg:radical="general"><g id="kvg:08811-g2" kvg:element="中"><g id="kvg:08811-g3" kvg:element="口"><path id="kvg:08811-s1" kvg:type="㇑" d="M9.76 32.4c.32.65.72 1.77.79 2.62.61 7.36 1.32 16.89 2.2 27.87"/><path id="kvg:08811-s2" kvg:type="㇕b" d="M10.72 34.48c6.93-.97 18.11-2.83 23.13-3.2 1.96-.14 2.86 1.38 2.62 2.83-.83 4.98-2.46 15.14-3.33 24.12"/><path id="kvg:08811-s3" kvg:type="㇐b" d="M12.76 60.43c6.74-.43 14.46-1.48 22.26-2.39"/></g><g id="kvg:08811-g4" kvg:element="丨"><path id="kvg:08811-s4" kvg:type="㇑a" d="M20.92 13.75c1.08 1 2.26 2.75 2.26 4.47.0 4.78-.2 50.78-.2 64.16"/></g></g><path id="kvg:08811-s5" kvg:type="㇀" d="M10.07 87.43c.48.97 1.97.93 2.45.69.48-.24 19.64-10.56 22.62-12.5"/><path id="kvg:08811-s6" kvg:type="㇔" d="M29.5 68c3.2 2.81 8.26 11.53 9.06 15.89"/></g><g id="kvg:08811-g5" kvg:element="榮" kvg:position="right"><g id="kvg:08811-g6" kvg:element="𤇾" kvg:position="top"><g id="kvg:08811-g7" kvg:element="炏"><g id="kvg:08811-g8" kvg:element="火"><path id="kvg:08811-s7" kvg:type="㇔" d="M42.4 18.43c2.69 1.8 5.38 6.66 5.61 9.56"/><path id="kvg:08811-s8" kvg:type="㇒" d="M63.24 16.87c.47.37.25 1.72-.17 2.3-.42.57-4.33 4.2-6.44 5.54"/><path id="kvg:08811-s9" kvg:type="㇒" d="M54.24 11.75c.69.72.69 2.56.69 3.02.0 12.89-3.5 20.48-8.75 25.23"/><path id="kvg:08811-s10" kvg:type="㇔/㇏" d="M55.39 30.89c3.45 1.71 7.81 7.11 8.72 9.52"/></g><g id="kvg:08811-g9" kvg:element="火"><path id="kvg:08811-s11" kvg:type="㇔" d="M69.17 16.93c2.72 2.43 4.9 6.34 5.18 9.06"/><path id="kvg:08811-s12" kvg:type="㇒" d="M91.4 15.87c.02 1.04-.14 1.93-.64 2.58-.5.64-5.54 4.26-8.03 5.76"/><path id="kvg:08811-s13" kvg:type="㇒" d="M80.1 12.25c.77.69.77 1.54.77 1.99.0 12.51-4.01 21.76-9.71 25.26"/><path id="kvg:08811-s14" kvg:type="㇔/㇏" d="M81.15 29.89c3.92 1.62 8.86 6.74 9.89 9.02"/></g></g><g id="kvg:08811-g10" kvg:element="冖"><path id="kvg:08811-s15" kvg:type="㇔" d="M45.28 46.13c-.15 3.45-3.66 12.46-4.91 14.52"/><path id="kvg:08811-s16" kvg:type="㇆" d="M45.43 47.99c2.56.0 33.08-3.39 45.97-3.39 8.77.0 2.77 4.95-.5 8.18"/></g></g><g id="kvg:08811-g11" kvg:element="木" kvg:position="bottom"><path id="kvg:08811-s17" kvg:type="㇐" d="M46.28 63.2c1.24.48 2.64.63 4.07.48 7.25-.78 27.28-2 38.24-2.92 1.41-.12 2.3.08 3.71.42"/><path id="kvg:08811-s18" kvg:type="㇑" d="M67.58 50.25c.74.46 1.33 2.72 1.33 3.68.0 9.73.0 39.28-.15 45.07"/><path id="kvg:08811-s19" kvg:type="㇒" d="M68.22 62.81C63.1 71.9 52.14 83.82 38.74 90.95"/><path id="kvg:08811-s20" kvg:type="㇏" d="M69.07 62.13c3.41 3.4 19.44 20.48 23.14 23.82 1.26 1.13 2.33 1.62 3.59 1.94"/></g></g></g></g></svg>