<svg xmlns="http://www.w3.org/2000/svg" width="109" height="109" viewBox="0 0 109 109"><g id="kvg:StrokePaths_08815" style="fill:none;stroke:#000000;stroke-width:3;stroke-linecap:round;stroke-linejoin:round;"><g id="kvg:08815" kvg:element="蠕"><g id="kvg:08815-g1" kvg:element="虫" kvg:position="left" kvg:radical="general"><g id="kvg:08815-g2" kvg:element="中"><g id="kvg:08815-g3" kvg:element="口"><path id="kvg:08815-s1" kvg:type="㇑" d="M10.05 34.31c.42.61.93 1.66 1.02 2.46.79 6.9 1.7 15.83 2.85 26.13"/><path id="kvg:08815-s2" kvg:type="㇕b" d="M11.33 36.28c6.32-1.16 17.21-2.57 21.78-3.01 1.78-.17 2.61 1.64 2.39 3.38-.76 5.93-1.8 11.22-3.04 21.08"/><path id="kvg:08815-s3" kvg:type="㇐b" d="M14.15 59.56c7.1-.81 12.1-1.06 20.49-2.04"/></g><g id="kvg:08815-g4" kvg:element="丨"><path id="kvg:08815-s4" kvg:type="㇑a" d="M20.7 16.25c1.08 1 2.26 2.75 2.26 4.47.0 4.78-.2 46.78-.2 60.16"/></g></g><path id="kvg:08815-s5" kvg:type="㇀" d="M10.85 84.77c.6 1.16 2.46 1.11 3.06.82.6-.29 14.84-7.59 20.76-10.47"/><path id="kvg:08815-s6" kvg:type="㇔" d="M30.78 67c2.67 2.98 6.89 12.26 7.56 16.89"/></g><g id="kvg:08815-g5" kvg:element="需" kvg:position="right"><g id="kvg:08815-g6" kvg:element="雨" kvg:variant="true" kvg:position="top"><path id="kvg:08815-s7" kvg:type="㇐" d="M48.5 17.14c1.33.05 3.29.29 4.58.15 9.92-1.04 21.42-2.54 30.95-3.15 1.81-.12 3.32-.14 4.99.1"/><path id="kvg:08815-s8" kvg:type="㇔/㇑" d="M44.7 25.83c-.16 5.22-1.56 9.99-2.59 15.26"/><path id="kvg:08815-s9" kvg:type="㇖b/㇆" d="M45.06 28.03c5.54-1.21 35.16-4.27 46.92-4.27 6.82.0.87 7.49-.21 9.39"/><path id="kvg:08815-s10" kvg:type="㇑" d="M66.6 17.93c.65 1.4.94 2.32.95 3.69.01.49-.2 24.85-.2 26.2"/><path id="kvg:08815-s11" kvg:type="㇔" d="M52.21 33.38c2.42.9 5.73 3.6 7.05 5.09"/><path id="kvg:08815-s12" kvg:type="㇔" d="M49.31 42.23c2.62.98 6.67 4.6 8.1 6.24"/><path id="kvg:08815-s13" kvg:type="㇔" d="M75.49 29.76c3.15 1.34 6.71 4.01 7.97 5.12"/><path id="kvg:08815-s14" kvg:type="㇔" d="M75.34 40.13c3.42 1.13 8.09 4.54 9.96 6.43"/></g><g id="kvg:08815-g7" kvg:element="而" kvg:position="bottom"><g id="kvg:08815-g8" kvg:position="top"><path id="kvg:08815-s15" kvg:type="㇐" d="M44.28 55.33c1.32.47 3.73.6 5.05.47 8.39-.81 32.5-3.45 40.63-2.91 2.19.15 3.51.22 4.61.46"/><path id="kvg:08815-s16" kvg:type="㇒" d="M67.14 56.36c.01.2.03.53-.03.82-.32 1.73-2.17 5.51-4.71 7.83"/></g><g id="kvg:08815-g9" kvg:position="bottom"><g id="kvg:08815-g10" kvg:element="冂"><path id="kvg:08815-s17" kvg:type="㇑" d="M48.06 65.86c.43 1.12 1.65 2.92 1.41 4.92C49 74.75 49.49 92 49.49 97.05"/><path id="kvg:08815-s18" kvg:type="㇆a" d="M49.52 68.58c5.45-.9 38.57-3.95 39.64-4.27 2.3-.67 3.63.86 3.59 3.85-.08 7.28.82 15.03-.5 22.71-1.34 7.78-4.2 3.56-5.92.65"/></g><path id="kvg:08815-s19" kvg:type="㇑" d="M61.91 69.7c.52.74 1.18 2.18 1.24 3.28.17 3.65-.3 19.68-.3 21.32"/><path id="kvg:08815-s20" kvg:type="㇑" d="M75.49 67.43c.62 1.69.88 2.81.9 4.46.08 6.39-.53 17.16-.88 22.96"/></g></g></g></g></g></svg>