<svg xmlns="http://www.w3.org/2000/svg" width="109" height="109" viewBox="0 0 109 109"><g id="kvg:StrokePaths_08827" style="fill:none;stroke:#000000;stroke-width:3;stroke-linecap:round;stroke-linejoin:round;"><g id="kvg:08827" kvg:element="蠧"><g id="kvg:08827-g1" kvg:position="top"><g id="kvg:08827-g2" kvg:element="士" kvg:variant="true" kvg:original="土" kvg:radical="nelson"><path id="kvg:08827-s1" kvg:type="㇐" d="M26.25 18.74c1.34.31 3.91.59 5.25.51 17.27-1.07 30.75-2 44.36-2.8 2.24-.13 3.58.15 4.71.31"/><path id="kvg:08827-s2" kvg:type="㇑" d="M53.27 10.75c.13.3 1.34 1.59 1.34 3.53.0 3.22.12 6.72.12 12.63"/><path id="kvg:08827-s3" kvg:type="㇐" d="M30.47 28.22c1.38.49 3.92.57 5.3.49C48 28 62.25 27 71.74 26.45c2.3-.13 3.69-.27 4.84-.02"/></g><g id="kvg:08827-g3" kvg:element="冖"><path id="kvg:08827-s4" kvg:type="㇔" d="M19.91 35.63c0 3.48-3.03 13.05-4.41 15.37"/><path id="kvg:08827-s5" kvg:type="㇆" d="M20.24 38.24c9.51-.99 60.24-4.53 67.95-4.9 12.05-.59 2.55 7.16-.45 9.28"/></g><g id="kvg:08827-g4" kvg:element="石"><path id="kvg:08827-s6" kvg:type="㇐" d="M28.92 43.98c1.28.21 4.13.26 5.4.21 11.48-.41 28.23-1.92 39.34-2.54 2.13-.12 3.41.1 4.47.21"/><path id="kvg:08827-s7" kvg:type="㇒" d="M43.25 44.05c.07.4.15 1.04-.15 1.62-1.77 3.43-11.43 10.45-25.34 15.06"/><g id="kvg:08827-g5" kvg:element="口"><path id="kvg:08827-s8" kvg:type="㇑" d="M40 51.08c.35.21.8 1.08.87 1.36.48 2.04 1.35 5.95 2.02 9.81"/><path id="kvg:08827-s9" kvg:type="㇕b" d="M41.36 51.85c5.35-.41 28.33-2.77 31.99-2.84 1.51-.03 1.77 1.06 1.6 1.67-.57 1.96-1.58 4.52-2.35 8"/><path id="kvg:08827-s10" kvg:type="㇐b" d="M42.88 60.97c4.28-.21 25.36-1.9 30.82-1.96"/></g></g></g><g id="kvg:08827-g6" kvg:position="bottom"><g id="kvg:08827-g7" kvg:element="虫" kvg:position="left" kvg:radical="tradit"><g id="kvg:08827-g8" kvg:element="中"><g id="kvg:08827-g9" kvg:element="口"><path id="kvg:08827-s11" kvg:type="㇑" d="M18.12 71.61c.43.26.75.91.83 1.25.59 2.49 1.65 7.36 2.47 12.08"/><path id="kvg:08827-s12" kvg:type="㇕b" d="M19.27 72.62c6.62-.5 22.6-1.94 27.39-2.12 1.87-.08 1.95.8 1.77 1.9-.43 2.57-.69 4.06-1.98 8.31"/><path id="kvg:08827-s13" kvg:type="㇐b" d="M21.21 82.74c5.32-.5 19.63-1.67 27.08-2.14"/></g><g id="kvg:08827-g10" kvg:element="丨"><path id="kvg:08827-s14" kvg:type="㇑a" d="M31.74 62.12c1.22.44 1.95 1.97 2.19 2.85C34.18 65.85 34.19 87 34.19 93"/></g></g><path id="kvg:08827-s15" kvg:type="㇀" d="M16 95.73c.76.4 2.21.9 2.97.8.76-.1 19.95-4.52 26.61-5.82"/><path id="kvg:08827-s16" kvg:type="㇔" d="M42.13 86.15c2.67 1.97 6.9 8.1 7.56 11.16"/></g><g id="kvg:08827-g11" kvg:element="虫" kvg:position="right" kvg:radical="tradit"><g id="kvg:08827-g12" kvg:element="中"><g id="kvg:08827-g13" kvg:element="口"><path id="kvg:08827-s17" kvg:type="㇑" d="M56.37 71.11c.43.26.75.91.83 1.25.59 2.49 1.65 7.36 2.47 12.08"/><path id="kvg:08827-s18" kvg:type="㇕b" d="M57.52 72.12c6.62-.5 24.6-1.94 29.39-2.12 1.87-.08 1.95.8 1.77 1.9-.43 2.57-.69 4.06-1.98 8.31"/><path id="kvg:08827-s19" kvg:type="㇐b" d="M59.46 82.24c5.32-.5 21.63-1.67 29.08-2.14"/></g><g id="kvg:08827-g14" kvg:element="丨"><path id="kvg:08827-s20" kvg:type="㇑a" d="M69.99 62.62c1.22.44 1.95 1.97 2.19 2.85.24.87.26 22.03.26 28.03"/></g></g><path id="kvg:08827-s21" kvg:type="㇀" d="M57.25 95.73c.76.4 2.21.9 2.97.8.76-.1 19.95-4.52 26.61-5.82"/><path id="kvg:08827-s22" kvg:type="㇔" d="M83.63 86.15c3.46 2.24 8.95 9.18 9.81 12.66"/></g></g></g></g></svg>