<!DOCTYPE svg PUBLIC "-//W3C//DTD SVG 1.0//EN" "http://www.w3.org/TR/2001/REC-SVG-20010904/DTD/svg10.dtd" [
<!ATTLIST g
xmlns:kvg CDATA #FIXED "http://kanjivg.tagaini.net"
kvg:element CDATA #IMPLIED
kvg:variant CDATA #IMPLIED
kvg:partial CDATA #IMPLIED
kvg:original CDATA #IMPLIED
kvg:part CDATA #IMPLIED
kvg:number CDATA #IMPLIED
kvg:tradForm CDATA #IMPLIED
kvg:radicalForm CDATA #IMPLIED
kvg:position CDATA #IMPLIED
kvg:radical CDATA #IMPLIED
kvg:phon CDATA #IMPLIED >
<!ATTLIST path
xmlns:kvg CDATA #FIXED "http://kanjivg.tagaini.net"
kvg:type CDATA #IMPLIED >
]><svg xmlns="http://www.w3.org/2000/svg" width="109" height="109" viewBox="0 0 109 109"><g id="kvg:StrokePaths_0884c" style="fill:none;stroke:#000000;stroke-width:3;stroke-linecap:round;stroke-linejoin:round;"><g id="kvg:0884c" kvg:element="行" kvg:radical="general"><g id="kvg:0884c-g1" kvg:element="彳" kvg:position="left"><path id="kvg:0884c-s1" kvg:type="㇒" d="M32.49 12c-.12 1-.45 1.9-1.1 2.62C28.29 18.06 22.2 22.6 12.5 28"/><g id="kvg:0884c-g2" kvg:element="亻" kvg:variant="true" kvg:original="人"><path id="kvg:0884c-s2" kvg:type="㇒" d="M36.5 31.75c.07.73.08 2.28-.39 3.18C32.12 42.5 23.83 52.5 11 62.75"/><path id="kvg:0884c-s3" kvg:type="㇑" d="M25.57 51.75c.9.9 1.23 2.25 1.23 3.26.0.72.04 24.47-.07 35.49-.02 2.19-.04 3.87-.07 4.75"/></g></g><g id="kvg:0884c-g3" kvg:position="right"><path id="kvg:0884c-s4" kvg:type="㇐" d="M50.5 18.45c1.44.35 3.81.52 5.23.35 7.14-.8 16.01-2.43 24.49-3.06 2.38-.18 3.83-.06 5.02.11"/><path id="kvg:0884c-s5" kvg:type="㇐" d="M43.13 41.42c1.5.38 4.27.58 5.76.38 12.86-1.67 28.86-4.05 41.85-5.38 2.49-.26 4.01.18 5.26.37"/><path id="kvg:0884c-s6" kvg:type="㇚" d="M71.52 41.33c1.26 1.26 1.76 2.79 1.76 5.27.0 14.56-.26 38.66-.26 43.62.0 8.03-7.21-.5-8.71-1.75"/></g></g></g><g id="kvg:StrokeNumbers_0884c" style="font-size:8;fill:#808080"><text transform="matrix(1 0 0 1 25.75 10.50)">1</text><text transform="matrix(1 0 0 1 28.50 31.50)">2</text><text transform="matrix(1 0 0 1 19.50 65.50)">3</text><text transform="matrix(1 0 0 1 49.50 15.50)">4</text><text transform="matrix(1 0 0 1 43.50 38.50)">5</text><text transform="matrix(1 0 0 1 64.50 50.50)">6</text></g></svg>