<svg xmlns="http://www.w3.org/2000/svg" width="109" height="109" viewBox="0 0 109 109"><g id="kvg:StrokePaths_08844"><g id="kvg:08844" kvg:element="衄"><g id="kvg:08844-g1" kvg:element="血" kvg:position="left" kvg:radical="general"><path id="kvg:08844-s1" kvg:type="㇒" d="M33.82 13.08c.03.49.15 1.32-.07 1.97-1.6 4.67-6.17 13.23-12.51 18.85"/><g id="kvg:08844-g2" kvg:element="皿"><path id="kvg:08844-s2" kvg:type="㇑a" d="M15.25 33.45c.51.55.84 1.8.92 2.51.62 5.6 2.87 38.77 3.29 48.83"/><path id="kvg:08844-s3" kvg:type="㇕b" d="M16.73 36.47c6.56-1.16 24.66-3.15 27.06-3.19 1.71-.03 2.46.97 2.26 2.54-.4 3.19-1.63 35.46-2.39 39.84"/><path id="kvg:08844-s4" kvg:type="㇑a" d="M26.47 36.9c.15.53.69 1.47.71 2.14.32 10.62.32 32.95.0 43.27"/><path id="kvg:08844-s5" kvg:type="㇑a" d="M34.98 35.88c.01.46.69 2.09.69 2.87.01 8.8.16 29.19.04 39.67"/><path id="kvg:08844-s6" kvg:type="㇐" d="M11.13 86.09c.7 1.53 2.48 1.28 3.18 1.03 9.69-3.37 22.94-8.87 34.52-13.13"/></g></g><g id="kvg:08844-g3" kvg:element="丑" kvg:position="right"><path id="kvg:08844-s7" kvg:type="㇕" d="M54.53 21.29c1.41.65 2.95.94 4.61.79 11.2-1.06 19.51-2.51 29.62-3.34 2.87-.23 3.81 2.98 3.07 5.86-2.57 9.94-7.27 49.45-9.43 66.45"/><path id="kvg:08844-s8" kvg:type="㇑" d="M69.41 24.24c.88.58 1.15 2.75 1.08 3.95-.7 12.51-7.73 54.41-9.66 64.6"/><g id="kvg:08844-g4" kvg:element="一"><path id="kvg:08844-s9" kvg:type="㇐" d="M51.43 55.12c1.31.59 3.73.7 5.04.59C67.75 54.75 82 53 93.71 52.19c2.19-.15 3.51.28 4.6.58"/></g><path id="kvg:08844-s10" kvg:type="㇐" d="M42.75 92.72c1.47.66 4.15 1.31 5.62 1.2 15.88-1.17 27.2-3.09 45.49-3.38 2.44-.04 3.91.31 5.13.64"/></g></g></g></svg>