<svg xmlns="http://www.w3.org/2000/svg" width="109" height="109" viewBox="0 0 109 109"><g id="kvg:StrokePaths_08857" style="fill:none;stroke:#000000;stroke-width:3;stroke-linecap:round;stroke-linejoin:round;"><g id="kvg:08857" kvg:element="街"><g id="kvg:08857-g1" kvg:element="行" kvg:part="1" kvg:position="kamae" kvg:radical="tradit"><g id="kvg:08857-g2" kvg:element="彳" kvg:position="left" kvg:radical="nelson"><path id="kvg:08857-s1" kvg:type="㇒" d="M29.45 17.75c.1 1.05-.02 1.59-.56 2.51-2.15 3.64-6.82 9.32-13.14 14.86"/><g id="kvg:08857-g3" kvg:element="亻" kvg:variant="true" kvg:original="人"><path id="kvg:08857-s2" kvg:type="㇒" d="M29.02 36.74c.05.64.19 1.73-.11 2.56-2.36 6.6-9.4 15.54-19.04 24.49"/><path id="kvg:08857-s3" kvg:type="㇑" d="M23.42 50.65c.96.96 1.54 2.35 1.54 3.72.0.38-.04 21.75-.06 32.37.0 2.25.0 4.02.0 5"/></g></g></g><g id="kvg:08857-g4" kvg:element="圭" kvg:phon="圭"><g id="kvg:08857-g5" kvg:element="土" kvg:position="top"><path id="kvg:08857-s4" kvg:type="㇐" d="M38.13 30.42c.98.38 2.78.43 3.76.38 5.74-.3 14.24-1.42 18.8-1.88 1.63-.16 2.62-.07 3.43.12"/><path id="kvg:08857-s5" kvg:type="㇑a" d="M50.67 14.37c1.11 1.11 1.52 2.77 1.52 4.64.0 11.25.14 19.12.14 24.36"/><path id="kvg:08857-s6" kvg:type="㇐" d="M36.88 45.49c1.13.18 3.21.26 4.33.18 5.66-.41 13.91-1.66 20.21-2.27 1.87-.18 3.01.08 3.96.17"/></g><g id="kvg:08857-g6" kvg:element="土" kvg:position="bottom"><path id="kvg:08857-s7" kvg:type="㇐" d="M38.03 64.69c1.47.31 2.81.38 4.35.25 5.25-.44 13.35-1.49 18.13-2.22C61.9 62.5 63.5 62.38 65 62.5"/><path id="kvg:08857-s8" kvg:type="㇑a" d="M50.87 52c1 1 1.46 2.48 1.46 3.5.0 3.75.03 16.75.03 24"/><path id="kvg:08857-s9" kvg:type="㇀/㇐" d="M35.88 84.89c1.01.62 2.76 1.42 5.07.29 8.1-3.97 15.95-6.66 23.55-9.93"/></g></g><g id="kvg:08857-g7" kvg:element="行" kvg:part="2" kvg:position="kamae" kvg:radical="tradit"><g id="kvg:08857-g8" kvg:position="right"><path id="kvg:08857-s10" kvg:type="㇐" d="M74.3 27.82c.95.22 1.89.24 2.83.16 3.56-.3 7.04-1.58 10.62-1.7.9-.03 1.78.06 2.69.19"/><path id="kvg:08857-s11" kvg:type="㇐" d="M69.63 46.6c2.12.4 3.49.32 5.13.08C79.7 45.98 87.5 45 92.5 44.47c1.42-.15 2.76-.09 4.13.27"/><path id="kvg:08857-s12" kvg:type="㇚" d="M81.77 47.8c.84.84 1.26 3.07 1.26 5.19.0 13.68-.01 32.08-.01 36.74.0 7.27-5.64 1.9-7.96-.39"/></g></g></g></g></svg>