<svg xmlns="http://www.w3.org/2000/svg" width="109" height="109" viewBox="0 0 109 109"><g id="kvg:StrokePaths_0885e" style="fill:none;stroke:#000000;stroke-width:3;stroke-linecap:round;stroke-linejoin:round;"><g id="kvg:0885e" kvg:element="衞"><g id="kvg:0885e-g1" kvg:element="行" kvg:part="1" kvg:position="kamae" kvg:radical="tradit"><g id="kvg:0885e-g2" kvg:element="彳" kvg:position="left" kvg:radical="nelson"><path id="kvg:0885e-s1" kvg:type="㇒" d="M32.62 16c.05.46.24 1.28-.1 1.84-2.4 3.98-8.72 10.89-17.54 17.61"/><g id="kvg:0885e-g3" kvg:element="亻" kvg:variant="true" kvg:original="人"><path id="kvg:0885e-s2" kvg:type="㇒" d="M32.42 30.77c.06.8.21 2.17-.12 3.19C29.65 42.2 21.78 53.37 11 64.53"/><path id="kvg:0885e-s3" kvg:type="㇑" d="M24.95 53.12c.27.24.93 2.09.98 2.58s0 35.27-.05 38.3"/></g></g></g><g id="kvg:0885e-g4" kvg:phon="韋"><path id="kvg:0885e-s4" kvg:type="㇑" d="M52.16 12.27c.34.35.98 1.6.76 2.39-2.18 7.86-4.08 13.13-4.95 16.54"/><path id="kvg:0885e-s5" kvg:type="㇕" d="M40.33 20.81c.62.58 1.46.79 1.97.72 10.17-1.22 19.73-2.31 20.47-2.34 1.23-.05 1.88 1.28 1.72 2.28-.62 3.84-1.28 5.36-1.77 7.8"/><path id="kvg:0885e-s6" kvg:type="㇐" d="M38.69 33.67c.66.24 2.31.17 2.98.15 5.49-.12 14.07-2.06 26.86-3.2 1.11-.1 2.2.04 2.75.15"/><g id="kvg:0885e-g5" kvg:element="口"><path id="kvg:0885e-s7" kvg:type="㇑" d="M41.2 40.07c.22.35.44.64.53 1.09.75 3.54 1.72 5.58 2.41 11.87"/><path id="kvg:0885e-s8" kvg:type="㇕b" d="M42.46 41.71c5.86-.7 16.43-2.52 18.89-2.74 1.79-.16 2.33.96 2.07 1.86-.47 1.67-1.53 5.84-1.9 7.89"/><path id="kvg:0885e-s9" kvg:type="㇐b" d="M44.9 50.67c3.81-.47 12.89-1.46 18.45-1.79"/></g><path id="kvg:0885e-s10" kvg:type="㇐" d="M36.5 58.88c1.3.32 2.69.4 3.99.32 8.29-.55 18.76-2.1 24.71-2.79 2.15-.25 3.3.03 4.55.31"/><g id="kvg:0885e-g6" kvg:element="巾"><path id="kvg:0885e-s11" kvg:type="㇑" d="M38.25 67.53c.37.18 1.16 1.31 1.23 1.66s-.05 17.76-.12 19.95"/><path id="kvg:0885e-s12" kvg:type="㇆a" d="M40.31 69.63c2.32-.12 23.26-3.77 25-3.84 2.04-.09 2.36 1.54 2.41 2.34.29 5.12.32 13.62-.92 17.55-1.29 4.07-3.54 1.07-5.04-.59"/><path id="kvg:0885e-s13" kvg:type="㇑" d="M51.76 58.58c.38.2 1.17 1.46 1.25 1.85s-.05 36.52-.12 38.95"/></g></g><g id="kvg:0885e-g7" kvg:element="行" kvg:part="2" kvg:position="kamae" kvg:radical="tradit"><g id="kvg:0885e-g8" kvg:position="right"><path id="kvg:0885e-s14" kvg:type="㇐" d="M71.84 19.3c.62.36 3.24.94 3.86.86 5.3-.66 12.18-2.03 15.02-1.88 1.02.06 1.64.17 2.15.35"/><path id="kvg:0885e-s15" kvg:type="㇐" d="M69.59 40.71c.61.36 1.73.37 2.36.36C76.5 41 87.07 38.8 95.48 38.95c1.02.02 1.64.17 2.15.35"/><path id="kvg:0885e-s16" kvg:type="㇚" d="M84.25 42.66c.07.45.99 2.37 1.06 5.25.34 13.85-.22 37.8-.22 42.51.0 7.65-6.1-.48-7.37-1.67"/></g></g></g></g></svg>