<svg xmlns="http://www.w3.org/2000/svg" width="109" height="109" viewBox="0 0 109 109"><g id="kvg:StrokePaths_0885d"><g id="kvg:0885d" kvg:element="衝"><g id="kvg:0885d-g1" kvg:element="行" kvg:part="1" kvg:position="kamae" kvg:radical="tradit"><g id="kvg:0885d-g2" kvg:element="彳" kvg:position="left" kvg:radical="nelson"><path id="kvg:0885d-s1" kvg:type="㇒" d="M31.12 17.25c-.24 1.12-.63 2.06-1.17 2.69-2.68 3.15-9.2 8.16-16.81 12.81"/><g id="kvg:0885d-g3" kvg:element="亻" kvg:variant="true" kvg:original="人"><path id="kvg:0885d-s2" kvg:type="㇒" d="M29.28 36.5c.09 1.12-.08 2.17-.58 3.19-3.45 7.06-7.58 13.44-16.95 22.81"/><path id="kvg:0885d-s3" kvg:type="㇑" d="M24.21 53.25c.77.77 1.06 2 1.06 3.16.0.42.03 21.22.0 33.22-.01 2.71-.01 4.91-.01 6.25"/></g></g></g><g id="kvg:0885d-g4" kvg:element="重" kvg:phon="重"><g id="kvg:0885d-g5" kvg:element="千" kvg:part="1"><g id="kvg:0885d-g6" kvg:element="丿"><path id="kvg:0885d-s4" kvg:type="㇒" d="M60.64 12.89c-.14.99-.86 1.8-1.34 2.18-2.69 2.19-9.43 5.06-19.7 8.82"/></g><g id="kvg:0885d-g7" kvg:element="十" kvg:part="1"><path id="kvg:0885d-s5" kvg:type="㇐" d="M35.72 33.75c1.98.37 3.52.09 5.52-.18 6.2-.86 17.26-2.16 24.04-2.98 1.83-.22 3.94-.24 5.7.29"/></g></g><g id="kvg:0885d-g8" kvg:element="里"><path id="kvg:0885d-s6" kvg:type="㇑" d="M38.12 43.91c.86.86 1.12 2.27 1.3 3.19.83 4.4 1.46 8.15 2.22 14.39.17 1.39.27 2.76.38 4.05"/><path id="kvg:0885d-s7" kvg:type="㇕a" d="M39.88 44.84c6.73-1.11 16.37-2.21 23.7-3.08 3.24-.38 5.18.65 4.61 4.23-.48 3.04-1.31 7.01-2.66 12.48C65.16 59.96 65 61 64.61 62.53"/><path id="kvg:0885d-s8" kvg:type="㇐a" d="M42.01 53.22c4.87-.47 19.74-1.72 23.82-1.99"/><path id="kvg:0885d-s9" kvg:type="㇐a" d="M43.13 62.94c5.99-.65 13.25-1.19 20.73-1.49"/><g id="kvg:0885d-g9" kvg:element="千" kvg:part="2"><g id="kvg:0885d-g10" kvg:element="十" kvg:part="2"><path id="kvg:0885d-s10" kvg:type="㇑a" d="M52.69 22.23c.85.85 1.28 2.27 1.28 3.88.0 6.89-.1 51.63-.1 58.14"/></g></g><path id="kvg:0885d-s11" kvg:type="㇐" d="M41.44 73.19c1.07.36 2.51.43 3.57.29 5.89-.79 12.75-1.36 16.51-1.8 1.31-.16 2.58-.26 3.87.15"/><path id="kvg:0885d-s12" kvg:type="㇀/㇐" d="M38.67 88.13c.83 1.12 2.09 1.27 4.06.61C51 86 56.75 84.38 66.16 81.44"/></g></g><g id="kvg:0885d-g11" kvg:element="行" kvg:part="2" kvg:position="kamae" kvg:radical="tradit"><g id="kvg:0885d-g12" kvg:position="right"><path id="kvg:0885d-s13" kvg:type="㇐" d="M77.32 24.45c1.43.3 3.21.28 4.45.04 3.76-.73 7.69-1.93 10.93-2.62.86-.18 1.91-.13 2.35-.01"/><path id="kvg:0885d-s14" kvg:type="㇐" d="M75.38 44.42c1.75.21 3.46.33 4.51.16 7.33-1.17 12.61-2.58 17-3.66 1.04-.26 1.96-.32 2.5-.13"/><path id="kvg:0885d-s15" kvg:type="㇚" d="M87.6 45.33c1.03 1.03 1.31 2.29 1.31 4.52.0 14.56.03 35.91.03 40.87.0 8.03-5.61.5-6.88-.75"/></g></g></g></g></svg>