<svg xmlns="http://www.w3.org/2000/svg" width="109" height="109" viewBox="0 0 109 109"><g id="kvg:StrokePaths_08864"><g id="kvg:08864" kvg:element="衤" kvg:variant="true" kvg:original="衣" kvg:radical="tradit"><path id="kvg:08864-s1" kvg:type="㇔" d="M45.25 7.5C51 9.62 57.4 13.04 62.33 16.75"/><path id="kvg:08864-s2" kvg:type="㇇" d="M29.21 33.05c1.92 1.46 6.38 1.42 8.66.96 7.34-1.5 26.11-5.91 29.1-6.62 3.52-.83 5.17 1.3 3.17 3.85C58.44 46.22 42.61 63.13 25.38 74.5"/><path id="kvg:08864-s3" kvg:type="㇑" d="M53.25 54.11c.94.94 1.27 2.02 1.27 3.89.0 5.46.03 21.66.05 32.5.01 3.81.01 6.96.01 8.75"/><path id="kvg:08864-s4" kvg:type="㇒" d="M82.32 45.64c-.2 1.11-.54 2.09-1.25 2.86-2.15 2.32-8.27 7.01-12.57 9.75"/><path id="kvg:08864-s5" kvg:type="㇔" d="M57.83 55.37c14.42 7.25 21.67 12.88 27.5 21.88"/></g></g></svg>