<svg xmlns="http://www.w3.org/2000/svg" width="109" height="109" viewBox="0 0 109 109"><g id="kvg:StrokePaths_08868"><g id="kvg:08868" kvg:element="表"><g id="kvg:08868-g1" kvg:position="top"><g id="kvg:08868-g2" kvg:element="二" kvg:part="1"><path id="kvg:08868-s1" kvg:type="㇐" d="M30 23.9c3 .47 6.01.11 8.76-.22 8.42-1.02 22.68-2.69 31.62-3.38 2.87-.22 5.78-.55 8.62.07"/></g><g id="kvg:08868-g3" kvg:element="丨" kvg:radical="nelson"><path id="kvg:08868-s2" kvg:type="㇑a" d="M52.37 9.75c1.09.5 1.74 2.25 1.96 3.25s.5 27.25.28 33.5"/></g><g id="kvg:08868-g4" kvg:element="二" kvg:part="2"><path id="kvg:08868-s3" kvg:type="㇐" d="M32.25 35.64c3.25.36 5.53.16 8-.13 7.56-.91 21.31-2.59 29.75-3.53 3-.33 6-.6 8.75-.21"/></g></g><g id="kvg:08868-g5" kvg:element="衣" kvg:partial="true" kvg:position="bottom" kvg:radical="tradit"><g id="kvg:08868-g6" kvg:element="亠" kvg:partial="true" kvg:position="top"><path id="kvg:08868-s4" kvg:type="㇐" d="M16.25 49.7c3.62.68 7.5.39 11.01.02 13.06-1.36 39.13-4.27 54.49-5.38 3.64-.26 7.16-.57 10.75.2"/></g><g id="kvg:08868-g7" kvg:position="bottom"><path id="kvg:08868-s5" kvg:type="㇒" d="M44.72 51.64c.09.82-.16 2.32-.93 3.29C36.8 63.81 28.35 72.41 13.25 80.5"/><path id="kvg:08868-s6" kvg:type="㇙" d="M37.5 65.75c.81.81 1.25 1.88 1.25 3 0 12.12-.07 19.71-.07 22.19.0 2 1.43 2.89 2.93 1.39s13.6-12.09 15.6-13.59"/><path id="kvg:08868-s7" kvg:type="㇒" d="M77.25 52.14c.12.98-.18 2.05-.5 2.61-2 3.5-5 6.5-11.5 11.25"/><path id="kvg:08868-s8" kvg:type="㇏" d="M50.75 60.75C54.5 61 75.96 78.82 85.14 85.86c2.79 2.14 5.36 3.76 8.49 4.76"/></g></g></g></g></svg>