<svg xmlns="http://www.w3.org/2000/svg" width="109" height="109" viewBox="0 0 109 109"><g id="kvg:StrokePaths_08872" style="fill:none;stroke:#000000;stroke-width:3;stroke-linecap:round;stroke-linejoin:round;"><g id="kvg:08872" kvg:element="衲"><g id="kvg:08872-g1" kvg:element="衤" kvg:variant="true" kvg:original="衣" kvg:position="left" kvg:radical="general"><path id="kvg:08872-s1" kvg:type="㇔" d="M22.33 15c3.41 2.41 7.07 6.03 10 10.25"/><path id="kvg:08872-s2" kvg:type="㇇" d="M14.2 37.86c.94.39 4.36.29 5.96.11 4.09-.47 14.37-3.83 16.69-4.49 2.33-.66 4.58.83 3.26 2.85C32.36 48.15 24.25 59 11.5 71"/><path id="kvg:08872-s3" kvg:type="㇑" d="M29 54.11c.12.29 1.65 1.53 1.77 3.39.57 8.93.06 38.2.06 41.25"/><path id="kvg:08872-s4" kvg:type="㇒" d="M43.31 46.89c.15.87.3 1.1.0 1.74-.92 1.91-3.76 6.61-5.61 8.87"/><path id="kvg:08872-s5" kvg:type="㇔" d="M34.33 59.5c2.82 2.35 5.84 5.88 8.25 10"/></g><g id="kvg:08872-g2" kvg:element="内" kvg:variant="true" kvg:position="right"><g id="kvg:08872-g3" kvg:element="冂"><path id="kvg:08872-s6" kvg:type="㇑" d="M50.35 32.32c.64 1.02 1.57 2.64 1.36 4.47s.21 56.66.21 59.71"/><path id="kvg:08872-s7" kvg:type="㇆a" d="M52.37 34.34c5.92-.79 35.92-3.69 37.09-3.97 2.49-.6 4.33 1.45 4.05 2.38-.47 1.59-.47 49.82-.47 54.39.0 10.56-5.46 4.76-7.73 2.62"/></g><g id="kvg:08872-g4" kvg:element="人" kvg:variant="true"><g id="kvg:08872-g5" kvg:element="入"><path id="kvg:08872-s8" kvg:type="㇒" d="M71.46 40.15c.03.9.01 1.59-.22 2.42-2.67 9.45-5.99 18.18-13.05 26.82"/><path id="kvg:08872-s9" kvg:type="㇏" d="M65.24 12.25c.71.0 1.85 1.4 2.04 2.64 3.47 22.77 8.24 37.54 16.89 50.83.77 1.18 1.16 2.03 1.78 2.44"/></g></g></g></g></g></svg>