<svg xmlns="http://www.w3.org/2000/svg" width="109" height="109" viewBox="0 0 109 109"><g id="kvg:StrokePaths_0887e"><g id="kvg:0887e" kvg:element="衾"><g id="kvg:0887e-g1" kvg:element="今" kvg:position="top"><g id="kvg:0887e-g2" kvg:element="人" kvg:position="top" kvg:radical="nelson"><path id="kvg:0887e-s1" kvg:type="㇒" d="M52.43 8.5c.1.75.5 2.02-.21 3.02-4.86 6.97-14.88 19.12-34.97 28.93"/><path id="kvg:0887e-s2" kvg:type="㇏" d="M54.41 10.73c5.22 5.18 27.68 22.1 33.43 25.89 1.95 1.29 4.46 1.84 6.41 2.2"/></g><g id="kvg:0887e-g3" kvg:position="bottom"><g id="kvg:0887e-g4" kvg:element="一"><path id="kvg:0887e-s3" kvg:type="㇐" d="M42.73 31.9c.38.13 2.71.14 3.1.13 3.97-.15 13.8-1.99 17.71-1.98.63.0 3.29.06 3.61.13"/></g><path id="kvg:0887e-s4" kvg:type="㇇" d="M29.5 41.9c1.5.37 4.07.81 6.5.55 6.31-.67 26.75-2.48 33.49-3.33 3.99-.51 4.98 1.13 3.01 4.15-3.25 4.98-5.25 8.48-8.25 12.73"/></g></g><g id="kvg:0887e-g5" kvg:element="衣" kvg:position="bottom" kvg:radical="tradit"><g id="kvg:0887e-g6" kvg:element="亠" kvg:position="top"><path id="kvg:0887e-s5" kvg:type="㇑a" d="M52.1 50.75c.8.43 2.13 1.94 2.13 2.94.0 1.65-.11 7.42-.11 9.23"/><path id="kvg:0887e-s6" kvg:type="㇐" d="M19.5 65.25c2.25.5 4.64.4 6.02.33 15.35-.7 43.13-4.67 58.24-4.85 2.33-.03 3.52.03 5.26.43"/></g><g id="kvg:0887e-g7" kvg:position="bottom"><path id="kvg:0887e-s7" kvg:type="㇒" d="M45.92 66.66c.09.46.36 1.22-.18 1.84-3.48 4.01-17.5 14-32.19 17.64"/><path id="kvg:0887e-s8" kvg:type="㇙" d="M39.22 78.17c.45.31.94 1.62.94 2.16-.03 6.85-.3 15.67-.3 16.83s1.11 1.82 2.52.95C43.78 97.24 53.5 90 61.21 85.87"/><path id="kvg:0887e-s9" kvg:type="㇒" d="M74.52 67.12c.02.21.26.99.11 1.26-.91 1.69-3.74 4.11-8.35 7.47"/><path id="kvg:0887e-s10" kvg:type="㇏" d="M53.04 68.83c1.96.17 5.28 2.65 5.73 3 6.72 5.19 20.73 17.42 26.59 20.51 1.82.96 4.17 2.65 5.88 2.98"/></g></g></g></g></svg>