<svg xmlns="http://www.w3.org/2000/svg" width="109" height="109" viewBox="0 0 109 109"><g id="kvg:StrokePaths_0887d" style="fill:none;stroke:#000000;stroke-width:3;stroke-linecap:round;stroke-linejoin:round;"><g id="kvg:0887d" kvg:element="衽"><g id="kvg:0887d-g1" kvg:element="衤" kvg:variant="true" kvg:original="衣" kvg:position="left" kvg:radical="general"><path id="kvg:0887d-s1" kvg:type="㇔" d="M21.83 14.5c3.07 2.53 6.37 6.32 9 10.75"/><path id="kvg:0887d-s2" kvg:type="㇇" d="M12.2 36.36c.94.39 2.89.99 4.46.61 6.09-1.47 17.37-3.83 19.69-4.49 2.33-.66 4.58.83 3.26 2.85C31.86 47.15 24.5 57.25 13.5 68.5"/><path id="kvg:0887d-s3" kvg:type="㇑" d="M28 52.61c.12.29 1.65 1.53 1.77 3.39.57 8.93.06 38.2.06 41.25"/><path id="kvg:0887d-s4" kvg:type="㇒" d="M42.25 46.89c.2.85.4 1.08.0 1.7-1.2 1.87-4.9 6.45-7.3 8.66"/><path id="kvg:0887d-s5" kvg:type="㇔" d="M32.83 57.75c3.16 3 6.54 7.5 9.25 12.75"/></g><g id="kvg:0887d-g2" kvg:element="壬" kvg:position="right"><g id="kvg:0887d-g3" kvg:element="丿"><path id="kvg:0887d-s6" kvg:type="㇒" d="M84.89 11.5c.1.52.41 1.53-.19 2.08C76.5 21 66.25 26.75 49.01 33.49"/></g><g id="kvg:0887d-g4" kvg:element="士"><path id="kvg:0887d-s7" kvg:type="㇐" d="M45.04 55.3c1.25.78 3.55.9 4.81.78 13.05-1.3 30.16-4.57 42.74-5.3 2.08-.12 3.34.37 4.39.76"/><path id="kvg:0887d-s8" kvg:type="㇑a" d="M69.89 28.11c.85.48 1.37 2.16 1.54 3.11.17.96.0 52.18-.17 58.17"/><path id="kvg:0887d-s9" kvg:type="㇐" d="M50.2 91.19c1.13.58 3.2.66 4.33.58C65.5 91 81.25 88.25 91.66 88c1.88-.04 3.01.27 3.96.56"/></g></g></g></g></svg>