<!DOCTYPE svg PUBLIC "-//W3C//DTD SVG 1.0//EN" "http://www.w3.org/TR/2001/REC-SVG-20010904/DTD/svg10.dtd" [
<!ATTLIST g
xmlns:kvg CDATA #FIXED "http://kanjivg.tagaini.net"
kvg:element CDATA #IMPLIED
kvg:variant CDATA #IMPLIED
kvg:partial CDATA #IMPLIED
kvg:original CDATA #IMPLIED
kvg:part CDATA #IMPLIED
kvg:number CDATA #IMPLIED
kvg:tradForm CDATA #IMPLIED
kvg:radicalForm CDATA #IMPLIED
kvg:position CDATA #IMPLIED
kvg:radical CDATA #IMPLIED
kvg:phon CDATA #IMPLIED >
<!ATTLIST path
xmlns:kvg CDATA #FIXED "http://kanjivg.tagaini.net"
kvg:type CDATA #IMPLIED >
]><svg xmlns="http://www.w3.org/2000/svg" width="109" height="109" viewBox="0 0 109 109"><g id="kvg:StrokePaths_08881" style="fill:none;stroke:#000000;stroke-width:3;stroke-linecap:round;stroke-linejoin:round;"><g id="kvg:08881" kvg:element="袁"><g id="kvg:08881-g1" kvg:element="土" kvg:position="top" kvg:radical="nelson"><path id="kvg:08881-s1" kvg:type="㇐" d="M29.67 23.17c.94.38 2.66.42 3.61.38 7.47-.3 30.22-3.55 43.47-4.38 1.57-.1 2.51.18 3.3.37"/><path id="kvg:08881-s2" kvg:type="㇑" d="M52.71 11.62c.12.29 1.59 1.53 1.7 3.39.54 8.93.15 14.32.15 17.36"/><g id="kvg:08881-g2" kvg:element="衣" kvg:part="1" kvg:variant="true"><g id="kvg:08881-g3" kvg:element="亠" kvg:partial="true"><path id="kvg:08881-s3" kvg:type="㇐" d="M18.88 36.23c1.46.54 4.14.76 5.59.54 18.29-2.77 42.79-5.02 62.32-6.23 2.42-.15 3.88.26 5.1.53"/></g></g></g><g id="kvg:08881-g4" kvg:position="bottom"><g id="kvg:08881-g5" kvg:element="口"><path id="kvg:08881-s4" kvg:type="㇑" d="M33.75 43.64c.6.3 1.37.53 1.48.93.82 2.88 1.8 9.98 2.95 15.44"/><path id="kvg:08881-s5" kvg:type="㇕b" d="M36.07 45.13c10.68-1.38 27.68-3.88 35.73-4.14 2.58-.08 2.97 1.76 2.75 2.69-.79 3.32-1.57 5.73-2.57 10.29"/><path id="kvg:08881-s6" kvg:type="㇐b" d="M40 58.25c8.08-1.03 23-3 33.12-3.85"/></g><g id="kvg:08881-g6" kvg:element="衣" kvg:part="2" kvg:variant="true" kvg:radical="tradit"><path id="kvg:08881-s7" kvg:type="㇒" d="M49.47 59.89c.09.59.41 1.66-.18 2.37-4.54 5.48-14.79 13.23-32.23 22.7"/><path id="kvg:08881-s8" kvg:type="㇙" d="M40.25 73.86c.44.31.93.61.92 1.15-.03 6.8-.3 18.51-.3 19.66s1.09 1.8 2.48.94c1.39-.86 11.15-9.37 13.9-11.37"/><path id="kvg:08881-s9" kvg:type="㇒" d="M80.09 58.42c.04.35.42 1.67.18 2.13-1.5 2.86-6.18 6.95-13.8 12.65"/><path id="kvg:08881-s10" kvg:type="㇏" d="M55.75 65.48c1.66.79 4.31 3.03 4.76 3.37 6.77 5 23.24 17.76 27.81 20.7 1.72 1.11 3.2 1.59 4.92 1.9"/></g></g></g></g><g id="kvg:StrokeNumbers_08881" style="font-size:8;fill:#808080"><text transform="matrix(1 0 0 1 23.50 22.50)">1</text><text transform="matrix(1 0 0 1 42.75 11.50)">2</text><text transform="matrix(1 0 0 1 10.50 35.50)">3</text><text transform="matrix(1 0 0 1 27.75 51.50)">4</text><text transform="matrix(1 0 0 1 38.25 42.50)">5</text><text transform="matrix(1 0 0 1 42.50 55.50)">6</text><text transform="matrix(1 0 0 1 35.25 69.50)">7</text><text transform="matrix(1 0 0 1 33.75 86.50)">8</text><text transform="matrix(1 0 0 1 70.50 64.50)">9</text><text transform="matrix(1 0 0 1 50.44 74.46)">10</text></g></svg>