<svg xmlns="http://www.w3.org/2000/svg" width="109" height="109" viewBox="0 0 109 109"><g id="kvg:StrokePaths_0888b" style="fill:none;stroke:#000000;stroke-width:3;stroke-linecap:round;stroke-linejoin:round;"><g id="kvg:0888b" kvg:element="袋"><g id="kvg:0888b-g1" kvg:element="代" kvg:position="top" kvg:phon="代"><g id="kvg:0888b-g2" kvg:element="亻" kvg:variant="true" kvg:original="人" kvg:position="left"><path id="kvg:0888b-s1" kvg:type="㇒" d="M36.72 13.21c.21 1.35-.06 3.11-.72 4.26-4.23 7.35-8.05 13.92-17.75 22.87"/><path id="kvg:0888b-s2" kvg:type="㇑" d="M30.22 29.33c.85.85 1.31 2.05 1.31 3.22.0 6.48.02 12.12.03 17.45.0 1.83.01 3.51.01 4.97"/></g><g id="kvg:0888b-g3" kvg:element="弋" kvg:position="right"><path id="kvg:0888b-s3" kvg:type="㇐" d="M44.41 29.48c2.16.52 4.93.41 7.11-.1 6.98-1.63 16.8-3.66 25.24-4.96 2.31-.35 4.72-.6 7.04-.15"/><path id="kvg:0888b-s4" kvg:type="㇂" d="M55.08 10.54c1.62.88 2.45 2.23 3.13 4C63.62 28.75 69.5 40 86.75 50.09c5.67 3.32 5.45.38 4.65-3.5"/><g id="kvg:0888b-g4" kvg:element="丶"><path id="kvg:0888b-s5" kvg:type="㇔" d="M78.6 11.46c2.99 1.19 7.77 3.93 9.17 5.97"/></g></g></g><g id="kvg:0888b-g5" kvg:element="衣" kvg:position="bottom" kvg:radical="general"><g id="kvg:0888b-g6" kvg:element="亠" kvg:position="top"><path id="kvg:0888b-s6" kvg:type="㇑a" d="M53 48.45c1.15 1.15 1.5 2.67 1.5 3.68.0 1.88.0 3.22.0 5.75"/><path id="kvg:0888b-s7" kvg:type="㇐" d="M22.75 61.64c3.38.61 6.64.31 10.13-.17 13.24-1.84 31.03-3.83 43.98-4.48 2.78-.14 6.18-.7 8.89.2"/></g><g id="kvg:0888b-g7" kvg:position="bottom"><path id="kvg:0888b-s8" kvg:type="㇒" d="M49.14 60.42c0 1.53-.8 2.6-1.67 3.76-4.8 6.44-14.59 17.57-27.92 24.39"/><path id="kvg:0888b-s9" kvg:type="㇙" d="M40.62 77.2c.84.84.95 1.88.94 2.66-.03 9.84-.06 15.29-.06 16.95s1.12 2.61 2.53 1.36c1.42-1.25 13.05-9.36 14.94-10.61"/><path id="kvg:0888b-s10" kvg:type="㇒" d="M73.86 63.96c.03.24-.15 1.17-.34 1.48-1.18 1.99-4.87 4.84-10.89 8.81"/><path id="kvg:0888b-s11" kvg:type="㇏" d="M48.51 67.91c2.86.72 21.75 15.27 31.81 21.86 3.15 2.06 6.93 4.23 9.93 5.15"/></g></g></g></g></svg>