<!DOCTYPE svg PUBLIC "-//W3C//DTD SVG 1.0//EN" "http://www.w3.org/TR/2001/REC-SVG-20010904/DTD/svg10.dtd" [
<!ATTLIST g
xmlns:kvg CDATA #FIXED "http://kanjivg.tagaini.net"
kvg:element CDATA #IMPLIED
kvg:variant CDATA #IMPLIED
kvg:partial CDATA #IMPLIED
kvg:original CDATA #IMPLIED
kvg:part CDATA #IMPLIED
kvg:number CDATA #IMPLIED
kvg:tradForm CDATA #IMPLIED
kvg:radicalForm CDATA #IMPLIED
kvg:position CDATA #IMPLIED
kvg:radical CDATA #IMPLIED
kvg:phon CDATA #IMPLIED >
<!ATTLIST path
xmlns:kvg CDATA #FIXED "http://kanjivg.tagaini.net"
kvg:type CDATA #IMPLIED >
]><svg xmlns="http://www.w3.org/2000/svg" width="109" height="109" viewBox="0 0 109 109"><g id="kvg:StrokePaths_08897" style="fill:none;stroke:#000000;stroke-width:3;stroke-linecap:round;stroke-linejoin:round;"><g id="kvg:08897" kvg:element="袗"><g id="kvg:08897-g1" kvg:element="衤" kvg:variant="true" kvg:original="衣" kvg:position="left" kvg:radical="general"><path id="kvg:08897-s1" kvg:type="㇔" d="M21.83 13.25c3.41 2.71 7.07 6.77 10 11.5"/><path id="kvg:08897-s2" kvg:type="㇇" d="M12.2 37.36c.94.39 4.36.83 5.96.61 3.34-.47 16.37-4.83 18.69-5.49 2.33-.66 4.58.83 3.26 2.85C32.36 47.15 24.5 58.5 12.5 69.5"/><path id="kvg:08897-s3" kvg:type="㇑" d="M28.5 54.61c.12.29 1.65 1.53 1.77 3.39.57 8.93.06 35.2.06 38.25"/><path id="kvg:08897-s4" kvg:type="㇒" d="M43.31 44.89c.15 1.08.29 1.37.0 2.15-.88 2.36-3.6 8.17-5.36 10.96"/><path id="kvg:08897-s5" kvg:type="㇔" d="M34.33 59c2.65 2.59 5.48 6.47 7.75 11"/></g><g id="kvg:08897-g2" kvg:position="right"><path id="kvg:08897-s6" kvg:type="㇒" d="M66.93 13.75c.06.93.26 2.47-.11 3.76-2.55 8.81-8.87 23.94-19.84 35.36"/><path id="kvg:08897-s7" kvg:type="㇏" d="M67.62 17.6c3.67 5.81 19.09 24.24 23.14 28.49 1.37 1.44 3.14 2.06 4.51 2.47"/><g id="kvg:08897-g3" kvg:element="彡"><path id="kvg:08897-s8" kvg:type="㇒" d="M75.35 40.33c.07.56.25 1.51-.13 2.24-2.47 4.78-10.78 14.07-23.01 20.59"/><path id="kvg:08897-s9" kvg:type="㇒" d="M81.63 54.89c.08.6.3 1.63-.17 2.39-3.2 5.23-13.66 15.69-29.35 22.92"/><path id="kvg:08897-s10" kvg:type="㇒" d="M88.79 68.1c.11.7.23 1.8-.21 2.81-2.6 5.92-17.55 18.89-38.01 26.84"/></g></g></g></g><g id="kvg:StrokeNumbers_08897" style="font-size:8;fill:#808080"><text transform="matrix(1 0 0 1 15.50 13.50)">1</text><text transform="matrix(1 0 0 1 4.50 37.50)">2</text><text transform="matrix(1 0 0 1 22.50 70.50)">3</text><text transform="matrix(1 0 0 1 43.50 42.50)">4</text><text transform="matrix(1 0 0 1 33.50 72.50)">5</text><text transform="matrix(1 0 0 1 57.50 14.50)">6</text><text transform="matrix(1 0 0 1 74.50 21.50)">7</text><text transform="matrix(1 0 0 1 67.50 41.50)">8</text><text transform="matrix(1 0 0 1 73.44 56.50)">9</text><text transform="matrix(1 0 0 1 77.44 71.46)">10</text></g></svg>