<svg xmlns="http://www.w3.org/2000/svg" width="109" height="109" viewBox="0 0 109 109"><g id="kvg:StrokePaths_08899" style="fill:none;stroke:#000000;stroke-width:3;stroke-linecap:round;stroke-linejoin:round;"><g id="kvg:08899" kvg:element="袙"><g id="kvg:08899-g1" kvg:element="衤" kvg:variant="true" kvg:original="衣" kvg:position="left" kvg:radical="general"><path id="kvg:08899-s1" kvg:type="㇔" d="M23.33 13.25c3.41 2.71 7.07 6.77 10 11.5"/><path id="kvg:08899-s2" kvg:type="㇇" d="M14.2 36.36c.94.39 2.36.81 3.96.61 3.84-.47 17.87-3.83 20.19-4.49 2.33-.66 4.58.83 3.26 2.85C33.86 47.15 24.4 60.02 13 69"/><path id="kvg:08899-s3" kvg:type="㇑" d="M30 52.61c.12.29 1.65 1.53 1.77 3.39.57 8.93.06 35.7.06 38.75"/><path id="kvg:08899-s4" kvg:type="㇒" d="M45.31 44.89c.15.91.3 1.16.0 1.82-.92 2-3.76 6.92-5.61 9.29"/><path id="kvg:08899-s5" kvg:type="㇔" d="M35.08 56.75c3.59 2.18 7.43 5.44 10.5 9.25"/></g><g id="kvg:08899-g2" kvg:element="白" kvg:position="right"><g id="kvg:08899-g3" kvg:position="top"><path id="kvg:08899-s6" kvg:type="㇔" d="M70.41 16c.5 1.02.68 2.31.46 3.15-1.63 6.18-5.21 17.27-10.68 24.31"/></g><g id="kvg:08899-g4" kvg:element="日" kvg:position="bottom"><path id="kvg:08899-s7" kvg:type="㇑" d="M53.8 43.87c.59 1.21 1.19 2.22 1.19 3.83s.69 35.64.69 45.3"/><path id="kvg:08899-s8" kvg:type="㇕a" d="M54.85 45.74c3.35-.2 30.57-3.29 33.62-3.64 1.94-.22 2.73 1.32 2.72 3.86-.01 4.34-1.03 32-1.66 45.29"/><path id="kvg:08899-s9" kvg:type="㇐a" d="M55.31 64.93c7.03-.61 29.92-3.3 35.05-3.3"/><path id="kvg:08899-s10" kvg:type="㇐a" d="M56.48 89.35c8.41-.65 24.38-2.19 33.35-2.49"/></g></g></g></g></svg>