<svg xmlns="http://www.w3.org/2000/svg" width="109" height="109" viewBox="0 0 109 109"><g id="kvg:StrokePaths_088a2"><g id="kvg:088a2" kvg:element="袢"><g id="kvg:088a2-g1" kvg:element="衤" kvg:variant="true" kvg:original="衣" kvg:position="left" kvg:radical="general"><path id="kvg:088a2-s1" kvg:type="㇔" d="M24.53 15.62c3.69 2.09 7.64 5.22 10.8 8.88"/><path id="kvg:088a2-s2" kvg:type="㇇" d="M15.2 35.36c1.18.64 3.14.96 4.71.61 3.22-.72 15.62-4.08 17.94-4.74 2.33-.66 4.16 1.39 2.76 3.35C32.12 46.38 24.5 57.25 12.5 67.75"/><path id="kvg:088a2-s3" kvg:type="㇑" d="M30.25 50.86c.82.82 1.27 1.77 1.27 3.64.0 4.3.03 24.9.05 35.75.0 3.36.01 5.78.01 6.5"/><path id="kvg:088a2-s4" kvg:type="㇒" d="M43.5 46.64c.2.85-.1 1.83-.5 2.45-1.2 1.87-2.98 4.33-5.38 6.54"/><path id="kvg:088a2-s5" kvg:type="㇔" d="M34.25 57.12c3.01 2.68 6.24 6.69 8.83 11.37"/></g><g id="kvg:088a2-g2" kvg:element="半" kvg:variant="true" kvg:position="right"><path id="kvg:088a2-s6" kvg:type="㇒" d="M62.27 26.5c.1.93-.01 1.84-.52 2.62-2.63 4-6.13 9-12.59 13.38"/><path id="kvg:088a2-s7" kvg:type="㇔" d="M80.79 24.58c5.01 2.32 12.94 9.53 14.19 13.13"/><g id="kvg:088a2-g3" kvg:element="二" kvg:part="1"><path id="kvg:088a2-s8" kvg:type="㇐" d="M54.58 44.9c1.82.94 3.68.97 5.66.76 7.42-.79 17-2.06 24.89-3.11 1.78-.24 3.13-.26 4.85.2"/></g><g id="kvg:088a2-g4" kvg:element="十"><g id="kvg:088a2-g5" kvg:element="二" kvg:part="2"><path id="kvg:088a2-s9" kvg:type="㇐" d="M48.5 61.25c2.01.84 4.3.65 6.41.4 10.65-1.24 25.59-2.43 36.1-3.25 2.1-.16 4.16-.02 6.25.23"/></g><path id="kvg:088a2-s10" kvg:type="㇑" d="M70.12 13.25c1.13 1.13 1.46 2.62 1.46 4 0 .83.02 48.46.03 70.25.0 4.95.0 8.57.0 10"/></g></g></g></g></svg>