<svg xmlns="http://www.w3.org/2000/svg" width="109" height="109" viewBox="0 0 109 109"><g id="kvg:StrokePaths_088bf" style="fill:none;stroke:#000000;stroke-width:3;stroke-linecap:round;stroke-linejoin:round;"><g id="kvg:088bf" kvg:element="袿"><g id="kvg:088bf-g1" kvg:element="衤" kvg:variant="true" kvg:original="衣" kvg:position="left" kvg:radical="general"><path id="kvg:088bf-s1" kvg:type="㇔" d="M19.83 13.75c3.59 2.35 7.43 5.88 10.5 10"/><path id="kvg:088bf-s2" kvg:type="㇇" d="M11.7 35.86c.94.39 3.36.83 4.96.61C20 36 32.52 31.63 34.85 30.97s4.08 1.33 2.76 3.35C29.86 46.15 21.4 60.52 10 69.5"/><path id="kvg:088bf-s3" kvg:type="㇑" d="M26.5 51.61c.12.29 1.65 1.53 1.77 3.39.57 8.93.06 39.7.06 42.75"/><path id="kvg:088bf-s4" kvg:type="㇒" d="M40.29 45.89c.17.95.33 1.21.0 1.9-1 2.09-4.09 7.23-6.09 9.71"/><path id="kvg:088bf-s5" kvg:type="㇔" d="M30.33 58.75c3.5 2.65 7.25 6.62 10.25 11.25"/></g><g id="kvg:088bf-g2" kvg:element="圭" kvg:position="right"><g id="kvg:088bf-g3" kvg:element="土" kvg:position="top"><path id="kvg:088bf-s6" kvg:type="㇐" d="M52.05 29.24c.95.48 2.71.63 3.66.48 11.04-1.72 21.04-2.97 32-4.3 1.58-.19 2.55.23 3.34.47"/><path id="kvg:088bf-s7" kvg:type="㇑a" d="M66.95 11.37c.13.32 1.91 1.65 1.91 3.66.0 12.97.15 12.71.15 29.86"/><path id="kvg:088bf-s8" kvg:type="㇐" d="M45.7 46.15c1.44.51 3.08.58 4.53.51C58.75 46.25 81 44 90.45 43.63c2.4-.09 3.33.24 4.55.5"/></g><g id="kvg:088bf-g4" kvg:element="土" kvg:position="bottom"><path id="kvg:088bf-s9" kvg:type="㇐" d="M48.82 71.46c.98.38 2.76.45 3.74.38 14.59-.99 25.11-2.86 36.03-3.15 1.62-.04 2.6.18 3.41.37"/><path id="kvg:088bf-s10" kvg:type="㇑a" d="M68.1 52.32c.12.28 1.68 1.45 1.68 3.22.0 11.39.13 22.64.13 37.7"/><path id="kvg:088bf-s11" kvg:type="㇐" d="M41.05 95.52c1.67.61 3.57.75 5.24.61 20.65-1.71 28.18-2.71 46.65-3.52 2.78-.12 3.87.29 5.26.6"/></g></g></g></g></svg>