<svg xmlns="http://www.w3.org/2000/svg" width="109" height="109" viewBox="0 0 109 109"><g id="kvg:StrokePaths_088cf" style="fill:none;stroke:#000000;stroke-width:3;stroke-linecap:round;stroke-linejoin:round;"><g id="kvg:088cf" kvg:element="裏"><g id="kvg:088cf-g1" kvg:element="衣" kvg:part="1" kvg:position="top" kvg:radical="tradit"><g id="kvg:088cf-g2" kvg:element="亠" kvg:radical="nelson"><path id="kvg:088cf-s1" kvg:type="㇑a" d="M52.69 8.5c1.03 1.03 1.45 2.12 1.45 3.77.0 1.98-.02 1.79-.02 4.98"/><path id="kvg:088cf-s2" kvg:type="㇐" d="M16 21.11c3.38.24 6.74.23 10.12-.12 13.14-1.38 40.73-3.9 56.13-4.62 3.2-.15 6.62-.48 9.75.3"/></g></g><g id="kvg:088cf-g3" kvg:position="bottom"><g id="kvg:088cf-g4" kvg:element="里" kvg:phon="里"><g id="kvg:088cf-g5" kvg:element="日"><path id="kvg:088cf-s3" kvg:type="㇑" d="M28.3 28.66c.71.71 1.11 1.73 1.37 2.58 1.33 4.39 2.78 10.38 3.8 16.43.23 1.34.43 2.63.6 3.84"/><path id="kvg:088cf-s4" kvg:type="㇕a" d="M30.5 30.17c14.38-1.54 35.62-3.54 46.03-4.39 2.48-.2 3.97 1.34 3.6 3.29-.94 4.93-2.3 10.06-3.75 14.31-.43 1.27-.89 2.49-1.38 3.64"/><path id="kvg:088cf-s5" kvg:type="㇐a" d="M33.37 39.51c8.75-.89 34.38-3.14 43.98-3.77"/><path id="kvg:088cf-s6" kvg:type="㇐a" d="M34.98 49.47C47 48 61.86 46.61 74.5 45.94"/></g><path id="kvg:088cf-s7" kvg:type="㇑a" d="M52.92 30.43c.95.95 1.4 2.07 1.4 3.57.0 15.11-.07 27.65-.07 31.75"/><path id="kvg:088cf-s8" kvg:type="㇐" d="M34.5 58.05c1.62.45 3.54.39 5.13.19 8.87-1.12 19.49-2.62 29.24-3.49 1.84-.17 3.73-.24 5.54.24"/><path id="kvg:088cf-s9" kvg:type="㇐" d="M19.57 69.35c3.18.65 6.14.55 8.95.24 14.35-1.59 35.15-4.38 50.73-5.02 3.23-.13 6.38-.45 9.69.17"/></g><g id="kvg:088cf-g6" kvg:element="衣" kvg:part="2" kvg:radical="tradit"><path id="kvg:088cf-s10" kvg:type="㇒" d="M47.73 68.14c-.23 1.23-1.15 2.69-1.92 3.54-3.88 4.27-13.1 11.34-28.5 16.54"/><path id="kvg:088cf-s11" kvg:type="㇙" d="M40.25 80.5c.69.69 1 1.75 1 3 0 5.26-.07 7.62-.07 11.43.0 2.42.7 2.87 2.43 1.64 3.02-2.15 11.24-7.86 15.1-9.84"/><path id="kvg:088cf-s12" kvg:type="㇒" d="M73.94 67.89c.08.79-.33 1.51-.8 2.09-1.57 1.97-3.39 3.9-7.83 7.74"/><path id="kvg:088cf-s13" kvg:type="㇏" d="M50.75 71.25C55.25 72.5 72 84 85.65 90.71c2.13 1.05 6.47 3.24 8.6 3.54"/></g></g></g></g></svg>