<!DOCTYPE svg PUBLIC "-//W3C//DTD SVG 1.0//EN" "http://www.w3.org/TR/2001/REC-SVG-20010904/DTD/svg10.dtd" [
<!ATTLIST g
xmlns:kvg CDATA #FIXED "http://kanjivg.tagaini.net"
kvg:element CDATA #IMPLIED
kvg:variant CDATA #IMPLIED
kvg:partial CDATA #IMPLIED
kvg:original CDATA #IMPLIED
kvg:part CDATA #IMPLIED
kvg:number CDATA #IMPLIED
kvg:tradForm CDATA #IMPLIED
kvg:radicalForm CDATA #IMPLIED
kvg:position CDATA #IMPLIED
kvg:radical CDATA #IMPLIED
kvg:phon CDATA #IMPLIED >
<!ATTLIST path
xmlns:kvg CDATA #FIXED "http://kanjivg.tagaini.net"
kvg:type CDATA #IMPLIED >
]><svg xmlns="http://www.w3.org/2000/svg" width="109" height="109" viewBox="0 0 109 109"><g id="kvg:StrokePaths_088dd" style="fill:none;stroke:#000000;stroke-width:3;stroke-linecap:round;stroke-linejoin:round;"><g id="kvg:088dd" kvg:element="裝"><g id="kvg:088dd-g1" kvg:element="壯" kvg:position="top"><g id="kvg:088dd-g2" kvg:element="爿" kvg:position="left"><path id="kvg:088dd-s1" kvg:type="㇑" d="M39.84 8.72c.75.86 1.24 2.33 1.24 3.33.0 9.68-.02 44.27-.02 47.57"/><path id="kvg:088dd-s2" kvg:type="㇄" d="M21.76 13.06c.86.4 1.19 1.37 1.27 2.7.11 1.99-.97 9.39-1.23 11.47-.09.66.17 1.8 1.44 1.55 4.43-.89 13.02-2.03 17.52-2.02"/><path id="kvg:088dd-s3" kvg:type="㇐" d="M14.25 41.03c1.46.1 1.76.4 3.46.33 7.28-.3 18.11-3.41 23.19-3.57"/><path id="kvg:088dd-s4" kvg:type="㇒" d="M26.72 40.81c.03.47-.06 1.21-.06 1.89.0 5.79-1.76 12.23-10.22 18.08"/></g><g id="kvg:088dd-g3" kvg:element="士" kvg:position="right"><path id="kvg:088dd-s5" kvg:type="㇐" d="M46.5 29.09c1.15.27 3.47.51 5.86.33 11.75-.89 22.68-3.54 36.61-3.83 1.79-.04 3.45.16 4.35.33"/><path id="kvg:088dd-s6" kvg:type="㇑a" d="M66.22 9.75c.13.32 1.93 1.65 1.93 3.68.0 7.07.11 26.57.11 32.98"/><path id="kvg:088dd-s7" kvg:type="㇐" d="M50.92 49.17c1.06.19 3 .23 4.06.19 13.13-.52 20.39-2.54 32.13-2.79 1.76-.04 2.83.09 3.71.18"/></g></g><g id="kvg:088dd-g4" kvg:element="衣" kvg:position="bottom" kvg:radical="general"><g id="kvg:088dd-g5" kvg:element="亠" kvg:position="top"><path id="kvg:088dd-s8" kvg:type="㇑a" d="M55.29 54.25c.66.35 1.75 1.59 1.75 2.42.0 1.35-.09 6.77-.09 8.26"/><path id="kvg:088dd-s9" kvg:type="㇐" d="M18.5 68.18c1.65.07 5.41.5 7.01.39 15.24-1.06 43.74-4.81 58.39-5.81 2.71-.18 4.1.03 6.12.5"/></g><g id="kvg:088dd-g6" kvg:position="bottom"><path id="kvg:088dd-s10" kvg:type="㇒" d="M48.93 66.66c.09.55.35 1.46-.18 2.2-3.42 4.78-16.5 14.89-31.7 21.04"/><path id="kvg:088dd-s11" kvg:type="㇙" d="M42.22 79.67c.45.31.94 1.62.94 2.16-.03 6.85-.3 14.67-.3 15.83s1.11 1.82 2.52.95c1.41-.87 10.88-8.86 16.34-12.74"/><path id="kvg:088dd-s12" kvg:type="㇒" d="M76.97 68.62c.03.26.33 1.27.14 1.62-1.18 2.17-4.85 5.28-10.84 9.61"/><path id="kvg:088dd-s13" kvg:type="㇏" d="M54.54 71.33c1.58.75 4.1 2.86 4.54 3.18 6.45 4.71 22.12 16.75 26.48 19.52 1.64 1.05 3.04 1.49 4.69 1.79"/></g></g></g></g><g id="kvg:StrokeNumbers_088dd" style="font-size:8;fill:#808080"><text transform="matrix(1 0 0 1 31.75 8.50)">1</text><text transform="matrix(1 0 0 1 12.50 12.50)">2</text><text transform="matrix(1 0 0 1 6.50 41.48)">3</text><text transform="matrix(1 0 0 1 18.50 50.40)">4</text><text transform="matrix(1 0 0 1 45.50 26.50)">5</text><text transform="matrix(1 0 0 1 56.50 10.50)">6</text><text transform="matrix(1 0 0 1 49.50 45.18)">7</text><text transform="matrix(1 0 0 1 46.75 57.50)">8</text><text transform="matrix(1 0 0 1 11.50 70.50)">9</text><text transform="matrix(1 0 0 1 29.50 77.50)">10</text><text transform="matrix(1 0 0 1 33.75 90.88)">11</text><text transform="matrix(1 0 0 1 65.50 72.50)">12</text><text transform="matrix(1 0 0 1 49.75 79.50)">13</text></g></svg>