<svg xmlns="http://www.w3.org/2000/svg" width="109" height="109" viewBox="0 0 109 109"><g id="kvg:StrokePaths_088d5"><g id="kvg:088d5" kvg:element="裕"><g id="kvg:088d5-g1" kvg:element="衤" kvg:variant="true" kvg:original="衣" kvg:position="left" kvg:radical="general"><path id="kvg:088d5-s1" kvg:type="㇔" d="M20.33 13.5c3.33 2.12 6.9 5.29 9.75 9"/><path id="kvg:088d5-s2" kvg:type="㇇" d="M11.7 33.86c2.14.9 4.3.91 6.48.36 4.95-1.26 14.77-4.2 16.67-4.74 2.33-.66 4.08.83 2.76 2.85C29.86 44.15 21.15 56.77 9.75 65.75"/><path id="kvg:088d5-s3" kvg:type="㇑" d="M27.25 49.36c.76.76 1.02 2.14 1.02 3.64.0 8.33.05 30.38.05 36.5.0 2.85.01 5.2.01 6.75"/><path id="kvg:088d5-s4" kvg:type="㇒" d="M39.22 45.89c0 .74-.29 1.73-.75 2.28-1.4 1.69-4.47 4.33-7.27 6.33"/><path id="kvg:088d5-s5" kvg:type="㇔" d="M30.75 56c2.76 1.88 5.71 4.7 8.08 8"/></g><g id="kvg:088d5-g2" kvg:element="谷" kvg:position="right" kvg:phon="谷"><g id="kvg:088d5-g3" kvg:position="top"><path id="kvg:088d5-s6" kvg:type="㇒" d="M56.98 16.48c.11.86-.22 1.7-.65 2.43-2.21 3.84-4.96 8.21-12.18 13.84"/><path id="kvg:088d5-s7" kvg:type="㇔" d="M73.75 15.88c6.05 3.02 13.41 8.79 15.48 11.88"/></g><g id="kvg:088d5-g4" kvg:position="bottom"><path id="kvg:088d5-s8" kvg:type="㇒" d="M65.38 32.5c.07.82-.19 2.19-.63 3.29C61 45 52.5 58.25 41.17 67.25"/><path id="kvg:088d5-s9" kvg:type="㇏" d="M65.46 36.08c7.03 6.58 16.44 14.87 23.2 19.56 2 1.39 4.23 3.07 6.6 3.75"/><g id="kvg:088d5-g5" kvg:element="口"><path id="kvg:088d5-s10" kvg:type="㇑" d="M49.84 67.41c.75.75 1.25 1.9 1.36 3.07.93 4.15 1.94 11.43 2.74 17.99.27 2.21.51 4.33.72 6.23"/><path id="kvg:088d5-s11" kvg:type="㇕b" d="M52.15 69.61c10.67-1.97 19.47-2.97 25.95-3.82 3.15-.41 6.42-.02 5.45 4.07-1.5 6.3-2.66 11.34-4.08 19.14"/><path id="kvg:088d5-s12" kvg:type="㇐b" d="M55.69 92.09c7.02-.53 13.19-1.17 21.32-1.72 1.75-.12 3.6-.24 5.56-.37"/></g></g></g></g></g></svg>