<!DOCTYPE svg PUBLIC "-//W3C//DTD SVG 1.0//EN" "http://www.w3.org/TR/2001/REC-SVG-20010904/DTD/svg10.dtd" [
<!ATTLIST g
xmlns:kvg CDATA #FIXED "http://kanjivg.tagaini.net"
kvg:element CDATA #IMPLIED
kvg:variant CDATA #IMPLIED
kvg:partial CDATA #IMPLIED
kvg:original CDATA #IMPLIED
kvg:part CDATA #IMPLIED
kvg:number CDATA #IMPLIED
kvg:tradForm CDATA #IMPLIED
kvg:radicalForm CDATA #IMPLIED
kvg:position CDATA #IMPLIED
kvg:radical CDATA #IMPLIED
kvg:phon CDATA #IMPLIED >
<!ATTLIST path
xmlns:kvg CDATA #FIXED "http://kanjivg.tagaini.net"
kvg:type CDATA #IMPLIED >
]><svg xmlns="http://www.w3.org/2000/svg" width="109" height="109" viewBox="0 0 109 109"><g id="kvg:StrokePaths_088f9" style="fill:none;stroke:#000000;stroke-width:3;stroke-linecap:round;stroke-linejoin:round;"><g id="kvg:088f9" kvg:element="裹"><g id="kvg:088f9-g1" kvg:element="衣" kvg:part="1" kvg:position="top" kvg:radical="tradit"><g id="kvg:088f9-g2" kvg:element="亠" kvg:radical="nelson"><path id="kvg:088f9-s1" kvg:type="㇑a" d="M51.79 9.75c.66.35 1.75 1.59 1.75 2.42.0 1.35-.09 5.27-.09 6.76"/><path id="kvg:088f9-s2" kvg:type="㇐" d="M19.5 21.25c1.42.06 4.64.4 6.02.33 15.35-.7 40.63-4.17 55.74-4.35 2.33-.03 3.52.03 5.26.43"/></g></g><g id="kvg:088f9-g3" kvg:position="bottom"><g id="kvg:088f9-g4" kvg:element="果" kvg:variant="true"><g id="kvg:088f9-g5" kvg:element="日" kvg:part="1"><g id="kvg:088f9-g6" kvg:element="日"><path id="kvg:088f9-s3" kvg:type="㇑" d="M29.59 29.22c.55.38 1.33.83 1.33 1.39.0.56 3.67 15.21 3.67 15.49s.1.27.19.83"/><path id="kvg:088f9-s4" kvg:type="㇕a" d="M31.03 30.05c1.64-.17 41.78-4.28 43.28-4.37 1.97-.12 3.69 1.07 3.7 2.37.02 2.21-3.29 14.67-3.29 15.09"/><path id="kvg:088f9-s5" kvg:type="㇐a" d="M32.94 37.83c2.22-.14 41.13-4 43.64-4.16"/><path id="kvg:088f9-s6" kvg:type="㇐a" d="M35.46 45.59c4.53-.59 33.32-3.32 38.96-3.94"/></g></g><g id="kvg:088f9-g7" kvg:element="木" kvg:variant="true"><path id="kvg:088f9-s7" kvg:type="㇐" d="M19.86 52.77c1.23.11 4.52.26 7.81.2 9.04-.15 28.86-3.1 55.17-4.32 3.29-.15 4.11.02 6.16.1"/><g id="kvg:088f9-g8" kvg:element="日" kvg:part="2"><path id="kvg:088f9-s8" kvg:type="㇑" d="M51.9 28.33c1.08.26 1.72 1.19 1.94 1.72.21.53.0 24.4-.22 27.7"/></g><path id="kvg:088f9-s9" kvg:type="㇒" d="M38.91 57.67c.05.89-.26 1.61-.57 2.02-3.46 4.63-10.82 9.69-16.59 12.16"/><path id="kvg:088f9-s10" kvg:type="㇔/㇏" d="M68.84 54.65c6.41 1.85 12.41 5.6 16.6 10.11"/></g></g><g id="kvg:088f9-g9" kvg:element="衣" kvg:part="2" kvg:radical="tradit"><path id="kvg:088f9-s11" kvg:type="㇒" d="M51.42 61.16c.1.65.38 1.72-.19 2.6-3.69 5.65-19.17 17.92-34.17 24.89"/><path id="kvg:088f9-s12" kvg:type="㇙" d="M40.22 77.17c.45.31.94 1.62.94 2.16-.03 6.85-.3 15.67-.3 16.83s1.11 1.82 2.52.95c1.41-.87 10.88-8.86 16.34-12.74"/><path id="kvg:088f9-s13" kvg:type="㇒" d="M74.02 62.62c.02.24.26 1.16.11 1.48-.91 1.98-3.74 4.81-8.35 8.76"/><path id="kvg:088f9-s14" kvg:type="㇏" d="M55.54 65.83c1.42.83 3.7 3.18 4.09 3.54C65.45 74.61 79.59 88 83.52 91.08c1.48 1.17 2.75 1.66 4.23 1.99"/></g></g></g></g><g id="kvg:StrokeNumbers_088f9" style="font-size:8;fill:#808080"><text transform="matrix(1 0 0 1 43.50 9.50)">1</text><text transform="matrix(1 0 0 1 12.50 21.50)">2</text><text transform="matrix(1 0 0 1 22.50 35.50)">3</text><text transform="matrix(1 0 0 1 33.50 28.50)">4</text><text transform="matrix(1 0 0 1 37.50 36.50)">5</text><text transform="matrix(1 0 0 1 38.50 44.50)">6</text><text transform="matrix(1 0 0 1 12.50 54.68)">7</text><text transform="matrix(1 0 0 1 58.50 33.50)">8</text><text transform="matrix(1 0 0 1 29.50 61.50)">9</text><text transform="matrix(1 0 0 1 77.50 56.45)">10</text><text transform="matrix(1 0 0 1 41.50 64.50)">11</text><text transform="matrix(1 0 0 1 30.75 89.50)">12</text><text transform="matrix(1 0 0 1 63.50 64.50)">13</text><text transform="matrix(1 0 0 1 50.50 75.50)">14</text></g></svg>