<svg xmlns="http://www.w3.org/2000/svg" width="109" height="109" viewBox="0 0 109 109"><g id="kvg:StrokePaths_088fd"><g id="kvg:088fd" kvg:element="製"><g id="kvg:088fd-g1" kvg:element="制" kvg:position="top" kvg:phon="制"><g id="kvg:088fd-g2" kvg:position="left"><g id="kvg:088fd-g3" kvg:element="牛" kvg:part="1"><path id="kvg:088fd-s1" kvg:type="㇒" d="M25.63 12.8c.03.37.15.99-.05 1.49-1.2 2.96-3.7 8.21-8.65 13.24"/><path id="kvg:088fd-s2" kvg:type="㇐" d="M24.7 20.03c1.33.38 3.01.36 4.31.24 5.74-.5 11.87-1.53 17.72-2.14 1.47-.15 2.69-.3 4.13-.05"/><path id="kvg:088fd-s3" kvg:type="㇐" d="M15 32.49c2.21.56 4.55.38 6.75.08 9.5-1.32 21.56-2.99 29.75-3.72 2.23-.2 4.41-.37 6.64-.04"/></g><g id="kvg:088fd-g4" kvg:element="巾"><path id="kvg:088fd-s4" kvg:type="㇑" d="M21.69 41.08c.41.19 1.27 1.41 1.35 1.78.44 2.09 1.02 5.51 1.57 8.37C24.95 53 25.12 54 25.4 55.46"/><path id="kvg:088fd-s5" kvg:type="㇆a" d="M23.4 42.04c9.1-2.04 19.37-3.61 25.09-4.26 1.39-.16 2.6.9 2.63 1.76.13 4.33.01 6.83-.31 11.22-.22 3.12-3.35.42-4.42-.63"/><g id="kvg:088fd-g5" kvg:element="牛" kvg:part="2"><path id="kvg:088fd-s6" kvg:type="㇑" d="M35.39 7.88c.93.93 1.57 2.49 1.57 3.52.0.54.1 26.96.03 40.85-.01 1.74-.01 3.27-.01 4.5"/></g></g></g><g id="kvg:088fd-g6" kvg:element="刂" kvg:variant="true" kvg:original="刀" kvg:position="right"><path id="kvg:088fd-s7" kvg:type="㇑" d="M68.15 14.14c.91.91 1.37 2.36 1.37 3.53.0 6.74.14 15.19.05 20.83-.04 2.32-.07 4.12-.07 5.06"/><path id="kvg:088fd-s8" kvg:type="㇚" d="M85.69 8.66c1.01 1.01 1.48 2.47 1.48 3.99.0 16.11-.22 31.19-.22 34.14.0 7.46-4.58 1.59-6.34-.1"/></g></g><g id="kvg:088fd-g7" kvg:element="衣" kvg:position="bottom" kvg:radical="general"><g id="kvg:088fd-g8" kvg:element="亠" kvg:position="top"><path id="kvg:088fd-s9" kvg:type="㇑a" d="M56.19 51.5c.72.72 1.38 1.62 1.38 3.33.0 1.42-.12 2.54-.12 4.98"/><path id="kvg:088fd-s10" kvg:type="㇐" d="M21.07 64.45c3.06.22 5.64.37 8.71.0 11.5-1.37 37.15-4.74 50.22-5.59 2.71-.18 5.5-.24 8.32.37"/></g><g id="kvg:088fd-g9" kvg:position="bottom"><path id="kvg:088fd-s11" kvg:type="㇒" d="M48.95 65.28c.09.58-.07 1.86-.67 2.58C44 73 35.38 79.88 18.37 88.96"/><path id="kvg:088fd-s12" kvg:type="㇙" d="M41.64 77.1c.88.88 1.3 2.27 1.3 3.74.0 7.34-.01 16.48-.01 17.72s1.02 2.03 2.15 1.02C48.5 96.5 55 91.25 59.17 88.05"/><path id="kvg:088fd-s13" kvg:type="㇒" d="M75.86 65.17c.1 1.07-.04 2.12-.67 3.12-1.14 1.8-2.96 3.45-6.41 6.6"/><path id="kvg:088fd-s14" kvg:type="㇏" d="M55.45 70.15c4.43.09 22.99 15.84 31.9 21.52 2.27 1.45 4.28 2.46 6.58 3.56"/></g></g></g></g></svg>