<svg xmlns="http://www.w3.org/2000/svg" width="109" height="109" viewBox="0 0 109 109"><g id="kvg:StrokePaths_0890c" style="fill:none;stroke:#000000;stroke-width:3;stroke-linecap:round;stroke-linejoin:round;"><g id="kvg:0890c" kvg:element="褌"><g id="kvg:0890c-g1" kvg:element="衤" kvg:variant="true" kvg:original="衣" kvg:position="left" kvg:radical="general"><path id="kvg:0890c-s1" kvg:type="㇔" d="M21.33 13c3.07 2.65 6.37 6.62 9 11.25"/><path id="kvg:0890c-s2" kvg:type="㇇" d="M10.7 34.36c.94.39 2.88.91 4.46.61 3.84-.72 16.87-3.33 19.19-3.99 2.33-.66 4.02.79 2.76 2.85C29 47 23 56.25 11 68.5"/><path id="kvg:0890c-s3" kvg:type="㇑" d="M26.5 51.11c.12.29 1.65 1.53 1.77 3.39.57 8.93.06 39.2.06 42.25"/><path id="kvg:0890c-s4" kvg:type="㇒" d="M41.26 44.89c.19.93.38 1.18.0 1.86-1.16 2.05-4.74 7.08-7.06 9.5"/><path id="kvg:0890c-s5" kvg:type="㇔" d="M31.33 57.25c3.33 2.41 6.9 6.03 9.75 10.25"/></g><g id="kvg:0890c-g2" kvg:element="軍" kvg:position="right"><g id="kvg:0890c-g3" kvg:element="冖" kvg:position="top"><path id="kvg:0890c-s6" kvg:type="㇔" d="M48.47 14.41c-.12 3.61-2.99 13.07-4.01 15.23"/><path id="kvg:0890c-s7" kvg:type="㇖b" d="M48.17 17.91c5.73-.77 29.29-3.08 40.61-3.68 8.61-.46 1.34 7.64.28 8.93"/></g><g id="kvg:0890c-g4" kvg:element="車" kvg:position="bottom"><path id="kvg:0890c-s8" kvg:type="㇐" d="M50.12 33.32c1.08.46 3.06.53 4.15.46 8.48-.54 22.23-2.29 30.75-3.44 1.79-.24 2.89.22 3.79.45"/><path id="kvg:0890c-s9" kvg:type="㇑" d="M48.23 42.85c.58.46 1.32 1.79 1.43 2.4.87 4.85 2.8 13.67 3.84 21.51"/><path id="kvg:0890c-s10" kvg:type="㇕a" d="M50.46 43.98c8.83-.88 31.21-3.5 37.23-3.63 2.49-.06 3.5 1.7 3.4 3.07-.37 4.72-1.77 12.46-3.74 20.2"/><path id="kvg:0890c-s11" kvg:type="㇐a" d="M51.54 53.44C60.75 52.5 81 51 89.64 50.53"/><path id="kvg:0890c-s12" kvg:type="㇐a" d="M53.54 64.88c7.74-.91 24.23-3.14 34.3-3.14"/><path id="kvg:0890c-s13" kvg:type="㇐" d="M43.18 75.32c1.54.75 4.35.87 5.91.75 12.67-1.03 29.92-2.75 43.85-3.38 2.57-.12 4.11.35 5.39.73"/><path id="kvg:0890c-s14" kvg:type="㇑" d="M67.17 21.43c.54.56 2.29 2.57 2.29 5.35.0 1.13-.07 63.3-.18 70.35"/></g></g></g></g></svg>