<svg xmlns="http://www.w3.org/2000/svg" width="109" height="109" viewBox="0 0 109 109"><g id="kvg:StrokePaths_08912" style="fill:none;stroke:#000000;stroke-width:3;stroke-linecap:round;stroke-linejoin:round;"><g id="kvg:08912" kvg:element="褒"><g id="kvg:08912-g1" kvg:element="衣" kvg:part="1" kvg:radical="tradit"><g id="kvg:08912-g2" kvg:element="亠" kvg:radical="nelson"><path id="kvg:08912-s1" kvg:type="㇑a" d="M52.71 8.5C53.85 9.65 54 11 54 12.21c0 2.17.0 4.1.0 6.42"/><path id="kvg:08912-s2" kvg:type="㇐" d="M20.5 21.62c3.12.63 6.11.55 9.38.15 14.5-1.77 36.29-3.53 49.87-4.13 3.09-.14 6.05-.37 9 .74"/></g></g><g id="kvg:08912-g3" kvg:element="保" kvg:variant="true" kvg:phon="保"><g id="kvg:08912-g4" kvg:element="亻" kvg:variant="true" kvg:original="人" kvg:position="left"><path id="kvg:08912-s3" kvg:type="㇒" d="M36.49 27.54c0 1.08-.41 2.23-1.18 3.32-4.94 7.02-9.56 13.89-21.05 23.34"/><path id="kvg:08912-s4" kvg:type="㇑" d="M29.52 41.57c.77.77.94 1.93.94 3.06.0 5.61.0 13.87.0 19 0 2.08.0 3.73.0 4.63"/></g><g id="kvg:08912-g5" kvg:element="呆" kvg:variant="true" kvg:position="right"><g id="kvg:08912-g6" kvg:element="口" kvg:position="top"><path id="kvg:08912-s5" kvg:type="㇑" d="M50.1 27.35c.76.55 1.2 1.3 1.33 2.25.66 2 1.33 4.82 1.88 7.63.23 1.16.44 2.32.62 3.42"/><path id="kvg:08912-s6" kvg:type="㇕b" d="M52.11 28.5c7.85-1.01 19.74-2.56 24.78-3.11 2.65-.29 3.74.41 2.86 3.11-.7 2.14-1.33 3.89-2.26 7.06"/><path id="kvg:08912-s7" kvg:type="㇐b" d="M55.08 39.05c3.49-.3 12.9-1.29 19.94-1.96 1.71-.16 3.21-.31 4.37-.42"/></g><g id="kvg:08912-g7" kvg:element="木" kvg:variant="true" kvg:position="bottom"><path id="kvg:08912-s8" kvg:type="㇐" d="M43.24 46.81c2.01.56 4.24.63 6.4.48 7.62-.52 24-1.83 33.74-2.53 2.31-.17 4.53-.42 6.83-.02"/><path id="kvg:08912-s9" kvg:type="㇑" d="M65.76 40.73c.81.81 1.12 2.02 1.12 3.33.0 2.14.06 11.08.07 16.81.01 2.61.01 4.56.0 4.88"/><path id="kvg:08912-s10" kvg:type="㇒" d="M56.01 52.89c0 .73-.36 1.34-.88 1.85-1.85 2.36-7.25 6.32-14.33 8.85"/><path id="kvg:08912-s11" kvg:type="㇔/㇏" d="M77.02 51.46c4.16 1.68 10.75 6.9 11.79 9.51"/></g></g></g><g id="kvg:08912-g8" kvg:element="衣" kvg:part="2" kvg:position="bottom" kvg:radical="tradit"><path id="kvg:08912-s12" kvg:type="㇒" d="M52.44 65.63c0 1.12-.77 2.32-1.58 3.1-6.08 5.93-16.57 13.72-37.05 23.22"/><path id="kvg:08912-s13" kvg:type="㇙" d="M38.75 81.74c.88.88 1 1.89 1 3.25.0 2.76.0 7.33.0 10.51.0 2 1.11 3.06 2.61 1.56s14.6-10.09 16.6-11.59"/><path id="kvg:08912-s14" kvg:type="㇒" d="M80.64 68.38c.09.85-.16 1.66-.72 2.28-2.2 2.44-5.68 5.4-10.1 8.55"/><path id="kvg:08912-s15" kvg:type="㇏" d="M56.5 73.49c3.17.0 19.14 12.32 30.11 18.8 2.69 1.59 3.89 2.34 6.64 3.45"/></g></g></g></svg>