<!DOCTYPE svg PUBLIC "-//W3C//DTD SVG 1.0//EN" "http://www.w3.org/TR/2001/REC-SVG-20010904/DTD/svg10.dtd" [
<!ATTLIST g
xmlns:kvg CDATA #FIXED "http://kanjivg.tagaini.net"
kvg:element CDATA #IMPLIED
kvg:variant CDATA #IMPLIED
kvg:partial CDATA #IMPLIED
kvg:original CDATA #IMPLIED
kvg:part CDATA #IMPLIED
kvg:number CDATA #IMPLIED
kvg:tradForm CDATA #IMPLIED
kvg:radicalForm CDATA #IMPLIED
kvg:position CDATA #IMPLIED
kvg:radical CDATA #IMPLIED
kvg:phon CDATA #IMPLIED >
<!ATTLIST path
xmlns:kvg CDATA #FIXED "http://kanjivg.tagaini.net"
kvg:type CDATA #IMPLIED >
]><svg xmlns="http://www.w3.org/2000/svg" width="109" height="109" viewBox="0 0 109 109"><g id="kvg:StrokePaths_08910" style="fill:none;stroke:#000000;stroke-width:3;stroke-linecap:round;stroke-linejoin:round;"><g id="kvg:08910" kvg:element="褐"><g id="kvg:08910-g1" kvg:element="衤" kvg:variant="true" kvg:original="衣" kvg:position="left" kvg:radical="general"><path id="kvg:08910-s1" kvg:type="㇔" d="M22.75 12.5c3.27 2.41 6.77 6.03 9.58 10.25"/><path id="kvg:08910-s2" kvg:type="㇇" d="M12.45 35.11c1.77.74 4.59.62 6.43.18 4.64-1.12 17-4.5 18.97-5.06 2.33-.66 3.83 1.08 2.51 3.1C32.61 45.15 24.12 57.62 12 68.5"/><path id="kvg:08910-s3" kvg:type="㇑" d="M29.5 51.11c.88.88 1.27 2.14 1.27 3.64.0 8.58.05 24 .05 34.5.0 2.51.01 4.59.01 6"/><path id="kvg:08910-s4" kvg:type="㇒" d="M43.5 44.64c.2.85-.1 1.83-.5 2.45-1.2 1.87-3.4 4.7-5.8 6.91"/><path id="kvg:08910-s5" kvg:type="㇔" d="M33.5 54.88c3.1 2.38 6.42 5.95 9.08 10.12"/></g><g id="kvg:08910-g2" kvg:element="曷" kvg:variant="true" kvg:position="right" kvg:phon="曷"><g id="kvg:08910-g3" kvg:element="日" kvg:position="top"><path id="kvg:08910-s6" kvg:type="㇑" d="M50.47 15.97c1.03 1.03 1.6 2.58 1.76 3.89.46 3.71 1.44 11.39 2.11 16.66.38 2.98.53 3.48.7 5.21"/><path id="kvg:08910-s7" kvg:type="㇕a" d="M52.8 17.31c3.51-.53 21.32-2.72 27.46-3.37 3.3-.35 5.03.41 4.58 3.95-.76 6.05-1.9 11.6-3.26 17.88-.34 1.56-.69 3.17-1.05 4.84"/><path id="kvg:08910-s8" kvg:type="㇐a" d="M54.14 29.2c4.99-.7 22.36-2.7 29.44-3.23"/><path id="kvg:08910-s9" kvg:type="㇐a" d="M55.89 40.13c7.74-.88 16.95-2.15 24.03-2.53"/></g><g id="kvg:08910-g4" kvg:element="匂" kvg:position="bottom"><g id="kvg:08910-g5" kvg:element="勹"><g id="kvg:08910-g6" kvg:element="丿"><path id="kvg:08910-s10" kvg:type="㇒" d="M60.68 42.48c.04.61-.06 1.61-.33 2.44-2.1 6.23-7.61 15.61-15.6 23.58"/></g><path id="kvg:08910-s11" kvg:type="㇆" d="M60.37 51.9c2.38.35 4.06.22 5.63-.03 5.13-.81 18.28-2.85 23.37-3.46 4.37-.52 5.38.26 5.11 4.72-.45 7.73-3.41 26.56-9.82 39.13-2.44 4.79-4.3 5.89-8.15 1.75"/></g><g id="kvg:08910-g7" kvg:element="人"><g id="kvg:08910-g8" kvg:element="匕"><path id="kvg:08910-s12" kvg:type="㇒" d="M76.01 61.5c-.14 1.12-.7 1.96-1.62 2.52-4.02 2.48-8.64 4.98-17.28 8.23"/><path id="kvg:08910-s13" kvg:type="㇟" d="M52.88 63.62c.8.77 1.13 1.75 1.13 2.81.0 2.83.14 4.76.14 9.79s1.84 5.37 12.91 5.37 11.98-.96 11.98-6.45"/></g></g></g></g></g></g><g id="kvg:StrokeNumbers_08910" style="font-size:8;fill:#808080"><text transform="matrix(1 0 0 1 16.50 13.50)">1</text><text transform="matrix(1 0 0 1 5.50 36.50)">2</text><text transform="matrix(1 0 0 1 24.50 67.50)">3</text><text transform="matrix(1 0 0 1 41.00 42.58)">4</text><text transform="matrix(1 0 0 1 39.68 58.86)">5</text><text transform="matrix(1 0 0 1 45.75 25.63)">6</text><text transform="matrix(1 0 0 1 53.23 14.73)">7</text><text transform="matrix(1 0 0 1 57.43 25.32)">8</text><text transform="matrix(1 0 0 1 57.43 37.25)">9</text><text transform="matrix(1 0 0 1 47.25 49.12)">10</text><text transform="matrix(1 0 0 1 61.98 49.16)">11</text><text transform="matrix(1 0 0 1 69.65 59.62)">12</text><text transform="matrix(1 0 0 1 54.29 64.46)">13</text></g></svg>