<!DOCTYPE svg PUBLIC "-//W3C//DTD SVG 1.0//EN" "http://www.w3.org/TR/2001/REC-SVG-20010904/DTD/svg10.dtd" [
<!ATTLIST g
xmlns:kvg CDATA #FIXED "http://kanjivg.tagaini.net"
kvg:element CDATA #IMPLIED
kvg:variant CDATA #IMPLIED
kvg:partial CDATA #IMPLIED
kvg:original CDATA #IMPLIED
kvg:part CDATA #IMPLIED
kvg:number CDATA #IMPLIED
kvg:tradForm CDATA #IMPLIED
kvg:radicalForm CDATA #IMPLIED
kvg:position CDATA #IMPLIED
kvg:radical CDATA #IMPLIED
kvg:phon CDATA #IMPLIED >
<!ATTLIST path
xmlns:kvg CDATA #FIXED "http://kanjivg.tagaini.net"
kvg:type CDATA #IMPLIED >
]><svg xmlns="http://www.w3.org/2000/svg" width="109" height="109" viewBox="0 0 109 109"><g id="kvg:StrokePaths_08925" style="fill:none;stroke:#000000;stroke-width:3;stroke-linecap:round;stroke-linejoin:round;"><g id="kvg:08925" kvg:element="褥"><g id="kvg:08925-g1" kvg:element="衤" kvg:variant="true" kvg:original="衣" kvg:position="left" kvg:radical="general"><path id="kvg:08925-s1" kvg:type="㇔" d="M20.83 11.5c4.1 3.12 8.49 7.79 12 13.25"/><path id="kvg:08925-s2" kvg:type="㇇" d="M12.7 34.36c.94.39 2.36.76 3.96.61 5.09-.47 17.37-4.33 19.69-4.99 2.33-.66 4.58.83 3.26 2.85C31.86 44.65 22.25 58.25 9.5 70.5"/><path id="kvg:08925-s3" kvg:type="㇑" d="M27 52.11c.12.29 1.65 1.53 1.77 3.39.57 8.93.06 38.2.06 41.25"/><path id="kvg:08925-s4" kvg:type="㇒" d="M41.78 44.39c.18.83.36 1.05.0 1.66-1.08 1.82-4.41 6.3-6.58 8.45"/><path id="kvg:08925-s5" kvg:type="㇔" d="M31.33 55.25c3.16 2.41 6.54 6.03 9.25 10.25"/></g><g id="kvg:08925-g2" kvg:element="辱" kvg:position="right"><g id="kvg:08925-g3" kvg:element="辰" kvg:position="top"><g id="kvg:08925-g4" kvg:element="厂"><path id="kvg:08925-s6" kvg:type="㇐" d="M46.66 17.66c1.22.43 3.45.53 4.67.43 9.86-.81 32.54-2.69 37.8-3.05 2.02-.14 3.25.21 4.26.42"/><path id="kvg:08925-s7" kvg:type="㇒" d="M51.06 18.35c.44.65.43 2.56.43 4 0 9.2-1.25 46.4-13.5 61.32"/></g><path id="kvg:08925-s8" kvg:type="㇐" d="M57.67 27.48c.82.25 2.32.31 3.13.25 5.21-.43 17.48-2.11 22.67-2.5 1.35-.1 2.18.12 2.86.24"/><path id="kvg:08925-s9" kvg:type="㇐" d="M53.46 37.84c.75.3 2.13.38 2.89.3 4.8-.52 29.3-3.67 34.48-3.76 1.25-.02 3.61.14 4.24.29"/><path id="kvg:08925-s10" kvg:type="㇙" d="M59.21 39.33c1.2 1.39 1.12 1.98 1.12 3.96.0 9.36-.36 13.19-.36 14.77s1.32 2.48 3 1.29 6.79-5.11 12.01-7.7"/><path id="kvg:08925-s11" kvg:type="㇒" d="M86.79 39.96c.02.19.05.49-.04.77-.54 1.62-3.62 5.18-7.85 7.36"/><path id="kvg:08925-s12" kvg:type="㇏" d="M66.88 42.12c4.95 1.3 19.17 13.36 23.04 15.83 1.31.84 2.43 1.2 3.75 1.44"/></g><g id="kvg:08925-g5" kvg:element="寸" kvg:position="bottom"><path id="kvg:08925-s13" kvg:type="㇐" d="M51.4 70.4c1.19.7 3.36.78 4.57.7C65.25 70.5 83.75 69 93.9 68.24c1.98-.15 3.18-.17 4.17.19"/><path id="kvg:08925-s14" kvg:type="㇚" d="M80.8 59.6c.06.42.95 2.2.95 4.88.0 18.04.22 24.03.22 28.41.0 10.64-5.66 1.58-7.31.22"/><path id="kvg:08925-s15" kvg:type="㇔" d="M59.72 75.79c2.47 1.64 6.38 6.76 7 9.32"/></g></g></g></g><g id="kvg:StrokeNumbers_08925" style="font-size:8;fill:#808080"><text transform="matrix(1 0 0 1 13.50 10.50)">1</text><text transform="matrix(1 0 0 1 4.50 34.50)">2</text><text transform="matrix(1 0 0 1 22.25 66.50)">3</text><text transform="matrix(1 0 0 1 40.50 41.40)">4</text><text transform="matrix(1 0 0 1 32.50 69.50)">5</text><text transform="matrix(1 0 0 1 50.50 14.50)">6</text><text transform="matrix(1 0 0 1 43.50 26.50)">7</text><text transform="matrix(1 0 0 1 57.50 25.50)">8</text><text transform="matrix(1 0 0 1 55.50 35.50)">9</text><text transform="matrix(1 0 0 1 52.50 51.70)">10</text><text transform="matrix(1 0 0 1 90.50 42.88)">11</text><text transform="matrix(1 0 0 1 64.25 49.55)">12</text><text transform="matrix(1 0 0 1 50.50 68.48)">13</text><text transform="matrix(1 0 0 1 69.50 62.50)">14</text><text transform="matrix(1 0 0 1 51.50 82.50)">15</text></g></svg>