<svg xmlns="http://www.w3.org/2000/svg" width="109" height="109" viewBox="0 0 109 109"><g id="kvg:StrokePaths_0892a" style="fill:none;stroke:#000000;stroke-width:3;stroke-linecap:round;stroke-linejoin:round;"><g id="kvg:0892a" kvg:element="褪"><g id="kvg:0892a-g1" kvg:element="衤" kvg:variant="true" kvg:original="衣" kvg:position="left" kvg:radical="general"><path id="kvg:0892a-s1" kvg:type="㇔" d="M20.83 12.5c3.07 2.53 6.37 6.32 9 10.75"/><path id="kvg:0892a-s2" kvg:type="㇇" d="M11.7 34.36c.94.39 2.36.81 3.96.61 3.84-.47 15.87-3.33 18.19-3.99 2.33-.66 4.58.83 3.26 2.85C29.36 45.65 21.4 54.52 10 63.5"/><path id="kvg:0892a-s3" kvg:type="㇑" d="M25.5 49.61c.12.29 1.65 1.53 1.77 3.39.57 8.93.06 40.2.06 43.25"/><path id="kvg:0892a-s4" kvg:type="㇒" d="M38.28 45.39c.17.75.34.95.0 1.49-1.04 1.64-4.25 5.67-6.33 7.62"/><path id="kvg:0892a-s5" kvg:type="㇔" d="M30.33 58c2.65 2.24 5.48 5.59 7.75 9.5"/></g><g id="kvg:0892a-g2" kvg:element="退" kvg:variant="true" kvg:position="right"><g id="kvg:0892a-g3" kvg:element="艮" kvg:position="nyoc"><path id="kvg:0892a-s6" kvg:type="㇕" d="M66.83 16.04c1.64-.11 17.64-2.78 19.13-2.91 1.24-.11 2.46 1.25 2.45 1.94-.08 4.84-1.79 25.38-2.51 28.72"/><path id="kvg:0892a-s7" kvg:type="㇐a" d="M66.67 29.18c4.12-.54 16.06-2.21 20.02-2.64"/><path id="kvg:0892a-s8" kvg:type="㇐a" d="M67.01 43.65c5.65-.87 12.39-1.62 18.53-2.46"/><path id="kvg:0892a-s9" kvg:type="㇙" d="M65.21 15.47c.93.55 1.1 1.94 1.29 3.03.19 1.09.39 53.26.19 55.97-.19 2.45 1.18 3.75 3.42 1.84s6.9-5.81 9.96-8.67"/><path id="kvg:0892a-s10" kvg:type="㇒" d="M93.9 48.12c.19.95-.01 1.51-.63 2.23-2.02 2.39-6.23 6.18-7.91 7.51"/><path id="kvg:0892a-s11" kvg:type="㇏" d="M77.21 54.96c5.12 3.36 11.51 9.13 18.37 20.94"/></g><g id="kvg:0892a-g4" kvg:element="辶" kvg:position="nyo"><path id="kvg:0892a-s12" kvg:type="㇔" d="M45.46 16.35c3.26 1.56 8.43 6.41 9.25 8.83"/><path id="kvg:0892a-s13" kvg:type="㇔" d="M43.96 37.85c3.35 1.12 8.66 4.6 9.5 6.33"/><path id="kvg:0892a-s14" kvg:type="㇋" d="M40.75 60.38c1.75.77 2.91.38 3.69.19.78-.19 6.21-2.69 7.38-3.07s2.91.96 2.14 2.11c-.78 1.15-3.5 5.56-4.08 6.52s-.39 2.69.78 4.03 2.52 2.88 3.11 4.03c.58 1.15.58 2.11-.58 3.07-1.17.96-6.99 6.33-8.16 6.71"/><path id="kvg:0892a-s15" kvg:type="㇏" d="M38.72 85.22c2.22-.26 6.67-.91 10.01-.39s22.3 3.98 25.59 4.65c8.9 1.81 15.76 2.32 22.43 1.42"/></g></g></g></g></svg>