<svg xmlns="http://www.w3.org/2000/svg" width="109" height="109" viewBox="0 0 109 109"><g id="kvg:StrokePaths_0892b" style="fill:none;stroke:#000000;stroke-width:3;stroke-linecap:round;stroke-linejoin:round;"><g id="kvg:0892b" kvg:element="褫"><g id="kvg:0892b-g1" kvg:element="衤" kvg:variant="true" kvg:original="衣" kvg:position="left" kvg:radical="general"><path id="kvg:0892b-s1" kvg:type="㇔" d="M19.83 16.25c3.07 2.35 6.37 5.88 9 10"/><path id="kvg:0892b-s2" kvg:type="㇇" d="M9.7 37.36c.94.39 2.36.78 3.96.61 4.34-.47 16.87-3.33 19.19-3.99 2.33-.66 4.58.83 3.26 2.85C28.36 48.65 23.25 57 10.5 69.5"/><path id="kvg:0892b-s3" kvg:type="㇑" d="M25 54.11c.12.29 1.65 1.53 1.77 3.39.57 8.93.06 35.2.06 38.25"/><path id="kvg:0892b-s4" kvg:type="㇒" d="M38.82 48.89c.14.83.28 1.05.0 1.66-.84 1.82-3.44 6.3-5.12 8.45"/><path id="kvg:0892b-s5" kvg:type="㇔" d="M29.58 58.25c3.42 2.77 7.07 6.91 10 11.75"/></g><g id="kvg:0892b-g2" kvg:element="虒" kvg:position="right"><g id="kvg:0892b-g3" kvg:element="厂" kvg:variant="true" kvg:position="tare"><path id="kvg:0892b-s6" kvg:type="㇒" d="M82.52 11.25c.09.34-.66 1.97-1.17 2.35C75.02 18.36 64 22 49.82 25.54"/><path id="kvg:0892b-s7" kvg:type="㇒" d="M46.28 25.25c.38 1 .94 3.23.94 5.49.0 20.63.94 43.13-11.52 59.48"/></g><g id="kvg:0892b-g4" kvg:element="虎" kvg:position="tarec"><g id="kvg:0892b-g5" kvg:element="虍" kvg:position="tare"><path id="kvg:0892b-s8" kvg:type="㇑a" d="M67.76 23.58c.65.77 1.15 1.66 1.15 4.21.0 4.94-.01 5.36-.01 9.52"/><path id="kvg:0892b-s9" kvg:type="㇐b" d="M69.44 29.78c4.73-.65 10.07-1.48 14.87-2 1.58-.17 2.55.15 3.34.31"/><path id="kvg:0892b-s10" kvg:type="㇒" d="M56.35 37.61c.5.48.55 2.28.55 4.01C56.9 62 54 79 44.25 91.36"/><path id="kvg:0892b-s11" kvg:type="㇖a" d="M56.92 39.65c.76.16 2.12-.17 3.36-.35 5.72-.8 20.93-3.04 28.41-3.18 7.89-.14 1.67 5.58-.29 7.35"/><g id="kvg:0892b-g6" kvg:element="七"><g id="kvg:0892b-g7" kvg:element="一"><path id="kvg:0892b-s12" kvg:type="㇐" d="M59.51 50.11c.95.22 2.69.31 3.62.22 9.29-.97 13.87-2.58 19.7-3.51 1.55-.25 2.52.1 3.31.21"/></g><path id="kvg:0892b-s13" kvg:type="㇟a" d="M69.11 41.51c.46.37 1.06 1.86 1.06 2.38.0 4.17-.08 4.92-.08 6.78.0 5.54 2.12 5.96 8.64 5.96 2.43.0 7.67.0 9.76-.75"/></g></g><g id="kvg:0892b-g8" kvg:element="儿" kvg:original="八" kvg:position="tarec"><g id="kvg:0892b-g9" kvg:element="丿" kvg:position="left"><path id="kvg:0892b-s14" kvg:type="㇒" d="M66.75 63.28c.04.72.41 1.85.42 2.9.08 7.08-1.92 20.08-14.73 27.74"/></g><g id="kvg:0892b-g10" kvg:position="right"><path id="kvg:0892b-s15" kvg:type="㇟" d="M77.07 62.63c.39.85.7 1.86.72 3.17.1 5.86-.28 13.56-.28 17.55.0 5.66 1.48 8.26 9.26 8.26 7.72.0 8.4-1.6 8.4-6.54"/></g></g></g></g></g></g></svg>