<svg xmlns="http://www.w3.org/2000/svg" width="109" height="109" viewBox="0 0 109 109"><g id="kvg:StrokePaths_08944"><g id="kvg:08944" kvg:element="襄"><g id="kvg:08944-g1" kvg:element="亠" kvg:position="top"><g id="kvg:08944-g2" kvg:element="衣" kvg:part="1" kvg:radical="general"><path id="kvg:08944-s1" kvg:type="㇑a" d="M51.89 10.5c.77.39 2.03 1.74 2.03 2.64.0 1.48-.1 4.76-.1 6.38"/><path id="kvg:08944-s2" kvg:type="㇐" d="M21.25 21.72c1.21.08 3.97.52 5.15.44 13.12-.92 42.43-3.18 55.35-3.41 2-.04 3.01.04 4.5.56"/></g></g><g id="kvg:08944-g3"><g id="kvg:08944-g4" kvg:element="口" kvg:position="left"><path id="kvg:08944-s3" kvg:type="㇑" d="M28.25 27.87c.3.21.65.37.75.64 1 2.74 1.81 7.27 2.53 10.99"/><path id="kvg:08944-s4" kvg:type="㇕b" d="M30.14 29.27c6.2-1.08 13.75-1.77 17.3-2.04 1.3-.1 2.08.59 1.89 1.17-.77 2.42-1.67 3.83-2.81 7.17"/><path id="kvg:08944-s5" kvg:type="㇐b" d="M31.67 37.69c4.17-.31 10.42-1.34 16.15-1.81"/></g><g id="kvg:08944-g5" kvg:element="口" kvg:position="right"><path id="kvg:08944-s6" kvg:type="㇑" d="M57.75 26.53c.3.19.61.35.75.6 1.05 1.91 1.81 7.19 2.53 10.62"/><path id="kvg:08944-s7" kvg:type="㇕b" d="M59.64 27.83c6.2-1 15.75-2.1 19.3-2.35 1.3-.09 2.08.54 1.89 1.08-.77 2.23-2.17 4.43-3.31 7.52"/><path id="kvg:08944-s8" kvg:type="㇐b" d="M61.17 36.07c4.17-.28 12.92-1.27 18.65-1.71"/></g></g><g id="kvg:08944-g6"><g id="kvg:08944-g7" kvg:element="三" kvg:part="1"><g id="kvg:08944-g8" kvg:element="一" kvg:position="top"><path id="kvg:08944-s9" kvg:type="㇐" d="M26.41 48.69c.96.27 3.73.32 4.69.27 8.75-.51 37.88-2.97 47.28-3.56 1.59-.1 2.55.13 3.35.26"/></g></g><path id="kvg:08944-s10" kvg:type="㇑" d="M41.31 41.44c1.46.46 2.13 2.5 2.13 3.46.0 3.1 1.05 13.1 1.05 20.51"/><path id="kvg:08944-s11" kvg:type="㇑" d="M65.31 40.75c1.18.91 1.09 2 .96 3.42-.52 5.58-.77 12.33-1.47 19.46"/><g id="kvg:08944-g9" kvg:element="三" kvg:part="2"><g id="kvg:08944-g10" kvg:element="一"><path id="kvg:08944-s12" kvg:type="㇐" d="M25.91 57.05c1.11.36 4.31.44 5.42.36 10.11-.7 34.4-3.52 45.27-4.33 1.84-.14 2.95.17 3.88.35"/></g><g id="kvg:08944-g11" kvg:element="一"><path id="kvg:08944-s13" kvg:type="㇐" d="M16.25 67.17c1.62.35 4.58.49 6.2.35 14.8-1.27 47.05-4.27 61.89-4.45 2.69-.03 4.31.17 5.66.34"/></g></g></g><g id="kvg:08944-g12" kvg:element="衣" kvg:partial="true" kvg:position="bottom" kvg:radical="general"><path id="kvg:08944-s14" kvg:type="㇒" d="M44.97 67.14c.09.53.35 1.4-.18 2.12-3.43 4.6-14.58 13-31.74 20.27"/><path id="kvg:08944-s15" kvg:type="㇙" d="M38.25 78.15c.48.29 1 1.58 1 2.08-.03 6.4-.32 14.93-.32 16.02.0 1.08 1.18 1.7 2.68.89s12.64-9.39 15.85-11.23"/><path id="kvg:08944-s16" kvg:type="㇒" d="M73.93 67.2c.03.24.28 1.17.12 1.48-1 1.99-4.14 4.84-9.24 8.81"/><path id="kvg:08944-s17" kvg:type="㇏" d="M52.25 71.91c1.65.72 4.28 2.74 4.73 3.05 6.73 4.52 23.08 16.06 27.63 18.72 1.71 1 3.18 1.43 4.89 1.72"/></g></g></g></svg>