<!DOCTYPE svg PUBLIC "-//W3C//DTD SVG 1.0//EN" "http://www.w3.org/TR/2001/REC-SVG-20010904/DTD/svg10.dtd" [
<!ATTLIST g
xmlns:kvg CDATA #FIXED "http://kanjivg.tagaini.net"
kvg:element CDATA #IMPLIED
kvg:variant CDATA #IMPLIED
kvg:partial CDATA #IMPLIED
kvg:original CDATA #IMPLIED
kvg:part CDATA #IMPLIED
kvg:number CDATA #IMPLIED
kvg:tradForm CDATA #IMPLIED
kvg:radicalForm CDATA #IMPLIED
kvg:position CDATA #IMPLIED
kvg:radical CDATA #IMPLIED
kvg:phon CDATA #IMPLIED >
<!ATTLIST path
xmlns:kvg CDATA #FIXED "http://kanjivg.tagaini.net"
kvg:type CDATA #IMPLIED >
]><svg xmlns="http://www.w3.org/2000/svg" width="109" height="109" viewBox="0 0 109 109"><g id="kvg:StrokePaths_08941" style="fill:none;stroke:#000000;stroke-width:3;stroke-linecap:round;stroke-linejoin:round;"><g id="kvg:08941" kvg:element="襁"><g id="kvg:08941-g1" kvg:element="衤" kvg:variant="true" kvg:original="衣" kvg:position="left" kvg:radical="general"><path id="kvg:08941-s1" kvg:type="㇔" d="M21 14.75c2.5 2.23 5.18 5.59 7.33 9.5"/><path id="kvg:08941-s2" kvg:type="㇇" d="M10.7 34.86c.94.39 2.35.74 3.96.61 5.84-.47 15.87-3.83 18.19-4.49 2.33-.66 4.58.83 3.26 2.85C28.36 45.65 21.25 56.5 9.5 69"/><path id="kvg:08941-s3" kvg:type="㇑" d="M25 52.11c.12.29 1.65 1.53 1.77 3.39.42 6.58.25 24.21.13 34.25-.04 3.58-.08 5.7-.08 6.5"/><path id="kvg:08941-s4" kvg:type="㇒" d="M38.78 46.89c.17.89-.16 1.63-.5 2.28-1.04 1.96-3.75 6.26-5.83 8.58"/><path id="kvg:08941-s5" kvg:type="㇔" d="M30.58 58.5c2.92 1.75 6.92 5.25 8.5 10"/></g><g id="kvg:08941-g2" kvg:element="強" kvg:position="right"><g id="kvg:08941-g3" kvg:element="弓" kvg:position="left"><path id="kvg:08941-s6" kvg:type="㇕c" d="M40.91 18.39c1.34.61 2.67.81 3.71.67 4.14-.56 11.9-1.62 14.16-2.25 2.08-.58 2.4.73 2.01 2.45-.58 2.57-1.55 7.87-2.08 11.93-.19 1.44-.32 2.73-.36 3.68"/><path id="kvg:08941-s7" kvg:type="㇐" d="M47 37.38c1.42.0 8.88-1.41 9.9-1.41 1.02.0 2.03-.35 2.85-.35"/><path id="kvg:08941-s8" kvg:type="㇉" d="M46.04 35.68c.38.96.32 3.06.07 4.58-.28 1.74-2 13.77-2.24 14.68-.69 2.56-.49 3.97 1.91 3.06 3.97-1.5 7.18-2.25 10.1-2.69 2.07-.31 3.39 1.21 3.24 2.94-.76 8.88-2.62 22.75-5.06 30.5-2.04 6.46-5.8 1.75-7.99-.67"/></g><g id="kvg:08941-g4" kvg:position="right"><g id="kvg:08941-g5" kvg:element="厶" kvg:position="top"><path id="kvg:08941-s9" kvg:type="㇜" d="M79.39 12.75c.55 1.75-.44 2.98-.73 3.5-3.82 7.04-6.82 9.75-11.24 16.34-1.31 1.95-.9 3.27 1.32 2.91 4.66-.77 16.9-3.68 23.91-4.5"/><path id="kvg:08941-s10" kvg:type="㇔" d="M86.84 21.75c3.55 2.82 9.16 11.61 10.05 16"/></g><g id="kvg:08941-g6" kvg:element="虫" kvg:position="bottom"><g id="kvg:08941-g7" kvg:element="中"><g id="kvg:08941-g8" kvg:element="口"><path id="kvg:08941-s11" kvg:type="㇑" d="M64.75 46.36c.37.27 1.22 1.92 1.3 2.58.52 4.12 1.03 9.49 1.68 16.54.1 1.12.21 2.3.32 3.54"/><path id="kvg:08941-s12" kvg:type="㇕b" d="M66.41 48.48c1-.09 2.13-.2 3.35-.33 7.62-.83 18.6-2.42 23.15-2.52 2.05-.05 2.33 3.23 2.05 4.64-.67 3.49-1.11 6.48-1.48 9.5-.17 1.41-.33 2.72-.49 3.89"/><path id="kvg:08941-s13" kvg:type="㇐b" d="M68.34 66.61c4.94-.58 14.09-1.8 21.91-2.32 1.47-.1 2.88-.19 4.18-.27"/></g><g id="kvg:08941-g9" kvg:element="丨"><path id="kvg:08941-s14" kvg:type="㇑a" d="M79.54 36.5c.6.35.97 1.56 1.09 2.26.1.59.03 32-.07 43.74-.02 1.97-.03 3.38-.05 4.01"/></g></g><path id="kvg:08941-s15" kvg:type="㇀" d="M62.45 91.04c.7.74 2.62 1.16 3.32.97.7-.18 24.95-8.34 27.05-9.26"/><path id="kvg:08941-s16" kvg:type="㇔" d="M89.32 74.75c2.54 3.13 6.54 12.88 7.18 17.75"/></g></g></g></g></g><g id="kvg:StrokeNumbers_08941" style="font-size:8;fill:#808080"><text transform="matrix(1 0 0 1 13.50 15.50)">1</text><text transform="matrix(1 0 0 1 2.50 34.50)">2</text><text transform="matrix(1 0 0 1 19.50 68.50)">3</text><text transform="matrix(1 0 0 1 34.50 43.50)">4</text><text transform="matrix(1 0 0 1 31.25 70.50)">5</text><text transform="matrix(1 0 0 1 38.50 15.50)">6</text><text transform="matrix(1 0 0 1 44.50 34.50)">7</text><text transform="matrix(1 0 0 1 39.50 43.50)">8</text><text transform="matrix(1 0 0 1 71.25 13.03)">9</text><text transform="matrix(1 0 0 1 89.25 18.95)">10</text><text transform="matrix(1 0 0 1 56.50 51.50)">11</text><text transform="matrix(1 0 0 1 67.25 44.30)">12</text><text transform="matrix(1 0 0 1 69.25 62.50)">13</text><text transform="matrix(1 0 0 1 83.50 40.50)">14</text><text transform="matrix(1 0 0 1 59.50 86.50)">15</text><text transform="matrix(1 0 0 1 89.50 73.50)">16</text></g></svg>