<svg xmlns="http://www.w3.org/2000/svg" width="109" height="109" viewBox="0 0 109 109"><g id="kvg:StrokePaths_0895e"><g id="kvg:0895e" kvg:element="襞"><g id="kvg:0895e-g1" kvg:element="辟" kvg:position="top"><g id="kvg:0895e-g2"><g id="kvg:0895e-g3" kvg:element="𡰪"><g id="kvg:0895e-g4" kvg:element="尸" kvg:position="tare"><path id="kvg:0895e-s1" kvg:type="㇕c" d="M20.38 16.08c1.13.3 3.32.57 4.52.5 6.46-.33 17.07-2.6 19.66-2.72 1.28-.06 2.45.76 2.18 1.63-.67 2.15-2.04 5.43-3.1 10.19"/><path id="kvg:0895e-s2" kvg:type="㇐b" d="M24.92 29.01c3.24-.1 13.07-1.85 21.42-2.27"/><path id="kvg:0895e-s3" kvg:type="㇒" d="M23.65 16.89c.1 1.86.25 4.41.23 5.87-.18 10.55-4.47 23.95-12.83 30.71"/></g><g id="kvg:0895e-g5" kvg:element="口" kvg:position="tarec"><path id="kvg:0895e-s4" kvg:type="㇑" d="M24.59 38.13c.14.46.62 1.49.67 1.84.35 2.54 1.94 8.85 2.44 13.66"/><path id="kvg:0895e-s5" kvg:type="㇕b" d="M25.31 39.29c3.96-.51 16.86-2.75 19.56-2.83 1.12-.03 1.54 1.07 1.38 1.83-.61 3.01-2.12 6.69-2.71 10.53"/><path id="kvg:0895e-s6" kvg:type="㇐b" d="M27.91 51.15c3.27-.21 13.46-1.68 17.38-1.95"/></g></g></g><g id="kvg:0895e-g6" kvg:element="辛" kvg:position="right"><g id="kvg:0895e-g7" kvg:element="立" kvg:position="top"><g id="kvg:0895e-g8" kvg:element="亠" kvg:position="top"><path id="kvg:0895e-s7" kvg:type="㇑a" d="M69.5 9.09c1.26.8 1.88.8 1.88 2.67s0 3.47.0 5.93"/><path id="kvg:0895e-s8" kvg:type="㇐" d="M56.86 18.94c1.1.35 2.39.41 3.49.35 6.22-.3 18.15-1.79 25.1-2.5 1.83-.18 2.94.17 3.86.35"/></g><g id="kvg:0895e-g9" kvg:position="bottom"><path id="kvg:0895e-s9" kvg:type="㇔" d="M62.58 21.4c2.34 2.61 3.41 5.27 3.62 6.99"/><path id="kvg:0895e-s10" kvg:type="㇒" d="M81.08 20.05c.39.29.13 1.37.02 1.59-1.13 2.2-2.57 5.97-3.34 7.23"/><path id="kvg:0895e-s11" kvg:type="㇐" d="M53.97 31.79c1.67.39 3.62.51 5.29.39 9.48-.68 21.98-1.68 29.84-2.58 2.77-.32 4.46.19 5.85.38"/></g></g><g id="kvg:0895e-g10" kvg:element="十" kvg:position="bottom"><path id="kvg:0895e-s12" kvg:type="㇐" d="M56.83 41.68c1.2.24 3.4.3 4.6.24C69 41.5 80.75 40 87.02 39.99c2 0 3.2.11 4.2.23"/><path id="kvg:0895e-s13" kvg:type="㇑" d="M71.26 33.34c.44.24 1.38 1.83 1.47 2.31.51 2.8-.13 17.43-.15 18.15"/></g></g></g><g id="kvg:0895e-g11" kvg:element="衣" kvg:position="bottom" kvg:radical="general"><g id="kvg:0895e-g12" kvg:element="亠" kvg:position="top"><path id="kvg:0895e-s14" kvg:type="㇑a" d="M52.29 47.75c.66.35 1.75 1.59 1.75 2.42.0 1.35-.09 9.77-.09 11.26"/><path id="kvg:0895e-s15" kvg:type="㇐" d="M20 63.75c1.42.06 4.65.46 6.02.33 14.98-1.33 46.13-4.67 61.24-4.85 2.33-.03 3.52.03 5.26.43"/></g><g id="kvg:0895e-g13" kvg:position="bottom"><path id="kvg:0895e-s16" kvg:type="㇒" d="M50.41 63.66c.1.66.4 1.76-.2 2.65-3.9 5.76-20.28 18.24-36.15 25.34"/><path id="kvg:0895e-s17" kvg:type="㇙" d="M40.72 80.17c.45.31.94 1.62.94 2.16-.03 6.85-.3 12.67-.3 13.83s1.11 1.82 2.52.95c1.41-.87 10.88-7.36 16.34-11.24"/><path id="kvg:0895e-s18" kvg:type="㇒" d="M77.01 65.12c.03.26.27 1.24.12 1.58-.96 2.13-3.96 5.16-8.85 9.4"/><path id="kvg:0895e-s19" kvg:type="㇏" d="M54.04 65.83c1.66.85 4.3 3.24 4.76 3.6 6.76 5.34 23.21 18.97 27.78 22.11 1.72 1.19 3.19 1.69 4.92 2.03"/></g></g></g></g></svg>