<svg xmlns="http://www.w3.org/2000/svg" width="109" height="109" viewBox="0 0 109 109"><g id="kvg:StrokePaths_0896d" style="fill:none;stroke:#000000;stroke-width:3;stroke-linecap:round;stroke-linejoin:round;"><g id="kvg:0896d" kvg:element="襭"><g id="kvg:0896d-g1" kvg:element="衤" kvg:variant="true" kvg:original="衣" kvg:position="left" kvg:radical="general"><path id="kvg:0896d-s1" kvg:type="㇔" d="M18.83 15c3.07 2.53 6.37 6.32 9 10.75"/><path id="kvg:0896d-s2" kvg:type="㇇" d="M10.7 37.86c.94.39 2.38.94 3.96.61 4.59-.97 14.37-4.33 16.69-4.99 2.33-.66 4.45.75 3.26 2.85C28.25 47.5 23.5 55.25 11.5 69.5"/><path id="kvg:0896d-s3" kvg:type="㇑" d="M24.5 53.11c.12.29 1.65 1.53 1.77 3.39.57 8.93.06 38.2.06 41.25"/><path id="kvg:0896d-s4" kvg:type="㇒" d="M38.06 48.64c.15.83.29 1.05.0 1.66-.88 1.82-3.6 6.3-5.36 8.45"/><path id="kvg:0896d-s5" kvg:type="㇔" d="M29.33 58.25c3.16 3 6.54 7.5 9.25 12.75"/></g><g id="kvg:0896d-g2" kvg:element="頡" kvg:position="right"><g id="kvg:0896d-g3" kvg:element="吉" kvg:position="left"><g id="kvg:0896d-g4" kvg:element="士" kvg:position="top"><path id="kvg:0896d-s6" kvg:type="㇐" d="M39.56 31.69c.77.47 2.67.81 3.46.78 5.48-.22 12.87-1.8 18.56-2.3 1.28-.11 2.06.08 2.7.29"/><path id="kvg:0896d-s7" kvg:type="㇑a" d="M52.15 15.76c.56.39.9 1.91 1.02 2.78.11.87.01 24.63-.11 30.16"/><path id="kvg:0896d-s8" kvg:type="㇐" d="M43.08 48.8c.53.25 2 .69 2.53.63 4.15-.43 11.15-1.68 16.72-2.01.89-.05 1.41.03 1.85.14"/></g><g id="kvg:0896d-g5" kvg:element="口" kvg:position="bottom"><path id="kvg:0896d-s9" kvg:type="㇑" d="M44.26 62.43c.18.5.36.91.44 1.54.62 4.93 1.48 16.75 1.9 25.61"/><path id="kvg:0896d-s10" kvg:type="㇕b" d="M45.38 64.04c4.37-.54 11.73-2.71 14.03-2.89.91-.07 2.22 1.01 1.98 3.57-.58 6.18-2.45 13.61-2.95 19.37"/><path id="kvg:0896d-s11" kvg:type="㇐b" d="M46.79 86.72c3.16-.52 8.6-1.29 13.13-1.87"/></g></g><g id="kvg:0896d-g6" kvg:element="頁" kvg:position="right"><g id="kvg:0896d-g7" kvg:position="top"><path id="kvg:0896d-s12" kvg:type="㇐" d="M64.85 19.33c.98.58 2.78.66 3.75.58 8.09-.67 17.08-2.87 23.37-3.15 1.63-.07 2.61.28 3.43.57"/><path id="kvg:0896d-s13" kvg:type="㇒" d="M80.02 21.73c.01.26.02.67-.01 1.04-.2 2.2-2.19 7.02-3.76 9.98"/></g><g id="kvg:0896d-g8" kvg:element="貝" kvg:position="bottom"><g id="kvg:0896d-g9" kvg:element="目" kvg:position="top"><path id="kvg:0896d-s14" kvg:type="㇑" d="M68.99 33.75c.35 1.07.87 1.86.87 3.29s-.12 40.51.0 41.94"/><path id="kvg:0896d-s15" kvg:type="㇕a" d="M70.44 35.17c1.99-.18 17.69-2.34 19.5-2.56 1.51-.18 2.71 1.98 2.58 3.3-.16 1.68-.34 39.42-.34 40.49"/><path id="kvg:0896d-s16" kvg:type="㇐a" d="M70.41 48.66c2.85.0 17.21-1.41 21.47-1.8"/><path id="kvg:0896d-s17" kvg:type="㇐a" d="M70.57 62.17c7.1-.48 15.12-1.53 20.56-2.04"/><path id="kvg:0896d-s18" kvg:type="㇐a" d="M71.08 76.39c5.99-.53 14.76-.99 20.56-1.53"/></g><g id="kvg:0896d-g10" kvg:element="八" kvg:position="bottom"><path id="kvg:0896d-s19" kvg:type="㇒" d="M73.57 81.48c.37 1.29.27 2.14-.48 3.08-2.25 2.84-9.76 9.34-14.26 12.71"/><path id="kvg:0896d-s20" kvg:type="㇔" d="M84.99 80.13c4.33 3.92 9.44 11.02 10.62 14.45"/></g></g></g></g></g></g></svg>