<svg xmlns="http://www.w3.org/2000/svg" width="109" height="109" viewBox="0 0 109 109"><g id="kvg:StrokePaths_0896a"><g id="kvg:0896a" kvg:element="襪"><g id="kvg:0896a-g1" kvg:element="衤" kvg:variant="true" kvg:original="衣" kvg:position="left" kvg:radical="general"><path id="kvg:0896a-s1" kvg:type="㇔" d="M21.33 16.5c2.9 2.65 6.01 6.62 8.5 11.25"/><path id="kvg:0896a-s2" kvg:type="㇇" d="M12.2 37.86c.94.39 2.36.28 3.96.11 4.34-.47 14.87-2.83 17.19-3.49 2.33-.66 4.58 1.33 3.26 3.35C28.86 49.65 23.5 56.75 11.5 68.5"/><path id="kvg:0896a-s3" kvg:type="㇑" d="M25.66 53.61c.1.25 1.39 1.29 1.49 2.86C27.63 64 27.2 93.68 27.2 96.25"/><path id="kvg:0896a-s4" kvg:type="㇒" d="M39.81 47.89c.15.89.29 1.13.0 1.78-.88 1.96-3.6 6.76-5.36 9.08"/><path id="kvg:0896a-s5" kvg:type="㇔" d="M31.08 60.5c3.07 2.71 6.37 6.76 9 11.5"/></g><g id="kvg:0896a-g2" kvg:element="蔑" kvg:position="right"><g id="kvg:0896a-g3" kvg:element="艹" kvg:variant="true" kvg:original="艸" kvg:position="top"><path id="kvg:0896a-s6" kvg:type="㇐" d="M42.61 23.27c1.27.53 2.74.63 4.02.53 11.66-.96 29.64-3.46 43.08-3.53 2.11-.01 3.38.25 4.44.51"/><path id="kvg:0896a-s7" kvg:type="㇑a" d="M55.87 14.5c1.15 1.23 1.53 1.6 1.64 2.37.56 3.88.97 10.55 1.3 13.13"/><path id="kvg:0896a-s8" kvg:type="㇑a" d="M77.77 12.75c.66.77 1.01 2.42.88 3.58-.46 4.17-1.36 7.24-2.31 11.67"/></g><g id="kvg:0896a-g4" kvg:position="bottom"><g id="kvg:0896a-g5" kvg:element="罒" kvg:variant="true" kvg:original="网"><path id="kvg:0896a-s9" kvg:type="㇑" d="M47.12 32.94c.24.23.48.43.59.72.82 2.33 1.81 9.68 2.38 13.87"/><path id="kvg:0896a-s10" kvg:type="㇕a" d="M48.61 34.52c5.25-.91 38.59-4.27 41.38-4.57 1.02-.11 2.4.79 2.13 2.1-.57 2.73-1.48 7.06-2.68 12.25"/><path id="kvg:0896a-s11" kvg:type="㇑a" d="M61.06 33.22c.77.28.92.94 1.02 1.71.38 2.82 1.1 7.78 1.23 9.15"/><path id="kvg:0896a-s12" kvg:type="㇑a" d="M75.31 32.25c.21.78.77 1.05.66 2.21-.29 3.03-.87 7.19-1.13 8.45"/><path id="kvg:0896a-s13" kvg:type="㇐a" d="M50.84 45.77C62 44.5 82.5 42.5 89.4 42.3"/></g><g id="kvg:0896a-g6" kvg:element="戍"><g id="kvg:0896a-g7" kvg:element="戌" kvg:variant="true"><g id="kvg:0896a-g8" kvg:element="厂" kvg:part="1"><path id="kvg:0896a-s14" kvg:type="㇒" d="M51.12 59.79c.04.83-.04 2.13-.08 3.33-.35 11.13-4.63 27.17-13.77 32.34"/></g><g id="kvg:0896a-g9" kvg:element="戈" kvg:part="1"><g id="kvg:0896a-g10" kvg:element="弋" kvg:part="1"><g id="kvg:0896a-g11" kvg:element="厂" kvg:part="2"><path id="kvg:0896a-s15" kvg:type="㇐" d="M47.14 58.91c1.15.51 3.25.61 4.39.51 5.42-.46 25.24-3.01 37.46-3.47 1.91-.07 3.05.24 4.01.5"/></g></g></g><g id="kvg:0896a-g12" kvg:element="一" kvg:variant="true"><g id="kvg:0896a-g13" kvg:element="丶"><path id="kvg:0896a-s16" kvg:type="㇔" d="M56.37 73.47c.31.11 1.49.13 1.8.11 3.83-.21 8.33-1.31 11.12-1.41.52-.02 1.29.06 1.55.11"/></g></g><g id="kvg:0896a-g14" kvg:element="戈" kvg:part="2"><g id="kvg:0896a-g15" kvg:element="弋" kvg:part="2"><path id="kvg:0896a-s17" kvg:type="㇂" d="M72.81 48.5c.97 1.01 1.42 1.28 1.58 3.45C75.64 68.9 82.25 86 93.42 94.1c3.54 2.57 3.22-.7 2.74-5.15"/></g><g id="kvg:0896a-g16" kvg:element="丿"><path id="kvg:0896a-s18" kvg:type="㇒" d="M87.38 61.83c.08.75.17 1.93-.17 3C85.2 71.17 75.6 86.28 59.71 94.8"/></g><g id="kvg:0896a-g17" kvg:element="弋" kvg:part="3"><g id="kvg:0896a-g18" kvg:element="丶"><path id="kvg:0896a-s19" kvg:type="㇔" d="M81.31 47.54c2.15.8 5.6 2.64 6.61 4.02"/></g></g></g></g></g></g></g></g></g></svg>