<svg xmlns="http://www.w3.org/2000/svg" width="109" height="109" viewBox="0 0 109 109"><g id="kvg:StrokePaths_08972" style="fill:none;stroke:#000000;stroke-width:3;stroke-linecap:round;stroke-linejoin:round;"><g id="kvg:08972" kvg:element="襲"><g id="kvg:08972-g1" kvg:element="龍" kvg:position="top" kvg:radical="nelson" kvg:phon="龍"><g id="kvg:08972-g2" kvg:position="left"><g id="kvg:08972-g3" kvg:element="立"><g id="kvg:08972-g4" kvg:element="亠" kvg:position="top"><path id="kvg:08972-s1" kvg:type="㇑a" d="M37.07 9.64c.78.78.95 1.85.95 2.92.0 1.46.0 2.21.0 3.12"/><path id="kvg:08972-s2" kvg:type="㇐" d="M22.76 17.63c1.38.54 3.33.18 4.76.03 4.38-.45 13.95-1.35 19.11-1.79 1.43-.12 2.89-.3 4.3.03"/></g><g id="kvg:08972-g5" kvg:position="bottom"><path id="kvg:08972-s3" kvg:type="㇔" d="M28.06 20.41c1.44 2.36 2.1 4.77 2.23 6.32"/><path id="kvg:08972-s4" kvg:type="㇒" d="M45.19 18.87c.18.77-.01 1.48-.34 2.13-.98 1.9-2.15 3.59-2.98 4.9"/><path id="kvg:08972-s5" kvg:type="㇐" d="M16.24 30.36c1.41.64 3.79.57 5.27.33 8.24-1.3 18.61-2.6 26.62-3.52 2.15-.25 4.57-.4 6.69.18"/></g></g><g id="kvg:08972-g6" kvg:element="月"><path id="kvg:08972-s6" kvg:type="㇑" d="M27.37 36.39c.62.63.95 1.62.95 2.47.0.24-.04 10.95-.06 17.41-.01 2.31-.01 4.08-.01 4.62"/><path id="kvg:08972-s7" kvg:type="㇆a" d="M28.76 37.05c1.08-.08 8.79-1.69 12.76-2.34 3.17-.52 4.37-.23 4.37 3.05.0 4.79.02 11.62.02 18.21.0 7.3-2.51 4.1-5.06 1.89"/><path id="kvg:08972-s8" kvg:type="㇐a" d="M29.51 44.06c4.75-.61 11.02-1.45 15.19-1.76"/><path id="kvg:08972-s9" kvg:type="㇐a" d="M29.36 51.45c4.51-.55 10.39-1.43 15.37-1.92"/></g></g><g id="kvg:08972-g7" kvg:position="right"><path id="kvg:08972-s10" kvg:type="㇐b" d="M62.76 16.89c3.23-.29 11.08-1.27 15.87-1.93 1.41-.19 2.62-.37 4.02-.09"/><path id="kvg:08972-s11" kvg:type="㇞" d="M60.33 9.55c.82.82 1.17 1.84 1.17 3.26.0 1.97-.12 6.37-.12 9.2.0 1.75.37 2.54 3.27 2.15 4.09-.55 9.97-1.23 14.37-1.93 2.68-.43 3.48.66 2.7 3.14-.6 1.91-1.62 4.84-1.79 5.54"/><path id="kvg:08972-s12" kvg:type="㇐" d="M60.7 33c1.3.64 2.91.61 3.83.49 3.13-.39 10.3-1.27 13.99-1.64.99-.1 1.94-.18 2.83-.23"/><path id="kvg:08972-s13" kvg:type="㇟" d="M60.95 33.5c.66.66 1.17 1.35 1.17 2.52.0 5.08.0 12.71.0 16.25.0 6.62 1.5 7.57 14.85 7.57 10.98.0 13.17-1.76 13.17-5.8"/><path id="kvg:08972-s14" kvg:type="㇐b" d="M63.28 40.48c3.18-.29 8.69-1.19 12.86-1.83 1.53-.24 2.59-.41 4.07-.12"/><path id="kvg:08972-s15" kvg:type="㇐b" d="M63.34 46.75c3.32-.3 9.31-.82 13.57-1.37 1.29-.17 2.27-.26 3.54-.01"/><path id="kvg:08972-s16" kvg:type="㇐b" d="M63.45 53.1c3.17-.28 9.81-.75 14.33-1.34 1.47-.19 2.74-.4 4.21-.11"/></g></g><g id="kvg:08972-g8" kvg:element="衣" kvg:position="bottom" kvg:radical="tradit"><g id="kvg:08972-g9" kvg:element="亠"><path id="kvg:08972-s17" kvg:type="㇑a" d="M53.37 56.86c1.02 1.02 1.35 2.29 1.35 3.78.0 3.51-.09 3.88-.09 6.5"/><path id="kvg:08972-s18" kvg:type="㇐" d="M24.55 70.31c3.45.58 5.58.66 8.2.35 12.12-1.39 32.38-2.91 44.75-3.44 2.58-.11 5.38-.08 7.9.68"/></g><path id="kvg:08972-s19" kvg:type="㇒" d="M49.8 71.38c0 .89-.62 1.8-1.14 2.42-3.4 4.03-12.67 10.8-26.56 16.69"/><path id="kvg:08972-s20" kvg:type="㇙" d="M41.58 83.04c.76.76 1.04 1.85 1.04 3.08.0 3.78-.01 8.86-.01 10.44.0 2.6.64 2.96 2.9 1.35 2.85-2.03 9.36-7.51 11.86-9.33"/><path id="kvg:08972-s21" kvg:type="㇒" d="M76.07 73.48c.09.86-.28 1.62-.83 2.28-1.86 2.26-2.47 3.43-6.49 6.88"/><path id="kvg:08972-s22" kvg:type="㇏" d="M56.75 75.12c1.16.55 15.37 11.52 23.08 17.25 2.88 2.14 5.29 3.28 8.12 4.59"/></g></g></g></svg>