<svg xmlns="http://www.w3.org/2000/svg" width="109" height="109" viewBox="0 0 109 109"><g id="kvg:StrokePaths_08977"><g id="kvg:08977" kvg:element="襷"><g id="kvg:08977-g1" kvg:element="衤" kvg:variant="true" kvg:original="衣" kvg:position="left" kvg:radical="general"><path id="kvg:08977-s1" kvg:type="㇔" d="M16.33 14.5c3.59 2.76 7.43 6.91 10.5 11.75"/><path id="kvg:08977-s2" kvg:type="㇇" d="M8.73 35.06c.73.36 2.84.88 4.07.57 3.45-.87 15.07-2.55 16.87-3.16 1.8-.61 3.55.77 2.52 2.64-6 10.96-14.11 23.33-22.94 31.65"/><path id="kvg:08977-s3" kvg:type="㇑" d="M21.5 53.61c.12.29 1.65 1.53 1.77 3.39.57 8.93.06 37.7.06 40.75"/><path id="kvg:08977-s4" kvg:type="㇒" d="M35.75 45.39c.2.85.4 1.08.0 1.7-1.2 1.87-4.9 6.45-7.3 8.66"/><path id="kvg:08977-s5" kvg:type="㇔" d="M24.83 55.25c3.16 3 6.54 7.5 9.25 12.75"/></g><g id="kvg:08977-g2" kvg:element="擧" kvg:position="right"><g id="kvg:08977-g3" kvg:element="與" kvg:position="top"><g id="kvg:08977-g4" kvg:position="top"><path id="kvg:08977-s6" kvg:type="㇐" d="M63.2 18.55c2.8-.55 4.55-1.05 6.95-1.74.76-.22 1.53.08 1.92.16"/><path id="kvg:08977-s7" kvg:type="㇉" d="M63.34 12.05c.69.73.46 2.69.14 3.89-.97 3.56-1.11 4.81-2.2 9.24-.47 1.94.21 2.31 2.27 1.83 1.46-.34 1.55-.36 5.25-.75 1.54-.16 2.77.68 2.51 2.01-1.38 6.8-2.06 12.83-3.15 21.14"/><path id="kvg:08977-s8" kvg:type="㇑" d="M58.53 32.14c.95.38 1.67 1.67 1.71 2.44.15 3.17-.74 8.42-1.57 15.79"/><g id="kvg:08977-g5" kvg:element="𦥑" kvg:variant="true" kvg:original="臼"><path id="kvg:08977-s9" kvg:type="㇒" d="M54.63 14.39c.02.15.09.42-.05.59-1.68 2.06-5.66 5.46-10.04 7.12"/><path id="kvg:08977-s10" kvg:type="㇑" d="M41.97 22.06c.74.38 1.24 1.68 1.34 2.45.29 2.26 2.98 19.84 3.5 26.81"/><path id="kvg:08977-s11" kvg:type="㇐" d="M45.2 31.07c2.71-.35 4.97-1.03 7.19-1.41.98-.17 2.17-.28 2.71-.28"/><path id="kvg:08977-s12" kvg:type="㇐" d="M45.79 41.69c3.12-.34 5-1.41 7.38-1.58.84-.06 1.96-.1 2.52-.1"/><path id="kvg:08977-s13" kvg:type="㇕" d="M76.56 19.89c1.19.36 2.57 1.04 4.19.59 3.51-.98 9.25-3.12 9.75-3.12 1.4.0 2.14.89 1.84 2.06C91 24.61 88.25 41.1 87.38 48.25"/><path id="kvg:08977-s14" kvg:type="㇐" d="M77.41 28.81c.62.12 1.9.53 2.84.51 3.37-.08 8.96-1.51 9.82-1.51"/><path id="kvg:08977-s15" kvg:type="㇐" d="M75.97 38.53c.54.1 2 .53 2.62.55 2.85.1 6.98-.86 9.6-1.05"/></g><path id="kvg:08977-s16" kvg:type="㇐" d="M38 51.25c1.37.48 3.88.57 5.25.48 10.75-.66 33.17-2.84 50.46-3.28 2.28-.06 3.65.23 4.79.47"/></g><g id="kvg:08977-g6" kvg:element="八" kvg:position="bottom"><g id="kvg:08977-g7" kvg:position="left"><path id="kvg:08977-s17" kvg:type="㇒" d="M53.44 51.19c.06.56.25 1.53-.11 2.27C50.8 58.6 44.1 66.43 33.17 75.22"/></g><g id="kvg:08977-g8" kvg:position="right"><path id="kvg:08977-s18" kvg:type="㇏" d="M74.2 49.5c2.78 2.84 15.82 17.08 18.83 19.88 1.02.95 1.9 1.35 2.92 1.62"/></g></g></g><g id="kvg:08977-g9" kvg:element="手" kvg:position="bottom"><path id="kvg:08977-s19" kvg:type="㇒" d="M74.1 55.5c.06.22.13.58-.12.9-1.46 1.9-9.85 6.06-21.32 8.61"/><path id="kvg:08977-s20" kvg:type="㇐" d="M47.81 69.86c.82.32 2.32.4 3.14.32 10.28-.89 13-.79 28.79-2.13 1.36-.12 3.58-.13 4.26.03"/><path id="kvg:08977-s21" kvg:type="㇐" d="M43.54 78.13c1.13.35 3.21.43 4.34.35 8.54-.59 23.75-2.32 39.56-2.67 1.89-.04 3.02.17 3.96.35"/><path id="kvg:08977-s22" kvg:type="㇁" d="M64.53 61.72c5.72 6.53 6.72 20.53 5.13 30.6-1.33 8.43-5.74 3.93-8.63.89"/></g></g></g></g></svg>