<!DOCTYPE svg PUBLIC "-//W3C//DTD SVG 1.0//EN" "http://www.w3.org/TR/2001/REC-SVG-20010904/DTD/svg10.dtd" [
<!ATTLIST g
xmlns:kvg CDATA #FIXED "http://kanjivg.tagaini.net"
kvg:element CDATA #IMPLIED
kvg:variant CDATA #IMPLIED
kvg:partial CDATA #IMPLIED
kvg:original CDATA #IMPLIED
kvg:part CDATA #IMPLIED
kvg:number CDATA #IMPLIED
kvg:tradForm CDATA #IMPLIED
kvg:radicalForm CDATA #IMPLIED
kvg:position CDATA #IMPLIED
kvg:radical CDATA #IMPLIED
kvg:phon CDATA #IMPLIED >
<!ATTLIST path
xmlns:kvg CDATA #FIXED "http://kanjivg.tagaini.net"
kvg:type CDATA #IMPLIED >
]><svg xmlns="http://www.w3.org/2000/svg" width="109" height="109" viewBox="0 0 109 109"><g id="kvg:StrokePaths_08974" style="fill:none;stroke:#000000;stroke-width:3;stroke-linecap:round;stroke-linejoin:round;"><g id="kvg:08974" kvg:element="襴"><g id="kvg:08974-g1" kvg:element="衤" kvg:variant="true" kvg:original="衣" kvg:position="left" kvg:radical="general"><path id="kvg:08974-s1" kvg:type="㇔" d="M20.58 14.25c3.5 2.82 7.25 7.06 10.25 12"/><path id="kvg:08974-s2" kvg:type="㇇" d="M13.38 35.83c.84.39 3.11.77 4.56.61 3.81-.44 15.18-3.81 17.27-4.46s4.12.82 2.93 2.83C31.17 46.56 21.76 59.83 11.5 68.75"/><path id="kvg:08974-s3" kvg:type="㇑" d="M26.5 53.11c.12.29 1.65 1.53 1.77 3.39.57 8.93.06 36.2.06 39.25"/><path id="kvg:08974-s4" kvg:type="㇒" d="M40.79 47.89c.17.87.33 1.1.0 1.74-1 1.91-4.09 6.61-6.09 8.87"/><path id="kvg:08974-s5" kvg:type="㇔" d="M31.33 59.5c3.33 2.71 6.9 6.76 9.75 11.5"/></g><g id="kvg:08974-g2" kvg:element="闌" kvg:position="right"><g id="kvg:08974-g3" kvg:element="門" kvg:position="kamae"><g id="kvg:08974-g4" kvg:position="left"><path id="kvg:08974-s6" kvg:type="㇑" d="M46.14 18c.52.45 1.63 3.41 1.73 4.31.1.91-.07 66.69-.17 72.37"/><path id="kvg:08974-s7" kvg:type="㇕a" d="M48.02 20.23c1.74-.1 14.18-2.62 15.76-2.74 1.32-.1 2 .89 2.07 1.68.1 1.21-.61 14.83-1.46 22.08"/><path id="kvg:08974-s8" kvg:type="㇐a" d="M48.33 30.82c4.27-.58 12.48-1.57 17.37-1.7"/><path id="kvg:08974-s9" kvg:type="㇐a" d="M48.49 42.15c5.78-1.13 10.26-1.99 15.37-2.5"/></g><g id="kvg:08974-g5" kvg:position="right"><path id="kvg:08974-s10" kvg:type="㇑" d="M76.18 16.5c.31.47.63 1.98.63 2.61s.17 21.83.17 22.15"/><path id="kvg:08974-s11" kvg:type="㇆a" d="M77.34 17.98c1.78-.09 15.43-2.38 17.05-2.49 1.35-.09 2.13.98 2.12 1.53-.35 16.61-.35 61.37-.35 73.42.0 7.81-3.88 3.06-6.12.46"/><path id="kvg:08974-s12" kvg:type="㇐a" d="M77.62 27.99c5.02-.49 14.65-1.24 18.68-1.91"/><path id="kvg:08974-s13" kvg:type="㇐a" d="M77.72 39.34c3.56.0 12.83-1.26 17.43-1.26"/></g></g><g id="kvg:08974-g6" kvg:element="柬"><g id="kvg:08974-g7" kvg:element="束" kvg:part="1"><g id="kvg:08974-g8" kvg:element="木" kvg:part="1"><path id="kvg:08974-s14" kvg:type="㇐" d="M57.28 49.91c1.34.27 2.57.41 3.8.31 5.24-.44 13.57-1.3 19.01-2.04 1.34-.18 2.9-.04 3.8.03"/></g><g id="kvg:08974-g9" kvg:element="口" kvg:part="1"><path id="kvg:08974-s15" kvg:type="㇑" d="M57.12 57.14c.18.24.86 1.44.94 1.74.62 2.38 1.83 7.93 2.26 12.2"/><path id="kvg:08974-s16" kvg:type="㇕" d="M58.29 57.99c5.37-.95 22.79-2.57 24.89-2.79 1.31-.14 2.49 1.29 2.29 2.62-.59 3.86-2.1 7.62-2.83 10.23"/></g></g><path id="kvg:08974-s17" kvg:type="㇔" d="M63.09 60.19c1.04 1.06 2.69 4.36 2.95 6.01"/><path id="kvg:08974-s18" kvg:type="㇒" d="M79.03 59.45c.01.15.02.38-.02.59-.23 1.25-1.55 3.99-3.35 5.67"/><g id="kvg:08974-g10" kvg:element="束" kvg:part="2"><g id="kvg:08974-g11" kvg:element="口" kvg:part="2"><path id="kvg:08974-s19" kvg:type="㇐" d="M60.18 70.31c5.85-.54 19.08-1.56 24.55-1.83"/></g><g id="kvg:08974-g12" kvg:element="木" kvg:part="2"><path id="kvg:08974-s20" kvg:type="㇑" d="M69.11 43c.56.29 1.36 2.31 1.47 2.89s0 44.09-.11 47.73"/><path id="kvg:08974-s21" kvg:type="㇒" d="M70.56 69.62c-2.76 5.49-9.93 13.25-15.67 16.35"/><path id="kvg:08974-s22" kvg:type="㇔/㇏" d="M74.86 73.92c3.39 1.58 8.39 7.08 10.62 10.53"/></g></g></g></g></g></g><g id="kvg:StrokeNumbers_08974" style="font-size:8;fill:#808080"><text transform="matrix(1 0 0 1 14.50 14.50)">1</text><text transform="matrix(1 0 0 1 6.50 36.50)">2</text><text transform="matrix(1 0 0 1 21.50 67.50)">3</text><text transform="matrix(1 0 0 1 38.50 44.50)">4</text><text transform="matrix(1 0 0 1 30.50 71.50)">5</text><text transform="matrix(1 0 0 1 40.25 26.50)">6</text><text transform="matrix(1 0 0 1 49.25 16.50)">7</text><text transform="matrix(1 0 0 1 52.50 28.50)">8</text><text transform="matrix(1 0 0 1 52.50 39.50)">9</text><text transform="matrix(1 0 0 1 67.50 23.95)">10</text><text transform="matrix(1 0 0 1 79.25 14.50)">11</text><text transform="matrix(1 0 0 1 80.25 25.50)">12</text><text transform="matrix(1 0 0 1 80.75 36.50)">13</text><text transform="matrix(1 0 0 1 54.50 47.50)">14</text><text transform="matrix(1 0 0 1 50.25 65.50)">15</text><text transform="matrix(1 0 0 1 54.25 56.50)">16</text><text transform="matrix(1 0 0 1 63.50 63.50)">17</text><text transform="matrix(1 0 0 1 71.75 62.50)">18</text><text transform="matrix(1 0 0 1 60.50 69.53)">19</text><text transform="matrix(1 0 0 1 67.25 41.50)">20</text><text transform="matrix(1 0 0 1 55.25 77.38)">21</text><text transform="matrix(1 0 0 1 80.25 76.38)">22</text></g></svg>