<svg xmlns="http://www.w3.org/2000/svg" width="109" height="109" viewBox="0 0 109 109"><g id="kvg:StrokePaths_0898a"><g id="kvg:0898a" kvg:element="覊"><g id="kvg:0898a-g1" kvg:element="覀" kvg:original="襾" kvg:position="top" kvg:radical="general"><path id="kvg:0898a-s1" kvg:type="㇐" d="M23.14 14.16c1.44.45 4.08.59 5.52.45 13.59-1.36 37.59-3.11 48.29-3.53 2.39-.09 3.84-.29 5.04-.07"/><path id="kvg:0898a-s2" kvg:type="㇑" d="M20.5 21.74c.5.84 1.13 1.53 1.24 2.6C22 27 23.5 29.5 23.75 33.75"/><path id="kvg:0898a-s3" kvg:type="㇕" d="M21.63 23.72c10.3-1.36 58.32-4.96 63.63-5.42 1.94-.17 2.83 1.66 2.83 2.68.0 2.76-1.34 5.51-2.27 10.33"/><path id="kvg:0898a-s4" kvg:type="㇑" d="M43.05 14.01c.32.25.54 1.11.58 1.62C44 20 45.52 27.74 45.73 32.48"/><path id="kvg:0898a-s5" kvg:type="㇑" d="M64.9 13.08c.32.25.46 1.14.46 2.28-.01 4.56-1.07 7.14-1.07 12.52"/><path id="kvg:0898a-s6" kvg:type="㇐" d="M45.76 29.92c3.74-.17 16.49-1.42 20.13-1.9"/></g><g id="kvg:0898a-g2" kvg:position="bottom"><g id="kvg:0898a-g3" kvg:element="革" kvg:position="left"><g id="kvg:0898a-g4" kvg:element="廿" kvg:position="top"><g id="kvg:0898a-g5" kvg:element="十"><path id="kvg:0898a-s7" kvg:type="㇐" d="M14.09 44.81c.95.57 2.69.66 3.64.57C22.7 44.86 41 42.5 47.9 42.19c1.58-.07 2.54.27 3.33.55"/><path id="kvg:0898a-s8" kvg:type="㇑" d="M25.02 38.07c.44.29.7 1.31.78 1.89.09.58 1.15 7.96 1.61 14.52"/></g><path id="kvg:0898a-s9" kvg:type="㇑a" d="M40.71 35.5c.44.29.84 1.3.78 1.89-.31 3.14-.24 5.74-1.4 13.85"/><path id="kvg:0898a-s10" kvg:type="㇐b" d="M27.33 53c1.65.0 12.54-1.08 14.02-1.21"/></g><g id="kvg:0898a-g6" kvg:position="bottom"><path id="kvg:0898a-s11" kvg:type="㇑" d="M17.49 60.4c.29.28.59.51.72.86 1.01 2.77 1.36 6.54 2.05 11.51"/><path id="kvg:0898a-s12" kvg:type="㇕" d="M18.26 61.64c6.88-1.32 26-3 28.95-3.51 1.08-.19 1.99 1.12 1.81 2.2-.39 2.22-1.43 4.09-2.28 7.97"/><path id="kvg:0898a-s13" kvg:type="㇐" d="M20.22 71.36c3.47-.57 24.2-2.42 28.6-3"/><path id="kvg:0898a-s14" kvg:type="㇐" d="M12 80.6c1.02.61 2.87.6 3.9.61 8.85.04 22.6-1.71 30.53-2.62 1.69-.19 2.71-.21 3.56.09"/><path id="kvg:0898a-s15" kvg:type="㇑" d="M32.75 55.4c.5.39.81 1.74.91 2.51s0 38.26-.1 43.09"/></g></g><g id="kvg:0898a-g7" kvg:element="馬" kvg:position="right"><path id="kvg:0898a-s16" kvg:type="㇑" d="M61.24 38.35c-.02 4.1-.21 31.12-.99 33.5"/><path id="kvg:0898a-s17" kvg:type="㇐b" d="M59.48 37.67c.8-.01 2.74.45 3.79.39 7.82-.42 20.4-1.85 22.76-2.13.94-.11 2.53-.2 3-.02"/><path id="kvg:0898a-s18" kvg:type="㇑a" d="M72.81 38.61c.25.3.96.7.95 1.18-.02 4.91-.06 21.73-.25 29.45"/><path id="kvg:0898a-s19" kvg:type="㇐b" d="M61.66 49.06c6.26-.47 19.75-2.27 22.44-2.58.94-.11 2.53-.19 3-.02"/><path id="kvg:0898a-s20" kvg:type="㇐b" d="M61.76 59.43c6.26-.47 19.25-2.67 21.94-2.98.94-.11 2.53-.2 3-.02"/><path id="kvg:0898a-s21" kvg:type="㇆a" d="M60.49 72.37c6.17-1.12 25.54-2.71 28.93-3.18 4.33-.61 4.7 2.32 3.95 5.13-2.12 7.93-4.87 13.93-9.12 20.19-3 4.41-5.32.32-6.21-.69"/><g id="kvg:0898a-g8" kvg:element="灬" kvg:variant="true" kvg:original="火"><path id="kvg:0898a-s22" kvg:type="㇔" d="M54.5 79.28c.42 6.59-2.36 12.38-2.81 13.7"/><path id="kvg:0898a-s23" kvg:type="㇔" d="M61.61 78.63c1.22 2.71 2.25 6.11 2.53 10.94"/><path id="kvg:0898a-s24" kvg:type="㇔" d="M70.02 77.35c.63 1.19 2.88 5.12 3.16 9.02"/><path id="kvg:0898a-s25" kvg:type="㇔" d="M78.01 75.58c1.33 2.55 3.51 5.18 3.98 8.56"/></g></g></g></g></g></svg>