<!DOCTYPE svg PUBLIC "-//W3C//DTD SVG 1.0//EN" "http://www.w3.org/TR/2001/REC-SVG-20010904/DTD/svg10.dtd" [
<!ATTLIST g
xmlns:kvg CDATA #FIXED "http://kanjivg.tagaini.net"
kvg:element CDATA #IMPLIED
kvg:variant CDATA #IMPLIED
kvg:partial CDATA #IMPLIED
kvg:original CDATA #IMPLIED
kvg:part CDATA #IMPLIED
kvg:number CDATA #IMPLIED
kvg:tradForm CDATA #IMPLIED
kvg:radicalForm CDATA #IMPLIED
kvg:position CDATA #IMPLIED
kvg:radical CDATA #IMPLIED
kvg:phon CDATA #IMPLIED >
<!ATTLIST path
xmlns:kvg CDATA #FIXED "http://kanjivg.tagaini.net"
kvg:type CDATA #IMPLIED >
]><svg xmlns="http://www.w3.org/2000/svg" width="109" height="109" viewBox="0 0 109 109"><g id="kvg:StrokePaths_089aa" style="fill:none;stroke:#000000;stroke-width:3;stroke-linecap:round;stroke-linejoin:round;"><g id="kvg:089aa" kvg:element="親"><g id="kvg:089aa-g1" kvg:position="left" kvg:phon="辛+木"><g id="kvg:089aa-g2" kvg:element="立"><g id="kvg:089aa-g3" kvg:element="亠" kvg:position="top"><path id="kvg:089aa-s1" kvg:type="㇑a" d="M31.18 13.51c.97.97 1.62 2.28 1.62 3.71.0 1.44.01 4.82.01 8.72"/><path id="kvg:089aa-s2" kvg:type="㇐" d="M16.82 29.19c1.12.11 2.45.15 3.55.03C25.75 28.62 36 26.62 42.39 26c1.86-.18 3.24-.25 4.27.02"/></g><g id="kvg:089aa-g4" kvg:position="bottom"><path id="kvg:089aa-s3" kvg:type="㇔" d="M21.81 33.25c2.44 3.38 4.02 7.74 4.35 10.98"/><path id="kvg:089aa-s4" kvg:type="㇒" d="M40.93 30.75c.25.67.28 1.87.11 2.58-.4 3.04-2.04 7.79-2.42 9.67"/><path id="kvg:089aa-s5" kvg:type="㇐" d="M12.92 48.45c2.08.3 3.29.33 5.54.03 7.29-.98 21.04-3.98 28.37-4.49 1.43-.1 3.45-.04 4.17.01"/></g></g><g id="kvg:089aa-g5" kvg:element="木"><path id="kvg:089aa-s6" kvg:type="㇐" d="M13.76 62.95c.77.23 2.48.59 4.5.34 7.37-.91 18.57-3.05 26.1-4.48 2.01-.38 3.14-.3 4.14-.3"/><path id="kvg:089aa-s7" kvg:type="㇑" d="M32.75 51c1 1 1.53 2.5 1.53 3.93.0 3.82.1 26.35-.11 37.82-.04 2.16-.08 3.83-.12 4.75"/><path id="kvg:089aa-s8" kvg:type="㇒" d="M32.12 62.38c0 .96-.56 2.17-.89 2.8-4.2 8.16-12.56 17.69-19.74 22.07"/><path id="kvg:089aa-s9" kvg:type="㇔/㇏" d="M37.5 66.75c3.72 2.83 6.11 5.67 8.25 8.5"/></g></g><g id="kvg:089aa-g6" kvg:element="見" kvg:position="right" kvg:radical="general"><g id="kvg:089aa-g7" kvg:element="目"><path id="kvg:089aa-s10" kvg:type="㇑" d="M55.94 18.69c.75.75 1.34 2.08 1.34 3.48.0 1.14-.1 27.03-.05 37.57.01 2.41.03 3.99.05 4.25"/><path id="kvg:089aa-s11" kvg:type="㇕a" d="M58.01 19.83c6.48-.97 21.25-3.17 23.02-3.33 1.91-.18 3.76 1.26 3.76 3.03.0 1.35-.15 28.68-.32 39.48-.04 2.5-.07 4.11-.07 4.31"/><path id="kvg:089aa-s12" kvg:type="㇐a" d="M58.48 32.92c5.27-.67 20.14-3.04 25.13-3.35"/><path id="kvg:089aa-s13" kvg:type="㇐a" d="M58.44 47.32c7.94-.7 17.31-2.07 24.63-2.6"/><path id="kvg:089aa-s14" kvg:type="㇐a" d="M58.59 61.44c6.04-.44 17.54-1.81 24.63-2.1"/></g><g id="kvg:089aa-g8" kvg:element="儿" kvg:position="bottom"><path id="kvg:089aa-s15" kvg:type="㇒" d="M64 64.5c.05.75.12 1.95-.11 3.03C62.53 73.91 55.5 87.5 44 96.5"/><path id="kvg:089aa-s16" kvg:type="㇟" d="M73.36 62.72c.71.71 1.27 1.9 1.3 3.61.07 4.77-.06 12.48-.06 17.94.0 9.49 1.65 10.87 10.65 10.87 9.75.0 11-.87 11-8.47"/></g></g></g></g><g id="kvg:StrokeNumbers_089aa" style="font-size:8;fill:#808080"><text transform="matrix(1 0 0 1 26.25 10.63)">1</text><text transform="matrix(1 0 0 1 15.77 25.99)">2</text><text transform="matrix(1 0 0 1 15.75 39.13)">3</text><text transform="matrix(1 0 0 1 33.75 36.13)">4</text><text transform="matrix(1 0 0 1 9.56 46.25)">5</text><text transform="matrix(1 0 0 1 7.86 61.93)">6</text><text transform="matrix(1 0 0 1 26.11 55.11)">7</text><text transform="matrix(1 0 0 1 21.22 70.47)">8</text><text transform="matrix(1 0 0 1 40.16 67.20)">9</text><text transform="matrix(1 0 0 1 44.48 22.52)">10</text><text transform="matrix(1 0 0 1 57.21 16.27)">11</text><text transform="matrix(1 0 0 1 58.41 29.65)">12</text><text transform="matrix(1 0 0 1 58.41 44.42)">13</text><text transform="matrix(1 0 0 1 58.41 58.97)">14</text><text transform="matrix(1 0 0 1 50.96 72.38)">15</text><text transform="matrix(1 0 0 1 76.05 71.61)">16</text></g></svg>