<svg xmlns="http://www.w3.org/2000/svg" width="109" height="109" viewBox="0 0 109 109"><g id="kvg:StrokePaths_089a9" style="fill:none;stroke:#000000;stroke-width:3;stroke-linecap:round;stroke-linejoin:round;"><g id="kvg:089a9" kvg:element="覩"><g id="kvg:089a9-g1" kvg:element="者" kvg:variant="true" kvg:position="left"><g id="kvg:089a9-g2" kvg:element="耂" kvg:original="老" kvg:partial="true"><g id="kvg:089a9-g3" kvg:element="土"><path id="kvg:089a9-s1" kvg:type="㇐" d="M15.61 31.48c.66.31 1.86.36 2.53.31 7.49-.51 17.36-2.04 22.55-2.61 1.09-.12 1.76.15 2.31.31"/><path id="kvg:089a9-s2" kvg:type="㇑a" d="M31.29 11.87c.1.28 1.32 1.44 1.41 3.19.45 8.41.25 26.19.25 29.05"/><path id="kvg:089a9-s3" kvg:type="㇐" d="M10.89 46.27c1.37.41 3.48.78 4.71.6C28.25 45 43 42.75 50.83 42.15c2.04-.16 3.27.29 4.3.59"/></g><path id="kvg:089a9-s4" kvg:type="㇒" d="M50.7 19.38c.11 1.09.22 2.61-.6 3.9C39.57 39.86 31.25 52.75 10.42 67.51"/></g><path id="kvg:089a9-s5" kvg:type="㇔" d="M38.88 46.98c2.38 1.29 6.16 5.3 6.76 7.3"/><g id="kvg:089a9-g4" kvg:element="日"><path id="kvg:089a9-s6" kvg:type="㇑" d="M25.21 59.77c.23.79.47 1.18.47 2.24.0 1.05-.15 31.75-.15 32.28"/><path id="kvg:089a9-s7" kvg:type="㇕a" d="M26.07 61.73c1.32-.13 18.01-2.28 19.21-2.44 1-.13 1.65 1.46 1.57 2.24-.16 1.58-.24 19.06-.23 30.63"/><path id="kvg:089a9-s8" kvg:type="㇐a" d="M25.92 75.14c4.06.0 18.43-1.99 20.45-1.99"/><path id="kvg:089a9-s9" kvg:type="㇐a" d="M25.84 91.07c4.89.0 15-2.16 20.52-2.19"/></g></g><g id="kvg:089a9-g5" kvg:element="見" kvg:position="right" kvg:radical="general"><g id="kvg:089a9-g6" kvg:element="目" kvg:position="top"><path id="kvg:089a9-s10" kvg:type="㇑" d="M60.94 16.36C61.37 17.5 62 18.34 62 19.85S61.86 65.49 62 67"/><path id="kvg:089a9-s11" kvg:type="㇕a" d="M62.73 17.89c2.46-.19 21.15-2.17 23.39-2.4 1.86-.19 3.33 1.06 3.17 2.46-.2 1.78-.87 46.09-.87 47.23"/><path id="kvg:089a9-s12" kvg:type="㇐a" d="M62.69 31.79c6.56-.54 22.29-2.57 26.23-2.57"/><path id="kvg:089a9-s13" kvg:type="㇐a" d="M62.39 46.28c7.11-.54 19.92-2.27 26.24-2.27"/><path id="kvg:089a9-s14" kvg:type="㇐a" d="M63.52 64.23c4.88.0 17.93-2.27 24.24-2.27"/></g><g id="kvg:089a9-g7" kvg:element="儿" kvg:position="bottom"><path id="kvg:089a9-s15" kvg:type="㇒" d="M67.75 68.25c.05.69.11 1.79-.1 2.79-1.23 5.88-8.27 18.8-17.9 26.71"/><path id="kvg:089a9-s16" kvg:type="㇟" d="M75.86 65.47c.43 1.1.77 2.4.8 4.11.07 4.77-.31 11.74-.31 17.19.0 8.49 2.39 10.33 10.9 10.33S97.25 96 97.25 89.16"/></g></g></g></g></svg>