<svg xmlns="http://www.w3.org/2000/svg" width="109" height="109" viewBox="0 0 109 109"><g id="kvg:StrokePaths_089bd"><g id="kvg:089bd" kvg:element="覽"><g id="kvg:089bd-g1" kvg:position="top"><g id="kvg:089bd-g2" kvg:element="臣" kvg:position="left"><path id="kvg:089bd-s1" kvg:type="㇑" d="M18.87 15.66c.52.18.83.87.94 1.27.1.4.0 29.26-.1 31.8"/><path id="kvg:089bd-s2" kvg:type="㇐b" d="M19.92 16.12c3.44-.46 19.14-2.31 27.13-2.98 1.21-.1 1.94-.19 2.55-.11"/><path id="kvg:089bd-s3" kvg:type="㇑a" d="M33.25 15.19c.52.18.83.87.94 1.27.1.4.07 4.96-.04 7.5"/><path id="kvg:089bd-s4" kvg:type="㇕b" d="M20.13 25.84c8.24-1.13 19.08-2.41 24.8-3.18 2.31-.31 2.96.49 2.64 1.6-.58 2-1.44 5.38-2.04 7.78"/><path id="kvg:089bd-s5" kvg:type="㇐b" d="M20.16 35.44c3.44-.46 23.33-2.6 26.56-2.94"/><path id="kvg:089bd-s6" kvg:type="㇑a" d="M33.61 34.11c.52.18.83.87.94 1.27s.07 7.29-.04 9.82"/><path id="kvg:089bd-s7" kvg:type="㇐b" d="M19.92 46.5c3.44-.46 20.03-1.72 28.03-2.39 1.21-.1 1.94-.19 2.55-.11"/></g><g id="kvg:089bd-g3" kvg:position="right"><g id="kvg:089bd-g4" kvg:element="𠂉"><path id="kvg:089bd-s8" kvg:type="㇒" d="M63.29 10.96c.1.91-.03 2.1-.35 2.88-2.07 4.98-4.7 9.19-9.44 15.24"/><path id="kvg:089bd-s9" kvg:type="㇐" d="M62.98 18.52c.8.09 2.36.51 3.78.42 6.58-.45 17.65-3.03 22.01-3.47 1.23-.12 2.37.16 2.98.32"/></g><path id="kvg:089bd-s10" kvg:type="㇐" d="M63.98 25.22c.51.05 1.51.3 2.42.24 4.21-.26 11.29-1.75 14.08-2.01.79-.07 1.52.09 1.91.19"/><g id="kvg:089bd-g5" kvg:element="罒" kvg:variant="true" kvg:original="网"><path id="kvg:089bd-s11" kvg:type="㇑" d="M56.75 32.02c.17.23.35.42.42.72.6 2.3 1.31 8.64 1.72 12.77"/><path id="kvg:089bd-s12" kvg:type="㇕a" d="M57.82 33.57c3.8-.9 28.22-3.29 30.24-3.59.74-.11 1.74.78 1.54 2.07-.41 2.7-1.43 7.32-2.53 11.17"/><path id="kvg:089bd-s13" kvg:type="㇑a" d="M67.42 32.29c.12 1.53.93 9 1.04 10.72"/><path id="kvg:089bd-s14" kvg:type="㇑a" d="M78.32 31.33c-.12 2.49-.7 9-.93 10.53"/><path id="kvg:089bd-s15" kvg:type="㇐a" d="M59.44 44.25c2.37-.34 24.66-2.46 27.91-2.99"/></g></g></g><g id="kvg:089bd-g6" kvg:element="見" kvg:position="bottom" kvg:radical="general"><g id="kvg:089bd-g7" kvg:element="目" kvg:position="top"><path id="kvg:089bd-s16" kvg:type="㇑" d="M34.05 53.55c.32.63.79 1.6.79 2.44s-.39 26.07-.28 26.91"/><path id="kvg:089bd-s17" kvg:type="㇕a" d="M35.38 54.91c1.83-.1 34.76-3.55 36.42-3.67 1.39-.11 2.37.45 2.37 1.96.0 2.35-.65 25.67-.65 26.3"/><path id="kvg:089bd-s18" kvg:type="㇐a" d="M34.8 63.5c2.61.0 36.16-3.51 39.09-3.51"/><path id="kvg:089bd-s19" kvg:type="㇐a" d="M34.95 71.54c3.63.0 34.02-3.36 38.72-3.36"/><path id="kvg:089bd-s20" kvg:type="㇐a" d="M34.86 80.48c3.63.0 33.47-2.76 38.17-2.76"/></g><g id="kvg:089bd-g8" kvg:element="儿" kvg:position="bottom"><path id="kvg:089bd-s21" kvg:type="㇒" d="M43.59 83.04c.08.44.16 1.13-.15 1.76-1.83 3.71-11.5 12.58-26.76 16.86"/><path id="kvg:089bd-s22" kvg:type="㇟" d="M59.45 80.4c.61.61 1.09 1.34 1.12 2.29.17 4.23.03 3.72.03 9.92s5.09 5.95 15.17 5.95c12.72.0 15.71-2.06 15.71-9.21"/></g></g></g></g></svg>