<!DOCTYPE svg PUBLIC "-//W3C//DTD SVG 1.0//EN" "http://www.w3.org/TR/2001/REC-SVG-20010904/DTD/svg10.dtd" [
<!ATTLIST g
xmlns:kvg CDATA #FIXED "http://kanjivg.tagaini.net"
kvg:element CDATA #IMPLIED
kvg:variant CDATA #IMPLIED
kvg:partial CDATA #IMPLIED
kvg:original CDATA #IMPLIED
kvg:part CDATA #IMPLIED
kvg:number CDATA #IMPLIED
kvg:tradForm CDATA #IMPLIED
kvg:radicalForm CDATA #IMPLIED
kvg:position CDATA #IMPLIED
kvg:radical CDATA #IMPLIED
kvg:phon CDATA #IMPLIED >
<!ATTLIST path
xmlns:kvg CDATA #FIXED "http://kanjivg.tagaini.net"
kvg:type CDATA #IMPLIED >
]><svg xmlns="http://www.w3.org/2000/svg" width="109" height="109" viewBox="0 0 109 109"><g id="kvg:StrokePaths_089bf" style="fill:none;stroke:#000000;stroke-width:3;stroke-linecap:round;stroke-linejoin:round;"><g id="kvg:089bf" kvg:element="覿"><g id="kvg:089bf-g1" kvg:element="賣" kvg:variant="true" kvg:position="left"><g id="kvg:089bf-g2" kvg:position="top"><g id="kvg:089bf-g3" kvg:element="士"><path id="kvg:089bf-s1" kvg:type="㇐" d="M14.97 21.15c.99.35 2.81.41 3.8.35 10.33-.59 18.13-1.7 30.25-2.46 1.65-.1 2.65.17 3.47.35"/><path id="kvg:089bf-s2" kvg:type="㇑a" d="M32.3 12.5c.58.33.93 1.48 1.05 2.13.12.66.0 9.16-.12 13.26"/><path id="kvg:089bf-s3" kvg:type="㇐" d="M19.9 28.53c.73.24 2.05.22 2.78.24C29 29 39 27.75 45.6 27.07c1.2-.12 1.94.12 2.54.24"/></g><g id="kvg:089bf-g4" kvg:element="罒" kvg:variant="true" kvg:original="网"><path id="kvg:089bf-s4" kvg:type="㇑" d="M14.67 35.31c.18.27.37.49.45.82.63 2.65 2.14 9.94 2.57 14.69"/><path id="kvg:089bf-s5" kvg:type="㇕" d="M15.79 37.11c3.98-1.04 33.83-3.33 35.94-3.68.77-.13 1.82.89 1.61 2.38-.43 3.1-1.69 7.91-2.85 12.34"/><path id="kvg:089bf-s6" kvg:type="㇒" d="M28.89 38.06c.04.19.04.49-.07.77-.96 2.46-2.18 4.33-6.27 6.71"/><path id="kvg:089bf-s7" kvg:type="㇄" d="M38.03 36.08c.41.37.75.81.75 1.38.0.77-.12 2.21-.12 2.76.0 1.5 1.39 2.12 4.03 2.12 2.39.0 4.16.0 5.17-.48"/><path id="kvg:089bf-s8" kvg:type="㇐" d="M18.25 49.39c2.49-.39 29.13-2.9 32.54-3.51"/></g></g><g id="kvg:089bf-g5" kvg:element="貝" kvg:position="bottom"><g id="kvg:089bf-g6" kvg:element="目" kvg:position="top"><path id="kvg:089bf-s9" kvg:type="㇑" d="M19.79 55.52c.41.97 1.01 1.7 1.01 2.99.0 1.3.19 20.2-.3 25.63"/><path id="kvg:089bf-s10" kvg:type="㇕a" d="M21.5 56.95c2.33-.16 21.37-2.17 23.5-2.35 1.77-.16 2.72.86 2.72 2.04.0 2.86-.52 25.2-.52 26.14"/><path id="kvg:089bf-s11" kvg:type="㇐a" d="M20.85 65.04c4.37-.36 22.54-2.11 26.28-2.11"/><path id="kvg:089bf-s12" kvg:type="㇐a" d="M21.04 73.91c6.59-.69 19.13-1.66 26.12-1.8"/><path id="kvg:089bf-s13" kvg:type="㇐a" d="M20.74 82.05c6.59-.52 20.41-1.45 26.42-1.45"/></g><g id="kvg:089bf-g7" kvg:element="八" kvg:position="bottom"><path id="kvg:089bf-s14" kvg:type="㇒" d="M26.52 86.76c.35 1.04-.26 2.06-.95 2.83-2.07 2.3-7.52 7.19-11.67 9.91"/><path id="kvg:089bf-s15" kvg:type="㇔" d="M36.54 85.86c5.08 2.58 10.21 8.15 11.48 10.69"/></g></g></g><g id="kvg:089bf-g8" kvg:element="見" kvg:position="right" kvg:radical="general"><g id="kvg:089bf-g9" kvg:element="目" kvg:position="top"><path id="kvg:089bf-s16" kvg:type="㇑" d="M61.19 16.92c.45 1.16 1.09 2.03 1.09 3.57.0 1.55-.15 45.21.0 46.76"/><path id="kvg:089bf-s17" kvg:type="㇕a" d="M63.02 18.49c2.52-.19 20.71-1.76 23-1.99 1.91-.19 3.42 1.08 3.26 2.52-.2 1.82.11 47.21.11 48.37"/><path id="kvg:089bf-s18" kvg:type="㇐a" d="M62.98 34.25c3.6.0 21.34-2.14 25.38-2.14"/><path id="kvg:089bf-s19" kvg:type="㇐a" d="M63.19 48.6c7.3-.55 18.4-1.82 24.88-1.82"/><path id="kvg:089bf-s20" kvg:type="㇐a" d="M63.84 65.42c5.01.0 18.4-1.82 24.88-1.82"/></g><g id="kvg:089bf-g10" kvg:element="儿" kvg:position="bottom"><path id="kvg:089bf-s21" kvg:type="㇒" d="M68.76 70.25c.05.67.1 1.72-.09 2.67-1.16 5.64-7.81 18-16.91 25.58"/><path id="kvg:089bf-s22" kvg:type="㇟" d="M77.86 66.97c.43 1.1.77 2.4.8 4.11.07 4.77-.31 11.72-.31 17.18.0 8.5 2.15 9.85 9.66 9.85 7.99.0 9.24-2.35 9.24-9.95"/></g></g></g></g><g id="kvg:StrokeNumbers_089bf" style="font-size:8;fill:#808080"><text transform="matrix(1 0 0 1 9.50 21.50)">1</text><text transform="matrix(1 0 0 1 26.25 10.55)">2</text><text transform="matrix(1 0 0 1 13.50 28.50)">3</text><text transform="matrix(1 0 0 1 8.50 42.50)">4</text><text transform="matrix(1 0 0 1 16.50 34.50)">5</text><text transform="matrix(1 0 0 1 20.25 43.50)">6</text><text transform="matrix(1 0 0 1 33.50 42.18)">7</text><text transform="matrix(1 0 0 1 29.50 46.10)">8</text><text transform="matrix(1 0 0 1 13.50 62.50)">9</text><text transform="matrix(1 0 0 1 22.25 55.50)">10</text><text transform="matrix(1 0 0 1 24.50 63.88)">11</text><text transform="matrix(1 0 0 1 24.50 71.50)">12</text><text transform="matrix(1 0 0 1 24.50 80.50)">13</text><text transform="matrix(1 0 0 1 13.50 92.50)">14</text><text transform="matrix(1 0 0 1 30.50 93.50)">15</text><text transform="matrix(1 0 0 1 51.25 25.50)">16</text><text transform="matrix(1 0 0 1 65.50 15.50)">17</text><text transform="matrix(1 0 0 1 65.50 30.50)">18</text><text transform="matrix(1 0 0 1 65.49 45.50)">19</text><text transform="matrix(1 0 0 1 65.49 61.50)">20</text><text transform="matrix(1 0 0 1 57.50 76.50)">21</text><text transform="matrix(1 0 0 1 69.50 83.50)">22</text></g></svg>