<svg xmlns="http://www.w3.org/2000/svg" width="109" height="109" viewBox="0 0 109 109"><g id="kvg:StrokePaths_089da"><g id="kvg:089da" kvg:element="觚"><g id="kvg:089da-g1" kvg:element="角" kvg:position="left" kvg:radical="general"><g id="kvg:089da-g2" kvg:element="𠂊" kvg:variant="true" kvg:original="勹" kvg:position="top"><path id="kvg:089da-s1" kvg:type="㇒" d="M24.49 15.25c.03.54.07 1.4-.07 2.18-.82 4.59-5.5 14.66-11.92 20.82"/><path id="kvg:089da-s2" kvg:type="㇇a" d="M22.89 22c2 0 11.11-1.75 14.82-2.75 2.16-.58 3.06.98 2 2.75-1.96 3.25-5.21 8.75-7.15 15.5"/></g><g id="kvg:089da-g3" kvg:position="bottom"><path id="kvg:089da-s3" kvg:type="㇒" d="M18.14 39c.63.72 1.25 2.74 1.25 3.49.02 1.85-.45 22.97-.57 24.58C18.04 77.47 16.28 87.05 11 93.5"/><path id="kvg:089da-s4" kvg:type="㇆a" d="M19.57 40.2c2.5-.21 17.42-2.73 19.28-2.96 3.33-.42 4.58 2.71 4.16 3.96-.4 1.2-.62 30.05-.62 46.93.0 12.12-4.39 3.37-6.68 1.62"/><path id="kvg:089da-s5" kvg:type="㇑a" d="M29.42 39.37c.05.24.68 1.25.73 2.77C30.38 49.42 30 66.52 30 69"/><path id="kvg:089da-s6" kvg:type="㇐a" d="M19.57 54.85C30 53.5 32.5 53.75 42.7 52.5"/><path id="kvg:089da-s7" kvg:type="㇐a" d="M19.07 70.25c6.68-.5 13.43-1.75 23.19-2.5"/></g></g><g id="kvg:089da-g4" kvg:element="瓜" kvg:position="right"><g id="kvg:089da-g5" kvg:element="丿"><path id="kvg:089da-s8" kvg:type="㇒" d="M83.85 15c.07.4-.11 1.7-.52 2.15-5.14 5.69-12.37 10.38-25.78 14.98"/></g><path id="kvg:089da-s9" kvg:type="㇒" d="M56.14 31.28c.26.73.67 2 .74 4.08.71 21.57-.47 46.83-9.06 57.1"/><g id="kvg:089da-g6" kvg:element="厶" kvg:variant="true" kvg:original="厶"><path id="kvg:089da-s10" kvg:type="㇑" d="M68.08 30.76c.87.62 1.56 2.75 1.56 4.01.0 6.44-1.17 38.09-1.17 48.55"/><path id="kvg:089da-s11" kvg:type="㇐" d="M58.59 85.8c.55.37 1.62 1.08 2.77.68 6.08-2.12 10.68-4.03 17.18-6.39"/><path id="kvg:089da-s12" kvg:type="㇔" d="M76.47 72.43c2.13 3.07 5.49 12.6 6.02 17.37"/></g><path id="kvg:089da-s13" kvg:type="㇏" d="M77.12 28.17c.2.0.87.58 1.08 1.76 3.05 16.82 8.05 38.82 15.18 56.19 1.05 2.55 2.69 3.95 3.61 4.73"/></g></g></g></svg>