<svg xmlns="http://www.w3.org/2000/svg" width="109" height="109" viewBox="0 0 109 109"><g id="kvg:StrokePaths_089e3"><g id="kvg:089e3" kvg:element="解"><g id="kvg:089e3-g1" kvg:element="角" kvg:position="left" kvg:radical="general"><g id="kvg:089e3-g2" kvg:element="𠂊" kvg:variant="true" kvg:original="勹" kvg:position="top"><path id="kvg:089e3-s1" kvg:type="㇒" d="M28.73 11c.04.49.19 1.3-.08 1.96-1.9 4.54-6.77 12.16-15.15 18.79"/><path id="kvg:089e3-s2" kvg:type="㇇a" d="M28.39 18c2 0 10.36-1.25 14.07-2.25 2.16-.58 3.24 1.1 2 2.75-4.33 5.75-6.96 9-10.9 15.25"/></g><g id="kvg:089e3-g3" kvg:position="bottom"><path id="kvg:089e3-s3" kvg:type="㇒" d="M18.17 36.25c.98.98 1.24 2.38 1.23 3.94C19.25 61.25 19.38 80.5 9.5 93.5"/><path id="kvg:089e3-s4" kvg:type="㇆a" d="M20.57 37.45c4.18-.7 21.17-3.25 23.03-3.46 2.15-.24 4.16 1.13 4.16 3.96.0 2.55.12 34.8.12 51.68.0 12.12-5.39 4.75-7.43 2.37"/><path id="kvg:089e3-s5" kvg:type="㇑a" d="M31.42 37.12c.8.8 1.23 2.13 1.23 3.27.0 8.87.1 19.62.1 25.37"/><path id="kvg:089e3-s6" kvg:type="㇐a" d="M20.32 52.6c7.8-1.1 18.05-2.48 26.12-3.1"/><path id="kvg:089e3-s7" kvg:type="㇐a" d="M19.57 68.5c8.31-1 17.18-2.25 26.94-3"/></g></g><g id="kvg:089e3-g4" kvg:position="right"><g id="kvg:089e3-g5" kvg:element="刀" kvg:position="top"><path id="kvg:089e3-s8" kvg:type="㇆" d="M59.14 18.67c1.5.4 3.55.43 5.12.25 8.32-.95 20.84-2.92 25.13-3.21 2.97-.21 3.78 2.12 3.62 3.56-.43 3.8-3.85 13.68-7.24 18.63-4.52 6.61-5.27 1.86-6.91.19"/><path id="kvg:089e3-s9" kvg:type="㇒" d="M72.33 21.38c.04.5-.06 1.33-.34 2.02C69.5 29.5 66 35.5 59 40.9"/></g><g id="kvg:089e3-g6" kvg:element="牛" kvg:position="bottom"><path id="kvg:089e3-s10" kvg:type="㇒" d="M63.1 48.71c.03.39.05 1-.05 1.55-.62 3.28-3.8 10.74-9.09 16.11"/><path id="kvg:089e3-s11" kvg:type="㇐" d="M60.52 59.55c.6.25 2.45.29 3.06.25 6.94-.5 16.4-1.77 22.94-2.41 1.81-.18 3.98-.26 5.83.06"/><path id="kvg:089e3-s12" kvg:type="㇐" d="M55.85 73.96c2.65.67 5.17.23 7.4-.06 8.56-1.13 18.73-2.4 26.5-3 2.41-.19 4.78-.39 7.15.12"/><path id="kvg:089e3-s13" kvg:type="㇑" d="M74.67 46.63c.79.79 1.36 2.12 1.36 3.22.0.47.06 29.24.08 42.52.01 3.18.01 5 .01 5.88"/></g></g></g></g></svg>