<svg xmlns="http://www.w3.org/2000/svg" width="109" height="109" viewBox="0 0 109 109"><g id="kvg:StrokePaths_08a03" style="fill:none;stroke:#000000;stroke-width:3;stroke-linecap:round;stroke-linejoin:round;"><g id="kvg:08a03" kvg:element="訃"><g id="kvg:08a03-g1" kvg:element="言" kvg:position="left" kvg:radical="general"><path id="kvg:08a03-s1" kvg:type="㇔" d="M30.38 14.5c2.78 1.9 7.18 7.8 7.87 10.75"/><path id="kvg:08a03-s2" kvg:type="㇐" d="M13.87 36.08c.63.23 3.04.27 3.67.23 7.8-.42 22.97-4.67 28.64-4.87 1.05-.04 2.64.11 3.16.23"/><path id="kvg:08a03-s3" kvg:type="㇐" d="M22.23 47.06c.38.12 2.71.13 3.1.12 3.97-.14 10.3-2.56 14.21-2.55.63.0 3.29.06 3.61.12"/><path id="kvg:08a03-s4" kvg:type="㇐" d="M22.23 59.13c.43.14 3.07.15 3.5.14 4.49-.16 11.8-2.5 16.22-2.49.72.0 3.72.07 4.08.13"/><g id="kvg:08a03-g2" kvg:element="口"><path id="kvg:08a03-s5" kvg:type="㇑" d="M21.89 72.41c.38.38.82.68.95 1.17 1.09 4.36 3.48 12.52 4.58 18.92"/><path id="kvg:08a03-s6" kvg:type="㇕b" d="M23.28 73.46c9.22-1.96 15.19-3.16 21.73-4.09 1.64-.23 2.63 1.07 2.4 2.14-.98 4.4-1.83 6.95-3.56 14.27"/><path id="kvg:08a03-s7" kvg:type="㇐b" d="M28.21 89.21c5.29-.56 11.52-2.03 18.78-2.89"/></g></g><g id="kvg:08a03-g3" kvg:element="卜" kvg:original="ト" kvg:position="right"><path id="kvg:08a03-s8" kvg:type="㇑" d="M67.81 11.63c.76.45 2.36 3.35 2.51 4.25s-.1 77.15-.25 82.75"/><path id="kvg:08a03-s9" kvg:type="㇔" d="M72.25 43.25c7.76 3.35 19.95 12.28 22 19"/></g></g></g></svg>