<!DOCTYPE svg PUBLIC "-//W3C//DTD SVG 1.0//EN" "http://www.w3.org/TR/2001/REC-SVG-20010904/DTD/svg10.dtd" [
<!ATTLIST g
xmlns:kvg CDATA #FIXED "http://kanjivg.tagaini.net"
kvg:element CDATA #IMPLIED
kvg:variant CDATA #IMPLIED
kvg:partial CDATA #IMPLIED
kvg:original CDATA #IMPLIED
kvg:part CDATA #IMPLIED
kvg:number CDATA #IMPLIED
kvg:tradForm CDATA #IMPLIED
kvg:radicalForm CDATA #IMPLIED
kvg:position CDATA #IMPLIED
kvg:radical CDATA #IMPLIED
kvg:phon CDATA #IMPLIED >
<!ATTLIST path
xmlns:kvg CDATA #FIXED "http://kanjivg.tagaini.net"
kvg:type CDATA #IMPLIED >
]><svg xmlns="http://www.w3.org/2000/svg" width="109" height="109" viewBox="0 0 109 109"><g id="kvg:StrokePaths_08a0c" style="fill:none;stroke:#000000;stroke-width:3;stroke-linecap:round;stroke-linejoin:round;"><g id="kvg:08a0c" kvg:element="訌"><g id="kvg:08a0c-g1" kvg:element="言" kvg:position="left" kvg:radical="general"><path id="kvg:08a0c-s1" kvg:type="㇔" d="M21.13 15.5c3.57 1.81 9.23 7.44 10.12 10.25"/><path id="kvg:08a0c-s2" kvg:type="㇐" d="M10.37 36.08c.69.23 3.29.27 3.98.23 8.46-.42 18.41-2.17 24.56-2.37 1.14-.04 2.86.11 3.43.23"/><path id="kvg:08a0c-s3" kvg:type="㇐" d="M14.23 48.56c.38.12 2.71.13 3.1.12 3.97-.14 13.17-1.43 17.21-2.05.63-.1 3.29.06 3.61.12"/><path id="kvg:08a0c-s4" kvg:type="㇐" d="M15.23 61.33c.34.12 2.42.13 2.77.12 3.55-.13 12.75-1.45 16.81-2.09.56-.09 2.94.06 3.22.11"/><g id="kvg:08a0c-g2" kvg:element="口"><path id="kvg:08a0c-s5" kvg:type="㇑" d="M15.64 72.9c.35.36.75.65.86 1.13.99 4.21 1.75 14.54 2.75 20.71"/><path id="kvg:08a0c-s6" kvg:type="㇕b" d="M17.31 74.92c7-.97 13.02-2.24 19.48-3.22 1.62-.24 2.6 1.13 2.37 2.24-.96 4.62-1.81 7.76-3.52 15.44"/><path id="kvg:08a0c-s7" kvg:type="㇐b" d="M18.97 91.55C23.78 91 31.5 90 38.67 90.24"/></g></g><g id="kvg:08a0c-g3" kvg:element="工" kvg:position="right"><path id="kvg:08a0c-s8" kvg:type="㇐" d="M47 29.56c1.05.58 4.48.69 5.55.59 9.7-.91 29.43-2.5 37.75-3.1 1.62-.12 3.1.12 4.45.6"/><path id="kvg:08a0c-s9" kvg:type="㇑a" d="M66.2 29.25c1.61 2.01 1.61 3.22 1.61 4.83.0 11.26-.05 32.12-.05 51.42"/><path id="kvg:08a0c-s10" kvg:type="㇐" d="M42.25 86.05c.92.32 4.19.58 5.75.51 17.25-.8 29-1.8 44.25-2.28 2.5-.08 5.5.53 6.75 1.03"/></g></g></g><g id="kvg:StrokeNumbers_08a0c" style="font-size:8;fill:#808080"><text transform="matrix(1 0 0 1 14.50 15.50)">1</text><text transform="matrix(1 0 0 1 2.50 36.50)">2</text><text transform="matrix(1 0 0 1 7.50 48.50)">3</text><text transform="matrix(1 0 0 1 8.50 62.50)">4</text><text transform="matrix(1 0 0 1 8.50 78.50)">5</text><text transform="matrix(1 0 0 1 19.50 71.50)">6</text><text transform="matrix(1 0 0 1 23.50 88.50)">7</text><text transform="matrix(1 0 0 1 45.50 26.50)">8</text><text transform="matrix(1 0 0 1 60.50 38.50)">9</text><text transform="matrix(1 0 0 1 41.50 83.50)">10</text></g></svg>