<svg xmlns="http://www.w3.org/2000/svg" width="109" height="109" viewBox="0 0 109 109"><g id="kvg:StrokePaths_08a02"><g id="kvg:08a02" kvg:element="訂"><g id="kvg:08a02-g1" kvg:element="言" kvg:position="left" kvg:radical="general"><path id="kvg:08a02-s1" kvg:type="㇔" d="M24.3 13.88c2.69 1.52 6.96 6.26 7.63 8.62"/><path id="kvg:08a02-s2" kvg:type="㇐" d="M11.37 33.33c1.79.59 4.31.25 6.13.1 7.63-.61 15-1.93 22.12-2.91 1.48-.2 3.49-.39 4.97-.1"/><path id="kvg:08a02-s3" kvg:type="㇐" d="M18.18 46.81c1.25.36 2.92.27 4.2.09C27 46.25 31.86 45.42 36 44.78c1.25-.2 2.75-.49 4.01-.28"/><path id="kvg:08a02-s4" kvg:type="㇐" d="M18.8 59.08c1.3.4 3.27.14 4.59.01 4.04-.38 9.85-1.65 13.58-1.99 1.12-.1 2.49-.33 3.6-.14"/><g id="kvg:08a02-g2" kvg:element="口"><path id="kvg:08a02-s5" kvg:type="㇑" d="M17.26 70.9c.85.85 1.02 1.79 1.24 2.78.84 3.65 1.82 9.66 2.7 14.82.23 1.32.45 2.59.66 3.74"/><path id="kvg:08a02-s6" kvg:type="㇕b" d="M19.19 72.12c6.61-.82 12.59-2.11 18.67-3.02 3.52-.52 4.36.48 3.61 3.86-.82 3.69-1.67 7.79-3.16 13.75"/><path id="kvg:08a02-s7" kvg:type="㇐b" d="M22.67 89.8c4.43-.45 8.56-1.07 14.09-1.65 1.18-.12 2.41-.26 3.71-.4"/></g></g><g id="kvg:08a02-g3" kvg:element="丁" kvg:position="right" kvg:phon="丁"><g id="kvg:08a02-g4" kvg:element="一"><path id="kvg:08a02-s8" kvg:type="㇐" d="M50.25 27.55c3 .83 5.95.56 8.38.28 10.04-1.19 20.29-2.82 30.99-3.49 2.73-.17 5.21-.17 7.88.57"/></g><g id="kvg:08a02-g5" kvg:element="亅"><path id="kvg:08a02-s9" kvg:type="㇚" d="M75.66 28.55c1.14 1.15 1.55 2.58 1.55 4.52.0 14.57.03 53.85.03 58.81.0 11.24-6.88 1.61-8.13.35"/></g></g></g></g></svg>