<!DOCTYPE svg PUBLIC "-//W3C//DTD SVG 1.0//EN" "http://www.w3.org/TR/2001/REC-SVG-20010904/DTD/svg10.dtd" [
<!ATTLIST g
xmlns:kvg CDATA #FIXED "http://kanjivg.tagaini.net"
kvg:element CDATA #IMPLIED
kvg:variant CDATA #IMPLIED
kvg:partial CDATA #IMPLIED
kvg:original CDATA #IMPLIED
kvg:part CDATA #IMPLIED
kvg:number CDATA #IMPLIED
kvg:tradForm CDATA #IMPLIED
kvg:radicalForm CDATA #IMPLIED
kvg:position CDATA #IMPLIED
kvg:radical CDATA #IMPLIED
kvg:phon CDATA #IMPLIED >
<!ATTLIST path
xmlns:kvg CDATA #FIXED "http://kanjivg.tagaini.net"
kvg:type CDATA #IMPLIED >
]><svg xmlns="http://www.w3.org/2000/svg" width="109" height="109" viewBox="0 0 109 109"><g id="kvg:StrokePaths_08a16" style="fill:none;stroke:#000000;stroke-width:3;stroke-linecap:round;stroke-linejoin:round;"><g id="kvg:08a16" kvg:element="訖"><g id="kvg:08a16-g1" kvg:element="言" kvg:position="left" kvg:radical="general"><path id="kvg:08a16-s1" kvg:type="㇔" d="M22.88 15.5c3.31 1.72 8.54 7.07 9.37 9.75"/><path id="kvg:08a16-s2" kvg:type="㇐" d="M12.87 36.08c.63.23 3.04.27 3.67.23 7.8-.42 16.47-2.17 22.14-2.37 1.05-.04 2.64.11 3.16.23"/><path id="kvg:08a16-s3" kvg:type="㇐" d="M16.98 48.38c.41.11 2.95.12 3.36.11 4.31-.13 10.14-1.43 14.39-1.42.69.0 3.57.05 3.91.11"/><path id="kvg:08a16-s4" kvg:type="㇐" d="M17.23 61.47c.39.1 2.81.11 3.21.1 4.11-.12 10.81-1.84 14.86-1.83.66.0 3.41.05 3.73.1"/><g id="kvg:08a16-g2" kvg:element="口"><path id="kvg:08a16-s5" kvg:type="㇑" d="M17.64 72.9c.35.36.75.65.86 1.13.99 4.21 2.25 13.04 3.25 19.21"/><path id="kvg:08a16-s6" kvg:type="㇕b" d="M19.31 74.87c6.44-.89 12.98-1.6 18.92-2.5 1.49-.22 2.39 1.04 2.18 2.06-.89 4.25-1.66 7.22-3.24 14.28"/><path id="kvg:08a16-s7" kvg:type="㇐b" d="M22.47 91.05c4.8-.54 10.1-1.47 16.69-2.31"/></g></g><g id="kvg:08a16-g3" kvg:element="乞" kvg:position="right"><g id="kvg:08a16-g4" kvg:position="top"><path id="kvg:08a16-s8" kvg:type="㇒" d="M59.01 13c.04.7.14 2.02-.07 2.81C56.39 25.7 52.63 34.78 46 42.75"/><path id="kvg:08a16-s9" kvg:type="㇐" d="M57.25 30.32c1.34-.19 1.84-.09 3.18-.19 7.39-.57 16.87-3.33 27.41-5.25 1.89-.17 3.47-.19 4.66.0"/></g><g id="kvg:08a16-g5" kvg:element="乙" kvg:position="bottom"><path id="kvg:08a16-s10" kvg:type="㇈" d="M52.25 45.45c.65.57 2.49.94 4.62.76 5.63-.46 16.63-3.21 21.7-4.46 2.17-.54 3.21 1.06 1.82 2.86-8.14 10.58-15.64 21.64-21.21 33.05-3.9 7.98-5.29 12.62 4.86 13.75 9.71 1.08 20.43.82 26.45-.01 4.76-.66 4.27-4.58 4.11-7.25"/></g></g></g></g><g id="kvg:StrokeNumbers_08a16" style="font-size:8;fill:#808080"><text transform="matrix(1 0 0 1 15.50 15.50)">1</text><text transform="matrix(1 0 0 1 5.50 35.50)">2</text><text transform="matrix(1 0 0 1 10.50 48.50)">3</text><text transform="matrix(1 0 0 1 10.50 61.50)">4</text><text transform="matrix(1 0 0 1 11.50 79.50)">5</text><text transform="matrix(1 0 0 1 21.44 71.50)">6</text><text transform="matrix(1 0 0 1 25.19 87.50)">7</text><text transform="matrix(1 0 0 1 49.44 12.60)">8</text><text transform="matrix(1 0 0 1 61.50 27.50)">9</text><text transform="matrix(1 0 0 1 52.50 43.50)">10</text></g></svg>