<svg xmlns="http://www.w3.org/2000/svg" width="109" height="109" viewBox="0 0 109 109"><g id="kvg:StrokePaths_08a10"><g id="kvg:08a10" kvg:element="訐"><g id="kvg:08a10-g1" kvg:element="言" kvg:position="left" kvg:radical="general"><path id="kvg:08a10-s1" kvg:type="㇔" d="M21.38 15c3.48 1.72 9 7.07 9.87 9.75"/><path id="kvg:08a10-s2" kvg:type="㇐" d="M11.87 34.2c.7.26 3.34.3 4.04.26 8.59-.46 18.7-2.44 24.95-2.66 1.16-.04 2.9.12 3.48.25"/><path id="kvg:08a10-s3" kvg:type="㇐" d="M16.73 46.06c.38.12 2.71.13 3.1.12 3.97-.14 11.8-1.56 15.71-1.55.63.0 3.29.06 3.61.12"/><path id="kvg:08a10-s4" kvg:type="㇐" d="M17.23 56.79c.39.09 2.81.11 3.21.09 4.11-.11 10.31-1.21 14.36-1.2.66.0 3.41.05 3.73.09"/><g id="kvg:08a10-g2" kvg:element="口"><path id="kvg:08a10-s5" kvg:type="㇑" d="M16.64 70.77c.39.41.83.73.96 1.26 1.1 4.68 2.51 14.5 3.62 21.37"/><path id="kvg:08a10-s6" kvg:type="㇕b" d="M18.05 73.06c7.72-1.07 14.36-1.92 21.49-3 1.79-.26 2.87 1.24 2.61 2.47-1.06 5.09-1.99 7.95-3.88 16.43"/><path id="kvg:08a10-s7" kvg:type="㇐b" d="M22.02 90.94c5.34-.6 11.12-1.14 18.45-2.07"/></g></g><g id="kvg:08a10-g3" kvg:element="干" kvg:position="right"><path id="kvg:08a10-s8" kvg:type="㇐" d="M50.17 21.62c.8.43 3.56.46 4.36.38 5.54-.5 23.84-2.66 33.29-3.5 1.33-.12 4.13.37 4.79.58"/><g id="kvg:08a10-g4" kvg:element="十"><path id="kvg:08a10-s9" kvg:type="㇐" d="M44.88 51.92c1.36.33 3.87.42 5.23.33 12.84-.89 28.1-3.37 42.99-3.68 2.27-.05 3.64.16 4.78.32"/><path id="kvg:08a10-s10" kvg:type="㇑" d="M68.31 22.63c.54.51 2.29 2.12 2.29 4.83.0 5.29-.07 62.56-.18 68.92"/></g></g></g></g></svg>