<svg xmlns="http://www.w3.org/2000/svg" width="109" height="109" viewBox="0 0 109 109"><g id="kvg:StrokePaths_08a23"><g id="kvg:08a23" kvg:element="訣"><g id="kvg:08a23-g1" kvg:element="言" kvg:position="left" kvg:radical="general"><path id="kvg:08a23-s1" kvg:type="㇔" d="M20.63 14.75c3.4 1.28 8.27 6.01 9.12 8"/><path id="kvg:08a23-s2" kvg:type="㇐" d="M9.37 33.58c2.04.3 4.09.31 6.13.05 6.38-.58 13.54-1.98 18.62-2.78 1.72-.27 3.48-.24 5.22-.18"/><path id="kvg:08a23-s3" kvg:type="㇐" d="M16.23 46.06c1.42.16 2.85.17 4.27.03 3.21-.3 7.16-1.17 10.62-1.99 1.39-.39 2.81-.51 4.28-.35"/><path id="kvg:08a23-s4" kvg:type="㇐" d="M15.48 59.08c1.3.15 2.6.17 3.89.04 3.36-.29 8.29-1.29 11.64-2.08 1.3-.38 2.65-.41 4.02-.08"/><g id="kvg:08a23-g2" kvg:element="口"><path id="kvg:08a23-s5" kvg:type="㇑" d="M14.64 73.4c.85.85 1.1 1.9 1.12 2.84.62 3.21 1.17 7.76 1.79 12.24.22 1.62.46 3.23.7 4.76"/><path id="kvg:08a23-s6" kvg:type="㇕b" d="M16.56 74.62c5.91-.82 10.89-1.9 16.22-2.77 2.37-.39 3.83.87 3.33 3.27-.78 3.79-1.36 6.5-2.69 13.34"/><path id="kvg:08a23-s7" kvg:type="㇐b" d="M19.47 91.05c3.93-.32 6.83-.62 11.16-1.08 1.35-.14 2.83-.3 4.53-.48"/></g></g><g id="kvg:08a23-g3" kvg:element="夬" kvg:position="right"><path id="kvg:08a23-s8" kvg:type="㇕c" d="M46.89 35.32c2.79.8 5.62.95 8.49.43 8-.96 20.23-2.49 24.63-3.11 2.73-.39 5.28.54 4.45 4.12-1.2 5.12-2.32 12-3.57 17.88"/><g id="kvg:08a23-g4" kvg:element="大"><path id="kvg:08a23-s9" kvg:type="㇐" d="M42.38 58.03c3.09.84 6.13.58 9.38.28 12.75-1.18 26.38-2.2 37-2.71 2.96-.36 5.9-.21 8.82.47"/><g id="kvg:08a23-g5" kvg:element="人"><path id="kvg:08a23-s10" kvg:type="㇒" d="M63.84 14.5c.78 1 1.3 2.5 1.37 4.08C67.38 69.12 59.62 81.75 39.68 94"/><path id="kvg:08a23-s11" kvg:type="㇏" d="M65.5 57c5.12 10.25 11.88 20 20.38 28.61 3.87 3.92 6.62 6.89 10.88 8.99"/></g></g></g></g></g></svg>