<!DOCTYPE svg PUBLIC "-//W3C//DTD SVG 1.0//EN" "http://www.w3.org/TR/2001/REC-SVG-20010904/DTD/svg10.dtd" [
<!ATTLIST g
xmlns:kvg CDATA #FIXED "http://kanjivg.tagaini.net"
kvg:element CDATA #IMPLIED
kvg:variant CDATA #IMPLIED
kvg:partial CDATA #IMPLIED
kvg:original CDATA #IMPLIED
kvg:part CDATA #IMPLIED
kvg:number CDATA #IMPLIED
kvg:tradForm CDATA #IMPLIED
kvg:radicalForm CDATA #IMPLIED
kvg:position CDATA #IMPLIED
kvg:radical CDATA #IMPLIED
kvg:phon CDATA #IMPLIED >
<!ATTLIST path
xmlns:kvg CDATA #FIXED "http://kanjivg.tagaini.net"
kvg:type CDATA #IMPLIED >
]><svg xmlns="http://www.w3.org/2000/svg" width="109" height="109" viewBox="0 0 109 109"><g id="kvg:StrokePaths_08a31" style="fill:none;stroke:#000000;stroke-width:3;stroke-linecap:round;stroke-linejoin:round;"><g id="kvg:08a31" kvg:element="許"><g id="kvg:08a31-g1" kvg:element="言" kvg:position="left" kvg:radical="general"><path id="kvg:08a31-s1" kvg:type="㇔" d="M24.63 15.75c2.25 1.5 5.81 6.17 6.37 8.5"/><path id="kvg:08a31-s2" kvg:type="㇐" d="M11.12 34.33c1.46.54 3.5.26 5.01.15 6.84-.48 15.86-1.64 21.88-2.49 1.69-.24 3.63-.69 5.33-.32"/><path id="kvg:08a31-s3" kvg:type="㇐" d="M18.23 47.81c1.16.37 2.82.41 4.03.32 3.68-.29 8.79-1.49 12.86-2.11 1.24-.19 2.78-.5 4.02-.26"/><path id="kvg:08a31-s4" kvg:type="㇐" d="M18.73 60.58c1.15.39 2.97.38 4.15.27 3.45-.31 8.62-1.23 12.48-1.91 1.26-.22 2.91-.48 4.17-.23"/><g id="kvg:08a31-g2" kvg:element="口"><path id="kvg:08a31-s5" kvg:type="㇑" d="M17.14 73.15c.69.58 1.11 1.47 1.35 2.45.87 3.61 1.72 9.32 2.5 14.4.17 1.12.34 2.22.51 3.25"/><path id="kvg:08a31-s6" kvg:type="㇕b" d="M19.31 74.62c5.7-.79 12.12-2.02 17.58-2.92 2.7-.44 4.72-.37 4.04 2.84-.8 3.78-1.57 7.23-3 13.67"/><path id="kvg:08a31-s7" kvg:type="㇐b" d="M22.47 91.05c3.4-.38 8.16-.93 14.15-1.67.98-.12 2-.25 3.04-.38"/></g></g><g id="kvg:08a31-g3" kvg:element="午" kvg:position="right" kvg:phon="午"><g id="kvg:08a31-g4" kvg:position="top"><path id="kvg:08a31-s8" kvg:type="㇒" d="M63.49 13.14c.14.98.02 2.1-.35 3.21-2.52 7.65-8.06 20-16.53 29.93"/><g id="kvg:08a31-g5" kvg:element="干" kvg:part="1"><path id="kvg:08a31-s9" kvg:type="㇐" d="M57.79 35c.96.12 1.88.03 2.54-.04 6.29-.59 15.42-2.09 23.56-4.03 1.71-.41 3.89-.61 5.64-.27"/></g></g><g id="kvg:08a31-g6" kvg:element="干" kvg:part="2" kvg:position="bottom"><g id="kvg:08a31-g7" kvg:element="十"><path id="kvg:08a31-s10" kvg:type="㇐" d="M45 57.13c3.06.62 5.9.63 8.61.34 11.52-1.22 25.52-2.97 36.1-3.47 3.9-.19 6.22-.1 9.04.45"/><path id="kvg:08a31-s11" kvg:type="㇑" d="M70.57 36.52c1.02 1.02 1.51 2.73 1.51 4.36.0.7-.03 32.9-.08 48.25-.01 3.72-.03 6.45-.04 7.51"/></g></g></g></g></g><g id="kvg:StrokeNumbers_08a31" style="font-size:8;fill:#808080"><text transform="matrix(1 0 0 1 16.99 13.63)">1</text><text transform="matrix(1 0 0 1 3.75 36.13)">2</text><text transform="matrix(1 0 0 1 11.25 49.55)">3</text><text transform="matrix(1 0 0 1 11.25 61.48)">4</text><text transform="matrix(1 0 0 1 11.25 83.90)">5</text><text transform="matrix(1 0 0 1 21.75 72.13)">6</text><text transform="matrix(1 0 0 1 26.25 87.05)">7</text><text transform="matrix(1 0 0 1 56.25 10.63)">8</text><text transform="matrix(1 0 0 1 65.25 30.13)">9</text><text transform="matrix(1 0 0 1 45.75 54.13)">10</text><text transform="matrix(1 0 0 1 60.75 45.13)">11</text></g></svg>