<svg xmlns="http://www.w3.org/2000/svg" width="109" height="109" viewBox="0 0 109 109"><g id="kvg:StrokePaths_08a3b" style="fill:none;stroke:#000000;stroke-width:3;stroke-linecap:round;stroke-linejoin:round;"><g id="kvg:08a3b" kvg:element="註"><g id="kvg:08a3b-g1" kvg:element="言" kvg:position="left" kvg:radical="general"><path id="kvg:08a3b-s1" kvg:type="㇔" d="M23.13 15.62c2.78 1.7 7.18 6.98 7.87 9.62"/><path id="kvg:08a3b-s2" kvg:type="㇐" d="M10.37 35.08c1.91.7 4.7.19 6.64.02 6.07-.52 13.48-1.58 18.75-2.14 2.25-.24 4.32-.79 6.58-.29"/><path id="kvg:08a3b-s3" kvg:type="㇐" d="M17.73 48.56c1.24.39 3.13.16 4.41.02 3.54-.39 7.24-.84 11.49-1.67 1.41-.28 3.11-.43 4.52-.16"/><path id="kvg:08a3b-s4" kvg:type="㇐" d="M18.98 61.08c1.12.38 2.86.14 4.01.03 3.58-.35 8.95-1.32 12.56-2.01.83-.16 2.36-.06 3.22.11"/><g id="kvg:08a3b-g2" kvg:element="口"><path id="kvg:08a3b-s5" kvg:type="㇑" d="M17.64 73.9c.74.65 1.12 1.46 1.15 2.44.78 3.63 1.68 9 2.47 13.9.17 1.03.33 2.04.49 3"/><path id="kvg:08a3b-s6" kvg:type="㇕b" d="M19.31 74.87c6.43-1.25 11.49-2.38 16.83-3.25 2.68-.44 4.13.11 3.52 3.01-.79 3.74-1.31 6.69-2.74 13.08"/><path id="kvg:08a3b-s7" kvg:type="㇐b" d="M22.47 90.67c4.78-.77 7.11-.89 11.5-1.45 1.3-.16 2.69-.33 4.19-.49"/></g></g><g id="kvg:08a3b-g3" kvg:element="主" kvg:position="right"><g id="kvg:08a3b-g4" kvg:element="丶" kvg:position="top"><path id="kvg:08a3b-s8" kvg:type="㇑a/㇔" d="M67.75 15.75c1 1.26 1.25 2.39 1.25 4.67.0 2.83.0 8.96.0 10.61"/></g><g id="kvg:08a3b-g5" kvg:element="王" kvg:original="玉" kvg:partial="true" kvg:position="bottom"><path id="kvg:08a3b-s9" kvg:type="㇐" d="M49.5 34c1.83 1.01 5.31-.01 7.27-.27 9.07-1.2 18.55-2.48 28.36-3.87 2.13-.3 4.31-.35 6.38.4"/><path id="kvg:08a3b-s10" kvg:type="㇑a" d="M69.25 32.89c1.3 1.3 1.5 2.89 1.5 5.17.0 7.05.0 42.44.0 49.59"/><path id="kvg:08a3b-s11" kvg:type="㇐" d="M52.25 60.33c2.38.67 5.05.25 6.89.02 9.56-1.21 17.99-2.1 23.74-2.61 2.25-.2 4.67-.47 6.88.17"/><path id="kvg:08a3b-s12" kvg:type="㇐" d="M46.25 89.74c3.16 1.1 6.9.23 10.13-.08 11.62-1.12 24.05-2.08 34.37-2.41 2.94-.09 6.71-.66 9.5.46"/></g></g></g></g></svg>