<svg xmlns="http://www.w3.org/2000/svg" width="109" height="109" viewBox="0 0 109 109"><g id="kvg:StrokePaths_08a36" style="fill:none;stroke:#000000;stroke-width:3;stroke-linecap:round;stroke-linejoin:round;"><g id="kvg:08a36" kvg:element="訶"><g id="kvg:08a36-g1" kvg:element="言" kvg:position="left" kvg:radical="general"><path id="kvg:08a36-s1" kvg:type="㇔" d="M19.88 14.5c3.48 1.9 9 7.8 9.87 10.75"/><path id="kvg:08a36-s2" kvg:type="㇐" d="M11.12 32.68c.68.2 3.27.23 3.95.2 8.39-.37 18.26-2.33 24.37-2.51 1.13-.03 2.84.1 3.4.2"/><path id="kvg:08a36-s3" kvg:type="㇐" d="M16.23 43.56c.38.12 2.71.13 3.1.12 3.97-.14 11.42-1.18 16.21-1.55.63-.05 3.29.06 3.61.12"/><path id="kvg:08a36-s4" kvg:type="㇐" d="M15.23 56.33c.34.12 2.42.13 2.77.12 3.55-.13 14.32-2.11 17.81-2.09.57.0 2.94.06 3.22.11"/><g id="kvg:08a36-g2" kvg:element="口"><path id="kvg:08a36-s5" kvg:type="㇑" d="M16.64 68.91c.35.41.74.73.85 1.27.98 4.72 1.73 15.64 2.72 22.57"/><path id="kvg:08a36-s6" kvg:type="㇕b" d="M18.29 70.68c6.37-1 13.35-1.8 19.22-2.81 1.47-.25 2.36 1.16 2.15 2.31-.88 4.77-1.64 10.48-3.2 18.41"/><path id="kvg:08a36-s7" kvg:type="㇐b" d="M20.92 90.28c4.75-.61 10.5-.65 17.02-1.59"/></g></g><g id="kvg:08a36-g3" kvg:element="可" kvg:position="right"><g id="kvg:08a36-g4" kvg:element="丁" kvg:part="1"><g id="kvg:08a36-g5" kvg:element="一"><path id="kvg:08a36-s8" kvg:type="㇐" d="M43.72 23.28c1.47.37 4.16.46 5.63.37 8.74-.52 31.42-3.39 43.56-3.87 2.44-.1 3.91.18 5.14.36"/></g></g><g id="kvg:08a36-g6" kvg:element="口"><path id="kvg:08a36-s9" kvg:type="㇑" d="M51.33 39.84c.33.44.68.8.82 1.34 1.16 4.31 3.54 17.37 4.33 25.11"/><path id="kvg:08a36-s10" kvg:type="㇕b" d="M52.9 41.76c7.6-1.26 14.14-2.65 18.05-3.21 1.43-.21 2.2 1.21 2.08 2.44-.53 5.44-1.53 10.68-2.09 18.9"/><path id="kvg:08a36-s11" kvg:type="㇐b" d="M56.14 62.34c4.59-.64 9.92-1.33 16.23-2.32"/></g><g id="kvg:08a36-g7" kvg:element="丁" kvg:part="2"><g id="kvg:08a36-g8" kvg:element="亅"><path id="kvg:08a36-s12" kvg:type="㇚" d="M86.85 23.09c.08.46 1.6 1.38 1.68 4.28.39 13.92-.24 56.58-.24 61.32.0 10.82-5.54 4.57-9.83.24"/></g></g></g></g></g></svg>