<svg xmlns="http://www.w3.org/2000/svg" width="109" height="109" viewBox="0 0 109 109"><g id="kvg:StrokePaths_08a50" style="fill:none;stroke:#000000;stroke-width:3;stroke-linecap:round;stroke-linejoin:round;"><g id="kvg:08a50" kvg:element="詐"><g id="kvg:08a50-g1" kvg:element="言" kvg:position="left" kvg:radical="general"><path id="kvg:08a50-s1" kvg:type="㇔" d="M25.5 14.75c3.15 1.81 8.14 7.44 8.93 10.25"/><path id="kvg:08a50-s2" kvg:type="㇐" d="M11.12 36.08c1.93.63 4.52.23 6.5.08 8.25-.64 19.81-2.52 26.63-3.35 1.47-.18 3.12-.43 4.59-.14"/><path id="kvg:08a50-s3" kvg:type="㇐" d="M20.18 48.81c1.18.34 2.76.23 3.96.04 4.53-.73 8.6-1.5 12.61-2.08 1.34-.19 2.92-.5 4.26-.27"/><path id="kvg:08a50-s4" kvg:type="㇐" d="M19.8 61.83c1.19.36 2.87.16 4.1.05 3.79-.33 9.4-1.74 13.1-2.41 1.19-.21 2.64-.47 3.83-.26"/><g id="kvg:08a50-g2" kvg:element="口"><path id="kvg:08a50-s5" kvg:type="㇑" d="M17.01 75.15c.73.6.99 1.48 1.22 2.35.8 3.07 1.72 8.4 2.56 12.99.28 1.54.56 3 .82 4.26"/><path id="kvg:08a50-s6" kvg:type="㇕b" d="M18.94 76.94c8.69-1.89 13.23-2.8 18.82-3.99 3.54-.75 5.71-.98 4.62 3.3-.8 3.16-1.64 6.7-3.08 11.76"/><path id="kvg:08a50-s7" kvg:type="㇐b" d="M22.42 92.25c6.19-1.27 9.94-2.18 15.85-3.09 1.08-.17 2.22-.33 3.46-.5"/></g></g><g id="kvg:08a50-g3" kvg:element="乍" kvg:position="right" kvg:phon="乍"><g id="kvg:08a50-g4" kvg:element="丿"><path id="kvg:08a50-s8" kvg:type="㇒" d="M66 13.5c.05.83.24 2.16-.1 3.31C63.75 24.25 57.75 37.25 48.56 48"/></g><path id="kvg:08a50-s9" kvg:type="㇐" d="M62.5 31.72c2.12.28 3.89-.14 5.28-.32 9.85-1.27 14.22-2.52 21.48-4.26 2.25-.54 5-.89 6.96-.52"/><path id="kvg:08a50-s10" kvg:type="㇑" d="M70.16 34.21c.94.94 1.28 2.17 1.28 3.63.0 5.04.02 35.54.02 51.79.0 3.43-.06 5.94-.09 7"/><path id="kvg:08a50-s11" kvg:type="㇐b" d="M72.82 51.94C78 51 83.62 50.12 89.86 48.81c1.36-.29 2.89-.43 4.37-.07"/><path id="kvg:08a50-s12" kvg:type="㇐b" d="M72.49 71.69c3.49-.41 9.26-1.32 17.78-2.67 1.61-.26 3.35-.41 4.97-.04"/></g></g></g></svg>