<svg xmlns="http://www.w3.org/2000/svg" width="109" height="109" viewBox="0 0 109 109"><g id="kvg:StrokePaths_08a54"><g id="kvg:08a54" kvg:element="詔"><g id="kvg:08a54-g1" kvg:element="言" kvg:position="left" kvg:radical="general"><path id="kvg:08a54-s1" kvg:type="㇔" d="M23.62 14.5c3.29 1.77 8.49 7.25 9.31 10"/><path id="kvg:08a54-s2" kvg:type="㇐" d="M11.62 34.33c1.67.55 3.92.61 5.63.39 7.5-.97 17.07-2.52 22.31-3.28 1.17-.17 2.95-.14 3.54-.02"/><path id="kvg:08a54-s3" kvg:type="㇐" d="M19.68 46.81c1.14.34 2.68.23 3.83.01 4.37-.83 8.32-1.45 11.24-2.05 1.31-.27 2.93-.52 4.26-.28"/><path id="kvg:08a54-s4" kvg:type="㇐" d="M19.8 58.83c1.08.33 2.71.22 3.84.08 4.24-.54 8.7-1.19 11.27-1.69 1.23-.24 2.69-.48 3.93-.25"/><g id="kvg:08a54-g2" kvg:element="口"><path id="kvg:08a54-s5" kvg:type="㇑" d="M16.51 73.65c.85.85 1.37 2.19 1.61 3.32.71 3.31 1.42 8.14 2.32 12.99.34 1.82.65 3.55.92 5.03"/><path id="kvg:08a54-s6" kvg:type="㇕b" d="M18.69 74.62c7.88-1.52 11.82-2.36 17.09-3.15 3.15-.47 5.39-.48 4.52 3.32-.85 3.75-1.71 7.5-3.25 13.67"/><path id="kvg:08a54-s7" kvg:type="㇐b" d="M21.92 91.3c4.43-.45 7.81-.82 13.35-1.4 1.18-.12 2.41-.01 3.71-.15"/></g></g><g id="kvg:08a54-g3" kvg:element="召" kvg:position="right" kvg:phon="召"><g id="kvg:08a54-g4" kvg:element="刀" kvg:position="top"><path id="kvg:08a54-s8" kvg:type="㇆" d="M51.56 25.55c2.69.7 5.81.55 7.82.3 9.42-1.16 23.19-3.3 27.72-3.63 3.36-.25 5.06 1.15 4.5 4.72-.9 5.69-4.81 18.65-9.88 26.18-4.35 6.48-7.08-.88-7.83-1.76"/><path id="kvg:08a54-s9" kvg:type="㇒" d="M69.04 28.11c.06.72.0 1.64-.38 2.66C65.5 39.5 60.21 50.41 47.6 59.65"/></g><g id="kvg:08a54-g5" kvg:element="口" kvg:position="bottom"><path id="kvg:08a54-s10" kvg:type="㇑" d="M51.64 67.44c.93.99 1.09 1.78 1.36 3.04.9 4.16 1.94 12.16 2.63 18.3.21 1.87.4 3.58.58 4.97"/><path id="kvg:08a54-s11" kvg:type="㇕b" d="M53.87 68.73c8.28-1.25 24.22-3.15 30.9-3.46 3.11-.14 4.98 1.48 4.14 4.8-1.11 4.39-2.91 9.68-4.75 16.54"/><path id="kvg:08a54-s12" kvg:type="㇐b" d="M56.87 89.41c5.41-.27 16.57-.99 25.63-1.51 1.65-.09 3.23-.17 4.69-.23"/></g></g></g></g></svg>