<svg xmlns="http://www.w3.org/2000/svg" width="109" height="109" viewBox="0 0 109 109"><g id="kvg:StrokePaths_08a6c" style="fill:none;stroke:#000000;stroke-width:3;stroke-linecap:round;stroke-linejoin:round;"><g id="kvg:08a6c" kvg:element="詬"><g id="kvg:08a6c-g1" kvg:element="言" kvg:position="left" kvg:radical="general"><path id="kvg:08a6c-s1" kvg:type="㇔" d="M22.05 15.25c3.58 2.12 9.23 8.71 10.13 12"/><path id="kvg:08a6c-s2" kvg:type="㇐" d="M10.87 36.48c.74.19 3.53.22 4.27.19 9.07-.34 18.18-2.17 24.78-2.33 1.23-.03 3.07.09 3.68.19"/><path id="kvg:08a6c-s3" kvg:type="㇐" d="M17.18 48.56c.43.12 3.04.13 3.47.12 4.44-.14 10.86-1.43 15.34-2.05.7-.1 3.68.06 4.04.12"/><path id="kvg:08a6c-s4" kvg:type="㇐" d="M16.3 60.83c.38.12 2.71.13 3.1.12 3.97-.13 13.43-2.11 17.33-2.09.63.0 3.29.06 3.6.11"/><g id="kvg:08a6c-g2" kvg:element="口"><path id="kvg:08a6c-s5" kvg:type="㇑" d="M15.76 74.9c.41.35.88 1.1 1.01 1.56 1.17 4.02 3.17 13.89 4.34 19.79"/><path id="kvg:08a6c-s6" kvg:type="㇕b" d="M16.94 76.37c7.2-.89 14.9-2.1 21.55-3 1.67-.22 2.68 1.04 2.44 2.06-.99 4.25-1.86 8.22-3.62 15.28"/><path id="kvg:08a6c-s7" kvg:type="㇐b" d="M20.92 93.05c5.37-.54 10.68-.97 18.06-1.81"/></g></g><g id="kvg:08a6c-g3" kvg:element="后" kvg:position="right"><g id="kvg:08a6c-g4" kvg:position="kamae"><g id="kvg:08a6c-g5" kvg:element="厂" kvg:variant="true"><g id="kvg:08a6c-g6" kvg:element="丿"><path id="kvg:08a6c-s8" kvg:type="㇒" d="M84.34 13.89c.08.4.17 1.04-.17 1.62-2.01 3.41-13.54 10.88-29.33 15.46"/></g><path id="kvg:08a6c-s9" kvg:type="㇒" d="M51.44 30.25c.45.64.9 1.48.9 2.54.0 36.51-2.96 53.14-11.34 62.46"/></g><path id="kvg:08a6c-s10" kvg:type="㇐" d="M54.06 43.84c1.69.16 3.11.06 4.21-.08 8.98-1.15 22.36-2.9 34.4-3.73 1.82-.13 2.92.2 3.84.41"/></g><g id="kvg:08a6c-g7" kvg:element="口"><path id="kvg:08a6c-s11" kvg:type="㇑" d="M56.94 66.85c.47.48 1.06 1.89 1.16 2.52 1.15 6.88 2.58 16.98 3.7 25.59"/><path id="kvg:08a6c-s12" kvg:type="㇕b" d="M58.25 68.71c10.5-1.71 26-3.71 31.16-4.19 2.08-.19 3.54 1.93 3.32 3.35-.94 5.87-2.52 13.93-4.53 22.4"/><path id="kvg:08a6c-s13" kvg:type="㇐b" d="M61.73 92.88c7.02-.63 22.52-2.13 29.92-2.38"/></g></g></g></g></svg>