<svg xmlns="http://www.w3.org/2000/svg" width="109" height="109" viewBox="0 0 109 109"><g id="kvg:StrokePaths_08a6b" style="fill:none;stroke:#000000;stroke-width:3;stroke-linecap:round;stroke-linejoin:round;"><g id="kvg:08a6b" kvg:element="詫"><g id="kvg:08a6b-g1" kvg:element="言" kvg:position="left" kvg:radical="general"><path id="kvg:08a6b-s1" kvg:type="㇔" d="M22.38 14c2.43 1.37 6.27 5.62 6.87 7.75"/><path id="kvg:08a6b-s2" kvg:type="㇐" d="M10.87 32.58c.63.23 3.04.27 3.67.23 7.8-.42 16.97-3.17 22.64-3.37 1.05-.04 2.64.11 3.16.23"/><path id="kvg:08a6b-s3" kvg:type="㇐" d="M16.73 45.56c.38.12 2.71.13 3.1.12 3.97-.14 9.8-2.06 13.71-2.05.63.0 3.29.06 3.61.12"/><path id="kvg:08a6b-s4" kvg:type="㇐" d="M17.73 57.83c.34.12 2.42.13 2.77.12 3.55-.13 9.32-2.11 12.81-2.09.57.0 2.94.06 3.22.11"/><g id="kvg:08a6b-g2" kvg:element="口"><path id="kvg:08a6b-s5" kvg:type="㇑" d="M16.14 69.4c.35.36.75.65.86 1.13.99 4.21 2.25 13.04 3.25 19.21"/><path id="kvg:08a6b-s6" kvg:type="㇕b" d="M17.81 71.87c6.44-.89 11.98-2.1 17.92-3 1.49-.22 2.39 1.04 2.18 2.06-.89 4.25-1.16 6.72-2.74 13.78"/><path id="kvg:08a6b-s7" kvg:type="㇐b" d="M20.97 87.55c4.8-.54 9.1-1.47 15.69-2.31"/></g></g><g id="kvg:08a6b-g3" kvg:element="宅" kvg:position="right"><g id="kvg:08a6b-g4" kvg:element="宀" kvg:position="top"><path id="kvg:08a6b-s8" kvg:type="㇑a" d="M66.62 12.5c.82.37 1.99 2.21 1.97 3.29-.06 3.4-.06 6.22-.06 9.31"/><g id="kvg:08a6b-g5" kvg:element="冖"><path id="kvg:08a6b-s9" kvg:type="㇔" d="M47.52 26.11c0 3.31-2.19 12.4-3.19 14.61"/><path id="kvg:08a6b-s10" kvg:type="㇖b" d="M48.07 28.05c5.97-.19 37.09-3.76 41.89-3.76 8.75.0.94 6.24-.93 8.08"/></g></g><g id="kvg:08a6b-g6" kvg:element="乇" kvg:position="bottom"><g id="kvg:08a6b-g7" kvg:element="丿"><path id="kvg:08a6b-s11" kvg:type="㇒" d="M78.56 31.56c.08.46-.16 2.49-.61 3.01-5.62 6.44-13.48 11.19-28.14 16.39"/></g><g id="kvg:08a6b-g8" kvg:element="七"><g id="kvg:08a6b-g9" kvg:element="一"><path id="kvg:08a6b-s12" kvg:type="㇐" d="M44.13 64.88c1.06.38 3.01.56 4.06.38 10.4-1.73 34.21-6.32 44.23-7.46 1.75-.2 2.82-.2 3.7-.01"/></g><path id="kvg:08a6b-s13" kvg:type="㇟" d="M64.34 47.88c.54.95 1.27 2.99 1.27 4.28.0 4.02-.27 25.22-.27 29.17.0 10.49 2 11.91 15.49 11.91 10.92.0 12.49-3.01 12.49-9.75"/></g></g></g></g></g></svg>