<svg xmlns="http://www.w3.org/2000/svg" width="109" height="109" viewBox="0 0 109 109"><g id="kvg:StrokePaths_08a6d"><g id="kvg:08a6d" kvg:element="詭"><g id="kvg:08a6d-g1" kvg:element="言" kvg:position="left" kvg:radical="general"><path id="kvg:08a6d-s1" kvg:type="㇔" d="M22.55 16.25c3.05 1.68 7.87 6.89 8.63 9.5"/><path id="kvg:08a6d-s2" kvg:type="㇐" d="M10.62 34.58c.71.23 3.4.27 4.1.23 8.73-.42 17.48-2.67 23.83-2.87 1.18-.04 2.95.11 3.54.23"/><path id="kvg:08a6d-s3" kvg:type="㇐" d="M16.68 47.06c.43.12 3.04.13 3.47.12 4.44-.14 8.86-1.93 13.34-2.55.7-.1 3.68.06 4.03.12"/><path id="kvg:08a6d-s4" kvg:type="㇐" d="M16.3 58.83c.38.12 2.71.13 3.1.12 3.97-.13 10.93-2.11 14.83-2.09.63.0 3.29.06 3.6.11"/><g id="kvg:08a6d-g2" kvg:element="口"><path id="kvg:08a6d-s5" kvg:type="㇑" d="M15.51 71.4c.39.36.83 1.15.96 1.63 1.11 4.21 3.02 14.54 4.14 20.71"/><path id="kvg:08a6d-s6" kvg:type="㇕b" d="M16.94 73.37c7.2-.89 14.4-2.6 21.05-3.5 1.67-.22 2.68 1.04 2.44 2.06-.99 4.25-1.36 8.22-3.12 15.28"/><path id="kvg:08a6d-s7" kvg:type="㇐b" d="M20.92 90.05c5.37-.54 10.68-.97 18.06-1.81"/></g></g><g id="kvg:08a6d-g3" kvg:element="危" kvg:position="right"><g id="kvg:08a6d-g4" kvg:element="𠂊" kvg:variant="true" kvg:original="勹" kvg:position="top"><path id="kvg:08a6d-s8" kvg:type="㇒" d="M63.35 11.25c.05.56.11 1.46-.1 2.27-1.22 4.78-9.37 15.96-18.23 22.73"/><path id="kvg:08a6d-s9" kvg:type="㇇" d="M60.17 19.88c1.93.0 17.66-2.87 19.68-3.15 1.74-.24 2.63 2.07 1.91 3.26-3.05 5-6.51 10-11.18 17.25"/></g><g id="kvg:08a6d-g5" kvg:element="厄" kvg:position="bottom"><g id="kvg:08a6d-g6" kvg:element="厂" kvg:position="tare"><path id="kvg:08a6d-s10" kvg:type="㇐" d="M50.08 38.9c1.08.54 3.06.63 4.15.54 14.86-1.29 22.32-3.08 38.21-4.35 1.81-.14 2.88.26 3.79.53"/><path id="kvg:08a6d-s11" kvg:type="㇒" d="M53.79 40.17c.04 1.26.08 2.72-.08 4.53-.94 10.67-2.26 36.87-13.16 48.05"/></g><g id="kvg:08a6d-g7" kvg:element="卩" kvg:position="tarec"><path id="kvg:08a6d-s12" kvg:type="㇆" d="M60.98 54.53c.67.12 2.02.57 3.37.33 4.68-.84 17.03-3.08 18.69-3.45 2.72-.61 4.49 1.07 4.38 3.51-.18 4.15-1.93 12.32-4.82 19.4-2.05 5.03-4.93.58-5.44.35"/><path id="kvg:08a6d-s13" kvg:type="㇟/㇑" d="M63.95 55.3c.63 1.44.62 3.15.65 5.38.17 9.96.18 12.73.18 19.5.0 12.56 1.96 14.02 14.91 14.02 13.05.0 15.94-1.96 15.94-11.1"/></g></g></g></g></g></svg>