<svg xmlns="http://www.w3.org/2000/svg" width="109" height="109" viewBox="0 0 109 109"><g id="kvg:StrokePaths_08a66" style="fill:none;stroke:#000000;stroke-width:3;stroke-linecap:round;stroke-linejoin:round;"><g id="kvg:08a66" kvg:element="試"><g id="kvg:08a66-g1" kvg:element="言" kvg:position="left" kvg:radical="general"><path id="kvg:08a66-s1" kvg:type="㇔" d="M24.39 16.66c2.54 1.57 6.56 6.58 7.21 9.13"/><path id="kvg:08a66-s2" kvg:type="㇐" d="M10.97 36.12c1.65.3 3.24.44 4.91.23 6.51-.81 14.73-2.18 20.52-3.1 1.41-.23 3.02-.71 4.45-.34"/><path id="kvg:08a66-s3" kvg:type="㇐" d="M19.31 47.8c.98.28 2.32.3 3.33.2 3.52-.34 9.11-1.39 12.38-2.02 1.36-.26 2.83-.44 4.21-.22"/><path id="kvg:08a66-s4" kvg:type="㇐" d="M19.1 60.68c1.18.37 2.82.26 3.99.03 3.91-.75 9.22-2.1 12.29-2.81 1.17-.27 2.33-.47 3.54-.26"/><g id="kvg:08a66-g2" kvg:element="口"><path id="kvg:08a66-s5" kvg:type="㇑" d="M17.75 73c1.19 1.19 1.47 1.92 1.92 3.45.96 3.33 1.78 7.59 2.65 11.79.29 1.4.58 2.79.89 4.13"/><path id="kvg:08a66-s6" kvg:type="㇕b" d="M20.22 74.61c5.89-1.08 11.48-2.4 16.9-3.52 2.71-.56 3.8.59 3.23 3.28-.77 3.66-1.77 5.34-3.16 12.14"/><path id="kvg:08a66-s7" kvg:type="㇐b" d="M23.88 89.12c4.09-.39 7.07-.95 12.11-1.53 1.01-.12 2.06-.23 3.19-.35"/></g></g><g id="kvg:08a66-g3" kvg:element="式" kvg:position="right" kvg:phon="式"><g id="kvg:08a66-g4" kvg:element="弋" kvg:part="1"><path id="kvg:08a66-s8" kvg:type="㇐" d="M45.25 37.94c2.1.31 5.01.18 6.29.04C60.36 37 75 34.38 87.68 33.3c2.12-.18 3.4.26 4.47.53"/></g><g id="kvg:08a66-g5" kvg:element="工"><path id="kvg:08a66-s9" kvg:type="㇐" d="M46.87 55.38c.63.33 2.7.42 3.35.33 5.28-.72 11.16-2.09 15.55-2.48.98-.09 2.15.07 2.96.34"/><path id="kvg:08a66-s10" kvg:type="㇑a" d="M57.55 57.37c.73.73 1.02 2.06 1.02 3.09.0 3.41-.09 11.41-.09 15.56"/><path id="kvg:08a66-s11" kvg:type="㇀/㇐" d="M46.38 81.61c1.28.88 2.77.74 3.74.22C56.32 78.5 62.24 75 70.62 70.5"/></g><g id="kvg:08a66-g6" kvg:element="弋" kvg:part="2"><path id="kvg:08a66-s12" kvg:type="㇂" d="M69.04 12.25c1.5 1.73 2.19 3.75 2.44 6.7 2.64 31.3 8.14 55.55 22.1 74.07 3.06 4.06 4.42 2.73 4.07-9.19"/><g id="kvg:08a66-g7" kvg:element="丶"><path id="kvg:08a66-s13" kvg:type="㇔" d="M79.25 13c2.74 1.73 6.74 5.69 8.02 8.66"/></g></g></g></g></g></svg>