<!DOCTYPE svg PUBLIC "-//W3C//DTD SVG 1.0//EN" "http://www.w3.org/TR/2001/REC-SVG-20010904/DTD/svg10.dtd" [
<!ATTLIST g
xmlns:kvg CDATA #FIXED "http://kanjivg.tagaini.net"
kvg:element CDATA #IMPLIED
kvg:variant CDATA #IMPLIED
kvg:partial CDATA #IMPLIED
kvg:original CDATA #IMPLIED
kvg:part CDATA #IMPLIED
kvg:number CDATA #IMPLIED
kvg:tradForm CDATA #IMPLIED
kvg:radicalForm CDATA #IMPLIED
kvg:position CDATA #IMPLIED
kvg:radical CDATA #IMPLIED
kvg:phon CDATA #IMPLIED >
<!ATTLIST path
xmlns:kvg CDATA #FIXED "http://kanjivg.tagaini.net"
kvg:type CDATA #IMPLIED >
]><svg xmlns="http://www.w3.org/2000/svg" width="109" height="109" viewBox="0 0 109 109"><g id="kvg:StrokePaths_08a69" style="fill:none;stroke:#000000;stroke-width:3;stroke-linecap:round;stroke-linejoin:round;"><g id="kvg:08a69" kvg:element="詩"><g id="kvg:08a69-g1" kvg:element="言" kvg:position="left" kvg:radical="general"><path id="kvg:08a69-s1" kvg:type="㇔" d="M25.55 12.25c3.05 1.7 7.87 6.97 8.63 9.61"/><path id="kvg:08a69-s2" kvg:type="㇐" d="M11.12 31.08c1.73.58 4.12.26 5.89.12 7.71-.57 18.03-2.39 24.38-2.92 1.87-.16 3.84-.27 5.7.1"/><path id="kvg:08a69-s3" kvg:type="㇐" d="M18.18 43.23c1.22.35 2.82.15 4.08.08 4.04-.23 9.71-1.16 13.78-1.84 1.34-.22 2.63-.31 3.98-.08"/><path id="kvg:08a69-s4" kvg:type="㇐" d="M18.3 56.17c1.45.33 2.95.14 4.23.0 3.41-.38 10.84-1.5 14.73-2.1 1.26-.19 2.8-.26 4.07-.04"/><g id="kvg:08a69-g2" kvg:element="口"><path id="kvg:08a69-s5" kvg:type="㇑" d="M17.26 68.88c.86.86 1.25 1.74 1.46 2.65.96 4.12 1.55 9.38 2.21 14.83.14 1.12.28 2.25.43 3.38"/><path id="kvg:08a69-s6" kvg:type="㇕b" d="M19.44 70.88c7.6-1.31 12.34-2.26 18.43-3.13 2.44-.35 3.93.37 3.31 2.98-.9 3.78-1.76 6.84-3.38 13.41"/><path id="kvg:08a69-s7" kvg:type="㇐b" d="M22.42 86.52c4.47-.46 8.31-.94 14.22-1.35 1.19-.08 2.46-.16 3.84-.24"/></g></g><g id="kvg:08a69-g3" kvg:element="寺" kvg:position="right" kvg:phon="寺"><g id="kvg:08a69-g4" kvg:element="土"><path id="kvg:08a69-s8" kvg:type="㇐" d="M54.58 27.78c1.92.35 4.28.32 6.17.09 6.66-.84 20.38-2.32 26.25-2.7 1.71-.11 4.25-.29 6.08.17"/><path id="kvg:08a69-s9" kvg:type="㇑a" d="M71.2 10.62c1.03 1.03 1.54 2.26 1.61 3.75.35 7.25.27 25.38.27 27.85"/><path id="kvg:08a69-s10" kvg:type="㇐" d="M47.63 44.6c2.5.53 4.85.39 7.11.2 9.14-.8 26.42-2.97 35.89-3.57 2.35-.15 5.37-.34 8 .25"/></g><g id="kvg:08a69-g5" kvg:element="寸"><path id="kvg:08a69-s11" kvg:type="㇐" d="M49.57 59.74c2.43.64 5.78.34 8.18.05 10.75-1.29 22.62-2.67 33.99-3.68 2.28-.2 4.5-.11 6.63.14"/><path id="kvg:08a69-s12" kvg:type="㇚" d="M82.06 44.58c1.12 1.12 1.72 2.79 1.72 4.56.0 12.03.16 40.93.16 45.02.0 8.33-4.99 2.22-7.49-.29"/><path id="kvg:08a69-s13" kvg:type="㇔" d="M59.88 68.25c2.89 1.9 7.46 7.8 8.18 10.75"/></g></g></g></g><g id="kvg:StrokeNumbers_08a69" style="font-size:8;fill:#808080"><text transform="matrix(1 0 0 1 19.50 14.50)">1</text><text transform="matrix(1 0 0 1 3.50 32.50)">2</text><text transform="matrix(1 0 0 1 11.25 45.13)">3</text><text transform="matrix(1 0 0 1 11.25 58.63)">4</text><text transform="matrix(1 0 0 1 11.50 77.50)">5</text><text transform="matrix(1 0 0 1 21.75 67.63)">6</text><text transform="matrix(1 0 0 1 25.50 83.50)">7</text><text transform="matrix(1 0 0 1 54.75 25.50)">8</text><text transform="matrix(1 0 0 1 61.50 11.50)">9</text><text transform="matrix(1 0 0 1 46.50 41.50)">10</text><text transform="matrix(1 0 0 1 47.50 57.19)">11</text><text transform="matrix(1 0 0 1 72.50 52.50)">12</text><text transform="matrix(1 0 0 1 49.50 71.50)">13</text></g></svg>