<svg xmlns="http://www.w3.org/2000/svg" width="109" height="109" viewBox="0 0 109 109"><g id="kvg:StrokePaths_08a6e" style="fill:none;stroke:#000000;stroke-width:3;stroke-linecap:round;stroke-linejoin:round;"><g id="kvg:08a6e" kvg:element="詮"><g id="kvg:08a6e-g1" kvg:element="言" kvg:position="left" kvg:radical="general"><path id="kvg:08a6e-s1" kvg:type="㇔" d="M24.38 15.75c2.25 1.5 5.81 6.17 6.37 8.5"/><path id="kvg:08a6e-s2" kvg:type="㇐" d="M11.37 34.08c.63.23 3.04.27 3.67.23 7.8-.42 17.97-2.67 23.64-2.87 1.05-.04 2.64.11 3.16.23"/><path id="kvg:08a6e-s3" kvg:type="㇐" d="M17.73 47.06c.38.12 2.71.13 3.1.12 3.97-.14 9.8-1.56 13.71-1.55.63.0 3.29.06 3.61.12"/><path id="kvg:08a6e-s4" kvg:type="㇐" d="M18.73 60.33c.34.12 2.42.13 2.77.12 3.55-.13 9.32-2.11 12.81-2.09.57.0 2.94.06 3.22.11"/><g id="kvg:08a6e-g2" kvg:element="口"><path id="kvg:08a6e-s5" kvg:type="㇑" d="M17.14 72.4c.35.36.75.65.86 1.13.99 4.21 2.25 13.04 3.25 19.21"/><path id="kvg:08a6e-s6" kvg:type="㇕b" d="M18.31 73.87c6.44-.89 13.48-2.1 19.42-3 1.49-.22 2.39 1.04 2.18 2.06-.89 4.25-1.66 8.22-3.24 15.28"/><path id="kvg:08a6e-s7" kvg:type="㇐b" d="M21.47 90.05c4.8-.54 10.6-.97 17.19-1.81"/></g></g><g id="kvg:08a6e-g3" kvg:element="全" kvg:position="right"><g id="kvg:08a6e-g4" kvg:element="人" kvg:position="top"><path id="kvg:08a6e-s8" kvg:type="㇒" d="M66.5 20.25c.07.75.26 1.97-.14 3.01C63.9 29.7 55.47 43.38 42 52.02"/><path id="kvg:08a6e-s9" kvg:type="㇏" d="M60.25 13.25c1.98.66 3.36 1.61 4.09 2.37 7.21 7.53 21.22 24.22 25.91 28.3 1.75 1.52 4 2.18 5.75 2.61"/></g><g id="kvg:08a6e-g5" kvg:element="王" kvg:original="玉" kvg:partial="true" kvg:position="bottom"><path id="kvg:08a6e-s10" kvg:type="㇐" d="M51.22 49.91c.69.5 2.94.18 3.64.03 3.25-.68 17.2-2.05 25.02-2.57 1.07-.07 2.03.1 2.91.52"/><path id="kvg:08a6e-s11" kvg:type="㇑a" d="M66.74 51.42c.74 1.24.74 1.98.74 2.97.0 6.92.37 28.52.19 35.44"/><path id="kvg:08a6e-s12" kvg:type="㇐" d="M51.27 69.5c.75.48 3.24.29 4.02.21 8.03-.84 15.68-1.59 25.11-2.46.94-.09 3.01-.2 4.42.23"/><path id="kvg:08a6e-s13" kvg:type="㇐" d="M45.19 91.52c.62.27 3.82.05 4.87.0 12.68-.53 25.06-2.31 40.7-2.97 1.68-.07 3.7.45 4.54.87"/></g></g></g></g></svg>