<svg xmlns="http://www.w3.org/2000/svg" width="109" height="109" viewBox="0 0 109 109"><g id="kvg:StrokePaths_08a91"><g id="kvg:08a91" kvg:element="誑"><g id="kvg:08a91-g1" kvg:element="言" kvg:position="left" kvg:radical="general"><path id="kvg:08a91-s1" kvg:type="㇔" d="M18.8 13c3.49 2.16 9.01 8.89 9.88 12.25"/><path id="kvg:08a91-s2" kvg:type="㇐" d="M9.12 35.08c.71.23 3.4.27 4.1.23 8.73-.42 17.48-2.67 23.83-2.87 1.18-.04 2.95.11 3.54.23"/><path id="kvg:08a91-s3" kvg:type="㇐" d="M13.68 47.56c.43.12 3.04.13 3.47.12 4.44-.14 11.86-1.43 16.34-2.05.7-.1 3.68.06 4.04.12"/><path id="kvg:08a91-s4" kvg:type="㇐" d="M14.8 59.33c.38.12 2.71.13 3.1.12 3.97-.13 11.93-2.11 15.83-2.09.63.0 3.29.06 3.6.11"/><g id="kvg:08a91-g2" kvg:element="口"><path id="kvg:08a91-s5" kvg:type="㇑" d="M15.01 71.9c.39.36.83 1.15.96 1.63 1.11 4.21 2.02 15.54 3.14 21.71"/><path id="kvg:08a91-s6" kvg:type="㇕b" d="M16.44 73.37c7.2-.89 11.9-2.1 18.55-3 1.67-.22 2.68 1.04 2.44 2.06-.99 4.25-1.36 10.22-3.12 17.28"/><path id="kvg:08a91-s7" kvg:type="㇐b" d="M18.92 92.05c5.37-.54 10.18-.97 17.56-1.81"/></g></g><g id="kvg:08a91-g3" kvg:element="狂" kvg:position="right"><g id="kvg:08a91-g4" kvg:element="⺨" kvg:variant="true" kvg:original="犬" kvg:position="left"><path id="kvg:08a91-s8" kvg:type="㇒" d="M60.39 13.5c.05.69.23 2.02-.1 2.77-4.19 9.51-8.45 16.24-18.63 26.52"/><path id="kvg:08a91-s9" kvg:type="㇁" d="M42.8 18c24.7 21.25 16.95 89 3.04 69.38"/><path id="kvg:08a91-s10" kvg:type="㇒" d="M53.63 44.5c.03.64.15 1.89-.06 2.58-2.71 8.86-5.47 15.13-12.06 24.71"/></g><g id="kvg:08a91-g5" kvg:element="王" kvg:original="玉" kvg:partial="true" kvg:position="right"><path id="kvg:08a91-s11" kvg:type="㇐" d="M62.75 24.98c.75.39 3.17.53 3.94.52 6.06.0 16.81-1.75 25.3-2.86 1.14-.15 2.2.08 3.15.41"/><path id="kvg:08a91-s12" kvg:type="㇑a" d="M76.66 25c1.27 2.4 1.27 3.83 1.27 5.75.0 13.41-.01 36.75-.01 58.25"/><path id="kvg:08a91-s13" kvg:type="㇐" d="M63.45 55.65c.55.37 2.88.67 3.45.66 6.81-.07 15.6-2.07 22.79-3.1.69-.1 2.21-.15 3.25.17"/><path id="kvg:08a91-s14" kvg:type="㇐" d="M60.02 90.71c1.29.36 2.93.4 3.74.38 8.42-.21 19.51-2.11 31.51-2.62 1.29-.05 2.84.34 3.48.67"/></g></g></g></g></svg>