<!DOCTYPE svg PUBLIC "-//W3C//DTD SVG 1.0//EN" "http://www.w3.org/TR/2001/REC-SVG-20010904/DTD/svg10.dtd" [
<!ATTLIST g
xmlns:kvg CDATA #FIXED "http://kanjivg.tagaini.net"
kvg:element CDATA #IMPLIED
kvg:variant CDATA #IMPLIED
kvg:partial CDATA #IMPLIED
kvg:original CDATA #IMPLIED
kvg:part CDATA #IMPLIED
kvg:number CDATA #IMPLIED
kvg:tradForm CDATA #IMPLIED
kvg:radicalForm CDATA #IMPLIED
kvg:position CDATA #IMPLIED
kvg:radical CDATA #IMPLIED
kvg:phon CDATA #IMPLIED >
<!ATTLIST path
xmlns:kvg CDATA #FIXED "http://kanjivg.tagaini.net"
kvg:type CDATA #IMPLIED >
]><svg xmlns="http://www.w3.org/2000/svg" width="109" height="109" viewBox="0 0 109 109"><g id="kvg:StrokePaths_08a9a" style="fill:none;stroke:#000000;stroke-width:3;stroke-linecap:round;stroke-linejoin:round;"><g id="kvg:08a9a" kvg:element="誚"><g id="kvg:08a9a-g1" kvg:element="言" kvg:position="left" kvg:radical="general"><path id="kvg:08a9a-s1" kvg:type="㇔" d="M20.8 16.25c3.84 1.85 9.92 7.62 10.88 10.5"/><path id="kvg:08a9a-s2" kvg:type="㇐" d="M9.12 37.16c.75.27 3.61.31 4.36.27 9.28-.49 18.6-3.12 25.35-3.36 1.26-.04 3.14.13 3.76.27"/><path id="kvg:08a9a-s3" kvg:type="㇐" d="M16.68 49.06c.43.12 3.04.13 3.47.12 4.44-.14 10.36-1.43 14.84-2.05.7-.1 3.68.06 4.04.12"/><path id="kvg:08a9a-s4" kvg:type="㇐" d="M15.8 61.33c.38.12 2.71.13 3.1.12 3.97-.13 12.36-1.95 16.83-2.59.63-.09 3.29.06 3.6.11"/><g id="kvg:08a9a-g2" kvg:element="口"><path id="kvg:08a9a-s5" kvg:type="㇑" d="M16.01 75.9c.39.36 1.33 1.65 1.46 2.13 1.11 4.21 2.52 13.54 3.64 19.71"/><path id="kvg:08a9a-s6" kvg:type="㇕b" d="M17.44 77.37c9.06-1.62 14.4-3.1 21.05-4 1.67-.22 2.68 1.04 2.44 2.06-.99 4.25-1.86 9.22-3.62 16.28"/><path id="kvg:08a9a-s7" kvg:type="㇐b" d="M21.42 94.55C26.8 94 33.1 93.57 40.48 92.74"/></g></g><g id="kvg:08a9a-g3" kvg:element="肖" kvg:variant="true" kvg:position="right"><g id="kvg:08a9a-g4" kvg:element="⺌" kvg:variant="true" kvg:original="小" kvg:position="top"><path id="kvg:08a9a-s8" kvg:type="㇑" d="M69.49 13c.12.36 1.67 1.85 1.67 4.11.0 7.73.09 19.9.09 23.59"/><path id="kvg:08a9a-s9" kvg:type="㇒" d="M59.69 19.32c.05.58.12 1.5-.12 2.33-1.39 4.93-8.1 12.67-15.68 18.1"/><path id="kvg:08a9a-s10" kvg:type="㇔" d="M79.81 20.1c6.6 3.22 14.92 11 16.57 16.02"/></g><g id="kvg:08a9a-g5" kvg:element="月" kvg:position="bottom"><path id="kvg:08a9a-s11" kvg:type="㇑" d="M53.86 41.38c.66.89 1.1 1.78 1.32 2.67s.31 49.59.22 51.59"/><path id="kvg:08a9a-s12" kvg:type="㇆a" d="M54.99 42.77c5.76-.77 27.88-3.03 29.84-3.28 3.52-.44 4.39 2.82 4.39 4.22.0 9.59-.16 26.25-.16 44.27.0 10.8-5.93 2.48-7.91.92"/><path id="kvg:08a9a-s13" kvg:type="㇐a" d="M56.49 57.55c9.01-1.33 23.72-2 31.63-2.67"/><path id="kvg:08a9a-s14" kvg:type="㇐a" d="M55.83 73.15c7.03-.67 24.79-1.72 32.92-2.17"/></g></g></g></g><g id="kvg:StrokeNumbers_08a9a" style="font-size:8;fill:#808080"><text transform="matrix(1 0 0 1 13.50 15.50)">1</text><text transform="matrix(1 0 0 1 1.75 37.50)">2</text><text transform="matrix(1 0 0 1 9.50 50.50)">3</text><text transform="matrix(1 0 0 1 9.50 62.50)">4</text><text transform="matrix(1 0 0 1 11.25 84.50)">5</text><text transform="matrix(1 0 0 1 18.50 74.50)">6</text><text transform="matrix(1 0 0 1 24.50 91.50)">7</text><text transform="matrix(1 0 0 1 64.50 9.50)">8</text><text transform="matrix(1 0 0 1 51.50 20.50)">9</text><text transform="matrix(1 0 0 1 75.50 16.50)">10</text><text transform="matrix(1 0 0 1 45.50 49.50)">11</text><text transform="matrix(1 0 0 1 55.50 39.50)">12</text><text transform="matrix(1 0 0 1 59.25 53.82)">13</text><text transform="matrix(1 0 0 1 59.25 69.50)">14</text></g></svg>