<svg xmlns="http://www.w3.org/2000/svg" width="109" height="109" viewBox="0 0 109 109"><g id="kvg:StrokePaths_08aa1"><g id="kvg:08aa1" kvg:element="誡"><g id="kvg:08aa1-g1" kvg:element="言" kvg:position="left" kvg:radical="general"><path id="kvg:08aa1-s1" kvg:type="㇔" d="M21.55 14.75c3.05 1.94 7.87 7.98 8.63 11"/><path id="kvg:08aa1-s2" kvg:type="㇐" d="M9.62 33.08c.71.23 3.4.27 4.1.23 8.73-.42 16.98-2.17 23.33-2.37 1.18-.04 2.95.11 3.54.23"/><path id="kvg:08aa1-s3" kvg:type="㇐" d="M15.18 46.06c.43.12 3.04.13 3.47.12 4.44-.14 9.86-.93 14.34-1.55.7-.1 3.68.06 4.04.12"/><path id="kvg:08aa1-s4" kvg:type="㇐" d="M15.8 60.33c.38.12 2.71.13 3.1.12 3.97-.13 10.61-1.45 14.83-2.09.63-.1 3.29.06 3.6.11"/><g id="kvg:08aa1-g2" kvg:element="口"><path id="kvg:08aa1-s5" kvg:type="㇑" d="M13.51 73.9c.39.36.83 1.15.96 1.63 1.11 4.21 2.52 11.54 3.64 17.71"/><path id="kvg:08aa1-s6" kvg:type="㇕b" d="M14.94 75.87c9.56-1.87 12.9-3.1 19.55-4 1.67-.22 2.68 1.04 2.44 2.06-.99 4.25-1.36 7.22-3.12 14.28"/><path id="kvg:08aa1-s7" kvg:type="㇐b" d="M17.92 91.05c5.37-.54 10.68-1.47 18.06-2.31"/></g></g><g id="kvg:08aa1-g3" kvg:element="戒" kvg:position="right"><g id="kvg:08aa1-g4" kvg:element="戈" kvg:part="1"><g id="kvg:08aa1-g5" kvg:element="弋" kvg:part="1"><path id="kvg:08aa1-s8" kvg:type="㇐" d="M44.07 39.38c1.12.52 3.16.69 4.28.52 7.9-1.15 27.9-6.15 37.13-6.94 1.85-.16 2.98.25 3.91.51"/><path id="kvg:08aa1-s9" kvg:type="㇐" d="M39.95 64.35c.7.31 1.97.36 2.67.31 7.24-.52 16.01-3.33 24.03-4.51 1.15-.17 1.86.15 2.44.31"/></g></g><g id="kvg:08aa1-g6" kvg:element="廾"><g id="kvg:08aa1-g7" kvg:element="十" kvg:part="1"><path id="kvg:08aa1-s10" kvg:type="㇑" d="M49.87 53.14c.36 1.06.9 2.06.9 3.54C50.75 67.25 51 77 43.8 87.6"/></g><g id="kvg:08aa1-g8" kvg:element="丿"><path id="kvg:08aa1-s11" kvg:type="㇒" d="M59.75 48.99c.5 1.01 1.13 2.28 1.23 2.85.09.58.0 30.05-.1 33.65"/></g><g id="kvg:08aa1-g9" kvg:element="十" kvg:part="2"><path id="kvg:08aa1-s12" kvg:type="㇂" d="M63.67 14.96c1.19 1.71 1.63 2.19 1.93 5.87C68 49.75 76.25 79.5 92.55 92.28c4.66 3.65 4.02.73 3.42-6.85"/></g></g><g id="kvg:08aa1-g10" kvg:element="戈" kvg:part="2"><g id="kvg:08aa1-g11" kvg:element="丿"><path id="kvg:08aa1-s13" kvg:type="㇒" d="M87.08 46.76c.07 1.07.27 2.78-.14 4.28C84 61.75 77.25 81.25 61.96 92.99"/></g><g id="kvg:08aa1-g12" kvg:element="弋" kvg:part="2"><g id="kvg:08aa1-g13" kvg:element="丶"><path id="kvg:08aa1-s14" kvg:type="㇔" d="M78.61 17.25c2.46 1.69 6.39 5.55 7.53 8.44"/></g></g></g></g></g></g></svg>