<svg xmlns="http://www.w3.org/2000/svg" width="109" height="109" viewBox="0 0 109 109"><g id="kvg:StrokePaths_08aac"><g id="kvg:08aac" kvg:element="説"><g id="kvg:08aac-g1" kvg:element="言" kvg:position="left" kvg:radical="general"><path id="kvg:08aac-s1" kvg:type="㇔" d="M24.63 14.75c3.04 1.9 7.86 7.8 8.62 10.75"/><path id="kvg:08aac-s2" kvg:type="㇐" d="M12.62 34.58c1.29.48 3.02.27 4.38.19 7.23-.41 16.27-1.43 21.64-1.98 1.41-.14 2.8-.19 4.2.12"/><path id="kvg:08aac-s3" kvg:type="㇐" d="M17.48 47.31c1.28.41 3.22.39 4.53.29 3.59-.27 9.57-1.07 13.23-1.55 1.5-.2 3.41-.58 4.91-.3"/><path id="kvg:08aac-s4" kvg:type="㇐" d="M18.48 60.08c1.11.38 2.78.13 3.93.05 3.64-.27 10.2-.91 13.36-1.59 1.24-.27 2.74-.57 4-.32"/><g id="kvg:08aac-g2" kvg:element="口"><path id="kvg:08aac-s5" kvg:type="㇑" d="M16.64 71.9c.86.79 1.52 2.03 1.49 3.22.76 4.1 1.63 10.95 2.4 16.26.16 1.12.32 2.17.47 3.11"/><path id="kvg:08aac-s6" kvg:type="㇕b" d="M19.06 74.12c5.7-.79 11.88-1.63 17.34-2.44 3.58-.53 4.56.1 3.87 3.7-.75 3.94-1.51 8.8-2.85 14.83"/><path id="kvg:08aac-s7" kvg:type="㇐b" d="M21.97 92.55c4.08-.46 8.55-1.07 14.27-1.56 1.02-.09 2.07-.17 3.17-.25"/></g></g><g id="kvg:08aac-g3" kvg:element="兌" kvg:position="right" kvg:phon="兌"><g id="kvg:08aac-g4" kvg:element="八" kvg:variant="true" kvg:position="top"><g id="kvg:08aac-g5" kvg:position="left"><path id="kvg:08aac-s8" kvg:type="㇔" d="M52.5 17.12c3.26 2.44 8.43 10.05 9.25 13.85"/></g><g id="kvg:08aac-g6" kvg:position="right"><path id="kvg:08aac-s9" kvg:type="㇒" d="M86 13.12c.03.98-.32 2.12-.53 2.69-1.57 4.3-4.89 10.3-10.07 16.15"/></g></g><g id="kvg:08aac-g7" kvg:element="兄" kvg:position="bottom"><g id="kvg:08aac-g8" kvg:element="口" kvg:position="top"><path id="kvg:08aac-s10" kvg:type="㇑" d="M51.73 38.63c.88.88 1.27 1.62 1.5 2.61.69 3.05 1.71 10.07 2.64 16.38.19 1.31.38 2.58.56 3.79"/><path id="kvg:08aac-s11" kvg:type="㇕b" d="M54.23 40.12c7.61-1.18 20.73-2.41 28.25-3.16 3.39-.34 5.93.58 5.07 4.45-.95 4.28-2.43 8.36-3.64 13.97"/><path id="kvg:08aac-s12" kvg:type="㇐b" d="M57.36 58.97c5.24-.34 16.66-1.33 25.14-2.03 1.41-.12 2.74-.22 3.95-.32"/></g><g id="kvg:08aac-g9" kvg:element="儿" kvg:original="八" kvg:position="bottom"><g id="kvg:08aac-g10" kvg:element="丿"><path id="kvg:08aac-s13" kvg:type="㇒" d="M62.96 64.66c.06.74.15 1.93-.11 2.99C61.12 74.5 54 87.88 42.64 96.22"/></g><path id="kvg:08aac-s14" kvg:type="㇟" d="M73.14 60.29c1.03 1.03 1.29 2.12 1.31 3.99.07 5.13-.24 12.35-.24 18.71.0 10.25 1.29 11.76 12.16 11.76 9.87.0 10.62-2 10.62-7.99"/></g></g></g></g></g></svg>