<svg xmlns="http://www.w3.org/2000/svg" width="109" height="109" viewBox="0 0 109 109"><g id="kvg:StrokePaths_08aa4" style="fill:none;stroke:#000000;stroke-width:3;stroke-linecap:round;stroke-linejoin:round;"><g id="kvg:08aa4" kvg:element="誤"><g id="kvg:08aa4-g1" kvg:element="言" kvg:position="left" kvg:radical="general"><path id="kvg:08aa4-s1" kvg:type="㇔" d="M22.75 11.5c3.15 1.85 8.14 7.62 8.93 10.5"/><path id="kvg:08aa4-s2" kvg:type="㇐" d="M11.62 32.08c.71.23 3.4.31 4.1.23 9.15-1.06 17.03-2.44 23.83-3.37 1.17-.16 2.95-.14 3.54-.02"/><path id="kvg:08aa4-s3" kvg:type="㇐" d="M15.68 45.06c.95.19 1.95.31 3.47.12 5.22-.66 10.17-1.3 14.59-2.3 1.14-.26 2.64-.38 4.04-.13"/><path id="kvg:08aa4-s4" kvg:type="㇐" d="M16.3 58.08c1.2.17 2.21.22 3.1.12 5.11-.58 11.23-1.7 15.33-2.34.63-.1 2.54-.19 2.85-.14"/><g id="kvg:08aa4-g2" kvg:element="口"><path id="kvg:08aa4-s5" kvg:type="㇑" d="M15.26 71.9c.9.84 1.21 2.33 1.36 3.47.75 5.88 1.23 9.84 1.8 15.34.14 1.39.29 2.75.44 4.04"/><path id="kvg:08aa4-s6" kvg:type="㇕b" d="M17.19 73.62c6.43-.79 11.37-1.79 17.19-2.69 3.34-.51 4.93-.13 4.18 3.43-.85 4.04-2.06 8.64-3.25 15.11"/><path id="kvg:08aa4-s7" kvg:type="㇐b" d="M19.92 92.05c4.52-.46 8.7-.83 14.61-1.44 1.12-.11 2.27-.24 3.44-.37"/></g></g><g id="kvg:08aa4-g3" kvg:element="呉" kvg:position="right" kvg:phon="呉"><g id="kvg:08aa4-g4" kvg:position="top"><g id="kvg:08aa4-g5" kvg:element="口"><path id="kvg:08aa4-s8" kvg:type="㇑" d="M57.96 16.45c.92.92 1.36 1.85 1.49 2.9.67 5.27 1.48 9.76 2.16 14.91.2 1.51.38 2.94.54 4.2"/><path id="kvg:08aa4-s9" kvg:type="㇕b" d="M60.31 17.65c8.06-1.22 18.66-2.18 24.19-2.67 2.78-.25 4.97.73 4.23 3.8-.99 4.12-2.59 8.41-4.01 14.66"/><path id="kvg:08aa4-s10" kvg:type="㇐b" d="M62.5 35.9c4.11-.46 14.02-1.11 21.26-1.33 1.58-.05 3.05-.08 4.32-.08"/></g><path id="kvg:08aa4-s11" kvg:type="㇞" d="M50.75 32.49c.94.95 1.41 2.15 1.42 3.63.04 3.13.04 10.38-.02 14.71-.03 1.93.6 2.49 2.6 2.14 6.99-1.22 24.33-3.39 29.26-3.74 3.11-.22 4.11.53 3.14 4.17-.94 3.5-2.15 6.85-2.78 10.85"/></g><g id="kvg:08aa4-g6" kvg:position="bottom"><path id="kvg:08aa4-s12" kvg:type="㇐" d="M43.25 67.7c2.38.68 5.33.49 7.75.31 14.84-1.13 29.05-2.54 41-2.92 2.37-.08 4.69-.17 7 .46"/><g id="kvg:08aa4-g7" kvg:element="八"><g id="kvg:08aa4-g8" kvg:position="left"><path id="kvg:08aa4-s13" kvg:type="㇒" d="M61.96 76.64c.04.86-.17 2.08-.71 2.86-2.75 4-7.87 9.62-15.73 16.46"/></g><g id="kvg:08aa4-g9" kvg:position="right"><path id="kvg:08aa4-s14" kvg:type="㇔/㇏" d="M80.07 75.58c5.5 3.24 14.71 13.84 16.09 18.88"/></g></g></g></g></g></g></svg>