<!DOCTYPE svg PUBLIC "-//W3C//DTD SVG 1.0//EN" "http://www.w3.org/TR/2001/REC-SVG-20010904/DTD/svg10.dtd" [
<!ATTLIST g
xmlns:kvg CDATA #FIXED "http://kanjivg.tagaini.net"
kvg:element CDATA #IMPLIED
kvg:variant CDATA #IMPLIED
kvg:partial CDATA #IMPLIED
kvg:original CDATA #IMPLIED
kvg:part CDATA #IMPLIED
kvg:number CDATA #IMPLIED
kvg:tradForm CDATA #IMPLIED
kvg:radicalForm CDATA #IMPLIED
kvg:position CDATA #IMPLIED
kvg:radical CDATA #IMPLIED
kvg:phon CDATA #IMPLIED >
<!ATTLIST path
xmlns:kvg CDATA #FIXED "http://kanjivg.tagaini.net"
kvg:type CDATA #IMPLIED >
]><svg xmlns="http://www.w3.org/2000/svg" width="109" height="109" viewBox="0 0 109 109"><g id="kvg:StrokePaths_08ab0" style="fill:none;stroke:#000000;stroke-width:3;stroke-linecap:round;stroke-linejoin:round;"><g id="kvg:08ab0" kvg:element="誰"><g id="kvg:08ab0-g1" kvg:element="言" kvg:position="left" kvg:radical="general"><path id="kvg:08ab0-s1" kvg:type="㇔" d="M24.63 14.5c2.51 1.37 6.49 5.62 7.12 7.75"/><path id="kvg:08ab0-s2" kvg:type="㇐" d="M10.87 33.08c.63.23 3.04.27 3.67.23 7.8-.42 20.97-3.17 26.64-3.37 1.05-.04 2.64.11 3.16.23"/><path id="kvg:08ab0-s3" kvg:type="㇐" d="M18.23 45.56c.38.12 2.71.13 3.1.12 3.97-.14 9.8-2.06 13.71-2.05.63.0 3.29.06 3.61.12"/><path id="kvg:08ab0-s4" kvg:type="㇐" d="M18.23 58.83c.34.12 2.42.13 2.77.12 3.55-.13 11.82-2.11 15.31-2.09.57.0 2.94.06 3.22.11"/><g id="kvg:08ab0-g2" kvg:element="口"><path id="kvg:08ab0-s5" kvg:type="㇑" d="M17.64 71.4c.35.36.75.65.86 1.13.99 4.21 2.25 13.04 3.25 19.21"/><path id="kvg:08ab0-s6" kvg:type="㇕b" d="M19.31 72.87c6.44-.89 12.98-1.6 18.92-2.5 1.49-.22 2.39 1.04 2.18 2.06-.89 4.25-1.66 7.22-3.24 14.28"/><path id="kvg:08ab0-s7" kvg:type="㇐b" d="M22.97 89.05c4.8-.54 9.1-1.47 15.69-2.31"/></g></g><g id="kvg:08ab0-g3" kvg:element="隹" kvg:position="right"><g id="kvg:08ab0-g4" kvg:element="亻" kvg:variant="true" kvg:original="人"><path id="kvg:08ab0-s8" kvg:type="㇒" d="M58.63 16c.17 1.71-.05 3.94-.59 5.4-3.46 9.31-7.85 17.2-15.78 28.53"/><path id="kvg:08ab0-s9" kvg:type="㇑" d="M51.19 37.15c.63.88 1.11 2.8 1.15 4.16.37 12.12-.51 46.63-.2 52.94"/></g><path id="kvg:08ab0-s10" kvg:type="㇒" d="M77.69 16.5c.07.92-.02 2.12-.24 2.9-1.44 5-3.26 8.87-6.56 14.96"/><path id="kvg:08ab0-s11" kvg:type="㇐b" d="M52.16 37.91c8.84-1.16 35.09-4.46 38.22-5.09"/><path id="kvg:08ab0-s12" kvg:type="㇑a" d="M71.98 37.83c.35.45.63 1.06.63 1.83.0 7.86-.17 34.08-.17 45.88"/><path id="kvg:08ab0-s13" kvg:type="㇐b" d="M53.14 52.82c6.89-.94 32-3.19 34.95-3.71"/><path id="kvg:08ab0-s14" kvg:type="㇐b" d="M52.3 68.79c7.27-.8 32.65-3.41 35.77-3.85"/><path id="kvg:08ab0-s15" kvg:type="㇐b" d="M52.8 87.68c7.3-1.14 37.56-3.32 40.7-3.95"/></g></g></g><g id="kvg:StrokeNumbers_08ab0" style="font-size:8;fill:#808080"><text transform="matrix(1 0 0 1 17.75 16.13)">1</text><text transform="matrix(1 0 0 1 4.63 35.07)">2</text><text transform="matrix(1 0 0 1 10.76 47.36)">3</text><text transform="matrix(1 0 0 1 11.25 61.90)">4</text><text transform="matrix(1 0 0 1 12.89 79.07)">5</text><text transform="matrix(1 0 0 1 19.72 70.26)">6</text><text transform="matrix(1 0 0 1 23.37 86.19)">7</text><text transform="matrix(1 0 0 1 51.88 19.85)">8</text><text transform="matrix(1 0 0 1 45.75 53.78)">9</text><text transform="matrix(1 0 0 1 66.00 17.70)">10</text><text transform="matrix(1 0 0 1 55.74 34.89)">11</text><text transform="matrix(1 0 0 1 74.25 42.80)">12</text><text transform="matrix(1 0 0 1 54.62 49.73)">13</text><text transform="matrix(1 0 0 1 53.86 66.15)">14</text><text transform="matrix(1 0 0 1 54.49 84.60)">15</text></g></svg>