<svg xmlns="http://www.w3.org/2000/svg" width="109" height="109" viewBox="0 0 109 109"><g id="kvg:StrokePaths_08abf"><g id="kvg:08abf" kvg:element="調"><g id="kvg:08abf-g1" kvg:element="言" kvg:position="left" kvg:radical="general"><path id="kvg:08abf-s1" kvg:type="㇔" d="M23.12 15.62c2.43 1.43 6.27 5.89 6.88 8.12"/><path id="kvg:08abf-s2" kvg:type="㇐" d="M11.12 33.08c1.51.56 3.69.25 5.26.13 6.51-.49 13.87-1.33 19.48-2.35 1.77-.32 3.89-.48 5.49-.19"/><path id="kvg:08abf-s3" kvg:type="㇐" d="M17.23 46.81c1.09.35 2.54.15 3.67.05 4.06-.36 9.18-1.45 12.49-2.06 1.24-.23 2.51-.29 3.76-.05"/><path id="kvg:08abf-s4" kvg:type="㇐" d="M17.48 59.33c1.09.37 2.76.14 3.89.04 3.35-.28 9.19-1.22 12.04-1.83 1.33-.28 2.77-.35 4.12-.08"/><g id="kvg:08abf-g2" kvg:element="口"><path id="kvg:08abf-s5" kvg:type="㇑" d="M16.64 72.15c.79.79 1.27 1.99 1.32 2.83.71 3.51 1.31 8.41 2 13.15.18 1.23.36 2.44.55 3.62"/><path id="kvg:08abf-s6" kvg:type="㇕b" d="M18.31 73.12c6.44-.89 12.23-2.1 18.17-3 1.49-.22 2.64 1.29 2.43 2.31-.89 4.25-1.66 6.72-3.24 13.78"/><path id="kvg:08abf-s7" kvg:type="㇐b" d="M21.22 89.05c4.1-.46 8.02-1.03 13.18-1.7.88-.12 1.8-.23 2.77-.35"/></g></g><g id="kvg:08abf-g3" kvg:element="周" kvg:position="right" kvg:phon="周"><g id="kvg:08abf-g4" kvg:element="冂" kvg:variant="true"><path id="kvg:08abf-s8" kvg:type="㇒/㇑" d="M50.38 21.13c.75.75 1.39 1.99 1.42 3.48C52.5 63.12 50 80.25 39.5 93.25"/><path id="kvg:08abf-s9" kvg:type="㇆a" d="M52.6 22.85c5.93-.84 28.45-3.6 35.02-4.43 4.26-.54 5.7.83 5.7 4.59.0 2.42.18 62.17.18 67.73.0 11.13-5 4.76-8.32 1.34"/></g><g id="kvg:08abf-g5" kvg:element="吉"><g id="kvg:08abf-g6" kvg:element="士"><path id="kvg:08abf-s10" kvg:type="㇐" d="M59.91 39.07c.96.36 2.71.31 3.67.22 3.1-.28 13.36-2.23 17.19-2.4 1.6-.07 2.56.06 3.36.23"/><path id="kvg:08abf-s11" kvg:type="㇑a" d="M70.71 26.37c.69.34 1.11 1.65 1.25 2.4s.01 17.58-.13 22.36"/><path id="kvg:08abf-s12" kvg:type="㇐" d="M57.33 52.75c1.29.5 3.02.53 4.56.34 6.46-.8 15.56-2.46 21.22-2.8 1.33-.08 2.79-.23 4.11.05"/></g><g id="kvg:08abf-g7" kvg:element="口"><path id="kvg:08abf-s13" kvg:type="㇑" d="M60.28 61.82c.97.68 1.68 1.61 2 2.92.76 3.19 1.49 6.96 2.34 11.88.14.83.29 1.69.45 2.59"/><path id="kvg:08abf-s14" kvg:type="㇕b" d="M62.29 62.79c6.11-1.27 13.13-2.33 16.96-2.77 2.42-.28 3.5 1.1 3.21 2.88-.58 3.6-1.28 6.46-2.64 11.78"/><path id="kvg:08abf-s15" kvg:type="㇐b" d="M65.26 76.92c3.98-.53 9.49-1.02 13.5-1.25 1.02-.06 1.96-.1 2.77-.12"/></g></g></g></g></g></svg>