<svg xmlns="http://www.w3.org/2000/svg" width="109" height="109" viewBox="0 0 109 109"><g id="kvg:StrokePaths_08acf"><g id="kvg:08acf" kvg:element="諏"><g id="kvg:08acf-g1" kvg:element="言" kvg:position="left" kvg:radical="general"><path id="kvg:08acf-s1" kvg:type="㇔" d="M20.88 14.75c2.25 1.5 5.81 6.17 6.37 8.5"/><path id="kvg:08acf-s2" kvg:type="㇐" d="M9.87 32.58c1.58.25 3.17.31 4.75.17 6.58-.45 10.9-1.57 15.76-2.16 1.48-.21 2.96-.26 4.46-.16"/><path id="kvg:08acf-s3" kvg:type="㇐" d="M14.23 45.85c1.39.15 2.51.08 3.77.04 3.87-.14 7.12-.77 10.75-1.26.96-.13 2.18-.25 3.14-.17"/><path id="kvg:08acf-s4" kvg:type="㇐" d="M14.73 58.54c1.33.34 2.68.46 4.02.27 3.99-.56 7.27-1.21 10.27-1.81 1.15-.26 2.31-.26 3.5.01"/><g id="kvg:08acf-g2" kvg:element="口"><path id="kvg:08acf-s5" kvg:type="㇑" d="M13.89 70.9c.79.63 1.21 1.46 1.24 2.47.73 3.25 1.39 7.89 1.99 12.25.22 1.61.43 3.18.63 4.62"/><path id="kvg:08acf-s6" kvg:type="㇕b" d="M15.81 72.12c6.83-1.3 8.94-1.8 14.31-2.62 1.61-.24 3.24.94 2.89 2.66-.77 3.83-1.1 6.15-2.59 12.81"/><path id="kvg:08acf-s7" kvg:type="㇐b" d="M18.47 87.55c3.78-.43 7.04-.98 10.53-1.33.95-.09 1.92-.17 2.91-.23"/></g></g><g id="kvg:08acf-g3" kvg:element="取" kvg:position="right"><g id="kvg:08acf-g4" kvg:element="耳" kvg:position="left"><path id="kvg:08acf-s8" kvg:type="㇐" d="M37.8 25.63c3.33.62 6.33.47 9.09.22 11.13-1 26.71-3.1 37.12-3.75 2.6-.29 5.18-.23 7.76.17"/><path id="kvg:08acf-s9" kvg:type="㇑a" d="M45.08 28.21c.85.85 1.18 1.93 1.18 3.07s.08 38.75.08 42.88"/><path id="kvg:08acf-s10" kvg:type="㇐a" d="M46.6 41.36C53 40.5 57.25 40 61.22 39.65"/><path id="kvg:08acf-s11" kvg:type="㇐a" d="M46.75 55.52C50.5 55 55.5 54.25 60.98 53.5"/><path id="kvg:08acf-s12" kvg:type="㇀" d="M39.77 75.58c1.23.92 2.84.61 3.75.16 5.36-2.62 10.36-5.37 17.89-8.93"/><path id="kvg:08acf-s13" kvg:type="㇑" d="M61.14 26.09c.89.89.98 1.96.98 3.11.0 1.26-.08 56.9-.08 66.3"/></g><g id="kvg:08acf-g5" kvg:element="又" kvg:position="right"><path id="kvg:08acf-s14" kvg:type="㇇" d="M69.54 39.99c1.63.34 3.25.34 4.86.01 3.61-.61 8.97-2.11 11.12-2.69 2.51-.68 3.39.79 2.79 3.09-4.12 15.97-8.93 33.74-20.61 44.88"/><path id="kvg:08acf-s15" kvg:type="㇏" d="M68.34 44.69c3.41 2.06 11.92 21.29 21.04 32.92 2.46 3.19 5.29 5.99 8.52 8.39"/></g></g></g></g></svg>