<svg xmlns="http://www.w3.org/2000/svg" width="109" height="109" viewBox="0 0 109 109"><g id="kvg:StrokePaths_08ac4"><g id="kvg:08ac4" kvg:element="諄"><g id="kvg:08ac4-g1" kvg:element="言" kvg:position="left" kvg:radical="general"><path id="kvg:08ac4-s1" kvg:type="㇔" d="M18.25 14.5c3.71 1.81 9.57 7.44 10.5 10.25"/><path id="kvg:08ac4-s2" kvg:type="㇐" d="M9.62 33.33c1.83.67 3.98.47 5.88.35 6.46-.43 14.64-1.5 20.01-2.04 1.91-.19 3.75-.39 5.84-.22"/><path id="kvg:08ac4-s3" kvg:type="㇐" d="M15.48 45.06c1.3.41 3.33.39 4.65.27 3.68-.35 9.04-1.4 13.15-2.17 1.16-.22 1.98-.38 3.11-.16"/><path id="kvg:08ac4-s4" kvg:type="㇐" d="M15.48 57.83c1.15.39 2.95.37 4.14.29 3.51-.24 9.63-1.36 13.78-2.11 1.21-.22 2.92-.29 4.13-.05"/><g id="kvg:08ac4-g2" kvg:element="口"><path id="kvg:08ac4-s5" kvg:type="㇑" d="M13.39 72.65c.79.79.99 1.72 1.29 3.2.7 3.46 1.41 8.6 2.08 13.19.26 1.78.51 3.48.75 4.96"/><path id="kvg:08ac4-s6" kvg:type="㇕b" d="M15.31 74.12c5.79-.8 12.67-1.86 18.32-2.72 3.35-.51 4.44.26 3.61 3.66-.85 3.49-1.47 5.9-2.81 11.91"/><path id="kvg:08ac4-s7" kvg:type="㇐b" d="M18.22 89.8c3.81-.34 9.19-.87 14.54-1.4 1.4-.14 2.79-.28 4.15-.41"/></g></g><g id="kvg:08ac4-g3" kvg:element="享" kvg:position="right"><g id="kvg:08ac4-g4" kvg:element="亠" kvg:position="top"><path id="kvg:08ac4-s8" kvg:type="㇑a" d="M66.29 11.34c.93.93 1.34 2.03 1.34 3.67.0 3.13-.01 3.4-.01 6.23"/><path id="kvg:08ac4-s9" kvg:type="㇐" d="M44.63 23.05c3 .7 5.34 1 8.12.73 9.75-.91 24.23-2.5 34.24-3.18 2.18-.15 4.63-.49 7.01-.17"/></g><g id="kvg:08ac4-g5" kvg:position="bottom"><g id="kvg:08ac4-g6" kvg:element="口"><path id="kvg:08ac4-s10" kvg:type="㇑" d="M53.08 32.25c.88.57 1.36 1.4 1.46 2.49.57 3.07 1.14 5.79 1.65 8.38.24 1.22.47 2.41.69 3.6"/><path id="kvg:08ac4-s11" kvg:type="㇕b" d="M54.92 33.45c7.64-.89 18.97-2.51 24.68-3.13 2.45-.26 5.11-.17 4.06 2.98-.85 2.55-1.47 4.63-2.68 7.53"/><path id="kvg:08ac4-s12" kvg:type="㇐b" d="M57.48 44.12c4.16-.3 13.29-1.42 20.25-2.07 1.87-.17 3.59-.32 5.01-.4"/></g><g id="kvg:08ac4-g7" kvg:element="子"><path id="kvg:08ac4-s13" kvg:type="㇖" d="M51.36 53.18c2.51 1.45 5.08 1.55 8.02 1.12 6.5-.95 21.1-3.53 22.46-3.53 1.71.0 2.75 1.67 1.15 2.99C78 57.88 75 59.62 67.92 64.51"/><path id="kvg:08ac4-s14" kvg:type="㇁" d="M65.24 64.87c6.51 2.38 10.14 17.38 6.07 28.88-2.38 6.72-6.22 1.16-7.51-.25"/><path id="kvg:08ac4-s15" kvg:type="㇐" d="M43.39 73.3c3.24.95 6.41.55 9.23.32 9.22-.76 27.69-2.47 37.63-2.98 2.84-.15 6.06-.54 8.76.61"/></g></g></g></g></g></svg>