<!DOCTYPE svg PUBLIC "-//W3C//DTD SVG 1.0//EN" "http://www.w3.org/TR/2001/REC-SVG-20010904/DTD/svg10.dtd" [
<!ATTLIST g
xmlns:kvg CDATA #FIXED "http://kanjivg.tagaini.net"
kvg:element CDATA #IMPLIED
kvg:variant CDATA #IMPLIED
kvg:partial CDATA #IMPLIED
kvg:original CDATA #IMPLIED
kvg:part CDATA #IMPLIED
kvg:number CDATA #IMPLIED
kvg:tradForm CDATA #IMPLIED
kvg:radicalForm CDATA #IMPLIED
kvg:position CDATA #IMPLIED
kvg:radical CDATA #IMPLIED
kvg:phon CDATA #IMPLIED >
<!ATTLIST path
xmlns:kvg CDATA #FIXED "http://kanjivg.tagaini.net"
kvg:type CDATA #IMPLIED >
]><svg xmlns="http://www.w3.org/2000/svg" width="109" height="109" viewBox="0 0 109 109"><g id="kvg:StrokePaths_08adc" style="fill:none;stroke:#000000;stroke-width:3;stroke-linecap:round;stroke-linejoin:round;"><g id="kvg:08adc" kvg:element="諜"><g id="kvg:08adc-g1" kvg:element="言" kvg:position="left" kvg:radical="general"><path id="kvg:08adc-s1" kvg:type="㇔" d="M22.88 16.75c2.25 1.5 5.81 6.17 6.37 8.5"/><path id="kvg:08adc-s2" kvg:type="㇐" d="M10.37 35.08c.63.23 3.04.27 3.67.23 7.8-.42 15.47-2.67 21.14-2.87 1.05-.04 2.64.11 3.16.23"/><path id="kvg:08adc-s3" kvg:type="㇐" d="M16.73 48.06c.38.12 2.71.13 3.1.12 3.97-.14 9.8-2.06 13.71-2.05.63.0 3.29.06 3.61.12"/><path id="kvg:08adc-s4" kvg:type="㇐" d="M17.73 60.33c.34.12 2.42.13 2.77.12 3.55-.13 9.32-2.11 12.81-2.09.57.0 2.94.06 3.22.11"/><g id="kvg:08adc-g2" kvg:element="口"><path id="kvg:08adc-s5" kvg:type="㇑" d="M15.64 72.4c.35.36.75.65.86 1.13.99 4.21 2.25 13.04 3.25 19.21"/><path id="kvg:08adc-s6" kvg:type="㇕b" d="M16.81 73.87c6.44-.89 13.48-2.1 19.42-3 1.49-.22 2.39 1.04 2.18 2.06-.89 4.25-1.66 7.22-3.24 14.28"/><path id="kvg:08adc-s7" kvg:type="㇐b" d="M20.97 90.05c4.8-.54 9.1-1.47 15.69-2.31"/></g></g><g id="kvg:08adc-g3" kvg:element="枼" kvg:position="right"><g id="kvg:08adc-g4" kvg:element="世" kvg:position="top"><g id="kvg:08adc-g5" kvg:element="廿"><g id="kvg:08adc-g6" kvg:element="十"><g id="kvg:08adc-g7" kvg:element="一"><path id="kvg:08adc-s8" kvg:type="㇐" d="M41.25 29.88c.94.34 2.66.38 3.6.34 7.23-.31 35.4-3.96 46.61-4.59 1.56-.09 2.5.16 3.29.33"/></g><path id="kvg:08adc-s9" kvg:type="㇑" d="M63.89 13c.67.31 1.08 1.41 1.21 2.03s1.43 23.7 1.29 27.61"/></g><path id="kvg:08adc-s10" kvg:type="㇑" d="M79.55 11.25c.67.31 1.08 1.41 1.21 2.03.13.63-1.79 19.35-2.18 25.92"/><path id="kvg:08adc-s11" kvg:type="㇐" d="M66.79 40.64c2.48.0 12.84-1.25 14.24-1.25"/></g><path id="kvg:08adc-s12" kvg:type="㇗" d="M50 19.07c.67.31 1.08 1.41 1.21 2.03s.5 18.83.02 26.02c-.15 2.35-.24 4.12 2.32 3.91C64.42 50.16 75.25 49 85.97 48.7c2.02-.06 3.71.13 4.49.28"/></g><g id="kvg:08adc-g8" kvg:element="木" kvg:position="bottom"><path id="kvg:08adc-s13" kvg:type="㇐" d="M42.49 65.65c1.36.45 2.91.59 4.47.45 7.96-.73 31.58-2.28 43.62-3.14 1.55-.11 2.53.08 4.08.39"/><path id="kvg:08adc-s14" kvg:type="㇑" d="M66.32 54.5c.72.29 1.29 1.29 1.29 1.88.0 6.09.0 38.49-.14 42.12"/><path id="kvg:08adc-s15" kvg:type="㇒" d="M65.1 64.73c-3.59 7.68-13.2 19.42-20.66 23.77"/><path id="kvg:08adc-s16" kvg:type="㇏" d="M67.18 65.09c3.78 3.14 21.54 18.91 25.65 22 1.39 1.05 2.58 1.5 3.98 1.8"/></g></g></g></g><g id="kvg:StrokeNumbers_08adc" style="font-size:8;fill:#808080"><text transform="matrix(1 0 0 1 15.50 17.50)">1</text><text transform="matrix(1 0 0 1 3.50 36.38)">2</text><text transform="matrix(1 0 0 1 9.50 49.50)">3</text><text transform="matrix(1 0 0 1 10.50 61.50)">4</text><text transform="matrix(1 0 0 1 9.50 79.50)">5</text><text transform="matrix(1 0 0 1 19.50 70.50)">6</text><text transform="matrix(1 0 0 1 24.00 86.50)">7</text><text transform="matrix(1 0 0 1 40.25 27.50)">8</text><text transform="matrix(1 0 0 1 55.50 12.50)">9</text><text transform="matrix(1 0 0 1 70.50 9.50)">10</text><text transform="matrix(1 0 0 1 68.50 37.50)">11</text><text transform="matrix(1 0 0 1 41.50 15.50)">12</text><text transform="matrix(1 0 0 1 39.50 62.73)">13</text><text transform="matrix(1 0 0 1 55.50 59.50)">14</text><text transform="matrix(1 0 0 1 48.50 74.50)">15</text><text transform="matrix(1 0 0 1 77.50 72.00)">16</text></g></svg>