<svg xmlns="http://www.w3.org/2000/svg" width="109" height="109" viewBox="0 0 109 109"><g id="kvg:StrokePaths_08ae6"><g id="kvg:08ae6" kvg:element="諦"><g id="kvg:08ae6-g1" kvg:element="言" kvg:position="left" kvg:radical="general"><path id="kvg:08ae6-s1" kvg:type="㇔" d="M24.63 13.75c2.34 1.32 6.04 5.44 6.62 7.5"/><path id="kvg:08ae6-s2" kvg:type="㇐" d="M12.37 33.08c.63.23 3.04.27 3.67.23 7.8-.42 17.97-3.17 23.64-3.37 1.05-.04 2.64.11 3.16.23"/><path id="kvg:08ae6-s3" kvg:type="㇐" d="M18.23 46.06c.38.12 2.71.13 3.1.12 3.97-.14 9.8-2.06 13.71-2.05.63.0 3.29.06 3.61.12"/><path id="kvg:08ae6-s4" kvg:type="㇐" d="M18.73 58.83c.34.12 2.42.13 2.77.12 3.55-.13 10.82-2.11 14.31-2.09.57.0 2.94.06 3.22.11"/><g id="kvg:08ae6-g2" kvg:element="口"><path id="kvg:08ae6-s5" kvg:type="㇑" d="M17.64 70.9c.35.36.75.65.86 1.13.99 4.21 2.25 12.54 3.25 18.71"/><path id="kvg:08ae6-s6" kvg:type="㇕b" d="M18.81 71.87c6.44-.89 13.48-2.1 19.42-3 1.49-.22 2.39 1.04 2.18 2.06-.89 4.25-1.66 8.72-3.24 15.78"/><path id="kvg:08ae6-s7" kvg:type="㇐b" d="M21.97 88.55c4.8-.54 10.6-.97 17.19-1.81"/></g></g><g id="kvg:08ae6-g3" kvg:element="帝" kvg:position="right"><g id="kvg:08ae6-g4" kvg:position="top"><g id="kvg:08ae6-g5" kvg:element="亠"><path id="kvg:08ae6-s8" kvg:type="㇑a" d="M66.77 12.09c.66.81 1.66 1.63 1.66 3.71.0 3.29.0-.81.0 8.13"/><path id="kvg:08ae6-s9" kvg:type="㇐" d="M48.29 26.42c.78.27 1.68.31 2.45.27 4.37-.23 33.01-4.17 39.62-4.36 1.29-.04 2.07.13 2.71.26"/></g><path id="kvg:08ae6-s10" kvg:type="㇔" d="M57.3 29.45c2.67 3.98 4.37 8.78 4.62 11.4"/><path id="kvg:08ae6-s11" kvg:type="㇒" d="M81.36 26.18c.39.82.2 2.17.08 2.55-1.48 4.59-4.9 10-5.82 12.09"/><g id="kvg:08ae6-g6" kvg:element="冖"><path id="kvg:08ae6-s12" kvg:type="㇔" d="M48.32 43.85c-.06 3.54-1.45 12.78-1.95 14.89"/><path id="kvg:08ae6-s13" kvg:type="㇖b" d="M49.82 45.83c2.17.0 32.24-4.67 43.16-4.67 7.43.0 1.35 4.49-1.43 7.42"/></g></g><g id="kvg:08ae6-g7" kvg:element="巾" kvg:position="bottom"><path id="kvg:08ae6-s14" kvg:type="㇑" d="M53.52 60.28c.43.31 1.44 2.33 1.44 2.96.0 4.09-.06 20.8-.14 24.7"/><path id="kvg:08ae6-s15" kvg:type="㇆a" d="M55.35 61.74c2.72-.22 30.65-3.5 32.68-3.64 2.39-.16 2.9 2.75 2.82 4.17-.43 7.17-.24 14.29-1.63 21.32-1 5.05-4.08 1.2-5.23-.54"/><path id="kvg:08ae6-s16" kvg:type="㇑" d="M69.57 47.76c.43.31 1.35 2.34 1.44 2.96C71.1 51.35 70.96 95.1 70.87 99"/></g></g></g></g></svg>