<svg xmlns="http://www.w3.org/2000/svg" width="109" height="109" viewBox="0 0 109 109"><g id="kvg:StrokePaths_08ae2" style="fill:none;stroke:#000000;stroke-width:3;stroke-linecap:round;stroke-linejoin:round;"><g id="kvg:08ae2" kvg:element="諢"><g id="kvg:08ae2-g1" kvg:element="言" kvg:position="left" kvg:radical="general"><path id="kvg:08ae2-s1" kvg:type="㇔" d="M19.8 13.25c3.84 1.94 9.92 7.98 10.88 11"/><path id="kvg:08ae2-s2" kvg:type="㇐" d="M9.12 34.58c.71.23 3.4.27 4.1.23 8.73-.42 17.48-2.67 23.83-2.87 1.18-.04 2.95.11 3.54.23"/><path id="kvg:08ae2-s3" kvg:type="㇐" d="M14.68 46.06c.43.12 3.04.13 3.47.12 4.44-.14 8.86-1.43 13.34-2.05.7-.1 3.68-.44 4.04-.38"/><path id="kvg:08ae2-s4" kvg:type="㇐" d="M14.8 59.33c.38.12 2.71.13 3.1.12 3.97-.13 10.11-.95 14.83-1.59.63-.09 3.29-.44 3.6-.39"/><g id="kvg:08ae2-g2" kvg:element="口"><path id="kvg:08ae2-s5" kvg:type="㇑" d="M15.51 72.9c.39.36.83 1.15.96 1.63 1.11 4.21 2.03 14.21 2.64 20.71"/><path id="kvg:08ae2-s6" kvg:type="㇕b" d="M16.94 74.37c7.2-.89 13.4-2.6 20.05-3.5 1.67-.22 2.68 1.04 2.44 2.06-.99 4.25-1.86 10.22-3.62 17.28"/><path id="kvg:08ae2-s7" kvg:type="㇐b" d="M19.42 93.05c5.37-.54 10.68-.97 18.06-1.81"/></g></g><g id="kvg:08ae2-g3" kvg:element="軍" kvg:position="right"><g id="kvg:08ae2-g4" kvg:element="冖" kvg:position="top"><path id="kvg:08ae2-s8" kvg:type="㇔" d="M49.75 15.71c-.11 3.72-2.84 13.47-3.81 15.69"/><path id="kvg:08ae2-s9" kvg:type="㇖b" d="M50.17 17.73c5.82-.66 29.78-2.52 41.29-3.04 8.75-.4 1.36 7.02.28 8.13"/></g><g id="kvg:08ae2-g5" kvg:element="車" kvg:position="bottom"><path id="kvg:08ae2-s10" kvg:type="㇐" d="M52.62 33.52c1.14.42 3.24.48 4.39.42 7.24-.44 18.99-1.69 26.55-2.6 1.89-.23 3.05.2 4 .41"/><path id="kvg:08ae2-s11" kvg:type="㇑" d="M50.48 43.1c.55.44 1.24 1.7 1.34 2.27.82 4.59 1.69 13.91 2.67 21.34"/><path id="kvg:08ae2-s12" kvg:type="㇕a" d="M51.96 45.02c8.83-.9 29.71-3.57 35.73-3.71 2.49-.06 3 1.22 2.9 2.62-.37 4.81-.77 12.7-2.74 20.58"/><path id="kvg:08ae2-s13" kvg:type="㇐a" d="M53.04 54.17c6.66-.23 24.06-2.98 36.6-2.98"/><path id="kvg:08ae2-s14" kvg:type="㇐a" d="M55.54 64.3c7.74-.93 21.23-2.71 31.3-2.71"/><path id="kvg:08ae2-s15" kvg:type="㇐" d="M46.18 75.64c1.3.64 3.67.69 4.99.64 14.09-.54 28.09-1.54 41.11-2.37 2.17-.14 4.47-.19 5.55.13"/><path id="kvg:08ae2-s16" kvg:type="㇑" d="M69.17 20.05c.54.57 1.68 4.3 1.79 5.45s-.07 64.46-.18 71.64"/></g></g></g></g></svg>