<svg xmlns="http://www.w3.org/2000/svg" width="109" height="109" viewBox="0 0 109 109"><g id="kvg:StrokePaths_08afe" style="fill:none;stroke:#000000;stroke-width:3;stroke-linecap:round;stroke-linejoin:round;"><g id="kvg:08afe" kvg:element="諾"><g id="kvg:08afe-g1" kvg:element="言" kvg:position="left" kvg:radical="general"><path id="kvg:08afe-s1" kvg:type="㇔" d="M22.62 16.5c2.76 1.77 7.12 7.25 7.81 10"/><path id="kvg:08afe-s2" kvg:type="㇐" d="M10.87 34.08c.71.23 3.4.27 4.1.23 8.73-.42 14.03-1.69 21.58-2.37 1.18-.11 2.95-.14 3.54-.02"/><path id="kvg:08afe-s3" kvg:type="㇐" d="M17.43 47.81c1.27.36 2.92.2 4.21.01 3.6-.53 7.15-1.11 11.34-1.69 1.09-.15 2.44-.32 3.54-.13"/><path id="kvg:08afe-s4" kvg:type="㇐" d="M17.3 61.08c.85.26 2.21.22 3.1.12 4.73-.58 9.11-.83 13.08-1.59.96-.18 2.37-.31 3.35-.14"/><g id="kvg:08afe-g2" kvg:element="口"><path id="kvg:08afe-s5" kvg:type="㇑" d="M16.51 74.38c.36.32.76 1 .87 1.42.75 2.71 1.35 7.82 2.03 12.46.23 1.59.47 3.13.73 4.49"/><path id="kvg:08afe-s6" kvg:type="㇕b" d="M18.56 75.4c7.1-1.27 10.47-1.89 15.57-2.58 2.6-.35 3.99.67 3.5 2.83-.76 3.34-1.61 6.99-3.04 12.42"/><path id="kvg:08afe-s7" kvg:type="㇐b" d="M20.94 90.29c3.5-.36 6.73-.67 10.98-1.12 1.28-.14 2.63-.28 4.07-.45"/></g></g><g id="kvg:08afe-g3" kvg:element="若" kvg:position="right" kvg:phon="若"><g id="kvg:08afe-g4" kvg:element="艹" kvg:variant="true" kvg:original="艸" kvg:position="top"><path id="kvg:08afe-s8" kvg:type="㇐" d="M46.72 30.18c2.03.57 3.85.49 5.52.24 10.38-1.54 26.99-3.35 37.5-3.89 2.16-.11 4.25-.28 6.43.14"/><path id="kvg:08afe-s9" kvg:type="㇑a" d="M57.94 18.23c.94.89 1.36 1.74 1.44 2.58.37 3.69 1.25 13.32 1.66 18.25"/><path id="kvg:08afe-s10" kvg:type="㇑a" d="M80.8 15.54c.45.84.64 1.92.47 3.27-1.04 7.93-1.51 11.65-2.63 19.12"/></g><g id="kvg:08afe-g5" kvg:element="右" kvg:position="bottom"><path id="kvg:08afe-s11" kvg:type="㇒" d="M67.18 41c.44 1 .3 2.22-.02 3.3-2.65 9.2-9.54 22.32-21.09 32.24"/><path id="kvg:08afe-s12" kvg:type="㇐" d="M42.32 52.39c2.8.86 6.16.83 9.02.45 14.28-1.91 29.72-3.22 40.16-3.68 3.05-.13 5.97-.25 8.93.67"/><g id="kvg:08afe-g6" kvg:element="口"><path id="kvg:08afe-s13" kvg:type="㇑" d="M56.35 69.09c.54.67.97 1.74 1.11 2.66.63 4.18 1.57 12.36 2.1 17.91.24 2.55.4 4.54.4 5.34"/><path id="kvg:08afe-s14" kvg:type="㇕b" d="M57.87 69.77c5.12-.37 21.3-2.11 27.4-2.77 3.05-.33 5.67.08 4.8 3.87-1.18 5.12-2.37 12.12-3.43 17.74"/><path id="kvg:08afe-s15" kvg:type="㇐b" d="M60.91 91.81c4.62-.19 15.62-1.06 23.1-1.69 1.87-.16 3.5-.26 4.73-.26"/></g></g></g></g></g></svg>