<svg xmlns="http://www.w3.org/2000/svg" width="109" height="109" viewBox="0 0 109 109"><g id="kvg:StrokePaths_08b00" style="fill:none;stroke:#000000;stroke-width:3;stroke-linecap:round;stroke-linejoin:round;"><g id="kvg:08b00" kvg:element="謀"><g id="kvg:08b00-g1" kvg:element="言" kvg:position="left" kvg:radical="general"><path id="kvg:08b00-s1" kvg:type="㇔" d="M20.5 15c2.89 1.54 7.46 6.35 8.18 8.75"/><path id="kvg:08b00-s2" kvg:type="㇐" d="M10.62 33.91c1.98.6 4.33 1.08 6.39.79 6.86-.95 12.21-2.27 17.12-2.71 1.54-.14 3.18-.17 4.71.11"/><path id="kvg:08b00-s3" kvg:type="㇐" d="M15.18 46.81c1.35.38 3.08.18 4.45-.02 4.28-.62 8.46-1.44 12.37-2.02 1.34-.2 2.92-.5 4.27-.27"/><path id="kvg:08b00-s4" kvg:type="㇐" d="M15.3 59.33c1.22.37 2.7.4 3.97.32 3.78-.24 9.8-1.65 13.99-2.36 1.27-.21 2.54-.56 3.82-.33"/><g id="kvg:08b00-g2" kvg:element="口"><path id="kvg:08b00-s5" kvg:type="㇑" d="M14.51 72.51c.78.71 1 1.77 1.2 2.75.68 3.29 1.28 8.75 1.93 13.47.23 1.64.46 3.18.71 4.52"/><path id="kvg:08b00-s6" kvg:type="㇕b" d="M16.87 74.12c6.89-.98 10.47-1.71 15.49-2.44 2.8-.41 4.96-.51 4.29 2.92-.7 3.52-1.19 7.5-2.68 13.33"/><path id="kvg:08b00-s7" kvg:type="㇐b" d="M19.25 90.35c3.93-.46 7.81-.6 12.65-1.19 1.23-.15 2.47-.25 3.9-.25"/></g></g><g id="kvg:08b00-g3" kvg:element="某" kvg:position="right" kvg:phon="某"><g id="kvg:08b00-g4" kvg:element="甘" kvg:position="top"><g id="kvg:08b00-g5" kvg:element="廿" kvg:part="1"><g id="kvg:08b00-g6" kvg:element="十"><path id="kvg:08b00-s8" kvg:type="㇐" d="M45.18 26.61c2.54.63 4.74.93 7.33.69 8.83-.83 22.37-2.79 32.36-3.91 2.53-.28 4.94-.63 7.44-.01"/><path id="kvg:08b00-s9" kvg:type="㇑" d="M55.3 15c.9.9 1.2 2 1.2 3.62.0 5.03.09 19.04.09 29.61.0 2.24-.05 3.94-.07 4.75"/></g><path id="kvg:08b00-s10" kvg:type="㇑" d="M77.17 11.58c1 1 1.25 2.29 1.25 4.04.0 4.8.03 21.25-.02 30.45-.01 2.28-.02 4.07-.02 5.05"/></g><path id="kvg:08b00-s11" kvg:type="㇐a" d="M57.81 38.67c2.6-.35 17.4-2.12 19.23-2.12"/><g id="kvg:08b00-g7" kvg:element="廿" kvg:part="2"><path id="kvg:08b00-s12" kvg:type="㇐a" d="M57.56 50.75c5.19-.38 15.91-1.57 19.58-1.75"/></g></g><g id="kvg:08b00-g8" kvg:element="木" kvg:position="bottom"><path id="kvg:08b00-s13" kvg:type="㇐" d="M43.83 62.92c2.81.85 5.45.72 8.3.32C61.75 61.9 77.4 61 88.37 60.62c2.49-.09 4.63.02 7.08.47"/><path id="kvg:08b00-s14" kvg:type="㇑" d="M66.64 53.8c.97.97 1.33 2.45 1.33 4.2.0 9.1.06 21.82-.01 33.49-.02 2.64-.03 5.22-.03 7.7"/><path id="kvg:08b00-s15" kvg:type="㇒" d="M66.21 62.8c0 1.7-.97 2.96-2.06 4.7C58.28 76.9 51.84 84.24 41.5 90.37"/><path id="kvg:08b00-s16" kvg:type="㇏" d="M68.61 63.79c3.27 3.71 13.17 13.09 19.64 19.34 2 1.93 4.41 4.12 6.75 5.65"/></g></g></g></g></svg>