<svg xmlns="http://www.w3.org/2000/svg" width="109" height="109" viewBox="0 0 109 109"><g id="kvg:StrokePaths_08b10"><g id="kvg:08b10" kvg:element="謐"><g id="kvg:08b10-g1" kvg:element="言" kvg:position="left" kvg:radical="general"><path id="kvg:08b10-s1" kvg:type="㇔" d="M18.05 13.5c3.93 1.72 10.15 7.07 11.13 9.75"/><path id="kvg:08b10-s2" kvg:type="㇐" d="M9.87 31.98c.73.19 3.48.22 4.2.19 8.93-.34 17.9-2.17 24.4-2.33 1.21-.03 3.02.09 3.62.19"/><path id="kvg:08b10-s3" kvg:type="㇐" d="M14.18 44.56c.43.12 3.04.13 3.47.12 4.44-.14 11.86-1.43 16.34-2.05.7-.1 3.68.06 4.04.12"/><path id="kvg:08b10-s4" kvg:type="㇐" d="M15.3 56.83c.38.12 2.71.13 3.1.12 3.97-.13 11.43-2.11 15.33-2.09.63.0 3.29.06 3.6.11"/><g id="kvg:08b10-g2" kvg:element="口"><path id="kvg:08b10-s5" kvg:type="㇑" d="M14.51 70.9c.39.36.83 1.15.96 1.63 1.11 4.21 2.03 15.96 2.64 22.21"/><path id="kvg:08b10-s6" kvg:type="㇕b" d="M15.94 72.37c7.2-.89 11.9-2.1 18.55-3 1.67-.22 2.68 1.04 2.44 2.06-.99 4.25-1.36 11.72-3.12 18.78"/><path id="kvg:08b10-s7" kvg:type="㇐b" d="M18.42 93.05c5.37-.54 10.18-.97 17.56-1.81"/></g></g><g id="kvg:08b10-g3" kvg:position="right"><g id="kvg:08b10-g4" kvg:element="必" kvg:position="top"><g id="kvg:08b10-g5" kvg:element="心" kvg:part="1" kvg:variant="true"><path id="kvg:08b10-s8" kvg:type="㇔" d="M64.95 19.02c1.12 2.38 3.8 7.98 5.28 2.84"/></g><g id="kvg:08b10-g6" kvg:element="丿"><path id="kvg:08b10-s9" kvg:type="㇒" d="M82.56 13.8c.08.82.11 2.1-.17 3.31-2.23 9.83-17.91 32.7-35.25 40.71"/></g><g id="kvg:08b10-g7" kvg:element="心" kvg:part="2" kvg:variant="true"><path id="kvg:08b10-s10" kvg:type="㇃" d="M54.45 20.89C61 38 66 53 87.56 54.94c7.58.68 5.75-4.89 2.59-9.05"/><path id="kvg:08b10-s11" kvg:type="㇔" d="M49.92 30.7c.33 2.3-3.34 12.46-6.02 16.3"/><path id="kvg:08b10-s12" kvg:type="㇔" d="M87.8 24.74c3.45 2.34 7.55 7.13 8.84 11.68"/></g></g><g id="kvg:08b10-g8" kvg:element="皿" kvg:position="bottom"><path id="kvg:08b10-s13" kvg:type="㇑a" d="M50.47 66.8c.49.72 1.13 1.5 1.23 2.11.83 4.84 1.05 15.84 1.06 25.21"/><path id="kvg:08b10-s14" kvg:type="㇕b" d="M52.47 68.32c8.79-1 32.59-3.42 35.78-3.42 1.75.0 3.18 1.66 3.01 2.63-.49 2.78-2.7 20.39-3.73 24.18"/><path id="kvg:08b10-s15" kvg:type="㇑a" d="M63.24 68c.2.46.41.84.5 1.42.71 4.57.73 15.08 1.21 23.29"/><path id="kvg:08b10-s16" kvg:type="㇑a" d="M76.6 66.51c.38.55.73 1.5.67 2.21-.62 7.08-.48 14.22-1.24 23.29"/><path id="kvg:08b10-s17" kvg:type="㇐" d="M40.63 93.96c1.37.46 3.88.53 5.25.46 14.25-.76 21.49-2.1 47.71-2.22 2.28-.01 3.65.22 4.79.45"/></g></g></g></g></svg>