<svg xmlns="http://www.w3.org/2000/svg" width="109" height="109" viewBox="0 0 109 109"><g id="kvg:StrokePaths_08b1b"><g id="kvg:08b1b" kvg:element="講"><g id="kvg:08b1b-g1" kvg:element="言" kvg:position="left" kvg:radical="general"><path id="kvg:08b1b-s1" kvg:type="㇔" d="M24.12 14.12c2.76 1.39 7.12 5.71 7.81 7.88"/><path id="kvg:08b1b-s2" kvg:type="㇐" d="M11.62 32.33c1.73.57 4.52.52 6.27.29 5.23-.7 12.39-2.45 19.23-3.71 1.83-.34 3.38-.6 5.22-.23"/><path id="kvg:08b1b-s3" kvg:type="㇐" d="M19.68 44.51c1.24.41 3.16.16 4.44.04 3.29-.32 6.56-1.35 9.87-1.97 1.15-.22 2.61-.51 3.78-.28"/><path id="kvg:08b1b-s4" kvg:type="㇐" d="M18.55 57.83c1.15.39 3.03.14 4.2.0 3.13-.37 7.35-1.45 10.39-2.02 1.33-.25 3.1-.61 4.44-.34"/><g id="kvg:08b1b-g2" kvg:element="口"><path id="kvg:08b1b-s5" kvg:type="㇑" d="M18.01 71.67c.78.78 1.33 2.01 1.58 3.05.74 2.96 1.7 7.51 2.64 11.72.43 1.95.82 3.79 1.12 5.3"/><path id="kvg:08b1b-s6" kvg:type="㇕b" d="M20.37 73.47c8.35-2.04 11.12-2.94 16.64-4.04 2.69-.54 4.34.17 3.66 3.11-.76 3.29-1.69 6.26-3.2 11.91"/><path id="kvg:08b1b-s7" kvg:type="㇐b" d="M23.65 87.46c4.97-.71 8.38-1.38 13.37-2 .95-.12 2.2-.23 3.28-.35"/></g></g><g id="kvg:08b1b-g3" kvg:element="冓" kvg:position="right" kvg:phon="冓"><g id="kvg:08b1b-g4" kvg:element="三" kvg:part="1" kvg:position="top"><g id="kvg:08b1b-g5" kvg:element="一"><path id="kvg:08b1b-s8" kvg:type="㇐" d="M48.42 25.21c1.72.47 3.61.13 5.32-.12 6.47-.95 22.03-3.35 31.01-4.37 1.93-.22 3.78-.4 5.71-.12"/></g><path id="kvg:08b1b-s9" kvg:type="㇑a" d="M57.77 13.89c1.11 1.11 1.85 2.11 2.04 3.42.11.74 1.42 14.98 2.13 25.46"/><path id="kvg:08b1b-s10" kvg:type="㇑a" d="M76.34 9.71c1.04 1.04 1.64 2.04 1.54 3.48C77.38 20.88 77 29.5 76.25 41"/><g id="kvg:08b1b-g6" kvg:element="三" kvg:part="2"><g id="kvg:08b1b-g7" kvg:element="一"><path id="kvg:08b1b-s11" kvg:type="㇐" d="M52.5 34.36c1.62.44 3.38.41 5 .17 6.62-.96 14.94-2.67 23-3.5 1.59-.17 3.08-.23 4.67.0"/></g><g id="kvg:08b1b-g8" kvg:element="再" kvg:part="1"><g id="kvg:08b1b-g9" kvg:element="一"><path id="kvg:08b1b-s12" kvg:type="㇐" d="M44.04 45.3c2.33.82 5.57.38 7.95.03 8.78-1.27 25.15-3.3 38-4.65 2.36-.25 4.91-.23 7.24.22"/></g></g></g></g><g id="kvg:08b1b-g10" kvg:element="再" kvg:part="2" kvg:position="bottom"><g id="kvg:08b1b-g11" kvg:element="冉"><g id="kvg:08b1b-g12" kvg:element="冂"><path id="kvg:08b1b-s13" kvg:type="㇑" d="M53.61 53.44c.91.91 1.45 2.43 1.45 3.78.0 4.03-.22 24.16-.16 34.78.01 2.77.02 4.68.02 5.15"/><path id="kvg:08b1b-s14" kvg:type="㇆a" d="M55.5 54.18c3.9-.54 19.75-3.11 26.61-3.98 3.31-.42 4.81.14 4.8 3.67-.01 7.31-.09 36.25-.09 39.47.0 8.9-5.9 1.79-7.4.64"/></g><g id="kvg:08b1b-g13" kvg:element="土" kvg:variant="true"><path id="kvg:08b1b-s15" kvg:type="㇑a" d="M68.77 46.54c.97.97 1.39 2.33 1.39 3.79.0 8.11.09 13.06.09 23.79"/><path id="kvg:08b1b-s16" kvg:type="㇐a" d="M55.97 64.91c9.91-1.41 20.51-3.16 29.64-3.73"/><path id="kvg:08b1b-s17" kvg:type="㇐" d="M46.06 77.09c2.69.53 5.46.25 7.82.01 11.17-1.11 27.27-3.22 37.49-3.99 2.24-.17 4.25-.49 6.59-.09"/></g></g></g></g></g></g></svg>