<svg xmlns="http://www.w3.org/2000/svg" width="109" height="109" viewBox="0 0 109 109"><g id="kvg:StrokePaths_08b28"><g id="kvg:08b28" kvg:element="謨"><g id="kvg:08b28-g1" kvg:element="言" kvg:position="left" kvg:radical="general"><path id="kvg:08b28-s1" kvg:type="㇔" d="M18.55 17c3.58 1.72 9.23 7.07 10.13 9.75"/><path id="kvg:08b28-s2" kvg:type="㇐" d="M9.62 36.08c.71.23 3.4.27 4.1.23 8.73-.42 16.48-2.67 22.83-2.87 1.18-.04 2.95.11 3.54.23"/><path id="kvg:08b28-s3" kvg:type="㇐" d="M15.68 50.56c.43.12 3.04.13 3.47.12 4.44-.14 9.86-1.43 14.34-2.05.7-.1 2.68.06 3.04.12"/><path id="kvg:08b28-s4" kvg:type="㇐" d="M14.8 63.33c.38.12 2.71.13 3.1.12 3.97-.13 12.36-1.7 16.33-2.59.62-.14 2.79.06 3.1.11"/><g id="kvg:08b28-g2" kvg:element="口"><path id="kvg:08b28-s5" kvg:type="㇑" d="M13.51 75.9c.39.36.83 1.15.96 1.63 1.11 4.21 2.02 10.54 3.14 16.71"/><path id="kvg:08b28-s6" kvg:type="㇕b" d="M14.44 77.37c7.2-.89 15.9-2.6 22.55-3.5 1.67-.22 2.68 1.04 2.44 2.06-.99 4.25-2.36 5.72-4.12 12.78"/><path id="kvg:08b28-s7" kvg:type="㇐b" d="M17.92 90.55C23.3 90 29.1 89.57 36.48 88.74"/></g></g><g id="kvg:08b28-g3" kvg:element="莫" kvg:position="right"><g id="kvg:08b28-g4" kvg:element="艹" kvg:variant="true" kvg:original="艸" kvg:position="top"><path id="kvg:08b28-s8" kvg:type="㇐" d="M44.64 27.27c1.38.55 2.97.65 4.35.55 7.75-.57 31.25-2.32 40.52-3.05 2.29-.18 3.67.26 4.81.53"/><path id="kvg:08b28-s9" kvg:type="㇑a" d="M57.35 15.93c1.22 1.3 1.62 1.69 1.75 2.49 1.22 7.48 1.57 12.83 1.92 15.55"/><path id="kvg:08b28-s10" kvg:type="㇑a" d="M80.66 14.34c.29 1.07.7 1.86.35 3.17-1.51 5.74-3.26 9.24-5.14 15.6"/></g><g id="kvg:08b28-g5" kvg:position="bottom"><g id="kvg:08b28-g6" kvg:element="日"><path id="kvg:08b28-s11" kvg:type="㇑" d="M49.99 39.72c.41.52 1.14 2.25 1.22 2.94.55 5.23 3.1 18.56 3.1 18.9"/><path id="kvg:08b28-s12" kvg:type="㇕a" d="M50.89 41.78c6.21-.97 30.76-4.03 32.86-4.16C85.71 37.5 87 39 87 40.56c0 4.21-1.35 14.94-2.32 19.23"/><path id="kvg:08b28-s13" kvg:type="㇐a" d="M53.3 49.66c3.13.0 28.67-2.83 32.21-2.83"/><path id="kvg:08b28-s14" kvg:type="㇐a" d="m54.74 58.64c6.37-.37 21.84-1.85 29.78-2.17"/></g><g id="kvg:08b28-g7" kvg:element="大"><path id="kvg:08b28-s15" kvg:type="㇐" d="M45.31 72.31c1.65.51 3.49.2 4.57.14 10.56-.52 25.86-1.65 41.56-2.86 1.36-.11 3.56-.1 5.31.39"/><path id="kvg:08b28-s16" kvg:type="㇒" d="M67.29 62.42c.21.58.45 1.54.25 2.53C64.25 82 55.75 91.5 42.25 96.66"/><path id="kvg:08b28-s17" kvg:type="㇏" d="M66.2 71.94c5.69 5.35 18.03 17.96 23.71 21.54 1.93 1.22 2.61 1.4 3.49 1.51"/></g></g></g></g></g></svg>