<svg xmlns="http://www.w3.org/2000/svg" width="109" height="109" viewBox="0 0 109 109"><g id="kvg:StrokePaths_08b2b"><g id="kvg:08b2b" kvg:element="謫"><g id="kvg:08b2b-g1" kvg:element="言" kvg:position="left" kvg:radical="general"><path id="kvg:08b2b-s1" kvg:type="㇔" d="M21.55 14.25c3.93 1.94 10.15 7.98 11.13 11"/><path id="kvg:08b2b-s2" kvg:type="㇐" d="M11.12 33.58c.71.23 3.4.27 4.1.23 8.73-.42 17.98-1.67 24.33-1.87 1.18-.04 2.95.11 3.54.23"/><path id="kvg:08b2b-s3" kvg:type="㇐" d="M16.18 46.06c.43.12 3.04.13 3.47.12 4.44-.14 10.36-.93 14.84-1.55.7-.1 3.68.06 4.04.12"/><path id="kvg:08b2b-s4" kvg:type="㇐" d="M16.3 59.33c.38.12 2.71.13 3.1.12 3.97-.13 11.93-2.11 15.83-2.09.63.0 3.29.06 3.6.11"/><g id="kvg:08b2b-g2" kvg:element="口"><path id="kvg:08b2b-s5" kvg:type="㇑" d="M16.51 73.4c.39.36.83 1.15.96 1.63 1.11 4.21 2.28 13.46 2.64 21.21"/><path id="kvg:08b2b-s6" kvg:type="㇕b" d="M17.44 74.87c7.2-.89 11.9-2.6 18.55-3.5 1.67-.22 2.68 1.04 2.44 2.06-.99 4.25-1.36 10.72-3.12 17.78"/><path id="kvg:08b2b-s7" kvg:type="㇐b" d="M21.42 94.05c5.37-.54 9.68-.97 17.06-1.81"/></g></g><g id="kvg:08b2b-g3" kvg:element="啇" kvg:position="right"><g id="kvg:08b2b-g4" kvg:element="亠"><path id="kvg:08b2b-s8" kvg:type="㇑a" d="M66.84 13.5c1.17.83 1.76.83 1.76 2.77s0 3.84.0 9.11"/><path id="kvg:08b2b-s9" kvg:type="㇐" d="M46.49 27.53c1.36.36 2.96.42 4.31.36 7.68-.31 28.58-3.46 40.2-3.72 2.27-.05 3.63.17 4.77.36"/></g><path id="kvg:08b2b-s10" kvg:type="㇔" d="M56.92 30.08c3.06 4.15 4.45 8.39 4.72 11.12"/><path id="kvg:08b2b-s11" kvg:type="㇒" d="M83.81 27.32c.63.45.71.67.63 1.04-.51 2.54-5.2 10.6-6.47 12.54"/><g id="kvg:08b2b-g5" kvg:element="冂"><path id="kvg:08b2b-s12" kvg:type="㇑" d="M49.01 43.72c.47.85.78 2.21.63 3.75-.16 1.53.16 46.66.16 49.21"/><path id="kvg:08b2b-s13" kvg:type="㇆a" d="M49.63 45.42c5.96-.68 38.62-3.72 39.8-3.96 2.51-.51 4.35 1.8 4.07 2.6-.47 1.36-.47 42.55-.47 46.47.0 8.82-3.72 2.21-5.6.0"/></g><g id="kvg:08b2b-g6" kvg:element="古"><g id="kvg:08b2b-g7" kvg:element="十" kvg:position="top"><path id="kvg:08b2b-s14" kvg:type="㇐" d="M55.76 58.11c.37.12 1.34.44 2.31.35 3.97-.35 21.2-2.33 26.92-2.33.97.0 1.22-.12 1.82.0"/><path id="kvg:08b2b-s15" kvg:type="㇑a" d="M68.87 48.27c1.23 1.11 1.55 3.71 1.55 3.81.05 6.78-.1 10.42-.1 17.46"/></g><g id="kvg:08b2b-g8" kvg:element="口" kvg:position="bottom"><path id="kvg:08b2b-s16" kvg:type="㇑" d="M59.12 70.48c.18.43.38.73.44 1.05.44 2.38 2.01 10.96 2.63 15.47"/><path id="kvg:08b2b-s17" kvg:type="㇕b" d="M60.04 71.18c4.95-.48 16.46-2.72 19.84-2.79 1.4-.03 2.15.67 2.03 1.4-.46 2.74-2.36 9.9-3.11 13.53"/><path id="kvg:08b2b-s18" kvg:type="㇐b" d="M63.39 85.13c5.61-.38 12.63-1.69 17.55-1.94"/></g></g></g></g></g></svg>