<svg xmlns="http://www.w3.org/2000/svg" width="109" height="109" viewBox="0 0 109 109"><g id="kvg:StrokePaths_08b33" style="fill:none;stroke:#000000;stroke-width:3;stroke-linecap:round;stroke-linejoin:round;"><g id="kvg:08b33" kvg:element="謳"><g id="kvg:08b33-g1" kvg:element="言" kvg:position="left" kvg:radical="general"><path id="kvg:08b33-s1" kvg:type="㇔" d="M19.8 15c2.96 1.54 7.64 6.35 8.38 8.75"/><path id="kvg:08b33-s2" kvg:type="㇐" d="M9.12 35.08c.71.23 3.4.27 4.1.23 8.73-.42 16.48-2.67 22.83-2.87 1.18-.04 2.95.11 3.54.23"/><path id="kvg:08b33-s3" kvg:type="㇐" d="M16.68 47.56c.43.12 3.04.13 3.47.12 4.44-.14 8.86-1.43 13.34-2.05.7-.1 2.18.06 2.54.12"/><path id="kvg:08b33-s4" kvg:type="㇐" d="M16.3 60.83c.38.12 2.71.13 3.1.12 3.97-.13 10.93-2.11 14.83-2.09.63.0 2.29.06 2.6.11"/><g id="kvg:08b33-g2" kvg:element="口"><path id="kvg:08b33-s5" kvg:type="㇑" d="M15.29 73.67c.35.32.74 1.02.85 1.45.99 3.73 2.68 12.9 3.67 18.38"/><path id="kvg:08b33-s6" kvg:type="㇕b" d="M16.56 74.97c6.39-.79 12.78-2.31 18.68-3.11 1.48-.2 2.38.92 2.16 1.83-.88 3.77-1.21 7.74-2.77 14.01"/><path id="kvg:08b33-s7" kvg:type="㇐b" d="M20.09 90.21c4.77-.48 9.48-.86 16.03-1.6"/></g></g><g id="kvg:08b33-g3" kvg:element="區" kvg:position="right"><g id="kvg:08b33-g4" kvg:element="匚" kvg:part="1" kvg:position="kamae"><path id="kvg:08b33-s8" kvg:type="㇐" d="M44.88 19.88c1.4.53 3.96.61 5.36.53 14.55-.89 26.26-2.91 39.48-3.59 2.33-.12 3.73-.25 4.89.02"/></g><g id="kvg:08b33-g5" kvg:element="品"><g id="kvg:08b33-g6" kvg:element="口" kvg:position="top"><path id="kvg:08b33-s9" kvg:type="㇑" d="M61.78 28.71c.25.28.52.51.63.86.88 2.76 1.94 10.39 2.55 15.35"/><path id="kvg:08b33-s10" kvg:type="㇕b" d="M62.93 30.07c6.09-1.06 16.34-2.3 19.83-2.72 1.28-.16 2.04.92 1.86 1.83-.75 3.77-1.29 5.83-2.41 11.04"/><path id="kvg:08b33-s11" kvg:type="㇐b" d="M64.93 42.73c4.1-.48 13.28-1.31 18.91-2.04"/></g><g id="kvg:08b33-g7" kvg:position="bottom"><g id="kvg:08b33-g8" kvg:element="口" kvg:position="left"><path id="kvg:08b33-s12" kvg:type="㇑" d="M55.08 57.89c.34.36.69.66.84 1.12 1.18 3.59 2.43 14.79 3.23 21.24"/><path id="kvg:08b33-s13" kvg:type="㇕b" d="M56.3 59.32c4.34-.95 8.66-3.02 12.65-3.49 1.46-.17 2.33 1.02 2.12 2.04-.86 4.19-1.47 12.56-2.75 18.36"/><path id="kvg:08b33-s14" kvg:type="㇐b" d="M59.08 78.1c4.68-.53 10.82-1.42 12.6-1.31"/></g><g id="kvg:08b33-g9" kvg:element="口" kvg:position="right"><path id="kvg:08b33-s15" kvg:type="㇑" d="M76.81 55.32c.31.44.62.8.76 1.34 1.07 4.31 1.93 15.66 2.66 23.41"/><path id="kvg:08b33-s16" kvg:type="㇕b" d="M78.01 57.13c5.94-1.69 9.66-2.58 13.27-3.14 1.32-.21 2.11 1.23 1.92 2.44-.78 5.04-1.2 11.18-2.36 18.15"/><path id="kvg:08b33-s17" kvg:type="㇐b" d="M80.43 77.94c4.24-.64 6.41-.64 12.23-1.63"/></g></g></g><g id="kvg:08b33-g10" kvg:element="匚" kvg:part="2" kvg:position="kamae"><path id="kvg:08b33-s18" kvg:type="㇗" d="M49.41 21.11c0 3.5-.4 64.64-.4 67.92.0 2.78 1.33 3.71 2.77 3.5 10.48-1.53 29.98-3.28 40.57-3.86 2.67-.15 3.57.33 5.66 1.16"/></g></g></g></g></svg>