<svg xmlns="http://www.w3.org/2000/svg" width="109" height="109" viewBox="0 0 109 109"><g id="kvg:StrokePaths_08b41" style="fill:none;stroke:#000000;stroke-width:3;stroke-linecap:round;stroke-linejoin:round;"><g id="kvg:08b41" kvg:element="譁"><g id="kvg:08b41-g1" kvg:element="言" kvg:position="left" kvg:radical="general"><path id="kvg:08b41-s1" kvg:type="㇔" d="M18.05 14.75c3.75 1.94 9.69 7.98 10.63 11"/><path id="kvg:08b41-s2" kvg:type="㇐" d="M8.62 35.08c.71.23 3.4.27 4.1.23 8.73-.42 15.48-2.17 21.83-2.37 1.18-.04 2.95.11 3.54.23"/><path id="kvg:08b41-s3" kvg:type="㇐" d="M13.18 48.56c.43.12 3.04.13 3.47.12 4.44-.14 9.86-1.43 14.34-2.05.7-.1 2.68.06 3.04.12"/><path id="kvg:08b41-s4" kvg:type="㇐" d="M13.3 60.83c.38.12 2.71.13 3.1.12 3.97-.13 11.93-2.11 15.83-2.09.63.0 2.29.06 2.6.11"/><g id="kvg:08b41-g2" kvg:element="口"><path id="kvg:08b41-s5" kvg:type="㇑" d="M12.51 73.9c.39.36.83 1.15.96 1.63 1.11 4.21 1.78 10.71 2.64 19.21"/><path id="kvg:08b41-s6" kvg:type="㇕b" d="M13.94 75.37c7.2-.89 11.9-2.6 18.55-3.5 1.67-.22 2.68 1.04 2.44 2.06-.99 4.25-.86 8.22-2.62 15.28"/><path id="kvg:08b41-s7" kvg:type="㇐b" d="M16.42 92.55C21.8 92 26.6 91.07 33.98 90.24"/></g></g><g id="kvg:08b41-g3" kvg:element="華" kvg:position="right"><g id="kvg:08b41-g4" kvg:element="艹" kvg:variant="true" kvg:original="艸" kvg:position="top"><path id="kvg:08b41-s8" kvg:type="㇐" d="M41.52 23.45c1.06.41 3.4.49 4.46.41 9.78-.75 34.42-3.46 45.69-3.52 1.77-.01 3.38.19 4.27.4"/><path id="kvg:08b41-s9" kvg:type="㇑a" d="M56.29 13.18c1.1 1.12 1.45 1.45 1.57 2.14 1.1 6.42 2.04 13.04 2.36 15.38"/><path id="kvg:08b41-s10" kvg:type="㇑a" d="M79.47 11.63c.46 1.09.89 1.81.58 3.19-1.08 4.85-1.35 7.66-2.69 14.58"/></g><g id="kvg:08b41-g5" kvg:position="bottom"><path id="kvg:08b41-s11" kvg:type="㇐" d="M45.25 36.31c1.17.45 2.54.55 3.71.45 7.64-.68 26.56-1.98 39.23-2.84 1.95-.13 3.12.21 4.1.44"/><path id="kvg:08b41-s12" kvg:type="㇐" d="M38.85 51.18c1.67.56 4.73.71 6.4.56 17.79-1.55 31.19-2.87 49.81-2.86 2.78.0 4.45.27 5.84.55"/><path id="kvg:08b41-s13" kvg:type="㇑" d="M51.09 41.87c1.5 1.24 2.08 1.61 2.14 2.39.52 6.49 1.39 15.45 1.81 18.06"/><path id="kvg:08b41-s14" kvg:type="㇑" d="M86.81 39.21c.3 1.14.85 2.39.71 3.88-.59 6.06-.89 10.13-1.77 17.39"/><path id="kvg:08b41-s15" kvg:type="㇐" d="M43.85 67.7c1.38.53 2.99.64 4.38.53 11.6-.94 32.28-2.88 41.47-2.86 2.3.01 3.69.25 4.84.52"/><path id="kvg:08b41-s16" kvg:type="㇐" d="M41.54 81.54c1.5.47 3.24.57 4.73.47 9-.62 31.66-2.06 47.84-2.97 2.48-.14 3.99.22 5.23.46"/><g id="kvg:08b41-g6" kvg:element="丨"><path id="kvg:08b41-s17" kvg:type="㇑" d="M66.93 36.64c1.2.52 1.92 2.34 2.16 3.37.24 1.04.0 53.75-.24 60.24"/></g></g></g></g></g></svg>