<svg xmlns="http://www.w3.org/2000/svg" width="109" height="109" viewBox="0 0 109 109"><g id="kvg:StrokePaths_08b5f" style="fill:none;stroke:#000000;stroke-width:3;stroke-linecap:round;stroke-linejoin:round;"><g id="kvg:08b5f" kvg:element="譟"><g id="kvg:08b5f-g1" kvg:element="言" kvg:position="left" kvg:radical="general"><path id="kvg:08b5f-s1" kvg:type="㇔" d="M20.63 14c3.57 1.89 9.23 7.76 10.12 10.7"/><path id="kvg:08b5f-s2" kvg:type="㇐" d="M10.37 34.17c.65.21 3.14.25 3.79.21 8.06-.39 17.54-2.46 23.41-2.65 1.09-.03 2.73.1 3.27.21"/><path id="kvg:08b5f-s3" kvg:type="㇐" d="M14.73 45.75c.38.13 2.71.14 3.1.13 3.97-.14 13.92-1.38 17.21-2.16.62-.15 2.79.06 3.11.12"/><path id="kvg:08b5f-s4" kvg:type="㇐" d="M14.73 57.17c.34.12 2.42.11 2.77.12 5 .21 12.5-.79 16.81-1.21.56-.05 2.94.06 3.22.12"/><g id="kvg:08b5f-g2" kvg:element="口"><path id="kvg:08b5f-s5" kvg:type="㇑" d="M15.39 71.33c.37.42.79.75.91 1.3 1.05 4.84 2.39 15.01 3.45 22.12"/><path id="kvg:08b5f-s6" kvg:type="㇕b" d="M16.81 72.92c6.44-.94 12.48-2.69 18.42-3.63 1.49-.23 2.39 1.09 2.18 2.17-.89 4.47-1.16 11.05-2.74 18.49"/><path id="kvg:08b5f-s7" kvg:type="㇐b" d="M19.97 91.93c4.8-.57 10.6-1.05 17.19-1.93"/></g></g><g id="kvg:08b5f-g3" kvg:element="喿" kvg:position="right"><g id="kvg:08b5f-g4" kvg:element="品" kvg:position="top"><g id="kvg:08b5f-g5" kvg:element="口" kvg:position="top"><path id="kvg:08b5f-s8" kvg:type="㇑" d="M51.54 14.82c.36.29.73.53.89.89 1.25 2.87 2.2 10.48 3.06 15.63"/><path id="kvg:08b5f-s9" kvg:type="㇕b" d="M53.41 16.75c7.4-1.49 22.24-3.38 26.48-3.76 1.55-.14 2.48 1.09 2.26 1.9-.92 3.35-1.71 7.4-3.08 12.03"/><path id="kvg:08b5f-s10" kvg:type="㇐b" d="M56.67 29.4c4.98-.43 17.34-1.42 24.18-2.07"/></g><g id="kvg:08b5f-g6" kvg:position="bottom"><g id="kvg:08b5f-g7" kvg:element="口" kvg:position="left"><path id="kvg:08b5f-s11" kvg:type="㇑" d="M44.75 39.39c.31.28.62.52.75.87 1.06 2.79 1.61 9.47 2.33 14.49"/><path id="kvg:08b5f-s12" kvg:type="㇕b" d="M46.65 40.22c7.72-1.02 13.37-1.98 16.94-2.35 1.31-.13 2.09.79 1.9 1.58-.77 3.26-1.68 7.47-2.83 11.98"/><path id="kvg:08b5f-s13" kvg:type="㇐b" d="M47.98 52.83c4.2-.42 9.14-.38 16.96-.99"/></g><g id="kvg:08b5f-g8" kvg:element="口" kvg:position="right"><path id="kvg:08b5f-s14" kvg:type="㇑" d="M72.92 37.7c.26.3.53.56.65.94.91 3.01 1.45 8.78 2.08 14.19"/><path id="kvg:08b5f-s15" kvg:type="㇕b" d="M74.56 39.26c8.49-.99 14.5-2.2 18.42-2.56 1.44-.13 2.3.77 2.09 1.54-.85 3.17-2.34 7.79-3.61 12.17"/><path id="kvg:08b5f-s16" kvg:type="㇐b" d="M76.05 51.24c5.05-.35 9.68-.48 17.55-.94"/></g></g></g><g id="kvg:08b5f-g9" kvg:element="木" kvg:position="bottom"><path id="kvg:08b5f-s17" kvg:type="㇐" d="M45.15 67.05c1.35.41 2.89.54 4.44.41 7.92-.67 30.9-2.03 42.88-2.82 1.54-.1 2.51.07 4.06.36"/><path id="kvg:08b5f-s18" kvg:type="㇑" d="M66.54 55.67c1.35.54 2.43 2.4 2.43 3.51.0 11.34.0 32.91-.27 39.66"/><path id="kvg:08b5f-s19" kvg:type="㇒" d="M68.3 66.93c-4.78 8.3-17.6 20.97-27.55 25.67"/><path id="kvg:08b5f-s20" kvg:type="㇏" d="M69.79 66.75c3.25 3.04 18.51 18.29 22.04 21.28 1.2 1.01 2.22 1.45 3.42 1.74"/></g></g></g></g></svg>