<svg xmlns="http://www.w3.org/2000/svg" width="109" height="109" viewBox="0 0 109 109"><g id="kvg:StrokePaths_08b56"><g id="kvg:08b56" kvg:element="譖"><g id="kvg:08b56-g1" kvg:element="言" kvg:position="left" kvg:radical="general"><path id="kvg:08b56-s1" kvg:type="㇔" d="M18.8 17.25c3.66 2.12 9.46 8.71 10.38 12"/><path id="kvg:08b56-s2" kvg:type="㇐" d="M9.12 38.27c.71.19 3.4.22 4.1.19 8.73-.34 15.28-2.21 21.83-2.93 1.17-.13 2.95.09 3.54.19"/><path id="kvg:08b56-s3" kvg:type="㇐" d="M14.68 50.06c.43.12 3.04.13 3.47.12 4.44-.14 9.86-1.93 14.34-2.55.7-.1 2.68.06 3.04.12"/><path id="kvg:08b56-s4" kvg:type="㇐" d="M14.8 62.83c.38.12 2.71.13 3.1.12 3.97-.13 11.11-1.7 14.83-2.09.63-.07 2.29.06 2.6.11"/><g id="kvg:08b56-g2" kvg:element="口"><path id="kvg:08b56-s5" kvg:type="㇑" d="M15.51 76.4c.39.36.83 1.15.96 1.63 1.11 4.21 1.52 15.04 2.64 21.21"/><path id="kvg:08b56-s6" kvg:type="㇕b" d="M16.94 78.37c7.2-.89 10.4-2.1 17.05-3 1.67-.22 2.68 1.04 2.44 2.06-.99 4.25-1.36 9.22-3.12 16.28"/><path id="kvg:08b56-s7" kvg:type="㇐b" d="M19.42 96.55c5.37-.54 9.18-.97 16.56-1.81"/></g></g><g id="kvg:08b56-g3" kvg:position="right"><g id="kvg:08b56-g4" kvg:position="top"><g id="kvg:08b56-g5" kvg:element="旡" kvg:variant="true" kvg:original="无" kvg:position="left"><path id="kvg:08b56-s8" kvg:type="㇐" d="M42.57 19.54c.55.24 1.56.33 2.1.24 2.86-.45 14.23-1.63 18.27-1.85.91-.05 1.46.12 1.92.24"/><path id="kvg:08b56-s9" kvg:type="㇄" d="M45.7 24.6c.26.31.58 1.64.52 2.27C46 29 45 31.5 44.19 33.63c-.78 2.05.39 2.36 1.01 2.12C51 33.5 58 32.69 63.88 32.47c.68-.02 2.11.37 2.64.63"/><g id="kvg:08b56-g6" kvg:element="儿"><g id="kvg:08b56-g7" kvg:element="八" kvg:variant="true"><g id="kvg:08b56-g8" kvg:element="丿" kvg:position="left"><path id="kvg:08b56-s10" kvg:type="㇒" d="M57.89 10.9c.25.62.45 1.81.31 3.33C56.71 29.54 52 45.25 41.5 55.25"/></g><g id="kvg:08b56-g9" kvg:position="right"><path id="kvg:08b56-s11" kvg:type="㇟" d="M56.15 38.2c.28.5.5 1.1.52 1.88.08 3.47-.21 9.24-.21 10.83s-.2 3.34 1.8 1.84 6-4.75 8.75-7"/></g></g></g></g><g id="kvg:08b56-g10" kvg:element="旡" kvg:variant="true" kvg:original="无" kvg:position="right"><path id="kvg:08b56-s12" kvg:type="㇐" d="M71.07 17.79c.6.24 1.7.33 2.29.24 3.12-.45 15.01-1.63 19.41-1.85 1-.05 1.59.12 2.09.24"/><path id="kvg:08b56-s13" kvg:type="㇄" d="M73.7 22.85c.26.31.69 1.66.52 2.27-.96 3.38.54 1.38-1.52 5.27-1.03 1.93.38 2.35 1.01 2.12 6.05-2.25 14.8-3.06 20.68-3.27.68-.02 2.11.37 2.64.63"/><g id="kvg:08b56-g11" kvg:element="儿"><g id="kvg:08b56-g12" kvg:element="八" kvg:variant="true"><g id="kvg:08b56-g13" kvg:element="丿" kvg:position="left"><path id="kvg:08b56-s14" kvg:type="㇒" d="M85.36 10.65c.26.6.49 1.75.33 3.22C84.09 28.66 80 43.25 67.75 53.5"/></g><g id="kvg:08b56-g14" kvg:position="right"><path id="kvg:08b56-s15" kvg:type="㇟" d="M83.65 35.95c.31.5.56 1.1.58 1.88.08 3.47-.24 8.99-.24 11.33s2.58 4.19 7.04 3.89 7.53-.55 6.97-4.37"/></g></g></g></g></g><g id="kvg:08b56-g15" kvg:element="日" kvg:position="bottom"><path id="kvg:08b56-s16" kvg:type="㇑" d="M50.74 63.98c.26.58 1.38 2.05 1.44 2.77.57 7.31 1.95 19.89 2.73 30.71"/><path id="kvg:08b56-s17" kvg:type="㇕a" d="M52.05 65.67c9.76-1.31 26-2.53 33.29-3.62 2.68-.4 4.05 1.02 3.91 2.45-.5 5.24-1 21-2.97 30.25"/><path id="kvg:08b56-s18" kvg:type="㇐a" d="M54.37 78.61c3.18-.51 30.62-2.26 33.25-2.47"/><path id="kvg:08b56-s19" kvg:type="㇐a" d="M55.41 94.04c7.03-.56 19.34-1.04 30.87-1.79"/></g></g></g></g></svg>