<svg xmlns="http://www.w3.org/2000/svg" width="109" height="109" viewBox="0 0 109 109"><g id="kvg:StrokePaths_08b6c"><g id="kvg:08b6c" kvg:element="譬"><g id="kvg:08b6c-g1" kvg:element="辟" kvg:position="top"><g id="kvg:08b6c-g2"><g id="kvg:08b6c-g3" kvg:element="𡰪"><g id="kvg:08b6c-g4" kvg:element="尸" kvg:position="tare"><path id="kvg:08b6c-s1" kvg:type="㇕c" d="M20.88 14.65c1.13.34 3.32.65 4.52.58 6.46-.38 18.57-2.47 21.16-2.61 1.28-.07 2.45.87 2.18 1.86-.67 2.45-2.54 5.7-3.6 11.14"/><path id="kvg:08b6c-s2" kvg:type="㇐b" d="M24.92 28.35c3.24-.11 14.07-1.62 22.42-2.09"/><path id="kvg:08b6c-s3" kvg:type="㇒" d="M25.65 16c0 1.51-.25 4.29-.27 5.71-.18 10.25-3.97 23.26-12.33 29.83"/></g><g id="kvg:08b6c-g5" kvg:element="口" kvg:position="tarec"><path id="kvg:08b6c-s4" kvg:type="㇑" d="M26.59 36.3c.13.51.57 1.67.62 2.06.33 2.84 1.34 9.88 1.8 15.26"/><path id="kvg:08b6c-s5" kvg:type="㇕b" d="M27.26 37.6c3.66-.57 14.22-2.52 16.72-2.6 1.03-.04 1.42 1.2 1.28 2.04-.56 3.36-1.96 7.47-2.51 11.76"/><path id="kvg:08b6c-s6" kvg:type="㇐b" d="M29.2 50.85c3.03-.24 11.53-1.32 15.17-1.62"/></g></g></g><g id="kvg:08b6c-g6" kvg:element="辛" kvg:position="right"><g id="kvg:08b6c-g7" kvg:element="立" kvg:position="top"><g id="kvg:08b6c-g8" kvg:element="亠" kvg:position="top"><path id="kvg:08b6c-s7" kvg:type="㇑a" d="M68.5 7.59c1.26.84 1.88.84 1.88 2.8s0 3.63.0 6.2"/><path id="kvg:08b6c-s8" kvg:type="㇐" d="M56.11 17.91c.94.37 2.04.43 2.98.37 5.31-.32 18.4-1.84 26.43-2.11 1.57-.05 2.51.18 3.29.36"/></g><g id="kvg:08b6c-g9" kvg:position="bottom"><path id="kvg:08b6c-s9" kvg:type="㇔" d="M62.33 20.5c2.18 2.01 3.18 4.07 3.37 5.39"/><path id="kvg:08b6c-s10" kvg:type="㇒" d="M80.08 19.08c.39.24.13 1.13.02 1.31-1.13 1.82-2.57 4.94-3.34 5.98"/><path id="kvg:08b6c-s11" kvg:type="㇐" d="M52.97 28.92c1.18.41 2.56.45 3.74.41 7.53-.23 22.78-1.98 31.61-2.22 1.97-.05 3.15.2 4.14.4"/></g></g><g id="kvg:08b6c-g10" kvg:element="十" kvg:position="bottom"><path id="kvg:08b6c-s12" kvg:type="㇐" d="M54.83 39.33c.97.25 2.76.31 3.73.25 12.36-.82 16.8-2.01 28.26-2.53 1.62-.07 2.59.12 3.4.24"/><path id="kvg:08b6c-s13" kvg:type="㇑" d="M70.26 30.04c.44.25 1.38 1.91 1.47 2.42.51 2.93-.13 20.84-.15 21.59"/></g></g></g><g id="kvg:08b6c-g11" kvg:element="言" kvg:position="bottom" kvg:radical="general"><path id="kvg:08b6c-s14" kvg:type="㇔" d="M50.75 47.5c2.56 1.46 6.61 5.99 7.25 8.25"/><path id="kvg:08b6c-s15" kvg:type="㇐" d="M15.38 63.99c1.77.63 5.03.81 6.8.63 21.08-2.12 49.59-4.69 64.25-4.94 2.95-.05 4.73.3 6.2.62"/><path id="kvg:08b6c-s16" kvg:type="㇐" d="M35.88 70.15c.6.23 2.7.25 3.3.23 6.25-.26 25.57-2.38 29.22-2.6 1-.06 3.6.11 4.1.22"/><path id="kvg:08b6c-s17" kvg:type="㇐" d="M36.38 78.15c.6.23 2.7.25 3.3.23 6.25-.26 24.82-2.63 29.22-2.6 1 0 3.6.11 4.1.22"/><g id="kvg:08b6c-g12" kvg:element="口"><path id="kvg:08b6c-s18" kvg:type="㇑" d="M37.25 86.5c.52.41 1.06.75 1.28 1.27 1.22 2.98 1.47 8.98 2.18 13.23"/><path id="kvg:08b6c-s19" kvg:type="㇕b" d="M38.98 87.77c12.52-1.52 22.77-2.52 31.6-3.53 2.21-.25 3.48 1.15 3.24 2.32-.56 2.69-2.06 5.94-3.31 10.16"/><path id="kvg:08b6c-s20" kvg:type="㇐b" d="M41.95 98.91c8.8-.41 19.8-1.66 31.77-2.09"/></g></g></g></g></svg>