<svg xmlns="http://www.w3.org/2000/svg" width="109" height="109" viewBox="0 0 109 109"><g id="kvg:StrokePaths_08b6f" style="fill:none;stroke:#000000;stroke-width:3;stroke-linecap:round;stroke-linejoin:round;"><g id="kvg:08b6f" kvg:element="譯"><g id="kvg:08b6f-g1" kvg:element="言" kvg:position="left" kvg:radical="general"><path id="kvg:08b6f-s1" kvg:type="㇔" d="M19.13 12c3.75 2.07 9.68 8.52 10.62 11.75"/><path id="kvg:08b6f-s2" kvg:type="㇐" d="M10.37 31.58c.63.23 3.04.27 3.67.23 7.8-.42 16.97-2.67 22.64-2.87 1.05-.04 2.64.11 3.16.23"/><path id="kvg:08b6f-s3" kvg:type="㇐" d="M15.23 43.06c.38.12 2.71.13 3.1.12 3.97-.14 11.8-2.06 15.71-2.05.63.0 3.29.06 3.61.12"/><path id="kvg:08b6f-s4" kvg:type="㇐" d="M15.23 56.83c.34.12 2.42.13 2.77.12 3.55-.13 12.32-2.11 15.81-2.09.57.0 2.94.06 3.22.11"/><g id="kvg:08b6f-g2" kvg:element="口"><path id="kvg:08b6f-s5" kvg:type="㇑" d="M15.64 70.4c.55.57 1.17 1.03 1.35 1.78 1.56 6.59 2.02 13.57 2.6 23.32"/><path id="kvg:08b6f-s6" kvg:type="㇕b" d="M17.31 72.37c6.44-.89 11.48-2.1 17.42-3 1.49-.22 2.39 1.04 2.18 2.06-.89 4.25-1.16 10.22-2.74 17.28"/><path id="kvg:08b6f-s7" kvg:type="㇐b" d="M20.47 91.55c4.8-.54 9.1-.97 15.69-1.81"/></g></g><g id="kvg:08b6f-g3" kvg:element="睪" kvg:position="right"><g id="kvg:08b6f-g4" kvg:element="罒" kvg:variant="true" kvg:original="网" kvg:position="top"><path id="kvg:08b6f-s8" kvg:type="㇑" d="M44.5 14.14c.26.3 1.61 2.05 1.72 2.43.89 3 2.49 9.78 3.1 15.17"/><path id="kvg:08b6f-s9" kvg:type="㇕a" d="M46.09 16.18c9.89-1.18 41.97-3.8 44.96-4.19 1.09-.14 3.58 2.02 3.29 3.7-.61 3.52-2.12 7.06-3.75 12.09"/><path id="kvg:08b6f-s10" kvg:type="㇑a" d="M61.42 15.5c.17 2 1.38 10.75 1.55 13"/><path id="kvg:08b6f-s11" kvg:type="㇑a" d="M77.6 14.25c-.17 3.25-.03 10.25-.38 12.25"/><path id="kvg:08b6f-s12" kvg:type="㇐a" d="M49.58 29.62C55.71 29.25 80.3 26 91 25.71"/></g><g id="kvg:08b6f-g5" kvg:element="幸" kvg:position="bottom"><g id="kvg:08b6f-g6" kvg:element="土" kvg:position="top"><path id="kvg:08b6f-s13" kvg:type="㇐" d="M50.57 40.2c.95.32 2.68.4 3.62.32 12.14-1.08 20.69-3.17 32.91-3.45 1.57-.04 2.52.15 3.31.31"/><path id="kvg:08b6f-s14" kvg:type="㇑a" d="M67.77 30.75c.07.25 1.05 1.3 1.05 2.88.0 10.31-.12 12.77-.12 15.36"/><path id="kvg:08b6f-s15" kvg:type="㇐" d="M44.13 51.19c1.24.4 3.52.5 4.76.4 13.36-1.09 27.8-3.29 43.39-3.95 2.07-.09 3.31.19 4.35.39"/></g><g id="kvg:08b6f-g7" kvg:element="𢆉"><g id="kvg:08b6f-g8" kvg:element="䒑" kvg:part="1"><path id="kvg:08b6f-s16" kvg:type="㇔" d="M55.66 53.73c1.3 1.37 3.37 5.63 3.69 7.75"/><path id="kvg:08b6f-s17" kvg:type="㇒" d="M81.96 52.25c.02.22.03.57-.03.88-.35 1.87-2.35 5.96-5.1 8.47"/></g><g id="kvg:08b6f-g9" kvg:element="干" kvg:position="bottom"><g id="kvg:08b6f-g10" kvg:element="䒑" kvg:part="2"><path id="kvg:08b6f-s18" kvg:type="㇐" d="M45.71 65.12c.97.36 4.29.38 5.26.32 6.68-.42 27.11-2.66 38.5-3.37 1.6-.1 4.97.31 5.78.49"/></g><g id="kvg:08b6f-g11" kvg:element="十"><path id="kvg:08b6f-s19" kvg:type="㇐" d="M47.24 77.38c1.53.47 4.36.6 5.89.47 10.54-.89 22.8-2.45 34.94-2.77 2.56-.07 4.09.23 5.37.46"/><path id="kvg:08b6f-s20" kvg:type="㇑" d="M66.99 66.99c.32.43.99 2.37 1.05 3.23s-.04 24.91-.1 30.28"/></g></g></g></g></g></g></g></svg>