<svg xmlns="http://www.w3.org/2000/svg" width="109" height="109" viewBox="0 0 109 109"><g id="kvg:StrokePaths_08b70" style="fill:none;stroke:#000000;stroke-width:3;stroke-linecap:round;stroke-linejoin:round;"><g id="kvg:08b70" kvg:element="議"><g id="kvg:08b70-g1" kvg:element="言" kvg:position="left" kvg:radical="general"><path id="kvg:08b70-s1" kvg:type="㇔" d="M23.75 15.5c2.38 1.46 6.15 5.98 6.75 8.25"/><path id="kvg:08b70-s2" kvg:type="㇐" d="M11.37 34.08c.63.23 3.03.26 3.67.23C22.25 34 31 32.25 38.93 31.19c1.05-.14 2.64.11 3.16.23"/><path id="kvg:08b70-s3" kvg:type="㇐" d="M17.98 47.56c.99.31 2.38.14 3.39.06 3.67-.29 8.73-1.4 12.76-1.89 1.15-.14 2.36-.21 3.51.01"/><path id="kvg:08b70-s4" kvg:type="㇐" d="M18.48 60.08c1.1.38 2.76.14 3.91.05 3.19-.23 7.37-.93 10.76-1.41 1.19-.17 2.69-.5 3.88-.26"/><g id="kvg:08b70-g2" kvg:element="口"><path id="kvg:08b70-s5" kvg:type="㇑" d="M17.14 73.65c.77.68 1.16 1.78 1.17 2.81.7 3.43 1.4 8.21 2.1 12.78.2 1.28.39 2.55.59 3.76"/><path id="kvg:08b70-s6" kvg:type="㇕b" d="M19.31 74.37c6.44-.89 11.23-2.1 17.17-3 1.49-.22 2.39 1.04 2.18 2.06-.89 4.25-1.66 6.72-3.24 13.78"/><path id="kvg:08b70-s7" kvg:type="㇐b" d="M21.72 90.3c3.89-.44 7.44-.97 12.16-1.6 1.11-.15 2.28-.3 3.54-.46"/></g></g><g id="kvg:08b70-g3" kvg:element="義" kvg:position="right" kvg:phon="義"><g id="kvg:08b70-g4" kvg:element="羊" kvg:variant="true" kvg:position="top"><g id="kvg:08b70-g5" kvg:element="䒑"><path id="kvg:08b70-s8" kvg:type="㇔" d="M50.93 13.95c2.58 1.52 6.67 6.23 7.32 8.59"/><path id="kvg:08b70-s9" kvg:type="㇒" d="M76.38 9.25c.02.35.09 1.16-.04 1.65-.83 3.1-2.8 7.38-6.12 11.27"/><path id="kvg:08b70-s10" kvg:type="㇐" d="M49.06 27.75c1.81.37 4.15.29 5.57.03 6.06-1.14 17.68-3.27 23.88-3.99 1.63-.19 3.66-.46 5.27-.02"/></g><path id="kvg:08b70-s11" kvg:type="㇑a" d="M65.28 27.21c.94.94 1.22 2.29 1.22 3.72.0 2.82-.14 7.44-.14 11.75"/><path id="kvg:08b70-s12" kvg:type="㇐" d="M51.3 36.49c2.08.39 4.1.1 5.62-.13 5.23-.81 14.22-2.28 19.35-2.78 1.52-.15 3.17-.35 4.68.06"/><path id="kvg:08b70-s13" kvg:type="㇐" d="M45.78 45.82c2.47.56 5.42.23 7.59-.1 7.12-1.09 21.41-3.3 30.14-4.24 2.49-.27 5-.71 7.47-.11"/></g><g id="kvg:08b70-g6" kvg:element="我" kvg:position="bottom"><g id="kvg:08b70-g7" kvg:element="丿"><path id="kvg:08b70-s14" kvg:type="㇒" d="M56.76 50.12c.12.63-.05 1.28-.35 1.64-1.96 2.39-5.6 5.52-12.66 8.73"/></g><g id="kvg:08b70-g8" kvg:element="戈" kvg:part="1"><g id="kvg:08b70-g9" kvg:element="弋" kvg:part="1"><path id="kvg:08b70-s15" kvg:type="㇐" d="M43.22 65.89c2.66.61 5.89.36 8.56-.05 8.24-1.26 22.23-4.44 32.84-5.7 2.63-.31 5.06-.53 7.66.07"/></g></g><g id="kvg:08b70-g10" kvg:element="亅"><path id="kvg:08b70-s16" kvg:type="㇚" d="M55.01 56.65c.07.28.95 1.47.95 3.27.0 10.95-.08 28.88-.08 32.7.0 5.12-4.32 1.15-6.7-.4"/></g><path id="kvg:08b70-s17" kvg:type="㇀" d="M44.88 82.88c1.25.62 2.49.25 3.25-.28.76-.51 11.48-8.71 14.69-11.18"/><g id="kvg:08b70-g11" kvg:element="戈" kvg:part="2"><path id="kvg:08b70-s18" kvg:type="㇂" d="M67.81 47.99c1.53 1.57 2.33 3.38 2.6 5.51 2.34 18.31 10.69 35.73 22.11 43.33 4.04 2.68 4.44-1.05 3.93-5.7"/><g id="kvg:08b70-g12" kvg:element="丿"><path id="kvg:08b70-s19" kvg:type="㇒" d="M84.87 66.62c.06.59.12 1.54-.11 2.39-1.39 5.04-9.03 16.67-19.91 23.45"/></g><g id="kvg:08b70-g13" kvg:element="弋" kvg:part="2"><g id="kvg:08b70-g14" kvg:element="丶"><path id="kvg:08b70-s20" kvg:type="㇔" d="M77.88 47.38c2.31 1.27 5.99 4.16 7.07 6.33"/></g></g></g></g></g></g></g></svg>