<!DOCTYPE svg PUBLIC "-//W3C//DTD SVG 1.0//EN" "http://www.w3.org/TR/2001/REC-SVG-20010904/DTD/svg10.dtd" [
<!ATTLIST g
xmlns:kvg CDATA #FIXED "http://kanjivg.tagaini.net"
kvg:element CDATA #IMPLIED
kvg:variant CDATA #IMPLIED
kvg:partial CDATA #IMPLIED
kvg:original CDATA #IMPLIED
kvg:part CDATA #IMPLIED
kvg:number CDATA #IMPLIED
kvg:tradForm CDATA #IMPLIED
kvg:radicalForm CDATA #IMPLIED
kvg:position CDATA #IMPLIED
kvg:radical CDATA #IMPLIED
kvg:phon CDATA #IMPLIED >
<!ATTLIST path
xmlns:kvg CDATA #FIXED "http://kanjivg.tagaini.net"
kvg:type CDATA #IMPLIED >
]><svg xmlns="http://www.w3.org/2000/svg" width="109" height="109" viewBox="0 0 109 109"><g id="kvg:StrokePaths_08b8a" style="fill:none;stroke:#000000;stroke-width:3;stroke-linecap:round;stroke-linejoin:round;"><g id="kvg:08b8a" kvg:element="變"><g id="kvg:08b8a-g1" kvg:element="䜌" kvg:position="top"><g id="kvg:08b8a-g2" kvg:element="言" kvg:radical="tradit"><path id="kvg:08b8a-s1" kvg:type="㇔" d="M48 9.5c2.59 1.1 6.68 4.52 7.32 6.24"/><path id="kvg:08b8a-s2" kvg:type="㇐" d="M41.28 22.85c.51.14 2.46.17 2.98.14 6.33-.26 13.77-1.66 18.37-1.79.85-.02 2.14.07 2.56.14"/><path id="kvg:08b8a-s3" kvg:type="㇐" d="M45.06 30.37c.36.09 2.59.1 2.96.09 3.79-.11 7.06-1.04 10.79-1.03.6.0 3.13.04 3.44.09"/><path id="kvg:08b8a-s4" kvg:type="㇐" d="M45.34 36.96c.3.07 2.16.08 2.46.07 3.16-.08 8.3-1.23 11.41-1.23.5.0 2.62.03 2.87.07"/><g id="kvg:08b8a-g3" kvg:element="口"><path id="kvg:08b8a-s5" kvg:type="㇑" d="M46.2 43.39c.28.21.59.38.68.66.78 2.47.83 8.08 1.62 11.7"/><path id="kvg:08b8a-s6" kvg:type="㇕b" d="M47.91 44.4c5.07-.52 8.96-1.37 13.63-1.9 1.17-.13 1.88.61 1.71 1.21-.7 2.49-1.31 5.37-2.55 9.51"/><path id="kvg:08b8a-s7" kvg:type="㇐b" d="M49.06 54.46c3.78-.32 7.63-.43 12.82-.92"/></g></g><g id="kvg:08b8a-g4" kvg:element="糸"><path id="kvg:08b8a-s8" kvg:type="㇜" d="M26.4 9.75c.31.99.48 1.76-.16 2.82-2.99 4.93-3.71 6.61-6.82 8.93-.64.48-.62 2.3.0 2.49 3.26.99 4.84 1.65 7.64 3.48"/><path id="kvg:08b8a-s9" kvg:type="㇜" d="M34.53 17.85c.29.45.38 1.93.0 2.4C29 27.31 24.75 31.09 17.15 37.53c-1.74 1.48.43 2.32 1.57 2.02 4.75-1.26 13.12-4.27 19.23-5.47"/><path id="kvg:08b8a-s10" kvg:type="㇔" d="M34.5 29.18c2.12 1.73 5.47 7.13 6 9.82"/><path id="kvg:08b8a-s11" kvg:type="㇑" d="M28.33 39.55c.05.23.73 1.21.78 2.68.25 7.08-.16 16.1-.16 18.51"/><path id="kvg:08b8a-s12" kvg:type="㇒" d="M21.01 45.37c.11.55.09 1.64-.11 2.04-1.3 2.58-4.56 7.55-6.4 9.77"/><path id="kvg:08b8a-s13" kvg:type="㇔" d="M35.25 44.08c2.62 1.89 4.64 6.29 5.25 8.01"/></g><g id="kvg:08b8a-g5" kvg:element="糸"><path id="kvg:08b8a-s14" kvg:type="㇜" d="M79.36 9.75c.28.73.42 1.3-.14 2.08-2.64 3.71-3.7 5.16-8.39 9.56-.46.43-.55 1.7.0 1.84 2.9.73 6.08 1.96 8.57 3.31"/><path id="kvg:08b8a-s15" kvg:type="㇜" d="M88.64 15.22c.24.35.31 1.51.0 1.88-4.65 5.53-12.01 12.94-18.4 17.99-1.46 1.16.36 1.82 1.32 1.58 4-.98 14.11-2.66 19.25-3.6"/><path id="kvg:08b8a-s16" kvg:type="㇔" d="M87.12 28c2.27 1.68 5.86 6.91 6.42 9.52"/><path id="kvg:08b8a-s17" kvg:type="㇑" d="M80.14 38.33c.04.21.61 1.08.66 2.4.21 6.32-.13 15.37-.13 17.52"/><path id="kvg:08b8a-s18" kvg:type="㇒" d="M73.29 44.6c.11.54.1 1.62-.11 2.01-1.37 2.54-4.79 7.44-6.72 9.62"/><path id="kvg:08b8a-s19" kvg:type="㇔" d="M87.34 43.78c3.15 2.14 5.56 7.11 6.29 9.05"/></g></g><g id="kvg:08b8a-g6" kvg:element="攵" kvg:variant="true" kvg:original="攴" kvg:position="bottom" kvg:radical="nelson"><g id="kvg:08b8a-g7" kvg:element="𠂉" kvg:position="top"><path id="kvg:08b8a-s20" kvg:type="㇒" d="M43 59.14c.06.51.35 1.34-.11 2.04-2.92 4.47-10.82 14.6-20.9 20.79"/><path id="kvg:08b8a-s21" kvg:type="㇐" d="M39.16 67.95c.06-.21 3.06.61 4.14.55 11.24-.63 17.83-2.87 35-3.88 1.93-.11 3.11-.03 3.61.1"/></g><g id="kvg:08b8a-g8" kvg:element="乂" kvg:position="bottom"><g id="kvg:08b8a-g9" kvg:element="丿"><path id="kvg:08b8a-s22" kvg:type="㇒" d="M66.73 68.61c.76.78.42 2.5-.62 3.75-9.87 11.89-22.87 20.39-46.49 27.89"/></g><path id="kvg:08b8a-s23" kvg:type="㇏" d="M37.87 72.49C47.75 78.25 68 89.25 83.82 96.11c2.63 1.14 4.46 1.05 6.68 1.15"/></g></g></g></g><g id="kvg:StrokeNumbers_08b8a" style="font-size:8;fill:#808080"><text transform="matrix(1 0 0 1 42.50 9.50)">1</text><text transform="matrix(1 0 0 1 40.88 21.13)">2</text><text transform="matrix(1 0 0 1 40.74 30.38)">3</text><text transform="matrix(1 0 0 1 40.49 36.88)">4</text><text transform="matrix(1 0 0 1 41.63 52.15)">5</text><text transform="matrix(1 0 0 1 48.50 43.50)">6</text><text transform="matrix(1 0 0 1 50.00 51.99)">7</text><text transform="matrix(1 0 0 1 19.50 10.50)">8</text><text transform="matrix(1 0 0 1 31.50 14.50)">9</text><text transform="matrix(1 0 0 1 30.61 28.75)">10</text><text transform="matrix(1 0 0 1 28.91 42.95)">11</text><text transform="matrix(1 0 0 1 9.63 47.99)">12</text><text transform="matrix(1 0 0 1 34.96 47.73)">13</text><text transform="matrix(1 0 0 1 68.50 10.50)">14</text><text transform="matrix(1 0 0 1 84.50 12.50)">15</text><text transform="matrix(1 0 0 1 88.50 28.50)">16</text><text transform="matrix(1 0 0 1 80.41 41.56)">17</text><text transform="matrix(1 0 0 1 62.99 47.01)">18</text><text transform="matrix(1 0 0 1 90.25 46.38)">19</text><text transform="matrix(1 0 0 1 32.50 60.87)">20</text><text transform="matrix(1 0 0 1 46.12 65.76)">21</text><text transform="matrix(1 0 0 1 68.19 73.62)">22</text><text transform="matrix(1 0 0 1 44.42 76.48)">23</text></g></svg>