<svg xmlns="http://www.w3.org/2000/svg" width="109" height="109" viewBox="0 0 109 109"><g id="kvg:StrokePaths_08b96"><g id="kvg:08b96" kvg:element="讖"><g id="kvg:08b96-g1" kvg:element="言" kvg:position="left" kvg:radical="general"><path id="kvg:08b96-s1" kvg:type="㇔" d="M16.55 16.5c3.22 1.72 8.32 7.07 9.13 9.75"/><path id="kvg:08b96-s2" kvg:type="㇐" d="M8.62 34.08c.71.23 3.4.27 4.1.23 8.73-.42 13.03-2.06 18.83-2.87 1.17-.16 2.45.11 3.04.23"/><path id="kvg:08b96-s3" kvg:type="㇐" d="M12.43 45.36c.38.11 2.71.12 3.09.11 3.96-.13 8.4-1.31 12.4-1.89.63-.09 2.78-.45 3.1-.39"/><path id="kvg:08b96-s4" kvg:type="㇐" d="M13.8 57.33c.38.12 2.71.13 3.1.12 3.97-.13 7.61-.95 11.83-1.59.63-.1 2.79.06 3.1.11"/><g id="kvg:08b96-g2" kvg:element="口"><path id="kvg:08b96-s5" kvg:type="㇑" d="M13.51 70.88c.3.36.63 1.14.73 1.62.84 4.16 1.51 14.25 2.14 22"/><path id="kvg:08b96-s6" kvg:type="㇕b" d="M14.6 72.83c5.47-.88 10.94-3.07 15.99-3.96 1.27-.22 2.03 1.03 1.85 2.04-.75 4.21-2.03 13.13-3.37 20.12"/><path id="kvg:08b96-s7" kvg:type="㇐b" d="M16.62 92.83c4.08-.54 9.61-.96 15.22-1.79"/></g></g><g id="kvg:08b96-g3" kvg:element="韱" kvg:position="right"><g id="kvg:08b96-g4" kvg:element="从"><g id="kvg:08b96-g5" kvg:element="人" kvg:position="left"><path id="kvg:08b96-s8" kvg:type="㇒" d="M46.11 14.37c.17.31.23.94.12 1.57-.98 5.56-3.73 14.56-8.26 20.49"/><path id="kvg:08b96-s9" kvg:type="㇏" d="M45.51 26.7c1.91 1.03 4.36 3.77 5.29 6.37"/></g><g id="kvg:08b96-g6" kvg:element="人" kvg:position="right"><path id="kvg:08b96-s10" kvg:type="㇒" d="M62.75 14.32c.25.33.28 1.02.17 1.7C62 22 58.5 31 52.92 36.63"/><path id="kvg:08b96-s11" kvg:type="㇏" d="M61.71 24.66c2.49 1.41 5.67 5.15 6.88 8.7"/></g></g><g id="kvg:08b96-g7" kvg:element="戈" kvg:part="1"><g id="kvg:08b96-g8" kvg:element="弋" kvg:part="1"><path id="kvg:08b96-s12" kvg:type="㇐" d="M36.12 43.15c1.5.59 4.24.69 5.75.59 11.7-.8 33.62-4.39 47.14-5.19 2.5-.15 4 .28 5.25.58"/></g></g><g id="kvg:08b96-g9" kvg:element="韭"><g id="kvg:08b96-g10" kvg:element="非"><path id="kvg:08b96-s13" kvg:type="㇑" d="M49.22 45.28c.52.3.83 1.36.93 1.97s0 38.33-.1 42.11"/><path id="kvg:08b96-s14" kvg:type="㇑" d="M57.66 44.07c.52.3.83 1.36.93 1.97s0 36.32-.1 40.1"/><path id="kvg:08b96-s15" kvg:type="㇐c" d="M37.1 55.27c.45.23 1.26.23 1.71.23 3.64-.01 6.44-1.25 9.73-1.62.74-.08 1.09-.08 1.56-.08"/><path id="kvg:08b96-s16" kvg:type="㇐c" d="M37.25 66.69c.45.23 1.26.23 1.71.23 3.64-.01 5.79-.67 9.47-1.42.73-.15 1.09-.08 1.56-.08"/><path id="kvg:08b96-s17" kvg:type="㇐" d="M37.03 77.12c.45.23 1.26.23 1.71.23 3.64-.01 6.14-.2 9.69-1.02.73-.17 1.09-.08 1.56-.08"/><path id="kvg:08b96-s18" kvg:type="㇐b" d="M58.8 52.08c.59.0.55-.01 1-.07 2.85-.4 6.61-1.07 9.33-1.44.74-.1 1.19.11 1.56.23"/><path id="kvg:08b96-s19" kvg:type="㇐b" d="M58.68 63.6c.59.0.55-.01 1-.07 2.85-.4 7.85-1.57 10.57-1.94.74-.1 1.19.11 1.56.22"/><path id="kvg:08b96-s20" kvg:type="㇐b" d="M58.8 74.96c.59.0.55-.01 1-.07 2.85-.4 7.32-1.07 10.04-1.44.74-.1 1.19.11 1.56.22"/></g><g id="kvg:08b96-g11" kvg:element="一"><path id="kvg:08b96-s21" kvg:type="㇐" d="M37.63 93c.97 1.12 3.33.69 4.07.36 10.53-4.73 19.7-7.88 29.62-12.25"/></g></g><g id="kvg:08b96-g12" kvg:element="戈" kvg:part="2"><g id="kvg:08b96-g13" kvg:element="弋" kvg:part="2"><path id="kvg:08b96-s22" kvg:type="㇂" d="M74.21 12c.96 1.76 1.12 2.25 1.32 6.04C77.21 49.73 81.5 80 95.1 92.49c3.94 3.62 3.24.75 2.76-7.04"/></g><g id="kvg:08b96-g14" kvg:element="丿"><path id="kvg:08b96-s23" kvg:type="㇒" d="M92.44 46.98c.08 1.11.16 2.86-.15 4.46-1.85 9.4-11.54 32.81-26.46 44.18"/></g><g id="kvg:08b96-g15" kvg:element="弋" kvg:part="3"><g id="kvg:08b96-g16" kvg:element="丶"><path id="kvg:08b96-s24" kvg:type="㇔" d="M82.52 17.73c2.74 2.49 7.13 8.19 8.42 12.47"/></g></g></g></g></g></g></svg>