<!DOCTYPE svg PUBLIC "-//W3C//DTD SVG 1.0//EN" "http://www.w3.org/TR/2001/REC-SVG-20010904/DTD/svg10.dtd" [
<!ATTLIST g
xmlns:kvg CDATA #FIXED "http://kanjivg.tagaini.net"
kvg:element CDATA #IMPLIED
kvg:variant CDATA #IMPLIED
kvg:partial CDATA #IMPLIED
kvg:original CDATA #IMPLIED
kvg:part CDATA #IMPLIED
kvg:number CDATA #IMPLIED
kvg:tradForm CDATA #IMPLIED
kvg:radicalForm CDATA #IMPLIED
kvg:position CDATA #IMPLIED
kvg:radical CDATA #IMPLIED
kvg:phon CDATA #IMPLIED >
<!ATTLIST path
xmlns:kvg CDATA #FIXED "http://kanjivg.tagaini.net"
kvg:type CDATA #IMPLIED >
]><svg xmlns="http://www.w3.org/2000/svg" width="109" height="109" viewBox="0 0 109 109"><g id="kvg:StrokePaths_08b9a" style="fill:none;stroke:#000000;stroke-width:3;stroke-linecap:round;stroke-linejoin:round;"><g id="kvg:08b9a" kvg:element="讚"><g id="kvg:08b9a-g1" kvg:element="言" kvg:position="left" kvg:radical="general"><path id="kvg:08b9a-s1" kvg:type="㇔" d="M20.3 14c3.49 1.99 9.01 8.16 9.88 11.25"/><path id="kvg:08b9a-s2" kvg:type="㇐" d="M9.62 34.58c.71.23 3.4.3 4.1.23C20 34.25 30 32.75 34.56 31.94c1.16-.21 2.95.11 3.54.23"/><path id="kvg:08b9a-s3" kvg:type="㇐" d="M15.68 47.06c.43.12 3.04.13 3.47.12 4.44-.14 10.36-1.93 14.84-2.55.7-.1 2.18.06 2.54.12"/><path id="kvg:08b9a-s4" kvg:type="㇐" d="M16.3 59.33c.38.12 2.71.13 3.1.12 3.97-.13 10.86-1.45 14.33-2.09.62-.12 2.79.06 3.1.11"/><g id="kvg:08b9a-g2" kvg:element="口"><path id="kvg:08b9a-s5" kvg:type="㇑" d="M15.51 74.4c.39.36.83 1.15.96 1.63 1.11 4.21 1.52 12.04 2.64 18.21"/><path id="kvg:08b9a-s6" kvg:type="㇕b" d="M16.94 75.87c7.2-.89 12.9-2.6 19.55-3.5 1.67-.22 2.68 1.04 2.44 2.06-.99 4.25-1.86 8.22-3.62 15.28"/><path id="kvg:08b9a-s7" kvg:type="㇐b" d="M19.42 92.55C24.8 92 30.1 91.57 37.48 90.74"/></g></g><g id="kvg:08b9a-g3" kvg:element="贊" kvg:position="right"><g id="kvg:08b9a-g4" kvg:position="top"><g id="kvg:08b9a-g5" kvg:element="先" kvg:position="left"><g id="kvg:08b9a-g6" kvg:position="top"><path id="kvg:08b9a-s8" kvg:type="㇒" d="M51.47 15.82c.04.36.11.97-.08 1.47-1.16 3.08-3.93 9.23-7.02 12.82"/><path id="kvg:08b9a-s9" kvg:type="㇐" d="M50.6 23.28c.33.16 1.87.19 2.2.16 3.07-.32 7.7-.82 11.18-1.31.54-.08 1.82.07 2.09.15"/><path id="kvg:08b9a-s10" kvg:type="㇑a" d="M56.39 13.13c.3.21.93 1.58.99 2.01.06.42.03 12.96-.03 15.6"/><path id="kvg:08b9a-s11" kvg:type="㇐" d="M45.14 32.88c.58.14 1.64.2 2.21.14 4.82-.44 11.94-1.57 18.07-2.05.96-.07 1.54.07 2.02.14"/></g><g id="kvg:08b9a-g7" kvg:element="儿" kvg:original="八" kvg:position="bottom"><g id="kvg:08b9a-g8" kvg:element="丿"><path id="kvg:08b9a-s12" kvg:type="㇒" d="M52.39 35.25c.03.26.06.66-.05 1.03-.65 2.17-2.59 6.97-9.09 9.85"/></g><path id="kvg:08b9a-s13" kvg:type="㇟" d="M58.41 30.82c.22.63.39 1.37.4 2.34.03 2.53-.08 5.84-.08 8.83.0 1.66.85 1.63 1.78.98 3.56-2.46 4.36-3.44 6.73-5.41"/></g></g><g id="kvg:08b9a-g9" kvg:element="先" kvg:position="right"><g id="kvg:08b9a-g10" kvg:position="top"><path id="kvg:08b9a-s14" kvg:type="㇒" d="M75.6 17.02c.03.26.09.7-.05 1.06-1.07 2.72-3.03 6.6-4.76 9.24"/><path id="kvg:08b9a-s15" kvg:type="㇐" d="M76.82 21.92c.34.15 1.92.19 2.26.15 3.15-.31 5.45-1.29 9.02-1.77.55-.08 1.86.07 2.14.15"/><path id="kvg:08b9a-s16" kvg:type="㇑a" d="M81.01 12.52c.24.17.76 1.29.81 1.64.05.35.03 11-.02 13.16"/><path id="kvg:08b9a-s17" kvg:type="㇐" d="M70.86 30.16c.65.18 1.85.2 2.5.18 5.2-.14 15.98-1.68 19.98-2 1.08-.09 1.74.08 2.28.17"/></g><g id="kvg:08b9a-g11" kvg:element="儿" kvg:original="八" kvg:position="bottom"><g id="kvg:08b9a-g12" kvg:element="丿"><path id="kvg:08b9a-s18" kvg:type="㇒" d="M78.2 32.91c.02.27.04.7-.05 1.1C77.5 37 75 42 69.94 44.56"/></g><path id="kvg:08b9a-s19" kvg:type="㇟" d="M84.23 28.97c.2.45.36.99.37 1.69.03 1.82-.16 4.43-.16 6.59.0 3.78.12 4.93 4.67 4.94 6.95.01 5.77-2.14 5.84-3.48"/></g></g></g><g id="kvg:08b9a-g13" kvg:element="貝" kvg:position="bottom"><g id="kvg:08b9a-g14" kvg:element="目" kvg:position="top"><path id="kvg:08b9a-s20" kvg:type="㇑" d="M52.95 49.18c.52 1.26 1.27 2.2 1.27 3.88s.24 26.56-.38 33.61"/><path id="kvg:08b9a-s21" kvg:type="㇕a" d="M55.08 51.62c2.93-.21 24.75-2.9 27.42-3.15 2.22-.21 3.41 1.16 3.41 2.73.0 3.84-.66 32.9-.66 34.16"/><path id="kvg:08b9a-s22" kvg:type="㇐a" d="M54.27 62.01c5.48-.48 26.21-2.92 30.91-2.92"/><path id="kvg:08b9a-s23" kvg:type="㇐a" d="M54.51 73.03c8.26-.92 21.94-2.8 30.7-2.99"/><path id="kvg:08b9a-s24" kvg:type="㇐a" d="M54.14 84.36c8.26-.69 23.55-2.52 31.08-2.52"/></g><g id="kvg:08b9a-g15" kvg:element="八" kvg:position="bottom"><path id="kvg:08b9a-s25" kvg:type="㇒" d="M61.54 88.27c.46.9-.35 1.78-1.27 2.44-2.78 1.98-10.08 6.21-15.64 8.55"/><path id="kvg:08b9a-s26" kvg:type="㇔" d="M79.07 87.3c6.41 3.12 13.98 8.77 15.73 11.49"/></g></g></g></g></g><g id="kvg:StrokeNumbers_08b9a" style="font-size:8;fill:#808080"><text transform="matrix(1 0 0 1 13.50 13.50)">1</text><text transform="matrix(1 0 0 1 2.50 34.50)">2</text><text transform="matrix(1 0 0 1 9.50 47.50)">3</text><text transform="matrix(1 0 0 1 9.50 60.50)">4</text><text transform="matrix(1 0 0 1 8.50 80.50)">5</text><text transform="matrix(1 0 0 1 21.50 71.50)">6</text><text transform="matrix(1 0 0 1 22.50 89.50)">7</text><text transform="matrix(1 0 0 1 43.25 19.10)">8</text><text transform="matrix(1 0 0 1 52.50 22.50)">9</text><text transform="matrix(1 0 0 1 48.50 10.45)">10</text><text transform="matrix(1 0 0 1 48.50 30.13)">11</text><text transform="matrix(1 0 0 1 41.75 39.50)">12</text><text transform="matrix(1 0 0 1 60.50 37.50)">13</text><text transform="matrix(1 0 0 1 65.50 16.90)">14</text><text transform="matrix(1 0 0 1 75.50 20.58)">15</text><text transform="matrix(1 0 0 1 73.50 10.50)">16</text><text transform="matrix(1 0 0 1 73.50 28.50)">17</text><text transform="matrix(1 0 0 1 68.50 37.50)">18</text><text transform="matrix(1 0 0 1 86.00 36.50)">19</text><text transform="matrix(1 0 0 1 43.50 56.50)">20</text><text transform="matrix(1 0 0 1 61.00 48.13)">21</text><text transform="matrix(1 0 0 1 57.50 58.50)">22</text><text transform="matrix(1 0 0 1 57.50 69.50)">23</text><text transform="matrix(1 0 0 1 57.50 80.50)">24</text><text transform="matrix(1 0 0 1 47.00 93.50)">25</text><text transform="matrix(1 0 0 1 73.50 94.50)">26</text></g></svg>