<svg xmlns="http://www.w3.org/2000/svg" width="109" height="109" viewBox="0 0 109 109"><g id="kvg:StrokePaths_08b99" style="fill:none;stroke:#000000;stroke-width:3;stroke-linecap:round;stroke-linejoin:round;"><g id="kvg:08b99" kvg:element="讙"><g id="kvg:08b99-g1" kvg:element="言" kvg:position="left" kvg:radical="general"><path id="kvg:08b99-s1" kvg:type="㇔" d="M20.05 16.5c3.4 1.9 8.78 7.8 9.63 10.75"/><path id="kvg:08b99-s2" kvg:type="㇐" d="M10.62 37.58c.71.23 3.4.27 4.1.23 8.73-.42 14.98-2.17 21.33-2.37 1.18-.04 2.95.11 3.54.23"/><path id="kvg:08b99-s3" kvg:type="㇐" d="M15.68 49.06c.43.12 3.04.13 3.47.12 4.44-.14 8.86-.93 13.34-1.55.7-.1 3.68.06 4.04.12"/><path id="kvg:08b99-s4" kvg:type="㇐" d="M14.8 60.83c.38.12 2.71.13 3.1.12 3.97-.13 10.93-1.61 14.83-1.59.63.0 3.29.06 3.6.11"/><g id="kvg:08b99-g2" kvg:element="口"><path id="kvg:08b99-s5" kvg:type="㇑" d="M16.01 74.9c.39.36.83 1.15.96 1.63 1.11 4.21 1.53 14.71 2.14 21.21"/><path id="kvg:08b99-s6" kvg:type="㇕b" d="M16.94 77.41c5.9-1.03 11.8-2.5 17.25-3.54 1.37-.25 2.19 1.2 2 2.38-.81 4.9-1.11 9.06-2.56 17.21"/><path id="kvg:08b99-s7" kvg:type="㇐b" d="M18.92 95.05c5.37-.54 9.68-.97 17.06-1.81"/></g></g><g id="kvg:08b99-g3" kvg:position="right"><g id="kvg:08b99-g4" kvg:element="艹" kvg:variant="true" kvg:original="艸" kvg:position="top"><path id="kvg:08b99-s8" kvg:type="㇐" d="M41.75 22.98c1.61.58 3.48.69 5.09.58 14.78-1.06 28.25-3.23 45.28-3.3 2.68-.01 4.29.28 5.63.56"/><path id="kvg:08b99-s9" kvg:type="㇑a" d="M54.04 13.1c1.39.99 1.84 1.3 1.99 1.91 1.39 5.72 2.58 11.62 2.98 13.7"/><path id="kvg:08b99-s10" kvg:type="㇑a" d="M79.48 12.78c.18.77.41 1.34.21 2.29-1.17 5.56-.7 6.84-1.98 12.07"/></g><g id="kvg:08b99-g5" kvg:position="bottom"><g id="kvg:08b99-g6" kvg:element="口"><path id="kvg:08b99-s11" kvg:type="㇑" d="M46.8 33.45c.27.21.54.39.66.66.92 2.12 2.03 7.47 2.67 11.29"/><path id="kvg:08b99-s12" kvg:type="㇕b" d="M48.46 34.89c5.46-1.11 12.1-2.38 15.23-2.66 1.14-.1 1.83.6 1.67 1.2-.68 2.48-1.47 5.02-2.47 8.45"/><path id="kvg:08b99-s13" kvg:type="㇐b" d="M50.25 43.54c3.67-.32 9.8-1.31 14.84-1.8"/></g><g id="kvg:08b99-g7" kvg:element="口"><path id="kvg:08b99-s14" kvg:type="㇑" d="M71.95 31.72c.29.26.58.47.71.8.99 2.57 1.18 6.58 1.86 11.19"/><path id="kvg:08b99-s15" kvg:type="㇕b" d="M73.73 32.46c5.85-1.34 12.98-1.79 16.33-2.13 1.23-.12 1.96.73 1.79 1.45-.73 3-1.58 4.03-2.65 8.17"/><path id="kvg:08b99-s16" kvg:type="㇐b" d="M74.65 41.96c3.94-.38 11.37-1.54 16.78-2.13"/></g><g id="kvg:08b99-g8" kvg:element="隹"><g id="kvg:08b99-g9" kvg:element="亻" kvg:variant="true" kvg:original="人"><path id="kvg:08b99-s17" kvg:type="㇒" d="M56.18 45.76c.16 1.03-.04 2.38-.55 3.26C52.42 54.64 48.35 59.41 41 66.26"/><path id="kvg:08b99-s18" kvg:type="㇑" d="M51.16 56.03c.63.6 1.11 1.91 1.15 2.84.37 8.25-.51 33.33-.2 37.63"/></g><path id="kvg:08b99-s19" kvg:type="㇒" d="M77.65 46.4c.06.46-.02 1.05-.2 1.44-1.18 2.49-2.68 4.42-5.39 7.45"/><path id="kvg:08b99-s20" kvg:type="㇐b" d="M52.13 57.71c7.28-.78 39.49-3.54 42.61-3.97"/><path id="kvg:08b99-s21" kvg:type="㇑a" d="M70.4 57.64c.35.3.63 1.72.63 2.25.0 5.36.04 23.52-.17 31.95"/><path id="kvg:08b99-s22" kvg:type="㇐b" d="M52.6 68.4c6.87-.64 35.71-2.55 38.65-2.9"/><path id="kvg:08b99-s23" kvg:type="㇐b" d="M53.87 79.77c7.25-.54 34.25-2.68 37.36-2.97"/><path id="kvg:08b99-s24" kvg:type="㇐b" d="M52.27 93.13c7.28-.78 40.86-1.83 43.98-2.25"/></g></g></g></g></g></svg>