<svg xmlns="http://www.w3.org/2000/svg" width="109" height="109" viewBox="0 0 109 109"><g id="kvg:StrokePaths_08c3a" style="fill:none;stroke:#000000;stroke-width:3;stroke-linecap:round;stroke-linejoin:round;"><g id="kvg:08c3a" kvg:element="谺"><g id="kvg:08c3a-g1" kvg:element="谷" kvg:position="left" kvg:radical="general"><g id="kvg:08c3a-g2" kvg:position="top"><path id="kvg:08c3a-s1" kvg:type="㇒" d="M26.17 18.26c.04.38.08.98-.07 1.53C25.24 23 20.29 30.05 13.51 34.37"/><path id="kvg:08c3a-s2" kvg:type="㇔" d="M40.65 17.83c5.11 3.3 11.34 9.59 13.09 12.96"/></g><g id="kvg:08c3a-g3" kvg:position="bottom"><path id="kvg:08c3a-s3" kvg:type="㇒" d="M35.05 29.91c.06.71.27 1.89-.12 2.85-3.26 7.97-10.65 19.44-20.51 27.23"/><path id="kvg:08c3a-s4" kvg:type="㇏" d="M35.8 34.76c5.81 3.41 11.82 9.82 16.38 16.18"/><g id="kvg:08c3a-g4" kvg:element="口"><path id="kvg:08c3a-s5" kvg:type="㇑" d="M21.46 60.56c.29.45.6.83.72 1.4 1.02 4.5 2.24 16.91 2.94 24.99"/><path id="kvg:08c3a-s6" kvg:type="㇕b" d="M22.84 62.45c8.04-2.08 17.46-3.12 22.38-4.01 1.68-.31 2.71 2.06 2.45 3.4-1.22 6.43-2.14 11.7-3.27 19.59"/><path id="kvg:08c3a-s7" kvg:type="㇐b" d="M25.92 84.18c6.47-.62 12.04-1.55 20.47-2.28"/></g></g></g><g id="kvg:08c3a-g5" kvg:element="牙" kvg:position="right"><path id="kvg:08c3a-s8" kvg:type="㇐" d="M59.61 20.45c1.01.42 2.85.47 3.87.42 7.68-.37 18.53-2.42 28.61-2.69 1.68-.05 2.69.2 3.53.41"/><path id="kvg:08c3a-s9" kvg:type="㇗" d="M62.37 25.9c1.22 1.09 1.32 2.46 1.31 3.7-.9 6.53-3.22 15.81-4.47 19.07-.93 2.43.39 2.68 2.27 2.18 4.9-1.31 24.8-3.57 33.07-3.01 1.43.1 2.3.2 3.01.41"/><g id="kvg:08c3a-g6" kvg:element="亅"><path id="kvg:08c3a-s10" kvg:type="㇚" d="M80.48 22.96c.98.97 1.81 2.84 1.88 6.3.34 16.61-.22 53.19-.22 58.85.0 11.31-5.99 2.83-8.18.72"/></g><g id="kvg:08c3a-g7" kvg:element="丿"><path id="kvg:08c3a-s11" kvg:type="㇒" d="M82 48.22c.67.42.43 1.78.05 2.54-3.86 7.78-12.55 20.49-29.35 30.5"/></g></g></g></g></svg>