<svg xmlns="http://www.w3.org/2000/svg" width="109" height="109" viewBox="0 0 109 109"><g id="kvg:StrokePaths_08c37" style="fill:none;stroke:#000000;stroke-width:3;stroke-linecap:round;stroke-linejoin:round;"><g id="kvg:08c37" kvg:element="谷" kvg:radical="general"><g id="kvg:08c37-g1" kvg:position="top"><path id="kvg:08c37-s1" kvg:type="㇒" d="M36.76 16.48c.12 1.35-.01 2.47-.71 3.66C33.5 24.5 27.88 31 21.33 35.75"/><path id="kvg:08c37-s2" kvg:type="㇔" d="M67.75 15.88c7.23 4.04 16.03 11.75 18.5 15.88"/></g><g id="kvg:08c37-g2" kvg:position="bottom"><path id="kvg:08c37-s3" kvg:type="㇒" d="M52.91 29.75c.22 1.87.06 3.24-.85 4.9C46.62 44.5 33.25 58 15.67 67.5"/><path id="kvg:08c37-s4" kvg:type="㇏" d="M53.67 35.33c9.83 8.42 23.1 18.25 32.61 24.27 3.37 2.13 6.76 4.01 10.72 4.79"/><g id="kvg:08c37-g3" kvg:element="口"><path id="kvg:08c37-s5" kvg:type="㇑" d="M31.56 67.91c1.02.99 1.29 1.59 1.69 3.02 1.32 4.67 2.88 13.76 4.04 21.02.21 1.32.4 2.59.56 3.75"/><path id="kvg:08c37-s6" kvg:type="㇕b" d="M33.75 69.2c12.58-1.22 30.04-2.91 37.35-3.74 2.77-.32 4.66 1.54 4.04 3.77-1.43 5.19-3.57 14.4-4.92 20.07"/><path id="kvg:08c37-s7" kvg:type="㇐b" d="M38.65 92.84c10.47-.96 18.55-1.55 28.85-2.46 1.47-.13 2.96-.26 4.49-.38"/></g></g></g></g></svg>