<!DOCTYPE svg PUBLIC "-//W3C//DTD SVG 1.0//EN" "http://www.w3.org/TR/2001/REC-SVG-20010904/DTD/svg10.dtd" [
<!ATTLIST g
xmlns:kvg CDATA #FIXED "http://kanjivg.tagaini.net"
kvg:element CDATA #IMPLIED
kvg:variant CDATA #IMPLIED
kvg:partial CDATA #IMPLIED
kvg:original CDATA #IMPLIED
kvg:part CDATA #IMPLIED
kvg:number CDATA #IMPLIED
kvg:tradForm CDATA #IMPLIED
kvg:radicalForm CDATA #IMPLIED
kvg:position CDATA #IMPLIED
kvg:radical CDATA #IMPLIED
kvg:phon CDATA #IMPLIED >
<!ATTLIST path
xmlns:kvg CDATA #FIXED "http://kanjivg.tagaini.net"
kvg:type CDATA #IMPLIED >
]><svg xmlns="http://www.w3.org/2000/svg" width="109" height="109" viewBox="0 0 109 109"><g id="kvg:StrokePaths_08c3f" style="fill:none;stroke:#000000;stroke-width:3;stroke-linecap:round;stroke-linejoin:round;"><g id="kvg:08c3f" kvg:element="谿"><g id="kvg:08c3f-g1" kvg:element="奚" kvg:position="left"><g id="kvg:08c3f-g2" kvg:position="top"><g id="kvg:08c3f-g3" kvg:element="⺤" kvg:variant="true" kvg:original="爪"><path id="kvg:08c3f-s1" kvg:type="㇒" d="M40 13.39c.07.27.25.8-.14 1.1C36.25 17.25 25.75 22 13.32 24.5"/><path id="kvg:08c3f-s2" kvg:type="㇒" d="M16.76 27.53c.02.35.05.9-.04 1.41-.53 2.96-3.04 8.26-7.39 13.89"/><path id="kvg:08c3f-s3" kvg:type="㇔" d="M26.92 26.36c2.37 1.79 6.11 7.35 6.7 10.13"/><path id="kvg:08c3f-s4" kvg:type="㇔" d="M38.07 22.97c3.09 1.79 7.98 7.35 8.75 10.14"/></g><g id="kvg:08c3f-g4" kvg:element="幺"><path id="kvg:08c3f-s5" kvg:type="㇜" d="M24.64 35.6c.29.98.45 1.67-.15 2.78-1.14 2.12-3.34 4.54-5.26 7.34-.48.7-.31 1.93.29 2.02 3.48.51 7.01 1.31 9.64 3.11"/><path id="kvg:08c3f-s6" kvg:type="㇜" d="M40.31 38.51c.17 1.52-.43 2.57-.88 3.05-6.14 6.71-14.5 13.3-21.4 20.39-.98 1.01-.58 1.64.58 1.31 4.89-1.37 17.07-4.19 23.35-5.5"/><path id="kvg:08c3f-s7" kvg:type="㇔" d="M39.19 52.79c1.91 1.88 4.94 7.72 5.41 10.64"/></g></g><g id="kvg:08c3f-g5" kvg:element="大" kvg:position="bottom"><path id="kvg:08c3f-s8" kvg:type="㇐" d="M9.89 73.95c.71.33 2.59.73 4.09.58 10.13-1 20.44-2.99 29.54-3.47 1.56-.08 2.82-.04 4.23.22"/><path id="kvg:08c3f-s9" kvg:type="㇒" d="M29.81 65.34c.3.42.29 1.32.19 2.21-1.65 13.51-8.16 23.72-18.75 28.24"/><path id="kvg:08c3f-s10" kvg:type="㇏" d="M29.76 77.96c6.63 2.81 13.96 10.56 16.43 15.47"/></g></g><g id="kvg:08c3f-g6" kvg:element="谷" kvg:position="right" kvg:radical="general"><g id="kvg:08c3f-g7" kvg:position="top"><path id="kvg:08c3f-s11" kvg:type="㇒" d="M65.23 15.48c.03.45.07 1.17-.07 1.82-.81 3.84-5.43 12.28-11.76 17.45"/><path id="kvg:08c3f-s12" kvg:type="㇔" d="M79.08 15.08C84.9 19 91.99 26.49 93.98 30.5"/></g><g id="kvg:08c3f-g8" kvg:position="bottom"><path id="kvg:08c3f-s13" kvg:type="㇒" d="M74.13 27.75c.06.86.3 2.3-.13 3.45-3.58 9.68-10.25 23.55-22.59 33.05"/><path id="kvg:08c3f-s14" kvg:type="㇏" d="M73.96 34.33c5.08 8.4 14.55 20.4 19.21 24.86 1.16 1.11 2.49 1.83 3.58 2.2"/><g id="kvg:08c3f-g9" kvg:element="口"><path id="kvg:08c3f-s15" kvg:type="㇑" d="M59.59 66.86c.31.46.62.84.75 1.41 1.06 4.53 1.83 18.04 2.55 26.18"/><path id="kvg:08c3f-s16" kvg:type="㇕b" d="M61.02 68.75c9.23-1.25 18.61-2.14 23.71-3.04 1.74-.31 2.81 2.08 2.54 3.43-1.27 6.48-2.72 11.29-3.89 19.25"/><path id="kvg:08c3f-s17" kvg:type="㇐b" d="M63.71 90.66c6.71-.62 14.49-1.06 23.23-1.79"/></g></g></g></g></g><g id="kvg:StrokeNumbers_08c3f" style="font-size:8;fill:#808080"><text transform="matrix(1 0 0 1 32.50 11.50)">1</text><text transform="matrix(1 0 0 1 8.50 32.50)">2</text><text transform="matrix(1 0 0 1 21.50 31.50)">3</text><text transform="matrix(1 0 0 1 32.50 28.50)">4</text><text transform="matrix(1 0 0 1 17.50 38.50)">5</text><text transform="matrix(1 0 0 1 29.50 44.25)">6</text><text transform="matrix(1 0 0 1 40.50 51.50)">7</text><text transform="matrix(1 0 0 1 3.50 74.10)">8</text><text transform="matrix(1 0 0 1 21.50 70.50)">9</text><text transform="matrix(1 0 0 1 37.50 81.50)">10</text><text transform="matrix(1 0 0 1 55.50 15.50)">11</text><text transform="matrix(1 0 0 1 76.50 12.50)">12</text><text transform="matrix(1 0 0 1 63.50 31.50)">13</text><text transform="matrix(1 0 0 1 79.50 41.50)">14</text><text transform="matrix(1 0 0 1 50.50 74.50)">15</text><text transform="matrix(1 0 0 1 62.50 65.50)">16</text><text transform="matrix(1 0 0 1 65.50 87.50)">17</text></g></svg>