<svg xmlns="http://www.w3.org/2000/svg" width="109" height="109" viewBox="0 0 109 109"><g id="kvg:StrokePaths_08c4a" style="fill:none;stroke:#000000;stroke-width:3;stroke-linecap:round;stroke-linejoin:round;"><g id="kvg:08c4a" kvg:element="豊"><g id="kvg:08c4a-g1" kvg:element="曲" kvg:position="top"><g id="kvg:08c4a-g2" kvg:element="日" kvg:part="1"><path id="kvg:08c4a-s1" kvg:type="㇑" d="M25.4 23c.61.61 1.15 1.68 1.29 2.48C27.5 30 28.83 38.13 30.03 44.7c.4 2.21.56 4.23.69 5.05"/><path id="kvg:08c4a-s2" kvg:type="㇕a" d="M27.6 24.64c8.29-.96 40.92-4.25 49.9-4.82 3.19-.2 5.09 1.69 4.37 4.92-.78 3.47-2.56 11.33-4.2 16.8-.77 2.55-1.37 4.41-1.59 4.75"/></g><g id="kvg:08c4a-g3" kvg:element="廾"><g id="kvg:08c4a-g4" kvg:element="丿" kvg:variant="true"><path id="kvg:08c4a-s3" kvg:type="㇑a" d="M40.98 11.59c.71.71 1.55 1.91 1.73 3.19 1.78 12.6 3.33 25.67 3.89 30.47"/></g><g id="kvg:08c4a-g5" kvg:element="十"><path id="kvg:08c4a-s4" kvg:type="㇑a" d="M62.92 9.75c.67.67 1.04 2.16.98 2.69-1.57 15.72-2.03 20.81-3.59 31.91"/><path id="kvg:08c4a-s5" kvg:type="㇐a" d="M29.68 35.82c8.32-.95 41.19-3.95 49.35-4.12"/></g></g><g id="kvg:08c4a-g6" kvg:element="日" kvg:part="2"><path id="kvg:08c4a-s6" kvg:type="㇐a" d="M31.88 47.7c8.62-.95 36.08-2.53 43.75-2.86"/></g></g><g id="kvg:08c4a-g7" kvg:element="豆" kvg:position="bottom" kvg:radical="general"><g id="kvg:08c4a-g8" kvg:position="top"><path id="kvg:08c4a-s7" kvg:type="㇐" d="M18.63 57.67c2.87.7 5.6.59 8.25.35 15.75-1.4 36.84-2.74 55.5-3.72 2.92-.15 5.89.01 8.75.72"/></g><g id="kvg:08c4a-g9" kvg:position="bottom"><g id="kvg:08c4a-g10" kvg:element="口"><path id="kvg:08c4a-s8" kvg:type="㇑" d="M31.92 66.1c.8.8 1.41 2.22 1.52 2.76.71 3.29 1.26 6.01 2.23 11.37.18.99.36 2.08.56 3.28"/><path id="kvg:08c4a-s9" kvg:type="㇕b" d="M34.06 67.51c10.94-1.26 32.13-3.5 38.56-3.62 2.66-.05 3.46 1.52 2.86 3.79-1.07 4.08-1.73 5.31-3.14 10.1"/><path id="kvg:08c4a-s10" kvg:type="㇐b" d="M36.73 81.27c5.95.0 22.99-1.86 33.77-2.48 1.85-.11 3.51-.18 4.92-.19"/></g><path id="kvg:08c4a-s11" kvg:type="㇔" d="M40 84.12c1.43 1.81 3.7 7.44 4.06 10.26"/><path id="kvg:08c4a-s12" kvg:type="㇒" d="M68 82.75c.22.62.1 1.6-.03 1.95-.95 2.73-1.83 4.98-4.25 8.93"/><path id="kvg:08c4a-s13" kvg:type="㇐" d="M14.88 97.36c2.22.67 6.3.78 8.53.67 23.15-1.13 37.81-1.8 62.44-2.27 3.7-.07 5.93.32 7.78.66"/></g></g></g></g></svg>