<svg xmlns="http://www.w3.org/2000/svg" width="109" height="109" viewBox="0 0 109 109"><g id="kvg:StrokePaths_08c4e" style="fill:none;stroke:#000000;stroke-width:3;stroke-linecap:round;stroke-linejoin:round;"><g id="kvg:08c4e" kvg:element="豎"><g id="kvg:08c4e-g1" kvg:position="top"><g id="kvg:08c4e-g2" kvg:element="臣" kvg:position="left"><path id="kvg:08c4e-s1" kvg:type="㇑" d="M19.14 13.9c.32.85.85 2.16.96 2.59s.47 31.67.41 34.34"/><path id="kvg:08c4e-s2" kvg:type="㇐b" d="M20.21 15.26c5.04-.26 19.21-2.21 27.2-2.66 1.21-.07 1.94-.14 2.55-.03"/><path id="kvg:08c4e-s3" kvg:type="㇑a" d="M34.01 14.68c.53.21.85.95.96 1.37.11.43.15 5.77.09 8.44"/><path id="kvg:08c4e-s4" kvg:type="㇕b" d="M20.57 26.01c8.22-.92 18.72-1.87 24.43-2.5 2.31-.26 2.97.62 2.66 1.77-.55 2.1-1.84 5.1-2.4 7.62"/><path id="kvg:08c4e-s5" kvg:type="㇐b" d="M20.75 35.61c3.43-.37 23.98-1.94 27.21-2.19"/><path id="kvg:08c4e-s6" kvg:type="㇑a" d="M34.18 34.64c.53.21.85.95.96 1.37.11.42.18 7.69.12 10.36"/><path id="kvg:08c4e-s7" kvg:type="㇐b" d="M20.7 48.21c3.43-.37 18.3-2.11 26.29-2.56 1.21-.07 1.94-.13 2.55-.03"/></g><g id="kvg:08c4e-g3" kvg:element="又" kvg:position="right"><path id="kvg:08c4e-s8" kvg:type="㇇" d="M59.58 16.08c1.06.21 1.69.53 3.81.21s18.56-3.58 20.01-3.9c1.46-.32 2.51 1.17 1.99 2.33-6.23 13.79-16.22 24.47-28.15 29.67"/><path id="kvg:08c4e-s9" kvg:type="㇏" d="M57.71 19.93c3.21.6 18.88 16.69 30.05 23.28 1.74 1.03 3.01 1.71 4.63 2.05"/></g></g><g id="kvg:08c4e-g4" kvg:element="豆" kvg:position="bottom" kvg:radical="general"><g id="kvg:08c4e-g5" kvg:position="top"><path id="kvg:08c4e-s10" kvg:type="㇐" d="M30.13 55.67c1.16.38 3.27.42 4.43.38 12.02-.44 28.93-2.55 41.03-2.88 1.92-.05 3.08.18 4.04.37"/></g><g id="kvg:08c4e-g6" kvg:position="bottom"><g id="kvg:08c4e-g7" kvg:element="口"><path id="kvg:08c4e-s11" kvg:type="㇑" d="M33.53 64.32c.45.3 1.03.53 1.11.92.61 2.85 1.11 7.51 2.18 12.77"/><path id="kvg:08c4e-s12" kvg:type="㇕b" d="M34.77 65.51c6.18-.48 31.7-2.74 35.86-3.37 2.62-.4 3.87.35 3.53 3.02-.32 2.58-.88 3.95-3 8.72"/><path id="kvg:08c4e-s13" kvg:type="㇐b" d="M36.83 77.05c6.11-.25 32.18-2.61 37.36-2.67"/></g><path id="kvg:08c4e-s14" kvg:type="㇔" d="M38.5 82.67c2.05 1.71 5.3 7.05 5.81 9.72"/><path id="kvg:08c4e-s15" kvg:type="㇒" d="M69.62 79.81c.02.31.03.81-.03 1.26-.38 2.66-2.59 8.49-5.61 12.06"/><path id="kvg:08c4e-s16" kvg:type="㇐" d="M17.88 96.04c1.79.52 5.07.61 6.85.52 18.6-.88 46.19-4.3 61.64-4.07 2.98.04 4.77.25 6.26.51"/></g></g></g></g></svg>