<!DOCTYPE svg PUBLIC "-//W3C//DTD SVG 1.0//EN" "http://www.w3.org/TR/2001/REC-SVG-20010904/DTD/svg10.dtd" [
<!ATTLIST g
xmlns:kvg CDATA #FIXED "http://kanjivg.tagaini.net"
kvg:element CDATA #IMPLIED
kvg:variant CDATA #IMPLIED
kvg:partial CDATA #IMPLIED
kvg:original CDATA #IMPLIED
kvg:part CDATA #IMPLIED
kvg:number CDATA #IMPLIED
kvg:tradForm CDATA #IMPLIED
kvg:radicalForm CDATA #IMPLIED
kvg:position CDATA #IMPLIED
kvg:radical CDATA #IMPLIED
kvg:phon CDATA #IMPLIED >
<!ATTLIST path
xmlns:kvg CDATA #FIXED "http://kanjivg.tagaini.net"
kvg:type CDATA #IMPLIED >
]><svg xmlns="http://www.w3.org/2000/svg" width="109" height="109" viewBox="0 0 109 109"><g id="kvg:StrokePaths_08c50" style="fill:none;stroke:#000000;stroke-width:3;stroke-linecap:round;stroke-linejoin:round;"><g id="kvg:08c50" kvg:element="豐"><g id="kvg:08c50-g1" kvg:position="top"><g id="kvg:08c50-g2" kvg:element="山" kvg:part="1"><path id="kvg:08c50-s1" kvg:type="㇑" d="M52.49 9.88c.65.38 2.03 2.88 2.16 3.65s-.08 26.04-.21 30.85"/></g><g id="kvg:08c50-g3" kvg:element="丰"><path id="kvg:08c50-s2" kvg:type="㇐" d="M29 19.5c1.25.25 2.18.59 2.67.55C36 19.74 40.25 19 45.6 18.3c.73-.1.9-.05 2.15-.05"/><path id="kvg:08c50-s3" kvg:type="㇐" d="M29 27.25c1.25.25 2.18.59 2.67.55 4.33-.31 8.58-1.05 13.94-1.75.73-.1.9-.05 2.15-.05"/><path id="kvg:08c50-s4" kvg:type="㇐" d="M29.25 35.75c1.25.25 2.18.59 2.67.55 4.33-.31 8.58-1.05 13.94-1.75.73-.1.9-.05 2.15-.05"/><path id="kvg:08c50-s5" kvg:type="㇑" d="M35.99 10.88c.65.38 2.12 2.87 2.16 3.65.35 6.96 1.1 24.21 1.79 30.85"/></g><g id="kvg:08c50-g4" kvg:element="丰"><path id="kvg:08c50-s6" kvg:type="㇐" d="M60 17c1.25.25 2.18.59 2.67.55C67 17.24 71.25 17.5 76.6 16.8c.73-.1.9-.05 2.15-.05"/><path id="kvg:08c50-s7" kvg:type="㇐" d="M60.5 26.25c1.25.25 2.18.53 2.67.55 3.58.2 7.58-.05 12.94-.75C76.84 25.96 77 26 78.25 26"/><path id="kvg:08c50-s8" kvg:type="㇐" d="M59.75 34.75C61 35 61.93 35.31 62.42 35.3c3.08-.05 8.58-.55 13.94-1.25.73-.1.9-.05 2.15-.05"/><path id="kvg:08c50-s9" kvg:type="㇑" d="M68.99 10.88c.65.38 2.22 2.87 2.16 3.65C70.5 23 69 36.25 68.44 43.38"/></g><g id="kvg:08c50-g5" kvg:element="山" kvg:part="2"><path id="kvg:08c50-s10" kvg:type="㇄" d="M21.74 17.5c.76.45 1.47 2.34 1.51 3.25.25 5.25 1.5 13 2.5 22.5.22 2.05-.38 4.03 1.5 3.75 6.75-1 45-3.75 54.5-4"/><path id="kvg:08c50-s11" kvg:type="㇑" d="M83.99 12.88c.51 1.12 1.23 2.88 1.16 3.65-.4 4.71-2.4 22.96-3.21 29.35"/></g></g><g id="kvg:08c50-g6" kvg:element="豆" kvg:position="bottom" kvg:radical="general"><g id="kvg:08c50-g7" kvg:position="top"><path id="kvg:08c50-s12" kvg:type="㇐" d="M30.77 55.9c.86.35 2.42.39 3.28.35 8.91-.4 22.65-2.49 39.05-2.59 1.43-.01 2.28.17 3 .34"/></g><g id="kvg:08c50-g8" kvg:position="bottom"><g id="kvg:08c50-g9" kvg:element="口"><path id="kvg:08c50-s13" kvg:type="㇑" d="M33.78 65.66c.37.26.85.96.92 1.3.51 2.47 1.39 8.32 2.53 13.24"/><path id="kvg:08c50-s14" kvg:type="㇕b" d="M35.22 67.08c5.68-.5 31.18-3.58 35.05-3.66 1.6-.03 2.68.64 2.32 2.08-.65 2.58-1.55 5.11-3.5 10.04"/><path id="kvg:08c50-s15" kvg:type="㇐b" d="M37.53 78.43c4.19.0 28.73-2.8 34.52-2.88"/></g><path id="kvg:08c50-s16" kvg:type="㇔" d="M38.78 84c2.02 1.61 5.21 6.63 5.71 9.14"/><path id="kvg:08c50-s17" kvg:type="㇒" d="M67.9 81.75c.02.3.04.77-.04 1.2-.49 2.53-3.3 8.08-7.14 11.48"/><path id="kvg:08c50-s18" kvg:type="㇐" d="M20.19 97.03c1.38.49 3.92.57 5.31.49 14.41-.83 43.14-2.6 58.47-2.94 2.31-.05 3.69.23 4.85.48"/></g></g></g></g><g id="kvg:StrokeNumbers_08c50" style="font-size:8;fill:#808080"><text transform="matrix(1 0 0 1 43.50 9.50)">1</text><text transform="matrix(1 0 0 1 29.50 16.80)">2</text><text transform="matrix(1 0 0 1 29.50 26.73)">3</text><text transform="matrix(1 0 0 1 29.50 34.15)">4</text><text transform="matrix(1 0 0 1 27.50 9.50)">5</text><text transform="matrix(1 0 0 1 59.50 14.00)">6</text><text transform="matrix(1 0 0 1 59.50 24.93)">7</text><text transform="matrix(1 0 0 1 59.50 33.35)">8</text><text transform="matrix(1 0 0 1 64.25 7.03)">9</text><text transform="matrix(1 0 0 1 11.50 18.50)">10</text><text transform="matrix(1 0 0 1 78.50 9.50)">11</text><text transform="matrix(1 0 0 1 20.50 57.50)">12</text><text transform="matrix(1 0 0 1 24.50 71.50)">13</text><text transform="matrix(1 0 0 1 36.50 63.50)">14</text><text transform="matrix(1 0 0 1 40.50 74.50)">15</text><text transform="matrix(1 0 0 1 29.50 88.50)">16</text><text transform="matrix(1 0 0 1 55.25 85.00)">17</text><text transform="matrix(1 0 0 1 10.50 96.85)">18</text></g></svg>