<!DOCTYPE svg PUBLIC "-//W3C//DTD SVG 1.0//EN" "http://www.w3.org/TR/2001/REC-SVG-20010904/DTD/svg10.dtd" [
<!ATTLIST g
xmlns:kvg CDATA #FIXED "http://kanjivg.tagaini.net"
kvg:element CDATA #IMPLIED
kvg:variant CDATA #IMPLIED
kvg:partial CDATA #IMPLIED
kvg:original CDATA #IMPLIED
kvg:part CDATA #IMPLIED
kvg:number CDATA #IMPLIED
kvg:tradForm CDATA #IMPLIED
kvg:radicalForm CDATA #IMPLIED
kvg:position CDATA #IMPLIED
kvg:radical CDATA #IMPLIED
kvg:phon CDATA #IMPLIED >
<!ATTLIST path
xmlns:kvg CDATA #FIXED "http://kanjivg.tagaini.net"
kvg:type CDATA #IMPLIED >
]><svg xmlns="http://www.w3.org/2000/svg" width="109" height="109" viewBox="0 0 109 109"><g id="kvg:StrokePaths_08c62" style="fill:none;stroke:#000000;stroke-width:3;stroke-linecap:round;stroke-linejoin:round;"><g id="kvg:08c62" kvg:element="豢"><g id="kvg:08c62-g1" kvg:position="top"><path id="kvg:08c62-s1" kvg:type="㇒" d="M38.41 14.64c.06.39.33 1.11-.12 1.57-4.34 4.51-10.02 9.64-20.56 15.05"/><path id="kvg:08c62-s2" kvg:type="㇏" d="M65.93 15.01c7.49 2.27 19.34 9.35 21.21 12.88"/><g id="kvg:08c62-g2" kvg:element="二"><g id="kvg:08c62-g3" kvg:position="top"><path id="kvg:08c62-s3" kvg:type="㇐" d="M34.76 28.59c1.32.32 3.24.4 4.55.32 8.4-.55 20.08-2.44 29.86-2.74 2.19-.07 3.52.15 4.62.31"/></g><g id="kvg:08c62-g4" kvg:position="bottom"><path id="kvg:08c62-s4" kvg:type="㇐" d="M18.83 40.99c1.58.32 4.49.41 6.07.32 10.09-.55 50.19-4.45 59.96-4.08 2.63.1 4.23.15 5.54.31"/></g></g><g id="kvg:08c62-g5" kvg:element="人"><path id="kvg:08c62-s5" kvg:type="㇒" d="M52.64 11.92c.36.91.63 2.43.06 4.18-5.78 17.66-15.32 33.95-36.85 48.07"/><path id="kvg:08c62-s6" kvg:type="㇏" d="M60.14 30.08c4.21 5.21 22.37 22.2 27.02 26.01 1.58 1.29 3.6 1.85 5.18 2.22"/></g></g><g id="kvg:08c62-g6" kvg:element="豕" kvg:position="bottom" kvg:radical="general"><path id="kvg:08c62-s7" kvg:type="㇐" d="M36.83 51.83c.9.33 2.55.4 3.45.33 6.44-.52 18.47-1.91 28.04-2.58 1.5-.1 2.4.16 3.15.32"/><path id="kvg:08c62-s8" kvg:type="㇒" d="M53.62 53.74c.08.37.17.96-.16 1.49-1.91 3.13-12.88 10.02-27.88 14.23"/><path id="kvg:08c62-s9" kvg:type="㇁" d="M49.96 59.07c7.65 9.53 11.6 21.1 7.31 35.06-2.46 8-5.27 2.12-6.68.03"/><path id="kvg:08c62-s10" kvg:type="㇒" d="M51.08 64.3c.08.45.17 1.17-.16 1.82C49 69.95 37.98 78.35 22.9 83.5"/><path id="kvg:08c62-s11" kvg:type="㇒" d="M54.29 72.62c.09.56.19 1.44-.19 2.25C51.85 79.6 38.94 90 21.27 96.36"/><path id="kvg:08c62-s12" kvg:type="㇒" d="M72.67 56.84c.04.3.08.77-.07 1.19-.9 2.52-6.07 8.03-13.15 11.41"/><path id="kvg:08c62-s13" kvg:type="㇏" d="M60.23 72.62c7.52 3.88 20.02 13.13 24.36 20.14"/></g></g></g><g id="kvg:StrokeNumbers_08c62" style="font-size:8;fill:#808080"><text transform="matrix(1 0 0 1 31.50 14.50)">1</text><text transform="matrix(1 0 0 1 63.50 12.50)">2</text><text transform="matrix(1 0 0 1 39.50 26.50)">3</text><text transform="matrix(1 0 0 1 20.50 38.90)">4</text><text transform="matrix(1 0 0 1 45.50 11.50)">5</text><text transform="matrix(1 0 0 1 66.50 34.50)">6</text><text transform="matrix(1 0 0 1 42.50 49.50)">7</text><text transform="matrix(1 0 0 1 39.50 60.50)">8</text><text transform="matrix(1 0 0 1 55.50 63.50)">9</text><text transform="matrix(1 0 0 1 38.50 70.95)">10</text><text transform="matrix(1 0 0 1 42.00 79.50)">11</text><text transform="matrix(1 0 0 1 62.50 58.50)">12</text><text transform="matrix(1 0 0 1 65.50 74.73)">13</text></g></svg>