<svg xmlns="http://www.w3.org/2000/svg" width="109" height="109" viewBox="0 0 109 109"><g id="kvg:StrokePaths_08c78"><g id="kvg:08c78" kvg:element="豸" kvg:radical="general"><path id="kvg:08c78-s1" kvg:type="㇒" d="M65.24 9c.1.5.39 1.43-.2 1.99-7.43 6.99-18.42 13.41-37.79 19.05"/><path id="kvg:08c78-s2" kvg:type="㇔" d="M35 29.5c3 2.21 7.75 9.07 8.5 12.5"/><path id="kvg:08c78-s3" kvg:type="㇔" d="M53.75 21.5c2.65 1.76 6.84 7.26 7.5 10"/><path id="kvg:08c78-s4" kvg:type="㇒" d="M75.2 20.5c.13.74.51 2.13-.26 2.96-9.53 10.4-23.61 19.94-48.44 28.33"/><path id="kvg:08c78-s5" kvg:type="㇁" d="M57.75 39C69 45.75 75.11 72.45 66.83 93.33c-4.83 12.17-9.64 1.12-10.89.06"/><path id="kvg:08c78-s6" kvg:type="㇒" d="M60.75 44.75c.09.59.19 1.53-.18 2.38-2.22 5.02-14.98 16.03-32.43 22.77"/><path id="kvg:08c78-s7" kvg:type="㇒" d="M65.25 56.75c.1.81.44 2.19-.21 3.24C60.25 67.75 47.25 80.75 28.75 91"/></g></g></svg>