<svg xmlns="http://www.w3.org/2000/svg" width="109" height="109" viewBox="0 0 109 109"><g id="kvg:StrokePaths_08c8c"><g id="kvg:08c8c" kvg:element="貌"><g id="kvg:08c8c-g1" kvg:element="豸" kvg:position="left" kvg:radical="general"><path id="kvg:08c8c-s1" kvg:type="㇒" d="M33.9 14.5c.06.45.24 1.31-.12 1.82-4.5 6.4-11.15 12.28-22.88 17.44"/><path id="kvg:08c8c-s2" kvg:type="㇔" d="M13.31 37.45c2.54 1.79 6.57 7.35 7.2 10.14"/><path id="kvg:08c8c-s3" kvg:type="㇔" d="M23.49 30.08c2.46 1.53 6.36 6.3 6.97 8.68"/><path id="kvg:08c8c-s4" kvg:type="㇒" d="M40.18 30.97c.07 1.03-.17 2.23-.65 2.88C33 42.5 25.25 49 11.61 56.1"/><path id="kvg:08c8c-s5" kvg:type="㇁" d="M28.16 45.55c9.59 6.95 14.53 27.43 7.36 44.55-4.18 9.98-8.34.92-9.43.05"/><path id="kvg:08c8c-s6" kvg:type="㇒" d="M31.61 51.84c.06.43.12 1.12-.11 1.75-1.37 3.68-9.21 11.77-19.95 16.71"/><path id="kvg:08c8c-s7" kvg:type="㇒" d="M34.9 62.89c.06.53.28 1.43-.13 2.11-3 5.06-11.16 13.54-22.77 20.22"/></g><g id="kvg:08c8c-g2" kvg:element="皃" kvg:position="right"><g id="kvg:08c8c-g3" kvg:element="白" kvg:position="top"><g id="kvg:08c8c-g4" kvg:position="top"><path id="kvg:08c8c-s8" kvg:type="㇔" d="M66.13 12.25c.42.54.19 2.18.0 2.63-1.37 3.3-5.26 8.54-9.86 12.3"/></g><g id="kvg:08c8c-g5" kvg:element="日" kvg:position="bottom"><path id="kvg:08c8c-s9" kvg:type="㇑" d="M48.71 28.41c.59.69 1.09 1.92 1.19 2.83.39 3.45 3.15 21.04 3.39 25.54"/><path id="kvg:08c8c-s10" kvg:type="㇕a" d="M50.26 30.03c3.36-.11 32.91-3.6 35.96-3.8 1.94-.12 2.97.78 2.73 2.19-.52 3.11-3.31 19.5-4.63 26.77"/><path id="kvg:08c8c-s11" kvg:type="㇐a" d="M51.77 41.68c7.04-.35 29.26-2.59 34.4-2.59"/><path id="kvg:08c8c-s12" kvg:type="㇐a" d="M53.65 54.59c8.43-.37 22.16-2.13 31.14-2.3"/></g></g><g id="kvg:08c8c-g6" kvg:element="儿" kvg:position="bottom"><g id="kvg:08c8c-g7" kvg:element="八" kvg:variant="true"><g id="kvg:08c8c-g8" kvg:element="丿" kvg:position="left"><path id="kvg:08c8c-s13" kvg:type="㇒" d="M61.62 57.26c.06.93.12 2.41-.12 3.75-1.41 7.91-8.85 26.78-20.59 35.91"/></g><g id="kvg:08c8c-g9" kvg:position="right"><path id="kvg:08c8c-s14" kvg:type="㇟" d="M71.72 56.16c.52 1.2.93 2.61.96 4.45.14 8.24.0 17.71.0 23.31.0 13.08 6.2 11.1 12.31 11.1 8.27.0 11.66-1.53 11.66-8.68"/></g></g></g></g></g></g></svg>