<svg xmlns="http://www.w3.org/2000/svg" width="109" height="109" viewBox="0 0 109 109"><g id="kvg:StrokePaths_08c85"><g id="kvg:08c85" kvg:element="貅"><g id="kvg:08c85-g1" kvg:element="豸" kvg:position="left" kvg:radical="general"><path id="kvg:08c85-s1" kvg:type="㇒" d="M35.4 12c.06.49.25 1.43-.13 1.98-4.74 6.97-11.75 13.37-24.11 19"/><path id="kvg:08c85-s2" kvg:type="㇔" d="M14.56 35.48c2.1 1.53 5.43 6.29 5.95 8.67"/><path id="kvg:08c85-s3" kvg:type="㇔" d="M26.99 26.67c1.76 1.3 4.53 5.36 4.97 7.39"/><path id="kvg:08c85-s4" kvg:type="㇒" d="M40.17 27.01c.08.6.36 1.78-.16 2.42C32.75 38.5 26.75 44 10.86 52.61"/><path id="kvg:08c85-s5" kvg:type="㇁" d="M28.44 41.42C37 49 42.27 72.81 34.96 90.85c-4.26 10.52-8.51.96-9.61.05"/><path id="kvg:08c85-s6" kvg:type="㇒" d="M31.62 49.67c.06.45.28 1.25-.11 1.8-2.81 3.88-9.88 10.7-19.95 17.19"/><path id="kvg:08c85-s7" kvg:type="㇒" d="M34.4 61.14c.06.55.28 1.49-.13 2.2-3.01 5.28-11.17 14.12-22.78 21.1"/></g><g id="kvg:08c85-g2" kvg:element="休" kvg:position="right"><g id="kvg:08c85-g3" kvg:element="亻" kvg:variant="true" kvg:original="人" kvg:position="left"><path id="kvg:08c85-s8" kvg:type="㇒" d="M59.52 13.5c.18 2-.05 4.62-.64 6.33C55.12 30.75 50.36 41 41.75 54.29"/><path id="kvg:08c85-s9" kvg:type="㇑" d="M51.02 45.5c.12.91.72 2.56.78 3.86.57 12.13-.56 36.55-.56 48.39"/></g><g id="kvg:08c85-g4" kvg:element="木" kvg:position="right"><path id="kvg:08c85-s10" kvg:type="㇐" d="M56.14 39.83c.62.25 3.29.88 4.94.74C67.75 40 83.5 38 92.25 37.75c1.66-.05 3.07-.25 4.11.0"/><path id="kvg:08c85-s11" kvg:type="㇑" d="M73.93 15c1.04.49 1.66 2.22 1.87 3.2.21.99.0 73.14-.21 79.3"/><path id="kvg:08c85-s12" kvg:type="㇒" d="M74.43 39.57C70.83 53.06 63.22 71.37 55.75 79"/><path id="kvg:08c85-s13" kvg:type="㇏" d="M76.37 39.58c3.2 9.71 12.29 30.48 18.18 37.69 1.36 1.67 2.08 2.92 3.21 3.51"/></g></g></g></g></svg>