<svg xmlns="http://www.w3.org/2000/svg" width="109" height="109" viewBox="0 0 109 109"><g id="kvg:StrokePaths_08ca7" style="fill:none;stroke:#000000;stroke-width:3;stroke-linecap:round;stroke-linejoin:round;"><g id="kvg:08ca7" kvg:element="貧"><g id="kvg:08ca7-g1" kvg:element="分" kvg:position="top" kvg:phon="分"><g id="kvg:08ca7-g2" kvg:element="八" kvg:position="top" kvg:radical="nelson"><path id="kvg:08ca7-s1" kvg:type="㇒" d="M39.95 14.61c0 1.14-.73 2.44-1.24 2.97-5.21 5.38-14.85 12.33-22.96 15.99"/><path id="kvg:08ca7-s2" kvg:type="㇏" d="M56.69 9.75c8.18.62 17.31 12 26.83 18.64 3.13 2.18 4.48 3.24 7.73 4.68"/></g><g id="kvg:08ca7-g3" kvg:element="刀" kvg:position="bottom"><path id="kvg:08ca7-s3" kvg:type="㇆" d="M38.1 29.41c1.83.37 3.45.33 5.28.14 7.3-.75 19.81-2.57 23.69-2.72 2.47-.1 3.17.92 2.92 2.79-.32 2.39-1.5 6.63-4.1 10.75-2.44 3.87-3.65 3-6.07.31"/><path id="kvg:08ca7-s4" kvg:type="㇒" d="M48.5 32.87c.07.52-.17 1.68-.65 2.34-4.98 6.91-13.48 13.66-24.36 19.76"/></g></g><g id="kvg:08ca7-g4" kvg:element="貝" kvg:position="bottom" kvg:radical="tradit"><g id="kvg:08ca7-g5" kvg:element="目" kvg:position="top"><path id="kvg:08ca7-s5" kvg:type="㇑" d="M35.12 51.33c.71.71 1.21 2.08 1.21 3.09.0.79-.12 18.08-.08 26.33.01 2.31.04 3.88.08 4.1"/><path id="kvg:08ca7-s6" kvg:type="㇕a" d="M37.07 52.64c3.36-.13 29.93-2.92 33-2.9 1.93.01 3.34 1.26 3.34 3.4.0 3.11-.1 17.86-.1 25.86.0 2.48-.08 4.66-.08 4.84"/><path id="kvg:08ca7-s7" kvg:type="㇐a" d="M37.51 62.86c7.86-.48 27.99-1.98 35.08-2.31"/><path id="kvg:08ca7-s8" kvg:type="㇐a" d="M37.54 72.69c8.34-.69 25.71-2.19 34.41-2.27"/><path id="kvg:08ca7-s9" kvg:type="㇐a" d="M37.41 82.71c8.72-.46 25.09-1.46 34.66-1.77"/></g><g id="kvg:08ca7-g6" kvg:element="八" kvg:position="bottom"><path id="kvg:08ca7-s10" kvg:type="㇒" d="M42.76 88.86c0 1.14-.78 2.27-1.75 2.99-2.92 2.19-10.17 6.06-16.01 8.65"/><path id="kvg:08ca7-s11" kvg:type="㇔" d="M63.54 88.25c6.6 3.01 14.4 8.47 16.2 11.11"/></g></g></g></g></svg>