<!DOCTYPE svg PUBLIC "-//W3C//DTD SVG 1.0//EN" "http://www.w3.org/TR/2001/REC-SVG-20010904/DTD/svg10.dtd" [
<!ATTLIST g
xmlns:kvg CDATA #FIXED "http://kanjivg.tagaini.net"
kvg:element CDATA #IMPLIED
kvg:variant CDATA #IMPLIED
kvg:partial CDATA #IMPLIED
kvg:original CDATA #IMPLIED
kvg:part CDATA #IMPLIED
kvg:number CDATA #IMPLIED
kvg:tradForm CDATA #IMPLIED
kvg:radicalForm CDATA #IMPLIED
kvg:position CDATA #IMPLIED
kvg:radical CDATA #IMPLIED
kvg:phon CDATA #IMPLIED >
<!ATTLIST path
xmlns:kvg CDATA #FIXED "http://kanjivg.tagaini.net"
kvg:type CDATA #IMPLIED >
]><svg xmlns="http://www.w3.org/2000/svg" width="109" height="109" viewBox="0 0 109 109"><g id="kvg:StrokePaths_08cab" style="fill:none;stroke:#000000;stroke-width:3;stroke-linecap:round;stroke-linejoin:round;"><g id="kvg:08cab" kvg:element="貫"><g id="kvg:08cab-g1" kvg:element="毋" kvg:variant="true" kvg:original="母" kvg:position="top" kvg:radical="nelson"><path id="kvg:08cab-s1" kvg:type="㇗/㇛" d="m37.14 15.14c.86.86 1.02 2.08.95 3.27-.33 5.62-1.21 13.84-2.71 19.52-.46 1.74-.07 2.49 1.51 2.18 8.77-1.74 17.74-3.16 28.61-3.69 2.28-.11 4.5-.17 7.75.33"/><path id="kvg:08cab-s2" kvg:type="㇕b/㇆" d="M39.4 17.1c9.85-1.1 26.98-3.48 33.08-4.09 1.76-.18 2.85 1.09 2.46 2.94C73.75 21.5 72 30 70.75 35.5"/><path id="kvg:08cab-s3" kvg:type="㇑a" d="M54.25 17c.81.81.83 2.13.72 3.3-.34 3.57-.84 6.95-1.87 14.9"/><path id="kvg:08cab-s4" kvg:type="㇐" d="M12.63 30.08c4.75.92 9.3.29 13.62-.29 15.13-2.04 36.95-4.57 56.25-5.87 4.04-.27 8.75-.17 12.13.57"/></g><g id="kvg:08cab-g2" kvg:element="貝" kvg:position="bottom" kvg:radical="tradit"><g id="kvg:08cab-g3" kvg:element="目" kvg:position="top"><path id="kvg:08cab-s5" kvg:type="㇑" d="M36.69 47.02c.8.8.93 1.91.93 2.98.0.82-.02 19.47.01 28.75.01 2.92.02 4.87.02 5"/><path id="kvg:08cab-s6" kvg:type="㇕a" d="M38.51 48.75c6.12-.63 28.63-3.6 31.63-3.77 2.5-.13 3.76.76 3.76 3.25.0 3.7.02 15.69.03 26.51.0 1.72.0 3.41.01 5.03"/><path id="kvg:08cab-s7" kvg:type="㇐a" d="M38.7 59.86C49.75 58.62 63 57 72.88 56.17"/><path id="kvg:08cab-s8" kvg:type="㇐a" d="M38.72 70.5C50 69 61 67.12 72.74 66.13"/><path id="kvg:08cab-s9" kvg:type="㇐a" d="M38.82 80.41c12.68-1.66 22.68-3.16 33.77-4.11"/></g><g id="kvg:08cab-g4" kvg:element="八" kvg:position="bottom"><path id="kvg:08cab-s10" kvg:type="㇒" d="M43.76 84.85c0 1.27-.52 2.03-1.5 2.9C39.3 90.39 31.92 94.88 26 98"/><path id="kvg:08cab-s11" kvg:type="㇔" d="M66.38 84.75c7.08 3.61 15.44 10.15 17.38 13.3"/></g></g></g></g><g id="kvg:StrokeNumbers_08cab" style="font-size:8;fill:#808080"><text transform="matrix(1 0 0 1 31.50 22.50)">1</text><text transform="matrix(1 0 0 1 39.50 13.50)">2</text><text transform="matrix(1 0 0 1 47.25 24.05)">3</text><text transform="matrix(1 0 0 1 5.50 31.50)">4</text><text transform="matrix(1 0 0 1 29.25 52.40)">5</text><text transform="matrix(1 0 0 1 40.50 46.63)">6</text><text transform="matrix(1 0 0 1 42.50 57.50)">7</text><text transform="matrix(1 0 0 1 42.50 67.50)">8</text><text transform="matrix(1 0 0 1 42.50 77.90)">9</text><text transform="matrix(1 0 0 1 27.50 90.50)">10</text><text transform="matrix(1 0 0 1 56.50 89.50)">11</text></g></svg>