<svg xmlns="http://www.w3.org/2000/svg" width="109" height="109" viewBox="0 0 109 109"><g id="kvg:StrokePaths_08ca8" style="fill:none;stroke:#000000;stroke-width:3;stroke-linecap:round;stroke-linejoin:round;"><g id="kvg:08ca8" kvg:element="貨"><g id="kvg:08ca8-g1" kvg:element="化" kvg:position="top" kvg:phon="化"><g id="kvg:08ca8-g2" kvg:element="亻" kvg:variant="true" kvg:original="人"><path id="kvg:08ca8-s1" kvg:type="㇒" d="M37.57 12.11c.22 1.2-.06 2.77-.76 3.8-4.48 6.56-10.16 12.72-20.43 20.7"/><path id="kvg:08ca8-s2" kvg:type="㇑" d="M30.49 26.71c.72.72 1.25 1.94 1.24 3.17-.04 5.38-.15 12.25-.2 17.62-.02 1.9-.03 3.61-.03 5"/></g><g id="kvg:08ca8-g3" kvg:element="匕"><path id="kvg:08ca8-s3" kvg:type="㇒" d="M82.44 14.5c0 .99-.23 1.44-1.38 2.38-3.62 2.96-13.78 8.02-18.44 9.5"/><path id="kvg:08ca8-s4" kvg:type="㇟" d="M58.45 11.75c.84.84 1.27 2 1.27 3.18.0.37-.04 8.08-.04 13.7.0 8.75 1.82 9.64 15.32 9.64 14.38.0 15.5-1.39 15.5-7.69"/></g></g><g id="kvg:08ca8-g4" kvg:element="貝" kvg:position="bottom" kvg:radical="general"><g id="kvg:08ca8-g5" kvg:element="目" kvg:position="top"><path id="kvg:08ca8-s5" kvg:type="㇑" d="M38.98 47.27c.51.87 1.01 2.27 1.01 3.45.0 1-.06 22.51-.08 31.41.0 1.6-.01 2.8-.01 3.39"/><path id="kvg:08ca8-s6" kvg:type="㇕a" d="M40.85 48.83c2.55-.18 20.21-2.61 26.16-3.34 3.44-.42 5.47.53 5.45 4.14-.02 5.04-.08 17.92-.09 29.12.0 1.36.0 2.69.0 3.98"/><path id="kvg:08ca8-s7" kvg:type="㇐a" d="M41.05 60.05c6.83-.8 25.56-2.91 30.21-3.01"/><path id="kvg:08ca8-s8" kvg:type="㇐a" d="M41.29 71.9c7.84-1.03 21.21-2.78 30.13-3.37"/><path id="kvg:08ca8-s9" kvg:type="㇐a" d="M41.03 83.16c8.47-.91 22.92-2.71 30.38-2.87"/></g><g id="kvg:08ca8-g6" kvg:element="八" kvg:position="bottom"><path id="kvg:08ca8-s10" kvg:type="㇒" d="M46.73 88.03c.39.96.02 1.98-.75 2.68-2.32 2.12-6.98 5.79-14.35 9.6"/><path id="kvg:08ca8-s11" kvg:type="㇔" d="M66.44 88.97c6.18 3.09 13.49 8.69 15.18 11.39"/></g></g></g></g></svg>