<svg xmlns="http://www.w3.org/2000/svg" width="109" height="109" viewBox="0 0 109 109"><g id="kvg:StrokePaths_08cbf"><g id="kvg:08cbf" kvg:element="貿"><g id="kvg:08cbf-g1" kvg:element="卯" kvg:variant="true" kvg:position="top" kvg:phon="卯V"><g id="kvg:08cbf-g2" kvg:position="left"><path id="kvg:08cbf-s1" kvg:type="㇒" d="M42.57 11.19c0 .94-.46 1.88-1.22 2.41-3.85 2.65-7.07 4.98-15.45 8.79"/><path id="kvg:08cbf-s2" kvg:type="㇙" d="M22.37 22.85c.64.64 1.07 1.78 1.07 3.09.0.81-.1 12.57-.1 15.7.0 2.75 1.28 3.74 3.94 2.03C31.62 40.88 39 36.5 44.32 33.48"/><path id="kvg:08cbf-s3" kvg:type="㇔" d="M41.03 26.62c3.22 3.5 5.97 8.13 7.27 13.03"/></g><g id="kvg:08cbf-g3" kvg:element="卩" kvg:variant="true" kvg:position="right"><g id="kvg:08cbf-g4" kvg:element="刀"><path id="kvg:08cbf-s4" kvg:type="㇆" d="M59.94 19.58c1.39.37 3.67.34 5.07.17 7.2-.87 18.09-2.65 21.69-3.05 1.81-.2 3.11.68 2.82 2.77C88.88 24 86.75 33 83.38 38.44c-1.97 3.17-3.88 2.31-5.94.08"/><g id="kvg:08cbf-g5" kvg:element="丿"><path id="kvg:08cbf-s5" kvg:type="㇒" d="M70.29 22.69c.21.68-.03 1.68-.33 2.24C67.25 30 63.62 36.12 56.3 41.88"/></g></g></g></g><g id="kvg:08cbf-g6" kvg:element="貝" kvg:position="bottom" kvg:radical="general"><g id="kvg:08cbf-g7" kvg:element="目" kvg:position="top"><path id="kvg:08cbf-s6" kvg:type="㇑" d="M34.97 48.88c.82.82 1.32 2.12 1.32 3.68.0 1.05.07 27.4.07 27.93.0.76-.07 2.39-.07 3.58"/><path id="kvg:08cbf-s7" kvg:type="㇕a" d="M37.36 50.46c6.89-.58 30.94-2.81 34.24-2.97 2.75-.13 3.65 1.26 3.68 3.21.08 5.28.01 18.64-.02 27.05-.01 2.06-.01 3.8-.01 5.04"/><path id="kvg:08cbf-s8" kvg:type="㇐a" d="M37.55 60.81c7.2-.56 30.66-2.13 36.46-2.13"/><path id="kvg:08cbf-s9" kvg:type="㇐a" d="M37.6 70.98c9.9-.48 26.28-1.73 36.49-2.08"/><path id="kvg:08cbf-s10" kvg:type="㇐a" d="M37.53 82.13c10.59-.88 26.47-1.76 36.49-2.33"/></g><g id="kvg:08cbf-g8" kvg:element="八" kvg:position="bottom"><path id="kvg:08cbf-s11" kvg:type="㇒" d="M44.67 85.66c0 .97-.43 1.97-1.5 2.93C39.38 92 32.12 96.75 23.75 100.5"/><path id="kvg:08cbf-s12" kvg:type="㇔" d="M67.25 86.38c6.52 3.57 14.22 10.04 16 13.16"/></g></g></g></g></svg>