<svg xmlns="http://www.w3.org/2000/svg" width="109" height="109" viewBox="0 0 109 109"><g id="kvg:StrokePaths_08cc1"><g id="kvg:08cc1" kvg:element="賁"><g id="kvg:08cc1-g1" kvg:element="卉" kvg:variant="true" kvg:position="top"><g id="kvg:08cc1-g2" kvg:element="十" kvg:position="top"><path id="kvg:08cc1-s1" kvg:type="㇐" d="M26.75 21.34c.66.19 2.41.6 4.16.57 8.09-.16 34.52-3.08 44.81-3.08 1.75.0 2.19-.19 3.28.0"/><path id="kvg:08cc1-s2" kvg:type="㇑" d="M51.69 9.25c.75.35 1.4 1.54 1.36 2.25-.29 5.25.0 15.43-.15 19.75"/></g><g id="kvg:08cc1-g3" kvg:element="廾" kvg:position="bottom"><g id="kvg:08cc1-g4" kvg:element="十" kvg:part="1"><path id="kvg:08cc1-s3" kvg:type="㇐" d="M12.16 38.32c1.87.42 4.04.5 5.92.42C35.25 37.98 69.5 35 89.3 34.94c3.11-.01 4.98.2 6.54.41"/></g><g id="kvg:08cc1-g5" kvg:element="丿" kvg:variant="true"><path id="kvg:08cc1-s4" kvg:type="㇑/㇒" d="M36.98 27.93c.95 1.02 1.31 1.32 1.35 1.95.42 7.12 1.26 14.37 1.53 16.49"/></g><g id="kvg:08cc1-g6" kvg:element="十" kvg:part="2"><path id="kvg:08cc1-s5" kvg:type="㇑" d="M70.36 25.13c.2.95.46 1.66.24 2.84-1.3 6.89-1.45 8.61-2.87 15.1"/></g></g></g><g id="kvg:08cc1-g7" kvg:element="貝" kvg:position="bottom" kvg:radical="general"><g id="kvg:08cc1-g8" kvg:element="目" kvg:position="top"><path id="kvg:08cc1-s6" kvg:type="㇑" d="M34.05 48.76c.44.8.59 2.4.59 3.47s.2 28.59-.32 33.08"/><path id="kvg:08cc1-s7" kvg:type="㇕a" d="M35.38 51.2c2.5-.13 34.59-3.38 36.87-3.54 1.9-.13 2.92.74 2.92 1.74.0 2.45-.56 33.25-.56 34.05"/><path id="kvg:08cc1-s8" kvg:type="㇐a" d="M35.19 61c6.51-.98 34.17-2.53 39.36-2.7"/><path id="kvg:08cc1-s9" kvg:type="㇐a" d="M34.89 71.65c7.07-.59 30.85-2.47 39.68-2.93"/><path id="kvg:08cc1-s10" kvg:type="㇐a" d="M34.57 83.21c8.89-1.28 31.62-2.3 40.01-3.14"/></g><g id="kvg:08cc1-g9" kvg:element="八" kvg:position="bottom"><path id="kvg:08cc1-s11" kvg:type="㇒" d="M42.71 86.97c-.21 1.03.0 1.92-1 2.73-3.02 2.45-12.33 7.48-18.37 10.38"/><path id="kvg:08cc1-s12" kvg:type="㇔" d="M64.09 86.17c7.98 4 17.4 11.26 19.58 14.75"/></g></g></g></g></svg>