<svg xmlns="http://www.w3.org/2000/svg" width="109" height="109" viewBox="0 0 109 109"><g id="kvg:StrokePaths_08cc2"><g id="kvg:08cc2" kvg:element="賂"><g id="kvg:08cc2-g1" kvg:element="貝" kvg:position="left" kvg:radical="general"><g id="kvg:08cc2-g2" kvg:element="目" kvg:position="top"><path id="kvg:08cc2-s1" kvg:type="㇑" d="M14.7 20.35c.36 1.13.89 1.97.89 3.48.0 1.5-.39 40.6-.24 45.57"/><path id="kvg:08cc2-s2" kvg:type="㇕a" d="M16.19 21.82c2.05-.19 17.67-2.6 19.53-2.82 1.56-.19 2.78 1.05 2.65 2.45-.17 1.77-.73 35.73-1.12 47.04"/><path id="kvg:08cc2-s3" kvg:type="㇐a" d="M16.15 37.75c6.43-.6 17.81-2.57 21.1-2.57"/><path id="kvg:08cc2-s4" kvg:type="㇐a" d="M16.32 52.07c7.83-.92 11.64-1.4 20.24-2.26"/><path id="kvg:08cc2-s5" kvg:type="㇐a" d="M16.85 67.54c4.07.0 15.02-1.76 20.3-1.76"/></g><g id="kvg:08cc2-g3" kvg:element="八" kvg:position="bottom"><path id="kvg:08cc2-s6" kvg:type="㇒" d="M20.97 75.23c.28 1.22.55 1.55.0 2.43-1.66 2.68-7.72 10.92-11.05 14.08"/><path id="kvg:08cc2-s7" kvg:type="㇔" d="M31.1 73.7c4.06 4.09 8.86 11.5 9.97 15.08"/></g></g><g id="kvg:08cc2-g4" kvg:element="各" kvg:position="right"><g id="kvg:08cc2-g5" kvg:element="夂" kvg:position="top"><path id="kvg:08cc2-s8" kvg:type="㇒" d="M60.29 13.25c.05.65.24 1.72-.09 2.61-2.57 6.81-7.34 16.97-15.38 25.46"/><path id="kvg:08cc2-s9" kvg:type="㇇" d="M61.42 21.47c.3.04 1.57.0 2.42-.1 2.8-.33 8.72-1.46 12.71-2.5 2.74-.71 3.52.81 2.82 2.75-3.84 10.61-19.44 35.92-36.68 42.92"/><path id="kvg:08cc2-s10" kvg:type="㇏" d="M55.15 32.08c5.21 5.06 28.82 24.28 35.84 28.9 2.09 1.38 3.79 2.05 5.83 2.46"/></g><g id="kvg:08cc2-g6" kvg:element="口" kvg:position="bottom"><path id="kvg:08cc2-s11" kvg:type="㇑" d="M49.83 69.51c.36.44.73.8.89 1.35 1.25 4.34 3.25 15.81 4.11 23.6"/><path id="kvg:08cc2-s12" kvg:type="㇕b" d="M52.08 71.47c10.17-1.47 25.59-3.29 29.83-3.86 1.55-.21 2.48 1.23 2.25 2.46-.92 5.07-2.99 12.67-4.35 19.68"/><path id="kvg:08cc2-s13" kvg:type="㇐b" d="M55.01 92.13c4.97-.65 18.24-1.88 27.36-2.75"/></g></g></g></g></svg>