<!DOCTYPE svg PUBLIC "-//W3C//DTD SVG 1.0//EN" "http://www.w3.org/TR/2001/REC-SVG-20010904/DTD/svg10.dtd" [
<!ATTLIST g
xmlns:kvg CDATA #FIXED "http://kanjivg.tagaini.net"
kvg:element CDATA #IMPLIED
kvg:variant CDATA #IMPLIED
kvg:partial CDATA #IMPLIED
kvg:original CDATA #IMPLIED
kvg:part CDATA #IMPLIED
kvg:number CDATA #IMPLIED
kvg:tradForm CDATA #IMPLIED
kvg:radicalForm CDATA #IMPLIED
kvg:position CDATA #IMPLIED
kvg:radical CDATA #IMPLIED
kvg:phon CDATA #IMPLIED >
<!ATTLIST path
xmlns:kvg CDATA #FIXED "http://kanjivg.tagaini.net"
kvg:type CDATA #IMPLIED >
]><svg xmlns="http://www.w3.org/2000/svg" width="109" height="109" viewBox="0 0 109 109"><g id="kvg:StrokePaths_08ccd" style="fill:none;stroke:#000000;stroke-width:3;stroke-linecap:round;stroke-linejoin:round;"><g id="kvg:08ccd" kvg:element="賍"><g id="kvg:08ccd-g1" kvg:element="貝" kvg:position="left" kvg:radical="general"><g id="kvg:08ccd-g2" kvg:element="目" kvg:position="top"><path id="kvg:08ccd-s1" kvg:type="㇑" d="M16.8 19.53c.3 1.33.74 2.32.74 4.1.0 1.77-.33 46.18-.2 52.04"/><path id="kvg:08ccd-s2" kvg:type="㇕a" d="M18.04 20.57c1.71-.22 13.7-2.56 15.26-2.83 1.29-.22 2.82.74 2.71 2.38-.14 2.09-.02 41.12-.35 54.46"/><path id="kvg:08ccd-s3" kvg:type="㇐a" d="M18.01 36.68c5.35-.7 14.83-1.53 17.56-1.53"/><path id="kvg:08ccd-s4" kvg:type="㇐a" d="M18.15 53.65c6.52-1.08 9.69-1.15 16.85-2.16"/><path id="kvg:08ccd-s5" kvg:type="㇐a" d="M18.59 73.48c3.39.0 12.59-1.16 16.98-1.16"/></g><g id="kvg:08ccd-g3" kvg:element="八" kvg:position="bottom"><path id="kvg:08ccd-s6" kvg:type="㇒" d="M21.9 79.67c.27 1.39.53 1.76.0 2.77C20.29 85.5 14.4 94.9 11.18 98.5"/><path id="kvg:08ccd-s7" kvg:type="㇔" d="M29.95 80c2.9 2.77 6.33 7.78 7.12 10.2"/></g></g><g id="kvg:08ccd-g4" kvg:element="庄" kvg:position="right"><g id="kvg:08ccd-g5" kvg:element="广" kvg:position="tare"><path id="kvg:08ccd-s8" kvg:type="㇑a" d="M67.06 12.63c.61.31 1.91 2.33 2.03 2.95s.06 8.28-.06 12.17"/><g id="kvg:08ccd-g6" kvg:element="厂"><path id="kvg:08ccd-s9" kvg:type="㇐" d="M46.78 29.31c1.18.47 3.34.55 4.52.47 12.28-.79 25.55-3.58 40.95-3.76 1.97-.02 3.15.23 4.13.46"/><path id="kvg:08ccd-s10" kvg:type="㇒" d="M50.17 30c.03 1.52.07 3.93-.06 6.12-.76 12.9-2.85 44.2-11.05 58.1"/></g></g><g id="kvg:08ccd-g7" kvg:element="土" kvg:position="tarec"><path id="kvg:08ccd-s11" kvg:type="㇐" d="M56.39 56.2c1.14.44 3.22.5 4.36.44 7.75-.39 23-3.14 28.5-2.77 1.89.13 3.04.21 3.99.43"/><path id="kvg:08ccd-s12" kvg:type="㇑a" d="M70.42 33.62c.12.29 1.77 1.52 1.77 3.39.0 12 .14 37.5.14 53.36"/><path id="kvg:08ccd-s13" kvg:type="㇐" d="M48.65 90.93c1.42.7 4.02.73 5.45.7 11.84-.3 27.28-1.97 38.28-2.08 2.38-.03 3.79.33 4.98.68"/></g></g></g></g><g id="kvg:StrokeNumbers_08ccd" style="font-size:8;fill:#808080"><text transform="matrix(1 0 0 1 10.50 26.50)">1</text><text transform="matrix(1 0 0 1 19.50 16.50)">2</text><text transform="matrix(1 0 0 1 21.33 33.50)">3</text><text transform="matrix(1 0 0 1 21.50 50.50)">4</text><text transform="matrix(1 0 0 1 21.37 70.50)">5</text><text transform="matrix(1 0 0 1 14.50 84.50)">6</text><text transform="matrix(1 0 0 1 26.50 88.50)">7</text><text transform="matrix(1 0 0 1 59.50 12.50)">8</text><text transform="matrix(1 0 0 1 48.75 26.50)">9</text><text transform="matrix(1 0 0 1 39.50 38.50)">10</text><text transform="matrix(1 0 0 1 53.50 53.50)">11</text><text transform="matrix(1 0 0 1 58.50 39.50)">12</text><text transform="matrix(1 0 0 1 47.50 87.50)">13</text></g></svg>