<svg xmlns="http://www.w3.org/2000/svg" width="109" height="109" viewBox="0 0 109 109"><g id="kvg:StrokePaths_08ce2"><g id="kvg:08ce2" kvg:element="賢"><g id="kvg:08ce2-g1" kvg:position="top" kvg:phon="臤"><g id="kvg:08ce2-g2" kvg:element="臣" kvg:position="left"><path id="kvg:08ce2-s1" kvg:type="㇑" d="M23.54 15.08c.69.69.9 1.54.9 2.58.0 4.97.03 20.05.03 28.58.0 1.89.0 3.9.0 4.82"/><path id="kvg:08ce2-s2" kvg:type="㇐b" d="M25.28 16.09c6.34-.84 13.72-1.81 20.99-2.55 1.59-.16 3.1-.33 4.7-.08"/><path id="kvg:08ce2-s3" kvg:type="㇑a" d="M37.34 15.89c.63.63.9 1.36.9 2.08.0 2.03-.07 3.89-.11 6.53"/><path id="kvg:08ce2-s4" kvg:type="㇕b" d="M25.66 27.47c7.01-1.06 15.05-2.29 20.36-3.06 2.37-.34 4.25-.5 3.56 2.36-.48 2-1.59 4.79-2.03 6.96"/><path id="kvg:08ce2-s5" kvg:type="㇐b" d="M25.63 37.72c2.44-.36 12.51-1.73 18.89-2.5 1.95-.24 3.46-.42 4.16-.5"/><path id="kvg:08ce2-s6" kvg:type="㇑a" d="M37.8 36.86c.6.6.65 1.39.65 2.33.0 1.43-.07 2.99-.07 6.06"/><path id="kvg:08ce2-s7" kvg:type="㇐b" d="M25.63 48.26c2.85-.42 11.74-1.64 18.88-2.44 1.51-.17 3.26-.58 4.77-.35"/></g><g id="kvg:08ce2-g3" kvg:element="又" kvg:position="right"><path id="kvg:08ce2-s8" kvg:type="㇇" d="M58.83 16.69c1.96.44 3.94.28 5.92-.15 3.98-.86 10.42-2.52 13.38-3.25 2.31-.58 4.32.75 3.12 3.27-5.5 11.56-13.87 21.69-24.75 27.91"/><path id="kvg:08ce2-s9" kvg:type="㇏" d="M57.52 23.04c2.95.52 14.73 11.96 25.03 19.58 2.07 1.53 3.92 2.74 6.2 3.9"/></g></g><g id="kvg:08ce2-g4" kvg:element="貝" kvg:position="bottom" kvg:radical="general"><g id="kvg:08ce2-g5" kvg:element="目" kvg:position="top"><path id="kvg:08ce2-s10" kvg:type="㇑" d="M37.34 51.85c.78.78 1.08 1.85 1.08 2.88.0 3.38-.07 16.96-.1 25.02-.01 2.42-.02 4.33-.02 5.33"/><path id="kvg:08ce2-s11" kvg:type="㇕a" d="M39.32 53.17c4.93-.67 25.36-3.03 28.15-3.18 2.32-.13 3.96 1.01 3.96 3.18.0 2.77-.01 15.96-.04 23.82-.01 3.04-.01 5.17-.01 5.39"/><path id="kvg:08ce2-s12" kvg:type="㇐a" d="M39.52 63.31c9.86-1.06 24.11-2.69 30.57-3.09"/><path id="kvg:08ce2-s13" kvg:type="㇐a" d="M39.52 73.05c8.9-1.04 20.48-2.05 30.71-2.8"/><path id="kvg:08ce2-s14" kvg:type="㇐a" d="M39.56 83.24c9.44-.99 21.32-2.12 30.71-2.55"/></g><g id="kvg:08ce2-g6" kvg:element="八" kvg:position="bottom"><path id="kvg:08ce2-s15" kvg:type="㇒" d="M43.05 86.72c0 .91-.48 1.92-1.25 2.6-2.33 2.03-9.26 6.03-13.92 8.43"/><path id="kvg:08ce2-s16" kvg:type="㇔" d="M64.62 86.75c5.7 2.81 12.44 7.9 14 10.36"/></g></g></g></g></svg>