<svg xmlns="http://www.w3.org/2000/svg" width="109" height="109" viewBox="0 0 109 109"><g id="kvg:StrokePaths_08cfa"><g id="kvg:08cfa" kvg:element="賺"><g id="kvg:08cfa-g1" kvg:element="貝" kvg:position="left" kvg:radical="general"><g id="kvg:08cfa-g2" kvg:element="目" kvg:position="top"><path id="kvg:08cfa-s1" kvg:type="㇑" d="M15.86 18.05c.28.97.68 1.7.68 2.99s-.3 50.08-.18 54.36"/><path id="kvg:08cfa-s2" kvg:type="㇕a" d="M17 19.95c1.56-.16 13.45-2.73 14.87-2.93 1.18-.16 2.12.91 2.02 2.11-.13 1.52-.23 46.37-.23 55.99"/><path id="kvg:08cfa-s3" kvg:type="㇐a" d="M16.97 37.31c4.9-.51 13.56-1.72 16.07-1.72"/><path id="kvg:08cfa-s4" kvg:type="㇐a" d="M17.1 53.56c5.96-.79 8.86-.7 15.41-1.44"/><path id="kvg:08cfa-s5" kvg:type="㇐a" d="M17.5 72.81c3.1.0 12.06-1.44 16.07-1.44"/></g><g id="kvg:08cfa-g3" kvg:element="八" kvg:position="bottom"><path id="kvg:08cfa-s6" kvg:type="㇒" d="M20.65 79.93c.26 1.38.51 1.76.0 2.77-1.54 3.04-7.15 12.42-10.22 16.02"/><path id="kvg:08cfa-s7" kvg:type="㇔" d="M27.85 79.82c2.84 4.31 6.2 12.11 6.97 15.89"/></g></g><g id="kvg:08cfa-g4" kvg:element="兼" kvg:variant="true" kvg:position="right"><path id="kvg:08cfa-s8" kvg:type="㇒" d="M61.73 11.88c.05.29.09.74-.09 1.15-1.13 2.42-7.56 7.74-16.37 10.99"/><path id="kvg:08cfa-s9" kvg:type="㇒" d="M80.07 11.39c.05.28.09.72-.09 1.12-1.11 2.37-7.44 7.57-16.11 10.76"/><path id="kvg:08cfa-s10" kvg:type="㇐" d="M41.36 33.37c1.13.35 3.2.43 4.33.35 7.59-.5 31.8-3.35 43.09-4.05 1.88-.12 3.01.17 3.95.34"/><g id="kvg:08cfa-g5" kvg:element="⺕" kvg:variant="true" kvg:original="彑"><path id="kvg:08cfa-s11" kvg:type="㇕" d="M44.63 42.29c1.61.22 2.5.68 4.6.44 11.5-1.31 25.35-3.49 35.71-4.15 2.06-.13 3.22 1.53 2.76 3.71-1.2 5.71-1.6 12.09-2.57 17.06"/><path id="kvg:08cfa-s12" kvg:type="㇐" d="M39 51.52c1.79.18 3.2.54 5.18.37 17.32-1.48 34.44-3.08 48.37-4.21 2.19-.18 3.98.37 4.98.56"/><path id="kvg:08cfa-s13" kvg:type="㇐c" d="M44.77 61.88c1.17.11 3.3.43 4.69.33 10.38-.78 23.46-1.96 33.91-2.73 1.86-.13 3.05.0 4.46.11"/></g><g id="kvg:08cfa-g6" kvg:element="丨"><path id="kvg:08cfa-s14" kvg:type="㇑" d="M55.63 22.94c.92.48 1.47 2.14 1.65 3.08.18.95.0 66.05-.18 71.99"/></g><g id="kvg:08cfa-g7" kvg:element="丨"><path id="kvg:08cfa-s15" kvg:type="㇑" d="M69.35 23.45c.91.47 1.47 2.14 1.65 3.08.18.95.0 65.55-.19 71.49"/></g><g id="kvg:08cfa-g8" kvg:element="八"><g id="kvg:08cfa-g9" kvg:position="left"><path id="kvg:08cfa-s16" kvg:type="㇒" d="M56.62 62.23c-3.43 7.7-12.35 18.61-19.49 22.97"/></g><g id="kvg:08cfa-g10" kvg:position="right"><path id="kvg:08cfa-s17" kvg:type="㇏" d="M71.16 61.37c4.59 6.13 14.59 19.88 21.97 25.02 1.45 1.01 2.32 1.77 3.57 2.13"/></g></g></g></g></g></svg>