<svg xmlns="http://www.w3.org/2000/svg" width="109" height="109" viewBox="0 0 109 109"><g id="kvg:StrokePaths_08d08" style="fill:none;stroke:#000000;stroke-width:3;stroke-linecap:round;stroke-linejoin:round;"><g id="kvg:08d08" kvg:element="贈"><g id="kvg:08d08-g1" kvg:element="貝" kvg:position="left" kvg:radical="general"><g id="kvg:08d08-g2" kvg:element="目" kvg:position="top"><path id="kvg:08d08-s1" kvg:type="㇑" d="M16.42 23.9c.97.97 1.32 2.57 1.32 4.1.0 1.26.0 29.08.0 41.51.0 2.74.0 4.73.0 5.53"/><path id="kvg:08d08-s2" kvg:type="㇕a" d="M18.54 25.51c3.58-.51 10.68-1.43 15.21-2.1 3.6-.54 4.62.7 4.53 4.21-.14 4.91-.12 28.36-.1 39.87.01 3.65.01 6.1.01 6.38"/><path id="kvg:08d08-s3" kvg:type="㇐a" d="M18.76 40.91C24 40.5 33 39 37.17 38.66"/><path id="kvg:08d08-s4" kvg:type="㇐a" d="M19.16 55.28c5.71-.53 13.09-1.53 17.78-1.72"/><path id="kvg:08d08-s5" kvg:type="㇐a" d="M18.9 71.09c5.73-.21 11.35-.84 18.03-.97"/></g><g id="kvg:08d08-g3" kvg:element="八" kvg:position="bottom"><path id="kvg:08d08-s6" kvg:type="㇒" d="M23.51 79.16c.23 1.33-.04 2.46-.5 3.37-1.38 2.75-6.02 9.09-8.78 12.24"/><path id="kvg:08d08-s7" kvg:type="㇔" d="M32.38 78.12c3.83 3.4 8.35 9.44 9.4 12.3"/></g></g><g id="kvg:08d08-g4" kvg:element="曽" kvg:position="right" kvg:phon="曽"><g id="kvg:08d08-g5" kvg:position="top"><path id="kvg:08d08-s8" kvg:type="㇔" d="M52.33 16.59c2.48 1.79 6.41 7.35 7.03 10.13"/><path id="kvg:08d08-s9" kvg:type="㇒" d="M81.8 13.56c.04.89-.03 1.41-.35 2.26-1.31 3.51-2.83 7.13-6.06 12.62"/><g id="kvg:08d08-g6" kvg:element="田"><path id="kvg:08d08-s10" kvg:type="㇑" d="M47.91 32.68c.89.89 1.22 1.82 1.47 2.98.81 3.81 2.22 12.29 3.03 17.48.35 2.24.59 3.87.63 4.24"/><path id="kvg:08d08-s11" kvg:type="㇕a" d="M49.82 34.03c13.91-2.15 28.79-4.04 38.58-4.89 4.37-.38 6.55-.15 5.34 4.55-1.38 5.39-2.52 9.6-4.79 16.45-.46 1.4-.97 2.9-1.54 4.55"/><path id="kvg:08d08-s12" kvg:type="㇑a" d="M69.18 33.67c.84.7.88 1.68.87 2.63-.04 4.98.06 9.63.06 16.77"/><path id="kvg:08d08-s13" kvg:type="㇐a" d="M52.3 44.83c9.83-1.58 30.33-3.95 38.53-4.28"/><path id="kvg:08d08-s14" kvg:type="㇐a" d="M54.09 55.97c9.76-.99 22.38-2.45 32.91-3.08"/></g></g><g id="kvg:08d08-g7" kvg:element="日" kvg:position="bottom"><path id="kvg:08d08-s15" kvg:type="㇑" d="M54.87 64.24c.82.82.98 1.94 1.02 3.61.23 8.65.58 15.57.73 23.9.03 1.43.04 2.86.04 4.25"/><path id="kvg:08d08-s16" kvg:type="㇕a" d="M56.55 65.93c3.87-.47 19.17-2.24 25.44-2.84 3.62-.35 5.22.63 5.06 4.41-.18 4.43-.75 11.88-1.62 21.74-.13 1.45-.26 2.97-.4 4.54"/><path id="kvg:08d08-s17" kvg:type="㇐a" d="M57.25 78.6C63 78.25 79 76.5 85.43 76.37"/><path id="kvg:08d08-s18" kvg:type="㇐a" d="M58.11 92.97c7.71-.41 17.77-1.47 26.12-1.84"/></g></g></g></g></svg>