<!DOCTYPE svg PUBLIC "-//W3C//DTD SVG 1.0//EN" "http://www.w3.org/TR/2001/REC-SVG-20010904/DTD/svg10.dtd" [
<!ATTLIST g
xmlns:kvg CDATA #FIXED "http://kanjivg.tagaini.net"
kvg:element CDATA #IMPLIED
kvg:variant CDATA #IMPLIED
kvg:partial CDATA #IMPLIED
kvg:original CDATA #IMPLIED
kvg:part CDATA #IMPLIED
kvg:number CDATA #IMPLIED
kvg:tradForm CDATA #IMPLIED
kvg:radicalForm CDATA #IMPLIED
kvg:position CDATA #IMPLIED
kvg:radical CDATA #IMPLIED
kvg:phon CDATA #IMPLIED >
<!ATTLIST path
xmlns:kvg CDATA #FIXED "http://kanjivg.tagaini.net"
kvg:type CDATA #IMPLIED >
]><svg xmlns="http://www.w3.org/2000/svg" width="109" height="109" viewBox="0 0 109 109"><g id="kvg:StrokePaths_08d0a" style="fill:none;stroke:#000000;stroke-width:3;stroke-linecap:round;stroke-linejoin:round;"><g id="kvg:08d0a" kvg:element="贊"><g id="kvg:08d0a-g1" kvg:position="top"><g id="kvg:08d0a-g2" kvg:element="先" kvg:position="left"><g id="kvg:08d0a-g3" kvg:position="top"><path id="kvg:08d0a-s1" kvg:type="㇒" d="M29.56 12.87c.05.37.14.98-.1 1.49C28 17.5 24.5 23.75 20.59 27.4"/><path id="kvg:08d0a-s2" kvg:type="㇐" d="M27.19 20.97c.41.16 2.36.2 2.78.16 3.88-.33 12.25-1.34 16.64-1.85.68-.08 2.3.08 2.64.16"/><path id="kvg:08d0a-s3" kvg:type="㇑a" d="M35.77 9.63c.38.21 1.17 1.61 1.25 2.04.08.43.04 13.68-.04 16.37"/><path id="kvg:08d0a-s4" kvg:type="㇐" d="M17.14 32.09c.93.27 2.65.36 3.57.27 7.8-.81 17.71-2.89 27.64-3.76 1.55-.14 2.49.13 3.26.26"/></g><g id="kvg:08d0a-g4" kvg:element="儿" kvg:original="八" kvg:position="bottom"><g id="kvg:08d0a-g5" kvg:element="丿"><path id="kvg:08d0a-s5" kvg:type="㇒" d="M31.35 33.65c.03.34.07.87-.07 1.36-.82 2.87-5.04 9.15-11.48 13"/></g><path id="kvg:08d0a-s6" kvg:type="㇟" d="M40.84 29.65c.27.64.49 1.39.51 2.38.04 2.57-.1 5.93-.1 8.97.0 1.69 1.07 1.65 2.25 1 4.5-2.5 5.5-3.5 8.5-5.5"/></g></g><g id="kvg:08d0a-g6" kvg:element="先" kvg:position="right"><g id="kvg:08d0a-g7" kvg:position="top"><path id="kvg:08d0a-s7" kvg:type="㇒" d="M62.57 11.62c.04.34.13.9-.07 1.37C61 16.5 58.25 21.5 55.84 24.9"/><path id="kvg:08d0a-s8" kvg:type="㇐" d="M62.19 19.4c.47.17 2.69.21 3.16.17 4.4-.35 13.92-1.45 18.91-1.99.78-.08 2.61.08 3 .17"/><path id="kvg:08d0a-s9" kvg:type="㇑a" d="M70.83 9.38c.34.19 1.06 1.46 1.13 1.85s.04 12.38-.03 14.81"/><path id="kvg:08d0a-s10" kvg:type="㇐" d="M56.64 28.96c.92.32 2.61.35 3.53.32 7.34-.26 22.58-3.03 28.22-3.61 1.53-.16 2.46.15 3.22.31"/></g><g id="kvg:08d0a-g8" kvg:element="儿" kvg:original="八" kvg:position="bottom"><g id="kvg:08d0a-g9" kvg:element="丿"><path id="kvg:08d0a-s11" kvg:type="㇒" d="M67.6 30.65c.03.31.07.8-.07 1.24-.82 2.62-5.04 8.36-11.48 11.87"/></g><path id="kvg:08d0a-s12" kvg:type="㇟" d="M75.34 27.9c.3.51.54 1.11.56 1.9.05 2.05-.23 4.99-.23 7.42.0 4.25.17 5.55 6.98 5.56 10.4.01 8.63-2.41 8.74-3.92"/></g></g></g><g id="kvg:08d0a-g10" kvg:element="貝" kvg:position="bottom" kvg:radical="general"><g id="kvg:08d0a-g11" kvg:element="目" kvg:position="top"><path id="kvg:08d0a-s13" kvg:type="㇑" d="M33.31 48.31c.65 1.28 1.61 2.24 1.61 3.95s.3 27-.48 34.16"/><path id="kvg:08d0a-s14" kvg:type="㇕a" d="M36.01 50.8c3.7-.21 31.88-2.95 35.25-3.21 2.81-.21 4.31 1.18 4.31 2.78.0 3.91-.83 33.44-.83 34.72"/><path id="kvg:08d0a-s15" kvg:type="㇐a" d="M34.99 61.35c6.92-.49 33.73-2.97 39.66-2.97"/><path id="kvg:08d0a-s16" kvg:type="㇐a" d="M35.29 72.56c10.43-.94 28.34-2.85 39.4-3.04"/><path id="kvg:08d0a-s17" kvg:type="㇐a" d="M34.81 84.07c10.43-.7 30.37-2.56 39.88-2.56"/></g><g id="kvg:08d0a-g12" kvg:element="八" kvg:position="bottom"><path id="kvg:08d0a-s18" kvg:type="㇒" d="M43.54 87.03c.54 1.21-.41 2.39-1.49 3.27-3.25 2.66-11.8 8.32-18.3 11.46"/><path id="kvg:08d0a-s19" kvg:type="㇔" d="M63.78 86.3c7.32 3.65 15.98 10.27 17.97 13.46"/></g></g></g></g><g id="kvg:StrokeNumbers_08d0a" style="font-size:8;fill:#808080"><text transform="matrix(1 0 0 1 22.50 12.13)">1</text><text transform="matrix(1 0 0 1 31.00 19.05)">2</text><text transform="matrix(1 0 0 1 28.50 9.50)">3</text><text transform="matrix(1 0 0 1 10.00 34.15)">4</text><text transform="matrix(1 0 0 1 21.48 40.02)">5</text><text transform="matrix(1 0 0 1 34.50 38.25)">6</text><text transform="matrix(1 0 0 1 56.50 12.50)">7</text><text transform="matrix(1 0 0 1 64.75 17.85)">8</text><text transform="matrix(1 0 0 1 64.50 8.50)">9</text><text transform="matrix(1 0 0 1 58.50 27.70)">10</text><text transform="matrix(1 0 0 1 54.91 36.70)">11</text><text transform="matrix(1 0 0 1 77.36 35.02)">12</text><text transform="matrix(1 0 0 1 23.59 58.00)">13</text><text transform="matrix(1 0 0 1 44.50 47.50)">14</text><text transform="matrix(1 0 0 1 36.89 59.07)">15</text><text transform="matrix(1 0 0 1 36.89 69.07)">16</text><text transform="matrix(1 0 0 1 36.89 81.07)">17</text><text transform="matrix(1 0 0 1 44.62 91.53)">18</text><text transform="matrix(1 0 0 1 57.54 95.79)">19</text></g></svg>