<!DOCTYPE svg PUBLIC "-//W3C//DTD SVG 1.0//EN" "http://www.w3.org/TR/2001/REC-SVG-20010904/DTD/svg10.dtd" [
<!ATTLIST g
xmlns:kvg CDATA #FIXED "http://kanjivg.tagaini.net"
kvg:element CDATA #IMPLIED
kvg:variant CDATA #IMPLIED
kvg:partial CDATA #IMPLIED
kvg:original CDATA #IMPLIED
kvg:part CDATA #IMPLIED
kvg:number CDATA #IMPLIED
kvg:tradForm CDATA #IMPLIED
kvg:radicalForm CDATA #IMPLIED
kvg:position CDATA #IMPLIED
kvg:radical CDATA #IMPLIED
kvg:phon CDATA #IMPLIED >
<!ATTLIST path
xmlns:kvg CDATA #FIXED "http://kanjivg.tagaini.net"
kvg:type CDATA #IMPLIED >
]><svg xmlns="http://www.w3.org/2000/svg" width="109" height="109" viewBox="0 0 109 109"><g id="kvg:StrokePaths_08d07" style="fill:none;stroke:#000000;stroke-width:3;stroke-linecap:round;stroke-linejoin:round;"><g id="kvg:08d07" kvg:element="贇"><g id="kvg:08d07-g1" kvg:element="斌" kvg:position="top"><g id="kvg:08d07-g2" kvg:element="文" kvg:position="left"><g id="kvg:08d07-g3" kvg:element="亠" kvg:position="top"><path id="kvg:08d07-s1" kvg:type="㇑a" d="M30.51 13.3c.54.27 1.43 1.29 1.43 1.82.0 2.09-.02 7.18-.07 8.68"/><path id="kvg:08d07-s2" kvg:type="㇐" d="M15.75 25.51c.68.04 2.22.26 2.88.24 5.52-.22 16.92-2.15 23.24-2.44 1.12-.05 1.49-.06 2.82-.06"/></g><g id="kvg:08d07-g4" kvg:element="乂" kvg:position="bottom"><path id="kvg:08d07-s3" kvg:type="㇒" d="M40.77 26.87c.31.49.19 1.4-.35 2.25C35.25 37.25 26.75 44 16.35 49.04"/><path id="kvg:08d07-s4" kvg:type="㇏" d="M22.42 32.13c8.02 2.41 16.65 7.81 20.79 11.45"/></g></g><g id="kvg:08d07-g5" kvg:element="武" kvg:position="right"><g id="kvg:08d07-g6" kvg:element="一"><path id="kvg:08d07-s5" kvg:type="㇐" d="M52.11 17.14c.65.16 1.83.2 2.48.16 3.54-.22 10.1-1.2 12.66-1.25 1.08-.02.36-.01 1.04-.01"/></g><g id="kvg:08d07-g7" kvg:element="弋" kvg:part="1"><path id="kvg:08d07-s6" kvg:type="㇐" d="M50.49 25.09c.86.18 2.44.27 3.29.18 3.47-.35 26.49-3.67 36.06-4.08 1.43-.06 2.29.09 3 .18"/></g><g id="kvg:08d07-g8" kvg:element="止"><g id="kvg:08d07-g9" kvg:element="卜" kvg:original="ト"><path id="kvg:08d07-s7" kvg:type="㇑a" d="M62.1 28.19c.56.21.9.96 1.02 1.39.14.55-.16 9.25-.28 11.95"/><path id="kvg:08d07-s8" kvg:type="㇐b" d="M63.41 32.62c3.69-.32 4.66-.79 8.54-1.01.9-.05 1.13-.11 1.69.0"/></g><path id="kvg:08d07-s9" kvg:type="㇑a" d="M53.1 33.04c-.5-.19.68.07 1.05 1.44.12.44.25 7.9.13 10.67"/><path id="kvg:08d07-s10" kvg:type="㇐" d="M50.08 45.56c.34.45 1.86.56 2.72.26 8.01-2.82 10.33-3.92 20.78-7.79"/></g><g id="kvg:08d07-g10" kvg:element="弋" kvg:part="2"><path id="kvg:08d07-s11" kvg:type="㇂" d="M73.94 10.5c.92.75 1.27.97 1.5 2.58 2.06 14.17 6.31 25.17 16.08 32.42 3.36 2.49 3-1.11 2.54-4.44"/><g id="kvg:08d07-g11" kvg:element="丶"><path id="kvg:08d07-s12" kvg:type="㇔" d="M82.8 10.34c2.22 1.3 5.77 4.26 6.8 6.48"/></g></g></g></g><g id="kvg:08d07-g12" kvg:element="貝" kvg:position="bottom" kvg:radical="general"><g id="kvg:08d07-g13" kvg:element="目" kvg:position="top"><path id="kvg:08d07-s13" kvg:type="㇑" d="M31.75 50.79c.42.78 1.05 1.36 1.05 2.4s.2 27.74-.31 32.09"/><path id="kvg:08d07-s14" kvg:type="㇕a" d="M33.5 52.19c2.41-.13 38.25-2.79 40.44-2.95 1.83-.13 2.8.72 2.8 1.69.0 2.37-.54 32.26-.54 33.03"/><path id="kvg:08d07-s15" kvg:type="㇐a" d="M32.84 61.65c4.5-.3 39.45-3.11 43.31-3.11"/><path id="kvg:08d07-s16" kvg:type="㇐a" d="M33.04 71.5c6.79-.57 35.94-2.73 43.14-2.85"/><path id="kvg:08d07-s17" kvg:type="㇐a" d="M32.73 82.23c6.79-.43 37.26-2.56 43.45-2.56"/></g><g id="kvg:08d07-g14" kvg:element="八" kvg:position="bottom"><path id="kvg:08d07-s18" kvg:type="㇒" d="M41.95 85.58c.53 1.06-.4 2.1-1.44 2.87-3.16 2.33-11.45 7.3-17.76 10.05"/><path id="kvg:08d07-s19" kvg:type="㇔" d="M65.25 86.76c7.43 3.28 16.22 9.21 18.25 12.08"/></g></g></g></g><g id="kvg:StrokeNumbers_08d07" style="font-size:8;fill:#808080"><text transform="matrix(1 0 0 1 22.50 13.50)">1</text><text transform="matrix(1 0 0 1 8.50 25.50)">2</text><text transform="matrix(1 0 0 1 32.25 31.48)">3</text><text transform="matrix(1 0 0 1 16.25 37.40)">4</text><text transform="matrix(1 0 0 1 50.25 14.50)">5</text><text transform="matrix(1 0 0 1 49.50 23.25)">6</text><text transform="matrix(1 0 0 1 56.50 32.50)">7</text><text transform="matrix(1 0 0 1 66.25 30.10)">8</text><text transform="matrix(1 0 0 1 45.75 33.50)">9</text><text transform="matrix(1 0 0 1 44.50 43.50)">10</text><text transform="matrix(1 0 0 1 67.50 7.50)">11</text><text transform="matrix(1 0 0 1 78.50 8.50)">12</text><text transform="matrix(1 0 0 1 19.25 58.73)">13</text><text transform="matrix(1 0 0 1 33.50 49.50)">14</text><text transform="matrix(1 0 0 1 37.50 59.50)">15</text><text transform="matrix(1 0 0 1 37.50 68.50)">16</text><text transform="matrix(1 0 0 1 37.50 79.50)">17</text><text transform="matrix(1 0 0 1 23.50 92.50)">18</text><text transform="matrix(1 0 0 1 57.50 92.50)">19</text></g></svg>