<!DOCTYPE svg PUBLIC "-//W3C//DTD SVG 1.0//EN" "http://www.w3.org/TR/2001/REC-SVG-20010904/DTD/svg10.dtd" [
<!ATTLIST g
xmlns:kvg CDATA #FIXED "http://kanjivg.tagaini.net"
kvg:element CDATA #IMPLIED
kvg:variant CDATA #IMPLIED
kvg:partial CDATA #IMPLIED
kvg:original CDATA #IMPLIED
kvg:part CDATA #IMPLIED
kvg:number CDATA #IMPLIED
kvg:tradForm CDATA #IMPLIED
kvg:radicalForm CDATA #IMPLIED
kvg:position CDATA #IMPLIED
kvg:radical CDATA #IMPLIED
kvg:phon CDATA #IMPLIED >
<!ATTLIST path
xmlns:kvg CDATA #FIXED "http://kanjivg.tagaini.net"
kvg:type CDATA #IMPLIED >
]><svg xmlns="http://www.w3.org/2000/svg" width="109" height="109" viewBox="0 0 109 109"><g id="kvg:StrokePaths_08d66" style="fill:none;stroke:#000000;stroke-width:3;stroke-linecap:round;stroke-linejoin:round;"><g id="kvg:08d66" kvg:element="赦"><g id="kvg:08d66-g1" kvg:element="赤" kvg:position="left" kvg:radical="general" kvg:phon="赤"><g id="kvg:08d66-g2" kvg:element="土" kvg:position="top"><path id="kvg:08d66-s1" kvg:type="㇐" d="M18.76 30.17c1.87.33 3.71.38 4.99.18 5.47-.83 14.02-2.06 20.5-2.72 1.44-.15 3.12-.25 4.5.16"/><path id="kvg:08d66-s2" kvg:type="㇑a" d="M33.42 15.2c1.07 1.07 1.23 2.68 1.23 4.59.0 8.23.0 14.09.0 22.47"/><path id="kvg:08d66-s3" kvg:type="㇐" d="M9.88 45.92c2 .58 4.69.47 6.37.23 7.39-1.06 20.83-3.3 30-4.19 2.04-.2 4.14-.57 6.13.08"/></g><g id="kvg:08d66-g3" kvg:position="bottom"><path id="kvg:08d66-s4" kvg:type="㇒" d="M27.59 47.64c.88.88 1.4 2.23 1.32 4.52C28.5 64.75 27 78 19.59 92.25"/><path id="kvg:08d66-s5" kvg:type="㇚" d="M39.57 45.83c.93.93 1.34 2.29 1.34 4.27.0 14.56-.03 33.07-.03 38.02.0 12.25-4.62 1.38-5.93.12"/><path id="kvg:08d66-s6" kvg:type="㇒" d="M19.48 60.64c.02.49.04 1.28-.04 1.98-.52 4.19-2.73 12.25-6.8 17.87"/><path id="kvg:08d66-s7" kvg:type="㇔" d="M48.37 58.58c2.08 2.67 5.38 10.98 5.9 15.13"/></g></g><g id="kvg:08d66-g4" kvg:element="攵" kvg:variant="true" kvg:original="攴" kvg:position="right"><g id="kvg:08d66-g5" kvg:element="𠂉" kvg:position="top"><path id="kvg:08d66-s8" kvg:type="㇒" d="M67.55 19.64c.04.79.01 2.08-.33 3.16-2.21 6.95-7.32 20.56-14.97 30.17"/><path id="kvg:08d66-s9" kvg:type="㇐" d="M60.68 44.71c1.41.29 3.43.14 4.84-.15 6.35-1.31 14.03-3.28 21.01-5.3 1.72-.5 3.84-1 5.66-.71"/></g><g id="kvg:08d66-g6" kvg:element="乂" kvg:position="bottom"><g id="kvg:08d66-g7" kvg:element="丿"><path id="kvg:08d66-s10" kvg:type="㇒" d="M77.91 45.11c.45 1.14.7 1.96.23 4.05-4.32 19-14.08 35.35-28.35 43.33"/></g><path id="kvg:08d66-s11" kvg:type="㇏" d="M58.56 54.1c2.06.0 17.19 19.28 26.96 29.51 2.47 2.59 5.22 4.69 8.48 6.21"/></g></g></g></g><g id="kvg:StrokeNumbers_08d66" style="font-size:8;fill:#808080"><text transform="matrix(1 0 0 1 12.50 31.50)">1</text><text transform="matrix(1 0 0 1 23.25 15.13)">2</text><text transform="matrix(1 0 0 1 2.50 47.50)">3</text><text transform="matrix(1 0 0 1 21.50 55.50)">4</text><text transform="matrix(1 0 0 1 33.50 54.50)">5</text><text transform="matrix(1 0 0 1 11.50 62.50)">6</text><text transform="matrix(1 0 0 1 44.25 69.13)">7</text><text transform="matrix(1 0 0 1 58.50 19.50)">8</text><text transform="matrix(1 0 0 1 66.50 41.50)">9</text><text transform="matrix(1 0 0 1 67.50 51.63)">10</text><text transform="matrix(1 0 0 1 64.50 58.50)">11</text></g></svg>