<!DOCTYPE svg PUBLIC "-//W3C//DTD SVG 1.0//EN" "http://www.w3.org/TR/2001/REC-SVG-20010904/DTD/svg10.dtd" [
<!ATTLIST g
xmlns:kvg CDATA #FIXED "http://kanjivg.tagaini.net"
kvg:element CDATA #IMPLIED
kvg:variant CDATA #IMPLIED
kvg:partial CDATA #IMPLIED
kvg:original CDATA #IMPLIED
kvg:part CDATA #IMPLIED
kvg:number CDATA #IMPLIED
kvg:tradForm CDATA #IMPLIED
kvg:radicalForm CDATA #IMPLIED
kvg:position CDATA #IMPLIED
kvg:radical CDATA #IMPLIED
kvg:phon CDATA #IMPLIED >
<!ATTLIST path
xmlns:kvg CDATA #FIXED "http://kanjivg.tagaini.net"
kvg:type CDATA #IMPLIED >
]><svg xmlns="http://www.w3.org/2000/svg" width="109" height="109" viewBox="0 0 109 109"><g id="kvg:StrokePaths_08d8a" style="fill:none;stroke:#000000;stroke-width:3;stroke-linecap:round;stroke-linejoin:round;"><g id="kvg:08d8a" kvg:element="越"><g id="kvg:08d8a-g1" kvg:element="走" kvg:position="nyo" kvg:radical="general"><g id="kvg:08d8a-g2" kvg:element="土" kvg:position="top"><path id="kvg:08d8a-s1" kvg:type="㇐" d="M18.69 30.41c1.53.65 2.98.48 4.58.33 5.41-.52 13.44-1.73 18.24-2.25 1.24-.13 2.24-.24 3.55-.11"/><path id="kvg:08d8a-s2" kvg:type="㇑a" d="M32.9 13.83c1.02 1.02 1.23 2.16 1.23 3.42.0 8.38.02 22.77.02 25.62"/><path id="kvg:08d8a-s3" kvg:type="㇐" d="M14.46 46.12c1.67.76 4.17.45 5.92.17 7.19-1.16 14.94-2.3 21.38-3.11 1.93-.24 4.24-.31 6.03.04"/></g><g id="kvg:08d8a-g3" kvg:element="龰" kvg:position="bottom"><path id="kvg:08d8a-s4" kvg:type="㇑a" d="M33.29 46.55c.83.83 1.16 2.08 1.16 3.29.0.96-.07 20.77-.07 27.78"/><path id="kvg:08d8a-s5" kvg:type="㇐c" d="M35.57 61.34c3.94-.47 8.26-1.69 9.96-1.69 1.03.0 1.64-.08 2.16.1"/><path id="kvg:08d8a-s6" kvg:type="㇒" d="M22.02 56.8c.48 1.07.32 2.29.18 3.57-.85 7.52-3.7 22.38-12.2 33.9"/><path id="kvg:08d8a-s7" kvg:type="㇏" d="M20.67 74.74C31.86 77.06 60.07 88.75 75 93.17c5.17 1.53 10.56 2.67 15.89 3.49"/></g></g><g id="kvg:08d8a-g4" kvg:element="戉" kvg:position="nyoc" kvg:phon="戉"><g id="kvg:08d8a-g5" kvg:element="厂" kvg:part="1" kvg:variant="true"><path id="kvg:08d8a-s8" kvg:type="㇙" d="M53.77 36.45c.83.83 1.18 1.93 1.18 3.05.0.79-.22 30.03-.37 31.98-.13 1.76.68 2.41 2.14.97 4.78-4.7 7.4-7.2 12.68-11.82"/></g><g id="kvg:08d8a-g6" kvg:element="戈"><g id="kvg:08d8a-g7" kvg:element="弋" kvg:part="1"><g id="kvg:08d8a-g8" kvg:element="厂" kvg:part="2" kvg:variant="true"><path id="kvg:08d8a-s9" kvg:type="㇐" d="M51.59 35.57C53.5 36 55.31 35.89 57 35.76 67 35 75.38 33.5 83.51 31.58c1.34-.32 3.61-.54 4.96-.13"/></g><path id="kvg:08d8a-s10" kvg:type="㇂" d="M63.41 11.21c1.29 1.51 1.71 2.94 2.02 6.18C68 43.81 75.46 66.29 88.66 78.73c5.59 5.27 6.59 4.65 5.75-4.29"/></g><g id="kvg:08d8a-g9" kvg:element="丿"><path id="kvg:08d8a-s11" kvg:type="㇒" d="M87.28 41.17c.06.88.13 2.28-.12 3.55-1.49 7.48-10.07 24.71-21.8 34.75"/></g><g id="kvg:08d8a-g10" kvg:element="弋" kvg:part="2"><g id="kvg:08d8a-g11" kvg:element="丶"><path id="kvg:08d8a-s12" kvg:type="㇔" d="M77.5 12.5c2.85 1.87 7.41 6.15 8.74 9.36"/></g></g></g></g></g></g><g id="kvg:StrokeNumbers_08d8a" style="font-size:8;fill:#808080"><text transform="matrix(1 0 0 1 12.75 31.63)">1</text><text transform="matrix(1 0 0 1 23.50 14.50)">2</text><text transform="matrix(1 0 0 1 7.50 47.50)">3</text><text transform="matrix(1 0 0 1 27.50 54.13)">4</text><text transform="matrix(1 0 0 1 38.50 57.50)">5</text><text transform="matrix(1 0 0 1 13.50 58.50)">6</text><text transform="matrix(1 0 0 1 24.75 73.48)">7</text><text transform="matrix(1 0 0 1 48.75 50.50)">8</text><text transform="matrix(1 0 0 1 54.50 33.05)">9</text><text transform="matrix(1 0 0 1 50.50 13.50)">10</text><text transform="matrix(1 0 0 1 77.50 42.13)">11</text><text transform="matrix(1 0 0 1 71.50 10.50)">12</text></g></svg>