<svg xmlns="http://www.w3.org/2000/svg" width="109" height="109" viewBox="0 0 109 109"><g id="kvg:StrokePaths_08d99" style="fill:none;stroke:#000000;stroke-width:3;stroke-linecap:round;stroke-linejoin:round;"><g id="kvg:08d99" kvg:element="趙"><g id="kvg:08d99-g1" kvg:element="走" kvg:position="nyo" kvg:radical="general"><g id="kvg:08d99-g2" kvg:element="土" kvg:position="top"><path id="kvg:08d99-s1" kvg:type="㇐" d="M17.94 29.65c1.1.42 3.11.5 4.21.42 9.8-.68 15.69-2.25 24.55-2.86 1.83-.13 2.93.2 3.85.41"/><path id="kvg:08d99-s2" kvg:type="㇑a" d="M33.62 14.46c.12.27 1.61 1.43 1.73 3.17.55 8.36.3 26.13.3 28.98"/><path id="kvg:08d99-s3" kvg:type="㇐" d="M12.96 48.62c1.07.37 3.04.51 4.11.37 11.63-1.47 24.47-2.74 34.47-3.63 1.77-.16 2.85.18 3.75.36"/></g><g id="kvg:08d99-g3" kvg:element="龰" kvg:position="bottom"><path id="kvg:08d99-s4" kvg:type="㇑a" d="M34.04 48.8c1.06.47 1.7 2.11 1.91 3.04.21.94.13 22.07-.08 27.92"/><path id="kvg:08d99-s5" kvg:type="㇐c" d="M36.57 64.34c5.41-.47 13.07-2.19 15.4-2.19 1.41.0 2.26.17 2.96.35"/><path id="kvg:08d99-s6" kvg:type="㇒" d="M24.76 61.8c.04.85.09 2.2-.09 3.43-1.06 7.22-4.92 25.02-15.42 32.79"/><path id="kvg:08d99-s7" kvg:type="㇏" d="M22.67 75.74C34.41 78.2 68.8 92.47 79.92 94.78c3.42.71 7.63 1.35 10.97 1.62"/></g></g><g id="kvg:08d99-g4" kvg:element="肖" kvg:variant="true" kvg:position="nyoc"><g id="kvg:08d99-g5" kvg:element="⺌" kvg:variant="true" kvg:original="小" kvg:position="top"><path id="kvg:08d99-s8" kvg:type="㇑" d="M74.14 12.25c.14.32 1.97 1.68 1.97 3.73.0 7.01.11 18.06.11 21.41"/><path id="kvg:08d99-s9" kvg:type="㇒" d="M65.71 19.93c.05.43.11 1.12-.11 1.74-1.33 3.67-7.78 9.93-15.06 13.97"/><path id="kvg:08d99-s10" kvg:type="㇔" d="M84.16 20.3c5.7 2.93 12.89 10 14.31 14.56"/></g><g id="kvg:08d99-g6" kvg:element="月" kvg:position="bottom"><path id="kvg:08d99-s11" kvg:type="㇑" d="M60.56 38.45c.57.81.95 1.61 1.13 2.42.19.81.27 40.82.19 42.63"/><path id="kvg:08d99-s12" kvg:type="㇆a" d="M62.83 40.26c2.27-.2 23.17-2.7 24.86-2.93 3.02-.4 3.78 2.56 3.78 3.83.0 8.7-.07 21.23-.07 37.57.0 9.79-5.1 2.75-6.8 1.33"/><path id="kvg:08d99-s13" kvg:type="㇐a" d="M62.33 51.85c7.74-1.21 21.89-1.82 28.69-2.42"/><path id="kvg:08d99-s14" kvg:type="㇐a" d="M62.26 63.19c6.04-.61 20.02-2.02 27-2.42"/></g></g></g></g></svg>