<svg xmlns="http://www.w3.org/2000/svg" width="109" height="109" viewBox="0 0 109 109"><g id="kvg:StrokePaths_08dcf" style="fill:none;stroke:#000000;stroke-width:3;stroke-linecap:round;stroke-linejoin:round;"><g id="kvg:08dcf" kvg:element="跏"><g id="kvg:08dcf-g1" kvg:element="足" kvg:position="left" kvg:radical="general"><g id="kvg:08dcf-g2" kvg:element="口"><path id="kvg:08dcf-s1" kvg:type="㇑" d="M12.78 18.74c.39.37.79.67.97 1.13 1.36 3.62 2.49 17.62 3.42 24.13"/><path id="kvg:08dcf-s2" kvg:type="㇕b" d="M14.72 21.92c8.63-1.81 16.53-3.24 20.8-3.69 1.56-.16 2.5.96 2.27 1.91-1.03 4.38-2.11 13.33-3.38 18.35"/><path id="kvg:08dcf-s3" kvg:type="㇐b" d="M17.84 41.32c5.4-.54 11.34-.97 18.74-1.8"/></g><path id="kvg:08dcf-s4" kvg:type="㇑a" d="M25.87 41.74c1.09.5 1.96 2.23 1.96 3.25.0 5.51.28 34.01.28 44"/><path id="kvg:08dcf-s5" kvg:type="㇐b" d="M28.38 62.24c3.37-.49 6.37-1.74 9.85-2 1.74-.13 2.18-.25 3.26.0"/><path id="kvg:08dcf-s6" kvg:type="㇑" d="M13.87 58.99c1.09.5 1.74 2.25 1.96 3.25s-.08 22.01-.08 33.76"/><path id="kvg:08dcf-s7" kvg:type="㇀/㇏" d="M11 95.57c.34.8 2.87 1.85 3.7 1.4C22.91 92.5 30.94 87 40 81.99"/></g><g id="kvg:08dcf-g3" kvg:element="加" kvg:position="right"><g id="kvg:08dcf-g4" kvg:element="力" kvg:position="left"><path id="kvg:08dcf-s8" kvg:type="㇆" d="M41.86 39.65c1.01.73 3.03.56 3.71.38 5.31-1.37 15.66-3.71 18.66-4.44 1.95-.47 3.38.66 3.27 3.98-.28 8.76-1.25 36.93-6.3 48.77-3.66 8.59-6.35 2.32-7.14 1.28"/><path id="kvg:08dcf-s9" kvg:type="㇒" d="M55.44 16.93c.16.41.63 2.22.55 4.28-.75 19.17-5.24 53.54-15.84 70.23"/></g><g id="kvg:08dcf-g5" kvg:element="口" kvg:position="right"><path id="kvg:08dcf-s10" kvg:type="㇑" d="M74.94 31.95c.23.95.97 1.74 1.07 2.94.81 9.43 1.27 39.94 1.82 56.88"/><path id="kvg:08dcf-s11" kvg:type="㇕b" d="M76.23 33.93c6.97-1.36 13.08-2.84 16.99-3.03 1.67-.08 2.98 1.03 2.85 3.23-.28 4.73-2.1 35.72-3.18 53.91"/><path id="kvg:08dcf-s12" kvg:type="㇐b" d="M78.07 89.89c4.96-.47 10.29-1.09 16.78-1.65"/></g></g></g></g></svg>