<svg xmlns="http://www.w3.org/2000/svg" width="109" height="109" viewBox="0 0 109 109"><g id="kvg:StrokePaths_08dd6"><g id="kvg:08dd6" kvg:element="跖"><g id="kvg:08dd6-g1" kvg:element="足" kvg:position="left" kvg:radical="general"><g id="kvg:08dd6-g2" kvg:element="口"><path id="kvg:08dd6-s1" kvg:type="㇑" d="M13.78 20.71c.37.32.75.58.91.97 1.28 3.13 2.35 15.2 3.23 20.82"/><path id="kvg:08dd6-s2" kvg:type="㇕b" d="M15.61 22.4c8.76-1.68 17.79-3 22.13-3.41 1.58-.15 2.54.89 2.31 1.77-1.04 4.06-2.15 12.35-3.43 17"/><path id="kvg:08dd6-s3" kvg:type="㇐b" d="M18.56 40.19c5.09-.46 13.65-.84 20.64-1.55"/></g><path id="kvg:08dd6-s4" kvg:type="㇑a" d="M25.37 41.74c1.09.5 1.96 2.23 1.96 3.25.0 5.51.28 26.51.28 36.5"/><path id="kvg:08dd6-s5" kvg:type="㇐b" d="M27.88 57.24c3.37-.49 8.37-1.24 11.85-1.5 1.74-.13 2.18-.25 3.26.0"/><path id="kvg:08dd6-s6" kvg:type="㇑" d="M14.37 52.99c1.09.5 1.74 2.25 1.96 3.25s.42 19.51.42 31.26"/><path id="kvg:08dd6-s7" kvg:type="㇀/㇏" d="M10 89.07c.75.68 2.5 1.68 4.7.4C22.78 84.77 31.94 79 41 73.99"/></g><g id="kvg:08dd6-g3" kvg:element="石" kvg:position="right"><path id="kvg:08dd6-s8" kvg:type="㇐" d="M46.68 22.02c1.48.46 4.79.58 6.26.46 18.54-1.6 26.12-2.48 40.5-3.38 2.46-.15 3.95.22 5.18.44"/><path id="kvg:08dd6-s9" kvg:type="㇒" d="M67.49 23.93c.06 1.06.22 2.76-.12 4.26C63.75 44 57.25 65.5 36.25 83.5"/><g id="kvg:08dd6-g4" kvg:element="口"><path id="kvg:08dd6-s10" kvg:type="㇑" d="M54.13 58.5c.49.74 1.12 1.29 1.21 2.26.67 7.03 3.01 20.18 3.95 33.48"/><path id="kvg:08dd6-s11" kvg:type="㇕b" d="M54.98 61.13c7.49-1.41 30.07-4.42 35.18-4.64 2.11-.09 3.44 2.1 3.07 4.13-1.29 7-3.33 16.41-4.42 28.39"/><path id="kvg:08dd6-s12" kvg:type="㇐b" d="M59.15 91.81c5.99-.71 25.11-2.01 32.75-2.22"/></g></g></g></g></svg>