<svg xmlns="http://www.w3.org/2000/svg" width="109" height="109" viewBox="0 0 109 109"><g id="kvg:StrokePaths_08ddd" style="fill:none;stroke:#000000;stroke-width:3;stroke-linecap:round;stroke-linejoin:round;"><g id="kvg:08ddd" kvg:element="距"><g id="kvg:08ddd-g1" kvg:element="足" kvg:position="left" kvg:radical="general"><g id="kvg:08ddd-g2" kvg:element="口"><path id="kvg:08ddd-s1" kvg:type="㇑" d="M18.28 23.4c.79.79 1.19 2.12 1.32 3.07 1.03 5.03 1.35 7.41 2.12 12.25.27 1.69.51 3.33.72 4.78"/><path id="kvg:08ddd-s2" kvg:type="㇕b" d="M20.63 24.77c7.42-1.56 13.64-2.59 18.01-3.26C42 21 43.5 22.5 42.97 25.39c-.69 3.73-1.64 7.12-2.89 12.07"/><path id="kvg:08ddd-s3" kvg:type="㇐b" d="M22.61 41.41c4.12-.41 9.69-1.64 15.18-2.42 1.36-.19 2.74-.37 4.14-.53"/></g><path id="kvg:08ddd-s4" kvg:type="㇑a" d="M31.12 42.99c1.01 1.01 1.21 2.38 1.21 4 0 1.02.03 23.38.03 30.75"/><path id="kvg:08ddd-s5" kvg:type="㇐b" d="M33.38 56.24c3.37-.49 5.62-1.12 9.6-1.75 1.72-.27 2.18-.25 3.26.0"/><path id="kvg:08ddd-s6" kvg:type="㇑" d="M19.12 59.49c.88.88 1.21 2.51 1.21 4 0 1.02.03 14.76.03 21.5"/><path id="kvg:08ddd-s7" kvg:type="㇀/㇏" d="M14.5 86.57c1.03 1.03 2.25 1.43 4.07.4C28.56 81.32 33.75 78 42.5 72.99"/></g><g id="kvg:08ddd-g3" kvg:element="巨" kvg:position="right" kvg:phon="巨"><g id="kvg:08ddd-g4" kvg:element="匚" kvg:part="1" kvg:variant="true"><path id="kvg:08ddd-s8" kvg:type="㇑" d="M55.79 21.76c.97.97 1.25 2.36 1.25 3.55.0 2.01.04 40.73.05 58.32.0 4.11.0 7.06.0 8.12"/></g><g id="kvg:08ddd-g5" kvg:element="二" kvg:part="1"><path id="kvg:08ddd-s9" kvg:type="㇐b" d="M58.26 24.63c6.43-.64 22.25-3.21 29.81-4.39 2.24-.35 3.63-.21 4.76.03"/></g><path id="kvg:08ddd-s10" kvg:type="㇕b" d="M58.14 46.16C72.12 44 75.37 43.25 86.3 41.67c2.6-.38 4.05 1.39 3.49 3.98-.89 4.09-2.92 11.47-4.03 16.33"/><path id="kvg:08ddd-s11" kvg:type="㇐b" d="M58.23 66.02c5.09-.5 17.8-1.98 25.98-2.87 2.16-.24 3.79-.28 5.25-.25"/><g id="kvg:08ddd-g6" kvg:element="二" kvg:part="2"><g id="kvg:08ddd-g7" kvg:element="匚" kvg:part="2" kvg:variant="true"><path id="kvg:08ddd-s12" kvg:type="㇐b" d="M58.26 89.16c6.43-.64 16.61-1.91 31.56-2.99 2.26-.16 3.62-.21 4.76.03"/></g></g></g></g></g></svg>