<svg xmlns="http://www.w3.org/2000/svg" width="109" height="109" viewBox="0 0 109 109"><g id="kvg:StrokePaths_08def" style="fill:none;stroke:#000000;stroke-width:3;stroke-linecap:round;stroke-linejoin:round;"><g id="kvg:08def" kvg:element="路"><g id="kvg:08def-g1" kvg:element="足" kvg:position="left" kvg:radical="general"><g id="kvg:08def-g2" kvg:element="口"><path id="kvg:08def-s1" kvg:type="㇑" d="M14.03 19.24c.78.62 1.23 1.41 1.38 2.38 1.03 3.52 2.15 9.94 2.99 15.38.19 1.23.36 2.42.52 3.5"/><path id="kvg:08def-s2" kvg:type="㇕b" d="M16.22 20.69c8.44-1.14 15.56-2.28 20.29-2.96 3.36-.48 4.51.69 3.75 4.02-.93 4.1-1.51 8.43-2.86 13.74"/><path id="kvg:08def-s3" kvg:type="㇐b" d="M19.34 38.32c4.48-.45 10.04-1.17 16.04-1.87 1.22-.14 2.46-.29 3.71-.43"/></g><path id="kvg:08def-s4" kvg:type="㇑a" d="M28.12 40.49c.88.88 1.71 2.48 1.71 3.5.0 4.38.03 25.51.03 33.25"/><path id="kvg:08def-s5" kvg:type="㇐b" d="M30.38 55.24c3.37-.49 6.87-1.24 10.35-1.5 1.74-.13 2.18-.25 3.26.0"/><path id="kvg:08def-s6" kvg:type="㇑" d="M15.62 57.99c.94.95 1.46 2.26 1.46 3.75.0 4.26.03 15.51.03 22.25"/><path id="kvg:08def-s7" kvg:type="㇀/㇏" d="M12.28 85.8c.83.39 2.37.13 2.84-.11 7.72-4.01 15.74-8.45 24.25-12.94"/></g><g id="kvg:08def-g3" kvg:element="各" kvg:position="right" kvg:phon="各"><g id="kvg:08def-g4" kvg:element="夂" kvg:position="top"><path id="kvg:08def-s8" kvg:type="㇒" d="M59.75 12.88c.04.67.2 1.76-.09 2.7C57.64 22 52.3 33.79 43.72 41.45"/><path id="kvg:08def-s9" kvg:type="㇇" d="M60.25 21.06c1.12.31 2.04.28 3.18.14 2.81-.33 7.27-1.47 11.28-2.51 2.75-.71 4.29 1.07 3.58 3.01-3.86 10.63-19.17 35.05-36.86 44.01"/><path id="kvg:08def-s10" kvg:type="㇏" d="M52.93 32.27c3.71 1.38 25.28 20.68 34.3 27.42 2.44 1.82 4.99 3.34 8.02 3.94"/></g><g id="kvg:08def-g5" kvg:element="口" kvg:position="bottom"><path id="kvg:08def-s11" kvg:type="㇑" d="M48.98 70.17c.71.68 1.08 1.51 1.27 2.46 1.13 5.39 2.61 12.37 3.47 18.39.18 1.24.34 2.44.48 3.6"/><path id="kvg:08def-s12" kvg:type="㇕b" d="M50.85 71.29c8.14-1.05 21.53-2.52 27.29-3.2 3.25-.38 4.79.86 4.18 4.15-.85 4.62-1.69 10.48-2.97 16.47"/><path id="kvg:08def-s13" kvg:type="㇐b" d="M54.63 91.93c4.52-.53 15.4-1.4 22.89-2.23 1.16-.13 2.23-.26 3.19-.38"/></g></g></g></g></svg>