<!DOCTYPE svg PUBLIC "-//W3C//DTD SVG 1.0//EN" "http://www.w3.org/TR/2001/REC-SVG-20010904/DTD/svg10.dtd" [
<!ATTLIST g
xmlns:kvg CDATA #FIXED "http://kanjivg.tagaini.net"
kvg:element CDATA #IMPLIED
kvg:variant CDATA #IMPLIED
kvg:partial CDATA #IMPLIED
kvg:original CDATA #IMPLIED
kvg:part CDATA #IMPLIED
kvg:number CDATA #IMPLIED
kvg:tradForm CDATA #IMPLIED
kvg:radicalForm CDATA #IMPLIED
kvg:position CDATA #IMPLIED
kvg:radical CDATA #IMPLIED
kvg:phon CDATA #IMPLIED >
<!ATTLIST path
xmlns:kvg CDATA #FIXED "http://kanjivg.tagaini.net"
kvg:type CDATA #IMPLIED >
]><svg xmlns="http://www.w3.org/2000/svg" width="109" height="109" viewBox="0 0 109 109"><g id="kvg:StrokePaths_08de8" style="fill:none;stroke:#000000;stroke-width:3;stroke-linecap:round;stroke-linejoin:round;"><g id="kvg:08de8" kvg:element="跨"><g id="kvg:08de8-g1" kvg:element="足" kvg:position="left" kvg:radical="general"><g id="kvg:08de8-g2" kvg:element="口"><path id="kvg:08de8-s1" kvg:type="㇑" d="M14.03 18.49c.74.74.97 1.64 1.22 2.88.54 2.76 1.03 7.86 1.55 12.89.2 1.88.4 3.76.61 5.49"/><path id="kvg:08de8-s2" kvg:type="㇕b" d="M15.72 19.94c9.17-1.48 14.73-2.26 19.04-2.76 3.1-.35 4.49.9 3.81 3.95-.96 4.29-2.24 10-3.4 14.61"/><path id="kvg:08de8-s3" kvg:type="㇐b" d="M18.59 38.07c4.06-.41 8.48-.74 13.55-1.13 1.66-.13 3.39-.27 5.2-.41"/></g><path id="kvg:08de8-s4" kvg:type="㇑a" d="M26.87 39.49c.69.69 1.21 1.76 1.21 3 0 1.02.03 29.01.03 37.75"/><path id="kvg:08de8-s5" kvg:type="㇐b" d="M28.38 57.74c3.37-.49 4.87-1.49 8.35-2 1.72-.25 2.18-.25 3.26.0"/><path id="kvg:08de8-s6" kvg:type="㇑" d="M15.12 55.24c.94.95 1.21 2.51 1.21 4 0 1.02-.08 13.51-.08 26.26"/><path id="kvg:08de8-s7" kvg:type="㇀/㇏" d="M10.5 86.61c.95.95 2.03 1.46 3.83.63 10.92-4.99 14.42-6.49 25.67-11.5"/></g><g id="kvg:08de8-g3" kvg:element="夸" kvg:position="right"><g id="kvg:08de8-g4" kvg:element="大" kvg:position="top"><path id="kvg:08de8-s8" kvg:type="㇐" d="M46.41 26.3c2.86.16 5.74.26 8.59-.05 11.24-1.25 21.9-2.48 30.25-3.12 2.79-.37 5.56-.31 8.33.19"/><path id="kvg:08de8-s9" kvg:type="㇒" d="M68.08 12.75c0 1-.05 2.16-.28 3.28-2.68 13.41-10.67 27.72-23.15 35.92"/><path id="kvg:08de8-s10" kvg:type="㇏" d="M72.75 26c4.59 4.72 12.12 13.5 17.66 18.72 2.42 2.28 3.84 3.41 7.2 5.15"/></g><g id="kvg:08de8-g5" kvg:position="bottom"><g id="kvg:08de8-g6" kvg:element="二"><g id="kvg:08de8-g7" kvg:position="top"><path id="kvg:08de8-s11" kvg:type="㇐" d="M56.84 45.35c1.63.23 3.27.32 4.91.28 4-.4 9.13-1.16 13.53-1.87 1.78-.29 3.48-.58 5.25-.19"/></g><g id="kvg:08de8-g8" kvg:position="bottom"><path id="kvg:08de8-s12" kvg:type="㇐" d="M47.51 58.47c3.15.35 6.27.0 9.36-.53 6.57-.93 16.43-2.1 23.52-2.97 3.03-.43 6.08-.54 9.15-.32"/></g></g><path id="kvg:08de8-s13" kvg:type="㇉" d="M62.38 59.32c.25 1.18.0 2.06-.68 3.73-.56 1.37-1.17 2.88-2.8 5.43-1.69 2.64-1.89 4.89 2.13 4.1 5.65-1.1 11.52-2.62 16.96-3.62 4.54-.84 5.78.89 4.95 4.19-1.74 6.88-4.45 14.24-8.83 20.68-4.06 5.96-5.6-.08-7-1.64"/></g></g></g></g><g id="kvg:StrokeNumbers_08de8" style="font-size:8;fill:#808080"><text transform="matrix(1 0 0 1 7.50 24.63)">1</text><text transform="matrix(1 0 0 1 17.50 16.50)">2</text><text transform="matrix(1 0 0 1 21.50 34.50)">3</text><text transform="matrix(1 0 0 1 19.75 46.40)">4</text><text transform="matrix(1 0 0 1 31.75 53.50)">5</text><text transform="matrix(1 0 0 1 5.50 56.50)">6</text><text transform="matrix(1 0 0 1 2.50 88.50)">7</text><text transform="matrix(1 0 0 1 45.75 23.50)">8</text><text transform="matrix(1 0 0 1 58.50 12.50)">9</text><text transform="matrix(1 0 0 1 81.50 32.50)">10</text><text transform="matrix(1 0 0 1 61.50 42.50)">11</text><text transform="matrix(1 0 0 1 49.50 55.50)">12</text><text transform="matrix(1 0 0 1 49.75 67.50)">13</text></g></svg>