<!DOCTYPE svg PUBLIC "-//W3C//DTD SVG 1.0//EN" "http://www.w3.org/TR/2001/REC-SVG-20010904/DTD/svg10.dtd" [
<!ATTLIST g
xmlns:kvg CDATA #FIXED "http://kanjivg.tagaini.net"
kvg:element CDATA #IMPLIED
kvg:variant CDATA #IMPLIED
kvg:partial CDATA #IMPLIED
kvg:original CDATA #IMPLIED
kvg:part CDATA #IMPLIED
kvg:number CDATA #IMPLIED
kvg:tradForm CDATA #IMPLIED
kvg:radicalForm CDATA #IMPLIED
kvg:position CDATA #IMPLIED
kvg:radical CDATA #IMPLIED
kvg:phon CDATA #IMPLIED >
<!ATTLIST path
xmlns:kvg CDATA #FIXED "http://kanjivg.tagaini.net"
kvg:type CDATA #IMPLIED >
]><svg xmlns="http://www.w3.org/2000/svg" width="109" height="109" viewBox="0 0 109 109"><g id="kvg:StrokePaths_08e09" style="fill:none;stroke:#000000;stroke-width:3;stroke-linecap:round;stroke-linejoin:round;"><g id="kvg:08e09" kvg:element="踉"><g id="kvg:08e09-g1" kvg:element="足" kvg:position="left" kvg:radical="general"><g id="kvg:08e09-g2" kvg:element="口"><path id="kvg:08e09-s1" kvg:type="㇑" d="M13.78 21.71c.37.32.75.58.91.97 1.28 3.13 2.35 15.2 3.23 20.82"/><path id="kvg:08e09-s2" kvg:type="㇕b" d="M15.61 23.4c8.76-1.68 18.29-3 22.63-3.41 1.58-.15 2.54.89 2.31 1.77-1.04 4.06-2.15 12.35-3.43 17"/><path id="kvg:08e09-s3" kvg:type="㇐b" d="M18.56 41.19c5.09-.46 13.15-.84 20.14-1.55"/></g><path id="kvg:08e09-s4" kvg:type="㇑a" d="M26.87 42.24c1.09.5 1.96 2.23 1.96 3.25.0 5.51.28 28.01.28 38"/><path id="kvg:08e09-s5" kvg:type="㇐b" d="M29.38 58.74c3.37-.49 7.87-1.74 11.35-2 1.74-.13 2.18-.25 3.26.0"/><path id="kvg:08e09-s6" kvg:type="㇑" d="M16.37 54.49c1.09.5 1.74 2.25 1.96 3.25.22 1 .42 20.01.42 31.76"/><path id="kvg:08e09-s7" kvg:type="㇀/㇏" d="M12 90.57c.35.8 2.99 1.85 3.86 1.4 8.56-4.47 16.94-9.47 26.39-14.48"/></g><g id="kvg:08e09-g3" kvg:element="良" kvg:position="right"><path id="kvg:08e09-s8" kvg:type="㇑a" d="M67.75 10.25c1.17.59 1.87 1.47 2.1 2.64.23 1.17.23 8.36.23 11.3"/><g id="kvg:08e09-g4" kvg:element="艮"><path id="kvg:08e09-s9" kvg:type="㇕" d="M52 25.75c.61.25 2.16.45 4.24.31 11.51-.81 26.15-2.97 27.81-3.08 1.74-.11 2.75 1.25 2.73 1.93-.12 4.83-2.01 23.8-3.01 27.13"/><path id="kvg:08e09-s10" kvg:type="㇐a" d="M54.98 39.94c5.77-.54 23.04-2.67 28.59-3.1"/><path id="kvg:08e09-s11" kvg:type="㇐a" d="M55.09 52.42c7.91-.87 18.29-2.12 26.88-2.95"/><path id="kvg:08e09-s12" kvg:type="㇙" d="M54.51 26.23c.24 1.27.09 2.39.35 3.45s.55 59.38.26 62.02c-.26 2.39-.13 4.92 2.99 2.73 6.64-4.68 8.39-5.93 14.84-10.3"/><path id="kvg:08e09-s13" kvg:type="㇒" d="M89.19 57.05c.3 1.43.5 2-.54 3.15-2.01 2.23-8.07 7.4-10.82 9.41"/><path id="kvg:08e09-s14" kvg:type="㇏" d="M61.88 57.23c5.08 4.13 18.49 23.42 26.21 30.46 4.12 3.75 6.21 4.74 8.47 5.45"/></g></g></g></g><g id="kvg:StrokeNumbers_08e09" style="font-size:8;fill:#808080"><text transform="matrix(1 0 0 1 9.85 29.85)">1</text><text transform="matrix(1 0 0 1 18.66 19.85)">2</text><text transform="matrix(1 0 0 1 21.71 38.85)">3</text><text transform="matrix(1 0 0 1 22.54 50.85)">4</text><text transform="matrix(1 0 0 1 32.50 54.50)">5</text><text transform="matrix(1 0 0 1 7.50 54.50)">6</text><text transform="matrix(1 0 0 1 4.50 93.50)">7</text><text transform="matrix(1 0 0 1 59.50 11.50)">8</text><text transform="matrix(1 0 0 1 55.50 23.50)">9</text><text transform="matrix(1 0 0 1 58.50 36.50)">10</text><text transform="matrix(1 0 0 1 58.50 49.50)">11</text><text transform="matrix(1 0 0 1 44.50 33.50)">12</text><text transform="matrix(1 0 0 1 77.50 60.23)">13</text><text transform="matrix(1 0 0 1 58.50 68.50)">14</text></g></svg>