<svg xmlns="http://www.w3.org/2000/svg" width="109" height="109" viewBox="0 0 109 109"><g id="kvg:StrokePaths_08e0a"><g id="kvg:08e0a" kvg:element="踊"><g id="kvg:08e0a-g1" kvg:element="足" kvg:position="left" kvg:radical="general"><g id="kvg:08e0a-g2" kvg:element="口"><path id="kvg:08e0a-s1" kvg:type="㇑" d="M14.03 19.92c.84.84 1.13 1.64 1.34 2.58.64 2.86 1.75 8.52 2.52 12.6.44 2.34.77 4.16.84 4.65"/><path id="kvg:08e0a-s2" kvg:type="㇕b" d="M16.15 21.57c8.2-1.25 14.84-2.3 19.35-2.86 3.37-.42 4.66.11 3.89 3.58-.86 3.88-1.61 7.5-2.84 12.37"/><path id="kvg:08e0a-s3" kvg:type="㇐b" d="M19.66 38.14c4.19-.42 9.5-1.16 15.34-1.95 1.4-.19 2.79-.37 4.17-.52"/></g><path id="kvg:08e0a-s4" kvg:type="㇑a" d="M29.37 39.74c1.01 1.01 1.21 2.13 1.21 3.75.0 1.02.03 28.63.03 35.75"/><path id="kvg:08e0a-s5" kvg:type="㇐b" d="M31.88 54.99c2.62-.62 5.49-.99 8.35-1.5 1.72-.31 2.68-.25 3.76.0"/><path id="kvg:08e0a-s6" kvg:type="㇑" d="M18.12 54.74c.82.82 1.21 2.23 1.21 3.25.0 7.76.03 17.63.03 26.5"/><path id="kvg:08e0a-s7" kvg:type="㇀/㇏" d="M12.5 86.82c.9.9 2.09.99 3.82.17 8.93-4.24 15.93-7.57 24.68-11.75"/></g><g id="kvg:08e0a-g3" kvg:element="甬" kvg:position="right" kvg:phon="甬"><g id="kvg:08e0a-g4" kvg:element="マ" kvg:position="top"><path id="kvg:08e0a-s8" kvg:type="㇇" d="M49.6 18.88c1.74 1.09 4.34.94 6.19.53 5.71-1.26 18.46-4.16 26.03-5.41 2.88-.47 3.87 1.89 2.37 3.78-2.56 3.22-9.8 11.18-13.06 14.85"/><path id="kvg:08e0a-s9" kvg:type="㇔" d="M62.27 28.53c2.4 1.2 8.61 5.8 9.74 8.93"/></g><g id="kvg:08e0a-g5" kvg:element="用" kvg:position="bottom"><path id="kvg:08e0a-s10" kvg:type="㇑/㇒" d="M50.07 40.77C50.9 41.6 51 42.75 51 44.12c0 2.88.09 28.71.1 42.62.0 4.03.0 6.75.0 7.09"/><path id="kvg:08e0a-s11" kvg:type="㇆a" d="M52.26 42.61c7.29-.78 30.68-3.86 35.86-4.41 2.96-.31 4.2.9 4.2 3.89.0 3.17-.06 32.93-.06 46.74.0 9.99-5.83 1.47-7.02.88"/><path id="kvg:08e0a-s12" kvg:type="㇐a" d="M52.01 56.93c10.86-1.18 30.36-3.05 39-3.59"/><path id="kvg:08e0a-s13" kvg:type="㇐a" d="M51.99 71.31c7.88-.81 32.39-2.89 39.28-3.23"/><path id="kvg:08e0a-s14" kvg:type="㇑" d="M69.41 43.73c.93.93 1.05 2.02 1.05 3.14.0.52-.05 23.89-.05 36.64.0 2.12-.02 4.09-.02 6.12"/></g></g></g></g></svg>