<!DOCTYPE svg PUBLIC "-//W3C//DTD SVG 1.0//EN" "http://www.w3.org/TR/2001/REC-SVG-20010904/DTD/svg10.dtd" [
<!ATTLIST g
xmlns:kvg CDATA #FIXED "http://kanjivg.tagaini.net"
kvg:element CDATA #IMPLIED
kvg:variant CDATA #IMPLIED
kvg:partial CDATA #IMPLIED
kvg:original CDATA #IMPLIED
kvg:part CDATA #IMPLIED
kvg:number CDATA #IMPLIED
kvg:tradForm CDATA #IMPLIED
kvg:radicalForm CDATA #IMPLIED
kvg:position CDATA #IMPLIED
kvg:radical CDATA #IMPLIED
kvg:phon CDATA #IMPLIED >
<!ATTLIST path
xmlns:kvg CDATA #FIXED "http://kanjivg.tagaini.net"
kvg:type CDATA #IMPLIED >
]><svg xmlns="http://www.w3.org/2000/svg" width="109" height="109" viewBox="0 0 109 109"><g id="kvg:StrokePaths_08e1d" style="fill:none;stroke:#000000;stroke-width:3;stroke-linecap:round;stroke-linejoin:round;"><g id="kvg:08e1d" kvg:element="踝"><g id="kvg:08e1d-g1" kvg:element="足" kvg:position="left" kvg:radical="general"><g id="kvg:08e1d-g2" kvg:element="口"><path id="kvg:08e1d-s1" kvg:type="㇑" d="M12.78 20.75c.37.32.75.59.91.99 1.28 3.19 2.35 15.52 3.23 21.26"/><path id="kvg:08e1d-s2" kvg:type="㇕b" d="M14.61 22.47c8.64-1.22 17.29-2.57 21.63-2.99 1.58-.15 2.54.91 2.31 1.81-1.04 4.15-2.15 12.11-3.43 16.86"/><path id="kvg:08e1d-s3" kvg:type="㇐b" d="M17.56 41.14c5.09-.47 13.15-1.35 20.14-2.08"/></g><path id="kvg:08e1d-s4" kvg:type="㇑a" d="M25.37 41.74c1.09.5 1.96 2.23 1.96 3.25.0 5.51.28 28.01.28 38"/><path id="kvg:08e1d-s5" kvg:type="㇐b" d="M27.88 58.74c3.37-.49 4.87-1.74 8.35-2 1.74-.13 2.18-.25 3.26.0"/><path id="kvg:08e1d-s6" kvg:type="㇑" d="M13.87 54.49c1.09.5 1.74 2.25 1.96 3.25s-.08 20.01-.08 31.76"/><path id="kvg:08e1d-s7" kvg:type="㇀/㇏" d="M9.5 90.57c1.25 1.43 3.37.85 4.2.4C21.91 86.5 28 83 38.5 76.99"/></g><g id="kvg:08e1d-g3" kvg:element="果" kvg:position="right"><g id="kvg:08e1d-g4" kvg:element="日" kvg:part="1"><g id="kvg:08e1d-g5" kvg:element="日"><path id="kvg:08e1d-s8" kvg:type="㇑" d="M50.1 16.51c.63.69 1.53 1.52 1.53 2.45s2.77 27.54 2.88 28.48"/><path id="kvg:08e1d-s9" kvg:type="㇕a" d="M51.76 18.04c1.9-.12 34.39-3.3 36.13-3.29 2.28.01 3.23 2.71 3.12 3.39-.23 1.4-3.02 26.38-3.02 27.08"/><path id="kvg:08e1d-s10" kvg:type="㇐a" d="M53.39 31.62c2.57.0 33.33-2.94 36.23-2.94"/><path id="kvg:08e1d-s11" kvg:type="㇐a" d="M55.29 45.29c5.22-.5 25.83-2.31 32.34-2.74"/></g></g><g id="kvg:08e1d-g6" kvg:element="木"><path id="kvg:08e1d-s12" kvg:type="㇐" d="M44.26 58.88c.76.25 2.78.88 4.79.76 10.45-.65 29.8-2.51 45.93-3.02 2.02-.06 2.52.25 3.78.51"/><g id="kvg:08e1d-g7" kvg:element="日" kvg:part="2"><path id="kvg:08e1d-s13" kvg:type="㇑" d="M69.62 18.42c.96.53 1.54 2.38 1.73 3.44.19 1.06.0 70.29-.19 76.89"/></g><path id="kvg:08e1d-s14" kvg:type="㇒" d="M69.8 58.59c-5.41 10.52-19.46 25.4-30.7 31.35"/><path id="kvg:08e1d-s15" kvg:type="㇏" d="M71.36 58.06c3.13 4.11 16.85 23.57 20.25 27.61 1.15 1.37 2.14 1.96 3.29 2.35"/></g></g></g></g><g id="kvg:StrokeNumbers_08e1d" style="font-size:8;fill:#808080"><text transform="matrix(1 0 0 1 8.50 28.50)">1</text><text transform="matrix(1 0 0 1 18.66 18.50)">2</text><text transform="matrix(1 0 0 1 20.50 37.50)">3</text><text transform="matrix(1 0 0 1 20.50 50.85)">4</text><text transform="matrix(1 0 0 1 29.50 54.50)">5</text><text transform="matrix(1 0 0 1 6.50 55.50)">6</text><text transform="matrix(1 0 0 1 2.50 93.50)">7</text><text transform="matrix(1 0 0 1 44.50 24.50)">8</text><text transform="matrix(1 0 0 1 54.50 15.50)">9</text><text transform="matrix(1 0 0 1 56.50 28.50)">10</text><text transform="matrix(1 0 0 1 57.50 41.50)">11</text><text transform="matrix(1 0 0 1 43.50 56.50)">12</text><text transform="matrix(1 0 0 1 74.50 24.50)">13</text><text transform="matrix(1 0 0 1 52.50 68.50)">14</text><text transform="matrix(1 0 0 1 79.50 67.58)">15</text></g></svg>