<svg xmlns="http://www.w3.org/2000/svg" width="109" height="109" viewBox="0 0 109 109"><g id="kvg:StrokePaths_08e4a" style="fill:none;stroke:#000000;stroke-width:3;stroke-linecap:round;stroke-linejoin:round;"><g id="kvg:08e4a" kvg:element="蹊"><g id="kvg:08e4a-g1" kvg:element="足" kvg:position="left" kvg:radical="general"><g id="kvg:08e4a-g2" kvg:element="口"><path id="kvg:08e4a-s1" kvg:type="㇑" d="M13.78 19.21c.37.32.75.58.91.97 1.28 3.13 1.85 15.2 2.73 20.82"/><path id="kvg:08e4a-s2" kvg:type="㇕b" d="M15.61 20.9c6.39-1.15 15.29-2.5 19.63-2.91 1.58-.15 2.54.89 2.31 1.77-1.04 4.06-1.8 12.24-2.93 17.5"/><path id="kvg:08e4a-s3" kvg:type="㇐b" d="M17.56 39.19c5.09-.46 11.65-.84 18.64-1.55"/></g><path id="kvg:08e4a-s4" kvg:type="㇑a" d="M25.37 40.74c1.09.5 1.96 2.23 1.96 3.25.0 5.51.28 28.01.28 38"/><path id="kvg:08e4a-s5" kvg:type="㇐b" d="M27.88 57.74c3.37-.49 6.37-1.24 9.85-1.5 1.74-.13 2.18-.25 3.26.0"/><path id="kvg:08e4a-s6" kvg:type="㇑" d="M14.87 52.99c1.09.5 1.74 2.25 1.96 3.25s.42 20.01.42 31.76"/><path id="kvg:08e4a-s7" kvg:type="㇀/㇏" d="M10 90.07c.34.8 2.87.85 3.7.4C21.91 86 29.94 81 39 75.99"/></g><g id="kvg:08e4a-g3" kvg:element="奚" kvg:position="right"><g id="kvg:08e4a-g4" kvg:position="top"><g id="kvg:08e4a-g5" kvg:element="⺤" kvg:variant="true" kvg:original="爪"><path id="kvg:08e4a-s8" kvg:type="㇒" d="M85.64 10.89c.1.29.2.74-.19 1.15-2.31 2.41-16.88 8.68-36.13 10.44"/><path id="kvg:08e4a-s9" kvg:type="㇒" d="M51.93 25.94c.03.39.06 1.01-.06 1.57C51.15 30.82 47.7 36.72 41.73 43"/><path id="kvg:08e4a-s10" kvg:type="㇔" d="M64.23 24.93c2.59 1.71 6.7 7.05 7.35 9.72"/><path id="kvg:08e4a-s11" kvg:type="㇔" d="M81.12 22.55c5.13 2.9 13.25 11.95 14.53 16.47"/></g><g id="kvg:08e4a-g6" kvg:element="幺"><path id="kvg:08e4a-s12" kvg:type="㇜" d="M60.02 34.11c.43 1.08.67 1.84-.22 3.06-1.69 2.33-3.92 5.64-6.75 8.72-.71.77-.42 2.02.43 2.22 4.52 1.08 5.17 1.44 9.05 3.42"/><path id="kvg:08e4a-s13" kvg:type="㇜" d="M77.74 37.01c.25 1.67-.65 2.81-1.29 3.36C67.5 48 62.48 53.79 52.32 61.58c-1.44 1.11-.86 1.8.86 1.44 7.21-1.5 23.86-4.15 33.12-5.59"/><path id="kvg:08e4a-s14" kvg:type="㇔" d="M79.12 50.64c4.43 2.65 11.45 10.9 12.55 15.02"/></g></g><g id="kvg:08e4a-g7" kvg:element="大" kvg:position="bottom"><path id="kvg:08e4a-s15" kvg:type="㇐" d="M43.55 74.78c1.04.37 3.81.8 6.02.64 14.93-1.09 28.54-2.29 41.95-2.81 2.31-.09 4.16-.05 6.24.24"/><path id="kvg:08e4a-s16" kvg:type="㇒" d="M68.88 64.61c.46.46.37 1.44.29 2.42C67.75 83 58 94.25 40.25 98.04"/><path id="kvg:08e4a-s17" kvg:type="㇏" d="M68.59 74.24c5.24 5.19 17.46 18.4 22.7 21.87 1.78 1.18 2.4 1.36 3.21 1.47"/></g></g></g></g></svg>