<svg xmlns="http://www.w3.org/2000/svg" width="109" height="109" viewBox="0 0 109 109"><g id="kvg:StrokePaths_08e48"><g id="kvg:08e48" kvg:element="蹈"><g id="kvg:08e48-g1" kvg:element="足" kvg:position="left" kvg:radical="general"><g id="kvg:08e48-g2" kvg:element="口"><path id="kvg:08e48-s1" kvg:type="㇑" d="M14.28 19.71c.37.32.75.58.91.97 1.28 3.13 1.85 15.7 2.73 21.32"/><path id="kvg:08e48-s2" kvg:type="㇕b" d="M16.11 21.4c8.76-1.68 16.29-2.5 20.63-2.91 1.58-.15 2.54.89 2.31 1.77-1.04 4.06-2.15 12.35-3.43 17"/><path id="kvg:08e48-s3" kvg:type="㇐b" d="M18.56 39.69c5.09-.46 11.65-.84 18.64-1.55"/></g><path id="kvg:08e48-s4" kvg:type="㇑a" d="M25.87 41.24c1.09.5 1.96 2.23 1.96 3.25.0 5.51.28 28.01.28 38"/><path id="kvg:08e48-s5" kvg:type="㇐b" d="M28.38 57.74c3.37-.49 4.37-.99 8.85-1.5 1.73-.2 2.18-.25 3.26.0"/><path id="kvg:08e48-s6" kvg:type="㇑" d="M15.87 52.49c1.09.5 1.74 2.25 1.96 3.25s-.08 21.01-.08 32.76"/><path id="kvg:08e48-s7" kvg:type="㇀/㇏" d="M10.5 88.83c.34.66 2.87 1.53 3.7 1.16 8.21-3.7 16.24-7.85 25.3-12"/></g><g id="kvg:08e48-g3" kvg:element="舀" kvg:position="right"><g id="kvg:08e48-g4" kvg:element="⺤" kvg:variant="true" kvg:original="爪" kvg:position="top"><path id="kvg:08e48-s8" kvg:type="㇒" d="M86.21 11.43c.1.31.21.81-.21 1.25-2.47 2.64-16.66 8.44-36.08 11.99"/><path id="kvg:08e48-s9" kvg:type="㇒" d="M53.61 29.35c.03.46.06 1.2-.06 1.86-.74 3.92-4.99 12.52-10.8 17.79"/><path id="kvg:08e48-s10" kvg:type="㇔" d="M66.36 28.7c2.71 2.63 7.01 10.81 7.69 14.9"/><path id="kvg:08e48-s11" kvg:type="㇔" d="M83.2 26.35c4.78 3.39 12.36 13.96 13.55 19.24"/></g><g id="kvg:08e48-g5" kvg:element="臼" kvg:position="bottom"><path id="kvg:08e48-s12" kvg:type="㇒" d="M65.82 49.96c.04.27.19.78-.09 1.07-3.63 3.82-7.87 7.23-16.16 10.27"/><path id="kvg:08e48-s13" kvg:type="㇑" d="M48.78 60.82c.7.71.99 2.31 1.16 3.77.63 5.34 2.14 24.7 2.78 31.92"/><path id="kvg:08e48-s14" kvg:type="㇐" d="M51.07 76.74c3.47-.33 12.07-2.12 12.9-2.12s1.98.0 2.65.0"/><path id="kvg:08e48-s15" kvg:type="㇕" d="M74.07 58.24c.83.16 1.49.49 2.65.49s13.4-1.95 14.73-2.11 2.42.8 2.32 1.79c-.99 9.41-2.81 36.67-2.97 37.32"/><path id="kvg:08e48-s16" kvg:type="㇐" d="M74.9 73.97c.83.16 1.49.49 2.65.49s13.07-1.3 14.39-1.46"/><path id="kvg:08e48-s17" kvg:type="㇐" d="M52.89 94.24c2.15.0 35.24-2.11 37.72-2.27"/></g></g></g></g></svg>