<svg xmlns="http://www.w3.org/2000/svg" width="109" height="109" viewBox="0 0 109 109"><g id="kvg:StrokePaths_08e4c" style="fill:none;stroke:#000000;stroke-width:3;stroke-linecap:round;stroke-linejoin:round;"><g id="kvg:08e4c" kvg:element="蹌"><g id="kvg:08e4c-g1" kvg:element="足" kvg:position="left" kvg:radical="general"><g id="kvg:08e4c-g2" kvg:element="口"><path id="kvg:08e4c-s1" kvg:type="㇑" d="M13.78 19.71c.37.32.75.58.91.97 1.28 3.13 2.35 15.2 3.23 20.82"/><path id="kvg:08e4c-s2" kvg:type="㇕b" d="M15.61 20.9c7.89-1.15 16.79-2.5 21.13-2.91 1.58-.15 2.54.89 2.31 1.77-1.04 4.06-2.15 12.35-3.43 17"/><path id="kvg:08e4c-s3" kvg:type="㇐b" d="M18.56 39.19c5.09-.46 11.65-.84 18.64-1.55"/></g><path id="kvg:08e4c-s4" kvg:type="㇑a" d="M25.37 41.24c1.09.5 1.96 2.23 1.96 3.25.0 5.51.28 28.01.28 38"/><path id="kvg:08e4c-s5" kvg:type="㇐b" d="M27.38 58.24c3.37-.49 5.87-1.74 9.35-2 1.74-.13 2.18-.25 3.26.0"/><path id="kvg:08e4c-s6" kvg:type="㇑" d="M14.87 52.49c1.09.5 1.74 2.25 1.96 3.25s.42 20.01.42 31.76"/><path id="kvg:08e4c-s7" kvg:type="㇀/㇏" d="M10.5 88.73c.34.72 2.87 1.16 3.7.75 8.21-4.01 16.24-8 25.3-12.49"/></g><g id="kvg:08e4c-g3" kvg:element="倉" kvg:position="right"><g id="kvg:08e4c-g4" kvg:element="人" kvg:position="top"><path id="kvg:08e4c-s8" kvg:type="㇒" d="M65.69 11.25c.07.85.4 2.28-.15 3.43C61.79 22.64 53.89 36.11 39.5 47.5"/><path id="kvg:08e4c-s9" kvg:type="㇏" d="M66.89 13.75c4.1 5.49 21.79 23.4 26.32 27.42 1.54 1.36 3.51 1.95 5.04 2.33"/></g><g id="kvg:08e4c-g5" kvg:position="bottom"><path id="kvg:08e4c-s10" kvg:type="㇐" d="M57.11 37.23c1.39.27 2.94.42 4.06.28 3.81-.46 9.04-1.54 13.64-2.15 1.99-.26 3.07.06 3.94.06"/><path id="kvg:08e4c-s11" kvg:type="㇕" d="M51.45 46.26c.81.26 2.74.97 4.55.86 10.75-.62 23.99-2.97 25.38-3.12 1.4-.15 2.91.74 2.76 2.5-.25 2.78-2.01 8.37-3.08 16.57"/><path id="kvg:08e4c-s12" kvg:type="㇐" d="M53.45 56.84c2.48-.1 26.53-3.3 29.33-3.41"/><path id="kvg:08e4c-s13" kvg:type="㇐" d="M52.36 66.63c5.11-.6 24.57-2.63 30.91-3.23"/><path id="kvg:08e4c-s14" kvg:type="㇒" d="M53.62 47.5c0 2 .29 2.28.18 3.83-.72 10.21-2.3 32.92-14.64 42.42"/><g id="kvg:08e4c-g6" kvg:element="口"><path id="kvg:08e4c-s15" kvg:type="㇑" d="M52.21 77.38c.33.35.67.63.81 1.07 1.15 3.43 3.02 12.89 3.8 19.05"/><path id="kvg:08e4c-s16" kvg:type="㇕b" d="M53.77 79.71c7.16-1.21 25.77-4.27 29.64-4.72 1.42-.17 2.27.98 2.06 1.94-.84 4.01-2.82 10.35-4.07 15.89"/><path id="kvg:08e4c-s17" kvg:type="㇐b" d="M56.99 95.49c4.55-.51 21.1-1.39 27.34-2.17"/></g></g></g></g></g></svg>