<svg xmlns="http://www.w3.org/2000/svg" width="109" height="109" viewBox="0 0 109 109"><g id="kvg:StrokePaths_08e8b"><g id="kvg:08e8b" kvg:element="躋"><g id="kvg:08e8b-g1" kvg:element="足" kvg:position="left" kvg:radical="general"><g id="kvg:08e8b-g2" kvg:element="口"><path id="kvg:08e8b-s1" kvg:type="㇑" d="M13.28 18.71c.34.32.7.58.85.97 1.19 3.13 2.18 15.2 3 20.82"/><path id="kvg:08e8b-s2" kvg:type="㇕b" d="M14.98 20.4c8.16-1.68 15.63-2.5 19.67-2.91 1.48-.15 2.36.89 2.15 1.77-.97 4.06-2 11.85-3.19 16.5"/><path id="kvg:08e8b-s3" kvg:type="㇐b" d="M17.73 38.19c4.74-.46 11.34-.34 17.85-1.05"/></g><path id="kvg:08e8b-s4" kvg:type="㇑a" d="M24.87 40.24c1.09.5 1.96 2.23 1.96 3.25.0 5.51.28 31.51.28 41.5"/><path id="kvg:08e8b-s5" kvg:type="㇐b" d="M27.38 59.74c3.37-.49 6.87-1.74 10.35-2 1.74-.13 2.18-.25 3.26.0"/><path id="kvg:08e8b-s6" kvg:type="㇑" d="M14.37 54.49c1.09.5 1.74 2.25 1.96 3.25s.42 21.01.42 32.76"/><path id="kvg:08e8b-s7" kvg:type="㇀/㇏" d="M10.5 90.68c.34.74 2.9 1.72 3.73 1.3 8.28-4.16 16.38-8.82 25.52-13.49"/></g><g id="kvg:08e8b-g3" kvg:element="齊" kvg:position="right"><g id="kvg:08e8b-g4" kvg:element="亠" kvg:position="top"><path id="kvg:08e8b-s8" kvg:type="㇑a" d="M66.51 11.75c.56.42 1.47 2.05 1.47 2.89.0 3.09-.18 4-.07 6.62"/><path id="kvg:08e8b-s9" kvg:type="㇐" d="M42.85 23.19c1.54.34 2.88.59 4.66.48C58.3 23 79.67 20.48 91.94 19.79c1.8-.1 2.73.04 4.07.61"/></g><g id="kvg:08e8b-g5" kvg:position="bottom"><path id="kvg:08e8b-s10" kvg:type="㇔" d="M57.88 26.08c2.35 1.08 6.08 4.45 6.67 6.13"/><path id="kvg:08e8b-s11" kvg:type="㇒" d="M76.31 25.39c.02.23.04.58-.04.91-.48 1.91-3.25 6.1-7.03 8.67"/><path id="kvg:08e8b-s12" kvg:type="㇑" d="M67.71 36.33c.3.4.51.86.54 2.17.12 6.28-.01 14.11-.01 16.25"/><g id="kvg:08e8b-g6" kvg:element="刀"><path id="kvg:08e8b-s13" kvg:type="㇆" d="M41.94 35.19c.43.24 1.35.21 1.73.13 3.07-.68 12.56-2.49 14.26-2.74 1.11-.16 1.47.74 1.36 1.87-.64 6.3-2.47 10.05-4.42 14.84-1.02 2.51-2.21 1.71-2.96-.24"/><path id="kvg:08e8b-s14" kvg:type="㇒" d="M50.01 34.52c.02.37.05.96-.04 1.49-.69 3.93-3.6 9.47-7.32 14.25"/></g><path id="kvg:08e8b-s15" kvg:type="㇒" d="M89.77 24.39c.03.22.05.56-.05.87-.63 1.84-4.79 6.35-9.7 8.83"/><path id="kvg:08e8b-s16" kvg:type="㇙" d="M77.43 34.27c.29.61.51 1.43.51 2.34.0.92-.07 11.32-.07 12.75s.07 1.83 1.01.81c.94-1.02 5.87-4.17 7.99-5.17"/><path id="kvg:08e8b-s17" kvg:type="㇏" d="M83.11 32.36c1.86 4.09 5.64 9.14 9.66 14.29.92 1.18 2.56 1.73 3.97 2.35"/><path id="kvg:08e8b-s18" kvg:type="㇒" d="M52.04 56.32c.95.55 1.3 1.93 1.3 2.53.0 18.4-2.84 31.88-12.26 37.86"/><g id="kvg:08e8b-g7" kvg:element="二"><path id="kvg:08e8b-s19" kvg:type="㇐" d="M53.73 63.82c3.4-.55 31.26-2.04 34.04-2.32"/><path id="kvg:08e8b-s20" kvg:type="㇐" d="M52.51 75.13c3.18-.13 30.98-2.38 35.23-2.59"/></g><path id="kvg:08e8b-s21" kvg:type="㇑" d="M86.68 53.01c.49.56 1.3 2.71 1.3 3.83.0 4.4-.01 37.65-.07 40.8"/></g></g></g></g></svg>