<svg xmlns="http://www.w3.org/2000/svg" width="109" height="109" viewBox="0 0 109 109"><g id="kvg:StrokePaths_08e99" style="fill:none;stroke:#000000;stroke-width:3;stroke-linecap:round;stroke-linejoin:round;"><g id="kvg:08e99" kvg:element="躙"><g id="kvg:08e99-g1" kvg:element="足" kvg:position="left" kvg:radical="general"><g id="kvg:08e99-g2" kvg:element="口"><path id="kvg:08e99-s1" kvg:type="㇑" d="M13.28 20.28c.37.33.75.6.91 1.01 1.28 3.26 1.85 15.85 2.73 21.7"/><path id="kvg:08e99-s2" kvg:type="㇕b" d="M15.11 22.41c7.83-1.93 15-3.45 18.88-3.92 1.42-.17 2.27 1.02 2.06 2.04-.93 4.67-1.92 14.19-3.07 19.53"/><path id="kvg:08e99-s3" kvg:type="㇐b" d="M17.56 41.09c5.09-.48 10.15-.87 17.14-1.62"/></g><path id="kvg:08e99-s4" kvg:type="㇑a" d="M24.37 42.74c1.09.5 1.96 2.23 1.96 3.25.0 5.51.28 30.01.28 40"/><path id="kvg:08e99-s5" kvg:type="㇐b" d="M26.88 60.24c3.37-.49 5.37-1.24 8.85-1.5 1.74-.13 2.18-.25 3.26.0"/><path id="kvg:08e99-s6" kvg:type="㇑" d="M13.87 56.49c1.09.5 1.74 2.25 1.96 3.25s-.08 20.01-.08 31.76"/><path id="kvg:08e99-s7" kvg:type="㇀/㇏" d="M10.5 91.36c.32.65 2.67 1.5 3.45 1.13 7.64-3.63 15.12-7.68 23.55-11.75"/></g><g id="kvg:08e99-g3" kvg:position="right"><g id="kvg:08e99-g4" kvg:element="門" kvg:position="kamae"><g id="kvg:08e99-g5" kvg:position="left"><path id="kvg:08e99-s8" kvg:type="㇑" d="M42.64 16.66c.55.45.97 2.38 1.08 3.27s-.07 71.78-.18 77.34"/><path id="kvg:08e99-s9" kvg:type="㇕a" d="M43.88 18.12c1.85-.1 14.98-3.13 16.66-3.25 1.4-.1 2.13.9 2.2 1.69.1 1.21-1.67 19.06-1.67 19.65"/><path id="kvg:08e99-s10" kvg:type="㇐a" d="M44.2 27.28c4.53-.58 12.97-2.09 17.33-2.72"/><path id="kvg:08e99-s11" kvg:type="㇐a" d="M43.88 36.74c6.14-1.14 11.28-2 16.71-2.52"/></g><g id="kvg:08e99-g6" kvg:position="right"><path id="kvg:08e99-s12" kvg:type="㇑" d="M73.73 14.8c.32.53.63 1.65.63 2.36.0.7-.11 18 0 18.7"/><path id="kvg:08e99-s13" kvg:type="㇆a" d="M74.43 16.23c1.79-.09 15.82-1.88 17.45-1.99 1.36-.09 2.14.96 2.13 1.49-.35 16.2-.35 62-.35 73.75.0 10.01-5 1.29-6.04.22"/><path id="kvg:08e99-s14" kvg:type="㇐a" d="M74.25 24.95c2.42.0 15.87-1.16 18.61-1.16"/><path id="kvg:08e99-s15" kvg:type="㇐a" d="M74.39 34.44c3.58.0 14.08-1.98 18.71-1.98"/></g></g><g id="kvg:08e99-g7" kvg:element="隹"><g id="kvg:08e99-g8" kvg:element="亻" kvg:variant="true" kvg:original="人"><path id="kvg:08e99-s16" kvg:type="㇒" d="M60.61 40.57c.11.97-.03 2.25-.39 3.08-2.29 5.32-5.19 9.82-10.44 16.3"/><path id="kvg:08e99-s17" kvg:type="㇑" d="M55.14 53.68c.44.5.78 1.59.81 2.36.26 6.86-.36 26.12-.14 29.69"/></g><path id="kvg:08e99-s18" kvg:type="㇒" d="M71.76 39.65c.04.55-.01 1.26-.16 1.73-.9 2.99-2.05 5.3-4.12 8.94"/><path id="kvg:08e99-s19" kvg:type="㇐b" d="M55.33 52.33c5.15-.65 24.76-2.53 26.97-2.88"/><path id="kvg:08e99-s20" kvg:type="㇑a" d="M67.69 53.51c.25.25.45.6.45 1.04.0 4.45.03 20.38-.12 27.38"/><path id="kvg:08e99-s21" kvg:type="㇐b" d="M56.02 62.27c4.86-.53 22.93-2.09 25.02-2.38"/><path id="kvg:08e99-s22" kvg:type="㇐b" d="M56.43 71.88c5.13-.45 22.53-1.94 24.73-2.18"/><path id="kvg:08e99-s23" kvg:type="㇐b" d="M55.93 83.42c5.15-.64 25.08-1.88 27.29-2.23"/></g></g></g></g></svg>