<svg xmlns="http://www.w3.org/2000/svg" width="109" height="109" viewBox="0 0 109 109"><g id="kvg:StrokePaths_08e91"><g id="kvg:08e91" kvg:element="躑"><g id="kvg:08e91-g1" kvg:element="足" kvg:position="left" kvg:radical="general"><g id="kvg:08e91-g2" kvg:element="口"><path id="kvg:08e91-s1" kvg:type="㇑" d="M12.28 21.25c.35.32.71.59.86.99 1.21 3.19 2.21 15.52 3.04 21.26"/><path id="kvg:08e91-s2" kvg:type="㇕b" d="M14 22.97c8.24-1.71 14.3-3.07 18.38-3.49 1.49-.15 2.39.91 2.17 1.81-.98 4.15-2.02 12.61-3.23 17.36"/><path id="kvg:08e91-s3" kvg:type="㇐b" d="M16.78 41.14c4.79-.47 9.96-.85 16.53-1.58"/></g><path id="kvg:08e91-s4" kvg:type="㇑a" d="M24.87 41.24c1.09.5 1.96 2.23 1.96 3.25.0 5.51.28 28.01.28 38"/><path id="kvg:08e91-s5" kvg:type="㇐b" d="M27.38 59.74c3.37-.49 5.87-1.24 9.35-1.5 1.74-.13 2.18-.25 3.26.0"/><path id="kvg:08e91-s6" kvg:type="㇑" d="M14.87 55.99c1.09.5 1.74 2.25 1.96 3.25s.42 17.51.42 29.26"/><path id="kvg:08e91-s7" kvg:type="㇀/㇏" d="M12 89.8c.3.68 2.55.56 3.29.18 7.29-3.78 13.42-7.51 21.46-11.75"/></g><g id="kvg:08e91-g3" kvg:element="鄭" kvg:variant="true" kvg:position="right"><g id="kvg:08e91-g4" kvg:element="奠" kvg:position="left"><g id="kvg:08e91-g5" kvg:element="酋" kvg:position="top"><g id="kvg:08e91-g6" kvg:element="八" kvg:position="top"><g id="kvg:08e91-g7" kvg:position="left"><path id="kvg:08e91-s8" kvg:type="㇒" d="M47.98 17.96c.03.29.05.75-.05 1.16-.66 2.45-4.46 7.82-9.66 11.11"/></g><g id="kvg:08e91-g8" kvg:position="right"><path id="kvg:08e91-s9" kvg:type="㇏" d="M54.75 15c.61.12 1.19.29 1.58.62 3.57 3.01 7.88 9.24 11.27 11.12 1.46.81 1.98 1.25 3.4 1.51"/></g></g><g id="kvg:08e91-g9" kvg:element="酉" kvg:position="bottom"><g id="kvg:08e91-g10" kvg:element="西" kvg:part="1" kvg:original="襾"><path id="kvg:08e91-s10" kvg:type="㇐" d="M43.88 29.23c.54.27 2.21.34 2.75.27 3.62-.47 9.86-1.99 14.35-2.71.89-.14 1.9.13 2.35.26"/><path id="kvg:08e91-s11" kvg:type="㇑" d="M41.63 38.25c.31.36.43 1.23.43 1.71.0.48-.21 24.33-.21 24.57"/><path id="kvg:08e91-s12" kvg:type="㇕a" d="M42.59 39.52c1.77-.06 20.33-3.22 21.95-3.29 1.35-.06 2.31.58 2.31 1.94.0.76-.29 23.73-.29 24.09"/><path id="kvg:08e91-s13" kvg:type="㇒" d="M49.44 30.9c.59.56.39 1.33.4 2.1.07 7.55-.39 13.81-5.92 17.14"/><path id="kvg:08e91-s14" kvg:type="㇟a" d="M56.31 30.66c.29.54.52 1.19.54 2.03.05 2.67-.13 6.26-.15 9.55-.02 2.86.81 3.21 3.57 3.21 1.75.0 3.48.14 3.68-.18"/></g><g id="kvg:08e91-g11" kvg:element="一"><path id="kvg:08e91-s15" kvg:type="㇐a" d="M42.07 54.45c2.4.0 21.68-2.27 24.39-2.27"/></g><g id="kvg:08e91-g12" kvg:element="西" kvg:part="2" kvg:original="襾"><path id="kvg:08e91-s16" kvg:type="㇐a" d="M42.2 61.91c4.89-.26 17.92-1.99 24.02-2.21"/></g></g></g><g id="kvg:08e91-g13" kvg:element="大" kvg:position="bottom"><path id="kvg:08e91-s17" kvg:type="㇐" d="M37.35 72.83c.62.36 2.26.79 3.57.63 8.85-1.08 18.97-2.74 26.92-3.26 1.37-.09 2.47-.04 3.7.24"/><path id="kvg:08e91-s18" kvg:type="㇒" d="M53.69 64.75c.28.42.52.91.42 1.81C52.75 78 46 90.25 36.15 95.29"/><path id="kvg:08e91-s19" kvg:type="㇔/㇏" d="M54.18 77.99c5.51 2.97 11.41 8.38 15.15 15.1"/></g></g><g id="kvg:08e91-g14" kvg:element="⻏" kvg:variant="true" kvg:original="邑" kvg:position="right"><path id="kvg:08e91-s20" kvg:type="㇇" d="M73.57 18.95c1.06.13 2.14.31 3.19.12 7.24-1.31 10.49-1.81 14.46-2.37 2.89-.41 4.2 1.41 3.1 4.12-1.81 4.44-7.33 14.83-9.44 18.45"/><path id="kvg:08e91-s21" kvg:type="㇁" d="M84.88 39.26c15.12 10.99 15.37 47.49 2.13 33.98"/><path id="kvg:08e91-s22" kvg:type="㇑" d="M76.95 19.41c0 1.34.07 2.44.27 3.53s0 66.28-.2 73.06"/></g></g></g></g></svg>