<!DOCTYPE svg PUBLIC "-//W3C//DTD SVG 1.0//EN" "http://www.w3.org/TR/2001/REC-SVG-20010904/DTD/svg10.dtd" [
<!ATTLIST g
xmlns:kvg CDATA #FIXED "http://kanjivg.tagaini.net"
kvg:element CDATA #IMPLIED
kvg:variant CDATA #IMPLIED
kvg:partial CDATA #IMPLIED
kvg:original CDATA #IMPLIED
kvg:part CDATA #IMPLIED
kvg:number CDATA #IMPLIED
kvg:tradForm CDATA #IMPLIED
kvg:radicalForm CDATA #IMPLIED
kvg:position CDATA #IMPLIED
kvg:radical CDATA #IMPLIED
kvg:phon CDATA #IMPLIED >
<!ATTLIST path
xmlns:kvg CDATA #FIXED "http://kanjivg.tagaini.net"
kvg:type CDATA #IMPLIED >
]><svg xmlns="http://www.w3.org/2000/svg" width="109" height="109" viewBox="0 0 109 109"><g id="kvg:StrokePaths_08eaa" style="fill:none;stroke:#000000;stroke-width:3;stroke-linecap:round;stroke-linejoin:round;"><g id="kvg:08eaa" kvg:element="躪"><g id="kvg:08eaa-g1" kvg:element="足" kvg:position="left" kvg:radical="general"><g id="kvg:08eaa-g2" kvg:element="口"><path id="kvg:08eaa-s1" kvg:type="㇑" d="M13.28 21.21c.37.32.75.58.91.97 1.28 3.13 1.85 16.2 2.73 21.82"/><path id="kvg:08eaa-s2" kvg:type="㇕b" d="M15.11 23.4c8.76-1.68 14.29-2.5 18.63-2.91 1.58-.15 2.54.89 2.31 1.77-1.04 4.06-2.15 12.35-3.43 17"/><path id="kvg:08eaa-s3" kvg:type="㇐b" d="M17.06 41.69c5.09-.46 11.15-1.34 18.14-2.05"/></g><path id="kvg:08eaa-s4" kvg:type="㇑a" d="M25.87 42.74c1.09.5 1.96 2.23 1.96 3.25.0 5.51.28 28.01.28 38"/><path id="kvg:08eaa-s5" kvg:type="㇐b" d="M28.38 61.24c3.37-.49 5.87-1.24 9.35-1.5 1.74-.13 2.18-.25 3.26.0"/><path id="kvg:08eaa-s6" kvg:type="㇑" d="M16.37 57.99c1.09.5 1.74 2.25 1.96 3.25.22 1-.08 17.01-.08 28.76"/><path id="kvg:08eaa-s7" kvg:type="㇀/㇏" d="M11.5 90.83c.33.66 3.27 1.03 4.07.66 7.93-3.7 15.18-7.35 23.93-11.5"/></g><g id="kvg:08eaa-g3" kvg:element="藺" kvg:position="right"><g id="kvg:08eaa-g4" kvg:element="艹" kvg:variant="true" kvg:original="艸" kvg:position="top"><path id="kvg:08eaa-s8" kvg:type="㇐" d="M42.5 21.53c1.26.51 2.73.61 3.99.51 11.58-.94 32.75-3.51 46.1-3.58 2.1-.01 3.36.24 4.41.5"/><path id="kvg:08eaa-s9" kvg:type="㇑a" d="M53.62 11.86c1.32 1.08 1.75 1.41 1.89 2.08 1.32 6.22 1.95 12.64 2.33 14.9"/><path id="kvg:08eaa-s10" kvg:type="㇑a" d="M79.17 9.41c.32.89.63 1.52.38 2.64-1.55 6.7-2.02 9.62-4.28 15.66"/></g><g id="kvg:08eaa-g5" kvg:position="bottom"><g id="kvg:08eaa-g6" kvg:position="kamae"><g id="kvg:08eaa-g7" kvg:element="門"><g id="kvg:08eaa-g8" kvg:position="left"><path id="kvg:08eaa-s11" kvg:type="㇑" d="M44.64 34.16c.55.35.97 1.89 1.08 2.6s-.07 55.1-.18 59.52"/><path id="kvg:08eaa-s12" kvg:type="㇕a" d="M45.88 35.32c1.85-.08 13.48-2.09 15.16-2.19 1.4-.08 2.13.71 2.2 1.34.1.96-1.17 15.13-1.17 15.61"/><path id="kvg:08eaa-s13" kvg:type="㇐a" d="M46.2 42.59c4.53-.46 11.47-1.66 15.83-2.16"/><path id="kvg:08eaa-s14" kvg:type="㇐a" d="M45.88 50.11c6.14-.9 9.78-1.19 15.21-1.6"/></g><g id="kvg:08eaa-g9" kvg:position="right"><path id="kvg:08eaa-s15" kvg:type="㇑" d="M71.73 31.64c.34.45.68 1.4.68 2s.42 14.83.54 15.42"/><path id="kvg:08eaa-s16" kvg:type="㇆a" d="M72.48 32.85c1.92-.07 17.5-2.02 19.24-2.11 1.46-.07 2.29.81 2.28 1.27-.38 13.73-.38 52.54-.38 62.49.0 8.48-5.5-.17-6.62-1.09"/><path id="kvg:08eaa-s17" kvg:type="㇐a" d="M72.82 39.81c2.6.0 17.01-.98 19.95-.98"/><path id="kvg:08eaa-s18" kvg:type="㇐a" d="M72.98 47.43c3.84.0 15.09-1.26 20.06-1.26"/></g></g><g id="kvg:08eaa-g10" kvg:element="隹"><g id="kvg:08eaa-g11" kvg:element="亻" kvg:variant="true" kvg:original="人"><path id="kvg:08eaa-s19" kvg:type="㇒" d="M58.68 52.65c.08.78-.02 1.79-.3 2.46-1.73 4.24-3.92 7.83-7.89 13"/><path id="kvg:08eaa-s20" kvg:type="㇑" d="M56.95 60.64c.39.43.69 1.39.71 2.07.23 6.01-.32 22.89-.12 26.02"/></g><path id="kvg:08eaa-s21" kvg:type="㇒" d="M71.96 49.65c.04.48-.01 1.11-.14 1.52-.79 2.62-1.8 4.65-3.61 7.84"/><path id="kvg:08eaa-s22" kvg:type="㇐b" d="M57.55 60.77c4.52-.57 21.71-2.21 23.64-2.52"/><path id="kvg:08eaa-s23" kvg:type="㇑a" d="M68.39 60.48c.22.22.39.53.39.91.0 3.9.03 17.86-.11 24"/><path id="kvg:08eaa-s24" kvg:type="㇐b" d="M58.16 68.17c4.26-.47 20.1-1.83 21.93-2.09"/><path id="kvg:08eaa-s25" kvg:type="㇐b" d="M57.64 76.59c4.5-.39 20.62-1.7 22.55-1.91"/><path id="kvg:08eaa-s26" kvg:type="㇐b" d="M57.64 86.7c4.52-.57 22.43-1.65 24.36-1.96"/></g></g></g></g></g></g><g id="kvg:StrokeNumbers_08eaa" style="font-size:8;fill:#808080"><text transform="matrix(1 0 0 1 8.50 28.50)">1</text><text transform="matrix(1 0 0 1 17.50 19.85)">2</text><text transform="matrix(1 0 0 1 19.50 38.85)">3</text><text transform="matrix(1 0 0 1 20.50 49.50)">4</text><text transform="matrix(1 0 0 1 31.50 57.50)">5</text><text transform="matrix(1 0 0 1 8.58 57.50)">6</text><text transform="matrix(1 0 0 1 4.50 93.50)">7</text><text transform="matrix(1 0 0 1 39.50 18.50)">8</text><text transform="matrix(1 0 0 1 46.50 10.50)">9</text><text transform="matrix(1 0 0 1 68.50 8.50)">10</text><text transform="matrix(1 0 0 1 36.50 42.50)">11</text><text transform="matrix(1 0 0 1 46.50 32.50)">12</text><text transform="matrix(1 0 0 1 49.25 40.50)">13</text><text transform="matrix(1 0 0 1 49.25 48.50)">14</text><text transform="matrix(1 0 0 1 65.50 39.50)">15</text><text transform="matrix(1 0 0 1 78.50 29.50)">16</text><text transform="matrix(1 0 0 1 75.50 38.50)">17</text><text transform="matrix(1 0 0 1 75.50 45.50)">18</text><text transform="matrix(1 0 0 1 49.50 57.50)">19</text><text transform="matrix(1 0 0 1 49.50 74.20)">20</text><text transform="matrix(1 0 0 1 64.25 51.13)">21</text><text transform="matrix(1 0 0 1 60.50 57.13)">22</text><text transform="matrix(1 0 0 1 71.50 65.63)">23</text><text transform="matrix(1 0 0 1 59.50 66.50)">24</text><text transform="matrix(1 0 0 1 59.66 74.50)">25</text><text transform="matrix(1 0 0 1 59.54 84.50)">26</text></g></svg>