<!DOCTYPE svg PUBLIC "-//W3C//DTD SVG 1.0//EN" "http://www.w3.org/TR/2001/REC-SVG-20010904/DTD/svg10.dtd" [
<!ATTLIST g
xmlns:kvg CDATA #FIXED "http://kanjivg.tagaini.net"
kvg:element CDATA #IMPLIED
kvg:variant CDATA #IMPLIED
kvg:partial CDATA #IMPLIED
kvg:original CDATA #IMPLIED
kvg:part CDATA #IMPLIED
kvg:number CDATA #IMPLIED
kvg:tradForm CDATA #IMPLIED
kvg:radicalForm CDATA #IMPLIED
kvg:position CDATA #IMPLIED
kvg:radical CDATA #IMPLIED
kvg:phon CDATA #IMPLIED >
<!ATTLIST path
xmlns:kvg CDATA #FIXED "http://kanjivg.tagaini.net"
kvg:type CDATA #IMPLIED >
]><svg xmlns="http://www.w3.org/2000/svg" width="109" height="109" viewBox="0 0 109 109"><g id="kvg:StrokePaths_08ea1" style="fill:none;stroke:#000000;stroke-width:3;stroke-linecap:round;stroke-linejoin:round;"><g id="kvg:08ea1" kvg:element="躡"><g id="kvg:08ea1-g1" kvg:element="足" kvg:position="left" kvg:radical="general"><g id="kvg:08ea1-g2" kvg:element="口"><path id="kvg:08ea1-s1" kvg:type="㇑" d="M13.35 18.56c.34.29.69.53.83.89 1.17 2.86 2.15 13.91 2.95 19.05"/><path id="kvg:08ea1-s2" kvg:type="㇕b" d="M15.03 20.11c9.72-1.11 16.36-2.75 20.33-3.12 1.45-.14 2.32.81 2.11 1.62-.96 3.72-1.97 11.3-3.14 15.55"/><path id="kvg:08ea1-s3" kvg:type="㇐b" d="M17.73 36.38c4.66-.43 12.16-.76 18.55-1.42"/></g><path id="kvg:08ea1-s4" kvg:type="㇑a" d="M24.87 36.74c1.09.5 1.96 2.23 1.96 3.25.0 5.51.28 32.01.28 42"/><path id="kvg:08ea1-s5" kvg:type="㇐b" d="M26.63 56.16c3.03-.44 5.28-1.12 8.42-1.35 1.57-.12 1.96-.23 2.94.0"/><path id="kvg:08ea1-s6" kvg:type="㇑" d="M14.37 53.99c1.09.5 1.74 2.25 1.96 3.25s.42 18.51.42 30.26"/><path id="kvg:08ea1-s7" kvg:type="㇀/㇏" d="M10.5 88.23c.32.72 2.67 1.66 3.45 1.25 7.64-4.01 15.12-8.5 23.55-12.99"/></g><g id="kvg:08ea1-g3" kvg:element="聶" kvg:position="right"><g id="kvg:08ea1-g4" kvg:element="耳" kvg:position="top"><path id="kvg:08ea1-s8" kvg:type="㇐" d="M47.94 15.91c1.06.28 3.01.3 4.08.28C61.5 16 76 14 86.71 13c1.76-.16 2.83.13 3.72.27"/><path id="kvg:08ea1-s9" kvg:type="㇑a" d="M56.4 16.24c.73.71 1.12 2.58 1.12 4.5s-.22 13.22-.22 20.13"/><path id="kvg:08ea1-s10" kvg:type="㇐a" d="M58.67 24.43c3.32.0 16.03-1.76 21.71-1.76"/><path id="kvg:08ea1-s11" kvg:type="㇐a" d="M57.81 32.32c6.5-.6 15.23-1.97 23.09-2.53"/><path id="kvg:08ea1-s12" kvg:type="㇀" d="M45.55 41.84c.35.55 2.22 1.32 3.43 1.09 4.86-.91 32.32-5.88 39.78-7.34"/><path id="kvg:08ea1-s13" kvg:type="㇑" d="M80.04 14.44c.34.95.85 2.14.85 3.33s.17 21.63.17 31.38"/></g><g id="kvg:08ea1-g5" kvg:position="bottom"><g id="kvg:08ea1-g6" kvg:element="耳" kvg:position="left"><path id="kvg:08ea1-s14" kvg:type="㇐" d="M42.44 54.86c.81.27 2.29.36 3.11.27 3.7-.38 15.7-2.13 18.82-2.66 1.33-.22 2.16.13 2.84.26"/><path id="kvg:08ea1-s15" kvg:type="㇑a" d="M47.9 56.58c.41.41.62 1.47.62 2.56s-.12 20.22-.12 24.16"/><path id="kvg:08ea1-s16" kvg:type="㇐a" d="M48.8 64.09c2.65-.37 8.69-1.74 12.77-2.08"/><path id="kvg:08ea1-s17" kvg:type="㇐a" d="M48.61 72.63c2.28.0 9.71-1.95 13.03-1.95"/><path id="kvg:08ea1-s18" kvg:type="㇀" d="M41.5 85.3c.53.59 1.27.91 1.83.67 2.24-.94 14.65-6.14 18.08-7.65"/><path id="kvg:08ea1-s19" kvg:type="㇑" d="M61.39 54.41c.19.54.47 1.22.47 1.9s.1 35.94.1 41.5"/></g><g id="kvg:08ea1-g7" kvg:element="耳" kvg:position="right"><path id="kvg:08ea1-s20" kvg:type="㇐" d="M70.92 52.58c.92.28 2.61.31 3.53.28 3.79-.13 13.8-1.61 20.08-2.7 1.51-.26 2.46.13 3.22.27"/><path id="kvg:08ea1-s21" kvg:type="㇑a" d="M77.09 54.39c.42.42.64 1.51.64 2.64s-.13 19.4-.13 23.45"/><path id="kvg:08ea1-s22" kvg:type="㇐a" d="M78.38 61.64c1.89.0 9.12-1.67 12.35-1.67"/><path id="kvg:08ea1-s23" kvg:type="㇐a" d="M78.18 69.98c2.33.0 8.85-1.54 12.25-1.54"/><path id="kvg:08ea1-s24" kvg:type="㇀" d="M71.81 83.26c.17.58 2.09.89 2.68.65 2.37-.96 16.72-7.22 20.35-8.75"/><path id="kvg:08ea1-s25" kvg:type="㇑" d="M90.53 52.15c.19.6.49 1.34.49 2.09.0.75.1 36.76.1 42.88"/></g></g></g></g></g><g id="kvg:StrokeNumbers_08ea1" style="font-size:8;fill:#808080"><text transform="matrix(1 0 0 1 8.50 25.50)">1</text><text transform="matrix(1 0 0 1 18.66 16.50)">2</text><text transform="matrix(1 0 0 1 20.50 33.50)">3</text><text transform="matrix(1 0 0 1 20.50 45.50)">4</text><text transform="matrix(1 0 0 1 30.50 51.50)">5</text><text transform="matrix(1 0 0 1 6.50 54.50)">6</text><text transform="matrix(1 0 0 1 3.50 91.50)">7</text><text transform="matrix(1 0 0 1 45.50 13.50)">8</text><text transform="matrix(1 0 0 1 50.25 25.50)">9</text><text transform="matrix(1 0 0 1 61.50 22.50)">10</text><text transform="matrix(1 0 0 1 61.50 30.50)">11</text><text transform="matrix(1 0 0 1 40.50 38.50)">12</text><text transform="matrix(1 0 0 1 83.50 22.50)">13</text><text transform="matrix(1 0 0 1 40.25 52.50)">14</text><text transform="matrix(1 0 0 1 38.50 64.50)">15</text><text transform="matrix(1 0 0 1 51.06 61.50)">16</text><text transform="matrix(1 0 0 1 51.11 70.50)">17</text><text transform="matrix(1 0 0 1 38.25 81.35)">18</text><text transform="matrix(1 0 0 1 64.50 60.50)">19</text><text transform="matrix(1 0 0 1 69.25 49.50)">20</text><text transform="matrix(1 0 0 1 69.50 67.50)">21</text><text transform="matrix(1 0 0 1 80.75 58.50)">22</text><text transform="matrix(1 0 0 1 80.50 67.50)">23</text><text transform="matrix(1 0 0 1 67.75 79.50)">24</text><text transform="matrix(1 0 0 1 93.50 59.50)">25</text></g></svg>