<svg xmlns="http://www.w3.org/2000/svg" width="109" height="109" viewBox="0 0 109 109"><g id="kvg:StrokePaths_08eab" style="fill:none;stroke:#000000;stroke-width:3;stroke-linecap:round;stroke-linejoin:round;"><g id="kvg:08eab" kvg:element="身" kvg:radical="general"><path id="kvg:08eab-s1" kvg:type="㇒" d="M53.03 9.64c.21 1.1.09 1.85-.52 2.87-1.82 3.01-3.19 5.09-7.77 9.92"/><path id="kvg:08eab-s2" kvg:type="㇑a" d="M34.87 24c1.06 1.06 1.46 2.48 1.46 3.5.0 3.88.28 27.25.28 36.75"/><path id="kvg:08eab-s3" kvg:type="㇆a" d="M37.07 25.59c5.22-.84 25.49-3.39 29.71-4.11 2.84-.48 4.47 1.14 4.47 3.77.0 12.39-.16 55.81-.16 66.93.0 11.08-6.59 3.83-8.61 1.82"/><path id="kvg:08eab-s4" kvg:type="㇐a" d="M37.5 37.25c8.62-1.25 27.38-3.62 32.5-4"/><path id="kvg:08eab-s5" kvg:type="㇐a" d="M37.75 49.75c6.75-1 25.74-4.25 32-4.5"/><path id="kvg:08eab-s6" kvg:type="㇀" d="M18.57 68.07c1.66 1.39 2.8 1.56 5.93.68 10.25-2.88 38.88-11.12 45.75-13.25"/><path id="kvg:08eab-s7" kvg:type="㇒" d="M90.25 37.5c.12 1.62-.13 3.19-1.5 5.25C79.25 57 46.5 82 26.25 89.25"/></g></g></svg>