<!DOCTYPE svg PUBLIC "-//W3C//DTD SVG 1.0//EN" "http://www.w3.org/TR/2001/REC-SVG-20010904/DTD/svg10.dtd" [
<!ATTLIST g
xmlns:kvg CDATA #FIXED "http://kanjivg.tagaini.net"
kvg:element CDATA #IMPLIED
kvg:variant CDATA #IMPLIED
kvg:partial CDATA #IMPLIED
kvg:original CDATA #IMPLIED
kvg:part CDATA #IMPLIED
kvg:number CDATA #IMPLIED
kvg:tradForm CDATA #IMPLIED
kvg:radicalForm CDATA #IMPLIED
kvg:position CDATA #IMPLIED
kvg:radical CDATA #IMPLIED
kvg:phon CDATA #IMPLIED >
<!ATTLIST path
xmlns:kvg CDATA #FIXED "http://kanjivg.tagaini.net"
kvg:type CDATA #IMPLIED >
]><svg xmlns="http://www.w3.org/2000/svg" width="109" height="109" viewBox="0 0 109 109"><g id="kvg:StrokePaths_08ebe" style="fill:none;stroke:#000000;stroke-width:3;stroke-linecap:round;stroke-linejoin:round;"><g id="kvg:08ebe" kvg:element="躾"><g id="kvg:08ebe-g1" kvg:element="身" kvg:position="left" kvg:radical="general"><path id="kvg:08ebe-s1" kvg:type="㇒" d="M30.13 13.39c.01.26.27 1.42.22 1.79-.3 2.18-2.66 8.1-5.04 11.04"/><path id="kvg:08ebe-s2" kvg:type="㇑a" d="M18.17 27.75c.59.5.95 2.25 1.07 3.25s.27 27.25.15 33.5"/><path id="kvg:08ebe-s3" kvg:type="㇆a" d="M19.64 29.32c2.81-.84 13.82-3.32 16.12-3.34 1.93-.02 2.4 1.02 2.4 4 0 12.35-.36 49.39-.36 60.46.0 10.29-4.31 3.8-7.13.81"/><path id="kvg:08ebe-s4" kvg:type="㇐a" d="M19.88 40.42c4.09-.31 15.68-1.52 17.58-1.59"/><path id="kvg:08ebe-s5" kvg:type="㇐a" d="M19.78 51.95c5.39-.69 12.16-1.55 18.42-1.89"/><path id="kvg:08ebe-s6" kvg:type="㇀" d="M13.41 65.23c.73 1.01 2.01 1.34 4.18.5 4.44-1.71 14.61-5.55 19.72-7.73"/><path id="kvg:08ebe-s7" kvg:type="㇒" d="M43.83 48.75c.28.91.76 2.5.0 3.99-5.25 10.35-23.61 28.5-34.8 33.76"/></g><g id="kvg:08ebe-g2" kvg:element="美" kvg:position="right"><g id="kvg:08ebe-g3" kvg:element="羊" kvg:variant="true" kvg:position="top"><g id="kvg:08ebe-g4" kvg:element="䒑"><path id="kvg:08ebe-s8" kvg:type="㇔" d="M54.35 14.06c3.07 1.82 7.92 7.29 8.67 9.96"/><path id="kvg:08ebe-s9" kvg:type="㇒" d="M80.42 11.91c.02.28.04.73-.04 1.13-.46 2.36-3.05 7.42-6.58 10.38"/><path id="kvg:08ebe-s10" kvg:type="㇐" d="M49.62 27.44c1.22.44 3.45.67 4.68.59 8.2-.53 24.2-2.53 32.76-2.34 2.04.04 3.26.32 4.27.56"/></g><path id="kvg:08ebe-s11" kvg:type="㇑a" d="M68.03 27.08c.61.56 1.1 2.36 1.09 3.39-.02 6.09-.07 10.94-.09 19.06"/><path id="kvg:08ebe-s12" kvg:type="㇐" d="M52.19 39.76c1.12.44 3.18.69 4.31.59 10-.85 19-1.85 27.66-2.37 1.87-.11 3 .33 3.93.56"/><path id="kvg:08ebe-s13" kvg:type="㇐" d="M49.58 50.49c1.41.63 4.01.95 5.42.88 6.69-.35 28.11-2.98 34.56-2.83 2.35.05 3.77-.02 4.95.33"/></g><g id="kvg:08ebe-g5" kvg:element="大" kvg:position="bottom"><path id="kvg:08ebe-s14" kvg:type="㇐" d="M45.88 66.36c1.6.53 3.38.74 4.43.65C62 66 80.75 65.02 91.3 64.79c1.32-.03 2.95-.04 5.15.39"/><path id="kvg:08ebe-s15" kvg:type="㇒" d="M68.97 52.5c.38.6.71 1.81.57 3.09C67.11 77.16 62.5 88.5 45.18 96.25"/><path id="kvg:08ebe-s16" kvg:type="㇏" d="M68.59 66.75c5.37 6.5 17.01 21.81 22.37 26.16 1.83 1.48 2.46 1.7 3.29 1.84"/></g></g></g></g><g id="kvg:StrokeNumbers_08ebe" style="font-size:8;fill:#808080"><text transform="matrix(1 0 0 1 22.50 12.50)">1</text><text transform="matrix(1 0 0 1 11.50 34.50)">2</text><text transform="matrix(1 0 0 1 19.50 25.50)">3</text><text transform="matrix(1 0 0 1 22.50 37.85)">4</text><text transform="matrix(1 0 0 1 22.50 48.50)">5</text><text transform="matrix(1 0 0 1 5.50 67.50)">6</text><text transform="matrix(1 0 0 1 41.50 45.50)">7</text><text transform="matrix(1 0 0 1 47.50 12.50)">8</text><text transform="matrix(1 0 0 1 72.50 11.50)">9</text><text transform="matrix(1 0 0 1 47.25 24.50)">10</text><text transform="matrix(1 0 0 1 60.50 34.50)">11</text><text transform="matrix(1 0 0 1 48.50 36.80)">12</text><text transform="matrix(1 0 0 1 47.50 47.50)">13</text><text transform="matrix(1 0 0 1 43.50 63.50)">14</text><text transform="matrix(1 0 0 1 59.50 59.50)">15</text><text transform="matrix(1 0 0 1 77.50 75.50)">16</text></g></svg>