<!DOCTYPE svg PUBLIC "-//W3C//DTD SVG 1.0//EN" "http://www.w3.org/TR/2001/REC-SVG-20010904/DTD/svg10.dtd" [
<!ATTLIST g
xmlns:kvg CDATA #FIXED "http://kanjivg.tagaini.net"
kvg:element CDATA #IMPLIED
kvg:variant CDATA #IMPLIED
kvg:partial CDATA #IMPLIED
kvg:original CDATA #IMPLIED
kvg:part CDATA #IMPLIED
kvg:number CDATA #IMPLIED
kvg:tradForm CDATA #IMPLIED
kvg:radicalForm CDATA #IMPLIED
kvg:position CDATA #IMPLIED
kvg:radical CDATA #IMPLIED
kvg:phon CDATA #IMPLIED >
<!ATTLIST path
xmlns:kvg CDATA #FIXED "http://kanjivg.tagaini.net"
kvg:type CDATA #IMPLIED >
]><svg xmlns="http://www.w3.org/2000/svg" width="109" height="109" viewBox="0 0 109 109"><g id="kvg:StrokePaths_08ecc" style="fill:none;stroke:#000000;stroke-width:3;stroke-linecap:round;stroke-linejoin:round;"><g id="kvg:08ecc" kvg:element="軌"><g id="kvg:08ecc-g1" kvg:element="車" kvg:position="left" kvg:radical="general"><path id="kvg:08ecc-s1" kvg:type="㇐" d="M12.68 28.61c1.7.51 3.64.27 5.45.0 6.55-.97 16.81-2.44 25.26-3.35 1.48-.16 3.73-.36 5.16.09"/><path id="kvg:08ecc-s2" kvg:type="㇑" d="M13.81 39.77c.77.77 1.19 1.73 1.39 2.85.44 2.38 2.19 11.42 3.23 17 .42 2.26.72 3.95.77 4.39"/><path id="kvg:08ecc-s3" kvg:type="㇕a" d="M15.87 40.84c7.26-1.15 19.7-3.25 26.38-3.85 4.39-.39 5.63.27 5.06 4.65-.34 2.58-1.73 9.34-2.84 14.25-.41 1.83-.79 3.4-1.05 4.4"/><path id="kvg:08ecc-s4" kvg:type="㇐a" d="M18.14 50.92c8.5-1.05 17.86-2.42 26.97-3.06"/><path id="kvg:08ecc-s5" kvg:type="㇐a" d="M20.18 61.5c6.6-.88 12.82-1.62 22.61-2.53"/><path id="kvg:08ecc-s6" kvg:type="㇐" d="M10.78 74.71c2.09.65 4.49.23 6.58-.09 8.46-1.31 19.56-3.46 26.65-3.95 1.94-.13 3.85-.23 5.72.35"/><path id="kvg:08ecc-s7" kvg:type="㇑" d="M29.55 13.63c.84.84 1.14 2.51 1.23 3.65.06.81.01 53.94-.02 72.6-.01 3.82-.01 6.2-.01 6.38"/></g><g id="kvg:08ecc-g2" kvg:element="九" kvg:position="right" kvg:phon="九"><path id="kvg:08ecc-s8" kvg:type="㇒" d="M65.62 13.38c.88.88 1.23 1.99 1.25 3.12.62 39-3.12 59.88-23.12 75.25"/><g id="kvg:08ecc-g3" kvg:element="乙"><path id="kvg:08ecc-s9" kvg:type="㇈" d="M53 47.25c2.32.31 3.87-.1 6.02-.95 5.83-2.32 17.75-7.03 19.73-7.8 2.25-.88 4.36.67 3.75 3.5-1.62 7.5-4.25 21-5.75 31.5-1.94 13.55-.25 18.25 9.75 18.25 9.75.0 11.25-1 11.25-7.5"/></g></g></g></g><g id="kvg:StrokeNumbers_08ecc" style="font-size:8;fill:#808080"><text transform="matrix(1 0 0 1 6.75 29.50)">1</text><text transform="matrix(1 0 0 1 7.50 47.50)">2</text><text transform="matrix(1 0 0 1 15.75 38.50)">3</text><text transform="matrix(1 0 0 1 21.75 48.50)">4</text><text transform="matrix(1 0 0 1 22.50 58.50)">5</text><text transform="matrix(1 0 0 1 3.50 75.50)">6</text><text transform="matrix(1 0 0 1 20.50 14.50)">7</text><text transform="matrix(1 0 0 1 55.50 14.50)">8</text><text transform="matrix(1 0 0 1 52.50 44.50)">9</text></g></svg>