<!DOCTYPE svg PUBLIC "-//W3C//DTD SVG 1.0//EN" "http://www.w3.org/TR/2001/REC-SVG-20010904/DTD/svg10.dtd" [
<!ATTLIST g
xmlns:kvg CDATA #FIXED "http://kanjivg.tagaini.net"
kvg:element CDATA #IMPLIED
kvg:variant CDATA #IMPLIED
kvg:partial CDATA #IMPLIED
kvg:original CDATA #IMPLIED
kvg:part CDATA #IMPLIED
kvg:number CDATA #IMPLIED
kvg:tradForm CDATA #IMPLIED
kvg:radicalForm CDATA #IMPLIED
kvg:position CDATA #IMPLIED
kvg:radical CDATA #IMPLIED
kvg:phon CDATA #IMPLIED >
<!ATTLIST path
xmlns:kvg CDATA #FIXED "http://kanjivg.tagaini.net"
kvg:type CDATA #IMPLIED >
]><svg xmlns="http://www.w3.org/2000/svg" width="109" height="109" viewBox="0 0 109 109"><g id="kvg:StrokePaths_08eeb" style="fill:none;stroke:#000000;stroke-width:3;stroke-linecap:round;stroke-linejoin:round;"><g id="kvg:08eeb" kvg:element="軫"><g id="kvg:08eeb-g1" kvg:element="車" kvg:position="left" kvg:radical="general"><path id="kvg:08eeb-s1" kvg:type="㇐" d="M9.75 27.5c1.03.38 2.92.9 3.96.88 9.54-.13 20.54-.88 29.18-1.88 1.71-.2 2.75.18 3.61.37"/><path id="kvg:08eeb-s2" kvg:type="㇑" d="M11.75 39.69c.48.45 1.08.8 1.17 1.39.65 4.32 2.43 15.48 3.34 23.66"/><path id="kvg:08eeb-s3" kvg:type="㇕a" d="M13.59 41.33c7.26-.87 22.1-2.46 27.05-2.59 2.05-.06 3.47 1.68 3.38 3.04-.3 4.66-1.02 14.47-3.17 21.93"/><path id="kvg:08eeb-s4" kvg:type="㇐a" d="M16.3 52.12c7.45-.62 18.7-1.37 26.03-1.87"/><path id="kvg:08eeb-s5" kvg:type="㇐a" d="M16.3 63.4c6.36-.9 16.7-1.4 24.55-2.09"/><path id="kvg:08eeb-s6" kvg:type="㇐" d="M10 75.04c1.47.77 4.15.83 5.64.77C23 75.5 34.15 74.5 42 73.75c2.44-.23 4.27-.13 5.5.25"/><path id="kvg:08eeb-s7" kvg:type="㇑" d="M26.56 13.13c.76.6 2.01 3.12 2.01 5.66.0 1.2-.1 73.13-.25 80.59"/></g><g id="kvg:08eeb-g2" kvg:position="right"><path id="kvg:08eeb-s8" kvg:type="㇒" d="M68.92 9.75c.06.84.27 2.24-.12 3.4-2.68 7.96-7.56 21.35-20.83 31.97"/><path id="kvg:08eeb-s9" kvg:type="㇏" d="M68.62 14.35c3.77 5.57 19.61 23.26 23.77 27.34 1.41 1.38 3.22 1.98 4.63 2.37"/><g id="kvg:08eeb-g3" kvg:element="彡"><path id="kvg:08eeb-s10" kvg:type="㇒" d="M75.1 40.08c.07.48.25 1.29-.14 1.92-2.55 4.1-11.13 12.06-23.75 17.65"/><path id="kvg:08eeb-s11" kvg:type="㇒" d="M84.13 53.89c.09.58.32 1.6-.17 2.35-3.39 5.13-14.47 15.38-31.09 22.46"/><path id="kvg:08eeb-s12" kvg:type="㇒" d="M91.77 69.6c.13.67.27 1.73-.25 2.69C88.44 77.96 70.76 90.39 46.57 98"/></g></g></g></g><g id="kvg:StrokeNumbers_08eeb" style="font-size:8;fill:#808080"><text transform="matrix(1 0 0 1 2.85 29.85)">1</text><text transform="matrix(1 0 0 1 5.66 47.85)">2</text><text transform="matrix(1 0 0 1 16.21 37.50)">3</text><text transform="matrix(1 0 0 1 19.50 49.85)">4</text><text transform="matrix(1 0 0 1 19.50 60.50)">5</text><text transform="matrix(1 0 0 1 3.50 76.50)">6</text><text transform="matrix(1 0 0 1 18.50 12.50)">7</text><text transform="matrix(1 0 0 1 60.50 9.50)">8</text><text transform="matrix(1 0 0 1 75.50 19.50)">9</text><text transform="matrix(1 0 0 1 64.50 40.50)">10</text><text transform="matrix(1 0 0 1 74.50 55.50)">11</text><text transform="matrix(1 0 0 1 80.75 70.50)">12</text></g></svg>