<!DOCTYPE svg PUBLIC "-//W3C//DTD SVG 1.0//EN" "http://www.w3.org/TR/2001/REC-SVG-20010904/DTD/svg10.dtd" [
<!ATTLIST g
xmlns:kvg CDATA #FIXED "http://kanjivg.tagaini.net"
kvg:element CDATA #IMPLIED
kvg:variant CDATA #IMPLIED
kvg:partial CDATA #IMPLIED
kvg:original CDATA #IMPLIED
kvg:part CDATA #IMPLIED
kvg:number CDATA #IMPLIED
kvg:tradForm CDATA #IMPLIED
kvg:radicalForm CDATA #IMPLIED
kvg:position CDATA #IMPLIED
kvg:radical CDATA #IMPLIED
kvg:phon CDATA #IMPLIED >
<!ATTLIST path
xmlns:kvg CDATA #FIXED "http://kanjivg.tagaini.net"
kvg:type CDATA #IMPLIED >
]><svg xmlns="http://www.w3.org/2000/svg" width="109" height="109" viewBox="0 0 109 109"><g id="kvg:StrokePaths_08f05" style="fill:none;stroke:#000000;stroke-width:3;stroke-linecap:round;stroke-linejoin:round;"><g id="kvg:08f05" kvg:element="輅"><g id="kvg:08f05-g1" kvg:element="車" kvg:position="left" kvg:radical="general"><path id="kvg:08f05-s1" kvg:type="㇐" d="M10 27.05c1.25.45 2.76.75 3.9.71 10.62-.36 18.96-1.34 28.57-1.9 1.9-.11 3.06.1 4.02.21"/><path id="kvg:08f05-s2" kvg:type="㇑" d="M12.25 40.69c.48.45 1.08.8 1.17 1.39.65 4.32 2.43 14.98 3.34 23.16"/><path id="kvg:08f05-s3" kvg:type="㇕a" d="M14.09 41.83c7.26-.87 22.6-2.46 27.55-2.59 2.05-.06 2.97 1.18 2.88 2.54C44.22 46.44 43 55 41.85 63.21"/><path id="kvg:08f05-s4" kvg:type="㇐a" d="M15.8 52.12c7.45-.62 19.2-2.37 26.53-2.87"/><path id="kvg:08f05-s5" kvg:type="㇐a" d="M16.8 62.4c6.36-.9 17.2-1.9 25.05-2.59"/><path id="kvg:08f05-s6" kvg:type="㇐" d="M9 76.54c1.47.77 4.17 1.02 5.64.77 10.61-1.81 21.01-2.81 28.86-3.56 2.44-.23 4.27-.13 5.5.25"/><path id="kvg:08f05-s7" kvg:type="㇑" d="M26.64 12.38c.71.56 2.22 4.19 2.36 5.31s-.09 74.2-.23 81.19"/></g><g id="kvg:08f05-g2" kvg:element="各" kvg:position="right"><g id="kvg:08f05-g3" kvg:element="夂" kvg:position="top"><path id="kvg:08f05-s8" kvg:type="㇒" d="M65.32 13.25c.04.67.19 1.77-.07 2.68-1.99 6.99-6.43 17.42-12.67 26.14"/><path id="kvg:08f05-s9" kvg:type="㇇" d="M67.26 21.91c.33.04 1.76.0 2.71-.11 3.14-.35 9.96-1.59 14.44-2.68 3.08-.75 3.95.85 3.16 2.89C83.28 33.14 67.5 57.75 47.94 66.53"/><path id="kvg:08f05-s10" kvg:type="㇏" d="M60.65 29.08c4.52 5.66 25.01 27.18 31.11 32.36 1.82 1.54 3.29 2.29 5.06 2.75"/></g><g id="kvg:08f05-g4" kvg:element="口" kvg:position="bottom"><path id="kvg:08f05-s11" kvg:type="㇑" d="M55.33 69.17c.36.49.73.9.89 1.51 1.25 4.85 2.25 18.8 3.11 27.52"/><path id="kvg:08f05-s12" kvg:type="㇕b" d="M57.08 70.87c10.17-1.64 23.59-2.12 27.83-2.75 1.55-.23 2.48 1.38 2.25 2.75-.92 5.67-2.99 14.62-4.35 22.46"/><path id="kvg:08f05-s13" kvg:type="㇐b" d="M59.51 95.54c4.97-.72 18.53-.85 25.36-1.96"/></g></g></g></g><g id="kvg:StrokeNumbers_08f05" style="font-size:8;fill:#808080"><text transform="matrix(1 0 0 1 4.50 27.50)">1</text><text transform="matrix(1 0 0 1 6.50 47.85)">2</text><text transform="matrix(1 0 0 1 14.50 38.85)">3</text><text transform="matrix(1 0 0 1 19.50 49.85)">4</text><text transform="matrix(1 0 0 1 19.50 59.85)">5</text><text transform="matrix(1 0 0 1 1.50 77.85)">6</text><text transform="matrix(1 0 0 1 19.50 11.50)">7</text><text transform="matrix(1 0 0 1 56.50 12.50)">8</text><text transform="matrix(1 0 0 1 70.50 18.50)">9</text><text transform="matrix(1 0 0 1 58.75 42.50)">10</text><text transform="matrix(1 0 0 1 47.50 81.50)">11</text><text transform="matrix(1 0 0 1 59.50 67.50)">12</text><text transform="matrix(1 0 0 1 63.75 91.50)">13</text></g></svg>