<!DOCTYPE svg PUBLIC "-//W3C//DTD SVG 1.0//EN" "http://www.w3.org/TR/2001/REC-SVG-20010904/DTD/svg10.dtd" [
<!ATTLIST g
xmlns:kvg CDATA #FIXED "http://kanjivg.tagaini.net"
kvg:element CDATA #IMPLIED
kvg:variant CDATA #IMPLIED
kvg:partial CDATA #IMPLIED
kvg:original CDATA #IMPLIED
kvg:part CDATA #IMPLIED
kvg:number CDATA #IMPLIED
kvg:tradForm CDATA #IMPLIED
kvg:radicalForm CDATA #IMPLIED
kvg:position CDATA #IMPLIED
kvg:radical CDATA #IMPLIED
kvg:phon CDATA #IMPLIED >
<!ATTLIST path
xmlns:kvg CDATA #FIXED "http://kanjivg.tagaini.net"
kvg:type CDATA #IMPLIED >
]><svg xmlns="http://www.w3.org/2000/svg" width="109" height="109" viewBox="0 0 109 109"><g id="kvg:StrokePaths_08f12" style="fill:none;stroke:#000000;stroke-width:3;stroke-linecap:round;stroke-linejoin:round;"><g id="kvg:08f12" kvg:element="輒"><g id="kvg:08f12-g1" kvg:element="車" kvg:position="left" kvg:radical="general"><path id="kvg:08f12-s1" kvg:type="㇐" d="M9.25 26.5c1.03.38 2.93.45 3.96.38C22.75 26.25 27.75 26 36.39 25c1.71-.2 2.75.18 3.61.37"/><path id="kvg:08f12-s2" kvg:type="㇑" d="M12.25 37.42c.42.5.95.89 1.03 1.55.56 4.81 1.12 16.67 1.92 25.78"/><path id="kvg:08f12-s3" kvg:type="㇕a" d="M13.36 38.24c6.34-.97 18.75-1.85 23.08-2 1.79-.06 3.16 1.82 3.08 3.33-.26 5.18-.33 14.88-2.21 23.18"/><path id="kvg:08f12-s4" kvg:type="㇐a" d="M14.23 49.58c7.01-.26 17.6-1.19 24.5-1.4"/><path id="kvg:08f12-s5" kvg:type="㇐a" d="M15.23 62.25c6.17-.44 15.22-1.41 22.84-1.75"/><path id="kvg:08f12-s6" kvg:type="㇐" d="M9 74.9c1.34.46 3.8.6 5.15.46 9.68-1.07 16.93-1.96 24.09-2.4 2.23-.14 3.9-.08 5.02.15"/><path id="kvg:08f12-s7" kvg:type="㇑" d="M24.56 13.63c.76.6 2.01 2.62 2.01 5.66.0 1.2-.1 71.13-.25 78.59"/></g><g id="kvg:08f12-g2" kvg:element="𦔮" kvg:position="right"><g id="kvg:08f12-g3" kvg:element="耳" kvg:variant="true"><path id="kvg:08f12-s8" kvg:type="㇐" d="M39.55 15.46c1.64.45 4.61.47 6.28.45 13.56-.16 31.42-1.91 41.94-2.19 2.72-.07 4.37.22 5.74.44"/><path id="kvg:08f12-s9" kvg:type="㇑" d="M49.22 18c.63.58.96 2.1.96 3.67s-.19 47.48-.19 53.12"/><path id="kvg:08f12-s10" kvg:type="㇐" d="M50.66 35.76c2.84.0 8.21-.71 13.07-.71"/><path id="kvg:08f12-s11" kvg:type="㇐" d="M50.87 52.51c3.51.0 8.3-.99 13.42-.99"/><path id="kvg:08f12-s12" kvg:type="㇐" d="M42.5 79.08c.17.82 2.1.97 2.69.63C47.57 78.36 59 69.68 62.66 67.5"/><path id="kvg:08f12-s13" kvg:type="㇑" d="M63.93 15.38c.29.9.73 2.04.73 3.17s.15 67.72.15 76.99"/></g><path id="kvg:08f12-s14" kvg:type="㇟" d="M79.25 18.25c.61 1.19.65 1.99.85 3.57.2 1.59.27 51.04.06 61.85-.17 8.57 2.49 10.09 9.16 10.09s7.42-4.02 7.42-11.6"/></g></g></g><g id="kvg:StrokeNumbers_08f12" style="font-size:8;fill:#808080"><text transform="matrix(1 0 0 1 3.50 26.50)">1</text><text transform="matrix(1 0 0 1 6.50 44.50)">2</text><text transform="matrix(1 0 0 1 14.50 35.50)">3</text><text transform="matrix(1 0 0 1 17.50 47.50)">4</text><text transform="matrix(1 0 0 1 17.50 59.85)">5</text><text transform="matrix(1 0 0 1 2.50 74.50)">6</text><text transform="matrix(1 0 0 1 17.50 12.50)">7</text><text transform="matrix(1 0 0 1 37.50 12.50)">8</text><text transform="matrix(1 0 0 1 42.50 25.53)">9</text><text transform="matrix(1 0 0 1 52.75 32.50)">10</text><text transform="matrix(1 0 0 1 52.75 49.50)">11</text><text transform="matrix(1 0 0 1 31.50 82.50)">12</text><text transform="matrix(1 0 0 1 54.50 24.50)">13</text><text transform="matrix(1 0 0 1 69.50 24.50)">14</text></g></svg>