<svg xmlns="http://www.w3.org/2000/svg" width="109" height="109" viewBox="0 0 109 109"><g id="kvg:StrokePaths_08f1b"><g id="kvg:08f1b" kvg:element="輛"><g id="kvg:08f1b-g1" kvg:element="車" kvg:position="left" kvg:radical="general"><path id="kvg:08f1b-s1" kvg:type="㇐" d="M10.25 28c1.03.38 2.93.45 3.96.38 9.54-.63 17.04-.88 25.68-1.88 1.71-.2 2.75.18 3.61.37"/><path id="kvg:08f1b-s2" kvg:type="㇑" d="M10.75 39.19c.48.45 1.08 1.8 1.17 2.39.65 4.32 2.43 13.98 3.34 22.16"/><path id="kvg:08f1b-s3" kvg:type="㇕a" d="M12.09 41.33c7.26-.87 22.6-2.46 27.55-2.59 2.05-.06 2.47 1.18 2.38 2.54-.3 4.66-1.27 12.97-2.17 19.43"/><path id="kvg:08f1b-s4" kvg:type="㇐a" d="M13.8 52.12c7.45-.62 19.7-2.37 27.03-2.87"/><path id="kvg:08f1b-s5" kvg:type="㇐a" d="M15.8 62.4c6.36-.9 15.7-1.9 23.55-2.59"/><path id="kvg:08f1b-s6" kvg:type="㇐" d="M8.5 74.54c1.47.77 4.15 1.39 5.64 1.27C24.25 75 33.5 73.75 39.5 72.75c2.42-.4 4.27-.13 5.5.25"/><path id="kvg:08f1b-s7" kvg:type="㇑" d="M24.83 13.63c.6.47 1.87 3.54 1.99 4.49.12.95-.08 73.36-.2 79.26"/></g><g id="kvg:08f1b-g2" kvg:element="兩" kvg:position="right"><path id="kvg:08f1b-s8" kvg:type="㇐" d="M49.97 17.43c1.39.44 2.32.7 3.7.65 6.23-.2 18.37-1.7 31.33-2.44 1.85-.11 3.25-.13 5.33.31"/><g id="kvg:08f1b-g3" kvg:element="冂"><path id="kvg:08f1b-s9" kvg:type="㇑" d="M48.25 36.27c.14.69 1.11 2.78 1.11 4.18.0 17.55.81 49.46.81 54.07"/><path id="kvg:08f1b-s10" kvg:type="㇆a" d="M49.06 37.71c9.87-.96 35.46-3.26 41.67-4 2.01-.24 3.7.97 3.63 3.61C94 50.75 94.74 77 94.74 90.67c0 7.14-3.24 4.83-7.75.0"/></g><path id="kvg:08f1b-s11" kvg:type="㇑" d="M68.44 17.84c1.01 1.2 1.81 2.65 1.81 4.33.0.96-.6 66.52-.6 69.17"/><g id="kvg:08f1b-g4" kvg:element="入"><path id="kvg:08f1b-s12" kvg:type="㇒" d="M58.93 54.88c-.87 3.02-3.12 7.28-4.92 8.99"/><path id="kvg:08f1b-s13" kvg:type="㇏" d="M55.05 48.15c.37.0.7.38.87.66 2.92 4.66 6.22 9.46 8.92 12.75.31.37.6.51.92.61"/></g><g id="kvg:08f1b-g5" kvg:element="入"><path id="kvg:08f1b-s14" kvg:type="㇒" d="M81.62 54.3c-1.19 3.16-4.27 7.64-6.74 9.43"/><path id="kvg:08f1b-s15" kvg:type="㇏" d="M77.09 45.73c.48.0.96.43 1.14.78 2.83 5.36 7.1 11.32 11.68 15.05.46.38.78.6 1.2.72"/></g></g></g></g></svg>