<svg xmlns="http://www.w3.org/2000/svg" width="109" height="109" viewBox="0 0 109 109"><g id="kvg:StrokePaths_08f33"><g id="kvg:08f33" kvg:element="輳"><g id="kvg:08f33-g1" kvg:element="車" kvg:position="left" kvg:radical="general"><path id="kvg:08f33-s1" kvg:type="㇐" d="M9.75 25.3c1.09.21 3.08.75 4.17.71 7.58-.26 14.94-1.34 24.03-1.9 1.8-.11 2.9.1 3.8.21"/><path id="kvg:08f33-s2" kvg:type="㇑" d="M10.25 38.69c.48.45 1.08.8 1.17 1.39.65 4.32 2.43 15.98 3.34 24.16"/><path id="kvg:08f33-s3" kvg:type="㇕a" d="M12.09 40.33c7.26-.87 23.1-2.96 28.05-3.09 2.05-.06 2.47 1.18 2.38 2.54-.3 4.66-2.02 14.97-4.17 22.43"/><path id="kvg:08f33-s4" kvg:type="㇐a" d="M14.8 51.12c7.45-.62 19.2-2.37 26.53-2.87"/><path id="kvg:08f33-s5" kvg:type="㇐a" d="M14.8 61.9C21.16 61 31 60 38.85 59.31"/><path id="kvg:08f33-s6" kvg:type="㇐" d="M8 74.69c1.34.63 3.8.83 5.15.63C20.5 74.25 29.5 73 36.73 71.98c2.21-.31 3.9-.11 5.02.21"/><path id="kvg:08f33-s7" kvg:type="㇑" d="M24.78 12.38c.63.5 1.96 3.71 2.09 4.7.13.99-.08 74.6-.21 80.8"/></g><g id="kvg:08f33-g2" kvg:element="奏" kvg:position="right"><g id="kvg:08f33-g3" kvg:element="𡗗" kvg:position="top"><g id="kvg:08f33-g4" kvg:element="三"><g id="kvg:08f33-g5" kvg:element="一"><path id="kvg:08f33-s8" kvg:type="㇐" d="M50.93 22.21c.91.44 2.58.51 3.48.44 8.08-.65 22.08-2.9 29.29-3.1 1.52-.04 2.42.21 3.18.43"/></g><g id="kvg:08f33-g6" kvg:element="一"><path id="kvg:08f33-s9" kvg:type="㇐" d="M52.02 34.77c.94.31 2.67.42 3.61.31 7.12-.83 20.62-2.58 26.91-3.1 1.57-.13 2.51.15 3.3.31"/></g><g id="kvg:08f33-g7" kvg:element="一"><path id="kvg:08f33-s10" kvg:type="㇐" d="M46.52 47.3c1.04.49 2.96.61 4 .49 9.64-1.04 30.83-3.29 41.01-4.02 1.74-.12 2.78.24 3.65.48"/></g></g><g id="kvg:08f33-g8" kvg:element="人"><path id="kvg:08f33-s11" kvg:type="㇒" d="M68.24 11.5c.08 1.58.16 3.03-.16 5.29C66.2 30.15 58.25 65.25 38.75 77.5"/><path id="kvg:08f33-s12" kvg:type="㇏" d="M67.47 33.67c4.02 6.78 19.4 28.3 23.84 33.27 1.51 1.68 3.44 2.4 4.94 2.88"/></g></g><g id="kvg:08f33-g9" kvg:element="天" kvg:position="bottom"><path id="kvg:08f33-s13" kvg:type="㇐" d="M57.26 61.81c.5.26 1.41.3 1.92.26 4.32-.32 11.09-1.53 16.95-1.79.83-.04 1.33.12 1.75.25"/><g id="kvg:08f33-g10" kvg:element="大"><path id="kvg:08f33-s14" kvg:type="㇐" d="M48.2 76.28c.72.31 2.56.49 3.35.42 10.96-.95 26.1-2.67 33.95-2.94 1-.03 2.8.05 4.64.64"/><path id="kvg:08f33-s15" kvg:type="㇒" d="M67.77 64.84c.46.48.47 1.65.37 2.57C66.75 80 56 93.75 45.79 96.87"/><path id="kvg:08f33-s16" kvg:type="㇏" d="M67.19 79.34c5.9 2.72 17.37 11.72 20.93 16.93"/></g></g></g></g></g></svg>