<svg xmlns="http://www.w3.org/2000/svg" width="109" height="109" viewBox="0 0 109 109"><g id="kvg:StrokePaths_08f42"><g id="kvg:08f42" kvg:element="轂"><g id="kvg:08f42-g1" kvg:position="left"><g id="kvg:08f42-g2" kvg:element="士" kvg:position="top"><path id="kvg:08f42-s1" kvg:type="㇐" d="M15.25 18.01c.98.15 2.79.62 3.78.53C24.75 18 37 17.75 44.55 17.21c1.64-.12 2.63-.02 3.45.04"/><path id="kvg:08f42-s2" kvg:type="㇑a" d="M30.03 10.88c.9.29 1.44 1.5 1.62 2.21.18.7.11 12.75.02 15.01"/><path id="kvg:08f42-s3" kvg:type="㇐" d="M18.19 28.8c.94.14 2.66.54 3.6.5 4.46-.19 14.21-1.22 19.36-1.29 1.56-.02 2.5-.04 3.28.02"/></g><g id="kvg:08f42-g3" kvg:position="bottom"><g id="kvg:08f42-g4" kvg:element="冖"><path id="kvg:08f42-s4" kvg:type="㇔" d="M14.5 34.95c-.06 3.17-1.1 10.97-2.5 14.3"/><path id="kvg:08f42-s5" kvg:type="㇆" d="M14.43 36.82C22.5 35.75 39.5 35 50.39 34.4c5.42-.3 1.21 4.2-.81 6.62"/></g><path id="kvg:08f42-s6" kvg:type="㇐" d="M18.25 44.06c.81.33 2.31.28 3.12.33 4.45.26 13.88-.89 18.77-1.62 1.34-.2 2.17.16 2.85.32"/><g id="kvg:08f42-g5" kvg:element="車" kvg:radical="tradit"><path id="kvg:08f42-s7" kvg:type="㇐" d="M15.78 54.44c.7.23 2.48.75 3.18.73 4.53-.17 15.38-2.03 25.3-2.63 1.16-.07 1.87.11 2.45.22"/><path id="kvg:08f42-s8" kvg:type="㇑" d="M17.74 61.5c.45.3 1.03 1.44 1.12 1.83.62 2.89 1.36 9.12 2.23 14.6"/><path id="kvg:08f42-s9" kvg:type="㇕a" d="M19.49 62.59c6.92-.58 21.23-2.81 25.96-2.9 1.96-.04 2.36.79 2.27 1.7-.29 3.12-.99 8.23-2.54 13.34"/><path id="kvg:08f42-s10" kvg:type="㇐a" d="M21.13 69.82c5.22-.15 15.62-2.76 25.46-2.76"/><path id="kvg:08f42-s11" kvg:type="㇐a" d="M21.13 76.03c5.76-.57 15.12-1.53 24.05-2.41"/><path id="kvg:08f42-s12" kvg:type="㇐" d="M11.5 84.12c1.23.58 3.46.6 4.7.58 12.29-.17 23.3-2.2 32-3.12 2.03-.21 3.27-.22 4.3.06"/><path id="kvg:08f42-s13" kvg:type="㇑" d="M31.6 48c.43.36 1.33 2.69 1.42 3.4.09.72-.06 42.36-.14 46.85"/></g></g></g><g id="kvg:08f42-g6" kvg:element="殳" kvg:position="right" kvg:radical="nelson"><g id="kvg:08f42-g7" kvg:element="几" kvg:position="top"><g id="kvg:08f42-g8" kvg:element="丿"><path id="kvg:08f42-s14" kvg:type="㇒" d="M61.14 16.35c.02.71.48 1.82.46 2.84-.18 10.56-1.1 23.96-6.17 28.67"/></g><path id="kvg:08f42-s15" kvg:type="㇈b" d="M61.98 17.78c2.12.28 10.52-1.53 14.12-1.9 2.27-.23 3.45.83 2.97 2.62-1.07 3.99-2.14 8.24-2.14 14.37.0 9.87.82 11.14 9.55 11.14 8.51.0 7.61-2.01 7.61-10.36"/></g><g id="kvg:08f42-g9" kvg:element="又" kvg:position="bottom"><path id="kvg:08f42-s16" kvg:type="㇇" d="M55.33 55.07c1.48.36 1.62.45 4.62.36 5.55-.17 19.42-2.9 21.46-3.44 2.03-.54 3.68 2.07 2.77 3.92C74.81 74.99 61.74 85.8 44 94.67"/><path id="kvg:08f42-s17" kvg:type="㇏" d="M55.85 61.9c3.53.81 20.79 22.42 33.09 31.27 1.91 1.38 3.31 2.3 5.09 2.76"/></g></g></g></g></svg>