<svg xmlns="http://www.w3.org/2000/svg" width="109" height="109" viewBox="0 0 109 109"><g id="kvg:StrokePaths_08f45" style="fill:none;stroke:#000000;stroke-width:3;stroke-linecap:round;stroke-linejoin:round;"><g id="kvg:08f45" kvg:element="轅"><g id="kvg:08f45-g1" kvg:element="車" kvg:position="left" kvg:radical="general"><path id="kvg:08f45-s1" kvg:type="㇐" d="M11.58 27.3c1.17.45 2.72.91 3.34.86 8.59-.67 18.5-1.23 27.13-2.18 1.01-.11 1.62.17 2.13.35"/><path id="kvg:08f45-s2" kvg:type="㇑" d="M11.81 39.77c.49.47 1.12.84 1.21 1.46.67 4.53 2.5 15.7 3.44 24.28"/><path id="kvg:08f45-s3" kvg:type="㇕a" d="M13.1 41.35c7.07-.84 24.18-2.84 29.01-2.97 2-.05 2.41 1.14 2.32 2.46-.29 4.5-2.01 14.88-3.6 22.26"/><path id="kvg:08f45-s4" kvg:type="㇐a" d="M15.77 52.28c7.98-1.03 16.23-1.53 27.5-2.26"/><path id="kvg:08f45-s5" kvg:type="㇐a" d="M16.75 63.29c6.33-.6 14.84-1.62 24.08-2.39"/><path id="kvg:08f45-s6" kvg:type="㇐" d="M10.03 75.21c1.22.54 2.95 1.05 3.83.97C21.5 75.5 36.75 74 44.18 73.62c1.45-.07 2.32.22 3.04.46"/><path id="kvg:08f45-s7" kvg:type="㇑" d="M26.3 11.63c.45.57 1.89 2.26 1.98 3.4s-.06 75.75-.15 82.85"/></g><g id="kvg:08f45-g2" kvg:element="袁" kvg:position="right"><g id="kvg:08f45-g3" kvg:element="土" kvg:position="top"><path id="kvg:08f45-s8" kvg:type="㇐" d="M49.86 21.44C50.89 22 52.75 22.01 53.8 22c7.36-.07 18.95-1.29 33.12-1.79 1.71-.06 2.74.27 3.59.55"/><path id="kvg:08f45-s9" kvg:type="㇑" d="M67.69 10.12c.11.36 1.42 1.86 1.52 4.12.49 10.87.14 16.42.14 20.13"/><g id="kvg:08f45-g4" kvg:element="衣" kvg:part="1" kvg:variant="true" kvg:partial="true"><g id="kvg:08f45-g5" kvg:element="亠" kvg:partial="true"><path id="kvg:08f45-s10" kvg:type="㇐" d="M51.9 35.23c1.07.54 3.03.59 4.12.54C62.5 35.5 76 34.25 83.98 33.54c1.79-.16 2.86.26 3.76.53"/></g></g></g><g id="kvg:08f45-g6" kvg:position="bottom"><g id="kvg:08f45-g7" kvg:element="口"><path id="kvg:08f45-s11" kvg:type="㇑" d="M53.37 44.64c.44.3 1.01 1.53 1.09 1.93.6 2.88 2.33 8.98 3.17 14.44"/><path id="kvg:08f45-s12" kvg:type="㇕b" d="M54.58 46.13c7.88-1.38 22.92-2.88 28.85-3.14 1.91-.08 2.19 1.76 2.03 2.69-.58 3.32-1.66 5.73-2.4 10.29"/><path id="kvg:08f45-s13" kvg:type="㇐b" d="M57.48 58.28c6.75-.64 19.22-1.88 27.68-2.4"/></g><g id="kvg:08f45-g8" kvg:element="衣" kvg:part="2" kvg:variant="true" kvg:partial="true"><path id="kvg:08f45-s14" kvg:type="㇒" d="M67.95 59.89c.08.61.34 1.71-.15 2.44-3.73 5.65-12.15 13.63-26.49 23.38"/><path id="kvg:08f45-s15" kvg:type="㇙" d="M56.66 75.86c.33.31.68.61.68 1.15-.02 6.8-.22 17.01-.22 18.16s.81 1.8 1.83.94c1.02-.86 11.3-10.37 14.75-12.37"/><path id="kvg:08f45-s16" kvg:type="㇒" d="M87.3 61.67c.03.27.3 1.31.13 1.66-1.08 2.23-4.44 5.42-9.93 9.87"/><path id="kvg:08f45-s17" kvg:type="㇏" d="M69.59 65.98c1.02.8 2.66 3.06 2.94 3.4 4.18 5.05 14.35 17.93 17.17 20.9 1.06 1.12 1.98 1.6 3.04 1.92"/></g></g></g></g></g></svg>