<svg xmlns="http://www.w3.org/2000/svg" width="109" height="109" viewBox="0 0 109 109"><g id="kvg:StrokePaths_08f44"><g id="kvg:08f44" kvg:element="轄"><g id="kvg:08f44-g1" kvg:element="車" kvg:position="left" kvg:radical="general"><path id="kvg:08f44-s1" kvg:type="㇐" d="M15.33 27.8c1.67.45 3.37.49 5.06.23 5.64-.85 14.2-2.32 21.38-3.61 1.41-.25 3.12-.43 4.67-.08"/><path id="kvg:08f44-s2" kvg:type="㇑" d="M14.31 40.52c.77.77 1.19 1.73 1.48 2.85.94 3.53 2.06 9.89 3.07 16.62.16 1.08.31 2.17.45 3.27"/><path id="kvg:08f44-s3" kvg:type="㇕a" d="M16.25 41.85c7.95-1.34 21.19-4.08 27.5-4.62 3.51-.3 4.39.64 4.03 4.03-.4 3.77-1.3 9.67-2.46 15.05-.24 1.09-.48 2.19-.74 3.29"/><path id="kvg:08f44-s4" kvg:type="㇐a" d="M18.8 51.53c10.08-1.66 17.45-2.78 26.88-3.51"/><path id="kvg:08f44-s5" kvg:type="㇐a" d="M20.35 61.46c6.69-.87 13.45-1.85 23.23-2.97"/><path id="kvg:08f44-s6" kvg:type="㇐" d="M11.53 74.71c2.22.29 4.27.35 6.6.09 8.27-.95 18.8-2.93 26.12-3.98 1.39-.2 3.13-.44 4.48-.24"/><path id="kvg:08f44-s7" kvg:type="㇑" d="M30.05 14.13c.91.91 1.48 2.26 1.48 3.4.0 6.16-.03 56.04-.03 73.22.0 3.33.0 5.44.0 5.75"/></g><g id="kvg:08f44-g2" kvg:element="害" kvg:position="right" kvg:phon="害"><g id="kvg:08f44-g3" kvg:element="宀" kvg:position="top"><path id="kvg:08f44-s8" kvg:type="㇑a" d="M71.1 14.5c1.01 1.01 1.5 2.5 1.5 3.69.0 2.88-.06 5.82-.07 8.45"/><g id="kvg:08f44-g4" kvg:element="冖"><path id="kvg:08f44-s9" kvg:type="㇔" d="M55.88 28.12c0 2.76-1.49 11.44-2.17 13.29"/><path id="kvg:08f44-s10" kvg:type="㇖b" d="M56.97 30.34c7.53-1.72 23.16-4.22 34.81-4.83 6.17-.33 1.97 4.62-.23 6.35"/></g></g><g id="kvg:08f44-g5" kvg:position="bottom"><g id="kvg:08f44-g6" kvg:element="龶" kvg:position="top"><path id="kvg:08f44-s11" kvg:type="㇐" d="M59.24 43.66c1.88.34 3.68.2 5.11-.01 4.87-.74 13.26-2.04 17.9-2.56 1.28-.14 2.93-.47 4.21-.08"/><path id="kvg:08f44-s12" kvg:type="㇑a" d="M71.35 34.95c.92.92 1.18 2.18 1.18 3.26.0.94-.03 19.46-.03 26.54"/><path id="kvg:08f44-s13" kvg:type="㇐" d="M57.61 54.56c1.29.67 3.59.47 5 .28 5.16-.68 14.98-2.04 20.38-2.47 1.59-.13 3.18-.27 4.73.21"/><path id="kvg:08f44-s14" kvg:type="㇐" d="M53.38 67.28c1.24.76 4.05.51 5.36.32 9.51-1.36 22.14-2.73 30.15-3.36 1.81-.14 4.23-.43 5.98.21"/></g><g id="kvg:08f44-g7" kvg:element="口" kvg:position="bottom"><path id="kvg:08f44-s15" kvg:type="㇑" d="M57.19 77.23c.67.66 1.31 1.52 1.63 2.91.66 2.91 1.21 7.23 1.8 11.55.2 1.42.37 2.79.53 4.02"/><path id="kvg:08f44-s16" kvg:type="㇕b" d="M59.29 78.07c6.53-.93 19.93-2.58 25.69-3.27 2.66-.32 3.92.52 3.25 3.6-.77 3.57-1.68 6.63-3.28 11.87"/><path id="kvg:08f44-s17" kvg:type="㇐b" d="M61.68 93.13c3.62-.41 14.46-1.57 21.32-2.25 1.5-.15 2.81-.27 3.81-.37"/></g></g></g></g></g></svg>