<svg xmlns="http://www.w3.org/2000/svg" width="109" height="109" viewBox="0 0 109 109"><g id="kvg:StrokePaths_08f57"><g id="kvg:08f57" kvg:element="轗"><g id="kvg:08f57-g1" kvg:element="車" kvg:position="left" kvg:radical="general"><path id="kvg:08f57-s1" kvg:type="㇐" d="M9.58 25.8c1.67.7 3.72.9 4.34.86 7.34-.42 16-.73 24.63-1.68 1.01-.11 1.62.17 2.13.35"/><path id="kvg:08f57-s2" kvg:type="㇑" d="M11.06 36.27c.33.47.76.84.82 1.46.45 4.53 1.69 15.7 2.33 24.28"/><path id="kvg:08f57-s3" kvg:type="㇕a" d="M12.35 38.35c6.41-.84 20.1-2.84 24.48-2.97 1.81-.05 2.18 1.14 2.1 2.46-.27 4.5-.87 14.88-2.31 22.26"/><path id="kvg:08f57-s4" kvg:type="㇐a" d="M13.27 48.4c7.75-.71 13.8-1.24 24.75-1.74"/><path id="kvg:08f57-s5" kvg:type="㇐a" d="M14.25 59.85c6.13-.38 13.37-1.53 22.33-2.02"/><path id="kvg:08f57-s6" kvg:type="㇐" d="M8.03 72.71C9 73 10.97 73.64 11.86 73.68 18 74 28.5 72 36.68 71.12c1.44-.16 2.32.22 3.04.46"/><path id="kvg:08f57-s7" kvg:type="㇑" d="M23.3 13.13c.45.57 1.89 2.26 1.98 3.4s-.06 73.25-.15 80.35"/></g><g id="kvg:08f57-g2" kvg:element="感" kvg:position="right"><g id="kvg:08f57-g3" kvg:element="咸" kvg:position="top"><g id="kvg:08f57-g4" kvg:element="戍" kvg:part="1" kvg:variant="true" kvg:original="戌"><g id="kvg:08f57-g5" kvg:element="厂" kvg:part="1"><path id="kvg:08f57-s8" kvg:type="㇒" d="M48.99 26.23c.03.98.65 2.15.59 3.56-.5 11.96-1.15 27.46-7.83 36.99"/></g><g id="kvg:08f57-g6" kvg:element="戈" kvg:part="1"><g id="kvg:08f57-g7" kvg:element="弋" kvg:part="1"><g id="kvg:08f57-g8" kvg:element="厂" kvg:part="2"><path id="kvg:08f57-s9" kvg:type="㇐" d="M46.96 25.86c1.19.15 3.4.22 4.57.15 4.83-.29 25.93-1.75 35.88-2.54 1.95-.16 3.78-.07 4.78.0"/></g></g></g><g id="kvg:08f57-g9" kvg:element="一"><path id="kvg:08f57-s10" kvg:type="㇐" d="M53.77 37.68c.83.15 2.89-.02 3.71-.07 2.94-.2 6.73-.89 9.42-1.02 1.38-.07 2.57-.12 3.26-.05"/></g></g><g id="kvg:08f57-g10" kvg:element="口"><path id="kvg:08f57-s11" kvg:type="㇑" d="M52.79 46.18c.29.3.59.56.72.93 1.01 3 2.2 8.62 2.89 14.02"/><path id="kvg:08f57-s12" kvg:type="㇕b" d="M55.11 46.9c5.95-1.18 8.98-1.03 12.39-1.42 1.25-.14 1.99.85 1.82 1.7-.74 3.51-.76 5.8-1.85 10.65"/><path id="kvg:08f57-s13" kvg:type="㇐b" d="M56.23 59.35c4-.45 8.52-.85 12.98-1.14"/></g><g id="kvg:08f57-g11" kvg:element="戍" kvg:part="2" kvg:variant="true" kvg:original="戌"><g id="kvg:08f57-g12" kvg:element="戈" kvg:part="2"><g id="kvg:08f57-g13" kvg:element="弋" kvg:part="2"><path id="kvg:08f57-s14" kvg:type="㇂" d="M69.55 10.97c.97 1.14 1.76 1.67 2.01 4.1C73.79 36.77 80 54.75 92.51 62.81c3.91 2.52 3.22.91 2.73-4.15"/></g><g id="kvg:08f57-g14" kvg:element="丿"><path id="kvg:08f57-s15" kvg:type="㇒" d="M89.81 33.64c.05.68.11 1.76-.11 2.73C88.35 42.13 80.86 55.26 70.25 63"/></g><g id="kvg:08f57-g15" kvg:element="弋" kvg:part="3"><g id="kvg:08f57-g16" kvg:element="丶"><path id="kvg:08f57-s16" kvg:type="㇔" d="M80.5 11.5c2.58 1.13 6.7 3.71 7.9 5.64"/></g></g></g></g></g><g id="kvg:08f57-g17" kvg:element="心" kvg:position="bottom"><path id="kvg:08f57-s17" kvg:type="㇔" d="M47 76.75c.26 2.14-2.63 11.61-4.74 15.18"/><path id="kvg:08f57-s18" kvg:type="㇃" d="M53.5 71.25c8.57 16.34 16.9 23 30.33 23 8.42.0 6.87-3.84 2-7.84"/><path id="kvg:08f57-s19" kvg:type="㇔a" d="M69.58 73.9c3.07 7.64 5.25 6.49 5.94 2.47"/><path id="kvg:08f57-s20" kvg:type="㇔" d="M85.5 72.75c5.04 2.53 8.29 4.99 12.25 9.11"/></g></g></g></g></svg>