<svg xmlns="http://www.w3.org/2000/svg" width="109" height="109" viewBox="0 0 109 109"><g id="kvg:StrokePaths_08f5c" style="fill:none;stroke:#000000;stroke-width:3;stroke-linecap:round;stroke-linejoin:round;"><g id="kvg:08f5c" kvg:element="轜"><g id="kvg:08f5c-g1" kvg:element="車" kvg:position="left" kvg:radical="general"><path id="kvg:08f5c-s1" kvg:type="㇐" d="M9.08 26.3c.92.95 1.17.95 3.84.86 6.35-.19 15-.73 23.63-1.68 1.01-.11 1.62.17 2.13.35"/><path id="kvg:08f5c-s2" kvg:type="㇑" d="M11.56 37.9c.44.47 1 .82 1.08 1.44.6 4.46 1.73 15.97 2.57 24.42"/><path id="kvg:08f5c-s3" kvg:type="㇕a" d="M13.25 39.66c6.67-.89 18.44-2.64 22.99-2.78 1.88-.06 2.27 1.22 2.19 2.62-.28 4.81-.93 15.19-2.42 23.08"/><path id="kvg:08f5c-s4" kvg:type="㇐a" d="M14.33 50.73c7.53-1.11 12.87-1.71 23.51-2.48"/><path id="kvg:08f5c-s5" kvg:type="㇐a" d="M15.25 62.37c5.85-.93 12.75-1.62 20.76-2.21"/><path id="kvg:08f5c-s6" kvg:type="㇐" d="M10.03 75.21c.97.0 2.44.46 3.33.47 5.89.07 17.39-.93 24.33-1.56 1.44-.13 2.32-.28 3.04-.04"/><path id="kvg:08f5c-s7" kvg:type="㇑" d="M22.8 12.63c.45.57 1.89 2.26 1.98 3.4s-.06 73.75-.15 80.85"/></g><g id="kvg:08f5c-g2" kvg:element="需" kvg:position="right"><g id="kvg:08f5c-g3" kvg:element="雨" kvg:variant="true" kvg:position="top"><path id="kvg:08f5c-s8" kvg:type="㇐" d="M48.25 15.57c1.43.04 3.54.64 4.93.6C60.4 16 76.7 14.58 83.4 14.51c1.95-.02 3.58-.1 5.37.07"/><path id="kvg:08f5c-s9" kvg:type="㇔/㇑" d="M46.2 24.83c-.16 5.22-1.56 9.99-2.59 15.26"/><path id="kvg:08f5c-s10" kvg:type="㇖b/㇆" d="M46.56 27.76c7.94-.51 33.76-2.51 45.05-2.51 6.54.0.84 6.5-.2 8.14"/><path id="kvg:08f5c-s11" kvg:type="㇑" d="M66.1 17.93c.65 1.4.94 2.32.95 3.69.01.49-.2 24.85-.2 26.2"/><path id="kvg:08f5c-s12" kvg:type="㇔" d="M53.21 32.91c2.51.54 5.93 2.14 7.3 3.02"/><path id="kvg:08f5c-s13" kvg:type="㇔" d="M52.06 41.23c2.21.67 5.64 3.13 6.85 4.24"/><path id="kvg:08f5c-s14" kvg:type="㇔" d="M76.74 31.89c2.65.75 5.66 2.24 6.72 2.86"/><path id="kvg:08f5c-s15" kvg:type="㇔" d="M75.34 40.78c3.08.86 7.28 3.44 8.96 4.87"/></g><g id="kvg:08f5c-g4" kvg:element="而" kvg:position="bottom"><g id="kvg:08f5c-g5" kvg:position="top"><path id="kvg:08f5c-s16" kvg:type="㇐" d="M46.78 53.51c1.38.63 3.9.66 5.29.63C60 54 78 51.75 85.74 51.57c2.3-.05 3.68.3 4.83.61"/><path id="kvg:08f5c-s17" kvg:type="㇒" d="M69.14 55.36c.01.19.03.5-.03.77-.31 1.63-2.06 5.19-4.46 7.38"/></g><g id="kvg:08f5c-g6" kvg:position="bottom"><path id="kvg:08f5c-s18" kvg:type="㇑" d="M47.31 64.7c.44 1.08.83 2.79.94 4.74.17 2.85 1.22 21.86 1.57 25.86"/><path id="kvg:08f5c-s19" kvg:type="㇆a" d="M48.31 65.84c7.19-.09 32.44-2.09 39.97-2.53 2.46-.14 3.75.83 3.71 3.71-.08 7 .28 14.43-1.08 21.82-1.38 7.49-4.34 3.34-6.12.54"/><path id="kvg:08f5c-s20" kvg:type="㇑" d="M60.61 65.93c.53.71 1.22 2.1 1.28 3.15.18 3.52.19 23.5.19 25.08"/><path id="kvg:08f5c-s21" kvg:type="㇑" d="M74.15 64.73c.64 1.63.91 2.7.93 4.3.08 6.15.49 18.57.12 24.16"/></g></g></g></g></g></svg>