<!DOCTYPE svg PUBLIC "-//W3C//DTD SVG 1.0//EN" "http://www.w3.org/TR/2001/REC-SVG-20010904/DTD/svg10.dtd" [
<!ATTLIST g
xmlns:kvg CDATA #FIXED "http://kanjivg.tagaini.net"
kvg:element CDATA #IMPLIED
kvg:variant CDATA #IMPLIED
kvg:partial CDATA #IMPLIED
kvg:original CDATA #IMPLIED
kvg:part CDATA #IMPLIED
kvg:number CDATA #IMPLIED
kvg:tradForm CDATA #IMPLIED
kvg:radicalForm CDATA #IMPLIED
kvg:position CDATA #IMPLIED
kvg:radical CDATA #IMPLIED
kvg:phon CDATA #IMPLIED >
<!ATTLIST path
xmlns:kvg CDATA #FIXED "http://kanjivg.tagaini.net"
kvg:type CDATA #IMPLIED >
]><svg xmlns="http://www.w3.org/2000/svg" width="109" height="109" viewBox="0 0 109 109"><g id="kvg:StrokePaths_08f61" style="fill:none;stroke:#000000;stroke-width:3;stroke-linecap:round;stroke-linejoin:round;"><g id="kvg:08f61" kvg:element="轡"><g id="kvg:08f61-g1" kvg:position="top"><g id="kvg:08f61-g2" kvg:element="車" kvg:radical="tradit"><path id="kvg:08f61-s1" kvg:type="㇐" d="M41.63 22.94c1.32.29 2.65.33 3.99.13 5.26-.76 11.66-1.17 17-1.6 1.51-.36 3.01-.36 4.5-.02"/><path id="kvg:08f61-s2" kvg:type="㇑" d="M41.93 30.7c.61.88.96 1.85 1.05 2.9.42 2.33.9 4.95 1.45 8.39.2 1.26.41 2.63.63 4.14"/><path id="kvg:08f61-s3" kvg:type="㇕a" d="M43.31 31.08c4.35-.48 13.04-1.88 18.19-2.46 3.59-.41 5.12.75 4.58 4.41-.57 3.88-1.28 7.33-2.21 11.32"/><path id="kvg:08f61-s4" kvg:type="㇐a" d="M45.09 37.52c5.28-.4 12.16-1.27 19.14-1.57"/><path id="kvg:08f61-s5" kvg:type="㇐a" d="M46.09 44.7c4.77-.62 10.58-1.48 16.79-1.48"/><path id="kvg:08f61-s6" kvg:type="㇐" d="M41.08 53.86c1.92.26 3.23.16 4.93.06 5.12-.3 10.07-1.31 15.24-1.73 1.89-.29 3.79-.28 5.67.01"/><path id="kvg:08f61-s7" kvg:type="㇑" d="M53.32 13.24c.85.85 1.11 2.26 1.11 3.51.0.57-.04 27.2-.05 42.13.0 4.61-.01 8.11-.01 9.38"/></g><g id="kvg:08f61-g3" kvg:element="糸"><path id="kvg:08f61-s8" kvg:type="㇜" d="M26.32 15.75c0 1-.25 1.96-.88 2.89-2.32 3.48-5.57 7.98-8.1 11.24-1.35 1.74-.47 2.62 1.41 2.19 2.99-.45 5.99-.95 9.62-1.45"/><path id="kvg:08f61-s9" kvg:type="㇜" d="M35.05 21.96c.07 1.16-.36 2.11-.75 2.58-5.68 6.83-9.29 11.22-15.3 18.44-1.88 2.26-2.8 3.71 1.07 2.62 5.67-1.6 9.55-2.6 15.14-4.1"/><path id="kvg:08f61-s10" kvg:type="㇔" d="M33.19 36.43c1.87 1.73 5.09 6.85 5.56 9.54"/><path id="kvg:08f61-s11" kvg:type="㇑" d="M26.83 46.47c.85.85.92 1.78.92 3.28.0 3.41.03 8.83.06 13.25.02 2.87.03 5.31.03 6.5"/><path id="kvg:08f61-s12" kvg:type="㇒" d="M18.61 53.66c.1 1.03-.13 1.95-.67 2.75-1.5 2.56-3.97 6.43-6.17 9.36"/><path id="kvg:08f61-s13" kvg:type="㇔" d="M33.79 52.34c1.56 2.01 4.73 6.87 5.29 8.88"/></g><g id="kvg:08f61-g4" kvg:element="糸"><path id="kvg:08f61-s14" kvg:type="㇜" d="M81 14.75c0 1.12-.04 2.02-.63 3.06-1.85 3.24-4.85 8.38-7 11.82-1 1.61-.75 2.5 1.27 2.14 2.85-.51 5.36-.89 8.98-1.64"/><path id="kvg:08f61-s15" kvg:type="㇜" d="M92.37 18.36c.01.89-.39 1.95-.77 2.48-5.46 7.64-10.32 13.58-17.03 21.59-1.41 1.68-1.83 3.09 1.22 2.44 5.22-1.12 10.34-2.12 16.2-3.37"/><path id="kvg:08f61-s16" kvg:type="㇔" d="M89.06 35.13c1.99 1.84 5.89 8.05 6.39 10.91"/><path id="kvg:08f61-s17" kvg:type="㇑" d="M82.08 47.04c.88.88.92 2.07.92 3.23.0 3.43.0 8.31.0 12.23.0 2.62.0 4.82.0 5.88"/><path id="kvg:08f61-s18" kvg:type="㇒" d="M74.21 53.16c0 1.09-.4 2.07-.65 2.47-1.93 3.11-5.45 7.45-7.96 9.62"/><path id="kvg:08f61-s19" kvg:type="㇔" d="M89.53 51.31c2.35 2.48 6.38 9.09 7.22 11.57"/></g></g><g id="kvg:08f61-g5" kvg:element="口" kvg:position="bottom" kvg:radical="nelson"><path id="kvg:08f61-s20" kvg:type="㇑" d="M32.25 74.1c1.01 1.01 1.43 1.98 1.58 3.35.74 4.62 1.26 9.26 1.87 14.18.26 2.05.53 4.16.84 6.33"/><path id="kvg:08f61-s21" kvg:type="㇕b" d="M34.39 75.96c13.53-1.24 32.73-2.12 40.36-2.8 3.06-.27 5.37 1.26 4.63 4.59-1.15 5.22-1.89 8-3.47 15.02"/><path id="kvg:08f61-s22" kvg:type="㇐b" d="M37.54 95.38c7.12-.2 21.4-.89 33.09-1.35 2.82-.11 5.49-.21 7.88-.28"/></g></g></g><g id="kvg:StrokeNumbers_08f61" style="font-size:8;fill:#808080"><text transform="matrix(1 0 0 1 41.25 19.93)">1</text><text transform="matrix(1 0 0 1 36.50 37.35)">2</text><text transform="matrix(1 0 0 1 45.50 28.50)">3</text><text transform="matrix(1 0 0 1 45.50 36.50)">4</text><text transform="matrix(1 0 0 1 46.50 43.50)">5</text><text transform="matrix(1 0 0 1 39.50 52.50)">6</text><text transform="matrix(1 0 0 1 45.50 10.50)">7</text><text transform="matrix(1 0 0 1 20.00 14.13)">8</text><text transform="matrix(1 0 0 1 31.00 18.55)">9</text><text transform="matrix(1 0 0 1 33.50 33.98)">10</text><text transform="matrix(1 0 0 1 21.00 52.40)">11</text><text transform="matrix(1 0 0 1 11.00 54.83)">12</text><text transform="matrix(1 0 0 1 30.50 49.50)">13</text><text transform="matrix(1 0 0 1 74.50 11.50)">14</text><text transform="matrix(1 0 0 1 85.50 14.50)">15</text><text transform="matrix(1 0 0 1 89.50 33.50)">16</text><text transform="matrix(1 0 0 1 74.50 52.50)">17</text><text transform="matrix(1 0 0 1 66.50 52.50)">18</text><text transform="matrix(1 0 0 1 85.50 49.50)">19</text><text transform="matrix(1 0 0 1 23.50 81.50)">20</text><text transform="matrix(1 0 0 1 37.50 72.50)">21</text><text transform="matrix(1 0 0 1 39.75 91.50)">22</text></g></svg>