<svg xmlns="http://www.w3.org/2000/svg" width="109" height="109" viewBox="0 0 109 109"><g id="kvg:StrokePaths_08f62" style="fill:none;stroke:#000000;stroke-width:3;stroke-linecap:round;stroke-linejoin:round;"><g id="kvg:08f62" kvg:element="轢"><g id="kvg:08f62-g1" kvg:element="車" kvg:position="left" kvg:radical="general"><path id="kvg:08f62-s1" kvg:type="㇐" d="M9.58 24.8c.92.2 2.72.38 3.34.36 6.84-.17 12.34-.67 23.13-1.18 1.02-.05 1.62.17 2.13.35"/><path id="kvg:08f62-s2" kvg:type="㇑" d="M10.31 38.77c.6.53 1.36.94 1.47 1.65.81 5.1 1.72 16.58 2.68 26.84"/><path id="kvg:08f62-s3" kvg:type="㇕a" d="M12.1 40.35c7.07-.84 16.68-2.34 21.51-2.47 2-.05 2.91 1.64 2.82 2.96-.29 4.5-.51 17.38-2.1 24.76"/><path id="kvg:08f62-s4" kvg:type="㇐a" d="M13.27 52.79c7.98-1.04 11.23-1.54 22.5-2.26"/><path id="kvg:08f62-s5" kvg:type="㇐a" d="M14.75 65.71c6.2-.87 11.03-1.35 20.08-2.47"/><path id="kvg:08f62-s6" kvg:type="㇐" d="M7.53 77.71c.97.04 3.45 1.06 4.33.97C19 78 30.5 76.5 38.18 75.62c1.44-.17 2.32.22 3.04.46"/><path id="kvg:08f62-s7" kvg:type="㇑" d="M22.3 13.63c.45.57 1.89 2.26 1.98 3.4s-.06 74.75-.15 81.85"/></g><g id="kvg:08f62-g2" kvg:element="樂" kvg:position="right"><g id="kvg:08f62-g3" kvg:position="top"><g id="kvg:08f62-g4" kvg:element="白"><g id="kvg:08f62-g5" kvg:position="top"><path id="kvg:08f62-s8" kvg:type="㇔" d="M65.96 10.75c.15.37.17.83.14 1.16-.21 1.93-2.01 6.53-3.65 9.12"/></g><g id="kvg:08f62-g6" kvg:element="日" kvg:position="bottom"><path id="kvg:08f62-s9" kvg:type="㇑" d="M57.77 21.08c.42.67.99 1.94.99 2.8s.74 22.37.71 28.14"/><path id="kvg:08f62-s10" kvg:type="㇕a" d="M59.02 23.12c1.61-.11 9.56-1.33 11.03-1.46 1.23-.11 2.01.72 1.92 1.36-.19 1.3-.58 21.15-.73 28.05"/><path id="kvg:08f62-s11" kvg:type="㇐a" d="M59.54 35.74c2.18.0 8.99-1.03 11.46-1.03"/><path id="kvg:08f62-s12" kvg:type="㇐a" d="M59.44 49.87c3.23.0 7.76-.91 11.94-.91"/></g></g><g id="kvg:08f62-g7" kvg:element="幺"><path id="kvg:08f62-s13" kvg:type="㇜" d="M47.15 14.71c.18.95.35 1.76-.09 2.7-1.92 4.12-5.11 10.15-6.93 12.37-.37.45-.36 2.2.0 2.38 1.92.95 4.64 1.99 7.16 3.41"/><path id="kvg:08f62-s14" kvg:type="㇜" d="M53.44 25.21c.17.49.23 2.1.0 2.61-3.35 7.65-7.77 15.63-12.58 24.02-.59 1.03-.34 2.15.34 1.82 2.86-1.37 8.6-3.75 12.28-5.06"/><path id="kvg:08f62-s15" kvg:type="㇔" d="M51.2 43.55c1.25 1.81 3.22 7.42 3.53 10.23"/></g><g id="kvg:08f62-g8" kvg:element="幺"><path id="kvg:08f62-s16" kvg:type="㇜" d="M86.02 13.23c.2 1.02.38 1.88-.1 2.88-2.11 4.41-5.62 10.85-7.63 13.22-.41.49-.4 2.35.0 2.54 2.11 1.02 5.46 2.12 8.46 3.58"/><path id="kvg:08f62-s17" kvg:type="㇜" d="M94.78 22.73c.22.5.34 2.18.0 2.67-4.7 6.77-10.7 15.23-16.44 23.97-.72 1.1-.48 2.14.45 1.89 4.71-1.25 10.35-2.78 15.16-4.12"/><path id="kvg:08f62-s18" kvg:type="㇔" d="M90.93 42.57c2.01 1.81 5.19 7.45 5.69 10.27"/></g></g><g id="kvg:08f62-g9" kvg:element="木" kvg:position="bottom"><path id="kvg:08f62-s19" kvg:type="㇐" d="M40.08 67.15c.73.19 2.7.8 4.64.58 8.74-.99 34.03-2.47 48.12-2.75 1.95-.04 3.41-.22 4.66.5"/><path id="kvg:08f62-s20" kvg:type="㇑" d="M65.47 56.47c.74.27 1.19 1.2 1.33 1.73.15.53.0 35.47-.15 38.8"/><path id="kvg:08f62-s21" kvg:type="㇒" d="M65.97 67.31C61.25 76.61 52.25 86 37.83 92.89"/><path id="kvg:08f62-s22" kvg:type="㇏" d="M66.71 66.19C72 72.42 84.01 83.67 91.64 88.3c1.5.92 2.59 1.6 3.99 1.92"/></g></g></g></g></svg>