<!DOCTYPE svg PUBLIC "-//W3C//DTD SVG 1.0//EN" "http://www.w3.org/TR/2001/REC-SVG-20010904/DTD/svg10.dtd" [
<!ATTLIST g
xmlns:kvg CDATA #FIXED "http://kanjivg.tagaini.net"
kvg:element CDATA #IMPLIED
kvg:variant CDATA #IMPLIED
kvg:partial CDATA #IMPLIED
kvg:original CDATA #IMPLIED
kvg:part CDATA #IMPLIED
kvg:number CDATA #IMPLIED
kvg:tradForm CDATA #IMPLIED
kvg:radicalForm CDATA #IMPLIED
kvg:position CDATA #IMPLIED
kvg:radical CDATA #IMPLIED
kvg:phon CDATA #IMPLIED >
<!ATTLIST path
xmlns:kvg CDATA #FIXED "http://kanjivg.tagaini.net"
kvg:type CDATA #IMPLIED >
]><svg xmlns="http://www.w3.org/2000/svg" width="109" height="109" viewBox="0 0 109 109"><g id="kvg:StrokePaths_08f64" style="fill:none;stroke:#000000;stroke-width:3;stroke-linecap:round;stroke-linejoin:round;"><g id="kvg:08f64" kvg:element="轤"><g id="kvg:08f64-g1" kvg:element="車" kvg:position="left" kvg:radical="general"><path id="kvg:08f64-s1" kvg:type="㇐" d="M10.58 27.3c1.17.2 2.72.88 3.34.86C21 28 28.75 26.75 39.54 25.99c1.02-.07 1.62.17 2.13.35"/><path id="kvg:08f64-s2" kvg:type="㇑" d="M11.81 38.27c.46.49 1.06.87 1.14 1.52.63 4.71 2.37 16.31 3.25 25.22"/><path id="kvg:08f64-s3" kvg:type="㇕a" d="M14.6 39.85c7.07-.84 18.68-2.34 23.51-2.47 2-.05 2.41 1.14 2.32 2.46-.29 4.5-1.51 16.38-3.1 23.76"/><path id="kvg:08f64-s4" kvg:type="㇐a" d="M14.77 50.47c7.23-.52 13.79-1.27 24-1.63"/><path id="kvg:08f64-s5" kvg:type="㇐a" d="M16.25 62.85c5.6-.38 13.14-1.03 21.33-1.52"/><path id="kvg:08f64-s6" kvg:type="㇐" d="M9.03 75.21c1.22.29 2.94.99 3.83.97 7.39-.18 19.39-1.93 26.33-2.06 1.45-.03 2.32.22 3.04.46"/><path id="kvg:08f64-s7" kvg:type="㇑" d="M24.3 13.13c.45.57 1.89 2.26 1.98 3.4s-.06 73.75-.15 80.85"/></g><g id="kvg:08f64-g2" kvg:element="盧" kvg:position="right"><g id="kvg:08f64-g3" kvg:element="虍" kvg:position="tare"><path id="kvg:08f64-s8" kvg:type="㇑a" d="M66.39 10.83c.66.71 1.17 1.53 1.17 3.87.0 4.54-.01 9.16-.01 12.98"/><path id="kvg:08f64-s9" kvg:type="㇐b" d="M68.03 18.47c5.11-.75 11.93-1.21 17.11-1.8 1.71-.19 2.75.18 3.61.36"/><path id="kvg:08f64-s10" kvg:type="㇒" d="M50.9 26.47c.55.56.7 3.61.61 5.62C50.5 55.5 49 76 39.2 92.42"/><path id="kvg:08f64-s11" kvg:type="㇖a" d="M51.46 29.1c.97.18 2.7.35 4.29.25 10-.6 25.22-1.86 34.78-2.02 10.08-.17 2.97 4.99.46 7.03"/><g id="kvg:08f64-g4" kvg:element="七"><g id="kvg:08f64-g5" kvg:element="一"><path id="kvg:08f64-s12" kvg:type="㇐" d="M56.99 39.23c.66.35 2.29.41 2.96.35 6.64-.54 16.03-1.5 23.21-2.37 1.1-.13 1.77.17 2.32.35"/></g><path id="kvg:08f64-s13" kvg:type="㇟a" d="M67.31 30.75c.44.44 1.03 2.17 1.03 2.79.0 4.89-.08 4.55-.08 6.74.0 6.49 2.46 6 8.82 6 2.37.0 8.25-.5 10.28-1.37"/></g></g><g id="kvg:08f64-g6" kvg:position="tarec"><g id="kvg:08f64-g7" kvg:element="田"><path id="kvg:08f64-s14" kvg:type="㇑" d="M57.21 53.03c.2.36.58 1.57.69 2.01.9 3.64 2.21 8.3 2.74 15.01"/><path id="kvg:08f64-s15" kvg:type="㇕a" d="M58.54 54.07c8.65-1.07 22.43-2.4 27.77-2.29 1.31.03 2.1 1.24 2.1 2.38.0 3.61-1.7 8.44-3.09 15.13"/><path id="kvg:08f64-s16" kvg:type="㇑a" d="M71.58 53.52c.97.73 1.34 1.27 1.33 1.91-.03 4.22.13 11.06.13 12.59"/><path id="kvg:08f64-s17" kvg:type="㇐a" d="M59.82 61.46c2.33-.18 25.06-1.73 26.99-1.73"/><path id="kvg:08f64-s18" kvg:type="㇐a" d="M61.02 69.12c5.15.0 16.88-1.28 23.99-1.38"/></g><g id="kvg:08f64-g8" kvg:element="皿"><path id="kvg:08f64-s19" kvg:type="㇑a" d="M54.04 76.12c.45.76 1.04 1.58 1.14 2.23.76 5.13.83 8.89 1.13 14.97"/><path id="kvg:08f64-s20" kvg:type="㇕b" d="M55.53 77.73c8.12-1.06 29.9-2.63 32.85-2.49 1.27.06 2.03.19 1.86 2.21-.25 2.98-1.49 10.36-2.43 14.37"/><path id="kvg:08f64-s21" kvg:type="㇑a" d="M66 78.18c.19.49.46.89.46 1.51.0 4.37.18 8.7.18 12.71"/><path id="kvg:08f64-s22" kvg:type="㇑a" d="M77.62 77.59c.35.58.71 1.59.62 2.34-.52 4.37-.69 8.5-.91 12.18"/><path id="kvg:08f64-s23" kvg:type="㇐" d="M44.87 93.67c1.33.2 3.76.23 5.09.2 13.81-.33 19.4-1.37 44.83-1.42 2.21.0 3.54.09 4.65.19"/></g></g></g></g></g><g id="kvg:StrokeNumbers_08f64" style="font-size:8;fill:#808080"><text transform="matrix(1 0 0 1 3.00 28.88)">1</text><text transform="matrix(1 0 0 1 2.75 49.55)">2</text><text transform="matrix(1 0 0 1 18.00 36.48)">3</text><text transform="matrix(1 0 0 1 18.50 47.50)">4</text><text transform="matrix(1 0 0 1 19.25 59.50)">5</text><text transform="matrix(1 0 0 1 0.75 78.25)">6</text><text transform="matrix(1 0 0 1 18.25 11.68)">7</text><text transform="matrix(1 0 0 1 57.50 10.50)">8</text><text transform="matrix(1 0 0 1 72.25 15.50)">9</text><text transform="matrix(1 0 0 1 41.50 35.50)">10</text><text transform="matrix(1 0 0 1 51.25 26.50)">11</text><text transform="matrix(1 0 0 1 54.25 36.30)">12</text><text transform="matrix(1 0 0 1 70.50 35.73)">13</text><text transform="matrix(1 0 0 1 50.75 61.50)">14</text><text transform="matrix(1 0 0 1 60.50 51.58)">15</text><text transform="matrix(1 0 0 1 75.50 59.25)">16</text><text transform="matrix(1 0 0 1 61.50 60.50)">17</text><text transform="matrix(1 0 0 1 62.50 67.50)">18</text><text transform="matrix(1 0 0 1 47.00 82.50)">19</text><text transform="matrix(1 0 0 1 57.50 75.70)">20</text><text transform="matrix(1 0 0 1 59.50 84.38)">21</text><text transform="matrix(1 0 0 1 69.50 84.38)">22</text><text transform="matrix(1 0 0 1 44.50 90.50)">23</text></g></svg>