<svg xmlns="http://www.w3.org/2000/svg" width="109" height="109" viewBox="0 0 109 109"><g id="kvg:StrokePaths_08f9e" style="fill:none;stroke:#000000;stroke-width:3;stroke-linecap:round;stroke-linejoin:round;"><g id="kvg:08f9e" kvg:element="辞"><g id="kvg:08f9e-g1" kvg:element="舌" kvg:position="left" kvg:radical="nelson"><g id="kvg:08f9e-g2" kvg:element="千" kvg:position="top"><path id="kvg:08f9e-s1" kvg:type="㇒" d="M38.75 16.12c.12 1-.41 1.82-1.39 2.67-2.87 2.49-10.15 6.61-22.86 10.08"/><path id="kvg:08f9e-s2" kvg:type="㇐" d="M12.03 45.21c1.01.31 3.56.2 4.56.06 9.57-1.27 21.08-3.02 27.83-3.43 1.69-.1 2.71-.1 3.55.06"/><path id="kvg:08f9e-s3" kvg:type="㇑a" d="M30.46 26.37c.83.83 1.19 2.13 1.19 3.58.0 8.05.11 25.05.11 31.69"/></g><g id="kvg:08f9e-g3" kvg:element="口" kvg:position="bottom"><path id="kvg:08f9e-s4" kvg:type="㇑" d="M17.85 63.83c.85.85 1.43 1.79 1.6 2.81 1.14 6.99 1.81 11.94 2.29 15.61.23 1.76.42 3.24.59 4.5"/><path id="kvg:08f9e-s5" kvg:type="㇕b" d="M19.77 64.78c7.83-1.06 16.02-2.4 21.25-3.4 2.61-.5 4.36 1.63 3.85 4.25-.81 4.17-2.02 8.85-3.49 14.4"/><path id="kvg:08f9e-s6" kvg:type="㇐b" d="M23.14 83.25c4.77-.39 10.61-1.3 16.97-2 1.24-.14 2.49-.27 3.77-.38"/></g></g><g id="kvg:08f9e-g4" kvg:element="辛" kvg:position="right" kvg:radical="tradit"><g id="kvg:08f9e-g5" kvg:element="立" kvg:position="top"><g id="kvg:08f9e-g6" kvg:element="亠" kvg:position="top"><path id="kvg:08f9e-s7" kvg:type="㇑a" d="M68.34 12.75c.73.75 1.59 2 1.59 3.75s0 4 0 8.75"/><path id="kvg:08f9e-s8" kvg:type="㇐" d="M52.88 27.7c1.92.59 4.03.32 6 .14 6.52-.6 18.02-2.26 26.12-2.72 2.08-.12 4.11-.16 6.17.22"/></g><g id="kvg:08f9e-g7" kvg:position="bottom"><path id="kvg:08f9e-s9" kvg:type="㇔" d="M57.66 34.5c3.64 4.01 5.29 8.11 5.62 10.75"/><path id="kvg:08f9e-s10" kvg:type="㇒" d="M83.49 29.62c.28.7.28 1.52.06 2.36-.74 2.84-4.76 12.06-5.92 14.27"/><path id="kvg:08f9e-s11" kvg:type="㇐" d="M48.25 51.3c2.62.57 4.37.29 6.51.07 10.63-1.1 24.29-2.6 35.11-3.27 2.25-.14 4.41-.26 6.62.23"/></g></g><g id="kvg:08f9e-g8" kvg:element="十" kvg:position="bottom"><path id="kvg:08f9e-s12" kvg:type="㇐" d="M52.89 67.85c1.21.32 3.45.45 4.66.32 9.71-1.05 22.21-2.55 31.44-3.17 2.02-.13 3.24.15 4.25.32"/><path id="kvg:08f9e-s13" kvg:type="㇑" d="M70.02 51.63c1.05 1.05 1.59 2.49 1.59 4.21.0 4.85-.1 24.66-.14 35.28-.01 2.58-.02 4.61-.02 5.76"/></g></g></g></g></svg>