<svg xmlns="http://www.w3.org/2000/svg" width="109" height="109" viewBox="0 0 109 109"><g id="kvg:StrokePaths_08f9f" style="fill:none;stroke:#000000;stroke-width:3;stroke-linecap:round;stroke-linejoin:round;"><g id="kvg:08f9f" kvg:element="辟"><g id="kvg:08f9f-g1" kvg:element="𡰪" kvg:position="left"><g id="kvg:08f9f-g2" kvg:element="尸" kvg:position="tare"><path id="kvg:08f9f-s1" kvg:type="㇕c" d="M17.09 19.23c1.29.52 3.8.99 5.17.88 7.4-.58 19.54-2.25 22.51-2.46 1.47-.1 2.81 1.33 2.5 2.85-.77 3.74-1.77 11.76-2.97 20.07"/><path id="kvg:08f9f-s2" kvg:type="㇐b" d="M22.29 42.44c3.71-.17 14.96-.94 24.52-1.67"/><g id="kvg:08f9f-g3" kvg:element="丿" kvg:radical="nelson"><path id="kvg:08f9f-s3" kvg:type="㇒" d="M23.12 21.29c0 2.59-.31 7.33-.34 9.76-.22 17.52-4.9 39.78-15.23 51.01"/></g></g><g id="kvg:08f9f-g4" kvg:element="口" kvg:position="tarec"><path id="kvg:08f9f-s4" kvg:type="㇑" d="M22.2 59.1c.18.86.78 2.78.85 3.44.45 4.74 1.84 15.72 2.47 24.71"/><path id="kvg:08f9f-s5" kvg:type="㇕b" d="M23.11 60.48c5.03-.95 19.54-2.62 22.98-2.77 1.42-.06 1.95 2 1.76 3.41-.77 5.62-2.69 13.27-3.45 20.45"/><path id="kvg:08f9f-s6" kvg:type="㇐b" d="M25.78 84.2c4.16-.4 15.85-1.41 20.85-1.92"/></g></g><g id="kvg:08f9f-g5" kvg:element="辛" kvg:position="right" kvg:radical="tradit"><g id="kvg:08f9f-g6" kvg:element="立" kvg:position="top"><g id="kvg:08f9f-g7" kvg:element="亠" kvg:position="top"><path id="kvg:08f9f-s7" kvg:type="㇑a" d="M71.03 10c1.44 1.33 2.16 1.33 2.16 4.43s0 5.75.0 9.82"/><path id="kvg:08f9f-s8" kvg:type="㇐" d="M54.55 25.24c1.18.33 2.57.38 3.75.33 6.68-.29 23.16-2.11 33.26-2.35 1.97-.05 3.16.16 4.14.33"/></g><g id="kvg:08f9f-g8" kvg:position="bottom"><path id="kvg:08f9f-s9" kvg:type="㇔" d="M59.96 32.35c3.61 5.4 5.25 10.92 5.58 14.48"/><path id="kvg:08f9f-s10" kvg:type="㇒" d="M85.79 28.26c.72.61.81 2.04.72 2.55-.58 3.46-5.45 13.34-6.9 15.99"/><path id="kvg:08f9f-s11" kvg:type="㇐" d="M51.54 50.73c1.48.4 3.23.55 4.7.4 16.16-1.72 20.32-2.29 39.04-3.11 2.47-.11 3.96.19 5.19.39"/></g></g><g id="kvg:08f9f-g9" kvg:element="十" kvg:position="bottom"><path id="kvg:08f9f-s12" kvg:type="㇐" d="M55.38 68.32c1.11.4 3.16.5 4.27.4C73.8 67.43 78.88 66.98 92 66.15c1.85-.12 2.97.19 3.9.39"/><path id="kvg:08f9f-s13" kvg:type="㇑" d="M71.69 52.02c.62.49 1.93 3.69 2.05 4.67.71 5.65-.18 40.24-.21 41.69"/></g></g></g></g></svg>