<!DOCTYPE svg PUBLIC "-//W3C//DTD SVG 1.0//EN" "http://www.w3.org/TR/2001/REC-SVG-20010904/DTD/svg10.dtd" [
<!ATTLIST g
xmlns:kvg CDATA #FIXED "http://kanjivg.tagaini.net"
kvg:element CDATA #IMPLIED
kvg:variant CDATA #IMPLIED
kvg:partial CDATA #IMPLIED
kvg:original CDATA #IMPLIED
kvg:part CDATA #IMPLIED
kvg:number CDATA #IMPLIED
kvg:tradForm CDATA #IMPLIED
kvg:radicalForm CDATA #IMPLIED
kvg:position CDATA #IMPLIED
kvg:radical CDATA #IMPLIED
kvg:phon CDATA #IMPLIED >
<!ATTLIST path
xmlns:kvg CDATA #FIXED "http://kanjivg.tagaini.net"
kvg:type CDATA #IMPLIED >
]><svg xmlns="http://www.w3.org/2000/svg" width="109" height="109" viewBox="0 0 109 109"><g id="kvg:StrokePaths_08f9b" style="fill:none;stroke:#000000;stroke-width:3;stroke-linecap:round;stroke-linejoin:round;"><g id="kvg:08f9b" kvg:element="辛" kvg:radical="general"><g id="kvg:08f9b-g1" kvg:element="立" kvg:position="top"><g id="kvg:08f9b-g2" kvg:element="亠" kvg:position="top"><path id="kvg:08f9b-s1" kvg:type="㇑a" d="M52.81 12.5c1.28 1.28 1.87 3.25 1.87 5.35.0 3.05.0 3.65.0 7.65"/><path id="kvg:08f9b-s2" kvg:type="㇐" d="M29.25 28.45c2.19.62 5.12.5 7.4.27 8.67-.91 26.08-3.46 36.1-4.24 2.68-.21 5.33-.35 8 .1"/></g><g id="kvg:08f9b-g3" kvg:position="bottom"><path id="kvg:08f9b-s3" kvg:type="㇔" d="M38.25 33.25c2.91 4.85 4.24 9.81 4.5 13"/><path id="kvg:08f9b-s4" kvg:type="㇒" d="M68.26 28c.37 1 .12 1.75-.24 2.77-1.04 2.96-4.74 10.12-6.27 12.48"/><path id="kvg:08f9b-s5" kvg:type="㇐" d="M13.25 50.3c3.28.88 6.65.76 10 .32 17-2.25 44.14-4.57 61.63-5.64 3.5-.21 6.9-.21 10.38.35"/></g></g><g id="kvg:08f9b-g4" kvg:element="十" kvg:position="bottom"><path id="kvg:08f9b-s6" kvg:type="㇐" d="M24.64 69.2c2.96 1.05 7.34.67 10.36.19 13.8-2.19 28.14-3.34 40.5-4.25 3.41-.25 6.73-.14 10.11.58"/><path id="kvg:08f9b-s7" kvg:type="㇑" d="M53.14 49.38c.99.99 1.18 2.37 1.18 4.21.0 6.46.02 25.4.03 37.15.0 3.07.0 5.65.0 7.38"/></g></g></g><g id="kvg:StrokeNumbers_08f9b" style="font-size:8;fill:#808080"><text transform="matrix(1 0 0 1 44.25 13.63)">1</text><text transform="matrix(1 0 0 1 21.75 29.50)">2</text><text transform="matrix(1 0 0 1 32.25 39.05)">3</text><text transform="matrix(1 0 0 1 57.75 36.13)">4</text><text transform="matrix(1 0 0 1 5.50 51.50)">5</text><text transform="matrix(1 0 0 1 17.25 71.50)">6</text><text transform="matrix(1 0 0 1 45.75 58.63)">7</text></g></svg>