<svg xmlns="http://www.w3.org/2000/svg" width="109" height="109" viewBox="0 0 109 109"><g id="kvg:StrokePaths_08fbb"><g id="kvg:08fbb" kvg:element="辻"><g id="kvg:08fbb-g1" kvg:element="十" kvg:position="nyoc"><path id="kvg:08fbb-s1" kvg:type="㇐" d="M42.32 43.34c1.15.41 3.26.54 4.4.41C58 42.5 78.83 39.69 88.91 39.53c1.91-.03 3.06.2 4.02.4"/><path id="kvg:08fbb-s2" kvg:type="㇑" d="M65.78 13.88c.57.46 1.79 3.42 1.9 4.33.12.91-.07 55.21-.19 60.92"/></g><g id="kvg:08fbb-g2" kvg:element="辶" kvg:position="nyo" kvg:radical="general"><path id="kvg:08fbb-s3" kvg:type="㇔" d="M22.71 16.5c3.63 1.74 9.38 7.17 10.29 9.88"/><path id="kvg:08fbb-s4" kvg:type="㇔" d="M15.96 39c4.34.99 11.21 4.09 12.29 5.63"/><path id="kvg:08fbb-s5" kvg:type="㇋" d="M14.5 60.94c2.25.85 3.75.43 4.75.21 1-.21 8-2.99 9.5-3.42s3.75 1.07 2.75 2.35-4 6.19-4.75 7.26c-.75 1.07-.5 2.99 1 4.48s2.75 3.2 3.5 4.48C32 77.59 32 78.66 30.5 79.73c-1.5 1.07-9 7.04-10.5 7.47"/><path id="kvg:08fbb-s6" kvg:type="㇏" d="M15.75 88.07c2.96-.24 8.88-.85 13.33-.37 4.44.49 29.69 3.76 34.06 4.39C74.98 93.8 84.12 94.29 93 93.43"/></g></g></g></svg>