<svg xmlns="http://www.w3.org/2000/svg" width="109" height="109" viewBox="0 0 109 109"><g id="kvg:StrokePaths_08fb1" style="fill:none;stroke:#000000;stroke-width:3;stroke-linecap:round;stroke-linejoin:round;"><g id="kvg:08fb1" kvg:element="辱"><g id="kvg:08fb1-g1" kvg:element="辰" kvg:position="top" kvg:radical="general"><g id="kvg:08fb1-g2" kvg:element="厂"><path id="kvg:08fb1-s1" kvg:type="㇐" d="M27.12 15.77c2.76.83 5.34.56 8.15.19 12.15-1.62 30.97-3.37 39.12-3.99 2.66-.2 5.13-.22 7.76.25"/><path id="kvg:08fb1-s2" kvg:type="㇒" d="M28.59 16.53c.75.75.92 1.64.92 3.11.0 9.48-2.26 24.61-14.01 36.3"/></g><path id="kvg:08fb1-s3" kvg:type="㇐" d="M40.76 24.18c1.75.6 4.32.49 6.14.28 5.87-.69 15.01-1.79 20.5-2.44 1.79-.21 3.61-.4 5.31-.14"/><path id="kvg:08fb1-s4" kvg:type="㇐" d="M31.78 34.76c3.22.62 6.25.3 8.87.06 10.44-.96 30.92-3.06 40.11-3.7 2.84-.2 5.91-.46 8.72.11"/><path id="kvg:08fb1-s5" kvg:type="㇙" d="M38.73 36.54c.99.99 1.35 2.46 1.35 4.08.0 3.26-.08 14-.08 15.63s1.24 2.42 3.27 1.19c2.03-1.22 7.85-5.19 13.32-8.72"/><path id="kvg:08fb1-s6" kvg:type="㇒" d="M73.92 35.64c.1.61-.06 1.14-.48 1.6-1.17 1.92-2.67 3.57-5.41 6.04"/><path id="kvg:08fb1-s7" kvg:type="㇏" d="M53.71 38.89c4.09.49 17.48 10.84 25.66 15.91 3.13 1.94 5.25 3.07 9.13 4.45"/></g><g id="kvg:08fb1-g3" kvg:element="寸" kvg:position="bottom"><path id="kvg:08fb1-s8" kvg:type="㇐" d="M17.19 70.35c3.56.9 7.41.81 10.58.51 16.85-1.6 38.23-2.73 56.49-3.66 3.6-.18 7.61-.07 10.56.59"/><path id="kvg:08fb1-s9" kvg:type="㇚" d="M66.42 54.58c1.25 1.25 1.39 2.54 1.39 4.53.0 18.57.02 29.61.02 34.13.0 10.96-6.59 1.62-8.59.23"/><path id="kvg:08fb1-s10" kvg:type="㇔" d="M42.33 76.9c2.67 1.78 6.89 7.33 7.56 10.11"/></g></g></g></svg>