<svg xmlns="http://www.w3.org/2000/svg" width="109" height="109" viewBox="0 0 109 109"><g id="kvg:StrokePaths_08fc2" style="fill:none;stroke:#000000;stroke-width:3;stroke-linecap:round;stroke-linejoin:round;"><g id="kvg:08fc2" kvg:element="迂"><g id="kvg:08fc2-g1" kvg:element="于" kvg:position="nyoc"><g id="kvg:08fc2-g2" kvg:element="二"><g id="kvg:08fc2-g3" kvg:position="top"><path id="kvg:08fc2-s1" kvg:type="㇐" d="M44.66 21.57c1.21.32 3.42.41 4.62.32 9.22-.64 24.22-2.89 33.74-3.2 2.01-.07 3.22.15 4.22.31"/></g><g id="kvg:08fc2-g4" kvg:position="bottom"><path id="kvg:08fc2-s2" kvg:type="㇐" d="M39.77 44.87c1.34.47 3.81.59 5.15.47 9.93-.88 30.1-3.68 44.6-3.63 2.24.01 3.58.22 4.7.46"/></g></g><g id="kvg:08fc2-g5" kvg:element="亅"><path id="kvg:08fc2-s3" kvg:type="㇚" d="M64.75 22.03c.74.73 1.61 2.41 1.69 4.86.35 11.76-.22 46.98-.22 50.98.0 8.47-7.63.16-8.61-.6"/></g></g><g id="kvg:08fc2-g6" kvg:element="辶" kvg:position="nyo" kvg:radical="general"><path id="kvg:08fc2-s4" kvg:type="㇔" d="M21.71 14c3.63 1.74 9.38 7.17 10.29 9.88"/><path id="kvg:08fc2-s5" kvg:type="㇔" d="M14.96 34c4.34.99 11.21 4.09 12.29 5.63"/><path id="kvg:08fc2-s6" kvg:type="㇋" d="M13.5 55.94c2.25.85 3.75.43 4.75.21 1-.21 8-2.99 9.5-3.42s3.75 1.07 2.75 2.35-4 6.19-4.75 7.26-.5 2.99 1 4.48 2.75 3.2 3.5 4.48C31 72.59 31 73.66 29.5 74.73c-1.5 1.07-9 7.04-10.5 7.47"/><path id="kvg:08fc2-s7" kvg:type="㇏" d="M15.25 83c3-.5 9-1.75 13.5-.75s30.07 7.71 34.5 9c12 3.5 21.25 4.5 30.25 2.75"/></g></g></g></svg>