<svg xmlns="http://www.w3.org/2000/svg" width="109" height="109" viewBox="0 0 109 109"><g id="kvg:StrokePaths_08fe9" style="fill:none;stroke:#000000;stroke-width:3;stroke-linecap:round;stroke-linejoin:round;"><g id="kvg:08fe9" kvg:element="迩"><g id="kvg:08fe9-g1" kvg:element="尓" kvg:position="nyoc"><g id="kvg:08fe9-g2" kvg:position="top"><g id="kvg:08fe9-g3" kvg:element="丿"><path id="kvg:08fe9-s1" kvg:type="㇒" d="M53.4 12.14c.05.7.11 1.81-.1 2.81-1.25 5.92-8.42 18.92-18.24 26.87"/></g><path id="kvg:08fe9-s2" kvg:type="㇐" d="M52.43 27.34c2.07.16 3.43.55 4.81.46 8.3-.58 17.76-2.05 27.11-2.63 2.3-.14 3.7.17 4.85.35"/></g><g id="kvg:08fe9-g4" kvg:element="小" kvg:position="bottom"><path id="kvg:08fe9-s3" kvg:type="㇚" d="M66.7 30.21c.07.38 1 1.99 1.08 4.41.34 11.63.36 37.49.36 41.46.0 8.99-6.17 1.2-7.46.2"/><path id="kvg:08fe9-s4" kvg:type="㇒" d="M53.33 44.44c.03.6.15 1.56-.07 2.41-1.51 5.9-5.55 16.21-12.02 23.03"/><path id="kvg:08fe9-s5" kvg:type="㇔" d="M79.07 45.19c4.74 4.36 12.25 17.91 13.43 24.69"/></g></g><g id="kvg:08fe9-g5" kvg:element="⻌" kvg:original="辶" kvg:position="nyo" kvg:radical="general"><path id="kvg:08fe9-s6" kvg:type="㇔" d="M18.96 19c3.9 1.61 10.07 6.63 11.04 9.13"/><path id="kvg:08fe9-s7" kvg:type="㇋" d="M14 54.97c2.38.93 3.97.46 5.03.23 1.06-.23 8.46-3.25 10.05-3.71s3.97 1.16 2.91 2.55c-1.06 1.39-5.23 6.73-6.03 7.89-.79 1.16-.75 3.5 1.06 4.87 2.23 1.7 4.41 3.48 5.2 4.87s1.38 2.68-.29 3.71C28.5 77.5 21.75 81.75 15.82 85"/><path id="kvg:08fe9-s8" kvg:type="㇏a" d="M12.75 85.3c3-.41 9-1.45 13.5-.62s30.07 6.37 34.5 7.44C72.75 95.02 82 95.84 91 94.4"/></g></g></g></svg>