<svg xmlns="http://www.w3.org/2000/svg" width="109" height="109" viewBox="0 0 109 109"><g id="kvg:StrokePaths_08ff8"><g id="kvg:08ff8" kvg:element="迸"><g id="kvg:08ff8-g1" kvg:element="并" kvg:position="nyoc"><g id="kvg:08ff8-g2" kvg:position="top"><path id="kvg:08ff8-s1" kvg:type="㇔" d="M44.19 14.56c3.22 2.03 8.32 8.34 9.12 11.5"/><path id="kvg:08ff8-s2" kvg:type="㇒" d="M76.94 12.89c.03.37.06.96-.06 1.49-.7 3.14-4.69 10.04-10.15 14.27"/></g><g id="kvg:08ff8-g3" kvg:position="bottom"><g id="kvg:08ff8-g4" kvg:element="干" kvg:part="1"><path id="kvg:08ff8-s3" kvg:type="㇐" d="M41.53 33.77c.98.41 2.77.5 3.74.41 7.23-.65 28.36-3.25 37.65-3.25 1.63.0 2.6.2 3.42.4"/><g id="kvg:08ff8-g5" kvg:element="十" kvg:part="1"><path id="kvg:08ff8-s4" kvg:type="㇐" d="M38.25 52.24c1.33.48 3.77.58 5.1.48 14.38-1.1 29.13-2.52 44.75-3.08 2.21-.08 3.55.23 4.65.47"/></g></g><path id="kvg:08ff8-s5" kvg:type="㇒" d="M54.13 36.27c.39 1.16.94 2.07.94 3.51.0 13.21 1.02 30.96-12.39 39.05"/><g id="kvg:08ff8-g6" kvg:element="干" kvg:part="2"><g id="kvg:08ff8-g7" kvg:element="十" kvg:part="2"><path id="kvg:08ff8-s6" kvg:type="㇑" d="M71.75 34.56c.65.35 1.04 1.57 1.17 2.26.13.7.0 41.88-.13 46.24"/></g></g></g></g><g id="kvg:08ff8-g8" kvg:element="辶" kvg:position="nyo" kvg:radical="general"><path id="kvg:08ff8-s7" kvg:type="㇔" d="M18.96 16.5c3.9 1.57 10.07 6.45 11.04 8.88"/><path id="kvg:08ff8-s8" kvg:type="㇔" d="M15.21 34.75c4.25 1.39 10.98 5.72 12.04 7.88"/><path id="kvg:08ff8-s9" kvg:type="㇋" d="M12 56.85c2.25.81 3.75.41 4.75.2 1-.2 9-1.41 10.5-1.82 1.5-.41 3.75 1.01 2.75 2.23s-4 5.88-4.75 6.89c-.75 1.01-.5 2.84 1 4.25 1.5 1.42 2.75 3.54 3.5 4.76s.75 2.23-.75 3.24-9 6.19-10.5 6.59"/><path id="kvg:08ff8-s10" kvg:type="㇏" d="M12.25 85.52C17 84 23.72 83.96 28.21 84.85c4.48.89 27.98 6.38 32.39 7.53 11.96 3.12 21.18 4.02 30.15 2.45"/></g></g></g></svg>