<svg xmlns="http://www.w3.org/2000/svg" width="109" height="109" viewBox="0 0 109 109"><g id="kvg:StrokePaths_08ff7"><g id="kvg:08ff7" kvg:element="迷"><g id="kvg:08ff7-g1" kvg:element="米" kvg:variant="true" kvg:position="nyoc" kvg:phon="米"><path id="kvg:08ff7-s1" kvg:type="㇔" d="M44.32 24.39c3.24 2.4 8.12 9.18 8.93 12.91"/><path id="kvg:08ff7-s2" kvg:type="㇒" d="M85.76 21.47c.08.82.04 1.63-.35 2.35-1.66 3.06-4.79 7.33-8.84 11.48"/><path id="kvg:08ff7-s3" kvg:type="㇐" d="M40.35 47.23c2.15.39 4.7.36 6.9.03 10.19-1.5 27.19-3.32 36.64-4.23 2.47-.24 5.03-.35 7.47.27"/><path id="kvg:08ff7-s4" kvg:type="㇑" d="M64.77 11.96c.88.88 1.34 2.29 1.34 3.69.0 5.22-.08 55.47-.08 60.6.0 4.36-.06 7.48-.1 8.54"/><path id="kvg:08ff7-s5" kvg:type="㇒" d="M62.27 46.71c0 .91-.35 1.92-1.19 3.47-4.94 9.08-13.79 19.5-21.83 24.3"/><path id="kvg:08ff7-s6" kvg:type="㇔/㇏" d="M70.62 51.32c7.61 5.13 14.2 11.26 19.9 20.9"/></g><g id="kvg:08ff7-g2" kvg:element="⻌" kvg:original="辶" kvg:position="nyo" kvg:radical="general"><path id="kvg:08ff7-s7" kvg:type="㇔" d="M18.21 20.25c3.63 1.74 9.38 7.17 10.29 9.88"/><path id="kvg:08ff7-s8" kvg:type="㇋" d="M12.5 56.25c1.62.5 3.77.54 4.75.23 3.12-.98 7.79-3.53 10-4.49 2-.87 3.48.05 2.25 2.57-6.5 13.31-7.88 7.56-.25 17.01 1 1.24 1 2.82-.5 3.99s-6.88 5.56-10.25 7.93"/><path id="kvg:08ff7-s9" kvg:type="㇏a" d="M13.5 85.25c3-.5 9.17-.78 13.75-.25 7.5.88 30.07 6.96 34.5 8.25 12 3.5 18.38 3.88 26 4.25"/></g></g></g></svg>