<svg xmlns="http://www.w3.org/2000/svg" width="109" height="109" viewBox="0 0 109 109"><g id="kvg:StrokePaths_08ff4"><g id="kvg:08ff4" kvg:element="迴"><g id="kvg:08ff4-g1" kvg:element="回" kvg:position="nyoc"><g id="kvg:08ff4-g2" kvg:element="囗" kvg:part="1"><path id="kvg:08ff4-s1" kvg:type="㇑" d="M42.53 15.81c.92 1.45 1.24 2.98 1.24 4.82.0 12.62.08 34.65.08 58.87"/><path id="kvg:08ff4-s2" kvg:type="㇕a" d="M43.99 18.38C57 17 78.43 15.21 86.16 14.5c1.18-.11 2.61.71 2.61 3.3.0 13.19-.22 42.16-.22 60.29"/></g><g id="kvg:08ff4-g3" kvg:element="口"><path id="kvg:08ff4-s3" kvg:type="㇑" d="M56.33 32.75c.24.62.49 1.14.6 1.92.84 6.18 1.98 21.33 1.98 27.22"/><path id="kvg:08ff4-s4" kvg:type="㇕b" d="M57.33 34.02c5.92-1.27 12.17-2.2 15.21-2.54 1.99-.22 2.7 1.04 2.55 2.08-.65 4.29-1.83 18.89-2.8 24.82"/><path id="kvg:08ff4-s5" kvg:type="㇐b" d="M59.67 59.95c5.22-.47 9.56-1.15 15.16-1.04"/></g><g id="kvg:08ff4-g4" kvg:element="囗" kvg:part="2"><path id="kvg:08ff4-s6" kvg:type="㇐a" d="M44.18 76.71c8.71-.48 30.82-2.37 43.4-2.37"/></g></g><g id="kvg:08ff4-g5" kvg:element="辶" kvg:position="nyo" kvg:radical="general"><path id="kvg:08ff4-s7" kvg:type="㇔" d="M18.71 13.5c3.63 1.74 9.38 7.17 10.29 9.88"/><path id="kvg:08ff4-s8" kvg:type="㇔" d="M13.71 32.25c4.43 1.74 11.44 7.17 12.54 9.88"/><path id="kvg:08ff4-s9" kvg:type="㇋" d="M12.5 55.44c2.25.85 3.75.43 4.75.21 1-.21 7-2.49 8.5-2.92S29 53.8 28 55.08s-4 7.19-4.75 8.26-.5 2.99 1 4.48 2.25 2.2 3 3.48C28 72.59 28 73.66 26.5 74.73c-1.5 1.07-9 7.04-10.5 7.47"/><path id="kvg:08ff4-s10" kvg:type="㇏" d="M12.75 83.15c2.96-.5 8.77-1.32 13.33-1.26 7.17.1 29.69 7.77 34.06 9.07C71.98 94.5 81.12 95.51 90 93.74"/></g></g></g></svg>