<svg xmlns="http://www.w3.org/2000/svg" width="109" height="109" viewBox="0 0 109 109"><g id="kvg:StrokePaths_09019"><g id="kvg:09019" kvg:element="這"><g id="kvg:09019-g1" kvg:element="言" kvg:position="nyoc"><path id="kvg:09019-s1" kvg:type="㇔" d="M51.46 16.26c1.4.54 3.48.41 4.93.3 4.88-.4 12.73-1.4 16.87-1.84 1.78-.19 3.74-.43 5.51-.02"/><path id="kvg:09019-s2" kvg:type="㇐" d="M40.38 29.5c2.63.96 5.71.62 8.4.35 11.53-1.15 24.42-3.02 34.98-3.92 2.78-.24 5.37-.45 8.12.15"/><path id="kvg:09019-s3" kvg:type="㇐" d="M52.21 41.01c1.43.56 3.58.66 5.05.51 5.11-.52 13.21-1.89 16.98-2.36 1.42-.18 3.36-.54 4.77-.21"/><path id="kvg:09019-s4" kvg:type="㇐" d="M51.71 53.35c1.59.62 3.53.49 5.18.24 5.18-.79 12.52-1.7 16.75-2.1 1.91-.18 3.76-.65 5.7-.2"/><g id="kvg:09019-g2" kvg:element="口"><path id="kvg:09019-s5" kvg:type="㇑" d="M49.38 65.85c1.22.8 1.26 1.02 1.69 2.63.78 2.94 1.4 7.3 2.06 11.29.23 1.4.47 2.75.72 3.98"/><path id="kvg:09019-s6" kvg:type="㇕b" d="M51.77 66.93c9.23-1.43 18.87-2.59 26.37-3.48 2.85-.34 5.35-.39 4.36 3.17-.99 3.51-1.63 5.82-3.03 10.69"/><path id="kvg:09019-s7" kvg:type="㇐b" d="M54.55 80.73c4.8-.42 14-1.09 21.58-1.75 1.65-.14 3.22-.29 4.66-.43"/></g></g><g id="kvg:09019-g3" kvg:element="辶" kvg:position="nyo" kvg:radical="general"><path id="kvg:09019-s8" kvg:type="㇔" d="M22.21 15.5c3.63 1.74 9.38 7.17 10.29 9.88"/><path id="kvg:09019-s9" kvg:type="㇔" d="M15.46 38c4.34.99 11.21 4.09 12.29 5.63"/><path id="kvg:09019-s10" kvg:type="㇋" d="M14 59.94c2.25.85 3.75.43 4.75.21 1-.21 8.75-3.24 10.25-3.67 2.31-.66 3.12 1.01 2 2.6-7.04 9.93-7 6.54-.25 16.23.85 1.22.9 2.47-.5 3.67C27.88 81 23.12 84.25 19.5 86.2"/><path id="kvg:09019-s11" kvg:type="㇏" d="M15.25 87.07c2.96-.24 8.88-.85 13.33-.37 4.44.49 29.69 3.76 34.06 4.39 11.85 1.71 20.98 2.19 29.86 1.34"/></g></g></g></svg>