<svg xmlns="http://www.w3.org/2000/svg" width="109" height="109" viewBox="0 0 109 109"><g id="kvg:StrokePaths_09015" style="fill:none;stroke:#000000;stroke-width:3;stroke-linecap:round;stroke-linejoin:round;"><g id="kvg:09015" kvg:element="逕"><g id="kvg:09015-g1" kvg:element="巠" kvg:position="nyoc"><g id="kvg:09015-g2" kvg:element="一"><path id="kvg:09015-s1" kvg:type="㇐" d="M42 15.28c1.66.19 3.3.45 4.55.39 9.09-.42 24.43-2.59 37.33-2.58 2.08.0 3.33.19 4.37.38"/></g><g id="kvg:09015-g3" kvg:element="巛"><path id="kvg:09015-s2" kvg:type="㇛" d="M49.48 23.32c.27.93.36 1.57-.02 2.34-2.21 4.59-3.11 7.4-7.46 12.29-.84.94-.4.93.0 1.22 4.5 3.33 8.25 7.83 11.46 13.58"/><path id="kvg:09015-s3" kvg:type="㇛" d="M66.8 20.87c.45.83.4 2.46-.02 3.15-2.23 3.7-3.5 7.18-7.69 11.5-.46.47-.25.98.16 1.25 5 3.34 7.88 7.04 10.46 13.57"/><path id="kvg:09015-s4" kvg:type="㇛" d="M84.5 20.77c.31.66.26 1.92-.01 2.59C83.04 26.9 80.8 29.63 78.06 34c-.3.48-.18.94.11 1.2C82.57 39.2 85.25 44 87 48.34"/></g><g id="kvg:09015-g4" kvg:element="工"><path id="kvg:09015-s5" kvg:type="㇐" d="M45.31 59.26c.97.38 4.13.48 5.11.39 6.71-.64 24.81-2.27 32.47-2.66 1.49-.08 2.85.08 4.09.39"/><path id="kvg:09015-s6" kvg:type="㇑a" d="M63.86 58.81c1.65 1.48 1.65 2.36 1.65 3.54.0 8.27-.05.8-.05 14.98"/><path id="kvg:09015-s7" kvg:type="㇐" d="M39 78.61c.78.26 3.55.46 4.87.41 12.88-.52 31.75-1.79 44.66-2.18 2.12-.06 4.66.43 5.72.83"/></g></g><g id="kvg:09015-g5" kvg:element="辶" kvg:position="nyo" kvg:radical="general"><path id="kvg:09015-s8" kvg:type="㇔" d="M16.71 13.75c4.16 1.52 10.75 6.26 11.79 8.63"/><path id="kvg:09015-s9" kvg:type="㇔" d="M12.71 33.75c4.43 1.48 11.44 6.08 12.54 8.38"/><path id="kvg:09015-s10" kvg:type="㇋" d="M10.5 55.94c2.25.85 3.75.43 4.75.21 1-.21 8-2.99 9.5-3.42s3.75 1.07 2.75 2.35-4 7.19-4.75 8.26-.5 2.99 1 4.48 2.75 2.2 3.5 3.48C28 72.59 28 73.66 26.5 74.73 25 75.8 16.5 82.77 15 83.2"/><path id="kvg:09015-s11" kvg:type="㇏" d="M11.75 84.68c3.01-.51 9.03-1.8 13.54-.77s30.17 7.92 34.61 9.25c12.04 3.6 21.32 4.62 30.35 2.82"/></g></g></g></svg>