<svg xmlns="http://www.w3.org/2000/svg" width="109" height="109" viewBox="0 0 109 109"><g id="kvg:StrokePaths_09027" style="fill:none;stroke:#000000;stroke-width:3;stroke-linecap:round;stroke-linejoin:round;"><g id="kvg:09027" kvg:element="逧"><g id="kvg:09027-g1" kvg:element="谷" kvg:position="nyoc"><g id="kvg:09027-g2" kvg:position="top"><path id="kvg:09027-s1" kvg:type="㇒" d="M56.13 11.85c.04.43.22 1.15-.08 1.71-2.3 4.19-8.3 11.44-14.77 16.36"/><path id="kvg:09027-s2" kvg:type="㇔" d="M74.51 10.83c6.04 3.87 13.39 11.26 15.46 15.21"/></g><g id="kvg:09027-g3" kvg:position="bottom"><path id="kvg:09027-s3" kvg:type="㇒" d="M66.42 21.44c.07.81.35 2.17-.15 3.25-4.25 9.12-13.89 22.23-26.75 31.14"/><path id="kvg:09027-s4" kvg:type="㇏" d="M65.48 27.26c8.27 8.24 17.77 17.99 26.06 24.14 1.53 1.13 3.38 1.78 4.86 2.13"/><g id="kvg:09027-g4" kvg:element="口"><path id="kvg:09027-s5" kvg:type="㇑" d="M49.53 55.96c.36.43.72.8.88 1.34 1.24 4.3 3.23 15.67 4.07 23.4"/><path id="kvg:09027-s6" kvg:type="㇕b" d="M51.21 57.76c9.29-1.01 22.2-1.48 28.19-2.34 2.04-.29 3.29 1.97 2.98 3.25-1.49 6.15-2.1 10.16-3.47 17.71"/><path id="kvg:09027-s7" kvg:type="㇐b" d="M55.45 78.05c7.86-.59 14.62-.51 24.86-1.2"/></g></g></g><g id="kvg:09027-g5" kvg:element="辶" kvg:position="nyo" kvg:radical="general"><path id="kvg:09027-s8" kvg:type="㇔" d="M20.71 12.5c4.52 1.83 11.66 7.53 12.79 10.38"/><path id="kvg:09027-s9" kvg:type="㇔" d="M17.21 33c4.78 1.44 12.35 5.9 13.54 8.13"/><path id="kvg:09027-s10" kvg:type="㇋" d="M13.5 55.44c2.25.85 3.75.43 4.75.21 1-.21 8-2.99 9.5-3.42s3.75 1.07 2.75 2.35-4 6.19-4.75 7.26-.5 2.99 1 4.48 2.25 2.7 3 3.98.75 2.35-.75 3.42c-1.5 1.07-10.25 6.52-13 8.47"/><path id="kvg:09027-s11" kvg:type="㇏" d="M11.75 83.81c2.98-.57 12.22-1.46 16.75-.56 6.25 1.25 26.55 8.51 30.94 9.99 11.92 4 21.11 5.14 30.06 3.14"/></g></g></g></svg>