<!DOCTYPE svg PUBLIC "-//W3C//DTD SVG 1.0//EN" "http://www.w3.org/TR/2001/REC-SVG-20010904/DTD/svg10.dtd" [
<!ATTLIST g
xmlns:kvg CDATA #FIXED "http://kanjivg.tagaini.net"
kvg:element CDATA #IMPLIED
kvg:variant CDATA #IMPLIED
kvg:partial CDATA #IMPLIED
kvg:original CDATA #IMPLIED
kvg:part CDATA #IMPLIED
kvg:number CDATA #IMPLIED
kvg:tradForm CDATA #IMPLIED
kvg:radicalForm CDATA #IMPLIED
kvg:position CDATA #IMPLIED
kvg:radical CDATA #IMPLIED
kvg:phon CDATA #IMPLIED >
<!ATTLIST path
xmlns:kvg CDATA #FIXED "http://kanjivg.tagaini.net"
kvg:type CDATA #IMPLIED >
]><svg xmlns="http://www.w3.org/2000/svg" width="109" height="109" viewBox="0 0 109 109"><g id="kvg:StrokePaths_09022" style="fill:none;stroke:#000000;stroke-width:3;stroke-linecap:round;stroke-linejoin:round;"><g id="kvg:09022" kvg:element="逢"><g id="kvg:09022-g1" kvg:element="夆" kvg:position="nyoc"><g id="kvg:09022-g2" kvg:element="夂"><path id="kvg:09022-s1" kvg:type="㇒" d="M56.08 11.75c.1 1.2-.25 2.52-.82 3.61C52.5 20.62 47.75 27.38 40 33.92"/><path id="kvg:09022-s2" kvg:type="㇇" d="M55.04 18.98c1.71.19 2.86.16 4.59-.15 3.46-.63 9.35-2.19 12.17-2.88 2.39-.59 3.07 1.17 2.46 2.77-3.35 8.75-20.37 24.94-35.3 29.45"/><path id="kvg:09022-s3" kvg:type="㇏" d="M50.67 26.03C54.36 26 72.69 38.48 82.75 43.59c3.5 1.78 6.5 3.03 10.04 4.03"/></g><g id="kvg:09022-g3" kvg:element="丰"><g id="kvg:09022-g4" kvg:element="三"><g id="kvg:09022-g5" kvg:element="一" kvg:position="top"><path id="kvg:09022-s4" kvg:type="㇐" d="M49.17 51.93c1.6.73 4.26.43 5.96.24 6.67-.76 13.46-1.6 19.26-2.34 1.58-.2 3.35-.65 4.93-.21"/></g><g id="kvg:09022-g6" kvg:position="bottom"><g id="kvg:09022-g7" kvg:element="一"><path id="kvg:09022-s5" kvg:type="㇐" d="M48.26 62.88c1.54.71 4.13.45 5.77.26 6.99-.8 13.99-1.95 19.98-2.71 1.49-.19 3.15-.53 4.64-.12"/></g><g id="kvg:09022-g8" kvg:element="一"><path id="kvg:09022-s6" kvg:type="㇐" d="M42.74 74.8c2.5 1.15 5.32.47 7.88.06 8.76-1.39 19.28-2.68 28.02-3.59 2.31-.24 4.34-.29 6.6.33"/></g></g></g><g id="kvg:09022-g9" kvg:element="丨"><path id="kvg:09022-s7" kvg:type="㇑" d="M62.81 42.19c1.12 1.12 1.27 2.31 1.27 3.67.0 6.15.0 23.54.0 35.01.0 2.62.0 4.92.0 6.72"/></g></g></g><g id="kvg:09022-g10" kvg:element="辶" kvg:position="nyo" kvg:radical="general"><path id="kvg:09022-s8" kvg:type="㇔" d="M19.71 12.5c3.63 1.74 9.38 7.17 10.29 9.88"/><path id="kvg:09022-s9" kvg:type="㇔" d="M12.96 35c4.34.99 11.21 4.09 12.29 5.63"/><path id="kvg:09022-s10" kvg:type="㇋" d="M13.5 55.53c2.25.88 3.75.44 4.75.22s6.5-3.07 8-3.51 3.48.93 2.75 2.41c-7 14.22-7.88 7.35-.25 16.67.96 1.17.75 2.41-.75 3.51s-9 7.24-10.5 7.67"/><path id="kvg:09022-s11" kvg:type="㇏" d="M13.25 84.17c3.03-.58 8.98-1.47 13.63-.87 7.25.94 30.36 8.15 34.83 9.64 12.12 4.04 20.17 5.18 30.29 4.92"/></g></g></g><g id="kvg:StrokeNumbers_09022" style="font-size:8;fill:#808080"><text transform="matrix(1 0 0 1 49.50 13.50)">1</text><text transform="matrix(1 0 0 1 60.50 14.50)">2</text><text transform="matrix(1 0 0 1 57.50 27.50)">3</text><text transform="matrix(1 0 0 1 42.50 54.13)">4</text><text transform="matrix(1 0 0 1 40.50 64.63)">5</text><text transform="matrix(1 0 0 1 35.25 76.50)">6</text><text transform="matrix(1 0 0 1 56.50 47.50)">7</text><text transform="matrix(1 0 0 1 13.50 13.50)">8</text><text transform="matrix(1 0 0 1 6.50 36.50)">9</text><text transform="matrix(1 0 0 1 3.50 55.50)">10</text><text transform="matrix(1 0 0 1 3.50 85.50)">11</text></g></svg>