<svg xmlns="http://www.w3.org/2000/svg" width="109" height="109" viewBox="0 0 109 109"><g id="kvg:StrokePaths_09031"><g id="kvg:09031" kvg:element="週"><g id="kvg:09031-g1" kvg:element="周" kvg:position="nyoc" kvg:phon="周"><g id="kvg:09031-g2" kvg:element="冂" kvg:variant="true"><path id="kvg:09031-s1" kvg:type="㇒/㇑" d="M45.93 17.66c1.02 1.02 1.67 2.55 1.67 4.3.0 21.04 2.53 45.54-8.1 58.79"/><path id="kvg:09031-s2" kvg:type="㇆a" d="M48.49 18.95c9.79-1.25 32.29-4.39 33.41-4.45 4.34-.24 5.42 1.26 5.42 5.64.0 1.93.17 52.16.17 56.6.0 9.53-5.28 4.86-8.4 1.69"/></g><g id="kvg:09031-g3" kvg:element="吉"><g id="kvg:09031-g4" kvg:element="士"><path id="kvg:09031-s3" kvg:type="㇐" d="M55.43 31.42c.83.25 2.88.54 3.72.51 4.54-.18 13.51-1.92 16.84-2.23 1.39-.13 2.22-.07 2.91.03"/><path id="kvg:09031-s4" kvg:type="㇑a" d="M65.84 22.3c.99.99 1.51 2.32 1.51 3.39.0 3.19-.07 10.44-.07 16.81"/><path id="kvg:09031-s5" kvg:type="㇐" d="M53.61 44.53c1 .35 2.64.41 4.31.23C65 44 70.38 43.38 77.01 42.4c1.84-.27 3.25-.4 4.81-.26"/></g><g id="kvg:09031-g5" kvg:element="口"><path id="kvg:09031-s6" kvg:type="㇑" d="M56.17 53.75c1.08.75 1.6 2.01 1.71 2.97.5 4.53 1.05 6.63 1.48 10.27.17 1.46.3 2.58.34 2.94"/><path id="kvg:09031-s7" kvg:type="㇕b" d="M58.6 55.4c5.86-1.39 13.69-2.83 16.29-3.02 1.73-.13 2.48 1 2.28 2.58-.38 2.92-1.34 5.94-2.12 9.61"/><path id="kvg:09031-s8" kvg:type="㇐b" d="M60.65 67.64c2.32-.44 8.3-1.1 13.1-1.63 1.43-.16 2.69-.28 3.61-.34"/></g></g></g><g id="kvg:09031-g6" kvg:element="⻌" kvg:original="辶" kvg:position="nyo" kvg:radical="general"><path id="kvg:09031-s9" kvg:type="㇔" d="M20.71 19c3.1 1.41 8.02 5.8 8.79 8"/><path id="kvg:09031-s10" kvg:type="㇋" d="M13.25 54.95c2.25.92 4.29.84 5.25.48 2.5-.93 8.31-4.06 9.75-4.68 2.88-1.24 4.14.9 1.5 3.78-6.38 6.98-6 8.23-.75 14.1 1.83 2.04 2.03 3.44-1.5 6.12-5.25 4-7.5 5.75-10.75 8.5"/><path id="kvg:09031-s11" kvg:type="㇏a" d="M13.75 85.75c4.12-.88 10.41-.97 15-.5 7.25.75 29.97 5.13 34.5 6 13 2.5 21.25 4.5 30.25 2.75"/></g></g></g></svg>