<!DOCTYPE svg PUBLIC "-//W3C//DTD SVG 1.0//EN" "http://www.w3.org/TR/2001/REC-SVG-20010904/DTD/svg10.dtd" [
<!ATTLIST g
xmlns:kvg CDATA #FIXED "http://kanjivg.tagaini.net"
kvg:element CDATA #IMPLIED
kvg:variant CDATA #IMPLIED
kvg:partial CDATA #IMPLIED
kvg:original CDATA #IMPLIED
kvg:part CDATA #IMPLIED
kvg:number CDATA #IMPLIED
kvg:tradForm CDATA #IMPLIED
kvg:radicalForm CDATA #IMPLIED
kvg:position CDATA #IMPLIED
kvg:radical CDATA #IMPLIED
kvg:phon CDATA #IMPLIED >
<!ATTLIST path
xmlns:kvg CDATA #FIXED "http://kanjivg.tagaini.net"
kvg:type CDATA #IMPLIED >
]><svg xmlns="http://www.w3.org/2000/svg" width="109" height="109" viewBox="0 0 109 109"><g id="kvg:StrokePaths_09036" style="fill:none;stroke:#000000;stroke-width:3;stroke-linecap:round;stroke-linejoin:round;"><g id="kvg:09036" kvg:element="逶"><g id="kvg:09036-g1" kvg:element="委" kvg:position="nyoc"><g id="kvg:09036-g2" kvg:element="禾" kvg:position="top"><g id="kvg:09036-g3" kvg:element="丿" kvg:position="top"><path id="kvg:09036-s1" kvg:type="㇒" d="M78.38 10.5c.1.26.2.67-.19 1.04-2.32 2.19-15.61 6.99-33.8 9.93"/></g><g id="kvg:09036-g4" kvg:element="木" kvg:position="bottom"><path id="kvg:09036-s2" kvg:type="㇐" d="M38.26 30.82c.79.11 2.88.38 4.97.34 8.38-.16 30.17-1.91 46.1-3.22 2.08-.17 2.62.39 3.93.5"/><path id="kvg:09036-s3" kvg:type="㇑" d="M63.97 19.88c.66.26 1.06 1.19 1.19 1.72.13.53.0 24.18-.13 27.49"/><path id="kvg:09036-s4" kvg:type="㇒" d="M62.33 30.35c-5.19 7.33-14.74 15.82-24.78 19.48"/><path id="kvg:09036-s5" kvg:type="㇏" d="M65.55 30.22C71.75 35 81.75 42 88.6 44.83c1.6.66 2.67 1.39 4.1 1.67"/></g></g><g id="kvg:09036-g5" kvg:element="女" kvg:position="bottom"><path id="kvg:09036-s6" kvg:type="㇛" d="M60.23 51.51c.4.99.22 2.26-.2 3.45-2.36 6.61-3.25 6.78-8.23 13.68-1.08 1.5-1.01 2.45 1 2.51 11.69.3 25.87 5.01 33.84 12.23"/><path id="kvg:09036-s7" kvg:type="㇒" d="M76.35 55.7c.08.66.17 2.26-.17 3.21-2.89 8.1-10.79 19.58-29.17 24.35"/><path id="kvg:09036-s8" kvg:type="㇐" d="M36.2 59.22c.97.24 3.1.81 5.5.69 13.25-.68 31.92-2.86 50.56-2.93 1.62-.01 4.42.23 5.73.66"/></g></g><g id="kvg:09036-g6" kvg:element="辶" kvg:position="nyo" kvg:radical="general"><path id="kvg:09036-s9" kvg:type="㇔" d="M16.71 13.25c4.16 1.61 10.75 6.63 11.79 9.13"/><path id="kvg:09036-s10" kvg:type="㇔" d="M12.46 33.25c4.52 1.57 11.67 6.45 12.79 8.88"/><path id="kvg:09036-s11" kvg:type="㇋" d="M11 55.94c2.25.85 3.75.43 4.75.21 1-.21 8-2.99 9.5-3.42S29 53.8 28 55.08s-4.5 6.69-5.25 7.76-.5 2.99 1 4.48 3.25 3.2 4 4.48.75 2.35-.75 3.42c-1.5 1.07-9 6.54-10.5 6.97"/><path id="kvg:09036-s12" kvg:type="㇏" d="M11.25 84.61c3.04-.49 9.04-1.2 13.67-.73 6.08.62 26.82 6.37 34.94 8.73C73.25 96.5 79.5 97 90.5 96.28"/></g></g></g><g id="kvg:StrokeNumbers_09036" style="font-size:8;fill:#808080"><text transform="matrix(1 0 0 1 71.25 9.50)">1</text><text transform="matrix(1 0 0 1 36.50 27.05)">2</text><text transform="matrix(1 0 0 1 58.25 25.50)">3</text><text transform="matrix(1 0 0 1 48.25 39.50)">4</text><text transform="matrix(1 0 0 1 78.50 36.50)">5</text><text transform="matrix(1 0 0 1 53.50 50.50)">6</text><text transform="matrix(1 0 0 1 70.50 51.50)">7</text><text transform="matrix(1 0 0 1 34.50 56.50)">8</text><text transform="matrix(1 0 0 1 9.50 12.50)">9</text><text transform="matrix(1 0 0 1 2.50 33.50)">10</text><text transform="matrix(1 0 0 1 1.50 56.38)">11</text><text transform="matrix(1 0 0 1 1.50 85.50)">12</text></g></svg>