<svg xmlns="http://www.w3.org/2000/svg" width="109" height="109" viewBox="0 0 109 109"><g id="kvg:StrokePaths_09041"><g id="kvg:09041" kvg:element="遁"><g id="kvg:09041-g1" kvg:element="盾" kvg:position="nyoc"><g id="kvg:09041-g2" kvg:element="厂" kvg:position="kamae"><path id="kvg:09041-s1" kvg:type="㇒" d="M79.14 12.25c.08.29.3.83-.16 1.16-5.7 4.08-14.38 8.22-29.24 11.51"/><path id="kvg:09041-s2" kvg:type="㇒" d="M47.01 23.27c.3.8.73 2.58.73 4.39.0 16.51-.5 34.59-9.55 48.79"/></g><g id="kvg:09041-g3" kvg:element="十"><path id="kvg:09041-s3" kvg:type="㇐" d="M49.07 33.62c1.18.13 3.61.44 4.53.35 11.69-1.16 26.9-3.22 34.43-4.16 1.52-.19 2.45.17 3.22.35"/><path id="kvg:09041-s4" kvg:type="㇑" d="M68.8 22.97c.46.39 1.43 1.72 1.52 2.51.09.79-1.83 11.03-2.53 17.65"/></g><g id="kvg:09041-g4" kvg:element="目"><path id="kvg:09041-s5" kvg:type="㇑" d="M56.24 43.47c.44.84 1.08 1.96 1.08 3.08s-.29 36.24-.29 36.8"/><path id="kvg:09041-s6" kvg:type="㇕a" d="M57.68 45.5c2.48-.14 21.81-3.06 24.06-3.22 1.88-.14 3.2.67 3.2 3.14.0 1.33.07 35.26-.08 36.08"/><path id="kvg:09041-s7" kvg:type="㇐a" d="M58 56.12c5.98-.54 22.48-2.27 26.45-2.27"/><path id="kvg:09041-s8" kvg:type="㇐a" d="M57.81 67.38c7.17-.34 19.99-1.94 26.94-2.17"/><path id="kvg:09041-s9" kvg:type="㇐a" d="M57.39 80.01c5.79-.34 20.85-1.75 27.21-1.75"/></g></g><g id="kvg:09041-g5" kvg:element="辶" kvg:position="nyo" kvg:radical="general"><path id="kvg:09041-s10" kvg:type="㇔" d="M22.71 11.5c3.63 1.74 9.38 7.17 10.29 9.88"/><path id="kvg:09041-s11" kvg:type="㇔" d="M15.96 34c4.34.99 11.21 4.09 12.29 5.63"/><path id="kvg:09041-s12" kvg:type="㇋" d="M14.5 55.94c2.25.85 3.75.43 4.75.21 1-.21 8-2.99 9.5-3.42s3.75 1.07 2.75 2.35-4 6.19-4.75 7.26-.5 2.99 1 4.48 2.75 3.2 3.5 4.48C32 72.59 32 73.66 30.5 74.73c-1.5 1.07-9 7.04-10.5 7.47"/><path id="kvg:09041-s13" kvg:type="㇏" d="M15.25 83.39c3-.45 9-1.58 13.5-.68s30.07 6.97 34.5 8.13c12 3.16 21.25 4.07 30.25 2.48"/></g></g></g></svg>