<svg xmlns="http://www.w3.org/2000/svg" width="109" height="109" viewBox="0 0 109 109"><g id="kvg:StrokePaths_09065"><g id="kvg:09065" kvg:element="遥"><g id="kvg:09065-g1" kvg:position="nyoc"><g id="kvg:09065-g2" kvg:element="⺤" kvg:variant="true" kvg:original="爪" kvg:position="top"><path id="kvg:09065-s1" kvg:type="㇒" d="M79.39 13.14c-.33 1.37-1.47 2.24-2.58 2.94-4.4 2.78-14.93 7-28.5 9.77"/><path id="kvg:09065-s2" kvg:type="㇔" d="M47.5 33c2.08 1.71 5.36 7.02 5.88 9.67"/><path id="kvg:09065-s3" kvg:type="㇔" d="M61.68 28.47c2.02 1.58 5.23 6.51 5.73 8.98"/><path id="kvg:09065-s4" kvg:type="㇒" d="M86.45 24.79c.08.77-.03 1.51-.34 2.21-1.61 3.13-4.92 7.52-9.98 12.26"/></g><g id="kvg:09065-g3" kvg:element="缶" kvg:variant="true" kvg:position="bottom"><path id="kvg:09065-s5" kvg:type="㇐" d="M45.2 49.59c2.02.75 5.27.7 7.32.41 9.11-1.26 19.72-2.59 27.37-3.54 1.89-.23 4.09-.55 5.98-.13"/><path id="kvg:09065-s6" kvg:type="㇐" d="M40.07 62.33c2.51.77 5.65.32 8.2.02 11.35-1.31 23.85-2.22 38.11-3.46 2.71-.24 5.62-.29 8.3.21"/><g id="kvg:09065-g4" kvg:element="山"><path id="kvg:09065-s7" kvg:type="㇑a" d="M65.3 50.58c.87.87 1.08 1.77 1.08 3.55.0 3.97.18 21.38.08 24.73"/><path id="kvg:09065-s8" kvg:type="㇄a" d="M48.7 69.84c.67.67.92 1.53.75 2.45-.56 2.92-1.26 4.65-2.1 8.14-.47 1.97.27 2.38 2.04 2.03 7.81-1.52 21.48-3.34 34.83-4.01"/><path id="kvg:09065-s9" kvg:type="㇑" d="M84.98 65.78c.75.75.77 1.6.75 2.8-.05 3.65-.63 11.95-.63 13.56"/></g></g></g><g id="kvg:09065-g5" kvg:element="⻌" kvg:original="辶" kvg:position="nyo" kvg:radical="general"><path id="kvg:09065-s10" kvg:type="㇔" d="M18.25 26.12c3.35 1.68 8.66 6.9 9.5 9.51"/><path id="kvg:09065-s11" kvg:type="㇋" d="M14.25 56.25c2.25 1 3.75.5 4.75.25s7.5-2.25 9-2.75c2.7-.9 4.12.25 2.75 2.75-7.25 13.25-8.5 8.75.5 16.75 1.25 1.11 1.45 2.44.0 3.75C27.5 80.38 22 85.75 18.5 88.75"/><path id="kvg:09065-s12" kvg:type="㇏a" d="M13.5 89.73c3.75-.98 8.8-.53 13.24-.4 6.01.17 25.26 3.05 33.84 4.59 11.73 2.1 20.84 2.42 29.67 1.48"/></g></g></g></svg>