<svg xmlns="http://www.w3.org/2000/svg" width="109" height="109" viewBox="0 0 109 109"><g id="kvg:StrokePaths_0906d" style="fill:none;stroke:#000000;stroke-width:3;stroke-linecap:round;stroke-linejoin:round;"><g id="kvg:0906d" kvg:element="遭"><g id="kvg:0906d-g1" kvg:element="曹" kvg:position="nyoc" kvg:phon="曹"><g id="kvg:0906d-g2" kvg:position="top"><path id="kvg:0906d-s1" kvg:type="㇐" d="M40.71 20.36c2.16.51 4.39.58 6.41.39 9.19-.86 24.29-2.59 35.25-3.14 2.32-.12 4.64-.33 6.91.25"/><g id="kvg:0906d-g3" kvg:element="曲"><g id="kvg:0906d-g4" kvg:element="日" kvg:part="1"><path id="kvg:0906d-s2" kvg:type="㇑" d="M41.61 30.89c.81.81 1.27 1.36 1.54 2.79.56 2.93 1.5 8.54 2.59 14.02.27 1.39.52 2.66.71 3.7"/><path id="kvg:0906d-s3" kvg:type="㇕a" d="M43.33 31.85c5.83-.89 33.83-3.67 40.92-3.98 2.88-.12 5 .88 4.33 4.3-.94 4.76-2.12 8.21-3.43 12.7-.65 2.24-1.2 3.9-1.41 4.23"/></g><g id="kvg:0906d-g5" kvg:element="廾" kvg:variant="true"><g id="kvg:0906d-g6" kvg:element="丿" kvg:variant="true"><g id="kvg:0906d-g7" kvg:element="十" kvg:part="1"><path id="kvg:0906d-s4" kvg:type="㇑a" d="M55.71 12.28c.94.94 1.18 1.85 1.29 3.6 1 17 1.5 26.25 1.76 32.86"/></g></g><path id="kvg:0906d-s5" kvg:type="㇑a" d="M71.54 10c.79.79 1.25 2.13 1.18 3.38-.8 15.9-1.1 22.25-1.8 34.53"/><g id="kvg:0906d-g8" kvg:element="日" kvg:part="2"><g id="kvg:0906d-g9" kvg:element="十" kvg:part="2"><path id="kvg:0906d-s6" kvg:type="㇐a" d="M45.59 40.97c7.79-.72 34.66-3.22 40.68-3.46"/></g></g><path id="kvg:0906d-s7" kvg:type="㇐a" d="M47.21 50.26c9.17-.88 29.49-2.54 35.85-2.83"/></g></g></g><g id="kvg:0906d-g10" kvg:element="日" kvg:position="bottom"><path id="kvg:0906d-s8" kvg:type="㇑" d="M48.9 58.66c.66.66 1.14 1.46 1.36 2.46 1.11 5.13 1.45 9.14 2.49 16.76.24 1.79.69 4.16.82 5.76"/><path id="kvg:0906d-s9" kvg:type="㇕a" d="M50.8 59.68c7.25-.59 19.55-1.87 26.2-2.53 3.47-.34 5.23-.02 4.82 3.74-.42 3.84-1.23 10.42-1.98 16.09-.27 2.01-.53 3.91-.76 5.53"/><path id="kvg:0906d-s10" kvg:type="㇐a" d="M52.96 70.15c2.6-.28 24.66-1.88 26.81-1.93"/><path id="kvg:0906d-s11" kvg:type="㇐a" d="M54.56 81.56C63 81 70.15 80.42 78.08 80.09"/></g></g><g id="kvg:0906d-g11" kvg:element="⻌" kvg:original="辶" kvg:position="nyo" kvg:radical="general"><path id="kvg:0906d-s12" kvg:type="㇔" d="M20 18.62c3.97 1.9 10.26 7.81 11.25 10.76"/><path id="kvg:0906d-s13" kvg:type="㇋" d="M13 50.75c2.25 1 3.75.5 4.75.25s9.29-3.4 10.75-4c2.12-.88 3.62.62 2.5 2.75-8.06 15.22-7.5 9.25.0 19 1.02 1.33 1 2.75-.5 4s-7.88 6.75-11 9.25"/><path id="kvg:0906d-s14" kvg:type="㇏a" d="M15.25 83.5c4-1 8.92-1.24 13.5-.75 7 .75 30.07 7.21 34.5 8.5 11.57 3.38 17.25 3.88 26 4.25"/></g></g></g></svg>