<svg xmlns="http://www.w3.org/2000/svg" width="109" height="109" viewBox="0 0 109 109"><g id="kvg:StrokePaths_09063" style="fill:none;stroke:#000000;stroke-width:3;stroke-linecap:round;stroke-linejoin:round;"><g id="kvg:09063" kvg:element="遣"><g id="kvg:09063-g1" kvg:position="nyoc" kvg:phon="中+2+3+11+2+11+2"><g id="kvg:09063-g2" kvg:element="中"><g id="kvg:09063-g3" kvg:element="口"><path id="kvg:09063-s1" kvg:type="㇑" d="M48.38 18.92c.29.15.87 1.09.96 1.46.51 2.04 1.09 4.32 1.76 7.55.2.98.41 2.04.62 3.21"/><path id="kvg:09063-s2" kvg:type="㇕b" d="M50.26 20.27c7.75-1.16 22.2-3.62 28.73-4.19 2.97-.26 4.92.37 3.98 3.69-.69 2.49-1.17 3.93-1.83 6.12"/><path id="kvg:09063-s3" kvg:type="㇐b" d="M52.86 29.53c8.51-.78 16.39-1.78 26.4-2.63 1.01-.09 1.96.0 2.84-.1"/></g><g id="kvg:09063-g4" kvg:element="丨"><path id="kvg:09063-s4" kvg:type="㇑a" d="M65.06 8.5c.84.84 1.18 2.12 1.18 3.68.0 3.82-.12 17.44-.12 24.19"/></g></g><path id="kvg:09063-s5" kvg:type="㇐" d="M38.75 39.75c3.38.75 6.2.45 8.75.08 12.21-1.78 30.88-3.87 39.77-4.64 2.36-.2 4.95-.2 7.23.45"/><path id="kvg:09063-s6" kvg:type="㇑" d="M51.46 47.74c.71.71.94 1.68.94 2.82.0.46.09 20.41.04 29.45-.01 1.98-.03 3.44-.05 4.05"/><path id="kvg:09063-s7" kvg:type="㇕b" d="M53.52 49.99c6.19-1.04 17.48-3.07 22.89-3.93 2.63-.41 4.65-.46 3.68 2.75-.7 2.31-1.09 3.31-2.46 7.12"/><path id="kvg:09063-s8" kvg:type="㇐b" d="M53.5 60.38c9.53-1.2 17.96-2.27 23.48-3.04 1.28-.18 2.27-.2 3.5-.2"/><path id="kvg:09063-s9" kvg:type="㇕b" d="M53.73 70.24c8.17-1.01 15.27-2.11 24.64-3.25 3.23-.39 4.38.83 3.23 4.13-.73 2.07-1.12 3.91-2.27 7.34"/><path id="kvg:09063-s10" kvg:type="㇐b" d="M53.49 82.14C57.71 81.6 69 80.23 77.25 79.5c1.39-.12 2.69-.23 3.85-.31"/></g><g id="kvg:09063-g5" kvg:element="⻌" kvg:original="辶" kvg:position="nyo" kvg:radical="general"><path id="kvg:09063-s11" kvg:type="㇔" d="M18.71 19C22.69 20.48 29 25.08 30 27.38"/><path id="kvg:09063-s12" kvg:type="㇋" d="M14.5 55.76c2 .49 3.8.37 4.75-.01 3.38-1.37 7.62-3.37 10-4.5 1.42-.68 2.75.78 2 2.34C24 68.75 23.38 64.12 32.12 70.88c1.62 1.25 2 2.75-.12 4.13-1.6 1.04-9.62 6.12-12.5 7.74"/><path id="kvg:09063-s13" kvg:type="㇏a" d="M15.25 84.25c3.75-1.12 8.93-1.19 13.54-.42 9.96 1.67 25.59 6.76 34.61 9.52 14.35 4.39 17.35 4.89 26.35 5.14"/></g></g></g></svg>