<!DOCTYPE svg PUBLIC "-//W3C//DTD SVG 1.0//EN" "http://www.w3.org/TR/2001/REC-SVG-20010904/DTD/svg10.dtd" [
<!ATTLIST g
xmlns:kvg CDATA #FIXED "http://kanjivg.tagaini.net"
kvg:element CDATA #IMPLIED
kvg:variant CDATA #IMPLIED
kvg:partial CDATA #IMPLIED
kvg:original CDATA #IMPLIED
kvg:part CDATA #IMPLIED
kvg:number CDATA #IMPLIED
kvg:tradForm CDATA #IMPLIED
kvg:radicalForm CDATA #IMPLIED
kvg:position CDATA #IMPLIED
kvg:radical CDATA #IMPLIED
kvg:phon CDATA #IMPLIED >
<!ATTLIST path
xmlns:kvg CDATA #FIXED "http://kanjivg.tagaini.net"
kvg:type CDATA #IMPLIED >
]><svg xmlns="http://www.w3.org/2000/svg" width="109" height="109" viewBox="0 0 109 109"><g id="kvg:StrokePaths_09061" style="fill:none;stroke:#000000;stroke-width:3;stroke-linecap:round;stroke-linejoin:round;"><g id="kvg:09061" kvg:element="遡"><g id="kvg:09061-g1" kvg:element="朔" kvg:position="nyoc"><g id="kvg:09061-g2" kvg:element="屰" kvg:position="left"><path id="kvg:09061-s1" kvg:type="㇔" d="M37.85 15.26c2.79 2.21 7.21 9.08 7.91 12.52"/><path id="kvg:09061-s2" kvg:type="㇒" d="M60.11 12.64c.02.38.04.98-.04 1.53-.5 3.22-3.37 10.29-7.3 14.62"/><path id="kvg:09061-s3" kvg:type="㇐" d="M34.25 32.89c.65.21 1.85.23 2.5.21 5.32-.15 22.46-3 26.49-2.75 1.08.07 1.74.1 2.28.21"/><g id="kvg:09061-g3" kvg:element="屮"><g id="kvg:09061-g4" kvg:element="凵"><path id="kvg:09061-s4" kvg:type="㇗a" d="M38.91 43.15c.55.39 1.16 2.04 1.09 2.82-.42 4.66-2.1 7.07-2.22 11.53-.05 1.79-.27 2.68 1.08 2.39 5.55-1.2 13.64-2.65 23.13-2.78"/><path id="kvg:09061-s5" kvg:type="㇑" d="M62.62 39.96c.55.39 1.13 2.9 1.09 3.69-.23 5.53-1.21 9.6-2.4 15.88"/></g><g id="kvg:09061-g5" kvg:element="丿"><path id="kvg:09061-s6" kvg:type="㇒" d="M50.14 34.02c.34 1.23.83 2.2.83 3.73.0 14.04.73 30.33-10.22 41.5"/></g></g></g><g id="kvg:09061-g6" kvg:element="月" kvg:position="right"><path id="kvg:09061-s7" kvg:type="㇓" d="M70.68 16.58c.7.84 1.16 1.67 1.39 2.51.23.84.23 20.87.23 22.75.0 15.43-3.48 30.74-10.45 38.08"/><path id="kvg:09061-s8" kvg:type="㇆a" d="M72.22 18.53C78 17 86.3 15.65 87.91 15.42c2.89-.4 3.97 2.61 3.61 3.81-.35 1.16-.54 40-.54 56.24.0 12.13-4.75 5.04-6.56 3.24"/><path id="kvg:09061-s9" kvg:type="㇐a" d="M74 35.98c4.34-.43 11.38-1.52 16.62-2.17"/><path id="kvg:09061-s10" kvg:type="㇐a" d="M72.18 53.83c5.78-.65 11.9-1.3 18.58-1.74"/></g></g><g id="kvg:09061-g7" kvg:element="辶" kvg:position="nyo" kvg:radical="general"><path id="kvg:09061-s11" kvg:type="㇔" d="M16.21 13.5c3.63 1.74 9.38 7.17 10.29 9.88"/><path id="kvg:09061-s12" kvg:type="㇔" d="M10.96 30.5c4.34.99 11.21 4.09 12.29 5.63"/><path id="kvg:09061-s13" kvg:type="㇋" d="M9.5 52.44c2.25.85 3.75.43 4.75.21 1-.21 8-2.99 9.5-3.42s3.75 1.07 2.75 2.35-4 6.19-4.75 7.26-.5 2.99 1 4.48 2.75 3.2 3.5 4.48C27 69.09 27 70.16 25.5 71.23c-1.5 1.07-9 7.04-10.5 7.47"/><path id="kvg:09061-s14" kvg:type="㇏" d="M11.75 79.63c3.18-.56 9.55-1.95 14.32-.84 4.77 1.12 31.9 8.6 36.59 10.04 12.73 3.9 22.54 5.02 32.09 3.07"/></g></g></g><g id="kvg:StrokeNumbers_09061" style="font-size:8;fill:#808080"><text transform="matrix(1 0 0 1 31.75 15.50)">1</text><text transform="matrix(1 0 0 1 51.50 11.50)">2</text><text transform="matrix(1 0 0 1 32.50 29.50)">3</text><text transform="matrix(1 0 0 1 31.50 42.50)">4</text><text transform="matrix(1 0 0 1 55.50 40.50)">5</text><text transform="matrix(1 0 0 1 43.50 41.50)">6</text><text transform="matrix(1 0 0 1 64.50 25.18)">7</text><text transform="matrix(1 0 0 1 73.50 15.50)">8</text><text transform="matrix(1 0 0 1 76.75 32.50)">9</text><text transform="matrix(1 0 0 1 75.50 50.50)">10</text><text transform="matrix(1 0 0 1 7.50 13.50)">11</text><text transform="matrix(1 0 0 1 1.50 30.50)">12</text><text transform="matrix(1 0 0 1 0.50 54.50)">13</text><text transform="matrix(1 0 0 1 0.50 80.50)">14</text></g></svg>