<svg xmlns="http://www.w3.org/2000/svg" width="109" height="109" viewBox="0 0 109 109"><g id="kvg:StrokePaths_09069" style="fill:none;stroke:#000000;stroke-width:3;stroke-linecap:round;stroke-linejoin:round;"><g id="kvg:09069" kvg:element="適"><g id="kvg:09069-g1" kvg:element="啇" kvg:position="nyoc" kvg:phon="啇"><g id="kvg:09069-g2" kvg:element="亠"><path id="kvg:09069-s1" kvg:type="㇑a" d="M63.66 10.25c1.11 1.11 1.65 2.5 1.65 4.25.0 1.12.0 4 0 6.25"/><path id="kvg:09069-s2" kvg:type="㇐" d="M43.5 23.95c2.31.59 4.8.16 7.14-.15 9.99-1.31 22.19-2.85 32-3.94 2.3-.26 4.58-.13 6.87.22"/></g><path id="kvg:09069-s3" kvg:type="㇔" d="M53.17 26.75c2.85 3.92 4.15 7.92 4.41 10.5"/><path id="kvg:09069-s4" kvg:type="㇒" d="M76.56 23.5c.31 1 .19 1.88-.15 2.69-.9 2.16-3.66 7.56-5.09 10.06"/><g id="kvg:09069-g3" kvg:element="冂"><path id="kvg:09069-s5" kvg:type="㇑" d="M44.68 40.73c.79.79 1.34 1.99 1.34 3.38.0 2.67-.07 20.11-.09 30.76-.01 2.38-.01 4.42-.01 5.88"/><path id="kvg:09069-s6" kvg:type="㇆a" d="M46.77 42.02c7.86-1.4 36.61-5.11 37.72-5.32 2.36-.46 3.83.43 3.83 2.84.0 2.96-.19 38.09-.19 41.62.0 7.59-4.76.92-6.53-1.08"/></g><g id="kvg:09069-g4" kvg:element="古"><g id="kvg:09069-g5" kvg:element="十" kvg:position="top"><path id="kvg:09069-s7" kvg:type="㇐" d="M52.81 52.06c1.1.34 3.06.23 4.21.07 4.68-.66 13.84-2.48 19.23-2.95 1.21-.11 2.69-.34 3.89-.11"/><path id="kvg:09069-s8" kvg:type="㇑a" d="M64.41 42c.67.67 1.18 1.88 1.18 3.38.0 6.62.04 8.93.04 14.74"/></g><g id="kvg:09069-g6" kvg:element="口" kvg:position="bottom"><path id="kvg:09069-s9" kvg:type="㇑" d="M55.13 61.04c.54.54.87 1.21 1.17 2.2.5 1.64 1.31 5.62 2 9.2.19.98.35 1.93.48 2.81"/><path id="kvg:09069-s10" kvg:type="㇕b" d="M57.23 62.17c5.34-.85 11.42-1.77 16.16-2.44 2.15-.3 3.33.43 2.78 2.68-.61 2.51-1.89 6.06-2.51 8.9"/><path id="kvg:09069-s11" kvg:type="㇐b" d="M59.72 73.4c4.15-.53 7.68-.78 12.03-1.4 1.26-.18 2.45-.31 3.49-.37"/></g></g></g><g id="kvg:09069-g7" kvg:element="⻌" kvg:original="辶" kvg:position="nyo" kvg:radical="general"><path id="kvg:09069-s12" kvg:type="㇔" d="M18.25 17.62c4.5 2.08 11.62 8.53 12.75 11.76"/><path id="kvg:09069-s13" kvg:type="㇋" d="M11.25 50.75c2.25 1 3.75.5 4.75.25s10.75-3.75 12.25-4.25 2.95 1.47 2 3c-9.12 14.75-8 8.88.0 19 1.04 1.32 1.25 3-.25 4.25S18 83 16.5 83.5"/><path id="kvg:09069-s14" kvg:type="㇏a" d="M14 84.25c3-.5 9.67-.99 14.25-.5 5.88.62 30.07 7.21 34.5 8.5 12 3.5 19.25 4.38 28 4.5"/></g></g></g></svg>