<!DOCTYPE svg PUBLIC "-//W3C//DTD SVG 1.0//EN" "http://www.w3.org/TR/2001/REC-SVG-20010904/DTD/svg10.dtd" [
<!ATTLIST g
xmlns:kvg CDATA #FIXED "http://kanjivg.tagaini.net"
kvg:element CDATA #IMPLIED
kvg:variant CDATA #IMPLIED
kvg:partial CDATA #IMPLIED
kvg:original CDATA #IMPLIED
kvg:part CDATA #IMPLIED
kvg:number CDATA #IMPLIED
kvg:tradForm CDATA #IMPLIED
kvg:radicalForm CDATA #IMPLIED
kvg:position CDATA #IMPLIED
kvg:radical CDATA #IMPLIED
kvg:phon CDATA #IMPLIED >
<!ATTLIST path
xmlns:kvg CDATA #FIXED "http://kanjivg.tagaini.net"
kvg:type CDATA #IMPLIED >
]><svg xmlns="http://www.w3.org/2000/svg" width="109" height="109" viewBox="0 0 109 109"><g id="kvg:StrokePaths_09075" style="fill:none;stroke:#000000;stroke-width:3;stroke-linecap:round;stroke-linejoin:round;"><g id="kvg:09075" kvg:element="遵"><g id="kvg:09075-g1" kvg:element="尊" kvg:position="nyoc" kvg:phon="尊"><g id="kvg:09075-g2" kvg:element="酋" kvg:position="top"><g id="kvg:09075-g3" kvg:element="八" kvg:variant="true" kvg:position="top"><g id="kvg:09075-g4" kvg:position="left"><path id="kvg:09075-s1" kvg:type="㇔" d="M47.9 12.08c2.69 1.35 6.96 5.57 7.63 7.67"/></g><g id="kvg:09075-g5" kvg:position="right"><path id="kvg:09075-s2" kvg:type="㇒" d="M74.17 9.4c.02.33.03.84-.03 1.31-.39 2.77-2.61 8.84-5.65 12.56"/></g></g><g id="kvg:09075-g6" kvg:element="酉" kvg:position="bottom"><g id="kvg:09075-g7" kvg:element="西" kvg:part="1" kvg:original="襾"><path id="kvg:09075-s3" kvg:type="㇐" d="M38.78 25.3c1.73.88 4.89.81 6.72.68 9.33-.65 29.07-2.29 38.76-2.72 2.19-.1 4.53-.35 6.66.3"/><path id="kvg:09075-s4" kvg:type="㇑" d="M47.01 35.48c.94.94 1.16 2.15 1.16 3.44.0.59.01 11.13.02 17.33.0 2.48.01 4.23.01 4.3"/><path id="kvg:09075-s5" kvg:type="㇕a" d="M48.72 37.01c2.42-.09 23.62-2.66 29.78-3.25 2.86-.27 4.43.33 4.39 3.37-.04 2.79.03 9.75.03 16.12.0 1.95-.03 3.63-.03 4.76"/><path id="kvg:09075-s6" kvg:type="㇒" d="M57.4 27.94c.58.58.72 1.69.72 2.53.0 5.53-.37 11.53-5.17 16.61"/><path id="kvg:09075-s7" kvg:type="㇟a" d="M66.97 27c.66.66 1.03 1.75 1.03 2.63.0 3.28.05 6.55.01 10-.03 3 1.19 3.62 5.2 3.62 2.55.0 4.33-.62 4.61-.96"/></g><g id="kvg:09075-g8" kvg:element="一"><path id="kvg:09075-s8" kvg:type="㇐a" d="M49.39 51.45c5.24-.32 28.61-2.18 32.47-2.18"/></g><g id="kvg:09075-g9" kvg:element="西" kvg:part="2" kvg:original="襾"><path id="kvg:09075-s9" kvg:type="㇐a" d="M48.94 59.07c8.69-.57 24.15-2.33 32.82-2.56"/></g></g></g><g id="kvg:09075-g10" kvg:element="寸" kvg:position="bottom"><path id="kvg:09075-s10" kvg:type="㇐" d="M37.93 69.92c2 .88 5.68.39 7.81.22 12.83-1 29.57-2.27 42.01-3.25 2.24-.18 4.75-.27 6.82.25"/><path id="kvg:09075-s11" kvg:type="㇚" d="M74.63 61.48c.76.76 1.2 2.15 1.2 3.96.0 7.58-.04 15.59-.04 19.15.0 8.64-5.21 1.78-6.44.68"/><path id="kvg:09075-s12" kvg:type="㇔" d="M53.88 75c2.24 1.07 5.78 4.41 6.34 6.08"/></g></g><g id="kvg:09075-g11" kvg:element="⻌" kvg:original="辶" kvg:position="nyo" kvg:radical="general"><path id="kvg:09075-s13" kvg:type="㇔" d="M16.88 21.88c4.01 1.59 10.37 6.54 11.38 9.01"/><path id="kvg:09075-s14" kvg:type="㇋" d="M13.5 54.58c1.75.67 4 .48 5 .24 1-.24 9.51-2.55 11-3.08 2.12-.75 3.94.83 2.5 2.88C21.62 69.38 21 64 30.25 72.55c1.19 1.1 1.25 2.38-.25 3.58s-7.25 5.37-11.25 8.12"/><path id="kvg:09075-s15" kvg:type="㇏a" d="M13 85.58c3.25-.83 9.39-1 14.01-.38 6.12.81 30.65 7.02 35.16 8.11C74.4 96.26 79.88 96.75 89 97.13"/></g></g></g><g id="kvg:StrokeNumbers_09075" style="font-size:8;fill:#808080"><text transform="matrix(1 0 0 1 40.50 12.50)">1</text><text transform="matrix(1 0 0 1 66.50 9.13)">2</text><text transform="matrix(1 0 0 1 36.50 22.63)">3</text><text transform="matrix(1 0 0 1 40.50 42.05)">4</text><text transform="matrix(1 0 0 1 49.50 34.63)">5</text><text transform="matrix(1 0 0 1 60.50 32.50)">6</text><text transform="matrix(1 0 0 1 70.50 32.50)">7</text><text transform="matrix(1 0 0 1 57.75 48.50)">8</text><text transform="matrix(1 0 0 1 57.75 56.50)">9</text><text transform="matrix(1 0 0 1 35.50 67.63)">10</text><text transform="matrix(1 0 0 1 65.50 64.50)">11</text><text transform="matrix(1 0 0 1 43.50 79.50)">12</text><text transform="matrix(1 0 0 1 6.50 22.63)">13</text><text transform="matrix(1 0 0 1 3.50 55.50)">14</text><text transform="matrix(1 0 0 1 3.50 86.90)">15</text></g></svg>