<svg xmlns="http://www.w3.org/2000/svg" width="109" height="109" viewBox="0 0 109 109"><g id="kvg:StrokePaths_09076"><g id="kvg:09076" kvg:element="遶"><g id="kvg:09076-g1" kvg:element="堯" kvg:position="nyoc"><g id="kvg:09076-g2" kvg:position="top"><g id="kvg:09076-g3" kvg:element="土" kvg:position="top"><path id="kvg:09076-s1" kvg:type="㇐" d="M43.18 17.24c1.01.49 2.87.53 3.89.49C54 17.5 70.5 16.25 78.16 15.81c1.69-.1 2.7.23 3.55.48"/><path id="kvg:09076-s2" kvg:type="㇑a" d="M60.08 9.12c.08.24 1.15 1.24 1.15 2.75.0 1.7.33 9.55.33 16.6"/><path id="kvg:09076-s3" kvg:type="㇐" d="M38.6 29.35c1.38.62 3.93.76 5.31.62 17.15-1.73 24.84-2.35 40.18-3.16 2.31-.12 3.69.29 4.85.6"/></g><g id="kvg:09076-g4" kvg:position="bottom"><g id="kvg:09076-g5" kvg:element="土" kvg:position="left"><path id="kvg:09076-s4" kvg:type="㇐" d="M38.19 41.54c.58.34 1.72.36 2.31.32 3.84-.22 11.11-1.24 15.22-1.79.96-.13 2.02-.16 2.5.01"/><path id="kvg:09076-s5" kvg:type="㇑" d="M46.63 34.25c.84.45 1.51 1.99 1.51 2.91.0 6.49.02 2.75.02 12.38"/><path id="kvg:09076-s6" kvg:type="㇀/㇐" d="M36.34 52.12c.59.5 1.78 1.22 3.55.56 4.93-1.85 13.81-4.7 18.75-6.55"/></g><g id="kvg:09076-g6" kvg:element="土" kvg:position="right"><path id="kvg:09076-s7" kvg:type="㇐" d="M66.61 38.6c.64.29 1.81.3 2.45.29 5.93-.1 12.7-.94 18.5-1.03 1.06-.02 1.7.14 2.23.28"/><path id="kvg:09076-s8" kvg:type="㇑a" d="M76.21 31.61c.07.21 1.09 1.09 1.09 2.43.0 1.5-.22 8.29-.22 14.52"/><path id="kvg:09076-s9" kvg:type="㇐" d="M62.77 48.92c.74.27 2.48.33 3.22.27 6.61-.48 18.53-.88 25.16-1.24 1.23-.07 1.98.13 2.59.27"/></g></g></g><g id="kvg:09076-g7" kvg:element="兀" kvg:position="bottom"><g id="kvg:09076-g8" kvg:element="一"><path id="kvg:09076-s10" kvg:type="㇐" d="M38.27 60.88c1.29.33 3.65.37 4.94.33 8.98-.24 33.05-2.42 45.31-2.42 2.15.0 3.44.16 4.51.32"/></g><g id="kvg:09076-g9" kvg:element="儿" kvg:original="八"><g id="kvg:09076-g10" kvg:element="丿"><path id="kvg:09076-s11" kvg:type="㇒" d="M54.31 63.7c.04.43.18 1.16-.09 1.75C52 70.25 47.5 77 38.67 82.67"/></g><path id="kvg:09076-s12" kvg:type="㇟" d="M69.09 60.78c.5.92.92 2 .92 3.41.0 1.89-.02 4.73-.02 9.02.0 7.51 2.3 8.88 11.2 8.88s10.33-1.75 10.33-7.8"/></g></g></g><g id="kvg:09076-g11" kvg:element="辶" kvg:position="nyo" kvg:radical="general"><path id="kvg:09076-s13" kvg:type="㇔" d="M20.21 15.75c3.99 1.35 10.3 5.54 11.29 7.63"/><path id="kvg:09076-s14" kvg:type="㇔" d="M16.96 35c4.34 1.26 11.21 5.18 12.29 7.13"/><path id="kvg:09076-s15" kvg:type="㇋" d="M12 56.44c2.25.85 4.23.17 5.25.21 2.25.1 7.5-2.49 9-2.92S30 54.8 29 56.08s-4 6.19-4.75 7.26-.5 2.99 1 4.48 2.75 3.2 3.5 4.48.75 2.35-.75 3.42c-1.5 1.07-10 7.04-11.5 7.47"/><path id="kvg:09076-s16" kvg:type="㇏" d="M10.75 84.18c2.98-.52 8.85-1.22 13.41-.77 6.09.59 28.2 7.22 34.28 9.25C72.25 97.25 78.5 97 88.5 96.48"/></g></g></g></svg>