<svg xmlns="http://www.w3.org/2000/svg" width="109" height="109" viewBox="0 0 109 109"><g id="kvg:StrokePaths_09081" style="fill:none;stroke:#000000;stroke-width:3;stroke-linecap:round;stroke-linejoin:round;"><g id="kvg:09081" kvg:element="邁"><g id="kvg:09081-g1" kvg:element="萬" kvg:position="nyoc"><g id="kvg:09081-g2" kvg:element="艹" kvg:variant="true" kvg:original="艸" kvg:position="top"><path id="kvg:09081-s1" kvg:type="㇐" d="M39.78 17.77c1.36.65 2.94.71 4.32.65 9.8-.42 27.8-2.07 42.25-2.16 2.27-.01 3.64.31 4.77.63"/><path id="kvg:09081-s2" kvg:type="㇑a" d="M53.89 10.36c1.1 1.21 1.44 1.58 1.57 2.32.8 4.56.61 7.24 1.22 12.32"/><path id="kvg:09081-s3" kvg:type="㇑a" d="M72.72 9.89c.7.84 1.17 2.13.94 3.38-.61 3.32-1.41 6.24-2.19 9.48"/></g><g id="kvg:09081-g3" kvg:element="禺" kvg:position="bottom"><g id="kvg:09081-g4" kvg:element="日"><g id="kvg:09081-g5" kvg:element="田" kvg:part="1" kvg:variant="true"><path id="kvg:09081-s4" kvg:type="㇑" d="M46.6 29.78c.24.37.24.62.37 1.08 1.06 3.79 1.97 13.54 2.59 20.59"/><path id="kvg:09081-s5" kvg:type="㇕" d="M47.72 30.66c8.41-.76 25.48-2.62 31.76-3.28 2.31-.24 3.33 1.65 3.14 4-.3 3.8-1.4 10.77-2.76 18.24"/><path id="kvg:09081-s6" kvg:type="㇐" d="M48.9 40.49c2.74-.31 30.19-2.79 32.46-2.89"/><path id="kvg:09081-s7" kvg:type="㇐" d="M49.68 49.26c8.82-.51 21.89-1.44 30.24-1.92"/></g></g><g id="kvg:09081-g6" kvg:element="禸"><g id="kvg:09081-g7" kvg:element="冂"><path id="kvg:09081-s8" kvg:type="㇑" d="M42.02 57.69c.69.35 1.18 1.38 1.23 2.07.24 3.4.76 17.49 1 22.76"/><path id="kvg:09081-s9" kvg:type="㇆" d="M43.25 59.8c5.48-.81 42.01-4.17 43.1-4.23 1.65-.08 3 1.08 3.04 3.21.12 5.97-1.13 15.22-2.11 22.96-.71 5.66-4.24 1.7-6.28-1.34"/></g><g id="kvg:09081-g8" kvg:element="田" kvg:part="2" kvg:variant="true"><path id="kvg:09081-s10" kvg:type="㇑" d="M63.87 31.36c.36.62.92 1.22.92 2.35-.01 4.92.15 34.16.15 35.67"/></g><path id="kvg:09081-s11" kvg:type="６" d="M54.22 72.42c1.02.75 2.16 1.14 3.07.83 2.55-.88 13.05-4.89 18.4-6.51"/><path id="kvg:09081-s12" kvg:type="㇔" d="M71.94 64.3c2.78 1.4 7.19 5.85 7.88 8.11"/></g></g></g><g id="kvg:09081-g9" kvg:element="辶" kvg:position="nyo" kvg:radical="general"><path id="kvg:09081-s13" kvg:type="㇔" d="M16.46 11.25C21.24 13.04 28.81 18.6 30 21.38"/><path id="kvg:09081-s14" kvg:type="㇔" d="M16.46 31.25c4.52 1.48 11.67 6.08 12.79 8.38"/><path id="kvg:09081-s15" kvg:type="㇋" d="M14.5 54.83c2.25.95 3.75.48 4.75.24 1-.24 8.5-2.84 10-3.32 1.5-.48 3.75 1.19 2.75 2.63-1 1.43-4.36 5.21-6.75 7.62-1.75 1.76-1.5 3.01 1 5.01 1.75 1.41 4.25 3.08 5 4.51C32 72.95 32 74.15 30.5 75.34c-1.5 1.2-9 8.38-10.5 8.86"/><path id="kvg:09081-s16" kvg:type="㇏" d="M15.25 85.55c2.86-.46 8.49-1.07 12.85-.68 7.15.64 28.63 7.03 32.85 8.21 11.42 3.19 16.05 3.68 25.3 4.51"/></g></g></g></svg>