<svg xmlns="http://www.w3.org/2000/svg" width="109" height="109" viewBox="0 0 109 109"><g id="kvg:StrokePaths_090a3" style="fill:none;stroke:#000000;stroke-width:3;stroke-linecap:round;stroke-linejoin:round;"><g id="kvg:090a3" kvg:element="那"><g id="kvg:090a3-g1" kvg:position="left"><path id="kvg:090a3-s1" kvg:type="㇆" d="M14.75 22.25c2.11 1.07 5.63.54 7.89.22 8.42-1.17 18.14-2.8 23.61-3.57 4.26-.6 5.62.72 5.75 5.6.29 11-1.64 48.05-7.03 60.5-4.22 9.75-8.33.34-9.87-.75"/><g id="kvg:090a3-g2" kvg:element="二"><g id="kvg:090a3-g3" kvg:position="top"><path id="kvg:090a3-s2" kvg:type="㇐" d="M15 42.14c1.88.76 4.71.52 6.66.23 5.42-.79 12.98-2.38 18.1-3.16 2.01-.3 3.75-.44 5.74.05"/></g><g id="kvg:090a3-g4" kvg:position="bottom"><path id="kvg:090a3-s3" kvg:type="㇐" d="M13 58.89c1.91.78 4.79.5 6.77.21 5.35-.78 13.61-2.51 18.98-3.35 2.1-.33 3.92-.5 6 0"/></g></g><path id="kvg:090a3-s4" kvg:type="㇒" d="M30.77 25.28c1.22 1.22 1.36 2.64 1.33 4.84-.35 28-3.98 48.63-22.54 59.63"/></g><g id="kvg:090a3-g5" kvg:element="⻏" kvg:variant="true" kvg:original="邑" kvg:position="right" kvg:radical="general"><path id="kvg:090a3-s5" kvg:type="㇇" d="M65.42 22.42c1.08.46 2.58.56 3.9.44 6.19-.6 12.56-2.1 16.35-2.94 3.09-.68 4.98 1.62 3.92 4.08-.77 1.79-5.21 9.38-9.33 17.25"/><path id="kvg:090a3-s6" kvg:type="㇁" d="M80.25 41.25c22.5 12 16.25 42.5 1.23 32.16"/><path id="kvg:090a3-s7" kvg:type="㇑" d="M67.33 23.25c.71.71.75 2.08.75 3.37.0 11.99.02 45.21.03 63.01.0 3.84.0 7 0 9.12"/></g></g></g></svg>