<svg xmlns="http://www.w3.org/2000/svg" width="109" height="109" viewBox="0 0 109 109"><g id="kvg:StrokePaths_090b5" style="fill:none;stroke:#000000;stroke-width:3;stroke-linecap:round;stroke-linejoin:round;"><g id="kvg:090b5" kvg:element="邵"><g id="kvg:090b5-g1" kvg:element="召" kvg:position="left"><g id="kvg:090b5-g2" kvg:element="刀" kvg:position="top"><path id="kvg:090b5-s1" kvg:type="㇆" d="M15.21 18.7c.72.47 2.89.87 4.01.73 9.12-1.11 24.92-2.56 29.97-2.97 3.29-.27 4.64 1.31 4.57 3.19-.23 6.19-4 17.35-8.07 24.46-4.12 7.2-8.09-.05-8.77-.92"/><path id="kvg:090b5-s2" kvg:type="㇒" d="M31.75 21.39c.06.6.16 1.56-.11 2.41-2.83 8.65-7.91 15.9-19.25 24.49"/></g><g id="kvg:090b5-g3" kvg:element="口" kvg:position="bottom"><path id="kvg:090b5-s3" kvg:type="㇑" d="M16 56.19c.33.51.67.93.82 1.56 1.15 5.02 2.98 22.73 3.77 31.74"/><path id="kvg:090b5-s4" kvg:type="㇕b" d="M17.57 58.66c9.43-.91 24.46-2.01 30.66-2.67 2.05-.22 4.45 1.77 3.85 4.92-1.1 5.77-3.66 15.81-4.92 23.92"/><path id="kvg:090b5-s5" kvg:type="㇐b" d="M20.75 87.09c4.58-.75 21.01-2.03 29.84-2.54"/></g></g><g id="kvg:090b5-g4" kvg:element="⻏" kvg:variant="true" kvg:original="邑" kvg:position="right" kvg:radical="general"><path id="kvg:090b5-s6" kvg:type="㇇" d="M63.67 16.06c.85.09 2.35.59 3.45.49C73 16 82.04 14.11 84.52 13.2c3.05-1.12 6.11 1.12 4.75 3.73s-7.63 16.99-10 20.72"/><path id="kvg:090b5-s7" kvg:type="㇁" d="M79.26 37.71C98.5 49.25 92.5 89.75 80.54 72.85"/><path id="kvg:090b5-s8" kvg:type="㇑" d="M65.39 16.55c.03.14.54 1.37.55 3.45.07 14.79-.27 72.3-.27 79.75"/></g></g></g></svg>