<svg xmlns="http://www.w3.org/2000/svg" width="109" height="109" viewBox="0 0 109 109"><g id="kvg:StrokePaths_090e4" style="fill:none;stroke:#000000;stroke-width:3;stroke-linecap:round;stroke-linejoin:round;"><g id="kvg:090e4" kvg:element="郤"><g id="kvg:090e4-g1" kvg:element="谷" kvg:position="left"><g id="kvg:090e4-g2" kvg:position="top"><path id="kvg:090e4-s1" kvg:type="㇒" d="M37.21 10.48c.06.58.2 1.52-.12 2.32C34.75 18.75 26.75 27.25 16.4 35"/><path id="kvg:090e4-s2" kvg:type="㇔" d="M41.08 16.83c6.21 3.22 13.78 9.37 15.91 12.67"/></g><g id="kvg:090e4-g3" kvg:position="bottom"><path id="kvg:090e4-s3" kvg:type="㇒" d="M39.6 30.75c.08.83.38 2.22-.16 3.33C34.95 43.43 24.76 56.87 11.17 66"/><path id="kvg:090e4-s4" kvg:type="㇏" d="M40.21 37.33C48.17 42.35 55.17 48.58 59 55.17"/><g id="kvg:090e4-g4" kvg:element="口"><path id="kvg:090e4-s5" kvg:type="㇑" d="M21.09 64.91c.39.47.78.86.95 1.45 1.34 4.65 2.95 17.49 3.86 25.84"/><path id="kvg:090e4-s6" kvg:type="㇕b" d="M22.4 66.36C32.75 65 43.83 64.14 50.3 63.21c2.21-.32 3.56 2.13 3.22 3.52-1.61 6.65-2.81 11.61-4.29 19.77"/><path id="kvg:090e4-s7" kvg:type="㇐b" d="M25.94 89.34C35 88.25 40.75 87.75 51.82 87"/></g></g></g><g id="kvg:090e4-g5" kvg:element="⻏" kvg:variant="true" kvg:original="邑" kvg:position="right" kvg:radical="general"><path id="kvg:090e4-s8" kvg:type="㇇" d="M66.67 17.56c.85.09 2.36.7 3.45.49 4.71-.91 17.92-2.94 20.4-3.85 3.05-1.12 6.11 1.12 4.75 3.73s-9.13 17.49-11.5 21.22"/><path id="kvg:090e4-s9" kvg:type="㇁" d="M82.76 40.21C101.5 55.75 96 92 82.54 75.85"/><path id="kvg:090e4-s10" kvg:type="㇑" d="M69.39 18.55c.02.12.04 1.08.06 2.7.12 13.42-.08 72.25-.28 78.5"/></g></g></g></svg>