<svg xmlns="http://www.w3.org/2000/svg" width="109" height="109" viewBox="0 0 109 109"><g id="kvg:StrokePaths_090e2" style="fill:none;stroke:#000000;stroke-width:3;stroke-linecap:round;stroke-linejoin:round;"><g id="kvg:090e2" kvg:element="郢"><g id="kvg:090e2-g1" kvg:element="呈" kvg:variant="true" kvg:position="left"><g id="kvg:090e2-g2" kvg:element="口" kvg:position="top"><path id="kvg:090e2-s1" kvg:type="㇑" d="M18.54 14.06c.35.4.71.73.87 1.22 1.22 3.92 2.2 12.48 3.51 21.79"/><path id="kvg:090e2-s2" kvg:type="㇕b" d="M20.73 15.41c9.27-.66 23.43-2.34 27.88-2.89 1.63-.2 2.6 2.04 2.37 3.24-.96 4.94-2.14 6.62-3.77 16.32"/><path id="kvg:090e2-s3" kvg:type="㇐b" d="M23.27 34.48c5.22-.63 19.44-1.66 26.07-2.29"/></g><g id="kvg:090e2-g3" kvg:element="王" kvg:original="玉" kvg:partial="true" kvg:position="bottom"><g id="kvg:090e2-g4" kvg:element="壬" kvg:variant="true"><g id="kvg:090e2-g5" kvg:element="丿"><path id="kvg:090e2-s4" kvg:type="㇒" d="M49.2 39.25c.08.26.31.75-.16 1.04-5.85 3.67-14.5 7.04-29.75 10"/></g><g id="kvg:090e2-g6" kvg:element="士" kvg:variant="true"><path id="kvg:090e2-s5" kvg:type="㇐" d="M11.34 64.18c.97.77 4.16.37 5.16.33 7.25-.26 23.67-2.22 35.8-3.59 1.21-.14 2.63-.31 4.44.36"/><path id="kvg:090e2-s6" kvg:type="㇑" d="M35.37 49.65c.74 1.28.74 2.05.74 3.07.0 7.16.19 22.55.0 29.72"/><path id="kvg:090e2-s7" kvg:type="㇀" d="M16 87.45c.57 1.25 3.5 1.4 4.51 1.02 9.99-3.72 21.52-8.16 32.23-12.57"/></g></g></g></g><g id="kvg:090e2-g7" kvg:element="⻏" kvg:variant="true" kvg:original="邑" kvg:position="right" kvg:radical="general"><path id="kvg:090e2-s8" kvg:type="㇇" d="M64.17 17.08c.88.09 2.43.6 3.57.49 5.76-.57 18.43-2.46 21-3.37 3.16-1.13 5.31 1.63 3.91 4.26S83.76 36.54 81.3 40.3"/><path id="kvg:090e2-s9" kvg:type="㇁" d="M80.77 41.36c19.48 12.89 12.48 52.14-.1 35.35"/><path id="kvg:090e2-s10" kvg:type="㇑" d="M66.52 18.58c.02.1.04 1.77.05 2.91.14 11.72-.07 72.34-.28 78.76"/></g></g></g></svg>