<svg xmlns="http://www.w3.org/2000/svg" width="109" height="109" viewBox="0 0 109 109"><g id="kvg:StrokePaths_090f7" style="fill:none;stroke:#000000;stroke-width:3;stroke-linecap:round;stroke-linejoin:round;"><g id="kvg:090f7" kvg:element="郷"><g id="kvg:090f7-g1" kvg:position="left" kvg:phon="卿"><g id="kvg:090f7-g2" kvg:element="乡" kvg:variant="true"><path id="kvg:090f7-s1" kvg:type="㇜" d="M25.47 18.62c.28 1.01.31 2.33-.42 3.79-2.68 5.34-7.1 12.84-10.77 17.27-.62.75-.39 2.35.28 2.61 3.53 1.34 5.69 2.58 10.13 5.54"/><path id="kvg:090f7-s2" kvg:type="㇜" d="M34.03 31.4c.35 1.1.1 2.23-.46 3.18-3.81 6.5-12.8 20.38-18.85 27.8-.81 1 0 2.76 1 2.46C22 63 25.62 61.88 31.79 60.2"/><path id="kvg:090f7-s3" kvg:type="㇒/㇔" d="M33.52 50.25c.35 1 .52 2.33.42 3.63-.69 8.37-4.44 27.37-15.02 35.28"/></g><g id="kvg:090f7-g3" kvg:element="艮" kvg:partial="true"><path id="kvg:090f7-s4" kvg:type="㇕" d="M42.87 22.01c1.88.99 2.78 1.06 4.92.7 3.51-.6 8.93-1.4 11.98-1.83 3.62-.52 5.29-.14 4.74 3.88-.71 5.3-1.32 11.97-2.16 18.51-.2 1.59-.42 3.18-.66 4.77"/><path id="kvg:090f7-s5" kvg:type="㇐a" d="M45.46 35.53c5.17-.66 12.29-2.03 17.03-2.66"/><path id="kvg:090f7-s6" kvg:type="㇐a" d="M45.62 48.1c4.11-.43 9.38-1.23 15.46-1.97"/><path id="kvg:090f7-s7" kvg:type="㇙" d="M42.87 22.01c.85.46 1.53 2.05 1.53 2.99.0 4 .17 45.5.17 51.22.0 2.08.77 2.89 2.81 1.28S59.76 68.75 64 66.25"/><path id="kvg:090f7-s8" kvg:type="㇔" d="M59.88 57.12C62.3 60.05 66.11 67.83 67.5 74"/></g></g><g id="kvg:090f7-g4" kvg:element="⻏" kvg:variant="true" kvg:original="邑" kvg:position="right" kvg:radical="general"><path id="kvg:090f7-s9" kvg:type="㇇" d="M73.42 23.67c.99.34 2.14.73 3.32.53 5.51-.95 8.51-1.57 11.93-2.28 3.1-.64 4.96 1.11 3.92 3.58-1.58 3.75-5.83 12.75-8.83 18"/><path id="kvg:090f7-s10" kvg:type="㇁" d="M83.75 43.5c13.62 8.62 14.5 37.25 1.92 29"/><path id="kvg:090f7-s11" kvg:type="㇑" d="M74.62 24.5c.88.88 1.21 1.73 1.21 2.75.0 8.25-.12 37.75-.12 61 0 3.08-.07 5.29-.1 6.25"/></g></g></g></svg>