<svg xmlns="http://www.w3.org/2000/svg" width="109" height="109" viewBox="0 0 109 109"><g id="kvg:StrokePaths_09163" style="fill:none;stroke:#000000;stroke-width:3;stroke-linecap:round;stroke-linejoin:round;"><g id="kvg:09163" kvg:element="酣"><g id="kvg:09163-g1" kvg:element="酉" kvg:position="left" kvg:radical="general"><g id="kvg:09163-g2" kvg:element="西" kvg:part="1" kvg:original="襾"><path id="kvg:09163-s1" kvg:type="㇐" d="M10.24 21.64c.63.41 3.81 1.01 4.46.95 6.66-.58 22.3-1.84 27.05-2.07 1.6-.08 3.38-.17 4.75.35"/><path id="kvg:09163-s2" kvg:type="㇑" d="M12.97 38.84c.28.91 1.09 2.66 1.09 5.01.0.99-.14 47.41.0 48.39"/><path id="kvg:09163-s3" kvg:type="㇕a" d="M13.76 40.88c2.41-.12 24.79-2.28 26.98-2.59 2.27-.32 4.15 1.19 4.15 3.98.0 1.56-.35 47.65-.35 48.39"/><path id="kvg:09163-s4" kvg:type="㇒" d="M23.98 25.72c.64 1.26 1.04 2.99.94 4.73-.87 16.04-2.66 25.37-6.5 33.14"/><path id="kvg:09163-s5" kvg:type="㇟a" d="M32.71 23.54c.43 1.21.77 2.65.8 4.52.08 5.94-.19 16-.23 23.34-.03 6.37 1.86 7.69 4.88 7.69 3.06.0 5.17-.22 5.47-.93"/></g><g id="kvg:09163-g3" kvg:element="一"><path id="kvg:09163-s6" kvg:type="㇐a" d="M14.69 74.01c3.27.0 26.2-2.69 29.89-2.69"/></g><g id="kvg:09163-g4" kvg:element="西" kvg:part="2" kvg:original="襾"><path id="kvg:09163-s7" kvg:type="㇐a" d="M14.54 88.94c6.65-.53 21.75-1.45 30.03-1.9"/></g></g><g id="kvg:09163-g5" kvg:element="甘" kvg:position="right"><g id="kvg:09163-g6" kvg:element="廿" kvg:part="1"><g id="kvg:09163-g7" kvg:element="十"><path id="kvg:09163-s8" kvg:type="㇐" d="M47.86 34.52c1.29.46 3.67.57 4.96.46 9.52-.84 24.18-1.73 39.79-2.83 2.15-.15 3.45.22 4.53.45"/><path id="kvg:09163-s9" kvg:type="㇑" d="M57.17 18.87c1.07.49 1.71 2.19 1.93 3.17.21.98.0 65.12-.21 71.21"/></g><path id="kvg:09163-s10" kvg:type="㇑" d="M82.62 13.5c1.07.49 1.71 2.19 1.93 3.17.21.98.0 70.01-.21 76.1"/></g><path id="kvg:09163-s11" kvg:type="㇐" d="M59.26 58.84c5.49-.34 22.28-1.93 25.23-1.93"/><g id="kvg:09163-g8" kvg:element="廿" kvg:part="2"><path id="kvg:09163-s12" kvg:type="㇐" d="M59.26 89.15c6.4-.24 19.08-.71 24.98-.95"/></g></g></g></g></svg>