<svg xmlns="http://www.w3.org/2000/svg" width="109" height="109" viewBox="0 0 109 109"><g id="kvg:StrokePaths_09169" style="fill:none;stroke:#000000;stroke-width:3;stroke-linecap:round;stroke-linejoin:round;"><g id="kvg:09169" kvg:element="酩"><g id="kvg:09169-g1" kvg:element="酉" kvg:position="left" kvg:radical="general"><g id="kvg:09169-g2" kvg:element="西" kvg:part="1" kvg:original="襾"><path id="kvg:09169-s1" kvg:type="㇐" d="M10.74 20.14c.63.41 3.81 1.01 4.46.95 6.66-.58 24.25-2.29 27.05-2.57 1.59-.16 3.38-.67 4.75-.15"/><path id="kvg:09169-s2" kvg:type="㇑" d="M13.97 34.84c.43.74.59 2.52.59 3.51.0.99-.14 51.41.0 52.39"/><path id="kvg:09169-s3" kvg:type="㇕a" d="M14.76 36.88c2.41-.12 24.29-2.28 26.48-2.59 2.27-.32 4.15 1.19 4.15 3.98.0 1.56-.35 50.65-.35 51.39"/><path id="kvg:09169-s4" kvg:type="㇒" d="M24.44 23.22c.67 1.18 1.08 2.8.98 4.42-.9 14.98-2.76 23.7-6.75 30.95"/><path id="kvg:09169-s5" kvg:type="㇟a" d="M33.21 22.54c.43 1.21.77 2.65.8 4.52.08 5.94-.19 13.5-.23 20.84-.03 6.37 1.86 7.69 4.88 7.69 3.06.0 5.17-.22 5.47-.94"/></g><g id="kvg:09169-g3" kvg:element="一"><path id="kvg:09169-s6" kvg:type="㇐a" d="M15.19 70.51c3.27.0 25.7-1.69 29.39-1.69"/></g><g id="kvg:09169-g4" kvg:element="西" kvg:part="2" kvg:original="襾"><path id="kvg:09169-s7" kvg:type="㇐a" d="M15.04 87.44c6.65-.53 21.25-1.45 29.53-1.9"/></g></g><g id="kvg:09169-g5" kvg:element="名" kvg:position="right"><g id="kvg:09169-g6" kvg:element="夕" kvg:position="top"><path id="kvg:09169-s8" kvg:type="㇒" d="M69.36 13.64c.18.55.69 2.23.35 3.27-2.46 7.51-9.51 20.04-17.54 28.95"/><path id="kvg:09169-s9" kvg:type="㇇" d="M68.63 23.68c1.12.32 2.75.44 3.71.33 4.42-.51 8.67-2.26 13.61-3.17 3.15-.58 4.11 1.06 3.16 3.36C83.25 38.25 69.75 60.25 51 68.53"/><path id="kvg:09169-s10" kvg:type="㇔" d="M61.44 38.73c2.87 1.83 7.4 7.5 8.12 10.34"/></g><g id="kvg:09169-g7" kvg:element="口" kvg:position="bottom"><path id="kvg:09169-s11" kvg:type="㇑" d="M60.93 64.91c.46.54 1.01 1.49 1.13 2.19C63 72.82 64.15 84.3 65.02 94"/><path id="kvg:09169-s12" kvg:type="㇕b" d="M61.7 66.87c6.98-1.03 24.99-4.14 29.75-4.3 1.97-.07 3.24 2.59 2.86 4.05-1.34 5.22-2.56 12.63-4.03 22.41"/><path id="kvg:09169-s13" kvg:type="㇐b" d="M64.9 91.25c5.16.0 21.13-2.3 28.26-2.46"/></g></g></g></g></svg>