<svg xmlns="http://www.w3.org/2000/svg" width="109" height="109" viewBox="0 0 109 109"><g id="kvg:StrokePaths_09172"><g id="kvg:09172" kvg:element="酲"><g id="kvg:09172-g1" kvg:element="酉" kvg:position="left" kvg:radical="general"><g id="kvg:09172-g2" kvg:element="西" kvg:part="1" kvg:original="襾"><path id="kvg:09172-s1" kvg:type="㇐" d="M11.24 20.59c.62.4 3.7.98 4.33.92 6.47-.57 21.58-1.23 24.31-1.5 1.55-.15 3.37-.51 4.62-.14"/><path id="kvg:09172-s2" kvg:type="㇑" d="M12.88 36.88c.41.72.57 2.46.57 3.42s-.14 49.99.0 50.95"/><path id="kvg:09172-s3" kvg:type="㇕a" d="M13.65 38.87c2.35-.12 24.11-2.21 26.23-2.52 2.21-.31 4.04 1.15 4.04 3.87.0 1.52-.34 49.26-.34 49.98"/><path id="kvg:09172-s4" kvg:type="㇒" d="M23.56 23.58c.65 1.22 1.05 2.9.95 4.57-.88 15.52-2.68 24.55-6.56 32.07"/><path id="kvg:09172-s5" kvg:type="㇟a" d="M31.59 23.44c.42 1.18.75 2.57.77 4.39.08 5.78-.18 14.13-.22 21.26-.03 6.2 1.81 7.48 4.75 7.48 2.98.0 5.03-.21 5.32-.91"/></g><g id="kvg:09172-g3" kvg:element="一"><path id="kvg:09172-s6" kvg:type="㇐a" d="M14.06 71.57c3.18.0 25.48-1.65 29.07-1.65"/></g><g id="kvg:09172-g4" kvg:element="西" kvg:part="2" kvg:original="襾"><path id="kvg:09172-s7" kvg:type="㇐a" d="M13.92 88.03c6.47-.52 21.15-1.41 29.2-1.85"/></g></g><g id="kvg:09172-g5" kvg:element="呈" kvg:position="right"><g id="kvg:09172-g6" kvg:element="口" kvg:position="top"><path id="kvg:09172-s8" kvg:type="㇑" d="M55.01 17.16c.41.41.83.75 1.01 1.27 1.42 4.08 1.97 10.46 3.5 20.14"/><path id="kvg:09172-s9" kvg:type="㇕b" d="M57.06 18.56c10.44-1.31 25.67-1.97 30.83-2.55 1.89-.21 3.02 2.13 2.75 3.37-1.12 5.13-.9 3.86-2.8 13.95"/><path id="kvg:09172-s10" kvg:type="㇐b" d="M59.43 35.88c6.07-.65 22.61-1.25 30.31-1.9"/></g><g id="kvg:09172-g7" kvg:element="王" kvg:original="玉" kvg:partial="true" kvg:position="bottom"><g id="kvg:09172-g8" kvg:element="壬"><g id="kvg:09172-g9" kvg:element="丿"><path id="kvg:09172-s11" kvg:type="㇒" d="M86.27 40.75c.08.35.33 1.01-.17 1.4-6.17 4.92-15.28 9.43-31.35 13.39"/></g><g id="kvg:09172-g10" kvg:element="士"><path id="kvg:09172-s12" kvg:type="㇐" d="M52.46 70.27c1.03.58 4.44.35 5.5.25 11.01-1.02 18.62-1.57 31.55-2.61 1.29-.1 2.8-.24 4.73.28"/><path id="kvg:09172-s13" kvg:type="㇑a" d="M71.74 52.65c1.11 1.71 1.11 2.74 1.11 4.11.0 9.58.0 24.25.0 34.93"/><path id="kvg:09172-s14" kvg:type="㇐" d="M48.25 93.74c.76.32 4.73.12 6.02.01 10.98-1 25.98-2.25 38.37-2.88 2.07-.11 4.57.54 5.61 1.05"/></g></g></g></g></g></g></svg>