<!DOCTYPE svg PUBLIC "-//W3C//DTD SVG 1.0//EN" "http://www.w3.org/TR/2001/REC-SVG-20010904/DTD/svg10.dtd" [
<!ATTLIST g
xmlns:kvg CDATA #FIXED "http://kanjivg.tagaini.net"
kvg:element CDATA #IMPLIED
kvg:variant CDATA #IMPLIED
kvg:partial CDATA #IMPLIED
kvg:original CDATA #IMPLIED
kvg:part CDATA #IMPLIED
kvg:number CDATA #IMPLIED
kvg:tradForm CDATA #IMPLIED
kvg:radicalForm CDATA #IMPLIED
kvg:position CDATA #IMPLIED
kvg:radical CDATA #IMPLIED
kvg:phon CDATA #IMPLIED >
<!ATTLIST path
xmlns:kvg CDATA #FIXED "http://kanjivg.tagaini.net"
kvg:type CDATA #IMPLIED >
]><svg xmlns="http://www.w3.org/2000/svg" width="109" height="109" viewBox="0 0 109 109"><g id="kvg:StrokePaths_0918d" style="fill:none;stroke:#000000;stroke-width:3;stroke-linecap:round;stroke-linejoin:round;"><g id="kvg:0918d" kvg:element="醍"><g id="kvg:0918d-g1" kvg:element="酉" kvg:position="left" kvg:radical="general"><g id="kvg:0918d-g2" kvg:element="西" kvg:part="1" kvg:original="襾"><path id="kvg:0918d-s1" kvg:type="㇐" d="M9.29 19.62c.6.37 3.59.91 4.2.86 6.27-.53 23.33-1.99 25.98-2.24 1.5-.14 3.19-.61 4.48-.13"/><path id="kvg:0918d-s2" kvg:type="㇑" d="M10.95 35.36c.55.67.76 2.29.76 3.19.0.89.0 45.71.0 50.21"/><path id="kvg:0918d-s3" kvg:type="㇕a" d="M12.05 36.75c2.27-.11 23.87-3.43 25.93-3.71 2.14-.29 3.91 1.08 3.91 3.61.0 1.42-.33 48.63-.33 49.3"/><path id="kvg:0918d-s4" kvg:type="㇒" d="M21.07 22.41c.7 1.19 1.14 2.82 1.03 4.46-.95 15.11-2.91 22.9-7.11 30.22"/><path id="kvg:0918d-s5" kvg:type="㇟a" d="M28.97 21.34c.41 1.1.73 2.4.75 4.1.08 5.39-.18 13.52-.21 20.18-.03 5.78 1.75 6.97 4.6 6.97 2.88.0 4.88-.2 5.16-.85"/></g><g id="kvg:0918d-g3" kvg:element="一"><path id="kvg:0918d-s6" kvg:type="㇐a" d="M11.96 68.21c3.08.0 25.2-2.4 28.68-2.4"/></g><g id="kvg:0918d-g4" kvg:element="西" kvg:part="2" kvg:original="襾"><path id="kvg:0918d-s7" kvg:type="㇐a" d="M11.81 85.75c6.27-.48 21.5-1.77 29.31-2.18"/></g></g><g id="kvg:0918d-g5" kvg:element="是" kvg:position="right"><g id="kvg:0918d-g6" kvg:element="日" kvg:position="top"><path id="kvg:0918d-s8" kvg:type="㇑" d="M54.94 13.76c.38.74.64 1.12.76 2.09.71 6.06 3.8 25.87 3.8 26.36"/><path id="kvg:0918d-s9" kvg:type="㇕a" d="M56.32 15.25c2.13-.12 23.15-2.36 25.09-2.5 1.62-.12 3.09 1.51 3.03 3.09-.11 3.22-1.45 13.53-2.74 24.11"/><path id="kvg:0918d-s10" kvg:type="㇐a" d="M57.38 27.18c2.88.0 22.93-2.17 26.19-2.17"/><path id="kvg:0918d-s11" kvg:type="㇐a" d="M59.61 39.42c5.87-.53 14.77-1.44 22.08-1.9"/></g><g id="kvg:0918d-g7" kvg:element="疋" kvg:variant="true" kvg:position="bottom"><path id="kvg:0918d-s12" kvg:type="㇐" d="M48.86 52.39c1.03.48 2.92.58 3.95.48 6.74-.65 27.51-3.72 37.48-3.71 1.72.0 2.75.23 3.61.47"/><g id="kvg:0918d-g8" kvg:element="龰"><g id="kvg:0918d-g9" kvg:element="卜" kvg:original="ト"><path id="kvg:0918d-s13" kvg:type="㇑" d="M69.46 52.25c.92.47 1.48 2.1 1.66 3.04.18.93.5 25.62.31 31.46"/><path id="kvg:0918d-s14" kvg:type="㇐" d="M71.43 68.25c5.83-.72 13.82-1.89 16.74-1.76 1.16.05 1.85.17 2.43.35"/></g><g id="kvg:0918d-g10" kvg:element="人"><path id="kvg:0918d-s15" kvg:type="㇒" d="M57.91 62.19c.59 1.06.59 2.18.42 3.39-1.03 7.16-4.07 23.16-14.99 32.48"/><path id="kvg:0918d-s16" kvg:type="㇏" d="M55.77 78.74C60.77 79.47 72.12 90 91.49 96c1.94.6 3.88.75 5.72 1"/></g></g></g></g></g></g><g id="kvg:StrokeNumbers_0918d" style="font-size:8;fill:#808080"><text transform="matrix(1 0 0 1 3.50 20.50)">1</text><text transform="matrix(1 0 0 1 3.50 42.50)">2</text><text transform="matrix(1 0 0 1 12.50 33.50)">3</text><text transform="matrix(1 0 0 1 15.50 28.50)">4</text><text transform="matrix(1 0 0 1 32.50 27.50)">5</text><text transform="matrix(1 0 0 1 16.25 64.25)">6</text><text transform="matrix(1 0 0 1 16.50 82.50)">7</text><text transform="matrix(1 0 0 1 48.50 22.50)">8</text><text transform="matrix(1 0 0 1 58.50 11.50)">9</text><text transform="matrix(1 0 0 1 61.25 23.50)">10</text><text transform="matrix(1 0 0 1 62.50 35.88)">11</text><text transform="matrix(1 0 0 1 46.50 49.50)">12</text><text transform="matrix(1 0 0 1 61.50 60.50)">13</text><text transform="matrix(1 0 0 1 74.50 64.50)">14</text><text transform="matrix(1 0 0 1 46.25 64.50)">15</text><text transform="matrix(1 0 0 1 60.50 78.50)">16</text></g></svg>