<!DOCTYPE svg PUBLIC "-//W3C//DTD SVG 1.0//EN" "http://www.w3.org/TR/2001/REC-SVG-20010904/DTD/svg10.dtd" [
<!ATTLIST g
xmlns:kvg CDATA #FIXED "http://kanjivg.tagaini.net"
kvg:element CDATA #IMPLIED
kvg:variant CDATA #IMPLIED
kvg:partial CDATA #IMPLIED
kvg:original CDATA #IMPLIED
kvg:part CDATA #IMPLIED
kvg:number CDATA #IMPLIED
kvg:tradForm CDATA #IMPLIED
kvg:radicalForm CDATA #IMPLIED
kvg:position CDATA #IMPLIED
kvg:radical CDATA #IMPLIED
kvg:phon CDATA #IMPLIED >
<!ATTLIST path
xmlns:kvg CDATA #FIXED "http://kanjivg.tagaini.net"
kvg:type CDATA #IMPLIED >
]><svg xmlns="http://www.w3.org/2000/svg" width="109" height="109" viewBox="0 0 109 109"><g id="kvg:StrokePaths_09187" style="fill:none;stroke:#000000;stroke-width:3;stroke-linecap:round;stroke-linejoin:round;"><g id="kvg:09187" kvg:element="醇"><g id="kvg:09187-g1" kvg:element="酉" kvg:position="left" kvg:radical="general"><g id="kvg:09187-g2" kvg:element="西" kvg:part="1" kvg:original="襾"><path id="kvg:09187-s1" kvg:type="㇐" d="M10.49 22.04c2.51.83 4.96.84 7.13.66 6.53-.55 16.18-1.82 20.38-2.29 1.96-.22 4.1-.51 6 .21"/><path id="kvg:09187-s2" kvg:type="㇑" d="M13.11 37.73c.96.96 1.07 2.27 1.07 3.83.0 3.89.0 25.78.0 39.19.0 3.63.0 6.64.0 8.5"/><path id="kvg:09187-s3" kvg:type="㇕a" d="M15.12 39.17c2.33-.12 22.44-2.66 24.55-2.95 2.19-.3 4.01 1.13 4.01 3.78.0 1.14-.03 27.02-.04 40.26.0 4-.01 6.84-.01 7.5"/><path id="kvg:09187-s4" kvg:type="㇒" d="M23.47 24.71c.64 1.12 1.04 2.65.95 4.19-.87 14.2-1.04 22.1-7.16 31.35"/><path id="kvg:09187-s5" kvg:type="㇟a" d="M30.43 23.84c.92.92 1.24 2.01 1.27 3.78.08 5.64.03 17.5.03 22.01.0 6.04.77 6.79 4.72 6.79 2.95.0 5-.21 5.28-.89"/></g><g id="kvg:09187-g3" kvg:element="一"><path id="kvg:09187-s6" kvg:type="㇐a" d="M15.53 71.06c3.15.0 23.55-1.36 27.11-1.36"/></g><g id="kvg:09187-g4" kvg:element="西" kvg:part="2" kvg:original="襾"><path id="kvg:09187-s7" kvg:type="㇐a" d="M15.39 85.86c6.42-.5 19-.87 26.99-1.3"/></g></g><g id="kvg:09187-g5" kvg:element="享" kvg:position="right"><g id="kvg:09187-g6" kvg:element="亠" kvg:position="top"><path id="kvg:09187-s8" kvg:type="㇑a" d="M68.9 9.5c1.11 1.11 1.38 2.12 1.38 3.57.0 1.18-.03 5.02-.03 6.55"/><path id="kvg:09187-s9" kvg:type="㇐" d="M49.67 21.6c.97.07 3.17.43 4.11.37 7.97-.47 25.97-2.22 34.57-2.71 1.59-.09 2.41.03 3.59.48"/></g><g id="kvg:09187-g7" kvg:position="bottom"><g id="kvg:09187-g8" kvg:element="口"><path id="kvg:09187-s10" kvg:type="㇑" d="M57.13 29.97c.7.7 1.05 1.65 1.25 2.27.79 2.48 1.45 5.14 2.14 7.97.29 1.18.57 2.39.87 3.63"/><path id="kvg:09187-s11" kvg:type="㇕b" d="M59.67 31.5c7.01-1.37 15.63-2.73 20.35-3.33 2.8-.35 4.43-.1 3.7 3.09-.52 2.25-1.22 4.1-2.23 7.77"/><path id="kvg:09187-s12" kvg:type="㇐b" d="M62 41.33c3.19-.22 10.98-.94 16.87-1.38 1.7-.13 3.22-.23 4.4-.3"/></g><g id="kvg:09187-g9" kvg:element="子"><path id="kvg:09187-s13" kvg:type="㇖" d="M56.03 49.83c2.1.92 4.2 1.2 6.23 1.07 5.12-.33 16.06-2.01 20.25-2.47 2.85-.31 4.35.58 1.54 2.76-2.42 1.89-7.58 6.25-12.87 10.07"/><path id="kvg:09187-s14" kvg:type="㇁" d="M69.21 61.35c8.29 4.4 9.04 17.15 5.68 30.22-1.72 6.69-6.4 2.18-7.98.52"/><path id="kvg:09187-s15" kvg:type="㇐" d="M50.33 68.61c2.14.94 5.28.96 7.56.79 8.27-.59 24.17-2.08 33.24-2.47 2.45-.11 5.12-.18 7.82.29"/></g></g></g></g></g><g id="kvg:StrokeNumbers_09187" style="font-size:8;fill:#808080"><text transform="matrix(1 0 0 1 4.25 21.25)">1</text><text transform="matrix(1 0 0 1 6.25 44.25)">2</text><text transform="matrix(1 0 0 1 16.00 36.23)">3</text><text transform="matrix(1 0 0 1 18.00 29.15)">4</text><text transform="matrix(1 0 0 1 35.25 28.25)">5</text><text transform="matrix(1 0 0 1 18.25 67.25)">6</text><text transform="matrix(1 0 0 1 18.25 82.25)">7</text><text transform="matrix(1 0 0 1 60.25 10.25)">8</text><text transform="matrix(1 0 0 1 48.25 18.25)">9</text><text transform="matrix(1 0 0 1 49.25 36.25)">10</text><text transform="matrix(1 0 0 1 61.25 28.25)">11</text><text transform="matrix(1 0 0 1 63.00 38.25)">12</text><text transform="matrix(1 0 0 1 50.00 46.25)">13</text><text transform="matrix(1 0 0 1 59.00 62.40)">14</text><text transform="matrix(1 0 0 1 48.00 65.25)">15</text></g></svg>