<svg xmlns="http://www.w3.org/2000/svg" width="109" height="109" viewBox="0 0 109 109"><g id="kvg:StrokePaths_09197" style="fill:none;stroke:#000000;stroke-width:3;stroke-linecap:round;stroke-linejoin:round;"><g id="kvg:09197" kvg:element="醗"><g id="kvg:09197-g1" kvg:element="酉" kvg:position="left" kvg:radical="general"><g id="kvg:09197-g2" kvg:element="西" kvg:part="1" kvg:original="襾"><path id="kvg:09197-s1" kvg:type="㇐" d="M10.79 19.95c.51.38 3.07.94 3.59.89 5.37-.54 19.47-2.58 21.73-2.84 1.29-.15 2.73-.63 3.83-.14"/><path id="kvg:09197-s2" kvg:type="㇑" d="M12.8 36.12c.34.69.47 2.36.47 3.28s-.11 48.18.0 49.1"/><path id="kvg:09197-s3" kvg:type="㇕a" d="M13.44 37.56c1.95-.12 20.5-3.03 22.26-3.32 1.83-.3 3.35 1.11 3.35 3.72.0 1.46-.29 48.47-.29 49.16"/><path id="kvg:09197-s4" kvg:type="㇒" d="M22.21 22.33c.56 1.21.91 2.88.83 4.54-.76 15.42-2.33 23.36-5.69 30.82"/><path id="kvg:09197-s5" kvg:type="㇟a" d="M28.92 21.22c.35 1.37.62 2.98.64 5.08.06 6.69-.15 11.82-.18 20.08-.03 7.18 1.5 8.66 3.94 8.66 2.47.0 4.18-.24 4.41-1.05"/></g><g id="kvg:09197-g3" kvg:element="一"><path id="kvg:09197-s6" kvg:type="㇐a" d="M13.78 69.96c2.63.0 21.63-2.99 24.61-2.99"/></g><g id="kvg:09197-g4" kvg:element="西" kvg:part="2" kvg:original="襾"><path id="kvg:09197-s7" kvg:type="㇐a" d="M13.66 84.91c5.36-.5 18.04-1.82 24.72-2.25"/></g></g><g id="kvg:09197-g5" kvg:element="発" kvg:position="right"><g id="kvg:09197-g6" kvg:element="癶" kvg:position="top"><g id="kvg:09197-g7" kvg:position="left"><path id="kvg:09197-s8" kvg:type="㇇" d="M50.87 18.12c.98.51 1.38.63 2.93.17 2.61-.77 6.56-1.3 9.81-2.34 2.55-.82 3.12.44 2.29 3.21-1.96 6.5-12.87 25.92-22.16 29.34"/><path id="kvg:09197-s9" kvg:type="㇔" d="M48.09 28.07c2.69 1.11 6.95 4.58 7.62 6.31"/></g><g id="kvg:09197-g8" kvg:position="right"><path id="kvg:09197-s10" kvg:type="㇒" d="M83.02 13.89c.02.26.04.67-.04 1.03-.53 2.18-3.56 6.97-7.7 9.9"/><path id="kvg:09197-s11" kvg:type="㇏" d="M66.73 18.26c5.45 4.51 20.96 21.45 26.87 25.26 1.58 1.02 2.7 1.79 4.15 2.15"/><path id="kvg:09197-s12" kvg:type="㇒" d="M94.97 21.65c.03.26.06.66-.05 1.03-.65 2.17-4.39 6.94-9.5 9.85"/></g></g><g id="kvg:09197-g9" kvg:position="bottom"><g id="kvg:09197-g10" kvg:element="二"><g id="kvg:09197-g11" kvg:position="top"><path id="kvg:09197-s13" kvg:type="㇐" d="M51.78 48.93c.96.36 2.72.46 3.68.36 6.12-.62 20.36-2.13 26.72-3.17 1.58-.26 2.56-.3 3.36-.12"/></g><g id="kvg:09197-g12" kvg:position="bottom"><path id="kvg:09197-s14" kvg:type="㇐" d="M46.62 67.39c.75.38 3.74.43 4.5.38 7.88-.52 35.42-3.83 40.08-3.38 1.25.12 3.62.18 4.25.37"/></g></g><g id="kvg:09197-g13" kvg:element="儿" kvg:variant="true" kvg:original="八"><g id="kvg:09197-g14" kvg:element="丿" kvg:position="left"><path id="kvg:09197-s15" kvg:type="㇒" d="M61.49 51.5c.56.96 1.08 2.63 1 4.13C61.5 73.25 56.35 89.48 43.6 95.17"/></g><g id="kvg:09197-g15" kvg:position="right"><path id="kvg:09197-s16" kvg:type="㇟" d="M74.25 50.37c.61.63 1.19 2.59 1.22 4.43.12 8.19-.31 21.64-.31 27.2.0 13 2.59 12.03 10.5 12.03 11.1.0 11.22-2.53 11.22-9.62"/></g></g></g></g></g></g></svg>