<svg xmlns="http://www.w3.org/2000/svg" width="109" height="109" viewBox="0 0 109 109"><g id="kvg:StrokePaths_0919c"><g id="kvg:0919c" kvg:element="醜"><g id="kvg:0919c-g1" kvg:element="酉" kvg:position="left" kvg:radical="general" kvg:phon="酉"><g id="kvg:0919c-g2" kvg:element="西" kvg:part="1" kvg:original="襾"><path id="kvg:0919c-s1" kvg:type="㇐" d="M10.11 24.07c1.8.94 4.44.86 6.4.71 7.55-.58 20.45-1.83 23.26-2.05 1.71-.14 3.64-.34 5.11.12"/><path id="kvg:0919c-s2" kvg:type="㇑" d="M11.41 38.67c.84.84 1.1 2.08 1.1 3.45.0.65.03 27.97.09 40.06.02 3.4-.1 5.99-.1 6.08"/><path id="kvg:0919c-s3" kvg:type="㇕a" d="M13.47 40.66c4.55-.58 20.45-2.99 25.67-3.73 3.94-.56 5.19.92 5.17 4.7-.03 5.99.08 27.38.05 38.62-.01 1.94-.01 3.56-.01 4.75"/><path id="kvg:0919c-s4" kvg:type="㇒" d="M24.23 26.75c.63.63.94 1.62.91 3.03-.27 12.84-1.77 19.09-8.7 29.57"/><path id="kvg:0919c-s5" kvg:type="㇟a" d="M31.57 26.48c.85.85 1.08 1.81 1.11 3.44.09 5.18.0 11.34.0 18.17.0 5.56.94 6.7 4.68 6.7 3.29.0 5.02-.19 5.34-.82"/></g><g id="kvg:0919c-g3" kvg:element="一"><path id="kvg:0919c-s6" kvg:type="㇐a" d="M13.66 70.2c7.22-.58 18.84-2.08 29.37-2.68"/></g><g id="kvg:0919c-g4" kvg:element="西" kvg:part="2" kvg:original="襾"><path id="kvg:0919c-s7" kvg:type="㇐a" d="M13.5 84.2c8.87-.82 21.28-1.88 29.77-2.26"/></g></g><g id="kvg:0919c-g5" kvg:element="鬼" kvg:position="right"><g id="kvg:0919c-g6" kvg:element="丿"><path id="kvg:0919c-s8" kvg:type="㇒" d="M70.06 13.5c.06.98.04 1.62-.41 2.51-2.15 4.24-3.51 6.79-7.6 11.74"/></g><g id="kvg:0919c-g7" kvg:element="田"><path id="kvg:0919c-s9" kvg:type="㇑" d="M51.87 29.37c.69.69 1.13 2.13 1.28 3.5.74 7.14 1.6 14.56 2.12 22.63.12 1.92.25 3.8.38 5.57"/><path id="kvg:0919c-s10" kvg:type="㇕a" d="M53.71 31.45c10.12-1.43 23.41-3.13 31.42-3.84 4.23-.37 6.26.44 5.75 5.03-.49 4.39-1.18 10.6-3 17.96-.44 1.78-.96 3.63-1.59 5.53"/><path id="kvg:0919c-s11" kvg:type="㇑a" d="M69.98 31.33c.97.97 1.32 2.33 1.32 3.41.0 4.89-.09 12.34-.04 19.76"/><path id="kvg:0919c-s12" kvg:type="㇐a" d="M55.51 44.32C65.75 43.12 79 41.75 88.69 41.2"/><path id="kvg:0919c-s13" kvg:type="㇐a" d="M56.68 57.39c9.95-1.02 20.45-2.27 28.95-2.88"/></g><g id="kvg:0919c-g8" kvg:element="儿" kvg:variant="true" kvg:original="八"><g id="kvg:0919c-g9" kvg:element="丿" kvg:position="left"><path id="kvg:0919c-s14" kvg:type="㇒" d="M63.63 60c.23.72.43 1.9.08 3.06C61 72.12 55.62 83.25 42.25 94.5"/></g><g id="kvg:0919c-g10" kvg:position="right"><path id="kvg:0919c-s15" kvg:type="㇟" d="M72.18 58.12c1.16 1.16 1.56 2.38 1.56 4.13.0 5.25-.12 13.1-.12 23.87.0 9 1.38 10.16 12.24 10.16C96.62 96.28 98 95 98 87.77"/></g></g><g id="kvg:0919c-g11" kvg:element="厶"><path id="kvg:0919c-s16" kvg:type="㇜" d="M86.07 62.47c.19.38.06 2.09-.06 2.58-1.18 4.63-2.43 9.59-4.71 14.02-.67 1.3-.17 2.42 1.33 1.8 3.62-1.51 5.17-2.03 8.82-3.61"/><path id="kvg:0919c-s17" kvg:type="㇔" d="M90.22 71.99c1.41 1.42 4.5 7.02 4.85 9.22"/></g></g></g></g></svg>