<svg xmlns="http://www.w3.org/2000/svg" width="109" height="109" viewBox="0 0 109 109"><g id="kvg:StrokePaths_091af"><g id="kvg:091af" kvg:element="醯"><g id="kvg:091af-g1" kvg:element="酉" kvg:position="left" kvg:radical="general"><g id="kvg:091af-g2" kvg:element="西" kvg:part="1" kvg:original="襾"><path id="kvg:091af-s1" kvg:type="㇐" d="M10.49 20.19c.57.42 3.41 1.03 3.99.97 5.97-.6 21.74-1.35 24.26-1.63 1.43-.16 3.03-.69 4.26-.15"/><path id="kvg:091af-s2" kvg:type="㇑" d="M12.88 37.75c.38.76.53 2.59.53 3.6s-.13 52.65.0 53.66"/><path id="kvg:091af-s3" kvg:type="㇕a" d="M13.6 39.83c2.16-.13 22.23-2.33 24.19-2.65 2.04-.33 3.72 1.22 3.72 4.08.0 1.6-.32 51.88-.32 52.63"/><path id="kvg:091af-s4" kvg:type="㇒" d="M22.66 23.35c.67 1.27 1.09 3.02.99 4.77-.91 16.19-2.78 25.61-6.8 33.45"/><path id="kvg:091af-s5" kvg:type="㇟a" d="M30.64 22.64c.38 1.34.69 2.93.71 5 .07 6.58-.17 14.95-.21 23.07-.03 7.06 1.67 8.51 4.38 8.51 2.74.0 4.64-.24 4.9-1.04"/></g><g id="kvg:091af-g3" kvg:element="一"><path id="kvg:091af-s6" kvg:type="㇐a" d="M13.98 76.78c2.93.0 23.49-1.73 26.8-1.73"/></g><g id="kvg:091af-g4" kvg:element="西" kvg:part="2" kvg:original="襾"><path id="kvg:091af-s7" kvg:type="㇐a" d="M13.84 91.61c5.96-.55 19.5-.98 26.92-1.45"/></g></g><g id="kvg:091af-g5" kvg:position="right"><g id="kvg:091af-g6" kvg:position="top"><g id="kvg:091af-g7" kvg:element="㐬"><g id="kvg:091af-g8" kvg:position="top"><g id="kvg:091af-g9" kvg:element="亠"><path id="kvg:091af-s8" kvg:type="㇑a" d="M68.77 10.75c.61.38 1.61 1.85 1.61 2.6.0 2.78-.19 4.95-.08 7.31"/><path id="kvg:091af-s9" kvg:type="㇐" d="M48.7 22.16c1 .06 3.3.39 4.27.31 7.89-.66 29.42-2.35 39.43-2.52 1.66-.03 2.5.03 3.74.4"/></g><g id="kvg:091af-g10" kvg:element="厶"><path id="kvg:091af-s10" kvg:type="㇜" d="M64.86 23.09c-.11.91.12 1.98-.15 2.33-3.29 4.48-4.3 4.19-8.57 8.57-2.17 2.22-1.39 2.47 1.38 1.9 7.53-1.56 18.93-3.17 27.99-4.75"/><path id="kvg:091af-s11" kvg:type="㇔" d="M79.85 26.85c3.56 1.75 9.19 7.18 10.08 9.89"/></g></g><g id="kvg:091af-g11" kvg:element="川" kvg:variant="true" kvg:original="巛" kvg:position="bottom"><path id="kvg:091af-s12" kvg:type="㇒" d="M56.73 43.53c.14.31.28 1.12.25 1.75C56.75 51.75 54 57.5 48.56 61.72"/><path id="kvg:091af-s13" kvg:type="㇑" d="M67.89 41.61c.07.3.92 1.58.99 3.5.32 9.22-.2 11.07-.2 14.21"/><path id="kvg:091af-s14" kvg:type="㇟" d="M80.97 38.85c.54.6.96 1.31.99 2.24.14 4.15-.38 8.19-.38 11.01.0 4.9 1.67 5.85 7.34 5.85 7.58.0 8.58-1.2 8.58-4.63"/></g></g></g><g id="kvg:091af-g12" kvg:element="皿" kvg:position="bottom"><path id="kvg:091af-s15" kvg:type="㇑a" d="M53.33 66.19c.48.77 1.1 1.61 1.21 2.27.81 5.2 1.47 18.25 2.02 27.59"/><path id="kvg:091af-s16" kvg:type="㇕b" d="M54.79 68.32c8.64-1.08 30.98-2.81 34.11-2.67 1.36.06 2.15.71 1.98 1.75-.48 2.98-2.15 22.07-3.15 26.14"/><path id="kvg:091af-s17" kvg:type="㇑a" d="M65.37 68.48c.2.49.4.91.49 1.53.69 4.91.71 16.29 1.18 25.11"/><path id="kvg:091af-s18" kvg:type="㇑a" d="M77.48 68.38c.37.59.72 1.6.66 2.37-.6 7.59-.46 13.84-1.21 23.57"/><path id="kvg:091af-s19" kvg:type="㇐" d="M46.63 95.93c1.31.48 3.72.56 5.03.48 13.65-.8 19.76-2.22 44.88-2.35 2.19-.01 3.5.23 4.59.47"/></g></g></g></g></svg>