<svg xmlns="http://www.w3.org/2000/svg" width="109" height="109" viewBox="0 0 109 109"><g id="kvg:StrokePaths_091cb"><g id="kvg:091cb" kvg:element="釋"><g id="kvg:091cb-g1" kvg:element="釆" kvg:position="left" kvg:radical="general"><g id="kvg:091cb-g2" kvg:element="丿" kvg:position="top"><path id="kvg:091cb-s1" kvg:type="㇒" d="M40.25 11.64c.08.31.26.88-.15 1.27C34.75 18 24 23 14.47 25.26"/></g><g id="kvg:091cb-g3" kvg:element="米" kvg:variant="true" kvg:position="bottom"><path id="kvg:091cb-s2" kvg:type="㇔" d="M15.42 31.94c2.1 1.93 5.27 7.37 5.79 10.37"/><path id="kvg:091cb-s3" kvg:type="㇒" d="M44.7 25.8c.02.32.1.85-.04 1.27-1.13 3.44-2.95 7.48-6.68 12.2"/><path id="kvg:091cb-s4" kvg:type="㇐" d="M12.5 49.35c.6.24 2.22.87 3.81.73 6.63-.58 18.44-2.83 25.42-2.86 1.61-.01 2.01-.24 3.01.0"/><path id="kvg:091cb-s5" kvg:type="㇑" d="M29.41 24.29c.7.49 1.12 2.2 1.25 3.17.14.98.0 64.18-.14 70.28"/><path id="kvg:091cb-s6" kvg:type="㇒" d="M30.66 48.65c-3.57 11.02-12.25 26.49-20.27 32.84"/><path id="kvg:091cb-s7" kvg:type="㇔/㇏" d="M33.81 55.36c2.8 1.44 9.03 8.95 10.11 12"/></g></g><g id="kvg:091cb-g4" kvg:element="睪" kvg:position="right"><g id="kvg:091cb-g5" kvg:element="罒" kvg:variant="true" kvg:original="网" kvg:position="top"><path id="kvg:091cb-s8" kvg:type="㇑" d="M49.5 14.42c.23.27 1.45 1.85 1.55 2.19.8 2.7 2.24 8.79 2.79 13.64"/><path id="kvg:091cb-s9" kvg:type="㇕a" d="M50.93 16.25c8.89-1.06 38.66-3.41 41.36-3.77.98-.13 2.32.91 2.06 2.43-.55 3.17-1.9 8.15-3.37 12.67"/><path id="kvg:091cb-s10" kvg:type="㇑a" d="M64.73 15.64c.16 1.8 1.24 9.66 1.39 11.69"/><path id="kvg:091cb-s11" kvg:type="㇑a" d="M79.28 14.52c-.15 2.92-.93 9.66-1.24 11.46"/><path id="kvg:091cb-s12" kvg:type="㇐a" d="M54.08 28.33c5.51-.33 27.64-2.35 37.26-2.61"/></g><g id="kvg:091cb-g6" kvg:element="幸" kvg:position="bottom"><g id="kvg:091cb-g7" kvg:element="土" kvg:position="top"><path id="kvg:091cb-s13" kvg:type="㇐" d="M55.32 39.29c.95.3 2.68.38 3.62.3 12.13-1.02 17.21-2.34 29.42-2.6 1.57-.03 2.52.14 3.3.29"/><path id="kvg:091cb-s14" kvg:type="㇑a" d="M71.31 31.25c.07.23.98 1.21.98 2.69.0 9.6-.11 10.9-.11 13.31"/><path id="kvg:091cb-s15" kvg:type="㇐" d="M49.63 49.36c1.15.56 3.26.64 4.42.56 13.73-.91 29.2-3.17 39.8-3.61 1.92-.08 3.07.27 4.03.55"/></g><g id="kvg:091cb-g8" kvg:element="𢆉"><g id="kvg:091cb-g9" kvg:element="䒑" kvg:part="1"><path id="kvg:091cb-s16" kvg:type="㇔" d="M58.91 53.23c1.57 1.37 4.05 5.63 4.44 7.75"/><path id="kvg:091cb-s17" kvg:type="㇒" d="M82.47 50.25c.01.26.02.66-.02 1.03-.27 2.17-1.78 6.92-3.86 9.83"/></g><g id="kvg:091cb-g10" kvg:element="干" kvg:position="bottom"><g id="kvg:091cb-g11" kvg:element="䒑" kvg:part="2"><path id="kvg:091cb-s18" kvg:type="㇐" d="M49.71 64.49c.82.48 3.66.51 4.48.43 5.69-.56 29.42-2.38 39.13-3.32 1.37-.13 4.24.41 4.92.65"/></g><g id="kvg:091cb-g12" kvg:element="十"><path id="kvg:091cb-s19" kvg:type="㇐" d="M52.74 77.72c1.26.39 3.59.5 4.85.39 8.69-.73 21.67-2.52 31.67-2.78 2.11-.05 3.37.19 4.43.38"/><path id="kvg:091cb-s20" kvg:type="㇑" d="M71.52 65.49c.3.4.93 2.23.99 3.04.06.81-.04 25.43-.1 30.47"/></g></g></g></g></g></g></g></svg>