<svg xmlns="http://www.w3.org/2000/svg" width="109" height="109" viewBox="0 0 109 109"><g id="kvg:StrokePaths_091c7" style="fill:none;stroke:#000000;stroke-width:3;stroke-linecap:round;stroke-linejoin:round;"><g id="kvg:091c7" kvg:element="采"><g id="kvg:091c7-g1" kvg:element="⺤" kvg:variant="true" kvg:original="爪" kvg:position="top" kvg:radical="general"><path id="kvg:091c7-s1" kvg:type="㇒" d="M69.02 11.68c-.4 1.07-1.02 1.57-2.29 2.38-4.96 3.16-18.84 8.15-37 11.61"/><path id="kvg:091c7-s2" kvg:type="㇔" d="M23.27 32.86c3.24 2.13 8.37 8.76 9.18 12.07"/><path id="kvg:091c7-s3" kvg:type="㇔" d="M47.27 27.7c3.02 2.42 7.78 9.95 8.54 13.71"/><path id="kvg:091c7-s4" kvg:type="㇒" d="M86.01 23.28c.08.91-.3 1.97-.68 2.75-2.22 4.62-7.74 12.05-14.95 17.95"/></g><g id="kvg:091c7-g2" kvg:element="木" kvg:position="bottom"><path id="kvg:091c7-s5" kvg:type="㇐" d="M19 59.25c3.11 1.2 7.13.69 10.38.51 10.76-.61 35.24-1.66 49.75-2.28 3.22-.14 6.47.14 9.62.77"/><path id="kvg:091c7-s6" kvg:type="㇑" d="M52.94 46c1.09 1.09 1.41 2.25 1.41 3.95.0 3.09-.06 27.49-.09 40.92-.01 3.08-.01 5.59-.01 7.12"/><path id="kvg:091c7-s7" kvg:type="㇒" d="M52.25 59.7c0 1.3-.5 2.43-1.75 4.02-7.22 9.24-21.89 20.94-34.25 26.93"/><path id="kvg:091c7-s8" kvg:type="㇏" d="M55.5 60c4.84 5.13 17.32 16.16 24.72 22.51C83.12 85 86 86.75 89 88.25"/></g></g></g></svg>