<svg xmlns="http://www.w3.org/2000/svg" width="109" height="109" viewBox="0 0 109 109"><g id="kvg:StrokePaths_091cd"><g id="kvg:091cd" kvg:element="重"><g id="kvg:091cd-g1" kvg:element="千" kvg:part="1"><g id="kvg:091cd-g2" kvg:element="丿" kvg:radical="nelson"><path id="kvg:091cd-s1" kvg:type="㇒" d="M67.25 11.17c-.38 1.08-1 2.08-2.99 2.89-5.43 2.22-16.96 5.78-36 8.72"/></g><g id="kvg:091cd-g3" kvg:element="十" kvg:part="1"><path id="kvg:091cd-s2" kvg:type="㇐" d="M12.75 33.95c4.38.93 7.82.32 11.49-.04 13.33-1.33 41.94-3.94 58.24-4.86 3.86-.22 7.64-.42 11.52.25"/></g></g><g id="kvg:091cd-g4" kvg:element="里" kvg:radical="tradit"><path id="kvg:091cd-s3" kvg:type="㇑" d="M28.69 44.28c.7.7 1.01 1.67 1.1 2.22 1.05 6.49 2.41 14.8 3.44 22.11.16 1.12.31 2.23.45 3.29"/><path id="kvg:091cd-s4" kvg:type="㇕a" d="M30.46 46.36c14.66-1.86 35.83-4.17 45.76-5.07 3.65-.33 5.01 2.6 4.83 3.78-.57 3.56-2.1 10.62-3.88 17.07-.38 1.39-.78 2.74-1.17 4.03"/><path id="kvg:091cd-s5" kvg:type="㇐a" d="M32.44 56.97c12.18-1.72 34.81-3.84 45.95-4.44"/><path id="kvg:091cd-s6" kvg:type="㇐a" d="M33.61 68.24c15.14-1.99 29.42-3.64 42.64-4.39"/><g id="kvg:091cd-g5" kvg:element="千" kvg:part="2"><g id="kvg:091cd-g6" kvg:element="十" kvg:part="2"><path id="kvg:091cd-s7" kvg:type="㇑a" d="M52.5 21.25c1.19 1.19 2 2.75 2 4.25.0 2.88-.25 59-.25 67.5"/></g></g><path id="kvg:091cd-s8" kvg:type="㇐" d="M31.41 80.64c1.97.48 4.36.39 6.34.16 10.25-1.18 24.22-2.59 33.98-3.53 2.2-.21 4.77-.4 6.42.04"/><path id="kvg:091cd-s9" kvg:type="㇐" d="M17.14 96.06c3.49.56 6.96.41 10.24.19 14.34-.96 35.76-3.23 51.12-3.97 3.48-.17 6.93-.13 10.37.51"/></g></g></g></svg>