<svg xmlns="http://www.w3.org/2000/svg" width="109" height="109" viewBox="0 0 109 109"><g id="kvg:StrokePaths_091ce"><g id="kvg:091ce" kvg:element="野"><g id="kvg:091ce-g1" kvg:element="里" kvg:position="left" kvg:radical="general"><g id="kvg:091ce-g2" kvg:element="日"><path id="kvg:091ce-s1" kvg:type="㇑" d="M12.5 18.54c1.25.96 1.45 2.21 1.62 3.18.98 5.66 2.66 16.78 3.4 25.76.08 1 .15 1.98.21 2.93"/><path id="kvg:091ce-s2" kvg:type="㇕a" d="M15.03 20.17c10.69-1.68 25.59-3.93 31.58-4.62 2.5-.29 3.63 1.82 3.4 3.34-.89 5.98-2.33 16.31-3.89 25.13-.23 1.31-.45 2.06-.65 3.21"/><path id="kvg:091ce-s3" kvg:type="㇐a" d="M16.74 34.44c2.97-.38 29.08-3.9 31.53-3.98"/><path id="kvg:091ce-s4" kvg:type="㇐a" d="M17.7 48.43c6.57-.22 18.7-2.92 27.77-3.37"/></g><path id="kvg:091ce-s5" kvg:type="㇑a" d="M30.97 19.87c.78 1.13 1.06 1.76 1.08 3.13.21 12.86.06 50.65.06 55.01"/><path id="kvg:091ce-s6" kvg:type="㇐" d="M15.75 62.75c1.72.5 3.79.44 4.95.25 7.75-1.25 14.9-3.05 23.1-4.25 1.7-.25 3.83-.25 5.45.0"/><path id="kvg:091ce-s7" kvg:type="㇀/㇐" d="M12.25 82.31c1.38 1.19 3.39 1.61 6.09.69 5.53-1.87 21.25-7.06 30.16-10"/></g><g id="kvg:091ce-g3" kvg:element="予" kvg:position="right" kvg:phon="予"><path id="kvg:091ce-s8" kvg:type="㇇" d="M57.51 16.84c2.11.66 4.23.51 6.25.19 7.36-1.16 19.6-3.31 21.94-3.78 2.6-.52 3.74 1.71 2.19 3.42-2.66 2.94-12.79 14.29-14.43 16.39"/><path id="kvg:091ce-s9" kvg:type="㇔" d="M63.88 28.5c2.86 1.21 10.28 5.85 11.62 9"/><g id="kvg:091ce-g4" kvg:element="了"><path id="kvg:091ce-s10" kvg:type="㇇a" d="M54.42 43.13c1.71.62 3.32.59 5.58.12 4.83-.99 24.38-4.62 28.75-5.5 10.94-2.19 3.5 5.25-.75 10.5"/><g id="kvg:091ce-g5" kvg:element="亅"><path id="kvg:091ce-s11" kvg:type="㇚" d="M73.51 48c1.12 1.12 1.57 2.38 1.57 4.41.0 2.04-.31 35.1-.31 38.84.0 10.75-7.08 1.18-9.5-.52"/></g></g></g></g></g></svg>