<!DOCTYPE svg PUBLIC "-//W3C//DTD SVG 1.0//EN" "http://www.w3.org/TR/2001/REC-SVG-20010904/DTD/svg10.dtd" [
<!ATTLIST g
xmlns:kvg CDATA #FIXED "http://kanjivg.tagaini.net"
kvg:element CDATA #IMPLIED
kvg:variant CDATA #IMPLIED
kvg:partial CDATA #IMPLIED
kvg:original CDATA #IMPLIED
kvg:part CDATA #IMPLIED
kvg:number CDATA #IMPLIED
kvg:tradForm CDATA #IMPLIED
kvg:radicalForm CDATA #IMPLIED
kvg:position CDATA #IMPLIED
kvg:radical CDATA #IMPLIED
kvg:phon CDATA #IMPLIED >
<!ATTLIST path
xmlns:kvg CDATA #FIXED "http://kanjivg.tagaini.net"
kvg:type CDATA #IMPLIED >
]><svg xmlns="http://www.w3.org/2000/svg" width="109" height="109" viewBox="0 0 109 109"><g id="kvg:StrokePaths_091d8" style="fill:none;stroke:#000000;stroke-width:3;stroke-linecap:round;stroke-linejoin:round;"><g id="kvg:091d8" kvg:element="釘"><g id="kvg:091d8-g1" kvg:element="金" kvg:position="left" kvg:radical="general"><path id="kvg:091d8-s1" kvg:type="㇒" d="M32.75 14.99c0 .75.05 1.34-.15 2.24-1.03 4.67-10.78 20.24-19.13 27.15"/><path id="kvg:091d8-s2" kvg:type="㇔/㇏" d="M34.89 20.46C39 22.25 44.25 27 46.25 31.5"/><path id="kvg:091d8-s3" kvg:type="㇐" d="M22.5 41.5c1.5.0 2.18.09 2.67.06 4.33-.31 10.33-1.53 15.44-1.75.74-.03.9-.05 2.15-.05"/><path id="kvg:091d8-s4" kvg:type="㇐" d="M15.59 56.54c.68.41 2.91.6 3.6.54 6.24-.62 15.62-3.12 23.62-3.33.85-.02 2.7-.17 3.96.19"/><path id="kvg:091d8-s5" kvg:type="㇑a" d="M32.45 43.69c1.24.78 1.24 2.52 1.24 3.14.0 4.35-.19 25.67-.19 35.48"/><path id="kvg:091d8-s6" kvg:type="㇔" d="M17.64 69.26c3.04 3.73 4.53 7.76 5.15 9.94"/><path id="kvg:091d8-s7" kvg:type="㇒" d="M43.79 60.55c.23.71.35 1.75.26 2.35-.23 1.54-2.05 4.36-4.63 8.88"/><path id="kvg:091d8-s8" kvg:type="㇀/㇐" d="M14.5 88.75c1.75 1 3.92 1.18 5 .75 1.25-.5 10.25-4.75 23.25-10.75"/></g><g id="kvg:091d8-g2" kvg:element="丁" kvg:position="right"><g id="kvg:091d8-g3" kvg:element="一"><path id="kvg:091d8-s9" kvg:type="㇐" d="M51.41 26.2c.93.42 2.65.53 3.58.42 9.57-1.12 27.57-4.56 39.08-5.11 1.56-.07 2.49.2 3.27.41"/></g><g id="kvg:091d8-g4" kvg:element="亅"><path id="kvg:091d8-s10" kvg:type="㇚" d="M76.66 26.57c.08.46 1.11 2.38 1.19 5.28.38 13.92-.24 50.86-.24 55.6.0 10.74-8.04.49-9.46-.71"/></g></g></g></g><g id="kvg:StrokeNumbers_091d8" style="font-size:8;fill:#808080"><text transform="matrix(1 0 0 1 25.50 15.13)">1</text><text transform="matrix(1 0 0 1 38.50 20.50)">2</text><text transform="matrix(1 0 0 1 27.50 38.50)">3</text><text transform="matrix(1 0 0 1 9.44 58.50)">4</text><text transform="matrix(1 0 0 1 25.50 50.50)">5</text><text transform="matrix(1 0 0 1 10.50 69.50)">6</text><text transform="matrix(1 0 0 1 36.50 63.50)">7</text><text transform="matrix(1 0 0 1 7.50 90.50)">8</text><text transform="matrix(1 0 0 1 50.50 24.50)">9</text><text transform="matrix(1 0 0 1 66.50 35.50)">10</text></g></svg>