<!DOCTYPE svg PUBLIC "-//W3C//DTD SVG 1.0//EN" "http://www.w3.org/TR/2001/REC-SVG-20010904/DTD/svg10.dtd" [
<!ATTLIST g
xmlns:kvg CDATA #FIXED "http://kanjivg.tagaini.net"
kvg:element CDATA #IMPLIED
kvg:variant CDATA #IMPLIED
kvg:partial CDATA #IMPLIED
kvg:original CDATA #IMPLIED
kvg:part CDATA #IMPLIED
kvg:number CDATA #IMPLIED
kvg:tradForm CDATA #IMPLIED
kvg:radicalForm CDATA #IMPLIED
kvg:position CDATA #IMPLIED
kvg:radical CDATA #IMPLIED
kvg:phon CDATA #IMPLIED >
<!ATTLIST path
xmlns:kvg CDATA #FIXED "http://kanjivg.tagaini.net"
kvg:type CDATA #IMPLIED >
]><svg xmlns="http://www.w3.org/2000/svg" width="109" height="109" viewBox="0 0 109 109"><g id="kvg:StrokePaths_091dc" style="fill:none;stroke:#000000;stroke-width:3;stroke-linecap:round;stroke-linejoin:round;"><g id="kvg:091dc" kvg:element="釜"><g id="kvg:091dc-g1" kvg:element="父" kvg:position="top" kvg:radical="nelson"><path id="kvg:091dc-s1" kvg:type="㇒" d="M43 16.18c.41.44-.09 1.92-.8 2.68-6.36 6.89-12.3 10.12-20.46 14.01"/><path id="kvg:091dc-s2" kvg:type="㇔" d="M67.75 15.86c8.28 4.2 13.11 8.7 17.25 13.81"/><g id="kvg:091dc-g2" kvg:element="金" kvg:part="1" kvg:radical="tradit"><path id="kvg:091dc-s3" kvg:type="㇒" d="M66.29 24.18c.21.82.19 2.21-1.07 3.48C54.5 38.5 37.75 50 13.75 58.47"/><path id="kvg:091dc-s4" kvg:type="㇏" d="M41.75 28.97c7.843307 3.534025 32.423148 19.365139 46.063148 25.285139 2.56 1.11 2.695418 1.10514 6.686852 2.794861"/></g></g><g id="kvg:091dc-g3" kvg:element="金" kvg:part="2" kvg:position="bottom" kvg:radical="tradit"><path id="kvg:091dc-s5" kvg:type="㇐" d="M38.77 55.33c.67.31 2.85.35 3.53.32 7.7-.4 16.95-1.15 26.88-2.46 1.02-.13 1.97.06 2.83.32"/><path id="kvg:091dc-s6" kvg:type="㇐" d="M26.55 69.04c1.09.48 4.71.74 5.82.63 6.4-.63 25.61-3.56 46.43-4.65 1.37-.07 4.37-.2 6.41.22"/><path id="kvg:091dc-s7" kvg:type="㇑" d="M52.97 57.82c.89.85.89 2.76.89 3.43.0 4.75.44 27.57.22 32.32"/><path id="kvg:091dc-s8" kvg:type="㇔" d="M32.75 76.25c5.17 4.88 7.7 10.16 8.75 13"/><path id="kvg:091dc-s9" kvg:type="㇒" d="M76.84 73.11c.54 1.12-.27 3.44-.89 4.19-3.7 4.45-6.95 8.7-11.2 13.45"/><path id="kvg:091dc-s10" kvg:type="㇐" d="M23.5 94.61c.73.28 4.38.92 6 .89 12.75-.25 32.81-2.61 55.82-2.61 2.19.0 4.83.36 5.93.7"/></g></g></g><g id="kvg:StrokeNumbers_091dc" style="font-size:8;fill:#808080"><text transform="matrix(1 0 0 1 36.50 15.50)">1</text><text transform="matrix(1 0 0 1 59.50 15.50)">2</text><text transform="matrix(1 0 0 1 58.50 25.50)">3</text><text transform="matrix(1 0 0 1 36.50 34.91)">4</text><text transform="matrix(1 0 0 1 44.50 52.50)">5</text><text transform="matrix(1 0 0 1 19.50 70.50)">6</text><text transform="matrix(1 0 0 1 46.44 64.50)">7</text><text transform="matrix(1 0 0 1 25.50 78.50)">8</text><text transform="matrix(1 0 0 1 67.44 75.50)">9</text><text transform="matrix(1 0 0 1 19.50 91.50)">10</text></g></svg>