<svg xmlns="http://www.w3.org/2000/svg" width="109" height="109" viewBox="0 0 109 109"><g id="kvg:StrokePaths_091e3"><g id="kvg:091e3" kvg:element="釣"><g id="kvg:091e3-g1" kvg:element="金" kvg:position="left" kvg:radical="general"><path id="kvg:091e3-s1" kvg:type="㇒" d="M32.5 14.49c0 .79.05 1.42-.14 2.37-1.01 4.94-10.89 21.94-19.13 29.26"/><path id="kvg:091e3-s2" kvg:type="㇔/㇏" d="M34.14 20.21c4.74 2.15 10.8 7.87 13.11 13.29"/><path id="kvg:091e3-s3" kvg:type="㇐" d="M22 41c1.41.0 2.72.07 4.13-.08 3.99-.43 10.08-1.72 14.5-2.04 1.12-.08 2.25-.13 3.38-.13"/><path id="kvg:091e3-s4" kvg:type="㇐" d="M14.34 56.06c2.29.44 4.02.36 5.7.14 6.09-.77 13.84-1.83 22.25-2.88.74-.09 2.09-.1 3.49-.1"/><path id="kvg:091e3-s5" kvg:type="㇑a" d="M31.95 42.94C33 44 33.19 45 33.19 46.58c0 4.35.06 28.29.06 36.23"/><path id="kvg:091e3-s6" kvg:type="㇔" d="M19.14 67.76c2.6 4.01 3.87 8.35 4.4 10.69"/><path id="kvg:091e3-s7" kvg:type="㇒" d="M45.02 61.42c.25.69.29 1.74.01 2.27-1.02 1.92-2.26 4.21-5.11 8.59"/><path id="kvg:091e3-s8" kvg:type="㇀/㇐" d="M15.75 88.5c.94.94 2.28 1.19 3.75.5 7.25-3.38 11.75-5.25 24.75-11.25"/></g><g id="kvg:091e3-g2" kvg:element="勺" kvg:position="right" kvg:phon="勺"><g id="kvg:091e3-g3" kvg:element="勹"><g id="kvg:091e3-g4" kvg:element="丿"><path id="kvg:091e3-s9" kvg:type="㇒" d="M64.27 15.5c.48 1 .21 1.98-.06 3.04-1.95 7.59-6.33 18.34-12.45 29.06"/></g><path id="kvg:091e3-s10" kvg:type="㇆" d="M61.69 33.46c1.94.41 3.75.44 5.04.23 4.9-.8 14.54-2.37 19.29-2.97 4.36-.56 7.23.12 7 5.19C92.38 49.5 88.88 71.38 83.88 87c-3.89 12.16-7.75 6.88-11.03 2.16"/></g><g id="kvg:091e3-g5" kvg:element="丶"><path id="kvg:091e3-s11" kvg:type="㇔" d="M58.79 52.17C62.84 55 69.24 63.82 70.25 68.23"/></g></g></g></g></svg>