<svg xmlns="http://www.w3.org/2000/svg" width="109" height="109" viewBox="0 0 109 109"><g id="kvg:StrokePaths_091e7"><g id="kvg:091e7" kvg:element="釧"><g id="kvg:091e7-g1" kvg:element="金" kvg:position="left" kvg:radical="general"><path id="kvg:091e7-s1" kvg:type="㇒" d="M31.5 17.24c.1 1.22-.35 2.64-.85 3.74-2.33 5.65-11.76 18.96-19.93 25.15"/><path id="kvg:091e7-s2" kvg:type="㇔/㇏" d="M34.89 21.96c4.48 2.54 7.98 5.29 10.86 9.54"/><path id="kvg:091e7-s3" kvg:type="㇐" d="M21.25 43c1.31.12 2.61.1 3.91-.05 4.09-.57 7.46-1.17 11.59-2 1.31-.26 2.66-.2 3.99-.19"/><path id="kvg:091e7-s4" kvg:type="㇐" d="M15.59 58.31c2.23.59 4.41.38 6.68-.08 5.73-1.14 13.3-3.01 18.86-4.33 1.59-.48 3.22-.62 4.89-.43"/><path id="kvg:091e7-s5" kvg:type="㇑a" d="M31.2 45.69c.99.99 1.24 1.81 1.24 3.14.0 4.35.06 28.67.06 34.23"/><path id="kvg:091e7-s6" kvg:type="㇔" d="M15.64 68.76c4.37 4.57 6.26 9.27 7.15 11.94"/><path id="kvg:091e7-s7" kvg:type="㇒" d="M43.53 60.8c.24.84.27 1.84.02 2.51-1.3 3.56-2.16 4.63-4.88 9.97"/><path id="kvg:091e7-s8" kvg:type="㇀/㇐" d="M15.25 90.5c.75 1 2.38 1.52 4.75.25 5.12-2.75 9.62-5.12 24.25-13"/></g><g id="kvg:091e7-g2" kvg:element="川" kvg:variant="true" kvg:original="巛" kvg:position="right"><path id="kvg:091e7-s9" kvg:type="㇒" d="M56 22.43c1.04 1.04 1.13 2.62 1.16 4.4.59 40.92-.78 52.05-10.66 62.92"/><path id="kvg:091e7-s10" kvg:type="㇑" d="M72.5 20.63c.87.87 1.16 2.12 1.16 3.4.0.53.05 25.89.07 41.34.01 5.61.02 9.67.02 11"/><path id="kvg:091e7-s11" kvg:type="㇑" d="M90.56 14.88c1.09 1.09 1.51 2.74 1.51 4.25.0.68.0 38.99.0 60.74.0 7.31.0 12.75.0 14.26"/></g></g></g></svg>