<svg xmlns="http://www.w3.org/2000/svg" width="109" height="109" viewBox="0 0 109 109"><g id="kvg:StrokePaths_091f6" style="fill:none;stroke:#000000;stroke-width:3;stroke-linecap:round;stroke-linejoin:round;"><g id="kvg:091f6" kvg:element="釶"><g id="kvg:091f6-g1" kvg:element="金" kvg:position="left" kvg:radical="general"><path id="kvg:091f6-s1" kvg:type="㇒" d="M28.75 12.99c0 .89.05 1.59-.15 2.66-1.03 5.54-10.78 24.03-19.13 32.23"/><path id="kvg:091f6-s2" kvg:type="㇔/㇏" d="M30.89 19.96C35 21.75 41.25 27.5 43.25 32"/><path id="kvg:091f6-s3" kvg:type="㇐" d="M18.75 41c1.68.0 2.44.09 2.98.06 4.84-.31 10.42-1.53 16.12-1.75.82-.03 1-.05 2.4-.05"/><path id="kvg:091f6-s4" kvg:type="㇐" d="M12.09 54.81c.59.33 2.56.48 3.17.43 5.49-.49 16.49-1.74 23.28-2.67.74-.1 2.38-.13 3.49.15"/><path id="kvg:091f6-s5" kvg:type="㇑a" d="M26.95 42.19c1.24.82 1.24 2.68 1.24 3.34.0 4.62.62 34.67.31 39.28"/><path id="kvg:091f6-s6" kvg:type="㇔" d="M13.64 65.76c3.93 5.23 5.85 10.89 6.65 13.94"/><path id="kvg:091f6-s7" kvg:type="㇒" d="M40.79 61.05c.23.71.35 1.75.26 2.35-.23 1.54-2.8 5.86-5.63 10.38"/><path id="kvg:091f6-s8" kvg:type="㇀/㇐" d="M11.5 90.25C13 92 14.92 91.93 16 91.5c1.25-.5 13.25-6.25 26.25-13.75"/></g><g id="kvg:091f6-g2" kvg:element="也" kvg:position="right"><path id="kvg:091f6-s9" kvg:type="㇆v" d="M47.25 47.74C50.5 49 53 49 55.79 48.26 64 46.09 84 39 90.36 36.61c2.64-.99 4.64.64 4.33 3.32C93.86 47.15 90.04 64.6 88 69.86c-2 5.14-4.25 3.64-6.55.5"/><path id="kvg:091f6-s10" kvg:type="㇑" d="M71.28 17.25c1.04.5 1.67 2.25 1.88 3.25s-.21 53.75-.21 60"/><g id="kvg:091f6-g3" kvg:element="乙" kvg:variant="true"><path id="kvg:091f6-s11" kvg:type="㇟" d="M55.96 26.87C57 28 57.73 30 57.73 31.97c0 6.86-.53 38.04-.53 46.28.0 14.51 1.8 16.26 20.34 16.26 18.21.0 19.85-2.25 19.85-13.07"/></g></g></g></g></svg>