<svg xmlns="http://www.w3.org/2000/svg" width="109" height="109" viewBox="0 0 109 109"><g id="kvg:StrokePaths_0920d"><g id="kvg:0920d" kvg:element="鈍"><g id="kvg:0920d-g1" kvg:element="金" kvg:position="left" kvg:radical="general"><path id="kvg:0920d-s1" kvg:type="㇒" d="M31.5 14.99c0 .78.05 1.4-.15 2.33-1.04 4.87-10.67 21.1-19.13 28.3"/><path id="kvg:0920d-s2" kvg:type="㇔/㇏" d="M33.89 20.96C38.12 23.25 42.5 27.5 45.25 32"/><path id="kvg:0920d-s3" kvg:type="㇐" d="M19 43.75c1.5.38 2.64.33 4.14.17 4.11-.44 10.2-1.81 15.13-2.65C39.5 41.07 40.51 41 41.75 41"/><path id="kvg:0920d-s4" kvg:type="㇐" d="M14.09 59.31c1.41.77 4.26.65 5.78.38 7.63-1.32 15.5-3.07 21.67-4.12.74-.12 2.38-.38 3.49-.1"/><path id="kvg:0920d-s5" kvg:type="㇑a" d="M30.95 45.44c.87.87.99 1.93.99 3.39.0 4.35.06 28.42.06 34.98"/><path id="kvg:0920d-s6" kvg:type="㇔" d="M18.64 70.26c2.6 4.01 3.87 8.35 4.4 10.69"/><path id="kvg:0920d-s7" kvg:type="㇒" d="M43.04 63.3c.23.71.24 1.54.01 2.1-.93 2.23-2.05 4.36-4.63 8.88"/><path id="kvg:0920d-s8" kvg:type="㇀/㇐" d="M14.25 91.25c.88.88 2 1 3.5.25 6-3 11.5-5.25 24.5-11.25"/></g><g id="kvg:0920d-g2" kvg:element="屯" kvg:position="right" kvg:phon="屯"><g id="kvg:0920d-g3" kvg:element="丿"><path id="kvg:0920d-s9" kvg:type="㇒" d="M83.49 23.54c0 .83-.5 1.8-1.17 2.29C76.62 30 67.37 34.87 50.3 40.6"/></g><g id="kvg:0920d-g4" kvg:element="屮" kvg:variant="true"><g id="kvg:0920d-g5" kvg:element="凵"><path id="kvg:0920d-s10" kvg:type="㇗a" d="M51.47 48.92c.81.81 1.14 1.96 1.08 3.42-.17 3.79-.27 7.92-.54 12.3-.14 2.26.0 3.12 2.15 2.69 10.59-2.11 19.35-3.57 29.55-5.06"/><path id="kvg:0920d-s11" kvg:type="㇑" d="M85.42 42.27c1.03 1.03 1.14 2.25 1.07 3.27-.23 3.65-.74 8.33-1.3 14.23-.17 1.76-.37 3.64-.6 5.62"/></g><g id="kvg:0920d-g6" kvg:element="丿" kvg:variant="true"><path id="kvg:0920d-s12" kvg:type="㇟" d="M66.12 13.37c1.32 1.32 1.52 2.5 1.52 4.63.0 9.04.1 51.35-.01 63.55-.1 11.03 1.41 12.72 13.53 12.72C94.92 94.27 96 93.08 96 84.21"/></g></g></g></g></g></svg>