<svg xmlns="http://www.w3.org/2000/svg" width="109" height="109" viewBox="0 0 109 109"><g id="kvg:StrokePaths_0920e"><g id="kvg:0920e" kvg:element="鈎"><g id="kvg:0920e-g1" kvg:element="金" kvg:position="left" kvg:radical="general"><path id="kvg:0920e-s1" kvg:type="㇒" d="M33.75 15.74c.1 1.37-.03 2.71-.56 3.95-3.07 7.18-12.31 22.49-20.97 29.93"/><path id="kvg:0920e-s2" kvg:type="㇔/㇏" d="M36 21.88c5.25 4 8.38 6.62 12 12.62"/><path id="kvg:0920e-s3" kvg:type="㇐" d="M21.75 43.5c1.47.15 2.93.1 4.37-.14 3.71-.54 8.38-1.36 13.01-2.39 1.34-.3 2.74-.23 4.11-.22"/><path id="kvg:0920e-s4" kvg:type="㇐" d="M15.59 57.56c2.08.56 4.12.27 6.26.04 5.8-.62 12.28-1.48 19.04-2.63 2.17-.37 4.24-.59 6.38-.49"/><path id="kvg:0920e-s5" kvg:type="㇑a" d="M30.7 45.19c1.06 1.06 1.24 1.93 1.24 3.14.0 5.26.06 32.54.06 37.98"/><path id="kvg:0920e-s6" kvg:type="㇔" d="M16.39 67.76c4.08 5.23 6.07 10.89 6.9 13.94"/><path id="kvg:0920e-s7" kvg:type="㇒" d="M44.67 63.05c.21 1.2-.03 2.17-.38 2.82-1.54 2.89-2.68 4.73-6.37 10.16"/><path id="kvg:0920e-s8" kvg:type="㇀/㇐" d="M13 91.58c1 .92 2.79 1.09 4 .68 1.4-.48 12.64-3.76 27.25-9.5"/></g><g id="kvg:0920e-g2" kvg:element="勾" kvg:position="right"><g id="kvg:0920e-g3" kvg:element="勹"><g id="kvg:0920e-g4" kvg:element="丿"><path id="kvg:0920e-s9" kvg:type="㇒" d="M66.25 15.25c.26 1.37.14 2.68-.36 3.92-2.5 7.55-7.28 18.82-14.27 28.58"/></g><path id="kvg:0920e-s10" kvg:type="㇆" d="M63.16 33.73c1.9.59 3.8.62 5.71.1 5.56-1.11 16.58-2.9 20.89-3.42 4.57-.56 5.69 1.38 5.33 5.37C94.65 40.69 91.01 78.43 85 93.41c-1.71 4.26-4.25-.16-6.69-2.67"/></g><g id="kvg:0920e-g5" kvg:element="厶"><path id="kvg:0920e-s11" kvg:type="㇜" d="M67.39 43.43c0 1.2-.01 2.34-.27 3.01-2.95 7.49-8.3 17.8-12.17 24.24-1.29 2.14-1.14 3.51 2.18 2.59 6.15-1.7 13.95-4.4 18.12-6.02"/><path id="kvg:0920e-s12" kvg:type="㇔" d="M72.09 58.24c4.09 4.22 7.15 10.86 8.04 16.59"/></g></g></g></g></svg>