<svg xmlns="http://www.w3.org/2000/svg" width="109" height="109" viewBox="0 0 109 109"><g id="kvg:StrokePaths_09215"><g id="kvg:09215" kvg:element="鈕"><g id="kvg:09215-g1" kvg:element="金" kvg:position="left" kvg:radical="general"><path id="kvg:09215-s1" kvg:type="㇒" d="M30.25 13.74c0 .83.06 1.49-.16 2.49-1.15 5.18-12.04 22.48-21.36 30.15"/><path id="kvg:09215-s2" kvg:type="㇔/㇏" d="M31.39 19.96C36 23 40.25 27.25 43.75 32.5"/><path id="kvg:09215-s3" kvg:type="㇐" d="M17.75 41.14c1.75.0 2.55.11 3.12.06 5.06-.36 10.91-1.29 16.87-1.55.86-.04 1.05-.06 2.51-.06"/><path id="kvg:09215-s4" kvg:type="㇐" d="M12.09 55.81c.59.33 2.56.48 3.17.43 5.49-.49 18.49-1.99 25.28-3.17.74-.13 2.38-.13 3.49.15"/><path id="kvg:09215-s5" kvg:type="㇑a" d="M27.95 43.69c1.24.78 1.24 2.52 1.24 3.14.0 4.35.62 32.63.31 36.98"/><path id="kvg:09215-s6" kvg:type="㇔" d="M14.39 67.26c4.08 4.85 6.07 10.11 6.9 12.94"/><path id="kvg:09215-s7" kvg:type="㇒" d="M42.2 61.05c.3.84.46 2.06.34 2.76-.3 1.81-2.71 5.13-6.12 10.47"/><path id="kvg:09215-s8" kvg:type="㇀/㇐" d="M12.5 90.25c1.25 1 2.75.75 4.5.25 1.29-.37 11.25-5.75 24.25-11.75"/></g><g id="kvg:09215-g2" kvg:element="丑" kvg:position="right"><path id="kvg:09215-s9" kvg:type="㇕" d="M47.2 19.89c1.29.66 2.69.87 4.22.81 10.58-.44 22.73-1.6 32-2.45 2.63-.24 3.73 2.02 3.31 5.02C85 35.5 83.62 73.98 81.64 91.44"/><path id="kvg:09215-s10" kvg:type="㇑" d="M63.78 20.4c.54.56 1.01 2.6.97 3.75-.43 12.02-5.73 58.77-6.91 68.56"/><g id="kvg:09215-g3" kvg:element="一"><path id="kvg:09215-s11" kvg:type="㇐" d="M48.87 55.59c1.2.61 3.41.71 4.62.61 11.26-.95 26.15-2.84 41.17-3.11 2.01-.03 3.21.29 4.22.59"/></g><path id="kvg:09215-s12" kvg:type="㇐" d="M40.5 93.19c1.34.68 3.8.88 5.15.73 8.6-.92 32.64-2.17 49.4-2.47 2.24-.04 3.58.32 4.7.66"/></g></g></g></svg>