<svg xmlns="http://www.w3.org/2000/svg" width="109" height="109" viewBox="0 0 109 109"><g id="kvg:StrokePaths_0921e" style="fill:none;stroke:#000000;stroke-width:3;stroke-linecap:round;stroke-linejoin:round;"><g id="kvg:0921e" kvg:element="鈞"><g id="kvg:0921e-g1" kvg:element="金" kvg:position="left" kvg:radical="general"><path id="kvg:0921e-s1" kvg:type="㇒" d="M32.75 13.24c0 .87.05 1.57-.16 2.62-1.12 5.46-11.76 23.68-20.87 31.76"/><path id="kvg:0921e-s2" kvg:type="㇔/㇏" d="M34.89 21.46c4.47 2.03 10.18 7.42 12.36 12.54"/><path id="kvg:0921e-s3" kvg:type="㇐" d="M21.5 42.5c1.5.0 2.18.09 2.67.06 4.33-.31 9.33-1.53 14.44-1.75.74-.03.9-.05 2.15-.05"/><path id="kvg:0921e-s4" kvg:type="㇐" d="M15.59 56.31c.59.33 2.56.48 3.17.43 5.49-.49 16.49-1.74 22.78-2.67.74-.11 2.38-.13 3.49.15"/><path id="kvg:0921e-s5" kvg:type="㇑a" d="M29.95 44.19c1.24.78 1.24 2.52 1.24 3.14.0 4.35.62 32.63.31 36.98"/><path id="kvg:0921e-s6" kvg:type="㇔" d="M14.89 66.26c4.08 4.85 6.07 10.11 6.9 12.94"/><path id="kvg:0921e-s7" kvg:type="㇒" d="M43.7 61.05c.3.84.46 2.06.34 2.76-.3 1.81-2.71 5.13-6.12 10.47"/><path id="kvg:0921e-s8" kvg:type="㇀/㇐" d="M14.5 90.75c1.25 1 2.75.75 4.5.25 1.29-.37 11.25-5.75 24.25-11.75"/></g><g id="kvg:0921e-g2" kvg:element="匀" kvg:position="right" kvg:phon="匀"><g id="kvg:0921e-g3" kvg:element="勹"><g id="kvg:0921e-g4" kvg:element="丿"><path id="kvg:0921e-s9" kvg:type="㇒" d="M63.3 13.75c.04.79.07 2.04-.07 3.18-.86 6.71-5.76 21.43-12.48 30.45"/></g><path id="kvg:0921e-s10" kvg:type="㇆" d="M61.04 32.42c1.46.33 3.12.27 4.6-.04 4.36-.89 20.54-3.41 24.14-3.64s5.12.3 4.78 5.19c-.79 11.29-3.75 44.6-9.24 58.98C83 99 79.75 97 77.56 90.76"/></g><g id="kvg:0921e-g5" kvg:element="冫" kvg:variant="true" kvg:original="二"><g id="kvg:0921e-g6" kvg:element="二" kvg:variant="true"><g id="kvg:0921e-g7" kvg:position="top"><path id="kvg:0921e-s11" kvg:type="㇐" d="M54.59 53.08c.49.24 2.13.36 2.63.32 4.56-.37 13.07-1.87 18.91-2 .62-.01 1.97-.1 2.9.11"/></g><g id="kvg:0921e-g8" kvg:position="bottom"><path id="kvg:0921e-s12" kvg:type="㇀" d="m54.52 73.85c1.12.32 2.37 1.26 4.31.38 5.41-2.45 15.7-7.52 21.11-9.96"/></g></g></g></g></g></g></svg>