<svg xmlns="http://www.w3.org/2000/svg" width="109" height="109" viewBox="0 0 109 109"><g id="kvg:StrokePaths_09229"><g id="kvg:09229" kvg:element="鈩"><g id="kvg:09229-g1" kvg:element="金" kvg:position="left" kvg:radical="general"><path id="kvg:09229-s1" kvg:type="㇒" d="M30.25 13.74c0 .78.05 1.41-.14 2.35C29.12 21 19.75 37.37 11.72 44.63"/><path id="kvg:09229-s2" kvg:type="㇔/㇏" d="M32.89 20.46c4.47 2.03 10.18 7.42 12.36 12.54"/><path id="kvg:09229-s3" kvg:type="㇐" d="M20 40.36c1.6.0 2.32.1 2.84.06 4.61-.35 9.94-1.72 15.37-1.97.79-.04.95-.06 2.29-.06"/><path id="kvg:09229-s4" kvg:type="㇐" d="M12.59 54.06c.65.41 2.77.53 3.44.54 6.97.15 17.47-2.35 24.71-3.37.8-.11 2.58-.17 3.78.19"/><path id="kvg:09229-s5" kvg:type="㇑a" d="M28.45 40.19c1.24.78 1.24 2.52 1.24 3.14.0 4.35-.38 37.63-.69 41.98"/><path id="kvg:09229-s6" kvg:type="㇔" d="M15.39 65.51c3.78 5.51 5.63 11.47 6.4 14.69"/><path id="kvg:09229-s7" kvg:type="㇒" d="M43.51 58.55c.45 1.04.69 2.56.51 3.44-.45 2.26-4.03 6.39-9.1 13.04"/><path id="kvg:09229-s8" kvg:type="㇀/㇐" d="M13.5 90.75c1.32 1 2.89.75 4.73.25 1.36-.37 11.84-5.75 25.52-11.75"/></g><g id="kvg:09229-g2" kvg:element="戸" kvg:position="right"><path id="kvg:09229-s9" kvg:type="㇐" d="M52.38 20.26c.94.3 3.66.33 4.6.3 9.77-.34 22.77-2.06 31.36-3.4 1.55-.24 3.5.14 4.29.29"/><path id="kvg:09229-s10" kvg:type="㇕c" d="M53.85 37.34c1.09.37 2.73 1.03 4.88.77 11.12-1.38 24.74-3.19 31.7-3.85 1.89-.18 3.79 1.23 3.08 3.95-1.26 4.81-1.66 7.4-3.31 15.55"/><path id="kvg:09229-s11" kvg:type="㇐b" d="M56.75 57.75c1.25.0 25.5-2.5 36.5-3.25"/><path id="kvg:09229-s12" kvg:type="㇒" d="M56.56 38.18c.04 1.41.27 2.59.28 4.62C56.95 68.41 53.5 88.5 43.5 97"/></g></g></g></svg>