<svg xmlns="http://www.w3.org/2000/svg" width="109" height="109" viewBox="0 0 109 109"><g id="kvg:StrokePaths_0927e"><g id="kvg:0927e" kvg:element="鉾"><g id="kvg:0927e-g1" kvg:element="金" kvg:position="left" kvg:radical="general"><path id="kvg:0927e-s1" kvg:type="㇒" d="M32.75 12.49c0 .82.05 1.48-.16 2.47C31.5 20.1 21.11 37.27 12.22 44.88"/><path id="kvg:0927e-s2" kvg:type="㇔/㇏" d="M34.14 18.71c4.74 2.15 10.8 7.87 13.11 13.29"/><path id="kvg:0927e-s3" kvg:type="㇐" d="M21 40.71c1.83.0 2.66.11 3.26.07 5.29-.39 11.39-1.91 17.62-2.19.9-.04 1.09-.07 2.62-.07"/><path id="kvg:0927e-s4" kvg:type="㇐" d="M15.09 54.64c.7.53 3 .78 3.72.7 6.44-.8 16.94-2.83 25.38-4.33.86-.15 1.79-.22 3.09.25"/><path id="kvg:0927e-s5" kvg:type="㇑a" d="M31.45 42.69c1.24.78 1.24 2.52 1.24 3.14.0 4.35.62 32.63.31 36.98"/><path id="kvg:0927e-s6" kvg:type="㇔" d="M17.14 66.26c3.93 4.29 5.85 8.93 6.65 11.44"/><path id="kvg:0927e-s7" kvg:type="㇒" d="M44.29 58.55c.23.71.49 1.79.26 2.35-1.3 3.11-3.05 5.36-5.63 9.88"/><path id="kvg:0927e-s8" kvg:type="㇀/㇐" d="M14 88.75c1.25 1.5 3.42 1.68 4.5 1.25 3.75-1.5 10.75-3.75 26.25-10.25"/></g><g id="kvg:0927e-g2" kvg:element="牟" kvg:position="right"><g id="kvg:0927e-g3" kvg:element="厶" kvg:position="top"><path id="kvg:0927e-s9" kvg:type="㇜" d="M71.91 9.99c.39.46-.09 2.17-.38 2.72-3.84 7.25-10.81 13.85-16.1 19.12-1.68 1.67-1.65 2.25.77 1.67 6.55-1.56 26.26-5.1 35.05-6.55"/><path id="kvg:0927e-s10" kvg:type="㇔" d="M83.59 17.65c4.05 3.05 10.46 12.56 11.47 17.31"/></g><g id="kvg:0927e-g4" kvg:element="牛" kvg:position="bottom"><path id="kvg:0927e-s11" kvg:type="㇒" d="M59.83 44.39c.02.44.05 1.15-.05 1.78-.59 3.76-4.01 12.02-8.69 17.07"/><path id="kvg:0927e-s12" kvg:type="㇐" d="M59.73 53.17c.69.38 1.95.42 2.64.38 9.13-.55 17.88-3.3 28.28-3.88 1.16-.06 1.84.18 2.41.37"/><path id="kvg:0927e-s13" kvg:type="㇐" d="M49.5 71.48c1.11.54 4.16.63 5.27.54 11.59-.91 23.66-4.02 40.58-4.23 1.86-.02 2.97.26 3.9.53"/><path id="kvg:0927e-s14" kvg:type="㇑" d="M72.7 40.38c.56.45 1.48 1.62 1.48 4.25.0 4.87-.07 49.52-.18 55.12"/></g></g></g></g></svg>