<!DOCTYPE svg PUBLIC "-//W3C//DTD SVG 1.0//EN" "http://www.w3.org/TR/2001/REC-SVG-20010904/DTD/svg10.dtd" [
<!ATTLIST g
xmlns:kvg CDATA #FIXED "http://kanjivg.tagaini.net"
kvg:element CDATA #IMPLIED
kvg:variant CDATA #IMPLIED
kvg:partial CDATA #IMPLIED
kvg:original CDATA #IMPLIED
kvg:part CDATA #IMPLIED
kvg:number CDATA #IMPLIED
kvg:tradForm CDATA #IMPLIED
kvg:radicalForm CDATA #IMPLIED
kvg:position CDATA #IMPLIED
kvg:radical CDATA #IMPLIED
kvg:phon CDATA #IMPLIED >
<!ATTLIST path
xmlns:kvg CDATA #FIXED "http://kanjivg.tagaini.net"
kvg:type CDATA #IMPLIED >
]><svg xmlns="http://www.w3.org/2000/svg" width="109" height="109" viewBox="0 0 109 109"><g id="kvg:StrokePaths_09283" style="fill:none;stroke:#000000;stroke-width:3;stroke-linecap:round;stroke-linejoin:round;"><g id="kvg:09283" kvg:element="銃"><g id="kvg:09283-g1" kvg:element="金" kvg:position="left" kvg:radical="general"><path id="kvg:09283-s1" kvg:type="㇒" d="M29 18.99c0 1.02-.04 1.71-.36 2.68-1.69 5.17-10 18.84-17.17 24.98"/><path id="kvg:09283-s2" kvg:type="㇔/㇏" d="M30.77 24.19c4.33 1.76 9.87 6.46 11.98 10.9"/><path id="kvg:09283-s3" kvg:type="㇐" d="M19.5 43.65C20.75 44 21.83 44 23 43.88c3.92-.41 8.92-1.74 13.63-2.49 1.07-.17 2.04-.2 3.12-.2"/><path id="kvg:09283-s4" kvg:type="㇐" d="M12.34 56.1c1.46.78 4.34.56 5.91.37 6.05-.75 15.56-2.63 21.79-3.55.74-.11 2.09-.29 3.49-.1"/><path id="kvg:09283-s5" kvg:type="㇑a" d="M27.7 45.55c.82.82 1.24 1.7 1.24 3.07.0 4.24.06 29.01.06 35.61"/><path id="kvg:09283-s6" kvg:type="㇔" d="M14.64 66.53c3.63 4.38 5.41 9.13 6.15 11.68"/><path id="kvg:09283-s7" kvg:type="㇒" d="M41.43 62.45c.32.79.45 2.02.11 2.6-1.79 3.07-2.82 4.84-6.37 9.86"/><path id="kvg:09283-s8" kvg:type="㇀/㇐" d="M13.5 89.04c1.12.96 2.47 1.14 4 .46 4.25-1.88 10-4.25 23.75-10.22"/></g><g id="kvg:09283-g2" kvg:element="充" kvg:position="right" kvg:phon="充"><g id="kvg:09283-g3" kvg:position="top"><g id="kvg:09283-g4" kvg:element="亠"><path id="kvg:09283-s9" kvg:type="㇑a" d="M68.33 17.49c1.09 1.09 1.46 2.38 1.46 3.84.0 3.57-.04 5.21-.04 9.66"/><path id="kvg:09283-s10" kvg:type="㇐" d="M48.85 33.81c2.5.17 4.65.37 7.15-.04 9.25-1.51 23.13-2.92 32.13-3.58 1.99-.15 4.09-.47 6.02.23"/></g><g id="kvg:09283-g5" kvg:element="允" kvg:part="1"><g id="kvg:09283-g6" kvg:element="厶"><path id="kvg:09283-s11" kvg:type="㇜" d="M68.09 35.85c.28 1.03.06 1.93-.6 2.77C62.88 44.5 59 48.12 53.76 52.83c-1.87 1.67-1.93 3.33.9 2.85 6.89-1.17 18.93-4.29 28.51-6.25"/><path id="kvg:09283-s12" kvg:type="㇔" d="M78 42.88c3.59 2.35 9.28 9.66 10.18 13.31"/></g></g></g><g id="kvg:09283-g7" kvg:element="允" kvg:part="2" kvg:position="bottom"><g id="kvg:09283-g8" kvg:element="儿"><g id="kvg:09283-g9" kvg:element="八" kvg:variant="true"><g id="kvg:09283-g10" kvg:element="丿" kvg:position="left"><path id="kvg:09283-s13" kvg:type="㇒" d="M61.36 58.27c.68.68.71 2.09.64 3.28-.5 7.95-8.75 24.95-20.88 32.18"/></g><g id="kvg:09283-g11" kvg:position="right"><path id="kvg:09283-s14" kvg:type="㇟" d="M73.39 54.81c.84.84 1.34 2.44 1.34 3.88.0 8.56-.07 20.61-.07 26.43.0 8.02 1.09 9.55 10.51 9.55 9.33.0 10.5-1.16 10.5-8.78"/></g></g></g></g></g></g></g><g id="kvg:StrokeNumbers_09283" style="font-size:8;fill:#808080"><text transform="matrix(1 0 0 1 20.50 19.50)">1</text><text transform="matrix(1 0 0 1 37.50 24.50)">2</text><text transform="matrix(1 0 0 1 24.50 40.50)">3</text><text transform="matrix(1 0 0 1 5.25 57.05)">4</text><text transform="matrix(1 0 0 1 22.50 52.50)">5</text><text transform="matrix(1 0 0 1 7.50 69.50)">6</text><text transform="matrix(1 0 0 1 33.75 63.50)">7</text><text transform="matrix(1 0 0 1 6.50 93.50)">8</text><text transform="matrix(1 0 0 1 58.50 17.50)">9</text><text transform="matrix(1 0 0 1 45.50 30.50)">10</text><text transform="matrix(1 0 0 1 54.50 42.50)">11</text><text transform="matrix(1 0 0 1 78.50 41.50)">12</text><text transform="matrix(1 0 0 1 50.50 66.50)">13</text><text transform="matrix(1 0 0 1 63.75 71.50)">14</text></g></svg>