<!DOCTYPE svg PUBLIC "-//W3C//DTD SVG 1.0//EN" "http://www.w3.org/TR/2001/REC-SVG-20010904/DTD/svg10.dtd" [
<!ATTLIST g
xmlns:kvg CDATA #FIXED "http://kanjivg.tagaini.net"
kvg:element CDATA #IMPLIED
kvg:variant CDATA #IMPLIED
kvg:partial CDATA #IMPLIED
kvg:original CDATA #IMPLIED
kvg:part CDATA #IMPLIED
kvg:number CDATA #IMPLIED
kvg:tradForm CDATA #IMPLIED
kvg:radicalForm CDATA #IMPLIED
kvg:position CDATA #IMPLIED
kvg:radical CDATA #IMPLIED
kvg:phon CDATA #IMPLIED >
<!ATTLIST path
xmlns:kvg CDATA #FIXED "http://kanjivg.tagaini.net"
kvg:type CDATA #IMPLIED >
]><svg xmlns="http://www.w3.org/2000/svg" width="109" height="109" viewBox="0 0 109 109"><g id="kvg:StrokePaths_0929b" style="fill:none;stroke:#000000;stroke-width:3;stroke-linecap:round;stroke-linejoin:round;"><g id="kvg:0929b" kvg:element="銛"><g id="kvg:0929b-g1" kvg:element="金" kvg:position="left" kvg:radical="general"><path id="kvg:0929b-s1" kvg:type="㇒" d="M32.25 14.24c0 .81.06 1.46-.17 2.43-1.16 5.06-12.18 21.96-21.61 29.45"/><path id="kvg:0929b-s2" kvg:type="㇔/㇏" d="M33.39 21.71c5.01 2.07 11.42 7.57 13.86 12.79"/><path id="kvg:0929b-s3" kvg:type="㇐" d="M19.75 41.5c1.68.0 2.44.09 2.98.06 4.84-.31 10.42-1.53 16.12-1.75.82-.03 1-.05 2.4-.05"/><path id="kvg:0929b-s4" kvg:type="㇐" d="M12.34 56.95c.69.29 2.97.42 3.68.38C22.4 56.9 34.3 55.15 42.47 55c.87-.02 2.76-.12 4.05.13"/><path id="kvg:0929b-s5" kvg:type="㇑a" d="M29.95 44.19c1.24.78 1.24 2.52 1.24 3.14.0 4.35.31 34.17.31 39.48"/><path id="kvg:0929b-s6" kvg:type="㇔" d="M15.89 67.26c4.08 4.85 6.07 10.11 6.9 12.94"/><path id="kvg:0929b-s7" kvg:type="㇒" d="M43.6 62.55c.38.84.33 2.16-.07 2.76-1.78 2.69-2.87 5.13-7.11 10.47"/><path id="kvg:0929b-s8" kvg:type="㇀/㇐" d="M15 91.81c1.28.92 2.82.69 4.62.23 1.33-.34 11.54-5.28 24.88-10.79"/></g><g id="kvg:0929b-g2" kvg:element="舌" kvg:position="right"><g id="kvg:0929b-g3" kvg:element="千" kvg:position="top"><path id="kvg:0929b-s9" kvg:type="㇒" d="M87.75 16.75c.09.39-.66 2.48-1.19 2.86C81.75 23 72.99 28.06 56 32.5"/><path id="kvg:0929b-s10" kvg:type="㇐" d="M50.33 49.16c1.02.34 3.58.43 4.6.34 8.82-.75 27.71-2.27 39.91-2.47 1.71-.03 2.73.16 3.58.34"/><path id="kvg:0929b-s11" kvg:type="㇑a" d="M71.92 31.5c.55.38 1.72 2.87 1.83 3.64.21 1.43-.07 28.06-.18 33"/></g><g id="kvg:0929b-g4" kvg:element="口" kvg:position="bottom"><path id="kvg:0929b-s12" kvg:type="㇑" d="M55.25 68.58c.48.41 1.06.73 1.18 1.27 1.31 5.9 2.31 15.9 2.81 24.65"/><path id="kvg:0929b-s13" kvg:type="㇕b" d="M57.37 70.06c10.88-.81 26.89-2.38 33.26-2.93 2.33-.2 2.85 1.99 2.67 3.2-1.04 6.92-2.04 12.67-3.27 19.92"/><path id="kvg:0929b-s14" kvg:type="㇐b" d="M59.51 92.45c7.84-.5 22.36-.87 33.12-1.64"/></g></g></g></g><g id="kvg:StrokeNumbers_0929b" style="font-size:8;fill:#808080"><text transform="matrix(1 0 0 1 24.50 13.50)">1</text><text transform="matrix(1 0 0 1 37.50 21.85)">2</text><text transform="matrix(1 0 0 1 25.50 38.50)">3</text><text transform="matrix(1 0 0 1 5.50 57.50)">4</text><text transform="matrix(1 0 0 1 24.50 51.85)">5</text><text transform="matrix(1 0 0 1 8.50 68.50)">6</text><text transform="matrix(1 0 0 1 37.50 65.50)">7</text><text transform="matrix(1 0 0 1 7.50 92.50)">8</text><text transform="matrix(1 0 0 1 79.50 16.50)">9</text><text transform="matrix(1 0 0 1 47.50 45.50)">10</text><text transform="matrix(1 0 0 1 63.50 39.50)">11</text><text transform="matrix(1 0 0 1 45.50 74.50)">12</text><text transform="matrix(1 0 0 1 57.50 66.50)">13</text><text transform="matrix(1 0 0 1 61.50 89.50)">14</text></g></svg>