<!DOCTYPE svg PUBLIC "-//W3C//DTD SVG 1.0//EN" "http://www.w3.org/TR/2001/REC-SVG-20010904/DTD/svg10.dtd" [
<!ATTLIST g
xmlns:kvg CDATA #FIXED "http://kanjivg.tagaini.net"
kvg:element CDATA #IMPLIED
kvg:variant CDATA #IMPLIED
kvg:partial CDATA #IMPLIED
kvg:original CDATA #IMPLIED
kvg:part CDATA #IMPLIED
kvg:number CDATA #IMPLIED
kvg:tradForm CDATA #IMPLIED
kvg:radicalForm CDATA #IMPLIED
kvg:position CDATA #IMPLIED
kvg:radical CDATA #IMPLIED
kvg:phon CDATA #IMPLIED >
<!ATTLIST path
xmlns:kvg CDATA #FIXED "http://kanjivg.tagaini.net"
kvg:type CDATA #IMPLIED >
]><svg xmlns="http://www.w3.org/2000/svg" width="109" height="109" viewBox="0 0 109 109"><g id="kvg:StrokePaths_092d2" style="fill:none;stroke:#000000;stroke-width:3;stroke-linecap:round;stroke-linejoin:round;"><g id="kvg:092d2" kvg:element="鋒"><g id="kvg:092d2-g1" kvg:element="金" kvg:position="left" kvg:radical="general"><path id="kvg:092d2-s1" kvg:type="㇒" d="M30.25 13.99c0 .78.05 1.4-.15 2.33-1.04 4.87-10.92 21.1-19.38 28.3"/><path id="kvg:092d2-s2" kvg:type="㇔/㇏" d="M32.39 20.46C36.5 22.25 41.75 27 43.75 31.5"/><path id="kvg:092d2-s3" kvg:type="㇐" d="M17.5 42.14c1.75.0 2.55.12 3.12.07 5.06-.41 10.91-2.01 16.87-2.3.86-.04 1.05-.07 2.51-.07"/><path id="kvg:092d2-s4" kvg:type="㇐" d="M12.59 57.31c.59.33 2.56.48 3.17.43 5.49-.49 16.24-2.99 22.78-4.17.73-.13 2.38-.13 3.49.15"/><path id="kvg:092d2-s5" kvg:type="㇑a" d="M28.45 43.69c1.24.78 1.24 2.52 1.24 3.14.0 4.35.31 33.42.31 39.48"/><path id="kvg:092d2-s6" kvg:type="㇔" d="M14.14 69.26c3.93 4.1 5.85 8.54 6.65 10.94"/><path id="kvg:092d2-s7" kvg:type="㇒" d="M42.1 62.05c.38.79.57 1.94.43 2.61-.38 1.71-3.37 4.84-7.61 9.87"/><path id="kvg:092d2-s8" kvg:type="㇀/㇐" d="M13 91.75c.52.23 2.42 1.18 3.5.75 1.25-.5 11.75-4.75 24.75-10.75"/></g><g id="kvg:092d2-g2" kvg:element="夆" kvg:position="right"><g id="kvg:092d2-g3" kvg:element="夂"><path id="kvg:092d2-s9" kvg:type="㇒" d="M64.32 10.25c.05.62.09 1.6-.09 2.49-1.06 5.24-7.15 16.74-15.48 23.78"/><path id="kvg:092d2-s10" kvg:type="㇇" d="M63.22 19.7c.29.03 1.5.0 2.31-.1 2.67-.32 9.71-2.03 13.52-3.03 2.61-.69 3.59.88 2.69 2.65C76.5 29.5 65.25 44.25 48.78 52.25"/><path id="kvg:092d2-s11" kvg:type="㇏" d="M58.53 26.07c4.62 3.7 25.55 17.77 31.77 21.16 1.86 1.01 3.36 1.5 5.17 1.8"/></g><g id="kvg:092d2-g4" kvg:element="丰"><g id="kvg:092d2-g5" kvg:element="三"><g id="kvg:092d2-g6" kvg:element="一" kvg:position="top"><path id="kvg:092d2-s12" kvg:type="㇐" d="M56.8 57.15c.81.37 2.29.46 3.1.37 9.35-1.02 14.6-2.27 22.4-3.26 1.34-.17 2.16.18 2.83.36"/></g><g id="kvg:092d2-g7" kvg:position="bottom"><g id="kvg:092d2-g8" kvg:element="一"><path id="kvg:092d2-s13" kvg:type="㇐" d="M54.3 67.9c.81.37 2.29.46 3.1.37 9.35-1.02 21.1-2.77 28.9-3.76 1.34-.17 2.16.18 2.83.36"/></g><g id="kvg:092d2-g9" kvg:element="一"><path id="kvg:092d2-s14" kvg:type="㇐" d="M47.8 79.75c1.35.62 3.83.75 5.17.62C65 79.25 81.5 76.75 91.4 76.42c2.25-.07 3.6.29 4.72.61"/></g></g></g><g id="kvg:092d2-g10" kvg:element="丨"><path id="kvg:092d2-s15" kvg:type="㇑" d="M69.08 47c.67.39 2.21 2.25 2.21 3.74.0 8.26.28 38.01.28 48.61"/></g></g></g></g></g><g id="kvg:StrokeNumbers_092d2" style="font-size:8;fill:#808080"><text transform="matrix(1 0 0 1 23.50 13.50)">1</text><text transform="matrix(1 0 0 1 36.66 19.50)">2</text><text transform="matrix(1 0 0 1 24.50 38.50)">3</text><text transform="matrix(1 0 0 1 5.50 57.50)">4</text><text transform="matrix(1 0 0 1 22.50 50.50)">5</text><text transform="matrix(1 0 0 1 6.50 68.50)">6</text><text transform="matrix(1 0 0 1 34.50 63.85)">7</text><text transform="matrix(1 0 0 1 4.50 93.85)">8</text><text transform="matrix(1 0 0 1 56.50 10.50)">9</text><text transform="matrix(1 0 0 1 69.50 14.50)">10</text><text transform="matrix(1 0 0 1 63.50 27.50)">11</text><text transform="matrix(1 0 0 1 48.50 58.50)">12</text><text transform="matrix(1 0 0 1 47.50 65.50)">13</text><text transform="matrix(1 0 0 1 44.50 76.50)">14</text><text transform="matrix(1 0 0 1 61.50 52.50)">15</text></g></svg>