<svg xmlns="http://www.w3.org/2000/svg" width="109" height="109" viewBox="0 0 109 109"><g id="kvg:StrokePaths_092f3"><g id="kvg:092f3" kvg:element="鋳"><g id="kvg:092f3-g1" kvg:element="金" kvg:position="left" kvg:radical="general"><path id="kvg:092f3-s1" kvg:type="㇒" d="M30.25 13.99c0 .79.05 1.42-.15 2.37-1.03 4.94-10.53 21.44-18.88 28.76"/><path id="kvg:092f3-s2" kvg:type="㇔/㇏" d="M32.64 20.46c4.02 1.95 9.15 7.13 11.11 12.04"/><path id="kvg:092f3-s3" kvg:type="㇐" d="M20.5 40c1.5.0 2.18.09 2.67.06C27.5 39.74 33 38.53 38.1 38.3c.74-.03.9-.05 2.15-.05"/><path id="kvg:092f3-s4" kvg:type="㇐" d="M12.84 55.31c1.49.82 4.46.56 6.06.33 5.61-.8 14.23-2.02 20.14-2.82.74-.1 2.38-.13 3.49.15"/><path id="kvg:092f3-s5" kvg:type="㇑a" d="M29.45 42.19c1.06 1.06 1.24 2.43 1.24 3.89.0 4.35.06 26.29.06 34.98"/><path id="kvg:092f3-s6" kvg:type="㇔" d="M17.14 67.01c2.6 4.01 3.87 8.35 4.4 10.69"/><path id="kvg:092f3-s7" kvg:type="㇒" d="M42.04 60.8c.23.71.25 1.54.01 2.1-.93 2.1-2.05 4.35-4.63 8.88"/><path id="kvg:092f3-s8" kvg:type="㇀/㇐" d="M14 87.5c1.25 1.12 2.39.99 4.25.25 1.25-.5 11.5-5 24.5-11"/></g><g id="kvg:092f3-g2" kvg:element="寿" kvg:position="right" kvg:phon="寿"><g id="kvg:092f3-g3" kvg:element="三"><g id="kvg:092f3-g4" kvg:element="一" kvg:position="top"><path id="kvg:092f3-s9" kvg:type="㇐" d="M50.56 25.65c2.94.35 5.07.22 7.33-.07 6.73-.86 17.81-2.55 25.5-3.12 2.5-.19 5.13-.45 7.59.16"/></g><g id="kvg:092f3-g5" kvg:position="bottom"><g id="kvg:092f3-g6" kvg:element="一"><path id="kvg:092f3-s10" kvg:type="㇐" d="M53.09 36.39c2.41.49 4.2.29 6.07.07 6.13-.72 16.38-2.22 22.34-2.84 1.9-.2 3.7-.38 5.57.14"/></g><g id="kvg:092f3-g7" kvg:element="一"><path id="kvg:092f3-s11" kvg:type="㇐" d="M47.4 49.26c2.85.61 5.41.23 7.72-.06 8.86-1.11 23.6-2.68 34.37-3.41 2.43-.17 4.75-.38 7.14.2"/></g></g></g><g id="kvg:092f3-g8" kvg:element="丿"><path id="kvg:092f3-s12" kvg:type="㇒" d="M68.89 12.25c1.05 1.05 1.09 2.41.97 4.56-1.61 27.44-3.74 55.44-24.9 73.48"/></g><g id="kvg:092f3-g9" kvg:element="寸"><path id="kvg:092f3-s13" kvg:type="㇐" d="M47.63 66.56c3.62.69 5.87.26 8.62-.02 12.63-1.3 21.75-2.42 36.13-3.78 2.86-.27 5.5-.39 8.25.17"/><path id="kvg:092f3-s14" kvg:type="㇚" d="M82.7 53.33c1.11 1.11 1.1 2.29 1.1 4.42.0 19.11-.04 29.69-.04 34.34.0 11.27-5.64 2.14-7.56.7"/><path id="kvg:092f3-s15" kvg:type="㇔" d="M63.38 74.25c2.7 1.43 6.96 5.89 7.63 8.12"/></g></g></g></g></svg>