<svg xmlns="http://www.w3.org/2000/svg" width="109" height="109" viewBox="0 0 109 109"><g id="kvg:StrokePaths_0930f" style="fill:none;stroke:#000000;stroke-width:3;stroke-linecap:round;stroke-linejoin:round;"><g id="kvg:0930f" kvg:element="錏"><g id="kvg:0930f-g1" kvg:element="金" kvg:position="left" kvg:radical="general"><path id="kvg:0930f-s1" kvg:type="㇒" d="M29.75 13.74c0 .87.05 1.57-.16 2.62-1.12 5.46-10.76 21.18-19.87 29.26"/><path id="kvg:0930f-s2" kvg:type="㇔/㇏" d="M30.89 21.46c4.47 2.03 10.18 7.42 12.36 12.54"/><path id="kvg:0930f-s3" kvg:type="㇐" d="M18.5 41.5c1.64.0 2.38.09 2.91.06 4.73-.31 10.18-1.53 15.75-1.75.81-.03.98-.05 2.34-.05"/><path id="kvg:0930f-s4" kvg:type="㇐" d="M11.59 55.31c.59.33 2.56.45 3.17.43C20.5 55.5 32 53.75 38.54 53.08c.74-.08 2.38-.13 3.49.15"/><path id="kvg:0930f-s5" kvg:type="㇑a" d="M25.95 43.19c1.24.78 1.24 2.52 1.24 3.14.0 4.35.31 32.92.31 38.48"/><path id="kvg:0930f-s6" kvg:type="㇔" d="M13.14 65.51c3.93 5.13 5.85 10.69 6.65 13.69"/><path id="kvg:0930f-s7" kvg:type="㇒" d="M39.65 61.55c.34.79.52 1.94.38 2.61C39.69 65.86 37 69 33.17 74.03"/><path id="kvg:0930f-s8" kvg:type="㇀/㇐" d="M11 90.75c1.25 1 2.75.75 4.5.25 1.29-.37 11.25-5.75 24.25-11.75"/></g><g id="kvg:0930f-g2" kvg:element="亞" kvg:position="right"><g id="kvg:0930f-g3" kvg:element="二" kvg:part="1"><path id="kvg:0930f-s9" kvg:type="㇐" d="M44.1 18.35c1.19.33 3.38.38 4.57.33 11.92-.47 28.82-1.84 42.66-1.83 1.99.0 3.18.16 4.17.33"/></g><path id="kvg:0930f-s10" kvg:type="㇑" d="M59.99 20.83c.68.92 1.22 2.42 1.22 4.02.0 3.65-.01 10.19-.01 15.15"/><path id="kvg:0930f-s11" kvg:type="㇐" d="M48.44 42.83c1.87-.14 13.62-1.27 15.15-1.41"/><path id="kvg:0930f-s12" kvg:type="㇞" d="M47.11 41.49c.74 1.06 1.3 2.15 1.31 3.63.02 3.13-.11 15.88-.18 20.21-.02.93.13 1.96 1.5 1.64 3.1-.72 7.01-1.4 10.27-1.99 1.24-.22 2.12.75 2.12 2.42.0 4.6-.12 15.85-.12 24.85"/><path id="kvg:0930f-s13" kvg:type="㇞" d="M76.99 18.99c.74 1.06.8 2.15.81 3.63.03 3.13-.96 11.88-1.03 16.21-.02.93.13 1.96 1.5 1.64 3.1-.72 10.55-1.35 13.77-1.99 1.91-.38 1.91.81 1.62 2.42-.56 3.1-1.46 15.43-2.04 20.85"/><path id="kvg:0930f-s14" kvg:type="㇐" d="M77.73 63.94c1.9-.19 14.54-1.69 16.1-1.88"/><path id="kvg:0930f-s15" kvg:type="㇑" d="M76 61.33c.72.96 1.28 2.54 1.28 4.23.0 3.84-.02 20.21-.02 25.43"/><g id="kvg:0930f-g4" kvg:element="二" kvg:part="2"><path id="kvg:0930f-s16" kvg:type="㇐" d="M41.5 93.51c1.36.65 3.87.72 5.23.65C59 93.5 80.73 91.08 93.98 91.1c2.27.0 3.64.31 4.77.63"/></g></g></g></g></svg>