<svg xmlns="http://www.w3.org/2000/svg" width="109" height="109" viewBox="0 0 109 109"><g id="kvg:StrokePaths_09310"><g id="kvg:09310" kvg:element="錐"><g id="kvg:09310-g1" kvg:element="金" kvg:position="left" kvg:radical="general"><path id="kvg:09310-s1" kvg:type="㇒" d="M30.25 14.99c0 .83.05 1.49-.14 2.49-.97 5.18-10.22 22.48-18.14 30.15"/><path id="kvg:09310-s2" kvg:type="㇔/㇏" d="M31.89 20.96c4.47 1.95 10.18 7.13 12.36 12.04"/><path id="kvg:09310-s3" kvg:type="㇐" d="M19.75 43.75c1.5.02 3.01.28 4.5.11 4.5-.49 7.88-1.36 12.24-1.98 1.16-.16 2.59-.38 3.76-.39"/><path id="kvg:09310-s4" kvg:type="㇐" d="M13.59 57.81c2.29.56 5.31.54 7.28.22 5.82-.95 12.25-1.91 18.6-2.91 1.9-.3 3.65-.38 5.3-.15"/><path id="kvg:09310-s5" kvg:type="㇑a" d="M29.2 46.19C30 47 30.19 48 30.19 49.33c0 4.35.06 31.29.06 36.73"/><path id="kvg:09310-s6" kvg:type="㇔" d="M16.14 70.01c2.61 3.49 5.28 8.88 5.9 11.44"/><path id="kvg:09310-s7" kvg:type="㇒" d="M44.12 64.05c0 1.2-.24 2.14-.59 2.88-1.28 2.7-3.16 5.82-7.36 11.6"/><path id="kvg:09310-s8" kvg:type="㇀/㇐" d="M14 91.33c1.25 1.05 2.8 1.06 4.82.18C22.25 90 29.96 87 44 81.25"/></g><g id="kvg:09310-g2" kvg:element="隹" kvg:position="right"><g id="kvg:09310-g3" kvg:element="亻" kvg:variant="true" kvg:original="人"><path id="kvg:09310-s9" kvg:type="㇒" d="M62.13 17.5c.16 1.63-.05 3.02-.57 4.41-3.36 8.9-7.61 16.69-15.3 27.52"/><path id="kvg:09310-s10" kvg:type="㇑" d="M54.94 38.65c.83.83.9 2.3.9 3.66.0 6.45-.05 30.06-.07 43.31-.01 5.1-.02 8.66-.02 9.13"/></g><path id="kvg:09310-s11" kvg:type="㇒" d="M79.69 18c.07.92-.22 1.88-.49 2.65-1.82 5.1-2.76 7.62-6.06 13.71"/><path id="kvg:09310-s12" kvg:type="㇐b" d="M56.16 38.41c6.85-.75 20.21-2.04 30.08-2.82 3.32-.26 5.77-.6 6.64-.77"/><path id="kvg:09310-s13" kvg:type="㇑a" d="M74.48 38.83c.97.97 1.13 2.54 1.13 3.79.0 9.69-.12 33.08-.12 44.62"/><path id="kvg:09310-s14" kvg:type="㇐b" d="M57.14 54.82c6.27-.42 19.33-1.39 27.24-2.09 2.96-.26 4.74-.37 5.96-.37"/><path id="kvg:09310-s15" kvg:type="㇐b" d="M57.05 71.29c6.2-.54 20.91-1.45 29.46-2.12 2.63-.21 3.73-.23 5.3-.23"/><path id="kvg:09310-s16" kvg:type="㇐b" d="M56.55 89.43c5.73-.31 23.08-1.26 33.19-1.86 3.69-.22 5.38-.2 7.26-.09"/></g></g></g></svg>