<svg xmlns="http://www.w3.org/2000/svg" width="109" height="109" viewBox="0 0 109 109"><g id="kvg:StrokePaths_09322"><g id="kvg:09322" kvg:element="錢"><g id="kvg:09322-g1" kvg:element="金" kvg:position="left" kvg:radical="general"><path id="kvg:09322-s1" kvg:type="㇒" d="M32.25 14.24c0 .85.05 1.54-.15 2.56-1.04 5.34-10.92 23.17-19.38 31.07"/><path id="kvg:09322-s2" kvg:type="㇔/㇏" d="M34.39 21.96c4.36 2.79 9.11 7.29 12.36 12.54"/><path id="kvg:09322-s3" kvg:type="㇐" d="M22 42c1.5.0 2.18.09 2.67.06C29 41.74 36 41.03 41.1 40.8c.74-.03.9-.05 2.15-.05"/><path id="kvg:09322-s4" kvg:type="㇐" d="M16.09 56.81c.59.33 2.56.48 3.17.43 5.49-.49 15.99-1.74 22.78-2.67.74-.1 2.38-.13 3.49.15"/><path id="kvg:09322-s5" kvg:type="㇑a" d="M29.95 43.69c1.24.78 1.24 2.52 1.24 3.14.0 4.35.31 34.92.31 40.98"/><path id="kvg:09322-s6" kvg:type="㇔" d="M16.64 67.26c3.93 5.23 5.85 10.89 6.65 13.94"/><path id="kvg:09322-s7" kvg:type="㇒" d="M43.7 62.55c.3.84.46 2.06.34 2.76-.3 1.81-3.21 6.13-6.62 11.47"/><path id="kvg:09322-s8" kvg:type="㇀/㇐" d="M15.5 92.79c1.27.94 2.8.7 4.58.24 1.32-.35 11.45-5.4 24.67-11.03"/></g><g id="kvg:09322-g2" kvg:element="戔" kvg:position="right"><g id="kvg:09322-g3" kvg:element="戈" kvg:position="top"><g id="kvg:09322-g4" kvg:element="弋" kvg:part="1"><path id="kvg:09322-s9" kvg:type="㇐" d="M51.72 30.45c.91.44 2.59.5 3.5.44 7.11-.41 18.47-3.85 26.7-4.46 1.52-.11 2.43.21 3.2.43"/><path id="kvg:09322-s10" kvg:type="㇂" d="M58.56 13c1.3.8 1.89 1.95 2.16 3.67C63 31.07 71.26 45.13 87.14 50.5c5.1 1.72 5.01-.29 3.73-5.97"/></g><g id="kvg:09322-g5" kvg:element="丿"><path id="kvg:09322-s11" kvg:type="㇒" d="M82.43 33.2c-.18.6-.36 1.23-.78 1.78-3.71 4.82-13.56 11.76-29.07 17.47"/></g><g id="kvg:09322-g6" kvg:element="弋" kvg:part="2"><g id="kvg:09322-g7" kvg:element="丶"><path id="kvg:09322-s12" kvg:type="㇔" d="M69.92 11.18c2.93 1.35 7.62 4.44 8.99 6.75"/></g></g></g><g id="kvg:09322-g8" kvg:element="戈" kvg:position="bottom"><g id="kvg:09322-g9" kvg:element="弋" kvg:part="1"><path id="kvg:09322-s13" kvg:type="㇐" d="M52.77 68.13c.96.44 2.73.57 3.69.44 8.42-1.12 23.51-3.33 32.18-3.93 1.6-.11 2.57.21 3.37.43"/><path id="kvg:09322-s14" kvg:type="㇂" d="M63.76 55.67c1.29.84 1.84 1.48 2.11 3.28 2.25 15.07 9.65 29.77 25.39 35.39 5.05 1.8 4.34.36 3.69-3.35"/></g><g id="kvg:09322-g10" kvg:element="丿"><path id="kvg:09322-s15" kvg:type="㇒" d="M85.66 72.28c.09.54.2 1.39-.19 2.16C83.22 79 70.54 89.51 52.8 95.64"/></g><g id="kvg:09322-g11" kvg:element="弋" kvg:part="2"><g id="kvg:09322-g12" kvg:element="丶"><path id="kvg:09322-s16" kvg:type="㇔" d="M72.42 52.62c2.93 1.3 7.62 4.27 8.99 6.5"/></g></g></g></g></g></g></svg>