<!DOCTYPE svg PUBLIC "-//W3C//DTD SVG 1.0//EN" "http://www.w3.org/TR/2001/REC-SVG-20010904/DTD/svg10.dtd" [
<!ATTLIST g
xmlns:kvg CDATA #FIXED "http://kanjivg.tagaini.net"
kvg:element CDATA #IMPLIED
kvg:variant CDATA #IMPLIED
kvg:partial CDATA #IMPLIED
kvg:original CDATA #IMPLIED
kvg:part CDATA #IMPLIED
kvg:number CDATA #IMPLIED
kvg:tradForm CDATA #IMPLIED
kvg:radicalForm CDATA #IMPLIED
kvg:position CDATA #IMPLIED
kvg:radical CDATA #IMPLIED
kvg:phon CDATA #IMPLIED >
<!ATTLIST path
xmlns:kvg CDATA #FIXED "http://kanjivg.tagaini.net"
kvg:type CDATA #IMPLIED >
]><svg xmlns="http://www.w3.org/2000/svg" width="109" height="109" viewBox="0 0 109 109"><g id="kvg:StrokePaths_0932f" style="fill:none;stroke:#000000;stroke-width:3;stroke-linecap:round;stroke-linejoin:round;"><g id="kvg:0932f" kvg:element="錯"><g id="kvg:0932f-g1" kvg:element="金" kvg:position="left" kvg:radical="general"><path id="kvg:0932f-s1" kvg:type="㇒" d="M31.5 16.49c0 1.16-.05 2.22-.43 3.32-1.92 5.63-10.9 19.05-18.85 25.81"/><path id="kvg:0932f-s2" kvg:type="㇔/㇏" d="M33.64 22.21c5.73 2.66 10.98 6.41 14.61 11.54"/><path id="kvg:0932f-s3" kvg:type="㇐" d="M21.5 42.75c1.5.38 2.71.32 4.12.18 4.1-.4 9.13-1.28 14.23-2.13.73-.12.9-.05 2.15-.05"/><path id="kvg:0932f-s4" kvg:type="㇐" d="M15.59 58.06c1.91.69 3.92.72 5.55.49 7.61-1.06 14.73-2.06 21.9-3.23.74-.12 2.38-.13 3.49.15"/><path id="kvg:0932f-s5" kvg:type="㇑a" d="M30.95 44.44c.99.99 1.24 2.18 1.24 3.39C32.19 52.18 32 77 32 84.06"/><path id="kvg:0932f-s6" kvg:type="㇔" d="M15.25 69c4.01 3.54 5.97 7.38 6.79 9.45"/><path id="kvg:0932f-s7" kvg:type="㇒" d="M43.99 62.05c.27.85.35 1.65.05 2.32-1.3 2.89-2.38 5.23-5.38 10.66"/><path id="kvg:0932f-s8" kvg:type="㇀/㇐" d="M13.25 88.92c1.12 1.08 2.15 1.16 3.92.59C21.88 88 28 85.88 44.5 80"/></g><g id="kvg:0932f-g2" kvg:element="昔" kvg:position="right" kvg:phon="昔"><g id="kvg:0932f-g3" kvg:position="top"><g id="kvg:0932f-g4" kvg:element="廾" kvg:variant="true"><g id="kvg:0932f-g5" kvg:element="十" kvg:part="1"><path id="kvg:0932f-s9" kvg:type="㇐" d="M53.38 34.31c2.37.56 4.46.39 6.14.2 6.8-.77 20.33-2.2 26.87-2.65 1.69-.12 3.42-.31 5.06.25"/></g><g id="kvg:0932f-g6" kvg:element="丿" kvg:variant="true"><path id="kvg:0932f-s10" kvg:type="㇑a" d="M61.2 19.63c.8.51 1.28 2.3 1.44 3.33.16 1.02.56 16.38 1.11 26.1"/></g><g id="kvg:0932f-g7" kvg:element="十" kvg:part="2"><path id="kvg:0932f-s11" kvg:type="㇑a" d="M80.84 16.25c.96.96 1.04 2.38.94 3.58-.08 1.03-2.58 17.19-3.69 27.68"/></g></g><path id="kvg:0932f-s12" kvg:type="㇐" d="M49.97 50.55c3.03.58 5.21.5 7.54.2 10.32-1.35 22.57-2.42 32.5-2.81 2.28-.09 4.57-.28 6.78.38"/></g><g id="kvg:0932f-g8" kvg:element="日" kvg:position="bottom"><path id="kvg:0932f-s13" kvg:type="㇑" d="M57.08 61.64c.71.7 1.13 2.05 1.13 3.06.0.83.0 15.71.0 24.81.0 2.03.0 3.77.0 5"/><path id="kvg:0932f-s14" kvg:type="㇕a" d="M58.81 62.92c1.73-.11 16.56-1.93 22.32-2.58 3.35-.38 4.43.43 4.43 3.79.0 3.15-.03 15.34-.05 22.88-.01 3.54-.02 6.06-.02 6.12"/><path id="kvg:0932f-s15" kvg:type="㇐a" d="M59.18 76.86c4.82-.48 19.95-2.23 25.41-2.55"/><path id="kvg:0932f-s16" kvg:type="㇐a" d="M59.55 91.41c5.65-.54 15.83-1.41 24.78-2.05"/></g></g></g></g><g id="kvg:StrokeNumbers_0932f" style="font-size:8;fill:#808080"><text transform="matrix(1 0 0 1 24.50 18.50)">1</text><text transform="matrix(1 0 0 1 39.50 21.50)">2</text><text transform="matrix(1 0 0 1 26.50 39.13)">3</text><text transform="matrix(1 0 0 1 8.25 58.63)">4</text><text transform="matrix(1 0 0 1 24.50 52.50)">5</text><text transform="matrix(1 0 0 1 8.25 72.13)">6</text><text transform="matrix(1 0 0 1 35.25 66.50)">7</text><text transform="matrix(1 0 0 1 5.25 92.50)">8</text><text transform="matrix(1 0 0 1 54.75 31.63)">9</text><text transform="matrix(1 0 0 1 51.75 17.50)">10</text><text transform="matrix(1 0 0 1 70.50 13.63)">11</text><text transform="matrix(1 0 0 1 49.50 47.50)">12</text><text transform="matrix(1 0 0 1 47.50 70.50)">13</text><text transform="matrix(1 0 0 1 59.25 59.50)">14</text><text transform="matrix(1 0 0 1 62.25 73.55)">15</text><text transform="matrix(1 0 0 1 62.11 88.50)">16</text></g></svg>