<!DOCTYPE svg PUBLIC "-//W3C//DTD SVG 1.0//EN" "http://www.w3.org/TR/2001/REC-SVG-20010904/DTD/svg10.dtd" [
<!ATTLIST g
xmlns:kvg CDATA #FIXED "http://kanjivg.tagaini.net"
kvg:element CDATA #IMPLIED
kvg:variant CDATA #IMPLIED
kvg:partial CDATA #IMPLIED
kvg:original CDATA #IMPLIED
kvg:part CDATA #IMPLIED
kvg:number CDATA #IMPLIED
kvg:tradForm CDATA #IMPLIED
kvg:radicalForm CDATA #IMPLIED
kvg:position CDATA #IMPLIED
kvg:radical CDATA #IMPLIED
kvg:phon CDATA #IMPLIED >
<!ATTLIST path
xmlns:kvg CDATA #FIXED "http://kanjivg.tagaini.net"
kvg:type CDATA #IMPLIED >
]><svg xmlns="http://www.w3.org/2000/svg" width="109" height="109" viewBox="0 0 109 109"><g id="kvg:StrokePaths_09326" style="fill:none;stroke:#000000;stroke-width:3;stroke-linecap:round;stroke-linejoin:round;"><g id="kvg:09326" kvg:element="錦"><g id="kvg:09326-g1" kvg:element="金" kvg:position="left" kvg:radical="general"><path id="kvg:09326-s1" kvg:type="㇒" d="M31.75 14.99c0 1.11-.05 2.14-.42 3.2-1.91 5.6-11.14 19.97-19.11 26.56"/><path id="kvg:09326-s2" kvg:type="㇔/㇏" d="M34.14 21.46c4.61 2.54 9.48 5.79 12.36 10.79"/><path id="kvg:09326-s3" kvg:type="㇐" d="M21.5 41c1.26.0 2.62.12 3.88-.07 4.49-.68 7.92-1.54 12.74-2.48 1.21-.24 2.89-.45 4.13-.45"/><path id="kvg:09326-s4" kvg:type="㇐" d="M15.84 54.81c1.66.56 4.02.63 5.68.42 6.08-.76 13.59-2.65 19.25-3.51 1.49-.23 2.99-.5 4.51-.25"/><path id="kvg:09326-s5" kvg:type="㇑a" d="M30.95 43.94c.99.99 1.24 2.06 1.24 3.39.0 4.35.06 24.54.06 31.48"/><path id="kvg:09326-s6" kvg:type="㇔" d="M16.39 64.51c3.93 3.73 5.85 7.76 6.65 9.94"/><path id="kvg:09326-s7" kvg:type="㇒" d="M45.15 58.3c-.03.95-.27 1.81-.61 2.41-1.41 2.42-2.79 4.69-6.62 9.82"/><path id="kvg:09326-s8" kvg:type="㇀/㇐" d="M14.5 85.5c1.2 1.5 2.58 1.41 4.5.5 7.12-3.38 12-5.5 25-11.5"/></g><g id="kvg:09326-g2" kvg:element="帛" kvg:position="right"><g id="kvg:09326-g3" kvg:element="白" kvg:position="top"><g id="kvg:09326-g4" kvg:position="top"><path id="kvg:09326-s9" kvg:type="㇔" d="M69.61 12.25c.02 1-.18 1.65-.51 2.27-1.6 3.1-3.16 5.78-4.86 8.24"/></g><g id="kvg:09326-g5" kvg:element="日" kvg:position="bottom"><path id="kvg:09326-s10" kvg:type="㇑" d="M54.23 25.5c.64.64 1.05 1.7 1.22 2.96.46 3.38 1.57 9.5 2.46 16.77.17 1.42.34 2.89.49 4.38"/><path id="kvg:09326-s11" kvg:type="㇕a" d="M55.99 26.51C62.5 25.5 79.88 23 85.75 22.57c2.08-.15 3.83 1.03 3.75 3.39-.06 1.7-1.06 8.79-3.09 17.02-.32 1.29-.67 2.63-1.06 3.99"/><path id="kvg:09326-s12" kvg:type="㇐a" d="M57.76 36.89c9.12-1.14 20.87-2.76 29.29-3.05"/><path id="kvg:09326-s13" kvg:type="㇐a" d="M59.63 47.36c9.85-1.08 17.42-2.02 24.99-2.53"/></g></g><g id="kvg:09326-g6" kvg:element="巾" kvg:position="bottom"><path id="kvg:09326-s14" kvg:type="㇑" d="M53.37 57.9c.99.99 1.08 2.22 1.08 3.9.0 5.45.01 11.7.01 18.96.0 1.96-.07 3.9-.04 5.79"/><path id="kvg:09326-s15" kvg:type="㇆a" d="M55.25 60.54c2.75-.26 32.87-4.01 34.92-4.17 2.41-.19 4.2 1.25 3.84 4.92-.82 8.41-2.29 15.7-4.53 22.12-1.86 5.34-4.2.76-5.78-1.23"/><path id="kvg:09326-s16" kvg:type="㇑" d="M70.92 50.99c1.04 1.04 1.31 2.51 1.31 3.99.0.57-.11 27.27-.11 35.52.0 4 0 6 0 8.25"/></g></g></g></g><g id="kvg:StrokeNumbers_09326" style="font-size:8;fill:#808080"><text transform="matrix(1 0 0 1 24.25 16.25)">1</text><text transform="matrix(1 0 0 1 38.25 21.25)">2</text><text transform="matrix(1 0 0 1 27.25 37.25)">3</text><text transform="matrix(1 0 0 1 9.25 56.25)">4</text><text transform="matrix(1 0 0 1 25.00 50.08)">5</text><text transform="matrix(1 0 0 1 9.25 66.25)">6</text><text transform="matrix(1 0 0 1 38.25 60.25)">7</text><text transform="matrix(1 0 0 1 6.25 88.85)">8</text><text transform="matrix(1 0 0 1 60.25 12.25)">9</text><text transform="matrix(1 0 0 1 47.25 38.70)">10</text><text transform="matrix(1 0 0 1 55.00 23.63)">11</text><text transform="matrix(1 0 0 1 61.25 33.25)">12</text><text transform="matrix(1 0 0 1 62.00 44.48)">13</text><text transform="matrix(1 0 0 1 45.00 68.25)">14</text><text transform="matrix(1 0 0 1 57.25 57.25)">15</text><text transform="matrix(1 0 0 1 75.25 53.25)">16</text></g></svg>