<svg xmlns="http://www.w3.org/2000/svg" width="109" height="109" viewBox="0 0 109 109"><g id="kvg:StrokePaths_09328"><g id="kvg:09328" kvg:element="錨"><g id="kvg:09328-g1" kvg:element="金" kvg:position="left" kvg:radical="general"><path id="kvg:09328-s1" kvg:type="㇒" d="M31.75 15.99c0 .76.05 1.36-.15 2.28-1.08 4.75-11.34 20.58-20.12 27.61"/><path id="kvg:09328-s2" kvg:type="㇔/㇏" d="M33.39 22.96C37.5 24.75 43.25 30 45.25 34.5"/><path id="kvg:09328-s3" kvg:type="㇐" d="M21.5 43.5c1.5.0 2.18.09 2.67.06 4.33-.31 10.33-1.53 15.44-1.75.74-.03.9-.05 2.15-.05"/><path id="kvg:09328-s4" kvg:type="㇐" d="M14.59 58.31c.59.33 2.56.48 3.17.43 5.49-.49 17.49-2.24 24.28-3.67.73-.15 2.38-.13 3.49.15"/><path id="kvg:09328-s5" kvg:type="㇑a" d="M29.45 46.19c1.24.78 1.24 2.52 1.24 3.14.0 4.35.31 27.42.31 35.48"/><path id="kvg:09328-s6" kvg:type="㇔" d="M17.39 69.01c2.6 4.01 3.87 8.35 4.4 10.69"/><path id="kvg:09328-s7" kvg:type="㇒" d="M42.79 63.55c.23.71.35 1.75.26 2.35-.23 1.54-2.05 4.36-4.63 8.88"/><path id="kvg:09328-s8" kvg:type="㇀/㇐" d="M13.5 89.02c1.25.98 3.55 1.36 4.68.99 1.31-.43 11.25-4.4 24.82-9.51"/></g><g id="kvg:09328-g2" kvg:element="苗" kvg:position="right"><g id="kvg:09328-g3" kvg:element="艹" kvg:variant="true" kvg:original="艸" kvg:position="top"><path id="kvg:09328-s9" kvg:type="㇐" d="M51.5 34.68c1.01.35 2.18.41 3.2.35 9.28-.63 30.07-3.91 40.77-3.96 1.68-.01 2.69.16 3.53.34"/><path id="kvg:09328-s10" kvg:type="㇑a" d="M60.51 17.26c1.17 1.77 1.55 2.3 1.67 3.39 1.17 10.17 2.67 23.65 3 27.35"/><path id="kvg:09328-s11" kvg:type="㇑a" d="M83.07 15c.93 1.25 1.69 2.89 1.45 4.98C83.25 31 82.75 35.25 80.89 46.65"/></g><g id="kvg:09328-g4" kvg:element="田" kvg:position="bottom"><path id="kvg:09328-s12" kvg:type="㇑" d="M53.82 55.29c.29.63.8 2.06.96 2.84 1.3 6.44 2.47 24.06 3.22 35.96"/><path id="kvg:09328-s13" kvg:type="㇕a" d="M55.71 57.25c10.42-.85 27.25-2.79 35.03-3.57 2.86-.29 4.31 1.56 4.15 3.29-.58 6.36-2.39 24.03-3.31 35.7"/><path id="kvg:09328-s14" kvg:type="㇑a" d="M72.55 56.85c.67.37 1.01 1.84 1.03 2.89.18 9.01-.06 23.96-.09 28.88"/><path id="kvg:09328-s15" kvg:type="㇐a" d="M57.05 73.42c3.4-.38 33.16-2.37 35.96-2.42"/><path id="kvg:09328-s16" kvg:type="㇐a" d="M58.55 91.4c7.5-.14 23.17-1.42 33.53-1.79"/></g></g></g></g></svg>