<!DOCTYPE svg PUBLIC "-//W3C//DTD SVG 1.0//EN" "http://www.w3.org/TR/2001/REC-SVG-20010904/DTD/svg10.dtd" [
<!ATTLIST g
xmlns:kvg CDATA #FIXED "http://kanjivg.tagaini.net"
kvg:element CDATA #IMPLIED
kvg:variant CDATA #IMPLIED
kvg:partial CDATA #IMPLIED
kvg:original CDATA #IMPLIED
kvg:part CDATA #IMPLIED
kvg:number CDATA #IMPLIED
kvg:tradForm CDATA #IMPLIED
kvg:radicalForm CDATA #IMPLIED
kvg:position CDATA #IMPLIED
kvg:radical CDATA #IMPLIED
kvg:phon CDATA #IMPLIED >
<!ATTLIST path
xmlns:kvg CDATA #FIXED "http://kanjivg.tagaini.net"
kvg:type CDATA #IMPLIED >
]><svg xmlns="http://www.w3.org/2000/svg" width="109" height="109" viewBox="0 0 109 109"><g id="kvg:StrokePaths_0934b" style="fill:none;stroke:#000000;stroke-width:3;stroke-linecap:round;stroke-linejoin:round;"><g id="kvg:0934b" kvg:element="鍋"><g id="kvg:0934b-g1" kvg:element="金" kvg:position="left" kvg:radical="general"><path id="kvg:0934b-s1" kvg:type="㇒" d="M30.25 13.99c0 .74.05 1.33-.14 2.22-1 4.63-10.5 20.07-18.63 26.91"/><path id="kvg:0934b-s2" kvg:type="㇔/㇏" d="M31.14 20.71C35.7 22.54 41.53 27.4 43.75 32"/><path id="kvg:0934b-s3" kvg:type="㇐" d="M19 42.5c1.5.0 2.18.09 2.67.06C26 42.24 33 40.53 38.1 40.3c.74-.03.9-.05 2.15-.05"/><path id="kvg:0934b-s4" kvg:type="㇐" d="M12.09 56.31c.59.33 2.56.46 3.17.43C20.75 56.5 33 54 40.54 53.08c.74-.09 2.38-.13 3.49.15"/><path id="kvg:0934b-s5" kvg:type="㇑a" d="M28.95 44.69c1.24.78 1.24 2.52 1.24 3.14.0 4.35.62 31.63.31 35.98"/><path id="kvg:0934b-s6" kvg:type="㇔" d="M13.89 67.51c4.67 4.76 6.95 9.91 7.9 12.69"/><path id="kvg:0934b-s7" kvg:type="㇒" d="M42.18 60.05c.32.84.48 2.06.36 2.76-.32 1.81-2.82 5.13-6.37 10.47"/><path id="kvg:0934b-s8" kvg:type="㇀/㇐" d="M14.5 90.25c1.5.75 2.92.68 4 .25 1.25-.5 10.25-5.75 23.75-12.25"/></g><g id="kvg:0934b-g2" kvg:element="咼" kvg:position="right"><path id="kvg:0934b-s9" kvg:type="㇑a" d="M55.7 19.8c.52 1.15 1.41 2.03 1.55 4.11.52 7.6.9 17.74 1.42 27.18"/><path id="kvg:0934b-s10" kvg:type="㇕b" d="M57.25 20.64c6.64-.92 26.59-2.66 29.56-3.15 1.4-.23 2.79.73 2.45 2.76-.7 4.15-2.1 22.08-2.8 28.53"/><path id="kvg:0934b-s11" kvg:type="㇑a" d="M70.52 31.74c.76.46 1.22 2.07 1.37 2.99s.6 9.45.44 15.21"/><path id="kvg:0934b-s12" kvg:type="㇐a" d="M72 32.66c2.45-.23 11.83-1.84 15.33-2.3"/><g id="kvg:0934b-g3" kvg:element="冂"><path id="kvg:0934b-s13" kvg:type="㇑" d="M51.16 51.59c.52 1.15 1.4 2.99 1.4 5.07.0 5.09-.35 27.59-.35 36.59"/><path id="kvg:0934b-s14" kvg:type="㇆a" d="M52.56 53.9c8.69-1.15 37.64-4.29 38.59-4.53 2.8-.69 4.19.88 4.19 2.76.0 7.12-.5 32.38-.72 37.59-.38 9.03-4.97 4.38-7.07 1.38"/></g><g id="kvg:0934b-g4" kvg:element="口"><path id="kvg:0934b-s15" kvg:type="㇑" d="M62.14 61.62c.29.31.58.57.71.96 1 3.09 1.85 10.83 2.54 16.39"/><path id="kvg:0934b-s16" kvg:type="㇕b" d="M63.6 63.33c6.57-1.42 10.19-1.88 15.34-2.5 1.88-.23 3.01 1.34 2.74 2.68-1.12 5.52-1.57 5.76-2.66 10.75"/><path id="kvg:0934b-s17" kvg:type="㇐b" d="M65.52 76.66c3.96-.46 9.79-1.25 15.23-1.96"/></g></g></g></g><g id="kvg:StrokeNumbers_0934b" style="font-size:8;fill:#808080"><text transform="matrix(1 0 0 1 20.85 16.85)">1</text><text transform="matrix(1 0 0 1 36.66 20.50)">2</text><text transform="matrix(1 0 0 1 23.50 39.50)">3</text><text transform="matrix(1 0 0 1 5.50 56.50)">4</text><text transform="matrix(1 0 0 1 21.72 51.50)">5</text><text transform="matrix(1 0 0 1 6.50 68.50)">6</text><text transform="matrix(1 0 0 1 34.50 63.85)">7</text><text transform="matrix(1 0 0 1 6.50 92.50)">8</text><text transform="matrix(1 0 0 1 49.25 26.50)">9</text><text transform="matrix(1 0 0 1 58.50 17.50)">10</text><text transform="matrix(1 0 0 1 61.50 39.88)">11</text><text transform="matrix(1 0 0 1 72.50 29.50)">12</text><text transform="matrix(1 0 0 1 43.25 60.50)">13</text><text transform="matrix(1 0 0 1 49.25 49.50)">14</text><text transform="matrix(1 0 0 1 55.50 70.50)">15</text><text transform="matrix(1 0 0 1 64.50 59.50)">16</text><text transform="matrix(1 0 0 1 68.50 73.43)">17</text></g></svg>