<!DOCTYPE svg PUBLIC "-//W3C//DTD SVG 1.0//EN" "http://www.w3.org/TR/2001/REC-SVG-20010904/DTD/svg10.dtd" [
<!ATTLIST g
xmlns:kvg CDATA #FIXED "http://kanjivg.tagaini.net"
kvg:element CDATA #IMPLIED
kvg:variant CDATA #IMPLIED
kvg:partial CDATA #IMPLIED
kvg:original CDATA #IMPLIED
kvg:part CDATA #IMPLIED
kvg:number CDATA #IMPLIED
kvg:tradForm CDATA #IMPLIED
kvg:radicalForm CDATA #IMPLIED
kvg:position CDATA #IMPLIED
kvg:radical CDATA #IMPLIED
kvg:phon CDATA #IMPLIED >
<!ATTLIST path
xmlns:kvg CDATA #FIXED "http://kanjivg.tagaini.net"
kvg:type CDATA #IMPLIED >
]><svg xmlns="http://www.w3.org/2000/svg" width="109" height="109" viewBox="0 0 109 109"><g id="kvg:StrokePaths_0934d" style="fill:none;stroke:#000000;stroke-width:3;stroke-linecap:round;stroke-linejoin:round;"><g id="kvg:0934d" kvg:element="鍍"><g id="kvg:0934d-g1" kvg:element="金" kvg:position="left" kvg:radical="general"><path id="kvg:0934d-s1" kvg:type="㇒" d="M29.75 17.49c0 .78.05 1.4-.15 2.33-1.04 4.87-10.92 21.1-19.38 28.3"/><path id="kvg:0934d-s2" kvg:type="㇔/㇏" d="M31.89 22.71c4.47 1.91 10.18 6.98 12.36 11.79"/><path id="kvg:0934d-s3" kvg:type="㇐" d="M21 43c1.5.0 2.18.09 2.67.06C28 42.74 33 41.53 38.1 41.3c.74-.03.9-.05 2.15-.05"/><path id="kvg:0934d-s4" kvg:type="㇐" d="M14.59 55.81c.59.33 2.56.48 3.17.43 5.49-.49 15.74-2.49 22.78-2.67.75-.02 2.38-.13 3.49.15"/><path id="kvg:0934d-s5" kvg:type="㇑a" d="M28.45 43.69c1.24.78 1.24 2.52 1.24 3.14.0 4.35.62 32.63.31 36.98"/><path id="kvg:0934d-s6" kvg:type="㇔" d="M14.89 66.26c3.78 5.04 5.63 10.5 6.4 13.44"/><path id="kvg:0934d-s7" kvg:type="㇒" d="M43.17 60.55c.33.85.5 2.09.37 2.82-.33 1.85-2.93 5.23-6.62 10.66"/><path id="kvg:0934d-s8" kvg:type="㇀/㇐" d="M12.5 89.83c1.5 1.42 3.13 1.09 4.28.68 1.34-.48 11.55-5.01 25.47-10.75"/></g><g id="kvg:0934d-g2" kvg:element="度" kvg:position="right"><g id="kvg:0934d-g3" kvg:element="广" kvg:position="tare"><path id="kvg:0934d-s9" kvg:type="㇑a" d="M71.52 15.13c.53.35 1.64 2.63 1.75 3.34.11.7.05 3.75-.05 8.14"/><g id="kvg:0934d-g4" kvg:element="厂"><path id="kvg:0934d-s10" kvg:type="㇐" d="M51.62 28.41c1.05.49 2.99.57 4.04.49 10.98-.83 23.32-2.93 35.52-3.81 1.75-.13 2.81.24 3.69.48"/><path id="kvg:0934d-s11" kvg:type="㇒" d="M54 29.94c.25 1.31.52 4.74.44 6.83C53.81 52.87 56.5 76 40.96 91.59"/></g></g><g id="kvg:0934d-g5" kvg:position="tarec"><g id="kvg:0934d-g6" kvg:element="廿"><g id="kvg:0934d-g7" kvg:element="十"><path id="kvg:0934d-s12" kvg:type="㇐" d="M58.24 42.13c1.01.4 2.86.47 3.87.4 5.26-.36 23.09-3.05 28.59-3.27 1.68-.07 2.69.19 3.53.39"/><path id="kvg:0934d-s13" kvg:type="㇑" d="M66.32 33.63c.83.37 1.33 1.66 1.49 2.4.17.74 1.2 11.48 1.72 17.42"/></g><path id="kvg:0934d-s14" kvg:type="㇑a" d="M81.52 31.71c.83.37 1.33 1.66 1.49 2.4.17.74-1.48 9.76-1.98 16.6"/><path id="kvg:0934d-s15" kvg:type="㇐b" d="M69.53 52.17c3.22-.42 8.22-1.17 13.22-1.49"/></g><g id="kvg:0934d-g8" kvg:element="又"><path id="kvg:0934d-s16" kvg:type="㇇" d="M63.25 61.91c1.2.23 1.35.58 3.75.23s16.89-2.29 18.54-2.64c1.65-.35 2.98 1.35 2.25 2.56C79 76.75 65.15 87.42 51.79 92.5"/><path id="kvg:0934d-s17" kvg:type="㇏" d="M62.19 66.23c3.35.62 19.72 17.21 31.39 24.01 1.82 1.06 3.14 1.76 4.83 2.12"/></g></g></g></g></g><g id="kvg:StrokeNumbers_0934d" style="font-size:8;fill:#808080"><text transform="matrix(1 0 0 1 21.50 18.50)">1</text><text transform="matrix(1 0 0 1 36.50 22.50)">2</text><text transform="matrix(1 0 0 1 25.25 39.48)">3</text><text transform="matrix(1 0 0 1 7.50 57.50)">4</text><text transform="matrix(1 0 0 1 22.50 51.50)">5</text><text transform="matrix(1 0 0 1 7.50 67.50)">6</text><text transform="matrix(1 0 0 1 35.75 63.50)">7</text><text transform="matrix(1 0 0 1 4.50 91.50)">8</text><text transform="matrix(1 0 0 1 63.50 14.50)">9</text><text transform="matrix(1 0 0 1 51.50 25.50)">10</text><text transform="matrix(1 0 0 1 45.50 40.88)">11</text><text transform="matrix(1 0 0 1 56.50 39.50)">12</text><text transform="matrix(1 0 0 1 70.50 35.50)">13</text><text transform="matrix(1 0 0 1 85.50 33.50)">14</text><text transform="matrix(1 0 0 1 71.25 48.50)">15</text><text transform="matrix(1 0 0 1 59.50 58.50)">16</text><text transform="matrix(1 0 0 1 56.50 73.50)">17</text></g></svg>