<svg xmlns="http://www.w3.org/2000/svg" width="109" height="109" viewBox="0 0 109 109"><g id="kvg:StrokePaths_0936c" style="fill:none;stroke:#000000;stroke-width:3;stroke-linecap:round;stroke-linejoin:round;"><g id="kvg:0936c" kvg:element="鍬"><g id="kvg:0936c-g1" kvg:element="金" kvg:position="left" kvg:radical="general"><path id="kvg:0936c-s1" kvg:type="㇒" d="M26.25 16.49c.09 1.34-.1 2.62-.57 3.87-2.14 6.15-10.62 20.32-17.96 27.02"/><path id="kvg:0936c-s2" kvg:type="㇔/㇏" d="M28.25 22.38c3.88 2.62 6.25 5.25 9 9.62"/><path id="kvg:0936c-s3" kvg:type="㇐" d="M16.75 42c1.44.16 2.89.2 4.29-.15 3.46-.85 6.58-1.48 10.59-2.22 1.12-.1 2.25-.14 3.37-.14"/><path id="kvg:0936c-s4" kvg:type="㇐" d="M10.09 56.31c2.21.5 4.43.58 6.67.23 4.87-.76 10.72-1.94 15.99-2.71 1.74-.31 3.5-.43 5.28-.35"/><path id="kvg:0936c-s5" kvg:type="㇑a" d="M24.7 42.69c.93.93.99 2.18.99 3.64.0 4.35.06 28.42.06 39.23"/><path id="kvg:0936c-s6" kvg:type="㇔" d="M13.14 68.01c2.6 4.01 4.37 9.35 4.9 11.69"/><path id="kvg:0936c-s7" kvg:type="㇒" d="M37.23 61.05c.27 1.2-.1 2.17-.43 2.82-1.04 2.01-2.24 4.73-5.38 10.16"/><path id="kvg:0936c-s8" kvg:type="㇀/㇐" d="M11.75 91.25c1 1 2.45.99 3.5.5 6.75-3.12 10.75-5 24-11.5"/></g><g id="kvg:0936c-g2" kvg:element="秋" kvg:position="right"><g id="kvg:0936c-g3" kvg:element="禾" kvg:position="left"><g id="kvg:0936c-g4" kvg:element="丿" kvg:position="top"><path id="kvg:0936c-s9" kvg:type="㇒" d="M63.09 16c0 1-.39 1.69-1.08 2.47-3.38 3.78-8.88 7.65-17.99 12.28"/></g><g id="kvg:0936c-g5" kvg:element="木" kvg:position="bottom"><path id="kvg:0936c-s10" kvg:type="㇐" d="M39.24 45.48c1.9.56 3.78.37 5.77.14 4.52-.51 11.08-1.61 15.02-2.21 1.14-.1 2.28-.15 3.42-.13"/><path id="kvg:0936c-s11" kvg:type="㇑" d="M53.89 29.2c.89.89 1.15 1.68 1.15 2.83.0.68.0 36.11-.02 53.85-.01 4.82-.02 8.34-.03 9.5"/><path id="kvg:0936c-s12" kvg:type="㇒" d="M54.08 45.36c-.2 1.76-.67 3.6-1.47 5.42C48.25 60.62 44 68.5 37.16 76.7"/><path id="kvg:0936c-s13" kvg:type="㇏" d="M57.75 53.75c3.34 2.4 5.88 6.25 7.81 9.79"/></g></g><g id="kvg:0936c-g6" kvg:element="火" kvg:position="right"><path id="kvg:0936c-s14" kvg:type="㇔" d="M65.67 36.81c1.78 2.95 4.38 11.32 4.87 14.27"/><path id="kvg:0936c-s15" kvg:type="㇒" d="M94.7 31.14c0 1.36-.23 2.27-.84 3.54-1.74 3.57-4.36 8.95-7.64 13.93"/><path id="kvg:0936c-s16" kvg:type="㇒" d="M76.78 14.8c.63.78.95 2.4.96 3.71C77.99 52.17 78 78.75 61.97 95.11"/><path id="kvg:0936c-s17" kvg:type="㇏" d="M78.75 50.88c4.21 12.56 8.86 23.41 13.15 31.11 2.24 4.02 4.02 6.99 7.47 10.19"/></g></g></g></g></svg>