<svg xmlns="http://www.w3.org/2000/svg" width="109" height="109" viewBox="0 0 109 109"><g id="kvg:StrokePaths_09375" style="fill:none;stroke:#000000;stroke-width:3;stroke-linecap:round;stroke-linejoin:round;"><g id="kvg:09375" kvg:element="鍵"><g id="kvg:09375-g1" kvg:element="金" kvg:position="left" kvg:radical="general"><path id="kvg:09375-s1" kvg:type="㇒" d="M28.25 14.99c0 1.35-.09 2.54-.52 3.84-2.1 6.35-10.93 21.7-18.76 28.8"/><path id="kvg:09375-s2" kvg:type="㇔/㇏" d="M30.39 20.96c4.23 2.29 8.73 6.41 11.36 11.04"/><path id="kvg:09375-s3" kvg:type="㇐" d="M19 42.5c1.19.4 2.67.34 3.88.18 3.57-.45 7.62-1.06 11.62-2.04 1.13-.28 2.08-.4 3.25-.4"/><path id="kvg:09375-s4" kvg:type="㇐" d="M12.09 56.31c1.49.82 3.74.64 5.33.44 5.02-.62 11.75-2.14 17.6-2.97 1.56-.22 3.44-.71 5.01-.31"/><path id="kvg:09375-s5" kvg:type="㇑a" d="M26.7 44.69c.87.87.99 1.81.99 3.39.0 4.4.06 27.67.06 34.98"/><path id="kvg:09375-s6" kvg:type="㇔" d="M13.64 68.26c3.34 3.82 4.97 7.96 5.65 10.19"/><path id="kvg:09375-s7" kvg:type="㇒" d="M39.01 62.55c.26.8.36 2.05.04 2.66-1.8 3.42-2.27 4.94-5.13 10.07"/><path id="kvg:09375-s8" kvg:type="㇀/㇐" d="M12.75 88.19c1.25 1.31 2.38 1.56 4.29.82 4.15-1.61 10.4-4.39 22.71-9.76"/></g><g id="kvg:09375-g2" kvg:element="建" kvg:position="right"><g id="kvg:09375-g3" kvg:element="聿" kvg:position="nyoc"><g id="kvg:09375-g4" kvg:element="⺕" kvg:original="彑"><path id="kvg:09375-s9" kvg:type="㇕c" d="M62.42 23.95c2.35.33 4.04.29 6.33.07 5.74-.55 12.51-1.9 17.5-2.42 3.23-.34 4.75.52 4.27 3.93-.52 3.7-1.6 10.92-2.36 16.8"/><path id="kvg:09375-s10" kvg:type="㇐" d="M59.5 35.73c2.52.39 4.76.11 7.27-.19 7.6-.92 18.41-2.66 26.74-3.31 2.12-.17 3.67-.4 5.74.17"/><path id="kvg:09375-s11" kvg:type="㇐" d="M63.34 46.36c1.49.41 3.58.36 5.13.17 4.64-.58 10.4-1.53 17.3-2.32 1.61-.18 2.96-.44 4.55-.07"/></g><path id="kvg:09375-s12" kvg:type="㇐" d="M64.33 56.67c1.55.72 3.82.23 5.43.08 5.37-.5 12.03-1.55 17.39-2.17 1.78-.21 3.86-.31 5.6.18"/><path id="kvg:09375-s13" kvg:type="㇐" d="M61.81 68.59c1.72.85 4.39.5 6.2.24 7.95-1.15 15.7-2.03 22.37-2.48 2.19-.15 4.38-.42 6.52.22"/><g id="kvg:09375-g5" kvg:element="丨"><path id="kvg:09375-s14" kvg:type="㇑" d="M75.21 12.75c.83.83 1.21 2 1.21 3.31.0.66-.03 39.65-.04 57.07.0 3.86.0 6.66.0 7.75"/></g></g><g id="kvg:09375-g6" kvg:element="廴" kvg:position="nyo"><path id="kvg:09375-s15" kvg:type="㇇" d="M42.3 25.04c1.45.33 2.79.17 3.88-.3 1.1-.47 3.76-1.75 6.89-3.17 2.18-.99 3.15.16 2.63 1.62C53.81 28.5 48 42.5 45.09 48.98"/><path id="kvg:09375-s16" kvg:type="㇇a" d="M45.16 49.57c3.71-1.82 6.59-2.95 8.99-3.61 1.73-.48 3.36-.15 2.88 3.79-1.92 15.6-7.4 35.66-18.78 44.13"/><path id="kvg:09375-s17" kvg:type="㇏" d="M43.77 64.01c3.55-.16 19.73 17.12 39.49 26.74 4.88 2.38 6.49 3.13 12 4.26"/></g></g></g></g></svg>