<svg xmlns="http://www.w3.org/2000/svg" width="109" height="109" viewBox="0 0 109 109"><g id="kvg:StrokePaths_09397"><g id="kvg:09397" kvg:element="鎗"><g id="kvg:09397-g1" kvg:element="金" kvg:position="left" kvg:radical="general"><path id="kvg:09397-s1" kvg:type="㇒" d="M30 13.99c0 .78-.04 1.45-.4 2.33-3.97 9.92-9.85 19.17-19.38 28.3"/><path id="kvg:09397-s2" kvg:type="㇔/㇏" d="M31.89 20.46c4.61 2.66 9.36 6.66 12.36 11.54"/><path id="kvg:09397-s3" kvg:type="㇐" d="M18.75 40.11c1.3.13 2.59.12 3.88-.01 4.25-.38 8.52-1.28 14.23-2.09 1.12-.16 2.26-.11 3.39-.12"/><path id="kvg:09397-s4" kvg:type="㇐" d="M12.59 55.06c2.13.46 4.27.57 6.44.33 5.68-.68 12.98-2.14 19.74-2.9 1.51-.17 2.99-.57 4.51-.26"/><path id="kvg:09397-s5" kvg:type="㇑a" d="M27.95 42.19c1.06 1.06 1.24 2.18 1.24 3.64.0 4.35.06 30.67.06 37.98"/><path id="kvg:09397-s6" kvg:type="㇔" d="M15.14 66.76c3.34 4.57 4.97 9.27 5.65 11.94"/><path id="kvg:09397-s7" kvg:type="㇒" d="M42.45 60.8c0 1.08-.3 2.14-.66 2.76-2.17 3.81-2.46 4.38-5.87 9.72"/><path id="kvg:09397-s8" kvg:type="㇀/㇐" d="M14.25 90.63c1.25.99 2.63.89 3.64.36 7.03-3.69 11.86-6.5 25.36-13.75"/></g><g id="kvg:09397-g2" kvg:element="倉" kvg:position="right"><g id="kvg:09397-g3" kvg:element="人" kvg:position="top"><path id="kvg:09397-s9" kvg:type="㇒" d="M68.71 12.25c.07.82-.33 2.23-.88 3.31C63.5 24 57.75 35 45 46.75"/><path id="kvg:09397-s10" kvg:type="㇏" d="M70.25 16.88c3.29 4.04 11.3 11.85 17.6 17.5 2.63 2.66 5.6 4.86 8.9 6.62"/></g><g id="kvg:09397-g4" kvg:position="bottom"><path id="kvg:09397-s11" kvg:type="㇐" d="M59.11 37.23c1.23.15 2.44.12 3.64-.1 3.14-.4 8-1.38 12.6-1.88 1.3-.14 2.58-.3 3.9-.08"/><path id="kvg:09397-s12" kvg:type="㇕" d="M57.2 46.51c1.65-.15 19.79-2.52 24.93-3.11 3.48-.4 4.31 1.14 3.86 3.83-1.11 6.52-1.36 7.77-2.43 14.34"/><path id="kvg:09397-s13" kvg:type="㇐" d="M56.95 55.34c9.27-.98 18.3-1.97 27.33-2.66"/><path id="kvg:09397-s14" kvg:type="㇐" d="M56.11 65.13c2.55-.3 14.58-1.5 23.64-2.38 2.37-.23 4.53-.44 6.27-.6"/><path id="kvg:09397-s15" kvg:type="㇒" d="M55.45 46.25c.96.96.91 2.43.85 3.94-.55 14.68-2.47 31.37-13.39 40.56"/><g id="kvg:09397-g5" kvg:element="口"><path id="kvg:09397-s16" kvg:type="㇑" d="M56.21 76.13c.89.89 1.16 1.87 1.31 2.57.54 2.49 1.44 7.36 2.21 12.18.32 2.03.62 4.05.85 5.87"/><path id="kvg:09397-s17" kvg:type="㇕b" d="M58.52 76.96c6.43-1.08 20.31-2.61 25.86-3.29 2.34-.29 3.81.78 3.29 3.22-.82 3.8-1.91 8.54-3.01 13.43"/><path id="kvg:09397-s18" kvg:type="㇐b" d="M61.24 93.99c3.52-.39 13.28-1.41 20.64-2.1 2.15-.2 4.04-.15 5.45-.32"/></g></g></g></g></g></svg>