<svg xmlns="http://www.w3.org/2000/svg" width="109" height="109" viewBox="0 0 109 109"><g id="kvg:StrokePaths_093ad" style="fill:none;stroke:#000000;stroke-width:3;stroke-linecap:round;stroke-linejoin:round;"><g id="kvg:093ad" kvg:element="鎭"><g id="kvg:093ad-g1" kvg:element="金" kvg:position="left" kvg:radical="general"><path id="kvg:093ad-s1" kvg:type="㇒" d="M31.75 12.24c0 .91.05 1.64-.16 2.73-1.12 5.7-11.76 24.72-20.87 33.15"/><path id="kvg:093ad-s2" kvg:type="㇔/㇏" d="M32.89 20.21C37.9 22.28 44.31 27.79 46.75 33"/><path id="kvg:093ad-s3" kvg:type="㇐" d="M21 41.5c1.5.0 2.18.09 2.67.06C28 41.24 34 40.03 39.1 39.8c.74-.03.9-.05 2.15-.05"/><path id="kvg:093ad-s4" kvg:type="㇐" d="M13.09 54.81c.65.33 2.78.48 3.44.43 5.96-.49 17.08-2.49 24.71-2.67.81-.02 2.58-.13 3.78.15"/><path id="kvg:093ad-s5" kvg:type="㇑a" d="M28.45 43.19c1.24.78 1.24 2.52 1.24 3.14.0 4.35.62 34.13.31 38.48"/><path id="kvg:093ad-s6" kvg:type="㇔" d="M14.14 65.76c3.93 5.23 5.85 10.89 6.65 13.94"/><path id="kvg:093ad-s7" kvg:type="㇒" d="M43.2 60.05c.3.84.46 2.06.34 2.76-.3 1.81-2.71 5.13-6.12 10.47"/><path id="kvg:093ad-s8" kvg:type="㇀/㇐" d="M12.5 90.31c1.28.92 2.82.69 4.62.23C18.45 90.2 28.66 85.26 42 79.75"/></g><g id="kvg:093ad-g2" kvg:element="眞" kvg:position="right"><g id="kvg:093ad-g3" kvg:element="匕" kvg:position="top"><path id="kvg:093ad-s9" kvg:type="㇒" d="M86.28 12.24c-.27.74-.53 1.11-1.09 1.43-3.63 2.07-14.61 7.78-26.33 9.9"/><path id="kvg:093ad-s10" kvg:type="㇟" d="M57.37 12.5c.73.65.79 1.08 1.03 1.95.25.87-.17 6.24-.17 8.95.0 6.97 9.85 6.32 18.23 6.32 12.17.0 16.77-1.14 16.77-8.47"/></g><g id="kvg:093ad-g4" kvg:position="bottom"><g id="kvg:093ad-g5" kvg:element="目"><path id="kvg:093ad-s11" kvg:type="㇑" d="M63.2 37.38c.4.77.98 2.18.98 3.21s-.13 31.09.0 32.12"/><path id="kvg:093ad-s12" kvg:type="㇕a" d="M64.84 39.52c2.25-.13 20.41-2.46 22.46-2.42.94.02 1.87.51 1.87 2.17.0 1.24.03 31.87-.1 32.64"/><path id="kvg:093ad-s13" kvg:type="㇐a" d="M64.27 49.61c4.43-.18 20.78-2.13 24.38-2.13"/><path id="kvg:093ad-s14" kvg:type="㇐a" d="M64.11 59.99c5.96-.43 18.85-2.04 24.63-2.04"/><path id="kvg:093ad-s15" kvg:type="㇐a" d="M64.3 70.52c4.47.0 18.69-1.64 24.47-1.64"/></g><path id="kvg:093ad-s16" kvg:type="㇄" d="M51.96 51.24c.52.96 1.21 1.67 1.21 3.35s-.87 21.51-.87 23.66.18 3.36 2.08 3.06c13.62-2.15 33.57-3.85 41.18-3.37 1.56.1 3.47.24 4.68.48"/><g id="kvg:093ad-g6" kvg:element="八"><g id="kvg:093ad-g7" kvg:position="left"><path id="kvg:093ad-s17" kvg:type="㇒" d="M66.43 85.51c.04.32.08.82-.08 1.27-.96 2.69-6.49 8.58-14.04 12.18"/></g><g id="kvg:093ad-g8" kvg:position="right"><path id="kvg:093ad-s18" kvg:type="㇏" d="M81.69 85.74c5.45 2.08 14.08 8.56 15.45 11.8"/></g></g></g></g></g></g></svg>