<svg xmlns="http://www.w3.org/2000/svg" width="109" height="109" viewBox="0 0 109 109"><g id="kvg:StrokePaths_093b0" style="fill:none;stroke:#000000;stroke-width:3;stroke-linecap:round;stroke-linejoin:round;"><g id="kvg:093b0" kvg:element="鎰"><g id="kvg:093b0-g1" kvg:element="金" kvg:position="left" kvg:radical="general"><path id="kvg:093b0-s1" kvg:type="㇒" d="M29.25 13.74c0 .73.05 1.32-.15 2.2-1.05 4.59-11.06 19.89-19.63 26.68"/><path id="kvg:093b0-s2" kvg:type="㇔/㇏" d="M30.89 20.21C35 22.12 40.25 27.19 42.25 32"/><path id="kvg:093b0-s3" kvg:type="㇐" d="M18 39.5c1.5.0 2.18.09 2.67.06C25 39.24 30.5 38.53 35.6 38.3c.74-.03.9-.05 2.15-.05"/><path id="kvg:093b0-s4" kvg:type="㇐" d="M12.09 54.81c.59.33 2.56.48 3.17.43 5.49-.49 15.74-2.49 22.78-2.67.75-.02 2.38-.13 3.49.15"/><path id="kvg:093b0-s5" kvg:type="㇑a" d="M26.45 42.19c1.24.78 1.24 2.52 1.24 3.14.0 4.35.12 34.63-.19 38.98"/><path id="kvg:093b0-s6" kvg:type="㇔" d="M12.39 64.51c3.78 4.38 5.63 9.13 6.4 11.69"/><path id="kvg:093b0-s7" kvg:type="㇒" d="M40.2 59.05c.3.84.46 2.06.34 2.76-.3 1.81-2.71 5.13-6.12 10.47"/><path id="kvg:093b0-s8" kvg:type="㇀/㇐" d="M11.5 89.75c1.25 1 2.75.75 4.5.25 1.29-.37 11.25-5.75 24.25-11.75"/></g><g id="kvg:093b0-g2" kvg:element="益" kvg:position="right"><g id="kvg:093b0-g3" kvg:position="top"><g id="kvg:093b0-g4" kvg:element="八"><g id="kvg:093b0-g5" kvg:position="left"><path id="kvg:093b0-s9" kvg:type="㇒" d="M61.65 14.89c.04.45.08 1.17-.08 1.82-.95 3.83-7.03 12.24-14.51 17.39"/></g><g id="kvg:093b0-g6" kvg:position="right"><path id="kvg:093b0-s10" kvg:type="㇏" d="M71.13 10.81C73.09 11.21 85 26.65 90.77 30.1c2.23 1.33 3.04 2.05 5.2 2.48"/></g></g><path id="kvg:093b0-s11" kvg:type="㇐" d="M54.52 34.05c1.13.4 3.19.45 4.32.4 5.26-.2 14.88-.7 20.22-1.17 1.86-.16 3.01-.31 3.95-.11"/><g id="kvg:093b0-g7" kvg:element="八"><g id="kvg:093b0-g8" kvg:position="left"><path id="kvg:093b0-s12" kvg:type="㇒" d="M61.54 44.69c.29.59-.04 1.25-.41 1.98-2.4 4.76-11.41 15.24-16.89 17.68"/></g><g id="kvg:093b0-g9" kvg:position="right"><path id="kvg:093b0-s13" kvg:type="㇏" d="M71.38 40.31c2.02.36 14.29 14.02 20.24 17.08 2.3 1.18 3.13 1.81 5.36 2.2"/></g></g></g><g id="kvg:093b0-g10" kvg:element="皿" kvg:position="bottom"><path id="kvg:093b0-s14" kvg:type="㇑a" d="M49.96 65.79c.56.75 1.87 2.58 1.91 3.22.39 7.24.89 18.24.86 26.63"/><path id="kvg:093b0-s15" kvg:type="㇕b" d="M52.23 67.36c10.05-1.04 31.68-2.19 35.31-2.51 1.33-.12 2.26 1.23 1.94 3.05-1.03 5.79-1.92 18.6-2.87 25.17"/><path id="kvg:093b0-s16" kvg:type="㇑a" d="M62.33 68.58c.23.48.57 1.97.57 2.58.0 7.43.32 13.8.32 23.52"/><path id="kvg:093b0-s17" kvg:type="㇑a" d="M74.51 67.8c.58 1.42.89 2.28.83 3.47C75 79 75.52 85.25 75.52 94.53"/><path id="kvg:093b0-s18" kvg:type="㇐" d="M39.14 97c1.47.4 4.18.47 5.65.4 15.33-.67 31.4-2.77 50.08-2.58 2.46.03 3.93.19 5.16.39"/></g></g></g></g></svg>