<svg xmlns="http://www.w3.org/2000/svg" width="109" height="109" viewBox="0 0 109 109"><g id="kvg:StrokePaths_093c3" style="fill:none;stroke:#000000;stroke-width:3;stroke-linecap:round;stroke-linejoin:round;"><g id="kvg:093c3" kvg:element="鏃"><g id="kvg:093c3-g1" kvg:element="金" kvg:position="left" kvg:radical="general"><path id="kvg:093c3-s1" kvg:type="㇒" d="M26.75 15.24c0 .75.05 1.35-.14 2.26-.96 4.71-10.08 20.41-17.89 27.38"/><path id="kvg:093c3-s2" kvg:type="㇔/㇏" d="M27.14 21.96c3.66 1.87 8.33 6.83 10.11 11.54"/><path id="kvg:093c3-s3" kvg:type="㇐" d="M16.5 41c1.5.0 2.18.09 2.67.06 4.33-.31 8.33-1.03 13.44-1.25.74-.03.9-.05 2.15-.05"/><path id="kvg:093c3-s4" kvg:type="㇐" d="M9.59 54.31c.59.33 2.56.48 3.17.43 5.49-.49 15.74-1.99 22.78-2.17.75-.02 2.38-.13 3.49.15"/><path id="kvg:093c3-s5" kvg:type="㇑a" d="M23.95 42.19c1.24.78 1.24 2.52 1.24 3.14.0 4.35.62 35.63.31 39.98"/><path id="kvg:093c3-s6" kvg:type="㇔" d="M9.89 64.01c4.08 5.69 6.07 11.86 6.9 15.19"/><path id="kvg:093c3-s7" kvg:type="㇒" d="M37.65 60.05c.34.8.52 1.98.38 2.66-.34 1.74-3.04 4.94-6.87 10.07"/><path id="kvg:093c3-s8" kvg:type="㇀/㇐" d="M9.5 90.42c1.1.75 2.42.57 3.95.19 1.14-.28 9.88-4.33 21.3-8.86"/></g><g id="kvg:093c3-g2" kvg:element="族" kvg:position="right"><g id="kvg:093c3-g3" kvg:element="方" kvg:position="left"><g id="kvg:093c3-g4" kvg:element="亠" kvg:position="top"><path id="kvg:093c3-s9" kvg:type="㇑a" d="M52.06 14.75c.95.61 2.52 2.96 2.52 4.16.0 4.45-.3 8.88-.12 12.65"/><path id="kvg:093c3-s10" kvg:type="㇐" d="M42.49 33.11c1.07-.11 2.79.1 3.65.05 6.35-.41 9.51-1.91 16.77-2.2 1.42-.06 1.85-.2 3.19.2"/></g><g id="kvg:093c3-g5" kvg:position="bottom"><path id="kvg:093c3-s11" kvg:type="㇆a" d="M52.13 43.5c1.37 1 4.37 2.25 7.66 3.11 1.68.44 2.95 1.74 2.53 4.36C61.08 58.75 56 80 49.91 87.25c-3.14 3.74-4.41 2.5-5.35.01"/><path id="kvg:093c3-s12" kvg:type="㇒" d="M52.58 36.25c.05 1.28.31 3.35-.11 5.16C49.25 55.25 44.75 71.25 34.33 86"/></g></g><g id="kvg:093c3-g6" kvg:position="right"><g id="kvg:093c3-g7" kvg:element="𠂉"><path id="kvg:093c3-s13" kvg:type="㇒" d="M76.96 13.89c.03.66.06 1.69-.05 2.63-.64 5.55-4.35 17.73-9.41 25.19"/><path id="kvg:093c3-s14" kvg:type="㇐" d="M75.67 30.85c.97.19 2.78.06 3.74-.03 3.95-.37 8.88-.91 13.82-1.33 1.61-.14 2.62-.22 3.43-.13"/></g><g id="kvg:093c3-g8" kvg:element="矢"><path id="kvg:093c3-s15" kvg:type="㇒" d="M77.53 38c.03.49.06 1.26-.06 1.96-.7 4.13-4.76 14.28-9.15 18.04"/><g id="kvg:093c3-g9" kvg:element="天"><path id="kvg:093c3-s16" kvg:type="㇐" d="M77.78 48.44c.64.15 1.83.22 2.46.15 2.6-.29 8.25-1.06 12.89-1.82 1.04-.17 1.73-.17 2.26-.1"/><g id="kvg:093c3-g10" kvg:element="大"><path id="kvg:093c3-s17" kvg:type="㇐" d="M66.27 65.41c.69.23 3.2.37 3.95.32 7.14-.47 17.52-1.97 24.65-2.28.95-.04 2.31.09 4.44.48"/><path id="kvg:093c3-s18" kvg:type="㇒" d="M81.83 51.2c.34.29.51 1.24.5 2.48-.09 18.57-7.85 32.87-21.17 39.48"/><path id="kvg:093c3-s19" kvg:type="㇏" d="M81.53 66.43c3.51 9.28 11.64 19.83 15.41 24.05 1.28 1.44 1.73 1.65 2.31 1.79"/></g></g></g></g></g></g></g></svg>