<!DOCTYPE svg PUBLIC "-//W3C//DTD SVG 1.0//EN" "http://www.w3.org/TR/2001/REC-SVG-20010904/DTD/svg10.dtd" [
<!ATTLIST g
xmlns:kvg CDATA #FIXED "http://kanjivg.tagaini.net"
kvg:element CDATA #IMPLIED
kvg:variant CDATA #IMPLIED
kvg:partial CDATA #IMPLIED
kvg:original CDATA #IMPLIED
kvg:part CDATA #IMPLIED
kvg:number CDATA #IMPLIED
kvg:tradForm CDATA #IMPLIED
kvg:radicalForm CDATA #IMPLIED
kvg:position CDATA #IMPLIED
kvg:radical CDATA #IMPLIED
kvg:phon CDATA #IMPLIED >
<!ATTLIST path
xmlns:kvg CDATA #FIXED "http://kanjivg.tagaini.net"
kvg:type CDATA #IMPLIED >
]><svg xmlns="http://www.w3.org/2000/svg" width="109" height="109" viewBox="0 0 109 109"><g id="kvg:StrokePaths_093d7" style="fill:none;stroke:#000000;stroke-width:3;stroke-linecap:round;stroke-linejoin:round;"><g id="kvg:093d7" kvg:element="鏗"><g id="kvg:093d7-g1" kvg:element="金" kvg:position="left" kvg:radical="general"><path id="kvg:093d7-s1" kvg:type="㇒" d="M27.25 13.74c0 .83.05 1.49-.14 2.49-.96 5.18-10.08 22.48-17.89 30.15"/><path id="kvg:093d7-s2" kvg:type="㇔/㇏" d="M29.39 19.96c4.47 2.03 10.18 7.42 12.36 12.54"/><path id="kvg:093d7-s3" kvg:type="㇐" d="M17 41.5c1.71.0 2.49.09 3.05.06 4.95-.31 10.67-1.53 16.5-1.75.84-.03 1.02-.05 2.45-.05"/><path id="kvg:093d7-s4" kvg:type="㇐" d="M11.59 55.81c.59.33 2.56.48 3.17.43 5.49-.49 15.74-1.49 22.78-1.67.75-.02 2.38-.13 3.49.15"/><path id="kvg:093d7-s5" kvg:type="㇑a" d="M25.45 43.19c1.24.78 1.24 2.52 1.24 3.14.0 4.35.62 34.13.31 38.48"/><path id="kvg:093d7-s6" kvg:type="㇔" d="M13.64 66.51c3.63 5.32 5.41 11.08 6.15 14.19"/><path id="kvg:093d7-s7" kvg:type="㇒" d="M39.65 62.05c.34.84.52 2.06.38 2.76-.34 1.81-3.04 5.13-6.87 10.47"/><path id="kvg:093d7-s8" kvg:type="㇀/㇐" d="M10.5 90.25c1.25 1 2.75.75 4.5.25 1.29-.37 11.25-5.25 24.25-11.25"/></g><g id="kvg:093d7-g2" kvg:element="堅" kvg:position="right"><g id="kvg:093d7-g3" kvg:position="top"><g id="kvg:093d7-g4" kvg:element="臣" kvg:position="left"><path id="kvg:093d7-s9" kvg:type="㇑" d="M47 14.49c.21 1.01.55 2.58.62 3.08.07.51-.23 35.76-.32 38.9"/><path id="kvg:093d7-s10" kvg:type="㇐b" d="M47.71 16.72c2.4-.3 11.75-1.88 17.32-2.09.84-.03 1.35-.08 1.77.07"/><path id="kvg:093d7-s11" kvg:type="㇑a" d="M56.49 15.99c.36.27.57 1.15.64 1.66.07.5.01 6.79-.09 9.92"/><path id="kvg:093d7-s12" kvg:type="㇕b" d="M47.78 28.78c5.74-.75 13.75-1.39 17.73-1.91 1.61-.21 2.05.84 1.82 2.19-.42 2.44-1.37 7.42-1.8 10.36"/><path id="kvg:093d7-s13" kvg:type="㇐b" d="M47.74 42.09c2.4-.3 17.37-1.32 19.62-1.49"/><path id="kvg:093d7-s14" kvg:type="㇑a" d="M56.6 41.49c.36.27.57 1.15.64 1.65s-.01 7.55-.1 10.69"/><path id="kvg:093d7-s15" kvg:type="㇐b" d="M47.49 54.9c2.4-.3 12.16-1.15 17.73-1.35.84-.03 1.35-.08 1.77.07"/></g><g id="kvg:093d7-g5" kvg:element="又" kvg:position="right"><path id="kvg:093d7-s16" kvg:type="㇇" d="M73.09 16.58c.81.26.91.65 2.52.26 1.62-.39 14.28-1.5 15.39-1.89s1.92 1.43 1.51 2.85C87.78 34.68 82.5 45 72.31 53.51"/><path id="kvg:093d7-s17" kvg:type="㇏" d="M73.61 22.94c2.04.73 12 20.38 19.1 28.42 1.1 1.25 1.91 2.09 2.94 2.5"/></g></g><g id="kvg:093d7-g6" kvg:element="土" kvg:position="bottom"><path id="kvg:093d7-s18" kvg:type="㇐" d="M49.19 72.74c1.13.58 3.18.68 4.32.58 9.25-.83 21.24-1.48 35.8-1.99 1.88-.07 3 .28 3.94.57"/><path id="kvg:093d7-s19" kvg:type="㇑a" d="M69.08 59.87c.09.29 1.3 1.49 1.3 3.3.0 11.7-.27 12.34-.27 27.81"/><path id="kvg:093d7-s20" kvg:type="㇐" d="M40.4 93.16c1.38.51 3.9.62 5.27.51 17.03-1.42 32.54-2.92 48.38-2.4 2.29.08 3.67.24 4.82.5"/></g></g></g></g><g id="kvg:StrokeNumbers_093d7" style="font-size:8;fill:#808080"><text transform="matrix(1 0 0 1 19.50 12.50)">1</text><text transform="matrix(1 0 0 1 32.50 18.50)">2</text><text transform="matrix(1 0 0 1 22.50 38.50)">3</text><text transform="matrix(1 0 0 1 4.50 56.85)">4</text><text transform="matrix(1 0 0 1 19.50 50.50)">5</text><text transform="matrix(1 0 0 1 6.50 67.50)">6</text><text transform="matrix(1 0 0 1 32.50 64.50)">7</text><text transform="matrix(1 0 0 1 3.50 92.50)">8</text><text transform="matrix(1 0 0 1 40.50 21.50)">9</text><text transform="matrix(1 0 0 1 48.50 13.50)">10</text><text transform="matrix(1 0 0 1 60.50 22.88)">11</text><text transform="matrix(1 0 0 1 49.50 25.50)">12</text><text transform="matrix(1 0 0 1 50.50 38.50)">13</text><text transform="matrix(1 0 0 1 60.50 48.65)">14</text><text transform="matrix(1 0 0 1 49.50 51.50)">15</text><text transform="matrix(1 0 0 1 70.50 14.50)">16</text><text transform="matrix(1 0 0 1 76.75 27.50)">17</text><text transform="matrix(1 0 0 1 45.50 69.50)">18</text><text transform="matrix(1 0 0 1 56.50 62.50)">19</text><text transform="matrix(1 0 0 1 38.50 90.50)">20</text></g></svg>