<svg xmlns="http://www.w3.org/2000/svg" width="109" height="109" viewBox="0 0 109 109"><g id="kvg:StrokePaths_093dd" style="fill:none;stroke:#000000;stroke-width:3;stroke-linecap:round;stroke-linejoin:round;"><g id="kvg:093dd" kvg:element="鏝"><g id="kvg:093dd-g1" kvg:element="金" kvg:position="left" kvg:radical="general"><path id="kvg:093dd-s1" kvg:type="㇒" d="M30.75 12.74c0 .84.05 1.51-.15 2.53-1.07 5.26-11.2 22.82-19.87 30.61"/><path id="kvg:093dd-s2" kvg:type="㇔/㇏" d="M32.39 20.96c4.47 2.43 10.18 8.9 12.36 15.04"/><path id="kvg:093dd-s3" kvg:type="㇐" d="M18.5 42.5c1.77.0 2.58.09 3.15.06 5.12-.31 11.03-1.53 17.06-1.75.87-.03 1.06-.05 2.54-.05"/><path id="kvg:093dd-s4" kvg:type="㇐" d="M11.09 57.31c.68.33 2.93.48 3.63.43 6.29-.49 18.02-2.49 26.07-2.67.85-.02 2.72-.13 3.99.15"/><path id="kvg:093dd-s5" kvg:type="㇑a" d="M27.45 44.69c1.24.78 1.24 2.52 1.24 3.14.0 4.35.62 34.63.31 38.98"/><path id="kvg:093dd-s6" kvg:type="㇔" d="M13.89 68.76c3.78 5.23 5.63 10.89 6.4 13.94"/><path id="kvg:093dd-s7" kvg:type="㇒" d="M41.65 63.05c.34.84.52 2.06.38 2.76-.34 1.81-3.04 5.13-6.87 10.47"/><path id="kvg:093dd-s8" kvg:type="㇀/㇐" d="M12.5 92.75c1.25 1 2.75.75 4.5.25 1.29-.37 11.25-5.75 24.25-11.75"/></g><g id="kvg:093dd-g2" kvg:element="曼" kvg:position="right"><g id="kvg:093dd-g3" kvg:element="日" kvg:position="top"><path id="kvg:093dd-s9" kvg:type="㇑" d="M56.91 15.14c.19.36.19.62.3 1.08.85 3.78 2.65 15.34 3.17 22.4"/><path id="kvg:093dd-s10" kvg:type="㇕a" d="M57.79 16.15c6.58-.95 18.31-1.07 23.22-1.87 1.8-.29 2.79.97 2.63 3.28-.26 3.83-1.82 13.21-2.65 19.59"/><path id="kvg:093dd-s11" kvg:type="㇐a" d="M59.02 26.94c2.14-.37 21.75-2.1 23.52-2.26"/><path id="kvg:093dd-s12" kvg:type="㇐a" d="M60.72 36.59C65.45 36.19 75 35.25 81 34.83"/></g><g id="kvg:093dd-g4" kvg:position="bottom"><g id="kvg:093dd-g5" kvg:element="罒" kvg:variant="true" kvg:original="网"><path id="kvg:093dd-s13" kvg:type="㇑" d="M50.1 44.78c.22.28.45.52.55.87.78 2.79 2.61 10.46 3.14 15.47"/><path id="kvg:093dd-s14" kvg:type="㇕a" d="M51.18 46.17c4.94-1.09 38.1-2.99 40.73-3.36.96-.13 2.26.94 2 2.51-.54 3.27-2.85 8.88-4.28 13.55"/><path id="kvg:093dd-s15" kvg:type="㇑a" d="M65.08 45.61c.15 1.86.59 10.41.74 12.5"/><path id="kvg:093dd-s16" kvg:type="㇑a" d="M77.44 44.45c-.15 3.02-.1 9.41-.4 12.77"/><path id="kvg:093dd-s17" kvg:type="㇐a" d="M54.49 59.11c3.08-.41 31.26-1.99 35.49-2.62"/></g><g id="kvg:093dd-g6" kvg:element="又"><path id="kvg:093dd-s18" kvg:type="㇇" d="M54.35 69.25c1.21.28 1.36.7 3.77.28 2.41-.42 24.49-2.59 26.15-3.01 1.66-.42 3 1.76 1.61 3.53C75.25 83.5 59 92.26 44.27 98"/><path id="kvg:093dd-s19" kvg:type="㇏" d="M53.9 74.44c3.8.54 22.37 15.01 35.61 20.94 2.06.92 3.56 1.54 5.48 1.85"/></g></g></g></g></g></svg>