<svg xmlns="http://www.w3.org/2000/svg" width="109" height="109" viewBox="0 0 109 109"><g id="kvg:StrokePaths_09413" style="fill:none;stroke:#000000;stroke-width:3;stroke-linecap:round;stroke-linejoin:round;"><g id="kvg:09413" kvg:element="鐓"><g id="kvg:09413-g1" kvg:element="金" kvg:position="left" kvg:radical="general"><path id="kvg:09413-s1" kvg:type="㇒" d="M27.25 14.24c0 .77.05 1.38-.14 2.3-.97 4.79-10.22 20.76-18.14 27.84"/><path id="kvg:09413-s2" kvg:type="㇔/㇏" d="M27.89 20.21C32 22.04 37.25 26.9 39.25 31.5"/><path id="kvg:09413-s3" kvg:type="㇐" d="M17 41c1.5.0 2.18.09 2.67.06C24 40.74 30 39.53 35.1 39.3c.74-.03.9-.05 2.15-.05"/><path id="kvg:09413-s4" kvg:type="㇐" d="M11.09 54.31c.59.33 2.56.48 3.17.43 5.49-.49 16.24-2.49 21.78-3.17.74-.09 2.38-.13 3.49.15"/><path id="kvg:09413-s5" kvg:type="㇑a" d="M25.45 42.19c1.24.78 1.24 2.52 1.24 3.14.0 4.35.62 38.13.31 42.48"/><path id="kvg:09413-s6" kvg:type="㇔" d="M13.89 66.26c3.19 5.6 4.75 11.67 5.4 14.94"/><path id="kvg:09413-s7" kvg:type="㇒" d="M38.68 60.05c.32.98.48 2.41.36 3.23-.32 2.12-2.82 6.01-6.37 12.25"/><path id="kvg:09413-s8" kvg:type="㇀/㇐" d="M12 92.86c1.16.84 2.56.63 4.19.21 1.2-.31 10.47-4.81 22.56-9.82"/></g><g id="kvg:09413-g2" kvg:element="敦" kvg:position="right"><g id="kvg:09413-g3" kvg:element="享" kvg:position="left"><g id="kvg:09413-g4" kvg:element="亠" kvg:position="top"><path id="kvg:09413-s9" kvg:type="㇑a" d="M53.16 12.75c.74.51 1.95 2.46 1.94 3.47.0 3.71-.23 7.9-.1 11.04"/><path id="kvg:09413-s10" kvg:type="㇐" d="M42.8 27.81c.6.06 1.98.31 2.57.3 5.89-.1 13.89-1.35 20.42-2.34.99-.15 1.22-.01 2.75.38"/></g><g id="kvg:09413-g5" kvg:position="bottom"><g id="kvg:09413-g6" kvg:element="口"><path id="kvg:09413-s11" kvg:type="㇑" d="M44.68 36.35c.22.24.44.43.54.73.76 2.34 1.92 8.49 2.44 12.69"/><path id="kvg:09413-s12" kvg:type="㇕b" d="M46.04 37.15c5.34-.98 15.04-2.07 17.8-2.4 1.01-.12 1.61 1.22 1.47 1.93-.6 2.95-.75 5.18-2.03 9.43"/><path id="kvg:09413-s13" kvg:type="㇐b" d="M47.87 48.22c3.24-.37 12.8-1.37 16.91-1.74"/></g><g id="kvg:09413-g7" kvg:element="子" kvg:variant="true"><path id="kvg:09413-s14" kvg:type="㇖" d="M46.39 56.17c.66.2 1.91.41 2.92.34 3.93-.25 12.81-2.11 13.97-2.11s1.77 1.08.61 2.28c-2.18 2.25-5.65 6.33-10.22 9.9"/><path id="kvg:09413-s15" kvg:type="㇁" d="M53.17 66.72c3.34 3.49 7.91 14.46 3.72 24.67-2.48 6.04-4.72 1.02-5.91.51"/><path id="kvg:09413-s16" kvg:type="㇀/㇐" d="M44.17 77.95c.47 1.07 2.06.56 2.87.17 4.73-2.3 12.48-5.98 19.59-9.33"/></g></g></g><g id="kvg:09413-g8" kvg:element="攵" kvg:variant="true" kvg:original="攴" kvg:position="right"><g id="kvg:09413-g9" kvg:element="𠂉" kvg:position="top"><path id="kvg:09413-s17" kvg:type="㇒" d="M78.8 14.04c.03.79.15 2.08-.05 3.18-1.44 8.02-4.69 21.6-9.68 31.28"/><path id="kvg:09413-s18" kvg:type="㇐" d="M75.19 35.58c1.12.23 3.2.0 3.8-.03 6.27-.37 8.6-1.25 18.17-1.84 1.08-.07 1.73-.02 2.01.06"/></g><g id="kvg:09413-g10" kvg:element="乂" kvg:position="bottom"><g id="kvg:09413-g11" kvg:element="丿"><path id="kvg:09413-s19" kvg:type="㇒" d="M89.32 37.58c.43 1.39.66 2.38.21 4.92-4.05 23.04-13.22 42.86-26.62 52.55"/></g><path id="kvg:09413-s20" kvg:type="㇏" d="M71.07 52.44c.93.81 1.34 1.05 2.01 2.48 4.54 9.69 12.88 28.43 18.93 37.62 1.12 1.69 2.3 2.82 3.23 2.98"/></g></g></g></g></g></svg>