<svg xmlns="http://www.w3.org/2000/svg" width="109" height="109" viewBox="0 0 109 109"><g id="kvg:StrokePaths_09418"><g id="kvg:09418" kvg:element="鐘"><g id="kvg:09418-g1" kvg:element="金" kvg:position="left" kvg:radical="general"><path id="kvg:09418-s1" kvg:type="㇒" d="M28.75 16.24c0 .78.05 1.4-.15 2.33-1.04 4.87-10.67 21.1-19.13 28.3"/><path id="kvg:09418-s2" kvg:type="㇔/㇏" d="M30.62 22.62C34.92 24.3 40.4 28.76 42.5 33"/><path id="kvg:09418-s3" kvg:type="㇐" d="M19 41.5c1.17.0 2.23.13 3.39-.08 4.44-.83 8.91-1.61 13.37-2.25 1.02-.15 1.96-.17 2.99-.17"/><path id="kvg:09418-s4" kvg:type="㇐" d="M13.34 56.06c1.54.44 4.23.36 5.67.2 5.64-.64 14.37-1.69 20.52-2.94.73-.15 2.38-.38 3.49-.1"/><path id="kvg:09418-s5" kvg:type="㇑a" d="M27.7 42.19c1.18 1.18 1.49 2.43 1.49 4.14.0 4.35.06 30.67.06 36.48"/><path id="kvg:09418-s6" kvg:type="㇔" d="M15.64 67.26c2.6 3.73 3.87 7.76 4.4 9.94"/><path id="kvg:09418-s7" kvg:type="㇒" d="M41.15 60.55c.1.83.0 1.79-.36 2.47-1.54 2.86-2.79 5.52-6.62 11.26"/><path id="kvg:09418-s8" kvg:type="㇀/㇐" d="M13.25 87.98c.75.89 2.02.94 3.11.53 3.64-1.38 10.02-3.76 24.39-9.26"/></g><g id="kvg:09418-g2" kvg:element="童" kvg:position="right" kvg:phon="童"><g id="kvg:09418-g3" kvg:element="立" kvg:position="top"><g id="kvg:09418-g4" kvg:element="亠" kvg:position="top"><path id="kvg:09418-s9" kvg:type="㇑a" d="M66.11 13.5c.95.95 1.18 2.12 1.18 3.93.0 1.53.0 4.07.0 6.05"/><path id="kvg:09418-s10" kvg:type="㇐" d="M51.11 25.94c1.87.59 4 .23 5.9.02 6.31-.69 17.85-2.22 24.99-2.72 1.87-.13 3.7-.19 5.55.16"/></g><g id="kvg:09418-g5" kvg:position="bottom"><path id="kvg:09418-s11" kvg:type="㇔" d="M57.5 29.62c2.38 2.84 3.46 5.34 3.67 7.22"/><path id="kvg:09418-s12" kvg:type="㇒" d="M80.43 26.92c0 .71-.14 1.51-.21 1.8-.44 1.94-2.23 4.83-3.32 6.31"/><path id="kvg:09418-s13" kvg:type="㇐" d="M45.47 40.26c3.03.37 5.36.16 7.79-.12 10.88-1.24 23.21-2.95 35.13-3.72 2.5-.16 4.91-.3 7.39.14"/></g></g><g id="kvg:09418-g6" kvg:element="里" kvg:position="bottom"><g id="kvg:09418-g7" kvg:element="日"><path id="kvg:09418-s14" kvg:type="㇑" d="M51.7 48.03c.82.82 1.31 2.09 1.51 3.33 1.04 6.4 1.45 9.02 2.11 13.88.19 1.37.35 2.7.49 3.91"/><path id="kvg:09418-s15" kvg:type="㇕a" d="M53.68 49.24c11.07-1.74 24.48-3.32 31.35-4.05 2.52-.27 3.6 1.18 3.34 3.51-.31 2.85-.87 8-2.27 13.81-.33 1.35-.66 2.74-.99 4.14"/><path id="kvg:09418-s16" kvg:type="㇐a" d="M55.4 58.22c3-.34 25.6-2.72 30.81-3.03"/><path id="kvg:09418-s17" kvg:type="㇐a" d="M56.88 68.07c7.62-.95 18.33-2.22 27.48-2.83"/></g><path id="kvg:09418-s18" kvg:type="㇑a" d="M69.11 49.79c.8.8 1 2.02 1 3.32C70.11 63 70 86.73 70 89.38"/><path id="kvg:09418-s19" kvg:type="㇐" d="M53.83 78.77c1.51.7 3.71.24 5.29.11 6.51-.52 16.18-1.99 23.5-2.29 1.64-.07 3.35-.22 4.95.22"/><path id="kvg:09418-s20" kvg:type="㇐" d="M42.24 91.55c2.24.91 5.69.57 8.02.39 10.8-.85 27.05-2.37 40.11-2.64 2.44-.05 5.21.04 7.6.63"/></g></g></g></g></svg>