<!DOCTYPE svg PUBLIC "-//W3C//DTD SVG 1.0//EN" "http://www.w3.org/TR/2001/REC-SVG-20010904/DTD/svg10.dtd" [
<!ATTLIST g
xmlns:kvg CDATA #FIXED "http://kanjivg.tagaini.net"
kvg:element CDATA #IMPLIED
kvg:variant CDATA #IMPLIED
kvg:partial CDATA #IMPLIED
kvg:original CDATA #IMPLIED
kvg:part CDATA #IMPLIED
kvg:number CDATA #IMPLIED
kvg:tradForm CDATA #IMPLIED
kvg:radicalForm CDATA #IMPLIED
kvg:position CDATA #IMPLIED
kvg:radical CDATA #IMPLIED
kvg:phon CDATA #IMPLIED >
<!ATTLIST path
xmlns:kvg CDATA #FIXED "http://kanjivg.tagaini.net"
kvg:type CDATA #IMPLIED >
]><svg xmlns="http://www.w3.org/2000/svg" width="109" height="109" viewBox="0 0 109 109"><g id="kvg:StrokePaths_0941a" style="fill:none;stroke:#000000;stroke-width:3;stroke-linecap:round;stroke-linejoin:round;"><g id="kvg:0941a" kvg:element="鐚"><g id="kvg:0941a-g1" kvg:element="金" kvg:position="left" kvg:radical="general"><path id="kvg:0941a-s1" kvg:type="㇒" d="M29.25 13.24c0 .82.05 1.47-.16 2.45C28 20.79 17.61 37.82 8.72 45.38"/><path id="kvg:0941a-s2" kvg:type="㇔/㇏" d="M30.64 20.21c4.74 2.15 10.8 7.87 13.11 13.29"/><path id="kvg:0941a-s3" kvg:type="㇐" d="M19.5 39.86c1.56.0 2.27.06 2.77.04 4.5-.21 9.7-1.05 15-1.21.77-.02.93-.04 2.23-.04"/><path id="kvg:0941a-s4" kvg:type="㇐" d="M11.09 55.31c.68.33 2.91.48 3.6.43 6.24-.49 17.88-1.99 25.87-2.17.85-.02 2.7-.13 3.96.15"/><path id="kvg:0941a-s5" kvg:type="㇑a" d="M26.95 40.69c1.24.78 1.24 2.52 1.24 3.14.0 4.35.62 39.13.31 43.48"/><path id="kvg:0941a-s6" kvg:type="㇔" d="M12.39 66.26c4.08 5.6 6.07 11.67 6.9 14.94"/><path id="kvg:0941a-s7" kvg:type="㇒" d="M41.53 63.05c.44.8.17 1.98.0 2.66-.44 1.74-3.42 4.94-8.35 10.07"/><path id="kvg:0941a-s8" kvg:type="㇀/㇐" d="M11.5 92.11c1.24.84 2.73.63 4.46.21 1.28-.31 11.15-4.81 24.04-9.82"/></g><g id="kvg:0941a-g2" kvg:element="惡" kvg:position="right"><g id="kvg:0941a-g3" kvg:element="亞" kvg:position="top"><g id="kvg:0941a-g4" kvg:element="二" kvg:part="1"><path id="kvg:0941a-s9" kvg:type="㇐" d="M48.52 18.1c.97.41 2.74.46 3.71.41 9.67-.57 26.41-2.12 37.63-2.1 1.61.0 2.58.19 3.39.4"/></g><path id="kvg:0941a-s10" kvg:type="㇑" d="M63.1 20.4c.53.54.95 1.44.95 2.39.0 2.17-.01 6.06-.01 9"/><path id="kvg:0941a-s11" kvg:type="㇐" d="M54.04 33.43c1.48-.15 10.77-1.34 11.98-1.49"/><path id="kvg:0941a-s12" kvg:type="㇞" d="M52.81 32.18c.58.63 1.01 1.27 1.02 2.16.02 1.86-.08 9.05-.14 11.62-.01.56.1 1.16 1.17.98 2.41-.43 6.5-.95 8.99-1.48.62-.13 1.26.45 1.26 1.44.0 2.74-.09 7.53-.09 12.88"/><path id="kvg:0941a-s13" kvg:type="㇞" d="M75.88 17.21c.58.63 1.01 1.27 1.02 2.16.02 1.86-.35 8.06-.41 10.63-.01.56.1 1.16 1.17.98 2.41-.43 9.98-.69 12.49-1.07 1.48-.23 1.49.48 1.26 1.44-.44 1.84-1.52 9.47-1.97 12.69"/><path id="kvg:0941a-s14" kvg:type="㇐" d="M77.85 45.02c1.48-.15 11.81-.34 13.02-.49"/><path id="kvg:0941a-s15" kvg:type="㇑" d="M76.41 43.58c.53.54.95 1.44.95 2.39.0 2.17-.01 9.9-.01 12.85"/><g id="kvg:0941a-g5" kvg:element="二" kvg:part="2"><path id="kvg:0941a-s16" kvg:type="㇐" d="M50.5 60.45c.82.3 2.31.3 3.12.3 7.78.0 28.11-2.53 36.02-2.52 1.36.0 2.17.14 2.85.29"/></g></g><g id="kvg:0941a-g6" kvg:element="心" kvg:position="bottom"><path id="kvg:0941a-s17" kvg:type="㇔" d="M50.13 76.57c.2 2-1.97 10.83-3.55 14.17"/><path id="kvg:0941a-s18" kvg:type="㇃" d="M56.11 69.75c4.54 13.79 11.73 25.76 29.25 25.93 8.45.08 9-3.68 1.95-9.95"/><path id="kvg:0941a-s19" kvg:type="㇔a" d="M72.1 72.25c1.51 5.25 3.7 10.5 5.31 2.46"/><path id="kvg:0941a-s20" kvg:type="㇔" d="M88.24 69.48c4.29 2.62 7.51 5 11 13.11"/></g></g></g></g><g id="kvg:StrokeNumbers_0941a" style="font-size:8;fill:#808080"><text transform="matrix(1 0 0 1 21.50 12.50)">1</text><text transform="matrix(1 0 0 1 34.50 19.50)">2</text><text transform="matrix(1 0 0 1 22.24 37.50)">3</text><text transform="matrix(1 0 0 1 4.50 56.50)">4</text><text transform="matrix(1 0 0 1 21.50 49.37)">5</text><text transform="matrix(1 0 0 1 5.50 66.85)">6</text><text transform="matrix(1 0 0 1 34.50 64.50)">7</text><text transform="matrix(1 0 0 1 3.50 91.50)">8</text><text transform="matrix(1 0 0 1 47.12 16.05)">9</text><text transform="matrix(1 0 0 1 52.87 25.20)">10</text><text transform="matrix(1 0 0 1 51.87 31.75)">11</text><text transform="matrix(1 0 0 1 43.24 39.62)">12</text><text transform="matrix(1 0 0 1 77.80 24.22)">13</text><text transform="matrix(1 0 0 1 77.37 43.13)">14</text><text transform="matrix(1 0 0 1 78.04 53.77)">15</text><text transform="matrix(1 0 0 1 48.13 58.76)">16</text><text transform="matrix(1 0 0 1 39.74 79.89)">17</text><text transform="matrix(1 0 0 1 45.84 69.80)">18</text><text transform="matrix(1 0 0 1 65.39 70.24)">19</text><text transform="matrix(1 0 0 1 81.26 68.12)">20</text></g></svg>