<svg xmlns="http://www.w3.org/2000/svg" width="109" height="109" viewBox="0 0 109 109"><g id="kvg:StrokePaths_09435" style="fill:none;stroke:#000000;stroke-width:3;stroke-linecap:round;stroke-linejoin:round;"><g id="kvg:09435" kvg:element="鐵"><g id="kvg:09435-g1" kvg:element="金" kvg:position="left" kvg:radical="general"><path id="kvg:09435-s1" kvg:type="㇒" d="M28.25 17.74c0 .69.04 1.24-.13 2.07-.88 4.31-9.24 18.69-16.4 25.07"/><path id="kvg:09435-s2" kvg:type="㇔/㇏" d="M28.89 21.46C33.27 23.08 38.87 27.4 41 31.5"/><path id="kvg:09435-s3" kvg:type="㇐" d="M18 43.5c1.5.0 2.68.09 3.17.06C25.5 43.24 31 42.25 36.1 41.3c.73-.13.9-.05 2.15-.05"/><path id="kvg:09435-s4" kvg:type="㇐" d="M12.59 57.81c.59.33 2.56.48 3.17.43 5.49-.49 15.74-2.74 22.78-3.67.74-.1 2.38-.13 3.49.15"/><path id="kvg:09435-s5" kvg:type="㇑a" d="M27.45 44.19c1.24.78 1.24 2.52 1.24 3.14.0 4.35.62 35.13.31 39.48"/><path id="kvg:09435-s6" kvg:type="㇔" d="M13.89 67.26c4.08 4.85 6.07 10.11 6.9 12.94"/><path id="kvg:09435-s7" kvg:type="㇒" d="M40.71 61.55c.29.9.44 2.21.33 2.97-.29 1.95-2.6 5.52-5.87 11.26"/><path id="kvg:09435-s8" kvg:type="㇀/㇐" d="M12 91.82c1.23.9 2.7.67 4.42.22 1.27-.33 11.05-5.16 23.83-10.54"/></g><g id="kvg:09435-g2" kvg:element="載" kvg:variant="true" kvg:position="right"><g id="kvg:09435-g3" kvg:element="裁" kvg:variant="true"><g id="kvg:09435-g4" kvg:element="吉" kvg:part="1"><g id="kvg:09435-g5" kvg:element="士" kvg:part="1" kvg:original="土"><path id="kvg:09435-s9" kvg:type="㇐" d="M46.5 28.25c.77.24 2.19.28 2.97.24 5.42-.34 12.52-2.02 17.61-2.54 1.28-.13 2.07.11 2.71.23"/><path id="kvg:09435-s10" kvg:type="㇑" d="M57.38 15.3c.08.26 1.25 1.37 1.25 3.04.0 10.77.1 5.93.1 20.18"/><g id="kvg:09435-g6" kvg:element="戈" kvg:part="1"><g id="kvg:09435-g7" kvg:element="弋" kvg:part="1"><g id="kvg:09435-g8" kvg:element="士" kvg:part="2" kvg:original="土"><path id="kvg:09435-s11" kvg:type="㇐" d="M43.88 39.71c1.05.32 2.97.43 4.01.32 14.33-1.5 35.69-4.49 47.28-4.91 1.74-.06 2.79.15 3.66.32"/></g></g></g></g></g><g id="kvg:09435-g9" kvg:element="呈"><g id="kvg:09435-g10" kvg:element="吉" kvg:part="2" kvg:position="top"><g id="kvg:09435-g11" kvg:element="口"><path id="kvg:09435-s12" kvg:type="㇑" d="M47.75 47.77c.32.24.65.43.79.73 1.11 2.34 2.45 8.8 3.21 13"/><path id="kvg:09435-s13" kvg:type="㇕b" d="M49.75 49.36c6.57-1.22 13.06-2.57 16.83-2.88 1.37-.11 2.2.67 2 1.33-.81 2.73-1.77 6.04-2.98 9.82"/><path id="kvg:09435-s14" kvg:type="㇐b" d="M51.9 59.45c4.42-.35 9.01-.95 15.08-1.48"/></g></g><g id="kvg:09435-g12" kvg:element="王" kvg:original="玉" kvg:partial="true" kvg:position="bottom"><path id="kvg:09435-s15" kvg:type="㇐" d="M48.51 69.14c.42.19 2.73.24 3.16.18 2-.26 10.12-1.09 14.91-1.38.66-.04 1.87-.14 2.41.02"/><path id="kvg:09435-s16" kvg:type="㇑a" d="M55.92 69.11c.59.34 1 1.05 1 1.32.0 2.26.35 14.3.23 15.81"/><path id="kvg:09435-s17" kvg:type="㇐" d="M47.92 78.04c.37.15 3 .18 3.39.14 2.19-.2 9.79-1.88 12.82-2.09.47-.04 2.17-.06 2.87.07"/><path id="kvg:09435-s18" kvg:type="㇐" d="M46.25 89.17c.45.13 2.22 1.11 2.9.86 4.36-1.58 10.58-3.88 17.22-6.61"/></g></g><g id="kvg:09435-g13" kvg:element="戈" kvg:part="2"><g id="kvg:09435-g14" kvg:element="弋" kvg:part="2"><path id="kvg:09435-s19" kvg:type="㇂" d="M73.24 15c.95 1.7 1.63 2.17 1.85 5.81 1.65 28.26 6.17 58.94 18.79 70.7 3.89 3.63 3.2.73 2.73-6.78"/></g><g id="kvg:09435-g15" kvg:element="丿"><path id="kvg:09435-s20" kvg:type="㇒" d="M91.73 45.88c.07 1.06.24 2.76-.14 4.26-2.46 9.66-10.5 29.26-24.26 41.33"/></g><g id="kvg:09435-g16" kvg:element="弋" kvg:part="3"><g id="kvg:09435-g17" kvg:element="丶"><path id="kvg:09435-s21" kvg:type="㇔" d="M83.67 19.26c2.97 1.96 7.73 6.44 9.12 9.8"/></g></g></g></g></g></g></g></svg>