<svg xmlns="http://www.w3.org/2000/svg" width="109" height="109" viewBox="0 0 109 109"><g id="kvg:StrokePaths_09436"><g id="kvg:09436" kvg:element="鐶"><g id="kvg:09436-g1" kvg:element="金" kvg:position="left" kvg:radical="general"><path id="kvg:09436-s1" kvg:type="㇒" d="M28.75 14.24c0 .79.05 1.42-.15 2.37-1.05 4.94-11.06 21.44-19.63 28.76"/><path id="kvg:09436-s2" kvg:type="㇔/㇏" d="M30.89 19.46C35 21.33 40.25 26.3 42.25 31"/><path id="kvg:09436-s3" kvg:type="㇐" d="M17.5 40.86c1.73.0 2.52.1 3.08.06 5.01-.35 10.79-1.72 16.69-1.97.85-.04 1.04-.06 2.48-.06"/><path id="kvg:09436-s4" kvg:type="㇐" d="M12.59 55.31c.59.33 2.56.48 3.17.43 5.49-.49 17.24-2.24 23.78-3.17.74-.1 2.38-.13 3.49.15"/><path id="kvg:09436-s5" kvg:type="㇑a" d="M26.95 41.19c1.24.78 1.24 2.52 1.24 3.14.0 4.35.62 34.63.31 38.98"/><path id="kvg:09436-s6" kvg:type="㇔" d="M13.89 65.26c3.49 5.23 5.19 10.89 5.9 13.94"/><path id="kvg:09436-s7" kvg:type="㇒" d="M40.23 60.05c.28.9.42 2.21.32 2.97-.28 1.95-2.49 5.52-5.63 11.26"/><path id="kvg:09436-s8" kvg:type="㇀/㇐" d="M11 89.75c1.27 1 2.8.75 4.58.25 1.32-.37 11.45-5.75 24.67-11.75"/></g><g id="kvg:09436-g2" kvg:element="睘" kvg:position="right"><g id="kvg:09436-g3" kvg:element="罒" kvg:variant="true" kvg:original="网"><path id="kvg:09436-s9" kvg:type="㇑" d="M50 17.35c.23.28.47.99.57 1.33.8 2.73 2.76 9.79 3.31 14.7"/><path id="kvg:09436-s10" kvg:type="㇕a" d="M51.94 18.23c6.81-1.1 36.38-2.89 39.09-3.25.99-.13 2.33.92 2.07 2.46-.55 3.2-2.42 9.2-3.89 13.77"/><path id="kvg:09436-s11" kvg:type="㇑a" d="M63.82 17.71c.04.53.67 1.64.82 3.01.38 3.37.47 8.27.58 9.73"/><path id="kvg:09436-s12" kvg:type="㇑a" d="M77.45 17.07c-.04.77.38 1.87.27 3.09-.3 3.49-1.29 8.07-1.52 9.41"/><path id="kvg:09436-s13" kvg:type="㇐a" d="M54.61 31.41c3.18-.41 30.59-1.91 34.96-2.53"/></g><path id="kvg:09436-s14" kvg:type="㇐" d="M47.75 40.49c1.22.34 3.46.43 4.68.34 7.78-.59 32.26-3.32 39.8-2.92 2.03.11 3.26.16 4.27.33"/><g id="kvg:09436-g4" kvg:element="口"><path id="kvg:09436-s15" kvg:type="㇑" d="M54.25 47.88c.26.24.53.45.64.75.9 2.42 1.99 8.65 2.61 13"/><path id="kvg:09436-s16" kvg:type="㇕b" d="M55.87 49.11c8.49-1.02 24.02-2.69 28.4-3.03 1.6-.12 2.56 1.26 2.33 2-.95 3.05-1.6 4.43-2.64 9.72"/><path id="kvg:09436-s17" kvg:type="㇐b" d="M57.88 60.08c8.12-.33 17.88-1.58 27.69-1.85"/></g><g id="kvg:09436-g5" kvg:element="𧘇"><path id="kvg:09436-s18" kvg:type="㇒" d="M67.43 61.03c.07.55.29 1.48-.14 2.23-2.77 4.84-11.79 13.68-25.68 21.33"/><path id="kvg:09436-s19" kvg:type="㇕/㇑" d="M56.79 78.29c.39.33.81.64.81 1.21-.03 7.13-.06 7.84-.26 12.7-.09 2.06.91 2.06 2.91.81s10-8 12.25-9.5"/><path id="kvg:09436-s20" kvg:type="㇒" d="M87.78 64.23c.02.21.26 1 .12 1.27-.94 1.7-3.87 4.14-8.64 7.53"/><path id="kvg:09436-s21" kvg:type="㇏" d="M68.67 66.21c1.21.83 3.2 3.13 3.47 3.52C76.5 76 88 88 92.41 91.38c1.36 1.04 2.33 1.66 3.59 1.99"/></g></g></g></g></svg>