<svg xmlns="http://www.w3.org/2000/svg" width="109" height="109" viewBox="0 0 109 109"><g id="kvg:StrokePaths_09438" style="fill:none;stroke:#000000;stroke-width:3;stroke-linecap:round;stroke-linejoin:round;"><g id="kvg:09438" kvg:element="鐸"><g id="kvg:09438-g1" kvg:element="金" kvg:position="left" kvg:radical="general"><path id="kvg:09438-s1" kvg:type="㇒" d="M30.75 13.99c0 .78.05 1.41-.14 2.35-1 4.9-10.5 21.27-18.63 28.53"/><path id="kvg:09438-s2" kvg:type="㇔/㇏" d="M31.89 20.21c4.65 1.99 10.6 7.28 12.86 12.29"/><path id="kvg:09438-s3" kvg:type="㇐" d="M20.5 39.93c1.68.0 2.44.1 2.98.06 4.84-.33 10.42-1.62 16.12-1.86.82-.04 1-.06 2.4-.06"/><path id="kvg:09438-s4" kvg:type="㇐" d="M12.59 55.54c.68.41 2.93.6 3.63.54 6.29-.62 15.75-3.12 23.81-3.33.85-.02 2.73-.17 4 .19"/><path id="kvg:09438-s5" kvg:type="㇑a" d="M29.95 41.69c1.24.78 1.24 2.52 1.24 3.14.0 4.35.62 32.63.31 36.98"/><path id="kvg:09438-s6" kvg:type="㇔" d="M15.64 65.26c3.34 4.66 4.97 9.71 5.65 12.44"/><path id="kvg:09438-s7" kvg:type="㇒" d="M42.68 59.55c.32.71.48 1.75.36 2.35-.32 1.54-2.82 4.36-6.37 8.88"/><path id="kvg:09438-s8" kvg:type="㇀/㇐" d="M12.5 87.33c1.5 1.42 4.05 1.09 5.18.68C18.98 87.52 28.42 83.5 42 77.75"/></g><g id="kvg:09438-g2" kvg:element="睪" kvg:position="right"><g id="kvg:09438-g3" kvg:element="罒" kvg:variant="true" kvg:original="网" kvg:position="top"><path id="kvg:09438-s9" kvg:type="㇑" d="M48.5 16.64c.23.3 1.47 2.05 1.58 2.43.81 3 2.28 9.78 2.84 15.17"/><path id="kvg:09438-s10" kvg:type="㇕a" d="M49.96 18.68C59 17.5 89.27 14.88 92 14.48c1-.14 2.36 1.02 2.09 2.7-.56 3.52-1.94 9.06-3.43 14.09"/><path id="kvg:09438-s11" kvg:type="㇑a" d="M63.98 18c.16 2 1.26 10.75 1.42 13"/><path id="kvg:09438-s12" kvg:type="㇑a" d="M78.78 16.75C78.62 20 77.83 27.5 77.52 29.5"/><path id="kvg:09438-s13" kvg:type="㇐a" d="M53.15 32.12c5.6-.37 28.1-2.62 37.89-2.9"/></g><g id="kvg:09438-g4" kvg:element="幸" kvg:position="bottom"><g id="kvg:09438-g5" kvg:element="土" kvg:position="top"><path id="kvg:09438-s14" kvg:type="㇐" d="M54.82 41.57c.73.23 2.07.29 2.8.23 9.38-.79 18.3-2.31 27.74-2.51 1.22-.03 1.95.11 2.55.23"/><path id="kvg:09438-s15" kvg:type="㇑a" d="M69.81 32.75c.07.23.98 1.21.98 2.69.0 9.6-.11 11.9-.11 14.31"/><path id="kvg:09438-s16" kvg:type="㇐" d="M49.63 52.01c.88.43 2.5.55 3.38.43 13.23-1.8 24.49-2.88 40.04-3.64 1.47-.07 2.35.2 3.08.42"/></g><g id="kvg:09438-g6" kvg:element="𢆉"><g id="kvg:09438-g7" kvg:element="䒑" kvg:part="1"><path id="kvg:09438-s17" kvg:type="㇔" d="M59.91 53.98c1.74 1.85 4.51 7.62 4.94 10.5"/><path id="kvg:09438-s18" kvg:type="㇒" d="M82.96 52.25c.02.27.03.69-.03 1.07-.37 2.27-2.47 7.24-5.34 10.28"/></g><g id="kvg:09438-g8" kvg:element="干" kvg:position="bottom"><g id="kvg:09438-g9" kvg:element="䒑" kvg:part="2"><path id="kvg:09438-s19" kvg:type="㇐" d="M51.71 67.62c.62.36 2.74.38 3.36.32 4.27-.42 26.7-2.66 33.98-3.37 1.02-.1 3.18.31 3.69.49"/></g><g id="kvg:09438-g10" kvg:element="十"><path id="kvg:09438-s20" kvg:type="㇐" d="M47.74 79.38c1.53.47 4.36.6 5.89.47 10.54-.89 26.3-2.45 38.44-2.77 2.56-.07 4.09.23 5.37.46"/><path id="kvg:09438-s21" kvg:type="㇑" d="M70.02 66.99c.3.4.93 2.23.99 3.04.06.81-.04 23.43-.1 28.47"/></g></g></g></g></g></g></g></svg>