<svg xmlns="http://www.w3.org/2000/svg" width="109" height="109" viewBox="0 0 109 109"><g id="kvg:StrokePaths_09444"><g id="kvg:09444" kvg:element="鑄"><g id="kvg:09444-g1" kvg:element="金" kvg:position="left" kvg:radical="general"><path id="kvg:09444-s1" kvg:type="㇒" d="M28.25 13.74c0 .7.05 1.26-.13 2.11-.93 4.39-9.8 19.03-17.39 25.53"/><path id="kvg:09444-s2" kvg:type="㇔/㇏" d="M29.89 18.71C34.36 20.37 40.07 24.8 42.25 29"/><path id="kvg:09444-s3" kvg:type="㇐" d="M17.75 40c1.6.0 2.32.09 2.84.06 4.61-.31 9.94-1.53 15.37-1.75.79-.03.95-.05 2.29-.05"/><path id="kvg:09444-s4" kvg:type="㇐" d="M12.59 54.31c.59.33 2.56.48 3.17.43 5.49-.49 16.24-2.99 23.28-3.17.75-.02 2.38-.13 3.49.15"/><path id="kvg:09444-s5" kvg:type="㇑a" d="M27.45 42.19c1.24.78 1.24 2.52 1.24 3.14.0 4.35.12 34.13-.19 38.48"/><path id="kvg:09444-s6" kvg:type="㇔" d="M14.14 64.26c3.63 5.04 5.41 10.5 6.15 13.44"/><path id="kvg:09444-s7" kvg:type="㇒" d="M41.2 59.55c.3.84.46 2.06.34 2.76-.3 1.81-2.71 5.13-6.12 10.47"/><path id="kvg:09444-s8" kvg:type="㇀/㇐" d="M12.5 89.75c1.25 1 2.75.75 4.5.25 1.29-.37 9.75-4.25 22.75-10.25"/></g><g id="kvg:09444-g2" kvg:element="壽" kvg:position="right"><g id="kvg:09444-g3" kvg:element="士" kvg:position="top"><path id="kvg:09444-s9" kvg:type="㇐" d="M52.95 20.55c.87.37 2.47.43 3.34.37 9.06-.61 16.56-1.41 26.01-2.97 1.42-.23 2.32.18 3.05.36"/><path id="kvg:09444-s10" kvg:type="㇑a" d="M66.51 11c.61.34.97 1.53 1.09 2.2s.35 10.64.23 14.88"/><path id="kvg:09444-s11" kvg:type="㇐" d="M55.94 29.26c.76.25 2.16.29 2.93.25 5.38-.26 15.13-2.01 21.56-2.69 1.27-.13 2.04.12 2.68.25"/></g><g id="kvg:09444-g4" kvg:position="bottom"><path id="kvg:09444-s12" kvg:type="㇖" d="M44.84 38.09c1.05.5 3.23.37 5.16.15C60.75 37 82.5 34.5 91.63 34.35c8.4-.14 2.12 4.96.04 7.01"/><g id="kvg:09444-g5" kvg:element="工"><path id="kvg:09444-s13" kvg:type="㇐" d="M55.28 44.48c.59.45 2.52.49 3.13.47 5.59-.19 18.18-2.71 22.87-3.18.91-.09 1.75.09 2.5.47"/><path id="kvg:09444-s14" kvg:type="㇑a" d="M67.85 44.24c.34.6.34.96.34 1.44.0 3.36-.01 1-.01 6.76"/><path id="kvg:09444-s15" kvg:type="㇐" d="M53.79 53.37c.46.23 2.09.36 2.87.36 5.58.02 18.92-1.93 26.54-2.28 1.25-.06 2.05-.21 3.37.24"/></g><g id="kvg:09444-g6" kvg:element="一"><path id="kvg:09444-s16" kvg:type="㇐" d="M48.5 61.76c1.06.53 2.99.56 4.05.53 7.95-.28 26.2-2.03 38.01-3.55 1.75-.22 2.81.25 3.69.51"/></g><g id="kvg:09444-g7" kvg:element="口" kvg:position="left"><path id="kvg:09444-s17" kvg:type="㇑" d="M49.27 72.41c.2.25.41.45.5.76.71 2.45 1.56 8.2 2.04 12.6"/><path id="kvg:09444-s18" kvg:type="㇕b" d="M50.55 74.07c4.45-.82 10.28-1.69 12.68-2.01.88-.12 1.4.7 1.28 1.39-.52 2.86-1.12 5.31-1.9 9.27"/><path id="kvg:09444-s19" kvg:type="㇐b" d="M51.92 84.12c2.82-.36 8.7-.99 12.57-1.55"/></g><g id="kvg:09444-g8" kvg:element="寸" kvg:position="right"><path id="kvg:09444-s20" kvg:type="㇐" d="M71.49 74.03c.64.48 1.81.58 2.46.48 7.01-1.17 11.24-1.82 19.07-2.54 1.07-.1 1.71.23 2.24.47"/><path id="kvg:09444-s21" kvg:type="㇚" d="M85.5 64.57c.06.34.81 1.79.81 3.97.0 14.69-.17 19.65-.17 23.22.0 8.67-4.84 1.28-6.26.18"/><path id="kvg:09444-s22" kvg:type="㇔" d="M73.12 79.36c1.8 1.17 4.64 4.81 5.09 6.63"/></g></g></g></g></g></svg>