<svg xmlns="http://www.w3.org/2000/svg" width="109" height="109" viewBox="0 0 109 109"><g id="kvg:StrokePaths_09441"><g id="kvg:09441" kvg:element="鑁"><g id="kvg:09441-g1" kvg:element="金" kvg:position="left" kvg:radical="general"><path id="kvg:09441-s1" kvg:type="㇒" d="M28.75 14.74c0 .81.05 1.46-.15 2.43-1.07 5.06-11.2 21.96-19.87 29.45"/><path id="kvg:09441-s2" kvg:type="㇔/㇏" d="M30.39 19.46c3.86 3.04 9.68 9.42 11.86 14.54"/><path id="kvg:09441-s3" kvg:type="㇐" d="M18 40.86c1.6.0 2.32.1 2.84.06 4.61-.35 9.94-1.72 15.37-1.97.79-.04.95-.06 2.29-.06"/><path id="kvg:09441-s4" kvg:type="㇐" d="M12.09 54.81c.59.33 2.56.48 3.17.43 5.49-.49 15.24-2.49 22.28-2.67.75-.02 2.38-.13 3.49.15"/><path id="kvg:09441-s5" kvg:type="㇑a" d="M25.95 41.69c1.24.78 1.24 2.52 1.24 3.14.0 4.35-.19 34.92-.19 39.48"/><path id="kvg:09441-s6" kvg:type="㇔" d="M13.14 64.51c3.34 5.32 4.97 11.08 5.65 14.19"/><path id="kvg:09441-s7" kvg:type="㇒" d="M38.7 59.05c.3.84.46 2.06.34 2.76-.3 1.81-3.21 6.13-6.62 11.47"/><path id="kvg:09441-s8" kvg:type="㇀/㇐" d="M11.75 90.72c1.22 1.04 2.68.78 4.38.26C17.39 90.6 27.09 85 39.75 78.75"/></g><g id="kvg:09441-g2" kvg:element="𡕰" kvg:position="right"><g id="kvg:09441-g3" kvg:position="top"><path id="kvg:09441-s9" kvg:type="㇒" d="M79.24 12.64c.06.61.13 1.59-.12 2.47-1.48 5.2-9.96 16.62-21.56 23.61"/><path id="kvg:09441-s10" kvg:type="㇏" d="M59.52 19.83c7.69 3.42 19.87 14.06 21.79 19.38"/><path id="kvg:09441-s11" kvg:type="㇏" d="M63.77 13.33c2.22.95 5.74 3.91 6.29 5.38"/><path id="kvg:09441-s12" kvg:type="㇔" d="M55.77 25.83c1.96.86 5.05 3.54 5.54 4.88"/><path id="kvg:09441-s13" kvg:type="㇔" d="M79.02 25.33c2.04.91 5.28 3.72 5.79 5.13"/><path id="kvg:09441-s14" kvg:type="㇔" d="M68.27 35.08c1.78.95 4.6 3.91 5.04 5.38"/><path id="kvg:09441-s15" kvg:type="㇄" d="M48.81 15.94c.44.28 1.38 2.13 1.47 2.7.65 4.15-.49 24.42-.54 25.76-.04 1.34.96 1.26 1.84 1.2 8.04-.52 32.89-2.65 37.48-2.94"/><path id="kvg:09441-s16" kvg:type="㇑" d="M90.66 12.88c.46.29 1.2 2.15 1.15 2.73-.24 2.66-1.4 17.53-2.7 30.27"/><path id="kvg:09441-s17" kvg:type="㇒" d="M61.01 47.5c.07.38.08.97-.14 1.52-1.92 4.84-4.39 8.54-12.62 13.23"/><path id="kvg:09441-s18" kvg:type="㇄" d="M75.75 44.5c.91.81.68 1.78.68 3.03.0 1.69-.27 3.86-.27 5.07.0 4.65.84 4.65 9.03 4.65 5.36.0 9.31.0 11.58-1.06"/></g><g id="kvg:09441-g4" kvg:element="夂" kvg:position="bottom"><path id="kvg:09441-s19" kvg:type="㇒" d="M63.48 57c.06.62.12 1.61-.11 2.5-1.36 5.28-9.16 16.85-19.83 23.94"/><path id="kvg:09441-s20" kvg:type="㇇" d="M63.73 66.11c.3.03 1.94.27 2.8.19 3.87-.35 9.76-1.12 13.82-2 2.79-.6 3.58.68 2.87 2.32-3.9 8.93-25.07 28.27-42.46 32.87"/><path id="kvg:09441-s21" kvg:type="㇏" d="M58.54 70.42c4.65 4.51 25.74 21.66 32.01 25.78 1.87 1.23 3.38 1.83 5.2 2.19"/></g></g></g></g></svg>