<svg xmlns="http://www.w3.org/2000/svg" width="109" height="109" viewBox="0 0 109 109"><g id="kvg:StrokePaths_0945a" style="fill:none;stroke:#000000;stroke-width:3;stroke-linecap:round;stroke-linejoin:round;"><g id="kvg:0945a" kvg:element="鑚"><g id="kvg:0945a-g1" kvg:element="金" kvg:position="left" kvg:radical="general"><path id="kvg:0945a-s1" kvg:type="㇒" d="M28.75 14.74c0 .79.05 1.42-.14 2.37-1 4.94-10.5 21.44-18.63 28.76"/><path id="kvg:0945a-s2" kvg:type="㇔/㇏" d="M29.89 21.46c4.47 2.03 10.18 7.42 12.36 12.54"/><path id="kvg:0945a-s3" kvg:type="㇐" d="M18 41.14c1.58.0 2.29.12 2.81.07 4.56-.41 9.82-2.01 15.19-2.3.78-.04.94-.07 2.26-.07"/><path id="kvg:0945a-s4" kvg:type="㇐" d="M10.59 55.81c.59.33 2.56.48 3.17.43 5.49-.49 17.74-2.74 24.78-3.67.74-.1 2.38-.13 3.49.15"/><path id="kvg:0945a-s5" kvg:type="㇑a" d="M25.95 40.69c1.24.78 1.24 2.52 1.24 3.14.0 4.35.62 36.13.31 40.48"/><path id="kvg:0945a-s6" kvg:type="㇔" d="M11.39 65.26c3.78 5.04 5.63 10.5 6.4 13.44"/><path id="kvg:0945a-s7" kvg:type="㇒" d="M39.7 60.55c.3.84.46 2.06.34 2.76-.3 1.81-3.29 5.94-8.62 10.97"/><path id="kvg:0945a-s8" kvg:type="㇀/㇐" d="M10.5 89.81c1.26.92 2.77.69 4.54.23 1.31-.34 11.35-5.28 24.46-10.79"/></g><g id="kvg:0945a-g2" kvg:element="賛" kvg:position="right"><g id="kvg:0945a-g3" kvg:position="top"><g id="kvg:0945a-g4" kvg:element="夫" kvg:variant="true" kvg:position="left"><path id="kvg:0945a-s9" kvg:type="㇐" d="M48.07 23.07c.53.17 1.48.17 2.02.17 5.93.01 10.42-1.99 15.43-2.22.88-.04 1.4.08 1.84.17"/><g id="kvg:0945a-g5" kvg:element="大" kvg:variant="true"><path id="kvg:0945a-s10" kvg:type="㇐" d="M46.72 32.82c.52.17 1.46.17 1.97.17C53.25 33 62 31.5 66.3 30.88c.85-.12 1.37.08 1.8.17"/><path id="kvg:0945a-s11" kvg:type="㇒" d="M57.93 13.5c.19.54.26 1.05.26 2.1C58.24 31.69 55 41.5 47.15 49"/><path id="kvg:0945a-s12" kvg:type="㇔/㇏" d="M57.1 35.63c3.88 1.64 8.09 6.78 9.59 9.31"/></g></g><g id="kvg:0945a-g6" kvg:element="夫" kvg:position="right"><path id="kvg:0945a-s13" kvg:type="㇐" d="M73.26 20.75c.5.16 1.41.15 1.92.16C79.99 21 87.42 20 92.5 19.33c.82-.11 1.33.07 1.75.15"/><g id="kvg:0945a-g7" kvg:element="大"><path id="kvg:0945a-s14" kvg:type="㇐" d="M71.98 30.7c.53.16 1.99.67 2.53.66 4.91-.11 14.58-1.95 19.35-1.89.88.01 1.41.07 1.85.15"/><path id="kvg:0945a-s15" kvg:type="㇒" d="M82.31 12.75c.23.51.31.98.32 1.97.09 18.17-4.13 25.03-10.4 30.78"/><path id="kvg:0945a-s16" kvg:type="㇏" d="M81.67 31.42c3.19 4.1 9.1 11.4 12.36 13.11 1.1.57 1.28.98 1.71 1.06"/></g></g></g><g id="kvg:0945a-g8" kvg:element="貝" kvg:position="bottom"><g id="kvg:0945a-g9" kvg:element="目" kvg:position="top"><path id="kvg:0945a-s17" kvg:type="㇑" d="M55.12 49.21c.47.7 1.17 2.23 1.17 3.17.0.94.18 26.28.18 26.75"/><path id="kvg:0945a-s18" kvg:type="㇕a" d="M57.08 51c2.69-.12 23.17-2.62 25.62-2.76 2.04-.12 3.48.51 3.48 3.02.0 1.12-.45 26.59-.45 27.29"/><path id="kvg:0945a-s19" kvg:type="㇐a" d="M57.03 59.39c3.84.0 24.28-1.9 28.59-1.9"/><path id="kvg:0945a-s20" kvg:type="㇐a" d="M56.75 68.02c5.34.0 22.14-1.41 29.06-1.41"/><path id="kvg:0945a-s21" kvg:type="㇐a" d="M56.45 77.97c5.34.0 22.14-1.41 29.05-1.41"/></g><g id="kvg:0945a-g10" kvg:element="八" kvg:position="bottom"><path id="kvg:0945a-s22" kvg:type="㇒" d="M60.02 82.37c.48 1.18-.05 2.5-1 3.36-2.86 2.59-10.68 7.96-16.41 11.02"/><path id="kvg:0945a-s23" kvg:type="㇔" d="M77.31 82.52c6.48 3.96 14.15 11.13 15.92 14.59"/></g></g></g></g></g></svg>