<svg xmlns="http://www.w3.org/2000/svg" width="109" height="109" viewBox="0 0 109 109"><g id="kvg:StrokePaths_09577" style="fill:none;stroke:#000000;stroke-width:3;stroke-linecap:round;stroke-linejoin:round;"><g id="kvg:09577" kvg:element="長" kvg:radical="general"><path id="kvg:09577-s1" kvg:type="㇑a" d="M34 14.75C35.25 16 36 18 36 19.5s0 33.5.0 35.75"/><path id="kvg:09577-s2" kvg:type="㇐b" d="M37.75 16c9.6-.15 21.73-3.26 26.63-4.2 1.97-.38 3.9-.41 5.87.06"/><path id="kvg:09577-s3" kvg:type="㇐b" d="M37.25 29.5C48.12 28.25 57 27 64 25.72c1.96-.36 3.76-.25 5.25.06"/><path id="kvg:09577-s4" kvg:type="㇐b" d="M37.5 42.5c8.88-.86 21.62-2.62 26.75-3.53 1.97-.35 3.88-.32 5.75.0"/><path id="kvg:09577-s5" kvg:type="㇐" d="M10.88 58.23c3.14.86 6.44.68 9.62.29 19.73-2.35 44.86-6.1 65-7.61 2.97-.22 5.7-.08 8.63.4"/><path id="kvg:09577-s6" kvg:type="㇙" d="M31.25 60.25c.94.94 1.39 2.38 1.39 4 0 11.82-.7 28.19-.7 30.19s1.65 3.14 3.74 1.64 17.25-11.09 20.03-12.59"/><path id="kvg:09577-s7" kvg:type="㇒" d="M76.52 55.25c.23 1.25-.33 2.45-1.05 3.41C73.5 61.25 69.62 65 64.62 68.75"/><path id="kvg:09577-s8" kvg:type="㇏" d="M46.5 62.25c8.21.0 34.52 25.9 44.28 29.5C93.12 92.61 94.51 93 97 93.5"/></g></g></svg>