<!DOCTYPE svg PUBLIC "-//W3C//DTD SVG 1.0//EN" "http://www.w3.org/TR/2001/REC-SVG-20010904/DTD/svg10.dtd" [
<!ATTLIST g
xmlns:kvg CDATA #FIXED "http://kanjivg.tagaini.net"
kvg:element CDATA #IMPLIED
kvg:variant CDATA #IMPLIED
kvg:partial CDATA #IMPLIED
kvg:original CDATA #IMPLIED
kvg:part CDATA #IMPLIED
kvg:number CDATA #IMPLIED
kvg:tradForm CDATA #IMPLIED
kvg:radicalForm CDATA #IMPLIED
kvg:position CDATA #IMPLIED
kvg:radical CDATA #IMPLIED
kvg:phon CDATA #IMPLIED >
<!ATTLIST path
xmlns:kvg CDATA #FIXED "http://kanjivg.tagaini.net"
kvg:type CDATA #IMPLIED >
]><svg xmlns="http://www.w3.org/2000/svg" width="109" height="109" viewBox="0 0 109 109"><g id="kvg:StrokePaths_09591" style="fill:none;stroke:#000000;stroke-width:3;stroke-linecap:round;stroke-linejoin:round;"><g id="kvg:09591" kvg:element="閑"><g id="kvg:09591-g1" kvg:element="門" kvg:position="kamae" kvg:radical="general"><g id="kvg:09591-g2" kvg:position="left"><path id="kvg:09591-s1" kvg:type="㇑" d="M18.89 15.54c.85.85 1.18 2.21 1.18 4.15.0 4.56.04 49.8.02 69.18.0 3.94-.01 6.58-.01 7.26"/><path id="kvg:09591-s2" kvg:type="㇕a" d="M20.52 16.83c2.04-.08 13.53-1.73 18.48-2.32 2.65-.32 4.91-.33 4.95 2.87.04 3.05.01 10.42-.01 16.63-.01 2.02-.01 3.91-.01 5.49"/><path id="kvg:09591-s3" kvg:type="㇐a" d="M20.95 27.39c7.05-1.14 16.62-2.12 22.38-2.76"/><path id="kvg:09591-s4" kvg:type="㇐a" d="M21.27 38.98c8.11-1.15 14.39-2.03 21.56-2.56"/></g><g id="kvg:09591-g3" kvg:position="right"><path id="kvg:09591-s5" kvg:type="㇑" d="M63.69 13.26c.84.84.88 1.86.88 2.73.0.43.01 11.09.01 18.26.0 1.67.0 3.16.0 4.27"/><path id="kvg:09591-s6" kvg:type="㇆a" d="M65.3 14.66c2.86-.44 14.7-2.24 19.96-2.91 3.25-.42 5.24-.27 5.24 3.38.0 21.94.0 62.05.0 76.81.0 11.31-5.95 2.16-7.4.86"/><path id="kvg:09591-s7" kvg:type="㇐a" d="M65.74 24.72c5.38-.47 19.84-1.74 23.65-1.74"/><path id="kvg:09591-s8" kvg:type="㇐a" d="M66.05 36.01c6.94-.35 15.45-1.38 23.3-1.81"/></g></g><g id="kvg:09591-g4" kvg:element="木"><path id="kvg:09591-s9" kvg:type="㇐" d="M33.49 57.58c2.38.42 4.02.17 6.01-.06 6.48-.75 20.17-2.7 28.12-3.6 2.09-.24 3.52-.24 5.52.15"/><path id="kvg:09591-s10" kvg:type="㇑" d="M52.16 41.75c1.11 1.11 1.38 2.12 1.38 3.6.0 2.54.0 26.48-.02 38.9.0 4.26-.01 7.17-.02 7.38"/><path id="kvg:09591-s11" kvg:type="㇒" d="M51.28 56.86c0 1.27-1.24 3.25-2.2 4.85-4.92 8.16-13.6 17.36-20.58 21.55"/><path id="kvg:09591-s12" kvg:type="㇏" d="M54 57c2.79 2.55 11.96 12.62 17.84 18.29 1.78 1.71 4.41 3.96 6.66 4.96"/></g></g></g><g id="kvg:StrokeNumbers_09591" style="font-size:8;fill:#808080"><text transform="matrix(1 0 0 1 12.50 23.50)">1</text><text transform="matrix(1 0 0 1 21.75 13.63)">2</text><text transform="matrix(1 0 0 1 24.75 24.50)">3</text><text transform="matrix(1 0 0 1 24.75 35.98)">4</text><text transform="matrix(1 0 0 1 57.75 22.63)">5</text><text transform="matrix(1 0 0 1 65.50 11.50)">6</text><text transform="matrix(1 0 0 1 68.50 22.55)">7</text><text transform="matrix(1 0 0 1 68.50 33.50)">8</text><text transform="matrix(1 0 0 1 31.50 54.50)">9</text><text transform="matrix(1 0 0 1 41.25 48.13)">10</text><text transform="matrix(1 0 0 1 34.50 68.50)">11</text><text transform="matrix(1 0 0 1 64.50 65.50)">12</text></g></svg>