<svg xmlns="http://www.w3.org/2000/svg" width="109" height="109" viewBox="0 0 109 109"><g id="kvg:StrokePaths_095a7"><g id="kvg:095a7" kvg:element="閧"><g id="kvg:095a7-g1" kvg:element="門" kvg:position="kamae" kvg:radical="general"><g id="kvg:095a7-g2" kvg:position="left"><path id="kvg:095a7-s1" kvg:type="㇑" d="M18.39 15.29c.73.46 1.28 2.98 1.43 3.9.15.93.41 72.14.26 77.94"/><path id="kvg:095a7-s2" kvg:type="㇕a" d="M20.02 17.27c2.44-.11 17.27-2.85 19.49-2.97 1.85-.11 2.81.97 2.9 1.83.14 1.31-1.54 25.34-1.54 25.99"/><path id="kvg:095a7-s3" kvg:type="㇐a" d="M20.45 29.28c5.99-.63 14.62-2.27 20.38-2.94"/><path id="kvg:095a7-s4" kvg:type="㇐a" d="M20.02 41.73c8.11-1.23 12.39-1.67 19.56-2.23"/></g><g id="kvg:095a7-g3" kvg:position="right"><path id="kvg:095a7-s5" kvg:type="㇑" d="M64.44 14.01c.44.55.88 1.74.88 2.48s.35 23.04.5 23.78"/><path id="kvg:095a7-s6" kvg:type="㇆a" d="M66.05 15.16c2.49-.11 19.71-2.79 21.99-2.92 1.9-.11 2.98 1.15 2.97 1.8-.49 19.46-.48 64.29-.5 78.4-.01 11.06-6.45 2.16-7.9.86"/><path id="kvg:095a7-s7" kvg:type="㇐a" d="M65.49 26.22c3.38.0 21.09-1.74 24.9-1.74"/><path id="kvg:095a7-s8" kvg:type="㇐a" d="M66.05 37.76c4.99.0 18.09-1.06 24.55-1.06"/></g></g><g id="kvg:095a7-g4" kvg:element="共"><g id="kvg:095a7-g5" kvg:position="top"><path id="kvg:095a7-s9" kvg:type="㇐" d="M34.11 56.23c1.02.21 2.89.21 3.91.21 7.54.06 27.73-2.19 35.36-2.78 1.7-.13 2.72.1 3.57.21"/><path id="kvg:095a7-s10" kvg:type="㇑a" d="M43.58 48.09c.63.29 1.09 1.29 1.14 1.89.53 6.27 1.83 16.56 2.12 21.36"/><path id="kvg:095a7-s11" kvg:type="㇑a" d="M63.4 45.25c.63.29 1.16 1.29 1.14 1.89-.34 7.98-1.29 13.86-2.56 22.68"/><path id="kvg:095a7-s12" kvg:type="㇐" d="M31.08 72.43c1.33.28 3.77.41 5.09.28 9.58-.95 26.76-2.55 37.86-2.8 2.21-.05 3.54.13 4.65.27"/></g><g id="kvg:095a7-g6" kvg:element="八" kvg:position="bottom"><path id="kvg:095a7-s13" kvg:type="㇒" d="M46.39 77.95c.04.32.08.83-.07 1.3-.91 2.74-6.89 8.03-13.27 12.43"/><path id="kvg:095a7-s14" kvg:type="㇔" d="M62.77 78.33c4.44 2.36 11.47 9.72 12.58 13.39"/></g></g></g></g></svg>