<svg xmlns="http://www.w3.org/2000/svg" width="109" height="109" viewBox="0 0 109 109"><g id="kvg:StrokePaths_095a0" style="fill:none;stroke:#000000;stroke-width:3;stroke-linecap:round;stroke-linejoin:round;"><g id="kvg:095a0" kvg:element="閠"><g id="kvg:095a0-g1" kvg:element="門" kvg:position="kamae" kvg:radical="general"><g id="kvg:095a0-g2" kvg:position="left"><path id="kvg:095a0-s1" kvg:type="㇑" d="M18.39 15.29c.73.46 1.28 2.98 1.43 3.9.15.93-.09 72.14-.24 77.94"/><path id="kvg:095a0-s2" kvg:type="㇕a" d="M20.02 16.81c2.21-.11 17.5-2.38 19.51-2.51 1.68-.11 2.55 1 2.63 1.88.12 1.35-1.4 25.49-1.4 26.16"/><path id="kvg:095a0-s3" kvg:type="㇐a" d="M20.41 29.17c5.43-.65 15.09-1.83 20.32-2.53"/><path id="kvg:095a0-s4" kvg:type="㇐a" d="M20.52 41.98c7.36-1.26 13.06-1.72 19.57-2.3"/></g><g id="kvg:095a0-g3" kvg:position="right"><path id="kvg:095a0-s5" kvg:type="㇑" d="M64.44 14.51c.44.55.88 1.74.88 2.48s-.15 22.54.0 23.28"/><path id="kvg:095a0-s6" kvg:type="㇆a" d="M66.05 15.66c2.49-.11 19.71-2.79 21.99-2.92 1.9-.11 2.98 1.15 2.97 1.8-.49 19.46-.5 62.79-.5 76.9.0 10.81-7.45 2.16-8.9.86"/><path id="kvg:095a0-s7" kvg:type="㇐a" d="M66.49 26.22c3.38.0 19.09-2.24 22.9-2.24"/><path id="kvg:095a0-s8" kvg:type="㇐a" d="M66.05 37.76c4.99.0 16.59-2.06 23.05-2.06"/></g></g><g id="kvg:095a0-g4" kvg:element="玉"><g id="kvg:095a0-g5" kvg:element="王" kvg:original="玉" kvg:partial="true"><path id="kvg:095a0-s9" kvg:type="㇐" d="M36.6 54.51c.65.23 2.76.3 3.42.23 8.37-.84 16.05-1.75 28.69-2.56 1-.06 1.91.05 2.74.24"/><path id="kvg:095a0-s10" kvg:type="㇑a" d="M52.93 55.08c.55.55 1.09 1.09 1.09 2 0 3.08.27 22.21.14 25.29"/><path id="kvg:095a0-s11" kvg:type="㇐" d="M37.74 68.36c.63.25 2.7.39 3.33.33 6.34-.61 19.51-2.08 26.01-2.44.78-.04 2.5-.1 3.67.12"/><path id="kvg:095a0-s12" kvg:type="㇐" d="M30.28 83.93c.71.14 3.45.19 4.65.11 11.2-.68 24.94-2.15 38.3-2.2 1.94-.01 4.27.23 5.24.45"/></g><g id="kvg:095a0-g6" kvg:element="丶"><path id="kvg:095a0-s13" kvg:type="㇔" d="M61.85 72.43c2.96 1.24 5.51 3.88 6.14 5.44"/></g></g></g></g></svg>