<!DOCTYPE svg PUBLIC "-//W3C//DTD SVG 1.0//EN" "http://www.w3.org/TR/2001/REC-SVG-20010904/DTD/svg10.dtd" [
<!ATTLIST g
xmlns:kvg CDATA #FIXED "http://kanjivg.tagaini.net"
kvg:element CDATA #IMPLIED
kvg:variant CDATA #IMPLIED
kvg:partial CDATA #IMPLIED
kvg:original CDATA #IMPLIED
kvg:part CDATA #IMPLIED
kvg:number CDATA #IMPLIED
kvg:tradForm CDATA #IMPLIED
kvg:radicalForm CDATA #IMPLIED
kvg:position CDATA #IMPLIED
kvg:radical CDATA #IMPLIED
kvg:phon CDATA #IMPLIED >
<!ATTLIST path
xmlns:kvg CDATA #FIXED "http://kanjivg.tagaini.net"
kvg:type CDATA #IMPLIED >
]><svg xmlns="http://www.w3.org/2000/svg" width="109" height="109" viewBox="0 0 109 109"><g id="kvg:StrokePaths_095a8" style="fill:none;stroke:#000000;stroke-width:3;stroke-linecap:round;stroke-linejoin:round;"><g id="kvg:095a8" kvg:element="閨"><g id="kvg:095a8-g1" kvg:element="門" kvg:position="kamae" kvg:radical="general"><g id="kvg:095a8-g2" kvg:position="left"><path id="kvg:095a8-s1" kvg:type="㇑" d="M17.89 14.79c.73.46 1.78 2.98 1.93 3.9.15.93-.09 73.14-.24 78.94"/><path id="kvg:095a8-s2" kvg:type="㇕a" d="M20.02 16.76c2.44-.11 17.27-2.33 19.49-2.46 1.85-.11 2.81.98 2.9 1.85.14 1.33-1.54 25.56-1.54 26.21"/><path id="kvg:095a8-s3" kvg:type="㇐a" d="M20.45 28.91c5.99-.64 14.62-2.29 20.38-2.97"/><path id="kvg:095a8-s4" kvg:type="㇐a" d="M20.02 41.98c8.11-1.24 13.39-1.68 20.56-2.25"/></g><g id="kvg:095a8-g3" kvg:position="right"><path id="kvg:095a8-s5" kvg:type="㇑" d="M64.94 14.01c.44.55.88 1.74.88 2.48s-.15 22.54.0 23.28"/><path id="kvg:095a8-s6" kvg:type="㇆a" d="M66.55 15.16c2.49-.11 19.71-2.79 21.99-2.92 1.9-.11 2.98 1.15 2.97 1.8-.49 19.46-.5 62.29-.5 76.4.0 13.31-6.95 4.16-8.4 2.86"/><path id="kvg:095a8-s7" kvg:type="㇐a" d="M66.49 25.72c3.38.0 20.59-1.74 24.4-1.74"/><path id="kvg:095a8-s8" kvg:type="㇐a" d="M66.05 37.76c4.99.0 18.09-1.06 24.55-1.06"/></g></g><g id="kvg:095a8-g4" kvg:element="圭"><g id="kvg:095a8-g5" kvg:element="土" kvg:position="top"><path id="kvg:095a8-s9" kvg:type="㇐" d="M39.2 51.38c.91.21 2.57.3 3.47.21C49 51 60.25 49 66.27 48.98c1.51-.01 2.42.1 3.17.21"/><path id="kvg:095a8-s10" kvg:type="㇑a" d="M53.03 41.12c.08.19 1.13.98 1.13 2.17.0 7.68.09 7.6.09 17.76"/><path id="kvg:095a8-s11" kvg:type="㇐" d="M33.7 62.44c1.22.43 3.45.53 4.67.43 15.07-1.22 18.53-2.42 32.01-2.99 2.03-.09 3.25.21 4.26.42"/></g><g id="kvg:095a8-g6" kvg:element="土" kvg:position="bottom"><path id="kvg:095a8-s12" kvg:type="㇐" d="M37.38 75.62c.96.21 2.71.26 3.67.21C47.5 75.5 61 74 68.23 73.9c1.59-.02 2.55.1 3.35.21"/><path id="kvg:095a8-s13" kvg:type="㇑a" d="M52.71 66.54c.08.19 1.13.98 1.13 2.17.0 7.68.09 9.38.09 19.54"/><path id="kvg:095a8-s14" kvg:type="㇐" d="M31.1 89.94c1.29.35 3.65.41 4.94.35C47 89.75 62.5 88 71.4 87.9c2.15-.03 3.43.17 4.51.34"/></g></g></g></g><g id="kvg:StrokeNumbers_095a8" style="font-size:8;fill:#808080"><text transform="matrix(1 0 0 1 12.50 23.50)">1</text><text transform="matrix(1 0 0 1 21.50 13.50)">2</text><text transform="matrix(1 0 0 1 24.50 25.50)">3</text><text transform="matrix(1 0 0 1 24.33 38.50)">4</text><text transform="matrix(1 0 0 1 57.50 21.50)">5</text><text transform="matrix(1 0 0 1 67.50 11.50)">6</text><text transform="matrix(1 0 0 1 70.50 23.50)">7</text><text transform="matrix(1 0 0 1 70.46 34.50)">8</text><text transform="matrix(1 0 0 1 31.25 53.50)">9</text><text transform="matrix(1 0 0 1 45.50 38.50)">10</text><text transform="matrix(1 0 0 1 24.50 63.38)">11</text><text transform="matrix(1 0 0 1 27.50 76.50)">12</text><text transform="matrix(1 0 0 1 42.50 70.50)">13</text><text transform="matrix(1 0 0 1 27.50 86.50)">14</text></g></svg>