<!DOCTYPE svg PUBLIC "-//W3C//DTD SVG 1.0//EN" "http://www.w3.org/TR/2001/REC-SVG-20010904/DTD/svg10.dtd" [
<!ATTLIST g
xmlns:kvg CDATA #FIXED "http://kanjivg.tagaini.net"
kvg:element CDATA #IMPLIED
kvg:variant CDATA #IMPLIED
kvg:partial CDATA #IMPLIED
kvg:original CDATA #IMPLIED
kvg:part CDATA #IMPLIED
kvg:number CDATA #IMPLIED
kvg:tradForm CDATA #IMPLIED
kvg:radicalForm CDATA #IMPLIED
kvg:position CDATA #IMPLIED
kvg:radical CDATA #IMPLIED
kvg:phon CDATA #IMPLIED >
<!ATTLIST path
xmlns:kvg CDATA #FIXED "http://kanjivg.tagaini.net"
kvg:type CDATA #IMPLIED >
]><svg xmlns="http://www.w3.org/2000/svg" width="109" height="109" viewBox="0 0 109 109"><g id="kvg:StrokePaths_095d4" style="fill:none;stroke:#000000;stroke-width:3;stroke-linecap:round;stroke-linejoin:round;"><g id="kvg:095d4" kvg:element="闔"><g id="kvg:095d4-g1" kvg:element="門" kvg:position="kamae" kvg:radical="general"><g id="kvg:095d4-g2" kvg:position="left"><path id="kvg:095d4-s1" kvg:type="㇑" d="M18.39 15.29c.73.46 1.28 2.98 1.43 3.9.15.93-.09 72.64-.24 78.44"/><path id="kvg:095d4-s2" kvg:type="㇕a" d="M20.02 16.75c2.34-.09 18.48-1.85 20.61-1.95 1.77-.09 2.69.78 2.78 1.46.13 1.05-1.47 19.06-1.47 19.58"/><path id="kvg:095d4-s3" kvg:type="㇐a" d="M20.44 26.48c5.74-.51 15.94-1.81 21.47-2.35"/><path id="kvg:095d4-s4" kvg:type="㇐a" d="M20.02 36.73c7.78-.98 13.8-1.73 20.68-2.18"/></g><g id="kvg:095d4-g3" kvg:position="right"><path id="kvg:095d4-s5" kvg:type="㇑" d="M64.44 14.01c.44.55.88 1.74.88 2.48s-.15 19.54.0 20.28"/><path id="kvg:095d4-s6" kvg:type="㇆a" d="M66.05 15.16c2.49-.11 19.71-2.79 21.99-2.92 1.9-.11 2.98 1.15 2.97 1.8-.49 19.46-.5 64.29-.5 78.4.0 11.31-5.95 2.66-7.4 1.36"/><path id="kvg:095d4-s7" kvg:type="㇐a" d="M66.49 24.72c3.38.0 19.09-1.74 22.9-1.74"/><path id="kvg:095d4-s8" kvg:type="㇐a" d="M66.05 34.76c4.99.0 16.59-1.56 23.05-1.56"/></g></g><g id="kvg:095d4-g4" kvg:element="盍"><g id="kvg:095d4-g5" kvg:element="去" kvg:position="top"><g id="kvg:095d4-g6" kvg:element="土" kvg:position="top"><path id="kvg:095d4-s9" kvg:type="㇐" d="M37.35 42.87c.94.25 2.66.27 3.61.25 8.26-.24 14.95-1.51 27.36-1.89 1.57-.05 2.51.12 3.3.24"/><path id="kvg:095d4-s10" kvg:type="㇑a" d="M52.78 34.25c.08.19 1.12.99 1.12 2.2.0 6.21.09 10.86.09 13.93"/><path id="kvg:095d4-s11" kvg:type="㇐" d="M31.03 52.93c.96.35 2.73.44 3.7.35 11.78-1.05 29.87-2.48 39.43-2.76 1.61-.05 2.57.17 3.37.34"/></g><g id="kvg:095d4-g7" kvg:element="厶" kvg:position="bottom"><path id="kvg:095d4-s12" kvg:type="㇜" d="M50.25 55.16c0 .84-.36 1.91-.71 2.17-4.54 3.42-3.83 2.94-9.6 7.26-1.62 1.21-2.07 2.28.62 1.87 7.14-1.09 17.52-3.19 27.87-4.86"/><path id="kvg:095d4-s13" kvg:type="㇔" d="M63.68 56.75c3.1 1.8 8 7.4 8.78 10.19"/></g></g><g id="kvg:095d4-g8" kvg:element="皿" kvg:position="bottom"><path id="kvg:095d4-s14" kvg:type="㇑a" d="M36.1 73.45c.42.37.97.78 1.06 1.09.71 2.51 1.47 8.97 1.95 13.49"/><path id="kvg:095d4-s15" kvg:type="㇕b" d="M38.13 74.89c7.57-.52 29.25-3 32-2.93 1.19.03 1.58.56 1.73 1.5.1.64-2.26 8.54-2.73 13.18"/><path id="kvg:095d4-s16" kvg:type="㇑a" d="M48.72 74.88c.18.24.43 1.08.43 1.39.0 3.77.16 6.06.2 10.89"/><path id="kvg:095d4-s17" kvg:type="㇑a" d="M58.63 73.78c.32.29.6.77.58 1.14-.22 3.65-.22 7.74-.55 11.94"/><path id="kvg:095d4-s18" kvg:type="㇐" d="M28.58 88.51c1.11.41 3.15.48 4.27.41 11.58-.69 22.61-1.95 43.93-2.06 1.86-.01 2.97.2 3.9.4"/></g></g></g></g><g id="kvg:StrokeNumbers_095d4" style="font-size:8;fill:#808080"><text transform="matrix(1 0 0 1 12.50 22.50)">1</text><text transform="matrix(1 0 0 1 21.50 13.50)">2</text><text transform="matrix(1 0 0 1 23.67 24.50)">3</text><text transform="matrix(1 0 0 1 23.50 34.43)">4</text><text transform="matrix(1 0 0 1 57.50 20.50)">5</text><text transform="matrix(1 0 0 1 66.50 12.50)">6</text><text transform="matrix(1 0 0 1 69.75 22.68)">7</text><text transform="matrix(1 0 0 1 69.71 32.60)">8</text><text transform="matrix(1 0 0 1 30.50 44.50)">9</text><text transform="matrix(1 0 0 1 45.50 32.50)">10</text><text transform="matrix(1 0 0 1 23.50 53.50)">11</text><text transform="matrix(1 0 0 1 37.50 59.50)">12</text><text transform="matrix(1 0 0 1 55.50 59.50)">13</text><text transform="matrix(1 0 0 1 28.50 78.50)">14</text><text transform="matrix(1 0 0 1 39.50 72.50)">15</text><text transform="matrix(1 0 0 1 39.75 81.50)">16</text><text transform="matrix(1 0 0 1 51.50 81.43)">17</text><text transform="matrix(1 0 0 1 24.50 85.50)">18</text></g></svg>