<svg xmlns="http://www.w3.org/2000/svg" width="109" height="109" viewBox="0 0 109 109"><g id="kvg:StrokePaths_095dc" style="fill:none;stroke:#000000;stroke-width:3;stroke-linecap:round;stroke-linejoin:round;"><g id="kvg:095dc" kvg:element="關"><g id="kvg:095dc-g1" kvg:element="門" kvg:position="kamae" kvg:radical="general"><g id="kvg:095dc-g2" kvg:position="left"><path id="kvg:095dc-s1" kvg:type="㇑" d="M18.39 15.29c.73.46 1.28 2.98 1.43 3.9.15.93-.09 73.14-.24 78.94"/><path id="kvg:095dc-s2" kvg:type="㇕a" d="M19.52 17.58c2.44-.1 19.27-2.66 21.49-2.78 1.85-.1 2.81.91 2.9 1.71C44.05 17.74 43 29 42.02 36.52"/><path id="kvg:095dc-s3" kvg:type="㇐a" d="M20.45 26.89c5.99-.59 16.62-1.62 22.38-2.26"/><path id="kvg:095dc-s4" kvg:type="㇐a" d="M20.02 36.48c8.11-1.15 14.39-1.53 21.56-2.06"/></g><g id="kvg:095dc-g3" kvg:position="right"><path id="kvg:095dc-s5" kvg:type="㇑" d="M64.44 14.01c.44.55.88 1.74.88 2.48s-.29 20.31-.29 20.67"/><path id="kvg:095dc-s6" kvg:type="㇆a" d="M66.05 15.16c2.49-.11 19.71-2.79 21.99-2.92 1.9-.11 2.98 1.15 2.97 1.8-.49 19.46-.5 64.29-.5 78.4.0 10.81-6.95 2.16-8.4.86"/><path id="kvg:095dc-s7" kvg:type="㇐a" d="M65.99 24.72c3.38.0 20.09-1.74 23.9-1.74"/><path id="kvg:095dc-s8" kvg:type="㇐a" d="M66.05 34.26c4.99.0 18.09-1.56 24.55-1.56"/></g></g><g id="kvg:095dc-g4" kvg:element="𢆶" kvg:position="top"><g id="kvg:095dc-g5" kvg:element="幺" kvg:position="left"><path id="kvg:095dc-s9" kvg:type="㇜" d="M40.25 41.63c.2.51.22.85-.1 1.43-1.34 2.45-5.07 6.97-7.22 8.65-.37.28-.23.89.16.99 2.08.51 4.45.77 7.27 1.72"/><path id="kvg:095dc-s10" kvg:type="㇜" d="M50.31 44.19c.22.32.08 1.49-.19 1.87-3.23 4.6-11.4 13.39-16.76 18.57-.72.7-.46 1.54.45 1.37 4.86-.91 10.3-2.4 15.11-3.25"/><path id="kvg:095dc-s11" kvg:type="㇔" d="M48.03 57.58c1.78 1.37 4.6 5.62 5.05 7.75"/></g><g id="kvg:095dc-g6" kvg:element="幺" kvg:position="right"><path id="kvg:095dc-s12" kvg:type="㇜" d="M64.83 40.87c.22.57.25.96-.11 1.61-1.51 2.76-4.12 7.28-6.56 9.17-.41.32-.26 1 .19 1.11 2.34.57 5.03.86 8.22 1.93"/><path id="kvg:095dc-s13" kvg:type="㇜" d="M75.36 43.68c.22.32.08 1.49-.19 1.87-3.23 4.6-10.9 13.2-16.26 18.38-.72.7-.46 1.54.45 1.37 4.86-.91 14.15-2.9 18.95-3.75"/><path id="kvg:095dc-s14" kvg:type="㇔" d="M74.95 56.7c1.93 1.58 4.99 6.5 5.47 8.96"/></g></g><g id="kvg:095dc-g7" kvg:element="丱" kvg:position="bottom"><g id="kvg:095dc-g8" kvg:position="left"><path id="kvg:095dc-s15" kvg:type="㇄" d="M35.25 71.71c.54.28.92 1.29.97 2.21.08 1.65-.15 4.3-.5 7.62-.07.65.45 1.09 1.59.83 3.66-.83 8.23-1.45 9.73-1.52"/><g id="kvg:095dc-g9" kvg:element="丿"><path id="kvg:095dc-s16" kvg:type="㇒" d="M47.74 70.25c.6.54.9 1.65.9 2.55.0 10.25-.26 17.35-11.04 24.07"/></g></g><g id="kvg:095dc-g10" kvg:position="right"><g id="kvg:095dc-g11" kvg:element="丨"><path id="kvg:095dc-s17" kvg:type="㇑" d="M73.56 68.37c.54.28.97 1.29.97 2.21.0 2.54.05 8.9.05 12.3"/></g><path id="kvg:095dc-s18" kvg:type="㇐" d="M62.43 80.12C64.22 80.12 72.42 79.52 74.76 79.37"/><path id="kvg:095dc-s19" kvg:type="㇑" d="M61.06 70.34c.54.28.92 1.29.97 2.21.08 1.65.05 21.03.05 25.48"/></g></g></g></g></svg>