<svg xmlns="http://www.w3.org/2000/svg" width="109" height="109" viewBox="0 0 109 109"><g id="kvg:StrokePaths_095e5"><g id="kvg:095e5" kvg:element="闥"><g id="kvg:095e5-g1" kvg:element="門" kvg:position="kamae" kvg:radical="general"><g id="kvg:095e5-g2" kvg:position="left"><path id="kvg:095e5-s1" kvg:type="㇑" d="M17.55 15.29c.64.46 2 3.48 2.13 4.4.13.93-.08 72.14-.21 77.94"/><path id="kvg:095e5-s2" kvg:type="㇕a" d="M19.52 17.19c2.36-.08 19.18-2.29 21.33-2.39 1.79-.08 2.72.75 2.81 1.42.13 1.02-1.41 16.79-1.99 19.47"/><path id="kvg:095e5-s3" kvg:type="㇐a" d="M19.95 26.39c5.99-.59 17.12-1.62 22.88-2.26"/><path id="kvg:095e5-s4" kvg:type="㇐a" d="M20.02 35.98c8.11-1.15 14.39-2.03 21.56-2.56"/></g><g id="kvg:095e5-g3" kvg:position="right"><path id="kvg:095e5-s5" kvg:type="㇑" d="M65.23 13.51c.52.54 1.05 1.7 1.05 2.42s-.35 19.87-.35 20.23"/><path id="kvg:095e5-s6" kvg:type="㇆a" d="M66.55 15.16c2.49-.11 19.21-2.79 21.49-2.92 1.9-.11 2.98 1.15 2.97 1.8-.49 19.46.17 64.3-.5 78.4-.51 10.81-7.45 2.16-8.9.86"/><path id="kvg:095e5-s7" kvg:type="㇐a" d="M66.49 24.22c3.38.0 20.09-1.74 23.9-1.74"/><path id="kvg:095e5-s8" kvg:type="㇐a" d="M66.55 33.76c4.99.0 17.59-1.56 24.05-1.56"/></g></g><g id="kvg:095e5-g4" kvg:element="達" kvg:variant="true"><g id="kvg:095e5-g5" kvg:position="nyoc"><g id="kvg:095e5-g6" kvg:element="土"><path id="kvg:095e5-s9" kvg:type="㇐" d="M47.85 42.81c.91.21 2.58.28 3.48.21 5.89-.44 13.17-1.27 19.15-2.35 1.49-.27 2.42.1 3.18.2"/><path id="kvg:095e5-s10" kvg:type="㇑a" d="M59.29 35.12c.08.2 1.05 1.03 1.13 2.28.36 6.02.09 9.31.09 11.36"/><path id="kvg:095e5-s11" kvg:type="㇐" d="M42.81 50.85c.9.21 2.56.25 3.46.21 7.81-.39 22.25-2.34 30.36-2.52 1.5-.03 2.4.1 3.16.2"/></g><g id="kvg:095e5-g7" kvg:element="羊"><g id="kvg:095e5-g8" kvg:element="䒑"><path id="kvg:095e5-s12" kvg:type="㇔" d="M51.54 52.29c1.17.97 3.02 4.12 3.31 5.74"/><path id="kvg:095e5-s13" kvg:type="㇒" d="M70.01 50.77c.01.16.02.42-.03.66-.29 1.41-1.96 4.54-4.25 6.53"/><path id="kvg:095e5-s14" kvg:type="㇐" d="M45.46 60.96c.69.08 1.96.04 2.63.05 3.64.05 20.28-2.17 26.47-2.25 1.15-.02 1.83.01 2.4.05"/></g><path id="kvg:095e5-s15" kvg:type="㇐" d="M47.16 69.19c.68.09 1.94.11 2.61.05 2.76-.26 15.63-1.98 21.77-2.06 1.14-.02 1.82.01 2.38.05"/><path id="kvg:095e5-s16" kvg:type="㇐" d="M44.06 77.99c.95.11 2.69.1 3.65.05 8.23-.42 18.25-2.27 27.48-2.43 1.58-.03 2.53.01 3.33.06"/><path id="kvg:095e5-s17" kvg:type="㇑" d="M60.25 61.85c.55.3.87 1.5.99 2.2.11.69.0 16.63-.11 21.02"/></g></g><g id="kvg:095e5-g9" kvg:element="辶" kvg:position="nyo"><path id="kvg:095e5-s18" kvg:type="㇔" d="M31.67 40.25c2.83 1 7.32 4.1 8.03 5.65"/><path id="kvg:095e5-s19" kvg:type="㇔" d="M29.63 53.24c2.8.88 7.24 3.61 7.94 4.98"/><path id="kvg:095e5-s20" kvg:type="㇋" d="M26.87 68.63c1.59.56 2.66.28 3.37.14s6.33-2.03 7.27-2.53c.94-.51 2.83.2 1.89 1.42-.67.86-3.45 3.29-4.08 3.93-1.3 1.32-1.3 2.58.89 3.93.71.44 1.21 1.08 1.95 1.79 1.06 1.02.95 1.83-.35 3.05-.9.85-5.32 4.59-6.38 4.87"/><path id="kvg:095e5-s21" kvg:type="㇏" d="M27.64 86.17c1.84-.3 5.53-1.06 8.29-.46 2.76.61 18.42 3.4 21.19 3.96 8.29 1.67 12.44 1.67 18.58 1.06"/></g></g></g></g></svg>