<svg xmlns="http://www.w3.org/2000/svg" width="109" height="109" viewBox="0 0 109 109"><g id="kvg:StrokePaths_09628" style="fill:none;stroke:#000000;stroke-width:3;stroke-linecap:round;stroke-linejoin:round;"><g id="kvg:09628" kvg:element="阨"><g id="kvg:09628-g1" kvg:element="⻖" kvg:variant="true" kvg:original="阜" kvg:position="left" kvg:radical="general"><path id="kvg:09628-s1" kvg:type="㇇" d="M14.87 17.66c1.08.22 2.25.49 3.39.28 6.24-1.18 11.94-1.31 14.38-2.23 3.06-1.15 6.12 1.15 4.76 3.83s-8.63 15.21-11.01 19.05"/><path id="kvg:09628-s2" kvg:type="㇁" d="M26.38 38.59c13.59 9.58 11.37 42.66 1.7 33.34"/><path id="kvg:09628-s3" kvg:type="㇑" d="M16.54 19.03c.21.72.5 2.47.5 3.74.0 1.17.0 67.8-.22 74.99"/></g><g id="kvg:09628-g2" kvg:element="厄" kvg:position="right"><g id="kvg:09628-g3" kvg:element="厂" kvg:position="tare"><path id="kvg:09628-s4" kvg:type="㇐" d="M45.85 18.86c1.14.52 3.22.63 4.35.52 13.31-1.23 26.4-3.39 41.22-3.59 1.89-.03 3.03.25 3.97.51"/><path id="kvg:09628-s5" kvg:type="㇒" d="M49.59 19.54c.04 1.72-.11 4.44-.09 6.93.25 22.28-.5 52.03-14.94 65.75"/></g><g id="kvg:09628-g4" kvg:element="卩" kvg:position="tarec"><path id="kvg:09628-s6" kvg:type="㇆" d="M61.79 38.12c.7.13 2.07.01 3.48-.2 6.24-.92 15.75-2.04 17.46-2.47 2.81-.7 4.63 1.23 4.52 4.04-.19 4.76-2.56 19.81-4.38 25.94-1.74 5.88-5.11 2.32-7.11-.1"/><path id="kvg:09628-s7" kvg:type="㇟/㇑" d="M59.25 36.37c.71 1.74 1.27 3.79 1.31 6.48.19 11.98-.5 26.13-.5 34.28C60.06 93.5 64.58 94 76.9 94c15.85.0 19.49-1.5 19.49-12.86"/></g></g></g></g></svg>