<svg xmlns="http://www.w3.org/2000/svg" width="109" height="109" viewBox="0 0 109 109"><g id="kvg:StrokePaths_0964b" style="fill:none;stroke:#000000;stroke-width:3;stroke-linecap:round;stroke-linejoin:round;"><g id="kvg:0964b" kvg:element="陋"><g id="kvg:0964b-g1" kvg:element="⻖" kvg:variant="true" kvg:original="阜" kvg:position="left" kvg:radical="general"><path id="kvg:0964b-s1" kvg:type="㇇" d="M13.75 18.25c.63.26 2.12 1.02 3.25.82 6-1.07 11.73-1.46 14.14-2.37 3.06-1.15 5.62 1.15 4.26 3.83-1.36 2.68-7.63 14.71-10.01 18.55"/><path id="kvg:0964b-s2" kvg:type="㇁" d="M24.88 39.59c13.87 13.16 11.37 40.66.94 32.6"/><path id="kvg:0964b-s3" kvg:type="㇑" d="M15.04 19.53c.46 1.22.78 2.59 1 3.74.22 1.15.0 67.8-.22 74.99"/></g><g id="kvg:0964b-g2" kvg:position="right"><g id="kvg:0964b-g3" kvg:element="丙"><g id="kvg:0964b-g4" kvg:element="一"><path id="kvg:0964b-s4" kvg:type="㇐" d="M47.65 19.33C48.9 20 51.17 20.11 52.44 20c7.51-.66 27.12-3.79 39-3.77 2.08.0 3.33.32 4.37.65"/></g><g id="kvg:0964b-g5" kvg:element="内"><g id="kvg:0964b-g6" kvg:element="冂"><path id="kvg:0964b-s5" kvg:type="㇑" d="M53.69 33.61c.47.76 1.38 3.35 1.45 4.73.41 8.48.23 36.4.23 45.98"/><path id="kvg:0964b-s6" kvg:type="㇆a" d="M54.87 35.01c5.9-.61 28.75-3.35 29.88-3.46 2.64-.26 4 1.69 4.07 4.61.21 8.92.7 31.84.7 40.98.0 7.38-3.27 4.86-6.58 1.53"/></g><g id="kvg:0964b-g7" kvg:element="人"><path id="kvg:0964b-s7" kvg:type="㇒" d="M71.68 21.19c.41.59 1.05 1.5.91 3.11C71.5 37 67.25 55.5 58.88 64.44"/><path id="kvg:0964b-s8" kvg:type="㇏" d="M70.94 46.14c4.26 2.6 11 10.67 12.07 14.71"/></g></g></g><path id="kvg:0964b-s9" kvg:type="㇄" d="M41.27 47.33c.98.92 1.67 1.99 1.76 5.02C43.42 66.91 42 85.04 42 90c0 3.5.5 5 2.5 4.75s44.25-3 46.75-3 6.5.0 8 .5"/></g></g></g></svg>