<svg xmlns="http://www.w3.org/2000/svg" width="109" height="109" viewBox="0 0 109 109"><g id="kvg:StrokePaths_0964c" style="fill:none;stroke:#000000;stroke-width:3;stroke-linecap:round;stroke-linejoin:round;"><g id="kvg:0964c" kvg:element="陌"><g id="kvg:0964c-g1" kvg:element="⻖" kvg:variant="true" kvg:original="阜" kvg:position="left" kvg:radical="general"><path id="kvg:0964c-s1" kvg:type="㇇" d="M16.25 18.25c1.02.36 2.35.64 3.76.4 5.49-.9 9.8-1.58 12.12-2.45 3.06-1.15 5.62 1.15 4.26 3.83-1.36 2.68-6.63 16.71-9.01 20.55"/><path id="kvg:0964c-s2" kvg:type="㇁" d="M27.38 40.59C42 49.5 41 80.5 29.58 72.43"/><path id="kvg:0964c-s3" kvg:type="㇑" d="M18.04 19.53c.46.97.28 2.59.5 3.74.22 1.15.0 67.8-.22 74.99"/></g><g id="kvg:0964c-g2" kvg:element="百" kvg:position="right"><g id="kvg:0964c-g3" kvg:position="top"><path id="kvg:0964c-s4" kvg:type="㇐" d="M46.96 18.92c1.15.47 3.26.59 4.41.47 10.63-1.14 22.79-2.56 37.64-3.52 1.91-.12 3.07.22 4.03.46"/></g><g id="kvg:0964c-g4" kvg:element="白" kvg:position="bottom"><g id="kvg:0964c-g5" kvg:position="top"><path id="kvg:0964c-s5" kvg:type="㇔" d="M67.98 20.88c.21.65.25 1.45.19 2.02-.3 3.36-2.88 12.46-5.23 16.97"/></g><g id="kvg:0964c-g6" kvg:element="日" kvg:position="bottom"><path id="kvg:0964c-s6" kvg:type="㇑" d="M50.76 41.32c.61 1.3 1.04 1.96 1.22 3.69 1.06 10.49.23 41.69.48 50.24"/><path id="kvg:0964c-s7" kvg:type="㇕a" d="M52.34 43.39c3.44-.22 28.89-2.68 32.02-2.94 2.61-.22 4.29 1.45 4.08 2.74-.41 2.6-1.95 35.94-2.27 49.79"/><path id="kvg:0964c-s8" kvg:type="㇐a" d="M52.78 65.2C67 63.75 76.5 63.5 86.73 63.13"/><path id="kvg:0964c-s9" kvg:type="㇐a" d="M53.47 92.37c11.28-.87 22.28-1.62 32.89-1.64"/></g></g></g></g></g></svg>