<svg xmlns="http://www.w3.org/2000/svg" width="109" height="109" viewBox="0 0 109 109"><g id="kvg:StrokePaths_0965f" style="fill:none;stroke:#000000;stroke-width:3;stroke-linecap:round;stroke-linejoin:round;"><g id="kvg:0965f" kvg:element="陟"><g id="kvg:0965f-g1" kvg:element="⻖" kvg:variant="true" kvg:original="阜" kvg:position="left" kvg:radical="general"><path id="kvg:0965f-s1" kvg:type="㇇" d="M15.75 17c.77.34 1.59.73 2.47.7 5.53-.2 12.83-2.52 15.42-3.49 3.06-1.15 4.62 1.65 3.26 4.33s-7.63 15.21-10.01 19.05"/><path id="kvg:0965f-s2" kvg:type="㇁" d="M26.88 37.59C41.25 50.5 37 79.25 27.08 69.43"/><path id="kvg:0965f-s3" kvg:type="㇑" d="M17.04 18.03c.71 1.22.28 2.59.5 3.74.22 1.15.0 69.8-.22 76.99"/></g><g id="kvg:0965f-g2" kvg:element="歩" kvg:variant="true" kvg:position="right"><g id="kvg:0965f-g3" kvg:element="止" kvg:position="top"><g id="kvg:0965f-g4" kvg:element="卜" kvg:original="ト"><path id="kvg:0965f-s4" kvg:type="㇑a" d="M64.87 10.99c1.51.44 2.43 2.01 2.74 2.91.31.9.53 21.81.29 27.45"/><path id="kvg:0965f-s5" kvg:type="㇐b/㇔" d="M68.14 26.48C73.5 26 81 24.75 85.86 23.51c2.34-.6 3.01-.25 4.52-.04"/></g><path id="kvg:0965f-s6" kvg:type="㇑a" d="M48.73 21.86c1.51.44 2.43 2.01 2.74 2.91.31.9.99 11.62.75 17.25"/><path id="kvg:0965f-s7" kvg:type="㇐" d="M38.61 42.89c.71.13 2.6.45 4.48.38 10.15-.37 35.57-2.6 48.44-2.97 1.89-.05 4.27.23 5.35.36"/></g><g id="kvg:0965f-g5" kvg:element="少" kvg:variant="true" kvg:position="bottom"><g id="kvg:0965f-g6" kvg:element="小" kvg:partial="true"><path id="kvg:0965f-s8" kvg:type="㇚" d="M65.68 45.07c.12.25 1.75 1.28 1.75 2.84.0 6.84.14 17.82.14 20.38.0 7.29-2.7 4.32-7.55.83"/><path id="kvg:0965f-s9" kvg:type="㇒" d="M52.89 53.89c.04.46.13 1.21-.07 1.85-1.46 4.61-7.63 13.5-12.65 17.74"/></g><g id="kvg:0965f-g7" kvg:element="丿"><path id="kvg:0965f-s10" kvg:type="㇒" d="M87.42 53.52c.13 1.06.53 2.83-.26 4.25C80.63 69.49 63.75 89 40.25 99.01"/></g></g></g></g></g></svg>