<!DOCTYPE svg PUBLIC "-//W3C//DTD SVG 1.0//EN" "http://www.w3.org/TR/2001/REC-SVG-20010904/DTD/svg10.dtd" [
<!ATTLIST g
xmlns:kvg CDATA #FIXED "http://kanjivg.tagaini.net"
kvg:element CDATA #IMPLIED
kvg:variant CDATA #IMPLIED
kvg:partial CDATA #IMPLIED
kvg:original CDATA #IMPLIED
kvg:part CDATA #IMPLIED
kvg:number CDATA #IMPLIED
kvg:tradForm CDATA #IMPLIED
kvg:radicalForm CDATA #IMPLIED
kvg:position CDATA #IMPLIED
kvg:radical CDATA #IMPLIED
kvg:phon CDATA #IMPLIED >
<!ATTLIST path
xmlns:kvg CDATA #FIXED "http://kanjivg.tagaini.net"
kvg:type CDATA #IMPLIED >
]><svg xmlns="http://www.w3.org/2000/svg" width="109" height="109" viewBox="0 0 109 109"><g id="kvg:StrokePaths_0965d" style="fill:none;stroke:#000000;stroke-width:3;stroke-linecap:round;stroke-linejoin:round;"><g id="kvg:0965d" kvg:element="陝"><g id="kvg:0965d-g1" kvg:element="⻖" kvg:variant="true" kvg:original="阜" kvg:position="left" kvg:radical="general"><path id="kvg:0965d-s1" kvg:type="㇇" d="M14.75 17c.71.61 1.65 1.03 2.74 1.08C21 18.25 28.75 17 32.64 16.21c3.2-.65 5.12 1.15 3.76 3.83s-7.63 15.71-10.01 19.55"/><path id="kvg:0965d-s2" kvg:type="㇁" d="M26.38 39.59C40.25 52.5 36 80 27.58 71.93"/><path id="kvg:0965d-s3" kvg:type="㇑" d="M16.54 18.53c0 1.72-.22 2.59.0 3.74.22 1.15.0 68.3-.22 75.49"/></g><g id="kvg:0965d-g2" kvg:position="right"><g id="kvg:0965d-g3" kvg:element="大"><path id="kvg:0965d-s4" kvg:type="㇐" d="M39.38 30.13c.95.36 3.49.77 5.51.62 13.67-1.06 31.63-3.19 43.9-3.7 2.11-.09 3.81-.04 5.71.23"/><path id="kvg:0965d-s5" kvg:type="㇒" d="M49.61 51.47C47.92 56.5 43.52 63.63 40 66.48"/><path id="kvg:0965d-s6" kvg:type="㇏" d="M43.83 40.49c.5.0.98.59 1.18 1.09 2.91 7.45 7.31 15.73 12.01 20.92.47.52.8.84 1.24 1"/></g><g id="kvg:0965d-g4" kvg:element="入"><path id="kvg:0965d-s7" kvg:type="㇒" d="M83.61 47.97C82.09 52.25 78.15 58.3 75 60.73"/><path id="kvg:0965d-s8" kvg:type="㇏" d="M78.08 38.99c.62.0 1.22.63 1.46 1.16 3.62 7.93 9.08 16.76 14.92 22.28.59.56 1 .89 1.54 1.07"/></g><g id="kvg:0965d-g5" kvg:element="入"><path id="kvg:0965d-s9" kvg:type="㇒" d="M65 13.25c.46 1.18.68 2.55.68 5.11.0 45.64-3.18 64.39-29.18 81.32"/><path id="kvg:0965d-s10" kvg:type="㇏" d="M64.53 53.26C69.5 64.25 79.5 83.75 90.41 94.37 92.49 96.4 93.09 96.8 94 97"/></g></g></g></g><g id="kvg:StrokeNumbers_0965d" style="font-size:8;fill:#808080"><text transform="matrix(1 0 0 1 18.50 15.50)">1</text><text transform="matrix(1 0 0 1 22.50 48.50)">2</text><text transform="matrix(1 0 0 1 9.44 24.50)">3</text><text transform="matrix(1 0 0 1 39.50 27.50)">4</text><text transform="matrix(1 0 0 1 41.50 55.50)">5</text><text transform="matrix(1 0 0 1 48.50 43.50)">6</text><text transform="matrix(1 0 0 1 75.75 52.50)">7</text><text transform="matrix(1 0 0 1 83.50 42.50)">8</text><text transform="matrix(1 0 0 1 55.50 12.50)">9</text><text transform="matrix(1 0 0 1 74.50 70.50)">10</text></g></svg>