<!DOCTYPE svg PUBLIC "-//W3C//DTD SVG 1.0//EN" "http://www.w3.org/TR/2001/REC-SVG-20010904/DTD/svg10.dtd" [
<!ATTLIST g
xmlns:kvg CDATA #FIXED "http://kanjivg.tagaini.net"
kvg:element CDATA #IMPLIED
kvg:variant CDATA #IMPLIED
kvg:partial CDATA #IMPLIED
kvg:original CDATA #IMPLIED
kvg:part CDATA #IMPLIED
kvg:number CDATA #IMPLIED
kvg:tradForm CDATA #IMPLIED
kvg:radicalForm CDATA #IMPLIED
kvg:position CDATA #IMPLIED
kvg:radical CDATA #IMPLIED
kvg:phon CDATA #IMPLIED >
<!ATTLIST path
xmlns:kvg CDATA #FIXED "http://kanjivg.tagaini.net"
kvg:type CDATA #IMPLIED >
]><svg xmlns="http://www.w3.org/2000/svg" width="109" height="109" viewBox="0 0 109 109"><g id="kvg:StrokePaths_0965e" style="fill:none;stroke:#000000;stroke-width:3;stroke-linecap:round;stroke-linejoin:round;"><g id="kvg:0965e" kvg:element="陞"><g id="kvg:0965e-g1" kvg:element="⻖" kvg:variant="true" kvg:original="阜" kvg:position="left" kvg:radical="general"><path id="kvg:0965e-s1" kvg:type="㇇" d="M15.5 17c.9.27 1.93.59 3 .44 6.5-.94 11.13-2.29 13.64-3.23 3.06-1.15 6.12 1.15 4.76 3.83s-7.13 15.71-9.51 19.55"/><path id="kvg:0965e-s2" kvg:type="㇁" d="M27.38 38.09c13.59 9.58 11.87 42.91.7 31.84"/><path id="kvg:0965e-s3" kvg:type="㇑" d="M17.54 18.03c.46 1.47.28 3.09.5 4.24.22 1.15.0 67.3-.22 74.49"/></g><g id="kvg:0965e-g2" kvg:position="right"><g id="kvg:0965e-g3" kvg:element="升" kvg:position="top"><g id="kvg:0965e-g4" kvg:element="丿"><path id="kvg:0965e-s4" kvg:type="㇒" d="M64.98 13.96c.06.38.23 1.1-.12 1.53-4.39 5.37-10.89 10.3-22.34 14.63"/></g><g id="kvg:0965e-g5" kvg:element="廾" kvg:variant="true"><g id="kvg:0965e-g6" kvg:element="丿"><path id="kvg:0965e-s5" kvg:type="㇒" d="M56.36 27.83c.46.87.88 1.78.92 3.05.37 11.59-1.46 28.08-13.59 34.41"/></g><g id="kvg:0965e-g7" kvg:element="十"><path id="kvg:0965e-s6" kvg:type="㇐" d="M39.13 40.84c1.26.33 3.57.39 4.84.33 13.13-.56 31.08-4.6 47.75-4.89 2.1-.04 3.36.16 4.42.33"/><path id="kvg:0965e-s7" kvg:type="㇑" d="M77.22 15.5c1.21 1.13 1.89 2.67 1.89 3.9.0 8.1.0 37.6-.28 45.1"/></g></g></g><g id="kvg:0965e-g8" kvg:element="土" kvg:position="bottom"><path id="kvg:0965e-s8" kvg:type="㇐" d="M46.09 75.8c1.01.29 2.87.37 3.89.29 10.52-.84 22.06-3.05 35.17-3.31 1.69-.03 2.7.14 3.55.28"/><path id="kvg:0965e-s9" kvg:type="㇑a" d="M65.05 58c.09.22 1.34 1.15 1.34 2.56.0 9.05-.27 19.45-.27 31.42"/><path id="kvg:0965e-s10" kvg:type="㇐" d="M35.61 93.75c1.68.41 4.77.48 6.45.41C57 93.5 73.86 92.26 92.5 91.72c2.8-.08 4.49.19 5.89.4"/></g></g></g></g><g id="kvg:StrokeNumbers_0965e" style="font-size:8;fill:#808080"><text transform="matrix(1 0 0 1 19.50 14.50)">1</text><text transform="matrix(1 0 0 1 23.50 46.06)">2</text><text transform="matrix(1 0 0 1 10.50 23.50)">3</text><text transform="matrix(1 0 0 1 56.50 13.50)">4</text><text transform="matrix(1 0 0 1 49.00 34.58)">5</text><text transform="matrix(1 0 0 1 34.75 37.01)">6</text><text transform="matrix(1 0 0 1 70.50 13.50)">7</text><text transform="matrix(1 0 0 1 38.50 77.50)">8</text><text transform="matrix(1 0 0 1 60.50 55.50)">9</text><text transform="matrix(1 0 0 1 32.50 90.50)">10</text></g></svg>