<svg xmlns="http://www.w3.org/2000/svg" width="109" height="109" viewBox="0 0 109 109"><g id="kvg:StrokePaths_09662"><g id="kvg:09662" kvg:element="院"><g id="kvg:09662-g1" kvg:element="⻖" kvg:variant="true" kvg:original="阜" kvg:position="left" kvg:radical="general"><path id="kvg:09662-s1" kvg:type="㇇" d="M12.17 21.67c1.12.14 2.26.34 3.33.13 6.75-1.3 11.37-2.5 13.92-3.13 3.71-.92 5.09 1.67 3.92 4.08C31.75 26 26.33 36.17 24 39.5"/><path id="kvg:09662-s2" kvg:type="㇁" d="M24 39.5c13.33 8.33 12.25 36 1.67 28.5"/><path id="kvg:09662-s3" kvg:type="㇑" d="M13.37 22c.88.88 1.46 2.12 1.46 3.25.0.88.05 47.33-.13 64.25-.03 2.83-.06 4.86-.09 5.75"/></g><g id="kvg:09662-g2" kvg:element="完" kvg:position="right" kvg:phon="完"><g id="kvg:09662-g3" kvg:element="宀"><path id="kvg:09662-s4" kvg:type="㇑a" d="M62.28 13.92c.96.96 1.44 2.38 1.42 3.5-.06 3.51-.06 5.73-.06 8.93"/><g id="kvg:09662-g4" kvg:element="冖"><path id="kvg:09662-s5" kvg:type="㇔" d="M43.51 28.14c-.01 4.65-1.62 10.71-3.13 14.23"/><path id="kvg:09662-s6" kvg:type="㇖b" d="M45 29.25C59 27 77.81 24.5 85.52 24.47c6.73-.02-.6 7.57-1.77 8.35"/></g></g><g id="kvg:09662-g5" kvg:element="元"><g id="kvg:09662-g6" kvg:element="二" kvg:position="top"><path id="kvg:09662-s7" kvg:type="㇐" d="M51.98 41.59c1.09.2 3.09.3 4.19.2 5.67-.54 10.33-1.54 14.08-1.89 1.79-.17 2.92-.16 3.83-.06"/><path id="kvg:09662-s8" kvg:type="㇐" d="M42.08 56.82c1.56.31 4.17.5 5.72.31 9.69-1.13 24.94-3.76 33.57-4.1 2.59-.1 4.16.15 5.46.31"/></g><g id="kvg:09662-g7" kvg:element="儿" kvg:original="八" kvg:position="bottom"><g id="kvg:09662-g8" kvg:element="丿"><path id="kvg:09662-s9" kvg:type="㇒" d="M57 59.5c.62 1 .64 2.54.38 3.67-2 8.83-6 21.95-19.71 30.83"/></g><path id="kvg:09662-s10" kvg:type="㇟" d="M67.44 57.87c1.03 1.03 1.51 2.38 1.54 4.06.15 7.52-.15 15.82-.15 20.93.0 7.88 1.17 10.58 13.44 10.58 11.48.0 13.37-1.7 13.37-8.38"/></g></g></g></g></g></svg>