<svg xmlns="http://www.w3.org/2000/svg" width="109" height="109" viewBox="0 0 109 109"><g id="kvg:StrokePaths_09673"><g id="kvg:09673" kvg:element="陳"><g id="kvg:09673-g1" kvg:element="⻖" kvg:variant="true" kvg:original="阜" kvg:position="left" kvg:radical="general"><path id="kvg:09673-s1" kvg:type="㇇" d="M15.67 21.67c1.33.58 3.4.43 4.87.19 5.96-.98 10.21-1.73 13.38-2.44 3.09-.69 4.25 1 2.92 3.33s-6.46 12.12-9.33 16.75"/><path id="kvg:09673-s2" kvg:type="㇁" d="M27.5 39.5c13.33 8.33 12.75 34.88 1.67 29"/><path id="kvg:09673-s3" kvg:type="㇑" d="M17.37 22.75c1 1 1.21 2 1.21 3.25.0.65.04 41.41.04 60.12.0 5.35.0 8.88-.01 9.13"/></g><g id="kvg:09673-g2" kvg:element="東" kvg:position="right" kvg:phon="東/申V"><g id="kvg:09673-g3" kvg:element="木" kvg:part="1"><path id="kvg:09673-s4" kvg:type="㇐" d="M46.21 26.42c2.29.58 4.82.34 6.83.09 8.22-1.02 17.59-2.27 27.08-3.42 1.94-.23 3.9-.28 5.81.24"/></g><g id="kvg:09673-g4" kvg:element="日"><path id="kvg:09673-s5" kvg:type="㇑" d="M44.16 38.93c.77.77 1.24 1.96 1.38 2.8.46 2.65 2.08 12.71 3 17.77.46 2.53.79 4.36.83 4.59"/><path id="kvg:09673-s6" kvg:type="㇕a" d="M45.78 39.91c7.13-1.02 29.97-3.5 36.85-4.16 2.86-.28 5.09.9 4.66 4.12-.72 5.27-1.38 9.42-2.65 16.37-.25 1.36-.52 2.83-.83 4.43"/><path id="kvg:09673-s7" kvg:type="㇐a" d="M48.32 50.41C58 49.25 79.38 47.38 84.75 47"/><path id="kvg:09673-s8" kvg:type="㇐a" d="M50.14 61.2c8.61-1.2 24.53-2.86 33.07-3.25"/></g><g id="kvg:09673-g5" kvg:element="木" kvg:part="2"><path id="kvg:09673-s9" kvg:type="㇑" d="M64.19 12.5c1.16 1.16 1.47 2.25 1.47 3.69.0.69.04 52.73.04 73.06.0 4.79.0 7.82-.01 8"/><path id="kvg:09673-s10" kvg:type="㇒" d="M64.19 59.91c0 1.72-.71 2.91-1.8 4.58C56.04 74.26 46.28 84.29 37 89.34"/><path id="kvg:09673-s11" kvg:type="㇏" d="M66.44 60.66c5.83 7.32 15.9 17.05 22.08 21.97 2.2 1.75 4.6 3.25 7.23 4.53"/></g></g></g></g></svg>