<svg xmlns="http://www.w3.org/2000/svg" width="109" height="109" viewBox="0 0 109 109"><g id="kvg:StrokePaths_0967d" style="fill:none;stroke:#000000;stroke-width:3;stroke-linecap:round;stroke-linejoin:round;"><g id="kvg:0967d" kvg:element="陽"><g id="kvg:0967d-g1" kvg:element="⻖" kvg:variant="true" kvg:original="阜" kvg:position="left" kvg:radical="general"><path id="kvg:0967d-s1" kvg:type="㇇" d="M15.92 18.17c1.46.71 3.08.72 3.84.62 5.12-.66 9.74-1.41 12.91-2.12 3.09-.69 4.27 1.63 3.17 4.08C34.38 24 30.5 32.38 28 37"/><path id="kvg:0967d-s2" kvg:type="㇁" d="M27.75 37.5c14.12 9.75 9.12 35.5-.58 26.75"/><path id="kvg:0967d-s3" kvg:type="㇑" d="M17.12 18.75c.63.63 1.21 1.73 1.21 2.75.0 2.84.02 48.88.03 67.12.0 3.44.0 5.88.0 6.88"/></g><g id="kvg:0967d-g2" kvg:element="昜" kvg:position="right" kvg:phon="昜"><g id="kvg:0967d-g3" kvg:element="旦" kvg:position="top"><g id="kvg:0967d-g4" kvg:element="日"><path id="kvg:0967d-s4" kvg:type="㇑" d="M50.82 15.51c.84.84 1.43 1.62 1.56 2.83.57 5.28 1.27 10.88 2.38 18.91.1.77.21 1.56.33 2.37"/><path id="kvg:0967d-s5" kvg:type="㇕a" d="M52.57 16.66c4.86-.65 18.44-2.69 26.08-3.46 3.1-.31 4.54 1.08 4.15 3.69-.92 6.11-2.27 12.97-3.63 18.15-.24.92-.47 1.78-.69 2.56"/><path id="kvg:0967d-s6" kvg:type="㇐a" d="M54.65 26.85c3.72-.48 18.6-2.35 25.91-2.68"/><path id="kvg:0967d-s7" kvg:type="㇐a" d="M55.85 37.78c4.37-.55 16.64-1.95 22.08-2.42"/></g><g id="kvg:0967d-g5" kvg:element="一"><path id="kvg:0967d-s8" kvg:type="㇐" d="M42.84 49.6c2.8.45 5.65.52 8.92.02 8.87-1.37 25.62-3.12 35.85-3.88 2.56-.19 5.23-.32 7.77.17"/></g></g><g id="kvg:0967d-g6" kvg:element="勿" kvg:position="bottom"><g id="kvg:0967d-g7" kvg:element="勹"><path id="kvg:0967d-s9" kvg:type="㇒" d="M56.88 52.12c-.04.49-.07 1.29-.43 1.97-1.96 3.64-8.75 12.41-18.01 17.74"/><path id="kvg:0967d-s10" kvg:type="㇆" d="M57.3 59.95c.99.57 2.77.66 3.76.6 2.81-.18 24.14-2.57 27.72-2.68 3.58-.11 4.23 2.57 3.28 5.82-1.41 4.82-4.02 17.2-11.36 28.36-3.13 4.75-5.36 5.45-9.33 1.18"/></g><path id="kvg:0967d-s11" kvg:type="㇒" d="M61.76 63.86c-.02.41-.04 1.06-.38 1.63-3.33 5.6-11.15 13.36-21.25 17.89"/><path id="kvg:0967d-s12" kvg:type="㇒" d="M77.03 62.32c-.05.86-.16 2.22-.77 3.45-3.57 7.25-14.39 20.38-30.19 28.08"/></g></g></g></g></svg>