<svg xmlns="http://www.w3.org/2000/svg" width="109" height="109" viewBox="0 0 109 109"><g id="kvg:StrokePaths_0968a"><g id="kvg:0968a" kvg:element="隊"><g id="kvg:0968a-g1" kvg:element="⻖" kvg:variant="true" kvg:original="阜" kvg:position="left" kvg:radical="general"><path id="kvg:0968a-s1" kvg:type="㇇" d="M16.62 23.62c.59.3 2.23.73 2.91.62 5.22-.87 10.26-1.95 12.88-2.83 3.71-1.24 5.4 1.03 3.67 4.58-1.46 3-7.25 13.67-9.58 17"/><path id="kvg:0968a-s2" kvg:type="㇁" d="M26.5 43c13.33 8.33 12.75 34.5.75 27"/><path id="kvg:0968a-s3" kvg:type="㇑" d="M18.62 25c.88.88 1.21 2.12 1.21 3.5.0.87.02 39.79.03 58 0 3.29.0 5.91.0 7.5"/></g><g id="kvg:0968a-g2" kvg:position="right" kvg:phon="1+4+豕"><path id="kvg:0968a-s4" kvg:type="㇔" d="M48.44 17.33c2.24 1.87 5.79 7.67 6.36 10.58"/><path id="kvg:0968a-s5" kvg:type="㇒" d="M76.23 13.18c.03.41.14 1.07-.06 1.63-1.18 3.31-3.8 8.68-7.89 14.07"/><g id="kvg:0968a-g3" kvg:element="豕"><path id="kvg:0968a-s6" kvg:type="㇐" d="M42.43 34.19c1.8.39 5.11.39 6.9.14 10.42-1.46 21.79-3.33 35.61-4.79 2.97-.31 4.8-.06 6.29.13"/><path id="kvg:0968a-s7" kvg:type="㇒" d="M61.38 34.25c.07.43.21 1.14-.14 1.72-2.12 3.49-7.78 8.21-18.86 13.66"/><path id="kvg:0968a-s8" kvg:type="㇁" d="M57.95 43.06c8.42 4.81 17.3 28.56 8.91 47.19-2.18 4.83-6.17.89-7.06.05"/><path id="kvg:0968a-s9" kvg:type="㇒" d="M60.11 47.97c.05.41.1 1.06-.09 1.64-1.12 3.46-7.56 11.06-16.38 15.72"/><path id="kvg:0968a-s10" kvg:type="㇒" d="M64.3 58.83c.07.6-.01 1.59-.39 2.42C61.38 66.75 53 76.25 39 84.14"/><path id="kvg:0968a-s11" kvg:type="㇒" d="M83.55 41.66c.04.34-.08 1.16-.32 1.62C81.19 47.03 78.76 49.98 70.5 56"/><path id="kvg:0968a-s12" kvg:type="㇏" d="M70.23 58.47c3.71 2.55 14.18 13.61 19.81 18.85 1.87 1.74 3.58 3.42 6.21 4.51"/></g></g></g></g></svg>