<!DOCTYPE svg PUBLIC "-//W3C//DTD SVG 1.0//EN" "http://www.w3.org/TR/2001/REC-SVG-20010904/DTD/svg10.dtd" [
<!ATTLIST g
xmlns:kvg CDATA #FIXED "http://kanjivg.tagaini.net"
kvg:element CDATA #IMPLIED
kvg:variant CDATA #IMPLIED
kvg:partial CDATA #IMPLIED
kvg:original CDATA #IMPLIED
kvg:part CDATA #IMPLIED
kvg:number CDATA #IMPLIED
kvg:tradForm CDATA #IMPLIED
kvg:radicalForm CDATA #IMPLIED
kvg:position CDATA #IMPLIED
kvg:radical CDATA #IMPLIED
kvg:phon CDATA #IMPLIED >
<!ATTLIST path
xmlns:kvg CDATA #FIXED "http://kanjivg.tagaini.net"
kvg:type CDATA #IMPLIED >
]><svg xmlns="http://www.w3.org/2000/svg" width="109" height="109" viewBox="0 0 109 109"><g id="kvg:StrokePaths_0968b" style="fill:none;stroke:#000000;stroke-width:3;stroke-linecap:round;stroke-linejoin:round;"><g id="kvg:0968b" kvg:element="隋"><g id="kvg:0968b-g1" kvg:element="⻖" kvg:variant="true" kvg:original="阜" kvg:position="left" kvg:radical="general"><path id="kvg:0968b-s1" kvg:type="㇇" d="M17.25 15.75c.98.08 2.49.74 3.5.65 6.75-.65 10.4-1.05 12.81-1.96 2.86-1.08 5.73 1.08 4.46 3.59s-7.68 16.21-9.91 19.8"/><path id="kvg:0968b-s2" kvg:type="㇁" d="M28.11 37.83C43.5 47.5 39.5 77.75 29.7 68.05"/><path id="kvg:0968b-s3" kvg:type="㇑" d="M18.99 16.14c0 .83.37.86.37 3 0 5.11.0 69.63-.21 76.36"/></g><g id="kvg:0968b-g2" kvg:position="right"><g id="kvg:0968b-g3" kvg:element="左" kvg:position="top"><g id="kvg:0968b-g4" kvg:position="kamae"><path id="kvg:0968b-s4" kvg:type="㇐" d="M45.98 20.28c1.51.19 3.02.4 4.37.3 11.87-.84 23.02-1.9 37.8-2.8 2.07-.13 3.16-.13 4.86.26"/><path id="kvg:0968b-s5" kvg:type="㇒" d="M62.84 8.75c.14.75.23 2.12-.02 2.96-4.37 14.46-11.37 26.06-21.95 34.13"/></g><g id="kvg:0968b-g5" kvg:element="工"><path id="kvg:0968b-s6" kvg:type="㇐" d="M57.64 30.73c.5.24 2.87.28 3.38.24 3.77-.29 14.76-1.23 20.33-1.97.77-.1 2.58.05 3.22.25"/><path id="kvg:0968b-s7" kvg:type="㇑a" d="M67.35 30.68c1.03.72 1.4 1.73 1.4 2.31.0 2.76.03 5.76.03 8.65"/><path id="kvg:0968b-s8" kvg:type="㇐" d="M50.33 42.71c.67.18 2.71.31 3.85.29 9.71-.15 23.82-2.25 33.99-2.67 1.83-.07 3.3.3 4.21.59"/></g></g><g id="kvg:0968b-g6" kvg:element="月" kvg:position="bottom"><path id="kvg:0968b-s9" kvg:type="㇑" d="M53.03 52.08c.58.66 1.15 2.29 1.15 2.97.0 3.95.27 39.06.19 40.49"/><path id="kvg:0968b-s10" kvg:type="㇆a" d="M55.33 53.46c2.3-.05 23.39-2.3 25.11-2.4 3.07-.18 3.83.93 3.83 3.2.0 3.23-.58 21.88-.58 34.79.0 11.44-3.45 4.69-6.02 2.14"/><path id="kvg:0968b-s11" kvg:type="㇐a" d="M55.33 64.24c7.86-.6 20.7-1.96 27.6-2.12"/><path id="kvg:0968b-s12" kvg:type="㇐a" d="M54.41 75.36c6.13-.2 20.34-1.36 29.14-2.03"/></g></g></g></g><g id="kvg:StrokeNumbers_0968b" style="font-size:8;fill:#808080"><text transform="matrix(1 0 0 1 21.50 13.25)">1</text><text transform="matrix(1 0 0 1 25.25 46.25)">2</text><text transform="matrix(1 0 0 1 11.50 23.25)">3</text><text transform="matrix(1 0 0 1 45.25 17.25)">4</text><text transform="matrix(1 0 0 1 53.25 9.08)">5</text><text transform="matrix(1 0 0 1 61.00 28.25)">6</text><text transform="matrix(1 0 0 1 61.50 38.68)">7</text><text transform="matrix(1 0 0 1 54.00 39.85)">8</text><text transform="matrix(1 0 0 1 46.00 60.03)">9</text><text transform="matrix(1 0 0 1 55.25 50.25)">10</text><text transform="matrix(1 0 0 1 58.25 61.25)">11</text><text transform="matrix(1 0 0 1 58.25 72.25)">12</text></g></svg>