<svg xmlns="http://www.w3.org/2000/svg" width="109" height="109" viewBox="0 0 109 109"><g id="kvg:StrokePaths_09698" style="fill:none;stroke:#000000;stroke-width:3;stroke-linecap:round;stroke-linejoin:round;"><g id="kvg:09698" kvg:element="隘"><g id="kvg:09698-g1" kvg:element="⻖" kvg:variant="true" kvg:original="阜" kvg:position="left" kvg:radical="general"><path id="kvg:09698-s1" kvg:type="㇇" d="M14.87 20.66c.73.13 2.55.32 3.39.16 5.74-1.07 10.28-2.13 12.88-3.11 3.06-1.15 6.12 1.15 4.76 3.83s-6.63 13.71-9.01 17.55"/><path id="kvg:09698-s2" kvg:type="㇁" d="M26.38 40.09C38.75 51 36.5 76.75 26.08 66.29"/><path id="kvg:09698-s3" kvg:type="㇑" d="M16.54 22.03c.21 1.47.28 2.59.5 3.74.22 1.15.0 62.8-.22 69.99"/></g><g id="kvg:09698-g2" kvg:position="right"><g id="kvg:09698-g3" kvg:element="益" kvg:variant="true" kvg:position="top"><g id="kvg:09698-g4" kvg:element="八"><g id="kvg:09698-g5" kvg:position="left"><path id="kvg:09698-s4" kvg:type="㇒" d="M54.14 18.39c.04.42.08 1.08-.08 1.68C53.09 23.6 46.91 31.36 39.3 36.1"/></g><g id="kvg:09698-g6" kvg:position="right"><path id="kvg:09698-s5" kvg:type="㇏" d="M67.13 15.31c2.05.37 14.56 14.57 20.63 17.74 2.35 1.23 3.19 1.88 5.46 2.28"/></g></g><path id="kvg:09698-s6" kvg:type="㇐" d="M51.52 34.62c1.03.51 2.92.56 3.96.51 4.82-.25 14.26-1.38 19.16-1.97 1.71-.21 2.76-.39 3.62-.13"/><g id="kvg:09698-g7" kvg:element="八"><g id="kvg:09698-g8" kvg:position="left"><path id="kvg:09698-s7" kvg:type="㇒" d="M54.05 45.69c.26.58-.04 1.24-.36 1.96-2.12 4.7-10.1 15.05-14.95 17.45"/></g><g id="kvg:09698-g9" kvg:position="right"><path id="kvg:09698-s8" kvg:type="㇏" d="M65.38 42.31c2.23.4 15.82 15.84 22.41 19.29 2.55 1.33 3.46 2.05 5.93 2.48"/></g></g><g id="kvg:09698-g10" kvg:element="皿" kvg:position="bottom"><path id="kvg:09698-s9" kvg:type="㇑a" d="M42.09 67.08c.58.64 1.92 2.21 1.98 2.76.68 5.91 1.29 14.68 1.96 22.4"/><path id="kvg:09698-s10" kvg:type="㇕b" d="M44.96 68.43c10.46-.89 35.57-2.31 39.35-2.58 1.38-.1 2.35 1.06 2.01 2.62-1.07 4.96-2.51 15.94-3.5 21.57"/><path id="kvg:09698-s11" kvg:type="㇑a" d="M56.52 69.04c.24.41.6 1.69.6 2.21.0 6.37.83 11.83.83 20.15"/><path id="kvg:09698-s12" kvg:type="㇑a" d="M70.23 68.3c.6 1.22.93 1.95.87 2.98-.34 5.7-.01 11.8-.88 19.51"/><path id="kvg:09698-s13" kvg:type="㇐" d="M32.89 92.24c1.51.29 4.29.34 5.81.29 15.76-.49 33.08-1.8 52.28-1.67 2.53.02 4.04.14 5.3.28"/></g></g></g></g></g></svg>