<svg xmlns="http://www.w3.org/2000/svg" width="109" height="109" viewBox="0 0 109 109"><g id="kvg:StrokePaths_096b7" style="fill:none;stroke:#000000;stroke-width:3;stroke-linecap:round;stroke-linejoin:round;"><g id="kvg:096b7" kvg:element="隷"><g id="kvg:096b7-g1" kvg:position="left"><g id="kvg:096b7-g2" kvg:element="士" kvg:position="top"><path id="kvg:096b7-s1" kvg:type="㇐" d="M13 27.43c1.83.65 4.4.38 6.26.06 7.51-1.3 15.93-2.4 22.49-3.09 1.96-.21 3.8-.38 5.75.04"/><path id="kvg:096b7-s2" kvg:type="㇑a" d="M31.97 13.42c1 1 1.34 2.08 1.34 3.66.0 4.17.05 13.55.05 18.78"/><path id="kvg:096b7-s3" kvg:type="㇐" d="M18.29 38.51c1.58.48 3.36.14 4.96-.04 6.25-.71 13.24-2.1 17.75-2.72 1.49-.21 2.74-.29 4.21-.02"/></g><g id="kvg:096b7-g3" kvg:element="示" kvg:position="bottom"><g id="kvg:096b7-g4" kvg:position="top"><path id="kvg:096b7-s4" kvg:type="㇐" d="M18.25 49.2c1.39.57 3.7.36 5.16.19 4.75-.58 12.09-1.87 16.61-2.48 1.27-.17 2.8-.05 4.05.26"/><path id="kvg:096b7-s5" kvg:type="㇐" d="M11.58 61.87c2.18.78 5.34.29 7.54-.05 6.07-.92 16.25-2.77 23.88-3.3 2.04-.14 4.12-.29 6.13.14"/></g><g id="kvg:096b7-g5" kvg:position="bottom"><path id="kvg:096b7-s6" kvg:type="㇑" d="M31.22 62.44c.99.99 1.23 2.06 1.23 3.82.0 4.75.05 19.82.05 23.7.0 8.24-3.53 2.96-6.81.2"/><path id="kvg:096b7-s7" kvg:type="㇒" d="M20.52 72.5c.09 1.08-.03 2.14-.37 3.17-2.02 4.33-4.9 9.08-9.9 15.33"/><path id="kvg:096b7-s8" kvg:type="㇔" d="M40.75 69.25c1.84 1.54 4.83 6.14 5.29 8.52"/></g></g></g><g id="kvg:096b7-g6" kvg:element="隶" kvg:position="right" kvg:radical="general"><g id="kvg:096b7-g7" kvg:element="⺕" kvg:variant="true" kvg:original="彑"><path id="kvg:096b7-s9" kvg:type="㇕c" d="M54.86 26.59c2.39.79 4.13.91 6.26.62 7.64-1.08 13.72-1.87 22.05-2.94 2.74-.35 3.52 1.4 3.2 3.55-.83 5.61-1.6 8.65-2.71 18.27"/><path id="kvg:096b7-s10" kvg:type="㇐" d="M51.67 38.62c2.83.5 4.6.23 7.09-.08 12.57-1.59 22.55-3 31.89-4.37 2.3-.34 4.65-.31 6.93.08"/><path id="kvg:096b7-s11" kvg:type="㇐" d="M55.58 50.43c2.06.25 3.89.23 5.93-.12C69 49 73.84 48.48 79.9 47.71c1.99-.25 3.76-.39 5.76-.22"/></g><g id="kvg:096b7-g8" kvg:element="氺" kvg:variant="true" kvg:original="水"><path id="kvg:096b7-s12" kvg:type="㇚" d="M68.73 11.33c1.16 1.16 1.33 2.67 1.33 4.56.0 12.69.02 70.65.02 74.97.0 9.77-5.08 2.39-6.52.72"/><path id="kvg:096b7-s13" kvg:type="㇔" d="M53.75 62.25c2.23 1.18 5.76 4.85 6.32 6.68"/><path id="kvg:096b7-s14" kvg:type="㇀" d="M50.15 84.35c.99.9 2.06.78 3.04.01.58-.45 7.86-7.46 10.32-9.64"/><path id="kvg:096b7-s15" kvg:type="㇒" d="M88.17 55.39c.05.33-.29 1.17-.59 1.59-1.7 2.4-3.33 3.9-7.28 6.77"/><path id="kvg:096b7-s16" kvg:type="㇏" d="M76.4 67.48c1.62.38 8.48 9.02 14.61 15.28 1.4 1.42 2.75 2.23 4.49 3.19"/></g></g></g></g></svg>