<svg xmlns="http://www.w3.org/2000/svg" width="109" height="109" viewBox="0 0 109 109"><g id="kvg:StrokePaths_096bb" style="fill:none;stroke:#000000;stroke-width:3;stroke-linecap:round;stroke-linejoin:round;"><g id="kvg:096bb" kvg:element="隻"><g id="kvg:096bb-g1" kvg:element="隹" kvg:position="top" kvg:radical="general"><g id="kvg:096bb-g2" kvg:element="亻" kvg:variant="true" kvg:original="人"><path id="kvg:096bb-s1" kvg:type="㇒" d="M35.31 12.5c.19 1.16-.05 2.67-.65 3.67-3.82 6.32-7.92 11.43-16.67 19.13"/><path id="kvg:096bb-s2" kvg:type="㇑" d="M29.59 26.72c.97.97 1.25 2.15 1.25 3.53.0 6.5-.02 17.37-.02 24.75.0 1.72.0 3.26.0 4.5"/></g><path id="kvg:096bb-s3" kvg:type="㇒" d="M59.36 11.5c.06.65-.02 1.5-.2 2.05-1.16 3.54-2.88 6.02-5.54 10.33"/><path id="kvg:096bb-s4" kvg:type="㇐b" d="M31.43 28.13c6.94-.49 29.27-3.19 41.32-4.58 3.62-.42 6.25-.71 7.14-.79"/><path id="kvg:096bb-s5" kvg:type="㇑a" d="M52.97 27.74c.96.96 1.28 2.26 1.28 4.03.0 6.73.03 13.23.03 23.02"/><path id="kvg:096bb-s6" kvg:type="㇐b" d="M32.04 38.28c6.35-.4 24.6-2.73 34.98-3.87 3.53-.39 6.14-.67 7.07-.75"/><path id="kvg:096bb-s7" kvg:type="㇐b" d="M32.01 47.53c6.61-.33 24.38-2.29 35.04-3.53 3.79-.44 6.65-.76 7.75-.83"/><path id="kvg:096bb-s8" kvg:type="㇐b" d="M32.11 57.02c7.24-.52 32.81-2.63 44.64-3.52 2.92-.22 5-.38 5.76-.45"/></g><g id="kvg:096bb-g3" kvg:element="又" kvg:position="bottom"><path id="kvg:096bb-s9" kvg:type="㇇" d="M31.8 67.27C34 68 36 67.75 38.02 67.5c3.04-.37 22.01-3.21 28.39-4.16 3.65-.54 6.17 1.26 3.3 4.84C59.25 81.25 43.62 90.88 23.5 98.13"/><path id="kvg:096bb-s10" kvg:type="㇏" d="M34.34 74.88c4.47.48 23.41 10.87 39.94 17.98 3.87 1.66 8.01 3.13 12.22 3.64"/></g></g></g></svg>