<svg xmlns="http://www.w3.org/2000/svg" width="109" height="109" viewBox="0 0 109 109"><g id="kvg:StrokePaths_096b4" style="fill:none;stroke:#000000;stroke-width:3;stroke-linecap:round;stroke-linejoin:round;"><g id="kvg:096b4" kvg:element="隴"><g id="kvg:096b4-g1" kvg:element="⻖" kvg:variant="true" kvg:original="阜" kvg:position="left" kvg:radical="general"><path id="kvg:096b4-s1" kvg:type="㇇" d="M14.37 15.75c1.12.59 2.24 1.26 3.34 1.08 6.54-1.08 10.54-2.33 14.43-3.11 3.21-.65 5.62 1.18 4.26 3.93s-7.63 17.09-10.01 21.02"/><path id="kvg:096b4-s2" kvg:type="㇁" d="M26.38 38.66c12.37 11.09 9.62 46.09-.8 32.65"/><path id="kvg:096b4-s3" kvg:type="㇑" d="M16.04 16.58c.21.67.5 2.67.5 3.83.0 1.2.0 69.49-.22 76.84"/></g><g id="kvg:096b4-g2" kvg:element="龍" kvg:position="right"><g id="kvg:096b4-g3" kvg:position="left"><g id="kvg:096b4-g4" kvg:element="立" kvg:position="top"><g id="kvg:096b4-g5" kvg:element="亠" kvg:position="top"><path id="kvg:096b4-s4" kvg:type="㇑a" d="M51.73 11.75c.73.84 1.82 2.72 1.82 4.86.0 2.95.0 4.64.0 9.3"/><path id="kvg:096b4-s5" kvg:type="㇐" d="M38.7 26.94c.55.29 2.44.33 2.99.29 3.1-.25 18.77-2 23.46-2.21.92-.04 1.47.14 1.93.28"/></g><g id="kvg:096b4-g6" kvg:position="bottom"><path id="kvg:096b4-s6" kvg:type="㇔" d="M44.25 29.94c1.52 4.24 2.21 8.58 2.35 11.38"/><path id="kvg:096b4-s7" kvg:type="㇒" d="M61.71 28.28c.41.38.46 1.41.41 1.72-.33 2.13-3.79 8.47-4.62 10.1"/><path id="kvg:096b4-s8" kvg:type="㇐" d="M36 44.93c.81.4 1.76.45 2.58.4 9.68-.6 16.4-2.24 26.67-3.06 1.35-.11 2.17.19 2.85.39"/></g></g><g id="kvg:096b4-g7" kvg:element="月" kvg:position="bottom"><path id="kvg:096b4-s9" kvg:type="㇑" d="M41.82 54.24c.39.6.65 1.19.78 1.79s.18 39.45.13 40.79"/><path id="kvg:096b4-s10" kvg:type="㇕" d="M43.37 54.84c1.55-.15 14.28-2.16 15.44-2.33 2.07-.3 2.84 1.94 2.59 2.83-.25.86-.39 22.23-.39 34.3.0 10.7-2.8 6.01-5.64 2.77"/><path id="kvg:096b4-s11" kvg:type="㇐" d="M43.37 65.83c5.3-.89 12.46-1.26 17.12-1.71"/><path id="kvg:096b4-s12" kvg:type="㇐" d="M43.76 76.66c4.14-.45 11.69-1.29 16.47-1.59"/></g></g><g id="kvg:096b4-g8" kvg:position="right"><path id="kvg:096b4-s13" kvg:type="㇐" d="M76.1 20.45c3.95-.5 12.05-1.37 16.52-2.29 1.02-.21 1.66.14 2.17.28"/><path id="kvg:096b4-s14" kvg:type="㇞" d="M74.02 12.23c1.16 1.01 1.49 2.46 1.5 3.87.04 2.98-.17 11.24-.29 15.34-.03.89.23 1.98 2.33 1.56 4.63-.92 8.32-1.4 13.49-2.32 2.44-.43 4.19.57 3.52 3.3-.73 2.99-1.43 6.5-2.33 11.66"/><path id="kvg:096b4-s15" kvg:type="㇐" d="M73.86 48.24c4.67-.31 14.49-1.48 21.02-1.76"/><path id="kvg:096b4-s16" kvg:type="㇟" d="M72.89 47.25c.62 1.13 1.11 2.46 1.14 4.2.17 7.77.06 28.9.06 34.19.0 8.86 1.65 10.95 13.18 10.95 9.98.0 11.37-2.64 11.37-8.66"/><path id="kvg:096b4-s17" kvg:type="㇐" d="M75.06 59.31c3.95-.5 10.94-1.06 16.35-1.82 1.03-.14 1.65.14 2.17.28"/><path id="kvg:096b4-s18" kvg:type="㇐" d="M74.36 69.8c3.95-.5 11.14-1.3 16.6-1.84 1.04-.1 1.66.14 2.17.28"/><path id="kvg:096b4-s19" kvg:type="㇐" d="M74.44 81.29c3.95-.5 12.06-1.54 17.84-2.32 1.03-.14 1.65.14 2.17.28"/></g></g></g></g></svg>