<svg xmlns="http://www.w3.org/2000/svg" width="109" height="109" viewBox="0 0 109 109"><g id="kvg:StrokePaths_096b2"><g id="kvg:096b2" kvg:element="隲"><g id="kvg:096b2-g1" kvg:element="⻖" kvg:variant="true" kvg:original="阜" kvg:position="left" kvg:radical="general"><path id="kvg:096b2-s1" kvg:type="㇇" d="M15.87 15.66c.86.44 1.94.75 3.13.61 6.51-.76 11.72-1.65 14.14-2.56 3.06-1.15 6.12 1.15 4.76 3.83s-8.13 17.21-10.51 21.05"/><path id="kvg:096b2-s2" kvg:type="㇁" d="M27.38 38.59C42 51.75 38.75 83 28.08 72.43"/><path id="kvg:096b2-s3" kvg:type="㇑" d="M17.54 17.03c.46.72.28 2.59.5 3.74.22 1.15.0 70.3-.22 77.49"/></g><g id="kvg:096b2-g2" kvg:position="right"><g id="kvg:096b2-g3" kvg:element="少" kvg:position="top"><g id="kvg:096b2-g4" kvg:element="小"><path id="kvg:096b2-s4" kvg:type="㇚" d="M66.65 11.5c.06.18.9.94.97 2.09.31 5.52-.2 15.45-.2 17.33.0 5.33-4.17 2.32-6.33.64"/><path id="kvg:096b2-s5" kvg:type="㇒" d="M53.96 18.02c.03.35.12.92-.07 1.4-1.38 3.48-7.23 10.2-11.98 13.41"/><path id="kvg:096b2-s6" kvg:type="㇔" d="M81.19 15.59c4.94 2.85 11.57 10.17 12.81 14.6"/></g><g id="kvg:096b2-g5" kvg:element="丿"><path id="kvg:096b2-s7" kvg:type="㇒" d="M79.48 23.98c.1.61.3 1.58-.21 2.44-4.16 7.1-20.16 18.56-36.41 23.33"/></g></g><g id="kvg:096b2-g6" kvg:element="馬" kvg:position="bottom"><path id="kvg:096b2-s8" kvg:type="㇑" d="M52.99 45.64c.33.22.68 1.44.68 1.82.0 3.87.04 20.47-.16 26.55"/><path id="kvg:096b2-s9" kvg:type="㇐b" d="M54.63 47.27c8.05-.76 27.86-3.32 31.31-3.73 1.21-.15 3.25-.31 3.86-.2"/><path id="kvg:096b2-s10" kvg:type="㇑a" d="M70.1 47.04c.33.22.59.52.59.9.0 3.87.04 16.92-.16 23.01"/><path id="kvg:096b2-s11" kvg:type="㇐b" d="M54.27 55.36c8.06-.76 23.92-2.24 27.38-2.65 1.21-.14 3.25-.31 3.86-.2"/><path id="kvg:096b2-s12" kvg:type="㇐b" d="M54.45 64.02c8.05-.76 25.42-2.24 28.87-2.65 1.21-.14 3.25-.31 3.86-.2"/><path id="kvg:096b2-s13" kvg:type="㇆a" d="M53.43 74.17c9.23-1.42 30.41-2.83 35.53-3.35 3.33-.34 5.21 1.56 4.81 3.91-1.1 6.46-2.3 15.69-4.87 19.87-3.58 5.83-4.72 3.14-8.1-.03"/><g id="kvg:096b2-g7" kvg:element="灬" kvg:variant="true" kvg:original="火"><path id="kvg:096b2-s14" kvg:type="㇔" d="M45.2 82.54c-.45 4.21-2.07 9.79-4.41 12.41"/><path id="kvg:096b2-s15" kvg:type="㇔" d="M56.28 81.36c1.1 2.3 2.15 8.61 2.43 12.18"/><path id="kvg:096b2-s16" kvg:type="㇔" d="M66.87 78.52c1.58 2.04 4.07 8.39 4.47 11.56"/><path id="kvg:096b2-s17" kvg:type="㇔" d="M77.7 78.28c1.72 1.47 4.44 6.05 4.87 8.34"/></g></g></g></g></g></svg>