<!DOCTYPE svg PUBLIC "-//W3C//DTD SVG 1.0//EN" "http://www.w3.org/TR/2001/REC-SVG-20010904/DTD/svg10.dtd" [
<!ATTLIST g
xmlns:kvg CDATA #FIXED "http://kanjivg.tagaini.net"
kvg:element CDATA #IMPLIED
kvg:variant CDATA #IMPLIED
kvg:partial CDATA #IMPLIED
kvg:original CDATA #IMPLIED
kvg:part CDATA #IMPLIED
kvg:number CDATA #IMPLIED
kvg:tradForm CDATA #IMPLIED
kvg:radicalForm CDATA #IMPLIED
kvg:position CDATA #IMPLIED
kvg:radical CDATA #IMPLIED
kvg:phon CDATA #IMPLIED >
<!ATTLIST path
xmlns:kvg CDATA #FIXED "http://kanjivg.tagaini.net"
kvg:type CDATA #IMPLIED >
]><svg xmlns="http://www.w3.org/2000/svg" width="109" height="109" viewBox="0 0 109 109"><g id="kvg:StrokePaths_096c5" style="fill:none;stroke:#000000;stroke-width:3;stroke-linecap:round;stroke-linejoin:round;"><g id="kvg:096c5" kvg:element="雅"><g id="kvg:096c5-g1" kvg:element="牙" kvg:position="left" kvg:radical="nelson" kvg:phon="牙V"><path id="kvg:096c5-s1" kvg:type="㇐" d="M15.41 22.6c2.47.65 4.8.51 6.71.22 6.85-1.05 16.35-2.35 22.16-3.43 1.71-.32 3.85-.65 5.58-.26"/><path id="kvg:096c5-s2" kvg:type="㇑a" d="M23.94 26.15c.83.83 1.09 2.05.99 3.1-.68 7-1.18 13.75-1.38 18.6"/><path id="kvg:096c5-s3" kvg:type="㇐" d="M11.85 50.13c2.41.52 5.1.31 7.52-.09 8.02-1.32 18.18-2.91 25.02-4.12 1.73-.31 2.99-.67 5.13-.31"/><g id="kvg:096c5-g2" kvg:element="亅"><path id="kvg:096c5-s4" kvg:type="㇚" d="M40.56 23.3c.76.76 1.3 1.83 1.3 4.05.0 18.6-.01 55.23-.01 61.56.0 12.67-5.95 2.92-7.5 1.32"/></g><g id="kvg:096c5-g3" kvg:element="丿"><path id="kvg:096c5-s5" kvg:type="㇒" d="M39.9 48.43c0 .82-.65 3.01-1.04 3.86C34.88 61 25.03 76.51 10.75 86.5"/></g></g><g id="kvg:096c5-g4" kvg:element="隹" kvg:position="right" kvg:radical="tradit"><g id="kvg:096c5-g5" kvg:element="亻" kvg:variant="true" kvg:original="人"><path id="kvg:096c5-s6" kvg:type="㇒" d="M63.63 15c.15 1.79-.05 2.85-.54 4.35C59.94 28.88 55.7 38.11 48.5 49.5"/><path id="kvg:096c5-s7" kvg:type="㇑" d="M57.01 35.84c.58.58.91 1.36.91 2.66.0 9.03-.03 34.3-.04 49.63.0 3.78.0 6.95.0 9.12"/></g><path id="kvg:096c5-s8" kvg:type="㇒" d="M82.75 14.75c.08.88.04 2.05-.28 2.77-2.21 4.98-3.46 7.87-7.2 13.57"/><path id="kvg:096c5-s9" kvg:type="㇐b" d="M58.68 34.14c7.57-.89 20.82-1.89 31.11-3.16 2.73-.34 3.72-.23 5.47-.04"/><path id="kvg:096c5-s10" kvg:type="㇑a" d="M75.86 34.6c.77.77 1.14 2.17 1.14 3.48.0 2.5.0 43.32.0 50.8"/><path id="kvg:096c5-s11" kvg:type="㇐b" d="M58.97 52.38C64.4 51.84 78.5 50.5 88 49.59c2.45-.23 4.33-.19 5.23-.08"/><path id="kvg:096c5-s12" kvg:type="㇐b" d="M59.1 70.67c5.94-.41 21.25-1.88 29.94-2.54 2.11-.16 3.75-.24 4.66-.21"/><path id="kvg:096c5-s13" kvg:type="㇐b" d="M58.98 91.44c6.85-.37 25.32-2.15 35.04-2.68 2.01-.11 3.59-.17 4.54-.14"/></g></g></g><g id="kvg:StrokeNumbers_096c5" style="font-size:8;fill:#808080"><text transform="matrix(1 0 0 1 9.75 21.13)">1</text><text transform="matrix(1 0 0 1 17.25 33.50)">2</text><text transform="matrix(1 0 0 1 5.25 50.98)">3</text><text transform="matrix(1 0 0 1 33.75 30.13)">4</text><text transform="matrix(1 0 0 1 26.25 59.98)">5</text><text transform="matrix(1 0 0 1 54.75 17.50)">6</text><text transform="matrix(1 0 0 1 50.25 57.05)">7</text><text transform="matrix(1 0 0 1 73.50 14.50)">8</text><text transform="matrix(1 0 0 1 66.75 30.05)">9</text><text transform="matrix(1 0 0 1 66.50 42.50)">10</text><text transform="matrix(1 0 0 1 62.25 48.13)">11</text><text transform="matrix(1 0 0 1 62.25 66.05)">12</text><text transform="matrix(1 0 0 1 62.25 87.50)">13</text></g></svg>