<svg xmlns="http://www.w3.org/2000/svg" width="109" height="109" viewBox="0 0 109 109"><g id="kvg:StrokePaths_096cb"><g id="kvg:096cb" kvg:element="雋"><g id="kvg:096cb-g1" kvg:element="隹" kvg:position="top" kvg:radical="general"><g id="kvg:096cb-g2" kvg:element="亻" kvg:variant="true" kvg:original="人"><path id="kvg:096cb-s1" kvg:type="㇒" d="M34.01 11.5c.22 1.39-.06 3.2-.77 4.39-4.55 7.57-10.31 13.97-20.74 23.18"/><path id="kvg:096cb-s2" kvg:type="㇑" d="M25.03 26.84c.97.49 1.71 1.56 1.77 2.32.57 6.75-.79 24.58-.31 28.09"/></g><path id="kvg:096cb-s3" kvg:type="㇒" d="M63.06 12c.08.59-.02 1.36-.26 1.87-1.54 3.22-3.5 5.71-7.04 9.64"/><path id="kvg:096cb-s4" kvg:type="㇐b" d="M26.53 26.98c11.22-.64 57.9-2.99 62.72-3.33"/><path id="kvg:096cb-s5" kvg:type="㇑a" d="M54.18 26.1c.54.25.97.59.97 1.02.0 4.38.06 18.55-.27 25.45"/><path id="kvg:096cb-s6" kvg:type="㇐b" d="M28.03 35.29c10.58-.53 50.93-2.56 55.47-2.85"/><path id="kvg:096cb-s7" kvg:type="㇐b" d="M26.75 44.18c11.17-.44 52.96-2.35 57.75-2.59"/><path id="kvg:096cb-s8" kvg:type="㇐b" d="M26.75 53.54c11.22-.64 59.44-2.85 64.25-3.2"/></g><g id="kvg:096cb-g3" kvg:position="bottom"><path id="kvg:096cb-s9" kvg:type="㇑" d="M21.83 61.13c.52.25 1.62 1.89 1.73 2.4.1.51-.17 34.97-.17 35.6"/><path id="kvg:096cb-s10" kvg:type="㇅" d="M24 63.75c2.5-.25 11.99-1.86 15.5-2.25 2.25-.25 3.75.0 3.75 2.5s0 8.5.0 10.25-.75 3 1.5 2.75 17.75-2.25 20-2.25"/><path id="kvg:096cb-s11" kvg:type="㇑" d="M64.68 59.94c.48.96.96 1.45.96 2.73.0 1.29-.32 14.36-.32 15.01"/><path id="kvg:096cb-s12" kvg:type="㇆" d="M66.08 61.65c5.67-.65 16.3-1.89 18.61-2.33 1.5-.29 2.34.79 2.33 2.8C87 69.25 86 82 83.18 93.23c-.98 3.89-3.68 1.27-5-.93"/></g></g></g></svg>