<svg xmlns="http://www.w3.org/2000/svg" width="109" height="109" viewBox="0 0 109 109"><g id="kvg:StrokePaths_096e3" style="fill:none;stroke:#000000;stroke-width:3;stroke-linecap:round;stroke-linejoin:round;"><g id="kvg:096e3" kvg:element="難"><g id="kvg:096e3-g1" kvg:position="left"><g id="kvg:096e3-g2" kvg:element="艹" kvg:variant="true" kvg:original="艸"><path id="kvg:096e3-s1" kvg:type="㇐" d="M13.73 29.05c1.64.45 3.1.33 4.63.13 8.35-1.09 20.7-3.24 29.01-3.73 1.83-.11 3.69-.2 5.48.28"/><path id="kvg:096e3-s2" kvg:type="㇑a" d="M23.51 18.07c.77.77 1.09 1.9 1.22 2.69 1.2 7.31 1.54 12.82 1.88 15.47"/><path id="kvg:096e3-s3" kvg:type="㇑a" d="M41.98 15.31c.45 1.04.6 2.28.28 3.6C41 24 40.12 28.88 39.01 34.48"/></g><g id="kvg:096e3-g3" kvg:element="口"><path id="kvg:096e3-s4" kvg:type="㇑" d="M16.06 41.5c.69.5 1.07 1.13 1.4 2.39.56 2.13 1.34 5 2.07 8.29.29 1.3.54 2.56.72 3.7"/><path id="kvg:096e3-s5" kvg:type="㇕b" d="M17.91 42.58c5.95-1.22 21.39-3.45 27.72-4.2 2.32-.28 3.5.87 2.9 3.2-.73 2.83-1.69 5.35-2.8 9.19"/><path id="kvg:096e3-s6" kvg:type="㇐b" d="M20.66 54.01c3.95-.34 16.03-1.79 23.38-2.52 1.28-.13 2.42-.24 3.37-.33"/></g><g id="kvg:096e3-g4" kvg:element="夫"><path id="kvg:096e3-s7" kvg:type="㇐" d="M19.68 65.16c1.33.56 3.43.36 4.83.16 5.15-.73 12.85-1.94 18.25-2.59 1.69-.2 3.27-.46 4.94-.03"/><g id="kvg:096e3-g5" kvg:element="大"><path id="kvg:096e3-s8" kvg:type="㇐" d="M15.43 78c1.69.38 3.54.37 4.94.11 7.38-1.36 18.39-2.83 25.87-3.81 1.89-.25 4.09-.4 5.94.07"/><path id="kvg:096e3-s9" kvg:type="㇒" d="M31.87 42.39c.81.81 1.18 2.17 1.18 3.85C33 75.25 29.5 87.38 15.24 97.69"/><path id="kvg:096e3-s10" kvg:type="㇔/㇏" d="M32.62 81.12c6.12 2.45 11.93 6.71 14.47 11.06"/></g></g></g><g id="kvg:096e3-g6" kvg:element="隹" kvg:position="right" kvg:radical="general"><g id="kvg:096e3-g7" kvg:element="亻" kvg:variant="true" kvg:original="人"><path id="kvg:096e3-s11" kvg:type="㇒" d="M65.99 15.8c.39 1.45-.04 3.1-.55 4.79-3.22 10.74-7.56 20.77-14.94 33.69"/><path id="kvg:096e3-s12" kvg:type="㇑" d="M59.07 40.09c1.05 1.05 1.25 2.26 1.25 3.9.01 9.32.05 31.71-.05 44.26-.04 4.89-.04 6.44.03 8.08"/></g><path id="kvg:096e3-s13" kvg:type="㇒" d="M80.6 17.52c.15.86.07 1.89-.2 2.74-1.66 5.25-2.91 8.12-5.76 14.03"/><path id="kvg:096e3-s14" kvg:type="㇐b" d="M60.04 38.59c4.72-.64 19.38-1.85 27.53-2.74 2.71-.3 4.69-.53 5.37-.65"/><path id="kvg:096e3-s15" kvg:type="㇑a" d="M75.58 38.66c.94.94 1.3 1.96 1.3 3.24.0 7.38.1 31.6.1 43.38"/><path id="kvg:096e3-s16" kvg:type="㇐b" d="M61.41 53.37c5.34-.37 17.88-1.19 24.87-1.76 2.06-.17 3.57-.31 4.15-.4"/><path id="kvg:096e3-s17" kvg:type="㇐b" d="M61.44 69.57c4.84-.41 17.86-1.49 25.07-1.99 2.1-.15 3.64-.26 4.25-.33"/><path id="kvg:096e3-s18" kvg:type="㇐b" d="M61.16 86.94c7.34-.32 21.51-1.18 29.38-1.66 2.12-.13 3.64-.25 4.21-.35"/></g></g></g></svg>