<svg xmlns="http://www.w3.org/2000/svg" width="109" height="109" viewBox="0 0 109 109"><g id="kvg:StrokePaths_096f7"><g id="kvg:096f7" kvg:element="雷"><g id="kvg:096f7-g1" kvg:element="雨" kvg:variant="true" kvg:position="top" kvg:radical="general"><path id="kvg:096f7-s1" kvg:type="㇐" d="M29.11 14.81c2.68.37 5.31.57 8.04.3 8.47-.86 23.33-2.52 34.23-3.32 2.32-.17 4.67-.4 6.98-.01"/><path id="kvg:096f7-s2" kvg:type="㇔/㇑" d="M16.89 29.74c-.23 5.73-2.27 12.08-3.78 17.87"/><path id="kvg:096f7-s3" kvg:type="㇖b/㇆" d="M17.67 31.45C39.5 29 71.45 25.73 88.16 25.73c8.64.0 4.17 3.66-.3 7.99"/><path id="kvg:096f7-s4" kvg:type="㇑" d="M53.24 16.31c.91.91 1.14 1.94 1.14 3.43.0.46-.01 17.39-.01 27.02.0 2.89-.01 5.61-.01 5.99"/><path id="kvg:096f7-s5" kvg:type="㇔" d="M32.77 37.25c3.15.87 7.45 3.47 9.16 4.92"/><path id="kvg:096f7-s6" kvg:type="㇔" d="M31.21 47.39c3.14.87 7.98 4.05 9.69 5.5"/><path id="kvg:096f7-s7" kvg:type="㇔" d="M67.61 34.04c4.76 1.34 7.91 3.92 9.49 5.07"/><path id="kvg:096f7-s8" kvg:type="㇔" d="M66.81 44.94c3.59 1.04 8.49 4.18 10.45 5.93"/></g><g id="kvg:096f7-g2" kvg:element="田" kvg:position="bottom" kvg:phon="畾T"><path id="kvg:096f7-s9" kvg:type="㇑" d="M25.49 63.5c.94.94 1.29 2.56 1.44 3.64 1.19 8.36 2.38 17.05 3.17 25.63.15 1.63.3 3.21.47 4.69"/><path id="kvg:096f7-s10" kvg:type="㇕a" d="M27.64 65.49C41.85 64.09 65.12 62 78.3 61.8c4.54-.07 4.84 1.53 4.32 5.46-.72 5.55-1.99 14.68-3.99 22.09-.45 1.68-.94 3.27-1.47 4.72"/><path id="kvg:096f7-s11" kvg:type="㇑a" d="M52.23 65.72c.9.9 1.16 1.91 1.16 3.5.0 7.92.09 18.58.09 22.75"/><path id="kvg:096f7-s12" kvg:type="㇐a" d="M29.79 79.07C41.75 78 70.62 75.87 80.9 75.8"/><path id="kvg:096f7-s13" kvg:type="㇐a" d="M31.31 94.45c10.23-.59 29.69-1.7 45.61-2.3"/></g></g></g></svg>