<!DOCTYPE svg PUBLIC "-//W3C//DTD SVG 1.0//EN" "http://www.w3.org/TR/2001/REC-SVG-20010904/DTD/svg10.dtd" [
<!ATTLIST g
xmlns:kvg CDATA #FIXED "http://kanjivg.tagaini.net"
kvg:element CDATA #IMPLIED
kvg:variant CDATA #IMPLIED
kvg:partial CDATA #IMPLIED
kvg:original CDATA #IMPLIED
kvg:part CDATA #IMPLIED
kvg:number CDATA #IMPLIED
kvg:tradForm CDATA #IMPLIED
kvg:radicalForm CDATA #IMPLIED
kvg:position CDATA #IMPLIED
kvg:radical CDATA #IMPLIED
kvg:phon CDATA #IMPLIED >
<!ATTLIST path
xmlns:kvg CDATA #FIXED "http://kanjivg.tagaini.net"
kvg:type CDATA #IMPLIED >
]><svg xmlns="http://www.w3.org/2000/svg" width="109" height="109" viewBox="0 0 109 109"><g id="kvg:StrokePaths_09700" style="fill:none;stroke:#000000;stroke-width:3;stroke-linecap:round;stroke-linejoin:round;"><g id="kvg:09700" kvg:element="需"><g id="kvg:09700-g1" kvg:element="雨" kvg:variant="true" kvg:position="top" kvg:radical="general"><path id="kvg:09700-s1" kvg:type="㇐" d="M32.66 15.19c2.59.56 4.74.37 7.09.07 7.38-.93 23.36-2.76 30-3.08 2.12-.1 4.21.0 6.31.31"/><path id="kvg:09700-s2" kvg:type="㇔/㇑" d="M19.96 28.11c-.22 5.31-2.17 11.19-3.61 16.55"/><path id="kvg:09700-s3" kvg:type="㇖b/㇆" d="M21.1 29.32c21.02-2.95 51.34-6.12 67.05-6.12 9.1.0 1.17 6.61-.28 8.28"/><path id="kvg:09700-s4" kvg:type="㇑" d="M53.42 16.76c.91.91 1.06 2.36 1.08 3.76.0.26-.01 12.26-.02 19.23.0 2.8-.01 4.79-.01 4.89"/><path id="kvg:09700-s5" kvg:type="㇔" d="M33.5 33.49c3.25.57 7.69 2.26 9.46 3.21"/><path id="kvg:09700-s6" kvg:type="㇔" d="M31.5 42.06c3.08.75 7.84 3.52 9.52 4.78"/><path id="kvg:09700-s7" kvg:type="㇔" d="M67 30.75c3.56.97 7.6 2.92 9.03 3.73"/><path id="kvg:09700-s8" kvg:type="㇔" d="M66.79 39.4c2.91.82 6.87 3.29 8.45 4.66"/></g><g id="kvg:09700-g2" kvg:element="而" kvg:position="bottom"><g id="kvg:09700-g3" kvg:position="top"><path id="kvg:09700-s9" kvg:type="㇐" d="M29.25 55.14c2.25.61 5.02.47 7.13.25 8.3-.89 25.96-2.61 34.25-2.98 2.24-.1 4.67-.19 6.87.35"/><path id="kvg:09700-s10" kvg:type="㇒" d="M50.03 56.89c.06.64-.05 1.24-.34 1.82-.82 1.98-2.88 4.75-7.38 8.51"/></g><g id="kvg:09700-g4" kvg:position="bottom"><g id="kvg:09700-g5" kvg:element="冂"><path id="kvg:09700-s11" kvg:type="㇑" d="M23.91 67.35c.93.93 1.18 2.45 1.35 4.15.18 1.86 1.05 12 1.69 18.53.22 2.25.42 4.07.54 4.97"/><path id="kvg:09700-s12" kvg:type="㇆a" d="M25.76 70.24c7.66-.72 42.73-4.02 56.62-5.12 5.1-.4 6.34 1.18 5.77 6.15-.7 6.04-2.43 17.33-4.94 22.77-2.93 6.33-5.08 2.59-6.4 1.13"/></g><path id="kvg:09700-s13" kvg:type="㇑" d="M41.92 70.76c.91.91 1.25 2.09 1.33 3.01.17 2.09.81 8.87 1.19 13.74.18 2.29.31 4.05.31 4.49"/><path id="kvg:09700-s14" kvg:type="㇑" d="M63.92 69.51c.97.97.97 2.37.83 3.76-.35 3.33-.83 8.76-1.26 13.98-.18 2.2-.36 4.19-.51 5.64"/></g></g></g></g><g id="kvg:StrokeNumbers_09700" style="font-size:8;fill:#808080"><text transform="matrix(1 0 0 1 29.50 12.50)">1</text><text transform="matrix(1 0 0 1 13.50 31.50)">2</text><text transform="matrix(1 0 0 1 22.50 25.50)">3</text><text transform="matrix(1 0 0 1 46.50 23.50)">4</text><text transform="matrix(1 0 0 1 27.50 36.50)">5</text><text transform="matrix(1 0 0 1 23.50 44.50)">6</text><text transform="matrix(1 0 0 1 60.50 32.50)">7</text><text transform="matrix(1 0 0 1 59.50 40.50)">8</text><text transform="matrix(1 0 0 1 23.25 54.50)">9</text><text transform="matrix(1 0 0 1 38.25 62.50)">10</text><text transform="matrix(1 0 0 1 15.75 76.55)">11</text><text transform="matrix(1 0 0 1 29.50 66.63)">12</text><text transform="matrix(1 0 0 1 33.50 78.50)">13</text><text transform="matrix(1 0 0 1 53.50 76.50)">14</text></g></svg>