<svg xmlns="http://www.w3.org/2000/svg" width="109" height="109" viewBox="0 0 109 109"><g id="kvg:StrokePaths_09707" style="fill:none;stroke:#000000;stroke-width:3;stroke-linecap:round;stroke-linejoin:round;"><g id="kvg:09707" kvg:element="震"><g id="kvg:09707-g1" kvg:element="雨" kvg:variant="true" kvg:position="top" kvg:radical="general"><path id="kvg:09707-s1" kvg:type="㇐" d="M35.91 14.34c2.52.1 4.72.07 7.23-.28 6.06-.84 16.82-2.23 22.98-2.67 2.44-.18 5.02-.4 7.45-.05"/><path id="kvg:09707-s2" kvg:type="㇔/㇑" d="M22.46 24.25c-.21 4.94-2.02 10.42-3.36 15.41"/><path id="kvg:09707-s3" kvg:type="㇖b/㇆" d="M23.47 26.86c21.03-2.36 43.65-5.74 62.95-6.17 8.47-.19 1.09 6.4-.26 7.96"/><path id="kvg:09707-s4" kvg:type="㇑" d="M53.17 15.51c.97.97 1.33 2.37 1.33 4.26.0 5-.01 12.7-.02 19.23.0 1.93.0 3.76.0 5.39"/><path id="kvg:09707-s5" kvg:type="㇔" d="M33.88 32.25c3.29.77 7.79 3.09 9.58 4.37"/><path id="kvg:09707-s6" kvg:type="㇔" d="M33.75 41.56c2.6.75 6.6 3.52 8.02 4.78"/><path id="kvg:09707-s7" kvg:type="㇔" d="M65.5 28.78c3.66 1.16 7.81 3.47 9.28 4.43"/><path id="kvg:09707-s8" kvg:type="㇔" d="M65.75 37.88c2.83.87 6.7 3.48 8.24 4.94"/></g><g id="kvg:09707-g2" kvg:element="辰" kvg:position="bottom" kvg:phon="辰"><g id="kvg:09707-g3" kvg:element="厂"><path id="kvg:09707-s9" kvg:type="㇐" d="M30.74 52.3c2.91.86 5.38.86 8.39.59 9.18-.81 23.91-2.53 31.49-3.29 2.74-.27 5.66-.71 8.39-.23"/><path id="kvg:09707-s10" kvg:type="㇒" d="M32.4 53.17c.65.65.68 2.03.4 3.68C30.75 69 28.5 83.12 15.25 95.3"/></g><path id="kvg:09707-s11" kvg:type="㇐" d="M41.92 61.07c1.78.6 3.78.28 5.59.06 5.11-.6 12.68-1.78 17.74-2.35 1.78-.2 3.42-.28 5.19.08"/><path id="kvg:09707-s12" kvg:type="㇐" d="M33.56 70.42c2.16.73 5.23.38 7.45.15 8.51-.89 25.71-2.7 33.74-3.32 2.56-.2 5.68-.64 8.23-.13"/><path id="kvg:09707-s13" kvg:type="㇙" d="M43.42 73.66c.9.9 1.33 2.34 1.33 3.96.0 9.36.07 15.19.07 16.78.0 1.58 1.26 2.5 3.08 1.05 2.73-2.19 8.48-6.44 12.6-9.19"/><path id="kvg:09707-s14" kvg:type="㇒" d="M79.36 73.09c.06.27.12.69-.11 1.07-.78 1.3-3.68 3.49-8.04 5.7"/><path id="kvg:09707-s15" kvg:type="㇏" d="M56.7 75.13c2.55.0 19.54 11.68 27.12 16.69 2.73 1.81 4.55 2.92 8.18 4.12"/></g></g></g></svg>