<!DOCTYPE svg PUBLIC "-//W3C//DTD SVG 1.0//EN" "http://www.w3.org/TR/2001/REC-SVG-20010904/DTD/svg10.dtd" [
<!ATTLIST g
xmlns:kvg CDATA #FIXED "http://kanjivg.tagaini.net"
kvg:element CDATA #IMPLIED
kvg:variant CDATA #IMPLIED
kvg:partial CDATA #IMPLIED
kvg:original CDATA #IMPLIED
kvg:part CDATA #IMPLIED
kvg:number CDATA #IMPLIED
kvg:tradForm CDATA #IMPLIED
kvg:radicalForm CDATA #IMPLIED
kvg:position CDATA #IMPLIED
kvg:radical CDATA #IMPLIED
kvg:phon CDATA #IMPLIED >
<!ATTLIST path
xmlns:kvg CDATA #FIXED "http://kanjivg.tagaini.net"
kvg:type CDATA #IMPLIED >
]><svg xmlns="http://www.w3.org/2000/svg" width="109" height="109" viewBox="0 0 109 109"><g id="kvg:StrokePaths_09719" style="fill:none;stroke:#000000;stroke-width:3;stroke-linecap:round;stroke-linejoin:round;"><g id="kvg:09719" kvg:element="霙"><g id="kvg:09719-g1" kvg:element="雨" kvg:variant="true" kvg:position="top" kvg:radical="general"><path id="kvg:09719-s1" kvg:type="㇐" d="M32.66 12.56c1.34.05 3.82.28 5.12.15 6.97-.71 24.97-1.97 31.25-2.06 1.83-.03 2.35-.14 4.03.1"/><path id="kvg:09719-s2" kvg:type="㇔/㇑" d="M18.68 22.92C18.41 28 17.1 34.13 15.4 39.27"/><path id="kvg:09719-s3" kvg:type="㇖b/㇆" d="M18.85 24.82c7.4-1.02 52.84-4.84 68.55-4.84 9.1.0 1.17 6.33-.28 7.93"/><path id="kvg:09719-s4" kvg:type="㇑" d="M52.92 12.82c.91 1.36 1.31 2.26 1.33 3.6.01.48-.27 25.27-.27 26.59"/><path id="kvg:09719-s5" kvg:type="㇔" d="M34 27.93c2.99.68 7.08 2.71 8.71 3.83"/><path id="kvg:09719-s6" kvg:type="㇔" d="M29 35.51c3.08.72 7.84 3.37 9.52 4.57"/><path id="kvg:09719-s7" kvg:type="㇔" d="M64.5 25.3c4.25 1.46 9.07 4.37 10.78 5.58"/><path id="kvg:09719-s8" kvg:type="㇔" d="M65.29 33.98c3.51 1.1 8.29 4.38 10.2 6.21"/></g><g id="kvg:09719-g2" kvg:element="英" kvg:position="bottom"><g id="kvg:09719-g3" kvg:element="艹" kvg:variant="true" kvg:original="艸" kvg:position="top"><path id="kvg:09719-s9" kvg:type="㇐" d="M20.5 52.37c1.56.48 3.38.57 4.95.48 14.37-.87 41.52-4.29 58.08-4.35 2.61-.01 4.17.23 5.47.46"/><path id="kvg:09719-s10" kvg:type="㇑a" d="M38.5 45.05c1.54.97 2.03 1.26 2.2 1.85 1.54 5.56 1.8 9.35 2.3 12.95"/><path id="kvg:09719-s11" kvg:type="㇑a" d="M67.46 42c.29.75.49 1.27.34 2.24C67 49.5 66.5 53 65.5 57.49"/></g><g id="kvg:09719-g4" kvg:element="央" kvg:position="bottom"><path id="kvg:09719-s12" kvg:type="㇑a" d="M30.82 65.92c1.06.64 1.2 1.14 1.35 1.92 1.08 5.47 1.82 9.61 2.09 10.5"/><path id="kvg:09719-s13" kvg:type="㇕b" d="M32.28 66.32c3.6-.26 38.02-3.34 42.89-3.72 4.87-.39 4.82.58 4.79 2.71-.02 1.2-2.68 8.68-3.1 10.1"/><g id="kvg:09719-g5" kvg:element="大"><path id="kvg:09719-s14" kvg:type="㇐" d="M15.55 79.32c1.07.3 3.82.48 4.99.41 16.17-.99 40.85-2.9 66.86-4.02 1.48-.06 3.59.11 6.92.62"/><path id="kvg:09719-s15" kvg:type="㇒" d="M54.35 56.98c.4.77.41 1.79.38 3.08-.48 22.2-14.5 34.27-36.67 40.95"/><path id="kvg:09719-s16" kvg:type="㇏" d="M54.51 77.59c7.3 6.6 22.3 16.34 29.59 20.75 2.48 1.5 3.34 1.72 4.47 1.87"/></g></g></g></g></g><g id="kvg:StrokeNumbers_09719" style="font-size:8;fill:#808080"><text transform="matrix(1 0 0 1 26.50 12.50)">1</text><text transform="matrix(1 0 0 1 11.50 26.50)">2</text><text transform="matrix(1 0 0 1 21.50 21.50)">3</text><text transform="matrix(1 0 0 1 46.50 19.50)">4</text><text transform="matrix(1 0 0 1 26.50 31.50)">5</text><text transform="matrix(1 0 0 1 21.50 37.50)">6</text><text transform="matrix(1 0 0 1 58.50 29.50)">7</text><text transform="matrix(1 0 0 1 58.50 36.50)">8</text><text transform="matrix(1 0 0 1 13.50 54.50)">9</text><text transform="matrix(1 0 0 1 28.50 46.95)">10</text><text transform="matrix(1 0 0 1 57.50 44.50)">11</text><text transform="matrix(1 0 0 1 20.50 71.50)">12</text><text transform="matrix(1 0 0 1 32.50 63.73)">13</text><text transform="matrix(1 0 0 1 4.50 79.50)">14</text><text transform="matrix(1 0 0 1 44.25 58.50)">15</text><text transform="matrix(1 0 0 1 67.50 86.50)">16</text></g></svg>