<svg xmlns="http://www.w3.org/2000/svg" width="109" height="109" viewBox="0 0 109 109"><g id="kvg:StrokePaths_09730" style="fill:none;stroke:#000000;stroke-width:3;stroke-linecap:round;stroke-linejoin:round;"><g id="kvg:09730" kvg:element="霰"><g id="kvg:09730-g1" kvg:element="雨" kvg:variant="true" kvg:position="top" kvg:radical="general"><path id="kvg:09730-s1" kvg:type="㇐" d="M33.66 13.06c1.34.05 3.82.28 5.12.15 6.97-.71 24.97-2.47 31.25-2.56 1.83-.03 2.35-.14 4.03.1"/><path id="kvg:09730-s2" kvg:type="㇔/㇑" d="M20.01 22.67C19.76 27.43 17.6 32.71 16 37.52"/><path id="kvg:09730-s3" kvg:type="㇖b/㇆" d="M20.17 24.45c6.93-.96 54.19-5.47 68.9-5.47 8.53.0 1.09 5.93-.26 7.43"/><path id="kvg:09730-s4" kvg:type="㇑" d="M52.42 15.32c.91 1.36 1.31 2.26 1.33 3.6.01.48-.27 21.77-.27 23.09"/><path id="kvg:09730-s5" kvg:type="㇔" d="M34 28.43c2.99.68 7.08 2.71 8.71 3.83"/><path id="kvg:09730-s6" kvg:type="㇔" d="M29 34.51c3.08.72 7.84 3.37 9.52 4.57"/><path id="kvg:09730-s7" kvg:type="㇔" d="M65 25.71c4.65 1.25 9.92 3.73 11.78 4.77"/><path id="kvg:09730-s8" kvg:type="㇔" d="M64.79 34.23c3.16.96 7.48 3.86 9.2 5.46"/></g><g id="kvg:09730-g2" kvg:element="散" kvg:position="bottom"><g id="kvg:09730-g3" kvg:position="left"><path id="kvg:09730-s9" kvg:type="㇐" d="M16 51.46c1.38.33 3 .46 4.38.33 5.23-.5 21.52-2.38 26.29-2.53 2.3-.07 3.69.16 4.84.32"/><path id="kvg:09730-s10" kvg:type="㇑" d="M24.75 45.07c1.26 1.15 1.67 1.5 1.8 2.2 1.26 6.61.84 11.43 1.2 13.83"/><path id="kvg:09730-s11" kvg:type="㇑" d="M40.03 44.25c.47 1.25 1.01 1.67.79 2.87-.57 3.13-.82 8.38-1.57 12.5"/><path id="kvg:09730-s12" kvg:type="㇐" d="M11.25 62.1c1.29.27 2.81.38 4.1.27 4.9-.42 28.65-3.21 33.12-3.33 2.16-.06 3.45.13 4.53.27"/><g id="kvg:09730-g4" kvg:element="月"><path id="kvg:09730-s13" kvg:type="㇑" d="M21.08 68.73c.43.41.71.83.85 1.24s.2 27.81.14 28.74"/><path id="kvg:09730-s14" kvg:type="㇆a" d="M22.78 69.14c1.7-.1 19.83-1.85 21.09-1.97 2.27-.21 3.12 1.35 2.84 1.97-.27.6-.43 16.37-.43 24.75.0 8.11-4.26 1.45-4.83.93"/><path id="kvg:09730-s15" kvg:type="㇐a" d="M22.78 77.11c5.82-.62 17.83-1.55 22.94-1.86"/><path id="kvg:09730-s16" kvg:type="㇐a" d="M22.71 84.78c4.54-.31 16.98-1.74 22.23-1.95"/></g></g><g id="kvg:09730-g5" kvg:element="攵" kvg:variant="true" kvg:original="攴" kvg:position="right"><g id="kvg:09730-g6" kvg:element="𠂉" kvg:position="top"><path id="kvg:09730-s17" kvg:type="㇒" d="M65.57 43.81c.03.63.19 1.66-.06 2.53-1.6 5.56-5.21 16.2-10.76 23.9"/><path id="kvg:09730-s18" kvg:type="㇐" d="M65.82 55.21c.7.29 1.97.35 2.67.29 3.66-.3 17-2.67 22.75-2.98 1.24-.07 2-.01 2.33.05"/></g><g id="kvg:09730-g7" kvg:element="乂" kvg:position="bottom"><g id="kvg:09730-g8" kvg:element="丿"><path id="kvg:09730-s19" kvg:type="㇒" d="M81.56 57.15c.45 1.01.77 1.75.23 3.57C77.5 75.25 68 88.5 53.46 98.26"/></g><path id="kvg:09730-s20" kvg:type="㇏" d="M61.48 61.91c5.53 6.37 19.13 27.2 27.38 34.37 1.58 1.38 2.6 1.61 3.89 1.75"/></g></g></g></g></g></svg>