<svg xmlns="http://www.w3.org/2000/svg" width="109" height="109" viewBox="0 0 109 109"><g id="kvg:StrokePaths_09749" style="fill:none;stroke:#000000;stroke-width:3;stroke-linecap:round;stroke-linejoin:round;"><g id="kvg:09749" kvg:element="靉"><g id="kvg:09749-g1" kvg:element="雲" kvg:position="left"><g id="kvg:09749-g2" kvg:element="雨" kvg:variant="true" kvg:position="top" kvg:radical="general"><path id="kvg:09749-s1" kvg:type="㇐" d="M15.99 17.04c.86.1 1.98.11 2.76.08 3.51-.12 14.07-1.45 21.21-1.87 1.09-.06 2-.08 3.01.06"/><path id="kvg:09749-s2" kvg:type="㇔" d="M13.84 26c-.15 4.62-1.42 8.8-2.36 13.47"/><path id="kvg:09749-s3" kvg:type="㇆" d="M13.73 28c1.06.25 21.82-3.25 29.51-3.75 6.1-.4 1.76 5.5-.1 7.5"/><path id="kvg:09749-s4" kvg:type="㇑" d="M27.04 17.09c.61.65 1.1 1.81 1.1 2.32.0.52-.37 28.51-.37 29.93"/><path id="kvg:09749-s5" kvg:type="㇔" d="M17.79 34.3c1.99.75 4.71 3.01 5.8 4.26"/><path id="kvg:09749-s6" kvg:type="㇔" d="M16.44 44.13c1.9.87 4.82 4.06 5.86 5.51"/><path id="kvg:09749-s7" kvg:type="㇔" d="M34.45 32.77c2.4 1.27 5.13 3.8 6.09 4.86"/><path id="kvg:09749-s8" kvg:type="㇔" d="M34.45 43.72c2.32.93 5.48 3.72 6.75 5.27"/></g><g id="kvg:09749-g3" kvg:element="云" kvg:position="bottom"><g id="kvg:09749-g4" kvg:element="二"><path id="kvg:09749-s9" kvg:type="㇐" d="M15.08 57.76c.6.23 2.61.24 3.22.23 5.41-.1 13.45-1.23 19.85-2.58.98-.21 1.61.11 2.12.22"/><path id="kvg:09749-s10" kvg:type="㇐" d="M10.25 68.16c.77.39 2.17.4 2.95.39 4.55-.05 19.3-1.8 28.37-3.01 1.27-.17 2.05.19 2.69.38"/></g><g id="kvg:09749-g5" kvg:element="厶"><path id="kvg:09749-s11" kvg:type="㇜" d="M24.86 69.78c.04 1.22.02 2.88-.46 3.87-2.85 5.87-4.78 9.87-8.74 15.46-1.08 1.52-.72 2.93 1.03 2.48 6.06-1.59 17.08-5.33 22.88-6.84"/><path id="kvg:09749-s12" kvg:type="㇔" d="M33.21 74.43c3.55 3.01 9.18 12.39 10.07 17.07"/></g></g></g><g id="kvg:09749-g6" kvg:element="愛" kvg:position="right"><g id="kvg:09749-g7" kvg:element="⺤" kvg:variant="true" kvg:original="爪" kvg:position="top"><path id="kvg:09749-s13" kvg:type="㇒" d="M86.3 9.89c.07.25.14.65-.14 1.01-1.69 2.13-13.75 6.42-27.08 9.29"/><path id="kvg:09749-s14" kvg:type="㇔" d="M54.8 24.77c2.17 2.03 5.34 7 5.88 10.15"/><path id="kvg:09749-s15" kvg:type="㇔" d="M67.49 21.45c2.56 1.96 6.6 8.06 7.24 11.1"/><path id="kvg:09749-s16" kvg:type="㇒" d="M91.73 18.54c.03.36.05.93-.05 1.45-.61 3.06-4.09 9.78-8.85 13.89"/></g><g id="kvg:09749-g8" kvg:position="bottom"><g id="kvg:09749-g9" kvg:element="冖"><path id="kvg:09749-s17" kvg:type="㇔" d="M53.14 39.73c-.18 3.26-3.4 10.69-4.96 12.69"/><path id="kvg:09749-s18" kvg:type="㇖b" d="M52.88 41.11c10.74-.92 29.07-2.9 41.01-3.76 8.99-.65 2.11 5.62-.45 7.45"/></g><g id="kvg:09749-g10" kvg:element="心"><path id="kvg:09749-s19" kvg:type="㇔" d="M54.89 51.07c.21 1.3-2.13 7.02-3.84 9.19"/><path id="kvg:09749-s20" kvg:type="㇃" d="M62.92 47.4c3.95 9.41 9.74 14.75 23.15 13.6 3.52-.3 3.85-2.49 1.92-4.64"/><path id="kvg:09749-s21" kvg:type="㇔a" d="M73.17 45.66c.9 1.61 3.26 5.21 3.82 2.94"/><path id="kvg:09749-s22" kvg:type="㇔" d="M87.08 46.64c3.26 1.68 5.71 3.21 8.35 8.4"/></g><g id="kvg:09749-g11" kvg:element="夂"><path id="kvg:09749-s23" kvg:type="㇒" d="M65.72 60.38c.05.51.1 1.31-.09 2.04-1.13 4.3-7.64 13.75-16.56 19.54"/><path id="kvg:09749-s24" kvg:type="㇇" d="M65.75 69.83c.26.03 1.38.0 2.12-.07 2.46-.23 10.55-1.9 14.05-2.62 2.41-.5 3.98.76 2.13 3.53C78.5 79 63.25 92.25 46.63 97.72"/><path id="kvg:09749-s25" kvg:type="㇏" d="M59.67 72.97c6.73 2.64 22.29 19.12 28.1 23.05 1.73 1.17 3.14 1.74 4.83 2.08"/></g></g></g></g></g></svg>