<svg xmlns="http://www.w3.org/2000/svg" width="109" height="109" viewBox="0 0 109 109"><g id="kvg:StrokePaths_09748" style="fill:none;stroke:#000000;stroke-width:3;stroke-linecap:round;stroke-linejoin:round;"><g id="kvg:09748" kvg:element="靈"><g id="kvg:09748-g1" kvg:element="雨" kvg:variant="true" kvg:position="top" kvg:radical="general"><path id="kvg:09748-s1" kvg:type="㇐" d="M29.66 15.29c1.34.21 4.53.87 6.07.69 8.26-.93 29.61-3.24 37.05-3.37 2.17-.04 2.79-.18 4.78.12"/><path id="kvg:09748-s2" kvg:type="㇔/㇑" d="M19.93 23.42c-.22 5.08-2.12 10.71-3.53 15.84"/><path id="kvg:09748-s3" kvg:type="㇖b/㇆" d="M19.85 26.32c7.4-1.02 51.84-5.34 67.55-5.34 9.1.0 1.17 6.33-.28 7.93"/><path id="kvg:09748-s4" kvg:type="㇑" d="M52.92 17.32c.91 1.36 1.31 2.26 1.33 3.6.01.48-.27 20.27-.27 21.59"/><path id="kvg:09748-s5" kvg:type="㇔" d="M32 29.94c3.68.76 8.7 3.05 10.71 4.31"/><path id="kvg:09748-s6" kvg:type="㇔" d="M29.5 38.01c3.57.8 9.07 3.74 11.02 5.07"/><path id="kvg:09748-s7" kvg:type="㇔" d="M66.25 27.72c3.96 1.11 8.44 3.32 10.03 4.24"/><path id="kvg:09748-s8" kvg:type="㇔" d="M66.04 35.73c3.25.88 7.68 3.5 9.45 4.96"/></g><g id="kvg:09748-g2" kvg:position="bottom"><g id="kvg:09748-g3" kvg:element="口"><path id="kvg:09748-s9" kvg:type="㇑" d="M21.5 49.72c.25.22.51.4.62.68.88 2.17 1.93 8.16 2.53 12.06"/><path id="kvg:09748-s10" kvg:type="㇕b" d="M23.08 51.19c5.17-1.13 11.47-2.39 14.43-2.67 1.08-.1 1.73.62 1.58 1.23-.64 2.54-1.39 5.6-2.34 9.11"/><path id="kvg:09748-s11" kvg:type="㇐b" d="M24.77 60.55c3.48-.32 8.28-.88 13.05-1.38"/></g><g id="kvg:09748-g4" kvg:element="口"><path id="kvg:09748-s12" kvg:type="㇑" d="M45.25 47.72c.24.22.48.4.58.68.81 2.17 1.79 8.16 2.35 12.06"/><path id="kvg:09748-s13" kvg:type="㇕b" d="M46.71 49.19c4.81-1.13 10.66-1.89 13.41-2.17 1-.1 1.61.62 1.46 1.23-.6 2.54-1.29 5.6-2.18 9.11"/><path id="kvg:09748-s14" kvg:type="㇐b" d="M48.29 59.05c3.23-.32 7.69-.38 12.13-.88"/></g><g id="kvg:09748-g5" kvg:element="口"><path id="kvg:09748-s15" kvg:type="㇑" d="M68 46.22c.24.22.48.4.58.68.81 2.17 1.79 8.16 2.35 12.06"/><path id="kvg:09748-s16" kvg:type="㇕b" d="M69.46 47.19c4.81-1.13 12.16-1.89 14.91-2.17 1-.1 1.61.62 1.46 1.23-.6 2.54-1.29 6.1-2.18 9.61"/><path id="kvg:09748-s17" kvg:type="㇐b" d="M71.04 57.05c3.23-.32 9.19-.38 13.63-.88"/></g><g id="kvg:09748-g6" kvg:element="巫"><g id="kvg:09748-g7" kvg:element="工" kvg:part="1"><path id="kvg:09748-s18" kvg:type="㇐" d="M27.88 69.05c.99.23 4.23.3 5.23.24 4.66-.31 35.69-3.1 43.52-3.34 1.53-.05 2.92.05 4.18.24"/><path id="kvg:09748-s19" kvg:type="㇑" d="M52.69 70.09c1.56 1.2 1.56 1.93 1.56 2.89.0 6.74-.05 10.21-.05 21.76"/></g><g id="kvg:09748-g8" kvg:element="从"><g id="kvg:09748-g9" kvg:element="人" kvg:position="left"><path id="kvg:09748-s20" kvg:type="㇒" d="M38.75 75.19c.17.41.13 1.31-.11 1.77-2.29 4.48-5.89 10.31-12.93 14.58"/><path id="kvg:09748-s21" kvg:type="㇏" d="M36.79 81.28c3.08 1.42 7.01 5.21 8.51 8.8"/></g><g id="kvg:09748-g10" kvg:element="人" kvg:position="right"><path id="kvg:09748-s22" kvg:type="㇒" d="M69.85 71.96c.13.44.1 1.41-.08 1.91-1.78 4.83-4.57 11.12-10.05 15.73"/><path id="kvg:09748-s23" kvg:type="㇏" d="M68.87 80.12c4.09 1.4 9.32 5.13 11.31 8.67"/></g></g><g id="kvg:09748-g11" kvg:element="工" kvg:part="2"><path id="kvg:09748-s24" kvg:type="㇐" d="M16.72 97.16c.9.24 4.09.48 5.61.38 16.33-1.14 49.74-3.41 64.61-3.76 2.44-.06 5.36.39 6.58.76"/></g></g></g></g></g></svg>