<svg xmlns="http://www.w3.org/2000/svg" width="109" height="109" viewBox="0 0 109 109"><g id="kvg:StrokePaths_09744" style="fill:none;stroke:#000000;stroke-width:3;stroke-linecap:round;stroke-linejoin:round;"><g id="kvg:09744" kvg:element="靄"><g id="kvg:09744-g1" kvg:element="雨" kvg:variant="true" kvg:position="top" kvg:radical="general"><path id="kvg:09744-s1" kvg:type="㇐" d="M31.16 14.35c1.51.07 4.29.35 5.75.18 7.83-.89 28.06-3.08 35.12-3.21 2.06-.04 2.64-.17 4.53.12"/><path id="kvg:09744-s2" kvg:type="㇔/㇑" d="M19.68 21.42c-.26 4.92-2.57 10.37-4.28 15.34"/><path id="kvg:09744-s3" kvg:type="㇖b/㇆" d="M19.85 25.32c7.4-1.02 51.34-5.34 67.05-5.34 9.1.0 1.17 6.33-.28 7.93"/><path id="kvg:09744-s4" kvg:type="㇑" d="M52.42 15.82c.91 1.36 1.31 2.26 1.33 3.6.01.48-.27 18.77-.27 20.09"/><path id="kvg:09744-s5" kvg:type="㇔" d="M33.25 28.2c3.08.89 7.28 3.55 8.96 5.03"/><path id="kvg:09744-s6" kvg:type="㇔" d="M31.25 36.51c3 .8 7.63 3.74 9.27 5.07"/><path id="kvg:09744-s7" kvg:type="㇔" d="M67.5 25.75c3.66 1.22 7.81 3.67 9.28 4.69"/><path id="kvg:09744-s8" kvg:type="㇔" d="M63.79 32.98c4.02 1.18 9.51 4.74 11.7 6.71"/></g><g id="kvg:09744-g2" kvg:element="謁" kvg:variant="true" kvg:position="bottom"><g id="kvg:09744-g3" kvg:element="言" kvg:position="left"><path id="kvg:09744-s9" kvg:type="㇔" d="M24.52 43.25c3.37 1.07 8.69 4.42 9.53 6.09"/><path id="kvg:09744-s10" kvg:type="㇐" d="M13.15 56.99c.7.21 3.34.24 4.03.21 8.58-.38 18.66-2.4 24.9-2.58 1.16-.03 2.9.1 3.48.21"/><path id="kvg:09744-s11" kvg:type="㇐" d="M21.2 64.9c.36.09 2.57.1 2.93.09 3.76-.11 9.28-1.6 12.98-1.59.6.0 3.11.04 3.41.09"/><path id="kvg:09744-s12" kvg:type="㇐" d="M21.15 73.91c.36.09 2.55.1 2.91.09 3.74-.1 9.82-1.63 13.5-1.62.6.0 3.09.04 3.39.09"/><g id="kvg:09744-g4" kvg:element="口"><path id="kvg:09744-s13" kvg:type="㇑" d="M18.14 81.49c.33.28.71.51.81.88.94 3.26 2.13 11.1 3.08 15.89"/><path id="kvg:09744-s14" kvg:type="㇕b" d="M19.7 82.9c6.1-.69 15.35-1.74 20.97-2.44 1.41-.17 2.27.8 2.06 1.6-.84 3.29-1.57 6.82-3.07 12.29"/><path id="kvg:09744-s15" kvg:type="㇐b" d="M22.72 95.54c4.55-.42 12.12-.64 18.36-1.29"/></g></g><g id="kvg:09744-g5" kvg:element="曷" kvg:position="right"><g id="kvg:09744-g6" kvg:element="日" kvg:position="top"><path id="kvg:09744-s16" kvg:type="㇑" d="M55.81 45.08c.23.3.23.51.36.89 1.03 3.12 2.15 11.31 2.79 17.14"/><path id="kvg:09744-s17" kvg:type="㇕a" d="M56.55 46.4c7.08-.67 20.24-1.95 26.79-2.39 1.95-.13 2.34 1.18 2.24 1.91-.37 2.68-2.7 11.78-3.59 16.25"/><path id="kvg:09744-s18" kvg:type="㇐a" d="M58.03 53.8c4.06-.24 23.67-1.6 25.72-1.67"/><path id="kvg:09744-s19" kvg:type="㇐a" d="M59 61.61c7.22-.3 16.03-.93 23.29-1.07"/></g><g id="kvg:09744-g7" kvg:element="匂" kvg:variant="true" kvg:position="bottom"><g id="kvg:09744-g8" kvg:element="勹"><g id="kvg:09744-g9" kvg:element="丿"><path id="kvg:09744-s20" kvg:type="㇒" d="M62.78 63.58c.04.34.2.9-.08 1.37-2.11 3.5-6.91 8.64-14.95 13.13"/></g><path id="kvg:09744-s21" kvg:type="㇆" d="M61.72 70.71c.81.33 1.94.44 3.23.22s23.06-3.34 26.29-3.6c1.99-.16 3.31.85 3.05 3.15-1.03 9.01-2.78 17.76-7.13 26.93-1.5 3.15-4.25 2.7-6.37-.54"/></g><g id="kvg:09744-g10" kvg:element="匕" kvg:variant="true"><g id="kvg:09744-g11" kvg:element="人"><path id="kvg:09744-s22" kvg:type="㇒" d="M70.47 73.14c.23.21-.03 1.32-.19 1.73-1.57 4.06-3.13 7.48-8.76 12.36"/><path id="kvg:09744-s23" kvg:type="㇏" d="M71.92 79.36c2.81.96 6.39 3.5 7.76 5.91"/></g><path id="kvg:09744-s24" kvg:type="㇄" d="M54.71 77.31c.59.3.94 1.35 1.06 1.94.11.54-1.02 7.5-1.41 11.83-.11 1.22.48 2 2.1 1.86 3.77-.32 15.34-1.46 21.93-1.87 1.44-.09 2.59.25 3.3.25"/></g></g></g></g></g></g></svg>