<svg xmlns="http://www.w3.org/2000/svg" width="109" height="109" viewBox="0 0 109 109"><g id="kvg:StrokePaths_09752" style="fill:none;stroke:#000000;stroke-width:3;stroke-linecap:round;stroke-linejoin:round;"><g id="kvg:09752" kvg:element="青" kvg:radical="general"><g id="kvg:09752-g1" kvg:element="龶" kvg:position="top"><path id="kvg:09752-s1" kvg:type="㇐" d="M32.13 21.42c1.62.38 4.59.54 6.21.38 9.16-.92 21.57-2.3 34.18-3.13 2.69-.18 3.81-.09 5.23-.02"/><path id="kvg:09752-s2" kvg:type="㇑a" d="M52.81 8.63c1.15 1.15 1.76 2.62 1.76 4.42.0.43-.09 28.62-.07 30.19"/><path id="kvg:09752-s3" kvg:type="㇐" d="M34 33.37c2.39.62 4.73.4 7.13.05 9.07-1.31 22.36-2.96 28.71-3.46 2.21-.17 3.85-.08 5.03-.02"/><path id="kvg:09752-s4" kvg:type="㇐" d="M13.5 47c2.5.75 5.8.86 8.88.55 19.41-1.93 51.54-5.05 65.69-5.8 3.1-.16 7.07.0 9.3.73"/></g><g id="kvg:09752-g2" kvg:element="月" kvg:position="bottom"><path id="kvg:09752-s5" kvg:type="㇑" d="M36.26 54.19c1.09 1.09 1.59 2.89 1.59 3.52.0 4.92.0 20.42.0 34.56.0 2.23-.1 4.11-.1 6.24"/><path id="kvg:09752-s6" kvg:type="㇆a" d="M38.2 55.78c.59-.03 29.02-2.73 30.58-2.8 2.47-.11 3.73.89 3.73 3.05.0 3.72.08 26.23.08 38.15.0 10.58-6.97 1.31-7.86.57"/><path id="kvg:09752-s7" kvg:type="㇐a" d="M39.2 67.61c5.93-.23 24.72-2.4 32.25-2.4"/><path id="kvg:09752-s8" kvg:type="㇐a" d="M39.12 79.23c5.88-.35 24.26-1.98 32.13-2.31"/></g></g></g></svg>