<!DOCTYPE svg PUBLIC "-//W3C//DTD SVG 1.0//EN" "http://www.w3.org/TR/2001/REC-SVG-20010904/DTD/svg10.dtd" [
<!ATTLIST g
xmlns:kvg CDATA #FIXED "http://kanjivg.tagaini.net"
kvg:element CDATA #IMPLIED
kvg:variant CDATA #IMPLIED
kvg:partial CDATA #IMPLIED
kvg:original CDATA #IMPLIED
kvg:part CDATA #IMPLIED
kvg:number CDATA #IMPLIED
kvg:tradForm CDATA #IMPLIED
kvg:radicalForm CDATA #IMPLIED
kvg:position CDATA #IMPLIED
kvg:radical CDATA #IMPLIED
kvg:phon CDATA #IMPLIED >
<!ATTLIST path
xmlns:kvg CDATA #FIXED "http://kanjivg.tagaini.net"
kvg:type CDATA #IMPLIED >
]><svg xmlns="http://www.w3.org/2000/svg" width="109" height="109" viewBox="0 0 109 109"><g id="kvg:StrokePaths_0975e" style="fill:none;stroke:#000000;stroke-width:3;stroke-linecap:round;stroke-linejoin:round;"><g id="kvg:0975e" kvg:element="非" kvg:radical="general"><g id="kvg:0975e-g1" kvg:position="left"><path id="kvg:0975e-s1" kvg:type="㇓" d="M42.12 14.75c.75.75 1.43 2.23 1.46 3.25 1.55 50.38-.2 64.5-14.08 80.75"/><path id="kvg:0975e-s2" kvg:type="㇐c" d="M20.75 35.75c1.75.38 3.23.36 4.75.25 3.38-.25 9.25-1.25 15-2.5"/><path id="kvg:0975e-s3" kvg:type="㇐c" d="M20.25 52.5c1.38.25 3.24.19 4.75.0 3-.38 11.12-2.12 16-3.5"/><path id="kvg:0975e-s4" kvg:type="㇀" d="M14.25 72.66c.98.98 2.35 1.24 3.83.65 4.17-1.68 17.34-6.63 21.55-8.18"/></g><g id="kvg:0975e-g2" kvg:position="right"><path id="kvg:0975e-s5" kvg:type="㇑" d="M64.37 12.25c1 1 1.46 2.5 1.46 4 0 .85-.11 51.5-.11 73.25.0 4.36-.07 7.43-.11 8.5"/><path id="kvg:0975e-s6" kvg:type="㇐b" d="M69.25 30c4.5-.38 14.5-2.25 18.25-3.25 1.21-.32 2.75-.38 4.25-.12"/><path id="kvg:0975e-s7" kvg:type="㇐b" d="M69.12 47c4.38-.12 14.62-2.12 18-2.75 1.23-.23 2.62-.38 4-.12"/><path id="kvg:0975e-s8" kvg:type="㇐b" d="M69 67.88c4.5-.38 18.62-2.62 22-3.25 1.23-.23 2.62-.38 4-.12"/></g></g></g><g id="kvg:StrokeNumbers_0975e" style="font-size:8;fill:#808080"><text transform="matrix(1 0 0 1 34.50 14.50)">1</text><text transform="matrix(1 0 0 1 12.50 37.55)">2</text><text transform="matrix(1 0 0 1 12.50 54.50)">3</text><text transform="matrix(1 0 0 1 5.25 75.50)">4</text><text transform="matrix(1 0 0 1 55.50 12.50)">5</text><text transform="matrix(1 0 0 1 70.50 26.50)">6</text><text transform="matrix(1 0 0 1 70.55 43.48)">7</text><text transform="matrix(1 0 0 1 70.52 64.40)">8</text></g></svg>