<!DOCTYPE svg PUBLIC "-//W3C//DTD SVG 1.0//EN" "http://www.w3.org/TR/2001/REC-SVG-20010904/DTD/svg10.dtd" [
<!ATTLIST g
xmlns:kvg CDATA #FIXED "http://kanjivg.tagaini.net"
kvg:element CDATA #IMPLIED
kvg:variant CDATA #IMPLIED
kvg:partial CDATA #IMPLIED
kvg:original CDATA #IMPLIED
kvg:part CDATA #IMPLIED
kvg:number CDATA #IMPLIED
kvg:tradForm CDATA #IMPLIED
kvg:radicalForm CDATA #IMPLIED
kvg:position CDATA #IMPLIED
kvg:radical CDATA #IMPLIED
kvg:phon CDATA #IMPLIED >
<!ATTLIST path
xmlns:kvg CDATA #FIXED "http://kanjivg.tagaini.net"
kvg:type CDATA #IMPLIED >
]><svg xmlns="http://www.w3.org/2000/svg" width="109" height="109" viewBox="0 0 109 109"><g id="kvg:StrokePaths_09766" style="fill:none;stroke:#000000;stroke-width:3;stroke-linecap:round;stroke-linejoin:round;"><g id="kvg:09766" kvg:element="靦"><g id="kvg:09766-g1" kvg:element="面" kvg:position="left" kvg:radical="general"><path id="kvg:09766-s1" kvg:type="㇐" d="M9.06 17.68c1.28.35 3.63.35 4.91.35 8.54-.03 18.78-1.28 32.36-2.52 2.12-.19 3.42.17 4.48.34"/><path id="kvg:09766-s2" kvg:type="㇒" d="M29.29 17.64c.02.37.04.96-.03 1.5-.41 3.16-2.77 10.09-5.99 14.33"/><path id="kvg:09766-s3" kvg:type="㇑" d="M11 33.88c.55 1.08 1.27 2.39 1.37 3.81 1.09 14.94.96 34.92 1.72 54.56"/><path id="kvg:09766-s4" kvg:type="㇕a" d="M12.41 35.75c9.02-1.45 27.37-2.69 33.12-3.01 2.38-.13 3.63.95 3.45 4.04-.72 12.77-.95 37.99-2.66 53.27"/><path id="kvg:09766-s5" kvg:type="㇑a" d="M23.34 36.07c.55.91 1.1 2.43 1.1 3.64s-.26 48.86-.26 48.86"/><path id="kvg:09766-s6" kvg:type="㇑a" d="M35.53 35.62c.37 1.47.74 2.36.74 3.54s-.86 45.99-.86 48.93"/><path id="kvg:09766-s7" kvg:type="㇐a" d="M24.75 50.79c1.2.0 9.83-.53 11.03-.53"/><path id="kvg:09766-s8" kvg:type="㇐a" d="M25.12 66.92c2.08-.26 9.07-.27 10.79-.4"/><path id="kvg:09766-s9" kvg:type="㇐a" d="M14.31 89.51c4.94-.01 29.56-1.54 31.39-1.54"/></g><g id="kvg:09766-g2" kvg:element="見" kvg:position="right"><g id="kvg:09766-g3" kvg:element="目" kvg:position="top"><path id="kvg:09766-s10" kvg:type="㇑" d="m66.519044 16.857119c.583095.883025.716721 1.931617.716721 3.237758.0 1.030196.04252 25.230602-.01215 36.121244-.01215 2.869832-.01215 4.792251.01215 5.058998"/><path id="kvg:09766-s11" kvg:type="㇕a" d="m67.824933 18.411611c5.606211-1.168169 13.502282-2.437517 18.889832-3.357335 1.816096-.312738 2.587482.929016 2.587482 3.265353.0 2.299545-.06074 25.828483-.08503 35.8361-.0061 2.67667-.01215 4.369135-.01215 4.405928"/><path id="kvg:09766-s12" kvg:type="㇐a" d="m67.940337 31.243069c4.4218-.551891 15.202974-2.741057 20.590524-3.108984"/><path id="kvg:09766-s13" kvg:type="㇐a" d="m67.952485 43.688203c5.174964-.579485 14.662397-2.308742 20.493342-2.869831"/><path id="kvg:09766-s14" kvg:type="㇐a" d="M67.861376 57.513064C73.807725 56.905985 82.2383 55.526258 88.354718 55.093944"/></g><g id="kvg:09766-g4" kvg:element="儿" kvg:position="bottom"><path id="kvg:09766-s15" kvg:type="㇒" d="m72.283176 64.034572c.157922 1.379727.0061 2.750255-.24903 3.716064-1.639953 6.282356-8.400205 19.159804-17.255952 25.635321"/><path id="kvg:09766-s16" kvg:type="㇟" d="m79.875553 59.085953c.649907.984205.807828 2.382328.838198 4.074792.121478 7.533308.02429 5.702871.02429 16.740684.0 9.308556.74709 10.605499 11.261013 10.605499 11.425016.0 12.032396-1.407321 12.032396-9.308556"/></g></g></g></g><g id="kvg:StrokeNumbers_09766" style="font-size:8;fill:#808080"><text transform="matrix(1 0 0 1 3.50 18.50)">1</text><text transform="matrix(1 0 0 1 20.50 26.50)">2</text><text transform="matrix(1 0 0 1 5.25 41.50)">3</text><text transform="matrix(1 0 0 1 14.50 32.50)">4</text><text transform="matrix(1 0 0 1 18.50 43.50)">5</text><text transform="matrix(1 0 0 1 29.50 41.25)">6</text><text transform="matrix(1 0 0 1 27.50 47.50)">7</text><text transform="matrix(1 0 0 1 27.50 63.50)">8</text><text transform="matrix(1 0 0 1 17.25 86.50)">9</text><text transform="matrix(1 0 0 1 53.50 23.50)">10</text><text transform="matrix(1 0 0 1 60.50 12.50)">11</text><text transform="matrix(1 0 0 1 67.50 26.50)">12</text><text transform="matrix(1 0 0 1 67.55 41.50)">13</text><text transform="matrix(1 0 0 1 67.38 55.50)">14</text><text transform="matrix(1 0 0 1 59.50 72.50)">15</text><text transform="matrix(1 0 0 1 70.50 80.50)">16</text></g></svg>