<svg xmlns="http://www.w3.org/2000/svg" width="109" height="109" viewBox="0 0 109 109"><g id="kvg:StrokePaths_09762" style="fill:none;stroke:#000000;stroke-width:3;stroke-linecap:round;stroke-linejoin:round;"><g id="kvg:09762" kvg:element="面" kvg:radical="general"><path id="kvg:09762-s1" kvg:type="㇐" d="M21.75 20.2c5 .8 8.29.3 12.11-.07C44.6 19.09 64.08 17.33 78 16.86c3.2-.11 6.35-.25 9.5.43"/><path id="kvg:09762-s2" kvg:type="㇒" d="M51.63 22.5c.03.4.06 1.04-.06 1.61-.59 2.9-3.57 8.76-7.81 13.25"/><path id="kvg:09762-s3" kvg:type="㇑" d="M15 40.23c1.51 1.51 2.38 3.27 2.53 4.95 1.11 12.15 2.13 25.88 3.37 41.69.13 1.68.27 3.39.41 5.13"/><path id="kvg:09762-s4" kvg:type="㇕a" d="M18.1 42.54c19.52-1.92 57.1-5.26 68.83-5.55 4.85-.12 6.97 2.37 6.54 6.13-1.33 11.55-3.4 25.85-6.28 40.79-.3 1.56-.61 3.13-.93 4.71"/><path id="kvg:09762-s5" kvg:type="㇑a" d="M38.75 42.5c.88.88 1.47 2.37 1.5 3.75.25 11 .75 27 1 39.5"/><path id="kvg:09762-s6" kvg:type="㇑a" d="M64.5 40c.88.88 1.55 2.75 1.5 3.75-.38 7-1.38 32.25-1.75 40.75"/><path id="kvg:09762-s7" kvg:type="㇐a" d="M41.75 55c2.5.0 20-1.75 22.5-1.75"/><path id="kvg:09762-s8" kvg:type="㇐a" d="M42 70.75c4.25-.5 18-1.5 21.5-1.75"/><path id="kvg:09762-s9" kvg:type="㇐a" d="M21.75 88c15.12-.88 51.38-2.62 63.75-3"/></g></g></svg>