<svg xmlns="http://www.w3.org/2000/svg" width="109" height="109" viewBox="0 0 109 109"><g id="kvg:StrokePaths_09761"><g id="kvg:09761" kvg:element="靡"><g id="kvg:09761-g1" kvg:element="麻" kvg:variant="true" kvg:position="tare" kvg:radical="nelson"><g id="kvg:09761-g2" kvg:element="广" kvg:position="tare"><path id="kvg:09761-s1" kvg:type="㇑a" d="M51.46 8.63c.81.4 2.02 2.52 2.18 3.32.16.81.08 1.87-.08 6.9"/><g id="kvg:09761-g3" kvg:element="厂"><path id="kvg:09761-s2" kvg:type="㇐" d="M21.78 21.45c1.62.57 4.59.73 6.2.57C43.25 20.5 65 17.5 81.65 16.57c2.69-.15 4.31.27 5.66.55"/><path id="kvg:09761-s3" kvg:type="㇒" d="M25.46 22.35c.05 1.54.11 3.99-.1 6.21C24.09 41.64 23 74.25 7.56 87.47"/></g></g><g id="kvg:09761-g4" kvg:element="林" kvg:variant="true"><g id="kvg:09761-g5" kvg:element="木" kvg:variant="true"><path id="kvg:09761-s4" kvg:type="㇐" d="M31.33 34.72c.51.21 2.04.62 3.41.5 5.52-.47 10.77-1.72 15.86-2.58 1.35-.23 2.38-.13 3.24.08"/><path id="kvg:09761-s5" kvg:type="㇑" d="M41.78 26.68c.76.3 1.22 1.34 1.37 1.94s0 20.33-.15 24.07"/><path id="kvg:09761-s6" kvg:type="㇒" d="M35.34 41.17c.02.29.03.75-.03 1.17-.37 2.46-2.52 7.86-5.46 11.16"/><path id="kvg:09761-s7" kvg:type="㇔/㇏" d="M50.62 37.8c.63.25 1.01 1.11 1.13 1.6.13.49.0 7.93-.12 11.01"/></g><g id="kvg:09761-g6" kvg:element="木" kvg:variant="true"><path id="kvg:09761-s8" kvg:type="㇐" d="M58.21 32.3c.52.21 1.64.33 3.01.21 4.85-.42 12.81-1.87 22.28-2.92 1.37-.15 2.57-.21 3.43.0"/><path id="kvg:09761-s9" kvg:type="㇑" d="M71.43 22.53c.91.36 1.46 1.62 1.65 2.33.18.72.0 21.17-.18 25.66"/><path id="kvg:09761-s10" kvg:type="㇒" d="M64.31 37.95c.02.28-.03.73-.03 1.14-.02 2.9-1.02 7.65-6.15 10.94"/><path id="kvg:09761-s11" kvg:type="㇟/㇏" d="M81.08 34.97c.77.27 1.37 1.75 1.38 2.37.05 2.73-.15 5.81-.15 7.67.0 3.3 2.48 3.86 4.92 3.85 3.37-.02 5.65-.44 5.65-3.04"/></g></g></g><g id="kvg:09761-g7" kvg:element="非" kvg:position="tarec" kvg:radical="tradit"><g id="kvg:09761-g8" kvg:position="left"><path id="kvg:09761-s12" kvg:type="㇓" d="M47.69 55.82c.91.26.96 2.17 1.14 2.7.08.22.09 2.44.06 10.9C48.86 80.78 48.34 92.96 37.02 1e2"/><path id="kvg:09761-s13" kvg:type="㇐" d="M29.42 63.79c1.5.21 3.13.61 4.58.5 1.45-.11 12.77-1.29 14.45-1.63"/><path id="kvg:09761-s14" kvg:type="㇐" d="M27.57 76.16c1.05.0 2.77.61 3.81.5s14.22-2.02 17.01-2.36"/><path id="kvg:09761-s15" kvg:type="㇐" d="M24.03 89.4c1.05.78 2.48 1.26 4.21.78 1.02-.28 11.94-4.59 16.28-5.96"/></g><g id="kvg:09761-g9" kvg:position="right"><path id="kvg:09761-s16" kvg:type="㇑" d="M61.35 53.75c.92.27 1.46 1.23 1.65 1.78.18.55.0 41.46-.18 44.88"/><path id="kvg:09761-s17" kvg:type="㇐" d="M63.4 61.57c4.9-.24 17-2.04 20.68-2.44 1.34-.15.41-.08 2.72-.08"/><path id="kvg:09761-s18" kvg:type="㇐" d="M63.81 74.81c4.9-.24 14.55-1.71 18.22-2.12 1.34-.15.41-.08 2.72-.08"/><path id="kvg:09761-s19" kvg:type="㇐" d="M63.68 87.91c4.9-.24 19.4-1.21 23.07-1.62 1.34-.15.41-.08 2.72-.08"/></g></g></g></g></svg>