<svg xmlns="http://www.w3.org/2000/svg" width="109" height="109" viewBox="0 0 109 109"><g id="kvg:StrokePaths_0977a"><g id="kvg:0977a" kvg:element="靺"><g id="kvg:0977a-g1" kvg:element="革" kvg:position="left" kvg:radical="general"><g id="kvg:0977a-g2" kvg:element="廿" kvg:position="top"><g id="kvg:0977a-g3" kvg:element="十"><path id="kvg:0977a-s1" kvg:type="㇐" d="M10.4 25.23c.87.37 2.46.44 3.33.37 4.54-.34 20.76-1.6 30.68-3.24 1.43-.24 2.32.18 3.04.36"/><path id="kvg:0977a-s2" kvg:type="㇑" d="M17.35 15.46c.47.33 1.25 1.98 1.34 2.64.81 5.9 1.23 10.94 1.73 18.4"/></g><path id="kvg:0977a-s3" kvg:type="㇑a" d="M36.05 11c.52.37 1 1.63.93 2.37-.72 7.6-.36 10.44-1.73 20.65"/><path id="kvg:0977a-s4" kvg:type="㇐b" d="M22.33 35.75c1.77.0 13.68-1.23 15.27-1.37"/></g><g id="kvg:0977a-g4" kvg:position="bottom"><path id="kvg:0977a-s5" kvg:type="㇑" d="M12.12 45.05c.3.51.61.93.74 1.56 1.05 5.01 1.93 8.09 2.65 17.1"/><path id="kvg:0977a-s6" kvg:type="㇕" d="M13.4 46.23c8.9-1.83 24.79-3.25 28.6-3.96 1.4-.26 2.58 1.56 2.33 3.07-.5 3.1-1.85 7.36-2.94 12.75"/><path id="kvg:0977a-s7" kvg:type="㇐" d="M15.28 61.47c4.48-.8 20.11-2.06 27.51-2.59"/><path id="kvg:0977a-s8" kvg:type="㇐" d="M9.75 75.7c.86.54 2.92.49 3.79.54 4.71.26 19.46-1.99 30.45-3.73 1.41-.22 2.29.26 3.01.53"/><path id="kvg:0977a-s9" kvg:type="㇑" d="M27.96 37.25c.36 1 .54 2.23.54 3.25.0 8.5.0 52.25-.12 58.5"/></g></g><g id="kvg:0977a-g5" kvg:element="末" kvg:position="right"><path id="kvg:0977a-s10" kvg:type="㇐" d="M47.93 31.4c1.08.49 3.05.58 4.13.49 5.44-.45 33.03-3.86 39.36-4.07 1.79-.06 2.87.23 3.77.48"/><g id="kvg:0977a-g6" kvg:element="木"><path id="kvg:0977a-s11" kvg:type="㇐" d="M51.42 49.69c.66.28 2.44.42 4.21.28 9.36-.73 24.39-2.64 33.93-3.21 1.77-.11 2.22-.28 3.32.0"/><path id="kvg:0977a-s12" kvg:type="㇑" d="M68.3 12c1.2.48 1.92 2.15 2.15 3.11s0 77.9-.24 83.89"/><path id="kvg:0977a-s13" kvg:type="㇒" d="M70.16 48.8c-4.88 12.96-17.57 31.31-27.72 38.65"/><path id="kvg:0977a-s14" kvg:type="㇏" d="M70.34 53.06c3.55 4.6 19.13 26.36 22.99 30.88 1.31 1.53 2.43 2.19 3.74 2.63"/></g></g></g></g></svg>