<svg xmlns="http://www.w3.org/2000/svg" width="109" height="109" viewBox="0 0 109 109"><g id="kvg:StrokePaths_09774"><g id="kvg:09774" kvg:element="靴"><g id="kvg:09774-g1" kvg:element="革" kvg:position="left" kvg:radical="general"><g id="kvg:09774-g2" kvg:element="廿" kvg:position="top"><g id="kvg:09774-g3" kvg:element="十"><path id="kvg:09774-s1" kvg:type="㇐" d="M9.96 28.67c2.04.45 4 .2 5.43.01 6.35-.84 19.94-2.72 27.47-3.37 1.75-.15 3.58-.4 5.28.18"/><path id="kvg:09774-s2" kvg:type="㇑" d="M19.15 17.25c1.05 1.05 1.5 1.91 1.63 3.1.3 2.78.69 9.92 1.19 15.62.15 1.72.29 3.38.4 4.86"/></g><path id="kvg:09774-s3" kvg:type="㇑a" d="M37.48 13.75c.88.88 1.21 2.15 1.08 3.25-.43 3.7-1.47 8.96-2.82 18.79"/><path id="kvg:09774-s4" kvg:type="㇐b" d="M23.52 38.76c2.61-.14 6.24-.86 10.28-1.43 1.77-.25 3.19-.45 3.75-.49"/></g><g id="kvg:09774-g4" kvg:position="bottom"><path id="kvg:09774-s5" kvg:type="㇑" d="M14.12 48.64c.81.81 1.4 1.98 1.48 3.1.56 2.73.95 5.36 1.74 9.5.25 1.32.52 2.75.81 4.3"/><path id="kvg:09774-s6" kvg:type="㇕b" d="M16.39 50.01c6.87-1.07 17.43-2.39 22.28-3.12 2.56-.38 4.38-.07 3.72 3.11-.48 2.34-1.65 5.32-2.4 9.07"/><path id="kvg:09774-s7" kvg:type="㇐b" d="M18.88 62.78c2.8-.5 12.16-1.62 18.36-2.5 1.69-.24 3.13-.44 4.1-.58"/><path id="kvg:09774-s8" kvg:type="㇐" d="M10.81 75.04c1.82.71 4.3.6 6.09.29 7.14-1.25 16.74-2.72 23.47-3.46 1.54-.17 3.01-.25 4.58.09"/><path id="kvg:09774-s9" kvg:type="㇑" d="M27.99 40.41c.62.45 1.12 2.04 1.12 2.95.0 3.95-.04 29.24-.05 45.89.0 2.37.0 4.57.0 6.5"/></g></g><g id="kvg:09774-g5" kvg:element="化" kvg:position="right" kvg:phon="化"><g id="kvg:09774-g6" kvg:element="亻" kvg:variant="true" kvg:original="人" kvg:position="left"><path id="kvg:09774-s10" kvg:type="㇒" d="M59.7 22.51c.43 1.37.41 2.73-.13 4.41C56.25 37.25 52.5 48 44.25 62.18"/><path id="kvg:09774-s11" kvg:type="㇑" d="M53.12 48.59c1.09 1.09 1.51 2.54 1.51 4.66.0 7.92.02 26.38.03 36.13.0 2.26.0 4.04.0 5.12"/></g><g id="kvg:09774-g7" kvg:element="匕" kvg:position="right"><path id="kvg:09774-s12" kvg:type="㇒" d="M92.47 35.82c0 1.57-.37 2.62-1.51 4.04C86.88 45 81.88 49.88 75.25 54.12"/><path id="kvg:09774-s13" kvg:type="㇟" d="M70.84 19.5c.83.83 1.38 2.25 1.38 3.53.0 1.1-.09 36.24-.09 53.34.0 14.5 1 15.48 12.25 15.48 9.5.0 10.62-1.22 10.62-11.65"/></g></g></g></g></svg>