<svg xmlns="http://www.w3.org/2000/svg" width="109" height="109" viewBox="0 0 109 109"><g id="kvg:StrokePaths_0978f"><g id="kvg:0978f" kvg:element="鞏"><g id="kvg:0978f-g1" kvg:position="top"><g id="kvg:0978f-g2" kvg:element="工" kvg:position="left"><path id="kvg:0978f-s1" kvg:type="㇐" d="M16.01 14.85c.71.25 3 .27 3.72.25 4.74-.12 18.25-2.14 24.51-2.85 1.07-.12 2.08.05 2.98.26"/><path id="kvg:0978f-s2" kvg:type="㇑a" d="M29.94 14.43c1.59 1.34 1.59 2.15 1.59 3.22.0 4.44-.05 9.35-.05 11.47"/><path id="kvg:0978f-s3" kvg:type="㇐" d="M15.54 32.81c.38.46 2.25.66 2.9.45C25.39 31 39.61 26.7 45 25.13"/></g><g id="kvg:0978f-g3" kvg:element="凡" kvg:position="right"><g id="kvg:0978f-g4" kvg:element="几"><g id="kvg:0978f-g5" kvg:element="丿"><path id="kvg:0978f-s4" kvg:type="㇒" d="M58.91 10.89c.25.55.64.98.61 1.66-.31 7.19-.31 14.4-7.44 20.45"/></g><path id="kvg:0978f-s5" kvg:type="㇈b" d="M59.77 12.07c2.44-.25 15.47-2.44 17.43-2.69 1.95-.25 2.86 1.19 2.58 2.52-.68 3.21-1.63 9.1-1.63 12.81.0 3.05.31 6.67 7.8 6.67 9.55.0 8.27-4.88 8.27-8.13"/></g><g id="kvg:0978f-g6" kvg:element="丶"><path id="kvg:0978f-s6" kvg:type="㇔" d="M64.5 18.46c3.8 2.27 5.96 4.68 7.14 6.81"/></g></g></g><g id="kvg:0978f-g7" kvg:element="革" kvg:position="bottom" kvg:radical="general"><g id="kvg:0978f-g8" kvg:element="廿" kvg:position="top"><g id="kvg:0978f-g9" kvg:element="十"><path id="kvg:0978f-s7" kvg:type="㇐" d="M19.31 43.98c1.54.4 4.35.47 5.89.4 8.02-.36 42.24-4.04 59.12-4.21 2.56-.03 4.1.19 5.38.39"/><path id="kvg:0978f-s8" kvg:type="㇑" d="M36.83 35.5c.94.27 1.5 1.23 1.69 1.77C38.71 37.82 40 47.59 41 53.77"/></g><path id="kvg:0978f-s9" kvg:type="㇑a" d="M68.8 31.75c.49.3.94 1.34.88 1.95-.35 3.25-1.38 8.54-2.68 16.94"/><path id="kvg:0978f-s10" kvg:type="㇐b" d="M42.83 52.41c3.57.0 23.01-1.52 26.22-1.64"/></g><g id="kvg:0978f-g10" kvg:position="bottom"><path id="kvg:0978f-s11" kvg:type="㇑" d="M24 61.76c.5.34 1.02.63 1.24 1.06 1.75 3.39 2.34 8.02 3.54 14.11"/><path id="kvg:0978f-s12" kvg:type="㇕" d="M26.14 62.92c14.86-1.24 48.67-4.29 55.05-4.77 2.33-.17 2.8 2.05 2.4 3.07-.84 2.09-1.59 5.73-3.42 9.38"/><path id="kvg:0978f-s13" kvg:type="㇐" d="M28.79 74.96c7.49-.54 44.21-3.28 53.71-3.82"/><path id="kvg:0978f-s14" kvg:type="㇐" d="M15.75 85.56c1.9.49 5.38.64 7.27.49 11.78-.9 43.63-4.08 65.09-4.3 3.16-.03 5.06.24 6.64.48"/><path id="kvg:0978f-s15" kvg:type="㇑" d="M52.37 53.73c1.09.39 1.74 1.74 1.96 2.51.22.77.0 40.69-.22 45.52"/></g></g></g></g></svg>