<svg xmlns="http://www.w3.org/2000/svg" width="109" height="109" viewBox="0 0 109 109"><g id="kvg:StrokePaths_0978b"><g id="kvg:0978b" kvg:element="鞋"><g id="kvg:0978b-g1" kvg:element="革" kvg:position="left" kvg:radical="general"><g id="kvg:0978b-g2" kvg:element="廿" kvg:position="top"><g id="kvg:0978b-g3" kvg:element="十"><path id="kvg:0978b-s1" kvg:type="㇐" d="M9.65 25.22c.9.51 3.04.54 3.95.51C21 25.5 39.75 23 48.3 21.36c1.47-.28 1.9-.26 2.65.0"/><path id="kvg:0978b-s2" kvg:type="㇑" d="M20.6 14.93c.57.36.91 1.62 1.02 2.34s1.5 14.13 2.11 22.28"/></g><path id="kvg:0978b-s3" kvg:type="㇑a" d="M38.67 12.5c.57.36 1.1 1.61 1.02 2.34-.41 3.89.0 8.79-1.6 20.44"/><path id="kvg:0978b-s4" kvg:type="㇐b" d="M24.15 37.62c2.16.0 14.41-1.87 16.36-2.03"/></g><g id="kvg:0978b-g4" kvg:position="bottom"><path id="kvg:0978b-s5" kvg:type="㇑" d="M15.05 48.56c.25.43.51.78.62 1.31.88 4.22 1.89 9.09 3.36 17.04"/><path id="kvg:0978b-s6" kvg:type="㇕" d="M16.13 49.7c8.87-.95 25.92-3.22 29.48-3.85 1.3-.23 2.41 1.37 2.18 2.69-.47 2.72-1.73 6.34-2.75 11.08"/><path id="kvg:0978b-s7" kvg:type="㇐" d="M19.65 63.97c4.19-.7 21.38-2.95 26.69-3.66"/><path id="kvg:0978b-s8" kvg:type="㇐" d="M10.78 75.78c1.03.58 2.9.62 3.94.58 8.08-.34 23.01-2.5 32-3.42 1.7-.17 2.74-.28 3.59.01"/><path id="kvg:0978b-s9" kvg:type="㇑" d="M30.42 39.36c.66.48 1.05 2.16 1.19 3.12.13.96.0 49.53-.13 55.52"/></g></g><g id="kvg:0978b-g5" kvg:element="圭" kvg:position="right"><g id="kvg:0978b-g6" kvg:element="土" kvg:position="top"><path id="kvg:0978b-s10" kvg:type="㇐" d="M54.55 31.74c.95.48 2.7.55 3.66.48 9-.61 18.15-2.87 30.5-3.3 1.59-.06 2.55.23 3.34.47"/><path id="kvg:0978b-s11" kvg:type="㇑a" d="M70.95 13.37c.13.32 1.91 1.65 1.91 3.66.0 12.97.15 12.71.15 29.86"/><path id="kvg:0978b-s12" kvg:type="㇐" d="M54.2 48.15c1.44.51 3.08.58 4.53.51C67.25 48.25 82 46 91.45 45.63c2.4-.09 3.33.24 4.55.5"/></g><g id="kvg:0978b-g7" kvg:element="土" kvg:position="bottom"><path id="kvg:0978b-s13" kvg:type="㇐" d="M55.32 71.46c.98.38 2.76.49 3.74.38C69 70.75 79 69.5 90.09 68.69c1.62-.12 2.6.18 3.41.37"/><path id="kvg:0978b-s14" kvg:type="㇑a" d="M72.1 54.32c.12.28 1.68 1.45 1.68 3.22.0 11.39.13 17.64.13 32.7"/><path id="kvg:0978b-s15" kvg:type="㇐" d="M50.3 93.01c1.44.51 3.09.64 4.53.51 11.92-1.02 24.36-2.86 40.33-3.54 2.4-.1 3.34.25 4.55.5"/></g></g></g></g></svg>