<svg xmlns="http://www.w3.org/2000/svg" width="109" height="109" viewBox="0 0 109 109"><g id="kvg:StrokePaths_09784"><g id="kvg:09784" kvg:element="鞄"><g id="kvg:09784-g1" kvg:element="革" kvg:position="left" kvg:radical="general"><g id="kvg:09784-g2" kvg:element="廿" kvg:position="top"><g id="kvg:09784-g3" kvg:element="十"><path id="kvg:09784-s1" kvg:type="㇐" d="M12.4 27.88c.62.27 1.77.31 2.4.27 3.27-.24 25.84-3.71 32.72-3.83 1.04-.02 1.67.13 2.19.26"/><path id="kvg:09784-s2" kvg:type="㇑" d="M21.35 17.96c.47.33.75 1.48.84 2.14C23 26 23.92 32.04 24.42 39.5"/></g><path id="kvg:09784-s3" kvg:type="㇑a" d="M39.06 15.25c.46.33.9 1.47.84 2.14-.65 6.86-.83 9.42-2.07 18.63"/><path id="kvg:09784-s4" kvg:type="㇐b" d="M26.33 37.25c1.77.0 11.68-1.23 13.27-1.37"/></g><g id="kvg:09784-g4" kvg:position="bottom"><path id="kvg:09784-s5" kvg:type="㇑" d="M16.26 47.6c.29.47.58.86.7 1.45.99 4.66 1.83 6.53 2.5 14.91"/><path id="kvg:09784-s6" kvg:type="㇕" d="M17.48 48.71c8.4-1.71 23.42-3.03 27.02-3.69 1.32-.24 2.43 1.45 2.2 2.85-.47 2.88-1.75 5.38-2.78 10.4"/><path id="kvg:09784-s7" kvg:type="㇐" d="M19.25 61.88c4.23-.75 19-2.38 25.98-2.88"/><path id="kvg:09784-s8" kvg:type="㇐" d="M12.75 74.2c.86.54 2.43.67 3.29.54 6.96-.99 21.23-3.49 30.95-3.73 1.43-.04 2.29.26 3.01.53"/><path id="kvg:09784-s9" kvg:type="㇑" d="M30.46 39.25C31 40 31.5 41.48 31.5 42.5c0 8.5.0 47.75-.12 54"/></g></g><g id="kvg:09784-g5" kvg:element="包" kvg:position="right"><g id="kvg:09784-g6" kvg:element="勹"><g id="kvg:09784-g7" kvg:element="丿"><path id="kvg:09784-s10" kvg:type="㇒" d="M66.31 16c.04.61.22 1.63-.08 2.46-1.96 5.41-7.29 15.58-14.62 23.49"/></g><path id="kvg:09784-s11" kvg:type="㇆" d="M61.59 32.03c.9.59 2.12.57 3.61.4 3.55-.42 19.06-3.14 22.66-3.48 1.71-.16 3.64 1.08 3.56 3.3-.24 6.66-2.66 26.02-8.62 37.58-1.92 3.72-4.14 1.98-6.27-.49"/></g><g id="kvg:09784-g8" kvg:element="己"><path id="kvg:09784-s12" kvg:type="㇕c" d="M54.56 46.09c1.18.91 2.18.85 3.91.61 5.02-.7 13.36-2.16 14.43-2.28 1.42-.15 2.53 1 2.02 3.35-.15.7-2.1 5.8-3.8 12.07"/><path id="kvg:09784-s13" kvg:type="㇐" d="M57.05 62.61c3.8-.43 11.42-1.73 16.82-2.11"/><path id="kvg:09784-s14" kvg:type="㇟" d="M55.52 47c.75 1.06.4 2.31.39 3.95-.03 5.25.13 25.2.13 29.79.0 9.96.2 12.7 19.25 12.7 17.72.0 18.86-2.94 18.86-13.97"/></g></g></g></g></svg>