<svg xmlns="http://www.w3.org/2000/svg" width="109" height="109" viewBox="0 0 109 109"><g id="kvg:StrokePaths_097c8" style="fill:none;stroke:#000000;stroke-width:3;stroke-linecap:round;stroke-linejoin:round;"><g id="kvg:097c8" kvg:element="韈"><g id="kvg:097c8-g1" kvg:element="革" kvg:position="left" kvg:radical="general"><g id="kvg:097c8-g2" kvg:element="廿" kvg:position="top"><g id="kvg:097c8-g3" kvg:element="十"><path id="kvg:097c8-s1" kvg:type="㇐" d="M9.4 24.88c.62.27 1.77.31 2.4.27 3.27-.24 21.84-3.21 28.72-3.33 1.04-.02 1.67.13 2.19.26"/><path id="kvg:097c8-s2" kvg:type="㇑" d="M17.85 13.96c.47.33.75 1.48.84 2.14.81 5.9 1.23 11.94 1.73 19.4"/></g><path id="kvg:097c8-s3" kvg:type="㇑a" d="M35.06 11.75c.46.33.9 1.47.84 2.14-.65 6.86-.33 9.42-1.57 18.63"/><path id="kvg:097c8-s4" kvg:type="㇐b" d="M20.83 34.25c1.77.0 14.18-1.73 15.77-1.87"/></g><g id="kvg:097c8-g4" kvg:position="bottom"><path id="kvg:097c8-s5" kvg:type="㇑" d="M11.76 43.86c.29.52.58.95.7 1.6.99 5.13 1.83 8.28 2.5 17.5"/><path id="kvg:097c8-s6" kvg:type="㇕" d="M12.98 45.08C22 43.5 36.4 42.25 40 41.52c1.32-.26 2.43 1.6 2.2 3.14-.47 3.17-1.25 8.02-2.28 13.54"/><path id="kvg:097c8-s7" kvg:type="㇐" d="M15.25 61.67c4.23-.82 19-2.12 25.98-2.67"/><path id="kvg:097c8-s8" kvg:type="㇐" d="M9.75 75.2c.86.54 2.43.67 3.29.54 6.96-.99 22.21-3.49 29.45-3.73 1.43-.05 2.29.26 3.01.53"/><path id="kvg:097c8-s9" kvg:type="㇑" d="M26.96 36.25c.36 1 .54 2.23.54 3.25.0 8.5.0 52.25-.12 58.5"/></g></g><g id="kvg:097c8-g5" kvg:element="蔑" kvg:position="right"><g id="kvg:097c8-g6" kvg:element="艹" kvg:variant="true" kvg:original="艸" kvg:position="top"><path id="kvg:097c8-s10" kvg:type="㇐" d="M47.51 20.55c1.49.2 2.65.3 3.88.21 9.83-.75 28.6-2.01 41.06-2.82 2.04-.13 3.27.34 4.3.69"/><path id="kvg:097c8-s11" kvg:type="㇑a" d="M57.86 11.9c1.01 1.18 1.35 1.53 1.45 2.26.49 3.71 1.8 10.08 2.09 12.55"/><path id="kvg:097c8-s12" kvg:type="㇑a" d="M80.6 10.25c.58.74.89 2.31.78 3.42-.41 3.98-2.15 7.87-2.99 12.1"/></g><g id="kvg:097c8-g7" kvg:position="bottom"><g id="kvg:097c8-g8" kvg:element="罒" kvg:variant="true" kvg:original="网"><path id="kvg:097c8-s13" kvg:type="㇑" d="M49.64 31.53c.23.21.46.39.56.66C51 34.3 51.95 40.99 52.5 44.8"/><path id="kvg:097c8-s14" kvg:type="㇕a" d="M51.07 32.96c5.05-.83 37.16-3.38 39.84-3.66.98-.1 2.31.72 2.05 1.91-.55 2.48-1.42 5.92-2.58 10.64"/><path id="kvg:097c8-s15" kvg:type="㇑a" d="M63.06 31.78c.74.25.88.85.98 1.55.37 2.56 1.06 7.08 1.18 8.32"/><path id="kvg:097c8-s16" kvg:type="㇑a" d="M76.79 30.9c.2.71.74.95.63 2.01-.28 2.75-.84 6.54-1.09 7.69"/><path id="kvg:097c8-s17" kvg:type="㇐a" d="M53.22 43.64c3.15-.31 32.8-2.62 37.13-3.1"/></g><g id="kvg:097c8-g9" kvg:element="戍"><g id="kvg:097c8-g10" kvg:element="戌" kvg:variant="true"><g id="kvg:097c8-g11" kvg:element="厂" kvg:part="1"><path id="kvg:097c8-s18" kvg:type="㇒" d="M53.77 59.46c.03.92-.04 2.36-.07 3.69-.3 12.33-3.93 30.1-11.7 35.83"/></g><g id="kvg:097c8-g12" kvg:element="戈" kvg:part="1"><g id="kvg:097c8-g13" kvg:element="弋" kvg:part="1"><g id="kvg:097c8-g14" kvg:element="厂" kvg:part="2"><path id="kvg:097c8-s19" kvg:type="㇐" d="M50.08 58.62c1.01.49 2.87.58 3.88.49 4.79-.44 24.98-2.83 35.77-3.27 1.69-.07 2.7.23 3.55.47"/></g></g></g><g id="kvg:097c8-g15" kvg:element="一" kvg:variant="true"><g id="kvg:097c8-g16" kvg:element="丶"><path id="kvg:097c8-s20" kvg:type="㇔" d="M56.98 70.96c2.84 1.2 8.01 5.78 10.6 10.57"/></g></g><g id="kvg:097c8-g17" kvg:element="戈" kvg:part="2"><g id="kvg:097c8-g18" kvg:element="弋" kvg:part="2"><path id="kvg:097c8-s21" kvg:type="㇂" d="M74.4 46.29c1.05 1.05 1.42 1.35 1.7 3.61 2.15 16.85 6.48 36.67 17.06 46.15 3.84 3.45 3.48-4.16 2.96-8.83"/></g><g id="kvg:097c8-g19" kvg:element="丿"><path id="kvg:097c8-s22" kvg:type="㇒" d="M89.47 62.3c.09.75.2 1.95-.19 3.03C87 71.71 76.13 86.94 58.15 95.51"/></g><g id="kvg:097c8-g20" kvg:element="弋" kvg:part="3"><g id="kvg:097c8-g21" kvg:element="丶"><path id="kvg:097c8-s23" kvg:type="㇔" d="M82.82 44.84c2.62 1.36 6.82 4.47 8.04 6.81"/></g></g></g></g></g></g></g></g></g></svg>