<svg xmlns="http://www.w3.org/2000/svg" width="109" height="109" viewBox="0 0 109 109"><g id="kvg:StrokePaths_097ed" style="fill:none;stroke:#000000;stroke-width:3;stroke-linecap:round;stroke-linejoin:round;"><g id="kvg:097ed" kvg:element="韭" kvg:radical="general"><g id="kvg:097ed-g1" kvg:element="非"><path id="kvg:097ed-s1" kvg:type="㇑" d="M43.37 13.75c1.09.5 1.74 2.25 1.96 3.25s0 69.75-.22 76"/><path id="kvg:097ed-s2" kvg:type="㇑" d="M61.12 11.75c1.09.5 1.74 2.25 1.96 3.25s0 70.75-.22 77"/><path id="kvg:097ed-s3" kvg:type="㇐c" d="M14.75 36.39c.94.38 2.66.38 3.6.38C26 36.75 35 35.25 41.96 34.89c1.56-.08 2.29-.14 3.29-.14"/><path id="kvg:097ed-s4" kvg:type="㇀" d="M15 55.39c.94.38 2.66.38 3.6.38 7.65-.02 16.15-2.02 23.11-2.38 1.56-.08 2.29-.14 3.29-.14"/><path id="kvg:097ed-s5" kvg:type="㇐" d="M13.5 74.39c.94.38 2.66.38 3.6.38 7.65-.02 17.15-2.02 24.61-3.38 1.54-.28 2.29-.14 3.29-.14"/><path id="kvg:097ed-s6" kvg:type="㇐b" d="M63.5 33.64c1.25.0 1.16-.01 2.1-.12 5.98-.66 19.4-1.77 25.11-2.38 1.56-.17 2.5.18 3.29.37"/><path id="kvg:097ed-s7" kvg:type="㇐b" d="M63.25 51.14c1.25.0 1.16-.01 2.1-.12 5.98-.66 19.9-1.77 25.61-2.38 1.56-.17 2.5.18 3.29.37"/><path id="kvg:097ed-s8" kvg:type="㇐b" d="M63.5 70.14c1.25.0 1.16-.01 2.1-.12 5.98-.66 20.9-1.77 26.61-2.38 1.56-.17 2.5.18 3.29.37"/></g><g id="kvg:097ed-g2" kvg:element="一"><path id="kvg:097ed-s9" kvg:type="㇐" d="M12.5 94.7c1.55.54 4.4.68 5.95.54 20.05-1.74 56.85-4.49 73.12-3.73 2.58.12 4.14.26 5.43.53"/></g></g></g></svg>