<!DOCTYPE svg PUBLIC "-//W3C//DTD SVG 1.0//EN" "http://www.w3.org/TR/2001/REC-SVG-20010904/DTD/svg10.dtd" [
<!ATTLIST g
xmlns:kvg CDATA #FIXED "http://kanjivg.tagaini.net"
kvg:element CDATA #IMPLIED
kvg:variant CDATA #IMPLIED
kvg:partial CDATA #IMPLIED
kvg:original CDATA #IMPLIED
kvg:part CDATA #IMPLIED
kvg:number CDATA #IMPLIED
kvg:tradForm CDATA #IMPLIED
kvg:radicalForm CDATA #IMPLIED
kvg:position CDATA #IMPLIED
kvg:radical CDATA #IMPLIED
kvg:phon CDATA #IMPLIED >
<!ATTLIST path
xmlns:kvg CDATA #FIXED "http://kanjivg.tagaini.net"
kvg:type CDATA #IMPLIED >
]><svg xmlns="http://www.w3.org/2000/svg" width="109" height="109" viewBox="0 0 109 109"><g id="kvg:StrokePaths_097f5" style="fill:none;stroke:#000000;stroke-width:3;stroke-linecap:round;stroke-linejoin:round;"><g id="kvg:097f5" kvg:element="韵"><g id="kvg:097f5-g1" kvg:element="音" kvg:position="left" kvg:radical="general"><g id="kvg:097f5-g2" kvg:element="立" kvg:position="top"><g id="kvg:097f5-g3" kvg:element="亠" kvg:position="top"><path id="kvg:097f5-s1" kvg:type="㇑a" d="M29.48 13.46c1.17.47 1.87 1.92 1.84 3.04-.12 4.27-.22 8.68-.09 12.3"/><path id="kvg:097f5-s2" kvg:type="㇐" d="M12.14 30.67c.89.1 2.92.12 3.8.04 7.56-.7 17.29-2.13 27.57-2.67 1.48-.08 2.35-.18 3.09-.16"/></g><g id="kvg:097f5-g4" kvg:position="bottom"><path id="kvg:097f5-s3" kvg:type="㇔" d="M18.86 33.89c2.35 2.49 4.55 9.76 5.09 12.56"/><path id="kvg:097f5-s4" kvg:type="㇒" d="M40.69 30.86c.31.89.72 2.14.61 2.52-1.07 3.84-2.73 8.54-4.44 11.59"/><path id="kvg:097f5-s5" kvg:type="㇐" d="M9.88 50.75c1.12.25 2.51.41 3.63.39 6.65-.13 20.28-2.63 31.17-3.15 1.45-.1 3.07.0 3.95.49"/></g></g><g id="kvg:097f5-g5" kvg:element="日" kvg:position="bottom"><path id="kvg:097f5-s6" kvg:type="㇑" d="M16.2 61.35c.45.78.82 1.38 1.01 2.43.82 4.63 2.73 29.68 2.73 30.76"/><path id="kvg:097f5-s7" kvg:type="㇕a" d="M18.52 62.76c2.57-.27 19.23-2.01 23.38-2.43 2.35-.24 3.33.93 3.33 2.76.0 3.06-2.79 28.4-3.18 29.72"/><path id="kvg:097f5-s8" kvg:type="㇐a" d="M19.03 76.63C26.25 76 39.44 74.95 43.37 74.73"/><path id="kvg:097f5-s9" kvg:type="㇐a" d="M20.81 93.15c5.14-.28 14.01-1.11 20.66-1.48"/></g></g><g id="kvg:097f5-g6" kvg:element="匀" kvg:position="right" kvg:phon="匀"><g id="kvg:097f5-g7" kvg:element="勹"><g id="kvg:097f5-g8" kvg:element="丿"><path id="kvg:097f5-s10" kvg:type="㇒" d="M65.8 14.75c.04.79.07 2.04-.07 3.18-.86 6.71-5.76 21.43-12.48 30.45"/></g><path id="kvg:097f5-s11" kvg:type="㇆" d="M64.54 29.92c1.46.33 3.1.17 4.6-.04C75.5 29 86 27.25 90.28 26.25c3.51-.82 5.12.3 4.78 5.19-.79 11.29-2.75 44.6-8.24 58.98-2.32 6.08-5.57 4.33-8.76-.16"/></g><g id="kvg:097f5-g9" kvg:element="冫" kvg:variant="true" kvg:original="二"><g id="kvg:097f5-g10" kvg:element="二" kvg:variant="true" kvg:position="top"><path id="kvg:097f5-s12" kvg:type="㇐" d="M59.09 51.08c.49.24 2.13.36 2.63.32 4.56-.37 11.03-1.91 15.41-2.5.61-.08 1.97-.1 2.9.11"/></g><g id="kvg:097f5-g11" kvg:position="bottom"><path id="kvg:097f5-s13" kvg:type="㇀" d="M58.337267 72.911276c.708054.522572 2.350289.413627 3.893151-.574141 4.257275-2.725583 9.500253-5.560258 18.958176-10.561457"/></g></g></g></g></g><g id="kvg:StrokeNumbers_097f5" style="font-size:8;fill:#808080"><text transform="matrix(1 0 0 1 22.75 12.50)">1</text><text transform="matrix(1 0 0 1 4.50 30.50)">2</text><text transform="matrix(1 0 0 1 12.75 40.48)">3</text><text transform="matrix(1 0 0 1 32.50 37.40)">4</text><text transform="matrix(1 0 0 1 4.52 49.57)">5</text><text transform="matrix(1 0 0 1 9.50 67.50)">6</text><text transform="matrix(1 0 0 1 19.01 60.54)">7</text><text transform="matrix(1 0 0 1 21.25 74.22)">8</text><text transform="matrix(1 0 0 1 22.25 90.22)">9</text><text transform="matrix(1 0 0 1 52.50 14.50)">10</text><text transform="matrix(1 0 0 1 69.50 25.50)">11</text><text transform="matrix(1 0 0 1 58.90 48.78)">12</text><text transform="matrix(1 0 0 1 52.30 69.86)">13</text></g></svg>