<svg xmlns="http://www.w3.org/2000/svg" width="109" height="109" viewBox="0 0 109 109"><g id="kvg:StrokePaths_097fb" style="fill:none;stroke:#000000;stroke-width:3;stroke-linecap:round;stroke-linejoin:round;"><g id="kvg:097fb" kvg:element="韻"><g id="kvg:097fb-g1" kvg:element="音" kvg:position="left" kvg:radical="general"><g id="kvg:097fb-g2" kvg:element="立" kvg:position="top"><g id="kvg:097fb-g3" kvg:element="亠" kvg:position="top"><path id="kvg:097fb-s1" kvg:type="㇑a" d="M32.43 13.71c.87.87 1.07 1.92 1.07 3.42.0 3.05-.16 5.82-.07 8.4"/><path id="kvg:097fb-s2" kvg:type="㇐" d="M16.4 28.52c1.93.22 3.5.2 5.47-.15 6.45-1.15 15.89-2.49 22.51-3.06 1.72-.15 3.33-.1 5.03-.06"/></g><g id="kvg:097fb-g4" kvg:position="bottom"><path id="kvg:097fb-s3" kvg:type="㇔" d="M23.62 34.5c1.67 1.99 3.22 7.81 3.6 10.05"/><path id="kvg:097fb-s4" kvg:type="㇒" d="M42.43 28.32c.32.8.33 2.1.2 2.52-1.23 4.32-3.14 9.41-5.1 12.84"/><path id="kvg:097fb-s5" kvg:type="㇐" d="M13.02 49.27c2.04.15 4.08.24 6.12-.1 8.86-1.48 18.77-3.34 26.73-3.98 1.7-.14 4.14-.31 5.64.04"/></g></g><g id="kvg:097fb-g5" kvg:element="日" kvg:position="bottom"><path id="kvg:097fb-s6" kvg:type="㇑" d="M19.11 57.16c.62.62.99 1.43 1.16 2.35.56 3.02 1.93 16.1 2.57 22.71.21 2.14.34 3.6.34 3.82"/><path id="kvg:097fb-s7" kvg:type="㇕a" d="M21.19 58.63c2.16-.22 15.36-2.32 20.56-3.22 2.92-.51 4.06-.09 3.96 3.09-.11 3.65-.45 15.14-.88 21.28-.15 2.14-.28 3.63-.37 3.9"/><path id="kvg:097fb-s8" kvg:type="㇐a" d="M22.86 70.34c7.02-1.34 17.82-2.92 21.36-3.11"/><path id="kvg:097fb-s9" kvg:type="㇐a" d="M24.2 83.55c5.3-.55 12.42-1.67 19.25-2.39"/></g></g><g id="kvg:097fb-g6" kvg:element="員" kvg:position="right" kvg:phon="員"><g id="kvg:097fb-g7" kvg:element="口" kvg:position="top"><path id="kvg:097fb-s10" kvg:type="㇑" d="M57.73 17.09c.63.71.97 1.55 1.04 2.51.64 2.96 1.2 7.46 1.76 11.9.14 1.14.28 2.26.39 3.33"/><path id="kvg:097fb-s11" kvg:type="㇕b" d="M59.7 18.87c5.85-.95 20.27-2.82 26.21-3.6 2.64-.35 4.23-.27 3.62 2.88-.65 3.35-1.4 5.78-2.32 10.61"/><path id="kvg:097fb-s12" kvg:type="㇐b" d="M61.8 32.99c3.19-.42 16.17-2.21 23.47-3.06 1.38-.16 2.36-.18 3.37-.18"/></g><g id="kvg:097fb-g8" kvg:element="貝" kvg:position="bottom"><g id="kvg:097fb-g9" kvg:element="目" kvg:position="top"><path id="kvg:097fb-s13" kvg:type="㇑" d="M59.02 41.48c.75.75.93 1.74.93 2.88.0.93-.05 23.14-.06 31.64.0 1.93-.01 3.15-.01 3.26"/><path id="kvg:097fb-s14" kvg:type="㇕a" d="M60.76 42.83c2.72-.14 22.47-3.19 24.95-3.38 2.55-.2 3.52 1.05 3.52 2.85.0 1.77-.07 18.01-.09 30.2.0 2.11-.01 4.1-.01 5.88"/><path id="kvg:097fb-s15" kvg:type="㇐a" d="M60.71 54.11c6.67-.61 21.04-2.36 27.43-2.56"/><path id="kvg:097fb-s16" kvg:type="㇐a" d="M61.18 64.84c7.07-.59 19.94-2.22 26.89-2.46"/><path id="kvg:097fb-s17" kvg:type="㇐a" d="M61.38 77.18c6.87-.56 18.87-1.93 26.64-2.21"/></g><g id="kvg:097fb-g10" kvg:element="八" kvg:position="bottom"><path id="kvg:097fb-s18" kvg:type="㇒" d="M67.1 82.43c.28 1.07-.12 2.15-1 3.09-2.66 2.85-9.59 9.11-14.9 12.48"/><path id="kvg:097fb-s19" kvg:type="㇔" d="M81.6 83.35c5.89 3.98 12.85 11.2 14.45 14.68"/></g></g></g></g></g></svg>