<svg xmlns="http://www.w3.org/2000/svg" width="109" height="109" viewBox="0 0 109 109"><g id="kvg:StrokePaths_097ff" style="fill:none;stroke:#000000;stroke-width:3;stroke-linecap:round;stroke-linejoin:round;"><g id="kvg:097ff" kvg:element="響"><g id="kvg:097ff-g1" kvg:element="郷" kvg:position="top" kvg:phon="郷"><g id="kvg:097ff-g2" kvg:position="left"><g id="kvg:097ff-g3" kvg:element="乡" kvg:variant="true"><path id="kvg:097ff-s1" kvg:type="㇜" d="M25.25 11.87c.32.83.36 1.9-.16 2.85-2.18 4.02-4.34 6.28-6.32 8.35-.52.54-.34 1.36.27 1.61 3.09 1.32 3.34 1.32 6.2 2.99"/><path id="kvg:097ff-s2" kvg:type="㇜" d="M34.65 17.65c.35.98.23 2.1-.45 2.91-3.15 3.76-9.82 10.26-15.45 14.94-2.21 1.84-2.18 3.77 1.17 2.72 5.08-1.59 7.71-2.34 13.56-3.55"/><path id="kvg:097ff-s3" kvg:type="㇒/㇔" d="M35.44 29.22c.22.31.58 1.46.4 2.25C34.5 37.25 30.75 45 21.21 52.51"/></g><g id="kvg:097ff-g4" kvg:element="艮" kvg:partial="true"><path id="kvg:097ff-s4" kvg:type="㇕" d="M42.61 14.18c1.39.57 3.41.69 5.13.5 3.64-.4 9.91-1.05 12.52-1.34 3.06-.35 4.24-.11 3.72 3.01-.52 3.14-.71 6.86-1.46 10.65-.2 1.01-.41 2.02-.64 3.03"/><path id="kvg:097ff-s5" kvg:type="㇐a" d="M45.87 22.3c4.63-.43 11.38-1.3 16.02-1.65"/><path id="kvg:097ff-s6" kvg:type="㇐a" d="M45.78 30.09c4.85-.59 10.47-1.21 15.5-1.53"/><path id="kvg:097ff-s7" kvg:type="㇙" d="M43.61 15.18c.73.73.96 1.82.96 2.85.0 4.34-.08 20.23-.08 23.97.0 1.38.5 1.88 2.16 1.15 2-.88 7.85-3.78 11.92-5.33"/><path id="kvg:097ff-s8" kvg:type="㇔" d="M56.75 33.65c2.28 1.71 5.87 6.29 7.17 9.91"/></g></g><g id="kvg:097ff-g5" kvg:element="⻏" kvg:variant="true" kvg:original="邑" kvg:position="right"><path id="kvg:097ff-s9" kvg:type="㇇" d="M72.39 13.71c1.36.29 2.41.31 3.35.21 4.75-.49 8.68-.98 10.95-1.46 2.72-.58 3.84 1.59 2.98 3.2-1.18 2.22-2.68 4.09-6.47 9.07"/><path id="kvg:097ff-s10" kvg:type="㇁" d="M83.21 24.72C94.75 32.5 90 47.38 81.97 41.68"/><path id="kvg:097ff-s11" kvg:type="㇑" d="M73.51 14.64c.93.93 1.28 1.99 1.28 3.15.0 2.69-.03 13.72-.04 23.09.0 1.82.0 3.52.0 5"/></g></g><g id="kvg:097ff-g6" kvg:element="音" kvg:position="bottom" kvg:radical="general"><g id="kvg:097ff-g7" kvg:element="立" kvg:position="top"><g id="kvg:097ff-g8" kvg:element="亠" kvg:position="top"><path id="kvg:097ff-s12" kvg:type="㇑a" d="M52.79 45.5c.85.86 1.22 2 1.22 3.09.0.91-.01 3.01-.01 4.04"/><path id="kvg:097ff-s13" kvg:type="㇐" d="M31.59 55.21c2.28.41 4.24.16 6.54-.1 6.42-.72 20.55-2.25 32.74-3.09 2.19-.15 4.12.1 6.3.45"/></g><g id="kvg:097ff-g9" kvg:position="bottom"><path id="kvg:097ff-s14" kvg:type="㇔" d="M39.38 57c2.42 2.56 2.91 5.02 3.26 6.82"/><path id="kvg:097ff-s15" kvg:type="㇒" d="M66.35 55.4c.1.55-.1 1.31-.19 1.5-.92 1.91-2.1 4.01-2.78 5.1"/><path id="kvg:097ff-s16" kvg:type="㇐" d="M16.25 68.2c3.25.67 6.42.67 9.37.29 20.25-2.61 39.04-4.37 57-4.95 5-.16 8.25-.04 11.12.68"/></g></g><g id="kvg:097ff-g10" kvg:element="日" kvg:position="bottom"><path id="kvg:097ff-s17" kvg:type="㇑" d="M35.03 74.06c.83.83 1.22 1.81 1.53 3.08.36 1.48 1.77 11.04 2.58 16.59.34 2.28.57 3.88.57 3.97"/><path id="kvg:097ff-s18" kvg:type="㇕a" d="M37.2 75.12c6.05-.87 29.84-3.59 32.53-3.46 2.02.09 3.77.84 3.41 3.6-.08.64-1.47 9.6-2.44 15.78-.25 1.6-.49 3.04-.69 4.15"/><path id="kvg:097ff-s19" kvg:type="㇐a" d="M38.73 84.32c8.52-.7 24.02-2.2 32.34-2.6"/><path id="kvg:097ff-s20" kvg:type="㇐a" d="M40.2 94.88c7.42-.5 18.67-1.63 29.02-2.2"/></g></g></g></g></svg>