<svg xmlns="http://www.w3.org/2000/svg" width="109" height="109" viewBox="0 0 109 109"><g id="kvg:StrokePaths_097f3" style="fill:none;stroke:#000000;stroke-width:3;stroke-linecap:round;stroke-linejoin:round;"><g id="kvg:097f3" kvg:element="音" kvg:radical="general"><g id="kvg:097f3-g1" kvg:element="立" kvg:position="top"><g id="kvg:097f3-g2" kvg:element="亠" kvg:position="top"><path id="kvg:097f3-s1" kvg:type="㇑a" d="M52.97 12.5c.77.77 1.62 2.12 1.62 3.64.0 3.86-.09 4.61-.09 9.17"/><path id="kvg:097f3-s2" kvg:type="㇐" d="M29.12 28c1.5.5 2.75.62 4.61.42 11.39-1.29 25.05-3.48 38.89-4.79 2.63-.25 5.63-.25 7.38.12"/></g><g id="kvg:097f3-g3" kvg:position="bottom"><path id="kvg:097f3-s3" kvg:type="㇔" d="M37.12 35.38c4.15 3.73 5.01 7.31 5.6 9.93"/><path id="kvg:097f3-s4" kvg:type="㇒" d="M67.79 27.5c.46.9.57 2.02.23 3.14-1.33 4.34-3.46 10.57-4.64 12.99"/><path id="kvg:097f3-s5" kvg:type="㇐" d="M12.75 50.5c3.65.66 7.11.39 10.76-.01 20.16-2.21 40.45-4.53 63.37-5.41 3.4-.13 7.17-.48 10.5.47"/></g></g><g id="kvg:097f3-g4" kvg:element="日" kvg:position="bottom"><path id="kvg:097f3-s6" kvg:type="㇑" d="M34.55 59.11c.58.74 1.08 2.24 1.08 3.25.0 1.02.12 28.46.12 28.97s0 2.04.0 3.54"/><path id="kvg:097f3-s7" kvg:type="㇕a" d="M36.1 60.79c9.52-1.16 26.02-3.04 32.08-3.68 2.95-.31 4.26.27 4.26 3.22.0.98-.11 17.98-.17 27.68-.02 3.04-.03 5.36-.03 6.25"/><path id="kvg:097f3-s8" kvg:type="㇐a" d="M36.69 74.75c5.44-.5 29.72-2.64 34.74-2.85"/><path id="kvg:097f3-s9" kvg:type="㇐a" d="M37.11 90.41c6.58-.27 25.43-2.25 33.94-2.6"/></g></g></g></svg>