<svg xmlns="http://www.w3.org/2000/svg" width="109" height="109" viewBox="0 0 109 109"><g id="kvg:StrokePaths_0980c" style="fill:none;stroke:#000000;stroke-width:3;stroke-linecap:round;stroke-linejoin:round;"><g id="kvg:0980c" kvg:element="頌"><g id="kvg:0980c-g1" kvg:element="公" kvg:position="left"><g id="kvg:0980c-g2" kvg:element="八" kvg:position="top"><path id="kvg:0980c-s1" kvg:type="㇒" d="M25.08 21.19c.35 1.16.08 2.26-.3 3.36-2.48 7.12-6.4 14.95-14.51 23.84"/><path id="kvg:0980c-s2" kvg:type="㇏" d="M35.79 20.75c3.7 2.64 10.63 14.09 12.89 22.15"/></g><g id="kvg:0980c-g3" kvg:element="厶" kvg:position="bottom"><path id="kvg:0980c-s3" kvg:type="㇜" d="M30.18 50.68c.32 1.32.13 2.93-.25 3.84-3.67 9.01-6.73 17.61-12.01 26.61-1.78 3.04-.07 4.48 2.96 3.27 6.32-2.53 13.24-5.28 22.48-8.52"/><path id="kvg:0980c-s4" kvg:type="㇔" d="M39.38 67.62c3.89 3.29 10.05 13.51 11.02 18.62"/></g></g><g id="kvg:0980c-g4" kvg:element="頁" kvg:position="right" kvg:radical="general"><g id="kvg:0980c-g5" kvg:position="top"><path id="kvg:0980c-s5" kvg:type="㇐" d="M54.6 17.9c3.03.85 5.67.51 8.04.22 9.28-1.14 18.1-1.88 26.36-2.44 2.05-.14 3.91-.23 5.91.34"/><path id="kvg:0980c-s6" kvg:type="㇒" d="M73.32 20.43c.06.74.04 1.49-.27 2.16-1.55 3.29-3.22 6.99-5.06 9.61"/></g><g id="kvg:0980c-g6" kvg:element="貝" kvg:position="bottom"><g id="kvg:0980c-g7" kvg:element="目" kvg:position="top"><path id="kvg:0980c-s7" kvg:type="㇑" d="M58.87 33.11c.95.95 1.16 1.94 1.16 3.36.0 1.09.0 21.69.0 33.79.0 3.67.0 6.46.0 7.55"/><path id="kvg:0980c-s8" kvg:type="㇕a" d="M60.58 34.39c4.26-.46 21.02-1.81 26.31-2.13 3.12-.19 3.89.95 3.85 3.99-.04 3.73-.07 22.18-.09 32.5.0 3.96-.01 6.73-.01 7"/><path id="kvg:0980c-s9" kvg:type="㇐a" d="M61.28 46.91c4.66-.46 22.32-1.57 28.04-1.56"/><path id="kvg:0980c-s10" kvg:type="㇐a" d="M61.15 60.43c6.17-.46 21.04-1.32 28.35-1.31"/><path id="kvg:0980c-s11" kvg:type="㇐a" d="M61.31 75.23c6.17-.62 20.32-1.56 28.11-1.54"/></g><g id="kvg:0980c-g8" kvg:element="八" kvg:position="bottom"><path id="kvg:0980c-s12" kvg:type="㇒" d="M66.8 81.29c0 .96-.31 2.16-1.18 3.1-3.25 3.49-8.5 7.36-16.16 11.61"/><path id="kvg:0980c-s13" kvg:type="㇔" d="M84.58 81.55c4.43 2.98 10.02 9.78 11.23 12.39"/></g></g></g></g></g></svg>