<svg xmlns="http://www.w3.org/2000/svg" width="109" height="109" viewBox="0 0 109 109"><g id="kvg:StrokePaths_09805" style="fill:none;stroke:#000000;stroke-width:3;stroke-linecap:round;stroke-linejoin:round;"><g id="kvg:09805" kvg:element="項"><g id="kvg:09805-g1" kvg:element="工" kvg:position="left" kvg:radical="nelson" kvg:phon="工"><path id="kvg:09805-s1" kvg:type="㇐" d="M16.2 35.65c1.92.6 4.5.28 6.22-.01 5.2-.89 12.33-2.14 19.04-3.69.89-.21 2.61-.26 3.36.04"/><path id="kvg:09805-s2" kvg:type="㇑a" d="M30.84 37.12c.83.83 1.07 2 1.07 3.64.0 6.12-.03 21.8-.03 26.62"/><path id="kvg:09805-s3" kvg:type="㇀/㇐" d="M17.17 73.54c1.2.83 2.29.89 3.71.21 6.24-3 13.87-7 21.73-10.93"/></g><g id="kvg:09805-g2" kvg:element="頁" kvg:position="right" kvg:radical="tradit"><path id="kvg:09805-s4" kvg:type="㇐" d="M46.52 18.04c2.85.58 5.46.28 7.99.02 9.49-.99 21.01-2.59 30.87-3.16 2.51-.15 4.89-.14 7.36.39"/><path id="kvg:09805-s5" kvg:type="㇒" d="M67.57 19.31c.1.66.0 1.28-.31 1.85-1.04 2.7-2.6 6-4.93 9.08"/><g id="kvg:09805-g3" kvg:element="貝"><g id="kvg:09805-g4" kvg:element="目" kvg:position="top"><path id="kvg:09805-s6" kvg:type="㇑" d="M53.73 32.36c.83.83.95 2 .95 3.33.0.86-.03 22.65-.04 33.3.0 2.55.0 4.45.0 5.25"/><path id="kvg:09805-s7" kvg:type="㇕a" d="M55.5 34.15c6.4-.95 19.77-2.82 25.63-3.55 3.72-.46 5.07-.13 5.08 3.9.0 4.57.02 22.01.03 31.38.0 2.88.0 5 0 5.75"/><path id="kvg:09805-s8" kvg:type="㇐a" d="M55.96 46.64C63 45.25 79.1 43.16 85.03 42.8"/><path id="kvg:09805-s9" kvg:type="㇐a" d="M55.83 58.89c6.38-.84 21.55-3.12 29.12-3.59"/><path id="kvg:09805-s10" kvg:type="㇐a" d="M55.72 71.9c10.28-1.15 21.31-2.55 29.37-3.05"/></g><g id="kvg:09805-g5" kvg:element="八" kvg:position="bottom"><path id="kvg:09805-s11" kvg:type="㇒" d="M61.3 80.74c.32 1.13-.1 2.19-.98 3.39-2.87 3.92-9.7 9.12-18.15 14.37"/><path id="kvg:09805-s12" kvg:type="㇔" d="M80.15 78.54c6.63 4.35 14.97 14.26 16.78 18.07"/></g></g></g></g></g></svg>