<svg xmlns="http://www.w3.org/2000/svg" width="109" height="109" viewBox="0 0 109 109"><g id="kvg:StrokePaths_09824" style="fill:none;stroke:#000000;stroke-width:3;stroke-linecap:round;stroke-linejoin:round;"><g id="kvg:09824" kvg:element="頤"><g id="kvg:09824-g1" kvg:position="left"><g id="kvg:09824-g2" kvg:element="匚" kvg:part="1"><path id="kvg:09824-s1" kvg:type="㇑" d="M13.43 19.93c.32 1.06.41 2.55.65 3.97.24 1.42-.44 58.808586-.44 64.308586"/><path id="kvg:09824-s2" kvg:type="㇐" d="M10.25 19.44c1.13.46 3.18.52 4.32.46C23.22 19.44 34.4 18 45.22 17c1.87-.17 3.9.22 4.83.45"/></g><path id="kvg:09824-s3" kvg:type="㇑" d="M23.5 38.61c.48.83 1.19 2.44 1.19 3.37.0 10.34-.51 16.56-.51 22.87"/><path id="kvg:09824-s4" kvg:type="㇉" d="M32.518711 20.734927c1.01975.679834 1.459674.769329 1.359668 2.039502-.352313 4.474716-.302681 9.355436-.679834 13.596673-.145451 1.635658.920351 2.249084 2.492723 2.039501 4.314117-.575032 5.343838-.765858 9.291061-1.586279 1.685291-.350284 2.741802.341819 2.606028 1.81289-.442104 4.790069-2.832639 18.128898-2.832639 18.128898"/><path id="kvg:09824-s5" kvg:type="㇐" d="M34.45 58.92c2.6-.35 7.89-1.73 12.58-2.29"/><path id="kvg:09824-s6" kvg:type="㇑" d="M32.33 56.56c.95.44 1.52 1.97 1.71 2.84.19.87.0 18.008854-.19 23.468854"/><g id="kvg:09824-g3" kvg:element="匚" kvg:part="2"><path id="kvg:09824-s7" kvg:type="㇐" d="M13.85 85c.497149.222398 3.07430999.161878 3.51573499.141038 7.4685751-.684994 20.2100001-2.12927 31.7500001-2.74927 1.22-.07 3.514287.317138 4.084287.527138"/></g></g><g id="kvg:09824-g4" kvg:element="頁" kvg:position="right" kvg:radical="general"><g id="kvg:09824-g5" kvg:position="top"><path id="kvg:09824-s8" kvg:type="㇐" d="M54.95 16.5c1.14.38 3.22.43 4.36.38 9.39-.44 27.31-2.69 34.62-2.87 1.89-.05 3.03.18 3.98.37"/><path id="kvg:09824-s9" kvg:type="㇒" d="M74.23 18.43c.01.29.02.75-.02 1.17-.23 2.47-2.56 7.88-4.39 11.2"/></g><g id="kvg:09824-g6" kvg:element="貝" kvg:position="bottom"><g id="kvg:09824-g7" kvg:element="目" kvg:position="top"><path id="kvg:09824-s10" kvg:type="㇑" d="M60.66 31.8c.48 1.08 1.19 1.88 1.19 3.32s-.32 42.41-.32 43.13"/><path id="kvg:09824-s11" kvg:type="㇕a" d="M62.65 33.23c2.73-.18 24.24-1.86 26.73-2.08 2.07-.18 3.71 1.99 3.53 3.32-.22 1.69-.96 41.25-.96 42.33"/><path id="kvg:09824-s12" kvg:type="㇐a" d="M62.61 46.32c3.9.0 23.09-.92 28.93-1.31"/><path id="kvg:09824-s13" kvg:type="㇐a" d="M62.83 60.44c9.74-.48 20.22-1.05 27.68-1.55"/><path id="kvg:09824-s14" kvg:type="㇐a" d="M62.53 75.79c6.29-1.07 20.73-1 28.68-1.54"/></g><g id="kvg:09824-g8" kvg:element="八" kvg:position="bottom"><path id="kvg:09824-s15" kvg:type="㇒" d="M67.15 81.48c.41 1.25-.2 2.59-1 3.5-2.43 2.75-7.9 8.02-14.93 11.77"/><path id="kvg:09824-s16" kvg:type="㇔" d="M81.07 79.87c6.51 4.39 14.21 12.37 15.98 16.21"/></g></g></g></g></g></svg>