<svg xmlns="http://www.w3.org/2000/svg" width="109" height="109" viewBox="0 0 109 109"><g id="kvg:StrokePaths_09837"><g id="kvg:09837" kvg:element="頷"><g id="kvg:09837-g1" kvg:element="含" kvg:position="left"><g id="kvg:09837-g2" kvg:element="今" kvg:position="top"><g id="kvg:09837-g3" kvg:element="人" kvg:position="top"><path id="kvg:09837-s1" kvg:type="㇒" d="M34.63 13.27c.07.9.32 2.4-.13 3.61-3.13 8.31-10.55 22.81-23.5 34.5"/><path id="kvg:09837-s2" kvg:type="㇔/㇏" d="M35.17 21.45C43 26 49.25 33 53.1 39.65"/></g><g id="kvg:09837-g4" kvg:position="bottom"><g id="kvg:09837-g5" kvg:element="一"><path id="kvg:09837-s3" kvg:type="㇐" d="M26.14 42.06c.28.16 1.97.17 2.24.16 2.88-.18 10.59-2.32 13.42-2.3.46.0 2.38.07 2.61.15"/></g><path id="kvg:09837-s4" kvg:type="㇇" d="M17.59 51.74c1.09.45 2.95.98 4.71.67 4.57-.81 17.85-2.91 22.73-3.95 2.89-.62 3.89.47 1.82 3.23C44.75 54.5 39.5 61.75 35.5 66.5"/></g></g><g id="kvg:09837-g6" kvg:element="口" kvg:position="bottom"><path id="kvg:09837-s5" kvg:type="㇑" d="M18.08 70.99c.35.44.72.8.87 1.35 1.23 4.34 3.35 15.3 4.19 23.1"/><path id="kvg:09837-s6" kvg:type="㇕b" d="M19.49 73.26C28.5 72 42 69.25 46.88 69.1c1.53-.05 2.57 2.24 2.21 3.46C47.6 77.7 46.82 81.5 45.24 90"/><path id="kvg:09837-s7" kvg:type="㇐b" d="M23.2 91.82c4.7-.44 18.5-1.52 24.47-1.97"/></g></g><g id="kvg:09837-g7" kvg:element="頁" kvg:position="right" kvg:radical="general"><g id="kvg:09837-g8" kvg:position="top"><path id="kvg:09837-s8" kvg:type="㇐" d="M54.45 20.34c1.25.58 3.55.77 4.78.58 7.77-1.18 24.28-2.93 32.3-3.21 2.08-.07 3.33.28 4.37.57"/><path id="kvg:09837-s9" kvg:type="㇒" d="M73.73 21.68c.01.27.02.69-.02 1.07-.26 2.26-2.85 7.23-4.89 10.27"/></g><g id="kvg:09837-g9" kvg:element="貝" kvg:position="bottom"><g id="kvg:09837-g10" kvg:element="目" kvg:position="top"><path id="kvg:09837-s10" kvg:type="㇑" d="M60.16 33.67c.45 1.01 1.11 1.76 1.11 3.11s-.3 39.98-.3 40.65"/><path id="kvg:09837-s11" kvg:type="㇕a" d="M62.03 35.51c2.56-.17 22.74-3.15 25.08-3.35 1.94-.17 3.48 1.87 3.31 3.11-.21 1.58-.4 39.23-.4 40.24"/><path id="kvg:09837-s12" kvg:type="㇐a" d="M61.99 47.27c3.66.0 21.65-1.77 27.14-2.14"/><path id="kvg:09837-s13" kvg:type="㇐a" d="M61.69 59.63c9.13-.45 20.97-.95 27.97-1.42"/><path id="kvg:09837-s14" kvg:type="㇐a" d="M61.86 75.01c5.9-1 20.51-1.84 27.96-2.35"/></g><g id="kvg:09837-g11" kvg:element="八" kvg:position="bottom"><path id="kvg:09837-s15" kvg:type="㇒" d="M68.16 79.74c.39 1.23-.22 2.56-1 3.46-2.36 2.7-9.73 8.35-14.45 11.55"/><path id="kvg:09837-s16" kvg:type="㇔" d="M82.07 79.72c5.08 4.15 11.1 11.67 12.48 15.3"/></g></g></g></g></g></svg>