<svg xmlns="http://www.w3.org/2000/svg" width="109" height="109" viewBox="0 0 109 109"><g id="kvg:StrokePaths_09838" style="fill:none;stroke:#000000;stroke-width:3;stroke-linecap:round;stroke-linejoin:round;"><g id="kvg:09838" kvg:element="頸"><g id="kvg:09838-g1" kvg:element="巠" kvg:position="left"><g id="kvg:09838-g2" kvg:element="一"><path id="kvg:09838-s1" kvg:type="㇐" d="M12.25 22.39c1.29.38 3.65.45 4.94.38 9.81-.52 19.42-2.27 28.3-2.38 2.15-.03 3.44.18 4.51.37"/></g><g id="kvg:09838-g3" kvg:element="巛"><path id="kvg:09838-s2" kvg:type="㇛" d="M19.64 28.77c.11.73.13 2.23-.1 2.89-1.46 4.25-2.86 8.15-6.72 11.96-.74.74-.36.75.0.95 4.46 2.48 7.84 6.89 10.19 11.93"/><path id="kvg:09838-s3" kvg:type="㇛" d="M33.14 27.77c.36.73.13 2.23-.1 2.89-1.46 4.25-2.79 7.6-6.72 12.46-.66.81-.36.75.0.95 4.46 2.48 7.37 6.89 9.72 11.93"/><path id="kvg:09838-s4" kvg:type="㇛" d="M46.29 26.77c.61.29.13 2.27-.1 2.95-1.49 4.34-2.92 7.69-6.86 11.58-.76.75-.3.69.0.97C42.75 45.5 46.5 51 47.71 55.5"/></g><g id="kvg:09838-g4" kvg:element="工"><path id="kvg:09838-s5" kvg:type="㇐" d="M15.25 64.75c.56.37 3.59.42 4.16.34 5.84-.84 19.34-2.09 25.66-2.64.86-.07 2.46-.26 3.18.04"/><path id="kvg:09838-s6" kvg:type="㇑a" d="M29.57 65.02c.87.88 1.48 2.78 1.48 3.48.0 5.95.02 12.62-.15 16.57"/><path id="kvg:09838-s7" kvg:type="㇐" d="M14.25 90.01c.6.15 2 1.74 3.9 1.01 5.73-2.19 22.2-8.06 31.1-11.27"/></g></g><g id="kvg:09838-g5" kvg:element="頁" kvg:position="right" kvg:radical="general"><g id="kvg:09838-g6" kvg:position="top"><path id="kvg:09838-s8" kvg:type="㇐" d="M55.45 20.17c1.05.37 2.98.42 4.03.37 8.68-.42 25.25-2.62 32-2.79 1.75-.04 2.8.18 3.68.36"/><path id="kvg:09838-s9" kvg:type="㇒" d="M71.73 22.58c.01.25.03.64-.02 1-.3 2.1-3.28 6.72-5.64 9.54"/></g><g id="kvg:09838-g7" kvg:element="貝" kvg:position="bottom"><g id="kvg:09838-g8" kvg:element="目" kvg:position="top"><path id="kvg:09838-s10" kvg:type="㇑" d="M58.66 34.06c.47 1.05 1.17 1.83 1.17 3.23s-.32 37.87-.32 38.57"/><path id="kvg:09838-s11" kvg:type="㇕a" d="M60.62 35.46c2.69-.17 23.87-2.27 26.32-2.48 2.04-.17 3.65 1.94 3.48 3.23-.22 1.64-.3 23.53-.29 38.9"/><path id="kvg:09838-s12" kvg:type="㇐a" d="M60.58 47.69c3.84.0 22.73-1.36 28.48-1.74"/><path id="kvg:09838-s13" kvg:type="㇐a" d="M60.79 59.49c9.58-.47 20.91-1 28.25-1.5"/><path id="kvg:09838-s14" kvg:type="㇐a" d="M60.49 73.42c6.01.0 20.43-.93 28.25-1.46"/></g><g id="kvg:09838-g9" kvg:element="八" kvg:position="bottom"><path id="kvg:09838-s15" kvg:type="㇒" d="M66.18 78.42c.38 1.44.25 2.83-.5 3.88-2.29 3.17-9.89 9.96-14.46 13.7"/><path id="kvg:09838-s16" kvg:type="㇔" d="M80.57 79.73c5.7 4.45 12.43 12.53 13.98 16.43"/></g></g></g></g></g></svg>