<svg xmlns="http://www.w3.org/2000/svg" width="109" height="109" viewBox="0 0 109 109"><g id="kvg:StrokePaths_0983b"><g id="kvg:0983b" kvg:element="頻"><g id="kvg:0983b-g1" kvg:element="歩" kvg:position="left"><g id="kvg:0983b-g2" kvg:element="止" kvg:position="top"><g id="kvg:0983b-g3" kvg:element="卜" kvg:original="ト"><path id="kvg:0983b-s1" kvg:type="㇑a" d="M33.77 12.75c.99.99 1.41 2.12 1.41 3.56.0 4.31-.05 19.19-.05 25.55"/><path id="kvg:0983b-s2" kvg:type="㇐b/㇔" d="M36.4 29.66c3.6-.66 7.1-.91 10.69-1.17 1.05-.15 2.1-.16 3.15-.04"/></g><path id="kvg:0983b-s3" kvg:type="㇑a" d="M21.99 24.48c.82.82 1.16 1.64 1.16 2.81.0.9.02 10.58.02 16.17"/><path id="kvg:0983b-s4" kvg:type="㇐" d="M13 45.31c2.1.55 4.17.4 6.28.06 8.6-1.37 20.77-3.22 28.85-3.87 2.06-.17 4-.13 6.04.21"/></g><g id="kvg:0983b-g4" kvg:element="少" kvg:position="bottom"><g id="kvg:0983b-g5" kvg:element="小"><path id="kvg:0983b-s5" kvg:type="㇚" d="M34.88 45c1 1 1.22 2.24 1.22 3.75.0 5.25.0 16.97.0 19.44.0 7.06-2.23 4.18-5.6.81"/><path id="kvg:0983b-s6" kvg:type="㇒" d="M24.76 54.5c.07.83.02 1.52-.3 2.29-1.83 4.36-7.81 11.98-12.71 15.71"/><path id="kvg:0983b-s7" kvg:type="㇔" d="M43.25 52c4.77 2.5 10.56 8.37 11.75 12.26"/></g><g id="kvg:0983b-g6" kvg:element="丿"><path id="kvg:0983b-s8" kvg:type="㇒" d="M47.95 65.64c.1.75-.01 1.82-.7 2.77C40.88 77.25 29 88.62 11.31 97.5"/></g></g></g><g id="kvg:0983b-g7" kvg:element="頁" kvg:position="right" kvg:radical="general"><g id="kvg:0983b-g8" kvg:position="top"><path id="kvg:0983b-s9" kvg:type="㇐" d="M56.4 18.78c2.6.59 4.9.4 6.85.17 7.37-.88 19.39-1.92 26.63-2.52 1.84-.15 3.73-.31 5.5.33"/><path id="kvg:0983b-s10" kvg:type="㇒" d="M74.5 21c.02.33.05.86-.05 1.34-.41 1.97-2.18 5.58-4.79 8.87"/></g><g id="kvg:0983b-g9" kvg:element="貝" kvg:position="bottom"><g id="kvg:0983b-g10" kvg:element="目" kvg:position="top"><path id="kvg:0983b-s11" kvg:type="㇑" d="M60.96 32.78c1.01 1.01 1.12 2.49 1.12 3.82.0.99.08 22.42.0 33.66-.03 3.84-.05 6.46-.05 6.62"/><path id="kvg:0983b-s12" kvg:type="㇕a" d="M62.58 34.1c5.44-.51 22.28-2.69 24.62-2.89 1.95-.17 3.48 1.84 3.32 3.07-.16 1.21.17 24.39.1 35.21-.02 3.14-.03 5.24-.03 5.46"/><path id="kvg:0983b-s13" kvg:type="㇐a" d="M63.29 46.65c7.85-.99 20.69-2.25 26.18-2.61"/><path id="kvg:0983b-s14" kvg:type="㇐a" d="M63.5 59.62c9-.62 16.63-1.49 26.01-1.91"/><path id="kvg:0983b-s15" kvg:type="㇐a" d="M63.16 73.28c9.09-.78 19.04-1.1 26.51-1.6"/></g><g id="kvg:0983b-g11" kvg:element="八" kvg:position="bottom"><path id="kvg:0983b-s16" kvg:type="㇒" d="M69.08 78.41c.05.96-.38 2.15-1.22 3.08C65.32 84.3 57.13 90.68 52.05 94"/><path id="kvg:0983b-s17" kvg:type="㇔" d="M82.91 78.63c4.99 4.32 10.89 12.15 12.25 15.94"/></g></g></g></g></g></svg>