<!DOCTYPE svg PUBLIC "-//W3C//DTD SVG 1.0//EN" "http://www.w3.org/TR/2001/REC-SVG-20010904/DTD/svg10.dtd" [
<!ATTLIST g
xmlns:kvg CDATA #FIXED "http://kanjivg.tagaini.net"
kvg:element CDATA #IMPLIED
kvg:variant CDATA #IMPLIED
kvg:partial CDATA #IMPLIED
kvg:original CDATA #IMPLIED
kvg:part CDATA #IMPLIED
kvg:number CDATA #IMPLIED
kvg:tradForm CDATA #IMPLIED
kvg:radicalForm CDATA #IMPLIED
kvg:position CDATA #IMPLIED
kvg:radical CDATA #IMPLIED
kvg:phon CDATA #IMPLIED >
<!ATTLIST path
xmlns:kvg CDATA #FIXED "http://kanjivg.tagaini.net"
kvg:type CDATA #IMPLIED >
]><svg xmlns="http://www.w3.org/2000/svg" width="109" height="109" viewBox="0 0 109 109"><g id="kvg:StrokePaths_0984d" style="fill:none;stroke:#000000;stroke-width:3;stroke-linecap:round;stroke-linejoin:round;"><g id="kvg:0984d" kvg:element="額"><g id="kvg:0984d-g1" kvg:element="客" kvg:position="left" kvg:phon="客"><g id="kvg:0984d-g2" kvg:element="宀" kvg:position="top"><path id="kvg:0984d-s1" kvg:type="㇑a" d="M33.71 14.2c.73.74 1.18 1.77 1.16 2.59-.05 2.59-.05 5.62-.05 7.98"/><g id="kvg:0984d-g3" kvg:element="冖"><path id="kvg:0984d-s2" kvg:type="㇔" d="M18.5 27c0 2.86-2.47 10.72-3.6 12.62"/><path id="kvg:0984d-s3" kvg:type="㇖b" d="M19.26 28.46c10.25-1.55 21.19-3.65 29.61-3.83 7.56-.16 1.25 5.37-.24 6.67"/></g></g><g id="kvg:0984d-g4" kvg:element="各" kvg:position="bottom"><g id="kvg:0984d-g5" kvg:element="夂"><path id="kvg:0984d-s4" kvg:type="㇒" d="M30.6 33.61c.03.54.13 1.4-.07 2.15C29.25 40.62 23.41 50 16.85 56.1"/><path id="kvg:0984d-s5" kvg:type="㇇" d="M30.74 40.56c.27.03 1.42.0 2.19-.09 2.53-.27 5.16-1.27 8.78-2.12 2.48-.58 3.44 1.17 2.8 2.75-3.47 8.69-15.13 24.9-31.8 32.99"/><path id="kvg:0984d-s6" kvg:type="㇔/㇏" d="M27.75 52c9 3.12 17.75 9.5 23.83 15.74"/></g><g id="kvg:0984d-g6" kvg:element="口"><path id="kvg:0984d-s7" kvg:type="㇑" d="M22.64 73.41c.65.69 1.01 1.52 1.08 2.47.7 3.03 1.44 8.02 2.01 12.5.16 1.26.31 2.47.44 3.59"/><path id="kvg:0984d-s8" kvg:type="㇕b" d="M24.41 74.13c6.49-1.18 14.24-2.16 18.36-2.76 2.46-.36 3.87-.14 3.36 2.61-.76 4.06-1.53 7.65-2.43 12.1"/><path id="kvg:0984d-s9" kvg:type="㇐b" d="M26.93 89.48c3.16-.39 9.82-1.26 15.08-1.97 1.23-.17 2.38-.32 3.4-.46"/></g></g></g><g id="kvg:0984d-g7" kvg:element="頁" kvg:position="right" kvg:radical="general"><g id="kvg:0984d-g8" kvg:position="top"><path id="kvg:0984d-s10" kvg:type="㇐" d="M54.63 18.95c2.51.57 4.99.16 7.5-.12 9.32-1.05 17.42-1.93 25.88-2.56 2.35-.17 4.37-.31 6.62.48"/><path id="kvg:0984d-s11" kvg:type="㇒" d="M71.93 20.94c.01.32.16.85-.03 1.27-1.19 2.73-3.6 6.56-5.91 9.78"/></g><g id="kvg:0984d-g9" kvg:element="貝" kvg:position="bottom"><g id="kvg:0984d-g10" kvg:element="目" kvg:position="top"><path id="kvg:0984d-s12" kvg:type="㇑" d="M56.78 33.82c.96.95 1.42 2.22 1.42 3.7.0 1.18-.04 27.31-.06 38.11.0 2.71-.01 4.46-.01 4.6"/><path id="kvg:0984d-s13" kvg:type="㇕a" d="M58.99 34.86c3.88-.61 22.94-2.65 25.37-2.98 2.76-.38 4.24 1.25 4.24 3.55.0 1.34-.12 26.58-.18 37.96-.02 3.32-.03 5.45-.03 5.48"/><path id="kvg:0984d-s14" kvg:type="㇐a" d="M59.19 48.65c6.56-.52 22.27-1.94 28.04-2.11"/><path id="kvg:0984d-s15" kvg:type="㇐a" d="M59.41 62.95c6.96-.58 20.44-1.91 27.8-2.13"/><path id="kvg:0984d-s16" kvg:type="㇐a" d="M59.36 77.09c7.89-.84 20.21-1.66 28.06-1.9"/></g><g id="kvg:0984d-g11" kvg:element="八" kvg:position="bottom"><path id="kvg:0984d-s17" kvg:type="㇒" d="M65.74 81.5c.39 1.29.0 2.57-.78 3.47-2.34 2.73-9.54 9.37-14.22 12.53"/><path id="kvg:0984d-s18" kvg:type="㇔" d="M80.11 82.59c5.33 3.87 11.63 10.76 13.08 14.02"/></g></g></g></g></g><g id="kvg:StrokeNumbers_0984d" style="font-size:8;fill:#808080"><text transform="matrix(1 0 0 1 26.50 14.50)">1</text><text transform="matrix(1 0 0 1 11.50 30.50)">2</text><text transform="matrix(1 0 0 1 20.50 25.48)">3</text><text transform="matrix(1 0 0 1 22.50 37.50)">4</text><text transform="matrix(1 0 0 1 35.50 37.33)">5</text><text transform="matrix(1 0 0 1 29.25 51.13)">6</text><text transform="matrix(1 0 0 1 17.50 81.50)">7</text><text transform="matrix(1 0 0 1 30.49 70.10)">8</text><text transform="matrix(1 0 0 1 29.25 85.63)">9</text><text transform="matrix(1 0 0 1 53.25 15.13)">10</text><text transform="matrix(1 0 0 1 62.50 25.63)">11</text><text transform="matrix(1 0 0 1 48.50 42.50)">12</text><text transform="matrix(1 0 0 1 56.25 31.63)">13</text><text transform="matrix(1 0 0 1 62.07 45.66)">14</text><text transform="matrix(1 0 0 1 62.25 59.50)">15</text><text transform="matrix(1 0 0 1 62.11 73.63)">16</text><text transform="matrix(1 0 0 1 53.50 88.93)">17</text><text transform="matrix(1 0 0 1 71.50 87.13)">18</text></g></svg>