<!DOCTYPE svg PUBLIC "-//W3C//DTD SVG 1.0//EN" "http://www.w3.org/TR/2001/REC-SVG-20010904/DTD/svg10.dtd" [
<!ATTLIST g
xmlns:kvg CDATA #FIXED "http://kanjivg.tagaini.net"
kvg:element CDATA #IMPLIED
kvg:variant CDATA #IMPLIED
kvg:partial CDATA #IMPLIED
kvg:original CDATA #IMPLIED
kvg:part CDATA #IMPLIED
kvg:number CDATA #IMPLIED
kvg:tradForm CDATA #IMPLIED
kvg:radicalForm CDATA #IMPLIED
kvg:position CDATA #IMPLIED
kvg:radical CDATA #IMPLIED
kvg:phon CDATA #IMPLIED >
<!ATTLIST path
xmlns:kvg CDATA #FIXED "http://kanjivg.tagaini.net"
kvg:type CDATA #IMPLIED >
]><svg xmlns="http://www.w3.org/2000/svg" width="109" height="109" viewBox="0 0 109 109"><g id="kvg:StrokePaths_09867" style="fill:none;stroke:#000000;stroke-width:3;stroke-linecap:round;stroke-linejoin:round;"><g id="kvg:09867" kvg:element="顧"><g id="kvg:09867-g1" kvg:element="雇" kvg:position="left" kvg:phon="雇"><g id="kvg:09867-g2" kvg:element="戸" kvg:position="tare"><path id="kvg:09867-s1" kvg:type="㇐" d="M18.73 18c2.02.25 3.7.23 5.3.09 6.65-.55 14.13-1.87 23.73-2.46 1.77-.11 3.58-.32 5.32.11"/><path id="kvg:09867-s2" kvg:type="㇕c" d="M20.19 28.81c1.56.69 2.8.77 4.41.64 8.07-.64 19.57-2.41 25.54-2.98 2.72-.26 4.13.34 3.41 3.29-.45 1.87-1.06 3.09-1.99 6.55"/><path id="kvg:09867-s3" kvg:type="㇐b" d="M23.62 39.75c4.84-.46 17.14-1.68 25.62-2.62 1.66-.18 3.16-.35 4.4-.48"/><path id="kvg:09867-s4" kvg:type="㇒" d="M22.35 29.99c.71.71.84 2.18.68 3.95C21 56.25 18.25 71 11.63 82.08"/></g><g id="kvg:09867-g3" kvg:element="隹" kvg:position="tarec"><g id="kvg:09867-g4" kvg:element="亻" kvg:variant="true" kvg:original="人"><path id="kvg:09867-s5" kvg:type="㇒" d="M34.27 44.61c.13 1.04-.04 2.4-.47 3.28-2.75 5.67-6.24 10.46-12.55 17.36"/><path id="kvg:09867-s6" kvg:type="㇑" d="M28.39 58.71c.7.7.87 1.54.87 2.53.0 6.57-.02 19.36-.01 28.5.0 2.16.01 4.12.02 5.75"/></g><path id="kvg:09867-s7" kvg:type="㇒" d="M47.63 44.26c.04.6.05 1.41-.15 1.91-1.24 3.2-2.24 5.32-4.13 8.11"/><path id="kvg:09867-s8" kvg:type="㇐b" d="M28.88 57.55c4.2-.54 15.18-1.54 21.86-2.33 1.61-.19 3.24-.35 4.84-.61"/><path id="kvg:09867-s9" kvg:type="㇑a" d="M42.71 57.04c.5.75.91 1.82.75 2.71.0 6.27.04 20.99.04 28.5"/><path id="kvg:09867-s10" kvg:type="㇐b" d="M30.65 67.79c4.16-.46 14.5-1.61 20.65-2.26 1.82-.19 3.16-.34 3.69-.42"/><path id="kvg:09867-s11" kvg:type="㇐b" d="M30.5 78.4c4.59-.41 15.82-1.78 21.75-2.43 1.42-.16 2.46-.27 2.93-.33"/><path id="kvg:09867-s12" kvg:type="㇐b" d="M30.49 90.44c4.42-.56 16.3-1.31 23.03-2.02 1.97-.21 3.41-.37 3.96-.46"/></g></g><g id="kvg:09867-g5" kvg:element="頁" kvg:position="right" kvg:radical="general"><path id="kvg:09867-s13" kvg:type="㇐" d="M59.63 17.1c1.87.4 4.17.28 6.1.06 7.86-.89 18.14-1.63 25.29-2.05 1.92-.11 3.73-.3 5.6.25"/><path id="kvg:09867-s14" kvg:type="㇒" d="M78.23 19.1c.05.66-.02 1.31-.22 1.95-.73 2.64-3.14 6.71-5.76 10.08"/><g id="kvg:09867-g6" kvg:element="貝"><g id="kvg:09867-g7" kvg:element="目" kvg:position="top"><path id="kvg:09867-s15" kvg:type="㇑" d="M62.94 32.75c.84.84 1.09 1.82 1.09 3.32.0 1.22.07 28.78-.01 39.93-.02 2.58-.02 4.28.01 4.57"/><path id="kvg:09867-s16" kvg:type="㇕a" d="M65.03 34.43c3.82-.39 19.24-2.09 23.97-2.45 2.66-.2 3.39 1.05 3.39 3.62.0 1.2.01 23.83.01 37.53.0 2.13.0 4.05.0 5.63"/><path id="kvg:09867-s17" kvg:type="㇐a" d="M64.98 48.3c4.38-.47 19.77-1.92 26.28-2.33"/><path id="kvg:09867-s18" kvg:type="㇐a" d="M65.11 63.18c5.79-.47 19.23-2.11 26.1-2.07"/><path id="kvg:09867-s19" kvg:type="㇐a" d="M65.04 78.37C72.11 78 80.62 77 91.39 76.54"/></g><g id="kvg:09867-g8" kvg:element="八" kvg:position="bottom"><path id="kvg:09867-s20" kvg:type="㇒" d="M70.08 84.18c.29.95-.22 2.18-1.15 3.04-3.56 3.29-8.31 7.04-15.59 11.29"/><path id="kvg:09867-s21" kvg:type="㇔" d="M84.29 84.21c5.12 3.33 11.58 10.59 12.97 13.32"/></g></g></g></g></g><g id="kvg:StrokeNumbers_09867" style="font-size:8;fill:#808080"><text transform="matrix(1 0 0 1 15.50 15.50)">1</text><text transform="matrix(1 0 0 1 24.75 27.05)">2</text><text transform="matrix(1 0 0 1 27.75 37.48)">3</text><text transform="matrix(1 0 0 1 15.50 36.50)">4</text><text transform="matrix(1 0 0 1 27.50 47.50)">5</text><text transform="matrix(1 0 0 1 22.50 73.55)">6</text><text transform="matrix(1 0 0 1 39.50 47.50)">7</text><text transform="matrix(1 0 0 1 36.75 54.50)">8</text><text transform="matrix(1 0 0 1 46.50 62.50)">9</text><text transform="matrix(1 0 0 1 32.02 65.90)">10</text><text transform="matrix(1 0 0 1 32.25 75.50)">11</text><text transform="matrix(1 0 0 1 32.09 87.50)">12</text><text transform="matrix(1 0 0 1 59.25 13.63)">13</text><text transform="matrix(1 0 0 1 67.50 24.50)">14</text><text transform="matrix(1 0 0 1 55.50 40.50)">15</text><text transform="matrix(1 0 0 1 63.50 31.50)">16</text><text transform="matrix(1 0 0 1 68.54 44.98)">17</text><text transform="matrix(1 0 0 1 68.51 59.91)">18</text><text transform="matrix(1 0 0 1 68.50 74.83)">19</text><text transform="matrix(1 0 0 1 58.50 87.50)">20</text><text transform="matrix(1 0 0 1 78.50 90.50)">21</text></g></svg>