<!DOCTYPE svg PUBLIC "-//W3C//DTD SVG 1.0//EN" "http://www.w3.org/TR/2001/REC-SVG-20010904/DTD/svg10.dtd" [
<!ATTLIST g
xmlns:kvg CDATA #FIXED "http://kanjivg.tagaini.net"
kvg:element CDATA #IMPLIED
kvg:variant CDATA #IMPLIED
kvg:partial CDATA #IMPLIED
kvg:original CDATA #IMPLIED
kvg:part CDATA #IMPLIED
kvg:number CDATA #IMPLIED
kvg:tradForm CDATA #IMPLIED
kvg:radicalForm CDATA #IMPLIED
kvg:position CDATA #IMPLIED
kvg:radical CDATA #IMPLIED
kvg:phon CDATA #IMPLIED >
<!ATTLIST path
xmlns:kvg CDATA #FIXED "http://kanjivg.tagaini.net"
kvg:type CDATA #IMPLIED >
]><svg xmlns="http://www.w3.org/2000/svg" width="109" height="109" viewBox="0 0 109 109"><g id="kvg:StrokePaths_09871" style="fill:none;stroke:#000000;stroke-width:3;stroke-linecap:round;stroke-linejoin:round;"><g id="kvg:09871" kvg:element="顱"><g id="kvg:09871-g1" kvg:element="盧" kvg:position="left"><g id="kvg:09871-g2" kvg:element="虍" kvg:position="tare"><path id="kvg:09871-s1" kvg:type="㇑" d="M33.94 9.58c.65.88 1.15 1.92 1.15 4.85.0 5.7-.01 6.46-.01 11.25"/><path id="kvg:09871-s2" kvg:type="㇐" d="M36.13 16.97c4.02-.75 9.78-1.71 13.85-2.3 1.34-.19 2.17.18 2.84.36"/><g id="kvg:09871-g3" kvg:element="丿" kvg:radical="nelson"><path id="kvg:09871-s3" kvg:type="㇒" d="M17.91 26.97c.59 1.03 1.47 3.61 1.48 5.62C19.5 57 19.75 74 8.7 93.42"/></g><path id="kvg:09871-s4" kvg:type="㇖" d="M19.08 28.85c8.79-1.95 25.74-4.36 33.27-4.52 7.93-.17 3.16 3.67-.14 6.03"/><g id="kvg:09871-g4" kvg:element="七"><g id="kvg:09871-g5" kvg:element="一"><path id="kvg:09871-s5" kvg:type="㇐" d="M22.59 37.73c.57.35 1.97.41 2.55.35 5.71-.54 15.42-3 21.59-3.87.95-.13 1.52.17 2 .35"/></g><path id="kvg:09871-s6" kvg:type="㇟a" d="M35.18 28.75c.36.4.84 1.96.84 2.52.0 4.41-.07 4.11-.07 6.08.0 5.86 2.01 5.42 7.19 5.42 1.93.0 6.72-.45 8.38-1.24"/></g></g><g id="kvg:09871-g6" kvg:position="tarec"><g id="kvg:09871-g7" kvg:element="田"><path id="kvg:09871-s7" kvg:type="㇑" d="M26.23 50.53c.18.36.51 1.57.6 2.01.78 3.64 1.48 9.3 1.95 16.01"/><path id="kvg:09871-s8" kvg:type="㇕a" d="M27.38 51.57c7.52-1.07 19.48-2.9 24.13-2.79 1.13.03 1.82 1.24 1.82 2.38.0 3.61-1.47 8.94-2.68 15.63"/><path id="kvg:09871-s9" kvg:type="㇑a" d="M38.41 51.02c.85.73 1.16 1.27 1.16 1.91-.02 4.22.11 11.06.11 12.59"/><path id="kvg:09871-s10" kvg:type="㇐a" d="M28.49 58.96c2.02-.18 21.77-2.23 23.44-2.23"/><path id="kvg:09871-s11" kvg:type="㇐a" d="M29.1 67.12c4.47.0 15.1-1.78 21.27-1.88"/></g><g id="kvg:09871-g8" kvg:element="皿"><path id="kvg:09871-s12" kvg:type="㇑a" d="M25.23 75.12c.34.76.79 1.58.87 2.23.58 5.13.33 10.18.86 16.97"/><path id="kvg:09871-s13" kvg:type="㇕b" d="M26.37 76.73c6.18-1.06 23.14-4.13 25.38-3.99.97.06 1.54.19 1.41 2.21-.19 2.98-1.13 9.36-1.85 13.37"/><path id="kvg:09871-s14" kvg:type="㇑a" d="M34.71 76.18c.14.49.35.89.35 1.51.0 4.37.64 10.2.64 14.21"/><path id="kvg:09871-s15" kvg:type="㇑a" d="M42.8 75.09c.26.58.44 1.58.47 2.34.23 5.07-.03 9-.19 12.68"/><path id="kvg:09871-s16" kvg:type="㇐" d="M17.77 94.97c.85 1.23 2.41 1.43 3.26 1.23 8.85-2.06 20.97-5.95 36.34-9.4"/></g></g></g><g id="kvg:09871-g9" kvg:element="頁" kvg:position="right" kvg:radical="tradit"><g id="kvg:09871-g10" kvg:position="top"><path id="kvg:09871-s17" kvg:type="㇐" d="M58.45 17.85c1 .5 2.84.57 3.85.5 8.3-.58 24.13-2.58 30.59-2.82 1.67-.06 2.68.24 3.51.49"/><path id="kvg:09871-s18" kvg:type="㇒" d="M74.73 20.68c.01.26.02.66-.01 1.03-.21 2.17-2.27 6.93-3.9 9.84"/></g><g id="kvg:09871-g11" kvg:element="貝" kvg:position="bottom"><g id="kvg:09871-g12" kvg:element="目" kvg:position="top"><path id="kvg:09871-s19" kvg:type="㇑" d="M61.66 32.8c.45 1.08 1.11 1.88 1.11 3.32s-.65 41.34-.5 42.78"/><path id="kvg:09871-s20" kvg:type="㇕a" d="M63.53 34.23c2.56-.18 22.74-3.36 25.08-3.58 1.94-.18 3.48 1.99 3.31 3.32-.21 1.69-.9 41.25-.9 42.33"/><path id="kvg:09871-s21" kvg:type="㇐a" d="M63.49 47.32c3.66.0 21.65-2.42 27.14-2.81"/><path id="kvg:09871-s22" kvg:type="㇐a" d="M63.69 60.44c9.13-.48 18.97-1.55 25.97-2.05"/><path id="kvg:09871-s23" kvg:type="㇐a" d="M62.86 76.29c5.9-1.07 20.51-2 27.96-2.54"/></g><g id="kvg:09871-g13" kvg:element="八" kvg:position="bottom"><path id="kvg:09871-s24" kvg:type="㇒" d="M70.18 80.98c.38 1.38.75 1.75.0 2.75-2.29 3.02-10.39 10.45-14.96 14.02"/><path id="kvg:09871-s25" kvg:type="㇔" d="M82.57 81.62C88.27 85.95 95 93.8 96.55 97.58"/></g></g></g></g></g><g id="kvg:StrokeNumbers_09871" style="font-size:8;fill:#808080"><text transform="matrix(1 0 0 1 26.50 9.63)">1</text><text transform="matrix(1 0 0 1 39.50 13.50)">2</text><text transform="matrix(1 0 0 1 12.50 34.50)">3</text><text transform="matrix(1 0 0 1 19.25 24.50)">4</text><text transform="matrix(1 0 0 1 23.50 35.50)">5</text><text transform="matrix(1 0 0 1 38.50 31.25)">6</text><text transform="matrix(1 0 0 1 22.50 59.50)">7</text><text transform="matrix(1 0 0 1 29.50 48.00)">8</text><text transform="matrix(1 0 0 1 42.50 55.50)">9</text><text transform="matrix(1 0 0 1 30.25 57.50)">10</text><text transform="matrix(1 0 0 1 31.50 64.50)">11</text><text transform="matrix(1 0 0 1 17.50 81.80)">12</text><text transform="matrix(1 0 0 1 29.25 73.50)">13</text><text transform="matrix(1 0 0 1 27.25 83.65)">14</text><text transform="matrix(1 0 0 1 36.50 82.58)">15</text><text transform="matrix(1 0 0 1 15.50 91.50)">16</text><text transform="matrix(1 0 0 1 56.98 14.50)">17</text><text transform="matrix(1 0 0 1 64.50 25.50)">18</text><text transform="matrix(1 0 0 1 51.94 40.85)">19</text><text transform="matrix(1 0 0 1 61.50 30.50)">20</text><text transform="matrix(1 0 0 1 66.50 43.85)">21</text><text transform="matrix(1 0 0 1 66.50 56.50)">22</text><text transform="matrix(1 0 0 1 66.50 71.50)">23</text><text transform="matrix(1 0 0 1 58.50 85.50)">24</text><text transform="matrix(1 0 0 1 76.06 88.50)">25</text></g></svg>