<svg xmlns="http://www.w3.org/2000/svg" width="109" height="109" viewBox="0 0 109 109"><g id="kvg:StrokePaths_098b6" style="fill:none;stroke:#000000;stroke-width:3;stroke-linecap:round;stroke-linejoin:round;"><g id="kvg:098b6" kvg:element="颶"><g id="kvg:098b6-g1" kvg:element="風" kvg:position="nyo" kvg:radical="general"><g id="kvg:098b6-g2" kvg:element="几"><g id="kvg:098b6-g3" kvg:element="丿"><path id="kvg:098b6-s1" kvg:type="㇒" d="M16.36 19.02c1.14 1.23 1.26 3.69 1.26 6.27.0 23.58 1.28 57.57-9.37 69.71"/></g><path id="kvg:098b6-s2" kvg:type="㇈a" d="M18.14 21.62c11.95-1.92 28.03-4.37 32.38-4.37 2.24.0 3.61 1.49 3.48 4.22-2.49 51.78 1.75 72.6 34.99 72.6 5.27.0 8.52-1.32 7.02-9.8"/></g><path id="kvg:098b6-s3" kvg:type="㇒" d="M43.64 25.85c.05.28.11.73-.1 1.13-1.23 2.39-8.29 7.62-17.96 10.83"/><g id="kvg:098b6-g4" kvg:element="虫"><g id="kvg:098b6-g5" kvg:element="中"><g id="kvg:098b6-g6" kvg:element="口"><path id="kvg:098b6-s4" kvg:type="㇑" d="M24.12 47.57c.33.47.75.83.81 1.45.45 4.49 1.9 10.41 2.53 18.91"/><path id="kvg:098b6-s5" kvg:type="㇕b" d="M25.17 48.57c5.01-.9 16.11-2.48 19.73-2.82 1.41-.13 2.06 1.27 1.89 2.62-.6 4.61-1.71 7.72-2.68 15.38"/><path id="kvg:098b6-s6" kvg:type="㇐b" d="M27.64 66.12c4.03-.9 12.47-1.69 18.11-2.53"/></g><g id="kvg:098b6-g7" kvg:element="丨"><path id="kvg:098b6-s7" kvg:type="㇑a" d="M34.62 35.39c.45.33.71 1.49.8 2.15.09.66.0 42.19-.09 46.33"/></g></g><path id="kvg:098b6-s8" kvg:type="㇀" d="M21.66 87.66c.53.64 1.77 1 2.3.84s20.01-7.22 21.61-8.01"/><path id="kvg:098b6-s9" kvg:type="㇔" d="M42.14 72c2.3 3.28 7.03 12.53 7.81 16.8"/></g></g><g id="kvg:098b6-g8" kvg:element="具" kvg:position="nyoc"><g id="kvg:098b6-g9" kvg:element="目" kvg:position="top"><path id="kvg:098b6-s10" kvg:type="㇑" d="M64.87 15.18c.31.63.9 1.45.96 2.56.26 4.9.87 41.79.87 42.35"/><path id="kvg:098b6-s11" kvg:type="㇕a" d="M66.48 16.68c2.2-.14 15.6-2.35 17.61-2.51 1.67-.14 2.85.72 2.85 3.68.0 4.82-.01 25.84-.5 38.9"/><path id="kvg:098b6-s12" kvg:type="㇐a" d="M65.99 26.88c8.03-.78 15.6-1.91 20.93-2.18"/><path id="kvg:098b6-s13" kvg:type="㇐a" d="M66.33 37.58c5.83-.47 12.82-1.81 20.02-2.12"/><path id="kvg:098b6-s14" kvg:type="㇐a" d="M66.72 48.15C75.4 47.01 79 47.07 86.18 46.5"/></g><g id="kvg:098b6-g10" kvg:position="bottom"><path id="kvg:098b6-s15" kvg:type="㇐" d="M59.94 59.87c1.08.37 3.07.45 4.15.37 6.72-.51 24.16-2.74 28.63-2.91 1.8-.07 2.89.18 3.79.36"/><g id="kvg:098b6-g11" kvg:element="八"><path id="kvg:098b6-s16" kvg:type="㇒" d="M70.95 65.53c.02.22.05.57-.04.88-.55 1.87-3.72 5.96-8.05 8.46"/><path id="kvg:098b6-s17" kvg:type="㇏" d="M83.16 64.54c3.27 2.12 8.46 8.7 9.27 11.99"/></g></g></g></g></g></svg>