<svg xmlns="http://www.w3.org/2000/svg" width="109" height="109" viewBox="0 0 109 109"><g id="kvg:StrokePaths_098dc" style="fill:none;stroke:#000000;stroke-width:3;stroke-linecap:round;stroke-linejoin:round;"><g id="kvg:098dc" kvg:element="飜"><g id="kvg:098dc-g1" kvg:element="番" kvg:position="left"><g id="kvg:098dc-g2" kvg:element="釆" kvg:position="top"><g id="kvg:098dc-g3" kvg:element="丿"><path id="kvg:098dc-s1" kvg:type="㇒" d="M40.5 10.25c.08.36.27.96-.16 1.43C35.75 16.75 25 21.5 13.25 24"/></g><g id="kvg:098dc-g4" kvg:element="米" kvg:variant="true"><path id="kvg:098dc-s2" kvg:type="㇔" d="M12.75 27.75c2.27 1.77 5.68 6.75 6.25 9.5"/><path id="kvg:098dc-s3" kvg:type="㇒" d="M44.52 21.25c.03.33.13.88-.04 1.32-1.39 3.57-3.63 7.77-8.23 12.67"/><path id="kvg:098dc-s4" kvg:type="㇐" d="M9.02 41.67c.51.09 1.9.48 3.25.27 7.48-1.19 26.88-3.69 32.91-4.45 1.35-.17 1.71-.09 2.57.0"/><path id="kvg:098dc-s5" kvg:type="㇑" d="M28.65 22.75c.83.33 1 1.93 1 2.62.0 4.72-.17 24.47-.17 35.13"/><path id="kvg:098dc-s6" kvg:type="㇒" d="M29 40c-3.3 6.54-11.33 15.73-18.75 19.5"/><path id="kvg:098dc-s7" kvg:type="㇔/㇏" d="M33.25 43.5c4.62 1.67 10.87 6.65 13.78 10.36"/></g></g><g id="kvg:098dc-g5" kvg:element="田" kvg:position="bottom"><path id="kvg:098dc-s8" kvg:type="㇑" d="M12.5 66.5c.55.45 1.94 2.68 2.06 3.29C16 77.25 16.25 85.57 17.67 94"/><path id="kvg:098dc-s9" kvg:type="㇕a" d="M14.22 68.55c10.03-1.05 23.25-3.22 29.18-3.66 2.18-.16 3.29 1.14 3.17 2.35-.49 4.97-1.07 15.52-2.11 24.62"/><path id="kvg:098dc-s10" kvg:type="㇑a" d="M29.78 67.54c.41.89 1.06 1.75 1.06 2.99-.01 5.85.13 17.89.13 19.8"/><path id="kvg:098dc-s11" kvg:type="㇐a" d="M16.38 79.26c4.62-.51 19.87-2.51 28.58-2.58"/><path id="kvg:098dc-s12" kvg:type="㇐a" d="M17.91 92.23c7.09-.48 18.48-2.75 26.38-2.88"/></g></g><g id="kvg:098dc-g6" kvg:element="飛" kvg:position="right" kvg:radical="general"><path id="kvg:098dc-s13" kvg:type="㇈" d="M55 17.5c1.25.75 3.63 1.3 4.74 1.03 8.78-2.2 17.71-5.98 19.99-6.52 1.13-.27 3.29-.18 3.12 2C81 37 86.25 43.25 93.49 47.22c4.25 2.33 4.51.03 3.24-7.08"/><path id="kvg:098dc-s14" kvg:type="㇒" d="M93.02 13c.01.18.03.47-.03.73-.37 1.54-2.47 4.92-5.34 6.99"/><path id="kvg:098dc-s15" kvg:type="㇔" d="M86.5 23.5c2.82 1.41 7.29 5.8 8 8"/><g id="kvg:098dc-g7" kvg:element="升"><path id="kvg:098dc-s16" kvg:type="㇑" d="M73.53 21.5c.92.53 1.47 2.39 1.65 3.45s0 67.42-.18 74.05"/><g id="kvg:098dc-g8" kvg:element="廾" kvg:part="1"><g id="kvg:098dc-g9" kvg:element="丿"><path id="kvg:098dc-s17" kvg:type="㇒" d="M67.71 26.25c.29 1.5.36 2.14-1.15 3.6C62.25 34 58.25 38.25 53 41.25"/></g><g id="kvg:098dc-g10" kvg:element="十" kvg:part="1"><path id="kvg:098dc-s18" kvg:type="㇑" d="M62.46 37.89c.65 1 .84 3.42.82 5.33-.17 14.13-.03 42.53-11.39 50.99"/></g></g><g id="kvg:098dc-g11" kvg:element="廾"><g id="kvg:098dc-g12" kvg:element="十"><path id="kvg:098dc-s19" kvg:type="㇈" d="M51.75 59.56c.47.47 3.71 1.04 4.77.8 8.47-1.88 23.61-7.7 26.42-8.87 1.07-.44 3.26.71 3.06 2.57C84 73.25 85 83.75 95.12 91.78c4.63 3.67 6.63 1.22 4.13-5.57"/></g></g></g><path id="kvg:098dc-s20" kvg:type="㇒" d="M96 53.75c.01.19.03.49-.03.76-.36 1.59-2.41 5.1-5.23 7.24"/><path id="kvg:098dc-s21" kvg:type="㇔" d="M89.25 64.5c3.05 1.58 7.87 6.51 8.63 8.97"/></g></g></g></svg>