<!DOCTYPE svg PUBLIC "-//W3C//DTD SVG 1.0//EN" "http://www.w3.org/TR/2001/REC-SVG-20010904/DTD/svg10.dtd" [
<!ATTLIST g
xmlns:kvg CDATA #FIXED "http://kanjivg.tagaini.net"
kvg:element CDATA #IMPLIED
kvg:variant CDATA #IMPLIED
kvg:partial CDATA #IMPLIED
kvg:original CDATA #IMPLIED
kvg:part CDATA #IMPLIED
kvg:number CDATA #IMPLIED
kvg:tradForm CDATA #IMPLIED
kvg:radicalForm CDATA #IMPLIED
kvg:position CDATA #IMPLIED
kvg:radical CDATA #IMPLIED
kvg:phon CDATA #IMPLIED >
<!ATTLIST path
xmlns:kvg CDATA #FIXED "http://kanjivg.tagaini.net"
kvg:type CDATA #IMPLIED >
]><svg xmlns="http://www.w3.org/2000/svg" width="109" height="109" viewBox="0 0 109 109"><g id="kvg:StrokePaths_098eb" style="fill:none;stroke:#000000;stroke-width:3;stroke-linecap:round;stroke-linejoin:round;"><g id="kvg:098eb" kvg:element="飫"><g id="kvg:098eb-g1" kvg:element="⻞" kvg:variant="true" kvg:original="食" kvg:position="left" kvg:radical="general"><path id="kvg:098eb-s1" kvg:type="㇒" d="M31.25 10.64c.06.69.29 1.85-.12 2.78-2.68 6.11-10.39 18.06-21.33 27.05"/><path id="kvg:098eb-s2" kvg:type="㇔/㇏" d="M34.02 16.83c4.34 2.01 11.21 8.26 12.29 11.38"/><path id="kvg:098eb-s3" kvg:type="㇐" d="M23.25 31.66c.36.15 1.02.19 1.39.15 2.3-.25 9.87-2.17 12.1-2 .6.05.96.07 1.27.14"/><path id="kvg:098eb-s4" kvg:type="㇑" d="M18.77 40.44c.39.78.78 1.68.78 2.72s-.13 55.29.0 56.34"/><path id="kvg:098eb-s5" kvg:type="㇕" d="M19.69 42.57c2.2-.13 18.91-3.17 20.92-3.33 1.67-.13 2.74 1.45 2.61 2.22-.26 1.57-2.47 19.04-3.02 22.51"/><path id="kvg:098eb-s6" kvg:type="㇐a" d="M20.08 52.23c2.97.0 18.36-2.31 21.72-2.31"/><path id="kvg:098eb-s7" kvg:type="㇐a" d="M19.94 64.06C26 63.5 32.75 62.5 40.29 62.02"/><path id="kvg:098eb-s8" kvg:type="㇐c" d="M19.89 77.06c3.73-.25 15.96-2.17 19.57-1.99.97.04 1.56.07 2.05.14"/><path id="kvg:098eb-s9" kvg:type="㇐c" d="M20.39 90.81c3.73-.25 17.96-2.17 21.57-1.99.97.04 1.56.07 2.05.14"/></g><g id="kvg:098eb-g2" kvg:element="夭" kvg:position="right"><g id="kvg:098eb-g3" kvg:element="丿"><path id="kvg:098eb-s10" kvg:type="㇒" d="M82.28 13.89c.08.37.15.93-.16 1.48C79.46 20.02 66.25 29 52.27 33.49"/></g><g id="kvg:098eb-g4" kvg:element="大"><path id="kvg:098eb-s11" kvg:type="㇐" d="M48.33 51.86c.75.41 3.92.62 4.74.56 9.64-.67 25.93-3.68 36.9-4.73 1.04-.1 1.92.16 4.26.85"/><path id="kvg:098eb-s12" kvg:type="㇒" d="M69.55 31.47c.36.87.55 1.87.54 3.74-.18 32.45-10.43 50.57-24.84 60.54"/><path id="kvg:098eb-s13" kvg:type="㇏" d="M69.73 53.76c5.5 9.78 17.41 32.84 22.9 39.38 1.87 2.23 2.52 2.56 3.37 2.77"/></g></g></g></g><g id="kvg:StrokeNumbers_098eb" style="font-size:8;fill:#808080"><text transform="matrix(1 0 0 1 23.50 11.50)">1</text><text transform="matrix(1 0 0 1 37.50 15.50)">2</text><text transform="matrix(1 0 0 1 28.50 28.50)">3</text><text transform="matrix(1 0 0 1 12.50 48.50)">4</text><text transform="matrix(1 0 0 1 22.50 39.50)">5</text><text transform="matrix(1 0 0 1 24.45 49.25)">6</text><text transform="matrix(1 0 0 1 24.50 60.50)">7</text><text transform="matrix(1 0 0 1 24.46 73.50)">8</text><text transform="matrix(1 0 0 1 24.46 87.50)">9</text><text transform="matrix(1 0 0 1 70.50 13.50)">10</text><text transform="matrix(1 0 0 1 46.50 49.50)">11</text><text transform="matrix(1 0 0 1 59.50 39.80)">12</text><text transform="matrix(1 0 0 1 74.50 59.50)">13</text></g></svg>