<!DOCTYPE svg PUBLIC "-//W3C//DTD SVG 1.0//EN" "http://www.w3.org/TR/2001/REC-SVG-20010904/DTD/svg10.dtd" [
<!ATTLIST g
xmlns:kvg CDATA #FIXED "http://kanjivg.tagaini.net"
kvg:element CDATA #IMPLIED
kvg:variant CDATA #IMPLIED
kvg:partial CDATA #IMPLIED
kvg:original CDATA #IMPLIED
kvg:part CDATA #IMPLIED
kvg:number CDATA #IMPLIED
kvg:tradForm CDATA #IMPLIED
kvg:radicalForm CDATA #IMPLIED
kvg:position CDATA #IMPLIED
kvg:radical CDATA #IMPLIED
kvg:phon CDATA #IMPLIED >
<!ATTLIST path
xmlns:kvg CDATA #FIXED "http://kanjivg.tagaini.net"
kvg:type CDATA #IMPLIED >
]><svg xmlns="http://www.w3.org/2000/svg" width="109" height="109" viewBox="0 0 109 109"><g id="kvg:StrokePaths_098f4" style="fill:none;stroke:#000000;stroke-width:3;stroke-linecap:round;stroke-linejoin:round;"><g id="kvg:098f4" kvg:element="飴"><g id="kvg:098f4-g1" kvg:element="⻞" kvg:original="食" kvg:position="left" kvg:radical="general"><path id="kvg:098f4-s1" kvg:type="㇒" d="M33.825625 13.64c.06.64.27 1.71-.11 2.57-2.44 5.65-9.46 16.71-19.41 25.04"/><path id="kvg:098f4-s2" kvg:type="㇔/㇏" d="M36.06 19.5c4.52 1.8 12.36125 7.523542 14.399583 10.22"/><path id="kvg:098f4-s3" kvg:type="㇐" d="M28.044792 33.66c.36.15 1.02.19 1.39.15 2.3-.25 9.959583-2.17 12.189583-2 .6.05.96.07 1.27.14"/><path id="kvg:098f4-s4" kvg:type="㇑" d="M20.814792 41.44c.39.78.78 1.66.78 2.7.0 1.04-.13 54.33.0 55.37"/><path id="kvg:098f4-s5" kvg:type="㇕" d="M21.734792 43.05c2.2-.13 19.479583-2.15 21.479583-2.31 1.67-.13 2.75 1.44 2.62 2.2-.26 1.56-1.92 17.89-2.47 21.33"/><path id="kvg:098f4-s6" kvg:type="㇐a" d="M22.124792 53.12c2.98.0 18.919583-1.79 22.289583-1.79"/><path id="kvg:098f4-s7" kvg:type="㇐a" d="M21.994792 64.36c6.07-.56 13.919583-1.54 21.469583-2.02"/><path id="kvg:098f4-s8" kvg:type="㇐c" d="M21.934792 76.75c3.73-.25 17.569583-2.64 21.189583-2.47.97.04 1.56.07 2.05.14"/><path id="kvg:098f4-s9" kvg:type="㇐c" d="M22.434792 89.88c3.73-.25 18.069583-2.15 21.689583-1.98.97.04 1.56.07 2.05.14"/></g><g id="kvg:098f4-g2" kvg:element="台" kvg:position="right"><g id="kvg:098f4-g3" kvg:element="厶" kvg:position="top"><path id="kvg:098f4-s10" kvg:type="㇜" d="M73.38 14.41c.24 1.5-.13 2.51-1 4.29-6.5 13.29-10 20.42-15.89 30.86-2.04 3.62-1.63 4.69 2.39 3.71 10.09-2.46 19.63-4.4 33.48-7.78"/><path id="kvg:098f4-s11" kvg:type="㇔" d="M83.49 31c4.68 3.93 12.09 16.14 13.26 22.25"/></g><g id="kvg:098f4-g4" kvg:element="口" kvg:position="bottom"><path id="kvg:098f4-s12" kvg:type="㇑" d="M57.34 67.01c1.1 1.1 1.24 2.53 1.54 3.96 1.05 5.01 2.3 13.59 3.29 20.69.23 1.62.42 3.17.57 4.59"/><path id="kvg:098f4-s13" kvg:type="㇕b" d="M59.44 68.58c9.24-1.33 22.06-3.1 29.19-4.15 3.83-.56 5.56 1.17 4.7 4.97-1.49 6.59-2.49 12.11-3.9 20.17"/><path id="kvg:098f4-s14" kvg:type="㇐b" d="M64.05 93.49c7.31-.57 13.28-1.24 22.47-2.26 1.7-.19 3.51-.39 5.47-.6"/></g></g></g></g><g id="kvg:StrokeNumbers_098f4" style="font-size:8;fill:#808080"><text transform="matrix(1 0 0 1 23.50 13.50)">1</text><text transform="matrix(1 0 0 1 37.50 18.05)">2</text><text transform="matrix(1 0 0 1 30.50 29.50)">3</text><text transform="matrix(1 0 0 1 13.00 51.75)">4</text><text transform="matrix(1 0 0 1 22.75 40.00)">5</text><text transform="matrix(1 0 0 1 25.46 50.50)">6</text><text transform="matrix(1 0 0 1 25.50 62.50)">7</text><text transform="matrix(1 0 0 1 25.47 73.50)">8</text><text transform="matrix(1 0 0 1 25.46 85.50)">9</text><text transform="matrix(1 0 0 1 64.50 11.03)">10</text><text transform="matrix(1 0 0 1 81.50 27.50)">11</text><text transform="matrix(1 0 0 1 48.50 74.50)">12</text><text transform="matrix(1 0 0 1 60.50 64.50)">13</text><text transform="matrix(1 0 0 1 65.50 89.50)">14</text></g></svg>