<svg xmlns="http://www.w3.org/2000/svg" width="109" height="109" viewBox="0 0 109 109"><g id="kvg:StrokePaths_09905" style="fill:none;stroke:#000000;stroke-width:3;stroke-linecap:round;stroke-linejoin:round;"><g id="kvg:09905" kvg:element="餅"><g id="kvg:09905-g1" kvg:element="⻞" kvg:original="食" kvg:position="left" kvg:radical="general"><path id="kvg:09905-s1" kvg:type="㇒" d="M30.76 13.64c.06.64.27 1.71-.11 2.57-2.44 5.65-9.46 16.71-19.41 25.04"/><path id="kvg:09905-s2" kvg:type="㇔/㇏" d="M33 19.5c4.52 1.8 11.68 7.41 12.81 10.22"/><path id="kvg:09905-s3" kvg:type="㇐" d="M27.25 33.66c.36.15 1.02.19 1.39.15 2.3-.25 8.37-2.17 10.6-2 .6.05.96.07 1.27.14"/><path id="kvg:09905-s4" kvg:type="㇑" d="M20.02 41.44c.39.78.78 1.66.78 2.7.0 1.04-.13 54.33.0 55.37"/><path id="kvg:09905-s5" kvg:type="㇕" d="M20.94 43.05c2.2-.13 17.89-2.15 19.89-2.31 1.67-.13 2.75 1.44 2.62 2.2-.26 1.56-1.92 17.89-2.47 21.33"/><path id="kvg:09905-s6" kvg:type="㇐a" d="M21.33 53.12c2.98.0 17.33-1.79 20.7-1.79"/><path id="kvg:09905-s7" kvg:type="㇐a" d="M21.2 64.36c6.07-.56 12.33-1.54 19.88-2.02"/><path id="kvg:09905-s8" kvg:type="㇐c" d="M21.14 76.75c3.73-.25 15.98-2.64 19.6-2.47.97.04 1.56.07 2.05.14"/><path id="kvg:09905-s9" kvg:type="㇐c" d="M21.64 89.88c3.73-.25 16.48-2.15 20.1-1.98.97.04 1.56.07 2.05.14"/></g><g id="kvg:09905-g2" kvg:element="并" kvg:position="right"><g id="kvg:09905-g3" kvg:position="top"><path id="kvg:09905-s10" kvg:type="㇔" d="M54.46 14.59c2.99 2.15 7.73 8.85 8.48 12.21"/><path id="kvg:09905-s11" kvg:type="㇒" d="M86.05 10.39c.02.46.12 1.2-.05 1.84-1.25 4.76-4.25 11.51-8.54 17.62"/></g><g id="kvg:09905-g4" kvg:position="bottom"><g id="kvg:09905-g5" kvg:element="干" kvg:part="1"><path id="kvg:09905-s12" kvg:type="㇐" d="M53.2 34.49c1.05.5 2.98.61 4.03.5 7.78-.79 23.55-4.68 33.56-4.68 1.75.0 2.8.24 3.68.49"/><g id="kvg:09905-g6" kvg:element="十" kvg:part="1"><path id="kvg:09905-s13" kvg:type="㇐" d="M48.25 58.7c1.25.59 3.53.71 4.77.59C66.5 57.95 80 56 94.64 55.31c2.07-.1 3.32.28 4.36.57"/></g></g><path id="kvg:09905-s14" kvg:type="㇒" d="M62.42 36.43c.56 1.61 1.36 2.89 1.36 4.9.0 18.44 1.48 43.21-17.94 54.5"/><g id="kvg:09905-g7" kvg:element="干" kvg:part="2"><g id="kvg:09905-g8" kvg:element="十" kvg:part="2"><path id="kvg:09905-s15" kvg:type="㇑" d="M79.41 34.23c.7.42 1.12 1.91 1.26 2.76s0 56.69-.14 62"/></g></g></g></g></g></g></svg>