<!DOCTYPE svg PUBLIC "-//W3C//DTD SVG 1.0//EN" "http://www.w3.org/TR/2001/REC-SVG-20010904/DTD/svg10.dtd" [
<!ATTLIST g
xmlns:kvg CDATA #FIXED "http://kanjivg.tagaini.net"
kvg:element CDATA #IMPLIED
kvg:variant CDATA #IMPLIED
kvg:partial CDATA #IMPLIED
kvg:original CDATA #IMPLIED
kvg:part CDATA #IMPLIED
kvg:number CDATA #IMPLIED
kvg:tradForm CDATA #IMPLIED
kvg:radicalForm CDATA #IMPLIED
kvg:position CDATA #IMPLIED
kvg:radical CDATA #IMPLIED
kvg:phon CDATA #IMPLIED >
<!ATTLIST path
xmlns:kvg CDATA #FIXED "http://kanjivg.tagaini.net"
kvg:type CDATA #IMPLIED >
]><svg xmlns="http://www.w3.org/2000/svg" width="109" height="109" viewBox="0 0 109 109"><g id="kvg:StrokePaths_09914" style="fill:none;stroke:#000000;stroke-width:3;stroke-linecap:round;stroke-linejoin:round;"><g id="kvg:09914" kvg:element="餔"><g id="kvg:09914-g1" kvg:element="⻞" kvg:variant="true" kvg:original="食" kvg:position="left" kvg:radical="general"><path id="kvg:09914-s1" kvg:type="㇒" d="M29.76 10.64c.05.78.27 2.09-.11 3.15-2.43 6.93-9.43 20.48-19.35 30.68"/><path id="kvg:09914-s2" kvg:type="㇔/㇏" d="M32.02 17.58c3.98 1.88 10.3 7.72 11.29 10.63"/><path id="kvg:09914-s3" kvg:type="㇐" d="M25.25 33.16c.36.15 1.02.19 1.39.15 2.3-.25 8.37-2.17 10.6-2 .6.05.96.07 1.27.14"/><path id="kvg:09914-s4" kvg:type="㇑" d="M19.27 42.44c.37.78.74 1.66.74 2.7.0 1.04-.12 54.33.0 55.37"/><path id="kvg:09914-s5" kvg:type="㇕" d="M20.15 44.05c2.08-.13 16.95-2.15 18.85-2.31 1.58-.13 2.6 1.44 2.48 2.2-.25 1.56-1.82 17.89-2.34 21.33"/><path id="kvg:09914-s6" kvg:type="㇐a" d="M20.51 54.12c2.82.0 16.42-1.79 19.61-1.79"/><path id="kvg:09914-s7" kvg:type="㇐a" d="M20.38 65.36c5.75-.56 11.68-1.54 18.84-2.02"/><path id="kvg:09914-s8" kvg:type="㇐c" d="M20.33 77.75c3.53-.25 15.14-2.64 18.57-2.47.92.04 1.48.07 1.94.14"/><path id="kvg:09914-s9" kvg:type="㇐c" d="M20.8 90.88c3.54-.25 15.62-2.15 19.04-1.98.92.04 1.48.07 1.94.14"/></g><g id="kvg:09914-g2" kvg:element="甫" kvg:position="right"><path id="kvg:09914-s10" kvg:type="㇐" d="M49.75 26.57c1.17.55 3.32.64 4.5.55 9.63-.77 25.2-2.5 38.4-2.98 1.95-.07 3.13.26 4.11.54"/><g id="kvg:09914-g3" kvg:element="用" kvg:variant="true"><path id="kvg:09914-s11" kvg:type="㇑" d="M52.91 38.86c.53.73.88 1.47 1.06 2.2.18.74-.21 51.44-.19 58.06"/><path id="kvg:09914-s12" kvg:type="㇆" d="M55.02 41.3c5.92-.31 32.9-2.81 34.47-3.01 2.81-.37 3.86 2.39 3.51 3.49-.04 2.48-.6 30.89-.6 47.69.0 11.98-6.28 3.79-7.53 3.07"/><path id="kvg:09914-s13" kvg:type="㇐" d="M55.02 55.86c7.83-.64 30.43-1.78 36.75-2.33"/><path id="kvg:09914-s14" kvg:type="㇐" d="M55.18 71.29c5.62-.55 30.57-1.79 37.07-2.16"/><path id="kvg:09914-s15" kvg:type="㇑" d="M69.08 10.3c1.24.59 1.99 2.67 2.24 3.85.25 1.19.0 77.07-.25 84.48"/></g><g id="kvg:09914-g4" kvg:element="丶"><path id="kvg:09914-s16" kvg:type="㇔" d="M81 11.25c4.12 1.46 9.97 5.48 11 7.75"/></g></g></g></g><g id="kvg:StrokeNumbers_09914" style="font-size:8;fill:#808080"><text transform="matrix(1 0 0 1 22.50 11.50)">1</text><text transform="matrix(1 0 0 1 36.50 16.50)">2</text><text transform="matrix(1 0 0 1 27.50 29.50)">3</text><text transform="matrix(1 0 0 1 12.50 51.50)">4</text><text transform="matrix(1 0 0 1 22.50 40.50)">5</text><text transform="matrix(1 0 0 1 24.45 51.50)">6</text><text transform="matrix(1 0 0 1 24.50 62.50)">7</text><text transform="matrix(1 0 0 1 24.46 73.50)">8</text><text transform="matrix(1 0 0 1 24.46 87.50)">9</text><text transform="matrix(1 0 0 1 47.75 24.95)">10</text><text transform="matrix(1 0 0 1 45.50 46.50)">11</text><text transform="matrix(1 0 0 1 55.50 37.80)">12</text><text transform="matrix(1 0 0 1 57.50 52.73)">13</text><text transform="matrix(1 0 0 1 57.35 67.65)">14</text><text transform="matrix(1 0 0 1 58.50 9.50)">15</text><text transform="matrix(1 0 0 1 76.50 8.50)">16</text></g></svg>