<svg xmlns="http://www.w3.org/2000/svg" width="109" height="109" viewBox="0 0 109 109"><g id="kvg:StrokePaths_09924" style="fill:none;stroke:#000000;stroke-width:3;stroke-linecap:round;stroke-linejoin:round;"><g id="kvg:09924" kvg:element="餤"><g id="kvg:09924-g1" kvg:element="⻞" kvg:variant="true" kvg:original="食" kvg:position="left" kvg:radical="general"><path id="kvg:09924-s1" kvg:type="㇒" d="M29.76 11.14c.06.67.27 1.78-.11 2.68-2.46 5.9-9.55 17.45-19.59 26.14"/><path id="kvg:09924-s2" kvg:type="㇔/㇏" d="M32.27 16.83c4.43 1.83 11.44 7.53 12.54 10.38"/><path id="kvg:09924-s3" kvg:type="㇐" d="M22.25 31.66c.36.15 1.02.19 1.39.15 2.3-.25 9.87-2.17 12.1-2 .6.05.96.07 1.27.14"/><path id="kvg:09924-s4" kvg:type="㇑" d="M18.27 39.97c.39.82.78 1.75.78 2.84s-.13 56.6.0 57.69"/><path id="kvg:09924-s5" kvg:type="㇕" d="M19.19 41.67c2.2-.14 17.91-2.77 19.92-2.93 1.67-.14 2.74 1.51 2.61 2.31-.26 1.64-2.47 19.28-3.02 22.91"/><path id="kvg:09924-s6" kvg:type="㇐a" d="M19.58 52.26c2.97.0 17.36-2.4 20.72-2.4"/><path id="kvg:09924-s7" kvg:type="㇐a" d="M19.44 64.08c6.06-.59 11.81-1.65 19.35-2.15"/><path id="kvg:09924-s8" kvg:type="㇐c" d="M19.39 77.1c3.73-.26 15.96-2.78 19.57-2.6.97.05 1.56.07 2.05.15"/><path id="kvg:09924-s9" kvg:type="㇐c" d="M19.89 90.92c3.73-.26 16.46-2.26 20.07-2.08.97.05 1.56.07 2.05.15"/></g><g id="kvg:09924-g2" kvg:element="炎" kvg:position="right"><g id="kvg:09924-g3" kvg:element="火" kvg:position="top"><path id="kvg:09924-s10" kvg:type="㇔" d="M49.87 23.33c2.71 2.52 6.65 9.67 7.38 12.19"/><path id="kvg:09924-s11" kvg:type="㇒" d="M87 18.53c.54.55.14 2.77-.35 3.62s-4.86 5.98-7.3 7.96"/><path id="kvg:09924-s12" kvg:type="㇒" d="M67.28 12.25c.99.42 1.55 2.48 1.49 3.18C66.92 35.86 64.17 45.55 48 54.5"/><path id="kvg:09924-s13" kvg:type="㇏" d="M67.76 28.83C74.81 37.69 83.35 46.7 88 50.39c1.46 1.16 1.8 1.03 3 1.33"/></g><g id="kvg:09924-g4" kvg:element="火" kvg:position="bottom"><path id="kvg:09924-s14" kvg:type="㇔" d="M49 61.25c4.51 2.47 7.31 8.6 8.54 11.08"/><path id="kvg:09924-s15" kvg:type="㇒" d="M88.71 57.15c.54 1.33-.06 2.95-.68 4.11s-4.92 5.51-8 8.21"/><path id="kvg:09924-s16" kvg:type="㇒" d="M68.58 51c.67.75 1.09 2.62 1.06 3.41C68.5 81.25 56.5 91.25 43.18 97.5"/><path id="kvg:09924-s17" kvg:type="㇏" d="M69.39 68.71c7.71 10.63 17.06 21.44 22.15 25.87 1.6 1.39 1.97 1.24 3.28 1.59"/></g></g></g></g></svg>