<svg xmlns="http://www.w3.org/2000/svg" width="109" height="109" viewBox="0 0 109 109"><g id="kvg:StrokePaths_0994c" style="fill:none;stroke:#000000;stroke-width:3;stroke-linecap:round;stroke-linejoin:round;"><g id="kvg:0994c" kvg:element="饌"><g id="kvg:0994c-g1" kvg:element="⻞" kvg:variant="true" kvg:original="食" kvg:position="left" kvg:radical="general"><path id="kvg:0994c-s1" kvg:type="㇒" d="M28.27 12.64c.05.63.25 1.68-.1 2.52-2.31 5.54-8.95 16.39-18.36 24.55"/><path id="kvg:0994c-s2" kvg:type="㇔/㇏" d="M30.02 18.33c4.69 2.01 12.12 8.26 13.29 11.38"/><path id="kvg:0994c-s3" kvg:type="㇐" d="M21.75 34.16c.36.15 1.02.19 1.39.15 2.3-.25 9.87-2.17 12.1-2 .6.05.96.07 1.27.14"/><path id="kvg:0994c-s4" kvg:type="㇑" d="M16.77 42.13c.39.72.78 1.54.78 2.5s-.13 52.9.0 53.86"/><path id="kvg:0994c-s5" kvg:type="㇕" d="M17.69 44.13c2.2-.12 18.41-2.5 20.42-2.64 1.67-.12 2.74 1.33 2.61 2.04-.26 1.44-1.47 16.62-2.02 19.81"/><path id="kvg:0994c-s6" kvg:type="㇐a" d="M18.08 53.47c2.97.0 18.36-2.12 21.72-2.12"/><path id="kvg:0994c-s7" kvg:type="㇐a" d="M17.94 63.89c6.06-.52 13.31-1.9 20.85-2.34"/><path id="kvg:0994c-s8" kvg:type="㇐c" d="M17.89 75.37c3.73-.23 14.46-1.95 18.07-1.79.97.04 1.56.06 2.05.13"/><path id="kvg:0994c-s9" kvg:type="㇐c" d="M17.89 88.05c3.73-.23 14.96-1.99 18.57-1.83.97.04 1.56.06 2.05.13"/></g><g id="kvg:0994c-g2" kvg:element="巽" kvg:variant="true" kvg:position="right"><g id="kvg:0994c-g3" kvg:position="top"><g id="kvg:0994c-g4" kvg:element="巳" kvg:position="left"><g id="kvg:0994c-g5" kvg:element="己" kvg:variant="true"><path id="kvg:0994c-s10" kvg:type="㇕" d="M49.26 18.69c.81.41 1.5.41 2.69.27 2.41-.27 14.07-2.77 14.81-2.82.97-.07 1.74.44 1.39 1.49-.1.31-1.64 7.43-2.32 10.42"/><path id="kvg:0994c-s11" kvg:type="㇐" d="M52.58 30.25c1.78-.15 10.86-1.32 14.25-1.9"/><path id="kvg:0994c-s12" kvg:type="㇟" d="M51.56 19.62c.34.49.64 1.07.63 1.84-.01 1.68-.09 13.33-.09 14.8.0 5.5 1.91 6.63 9.09 6.63 8.32.0 9.11-1.38 9.11-3.58"/></g></g><g id="kvg:0994c-g6" kvg:element="巳" kvg:position="right"><g id="kvg:0994c-g7" kvg:element="己" kvg:variant="true"><path id="kvg:0994c-s13" kvg:type="㇕" d="M74.34 16.93c.93.43 1.72.43 3.08.29 2.76-.29 14.23-2.26 15.07-2.31 1.11-.07 1.99.47 1.59 1.59-.12.33-1.31 5.8-2.09 8.98"/><path id="kvg:0994c-s14" kvg:type="㇐" d="M76.82 27.81c2.04-.15 12.38-1.4 16.27-2.02"/><path id="kvg:0994c-s15" kvg:type="㇟" d="M75.64 17.57c.44.53.82 1.16.82 1.98-.01 1.78-.12 13.42-.12 14.81.0 6.38 1.16 6.98 9.97 6.98 8.94.0 9.49-1.35 9.49-5.37"/></g></g></g><g id="kvg:0994c-g8" kvg:element="共" kvg:position="bottom"><g id="kvg:0994c-g9" kvg:position="top"><path id="kvg:0994c-s16" kvg:type="㇐" d="M51.98 60.1c1.21.2 3.44.29 4.63.2 4.89-.38 25.4-2.55 33.08-2.65 2.01-.03 3.22.09 4.23.19"/><path id="kvg:0994c-s17" kvg:type="㇑a" d="M60.4 48.45c1.09.34 1.94 2.83 1.96 3.53.17 5 1.42 15.04 1.93 20.73"/><path id="kvg:0994c-s18" kvg:type="㇑a" d="M81.43 47.87c.91.29 1.15 2.9 1.1 3.49-.69 7.44-2.12 14.83-2.75 20.16"/><path id="kvg:0994c-s19" kvg:type="㇐" d="M46.25 74.11c1.41.35 4.01.44 5.42.35 9.24-.63 27.57-2.54 42.64-3.03 2.35-.08 3.77.17 4.95.34"/></g><g id="kvg:0994c-g10" kvg:element="八" kvg:position="bottom"><path id="kvg:0994c-s20" kvg:type="㇒" d="M63.27 81.61c.04.33.09.84-.09 1.31-1.11 2.76-8.38 8.09-16.15 12.53"/><path id="kvg:0994c-s21" kvg:type="㇔" d="M79.92 80.04C84.89 82.91 92.76 91.86 94 96.33"/></g></g></g></g></g></svg>