<!DOCTYPE svg PUBLIC "-//W3C//DTD SVG 1.0//EN" "http://www.w3.org/TR/2001/REC-SVG-20010904/DTD/svg10.dtd" [
<!ATTLIST g
xmlns:kvg CDATA #FIXED "http://kanjivg.tagaini.net"
kvg:element CDATA #IMPLIED
kvg:variant CDATA #IMPLIED
kvg:partial CDATA #IMPLIED
kvg:original CDATA #IMPLIED
kvg:part CDATA #IMPLIED
kvg:number CDATA #IMPLIED
kvg:tradForm CDATA #IMPLIED
kvg:radicalForm CDATA #IMPLIED
kvg:position CDATA #IMPLIED
kvg:radical CDATA #IMPLIED
kvg:phon CDATA #IMPLIED >
<!ATTLIST path
xmlns:kvg CDATA #FIXED "http://kanjivg.tagaini.net"
kvg:type CDATA #IMPLIED >
]><svg xmlns="http://www.w3.org/2000/svg" width="109" height="109" viewBox="0 0 109 109"><g id="kvg:StrokePaths_09952" style="fill:none;stroke:#000000;stroke-width:3;stroke-linecap:round;stroke-linejoin:round;"><g id="kvg:09952" kvg:element="饒"><g id="kvg:09952-g1" kvg:element="⻞" kvg:variant="true" kvg:original="食" kvg:position="left" kvg:radical="general"><path id="kvg:09952-s1" kvg:type="㇒" d="M30.76 12.64c.06.71.28 1.91-.11 2.87-2.56 6.31-9.91 18.66-20.34 27.95"/><path id="kvg:09952-s2" kvg:type="㇔/㇏" d="M32.77 18.58c4.43 1.88 11.44 7.72 12.54 10.63"/><path id="kvg:09952-s3" kvg:type="㇐" d="M24.75 33.66c.36.15 1.02.19 1.39.15 2.3-.25 9.87-2.17 12.1-2 .6.05.96.07 1.27.14"/><path id="kvg:09952-s4" kvg:type="㇑" d="M21.27 42.94c.39.78.78 1.68.78 2.72s-.13 52.29.0 53.34"/><path id="kvg:09952-s5" kvg:type="㇕" d="M22.19 44.07c2.2-.13 17.41-2.67 19.42-2.83 1.67-.13 2.74 1.45 2.61 2.22-.26 1.57-2.47 19.04-3.02 22.51"/><path id="kvg:09952-s6" kvg:type="㇐a" d="M22.58 54.23c2.97.0 16.86-1.81 20.22-1.81"/><path id="kvg:09952-s7" kvg:type="㇐a" d="M22.44 66.06c6.06-.56 11.31-1.56 18.85-2.04"/><path id="kvg:09952-s8" kvg:type="㇐c" d="M22.39 78.56c3.73-.25 15.46-2.17 19.07-1.99.97.04 1.56.07 2.05.14"/><path id="kvg:09952-s9" kvg:type="㇐c" d="M22.89 91.81c3.73-.25 14.96-1.67 18.57-1.49.97.04 1.56.07 2.05.14"/></g><g id="kvg:09952-g2" kvg:element="堯" kvg:position="right"><g id="kvg:09952-g3" kvg:position="top"><g id="kvg:09952-g4" kvg:element="土" kvg:position="top"><path id="kvg:09952-s10" kvg:type="㇐" d="M56.72 21.76c.88.54 2.48.59 3.36.54 9.28-.59 13.69-2.37 25.03-2.84 1.46-.06 2.34.26 3.07.52"/><path id="kvg:09952-s11" kvg:type="㇑a" d="M70.39 12.62c.06.23.92 1.22.92 2.71.0 1.67.27 7.92.27 14.88"/><path id="kvg:09952-s12" kvg:type="㇐" d="M53.13 31.59c.99.43 2.82.53 3.81.43 12.31-1.21 22.45-2.61 33.47-3.18 1.66-.09 2.65.21 3.48.42"/></g><g id="kvg:09952-g5" kvg:position="bottom"><g id="kvg:09952-g6" kvg:element="土" kvg:position="left"><path id="kvg:09952-s13" kvg:type="㇐" d="M50.69 46.14c.53.38 1.57.4 2.1.36 3.51-.25 10.24-1.89 14-2.5.88-.14 1.84-.18 2.28.01"/><path id="kvg:09952-s14" kvg:type="㇑" d="M58.62 38.5C59.39 39 60 40.73 60 41.75c0 7.25.02 3.25.02 14"/><path id="kvg:09952-s15" kvg:type="㇀/㇐" d="M50.24 58.19c.54.56 1.62 1.36 3.24.62 4.5-2.06 11.1-4.25 15.61-6.31"/></g><g id="kvg:09952-g7" kvg:element="土" kvg:position="right"><path id="kvg:09952-s16" kvg:type="㇐" d="M72.49 43.53c.58.32 1.65.33 2.23.32 5.41-.11 12.45-1.61 17.75-1.71.97-.02 1.55.15 2.04.31"/><path id="kvg:09952-s17" kvg:type="㇑a" d="M82.12 35.12c.07.23.99 1.22.99 2.71.0 1.67-.2 10.92-.2 17.88"/><path id="kvg:09952-s18" kvg:type="㇐" d="M70.9 57.23c.68.3 2.27.37 2.94.3C79.87 57 89.83 56 95.89 55.59c1.13-.08 1.8.15 2.37.3"/></g></g></g><g id="kvg:09952-g8" kvg:element="兀" kvg:position="bottom"><g id="kvg:09952-g9" kvg:element="一"><path id="kvg:09952-s19" kvg:type="㇐" d="M52 68.9c1.16.37 3.29.41 4.45.37 8.09-.27 24.3-2.77 32.58-3.26 1.93-.11 3.1.18 4.07.36"/></g><g id="kvg:09952-g10" kvg:element="儿" kvg:original="八"><g id="kvg:09952-g11" kvg:element="丿"><path id="kvg:09952-s20" kvg:type="㇒" d="M64.58 71.5c.05.6.09 1.56-.1 2.43-1.35 5.99-8.23 18.57-18.08 23.74"/></g><path id="kvg:09952-s21" kvg:type="㇟" d="M74.76 69.41c.5 1.14.93 2.49.93 4.25.0 2.36-.02 5.9-.02 11.25.0 10.59.84 11.58 11.24 11.58 10.59.0 10.88-1.74 10.88-10.23"/></g></g></g></g></g><g id="kvg:StrokeNumbers_09952" style="font-size:8;fill:#808080"><text transform="matrix(1 0 0 1 23.50 12.50)">1</text><text transform="matrix(1 0 0 1 37.50 18.50)">2</text><text transform="matrix(1 0 0 1 28.50 30.50)">3</text><text transform="matrix(1 0 0 1 14.50 50.40)">4</text><text transform="matrix(1 0 0 1 23.50 41.50)">5</text><text transform="matrix(1 0 0 1 26.45 51.50)">6</text><text transform="matrix(1 0 0 1 26.50 62.50)">7</text><text transform="matrix(1 0 0 1 26.46 74.50)">8</text><text transform="matrix(1 0 0 1 26.46 88.50)">9</text><text transform="matrix(1 0 0 1 53.50 19.50)">10</text><text transform="matrix(1 0 0 1 62.50 9.88)">11</text><text transform="matrix(1 0 0 1 50.50 28.50)">12</text><text transform="matrix(1 0 0 1 48.50 43.50)">13</text><text transform="matrix(1 0 0 1 62.50 39.50)">14</text><text transform="matrix(1 0 0 1 47.50 55.50)">15</text><text transform="matrix(1 0 0 1 69.50 40.50)">16</text><text transform="matrix(1 0 0 1 85.50 37.50)">17</text><text transform="matrix(1 0 0 1 71.50 54.50)">18</text><text transform="matrix(1 0 0 1 51.50 67.50)">19</text><text transform="matrix(1 0 0 1 52.50 79.20)">20</text><text transform="matrix(1 0 0 1 67.50 80.50)">21</text></g></svg>