<svg xmlns="http://www.w3.org/2000/svg" width="109" height="109" viewBox="0 0 109 109"><g id="kvg:StrokePaths_09955"><g id="kvg:09955" kvg:element="饕"><g id="kvg:09955-g1" kvg:element="號" kvg:position="top"><g id="kvg:09955-g2" kvg:element="号" kvg:position="left"><g id="kvg:09955-g3" kvg:element="口" kvg:position="top"><path id="kvg:09955-s1" kvg:type="㇑" d="M18.77 10.88c.24.19.49.35.6.59.84 1.89 1.85 7.09 2.43 10.48"/><path id="kvg:09955-s2" kvg:type="㇕b" d="M20.28 11.53c5.96-.79 17.2-1.83 20.27-2.1 1.12-.1 1.8.98 1.64 1.56-.67 2.38-1.43 3.92-2.85 7.35"/><path id="kvg:09955-s3" kvg:type="㇐b" d="M22.04 20.2c3.61-.3 13.84-1.27 18.43-1.57"/></g><g id="kvg:09955-g4" kvg:position="bottom"><g id="kvg:09955-g5" kvg:element="一"><path id="kvg:09955-s4" kvg:type="㇐" d="M12.5 28.46c.87.27 2.47.35 3.34.27 7.99-.75 19.22-2.76 28.79-3.13 1.45-.06 2.32.13 3.05.27"/></g><path id="kvg:09955-s5" kvg:type="㇉" d="M25.57 29.61c.57.5.72.75.0 1.51-.72.75-3.01 4.27-3.58 5.14-.57.88.0 2.13 1.15 2.01 1.15-.13 11.88-2.46 13.2-2.76 2.15-.5 3.27.39 2.87 2.26-1.15 5.27-5.33 11.61-7.46 14.18-3.01 3.64-6.24.8-8.03-1.25"/></g></g><g id="kvg:09955-g6" kvg:element="虎" kvg:position="right"><g id="kvg:09955-g7" kvg:element="虍" kvg:position="tare"><path id="kvg:09955-s6" kvg:type="㇑a" d="M68.85 7.58c.67.46 1.2 1 1.2 2.52.0 2.96-.01 4.11-.01 6.6"/><path id="kvg:09955-s7" kvg:type="㇐b" d="M70.13 11.2c4.6-.39 9.79-.89 14.45-1.2 1.53-.1 2.47.09 3.25.19"/><path id="kvg:09955-s8" kvg:type="㇒" d="M56.61 17.68c.3.23.42 1.61.33 2.45-.93 8.77-1.19 16.12-7.7 23.21"/><path id="kvg:09955-s9" kvg:type="㇖a" d="M57.26 19.13c.71.13 2 .16 3.17.03 8.07-.9 21.97-3.05 29.03-3.16 7.44-.12 1.58 4.48-.28 5.91"/><g id="kvg:09955-g8" kvg:element="七"><g id="kvg:09955-g9" kvg:element="一"><path id="kvg:09955-s10" kvg:type="㇐" d="M61.47 25.71c.54.18 1.54.2 2.08.18 4.7-.15 12.55-2.05 18.41-2.5.9-.07 1.44.09 1.9.18"/></g><path id="kvg:09955-s11" kvg:type="㇟a" d="M69.65 19.42c.43.22 1 1.11 1 1.43.0 2.5-.08 5.34-.08 6.46.0 3.32 2 3.07 8.15 3.07 2.29.0 7.23-.5 9.2-.95"/></g></g><g id="kvg:09955-g10" kvg:element="儿" kvg:original="八" kvg:position="tarec"><g id="kvg:09955-g11" kvg:element="丿" kvg:position="left"><path id="kvg:09955-s12" kvg:type="㇒" d="M68.3 34.76c.02.29-.01.75-.04 1.17-.26 3.82-2.51 8.82-6.84 11.24"/></g><g id="kvg:09955-g12" kvg:position="right"><path id="kvg:09955-s13" kvg:type="㇟" d="M76 34.77c.4.51.73 1.11.75 1.9.11 3.51.21 3.42.21 5.81.0 3.77 1.04 4.95 7.66 4.95 8.14.0 9.82-1.18 9.82-4.92"/></g></g></g></g><g id="kvg:09955-g13" kvg:element="食" kvg:variant="true" kvg:position="bottom" kvg:radical="general"><path id="kvg:09955-s14" kvg:type="㇒" d="M52.99 45.25c.11.63-.04 1.68-.73 2.54C46.59 54.83 30.7 66 13 72.07"/><path id="kvg:09955-s15" kvg:type="㇏" d="M52.75 47.51c4.84 3.43 25.71 14.61 31.05 17.12 1.81.85 4.14 1.22 5.95 1.46"/><path id="kvg:09955-s16" kvg:type="㇐" d="M42.84 61.74c.9.16 2 .34 2.73.29 4.09-.27 11.82-1.76 16.33-2.18 1.18-.11 1.9.14 2.49.28"/><path id="kvg:09955-s17" kvg:type="㇕" d="M38.19 69.6c2.55-.13 27.67-3.16 30-3.31 1.94-.13 3.18 1.44 3.03 2.21-.3 1.56-2.47 10-3.11 13.74"/><path id="kvg:09955-s18" kvg:type="㇐" d="M38.57 76.43c3.48.0 27.09-2.88 31.03-2.88"/><path id="kvg:09955-s19" kvg:type="㇐" d="M38.41 83.95C45.5 83.67 59.25 82 67.6 81.19"/><path id="kvg:09955-s20" kvg:type="㇙" d="M36.5 68.33c.75.92 1.25 1.56 1.25 2.31.0 5.36.25 25.07.25 26.85.0 1.76.41 3.96 3.25 2.38 4.25-2.37 9.5-5.69 12-7.28"/><path id="kvg:09955-s21" kvg:type="㇒" d="M76.57 82.45c.34 1.07.05 2.23-.82 2.85-2.75 1.95-5.95 4.62-9 6.12"/><path id="kvg:09955-s22" kvg:type="㇏" d="M51.5 86.42c3.53.0 21.16 9.99 23.9 11.2 3.1 1.37 5.77 2.22 7.85 2.49"/></g></g></g></svg>