<svg xmlns="http://www.w3.org/2000/svg" width="109" height="109" viewBox="0 0 109 109"><g id="kvg:StrokePaths_099b3"><g id="kvg:099b3" kvg:element="馳"><g id="kvg:099b3-g1" kvg:element="馬" kvg:position="left" kvg:radical="general"><path id="kvg:099b3-s1" kvg:type="㇑" d="M14.24 18.12c.76.38 2.02 2.34 2.05 3.38.28 9.32-.84 37.05-1.53 39.75"/><path id="kvg:099b3-s2" kvg:type="㇐b" d="M16.48 18.9c.8-.02 2.74-.06 3.79-.13 7.82-.52 17.4-2.33 19.76-2.67.94-.14 2.53-.25 3-.03"/><path id="kvg:099b3-s3" kvg:type="㇑a" d="M28.31 18.82c.25.38.96.88.95 1.49-.02 6.17-.06 27.96-.25 37.66"/><path id="kvg:099b3-s4" kvg:type="㇐b" d="M16.16 32.59c6.26-.58 19.75-1.6 22.44-1.99.94-.14 2.53-.24 3-.02"/><path id="kvg:099b3-s5" kvg:type="㇐b" d="M16.26 45.62c6.26-.59 20.25-2.1 22.94-2.49.94-.14 2.53-.25 3-.03"/><path id="kvg:099b3-s6" kvg:type="㇆a" d="M15.49 60.65c6.17-1.41 21.54-4.04 24.93-4.63 4.33-.76 4.19 2.81 3.95 6.45C43.7 72.81 41.96 84.3 38.75 91c-2.75 5.75-5.32.41-6.21-.86"/><g id="kvg:099b3-g2" kvg:element="灬" kvg:variant="true" kvg:original="火"><path id="kvg:099b3-s7" kvg:type="㇔" d="M9.29 74.5c.28 6.41-.57 12.04-.87 13.32"/><path id="kvg:099b3-s8" kvg:type="㇔" d="M17.5 73c1.08 2.1 2 4.75 2.25 8.5"/><path id="kvg:099b3-s9" kvg:type="㇔" d="M25.94 69.22c.56 1.03 2.56 4.42 2.81 7.78"/><path id="kvg:099b3-s10" kvg:type="㇔" d="M33.25 66.25c1.25 2.01 3.3 4.09 3.75 6.75"/></g></g><g id="kvg:099b3-g3" kvg:element="也" kvg:position="right"><path id="kvg:099b3-s11" kvg:type="㇆v" d="M47 52.06c2 1.19 3.5 1.44 5.39.89C61.89 50.19 87.56 38.22 92 36c2.5-1.25 4.01 1.5 3.76 2.86-1.01 5.39-6.26 23.39-8.26 27.39-3.25 6.5-5.25 3.75-6.75.0"/><path id="kvg:099b3-s12" kvg:type="㇑" d="M72 15.25c1.25.5 2 2.25 2.25 3.25s0 47.75-.25 54"/><g id="kvg:099b3-g4" kvg:element="乙" kvg:variant="true"><path id="kvg:099b3-s13" kvg:type="㇟" d="M56.24 26.37c.67 1.17 1.21 2.56 1.25 4.37.12 5.49-.41 44.7-.41 50.68.0 7.83 4.17 10.33 19.84 10.33 15.58.0 19.47-3.25 19.47-9.16"/></g></g></g></g></svg>