<svg xmlns="http://www.w3.org/2000/svg" width="109" height="109" viewBox="0 0 109 109"><g id="kvg:StrokePaths_099d2"><g id="kvg:099d2" kvg:element="駒"><g id="kvg:099d2-g1" kvg:element="馬" kvg:position="left" kvg:radical="general"><path id="kvg:099d2-s1" kvg:type="㇑" d="M15.49 17.62c.76.76.99 2.13.99 3.89.0 7.32-.06 23.96-.09 33.12-.01 2.62-.01 4.62-.01 5.62"/><path id="kvg:099d2-s2" kvg:type="㇐b" d="M17.27 19.01c7.4-.93 17.74-1.97 22.62-2.42 1.43-.13 3.23-.34 5.4-.03"/><path id="kvg:099d2-s3" kvg:type="㇑a" d="M29.06 19.32c.83 1.23.95 2.29.95 3.92-.01 7.48.0 24.36.0 32.73"/><path id="kvg:099d2-s4" kvg:type="㇐b" d="M17.41 32.09c5.18-.71 14.57-2.01 19.37-2.69 1.38-.2 3.22-.52 5.06-.32"/><path id="kvg:099d2-s5" kvg:type="㇐b" d="M17.63 44.62c5.01-.58 15.19-1.94 19.89-2.64 1.26-.19 2.98-.49 4.92-.11"/><path id="kvg:099d2-s6" kvg:type="㇆a" d="M17.49 58.65c8.01-1.27 16.76-2.27 23.68-3.13 4.36-.54 4.69 1.81 4.45 5.45C44.95 71.31 42.21 84.05 39 90.75c-2.75 5.75-6.07.16-6.96-1.11"/><g id="kvg:099d2-g2" kvg:element="灬" kvg:variant="true" kvg:original="火"><path id="kvg:099d2-s7" kvg:type="㇔" d="M13.43 71.25c-.05 6.88-1.44 12.27-1.93 13.57"/><path id="kvg:099d2-s8" kvg:type="㇔" d="M18.38 69.12c1.69 2.63 3.12 5.94 3.52 10.62"/><path id="kvg:099d2-s9" kvg:type="㇔" d="M25.25 67.38c.91 1.14 4.16 4.9 4.56 8.62"/><path id="kvg:099d2-s10" kvg:type="㇔" d="M32.12 64.5c1.62 2.12 3.62 4.88 4.61 8"/></g></g><g id="kvg:099d2-g3" kvg:element="句" kvg:position="right"><g id="kvg:099d2-g4" kvg:element="勹"><g id="kvg:099d2-g5" kvg:element="丿"><path id="kvg:099d2-s11" kvg:type="㇒" d="M63.56 15.67c.05.76-.2 1.76-.59 2.8C60 26.25 54.75 37 46.25 46.87"/></g><path id="kvg:099d2-s12" kvg:type="㇆" d="M59.35 32.9c2.33.71 4.74.13 7.07-.26 5.35-.89 15.95-2.96 21.24-3.9 4.03-.72 6.28.72 6.09 4.98-.5 11.28-3.63 39.03-10.34 56.24-1.77 4.54-5.16 4.79-9.31-.19"/></g><g id="kvg:099d2-g6" kvg:element="口"><path id="kvg:099d2-s13" kvg:type="㇑" d="M54.52 50.74c.81.81 1.03 1.57 1.08 2.51.78 3.37 1.59 9.54 2.31 14.6.23 1.62.43 3.14.58 4.4"/><path id="kvg:099d2-s14" kvg:type="㇕b" d="M56.24 52.11c4.79-.97 11.44-2.1 15.51-2.71 3-.44 3.77.51 3.28 3.5-.66 4.08-1.55 8.02-2.58 13.54"/><path id="kvg:099d2-s15" kvg:type="㇐b" d="M59.33 69.44c3.36-.46 7.46-1.02 11.94-1.68.99-.15 1.99-.3 3.01-.45"/></g></g></g></g></svg>