<svg xmlns="http://www.w3.org/2000/svg" width="109" height="109" viewBox="0 0 109 109"><g id="kvg:StrokePaths_099dd" style="fill:none;stroke:#000000;stroke-width:3;stroke-linecap:round;stroke-linejoin:round;"><g id="kvg:099dd" kvg:element="駝"><g id="kvg:099dd-g1" kvg:element="馬" kvg:position="left" kvg:radical="general"><path id="kvg:099dd-s1" kvg:type="㇑" d="M16.04 18.23c.71.52.99 1.8.98 3.27-.06 10.34-.31 39.63-1.01 42.35"/><path id="kvg:099dd-s2" kvg:type="㇐b" d="M17.64 20.36C27 19 39.87 17.46 42.34 17.1c.97-.14 2.63-.25 3.12-.03"/><path id="kvg:099dd-s3" kvg:type="㇑a" d="M30.63 19.42c.26.39.99.91.99 1.54-.02 6.39.43 28.95.24 39"/><path id="kvg:099dd-s4" kvg:type="㇐b" d="M16.98 34.68c6.51-.61 21.06-2.65 23.86-3.06.98-.14 2.63-.25 3.12-.03"/><path id="kvg:099dd-s5" kvg:type="㇐b" d="M17.58 47.18c6.51-.61 21.08-2.67 23.88-3.08.98-.14 2.63-.25 3.12-.03"/><path id="kvg:099dd-s6" kvg:type="㇆a" d="M16.78 63.23c6.43-1.46 21.95-4.18 25.48-4.8 4.51-.79 4.82 2.97 4.11 6.68C44.25 76.25 43 84.75 39.02 92.66c-2.97 5.9-6.03.42-6.97-.89"/><g id="kvg:099dd-g2" kvg:element="灬" kvg:variant="true" kvg:original="火"><path id="kvg:099dd-s7" kvg:type="㇔" d="M11.4 73.96c.28 5.13-.58 9.64-.88 10.66"/><path id="kvg:099dd-s8" kvg:type="㇔" d="M17.69 71.92c1.89 2.56 3.49 5.78 3.92 10.35"/><path id="kvg:099dd-s9" kvg:type="㇔" d="M25.14 69.58c.78 1.14 3.57 4.89 3.91 8.6"/><path id="kvg:099dd-s10" kvg:type="㇔" d="M32.65 66.53c1.65 2.35 4.38 4.78 4.97 7.89"/></g></g><g id="kvg:099dd-g3" kvg:element="它" kvg:position="right"><g id="kvg:099dd-g4" kvg:element="宀" kvg:position="top"><path id="kvg:099dd-s11" kvg:type="㇑a" d="M69.48 11.49c.86.4 2.09 2.33 2.07 3.47-.06 3.59-.06 8.7-.07 11.96"/><g id="kvg:099dd-g5" kvg:element="冖"><path id="kvg:099dd-s12" kvg:type="㇔" d="M54.13 27.74c0 3.62-1.85 11.09-2.92 13.51"/><path id="kvg:099dd-s13" kvg:type="㇖b" d="M54.17 30.11c12.58-2.11 32.96-4.56 38.29-4.34 7.04.29-.51 6.69-2.26 8.37"/></g></g><g id="kvg:099dd-g6" kvg:element="匕" kvg:position="bottom"><path id="kvg:099dd-s14" kvg:type="㇒" d="M90.03 44.51c.18.35.29 1.37-.17 1.91-2.95 3.49-13.05 13.12-22.56 16.7"/><path id="kvg:099dd-s15" kvg:type="㇟" d="M63 36.38c.7 1.02.75 1.7.98 3.05.23 1.36-.09 39.63-.09 43.88.0 10.92 2.61 11.71 16.65 11.71 13.71.0 14.76-1.77 14.76-11.78"/></g></g></g></g></svg>