<!DOCTYPE svg PUBLIC "-//W3C//DTD SVG 1.0//EN" "http://www.w3.org/TR/2001/REC-SVG-20010904/DTD/svg10.dtd" [
<!ATTLIST g
xmlns:kvg CDATA #FIXED "http://kanjivg.tagaini.net"
kvg:element CDATA #IMPLIED
kvg:variant CDATA #IMPLIED
kvg:partial CDATA #IMPLIED
kvg:original CDATA #IMPLIED
kvg:part CDATA #IMPLIED
kvg:number CDATA #IMPLIED
kvg:tradForm CDATA #IMPLIED
kvg:radicalForm CDATA #IMPLIED
kvg:position CDATA #IMPLIED
kvg:radical CDATA #IMPLIED
kvg:phon CDATA #IMPLIED >
<!ATTLIST path
xmlns:kvg CDATA #FIXED "http://kanjivg.tagaini.net"
kvg:type CDATA #IMPLIED >
]><svg xmlns="http://www.w3.org/2000/svg" width="109" height="109" viewBox="0 0 109 109"><g id="kvg:StrokePaths_099e2" style="fill:none;stroke:#000000;stroke-width:3;stroke-linecap:round;stroke-linejoin:round;"><g id="kvg:099e2" kvg:element="駢"><g id="kvg:099e2-g1" kvg:element="馬" kvg:position="left" kvg:radical="general"><path id="kvg:099e2-s1" kvg:type="㇑" d="M15.24 18.43c.76.82 1 2.68.99 3.57-.05 9.13-.27 38.09-.98 40.87"/><path id="kvg:099e2-s2" kvg:type="㇐b" d="M17.77 19.57c7.82-.53 20.4-2.37 22.76-2.73.94-.14 2.53-.25 3-.03"/><path id="kvg:099e2-s3" kvg:type="㇑a" d="M28.81 19.63c.25.38.96.9.95 1.51-.02 6.29-.06 28.5-.25 38.39"/><path id="kvg:099e2-s4" kvg:type="㇐b" d="M16.66 34.16c6.26-.6 19.75-2.63 22.44-3.03.94-.14 2.53-.25 3-.02"/><path id="kvg:099e2-s5" kvg:type="㇐b" d="M16.76 46.95c6.26-.6 20.25-2.64 22.94-3.04.94-.14 2.53-.25 3-.03"/><path id="kvg:099e2-s6" kvg:type="㇆a" d="M15.99 62.26c6.17-1.44 20.04-3.61 23.43-4.22 4.33-.78 4.19 2.86 3.95 6.58-.67 10.55-2.92 21.25-6.12 28.09-2.75 5.86-5.32.42-6.21-.88"/><g id="kvg:099e2-g2" kvg:element="灬" kvg:variant="true" kvg:original="火"><path id="kvg:099e2-s7" kvg:type="㇔" d="M11 71.62c.28 6.89-.58 12.96-.88 14.34"/><path id="kvg:099e2-s8" kvg:type="㇔" d="M17.61 70.71c1.27 2.56 2.35 5.78 2.64 10.35"/><path id="kvg:099e2-s9" kvg:type="㇔" d="M24.27 69.03c.78 1.26 3.58 5.42 3.93 9.54"/><path id="kvg:099e2-s10" kvg:type="㇔" d="M31.22 67.47c1.4 2.23 3.69 4.53 4.2 7.49"/></g></g><g id="kvg:099e2-g3" kvg:element="并" kvg:position="right"><g id="kvg:099e2-g4" kvg:position="top"><path id="kvg:099e2-s11" kvg:type="㇔" d="M54.05 12.59c3.5 2.95 9.04 12.12 9.91 16.71"/><path id="kvg:099e2-s12" kvg:type="㇒" d="M84.11 10.39c.02.35.04.91-.04 1.42C83.56 14.8 80 23.5 76.11 29.36"/></g><g id="kvg:099e2-g5" kvg:position="bottom"><g id="kvg:099e2-g6" kvg:element="干" kvg:part="1"><path id="kvg:099e2-s13" kvg:type="㇐" d="M50.89 34.49c.92.5 2.61.61 3.53.5 6.81-.79 26.72-3.68 35.46-3.68 1.53.0 2.45.24 3.22.49"/><g id="kvg:099e2-g7" kvg:element="十" kvg:part="1"><path id="kvg:099e2-s14" kvg:type="㇐" d="M48.75 57.53c1.25.46 3.53.55 4.78.46 13.48-1.04 26.47-3.83 41.11-4.36 2.08-.08 3.32.22 4.36.44"/></g></g><path id="kvg:099e2-s15" kvg:type="㇒" d="M62.21 36.93c.79 1.32 1.42 2.07 1.42 4.21.0 19.6 1.56 46.94-18.84 58.94"/><g id="kvg:099e2-g8" kvg:element="干" kvg:part="2"><g id="kvg:099e2-g9" kvg:element="十" kvg:part="2"><path id="kvg:099e2-s16" kvg:type="㇑" d="M79.75 34.73c.61.42.98 1.91 1.11 2.76.12.85.0 56.69-.12 62"/></g></g></g></g></g></g><g id="kvg:StrokeNumbers_099e2" style="font-size:8;fill:#808080"><text transform="matrix(1 0 0 1 9.50 27.50)">1</text><text transform="matrix(1 0 0 1 16.66 16.85)">2</text><text transform="matrix(1 0 0 1 33.50 26.50)">3</text><text transform="matrix(1 0 0 1 20.32 30.50)">4</text><text transform="matrix(1 0 0 1 20.50 43.50)">5</text><text transform="matrix(1 0 0 1 20.50 57.50)">6</text><text transform="matrix(1 0 0 1 5.50 74.50)">7</text><text transform="matrix(1 0 0 1 13.60 78.50)">8</text><text transform="matrix(1 0 0 1 20.50 75.50)">9</text><text transform="matrix(1 0 0 1 25.50 71.50)">10</text><text transform="matrix(1 0 0 1 47.50 10.50)">11</text><text transform="matrix(1 0 0 1 72.50 8.50)">12</text><text transform="matrix(1 0 0 1 48.50 31.50)">13</text><text transform="matrix(1 0 0 1 46.50 54.50)">14</text><text transform="matrix(1 0 0 1 53.50 43.50)">15</text><text transform="matrix(1 0 0 1 69.50 41.50)">16</text></g></svg>