<!DOCTYPE svg PUBLIC "-//W3C//DTD SVG 1.0//EN" "http://www.w3.org/TR/2001/REC-SVG-20010904/DTD/svg10.dtd" [
<!ATTLIST g
xmlns:kvg CDATA #FIXED "http://kanjivg.tagaini.net"
kvg:element CDATA #IMPLIED
kvg:variant CDATA #IMPLIED
kvg:partial CDATA #IMPLIED
kvg:original CDATA #IMPLIED
kvg:part CDATA #IMPLIED
kvg:number CDATA #IMPLIED
kvg:tradForm CDATA #IMPLIED
kvg:radicalForm CDATA #IMPLIED
kvg:position CDATA #IMPLIED
kvg:radical CDATA #IMPLIED
kvg:phon CDATA #IMPLIED >
<!ATTLIST path
xmlns:kvg CDATA #FIXED "http://kanjivg.tagaini.net"
kvg:type CDATA #IMPLIED >
]><svg xmlns="http://www.w3.org/2000/svg" width="109" height="109" viewBox="0 0 109 109"><g id="kvg:StrokePaths_099f1" style="fill:none;stroke:#000000;stroke-width:3;stroke-linecap:round;stroke-linejoin:round;"><g id="kvg:099f1" kvg:element="駱"><g id="kvg:099f1-g1" kvg:element="馬" kvg:position="left" kvg:radical="general"><path id="kvg:099f1-s1" kvg:type="㇑" d="M14.89 18.99c.86 1.01.99 2.9.99 4.01-.05 9.71-.29 38.45-1 41.25"/><path id="kvg:099f1-s2" kvg:type="㇐b" d="M15.96 20.62c7.98-.54 20.29-2.62 24.73-2.78.97-.03 2.58-.26 3.06-.03"/><path id="kvg:099f1-s3" kvg:type="㇑a" d="M28.72 20.18c.26.39.97.91.97 1.54-.02 6.41-.07 29.04-.26 39.12"/><path id="kvg:099f1-s4" kvg:type="㇐b" d="M16.32 34.98c6.39-.61 20.16-2.16 22.9-2.57.96-.14 2.58-.25 3.06-.03"/><path id="kvg:099f1-s5" kvg:type="㇐b" d="M16.42 47.52c6.39-.61 20.67-2.18 23.41-2.59.96-.14 2.58-.26 3.06-.03"/><path id="kvg:099f1-s6" kvg:type="㇆a" d="M15.63 63.62c6.3-1.47 21.49-3.7 24.96-4.31 3.16-.56 4.77 1.42 4.53 5.2-.68 10.75-2.96 21.67-6.24 28.64-2.81 5.97-6.93.42-7.84-.89"/><g id="kvg:099f1-g2" kvg:element="灬" kvg:variant="true" kvg:original="火"><path id="kvg:099f1-s7" kvg:type="㇔" d="M11.66 73.3c.31 6.28-.62 11.8-.95 13.05"/><path id="kvg:099f1-s8" kvg:type="㇔" d="M16.96 73.03c1.62 2.6 2.99 5.88 3.36 10.52"/><path id="kvg:099f1-s9" kvg:type="㇔" d="M24.41 70.21c.83 1.23 3.81 5.28 4.18 9.28"/><path id="kvg:099f1-s10" kvg:type="㇔" d="M31.83 67.19c1.69 2.55 4.47 5.2 5.08 8.58"/></g></g><g id="kvg:099f1-g3" kvg:element="各" kvg:position="right"><g id="kvg:099f1-g4" kvg:element="夂" kvg:position="top"><path id="kvg:099f1-s11" kvg:type="㇒" d="M67.79 13.25c.05.66.25 1.74-.1 2.63C65 22.75 59 33 50.57 41.57"/><path id="kvg:099f1-s12" kvg:type="㇇" d="M66.26 23.66c.3.04 1.6.0 2.47-.1 2.85-.33 10.43-2.42 14.5-3.45 2.8-.7 3.59.8 2.88 2.71-3.92 10.44-19.84 35.33-37.42 42.21"/><path id="kvg:099f1-s13" kvg:type="㇏" d="M61.15 31.08c4.93 5.06 27.26 24.28 33.9 28.9 1.98 1.38 3.58 2.05 5.51 2.46"/></g><g id="kvg:099f1-g5" kvg:element="口" kvg:position="bottom"><path id="kvg:099f1-s14" kvg:type="㇑" d="M55.83 67.13c.38.48.76.88.93 1.47 1.31 4.74 2.36 18.34 3.26 26.85"/><path id="kvg:099f1-s15" kvg:type="㇕b" d="M58.19 69.28c10.64-1.6 24.18-3.04 28.62-3.66 1.62-.23 2.59 1.35 2.36 2.68-.96 5.53-3.13 13.28-4.55 20.93"/><path id="kvg:099f1-s16" kvg:type="㇐b" d="M60.2 92.87c5.21-.7 19.4-1.33 26.55-2.41"/></g></g></g></g><g id="kvg:StrokeNumbers_099f1" style="font-size:8;fill:#808080"><text transform="matrix(1 0 0 1 8.50 28.50)">1</text><text transform="matrix(1 0 0 1 17.50 17.50)">2</text><text transform="matrix(1 0 0 1 33.50 26.50)">3</text><text transform="matrix(1 0 0 1 20.04 31.85)">4</text><text transform="matrix(1 0 0 1 19.50 44.85)">5</text><text transform="matrix(1 0 0 1 19.50 58.50)">6</text><text transform="matrix(1 0 0 1 5.50 77.50)">7</text><text transform="matrix(1 0 0 1 13.50 82.50)">8</text><text transform="matrix(1 0 0 1 21.50 78.50)">9</text><text transform="matrix(1 0 0 1 26.44 73.50)">10</text><text transform="matrix(1 0 0 1 56.50 14.50)">11</text><text transform="matrix(1 0 0 1 71.50 19.50)">12</text><text transform="matrix(1 0 0 1 57.50 42.50)">13</text><text transform="matrix(1 0 0 1 47.50 76.50)">14</text><text transform="matrix(1 0 0 1 61.50 65.50)">15</text><text transform="matrix(1 0 0 1 61.50 89.50)">16</text></g></svg>