<svg xmlns="http://www.w3.org/2000/svg" width="109" height="109" viewBox="0 0 109 109"><g id="kvg:StrokePaths_099ff" style="fill:none;stroke:#000000;stroke-width:3;stroke-linecap:round;stroke-linejoin:round;"><g id="kvg:099ff" kvg:element="駿"><g id="kvg:099ff-g1" kvg:element="馬" kvg:position="left" kvg:radical="general"><path id="kvg:099ff-s1" kvg:type="㇑" d="M14.99 17.62c.76.63 1 1.61 1 2.88.0 7.47.01 24.2.01 34.25.0 2.35.0 4.33.0 5.75"/><path id="kvg:099ff-s2" kvg:type="㇐b" d="M17.27 19.26c8.35-1.64 13.73-2.51 19.75-3.37 1.37-.19 3.69-.2 5.01.42"/><path id="kvg:099ff-s3" kvg:type="㇑a" d="M28.06 19.32c.81.81.95 1.8.95 3.68.0 8.33.0 28.91.0 34.72"/><path id="kvg:099ff-s4" kvg:type="㇐b" d="M16.91 32.59c5.55-.64 14-1.69 18.96-2.26 1.24-.14 3.52-.67 4.73.02"/><path id="kvg:099ff-s5" kvg:type="㇐b" d="M17.26 45.38c4.13-.39 13.47-1.36 18.51-2.01 1.44-.19 3.51-.66 4.93-.01"/><path id="kvg:099ff-s6" kvg:type="㇆a" d="M16.49 60.4C24 59 35.5 57.25 40.17 56.76c2.07-.22 3.58 1.49 3.45 3.95C43.07 71.07 40 84.5 35 90.75c-3.98 4.98-5.32.41-6.21-.86"/><g id="kvg:099ff-g2" kvg:element="灬" kvg:variant="true" kvg:original="火"><path id="kvg:099ff-s7" kvg:type="㇔" d="M12.14 71.25c.48 6.05-1.73 11.37-2.24 12.57"/><path id="kvg:099ff-s8" kvg:type="㇔" d="M17.61 69.5c1.22 2.72 2.25 6.15 2.53 11"/><path id="kvg:099ff-s9" kvg:type="㇔" d="M24.52 66.97c.73 1.33 3.34 5.7 3.66 10.03"/><path id="kvg:099ff-s10" kvg:type="㇔" d="M31.51 63.5c1.74 2.25 3.76 5.65 4.23 9"/></g></g><g id="kvg:099ff-g3" kvg:element="夋" kvg:position="right"><g id="kvg:099ff-g4" kvg:element="允" kvg:position="top"><g id="kvg:099ff-g5" kvg:element="厶" kvg:position="top"><path id="kvg:099ff-s11" kvg:type="㇜" d="M64.93 12.75c.19 1 .01 2.09-.62 3.08-4.5 7.17-7.42 10.69-12.7 16.55-1.94 2.18-1.39 3.34 1.22 2.75 8.09-1.83 21.73-6.01 31.95-8.37"/><path id="kvg:099ff-s12" kvg:type="㇔" d="M78.05 19.26c4.25 2.76 10.72 11.59 11.78 15.87"/></g><g id="kvg:099ff-g6" kvg:element="儿" kvg:position="bottom"><g id="kvg:099ff-g7" kvg:element="丿" kvg:position="left"><path id="kvg:099ff-s13" kvg:type="㇒" d="M59.48 38.11c.11 1.21-.11 1.99-.72 3.1-2.04 3.74-6.41 9.11-12.14 13.29"/></g><g id="kvg:099ff-g8" kvg:position="right"><path id="kvg:099ff-s14" kvg:type="㇟" d="M71.34 34.05c.93.93 1.04 2.2 1.04 3.71.0 3.63-.01 4.78-.01 7.24.0 4 1.75 5.22 10.38 5.22 5.32.0 8.63-.45 9.57-1.88"/></g></g></g><g id="kvg:099ff-g9" kvg:element="夂" kvg:position="bottom"><path id="kvg:099ff-s15" kvg:type="㇒" d="M63.73 52c.14 1 .02 1.88-.57 3.2-2.7 6.08-9.16 16.3-17.13 24.15"/><path id="kvg:099ff-s16" kvg:type="㇇" d="M64.16 60.31c1.59.69 4.04.55 5.2.36 3.53-.57 8.69-2.15 11.15-2.95 2.61-.85 4.11 1.03 3.18 3.35C79.05 72.67 61 90 45.24 96.75"/><path id="kvg:099ff-s17" kvg:type="㇏" d="M58.54 66.43c3.29.76 18.54 17.36 26.86 25.42 2.34 2.27 5.47 4.65 8.67 6.03"/></g></g></g></g></svg>