<svg xmlns="http://www.w3.org/2000/svg" width="109" height="109" viewBox="0 0 109 109"><g id="kvg:StrokePaths_09a05" style="fill:none;stroke:#000000;stroke-width:3;stroke-linecap:round;stroke-linejoin:round;"><g id="kvg:09a05" kvg:element="騅"><g id="kvg:09a05-g1" kvg:element="馬" kvg:position="left" kvg:radical="general"><path id="kvg:09a05-s1" kvg:type="㇑" d="M16.94 16.31c.56.69.99 2.88.99 3.95-.05 9.81-.31 39.39-1.07 42.26"/><path id="kvg:09a05-s2" kvg:type="㇐b" d="M19.62 17.44c8.57-.56 22.35-2.47 24.95-2.84 1.03-.15 2.77-.26 3.29-.03"/><path id="kvg:09a05-s3" kvg:type="㇑a" d="M31.71 17.5c.28.4 1.05.93 1.04 1.58-.02 6.55-.07 29.67-.28 39.97"/><path id="kvg:09a05-s4" kvg:type="㇐b" d="M18.4 32.61c6.86-.62 20.14-3.2 23.09-3.61 1.03-.15 2.77-.26 3.29-.03"/><path id="kvg:09a05-s5" kvg:type="㇐b" d="M18.01 45.94c6.86-.62 20.69-3.73 23.63-4.14 1.03-.15 2.77-.26 3.29-.03"/><path id="kvg:09a05-s6" kvg:type="㇆a" d="M17.66 61.88c6.77-1.5 22.15-3.78 25.87-4.42 4.75-.81 4.59 2.98 4.33 6.85-.73 10.98-2.65 22.17-6.16 29.28-3.01 6.1-5.83.43-6.81-.91"/><g id="kvg:09a05-g2" kvg:element="灬" kvg:variant="true" kvg:original="火"><path id="kvg:09a05-s7" kvg:type="㇔" d="M12.37 71.58c.31 6.8-.63 12.78-.95 14.14"/><path id="kvg:09a05-s8" kvg:type="㇔" d="M19.87 71.49c1.19 2.23 2.19 5.04 2.47 9.02"/><path id="kvg:09a05-s9" kvg:type="㇔" d="M28.12 68.98c.61 1.09 2.81 4.69 3.08 8.25"/><path id="kvg:09a05-s10" kvg:type="㇔" d="M35.63 66.83c1.37 2.13 3.62 4.34 4.11 7.16"/></g></g><g id="kvg:09a05-g3" kvg:element="隹" kvg:position="right"><g id="kvg:09a05-g4" kvg:element="亻" kvg:variant="true" kvg:original="人"><path id="kvg:09a05-s11" kvg:type="㇒" d="M63.63 13c.16 1.72-.04 3.97-.56 5.44-3.25 9.38-7.37 17.32-14.82 28.74"/><path id="kvg:09a05-s12" kvg:type="㇑" d="M56.69 33.65c.63.88 1.11 2.8 1.15 4.16.37 12.12-.51 55.13-.2 61.44"/></g><path id="kvg:09a05-s13" kvg:type="㇒" d="M82.69 13c.07.92-.02 2.12-.24 2.9-1.44 5-3.26 8.87-6.56 14.96"/><path id="kvg:09a05-s14" kvg:type="㇐b" d="M57.66 34.41c10.09-.91 36.09-2.96 39.22-3.59"/><path id="kvg:09a05-s15" kvg:type="㇑a" d="M75.81 34.33c.55.7.99 1.65.99 2.85.0 12.21.06 34.88-.27 54.12"/><path id="kvg:09a05-s16" kvg:type="㇐b" d="M58.14 51.82c6.89-.94 32-2.69 34.95-3.21"/><path id="kvg:09a05-s17" kvg:type="㇐b" d="M57.8 70.29c7.27-.8 33.15-2.91 36.27-3.35"/><path id="kvg:09a05-s18" kvg:type="㇐b" d="M57.8 93.18c7.3-1.14 36.06-2.32 39.2-2.95"/></g></g></g></svg>