<svg xmlns="http://www.w3.org/2000/svg" width="109" height="109" viewBox="0 0 109 109"><g id="kvg:StrokePaths_09a01"><g id="kvg:09a01" kvg:element="騁"><g id="kvg:09a01-g1" kvg:element="馬" kvg:position="left" kvg:radical="general"><path id="kvg:09a01-s1" kvg:type="㇑" d="M14.94 16.8c.81.7.99 3.01.99 4.2-.05 9.96-.29 38.54-1 41.38"/><path id="kvg:09a01-s2" kvg:type="㇐b" d="M16.52 18.43c8.03-.55 21.95-3.46 24.39-3.83.96-.15 2.6-.26 3.08-.03"/><path id="kvg:09a01-s3" kvg:type="㇑a" d="M29.35 17.49c.26.4.98.93.98 1.57-.02 6.53-.07 29.58-.26 39.85"/><path id="kvg:09a01-s4" kvg:type="㇐b" d="M16.37 32.05c6.43-.62 18.79-2.69 21.55-3.11.96-.15 2.6-.26 3.08-.03"/><path id="kvg:09a01-s5" kvg:type="㇐b" d="M16.47 45.85c6.43-.62 19.81-3.22 22.56-3.63.96-.15 2.6-.26 3.08-.03"/><path id="kvg:09a01-s6" kvg:type="㇆a" d="M15.68 62.24c6.34-1.49 22.62-3.92 26.13-4.4 2.44-.33 4.3 1.47 4.06 5.33-.69 10.95-4.48 24.1-7.77 31.19-2.83 6.08-6.46.43-7.38-.91"/><g id="kvg:09a01-g2" kvg:element="灬" kvg:variant="true" kvg:original="火"><path id="kvg:09a01-s7" kvg:type="㇔" d="M11.42 73.14c.36 6.42-.74 12.06-1.12 13.35"/><path id="kvg:09a01-s8" kvg:type="㇔" d="M17.46 72.06c1.39 2.78 2.57 6.28 2.89 11.24"/><path id="kvg:09a01-s9" kvg:type="㇔" d="M25.28 69.31c.68 1.29 3.12 5.53 3.43 9.73"/><path id="kvg:09a01-s10" kvg:type="㇔" d="M33.17 66.41c1.04 2.35 2.76 4.78 3.13 7.89"/></g></g><g id="kvg:09a01-g3" kvg:element="甹" kvg:position="right"><g id="kvg:09a01-g4" kvg:element="由" kvg:position="top"><path id="kvg:09a01-s11" kvg:type="㇑" d="M52.31 20.45c.57.73 1.01 1.48 1.14 2.12 1.09 5.23 3.16 16.51 3.8 26.15"/><path id="kvg:09a01-s12" kvg:type="㇕a" d="M54.28 22.99c9.17-1.19 29.52-3.41 35.32-3.88 2.13-.17 2.93 1.21 2.81 2.49-.43 4.68-1.71 15.73-3.05 23.45"/><path id="kvg:09a01-s13" kvg:type="㇑a" d="M69.71 8.11c1.22 1.04 1.94 2.54 1.95 3.9.04 13.49.22 29.51.22 33.03"/><path id="kvg:09a01-s14" kvg:type="㇐a" d="M55.66 33.64c2.53-.23 33.66-3.21 35.75-3.21"/><path id="kvg:09a01-s15" kvg:type="㇐a" d="M57.41 46.27c6.4-.34 24.3-2.37 32.03-2.5"/></g><g id="kvg:09a01-g5" kvg:position="bottom"><path id="kvg:09a01-s16" kvg:type="㇐" d="M51.54 57.69c1.37.26 3.88.29 5.24.26 10.59-.23 21.92-2.64 37.13-3 2.28-.05 3.65.12 4.79.26"/><path id="kvg:09a01-s17" kvg:type="㇉" d="M65.95 59.52c.31.59.48 1.34.06 2.18-1.17 2.34-5.04 6.17-6.6 8.52-.88 1.33-.28 2.56 1.84 2.18 3.86-.69 18.34-2.7 23.11-3.56C89 68 89.55 70.67 88.4 73.66c-2.65 6.84-6.65 15.59-13.79 22.69-4.56 4.54-6.11 1.65-7.93-1.21"/></g></g></g></g></svg>