<!DOCTYPE svg PUBLIC "-//W3C//DTD SVG 1.0//EN" "http://www.w3.org/TR/2001/REC-SVG-20010904/DTD/svg10.dtd" [
<!ATTLIST g
xmlns:kvg CDATA #FIXED "http://kanjivg.tagaini.net"
kvg:element CDATA #IMPLIED
kvg:variant CDATA #IMPLIED
kvg:partial CDATA #IMPLIED
kvg:original CDATA #IMPLIED
kvg:part CDATA #IMPLIED
kvg:number CDATA #IMPLIED
kvg:tradForm CDATA #IMPLIED
kvg:radicalForm CDATA #IMPLIED
kvg:position CDATA #IMPLIED
kvg:radical CDATA #IMPLIED
kvg:phon CDATA #IMPLIED >
<!ATTLIST path
xmlns:kvg CDATA #FIXED "http://kanjivg.tagaini.net"
kvg:type CDATA #IMPLIED >
]><svg xmlns="http://www.w3.org/2000/svg" width="109" height="109" viewBox="0 0 109 109"><g id="kvg:StrokePaths_09a19" style="fill:none;stroke:#000000;stroke-width:3;stroke-linecap:round;stroke-linejoin:round;"><g id="kvg:09a19" kvg:element="騙"><g id="kvg:09a19-g1" kvg:element="馬" kvg:position="left" kvg:radical="general"><path id="kvg:09a19-s1" kvg:type="㇑" d="M14.59 19.62c.66.38 1 2.57.99 3.38-.04 8.78-.27 37.5-.96 40.25"/><path id="kvg:09a19-s2" kvg:type="㇐b" d="M16.59 21.26c7.66-.52 20.98-1.83 23.3-2.17.92-.14 2.47-.25 2.94-.03"/><path id="kvg:09a19-s3" kvg:type="㇑a" d="M27.9 23.32c.25.38.94.88.93 1.49-.02 6.17-.06 25.46-.25 35.16"/><path id="kvg:09a19-s4" kvg:type="㇐b" d="M16 35.09c6.13-.58 18.35-2.1 20.98-2.49.92-.14 2.48-.24 2.94-.02"/><path id="kvg:09a19-s5" kvg:type="㇐b" d="M16.1 47.12c6.13-.59 18.84-2.1 21.47-2.49.92-.14 2.47-.25 2.94-.03"/><path id="kvg:09a19-s6" kvg:type="㇆a" d="M14.84 62.65c7.41-.9 19.59-2.54 22.91-3.13 4.24-.76 4.6 1.31 4.37 4.95-.66 10.35-2.87 21.83-6 28.53-2.69 5.75-5.71.41-6.59-.86"/><g id="kvg:09a19-g2" kvg:element="灬" kvg:variant="true" kvg:original="火"><path id="kvg:09a19-s7" kvg:type="㇔" d="M12.52 74.25c.36 6.29-1.24 11.82-1.62 13.07"/><path id="kvg:09a19-s8" kvg:type="㇔" d="M18.04 72.75c1.33 2.66 2.45 6.01 2.75 10.75"/><path id="kvg:09a19-s9" kvg:type="㇔" d="M24.03 70.72c.72 1.09 3.29 4.71 3.61 8.28"/><path id="kvg:09a19-s10" kvg:type="㇔" d="M30.74 68.75c1.22 2.01 3.23 4.09 3.67 6.75"/></g></g><g id="kvg:09a19-g3" kvg:element="扁" kvg:position="right"><g id="kvg:09a19-g4" kvg:element="戸" kvg:position="tare"><path id="kvg:09a19-s11" kvg:type="㇒" d="M96.057979 12.226684c-.496877.5437-1.016435.678031-2.220245.996858-9.582458 2.537898-29.170807 6.201896-40.300651 6.300416"/><path id="kvg:09a19-s12" kvg:type="㇒" d="M53.34 19.303958c.19 1.09.32 3.32.33 5.19C53.77 47.943958 51.37 77.64 43.5 86.51"/><path id="kvg:09a19-s13" kvg:type="㇕c" d="M54.54 31.51c8.02.91 29.9-2.48 38.19-3.26 1.54-.15 3.89.33 3.03 3.13-1.28 4.18-2.26 5.74-3.61 10.7"/><path id="kvg:09a19-s14" kvg:type="㇐b" d="M53.72 46c6.36.0 27.42-2.87 38.6-3.39"/></g><g id="kvg:09a19-g5" kvg:element="冊" kvg:position="tarec"><g id="kvg:09a19-g6" kvg:element="冂"><path id="kvg:09a19-s15" kvg:type="㇑" d="M54.93 60.54c.39.61.65 1.58.52 2.68-.13 1.1.07 31.46.07 33.28"/><path id="kvg:09a19-s16" kvg:type="㇆a" d="M56.74 60.8c4.91-.49 34.43-2.7 35.4-2.87 2.07-.37 3.01 2.24 3.01 2.89.0 6.46-.29 26.5-.98 30.2-1.17 6.23-4.67 2.32-6.22.73"/></g><g id="kvg:09a19-g7" kvg:element="廾" kvg:variant="true"><g id="kvg:09a19-g8" kvg:element="十" kvg:part="1" kvg:variant="true"><path id="kvg:09a19-s17" kvg:type="㇐" d="M55.98 75.57c5.61-.38 25.52-2.61 37.79-2.86"/></g><g id="kvg:09a19-g9" kvg:element="丿" kvg:variant="true"><path id="kvg:09a19-s18" kvg:type="㇑" d="M66.46 61.76c.72.28 1.16 1.25 1.3 1.8.14.56.0 26.9-.14 30.37"/></g><g id="kvg:09a19-g10" kvg:element="十" kvg:part="2" kvg:variant="true"><path id="kvg:09a19-s19" kvg:type="㇑" d="M78.24 60.4c.72.28 1.16 1.28 1.3 1.85s0 27.33-.15 30.89"/></g></g></g></g></g></g><g id="kvg:StrokeNumbers_09a19" style="font-size:8;fill:#808080"><text transform="matrix(1 0 0 1 9.50 28.50)">1</text><text transform="matrix(1 0 0 1 17.50 17.50)">2</text><text transform="matrix(1 0 0 1 32.50 27.50)">3</text><text transform="matrix(1 0 0 1 19.34 32.50)">4</text><text transform="matrix(1 0 0 1 19.50 43.50)">5</text><text transform="matrix(1 0 0 1 19.38 58.50)">6</text><text transform="matrix(1 0 0 1 6.50 77.50)">7</text><text transform="matrix(1 0 0 1 14.50 81.50)">8</text><text transform="matrix(1 0 0 1 20.50 77.50)">9</text><text transform="matrix(1 0 0 1 25.50 73.50)">10</text><text transform="matrix(1 0 0 1 85.8 10.5)">11</text><text transform="matrix(1 0 0 1 42.3 26.2)">12</text><text transform="matrix(1 0 0 1 55.50 28.50)">13</text><text transform="matrix(1 0 0 1 57.25 42.73)">14</text><text transform="matrix(1 0 0 1 47.25 85.50)">15</text><text transform="matrix(1 0 0 1 56.50 57.50)">16</text><text transform="matrix(1 0 0 1 58.50 72.50)">17</text><text transform="matrix(1 0 0 1 69.50 67.50)">18</text><text transform="matrix(1 0 0 1 82.50 66.50)">19</text></g></svg>