<svg xmlns="http://www.w3.org/2000/svg" width="109" height="109" viewBox="0 0 109 109"><g id="kvg:StrokePaths_09a40"><g id="kvg:09a40" kvg:element="驀"><g id="kvg:09a40-g1" kvg:element="莫" kvg:position="top"><g id="kvg:09a40-g2" kvg:element="艹" kvg:variant="true" kvg:original="艸" kvg:position="top" kvg:radical="nelson"><path id="kvg:09a40-s1" kvg:type="㇐" d="M21 18.39c1.54.54 3.34.65 4.89.54 14.2-.98 39.84-4.06 56.21-4.13 2.57-.01 4.12.26 5.41.53"/><path id="kvg:09a40-s2" kvg:type="㇑a" d="M36.75 9.93c1.75 1.07 2.31 1.4 2.5 2.06C41 18.15 40.5 20.88 41 23.12"/><path id="kvg:09a40-s3" kvg:type="㇑a" d="M66.32 8.25c.38.79.78 1.36.45 2.35-1.56 4.71-1.23 6.23-3.01 10.93"/></g><g id="kvg:09a40-g3" kvg:position="bottom"><g id="kvg:09a40-g4" kvg:element="日"><path id="kvg:09a40-s4" kvg:type="㇑" d="M31.02 27.31c.52.44 1.46 1.89 1.55 2.47.7 4.4 2.68 13.85 2.68 14.14.0.29.17.29.35.87"/><path id="kvg:09a40-s5" kvg:type="㇕a" d="M33.44 28.62c7.92-.82 37.33-3.41 40.02-3.49 2.24-.07 3.6 2.02 3.51 2.47-.73 3.5-3 12.14-4.23 15.75"/><path id="kvg:09a40-s6" kvg:type="㇐a" d="M33.96 36.17c6.24-.38 36.59-3.38 41.11-3.38"/><path id="kvg:09a40-s7" kvg:type="㇐a" d="M35.8 43.57c8.13-.31 26.6-1.56 36.73-1.83"/></g><g id="kvg:09a40-g5" kvg:element="大"><path id="kvg:09a40-s8" kvg:type="㇐" d="M16.88 52.93c2.21.42 4.7.23 6.15.12 27.07-2.09 40.7-3.49 61.82-4.46 1.83-.09 5.11-.09 7.15-.09"/><path id="kvg:09a40-s9" kvg:type="㇒" d="M44.16 45.54C44 46.5 44.45 47.02 44 47.78 37 59.5 26.5 68 10.75 75.5"/><path id="kvg:09a40-s10" kvg:type="㇏" d="M60.25 50.62c6.5 1.49 23.87 16.09 30.77 19.3 2.35 1.09 3.16 1.25 4.23 1.36"/></g></g></g><g id="kvg:09a40-g6" kvg:element="馬" kvg:position="bottom" kvg:radical="tradit"><path id="kvg:09a40-s11" kvg:type="㇑" d="M36.68 58.87c.3.19.62 1.23.62 1.55.0 3.3.03 16.95-.15 22.14"/><path id="kvg:09a40-s12" kvg:type="㇐b" d="M38.16 60.26c7.28-.65 21.27-1.9 24.4-2.26 1.09-.12 2.94-.27 3.49-.17"/><path id="kvg:09a40-s13" kvg:type="㇑a" d="M52.7 60.06c.3.18.53.44.53.77.0 3.3.03 14.43-.15 19.62"/><path id="kvg:09a40-s14" kvg:type="㇐b" d="M37.83 67.59c7.28-.65 22.98-1.91 26.1-2.26 1.09-.12 2.94-.27 3.49-.17"/><path id="kvg:09a40-s15" kvg:type="㇐b" d="M38 74.54c7.28-.65 22.98-1.91 26.1-2.26 1.09-.12 2.94-.27 3.49-.17"/><path id="kvg:09a40-s16" kvg:type="㇆a" d="M37.16 82.26c10.02-1.23 34.1-2.82 39.66-3.27 3.61-.29 5.65 1.35 5.22 3.39-1.19 5.6-2.54 10.88-4.46 14.93-2.73 5.76-5.83 1.45-7.79-1.02"/><g id="kvg:09a40-g7" kvg:element="灬" kvg:variant="true" kvg:original="火"><path id="kvg:09a40-s17" kvg:type="㇔" d="M30.43 89.33c-.18 3.92-2.1 7.86-4.54 10.08"/><path id="kvg:09a40-s18" kvg:type="㇔" d="M39.83 88.56c1.31 1.68 2.55 6.29 2.87 8.9"/><path id="kvg:09a40-s19" kvg:type="㇔" d="M52.39 86.97c1.25 1.39 3.22 5.7 3.53 7.86"/><path id="kvg:09a40-s20" kvg:type="㇔" d="M62.26 84.53c1.51 1.1 3.91 4.52 4.28 6.23"/></g></g></g></g></svg>