<svg xmlns="http://www.w3.org/2000/svg" width="109" height="109" viewBox="0 0 109 109"><g id="kvg:StrokePaths_09a5f"><g id="kvg:09a5f" kvg:element="驟"><g id="kvg:09a5f-g1" kvg:element="馬" kvg:position="left" kvg:radical="general"><path id="kvg:09a5f-s1" kvg:type="㇑" d="M14.54 16.62c.96.63 1 2.57.99 3.38-.04 8.78-.26 37.5-.95 40.25"/><path id="kvg:09a5f-s2" kvg:type="㇐b" d="M15.53 17.76c7.6-.52 19.84-2.33 22.14-2.67.91-.14 2.46-.25 2.92-.03"/><path id="kvg:09a5f-s3" kvg:type="㇑a" d="M27.27 17.82c.25.38.93.88.93 1.49-.02 6.17-.06 27.96-.24 37.66"/><path id="kvg:09a5f-s4" kvg:type="㇐b" d="M15.45 32.59c6.09-.58 19.21-3.1 21.82-3.49.91-.14 2.46-.24 2.92-.02"/><path id="kvg:09a5f-s5" kvg:type="㇐b" d="M15.54 45.12c6.09-.59 19.2-2.1 21.81-2.49.91-.14 2.46-.25 2.92-.03"/><path id="kvg:09a5f-s6" kvg:type="㇆a" d="M14.79 60.65c6.01-1.41 19.94-4.04 23.24-4.63 4.21-.76 4.07 2.81 3.84 6.45-.65 10.35-2.85 21.33-5.97 28.03-2.67 5.75-5.17.41-6.04-.86"/><g id="kvg:09a5f-g2" kvg:element="灬" kvg:variant="true" kvg:original="火"><path id="kvg:09a5f-s7" kvg:type="㇔" d="M9.77 71c.27 6.41-.56 12.04-.85 13.32"/><path id="kvg:09a5f-s8" kvg:type="㇔" d="M15.85 69c1.56 2.6 2.87 5.87 3.23 10.5"/><path id="kvg:09a5f-s9" kvg:type="㇔" d="M21.96 67.47c.89 1.19 4.09 5.13 4.48 9.03"/><path id="kvg:09a5f-s10" kvg:type="㇔" d="M29.84 65.75c1.28 2.16 3.39 4.39 3.85 7.25"/></g></g><g id="kvg:09a5f-g3" kvg:element="聚" kvg:position="right"><g id="kvg:09a5f-g4" kvg:element="取" kvg:position="top"><g id="kvg:09a5f-g5" kvg:element="耳" kvg:position="left"><path id="kvg:09a5f-s11" kvg:type="㇐" d="M45.44 17.19c.63.2 1.79.25 2.43.2 5.51-.43 14.19-2.32 21.1-2.64 1.05-.05 1.69.1 2.22.2"/><path id="kvg:09a5f-s12" kvg:type="㇑a" d="M51.97 17.75c.46.54.81 1.75.81 2.79s.21 20.56.21 24.29"/><path id="kvg:09a5f-s13" kvg:type="㇐a" d="M53.4 27.15c3.21-.38 10.44-1.79 12.81-1.81"/><path id="kvg:09a5f-s14" kvg:type="㇐a" d="M53.54 35.98c3.24-.48 8.92-1.62 12.71-2.12"/><path id="kvg:09a5f-s15" kvg:type="㇀" d="M46.98 46.57c.19.37 1.98.68 2.62.43 3.05-1.19 10.77-4.46 16.65-6.41"/><path id="kvg:09a5f-s16" kvg:type="㇑" d="M65.68 17.56c.38.93.75 1.7.75 2.69.0.99.11 21.16.11 29.25"/></g><g id="kvg:09a5f-g6" kvg:element="又" kvg:position="right"><path id="kvg:09a5f-s17" kvg:type="㇇" d="M73.29 21.12c1.29.16 2.33.39 3.75.15 1.42-.23 12.75-3.02 13.74-3.13 1.45-.16 2.33.79 1.79 2.28-3.91 10.75-12.81 19.55-19.62 22.92"/><path id="kvg:09a5f-s18" kvg:type="㇏" d="M74.62 26.59c8.31 4.16 17.64 11.46 22.98 19.54"/></g></g><g id="kvg:09a5f-g7" kvg:position="bottom"><g id="kvg:09a5f-g8" kvg:element="亻" kvg:variant="true" kvg:original="人"><path id="kvg:09a5f-s19" kvg:type="㇒" d="M82.93 44.5c.07.33.28.95-.15 1.33-5.35 4.67-13.26 8.95-27.2 12.71"/><path id="kvg:09a5f-s20" kvg:type="㇑" d="M71.99 56.24c.62 1.07 1.23 1.94 1.23 3.06.0 1.12-.07 28.48-.07 37.7"/></g><path id="kvg:09a5f-s21" kvg:type="㇒" d="M61.63 61.64c.04.29.08.75-.08 1.17-.96 2.46-6.43 7.86-13.92 11.16"/><path id="kvg:09a5f-s22" kvg:type="㇒" d="M65.45 73.14c.05.39.11 1.01-.11 1.57-1.29 3.31-8.69 10.56-18.83 15.01"/><path id="kvg:09a5f-s23" kvg:type="㇒" d="M91.45 57.64c.03.27-.32 1.25-.56 1.57-2.14 2.79-5.39 6.29-10.3 9.75"/><path id="kvg:09a5f-s24" kvg:type="㇏" d="M74.46 66.23c2.09.46 12.28 12.82 19.55 17.89 1.13.79 1.95 1.31 3.01 1.58"/></g></g></g></g></svg>