<svg xmlns="http://www.w3.org/2000/svg" width="109" height="109" viewBox="0 0 109 109"><g id="kvg:StrokePaths_09a55"><g id="kvg:09a55" kvg:element="驕"><g id="kvg:09a55-g1" kvg:element="馬" kvg:position="left" kvg:radical="general"><path id="kvg:09a55-s1" kvg:type="㇑" d="M14.24 17.12c1.01.88 1 2.91.99 3.88-.02 7.23-.07 23.51-.17 34-.02 2.35-.03 3.25-.81 6.25"/><path id="kvg:09a55-s2" kvg:type="㇐b" d="M16.77 18.26c7.82-.52 20.4-2.33 22.76-2.67.94-.14 2.53-.25 3-.03"/><path id="kvg:09a55-s3" kvg:type="㇑a" d="M27.81 18.32c.25.38.96.88.95 1.49-.02 6.17-.06 28.46-.25 38.16"/><path id="kvg:09a55-s4" kvg:type="㇐b" d="M15.66 33.09c6.26-.58 19.75-3.1 22.44-3.49.94-.14 2.53-.24 3-.02"/><path id="kvg:09a55-s5" kvg:type="㇐b" d="M15.76 45.12c6.26-.59 19.75-1.6 22.44-1.99.94-.14 2.53-.25 3-.03"/><path id="kvg:09a55-s6" kvg:type="㇆a" d="M14.99 60.65c6.17-1.41 20.04-4.04 23.43-4.63 4.33-.76 4.19 2.81 3.95 6.45C41.7 72.81 39.81 84.23 36.75 91c-3.5 7.75-5.32.41-6.21-.86"/><g id="kvg:09a55-g2" kvg:element="灬" kvg:variant="true" kvg:original="火"><path id="kvg:09a55-s7" kvg:type="㇔" d="M9.79 71.5c.28 6.41-.57 12.04-.87 13.32"/><path id="kvg:09a55-s8" kvg:type="㇔" d="M17 71.5c1.08 2.1 2 4.75 2.25 8.5"/><path id="kvg:09a55-s9" kvg:type="㇔" d="M23.94 69.22c.56 1.03 2.56 4.42 2.81 7.78"/><path id="kvg:09a55-s10" kvg:type="㇔" d="M30.75 66.25c1.25 2.01 3.3 4.09 3.75 6.75"/></g></g><g id="kvg:09a55-g3" kvg:element="喬" kvg:position="right"><g id="kvg:09a55-g4" kvg:element="呑" kvg:position="top"><g id="kvg:09a55-g5" kvg:element="夭"><g id="kvg:09a55-g6" kvg:element="丿"><path id="kvg:09a55-s11" kvg:type="㇒" d="M82.58 11.48c.08.21.16.54-.16.86-2.72 2.7-13.77 5.88-28.98 8.21"/></g><g id="kvg:09a55-g7" kvg:element="大"><path id="kvg:09a55-s12" kvg:type="㇐" d="M48.3 29.5c.83.2 2.97.3 3.89.27 6.06-.22 27.81-3.81 36.41-4 1.16-.03 2.8.08 5.38.41"/><path id="kvg:09a55-s13" kvg:type="㇒" d="M67.6 20.19c.3.43.79 1.07.44 1.85C62.13 34.96 56.01 42.75 48 49.55"/><path id="kvg:09a55-s14" kvg:type="㇏" d="M74.72 28.02c4.77 4.09 15.1 13.74 19.86 16.48 1.62.93 2.18 1.07 2.92 1.16"/></g></g><g id="kvg:09a55-g8" kvg:element="口"><path id="kvg:09a55-s15" kvg:type="㇑" d="M58.84 40.66c.29.18.66.3.72.58.64 3.15 1.66 9.28 2.39 12.96"/><path id="kvg:09a55-s16" kvg:type="㇕b" d="M60.67 42.3c6.07-1.23 15.55-3.07 18.98-3.71 1.25-.24 2.71 1.16 2.53 1.78-.74 2.56-1.17 5.57-2.03 9.92"/><path id="kvg:09a55-s17" kvg:type="㇐b" d="M61.76 52.08c7.49-.58 14.71-1.46 19.64-1.62"/></g></g><g id="kvg:09a55-g9" kvg:element="冋" kvg:position="bottom"><g id="kvg:09a55-g10" kvg:element="冂"><path id="kvg:09a55-s18" kvg:type="㇑" d="M50 60.25c.5.57 1.78 2.39 1.61 3.41s2.82 29.89 2.82 31.59"/><path id="kvg:09a55-s19" kvg:type="㇆a" d="M51.25 62.25c6.38-.45 37.8-4.22 39.02-4.23 3.98-.02 4.27 1.3 4.37 5.34.11 4.39-1.39 19.14-3.69 28.71-.78 3.23-1.6 5.02-6.79-.23"/></g><g id="kvg:09a55-g11" kvg:element="口"><path id="kvg:09a55-s20" kvg:type="㇑" d="M63.17 70.65c.29.18.65.29.71.58.62 3.1 1.62 9.14 2.34 12.76"/><path id="kvg:09a55-s21" kvg:type="㇕b" d="M64.96 71.39c5.94-1.22 11.42-2.08 14.77-2.78 2.09-.44 2.7.78 2.47 2.64-.38 3.07-.95 5.77-1.98 9.39"/><path id="kvg:09a55-s22" kvg:type="㇐b" d="M66.03 82.22c3.95-.73 9.22-1.47 15.42-1.92"/></g></g></g></g></g></svg>