<svg xmlns="http://www.w3.org/2000/svg" width="109" height="109" viewBox="0 0 109 109"><g id="kvg:StrokePaths_09a65" style="fill:none;stroke:#000000;stroke-width:3;stroke-linecap:round;stroke-linejoin:round;"><g id="kvg:09a65" kvg:element="驥"><g id="kvg:09a65-g1" kvg:element="馬" kvg:position="left" kvg:radical="general"><path id="kvg:09a65-s1" kvg:type="㇑" d="M14.74 16.87c.76.82 1.49 3.07 1.49 4.32-.05 9.79-.29 36.91-.97 39.62"/><path id="kvg:09a65-s2" kvg:type="㇐b" d="M16.77 18.01c7.82-.53 21.4-2.37 23.76-2.73.94-.14 2.53-.25 3-.03"/><path id="kvg:09a65-s3" kvg:type="㇑a" d="M28.81 18.07c.25.38.96.9.95 1.51-.02 6.29-.06 28.5-.25 38.39"/><path id="kvg:09a65-s4" kvg:type="㇐b" d="M16.66 32.61c6.26-.6 19.75-2.63 22.44-3.03.94-.14 2.53-.25 3-.02"/><path id="kvg:09a65-s5" kvg:type="㇐b" d="M16.76 45.39c6.26-.6 20.25-2.14 22.94-2.54.94-.14 2.53-.25 3-.03"/><path id="kvg:09a65-s6" kvg:type="㇆a" d="M15.99 60.7c6.17-1.44 20.54-3.61 23.93-4.22 4.33-.78 4.19 2.86 3.95 6.58-.67 10.55-2.92 21.25-6.12 28.08-2.75 5.86-5.32.42-6.21-.88"/><g id="kvg:09a65-g2" kvg:element="灬" kvg:variant="true" kvg:original="火"><path id="kvg:09a65-s7" kvg:type="㇔" d="M10.79 70.83c.28 6.53-.57 12.28-.87 13.58"/><path id="kvg:09a65-s8" kvg:type="㇔" d="M17.41 69.05c1.29 2.64 2.38 5.96 2.67 10.66"/><path id="kvg:09a65-s9" kvg:type="㇔" d="M24.59 67.95c.7 1.18 3.2 5.07 3.51 8.93"/><path id="kvg:09a65-s10" kvg:type="㇔" d="M31.75 66.42c1.25 2.05 3.3 4.17 3.75 6.88"/></g></g><g id="kvg:09a65-g3" kvg:element="冀" kvg:position="right"><g id="kvg:09a65-g4" kvg:element="北" kvg:position="top"><g id="kvg:09a65-g5" kvg:position="left"><path id="kvg:09a65-s11" kvg:type="㇐" d="M49.17 21.02c1.28.16 1.6.23 2.87.23 1.28.0 10.05-1.21 11.17-1.21"/><path id="kvg:09a65-s12" kvg:type="㇑" d="M62.41 12.19c.59.82 1.08 1.78 1.08 2.33s.1 13.31.1 14.82"/><path id="kvg:09a65-s13" kvg:type="㇀" d="M48.62 33.33c.72 1.23 1.84 1.33 2.91.92 6.46-2.45 13.74-5.05 17.15-6.41"/></g><g id="kvg:09a65-g6" kvg:element="匕" kvg:position="right"><path id="kvg:09a65-s14" kvg:type="㇒" d="M92.04 14c.09.12.13.46-.09.66-2.16 1.94-7.49 4.79-12.16 5.8"/><path id="kvg:09a65-s15" kvg:type="㇟" d="M76.09 10.2c.45.31 1.06.93 1.06 1.57.0.43.15 13.12.15 14.42.0 3.27 2.8 4.27 10.18 4.41 5.77.11 9.19-.64 9.19-4.27"/></g></g><g id="kvg:09a65-g7" kvg:element="異" kvg:position="bottom"><g id="kvg:09a65-g8" kvg:element="田" kvg:position="top"><path id="kvg:09a65-s16" kvg:type="㇑" d="M55.11 39.77c.23.34.24.57.36.99 1.04 3.45 2.61 12.07 3.22 18.44"/><path id="kvg:09a65-s17" kvg:type="㇕a" d="M56.53 40.94c9.72-1.24 23.97-3.49 32.12-3.81 1.77-.07 3.6 1.07 3.14 3.27-1 4.71-1.6 9.02-2.79 15.87"/><path id="kvg:09a65-s18" kvg:type="㇑a" d="M72.71 39.77c.36.45.92 1.26.92 2.39.0 4.51-.17 8.38-.17 13.39"/><path id="kvg:09a65-s19" kvg:type="㇐a" d="M58 49.47c2.69-.17 29.71-3.21 31.93-3.21"/><path id="kvg:09a65-s20" kvg:type="㇐a" d="M58.81 57.65c7.37-.88 24.88-2.59 30.58-2.9"/></g><g id="kvg:09a65-g9" kvg:element="共" kvg:position="bottom"><g id="kvg:09a65-g10" kvg:position="top"><path id="kvg:09a65-s21" kvg:type="㇐" d="M52.53 69.35c1 .31 2.83.34 3.82.31 9.94-.3 24.1-2.98 33.56-2.98 1.66.0 2.66.15 3.48.3"/><path id="kvg:09a65-s22" kvg:type="㇑a" d="M62.29 62.89c.58.35 1.03 1.55 1.04 2.25.08 3.96.96 9.69 1.09 14.95"/><path id="kvg:09a65-s23" kvg:type="㇑a" d="M81.33 59.98c.67.39 1.26 1.75 1.21 2.55-.28 4.34-1.05 12.27-1.52 16.44"/><path id="kvg:09a65-s24" kvg:type="㇐" d="M49 81.13c1.38.31 3.9.4 5.27.31 9-.57 28.71-2.71 40.2-3 2.29-.06 3.67.15 4.82.31"/></g><g id="kvg:09a65-g11" kvg:element="八" kvg:position="bottom"><path id="kvg:09a65-s25" kvg:type="㇒" d="M64.34 86.3c.04.3.08.76-.08 1.19-.94 2.52-7.14 7.37-13.76 11.41"/><path id="kvg:09a65-s26" kvg:type="㇔" d="M80.63 85.57c4.74 2.28 12.26 9.35 13.44 12.89"/></g></g></g></g></g></g></svg>