<!DOCTYPE svg PUBLIC "-//W3C//DTD SVG 1.0//EN" "http://www.w3.org/TR/2001/REC-SVG-20010904/DTD/svg10.dtd" [
<!ATTLIST g
xmlns:kvg CDATA #FIXED "http://kanjivg.tagaini.net"
kvg:element CDATA #IMPLIED
kvg:variant CDATA #IMPLIED
kvg:partial CDATA #IMPLIED
kvg:original CDATA #IMPLIED
kvg:part CDATA #IMPLIED
kvg:number CDATA #IMPLIED
kvg:tradForm CDATA #IMPLIED
kvg:radicalForm CDATA #IMPLIED
kvg:position CDATA #IMPLIED
kvg:radical CDATA #IMPLIED
kvg:phon CDATA #IMPLIED >
<!ATTLIST path
xmlns:kvg CDATA #FIXED "http://kanjivg.tagaini.net"
kvg:type CDATA #IMPLIED >
]><svg xmlns="http://www.w3.org/2000/svg" width="109" height="109" viewBox="0 0 109 109"><g id="kvg:StrokePaths_09acf" style="fill:none;stroke:#000000;stroke-width:3;stroke-linecap:round;stroke-linejoin:round;"><g id="kvg:09acf" kvg:element="髏"><g id="kvg:09acf-g1" kvg:element="骨" kvg:position="left" kvg:radical="general"><g id="kvg:09acf-g2" kvg:position="top"><path id="kvg:09acf-s1" kvg:type="㇑a" d="M18.12 16.2c.25.48.96 2.54.99 3.17.14 2.88 1.09 18.84 1.09 19.16"/><path id="kvg:09acf-s2" kvg:type="㇕b" d="M19.31 17.63c1.42-.03 14.19-1.13 20.79-2.57 1.41-.31 2.91 1.19 2.68 2.39-.66 3.41-2.25 11.02-2.91 19.22"/><path id="kvg:09acf-s3" kvg:type="㇑a" d="M29.07 24.62c.25.48.46 1.54.49 2.17.15 2.81.82 10.98.81 11.29"/><path id="kvg:09acf-s4" kvg:type="㇐a" d="M29.98 26.41c1.41-.03 9.45-1.47 10.73-1.64"/><path id="kvg:09acf-s5" kvg:type="㇔" d="M12.04 37.62c-.02 3.02-1.35 10.89-1.81 12.88"/><path id="kvg:09acf-s6" kvg:type="㇖b" d="M12.19 40.76c5.8-1.18 29.64-3.59 33.44-3.79 5.94-.32.23 5.3-1.25 7.24"/></g><g id="kvg:09acf-g3" kvg:element="月" kvg:position="bottom"><path id="kvg:09acf-s7" kvg:type="㇑" d="M20.31 48.12c.37.7.62 1.9.74 2.6.12.7.18 44.01.12 45.58"/><path id="kvg:09acf-s8" kvg:type="㇆a" d="M21.79 49.32c1.49-.17 14.14-1.65 15.25-1.85 1.98-.35 2.73 2.27 2.48 3.32-.24 1.01-.37 24.37-.37 38.54.0 9.09-4.98 2.65-6.22 1.07"/><path id="kvg:09acf-s9" kvg:type="㇐a" d="M21.79 60.81c5.08-1.05 12.73-1.14 17.2-1.67"/><path id="kvg:09acf-s10" kvg:type="㇐a" d="M21.49 73.17c3.97-.53 12.67-1.12 17.26-1.47"/></g></g><g id="kvg:09acf-g4" kvg:element="婁" kvg:position="right"><g id="kvg:09acf-g5" kvg:position="top"><g id="kvg:09acf-g6" kvg:element="串" kvg:part="1"><g id="kvg:09acf-g7" kvg:element="口" kvg:part="1"><path id="kvg:09acf-s11" kvg:type="㇑" d="M55.25 22.54c.34.26.99 1.41 1.11 2.4.77 6.49 2.45 13.67 3.12 17.94"/><path id="kvg:09acf-s12" kvg:type="㇕" d="M56.52 23.82c9.28-1.02 22.7-2.69 30.03-3.57 2.34-.28 3.68 1.46 3.38 3.42-1.19 7.76-2.18 12.83-3.72 17.62"/></g></g><path id="kvg:09acf-s13" kvg:type="㇐" d="M48.9 31.81c1.03.52 2.93.64 3.96.52 7.94-.95 30.17-3.8 41-3.07 1.72.12 2.75.25 3.61.51"/><g id="kvg:09acf-g8" kvg:element="串" kvg:part="2"><g id="kvg:09acf-g9" kvg:element="口" kvg:part="2"><path id="kvg:09acf-s14" kvg:type="㇐" d="M59.82 41.48c2.38-.24 23.14-2.15 26.2-2.39"/></g><g id="kvg:09acf-g10" kvg:element="中"><g id="kvg:09acf-g11" kvg:element="口"><path id="kvg:09acf-s15" kvg:type="㇑" d="M55.11 48.66c.27.44.75 1.03.87 2 .47 3.59 1.67 7.62 2.17 10.93"/><path id="kvg:09acf-s16" kvg:type="㇕b" d="M56.21 49.71c10.29-.46 23.55-1.34 30.51-2.1 2.22-.24 3.5 1.27 3.21 2.97-.34 1.99-2.02 5.82-2.56 8.21"/><path id="kvg:09acf-s17" kvg:type="㇐b" d="M58.5 59.68c2.38-.24 28.18-.66 31.25-.89"/></g><g id="kvg:09acf-g12" kvg:element="丨"><path id="kvg:09acf-s18" kvg:type="㇑" d="M70.99 13.75c.74.48 1.18 2.15 1.33 3.11.15.96.0 36.13-.15 42.12"/></g></g></g></g><g id="kvg:09acf-g13" kvg:element="女" kvg:position="bottom"><path id="kvg:09acf-s19" kvg:type="㇛" d="M68.58 61.99c.3.86.39 2.05-.15 3C64.75 71.5 62.25 76 57.47 80.92c-1.07 1.1-.17 1.57.45 1.57 11.83.01 25.83 7.01 31.48 13.78"/><path id="kvg:09acf-s20" kvg:type="㇒" d="M81.94 68.06c.09.7.16 2.39-.19 3.4-2.83 8.16-9.19 20.46-31.23 25.79"/><path id="kvg:09acf-s21" kvg:type="㇐" d="M47.63 71.5c1.75.48 3.62.76 4.47.73 13.19-.46 24.51-2.56 41.45-2.77 1.4-.02 3.82.29 4.96.84"/></g></g></g></g><g id="kvg:StrokeNumbers_09acf" style="font-size:8;fill:#808080"><text transform="matrix(1 0 0 1 10.85 23.85)">1</text><text transform="matrix(1 0 0 1 19.16 13.35)">2</text><text transform="matrix(1 0 0 1 23.50 31.50)">3</text><text transform="matrix(1 0 0 1 31.50 24.50)">4</text><text transform="matrix(1 0 0 1 3.72 43.85)">5</text><text transform="matrix(1 0 0 1 13.50 37.50)">6</text><text transform="matrix(1 0 0 1 14.50 56.50)">7</text><text transform="matrix(1 0 0 1 23.50 46.85)">8</text><text transform="matrix(1 0 0 1 25.50 57.50)">9</text><text transform="matrix(1 0 0 1 25.50 69.50)">10</text><text transform="matrix(1 0 0 1 46.50 23.50)">11</text><text transform="matrix(1 0 0 1 57.50 20.50)">12</text><text transform="matrix(1 0 0 1 44.50 29.50)">13</text><text transform="matrix(1 0 0 1 61.25 38.05)">14</text><text transform="matrix(1 0 0 1 47.00 54.50)">15</text><text transform="matrix(1 0 0 1 58.50 47.50)">16</text><text transform="matrix(1 0 0 1 60.50 57.50)">17</text><text transform="matrix(1 0 0 1 62.50 11.50)">18</text><text transform="matrix(1 0 0 1 57.50 67.28)">19</text><text transform="matrix(1 0 0 1 82.50 66.50)">20</text><text transform="matrix(1 0 0 1 45.50 68.13)">21</text></g></svg>