<svg xmlns="http://www.w3.org/2000/svg" width="109" height="109" viewBox="0 0 109 109"><g id="kvg:StrokePaths_09ad3"><g id="kvg:09ad3" kvg:element="髓"><g id="kvg:09ad3-g1" kvg:element="骨" kvg:position="left" kvg:radical="general"><g id="kvg:09ad3-g2" kvg:position="top"><path id="kvg:09ad3-s1" kvg:type="㇑a" d="M16.12 17.2c.25.48.96 2.54.99 3.17.14 2.88 1.09 18.34 1.09 18.66"/><path id="kvg:09ad3-s2" kvg:type="㇕b" d="M17.31 18.63c1.42-.03 13.19-2.13 19.79-3.57 1.41-.31 2.91 1.19 2.68 2.39-.66 3.41-1.25 11.52-1.91 19.72"/><path id="kvg:09ad3-s3" kvg:type="㇑a" d="M26.57 24.62c.25.48.46 1.54.49 2.17.15 2.81.32 11.48.31 11.79"/><path id="kvg:09ad3-s4" kvg:type="㇐a" d="M27.98 26.41c1.41-.03 9.45-1.47 10.73-1.64"/><path id="kvg:09ad3-s5" kvg:type="㇔" d="M11.4 38.37c-.02 3.31-1.52 11.94-2.04 14.13"/><path id="kvg:09ad3-s6" kvg:type="㇖b" d="M11.19 41.26c5.8-1.18 28.14-4.59 31.94-4.79 5.94-.32.23 5.3-1.25 7.24"/></g><g id="kvg:09ad3-g3" kvg:element="月" kvg:position="bottom"><path id="kvg:09ad3-s7" kvg:type="㇑" d="M17.81 49.62c.37.7.62 1.4.74 2.1.12.7.18 43.01.12 44.58"/><path id="kvg:09ad3-s8" kvg:type="㇆a" d="M19.29 51.32c1.49-.17 15.14-2.65 16.25-2.85 1.98-.35 2.73 2.27 2.48 3.32-.24 1.01-.37 25.37-.37 39.54.0 9.09-3.98 3.15-5.22 1.57"/><path id="kvg:09ad3-s9" kvg:type="㇐a" d="M19.29 63.81c5.08-1.05 13.73-2.14 18.2-2.67"/><path id="kvg:09ad3-s10" kvg:type="㇐a" d="M18.99 76.17c3.97-.53 13.67-2.12 18.26-2.47"/></g></g><g id="kvg:09ad3-g4" kvg:position="right"><g id="kvg:09ad3-g5" kvg:position="nyoc"><g id="kvg:09ad3-g6" kvg:element="左" kvg:position="top"><g id="kvg:09ad3-g7" kvg:position="kamae"><path id="kvg:09ad3-s11" kvg:type="㇐" d="M62.35 25.3c1.25.17 2.5.34 3.62.26 9.82-.72 13.55-2.12 25.78-2.88 1.72-.11 2.62-.11 4.02.22"/><path id="kvg:09ad3-s12" kvg:type="㇒" d="M77.82 15c.1.59.23 1.68-.01 2.32-4.55 11.93-8.55 19.18-15.68 26.72"/></g><g id="kvg:09ad3-g8" kvg:element="工"><path id="kvg:09ad3-s13" kvg:type="㇐" d="M73.49 33.76c.38.2 2.19.24 2.58.21 2.87-.25 9.26-1.54 13.51-2.17.58-.09 1.97.04 2.45.21"/><path id="kvg:09ad3-s14" kvg:type="㇑a" d="M79.9 33.72c.79.62 1.07 1.47 1.07 1.96.0 2.35.03 4.9.03 7.36"/><path id="kvg:09ad3-s15" kvg:type="㇐" d="M68.54 44.45c.51.16 2.06.26 2.93.25 7.41-.12 16.53-2.2 22.81-2.84 1.39-.14 2.52.26 3.21.5"/></g></g><g id="kvg:09ad3-g9" kvg:element="月" kvg:position="bottom"><path id="kvg:09ad3-s16" kvg:type="㇑" d="M70.18 52.34c.48.56.79 1.12.95 1.67.16.55.22 30.56.16 31.78"/><path id="kvg:09ad3-s17" kvg:type="㇆a" d="M72.09 53.52c1.9-.05 14.86-1.95 16.27-2.04 2.54-.15 3.49 1.92 3.17 2.72-.31.77-.48 16.1-.48 27.08.0 9.73-4.35 3.49-6.48 1.32"/><path id="kvg:09ad3-s18" kvg:type="㇐a" d="M72.09 62.68c6.5-.51 12.63-1.66 18.33-1.81"/><path id="kvg:09ad3-s19" kvg:type="㇐a" d="M71.32 72.13c5.07-.17 12.33-1.15 19.61-1.73"/></g></g><g id="kvg:09ad3-g10" kvg:element="辶" kvg:position="nyo"><path id="kvg:09ad3-s20" kvg:type="㇔" d="M49.35 18.75c2.76 1.19 7.12 4.91 7.81 6.77"/><path id="kvg:09ad3-s21" kvg:type="㇔" d="M50.6 35.25c3.15 1 6.43 5.27 7.06 7.27"/><path id="kvg:09ad3-s22" kvg:type="㇋" d="M43.5 59.03c1.87.9 3.11.45 3.94.22s6.14-4.13 7.39-4.58c1.25-.45 3.11 1.12 2.28 2.46s-3.32 6.49-3.94 7.6c-.62 1.12-.42 3.13.83 4.7s3.28 2.85 3.91 4.2c.62 1.34.62 2.46-.62 3.58-1.25 1.12-8.48 7.88-9.72 8.33"/><path id="kvg:09ad3-s23" kvg:type="㇏" d="M44.36 86.63c1.91-.37 5.65-.51 8.61-.55 5.54-.08 19.18 5.67 22 6.62 7.65 2.57 11.29 3.05 17.29 3.52"/></g></g></g></g></svg>