<svg xmlns="http://www.w3.org/2000/svg" width="109" height="109" viewBox="0 0 109 109"><g id="kvg:StrokePaths_09ade"><g id="kvg:09ade" kvg:element="髞"><g id="kvg:09ade-g1" kvg:element="高" kvg:position="left" kvg:radical="general"><g id="kvg:09ade-g2" kvg:position="top"><g id="kvg:09ade-g3" kvg:element="亠"><path id="kvg:09ade-s1" kvg:type="㇑a" d="M26.92 13.75c.51.49 1.36 2.38 1.36 3.35.0 3.58-.16 3.68-.07 6.71"/><path id="kvg:09ade-s2" kvg:type="㇐" d="M10.15 25.95c.84.08 2.74.46 3.57.44 6.9-.14 22.96-3.25 31.91-3.48 1.38-.04 2.09.04 3.12.56"/></g><g id="kvg:09ade-g4" kvg:element="口"><path id="kvg:09ade-s3" kvg:type="㇑" d="M17.18 36.11c.3.25.6.46.73.77 1.03 2.46 2.67 8.75 3.38 13.17"/><path id="kvg:09ade-s4" kvg:type="㇕b" d="M19.04 37.78c6.08-1.28 16.44-3.7 19.93-4.03 1.27-.12 2.04 1.47 1.86 2.16-.75 2.88-1.59 6.31-2.71 10.28"/><path id="kvg:09ade-s5" kvg:type="㇐b" d="M21.43 48.89c4.09-.37 12.33-1.77 17.95-2.33"/></g></g><g id="kvg:09ade-g5" kvg:element="冋" kvg:position="bottom"><g id="kvg:09ade-g6" kvg:element="冂"><path id="kvg:09ade-s6" kvg:type="㇑" d="M12.75 57.51c1 .99 1.45 2.15 1.57 4.32.29 5.07 1.18 21.92 1.44 29.67"/><path id="kvg:09ade-s7" kvg:type="㇆a" d="M14.59 59.9c7.16-.65 26.08-4.48 27.08-4.77 2.46-.72 3.42 1.37 3.42 3.98.0 8.99-.09 21.14-1.51 28.81-1.18 6.34-4.18 1.69-5.63.0"/></g><g id="kvg:09ade-g7" kvg:element="口"><path id="kvg:09ade-s8" kvg:type="㇑" d="M21.71 67.49c.2.24.4.44.49.74.69 2.39 2.01 8.48 2.48 12.76"/><path id="kvg:09ade-s9" kvg:type="㇕b" d="M22.95 69.11c4.06-1.24 8.98-2.99 11.3-3.44.94-.18 1.85.98 1.76 2.13-.23 2.87-1.09 5.38-1.84 9.24"/><path id="kvg:09ade-s10" kvg:type="㇐b" d="M24.78 78.9c2.73-.35 7.49-.97 11.23-1.51"/></g></g></g><g id="kvg:09ade-g8" kvg:element="喿" kvg:position="right"><g id="kvg:09ade-g9" kvg:element="品" kvg:position="top"><g id="kvg:09ade-g10" kvg:element="口" kvg:position="top"><path id="kvg:09ade-s11" kvg:type="㇑" d="M57.04 17.22c.4.27.8.5.98.84 1.38 2.71 2.91 8.91 3.86 13.78"/><path id="kvg:09ade-s12" kvg:type="㇕b" d="M59.09 19.04c8.12-1.41 17.92-3.7 22.58-4.05 1.7-.13 2.72 1.53 2.48 2.3-1.01 3.17-1.38 5.99-2.88 10.37"/><path id="kvg:09ade-s13" kvg:type="㇐b" d="M63.17 30c5.46-.4 12-1.34 19.5-1.96"/></g><g id="kvg:09ade-g11" kvg:position="bottom"><g id="kvg:09ade-g12" kvg:element="口" kvg:position="left"><path id="kvg:09ade-s14" kvg:type="㇑" d="M49.75 40.85c.25.27.51.5.62.84.88 2.71 2.66 8.19 3.26 13.06"/><path id="kvg:09ade-s15" kvg:type="㇕b" d="M51.32 42.15c6.39-.99 11.65-2.42 14.6-2.78 1.08-.13 1.73.77 1.58 1.54-.64 3.17-1.39 6.25-2.34 10.63"/><path id="kvg:09ade-s16" kvg:type="㇐b" d="M53.75 52.89c3.47-.4 5.82-.37 12.29-.96"/></g><g id="kvg:09ade-g13" kvg:element="口" kvg:position="right"><path id="kvg:09ade-s17" kvg:type="㇑" d="M74.92 39.2c.26.27.53.5.65.84.91 2.71 1.95 6.91 2.58 11.78"/><path id="kvg:09ade-s18" kvg:type="㇕b" d="M76.56 40.26c6.67-.99 12.79-2.2 15.88-2.56 1.13-.13 1.81.77 1.64 1.54-.67 3.17-1.45 5.79-2.44 10.17"/><path id="kvg:09ade-s19" kvg:type="㇐b" d="M78.55 50.74c5.05-.35 7.18-.48 15.05-.94"/></g></g></g><g id="kvg:09ade-g14" kvg:element="木" kvg:position="bottom"><path id="kvg:09ade-s20" kvg:type="㇐" d="M50.15 66.05c1.41.41 3.02.54 4.64.41 8.27-.67 24.48-3.53 37-4.32 1.61-.1 2.62.07 4.24.36"/><path id="kvg:09ade-s21" kvg:type="㇑" d="M69.04 54.67c1.35.54 2.43 2.4 2.43 3.51.0 11.34-.27 31.82-.27 39.16"/><path id="kvg:09ade-s22" kvg:type="㇒" d="M68.3 65.43C64.6 72.83 54.69 84.16 47 88.35"/><path id="kvg:09ade-s23" kvg:type="㇏" d="M71.79 65.25C75.5 70 88.5 83.75 93.62 86.53c1.37.74 2.2 1.45 3.38 1.74"/></g></g></g></g></svg>