<svg xmlns="http://www.w3.org/2000/svg" width="109" height="109" viewBox="0 0 109 109"><g id="kvg:StrokePaths_09adf" style="fill:none;stroke:#000000;stroke-width:3;stroke-linecap:round;stroke-linejoin:round;"><g id="kvg:09adf" kvg:element="髟" kvg:radical="general"><g id="kvg:09adf-g1" kvg:element="長" kvg:variant="true" kvg:position="left"><path id="kvg:09adf-s1" kvg:type="㇑a" d="M25.5 19.25C27 20.75 27 21 27 22.5s.5 34.5.5 36.75"/><path id="kvg:09adf-s2" kvg:type="㇐b" d="M27.85 21.27C33 21 44.25 18 50.96 17.89c1.56-.03 2.5.18 3.29.37"/><path id="kvg:09adf-s3" kvg:type="㇐b" d="M28.75 34.25c4.55-.53 15.22-2.45 18.9-2.98 1.38-.2 2.79-.14 3.85.18"/><path id="kvg:09adf-s4" kvg:type="㇐b" d="M28.5 46.75c4.55-.53 15.22-2.45 18.9-2.98 1.38-.2 2.79-.14 3.85.18"/><path id="kvg:09adf-s5" kvg:type="㇐" d="M11.88 62.42c.86.3 2.43.35 3.29.3 8.92-.51 28.04-4.74 40.21-5.15 1.43-.05 2.29.15 3 .3"/><g id="kvg:09adf-g2" kvg:element="厶"><path id="kvg:09adf-s6" kvg:type="㇜" d="M32.65 63.31c.1.94-.47 2.32-.8 2.8-4.35 6.39-5.6 8.39-11.6 15.54-1.5 1.79-.74 3.69 1.84 2.96 7.4-2.1 20.9-5.85 30.01-8.82"/><path id="kvg:09adf-s7" kvg:type="㇔" d="M45.01 65.67c3.9 3.41 10.07 14 11.05 19.3"/></g></g><g id="kvg:09adf-g3" kvg:element="彡" kvg:position="right"><path id="kvg:09adf-s8" kvg:type="㇒" d="M82.68 16c.05.58.25 1.58-.12 2.32C79.75 24 73.5 32.25 62.25 39.66"/><path id="kvg:09adf-s9" kvg:type="㇒" d="M88.21 35.56c.08.68.36 1.9-.15 2.73C84.25 44.5 75.25 56.5 61.73 64.4"/><path id="kvg:09adf-s10" kvg:type="㇒" d="M90.29 58.4c.11.91.42 2.43-.21 3.66C85.75 70.5 72.18 86.66 51.32 97"/></g></g></g></svg>