<svg xmlns="http://www.w3.org/2000/svg" width="109" height="109" viewBox="0 0 109 109"><g id="kvg:StrokePaths_09ad1" style="fill:none;stroke:#000000;stroke-width:3;stroke-linecap:round;stroke-linejoin:round;"><g id="kvg:09ad1" kvg:element="髑"><g id="kvg:09ad1-g1" kvg:element="骨" kvg:position="left" kvg:radical="general"><g id="kvg:09ad1-g2" kvg:position="top"><path id="kvg:09ad1-s1" kvg:type="㇑a" d="M18.12 17.2c.25.48.96 2.54.99 3.17.14 2.88 1.09 18.34 1.09 18.66"/><path id="kvg:09ad1-s2" kvg:type="㇕b" d="M19.31 18.63c1.42-.03 14.19-2.13 20.79-3.57 1.41-.31 2.91 1.19 2.68 2.39-.66 3.41-2.25 11.52-2.91 19.72"/><path id="kvg:09ad1-s3" kvg:type="㇑a" d="M28.57 25.62c.25.48.96 1.54.99 2.17.15 2.81.32 10.48.31 10.79"/><path id="kvg:09ad1-s4" kvg:type="㇐a" d="M29.98 26.91c1.41-.03 9.45-1.97 10.73-2.14"/><path id="kvg:09ad1-s5" kvg:type="㇔" d="M13.04 38.62c-.02 3.61-1.35 11-1.81 13.38"/><path id="kvg:09ad1-s6" kvg:type="㇖b" d="M13.19 41.26c5.8-1.18 28.14-4.59 31.94-4.79 5.94-.32.23 5.3-1.25 7.24"/></g><g id="kvg:09ad1-g3" kvg:element="月" kvg:position="bottom"><path id="kvg:09ad1-s7" kvg:type="㇑" d="M20.31 49.62c.37.7.62 1.4.74 2.1.12.7.18 43.51.12 45.08"/><path id="kvg:09ad1-s8" kvg:type="㇆a" d="M21.79 51.32c1.49-.17 15.14-2.65 16.25-2.85 1.98-.35 2.73 2.27 2.48 3.32-.24 1.01-.37 25.37-.37 39.54.0 9.09-3.98 3.15-5.22 1.57"/><path id="kvg:09ad1-s9" kvg:type="㇐a" d="M21.79 63.81c5.08-1.05 13.73-2.14 18.2-2.67"/><path id="kvg:09ad1-s10" kvg:type="㇐a" d="M21.49 76.17c3.97-.53 13.67-1.62 18.26-1.97"/></g></g><g id="kvg:09ad1-g4" kvg:element="蜀" kvg:position="right"><g id="kvg:09ad1-g5" kvg:element="罒" kvg:variant="true" kvg:original="网" kvg:position="top"><path id="kvg:09ad1-s11" kvg:type="㇑" d="M52.37 18.72c.22.29.44.53.54.89.75 2.87 2.65 9.87 3.17 15.02"/><path id="kvg:09ad1-s12" kvg:type="㇕a" d="M54.15 19.76c4.8-1.12 36.91-3.65 39.46-4.03.93-.14 2.2.97 1.95 2.58-.52 3.36-1.73 9.68-3.12 14.48"/><path id="kvg:09ad1-s13" kvg:type="㇑a" d="M67.41 18.16c.15 1.91.89 10.55.75 13.37"/><path id="kvg:09ad1-s14" kvg:type="㇑a" d="M80.37 16.97c-.15 3.1-.74 11.72-1.03 13.63"/><path id="kvg:09ad1-s15" kvg:type="㇐a" d="M56.76 33.07c3-.43 31.91-2.07 36.02-2.73"/></g><g id="kvg:09ad1-g6" kvg:position="bottom"><g id="kvg:09ad1-g7" kvg:element="勹"><g id="kvg:09ad1-g8" kvg:element="丿"><path id="kvg:09ad1-s16" kvg:type="㇒" d="M61.77 36.35c.04.51.09 1.31-.09 2.03-1.08 4.28-7.27 13.69-15.74 19.44"/></g><path id="kvg:09ad1-s17" kvg:type="㇆" d="M61 46.36c.88.56 2.08.62 3.51.38 5.12-.88 23.42-2.9 26.93-3.09 3.51-.19 5.05 1.86 4.68 5.84-.98 10.48-2.69 29-8.81 44.98-1.47 3.84-4.8 2.03-6.61-1.44"/></g><g id="kvg:09ad1-g9" kvg:element="虫"><g id="kvg:09ad1-g10" kvg:element="中"><g id="kvg:09ad1-g11" kvg:element="口"><path id="kvg:09ad1-s18" kvg:type="㇑" d="M50.79 57.94c.44.31 1.01 1.48 1.09 1.89.6 2.97 1.61 7.34 2.46 12.97"/><path id="kvg:09ad1-s19" kvg:type="㇕b" d="M52.6 59.07c6.75-.59 19.8-2.56 24.66-3.17 1.28-.16 2.78 1.31 2.55 2.2-.81 3.05-.95 4.14-2.27 9.21"/><path id="kvg:09ad1-s20" kvg:type="㇐b" d="M54.58 70.67c5.43-.6 17.01-2.45 24.6-3"/></g><g id="kvg:09ad1-g12" kvg:element="丨"><path id="kvg:09ad1-s21" kvg:type="㇑a" d="M64.19 51.98c.7.97 1.18 3.02 1.18 3.98.0 4.76.0 20.93-.22 26.71"/></g></g><path id="kvg:09ad1-s22" kvg:type="㇀" d="M51.29 85.67c.68.68 2.09 1.03 2.77.86.68-.17 20.08-6.5 24.31-7.85"/><path id="kvg:09ad1-s23" kvg:type="㇔" d="M74.75 73.66c2.34 2.14 6.06 8.79 6.64 12.11"/></g></g></g></g></g></svg>