<!DOCTYPE svg PUBLIC "-//W3C//DTD SVG 1.0//EN" "http://www.w3.org/TR/2001/REC-SVG-20010904/DTD/svg10.dtd" [
<!ATTLIST g
xmlns:kvg CDATA #FIXED "http://kanjivg.tagaini.net"
kvg:element CDATA #IMPLIED
kvg:variant CDATA #IMPLIED
kvg:partial CDATA #IMPLIED
kvg:original CDATA #IMPLIED
kvg:part CDATA #IMPLIED
kvg:number CDATA #IMPLIED
kvg:tradForm CDATA #IMPLIED
kvg:radicalForm CDATA #IMPLIED
kvg:position CDATA #IMPLIED
kvg:radical CDATA #IMPLIED
kvg:phon CDATA #IMPLIED >
<!ATTLIST path
xmlns:kvg CDATA #FIXED "http://kanjivg.tagaini.net"
kvg:type CDATA #IMPLIED >
]><svg xmlns="http://www.w3.org/2000/svg" width="109" height="109" viewBox="0 0 109 109"><g id="kvg:StrokePaths_09af1" style="fill:none;stroke:#000000;stroke-width:3;stroke-linecap:round;stroke-linejoin:round;"><g id="kvg:09af1" kvg:element="髱"><g id="kvg:09af1-g1" kvg:element="髟" kvg:position="top" kvg:radical="general"><g id="kvg:09af1-g2" kvg:element="長" kvg:variant="true" kvg:position="left"><path id="kvg:09af1-s1" kvg:type="㇑a" d="M25 10.75c1 .75 1.39 1.52 1.39 2.4s.46 19.98.46 21.3"/><path id="kvg:09af1-s2" kvg:type="㇐b" d="M27.44 13.26c4.77-.16 14.94-2.41 21.17-2.48 1.45-.02 2.32.11 3.05.22"/><path id="kvg:09af1-s3" kvg:type="㇐b" d="M27.02 20.84c4.22-.31 14.11-1.93 17.52-2.24 1.28-.12 2.58-.08 3.57.1"/><path id="kvg:09af1-s4" kvg:type="㇐b" d="M27.28 27.14c4.22-.31 14.11-1.43 17.52-1.74 1.28-.12 2.58-.08 3.57.1"/><path id="kvg:09af1-s5" kvg:type="㇐" d="M12.38 36.03c1.07.24 3.05.39 4.12.24 11.25-1.52 26-3.02 36.21-4.04 1.78-.18 2.87.12 3.76.24"/><g id="kvg:09af1-g3" kvg:element="厶"><path id="kvg:09af1-s6" kvg:type="㇜" d="M29.23 36.31c.07.59-.35 1.46-.59 1.77-3.2 4.04-4.12 5.3-8.54 9.81-1.1 1.13-.53 3.01 1.36 2.45 7.29-2.17 17.29-5.1 25.59-7.91"/><path id="kvg:09af1-s7" kvg:type="㇔" d="M42.09 37.89c2.56 1.31 6.6 5.4 7.24 7.44"/></g></g><g id="kvg:09af1-g4" kvg:element="彡" kvg:position="right"><path id="kvg:09af1-s8" kvg:type="㇒" d="M82.98 9c.06.35.27.96-.13 1.4-3.05 3.44-9.83 8.43-22.05 12.91"/><path id="kvg:09af1-s9" kvg:type="㇒" d="M89.1 18.28c.08.4.38 1.13-.15 1.62-3.99 3.68-13.44 10.79-27.62 15.46"/><path id="kvg:09af1-s10" kvg:type="㇒" d="M94.06 28.29c.1.5.36 1.32-.19 1.99-3.79 4.58-15.67 13.35-33.94 18.97"/></g></g><g id="kvg:09af1-g5" kvg:element="包" kvg:position="bottom"><g id="kvg:09af1-g6" kvg:element="勹"><g id="kvg:09af1-g7" kvg:element="丿"><path id="kvg:09af1-s11" kvg:type="㇒" d="M41.34 49c.07.55.36 1.47-.13 2.23-3.23 4.91-12.02 14.12-24.1 21.29"/></g><path id="kvg:09af1-s12" kvg:type="㇆" d="M38.92 56.8c1.19.51 2.82.54 4.74.34 6.09-.64 27.59-3.14 36.2-4.35 2.22-.31 4.78.93 4.68 2.83-.32 5.72-3.78 20.13-8.88 28.48-2.91 4.76-5.65.66-6.59-1.35"/></g><g id="kvg:09af1-g8" kvg:element="巳"><g id="kvg:09af1-g9" kvg:element="己" kvg:variant="true"><path id="kvg:09af1-s13" kvg:type="㇕" d="M33.06 66.43c1.58.75 3.43 1.25 5.76 1 4.71-.51 19.45-3.12 20.89-3.22 1.9-.13 3.4.83 2.72 2.78-.2.58-1.92 6.25-2.6 10.74"/><path id="kvg:09af1-s14" kvg:type="㇐" d="M38.46 79.96c5.19-.27 16.32-1.57 23.69-1.81"/><path id="kvg:09af1-s15" kvg:type="㇟" d="M37.06 67.56c0 1.69.55 3.05.54 4.14-.04 3.51.19 16.93.19 19.99.0 6.66 3.24 8.49 31.23 8.49 23.39.0 25.75-1.94 25.75-10.84"/></g></g></g></g></g><g id="kvg:StrokeNumbers_09af1" style="font-size:8;fill:#808080"><text transform="matrix(1 0 0 1 19.50 20.50)">1</text><text transform="matrix(1 0 0 1 28.50 9.50)">2</text><text transform="matrix(1 0 0 1 30.50 18.50)">3</text><text transform="matrix(1 0 0 1 30.35 26.50)">4</text><text transform="matrix(1 0 0 1 6.47 36.10)">5</text><text transform="matrix(1 0 0 1 14.83 44.85)">6</text><text transform="matrix(1 0 0 1 35.50 41.50)">7</text><text transform="matrix(1 0 0 1 75.50 9.50)">8</text><text transform="matrix(1 0 0 1 80.50 20.50)">9</text><text transform="matrix(1 0 0 1 82.50 31.50)">10</text><text transform="matrix(1 0 0 1 28.50 55.50)">11</text><text transform="matrix(1 0 0 1 45.50 54.50)">12</text><text transform="matrix(1 0 0 1 39.50 65.50)">13</text><text transform="matrix(1 0 0 1 41.50 76.50)">14</text><text transform="matrix(1 0 0 1 27.50 76.50)">15</text></g></svg>