<svg xmlns="http://www.w3.org/2000/svg" width="109" height="109" viewBox="0 0 109 109"><g id="kvg:StrokePaths_09b06" style="fill:none;stroke:#000000;stroke-width:3;stroke-linecap:round;stroke-linejoin:round;"><g id="kvg:09b06" kvg:element="鬆"><g id="kvg:09b06-g1" kvg:element="髟" kvg:position="top" kvg:radical="general"><g id="kvg:09b06-g2" kvg:element="長" kvg:variant="true" kvg:position="left"><path id="kvg:09b06-s1" kvg:type="㇑a" d="M26.36 12.09c1.25.92 1.25 1.07 1.25 1.99s.42 19.88.42 21.26"/><path id="kvg:09b06-s2" kvg:type="㇐b" d="M29.4 14.6c4.3-.17 13.62-2 19.22-2.07 1.31-.02 2.09.11 2.74.23"/><path id="kvg:09b06-s3" kvg:type="㇐b" d="M28.58 21.54c3.8-.32 13.21-2 16.28-2.32 1.16-.12 2.33-.08 3.21.11"/><path id="kvg:09b06-s4" kvg:type="㇐b" d="M28.37 28.69c3.8-.32 13.21-2 16.28-2.32 1.16-.12 2.33-.08 3.21.11"/><path id="kvg:09b06-s5" kvg:type="㇐" d="M13.49 37.12c1.05.23 2.98.35 4.03.23C29.75 36 41.75 33.5 51.44 33.48c1.75.0 2.8.11 3.67.23"/><path id="kvg:09b06-s6" kvg:type="㇜" d="M32.07 38.32c.07.54-.31 1.33-.53 1.61-2.88 3.68-3.71 4.83-7.69 8.94-1 1.03-.48 2.75 1.22 2.23 6.56-1.98 14.57-4.65 22.05-7.21"/><path id="kvg:09b06-s7" kvg:type="㇔" d="M42.66 39.54c3.01 1.63 7.77 6.69 8.52 9.22"/></g><g id="kvg:09b06-g3" kvg:element="彡" kvg:position="right"><path id="kvg:09b06-s8" kvg:type="㇒" d="M81.99 10.5c.05.29.24.81-.12 1.18-2.78 2.9-8.95 7.1-20.07 10.88"/><path id="kvg:09b06-s9" kvg:type="㇒" d="M86.62 21.78c.07.3.34.83-.14 1.19-3.64 2.71-12.23 7.94-25.15 11.39"/><path id="kvg:09b06-s10" kvg:type="㇒" d="M91.07 33.29c.09.37.34.99-.18 1.49C87.36 38.22 76.25 44.79 59.18 49"/></g></g><g id="kvg:09b06-g4" kvg:element="松" kvg:position="bottom"><g id="kvg:09b06-g5" kvg:element="木" kvg:position="left"><path id="kvg:09b06-s11" kvg:type="㇐" d="M16.26 65.09c.45.16 3.08.28 4.27.21 5.09-.27 18.33-2.2 26.5-3.02 1.18-.12 2.78-.16 3.52.0"/><path id="kvg:09b06-s12" kvg:type="㇑" d="M35.78 53c.68.27 1.63 2.01 1.77 2.55s-.09 39.85-.23 43.2"/><path id="kvg:09b06-s13" kvg:type="㇒" d="M36.39 65.54C30.75 76.25 25.25 82.5 13.38 90.56"/><path id="kvg:09b06-s14" kvg:type="㇏" d="M40.66 71.37c2.61 1.6 6.92 6.81 9.12 9.92"/></g><g id="kvg:09b06-g6" kvg:element="公" kvg:position="right"><g id="kvg:09b06-g7" kvg:element="八" kvg:position="top"><path id="kvg:09b06-s15" kvg:type="㇒" d="M64.55 54.23c.23.49-.01 1.06-.32 1.65-2.2 4.27-6.35 10.61-13.02 14.74"/><path id="kvg:09b06-s16" kvg:type="㇏" d="M73.75 50.13c2.58 1.34 11.15 15.26 15.8 18.58 1.79 1.29 2.44 1.97 4.18 2.39"/></g><g id="kvg:09b06-g8" kvg:element="厶" kvg:position="bottom"><path id="kvg:09b06-s17" kvg:type="㇜" d="M70.13 68.35c.41.54.32 1.82-.01 2.47-4.5 8.78-6.87 12.93-15.01 22.4-1.72 2-1 4.24 1.5 3.44 6.96-2.25 20.24-5.63 27.78-6.93"/><path id="kvg:09b06-s18" kvg:type="㇔" d="M77.59 81.47c4.19 3.21 10.34 12.74 11.39 17.73"/></g></g></g></g></g></svg>