<svg xmlns="http://www.w3.org/2000/svg" width="109" height="109" viewBox="0 0 109 109"><g id="kvg:StrokePaths_09b18" style="fill:none;stroke:#000000;stroke-width:3;stroke-linecap:round;stroke-linejoin:round;"><g id="kvg:09b18" kvg:element="鬘"><g id="kvg:09b18-g1" kvg:element="髟" kvg:position="top" kvg:radical="general"><g id="kvg:09b18-g2" kvg:element="長" kvg:variant="true" kvg:position="left"><path id="kvg:09b18-s1" kvg:type="㇑a" d="M27.09 9.95c1.22.74 1.22.86 1.22 1.6s.41 16.54.41 17.65"/><path id="kvg:09b18-s2" kvg:type="㇐b" d="M29.15 10.96c4.19-.13 12.67-2.11 18.12-2.17 1.27-.01 2.04.09 2.67.18"/><path id="kvg:09b18-s3" kvg:type="㇐b" d="M29.73 17.36c3.7-.26 12.37-1.71 15.36-1.97 1.12-.1 2.27-.07 3.13.09"/><path id="kvg:09b18-s4" kvg:type="㇐b" d="M29.52 23.53c3.7-.26 12.37-2.21 15.36-2.47 1.13-.1 2.27-.07 3.13.09"/><path id="kvg:09b18-s5" kvg:type="㇐" d="M12.52 31.12c.88.19 2.49.22 3.36.19 9.13-.32 21.64-3.08 34.1-3.33 1.46-.03 2.34.09 3.07.19"/><g id="kvg:09b18-g3" kvg:element="厶"><path id="kvg:09b18-s6" kvg:type="㇜" d="M30.34 31.2c.08.46-.41 1.12-.65 1.38-2.2 2.42-4.45 4.92-6.92 7.17-1.12 1.01-.57 2 1.5 1.46 6.48-1.71 12.98-3.46 20.88-5.35"/><path id="kvg:09b18-s7" kvg:type="㇔" d="M42.64 32.62c2.2 1.28 5.68 5.28 6.23 7.27"/></g></g><g id="kvg:09b18-g4" kvg:element="彡" kvg:position="right"><path id="kvg:09b18-s8" kvg:type="㇒" d="M79.41 8.5c.06.3.25.82-.12 1.2-2.89 2.94-9.3 7.21-20.85 11.05"/><path id="kvg:09b18-s9" kvg:type="㇒" d="M84.92 16.75c.07.33.33.91-.14 1.31-3.52 2.98-11.83 8.74-24.31 12.53"/><path id="kvg:09b18-s10" kvg:type="㇒" d="M89.83 25.8c.08.32.31.85-.16 1.28-3.27 2.94-13.56 8.57-29.36 12.18"/></g></g><g id="kvg:09b18-g5" kvg:element="曼" kvg:position="bottom"><g id="kvg:09b18-g6" kvg:element="日" kvg:position="top"><path id="kvg:09b18-s11" kvg:type="㇑" d="M33.13 44.41c.27.22.27.37.42.65 1.22 2.28 2.36 8.35 3.11 12.61"/><path id="kvg:09b18-s12" kvg:type="㇕a" d="M34.38 45.02c9.87-.77 32.44-3.06 39.46-3.63 1.66-.14 3 1.58 2.77 2.98-.37 2.31-2.11 6.47-3.29 10.31"/><path id="kvg:09b18-s13" kvg:type="㇐a" d="M36.14 50.62c3.07-.22 36.85-3.37 39.38-3.46"/><path id="kvg:09b18-s14" kvg:type="㇐a" d="M37.14 56.45c6.78-.24 26.82-2.47 36.18-2.87"/></g><g id="kvg:09b18-g7" kvg:position="bottom"><g id="kvg:09b18-g8" kvg:element="罒" kvg:variant="true" kvg:original="网"><path id="kvg:09b18-s15" kvg:type="㇑" d="M24.38 62.62c.31.21.64.39.77.66 1.09 2.13 2.25 7.99 3 11.81"/><path id="kvg:09b18-s16" kvg:type="㇕a" d="M25.9 63.68c6.92-.83 53.75-4.05 57.43-4.33 1.34-.1 3.17.72 2.81 1.92-.75 2.5-2.1 6.78-4.1 10.34"/><path id="kvg:09b18-s17" kvg:type="㇑a" d="M44.69 62.5c.21 1.42 1.32 8.33 1.54 9.93"/><path id="kvg:09b18-s18" kvg:type="㇑a" d="M63.13 61.11c-.21 2.3-.35 7.18-.76 9.75"/><path id="kvg:09b18-s19" kvg:type="㇐a" d="M29.14 73.57c4.32-.31 47.45-3.28 53.39-3.77"/></g><g id="kvg:09b18-g9" kvg:element="又"><path id="kvg:09b18-s20" kvg:type="㇇" d="M32.25 81.7c1.72.19 1.94.48 5.39.19s29.57-3.13 31.94-3.42c2.37-.29 4.05 1.12 2.29 2.41-14.23 10.4-30.55 17.2-51.6 21.12"/><path id="kvg:09b18-s21" kvg:type="㇏" d="M34.78 85.63c4.95.36 29.11 10.06 46.33 14.03 2.68.62 4.63 1.03 7.13 1.24"/></g></g></g></g></g></svg>