<svg xmlns="http://www.w3.org/2000/svg" width="109" height="109" viewBox="0 0 109 109"><g id="kvg:StrokePaths_09b1a"><g id="kvg:09b1a" kvg:element="鬚"><g id="kvg:09b1a-g1" kvg:element="髟" kvg:position="top" kvg:radical="general"><g id="kvg:09b1a-g2" kvg:element="長" kvg:variant="true" kvg:position="left"><path id="kvg:09b1a-s1" kvg:type="㇑a" d="M27.51 11.43c1.31.96 1.31 1.12 1.31 2.08s.44 21.28.44 22.72"/><path id="kvg:09b1a-s2" kvg:type="㇐b" d="M30 12.95c4.5-.17 13.87-2.09 19.73-2.16 1.37-.02 2.19.12 2.87.24"/><path id="kvg:09b1a-s3" kvg:type="㇐b" d="M30.85 21.74c3.97-.34 12.79-2.07 16-2.4 1.21-.13 2.43-.09 3.36.11"/><path id="kvg:09b1a-s4" kvg:type="㇐b" d="M29.63 28.74c3.97-.34 14.29-2.07 17.5-2.4 1.21-.13 2.43-.09 3.36.11"/><path id="kvg:09b1a-s5" kvg:type="㇐" d="M13.62 38.13c.91.24 2.59.28 3.5.24 9.5-.4 23.2-4.28 36.17-4.59 1.52-.04 2.44.11 3.2.23"/><g id="kvg:09b1a-g3" kvg:element="厶"><path id="kvg:09b1a-s6" kvg:type="㇜" d="M31.93 39.83c.07.48-.37 1.14-.55 1.42-1.88 2.75-2.88 4.26-7.04 7.89-1.04.91-.5 2.42 1.28 1.97 6.86-1.75 16.28-4.1 24.1-6.36"/><path id="kvg:09b1a-s7" kvg:type="㇔" d="M43.79 39.85c2.85 1.45 7.36 5.97 8.07 8.23"/></g></g><g id="kvg:09b1a-g4" kvg:element="彡" kvg:position="right"><path id="kvg:09b1a-s8" kvg:type="㇒" d="M81.99 10.5c.06.3.25.82-.12 1.21-2.88 2.96-9.28 7.25-20.81 11.11"/><path id="kvg:09b1a-s9" kvg:type="㇒" d="M87.61 21.78c.08.32.35.9-.14 1.28C83.76 25.99 75 31.64 61.83 35.36"/><path id="kvg:09b1a-s10" kvg:type="㇒" d="M90.58 33.79c.08.29.31.78-.16 1.18-3.18 2.72-13.16 7.94-28.49 11.28"/></g></g><g id="kvg:09b1a-g5" kvg:element="須" kvg:position="bottom"><g id="kvg:09b1a-g6" kvg:element="彡" kvg:position="left"><g id="kvg:09b1a-g7" kvg:element="丿"><path id="kvg:09b1a-s11" kvg:type="㇒" d="M40.48 53c.06.35.28.96-.13 1.4-3.22 3.44-10.39 8.43-23.28 12.91"/></g><g id="kvg:09b1a-g8" kvg:element="丿"><path id="kvg:09b1a-s12" kvg:type="㇒" d="M41.61 65.28c.08.39.35 1.09-.14 1.57-3.67 3.57-12.35 10.47-25.39 15.01"/></g><g id="kvg:09b1a-g9" kvg:element="丿"><path id="kvg:09b1a-s13" kvg:type="㇒" d="M43.09 78.29c.08.44.28 1.17-.14 1.77C40.05 84.16 30.94 91.98 16.93 97"/></g></g><g id="kvg:09b1a-g10" kvg:element="頁" kvg:position="right"><g id="kvg:09b1a-g11" kvg:position="top"><path id="kvg:09b1a-s14" kvg:type="㇐" d="M49.99 52.21c1.19.36 3.39.47 4.58.36 13.21-1.19 21.82-3.27 33.26-3.75 1.99-.08 3.18.17 4.18.36"/><path id="kvg:09b1a-s15" kvg:type="㇒" d="M68.7 52.06c.01.17.02.45-.02.69-.27 1.46-2.2 4.97-4.35 6.94"/></g><g id="kvg:09b1a-g12" kvg:element="貝" kvg:position="bottom"><g id="kvg:09b1a-g13" kvg:element="目" kvg:position="top"><path id="kvg:09b1a-s16" kvg:type="㇑" d="M53.86 60.45c.48.65 1.17 1.14 1.17 2.01s-.32 23.41-.32 23.84c0 .43.16.43.32 1.3"/><path id="kvg:09b1a-s17" kvg:type="㇕a" d="M55.83 61.61c2.7-.11 25.02-2.7 27.48-2.83 2.05-.11 2.45.75 2.45 2.01.0 1.04-.6 24.42-.6 25.07"/><path id="kvg:09b1a-s18" kvg:type="㇐a" d="M55.79 69.4c4.7-.48 23.53-1.93 29.31-2.16"/><path id="kvg:09b1a-s19" kvg:type="㇐a" d="M55.66 77.7c6.22-.55 21.74-1.7 29.12-2"/><path id="kvg:09b1a-s20" kvg:type="㇐a" d="M55.31 86.32c6.22-.65 21.26-1.97 29.12-2.3"/></g><g id="kvg:09b1a-g14" kvg:element="八" kvg:position="bottom"><path id="kvg:09b1a-s21" kvg:type="㇒" d="M62.13 88.72c.43.94-.17 1.94-.9 2.73-2.39 2.58-8.26 6.04-14.84 8.79"/><path id="kvg:09b1a-s22" kvg:type="㇔" d="M75.79 88.96c6.05 2.48 13.68 8.12 15.33 10.28"/></g></g></g></g></g></g></svg>