<!DOCTYPE svg PUBLIC "-//W3C//DTD SVG 1.0//EN" "http://www.w3.org/TR/2001/REC-SVG-20010904/DTD/svg10.dtd" [
<!ATTLIST g
xmlns:kvg CDATA #FIXED "http://kanjivg.tagaini.net"
kvg:element CDATA #IMPLIED
kvg:variant CDATA #IMPLIED
kvg:partial CDATA #IMPLIED
kvg:original CDATA #IMPLIED
kvg:part CDATA #IMPLIED
kvg:number CDATA #IMPLIED
kvg:tradForm CDATA #IMPLIED
kvg:radicalForm CDATA #IMPLIED
kvg:position CDATA #IMPLIED
kvg:radical CDATA #IMPLIED
kvg:phon CDATA #IMPLIED >
<!ATTLIST path
xmlns:kvg CDATA #FIXED "http://kanjivg.tagaini.net"
kvg:type CDATA #IMPLIED >
]><svg xmlns="http://www.w3.org/2000/svg" width="109" height="109" viewBox="0 0 109 109"><g id="kvg:StrokePaths_09b2e" style="fill:none;stroke:#000000;stroke-width:3;stroke-linecap:round;stroke-linejoin:round;"><g id="kvg:09b2e" kvg:element="鬮"><g id="kvg:09b2e-g1" kvg:element="鬥" kvg:position="kamae" kvg:radical="general"><g id="kvg:09b2e-g2" kvg:position="left"><path id="kvg:09b2e-s1" kvg:type="㇑" d="M15.87 15.75c1.09.5 1.74 2.25 1.96 3.25s0 72.75-.22 79"/><g id="kvg:09b2e-g3" kvg:element="王" kvg:original="玉" kvg:partial="true"><path id="kvg:09b2e-s2" kvg:type="㇐" d="M23.97 16.82c.46.23 1.96.06 2.43.01 5.11-.55 14.95-1.64 20.18-1.88.71-.03 1.36.05 1.95.24"/><path id="kvg:09b2e-s3" kvg:type="㇑a" d="M35.11 16.71c.93 1.05.93 1.68.93 2.52.0 2.75.49 8.84.49 14.7"/><path id="kvg:09b2e-s4" kvg:type="㇐" d="M24.47 26.22c.43.21 1.82.06 2.26.01 4.74-.51 13.89-1.53 18.74-1.75.66-.03 1.26.04 1.81.22"/><path id="kvg:09b2e-s5" kvg:type="㇐" d="M22.97 35.4c.52.26 2.2.07 2.73.02 5.73-.62 16.78-1.85 22.65-2.11.8-.04 1.53.05 2.19.26"/></g></g><g id="kvg:09b2e-g4" kvg:position="right"><g id="kvg:09b2e-g5" kvg:element="王" kvg:original="玉" kvg:partial="true"><path id="kvg:09b2e-s6" kvg:type="㇐" d="M57.75 15.52c.47.25 2.02.07 2.5.02 5.24-.61 16.36-1.82 21.73-2.09.73-.04 1.4.05 2 .26"/><path id="kvg:09b2e-s7" kvg:type="㇑a" d="M70.19 15.4c.96 1.16.96 1.86.96 2.8.0 6.52.5 8.8.5 13.8"/><path id="kvg:09b2e-s8" kvg:type="㇐" d="M59.26 24.45c.44.24 1.87.07 2.32.02 4.87-.57 14.27-2.19 19.25-2.44.68-.03 1.3.05 1.86.24"/><path id="kvg:09b2e-s9" kvg:type="㇐" d="M57.72 33.64c.53.29 2.26.08 2.8.02 5.89-.68 17.24-2.05 23.26-2.34.82-.04 1.57.06 2.25.29"/></g><path id="kvg:09b2e-s10" kvg:type="㇚" d="M90.27 12.33c.98.92 1.76 1.99 1.76 5.02.0 19.9.24 70.16.24 75.12.0 10.39-7.21 1.5-8.71.25"/></g></g><g id="kvg:09b2e-g6" kvg:element="龜"><g id="kvg:09b2e-g7" kvg:element="𠂊" kvg:variant="true" kvg:original="勹"><path id="kvg:09b2e-s11" kvg:type="㇒" d="M43.63 35.75c.05.32.1.84-.09 1.3C42.4 39.8 35.9 45.82 26.98 49.5"/><path id="kvg:09b2e-s12" kvg:type="㇇" d="M41.46 40.47c3.44-.2 10.47-.71 13.6-1.88 2.4-.9 3.48.19 1.67 2.27-1.6 1.84-3.08 3.35-5.97 6.79"/></g><path id="kvg:09b2e-s13" kvg:type="㇑" d="M33.21 48.81c.45.45.52.74.71 1.32.67 2.02 1.12 5.15 1.44 7.94"/><path id="kvg:09b2e-s14" kvg:type="㇕" d="M35.11 48.85c6.25-.92 34.66-3.77 38.63-4.39 1.46-.23 2.34.6 2.13 1.38-.85 3.19-1.36 3.92-1.96 6.16"/><path id="kvg:09b2e-s15" kvg:type="㇐" d="M35.29 56.73c1.87.0 11.54-1.12 13.07-1.12"/><path id="kvg:09b2e-s16" kvg:type="㇐" d="M59.07 54.7c3.4-.32 13.91-1.53 15.95-1.53"/><path id="kvg:09b2e-s17" kvg:type="㇑" d="M57.96 47.8c.15.64.0 41.3-.15 45.32"/><path id="kvg:09b2e-s18" kvg:type="㇟" d="M48.94 48.47c0 8.01-.02 37.24-.02 40.82.0 7.7 2.5 9.2 14.91 9.2s14.72-.5 14.72-7.66"/><g id="kvg:09b2e-g8" kvg:element="⺕" kvg:variant="true" kvg:original="彑"><path id="kvg:09b2e-s19" kvg:type="㇕" d="M28.39 62.47c1.13.42 1.28.75 2.28.58 4.1-.7 5.91-1.25 10.86-1.79.83-.09 1.69.91 1.47 2.01-.58 2.88-.99 3.92-1.76 8.87"/><path id="kvg:09b2e-s20" kvg:type="㇕" d="M25.32 67.72c1.13.42 1.27.65 2.28.58 6.16-.44 41.86-5.41 46.69-5.41 1.43.0 2.17 1.25 2.2 2.37.08 3.42-1.35 15.87-2.12 20.81"/><path id="kvg:09b2e-s21" kvg:type="㇐" d="M28.69 74.66c.55.07 1.55.29 2.2.2 7.68-1.01 10.8-1.73 11.46-1.66"/></g><g id="kvg:09b2e-g9" kvg:element="⺕" kvg:variant="true" kvg:original="彑"><path id="kvg:09b2e-s22" kvg:type="㇕" d="M27.67 80.57c1.1.11 1.63.35 2.64.22 4.1-.52 7.17-1.61 11.23-2.15 1.42-.19 1.69.55 1.47 1.65-.58 2.88-.99 7.54-1.76 12.49"/><path id="kvg:09b2e-s23" kvg:type="㇐" d="M24.75 86.83c.97.31 2.49.68 3.58.58 9.56-.88 37.2-3.35 46.45-4.2"/><path id="kvg:09b2e-s24" kvg:type="㇐c" d="M27.6 93.92c.55.07 1.54.24 2.2.2 4.6-.29 10.39-.83 12.63-1.01"/></g><path id="kvg:09b2e-s25" kvg:type="㇒" d="M69.71 66.62c.02.33.05.84-.05 1.31-.58 2.76-3.89 8.8-8.43 12.5"/><path id="kvg:09b2e-s26" kvg:type="㇔" d="M61.74 70.19c3.08 1.68 7.95 6.9 8.72 9.51"/></g></g></g><g id="kvg:StrokeNumbers_09b2e" style="font-size:8;fill:#808080"><text transform="matrix(1 0 0 1 11.00 26.50)">1</text><text transform="matrix(1 0 0 1 23.50 14.00)">2</text><text transform="matrix(1 0 0 1 29.50 24.50)">3</text><text transform="matrix(1 0 0 1 21.50 24.50)">4</text><text transform="matrix(1 0 0 1 22.50 33.50)">5</text><text transform="matrix(1 0 0 1 55.50 12.50)">6</text><text transform="matrix(1 0 0 1 65.50 22.50)">7</text><text transform="matrix(1 0 0 1 53.00 25.00)">8</text><text transform="matrix(1 0 0 1 55.50 31.00)">9</text><text transform="matrix(1 0 0 1 84.50 8.50)">10</text><text transform="matrix(1 0 0 1 30.50 42.50)">11</text><text transform="matrix(1 0 0 1 50.50 37.80)">12</text><text transform="matrix(1 0 0 1 24.25 56.03)">13</text><text transform="matrix(1 0 0 1 41.50 45.70)">14</text><text transform="matrix(1 0 0 1 35.00 55.12)">15</text><text transform="matrix(1 0 0 1 60.50 52.30)">16</text><text transform="matrix(1 0 0 1 50.50 53.50)">17</text><text transform="matrix(1 0 0 1 41.00 54.50)">18</text><text transform="matrix(1 0 0 1 20.25 63.58)">19</text><text transform="matrix(1 0 0 1 19.50 70.75)">20</text><text transform="matrix(1 0 0 1 20.50 76.50)">21</text><text transform="matrix(1 0 0 1 20.25 82.13)">22</text><text transform="matrix(1 0 0 1 19.50 88.63)">23</text><text transform="matrix(1 0 0 1 20.00 95.63)">24</text><text transform="matrix(1 0 0 1 62.00 69.38)">25</text><text transform="matrix(1 0 0 1 59.25 77.38)">26</text></g></svg>