<!DOCTYPE svg PUBLIC "-//W3C//DTD SVG 1.0//EN" "http://www.w3.org/TR/2001/REC-SVG-20010904/DTD/svg10.dtd" [
<!ATTLIST g
xmlns:kvg CDATA #FIXED "http://kanjivg.tagaini.net"
kvg:element CDATA #IMPLIED
kvg:variant CDATA #IMPLIED
kvg:partial CDATA #IMPLIED
kvg:original CDATA #IMPLIED
kvg:part CDATA #IMPLIED
kvg:number CDATA #IMPLIED
kvg:tradForm CDATA #IMPLIED
kvg:radicalForm CDATA #IMPLIED
kvg:position CDATA #IMPLIED
kvg:radical CDATA #IMPLIED
kvg:phon CDATA #IMPLIED >
<!ATTLIST path
xmlns:kvg CDATA #FIXED "http://kanjivg.tagaini.net"
kvg:type CDATA #IMPLIED >
]><svg xmlns="http://www.w3.org/2000/svg" width="109" height="109" viewBox="0 0 109 109"><g id="kvg:StrokePaths_09b3c" style="fill:none;stroke:#000000;stroke-width:3;stroke-linecap:round;stroke-linejoin:round;"><g id="kvg:09b3c" kvg:element="鬼" kvg:radical="general"><g id="kvg:09b3c-g1" kvg:element="甶" kvg:position="top"><g id="kvg:09b3c-g2" kvg:element="丿"><path id="kvg:09b3c-s1" kvg:type="㇒" d="M50.85 11.25c.08 1.12-.04 1.7-.53 2.73C47.86 19.2 46 21.62 40.25 27.75"/></g><g id="kvg:09b3c-g3" kvg:element="田"><path id="kvg:09b3c-s2" kvg:type="㇑" d="M25.83 30.12c.78.78 1.43 2.19 1.58 3 1.22 6.88 2.46 13.28 3.36 21.33.22 2 .42 3.98.59 5.87"/><path id="kvg:09b3c-s3" kvg:type="㇕a" d="M28.17 31.95c12.95-1.7 31.45-4.7 42.95-5.53 3.28-.24 4.63 1.83 4.28 4.12-.7 4.57-2.19 11.16-5.08 19.48-.51 1.47-1.07 3.01-1.69 4.61"/><path id="kvg:09b3c-s4" kvg:type="㇑a" d="M49.58 30.87c.65.65 1.03 1.88 1.03 3.07.0 8.31-.05 15.87.0 19.13"/><path id="kvg:09b3c-s5" kvg:type="㇐a" d="M30.56 44.82c8.57-1.57 34.19-4.57 41.65-5.12"/><path id="kvg:09b3c-s6" kvg:type="㇐a" d="M32.23 56.89c13.52-2.14 23.52-3.64 36.49-5.12"/></g></g><g id="kvg:09b3c-g4" kvg:position="bottom"><g id="kvg:09b3c-g5" kvg:element="儿"><g id="kvg:09b3c-g6" kvg:element="八" kvg:variant="true"><g id="kvg:09b3c-g7" kvg:element="丿" kvg:position="left"><path id="kvg:09b3c-s7" kvg:type="㇒" d="M40.5 60.5c.25.75.44 1.97.12 3.18-2.74 10.2-7.99 23.07-23.12 32.07"/></g><g id="kvg:09b3c-g8" kvg:position="right"><path id="kvg:09b3c-s8" kvg:type="㇟" d="M52.49 57.37c1.01 1.01 1.33 2.59 1.38 4.43.2 8.19.08 19.14.08 24.7.0 9.5 1.81 11.53 19.97 11.53 20.47.0 21.34-1.9 21.34-9.12"/></g></g></g><g id="kvg:09b3c-g9" kvg:element="厶"><path id="kvg:09b3c-s9" kvg:type="㇜" d="M69.75 60.22c.37.9.37 1.9-.08 3.09-2.48 6.51-4.62 11.46-8.07 16.23-1.09 1.51-.29 2.53 1.25 2.01 5.39-1.8 12.89-4.8 18.13-6.69"/><path id="kvg:09b3c-s10" kvg:type="㇔" d="M77.79 70.43c2.44 1.77 7.79 8.78 8.4 11.54"/></g></g></g></g><g id="kvg:StrokeNumbers_09b3c" style="font-size:8;fill:#808080"><text transform="matrix(1 0 0 1 42.50 9.13)">1</text><text transform="matrix(1 0 0 1 20.25 37.50)">2</text><text transform="matrix(1 0 0 1 28.50 28.50)">3</text><text transform="matrix(1 0 0 1 43.50 37.63)">4</text><text transform="matrix(1 0 0 1 34.50 41.50)">5</text><text transform="matrix(1 0 0 1 34.50 53.98)">6</text><text transform="matrix(1 0 0 1 32.50 69.50)">7</text><text transform="matrix(1 0 0 1 46.50 64.50)">8</text><text transform="matrix(1 0 0 1 62.25 63.50)">9</text><text transform="matrix(1 0 0 1 76.50 67.63)">10</text></g></svg>