<!DOCTYPE svg PUBLIC "-//W3C//DTD SVG 1.0//EN" "http://www.w3.org/TR/2001/REC-SVG-20010904/DTD/svg10.dtd" [
<!ATTLIST g
xmlns:kvg CDATA #FIXED "http://kanjivg.tagaini.net"
kvg:element CDATA #IMPLIED
kvg:variant CDATA #IMPLIED
kvg:partial CDATA #IMPLIED
kvg:original CDATA #IMPLIED
kvg:part CDATA #IMPLIED
kvg:number CDATA #IMPLIED
kvg:tradForm CDATA #IMPLIED
kvg:radicalForm CDATA #IMPLIED
kvg:position CDATA #IMPLIED
kvg:radical CDATA #IMPLIED
kvg:phon CDATA #IMPLIED >
<!ATTLIST path
xmlns:kvg CDATA #FIXED "http://kanjivg.tagaini.net"
kvg:type CDATA #IMPLIED >
]><svg xmlns="http://www.w3.org/2000/svg" width="109" height="109" viewBox="0 0 109 109"><g id="kvg:StrokePaths_09b43" style="fill:none;stroke:#000000;stroke-width:3;stroke-linecap:round;stroke-linejoin:round;"><g id="kvg:09b43" kvg:element="魃"><g id="kvg:09b43-g1" kvg:element="鬼" kvg:position="nyo" kvg:radical="general"><g id="kvg:09b43-g2" kvg:element="丿"><path id="kvg:09b43-s1" kvg:type="㇒" d="M32.87 12.25c.02.33.09.95-.05 1.32-1.73 4.65-4.3 8.92-8.82 12.68"/></g><g id="kvg:09b43-g3" kvg:element="田"><path id="kvg:09b43-s2" kvg:type="㇑" d="M14.83 28.12c.23.54.74 1.41.87 2.07 1.04 5.5 2.83 16.24 3.45 26.38"/><path id="kvg:09b43-s3" kvg:type="㇕a" d="M15.93 29.45c8.3-.56 23.57-2.49 29.77-3.03 2.28-.2 3.21 1.58 2.96 3.87-.57 5.38-1.66 15.21-3.02 22.84"/><path id="kvg:09b43-s4" kvg:type="㇑a" d="M31.08 29.533721c.78.78.85 1.63.85 3.07.0 9.06.04 16.516279.04 20.466279"/><path id="kvg:09b43-s5" kvg:type="㇐a" d="M17.41 41.07c2.7-.27 23.84-2.57 29.73-2.87"/><path id="kvg:09b43-s6" kvg:type="㇐a" d="M19.57 54.14c10.18-1.39 16.43-1.39 26.14-2.38"/></g><g id="kvg:09b43-g4" kvg:element="儿" kvg:variant="true" kvg:original="八"><g id="kvg:09b43-g5" kvg:element="丿" kvg:position="left"><path id="kvg:09b43-s7" kvg:type="㇒" d="M25.12 57.75c.17.76.29 2.21.25 3.48-.25 8.43-5.77 25.16-16.12 33.27"/></g><g id="kvg:09b43-g6" kvg:position="right"><path id="kvg:09b43-s8" kvg:type="㇟" d="M32.99 54.87c.74 1.19 1.33 2.59 1.38 4.43.2 8.19-.42 17.64-.42 23.2.0 10.75.81 12.03 32.47 12.03 27.34.0 29.34-1.28 29.34-14.12"/></g></g><g id="kvg:09b43-g7" kvg:element="厶"><path id="kvg:09b43-s9" kvg:type="㇜" d="M44.71 58.97c.23.44.06 2.39-.07 2.95-1.72 7.07-3.06 10.92-6.26 15.88-1.01 1.57-.97 3.11.47 2.57 5.01-1.87 7.92-2.49 12.78-4.46"/><path id="kvg:09b43-s10" kvg:type="㇔" d="M48.17 70.07c1.64 1.8 5.25 8.95 5.66 11.76"/></g></g><g id="kvg:09b43-g8" kvg:element="犮" kvg:position="nyoc"><g id="kvg:09b43-g9" kvg:element="犬" kvg:part="1"><g id="kvg:09b43-g10" kvg:element="大" kvg:part="1" kvg:partial="true"><path id="kvg:09b43-s11" kvg:type="㇐" d="M54.85 34c.93.32 2.63.39 3.56.32 6.09-.44 26.16-3.2 31.89-2.83 1.54.1 2.48.15 3.25.31"/><path id="kvg:09b43-s12" kvg:type="㇒" d="M69.03 13.25c.46.91.95 1.3.89 2.96-.57 15.42-2.9 36.91-14.73 53.09"/></g></g><g id="kvg:09b43-g11" kvg:element="丿"><path id="kvg:09b43-s13" kvg:type="㇒" d="M84.58 40.94c.07 1 .11 2.83-.14 4.02C81.49 58.8 72.5 77.5 57.33 83.79"/></g><g id="kvg:09b43-g12" kvg:element="犬" kvg:part="2"><g id="kvg:09b43-g13" kvg:element="大" kvg:part="2" kvg:partial="true"><path id="kvg:09b43-s14" kvg:type="㇏" d="M66.4 46c4.1 8 12.85 24.25 19.11 32.42 1.07 1.39 1.94 2.22 2.99 2.67"/></g><g id="kvg:09b43-g14" kvg:element="丶"><path id="kvg:09b43-s15" kvg:type="㇔" d="M79.62 16.28c3.52 1.42 9.09 5.84 9.97 8.05"/></g></g></g></g></g><g id="kvg:StrokeNumbers_09b43" style="font-size:8;fill:#808080"><text transform="matrix(1 0 0 1 24.50 10.50)">1</text><text transform="matrix(1 0 0 1 8.50 34.50)">2</text><text transform="matrix(1 0 0 1 17.50 26.50)">3</text><text transform="matrix(1 0 0 1 34.50 35.50)">4</text><text transform="matrix(1 0 0 1 21.50 37.50)">5</text><text transform="matrix(1 0 0 1 22.50 50.50)">6</text><text transform="matrix(1 0 0 1 18.50 66.50)">7</text><text transform="matrix(1 0 0 1 26.50 75.50)">8</text><text transform="matrix(1 0 0 1 38.75 59.78)">9</text><text transform="matrix(1 0 0 1 47.00 68.70)">10</text><text transform="matrix(1 0 0 1 52.50 30.50)">11</text><text transform="matrix(1 0 0 1 57.50 11.50)">12</text><text transform="matrix(1 0 0 1 72.75 41.50)">13</text><text transform="matrix(1 0 0 1 64.50 61.90)">14</text><text transform="matrix(1 0 0 1 74.50 13.50)">15</text></g></svg>