<svg xmlns="http://www.w3.org/2000/svg" width="109" height="109" viewBox="0 0 109 109"><g id="kvg:StrokePaths_09b74"><g id="kvg:09b74" kvg:element="魴"><g id="kvg:09b74-g1" kvg:element="魚" kvg:position="left" kvg:radical="general"><g id="kvg:09b74-g2" kvg:element="𠂊" kvg:variant="true" kvg:original="勹" kvg:position="top"><path id="kvg:09b74-s1" kvg:type="㇒" d="M25.99 11.75c.05.59.24 1.57-.1 2.38-2.39 5.62-8.64 14.12-17.15 22.74"/><path id="kvg:09b74-s2" kvg:type="㇇" d="M22.89 19.88c1.93.0 12.32-1.94 14.35-2.23 1.74-.25 2.13 2.17 1.41 3.4-3.05 5.19-5.48 7.16-10.45 15.4"/></g><g id="kvg:09b74-g3" kvg:position="bottom"><g id="kvg:09b74-g4" kvg:element="田"><path id="kvg:09b74-s3" kvg:type="㇑" d="M14.22 38.06c.19.53.2.89.31 1.55.88 5.41 1.82 19.95 2.36 29.9"/><path id="kvg:09b74-s4" kvg:type="㇕a" d="M15.13 40.01c6.82-.46 18.43-2.3 23.52-2.77 1.87-.17 2.83 1.4 2.73 2.85-.35 5.29-.54 18.15-2.04 27.96"/><path id="kvg:09b74-s5" kvg:type="㇑a" d="M26.48 39.45c.77.76 1.36 2.99 1.39 4.7.1 7.56.02 18.24.02 21.98"/><path id="kvg:09b74-s6" kvg:type="㇐a" d="M16.83 52.8c2.22-.23 21.72-3.06 23.56-3.04"/><path id="kvg:09b74-s7" kvg:type="㇐a" d="M17.24 67c4.91.06 15.15-1.51 21.92-1.57"/></g><g id="kvg:09b74-g5" kvg:element="灬" kvg:variant="true" kvg:original="火"><path id="kvg:09b74-s8" kvg:type="㇔" d="M13.36 78.82c0 5.32-2.33 13.16-2.67 14.68"/><path id="kvg:09b74-s9" kvg:type="㇔" d="M19.37 76.83c1.77 2.55 3.95 9.57 4.39 13.54"/><path id="kvg:09b74-s10" kvg:type="㇔" d="M28.98 74.94c1.54 2.33 3.97 9.09 4.36 12.71"/><path id="kvg:09b74-s11" kvg:type="㇔" d="M37.3 72.37c1.66 1.9 4.28 7.82 4.7 10.78"/></g></g></g><g id="kvg:09b74-g6" kvg:element="方" kvg:position="right"><g id="kvg:09b74-g7" kvg:element="亠" kvg:position="top"><path id="kvg:09b74-s12" kvg:type="㇑a" d="M68.75 12.25c1.13.7 1.94 2.88 1.94 4.27.0 5.13-.36 10.18-.15 14.52"/><path id="kvg:09b74-s13" kvg:type="㇐" d="M45.88 33.14c1.62.36 3.45.66 4.77.52 10.66-1.1 29.45-4.17 43.93-4.93 2.23-.12 2.38.04 4.04.67"/></g><g id="kvg:09b74-g8" kvg:position="bottom"><path id="kvg:09b74-s14" kvg:type="㇆a" d="M70.52 39.32c5.76 2.04 12.09 4.38 17.43 5.24 3.02.48 4.19 1.56 3.72 3.89-1.33 6.5-12.49 41.09-16.29 46.17-4.13 5.51-8.12-1.12-9.62-3.45"/><path id="kvg:09b74-s15" kvg:type="㇒" d="M69.61 34.25c.38 1.59.3 3.38-.14 5.17-3.08 12.33-11.98 37.25-25.79 48.91"/></g></g></g></g></svg>