<svg xmlns="http://www.w3.org/2000/svg" width="109" height="109" viewBox="0 0 109 109"><g id="kvg:StrokePaths_09b83"><g id="kvg:09b83" kvg:element="鮃"><g id="kvg:09b83-g1" kvg:element="魚" kvg:position="left" kvg:radical="general"><g id="kvg:09b83-g2" kvg:element="𠂊" kvg:variant="true" kvg:original="勹" kvg:position="top"><path id="kvg:09b83-s1" kvg:type="㇒" d="M28.99 11.75c.05.59.26 1.58-.09 2.38C25.75 21.25 20.75 29 12.49 36.87"/><path id="kvg:09b83-s2" kvg:type="㇇" d="M25.09 22.41c1.77.0 13.71-2.74 15.58-3.01 1.6-.23 2.46 1 1.79 2.13-2.81 4.77-5.84 8.85-10.41 16.43"/></g><g id="kvg:09b83-g3" kvg:position="bottom"><g id="kvg:09b83-g4" kvg:element="田"><path id="kvg:09b83-s3" kvg:type="㇑" d="M15.22 40.68c.23.49 1.23 1.83 1.36 2.45 1.02 5.1 3.11 17.53 3.75 27.05"/><path id="kvg:09b83-s4" kvg:type="㇕a" d="M16.78 41.95c7.92-1.29 23.01-4.05 28.92-5.13 2.17-.4 3.29 1 3.17 2.41-.41 5.15-1.79 18.65-3.53 28.29"/><path id="kvg:09b83-s5" kvg:type="㇑a" d="M31.06 40.47c.9.64 1.58 2.71 1.61 4.36.12 7.28.03 17.58.03 21.19"/><path id="kvg:09b83-s6" kvg:type="㇐a" d="M19.76 54.56c2.58-.5 25.26-4.18 27.39-4.39"/><path id="kvg:09b83-s7" kvg:type="㇐a" d="M20.23 68.22c5.71-.55 17.61-2.33 25.49-3.23"/></g><g id="kvg:09b83-g5" kvg:element="灬" kvg:variant="true" kvg:original="火"><path id="kvg:09b83-s8" kvg:type="㇔" d="M15.07 79.07c0 5.59-1.66 13.83-2.09 15.43"/><path id="kvg:09b83-s9" kvg:type="㇔" d="M23.14 79.33c1.41 2.41 2.75 9.04 3.11 12.79"/><path id="kvg:09b83-s10" kvg:type="㇔" d="M31.07 75.19c1.83 2.37 5.23 9.77 5.69 13.46"/><path id="kvg:09b83-s11" kvg:type="㇔" d="M39.8 72.12c2.36 2.48 6.11 10.18 6.7 14.03"/></g></g></g><g id="kvg:09b83-g6" kvg:element="平" kvg:variant="true" kvg:position="right"><g id="kvg:09b83-g7" kvg:element="干" kvg:part="1"><path id="kvg:09b83-s12" kvg:type="㇐" d="M55.5 18.42c.69.23 3.05.25 3.74.21 4.75-.27 21.78-3.45 29.88-3.91 1.14-.06 3.54.2 4.11.32"/></g><path id="kvg:09b83-s13" kvg:type="㇒" d="M63.24 29.23c.02.43.05 1.11-.04 1.73-.56 3.65-5.26 14.17-9.65 19.08"/><path id="kvg:09b83-s14" kvg:type="㇔" d="M82.21 27.17c6.05 3.87 12.74 11.99 14.25 18"/><g id="kvg:09b83-g8" kvg:element="干" kvg:part="2"><g id="kvg:09b83-g9" kvg:element="十"><path id="kvg:09b83-s15" kvg:type="㇐" d="M52 57.59c1.05.5 2.98.57 4.02.5 10.94-.77 24.99-2.96 39.04-4.67 1.74-.21 2.8.24 3.68.49"/><path id="kvg:09b83-s16" kvg:type="㇑" d="M73.21 19.32c.36.47 1.11 3.49 1.18 4.42.07.93-.05 69.07-.12 74.89"/></g></g></g></g></g></svg>