<svg xmlns="http://www.w3.org/2000/svg" width="109" height="109" viewBox="0 0 109 109"><g id="kvg:StrokePaths_09ba0"><g id="kvg:09ba0" kvg:element="鮠"><g id="kvg:09ba0-g1" kvg:element="魚" kvg:position="left" kvg:radical="general"><g id="kvg:09ba0-g2" kvg:element="𠂊" kvg:variant="true" kvg:original="勹" kvg:position="top"><path id="kvg:09ba0-s1" kvg:type="㇒" d="M25.99 14.25c.04.56.26 1.51-.08 2.26-2.66 5.74-7.66 15.99-15.67 23.61"/><path id="kvg:09ba0-s2" kvg:type="㇇" d="M23.89 22.88c1.93.0 14.32-2.94 16.35-3.23 1.74-.25 2.63 2.17 1.91 3.4-3.05 5.19-6.48 10.16-11.45 18.4"/></g><g id="kvg:09ba0-g3" kvg:position="bottom"><g id="kvg:09ba0-g4" kvg:element="田"><path id="kvg:09ba0-s3" kvg:type="㇑" d="M13.7 44.48c.31.49.31.83.48 1.44 1.39 5.05 2.87 18.34 3.73 27.77"/><path id="kvg:09ba0-s4" kvg:type="㇕a" d="M14.72 46.9c7.49-1.22 21.31-3.81 26.91-4.83 2.05-.38 3.11.95 3 2.28-.39 4.88-1.19 17.68-2.84 26.81"/><path id="kvg:09ba0-s5" kvg:type="㇑a" d="M28.25 45.55c.85.61 1.5 2.57 1.52 4.13.11 6.9.02 16.66.02 20.08"/><path id="kvg:09ba0-s6" kvg:type="㇐a" d="M17.59 58.88c2.44-.47 21.91-3.63 25.9-4.16"/><path id="kvg:09ba0-s7" kvg:type="㇐a" d="M18.04 71.85c5.39-.52 16.65-2.69 24.1-3.53"/></g><g id="kvg:09ba0-g5" kvg:element="灬" kvg:variant="true" kvg:original="火"><path id="kvg:09ba0-s8" kvg:type="㇔" d="M15.36 82.32c0 5.32-1.83 12.66-2.17 14.18"/><path id="kvg:09ba0-s9" kvg:type="㇔" d="M22.4 81.83c1.4 2.55 2.73 9.57 3.08 13.54"/><path id="kvg:09ba0-s10" kvg:type="㇔" d="M30.61 79.44c2.15 2.07 5.56 8.5 6.11 11.71"/><path id="kvg:09ba0-s11" kvg:type="㇔" d="M38.8 76.62c2.19 2.12 5.65 8.73 6.2 12.03"/></g></g></g><g id="kvg:09ba0-g6" kvg:element="危" kvg:position="right"><g id="kvg:09ba0-g7" kvg:element="𠂊" kvg:variant="true" kvg:original="勹" kvg:position="top"><path id="kvg:09ba0-s12" kvg:type="㇒" d="M66.85 12.5c.05.58.1 1.5-.09 2.34-1.12 4.92-8.61 16.44-16.74 23.41"/><path id="kvg:09ba0-s13" kvg:type="㇇" d="M63.67 22.38c1.93.0 16.58-2.63 20.68-4.15 1.65-.61 2.78 1.67 1.91 2.76-4.01 5-7.96 11-11.18 17.75"/></g><g id="kvg:09ba0-g8" kvg:element="厄" kvg:position="bottom"><g id="kvg:09ba0-g9" kvg:element="厂" kvg:position="tare"><path id="kvg:09ba0-s14" kvg:type="㇐" d="M53.58 42.57c.91.41 2.57.5 3.47.41 9.45-.98 25.45-4.23 36-5.69 1.51-.21 2.42.2 3.17.4"/><path id="kvg:09ba0-s15" kvg:type="㇒" d="M56.3 43.67c.03 1.21-.05 2.61-.05 4.35.0 11.48.0 34.73-9.19 46.22"/></g><g id="kvg:09ba0-g10" kvg:element="卩" kvg:position="tarec"><path id="kvg:09ba0-s16" kvg:type="㇆" d="M64.48 54c.63.12 1.89.57 3.15.33 4.37-.83 16.41-2.55 17.96-2.92 2.54-.6 4.66 1.12 4.09 3.48C88.5 59.75 88 65.5 85.21 71.6c-3.3 7.23-5.96 2.65-7.08.34"/><path id="kvg:09ba0-s17" kvg:type="㇟/㇑" d="M65.95 54.3c.62 1.36.61 2.97.64 5.07.17 9.38.18 18.5.18 24.88.0 10.5.97 11.71 17.18 11.71 12.3.0 13.69-2.46 13.69-11.46"/></g></g></g></g></g></svg>