<svg xmlns="http://www.w3.org/2000/svg" width="109" height="109" viewBox="0 0 109 109"><g id="kvg:StrokePaths_09bae"><g id="kvg:09bae" kvg:element="鮮"><g id="kvg:09bae-g1" kvg:element="魚" kvg:position="left" kvg:radical="general"><g id="kvg:09bae-g2" kvg:element="𠂊" kvg:variant="true" kvg:original="勹" kvg:position="top"><path id="kvg:09bae-s1" kvg:type="㇒" d="M30.24 12c.13.75.17 1.47-.08 2.26C28.62 19 23.38 27.5 15.24 35.62"/><path id="kvg:09bae-s2" kvg:type="㇇a" d="M28.89 19.88c1.93.0 12.07-1.19 14.1-1.48 1.74-.25 2.89 1.23 1.41 3.15-3.67 4.77-6.64 7.57-11.95 15.15"/></g><g id="kvg:09bae-g3" kvg:position="bottom"><g id="kvg:09bae-g4" kvg:element="田"><path id="kvg:09bae-s3" kvg:type="㇑" d="M16.72 39.14c.88.88 1.25 2.39 1.4 3.36C19 49 19.95 56.65 20.53 64.02c.11 1.36.2 2.67.29 3.91"/><path id="kvg:09bae-s4" kvg:type="㇕a" d="M18.78 40.52c7.03-1.05 18.9-2.76 25.62-3.83 3.69-.58 5.63-.52 5.34 3.7-.32 4.54-.74 12.24-1.7 19.4-.2 1.51-.43 3-.69 4.43"/><path id="kvg:09bae-s5" kvg:type="㇑a" d="M33.06 39.98c.92.92 1.08 2.01 1.11 3.54.12 6.73.03 14.52.03 17.85"/><path id="kvg:09bae-s6" kvg:type="㇐a" d="M20.26 51.98c2.58-.46 25.76-3.12 27.89-3.31"/><path id="kvg:09bae-s7" kvg:type="㇐a" d="M21.73 64.15c6.89-1.03 17.36-2.37 25.24-3.2"/></g><g id="kvg:09bae-g5" kvg:element="灬" kvg:variant="true" kvg:original="火"><path id="kvg:09bae-s8" kvg:type="㇔" d="M18.29 77.12c0 5.57-2 13.78-2.52 15.38"/><path id="kvg:09bae-s9" kvg:type="㇔" d="M26.95 75.33c.91 2.36 1.77 8.87 1.99 12.54"/><path id="kvg:09bae-s10" kvg:type="㇔" d="M35.88 73.38c1.35 2.03 3.48 8.36 3.82 11.53"/><path id="kvg:09bae-s11" kvg:type="㇔" d="M44.75 70.38c1.85 1.9 4.79 7.82 5.25 10.78"/></g></g></g><g id="kvg:09bae-g6" kvg:element="羊" kvg:position="right"><g id="kvg:09bae-g7" kvg:element="䒑"><path id="kvg:09bae-s12" kvg:type="㇔" d="M58.62 16.99c3.16 1.94 8.16 7.96 8.95 10.98"/><path id="kvg:09bae-s13" kvg:type="㇒" d="M85.46 13.14c.06.87-.02 1.51-.31 2.33-1.48 4.09-4.18 8.63-8.63 14.27"/><path id="kvg:09bae-s14" kvg:type="㇐" d="M57.75 34.96c2.38.29 4.18.11 5.65-.09 5.81-.8 16.18-2.44 21.85-2.96 1.54-.14 3.5-.16 5.09.19"/></g><path id="kvg:09bae-s15" kvg:type="㇐" d="M58.94 50.05c2.19.45 3.94.36 5.21.19 5.46-.73 14.73-2.34 20.24-2.78 1.58-.13 3.36-.21 4.98.21"/><path id="kvg:09bae-s16" kvg:type="㇐" d="M52.92 67.82c2.45.68 5.25.52 7.23.27 7.66-.97 21.04-2.81 29.97-3.25 2.4-.12 5.13-.33 7.45.15"/><path id="kvg:09bae-s17" kvg:type="㇑" d="M72.95 35.83c.98.98 1.24 2.42 1.24 4.25.0 5.42-.02 29.94-.05 49.42-.01 3.33-.01 6.32-.01 8.75"/></g></g></g></svg>