<svg xmlns="http://www.w3.org/2000/svg" width="109" height="109" viewBox="0 0 109 109"><g id="kvg:StrokePaths_09ba8"><g id="kvg:09ba8" kvg:element="鮨"><g id="kvg:09ba8-g1" kvg:element="魚" kvg:position="left" kvg:radical="general"><g id="kvg:09ba8-g2" kvg:element="𠂊" kvg:variant="true" kvg:original="勹" kvg:position="top"><path id="kvg:09ba8-s1" kvg:type="㇒" d="M28.99 11.75c.04.56.09 1.45-.08 2.26-1 4.76-8.77 17.21-16.67 23.61"/><path id="kvg:09ba8-s2" kvg:type="㇇" d="M27.89 20.88c1.93.0 13.82-2.44 15.85-2.73 1.74-.25 2.13 2.17 1.41 3.4-3.05 5.19-7.48 10.16-12.45 18.4"/></g><g id="kvg:09ba8-g3" kvg:position="bottom"><g id="kvg:09ba8-g4" kvg:element="田"><path id="kvg:09ba8-s3" kvg:type="㇑" d="M16.2 41.65c.23.48.74 1.31.87 1.91 1.05 4.92 2.17 18.27 2.83 27.37"/><path id="kvg:09ba8-s4" kvg:type="㇕a" d="M17.79 43.39c8.11-.79 22.53-2.62 28.59-3.32 2.22-.26 3.36 1.14 3.25 2.47-.42 4.88-1.32 17.17-3.1 26.26"/><path id="kvg:09ba8-s5" kvg:type="㇑a" d="M31.4 42.79c.92.66 1.62 2.68 1.65 4.25.13 6.94.04 16.75.04 20.18"/><path id="kvg:09ba8-s6" kvg:type="㇐a" d="M19.82 55.54c2.64-.33 25.86-2.59 28.05-2.67"/><path id="kvg:09ba8-s7" kvg:type="㇐a" d="M20.31 68.6c5.84-.21 18.53-1.73 26.6-2.15"/></g><g id="kvg:09ba8-g5" kvg:element="灬" kvg:variant="true" kvg:original="火"><path id="kvg:09ba8-s8" kvg:type="㇔" d="M17.36 81.82c0 5.32-2.9 13.16-3.66 14.68"/><path id="kvg:09ba8-s9" kvg:type="㇔" d="M24.28 77.58c1.63 2.98 3.18 11.16 3.58 15.79"/><path id="kvg:09ba8-s10" kvg:type="㇔" d="M32.96 76.94c2.34 2.42 6.05 9.95 6.64 13.71"/><path id="kvg:09ba8-s11" kvg:type="㇔" d="M42.55 74.62c3.33 2.65 8.61 10.91 9.45 15.03"/></g></g></g><g id="kvg:09ba8-g6" kvg:element="旨" kvg:position="right"><g id="kvg:09ba8-g7" kvg:element="匕" kvg:position="top"><path id="kvg:09ba8-s12" kvg:type="㇒" d="M87.57 18.06c.12 1.13.02 1.83-.5 2.3-5.42 4.92-14.93 9.6-26.27 12.43"/><path id="kvg:09ba8-s13" kvg:type="㇟" d="M58.23 12.75c.74.55 1.04 2.42 1.04 3.27.0 3.98-.57 11.5-.57 19.45.0 12.45.55 13.09 18.45 13.09 17.28.0 17.6-3.06 17.6-11.11"/></g><g id="kvg:09ba8-g8" kvg:element="日" kvg:position="bottom"><path id="kvg:09ba8-s14" kvg:type="㇑" d="M61.65 57.55c.49.98 1.28 2.35 1.28 3.52s1.33 34.82 1.33 35.41"/><path id="kvg:09ba8-s15" kvg:type="㇕a" d="M63.26 59.69c2.09-.14 23.25-2.47 25.15-2.64 1.59-.14 2.61 1.58 2.49 2.43-.25 1.72-.67 35.14-.67 36"/><path id="kvg:09ba8-s16" kvg:type="㇐a" d="M63.63 75.67c2.83.0 22.71-1.42 26.92-1.57"/><path id="kvg:09ba8-s17" kvg:type="㇐a" d="M64.41 93.44c6.39-.16 17.67-.83 25.63-.97"/></g></g></g></g></svg>