<svg xmlns="http://www.w3.org/2000/svg" width="109" height="109" viewBox="0 0 109 109"><g id="kvg:StrokePaths_09bc9" style="fill:none;stroke:#000000;stroke-width:3;stroke-linecap:round;stroke-linejoin:round;"><g id="kvg:09bc9" kvg:element="鯉"><g id="kvg:09bc9-g1" kvg:element="魚" kvg:position="left" kvg:radical="general"><g id="kvg:09bc9-g2" kvg:element="𠂊" kvg:variant="true" kvg:original="勹" kvg:position="top"><path id="kvg:09bc9-s1" kvg:type="㇒" d="M26.24 13.25c.09 1.04.07 2.02-.4 2.95-2.35 4.68-6.75 11-14.61 17.92"/><path id="kvg:09bc9-s2" kvg:type="㇇" d="M24.64 20.63c3.61-.5 13.34-2.1 15.35-2.48 2.14-.4 3.14 1.1 1.66 2.9-3.83 4.65-8.39 9.57-12.2 15.4"/></g><g id="kvg:09bc9-g3" kvg:position="bottom"><g id="kvg:09bc9-g4" kvg:element="田"><path id="kvg:09bc9-s3" kvg:type="㇑" d="M14.47 38.37c.83.83 1.07 1.98 1.15 2.58.62 4.96 1.32 10.98 2.08 17.43.17 1.42.33 2.85.51 4.3"/><path id="kvg:09bc9-s4" kvg:type="㇕a" d="M16.48 40.14c8.2-1.92 18.56-3.33 24.66-4.27C44.58 35.34 46.41 36.54 45.93 40.38 45.45 44.25 44.09 50.41 42.8 55.67 42.43 57.18 42.07 58.61 41.73 59.9"/><path id="kvg:09bc9-s5" kvg:type="㇑a" d="M29.59 39.26c.75.47 1.31 2.01 1.34 3.23.1 5.39.02 13.02.02 15.69"/><path id="kvg:09bc9-s6" kvg:type="㇐a" d="M17.89 50.03c6.61-1.16 18.86-2.78 26.33-3.52"/><path id="kvg:09bc9-s7" kvg:type="㇐a" d="M19.34 60.82c7.66-1.07 13.03-1.82 22-2.45"/></g><g id="kvg:09bc9-g5" kvg:element="灬" kvg:variant="true" kvg:original="火"><path id="kvg:09bc9-s8" kvg:type="㇔" d="M13.11 75.07c0 5.32-.61 12.06-1.67 14.68"/><path id="kvg:09bc9-s9" kvg:type="㇔" d="M21.12 73.75c1.68 1.91 3.27 7.15 3.69 10.12"/><path id="kvg:09bc9-s10" kvg:type="㇔" d="M30.02 72.19c1.69 1.4 4.35 5.78 4.78 7.96"/><path id="kvg:09bc9-s11" kvg:type="㇔" d="M39.5 69c1.85 1.53 4.79 6.28 5.25 8.65"/></g></g></g><g id="kvg:09bc9-g6" kvg:element="里" kvg:position="right"><g id="kvg:09bc9-g7" kvg:element="日"><path id="kvg:09bc9-s12" kvg:type="㇑" d="M52.16 24.91c1.03 1.03.97 1.84 1.22 3.21.85 4.6 1.94 12.81 2.67 20.25.19 1.9.35 3.76.49 5.53"/><path id="kvg:09bc9-s13" kvg:type="㇕a" d="M54.36 27.1c9.32-2.04 20.96-3.48 29.51-4.14 3.6-.28 6.07.01 5.6 4.18-.53 4.75-1.73 12.82-2.71 19.85-.22 1.57-.42 3.09-.61 4.5"/><path id="kvg:09bc9-s14" kvg:type="㇐a" d="M56.29 39.05c6.96-.93 25.21-2.93 30.46-3.18"/><path id="kvg:09bc9-s15" kvg:type="㇐a" d="M57.63 51.39c7.37-.76 18.12-1.89 27.65-2.36"/></g><path id="kvg:09bc9-s16" kvg:type="㇑a" d="M69.17 26.2c.82.82 1.02 2.05 1.02 3.53.0 18.52-.06 50.65-.06 54.52"/><path id="kvg:09bc9-s17" kvg:type="㇐" d="M52.33 68.19c2.05.43 4.11.25 5.81.07 6.99-.72 18.18-2.25 25.86-2.73 1.81-.11 3.97-.31 5.74.21"/><path id="kvg:09bc9-s18" kvg:type="㇐" d="M43.18 86.79c3.07.58 5.75.63 8.3.4 10.9-.96 26.98-2.67 39.02-2.99 2.44-.07 4.93-.2 7.32.42"/></g></g></g></svg>