<svg xmlns="http://www.w3.org/2000/svg" width="109" height="109" viewBox="0 0 109 109"><g id="kvg:StrokePaths_09bf5"><g id="kvg:09bf5" kvg:element="鯵"><g id="kvg:09bf5-g1" kvg:element="魚" kvg:position="left" kvg:radical="general"><g id="kvg:09bf5-g2" kvg:element="𠂊" kvg:variant="true" kvg:original="勹" kvg:position="top"><path id="kvg:09bf5-s1" kvg:type="㇒" d="M24.24 13.25c.08 1.08.12 2.26-.35 3.26-3.15 6.74-7.29 13.73-14.66 20.61"/><path id="kvg:09bf5-s2" kvg:type="㇇" d="M20.89 25.38c1.69.0 10.82-1.88 14.25-2.54 2.45-.46 3.42.66 1.77 2.76-3.66 4.65-7.16 9.78-9.72 13.85"/></g><g id="kvg:09bf5-g3" kvg:position="bottom"><g id="kvg:09bf5-g4" kvg:element="田"><path id="kvg:09bf5-s3" kvg:type="㇑" d="M10.97 41.09c.53.78.96 1.71 1.07 2.75.81 4.94 1.88 14.92 2.53 23.07.13 1.59.24 3.11.33 4.51"/><path id="kvg:09bf5-s4" kvg:type="㇕a" d="M12.97 42.57c7.49-1.26 16.65-2.2 26.41-3.5 2.07-.28 3.11 1.73 3 3.1-.33 4.27-1.99 16.09-3.38 23.6-.25 1.35-.49 2.55-.71 3.56"/><path id="kvg:09bf5-s5" kvg:type="㇑a" d="M26 42.4c.61.61.77 1.73.77 2.76.0 7.11.02 18.19.02 21.71"/><path id="kvg:09bf5-s6" kvg:type="㇐a" d="M14.84 55.42c6.53-1.04 15.78-1.67 24.65-2.29"/><path id="kvg:09bf5-s7" kvg:type="㇐a" d="M16.04 69.03c5.39-.54 12.21-1.65 21.35-1.89"/></g><g id="kvg:09bf5-g5" kvg:element="灬" kvg:variant="true" kvg:original="火"><path id="kvg:09bf5-s8" kvg:type="㇔" d="M12.51 81.57c0 5.13-3.94 12.72-4.97 14.18"/><path id="kvg:09bf5-s9" kvg:type="㇔" d="M18.95 80.08c1.64 2.55 3.21 9.57 3.62 13.54"/><path id="kvg:09bf5-s10" kvg:type="㇔" d="M28 77.69c2.18 2.42 5.64 9.95 6.19 13.71"/><path id="kvg:09bf5-s11" kvg:type="㇔" d="M36.3 75.12c2.63 2.34 6.79 9.64 7.45 13.28"/></g></g></g><g id="kvg:09bf5-g6" kvg:element="参" kvg:position="right"><g id="kvg:09bf5-g7" kvg:element="厶" kvg:position="top"><path id="kvg:09bf5-s12" kvg:type="㇜" d="M68.12 10c0 1-.24 2-.85 2.92-3.67 5.59-6.52 9.2-12.27 15.33-1.48 1.58-1.15 3.13 1.29 2.55C63.88 29 74.42 26.39 83 24.22"/><path id="kvg:09bf5-s13" kvg:type="㇔" d="M78 17.5c3.33 2.07 8.6 8.52 9.43 11.74"/></g><g id="kvg:09bf5-g8" kvg:position="bottom"><g id="kvg:09bf5-g9" kvg:element="大"><path id="kvg:09bf5-s14" kvg:type="㇐" d="M49.3 41.88c2.08.34 3.85.33 5.94.07 11.52-1.38 22.54-3.36 33.63-4.07 1.86-.12 3.75-.13 5.57.14"/><path id="kvg:09bf5-s15" kvg:type="㇒" d="M69.46 30.98c.17 1.13-.05 2.45-.41 3.51C64 49.25 55.25 61.25 44.25 68.73"/><path id="kvg:09bf5-s16" kvg:type="㇏" d="M71.62 41.25c4.45 4.41 13.21 13.79 19.12 18.89 1.81 1.56 3.76 2.86 6.51 4.03"/></g><g id="kvg:09bf5-g10" kvg:element="彡"><path id="kvg:09bf5-s17" kvg:type="㇒" d="M71.73 55.89c0 .86-.45 1.86-.98 2.62-2.47 3.5-8.16 8.27-17.57 13.67"/><path id="kvg:09bf5-s18" kvg:type="㇒" d="M78.48 66.1c0 .9-.21 1.75-1.09 2.8C74.31 72.57 66.79 78.2 56 83.23"/><path id="kvg:09bf5-s19" kvg:type="㇒" d="M85.89 76.57c0 1.3-.75 2.47-1.58 3.35-4.46 4.7-15.48 12.8-33.15 18.57"/></g></g></g></g></g></svg>