<svg xmlns="http://www.w3.org/2000/svg" width="109" height="109" viewBox="0 0 109 109"><g id="kvg:StrokePaths_09c09"><g id="kvg:09c09" kvg:element="鰉"><g id="kvg:09c09-g1" kvg:element="魚" kvg:position="left" kvg:radical="general"><g id="kvg:09c09-g2" kvg:element="𠂊" kvg:variant="true" kvg:original="勹" kvg:position="top"><path id="kvg:09c09-s1" kvg:type="㇒" d="M26.49 12.75c.04.56.16 1.47-.09 2.26C25 19.5 18.5 29.5 10.74 36.62"/><path id="kvg:09c09-s2" kvg:type="㇇" d="M23.39 21.38c1.93.0 10.82-1.94 12.85-2.23 1.74-.25 2.63 1.17 1.91 2.4-3.05 5.19-5.64 8.95-8.95 16.4"/></g><g id="kvg:09c09-g3" kvg:position="bottom"><g id="kvg:09c09-g4" kvg:element="田"><path id="kvg:09c09-s3" kvg:type="㇑" d="M14.6 39.34c.21.54.2.91.31 1.57.87 5.51 2.11 19.41 2.51 29.61"/><path id="kvg:09c09-s4" kvg:type="㇕a" d="M15.58 41.29c7.66-.89 18.8-3.02 24.53-3.8 2.1-.29 3.14 1.27 3 2.76-.51 5.47-1.15 19.3-3.04 29.49"/><path id="kvg:09c09-s5" kvg:type="㇑a" d="M27.91 40.48c.85.74 1.46 2 1.45 3.75-.05 7.78-.37 19.27-.45 23.12"/><path id="kvg:09c09-s6" kvg:type="㇐a" d="M16.71 54.34c2.5-.38 23.43-2.43 25.49-2.52"/><path id="kvg:09c09-s7" kvg:type="㇐a" d="M17.87 68.92c5.51-.24 15.03-1.96 22.64-2.43"/></g><g id="kvg:09c09-g5" kvg:element="灬" kvg:variant="true" kvg:original="火"><path id="kvg:09c09-s8" kvg:type="㇔" d="M13.83 81.57c0 5.23-2.07 12.94-2.61 14.43"/><path id="kvg:09c09-s9" kvg:type="㇔" d="M22.2 79.33c1.13 2.27 2.21 8.51 2.49 12.04"/><path id="kvg:09c09-s10" kvg:type="㇔" d="M30.44 77.69c1.39 1.93 3.6 7.95 3.95 10.96"/><path id="kvg:09c09-s11" kvg:type="㇔" d="M39.05 75.87c2.1 1.9 5.42 7.82 5.95 10.78"/></g></g></g><g id="kvg:09c09-g6" kvg:element="皇" kvg:position="right"><g id="kvg:09c09-g7" kvg:element="白" kvg:position="top"><g id="kvg:09c09-g8" kvg:position="top"><path id="kvg:09c09-s12" kvg:type="㇔" d="M69 12.25c0 1.25.05 1.65-.17 2.04-2.08 3.71-4.43 8.17-8.45 11.6"/></g><g id="kvg:09c09-g9" kvg:element="日" kvg:position="bottom"><path id="kvg:09c09-s13" kvg:type="㇑" d="M52.05 26.01c.68.71 1.21 2.03 1.36 2.96.81 5.19 2.97 20.49 3.25 25.17"/><path id="kvg:09c09-s14" kvg:type="㇕a" d="M53.81 27.69c9.42-1.28 31.15-4.12 34.62-4.58 1.67-.22 2.75 1.89 2.39 3.85-.81 4.36-2.16 14.96-3.78 23.32"/><path id="kvg:09c09-s15" kvg:type="㇐a" d="M55.21 38.97c8.56-1.75 28.37-3.64 34.22-3.64"/><path id="kvg:09c09-s16" kvg:type="㇐a" d="M56.33 50.49c9.78-.81 22.41-2.69 30.48-2.93"/></g></g><g id="kvg:09c09-g10" kvg:element="王" kvg:original="玉" kvg:partial="true" kvg:position="bottom"><path id="kvg:09c09-s17" kvg:type="㇐" d="M51.75 61.63c.95.51 4.06.15 5.03.03 5.46-.66 21.79-2.69 32.6-3.22 1.47-.07 2.81.1 4.03.53"/><path id="kvg:09c09-s18" kvg:type="㇑a" d="M70.11 60.65c1.29 2.08 1.29 3.33 1.29 5 0 11.67-.07 11.45-.07 25.97"/><path id="kvg:09c09-s19" kvg:type="㇐" d="M53.75 77.58c.72.57 3.09.34 3.82.25 7.65-.99 18.87-1.94 27.85-2.95.9-.1 2.87-.23 4.21.26"/><path id="kvg:09c09-s20" kvg:type="㇐" d="M45.34 94.23c.7.31 4.35.62 5.54.52 14.23-1.28 22.74-2.19 40.5-3.19 2.98-.17 5.36.19 7.26 1"/></g></g></g></g></svg>