<svg xmlns="http://www.w3.org/2000/svg" width="109" height="109" viewBox="0 0 109 109"><g id="kvg:StrokePaths_09c12"><g id="kvg:09c12" kvg:element="鰒"><g id="kvg:09c12-g1" kvg:element="魚" kvg:position="left" kvg:radical="general"><g id="kvg:09c12-g2" kvg:element="𠂊" kvg:variant="true" kvg:original="勹" kvg:position="top"><path id="kvg:09c12-s1" kvg:type="㇒" d="M26.49 11.75c.04.56.09 1.45-.08 2.26-1 4.76-6.91 16.74-14.67 24.61"/><path id="kvg:09c12-s2" kvg:type="㇇" d="M23.89 20.88c1.93.0 15.82-2.44 17.85-2.73 1.74-.25 2.13 2.17 1.41 3.4-3.05 5.19-6.98 11.16-11.95 19.4"/></g><g id="kvg:09c12-g3" kvg:position="bottom"><g id="kvg:09c12-g4" kvg:element="田"><path id="kvg:09c12-s3" kvg:type="㇑" d="M13.72 43.39c.23.46.23.77.36 1.35 1.02 4.72 2.11 17.14 2.75 25.95"/><path id="kvg:09c12-s4" kvg:type="㇕a" d="M14.78 44.52c7.92-1.19 22.01-2.71 27.92-3.71 2.17-.37 3.29.93 3.17 2.23-.41 4.76-1.79 17.76-3.53 26.67"/><path id="kvg:09c12-s5" kvg:type="㇑a" d="M28.56 44.23c.9.59 1.58 2.51 1.61 4.04.12 6.73.03 16.27.03 19.6"/><path id="kvg:09c12-s6" kvg:type="㇐a" d="M16.76 56.23c2.58-.46 25.26-2.37 27.39-2.56"/><path id="kvg:09c12-s7" kvg:type="㇐a" d="M17.23 68.9c5.71-.51 17.61-1.12 25.49-1.95"/></g><g id="kvg:09c12-g5" kvg:element="灬" kvg:variant="true" kvg:original="火"><path id="kvg:09c12-s8" kvg:type="㇔" d="M15.29 80.82c0 5.32-3.19 13.16-4.02 14.68"/><path id="kvg:09c12-s9" kvg:type="㇔" d="M22.06 78.58c1.71 2.79 2.84 10.46 3.27 14.79"/><path id="kvg:09c12-s10" kvg:type="㇔" d="M31.07 77.19c1.83 2.29 4.73 9.41 5.19 12.96"/><path id="kvg:09c12-s11" kvg:type="㇔" d="M40.55 75.12c2.1 2.21 5.42 9.09 5.95 12.53"/></g></g></g><g id="kvg:09c12-g6" kvg:element="复" kvg:position="right"><g id="kvg:09c12-g7" kvg:element="𠂉"><path id="kvg:09c12-s12" kvg:type="㇒" d="M61.36 13c.03.51.11 1.46-.06 2.04-2.12 7.16-5.26 13.73-10.8 19.5"/><path id="kvg:09c12-s13" kvg:type="㇐" d="M60.75 23.47c.69.28 1.94.35 2.63.28 4.37-.48 20.12-3.25 26.97-4.33 1.13-.18 1.51-.06 2.42-.03"/></g><g id="kvg:09c12-g8" kvg:element="日"><path id="kvg:09c12-s14" kvg:type="㇑" d="M56.27 33.9c.38.58.65 1.38.77 2.14.46 2.71 3.35 19.44 3.48 20.21"/><path id="kvg:09c12-s15" kvg:type="㇕a" d="M57.18 34.63c4.02-.81 26.72-4.53 28.7-4.64 1.65-.1 2.72 2.16 2.59 2.73-.26 1.16-2.99 21.46-2.99 22.04"/><path id="kvg:09c12-s16" kvg:type="㇐a" d="M60.06 44.03c6.86-1.16 21-3.07 27-3.71"/><path id="kvg:09c12-s17" kvg:type="㇐a" d="M61.91 54.08c7.34-.83 16.18-2.52 23.67-2.88"/></g><g id="kvg:09c12-g9" kvg:element="夂"><path id="kvg:09c12-s18" kvg:type="㇒" d="M64.33 59.25c.04.48.08 1.24-.07 1.93-.9 4.07-6.06 13.02-13.12 18.49"/><path id="kvg:09c12-s19" kvg:type="㇇" d="M66.22 63.98c.25.03 1.84.0 2.57-.08 2.39-.26 11.82-1.23 15.23-2.03 2.34-.55 3.14.69 2.41 2.13C81.25 74.25 63.75 93 45 98.5"/><path id="kvg:09c12-s20" kvg:type="㇏" d="M62.4 69.06c4.04 4.78 22.38 22.95 27.83 27.32 1.63 1.3 2.94 1.94 4.52 2.32"/></g></g></g></g></svg>