<svg xmlns="http://www.w3.org/2000/svg" width="109" height="109" viewBox="0 0 109 109"><g id="kvg:StrokePaths_09c32"><g id="kvg:09c32" kvg:element="鰲"><g id="kvg:09c32-g1" kvg:element="敖" kvg:position="top"><g id="kvg:09c32-g2" kvg:position="left"><g id="kvg:09c32-g3" kvg:element="土" kvg:position="top"><path id="kvg:09c32-s1" kvg:type="㇐" d="M17.87 17.25c.8.29 2.27.34 3.08.29 6.15-.33 15.37-1.2 22.83-2.05 1.33-.15 2.14.14 2.81.29"/><path id="kvg:09c32-s2" kvg:type="㇑a" d="M30.82 9.5c.11.21 1.61 1.08 1.61 2.4.0 5.1.36 8.85.36 12.4"/><path id="kvg:09c32-s3" kvg:type="㇐" d="M13.78 25.12c1.24.47 3.52.51 4.76.47 3.91-.15 23.06-2.36 28.55-2.55 2.07-.07 3.31.22 4.35.46"/></g><g id="kvg:09c32-g4" kvg:element="放" kvg:part="1" kvg:position="bottom"><g id="kvg:09c32-g5" kvg:element="方" kvg:position="left"><g id="kvg:09c32-g6" kvg:element="亠" kvg:position="top"><path id="kvg:09c32-s4" kvg:type="㇑a" d="M30.9 26.07c.63.34 1.66 1.64 1.66 2.31.0 3.12-.08 3.37-.08 4.43"/><path id="kvg:09c32-s5" kvg:type="㇐" d="M13.9 33.74c.83.24 2.59.36 3.37.33 7.24-.31 21.95-1.78 29.22-2.55 1.3-.14 1.97.03 2.94.42"/></g><g id="kvg:09c32-g7" kvg:position="bottom"><path id="kvg:09c32-s6" kvg:type="㇆a" d="M31.31 38.5c1.69.75 3.69 1 6.57 1.66.61.14 1.22.56 1.12 1.43-.27 2.3-6.72 11.7-9.06 13.57-2.53 2.02-4.43-.4-4.98-1.85"/><path id="kvg:09c32-s7" kvg:type="㇒" d="M30.06 34.61c.25.54.2 1.15-.1 1.76-2.02 4.19-7.85 12.66-16.92 16.62"/></g></g></g></g><g id="kvg:09c32-g8" kvg:element="放" kvg:part="2" kvg:position="right"><g id="kvg:09c32-g9" kvg:element="攵" kvg:variant="true" kvg:original="攴" kvg:position="right"><g id="kvg:09c32-g10" kvg:element="𠂉" kvg:position="top"><path id="kvg:09c32-s8" kvg:type="㇒" d="M64.08 9.81c.03.54.11 1.4-.06 2.15C62.75 17.75 59 27 53.29 33.89"/><path id="kvg:09c32-s9" kvg:type="㇐" d="M63.17 19.95c.03-.11 1.8.32 2.44.29 6.62-.33 14.46-2.1 24.58-2.62 1.14-.06 1.83-.01 2.13.05"/></g><g id="kvg:09c32-g11" kvg:element="乂" kvg:position="bottom"><g id="kvg:09c32-g12" kvg:element="丿"><path id="kvg:09c32-s10" kvg:type="㇒" d="M78.61 22.12c.14 1.13.23 2.11-.33 3.12C74.25 32.5 67.25 41.5 57.11 46.5"/></g><path id="kvg:09c32-s11" kvg:type="㇏" d="M59.32 25.25C66 31 77.51 41.08 87.86 48.46c1.63 1.16 3.93 2.05 5.39 2.15"/></g></g></g></g><g id="kvg:09c32-g13" kvg:element="魚" kvg:position="bottom" kvg:radical="general"><g id="kvg:09c32-g14" kvg:element="𠂊" kvg:variant="true" kvg:original="勹" kvg:position="top"><path id="kvg:09c32-s12" kvg:type="㇒" d="M46.92 44.75c.06.47.13 1.22-.13 1.91-1.54 4.02-10.39 12.83-22.51 18.23"/><path id="kvg:09c32-s13" kvg:type="㇇" d="M44.83 51.06c2.57.0 19-1.19 21.7-1.36 2.31-.15 2.51 1.64 1.54 2.39C64 55.27 62.25 56.75 59 61"/></g><g id="kvg:09c32-g15" kvg:position="bottom"><g id="kvg:09c32-g16" kvg:element="田"><path id="kvg:09c32-s14" kvg:type="㇑" d="M30.86 62.83c.36.34.41.57.57 1.02 1.32 3.9 2.32 14.15 3.17 20.78"/><path id="kvg:09c32-s15" kvg:type="㇕a" d="M32.54 63.31c12.6-.9 36.69-2.62 46.11-3.18 2.09-.13 3.84 1.62 3.55 3.69-.51 3.63-2.76 12.43-4.34 18.45"/><path id="kvg:09c32-s16" kvg:type="㇑a" d="M55.25 62.33c.45 4.65.23 14.81.23 17.91"/><path id="kvg:09c32-s17" kvg:type="㇐a" d="M34.9 72.56c4.11-.35 42.17-2.43 45.56-2.58"/><path id="kvg:09c32-s18" kvg:type="㇐a" d="M35.24 82.16c9.07-.38 30.1-.99 42.63-1.61"/></g><g id="kvg:09c32-g17" kvg:element="灬" kvg:variant="true" kvg:original="火"><path id="kvg:09c32-s19" kvg:type="㇔" d="M26.78 88.02c0 4.34-6.38 10.74-8.05 11.98"/><path id="kvg:09c32-s20" kvg:type="㇔" d="M42.72 87.55c2.96 2.32 5.77 8.7 6.51 12.31"/><path id="kvg:09c32-s21" kvg:type="㇔" d="M64.15 87.01c2.58 2.24 6.67 9.21 7.32 12.7"/><path id="kvg:09c32-s22" kvg:type="㇔" d="M82.92 86.99c3.85 2.16 9.94 8.87 10.9 12.22"/></g></g></g></g></g></svg>