<svg xmlns="http://www.w3.org/2000/svg" width="109" height="109" viewBox="0 0 109 109"><g id="kvg:StrokePaths_09ceb"><g id="kvg:09ceb" kvg:element="鳫"><g id="kvg:09ceb-g1" kvg:element="厂" kvg:position="tare"><path id="kvg:09ceb-s1" kvg:type="㇐" d="M20.13 16.73c1.52.54 4.3.65 5.82.54 17.8-1.27 36.8-4.02 56.61-4.23 2.53-.03 4.05.26 5.31.53"/><path id="kvg:09ceb-s2" kvg:type="㇒" d="M25 17.5c.04 1.7.08 4.38-.07 6.81C24.03 38.67 23.75 72 12.31 88.97"/></g><g id="kvg:09ceb-g2" kvg:element="鳥" kvg:position="tarec" kvg:radical="general"><path id="kvg:09ceb-s3" kvg:type="㇒" d="M56.1 20.41c.01.29.03.75-.02 1.16-.3 2.42-2.02 7.61-4.36 10.62"/><path id="kvg:09ceb-s4" kvg:type="㇑" d="M42.7 32.07c.41.35.74 1.31.74 1.88.0 5.79.04 28.51-.21 37.61"/><path id="kvg:09ceb-s5" kvg:type="㇕a" d="M43.96 34.13c1.92.0 26.5-3.51 28.37-3.45 1.92.07 3.42 1.07 3.38 3.71-.02.93-1.2 7.6-2.32 17.08"/><path id="kvg:09ceb-s6" kvg:type="㇐a" d="M44.26 43.5c2.35.11 27.75-3.19 30.41-3.07"/><path id="kvg:09ceb-s7" kvg:type="㇐a" d="M43.65 51.73c4.8-.11 23.73-2.49 29.71-2.5"/><path id="kvg:09ceb-s8" kvg:type="㇐b" d="M43.42 61.03c10.13-.67 36.05-3.79 40.4-4.21 1.52-.15 4.09-.28 4.86-.08"/><path id="kvg:09ceb-s9" kvg:type="㇆a" d="M43.25 71.81c12.48-1.44 36.33-4.51 43.25-4.94 4.5-.28 5.81.79 5 4.03-2.25 9.02-3.6 17.58-7.5 23.13-3.92 5.57-5.5.71-6.51-1.71"/><g id="kvg:09ceb-g3" kvg:element="灬" kvg:variant="true" kvg:original="火"><path id="kvg:09ceb-s10" kvg:type="㇔" d="M34.61 81.23c.14 4.02-3.36 10.52-6.31 12.35"/><path id="kvg:09ceb-s11" kvg:type="㇔" d="M46.09 79.58c1.82 2.21 3.55 8.01 4 11.25"/><path id="kvg:09ceb-s12" kvg:type="㇔" d="M58.08 77.22c2.01 2 5.19 8.02 5.7 10.96"/><path id="kvg:09ceb-s13" kvg:type="㇔" d="M69.55 75.62c2.65 1.63 6.85 6.53 7.51 8.91"/></g></g></g></g></svg>