<svg xmlns="http://www.w3.org/2000/svg" width="109" height="109" viewBox="0 0 109 109"><g id="kvg:StrokePaths_09d06"><g id="kvg:09d06" kvg:element="鴆"><g id="kvg:09d06-g1" kvg:element="冘" kvg:position="left"><g id="kvg:09d06-g2" kvg:element="冖"><path id="kvg:09d06-s1" kvg:type="㇔" d="M15.78 29.38c0 3.76-2.5 14.11-3.64 16.62"/><path id="kvg:09d06-s2" kvg:type="㇖b" d="M15.49 33.22c10.76-1.97 22.67-3.26 29.61-3.97 9.31-.95 2.95 5.75-.35 8.36"/></g><g id="kvg:09d06-g3" kvg:element="儿" kvg:original="八"><g id="kvg:09d06-g4" kvg:element="丿" kvg:position="left"><path id="kvg:09d06-s3" kvg:type="㇒" d="M30.45 13.5c.66 1.74.83 2.29.84 5 .13 22.67-.17 59.8-20.38 75.67"/></g><g id="kvg:09d06-g5" kvg:position="right"><path id="kvg:09d06-s4" kvg:type="㇟" d="M32.99 48.37c.74 1.19 1.33 2.59 1.38 4.43.2 8.19-.11 19.7-.11 28.95.0 2 1.29 3.35 3.5 1.25C42.5 78.5 45 76 50.5 70.25"/></g></g></g><g id="kvg:09d06-g6" kvg:element="鳥" kvg:position="right" kvg:radical="general"><path id="kvg:09d06-s5" kvg:type="㇒" d="M70.63 10.66c.02.3.03.79-.03 1.21-.34 2.52-2.3 7.93-4.99 11.08"/><path id="kvg:09d06-s6" kvg:type="㇑" d="M58.71 23.92c.35.43.63 2.02.63 2.73.0 7.23-.46 32.51-.68 43.88"/><path id="kvg:09d06-s7" kvg:type="㇕a" d="M59.27 26.17c1.63.0 23.07-2.83 24.66-2.74 2.35.14 3.5 1.92 3.29 3.59-.13 1.03-1.97 13.47-3.74 20.14"/><path id="kvg:09d06-s8" kvg:type="㇐a" d="M59.53 36.58c2 .13 23.71-2.74 25.97-2.59"/><path id="kvg:09d06-s9" kvg:type="㇐a" d="M59.44 47.62c4.07-.14 19.45-2.48 24.52-2.5"/><path id="kvg:09d06-s10" kvg:type="㇐b" d="M59.17 59.31c9.21-1.05 29.58-3.57 33.53-4.23 1.38-.23 3.72-.44 4.41-.13"/><path id="kvg:09d06-s11" kvg:type="㇆a" d="M58.67 70.75c9.83-1 28.46-2.92 33.76-3.4 3.45-.31 5.22.89 4.6 4.57-1.73 10.24-3.29 16.46-6.28 22.75-3.01 6.33-6.27 1.04-7.67-.24"/><g id="kvg:09d06-g7" kvg:element="灬" kvg:variant="true" kvg:original="火"><path id="kvg:09d06-s12" kvg:type="㇔" d="M53.34 82.23c.42 3.71-.84 10.27-3.03 12.94"/><path id="kvg:09d06-s13" kvg:type="㇔" d="M60.06 80.49c2.05 2.13 3.99 7.74 4.5 10.87"/><path id="kvg:09d06-s14" kvg:type="㇔" d="M69.89 79.04c1.67 1.83 4.32 7.32 4.74 10.01"/><path id="kvg:09d06-s15" kvg:type="㇔" d="M80.03 76.73c1.98 1.58 5.11 6.33 5.6 8.64"/></g></g></g></g></svg>