<svg xmlns="http://www.w3.org/2000/svg" width="109" height="109" viewBox="0 0 109 109"><g id="kvg:StrokePaths_09d1f"><g id="kvg:09d1f" kvg:element="鴟"><g id="kvg:09d1f-g1" kvg:position="left"><g id="kvg:09d1f-g2" kvg:element="氏" kvg:position="top"><path id="kvg:09d1f-s1" kvg:type="㇒" d="M39.84 11.11c.06.36.13.93-.13 1.45-1.56 3.06-8.87 9.09-21.02 14.23"/><path id="kvg:09d1f-s2" kvg:type="㇙" d="M14 25.95c1 .8 1.57 3.07 1.57 5.04.0 1.97-.17 38.44-.17 41.51.0 3.07-.19 3.5 2.4 1.75 4.45-3 14.06-11.17 15.43-12.48"/><path id="kvg:09d1f-s3" kvg:type="㇐" d="M15.87 43.59c.53.15 1.51-.11 2.03-.21 7.81-1.46 20.8-3.06 27.5-4.11.87-.14 1.41.07 1.85.15"/><path id="kvg:09d1f-s4" kvg:type="㇂" d="M30.5 23.82c.28.43.87 2.61.87 3.45.13 20.48 2.88 44.98 12.72 57.83 3.17 4.14 2.45-4.08 2.45-6.72"/></g><g id="kvg:09d1f-g3" kvg:element="一" kvg:position="bottom"><path id="kvg:09d1f-s5" kvg:type="㇐" d="M11.59 86.54c.65.26 1.83.33 2.48.26 4.12-.45 15.81-2.02 20.26-1.92 1.08.02 1.72.12 2.26.26"/></g></g><g id="kvg:09d1f-g4" kvg:element="鳥" kvg:position="right" kvg:radical="general"><path id="kvg:09d1f-s6" kvg:type="㇒" d="M67.54 10.66c.02.28.04.72-.03 1.11-.41 2.32-2.74 7.29-5.93 10.18"/><path id="kvg:09d1f-s7" kvg:type="㇑" d="M56.3 22.92c.33.43.6 1.52.6 2.23.0 7.23.04 32.01-.17 43.38"/><path id="kvg:09d1f-s8" kvg:type="㇕a" d="M57.31 24.75c1.55.0 21.5-3.17 23.01-3.06 2.24.16 3.33 2.15 3.13 4.02-.12 1.15-1.64 11.69-3.08 20.46"/><path id="kvg:09d1f-s9" kvg:type="㇐a" d="M57.56 35.08c1.9.13 22.1-2.74 24.25-2.59"/><path id="kvg:09d1f-s10" kvg:type="㇐a" d="M57.47 46.12c3.88-.14 18.05-2.48 22.88-2.5"/><path id="kvg:09d1f-s11" kvg:type="㇐b" d="M57.69 57.36c8.67-.95 28.35-3.76 32.07-4.35 1.3-.21 3.5-.39 4.16-.12"/><path id="kvg:09d1f-s12" kvg:type="㇆a" d="M56.74 68.75c9.1-1.63 28.63-3.92 33.67-4.4 3.28-.31 4.97.89 4.38 4.57-1.64 10.24-4.08 18.46-6.93 24.75-2.86 6.33-5.97 1.04-7.3-.24"/><g id="kvg:09d1f-g5" kvg:element="灬" kvg:variant="true" kvg:original="火"><path id="kvg:09d1f-s13" kvg:type="㇔" d="M55.43 81.98c.5 3.62-.36 7.97-1.82 10.19"/><path id="kvg:09d1f-s14" kvg:type="㇔" d="M63.32 78.99c1.84 1.84 3.58 6.67 4.04 9.37"/><path id="kvg:09d1f-s15" kvg:type="㇔" d="M72.2 77.29c1.34 1.42 3.46 5.68 3.8 7.76"/><path id="kvg:09d1f-s16" kvg:type="㇔" d="M79.66 74.48c1.71 1.35 4.43 5.41 4.86 7.39"/></g></g></g></g></svg>