<svg xmlns="http://www.w3.org/2000/svg" width="109" height="109" viewBox="0 0 109 109"><g id="kvg:StrokePaths_09d2b" style="fill:none;stroke:#000000;stroke-width:3;stroke-linecap:round;stroke-linejoin:round;"><g id="kvg:09d2b" kvg:element="鴫"><g id="kvg:09d2b-g1" kvg:element="田" kvg:position="left" kvg:radical="nelson"><path id="kvg:09d2b-s1" kvg:type="㇑" d="M14.74 27.29c.86.86 1.25 2 1.33 2.94.63 8.09 1.62 21.99 2.36 35.02.2 3.51.38 6.96.54 10.21"/><path id="kvg:09d2b-s2" kvg:type="㇕a" d="M17.22 28.97c6.72-.55 19.18-2.08 25.29-2.8 2.64-.31 4.4.87 4.25 3.89-.29 5.8-1.19 20.78-2.02 33.32-.24 3.62-.48 7.03-.69 9.96"/><path id="kvg:09d2b-s3" kvg:type="㇑a" d="M29.8 29.24c.8.8 1.04 1.51 1.04 2.75.0 10.35-.09 31.77-.09 37.89"/><path id="kvg:09d2b-s4" kvg:type="㇐a" d="M18.32 49.3c6.8-.8 18.55-2.05 26.35-2.23"/><path id="kvg:09d2b-s5" kvg:type="㇐a" d="M19.84 72c8.53-.75 16.23-1.73 23.45-1.76"/></g><g id="kvg:09d2b-g2" kvg:element="鳥" kvg:position="right" kvg:radical="tradit"><path id="kvg:09d2b-s6" kvg:type="㇒" d="M70.09 9.41c.07.69-.17 1.39-.48 2-1.74 3.34-3.49 5.84-6.74 9.59"/><path id="kvg:09d2b-s7" kvg:type="㇑" d="M56.23 22.94c.85.85.9 1.81.9 3.08.0 5.12.04 20.3.06 31.85.0 3.4.01 6.24.01 8.66"/><path id="kvg:09d2b-s8" kvg:type="㇕a" d="M57.83 24.16c8.18-1.24 18.6-2.74 23.17-3.18 3.42-.33 5.25 1.47 4.75 4.9-.36 2.47-1.14 8.28-2.09 14.11-.27 1.67-.56 3.34-.85 4.93"/><path id="kvg:09d2b-s9" kvg:type="㇐a" d="M58.1 34.47c10.28-1.09 16.15-1.72 25.52-2.13"/><path id="kvg:09d2b-s10" kvg:type="㇐a" d="M58.25 45.29c7.5-.54 16.25-1.54 23.53-1.79"/><path id="kvg:09d2b-s11" kvg:type="㇐b" d="M58.24 55.27c7.19-.62 21.58-1.72 29.76-2.3 2.94-.26 5.88-.4 8.83-.4"/><path id="kvg:09d2b-s12" kvg:type="㇆a" d="M58.21 66.25c12.13-1.28 25.76-2.49 32.04-2.97 4.75-.36 6.68.89 5.71 5.74-1.65 8.3-4.31 17.62-8.42 24.14-3.04 4.82-5.54 5.47-8.94 1.31"/><g id="kvg:09d2b-g3" kvg:element="灬" kvg:variant="true" kvg:original="火"><path id="kvg:09d2b-s13" kvg:type="㇔" d="M51.08 77.44C51 82.25 49.75 86 47.49 89.76"/><path id="kvg:09d2b-s14" kvg:type="㇔" d="M59.38 76.59c1.65 1.98 2.47 6.93 2.88 9.84"/><path id="kvg:09d2b-s15" kvg:type="㇔" d="M68.77 74.78c1.81 1.57 4.66 6.55 5.12 8.86"/><path id="kvg:09d2b-s16" kvg:type="㇔" d="M78.44 72.66c1.68 1.69 4.35 6.79 4.77 9.27"/></g></g></g></g></svg>