<!DOCTYPE svg PUBLIC "-//W3C//DTD SVG 1.0//EN" "http://www.w3.org/TR/2001/REC-SVG-20010904/DTD/svg10.dtd" [
<!ATTLIST g
xmlns:kvg CDATA #FIXED "http://kanjivg.tagaini.net"
kvg:element CDATA #IMPLIED
kvg:variant CDATA #IMPLIED
kvg:partial CDATA #IMPLIED
kvg:original CDATA #IMPLIED
kvg:part CDATA #IMPLIED
kvg:number CDATA #IMPLIED
kvg:tradForm CDATA #IMPLIED
kvg:radicalForm CDATA #IMPLIED
kvg:position CDATA #IMPLIED
kvg:radical CDATA #IMPLIED
kvg:phon CDATA #IMPLIED >
<!ATTLIST path
xmlns:kvg CDATA #FIXED "http://kanjivg.tagaini.net"
kvg:type CDATA #IMPLIED >
]><svg xmlns="http://www.w3.org/2000/svg" width="109" height="109" viewBox="0 0 109 109"><g id="kvg:StrokePaths_09d23" style="fill:none;stroke:#000000;stroke-width:3;stroke-linecap:round;stroke-linejoin:round;"><g id="kvg:09d23" kvg:element="鴣"><g id="kvg:09d23-g1" kvg:element="古" kvg:position="left"><g id="kvg:09d23-g2" kvg:element="十" kvg:position="top"><path id="kvg:09d23-s1" kvg:type="㇐" d="M11.55 41.28c.51.18 1.86.65 3.21.54 7.74-.58 27-3.36 34.95-3.36 1.36.0 1.69-.18 2.54.0"/><path id="kvg:09d23-s2" kvg:type="㇑a" d="M29.65 13c1.43.66 2.58 2.93 2.58 4.28.0 22.97-.29 36.47-.29 46.33"/></g><g id="kvg:09d23-g3" kvg:element="口" kvg:position="bottom"><path id="kvg:09d23-s3" kvg:type="㇑" d="M18.04 64.89c.22.8.48 1.36.55 1.97.54 4.46 2.76 17.94 3.52 26.39"/><path id="kvg:09d23-s4" kvg:type="㇕b" d="M19.15 66.19c6.12-.89 20.14-2.67 24.31-2.81 1.73-.06 2.66 1.26 2.5 2.62-.57 5.13-2.18 13.87-3.11 20.68"/><path id="kvg:09d23-s5" kvg:type="㇐b" d="M22.44 89.97c5.06-.38 16.19-1.65 22.27-2.13"/></g></g><g id="kvg:09d23-g4" kvg:element="鳥" kvg:position="right" kvg:radical="general"><path id="kvg:09d23-s6" kvg:type="㇒" d="M71.17 10.66c.02.3.04.79-.03 1.21-.41 2.52-2.78 7.93-6.02 11.08"/><path id="kvg:09d23-s7" kvg:type="㇑" d="M57.71 24.42c.34.43.61 1.02.61 1.73.0 7.23.04 32.01-.17 43.38"/><path id="kvg:09d23-s8" kvg:type="㇕a" d="M58.74 25.75c1.58.0 20.34-3.17 21.88-3.06 2.27.16 3.39 2.15 3.18 4.02-.12 1.15-1.05 10.3-2.13 18.96"/><path id="kvg:09d23-s9" kvg:type="㇐a" d="M58.99 36.58c1.93.13 21.96-2.74 24.14-2.59"/><path id="kvg:09d23-s10" kvg:type="㇐a" d="M58.9 46.62c3.94-.14 17.84-2.48 22.75-2.5"/><path id="kvg:09d23-s11" kvg:type="㇐b" d="M58.62 58.36c8.32-.84 29.22-3.36 32.79-3.88 1.24-.19 3.36-.35 3.99-.11"/><path id="kvg:09d23-s12" kvg:type="㇆a" d="M58.16 69.75c9.25-1.63 26.55-3.42 31.68-3.9 3.34-.31 5.05.89 4.45 4.57-1.67 10.24-4.15 19.96-7.04 26.25-2.91 6.33-6.07 1.04-7.42-.24"/><g id="kvg:09d23-g5" kvg:element="灬" kvg:variant="true" kvg:original="火"><path id="kvg:09d23-s13" kvg:type="㇔" d="M54.08 80.23c.44 4.07-.32 8.95-1.62 11.44"/><path id="kvg:09d23-s14" kvg:type="㇔" d="M61.46 76.99c2.16 2.33 4.21 8.45 4.75 11.87"/><path id="kvg:09d23-s15" kvg:type="㇔" d="M70.53 74.54c1.66 1.83 4.27 7.32 4.69 10.01"/><path id="kvg:09d23-s16" kvg:type="㇔" d="M78.36 72.73c2.05 1.58 5.29 6.33 5.8 8.64"/></g></g></g></g><g id="kvg:StrokeNumbers_09d23" style="font-size:8;fill:#808080"><text transform="matrix(1 0 0 1 5.50 41.50)">1</text><text transform="matrix(1 0 0 1 20.50 12.50)">2</text><text transform="matrix(1 0 0 1 11.50 71.50)">3</text><text transform="matrix(1 0 0 1 21.50 62.50)">4</text><text transform="matrix(1 0 0 1 26.50 85.50)">5</text><text transform="matrix(1 0 0 1 61.50 10.50)">6</text><text transform="matrix(1 0 0 1 50.50 31.50)">7</text><text transform="matrix(1 0 0 1 58.50 22.50)">8</text><text transform="matrix(1 0 0 1 62.50 33.50)">9</text><text transform="matrix(1 0 0 1 61.50 43.50)">10</text><text transform="matrix(1 0 0 1 61.50 55.50)">11</text><text transform="matrix(1 0 0 1 61.50 66.50)">12</text><text transform="matrix(1 0 0 1 45.50 82.50)">13</text><text transform="matrix(1 0 0 1 54.50 85.50)">14</text><text transform="matrix(1 0 0 1 66.50 83.50)">15</text><text transform="matrix(1 0 0 1 74.50 80.50)">16</text></g></svg>