<svg xmlns="http://www.w3.org/2000/svg" width="109" height="109" viewBox="0 0 109 109"><g id="kvg:StrokePaths_09d3f"><g id="kvg:09d3f" kvg:element="鴿"><g id="kvg:09d3f-g1" kvg:element="合" kvg:position="left"><g id="kvg:09d3f-g2" kvg:position="top"><g id="kvg:09d3f-g3" kvg:element="人"><path id="kvg:09d3f-s1" kvg:type="㇒" d="M32.92 11.5c.06 1.05.29 2.79-.12 4.2-2.88 9.79-9.18 23.51-21.48 35.73"/><path id="kvg:09d3f-s2" kvg:type="㇏" d="M32.83 18.58c7.54 5.22 14.45 16.06 17.88 22.04"/></g><g id="kvg:09d3f-g4" kvg:element="一"><path id="kvg:09d3f-s3" kvg:type="㇐" d="M19.55 47.39c.56.24 3.19.22 3.75.24 5.45.12 15.45-1.38 20.28-1.7.94-.06 2.3.11 2.77.23"/></g></g><g id="kvg:09d3f-g5" kvg:element="口" kvg:position="bottom"><path id="kvg:09d3f-s4" kvg:type="㇑" d="M19.09 63.33c.33.59 1.07 2.01 1.16 2.79 1.1 10.15 1.43 17.95 2.17 26.41"/><path id="kvg:09d3f-s5" kvg:type="㇕b" d="M20.01 64.84c8.49-1.09 17.42-2.52 21.26-3.29 1.4-.28 2.25 1.67 2.04 3.32-.83 6.85-1.33 12.74-3.04 22.33"/><path id="kvg:09d3f-s6" kvg:type="㇐b" d="M23.07 89.31c4.51-.87 12.49-1.11 19.1-1.75"/></g></g><g id="kvg:09d3f-g6" kvg:element="鳥" kvg:position="right" kvg:radical="general"><path id="kvg:09d3f-s7" kvg:type="㇒" d="M71.64 9.16c.02.31.03.8-.03 1.24-.38 2.58-2.58 8.09-5.6 11.3"/><path id="kvg:09d3f-s8" kvg:type="㇑" d="M57.53 22.14c.34.4.62.95.62 1.61.0 6.75.04 32.68-.17 43.29"/><path id="kvg:09d3f-s9" kvg:type="㇕a" d="M58.57 24.87c1.6.0 22.09-2.95 23.65-2.85 2.3.15 3.43 2.01 3.22 3.75-.13 1.07-.69 12.31-2.17 20.5"/><path id="kvg:09d3f-s10" kvg:type="㇐a" d="M58.82 34.89c1.96.12 22.22-2.56 24.43-2.42"/><path id="kvg:09d3f-s11" kvg:type="㇐a" d="M58.23 46.16c3.99-.13 19.55-2.32 24.51-2.33"/><path id="kvg:09d3f-s12" kvg:type="㇐b" d="M58.45 56.47c9.08-.96 29.18-3.27 33.08-3.87 1.36-.21 3.67-.4 4.35-.12"/><path id="kvg:09d3f-s13" kvg:type="㇆a" d="M57.98 67.25c9.36-1.52 26.87-3.19 32.06-3.64 3.38-.29 5.11.83 4.5 4.27-1.69 9.55-5.2 20.63-8.13 26.5-2.94 5.9-6.14.97-7.5-.22"/><g id="kvg:09d3f-g7" kvg:element="灬" kvg:variant="true" kvg:original="火"><path id="kvg:09d3f-s14" kvg:type="㇔" d="M53.81 77.4c.44 4.1-.06 9.35-2 13.24"/><path id="kvg:09d3f-s15" kvg:type="㇔" d="M61.59 76.77c1.21 2.11 2.35 7.65 2.66 10.75"/><path id="kvg:09d3f-s16" kvg:type="㇔" d="M70.48 74.43c1.46 1.82 3.78 7.31 4.15 9.99"/><path id="kvg:09d3f-s17" kvg:type="㇔" d="M80.17 71.78c1.5 1.76 3.87 7.06 4.24 9.65"/></g></g></g></g></svg>