<!DOCTYPE svg PUBLIC "-//W3C//DTD SVG 1.0//EN" "http://www.w3.org/TR/2001/REC-SVG-20010904/DTD/svg10.dtd" [
<!ATTLIST g
xmlns:kvg CDATA #FIXED "http://kanjivg.tagaini.net"
kvg:element CDATA #IMPLIED
kvg:variant CDATA #IMPLIED
kvg:partial CDATA #IMPLIED
kvg:original CDATA #IMPLIED
kvg:part CDATA #IMPLIED
kvg:number CDATA #IMPLIED
kvg:tradForm CDATA #IMPLIED
kvg:radicalForm CDATA #IMPLIED
kvg:position CDATA #IMPLIED
kvg:radical CDATA #IMPLIED
kvg:phon CDATA #IMPLIED >
<!ATTLIST path
xmlns:kvg CDATA #FIXED "http://kanjivg.tagaini.net"
kvg:type CDATA #IMPLIED >
]><svg xmlns="http://www.w3.org/2000/svg" width="109" height="109" viewBox="0 0 109 109"><g id="kvg:StrokePaths_09d46" style="fill:none;stroke:#000000;stroke-width:3;stroke-linecap:round;stroke-linejoin:round;"><g id="kvg:09d46" kvg:element="鵆"><g id="kvg:09d46-g1" kvg:element="行" kvg:part="1" kvg:position="kamae"><g id="kvg:09d46-g2" kvg:element="彳" kvg:position="left"><path id="kvg:09d46-s1" kvg:type="㇒" d="M32.11 13.5c.05.5.27 1.39-.11 2.01-2.74 4.33-9.95 11.87-20.01 19.2"/><g id="kvg:09d46-g3" kvg:element="亻" kvg:variant="true" kvg:original="人"><path id="kvg:09d46-s2" kvg:type="㇒" d="M33.91 31.77c.07.68.23 1.85-.13 2.72-2.86 7.01-11.37 16.52-23.03 26.03"/><path id="kvg:09d46-s3" kvg:type="㇑" d="M23.95 52.12c.27.24.93 2.09.98 2.58s0 38.27-.05 41.3"/></g></g></g><g id="kvg:09d46-g4" kvg:element="鳥" kvg:radical="general"><path id="kvg:09d46-s4" kvg:type="㇒" d="M53.27 11.69c.02.27.04.69-.03 1.06-.41 2.21-2.77 6.94-5.99 9.71"/><path id="kvg:09d46-s5" kvg:type="㇑" d="M41.85 24.41c.3.37.54.88.54 1.49.0 6.25.03 30.28-.15 40.12"/><path id="kvg:09d46-s6" kvg:type="㇕a" d="M42.77 25.55c1.41.0 18.62-2.84 20-2.75 2.03.12 3.03 1.84 2.85 3.46-.11.99-1.49 9.69-2.8 17.28"/><path id="kvg:09d46-s7" kvg:type="㇐a" d="M43 34.49c1.73.11 19.17-2.47 21.13-2.35"/><path id="kvg:09d46-s8" kvg:type="㇐a" d="M42.92 44.46c3.52-.14 15.49-2.23 19.88-2.26"/><path id="kvg:09d46-s9" kvg:type="㇐b" d="M43.12 55.12c7.44-.77 24.8-3.03 27.99-3.51 1.11-.17 3-.32 3.57-.11"/><path id="kvg:09d46-s10" kvg:type="㇆a" d="M42.26 66.21c8.27-1.46 23.23-3.54 27.82-3.98 2.98-.29 4.51 2.48 3.98 5.66-1.49 8.86-3.86 17.63-6.3 23.17-2.32 5.28-4.14 2.81-6.63-.17"/><g id="kvg:09d46-g5" kvg:element="灬" kvg:variant="true" kvg:original="火"><path id="kvg:09d46-s11" kvg:type="㇔" d="M36.11 76.09c.42 4.52-1.3 9.93-2.52 12.7"/><path id="kvg:09d46-s12" kvg:type="㇔" d="M42.6 74.46c1.63 2.19 3.17 7.98 3.58 11.21"/><path id="kvg:09d46-s13" kvg:type="㇔" d="M52.62 73.76c1.26 1.59 3.26 6.42 3.57 8.77"/><path id="kvg:09d46-s14" kvg:type="㇔" d="M59.49 70.49c1.64 1.56 4.23 6.24 4.64 8.53"/></g></g><g id="kvg:09d46-g6" kvg:element="行" kvg:part="2" kvg:position="kamae"><g id="kvg:09d46-g7" kvg:position="right"><path id="kvg:09d46-s15" kvg:type="㇐" d="M72.84 20.3c1.66.45 2.74.46 3.36.36 6.05-.91 15.18-2.53 18.02-2.38 1.02.06 1.64.17 2.15.35"/><path id="kvg:09d46-s16" kvg:type="㇐" d="M72.09 39.71c.61.36 1.74.43 2.36.36 5.8-.58 15.8-2.08 24.03-2.62 1.02-.07 1.64.17 2.15.35"/><path id="kvg:09d46-s17" kvg:type="㇚" d="M87.75 41.66c.07.45 1.06 2.37 1.06 5.25.0 17.09-.22 39.8-.22 44.51.0 10.33-5.6 1.52-6.87.33"/></g></g></g></g><g id="kvg:StrokeNumbers_09d46" style="font-size:8;fill:#808080"><text transform="matrix(1 0 0 1 24.50 13.50)">1</text><text transform="matrix(1 0 0 1 25.50 33.50)">2</text><text transform="matrix(1 0 0 1 17.50 63.50)">3</text><text transform="matrix(1 0 0 1 45.25 12.50)">4</text><text transform="matrix(1 0 0 1 35.25 28.50)">5</text><text transform="matrix(1 0 0 1 42.50 22.75)">6</text><text transform="matrix(1 0 0 1 46.50 32.50)">7</text><text transform="matrix(1 0 0 1 46.50 42.50)">8</text><text transform="matrix(1 0 0 1 46.50 52.50)">9</text><text transform="matrix(1 0 0 1 45.50 62.50)">10</text><text transform="matrix(1 0 0 1 29.50 77.50)">11</text><text transform="matrix(1 0 0 1 37.50 83.50)">12</text><text transform="matrix(1 0 0 1 46.50 80.50)">13</text><text transform="matrix(1 0 0 1 55.50 78.50)">14</text><text transform="matrix(1 0 0 1 70.50 17.50)">15</text><text transform="matrix(1 0 0 1 68.50 36.50)">16</text><text transform="matrix(1 0 0 1 77.50 49.43)">17</text></g></svg>