<!DOCTYPE svg PUBLIC "-//W3C//DTD SVG 1.0//EN" "http://www.w3.org/TR/2001/REC-SVG-20010904/DTD/svg10.dtd" [
<!ATTLIST g
xmlns:kvg CDATA #FIXED "http://kanjivg.tagaini.net"
kvg:element CDATA #IMPLIED
kvg:variant CDATA #IMPLIED
kvg:partial CDATA #IMPLIED
kvg:original CDATA #IMPLIED
kvg:part CDATA #IMPLIED
kvg:number CDATA #IMPLIED
kvg:tradForm CDATA #IMPLIED
kvg:radicalForm CDATA #IMPLIED
kvg:position CDATA #IMPLIED
kvg:radical CDATA #IMPLIED
kvg:phon CDATA #IMPLIED >
<!ATTLIST path
xmlns:kvg CDATA #FIXED "http://kanjivg.tagaini.net"
kvg:type CDATA #IMPLIED >
]><svg xmlns="http://www.w3.org/2000/svg" width="109" height="109" viewBox="0 0 109 109"><g id="kvg:StrokePaths_09d44" style="fill:none;stroke:#000000;stroke-width:3;stroke-linecap:round;stroke-linejoin:round;"><g id="kvg:09d44" kvg:element="鵄"><g id="kvg:09d44-g1" kvg:element="至" kvg:position="left" kvg:radical="nelson"><path id="kvg:09d44-s1" kvg:type="㇐" d="M12 22c.84.43 2.38.48 3.23.43C22.5 22 33 20.75 42.81 20.35c1.4-.06 2.24.2 2.95.42"/><g id="kvg:09d44-g2" kvg:element="厶"><path id="kvg:09d44-s2" kvg:type="㇜" d="M24.67 25.25c.36.43.45 1.77.21 2.29-2.38 5.21-6.16 10.57-10.48 16.19-1.39 1.81-1.49 3.03.74 2.5 5.21-1.25 17.42-4.58 25.64-6.64"/><path id="kvg:09d44-s3" kvg:type="㇔" d="M35.9 30.24c3.44 2.78 8.88 11.45 9.74 15.78"/></g><g id="kvg:09d44-g3" kvg:element="土"><path id="kvg:09d44-s4" kvg:type="㇐" d="M12.19 62.87c1.06.13 3.15.29 3.74.25 6.82-.38 20.32-2.13 26.6-2.98.97-.13 3.06.12 3.55.25"/><path id="kvg:09d44-s5" kvg:type="㇑" d="M26.69 45.28c.12.33 1.78 1.7 1.78 3.78.0 10.44.06 30.44.06 33.83"/><path id="kvg:09d44-s6" kvg:type="㇀/㇐" d="M13.35 89.15c1.1.86 3.01.62 3.87.12 8.68-4.95 16.09-8.3 28.01-15.15"/></g></g><g id="kvg:09d44-g4" kvg:element="鳥" kvg:position="right" kvg:radical="tradit"><path id="kvg:09d44-s7" kvg:type="㇒" d="M68.54 10.66c.02.28.04.72-.03 1.11-.41 2.32-2.74 7.29-5.93 10.18"/><path id="kvg:09d44-s8" kvg:type="㇑" d="M55.8 23.42c.33.43.6 1.02.6 1.73.0 7.23.04 33.51-.17 44.88"/><path id="kvg:09d44-s9" kvg:type="㇕a" d="M56.81 24.75c1.55.0 21-3.17 22.51-3.06 2.24.16 3.33 2.15 3.13 4.02-.12 1.15-.64 13.19-2.08 21.96"/><path id="kvg:09d44-s10" kvg:type="㇐a" d="M57.06 36.08c1.9.13 21.6-2.74 23.75-2.59"/><path id="kvg:09d44-s11" kvg:type="㇐a" d="M56.97 48.12c3.88-.14 18.55-2.48 23.38-2.5"/><path id="kvg:09d44-s12" kvg:type="㇐b" d="M56.69 59.3c8.97-1.11 29.32-3.75 33.17-4.44 1.34-.24 3.62-.46 4.3-.14"/><path id="kvg:09d44-s13" kvg:type="㇆a" d="M56.24 70.25c9.1-1.63 28.63-3.42 33.67-3.9 3.28-.31 4.97.89 4.38 4.57C92.65 81.16 89.25 89 85.86 94.67c-3.56 5.96-4.86 3.08-7.3-.24"/><g id="kvg:09d44-g5" kvg:element="灬" kvg:variant="true" kvg:original="火"><path id="kvg:09d44-s14" kvg:type="㇔" d="M51.1 80.23c-.1 4.02-2.1 9.02-4.19 12.94"/><path id="kvg:09d44-s15" kvg:type="㇔" d="M57.39 80.24c1.78 1.89 3.46 6.85 3.91 9.62"/><path id="kvg:09d44-s16" kvg:type="㇔" d="M68.2 78.29c1.34 1.42 3.46 5.68 3.8 7.76"/><path id="kvg:09d44-s17" kvg:type="㇔" d="M76.16 74.73c1.71 1.49 4.43 5.96 4.86 8.14"/></g></g></g></g><g id="kvg:StrokeNumbers_09d44" style="font-size:8;fill:#808080"><text transform="matrix(1 0 0 1 5.50 22.50)">1</text><text transform="matrix(1 0 0 1 14.50 32.50)">2</text><text transform="matrix(1 0 0 1 38.50 30.48)">3</text><text transform="matrix(1 0 0 1 5.50 62.50)">4</text><text transform="matrix(1 0 0 1 20.50 54.50)">5</text><text transform="matrix(1 0 0 1 4.50 88.50)">6</text><text transform="matrix(1 0 0 1 60.50 10.50)">7</text><text transform="matrix(1 0 0 1 48.25 30.50)">8</text><text transform="matrix(1 0 0 1 56.50 21.50)">9</text><text transform="matrix(1 0 0 1 59.50 33.50)">10</text><text transform="matrix(1 0 0 1 59.50 45.50)">11</text><text transform="matrix(1 0 0 1 59.50 56.50)">12</text><text transform="matrix(1 0 0 1 59.50 67.23)">13</text><text transform="matrix(1 0 0 1 40.50 84.50)">14</text><text transform="matrix(1 0 0 1 51.25 89.50)">15</text><text transform="matrix(1 0 0 1 60.50 84.50)">16</text><text transform="matrix(1 0 0 1 71.50 81.50)">17</text></g></svg>