<svg xmlns="http://www.w3.org/2000/svg" width="109" height="109" viewBox="0 0 109 109"><g id="kvg:StrokePaths_09d48" style="fill:none;stroke:#000000;stroke-width:3;stroke-linecap:round;stroke-linejoin:round;"><g id="kvg:09d48" kvg:element="鵈"><g id="kvg:09d48-g1" kvg:element="耳" kvg:position="left"><path id="kvg:09d48-s1" kvg:type="㇐" d="M11.55 22.54c.85.24 2.41.33 3.26.24C22.5 22 34.5 20.75 44.03 20c1.41-.11 2.27.12 2.97.24"/><path id="kvg:09d48-s2" kvg:type="㇑a" d="M19.22 25.5c.63.75.96 2.71.96 4.73s-.19 39.26-.19 46.52"/><path id="kvg:09d48-s3" kvg:type="㇐a" d="M20.16 41c2.84.0 13.71-2 18.57-2"/><path id="kvg:09d48-s4" kvg:type="㇐a" d="M20.37 56.25c3.51.0 13.81-2.25 18.92-2.25"/><path id="kvg:09d48-s5" kvg:type="㇀" d="M12 78c.29.75 2.05 1.37 3.05 1 5.45-2 13.7-6.75 21.86-10.25"/><path id="kvg:09d48-s6" kvg:type="㇑" d="M38.44 23.5c.29 1 .73 2.25.73 3.5s.15 59.75.15 70"/></g><g id="kvg:09d48-g2" kvg:element="鳥" kvg:position="right" kvg:radical="general"><path id="kvg:09d48-s7" kvg:type="㇒" d="M69.54 9.66c.02.32.04.82-.03 1.26-.41 2.63-2.74 8.26-5.93 11.53"/><path id="kvg:09d48-s8" kvg:type="㇑" d="M56.8 24.42c.33.43.6 1.02.6 1.73.0 7.23.04 32.51-.17 43.88"/><path id="kvg:09d48-s9" kvg:type="㇕a" d="M57.81 25.75c1.55.0 21.5-3.17 23.01-3.06 2.24.16 3.26 1.64 3.13 3.52-.2 3.05-.95 11.05-2.58 21.46"/><path id="kvg:09d48-s10" kvg:type="㇐a" d="M58.06 36.58C62.5 36 78.5 34.25 82.81 33.99"/><path id="kvg:09d48-s11" kvg:type="㇐a" d="M57.97 47.62c3.88-.14 18.55-2.48 23.38-2.5"/><path id="kvg:09d48-s12" kvg:type="㇐b" d="M57.69 58.8c9.16-1.11 29.41-3.75 33.34-4.44 1.37-.24 3.7-.46 4.39-.14"/><path id="kvg:09d48-s13" kvg:type="㇆a" d="M57.24 70.25c9.1-1.63 28.13-4.42 33.17-4.9 3.28-.31 4.97.89 4.38 4.57-1.64 10.24-4.29 19.57-7.43 24.25-3.87 5.76-6.47 1.04-7.8-.24"/><g id="kvg:09d48-g3" kvg:element="灬" kvg:variant="true" kvg:original="火"><path id="kvg:09d48-s14" kvg:type="㇔" d="M51.81 79.48c.64 5.58-.96 12.27-2.86 15.69"/><path id="kvg:09d48-s15" kvg:type="㇔" d="M60.07 79.74c1.73 2.18 3.36 7.92 3.79 11.12"/><path id="kvg:09d48-s16" kvg:type="㇔" d="M68.49 76.54c1.76 1.92 4.54 7.69 4.98 10.51"/><path id="kvg:09d48-s17" kvg:type="㇔" d="M77.66 75.23c2.07 1.67 5.34 6.69 5.86 9.14"/></g></g></g></g></svg>