<svg xmlns="http://www.w3.org/2000/svg" width="109" height="109" viewBox="0 0 109 109"><g id="kvg:StrokePaths_09d5e" style="fill:none;stroke:#000000;stroke-width:3;stroke-linecap:round;stroke-linejoin:round;"><g id="kvg:09d5e" kvg:element="鵞"><g id="kvg:09d5e-g1" kvg:element="我" kvg:position="top"><g id="kvg:09d5e-g2" kvg:element="丿"><path id="kvg:09d5e-s1" kvg:type="㇒" d="M46.24 10.78c.06.24.24.67-.12.98-2.9 2.46-9.73 6.15-22.06 9.33"/></g><g id="kvg:09d5e-g3" kvg:element="戈" kvg:part="1"><g id="kvg:09d5e-g4" kvg:element="弋" kvg:part="1"><path id="kvg:09d5e-s2" kvg:type="㇐" d="M15.75 27.43c1.52.25 4.32.38 5.82.25 6.15-.5 45.18-5.76 61.61-6.1 2.53-.05 4.05.12 5.31.25"/></g></g><g id="kvg:09d5e-g5" kvg:element="亅"><path id="kvg:09d5e-s3" kvg:type="㇚" d="M39.63 18.8c.06.2.86 1.05.92 2.33.3 6.15-.19 22.26-.19 24.36.0 4.98-4.62 1.45-5.81.11"/></g><path id="kvg:09d5e-s4" kvg:type="㇀" d="M16.5 38.94c1 1.01 1.56 1.53 3.59.93 8.16-2.42 22.9-6.5 29.16-8.33"/><g id="kvg:09d5e-g6" kvg:element="戈" kvg:part="2"><path id="kvg:09d5e-s5" kvg:type="㇂" d="M58.25 8.95c1.53.86 1.91 1.18 2.49 2.96C66.5 29.7 74.75 41.7 87.02 48.89c6.23 3.65 6.78 3.46 4.9-5.95"/><g id="kvg:09d5e-g7" kvg:element="丿"><path id="kvg:09d5e-s6" kvg:type="㇒" d="M79.24 27.23c.07.42.14 1.08-.13 1.69-1.62 3.56-10.56 11.76-23.3 16.54"/></g><g id="kvg:09d5e-g8" kvg:element="弋" kvg:part="2"><g id="kvg:09d5e-g9" kvg:element="丶"><path id="kvg:09d5e-s7" kvg:type="㇔" d="M70.75 8.44c3.34 1.49 8.69 4.91 10.25 7.47"/></g></g></g></g><g id="kvg:09d5e-g10" kvg:element="鳥" kvg:position="bottom" kvg:radical="general"><path id="kvg:09d5e-s8" kvg:type="㇒" d="M49.23 39.87c.02.26.04.68-.03 1.06-.42 2.22-2.86 7.1-6.19 10.09"/><path id="kvg:09d5e-s9" kvg:type="㇑" d="M31.63 51.82c.46.25.82 1.6.82 2.03.0 4.43.05 21.46-.23 28.44"/><path id="kvg:09d5e-s10" kvg:type="㇕a" d="M33.02 53.58c2.13-.06 36.59-2.82 38.67-2.82 3.07.0 4.07 2.17 3.79 3.33-.17.71-1.25 7.43-3.23 12.87"/><path id="kvg:09d5e-s11" kvg:type="㇐a" d="M33.36 59.91c2.61.0 36.92-2.09 39.87-2.09"/><path id="kvg:09d5e-s12" kvg:type="㇐a" d="M33.24 66.99c5.31-.25 32.37-1.76 38.98-1.97"/><path id="kvg:09d5e-s13" kvg:type="㇐b" d="M32.53 74.68c12.51-.87 41.73-2.73 47.1-3.21 1.87-.17 5.05-.36 6-.23"/><path id="kvg:09d5e-s14" kvg:type="㇆a" d="M32.23 82.43c12.48-1.39 43.35-2.76 50.27-3.28 4.5-.33 5.13 2.42 5 4.84-.25 4.7-2 9.7-4 13.7-2.33 4.65-4.75 1.26-7.5-1.33"/><g id="kvg:09d5e-g11" kvg:element="灬" kvg:variant="true" kvg:original="火"><path id="kvg:09d5e-s15" kvg:type="㇔" d="M23.45 87.59c-.7 3.86-2.53 9.94-4.7 12.61"/><path id="kvg:09d5e-s16" kvg:type="㇔" d="M33 87.67c2.23 1.92 4.35 7.22 4.91 10.21"/><path id="kvg:09d5e-s17" kvg:type="㇔" d="M47.25 87.09c2.12 1.6 5.47 6.6 6 9.09"/><path id="kvg:09d5e-s18" kvg:type="㇔" d="M61 85.83c2.21 1.56 5.7 6.42 6.25 8.84"/></g></g></g></g></svg>