<svg xmlns="http://www.w3.org/2000/svg" width="109" height="109" viewBox="0 0 109 109"><g id="kvg:StrokePaths_09d6c"><g id="kvg:09d6c" kvg:element="鵬"><g id="kvg:09d6c-g1" kvg:element="朋" kvg:position="left"><g id="kvg:09d6c-g2" kvg:element="月" kvg:variant="true" kvg:original="肉" kvg:position="left" kvg:radical="nelson"><path id="kvg:09d6c-s1" kvg:type="㇓" d="M15.08 18.98c.91.91 1.2 1.9 1.22 3.16C17.25 68.38 14.88 83.12 10 93"/><path id="kvg:09d6c-s2" kvg:type="㇆a" d="M17.53 20.42c1.09-.18 4.53-1.18 6.6-1.77 2.26-.64 3.89-.54 3.89 2.24.0 8.25-.02 47-.02 65.11.0 12.62-3 5.5-5.44 3.67"/><path id="kvg:09d6c-s3" kvg:type="㇐a" d="M18.28 38.1c2.6-.22 5.87-.7 8.65-.94"/><path id="kvg:09d6c-s4" kvg:type="㇐a" d="M17.43 56.51c2.57-.38 5.03-.72 9.49-1.21"/></g><g id="kvg:09d6c-g3" kvg:element="月" kvg:variant="true" kvg:original="肉" kvg:position="right"><path id="kvg:09d6c-s5" kvg:type="㇓" d="M35.87 16.98c.83.83.96 1.93.97 2.91.66 45.24-.59 57.86-4.56 68.61"/><path id="kvg:09d6c-s6" kvg:type="㇆a" d="M37.57 18.15c2.3-.53 4.68-1.15 7.96-1.93 2.93-.7 3.47.3 3.47 3.17.0 8.25.14 52.61.14 65.6.0 9.52-2.89 5.89-5.13 3.89"/><path id="kvg:09d6c-s7" kvg:type="㇐a" d="M38.25 37c2.75-.5 6.25-1.13 9.91-1.62"/><path id="kvg:09d6c-s8" kvg:type="㇐a" d="M38.21 55.57c2.79-.32 5.23-.72 9.69-1.21"/></g></g><g id="kvg:09d6c-g4" kvg:element="鳥" kvg:position="right" kvg:radical="tradit"><path id="kvg:09d6c-s9" kvg:type="㇒" d="M72.08 9.93c.07.65.04 1.29-.21 1.88C70.5 15 68 19 63.71 23.25"/><path id="kvg:09d6c-s10" kvg:type="㇑" d="M58.5 22.57c.71.71 1.05 1.56 1.05 2.8.0 5.02-.09 24.37-.13 35.88-.01 3.72-.02 6.62-.02 7.95"/><path id="kvg:09d6c-s11" kvg:type="㇕a" d="M60.44 24.72c7.94-1.47 15.56-2.56 21.2-3.25 2.56-.32 4.96.01 4.76 3.26-.21 3.28-.77 9.48-1.56 16.03-.24 1.99-.5 4.01-.78 5.99"/><path id="kvg:09d6c-s12" kvg:type="㇐a" d="M60.42 34.94c6.21-.82 18.71-2.32 24.21-2.88"/><path id="kvg:09d6c-s13" kvg:type="㇐a" d="M60.84 46.03c3.58-.38 17.74-1.38 22.19-1.7"/><path id="kvg:09d6c-s14" kvg:type="㇐b" d="M60.54 56.8c8.01-.68 22.97-2.15 30.22-2.66 2-.14 4.24-.52 6.83.01"/><path id="kvg:09d6c-s15" kvg:type="㇆a" d="M60.25 67.88c11.12-1 25-2.25 31.26-2.88 3.06-.3 4.58 2.33 4.04 5.75-1.52 9.5-3.92 16.71-6.4 22.75-2.36 5.75-4.21 3.25-6.73.25"/><g id="kvg:09d6c-g5" kvg:element="灬" kvg:variant="true" kvg:original="火"><path id="kvg:09d6c-s16" kvg:type="㇔" d="M56.83 78.5c.39 4.94-.78 10.91-1.94 14"/><path id="kvg:09d6c-s17" kvg:type="㇔" d="M63.01 77.38c1.55 2.11 3.02 7.9 3.4 11.18"/><path id="kvg:09d6c-s18" kvg:type="㇔" d="M71.2 75.75c1.54 1.54 3.97 6.35 4.36 8.75"/><path id="kvg:09d6c-s19" kvg:type="㇔" d="M80.5 72.88c1.56 1.43 4.03 5.89 4.42 8.12"/></g></g></g></g></svg>