<svg xmlns="http://www.w3.org/2000/svg" width="109" height="109" viewBox="0 0 109 109"><g id="kvg:StrokePaths_09d64"><g id="kvg:09d64" kvg:element="鵤"><g id="kvg:09d64-g1" kvg:element="角" kvg:position="left"><g id="kvg:09d64-g2" kvg:element="𠂊" kvg:variant="true" kvg:original="勹" kvg:position="top"><path id="kvg:09d64-s1" kvg:type="㇒" d="M27.22 10c.05.56.1 1.44-.09 2.25-1.1 4.74-7.45 15.14-16.14 21.5"/><path id="kvg:09d64-s2" kvg:type="㇇a" d="M24.39 19c2 0 12.11-1.75 15.82-2.75 2.16-.58 3.29 1.14 2 2.75-4.21 5.25-5.49 10.25-8.65 16"/></g><g id="kvg:09d64-g3" kvg:position="bottom"><path id="kvg:09d64-s3" kvg:type="㇒" d="M18.42 36c.74.76 1.47 2.89 1.48 3.69.02 1.95-.53 24.23-.67 25.94-.92 10.97-3 21.07-9.22 27.88"/><path id="kvg:09d64-s4" kvg:type="㇆a" d="M21.07 37.7c2.5-.21 20.92-3.73 22.78-3.96 3.33-.42 4.58 2.71 4.16 3.96-.4 1.2-.62 31.55-.62 48.43.0 12.12-4.39 3.37-6.68 1.62"/><path id="kvg:09d64-s5" kvg:type="㇑a" d="M32.42 37.37c.05.24.68 1.25.73 2.77C33.38 47.42 33 64.52 33 67"/><path id="kvg:09d64-s6" kvg:type="㇐a" d="M20.07 52.85C30.5 51.5 37.5 50.75 47.7 49.5"/><path id="kvg:09d64-s7" kvg:type="㇐a" d="M20.07 68.75c6.68-.5 17.43-2.25 27.19-3"/></g></g><g id="kvg:09d64-g4" kvg:element="鳥" kvg:position="right" kvg:radical="general"><path id="kvg:09d64-s8" kvg:type="㇒" d="M74.04 9.91c.02.31.04.8-.04 1.24-.46 2.58-3.08 8.11-6.67 11.33"/><path id="kvg:09d64-s9" kvg:type="㇑" d="M60.8 23.92c.33.41.6.95.6 1.62.0 6.77.04 32.78-.17 43.42"/><path id="kvg:09d64-s10" kvg:type="㇕a" d="M61.81 25.16c1.55.0 20-2.96 21.51-2.86 2.24.15 3.33 2.01 3.13 3.76-.12 1.07-1.64 11.85-3.08 20.06"/><path id="kvg:09d64-s11" kvg:type="㇐a" d="M62.06 35.71c1.9.12 20.6-2.57 22.75-2.43"/><path id="kvg:09d64-s12" kvg:type="㇐a" d="M61.97 46.51c3.88-.13 16.55-2.33 21.38-2.34"/><path id="kvg:09d64-s13" kvg:type="㇐b" d="M61.69 56.9c8.79-.99 27.74-2.84 31.51-3.46 1.32-.22 3.55-.41 4.21-.12"/><path id="kvg:09d64-s14" kvg:type="㇆a" d="M61.24 69.17c9.1-1.53 26.13-3.2 31.17-3.65 3.28-.29 4.97.83 4.38 4.28-1.64 9.58-4.08 18.68-6.93 24.57-2.86 5.92-5.97.98-7.3-.23"/><g id="kvg:09d64-g5" kvg:element="灬" kvg:variant="true" kvg:original="火"><path id="kvg:09d64-s15" kvg:type="㇔" d="M55.93 79.85c.42 4.01-.3 8.82-1.55 11.27"/><path id="kvg:09d64-s16" kvg:type="㇔" d="M63.07 78.97c1.5 1.97 2.92 7.13 3.29 10.02"/><path id="kvg:09d64-s17" kvg:type="㇔" d="M71.47 76.13c1.59 1.6 4.11 6.41 4.51 8.77"/><path id="kvg:09d64-s18" kvg:type="㇔" d="M79.91 74.21c1.8 1.67 4.66 6.71 5.11 9.17"/></g></g></g></g></svg>