<!DOCTYPE svg PUBLIC "-//W3C//DTD SVG 1.0//EN" "http://www.w3.org/TR/2001/REC-SVG-20010904/DTD/svg10.dtd" [
<!ATTLIST g
xmlns:kvg CDATA #FIXED "http://kanjivg.tagaini.net"
kvg:element CDATA #IMPLIED
kvg:variant CDATA #IMPLIED
kvg:partial CDATA #IMPLIED
kvg:original CDATA #IMPLIED
kvg:part CDATA #IMPLIED
kvg:number CDATA #IMPLIED
kvg:tradForm CDATA #IMPLIED
kvg:radicalForm CDATA #IMPLIED
kvg:position CDATA #IMPLIED
kvg:radical CDATA #IMPLIED
kvg:phon CDATA #IMPLIED >
<!ATTLIST path
xmlns:kvg CDATA #FIXED "http://kanjivg.tagaini.net"
kvg:type CDATA #IMPLIED >
]><svg xmlns="http://www.w3.org/2000/svg" width="109" height="109" viewBox="0 0 109 109"><g id="kvg:StrokePaths_09d9a" style="fill:none;stroke:#000000;stroke-width:3;stroke-linecap:round;stroke-linejoin:round;"><g id="kvg:09d9a" kvg:element="鶚"><g id="kvg:09d9a-g1" kvg:element="咢" kvg:position="left"><g id="kvg:09d9a-g2" kvg:position="top"><g id="kvg:09d9a-g3" kvg:element="口" kvg:position="left"><path id="kvg:09d9a-s1" kvg:type="㇑" d="M11.78 18.72c.24.3.8 1.45.9 1.82.82 2.97 1.87 8.32 2.44 13.66"/><path id="kvg:09d9a-s2" kvg:type="㇕b" d="M13.26 19.73C18 19.25 24.22 17.97 27 17.58c1.02-.14 1.63.85 1.48 1.68-.6 3.47-1.81 6.67-2.7 11.47"/><path id="kvg:09d9a-s3" kvg:type="㇐b" d="M15.76 32.04c3.27-.44 6.9-.7 11.39-1.38"/></g><g id="kvg:09d9a-g4" kvg:element="口" kvg:position="right"><path id="kvg:09d9a-s4" kvg:type="㇑" d="M33.96 16.48c.25.3.51.55.63.92.88 2.97 1.17 9.22 1.77 14.56"/><path id="kvg:09d9a-s5" kvg:type="㇕b" d="M35.01 17.49c6.74-.99 11.28-1.37 14.26-1.76 1.09-.14 1.74.85 1.59 1.68-.65 3.47-1.64 5.77-2.6 10.57"/><path id="kvg:09d9a-s6" kvg:type="㇐b" d="M36.47 29.8c3.5-.44 8.41-.7 13.21-1.38"/></g></g><g id="kvg:09d9a-g5" kvg:position="bottom"><g id="kvg:09d9a-g6" kvg:element="二"><g id="kvg:09d9a-g7" kvg:position="top"><path id="kvg:09d9a-s7" kvg:type="㇐" d="M16.01 42.65c.85.36 2.41.42 3.27.36 7.19-.51 20.22-2.51 24.64-3.2 1.4-.22 2.27.17 2.98.35"/></g><g id="kvg:09d9a-g8" kvg:position="bottom"><path id="kvg:09d9a-s8" kvg:type="㇐" d="M9.25 53.73c1.32.49 3.75.59 5.07.49C24 53.5 37 51.5 47.63 50.63c2.19-.18 3.52.23 4.62.48"/></g></g><path id="kvg:09d9a-s9" kvg:type="㇉" d="M26.31 53.1c.8 1.34 1.17 2.19.55 3.61-.5 1.13-3.48 6.89-3.8 7.44-1.29 2.22-.44 2.79 1.26 2.81 1.07.01 13.56-2.59 16.29-3.2 2.13-.48 3.78.66 3.55 3.08-.64 6.67-3.41 19.67-9 28.11-2.67 4.04-5.12-1.14-5.82-2.31"/></g></g><g id="kvg:09d9a-g9" kvg:element="鳥" kvg:position="right" kvg:radical="general"><path id="kvg:09d9a-s10" kvg:type="㇒" d="M71.54 10.16c.02.28.03.72-.03 1.11-.36 2.32-2.39 7.29-5.18 10.18"/><path id="kvg:09d9a-s11" kvg:type="㇑" d="M58.8 20.92c1.2.83 1.6 2.02 1.6 2.73.0 7.23-1.46 34.01-1.67 45.38"/><path id="kvg:09d9a-s12" kvg:type="㇕a" d="M60.81 23.75c1.55.0 20.5-3.17 22.01-3.06 2.24.16 3.33 2.15 3.13 4.02-.12 1.15-1.64 13.19-3.08 21.96"/><path id="kvg:09d9a-s13" kvg:type="㇐a" d="M60.56 35.58c1.9.13 21.6-2.74 23.75-2.59"/><path id="kvg:09d9a-s14" kvg:type="㇐a" d="M60.47 47.12c3.88-.14 17.55-2.48 22.38-2.5"/><path id="kvg:09d9a-s15" kvg:type="㇐b" d="M60.19 57.36c9.34-.84 29.99-2.86 34-3.38 1.4-.19 3.77-.35 4.48-.11"/><path id="kvg:09d9a-s16" kvg:type="㇆a" d="M58.74 69.25c9.1-1.63 28.13-2.92 33.17-3.4 3.28-.31 4.97.89 4.38 4.57-1.64 10.24-3.79 16.82-7.93 24.75-3.21 6.15-6.97 1.04-8.3-.24"/><g id="kvg:09d9a-g10" kvg:element="灬" kvg:variant="true" kvg:original="火"><path id="kvg:09d9a-s17" kvg:type="㇔" d="M52.43 78.48c.42 5.05-.3 11.1-1.55 14.19"/><path id="kvg:09d9a-s18" kvg:type="㇔" d="M60.57 77.74c1.5 2.18 2.92 7.92 3.29 11.12"/><path id="kvg:09d9a-s19" kvg:type="㇔" d="M69.49 76.29c1.76 1.78 4.54 7.14 4.98 9.76"/><path id="kvg:09d9a-s20" kvg:type="㇔" d="M78.16 74.48c2.07 1.53 5.34 6.14 5.86 8.39"/></g></g></g></g><g id="kvg:StrokeNumbers_09d9a" style="font-size:8;fill:#808080"><text transform="matrix(1 0 0 1 6.50 24.50)">1</text><text transform="matrix(1 0 0 1 14.50 16.50)">2</text><text transform="matrix(1 0 0 1 17.50 28.50)">3</text><text transform="matrix(1 0 0 1 29.25 28.50)">4</text><text transform="matrix(1 0 0 1 37.50 14.50)">5</text><text transform="matrix(1 0 0 1 39.50 26.50)">6</text><text transform="matrix(1 0 0 1 9.50 43.18)">7</text><text transform="matrix(1 0 0 1 2.50 55.50)">8</text><text transform="matrix(1 0 0 1 17.50 62.50)">9</text><text transform="matrix(1 0 0 1 60.75 10.50)">10</text><text transform="matrix(1 0 0 1 50.75 33.88)">11</text><text transform="matrix(1 0 0 1 59.50 20.50)">12</text><text transform="matrix(1 0 0 1 63.50 31.50)">13</text><text transform="matrix(1 0 0 1 63.50 43.50)">14</text><text transform="matrix(1 0 0 1 63.50 54.85)">15</text><text transform="matrix(1 0 0 1 63.50 64.77)">16</text><text transform="matrix(1 0 0 1 42.75 87.50)">17</text><text transform="matrix(1 0 0 1 53.75 87.50)">18</text><text transform="matrix(1 0 0 1 63.75 85.50)">19</text><text transform="matrix(1 0 0 1 74.75 82.50)">20</text></g></svg>