<svg xmlns="http://www.w3.org/2000/svg" width="109" height="109" viewBox="0 0 109 109"><g id="kvg:StrokePaths_09daf" style="fill:none;stroke:#000000;stroke-width:3;stroke-linecap:round;stroke-linejoin:round;"><g id="kvg:09daf" kvg:element="鶯"><g id="kvg:09daf-g1" kvg:element="𤇾" kvg:position="top"><g id="kvg:09daf-g2" kvg:element="炏"><g id="kvg:09daf-g3" kvg:element="火"><path id="kvg:09daf-s1" kvg:type="㇔" d="M21.25 16.93c3.36 1.71 6.72 6.31 7 9.06"/><path id="kvg:09daf-s2" kvg:type="㇒" d="M47.24 12.87c.62.42.33 1.94-.23 2.59s-5.72 4.74-8.51 6.25"/><path id="kvg:09daf-s3" kvg:type="㇒" d="M35.9 11.25c.85.63.88 2.24.85 2.65C36 24.25 32 32 26 36"/><path id="kvg:09daf-s4" kvg:type="㇏" d="M37.22 23.89c4.39 1.62 9.93 6.73 11.08 9.02"/></g><g id="kvg:09daf-g4" kvg:element="火"><path id="kvg:09daf-s5" kvg:type="㇔" d="M55.5 15.68c1.97 2.23 3.55 5.82 3.75 8.31"/><path id="kvg:09daf-s6" kvg:type="㇒" d="M80.73 12.37c.02.88-.16 2.61-.74 3.31-.57.7-6.38 4.14-9.24 5.78"/><path id="kvg:09daf-s7" kvg:type="㇒" d="M67.4 9.25c.35 1 .86 1.92.85 2.33C68 24.75 64.5 29 57.5 34.25"/><path id="kvg:09daf-s8" kvg:type="㇏" d="M69.47 24.14c4.09 1.48 9.25 6.18 10.33 8.27"/></g></g><g id="kvg:09daf-g5" kvg:element="冖"><path id="kvg:09daf-s9" kvg:type="㇔" d="M18.41 38.94c-.12 3.87-2.92 14-3.91 16.31"/><path id="kvg:09daf-s10" kvg:type="㇆" d="M18.22 41.5c3.53.0 49.75-4.75 67.47-4.75 12.06.0 3.81 5.75-.69 9.5"/></g></g><g id="kvg:09daf-g6" kvg:element="鳥" kvg:position="bottom" kvg:radical="general"><path id="kvg:09daf-s11" kvg:type="㇒" d="M49.4 42.18c.02.17.05.44-.05.69-.61 1.46-4.1 4.65-8.87 6.61"/><path id="kvg:09daf-s12" kvg:type="㇑" d="M35.35 51.01c.4.25.72.59.72 1.02.0 4.38.04 21.18-.2 28.07"/><path id="kvg:09daf-s13" kvg:type="㇕a" d="M36.56 51.76c1.86-.06 28.52-3.29 30.33-3.29 2.68.0 3.49 1.16 3.25 2.3-.15.7-.64 6.98-1.69 12.71"/><path id="kvg:09daf-s14" kvg:type="㇐a" d="M36.86 58.01c2.28.0 28.75-2.56 31.32-2.56"/><path id="kvg:09daf-s15" kvg:type="㇐a" d="M36.76 64.99c4.64-.25 25.9-2.23 31.67-2.44"/><path id="kvg:09daf-s16" kvg:type="㇐b" d="M37.01 72.09c9.79-.86 37.15-3.69 41.35-4.16 1.47-.17 3.95-.35 4.69-.23"/><path id="kvg:09daf-s17" kvg:type="㇆a" d="M35.88 80.23c10.89-1.37 37.84-3.71 43.88-4.22 3.93-.33 5.94 1.54 5.24 3.79-1.96 6.26-5.08 12.5-8.29 16.48-3.05 3.79-5.46 2.14-8.73.17"/><g id="kvg:09daf-g7" kvg:element="灬" kvg:variant="true" kvg:original="火"><path id="kvg:09daf-s18" kvg:type="㇔" d="M22.71 86.79c.5 4.04-.36 8.93-1.83 11.46"/><path id="kvg:09daf-s19" kvg:type="㇔" d="M34.18 85.89c2.29 1.81 4.46 6.8 5.03 9.62"/><path id="kvg:09daf-s20" kvg:type="㇔" d="M49.21 84.58c1.95 1.37 5.03 5.64 5.52 7.77"/><path id="kvg:09daf-s21" kvg:type="㇔" d="M62.71 83.1c2.16 1.02 5.57 4.18 6.11 5.77"/></g></g></g></g></svg>