<svg xmlns="http://www.w3.org/2000/svg" width="109" height="109" viewBox="0 0 109 109"><g id="kvg:StrokePaths_09db4"><g id="kvg:09db4" kvg:element="鶴"><g id="kvg:09db4-g1" kvg:element="寉" kvg:variant="true" kvg:position="left"><g id="kvg:09db4-g2" kvg:element="宀" kvg:partial="true" kvg:position="top"><g id="kvg:09db4-g3" kvg:element="冖"><path id="kvg:09db4-s1" kvg:type="㇔" d="M15.4 26.62c0 3.25-1.6 12.19-2.32 14.36"/><path id="kvg:09db4-s2" kvg:type="㇖b" d="M16.96 28.09c7.79-1.34 23.89-3.85 28.93-4.16 7.87-.49 1.67 6-.29 7.77"/></g></g><g id="kvg:09db4-g4" kvg:element="隹" kvg:position="bottom"><g id="kvg:09db4-g5" kvg:element="亻" kvg:variant="true" kvg:original="人"><path id="kvg:09db4-s3" kvg:type="㇒" d="M32.83 12.25c.55 1.38.48 2.38.05 4.57C30.22 30.16 24.68 47.43 14 61.37"/><path id="kvg:09db4-s4" kvg:type="㇑" d="M21.98 51.47c.77.77 1 2.17 1 3.78.0 10.14-.02 35.68-.02 40.75"/></g><path id="kvg:09db4-s5" kvg:type="㇒" d="M40.17 37.21c.04.6-.01 1.38-.16 1.89-.92 3.26-1.59 4.28-3.71 8.25"/><path id="kvg:09db4-s6" kvg:type="㇐b" d="M22.73 51.45c4.24-.61 15.61-1.82 22.28-2.6 2.39-.28 4.17-.5 4.82-.62"/><path id="kvg:09db4-s7" kvg:type="㇑a" d="M36.46 51.25c.9.9 1.05 2.13 1.05 3.99.0 8.38.05 23.97.05 30.63"/><path id="kvg:09db4-s8" kvg:type="㇐b" d="M23.75 62.8c3.85-.49 13.12-1.41 19-2.03 2.4-.25 4.24-.46 4.91-.57"/><path id="kvg:09db4-s9" kvg:type="㇐b" d="M23.09 74.47c4.05-.41 13.41-1.62 19.42-2.41 2.49-.33 4.4-.58 5.12-.67"/><path id="kvg:09db4-s10" kvg:type="㇐b" d="M23.34 88.93c4.06-.59 14.21-1.81 20.68-2.63 2.69-.34 4.75-.62 5.48-.75"/></g></g><g id="kvg:09db4-g6" kvg:element="鳥" kvg:position="right" kvg:radical="general"><path id="kvg:09db4-s11" kvg:type="㇒" d="M69.29 11.41c.06.82-.06 1.63-.35 2.4-.94 2.44-2.18 4.81-4.69 8.07"/><path id="kvg:09db4-s12" kvg:type="㇑" d="M57.8 22.92c1.01 1.01 1.09 2.33 1.09 4.58.0 7.62.06 23.9.08 36.62.0 2.24.0 5.15.0 7.16"/><path id="kvg:09db4-s13" kvg:type="㇕a" d="M59.81 24.25c2.94-.62 21.5-3.17 23.01-3.06 2.24.16 3.33 2.15 3.13 4.02-.09.89-1.67 9.77-3.02 16.23-.39 1.86-.76 3.52-1.06 4.73"/><path id="kvg:09db4-s14" kvg:type="㇐a" d="M60.31 34.58c7.94-1.21 19.31-2.46 23.25-2.84"/><path id="kvg:09db4-s15" kvg:type="㇐a" d="M59.97 46.37c5.15-.62 15.28-1.87 21.13-2.25"/><path id="kvg:09db4-s16" kvg:type="㇐b" d="M60.19 58.36c7.09-.73 21.06-2.15 26.95-2.86 1.75-.21 4.34-1.05 6.02-.38"/><path id="kvg:09db4-s17" kvg:type="㇆a" d="M59.99 70c10.63-1.5 27.13-3.67 32.17-4.15 3.28-.31 4.97.89 4.38 4.57-1.64 10.24-3.83 17.71-6.68 24-2.86 6.33-5.97 1.04-7.3-.24"/><g id="kvg:09db4-g7" kvg:element="灬" kvg:variant="true" kvg:original="火"><path id="kvg:09db4-s18" kvg:type="㇔" d="M55.02 82.98c.4 3.71-.54 8.16-1.71 10.44"/><path id="kvg:09db4-s19" kvg:type="㇔" d="M62.32 79.74c1.84 1.84 3.58 6.67 4.04 9.37"/><path id="kvg:09db4-s20" kvg:type="㇔" d="M71.33 77.79c1.56 1.42 4.03 5.68 4.42 7.76"/><path id="kvg:09db4-s21" kvg:type="㇔" d="M79.75 75.75c1.86 1.3 4.8 5.21 5.27 7.12"/></g></g></g></g></svg>