<!DOCTYPE svg PUBLIC "-//W3C//DTD SVG 1.0//EN" "http://www.w3.org/TR/2001/REC-SVG-20010904/DTD/svg10.dtd" [
<!ATTLIST g
xmlns:kvg CDATA #FIXED "http://kanjivg.tagaini.net"
kvg:element CDATA #IMPLIED
kvg:variant CDATA #IMPLIED
kvg:partial CDATA #IMPLIED
kvg:original CDATA #IMPLIED
kvg:part CDATA #IMPLIED
kvg:number CDATA #IMPLIED
kvg:tradForm CDATA #IMPLIED
kvg:radicalForm CDATA #IMPLIED
kvg:position CDATA #IMPLIED
kvg:radical CDATA #IMPLIED
kvg:phon CDATA #IMPLIED >
<!ATTLIST path
xmlns:kvg CDATA #FIXED "http://kanjivg.tagaini.net"
kvg:type CDATA #IMPLIED >
]><svg xmlns="http://www.w3.org/2000/svg" width="109" height="109" viewBox="0 0 109 109"><g id="kvg:StrokePaths_09db2" style="fill:none;stroke:#000000;stroke-width:3;stroke-linecap:round;stroke-linejoin:round;"><g id="kvg:09db2" kvg:element="鶲"><g id="kvg:09db2-g1" kvg:element="翁" kvg:variant="true" kvg:position="left"><g id="kvg:09db2-g2" kvg:element="公" kvg:position="top"><g id="kvg:09db2-g3" kvg:element="八" kvg:position="top"><path id="kvg:09db2-s1" kvg:type="㇒" d="M24.85 17.12c.22.56-.01 1.21-.31 1.88C22.42 23.87 18.43 31.09 12 35.8"/><path id="kvg:09db2-s2" kvg:type="㇏" d="M32.89 12.25c4.91 1 11.22 12.5 15.9 15.33 1.81 1.09 2.45 1.68 4.21 2.03"/></g><g id="kvg:09db2-g4" kvg:element="厶" kvg:position="bottom"><path id="kvg:09db2-s3" kvg:type="㇜" d="M31.69 26.52c.27.31.22 1.06-.01 1.44-3.01 5.1-4.86 7.94-9.14 13.03-1.04 1.24-.19 2.85 1.5 2.5 5.95-1.24 14.7-3.99 21.1-5.53"/><path id="kvg:09db2-s4" kvg:type="㇔" d="M40.43 32.57c2.52 1.8 6.51 7.39 7.14 10.18"/></g></g><g id="kvg:09db2-g5" kvg:element="羽" kvg:variant="true" kvg:position="bottom"><g id="kvg:09db2-g6" kvg:position="left"><path id="kvg:09db2-s5" kvg:type="㇆" d="M11.75 55.98c1.46.73 1.72.73 3.86.49 4.36-.49 9.43-2.23 10.76-2.33 1.51-.12 2.38.97 2.43 2.94.05 2.19-.56 26.39-.56 33.35.0 7.35-5.14.18-5.89-.25"/><path id="kvg:09db2-s6" kvg:type="㇒" d="M22.77 57.14c.03.39.07 1.01-.06 1.57-.8 3.31-5.38 10.56-11.65 15.01"/><path id="kvg:09db2-s7" kvg:type="㇒" d="M26.01 68.14c.04.47.09 1.21-.08 1.88-.99 3.96-6.64 12.63-14.37 17.95"/></g><g id="kvg:09db2-g7" kvg:position="right"><path id="kvg:09db2-s8" kvg:type="㇆" d="M33.54 52.08c1.45.75 1.2.75 3.34.5 4.34-.51 7.86-1.28 9.18-1.36 2.98-.18 2.85.89 2.85 2.99.0 3.35-1.06 28.87-1.06 36.04.0 7.61-5.11.96-5.85.52"/><path id="kvg:09db2-s9" kvg:type="㇒" d="M41.78 55.39c.02.31.05.81-.05 1.26-.58 2.66-3.89 8.49-8.42 12.06"/><path id="kvg:09db2-s10" kvg:type="㇒" d="M45.52 66.14c.03.41.07 1.07-.07 1.66-.82 3.51-5.49 11.2-11.9 15.91"/></g></g></g><g id="kvg:09db2-g8" kvg:element="鳥" kvg:position="right" kvg:radical="general"><path id="kvg:09db2-s11" kvg:type="㇒" d="M74.54 9.66c.02.31.04.8-.04 1.24-.49 2.58-3.31 8.09-7.17 11.3"/><path id="kvg:09db2-s12" kvg:type="㇑" d="M61.3 23.92c.33.43.6 1.02.6 1.73.0 7.23.04 32.01-.17 43.38"/><path id="kvg:09db2-s13" kvg:type="㇕a" d="M62.31 25.75c1.55.0 20-3.67 21.51-3.56 2.24.16 3.33 2.15 3.13 4.02-.12 1.15-2.14 11.69-3.58 20.46"/><path id="kvg:09db2-s14" kvg:type="㇐a" d="M62.56 35.08c1.9.13 20.19-2.58 22.75-2.59"/><path id="kvg:09db2-s15" kvg:type="㇐a" d="M62.47 46.12c3.88-.14 16.05-2.48 20.88-2.5"/><path id="kvg:09db2-s16" kvg:type="㇐b" d="M62.19 57.36c8.55-.84 27.46-2.86 31.13-3.38 1.28-.19 3.45-.35 4.1-.11"/><path id="kvg:09db2-s17" kvg:type="㇆a" d="M61.74 69.25c9.1-1.63 25.63-3.42 30.67-3.9 3.28-.31 4.97.89 4.38 4.57-1.64 10.24-4.58 17.96-7.43 24.25-2.86 6.33-5.97 1.04-7.3-.24"/><g id="kvg:09db2-g9" kvg:element="灬" kvg:variant="true" kvg:original="火"><path id="kvg:09db2-s18" kvg:type="㇔" d="M56.43 81.23c.35 3.71-.25 8.16-1.28 10.44"/><path id="kvg:09db2-s19" kvg:type="㇔" d="M63.82 79.24c.93 1.99 1.81 7.2 2.04 10.12"/><path id="kvg:09db2-s20" kvg:type="㇔" d="M72.2 77.29c1.34 1.42 3.46 5.68 3.8 7.76"/><path id="kvg:09db2-s21" kvg:type="㇔" d="M80.91 74.98c1.45 1.53 3.75 6.14 4.11 8.39"/></g></g></g></g><g id="kvg:StrokeNumbers_09db2" style="font-size:8;fill:#808080"><text transform="matrix(1 0 0 1 17.50 16.50)">1</text><text transform="matrix(1 0 0 1 31.50 9.55)">2</text><text transform="matrix(1 0 0 1 23.25 33.48)">3</text><text transform="matrix(1 0 0 1 39.25 28.40)">4</text><text transform="matrix(1 0 0 1 4.50 56.50)">5</text><text transform="matrix(1 0 0 1 13.50 64.50)">6</text><text transform="matrix(1 0 0 1 19.50 74.50)">7</text><text transform="matrix(1 0 0 1 31.50 50.50)">8</text><text transform="matrix(1 0 0 1 34.25 61.50)">9</text><text transform="matrix(1 0 0 1 35.50 71.50)">10</text><text transform="matrix(1 0 0 1 64.50 9.50)">11</text><text transform="matrix(1 0 0 1 51.25 27.50)">12</text><text transform="matrix(1 0 0 1 59.50 20.50)">13</text><text transform="matrix(1 0 0 1 65.34 32.50)">14</text><text transform="matrix(1 0 0 1 65.50 43.42)">15</text><text transform="matrix(1 0 0 1 65.38 54.85)">16</text><text transform="matrix(1 0 0 1 65.43 66.28)">17</text><text transform="matrix(1 0 0 1 50.25 76.50)">18</text><text transform="matrix(1 0 0 1 57.25 83.50)">19</text><text transform="matrix(1 0 0 1 65.50 80.50)">20</text><text transform="matrix(1 0 0 1 74.25 76.50)">21</text></g></svg>