<svg xmlns="http://www.w3.org/2000/svg" width="109" height="109" viewBox="0 0 109 109"><g id="kvg:StrokePaths_09dcf" style="fill:none;stroke:#000000;stroke-width:3;stroke-linecap:round;stroke-linejoin:round;"><g id="kvg:09dcf" kvg:element="鷏"><g id="kvg:09dcf-g1" kvg:element="真" kvg:position="left"><g id="kvg:09dcf-g2" kvg:element="十" kvg:position="top"><path id="kvg:09dcf-s1" kvg:type="㇐" d="M12.82 25.05c1.07.62 3.01.71 4.08.62 13.17-1.14 22.27-3.24 31.61-3.48 1.78-.05 2.84.3 3.73.61"/><path id="kvg:09dcf-s2" kvg:type="㇑" d="M31.83 13.25c.29.28.99 2.11.97 2.68-.15 4.2.2 8.32.09 17.1"/></g><g id="kvg:09dcf-g3" kvg:element="具" kvg:position="bottom"><g id="kvg:09dcf-g4" kvg:element="目" kvg:position="top"><path id="kvg:09dcf-s3" kvg:type="㇑" d="M19.44 34.49c.32.61.94 1.41 1 2.48.27 4.74.38 31.9.38 32.44"/><path id="kvg:09dcf-s4" kvg:type="㇕a" d="M21.12 34.82c2.3-.13 19.91-2.28 22-2.44 1.74-.13 2.97.69 2.97 3.57.0 4.67-.01 18.39-.53 31.04"/><path id="kvg:09dcf-s5" kvg:type="㇐a" d="M20.61 45.19c8.37-.76 19.91-1.85 25.46-2.12"/><path id="kvg:09dcf-s6" kvg:type="㇐a" d="M20.97 55.55c6.08-.45 17.01-1.76 24.52-2.05"/><path id="kvg:09dcf-s7" kvg:type="㇐a" d="M21.37 66.28c9.05-1.1 16.45-1.53 23.93-2.08"/></g><g id="kvg:09dcf-g5" kvg:position="bottom"><path id="kvg:09dcf-s8" kvg:type="㇐" d="M11.71 77.77c1.06.44 3.01.54 4.07.44 6.59-.6 21.3-2.95 33.31-2.94 1.77.0 2.83.21 3.71.43"/><g id="kvg:09dcf-g6" kvg:element="八"><path id="kvg:09dcf-s9" kvg:type="㇒" d="M24.62 82.56c.04.32.08.83-.07 1.29-.91 2.72-6.1 8.71-13.21 12.36"/><path id="kvg:09dcf-s10" kvg:type="㇏" d="M38.35 81.16c3.62 2.1 9.36 8.65 10.27 11.92"/></g></g></g></g><g id="kvg:09dcf-g7" kvg:element="鳥" kvg:position="right" kvg:radical="general"><path id="kvg:09dcf-s11" kvg:type="㇒" d="M72.08 11.16c.02.28.04.72-.03 1.12-.42 2.33-2.83 7.31-6.13 10.2"/><path id="kvg:09dcf-s12" kvg:type="㇑" d="M60.5 23.39c.32.38.57.88.57 1.5.0 6.29.03 30.44-.16 40.33"/><path id="kvg:09dcf-s13" kvg:type="㇕a" d="M61.46 25.54c1.48.0 19.95-3.75 21.39-3.66 2.12.14 3.17 1.87 2.97 3.49-.12 1-.56 10.47-1.93 18.1"/><path id="kvg:09dcf-s14" kvg:type="㇐a" d="M61.7 34.27c1.81.12 20.52-2.88 22.57-2.75"/><path id="kvg:09dcf-s15" kvg:type="㇐a" d="M61.62 43.8c3.68-.12 17.67-2.66 22.26-2.67"/><path id="kvg:09dcf-s16" kvg:type="㇐b" d="M61.82 53.84c8.26-.91 26.54-3.1 30.08-3.68 1.24-.2 3.33-.38 3.96-.11"/><path id="kvg:09dcf-s17" kvg:type="㇆a" d="M60.92 65.92c10.83-1.42 26.32-3.88 31.12-4.38 3.12-.33 4.72.93 4.16 4.78-1.56 10.71-4.7 21.18-9.08 27.97-3.89 6.01-5.67 1.09-6.93-.25"/><g id="kvg:09dcf-g8" kvg:element="灬" kvg:variant="true" kvg:original="火"><path id="kvg:09dcf-s18" kvg:type="㇔" d="M57.41 78.65c.56 4.87-1.4 10.71-3.05 13.69"/><path id="kvg:09dcf-s19" kvg:type="㇔" d="M65.12 76.12c.97 2.32 1.89 8.43 2.13 11.84"/><path id="kvg:09dcf-s20" kvg:type="㇔" d="M71.71 72.88c1.71 2.04 4.41 8.19 4.84 11.2"/><path id="kvg:09dcf-s21" kvg:type="㇔" d="M81.33 70.76c1.58 1.93 4.42 7.74 4.96 10.57"/></g></g></g></g></svg>