<!DOCTYPE svg PUBLIC "-//W3C//DTD SVG 1.0//EN" "http://www.w3.org/TR/2001/REC-SVG-20010904/DTD/svg10.dtd" [
<!ATTLIST g
xmlns:kvg CDATA #FIXED "http://kanjivg.tagaini.net"
kvg:element CDATA #IMPLIED
kvg:variant CDATA #IMPLIED
kvg:partial CDATA #IMPLIED
kvg:original CDATA #IMPLIED
kvg:part CDATA #IMPLIED
kvg:number CDATA #IMPLIED
kvg:tradForm CDATA #IMPLIED
kvg:radicalForm CDATA #IMPLIED
kvg:position CDATA #IMPLIED
kvg:radical CDATA #IMPLIED
kvg:phon CDATA #IMPLIED >
<!ATTLIST path
xmlns:kvg CDATA #FIXED "http://kanjivg.tagaini.net"
kvg:type CDATA #IMPLIED >
]><svg xmlns="http://www.w3.org/2000/svg" width="109" height="109" viewBox="0 0 109 109"><g id="kvg:StrokePaths_09dd3" style="fill:none;stroke:#000000;stroke-width:3;stroke-linecap:round;stroke-linejoin:round;"><g id="kvg:09dd3" kvg:element="鷓"><g id="kvg:09dd3-g1" kvg:element="庶" kvg:position="left"><g id="kvg:09dd3-g2" kvg:element="广" kvg:position="tare"><path id="kvg:09dd3-s1" kvg:type="㇑a" d="M33.8 13.63c.39.34 1.22 2.56 1.3 3.25.08.68.04 6.64-.04 10.91"/><g id="kvg:09dd3-g3" kvg:element="厂"><path id="kvg:09dd3-s2" kvg:type="㇐" d="M13.67 29.78c1.05.45 2.96.52 4.01.45 10.88-.76 18.34-2.93 32.33-3.52 1.74-.07 2.79.22 3.66.44"/><path id="kvg:09dd3-s3" kvg:type="㇒" d="M18.17 30.57c.02 1.5.05 3.87-.05 6.02-.59 12.69-.87 42.66-8.31 57.15"/></g></g><g id="kvg:09dd3-g4" kvg:position="tarec"><g id="kvg:09dd3-g5" kvg:element="廿"><g id="kvg:09dd3-g6" kvg:element="十"><path id="kvg:09dd3-s4" kvg:type="㇐" d="M21.39 46.86c.89.39 2.53.46 3.43.39 6.99-.53 15.44-1.75 25.79-3.26 1.48-.21 2.38-.31 3.13-.12"/><path id="kvg:09dd3-s5" kvg:type="㇑" d="M29.38 36.19c.65.44 1.03 2 1.16 2.89s.76 16.89.63 22.45"/></g><path id="kvg:09dd3-s6" kvg:type="㇑a" d="M43.5 33.41c.65.44 1.03 2 1.16 2.89.13.89-1.02 15.23-1.4 23.45"/><path id="kvg:09dd3-s7" kvg:type="㇐b" d="M31.43 61.02c2.45.0 11.79-1.58 13.99-1.78"/></g><g id="kvg:09dd3-g7" kvg:element="灬" kvg:variant="true" kvg:original="火"><path id="kvg:09dd3-s8" kvg:type="㇔" d="M24.26 74.36c0 5.39-2.64 13.35-3.32 14.89"/><path id="kvg:09dd3-s9" kvg:type="㇔" d="M31.27 72.04c1.23 2.45 2.39 9.2 2.7 13.01"/><path id="kvg:09dd3-s10" kvg:type="㇔" d="M39.74 70.63c1.71 2.09 4.41 8.61 4.83 11.87"/><path id="kvg:09dd3-s11" kvg:type="㇔" d="M48.94 67.52c1.63 1.86 4.21 7.65 4.62 10.54"/></g></g></g><g id="kvg:09dd3-g8" kvg:element="鳥" kvg:position="right" kvg:radical="general"><path id="kvg:09dd3-s12" kvg:type="㇒" d="M75.54 9.41c.02.26.04.67-.03 1.04C75.1 12.6 72 17.5 68.58 21.41"/><path id="kvg:09dd3-s13" kvg:type="㇑" d="M63.8 22.86c.33.4.6.95.6 1.61.0 6.73.04 32.58-.17 43.16"/><path id="kvg:09dd3-s14" kvg:type="㇕a" d="M64.81 24.09c1.55.0 20.5-2.95 22.01-2.85 2.24.15 3.33 2 3.13 3.74-.12 1.07-1.64 12.27-3.08 20.44"/><path id="kvg:09dd3-s15" kvg:type="㇐a" d="M65.06 35.07c1.9.12 21.1-2.55 23.25-2.41"/><path id="kvg:09dd3-s16" kvg:type="㇐a" d="M64.97 45.3c3.88-.13 17.05-2.31 21.88-2.32"/><path id="kvg:09dd3-s17" kvg:type="㇐b" d="M64.69 55.7c8.18-.78 24.29-2.66 27.8-3.15 1.22-.17 3.3-.33 3.92-.1"/><path id="kvg:09dd3-s18" kvg:type="㇆a" d="M64.74 67.83c9.1-1.52 22.13-3.18 27.17-3.63 3.28-.29 4.97.83 4.38 4.25-1.64 9.52-3.58 21.07-6.43 26.93-2.86 5.89-5.97.97-7.3-.22"/><g id="kvg:09dd3-g9" kvg:element="灬" kvg:variant="true" kvg:original="火"><path id="kvg:09dd3-s19" kvg:type="㇔" d="M58.27 77.95c.4 3.46-1.29 10.6-2.46 12.71"/><path id="kvg:09dd3-s20" kvg:type="㇔" d="M65.07 77.33c1.27 2.2 2.47 7.99 2.79 11.22"/><path id="kvg:09dd3-s21" kvg:type="㇔" d="M73.93 76.49c1.09 1.73 2.81 6.93 3.08 9.47"/><path id="kvg:09dd3-s22" kvg:type="㇔" d="M82.15 75.34c1.19 1.3 3.08 5.22 3.37 7.13"/></g></g></g></g><g id="kvg:StrokeNumbers_09dd3" style="font-size:8;fill:#808080"><text transform="matrix(1 0 0 1 26.50 13.50)">1</text><text transform="matrix(1 0 0 1 13.25 26.50)">2</text><text transform="matrix(1 0 0 1 10.50 38.50)">3</text><text transform="matrix(1 0 0 1 21.50 44.50)">4</text><text transform="matrix(1 0 0 1 32.25 36.50)">5</text><text transform="matrix(1 0 0 1 47.50 35.50)">6</text><text transform="matrix(1 0 0 1 34.50 57.50)">7</text><text transform="matrix(1 0 0 1 18.50 76.50)">8</text><text transform="matrix(1 0 0 1 26.50 80.50)">9</text><text transform="matrix(1 0 0 1 34.50 78.95)">10</text><text transform="matrix(1 0 0 1 44.50 74.50)">11</text><text transform="matrix(1 0 0 1 64.50 9.50)">12</text><text transform="matrix(1 0 0 1 56.50 30.50)">13</text><text transform="matrix(1 0 0 1 61.50 20.50)">14</text><text transform="matrix(1 0 0 1 68.50 32.50)">15</text><text transform="matrix(1 0 0 1 68.38 42.50)">16</text><text transform="matrix(1 0 0 1 68.43 52.50)">17</text><text transform="matrix(1 0 0 1 68.40 63.28)">18</text><text transform="matrix(1 0 0 1 53.50 73.50)">19</text><text transform="matrix(1 0 0 1 59.25 85.50)">20</text><text transform="matrix(1 0 0 1 67.75 82.50)">21</text><text transform="matrix(1 0 0 1 74.50 79.50)">22</text></g></svg>