<svg xmlns="http://www.w3.org/2000/svg" width="109" height="109" viewBox="0 0 109 109"><g id="kvg:StrokePaths_09e79"><g id="kvg:09e79" kvg:element="鹹"><g id="kvg:09e79-g1" kvg:element="鹵" kvg:position="left" kvg:radical="general"><g id="kvg:09e79-g2" kvg:element="卜" kvg:original="ト" kvg:position="top"><path id="kvg:09e79-s1" kvg:type="㇑" d="M23.28 11.41c.47.4 1.48 2.98 1.57 3.78.1.8.29 15.67.2 20.65"/><path id="kvg:09e79-s2" kvg:type="㇔" d="M24.95 23.59c1.88-.23 14.06-1.61 16.05-2.07 1.02-.23 2.41.01 3.25.23"/></g><g id="kvg:09e79-g3" kvg:position="bottom"><g id="kvg:09e79-g4" kvg:element="囗" kvg:part="1"><path id="kvg:09e79-s3" kvg:type="㇑" d="M11.45 35.16c.35 1.2.86 2.1.86 3.69.07 11.95.07 33.55-.14 56.37"/><path id="kvg:09e79-s4" kvg:type="㇕a" d="M12.56 37.11c13.12-1.26 24.94-3.52 26.96-3.52 2.2.0 2.98 2.08 2.95 4.61-.16 13.19-.64 36.3-.32 54.93"/></g><path id="kvg:09e79-s5" kvg:type="㇒" d="M34.03 39.35c.26 1 .42 2.34-.08 3.98-4.9 16.05-9.27 26.94-16.15 36.98"/><path id="kvg:09e79-s6" kvg:type="㇏" d="M17.98 48.51c6.83 7.68 14.34 22.29 17.96 33.89"/><path id="kvg:09e79-s7" kvg:type="㇔" d="M22.5 40.72c1.66 1.64 3.48 4.76 4.36 7.23"/><path id="kvg:09e79-s8" kvg:type="㇔" d="M17.81 59.57c1.37 1.5 2.88 4.34 3.61 6.6"/><path id="kvg:09e79-s9" kvg:type="㇔" d="M33.99 57.46c1.33 1.7 2.8 4.95 3.5 7.52"/><path id="kvg:09e79-s10" kvg:type="㇔" d="M25.54 77.38c1.19 1.79 2.49 5.19 3.12 7.88"/><g id="kvg:09e79-g5" kvg:element="囗" kvg:part="2"><path id="kvg:09e79-s11" kvg:type="㇐a" d="M12.61 92.72c8.14-.97 20.49-2.26 28.88-2.6"/></g></g></g><g id="kvg:09e79-g6" kvg:element="咸" kvg:position="right"><g id="kvg:09e79-g7" kvg:element="戍" kvg:part="1" kvg:variant="true" kvg:original="戌"><g id="kvg:09e79-g8" kvg:element="厂" kvg:part="1"><path id="kvg:09e79-s12" kvg:type="㇒" d="M54.03 31.03c.02 1.33-.02 3.43-.04 5.34-.16 17.87-2.08 43.6-6.19 51.91"/></g><g id="kvg:09e79-g9" kvg:element="戈" kvg:part="1"><g id="kvg:09e79-g10" kvg:element="弋" kvg:part="1"><g id="kvg:09e79-g11" kvg:element="厂" kvg:part="2"><path id="kvg:09e79-s13" kvg:type="㇐" d="M51.58 30.44c1.14.49 3.23.63 4.37.49C64 30 77.8 27.75 90.42 26.67c1.89-.16 3.04-.26 3.99-.02"/></g></g></g><g id="kvg:09e79-g12" kvg:element="一"><path id="kvg:09e79-s14" kvg:type="㇐" d="M57.15 46.05c1.38.19 3.33.07 4.18-.05 3-.41 4.88-.96 7.63-1.22 1.4-.14 2.62-.25 3.33-.1"/></g></g><g id="kvg:09e79-g13" kvg:element="口"><path id="kvg:09e79-s15" kvg:type="㇑" d="M57.28 58.23c.32.38.64.7.78 1.17 1.1 3.77 2.35 11.51 3.1 18.28"/><path id="kvg:09e79-s16" kvg:type="㇕b" d="M58.75 59.32c6.48-1.48 8.58-2.17 12.28-2.67 1.35-.18 2.17 1.07 1.97 2.14-.8 4.41-.9 7.5-2.09 13.59"/><path id="kvg:09e79-s17" kvg:type="㇐b" d="M60.97 74.51c4.36-.56 5.32-.72 11.3-1.58"/></g><g id="kvg:09e79-g14" kvg:element="戍" kvg:part="2" kvg:variant="true" kvg:original="戌"><g id="kvg:09e79-g15" kvg:element="戈" kvg:part="2"><g id="kvg:09e79-g16" kvg:element="弋" kvg:part="2"><path id="kvg:09e79-s18" kvg:type="㇂" d="M72.11 10.75c1.26 1.81 1.85 2.31 2.05 6.21 1.62 30.54 8.08 60.76 20.78 77.02 4.08 5.23 4.19 1.44 3.56-6.58"/></g><g id="kvg:09e79-g17" kvg:element="丿"><path id="kvg:09e79-s19" kvg:type="㇒" d="M92.87 41.87c.09 1.17.18 3.02-.16 4.7C90.25 58.75 82.5 81.5 63.87 92.37"/></g><g id="kvg:09e79-g18" kvg:element="弋" kvg:part="3"><g id="kvg:09e79-g19" kvg:element="丶"><path id="kvg:09e79-s20" kvg:type="㇔" d="M83.06 11.37c2.94 1.71 7.64 5.61 9.01 8.54"/></g></g></g></g></g></g></g></svg>