<svg xmlns="http://www.w3.org/2000/svg" width="109" height="109" viewBox="0 0 109 109"><g id="kvg:StrokePaths_09e81" style="fill:none;stroke:#000000;stroke-width:3;stroke-linecap:round;stroke-linejoin:round;"><g id="kvg:09e81" kvg:element="麁"><g id="kvg:09e81-g1" kvg:element="𠂊" kvg:variant="true" kvg:original="勹" kvg:position="top"><path id="kvg:09e81-s1" kvg:type="㇒" d="M45.99 9c.08.55.33 1.51-.15 2.2C42 16.75 35.25 25.25 19.5 33.25"/><path id="kvg:09e81-s2" kvg:type="㇇" d="M43.5 18.56c1.32.08 2.95.29 4.65.01 9.6-1.58 16.63-3.21 19.53-3.34 3.17-.15 2.64 2.36 1.48 3.33C66.25 21 63.25 22.75 59.5 25"/></g><g id="kvg:09e81-g2" kvg:element="鹿" kvg:position="bottom" kvg:radical="general"><g id="kvg:09e81-g3" kvg:element="广"><path id="kvg:09e81-s3" kvg:type="㇑a" d="M51.77 30.63c.69.3 1.8 2.27 1.8 2.89.0 1.48-.07 4.23-.07 6.2"/><g id="kvg:09e81-g4" kvg:element="厂"><path id="kvg:09e81-s4" kvg:type="㇐" d="M22.2 41.68c1.74.43 4.95.59 6.69.43 17.36-1.61 36.09-3.15 52.13-3.98 2.9-.15 4.65.2 6.11.42"/><path id="kvg:09e81-s5" kvg:type="㇒" d="M26.2 42.69c.04 1.26.09 3.24-.08 5.05-.98 10.65-3.2 36.47-13.81 47.94"/></g></g><path id="kvg:09e81-s6" kvg:type="㇕" d="M31.69 54.52c1.83.5 3.38.83 5.28.63 13.09-1.38 37.77-3.9 41.45-4.11 2.75-.16 3.73 1.34 3.23 3.12-.92 3.28-2.14 6.53-3.38 10.06"/><path id="kvg:09e81-s7" kvg:type="㇑" d="M42.76 46.48c.8.33 1.29 2.04 1.45 2.7.16.66.62 12.7 1.07 17.25"/><path id="kvg:09e81-s8" kvg:type="㇑" d="M62.69 44.56c.8.33 1.49 2.03 1.45 2.7-.2 2.94-1.57 12.8-2.26 17.35"/><path id="kvg:09e81-s9" kvg:type="㇐" d="M29.42 67.64c1.32.46 3.75.59 5.08.46 8.44-.81 32.05-4.35 41.52-4.18 2.21.04 3.53.22 4.64.46"/><g id="kvg:09e81-g5" kvg:element="比"><path id="kvg:09e81-s10" kvg:type="㇐" d="M35.42 81.98c4.55-.23 9.79-1.61 13.75-2 1.16-.12 1.9-.11 2.5-.04"/><path id="kvg:09e81-s11" kvg:type="㇙" d="M33.93 73.5c.82.42 1.52 2.15 1.52 2.72.0 1.54-.26 17.21-.26 19.17.0 2.18 1.66 2.35 3.29 1.66 4.27-1.79 7.26-3.23 12.38-6.06"/><g id="kvg:09e81-g6" kvg:element="匕"><path id="kvg:09e81-s12" kvg:type="㇒" d="M81.38 73.16c-.13 1.09-.12 1.94-.82 2.39C76.75 78 70.53 80.97 64.12 83.3"/><path id="kvg:09e81-s13" kvg:type="㇟" d="M60.03 70.67c.93.45 1.29 1.39 1.29 2.51.0 1.48.43 15.84.4 17.58C61.6 97.08 63 98.8 76.04 98.8c13.71.0 14.74-1.8 14.74-10.11"/></g></g></g></g></g></svg>