<svg xmlns="http://www.w3.org/2000/svg" width="109" height="109" viewBox="0 0 109 109"><g id="kvg:StrokePaths_09e9f" style="fill:none;stroke:#000000;stroke-width:3;stroke-linecap:round;stroke-linejoin:round;"><g id="kvg:09e9f" kvg:element="麟"><g id="kvg:09e9f-g1" kvg:element="鹿" kvg:position="left" kvg:radical="general"><g id="kvg:09e9f-g2" kvg:element="广"><path id="kvg:09e9f-s1" kvg:type="㇑a" d="M31.69 11.63c1.03 1.03 1.17 2.12 1.17 3.3.0.65.04 2.8-.04 6.82"/><g id="kvg:09e9f-g3" kvg:element="厂"><path id="kvg:09e9f-s2" kvg:type="㇐" d="M13.88 24.14c1.94.88 4.61.3 6.62.11 7.44-.69 16.08-1.91 24.75-2.92 1.97-.23 4.01-.23 5.94.29"/><path id="kvg:09e9f-s3" kvg:type="㇒" d="M15.35 25.14c.88.88.99 2.29.95 4.4-.42 20.7-1.98 44.4-8.52 57.81"/></g></g><path id="kvg:09e9f-s4" kvg:type="㇕" d="M19.23 36.03c1.13.53 2.83.59 4.01.42 8.76-1.32 20.63-3.02 22.9-3.24 1.69-.17 2.3 1.41 1.99 3.29-.57 3.46-1.26 6.91-2.03 10.63"/><path id="kvg:09e9f-s5" kvg:type="㇑" d="M26.73 28.47c.77.77 1.02 1.66 1.14 2.75.08.7.37 10.28.66 16.74"/><path id="kvg:09e9f-s6" kvg:type="㇑" d="M37.1 27.05c.65.82.96 1.82.89 3-.37 6.44-.62 11.82-.9 17.44"/><path id="kvg:09e9f-s7" kvg:type="㇐" d="M18.62 50.04c1.19.71 3.62.33 4.87.16 5.04-.67 14.5-1.95 19.63-2.37 1.52-.12 3.23-.36 4.7.18"/><g id="kvg:09e9f-g4" kvg:element="比"><path id="kvg:09e9f-s8" kvg:type="㇐" d="M23.89 66.17c2.8-.24 3.99-.61 6.44-1.02.72-.12 1.17-.12 1.54-.05"/><path id="kvg:09e9f-s9" kvg:type="㇙" d="M21.68 54.99c.86.86.94 1.89.94 3.21.0 1.89-.12 20.5-.12 25.31.0 2.5.82 3.87 2.74 2.1 2.01-1.85 3.51-3.23 5.65-5.46"/><g id="kvg:09e9f-g5" kvg:element="匕"><path id="kvg:09e9f-s10" kvg:type="㇒" d="M47.93 57.84c.1.48.11 1.46-.41 2.13-1.39 1.78-5.24 6.19-8.28 8.82"/><path id="kvg:09e9f-s11" kvg:type="㇟" d="M35.08 52.98c.91.91 1.04 2.27 1.04 3.65.0 1.56-.04 20.26-.06 22.09-.07 6.67 1.37 7.37 6.41 7.37s6.05-.7 6.05-6.45"/></g></g></g><g id="kvg:09e9f-g6" kvg:element="粦" kvg:position="right"><g id="kvg:09e9f-g7" kvg:element="米" kvg:position="top"><path id="kvg:09e9f-s12" kvg:type="㇔" d="M56.11 16.03c1.84 1.68 4.62 6.41 5.08 9.02"/><path id="kvg:09e9f-s13" kvg:type="㇒" d="M85.47 13.5c.03.41.07 1.06-.08 1.64-.55 2.16-2.75 5.94-6.02 9.61"/><path id="kvg:09e9f-s14" kvg:type="㇐" d="M52.15 29.88c2.19.62 4.66.39 6.88.13 7.35-.88 19.25-1.87 26.22-2.31 1.89-.12 4.01-.2 6.4.12"/><path id="kvg:09e9f-s15" kvg:type="㇑" d="M70.49 10.75c.75.75.93 1.88.93 2.96.0.5-.04 20.5-.05 32.29.0 2.64.0 4.87.0 6.38"/><path id="kvg:09e9f-s16" kvg:type="㇒" d="M68.77 29.94c0 1.19-.5 2.22-1.15 3.27-3.19 5.21-8.53 11.2-13.53 13.93"/><path id="kvg:09e9f-s17" kvg:type="㇏" d="M72.99 29.96c2.31 1.82 10.92 9.45 15.76 13.03 1.84 1.36 3.07 2.17 5.37 3.14"/></g><g id="kvg:09e9f-g8" kvg:element="舛" kvg:position="bottom"><g id="kvg:09e9f-g9" kvg:element="夕" kvg:position="left"><path id="kvg:09e9f-s18" kvg:type="㇒" d="M58.12 51.56c.32 1.01.1 2.03-.29 2.97-1.87 4.59-5.63 12.69-11.3 19.4"/><path id="kvg:09e9f-s19" kvg:type="㇇" d="M57.85 60.53c1.86-.03 4.3-.75 7.11-1.45 2.71-.68 3.72.32 2.86 3.06-2.78 8.88-14.23 27.99-23.57 32.14"/><path id="kvg:09e9f-s20" kvg:type="㇔" d="M53.5 69.5c1.37 1.11 3.55 4.57 3.89 6.3"/></g><g id="kvg:09e9f-g10" kvg:element="㐄" kvg:position="right"><path id="kvg:09e9f-s21" kvg:type="㇐" d="M71.41 63.45c1.37.48 2.95.46 4.34.33 4.21-.42 11.04-1.16 15.5-2.04 1.04-.21 3.05-.3 4.14-.07"/><path id="kvg:09e9f-s22" kvg:type="㇑" d="M72.96 64.45c.67.67.75 1.52.74 2.43-.02 3.11-.07 7.68-.07 10.43"/><path id="kvg:09e9f-s23" kvg:type="㇐" d="M66.35 78.39c2.13.33 3.89.22 6.05.02 8.54-.82 20.88-1.9 21.82-1.9 1.22.0 2.9.0 4.28.27"/><path id="kvg:09e9f-s24" kvg:type="㇑" d="M84.57 49.75c.78.78 1.03 1.88 1.03 3.11.0.49-.07 26.79-.09 39.64.0 2.73-.01 4.86-.01 6"/></g></g></g></g></g></svg>