<svg xmlns="http://www.w3.org/2000/svg" width="109" height="109" viewBox="0 0 109 109"><g id="kvg:StrokePaths_09e97"><g id="kvg:09e97" kvg:element="麗"><g id="kvg:09e97-g1" kvg:position="top"><g id="kvg:09e97-g2" kvg:position="left"><g id="kvg:09e97-g3" kvg:element="一"><path id="kvg:09e97-s1" kvg:type="㇐" d="M19.25 14.14c1.48.6 3.33.42 4.88.3 5.39-.44 15.28-1.74 21.5-2.34 1.37-.13 3.51-.16 4.87.17"/></g><path id="kvg:09e97-s2" kvg:type="㇑" d="M24.27 23.67c.72.72.84 1.64.84 2.44.0.54-.04 5.8-.04 9.9.0 1.97.01 3.49.04 3.75"/><path id="kvg:09e97-s3" kvg:type="㇕a" d="M26.09 24.52c1.36-.08 12.33-1.68 16.92-2.29 2.6-.35 3.85-.08 3.81 2.77-.03 2.19.03 6.46-.03 9.51-.03 1.86-.04 3.55-.04 3.74"/><path id="kvg:09e97-s4" kvg:type="㇔" d="M32.13 30.25c2.34 1.03 6.03 4.24 6.62 5.84"/></g><g id="kvg:09e97-g4" kvg:position="right"><g id="kvg:09e97-g5" kvg:element="一"><path id="kvg:09e97-s5" kvg:type="㇐" d="M59 12.64c2.25.36 3.84.16 5.62-.04 5.47-.61 14.98-1.69 20.5-2.11 1.56-.12 3.33-.35 4.88.02"/></g><path id="kvg:09e97-s6" kvg:type="㇑" d="M61.77 21.92c.78.78.84 1.83.84 2.94.0.52-.04 4.81-.04 8.9.0 2.09.01 3.73.04 4"/><path id="kvg:09e97-s7" kvg:type="㇕a" d="M63.09 22.52c1.43-.09 15.06-1.83 19.67-2.37 2.48-.29 3.37.0 3.37 2.6.0 2.57.0 6.48.06 10.13.03 2.02.05 3.52.05 3.58"/><path id="kvg:09e97-s8" kvg:type="㇔" d="M70.76 28.12c2.03.96 5.23 3.97 5.74 5.47"/></g></g><g id="kvg:09e97-g6" kvg:element="鹿" kvg:position="bottom" kvg:radical="general"><g id="kvg:09e97-g7" kvg:element="广"><path id="kvg:09e97-s9" kvg:type="㇑a" d="M55.27 36.13c.92.93 1.05 1.87 1.05 3.31.0.56-.07 2.19-.07 4.69"/><g id="kvg:09e97-g8" kvg:element="厂"><path id="kvg:09e97-s10" kvg:type="㇐" d="M26.45 46.85c2.52.69 5.09.65 7.67.51 12.95-.7 30.53-2.88 43.13-3.8 3.25-.24 6.11-.71 9.38-.18"/><path id="kvg:09e97-s11" kvg:type="㇒" d="M27.95 47.99c.91.91 1.04 2.12.92 3.72-.74 10.04-2.62 31.79-14.06 44.42"/></g></g><path id="kvg:09e97-s12" kvg:type="㇕c" d="M33.94 57.08c1.83.44 3.38.73 5.28.56 13.09-1.22 30.4-3.13 38.95-3.89 2.74-.24 3.12 1.66 2.73 3.26-.9 3.62-1.4 5.99-2.13 8.78"/><path id="kvg:09e97-s13" kvg:type="㇑a" d="M45.51 50.65c.85.85 1.11 1.6 1.2 2.64.05.6.79 9.71 1.07 14.45"/><path id="kvg:09e97-s14" kvg:type="㇑a" d="M63.69 48.46c.8.8.99 2.04.95 2.64-.2 2.6-1.01 9.41-2.01 15.43"/><path id="kvg:09e97-s15" kvg:type="㇐" d="M32.67 69.82c2.34.72 5.13.35 7.49.11 8.68-.89 26.32-2.79 34.59-3.29 2.12-.13 4.29-.25 6.4.14"/><g id="kvg:09e97-g9" kvg:element="比"><path id="kvg:09e97-s16" kvg:type="㇐b" d="M37.67 82.25c5.7-.75 10.04-1.68 14-2.02 1.16-.1 1.9-.1 2.5-.04"/><path id="kvg:09e97-s17" kvg:type="㇙" d="M36.18 76.14c.78.78.77 1.61.77 2.71.0 1.18-.01 11.61-.01 15.65.0 2.55.78 3.29 3.29 2.36 4.27-1.58 8.01-3.23 12.38-4.61"/><g id="kvg:09e97-g10" kvg:element="匕"><path id="kvg:09e97-s18" kvg:type="㇒" d="M83.38 76.48c-.13.77-.66 1.31-1.32 1.67-3.82 2.1-8.44 3.98-15.95 6.54"/><path id="kvg:09e97-s19" kvg:type="㇟" d="M63.03 72.2c.89.89 1.04 1.93 1.04 3.47.0 1.31-.06 11.68-.06 13.21.0 6.88 1.38 8.71 14.29 8.71 12.71.0 14.99-1.83 14.99-6.65"/></g></g></g></g></g></svg>