<svg xmlns="http://www.w3.org/2000/svg" width="109" height="109" viewBox="0 0 109 109"><g id="kvg:StrokePaths_09eba"><g id="kvg:09eba" kvg:element="麺"><g id="kvg:09eba-g1" kvg:element="麦" kvg:variant="true" kvg:original="麥" kvg:position="nyo" kvg:radical="general"><g id="kvg:09eba-g2" kvg:element="龶" kvg:position="top"><path id="kvg:09eba-s1" kvg:type="㇐" d="M14.02 25.82c.68.23 1.93.23 2.62.23 8.86-.05 24.76-2.8 31-3.14 1.14-.06 1.82.11 2.39.22"/><path id="kvg:09eba-s2" kvg:type="㇑a" d="M31.08 13.25c.72.5 1.15 2.25 1.3 3.25.14 1-.14 20-.14 31"/><path id="kvg:09eba-s3" kvg:type="㇐" d="M16.02 36.9c1.5.22 3 .25 4.5.09 6.57-.42 16.99-2.1 22.76-2.69 1.42-.24 2.84-.24 4.25.0"/><path id="kvg:09eba-s4" kvg:type="㇐" d="M11.55 49.82c1.56.26 3.13.33 4.7.21 8.65-.3 22.86-2.5 31.26-3.4 1.46-.3 2.91-.3 4.35.0"/></g><g id="kvg:09eba-g3" kvg:element="夂" kvg:position="bottom"><path id="kvg:09eba-s5" kvg:type="㇒" d="M29.18 52.75c.04.57.09 1.46-.09 2.27-1.04 4.79-6.98 15.29-15.12 21.73"/><path id="kvg:09eba-s6" kvg:type="㇇" d="M29.2 63c1.05.25 2.06.28 2.83.07 2.73-.75 9.61-2.2 11.74-2.93 1.75-.6 2.64.58 1.86 2.97-3 9.2-19.98 29.86-31.71 34.77"/><path id="kvg:09eba-s7" kvg:type="㇏" d="M20.54 69.75C31.33 73.69 67.88 90.27 81.2 94.5c3.97 1.26 7.18 1.88 11.05 2.25"/></g></g><g id="kvg:09eba-g4" kvg:element="面" kvg:position="nyoc"><path id="kvg:09eba-s8" kvg:type="㇐" d="M56.75 22.43c1.75.49 3.51.59 5.28.28 8.48-.8 24.57-2.72 31.31-2.8 1.45-.02 2.32.22 3.04.45"/><path id="kvg:09eba-s9" kvg:type="㇒" d="M74.07 24.73c.02.32.05.83-.05 1.29-.56 2.71-3.79 8.67-8.21 12.32"/><path id="kvg:09eba-s10" kvg:type="㇑" d="M56.75 38.86c.59.81.81 1.42.92 2.48C58.83 52.54 59.5 68 59.52 80.6"/><path id="kvg:09eba-s11" kvg:type="㇕a" d="M57.71 41.01c9.55-1.09 28.03-4.14 34.12-4.38 2.52-.1 3.84 2.21 3.66 4.52-.76 9.57-1.56 27.6-3.37 39.05"/><path id="kvg:09eba-s12" kvg:type="㇑a" d="M69.08 40.76c.39.63.78 1.68.78 2.52s1.02 33.85 1.02 33.85"/><path id="kvg:09eba-s13" kvg:type="㇑a" d="M81.19 38.66c.39 1.05.78 1.68.78 2.52s-.91 32.8-.91 34.9"/><path id="kvg:09eba-s14" kvg:type="㇐a" d="M70.25 51.28c1.3.0 9.64-1.47 10.94-1.47"/><path id="kvg:09eba-s15" kvg:type="㇐a" d="M70.64 63.52c2.21-.42 8.6-1.26 10.42-1.47"/><path id="kvg:09eba-s16" kvg:type="㇐a" d="M60.25 79.24c2.73-.21 27.98-2.02 31.22-2.02"/></g></g></g></svg>