<!DOCTYPE svg PUBLIC "-//W3C//DTD SVG 1.0//EN" "http://www.w3.org/TR/2001/REC-SVG-20010904/DTD/svg10.dtd" [
<!ATTLIST g
xmlns:kvg CDATA #FIXED "http://kanjivg.tagaini.net"
kvg:element CDATA #IMPLIED
kvg:variant CDATA #IMPLIED
kvg:partial CDATA #IMPLIED
kvg:original CDATA #IMPLIED
kvg:part CDATA #IMPLIED
kvg:number CDATA #IMPLIED
kvg:tradForm CDATA #IMPLIED
kvg:radicalForm CDATA #IMPLIED
kvg:position CDATA #IMPLIED
kvg:radical CDATA #IMPLIED
kvg:phon CDATA #IMPLIED >
<!ATTLIST path
xmlns:kvg CDATA #FIXED "http://kanjivg.tagaini.net"
kvg:type CDATA #IMPLIED >
]><svg xmlns="http://www.w3.org/2000/svg" width="109" height="109" viewBox="0 0 109 109"><g id="kvg:StrokePaths_09ebe" style="fill:none;stroke:#000000;stroke-width:3;stroke-linecap:round;stroke-linejoin:round;"><g id="kvg:09ebe" kvg:element="麾"><g id="kvg:09ebe-g1" kvg:element="麻" kvg:variant="true" kvg:position="tare" kvg:radical="general"><g id="kvg:09ebe-g2" kvg:element="广" kvg:position="tare"><path id="kvg:09ebe-s1" kvg:type="㇑a" d="M53.46 9.63c.81.4 2.02 2.52 2.18 3.32.16.81.08 1.87-.08 6.9"/><g id="kvg:09ebe-g3" kvg:element="厂"><path id="kvg:09ebe-s2" kvg:type="㇐" d="M24.28 20.45c1.62.57 4.58.6 6.2.57C45 20.75 66.25 19.5 82.65 18.07c2.69-.23 4.31.27 5.66.55"/><path id="kvg:09ebe-s3" kvg:type="㇒" d="M27.47 21.35c.05 1.56.1 4.03-.09 6.28-1.13 13.24-3.17 45.84-15.32 60.1"/></g></g><g id="kvg:09ebe-g4" kvg:element="林" kvg:variant="true"><g id="kvg:09ebe-g5" kvg:element="木" kvg:variant="true"><path id="kvg:09ebe-s4" kvg:type="㇐" d="M32.33 33.22c.51.21 2.55.68 3.91.5 4.77-.63 11.74-1.17 16.86-1.58 1.36-.11 2.38-.13 3.24.08"/><path id="kvg:09ebe-s5" kvg:type="㇑" d="M44.46 26.68c.57.3.91 1.34 1.03 1.94.11.6.0 23.83-.11 27.57"/><path id="kvg:09ebe-s6" kvg:type="㇒" d="M37.84 41.67C37.85 42 37.87 42.53 37.8 43c-.41 2.81-2.75 8.97-5.96 12.74"/><path id="kvg:09ebe-s7" kvg:type="㇔/㇏" d="M52.12 38.8c.63.25 1.01 1.11 1.13 1.6.13.49.0 7.93-.12 11.01"/></g><g id="kvg:09ebe-g6" kvg:element="木" kvg:variant="true"><path id="kvg:09ebe-s8" kvg:type="㇐" d="M62.71 31.8c.52.21 1.64.33 3.01.21 4.85-.42 8.81-.87 18.28-1.92 1.37-.15 2.57-.21 3.43.0"/><path id="kvg:09ebe-s9" kvg:type="㇑" d="M72.65 24.03c.69.36 1.1 1.62 1.24 2.33.13.72-.14 15.88-.14 22.66"/><path id="kvg:09ebe-s10" kvg:type="㇒" d="M65.3 38.95c.02.31.04.8-.04 1.24-.47 2.61-3.18 8.34-6.89 11.84"/><path id="kvg:09ebe-s11" kvg:type="㇟/㇏" d="M81.33 35.97c.98.29 1.25 1.88 1.27 2.54.07 2.93-.19 4.23-.19 6.22.0 3.54 2.16 4.64 5.28 4.62 4.29-.02 6.21-.97 6.21-3.76"/></g></g></g><g id="kvg:09ebe-g7" kvg:element="毛" kvg:position="tarec"><path id="kvg:09ebe-s12" kvg:type="㇒" d="M71.38 54.5c.1.27.43.78-.2 1.1-5.97 2.93-19.58 7.46-35.24 10.48"/><path id="kvg:09ebe-s13" kvg:type="㇐" d="M30.09 72.86c1.36.32 3.86.42 5.21.32 14.14-1.02 33.49-3.97 45.18-4.72 2.24-.14 3.63.15 4.76.31"/><path id="kvg:09ebe-s14" kvg:type="㇐" d="M26.13 83.55c1.24.19 4.85.29 6.09.19 17.78-1.49 42.75-5 54-5.43 2.06-.08 4.64.09 5.67.18"/><path id="kvg:09ebe-s15" kvg:type="㇟" d="M55.78 63.39c.78.59.91 1.79.95 2.7.21 4.07-.27 20.09-.27 22.59.0 7.07 1.13 9.35 16.67 9.35 16.62.0 18.37-2.03 18.37-8.11"/></g></g></g><g id="kvg:StrokeNumbers_09ebe" style="font-size:8;fill:#808080"><text transform="matrix(1 0 0 1 45.50 10.50)">1</text><text transform="matrix(1 0 0 1 27.50 17.50)">2</text><text transform="matrix(1 0 0 1 19.50 29.50)">3</text><text transform="matrix(1 0 0 1 32.50 30.30)">4</text><text transform="matrix(1 0 0 1 49.50 28.50)">5</text><text transform="matrix(1 0 0 1 29.50 42.90)">6</text><text transform="matrix(1 0 0 1 48.50 44.50)">7</text><text transform="matrix(1 0 0 1 60.50 28.50)">8</text><text transform="matrix(1 0 0 1 77.50 26.78)">9</text><text transform="matrix(1 0 0 1 55.50 40.50)">10</text><text transform="matrix(1 0 0 1 85.75 39.50)">11</text><text transform="matrix(1 0 0 1 60.50 55.50)">12</text><text transform="matrix(1 0 0 1 26.50 68.50)">13</text><text transform="matrix(1 0 0 1 23.50 80.50)">14</text><text transform="matrix(1 0 0 1 59.50 67.50)">15</text></g></svg>