<!DOCTYPE svg PUBLIC "-//W3C//DTD SVG 1.0//EN" "http://www.w3.org/TR/2001/REC-SVG-20010904/DTD/svg10.dtd" [
<!ATTLIST g
xmlns:kvg CDATA #FIXED "http://kanjivg.tagaini.net"
kvg:element CDATA #IMPLIED
kvg:variant CDATA #IMPLIED
kvg:partial CDATA #IMPLIED
kvg:original CDATA #IMPLIED
kvg:part CDATA #IMPLIED
kvg:number CDATA #IMPLIED
kvg:tradForm CDATA #IMPLIED
kvg:radicalForm CDATA #IMPLIED
kvg:position CDATA #IMPLIED
kvg:radical CDATA #IMPLIED
kvg:phon CDATA #IMPLIED >
<!ATTLIST path
xmlns:kvg CDATA #FIXED "http://kanjivg.tagaini.net"
kvg:type CDATA #IMPLIED >
]><svg xmlns="http://www.w3.org/2000/svg" width="109" height="109" viewBox="0 0 109 109"><g id="kvg:StrokePaths_09ebc" style="fill:none;stroke:#000000;stroke-width:3;stroke-linecap:round;stroke-linejoin:round;"><g id="kvg:09ebc" kvg:element="麼"><g id="kvg:09ebc-g1" kvg:element="麻" kvg:variant="true" kvg:position="tare" kvg:radical="tradit"><g id="kvg:09ebc-g2" kvg:element="广" kvg:position="tare" kvg:radical="nelson"><path id="kvg:09ebc-s1" kvg:type="㇑a" d="M52.96 9.63c.81.4 2.02 2.52 2.18 3.32.16.81.08 2.87-.08 7.9"/><g id="kvg:09ebc-g3" kvg:element="厂"><path id="kvg:09ebc-s2" kvg:type="㇐" d="M19.78 23.45c1.62.57 4.58.66 6.2.57 16.83-.95 37.07-4.73 58.17-4.95 2.7-.03 4.31.27 5.66.55"/><path id="kvg:09ebc-s3" kvg:type="㇒" d="M24.97 26.35c.05 1.56.1 4.03-.09 6.28-1.13 13.24-3.67 45.34-15.82 59.6"/></g></g><g id="kvg:09ebc-g4" kvg:element="林" kvg:variant="true"><g id="kvg:09ebc-g5" kvg:element="木" kvg:variant="true"><path id="kvg:09ebc-s4" kvg:type="㇐" d="M29.83 35.72c.51.21 2.05.18 3.41.0 4.77-.63 12.24-2.17 17.36-2.58 1.36-.11 2.38-.13 3.24.08"/><path id="kvg:09ebc-s5" kvg:type="㇑" d="M41.78 27.68c.76.3 1.22 1.34 1.37 1.94s0 23.83-.15 27.57"/><path id="kvg:09ebc-s6" kvg:type="㇒" d="M34.84 41.67c.01.36.03.93-.03 1.45-.34 3.06-2.29 9.77-4.96 13.87"/><path id="kvg:09ebc-s7" kvg:type="㇔" d="M50.12 39.8c.63.25 1.01 1.11 1.13 1.6.13.49.0 7.93-.12 11.01"/></g><g id="kvg:09ebc-g6" kvg:element="木" kvg:variant="true"><path id="kvg:09ebc-s8" kvg:type="㇐" d="M59.21 32.8c.52.21 1.64.33 3.01.21 4.85-.42 12.81-1.87 22.28-2.92 1.37-.15 2.57-.21 3.43.0"/><path id="kvg:09ebc-s9" kvg:type="㇑" d="M69.43 25.03c.91.36 1.46 1.62 1.65 2.33.18.72.0 23.67-.18 28.16"/><path id="kvg:09ebc-s10" kvg:type="㇒" d="M63.31 38.95c.01.35.03.92-.02 1.43-.3 3.01-2.04 9.61-4.41 13.65"/><path id="kvg:09ebc-s11" kvg:type="㇟/㇏" d="M78.33 36.47c.98.29 1.75 1.88 1.77 2.54.07 2.93-.19 6.23-.19 8.22.0 3.54 3.16 4.14 6.28 4.12 4.29-.02 7.21-.47 7.21-3.26"/></g></g></g><g id="kvg:09ebc-g7" kvg:element="幺" kvg:position="tarec"><path id="kvg:09ebc-s12" kvg:type="㇜" d="M51.03 58.62c.35 1.04.59 2.36-.18 3.43-3.36 4.7-8.3 10.04-11.79 12.45-.72.49-.22 2.07.5 2.09 5.94.16 8.69.41 13.85 2.16"/><path id="kvg:09ebc-s13" kvg:type="㇜" d="M70.09 61.67c.48.59.17 2.51-.5 3.16-9.84 9.43-23.09 19.93-35.42 29.49-1.59 1.23-.95 1.97.95 1.58 7.95-1.65 35.79-6.63 46.01-8.21"/><path id="kvg:09ebc-s14" kvg:type="㇔" d="M70.43 77.64c5.8 3.4 15 14 16.45 19.29"/></g></g></g><g id="kvg:StrokeNumbers_09ebc" style="font-size:8;fill:#808080"><text transform="matrix(1 0 0 1 45.50 11.50)">1</text><text transform="matrix(1 0 0 1 20.50 20.50)">2</text><text transform="matrix(1 0 0 1 16.50 32.50)">3</text><text transform="matrix(1 0 0 1 28.50 33.50)">4</text><text transform="matrix(1 0 0 1 46.50 29.50)">5</text><text transform="matrix(1 0 0 1 27.50 46.50)">6</text><text transform="matrix(1 0 0 1 45.75 47.68)">7</text><text transform="matrix(1 0 0 1 56.75 29.50)">8</text><text transform="matrix(1 0 0 1 74.75 27.50)">9</text><text transform="matrix(1 0 0 1 53.75 43.50)">10</text><text transform="matrix(1 0 0 1 81.75 39.50)">11</text><text transform="matrix(1 0 0 1 39.50 65.50)">12</text><text transform="matrix(1 0 0 1 59.50 62.50)">13</text><text transform="matrix(1 0 0 1 71.50 77.50)">14</text></g></svg>