<svg xmlns="http://www.w3.org/2000/svg" width="109" height="109" viewBox="0 0 109 109"><g id="kvg:StrokePaths_09ec4" style="fill:none;stroke:#000000;stroke-width:3;stroke-linecap:round;stroke-linejoin:round;"><g id="kvg:09ec4" kvg:element="黄" kvg:radical="general"><g id="kvg:09ec4-g1" kvg:element="龷" kvg:position="top"><path id="kvg:09ec4-s1" kvg:type="㇐" d="M28.38 27.18c1.64.37 4.65.54 6.28.37 12.34-1.3 29.84-3.43 41.36-4.26 2.72-.2 4.37.18 5.73.36"/><path id="kvg:09ec4-s2" kvg:type="㇑a" d="M39.54 12.38c.85.41 2.46 1.87 2.7 3.84.68 5.49 1.6 15.39 2.5 25.03"/><path id="kvg:09ec4-s3" kvg:type="㇑a" d="M65.06 10.13c.76.45 1.69 2.37 1.51 4.25-.52 5.53-2 14.75-3.25 25"/><path id="kvg:09ec4-s4" kvg:type="㇐" d="M14.88 43.73c2.22.54 6.3.75 8.5.54C41.88 42.5 69 39.38 87 39.04c3.69-.07 5.91.26 7.76.53"/></g><g id="kvg:09ec4-g2" kvg:element="由" kvg:position="middle"><path id="kvg:09ec4-s5" kvg:type="㇑" d="M30.22 53.37c1.2 1.2 1.78 2.25 2.13 3.65.91 3.61 2.1 10.5 3.13 17.76.27 1.91.51 3.83.7 5.71"/><path id="kvg:09ec4-s6" kvg:type="㇕a" d="M32.76 54.61c14.11-1.74 35.96-3.77 42.16-3.87 3.29-.06 5.08 1.51 4.52 4.31-.72 3.62-1.94 9.95-3.99 17.62-.55 2.08-1.08 3.83-1.72 5.57"/><path id="kvg:09ec4-s7" kvg:type="㇑a" d="M52.72 44.59c.91.91 1.5 2.16 1.5 3.91.0 5.86.08 20.74.13 27.25"/><path id="kvg:09ec4-s8" kvg:type="㇐a" d="M35.63 66.57c3.9-.24 37.81-3.69 41.03-3.69"/><path id="kvg:09ec4-s9" kvg:type="㇐a" d="M37.55 78.72c11.07-1.22 22.49-2.4 35.78-3"/></g><g id="kvg:09ec4-g3" kvg:element="八" kvg:position="bottom"><path id="kvg:09ec4-s10" kvg:type="㇒" d="M42.63 84.62c.18 1.03.18 1.8-1.56 3.47-3.09 2.96-8.72 6.42-20.56 10.41"/><path id="kvg:09ec4-s11" kvg:type="㇔" d="M65.25 84.25c6.53 2.56 15.75 9.25 19 14.5"/></g></g></g></svg>