<svg xmlns="http://www.w3.org/2000/svg" width="109" height="109" viewBox="0 0 109 109"><g id="kvg:StrokePaths_09ede"><g id="kvg:09ede" kvg:element="點"><g id="kvg:09ede-g1" kvg:element="黑" kvg:variant="true" kvg:original="黒" kvg:position="left" kvg:radical="general"><g id="kvg:09ede-g2" kvg:element="里" kvg:variant="true" kvg:position="top"><path id="kvg:09ede-s1" kvg:type="㇑" d="M14.5 19.21c.29.42.66 1.63.82 2.16 1.33 4.33 2.58 15.24 3.41 23.33"/><path id="kvg:09ede-s2" kvg:type="㇕" d="M15.62 21.17c9.44-.99 27.35-3.64 34.4-4.47 2.59-.31 3.9 1.21 3.78 2.78-.31 4-1.9 14.23-3.81 21.26"/><path id="kvg:09ede-s3" kvg:type="㇔" d="M22.15 26.44c1.9 1.37 4.9 5.65 5.37 7.78"/><path id="kvg:09ede-s4" kvg:type="㇒" d="M45.75 23.37c.02.22.04.56-.04.87-.44 1.83-2.94 5.84-6.36 8.3"/><path id="kvg:09ede-s5" kvg:type="㇐" d="M18.89 41.8c6.8-.42 21.93-3.11 31.32-3.8"/><path id="kvg:09ede-s6" kvg:type="㇑" d="M32.91 21.05c.52.63.77 1.01.79 1.78.24 8.9.1 38.88.1 42.01"/><path id="kvg:09ede-s7" kvg:type="㇐" d="M15.9 52.33c1 .31 2.84.91 3.84.81C30.5 52 39 50.75 46.95 49.7c1.66-.22 2.67.15 3.51.3"/><path id="kvg:09ede-s8" kvg:type="㇀/㇐" d="M14.01 69.69c.81.75 2.85.97 3.63.75C28.43 67.4 36.93 64.72 48.26 61"/></g><g id="kvg:09ede-g3" kvg:element="灬" kvg:variant="true" kvg:original="火" kvg:position="bottom"><path id="kvg:09ede-s9" kvg:type="㇔" d="M15.63 82.58c-.52 5.55-3.02 12.03-3.7 13.41"/><path id="kvg:09ede-s10" kvg:type="㇔" d="M23.84 78.23c2.66 3.77 4.18 10.52 3.47 14.61"/><path id="kvg:09ede-s11" kvg:type="㇔" d="M34.18 74.88c2.57 3.37 5.17 9.68 5.17 13.61"/><path id="kvg:09ede-s12" kvg:type="㇔" d="M45.36 71.59c2.28 2.03 5.88 8.36 6.45 11.52"/></g></g><g id="kvg:09ede-g4" kvg:element="占" kvg:position="right"><g id="kvg:09ede-g5" kvg:element="卜" kvg:variant="true" kvg:original="ト" kvg:position="top"><path id="kvg:09ede-s13" kvg:type="㇑a" d="M70.81 14.63c.76.45 2.51 1.87 2.51 4.25.0 5.87-.25 30.12-.25 43.25"/><path id="kvg:09ede-s14" kvg:type="㇐b" d="M73.75 36.62c8.64-1.08 18.23-3.23 19.43-3.23s3.36.0 4.32.36"/></g><g id="kvg:09ede-g6" kvg:element="口" kvg:position="bottom"><path id="kvg:09ede-s15" kvg:type="㇑" d="M56.91 64.05c.41.46.82.84 1 1.41C59.32 70 62 88.01 62.96 96.16"/><path id="kvg:09ede-s16" kvg:type="㇕b" d="M58.71 65.69C69.5 64 86.34 61.62 91.46 60.98c1.87-.23 2.99 2.36 2.73 3.75-1.11 5.71-2.49 18.04-4.02 25.28"/><path id="kvg:09ede-s17" kvg:type="㇐b" d="M63.36 92.66c9.14-.91 20.89-2.16 29.68-2.94"/></g></g></g></g></svg>