<svg xmlns="http://www.w3.org/2000/svg" width="109" height="109" viewBox="0 0 109 109"><g id="kvg:StrokePaths_09ed8" style="fill:none;stroke:#000000;stroke-width:3;stroke-linecap:round;stroke-linejoin:round;"><g id="kvg:09ed8" kvg:element="默"><g id="kvg:09ed8-g1" kvg:element="黑" kvg:variant="true" kvg:original="黒" kvg:position="left" kvg:radical="general"><g id="kvg:09ed8-g2" kvg:element="里" kvg:variant="true" kvg:position="top"><path id="kvg:09ed8-s1" kvg:type="㇑" d="M13 20.21c.29.42.66 1.63.82 2.16 1.33 4.33 3.08 14.24 3.91 22.33"/><path id="kvg:09ed8-s2" kvg:type="㇕" d="M14.12 21.17c9.44-.99 27.35-2.64 34.4-3.47 2.59-.31 3.9 1.21 3.78 2.78-.31 4-1.9 13.73-3.81 20.76"/><path id="kvg:09ed8-s3" kvg:type="㇔" d="M20.15 26.94c2.43 1.46 6.27 6.01 6.87 8.28"/><path id="kvg:09ed8-s4" kvg:type="㇒" d="M43.75 24.87c.01.25.03.63-.03.99-.35 2.08-2.37 6.64-5.12 9.43"/><path id="kvg:09ed8-s5" kvg:type="㇐" d="M17.89 42.8c6.8-.42 21.43-2.11 30.82-2.8"/><path id="kvg:09ed8-s6" kvg:type="㇑" d="M31.41 20.55c.52.63.77 1.01.79 1.78.24 8.9.1 39.88.1 43.01"/><path id="kvg:09ed8-s7" kvg:type="㇐" d="M18.15 55.43c.75.3 2.13.33 2.89.3 7.84-.35 18.2-2.66 26.28-2.88 1.26-.04 2.01.14 2.64.3"/><path id="kvg:09ed8-s8" kvg:type="㇀/㇐" d="M16.01 71.51c.79.91 2.76 1.18 3.52.91C30 68.75 38.25 65.5 49.25 61"/></g><g id="kvg:09ed8-g3" kvg:element="灬" kvg:variant="true" kvg:original="火" kvg:position="bottom"><path id="kvg:09ed8-s9" kvg:type="㇔" d="M17.07 82.58c-.4 5.55-2.3 12.03-2.82 13.41"/><path id="kvg:09ed8-s10" kvg:type="㇔" d="M24.84 79.73c2.49 2.47 6.18 9.02 5.47 13.11"/><path id="kvg:09ed8-s11" kvg:type="㇔" d="M35.68 75.88c2.72 2.22 6.67 8.68 6.67 12.61"/><path id="kvg:09ed8-s12" kvg:type="㇔" d="M45.36 71.09c2.45 1.94 6.33 7.99 6.95 11.02"/></g></g><g id="kvg:09ed8-g4" kvg:element="犬" kvg:position="right"><g id="kvg:09ed8-g5" kvg:element="大"><path id="kvg:09ed8-s13" kvg:type="㇐" d="M55.15 42.98c.54.23 2.39.52 3.44.38 5.47-.7 24.42-2.81 31.02-3.29.75-.06 1.82.09 3.51.48"/><path id="kvg:09ed8-s14" kvg:type="㇒" d="M68.49 16.25c.53 1.07.85 2.13.92 4.26.92 27.81-2.89 58.9-18.41 71.24"/><path id="kvg:09ed8-s15" kvg:type="㇏" d="M69.56 45C75 59.25 86 80 94.4 89.28c2.1 2.33 2.69 2.75 3.6 2.97"/></g><g id="kvg:09ed8-g6" kvg:element="丶"><path id="kvg:09ed8-s16" kvg:type="㇔" d="M79.66 19.75c6.25 3.89 7.95 6.85 9.89 10.5"/></g></g></g></g></svg>