<svg xmlns="http://www.w3.org/2000/svg" width="109" height="109" viewBox="0 0 109 109"><g id="kvg:StrokePaths_09ed2"><g id="kvg:09ed2" kvg:element="黒" kvg:original="黑" kvg:radical="general"><g id="kvg:09ed2-g1" kvg:element="里" kvg:position="top"><g id="kvg:09ed2-g2" kvg:element="日"><path id="kvg:09ed2-s1" kvg:type="㇑" d="M29.11 18.41c.8.8 1.14 1.84 1.4 3.33 1.05 6.1 2.44 15.14 3.45 22.03.2 1.34.38 2.59.54 3.73"/><path id="kvg:09ed2-s2" kvg:type="㇕a" d="M31.26 20.14c14.95-1.85 32.51-3.41 46.55-4.69 3.6-.33 4.93 2.06 4.76 3.76-.35 3.51-2.57 13.12-4.73 20.58-.5 1.74-.77 2.63-1.27 4.07"/><path id="kvg:09ed2-s3" kvg:type="㇐a" d="M33.82 32.24c6.81-.74 37.68-3.74 45.65-3.91"/><path id="kvg:09ed2-s4" kvg:type="㇐a" d="M35.47 43.91C47 42.75 63.53 40.8 76.59 40.05"/></g><path id="kvg:09ed2-s5" kvg:type="㇑a" d="M53.29 19.56c.98.93 1.45 1.98 1.49 3.11C55.14 32.86 55.05 57.6 55 67.75"/><path id="kvg:09ed2-s6" kvg:type="㇐" d="M33.88 57.14c1.48.28 4.2.38 5.68.28 9.66-.67 21.01-2.54 32.19-3.22 2.46-.15 3.95.13 5.19.27"/><path id="kvg:09ed2-s7" kvg:type="㇐" d="M20.63 70.47c2.16.4 6.14.56 8.29.4 18.27-1.37 34.62-3 52.13-3.34 3.6-.07 5.77.19 7.57.39"/></g><g id="kvg:09ed2-g3" kvg:element="灬" kvg:variant="true" kvg:original="火" kvg:position="bottom"><path id="kvg:09ed2-s8" kvg:type="㇔" d="M24.75 81.88c-1.27 6.05-7.36 13.11-9 14.62"/><path id="kvg:09ed2-s9" kvg:type="㇔" d="M42 79.5c1.71 2.87 4.25 10.5 3.76 15.25"/><path id="kvg:09ed2-s10" kvg:type="㇔" d="M62.75 78.5c2.65 2.69 6.5 10.5 6.5 15.25"/><path id="kvg:09ed2-s11" kvg:type="㇔" d="M83.71 79.08c4.27 2.63 11.03 10.8 12.1 14.88"/></g></g></g></svg>