<svg xmlns="http://www.w3.org/2000/svg" width="109" height="109" viewBox="0 0 109 109"><g id="kvg:StrokePaths_09edc" style="fill:none;stroke:#000000;stroke-width:3;stroke-linecap:round;stroke-linejoin:round;"><g id="kvg:09edc" kvg:element="黜"><g id="kvg:09edc-g1" kvg:element="黑" kvg:variant="true" kvg:original="黒" kvg:position="left" kvg:radical="general"><g id="kvg:09edc-g2" kvg:element="里" kvg:variant="true" kvg:position="top"><path id="kvg:09edc-s1" kvg:type="㇑" d="M13 20.21c.29.42.66 1.63.82 2.16 1.33 4.33 2.58 13.74 3.41 21.83"/><path id="kvg:09edc-s2" kvg:type="㇕" d="M14.62 21.67c9.44-.99 26.85-2.64 33.9-3.47 2.59-.31 3.9 1.21 3.78 2.78-.31 4-2.4 13.73-4.31 20.76"/><path id="kvg:09edc-s3" kvg:type="㇔" d="M20.15 26.94c1.9 1.55 4.9 6.37 5.37 8.78"/><path id="kvg:09edc-s4" kvg:type="㇒" d="M43.25 24.37c.02.23.03.6-.03.94-.37 1.98-2.48 6.32-5.37 8.98"/><path id="kvg:09edc-s5" kvg:type="㇐" d="M17.39 42.3c6.8-.42 21.43-2.11 30.82-2.8"/><path id="kvg:09edc-s6" kvg:type="㇑" d="M31.41 21.05c.52.63.77 1.01.79 1.78.24 8.9.1 42.88.1 46.01"/><path id="kvg:09edc-s7" kvg:type="㇐" d="M16.15 55.77c1.35.73 2.83.79 3.48.76 6.73-.3 14.37-1.28 25.57-2.98 1.07-.16 1.73.12 2.26.25"/><path id="kvg:09edc-s8" kvg:type="㇀/㇐" d="M13.51 73.12c.81.82 2.85 1.05 3.63.82 10.79-3.28 19.29-6.17 30.62-10.19"/></g><g id="kvg:09edc-g3" kvg:element="灬" kvg:variant="true" kvg:original="火" kvg:position="bottom"><path id="kvg:09edc-s9" kvg:type="㇔" d="M15.57 83.08c-.4 5.55-2.3 12.03-2.82 13.41"/><path id="kvg:09edc-s10" kvg:type="㇔" d="M24.84 79.73c2.16 4.02 2.66 7.77 2.97 11.11"/><path id="kvg:09edc-s11" kvg:type="㇔" d="M35.68 77.13c1.5 1.83 3.67 7.13 3.67 10.36"/><path id="kvg:09edc-s12" kvg:type="㇔" d="M45.11 73.34c1.83 1.46 4.74 6 5.2 8.27"/></g></g><g id="kvg:09edc-g4" kvg:element="出" kvg:position="right"><g id="kvg:09edc-g5" kvg:element="山"><path id="kvg:09edc-s13" kvg:type="㇑a" d="M73.96 14.38c.53.43 1.76 2.37 1.76 4.05.0.86.23 65.76.12 71.09"/><path id="kvg:09edc-s14" kvg:type="㇄a" d="M59.32 33.3c.46.3.99 2.53.92 3.13-.3 2.68-.89 11.78-2.13 17.24-.3 1.34.34 1.87 1.41 1.51 8.72-2.93 25.25-5.6 33.88-5.44"/><path id="kvg:09edc-s15" kvg:type="㇑" d="M93.6 29.08c.53.43 1.2 3.77 1.16 4.64-.26 5.78-.26 8.53-1.02 19.61"/></g><g id="kvg:09edc-g6" kvg:element="凵"><path id="kvg:09edc-s16" kvg:type="㇄a" d="M57.2 66.62c.46.3.99 2.53.92 3.13-.3 2.68-.89 16.24-2.12 21.69-.3 1.34-.17 2.31.91 2.02 11.85-3.21 28.55-5.6 37.18-5.44"/><path id="kvg:09edc-s17" kvg:type="㇑" d="M94.05 64.36c.53.43 1.38 3.77 1.36 4.64C95.25 77.5 95 85 94.38 93.41"/></g></g></g></g></svg>