<svg xmlns="http://www.w3.org/2000/svg" width="109" height="109" viewBox="0 0 109 109"><g id="kvg:StrokePaths_09ef7" style="fill:none;stroke:#000000;stroke-width:3;stroke-linecap:round;stroke-linejoin:round;"><g id="kvg:09ef7" kvg:element="黷"><g id="kvg:09ef7-g1" kvg:element="黑" kvg:variant="true" kvg:original="黒" kvg:position="left" kvg:radical="general"><g id="kvg:09ef7-g2" kvg:element="里" kvg:variant="true" kvg:position="top"><path id="kvg:09ef7-s1" kvg:type="㇑" d="M12 17.85c.25.39.55 1.51.69 2 1.11 4.01 2.5 13.65 3.19 21.14"/><path id="kvg:09ef7-s2" kvg:type="㇕" d="M13.35 19.2c7.9-.92 22.88-2.44 28.78-3.21 2.17-.28 3.27 1.12 3.17 2.58-.26 3.7-1.59 12.72-3.19 19.23"/><path id="kvg:09ef7-s3" kvg:type="㇔" d="M19.15 26.24c1.54 1.2 3.99 4.92 4.37 6.78"/><path id="kvg:09ef7-s4" kvg:type="㇒" d="M37.26 23.16c.01.21.02.54-.02.84-.27 1.78-2.29 5.68-4.38 8.07"/><path id="kvg:09ef7-s5" kvg:type="㇐" d="M16.51 39.73c5.69-.39 17.93-2.46 25.79-3.09"/><path id="kvg:09ef7-s6" kvg:type="㇑" d="M27.41 17.84c.52.63.77 1.01.79 1.78.24 8.9.1 39.88.1 43.01"/><path id="kvg:09ef7-s7" kvg:type="㇐" d="M15.15 51.06c.78.26 2.2.29 2.98.26 8.09-.3 14.57-1.53 21.11-1.98 1.29-.09 2.07.12 2.72.25"/><path id="kvg:09ef7-s8" kvg:type="㇀/㇐" d="M14.01 66.3c.79.91 2.75 1.14 3.52.91 9.97-2.93 13.22-3.93 25.72-7.93"/></g><g id="kvg:09ef7-g3" kvg:element="灬" kvg:variant="true" kvg:original="火" kvg:position="bottom"><path id="kvg:09ef7-s9" kvg:type="㇔" d="M14.07 79.87c-.4 5.55-2.3 12.03-2.82 13.41"/><path id="kvg:09ef7-s10" kvg:type="㇔" d="M20.34 77.52c2.49 2.47 5.68 9.02 4.97 13.11"/><path id="kvg:09ef7-s11" kvg:type="㇔" d="M30.18 77.17c2.72 2.22 6.67 8.68 6.67 12.61"/><path id="kvg:09ef7-s12" kvg:type="㇔" d="M40.86 74.38c2.45 2.3 6.33 9.44 6.95 13.02"/></g></g><g id="kvg:09ef7-g4" kvg:element="𧶠" kvg:position="right"><g id="kvg:09ef7-g5" kvg:position="top"><g id="kvg:09ef7-g6" kvg:element="士"><path id="kvg:09ef7-s13" kvg:type="㇐" d="M54.06 21.01c.99.39 2.82.46 3.81.39 10.35-.66 15.54-1.83 27.69-2.67 1.65-.12 2.65.19 3.48.39"/><path id="kvg:09ef7-s14" kvg:type="㇑a" d="M69.34 10.79c.74.33 1.18 1.48 1.33 2.13.15.66.0 12.16-.15 16.26"/><path id="kvg:09ef7-s15" kvg:type="㇐" d="M56.16 29.83c.71.24 2.02.27 2.73.24 9.43-.29 13.92-1.73 23.88-1.7 1.19.0 1.9.12 2.5.24"/></g><g id="kvg:09ef7-g7" kvg:element="四" kvg:variant="true" kvg:original="网"><path id="kvg:09ef7-s16" kvg:type="㇑" d="M49.06 38.03c.22.26.45.48.55.8.77 2.57 2.63 9.67 3.16 14.29"/><path id="kvg:09ef7-s17" kvg:type="㇕a" d="M50.44 39.27c4.9-1.01 41.48-4.22 44.09-4.55.95-.12 2.24.87 1.99 2.32-.53 3.02-1.97 8.67-3.39 12.97"/><path id="kvg:09ef7-s18" kvg:type="㇑a" d="M65.36 39.25c.04.21.05.53-.09.84-1.17 2.68-2.68 4.73-7.7 7.32"/><path id="kvg:09ef7-s19" kvg:type="㇑a" d="M76.07 37.43c.53.35.98.75.98 1.29.0.72-.16 2.07-.16 2.58.0 1.4 1.8 1.98 5.25 1.98 3.12.0 5.41.0 6.73-.45"/><path id="kvg:09ef7-s20" kvg:type="㇐a" d="M53.46 51.22c3.06-.38 35.82-2.82 40.02-3.41"/></g></g><g id="kvg:09ef7-g8" kvg:element="貝" kvg:position="bottom"><g id="kvg:09ef7-g9" kvg:element="目" kvg:position="top"><path id="kvg:09ef7-s21" kvg:type="㇑" d="M55.79 57.36c.5 1.09 1.22 1.9 1.22 3.35s.23 22.63-.36 28.72"/><path id="kvg:09ef7-s22" kvg:type="㇕a" d="M57.85 59.53c2.82-.18 25.8-2.43 28.38-2.64 2.14-.18 3.28.97 3.28 2.28.0 3.21-.63 26.56-.63 27.61"/><path id="kvg:09ef7-s23" kvg:type="㇐a" d="M57.07 68.53c5.27-.4 27.21-1.87 31.73-1.87"/><path id="kvg:09ef7-s24" kvg:type="㇐a" d="M57.3 77.97c7.95-.77 23.1-1.86 31.54-2.01"/><path id="kvg:09ef7-s25" kvg:type="㇐a" d="M56.94 87.09c7.96-.58 24.65-1.62 31.9-1.62"/></g><g id="kvg:09ef7-g10" kvg:element="八" kvg:position="bottom"><path id="kvg:09ef7-s26" kvg:type="㇒" d="M64.29 90.56c.46.94-.34 1.86-1.25 2.55-2.72 2.07-9.88 6.49-15.33 8.93"/><path id="kvg:09ef7-s27" kvg:type="㇔" d="M80.44 91.15c6.55 2.22 13.18 7.01 14.83 9.19"/></g></g></g></g></g></svg>