<svg xmlns="http://www.w3.org/2000/svg" width="109" height="109" viewBox="0 0 109 109"><g id="kvg:StrokePaths_09f0e"><g id="kvg:09f0e" kvg:element="鼎" kvg:radical="general"><g id="kvg:09f0e-g1" kvg:element="目" kvg:position="⿶2"><path id="kvg:09f0e-s1" kvg:type="㇑" d="M41.2 13.02c.38.69.94 1.2.94 2.12s-.26 27.26-.26 27.72"/><path id="kvg:09f0e-s2" kvg:type="㇕a" d="M42.02 13.91c2.17-.11 19.5-1.79 21.48-1.92 1.65-.11 2.95.64 2.81 1.49-.18 1.08-.39 16.4-.39 26.5.0 1.04.0 3.55-1.01 2.44"/><path id="kvg:09f0e-s3" kvg:type="㇐a" d="M42.74 22.59c4.29-.16 19.44-1.46 22.92-1.46"/><path id="kvg:09f0e-s4" kvg:type="㇐a" d="M42.92 31.84c5.76-.39 16.9-1.38 22.49-1.38"/><path id="kvg:09f0e-s5" kvg:type="㇐a" d="M42.34 41.8c4.95-.2 15.99-1.03 21.58-1.03"/></g><g id="kvg:09f0e-g2" kvg:position="⿶1"><path id="kvg:09f0e-s6" kvg:type="㇞" d="M23.37 25.75c1.09.5 1.74 2.25 1.96 3.25.22 1 .13 17.26-.22 23.5C25 54.5 25.5 55 27 54.75s16.25-1.75 17.75-2 3 1 3 2.75.0 41.25.0 43.25"/><path id="kvg:09f0e-s7" kvg:type="㇐" d="M15.25 66.89c.94.38 2.66.45 3.6.38 5.37-.38 20.9-2.02 28.61-1.88"/><path id="kvg:09f0e-s8" kvg:type="㇒" d="M29.52 69.14c.04.58.02 1.49-.07 2.33-.7 6.28-3.7 15.53-12.64 22.25"/><path id="kvg:09f0e-s9" kvg:type="㇑" d="M83.87 21c1.09.5 1.74 2.25 1.96 3.25s0 19.75-.22 26"/><path id="kvg:09f0e-s10" kvg:type="㇐" d="M61.85 52.77c5.98-.66 16.9-1.88 22.11-1.88 1.57.0 2.54.11 4.29.37"/><path id="kvg:09f0e-s11" kvg:type="㇑" d="M59.87 51.5c1.09.5 1.74 2.25 1.96 3.25s0 36.75-.22 43"/><path id="kvg:09f0e-s12" kvg:type="㇐" d="M62.35 64.77c6.9-.27 24.4-2.02 31.11-2.38 1.56-.08 2.5.18 3.29.37"/><path id="kvg:09f0e-s13" kvg:type="㇑" d="M81.12 65.5c1.09.5 1.74 2.25 1.96 3.25s0 23.25-.22 29.5"/></g></g></g></svg>