<svg xmlns="http://www.w3.org/2000/svg" width="109" height="109" viewBox="0 0 109 109"><g id="kvg:StrokePaths_09f15"><g id="kvg:09f15" kvg:element="鼕"><g id="kvg:09f15-g1" kvg:element="鼓" kvg:position="top" kvg:radical="general"><g id="kvg:09f15-g2" kvg:element="壴" kvg:position="left"><g id="kvg:09f15-g3" kvg:element="吉" kvg:part="1"><g id="kvg:09f15-g4" kvg:element="士"><path id="kvg:09f15-s1" kvg:type="㇐" d="M15.37 19.04c.88.2 3.5.17 4.38.12C27 18.75 39 17.25 46.3 16.54c1.46-.14 2.35.03 3.08.12"/><path id="kvg:09f15-s2" kvg:type="㇑" d="M31.05 8.76c1.25.32 2.24 1.52 2.24 2.24.0 2.46.19 6.72.19 14.07"/><g id="kvg:09f15-g5" kvg:element="豆" kvg:part="1"><path id="kvg:09f15-s3" kvg:type="㇐" d="M21.09 26.3c1.16.2 2.68.64 3.27.56 4.63-.61 11.88-1.61 20.17-2.35.99-.09 1.58.01 2.08.07"/></g></g><g id="kvg:09f15-g6" kvg:element="豆" kvg:part="2"><g id="kvg:09f15-g7" kvg:element="吉" kvg:part="2"><g id="kvg:09f15-g8" kvg:element="口"><path id="kvg:09f15-s4" kvg:type="㇑" d="M20.99 32.88c.25.17.5.31.61.53.86 1.69 1.88 6.35 2.46 9.38"/><path id="kvg:09f15-s5" kvg:type="㇕b" d="M22.53 34.28c6.04-.71 17.44-3.46 20.55-3.7 1.14-.09 1.82.88 1.66 1.39-.68 2.13-1.13 4.14-2.58 7.21"/><path id="kvg:09f15-s6" kvg:type="㇐b" d="M24.31 41.67c3.66-.27 15.55-1.95 20.2-2.22"/></g></g></g></g><g id="kvg:09f15-g9" kvg:element="豆" kvg:part="3"><path id="kvg:09f15-s7" kvg:type="㇔" d="M22.77 46.72c1.43 1.09 3.69 4.48 4.04 6.18"/><path id="kvg:09f15-s8" kvg:type="㇒" d="M41.29 43.79c.01.19.02.48-.02.75-.2 1.59-1.37 5.08-2.97 7.22"/><path id="kvg:09f15-s9" kvg:type="㇐" d="M16.25 55.97c.73 1.37 2.47 1.85 4.93 1.16 12.56-3.5 17.9-5.65 29.07-8.77"/></g></g><g id="kvg:09f15-g10" kvg:element="支" kvg:position="right"><g id="kvg:09f15-g11" kvg:element="十"><path id="kvg:09f15-s10" kvg:type="㇐" d="M56.1 21.42c.68.2 2.94.26 3.63.2 9.93-.86 22.64-3.34 29.28-3.78 1.14-.08 1.83.09 2.4.19"/><path id="kvg:09f15-s11" kvg:type="㇑a" d="M70.22 10.35c.63.27 2.09 1.41 2.09 1.96.0 3.44-.08 19.3-.21 22.67"/></g><g id="kvg:09f15-g12" kvg:element="又"><path id="kvg:09f15-s12" kvg:type="㇇" d="M60.89 32.03c.96.21 1.84.45 3.78.21 2.66-.33 16.57-3.41 17.88-3.73 1.31-.31 1.95.74 1.25 1.81C76.91 40.72 67.24 48.43 55 52.1"/><path id="kvg:09f15-s13" kvg:type="㇏" d="M62.13 38.02c4.53.51 15.02 10.67 23.91 14.89 1.38.66 2.39 1.09 3.68 1.31"/></g></g></g><g id="kvg:09f15-g13" kvg:element="冬" kvg:position="bottom"><g id="kvg:09f15-g14" kvg:element="夂" kvg:position="top"><path id="kvg:09f15-s14" kvg:type="㇒" d="M47.16 53c.06.41.12 1.06-.12 1.65-1.44 3.47-9.71 11.59-21.02 16.25"/><path id="kvg:09f15-s15" kvg:type="㇇" d="M45.31 60.21c.72-.05 1.75.38 2.98.28 4.82-.37 12.69-3.41 16.7-4.13 2.02-.36 2.96 1.57 2.07 2.93-4.86 7.45-23.3 23.21-47.05 27"/><path id="kvg:09f15-s16" kvg:type="㇏" d="M40.89 62.5c6.26 3.24 34.66 15.57 43.1 18.53 2.52.88 4.56 1.31 7.01 1.58"/></g><g id="kvg:09f15-g15" kvg:element="冫" kvg:original="氷" kvg:position="bottom"><g id="kvg:09f15-g16" kvg:position="top"><path id="kvg:09f15-s17" kvg:type="㇔" d="M50.55 79.85c3.99 1.09 10.31 4.48 11.31 6.18"/></g><g id="kvg:09f15-g17" kvg:position="bottom"><path id="kvg:09f15-s18" kvg:type="㇀" d="M41.25 97.65c.8.6 2.39.92 4.78.13 6.64-2.19 18.58-6.09 25.22-8.28"/></g></g></g></g></g></svg>