<svg xmlns="http://www.w3.org/2000/svg" width="109" height="109" viewBox="0 0 109 109"><g id="kvg:StrokePaths_09f3e"><g id="kvg:09f3e" kvg:element="鼾"><g id="kvg:09f3e-g1" kvg:element="鼻" kvg:variant="true" kvg:position="left" kvg:radical="general"><g id="kvg:09f3e-g2" kvg:element="自" kvg:position="top"><path id="kvg:09f3e-s1" kvg:type="㇒" d="M32.24 10.81c.23.07.63 1.96.52 2.17-1.25 2.27-2.5 4.27-5.13 7.64"/><g id="kvg:09f3e-g3" kvg:element="目"><path id="kvg:09f3e-s2" kvg:type="㇑" d="M18.25 21.99c.39.47.94 1.82.95 2.44.05 2.31 2.18 18.55 2.31 19.18"/><path id="kvg:09f3e-s3" kvg:type="㇕a" d="M19.35 22.69c2.19-.08 22.58-1.89 24.58-1.98 1.66-.08 2.83 1.06 2.84 2.63.0.75-.6 10.46-1.45 18.94"/><path id="kvg:09f3e-s4" kvg:type="㇐a" d="M20.12 29.23c4.32-.11 21.06-2.4 24.57-2.4"/><path id="kvg:09f3e-s5" kvg:type="㇐a" d="M20.8 35.53c5.81-.26 18-2.34 23.64-2.34"/><path id="kvg:09f3e-s6" kvg:type="㇐a" d="M21.51 41.9c4.36.0 16.81-1.7 22.45-1.7"/></g></g><g id="kvg:09f3e-g4" kvg:position="bottom"><g id="kvg:09f3e-g5" kvg:element="田"><path id="kvg:09f3e-s7" kvg:type="㇑" d="M15.67 49.33c.27.26.77.94.92 1.27 1.2 2.7 1.79 10.52 2.51 15.55"/><path id="kvg:09f3e-s8" kvg:type="㇕a" d="M17.43 50.2c9.49-.67 25.35-2.3 32.43-2.86 2.6-.21 3.64 1.22 3.24 3.81-.42 2.74-1.6 7.84-2.61 12.15"/><path id="kvg:09f3e-s9" kvg:type="㇑a" d="M34.55 49.39c-.13 1.6-.24 12.25-.23 13.58"/><path id="kvg:09f3e-s10" kvg:type="㇐a" d="M19.14 56.68c3.09-.26 29.83-2.18 32.39-2.28"/><path id="kvg:09f3e-s11" kvg:type="㇐a" d="M19.09 64.42c6.83-.28 22.05-1.53 31.48-1.99"/></g><g id="kvg:09f3e-g6" kvg:element="廾" kvg:variant="true"><path id="kvg:09f3e-s12" kvg:type="㇐" d="M10.88 73.58c.89.42 2.52.49 3.4.42 9.24-.71 27.51-2.84 39.24-3.21 1.48-.05 2.37.2 3.11.42"/><g id="kvg:09f3e-g7" kvg:element="丿"><path id="kvg:09f3e-s13" kvg:type="㇒" d="M26.17 76c.84.78.96 2.01.8 2.79C25.61 85.63 24 94 14 98.5"/></g><path id="kvg:09f3e-s14" kvg:type="㇑" d="M40.63 73.41c.82.38 1.31 1.69 1.47 2.44s0 18.47-.16 23.16"/></g></g></g><g id="kvg:09f3e-g8" kvg:element="干" kvg:position="right"><path id="kvg:09f3e-s15" kvg:type="㇐" d="M58.05 20.92c.65.21 3.9.72 4.56.69 4.48-.24 19.17-2.29 26.97-2.71 1.08-.06 3.37.18 3.91.28"/><g id="kvg:09f3e-g9" kvg:element="十"><path id="kvg:09f3e-s16" kvg:type="㇐" d="M58 51.28c1.37.46 3.88.59 5.25.46C76.12 50.5 84 49.75 93.21 49.33c2.28-.1 3.65.22 4.79.45"/><path id="kvg:09f3e-s17" kvg:type="㇑" d="M73.68 23.63c.54.51 2.29 2.12 2.29 4.83.0 5.29-.07 62.56-.18 68.92"/></g></g></g></g></svg>