<svg xmlns="http://www.w3.org/2000/svg" width="109" height="109" viewBox="0 0 109 109"><g id="kvg:StrokePaths_09f3b" style="fill:none;stroke:#000000;stroke-width:3;stroke-linecap:round;stroke-linejoin:round;"><g id="kvg:09f3b" kvg:element="鼻" kvg:radical="general"><g id="kvg:09f3b-g1" kvg:element="自" kvg:position="top"><path id="kvg:09f3b-s1" kvg:type="㇒" d="M53.48 8.67c.2.96-.13 1.62-.5 2.46-.98 2.24-1.73 3.24-3.89 5.82"/><g id="kvg:09f3b-g2" kvg:element="目"><path id="kvg:09f3b-s2" kvg:type="㇑" d="M39.25 18.65c.8.8 1 1.6 1.09 2.78.06.77 1.2 20.72 1.2 21.1.0.39.15 1.7.3 2.47"/><path id="kvg:09f3b-s3" kvg:type="㇕a" d="M41.08 20.14c2.51-.1 24.14-2.33 26.43-2.45 1.91-.1 3.24 1.31 3.25 3.25.0.83-1 9.52-1.9 18.8-.11 1.15-.22 2.31-.33 3.47"/><path id="kvg:09f3b-s4" kvg:type="㇐a" d="M42.29 27.35c5.96-.48 22.21-1.48 26.61-1.73"/><path id="kvg:09f3b-s5" kvg:type="㇐a" d="M42.24 35.13c6.65-.32 19.65-1.66 26.1-1.66"/><path id="kvg:09f3b-s6" kvg:type="㇐a" d="M42.73 43.01c6.52-.26 18.36-1.36 24.82-1.36"/></g></g><g id="kvg:09f3b-g3" kvg:element="畀" kvg:position="bottom" kvg:phon="畀"><g id="kvg:09f3b-g4" kvg:element="田"><path id="kvg:09f3b-s7" kvg:type="㇑" d="M31.74 50.9c.68.68 1.13 1.47 1.28 2.14.8 3.7 1.5 8.38 2.49 13.83.16.91.34 1.83.52 2.78"/><path id="kvg:09f3b-s8" kvg:type="㇕a" d="M33.83 52.08c13.42-1.2 32-2.59 40.87-3.24 3.26-.24 4.55 1.41 4.05 4.41-.45 2.7-1.95 7.33-3.17 11.74-.21.76-.42 1.52-.6 2.26"/><path id="kvg:09f3b-s9" kvg:type="㇑a" d="M53.4 51.64c.48.49.75 1.01.75 1.74-.01 4.19-.04 11.68-.04 13"/><path id="kvg:09f3b-s10" kvg:type="㇐a" d="M35.72 59.66c3.87-.3 37.37-2.52 40.57-2.64"/><path id="kvg:09f3b-s11" kvg:type="㇐a" d="M36.9 68.55c9.85-.8 25.37-1.77 37.17-2.31"/></g><g id="kvg:09f3b-g5" kvg:element="廾"><g id="kvg:09f3b-g6" kvg:element="十" kvg:part="1"><path id="kvg:09f3b-s12" kvg:type="㇐" d="M15.63 81.24c2.33.64 6.62.86 8.95.64 18.92-1.79 44.25-3.51 61.26-4.21 3.88-.16 6.22.01 8.17.33"/></g><g id="kvg:09f3b-g7" kvg:element="丿"><path id="kvg:09f3b-s13" kvg:type="㇒" d="M44.5 71.25c.75 1 .72 1.91.72 2.92C45.22 85.5 42.5 94.75 31 1e2"/></g><g id="kvg:09f3b-g8" kvg:element="十" kvg:part="2"><path id="kvg:09f3b-s14" kvg:type="㇑" d="M65.38 69.66c.86.86 1.22 1.92 1.22 2.69.0 2.5-.11 15.52-.15 23.16-.01 1.63-.01 3.01-.01 4"/></g></g></g></g></g></svg>