<svg xmlns="http://www.w3.org/2000/svg" width="109" height="109" viewBox="0 0 109 109"><g id="kvg:StrokePaths_09f4e"><g id="kvg:09f4e" kvg:element="齎"><g id="kvg:09f4e-g1" kvg:element="齊" kvg:part="1" kvg:position="⿵A" kvg:radical="general"><g id="kvg:09f4e-g2" kvg:element="亠" kvg:position="top"><path id="kvg:09f4e-s1" kvg:type="㇑a" d="M51.93 9.75c.7.38 1.86 1.85 1.86 2.6.0 2.78-.22 4.05-.09 6.41"/><path id="kvg:09f4e-s2" kvg:type="㇐" d="M18.83 20.69c2.13.34 4.01.71 6.45.48 12.22-1.17 42-3.69 58.99-4.38 2.5-.1 3.78.04 5.64.61"/></g><g id="kvg:09f4e-g3" kvg:position="bottom"><path id="kvg:09f4e-s3" kvg:type="㇔" d="M44.52 23.08c1.69 1.08 4.37 4.45 4.79 6.13"/><path id="kvg:09f4e-s4" kvg:type="㇒" d="M61.78 21.14c.02.2.04.51-.04.79-.48 1.66-3.2 5.31-6.94 7.54"/><path id="kvg:09f4e-s5" kvg:type="㇑" d="M53.31 30.33c.42.4.72.86.76 2.17.17 6.28-.01 11.61-.01 13.75"/><g id="kvg:09f4e-g4" kvg:element="刀"><path id="kvg:09f4e-s6" kvg:type="㇆" d="M21.6 30.84c.49.21 1.55.19 1.98.11 3.52-.59 15.51-2.16 17.47-2.37 1.27-.14 1.68.64 1.55 1.62-.73 5.46-2.25 10.89-4.48 15.04-1.17 2.18-2.53 1.48-3.38-.21"/><path id="kvg:09f4e-s7" kvg:type="㇒" d="M30.97 32.02c.04.35.09.91-.07 1.42-1.17 3.74-6.15 9.02-12.5 13.57"/></g><path id="kvg:09f4e-s8" kvg:type="㇒" d="M79.97 22.39c.03.18.06.48-.06.74-.69 1.56-5.25 5.37-10.63 7.46"/><path id="kvg:09f4e-s9" kvg:type="㇙" d="M67.75 29.27c.41.61.71 1.43.71 2.34.0.92-.1 9.82-.1 11.25s.1 1.83 1.42.81c1.32-1.02 8.29-5.56 9.1-6.17"/><path id="kvg:09f4e-s10" kvg:type="㇏" d="M76.12 26.86c3.63 4.89 6.38 8.14 12.31 14.29 1.2 1.24 3.27 1.73 5.06 2.35"/><path id="kvg:09f4e-s11" kvg:type="㇒" d="M30.82 51.32c1.05.62 1.43 2.2 1.43 2.88.0 3.65-.2 15.37-.32 16.77-.69 8.03-3.35 18.94-13.72 25.75"/><g id="kvg:09f4e-g5" kvg:element="二"><path id="kvg:09f4e-s12" kvg:type="㇐" d="M41.8 51.32c.58-.07 1.59.31 2.94.23 4.77-.3 11.77-1.05 15.52-1.2 2.54-.1 4.34-.3 5-.35"/><path id="kvg:09f4e-s13" kvg:type="㇐" d="M38.79 58.13c1.71.12 1.97.26 3.96.11 10-.75 14.41-1.52 22.77-1.97 2.13-.12 3.77-.2 4.7-.23"/></g></g></g><g id="kvg:09f4e-g6" kvg:element="貝" kvg:position="⿵B"><g id="kvg:09f4e-g7" kvg:element="目" kvg:position="top"><path id="kvg:09f4e-s14" kvg:type="㇑" d="M43.1 64.87c.35.52.86.9.86 1.6.0.71.16 18.9-.26 21.88"/><path id="kvg:09f4e-s15" kvg:type="㇕a" d="M44.54 65.43c1.98-.15 17.1-2.31 18.89-2.63 1.2-.22 2.12.65 2.31 1.77.26 1.59-.44 22-.44 22.53"/><path id="kvg:09f4e-s16" kvg:type="㇐a" d="M44 72.58c3.71-.32 18.07-2.02 21.25-2.12"/><path id="kvg:09f4e-s17" kvg:type="㇐a" d="M44.16 79.63c5.59-.57 15.18-1.67 21.11-1.94"/><path id="kvg:09f4e-s18" kvg:type="㇐a" d="M43.91 86.95c5.59-.47 16.27-1.59 21.37-1.75"/></g><g id="kvg:09f4e-g8" kvg:element="八" kvg:position="bottom"><path id="kvg:09f4e-s19" kvg:type="㇒" d="M47.95 91.13c.34.75-.26 1.48-.94 2.02-2.04 1.65-7.41 5.16-11.5 7.1"/><path id="kvg:09f4e-s20" kvg:type="㇔" d="M59.57 90.77c4.04 2.31 8.81 6.49 9.91 8.51"/></g></g><g id="kvg:09f4e-g9" kvg:element="齊" kvg:part="2" kvg:position="⿵A" kvg:radical="general"><path id="kvg:09f4e-s21" kvg:type="㇑" d="M78.22 47.51c.69.56 1.83 2.71 1.83 3.83.0 4.4-.02 44.65-.09 47.8"/></g></g></g></svg>