<svg xmlns="http://www.w3.org/2000/svg" width="109" height="109" viewBox="0 0 109 109"><g id="kvg:StrokePaths_09f60" style="fill:none;stroke:#000000;stroke-width:3;stroke-linecap:round;stroke-linejoin:round;"><g id="kvg:09f60" kvg:element="齠"><g id="kvg:09f60-g1" kvg:element="齒" kvg:position="left" kvg:radical="general"><g id="kvg:09f60-g2" kvg:element="止" kvg:position="top"><g id="kvg:09f60-g3" kvg:element="卜" kvg:original="ト"><path id="kvg:09f60-s1" kvg:type="㇑a" d="M31.59 11.5c.65.51 1.17 2.25 1.17 3.29.0 5.31.17 11.92.17 16.98"/><path id="kvg:09f60-s2" kvg:type="㇐b/㇔" d="M33.14 23.78c4.91-1 8.58-1.84 13.74-2.51 1.2-.15 1.5-.33 2.25.0"/></g><path id="kvg:09f60-s3" kvg:type="㇑a" d="M20.49 19.08c.65.51 1.04 2.28 1.17 3.29.13 1.01.0 4.34-.13 10.67"/><path id="kvg:09f60-s4" kvg:type="㇐" d="M9.25 33.54c.49.25 1.8.85 3.1.76 7.03-.51 29.43-3.55 36.08-3.55 1.31.0 3.57.01 4.32.26"/></g><g id="kvg:09f60-g4" kvg:position="bottom"><g id="kvg:09f60-g5" kvg:element="从"><g id="kvg:09f60-g6" kvg:element="人"><path id="kvg:09f60-s5" kvg:type="㇒" d="M26.97 39.06c.11.18-.05 1.88-.14 2.28-.9 4.43-3.22 11.68-6.53 15.84"/><path id="kvg:09f60-s6" kvg:type="㇔" d="M26.27 46.66c1.86.95 4.23 3.49 5.13 5.89"/></g><g id="kvg:09f60-g7" kvg:element="人"><path id="kvg:09f60-s7" kvg:type="㇒" d="M40.09 39.56c.13.19-.07 1.98-.17 2.4-1.12 4.67-4.01 12.31-8.14 16.7"/><path id="kvg:09f60-s8" kvg:type="㇔" d="M38.9 48.4c2.04 1.24 4.64 4.52 5.63 7.64"/></g></g><path id="kvg:09f60-s9" kvg:type="㇐" d="M15.41 64.13c2.1.0 31.57-2.79 33.53-2.79"/><g id="kvg:09f60-g8" kvg:element="从"><g id="kvg:09f60-g9" kvg:element="人"><path id="kvg:09f60-s10" kvg:type="㇒" d="M27.47 68.92c.11.17-.06 1.77-.14 2.16-.93 4.18-3.34 11.03-6.77 14.97"/><path id="kvg:09f60-s11" kvg:type="㇔" d="M27.52 76.76c1.37.87 3.11 3.18 3.78 5.37"/></g><g id="kvg:09f60-g10" kvg:element="人"><path id="kvg:09f60-s12" kvg:type="㇒" d="M40.19 68.9c.14.19-.07 1.93-.17 2.35-1.13 4.55-4.08 12-8.28 16.28"/><path id="kvg:09f60-s13" kvg:type="㇔" d="M38.7 76.48c1.93 1.28 4.39 4.68 5.33 7.9"/></g></g><g id="kvg:09f60-g11" kvg:element="凵"><path id="kvg:09f60-s14" kvg:type="㇗a" d="M14.3 40.76c.46.45 1.32 1.89 1.21 4.3-.04.92-.26 45.65-.3 47.03-.04 1.38.39 2.54 1.29 2.42 9.79-1.29 22.77-2.3 31.94-2.81"/><path id="kvg:09f60-s15" kvg:type="㇑" d="M48.16 38.21c.28.45.89 3.39.94 4.3s-.12 31.75-.09 52.88"/></g></g></g><g id="kvg:09f60-g12" kvg:element="召" kvg:position="right"><g id="kvg:09f60-g13" kvg:element="刀" kvg:position="top"><path id="kvg:09f60-s16" kvg:type="㇆" d="M57.71 21.55c.75.45 3.01.84 4.17.71 9.48-1.07 23.87-3.39 29.13-3.79 3.42-.26 4.82 1.26 4.75 3.07-.24 5.96-2.09 20.04-5.77 27.45-3.23 6.51-5.48 2.76-8.15.11"/><path id="kvg:09f60-s17" kvg:type="㇒" d="M76 23.39c.06.75.17 1.95-.12 3.01-2.94 10.82-8.21 19.9-19.99 30.63"/></g><g id="kvg:09f60-g14" kvg:element="口" kvg:position="bottom"><path id="kvg:09f60-s18" kvg:type="㇑" d="M61 65.1c.31.44.63.81.77 1.37 1.09 4.39 2.81 19.89 3.56 27.78"/><path id="kvg:09f60-s19" kvg:type="㇕b" d="M61.96 66.73C70 66 83.05 65.27 88.63 64.74c1.85-.18 4.01 1.83 3.47 4.38-.99 4.67-2.84 15.08-3.97 21.64"/><path id="kvg:09f60-s20" kvg:type="㇐b" d="M65.36 92.39c4.12-.6 16.59-1.14 24.54-1.55"/></g></g></g></g></svg>