<svg xmlns="http://www.w3.org/2000/svg" width="109" height="109" viewBox="0 0 109 109"><g id="kvg:StrokePaths_09f62"><g id="kvg:09f62" kvg:element="齢"><g id="kvg:09f62-g1" kvg:element="歯" kvg:variant="true" kvg:original="齒" kvg:position="left" kvg:radical="general"><g id="kvg:09f62-g2" kvg:element="止" kvg:position="top"><g id="kvg:09f62-g3" kvg:element="卜" kvg:original="ト"><path id="kvg:09f62-s1" kvg:type="㇑a" d="M32.35 14.75c.95.95 1.16 2.25 1.16 3.61.0 5.03-.01 15.63-.01 20.51"/><path id="kvg:09f62-s2" kvg:type="㇐b" d="M34.59 26.94c3.67-.62 8.43-1.48 12.53-1.94 1-.11 2.71-.59 3.75-.2"/></g><path id="kvg:09f62-s3" kvg:type="㇑a" d="M18.25 23.75c.9.9 1.16 2 1.16 3.36.0.97.07 10.39.07 13.47"/><path id="kvg:09f62-s4" kvg:type="㇐" d="M9.64 42.52c2.52.83 5.31.3 7.88.0 7.89-.92 20.99-2.94 28.62-3.73 2.65-.27 5.61-.71 8.21.13"/></g><g id="kvg:09f62-g4" kvg:position="bottom"><g id="kvg:09f62-g5" kvg:element="米" kvg:variant="true"><path id="kvg:09f62-s5" kvg:type="㇔" d="M23.29 51.44c1.53 1.48 3.85 5.64 4.23 7.94"/><path id="kvg:09f62-s6" kvg:type="㇒" d="M44.77 48.34c.1 1.04-.14 1.8-.67 2.6-1.35 2.06-2.85 4.18-5.21 6.47"/><path id="kvg:09f62-s7" kvg:type="㇐" d="M21.39 64.12c1.36.38 2.73.32 3.85.17 4.14-.53 12.38-1.89 16.51-2.27.85-.08 2.42-.1 3.27.17"/><path id="kvg:09f62-s8" kvg:type="㇑" d="M32.54 46.34c.69.69.97 1.66.97 2.91.0.41.1 19.89.04 29.99-.01 2.47-.03 4.26-.05 4.89"/><path id="kvg:09f62-s9" kvg:type="㇒" d="M32.69 64.61c0 1.39-1.04 3.3-2.39 5.31-2.3 3.45-5.8 7.58-9.93 11.47"/><path id="kvg:09f62-s10" kvg:type="㇔/㇏" d="M35.64 68.86c2.46 1.17 6.4 4.11 8.54 7.83"/></g><g id="kvg:09f62-g6" kvg:element="凵"><path id="kvg:09f62-s11" kvg:type="㇗a" d="M14.97 51.54c.87.87 1 2.46 1 4.32.0.76.04 26.26.01 33.02-.01 2.33.07 3.59 2.76 3.25 9.66-1.22 22.8-2.96 31.57-3.42"/><path id="kvg:09f62-s12" kvg:type="㇑" d="M50.74 46.52c.93.93 1.19 2.11 1.19 3.57.0.77-.33 16.98-.39 34.91-.01 2.13-.01 4.27-.01 6.39"/></g></g></g><g id="kvg:09f62-g7" kvg:element="令" kvg:position="right" kvg:phon="令"><g id="kvg:09f62-g8" kvg:element="人" kvg:position="top"><path id="kvg:09f62-s13" kvg:type="㇒" d="M73.24 15.25c.26 1 .24 1.82-.12 3.06-2.25 7.94-7.88 23.31-17.38 33.32"/><path id="kvg:09f62-s14" kvg:type="㇏" d="M73.38 21.62c3.51 4.4 12.52 14.98 17.88 21.49 1.64 1.99 3.52 3.86 5.49 5.53"/></g><g id="kvg:09f62-g9" kvg:position="bottom"><g id="kvg:09f62-g10" kvg:element="一"><path id="kvg:09f62-s15" kvg:type="㇔" d="M70.24 47.57c3.49 1.57 9.01 6.48 9.88 8.93"/></g><g id="kvg:09f62-g11" kvg:element="卩" kvg:original="マ"><path id="kvg:09f62-s16" kvg:type="㇆a" d="M60.33 66.53c3.05.72 4.4.44 6.44.12 6.19-.97 19.49-2.66 23.24-3.22 2.07-.31 3.24.95 1.89 2.72-3.27 4.3-12.65 15.47-15.77 18.6"/><path id="kvg:09f62-s17" kvg:type="㇔/㇑" d="M67.02 79.53c3.26 2.04 11.68 9.89 13.21 15.22"/></g></g></g></g></g></svg>