<!DOCTYPE svg PUBLIC "-//W3C//DTD SVG 1.0//EN" "http://www.w3.org/TR/2001/REC-SVG-20010904/DTD/svg10.dtd" [
<!ATTLIST g
xmlns:kvg CDATA #FIXED "http://kanjivg.tagaini.net"
kvg:element CDATA #IMPLIED
kvg:variant CDATA #IMPLIED
kvg:partial CDATA #IMPLIED
kvg:original CDATA #IMPLIED
kvg:part CDATA #IMPLIED
kvg:number CDATA #IMPLIED
kvg:tradForm CDATA #IMPLIED
kvg:radicalForm CDATA #IMPLIED
kvg:position CDATA #IMPLIED
kvg:radical CDATA #IMPLIED
kvg:phon CDATA #IMPLIED >
<!ATTLIST path
xmlns:kvg CDATA #FIXED "http://kanjivg.tagaini.net"
kvg:type CDATA #IMPLIED >
]><svg xmlns="http://www.w3.org/2000/svg" width="109" height="109" viewBox="0 0 109 109"><g id="kvg:StrokePaths_09f6a" style="fill:none;stroke:#000000;stroke-width:3;stroke-linecap:round;stroke-linejoin:round;"><g id="kvg:09f6a" kvg:element="齪"><g id="kvg:09f6a-g1" kvg:element="齒" kvg:position="left" kvg:radical="general"><g id="kvg:09f6a-g2" kvg:element="止" kvg:position="top"><g id="kvg:09f6a-g3" kvg:element="卜" kvg:original="ト"><path id="kvg:09f6a-s1" kvg:type="㇑a" d="M31.09 10.5c.65.51 1.17 2.25 1.17 3.29.0 5.31.17 12.92.17 17.98"/><path id="kvg:09f6a-s2" kvg:type="㇐b/㇔" d="M32.39 21.89c4.24-.76 8.84-1.52 13.3-2.03 1.04-.12 1.3-.25 1.94.0"/></g><path id="kvg:09f6a-s3" kvg:type="㇑a" d="M19.49 17.08c.65.51 1.04 2.28 1.17 3.29.13 1.01.0 6.34-.13 12.67"/><path id="kvg:09f6a-s4" kvg:type="㇐" d="M8.75 33.59c.63.24 2.33.8 4.01.71 9.09-.47 25.99-2.8 34.4-3.3 1.69-.1 4.63-.49 5.59-.26"/></g><g id="kvg:09f6a-g4" kvg:position="bottom"><g id="kvg:09f6a-g5" kvg:element="从"><g id="kvg:09f6a-g6" kvg:element="人"><path id="kvg:09f6a-s5" kvg:type="㇒" d="M26.47 39.56c.11.18-.05 1.82-.14 2.22-.9 4.31-3.22 11.36-6.53 15.41"/><path id="kvg:09f6a-s6" kvg:type="㇔" d="M26.02 47.66c1.77 1.11 4.02 4.08 4.88 6.89"/></g><g id="kvg:09f6a-g7" kvg:element="人"><path id="kvg:09f6a-s7" kvg:type="㇒" d="M39.6 38.06c.11.18-.05 1.82-.13 2.22-.88 4.3-3.17 11.34-6.43 15.39"/><path id="kvg:09f6a-s8" kvg:type="㇔" d="M38.9 46.9c2.04 1.24 4.64 4.52 5.63 7.64"/></g></g><path id="kvg:09f6a-s9" kvg:type="㇐" d="M14.91 62.63c2.1.0 32.07-2.79 34.03-2.79"/><g id="kvg:09f6a-g8" kvg:element="从"><g id="kvg:09f6a-g9" kvg:element="人"><path id="kvg:09f6a-s10" kvg:type="㇒" d="M26.97 67.42c.12.19-.06 1.98-.15 2.41-1 4.67-3.58 12.32-7.26 16.72"/><path id="kvg:09f6a-s11" kvg:type="㇔" d="M26.05 76.51c1.71.91 3.89 3.33 4.72 5.62"/></g><g id="kvg:09f6a-g10" kvg:element="人"><path id="kvg:09f6a-s12" kvg:type="㇒" d="M40.19 66.4c.15.21-.08 2.19-.19 2.66-1.27 5.16-4.57 13.61-9.26 18.47"/><path id="kvg:09f6a-s13" kvg:type="㇔" d="M38.45 76.73c2.2 1.4 5.01 5.12 6.08 8.65"/></g></g><g id="kvg:09f6a-g11" kvg:element="凵"><path id="kvg:09f6a-s14" kvg:type="㇗a" d="M13.3 42.26c.46.45 1.32 1.89 1.21 4.3-.04.92-.26 44.65-.3 46.03-.04 1.38.39 2.54 1.29 2.42 9.79-1.29 23.77-2.8 32.94-3.31"/><path id="kvg:09f6a-s15" kvg:type="㇑" d="M48.16 37.71c.28.45.89 3.39.94 4.3s-.12 32.25-.09 53.38"/></g></g></g><g id="kvg:09f6a-g12" kvg:element="足" kvg:position="right"><g id="kvg:09f6a-g13" kvg:element="口"><path id="kvg:09f6a-s16" kvg:type="㇑" d="M57.95 16.25c.41.48.88 1.79 1.01 2.4 1.13 5.05 1.89 11.8 3.23 20.18"/><path id="kvg:09f6a-s17" kvg:type="㇕b" d="M59.04 18.09c8.46-1.34 22.36-3.2 27.13-3.35 1.98-.06 2.71 2.41 2.52 3.89-.7 5.4-1.72 8.66-3.08 15.82"/><path id="kvg:09f6a-s18" kvg:type="㇐b" d="M62.07 36.57c5.59-.5 17.18-1.32 25.84-1.81"/></g><g id="kvg:09f6a-g14" kvg:element="龰"><path id="kvg:09f6a-s19" kvg:type="㇑a" d="M73.6 37.6c.34.52 1.13 2.83 1.13 3.87.0 7.11.31 33.8.24 40.31"/><path id="kvg:09f6a-s20" kvg:type="㇐b" d="M75.23 58.26C76.04 58.26 84.49 56.99 89.83 56.4 90.92 56.28 92.38 56.61 93.21 56.61"/><path id="kvg:09f6a-s21" kvg:type="㇒" d="M63.55 49.56c.2 1.19.52 2.29.39 3.82-1.19 13.87-2.69 25.37-10.34 38.17"/><path id="kvg:09f6a-s22" kvg:type="㇏" d="M61.54 71.46C66.5 71.75 76.25 85 90.61 94.72c1.67 1.13 4.08.95 5.8 1.28"/></g></g></g></g><g id="kvg:StrokeNumbers_09f6a" style="font-size:8;fill:#808080"><text transform="matrix(1 0 0 1 23.50 10.50)">1</text><text transform="matrix(1 0 0 1 36.50 17.50)">2</text><text transform="matrix(1 0 0 1 11.50 17.50)">3</text><text transform="matrix(1 0 0 1 1.50 33.50)">4</text><text transform="matrix(1 0 0 1 19.50 42.50)">5</text><text transform="matrix(1 0 0 1 28.50 46.50)">6</text><text transform="matrix(1 0 0 1 33.50 40.50)">7</text><text transform="matrix(1 0 0 1 42.50 47.10)">8</text><text transform="matrix(1 0 0 1 22.75 60.50)">9</text><text transform="matrix(1 0 0 1 16.50 71.50)">10</text><text transform="matrix(1 0 0 1 28.50 76.50)">11</text><text transform="matrix(1 0 0 1 30.75 69.50)">12</text><text transform="matrix(1 0 0 1 40.50 78.73)">13</text><text transform="matrix(1 0 0 1 2.50 46.50)">14</text><text transform="matrix(1 0 0 1 50.50 42.58)">15</text><text transform="matrix(1 0 0 1 49.50 26.00)">16</text><text transform="matrix(1 0 0 1 60.50 14.50)">17</text><text transform="matrix(1 0 0 1 64.00 33.50)">18</text><text transform="matrix(1 0 0 1 64.75 46.53)">19</text><text transform="matrix(1 0 0 1 79.50 52.95)">20</text><text transform="matrix(1 0 0 1 53.25 53.88)">21</text><text transform="matrix(1 0 0 1 62.00 84.13)">22</text></g></svg>