<!DOCTYPE svg PUBLIC "-//W3C//DTD SVG 1.0//EN" "http://www.w3.org/TR/2001/REC-SVG-20010904/DTD/svg10.dtd" [
<!ATTLIST g
xmlns:kvg CDATA #FIXED "http://kanjivg.tagaini.net"
kvg:element CDATA #IMPLIED
kvg:variant CDATA #IMPLIED
kvg:partial CDATA #IMPLIED
kvg:original CDATA #IMPLIED
kvg:part CDATA #IMPLIED
kvg:number CDATA #IMPLIED
kvg:tradForm CDATA #IMPLIED
kvg:radicalForm CDATA #IMPLIED
kvg:position CDATA #IMPLIED
kvg:radical CDATA #IMPLIED
kvg:phon CDATA #IMPLIED >
<!ATTLIST path
xmlns:kvg CDATA #FIXED "http://kanjivg.tagaini.net"
kvg:type CDATA #IMPLIED >
]><svg xmlns="http://www.w3.org/2000/svg" width="109" height="109" viewBox="0 0 109 109"><g id="kvg:StrokePaths_09f72" style="fill:none;stroke:#000000;stroke-width:3;stroke-linecap:round;stroke-linejoin:round;"><g id="kvg:09f72" kvg:element="齲"><g id="kvg:09f72-g1" kvg:element="齒" kvg:position="left" kvg:radical="general"><g id="kvg:09f72-g2" kvg:element="止" kvg:position="top"><g id="kvg:09f72-g3" kvg:element="卜" kvg:original="ト"><path id="kvg:09f72-s1" kvg:type="㇑a" d="M30.59 10.5c.65.51 1.17 2.25 1.17 3.29.0 5.31.17 12.92.17 17.98"/><path id="kvg:09f72-s2" kvg:type="㇐b/㇔" d="M32.39 21.1c5.06-.95 9.35-1.78 14.67-2.41 1.24-.15 1.55-.32 2.32.0"/></g><path id="kvg:09f72-s3" kvg:type="㇑a" d="M17.49 15.58c.65.51 1.04 2.28 1.17 3.29s0 8.34-.13 14.67"/><path id="kvg:09f72-s4" kvg:type="㇐" d="M7.75 33.08c.51.33 1.87 1.05 3.22 1 10.04-.4 31.12-3.35 38.04-3.35 1.36.0 3.72.01 4.49.34"/></g><g id="kvg:09f72-g4" kvg:position="bottom"><g id="kvg:09f72-g5" kvg:element="从"><g id="kvg:09f72-g6" kvg:element="人"><path id="kvg:09f72-s5" kvg:type="㇒" d="M25.47 39.56c.12.19-.06 1.9-.15 2.31-.96 4.49-3.46 11.84-7.02 16.06"/><path id="kvg:09f72-s6" kvg:type="㇔" d="M25.77 46.16c1.86.95 4.23 3.49 5.13 5.89"/></g><g id="kvg:09f72-g7" kvg:element="人"><path id="kvg:09f72-s7" kvg:type="㇒" d="M39.59 38.56c.13.19-.07 1.98-.17 2.4-1.12 4.67-4.01 12.31-8.14 16.7"/><path id="kvg:09f72-s8" kvg:type="㇔" d="M37.9 48.4c2.04 1.24 4.64 4.52 5.63 7.64"/></g></g><path id="kvg:09f72-s9" kvg:type="㇐" d="M12.91 66.13c2.1.0 34.07-2.29 36.03-2.29"/><g id="kvg:09f72-g8" kvg:element="从"><g id="kvg:09f72-g9" kvg:element="人"><path id="kvg:09f72-s10" kvg:type="㇒" d="M25.46 70.42c.15.19-.08 1.93-.19 2.34-1.23 4.55-4.42 12-8.97 16.28"/><path id="kvg:09f72-s11" kvg:type="㇔" d="M26.52 77.26c1.37.87 3.11 3.18 3.78 5.37"/></g><g id="kvg:09f72-g10" kvg:element="人"><path id="kvg:09f72-s12" kvg:type="㇒" d="M38.68 69.9c.17.21-.08 2.11-.21 2.57-1.4 4.98-5.05 13.13-10.23 17.81"/><path id="kvg:09f72-s13" kvg:type="㇔" d="M37.45 78.73c2.2 1.4 5.01 5.12 6.08 8.65"/></g></g><g id="kvg:09f72-g11" kvg:element="凵"><path id="kvg:09f72-s14" kvg:type="㇗a" d="M11.8 40.76c.46.45 1.32 1.89 1.21 4.3-.04.92-.26 47.15-.3 48.53-.04 1.38.39 2.54 1.29 2.42 9.79-1.29 25.27-1.8 34.44-2.31"/><path id="kvg:09f72-s15" kvg:type="㇑" d="M48.16 37.71c.28.45.89 3.39.94 4.3s-.12 33.25-.09 54.38"/></g></g></g><g id="kvg:09f72-g12" kvg:element="禹" kvg:position="right"><g id="kvg:09f72-g13" kvg:element="丿"><path id="kvg:09f72-s16" kvg:type="㇒" d="M90.92 13.5c.07.29.29.84-.15 1.17-5.44 4.11-14.08 7.1-28.26 10.41"/></g><g id="kvg:09f72-g14" kvg:element="虫" kvg:part="1"><path id="kvg:09f72-s17" kvg:type="㇑" d="M59.16 33.04c.55.46 1.25.81 1.35 1.42.75 4.39 1.45 8.27 2.49 16.59"/><path id="kvg:09f72-s18" kvg:type="㇕" d="M60.91 34.75c8.36-.88 23.52-2.75 29.56-3.08 2.36-.13 3.47 1.05 3.15 3.45-.66 4.97-.74 4.24-2.37 11.74"/><path id="kvg:09f72-s19" kvg:type="㇐" d="M63.81 49.32c6.73-.88 19.99-1.81 29.4-2.63"/></g><g id="kvg:09f72-g15" kvg:element="禸" kvg:variant="true"><g id="kvg:09f72-g16" kvg:element="冂"><path id="kvg:09f72-s20" kvg:type="㇑" d="M58.24 60.72c.32.66.6 1.71.66 2.93.36 7.21.73 32.61.73 34.61"/><path id="kvg:09f72-s21" kvg:type="㇆a" d="M59.72 63.09c5.38-.5 32.93-4.71 34.01-4.75 2.27-.09 3.19 1.09 3.2 3.56C97 73.5 96.75 83 96.02 93.77c-.3 4.45-4.91.39-6.61-1.24"/></g><g id="kvg:09f72-g17" kvg:element="虫" kvg:part="2"><path id="kvg:09f72-s22" kvg:type="㇑" d="M75.52 24.16c.67.39 1.21 2.23 1.21 3.04.0 5.17.34 45.27.21 50.12"/><path id="kvg:09f72-s23" kvg:type="㇐" d="M67.29 80.12c.46.54 1.41.87 1.86.7 4.59-1.79 16.66-6.69 18.05-7.36"/><path id="kvg:09f72-s24" kvg:type="㇔" d="M84.04 68.5c2.21 2.14 5.7 8.82 6.25 12.15"/></g></g></g></g></g><g id="kvg:StrokeNumbers_09f72" style="font-size:8;fill:#808080"><text transform="matrix(1 0 0 1 23.50 10.50)">1</text><text transform="matrix(1 0 0 1 36.50 17.50)">2</text><text transform="matrix(1 0 0 1 10.25 16.48)">3</text><text transform="matrix(1 0 0 1 0.50 33.40)">4</text><text transform="matrix(1 0 0 1 19.50 41.50)">5</text><text transform="matrix(1 0 0 1 28.50 46.50)">6</text><text transform="matrix(1 0 0 1 33.50 41.50)">7</text><text transform="matrix(1 0 0 1 41.50 48.50)">8</text><text transform="matrix(1 0 0 1 21.75 60.50)">9</text><text transform="matrix(1 0 0 1 15.50 73.50)">10</text><text transform="matrix(1 0 0 1 28.50 77.50)">11</text><text transform="matrix(1 0 0 1 29.50 72.50)">12</text><text transform="matrix(1 0 0 1 40.50 78.73)">13</text><text transform="matrix(1 0 0 1 0.50 44.50)">14</text><text transform="matrix(1 0 0 1 50.50 39.50)">15</text><text transform="matrix(1 0 0 1 77.00 13.50)">16</text><text transform="matrix(1 0 0 1 53.50 45.50)">17</text><text transform="matrix(1 0 0 1 63.75 32.60)">18</text><text transform="matrix(1 0 0 1 66.50 46.50)">19</text><text transform="matrix(1 0 0 1 50.75 69.95)">20</text><text transform="matrix(1 0 0 1 62.50 59.50)">21</text><text transform="matrix(1 0 0 1 79.25 28.88)">22</text><text transform="matrix(1 0 0 1 63.50 75.50)">23</text><text transform="matrix(1 0 0 1 85.50 67.50)">24</text></g></svg>