<svg xmlns="http://www.w3.org/2000/svg" width="109" height="109" viewBox="0 0 109 109"><g id="kvg:StrokePaths_09f76"><g id="kvg:09f76" kvg:element="齶"><g id="kvg:09f76-g1" kvg:element="齒" kvg:position="left" kvg:radical="general"><g id="kvg:09f76-g2" kvg:element="止" kvg:position="top"><g id="kvg:09f76-g3" kvg:element="卜" kvg:original="ト"><path id="kvg:09f76-s1" kvg:type="㇑a" d="M31.59 12.5c.65.51 1.17 2.25 1.17 3.29.0 5.31.17 12.92.17 17.98"/><path id="kvg:09f76-s2" kvg:type="㇐b/㇔" d="M34.39 23.39c4.24-.76 7.84-1.02 12.3-1.53 1.04-.12 1.3-.25 1.94.0"/></g><path id="kvg:09f76-s3" kvg:type="㇑a" d="M20.49 19.08c.65.51 1.04 2.28 1.17 3.29.13 1.01.0 6.34-.13 12.67"/><path id="kvg:09f76-s4" kvg:type="㇐" d="M9.75 35.04c.49.25 1.8.85 3.1.76 7.03-.51 28.43-3.05 35.08-3.05 1.31.0 3.57.01 4.32.26"/></g><g id="kvg:09f76-g4" kvg:position="bottom"><g id="kvg:09f76-g5" kvg:element="从"><g id="kvg:09f76-g6" kvg:element="人"><path id="kvg:09f76-s5" kvg:type="㇒" d="M26.97 40.06c.1.19-.05 1.93-.12 2.34-.79 4.55-2.86 12-5.8 16.28"/><path id="kvg:09f76-s6" kvg:type="㇔" d="M26.27 48.16c1.86.95 4.23 3.49 5.13 5.89"/></g><g id="kvg:09f76-g7" kvg:element="人"><path id="kvg:09f76-s7" kvg:type="㇒" d="M40.09 40.56c.13.19-.07 1.98-.17 2.4-1.12 4.67-4.01 12.31-8.14 16.7"/><path id="kvg:09f76-s8" kvg:type="㇔" d="M39.4 48.9c2.04 1.24 4.64 4.52 5.63 7.64"/></g></g><path id="kvg:09f76-s9" kvg:type="㇐" d="M15.91 65.63c2.1.0 31.57-2.79 33.53-2.79"/><g id="kvg:09f76-g8" kvg:element="从"><g id="kvg:09f76-g9" kvg:element="人"><path id="kvg:09f76-s10" kvg:type="㇒" d="M27.96 69.92c.13.2-.07 2-.17 2.44-1.13 4.73-4.06 12.48-8.24 16.93"/><path id="kvg:09f76-s11" kvg:type="㇔" d="M27.02 78.26c1.37.87 3.11 3.18 3.78 5.37"/></g><g id="kvg:09f76-g10" kvg:element="人"><path id="kvg:09f76-s12" kvg:type="㇒" d="M40.69 69.4c.15.21-.08 2.19-.19 2.66-1.27 5.16-4.57 13.61-9.26 18.47"/><path id="kvg:09f76-s13" kvg:type="㇔" d="M38.45 79.23c2.2 1.4 5.01 5.12 6.08 8.65"/></g></g><g id="kvg:09f76-g11" kvg:element="凵"><path id="kvg:09f76-s14" kvg:type="㇗a" d="M14.8 43.26c.46.45 1.32 1.89 1.21 4.3-.04.92-.26 45.15-.3 46.53-.04 1.38.39 2.54 1.29 2.42 9.79-1.29 22.77-2.3 31.94-2.81"/><path id="kvg:09f76-s15" kvg:type="㇑" d="M48.16 40.21c.28.45.89 3.39.94 4.3s-.12 32.25-.09 53.38"/></g></g></g><g id="kvg:09f76-g12" kvg:element="咢" kvg:position="right"><g id="kvg:09f76-g13" kvg:position="top"><g id="kvg:09f76-g14" kvg:element="口" kvg:position="left"><path id="kvg:09f76-s16" kvg:type="㇑" d="M55.67 14.95c.22.32.74 1.54.83 1.94.76 3.17 1.21 9.91 1.73 15.6"/><path id="kvg:09f76-s17" kvg:type="㇕b" d="M57.03 16.6c6.18-1.85 11.94-2.22 13.01-2.4.94-.15 1.5.9 1.37 1.8-.56 3.7-1.2 7.67-2.03 12.79"/><path id="kvg:09f76-s18" kvg:type="㇐b" d="M59.32 30.23c3.01-.47 7.65-.78 11.78-1.51"/></g><g id="kvg:09f76-g15" kvg:element="口" kvg:position="right"><path id="kvg:09f76-s19" kvg:type="㇑" d="M77.02 13.06c.25.32.52.59.63.99.88 3.17 1.67 10.83 2.28 16.53"/><path id="kvg:09f76-s20" kvg:type="㇕b" d="M78.08 14.68c5.17-1.18 11.19-2.03 14.17-2.44 1.09-.15 1.75.9 1.59 1.8-.65 3.7-1.71 7.72-2.67 12.84"/><path id="kvg:09f76-s21" kvg:type="㇐b" d="M80.04 28.84c3.5-.47 7.71-.84 13.56-1.01"/></g></g><g id="kvg:09f76-g16" kvg:position="bottom"><g id="kvg:09f76-g17" kvg:element="二"><g id="kvg:09f76-g18" kvg:position="top"><path id="kvg:09f76-s22" kvg:type="㇐" d="M60.6 41.57c.64.42 1.81.46 2.46.42 4.44-.24 20.7-1.64 24.66-1.14 1.07.13 1.71.2 2.25.41"/></g><g id="kvg:09f76-g19" kvg:position="bottom"><path id="kvg:09f76-s23" kvg:type="㇐" d="M54.4 54.33c.97.52 2.76.59 3.73.52C70 54 83.22 53.09 91.84 52.52c1.62-.11 2.6.25 3.41.51"/></g></g><path id="kvg:09f76-s24" kvg:type="㇉" d="M66.91 54.66c.8 1.43 1.17 2.34.55 3.85-.5 1.21-4.12 7.34-4.44 7.93-1.29 2.36-.44 2.97 1.27 2.99 1.07.02 18.31-3.76 21.05-4.41 2.14-.51 3.29.71 3.05 3.28-.64 7.11-6.13 20.2-11.65 27.81-3 4.13-4.13-1.21-4.83-2.46"/></g></g></g></g></svg>