<svg xmlns="http://www.w3.org/2000/svg" width="109" height="109" viewBox="0 0 109 109"><g id="kvg:StrokePaths_09f8d" style="fill:none;stroke:#000000;stroke-width:3;stroke-linecap:round;stroke-linejoin:round;"><g id="kvg:09f8d" kvg:element="龍" kvg:radical="general"><g id="kvg:09f8d-g1" kvg:position="left"><g id="kvg:09f8d-g2" kvg:element="立" kvg:position="top"><g id="kvg:09f8d-g3" kvg:element="亠" kvg:position="top"><path id="kvg:09f8d-s1" kvg:type="㇑a" d="M30.62 12.25c.61.62 1.53 2 1.53 3.58.0 2.17.0 3.42.0 6.85"/><path id="kvg:09f8d-s2" kvg:type="㇐" d="M14.6 24.83c.66.3 2.94.35 3.6.3 3.74-.26 25-3.69 30.65-3.91 1.1-.04 1.77.14 2.32.3"/></g><g id="kvg:09f8d-g4" kvg:position="bottom"><path id="kvg:09f8d-s3" kvg:type="㇔" d="M22.32 28.77c2.25 3.98 3.28 8.05 3.48 10.67"/><path id="kvg:09f8d-s4" kvg:type="㇒" d="M42.57 25.18c.53.45.59 1.67.53 2.04-.42 2.53-4.81 10.05-5.86 11.98"/><path id="kvg:09f8d-s5" kvg:type="㇐" d="M10.75 42.71c.8.42 1.72.47 2.52.42 9.48-.63 28.09-3.94 38.15-4.81 1.33-.11 2.13.2 2.79.41"/></g></g><g id="kvg:09f8d-g5" kvg:element="月" kvg:position="bottom"><path id="kvg:09f8d-s6" kvg:type="㇑" d="M20.17 51.99c.47.63.78 1.26.93 1.88.16.63.22 41.54.16 42.95"/><path id="kvg:09f8d-s7" kvg:type="㇕" d="M22.03 52.61c1.87-.16 19-2.81 20.39-2.98 2.49-.31 3.42 2.04 3.11 2.98-.3.91-.47 23.41-.47 36.12.0 11.27-3.38 6.33-6.79 2.91"/><path id="kvg:09f8d-s8" kvg:type="㇐" d="M22.03 64.19c6.38-.94 16.81-1.85 22.41-2.32"/><path id="kvg:09f8d-s9" kvg:type="㇐" d="M22.5 75.59c4.98-.47 15.88-1.88 21.64-2.2"/></g></g><g id="kvg:09f8d-g6" kvg:position="right"><path id="kvg:09f8d-s10" kvg:type="㇐" d="M66.25 23.25c4.76-.52 14.5-2.5 19.89-3.47 1.23-.22 1.99.14 2.61.3"/><path id="kvg:09f8d-s11" kvg:type="㇞" d="M63.14 12.49c1.39 1.06 1.79 3.65 1.81 5.13.05 3.13-.2 12.88-.34 17.21-.03.93.28 2.08 2.81 1.64 5.58-.97 13.71-2.21 19.85-3.49 3.48-.72 3.58.81 3.03 2.42-1.05 3.1-1.72 8.43-2.8 13.85"/><path id="kvg:09f8d-s12" kvg:type="㇐" d="M64.75 51.75c4.76-.53 14.75-2.5 21.39-2.97"/><path id="kvg:09f8d-s13" kvg:type="㇟" d="M62.99 49.37c.74 1.19 1.33 2.59 1.38 4.43.2 8.19-.53 24.64-.53 30.2.0 13 8.9 11.53 17.67 11.53 14 0 14.89-2.78 14.89-9.12"/><path id="kvg:09f8d-s14" kvg:type="㇐" d="M65 61.54c4.76-.53 15.5-2 20.89-2.97 1.23-.22 1.99.14 2.61.3"/><path id="kvg:09f8d-s15" kvg:type="㇐" d="M64.75 71c4.76-.53 17-1.5 22.39-2.47 1.23-.22 1.99.14 2.61.3"/><path id="kvg:09f8d-s16" kvg:type="㇐" d="M64.25 81c4.76-.53 18.5-2 23.89-2.97 1.23-.22 1.99.14 2.61.3"/></g></g></g></svg>