<svg xmlns="http://www.w3.org/2000/svg" width="109" height="109" viewBox="0 0 109 109"><g id="kvg:StrokePaths_09fa0" style="fill:none;stroke:#000000;stroke-width:3;stroke-linecap:round;stroke-linejoin:round;"><g id="kvg:09fa0" kvg:element="龠" kvg:radical="general"><g id="kvg:09fa0-g1" kvg:element="人" kvg:position="top"><g id="kvg:09fa0-g2" kvg:element="丿"><path id="kvg:09fa0-s1" kvg:type="㇒" d="M50.25 9.75c.11.78.41 2.1-.21 3.12C45.5 20.25 32.25 33 11.5 42.75"/></g><path id="kvg:09fa0-s2" kvg:type="㇏" d="M51 12.38c5.83 4.4 30.9 19.21 37.33 22.43 2.18 1.09 4.98 1.56 7.17 1.87"/></g><g id="kvg:09fa0-g3" kvg:position="bottom"><path id="kvg:09fa0-s3" kvg:type="㇐" d="M37.25 33.19c.82.33 2.31.37 3.13.33 5.87-.27 17.37-2.02 24.01-2.38 1.36-.07 2.18.16 2.86.32"/><g id="kvg:09fa0-g4" kvg:element="口"><path id="kvg:09fa0-s4" kvg:type="㇑" d="M23.39 42.34c.27.29.58.53.67.92.77 3.4 1.75 10.55 2.52 15.55"/><path id="kvg:09fa0-s5" kvg:type="㇕b" d="M25.07 44.33c5-.72 9.29-1.3 13.91-2.02 1.16-.18 1.85.84 1.69 1.67-.69 3.44-1.29 5.03-2.51 10.75"/><path id="kvg:09fa0-s6" kvg:type="㇐b" d="M27.14 57.02c3.73-.44 7.06-1.19 12.18-1.87"/></g><g id="kvg:09fa0-g5" kvg:element="口"><path id="kvg:09fa0-s7" kvg:type="㇑" d="M46.14 41.55c.25.27.53.48.61.84.7 3.11 1.6 9.64 2.31 14.21"/><path id="kvg:09fa0-s8" kvg:type="㇕b" d="M47.68 43.37c4.56-.66 8.49-1.18 12.7-1.85 1.05-.16 1.69.77 1.54 1.52-.63 3.14-1.18 4.6-2.29 9.82"/><path id="kvg:09fa0-s9" kvg:type="㇐b" d="M49.56 54.96c3.4-.4 6.45-1.09 11.12-1.71"/></g><g id="kvg:09fa0-g6" kvg:element="口"><path id="kvg:09fa0-s10" kvg:type="㇑" d="M67.64 40.05c.26.27.56.48.65.84.75 3.11 1.7 9.64 2.45 14.2"/><path id="kvg:09fa0-s11" kvg:type="㇕b" d="M69.27 41.87c4.85-.66 9.03-1.18 13.5-1.85 1.12-.16 1.8.77 1.64 1.52-.67 3.14-1.25 4.6-2.44 9.82"/><path id="kvg:09fa0-s12" kvg:type="㇐b" d="M71.28 53.46c3.62-.4 6.85-1.09 11.82-1.71"/></g><g id="kvg:09fa0-g7" kvg:element="冊"><g id="kvg:09fa0-g8" kvg:element="冂"><path id="kvg:09fa0-s13" kvg:type="㇑" d="M23.82 63.97c.53.67 1.17 1.73 1.26 2.94.49 6.55-.27 26.44.4 33.09"/><path id="kvg:09fa0-s14" kvg:type="㇆a" d="M24.64 65c6.67-.54 52.12-4.47 53.43-4.65 2.81-.4 3.83 2.81 3.86 4.14.15 7.14-.46 13.43-.46 26.17.0 8.41-2.17 4.66-5.74 1.72"/></g><g id="kvg:09fa0-g9" kvg:element="廾" kvg:variant="true"><path id="kvg:09fa0-s15" kvg:type="㇐" d="M25.16 78.61c13.59-.86 42.34-4.11 56.63-4.63"/><path id="kvg:09fa0-s16" kvg:type="㇑" d="M42.78 63.59c.78.84 1.33-.68 1.39 2.1.32 13.35-.02 26.28-.02 30.83"/><path id="kvg:09fa0-s17" kvg:type="㇑" d="M60.59 61.92c.78.84 1.33.82 1.39 3.6.32 13.35-.02 26.4-.02 30.95"/></g></g></g></g></g></svg>