<svg xmlns="http://www.w3.org/2000/svg" width="109" height="109" viewBox="0 0 109 109"><g id="kvg:StrokePaths_0f92e" style="fill:none;stroke:#000000;stroke-width:3;stroke-linecap:round;stroke-linejoin:round;"><g id="kvg:0f92e" kvg:element="冷"><g id="kvg:0f92e-g1" kvg:element="冫" kvg:original="氷" kvg:position="left" kvg:radical="general"><g id="kvg:0f92e-g2" kvg:position="top"><path id="kvg:0f92e-s1" kvg:type="㇔" d="M13.88 24.62c3.99 1.97 10.31 8.11 11.31 11.18"/></g><g id="kvg:0f92e-g3" kvg:position="bottom"><path id="kvg:0f92e-s2" kvg:type="㇀" d="M12.6 84.79c1.46.67 3 .19 3.94-1.07 1.21-1.62 8.56-14.38 13.21-22.6"/></g></g><g id="kvg:0f92e-g4" kvg:element="令" kvg:position="right" kvg:phon="令"><g id="kvg:0f92e-g5" kvg:element="人" kvg:position="top"><path id="kvg:0f92e-s3" kvg:type="㇒" d="M61.04 12.25c.08.98.12 2.59-.4 3.93C56.5 26.88 48 41.5 34.5 54.35"/><path id="kvg:0f92e-s4" kvg:type="㇏" d="M60.85 16.24c5.4 5.39 20.25 21.5 27.55 28.74 2.1 2.08 4.13 4.02 6.85 5.24"/></g><g id="kvg:0f92e-g6" kvg:position="bottom"><g id="kvg:0f92e-g7" kvg:element="一"><path id="kvg:0f92e-s5" kvg:type="㇐" d="M49.6 45.1c1.76.72 3.84.36 5.65.14 5.4-.66 13.08-1.76 18.48-2.24 1.88-.17 3.54-.23 5.37.21"/></g><g id="kvg:0f92e-g8" kvg:element="卩" kvg:original="マ"><path id="kvg:0f92e-s6" kvg:type="㇆" d="M50.7 54c.61.15 3 1 4.21.87 3.29-.37 17.99-4.02 19.51-4.17s4.28-.29 3.95 2.89c-.43 4.17-2.68 16.92-6 23.84-1.89 3.94-3.18 3.45-6.23.46"/><path id="kvg:0f92e-s7" kvg:type="㇑" d="M57.9 55c.87.87 1.8 2 1.8 3.5.0 7.36-.04 24.53-.1 34.13-.02 3.3-.05 5.71-.08 6.51"/></g></g></g></g></g></svg>