<svg xmlns="http://www.w3.org/2000/svg" width="109" height="109" viewBox="0 0 109 109"><g id="kvg:StrokePaths_200a4"><g id="kvg:200a4" kvg:element="𠂤"><g id="kvg:200a4-g1" kvg:element="丿" kvg:position="top" kvg:radical="general"><path id="kvg:200a4-s1" kvg:type="㇒" d="M58.371954 4.9042815C58.613624 6.0725024 57.712854 7.2407234 56.526474 8.1965405 51.671104 12.152561 39.609575 18.537951 26.801067 22.865678"/></g><g id="kvg:200a4-g2" kvg:element="㠯" kvg:position="bottom"><path id="kvg:200a4-s2" kvg:type="㇑" d="M20.517647 23.303761c1.60381.969092999999997 2.65837 2.495745 2.65837 4.314453.0 1.234597-.39546 43.038321-.461370000000002 60.402333C22.714647 89.759603 22.692677 94.206808 22.692677 95.321928"/><path id="kvg:200a4-s3" kvg:type="㇕b" d="M25.680597 30.392738c14.104738-1.354074 39.172506-3.836543 50.772665-4.779085C83.263961 25.056093 85.790511 26.423442 83.988971 30.658243 82.385162 34.40186 80.979082 38.092376 77.771462 43.614875"/><path id="kvg:200a4-s4" kvg:type="㇐b" d="M26.032117 49.243576c21.816208-1.831982 36.821716-3.610864 48.465815-4.447204C78.035102 44.544142 80.825292 44.212261 84.076851 44.530867"/><path id="kvg:200a4-s5" kvg:type="㇕b" d="M25.329077 67.204973c16.104008-1.606303 44.511216-3.663965 57.209874-4.540131C89.481471 62.186933 92.095901 65.134036 90.953461 67.948387 89.129951 72.382316 88.361001 75.395795 85.175351 83.360938"/><path id="kvg:200a4-s6" kvg:type="㇐b" d="M25.197257 88.963088C34.161016 88.392253 61.755333 86.055811 79.485122 84.953967 83.571541 84.701737 86.603401 84.542434 89.701171 84.701737"/></g></g></g></svg>